<svg width="78" height="53" viewBox="0 0 78 53" fill="none" xmlns="http://www.w3.org/2000/svg">
<g clip-path="url(#clip0_1801_11303)">
<g clip-path="url(#clip1_1801_11303)">
<path d="M23.55 31.6999H16.48C16.48 31.6999 16.25 31.6899 16.48 31.1599C18.19 26.8299 23.03 28.0299 23.49 31.0399C23.55 31.4099 23.55 31.6999 23.55 31.6999ZM26.29 32.0599C26.1 31.0899 25.49 26.2899 20.23 26.2899C16.01 26.2899 13.52 29.7999 13.52 33.0099C13.52 36.2199 14.05 37.0199 15.03 38.2499C15.52 38.8399 17.21 40.7299 20 40.8499C21.07 40.8499 23.31 41.1199 26 38.4299C26.25 37.9999 26.72 37.2399 26.04 36.7099C25.42 36.2799 24.99 36.5599 24.67 36.7599C24.35 36.9599 22.88 38.3799 21.13 38.6099C20.88 38.6499 19.15 38.9399 17.42 37.3899C17.06 37.0199 15.94 35.6599 16.05 34.0599C16.08 33.7499 16.17 33.7899 16.35 33.7799H25.52C25.52 33.7799 26.64 33.8699 26.3 32.0699" fill="#0054A6"/>
<path d="M23.55 31.6999H16.48C16.48 31.6999 16.25 31.6899 16.48 31.1599C18.19 26.8299 23.03 28.0299 23.49 31.0399C23.55 31.4099 23.55 31.6999 23.55 31.6999ZM26.29 32.0599C26.1 31.0899 25.49 26.2899 20.23 26.2899C16.01 26.2899 13.52 29.7999 13.52 33.0099C13.52 36.2199 14.05 37.0199 15.03 38.2499C15.52 38.8399 17.21 40.7299 20 40.8499C21.07 40.8499 23.31 41.1199 26 38.4299C26.25 37.9999 26.72 37.2399 26.04 36.7099C25.42 36.2799 24.99 36.5599 24.67 36.7599C24.35 36.9599 22.88 38.3799 21.13 38.6099C20.88 38.6499 19.15 38.9399 17.42 37.3899C17.06 37.0199 15.94 35.6599 16.05 34.0599C16.08 33.7499 16.17 33.7899 16.35 33.7799H25.52C25.52 33.7799 26.64 33.8699 26.3 32.0699L26.29 32.0599Z" stroke="#0054A6" stroke-width="0.05" stroke-linecap="round"/>
<path d="M31.38 24.2L31.36 26.26C31.36 26.26 31.31 26.65 31.9 26.62C32.63 26.59 35.71 26.65 35.71 26.65C35.71 26.65 36.51 26.61 36.13 27.18C35.69 27.88 35.63 28.6 34.52 28.85C33.81 28.87 31.73 28.88 31.73 28.88C31.73 28.88 31.33 28.82 31.33 29.25V37.37C31.33 37.78 31.66 38.45 32.31 38.45C32.96 38.49 33.5 38.48 33.5 38.48C33.5 38.48 33.87 38.51 34.86 38.04C35.17 37.89 34.93 38.01 35.53 37.77C36.72 37.28 37.63 38.45 36.58 39.42C35.85 39.88 35.01 40.41 33.78 40.54C32.57 40.67 31.81 40.63 31.63 40.62C30.15 40.51 28.94 39.27 28.88 38.19C28.84 37.42 28.88 29.31 28.88 29.31C28.88 29.31 28.94 28.82 28.42 28.87C27.66 28.87 27.43 28.87 27.27 28.87C26.96 28.87 26.39 28.61 26.39 28.06C26.39 27.65 26.39 27.34 26.46 27.13C26.59 26.78 27.03 26.6 27.16 26.59C27.88 26.59 28.21 26.59 28.39 26.59C28.65 26.59 28.86 26.53 28.86 25.98C28.86 25.52 28.99 24.62 28.99 24.62C28.99 24.62 29.16 23.9 29.73 23.83C30.27 23.77 31.37 23.48 31.37 24.22" fill="#0054A6"/>
<path d="M31.38 24.2L31.36 26.26C31.36 26.26 31.31 26.65 31.9 26.62C32.63 26.59 35.71 26.65 35.71 26.65C35.71 26.65 36.51 26.61 36.13 27.18C35.69 27.88 35.63 28.6 34.52 28.85C33.81 28.87 31.73 28.88 31.73 28.88C31.73 28.88 31.33 28.82 31.33 29.25V37.37C31.33 37.78 31.66 38.45 32.31 38.45C32.96 38.49 33.5 38.48 33.5 38.48C33.5 38.48 33.87 38.51 34.86 38.04C35.17 37.89 34.93 38.01 35.53 37.77C36.72 37.28 37.63 38.45 36.58 39.42C35.85 39.88 35.01 40.41 33.78 40.54C32.57 40.67 31.81 40.63 31.63 40.62C30.15 40.51 28.94 39.27 28.88 38.19C28.84 37.42 28.88 29.31 28.88 29.31C28.88 29.31 28.94 28.82 28.42 28.87C27.66 28.87 27.43 28.87 27.27 28.87C26.96 28.87 26.39 28.61 26.39 28.06C26.39 27.65 26.39 27.34 26.46 27.13C26.59 26.78 27.03 26.6 27.16 26.59C27.88 26.59 28.21 26.59 28.39 26.59C28.65 26.59 28.86 26.53 28.86 25.98C28.86 25.52 28.99 24.62 28.99 24.62C28.99 24.62 29.16 23.9 29.73 23.83C30.27 23.77 31.37 23.48 31.37 24.22L31.38 24.2Z" stroke="#0054A6" stroke-width="0.05" stroke-linecap="round"/>
<path d="M38.05 27.83C38.05 27.83 38.02 26.69 38.92 26.54C39.5 26.5 40.43 26.5 40.56 27.15C40.7 27.82 40.76 27.58 40.95 27.4C41.14 27.22 41.83 26.6 43.29 26.57C43.63 26.57 44.74 26.56 46.05 27.1C46.26 27.18 46.66 27.48 46.19 27.92C45.76 28.35 45.83 28.38 45.32 28.5C44.76 28.64 44.81 28.72 44.15 28.53C42.73 28.32 41.07 29.09 40.69 31.04C40.62 31.45 40.64 31.5 40.59 32.35V39.49C40.59 39.49 40.53 40.59 39.87 40.6C39.21 40.6 38.07 40.85 38.07 39.45C38.07 39.12 38.06 27.84 38.06 27.84" fill="#0054A6"/>
<path d="M38.05 27.83C38.05 27.83 38.02 26.69 38.92 26.54C39.5 26.5 40.43 26.5 40.56 27.15C40.7 27.82 40.76 27.58 40.95 27.4C41.14 27.22 41.83 26.6 43.29 26.57C43.63 26.57 44.74 26.56 46.05 27.1C46.26 27.18 46.66 27.48 46.19 27.92C45.76 28.35 45.83 28.38 45.32 28.5C44.76 28.64 44.81 28.72 44.15 28.53C42.73 28.32 41.07 29.09 40.69 31.04C40.62 31.45 40.64 31.5 40.59 32.35V39.49C40.59 39.49 40.53 40.59 39.87 40.6C39.21 40.6 38.07 40.85 38.07 39.45C38.07 39.12 38.06 27.84 38.06 27.84L38.05 27.83Z" stroke="#0054A6" stroke-width="0.05" stroke-linecap="round"/>
<path d="M5.12003 38.78C3.13003 38.5 0.840029 36.02 4.64003 34.71C5.32003 34.47 8.03003 33.78 9.21003 33.38C9.30003 33.35 9.71003 33.22 9.74003 33.27C9.77003 33.61 9.91003 39.19 5.13003 38.77M12.3 30.41C12.33 29.65 11.66 26.83 8.53003 26.32C7.70003 26.24 5.32003 26.14 4.01003 26.87C4.01003 26.87 2.64003 27.8 5.78003 28.49C6.36003 28.54 8.67003 27.69 9.34003 29.45C9.62003 30.05 9.67003 30.6 9.72003 30.6C9.72003 30.83 9.95003 31.3 9.00003 31.45C7.71003 31.83 3.75003 32.75 3.75003 32.75C3.25003 32.87 0.640029 33.74 0.160029 35.68C0.0100293 36.46 -0.599971 38.91 3.34003 40.4C3.75003 40.58 7.22003 41.4 9.72003 39.1C9.87003 38.98 9.94003 38.98 9.98003 39.33C9.98003 39.71 9.96003 40.44 10.45 40.46C10.83 40.48 11.42 40.49 11.59 40.46C11.79 40.41 12.07 40.48 12.29 39.51C12.29 38.48 12.29 30.43 12.3 30.42" fill="#0054A6"/>
<path d="M5.12002 38.78C3.13002 38.5 0.840019 36.02 4.64002 34.71C5.32002 34.47 8.03002 33.78 9.21002 33.38C9.30002 33.35 9.71002 33.22 9.74002 33.27C9.77002 33.61 9.91002 39.19 5.13002 38.77L5.12002 38.78ZM12.29 30.42C12.32 29.66 11.65 26.84 8.52002 26.33C7.69002 26.25 5.31002 26.15 4.00002 26.88C4.00002 26.88 2.63002 27.81 5.77002 28.5C6.35002 28.55 8.66002 27.7 9.33002 29.46C9.61002 30.06 9.66002 30.61 9.71002 30.61C9.71002 30.84 9.94002 31.31 8.99002 31.46C7.70002 31.84 3.74002 32.76 3.74002 32.76C3.24002 32.88 0.63002 33.75 0.15002 35.69C1.95354e-05 36.47 -0.609981 38.92 3.33002 40.41C3.74002 40.59 7.21002 41.41 9.71002 39.11C9.86002 38.99 9.93002 38.99 9.97002 39.34C9.97002 39.72 9.95002 40.45 10.44 40.47C10.82 40.49 11.41 40.5 11.58 40.47C11.78 40.42 12.06 40.49 12.28 39.52C12.28 38.49 12.28 30.44 12.29 30.43V30.42Z" stroke="#0054A6" stroke-width="0.05" stroke-linecap="round"/>
<path d="M48.8 38.78C46.81 38.5 44.52 36.02 48.32 34.71C49 34.47 51.71 33.78 52.89 33.38C52.98 33.35 53.39 33.22 53.42 33.27C53.45 33.61 53.59 39.19 48.81 38.77M55.98 30.41C56.01 29.65 55.34 26.83 52.21 26.32C51.38 26.24 48.99 26.14 47.69 26.87C47.69 26.87 46.32 27.8 49.46 28.49C50.04 28.54 52.35 27.69 53.02 29.45C53.29 30.05 53.35 30.6 53.4 30.6C53.4 30.83 53.63 31.3 52.68 31.45C51.39 31.83 47.43 32.75 47.43 32.75C46.93 32.87 44.32 33.74 43.84 35.68C43.69 36.46 43.08 38.91 47.02 40.4C47.43 40.58 50.9 41.4 53.4 39.1C53.55 38.98 53.62 38.98 53.66 39.33C53.66 39.71 53.64 40.44 54.13 40.46C54.51 40.48 55.1 40.49 55.27 40.46C55.47 40.41 55.75 40.48 55.97 39.51C55.97 38.48 55.97 30.43 55.98 30.42" fill="#0054A6"/>
<path d="M48.8 38.78C46.81 38.5 44.52 36.02 48.32 34.71C49 34.47 51.71 33.78 52.89 33.38C52.98 33.35 53.39 33.22 53.42 33.27C53.45 33.61 53.59 39.19 48.81 38.77L48.8 38.78ZM55.97 30.42C56 29.66 55.33 26.84 52.2 26.33C51.37 26.25 48.98 26.15 47.68 26.88C47.68 26.88 46.31 27.81 49.45 28.5C50.03 28.55 52.34 27.7 53.01 29.46C53.28 30.06 53.34 30.61 53.39 30.61C53.39 30.84 53.62 31.31 52.67 31.46C51.38 31.84 47.42 32.76 47.42 32.76C46.92 32.88 44.31 33.75 43.83 35.69C43.68 36.47 43.07 38.92 47.01 40.41C47.42 40.59 50.89 41.41 53.39 39.11C53.54 38.99 53.61 38.99 53.65 39.34C53.65 39.72 53.63 40.45 54.12 40.47C54.5 40.49 55.09 40.5 55.26 40.47C55.46 40.42 55.74 40.49 55.96 39.52C55.96 38.49 55.96 30.44 55.97 30.43V30.42Z" stroke="#0054A6" stroke-width="0.05" stroke-linecap="round"/>
<mask id="mask0_1801_11303" style="mask-type:luminance" maskUnits="userSpaceOnUse" x="49" y="6" width="11" height="19">
<path d="M49.56 6.90001C49 7.88001 50.34 8.74001 51.35 9.24001C57.12 12.39 57.8 19.79 57.8 19.79C57.8 19.79 58.71 21.39 59.18 24.63C59.81 11.55 55.05 7.41001 51.58 6.41001C51.16 6.31001 50.83 6.26001 50.57 6.26001C49.98 6.26001 49.75 6.50001 49.57 6.90001" fill="white"/>
</mask>
<g mask="url(#mask0_1801_11303)">
<path d="M59.8 6.25H48.9901V24.62H59.8V6.25Z" fill="url(#paint0_linear_1801_11303)"/>
</g>
<path d="M57.79 19.79C57.79 19.79 57.11 12.38 51.34 9.24003C50.33 8.74003 48.99 7.88003 49.55 6.91003C49.82 6.34003 50.16 6.08003 51.56 6.41003C55.03 7.41003 59.79 11.55 59.16 24.63C58.7 21.39 57.78 19.79 57.78 19.79H57.79Z" stroke="#005BAA" stroke-width="0.05" stroke-linecap="round"/>
<path d="M50.11 7.26003C49.85 7.88003 51.13 8.19003 51.72 8.52003C59.67 12.35 58.86 19.76 58.86 19.76C58.86 19.76 59.18 21.15 59.21 24.49C59.92 12.25 55.25 7.41003 51.63 6.44003C51.49 6.42003 51.36 6.41003 51.25 6.41003C50.57 6.41003 50.35 6.76003 50.12 7.25003" fill="black"/>
<path d="M50.11 7.26003C49.85 7.88003 51.13 8.19003 51.72 8.52003C59.67 12.35 58.86 19.76 58.86 19.76C58.86 19.76 59.18 21.15 59.21 24.49C59.92 12.25 55.25 7.41003 51.63 6.44003C51.49 6.42003 51.36 6.41003 51.25 6.41003C50.57 6.41003 50.35 6.76003 50.12 7.25003" fill="url(#paint1_radial_1801_11303)"/>
<path d="M58.73 19.86C58.73 19.86 58.42 12.7 50.78 8.35C50.19 8.03 49.58 7.57 49.58 7.16C49.7 6.58 49.91 6.15 51.34 6.6C55.17 8.29 59.82 12.35 59.17 24.62C59.14 22.92 58.72 19.85 58.72 19.85" fill="#0054A6"/>
<path d="M60.07 0.309966C59.2 2.04997 60.31 3.92997 60.42 5.59997C60.54 6.89997 58.9 7.27997 58.3 5.95997C58.04 5.30997 58.28 3.15997 58.28 3.15997C58.29 2.93997 58.15 3.04997 58.04 3.21997C56.94 5.43997 57.17 6.90997 57.31 7.68997C57.82 9.59997 58.9 10.57 59.13 10.81C59.57 11.26 59.66 11.2 60.01 10.86C61.81 9.10997 62.12 6.91997 62.12 6.72997C62.12 6.51997 62.25 5.97997 61.68 4.19997C61.57 3.95997 61.41 3.45997 61.01 2.50997C60.71 1.90997 60.51 0.799966 60.45 0.289966C60.43 0.149966 60.37 0.0899658 60.31 0.0899658C60.23 0.0899658 60.14 0.169966 60.07 0.309966Z" fill="black"/>
<path d="M60.07 0.309966C59.2 2.04997 60.31 3.92997 60.42 5.59997C60.54 6.89997 58.9 7.27997 58.3 5.95997C58.04 5.30997 58.28 3.15997 58.28 3.15997C58.29 2.93997 58.15 3.04997 58.04 3.21997C56.94 5.43997 57.17 6.90997 57.31 7.68997C57.82 9.59997 58.9 10.57 59.13 10.81C59.57 11.26 59.66 11.2 60.01 10.86C61.81 9.10997 62.12 6.91997 62.12 6.72997C62.12 6.51997 62.25 5.97997 61.68 4.19997C61.57 3.95997 61.41 3.45997 61.01 2.50997C60.71 1.90997 60.51 0.799966 60.45 0.289966C60.43 0.149966 60.37 0.0899658 60.31 0.0899658C60.23 0.0899658 60.14 0.169966 60.07 0.309966Z" fill="url(#paint2_linear_1801_11303)"/>
<path d="M58.28 3.15004C58.28 3.15004 58.04 5.30004 58.3 5.95004C58.9 7.27004 60.54 6.90004 60.42 5.59004C60.31 3.92004 59.2 2.03004 60.07 0.300044C60.21 0.0400438 60.41 -0.0199563 60.46 0.280044C60.53 0.790044 60.72 1.90004 61.02 2.50004C61.43 3.45004 61.58 3.95004 61.69 4.19004C62.26 5.97004 62.14 6.51004 62.13 6.72004C62.13 6.92004 61.82 9.11004 60.02 10.85C59.67 11.19 59.59 11.26 59.14 10.8C58.91 10.56 57.83 9.59004 57.32 7.68004C57.18 6.89004 56.94 5.42004 58.05 3.21004C58.15 3.03004 58.3 2.92004 58.28 3.15004Z" fill="#005BAA"/>
<path d="M59.18 2.25C59.18 2.25 58.01 4.51 59.06 5.35C59.18 5.4 59.95 5.76 59.9 4.49C59.76 3.8 59.2 2.97 59.26 2.42C59.29 2.2 59.28 2.13 59.26 2.13C59.24 2.13 59.2 2.23 59.18 2.25Z" fill="black"/>
<path d="M59.18 2.25C59.18 2.25 58.01 4.51 59.06 5.35C59.18 5.4 59.95 5.76 59.9 4.49C59.76 3.8 59.2 2.97 59.26 2.42C59.29 2.2 59.28 2.13 59.26 2.13C59.24 2.13 59.2 2.23 59.18 2.25Z" fill="url(#paint3_linear_1801_11303)"/>
<path d="M59.18 2.24998C59.18 2.24998 58.01 4.50998 59.06 5.34998C59.18 5.39998 59.95 5.75998 59.9 4.48998C59.76 3.79998 59.2 2.96998 59.26 2.41998C59.32 1.92998 59.21 2.20998 59.18 2.25998V2.24998Z" fill="#005BAA"/>
<path d="M60.25 1.20003C59.83 2.96003 60.69 3.90003 60.8 5.57003C60.92 6.87003 59.15 8.49003 58.31 5.95003C58.05 5.30003 58.29 3.15003 58.29 3.15003C58.3 2.93003 58.16 3.04003 58.05 3.21003C57.3 5.79003 57.65 6.94003 57.79 7.73003C58.3 9.64003 59.13 10.45 59.37 10.69C59.81 11.14 59.85 11.02 60.02 10.86C61.82 9.11003 62.04 6.92003 62.04 6.73003C62.04 6.52003 62.21 5.98003 61.64 4.20003C61.53 3.96003 61.37 3.46003 60.97 2.51003C60.66 1.91003 60.56 1.57003 60.5 1.06003C60.48 0.950034 60.46 0.910034 60.44 0.910034C60.4 0.910034 60.35 1.05003 60.26 1.21003" fill="url(#paint4_linear_1801_11303)"/>
<path d="M59.19 2.40995C59.19 2.40995 58.17 4.52995 59.1 5.26995C59.21 5.30995 59.86 5.60995 59.86 4.57995C59.74 3.96995 59.31 3.23995 59.26 2.74995C59.22 2.43995 59.22 2.31995 59.21 2.31995C59.21 2.31995 59.21 2.34995 59.19 2.40995Z" fill="url(#paint5_linear_1801_11303)"/>
<mask id="mask1_1801_11303" style="mask-type:luminance" maskUnits="userSpaceOnUse" x="42" y="7" width="18" height="22">
<path d="M43.11 8.15999C42.89 8.52999 42.07 16.41 49.49 20.7C52.78 22.23 56.94 25.77 58.35 28.08C58.95 28.81 59.12 28.53 59.17 27.79C59.37 25.33 59.61 18.57 52.72 15.09C51.26 14.23 50.43 13.4 49.97 13.03C49.46 12.51 48.4 13.72 49.32 14.73C50.24 15.74 51.66 16.63 52 17.36C52.15 17.83 52.54 18.49 51.94 18.91C50.9 18.65 45.9 16.7 44.94 10.48C44.8 9.50999 44.82 9.08999 44.75 8.70999C44.53 7.97999 44.17 7.73999 43.84 7.73999C43.51 7.73999 43.23 7.95999 43.09 8.15999" fill="white"/>
</mask>
<g mask="url(#mask1_1801_11303)">
<path d="M59.62 7.73999H42.08V28.81H59.62V7.73999Z" fill="url(#paint6_linear_1801_11303)"/>
</g>
<path d="M43.11 8.16001C42.89 8.53001 42.07 16.41 49.49 20.7C52.78 22.22 56.94 25.77 58.35 28.08C58.95 28.81 59.12 28.53 59.17 27.79C59.38 25.33 59.61 18.57 52.72 15.09C51.26 14.23 50.44 13.4 49.97 13.03C49.46 12.51 48.4 13.72 49.32 14.73C50.24 15.74 51.66 16.62 52 17.36C52.15 17.83 52.54 18.49 51.94 18.91C50.9 18.65 45.9 16.7 44.94 10.48C44.8 9.51001 44.82 9.09001 44.75 8.71001C44.31 7.27001 43.38 7.74001 43.09 8.16001H43.11Z" stroke="#F26522" stroke-width="0.05" stroke-linecap="round"/>
<mask id="mask2_1801_11303" style="mask-type:luminance" maskUnits="userSpaceOnUse" x="42" y="7" width="18" height="22">
<path d="M43.11 8.15999C42.89 8.52999 42.07 16.41 49.49 20.7C52.78 22.23 56.94 25.77 58.35 28.08C58.95 28.81 59.12 28.53 59.17 27.79C59.37 25.33 51.46 15.58 51.15 16.35C52.45 17.61 52.41 18.49 52.03 18.83C52 18.85 51.88 18.89 51.8 18.87C50.86 18.6 45.84 16.2 44.96 10.48C44.82 9.50999 44.84 9.08999 44.77 8.70999C44.55 7.97999 44.19 7.73999 43.86 7.73999C43.53 7.73999 43.25 7.95999 43.11 8.15999Z" fill="white"/>
</mask>
<g mask="url(#mask2_1801_11303)">
<path d="M59.39 7.73999H42.08V28.81H59.39V7.73999Z" fill="url(#paint7_radial_1801_11303)"/>
</g>
<path d="M43.11 8.16002C42.89 8.53002 42.07 16.41 49.49 20.7C52.78 22.22 56.94 25.77 58.35 28.08C58.95 28.81 59.12 28.53 59.17 27.79C59.38 25.33 51.46 15.58 51.15 16.35C52.45 17.61 52.41 18.49 52.03 18.83C52 18.85 51.88 18.89 51.8 18.87C50.86 18.6 45.84 16.2 44.96 10.49C44.82 9.52002 44.84 9.10002 44.77 8.72002C44.33 7.28002 43.4 7.75002 43.11 8.17002V8.16002Z" stroke="#F26522" stroke-width="0.05" stroke-linecap="round"/>
<path d="M46.28 49.71C46.08 49.94 45.81 50.05 45.49 50.05C45.17 50.05 44.92 49.93 44.72 49.69C44.53 49.45 44.43 49.13 44.43 48.73C44.43 48.26 44.53 47.9 44.73 47.64C44.93 47.38 45.21 47.25 45.57 47.25C45.86 47.25 46.1 47.35 46.29 47.55C46.48 47.75 46.58 48 46.58 48.28V48.81C46.58 49.17 46.48 49.46 46.28 49.69M47.16 46.84H46.58V47.34H46.57C46.34 46.95 45.98 46.76 45.49 46.76C44.98 46.76 44.58 46.94 44.29 47.3C44 47.66 43.85 48.15 43.85 48.76C43.85 49.3 43.99 49.73 44.26 50.05C44.53 50.37 44.89 50.53 45.34 50.53C45.89 50.53 46.3 50.3 46.58 49.84H46.59V50.23C46.59 51.17 46.15 51.64 45.26 51.64C44.89 51.64 44.51 51.53 44.1 51.3V51.88C44.43 52.05 44.82 52.13 45.26 52.13C46.52 52.13 47.16 51.47 47.16 50.15V46.84ZM42.4 48.24C42.4 47.76 42.3 47.39 42.09 47.14C41.88 46.89 41.58 46.76 41.19 46.76C40.68 46.76 40.28 46.99 40.01 47.44H40V46.84H39.43V50.43H40V48.38C40 48.05 40.09 47.78 40.28 47.56C40.47 47.34 40.71 47.24 40.99 47.24C41.55 47.24 41.82 47.62 41.82 48.38V50.43H42.4V48.23V48.24ZM37.15 48.98C37.15 49.29 37.06 49.54 36.87 49.74C36.68 49.94 36.45 50.04 36.16 50.04C35.95 50.04 35.78 49.99 35.66 49.87C35.53 49.76 35.47 49.61 35.47 49.44C35.47 49.2 35.54 49.03 35.67 48.94C35.81 48.85 36.01 48.78 36.27 48.74L37.14 48.62V48.98H37.15ZM37.73 48.1C37.73 47.21 37.31 46.76 36.46 46.76C36 46.76 35.59 46.87 35.24 47.1V47.69C35.59 47.39 35.98 47.25 36.41 47.25C36.9 47.25 37.15 47.55 37.15 48.17L36.07 48.32C35.28 48.43 34.88 48.82 34.88 49.49C34.88 49.8 34.98 50.06 35.18 50.24C35.38 50.43 35.66 50.53 36.02 50.53C36.51 50.53 36.88 50.31 37.13 49.88H37.14V50.44H37.72V48.1H37.73ZM33.93 46.83C33.85 46.8 33.74 46.78 33.59 46.78C33.38 46.78 33.19 46.85 33.02 46.99C32.85 47.13 32.73 47.33 32.64 47.58H32.63V46.84H32.05V50.43H32.63V48.6C32.63 48.2 32.71 47.88 32.88 47.65C33.05 47.42 33.25 47.3 33.5 47.3C33.69 47.3 33.84 47.34 33.94 47.42V46.82L33.93 46.83ZM28.05 48.3C28.09 47.99 28.21 47.73 28.4 47.54C28.59 47.35 28.82 47.25 29.09 47.25C29.36 47.25 29.59 47.34 29.75 47.53C29.91 47.72 29.99 47.97 29.99 48.31H28.05V48.3ZM30.58 48.49C30.58 47.95 30.45 47.53 30.19 47.22C29.93 46.92 29.57 46.76 29.1 46.76C28.63 46.76 28.24 46.94 27.92 47.29C27.6 47.64 27.44 48.1 27.44 48.66C27.44 49.25 27.59 49.71 27.87 50.04C28.16 50.37 28.56 50.53 29.07 50.53C29.58 50.53 30.01 50.41 30.32 50.19V49.65C29.98 49.92 29.61 50.05 29.2 50.05C28.84 50.05 28.56 49.94 28.35 49.72C28.14 49.5 28.04 49.19 28.03 48.79H30.57V48.49H30.58ZM25.04 49.7C24.84 49.93 24.58 50.04 24.25 50.04C23.92 50.04 23.68 49.92 23.48 49.68C23.29 49.44 23.19 49.12 23.19 48.72C23.19 48.25 23.29 47.89 23.49 47.63C23.69 47.37 23.97 47.24 24.33 47.24C24.62 47.24 24.86 47.34 25.05 47.54C25.24 47.74 25.34 47.99 25.34 48.27V48.8C25.34 49.16 25.24 49.45 25.04 49.68M25.92 46.83H25.34V47.33H25.33C25.1 46.94 24.74 46.75 24.25 46.75C23.74 46.75 23.34 46.93 23.04 47.29C22.75 47.65 22.6 48.14 22.6 48.75C22.6 49.29 22.74 49.72 23.01 50.04C23.28 50.36 23.64 50.52 24.09 50.52C24.64 50.52 25.05 50.29 25.33 49.83H25.34V50.22C25.34 51.16 24.9 51.63 24.01 51.63C23.64 51.63 23.26 51.52 22.85 51.29V51.87C23.18 52.04 23.57 52.12 24.02 52.12C25.28 52.12 25.92 51.46 25.92 50.14V46.83ZM21.16 48.23C21.16 47.75 21.06 47.38 20.85 47.13C20.64 46.88 20.34 46.75 19.95 46.75C19.43 46.75 19.04 46.98 18.77 47.43H18.76V46.83H18.18V50.42H18.76V48.37C18.76 48.04 18.85 47.77 19.04 47.55C19.23 47.33 19.47 47.23 19.75 47.23C20.31 47.23 20.59 47.61 20.59 48.37V50.42H21.16V48.22V48.23ZM15.91 48.97C15.91 49.28 15.82 49.53 15.63 49.73C15.44 49.93 15.21 50.03 14.92 50.03C14.71 50.03 14.54 49.98 14.42 49.86C14.3 49.75 14.23 49.6 14.23 49.43C14.23 49.19 14.3 49.02 14.43 48.93C14.57 48.84 14.77 48.77 15.03 48.73L15.9 48.61V48.97H15.91ZM16.49 48.09C16.49 47.2 16.07 46.75 15.22 46.75C14.76 46.75 14.35 46.86 14 47.09V47.68C14.35 47.38 14.74 47.24 15.17 47.24C15.66 47.24 15.91 47.54 15.91 48.16L14.83 48.31C14.04 48.42 13.64 48.81 13.64 49.48C13.64 49.79 13.74 50.05 13.94 50.23C14.14 50.42 14.42 50.52 14.78 50.52C15.27 50.52 15.64 50.3 15.89 49.87H15.9V50.43H16.48V48.09H16.49ZM12.54 49.9C12.43 49.98 12.31 50.02 12.16 50.02C11.97 50.02 11.84 49.97 11.75 49.87C11.67 49.77 11.63 49.59 11.63 49.35V47.33H12.53V46.84H11.63V45.78L11.05 45.97V46.85H10.43V47.34H11.05V49.47C11.05 50.17 11.37 50.52 11.99 50.52C12.21 50.52 12.39 50.48 12.53 50.41V49.92L12.54 49.9Z" fill="#0054A6"/>
<path d="M46.28 49.7101C46.08 49.9401 45.81 50.0501 45.49 50.0501C45.17 50.0501 44.92 49.9301 44.72 49.6901C44.53 49.4501 44.43 49.1301 44.43 48.7301C44.43 48.2601 44.53 47.9001 44.73 47.6401C44.93 47.3801 45.21 47.2501 45.57 47.2501C45.86 47.2501 46.1 47.3501 46.29 47.5501C46.48 47.7501 46.58 48.0001 46.58 48.2801V48.8101C46.58 49.1701 46.48 49.4601 46.28 49.6901V49.7101ZM47.16 46.8601H46.58V47.3601H46.57C46.34 46.9701 45.98 46.7801 45.49 46.7801C44.98 46.7801 44.58 46.9601 44.29 47.3201C44 47.6801 43.85 48.1701 43.85 48.7801C43.85 49.3201 43.99 49.7501 44.26 50.0701C44.53 50.3901 44.89 50.5501 45.34 50.5501C45.89 50.5501 46.3 50.3201 46.58 49.8601H46.59V50.2501C46.59 51.1901 46.15 51.6601 45.26 51.6601C44.89 51.6601 44.51 51.5501 44.1 51.3201V51.9001C44.43 52.0701 44.82 52.1501 45.26 52.1501C46.52 52.1501 47.16 51.4901 47.16 50.1701V46.8601ZM42.4 48.2601C42.4 47.7801 42.3 47.4101 42.09 47.1601C41.88 46.9101 41.58 46.7801 41.19 46.7801C40.68 46.7801 40.28 47.0101 40.01 47.4601H40V46.8601H39.43V50.4501H40V48.4001C40 48.0701 40.09 47.8001 40.28 47.5801C40.47 47.3601 40.71 47.2601 40.99 47.2601C41.55 47.2601 41.82 47.6401 41.82 48.4001V50.4501H42.4V48.2501V48.2601ZM37.15 49.0001C37.15 49.3101 37.06 49.5601 36.87 49.7601C36.68 49.9601 36.45 50.0601 36.16 50.0601C35.95 50.0601 35.78 50.0101 35.66 49.8901C35.53 49.7801 35.47 49.6301 35.47 49.4601C35.47 49.2201 35.54 49.0501 35.67 48.9601C35.81 48.8701 36.01 48.8001 36.27 48.7601L37.14 48.6401V49.0001H37.15ZM37.73 48.1201C37.73 47.2301 37.31 46.7801 36.46 46.7801C36 46.7801 35.59 46.8901 35.24 47.1201V47.7101C35.59 47.4101 35.98 47.2701 36.41 47.2701C36.9 47.2701 37.15 47.5701 37.15 48.1901L36.07 48.3401C35.28 48.4501 34.88 48.8401 34.88 49.5101C34.88 49.8201 34.98 50.0801 35.18 50.2601C35.38 50.4501 35.66 50.5501 36.02 50.5501C36.51 50.5501 36.88 50.3301 37.13 49.9001H37.14V50.4601H37.72V48.1201H37.73ZM33.93 46.8501C33.85 46.8201 33.74 46.8001 33.59 46.8001C33.38 46.8001 33.19 46.8701 33.02 47.0101C32.85 47.1501 32.73 47.3501 32.64 47.6001H32.63V46.8601H32.05V50.4501H32.63V48.6201C32.63 48.2201 32.71 47.9001 32.88 47.6701C33.05 47.4401 33.25 47.3201 33.5 47.3201C33.69 47.3201 33.84 47.3601 33.94 47.4401V46.8401L33.93 46.8501ZM28.05 48.3201C28.09 48.0101 28.21 47.7501 28.4 47.5601C28.59 47.3701 28.82 47.2701 29.09 47.2701C29.36 47.2701 29.59 47.3601 29.75 47.5501C29.91 47.7401 29.99 47.9901 29.99 48.3301H28.05V48.3201ZM30.58 48.5101C30.58 47.9701 30.45 47.5501 30.19 47.2401C29.93 46.9401 29.57 46.7801 29.1 46.7801C28.63 46.7801 28.24 46.9601 27.92 47.3101C27.6 47.6601 27.44 48.1201 27.44 48.6801C27.44 49.2701 27.59 49.7301 27.87 50.0601C28.16 50.3901 28.56 50.5501 29.07 50.5501C29.58 50.5501 30.01 50.4301 30.32 50.2101V49.6701C29.98 49.9401 29.61 50.0701 29.2 50.0701C28.84 50.0701 28.56 49.9601 28.35 49.7401C28.14 49.5201 28.04 49.2101 28.03 48.8101H30.57V48.5101H30.58ZM25.04 49.7201C24.84 49.9501 24.58 50.0601 24.25 50.0601C23.92 50.0601 23.68 49.9401 23.48 49.7001C23.29 49.4601 23.19 49.1401 23.19 48.7401C23.19 48.2701 23.29 47.9101 23.49 47.6501C23.69 47.3901 23.97 47.2601 24.33 47.2601C24.62 47.2601 24.86 47.3601 25.05 47.5601C25.24 47.7601 25.34 48.0101 25.34 48.2901V48.8201C25.34 49.1801 25.24 49.4701 25.04 49.7001V49.7201ZM25.92 46.8701H25.34V47.3701H25.33C25.1 46.9801 24.74 46.7901 24.25 46.7901C23.74 46.7901 23.34 46.9701 23.04 47.3301C22.75 47.6901 22.6 48.1801 22.6 48.7901C22.6 49.3301 22.74 49.7601 23.01 50.0801C23.28 50.4001 23.64 50.5601 24.09 50.5601C24.64 50.5601 25.05 50.3301 25.33 49.8701H25.34V50.2601C25.34 51.2001 24.9 51.6701 24.01 51.6701C23.64 51.6701 23.26 51.5601 22.85 51.3301V51.9101C23.18 52.0801 23.57 52.1601 24.02 52.1601C25.28 52.1601 25.92 51.5001 25.92 50.1801V46.8701ZM21.16 48.2701C21.16 47.7901 21.06 47.4201 20.85 47.1701C20.64 46.9201 20.34 46.7901 19.95 46.7901C19.43 46.7901 19.04 47.0201 18.77 47.4701H18.76V46.8701H18.18V50.4601H18.76V48.4101C18.76 48.0801 18.85 47.8101 19.04 47.5901C19.23 47.3701 19.47 47.2701 19.75 47.2701C20.31 47.2701 20.59 47.6501 20.59 48.4101V50.4601H21.16V48.2601V48.2701ZM15.91 49.0101C15.91 49.3201 15.82 49.5701 15.63 49.7701C15.44 49.9701 15.21 50.0701 14.92 50.0701C14.71 50.0701 14.54 50.0201 14.42 49.9001C14.3 49.7901 14.23 49.6401 14.23 49.4701C14.23 49.2301 14.3 49.0601 14.43 48.9701C14.57 48.8801 14.77 48.8101 15.03 48.7701L15.9 48.6501V49.0101H15.91ZM16.49 48.1301C16.49 47.2401 16.07 46.7901 15.22 46.7901C14.76 46.7901 14.35 46.9001 14 47.1301V47.7201C14.35 47.4201 14.74 47.2801 15.17 47.2801C15.66 47.2801 15.91 47.5801 15.91 48.2001L14.83 48.3501C14.04 48.4601 13.64 48.8501 13.64 49.5201C13.64 49.8301 13.74 50.0901 13.94 50.2701C14.14 50.4601 14.42 50.5601 14.78 50.5601C15.27 50.5601 15.64 50.3401 15.89 49.9101H15.9V50.4701H16.48V48.1301H16.49ZM12.54 49.9401C12.43 50.0201 12.31 50.0601 12.16 50.0601C11.97 50.0601 11.84 50.0101 11.75 49.9101C11.67 49.8101 11.63 49.6301 11.63 49.3901V47.3701H12.53V46.8801H11.63V45.8201L11.05 46.0101V46.8901H10.43V47.3801H11.05V49.5101C11.05 50.2101 11.37 50.5601 11.99 50.5601C12.21 50.5601 12.39 50.5201 12.53 50.4501V49.9601L12.54 49.9401Z" stroke="#0054A6" stroke-width="0.05"/>
<mask id="mask3_1801_11303" style="mask-type:luminance" maskUnits="userSpaceOnUse" x="60" y="6" width="11" height="19">
<path d="M67.97 6.4C64.5 7.4 59.74 11.54 60.37 24.62C60.83 21.38 61.75 19.78 61.75 19.78C61.75 19.78 62.43 12.37 68.2 9.23C69.21 8.73 70.55 7.87 69.99 6.89C69.8 6.49 69.58 6.25 68.99 6.25C68.73 6.25 68.41 6.3 67.98 6.4" fill="white"/>
</mask>
<g mask="url(#mask3_1801_11303)">
<path d="M70.55 6.25H59.74V24.62H70.55V6.25Z" fill="url(#paint8_linear_1801_11303)"/>
</g>
<path d="M61.75 19.79C61.75 19.79 62.43 12.38 68.2 9.24003C69.21 8.74003 70.55 7.88003 69.99 6.91003C69.72 6.34003 69.38 6.08003 67.98 6.41003C64.51 7.41003 59.75 11.55 60.38 24.63C60.84 21.39 61.76 19.79 61.76 19.79H61.75Z" fill="#005BAA" stroke="#005BAA" stroke-width="0.05" stroke-linecap="round"/>
<mask id="mask4_1801_11303" style="mask-type:luminance" maskUnits="userSpaceOnUse" x="60" y="6" width="10" height="19">
<path d="M67.92 6.45005C64.29 7.42005 59.62 12.2501 60.34 24.5001C60.37 21.1601 60.69 19.7701 60.69 19.7701C60.69 19.7701 59.88 12.3601 67.83 8.53005C68.42 8.21005 69.71 7.89005 69.44 7.27005C69.21 6.78005 68.99 6.43005 68.31 6.43005C68.2 6.43005 68.07 6.43005 67.93 6.46005" fill="white"/>
</mask>
<g mask="url(#mask4_1801_11303)">
<path d="M69.69 6.42004H59.62V24.5H69.69V6.42004Z" fill="url(#paint9_radial_1801_11303)"/>
</g>
<path d="M60.81 19.86C60.81 19.86 61.12 12.7 68.76 8.35C69.35 8.03 69.97 7.57 69.96 7.16C69.84 6.58 69.63 6.15 68.2 6.6C64.37 8.29 59.72 12.35 60.37 24.62C60.4 22.92 60.82 19.85 60.82 19.85" fill="#0054A6"/>
<mask id="mask5_1801_11303" style="mask-type:luminance" maskUnits="userSpaceOnUse" x="60" y="7" width="17" height="22">
<path d="M74.77 8.70999C74.7 9.08999 74.72 9.50999 74.58 10.48C73.62 16.69 68.62 18.65 67.58 18.91C66.99 18.49 67.37 17.83 67.52 17.36C67.86 16.62 69.28 15.74 70.2 14.73C71.12 13.72 70.07 12.52 69.55 13.03C69.09 13.4 68.27 14.23 66.8 15.09C59.92 18.57 60.15 25.33 60.35 27.79C60.4 28.54 60.58 28.81 61.17 28.08C62.58 25.77 66.74 22.23 70.03 20.7C77.45 16.41 76.63 8.52999 76.41 8.15999C76.27 7.95999 75.98 7.73999 75.66 7.73999C75.34 7.73999 74.98 7.97999 74.75 8.70999" fill="white"/>
</mask>
<g mask="url(#mask5_1801_11303)">
<path d="M77.47 7.73999H59.93V28.81H77.47V7.73999Z" fill="url(#paint10_linear_1801_11303)"/>
</g>
<path d="M76.43 8.16001C76.65 8.53001 77.47 16.41 70.05 20.7C66.76 22.22 62.6 25.77 61.19 28.08C60.59 28.81 60.42 28.53 60.37 27.79C60.16 25.33 59.93 18.57 66.82 15.09C68.28 14.23 69.1 13.4 69.57 13.03C70.08 12.51 71.14 13.72 70.22 14.73C69.3 15.74 67.88 16.62 67.54 17.36C67.39 17.83 67 18.49 67.6 18.91C68.64 18.65 73.64 16.7 74.6 10.48C74.74 9.51001 74.72 9.09001 74.79 8.71001C75.23 7.27001 76.16 7.74001 76.45 8.16001H76.43Z" stroke="#F26522" stroke-width="0.05" stroke-linecap="round"/>
<mask id="mask6_1801_11303" style="mask-type:luminance" maskUnits="userSpaceOnUse" x="60" y="7" width="17" height="22">
<path d="M74.77 8.70999C74.7 9.08999 74.72 9.50999 74.58 10.48C73.7 16.2 68.68 18.6 67.74 18.87C67.66 18.89 67.53 18.85 67.51 18.83C67.13 18.49 67.08 17.61 68.39 16.35C68.08 15.58 60.17 25.33 60.37 27.79C60.42 28.54 60.6 28.81 61.19 28.08C62.6 25.77 66.76 22.23 70.05 20.7C77.47 16.41 76.65 8.52999 76.43 8.15999C76.29 7.95999 76 7.73999 75.68 7.73999C75.36 7.73999 75 7.97999 74.77 8.70999Z" fill="white"/>
</mask>
<g mask="url(#mask6_1801_11303)">
<path d="M77.47 7.73999H60.16V28.81H77.47V7.73999Z" fill="url(#paint11_radial_1801_11303)"/>
</g>
<path d="M76.43 8.16002C76.65 8.53002 77.47 16.41 70.05 20.7C66.76 22.22 62.6 25.77 61.19 28.08C60.59 28.81 60.42 28.53 60.37 27.79C60.16 25.33 68.08 15.58 68.39 16.35C67.09 17.61 67.13 18.49 67.51 18.83C67.54 18.85 67.66 18.89 67.74 18.87C68.68 18.6 73.7 16.2 74.58 10.49C74.72 9.52002 74.7 9.10002 74.77 8.72002C75.21 7.28002 76.14 7.75002 76.43 8.17002V8.16002Z" stroke="#F26522" stroke-width="0.05" stroke-linecap="round"/>
</g>
</g>
<defs>
<linearGradient id="paint0_linear_1801_11303" x1="50.2561" y1="17.428" x2="60.176" y2="17.428" gradientUnits="userSpaceOnUse">
<stop stop-color="white"/>
<stop offset="0.01" stop-color="#E9ECF6"/>
<stop offset="0.04" stop-color="#BCC8E4"/>
<stop offset="0.06" stop-color="#9CADD7"/>
<stop offset="0.08" stop-color="#899DCF"/>
<stop offset="0.09" stop-color="#8298CD"/>
<stop offset="0.11" stop-color="#8298CD"/>
<stop offset="0.24" stop-color="#8298CD"/>
<stop offset="0.25" stop-color="#7F96CC"/>
<stop offset="0.36" stop-color="#5882C0"/>
<stop offset="0.47" stop-color="#3871B6"/>
<stop offset="0.59" stop-color="#1F64AF"/>
<stop offset="0.72" stop-color="#0D5BAA"/>
<stop offset="0.85" stop-color="#0355A7"/>
<stop offset="1" stop-color="#0054A6"/>
</linearGradient>
<radialGradient id="paint1_radial_1801_11303" cx="0" cy="0" r="1" gradientUnits="userSpaceOnUse" gradientTransform="translate(53.3706 9.45043) scale(4.37018 9.38)">
<stop stop-color="white"/>
<stop offset="0.1" stop-color="white"/>
<stop offset="0.21" stop-color="#FAFCFD"/>
<stop offset="0.32" stop-color="#EEF4F9"/>
<stop offset="0.44" stop-color="#D8E6F2"/>
<stop offset="0.55" stop-color="#BBD3E8"/>
<stop offset="0.67" stop-color="#95BADB"/>
<stop offset="0.79" stop-color="#669CCC"/>
<stop offset="0.91" stop-color="#3079BA"/>
<stop offset="1" stop-color="#005BAA"/>
</radialGradient>
<linearGradient id="paint2_linear_1801_11303" x1="-1730.27" y1="6.32778" x2="-1737.19" y2="6.32778" gradientUnits="userSpaceOnUse">
<stop stop-color="white"/>
<stop offset="0.01" stop-color="#E9ECF6"/>
<stop offset="0.04" stop-color="#BCC8E4"/>
<stop offset="0.06" stop-color="#9CADD7"/>
<stop offset="0.08" stop-color="#899DCF"/>
<stop offset="0.09" stop-color="#8298CD"/>
<stop offset="0.11" stop-color="#8298CD"/>
<stop offset="0.24" stop-color="#8298CD"/>
<stop offset="0.25" stop-color="#7F96CC"/>
<stop offset="0.36" stop-color="#5882C0"/>
<stop offset="0.47" stop-color="#3871B6"/>
<stop offset="0.59" stop-color="#1F64AF"/>
<stop offset="0.72" stop-color="#0D5BAA"/>
<stop offset="0.85" stop-color="#0355A7"/>
<stop offset="1" stop-color="#0054A6"/>
</linearGradient>
<linearGradient id="paint3_linear_1801_11303" x1="60.8288" y1="1073" x2="60.8288" y2="1077.13" gradientUnits="userSpaceOnUse">
<stop stop-color="white"/>
<stop offset="0.01" stop-color="#E9ECF6"/>
<stop offset="0.04" stop-color="#BCC8E4"/>
<stop offset="0.06" stop-color="#9CADD7"/>
<stop offset="0.08" stop-color="#899DCF"/>
<stop offset="0.09" stop-color="#8298CD"/>
<stop offset="0.11" stop-color="#8298CD"/>
<stop offset="0.24" stop-color="#8298CD"/>
<stop offset="0.25" stop-color="#7F96CC"/>
<stop offset="0.36" stop-color="#5882C0"/>
<stop offset="0.47" stop-color="#3871B6"/>
<stop offset="0.59" stop-color="#1F64AF"/>
<stop offset="0.72" stop-color="#0D5BAA"/>
<stop offset="0.85" stop-color="#0355A7"/>
<stop offset="1" stop-color="#0054A6"/>
</linearGradient>
<linearGradient id="paint4_linear_1801_11303" x1="65.5" y1="4.70411" x2="58" y2="4.70411" gradientUnits="userSpaceOnUse">
<stop stop-color="white"/>
<stop offset="0.01" stop-color="#E9ECF6"/>
<stop offset="0.04" stop-color="#BCC8E4"/>
<stop offset="0.06" stop-color="#9CADD7"/>
<stop offset="0.08" stop-color="#899DCF"/>
<stop offset="0.09" stop-color="#8298CD"/>
<stop offset="0.11" stop-color="#8298CD"/>
<stop offset="0.24" stop-color="#8298CD"/>
<stop offset="0.25" stop-color="#7F96CC"/>
<stop offset="0.36" stop-color="#5882C0"/>
<stop offset="0.47" stop-color="#3871B6"/>
<stop offset="0.59" stop-color="#1F64AF"/>
<stop offset="0.72" stop-color="#0D5BAA"/>
<stop offset="0.85" stop-color="#0355A7"/>
<stop offset="1" stop-color="#0054A6"/>
</linearGradient>
<linearGradient id="paint5_linear_1801_11303" x1="59.9997" y1="1.99994" x2="59.9997" y2="5.49994" gradientUnits="userSpaceOnUse">
<stop stop-color="white"/>
<stop offset="0.0099" stop-color="white"/>
<stop offset="0.01" stop-color="#E9ECF6"/>
<stop offset="0.04" stop-color="#BCC8E4"/>
<stop offset="0.06" stop-color="#9CADD7"/>
<stop offset="0.08" stop-color="#899DCF"/>
<stop offset="0.09" stop-color="#8298CD"/>
<stop offset="0.11" stop-color="#8298CD"/>
<stop offset="0.24" stop-color="#8298CD"/>
<stop offset="0.25" stop-color="#7F96CC"/>
<stop offset="0.36" stop-color="#5882C0"/>
<stop offset="0.47" stop-color="#3871B6"/>
<stop offset="0.59" stop-color="#1F64AF"/>
<stop offset="0.72" stop-color="#0D5BAA"/>
<stop offset="0.85" stop-color="#0355A7"/>
<stop offset="1" stop-color="#0054A6"/>
</linearGradient>
<linearGradient id="paint6_linear_1801_11303" x1="43.572" y1="19.723" x2="59.912" y2="19.723" gradientUnits="userSpaceOnUse">
<stop stop-color="#F26522"/>
<stop offset="0.48" stop-color="#F26522"/>
<stop offset="0.55" stop-color="#F6924A"/>
<stop offset="0.62" stop-color="#F9BE70"/>
<stop offset="0.69" stop-color="#FCDD8C"/>
<stop offset="0.75" stop-color="#FEF19C"/>
<stop offset="0.78" stop-color="#FFF8A3"/>
<stop offset="1" stop-color="#E14A21"/>
</linearGradient>
<radialGradient id="paint7_radial_1801_11303" cx="0" cy="0" r="1" gradientUnits="userSpaceOnUse" gradientTransform="translate(52.668 22.6206) scale(16.46 21.07)">
<stop stop-color="#F26522"/>
<stop offset="0.48" stop-color="#F26522"/>
<stop offset="0.55" stop-color="#F6924A"/>
<stop offset="0.62" stop-color="#F9BE70"/>
<stop offset="0.69" stop-color="#FCDD8C"/>
<stop offset="0.75" stop-color="#FEF19C"/>
<stop offset="0.78" stop-color="#FFF8A3"/>
<stop offset="1" stop-color="#E14A21"/>
</radialGradient>
<linearGradient id="paint8_linear_1801_11303" x1="-2501.98" y1="5665.38" x2="-2511.9" y2="5665.38" gradientUnits="userSpaceOnUse">
<stop stop-color="white"/>
<stop offset="0.01" stop-color="#E9ECF6"/>
<stop offset="0.04" stop-color="#BCC8E4"/>
<stop offset="0.06" stop-color="#9CADD7"/>
<stop offset="0.08" stop-color="#899DCF"/>
<stop offset="0.09" stop-color="#8298CD"/>
<stop offset="0.11" stop-color="#8298CD"/>
<stop offset="0.24" stop-color="#8298CD"/>
<stop offset="0.25" stop-color="#7F96CC"/>
<stop offset="0.36" stop-color="#5882C0"/>
<stop offset="0.47" stop-color="#3871B6"/>
<stop offset="0.59" stop-color="#1F64AF"/>
<stop offset="0.72" stop-color="#0D5BAA"/>
<stop offset="0.85" stop-color="#0355A7"/>
<stop offset="1" stop-color="#0054A6"/>
</linearGradient>
<radialGradient id="paint9_radial_1801_11303" cx="0" cy="0" r="1" gradientUnits="userSpaceOnUse" gradientTransform="translate(-1175.27 5336.55) rotate(180) scale(2.39 4.69)">
<stop stop-color="white"/>
<stop offset="0.1" stop-color="white"/>
<stop offset="0.21" stop-color="#FAFCFD"/>
<stop offset="0.32" stop-color="#EEF4F9"/>
<stop offset="0.44" stop-color="#D8E6F2"/>
<stop offset="0.55" stop-color="#BBD3E8"/>
<stop offset="0.67" stop-color="#95BADB"/>
<stop offset="0.79" stop-color="#669CCC"/>
<stop offset="0.91" stop-color="#3079BA"/>
<stop offset="1" stop-color="#005BAA"/>
</radialGradient>
<linearGradient id="paint10_linear_1801_11303" x1="-4159.36" y1="9318" x2="-4175.7" y2="9318" gradientUnits="userSpaceOnUse">
<stop stop-color="#F26522"/>
<stop offset="0.48" stop-color="#F26522"/>
<stop offset="0.55" stop-color="#F6924A"/>
<stop offset="0.62" stop-color="#F9BE70"/>
<stop offset="0.69" stop-color="#FCDD8C"/>
<stop offset="0.75" stop-color="#FEF19C"/>
<stop offset="0.78" stop-color="#FFF8A3"/>
<stop offset="1" stop-color="#E14A21"/>
</linearGradient>
<radialGradient id="paint11_radial_1801_11303" cx="0" cy="0" r="1" gradientUnits="userSpaceOnUse" gradientTransform="translate(-4207.79 11988.7) rotate(180) scale(8.23 10.535)">
<stop stop-color="#F26522"/>
<stop offset="0.48" stop-color="#F26522"/>
<stop offset="0.55" stop-color="#F6924A"/>
<stop offset="0.62" stop-color="#F9BE70"/>
<stop offset="0.69" stop-color="#FCDD8C"/>
<stop offset="0.75" stop-color="#FEF19C"/>
<stop offset="0.78" stop-color="#FFF8A3"/>
<stop offset="1" stop-color="#E14A21"/>
</radialGradient>
<clipPath id="clip0_1801_11303">
<rect width="77.46" height="52.17" fill="white"/>
</clipPath>
<clipPath id="clip1_1801_11303">
<rect width="77.46" height="52.17" fill="white"/>
</clipPath>
</defs>
</svg>
