<svg width="80" height="51" viewBox="0 0 80 51" fill="none" xmlns="http://www.w3.org/2000/svg">
<g clip-path="url(#clip0_1801_11272)">
<path d="M79.9929 9.51069C77.852 13.1072 75.4142 16.8168 71.0122 17.5163C68.9984 17.8343 66.9705 17.6435 65.0556 16.9793C62.3847 16.0537 59.7845 14.9161 57.1136 13.9693C55.6509 13.4464 54.1318 13.0295 52.5985 12.7398C50.6766 12.3794 48.8606 12.8458 47.3909 14.1671C45.4478 15.9124 43.6389 17.7919 41.6817 19.5019C39.675 21.2613 37.6047 22.95 35.4849 24.561C32.383 26.914 28.9489 27.5004 25.2394 26.1367C23.1973 25.3877 21.1482 24.66 19.0991 23.911C16.2869 22.8864 13.3828 22.7875 10.4505 23.0065C8.89596 23.1196 7.34853 23.3386 5.70924 23.5153C5.80816 23.2538 5.87882 22.9924 6.00601 22.7663C7.94913 19.2899 10.6271 16.7744 14.7324 16.1738C16.7674 15.8771 18.8023 16.0961 20.7596 16.7108C23.3386 17.5163 25.8824 18.4349 28.4685 19.2475C30.8143 19.9894 33.2097 20.4981 35.711 20.3215C37.2231 20.2084 38.5868 19.735 39.682 18.6893C42.1975 16.2939 44.72 13.9057 47.1436 11.4185C49.0797 9.43296 51.1076 7.65236 53.8421 6.89631C56.1738 6.25331 58.5338 6.39463 60.802 7.05176C62.9924 7.68062 65.1192 8.50733 67.2461 9.32697C70.5882 10.613 74.0364 10.8603 77.5552 10.4222C78.3607 10.3303 79.1026 9.94877 80 9.51775" fill="#406AB1"/>
<path d="M0.0141318 34.75C0.113054 34.4674 0.409822 33.5488 0.487546 33.3934C3.0666 28.6451 6.22505 26.384 12.3794 26.8645C15.5379 27.1048 18.4066 28.306 21.3107 29.4082C23.8615 30.3763 26.49 30.9627 29.2316 30.9981C31.309 31.0263 33.1037 30.3692 34.5946 28.9207C37.1524 26.4194 39.781 23.9746 42.2116 21.3531C45.688 17.6082 49.8993 16.4423 54.7253 17.587C57.1348 18.1523 59.4595 19.1274 61.7841 20.0106C64.9073 21.2047 68.1293 21.4238 71.4079 21.0987C72.3759 20.9998 73.3369 20.8656 74.3826 20.7384C74.213 20.9362 74.0858 21.0846 73.9516 21.2259C72.2487 22.9995 70.5105 24.7377 68.85 26.5465C68.101 27.3662 67.1966 27.7548 66.1791 28.0021C63.9534 28.5391 61.7347 28.3554 59.6008 27.6418C56.8592 26.7161 54.1812 25.6139 51.475 24.5681C49.6944 23.8827 47.8926 23.2538 45.9565 23.2609C44.4374 23.268 43.0525 23.6919 41.9078 24.6882C40.3321 26.0731 38.7917 27.4934 37.2796 28.949C34.5522 31.5704 31.7612 34.1 28.4614 35.9936C26.7303 36.9899 24.9002 37.8237 22.8652 37.5128C21.4238 37.2867 19.9965 36.8133 18.6186 36.2833C15.6509 35.1387 12.6621 34.1141 9.48949 33.676C7.29906 33.3863 2.59318 33.1532 0 34.75" fill="#406AB1"/>
<path d="M47.4616 8.57799C45.7092 10.8108 43.9993 12.8882 41.611 14.3014C39.8234 15.3612 37.9297 15.9689 35.8523 15.552C34.425 15.2623 33.033 14.8596 31.634 14.4356C29.2952 13.722 26.9846 12.8882 24.6176 12.2311C21.7912 11.4467 18.9083 11.6305 16.0325 11.9343C15.0857 12.0403 14.153 12.1604 13.1426 12.2805C13.1991 12.0756 13.2061 11.9343 13.2627 11.8142C14.7536 8.94542 16.8098 6.64194 19.9187 5.51846C22.0526 4.74828 24.2855 4.77654 26.5112 5.10157C29.5142 5.53259 32.3052 6.6278 35.0821 7.78661C38.1417 9.0726 41.3213 9.22805 44.5646 8.91009C45.4973 8.81116 46.4158 8.69104 47.4616 8.57092" fill="#406AB1"/>
<path d="M33.139 36.6508C33.6054 35.8665 34.0011 35.0186 34.5451 34.2978C36.3469 31.8813 38.608 30.0936 41.6817 29.6061C44.2537 29.1963 46.7974 29.4153 49.2704 30.2208C51.3973 30.9062 53.4747 31.7612 55.5944 32.4819C59.2192 33.6972 62.9076 34.0293 66.6667 33.2097C66.914 33.1532 67.1683 33.139 67.5287 33.0896C67.3591 33.2874 67.2461 33.4217 67.1189 33.5418C65.5997 35.0186 64.0735 36.4953 62.5685 37.9792C60.8938 39.6326 58.8306 40.219 56.5412 40.1625C54.4921 40.1131 52.6479 39.2652 50.7331 38.6504C48.3872 37.8944 46.0201 37.1383 43.6319 36.5518C41.5616 36.0431 39.4206 36.1774 37.3079 36.3681C35.9654 36.4883 34.6299 36.6508 33.2803 36.7921C33.2379 36.7356 33.1814 36.7002 33.139 36.6578" fill="#406AB1"/>
<path d="M1.39905 30.7508L0.642996 31.8106V1.87246C0.642996 0.840841 1.47677 0 2.51546 0H77.5835C78.6151 0 79.4559 0.840841 79.4559 1.87246V9.00901L78.6999 9.3835V1.87246C78.6999 1.25066 78.1911 0.75605 77.5835 0.75605H2.51546C1.90779 0.75605 1.39905 1.25773 1.39905 1.87246V30.7508Z" fill="#406EB4"/>
<path d="M2.51546 50.1254C1.48384 50.1254 0.642996 49.2846 0.642996 48.253V35.0821L1.39905 34.6299V48.2459C1.39905 48.8677 1.90779 49.3623 2.51546 49.3623H8.31655V50.1254H2.51546Z" fill="#406EB4"/>
<path d="M77.5835 50.1254H72.1781V49.3694H77.5835C78.2053 49.3694 78.6999 48.8606 78.6999 48.253V12.7045L79.4559 11.8778V48.253C79.4559 49.2846 78.6151 50.1325 77.5835 50.1325" fill="#406EB4"/>
<path d="M17.2902 47.0871C16.5695 47.6806 15.9901 47.8219 14.3226 47.8219H13.7997L13.1779 50.719H11.5457L13.1779 43.0949H15.3542C16.4918 43.0949 17.0995 43.1867 17.5163 43.4411C18.0533 43.7732 18.336 44.2819 18.336 44.9108C18.336 45.7022 17.912 46.5642 17.2832 47.0871M15.0645 44.4586H14.5204L14.0823 46.4724H14.5557C15.8276 46.4724 16.6684 46.1827 16.6684 45.2641C16.6614 44.6847 16.4141 44.4586 15.0574 44.4586" fill="#406AB1"/>
<path d="M23.8332 50.726L23.3104 48.7546H20.1872L18.7953 50.726H17.0005L22.2858 43.1019H23.5718L25.628 50.726H23.8332ZM22.5049 45.0874L21.0775 47.3909H22.9571L22.5049 45.0874Z" fill="#406AB1"/>
<path d="M35.9866 50.726H34.3544L35.5768 45.0097L32.065 50.726H30.7296L29.6626 45.0097L28.4402 50.726H26.808L28.4402 43.1019H30.673L31.7965 48.8818L35.3789 43.1019H37.6117L35.9866 50.726Z" fill="#406AB1"/>
<path d="M45.9989 48.5356C45.6527 50.083 44.4798 50.8603 43.1373 50.8603C41.929 50.8603 41.0669 50.2102 41.0669 49.2846C41.0669 49.1927 41.0811 49.0655 41.0881 48.9242H42.7204L42.7345 49.0019C42.7981 49.3482 42.9959 49.5107 43.3916 49.5107C43.9286 49.5107 44.2466 49.1927 44.3879 48.5073L45.5467 43.109H47.1789L45.9989 48.5427V48.5356Z" fill="#406AB1"/>
<path d="M53.1779 50.726L52.655 48.7546H49.5319L48.147 50.726H46.3522L51.6375 43.1019H52.9235L54.9797 50.726H53.1779ZM51.8424 45.0874L50.4151 47.3909H52.2946L51.8424 45.0874Z" fill="#406AB1"/>
<path d="M59.4948 47.8997L58.8942 50.719H57.262L57.8626 47.8997L56.0042 43.0949H57.7636L58.9436 46.5995L61.6428 43.0949H63.4022L59.4948 47.8997Z" fill="#406AB1"/>
<path d="M67.9668 50.726L67.4439 48.7546H64.3208L62.9217 50.726H61.127L66.4123 43.1019H67.6983L69.7545 50.726H67.9668ZM66.6313 45.0874L65.204 47.3909H67.0835L66.6313 45.0874Z" fill="#406AB1"/>
</g>
<defs>
<clipPath id="clip0_1801_11272">
<rect width="80" height="50.8603" fill="white"/>
</clipPath>
</defs>
</svg>
