<svg width="73" height="80" viewBox="0 0 73 80" fill="none" xmlns="http://www.w3.org/2000/svg">
<g clip-path="url(#clip0_1801_11297)">
<path d="M36.3454 0C35.8027 1.59923 35.6148 3.22095 35.7978 4.62546C36.0026 6.37066 36.4389 7.76533 37.0772 9.21155C37.2867 9.74392 37.6257 10.3187 37.9423 10.9122C38.3603 11.6956 38.8308 12.4426 39.2894 13.198C41.761 17.2698 44.2483 21.3319 46.7182 25.4049C47.114 26.0574 47.2016 26.7913 47.0734 27.6023C46.1237 29.0581 46.4548 30.4617 47.352 31.903C50.0287 36.2042 52.6469 40.5414 55.3079 44.8522C56.1413 46.2023 56.7267 47.6563 57.1925 49.1568C57.3895 49.7918 57.5686 50.4529 57.5721 51.1364C57.5723 51.1985 57.6236 51.2603 57.6021 51.2118C57.7024 52.2487 57.6853 53.1735 57.6044 54.1059C56.6104 57.8969 54.1339 60.9553 52.4295 64.4068C52.5399 63.8622 52.6427 63.3158 52.7625 62.7731C53.0612 61.4211 52.9059 60.0876 52.6554 58.7473C52.4553 57.675 52.1298 56.6461 51.6738 55.6643C50.4591 53.0482 48.8287 50.6715 47.3277 48.2212C45.0365 44.4815 42.7238 40.7551 40.4216 37.0224C39.8255 36.0561 39.9009 35.1375 40.5142 34.2017C40.8809 33.6419 40.7806 32.9666 40.6484 32.3323C40.5463 31.8418 40.3696 31.38 40.1046 30.9463C37.7525 27.0976 35.3819 23.2601 33.0743 19.3847C32.0316 17.6334 31.33 15.724 31.0702 13.6889C30.7754 11.3802 31.1866 9.21459 32.4079 7.19172C33.2592 5.78182 33.9828 4.29483 34.7708 2.84627C35.2891 1.89377 35.8198 0.948523 36.3454 0Z" fill="#0256F4"/>
<path d="M35.9384 38.6978C35.335 39.6287 35.1822 40.7991 35.6293 42.0155C35.7692 42.3963 36.0253 42.7358 36.2402 43.087C39.7969 48.8974 43.3651 54.7011 46.9064 60.5208C47.7145 61.849 48.2921 63.291 48.7303 64.814H39.5157C38.5311 63.1961 37.5369 61.5537 36.5342 59.9163C34.2358 56.1627 31.9463 52.4036 29.623 48.6655C29.0771 47.7868 28.7003 46.9135 28.9843 45.911C29.6868 45.0387 29.4824 44.0791 29.3414 43.1384C29.2066 42.2386 28.5852 41.5752 28.14 40.8329C26.9975 38.9276 25.7645 37.0749 24.6721 35.142C23.732 33.4788 22.981 31.7223 22.6858 29.8009C22.3456 27.5868 22.4594 25.4384 23.5296 23.4228C24.2991 21.9735 25.1147 20.5488 25.9046 19.1104C26.5033 18.0201 27.0938 16.9251 27.6883 15.8325C27.7201 15.7741 27.7555 15.7176 27.8867 15.4953C27.8265 15.7535 27.8143 15.8327 27.7897 15.9079C26.6366 19.4272 27.4282 22.7217 29.101 25.8365C30.98 29.3351 33.2006 32.6371 35.2581 36.0331C35.7242 36.8024 36.1209 37.5695 35.9384 38.6978Z" fill="#0256F4"/>
<path d="M19.4004 31.1389C18.259 34.3341 18.7832 37.3305 20.1657 40.4908C20.2812 40.8458 20.5837 41.3674 20.8769 41.8932C21.0308 42.1692 21.181 42.4478 21.3457 42.7175C22.4189 44.4756 23.5268 46.2133 24.5561 47.9965C24.9849 48.739 25.0737 49.5545 24.5385 50.3594C24.2367 50.813 24.2824 51.3777 24.2778 51.9138C24.2632 53.6541 25.5068 54.8074 26.2875 56.1613C27.5966 58.4314 29.0122 60.6401 30.382 62.875C30.7768 63.5194 31.1688 64.1657 31.5777 64.8365H21.5182C21.0936 64.1326 20.6482 63.4011 20.2095 62.6656C19.5225 61.5143 18.7898 60.3863 18.1735 59.1983C17.7651 58.4108 17.7541 57.5792 18.2687 56.7448C18.6159 56.1817 18.4805 55.4963 18.3563 54.8527C18.0814 53.4275 17.1289 52.3558 16.433 51.1537C15.3123 49.2175 14.4254 47.1883 14.1252 44.9663C13.8032 42.5847 14.1587 40.3207 15.4491 38.208C16.4993 36.4886 17.3886 34.6705 18.3472 32.8951C18.6419 32.3489 18.9287 31.7985 19.2242 31.2525C19.2453 31.2136 19.3079 31.1972 19.4004 31.1389Z" fill="#0256F4"/>
<path d="M29.0609 79.7645C28.8535 79.7966 28.907 79.6434 28.907 79.5389C28.9053 77.7156 28.9058 75.8924 28.9058 73.9839C27.9242 75.6304 26.9872 77.2022 26.0691 78.7426H25.0062C24.0819 77.2179 23.1598 75.6967 22.208 74.127C22.208 75.9254 22.2097 77.6749 22.204 79.4243C22.2036 79.5368 22.2757 79.6741 22.1429 79.7664C21.4837 79.7664 20.8237 79.7664 20.1636 79.7664C20.1418 79.7226 20.1008 79.6788 20.1008 79.6349C20.0977 76.4587 20.098 73.2825 20.098 70.0881H21.9739C23.1418 72.0261 24.33 73.9982 25.5632 76.0445C26.7667 74.0221 27.9378 72.0542 29.112 70.0808H31.0102C31.0102 71.2915 31.0086 72.4915 31.0107 73.6912C31.0139 75.6503 31.0203 77.6097 31.0212 79.5689C31.0212 79.6354 30.9776 79.7019 30.9549 79.7685C30.3241 79.7671 29.6926 79.7659 29.0609 79.7645Z" fill="#10141F"/>
<path d="M0.0684254 79.7676C0.0454621 79.7085 0.00258185 79.6497 0.00234753 79.5906C-0.000698614 76.4463 -0.000229977 73.3022 0.000707297 70.1579C0.000707297 70.1361 0.00984572 70.1143 0.0260137 70.0429C2.07888 70.2076 4.18892 69.716 6.19164 70.4021C7.85718 70.9729 8.67963 72.3823 8.32113 74.3386C7.98605 76.168 6.50797 76.8461 5.00388 77.0656C4.80283 77.0949 4.59616 77.0867 4.39301 77.0961C3.70107 77.0951 3.00865 77.0944 2.31601 77.0935C2.17589 77.4023 2.26891 77.7276 2.25766 78.0441C2.23962 78.5578 2.25063 79.0726 2.25438 79.5869C2.25532 79.7024 2.24899 79.7936 2.09739 79.7643C1.42162 79.7652 0.744903 79.7666 0.0684254 79.7676ZM2.26352 75.2337C3.02834 75.2337 3.78542 75.2775 4.53548 75.2225C5.4376 75.1562 6.05456 74.5945 6.09721 73.9107C6.16375 72.8408 5.81345 72.2305 4.94717 72.0207C4.06309 71.8068 3.15862 71.9462 2.26352 71.909V75.2337Z" fill="#10141F"/>
<path d="M51.8231 79.7671C51.4636 79.5557 51.4871 79.1344 51.3172 78.8197C51.125 78.4638 51.0069 78.068 50.8589 77.6955H46.3965C46.1526 78.2892 45.9051 78.8877 45.6619 79.488C45.6171 79.5986 45.5975 79.7216 45.4644 79.7669C44.7743 79.7662 44.0835 79.7654 43.3928 79.7647C43.3321 79.7605 43.2716 79.7563 43.1929 79.7509C44.6342 76.5152 46.0673 73.2975 47.5048 70.0705C48.2389 70.0705 48.9557 70.0555 49.6716 70.0773C49.9884 70.0871 49.9438 70.4463 50.0343 70.6272C50.4291 71.4174 50.7417 72.2485 51.1021 73.0567C51.469 73.8798 51.8648 74.6901 52.2331 75.5128C52.5834 76.2952 52.9068 77.0895 53.2573 77.8717C53.5352 78.4915 53.8366 79.1007 54.1271 79.7144C54.1269 79.7144 54.1156 79.7045 54.1156 79.7045L54.1231 79.7174C54.0479 79.7331 53.9725 79.7488 53.898 79.7645C53.207 79.7655 52.5148 79.7661 51.8231 79.7671ZM47.1226 75.966H50.1608C49.6542 74.7423 49.1568 73.5403 48.6417 72.2963C48.1258 73.5429 47.6274 74.7468 47.1226 75.966Z" fill="#10141F"/>
<path d="M16.836 79.7645C16.5145 79.6534 16.5553 79.3249 16.4452 79.0922C16.2322 78.6428 16.0515 78.1782 15.8503 77.7023H11.405C11.1327 78.356 10.8593 79.0152 10.5814 79.6724C10.565 79.7115 10.5113 79.7347 10.4759 79.7654C9.78656 79.765 9.09672 79.7647 8.40665 79.7643C8.34737 79.7645 8.28809 79.765 8.22881 79.7652L8.23068 79.7591L8.22787 79.7671C8.51819 79.0831 8.80429 78.3973 9.1 77.7156C9.5192 76.7495 9.94191 75.7848 10.3698 74.8223C10.7067 74.0645 11.054 73.3111 11.3959 72.5554C11.7684 71.7323 12.1403 70.9089 12.5175 70.074H14.7808C15.1171 70.8356 15.4507 71.6055 15.7959 72.3701C16.1626 73.182 16.5474 73.9857 16.911 74.7988C17.2639 75.588 17.5962 76.3863 17.9444 77.1776C18.2954 77.9752 18.6529 78.7701 19.0133 79.5635C19.0489 79.642 19.1204 79.7019 19.0082 79.7683C18.2846 79.7669 17.5601 79.7659 16.836 79.7645ZM13.643 72.2963C13.1258 73.5457 12.6277 74.7484 12.1255 75.9615H15.1599C14.6545 74.7407 14.1594 73.544 13.643 72.2963Z" fill="#10141F"/>
<path d="M70.513 79.7652C70.2082 79.0833 69.9033 78.4015 69.5933 77.7079H65.1614C64.8678 78.3961 64.5859 79.0597 64.2994 79.7212C64.2886 79.7458 64.2356 79.7521 64.2031 79.7669C63.4933 79.7673 62.7826 79.7678 62.0722 79.7685C61.9529 79.3842 62.2592 79.1215 62.3719 78.8118C62.6228 78.1219 62.9473 77.4583 63.2487 76.7873C63.4666 76.302 63.703 75.8249 63.9172 75.338C64.2773 74.5197 64.619 73.6931 64.9824 72.8762C65.2641 72.2433 65.571 71.6215 65.859 70.9911C65.9668 70.7554 66.053 70.5101 66.1484 70.2687C66.1985 70.1415 66.278 70.0672 66.4272 70.0679C67.1133 70.0717 67.7996 70.0696 68.5307 70.0696C68.7636 70.5848 69.0033 71.1109 69.2388 71.6388C69.4712 72.1597 69.6974 72.6834 69.9298 73.2043C70.1585 73.7167 70.3905 74.2278 70.6232 74.7386C70.9383 75.4308 71.2596 76.1201 71.5705 76.814C71.8531 77.445 72.1261 78.0805 72.4023 78.7143C72.5401 79.0306 72.6774 79.3474 72.8096 79.6663C72.8199 79.6909 72.7871 79.7336 72.7751 79.7678C72.0216 79.7669 71.2673 79.7664 70.513 79.7652ZM68.9208 75.9685C68.4152 74.7473 67.918 73.5466 67.4001 72.2958C66.8802 73.553 66.3832 74.7541 65.8808 75.9685H68.9208Z" fill="#10141F"/>
<path d="M56.9764 79.7668C56.9544 79.6919 56.9141 79.6171 56.9136 79.5419C56.9087 78.8558 56.8232 78.1557 56.9298 77.4865C57.1229 76.2762 56.3487 75.468 55.8351 74.5626C55.0154 73.1176 54.1222 71.7142 53.2585 70.2945C53.2203 70.2317 53.1641 70.1797 53.1167 70.1228C53.135 70.1108 53.1528 70.0986 53.1706 70.0867C53.9273 70.0813 54.6886 70.0246 55.4386 70.0916C55.825 70.1263 55.8831 70.6244 56.0706 70.9152C56.7035 71.897 57.2846 72.9119 57.8973 73.907C58.1412 74.3032 58.1497 74.2875 58.4168 73.8395C59.1659 72.5829 59.9244 71.3318 60.6801 70.0775H62.9382C62.6884 70.4859 62.4511 70.8637 62.2238 71.2475C61.5686 72.3535 60.92 73.4634 60.2639 74.5687C59.9256 75.1388 59.5739 75.7012 59.2343 76.2703C59.1912 76.3425 59.165 76.4362 59.1645 76.5201C59.1598 77.5195 59.1631 78.5189 59.1587 79.5182C59.1582 79.6012 59.1177 79.6839 59.0963 79.7668C58.3903 79.7668 57.6832 79.7668 56.9764 79.7668Z" fill="#10141F"/>
<path d="M39.392 80C38.73 79.9538 38.0501 79.9417 37.4134 79.6959C36.845 79.4763 36.3484 79.1356 35.9342 78.6859C35.7643 78.5013 35.9487 78.3687 36.0448 78.2475C36.3892 77.8131 36.747 77.3892 37.1294 76.9253C37.2201 77.1961 37.3253 77.3745 37.5957 77.3742C37.6018 77.4408 37.6077 77.5078 37.6098 77.531C38.0744 78.0491 38.671 78.1212 39.2535 78.035C39.7824 77.9567 40.1442 77.5364 40.1948 77.0167C40.3569 75.3497 40.2339 73.6743 40.2648 72.0027C40.2655 71.9657 40.2536 71.9284 40.2452 71.878H36.8803V70.0843H42.4726C42.4777 70.0902 42.4974 70.1014 42.4972 70.1129C42.4934 72.3762 42.5199 74.6404 42.4707 76.9028C42.444 78.1259 41.9212 79.1269 40.7464 79.6541C40.4094 79.8053 40.02 79.8388 39.6549 79.9274C39.575 79.9468 39.4967 79.9707 39.392 80Z" fill="#10141F"/>
<path d="M72.7751 79.7678C72.0216 79.7669 71.2673 79.7664 70.513 79.7652C71.2668 79.7661 72.0206 79.7669 72.7751 79.7678Z" fill="#0256F4"/>
<path d="M19.0082 79.7683C18.2846 79.7669 17.5601 79.7659 16.836 79.7645C17.5596 79.7659 18.2837 79.7669 19.0082 79.7683Z" fill="#0256F4"/>
<path d="M59.0963 79.7668C58.3903 79.7668 57.6832 79.7668 56.9764 79.7668C57.6827 79.7668 58.3894 79.7668 59.0963 79.7668Z" fill="#0256F4"/>
<path d="M64.2031 79.7669C63.4933 79.7673 62.7826 79.7678 62.0722 79.7685C62.7822 79.7678 63.4921 79.7673 64.2031 79.7669Z" fill="#0256F4"/>
<path d="M4.39301 77.0961C3.70107 77.0951 3.00865 77.0944 2.31601 77.0935C3.00795 77.0944 3.70013 77.0951 4.39301 77.0961Z" fill="#0256F4"/>
<path d="M10.4759 79.7654C9.78656 79.765 9.09672 79.7647 8.40665 79.7643C9.09602 79.7647 9.78562 79.7652 10.4759 79.7654Z" fill="#0256F4"/>
<path d="M45.4644 79.7669C44.7743 79.7662 44.0835 79.7654 43.3928 79.7647C44.0831 79.7654 44.7734 79.7662 45.4644 79.7669Z" fill="#0256F4"/>
<path d="M53.898 79.7645C53.207 79.7655 52.5148 79.7661 51.8231 79.7671C52.5143 79.7661 53.2058 79.7655 53.898 79.7645Z" fill="#0256F4"/>
<path d="M2.09739 79.7643C1.42162 79.7652 0.744903 79.7666 0.0684254 79.7676C0.744434 79.7666 1.42068 79.7652 2.09739 79.7643Z" fill="#0256F4"/>
<path d="M22.1429 79.7664C21.4837 79.7664 20.8237 79.7664 20.1636 79.7664C20.8232 79.7664 21.4826 79.7664 22.1429 79.7664Z" fill="#0256F4"/>
<path d="M30.9549 79.7685C30.3241 79.7671 29.6926 79.7659 29.0609 79.7645C29.6922 79.7659 30.3232 79.7671 30.9549 79.7685Z" fill="#0256F4"/>
<path d="M53.1706 70.0867C53.1528 70.0986 53.135 70.1108 53.1167 70.1228C53.106 70.1124 53.0957 70.1017 53.0856 70.0914C53.1139 70.0897 53.1423 70.0883 53.1706 70.0867Z" fill="#0256F4"/>
<path d="M54.1231 79.7174L54.1156 79.7045C54.1156 79.7045 54.1269 79.7144 54.1271 79.7144C54.1274 79.7144 54.1318 79.7207 54.1318 79.7207L54.1231 79.7174Z" fill="#0256F4"/>
<path d="M8.22787 79.7671L8.23068 79.7591L8.22881 79.7652L8.22787 79.7671Z" fill="#0256F4"/>
</g>
<defs>
<clipPath id="clip0_1801_11297">
<rect width="72.8116" height="80" fill="white"/>
</clipPath>
</defs>
</svg>
