<svg width="80" height="42" viewBox="0 0 80 42" fill="none" xmlns="http://www.w3.org/2000/svg">
<g clip-path="url(#clip0_1801_11156)">
<path d="M40.2214 22.4272C40.1006 22.4675 39.9849 22.5027 39.8692 22.5379C39.9849 22.5027 40.1056 22.4625 40.2214 22.4272Z" fill="#FFEF00"/>
<path d="M28.243 21.7229C28.243 21.7229 28.1927 21.6777 28.1725 21.6575C28.1977 21.6777 28.2229 21.7028 28.243 21.7229Z" fill="#FFEF00"/>
<path d="M28.0819 21.572C28.0819 21.572 28.0366 21.5267 28.0165 21.5066C28.0366 21.5317 28.0618 21.5519 28.0819 21.572Z" fill="#FFEF00"/>
<path d="M27.9361 21.416C27.9361 21.416 27.8959 21.3708 27.8757 21.3506C27.8959 21.3708 27.916 21.3959 27.9361 21.416Z" fill="#FFEF00"/>
<path d="M29.7573 22.7039C29.7221 22.6888 29.6869 22.6687 29.6466 22.6536C29.6818 22.6687 29.717 22.6888 29.7573 22.7039Z" fill="#FFEF00"/>
<path d="M31.5933 23.2876C31.533 23.2775 31.4726 23.2624 31.4122 23.2473C31.4726 23.2624 31.533 23.2725 31.5933 23.2876Z" fill="#FFEF00"/>
<path d="M30.2 22.8901C30.1597 22.875 30.1195 22.8599 30.0792 22.8398C30.1195 22.8549 30.1597 22.875 30.2 22.8901Z" fill="#FFEF00"/>
<path d="M28.5799 22.0047C28.5547 21.9845 28.5245 21.9644 28.4994 21.9393C28.5245 21.9594 28.5547 21.9845 28.5799 22.0047Z" fill="#FFEF00"/>
<path d="M29.5407 22.6033C29.5055 22.5882 29.4703 22.5681 29.4351 22.548C29.4703 22.5631 29.5055 22.5832 29.5407 22.6033Z" fill="#FFEF00"/>
<path d="M29.1334 22.382C29.1032 22.3619 29.068 22.3418 29.0378 22.3267C29.068 22.3468 29.0982 22.3669 29.1334 22.382Z" fill="#FFEF00"/>
<path d="M33.5454 23.5038C33.475 23.5038 33.4046 23.5038 33.3392 23.4938C33.4096 23.4938 33.475 23.4988 33.5454 23.5038Z" fill="#FFEF00"/>
<path d="M33.2485 23.4938C33.1831 23.4938 33.1126 23.4837 33.0472 23.4837C33.1126 23.4837 33.178 23.4938 33.2485 23.4938Z" fill="#FFEF00"/>
<path d="M39.4917 22.6536C39.376 22.6888 39.2603 22.719 39.1496 22.7542C39.2653 22.7241 39.376 22.6888 39.4917 22.6536Z" fill="#FFEF00"/>
<path d="M34.7829 23.4938C34.6974 23.4938 34.6118 23.5038 34.5263 23.5038C34.6118 23.5038 34.6974 23.4988 34.7829 23.4938Z" fill="#FFEF00"/>
<path d="M34.4658 23.5038C34.3854 23.5038 34.3049 23.5038 34.2244 23.5089C34.3049 23.5089 34.3854 23.5089 34.4658 23.5038Z" fill="#FFEF00"/>
<path d="M39.1345 22.7543C39.0188 22.7845 38.9031 22.8146 38.7924 22.8448C38.9081 22.8146 39.0238 22.7845 39.1345 22.7543Z" fill="#FFEF00"/>
<path d="M35.0998 23.4736C35.0043 23.4787 34.9137 23.4837 34.8181 23.4938C34.9087 23.4887 35.0043 23.4837 35.0998 23.4736Z" fill="#FFEF00"/>
<path d="M38.4352 22.9354C37.2731 23.2221 36.1562 23.3982 35.1149 23.4737C36.1613 23.3982 37.2731 23.2221 38.4352 22.9354Z" fill="#FFEF00"/>
<path d="M38.7824 22.8499C38.6667 22.88 38.5509 22.9102 38.4352 22.9354C38.5509 22.9052 38.6667 22.88 38.7824 22.8499Z" fill="#FFEF00"/>
<path d="M32.3934 23.4183C32.333 23.4133 32.2676 23.4033 32.2073 23.3932C32.2676 23.4033 32.328 23.4083 32.3934 23.4183Z" fill="#FFEF00"/>
<path d="M32.6701 23.4485C32.6097 23.4435 32.5443 23.4334 32.4789 23.4284C32.5393 23.4385 32.6047 23.4435 32.6701 23.4485Z" fill="#FFEF00"/>
<path d="M28.0819 21.572C28.0819 21.572 28.0366 21.5267 28.0165 21.5066C28.0366 21.5267 28.0618 21.5519 28.0819 21.572Z" fill="#00A39B"/>
<path d="M37.57 23.1315C37.0065 23.2472 36.4531 23.3328 35.9199 23.3982C36.4531 23.3378 37.0065 23.2472 37.57 23.1315Z" fill="#00A39B"/>
<path d="M31.3469 23.2372C31.2412 23.2121 31.1357 23.1869 31.03 23.1567C31.1357 23.1819 31.2412 23.2121 31.3469 23.2372Z" fill="#00A39B"/>
<path d="M34.7829 23.4938C34.6974 23.4938 34.6118 23.5038 34.5263 23.5038C34.6118 23.5038 34.6974 23.4988 34.7829 23.4938Z" fill="#00A39B"/>
<path d="M35.8896 23.3982C35.7689 23.4133 35.6431 23.4233 35.5224 23.4384C35.6431 23.4284 35.7639 23.4133 35.8896 23.3982Z" fill="#00A39B"/>
<path d="M29.5407 22.6033C29.5055 22.5882 29.4703 22.5681 29.4351 22.548C29.4703 22.5631 29.5055 22.5832 29.5407 22.6033Z" fill="#00A39B"/>
<path d="M38.7924 22.8448C38.9081 22.8146 39.0289 22.7844 39.1446 22.7492C39.1446 22.7492 39.1395 22.7492 39.1345 22.7492C39.0188 22.7794 38.9031 22.8096 38.7924 22.8398" fill="#00A39B"/>
<path d="M34.8032 23.4938C34.9038 23.4938 34.9994 23.4837 35.105 23.4736C35.0094 23.4787 34.9189 23.4837 34.8233 23.4887C34.8183 23.4887 34.8082 23.4887 34.8032 23.4887" fill="#00A39B"/>
<path d="M38.4352 22.9354C38.2943 22.9706 38.1537 23.0058 38.0128 23.036C38.2644 22.9807 38.5208 22.9153 38.7824 22.8499C38.6667 22.88 38.5511 22.9102 38.4404 22.9354" fill="#00A39B"/>
<path d="M34.2244 23.5089C34.2244 23.5089 34.2044 23.5089 34.1893 23.5089C34.2849 23.5089 34.3754 23.5089 34.471 23.5038H34.4609C34.3804 23.5038 34.2998 23.5038 34.2244 23.5089Z" fill="#00A39B"/>
<path d="M33.2485 23.4938C33.1831 23.4938 33.1126 23.4837 33.0472 23.4837C33.2133 23.4938 33.3742 23.5038 33.5453 23.5089C33.4749 23.5089 33.4044 23.5089 33.339 23.4988C33.3088 23.4988 33.2787 23.4988 33.2485 23.4938Z" fill="#00A39B"/>
<path d="M33.8473 23.5139C33.9479 23.5139 34.0484 23.5139 34.1541 23.5139C34.0786 23.5139 34.0031 23.5139 33.9277 23.5139C33.9025 23.5139 33.8725 23.5139 33.8473 23.5139Z" fill="#00A39B"/>
<path d="M39.4917 22.6536C39.376 22.6888 39.2603 22.719 39.1496 22.7542C39.2653 22.7241 39.376 22.6888 39.4917 22.6536Z" fill="#00A39B"/>
<path d="M37.9877 23.041C37.8468 23.0712 37.7108 23.1013 37.57 23.1315C37.7058 23.1013 37.8468 23.0762 37.9877 23.041Z" fill="#00A39B"/>
<path d="M39.5068 22.6486C39.6225 22.6134 39.7432 22.5782 39.864 22.543C39.864 22.543 39.8589 22.543 39.8539 22.543C39.7382 22.5782 39.6225 22.6134 39.5068 22.6486Z" fill="#00A39B"/>
<path d="M29.6466 22.6536C29.6466 22.6536 29.6013 22.6335 29.5762 22.6184C29.6667 22.6637 29.7573 22.7039 29.8529 22.7442C29.8177 22.7291 29.7875 22.714 29.7573 22.7039C29.7221 22.6888 29.6869 22.6687 29.6466 22.6536Z" fill="#00A39B"/>
<path d="M29.2389 22.4373C29.2993 22.4725 29.3647 22.5077 29.4251 22.5379C29.3949 22.5228 29.3647 22.5077 29.3345 22.4927C29.2993 22.4725 29.2691 22.4574 29.2339 22.4373" fill="#00A39B"/>
<path d="M30.0792 22.8448C30.044 22.8297 30.0088 22.8197 29.9736 22.8046C29.9333 22.7895 29.8981 22.7694 29.8578 22.7543C29.9887 22.8096 30.1195 22.865 30.2553 22.9153C30.2352 22.9102 30.215 22.9002 30.1999 22.8951C30.1597 22.88 30.1195 22.8599 30.0792 22.8448Z" fill="#00A39B"/>
<path d="M29.0427 22.3216C29.093 22.3518 29.1433 22.382 29.1936 22.4121C29.1735 22.4021 29.1584 22.392 29.1383 22.3769C29.1081 22.3568 29.0729 22.3367 29.0427 22.3216Z" fill="#00A39B"/>
<path d="M31.4072 23.2472C31.4072 23.2472 31.387 23.2422 31.3719 23.2372C31.4575 23.2573 31.548 23.2774 31.6386 23.2925L31.5883 23.2825C31.5279 23.2724 31.4675 23.2573 31.4072 23.2422" fill="#00A39B"/>
<path d="M28.4945 21.9392C28.5348 21.9745 28.58 22.0046 28.6203 22.0348C28.6052 22.0248 28.5901 22.0147 28.575 21.9996C28.5498 21.9795 28.5197 21.9594 28.4945 21.9342" fill="#00A39B"/>
<path d="M28.1675 21.6525C28.2028 21.6877 28.243 21.723 28.2833 21.7582C28.2682 21.7481 28.253 21.733 28.243 21.7229C28.2178 21.7028 28.1927 21.6777 28.1675 21.6576" fill="#00A39B"/>
<path d="M32.1166 23.3781C32.0562 23.368 31.9959 23.358 31.9355 23.3479C32.0864 23.3731 32.2373 23.3932 32.3883 23.4133C32.3279 23.4083 32.2675 23.3982 32.2021 23.3881C32.1719 23.3881 32.1417 23.3781 32.1116 23.3731" fill="#00A39B"/>
<path d="M32.6701 23.4485C32.6097 23.4435 32.5443 23.4334 32.4789 23.4284C32.6349 23.4485 32.7909 23.4636 32.9518 23.4737C32.8864 23.4737 32.821 23.4636 32.7556 23.4586C32.7255 23.4586 32.6953 23.4536 32.6651 23.4485" fill="#00A39B"/>
<path d="M31.6689 23.3026C31.7394 23.3177 31.8148 23.3278 31.8903 23.3429C31.8752 23.3429 31.8651 23.3428 31.8501 23.3378C31.7897 23.3277 31.7293 23.3177 31.6689 23.3026Z" fill="#00A39B"/>
<path d="M59.4288 4.14022C56.0934 -1.58988 44.0949 -1.07673 34.9489 3.86353C25.8029 8.80379 22.1354 15.1778 24.7665 20.0527C27.3976 24.9275 38.9232 25.6872 48.0189 20.6664C58.2013 15.047 61.9996 8.56231 59.4238 4.14525M52.7429 14.6647C51.294 16.1689 49.4879 17.653 47.3046 19.0314C38.4453 24.6358 30.0438 24.6861 27.4781 20.8476C26.316 19.1019 26.5877 16.516 27.9259 13.8094C29.6263 10.3684 33.0372 6.73109 37.3989 4.37667C45.1916 0.165879 53.7742 -1.24778 56.6317 3.58683C58.0655 6.01168 56.8581 10.3986 52.7429 14.6597V14.6647Z" fill="#B5D11F"/>
<path d="M51.2995 11.1733C51.2995 11.0174 51.4253 10.8866 51.5862 10.8866C51.7472 10.8866 51.873 11.0123 51.873 11.1733C51.873 11.3343 51.7472 11.4601 51.5862 11.4601C51.4253 11.4601 51.2995 11.3343 51.2995 11.1733ZM49.5739 11.5657C49.5739 11.5657 49.5739 11.5859 49.5739 11.5959C49.589 12.3405 50.1977 12.9391 50.9473 12.9391C51.5762 12.9391 52.1044 12.5166 52.2654 11.943C52.3006 11.8223 52.3207 11.6965 52.3207 11.5657C52.3207 10.8061 51.707 10.1923 50.9473 10.1923C50.1877 10.1923 49.5739 10.8061 49.5739 11.5657Z" fill="black"/>
<path d="M51.2995 11.1733C51.2995 11.0174 51.4253 10.8866 51.5862 10.8866C51.7472 10.8866 51.873 11.0123 51.873 11.1733C51.873 11.3343 51.7472 11.4601 51.5862 11.4601C51.4253 11.4601 51.2995 11.3343 51.2995 11.1733ZM49.5739 11.5657C49.5739 11.5657 49.5739 11.5859 49.5739 11.5959C49.589 12.3405 50.1977 12.9391 50.9473 12.9391C51.5762 12.9391 52.1044 12.5166 52.2654 11.943C52.3006 11.8223 52.3207 11.6965 52.3207 11.5657C52.3207 10.8061 51.707 10.1923 50.9473 10.1923C50.1877 10.1923 49.5739 10.8061 49.5739 11.5657Z" fill="url(#paint0_linear_1801_11156)"/>
<path d="M50.0463 11.5657H50.0111C49.84 11.5657 49.6841 11.5808 49.5784 11.5909C49.5935 12.3354 50.2022 12.9341 50.9518 12.9341C51.5807 12.9341 52.1089 12.5115 52.2699 11.938C52.0486 12.0336 51.8222 12.0084 51.4901 11.9682C51.1078 11.9179 50.8613 11.7066 50.4639 11.6059C50.3381 11.5758 50.1872 11.5657 50.0463 11.5607" fill="url(#paint1_linear_1801_11156)"/>
<path d="M26.8243 19.127C26.8193 19.0918 26.8142 19.0566 26.8092 19.0214C26.8092 19.0566 26.8193 19.0918 26.8243 19.127Z" fill="#FFEF00"/>
<path d="M27.3875 20.6916C27.3875 20.6916 27.3674 20.6564 27.3574 20.6363C27.3674 20.6564 27.3775 20.6715 27.3875 20.6916Z" fill="#FFEF00"/>
<path d="M27.79 21.25C27.79 21.25 27.7548 21.2098 27.7347 21.1846C27.7548 21.2048 27.7699 21.2299 27.79 21.25Z" fill="#FFEF00"/>
<path d="M27.6493 21.074C27.6493 21.074 27.6192 21.0387 27.6041 21.0186C27.6192 21.0387 27.6342 21.0538 27.6493 21.074Z" fill="#FFEF00"/>
<path d="M26.8998 19.4993C26.8897 19.4691 26.8847 19.4339 26.8796 19.4037C26.8897 19.439 26.8947 19.4691 26.8998 19.4993Z" fill="#FFEF00"/>
<path d="M26.8595 19.3132C26.8544 19.278 26.8444 19.2478 26.8394 19.2126C26.8444 19.2478 26.8494 19.283 26.8595 19.3132Z" fill="#FFEF00"/>
<path d="M27.1362 20.2036C27.1262 20.1784 27.1161 20.1483 27.101 20.1231C27.1111 20.1483 27.1211 20.1784 27.1362 20.2036Z" fill="#FFEF00"/>
<path d="M27.0658 20.0326C27.0557 20.0075 27.0456 19.9773 27.0356 19.9471C27.0456 19.9773 27.0557 20.0024 27.0658 20.0326Z" fill="#FFEF00"/>
<path d="M27.2117 20.3697C27.2117 20.3697 27.1865 20.3193 27.1765 20.2942C27.1865 20.3193 27.1966 20.3445 27.2117 20.3697Z" fill="#FFEF00"/>
<path d="M27.4529 14.8911C27.4781 14.8207 27.5083 14.7502 27.5385 14.6798C27.5083 14.7502 27.4831 14.8207 27.4529 14.8911Z" fill="#FFEF00"/>
<path d="M27.5437 14.6697C27.5739 14.5943 27.6041 14.5238 27.6393 14.4484C27.6091 14.5238 27.5739 14.5993 27.5437 14.6697Z" fill="#FFEF00"/>
<path d="M27.2871 15.3388C27.3072 15.2734 27.3324 15.213 27.3575 15.1476C27.3324 15.213 27.3123 15.2734 27.2871 15.3388Z" fill="#FFEF00"/>
<path d="M27.1412 15.7866C27.1614 15.7262 27.1765 15.6658 27.1966 15.6055C27.1765 15.6658 27.1563 15.7262 27.1412 15.7866Z" fill="#FFEF00"/>
<path d="M27.2115 15.5602C27.2316 15.4998 27.2517 15.4394 27.2719 15.374C27.2517 15.4344 27.2316 15.4948 27.2115 15.5602Z" fill="#FFEF00"/>
<path d="M45.6243 20.0326C43.773 21.0689 41.9569 21.8588 40.2263 22.4272C42.0474 21.8336 43.9591 20.9884 45.9111 19.8716C45.8155 19.9269 45.7199 19.9823 45.6243 20.0326Z" fill="#FFEF00"/>
<path d="M48.5775 18.1863C48.5473 18.2064 48.5171 18.2316 48.4819 18.2517C48.5121 18.2316 48.5423 18.2064 48.5775 18.1863Z" fill="#FFEF00"/>
<path d="M27.5586 14.6295C27.5837 14.5691 27.6089 14.5087 27.6341 14.4484C27.6441 14.4282 27.6542 14.4031 27.6642 14.3779C27.629 14.4635 27.5938 14.5439 27.5586 14.6295Z" fill="#2C4696"/>
<path d="M26.7789 17.5977C26.7789 17.6429 26.7738 17.6832 26.7688 17.7234C26.7738 17.6379 26.7839 17.5524 26.794 17.4669C26.794 17.487 26.794 17.5021 26.7889 17.5222C26.7889 17.5474 26.7889 17.5725 26.7839 17.5977" fill="#2C4696"/>
<path d="M26.7587 17.9398C26.7587 17.9649 26.7587 17.9951 26.7587 18.0203V18.0303C26.7587 17.9398 26.7638 17.8492 26.7738 17.7587C26.7738 17.7738 26.7738 17.7939 26.7738 17.814C26.7738 17.8593 26.7738 17.8995 26.7688 17.9448" fill="#2C4696"/>
<path d="M26.7538 18.2265C26.7538 18.2618 26.7538 18.302 26.7538 18.3372C26.7538 18.2467 26.7538 18.1561 26.7538 18.0656C26.7538 18.0907 26.7538 18.1209 26.7538 18.146V18.2265Z" fill="#2C4696"/>
<path d="M26.7839 18.8252C26.7839 18.8554 26.7889 18.8805 26.794 18.9107C26.7839 18.8202 26.7738 18.7246 26.7688 18.634C26.7688 18.6692 26.7738 18.7045 26.7789 18.7447C26.7789 18.7749 26.7839 18.8 26.7889 18.8302" fill="#2C4696"/>
<path d="M26.7537 18.4278C26.7537 18.468 26.7537 18.5032 26.7587 18.5435C26.7587 18.5686 26.7587 18.5938 26.7638 18.6189C26.7587 18.5284 26.7537 18.4328 26.7487 18.3372C26.7487 18.3372 26.7487 18.3422 26.7487 18.3473C26.7487 18.3724 26.7487 18.4026 26.7487 18.4278" fill="#2C4696"/>
<path d="M26.7991 17.4015C26.7991 17.4015 26.7991 17.4468 26.7891 17.4669C26.7891 17.4468 26.7891 17.4216 26.7991 17.4015Z" fill="#2C4696"/>
<path d="M26.8394 17.0996C26.8394 17.0996 26.8394 17.0896 26.8394 17.0845C26.8394 17.1047 26.8344 17.1298 26.8293 17.1499C26.8293 17.1298 26.8344 17.1147 26.8394 17.0946" fill="#2C4696"/>
<path d="M26.7688 18.629C26.7688 18.629 26.7688 18.624 26.7688 18.619V18.629Z" fill="#2C4696"/>
<path d="M26.7688 17.7335C26.7688 17.7335 26.7688 17.7335 26.7688 17.7285C26.7688 17.7385 26.7688 17.7486 26.7688 17.7586C26.7688 17.7536 26.7688 17.7435 26.7688 17.7335Z" fill="#2C4696"/>
<path d="M26.7538 18.0253C26.7538 18.0253 26.7538 18.0504 26.7538 18.0605C26.7538 18.0504 26.7538 18.0353 26.7538 18.0253Z" fill="#2C4696"/>
<path d="M26.8998 16.7575C26.8947 16.7927 26.8847 16.8229 26.8796 16.8581C26.8847 16.8229 26.8897 16.7927 26.8998 16.7575Z" fill="#2C4696"/>
<path d="M26.8092 17.3109C26.8092 17.3109 26.8042 17.3612 26.7991 17.3864C26.7991 17.3914 26.7991 17.3964 26.7991 17.4065C26.8092 17.321 26.8193 17.2405 26.8343 17.155C26.8343 17.16 26.8343 17.165 26.8343 17.1751C26.8293 17.2204 26.8193 17.2707 26.8142 17.316" fill="#2C4696"/>
<path d="M27.2771 15.3741C27.2771 15.3741 27.2721 15.3942 27.267 15.4043C27.2821 15.369 27.2922 15.3288 27.3073 15.2936C27.3073 15.3087 27.2972 15.3187 27.2922 15.3338C27.2922 15.3439 27.2821 15.359 27.2771 15.3741Z" fill="#2C4696"/>
<path d="M27.5385 14.6798C27.5385 14.6798 27.5285 14.705 27.5234 14.715C27.5335 14.6849 27.5485 14.6597 27.5586 14.6295C27.5536 14.6446 27.5487 14.6546 27.5437 14.6697L27.5436 14.6798" fill="#2C4696"/>
<path d="M27.1664 15.7111C27.1815 15.6658 27.1966 15.6205 27.2117 15.5753C27.2117 15.5853 27.2066 15.5954 27.2016 15.6054C27.1915 15.6407 27.1815 15.6759 27.1664 15.7111Z" fill="#2C4696"/>
<path d="M35.1957 13.3366C34.2499 13.8548 33.0627 14.6144 30.6177 14.6144C29.2443 14.6144 28.4092 14.1818 27.9363 13.8045C27.8658 13.9504 27.7954 14.1013 27.725 14.2472C28.1979 14.7905 29.4153 15.9476 31.5585 16.3098C34.2751 16.7626 36.378 16.5211 38.7626 15.0773C41.1472 13.6284 41.5547 13.5731 42.8224 13.6837C44.0902 13.7944 46.3994 15.0169 46.7918 15.198C47.1791 15.3741 49.2921 16.4658 51.6465 15.7263C52.0339 15.3741 52.4008 15.0168 52.7429 14.6597C50.6702 16.018 48.1652 15.0722 47.1389 14.6144C45.8611 14.0409 43.6928 13.1153 42.5508 12.7329C41.3786 12.2751 40.3272 12.1041 39.3965 12.1041C37.2936 12.1041 35.8447 12.9794 35.1857 13.3366" fill="black"/>
<path d="M35.1957 13.3366C34.2499 13.8548 33.0627 14.6144 30.6177 14.6144C29.2443 14.6144 28.4092 14.1818 27.9363 13.8045C27.8658 13.9504 27.7954 14.1013 27.725 14.2472C28.1979 14.7905 29.4153 15.9476 31.5585 16.3098C34.2751 16.7626 36.378 16.5211 38.7626 15.0773C41.1472 13.6284 41.5547 13.5731 42.8224 13.6837C44.0902 13.7944 46.3994 15.0169 46.7918 15.198C47.1791 15.3741 49.2921 16.4658 51.6465 15.7263C52.0339 15.3741 52.4008 15.0168 52.7429 14.6597C50.6702 16.018 48.1652 15.0722 47.1389 14.6144C45.8611 14.0409 43.6928 13.1153 42.5508 12.7329C41.3786 12.2751 40.3272 12.1041 39.3965 12.1041C37.2936 12.1041 35.8447 12.9794 35.1857 13.3366" fill="url(#paint2_linear_1801_11156)"/>
<path d="M27.428 14.9666C27.428 14.9666 27.4431 14.9263 27.4481 14.9062C27.4481 14.9062 27.4481 14.9062 27.4481 14.9112C27.4431 14.9263 27.433 14.9464 27.428 14.9615" fill="#2C4696"/>
<path d="M27.0605 16.0632C27.0605 16.0632 27.0605 16.0834 27.0555 16.0934C27.0706 16.0431 27.0857 15.9928 27.0957 15.9425C27.0907 15.9677 27.0806 15.9878 27.0756 16.0129L27.0605 16.0683V16.0632Z" fill="#2C4696"/>
<path d="M26.8644 16.9537C26.8593 16.999 26.8493 17.0443 26.8442 17.0845C26.8543 17.009 26.8694 16.9336 26.8845 16.8531C26.8845 16.8632 26.8845 16.8732 26.8795 16.8833C26.8795 16.9034 26.8694 16.9286 26.8694 16.9537" fill="#2C4696"/>
<path d="M26.9047 16.7324C26.9047 16.7324 26.9047 16.7475 26.9047 16.7576C26.9198 16.6871 26.9348 16.6167 26.9499 16.5463C26.9399 16.5865 26.9298 16.6268 26.9248 16.667C26.9248 16.6871 26.9147 16.7123 26.9097 16.7324" fill="#2C4696"/>
<path d="M27.0054 16.2846C26.9953 16.3299 26.9853 16.3701 26.9752 16.4154C26.9903 16.35 27.0054 16.2846 27.0205 16.2242C27.0205 16.2242 27.0205 16.2242 27.0205 16.2293C27.0205 16.2494 27.0104 16.2695 27.0054 16.2896" fill="#2C4696"/>
<path d="M27.2115 15.5602C27.2266 15.5099 27.2469 15.4596 27.262 15.4042C27.2419 15.4596 27.2268 15.5149 27.2067 15.5703C27.2067 15.5703 27.2067 15.5602 27.2067 15.5552" fill="#2C4696"/>
<path d="M50.1621 17.004H50.152C50.152 17.004 50.1571 17.004 50.1621 17.004Z" fill="#2C4696"/>
<path d="M27.3575 15.1476C27.3575 15.1476 27.3676 15.1275 27.3676 15.1175C27.3878 15.0671 27.4029 15.0168 27.423 14.9716C27.3827 15.0822 27.3375 15.1929 27.3022 15.3036C27.3173 15.2533 27.3375 15.203 27.3576 15.1527" fill="#2C4696"/>
<path d="M27.4529 14.8911C27.4781 14.8307 27.4983 14.7754 27.5234 14.715C27.4983 14.7804 27.4733 14.8458 27.4481 14.9062C27.4481 14.9012 27.4479 14.8961 27.4529 14.8911Z" fill="#2C4696"/>
<path d="M50.5195 16.7122C50.5195 16.7122 50.4842 16.7424 50.4641 16.7575C50.4842 16.7424 50.5044 16.7273 50.5195 16.7122Z" fill="#2C4696"/>
<path d="M51.2489 16.0934C51.1885 16.1488 51.1231 16.2041 51.0627 16.2544C51.1231 16.1991 51.1885 16.1438 51.2489 16.0934Z" fill="#2C4696"/>
<path d="M27.0556 16.0884C27.0455 16.1337 27.0304 16.179 27.0204 16.2192C27.0304 16.174 27.0405 16.1337 27.0556 16.0884Z" fill="#2C4696"/>
<path d="M27.1262 15.8318C27.1262 15.8318 27.1362 15.7966 27.1413 15.7815C27.1463 15.7564 27.1564 15.7312 27.1664 15.7061C27.1413 15.7815 27.1211 15.857 27.101 15.9324C27.1111 15.8972 27.1211 15.862 27.1312 15.8318" fill="#2C4696"/>
<path d="M26.95 16.511C26.95 16.511 26.9601 16.4707 26.9651 16.4506C26.9651 16.4406 26.9702 16.4305 26.9752 16.4154C26.9652 16.4607 26.9551 16.5009 26.945 16.5462C26.945 16.5361 26.945 16.5261 26.95 16.511Z" fill="#2C4696"/>
<path d="M46.7915 15.203C46.4041 15.027 44.095 13.8045 42.8222 13.6938C41.5494 13.5831 41.1419 13.6384 38.7623 15.0823C36.3777 16.5261 34.2748 16.7676 31.5582 16.3148C29.415 15.9526 28.1926 14.7955 27.7247 14.2522C27.7046 14.2925 27.6844 14.3377 27.6693 14.383C27.6593 14.4031 27.6493 14.4282 27.6393 14.4484C28.0116 14.9213 28.8868 15.8923 30.069 16.2997C31.3267 16.7324 32.3228 17.1349 34.31 17.0242C36.2972 16.9135 37.6756 16.3702 39.1899 15.5904C40.7042 14.8106 43.0083 14.5289 44.4471 15.1578C45.8859 15.7866 47.692 16.9034 49.0553 17.0393C49.3572 17.0594 49.7949 17.0443 50.152 17.004C50.152 17.004 50.1571 17.004 50.1621 17.004C50.2627 16.9235 50.3635 16.838 50.4641 16.7575C50.4842 16.7424 50.5044 16.7273 50.5195 16.7122C50.5899 16.6518 50.6601 16.5965 50.7305 16.5361C50.7808 16.4909 50.8362 16.4506 50.8865 16.4053C50.9469 16.355 51.0023 16.3048 51.0576 16.2545C51.118 16.1991 51.1834 16.1438 51.2437 16.0935C51.294 16.0482 51.3393 16.008 51.3896 15.9627C51.4601 15.9023 51.5255 15.8369 51.5959 15.7765C51.611 15.7615 51.6311 15.7464 51.6462 15.7313C49.2918 16.4708 47.1788 15.3791 46.7915 15.203Z" fill="#2C4696"/>
<path d="M26.7538 18.146C26.7538 18.1058 26.7538 18.0655 26.7538 18.0203C26.7538 18.0605 26.7538 18.1058 26.7538 18.146Z" fill="#FFEF00"/>
<path d="M26.7991 18.9359C26.7991 18.9007 26.7889 18.8654 26.7839 18.8252C26.7839 18.8604 26.7941 18.8956 26.7991 18.9359Z" fill="#FFEF00"/>
<path d="M26.7587 17.9398C26.7587 17.8945 26.7587 17.8542 26.7638 17.809C26.7638 17.8542 26.7638 17.8945 26.7587 17.9398Z" fill="#FFEF00"/>
<path d="M26.774 18.7447C26.774 18.7095 26.7689 18.6692 26.7639 18.634C26.7639 18.6743 26.7689 18.7095 26.774 18.7447Z" fill="#FFEF00"/>
<path d="M26.7638 18.5434C26.7638 18.5032 26.7638 18.468 26.7587 18.4277C26.7587 18.468 26.7587 18.5032 26.7638 18.5434Z" fill="#FFEF00"/>
<path d="M26.7688 17.7335C26.7688 17.6882 26.7738 17.6429 26.7789 17.5977C26.7789 17.6429 26.7738 17.6882 26.7688 17.7335Z" fill="#FFEF00"/>
<path d="M26.7841 17.5222C26.7841 17.4769 26.7941 17.4317 26.7991 17.3864C26.7941 17.4317 26.7891 17.4769 26.7841 17.5222Z" fill="#FFEF00"/>
<path d="M26.9196 16.6669C26.9297 16.6166 26.9397 16.5613 26.9548 16.511C26.9448 16.5613 26.9297 16.6166 26.9196 16.6669Z" fill="#FFEF00"/>
<path d="M26.9651 16.4456C26.9752 16.3903 26.9903 16.34 27.0054 16.2846C26.9903 16.34 26.9802 16.3903 26.9651 16.4456Z" fill="#FFEF00"/>
<path d="M26.8092 17.3109C26.8142 17.2656 26.8193 17.2153 26.8293 17.17C26.8243 17.2153 26.8142 17.2656 26.8092 17.3109Z" fill="#FFEF00"/>
<path d="M26.8394 17.0996C26.8444 17.0493 26.8543 16.999 26.8644 16.9537C26.8543 17.004 26.8495 17.0493 26.8394 17.0996Z" fill="#FFEF00"/>
<path d="M27.2971 20.5357C27.2971 20.5357 27.2719 20.4904 27.2618 20.4703C27.2719 20.4904 27.282 20.5156 27.2971 20.5357Z" fill="#FFEF00"/>
<path d="M47.3095 19.0264C47.1033 19.1572 46.897 19.283 46.6857 19.4088C46.892 19.283 47.0983 19.1572 47.3095 19.0264Z" fill="#FFEF00"/>
<path d="M47.3095 19.0264C47.1033 19.1572 46.897 19.283 46.6857 19.4088C46.892 19.283 47.0983 19.1572 47.3095 19.0264Z" fill="#00A39B"/>
<path d="M26.9601 19.7206C26.9702 19.7559 26.9802 19.7911 26.9903 19.8263C26.9853 19.8062 26.9802 19.786 26.9702 19.7659C26.9702 19.7508 26.9601 19.7357 26.9551 19.7206" fill="#00A39B"/>
<path d="M26.8645 19.3383C26.8746 19.3786 26.8796 19.4188 26.8897 19.4591C26.8897 19.4389 26.8796 19.4238 26.8746 19.4037C26.8746 19.3836 26.8645 19.3635 26.8595 19.3383" fill="#00A39B"/>
<path d="M26.9098 19.5345C26.9199 19.5698 26.9299 19.61 26.94 19.6452C26.94 19.6251 26.93 19.61 26.9249 19.5898C26.9199 19.5697 26.9148 19.5547 26.9098 19.5345Z" fill="#00A39B"/>
<path d="M26.8293 19.1422C26.8344 19.1874 26.8444 19.2277 26.8545 19.273C26.8545 19.2528 26.8495 19.2327 26.8444 19.2176C26.8444 19.1925 26.8344 19.1673 26.8293 19.1472" fill="#00A39B"/>
<path d="M26.7991 18.9409C26.8042 18.9912 26.8142 19.0365 26.8193 19.0868C26.8193 19.0667 26.8142 19.0466 26.8092 19.0264C26.8092 19.0013 26.7991 18.9711 26.7991 18.9459" fill="#00A39B"/>
<path d="M27.2519 20.4501C27.2519 20.4501 27.2771 20.5004 27.2871 20.5206C27.2771 20.5004 27.267 20.4853 27.2569 20.4652C27.2569 20.4652 27.2519 20.4552 27.2469 20.4501" fill="#00A39B"/>
<path d="M27.3525 20.6313C27.3525 20.6313 27.3727 20.6715 27.3878 20.6866C27.3777 20.6715 27.3674 20.6514 27.3574 20.6363C27.3574 20.6363 27.3576 20.6313 27.3576 20.6262" fill="#00A39B"/>
<path d="M27.0909 20.093C27.101 20.1231 27.1161 20.1533 27.1262 20.1835C27.1161 20.1634 27.1111 20.1432 27.101 20.1231C27.101 20.113 27.0909 20.103 27.0909 20.093Z" fill="#00A39B"/>
<path d="M27.1664 20.2741C27.1815 20.2992 27.1915 20.3294 27.2066 20.3546C27.1966 20.3344 27.1865 20.3143 27.1815 20.2942C27.1815 20.2841 27.1764 20.2791 27.1714 20.269" fill="#00A39B"/>
<path d="M27.0204 19.9119C27.0304 19.9421 27.0455 19.9773 27.0556 20.0125C27.0455 19.9924 27.0405 19.9722 27.0355 19.9521C27.0304 19.937 27.0254 19.927 27.0204 19.9119Z" fill="#00A39B"/>
<path d="M27.4832 20.8476C27.5335 20.9231 27.589 20.9985 27.6493 21.074C27.6342 21.0538 27.619 21.0388 27.6089 21.0186C27.5687 20.9633 27.5284 20.9029 27.4882 20.8476" fill="#00A39B"/>
<path d="M47.3095 19.0264C47.4957 18.9107 47.677 18.79 47.8581 18.6693C47.677 18.785 47.4959 18.9057 47.3098 19.0214" fill="#00A39B"/>
<path d="M49.5837 17.4518C49.4328 17.5624 49.2818 17.6782 49.1309 17.7889C49.478 17.5373 49.8101 17.2807 50.132 17.0242C49.9912 17.1348 49.8503 17.2455 49.7044 17.3612C49.6642 17.3914 49.6239 17.4216 49.5837 17.4518Z" fill="#00A39B"/>
<path d="M48.5775 18.1863C48.5473 18.2064 48.5171 18.2316 48.4819 18.2517C48.3159 18.3674 48.1499 18.478 47.9789 18.5937C48.3461 18.3472 48.7033 18.1007 49.0454 17.8492C49.0353 17.8542 49.0253 17.8643 49.0152 17.8693C48.8693 17.975 48.7234 18.0806 48.5725 18.1862" fill="#00A39B"/>
<path d="M27.79 21.25C27.79 21.25 27.7548 21.2098 27.7347 21.1846C27.7146 21.1645 27.6994 21.1393 27.6843 21.1192C27.7648 21.2198 27.8455 21.3205 27.9361 21.416C27.916 21.3909 27.8959 21.3708 27.8757 21.3506C27.8506 21.3205 27.8202 21.2852 27.795 21.255" fill="#00A39B"/>
<path d="M27.5437 14.6697C27.5437 14.6697 27.5435 14.6798 27.5385 14.6798C27.5083 14.7502 27.4831 14.8207 27.4529 14.8911C27.4529 14.9012 27.4479 14.9062 27.4429 14.9163C27.4178 14.9817 27.3928 15.0521 27.3676 15.1175C27.3676 15.1275 27.3626 15.1376 27.3575 15.1476C27.3324 15.213 27.3123 15.2734 27.2871 15.3388C27.2871 15.3539 27.2769 15.364 27.2719 15.3791C27.2517 15.4395 27.2316 15.4998 27.2115 15.5652C27.2065 15.5803 27.2014 15.5954 27.1964 15.6105C27.1763 15.6709 27.1563 15.7312 27.1412 15.7866C27.1412 15.8017 27.131 15.8218 27.1259 15.8369C27.1108 15.8972 27.0907 15.9526 27.0756 16.0079L27.0605 16.0632C27.0454 16.1186 27.0304 16.174 27.0153 16.2293C27.0153 16.2494 27.0052 16.2696 27.0002 16.2897C26.9851 16.345 26.975 16.3953 26.96 16.4507C26.96 16.4708 26.9499 16.4909 26.9449 16.511C26.9348 16.5613 26.9197 16.6167 26.9096 16.667C26.9096 16.6871 26.8996 16.7123 26.8946 16.7324C26.8845 16.7827 26.8744 16.833 26.8644 16.8833C26.8644 16.9034 26.8543 16.9286 26.8543 16.9537C26.8442 17.0041 26.8392 17.0493 26.8292 17.0996C26.8292 17.1248 26.8241 17.1499 26.8191 17.1701C26.8141 17.2153 26.804 17.2657 26.799 17.3109C26.799 17.3361 26.7939 17.3612 26.7889 17.3864C26.7839 17.4317 26.7788 17.477 26.7738 17.5222C26.7738 17.5474 26.7688 17.5725 26.7638 17.5977C26.7638 17.643 26.7587 17.6882 26.7537 17.7335C26.7537 17.7587 26.7537 17.7838 26.7537 17.814C26.7537 17.8593 26.7487 17.8995 26.7487 17.9448C26.7487 17.97 26.7487 18.0002 26.7487 18.0253C26.7487 18.0656 26.7487 18.1108 26.7487 18.1511V18.2316C26.7487 18.2718 26.7487 18.3121 26.7487 18.3523C26.7487 18.3775 26.7487 18.4077 26.7487 18.4328C26.7487 18.4731 26.7487 18.5083 26.7537 18.5485C26.7537 18.5737 26.7537 18.6039 26.7587 18.634C26.7587 18.6743 26.7638 18.7095 26.7688 18.7447C26.7688 18.7749 26.7738 18.8001 26.7788 18.8302C26.7788 18.8604 26.7839 18.8856 26.7889 18.9158C26.7889 18.9258 26.7889 18.9309 26.7889 18.9409C26.7889 18.9661 26.799 18.9963 26.799 19.0214C26.799 19.0415 26.804 19.0617 26.809 19.0818C26.809 19.0969 26.809 19.1069 26.8141 19.122C26.8141 19.1271 26.8141 19.1321 26.8141 19.1371C26.8141 19.1623 26.8241 19.1824 26.8292 19.2076C26.8292 19.2277 26.8342 19.2478 26.8392 19.2629C26.8392 19.278 26.8442 19.2931 26.8493 19.3082C26.8493 19.3182 26.8493 19.3233 26.8543 19.3333C26.8543 19.3534 26.8644 19.3736 26.8694 19.3987C26.8694 19.4188 26.8795 19.4339 26.8795 19.4541C26.8795 19.4692 26.8845 19.4792 26.8895 19.4943C26.8895 19.5044 26.8946 19.5144 26.8996 19.5295C26.9046 19.5496 26.9096 19.5647 26.9147 19.5849C26.9147 19.605 26.9247 19.6201 26.9298 19.6402C26.9298 19.6503 26.9348 19.6654 26.9398 19.6754C26.9398 19.6905 26.95 19.7055 26.9551 19.7206C26.9601 19.7357 26.9651 19.7508 26.9702 19.7659C26.9752 19.786 26.9802 19.8062 26.9903 19.8263C26.9903 19.8363 26.9952 19.8465 27.0002 19.8565C27.0052 19.8716 27.0103 19.8917 27.0203 19.9068C27.0203 19.9169 27.0306 19.932 27.0356 19.9471C27.0406 19.9672 27.0505 19.9873 27.0555 20.0074C27.0555 20.0175 27.0607 20.0225 27.0658 20.0326C27.0708 20.0527 27.0809 20.0728 27.0909 20.093C27.0909 20.103 27.101 20.113 27.101 20.1231C27.1111 20.1432 27.1161 20.1634 27.1262 20.1835C27.1262 20.1885 27.1312 20.1986 27.1362 20.2036C27.1463 20.2288 27.1563 20.2489 27.1664 20.2741C27.1664 20.2791 27.1714 20.2892 27.1765 20.2942C27.1865 20.3143 27.1964 20.3345 27.2014 20.3546C27.2014 20.3546 27.2066 20.3646 27.2117 20.3697C27.2268 20.3948 27.2368 20.425 27.2519 20.4501C27.2519 20.4552 27.2568 20.4602 27.2618 20.4653C27.2719 20.4854 27.2819 20.5055 27.292 20.5206C27.292 20.5206 27.292 20.5256 27.292 20.5307C27.3121 20.5608 27.3272 20.5961 27.3473 20.6262C27.3473 20.6262 27.3473 20.6262 27.3473 20.6313C27.3574 20.6464 27.3674 20.6665 27.3775 20.6816C27.3775 20.6816 27.3775 20.6816 27.3775 20.6866C27.4077 20.7369 27.4429 20.7923 27.4781 20.8426C27.5184 20.8979 27.5586 20.9583 27.5989 21.0136C27.614 21.0337 27.6291 21.0488 27.6441 21.069C27.6542 21.084 27.6693 21.0991 27.6794 21.1142C27.6945 21.1344 27.7146 21.1595 27.7297 21.1796C27.7498 21.1998 27.7649 21.2249 27.785 21.245C27.8102 21.2802 27.8403 21.3104 27.8655 21.3406C27.8856 21.3607 27.9057 21.3859 27.9259 21.406C27.951 21.4362 27.9812 21.4664 28.0064 21.4966C28.0265 21.5167 28.0516 21.5418 28.0718 21.562C28.0969 21.5871 28.1271 21.6173 28.1573 21.6425C28.1824 21.6676 28.2076 21.6877 28.2327 21.7079C28.2478 21.7179 28.2579 21.733 28.273 21.7431C28.2881 21.7582 28.3032 21.7682 28.3183 21.7833C28.3434 21.8034 28.3686 21.8286 28.3937 21.8487C28.4239 21.8739 28.4541 21.899 28.4843 21.9242C28.5094 21.9443 28.5396 21.9644 28.5648 21.9896C28.5799 21.9997 28.595 22.0097 28.6101 22.0248C28.6252 22.0349 28.6402 22.05 28.6604 22.06C28.6906 22.0801 28.7157 22.1003 28.7459 22.1204C28.7761 22.1405 28.8113 22.1657 28.8415 22.1858C28.8717 22.2059 28.9018 22.226 28.932 22.2462C28.9622 22.2663 28.9974 22.2864 29.0326 22.3065C29.0628 22.3267 29.093 22.3468 29.1282 22.3619C29.1484 22.3719 29.1685 22.382 29.1836 22.3971C29.1987 22.4071 29.2138 22.4122 29.2288 22.4222C29.2641 22.4424 29.2943 22.4625 29.3295 22.4776C29.3597 22.4927 29.3898 22.5078 29.42 22.5229C29.4251 22.5229 29.4301 22.5229 29.4351 22.5279C29.4703 22.543 29.5055 22.5631 29.5408 22.5832C29.5508 22.5883 29.5609 22.5933 29.576 22.5983C29.6011 22.6084 29.6213 22.6184 29.6464 22.6335C29.6816 22.6486 29.7168 22.6687 29.7571 22.6838C29.7873 22.6989 29.8225 22.714 29.8527 22.7241C29.8527 22.7241 29.8577 22.7241 29.8627 22.7241C29.903 22.7392 29.9382 22.7593 29.9784 22.7744C30.0137 22.7895 30.0489 22.8046 30.0841 22.8146C30.1243 22.8297 30.1646 22.8499 30.2048 22.865C30.225 22.875 30.24 22.88 30.2602 22.8851C30.2753 22.8901 30.2904 22.8951 30.3054 22.9002C30.3507 22.9153 30.391 22.9354 30.4362 22.9454C30.4664 22.9555 30.4966 22.9656 30.5218 22.9756C30.5721 22.9907 30.6224 23.0108 30.6727 23.0259C30.7733 23.0561 30.879 23.0863 30.9846 23.1165C30.9947 23.1165 31.0098 23.1215 31.0198 23.1266C31.1255 23.1517 31.2311 23.1819 31.3368 23.207C31.3368 23.207 31.3569 23.2121 31.3669 23.2121C31.377 23.2121 31.3871 23.2171 31.4022 23.2221C31.4625 23.2372 31.5229 23.2473 31.5833 23.2624C31.5984 23.2624 31.6185 23.2674 31.6336 23.2724C31.6436 23.2724 31.6537 23.2724 31.6587 23.2775C31.7191 23.2875 31.7795 23.2976 31.8398 23.3127C31.8549 23.3127 31.865 23.3127 31.8801 23.3177C31.8952 23.3177 31.9103 23.3228 31.9254 23.3278C31.9857 23.3378 32.0461 23.3479 32.1065 23.358C32.1367 23.358 32.1668 23.368 32.197 23.368C32.2574 23.3781 32.3178 23.3831 32.3832 23.3932C32.4134 23.3932 32.4435 23.4032 32.4737 23.4032C32.5341 23.4083 32.5995 23.4183 32.6649 23.4234C32.6951 23.4234 32.7253 23.4284 32.7555 23.4334C32.8209 23.4385 32.8863 23.4435 32.9517 23.4485C32.9818 23.4485 33.012 23.4536 33.0422 23.4536C33.1076 23.4536 33.178 23.4636 33.2434 23.4636C33.2736 23.4636 33.3038 23.4636 33.334 23.4686C33.4044 23.4686 33.4698 23.4737 33.5403 23.4787C33.5704 23.4787 33.5956 23.4787 33.6258 23.4787C33.6962 23.4787 33.7717 23.4787 33.8421 23.4787H33.9226C33.9981 23.4787 34.0735 23.4787 34.149 23.4787C34.149 23.4787 34.1741 23.4787 34.1892 23.4787C34.1993 23.4787 34.2094 23.4787 34.2194 23.4787C34.2999 23.4787 34.3804 23.4787 34.4609 23.4737H34.471C34.471 23.4737 34.5011 23.4737 34.5213 23.4737C34.6068 23.4737 34.6923 23.4686 34.7778 23.4636C34.7778 23.4636 34.7929 23.4636 34.798 23.4636C34.803 23.4636 34.8131 23.4636 34.8181 23.4636C34.9086 23.4586 35.0042 23.4536 35.0998 23.4485C35.0998 23.4485 35.1048 23.4485 35.1099 23.4485C35.2356 23.4385 35.3614 23.4284 35.4922 23.4183C35.5023 23.4183 35.5123 23.4183 35.5274 23.4183C35.6482 23.4083 35.7689 23.3932 35.8947 23.3781C35.9047 23.3781 35.9148 23.3781 35.9249 23.3781C36.4581 23.3177 37.0115 23.2272 37.575 23.1115C37.7108 23.0813 37.8517 23.0511 37.9925 23.0209C37.9976 23.0209 38.0076 23.0209 38.0126 23.0159C38.1535 22.9857 38.2944 22.9505 38.4352 22.9153C38.551 22.8901 38.6667 22.8599 38.7773 22.8297C38.7773 22.8297 38.7824 22.8297 38.7874 22.8297C38.9031 22.7996 39.0138 22.7694 39.1295 22.7392C39.1295 22.7392 39.1345 22.7392 39.1396 22.7392C39.2553 22.709 39.3659 22.6738 39.4817 22.6386C39.4817 22.6386 39.4917 22.6386 39.4967 22.6335C39.6125 22.5983 39.7282 22.5631 39.8439 22.5279C39.8439 22.5279 39.8489 22.5279 39.8539 22.5279C39.9696 22.4927 40.0904 22.4524 40.2061 22.4122C41.9367 21.8487 43.7528 21.0539 45.6041 20.0175C44.3062 19.3484 41.992 18.7497 39.8338 19.0818C38.4604 19.2931 35.5174 20.4703 32.2574 20.093C30.3356 19.8666 29.586 18.8554 29.1131 18.3121C30.0891 18.8252 31.4273 19.0415 33.2585 19.0164C35.9198 18.9812 37.9623 17.975 40.3671 18.0354C42.7114 18.0957 45.3224 19.1874 46.2883 19.6251C46.389 19.5647 46.4896 19.5094 46.5902 19.449C46.6153 19.4339 46.6455 19.4138 46.6707 19.3987C46.8769 19.273 47.0832 19.1472 47.2945 19.0164C47.4806 18.9007 47.6617 18.7799 47.8429 18.6642C47.8831 18.6391 47.9183 18.6139 47.9586 18.5888C47.9586 18.5888 47.9636 18.5888 47.9686 18.5837C48.1397 18.473 48.3057 18.3573 48.4717 18.2467C48.5019 18.2265 48.5321 18.2014 48.5673 18.1813C48.7182 18.0756 48.8641 17.97 49.01 17.8643C49.0201 17.8593 49.0301 17.8492 49.0402 17.8442C49.0603 17.8291 49.0855 17.814 49.1056 17.7989C49.1106 17.7939 49.1157 17.7889 49.1207 17.7889C49.2716 17.6782 49.4276 17.5625 49.5735 17.4518C49.6137 17.4216 49.654 17.3914 49.6942 17.3612C49.8401 17.2506 49.981 17.1399 50.1218 17.0292C50.1319 17.0191 50.1419 17.0141 50.152 17.0091C49.7948 17.0493 49.3471 17.0644 49.0452 17.0443C47.6819 16.9085 45.8758 15.7916 44.437 15.1628C42.9982 14.5339 40.6941 14.8156 39.1798 15.5954C37.6655 16.3752 36.2871 16.9185 34.2999 17.0292C32.3127 17.1399 31.3166 16.7425 30.0589 16.3048C28.8767 15.8973 28.0013 14.9263 27.629 14.4534C27.5938 14.5289 27.5636 14.6044 27.5335 14.6748" fill="url(#paint3_linear_1801_11156)"/>
<path d="M39.8541 19.0969C38.4807 19.3082 35.5376 20.4904 32.2777 20.1081C31.7998 20.0527 31.3923 19.9471 31.0401 19.8112C31.0401 19.8112 32.4839 20.5407 34.8937 20.3244C37.3035 20.1081 38.3147 19.8012 38.8731 19.6603C39.4315 19.5194 41.313 19.0013 43.592 19.6603C43.9643 19.766 44.7591 20.0678 45.1717 20.2741C45.2874 20.2087 45.5037 20.093 45.6194 20.0276C44.3265 19.3585 42.0073 18.7598 39.8491 19.0918" fill="#2C4696"/>
<path d="M26.1804 39.9697L25.8886 40.3219V41.3381H25.5163V38.3649H25.8886V39.8037L26.1351 39.4767L26.935 38.3649H27.3827L26.4168 39.6729L27.4582 41.3381H27.0104L26.1804 39.9697Z" fill="#757475"/>
<path d="M29.6667 40.1156C29.6667 40.5231 29.5812 40.835 29.4051 41.0513C29.2341 41.2727 28.9876 41.3783 28.6706 41.3783C28.3537 41.3783 28.1223 41.2727 27.9462 41.0563C27.7701 40.845 27.6745 40.5432 27.6695 40.1508V39.5924C27.6695 39.1949 27.76 38.883 27.9311 38.6566C28.1021 38.4303 28.3537 38.3196 28.6656 38.3196C28.9775 38.3196 29.224 38.4252 29.3951 38.6416C29.5711 38.8579 29.6617 39.1648 29.6617 39.5672V40.1106L29.6667 40.1156ZM29.2944 39.5974C29.2944 39.2855 29.2441 39.049 29.1385 38.8931C29.0379 38.7422 28.8769 38.6617 28.6656 38.6617C28.4543 38.6617 28.3034 38.7371 28.1977 38.8931C28.0921 39.049 28.0367 39.2805 28.0367 39.5773V40.1106C28.0367 40.4124 28.0871 40.6438 28.1977 40.8048C28.3034 40.9658 28.4593 41.0463 28.6706 41.0463C28.8819 41.0463 29.0328 40.9708 29.1335 40.8249C29.2341 40.679 29.2844 40.4526 29.2894 40.1508V39.5924L29.2944 39.5974Z" fill="#757475"/>
<path d="M31.9253 38.6868H31.1456V41.3381H30.7682V38.6868H29.9885V38.3649H31.9253V38.6868Z" fill="#757475"/>
<path d="M33.5905 40.5634H32.5843L32.3529 41.3431H31.9706L32.9264 38.3699H33.2484L34.2093 41.3431H33.827L33.5905 40.5634ZM32.685 40.2414H33.4949L33.0874 38.8881L32.685 40.2414Z" fill="#757475"/>
<path d="M36.8707 40.5885C36.8707 40.4426 36.8304 40.3268 36.7499 40.2464C36.6694 40.1659 36.5235 40.0904 36.3173 40.0149C36.106 39.9395 35.945 39.859 35.8343 39.7785C35.7236 39.698 35.6381 39.6024 35.5828 39.4968C35.5274 39.3911 35.5023 39.2704 35.5023 39.1345C35.5023 38.8981 35.5828 38.7069 35.7387 38.551C35.8947 38.4 36.1009 38.3246 36.3575 38.3246C36.5336 38.3246 36.6845 38.3648 36.8254 38.4403C36.9612 38.5208 37.0669 38.6264 37.1373 38.7673C37.2128 38.9082 37.248 39.0591 37.248 39.2251H36.8707C36.8707 39.044 36.8254 38.8981 36.7399 38.7975C36.6493 38.6969 36.5235 38.6466 36.3575 38.6466C36.2066 38.6466 36.0909 38.6868 36.0054 38.7723C35.9198 38.8579 35.8796 38.9736 35.8796 39.1295C35.8796 39.2553 35.9249 39.3609 36.0154 39.4465C36.106 39.532 36.2468 39.6074 36.433 39.6728C36.7248 39.7684 36.9361 39.8892 37.0618 40.03C37.1876 40.1709 37.253 40.357 37.253 40.5834C37.253 40.8249 37.1725 41.0161 37.0166 41.162C36.8606 41.3079 36.6493 41.3783 36.3776 41.3783C36.2066 41.3783 36.0456 41.338 35.8997 41.2676C35.7538 41.1922 35.6381 41.0865 35.5526 40.9507C35.4671 40.8148 35.4268 40.6589 35.4268 40.4778H35.8041C35.8041 40.6589 35.8544 40.8048 35.9601 40.9054C36.0657 41.006 36.2016 41.0563 36.3827 41.0563C36.5487 41.0563 36.6694 41.0161 36.755 40.9305C36.8354 40.845 36.8807 40.7293 36.8807 40.5834" fill="#757475"/>
<path d="M39.5118 38.3649V40.4778C39.5118 40.7596 39.4263 40.9809 39.2653 41.1419C39.1043 41.3029 38.883 41.3784 38.5912 41.3784C38.2994 41.3784 38.073 41.2979 37.9171 41.1419C37.7611 40.9859 37.6806 40.7646 37.6806 40.4728V38.3599H38.0529V40.4577C38.0529 40.6589 38.0931 40.8048 38.1787 40.9055C38.2642 41.0061 38.4 41.0513 38.5912 41.0513C38.7823 41.0513 38.9182 41.001 39.0037 40.9055C39.0892 40.8048 39.1295 40.6589 39.1295 40.4577V38.3599H39.5068L39.5118 38.3649Z" fill="#757475"/>
<path d="M40.4677 40.1357V41.3381H40.0904V38.3649H40.9255C41.2173 38.3649 41.4386 38.4403 41.5896 38.5913C41.7405 38.7422 41.816 38.9635 41.816 39.2604C41.816 39.4465 41.7757 39.6075 41.6952 39.7433C41.6147 39.8791 41.499 39.9848 41.3531 40.0502L41.9317 41.3129V41.3381H41.5292L41.001 40.1357H40.4677ZM40.4677 39.8137H40.9205C41.0764 39.8137 41.2022 39.7634 41.2928 39.6628C41.3883 39.5622 41.4336 39.4264 41.4336 39.2604C41.4336 38.878 41.2626 38.6868 40.9154 38.6868H40.4677V39.8188V39.8137Z" fill="#757475"/>
<path d="M43.6976 40.5633H42.6915L42.46 41.3431H42.0777L43.0336 38.3699H43.3555L44.3164 41.3431H43.9341L43.6976 40.5633ZM42.7921 40.2413H43.602L43.1945 38.8881L42.7921 40.2413Z" fill="#757475"/>
<path d="M44.7189 38.3649H45.564C45.8357 38.3649 46.0369 38.4303 46.1778 38.5661C46.3187 38.7019 46.3841 38.8981 46.3841 39.1597C46.3841 39.3006 46.3489 39.4213 46.2784 39.527C46.208 39.6326 46.1174 39.7182 45.9967 39.7735C46.1325 39.8137 46.2432 39.8993 46.3187 40.025C46.3992 40.1508 46.4394 40.3017 46.4394 40.4828C46.4394 40.7495 46.3639 40.9608 46.2181 41.1117C46.0722 41.2626 45.8659 41.3431 45.5942 41.3431H44.7189V38.3649ZM45.5691 39.6326C45.6999 39.6326 45.8005 39.5874 45.881 39.5018C45.9615 39.4163 46.0017 39.2956 46.0017 39.1547C46.0017 38.9937 45.9665 38.873 45.8911 38.7975C45.8206 38.7221 45.7099 38.6868 45.559 38.6868H45.0861V39.6326H45.5691ZM45.0912 39.9496V41.0211H45.5993C45.7401 41.0211 45.8558 40.9759 45.9363 40.8803C46.0168 40.7897 46.0621 40.6539 46.0621 40.4879C46.0621 40.1307 45.9112 39.9496 45.6093 39.9496H45.0912Z" fill="#757475"/>
<path d="M48.3914 40.5633H47.3852L47.1538 41.3431H46.7715L47.7273 38.3699H48.0493L49.0102 41.3431H48.6279L48.3914 40.5633ZM47.4859 40.2413H48.2958L47.8883 38.8881L47.4859 40.2413Z" fill="#757475"/>
<path d="M49.996 39.859L50.6047 38.3649H51.0273L50.1821 40.2313V41.3381H49.8099V40.2313L48.9597 38.3649H49.3873L49.996 39.859Z" fill="#757475"/>
<path d="M52.612 40.5634H51.6059L51.3745 41.3431H50.9921L51.948 38.3699H52.27L53.2308 41.3431H52.8485L52.612 40.5634ZM51.7065 40.2414H52.5165L52.109 38.8881L51.7065 40.2414Z" fill="#757475"/>
<path d="M24.3994 33.8673C24.3994 33.6259 24.339 33.4448 24.2133 33.319C24.0875 33.1982 23.8661 33.0674 23.5391 32.9366C22.9455 32.7103 22.5179 32.4487 22.2563 32.1468C21.9947 31.845 21.8639 31.4878 21.8639 31.0752C21.8639 30.5772 22.04 30.1747 22.3972 29.8729C22.7493 29.571 23.2021 29.4201 23.7454 29.4201C24.1076 29.4201 24.4346 29.4956 24.7164 29.6515C25.0031 29.8024 25.2194 30.0188 25.3754 30.3005C25.5263 30.5772 25.6068 30.8941 25.6068 31.2513H24.4145C24.4145 30.9746 24.3541 30.7633 24.2384 30.6174C24.1227 30.4715 23.9517 30.4011 23.7303 30.4011C23.519 30.4011 23.358 30.4615 23.2423 30.5873C23.1266 30.708 23.0662 30.879 23.0662 31.0853C23.0662 31.2463 23.1317 31.3972 23.2625 31.528C23.3933 31.6588 23.6247 31.7946 23.9567 31.9355C24.5352 32.1468 24.9528 32.4034 25.2144 32.7052C25.476 33.0071 25.6068 33.3944 25.6068 33.8673C25.6068 34.3855 25.4408 34.788 25.1138 35.0747C24.7868 35.3665 24.339 35.5124 23.7756 35.5124C23.3933 35.5124 23.0461 35.4319 22.7292 35.276C22.4122 35.12 22.1708 34.8936 21.9897 34.6018C21.8136 34.3101 21.723 33.9629 21.723 33.5655H22.9254C22.9254 33.9076 22.9908 34.1541 23.1266 34.3101C23.2625 34.466 23.4788 34.5415 23.7756 34.5415C24.1932 34.5415 24.4044 34.3201 24.4044 33.8774" fill="#332C2B"/>
<path d="M30.2503 33.5956C30.2453 34.2094 30.0742 34.6823 29.7422 35.0093C29.4101 35.3363 28.9322 35.4973 28.3034 35.4973C27.6745 35.4973 27.1815 35.3313 26.8495 34.9992C26.5124 34.6672 26.3464 34.1893 26.3464 33.5604V29.4855H27.5538V33.5604C27.5538 33.8975 27.6091 34.139 27.7148 34.2798C27.8204 34.4257 28.0216 34.4962 28.3034 34.4962C28.5851 34.4962 28.7813 34.4257 28.8869 34.2798C28.9926 34.139 29.0479 33.9025 29.053 33.5755V29.4754H30.2503V33.5956Z" fill="#332C2B"/>
<path d="M32.9569 33.2535H32.3632V35.4168H31.1659V29.4905H33.0726C33.6712 29.4905 34.1341 29.6464 34.4611 29.9583C34.7881 30.2703 34.9541 30.7079 34.9541 31.2814C34.9541 32.0663 34.6673 32.6196 34.0938 32.9316L35.1302 35.3564V35.4117H33.8473L32.9569 33.2485V33.2535ZM32.3632 32.2574H33.0424C33.2839 32.2574 33.4599 32.1769 33.5807 32.021C33.7014 31.86 33.7618 31.6487 33.7618 31.3821C33.7618 30.7884 33.5304 30.4916 33.0675 30.4916H32.3683V32.2574H32.3632Z" fill="#332C2B"/>
<path d="M37.3637 32.1568L38.2592 29.4955H39.5571L37.9724 33.2687V35.4218H36.76V33.2687L35.1652 29.4955H36.4682L37.3637 32.1568Z" fill="#332C2B"/>
<path d="M40.6892 34.2043L40.3723 35.4168H39.1096L40.9609 29.4905H42.0576L43.919 35.4168H42.6412L42.3242 34.2043H40.6892ZM40.9458 33.2083H42.0526L41.4992 31.0953L40.9458 33.2083Z" fill="#332C2B"/>
<path d="M48.8894 33.8673C48.8894 33.6259 48.8291 33.4448 48.7033 33.319C48.5775 33.1982 48.3562 33.0674 48.0292 32.9366C47.4355 32.7103 47.0079 32.4487 46.7463 32.1468C46.4847 31.845 46.3539 31.4878 46.3539 31.0752C46.3539 30.5772 46.53 30.1747 46.8872 29.8729C47.2393 29.571 47.6921 29.4201 48.2354 29.4201C48.5976 29.4201 48.9246 29.4956 49.2064 29.6515C49.4931 29.8024 49.7095 30.0188 49.8654 30.3005C50.0163 30.5772 50.0968 30.8941 50.0968 31.2513H48.9045C48.9045 30.9746 48.8442 30.7633 48.7284 30.6174C48.6127 30.4715 48.4417 30.4011 48.2153 30.4011C48.004 30.4011 47.843 30.4615 47.7273 30.5873C47.6116 30.708 47.5512 30.879 47.5512 31.0853C47.5512 31.2463 47.6166 31.3972 47.7474 31.528C47.8782 31.6588 48.1097 31.7946 48.4417 31.9355C49.0202 32.1468 49.4378 32.4034 49.6994 32.7052C49.961 33.0071 50.0918 33.3944 50.0918 33.8673C50.0918 34.3855 49.9258 34.788 49.5988 35.0747C49.2718 35.3665 48.824 35.5124 48.2606 35.5124C47.8782 35.5124 47.5311 35.4319 47.2142 35.276C46.8972 35.12 46.6557 34.8936 46.4746 34.6018C46.2986 34.3101 46.208 33.9629 46.208 33.5655H47.4104C47.4104 33.9076 47.4758 34.1541 47.6116 34.3101C47.7424 34.466 47.9638 34.5415 48.2606 34.5415C48.6781 34.5415 48.8894 34.3201 48.8894 33.8774" fill="#332C2B"/>
<path d="M53.9503 32.8561H52.0839V34.4257H54.2924V35.4218H50.8865V29.4955H54.2823V30.4916H52.0839V31.8902H53.9503V32.8561Z" fill="#332C2B"/>
<path d="M56.5411 29.4955L57.663 33.7818L58.7748 29.4955H60.3394V35.4218H59.137V33.817L59.2477 31.3469L58.0654 35.4218H57.2504L56.0632 31.3469L56.1738 33.817V35.4218H54.9765V29.4955H56.5411Z" fill="#332C2B"/>
<path d="M61.3005 29.4955H63.1317C63.7505 29.4955 64.2183 29.6314 64.5403 29.9081C64.8623 30.1848 65.0233 30.5872 65.0233 31.1205C65.0233 31.4223 64.9579 31.6789 64.8221 31.8952C64.6913 32.1116 64.5051 32.2726 64.2787 32.3732C64.5454 32.4486 64.7466 32.5996 64.8925 32.831C65.0384 33.0624 65.1088 33.3441 65.1088 33.6812C65.1088 34.2547 64.9528 34.6924 64.6359 34.9842C64.319 35.2759 63.8612 35.4269 63.2625 35.4269H61.3005V29.4955ZM62.4978 31.9757H63.1216C63.5895 31.9757 63.8259 31.7343 63.8259 31.2463C63.8259 30.9796 63.7706 30.7834 63.665 30.6677C63.5543 30.552 63.3782 30.4916 63.1367 30.4916H62.5028V31.9757H62.4978ZM62.4978 32.8461V34.4308H63.2625C63.4788 34.4308 63.6398 34.3654 63.7505 34.2295C63.8612 34.0987 63.9165 33.9076 63.9165 33.6661C63.9165 33.1328 63.7253 32.8612 63.338 32.8461H62.4978Z" fill="#332C2B"/>
<path d="M68.8014 34.2043H67.1714L66.8545 35.4168H65.5867L67.4381 29.4905H68.5348L70.3962 35.4168H69.1184L68.8014 34.2043ZM67.428 33.2083H68.5348L67.9814 31.0953L67.428 33.2083Z" fill="#332C2B"/>
<path d="M70.9495 35.4218V29.4955H72.5141C73.2084 29.4955 73.7567 29.7169 74.1693 30.1546C74.5818 30.5923 74.7881 31.196 74.7981 31.9606V32.9215C74.7981 33.7013 74.5919 34.31 74.1793 34.7578C73.7668 35.2055 73.2034 35.4218 72.4789 35.4218H70.9445H70.9495ZM72.1469 30.4916V34.4257H72.5041C72.9015 34.4257 73.1832 34.3201 73.3442 34.1088C73.5052 33.8975 73.5907 33.5353 73.6008 33.0221V31.9908C73.6008 31.4374 73.5253 31.0501 73.3694 30.8337C73.2134 30.6174 72.9518 30.5017 72.5795 30.4866H72.1418L72.1469 30.4916Z" fill="#332C2B"/>
<path d="M78.4051 34.2043H76.7751L76.4581 35.4168H75.1904L77.0417 29.4905H78.1384L79.9998 35.4168H78.722L78.4051 34.2043ZM77.0316 33.2083H78.1384L77.585 31.0953L77.0316 33.2083Z" fill="#332C2B"/>
<path d="M1.16212 33.2938V35.4218H0V29.4955H2.0576C2.64621 29.4955 3.11407 29.6716 3.45617 30.0187C3.79826 30.3709 3.96931 30.8287 3.96931 31.3922C3.96931 31.9556 3.79826 32.4184 3.45617 32.7656C3.11407 33.1127 2.64621 33.2888 2.0576 33.2888H1.15709L1.16212 33.2938ZM2.06263 32.3681C2.30914 32.3681 2.49528 32.2776 2.62608 32.0965C2.75689 31.9154 2.82229 31.6839 2.82229 31.4022C2.82229 31.1205 2.75689 30.884 2.62608 30.6979C2.49528 30.5118 2.30914 30.4162 2.0576 30.4162H1.15709V32.3681H2.06263Z" fill="#332C2B"/>
<path d="M4.71387 35.4218V29.4955H6.50484C7.11357 29.4955 7.61162 29.727 8.00905 30.1848C8.40648 30.6426 8.60269 31.2362 8.60269 31.9606V32.9567C8.60269 33.6812 8.40648 34.2748 8.00905 34.7326C7.61162 35.1904 7.10853 35.4218 6.50484 35.4218H4.71387ZM5.87095 30.4212V34.4962H6.43441C6.75638 34.4962 7.00792 34.3553 7.17897 34.0736C7.35504 33.7919 7.44057 33.4196 7.44057 32.9567V31.9506C7.44057 31.4877 7.35504 31.1205 7.17897 30.8388C7.00289 30.557 6.75638 30.4212 6.43441 30.4212H5.87095Z" fill="#332C2B"/>
<path d="M11.9784 34.1541H10.4138L10.0968 35.4218H8.92969L10.5999 29.4955H11.8023L13.4675 35.4218H12.3003L11.9784 34.1541ZM10.6502 33.2284H11.7419L11.2086 31.1306H11.1835L10.6502 33.2284Z" fill="#332C2B"/>
<path d="M15.4043 29.4955L16.4709 33.8422H16.496L17.5676 29.4955H19.0768V35.4218H17.9248V33.6963L18.0254 31.3972L18.0002 31.3922L16.8683 35.4218H16.0986L14.9817 31.4223L14.9566 31.4274L15.0572 33.6963V35.4218H13.9052V29.4955H15.4043Z" fill="#332C2B"/>
</g>
<defs>
<linearGradient id="paint0_linear_1801_11156" x1="39.9999" y1="20.6892" x2="39.9999" y2="-20.6892" gradientUnits="userSpaceOnUse">
<stop stop-color="#4DBDED"/>
<stop offset="0.06" stop-color="#4DBDED"/>
<stop offset="0.5" stop-color="#FDFDFD"/>
<stop offset="1" stop-color="#FDFDFD"/>
</linearGradient>
<linearGradient id="paint1_linear_1801_11156" x1="40.0747" y1="36.6797" x2="40.0747" y2="-44.4097" gradientUnits="userSpaceOnUse">
<stop stop-color="#2F4696"/>
<stop offset="0.52" stop-color="#4DBDED"/>
<stop offset="1" stop-color="#4DBDED"/>
</linearGradient>
<linearGradient id="paint2_linear_1801_11156" x1="0" y1="20.7115" x2="79.9998" y2="20.7115" gradientUnits="userSpaceOnUse">
<stop stop-color="#4DBDED"/>
<stop offset="1" stop-color="#2F4696"/>
</linearGradient>
<linearGradient id="paint3_linear_1801_11156" x1="0" y1="20.7121" x2="79.9998" y2="20.7121" gradientUnits="userSpaceOnUse">
<stop stop-color="#2F4696"/>
<stop offset="1" stop-color="#4DBDED"/>
</linearGradient>
<clipPath id="clip0_1801_11156">
<rect width="79.9998" height="41.3784" fill="white"/>
</clipPath>
</defs>
</svg>
