<svg width="52" height="80" viewBox="0 0 52 80" fill="none" xmlns="http://www.w3.org/2000/svg">
<g clip-path="url(#clip0_1801_11284)">
<path fill-rule="evenodd" clip-rule="evenodd" d="M27.125 0C28.7917 2.1875 28.7188 4.19792 27.448 6.07292C30.6563 12.5417 23.1563 13.125 17.1667 16.4583C14.8646 17.7396 11.9584 19.9687 11.3542 22.6354C10.7709 14.7292 14.1354 11.9896 19.1355 9.94792C21.6875 8.90625 24.5521 7.55208 27.448 6.07292C34.3542 5.22917 37.3334 9.01042 39.5105 13.7396C40.1563 5.66667 36.6667 0.625 27.1355 0H27.125ZM24 41.6458C14.4688 41.0312 10.9688 35.9792 11.625 27.9062C13.7917 32.6354 16.7813 36.4167 23.6875 35.5729C26.5834 34.1042 29.448 32.75 32.0001 31.6979C37.0001 29.6562 40.3647 26.9167 39.7813 19.0104C39.1772 21.6771 36.2813 23.9062 33.9688 25.1875C27.9792 28.5208 20.4792 29.1042 23.6875 35.5729C22.4167 37.4479 22.3438 39.4479 24.0105 41.6458H24ZM23.6667 30.5521C17.4792 23.1875 35.9167 21.125 37.948 16.2917C34.9271 12.4583 31.2709 11.0625 27.1771 11.3229C33.4792 18.6875 15.0417 20.7396 13.0104 25.5729C15.5521 28.4375 18.3438 30.5312 23.6667 30.5521Z" fill="url(#paint0_linear_1801_11284)"/>
<path fill-rule="evenodd" clip-rule="evenodd" d="M25.1355 45.6667C27.4271 45.6667 29.4375 46.2917 30.7709 47.4687C35.2396 44.2292 39.1459 46.4375 40.3959 48.2083C41.9063 47.1354 44.1042 46.1042 45.9584 46.1042C48.5834 46.1042 50.2084 47.9167 50.2084 50.5937V62.7917C50.2084 63.2187 50.2084 63.8333 51.1147 64.1875C48.5938 64.0938 46.7605 63.2812 45.8959 61.8125V50.7604C45.2501 48.2708 41.6147 50.1979 40.6251 51.7083V62.7917C40.6251 63.2187 40.6251 63.8333 41.5313 64.1875C39.0105 64.0938 37.1771 63.2812 36.3126 61.8125V50.4896C36.323 49.1146 34.2709 48.0833 32.1146 49.0625C32.073 49.0833 32.0209 49.1042 31.9792 49.1146C32.2605 49.7396 32.4167 50.4479 32.4167 51.2292C32.4167 56.0104 29.4167 57.0104 25.323 57.0104C24.8542 57.3021 22.7396 58.2708 23.7188 59.2604C24.448 59.9896 28.698 59.1042 30.9584 60.1146C32.8959 60.9792 34.0209 62.7604 33.9896 64.5937C33.9376 67.1875 31.8959 69.8437 26.7292 70.2708C20.7084 70.7604 14.4792 67.9167 18.9063 63.6667C20.5938 68.4167 29.4167 68.2917 29.7188 64.5937C29.8438 63.1667 28.073 62.4375 25.75 62.2604C23.3542 62.0833 19.9167 62.7083 18.875 60.9583C18.1563 59.7396 18.2292 58.6458 19.3229 57.7604C19.9688 57.2292 20.9063 56.7187 21.7605 56.4479C19.3229 55.6042 17.5938 53.8333 17.6771 51.2917C17.7813 48.1563 21 45.6771 25.0938 45.6771L25.1355 45.6667ZM0.958335 67.3646C1.82292 68.8333 3.29167 69.5625 5.27084 69.6979V61.7708C11.3542 66.6146 16.3438 61.4479 16.3334 57.4792C16.3334 55.7083 16.3334 53.9479 16.3334 52.1771C16.3334 48.2083 11.3542 43.0417 5.27084 47.8854V47.5417C4.13542 46.0208 2.39584 45.4167 0 45.8021C0.625001 46.1562 0.979168 46.7396 0.958335 47.6458V67.3646ZM5.27084 50.3646C9.22918 47.6875 11.5 49.9271 11.5 52.4062V57.25C11.5 59.7396 9.22918 61.9687 5.27084 59.2917V50.3542V50.3646ZM25.5105 48.3542C23.8021 48.3542 22.4271 49.7396 22.4271 51.4375C22.4271 53.1354 23.8125 54.5208 25.5105 54.5208C27.2084 54.5208 28.5938 53.1354 28.5938 51.4375C28.5938 49.7396 27.2084 48.3542 25.5105 48.3542Z" fill="#5C7795"/>
<path fill-rule="evenodd" clip-rule="evenodd" d="M3.97917 76.8229L4.68751 76.8958C4.58334 77.25 4.35417 77.5833 3.98959 77.8958C3.62501 78.2083 3.1875 78.3646 2.6875 78.3646C2.375 78.3646 2.08334 78.2917 1.82292 78.1458C1.5625 78 1.35417 77.7917 1.21875 77.5104C1.08333 77.2292 1.01042 76.9167 1.01042 76.5625C1.01042 76.0938 1.11458 75.6458 1.33333 75.2083C1.55209 74.7708 1.82292 74.4479 2.16667 74.2292C2.51042 74.0208 2.875 73.9062 3.28126 73.9062C3.79167 73.9062 4.19792 74.0625 4.50001 74.375C4.80209 74.6875 4.95834 75.125 4.95834 75.6667C4.95834 75.875 4.93751 76.0937 4.90626 76.3125H1.76042C1.76042 76.3958 1.75 76.4687 1.75 76.5417C1.75 76.9375 1.84375 77.2396 2.02084 77.4583C2.20834 77.6667 2.42709 77.7708 2.6875 77.7708C2.9375 77.7708 3.17709 77.6875 3.41667 77.5312C3.65626 77.3646 3.84376 77.1354 3.97917 76.8229ZM1.875 75.7708H4.26042C4.26042 75.6979 4.26042 75.6458 4.26042 75.6146C4.26042 75.25 4.16667 74.9688 3.98959 74.7812C3.81251 74.5833 3.57292 74.4896 3.29167 74.4896C2.97917 74.4896 2.69792 74.5938 2.44792 74.8125C2.1875 75.0208 2 75.3438 1.875 75.7812V75.7708ZM5.42709 78.2708L6.32293 74.0104H6.97918L6.82293 74.75C7.10418 74.4583 7.37501 74.25 7.62501 74.1146C7.87501 73.9792 8.12501 73.9167 8.38543 73.9167C8.72918 73.9167 9.00001 74.0104 9.19793 74.1979C9.39585 74.3854 9.4896 74.6354 9.4896 74.9479C9.4896 75.1042 9.45835 75.3542 9.38543 75.6979L8.84376 78.2708H8.1146L8.6771 75.5729C8.72918 75.3125 8.76043 75.1146 8.76043 74.9896C8.76043 74.8437 8.70835 74.7292 8.6146 74.6458C8.52085 74.5521 8.37501 74.5104 8.18751 74.5104C7.81251 74.5104 7.47918 74.6458 7.19793 74.9062C6.90626 75.1771 6.69793 75.6354 6.56251 76.2812L6.14584 78.2604H5.41667L5.42709 78.2708ZM13.1146 76.8229L13.8229 76.8958C13.7188 77.25 13.4896 77.5833 13.125 77.8958C12.7604 78.2083 12.3229 78.3646 11.8229 78.3646C11.5104 78.3646 11.2188 78.2917 10.9584 78.1458C10.6979 78 10.5 77.7917 10.3542 77.5104C10.2188 77.2292 10.1458 76.9167 10.1458 76.5625C10.1458 76.0938 10.25 75.6458 10.4688 75.2083C10.6875 74.7708 10.9584 74.4479 11.3021 74.2292C11.6459 74.0208 12.0104 73.9062 12.4167 73.9062C12.9271 73.9062 13.3334 74.0625 13.6354 74.375C13.9375 74.6875 14.0938 75.125 14.0938 75.6667C14.0938 75.875 14.0729 76.0937 14.0417 76.3125H10.9063C10.9063 76.3958 10.8959 76.4687 10.8959 76.5417C10.8959 76.9375 10.9896 77.2396 11.1667 77.4583C11.3542 77.6667 11.5729 77.7708 11.8334 77.7708C12.0834 77.7708 12.3229 77.6875 12.5625 77.5312C12.8021 77.3646 12.9896 77.1354 13.125 76.8229H13.1146ZM11.0104 75.7708H13.3959C13.3959 75.6979 13.3959 75.6458 13.3959 75.6146C13.3959 75.25 13.3021 74.9688 13.125 74.7812C12.9479 74.5833 12.7084 74.4896 12.4271 74.4896C12.1146 74.4896 11.8334 74.5938 11.5834 74.8125C11.3229 75.0208 11.1354 75.3438 11.0104 75.7812V75.7708ZM14.5625 78.2708L15.4479 74.0104H16.0834L15.9063 74.875C16.125 74.5417 16.3334 74.3021 16.5521 74.1458C16.7604 73.9896 16.9792 73.9062 17.1979 73.9062C17.3438 73.9062 17.5209 73.9583 17.7292 74.0625L17.4271 74.7396C17.3021 74.6458 17.1667 74.6042 17.0104 74.6042C16.7604 74.6042 16.5 74.75 16.2292 75.0312C15.9584 75.3125 15.75 75.8229 15.6042 76.5625L15.2396 78.2708H14.5521H14.5625ZM17.2604 78.6562C17.25 78.7292 17.2396 78.8021 17.2396 78.875C17.2396 79.0938 17.3021 79.2917 17.4271 79.4583C17.5521 79.625 17.7292 79.7604 17.9792 79.8438C18.2292 79.9375 18.5209 79.9792 18.8646 79.9792C19.2084 79.9792 19.5313 79.9062 19.8021 79.7708C20.073 79.6354 20.2813 79.4375 20.4375 79.1875C20.5938 78.9375 20.7084 78.5833 20.8021 78.1354L21.6563 74.0312H20.9896L20.8438 74.7292C20.5417 74.1979 20.1146 73.9375 19.5521 73.9375C19.2188 73.9375 18.8959 74.0417 18.5834 74.2396C18.2709 74.4479 18 74.75 17.7709 75.1458C17.5417 75.5417 17.4271 75.9896 17.4271 76.4688C17.4271 77.0521 17.5729 77.5 17.8646 77.8125C18.1563 78.125 18.5104 78.2917 18.9479 78.2917C19.3855 78.2917 19.7709 78.1042 20.1459 77.7188L20.073 78.0625C19.9688 78.5729 19.8438 78.9062 19.7188 79.0521C19.5209 79.2812 19.2084 79.3958 18.7709 79.3958C18.5625 79.3958 18.3959 79.3646 18.2604 79.3021C18.1667 79.2604 18.0938 79.1875 18.0417 79.1146C18 79.0312 17.9792 78.9062 17.9792 78.7396L17.25 78.6667L17.2604 78.6562ZM18.1667 76.3854C18.1667 76.25 18.2084 76.0417 18.2813 75.7708C18.3542 75.5 18.4584 75.2708 18.6042 75.0729C18.75 74.875 18.8959 74.7396 19.0625 74.6458C19.2292 74.5521 19.3959 74.5 19.573 74.5C19.8542 74.5 20.1042 74.6042 20.2917 74.8125C20.4896 75.0208 20.5834 75.3021 20.5834 75.6458C20.5834 75.9583 20.5105 76.3021 20.3646 76.6458C20.2188 77 20.0313 77.25 19.7917 77.4167C19.5625 77.5833 19.3229 77.6667 19.0834 77.6667C18.9063 77.6667 18.7396 77.6146 18.5834 77.5C18.4375 77.3958 18.3229 77.2396 18.2396 77.0312C18.1875 76.8854 18.1563 76.6667 18.1563 76.375L18.1667 76.3854ZM21.5938 79.9167L21.6355 79.2396C21.7813 79.2812 21.9271 79.3021 22.073 79.3021C22.2188 79.3021 22.3334 79.2708 22.4271 79.1979C22.5417 79.1042 22.6771 78.9479 22.8125 78.6979L23.0417 78.2812L22.3334 74.0104H23.0417L23.3646 76.1667C23.4271 76.5937 23.4792 77.0208 23.5313 77.4375L25.4375 74.0104H26.198L23.4896 78.8333C23.2292 79.3021 22.9896 79.6146 22.7917 79.7708C22.5938 79.9271 22.3542 80 22.0938 80C21.9271 80 21.7605 79.9687 21.6042 79.9167H21.5938ZM28.3542 78.2708L29.125 74.5729H28.4792L28.5938 74.0104H29.2396L29.3646 73.4062C29.4271 73.1042 29.4896 72.8854 29.5625 72.75C29.6355 72.6146 29.7396 72.5104 29.8959 72.4167C30.0521 72.3333 30.2605 72.2917 30.5209 72.2917C30.7084 72.2917 30.9688 72.3333 31.323 72.4062L31.1876 73.0417C30.9376 72.9792 30.7396 72.9479 30.573 72.9479C30.4271 72.9479 30.323 72.9792 30.2501 73.0521C30.1771 73.125 30.1146 73.2917 30.0626 73.5521L29.9688 74.0104H30.7813L30.6667 74.5729H29.8542L29.0834 78.2708H28.3542ZM30.6667 76.6562C30.6667 77 30.7396 77.2917 30.8855 77.5521C31.0313 77.8125 31.2396 78.0104 31.5105 78.1562C31.7813 78.3021 32.0834 78.3646 32.4167 78.3646C32.823 78.3646 33.2084 78.25 33.573 78.0312C33.9376 77.8021 34.2188 77.4792 34.4167 77.0625C34.6146 76.6458 34.7188 76.1875 34.7188 75.6979C34.7188 75.1562 34.5626 74.7187 34.2501 74.3958C33.9376 74.0729 33.5209 73.9167 33.0105 73.9167C32.3542 73.9167 31.823 74.1458 31.4271 74.5938C30.9376 75.1354 30.698 75.8229 30.698 76.6562H30.6667ZM31.3959 76.5833C31.3959 76.3646 31.4271 76.1146 31.5001 75.8437C31.573 75.5625 31.6771 75.3229 31.8334 75.1146C31.9792 74.9062 32.1563 74.75 32.3438 74.6354C32.5313 74.5312 32.7396 74.4687 32.9688 74.4687C33.2605 74.4687 33.5105 74.5729 33.698 74.7812C33.8959 74.9896 33.9896 75.2917 33.9896 75.6771C33.9896 75.9167 33.948 76.1771 33.8646 76.4375C33.8126 76.625 33.7396 76.8021 33.6459 76.9687C33.5521 77.1354 33.4376 77.2812 33.3126 77.4062C33.1771 77.5312 33.0417 77.625 32.8855 77.6875C32.7292 77.75 32.5834 77.7812 32.4271 77.7812C32.1355 77.7812 31.8855 77.6771 31.698 77.4688C31.5105 77.2604 31.4063 76.9583 31.4063 76.5625L31.3959 76.5833ZM35.1042 78.2708L35.9896 74.0104H36.6251L36.448 74.875C36.6667 74.5417 36.8855 74.3021 37.0938 74.1458C37.3021 73.9896 37.5209 73.9062 37.7396 73.9062C37.8855 73.9062 38.0626 73.9583 38.2709 74.0625L37.9792 74.7396C37.8542 74.6458 37.7188 74.6042 37.5626 74.6042C37.3126 74.6042 37.0521 74.75 36.7813 75.0312C36.5105 75.3125 36.3021 75.8229 36.1563 76.5625L35.7917 78.2708H35.1042ZM40.0626 78.2708L41.2917 72.3958H42.0209L40.7917 78.2708H40.0626ZM42.9688 73.2188L43.1459 72.3958H43.8647L43.698 73.2188H42.9688ZM41.9063 78.2708H42.6355L43.5209 74.0104H42.7917L41.9063 78.2708ZM43.8542 78.2708H44.5834L45.3542 74.5729H46.1667L46.2813 74.0104H45.4688L45.5626 73.5521C45.6147 73.2917 45.6772 73.125 45.7501 73.0521C45.823 72.9792 45.9272 72.9479 46.073 72.9479C46.2397 72.9479 46.448 72.9792 46.6876 73.0417L46.823 72.4062C46.4688 72.3333 46.2084 72.2917 46.0209 72.2917C45.7605 72.2917 45.5522 72.3333 45.3959 72.4167C45.2397 72.5 45.1355 72.6146 45.0626 72.75C44.9897 72.8854 44.9272 73.1042 44.8647 73.4062L44.7397 74.0104H44.0938L43.9792 74.5729H44.6251L43.8542 78.2708ZM49.1563 76.8229L49.8647 76.8958C49.7605 77.25 49.5313 77.5833 49.1667 77.8958C48.8022 78.2083 48.3647 78.3646 47.8647 78.3646C47.5522 78.3646 47.2605 78.2917 47.0001 78.1458C46.7397 78 46.5313 77.7917 46.3959 77.5104C46.2605 77.2292 46.1876 76.9167 46.1876 76.5625C46.1876 76.0938 46.2917 75.6458 46.5105 75.2083C46.7292 74.7708 47.0001 74.4479 47.3438 74.2292C47.6876 74.0208 48.0522 73.9062 48.4584 73.9062C48.9688 73.9062 49.3751 74.0625 49.6772 74.375C49.9792 74.6875 50.1355 75.125 50.1355 75.6667C50.1355 75.875 50.1147 76.0937 50.0834 76.3125H46.948C46.948 76.3958 46.9376 76.4687 46.9376 76.5417C46.9376 76.9375 47.0313 77.2396 47.2084 77.4583C47.3959 77.6667 47.6147 77.7708 47.8751 77.7708C48.1251 77.7708 48.3647 77.6875 48.6042 77.5312C48.8438 77.375 49.0313 77.1354 49.1667 76.8229H49.1563ZM47.0522 75.7708H49.4376C49.4376 75.6979 49.4376 75.6458 49.4376 75.6146C49.4376 75.25 49.3438 74.9688 49.1667 74.7812C48.9897 74.5833 48.7501 74.4896 48.4688 74.4896C48.1563 74.4896 47.8751 74.5938 47.6251 74.8125C47.3647 75.0208 47.1772 75.3438 47.0522 75.7812V75.7708Z" fill="#231916"/>
</g>
<defs>
<linearGradient id="paint0_linear_1801_11284" x1="23.2921" y1="66.9335" x2="30.4349" y2="-7.19361" gradientUnits="userSpaceOnUse">
<stop stop-color="#008DD7"/>
<stop offset="1" stop-color="white"/>
</linearGradient>
<clipPath id="clip0_1801_11284">
<rect width="51.1147" height="80" fill="white"/>
</clipPath>
</defs>
</svg>
