<svg width="80" height="80" viewBox="0 0 80 80" fill="none" xmlns="http://www.w3.org/2000/svg">
<g clip-path="url(#clip0_1801_11588)">
<g clip-path="url(#clip1_1801_11588)">
<path d="M0 0H80V80H0V0Z" fill="url(#paint0_linear_1801_11588)"/>
<path d="M26.0156 58.2422L26.023 58.2446L23.324 62.9193C22.3388 64.6257 20.1567 65.2104 18.4503 64.2252C16.744 63.2401 16.1593 61.058 17.1445 59.3516L19.1328 55.9079L19.3235 55.5774C19.6643 55.0875 20.5053 54.2423 22.1874 54.4011C22.1874 54.4011 26.1457 54.8307 26.4321 56.8881C26.4322 56.8881 26.4713 57.5651 26.0156 58.2422ZM64.2967 46.3021H55.8802C55.3071 46.2638 55.0567 46.0591 54.9585 45.9401L54.9522 45.9293L45.9426 30.3243L45.931 30.3321L45.3906 29.5573C44.5051 28.2032 43.0989 31.6667 43.0989 31.6667C41.42 35.526 43.3371 39.9139 44.0056 41.24L56.5194 62.9145C57.5045 64.6209 59.6866 65.2056 61.393 64.2204C63.0993 63.2353 63.684 61.0532 62.6988 59.3468L59.5696 53.9269C59.5091 53.7957 59.4035 53.439 60.0453 53.4376H64.2967C66.2671 53.4376 67.8644 51.8403 67.8644 49.8699C67.8644 47.8995 66.2671 46.3021 64.2967 46.3021ZM47.9492 51.1524C47.9492 51.1524 48.3984 53.4375 46.6601 53.4375H44.9218L15.5467 53.4376C13.5763 53.4376 11.979 51.8403 11.979 49.8699C11.979 47.8995 13.5763 46.3021 15.5467 46.3021H23.5456C24.8371 46.2273 25.1432 45.4818 25.1432 45.4818L25.1503 45.4854L35.5915 27.4006L35.5884 27.4C35.7788 27.0506 35.6203 26.7205 35.5927 26.6682L32.1445 20.6958C31.1592 18.9894 31.7439 16.8074 33.4503 15.8222C35.1567 14.837 37.3387 15.4217 38.3239 17.1281L39.9231 19.8981L41.5195 17.133C42.5047 15.4266 44.6867 14.8419 46.3931 15.8271C48.0996 16.8124 48.6842 18.9944 47.699 20.7007L33.1697 45.8661C33.1062 46.0193 33.0867 46.2598 33.5594 46.3021H42.2442L42.246 46.3868C42.246 46.3868 47.2656 46.4649 47.9492 51.1524Z" fill="white"/>
</g>
</g>
<defs>
<linearGradient id="paint0_linear_1801_11588" x1="40" y1="80" x2="40" y2="0" gradientUnits="userSpaceOnUse">
<stop stop-color="#1D76F2"/>
<stop offset="1" stop-color="#1AC2FB"/>
</linearGradient>
<clipPath id="clip0_1801_11588">
<rect width="80" height="80" fill="white"/>
</clipPath>
<clipPath id="clip1_1801_11588">
<rect width="80" height="80" fill="white"/>
</clipPath>
</defs>
</svg>
