<svg width="80" height="77" viewBox="0 0 80 77" fill="none" xmlns="http://www.w3.org/2000/svg">
<g clip-path="url(#clip0_1801_11528)">
<path fill-rule="evenodd" clip-rule="evenodd" d="M40 0C46.1333 0 51.1124 5.10095 51.1124 11.3905C51.1124 17.68 46.1333 22.781 40 22.781C33.8667 22.781 28.8876 17.68 28.8876 11.3905C28.8876 5.10095 33.8667 0 40 0ZM11.6952 42.0876C9.42095 43.3867 9.44 45.501 11.7257 46.8038C14.0114 48.1029 17.6952 48.1029 19.9695 46.8038C22.24 45.501 22.2324 43.3867 19.9467 42.0876C17.6571 40.7848 13.9695 40.7848 11.6952 42.0876ZM74.6324 49.5086L51.341 60.301C47.6305 61.9657 44.3771 62.7771 39.9848 62.7771C36.0729 62.7872 32.2062 61.942 28.6552 60.301L5.36381 49.5086C3.36762 48.541 0 46.9181 0 44.2819C0 41.6381 3.42857 39.9771 5.36381 39.0552L28.6552 28.3124C30.9837 27.2537 33.4499 26.5291 35.981 26.16V44.9409C35.981 46.7314 37.779 47.9238 40.0076 47.9238C42.2286 47.9238 44.0305 46.7543 44.0305 44.9448V26.1105C46.5752 26.4724 48.861 27.1962 51.341 28.3124L74.6324 39.0552C76.5676 39.9771 80 41.6381 80 44.2819C80 46.9181 76.6286 48.541 74.6324 49.5086ZM52.7467 72.9638C47.9581 75.2114 44.7086 76.1105 40.0152 76.1105C36.0967 76.1374 32.2226 75.2792 28.6819 73.6C26.1333 72.4229 7.73333 63.8438 5.36381 62.6895C2.37333 61.2343 1.29524 60.2705 0.655238 59.3676C0.246254 58.7892 0.0182055 58.1024 0 57.3943V54.0876C0 54.0876 0 52.1219 1.86667 53.0095C1.86667 53.0095 25.6152 64.1219 28.6552 65.5352C31.8514 67.0209 35.5886 68.0495 39.9848 68.0495C44.3771 68.0495 47.6305 67.2267 51.3371 65.5352C55.0514 63.84 78.1333 53.0095 78.1333 53.0095C80 52.1219 80 54.0876 80 54.0876V57.3943C79.9875 58.0999 79.7588 58.7847 79.3448 59.3562C78.5448 60.4343 77.6419 61.2 74.6324 62.6819C72.2438 63.8629 57.5276 70.7048 52.7467 72.9638Z" fill="url(#paint0_linear_1801_11528)"/>
</g>
<defs>
<linearGradient id="paint0_linear_1801_11528" x1="80" y1="0" x2="80" y2="76" gradientUnits="userSpaceOnUse">
<stop stop-color="#FF7355"/>
<stop offset="1" stop-color="#FF2D69"/>
</linearGradient>
<clipPath id="clip0_1801_11528">
<rect width="80" height="76.1111" fill="white"/>
</clipPath>
</defs>
</svg>
