<svg width="80" height="27" viewBox="0 0 80 27" fill="none" xmlns="http://www.w3.org/2000/svg">
<g clip-path="url(#clip0_1801_11579)">
<path fill-rule="evenodd" clip-rule="evenodd" d="M31.6161 2.9232V20.4992H35.0812V14.0964H39.3499C42.7895 14.0964 45.3505 11.7115 45.3505 8.4724C45.3505 5.25827 42.8899 2.9232 39.4753 2.9232H31.6161ZM39.0989 11.134H35.0812V6.01173H39.0989C40.7559 6.01173 41.9109 7.06627 41.9109 8.57293C41.9109 10.0793 40.7559 11.134 39.0989 11.134ZM50.1712 1.9192L46.9827 2.9232V20.4992H50.1712V1.9192ZM57.9293 20.6752C59.4864 20.6752 60.8925 20.0977 61.9471 19.1181V20.4992H65.1356V7.9704H61.9471V9.35093C60.9425 8.3468 59.5613 7.76933 58.0553 7.76933C54.7913 7.76933 51.8281 10.4809 51.8281 14.222C51.8281 17.9631 54.7408 20.6752 57.9293 20.6752ZM58.482 17.8125C56.5489 17.8125 54.9917 16.3311 54.9917 14.222C54.9917 12.1129 56.5489 10.6315 58.482 10.6315C60.4404 10.6315 61.972 12.1129 61.972 14.222C61.972 16.3311 60.4404 17.8125 58.482 17.8125ZM80 7.9704H76.6605L73.0948 15.352L69.4543 7.9704H65.8891L71.2623 18.9172L67.6717 26.0484H71.1368L80 7.9704ZM18.3005 15.2896L17.2768 13.6553H14.2879L15.3132 12.0181H16.2575L15.1161 10.1957L11.9321 15.2896H3.4376L5.4828 12.0181H3.98107L5.002 10.3811H11.5681L10.5467 12.0181H7.41493L6.3912 13.6553H11.0239L15.1161 7.106L20.2304 15.2896H18.3005ZM7.048 7.106H13.7833L12.7596 8.74387H6.02493L7.048 7.106ZM11.716 0C5.24573 0 0 5.246 0 11.7167C0 18.1888 5.24573 23.4325 11.716 23.4325C18.1861 23.4325 23.4327 18.1888 23.4327 11.7167C23.4327 5.246 18.1861 0 11.716 0Z" fill="#FF4747"/>
</g>
<defs>
<clipPath id="clip0_1801_11579">
<rect width="80" height="26.0484" fill="white"/>
</clipPath>
</defs>
</svg>
