<svg width="80" height="80" viewBox="0 0 80 80" fill="none" xmlns="http://www.w3.org/2000/svg">
<g clip-path="url(#clip0_1801_11506)">
<path d="M37.5708 46.5865H22.2414L25.7782 41.069H34.9656L38.4755 35.5557H17.235L13.726 41.069H18.7578L11.7767 52.0841H40.9118L51.673 35.1131L55.597 41.069H52.0588L48.7082 46.5865H59.185L62.8234 52.0842H69.5066L51.3903 24.5815L37.5708 46.5865ZM24.1645 24.5288L20.7341 30.0409H43.3139L46.7702 24.5288H24.1645ZM0 40.0002C0 17.944 17.9434 0 40 0C62.0557 0 80 17.944 80 40.0002C80 62.0563 62.0557 80.0008 40 80.0008C17.9434 80.0008 0 62.0562 0 40.0002Z" fill="#FF4747"/>
<path d="M46.7741 24.528L43.3178 30.042L20.7302 30.0417L24.1606 24.5277L46.7741 24.528Z" fill="#0D1042"/>
<path d="M51.3928 24.5784L69.5102 52.0859L62.8268 52.0863L59.1887 46.5881L48.711 46.5894L52.0549 41.0681L55.593 41.0683L51.6768 35.112L40.9118 52.0881L11.7731 52.0858L18.7538 41.0696L13.722 41.0695L17.2311 35.5552L38.4731 35.5526L34.962 41.0708L25.7821 41.0683L22.245 46.5849L37.5722 46.5828L51.3928 24.5784Z" fill="#0D1042"/>
</g>
<defs>
<clipPath id="clip0_1801_11506">
<rect width="80" height="80.0008" fill="white"/>
</clipPath>
</defs>
</svg>
