<svg width="53" height="80" viewBox="0 0 53 80" fill="none" xmlns="http://www.w3.org/2000/svg">
<g clip-path="url(#clip0_1801_11567)">
<path d="M4.76388 79.9983H47.692C51.1714 79.9983 52.4556 78.7143 52.4556 75.2332V33.2283C52.4556 32.8344 52.4397 32.4684 52.4049 32.1295C52.3983 32.0666 52.3922 32.0039 52.3861 31.9413L52.386 31.9403C52.3184 31.2466 52.2518 30.5634 51.6041 29.795C51.535 29.7129 50.8135 29.176 50.8135 29.176C50.7439 29.1418 50.6782 29.1093 50.6148 29.0779C50.3248 28.9342 50.0819 28.8139 49.7228 28.6693L28.5844 19.813C27.487 19.31 27.0281 19.114 26.2311 19.1298L26.228 19.1296H26.2249C25.4278 19.1138 24.9689 19.31 23.8715 19.813L2.73322 28.6693C2.3744 28.8137 2.13173 28.9339 1.84212 29.0774C1.7786 29.1088 1.71211 29.1418 1.64234 29.176C1.64234 29.176 0.920859 29.7129 0.851907 29.795C0.204138 30.5634 0.137609 31.2461 0.0700068 31.9399C0.0638596 32.003 0.0577018 32.0661 0.0510989 32.1295C0.0162999 32.4684 0.000305176 32.8344 0.000305176 33.2283V75.2332C0.000305176 78.7143 1.28452 79.9983 4.76388 79.9983Z" fill="#666666"/>
<path fill-rule="evenodd" clip-rule="evenodd" d="M47.6917 0H4.76358C1.28411 0 0 1.28411 0 4.76521V46.77C0 47.164 0.0158859 47.5299 0.0506849 47.8689C0.129902 48.6288 0.144815 49.3651 0.851493 50.2034C0.920551 50.2855 1.64204 50.8224 1.64204 50.8224C2.03013 51.0127 2.29512 51.1529 2.73281 51.3291L23.8712 60.1853C24.9685 60.6883 25.4274 60.8844 26.2244 60.8686C26.2255 60.8686 26.2265 60.8688 26.2276 60.8688C26.2287 60.8688 26.2296 60.8688 26.2307 60.8688C27.0278 60.8846 27.4866 60.6883 28.5841 60.1853L49.7223 51.3291C50.1602 51.1529 50.425 51.0127 50.8132 50.8224C50.8132 50.8224 51.5347 50.2855 51.6036 50.2034C52.3104 49.3651 52.3253 48.6288 52.4045 47.8689C52.4392 47.5299 52.4553 47.164 52.4553 46.77V4.76521C52.4553 1.28411 51.1711 0 47.6917 0Z" fill="white"/>
<path d="M44.8164 42.2303L44.8066 42.3272L44.797 42.4338L44.7775 42.5307L44.7486 42.6275L44.7298 42.7147L44.7006 42.8116L44.662 42.8988L44.6231 42.9765L44.585 43.0635L44.4882 43.2187L44.4306 43.2962L44.382 43.3737L44.3245 43.4414L44.2567 43.5093L44.1991 43.5674L44.1217 43.6353L44.0544 43.6934L43.9769 43.7515L43.8999 43.7993L43.823 43.8575L43.7358 43.9058L43.6491 43.9447L43.5626 43.9931L43.4656 44.0319L43.3693 44.0707L43.273 44.0996L43.1767 44.1288L43.0895 44.1578L42.9932 44.1772L42.8199 44.216L42.723 44.2354L42.6266 44.245L42.5401 44.2547L42.4431 44.2644L42.3372 44.2742L42.2408 44.2838H41.8356L41.7393 44.2742H41.6333L41.4401 44.2547L41.3341 44.245L41.2378 44.2257L41.1415 44.216L41.0445 44.1966L40.8519 44.1578L40.7556 44.1385L40.6587 44.1095L40.5721 44.09L40.3794 44.0319L40.2923 43.9931L40.196 43.964L40.1093 43.935L40.0129 43.8963L39.9258 43.8575L39.8391 43.8186L39.7525 43.7709L39.6653 43.7321L39.5787 43.6836L39.5018 43.6353L39.4146 43.5867L39.3375 43.5384L39.2601 43.4899L39.1062 43.3737L39.0287 43.3155L38.9517 43.2573L38.8839 43.1992L38.807 43.1315L38.8651 43.054L38.9323 42.9861L38.9905 42.9085L39.0578 42.831L39.1159 42.7632L39.1734 42.6857L39.2413 42.6082L39.2988 42.5404L39.3666 42.4629L39.4243 42.395L39.492 42.3175L39.5496 42.24L39.6078 42.1722L39.675 42.0947L39.7331 42.0171L39.8004 41.9494L39.8585 41.8719L39.9354 41.93L40.0221 41.9881L40.0996 42.0463L40.1863 42.1044L40.2637 42.1528L40.3504 42.2109L40.4272 42.2594L40.5146 42.2981L40.5914 42.3466L40.6781 42.3854L40.7653 42.4241L40.8519 42.4629L40.9387 42.492L41.0257 42.5307L41.2185 42.5888L41.305 42.6179L41.5946 42.676L41.7006 42.6857L41.7974 42.7051H41.8938L41.9997 42.7147H42.2117L42.3177 42.7051L42.4147 42.6857L42.5012 42.6663L42.588 42.6469L42.6655 42.6179L42.7327 42.5792L42.8102 42.521L42.8678 42.4532L42.9065 42.3756L42.9357 42.2885L42.9452 42.1916V42.1722L42.9357 42.0559L42.8969 41.9589L42.8484 41.8912L42.7812 41.8331L42.7035 41.7749L42.6266 41.7362L42.5401 41.6975L42.4431 41.6586L42.3275 41.6103L42.2602 41.5909L42.1833 41.5715L42.0961 41.5423L42.0094 41.523L41.9131 41.4939L41.8162 41.4746L41.7103 41.4455L41.6139 41.4262L41.5078 41.3971L41.4115 41.3778L41.3146 41.3487L41.2185 41.3292L41.122 41.3001L41.0348 41.2712L40.9387 41.2517L40.7653 41.1936L40.6781 41.1645L40.5721 41.1257L40.3794 41.0482L40.2826 41.0095L40.196 40.961L40.0996 40.9126L40.0221 40.8642L39.9354 40.8158L39.8585 40.7576L39.781 40.7093L39.7138 40.651L39.646 40.5832L39.5787 40.5154L39.5206 40.4474L39.463 40.3797L39.4146 40.3119L39.3666 40.2344L39.3183 40.1472L39.2794 40.08L39.2503 40.0025L39.222 39.9153L39.1929 39.8378L39.1734 39.7408L39.154 39.6536L39.1443 39.5568L39.1348 39.4598L39.125 39.3534V39.1304L39.1348 39.0336L39.1443 38.9463L39.154 38.8494L39.1929 38.6751L39.222 38.5878L39.2413 38.5007L39.2794 38.4135L39.3183 38.3263L39.3569 38.2391L39.4049 38.1518L39.4532 38.0647L39.5108 37.9871L39.569 37.9097L39.6363 37.8322L39.7041 37.7644L39.7713 37.6868L39.8488 37.6189L39.9161 37.5705L39.9936 37.5123L40.0706 37.4542L40.1474 37.4058L40.2346 37.3574L40.3214 37.3186L40.4079 37.2701L40.4952 37.2315L40.5914 37.2023L40.6877 37.1636L40.775 37.1345L40.8519 37.1151L40.9387 37.0957L41.0257 37.0764L41.122 37.0571L41.2088 37.0376L41.4983 37.0085L41.5946 36.9989H42.0094L42.1154 37.0085L42.2214 37.0182H42.3177L42.4243 37.028L42.5206 37.0473L42.6266 37.0571L42.723 37.0764L42.8102 37.0957L43.0028 37.1345L43.0895 37.1539L43.1863 37.1829L43.273 37.212L43.3597 37.2315L43.4565 37.2701L43.5432 37.2992L43.6297 37.3379L43.7164 37.3767L43.8133 37.4156L43.8999 37.4639L43.9769 37.5028L44.0641 37.5512L44.1508 37.5995L44.2277 37.6481L44.3148 37.7062L44.3919 37.7545L44.4694 37.8128L44.6231 37.929L44.5657 38.0066L44.5172 38.0841L44.4597 38.1616L44.4015 38.2391L44.344 38.3263L44.2954 38.4038L44.2373 38.4813L44.1797 38.5588L44.1314 38.6363L44.0737 38.7139L44.0156 38.7914L43.9672 38.8689L43.9096 38.9561L43.8514 39.0336L43.7939 39.111L43.7455 39.1885L43.6879 39.266L43.6104 39.208L43.5238 39.1595L43.4468 39.111L43.3693 39.0529L43.2828 39.0143L43.2051 38.9657L43.1185 38.9269L43.0416 38.8882L42.9544 38.8494L42.8775 38.8107L42.7909 38.7816L42.7134 38.7429L42.6073 38.7139L42.511 38.6847L42.4147 38.6558L42.1251 38.5975L42.0289 38.5878L41.9319 38.5782L41.8454 38.5685H41.6333L41.5273 38.5878L41.4304 38.6072L41.3438 38.6266L41.2669 38.6654L41.199 38.7041L41.1123 38.7816L41.0542 38.8689L41.0162 38.9561L41.0063 39.0529V39.0724L41.0162 39.1982L41.0639 39.3048L41.1027 39.363L41.1699 39.4309L41.2571 39.4793L41.3341 39.5277L41.4304 39.5665L41.5369 39.6053L41.6527 39.644L41.7296 39.6633L41.8066 39.6924L41.8938 39.7117L41.9804 39.7408L42.0767 39.7603L42.1833 39.7893L42.2894 39.8183L42.3954 39.8475L42.5012 39.8668L42.5975 39.8959L42.7035 39.925L42.8005 39.9443L42.9932 40.0025L43.0798 40.0315L43.1767 40.0606L43.3499 40.1187L43.4565 40.1569L43.5528 40.2054L43.6491 40.2441L43.7455 40.2925L43.8327 40.341L43.9193 40.3894L43.9962 40.4379L44.0737 40.496L44.1508 40.5444L44.2277 40.6123L44.3052 40.6801L44.3724 40.7576L44.4402 40.8254L44.4978 40.903L44.5559 40.9901L44.6038 41.0676L44.6523 41.1549L44.691 41.2324L44.7201 41.3195L44.7486 41.4067L44.768 41.4939L44.8066 41.6878L44.8164 41.7847L44.8261 41.8912V42.1238L44.8164 42.2303ZM32.5247 44.1677V37.1151H38.0997V38.7139H34.3666V39.8668H37.7235V41.3681H34.3666V42.5694H38.1482V44.1677H32.5247ZM29.2388 44.1677V39.9973L29.1905 40.0748L29.1329 40.1626L29.0844 40.2401L29.0269 40.3177L28.9785 40.4048L28.9202 40.4824L28.8725 40.5599L28.8239 40.6477L28.7664 40.7251L28.7179 40.8026L28.6599 40.8802L28.612 40.968L28.5538 41.0455L28.506 41.123L28.4575 41.2102L28.3994 41.2881L28.3514 41.3658L28.2933 41.4528L28.2455 41.5305L28.1874 41.608L28.1395 41.6957L28.091 41.7733L28.033 41.8508L27.9851 41.938L27.927 42.016L27.8791 42.0935L27.821 42.1711L27.7724 42.2582L27.7245 42.3362L27.6665 42.4138L27.6186 42.501L27.5604 42.5785L27.5121 42.656L27.4544 42.7439L27.406 42.8214H27.3678L27.3097 42.7341L27.2612 42.656L27.2036 42.5688L27.1552 42.4913L27.0976 42.4042L27.0492 42.3261L26.9917 42.2389L26.9431 42.1613L26.885 42.0742L26.8371 41.9967L26.779 41.9088L26.7313 41.8314L26.6731 41.7441L26.6246 41.6667L26.5671 41.5789L26.5186 41.5014L26.461 41.4142L26.4029 41.3367L26.3545 41.2489L26.2969 41.1714L26.2485 41.0842L26.1909 41.0067L26.1425 40.9189L26.0849 40.8414L26.0365 40.7542L25.9783 40.6767L25.9305 40.5895L25.8723 40.5113L25.8244 40.4243L25.7662 40.3466L25.7179 40.2594L25.6604 40.1821L25.6118 40.0942L25.5542 40.0167V44.1677H23.7213V37.1151H25.699L25.747 37.1927L25.7953 37.2798L25.8528 37.3567L25.9014 37.4439L25.9497 37.5214L25.9977 37.6088L26.046 37.6856L26.1037 37.7729L26.1521 37.8504L26.2006 37.9279L26.2485 38.0145L26.2969 38.092L26.3545 38.1792L26.4029 38.2567L26.4513 38.3433L26.4992 38.4208L26.5573 38.4983L26.6059 38.5851L26.6536 38.6625L26.7021 38.7497L26.7501 38.8273L26.8082 38.9138L26.8566 38.9914L26.9044 39.0785L26.9529 39.1555L27.0008 39.2329L27.0589 39.3202L27.1074 39.3978L27.1552 39.485L27.2036 39.5619L27.2515 39.6492L27.3097 39.7266L27.3581 39.8132L27.406 39.8908L27.4544 39.8132L27.5029 39.7266L27.5604 39.6492L27.6088 39.5619L27.6567 39.485L27.7052 39.3978L27.7628 39.3202L27.8112 39.2329L27.8597 39.1555L27.9075 39.0785L27.9656 38.9914L28.0135 38.9138L28.062 38.8273L28.1103 38.7497L28.1679 38.6625L28.2163 38.5851L28.2649 38.4983L28.3126 38.4208L28.3613 38.3433L28.4188 38.2567L28.4672 38.1792L28.5156 38.092L28.5636 38.0145L28.6216 37.9279L28.6696 37.8504L28.7179 37.7729L28.7664 37.6856L28.8239 37.6088L28.8725 37.5214L28.9202 37.4439L28.9688 37.3567L29.0269 37.2798L29.0748 37.1927L29.1232 37.1151H31.1002V44.1677H29.2388ZM19.8122 41.2615L19.7831 41.1737L19.7449 41.0768L19.7062 40.9895L19.6771 40.9018L19.6389 40.8146L19.6002 40.7177L19.5711 40.6299L19.5322 40.5427L19.4942 40.4556L19.465 40.3679L19.4262 40.2709L19.3979 40.1837L19.359 40.0959L19.3202 40.0087L19.2913 39.9215L19.253 39.8241L19.2143 39.7368L19.1852 39.6497L19.1464 39.5619L19.1083 39.465L19.0792 39.3772L19.0404 39.29L19.0023 39.3772L18.9733 39.465L18.9345 39.5619L18.8957 39.6497L18.8672 39.7368L18.8285 39.8241L18.7897 39.9215L18.7515 40.0087L18.7224 40.0959L18.6837 40.1837L18.6449 40.2709L18.6163 40.3679L18.5777 40.4556L18.5388 40.5427L18.5099 40.6299L18.4717 40.7177L18.4328 40.8146L18.3942 40.9018L18.3657 40.9895L18.327 41.0768L18.2881 41.1737L18.259 41.2615L18.221 41.3487H19.8509L19.8122 41.2615ZM20.9504 44.1677L20.9121 44.0803L20.8831 43.9931L20.8443 43.9058L20.8056 43.8091L20.7771 43.7223L20.6996 43.5481L20.671 43.4609L20.5936 43.2864L20.5645 43.1992L20.5263 43.1024L20.4875 43.0151L20.4584 42.9279L20.4196 42.8407H17.6515L17.6134 42.9279L17.5843 43.0151L17.5455 43.1024L17.5068 43.1992L17.4783 43.2864L17.4396 43.3737L17.4008 43.4609L17.3717 43.5481L17.3336 43.6353L17.2948 43.7223L17.2657 43.8091L17.2274 43.9058L17.1887 43.9931L17.1596 44.0803L17.1209 44.1677H15.1728L15.211 44.0803L15.2498 43.9931L15.2885 43.9058L15.3268 43.8091L15.3559 43.7223L15.4334 43.5481L15.4714 43.4609L15.5103 43.3737L15.5491 43.2767L15.5872 43.1895L15.626 43.1024L15.655 43.0151L15.6938 42.9279L15.732 42.8407L15.7707 42.7439L15.8094 42.6567L15.8477 42.5694L15.9252 42.395L15.9542 42.3078L15.9924 42.2109L16.0312 42.1238L16.07 42.0366L16.1081 41.9494L16.1857 41.7749L16.2239 41.678L16.253 41.5909L16.3305 41.4164L16.3687 41.3292L16.4074 41.242L16.446 41.1452L16.4843 41.0579L16.523 40.9707L16.5521 40.8835L16.5909 40.7965L16.6291 40.7093L16.6678 40.6123L16.7066 40.5251L16.7448 40.4379L16.7835 40.3507L16.8223 40.2635L16.8513 40.1762L16.8896 40.0897L16.9283 39.9927L16.967 39.9056L17.0052 39.8183L17.0439 39.7311L17.0827 39.644L17.1209 39.5568L17.1499 39.4598L17.1887 39.3727L17.2274 39.2855L17.2657 39.1982L17.3045 39.111L17.3431 39.0238L17.3814 38.9269L17.4201 38.8398L17.4492 38.7526L17.4879 38.6654L17.5262 38.5782L17.5648 38.491L17.6036 38.3941L17.6417 38.3069L17.7194 38.1325L17.7478 38.0453L17.7866 37.958L17.8254 37.8612L17.8642 37.774L17.9023 37.6868L17.9412 37.5995L17.9798 37.5123L18.018 37.4253L18.0472 37.3283L18.0858 37.2411L18.1247 37.1539L18.1628 37.0667H19.9472L20.0247 37.2411L20.063 37.3283L20.1017 37.4253L20.1307 37.5123L20.1689 37.5995L20.2077 37.6868L20.2464 37.774L20.2852 37.8612L20.3233 37.958L20.401 38.1325L20.4293 38.2197L20.507 38.3941L20.5457 38.491L20.5839 38.5782L20.6226 38.6654L20.6614 38.7526L20.6996 38.8398L20.7286 38.9269L20.7673 39.0238L20.8056 39.111L20.9218 39.3727L20.96 39.4598L20.9987 39.5568L21.0278 39.644L21.066 39.7311L21.1047 39.8183L21.1823 39.9927L21.2204 40.0897L21.2593 40.1762L21.2979 40.2635L21.3264 40.3507L21.4039 40.5251L21.4422 40.6123L21.4809 40.7093L21.5197 40.7965L21.5585 40.8835L21.5967 40.9707L21.6257 41.0579L21.6644 41.1452L21.7027 41.242L21.7414 41.3292L21.7802 41.4164L21.8188 41.5037L21.8571 41.5909L21.8959 41.678L21.9249 41.7749L21.9631 41.8622L22.0018 41.9494L22.0406 42.0366L22.0788 42.1238L22.1175 42.2109L22.1564 42.3078L22.1952 42.395L22.2235 42.4822L22.3012 42.6567L22.3393 42.7439L22.378 42.8407L22.4555 43.0151L22.4936 43.1024L22.5228 43.1895L22.5616 43.2767L22.5998 43.3737L22.6771 43.5481L22.7154 43.6353L22.7541 43.7223L22.7929 43.8091L22.822 43.9058L22.8601 43.9931L22.9376 44.1677H20.9504ZM14.391 43.267L14.3135 43.3251L14.2462 43.3737L14.1687 43.4318L14.0918 43.4802L14.0148 43.5384L13.9373 43.5867L13.8603 43.6353L13.7731 43.6836L13.5998 43.7805L13.5127 43.8186L13.426 43.8672L13.3297 43.9058L13.2431 43.9447L13.1462 43.9833L13.0596 44.0222L12.9729 44.0513L12.8858 44.0803L12.7991 44.1095L12.7028 44.1385L12.6163 44.1677L12.5193 44.1869L12.4326 44.2063L12.3363 44.2257L12.2395 44.245L12.1431 44.2547L12.037 44.2644L11.9408 44.2742L11.8347 44.2838L11.7378 44.2935L11.6319 44.3032H11.2169L11.1206 44.2935L11.0146 44.2838L10.7251 44.2547L10.6288 44.2354L10.5324 44.216L10.4458 44.1966L10.349 44.1772L10.2623 44.1482L10.166 44.1288L10.0788 44.0996L9.99214 44.061L9.90549 44.0319L9.80928 43.9931L9.72207 43.9544L9.63542 43.9157L9.54886 43.8769L9.46148 43.8285L9.38464 43.7805L9.29799 43.7321L9.22051 43.6836L9.14359 43.6353L9.0661 43.577L8.9121 43.4609L8.84434 43.4027L8.77706 43.3446L8.70922 43.2767L8.64203 43.2187L8.5741 43.1508L8.50691 43.0829L8.4488 43.0151L8.39117 42.9377L8.33305 42.8698L8.28458 42.7923L8.22703 42.7147L8.17872 42.6374L8.13074 42.5597L8.08229 42.4725L8.03388 42.395L7.99573 42.3078L7.95693 42.2206L7.91824 42.1334L7.87998 42.0463L7.85091 41.9688L7.81212 41.8815L7.79277 41.7942L7.76424 41.7072L7.74489 41.6103L7.71583 41.523L7.69648 41.4262L7.68675 41.339L7.6673 41.242L7.65778 41.1549L7.64795 41.0579L7.63887 40.961L7.62926 40.8642V40.5444L7.63887 40.4379V40.341L7.64795 40.2441L7.65778 40.1375L7.67713 40.0412L7.68675 39.9443L7.7061 39.8571L7.73517 39.7603L7.75462 39.6633L7.78304 39.5761L7.81212 39.4793L7.84118 39.3921L7.87998 39.2951L7.91824 39.208L7.95693 39.1208L7.99573 39.0336L8.03388 38.9463L8.08229 38.8591L8.13074 38.7816L8.17872 38.7041L8.22703 38.6266L8.2755 38.5491L8.33305 38.4716L8.39117 38.3941L8.4488 38.3166L8.50691 38.2486L8.5741 38.1809L8.6323 38.113L8.69958 38.0453L8.76734 37.9774L8.83461 37.9194L8.9121 37.8515L8.97937 37.7933L9.05637 37.7352L9.13386 37.6868L9.21078 37.6286L9.28835 37.5803L9.36519 37.5318L9.45192 37.4833L9.53913 37.4348L9.6257 37.3865L9.71234 37.3476L9.79947 37.309L9.89585 37.2604L9.97277 37.2315L10.0691 37.2023L10.1564 37.1636L10.243 37.1442L10.3296 37.1151L10.4263 37.0957L10.5131 37.0667L10.6094 37.0473L10.7057 37.0376L10.8026 37.0182L10.899 37.0085L10.9952 36.9989L11.1885 36.9795H11.6028L11.8154 36.9989H11.9117L12.008 37.0085L12.114 37.028L12.2013 37.0376L12.2975 37.0571L12.3939 37.0764L12.4811 37.0957L12.6543 37.1345L12.7416 37.1636L12.8281 37.1829L12.9051 37.212L12.9923 37.2411L13.079 37.2798L13.1656 37.3186L13.2528 37.3574L13.3394 37.4058L13.426 37.4446L13.5036 37.493L13.5902 37.5414L13.6671 37.5898L13.7543 37.6384L13.8312 37.6964L13.9082 37.745L13.9857 37.8031L14.0627 37.8612L14.1401 37.929L14.2171 37.9871L14.1589 38.0647L14.0918 38.1325L14.0336 38.21L13.9664 38.2875L13.9082 38.365L13.8506 38.4328L13.7828 38.5103L13.7252 38.5878L13.6671 38.6558L13.5998 38.7332L13.5417 38.8107L13.4744 38.8882L13.4163 38.9561L13.3588 39.0336L13.291 39.111L13.2333 39.1885L13.1656 39.2564L13.1079 39.3339L13.0304 39.2757L12.9535 39.208L12.876 39.1595L12.7991 39.1013L12.7221 39.0529L12.5676 38.9561L12.4811 38.9076L12.4036 38.8689L12.3266 38.8301L12.2491 38.801L12.0759 38.7429L11.9887 38.7235L11.7961 38.6847L11.6997 38.6751L11.5937 38.6654L11.4871 38.6558H11.2848L11.1885 38.6654L11.1013 38.6751L11.005 38.6944L10.9183 38.7139L10.8311 38.7429L10.7446 38.7719L10.6578 38.8107L10.5712 38.8494L10.4937 38.8979L10.4169 38.9463L10.3393 38.9949L10.272 39.0529L10.2042 39.111L10.137 39.1692L10.0788 39.237L10.0116 39.3048L9.95348 39.3823L9.90549 39.4502L9.85702 39.5277L9.80928 39.6149L9.76073 39.6924L9.72207 39.7796L9.69297 39.8668L9.65471 39.954L9.6257 40.0509L9.60632 40.1472L9.58695 40.2344L9.5675 40.341L9.55793 40.4379L9.54886 40.5347V40.7576L9.55793 40.8545L9.5675 40.9417L9.57722 41.0387L9.63542 41.3001L9.66444 41.3873L9.69297 41.4648L9.73179 41.5617L9.77046 41.649L9.81836 41.7362L9.91522 41.8912L9.97277 41.9688L10.031 42.0366L10.0982 42.1044L10.1564 42.1722L10.2235 42.2303L10.3011 42.2885L10.378 42.3466L10.4549 42.395L10.5324 42.4435L10.6192 42.4822L10.7057 42.521L10.7929 42.5597L10.9855 42.6179L11.1788 42.6567L11.2751 42.6663L11.3811 42.676H11.6028L11.8154 42.6567L11.9117 42.6469L12.008 42.6275L12.105 42.6082L12.2013 42.5792L12.2878 42.5597L12.3745 42.521L12.452 42.4822L12.5386 42.4435L12.6064 42.4047L12.6834 42.3563V41.4746H11.2751V40.0606H14.4582V43.209L14.391 43.267Z" fill="#343434"/>
<path d="M11.2887 21.158H15.4693V17.9243H11.2887V11.3227H15.6357V8.08897H7.73866V31.4271H15.7018V28.1933H11.2887V21.158Z" fill="#343434"/>
<path d="M41.2326 21.8586V27.1264C41.2326 28.0601 40.8011 28.4932 39.9057 28.4932H39.2417C38.3128 28.4932 37.8813 28.0601 37.8813 27.1264V12.3896C37.8813 11.4561 38.3128 11.0229 39.2417 11.0229H39.8391C40.735 11.0229 41.1665 11.4561 41.1665 12.3896V16.9577H44.6499V12.1895C44.6499 9.2892 43.2564 7.88884 40.3703 7.88884H38.6445C35.7583 7.88884 34.3312 9.32227 34.3312 12.2232V27.2928C34.3312 30.1938 35.7583 31.6272 38.6445 31.6272H40.4033C43.2901 31.6272 44.7166 30.1938 44.7166 27.2928V21.8586H41.2326Z" fill="#343434"/>
<path d="M28.9044 31.4271H32.455V8.0889H28.9044V31.4271Z" fill="#343434"/>
<path d="M23.7527 18.4577C23.7527 19.3913 23.3218 19.825 22.4259 19.825H20.9658V11.223H22.4259C23.3218 11.223 23.7527 11.6562 23.7527 12.5896V18.4577ZM22.9897 8.0889H17.4156V31.4271H20.9658V22.9585H22.9897C25.8763 22.9585 27.3029 21.5251 27.3029 18.6248V12.4232C27.3029 9.52238 25.8763 8.0889 22.9897 8.0889Z" fill="#343434"/>
<path fill-rule="evenodd" clip-rule="evenodd" d="M16.1139 52.5296H36.4372L26.0638 55.9505L16.1139 52.5296Z" fill="#343434"/>
<path d="M15.7724 64.7215L21.9208 64.722V66.5319H19.8389V72.7983H17.8468V66.5319H15.7724V64.7215Z" fill="white"/>
<path d="M13.0989 67.4365H14.9113C14.9113 66.7185 14.9931 65.9325 13.6 65.0979C12.5167 64.449 10.9248 64.7695 10.3131 65.1129C9.26466 65.7014 8.99459 66.4992 9.01753 67.3573C9.0557 68.7839 10.103 69.103 11.0829 69.468C11.7187 69.7049 12.4383 69.847 12.9042 70.2754C13.0828 70.4396 13.1572 70.7627 12.7694 70.9122C12.2178 71.1247 11.6263 71.1491 11.0118 70.7544C10.8014 70.6194 10.7325 70.4069 10.7325 70.1781L8.81368 70.1534C8.81368 70.8181 8.93396 71.3648 9.35455 71.841C9.96034 72.527 10.7904 72.7298 11.691 72.7923C12.8197 72.8706 13.4815 72.6731 14.0275 72.3204C14.5831 71.9615 14.9342 71.4151 15.0385 70.6724C15.1018 70.2219 15.1513 69.7803 14.6341 69.1368C14.1701 68.6888 13.3773 68.2455 12.3725 67.9384C11.8913 67.7564 11.1805 67.5602 11.0534 67.2502C10.9231 66.9834 11.1237 66.7168 11.2932 66.6186C11.5678 66.4646 11.9649 66.463 12.3119 66.5941C12.7152 66.7465 13.0989 67.0405 13.0989 67.4365Z" fill="white"/>
<path d="M22.7342 67.3245L22.7167 69.9836C22.7167 73.6756 29.1122 73.7777 29.1122 69.9836V67.3245C29.1122 63.7122 22.7342 63.9848 22.7342 67.3245ZM25.9193 66.389C26.5415 66.3995 27.1635 66.8035 27.1635 67.5693V69.8999C27.1635 71.4106 24.6747 71.3857 24.6747 69.8999V67.5693C24.6747 66.7613 25.297 66.3784 25.9193 66.389Z" fill="white"/>
<path d="M30.6751 64.7043V72.7733H32.637V69.8954H33.401L34.9654 72.7628H36.9656V72.045L35.5213 69.6238C37.5591 68.447 37.0625 64.7133 34.4806 64.7133L30.6751 64.7043ZM32.6415 66.4293L33.7537 66.4506C35.0207 66.4506 34.9508 68.1449 33.7537 68.153H32.6415V66.4293Z" fill="white"/>
<path d="M38.2986 64.6856L43.436 64.6804V66.3874H40.2457V67.8879H42.9717V69.5807H40.2158V71.0788H43.5409V72.7519H38.2986V64.6856Z" fill="white"/>
</g>
<defs>
<clipPath id="clip0_1801_11567">
<rect width="52.4556" height="79.9983" fill="white"/>
</clipPath>
</defs>
</svg>
