<svg width="69" height="80" viewBox="0 0 69 80" fill="none" xmlns="http://www.w3.org/2000/svg">
<g clip-path="url(#clip0_1801_11561)">
<path fill-rule="evenodd" clip-rule="evenodd" d="M62.6806 0H6.26072C1.68769 0 0 1.68769 0 6.26285V61.4693C0 61.987 0.0208786 62.468 0.0666146 62.9135C0.170728 63.9122 0.19033 64.8799 1.11911 65.9817C1.20987 66.0896 2.15811 66.7953 2.15811 66.7953C2.66817 67.0454 3.01644 67.2296 3.59169 67.4611L31.3736 79.1008C32.8158 79.762 33.4189 80.0196 34.4665 79.9989C34.4679 79.9989 34.4692 79.999 34.4706 79.999C34.472 79.999 34.4733 79.999 34.4747 79.999C35.5222 80.0198 36.1253 79.762 37.5677 79.1008L65.3495 67.4611C65.9249 67.2296 66.273 67.0454 66.7832 66.7953C66.7832 66.7953 67.7314 66.0896 67.822 65.9817C68.7508 64.8799 68.7704 63.9122 68.8745 62.9135C68.9203 62.468 68.9413 61.987 68.9413 61.4693V6.26285C68.9413 1.68769 67.2535 0 62.6806 0Z" fill="#2F2D2E"/>
<path d="M58.9023 55.5029L58.8896 55.6303L58.8769 55.7702L58.8514 55.8976L58.8133 56.0248L58.7886 56.1395L58.7502 56.2669L58.6994 56.3815L58.6484 56.4835L58.5982 56.598L58.471 56.8018L58.3953 56.9036L58.3315 57.0055L58.2559 57.0945L58.1667 57.1837L58.091 57.2601L57.9893 57.3493L57.9008 57.4258L57.799 57.5022L57.6979 57.565L57.5967 57.6414L57.4821 57.705L57.3682 57.756L57.2544 57.8196L57.127 57.8706L57.0005 57.9216L56.8739 57.9597L56.7474 57.998L56.6327 58.0361L56.5062 58.0617L56.2785 58.1125L56.1511 58.1381L56.0244 58.1507L55.9106 58.1635L55.7832 58.1763L55.644 58.1891L55.5173 58.2017H54.9848L54.8581 58.1891H54.7189L54.465 58.1635L54.3256 58.1507L54.1991 58.1253L54.0725 58.1125L53.9451 58.0871L53.8184 58.0617L53.6919 58.0361L53.5653 58.0107L53.438 57.9726L53.3241 57.947L53.0709 57.8706L52.9564 57.8196L52.8298 57.7814L52.7159 57.7434L52.5892 57.6924L52.4747 57.6414L52.3608 57.5904L52.2469 57.5276L52.1324 57.4766L52.0185 57.4128L51.9174 57.3493L51.8028 57.2856L51.7016 57.2219L51.5998 57.1583L51.3975 57.0055L51.2957 56.9291L51.1944 56.8526L51.1054 56.7762L51.0042 56.6872L51.0806 56.5853L51.169 56.4961L51.2454 56.3941L51.3339 56.2923L51.4103 56.2032L51.4859 56.1014L51.5751 55.9994L51.6506 55.9104L51.7398 55.8085L51.8155 55.7193L51.9046 55.6175L51.9803 55.5155L52.0567 55.4264L52.1451 55.3246L52.2215 55.2226L52.3098 55.1336L52.3862 55.0317L52.4874 55.1081L52.6013 55.1846L52.7031 55.261L52.817 55.3374L52.9189 55.401L53.0328 55.4773L53.1338 55.5411L53.2486 55.5919L53.3495 55.6557L53.4635 55.7067L53.5781 55.7575L53.6919 55.8085L53.8059 55.8467L53.9204 55.8976L54.1736 55.974L54.2874 56.0122L54.6679 56.0886L54.8073 56.1014L54.9345 56.1268H55.0612L55.2004 56.1395H55.4791L55.6184 56.1268L55.7459 56.1014L55.8596 56.0758L55.9735 56.0504L56.0754 56.0122L56.1639 55.9614L56.2657 55.8849L56.3413 55.7957L56.3923 55.6938L56.4306 55.5793L56.4431 55.4519V55.4264L56.4306 55.2736L56.3796 55.1462L56.3158 55.0571L56.2275 54.9807L56.1255 54.9043L56.0244 54.8535L55.9106 54.8025L55.7832 54.7515L55.6312 54.688L55.5427 54.6624L55.4417 54.637L55.3271 54.5986L55.2132 54.5732L55.0867 54.535L54.9593 54.5096L54.8201 54.4714L54.6934 54.446L54.554 54.4078L54.4275 54.3823L54.3001 54.3441L54.1736 54.3186L54.0469 54.2803L53.9323 54.2423L53.8059 54.2167L53.5781 54.1403L53.4635 54.1021L53.3241 54.0511L53.1976 54.0001L52.9436 53.8983L52.8298 53.8346L52.7031 53.771L52.6013 53.7074L52.4874 53.6437L52.3862 53.5673L52.2844 53.5037L52.1961 53.4271L52.107 53.3381L52.0185 53.2489L51.9421 53.1597L51.8665 53.0706L51.8028 52.9816L51.7398 52.8796L51.6762 52.7651L51.6252 52.6767L51.587 52.5748L51.5496 52.4601L51.5114 52.3583L51.4859 52.2309L51.4604 52.1163L51.4477 51.989L51.435 51.8616L51.4222 51.7217V51.4287L51.435 51.3014L51.4477 51.1868L51.4604 51.0594L51.5114 50.8303L51.5496 50.7155L51.5751 50.601L51.6252 50.4864L51.7271 50.2573L51.7901 50.1425L51.8536 50.028L51.9293 49.9261L52.0059 49.8242L52.0942 49.7224L52.1833 49.6333L52.2718 49.5313L52.3736 49.4421L52.462 49.3785L52.5638 49.3021L52.6651 49.2257L52.7661 49.162L52.8807 49.0984L52.9946 49.0474L53.1084 48.9838L53.223 48.9329L53.3495 48.8946L53.4761 48.8437L53.5907 48.8055L53.6919 48.78L53.9204 48.7291L54.0469 48.7037L54.1609 48.6781L54.5414 48.6399L54.6679 48.6273H55.2132L55.4919 48.6527H55.6184L55.7585 48.6655L55.885 48.6909L56.0244 48.7037L56.1511 48.7291L56.2657 48.7545L56.3923 48.78L56.5188 48.8055L56.6327 48.8309L56.76 48.8692L56.8739 48.9074L56.9878 48.9329L57.1151 48.9838L57.229 49.022L57.4567 49.1238L57.584 49.1748L57.6979 49.2384L57.799 49.2894L57.9136 49.3531L58.0275 49.4167L58.1287 49.4805L58.2432 49.5569L58.3444 49.6204L58.4463 49.6969L58.6484 49.8496L58.5728 49.9516L58.5092 50.0535L58.4335 50.1553L58.3571 50.2573L58.2815 50.3718L58.2177 50.4736L58.1413 50.5756L58.0656 50.6774L58.0021 50.7793L57.9263 50.8813L57.85 50.9831L57.7862 51.0849L57.7107 51.1996L57.6341 51.3014L57.5585 51.4032L57.4949 51.5051L57.4192 51.6069L57.3174 51.5306L57.2036 51.4669L57.1023 51.4032L57.0005 51.3268L56.8867 51.276L56.7847 51.2122L56.6709 51.1612L56.5698 51.1104L56.4552 51.0594L56.3541 51.0085L56.2403 50.9703L56.1384 50.9193L55.999 50.8813L55.8724 50.8429L55.7459 50.8048L55.4919 50.7538L55.3653 50.7283L55.2388 50.7155L55.1114 50.7029L54.9976 50.6901H54.7189L54.5796 50.7155L54.4522 50.7411L54.3384 50.7665L54.2373 50.8175L54.1481 50.8683L54.0342 50.9703L53.9577 51.0849L53.9077 51.1996L53.8948 51.3268V51.3524L53.9077 51.5179L53.9705 51.6579L54.0215 51.7343L54.1099 51.8235L54.2245 51.8872L54.3256 51.9508L54.4522 52.0018L54.5922 52.0528L54.7444 52.1036L54.8455 52.129L54.9466 52.1673L55.0612 52.1927L55.175 52.2309L55.3016 52.2565L55.5811 52.3327L55.7204 52.3711L55.8596 52.3965L55.9862 52.4347L56.1255 52.4729L56.2529 52.4983L56.5062 52.5748L56.6199 52.613L56.7474 52.6512L56.975 52.7276L57.1151 52.7777L57.2416 52.8415L57.3682 52.8924L57.4949 52.956L57.6095 53.0198L57.7234 53.0834L57.8244 53.147L57.9263 53.2234L58.0275 53.2871L58.1287 53.3763L58.2305 53.4653L58.3189 53.5673L58.4079 53.6564L58.4836 53.7584L58.56 53.8728L58.623 53.9747L58.6867 54.0894L58.7376 54.1913L58.7758 54.3058L58.8133 54.4204L58.8387 54.535L58.8896 54.7898L58.9023 54.9171L58.9151 55.0571V55.3628L58.9023 55.5029ZM42.7475 58.049V48.78H50.0747V50.8813H45.1683V52.3965H49.5803V54.3695H45.1683V55.9484H50.1384V58.049H42.7475ZM38.429 58.049V52.5679L38.3655 52.6698L38.2898 52.7853L38.226 52.8871L38.1504 52.9891L38.0868 53.1036L38.0102 53.2055L37.9475 53.3074L37.8837 53.4227L37.8081 53.5246L37.7443 53.6264L37.6681 53.7284L37.6051 53.8437L37.5287 53.9456L37.4658 54.0474L37.402 54.162L37.3256 54.2646L37.2627 54.3666L37.1863 54.481L37.1235 54.583L37.0471 54.6849L36.9842 54.8002L36.9204 54.9022L36.8441 55.004L36.7812 55.1186L36.7048 55.2212L36.6418 55.323L36.5654 55.425L36.5017 55.5395L36.4387 55.6421L36.3625 55.744L36.2995 55.8587L36.2231 55.9605L36.1595 56.0623L36.0838 56.1778L36.0202 56.2797H35.9699L35.8936 56.165L35.8298 56.0623L35.7541 55.9477L35.6905 55.8459L35.6148 55.7314L35.5511 55.6287L35.4756 55.5141L35.4118 55.4121L35.3354 55.2976L35.2725 55.1958L35.1961 55.0803L35.1333 54.9785L35.0569 54.8638L34.9931 54.762L34.9175 54.6467L34.8537 54.5448L34.7782 54.4302L34.7018 54.3284L34.6381 54.213L34.5624 54.1112L34.4988 53.9966L34.4231 53.8947L34.3595 53.7792L34.2837 53.6774L34.2201 53.5628L34.1437 53.4609L34.0808 53.3463L34.0044 53.2436L33.9414 53.1291L33.865 53.0271L33.8014 52.9125L33.7258 52.8108L33.6619 52.6954L33.5863 52.5935V58.049H31.1774V48.78H33.7767L33.8396 48.8819L33.9032 48.9964L33.9788 49.0975L34.0426 49.2122L34.1062 49.314L34.1691 49.4288L34.2328 49.5298L34.3086 49.6445L34.3721 49.7464L34.4359 49.8482L34.4988 49.962L34.5624 50.064L34.6381 50.1785L34.7018 50.2804L34.7654 50.3942L34.8283 50.496L34.9047 50.5979L34.9685 50.7119L35.0313 50.8136L35.0949 50.9283L35.158 51.0303L35.2344 51.144L35.298 51.246L35.3608 51.3605L35.4246 51.4616L35.4875 51.5635L35.5639 51.6781L35.6276 51.7801L35.6905 51.8947L35.7541 51.9958L35.817 52.1104L35.8936 52.2123L35.9572 52.3261L36.0202 52.428L36.0838 52.3261L36.1474 52.2123L36.2231 52.1104L36.2866 51.9958L36.3497 51.8947L36.4133 51.7801L36.489 51.6781L36.5527 51.5635L36.6164 51.4616L36.6792 51.3605L36.7556 51.246L36.8185 51.144L36.8823 51.0303L36.9458 50.9283L37.0215 50.8136L37.0851 50.7119L37.1489 50.5979L37.2117 50.496L37.2756 50.3942L37.3512 50.2804L37.4148 50.1785L37.4785 50.064L37.5415 49.962L37.6178 49.8482L37.6809 49.7464L37.7443 49.6445L37.8081 49.5298L37.8837 49.4288L37.9475 49.314L38.0102 49.2122L38.074 49.0975L38.1504 48.9964L38.2134 48.8819L38.277 48.78H40.8754V58.049H38.429ZM26.0396 54.2295L26.0014 54.1142L25.9513 53.9868L25.9003 53.8721L25.8621 53.7568L25.8119 53.6422L25.7611 53.5148L25.7227 53.3994L25.6717 53.2848L25.6218 53.1703L25.5834 53.055L25.5324 52.9276L25.4951 52.813L25.4441 52.6976L25.3931 52.583L25.355 52.4684L25.3047 52.3404L25.2539 52.2256L25.2157 52.1112L25.1647 51.9958L25.1145 51.8684L25.0763 51.7531L25.0253 51.6385L24.9752 51.7531L24.9371 51.8684L24.8861 51.9958L24.8351 52.1112L24.7977 52.2256L24.7468 52.3404L24.6958 52.4684L24.6457 52.583L24.6073 52.6976L24.5565 52.813L24.5055 52.9276L24.468 53.055L24.4171 53.1703L24.3661 53.2848L24.3281 53.3994L24.2778 53.5148L24.2268 53.6422L24.176 53.7568L24.1386 53.8721L24.0876 53.9868L24.0366 54.1142L23.9984 54.2295L23.9483 54.3441H26.0905L26.0396 54.2295ZM27.5356 58.049L27.4853 57.9342L27.4471 57.8196L27.3962 57.705L27.3452 57.5777L27.3077 57.4638L27.2059 57.2347L27.1684 57.1201L27.1175 57.0055L27.0666 56.8908L27.0285 56.7762L26.9782 56.649L26.9272 56.5343L26.889 56.4197L26.838 56.3051H23.1999L23.1497 56.4197L23.1115 56.5343L23.0605 56.649L23.0097 56.7762L22.9722 56.8908L22.9213 57.0055L22.8704 57.1201L22.8321 57.2347L22.782 57.3493L22.731 57.4638L22.6928 57.5777L22.6425 57.705L22.5917 57.8196L22.5535 57.9342L22.5025 58.049H19.9423L19.9924 57.9342L20.0434 57.8196L20.0942 57.705L20.1445 57.5777L20.1827 57.4638L20.2337 57.3493L20.2846 57.2347L20.3347 57.1201L20.3857 57.0055L20.4367 56.8781L20.4868 56.7634L20.5378 56.649L20.5759 56.5343L20.6269 56.4197L20.677 56.3051L20.728 56.1778L20.7789 56.0632L20.8291 55.9484L20.8801 55.8339L20.931 55.7193L20.9692 55.6047L21.0193 55.4773L21.1213 55.2482L21.1714 55.1336L21.2734 54.9043L21.3236 54.7769L21.3618 54.6624L21.4128 54.5478L21.4636 54.4332L21.5139 54.3186L21.5647 54.2039L21.6156 54.0767L21.6659 53.962L21.7167 53.8474L21.7549 53.7328L21.8059 53.6183L21.8561 53.5037L21.9071 53.3763L21.958 53.2617L22.0082 53.147L22.059 53.0324L22.11 52.9179L22.1482 52.8032L22.1985 52.6894L22.2494 52.562L22.3002 52.4475L22.3505 52.3327L22.4013 52.2181L22.4523 52.1036L22.5025 51.989L22.5407 51.8616L22.5917 51.7471L22.6425 51.6325L22.6928 51.5179L22.7438 51.4032L22.7946 51.2886L22.8449 51.1612L22.8958 51.0467L22.934 50.9321L22.9848 50.8175L23.0351 50.7029L23.086 50.5882L23.137 50.461L23.1871 50.3463L23.2891 50.1171L23.3264 50.0026L23.3774 49.8878L23.4284 49.7606L23.4794 49.646L23.5295 49.5313L23.5805 49.4167L23.6314 49.3021L23.6815 49.1876L23.7199 49.0602L23.7707 48.9456L23.8217 48.8309L23.8719 48.7163H26.2172L26.268 48.8309L26.319 48.9456L26.3693 49.0602L26.4201 49.1876L26.4584 49.3021L26.5085 49.4167L26.5595 49.5313L26.6103 49.646L26.6613 49.7606L26.7115 49.8878L26.8134 50.1171L26.8508 50.2317L26.9528 50.461L27.0038 50.5882L27.0539 50.7029L27.1048 50.8175L27.1558 50.9321L27.2059 51.0467L27.2441 51.1612L27.295 51.2886L27.3452 51.4032L27.3962 51.5179L27.4471 51.6325L27.4981 51.7471L27.5482 51.8616L27.5991 51.989L27.6374 52.1036L27.6875 52.2181L27.8404 52.562L27.8905 52.6894L27.9415 52.8032L27.9924 52.9179L28.0299 53.0324L28.0807 53.147L28.1317 53.2617L28.182 53.3763L28.2328 53.5037L28.3348 53.7328L28.3849 53.8474L28.4232 53.962L28.474 54.0767L28.5243 54.2039L28.5751 54.3186L28.6261 54.4332L28.677 54.5478L28.7273 54.6624L28.7782 54.7769L28.8163 54.9043L28.8666 55.0189L28.9174 55.1336L28.9684 55.2482L29.0186 55.3628L29.0696 55.4773L29.1206 55.6047L29.1715 55.7193L29.2089 55.8339L29.3109 56.0632L29.361 56.1778L29.4119 56.3051L29.4629 56.4197L29.5137 56.5343L29.5639 56.649L29.6022 56.7634L29.6532 56.8781L29.7033 57.0055L29.805 57.2347L29.8553 57.3493L29.9062 57.4638L29.9572 57.5777L29.9955 57.705L30.0455 57.8196L30.0965 57.9342L30.1473 58.049H27.5356ZM18.9146 56.8653L18.8128 56.9417L18.7243 57.0055L18.6224 57.0819L18.5213 57.1455L18.4202 57.2219L18.3183 57.2856L18.2172 57.3493L18.1026 57.4128L17.8748 57.5402L17.7603 57.5904L17.6464 57.6542L17.5198 57.705L17.406 57.756L17.2786 57.8068L17.1649 57.8578L17.0508 57.896L16.9363 57.9342L16.8224 57.9726L16.6959 58.0107L16.5821 58.049L16.4547 58.0744L16.3408 58.0999L16.2142 58.1253L16.0869 58.1507L15.9602 58.1635L15.8209 58.1763L15.6943 58.1891L15.555 58.2017L15.4276 58.2145L15.2884 58.2271H14.743L14.6164 58.2145L14.4771 58.2017L14.3505 58.1891L14.0966 58.1635L13.8433 58.1125L13.7295 58.0871L13.6023 58.0617L13.4884 58.0234L13.3618 57.998L13.2472 57.9597L13.1333 57.9088L13.0194 57.8706L12.8929 57.8196L12.7783 57.7688L12.6644 57.7179L12.5506 57.6669L12.4359 57.6033L12.3349 57.5402L12.221 57.4766L12.1191 57.4128L12.018 57.3493L11.9162 57.2728L11.7138 57.1201L11.6247 57.0437L11.5363 56.9673L11.4472 56.8781L11.3588 56.8018L11.2696 56.7126L11.1813 56.6234L11.1048 56.5343L11.0291 56.4325L10.9527 56.3433L10.8891 56.2415L10.8134 56.1395L10.7499 56.0378L10.6868 55.9358L10.6232 55.8212L10.5596 55.7193L10.5094 55.6047L10.4584 55.4901L10.4076 55.3755L10.3573 55.261L10.3191 55.1591L10.2681 55.0444L10.2427 54.9297L10.2052 54.8153L10.1798 54.688L10.1415 54.5732L10.1161 54.446L10.1033 54.3313L10.0778 54.2039L10.0653 54.0894L10.0523 53.962L10.0404 53.8346L10.0278 53.7074V53.2871L10.0404 53.147V53.0198L10.0523 52.8924L10.0653 52.7523L10.0907 52.6258L10.1033 52.4983L10.1288 52.3837L10.167 52.2565L10.1925 52.129L10.2299 52.0144L10.2681 51.8872L10.3063 51.7725L10.3573 51.6451L10.4076 51.5306L10.4584 51.416L10.5094 51.3014L10.5596 51.1868L10.6232 51.0722L10.6868 50.9703L10.7499 50.8683L10.8134 50.7665L10.8772 50.6646L10.9527 50.5628L11.0291 50.461L11.1048 50.3591L11.1813 50.2698L11.2696 50.1807L11.346 50.0915L11.5236 49.9133L11.6119 49.837L11.7138 49.7478L11.8022 49.6714L11.9034 49.595L12.0052 49.5313L12.1063 49.4549L12.2083 49.3913L12.3093 49.3276L12.4232 49.2639L12.5379 49.2002L12.6516 49.1366L12.7655 49.0856L12.88 49.0348L13.0067 48.971L13.1079 48.9329L13.2344 48.8946L13.3492 48.8437L13.4629 48.8182L13.5767 48.78L13.704 48.7545L13.8179 48.7163L13.9444 48.6909L14.0711 48.6781L14.1984 48.6527L14.7056 48.6017H15.2501L15.5296 48.6273H15.6561L15.7827 48.6399L15.922 48.6655L16.0367 48.6781L16.1632 48.7037L16.2899 48.7291L16.4044 48.7545L16.6322 48.8055L16.7468 48.8437L16.8606 48.8692L16.9617 48.9074L17.0764 48.9456L17.1903 48.9964L17.3041 49.0474L17.4187 49.0984L17.5326 49.162L17.6464 49.213L17.7483 49.2767L17.8621 49.3403L17.9632 49.4039L18.0779 49.4677L18.179 49.544L18.2801 49.6077L18.382 49.6842L18.4831 49.7606L18.5849 49.8496L18.6861 49.9261L18.6097 50.028L18.5213 50.1171L18.4449 50.2189L18.3565 50.3208L18.2801 50.4228L18.2044 50.5118L18.1152 50.6137L18.0397 50.7155L17.9632 50.8048L17.8748 50.9067L17.7985 51.0085L17.71 51.1104L17.6336 51.1996L17.558 51.3014L17.469 51.4032L17.3931 51.5051L17.3041 51.5943L17.2283 51.6961L17.1265 51.6197L17.0254 51.5306L16.9235 51.4669L16.8224 51.3905L16.7213 51.3268L16.5182 51.1996L16.4044 51.1358L16.3025 51.0849L16.2014 51.0339L16.0996 50.9957L15.8719 50.9193L15.7573 50.8939L15.6307 50.8683L15.5042 50.8429L15.3775 50.8303L15.2381 50.8175L15.0981 50.8048H14.8322L14.7056 50.8175L14.591 50.8303L14.4644 50.8557L14.3505 50.8813L14.2359 50.9193L14.1221 50.9575L14.0082 51.0085L13.8943 51.0594L13.7925 51.123L13.6915 51.1868L13.5895 51.2505L13.5011 51.3268L13.412 51.4032L13.3236 51.4797L13.2472 51.5687L13.1588 51.6579L13.0824 51.7598L13.0194 51.849L12.9557 51.9508L12.8929 52.0654L12.8292 52.1673L12.7783 52.2819L12.7401 52.3965L12.6898 52.5111L12.6516 52.6384L12.6262 52.7651L12.6008 52.8796L12.5752 53.0198L12.5626 53.147L12.5506 53.2743V53.5673L12.5626 53.6946L12.5752 53.8092L12.588 53.9366L12.6644 54.2803L12.7026 54.395L12.7401 54.4968L12.7911 54.6241L12.842 54.7388L12.9049 54.8535L13.0321 55.0571L13.1079 55.1591L13.1843 55.2482L13.2726 55.3374L13.3492 55.4264L13.4374 55.5029L13.5394 55.5793L13.6405 55.6557L13.7415 55.7193L13.8433 55.783L14.0711 55.8849L14.1856 55.9358L14.4389 56.0122L14.6928 56.0632L14.8194 56.0758L14.9587 56.0886H15.2501L15.5296 56.0632L15.6561 56.0504L15.7827 56.0248L15.9101 55.9994L16.0367 55.9614L16.1504 55.9358L16.2645 55.8849L16.3663 55.8339L16.4801 55.783L16.5692 55.7321L16.6704 55.6683V54.5096H14.8194V52.6512H19.003V56.789L18.9146 56.8653Z" fill="white"/>
<path d="M14.8376 27.8079H20.332V23.5578H14.8376V14.8814H20.5507V10.6313H10.1718V41.3044H20.6377V37.0542H14.8376V27.8079Z" fill="white"/>
<path d="M54.1926 28.7286V35.652C54.1926 36.8791 53.6255 37.4484 52.4487 37.4484H51.576C50.3552 37.4484 49.7881 36.8791 49.7881 35.652V16.2835C49.7881 15.0566 50.3552 14.4873 51.576 14.4873H52.3611C53.5386 14.4873 54.1057 15.0566 54.1057 16.2835V22.2873H58.684V16.0206C58.684 12.2088 56.8524 10.3683 53.0593 10.3683H50.7911C46.9979 10.3683 45.1222 12.2522 45.1222 16.0648V35.8708C45.1222 39.6835 46.9979 41.5673 50.7911 41.5673H53.1027C56.8968 41.5673 58.7715 39.6835 58.7715 35.8708V28.7286H54.1926Z" fill="white"/>
<path d="M37.9891 41.3044H42.6556V10.6312H37.9891V41.3044Z" fill="white"/>
<path d="M31.2183 24.2589C31.2183 25.486 30.652 26.0559 29.4745 26.0559H27.5554V14.7504H29.4745C30.652 14.7504 31.2183 15.3198 31.2183 16.5466V24.2589ZM30.2154 10.6313H22.8895V41.3045H27.5554V30.1742H30.2154C34.0093 30.1742 35.8842 28.2903 35.8842 24.4785V16.3278C35.8842 12.5153 34.0093 10.6313 30.2154 10.6313Z" fill="white"/>
<path fill-rule="evenodd" clip-rule="evenodd" d="M21.1786 69.039H47.8893L34.2557 73.5351L21.1786 69.039Z" fill="white"/>
</g>
<defs>
<clipPath id="clip0_1801_11561">
<rect width="68.9413" height="80.0002" fill="white"/>
</clipPath>
</defs>
</svg>
