<svg width="80" height="18" viewBox="0 0 80 18" fill="none" xmlns="http://www.w3.org/2000/svg">
<g clip-path="url(#clip0_1801_11500)">
<path fill-rule="evenodd" clip-rule="evenodd" d="M21.7589 8.05907C21.7589 5.59485 23.8301 3.58866 26.294 3.58866C27.6561 3.58866 28.6256 4.12362 29.3569 4.8201L28.4956 5.68142C27.9729 5.19057 27.2641 4.80982 26.2927 4.80982C24.4931 4.80982 23.0869 6.2585 23.0869 8.05807C23.0869 9.85764 24.4935 11.308 26.2917 11.308C27.4585 11.308 28.1221 10.8397 28.548 10.4128C28.8969 10.0639 29.1251 9.5628 29.2136 8.8756H26.2937V7.6571H30.4039C30.447 7.87533 30.4696 8.13667 30.4696 8.41958C30.4696 9.33429 30.2185 10.4692 29.4109 11.2768C28.6249 12.0947 27.623 12.5308 26.2924 12.5308C23.8275 12.5308 21.7563 10.5266 21.7563 8.06039L21.7589 8.05907ZM33.7928 6.7729C32.2012 6.7729 30.9017 7.98378 30.9017 9.65069C30.9017 11.309 32.2002 12.5285 33.7928 12.5285C35.3854 12.5285 36.6819 11.3073 36.6819 9.64969C36.6815 7.98279 35.3844 6.7719 33.7928 6.7729ZM33.7928 11.3965C32.9212 11.3965 32.1683 10.6772 32.1683 9.65168C32.1683 8.61559 32.9205 7.90684 33.7928 7.90684C34.6644 7.90684 35.4163 8.61459 35.4163 9.65168C35.4163 10.6762 34.6651 11.3965 33.7928 11.3965ZM40.0963 6.7729C38.5047 6.7729 37.2072 7.98378 37.2072 9.65069C37.2072 11.309 38.5047 12.5285 40.0963 12.5285C41.6879 12.5285 42.9854 11.3073 42.9854 9.64969C42.9854 7.98279 41.6889 6.7719 40.0963 6.7729ZM40.0963 11.3965C39.2247 11.3965 38.4718 10.6772 38.4718 9.65168C38.4718 8.61559 39.224 7.90684 40.0963 7.90684C40.9679 7.90684 41.7208 8.61459 41.7208 9.65168C41.7208 10.6762 40.9679 11.3965 40.0963 11.3965ZM47.8325 6.94768V7.41598H47.7894C47.5065 7.0767 46.9613 6.77191 46.2747 6.77191C44.8353 6.77191 43.5144 8.03718 43.5144 9.66296C43.5144 11.2751 44.8344 12.5305 46.2747 12.5305C46.9609 12.5305 47.5062 12.226 47.7894 11.8771H47.8325V12.2907C47.8325 13.3914 47.2438 13.9811 46.2953 13.9811C45.5206 13.9811 45.0413 13.4246 44.8446 12.9573L43.7429 13.415C44.0586 14.1775 44.8994 15.1157 46.2943 15.1157C47.7758 15.1157 49.0302 14.2425 49.0302 12.1166V6.94669L47.8325 6.94768ZM46.3829 11.3965C45.5113 11.3965 44.779 10.6652 44.779 9.66296C44.779 8.64942 45.5103 7.90783 46.3829 7.90783C47.2442 7.90783 47.9201 8.64875 47.9201 9.66296C47.9211 10.6649 47.2452 11.3965 46.3829 11.3965ZM49.9037 3.89412H51.169V12.3554H49.9037V3.89412ZM54.6372 11.3965C53.9941 11.3965 53.5354 11.1014 53.2429 10.5249L57.0918 8.93132L56.9591 8.60431C56.7203 7.96222 55.989 6.7729 54.4949 6.7729C53.0124 6.7729 51.7799 7.93967 51.7799 9.65168C51.7799 11.2639 53.0011 12.5295 54.6368 12.5295C55.9568 12.5295 56.7203 11.7239 57.036 11.2536L56.0547 10.6002C55.727 11.0805 55.2793 11.3972 54.6372 11.3965ZM54.5387 7.88494C55.0398 7.88494 55.4646 8.13601 55.6066 8.49519L53.0326 9.56412C53.0004 8.45175 53.8946 7.88494 54.5387 7.88494Z" fill="#5F6368"/>
<path fill-rule="evenodd" clip-rule="evenodd" d="M78.5918 6.83857L77.1381 10.5206H77.0947L75.5863 6.83857H74.2205L76.4821 11.9865L75.1916 14.8494H76.5139L80 6.83824L78.5918 6.83857Z" fill="#5F6368"/>
<path fill-rule="evenodd" clip-rule="evenodd" d="M73.7532 12.3689V9.05901C73.7532 7.52609 72.6077 6.67108 71.1295 6.67108C70.1979 6.67108 69.2318 7.08267 68.8318 7.99307L69.9753 8.46999C70.2201 7.99306 70.6748 7.83685 71.1534 7.83685C71.819 7.83685 72.4966 8.23683 72.5069 8.9489V9.03812C72.2737 8.90479 71.7749 8.70414 71.1627 8.70414C69.9299 8.70414 68.6749 9.38138 68.6749 10.6476C68.6749 11.8038 69.6861 12.547 70.8191 12.547C71.6864 12.547 72.1633 12.1583 72.4624 11.7036H72.5065V12.3703H73.7519L73.7532 12.3689ZM70.9759 11.4038C70.5537 11.4038 69.9647 11.1929 69.9647 10.6719C69.9647 10.0052 70.6987 9.74786 71.3318 9.74786C71.8989 9.74786 72.1646 9.86958 72.5099 10.0367C72.411 10.8118 71.756 11.3942 70.9759 11.4038Z" fill="#5F6368"/>
<path fill-rule="evenodd" clip-rule="evenodd" d="M67.7121 12.4535V4.3979H66.5102V12.4535H67.7121Z" fill="#5F6368"/>
<path fill-rule="evenodd" clip-rule="evenodd" d="M63.1253 4.41382H60.2647V12.4137H61.4584V9.3837H63.1259C64.4496 9.3837 65.7507 8.42555 65.7507 6.89827C65.7507 5.37397 64.4502 4.41482 63.1276 4.41482L63.1253 4.41382ZM63.1561 8.26967H61.4584V5.52653H63.1561C64.0486 5.52653 64.557 6.26712 64.557 6.89793C64.557 7.51846 64.0486 8.26967 63.1561 8.26967Z" fill="#5F6368"/>
<path d="M7.61366 8.53306L0.0687544 16.3855V16.3891C0.300349 17.2417 1.09283 17.8686 2.03731 17.8686C2.41365 17.8686 2.76827 17.7682 3.07224 17.5927L11.5906 12.7709L7.61366 8.53306Z" fill="#EA4335"/>
<path d="M15.249 7.19686L15.2418 7.19327L11.5761 5.10837L7.44358 8.71217L11.5906 12.7745L15.2346 10.7147C15.8751 10.3744 16.3093 9.71522 16.3093 8.95219C16.3093 8.19632 15.8823 7.53718 15.249 7.19686Z" fill="#FBBC04"/>
<path d="M0.0687543 1.48307C0.0217117 1.64786 0 1.81981 0 1.99893V15.8732C0.00723732 16.0738 0.0253305 16.2243 0.0687544 16.3855L7.8742 8.73366L0.0687543 1.48307Z" fill="#4285F4"/>
<path d="M7.66794 8.93428L11.5725 5.10837L3.09034 0.286585C2.78275 0.103887 2.42088 0 2.03731 0C1.09283 0 0.300349 0.630484 0.0687543 1.48307C0.0687543 1.48307 0.0687544 1.48308 0.0687544 1.48666L7.66794 8.93428Z" fill="#34A853"/>
</g>
<defs>
<clipPath id="clip0_1801_11500">
<rect width="80" height="17.8686" fill="white"/>
</clipPath>
</defs>
</svg>
