<svg width="73" height="80" viewBox="0 0 73 80" fill="none" xmlns="http://www.w3.org/2000/svg">
<g clip-path="url(#clip0_1801_11540)">
<path d="M34.0805 38.2243L0.283249 73.3645C1.32171 77.1963 4.90913 80 9.06297 80C10.7623 80 12.3672 79.5327 13.6888 78.785L13.7833 78.6916L51.7343 57.1963L34.0805 38.2243Z" fill="#EA4335"/>
<path d="M68.2552 32.243L51.8287 22.8972L33.3252 38.972L51.8287 57.1963L68.1608 47.9439C70.993 46.4486 72.9755 43.4579 72.9755 40.0935C72.9755 36.6355 71.0874 33.7383 68.2552 32.243Z" fill="#FBBC04"/>
<path d="M0.28322 6.63552C0.0944085 7.38318 0 8.13084 0 8.97196V71.028C0 71.9626 0.0944378 72.6168 0.283249 73.3645L35.2133 39.1589L0.28322 6.63552Z" fill="#4285F4"/>
<path d="M34.3636 40L51.8287 22.8972L13.8776 1.30841C12.4615 0.467289 10.8566 0 9.15735 0C4.90909 0 1.41608 2.80374 0.377621 6.63551L34.3636 40Z" fill="#34A853"/>
</g>
<defs>
<clipPath id="clip0_1801_11540">
<rect width="72.9755" height="80" fill="white"/>
</clipPath>
</defs>
</svg>
