<svg width="80" height="80" viewBox="0 0 80 80" fill="none" xmlns="http://www.w3.org/2000/svg">
<g clip-path="url(#clip0_1801_11593)">
<g clip-path="url(#clip1_1801_11593)">
<path fill-rule="evenodd" clip-rule="evenodd" d="M10.3233 0C4.62167 0 0 4.62167 0 10.3233V69.6775C0 75.3783 4.62167 80 10.3233 80H69.6767C75.3767 80 79.9992 75.3783 79.9992 69.6775V10.3233C79.9992 4.62167 75.3775 0 69.6767 0H10.3233Z" fill="white"/>
<path fill-rule="evenodd" clip-rule="evenodd" d="M62.6317 62.9017C61.7767 62.9017 61.1217 63.5858 61.1217 64.4267C61.1217 65.2683 61.7767 65.9525 62.6317 65.9525C63.49 65.9525 64.1233 65.2783 64.1233 64.4275C64.1233 63.575 63.49 62.9017 62.6317 62.9017ZM69.3125 62.9167C68.4942 62.9167 67.8292 63.5958 67.8292 64.4308C67.8292 65.2667 68.4942 65.945 69.3125 65.945C70.13 65.945 70.7958 65.2667 70.7958 64.4308C70.7958 63.5958 70.13 62.9167 69.3125 62.9167ZM49.785 62.82C49.2075 62.82 48.635 63.105 48.38 63.8175H51.2242C51.06 63.335 50.5983 62.82 49.785 62.82ZM75.1817 67.2408H74.8675L74.8783 66.2392L74.5883 67.2408H74.3633L74.0733 66.2392L74.085 67.2408H73.77V65.9025H74.2275L74.4783 66.765L74.7233 65.9025H75.1817V67.2408ZM73.5975 66.2025H73.335V67.2408H72.9933V66.2025H72.7292V65.9025H73.5975V66.2025ZM69.3125 67.4217C68.9184 67.4226 68.528 67.346 68.1636 67.1961C67.7991 67.0462 67.4677 66.826 67.1884 66.548C66.909 66.2701 66.6872 65.9398 66.5355 65.5761C66.3837 65.2124 66.3052 64.8224 66.3042 64.4283C66.3064 63.6325 66.6245 62.87 67.1886 62.3086C67.7527 61.7471 68.5166 61.4326 69.3125 61.4342C70.1083 61.4326 70.8722 61.7471 71.4361 62.3086C72.0001 62.8701 72.318 63.6325 72.32 64.4283C72.318 65.2241 72.0001 65.9864 71.4361 66.5478C70.8721 67.1091 70.1082 67.4234 69.3125 67.4217ZM55.8833 50.1967C53.6792 50.1967 51.2733 49.57 49.3542 48.5375C46.16 50.7417 40.5842 53.5708 33.0175 53.5708C20.05 53.5708 12.5067 45.075 11.6892 44.1067C11.3106 43.658 11.1257 43.0773 11.1752 42.4924C11.2248 41.9074 11.5047 41.3661 11.9533 40.9875C12.402 40.6089 12.9827 40.424 13.5676 40.4736C14.1526 40.5231 14.6939 40.803 15.0725 41.2517C17.545 44.1833 24.1083 49.1442 33.0175 49.1442C40.6642 49.1442 45.9708 45.6283 47.8975 44.1175C48.2846 43.8138 48.7618 43.6477 49.2538 43.6456C49.7458 43.6435 50.2245 43.8054 50.6142 44.1058C51.6558 44.9075 53.7475 45.7708 55.8833 45.7708C61.2875 45.7708 65.5208 41.5442 65.5208 36.1475C65.5208 31.695 61.6858 26.735 56.1825 26.735C56.1241 26.7347 56.0658 26.7328 56.0075 26.7292C55.8969 26.7246 55.7861 26.7273 55.6758 26.7375C55.234 26.7665 54.7937 26.6626 54.4114 26.4393C54.0292 26.2159 53.7225 25.8833 53.5308 25.4842C50.3583 18.8458 44.1867 14.8825 37.0225 14.8825C29.2508 14.8825 21.2117 19.8492 21.2117 28.1592C21.2117 31.0233 22.6483 32.9275 23.8817 34.0342L28.5325 25.3633C28.7234 25.0071 29.0082 24.7099 29.3561 24.5041C29.704 24.2983 30.1015 24.1917 30.5057 24.1959C30.9099 24.2002 31.3051 24.315 31.6486 24.528C31.9921 24.741 32.2707 25.044 32.4542 25.4042L35.1617 30.71L37.8683 25.4042C38.0524 25.043 38.3321 24.7393 38.6771 24.5264C39.022 24.3134 39.4188 24.1994 39.8242 24.1967C40.229 24.1964 40.6263 24.306 40.9737 24.5138C41.3211 24.7216 41.6055 25.0198 41.7967 25.3767L47.5167 36.2133C47.7775 36.7311 47.8248 37.3305 47.6484 37.8828C47.472 38.4351 47.0859 38.896 46.5731 39.1667C46.0604 39.4373 45.462 39.4959 44.9065 39.3299C44.351 39.164 43.8828 38.7867 43.6025 38.2792L39.8733 31.2142L37.1325 36.5858C36.9469 36.9489 36.6647 37.2536 36.3169 37.4664C35.9692 37.6792 35.5694 37.7919 35.1617 37.7919C34.754 37.7919 34.3542 37.6792 34.0064 37.4664C33.6586 37.2536 33.3764 36.9489 33.1908 36.5858L30.4333 31.1833L26.6192 38.2925C26.3524 38.7901 25.9054 39.167 25.3699 39.3459C24.8344 39.5248 24.2507 39.4923 23.7383 39.255C23.455 39.1225 16.785 35.94 16.785 28.16C16.785 17.0792 27.0742 10.4575 37.0208 10.4575C45.4717 10.4575 52.8008 14.8675 56.8842 22.3275C64.7283 22.7208 69.9458 29.6575 69.9458 36.1483C69.9458 44.0267 63.7683 50.1983 55.8825 50.1983L55.8833 50.1967ZM65.7533 67.2475H64.1142V66.8308H64.0858C63.9558 67.0242 63.3517 67.4217 62.5775 67.4217C60.9608 67.4217 59.6017 66.0725 59.6017 64.4267C59.6017 62.7817 60.9617 61.435 62.5767 61.435C63.3517 61.435 63.9558 61.83 64.0858 62.0225H64.1142V59.3117H65.7533V67.2475ZM59.0508 67.2442H57.4125V64.3408C57.4125 63.2317 56.6983 62.9342 56.2292 62.9342C55.5533 62.9342 54.9575 63.4067 54.9575 64.5017V67.2458H53.32V61.6083H54.9575V62.0883H54.975C55.3092 61.6833 55.8575 61.4342 56.4708 61.4342C57.7408 61.4342 59.0508 62.3233 59.0508 64.2192V67.2442ZM51.6808 64.9442H48.3575C48.5183 65.6617 49.1875 66.0392 49.7608 66.0392C50.3292 66.0392 50.7558 65.84 51.105 65.4042L52.4425 65.875C52.0075 66.7333 51.0008 67.4217 49.7758 67.4217C48.0925 67.4217 46.8133 65.9533 46.8133 64.4183C46.8133 62.9333 48.0633 61.435 49.76 61.435C51.7142 61.435 52.7342 63.0992 52.7575 64.2692C52.7575 64.8033 52.3958 64.9442 51.6808 64.9442ZM46.6808 62.9375H45.5733V67.2458H43.94V62.9375H42.845V61.6083H43.9392V60.055H45.5733V61.6083H46.6808V62.9375ZM42.555 67.2442H40.9158V64.3408C40.9158 63.2317 40.2017 62.9342 39.7325 62.9342C39.0575 62.9342 38.4608 63.4067 38.4608 64.5017V67.2458H36.8242V61.6083H38.4608V62.0883H38.4792C38.8125 61.6833 39.3617 61.4342 39.975 61.4342C41.245 61.4342 42.555 62.3233 42.555 64.2192V67.2442ZM34.9383 60.87C34.8103 60.8737 34.6828 60.8516 34.5634 60.8051C34.444 60.7586 34.3352 60.6886 34.2433 60.5993C34.1515 60.5099 34.0785 60.4031 34.0287 60.2851C33.9789 60.167 33.9533 60.0402 33.9534 59.9121C33.9535 59.7839 33.9794 59.6571 34.0294 59.5392C34.0794 59.4212 34.1525 59.3145 34.2445 59.2253C34.3365 59.1362 34.4455 59.0664 34.5649 59.0201C34.6844 58.9738 34.8119 58.9519 34.94 58.9558C35.1889 58.9634 35.4251 59.0677 35.5985 59.2465C35.7718 59.4253 35.8687 59.6647 35.8684 59.9137C35.8682 60.1628 35.771 60.402 35.5973 60.5805C35.4237 60.759 35.1873 60.8629 34.9383 60.87ZM34.12 67.2483H35.7575V61.6075H34.12V67.2483ZM32.9683 66.38C32.9683 66.9217 32.64 67.2992 32.0133 67.2992C31.7483 67.2992 31.4217 67.16 31.0783 66.71L27.7575 62.3383V67.245H25.9992V60.1775C25.9992 59.6358 26.3283 59.2592 26.9542 59.2592C27.2192 59.2592 27.5458 59.3975 27.8892 59.8475L31.2108 64.2175V59.3117H32.9692L32.9683 66.38ZM21.1725 68.3767C20.7825 69.33 20.1342 69.555 18.8825 69.555H18.5708V68.1475H18.8117C19.4658 68.1475 19.935 67.8625 20.0917 67.1317L17.6442 61.6008H19.4758L20.8475 65.1L22.0808 61.6H23.925L21.1725 68.3767ZM17 67.245H15.2417V62.8217H15.2067L13.5692 66.545C13.2858 67.19 12.9692 67.2975 12.6592 67.2975C12.3483 67.2975 12.0317 67.1892 11.7483 66.545L10.1117 62.8217H10.0767V67.245H8.31833V60.5333C8.31833 59.6333 8.84833 59.2575 9.41833 59.2575C9.81 59.2575 10.2983 59.4217 10.665 60.2575C10.9175 60.8325 12.6425 64.7433 12.6425 64.7433H12.6758C12.6758 64.7433 14.4008 60.835 14.6525 60.26C15.0192 59.4217 15.4833 59.2575 15.9 59.2575C16.5167 59.2575 17 59.6425 17 60.5408V67.245ZM10.3233 0C4.62167 0 0 4.62167 0 10.3233V69.6775C0 75.3783 4.62167 80 10.3233 80H69.6767C75.3767 80 79.9992 75.3783 79.9992 69.6775V10.3233C79.9992 4.62167 75.3775 0 69.6767 0H10.3233Z" fill="#E60012"/>
</g>
</g>
<defs>
<clipPath id="clip0_1801_11593">
<rect width="80" height="80" fill="white"/>
</clipPath>
<clipPath id="clip1_1801_11593">
<rect width="80" height="80" fill="white"/>
</clipPath>
</defs>
</svg>
