<svg width="80" height="22" viewBox="0 0 80 22" fill="none" xmlns="http://www.w3.org/2000/svg">
<g clip-path="url(#clip0_1801_11585)">
<path d="M80 21.4679H0V0H80" fill="#E60012"/>
<path d="M6.23257 8.11937C6.23257 8.28078 6.26436 8.4406 6.32613 8.58972C6.38791 8.73883 6.47845 8.87432 6.59258 8.98844C6.70672 9.10257 6.84222 9.19309 6.99135 9.25484C7.14047 9.31659 7.3003 9.34837 7.4617 9.34835C7.78765 9.34835 8.10024 9.21886 8.33072 8.98839C8.5612 8.75791 8.69068 8.44532 8.69068 8.11937C8.69068 7.95797 8.65889 7.79815 8.59712 7.64903C8.53536 7.49992 8.44483 7.36443 8.3307 7.2503C8.21657 7.13617 8.08108 7.04564 7.93196 6.98387C7.78285 6.9221 7.62303 6.89031 7.46162 6.89031C7.30022 6.89031 7.1404 6.9221 6.99128 6.98387C6.84217 7.04564 6.70668 7.13617 6.59255 7.2503C6.47842 7.36443 6.38789 7.49992 6.32612 7.64903C6.26436 7.79815 6.23257 7.95797 6.23257 8.11937ZM13.9183 4.19744H11.8958C11.8846 4.19741 11.8735 4.1996 11.8631 4.20388C11.8528 4.20815 11.8434 4.21442 11.8355 4.22233C11.8276 4.23025 11.8213 4.23964 11.817 4.24999C11.8128 4.26033 11.8106 4.27141 11.8106 4.2826V17.1746C11.8106 17.2274 11.8533 17.2707 11.9063 17.2707H13.9183C15.7695 17.2707 17.2703 15.7699 17.2703 13.9185V7.54947C17.2703 5.69824 15.7695 4.19744 13.9183 4.19744ZM14.3969 12.7095C14.2233 12.7095 14.0515 12.6753 13.8911 12.6089C13.7307 12.5424 13.585 12.4451 13.4623 12.3223C13.3396 12.1996 13.2422 12.0539 13.1758 11.8935C13.1094 11.7331 13.0752 11.5613 13.0753 11.3877C13.0791 11.0396 13.22 10.7072 13.4675 10.4624C13.715 10.2177 14.049 10.0804 14.397 10.0804C14.7451 10.0804 15.0791 10.2177 15.3265 10.4624C15.574 10.7072 15.7149 11.0396 15.7188 11.3877C15.7188 11.7382 15.5795 12.0745 15.3316 12.3223C15.0837 12.5702 14.7475 12.7095 14.3969 12.7095ZM10.4066 4.19744H7.54927C5.69804 4.19744 4.19724 5.69824 4.19724 7.54947V13.9183C4.19724 15.7697 5.69804 17.2705 7.54927 17.2705H10.4066C10.4321 17.2705 10.4565 17.2604 10.4746 17.2424C10.4926 17.2244 10.5027 17.1999 10.5027 17.1744V4.29317C10.5027 4.28057 10.5002 4.26809 10.4954 4.25646C10.4905 4.24482 10.4835 4.23426 10.4745 4.22536C10.4656 4.21647 10.455 4.20942 10.4434 4.20463C10.4317 4.19984 10.4192 4.19739 10.4066 4.19744ZM9.44869 16.2168H7.54927C6.93534 16.2168 6.35823 15.9778 5.92424 15.5438C5.71013 15.3309 5.54039 15.0776 5.42487 14.7986C5.30934 14.5196 5.25033 14.2204 5.25124 13.9185V7.54947C5.25124 6.93538 5.49009 6.35827 5.92408 5.9246C6.13699 5.71049 6.39027 5.54074 6.66923 5.42519C6.9482 5.30964 7.24732 5.25058 7.54927 5.25144H9.44869V16.2168ZM25.232 6.24109C22.4843 6.24109 20.2567 8.43634 20.2567 11.1442C20.2567 13.852 22.4843 16.0474 25.232 16.0474C27.9799 16.0474 30.2073 13.852 30.2073 11.1442C30.2073 8.43634 27.9799 6.24109 25.232 6.24109ZM25.232 14.1733C23.6156 14.1733 22.305 12.8171 22.305 11.1442C22.305 9.47129 23.6156 8.11521 25.232 8.11521C26.8485 8.11521 28.1588 9.47129 28.1588 11.1442C28.1588 12.8171 26.8485 14.1733 25.232 14.1733ZM52.4589 15.7486H54.4366V6.53997H52.4589V15.7486ZM75.8025 8.33565V6.53997H68.1988V15.7486H75.8025V13.9527H70.1766V11.8724H75.5296V10.1675H70.1766V8.33565H75.8025ZM63.5537 12.4795L58.9695 6.53981H57.1143V15.7484H58.9764V9.60833L63.8778 15.7486H65.5087V6.53997H63.5536L63.5537 12.4795ZM38.8826 12.4795L34.2984 6.53981H32.4432V15.7484H34.3053V9.60833L39.2067 15.7486H40.8376V6.53997H38.8826V12.4795ZM45.4932 6.53997H43.5155V15.7486H50.5397V13.9527H45.4934L45.4932 6.53997Z" fill="white"/>
</g>
<defs>
<clipPath id="clip0_1801_11585">
<rect width="80" height="21.4679" fill="white"/>
</clipPath>
</defs>
</svg>
