<svg width="80" height="15" viewBox="0 0 80 15" fill="none" xmlns="http://www.w3.org/2000/svg">
<g clip-path="url(#clip0_1801_11623)">
<path fill-rule="evenodd" clip-rule="evenodd" d="M10.9814 3.52476C10.9814 3.4666 10.9233 3.42007 10.8651 3.4317L9.73671 3.26884H8.13137C8.03831 2.53597 7.75912 1.30288 7.22401 0.593278C6.93319 0.19776 6.5842 0 6.21195 0C5.97929 0 5.74664 0.0814312 5.56051 0.221026C5.37439 0.104697 5.14173 0.0581651 4.9207 0.069798C3.85048 0.174494 3.52476 1.74493 3.45496 3.26884C2.52433 3.26884 1.58207 3.28047 0.65144 3.30374C0.581643 3.30374 0.523479 3.35027 0.523479 3.42007C0.500213 3.85049 0.395517 5.52562 0.255923 8.10812C0.104695 10.8418 0.0232657 12.3309 0 12.7264C0 12.7845 0.0465308 12.8311 0.104695 12.8427L9.062 14.2037C9.0969 14.2037 9.1318 14.2037 9.1667 14.1805L11.3653 12.7729C11.4351 12.738 11.47 12.6682 11.4584 12.5868L10.9814 3.52476ZM6.21195 0.418784C6.43298 0.430417 6.64237 0.535113 6.77033 0.709606C7.31707 1.30288 7.58463 2.55923 7.70096 3.26884H7.02625C6.87502 2.32658 6.49114 1.12839 5.9095 0.500214C6.00256 0.44205 6.11889 0.418784 6.21195 0.418784ZM5.59541 0.779403C6.10725 1.30288 6.45624 2.39637 6.59584 3.26884H4.9556C5.00213 2.46617 5.16499 1.34941 5.59541 0.779403ZM3.66435 9.23651L2.4429 9.67856C2.23351 9.75999 2.19861 9.86468 2.3731 9.92285C2.60576 9.98101 2.85005 9.96938 3.08271 9.88795L3.66435 9.67856V10.2951L3.54802 10.3184C2.94312 10.4231 2.31494 10.3649 1.72166 10.1671C1.15165 10.0043 1.04696 9.66693 1.31451 9.46917C1.51227 9.34121 1.7333 9.23651 1.96595 9.15508L3.66435 8.55017V9.23651ZM4.97887 0.488581C5.07193 0.476948 5.17663 0.488582 5.25806 0.535113C4.72294 1.26798 4.57172 2.5476 4.52518 3.26884H3.88538C3.96681 1.54717 4.35069 0.546745 4.97887 0.488581ZM5.08356 6.60748V10.9931L3.89701 10.6208V5.38602C4.44376 5.50235 4.9905 5.65358 5.52561 5.82807C6.52604 6.17706 6.86339 6.59585 6.86339 7.56137C6.86339 8.50364 6.28175 8.86426 5.54888 8.50364V6.7587C5.54888 6.54931 5.51398 6.36319 5.31622 6.30502C5.17663 6.27012 5.08356 6.39809 5.08356 6.60748ZM8.37567 9.67856C8.23607 9.85305 7.88708 9.98101 7.88708 9.98101L5.30459 10.9116V10.2253L7.21238 9.55059C7.42177 9.46916 7.45667 9.36447 7.28217 9.30631C7.04952 9.24814 6.80523 9.25977 6.57257 9.3412L5.30459 9.78325V9.07365L5.37438 9.05038C5.66521 8.95732 5.95603 8.89915 6.25848 8.86426C6.81686 8.80609 7.37524 8.87589 7.89872 9.06202C8.45709 9.23651 8.51526 9.50406 8.37567 9.67856Z" fill="#0072CE"/>
<path fill-rule="evenodd" clip-rule="evenodd" d="M60.3753 11.9469L60.1427 11.2606V11.9469H60.0264V11.0977H60.1776L60.4219 11.819L60.6662 11.0977H60.8174V11.9469H60.7011V11.2606L60.4684 11.9469H60.3753ZM59.5378 11.1908H59.2586V11.0977H59.9333V11.1908H59.6425V11.9469H59.5261L59.5378 11.1908ZM76.6497 9.81811C76.7079 10.8185 77.3244 11.4584 78.3132 11.4584C78.7437 11.4584 79.1741 11.3769 79.5812 11.2257L79.7092 11.7957C79.2555 11.9702 78.7786 12.0516 78.3016 12.04C76.7428 12.04 75.9169 10.993 75.9169 9.60872C75.9169 8.18951 76.7312 7.15419 78.0457 7.15419C79.3602 7.15419 80 8.06155 80 9.43423V9.79485L76.6497 9.81811ZM76.6497 9.22484H79.302V9.18994C79.302 8.29421 78.7902 7.77073 78.0457 7.77073C77.2081 7.77073 76.7312 8.364 76.6497 9.22484ZM75.9285 7.79399C75.8005 7.77073 75.6726 7.77073 75.533 7.77073C74.9048 7.77073 74.4046 8.13135 74.4046 9.22484V11.9586H73.6485V7.29378H74.3813V7.92195H74.393C74.6256 7.42174 75.0211 7.18908 75.626 7.18908C75.7424 7.18908 75.8587 7.18908 75.9634 7.21235L75.9285 7.79399ZM70.8449 12.0633C69.4955 12.0633 68.658 11.1326 68.658 9.60872C68.658 8.08481 69.4955 7.17745 70.8449 7.17745C72.1943 7.17745 73.0319 8.08481 73.0319 9.60872C73.0319 11.1326 72.1827 12.0633 70.8449 12.0633ZM70.8449 7.77073C69.8678 7.77073 69.4141 8.52686 69.4141 9.60872C69.4141 10.6906 69.8794 11.47 70.8449 11.47C71.8221 11.47 72.2758 10.7022 72.2758 9.60872C72.2758 8.51523 71.8221 7.77073 70.8449 7.77073ZM65.7032 7.28214H66.5408V6.10723H67.2969V7.28214H68.3904V7.87542H67.2969V10.6673C67.2969 11.3071 67.3551 11.4235 67.8902 11.4235C68.053 11.4235 68.2275 11.4118 68.3904 11.3886V11.9586C68.1577 11.9935 67.9134 12.0167 67.6808 12.0167C66.7036 12.0167 66.5408 11.5514 66.5408 10.7138V7.87542H65.7032V7.28214ZM65.0052 6.44458C64.5632 6.27009 64.0862 6.17702 63.6093 6.17702C63.0044 6.17702 62.3297 6.40968 62.3297 7.14255C62.3297 7.71256 62.667 8.01502 63.6558 8.3989C64.854 8.86422 65.4822 9.32953 65.4822 10.3183C65.4822 11.563 64.3887 12.0633 63.3417 12.0633C62.6903 12.0633 62.0505 11.9237 61.4572 11.6677L61.655 11.0047C62.1901 11.2606 62.7717 11.4002 63.365 11.4118C64.1328 11.4118 64.7144 11.0745 64.7144 10.3649C64.7144 9.72505 64.156 9.3877 63.1905 9.00381C62.097 8.5734 61.5619 8.02665 61.5619 7.18908C61.5619 6.02579 62.667 5.52558 63.6326 5.52558C64.1677 5.51395 64.7028 5.60701 65.2146 5.79314L65.0052 6.44458ZM27.8848 7.14255H29.0364C29.048 7.14255 29.0597 7.15418 29.0597 7.16582L30.1299 10.2602C30.1299 10.2718 30.1415 10.2718 30.1415 10.2602L31.3513 7.15419C31.3513 7.14255 31.363 7.13092 31.3746 7.14255H32.4099C32.4216 7.14255 32.4216 7.15419 32.4216 7.15419L29.5599 14.2619C29.5599 14.2735 29.5483 14.2851 29.5366 14.2851H28.5827C28.5711 14.2851 28.5711 14.2851 28.5711 14.2735C28.5711 14.2735 28.5711 14.2735 28.5711 14.2619L29.4785 11.9237C29.4785 11.912 29.4785 11.9004 29.4785 11.8888L27.8499 7.16582C27.8615 7.15418 27.8615 7.15418 27.8848 7.14255C27.8731 7.14255 27.8731 7.14255 27.8848 7.14255ZM52.0346 7.14255C53.8726 7.14255 54.1052 8.42217 54.1052 9.55056C54.1052 10.6789 53.8726 11.9586 52.0346 11.9586C50.1966 11.9586 49.9756 10.6673 49.9756 9.55056C49.9756 8.4338 50.1966 7.14255 52.0346 7.14255ZM52.7326 10.9465C52.8954 10.6906 52.9652 10.2485 52.9652 9.55056C52.9652 8.72462 52.8605 8.24768 52.6279 8.02665C52.4883 7.89869 52.3138 7.84053 52.0346 7.84053C51.7554 7.84053 51.5809 7.89869 51.4413 8.02665C51.2087 8.24768 51.104 8.72462 51.104 9.55056C51.104 10.2485 51.1737 10.6906 51.3366 10.9465C51.5111 11.2257 51.7903 11.2606 52.0346 11.2606C52.2789 11.2606 52.5581 11.2257 52.7326 10.9465ZM56.8041 7.14255C58.549 7.14255 58.7816 8.42217 58.7816 9.53893V11.9237C58.7816 11.9353 58.77 11.9469 58.7584 11.9469H57.6649C57.6533 11.9469 57.6416 11.9353 57.6416 11.9237C57.6416 11.9237 57.6416 9.43423 57.6416 9.41096C57.6416 8.75952 57.5718 8.35237 57.4322 8.11971C57.2694 7.86379 57.0251 7.82889 56.8041 7.82889H55.9665C55.9665 7.82889 55.9549 7.82889 55.9549 7.84053V11.9353C55.9549 11.9469 55.9432 11.9586 55.9316 11.9586H54.8381C54.8265 11.9586 54.8148 11.9469 54.8148 11.9353V7.16582C54.8148 7.15418 54.8148 7.15418 54.8265 7.14255H56.8041ZM49.2194 5.63028C49.2311 5.63028 49.2427 5.64191 49.2427 5.65354V6.56091C49.2427 6.57254 49.2427 6.57254 49.2311 6.58417H48.1376C48.1259 6.58417 48.1259 6.58417 48.1143 6.57254V5.66517C48.1143 5.65354 48.1259 5.64191 48.1376 5.64191H49.2194V5.63028ZM49.2194 7.14255C49.2311 7.14255 49.2427 7.15419 49.2427 7.15419V11.9237C49.2427 11.9353 49.2311 11.9469 49.2194 11.9469H48.1259C48.1143 11.9469 48.1027 11.9353 48.1027 11.9237V7.15419C48.1027 7.14255 48.1143 7.13092 48.1259 7.13092H49.2194V7.14255ZM47.4047 7.14255C47.4163 7.14255 47.4163 7.14255 47.428 7.15419V7.80562C47.428 7.81726 47.4163 7.82889 47.4047 7.82889C47.4047 7.82889 46.5788 7.82889 46.2182 7.82889C46.2182 7.82889 46.2065 7.82889 46.2065 7.84053V10.6441C46.2065 11.2606 46.4973 11.2606 46.6137 11.2606H47.1023C47.1139 11.2606 47.1255 11.2722 47.1255 11.2839V11.9353C47.1255 11.9469 47.1139 11.9586 47.1023 11.9586H46.3112C45.59 11.9586 45.0665 11.3537 45.0665 10.5161V6.35151C45.0665 6.33988 45.0781 6.32825 45.0898 6.32825H46.1833C46.1949 6.32825 46.2065 6.33988 46.2065 6.35151V7.14255C46.2065 7.14255 46.2065 7.15419 46.2182 7.15419L47.4047 7.14255ZM39.7386 7.14255C39.7503 7.14255 39.7619 7.14255 39.7619 7.16582V7.81726C39.7619 7.82889 39.7503 7.84053 39.7386 7.84053C39.7386 7.84053 38.9127 7.84053 38.5521 7.84053C38.5521 7.84053 38.5405 7.84053 38.5405 7.85216V10.6557C38.5405 11.2722 38.8313 11.2722 38.9476 11.2722H39.4246C39.4362 11.2722 39.4478 11.2839 39.4478 11.2955V11.9469C39.4478 11.9586 39.4362 11.9702 39.4246 11.9702H38.6335C37.9123 11.9702 37.3888 11.3653 37.3888 10.5277V6.36315C37.3888 6.35151 37.4004 6.33988 37.4121 6.33988H38.5056C38.5172 6.33988 38.5288 6.35151 38.5288 6.36315V7.16582L39.7386 7.14255ZM44.1475 7.16582V11.9353C44.1475 11.9469 44.1359 11.9586 44.1242 11.9586H43.0307C43.0191 11.9586 43.0075 11.9469 43.0075 11.9469V7.85216C43.0075 7.85216 43.0075 7.84053 42.9958 7.84053H42.1583C41.9373 7.84053 41.693 7.87542 41.5301 8.15461C41.3905 8.41053 41.3207 8.85258 41.3207 9.55056V10.5975C41.3207 11.1908 41.5534 11.2722 41.7279 11.2722H42.484C42.4956 11.2722 42.5073 11.2839 42.5073 11.2839V11.9353C42.5073 11.9469 42.4956 11.9586 42.484 11.9586H41.4138C40.6925 11.9586 40.1691 11.3537 40.1691 10.5161V9.53893C40.1691 8.42217 40.3901 7.14255 42.1466 7.14255H44.101C44.1475 7.14255 44.1591 7.15418 44.1475 7.16582ZM35.1553 8.27094C35.6206 8.30584 35.9696 8.45707 36.1906 8.74789C36.4582 9.07361 36.5978 9.53893 36.5978 10.1206C36.5978 11.7259 35.5973 11.9702 35.0041 11.9702H33.0846C33.073 11.9702 33.0614 11.9586 33.0614 11.9586V11.3071C33.0614 11.2955 33.073 11.2839 33.0846 11.2839H34.6318C35.3763 11.2839 35.4694 10.6557 35.4694 10.3067V10.1555C35.4694 9.59709 35.2135 9.23647 34.8063 9.2132L34.2712 9.16667C33.4104 9.10851 32.8287 8.42217 32.8287 7.49154V7.42174C32.8287 6.23519 33.5616 5.64191 34.5737 5.64191H36.2255C36.2372 5.64191 36.2488 5.65354 36.2488 5.66517V6.31662C36.2488 6.32825 36.2371 6.33988 36.2371 6.33988H34.7481C34.2828 6.33988 33.9338 6.54927 33.9338 7.31705C33.9338 7.98012 34.2363 8.20114 34.6434 8.23604L35.1553 8.27094ZM27.2682 7.16582V11.9353C27.2682 11.9469 27.2682 11.9469 27.2566 11.9586H26.1631C26.1515 11.9586 26.1398 11.9586 26.1398 11.9469V7.85216C26.1398 7.85216 26.1398 7.84053 26.1282 7.84053H25.2906C25.0696 7.84053 24.8137 7.87542 24.6624 8.15461C24.5229 8.41053 24.4531 8.85258 24.4531 9.55056V10.5975C24.4531 11.1908 24.6857 11.2722 24.8602 11.2722H25.628C25.6396 11.2722 25.6512 11.2839 25.6512 11.2955V11.9469C25.6512 11.9586 25.6396 11.9702 25.628 11.9702H24.5694C23.8481 11.9702 23.3247 11.3653 23.3247 10.5277V9.55056C23.3247 8.4338 23.5457 7.15419 25.3023 7.15419H27.2566C27.2566 7.14255 27.2682 7.15418 27.2682 7.16582ZM22.4755 5.64191C22.4871 5.64191 22.4987 5.65354 22.4987 5.66517V11.9353C22.4987 11.9469 22.4871 11.9586 22.4871 11.9586H21.3936C21.382 11.9586 21.3703 11.9469 21.3703 11.9469V5.66517C21.3703 5.65354 21.382 5.64191 21.3936 5.64191H22.4755ZM19.1717 5.64191C20.0907 5.64191 20.684 6.42131 20.684 7.6195C20.684 8.23604 20.5095 8.75952 20.1954 9.10851C19.9395 9.41096 19.5673 9.57382 19.1717 9.58546H18.1015C18.0899 9.58546 18.0782 9.58546 18.0782 9.57382V8.92238C18.0782 8.91075 18.0899 8.89912 18.1015 8.89912H18.8576C19.3113 8.89912 19.5673 8.44544 19.5673 7.6195C19.5673 6.79357 19.3113 6.33988 18.8576 6.33988H17.6013C17.6013 6.33988 17.5897 6.33988 17.5897 6.35151V11.9469C17.5897 11.9586 17.578 11.9702 17.5664 11.9702H16.4613C16.4496 11.9702 16.438 11.9586 16.438 11.9469V5.67681C16.438 5.66518 16.4496 5.65354 16.4613 5.65354L19.1717 5.64191Z" fill="black"/>
</g>
<defs>
<clipPath id="clip0_1801_11623">
<rect width="80" height="14.2851" fill="white"/>
</clipPath>
</defs>
</svg>
