<svg width="80" height="80" viewBox="0 0 80 80" fill="none" xmlns="http://www.w3.org/2000/svg">
<g clip-path="url(#clip0_1801_11534)">
<path d="M78.6103 45.1802C78.5387 45.2132 78.4643 45.2435 78.3871 45.2656C78.31 45.2904 78.2328 45.3097 78.1502 45.3262C78.0675 45.3427 77.9848 45.3538 77.8994 45.362L60.5708 46.8582L49.6264 54.0305L66.3158 52.4131C66.3984 52.4048 66.4783 52.3938 66.5582 52.3772C66.6381 52.3607 66.7125 52.3414 66.7869 52.3166C66.8613 52.2918 66.933 52.2643 67.0018 52.2312C67.0707 52.1981 67.1396 52.1623 67.203 52.1237C71.0743 49.7734 74.9456 47.4231 78.817 45.0699C78.7508 45.1085 78.6819 45.1471 78.6103 45.1802Z" fill="url(#paint0_linear_1801_11534)"/>
<path d="M26.4702 3.16319C26.4179 2.92898 26.3931 2.69753 26.3903 2.4771C26.3903 2.25667 26.4151 2.0445 26.462 1.84611C26.5088 1.64773 26.5805 1.46036 26.6714 1.28677C26.7623 1.11318 26.8753 0.953367 27.0048 0.812842C23.9987 4.06145 20.9925 7.3073 17.9892 10.5559C17.8624 10.6937 17.7522 10.8452 17.664 11.0133C17.5758 11.1814 17.5042 11.3605 17.4574 11.5506C17.4105 11.7407 17.383 11.9446 17.3802 12.154C17.3802 12.3634 17.3995 12.5839 17.4491 12.8071L21.4499 31.4528L30.8734 22.7733L26.4675 3.16044L26.4702 3.16319Z" fill="url(#paint1_linear_1801_11534)"/>
<path d="M64.1144 70.775C64.051 70.8025 63.9849 70.8246 63.916 70.8466C63.8471 70.8687 63.7783 70.8852 63.7094 70.9017C63.6377 70.9155 63.5661 70.9293 63.4917 70.9376L45.4274 73.2686C44.9975 73.3237 44.5677 73.2796 44.1544 73.1529C43.7411 73.0261 43.347 72.814 42.9943 72.5357C42.6417 72.2574 42.3275 71.9102 42.074 71.5134C41.8233 71.1167 41.6304 70.6703 41.523 70.1909L36.7451 48.9137L26.7706 56.2458L31.0911 76.3795C31.1875 76.8341 31.3638 77.2529 31.6008 77.6277C31.8378 77.9996 32.1326 78.3248 32.466 78.5865C32.7994 78.8483 33.1741 79.0439 33.5682 79.1624C33.9622 79.2809 34.3727 79.3167 34.7833 79.2616L52.1092 76.892C52.1781 76.8809 52.2497 76.8699 52.3158 76.8534C52.3847 76.8369 52.4508 76.8203 52.517 76.7983C52.5831 76.7762 52.6465 76.7542 52.7071 76.7294C52.7677 76.7046 52.8311 76.6743 52.889 76.644C56.6941 74.6573 60.4966 72.6735 64.299 70.6868C64.2384 70.7171 64.175 70.7474 64.1117 70.775H64.1144Z" fill="url(#paint2_linear_1801_11534)"/>
<path d="M16.7078 50.6441C16.2504 50.6827 15.793 50.6248 15.3604 50.4815C14.9251 50.341 14.5145 50.1178 14.148 49.8285C13.7816 49.5392 13.4619 49.1865 13.2057 48.787C12.9522 48.3874 12.7648 47.9383 12.6684 47.4589L8.5105 27.0717C8.45815 26.8127 8.43611 26.5565 8.44162 26.3112C8.44713 26.066 8.48295 25.829 8.54357 25.6059C8.60419 25.3827 8.6896 25.1705 8.79706 24.9776C8.90728 24.782 9.03678 24.6029 9.19109 24.4431C6.37232 27.4051 3.5508 30.3644 0.732038 33.3237C0.586003 33.478 0.456499 33.6488 0.351794 33.8362C0.24709 34.0236 0.161673 34.2247 0.103809 34.4369C0.0459461 34.6491 0.0101261 34.875 0.00185989 35.1064C-0.00640628 35.3407 0.0128815 35.5804 0.0597231 35.8284L3.82359 55.1244C3.91176 55.5763 4.08535 55.9978 4.32231 56.3753C4.55927 56.7528 4.86237 57.0835 5.20679 57.3535C5.55122 57.6235 5.94248 57.8302 6.35303 57.9597C6.76359 58.0892 7.19894 58.1415 7.63429 58.0974L26.7732 56.2403L36.7477 48.9082L16.7078 50.6386V50.6441Z" fill="url(#paint3_linear_1801_11534)"/>
<path d="M79.8724 42.6783V42.6728C79.8558 42.4716 79.82 42.2622 79.7621 42.05L74.9843 23.9168C74.9292 23.7129 74.8603 23.5118 74.7721 23.3216V23.3189C74.6867 23.1288 74.5848 22.9441 74.4718 22.7706C74.2459 22.4206 73.9676 22.1093 73.6562 21.853C73.5019 21.7263 73.3421 21.6105 73.174 21.5113H73.1685L73.163 21.5058C72.9949 21.4066 72.8213 21.3212 72.645 21.2523C72.4659 21.1835 72.284 21.1339 72.1022 21.1008C71.9203 21.0677 71.7357 21.0567 71.5511 21.0622L54.4043 21.7841L49.7752 2.94276C49.676 2.53221 49.4997 2.14369 49.271 1.791C49.158 1.61466 49.0285 1.44658 48.8908 1.29228C48.753 1.13522 48.6014 0.991941 48.4416 0.856927C48.122 0.589654 47.7666 0.377489 47.3946 0.228698C47.2072 0.154302 47.0171 0.0964387 46.8242 0.0578632C46.6313 0.0192877 46.4357 0 46.2428 0L28.7902 0.077151C28.5835 0.077151 28.3879 0.0991941 28.2033 0.140525C28.0187 0.181856 27.8423 0.242474 27.6825 0.319625C27.3574 0.476683 27.0846 0.702625 26.8724 0.980919C26.663 1.25921 26.5142 1.59262 26.4453 1.96184C26.4095 2.14645 26.393 2.33933 26.3985 2.54047C26.404 2.74161 26.4288 2.94827 26.4756 3.16319L30.8815 22.7761L11.1199 23.6082C10.668 23.6275 10.2574 23.7377 9.89922 23.9223C9.72012 24.0132 9.5548 24.1235 9.40601 24.2502V24.253C9.25722 24.3797 9.1222 24.5202 9.00372 24.6773C8.76676 24.9914 8.59868 25.3606 8.51326 25.7657C8.46917 25.9696 8.44713 26.179 8.44989 26.3994C8.44989 26.6198 8.47193 26.8458 8.51877 27.0772L12.6767 47.4644C12.7263 47.7041 12.7951 47.9328 12.8861 48.1532V48.1587C12.977 48.3792 13.0872 48.5913 13.2112 48.7897C13.3379 48.9909 13.4812 49.1782 13.6383 49.3518C13.7953 49.5254 13.9662 49.6852 14.1508 49.8285C14.5173 50.1178 14.9278 50.341 15.3632 50.4815C15.7958 50.6221 16.2532 50.6827 16.7105 50.6441L36.7505 48.9137L41.5283 70.1909C41.5807 70.4278 41.6551 70.6565 41.746 70.8769V70.8852L41.7515 70.8935C41.8425 71.1112 41.9527 71.3206 42.0767 71.5162C42.2034 71.7146 42.3439 71.8992 42.4982 72.07V72.0728C42.6525 72.2436 42.8179 72.3979 42.9942 72.5385C43.1706 72.6762 43.3552 72.7974 43.548 72.9022H43.5508L43.5563 72.9077C43.7492 73.0096 43.9503 73.095 44.1542 73.1584C44.3609 73.2218 44.5703 73.2659 44.7825 73.2852C44.9946 73.3044 45.2095 73.3017 45.4217 73.2741L63.4861 70.9431C63.6872 70.9183 63.8773 70.8687 64.0537 70.7998C64.23 70.7309 64.3953 70.6427 64.5496 70.5353C64.7012 70.4278 64.839 70.3038 64.9657 70.1661H64.9685L64.9712 70.1578C65.0952 70.02 65.2027 69.8657 65.2963 69.7004C65.4837 69.3642 65.6077 68.9785 65.6573 68.5624C65.7041 68.1464 65.6793 67.7 65.5664 67.2398L60.5598 46.861L77.8885 45.3648C78.2577 45.3317 78.5884 45.216 78.8694 45.0314C79.1477 44.8468 79.3764 44.596 79.5445 44.2957C79.6271 44.1469 79.696 43.9843 79.7484 43.8135V43.808C79.8007 43.6371 79.8365 43.4553 79.8558 43.2679C79.8751 43.0778 79.8751 42.8822 79.8586 42.6783H79.8724Z" fill="url(#paint4_linear_1801_11534)"/>
<path d="M31.3081 42.8408L28.6161 29.1052L15.1946 29.9428L17.8866 43.9595L31.3081 42.8408ZM27.0152 31.18L28.9522 41.0608L19.4875 41.8489L17.5532 31.7696L27.0152 31.18Z" fill="#D07500"/>
<path d="M74.2094 33.602C73.7906 29.6259 70.2169 26.3911 66.2408 26.3911C64.3314 26.3911 62.6147 27.1323 61.4051 28.4742C60.1845 29.8298 59.6252 31.6346 59.8263 33.5579C60.2451 37.5339 63.8189 40.7687 67.7949 40.7687C69.7044 40.7687 71.421 40.0275 72.6306 38.6857C73.8512 37.33 74.4106 35.5252 74.2094 33.602ZM71.1785 37.3796C70.3436 38.3054 69.1423 38.8179 67.7949 38.8179C64.8384 38.8179 62.0802 36.316 61.7688 33.3567C61.6256 31.9901 62.0113 30.7226 62.8545 29.783C63.6894 28.8572 64.8907 28.3447 66.2381 28.3447C69.1946 28.3447 71.9528 30.8466 72.2641 33.8059C72.4074 35.1725 72.0217 36.4428 71.1785 37.3796Z" fill="#D07500"/>
<path d="M57.8645 65.3992L59.0768 63.7818L53.387 59.6762L57.5008 53.9781L55.8833 52.7657L51.7723 58.4584L45.4459 53.7163L44.2335 55.3338L50.5572 60.073L45.8179 66.3939L47.4353 67.6063L52.1718 61.2881L57.8645 65.3992Z" fill="#D07500"/>
<path d="M39.5138 2.95926L33.4106 17.7254L49.2844 16.8106L39.5138 2.9565V2.95926ZM46.3389 15.2731L36.5462 15.6203L39.9436 6.60189L46.3361 15.2703L46.3389 15.2731Z" fill="#D07500"/>
</g>
<defs>
<linearGradient id="paint0_linear_1801_11534" x1="8.60999" y1="2.77943" x2="78.6766" y2="10.6666" gradientUnits="userSpaceOnUse">
<stop stop-color="#D39D04"/>
<stop offset="0.47" stop-color="#C06C11"/>
</linearGradient>
<linearGradient id="paint1_linear_1801_11534" x1="-3.63724" y1="32.6132" x2="57.5938" y2="83.5949" gradientUnits="userSpaceOnUse">
<stop stop-color="#D39D04"/>
<stop offset="0.47" stop-color="#C06C11"/>
</linearGradient>
<linearGradient id="paint2_linear_1801_11534" x1="-3.23712" y1="30.0729" x2="80.4574" y2="54.9104" gradientUnits="userSpaceOnUse">
<stop stop-color="#D39D04"/>
<stop offset="0.47" stop-color="#C06C11"/>
</linearGradient>
<linearGradient id="paint3_linear_1801_11534" x1="-2.5712" y1="31.8002" x2="79.3082" y2="59.3076" gradientUnits="userSpaceOnUse">
<stop stop-color="#D39D04"/>
<stop offset="0.47" stop-color="#C06C11"/>
</linearGradient>
<linearGradient id="paint4_linear_1801_11534" x1="20.9289" y1="66.481" x2="58.8597" y2="10.4798" gradientUnits="userSpaceOnUse">
<stop offset="0.16" stop-color="#FBF6C8"/>
<stop offset="0.48" stop-color="#FACC00"/>
</linearGradient>
<clipPath id="clip0_1801_11534">
<rect width="79.8724" height="79.2869" fill="white"/>
</clipPath>
</defs>
</svg>
