<svg width="80" height="25" viewBox="0 0 80 25" fill="none" xmlns="http://www.w3.org/2000/svg">
<g clip-path="url(#clip0_1801_11570)">
<path d="M12.0198 0C5.69088 0 0.500108 4.88036 0 11.0886L6.46691 13.7616C7.01875 13.3822 7.67407 13.1752 8.38112 13.1752C8.4501 13.1752 8.50183 13.1752 8.57081 13.1752L11.4507 9.00193C11.4507 8.98468 11.4507 8.96744 11.4507 8.9502C11.4507 6.44966 13.4857 4.3975 16.0035 4.3975C18.504 4.3975 20.5562 6.43241 20.5562 8.9502C20.5562 11.4507 18.5212 13.5029 16.0035 13.5029C15.969 13.5029 15.9345 13.5029 15.9 13.5029L11.7956 16.4346C11.7956 16.4863 11.7956 16.538 11.7956 16.5898C11.7956 18.4695 10.2608 20.0043 8.38112 20.0043C6.72559 20.0043 5.34598 18.8316 5.03557 17.2623L0.413883 15.3481C1.84523 20.4182 6.5014 24.1259 12.0198 24.1259C18.6764 24.1259 24.0742 18.7282 24.0742 12.0716C24.0742 5.39771 18.6764 0 12.0198 0Z" fill="black"/>
<path d="M7.55332 18.297L6.07024 17.6934C6.32892 18.2453 6.79453 18.6937 7.39811 18.9523C8.70874 19.4869 10.2091 18.8834 10.7437 17.5727C11.0023 16.9347 11.0023 16.2449 10.7437 15.6068C10.485 14.9687 9.98488 14.4859 9.36405 14.2099C8.74323 13.9513 8.07067 13.9513 7.48434 14.1754L9.01915 14.8135C9.98488 15.2102 10.4332 16.3138 10.0366 17.2796C9.62273 18.2453 8.51904 18.7109 7.55332 18.297Z" fill="black"/>
<path d="M19.0212 8.95019C19.0212 7.27742 17.6589 5.91505 15.9861 5.91505C14.3133 5.91505 12.951 7.27742 12.951 8.95019C12.951 10.623 14.3133 11.9853 15.9861 11.9853C17.6589 11.9853 19.0212 10.623 19.0212 8.95019ZM13.727 8.95019C13.727 7.6913 14.7445 6.67384 16.0033 6.67384C17.2622 6.67384 18.2797 7.6913 18.2797 8.95019C18.2797 10.2091 17.2622 11.2265 16.0033 11.2265C14.7445 11.2265 13.727 10.2091 13.727 8.95019Z" fill="black"/>
<path d="M36.9561 8.26039L36.1456 9.67449C35.5248 9.24336 34.6798 8.98468 33.9382 8.98468C33.0932 8.98468 32.5759 9.32958 32.5759 9.9504C32.5759 10.7092 33.5071 10.8816 34.8695 11.3817C36.3526 11.8991 37.1976 12.5199 37.1976 13.865C37.1976 15.7103 35.749 16.7622 33.6451 16.7622C32.6276 16.7622 31.386 16.5035 30.4547 15.9172L31.0411 14.3479C31.8171 14.7618 32.7311 14.986 33.5416 14.986C34.6453 14.986 35.1799 14.5721 35.1799 13.9685C35.1799 13.2787 34.3866 13.0718 33.0932 12.6406C31.6274 12.1405 30.5927 11.5025 30.5927 10.0021C30.5927 8.31212 31.9378 7.3464 33.8865 7.3464C35.2489 7.36364 36.3526 7.79477 36.9561 8.26039Z" fill="black"/>
<path d="M43.268 9.15713V16.607H41.371V9.15713H38.6118V7.51885H46.0272V9.15713H43.268Z" fill="black"/>
<path d="M50.0279 9.15713V11.192H53.6666V12.8303H50.0279V14.9687H54.253V16.607H48.131V7.51885H54.253V9.15713H50.0279Z" fill="black"/>
<path d="M58.4953 14.848L57.8917 16.607H55.8913L59.3058 7.51885H61.22L64.7207 16.607H62.6513L62.0305 14.848H58.4953ZM60.2543 9.69173L59.0126 13.3304H61.5304L60.2543 9.69173Z" fill="black"/>
<path d="M74.4987 11.0368L72.0154 16.3483H70.929L68.4974 11.0886V16.607H66.6694V7.51885H68.4802L71.5326 14.0892L74.4815 7.51885H76.3267V16.607H74.4987V11.0368Z" fill="black"/>
<path d="M80 8.67426C80 9.45029 79.4136 9.93316 78.7411 9.93316C78.0685 9.93316 77.4822 9.45029 77.4822 8.67426C77.4822 7.89824 78.0685 7.41538 78.7411 7.41538C79.4136 7.39813 80 7.88099 80 8.67426ZM77.6891 8.67426C77.6891 9.32958 78.1547 9.74346 78.7411 9.74346C79.3102 9.74346 79.793 9.32958 79.793 8.67426C79.793 8.01895 79.3274 7.62231 78.7411 7.62231C78.172 7.60507 77.6891 8.01895 77.6891 8.67426ZM78.7583 8.01895C79.086 8.01895 79.1895 8.1914 79.1895 8.3811C79.1895 8.55355 79.086 8.67427 78.9653 8.726L79.2584 9.27784H79.017L78.7756 8.79498H78.5169V9.27784H78.3099V8.0362H78.7583V8.01895ZM78.5169 8.60528H78.7411C78.879 8.60528 78.9653 8.51906 78.9653 8.39834C78.9653 8.27763 78.8963 8.20865 78.7411 8.20865H78.5169V8.60528Z" fill="black"/>
</g>
<defs>
<clipPath id="clip0_1801_11570">
<rect width="80" height="24.1259" fill="white"/>
</clipPath>
</defs>
</svg>
