<svg width="80" height="14" viewBox="0 0 80 14" fill="none" xmlns="http://www.w3.org/2000/svg">
<g clip-path="url(#clip0_1801_11573)">
<path d="M7.78682 7.55428C7.78682 8.50482 7.56946 9.23521 7.13468 9.74553C6.69983 10.2558 6.08718 10.516 5.27688 10.516C4.46657 10.516 3.8539 10.2558 3.4191 9.74553C2.9843 9.23521 2.7669 8.50482 2.7669 7.55428V0H0V7.77442C0 8.81498 0.207518 9.7355 0.612671 10.556C1.01782 11.3765 1.62061 12.0168 2.42104 12.477C3.22146 12.9373 4.17011 13.1675 5.28676 13.1675C6.39353 13.1675 7.35204 12.9373 8.15245 12.477C8.95293 12.0168 9.55569 11.3765 9.96081 10.556C10.366 9.7355 10.5735 8.80495 10.5735 7.77442V0H7.78682V7.55428Z" fill="black"/>
<path d="M18.4793 5.91335C19.003 5.69322 19.418 5.35303 19.7145 4.88276C20.0109 4.42251 20.1591 3.83217 20.1591 3.13177C20.1591 2.17123 19.7836 1.4108 19.0425 0.840477C18.3014 0.280159 17.3033 0 16.0582 0H11.7991V12.9573H16.2262C17.1452 12.9573 17.9358 12.7972 18.6176 12.4671C19.2995 12.1369 19.8232 11.6866 20.1987 11.0963C20.5742 10.5059 20.7521 9.84558 20.7521 9.10516C20.762 7.56431 20.001 6.49368 18.4793 5.91335ZM14.5859 2.49141H16.0483C16.4831 2.49141 16.8389 2.61148 17.0958 2.85162C17.3626 3.09175 17.4911 3.43194 17.4911 3.86218C17.4911 4.29243 17.3626 4.63262 17.0958 4.87276C16.829 5.11289 16.4831 5.23296 16.0483 5.23296H14.5859V2.49141ZM17.5009 10.0757C17.1748 10.3559 16.7203 10.496 16.1175 10.496H14.5859V7.2341H16.1175C16.7104 7.2341 17.1748 7.37417 17.5009 7.65433C17.8271 7.93448 17.9851 8.33473 17.9851 8.86503C17.9851 9.39534 17.8172 9.79552 17.5009 10.0757Z" fill="black"/>
<path d="M24.5121 0H21.7353V12.9573H24.5121V0Z" fill="black"/>
<path d="M31.1829 5.44308C30.2046 5.09289 29.5326 4.78271 29.1472 4.51255C28.7619 4.2324 28.5741 3.91221 28.5741 3.542C28.5741 3.21182 28.7125 2.94166 28.9891 2.73155C29.2658 2.52142 29.6117 2.42137 30.0366 2.42137C30.9853 2.42137 31.6869 2.92165 32.1217 3.92222L34.3352 2.37134C33.9794 1.5909 33.4458 1.00056 32.7146 0.600341C31.9932 0.200113 31.1335 0 30.1453 0C29.3449 0 28.6235 0.16009 27.9911 0.470268C27.3587 0.780443 26.8645 1.22069 26.5088 1.771C26.1531 2.33132 25.9752 2.95167 25.9752 3.64206C25.9752 4.64263 26.2717 5.43307 26.8645 6.02341C27.4575 6.61377 28.3073 7.10404 29.414 7.51425C30.3034 7.83444 30.9161 8.13458 31.2422 8.42475C31.5683 8.70491 31.7363 9.04514 31.7363 9.44533C31.7363 9.8556 31.588 10.1758 31.3015 10.4159C31.005 10.656 30.6295 10.7761 30.1651 10.7761C29.6315 10.7761 29.1275 10.606 28.6631 10.2558C28.1986 9.90559 27.8725 9.45535 27.6749 8.88502L25.4614 10.556C25.8171 11.4665 26.3903 12.1769 27.2006 12.6672C28.001 13.1574 28.9694 13.4076 30.086 13.4076C30.9062 13.4076 31.6474 13.2475 32.3193 12.9173C32.9913 12.5871 33.5249 12.1169 33.9202 11.4865C34.3154 10.8561 34.513 10.1057 34.513 9.24523C34.513 8.28468 34.2462 7.51425 33.7126 6.94392C33.179 6.34358 32.3292 5.85331 31.1829 5.44308Z" fill="black"/>
<path d="M45.2496 0.880495C44.2614 0.290164 43.135 0 41.8997 0C40.9016 0 39.9727 0.170096 39.1229 0.510286C38.2731 0.850482 37.5913 1.28072 37.0774 1.81103L37.5122 2.25127C36.8501 2.81159 36.3362 3.49197 35.9607 4.31244C35.5853 5.1329 35.3975 6.07345 35.3975 7.13405C35.3975 8.26469 35.6742 9.31527 36.2177 10.2758C36.7711 11.2364 37.5319 11.9868 38.5201 12.5571C39.5083 13.1174 40.6348 13.3976 41.8997 13.3976C43.1448 13.3976 44.2614 13.1074 45.2595 12.5171C46.2576 11.9268 47.0284 11.1263 47.5817 10.1057C48.1351 9.08517 48.4118 7.94451 48.4118 6.69377C48.4118 5.44308 48.1351 4.31244 47.5817 3.29186C47.0185 2.27128 46.2477 1.47083 45.2496 0.880495ZM45.1311 8.78497C44.8247 9.39534 44.3899 9.87558 43.8365 10.2158C43.2733 10.566 42.631 10.7361 41.8997 10.7361C41.1586 10.7361 40.5063 10.566 39.9431 10.2358C39.3799 9.90559 38.955 9.45535 38.6585 8.89504C38.362 8.33473 38.2138 7.71434 38.2138 7.05399C38.2138 6.40366 38.3324 5.85331 38.5597 5.41306C38.7869 4.97282 39.1032 4.5926 39.4886 4.25241L39.0537 3.81216C39.37 3.46196 39.7653 3.1918 40.2494 2.98169C40.7337 2.77157 41.287 2.67151 41.8997 2.67151C42.631 2.67151 43.2733 2.84161 43.8365 3.1918C44.3998 3.542 44.8346 4.01227 45.1311 4.62262C45.4374 5.23296 45.5856 5.92335 45.5856 6.70379C45.5856 7.48424 45.4374 8.17461 45.1311 8.78497Z" fill="black"/>
<path d="M49.6806 12.9574H52.4574V7.79441H57.8924V5.6532H52.4574V2.67152H58.4359V3.8147e-06H49.6806V12.9574Z" fill="black"/>
<path d="M59.6167 2.67152H63.2137V12.9574H65.9906V2.67152H69.5774V3.8147e-06H59.6167V2.67152Z" fill="black"/>
<path d="M76.1509 3.23183V3.8147e-06H73.9967V3.23183H70.7948V5.41307H73.9967V8.65492H76.1509V5.41307H78.8089L79.7083 3.23183H76.1509Z" fill="#428EE0"/>
</g>
<defs>
<clipPath id="clip0_1801_11573">
<rect width="79.7083" height="13.4076" fill="white"/>
</clipPath>
</defs>
</svg>
