<svg width="80" height="14" viewBox="0 0 80 14" fill="none" xmlns="http://www.w3.org/2000/svg">
<g clip-path="url(#clip0_1801_11484)">
<path d="M6.81885 5.46884C6.82702 5.47001 6.83519 5.47351 6.84102 5.48052C8.88104 7.03154 12.3729 10.8688 11.3073 11.953C8.73632 14.2008 4.9002 14.2008 2.32918 11.953C1.26482 10.8688 4.75666 7.03387 6.79551 5.48052C6.80251 5.47468 6.81068 5.47001 6.81885 5.46884ZM10.3714 0.997837C8.19014 -0.332612 5.44755 -0.332612 3.26632 0.997837C3.25465 1.00484 3.24882 1.01884 3.25465 1.03168C3.26165 1.04335 3.27566 1.04802 3.28733 1.04335C4.60727 0.757422 6.61344 1.89764 6.80367 2.01318C6.81184 2.02018 6.82468 2.02018 6.83285 2.01318C7.02308 1.89881 9.02809 0.758589 10.3492 1.04335C10.362 1.04802 10.376 1.04335 10.3819 1.03168C10.3877 1.01884 10.383 1.00367 10.3714 0.997837ZM2.04558 1.95599C2.03391 1.96183 2.02457 1.97 2.01524 1.97933C-0.413409 4.39048 -0.679499 8.22778 1.39436 10.9505C1.40253 10.9622 1.4177 10.9669 1.43054 10.961C1.44104 10.9529 1.44455 10.9377 1.43871 10.926C0.91937 9.31898 3.57676 5.42216 4.94922 3.78828C4.95505 3.78361 4.95739 3.77661 4.95856 3.76844C4.95856 3.7591 4.95389 3.75093 4.94689 3.74626C2.86602 1.67706 2.15995 1.89998 2.04558 1.95599ZM8.69081 3.74626C8.6838 3.7521 8.67914 3.76027 8.67914 3.76844C8.6803 3.77544 8.68264 3.78244 8.68847 3.78828C10.0609 5.42216 12.7183 9.31781 12.199 10.926C12.1931 10.9377 12.1966 10.9529 12.2071 10.961C12.22 10.9669 12.2363 10.9622 12.2433 10.9505C14.316 8.22778 14.0511 4.39048 11.6225 1.97933C11.6131 1.97 11.6038 1.963 11.5921 1.95599C11.4766 1.89998 10.7705 1.67706 8.69081 3.74626ZM30.034 2.82078H28.6171L25.4159 11.0182H26.716L27.5084 8.89417H31.1415L31.9339 11.0182H33.2329L30.034 2.82078ZM27.9087 7.80297L29.3267 4.05204L30.7447 7.80297H27.9087ZM24.7612 6.70126V11.0182H23.5836V9.94686C23.2965 10.3472 22.9137 10.6693 22.4703 10.884C21.9859 11.1046 21.4584 11.2143 20.9262 11.2038C20.3812 11.212 19.8397 11.1116 19.3344 10.9073C18.8617 10.7078 18.4416 10.4032 18.1043 10.0169C17.746 9.62241 17.4729 9.15792 17.3014 8.65259C16.9442 7.51937 16.9442 6.30212 17.3049 5.16891C17.4776 4.66474 17.7542 4.20142 18.1171 3.81045C18.4649 3.42649 18.8932 3.12539 19.3729 2.92932C19.8899 2.72742 20.4407 2.62822 20.9963 2.63755C21.8937 2.60488 22.776 2.88147 23.4949 3.42066C24.1438 3.94583 24.5651 4.70092 24.6702 5.52837V5.54237H23.3841V5.53303C23.286 5.01136 22.9943 4.54687 22.5671 4.23176C22.1143 3.90615 21.5669 3.73693 21.0079 3.7521C20.2633 3.72292 19.5468 4.0392 19.0659 4.60872C18.0903 5.99519 18.0903 7.84498 19.0659 9.23028C19.5573 9.79864 20.2809 10.1137 21.0313 10.0869C21.6918 10.1032 22.3337 9.86633 22.825 9.42401C23.3024 9.00504 23.5801 8.40284 23.5895 7.76796H21.1795V6.69893L24.7612 6.70126ZM44.8089 3.947V6.32197H48.8808V7.36765H44.8089V9.892H49.4118V11.0182H43.5578V2.82195H49.4129V3.94817L44.8089 3.947ZM42.3044 2.82078V11.0182H41.0988V4.51536C40.9436 4.97168 40.7359 5.5377 40.4791 6.20293L38.6282 11.0206H37.579L37.5755 11.0124L35.7047 6.20176C35.4818 5.60772 35.2775 5.04987 35.0966 4.53753V11.0194H33.8899V2.82312H35.6102L37.2896 7.18209C37.6257 8.06439 37.9046 8.82998 38.1182 9.45552C38.3667 8.71094 38.6492 7.908 38.9561 7.06888L40.5771 2.82545L42.3044 2.82078ZM58.104 3.51869C57.5298 3.02502 56.7852 2.77527 56.029 2.82078H52.5395V11.0182H53.7917V7.99787H56.029C56.7852 8.04338 57.5287 7.79363 58.104 7.29996C59.089 6.23094 59.089 4.58655 58.104 3.51869ZM53.7917 3.92482H56.0068C56.4305 3.89565 56.8483 4.03453 57.1692 4.31112C57.4493 4.60872 57.5929 5.00786 57.5672 5.41633C57.594 5.82247 57.4493 6.22043 57.1692 6.5157C56.8459 6.78996 56.4293 6.9265 56.0068 6.89733H53.7917V3.92482ZM72.7074 8.74712C72.7342 9.44969 72.418 10.1219 71.859 10.5491C71.1727 11.0217 70.3476 11.2528 69.5155 11.2061C68.6134 11.2598 67.7206 10.9995 66.9877 10.4685C66.3645 9.93052 66.026 9.13458 66.0704 8.31297V8.3013H67.3226V8.31297C67.2969 8.83115 67.5058 9.33415 67.8921 9.68077C68.3718 10.018 68.953 10.1791 69.5377 10.1371C70.0255 10.1674 70.5098 10.0461 70.9253 9.7893C71.2463 9.55706 71.4283 9.17893 71.4085 8.7833C71.4236 8.46002 71.2743 8.15075 71.0117 7.96052C70.5682 7.6991 70.0792 7.5217 69.5704 7.43884L68.8701 7.28946C68.1722 7.18559 67.5128 6.89966 66.9597 6.46085C66.5197 6.05121 66.2828 5.46768 66.3131 4.86781C66.2944 4.23176 66.5874 3.62606 67.0985 3.2456C67.7182 2.81378 68.464 2.60138 69.2179 2.64106C70.0827 2.5792 70.9405 2.82312 71.6419 3.33313C72.1904 3.81162 72.4973 4.50836 72.4787 5.2366V5.24827H71.2381V5.2366C71.2381 4.79545 71.049 4.37414 70.7199 4.08004C70.2776 3.79645 69.7536 3.66574 69.2296 3.70892C68.8013 3.68208 68.3765 3.78478 68.0077 4.00535C67.7322 4.19441 67.5735 4.51186 67.5887 4.84563C67.5689 5.17008 67.7077 5.48402 67.9633 5.68592C68.3858 5.95901 68.8608 6.13874 69.3591 6.21226L70.071 6.36165C70.8074 6.47252 71.503 6.77012 72.0912 7.22527C72.5078 7.61624 72.7331 8.17292 72.7074 8.74712ZM79.998 8.74712C80.0249 9.44969 79.7086 10.1219 79.1496 10.5491C78.4633 11.0217 77.6382 11.2528 76.8061 11.2061C75.904 11.2598 75.0112 10.9995 74.2783 10.4685C73.6551 9.93052 73.3166 9.13458 73.361 8.31297V8.3013H74.6132V8.31297C74.5875 8.83115 74.7964 9.33415 75.1827 9.68077C75.6624 10.018 76.2436 10.1791 76.8283 10.1371C77.3161 10.1674 77.8004 10.0461 78.2159 9.7893C78.5369 9.55706 78.7189 9.17893 78.6991 8.7833C78.7143 8.46002 78.5649 8.15075 78.3023 7.96052C77.8576 7.6991 77.3686 7.52287 76.861 7.44001L76.1607 7.29063C75.4628 7.18676 74.8034 6.90083 74.2503 6.46201C73.8103 6.05238 73.5734 5.46885 73.6037 4.86898C73.585 4.23293 73.878 3.62722 74.3891 3.24676C75.0088 2.81495 75.7546 2.60254 76.5085 2.64222C77.3733 2.5792 78.2311 2.82428 78.9325 3.33429C79.481 3.81278 79.7879 4.50952 79.7693 5.23777V5.24944H78.5287V5.23777C78.5287 4.79662 78.3396 4.37531 78.0105 4.08121C77.5682 3.79762 77.0442 3.6669 76.5202 3.71008C76.093 3.68324 75.6671 3.78711 75.2994 4.00652C75.024 4.19558 74.8653 4.51302 74.8805 4.8468C74.8606 5.17125 74.9995 5.48518 75.2551 5.68708C75.6776 5.96018 76.1526 6.13991 76.6509 6.21343L77.3628 6.36281C78.0992 6.47368 78.7948 6.77128 79.383 7.22644C79.7984 7.6174 80.0237 8.17292 79.998 8.74712ZM62.5867 2.82312H61.1699L57.9686 11.0206H59.2687L60.0612 8.8965H63.6942L64.4867 11.0206H65.7868L62.5867 2.82312ZM60.4615 7.80413L61.8783 4.0532L63.2963 7.80413H60.4615Z" fill="black"/>
</g>
<defs>
<clipPath id="clip0_1801_11484">
<rect width="80" height="13.6389" fill="white"/>
</clipPath>
</defs>
</svg>
