<svg width="80" height="32" viewBox="0 0 80 32" fill="none" xmlns="http://www.w3.org/2000/svg">
<g clip-path="url(#clip0_1801_10672)">
<g clip-path="url(#clip1_1801_10672)">
<path fill-rule="evenodd" clip-rule="evenodd" d="M8.3501 7.48599C12.2617 13.229 15.6738 18.8625 19.2208 24.8605L21.7983 29.3686C21.9037 29.5477 22.538 30.7722 22.6919 30.9071C22.3484 29.4444 21.617 27.0439 21.1808 25.4591C20.9321 24.5528 20.6813 23.6529 20.4347 22.7699C20.3167 22.3483 19.6655 20.3209 19.7772 20.0532C19.6107 20.0596 19.6128 19.9479 19.5222 19.7877C19.1765 19.1849 18.382 18.0384 18.1544 17.5558L17.7687 16.9088C17.5664 16.7065 17.1322 15.9098 16.9488 15.6211C16.6854 15.2059 16.4135 14.6832 16.1353 14.3228C15.9878 14.0257 15.7623 13.7074 15.5747 13.4019L13.9098 10.6726L13.9182 10.6684L8.35221 7.48389L8.3501 7.48599Z" fill="#4FB234"/>
<path fill-rule="evenodd" clip-rule="evenodd" d="M8.31867 7.44171L8.34817 7.48597L13.9142 10.6726H13.9205L17.1809 9.20783C17.7499 8.97811 18.3189 8.78 18.8943 8.56292C19.4212 8.36692 20.1356 8.09926 20.6815 7.97071C20.8796 7.85479 23.0419 7.2689 23.3496 7.23728L23.533 7.18459C23.7269 7.07711 25.8787 6.68089 26.1948 6.68511C26.2875 6.52283 27.7164 5.23512 27.9736 4.99697C28.6585 4.35839 33.1707 0.288733 33.3836 0H32.8588V0.0632261H32.9157C27.3729 0.880951 17.752 3.44582 12.3293 5.68192L9.47992 6.87689C9.23755 6.9907 9.0268 7.075 8.79708 7.17616C8.6917 7.22253 8.58 7.28576 8.45777 7.33001L8.31445 7.43961L8.31867 7.44171Z" fill="#00933D"/>
<path fill-rule="evenodd" clip-rule="evenodd" d="M26.1965 6.68514C25.9647 7.1762 25.7687 8.00657 25.5769 8.55031C24.5505 11.465 23.267 14.3692 21.6927 17.0142C21.3681 17.5579 21.0836 18.0511 20.7612 18.5421L19.777 20.0532C19.6653 20.3209 20.3186 22.3484 20.4345 22.7699C20.6811 23.655 20.9319 24.5549 21.1806 25.4591C21.6147 27.0439 22.3481 29.4423 22.6917 30.9071L22.717 31.0335C22.9572 30.867 25.5769 24.7151 25.9415 23.8679C27.0163 21.3747 27.9289 18.8541 28.8499 16.2997C30.9111 10.5778 32.0892 5.90746 33.4507 -0.0020752H33.3853C33.1725 0.28455 28.6602 4.3542 27.9753 4.9949C27.7182 5.23515 26.2892 6.52075 26.1965 6.68303V6.68514Z" fill="#BBD054"/>
<path fill-rule="evenodd" clip-rule="evenodd" d="M4.46402 7.56609L8.1206 13.2333C10.6475 17.3198 12.7024 20.6771 15.0713 24.9301C16.1819 26.9238 17.2336 28.9871 18.3105 31.0272L22.7174 31.0356L22.6921 30.9092C22.5383 30.7722 21.9039 29.5498 21.7985 29.3707L19.221 24.8626C15.6635 18.8498 12.2429 13.2016 8.31871 7.44385H8.05527L4.46191 7.56819L4.46402 7.56609Z" fill="#1C5F32"/>
<path fill-rule="evenodd" clip-rule="evenodd" d="M0 7.80417C0.086409 8.05919 0.29084 8.28891 0.438368 8.51441C4.94217 15.3407 9.05398 22.2029 12.8033 29.5076C13.0414 29.9712 13.3428 30.6478 13.6084 31.0461L17.4862 31.0798C17.4167 30.8396 17.2144 30.5087 17.0963 30.2853L15.874 28.0155C14.346 25.1977 12.4176 21.8319 10.7801 19.1343C9.62723 17.2333 8.45333 15.2733 7.24993 13.3681C7.05814 13.0646 3.68187 7.80628 3.63761 7.62292C3.36152 7.6988 0.381464 7.84 0.00210754 7.80417H0Z" fill="#1C5F32"/>
<path fill-rule="evenodd" clip-rule="evenodd" d="M23.5348 7.18458C23.7224 7.15718 23.5707 7.16561 23.6255 7.23094C23.2208 8.9254 22.0975 11.3322 21.3072 12.7927C20.5864 14.1226 19.9373 15.2902 19.0753 16.4641L18.4262 17.2902C18.2997 17.4377 18.3208 17.4883 18.1543 17.5558C18.3819 18.0384 19.1765 19.1849 19.5221 19.7877C19.6127 19.9457 19.6106 20.0595 19.7771 20.0532L20.7613 18.5421C21.0838 18.0489 21.3683 17.5579 21.6929 17.0141C23.2672 14.3692 24.5507 11.465 25.577 8.55026C25.7688 8.00652 25.9669 7.17615 26.1967 6.68509C25.8805 6.68088 23.7287 7.0792 23.5348 7.18458Z" fill="#1C5F32"/>
<path fill-rule="evenodd" clip-rule="evenodd" d="M20.6835 7.9707L20.7509 8.01917C20.0575 9.45229 19.8636 10.0572 18.7719 11.4882C18.5338 11.8001 16.6496 14.1647 16.1333 14.3249C16.4115 14.6853 16.6855 15.2059 16.9468 15.6232C17.1302 15.9119 17.5643 16.7085 17.7666 16.9109C18.6834 15.9351 18.6286 16.0868 19.5011 14.8729C19.9985 14.1795 20.5317 13.3007 20.9553 12.4893C21.6108 11.2289 22.947 8.52287 23.3516 7.23938C23.0439 7.27099 20.8816 7.85689 20.6835 7.9728V7.9707Z" fill="#1C5F32"/>
<path fill-rule="evenodd" clip-rule="evenodd" d="M4.46387 7.56604L8.05722 7.43959H8.32066L8.46397 7.33L8.80329 7.17615C9.03301 7.07498 9.24165 6.98858 9.48613 6.87688L12.3355 5.6819C17.7561 3.44581 27.377 0.880933 32.9198 0.0653163H32.8629C32.1969 -0.0990716 29.5646 0.337189 28.8186 0.472071C22.6266 1.59539 16.9784 3.20133 11.0478 5.14027C10.4746 5.32784 4.92542 7.27099 4.46597 7.56604H4.46387Z" fill="#BBD054"/>
<path fill-rule="evenodd" clip-rule="evenodd" d="M0 7.80423C0.381464 7.84006 3.36152 7.69886 3.6355 7.62298C7.36373 6.15825 11.033 4.80732 15.0057 3.64185C17.0268 3.04963 18.9763 2.52907 21.069 2.02115C22.1017 1.77035 23.1344 1.53642 24.1945 1.31513C24.7615 1.1971 27.1514 0.777705 27.4191 0.642822C26.3885 0.710263 21.0543 1.71977 20.0869 1.9242C17.6717 2.43423 15.3913 2.95268 13.0435 3.55333C10.0234 4.31837 2.96952 6.48281 0 7.80423Z" fill="#BBD054"/>
<path fill-rule="evenodd" clip-rule="evenodd" d="M37.9736 10.5988H36.2307V16.2175H37.9736C38.9262 16.2175 39.6744 15.9667 40.2203 15.4672C40.764 14.9656 41.0359 14.2827 41.0359 13.4144C41.0359 12.5461 40.764 11.8549 40.2203 11.3533C39.6765 10.8496 38.9283 10.5988 37.9736 10.5988ZM37.9736 9.54711C38.5448 9.54711 39.0337 9.5998 39.4447 9.70728C39.8535 9.81476 40.2308 9.98337 40.5722 10.2131C41.097 10.5672 41.4995 11.0203 41.784 11.5724C42.0686 12.1267 42.2119 12.7358 42.2119 13.4018C42.2119 14.0678 42.0686 14.6811 41.7819 15.2396C41.4932 15.796 41.0928 16.2491 40.5722 16.5989C40.2392 16.8308 39.8641 16.9994 39.4468 17.1047C39.0295 17.2122 38.5405 17.2649 37.9736 17.2649H35.1348V9.545H37.9736V9.54711ZM44.2709 13.4144C44.2709 13.8085 44.3447 14.1858 44.4922 14.542C44.6398 14.8981 44.8526 15.2143 45.1266 15.4925C45.3964 15.7686 45.7104 15.9814 46.075 16.1289C46.4375 16.2786 46.8147 16.3523 47.2088 16.3523C47.603 16.3523 47.9928 16.2786 48.349 16.1332C48.7031 15.9877 49.0213 15.7728 49.2995 15.4904C49.5756 15.2143 49.7885 14.896 49.936 14.5399C50.0856 14.1837 50.1594 13.8064 50.1594 13.4123C50.1594 13.0182 50.0856 12.6473 49.9381 12.2953C49.7906 11.9455 49.5735 11.623 49.2869 11.3322C49.0108 11.0477 48.6947 10.8327 48.3364 10.6852C47.9802 10.5355 47.603 10.4618 47.2067 10.4618C46.8105 10.4618 46.4522 10.5376 46.094 10.6873C45.7357 10.8369 45.4111 11.0519 45.1266 11.3343C44.8526 11.602 44.6376 11.916 44.4922 12.2785C44.3447 12.6389 44.2709 13.0161 44.2709 13.4144ZM43.0949 13.3723C43.0949 12.858 43.2003 12.3565 43.409 11.8717C43.6176 11.3849 43.9169 10.957 44.3047 10.584C44.6988 10.2047 45.1435 9.91803 45.6408 9.71782C46.1361 9.51971 46.6609 9.42065 47.2088 9.42065C47.7568 9.42065 48.2984 9.51971 48.8 9.72203C49.3016 9.92225 49.7442 10.211 50.1257 10.584C50.5261 10.9739 50.8275 11.4102 51.0319 11.8865C51.2342 12.3649 51.3354 12.8854 51.3354 13.4439C51.3354 13.9687 51.2321 14.4745 51.0235 14.9593C50.8169 15.444 50.5198 15.8697 50.1383 16.2364C49.7379 16.6179 49.2911 16.9087 48.7958 17.1047C48.3005 17.3028 47.7716 17.3998 47.2088 17.3998C46.6461 17.3998 46.134 17.2986 45.6324 17.0963C45.1308 16.8919 44.6882 16.6074 44.3068 16.2343C43.9084 15.8486 43.6071 15.4103 43.4047 14.9276C43.2003 14.4408 43.097 13.9224 43.097 13.3702L43.0949 13.3723ZM52.5662 17.267V9.54711H53.5272L56.3071 12.7885L59.089 9.54711H60.0501V17.267H58.9752V11.2395L56.305 14.3502L53.6389 11.2395V17.267H52.5641H52.5662ZM62.7983 12.9613H63.9954C64.5328 12.9613 64.9206 12.8644 65.1608 12.6747C65.4011 12.4829 65.5233 12.1773 65.5233 11.7537C65.5233 11.3301 65.4032 11.0245 65.1608 10.8327C64.9206 10.6388 64.5307 10.5419 63.9954 10.5419H62.7983V12.9613ZM61.7024 17.267V9.54711H64.1113C64.9164 9.54711 65.5444 9.741 65.9975 10.1309C66.4507 10.5208 66.6762 11.0624 66.6762 11.7537C66.6762 12.445 66.4507 12.9782 65.9975 13.3639C65.5444 13.7495 64.9164 13.9434 64.1113 13.9434H62.7983V17.267H61.7024ZM67.829 17.267V9.54711H72.474V10.5313H68.9249V12.8707H72.3728V13.8655H68.9249V16.2723H72.5878V17.267H67.829ZM76.0695 17.267V10.5524H73.2327V9.54711H80.0042V10.5524H77.1675V17.267H76.0716H76.0695ZM37.9757 20.0679H36.2328V25.6866H37.9757C38.9283 25.6866 39.6765 25.4358 40.2224 24.9363C40.7661 24.4347 41.038 23.7519 41.038 22.8836C41.038 22.0153 40.7661 21.324 40.2224 20.8224C39.6786 20.3187 38.9304 20.0679 37.9757 20.0679ZM37.9757 19.0163C38.5469 19.0163 39.0358 19.069 39.4468 19.1764C39.8556 19.2839 40.2329 19.4525 40.5743 19.6823C41.0991 20.0363 41.5016 20.4894 41.7862 21.0416C42.0707 21.5959 42.214 22.205 42.214 22.871C42.214 23.5369 42.0707 24.1502 41.784 24.7087C41.4953 25.2651 41.0949 25.7182 40.5743 26.0681C40.2413 26.2999 39.8662 26.4685 39.4489 26.5739C39.0316 26.6814 38.5427 26.7341 37.9757 26.7341H35.1369V19.0142H37.9757V19.0163ZM43.5143 26.7362V19.0163H44.6103V22.3399H49.0635V19.0163H50.1594V26.7362H49.0635V23.3789H44.6103V26.7362H43.5143ZM51.7632 19.0163H52.8592V23.4484C52.8592 23.9416 52.8865 24.2914 52.9392 24.498C52.994 24.7024 53.0826 24.8815 53.209 25.0333C53.4366 25.3031 53.7064 25.5033 54.0183 25.636C54.3302 25.7688 54.6864 25.8342 55.0847 25.8342C55.7528 25.8342 56.2923 25.6613 56.7012 25.3157C57.1101 24.9701 57.3145 24.5127 57.3145 23.9458V19.0163H58.4104V23.9795C58.4104 24.8394 58.1027 25.5349 57.4894 26.0702C56.8761 26.6055 56.0753 26.8732 55.0847 26.8732C54.4988 26.8732 53.9719 26.7699 53.4998 26.5634C53.0299 26.3547 52.6336 26.0512 52.3091 25.6487C52.1089 25.4084 51.9698 25.1429 51.8876 24.8499C51.8054 24.557 51.7632 24.1039 51.7632 23.4927V19.0163ZM61.2998 23.4695H63.7066L62.4885 20.6897L61.3019 23.4695H61.2998ZM58.7539 26.7362L62.1007 19.0163H62.9058L66.2947 26.7362H65.1524L64.1577 24.4643H60.8678L59.8857 26.7362H58.7539ZM66.8701 26.7362V19.0163H71.2664V20.0005H67.966V22.283H71.1652V23.2777H67.966V26.7362H66.8701ZM73.6247 23.4695H76.0315L74.8134 20.6897L73.6268 23.4695H73.6247ZM71.0788 26.7362H72.2106L73.1927 24.4643H76.4825L77.4773 26.7362H78.6196L75.2307 19.0163H74.4256L71.0788 26.7362Z" fill="#00933D"/>
</g>
</g>
<defs>
<clipPath id="clip0_1801_10672">
<rect width="80" height="31.0777" fill="white"/>
</clipPath>
<clipPath id="clip1_1801_10672">
<rect width="80" height="31.0777" fill="white"/>
</clipPath>
</defs>
</svg>
