<svg width="80" height="75" viewBox="0 0 80 75" fill="none" xmlns="http://www.w3.org/2000/svg">
<g clip-path="url(#clip0_1801_10468)">
<path fill-rule="evenodd" clip-rule="evenodd" d="M19.9698 17.9083C29.3246 31.6432 37.4849 45.1159 45.9677 59.4607L52.1321 70.2419C52.3841 70.6704 53.9012 73.5988 54.2692 73.9214C53.4476 70.4234 51.6986 64.6825 50.6552 60.8921C50.0605 58.7248 49.4607 56.5726 48.871 54.4607C48.5887 53.4526 47.0312 48.6038 47.2984 47.9637C46.9002 47.9788 46.9052 47.7117 46.6885 47.3286C45.8619 45.8871 43.9617 43.1452 43.4173 41.9909L42.495 40.4436C42.0111 39.9597 40.9728 38.0544 40.5343 37.3639C39.9042 36.371 39.254 35.121 38.5887 34.2591C38.2359 33.5484 37.6966 32.7873 37.248 32.0565L33.2661 25.5292L33.2863 25.5192L19.9748 17.9032L19.9698 17.9083Z" fill="#4FB234"/>
<path fill-rule="evenodd" clip-rule="evenodd" d="M19.8942 17.8024L19.9647 17.9083L33.2762 25.5292H33.2913L41.0887 22.0262C42.4496 21.4768 43.8105 21.003 45.1865 20.4839C46.4466 20.0151 48.1552 19.375 49.4607 19.0675C49.9345 18.7903 55.1058 17.3891 55.8417 17.3135L56.2802 17.1875C56.744 16.9304 61.8901 15.9829 62.6462 15.9929C62.8679 15.6048 66.2853 12.5252 66.9002 11.9556C68.5383 10.4284 79.3296 0.695569 79.8387 0.00504508H78.5837V0.156255H78.7198C65.4637 2.1119 42.4546 8.24597 29.4859 13.5938L22.6714 16.4516C22.0917 16.7238 21.5877 16.9254 21.0383 17.1673C20.7863 17.2782 20.5192 17.4294 20.2268 17.5353L19.8841 17.7974L19.8942 17.8024Z" fill="#00933D"/>
<path fill-rule="evenodd" clip-rule="evenodd" d="M62.6512 15.9929C62.0968 17.1673 61.628 19.1532 61.1694 20.4536C58.7147 27.4244 55.6452 34.37 51.88 40.6956C51.1038 41.996 50.4234 43.1754 49.6522 44.3498L47.2984 47.9637C47.0312 48.6038 48.5937 53.4526 48.871 54.4607C49.4607 56.5776 50.0605 58.7298 50.6552 60.8921C51.6935 64.6825 53.4476 70.4183 54.2692 73.9214L54.3296 74.2238C54.9042 73.8256 61.1694 59.1129 62.0413 57.0867C64.6119 51.124 66.7944 45.0958 68.997 38.9869C73.9264 25.3024 76.744 14.1331 80 0H79.8438C79.3347 0.685484 68.5434 10.4183 66.9052 11.9506C66.2903 12.5252 62.873 15.5998 62.6512 15.9879V15.9929Z" fill="#BBD054"/>
<path fill-rule="evenodd" clip-rule="evenodd" d="M10.6754 18.0998L19.4204 31.6532C25.4637 41.4264 30.378 49.4556 36.0433 59.627C38.6996 64.3952 41.2147 69.3296 43.7903 74.2087L54.3296 74.2288L54.2692 73.9264C53.9012 73.5988 52.3841 70.6754 52.1321 70.247L45.9677 59.4657C37.4597 45.0857 29.2792 31.5776 19.8942 17.8075H19.2641L10.6704 18.1048L10.6754 18.0998Z" fill="#1C5F32"/>
<path fill-rule="evenodd" clip-rule="evenodd" d="M0 18.6694C0.206653 19.2792 0.695564 19.8286 1.04839 20.3679C11.8196 36.6935 21.6532 53.1048 30.62 70.5746C31.1895 71.6835 31.9103 73.3014 32.5454 74.254L41.8196 74.3347C41.6532 73.7601 41.1694 72.9687 40.8871 72.4345L37.9637 67.006C34.3095 60.2671 29.6976 52.2177 25.7813 45.7661C23.0242 41.2198 20.2167 36.5323 17.3387 31.9758C16.88 31.25 8.80544 18.6744 8.6996 18.2359C8.03931 18.4173 0.912298 18.755 0.00504032 18.6694H0Z" fill="#1C5F32"/>
<path fill-rule="evenodd" clip-rule="evenodd" d="M56.2851 17.1875C56.7337 17.122 56.3708 17.1421 56.5018 17.2984C55.5341 21.3508 52.8476 27.1069 50.9574 30.5998C49.2337 33.7802 47.6812 36.5726 45.6197 39.38L44.0673 41.3559C43.7649 41.7087 43.8155 41.8296 43.4173 41.9909C43.9617 43.1452 45.8619 45.8871 46.6885 47.3286C46.9052 47.7067 46.9002 47.9788 47.2984 47.9637L49.6522 44.3498C50.4234 43.1704 51.1038 41.996 51.88 40.6956C55.6452 34.37 58.7147 27.4244 61.1694 20.4536C61.628 19.1532 62.1018 17.1673 62.6512 15.9929C61.8952 15.9829 56.7488 16.9355 56.2851 17.1875Z" fill="#1C5F32"/>
<path fill-rule="evenodd" clip-rule="evenodd" d="M49.4656 19.0675L49.6269 19.1835C47.9686 22.6109 47.5049 24.0575 44.894 27.4798C44.3245 28.2258 39.8184 33.8811 38.5835 34.2641C39.2489 35.126 39.9041 36.371 40.5291 37.369C40.9676 38.0595 42.0059 39.9647 42.4898 40.4486C44.6823 38.1149 44.5513 38.4778 46.638 35.5746C47.8275 33.9163 49.1027 31.8145 50.1158 29.874C51.6833 26.8599 54.8789 20.3881 55.8466 17.3186C55.1108 17.3942 49.9394 18.7954 49.4656 19.0726V19.0675Z" fill="#1C5F32"/>
<path fill-rule="evenodd" clip-rule="evenodd" d="M10.6754 18.0998L19.269 17.7974H19.899L20.2417 17.5353L21.0532 17.1673C21.6026 16.9254 22.1016 16.7188 22.6863 16.4516L29.5008 13.5938C42.4645 8.24598 65.4736 2.1119 78.7296 0.161299H78.5936C77.0008 -0.231846 70.7055 0.811501 68.9212 1.13408C54.1127 3.82057 40.6046 7.6613 26.4212 12.2984C25.0502 12.747 11.779 17.3942 10.6802 18.0998L10.6754 18.0998Z" fill="#BBD054"/>
<path fill-rule="evenodd" clip-rule="evenodd" d="M0 18.6694C0.912298 18.755 8.03931 18.4173 8.69456 18.2359C17.6109 14.7329 26.3861 11.502 35.8871 8.71472C40.7208 7.29839 45.3831 6.05343 50.3881 4.83872C52.8579 4.23892 55.3276 3.67944 57.8629 3.15021C59.2188 2.86795 64.9345 1.86493 65.5746 1.54234C63.1099 1.70364 50.3528 4.11795 48.0393 4.60686C42.2631 5.82662 36.8095 7.06654 31.1946 8.50303C23.9718 10.3327 7.10181 15.5091 0 18.6694Z" fill="#BBD054"/>
</g>
<defs>
<clipPath id="clip0_1801_10468">
<rect width="80" height="74.3347" fill="white"/>
</clipPath>
</defs>
</svg>
