<svg width="80" height="18" viewBox="0 0 80 18" fill="none" xmlns="http://www.w3.org/2000/svg">
<g clip-path="url(#clip0_1801_10724)">
<path fill-rule="evenodd" clip-rule="evenodd" d="M0 17.0062L2.95258 16.9938V11.6289C3.34433 11.4103 4.25567 10.1196 4.60619 9.9299C4.86186 10.1691 5.10515 10.532 5.31134 10.8041C5.55876 11.1299 5.74433 11.3691 5.99175 11.6825C6.4866 12.3052 6.89485 12.8577 7.38557 13.4804L9.81443 16.6227C9.9835 16.8371 10.033 17.0062 10.2474 17.0062L13.8144 17.0021C13.6907 16.734 13.1588 16.1526 12.9443 15.8722C12.6268 15.4598 12.3423 15.101 12.0289 14.7052C11.5381 14.0907 6.68041 8.0866 6.53608 7.70722C7.39794 6.89072 9.64536 4.33402 10.6515 3.22475L13.1175 0.548454C12.4948 0.474228 10.0825 0.519585 9.28247 0.519585C8.99794 0.519585 7.85155 1.96701 7.67835 2.18144C7.5299 2.36288 7.43918 2.42062 7.27835 2.59794C7.13402 2.76289 7.06804 2.8866 6.90722 3.04742C6.54433 3.41031 6.45361 3.57114 6.09072 3.93815C5.43505 4.60619 3.61237 6.82474 2.97732 7.41031L2.95258 0.540205L0 0.519585L0 17.0062ZM44.6309 7.03505C47.967 6.47423 49.4392 7.10928 49.4392 10.6227C49.4392 11.8433 49.3072 13.1753 48.6557 13.9753C47.9093 14.8907 44.6845 15.2784 44.6309 13.2247V7.03505ZM46.4907 17.2289H47.1588C48.8165 17.2289 50.4247 16.3134 51.0392 15.468C52.268 13.7814 52.4289 12.5485 52.4289 10.3258C52.4289 6.53608 50.099 4.3134 46.3423 4.49484L44.6351 4.6598L44.6309 0L41.6783 0.00412145C41.6783 3.67835 41.6783 7.33608 41.6783 10.9938C41.6783 12.9113 41.4557 14.2845 42.5402 15.6041C43.2907 16.5155 44.7505 17.2289 46.4907 17.2289ZM36.8082 11.1794C36.9072 11.5381 36.8825 12.8082 36.8124 13.2C36.7052 13.7732 36.4 14.132 35.9588 14.3505C34.8454 14.9072 32.1155 14.7835 32.3216 12.4866C32.3794 11.8557 32.7052 11.5505 33.1835 11.3485C34.2433 10.8948 35.6247 11.0309 36.8082 11.1794ZM30.6144 5.20825V7.57938C31.1505 7.49691 31.7402 7.23711 32.3835 7.13402C34.5732 6.77938 36.6433 6.75464 36.833 9.29484C35.5464 9.16288 35.4887 9.12165 34.235 9.13402C31.5216 9.16701 29.3732 10.4082 29.3732 13.1464C29.3732 15.7485 31.6907 17.2289 34.3093 17.2289H34.9773C37.5258 17.2289 39.8227 15.7773 39.8227 13.2206V9.43093C39.8227 6.43299 37.7567 4.51134 34.7546 4.51134C33.2371 4.51134 31.9918 4.58969 30.6144 5.20825ZM76.9814 11.1794C77.0804 11.5381 77.0598 12.8082 76.9897 13.2C76.8825 13.7732 76.5773 14.132 76.1361 14.3505C75.0227 14.9072 72.2928 14.7835 72.499 12.4866C72.6639 10.6474 75.7155 11.0186 76.9814 11.1794ZM70.7918 5.20825V7.57938C71.3278 7.49691 71.9175 7.23711 72.5608 7.13402C74.7505 6.77938 76.8165 6.75464 77.0103 9.29484C75.7237 9.16288 75.666 9.12165 74.4124 9.13402C71.699 9.16701 69.5464 10.4082 69.5464 13.1464C69.5464 15.7485 71.8639 17.2289 74.4866 17.2289H75.1546C77.7031 17.2289 80 15.7773 80 13.2206V9.43093C80 6.43299 77.934 4.51134 74.932 4.51134C73.4103 4.51134 72.1691 4.58969 70.7918 5.20825ZM59.9216 13.5959L59.9093 16.1155C60.0206 16.3217 59.8722 16.1814 60.1485 16.3505C60.2392 16.4041 60.4 16.4742 60.4907 16.5196C62.8371 17.6825 67.0309 17.6124 68.1567 14.9113C68.5649 13.9217 68.4454 12.5361 67.9876 11.6247C66.9072 9.48041 64.0577 9.54227 62.9856 8.82474C61.901 8.09897 62.6433 6.5732 65.9711 7.1835C66.5773 7.29072 67.0144 7.52577 67.4845 7.62887L67.4887 5.49691C67.3155 4.61031 60.5691 3.17113 59.666 7.45567C59.4021 8.69691 59.6495 9.77732 60.3299 10.5155C61.9381 12.268 65.1711 11.9175 65.4186 13.3072C65.7649 15.2742 62.2804 14.6515 61.2619 14.2639C60.7423 14.066 60.3381 13.7691 59.9216 13.5959ZM22.3546 4.68041H20.2722V7.22474H22.3299C22.5072 8.92784 22.1856 12.5278 22.4 13.9918C22.6845 15.8887 23.9918 17.2289 26.066 17.2289C27.1588 17.2289 27.2 17.1959 28.2186 16.8866V14.4165C27.5876 14.6062 26.9278 14.767 26.2103 14.6351C25.4351 14.4948 25.3072 13.9876 25.3072 13.1464C25.3072 11.765 25.2495 8.37938 25.3237 7.22474H28.2186V4.68041H25.3072V1.0598L22.3546 1.03918V4.68041ZM54.433 17.0062H57.1093L57.3897 16.9938L57.3856 4.69691L57.1093 4.67629L54.433 4.68041V17.0062ZM15.3732 17.0062H18.0454L18.3258 16.9938V4.69691L18.0454 4.67629L15.3732 4.68041V17.0062ZM15.3155 2.98144L15.5959 3.01443L18.3711 3.01031L18.3629 0.296908L15.3155 0.301029V2.98144ZM54.3794 2.98144L54.6557 3.01443L57.4227 3.01031V0.296908L54.3794 0.301029V2.98144Z" fill="#03AEEF"/>
</g>
<defs>
<clipPath id="clip0_1801_10724">
<rect width="80" height="17.2347" fill="white"/>
</clipPath>
</defs>
</svg>
