<svg width="65" height="80" viewBox="0 0 65 80" fill="none" xmlns="http://www.w3.org/2000/svg">
<g clip-path="url(#clip0_1801_10666)">
<path fill-rule="evenodd" clip-rule="evenodd" d="M32.3337 0C48.7803 0 62.1137 13.3333 62.1137 29.78C62.1137 46.2267 48.7803 59.56 32.3337 59.56C15.887 59.56 2.55367 46.2267 2.55367 29.78C2.55367 13.3333 15.887 0 32.3337 0Z" fill="#03AEEF"/>
<path fill-rule="evenodd" clip-rule="evenodd" d="M61.9433 26.5867C62.0567 27.6367 62.1137 28.7033 62.1137 29.78C62.1137 46.2267 48.7803 59.56 32.3337 59.56C31.827 59.56 31.3233 59.5467 30.8233 59.5233L21.3 51.2433L21.9833 51.7533C23.2333 52.55 24.82 52.9733 26.3067 52.83C26.9167 52.7733 27.3533 52.6433 27.9267 52.46L23.5967 48.51C23.1933 48.1367 22.9167 47.7567 22.7467 47.22C21.8667 44.5033 24.8333 43.15 25.3267 39.97L25.4 38.93L20.8933 34.3567L21.4733 34.8967C22.3433 35.6167 22.8233 35.6667 23.2733 35.97L25.3967 38.12V35.3067L22.6 32.3733C21.0667 30.6133 21.3767 27.7967 23.3867 26.46C24.04 26.0267 24.6467 25.8633 25.4 25.7267L25.3767 22.9967L20.54 17.3833C21.0233 17.9133 21.55 18.4033 22.0233 18.9467L25.3767 22.84L25.3633 20.37C25.3667 19.6633 25.4767 19.1867 25.19 18.61C24.44 17.0967 22.2367 14.46 22.6667 12.58C23.2667 9.94001 26.5733 9.54667 28.0567 11.35L31.66 16.0333C31.94 15.5 32.16 14.8767 32.2633 14.2867C32.5533 12.6133 32.0067 10.7467 31.0367 9.38667L40.2367 18.16C40.5967 17.47 39.8567 18.7967 40.2367 18.16C40.83 17.1633 41.9367 16.7733 43.04 16.8667C44.03 16.9533 44.76 17.3767 45.3133 18.1933L48.59 23.02L48.9167 22.3233C49.7233 20.2867 49.4033 18.0933 48.26 16.25L61.9433 26.5867Z" fill="#1D98C6"/>
<path fill-rule="evenodd" clip-rule="evenodd" d="M44.91 41.8167C43.54 43.1867 41.1733 42.8 40.2267 41.3933C39.76 40.7 39.4567 39.9133 39.0467 39.1433C38.8133 38.7033 38.0833 37.07 37.9133 36.86C37.7133 36.6133 29.96 32.32 29.1167 31.9533C27.91 32.88 29.1367 32.72 26.28 33.7467C26.2433 33.76 26.19 33.7833 26.1633 33.7967L25.9267 33.9067C25.9333 35.69 25.94 37.4767 25.9267 39.26C25.9167 40.48 25.92 40.6333 26.4467 41.4833C27.58 43.3133 29.1 45.4467 28.56 47.1833C27.6233 50.2 23.05 49.8533 22.6167 46.6567C22.2533 43.97 25.4133 42.7667 25.4 38.9633C25.3933 37.2267 25.4 35.4933 25.4 33.7567C20.4733 33.2133 20.2767 26.4467 25.4 25.7267C25.4 23.94 25.3533 22.16 25.3633 20.37C25.3667 19.0833 25.51 19.12 24.94 18.1567C23.9167 16.4333 22.2967 14.2267 22.6667 12.58C23.38 9.39668 27.9767 9.54335 28.6133 12.5433C28.9667 14.2067 27.94 15.4033 27.32 16.49C26.36 18.1667 25.9767 18.1467 25.9833 20.52C25.9867 22.2567 25.9633 24.02 25.9167 25.7567C27.37 25.9067 28.5667 26.5767 28.9267 27.5633C29.6733 27.3933 37.5833 22.97 37.9 22.6033C38.15 22.3167 38.9 20.76 39.1467 20.2933C39.54 19.55 39.9067 18.6833 40.31 18.0367C41.2233 16.58 43.7667 16.45 44.9733 17.7533C46.36 19.25 45.8667 21.5567 44.33 22.4967C42.77 23.4467 39.4733 22.6833 38.1833 23.2L33.7867 25.6367C32.35 26.4867 30.84 27.1867 29.3267 28.0167C29.8733 29.9367 29.67 29.71 29.3267 31.5733C30.16 31.84 30.87 32.36 31.7067 32.8C32.4167 33.1767 33.19 33.5767 33.9267 34.0067C34.6167 34.4133 37.8733 36.2633 38.3867 36.37C40.19 36.7433 43.1267 36.0767 44.5 37.1167C45.95 38.21 46.31 40.4133 44.91 41.8167ZM22.1667 51.8667C28.5567 55.59 35.47 48.1033 30.7433 41.9467C30.09 41.0933 29.47 40.84 28.7833 39.74C28.3767 39.0867 27.1367 36.43 28.27 35.88C29.8267 35.1233 34.0333 36 35.74 39.48C36.62 41.2767 36.75 45.21 41.43 46.12C49.15 47.62 52.56 36.9433 45.51 33.58C41.61 31.7167 39.2733 35.15 35.3 32.78C34.32 32.1933 32.4167 30.4633 32.66 29.5567C32.9667 28.4033 34.6933 26.95 35.7933 26.4567C39.9267 24.6067 41.75 27.99 46.0933 25.6033C47.2833 24.95 48.3467 23.74 48.9167 22.3233C49.98 19.6867 49.0833 16.4333 46.8433 14.6933C46.1833 14.1767 44.8 13.56 43.8133 13.4067C42.5633 13.2133 41.3667 13.3533 40.2633 13.81C39.71 14.0367 39.2533 14.2767 38.8133 14.6067C38.3267 14.97 38.0567 15.3733 37.66 15.68C36.8367 16.82 36.6333 17.2567 36.19 18.8267C35.1567 22.51 31.8133 24.4667 27.9667 23.53C27.5367 22.0367 28.3633 20.2733 29.0767 19.2867C29.8433 18.22 34.1467 15.21 31.49 10.12C30.9233 9.03668 30.2233 8.41668 29.2267 7.77001C25.5133 5.36001 20.7833 7.27001 19.47 11.0233C18.63 13.4333 19.28 16.0567 20.6667 17.5233C22.2467 19.1967 23.49 20.0233 23.5 23.3467C22.8433 23.9167 19.03 25.11 19.0133 29.7433C19.01 31.3933 19.66 32.8867 20.4267 33.8267C22.1367 35.92 23.3867 35.6633 23.5067 36.2867C23.3433 40.73 21.2967 40.52 19.82 43.21C18.7833 45.1034 18.87 47.4367 19.8767 49.4033C20.3967 50.42 21.1767 51.29 22.1667 51.8667Z" fill="white"/>
<path fill-rule="evenodd" clip-rule="evenodd" d="M0 79.7933L2.38667 79.7833V75.4467C2.70333 75.27 3.44 74.2267 3.72333 74.0733C3.93 74.2667 4.12667 74.56 4.29333 74.78C4.49333 75.0433 4.64333 75.2367 4.84333 75.49C5.24333 75.9933 5.57333 76.44 5.97 76.9433L7.93333 79.4833C8.07 79.6567 8.11 79.7933 8.28333 79.7933L11.1667 79.79C11.0667 79.5733 10.6367 79.1033 10.4633 78.8767C10.2067 78.5433 9.97667 78.2533 9.72333 77.9333C9.32667 77.4367 5.4 72.5833 5.28333 72.2767C5.98 71.6167 7.79667 69.55 8.61 68.6533L10.6033 66.49C10.1 66.43 8.15 66.4667 7.50333 66.4667C7.27333 66.4667 6.34667 67.6367 6.20667 67.81C6.08667 67.9567 6.01333 68.0033 5.88333 68.1467C5.76667 68.28 5.71333 68.38 5.58333 68.51C5.29 68.8033 5.21667 68.9333 4.92333 69.23C4.39333 69.77 2.92 71.5633 2.40667 72.0367L2.38667 66.4833L0 66.4667V79.7933ZM36.0767 71.7333C38.7733 71.28 39.9633 71.7933 39.9633 74.6333C39.9633 75.62 39.8567 76.6967 39.33 77.3433C38.7267 78.0833 36.12 78.3967 36.0767 76.7367V71.7333ZM37.58 79.9733H38.12C39.46 79.9733 40.76 79.2333 41.2567 78.55C42.25 77.1867 42.38 76.19 42.38 74.3933C42.38 71.33 40.4967 69.5333 37.46 69.68L36.08 69.8133L36.0767 66.0467L33.69 66.05C33.69 69.02 33.69 71.9767 33.69 74.9333C33.69 76.4833 33.51 77.5933 34.3867 78.66C34.9933 79.3967 36.1733 79.9733 37.58 79.9733ZM29.7533 75.0833C29.8333 75.3733 29.8133 76.4 29.7567 76.7167C29.67 77.18 29.4233 77.47 29.0667 77.6467C28.1667 78.0967 25.96 77.9967 26.1267 76.14C26.1733 75.63 26.4367 75.3833 26.8233 75.22C27.68 74.8533 28.7967 74.9633 29.7533 75.0833ZM24.7467 70.2567V72.1733C25.18 72.1067 25.6567 71.8967 26.1767 71.8133C27.9467 71.5267 29.62 71.5067 29.7733 73.56C28.7333 73.4533 28.6867 73.42 27.6733 73.43C25.48 73.4567 23.7433 74.46 23.7433 76.6733C23.7433 78.7767 25.6167 79.9733 27.7333 79.9733H28.2733C30.3333 79.9733 32.19 78.8 32.19 76.7333V73.67C32.19 71.2467 30.52 69.6933 28.0933 69.6933C26.8667 69.6933 25.86 69.7567 24.7467 70.2567ZM62.2267 75.0833C62.3067 75.3733 62.29 76.4 62.2333 76.7167C62.1467 77.18 61.9 77.47 61.5433 77.6467C60.6433 78.0967 58.4367 77.9967 58.6033 76.14C58.7367 74.6533 61.2033 74.9533 62.2267 75.0833ZM57.2233 70.2567V72.1733C57.6567 72.1067 58.1333 71.8967 58.6533 71.8133C60.4233 71.5267 62.0933 71.5067 62.25 73.56C61.21 73.4533 61.1633 73.42 60.15 73.43C57.9567 73.4567 56.2167 74.46 56.2167 76.6733C56.2167 78.7767 58.09 79.9733 60.21 79.9733H60.75C62.81 79.9733 64.6667 78.8 64.6667 76.7333V73.67C64.6667 71.2467 62.9967 69.6933 60.57 69.6933C59.34 69.6933 58.3367 69.7567 57.2233 70.2567ZM48.4367 77.0367L48.4267 79.0733C48.5167 79.24 48.3967 79.1267 48.62 79.2633C48.6933 79.3067 48.8233 79.3633 48.8967 79.4C50.7933 80.34 54.1833 80.2833 55.0933 78.1C55.4233 77.3 55.3267 76.18 54.9567 75.4433C54.0833 73.71 51.78 73.76 50.9133 73.18C50.0367 72.5933 50.6367 71.36 53.3267 71.8533C53.8167 71.94 54.17 72.13 54.55 72.2133L54.5533 70.49C54.4133 69.7733 48.96 68.61 48.23 72.0733C48.0167 73.0767 48.2167 73.95 48.7667 74.5467C50.0667 75.9633 52.68 75.68 52.88 76.8033C53.16 78.3933 50.3433 77.89 49.52 77.5767C49.1 77.4167 48.7733 77.1767 48.4367 77.0367ZM18.07 69.83H16.3867V71.8867H18.05C18.1933 73.2633 17.9333 76.1733 18.1067 77.3567C18.3367 78.89 19.3933 79.9733 21.07 79.9733C21.9533 79.9733 21.9867 79.9467 22.81 79.6967V77.7C22.3 77.8533 21.7667 77.9833 21.1867 77.8767C20.56 77.7633 20.4567 77.3533 20.4567 76.6733C20.4567 75.5567 20.41 72.82 20.47 71.8867H22.81V69.83H20.4567V66.9033L18.07 66.8867V69.83ZM44 79.7933H46.1633L46.39 79.7833L46.3867 69.8433L46.1633 69.8267L44 69.83V79.7933ZM12.4267 79.7933H14.5867L14.8133 79.7833V69.8433L14.5867 69.8267L12.4267 69.83V79.7933ZM12.38 68.4567L12.6067 68.4833L14.85 68.48L14.8433 66.2867L12.38 66.29V68.4567ZM43.9567 68.4567L44.18 68.4833L46.4167 68.48V66.2867L43.9567 66.29V68.4567Z" fill="#03AEEF"/>
</g>
<defs>
<clipPath id="clip0_1801_10666">
<rect width="64.6667" height="79.978" fill="white"/>
</clipPath>
</defs>
</svg>
