<svg width="80" height="64" viewBox="0 0 80 64" fill="none" xmlns="http://www.w3.org/2000/svg">
<g clip-path="url(#clip0_1801_10500)">
<path fill-rule="evenodd" clip-rule="evenodd" d="M20.0258 50.6747C20.0457 47.7061 20.0805 44.7426 20.1103 41.774C20.1253 40.3022 20.0905 38.8005 20.1949 37.3486C20.3838 34.6833 18.5938 33.2065 16.3959 32.212C15.3915 31.7546 13.8849 31.4413 14.3572 29.9347C14.6258 29.0744 15.8241 28.1993 16.6098 27.6921C17.4849 27.1302 18.37 26.3993 19.1954 25.7827C22.6214 23.2219 26.0425 20.6511 29.4734 18.0854C30.0801 17.6329 39.3686 10.5322 39.8609 10.4974C41.2034 10.4029 43.0134 12.2875 44.0576 13.0284C45.9869 14.4008 48.5328 16.3997 50.4521 17.8666C53.8682 20.4771 57.2395 22.9733 60.6854 25.6086C61.9235 26.5534 65.091 28.6369 65.623 29.6612C66.3341 31.0336 65.0015 31.7397 63.9374 32.1524C59.3876 33.9226 59.9893 36.6474 60.0489 41.6895C60.0639 43.0569 60.0688 49.7349 60.1633 50.4758C60.4268 50.4161 60.3523 50.4211 60.6854 50.1625L65.1656 46.4332C65.5335 46.1199 65.7324 45.8116 66.0656 45.5183C66.7667 44.9017 67.3286 44.3895 67.9302 43.6635C68.7358 42.6939 70.675 41.1376 71.5949 39.9839C72.132 39.3127 72.7535 38.7359 73.2806 38.0397C73.5441 37.6917 73.8226 37.3983 74.101 37.0452C79.2624 30.5115 82.1166 23.0528 78.1138 13.5405C77.4326 11.9245 76.2889 10.1593 75.374 9.0206C73.1861 6.28577 70.4015 4.00342 67.2341 2.46694C61.5556 -0.28779 54.803 -0.804923 48.9007 1.30836C42.9189 3.44651 40.8504 6.48964 39.8459 6.91727C39.5327 6.67362 39.294 6.27085 39.0006 5.97748C38.6675 5.64432 38.384 5.4504 38.031 5.13216C36.2509 3.54098 33.2575 2.10395 30.8607 1.32825C26.8927 0.0354181 22.2684 -0.466798 17.9424 0.517744C2.46318 4.03823 -6.15405 22.1081 5.1831 36.1601L8.56933 40.1232L14.8992 46.5873C15.1926 46.8857 15.6153 47.1592 15.9584 47.4327C16.6247 47.9647 19.2451 50.5703 20.0258 50.6797V50.6747ZM19.3794 29.8452C19.7921 29.338 23.8546 26.2948 24.4463 25.8523C26.1817 24.5396 27.8524 23.2865 29.6624 21.9937C30.8309 21.1583 39.5128 14.3212 40.0498 14.2715C40.2338 14.2516 49.3483 21.3622 50.2781 22.0981C50.8698 22.5655 60.2926 29.7755 60.4965 30.1087C59.5219 30.8347 58.6964 31.491 58.05 32.57C57.3688 33.7087 57.1152 34.9618 56.971 36.4983C56.5235 41.3016 56.9909 46.2393 56.9461 51.0128C56.9213 53.4692 56.8964 53.2653 55.2903 54.3543C54.5991 54.8217 49.8903 58.4466 49.3383 58.2974C49.2488 54.2001 49.3134 50.0979 49.3284 46.0006C49.3333 43.937 49.4228 41.9878 47.7471 41.3016C45.9421 40.5657 44.1421 41.5304 43.0382 42.3558C41.9294 43.1862 40.8653 44.5188 40.4625 45.9161C39.9653 47.6365 40.0498 49.8343 40.0498 51.704C40.0498 55.8311 39.8609 59.7693 40.0995 63.9014C38.0161 63.603 29.7718 57.8797 27.2657 56.2587C26.2463 55.6024 23.6557 54.0609 23.3723 53.2305C23.1485 52.5791 23.3126 41.2917 23.3126 39.606C23.3126 37.7464 23.3176 35.0612 22.6413 33.485C22.2634 32.6148 21.7264 31.9833 21.1645 31.5059C20.8363 31.2275 20.5877 30.959 20.2545 30.6905C19.9413 30.4418 19.6579 30.1186 19.3893 29.8402L19.3794 29.8452Z" fill="#E95706"/>
</g>
<defs>
<clipPath id="clip0_1801_10500">
<rect width="80" height="63.9014" fill="white"/>
</clipPath>
</defs>
</svg>
