<svg width="80" height="29" viewBox="0 0 80 29" fill="none" xmlns="http://www.w3.org/2000/svg">
<g clip-path="url(#clip0_1801_10365)">
<g clip-path="url(#clip1_1801_10365)">
<path fill-rule="evenodd" clip-rule="evenodd" d="M9.01183 22.8076C9.02079 21.4715 9.03645 20.1377 9.04988 18.8016C9.05659 18.1391 9.04093 17.4632 9.08793 16.8097C9.17297 15.6102 8.36729 14.9455 7.37808 14.4979C6.92601 14.292 6.24789 14.151 6.4605 13.4729C6.58135 13.0857 7.12071 12.6918 7.47432 12.4635C7.86821 12.2106 8.26658 11.8816 8.63809 11.6041C10.1801 10.4515 11.7198 9.2945 13.2641 8.13968C13.5371 7.93602 17.7177 4.74014 17.9393 4.72448C18.5435 4.68195 19.3582 5.53016 19.8281 5.86362C20.6965 6.48132 21.8424 7.381 22.7062 8.04121C24.2437 9.21617 25.7611 10.3396 27.3121 11.5258C27.8693 11.951 29.2949 12.8887 29.5344 13.3498C29.8544 13.9675 29.2547 14.2853 28.7757 14.471C26.7279 15.2678 26.9987 16.4942 27.0256 18.7635C27.0323 19.379 27.0345 22.3846 27.0771 22.7181C27.1957 22.6912 27.1621 22.6935 27.3121 22.5771L29.3285 20.8986C29.4941 20.7576 29.5836 20.6188 29.7336 20.4868C30.0492 20.2093 30.3021 19.9788 30.5728 19.652C30.9354 19.2156 31.8082 18.5151 32.2223 17.9959C32.464 17.6938 32.7437 17.4341 32.981 17.1208C33.0996 16.9642 33.2249 16.8321 33.3502 16.6732C35.6733 13.7325 36.9579 10.3755 35.1563 6.09414C34.8497 5.36679 34.3349 4.57229 33.9232 4.05979C32.9384 2.82888 31.6851 1.80163 30.2595 1.11009C27.7037 -0.129774 24.6645 -0.362527 22.008 0.588628C19.3156 1.55097 18.3846 2.92064 17.9326 3.11311C17.7916 3.00344 17.6841 2.82217 17.5521 2.69012C17.4021 2.54018 17.2746 2.45289 17.1157 2.30966C16.3145 1.5935 14.9672 0.94671 13.8885 0.59758C12.1025 0.015697 10.0212 -0.210342 8.07411 0.232784C1.10717 1.8173 -2.7713 9.95024 2.33137 16.2749L3.85545 18.0586L6.70444 20.968C6.83649 21.1023 7.02672 21.2253 7.18114 21.3484C7.48103 21.5879 8.66047 22.7606 9.01183 22.8099V22.8076ZM8.72089 13.4326C8.90665 13.2043 10.7351 11.8346 11.0014 11.6355C11.7825 11.0446 12.5345 10.4806 13.3491 9.89876C13.875 9.52277 17.7826 6.44551 18.0243 6.42313C18.1071 6.41418 22.2094 9.61453 22.6279 9.94576C22.8942 10.1561 27.1353 13.4013 27.227 13.5512C26.7884 13.8779 26.4169 14.1734 26.1259 14.659C25.8193 15.1715 25.7052 15.7355 25.6403 16.427C25.4388 18.589 25.6492 20.8113 25.6291 22.9598C25.6179 24.0654 25.6067 23.9736 24.8838 24.4637C24.5727 24.6741 22.4533 26.3056 22.2049 26.2385C22.1646 24.3944 22.1937 22.548 22.2004 20.7039C22.2027 19.7751 22.243 18.8978 21.4888 18.589C20.6764 18.2577 19.8662 18.6919 19.3694 19.0634C18.8703 19.4372 18.3913 20.037 18.2101 20.6658C17.9863 21.4402 18.0243 22.4294 18.0243 23.2709C18.0243 25.1284 17.9393 26.9009 18.0467 28.7607C17.109 28.6265 13.3983 26.0505 12.2704 25.3209C11.8116 25.0255 10.6456 24.3317 10.518 23.958C10.4173 23.6648 10.4912 18.5845 10.4912 17.8258C10.4912 16.9888 10.4934 15.7803 10.189 15.0708C10.0189 14.6792 9.77723 14.3949 9.52434 14.1801C9.37663 14.0548 9.26473 13.9339 9.11478 13.813C8.97379 13.7011 8.84622 13.5557 8.72537 13.4303L8.72089 13.4326Z" fill="#E95706"/>
<path fill-rule="evenodd" clip-rule="evenodd" d="M55.6746 6.24178V12.2576L56.9278 12.3225V6.9557C57.3643 6.81918 58.4027 6.70952 58.8637 6.7789C59.5239 6.87961 59.8574 7.25336 59.9044 7.95386C59.9626 8.81549 59.8753 12.0808 59.9268 12.2889L61.1599 12.309C61.198 10.494 61.2584 8.84682 61.0436 7.06089C61.6187 6.92885 62.3729 6.75428 62.9839 6.75652C63.7806 6.75876 64.0447 7.09894 64.1566 7.83524C64.3424 9.06391 64.0514 11.4765 64.179 12.2822L65.4211 12.309C65.4412 10.8543 65.5218 9.24295 65.4122 7.81734C65.2331 5.46743 62.9638 5.25034 61.1353 5.75613C59.8775 6.10302 60.4908 5.93293 59.4165 5.6487C58.2304 5.33538 56.6772 5.66661 55.6768 6.24625L55.6746 6.24178ZM41.0312 4.47822C42.5688 4.27233 45.0955 4.37528 45.0328 6.08288C45.0194 6.47005 44.8538 6.89304 44.6725 7.14817C44.1175 7.92924 41.3759 7.78601 41.038 7.68753C40.9731 7.52192 40.9641 4.73336 41.0312 4.47822ZM39.7354 3.41517L39.7287 12.2531L41.0111 12.3135V8.9632C41.4095 8.8983 42.4076 8.84011 42.7679 8.9453C43.2267 9.08182 43.4416 9.54956 43.6699 9.95016C44.0279 10.5813 44.9522 11.8995 45.1179 12.3046L46.6263 12.2956C46.4853 11.9711 45.7132 10.8655 45.4715 10.5186C45.2096 10.1426 44.4644 9.11539 44.3435 8.68569C46.7225 8.22466 47.6759 3.44426 43.1417 3.35474C42.2487 3.33684 40.5366 3.23165 39.7354 3.41517ZM42.43 21.4737C43.0611 20.6568 43.7527 19.6363 44.3659 18.7814C44.5807 18.4815 44.7799 18.1592 44.9903 17.8503C45.2074 17.5303 45.3842 17.2349 45.5789 16.8835C45.7915 16.5053 45.8609 16.0957 45.7736 15.5922H39.5676L39.5653 16.794L44.0839 16.8298C44.0257 16.991 43.596 17.5795 43.464 17.7675L42.1838 19.6005C41.5102 20.5091 40.8858 21.458 40.2367 22.3197C39.7377 22.9821 39.3326 23.3514 39.4355 24.5487H45.787L45.7893 23.3469L41.1588 23.3111L42.4278 21.4759L42.43 21.4737ZM54.5712 15.496C54.5645 18.4457 54.5242 21.5945 54.5556 24.5174L55.8088 24.5375C55.8021 23.2372 55.5515 21.8944 56.751 21.5341C57.1964 22.3465 57.7649 22.8881 58.2774 23.5461C59.0607 24.5532 59.0047 24.7076 60.6877 24.5107L59.506 23.0582C59.3762 22.9083 59.2352 22.7158 59.0942 22.5748L58.2595 21.6214C58.0849 21.4356 57.5746 20.8426 57.4963 20.5807C57.8275 20.3323 59.1032 19.0432 59.609 18.5799C59.7276 18.4725 60.2401 18.007 60.2893 17.8884C59.468 17.8727 58.8302 17.7653 58.2595 18.242L56.657 19.7527C56.4109 20.0279 56.2341 20.3972 55.8111 20.5292L55.8066 15.3236L54.5712 15.2945V15.4982V15.496ZM74.3552 12.2553L75.6041 12.3135V7.07208C76.0136 6.89975 77.0923 6.72743 77.5735 6.77219C78.2852 6.83933 78.5694 7.24441 78.6925 7.91805C78.9074 9.09077 78.7462 11.0356 78.744 12.3046L79.9995 12.3135V9.46675C79.9995 7.99638 80.1316 6.1433 78.1442 5.62632C76.9513 5.31524 76.2083 5.75613 75.6376 5.81208L75.6041 3.15332L74.3754 3.1578C74.3329 3.27193 74.306 11.5593 74.3552 12.2553ZM65.7367 21.3797C65.777 21.6841 65.7837 22.3801 65.7277 22.6777C65.6539 23.0716 65.4659 23.291 65.1123 23.4185C64.4207 23.6692 63.3554 23.5909 62.9168 23.1455C62.3013 22.5233 62.6818 21.8273 63.3397 21.5296C64.0738 21.1962 64.9064 21.2544 65.7367 21.3775V21.3797ZM62.0641 18.0764V19.1775C62.6594 19.1462 63.2189 18.7746 64.4252 18.9112C65.3316 19.0141 65.6606 19.4013 65.7456 20.3278C64.1678 20.2853 61.2696 20.1242 61.386 22.5367C61.48 24.4726 63.8276 25.1284 65.6941 24.4279C66.5155 24.1213 66.9743 23.4901 67.0325 22.4181C67.0795 21.5543 67.1063 20.1197 66.8311 19.3498C66.5491 18.5576 65.9247 18.0473 64.9869 17.8481C64.1857 17.678 62.7825 17.7877 62.0641 18.0719V18.0764ZM51.5387 21.3797C51.579 21.6818 51.5857 22.3823 51.532 22.6777C51.3283 23.7811 49.4976 23.8147 48.7837 23.1589C47.7632 22.2212 48.7658 20.9612 51.5387 21.3797ZM47.8661 18.0786V19.1775C48.1302 19.1685 48.6718 19.0141 48.9762 18.9604C50.1825 18.7456 51.3776 18.7858 51.5477 20.3323C49.5514 20.2562 47.0537 20.292 47.1903 22.5793C47.3044 24.4861 49.6431 25.1239 51.4962 24.4323C52.2974 24.1325 52.7741 23.5103 52.8345 22.4629C52.886 21.5834 52.8994 20.0996 52.6219 19.3252C52.3444 18.5508 51.7088 18.0495 50.789 17.8526C50.0146 17.687 48.5554 17.7899 47.8684 18.0786H47.8661ZM71.3183 9.14896C71.325 10.1247 71.5063 10.8946 70.6312 11.2035C68.5767 11.9308 67.2719 9.94793 68.9079 9.28548C69.6979 8.96544 70.4701 9.0572 71.3183 9.14896ZM67.6323 5.89041V6.9557C68.4044 6.84156 69.1899 6.5372 70.0269 6.65805C70.7901 6.76771 71.269 7.29364 71.3071 8.10157C69.313 8.00086 66.7841 8.08366 66.9564 10.3642C67.0907 12.1188 69.4316 12.9782 71.2153 12.2173C71.9471 11.9062 72.529 11.2616 72.5939 10.2501C72.6476 9.40409 72.6633 7.9091 72.4082 7.15936C72.1351 6.36039 71.4951 5.82551 70.5909 5.6308C69.8457 5.46966 69.04 5.52561 68.288 5.6778C68.0888 5.71808 67.7419 5.74046 67.6278 5.89041H67.6323ZM53.6536 5.65318L52.3959 5.69123L52.4003 9.31233C52.4003 10.1762 52.3019 10.9438 51.5969 11.19C50.8158 11.4631 49.8311 11.284 49.4999 10.7782C49.1015 10.1695 49.2045 9.16686 49.2045 8.37908V5.66213L47.9758 5.65318C47.9758 6.59315 47.9042 9.67936 48.0676 10.3821C48.7031 13.0946 52.8793 13.1975 53.5619 10.3933C53.7253 9.71965 53.6536 6.57077 53.6536 5.65542V5.65318ZM69.1071 17.8839H67.9433L67.9344 18.9716L69.1071 18.9761C69.1071 19.7101 69.0444 22.8299 69.1742 23.3089C69.3331 23.893 69.7248 24.307 70.1791 24.5219C70.629 24.7345 71.5913 24.6964 72.0814 24.5219L72.106 23.3984C70.9423 23.6446 70.3604 23.7923 70.3626 22.2279C70.3626 21.1447 70.3626 20.0615 70.3626 18.9783H72.1329L72.1374 17.9041L70.3626 17.8862V16.0465L69.1093 16.051V17.8862L69.1071 17.8839Z" fill="#040000"/>
</g>
</g>
<defs>
<clipPath id="clip0_1801_10365">
<rect width="80" height="28.7652" fill="white"/>
</clipPath>
<clipPath id="clip1_1801_10365">
<rect width="80" height="28.7652" fill="white"/>
</clipPath>
</defs>
</svg>
