<svg width="81" height="16" viewBox="0 0 81 16" fill="none" xmlns="http://www.w3.org/2000/svg">
<g clip-path="url(#clip0_1801_4775)">
<g clip-path="url(#clip1_1801_4775)">
<path fill-rule="evenodd" clip-rule="evenodd" d="M0.802748 9.99317C0.607758 9.30942 0.5 8.58846 0.5 7.84314C0.5 3.51871 4.01881 -9.91821e-05 8.34324 -9.91821e-05C10.8602 -9.91821e-05 12.8934 0.906863 14.0698 2.55017C14.1994 2.70539 14.1776 2.9363 14.0236 3.06459C13.903 3.16465 13.7324 3.16721 13.6041 3.09409C12.7857 2.6374 11.7697 2.37058 10.6716 2.29874C11.5041 2.94657 12.2649 3.7586 12.905 4.69763C13.0204 4.86568 13.1282 5.0363 13.2334 5.20948C13.5695 4.88621 13.7824 4.50777 13.8594 4.0947C13.8966 3.89586 14.0865 3.76501 14.284 3.80222C14.4816 3.83814 14.6137 4.02928 14.5765 4.22683C14.4611 4.85029 14.125 5.40961 13.599 5.86116C14.3161 7.25047 14.7048 8.72958 14.701 10.1279C14.701 10.2561 14.6971 10.3806 14.6907 10.505C14.9524 10.2151 15.141 9.89567 15.2487 9.55059C15.3847 9.0041 15.4578 8.43196 15.4578 7.84314C15.4578 6.8823 15.2705 5.95096 14.8998 5.07479C14.8203 4.88878 14.9075 4.67454 15.0935 4.59629C15.2782 4.51675 15.4925 4.60399 15.5707 4.79C15.9614 5.71215 16.1685 6.69041 16.1865 7.698V7.98298C16.1774 8.48026 16.1208 8.96637 16.0236 9.43642C16.0236 9.45694 16.0223 9.47618 16.0171 9.49543C15.9992 9.58009 15.9761 9.66476 15.9517 9.74686C15.504 11.5377 14.438 13.0861 12.9948 14.1534C12.9242 14.2086 12.8524 14.2624 12.778 14.3125C12.7744 14.3146 12.771 14.3167 12.7676 14.3188C12.7587 14.3243 12.7501 14.3296 12.7408 14.3343C11.4862 15.1874 9.97243 15.6864 8.34324 15.6864C4.82443 15.6864 1.83799 13.3555 0.84893 10.1561C0.846968 10.1492 0.844255 10.1431 0.841365 10.1366C0.840477 10.1346 0.839572 10.1325 0.838668 10.1304C0.825839 10.0855 0.814294 10.0393 0.802748 9.99317ZM12.9845 12.3728C12.1186 12.664 11.1424 12.8141 10.111 12.8269V12.8257C9.93138 13.6621 9.69534 14.3728 9.40414 14.8769C10.569 14.7012 11.6427 14.2419 12.5509 13.5723C13.0127 13.2079 13.3668 12.7179 13.6067 12.1304C13.4104 12.2189 13.2026 12.2997 12.9845 12.3728ZM5.1926 14.2086C5.21954 14.2201 5.24263 14.2368 5.26316 14.2547L5.26444 14.2573C6.18423 14.7012 7.21306 14.95 8.29834 14.9577C8.30233 14.9571 8.30632 14.9564 8.31034 14.9557C8.32307 14.9535 8.33599 14.9513 8.34965 14.9513C8.6229 14.9513 9.03597 14.215 9.35924 12.8128C8.70115 12.7782 8.02894 12.6884 7.35417 12.5447C6.46261 12.3549 5.61337 12.0765 4.83597 11.7263C4.62431 13.1079 4.78851 14.011 5.1926 14.2086ZM1.38644 9.06568C1.40183 9.3107 1.44032 9.55187 1.50318 9.7892H1.50446C1.93292 11.294 2.84502 12.596 4.06114 13.5171C3.96878 12.927 4.00983 12.1971 4.15351 11.3902C3.44795 11.0117 2.81551 10.5717 2.28057 10.0778C1.92651 9.75071 1.62889 9.41204 1.38644 9.06568ZM10.56 6.97466C10.569 7.26073 10.5728 7.54552 10.5728 7.83031V7.82775C10.5728 9.29274 10.4689 10.7975 10.2521 12.0944C11.1514 12.0714 12.0006 11.9328 12.7536 11.6801C13.1782 11.5377 13.5554 11.3632 13.8825 11.1618C13.9402 10.836 13.971 10.4896 13.9723 10.1266C13.9749 8.87197 13.6336 7.54296 12.9961 6.28193C12.3085 6.67833 11.4682 6.91437 10.56 6.97466ZM4.97837 10.9848C5.75063 11.3478 6.605 11.6352 7.50811 11.8289H7.5094C8.18417 11.9726 8.85637 12.0572 9.50933 12.0855C9.70689 10.972 9.84415 9.54674 9.84415 7.82775C9.84415 7.53654 9.84159 7.2556 9.83261 6.98108C9.38618 6.96568 8.93334 6.9118 8.47922 6.81559C7.88142 6.68731 7.31056 6.5013 6.78716 6.26654C6.67299 6.48077 6.56267 6.69885 6.45363 6.92207C5.70445 8.4589 5.23109 9.84307 4.97837 10.9848ZM1.51472 7.75847C1.73152 8.3614 2.1587 8.96818 2.77831 9.54033H2.77703C3.21832 9.94827 3.73659 10.319 4.31258 10.6436C4.62174 9.35175 5.15027 7.92909 5.7981 6.60264C5.90842 6.37814 6.02131 6.15493 6.13677 5.93557C5.71728 5.69568 5.34013 5.41987 5.01557 5.11584C4.67434 4.79641 4.40622 4.45903 4.21508 4.11266C3.55314 4.58859 2.97458 5.14278 2.5102 5.75854C2.02016 6.40637 1.6879 7.0837 1.51472 7.75847ZM12.3008 5.10814C11.6658 4.1768 10.9051 3.38016 10.0751 2.76312C10.3111 3.77015 10.4612 4.98114 10.5279 6.24088C11.3233 6.18444 12.0596 5.98303 12.6433 5.64565C12.5355 5.46477 12.4214 5.28517 12.3008 5.10814ZM7.13866 5.6264C7.60048 5.83038 8.10207 5.99201 8.62931 6.1049C9.02057 6.18829 9.41312 6.23703 9.80054 6.25243C9.71972 4.74766 9.52729 3.5341 9.29767 2.63099C8.56388 3.40069 7.81856 4.43722 7.13866 5.6264ZM4.82699 3.71242C4.98222 4.00747 5.21056 4.30252 5.51331 4.58474V4.58603C5.79297 4.84901 6.12137 5.08762 6.4857 5.29928C7.12583 4.1768 7.82241 3.18133 8.52155 2.3988C8.03792 2.4732 7.55173 2.57968 7.07323 2.72335C6.26761 2.96581 5.51074 3.30191 4.82699 3.71242ZM3.9149 2.37442C3.9226 2.33594 3.93286 2.29874 3.94312 2.26153C2.76163 3.19672 1.88161 4.49495 1.47752 5.98945C1.61093 5.76495 1.75846 5.54174 1.92523 5.32237C2.46915 4.6027 3.15161 3.96257 3.93671 3.42122C3.84948 3.071 3.84178 2.71822 3.9149 2.37442ZM5.28881 1.52904C4.93604 1.80998 4.70897 2.14736 4.62815 2.5258V2.52452C4.59608 2.67974 4.58839 2.83753 4.60378 2.99788C5.30036 2.59764 6.0598 2.26667 6.86413 2.02549C7.29645 1.89464 7.73389 1.7933 8.17262 1.71761C7.13096 1.33661 6.14061 1.27504 5.28881 1.52904ZM11.2206 1.24425C11.0269 1.28915 10.7973 1.40075 10.5471 1.56367C11.1539 1.59318 11.7415 1.67656 12.2931 1.81511C11.9493 1.57778 11.5875 1.39049 11.2206 1.24425ZM10.2547 0.942783C9.92882 0.865813 9.61324 0.815782 9.31819 0.782429V0.783712C9.42851 0.946631 9.53114 1.13649 9.62607 1.35201C9.8403 1.1878 10.0507 1.05182 10.2547 0.942783ZM7.54916 0.776015C7.87116 0.84657 8.19699 0.944066 8.52668 1.06978V1.07107C8.60878 1.10185 8.6896 1.13649 8.77042 1.17113C8.61135 0.88249 8.45869 0.733681 8.33426 0.731115C8.06743 0.731115 7.80701 0.747792 7.54916 0.776015Z" fill="url(#paint0_radial_1801_4775)"/>
<path d="M78.7015 5.55082C79.8611 5.55082 80.5 6.11142 80.5 7.13127C80.5 8.09211 79.8701 8.66682 78.8169 8.66682H78.0793V10.1369H77.1018V5.55082H78.7015ZM78.0793 7.8689H78.663C79.2287 7.8689 79.5161 7.62131 79.5161 7.13127C79.5161 6.64123 79.2018 6.36157 78.6309 6.36157H78.0793V7.87018V7.8689ZM75.3045 8.29993C75.3045 8.97342 75.0467 9.30054 74.5143 9.30054C73.9819 9.30054 73.7061 8.96316 73.7061 8.29993V5.55082H72.7299V8.23451C72.726 8.89132 72.8902 9.38906 73.2161 9.71618C73.5188 10.0202 73.9563 10.1742 74.5143 10.1742C75.3199 10.1742 76.2808 9.83677 76.2808 8.23451V5.54954H75.3045V8.29865V8.29993ZM70.0654 5.51234C71.0571 5.51234 72.1141 6.12553 72.1141 7.84966C72.1141 9.57379 71.0558 10.1754 70.0654 10.1754C69.0751 10.1754 68.0103 9.56481 68.0103 7.84966C68.0103 6.13451 69.0725 5.51234 70.0654 5.51234ZM70.0654 9.31978C70.4541 9.31978 71.1058 9.12864 71.1058 7.84966C71.1058 6.57067 70.4541 6.37953 70.0654 6.37953C69.3919 6.37953 69.0199 6.90165 69.0199 7.84966C69.0199 8.79767 69.3919 9.31978 70.0654 9.31978ZM67.0033 8.74508C67.1649 9.07348 67.3035 9.35699 67.6268 9.35699H67.859V10.1113L67.8256 10.1203C67.8192 10.1228 67.6486 10.1665 67.351 10.1665C66.58 10.1665 66.3427 9.63536 66.1335 9.16713C65.9629 8.78356 65.8141 8.45259 65.4113 8.45259H64.9816V10.1344H64.0053V5.55082H65.6307C66.8186 5.55082 67.3715 6.01393 67.3715 7.0094C67.3715 7.62516 67.002 8.00488 66.6326 8.16652C66.7955 8.32431 66.9007 8.53854 67.0033 8.74636M64.9816 7.69572H65.5268C66.0694 7.69572 66.4055 7.443 66.4055 7.03506C66.4055 6.60659 66.1117 6.36157 65.5973 6.36157H64.9816V7.697V7.69572ZM61.405 8.46029H62.4133V8.51032C62.4133 8.80793 62.3081 9.30696 61.6039 9.30696C60.9406 9.30696 60.5455 8.76175 60.5455 7.84966C60.5455 6.93756 60.924 6.37953 61.5859 6.37953C62.3723 6.37953 62.3992 7.17489 62.4005 7.20824L62.4031 7.25956L63.3139 7.11716V7.07868C63.3139 6.74771 63.0188 5.51105 61.5731 5.51105C60.2787 5.51105 59.5372 6.36286 59.5372 7.84838C59.5372 9.3339 60.3031 10.1742 61.5859 10.1742C62.8687 10.1742 63.3331 9.2736 63.3331 8.5039V7.70726H61.405V8.459V8.46029ZM58.4802 5.55082H57.3192L55.8016 7.6149V5.55082H54.8113V10.1369H55.8016V8.02797L57.3577 10.1369H58.5328L56.7573 7.82528L58.4802 5.55211V5.55082ZM52.9563 8.38332L51.3528 5.55082H50.3624V10.1369H51.3399V7.40195L52.9371 10.1369H53.9338V5.55082H52.9576V8.38332H52.9563ZM48.4279 5.58033L50.1007 10.1357H49.0847L48.6934 9.0119H47.1656L46.7872 10.1357H45.7647L47.4491 5.54954H48.4176L48.4292 5.57905L48.4279 5.58033ZM47.9289 6.8003L47.4337 8.24734H48.4356L47.9289 6.8003ZM44.8565 7.71881C45.208 7.82015 45.6698 8.14343 45.6698 8.83231C45.6698 9.66102 45.0823 10.1369 44.0573 10.1369H42.1228V5.55082H43.87C44.8629 5.55082 45.3671 5.96646 45.3671 6.78363C45.3671 7.41734 45.0784 7.64056 44.8552 7.71881M43.7674 7.42504C44.174 7.42504 44.3639 7.25442 44.3639 6.88625C44.3639 6.53732 44.1227 6.36029 43.6455 6.36029H43.1003V7.42504H43.7674ZM43.1003 9.32492H43.8636C44.3626 9.32492 44.5948 9.13762 44.5948 8.73481C44.5948 8.2422 44.1869 8.1383 43.8443 8.1383H43.1003V9.32492ZM38.0985 5.54954C39.5263 5.54954 40.3781 6.43598 40.3781 7.91893C40.3781 9.40189 39.6174 10.1344 38.291 10.1344H36.7374V5.55082H38.0998L38.0985 5.54954ZM37.7137 9.32492H38.2845C38.9875 9.32492 39.4083 8.79511 39.4083 7.9061C39.4083 6.87984 38.9632 6.35901 38.0857 6.35901H37.7137V9.32492ZM34.2988 5.54954H33.3213V10.1357H36.2833V9.32492H34.2988V5.54954ZM32.0051 8.74508C32.1667 9.07348 32.3065 9.35699 32.6298 9.35699H32.8607V10.1113L32.8274 10.1203C32.8197 10.1228 32.6503 10.1665 32.3527 10.1665C31.5817 10.1665 31.3444 9.63536 31.1353 9.16713C30.9634 8.78356 30.8159 8.45259 30.4131 8.45259H29.9833V10.1344H29.0058V5.55082H30.6312C31.8178 5.55082 32.372 6.01393 32.372 7.0094C32.372 7.62516 32.0025 8.00488 31.6343 8.16652C31.7973 8.32431 31.9024 8.53854 32.0051 8.74636M29.9846 7.69572H30.5298C31.0725 7.69572 31.4086 7.443 31.4086 7.03506C31.4086 6.60659 31.1135 6.36157 30.6004 6.36157H29.9846V7.697V7.69572ZM26.4017 5.51234C27.392 5.51234 28.4503 6.12553 28.4503 7.84966C28.4503 9.57379 27.392 10.1754 26.4017 10.1754C25.4113 10.1754 24.3466 9.56481 24.3466 7.84966C24.3466 6.13451 25.4088 5.51234 26.4017 5.51234ZM26.4017 9.31978C26.7904 9.31978 27.442 9.12864 27.442 7.84966C27.442 6.57067 26.7904 6.37953 26.4017 6.37953C25.7282 6.37953 25.3549 6.90165 25.3549 7.84966C25.3549 8.79767 25.7269 9.31978 26.4017 9.31978ZM23.1048 5.55082H24.2093L22.8918 10.1369H21.7886L20.9881 7.26084L20.1748 10.1369H19.0716L17.7554 5.55082H18.892L19.6629 8.89773L20.5866 5.55082H21.4076L22.3017 8.89773L23.1035 5.55082H23.1048Z" fill="#223353"/>
</g>
</g>
<defs>
<radialGradient id="paint0_radial_1801_4775" cx="0" cy="0" r="1" gradientUnits="userSpaceOnUse" gradientTransform="translate(15.4999 2.95837) scale(12.9746)">
<stop stop-color="white"/>
<stop offset="0.17" stop-color="#B3E0F3"/>
<stop offset="0.43" stop-color="#4AB6E2"/>
<stop offset="0.54" stop-color="#21A6DC"/>
<stop offset="0.71" stop-color="#2177A4"/>
<stop offset="0.91" stop-color="#214669"/>
<stop offset="1" stop-color="#223353"/>
</radialGradient>
<clipPath id="clip0_1801_4775">
<rect width="80" height="15.6865" fill="white" transform="translate(0.5)"/>
</clipPath>
<clipPath id="clip1_1801_4775">
<rect width="80" height="15.6865" fill="white" transform="translate(0.5)"/>
</clipPath>
</defs>
</svg>
