<svg width="80" height="24" viewBox="0 0 80 24" fill="none" xmlns="http://www.w3.org/2000/svg">
<g clip-path="url(#clip0_1801_18694)">
<g clip-path="url(#clip1_1801_18694)">
<path d="M62.6627 0.402718H67.2321C67.2088 1.0214 66.9555 1.56585 66.7271 2.11794C66.45 2.78791 66.1766 3.45947 65.902 4.13072C65.8765 4.19316 65.8536 4.25655 65.8217 4.3397C65.981 4.3397 66.1196 4.35308 66.2537 4.33333C66.3101 4.32505 66.371 4.25592 66.405 4.19953C66.8504 3.46075 67.3627 2.77357 67.9779 2.167C69.018 1.1415 70.2286 0.411638 71.6832 0.168563C74.446 -0.293375 76.7015 0.580803 78.3909 2.82359C79.2205 3.92523 79.6614 5.19668 79.8646 6.55223C80.1265 8.29931 80.022 10.0254 79.4435 11.6966C78.303 14.9917 76.1226 17.2727 72.7482 18.2995C70.962 18.843 69.1665 18.791 67.4216 18.0717C66.2779 17.6002 65.3649 16.8378 64.6768 15.8085C64.6459 15.7623 64.6134 15.7174 64.5595 15.64C64.4655 16.1742 64.3786 16.6674 64.2922 17.1605C64.03 18.662 63.7679 20.1635 63.506 21.6652C63.3967 22.2906 63.2855 22.916 63.1817 23.5423C63.1661 23.6363 63.131 23.6659 63.0393 23.6659C61.569 23.664 60.0991 23.6643 58.6289 23.6637C58.6037 23.6637 58.5789 23.6557 58.5397 23.649C59.915 15.8958 61.2887 8.14989 62.6627 0.402718ZM75.3157 8.76379C75.2841 8.4586 75.2723 8.15021 75.2175 7.84916C74.9974 6.64143 74.415 5.65065 73.3653 4.98705C71.984 4.11415 70.5153 4.09089 69.0387 4.69364C66.6762 5.6583 65.2862 8.13205 65.6663 10.6482C65.8131 11.6211 66.2301 12.4755 66.9785 13.1264C68.3688 14.3351 69.9731 14.5724 71.6801 13.9866C73.8559 13.2398 75.2943 11.1152 75.3157 8.76379Z" fill="#00505F"/>
<path d="M41.5627 7.94601C41.7299 6.95587 42.0093 6.01033 42.4502 5.1164C43.7599 2.46169 45.9116 0.897795 48.775 0.267648C50.0916 -0.0219393 51.4249 -0.0633544 52.7616 0.0806428C54.0503 0.219543 55.2816 0.555961 56.3883 1.25651C57.878 2.19919 58.7385 3.54613 58.9462 5.29959C59.1125 6.7026 58.8745 8.02151 58.0962 9.22064C57.5594 10.0474 56.8455 10.6982 56.043 11.2583C54.9149 12.0452 53.6782 12.6253 52.4099 13.1411C51.0703 13.6858 49.7266 14.2214 48.3802 14.7502C48.2028 14.82 48.1206 14.9044 48.1518 15.0927C48.1604 15.1433 48.1531 15.1968 48.1531 15.2768C48.4293 15.2204 48.6861 15.1701 48.9419 15.1153C50.3917 14.8053 51.8416 14.4937 53.2914 14.1841C53.3427 14.1733 53.3966 14.1688 53.4491 14.1688C54.9509 14.1682 56.453 14.1682 57.9548 14.1685C57.9914 14.1685 58.0277 14.172 58.0918 14.1752C58.0519 14.417 58.0153 14.6489 57.9752 14.8802C57.7875 15.9592 57.5973 17.0376 57.4135 18.1172C57.3922 18.2418 57.3555 18.2925 57.2154 18.2925C51.4892 18.2883 45.7631 18.289 40.037 18.289H39.8755C39.9322 17.9732 39.9841 17.6735 40.0396 17.3743C40.2266 16.3647 40.4177 15.3561 40.598 14.3453C40.6197 14.2245 40.678 14.1783 40.7761 14.1337C43.9791 12.6814 47.1818 11.229 50.3825 9.77178C51.2503 9.37674 52.1261 8.99381 52.926 8.46943C53.2166 8.27893 53.4928 8.05624 53.741 7.81316C54.654 6.91955 54.5355 5.00649 52.8923 4.42286C52.2299 4.18775 51.5472 4.12881 50.855 4.17182C49.1662 4.27599 47.8632 5.02561 47.0107 6.50636C46.7714 6.92178 46.6102 7.3697 46.4997 7.83546C46.4796 7.91989 46.4554 7.9613 46.3579 7.9613C44.7819 7.95812 43.2056 7.95875 41.6296 7.95812C41.614 7.95812 41.5987 7.95302 41.5633 7.94697L41.5627 7.94601Z" fill="#00505F"/>
<path d="M1.67222 7.94407C1.76715 7.54011 1.84488 7.14093 1.95511 6.75068C2.38774 5.21927 3.1278 3.85863 4.25525 2.72449C5.37505 1.59768 6.72136 0.853801 8.24671 0.426907C9.58792 0.0516219 10.9559 -0.0509602 12.342 0.0353744C13.4937 0.107054 14.6109 0.328785 15.6673 0.805059C17.0216 1.41577 18.0694 2.34443 18.6639 3.73247C18.9487 4.39734 19.0803 5.09439 19.1121 5.81565C19.2093 8.01256 18.2453 9.67936 16.5441 10.9817C15.48 11.7966 14.2971 12.4029 13.0665 12.9139C11.5459 13.5453 10.0148 14.1512 8.48437 14.7578C8.31584 14.8247 8.24671 14.9063 8.27506 15.0802C8.2843 15.1363 8.27634 15.1952 8.27634 15.2784C8.6067 15.2092 8.92018 15.1446 9.23302 15.0777C10.6309 14.7785 12.0289 14.4784 13.4271 14.1802C13.4784 14.1694 13.5326 14.1681 13.5851 14.1681C15.0764 14.1675 16.5676 14.1675 18.0589 14.1681C18.1057 14.1681 18.1522 14.1732 18.2207 14.177C17.9815 15.5514 17.7445 16.9139 17.5068 18.2791H0C0.0554326 17.977 0.108316 17.6871 0.161838 17.3972C0.348843 16.3826 0.538078 15.3682 0.720305 14.3526C0.740694 14.2395 0.789436 14.1825 0.891381 14.1363C3.71366 12.8575 6.53722 11.5813 9.3544 10.292C10.4376 9.79628 11.5112 9.27891 12.5797 8.7523C13.0219 8.53439 13.4179 8.24003 13.7855 7.90425C14.7954 6.98292 14.6616 5.0482 13.084 4.44959C12.3943 4.18804 11.681 4.12974 10.9565 4.17211C9.61118 4.2508 8.47481 4.76912 7.6035 5.81533C7.11289 6.40438 6.8061 7.08614 6.62578 7.82651C6.60348 7.91763 6.57959 7.96127 6.4751 7.96127C4.91502 7.95809 3.35463 7.95904 1.79455 7.95841C1.76365 7.95841 1.73275 7.95172 1.67222 7.94439V7.94407Z" fill="#00505F"/>
<path d="M39.56 7.95082H34.7572C34.7068 7.71125 34.6747 7.47391 34.6065 7.2474C34.1363 5.68446 33.0668 4.74243 31.4851 4.46941C29.2537 4.08456 27.4968 4.94122 26.1909 6.7431C25.4729 7.73419 25.1466 8.86706 25.189 10.092C25.2534 11.9464 26.2862 13.4447 27.9664 14.028C29.0119 14.3909 30.0636 14.3466 31.1047 14.0083C32.2844 13.625 33.2614 12.9573 33.9559 11.9114C34.0174 11.8187 34.0885 11.7269 34.1238 11.624C34.1875 11.438 34.3013 11.3962 34.4921 11.3975C35.941 11.4068 37.3899 11.4026 38.8385 11.4026H39.0389C38.8958 12.0621 38.6814 12.6801 38.3861 13.2685C37.3568 15.3195 35.7413 16.7528 33.6721 17.6968C32.1671 18.3833 30.5819 18.7051 28.9281 18.6343C26.7293 18.5404 24.7685 17.8216 23.1339 16.3183C21.7764 15.0698 20.942 13.5212 20.6429 11.7069C20.1083 8.46724 21.0456 5.66057 23.2616 3.27633C24.7739 1.64935 26.6382 0.595818 28.8278 0.194729C31.665 -0.32519 34.3003 0.189313 36.6148 1.96507C38.236 3.20879 39.1656 4.88228 39.4527 6.90589C39.5008 7.24581 39.5234 7.58924 39.5597 7.95114L39.56 7.95082Z" fill="#00505F"/>
</g>
</g>
<defs>
<clipPath id="clip0_1801_18694">
<rect width="80" height="23.6659" rx="8" fill="white"/>
</clipPath>
<clipPath id="clip1_1801_18694">
<rect width="80" height="23.6659" fill="white"/>
</clipPath>
</defs>
</svg>
