<svg width="80" height="81" viewBox="0 0 80 81" fill="none" xmlns="http://www.w3.org/2000/svg">
<g clip-path="url(#clip0_1801_18342)">
<path d="M40.1859 0H73.2761C74.7311 0 76.098 0.2425 77.2884 1.12432C78.9198 2.20454 79.9118 4.03432 79.9559 5.99636C79.978 9.74409 79.978 13.4698 79.978 17.1734L80 73.0807C80 74.227 79.978 75.3293 79.4489 76.3654C78.567 78.3054 76.7814 79.6502 74.6871 79.9147C74.1359 80.0029 73.5627 80.025 73.0116 80.025L7.88933 80.0029C7.16183 80.0029 6.39024 79.9588 5.66274 79.9147C2.26774 79.6282 -0.245439 76.6741 0.019106 73.2791C0.019106 51.0573 0.0411514 28.8795 0.019106 6.63568C0.019106 4.69568 0.570244 3.04227 2.02524 1.6975C3.08343 0.683408 4.47229 0.0881811 5.92729 0.0440902C6.89729 0.0220448 7.88933 0.0220451 8.85933 0.0220451L40.1859 0Z" fill="#E2261D"/>
<path d="M19.5073 11.9266H13.2904C12.2102 11.9266 11.9677 12.1691 11.9457 13.2052V16.5561C11.9457 17.5261 12.2102 17.7686 13.1361 17.7907L20.9402 17.9009C22.3732 17.9229 23.7841 17.9009 25.195 17.9229C27.0468 17.945 28.7002 18.5843 30.1773 19.7086C33.5723 22.332 33.8589 27.5127 30.9929 30.555C29.4277 32.2525 27.2232 33.2225 24.9084 33.1784C21.0284 33.2004 17.1704 33.1784 13.2904 33.1563C12.1882 33.1563 11.9457 33.4209 11.9457 34.5231V37.8741C11.9677 38.8881 12.2764 39.1968 13.2904 39.1968C16.8177 39.1968 20.3229 39.2188 23.8282 39.1968C24.7761 39.1968 25.7241 39.1306 26.65 39.0204C30.045 38.6897 33.1754 37.0143 35.3139 34.3247C38.6648 30.3786 39.4364 24.8672 37.32 20.1495C35.0934 14.7263 30.6843 12.1029 24.8864 11.8825C23.1227 11.8604 21.315 11.9045 19.5073 11.9266ZM54.0084 11.9045C61.7684 11.9045 68.0734 18.0111 68.0734 25.5727C68.0734 33.1343 61.7684 39.2409 53.9864 39.2409C46.2043 39.2409 39.9214 33.1343 39.9214 25.5947C39.9214 18.0552 46.2264 11.9045 54.0084 11.9045ZM54.0084 33.7736C58.3514 33.7736 61.9007 30.092 61.9007 25.5727C61.9007 21.0534 58.3734 17.3718 53.9864 17.3718C49.6434 17.3718 46.072 21.0534 46.072 25.5727C46.0941 30.1141 49.6434 33.7736 54.0084 33.7736ZM18.5152 52.1154C18.2507 51.7847 18.3389 51.432 18.3389 51.1013V41.7981C18.2727 41.1809 18.0523 40.9604 17.5011 40.8281C17.3027 40.7841 17.0823 40.74 16.8839 40.74H13.2464C12.2764 40.762 11.9677 41.0706 11.9677 42.0186V66.7756C11.9677 67.7236 12.2323 67.9881 13.1582 68.0102H16.6193C18.1184 68.0102 18.3389 67.8338 18.3389 66.2686V60.7572C18.3389 60.14 18.4711 59.5888 18.9341 59.1479C19.5734 58.4865 20.2127 57.8252 20.8961 57.2079C21.4032 56.7229 21.7779 56.767 22.2409 57.3181C22.6818 57.8472 23.0786 58.3984 23.4975 58.9275L29.7364 67.1063C30.1773 67.6575 30.7284 68.0102 31.4559 68.0102L36.7909 67.9881C37.0775 67.9881 37.4082 68.0102 37.5845 67.5472C37.4523 67.3268 37.2979 66.9961 37.0775 66.7315L29.582 57.1197L26.5618 53.1736C26.0548 52.5122 26.0768 52.1595 26.65 51.5422C26.7382 51.4541 26.8043 51.3659 26.8925 51.2777L32.3157 45.8986L36.4602 41.7761C36.6807 41.5336 37.0775 41.3572 36.9011 40.8722C36.7689 40.8502 36.6366 40.7841 36.5043 40.762C34.7407 40.74 33.0211 40.6959 31.2575 40.6959C30.2434 40.6959 29.4277 41.0927 28.7002 41.8422C25.6139 45.0829 22.4834 48.2354 19.3309 51.432C19.1105 51.7186 18.9341 52.0493 18.5152 52.1154ZM39.9654 48.5V51.0793C40.0095 52.865 39.8552 54.6065 40.1418 56.3702C41.222 63.4027 47.527 68.4511 54.6477 67.9661C62.1211 67.7677 68.0513 61.595 68.0073 54.1215C68.0513 50.1534 68.0073 46.2072 68.0073 42.2391V41.71C67.9411 41.1147 67.6986 40.8061 67.1034 40.8061C65.6704 40.7841 64.2816 40.7841 62.8486 40.8061C62.2534 40.8281 62.0109 41.1368 61.9889 41.71V42.6138C61.9448 46.6041 61.9227 50.5943 61.8566 54.6065C61.8345 56.3261 61.2393 58.0015 60.2032 59.3684C57.6679 62.7634 52.862 63.4688 49.445 60.9336C47.2625 59.3022 46.0279 56.7229 46.0941 54.0113C46.072 50.0431 46.1161 46.097 46.1602 42.1288C46.1602 41.0266 45.8957 40.7841 44.7934 40.762H41.2661C40.2079 40.7841 39.9875 41.0266 39.9875 42.1068V48.5H39.9654Z" fill="white"/>
</g>
<defs>
<clipPath id="clip0_1801_18342">
<rect width="80" height="80.025" rx="8" fill="white"/>
</clipPath>
</defs>
</svg>
