<svg width="80" height="25" viewBox="0 0 80 25" fill="none" xmlns="http://www.w3.org/2000/svg">
<g clip-path="url(#clip0_1801_18477)">
<g clip-path="url(#clip1_1801_18477)">
<path d="M36.1093 19.4568V20.4829C36.1093 21.462 36.1103 22.4416 36.1093 23.4206C36.1076 24.1962 35.5603 24.7253 34.7639 24.7243C33.9771 24.7237 33.4345 24.2015 33.4345 23.4346C33.4335 17.4879 33.4094 11.5413 33.4474 5.59471C33.4602 3.58144 34.4832 2.05877 36.1596 0.988668C38.9554 -0.795906 42.8035 -0.085183 44.7006 2.54401C45.3985 3.51075 45.752 4.59102 45.7509 5.78699C45.7477 8.83126 45.7841 11.8766 45.738 14.9203C45.7075 16.9283 44.7113 18.4638 43.0231 19.4889C40.8417 20.8139 38.5912 20.822 36.3481 19.5821C36.2865 19.5483 36.2239 19.5167 36.1098 19.4562L36.1093 19.4568ZM36.0921 10.1884C36.098 10.1884 36.1039 10.1884 36.1093 10.1884C36.1093 11.71 36.1093 13.2311 36.1093 14.7527C36.1093 15.3172 36.2442 15.8501 36.5527 16.322C37.3877 17.5988 38.6024 18.1033 40.0876 17.933C41.712 17.7466 43.1222 16.4494 43.1137 14.629C43.0997 11.7379 43.0933 8.84733 43.0837 5.95623C43.0837 5.86733 43.0837 5.77842 43.0837 5.68951C43.0837 4.9745 42.8378 4.34465 42.3794 3.80639C41.5139 2.79092 40.395 2.4144 39.0828 2.54776C37.4305 2.71593 36.12 4.06883 36.0964 5.67826C36.0744 7.18165 36.0916 8.68505 36.0916 10.1884H36.0921Z" fill="#00B9D3"/>
<path d="M79.9989 8.12222C79.9989 10.3117 80.0006 12.5017 79.9989 14.6912C79.9968 17.3659 77.975 19.7712 75.3377 20.234C75.168 20.264 75.1369 20.3277 75.1401 20.4996C75.1615 21.5312 75.1867 22.5643 75.1626 23.5953C75.1471 24.2669 74.4921 24.7575 73.7529 24.7227C73.0819 24.6911 72.5468 24.155 72.5468 23.5011C72.5468 22.5043 72.5532 21.5076 72.5623 20.5109C72.5639 20.3491 72.5425 20.2581 72.3443 20.2275C70.2374 19.9014 68.2455 17.9733 67.8438 15.8845C67.741 15.351 67.6874 14.8138 67.6885 14.2691C67.6955 10.0236 67.6971 5.77796 67.7019 1.53236C67.7019 1.24743 67.719 0.963571 67.8577 0.70274C68.1271 0.197146 68.7436 -0.0567216 69.3493 0.0894935C69.9878 0.243742 70.3514 0.685601 70.352 1.32348C70.3536 4.59913 70.3525 7.87478 70.3525 11.1504C70.3525 12.2452 70.3862 13.3415 70.345 14.4346C70.2716 16.3751 71.6888 17.5421 73.0813 17.8667C74.815 18.271 76.742 17.2063 77.2203 15.5749C77.3237 15.223 77.3607 14.8599 77.3607 14.4957C77.3633 10.1344 77.3623 5.7726 77.3623 1.41132C77.3623 0.642754 77.6836 0.224997 78.4286 0.0782462C79.2422 -0.0818941 79.9947 0.465475 79.9931 1.31331C79.9882 3.58312 79.9915 5.85294 79.9915 8.12222H79.9989Z" fill="#00B9D3"/>
<path d="M62.5994 12.2038C62.5994 14.4651 62.5994 16.7263 62.5994 18.9876C62.5994 19.6474 62.1977 20.1332 61.5416 20.2698C60.9354 20.3962 60.3034 20.0914 60.0586 19.5317C59.9783 19.3486 59.9349 19.2998 59.7281 19.4096C57.6549 20.5108 55.5377 20.6495 53.4345 19.5371C51.8309 18.6887 50.7383 17.3883 50.3982 15.5646C50.0549 13.727 50.6017 12.1246 51.8614 10.7792C53.013 9.54946 54.4548 8.90087 56.1542 8.83499C57.3309 8.78946 58.5075 8.81838 59.6842 8.81678C59.9279 8.81678 59.9783 8.7434 59.9756 8.51524C59.9627 7.57154 59.9729 6.62784 59.9697 5.68413C59.9643 4.18342 58.6918 2.77322 57.198 2.59166C56.054 2.45294 55.031 2.69288 54.1307 3.44592C53.5041 3.96972 52.5722 3.90652 52.1378 3.32005C51.681 2.70359 51.7415 2.10052 52.4104 1.54565C53.3429 0.772268 54.4157 0.296667 55.6191 0.126886C57.6929 -0.165009 59.5128 0.370578 61.0066 1.85094C62.0708 2.90551 62.6096 4.2027 62.608 5.71252C62.6053 7.87575 62.6074 10.0395 62.6074 12.2028C62.6053 12.2028 62.6026 12.2028 62.6005 12.2028L62.5994 12.2038ZM57.9977 11.3105C57.5253 11.3105 57.0529 11.3126 56.581 11.3105C56.0679 11.3078 55.5688 11.3844 55.0916 11.5767C53.9074 12.0533 53.1458 12.8979 52.9872 14.1764C52.8357 15.397 53.3097 16.39 54.3032 17.1152C55.5136 17.9989 57.3137 18.0192 58.5547 17.1741C59.4362 16.5737 59.9306 15.7355 59.9633 14.6707C59.9954 13.6221 59.967 12.5718 59.974 11.522C59.975 11.3592 59.9268 11.3056 59.7624 11.3078C59.1743 11.3158 58.5863 11.311 57.9982 11.311L57.9977 11.3105Z" fill="#00B9D3"/>
<path d="M0.0090917 10.1837C0.0090917 8.78635 0.0417625 7.38793 0.00212908 5.99166C-0.0787445 3.12092 1.91846 0.98928 4.29485 0.296767C6.96582 -0.48144 9.85799 0.478866 11.3528 2.64264C12.9628 4.97244 12.5429 8.10133 10.3679 9.96518C9.16816 10.9935 7.76813 11.4921 6.19511 11.5093C5.09877 11.5211 4.00135 11.5173 2.90501 11.5066C2.70095 11.5045 2.65489 11.5618 2.65703 11.7583C2.66774 12.6838 2.66024 13.6093 2.66185 14.5353C2.66506 16.3012 4.11543 17.758 5.88608 17.7815C6.88763 17.7949 7.77081 17.5175 8.53402 16.8367C9.30044 16.1533 10.58 16.5973 10.7658 17.5866C10.8392 17.9765 10.7176 18.3176 10.437 18.5822C7.50248 21.3517 2.49528 20.6946 0.604128 17.1056C0.20833 16.3531 0.0128408 15.5455 0.0106985 14.6965C0.00641377 13.1926 0.00962729 11.6882 0.00962729 10.1842L0.0090917 10.1837ZM4.63924 9.01344C5.08484 9.01344 5.53099 9.01397 5.9766 9.01344C6.5154 9.01237 7.04188 8.94435 7.54961 8.751C9.828 7.88228 10.3995 5.09402 8.63364 3.45084C7.46981 2.36788 5.47796 2.22167 4.11222 3.12734C3.17816 3.74702 2.67899 4.61895 2.66399 5.74315C2.6506 6.75755 2.66667 7.77248 2.6565 8.78689C2.65435 8.98291 2.7213 9.0204 2.90019 9.01719C3.47969 9.00648 4.0592 9.01344 4.6387 9.01344H4.63924Z" fill="#006090"/>
<path d="M23.049 0C24.9557 0.0990835 26.7692 0.810343 28.0519 2.57885C28.4676 3.15193 28.3144 3.88568 27.7322 4.28576C27.1307 4.69924 26.0612 4.54659 25.6552 3.9387C24.7008 2.50922 22.1267 1.96132 20.4648 3.26601C18.9341 4.46786 19.0851 6.5138 20.7867 7.53785C21.8557 8.18109 22.9323 8.81147 24.005 9.44828C24.6258 9.81677 25.2556 10.1703 25.8646 10.5575C27.2196 11.4182 28.1414 12.5954 28.4001 14.2107C28.6989 16.0772 28.0519 17.6021 26.6407 18.821C24.238 20.8959 20.4675 21.0437 17.9058 19.1713C17.4275 18.8216 17.0226 18.3995 16.6632 17.9288C16.3424 17.5083 16.2433 17.0616 16.4892 16.5855C16.7527 16.074 17.2165 15.8571 17.7719 15.8743C18.2919 15.8898 18.7247 16.0922 19.0525 16.5325C19.9726 17.7702 21.7433 18.2689 23.3195 17.7584C24.2086 17.4703 24.9396 16.9813 25.3692 16.1217C25.9771 14.9048 25.4822 13.4325 24.1984 12.6543C22.5525 11.6565 20.9035 10.6625 19.2528 9.67323C17.977 8.90895 17.043 7.86241 16.6938 6.39972C16.2524 4.55249 16.8373 2.99018 18.2105 1.72459C19.5099 0.527017 21.0936 0.0396334 23.049 0Z" fill="#006090"/>
</g>
</g>
<defs>
<clipPath id="clip0_1801_18477">
<rect width="80" height="24.7248" rx="8" fill="white"/>
</clipPath>
<clipPath id="clip1_1801_18477">
<rect width="80" height="24.7248" fill="white"/>
</clipPath>
</defs>
</svg>
