<svg width="80" height="48" viewBox="0 0 80 48" fill="none" xmlns="http://www.w3.org/2000/svg">
<g clip-path="url(#clip0_1801_17816)">
<g clip-path="url(#clip1_1801_17816)">
<path d="M14.0934 1.00786C12.8461 0.322962 11.493 0 9.83365 0C5.50707 0 3.02916 2.67279 3.02916 7.33347V8.84248H1.61481C0.723881 8.84248 0 9.56636 0 10.4573V10.6355C0 11.5264 0.723881 12.2447 1.61481 12.2447H3.02916V28.3928C3.02916 29.2838 3.75305 30.0076 4.64398 30.0076H5.14512C6.03606 30.0076 6.75994 29.2838 6.75994 28.3928V12.2392H11.8494C12.7403 12.2392 13.4642 11.5153 13.4642 10.6299V10.4517C13.4642 9.56079 12.7403 8.83691 11.8494 8.83691H6.7488V7.4504C6.7488 3.81986 8.60305 3.39667 9.99513 3.39667C10.9083 3.39667 11.7102 3.6027 12.4842 4.02589C12.7904 4.21521 13.1301 4.2709 13.4475 4.17067C13.776 4.07044 14.0433 3.81986 14.1936 3.4802L14.6057 2.61711C14.9064 1.94334 14.6948 1.30299 14.0934 1.0023V1.00786Z" fill="#02194B"/>
<path d="M17.3675 8.84248H17.8687C18.7596 8.84248 19.4835 9.56636 19.4835 10.4573V28.3873C19.4835 29.2782 18.7596 30.0021 17.8687 30.0021H17.3731C16.4822 30.0021 15.7583 29.2782 15.7583 28.3873V10.4517C15.7583 9.5608 16.4822 8.83691 17.3731 8.83691L17.3675 8.84248Z" fill="#02194B"/>
<path d="M29.6847 8.35799C24.5897 8.35799 21.7888 11.2034 21.7888 16.3764V28.3928C21.7888 29.2837 22.5127 30.0076 23.4036 30.0076H23.9048C24.7957 30.0076 25.5196 29.2837 25.5196 28.3928V16.7383C25.5196 13.247 26.7669 11.7602 29.6903 11.7602C32.6136 11.7602 33.8609 13.247 33.8609 16.7383V28.3928C33.8609 29.2837 34.5848 30.0076 35.4757 30.0076H35.9769C36.8678 30.0076 37.5917 29.2837 37.5917 28.3928V16.3708C37.5917 11.2034 34.7853 8.35242 29.6958 8.35242L29.6847 8.35799Z" fill="#02194B"/>
<path d="M47.9433 8.35799C42.7481 8.35799 39.886 11.2646 39.886 16.5378V34.8465C39.886 35.7374 40.6099 36.4613 41.5008 36.4613H42.0019C42.8929 36.4613 43.6168 35.7374 43.6168 34.8465V28.9775C44.7694 29.9797 46.3341 30.4865 48.2719 30.4865C53.2332 30.4865 55.9673 27.5798 55.9673 22.3066V16.5323C55.9673 11.2591 53.1163 8.35242 47.9489 8.35242L47.9433 8.35799ZM47.9433 11.7602C50.9558 11.7602 52.2365 13.2971 52.2365 16.8998V21.9057C52.2365 25.5362 50.9502 27.0898 47.9433 27.0898C44.9365 27.0898 43.6112 25.4416 43.6112 21.9057V16.8998C43.6112 13.2971 44.9086 11.7602 47.9433 11.7602Z" fill="#009CA6"/>
<path d="M59.9096 8.35806C57.3593 8.35806 55.171 9.17103 53.3668 10.8026C52.8545 11.3148 52.8323 11.9663 53.2722 12.4842L53.9515 13.364C54.2355 13.7482 54.564 13.8428 54.7867 13.8596C55.015 13.8763 55.3603 13.8206 55.7055 13.4698C56.7802 12.3951 58.2725 11.7547 59.698 11.7547C62.8497 11.7547 64.1916 13.3417 64.1916 17.0558V17.1894H59.8985C55.054 17.1894 52.1641 19.6562 52.1641 23.7934C52.1641 27.9307 55.0262 30.481 59.8205 30.481C65.0436 30.481 67.9168 27.5632 67.9168 22.2621V16.6493C67.9168 11.2981 65.0714 8.34692 59.8985 8.34692L59.9096 8.35806ZM64.2028 20.5193V21.9058C64.2028 25.5363 62.8942 27.0899 59.8261 27.0899C58.0331 27.0899 55.8948 26.5219 55.8948 23.8046C55.8948 21.0872 58.228 20.5193 60.188 20.5193H64.1972H64.2028Z" fill="#FFB81C"/>
<path d="M78.3908 8.84248H77.8896C76.9987 8.84248 76.2748 9.56636 76.2748 10.4573V21.5048C76.2748 24.9293 74.9495 26.5274 72.1041 26.5274C69.2587 26.5274 67.9335 25.024 67.9335 21.5048V10.4517C67.9335 9.5608 67.2096 8.83691 66.3186 8.83691H65.8175C64.9266 8.83691 64.2083 9.5608 64.2083 10.4517V21.9002C64.2083 27.0731 66.8699 29.9185 71.7032 29.9185C73.5964 29.9185 75.1444 29.423 76.2804 28.4708V29.0053C76.2804 31.9733 74.7658 33.0424 71.9092 33.0424C70.0494 33.0424 68.6406 32.5078 67.3488 31.3273C67.0871 31.0656 66.7585 30.9376 66.43 30.9543C66.0959 30.9821 65.7785 31.1603 65.5446 31.4721L64.9321 32.2907C64.5368 32.8419 64.5925 33.4656 65.1048 33.9723C66.9367 35.6316 69.203 36.4335 72.0262 36.4335C76.9486 36.4335 80 33.5157 80 28.8216V10.4517C80 9.5608 79.2761 8.83691 78.3852 8.83691L78.3908 8.84248Z" fill="#E4002B"/>
<path d="M2.4612 44.7358L2.08812 47.0634C2.07142 47.1915 1.99903 47.2527 1.87096 47.2527H1.20833C1.05241 47.2527 0.991163 47.1803 1.019 47.0244L1.40322 44.6245L0.0890953 41.4617C0.0222755 41.3169 0.0946636 41.2167 0.250576 41.2167H1.02457C1.13594 41.2167 1.2139 41.2724 1.25844 41.3782L2.08255 43.5943L3.62498 41.3503C3.68623 41.2612 3.76975 41.2167 3.88112 41.2167H4.68296C4.86671 41.2167 4.91683 41.328 4.8166 41.4728L2.45563 44.7358H2.4612Z" fill="#02194B"/>
<path d="M7.71224 44.0231C7.71224 44.1401 7.7011 44.257 7.68439 44.3851L7.48393 45.6658C7.30018 46.7906 6.65426 47.353 5.55173 47.353C4.50489 47.353 3.92578 46.8463 3.92578 45.9665C3.92578 45.8551 3.93692 45.727 3.95919 45.5934L4.15965 44.3127C4.33784 43.1879 4.98376 42.6255 6.09186 42.6255C7.11643 42.6255 7.70667 43.1266 7.70667 44.0231H7.71224ZM6.51505 45.5489L6.68767 44.4241C6.70437 44.3238 6.71551 44.2236 6.71551 44.1401C6.71551 43.6946 6.49834 43.4774 6.05288 43.4774C5.53502 43.4774 5.23434 43.7948 5.13411 44.4352L4.96149 45.56C4.94478 45.6602 4.93365 45.7604 4.93365 45.844C4.93365 46.2894 5.15081 46.5066 5.59071 46.5066C6.10856 46.5066 6.41482 46.1892 6.51505 45.5544V45.5489Z" fill="#02194B"/>
<path d="M11.7882 45.7214C11.6156 46.8128 10.9864 47.3585 9.91724 47.3585C8.92608 47.3585 8.35254 46.8685 8.35254 46.0054C8.35254 45.8996 8.36368 45.7771 8.38038 45.649L8.81471 42.9261C8.83141 42.7981 8.9038 42.7368 9.03187 42.7368H9.60541C9.76132 42.7368 9.82257 42.8092 9.79473 42.9651L9.36597 45.6546C9.35484 45.7159 9.34927 45.7994 9.34927 45.9108C9.34927 46.3117 9.56086 46.5121 9.97849 46.5121C10.4852 46.5121 10.7413 46.2281 10.8416 45.6212L11.2703 42.9317C11.287 42.8036 11.3594 42.7424 11.4875 42.7424H12.0332C12.1891 42.7424 12.2504 42.8148 12.2225 42.9707L11.7882 45.7326V45.7214Z" fill="#02194B"/>
<path d="M13.0689 44.296C13.2471 43.1768 13.8318 42.6255 14.8229 42.6255C15.2405 42.6255 15.5858 42.7146 15.8698 42.8983C15.9756 42.9707 15.9978 43.071 15.9255 43.1879L15.6916 43.5665C15.6192 43.6779 15.519 43.6946 15.402 43.6222C15.2461 43.522 15.0735 43.4774 14.8842 43.4774C14.4331 43.4774 14.1603 43.7503 14.0656 44.3071L13.6313 47.0579C13.6146 47.1859 13.5422 47.2472 13.4141 47.2472H12.8406C12.6847 47.2472 12.6234 47.1748 12.6513 47.0189L13.08 44.296H13.0689Z" fill="#02194B"/>
<path d="M19.6672 43.7948H21.7275C21.8834 43.7948 21.9446 43.8672 21.9224 44.0231L21.8388 44.5521C21.8221 44.6802 21.7498 44.7414 21.6217 44.7414H19.5224L19.1494 47.0578C19.1326 47.1859 19.0603 47.2472 18.9322 47.2472H18.2696C18.1136 47.2472 18.0524 47.1748 18.0802 47.0189L18.9712 41.406C18.9879 41.2779 19.0603 41.2167 19.1883 41.2167H22.5405C22.6964 41.2167 22.7576 41.2891 22.7298 41.445L22.6463 41.974C22.6295 42.102 22.5572 42.1633 22.4291 42.1633H19.9289L19.6672 43.8004V43.7948Z" fill="#02194B"/>
<path d="M22.7632 47.2471C22.6073 47.2471 22.546 47.1748 22.5739 47.0189L23.2254 42.9206C23.2421 42.7925 23.3145 42.7312 23.4425 42.7312H24.0161C24.172 42.7312 24.2332 42.8036 24.2054 42.9596L23.5539 47.0578C23.5372 47.1859 23.4648 47.2471 23.3367 47.2471H22.7632ZM23.3813 41.445C23.3813 41.0719 23.643 40.8102 23.9994 40.8102C24.3557 40.8102 24.5562 41.0273 24.5562 41.3559C24.5562 41.7178 24.2834 41.9851 23.9326 41.9851C23.604 41.9851 23.3869 41.7679 23.3869 41.4505L23.3813 41.445Z" fill="#02194B"/>
<path d="M27.502 44.4073C27.5187 44.296 27.5299 44.2013 27.5299 44.1178C27.5299 43.689 27.3238 43.483 26.9006 43.483C26.4106 43.483 26.1211 43.7948 26.0208 44.4129L25.6032 47.0634C25.5865 47.1915 25.5141 47.2528 25.3861 47.2528H24.8125C24.6566 47.2528 24.5954 47.1804 24.6232 47.0245L25.0464 44.2904C25.219 43.1823 25.8538 42.6255 26.9452 42.6255C27.9642 42.6255 28.5377 43.1099 28.5377 43.9786C28.5377 44.0621 28.5266 44.179 28.4988 44.3517L28.07 47.0579C28.0533 47.1859 27.9809 47.2472 27.8528 47.2472H27.2793C27.1234 47.2472 27.0621 47.1748 27.09 47.0189L27.4965 44.4018L27.502 44.4073Z" fill="#02194B"/>
<path d="M30.8373 43.5888L30.4809 45.8439C30.4697 45.8773 30.4697 45.933 30.4697 45.9998C30.4697 46.3339 30.6591 46.5066 31.0321 46.5066C31.1491 46.5066 31.2604 46.4898 31.3774 46.4453C31.5222 46.4008 31.6168 46.4342 31.6391 46.5734L31.7282 46.9632C31.756 47.0968 31.7171 47.1915 31.6113 47.236C31.3997 47.3195 31.1658 47.3641 30.8818 47.3641C29.9742 47.3641 29.4675 46.9409 29.4675 46.1502C29.4675 46.0388 29.4786 45.9219 29.4953 45.7938L29.8405 43.5943H29.4842C29.3282 43.5943 29.267 43.5219 29.2948 43.366L29.3672 42.9317C29.3839 42.8036 29.4563 42.7424 29.5844 42.7424H29.9742L30.1356 41.7512C30.1524 41.6231 30.2247 41.5619 30.3528 41.5619H30.9264C31.0823 41.5619 31.1435 41.6343 31.1157 41.7902L30.9598 42.7424H32.04C32.1959 42.7424 32.2572 42.8148 32.2293 42.9707L32.1625 43.405C32.1458 43.5331 32.0734 43.5943 31.9454 43.5943H30.8206L30.8373 43.5888Z" fill="#02194B"/>
<path d="M36.0938 44.0231C36.0938 44.14 36.0826 44.257 36.0659 44.385L35.949 45.1145C35.9323 45.2425 35.8599 45.3038 35.7318 45.3038H33.4432L33.4154 45.482C33.3987 45.5934 33.3876 45.688 33.3876 45.7938C33.3876 46.295 33.6437 46.501 34.195 46.501C34.4956 46.501 34.7685 46.3896 35.0135 46.1836C35.1304 46.0945 35.2307 46.1001 35.3142 46.2226L35.5425 46.5845C35.6037 46.7014 35.5982 46.7905 35.4979 46.8741C35.0915 47.1915 34.6349 47.3529 34.1281 47.3529C33.0033 47.3529 32.3853 46.8518 32.3853 45.9163C32.3853 45.7882 32.3964 45.6546 32.4242 45.5154L32.6136 44.3071C32.7973 43.1823 33.4321 42.6199 34.5124 42.6199C35.5314 42.6199 36.1049 43.121 36.1049 44.0175L36.0938 44.0231ZM33.5713 44.4296L33.5546 44.5576H35.097L35.1137 44.424C35.1304 44.3126 35.1416 44.218 35.1416 44.1233C35.1416 43.6946 34.9244 43.4774 34.4901 43.4774C33.9722 43.4774 33.6827 43.7781 33.5713 44.4351V44.4296Z" fill="#02194B"/>
<path d="M39.4738 46.6513C39.535 46.7683 39.5294 46.8574 39.4292 46.9409C39.0728 47.2249 38.6663 47.3585 38.2042 47.3585C37.1796 47.3585 36.5615 46.8407 36.5615 45.9219C36.5615 45.8384 36.5727 45.7047 36.6005 45.521L36.7843 44.3739C36.9736 43.2045 37.6195 42.6199 38.7276 42.6199C39.2287 42.6199 39.6297 42.7479 39.9248 42.9929C40.025 43.0765 40.025 43.1656 39.9359 43.2825L39.6352 43.6389C39.5517 43.7391 39.4626 43.7391 39.3457 43.6556C39.1898 43.5386 38.9893 43.4718 38.7554 43.4718C38.1986 43.4718 37.8756 43.8059 37.7531 44.4908L37.5972 45.482C37.5805 45.5934 37.5694 45.688 37.5694 45.7827C37.5694 46.2616 37.8144 46.501 38.3155 46.501C38.5327 46.501 38.7499 46.4175 38.967 46.2448C39.084 46.1613 39.1842 46.1725 39.2566 46.2894L39.4738 46.6458V46.6513Z" fill="#02194B"/>
<path d="M44.1121 43.9229C44.1121 44.0676 44.1066 44.2124 44.0787 44.3516L43.65 47.0578C43.6333 47.1859 43.5609 47.2472 43.4328 47.2472H42.8593C42.7034 47.2472 42.6421 47.1748 42.67 47.0189L43.0876 44.385C43.1043 44.2848 43.1154 44.1957 43.1154 44.1011C43.1154 43.6834 42.9094 43.4718 42.4806 43.4718C41.9962 43.4718 41.7011 43.7837 41.6008 44.3906L41.1721 47.0523C41.1554 47.1803 41.083 47.2416 40.9549 47.2416H40.3814C40.2255 47.2416 40.1642 47.1692 40.1921 47.0133L41.1387 41.0719C41.1554 40.9438 41.2278 40.8826 41.3558 40.8826H41.9294C42.0853 40.8826 42.1465 40.955 42.1187 41.1109L41.8291 42.9261H41.8458C42.0908 42.7145 42.4027 42.6143 42.7702 42.6143C43.6444 42.6143 44.1121 43.0765 44.1121 43.9117V43.9229Z" fill="#02194B"/>
<path d="M51.2118 41.8069C51.2897 41.9183 51.273 42.0185 51.1728 42.0965L50.6995 42.4974C50.5993 42.5809 50.5102 42.5698 50.4099 42.4584C50.1649 42.1856 49.8197 42.0519 49.3742 42.0519C48.6949 42.0519 48.255 42.425 48.255 43.0152C48.255 43.405 48.5167 43.6055 49.3074 43.7502C50.46 43.9618 50.9166 44.4017 50.9166 45.276C50.9166 46.5567 50.0536 47.3529 48.6615 47.3529C47.7427 47.3529 47.0634 47.069 46.629 46.5177C46.5455 46.4175 46.5678 46.3172 46.6736 46.2281L47.1358 45.8272C47.236 45.7381 47.3251 45.7437 47.4253 45.8606C47.7316 46.2226 48.1715 46.4063 48.7227 46.4063C49.3854 46.4063 49.8308 46.0166 49.8308 45.4319C49.8308 45.0588 49.558 44.8583 48.784 44.7136C47.6146 44.4964 47.158 44.0509 47.158 43.1711C47.158 42.5475 47.3585 42.0352 47.765 41.6621C48.177 41.2891 48.7283 41.0997 49.4188 41.0997C50.2262 41.0997 50.8276 41.3336 51.2006 41.8013L51.2118 41.8069Z" fill="#02194B"/>
<path d="M55.1431 44.0231C55.1431 44.1401 55.1376 44.257 55.1153 44.3851L54.9148 45.6658C54.7367 46.7906 54.0907 47.353 52.9826 47.353C51.9414 47.353 51.3567 46.8463 51.3567 45.9665C51.3567 45.8551 51.3623 45.727 51.3957 45.5934L51.5961 44.3127C51.7799 43.1879 52.4202 42.6255 53.5283 42.6255C54.5529 42.6255 55.1431 43.1266 55.1431 44.0231ZM53.946 45.5489L54.1186 44.4241C54.1353 44.3238 54.1464 44.2236 54.1464 44.1401C54.1464 43.6946 53.9293 43.4774 53.4838 43.4774C52.9659 43.4774 52.6652 43.7948 52.565 44.4352L52.3924 45.56C52.3757 45.6602 52.3646 45.7604 52.3646 45.844C52.3646 46.2894 52.5817 46.5066 53.016 46.5066C53.5339 46.5066 53.8402 46.1892 53.946 45.5544V45.5489Z" fill="#02194B"/>
<path d="M55.878 47.2472C55.722 47.2472 55.6608 47.1748 55.6886 47.0189L56.6297 41.0775C56.6464 40.9494 56.7188 40.8882 56.8468 40.8882H57.4204C57.5763 40.8882 57.6375 40.9606 57.6097 41.1165L56.6631 47.0579C56.6464 47.1859 56.574 47.2472 56.4459 47.2472H55.8724H55.878Z" fill="#02194B"/>
<path d="M61.3072 45.7214C61.1346 46.8128 60.5054 47.3585 59.4363 47.3585C58.4451 47.3585 57.8716 46.8685 57.8716 46.0054C57.8716 45.8996 57.8827 45.7771 57.8994 45.649L58.3393 42.9261C58.356 42.7981 58.4284 42.7368 58.5565 42.7368H59.13C59.2859 42.7368 59.3472 42.8092 59.3193 42.9651L58.8906 45.6546C58.885 45.7159 58.8739 45.7994 58.8739 45.9108C58.8739 46.3117 59.0799 46.5121 59.4975 46.5121C60.0098 46.5121 60.2604 46.2281 60.3606 45.6212L60.7894 42.9317C60.8061 42.8036 60.8785 42.7424 61.0065 42.7424H61.5522C61.7082 42.7424 61.7694 42.8148 61.7416 42.9707L61.3072 45.7326V45.7214Z" fill="#02194B"/>
<path d="M63.9242 43.5888L63.5678 45.8439C63.5567 45.8773 63.5567 45.933 63.5567 45.9998C63.5567 46.3339 63.746 46.5066 64.1191 46.5066C64.236 46.5066 64.3474 46.4898 64.4643 46.4453C64.6091 46.4008 64.6982 46.4342 64.726 46.5734L64.8151 46.9632C64.8429 47.0968 64.804 47.1915 64.6982 47.236C64.4866 47.3195 64.2527 47.3641 63.9687 47.3641C63.0611 47.3641 62.5544 46.9409 62.5544 46.1502C62.5544 46.0388 62.5655 45.9219 62.5822 45.7938L62.9274 43.5943H62.5711C62.4152 43.5943 62.3539 43.5219 62.3817 43.366L62.4541 42.9317C62.4708 42.8036 62.5432 42.7424 62.6713 42.7424H63.0611L63.2226 41.7512C63.2393 41.6231 63.3117 41.5619 63.4397 41.5619H64.0133C64.1692 41.5619 64.2304 41.6343 64.2026 41.7902L64.0467 42.7424H65.1269C65.2828 42.7424 65.3441 42.8148 65.3163 42.9707L65.255 43.405C65.2383 43.5331 65.1659 43.5943 65.0378 43.5943H63.913L63.9242 43.5888Z" fill="#02194B"/>
<path d="M65.6448 47.2471C65.4889 47.2471 65.4276 47.1748 65.4555 47.0189L66.107 42.9206C66.1237 42.7925 66.1961 42.7312 66.3241 42.7312H66.8977C67.0536 42.7312 67.1148 42.8036 67.0926 42.9596L66.4355 47.0578C66.4188 47.1859 66.3464 47.2471 66.2183 47.2471H65.6448ZM66.2629 41.445C66.2629 41.0719 66.5246 40.8102 66.881 40.8102C67.2373 40.8102 67.4378 41.0273 67.4378 41.3559C67.4378 41.7178 67.165 41.9851 66.8086 41.9851C66.4856 41.9851 66.2629 41.7679 66.2629 41.4505V41.445Z" fill="#02194B"/>
<path d="M71.3302 44.0231C71.3302 44.1401 71.319 44.257 71.3023 44.3851L71.1019 45.6658C70.9237 46.7906 70.2777 47.353 69.1696 47.353C68.1228 47.353 67.5437 46.8463 67.5437 45.9665C67.5437 45.8551 67.5493 45.727 67.5771 45.5934L67.7776 44.3127C67.9613 43.1879 68.6017 42.6255 69.7098 42.6255C70.7343 42.6255 71.3246 43.1266 71.3246 44.0231H71.3302ZM70.133 45.5489L70.3056 44.4241C70.3223 44.3238 70.3334 44.2236 70.3334 44.1401C70.3334 43.6946 70.1163 43.4774 69.6708 43.4774C69.1529 43.4774 68.8523 43.7948 68.752 44.4352L68.5794 45.56C68.5627 45.6602 68.5516 45.7604 68.5516 45.844C68.5516 46.2894 68.7687 46.5066 69.2031 46.5066C69.7209 46.5066 70.0272 46.1892 70.133 45.5544V45.5489Z" fill="#02194B"/>
<path d="M74.7213 44.4073C74.738 44.296 74.7492 44.2013 74.7492 44.1178C74.7492 43.689 74.5431 43.483 74.1255 43.483C73.6355 43.483 73.3459 43.7948 73.2457 44.4129L72.8281 47.0634C72.8114 47.1915 72.739 47.2528 72.6109 47.2528H72.0374C71.8815 47.2528 71.8202 47.1804 71.8481 47.0245L72.2712 44.2904C72.4439 43.1823 73.0787 42.6255 74.17 42.6255C75.189 42.6255 75.7626 43.1099 75.7626 43.9786C75.7626 44.0621 75.7515 44.179 75.7236 44.3517L75.2948 47.0579C75.2781 47.1859 75.2058 47.2472 75.0777 47.2472H74.5041C74.3482 47.2472 74.287 47.1748 74.3148 47.0189L74.7213 44.4018V44.4073Z" fill="#02194B"/>
<path d="M76.2693 46.8685C76.169 46.785 76.169 46.6904 76.2581 46.579L76.5699 46.2059C76.6535 46.1057 76.7481 46.0945 76.8595 46.1892C77.1156 46.4064 77.4386 46.5177 77.8395 46.5177C78.3908 46.5177 78.6748 46.3173 78.6748 45.9164C78.6748 45.6546 78.4854 45.5154 77.9008 45.4096C76.982 45.237 76.6368 44.9085 76.6368 44.218C76.6368 43.2436 77.3718 42.6255 78.5077 42.6255C79.0367 42.6255 79.4599 42.7424 79.7996 42.9707C79.9109 43.0542 79.9165 43.1545 79.8274 43.2714L79.5434 43.6334C79.4599 43.7336 79.3708 43.7503 79.2539 43.6723C79.0367 43.5331 78.7917 43.4719 78.5077 43.4719C77.9286 43.4719 77.6335 43.6723 77.6335 44.0621C77.6335 44.3071 77.8117 44.4241 78.3685 44.5299C79.3151 44.7025 79.6659 45.0366 79.6659 45.766C79.6659 46.746 78.9587 47.3641 77.8395 47.3641C77.1657 47.3641 76.6423 47.2026 76.2581 46.8741L76.2693 46.8685Z" fill="#02194B"/>
</g>
</g>
<defs>
<clipPath id="clip0_1801_17816">
<rect width="80" height="47.3585" rx="8" fill="white"/>
</clipPath>
<clipPath id="clip1_1801_17816">
<rect width="80" height="47.3585" fill="white"/>
</clipPath>
</defs>
</svg>
