<svg width="80" height="33" viewBox="0 0 80 33" fill="none" xmlns="http://www.w3.org/2000/svg">
<g clip-path="url(#clip0_1801_18361)">
<g clip-path="url(#clip1_1801_18361)">
<path d="M79.9997 6.01545L77.6517 0.913452H3.73022V25.5512H77.6517L79.9997 19.33V6.01545Z" fill="white"/>
<path d="M45.3582 14.4913C44.977 14.1347 44.5024 13.9564 43.9291 13.9564C43.3558 13.9564 42.8539 14.1347 42.4589 14.4913C42.0584 14.8479 41.8582 15.2703 41.8582 15.7586C41.8582 16.2743 42.0502 16.7077 42.4205 17.0615C42.799 17.4181 43.2927 17.5964 43.9044 17.5964C44.5161 17.5964 45.0126 17.4318 45.3829 17.0972C45.7477 16.7653 45.9343 16.3374 45.9343 15.8134C45.9343 15.2895 45.7423 14.8479 45.361 14.4913" fill="#EA6011"/>
<path d="M43.8772 11.688C44.2886 11.688 44.626 11.5535 44.8866 11.282C45.15 11.0104 45.2844 10.6593 45.2844 10.2287C45.2844 9.81996 45.15 9.48806 44.8866 9.23296C44.6178 8.97511 44.2694 8.84619 43.836 8.84619C43.4383 8.84619 43.1091 8.97786 42.8513 9.24118C42.5935 9.50177 42.4673 9.83642 42.4673 10.2479C42.4673 10.6593 42.6044 10.9995 42.876 11.2765C43.1475 11.5535 43.4822 11.6907 43.8799 11.6907" fill="#EA6011"/>
<path d="M15.5088 12.0885C14.7627 12.0885 14.1428 12.3436 13.6546 12.8483C13.1663 13.3558 12.9194 14.0223 12.9194 14.8425C12.9194 15.6626 13.1663 16.3594 13.6546 16.8751C14.1456 17.3907 14.7655 17.6513 15.5088 17.6513C16.2522 17.6513 16.8392 17.388 17.3329 16.8613C17.8267 16.3374 18.0736 15.6654 18.0736 14.8507C18.0736 14.036 17.8294 13.3805 17.3439 12.8648C16.8584 12.3463 16.2467 12.0912 15.5088 12.0912" fill="#EA6011"/>
<path d="M25.4386 12.0884C24.709 12.0884 24.1 12.3435 23.6145 12.862C23.129 13.3777 22.8904 14.0415 22.8904 14.8479C22.8904 15.6543 23.1345 16.3346 23.6283 16.8585C24.122 17.3852 24.7282 17.6485 25.4469 17.6485C26.1655 17.6485 26.8047 17.3879 27.2957 16.8722C27.7839 16.3566 28.028 15.679 28.028 14.8397C28.028 14.0003 27.7812 13.3557 27.2957 12.8455C26.8047 12.3381 26.1875 12.0857 25.4386 12.0857" fill="#EA6011"/>
<path d="M53.8783 14.4913C53.4997 14.1347 53.0197 13.9564 52.4492 13.9564C51.8786 13.9564 51.3739 14.1347 50.9761 14.4913C50.5784 14.8479 50.3782 15.2703 50.3782 15.7586C50.3782 16.2743 50.5674 16.7077 50.9405 17.0615C51.3163 17.4181 51.81 17.5964 52.4217 17.5964C53.0334 17.5964 53.5326 17.4318 53.9002 17.0972C54.265 16.7653 54.4488 16.3374 54.4488 15.8134C54.4488 15.2895 54.2595 14.8479 53.8783 14.4913Z" fill="#EA6011"/>
<path d="M52.397 11.688C52.8057 11.688 53.1431 11.5535 53.4064 11.282C53.6697 11.0104 53.8041 10.6593 53.8041 10.2287C53.8041 9.81996 53.667 9.48806 53.4037 9.23296C53.1376 8.97511 52.7892 8.84619 52.3531 8.84619C51.9553 8.84619 51.6262 8.97786 51.3711 9.24118C51.1132 9.50177 50.9871 9.83642 50.9871 10.2479C50.9871 10.6593 51.1215 10.9995 51.393 11.2765C51.6673 11.5535 51.9992 11.6907 52.3997 11.6907" fill="#EA6011"/>
<path d="M62.4941 20.6905C62.1046 10.695 79.5556 9.91324 80.0028 9.89678V3.94445C80.0028 1.7665 78.2362 0 76.0583 0H3.94171C1.76376 0 0 1.7665 0 3.94445V23.9382C0 26.1162 1.76376 27.8827 3.94171 27.8827H76.0583C78.2362 27.8827 80.0028 26.1162 80.0028 23.9382V16.1399C64.6199 16.0329 62.4941 20.6933 62.4941 20.6933M9.94617 19.5769H7.58169V10.1464H9.94617V19.5741V19.5769ZM9.83371 8.8901C9.54295 9.18634 9.19184 9.33172 8.78313 9.33172C8.37442 9.33172 8.00137 9.18085 7.70513 8.87912C7.40888 8.57739 7.26076 8.20983 7.26076 7.77369C7.26076 7.33755 7.40614 7.00291 7.70238 6.70666C7.99314 6.41316 8.34699 6.26504 8.76393 6.26504C9.18087 6.26504 9.53472 6.4159 9.83096 6.71489C10.1272 7.01388 10.2753 7.3787 10.2753 7.80661C10.2753 8.23452 10.13 8.58837 9.83371 8.88735M19.0969 18.4001C18.2081 19.3437 17.1521 19.8155 15.9342 19.8155C15.3938 19.8155 14.8863 19.7195 14.42 19.5275C13.951 19.3327 13.4874 19.0173 13.0238 18.5784V23.0248H10.6786V10.1464H13.0238V11.186C13.4517 10.7608 13.9153 10.4372 14.4091 10.2232C14.9083 10.0092 15.4377 9.90227 16.0055 9.90227C17.2344 9.90227 18.2794 10.3658 19.1408 11.2957C20.0021 12.2256 20.4327 13.4188 20.4327 14.8726C20.4327 16.3264 19.9883 17.451 19.0969 18.3974M56.3031 18.0106C55.9355 18.636 55.4391 19.1051 54.8246 19.4205C54.2074 19.736 53.4175 19.8923 52.4601 19.8923C51.4315 19.8923 50.6141 19.7414 50.0079 19.437C49.4017 19.1352 48.9162 18.6744 48.5513 18.06C48.3813 17.7747 48.2524 17.4702 48.1618 17.152C48.0713 17.451 47.9479 17.7363 47.7833 18.0133C47.4157 18.6388 46.922 19.1078 46.3048 19.4233C45.6876 19.7387 44.8949 19.8951 43.9376 19.8951C42.909 19.8951 42.0916 19.7442 41.4881 19.4397C40.8819 19.138 40.3964 18.6772 40.0315 18.0627C39.6667 17.4483 39.4829 16.7516 39.4829 15.978C39.4829 15.306 39.6311 14.697 39.9218 14.1457C40.2126 13.5916 40.6515 13.0979 41.2357 12.6672C40.8572 12.2805 40.5664 11.869 40.3744 11.4329C40.2236 11.0982 40.133 10.7499 40.0974 10.3878L34.3041 23.0276H31.8601L33.7994 18.8747L30.2884 10.3274V19.5769H27.9239V18.5812C27.4603 19.02 26.9995 19.3355 26.5359 19.5302C26.0696 19.7222 25.5676 19.8182 25.0273 19.8182C23.8066 19.8182 22.756 19.3465 21.8673 18.4029C20.9786 17.4565 20.5342 16.2853 20.5342 14.8781C20.5342 13.4709 20.9649 12.2283 21.8234 11.3012C22.6847 10.3713 23.7271 9.90775 24.9559 9.90775C25.521 9.90775 26.0531 10.012 26.5469 10.2287C27.0434 10.4426 27.5015 10.7663 27.9239 11.1915V10.1519H32.6309L35.0804 16.0658L37.7823 10.1519H40.0837C40.0837 10.119 40.0837 10.086 40.0837 10.0531C40.0837 9.38932 40.2428 8.78586 40.5637 8.24C40.8846 7.69414 41.3317 7.27172 41.9105 6.96725C42.4865 6.66277 43.1531 6.51191 43.9102 6.51191C44.6672 6.51191 45.3091 6.66551 45.8769 6.96999C46.4447 7.27721 46.8918 7.7106 47.2182 8.27566C47.5447 8.83798 47.7065 9.44144 47.7065 10.0888C47.7065 10.5441 47.6215 10.9666 47.4541 11.3561C47.2841 11.7456 46.9714 12.1817 46.5215 12.67C47.0976 13.0375 47.5447 13.5148 47.8601 14.0963C47.989 14.3322 48.0878 14.5764 48.1646 14.8287C48.2332 14.5928 48.3264 14.3651 48.4416 14.1484C48.7324 13.5944 49.1685 13.1006 49.7528 12.67C49.3688 12.2832 49.0835 11.8717 48.8915 11.4356C48.6967 10.9995 48.6007 10.5414 48.6007 10.0559C48.6007 9.39207 48.7598 8.7886 49.0807 8.24275C49.4017 7.69689 49.8515 7.27446 50.4276 6.96999C51.0036 6.66551 51.6729 6.51465 52.43 6.51465C53.187 6.51465 53.8317 6.66826 54.3967 6.97273C54.9618 7.27995 55.4089 7.71334 55.7353 8.2784C56.0617 8.84072 56.2236 9.44418 56.2236 10.0915C56.2236 10.5469 56.1358 10.9693 55.9685 11.3588C55.7956 11.7483 55.4857 12.1845 55.0331 12.6727C55.6119 13.0403 56.059 13.5176 56.3744 14.0991C56.6871 14.6778 56.8462 15.3087 56.8462 15.9835C56.8462 16.7186 56.6624 17.3989 56.2976 18.0216M78.442 8.48139C65.2975 9.68557 62.1594 1.67598 62.1594 1.67598C79.2841 1.44282 78.442 8.48139 78.442 8.48139Z" fill="#EA6011"/>
<path d="M23.3566 31.1468L22.9698 31.0783C23.0137 30.9247 23.0877 30.8094 23.1947 30.7326C23.299 30.6586 23.4581 30.6229 23.6665 30.6229C23.8558 30.6229 23.9957 30.6449 24.0889 30.6888C24.1822 30.7354 24.248 30.7902 24.2864 30.8588C24.3248 30.9274 24.344 31.0563 24.344 31.2401L24.3386 31.7338C24.3386 31.8737 24.344 31.978 24.3605 32.0438C24.3742 32.1124 24.3989 32.1837 24.4373 32.2605H24.0176C24.0067 32.2303 23.9929 32.1892 23.9765 32.1343C23.9683 32.1096 23.9655 32.0932 23.96 32.0849C23.8887 32.1563 23.8119 32.2084 23.7269 32.244C23.6446 32.2797 23.5568 32.2989 23.4635 32.2989C23.299 32.2989 23.17 32.255 23.074 32.1645C22.978 32.074 22.9314 31.9615 22.9314 31.8244C22.9314 31.7338 22.9533 31.6543 22.9972 31.583C23.0411 31.5117 23.1015 31.4595 23.1783 31.4184C23.2578 31.3827 23.3703 31.3471 23.5157 31.3196C23.7132 31.284 23.853 31.2483 23.9299 31.2154V31.1743C23.9299 31.092 23.9079 31.0344 23.8695 30.9987C23.8311 30.9631 23.7543 30.9466 23.6418 30.9466C23.5678 30.9466 23.5102 30.9603 23.4663 30.9905C23.4251 31.0207 23.3895 31.07 23.3648 31.1441M23.9326 31.4897C23.8777 31.5089 23.7927 31.5281 23.6748 31.5555C23.5568 31.5802 23.4773 31.6049 23.4443 31.6296C23.3867 31.668 23.362 31.7174 23.362 31.7777C23.362 31.8381 23.384 31.8875 23.4279 31.9313C23.4718 31.9725 23.5294 31.9972 23.5979 31.9972C23.6748 31.9972 23.7461 31.9697 23.8146 31.9204C23.8668 31.882 23.9024 31.8353 23.9161 31.7805C23.9299 31.7448 23.9326 31.6762 23.9326 31.5747V31.4897Z" fill="#EA6012"/>
<path d="M26.2203 32.2606H25.7952V31.4404C25.7952 31.2676 25.7869 31.1551 25.7677 31.1058C25.7485 31.0536 25.7184 31.0152 25.68 30.9878C25.6388 30.9604 25.5894 30.9439 25.5318 30.9439C25.4578 30.9439 25.3919 30.9659 25.3343 31.0043C25.274 31.0427 25.2356 31.0975 25.2136 31.1634C25.1917 31.2292 25.1835 31.3526 25.1835 31.5309V32.2578H24.7583V30.6559H25.1506V30.8918C25.2904 30.7108 25.4687 30.6202 25.68 30.6202C25.7732 30.6202 25.8582 30.6367 25.9378 30.6724C26.0146 30.7053 26.0722 30.7492 26.1133 30.8013C26.1518 30.8534 26.1819 30.9137 26.1956 30.9796C26.2121 31.0454 26.2203 31.1414 26.2203 31.2648V32.2606Z" fill="#EA6012"/>
<path d="M27.5181 32.2605V30.0469H27.9515L28.8567 31.5254V30.0469H29.2736V32.2605H28.8237L27.9323 30.8177V32.2605H27.5181Z" fill="#EA6012"/>
<path d="M30.2444 32.2605V30.4199H29.5889V30.0469H31.3471V30.4199H30.6916V32.2605H30.2444Z" fill="#EA6012"/>
<path d="M32.1343 32.2605V30.4199H31.4788V30.0469H33.237V30.4199H32.5815V32.2605H32.1343Z" fill="#EA6012"/>
<path d="M34.3835 30.0469H35.201C35.3847 30.0469 35.5246 30.0606 35.6206 30.0908C35.7496 30.1265 35.862 30.1951 35.9553 30.2938C36.0486 30.3926 36.1199 30.5105 36.1665 30.6504C36.2159 30.793 36.2406 30.9658 36.2406 31.1743C36.2406 31.3553 36.2186 31.5117 36.172 31.6461C36.1171 31.8079 36.0376 31.9369 35.9361 32.0356C35.8565 32.1124 35.7523 32.17 35.6206 32.2112C35.5219 32.2441 35.3902 32.2605 35.2257 32.2605H34.3835V30.0442V30.0469ZM34.8307 30.4227V31.8902H35.1626C35.2887 31.8902 35.3793 31.882 35.4341 31.8683C35.5054 31.8518 35.5658 31.8217 35.6124 31.7778C35.6618 31.7339 35.7002 31.6626 35.7304 31.5638C35.7605 31.4623 35.7743 31.3279 35.7743 31.1579C35.7743 30.9878 35.7578 30.8561 35.7304 30.7629C35.6974 30.6723 35.6563 30.601 35.6042 30.5489C35.5493 30.4968 35.4807 30.4611 35.3957 30.4447C35.3354 30.431 35.2119 30.4227 35.0282 30.4227H34.8279H34.8307Z" fill="#EA6012"/>
<path d="M38.6161 32.2633H38.1306L37.9386 31.7613H37.0526L36.8688 32.2633H36.3943L37.2583 30.0497H37.7301L38.6189 32.2633H38.6161ZM37.7932 31.3855L37.4888 30.5654L37.1898 31.3855H37.796H37.7932Z" fill="#EA6012"/>
<path d="M39.1209 32.2605V30.4199H38.4653V30.0469H40.2236V30.4199H39.568V32.2605H39.1209Z" fill="#EA6012"/>
<path d="M42.2807 32.2633H41.7952L41.6032 31.7613H40.7172L40.5334 32.2633H40.0588L40.9229 30.0497H41.3947L42.2834 32.2633H42.2807ZM41.4578 31.3855L41.1533 30.5654L40.8543 31.3855H41.4605H41.4578Z" fill="#EA6012"/>
<path d="M44.6781 31.4458L45.1114 31.583C45.0429 31.8244 44.9359 32.0054 44.7823 32.1233C44.6259 32.2413 44.4312 32.2989 44.1925 32.2989C43.899 32.2989 43.6576 32.1974 43.4684 31.9972C43.2791 31.7969 43.1831 31.5226 43.1831 31.1743C43.1831 30.8067 43.2791 30.5187 43.4684 30.3157C43.6604 30.1127 43.9073 30.0112 44.22 30.0112C44.4915 30.0112 44.711 30.0908 44.8783 30.2526C44.9798 30.3459 45.0538 30.483 45.1032 30.6613L44.6616 30.7683C44.6342 30.6531 44.5793 30.5626 44.497 30.4967C44.4147 30.4282 44.3132 30.3953 44.1953 30.3953C44.0307 30.3953 43.899 30.4556 43.7948 30.5708C43.6933 30.6888 43.6412 30.8808 43.6412 31.1441C43.6412 31.4239 43.6933 31.6241 43.7921 31.7393C43.8935 31.86 44.0225 31.9204 44.1843 31.9204C44.3023 31.9204 44.4037 31.882 44.4915 31.8079C44.5766 31.7311 44.6369 31.6131 44.6753 31.4513" fill="#EA6012"/>
<path d="M45.3941 31.4376C45.3941 31.2977 45.427 31.1606 45.4983 31.0289C45.5669 30.8972 45.6657 30.7957 45.7946 30.7272C45.9208 30.6558 46.0634 30.6229 46.2197 30.6229C46.4639 30.6229 46.6614 30.6997 46.8177 30.8588C46.9741 31.0179 47.0509 31.2154 47.0509 31.4568C47.0509 31.6982 46.9713 31.9012 46.815 32.0603C46.6586 32.2194 46.4611 32.2989 46.2225 32.2989C46.0744 32.2989 45.9345 32.266 45.8001 32.2002C45.6657 32.1343 45.5669 32.0383 45.4956 31.9094C45.4243 31.7832 45.3914 31.6241 45.3914 31.4403M45.8248 31.4623C45.8248 31.6214 45.8604 31.7421 45.9372 31.8298C46.0113 31.9121 46.1045 31.956 46.217 31.956C46.3295 31.956 46.42 31.9149 46.4941 31.8298C46.5681 31.7448 46.6065 31.6214 46.6065 31.4595C46.6065 31.2977 46.5709 31.1825 46.4941 31.0975C46.42 31.0152 46.3267 30.9713 46.217 30.9713C46.1073 30.9713 46.0113 31.0152 45.9372 31.0975C45.8604 31.1825 45.8248 31.3032 45.8248 31.4623Z" fill="#EA6012"/>
<path d="M47.3499 30.6586H47.7394V30.878C47.8793 30.708 48.0466 30.6229 48.2386 30.6229C48.3428 30.6229 48.4333 30.6421 48.5074 30.6833C48.5815 30.7272 48.6446 30.7902 48.6912 30.8753C48.7625 30.7875 48.8393 30.7244 48.9189 30.6833C49.0011 30.6421 49.0889 30.6229 49.1822 30.6229C49.2974 30.6229 49.3989 30.6449 49.4812 30.6942C49.5607 30.7409 49.6238 30.8122 49.665 30.9055C49.6951 30.974 49.7088 31.0837 49.7088 31.2374V32.2632H49.2864V31.3471C49.2864 31.1907 49.27 31.0865 49.2425 31.0399C49.2014 30.9795 49.1438 30.9493 49.0615 30.9493C49.0011 30.9493 48.9463 30.9658 48.8942 31.0042C48.8421 31.0399 48.8037 31.092 48.7817 31.1633C48.7598 31.2346 48.7461 31.3416 48.7461 31.4952V32.266H48.3209V31.3882C48.3209 31.2319 48.3127 31.1304 48.2989 31.0865C48.2825 31.0426 48.2605 31.0069 48.2304 30.985C48.1974 30.9603 48.1563 30.9521 48.1014 30.9521C48.0356 30.9521 47.9753 30.9685 47.9231 31.0042C47.871 31.0399 47.8326 31.092 47.8107 31.1578C47.7887 31.2236 47.7778 31.3334 47.7778 31.4897V32.2687H47.3526V30.6641L47.3499 30.6586Z" fill="#EA6012"/>
</g>
</g>
<defs>
<clipPath id="clip0_1801_18361">
<rect width="80" height="32.2989" rx="8" fill="white"/>
</clipPath>
<clipPath id="clip1_1801_18361">
<rect width="80" height="32.2989" fill="white"/>
</clipPath>
</defs>
</svg>
