<svg width="80" height="14" viewBox="0 0 80 14" fill="none" xmlns="http://www.w3.org/2000/svg">
<g clip-path="url(#clip0_1801_18284)">
<g clip-path="url(#clip1_1801_18284)">
<path fill-rule="evenodd" clip-rule="evenodd" d="M0.872268 10.6387C0.757777 10.6387 0.644402 10.6162 0.538618 10.5724C0.432833 10.5286 0.336713 10.4644 0.255745 10.3835C0.174778 10.3025 0.110549 10.2064 0.066729 10.1006C0.0229086 9.99488 0.000354263 9.88151 0.000354267 9.76702V3.42422C-0.00148398 3.30857 0.0197076 3.19371 0.0626947 3.08632C0.105682 2.97894 0.169605 2.88119 0.250742 2.79875C0.331879 2.71631 0.428607 2.65084 0.535293 2.60615C0.641979 2.56147 0.75649 2.53845 0.872158 2.53845C0.987825 2.53845 1.10234 2.56147 1.20902 2.60615C1.31571 2.65084 1.41244 2.71631 1.49357 2.79875C1.57471 2.88119 1.63863 2.97894 1.68162 3.08632C1.72461 3.19371 1.7458 3.30857 1.74396 3.42422V9.76702C1.74396 9.9982 1.65212 10.2199 1.48865 10.3834C1.32517 10.5469 1.10346 10.6387 0.872268 10.6387Z" fill="#9DDCF9"/>
<path fill-rule="evenodd" clip-rule="evenodd" d="M11.3339 10.6386C11.2194 10.6387 11.1059 10.6163 11.0001 10.5725C10.8943 10.5287 10.7981 10.4645 10.7171 10.3836C10.6361 10.3026 10.5718 10.2065 10.528 10.1007C10.4841 9.99489 10.4615 9.88148 10.4615 9.76695V3.42923C10.4597 3.31357 10.4809 3.19871 10.5239 3.09133C10.5669 2.98395 10.6308 2.88619 10.7119 2.80375C10.7931 2.72132 10.8898 2.65585 10.9965 2.61116C11.1032 2.56647 11.2177 2.54346 11.3333 2.54346C11.449 2.54346 11.5635 2.56647 11.6702 2.61116C11.7769 2.65585 11.8736 2.72132 11.9548 2.80375C12.0359 2.88619 12.0998 2.98395 12.1428 3.09133C12.1858 3.19871 12.207 3.31357 12.2051 3.42923V9.76695C12.2051 9.99805 12.1133 10.2197 11.9499 10.3831C11.7866 10.5466 11.565 10.6385 11.3339 10.6386Z" fill="#00ACDB"/>
<path fill-rule="evenodd" clip-rule="evenodd" d="M6.10311 13.1824C5.872 13.1823 5.65036 13.0905 5.48688 12.9272C5.32339 12.7638 5.23143 12.5423 5.2312 12.3111V0.885523C5.23484 0.656706 5.32829 0.438491 5.49139 0.277964C5.65449 0.117436 5.87416 0.0274658 6.103 0.0274658C6.33185 0.0274658 6.55152 0.117436 6.71462 0.277964C6.87772 0.438491 6.97117 0.656706 6.97481 0.885523V12.3111C6.97463 12.5422 6.88272 12.7638 6.71927 12.9272C6.55583 13.0905 6.33421 13.1823 6.10311 13.1824Z" fill="#0256A7"/>
<path fill-rule="evenodd" clip-rule="evenodd" d="M33.3441 3.12268C33.3434 2.97004 33.4028 2.82326 33.5094 2.71397C33.616 2.60468 33.7612 2.54163 33.9138 2.53839C33.9909 2.53724 34.0674 2.55156 34.1388 2.58051C34.2103 2.60945 34.2752 2.65244 34.3297 2.70692C34.3842 2.76141 34.4273 2.82627 34.4563 2.89769C34.4853 2.9691 34.4996 3.04561 34.4985 3.12268V9.94999C34.5013 10.0263 34.4886 10.1023 34.4612 10.1735C34.4337 10.2447 34.3921 10.3096 34.3388 10.3643C34.2855 10.4189 34.2216 10.4622 34.1511 10.4914C34.0806 10.5206 34.0049 10.5352 33.9286 10.5343C33.8515 10.5355 33.775 10.5212 33.7035 10.4922C33.6321 10.4633 33.5672 10.4203 33.5127 10.3658C33.4582 10.3113 33.4152 10.2464 33.3862 10.175C33.3572 10.1036 33.3429 10.0271 33.3441 9.94999V3.12268Z" fill="#002855"/>
<path fill-rule="evenodd" clip-rule="evenodd" d="M37.6167 6.56297V6.59292C37.6167 8.42088 38.891 9.59187 40.3455 9.59187C41.7849 9.59187 43.1488 8.37727 43.1488 6.59292V6.56297C43.1488 4.77906 41.7849 3.57944 40.3455 3.57944C38.8456 3.57944 37.6167 4.68876 37.6167 6.56297ZM44.2586 9.95152C44.2601 10.0283 44.2463 10.1046 44.2179 10.1759C44.1896 10.2473 44.1473 10.3123 44.0935 10.3671C44.0398 10.4219 43.9756 10.4655 43.9048 10.4952C43.834 10.5249 43.758 10.5403 43.6813 10.5403C43.6045 10.5403 43.5285 10.5249 43.4577 10.4952C43.3869 10.4655 43.3227 10.4219 43.269 10.3671C43.2152 10.3123 43.1729 10.2473 43.1446 10.1759C43.1162 10.1046 43.1024 10.0283 43.1039 9.95152V9.11771C42.4742 10.0473 41.5596 10.6241 40.1351 10.6241C38.2763 10.6241 36.4316 9.15493 36.4316 6.6057V6.57574C36.4316 4.04303 38.2763 2.54279 40.1351 2.54279C41.5746 2.54279 42.5044 3.10461 43.1039 3.97432V0.584889C43.1011 0.508632 43.1137 0.432592 43.1411 0.361373C43.1686 0.290155 43.2101 0.225238 43.2633 0.170552C43.3166 0.115867 43.3803 0.0725505 43.4508 0.0432251C43.5212 0.0138997 43.5969 -0.000824805 43.6732 -5.70134e-05C43.7503 -0.00121611 43.8269 0.0131239 43.8984 0.0421126C43.9699 0.0711013 44.0348 0.114148 44.0893 0.168701C44.1439 0.223254 44.1869 0.288202 44.2159 0.359693C44.2448 0.431185 44.2591 0.507764 44.2579 0.584889L44.2586 9.95152Z" fill="#002855"/>
<path fill-rule="evenodd" clip-rule="evenodd" d="M74.2578 9.63547C74.1925 9.58665 74.1395 9.52325 74.1031 9.45033C74.0667 9.37741 74.0479 9.29699 74.0481 9.21548C74.0501 9.0823 74.1049 8.95537 74.2005 8.86258C74.2961 8.76979 74.4245 8.71873 74.5577 8.72061C74.6601 8.71812 74.7604 8.7499 74.8427 8.81091C75.5595 9.32908 76.4171 9.61669 77.3014 9.63547C78.2313 9.63547 78.9061 9.1558 78.9061 8.40568V8.37616C78.9061 7.59653 77.9914 7.29701 76.9717 7.0107C75.7573 6.66581 74.4077 6.24604 74.4077 4.822V4.79161C74.4077 3.45742 75.5173 2.57251 77.0466 2.57251C77.9124 2.59117 78.7609 2.81778 79.5207 3.23322C79.606 3.28132 79.6771 3.35092 79.7271 3.43508C79.7771 3.51924 79.8041 3.61503 79.8055 3.71289C79.8035 3.84611 79.7486 3.97307 79.653 4.06587C79.5574 4.15867 79.4289 4.2097 79.2957 4.20776C79.2072 4.20751 79.1201 4.18694 79.0408 4.14764C78.4284 3.77847 77.7318 3.57203 77.0171 3.54793C76.102 3.54793 75.5173 4.02761 75.5173 4.67268V4.70263C75.5173 5.43712 76.4771 5.72188 77.5115 6.03682C78.7109 6.39646 80.0002 6.86138 80.0002 8.25592V8.28543C80.0002 9.75528 78.7858 10.6098 77.2413 10.6098C76.1719 10.5896 75.1329 10.2503 74.2578 9.63547Z" fill="#002855"/>
<path fill-rule="evenodd" clip-rule="evenodd" d="M72.3838 5.80625C72.3838 4.06242 70.854 2.54346 69.0098 2.54346C68.5661 2.54337 68.1268 2.63068 67.7169 2.8004C67.3069 2.97011 66.9345 3.21892 66.6207 3.5326C66.3069 3.84628 66.058 4.21869 65.8882 4.62857C65.7184 5.03845 65.631 5.47777 65.6309 5.92143V9.91673C65.6297 9.99727 65.6446 10.0772 65.6749 10.1519C65.7051 10.2265 65.7501 10.2943 65.807 10.3513C65.864 10.4082 65.9318 10.4531 66.0065 10.4834C66.0811 10.5136 66.1611 10.5285 66.2416 10.5272C66.3213 10.5281 66.4003 10.5128 66.4739 10.4822C66.5475 10.4516 66.6141 10.4064 66.6697 10.3493C66.7253 10.2922 66.7687 10.2245 66.7974 10.1501C66.826 10.0758 66.8392 9.99636 66.8363 9.91673V8.12225V5.80603C66.8363 5.23046 67.0649 4.67846 67.4719 4.27147C67.8789 3.86447 68.4309 3.63583 69.0065 3.63583C69.5821 3.63583 70.1341 3.86447 70.5411 4.27147C70.948 4.67846 71.1767 5.23046 71.1767 5.80603V9.91673C71.1752 9.9969 71.1896 10.0766 71.2192 10.1511C71.2489 10.2256 71.293 10.2935 71.3492 10.3507C71.4054 10.4079 71.4724 10.4534 71.5463 10.4845C71.6202 10.5155 71.6996 10.5315 71.7798 10.5315C71.86 10.5315 71.9394 10.5155 72.0133 10.4845C72.0872 10.4534 72.1543 10.4079 72.2104 10.3507C72.2666 10.2935 72.3107 10.2256 72.3404 10.1511C72.37 10.0766 72.3845 9.9969 72.3829 9.91673C72.3829 9.91673 72.395 6.18197 72.3838 5.80625Z" fill="#002855"/>
<path fill-rule="evenodd" clip-rule="evenodd" d="M63.5717 5.7223H63.5691C63.4933 4.88236 63.1062 4.10111 62.4838 3.53199C61.8614 2.96288 61.0487 2.64703 60.2054 2.64648H59.6883C59.5453 2.64936 59.4091 2.70817 59.309 2.81031C59.2089 2.91245 59.1528 3.04976 59.1528 3.19278C59.1528 3.3358 59.2089 3.47311 59.309 3.57525C59.4091 3.67739 59.5453 3.7362 59.6883 3.73907H60.2027C61.4015 3.73907 62.4624 4.71075 62.4624 5.90906V6.00684C61.6882 5.78053 60.885 5.66922 60.0785 5.67649C58.1145 5.67649 56.7646 6.5462 56.7646 8.18035V8.2103C56.7646 9.79974 58.1662 10.6243 59.6057 10.6243C60.1754 10.6351 60.7384 10.5 61.2411 10.2317C61.7438 9.96344 62.1694 9.57098 62.4776 9.09169V9.97968C62.4776 10.1249 62.5352 10.2641 62.6379 10.3668C62.7406 10.4695 62.8799 10.5272 63.0251 10.5272C63.1703 10.5272 63.3095 10.4695 63.4122 10.3668C63.5149 10.2641 63.5726 10.1249 63.5726 9.97968V5.72164L63.5717 5.7223ZM59.8123 9.58832C58.7626 9.58832 57.9345 9.1408 57.9345 8.16626V8.13586C57.9345 7.16132 58.7441 6.53167 60.1983 6.53167C60.9682 6.55307 61.7329 6.66393 62.4771 6.86202V6.86378C62.4771 8.28408 61.1495 9.58832 59.8123 9.58832Z" fill="#002855"/>
<path fill-rule="evenodd" clip-rule="evenodd" d="M56.5465 3.1914C56.5465 3.04643 56.4889 2.90739 56.3864 2.80488C56.2839 2.70237 56.1449 2.64478 55.9999 2.64478H55.6266C54.7307 2.64483 53.8715 3.00075 53.2381 3.63423C52.6046 4.26771 52.2487 5.12688 52.2486 6.02275V9.91674C52.2474 9.99726 52.2623 10.0772 52.2925 10.1518C52.3228 10.2265 52.3677 10.2943 52.4246 10.3512C52.4816 10.4081 52.5494 10.4531 52.624 10.4833C52.6986 10.5135 52.7786 10.5285 52.8591 10.5272C52.9388 10.5281 53.0178 10.5128 53.0914 10.4823C53.165 10.4517 53.2316 10.4065 53.2872 10.3494C53.3428 10.2923 53.3863 10.2245 53.4149 10.1502C53.4435 10.0758 53.4567 9.99638 53.4537 9.91674V8.12226V5.90735C53.4538 5.33185 53.6824 4.77994 54.0894 4.373C54.4963 3.96607 55.0482 3.73742 55.6237 3.73737H55.6268H55.9997C56.1446 3.73742 56.2836 3.67995 56.3861 3.57757C56.4886 3.4752 56.5463 3.3363 56.5465 3.1914Z" fill="#002855"/>
<path fill-rule="evenodd" clip-rule="evenodd" d="M50.3323 3.16371C50.3323 3.09674 50.3191 3.03042 50.2935 2.96853C50.2679 2.90665 50.2304 2.85042 50.183 2.80305C50.1357 2.75568 50.0795 2.71811 50.0176 2.69247C49.9557 2.66684 49.8894 2.65364 49.8224 2.65364H47.7985V0.618664C47.7991 0.461317 47.7393 0.309726 47.6315 0.195095C47.5237 0.0804644 47.3761 0.0115169 47.219 0.00244451C47.1427 0.00219309 47.067 0.0172155 46.9966 0.046628C46.9261 0.0760404 46.8622 0.119249 46.8087 0.173711C46.7552 0.228173 46.7131 0.292789 46.6849 0.363756C46.6568 0.434724 46.6431 0.51061 46.6447 0.58695V8.40532C46.6447 9.97957 47.589 10.5945 48.8336 10.5945C49.2235 10.6012 49.6109 10.5299 49.9729 10.3848C50.0678 10.3533 50.1506 10.293 50.2098 10.2124C50.269 10.1317 50.3016 10.0347 50.3032 9.93464C50.3021 9.80379 50.2495 9.67863 50.157 9.58614C50.0644 9.49366 49.9392 9.44125 49.8083 9.44021C49.5779 9.50047 49.3416 9.53548 49.1036 9.5446C48.324 9.5446 47.7996 9.19971 47.7996 8.25534V3.67356H49.8235C49.9586 3.67326 50.088 3.61942 50.1833 3.52384C50.2787 3.42825 50.3323 3.29874 50.3323 3.16371Z" fill="#002855"/>
<path fill-rule="evenodd" clip-rule="evenodd" d="M27.7202 2.53845C27.1958 2.53822 26.6793 2.66577 26.2152 2.91006C25.7512 3.15435 25.3537 3.50802 25.0571 3.94047C24.7637 3.51002 24.3695 3.15776 23.9089 2.9143C23.4483 2.67085 22.9353 2.54356 22.4143 2.54352C21.5568 2.54358 20.7345 2.88422 20.1282 3.49052C19.5219 4.09683 19.1813 4.91914 19.1812 5.77658V9.95027C19.18 10.0274 19.1943 10.104 19.2233 10.1754C19.2522 10.2469 19.2952 10.3119 19.3498 10.3664C19.4043 10.4209 19.4693 10.4639 19.5408 10.4928C19.6123 10.5218 19.6888 10.536 19.766 10.5348C19.8423 10.5357 19.918 10.5211 19.9885 10.4919C20.0591 10.4626 20.1229 10.4194 20.1762 10.3647C20.2295 10.31 20.2712 10.2451 20.2986 10.1739C20.3261 10.1026 20.3388 10.0266 20.3359 9.95027V5.66602C20.3359 5.11521 20.5547 4.58697 20.9442 4.19749C21.3337 3.80801 21.8619 3.5892 22.4127 3.5892C22.9636 3.5892 23.4918 3.80801 23.8813 4.19749C24.2708 4.58697 24.4896 5.11521 24.4896 5.66602V9.47192V9.47368C24.4896 9.62683 24.5504 9.77371 24.6587 9.882C24.767 9.9903 24.9139 10.0511 25.067 10.0511C25.2202 10.0511 25.3671 9.9903 25.4754 9.882C25.5836 9.77371 25.6445 9.62683 25.6445 9.47368L25.641 5.66008C25.641 5.10921 25.8598 4.5809 26.2493 4.19138C26.6388 3.80186 27.1671 3.58303 27.718 3.58303C28.2689 3.58303 28.7972 3.80186 29.1867 4.19138C29.5762 4.5809 29.795 5.10921 29.795 5.66008V9.94498C29.795 10.0981 29.8559 10.2449 29.9641 10.3532C30.0724 10.4614 30.2192 10.5222 30.3723 10.5222C30.5254 10.5222 30.6722 10.4614 30.7805 10.3532C30.8887 10.2449 30.9495 10.0981 30.9495 9.94498L30.953 5.77658C30.9502 4.91956 30.6089 4.09838 30.0034 3.49188C29.3978 2.88538 28.5772 2.54269 27.7202 2.53845Z" fill="#002855"/>
</g>
</g>
<defs>
<clipPath id="clip0_1801_18284">
<rect width="80" height="13.1824" rx="6.59122" fill="white"/>
</clipPath>
<clipPath id="clip1_1801_18284">
<rect width="80" height="13.1824" fill="white"/>
</clipPath>
</defs>
</svg>
