<svg width="80" height="24" viewBox="0 0 80 24" fill="none" xmlns="http://www.w3.org/2000/svg">
<g clip-path="url(#clip0_1801_18236)">
<g clip-path="url(#clip1_1801_18236)">
<path d="M64.5765 0C64.8408 0.0729556 65.1177 0.0871993 65.3776 0.184474C66.1457 0.472822 66.81 0.930705 67.4391 1.44348C68.7686 2.52704 69.9092 3.79578 71.0042 5.10724C72.9299 7.41368 74.6541 9.8702 76.3856 12.3215C76.5283 12.5237 76.6704 12.7269 76.7879 12.958C76.6465 12.8405 76.504 12.7245 76.3644 12.6053C74.5214 11.0312 72.6759 9.45957 70.7266 8.01643C69.1779 6.86999 67.5885 5.78677 65.8421 4.95577C65.0163 4.56285 64.1679 4.23004 63.257 4.09177C61.5627 3.83469 59.9264 3.97504 58.3943 4.81646C57.9896 5.0388 57.5783 5.24864 57.1697 5.46403C57.1107 5.4953 57.0568 5.5488 56.9679 5.50919C58.3085 3.76625 59.7461 2.12857 61.6214 0.935222C62.2495 0.535703 62.9204 0.233805 63.6538 0.0802512C63.742 0.0618386 63.8559 0.110823 63.9171 0H64.5772L64.5765 0Z" fill="#0162A8"/>
<path d="M79.9999 18.9977C79.9388 19.0109 79.968 19.0637 79.961 19.0963C79.7943 19.8936 79.3037 20.4571 78.653 20.9018C77.8408 21.457 76.9257 21.7738 75.9836 22.0166C74.4383 22.4148 72.86 22.5899 71.2713 22.6875C70.0578 22.7622 68.8433 22.7893 67.6281 22.7688C66.269 22.7462 64.9113 22.6868 63.5554 22.586C62.402 22.5006 61.2507 22.3957 60.1022 22.2598C58.6563 22.0885 57.2152 21.8818 55.7828 21.6157C54.3977 21.3586 53.0203 21.0713 51.6775 20.6364C51.524 20.5867 51.3722 20.5315 51.2203 20.4776C51.2002 20.4703 51.1825 20.4561 51.1686 20.422C51.5375 20.4602 51.9065 20.4998 52.2758 20.536C53.0755 20.6145 53.8752 20.6923 54.6753 20.768C55.3774 20.8344 56.0795 20.9011 56.7823 20.9602C57.4678 21.0178 58.1549 21.0595 58.8404 21.1196C59.7857 21.2027 60.7327 21.2461 61.6804 21.2836C63.3171 21.3486 64.9548 21.384 66.5921 21.3472C68.0432 21.3145 69.4919 21.2374 70.9336 21.0519C72.2246 20.8858 73.5006 20.6583 74.7291 20.2132C75.3787 19.9777 75.9971 19.6814 76.5314 19.2339C77.3523 18.546 77.6522 17.6841 77.4111 16.6311C77.1734 15.5945 76.6513 14.7047 76.0228 13.8671C75.2957 12.8975 74.4532 12.0294 73.625 11.1487C73.469 10.983 73.3151 10.8152 73.1553 10.6428C73.2356 10.6091 73.2679 10.6647 73.3054 10.6925C74.7322 11.7431 76.1156 12.8458 77.368 14.103C78.1736 14.9121 78.9226 15.7692 79.4656 16.785C79.7095 17.2412 79.8968 17.7171 79.9704 18.233C79.9721 18.2459 79.9899 18.2566 79.9999 18.2681V18.9973V18.9977Z" fill="#01983E"/>
<path d="M0 10.5928C0.054543 10.6435 0.118813 10.6073 0.176483 10.6073C1.82007 10.6105 3.46365 10.6035 5.10724 10.6129C5.76037 10.6167 6.41384 10.647 7.03223 10.9006C8.10085 11.339 8.56846 12.2704 8.5233 13.3241C8.46146 14.7627 7.38971 15.5409 6.16579 15.6277C5.13156 15.701 4.09524 15.6514 3.05962 15.6621C2.51002 15.6677 1.96007 15.6684 1.41013 15.6597C1.26943 15.6576 1.22809 15.6871 1.22913 15.8355C1.23677 16.8423 1.23052 17.8491 1.23608 18.8558C1.23677 18.9886 1.20828 19.0348 1.06654 19.0299C0.725387 19.0184 0.383885 19.0257 0.0423837 19.0254C0.0378674 18.9507 0.0295297 18.876 0.0295297 18.8013C0.0288348 16.153 0.0295297 13.5047 0.0270978 10.8564C0.0270978 10.7922 0.0583645 10.7196 0 10.6619V10.5924L0 10.5928ZM3.47547 11.6346C3.47547 11.6329 3.47547 11.6308 3.47547 11.6291C2.78135 11.6291 2.08688 11.6322 1.39276 11.6263C1.26352 11.6253 1.21662 11.6496 1.21801 11.793C1.22531 12.6953 1.22496 13.5978 1.21801 14.5001C1.21697 14.6341 1.25553 14.6595 1.38164 14.6592C2.71812 14.6543 4.0546 14.6574 5.39072 14.6553C5.69227 14.655 5.98966 14.6164 6.27661 14.5164C6.82795 14.3243 7.19377 13.8428 7.22365 13.2695C7.25943 12.5841 6.9749 12.0793 6.39925 11.8222C6.09944 11.6881 5.77843 11.6398 5.45291 11.6367C4.79353 11.6308 4.13415 11.635 3.47442 11.635L3.47547 11.6346Z" fill="#080808"/>
<path d="M10.3865 23.0613C10.269 22.9807 10.1259 22.9977 9.99667 22.9612C9.68296 22.8723 9.38037 22.7653 9.141 22.5315C8.73593 22.1358 8.74913 21.6039 9.17435 21.227C9.47034 20.9647 9.83061 20.8483 10.2124 20.7899C10.8086 20.6989 11.3985 20.716 11.9762 20.9063C12.2326 20.9908 12.4577 21.1276 12.6568 21.3083C12.7339 21.3785 12.8013 21.4573 12.8531 21.549C12.9194 21.6668 12.9972 21.8089 12.9427 21.9225C12.9 22.0118 12.7422 21.9527 12.637 21.9531C11.6594 21.9565 10.6818 21.9552 9.70415 21.9555C9.52801 21.9555 9.51724 21.9753 9.59124 22.1393C9.68122 22.338 9.85458 22.4495 10.0394 22.528C10.6161 22.7726 11.205 22.7841 11.7955 22.5722C11.9157 22.5291 12.0412 22.4735 12.1162 22.3734C12.2291 22.2227 12.3618 22.2393 12.5102 22.2758C12.5439 22.2842 12.5783 22.289 12.6116 22.297C12.6936 22.3165 12.8416 22.3293 12.8451 22.3585C12.8569 22.4596 12.7544 22.5221 12.6821 22.5815C12.3875 22.8233 12.0283 22.9112 11.667 22.9946C11.5649 23.0182 11.4527 22.9967 11.3592 23.0603H10.3865V23.0613ZM12.2215 21.631C11.8407 21.104 11.3179 21.0373 10.7797 21.0592C10.3159 21.0779 9.87577 21.1936 9.56102 21.6171C9.60827 21.6255 9.62425 21.631 9.64023 21.631C10.4848 21.6314 11.329 21.6314 12.2215 21.6314V21.631Z" fill="#0A0A0A"/>
<path d="M32.0278 23.0613C31.8729 22.98 31.6968 23.0012 31.5328 22.9602C31.234 22.8852 30.9453 22.7903 30.6966 22.602C30.2616 22.273 30.2189 21.7293 30.5972 21.3368C30.9095 21.0126 31.3195 20.89 31.7426 20.8125C32.4472 20.684 33.1458 20.7222 33.8295 20.9435C34.1026 21.0318 34.3503 21.1725 34.5261 21.4042C34.8095 21.778 34.7411 22.2668 34.3704 22.5603C34.0004 22.8536 33.5617 22.9668 33.1045 23.0276C33.0687 23.0325 33.0207 23.0057 33.0009 23.061H32.0282L32.0278 23.0613ZM32.5 21.103C32.3905 21.1078 32.2808 21.1068 32.172 21.119C31.8302 21.1568 31.5005 21.2346 31.2292 21.4639C30.92 21.7252 30.9276 22.1025 31.2465 22.3474C31.5613 22.5899 31.933 22.6642 32.3165 22.6924C32.8147 22.7288 33.2966 22.666 33.7298 22.3971C34.0036 22.2272 34.0984 21.9635 33.9963 21.7012C33.9153 21.4928 33.7416 21.3781 33.5478 21.293C33.2142 21.1467 32.8599 21.1068 32.5 21.103Z" fill="#0A0A0A"/>
<path d="M0 10.6622C0.0583645 10.7199 0.0270978 10.7925 0.0270978 10.8568C0.0291822 13.5051 0.0288348 16.1534 0.0295297 18.8016C0.0295297 18.8763 0.0378674 18.951 0.0423837 19.0257C0.02814 19.0278 0.0142437 19.0299 0 19.0323C0 16.2423 0 13.4523 0 10.6622Z" fill="#AEADAB"/>
<path d="M26.6434 13.9887C27.7064 12.9267 29.8531 12.8722 30.9113 13.4652C31.1412 13.5941 31.342 13.7549 31.5088 13.9592C31.5553 14.0165 31.5894 14.0871 31.661 14.1218C32.3627 13.379 33.2639 13.1299 34.2425 13.0771C34.796 13.0473 35.3383 13.1126 35.8632 13.296C36.9548 13.6778 37.4773 14.3952 37.4853 15.5482C37.4932 16.6593 37.4846 17.7706 37.4901 18.8816C37.4908 19.0105 37.447 19.0327 37.3317 19.0293C37.0656 19.0209 36.7988 19.0192 36.533 19.03C36.3986 19.0355 36.3593 19.0001 36.3603 18.8608C36.3669 17.929 36.3659 16.9973 36.3621 16.0655C36.361 15.829 36.3499 15.5924 36.3141 15.3572C36.237 14.8503 35.9539 14.4814 35.497 14.2917C34.4663 13.8637 33.4755 13.9477 32.5736 14.6412C32.2227 14.9111 32.0608 15.2898 32.058 15.7303C32.0511 16.7659 32.0462 17.8015 32.0487 18.8372C32.0487 18.9827 32.025 19.0407 31.8625 19.031C31.597 19.0147 31.3299 19.0195 31.0641 19.0296C30.939 19.0345 30.913 18.9942 30.9137 18.8754C30.9186 17.9784 30.9172 17.0814 30.9161 16.1844C30.9161 15.953 30.9092 15.7223 30.8852 15.4916C30.8185 14.8541 30.4933 14.4011 29.8888 14.1986C28.9439 13.8817 28.0535 14.0322 27.243 14.612C26.8143 14.9187 26.6406 15.3537 26.6427 15.8738C26.6472 16.8691 26.6413 17.8648 26.6472 18.8601C26.6479 18.9966 26.6128 19.0355 26.4769 19.03C26.2112 19.0189 25.944 19.0182 25.6783 19.03C25.5257 19.0369 25.475 19.0011 25.4757 18.8354C25.4827 17.2846 25.4799 15.7334 25.4799 14.1822C25.4799 13.9102 25.4858 13.6382 25.4771 13.3662C25.4733 13.2488 25.5115 13.2206 25.6234 13.2237C25.9183 13.2314 26.214 13.2331 26.5089 13.223C26.6319 13.2189 26.6496 13.2661 26.6458 13.3707C26.6388 13.5666 26.6437 13.7633 26.6437 13.9884L26.6434 13.9887Z" fill="#080808"/>
<path d="M50.9171 12.7395C51.0988 12.382 51.3521 12.0725 51.5876 11.7518C52.6128 10.3584 53.6953 9.01181 54.9279 7.7938C55.9774 6.75713 57.1145 5.83233 58.4517 5.18442C59.4178 4.71646 60.4309 4.43367 61.5144 4.39858C62.7046 4.36002 63.8278 4.61641 64.9114 5.08263C65.7702 5.45227 66.5643 5.93517 67.3154 6.49032C67.3512 6.51673 67.3995 6.53201 67.4082 6.60288C66.9569 6.51464 66.5112 6.42814 66.0658 6.3399C64.9287 6.11478 63.7826 5.97546 62.6226 6.05085C61.4901 6.12415 60.4038 6.41042 59.3577 6.84815C57.5783 7.59299 55.9879 8.64946 54.4613 9.81328C53.2701 10.7217 52.1403 11.7021 51.0255 12.7013C51.0001 12.7239 50.9689 12.7398 50.94 12.7586C50.932 12.752 50.9244 12.7457 50.9167 12.7391L50.9171 12.7395Z" fill="#AEADAB"/>
<path d="M45.0484 13.8452C45.0484 13.601 45.0539 13.3578 45.0459 13.1153C45.0421 13.0007 45.0647 12.9524 45.1943 12.9572C45.4774 12.9677 45.7616 12.9645 46.0451 12.9579C46.1476 12.9555 46.1861 12.9781 46.1858 13.09C46.1827 15.0288 46.1827 16.9681 46.1858 18.9069C46.1858 19.0115 46.1455 19.0303 46.0534 19.0289C45.764 19.024 45.4743 19.0202 45.1852 19.0303C45.0609 19.0348 45.0428 18.9858 45.0466 18.8805C45.0536 18.6929 45.0487 18.5046 45.0487 18.274C44.489 18.7621 43.8672 18.9903 43.1936 19.0813C42.1392 19.2241 41.1178 19.138 40.226 18.4932C39.2765 17.8067 38.8822 16.8472 39.0198 15.6948C39.1515 14.5939 39.7848 13.8278 40.7947 13.4193C42.2385 12.835 43.64 12.9475 44.9556 13.8216C44.9775 13.8362 44.9949 13.8668 45.0487 13.8456L45.0484 13.8452ZM45.0998 16.1715C45.1178 15.2706 44.7878 14.6634 44.0662 14.3128C43.2224 13.9032 42.3438 13.848 41.4635 14.1905C40.8652 14.4233 40.4483 14.8524 40.2798 15.4815C39.9647 16.6582 40.3976 17.6261 41.5493 18.0377C42.004 18.2003 42.4751 18.2292 42.9518 18.1854C43.3457 18.1493 43.7265 18.0541 44.0805 17.8745C44.8194 17.4996 45.106 16.8645 45.1001 16.1715H45.0998Z" fill="#080808"/>
<path d="M16.8374 18.0305C17.1546 17.8241 17.4607 17.6289 17.7619 17.4264C17.8313 17.3795 17.8671 17.4194 17.913 17.4517C19.1848 18.3498 20.5894 18.4325 22.0544 18.1174C22.2879 18.067 22.4956 17.9489 22.6558 17.7613C22.9302 17.4399 22.8521 17.0289 22.4797 16.8299C22.192 16.676 21.8755 16.6371 21.5597 16.6047C20.7777 16.5241 19.9912 16.4984 19.2112 16.3942C18.8611 16.3477 18.5213 16.2685 18.1972 16.1191C17.1879 15.6542 17.1678 14.3504 17.8682 13.7213C18.2656 13.3641 18.7492 13.2026 19.2613 13.1136C20.4053 12.9149 21.5396 12.9299 22.6534 13.2978C23.0508 13.4291 23.4163 13.6243 23.7581 13.864C23.8474 13.9266 23.937 13.9909 24.0037 14.086C23.7025 14.2521 23.4027 14.4133 23.1078 14.5828C23.0268 14.6294 22.9775 14.6026 22.9073 14.562C21.7723 13.9047 20.5616 13.8168 19.3061 14.0985C19.1133 14.142 18.9396 14.2351 18.8006 14.3838C18.5567 14.6447 18.6022 14.9966 18.9118 15.1766C19.2154 15.353 19.5593 15.3794 19.897 15.4194C20.7579 15.5208 21.6278 15.5323 22.4859 15.664C22.8934 15.7265 23.269 15.8672 23.5726 16.158C24.2844 16.8392 24.1639 18.0402 23.3245 18.636C22.8396 18.9803 22.282 19.1328 21.7039 19.1943C20.44 19.3284 19.1994 19.219 18.0071 18.7486C17.5861 18.5825 17.1991 18.3529 16.8374 18.0312V18.0305Z" fill="#080808"/>
<path d="M68.5661 16.2115C69.0271 15.8328 69.4592 15.4785 69.8911 15.1238C70.6286 14.5179 71.3658 13.9123 72.103 13.3061C72.1572 13.2617 72.2083 13.2245 72.2864 13.2252C72.8305 13.2283 73.3742 13.2269 73.9686 13.2269C73.8831 13.2953 73.83 13.3384 73.7761 13.3808C72.9104 14.0572 72.0464 14.736 71.1765 15.4072C71.0646 15.4937 71.0778 15.5309 71.1723 15.6171C72.3716 16.7135 73.567 17.8141 74.7638 18.9129C74.7933 18.94 74.8274 18.9626 74.8465 19.0276C74.7642 19.0276 74.6818 19.0276 74.5991 19.0276C74.1882 19.0276 73.7772 19.0227 73.3662 19.0304C73.2467 19.0324 73.1619 18.9956 73.0761 18.9157C72.1572 18.0614 71.2331 17.2127 70.316 16.356C70.1999 16.2476 70.1297 16.2323 69.9974 16.34C69.5669 16.6902 69.124 17.0258 68.6804 17.3593C68.5904 17.4271 68.5626 17.4972 68.564 17.6046C68.5695 18.027 68.5622 18.4495 68.5688 18.8719C68.5706 18.9876 68.5476 19.0349 68.4195 19.0304C68.1304 19.0203 67.8403 19.0189 67.5513 19.0307C67.4123 19.0363 67.3932 18.9848 67.3936 18.8626C67.397 16.8945 67.396 14.9268 67.3963 12.9587C67.3963 12.2295 67.3998 11.4999 67.3929 10.7707C67.3915 10.6405 67.4241 10.6019 67.5548 10.6068C67.8323 10.6168 68.1106 10.6182 68.3882 10.6061C68.5327 10.5998 68.5702 10.6415 68.5699 10.7864C68.5647 12.5168 68.5664 14.2476 68.5664 15.978C68.5664 16.0416 68.5664 16.1052 68.5664 16.2115H68.5661Z" fill="#0A0A0A"/>
<path d="M59.8698 13.8633C61.1927 12.9367 62.5969 12.8113 64.0574 13.3414C65.0594 13.7052 65.5249 14.4393 65.5301 15.502C65.5357 16.6248 65.5291 17.7476 65.5346 18.8704C65.5353 19.0042 65.4954 19.0351 65.3682 19.0302C65.0965 19.0202 64.8238 19.0205 64.5522 19.0302C64.4302 19.0344 64.3986 19.0004 64.3993 18.8784C64.4045 17.9005 64.4024 16.9222 64.4021 15.9442C64.4021 15.7302 64.3979 15.5152 64.35 15.306C64.2294 14.7811 63.907 14.4139 63.4102 14.2301C62.4792 13.8851 61.5603 13.9254 60.6911 14.4292C60.1571 14.7387 59.916 15.24 59.8879 15.8431C59.8458 16.7453 59.8781 17.6483 59.8677 18.5508C59.866 18.7054 59.9365 18.916 59.8357 18.9993C59.7416 19.0771 59.5384 19.0254 59.3834 19.0275C59.2097 19.0296 59.0357 19.0195 58.8627 19.0309C58.7411 19.0389 58.7199 18.9913 58.7202 18.8833C58.723 17.0427 58.723 15.2025 58.7202 13.3619C58.7202 13.2563 58.7463 13.2223 58.8554 13.2254C59.1448 13.2331 59.4345 13.2351 59.7235 13.2247C59.8538 13.2199 59.8774 13.2699 59.8715 13.3838C59.8632 13.5433 59.8694 13.7034 59.8694 13.8646L59.8698 13.8633Z" fill="#080808"/>
<path d="M48.1458 14.8305C48.1458 13.4822 48.1482 12.1343 48.1423 10.786C48.1416 10.6418 48.175 10.5991 48.3212 10.6061C48.5926 10.6189 48.866 10.6245 49.1366 10.605C49.3249 10.5915 49.3482 10.6627 49.3478 10.8274C49.3426 13.1303 49.3444 15.4333 49.3444 17.7363C49.3444 17.9095 49.4326 17.9961 49.6091 17.9961C51.3221 17.9961 53.0352 17.9978 54.7483 17.9926C54.8911 17.9923 54.9366 18.026 54.9286 18.1719C54.9157 18.4144 54.9213 18.6579 54.9272 18.9008C54.9296 18.9963 54.9057 19.0335 54.8032 19.0293C54.6069 19.0213 54.4096 19.0269 54.2129 19.0269C52.2511 19.0269 50.289 19.0244 48.3271 19.031C48.1687 19.0317 48.1413 18.9873 48.142 18.8403C48.1479 17.5038 48.1455 16.167 48.1455 14.8305H48.1458Z" fill="#080808"/>
<path d="M10.7398 13.8341C11.5725 13.1887 12.4653 12.9413 13.4669 13.0938C13.601 13.1143 13.6754 13.1563 13.6629 13.3203C13.6441 13.5677 13.65 13.8178 13.6608 14.0662C13.6674 14.217 13.6486 14.2573 13.4777 14.2152C12.9059 14.0749 12.3309 14.0815 11.7691 14.2746C11.1341 14.4932 10.7745 14.9736 10.7662 15.6424C10.7526 16.7065 10.7519 17.7706 10.7561 18.8347C10.7568 18.9977 10.7113 19.039 10.5553 19.031C10.3013 19.0178 10.046 19.0202 9.79169 19.0307C9.65933 19.0362 9.61833 19.0036 9.61903 18.8632C9.62493 17.608 9.6225 16.3525 9.6225 15.0973C9.6225 14.5189 9.62493 13.9404 9.62042 13.362C9.61972 13.2613 9.63535 13.2206 9.75 13.2244C10.039 13.2338 10.3284 13.2314 10.6178 13.2251C10.7161 13.223 10.7474 13.2515 10.7422 13.3502C10.7342 13.5048 10.7401 13.6597 10.7401 13.8348L10.7398 13.8341Z" fill="#080808"/>
<path d="M14.5606 16.1329C14.5606 15.2189 14.5641 14.3052 14.5568 13.3911C14.5557 13.2487 14.6002 13.2192 14.7308 13.2237C15.014 13.2331 15.2978 13.231 15.5809 13.2237C15.6827 13.2213 15.7032 13.2557 15.7032 13.3502C15.7008 15.2011 15.7004 17.0518 15.7032 18.9028C15.7032 19.0007 15.6768 19.0306 15.5778 19.0285C15.2888 19.0223 14.999 19.0198 14.7103 19.0292C14.5856 19.0334 14.5571 18.9934 14.5578 18.8739C14.5627 17.9599 14.5606 17.0462 14.5606 16.1322V16.1329Z" fill="#080808"/>
<path d="M55.736 16.1152C55.736 15.2126 55.7405 14.3101 55.7315 13.4078C55.7298 13.2487 55.7767 13.2168 55.9236 13.223C56.2008 13.2352 56.4791 13.2303 56.7567 13.2244C56.8529 13.2223 56.8845 13.2484 56.8842 13.3484C56.8814 15.1998 56.8814 17.0511 56.8842 18.9021C56.8842 19.0018 56.8529 19.0306 56.755 19.0285C56.4659 19.0226 56.1762 19.0206 55.8871 19.0292C55.7645 19.0331 55.7325 18.9945 55.7332 18.8743C55.7381 17.9544 55.7357 17.0348 55.7357 16.1148L55.736 16.1152Z" fill="#080808"/>
<path d="M24.8413 21.038C24.8612 20.8161 24.9779 20.7052 25.1912 20.7052C25.4045 20.7052 25.5123 20.8137 25.5146 21.0307C25.5146 21.638 25.5118 22.2449 25.5174 22.8518C25.5184 22.9658 25.4875 23.0054 25.3729 22.9943C25.2697 22.9842 25.1644 22.9859 25.0609 22.9936C24.9257 23.004 24.8194 23.0002 24.8514 22.8133C24.8688 22.7104 24.7979 22.7351 24.7441 22.7615C24.2685 22.9946 23.7585 23.0384 23.2408 23.0252C22.8225 23.0144 22.4143 22.9449 22.0339 22.7573C21.8561 22.6698 21.6952 22.5593 21.5705 22.4023C21.2988 22.0608 21.3172 21.6352 21.6184 21.3177C21.9203 20.9991 22.3185 20.8813 22.7301 20.8042C23.4513 20.6691 24.1535 20.7452 24.841 21.0377L24.8413 21.038ZM23.4593 21.1023C23.3384 21.1078 23.2155 21.1023 23.0966 21.121C22.7864 21.17 22.4821 21.2423 22.2497 21.4764C22.0138 21.7148 22.002 22.0729 22.2226 22.304C22.3237 22.4099 22.4532 22.4798 22.5901 22.526C23.1974 22.7299 23.8061 22.7216 24.4074 22.5062C24.7215 22.3936 24.9066 22.1515 24.8986 21.8812C24.8896 21.5768 24.6975 21.4038 24.4397 21.2871C24.1281 21.1461 23.797 21.1089 23.4593 21.1023Z" fill="#0A0A0A"/>
<path d="M43.7633 21.0429C43.7728 20.8175 43.8874 20.705 44.1072 20.7052C44.3219 20.7052 44.4293 20.8131 44.4293 21.029C44.4293 21.6366 44.4265 22.2439 44.4317 22.8515C44.4328 22.9616 44.4084 23.0089 44.2914 22.9943C44.2115 22.9845 44.1295 22.9925 44.0485 22.9925C43.8695 22.9925 43.7728 22.9009 43.7584 22.7177C43.3634 22.9255 42.9413 23.0078 42.506 23.0248C41.9877 23.045 41.4784 22.9995 40.9976 22.782C40.8604 22.7198 40.7315 22.6423 40.62 22.5399C40.1569 22.1129 40.1899 21.5359 40.7026 21.169C41.0351 20.931 41.42 20.8264 41.8182 20.775C42.4835 20.6892 43.1296 20.765 43.763 21.0436L43.7633 21.0429ZM42.4675 21.1075C41.994 21.1006 41.6431 21.1554 41.3266 21.3486C41.1029 21.4851 40.9726 21.68 40.9875 21.9496C41.0021 22.2102 41.1595 22.3748 41.386 22.4704C42.0582 22.7535 42.735 22.7355 43.4079 22.4704C43.5875 22.3995 43.7133 22.2644 43.7706 22.075C43.87 21.7467 43.7352 21.4646 43.3885 21.3003C43.0636 21.1464 42.7138 21.1058 42.4682 21.1078L42.4675 21.1075Z" fill="#0A0A0A"/>
<path d="M2.47906 21.0452C3.30311 20.6884 4.12334 20.6596 4.9592 20.8691C5.08809 20.9014 5.21038 20.9532 5.32745 21.0161C5.60781 21.1668 5.74747 21.3944 5.73948 21.7196C5.7301 22.0955 5.73427 22.4717 5.73948 22.8476C5.74087 22.9515 5.72662 23.0084 5.6026 22.9938C5.43237 22.9737 5.20343 23.0661 5.10546 22.9574C5.02069 22.8636 5.07871 22.6395 5.07732 22.4727C5.07523 22.2528 5.07037 22.0329 5.07801 21.8134C5.08809 21.5323 4.95052 21.3544 4.70281 21.2516C4.2484 21.0626 3.7794 21.0775 3.30728 21.1634C3.23397 21.1766 3.16171 21.1981 3.0898 21.2193C2.64651 21.3499 2.48462 21.5646 2.48392 22.0218C2.48392 22.2994 2.4801 22.5773 2.48601 22.8549C2.48809 22.9539 2.47211 23.0036 2.35607 22.9945C2.21225 22.9834 2.06703 22.9886 1.92251 22.9932C1.84886 22.9956 1.82107 22.9733 1.82141 22.8962C1.82385 22.2368 1.8235 21.5775 1.82141 20.9177C1.82141 20.8382 1.84261 20.8017 1.92946 20.8069C2.03889 20.8135 2.15041 20.8184 2.2588 20.8062C2.42799 20.7878 2.52735 20.8291 2.47836 21.0445L2.47906 21.0452Z" fill="#0A0A0A"/>
<path d="M17.2894 21.0383C18.1093 20.6909 18.9298 20.6565 19.765 20.8743C19.8863 20.9059 20.0037 20.9605 20.1159 21.0178C20.3997 21.163 20.5373 21.3965 20.5314 21.7196C20.5244 22.0955 20.5265 22.4717 20.5321 22.848C20.5335 22.9525 20.5189 23.0088 20.3952 22.9939C20.2309 22.9744 20.0096 23.064 19.9151 22.9584C19.8331 22.8671 19.8887 22.6506 19.887 22.4898C19.8849 22.2699 19.8838 22.05 19.887 21.8301C19.8915 21.5389 19.7508 21.3479 19.4871 21.2443C19.0306 21.0651 18.5619 21.0755 18.0902 21.1662C17.9199 21.1988 17.7556 21.2516 17.6052 21.343C17.3947 21.4715 17.2897 21.6546 17.2929 21.9034C17.2967 22.2216 17.289 22.5398 17.2963 22.858C17.2988 22.9636 17.2731 23.0043 17.1629 22.9935C16.9868 22.9762 16.7561 23.0661 16.6491 22.9557C16.5637 22.8674 16.622 22.6378 16.6217 22.4707C16.6203 21.9673 16.6248 21.4639 16.6185 20.9605C16.6172 20.8396 16.6498 20.7934 16.7728 20.8073C16.8586 20.817 16.9465 20.8146 17.033 20.808C17.2001 20.7951 17.3596 20.7844 17.2897 21.0383H17.2894Z" fill="#0A0A0A"/>
<path d="M36.1912 21.0428C37.0608 20.6826 37.915 20.6395 38.7783 20.9084C39.2915 21.0682 39.4471 21.2923 39.4551 21.8221C39.4603 22.1691 39.4506 22.5165 39.4589 22.8633C39.4617 22.9772 39.4221 22.9998 39.3206 22.9939C39.1542 22.9842 38.9357 23.0488 38.8343 22.9657C38.728 22.8789 38.8072 22.652 38.8027 22.4867C38.7967 22.2727 38.795 22.0583 38.8027 21.8447C38.8131 21.5504 38.6692 21.3493 38.4104 21.2527C37.7941 21.023 37.1764 21.0474 36.5758 21.3166C36.3187 21.4319 36.2016 21.6491 36.202 21.9298C36.2023 22.2421 36.1988 22.5548 36.2044 22.8671C36.2061 22.9616 36.186 23.0005 36.0828 22.9942C35.9101 22.9835 35.6847 23.0516 35.578 22.9661C35.4665 22.8768 35.545 22.6416 35.5436 22.4707C35.5388 21.9673 35.5457 21.4639 35.5391 20.9608C35.5374 20.84 35.569 20.7937 35.6927 20.8073C35.784 20.8174 35.8785 20.8177 35.9699 20.8073C36.1426 20.7875 36.261 20.8136 36.1915 21.0428H36.1912Z" fill="#0A0A0A"/>
<path d="M26.6605 21.8506C26.6605 21.6366 26.6577 21.4222 26.6619 21.2082C26.6636 21.1259 26.6351 21.0946 26.5521 21.0985C26.4482 21.1037 26.3429 21.0905 26.2398 21.1016C26.1112 21.1155 26.1018 21.0495 26.1022 20.9484C26.1022 20.8514 26.1147 20.7948 26.2328 20.8066C26.3415 20.8174 26.4527 20.8035 26.5625 20.8108C26.6511 20.8167 26.6848 20.7924 26.6803 20.6975C26.6726 20.5301 26.6872 20.3613 26.6751 20.1945C26.6664 20.0719 26.7154 20.0482 26.8224 20.0548C26.9492 20.0625 27.0774 20.0632 27.2042 20.0548C27.3087 20.0479 27.3483 20.0767 27.341 20.1875C27.331 20.3432 27.3497 20.5009 27.3348 20.6559C27.3216 20.7955 27.3768 20.8181 27.4995 20.8122C27.7072 20.8025 27.9167 20.8181 28.1241 20.8063C28.2537 20.7986 28.2603 20.8594 28.2617 20.9598C28.2631 21.0592 28.2457 21.1064 28.1303 21.1023C27.8993 21.0936 27.6673 21.104 27.4359 21.0985C27.3393 21.096 27.3056 21.1242 27.307 21.2249C27.3125 21.5893 27.3063 21.9541 27.3105 22.3185C27.3125 22.5173 27.3747 22.5784 27.5731 22.6191C27.7527 22.6559 27.9309 22.6361 28.1081 22.6131C28.2127 22.5996 28.2617 22.6215 28.2422 22.7351C28.2356 22.7747 28.2335 22.8164 28.2384 22.856C28.253 22.9696 28.2071 22.9991 28.0939 23.0022C27.793 23.0106 27.4925 23.022 27.1927 22.9922C26.8137 22.9547 26.6636 22.7872 26.6605 22.4061C26.6587 22.2209 26.6605 22.0358 26.6605 21.8506Z" fill="#0A0A0A"/>
<path d="M7.53836 21.7807C7.53836 21.9659 7.53975 22.1507 7.53836 22.3358C7.53697 22.4998 7.60993 22.5891 7.77773 22.6172C7.9695 22.6496 8.15814 22.636 8.34713 22.6131C8.4378 22.602 8.47741 22.6079 8.47428 22.7204C8.46664 23.0015 8.47358 23.0063 8.19357 23.0081C7.93962 23.0095 7.68497 23.0199 7.43101 22.9938C7.04539 22.9542 6.88802 22.7896 6.88419 22.4008C6.88037 22.0134 6.87864 21.6257 6.88628 21.2384C6.88836 21.1227 6.85362 21.0855 6.74141 21.0973C6.6556 21.1064 6.56771 21.0939 6.48155 21.1005C6.37489 21.1085 6.31757 21.097 6.31583 20.9594C6.3141 20.8163 6.37038 20.8045 6.48711 20.8052C6.62294 20.8059 6.8036 20.8712 6.8828 20.7753C6.94916 20.695 6.90573 20.522 6.90643 20.39C6.90817 20.0562 6.90712 20.0562 7.23855 20.0562C7.54427 20.0562 7.54114 20.0562 7.54601 20.3636C7.54809 20.5064 7.48278 20.6919 7.57241 20.7812C7.66204 20.8701 7.84686 20.802 7.98999 20.8079C8.10533 20.8128 8.22171 20.8149 8.33705 20.8072C8.44405 20.8 8.48956 20.8243 8.48713 20.9462C8.48505 21.0633 8.46073 21.1088 8.33427 21.1022C8.12096 21.0914 7.90557 21.1095 7.69261 21.0956C7.55434 21.0866 7.52898 21.1373 7.53628 21.2603C7.54635 21.4333 7.53871 21.607 7.53906 21.7807H7.53836Z" fill="#0A0A0A"/>
<path d="M0.7295 21.4292C0.7295 21.9038 0.725678 22.3783 0.732279 22.8529C0.734016 22.9661 0.704139 23.005 0.590189 22.9939C0.408148 22.9759 0.162878 23.0703 0.0603924 22.9557C-0.0295861 22.855 0.0350317 22.6145 0.0350317 22.436C0.0343369 21.6199 0.0371161 20.8039 0.031905 19.9881C0.0312102 19.869 0.0576132 19.8242 0.18268 19.8346C0.320601 19.8461 0.460953 19.8457 0.598874 19.8346C0.71074 19.8259 0.732626 19.8672 0.731584 19.9708C0.726373 20.4568 0.729152 20.9428 0.729152 21.4292H0.7295Z" fill="#080808"/>
<path d="M14.4417 21.0241C14.9371 20.7948 15.4308 20.7149 15.9463 20.7504C16.0686 20.7587 16.127 20.8007 16.1016 20.9282C16.0981 20.9449 16.1013 20.963 16.1013 20.98C16.1013 21.2041 16.1016 21.2009 15.8782 21.1718C15.5364 21.1273 15.197 21.1426 14.8687 21.2551C14.5501 21.3646 14.4511 21.5115 14.4511 21.8454C14.4511 22.1862 14.4476 22.5273 14.4532 22.8682C14.4546 22.9637 14.4316 22.9995 14.3309 22.9936C14.1586 22.9838 13.9334 23.0523 13.8268 22.9675C13.7153 22.8789 13.7941 22.6441 13.7927 22.4735C13.7879 21.9649 13.7948 21.4563 13.7882 20.9477C13.7868 20.8313 13.8223 20.7969 13.9334 20.8066C14.0366 20.8157 14.1426 20.8188 14.2451 20.8063C14.4021 20.7872 14.4757 20.8407 14.442 21.0234L14.4417 21.0241Z" fill="#0A0A0A"/>
<path d="M45.4999 21.4118C45.4999 20.9314 45.5031 20.4509 45.4975 19.9708C45.4965 19.8659 45.5218 19.8263 45.632 19.835C45.7921 19.8475 46.0012 19.7853 46.1016 19.8652C46.2087 19.9503 46.1343 20.1681 46.135 20.3276C46.1388 21.1669 46.134 22.0059 46.1399 22.8452C46.1409 22.9689 46.1076 23.0075 45.987 22.9939C45.8279 22.9759 45.6142 23.0617 45.5232 22.9588C45.445 22.8703 45.5006 22.6615 45.5003 22.5062C45.4992 22.1414 45.5003 21.777 45.5003 21.4122L45.4999 21.4118Z" fill="#080808"/>
<path d="M29.5098 21.9054C29.5098 22.2289 29.5071 22.552 29.5116 22.8754C29.5126 22.9633 29.4911 22.9987 29.3969 22.9939C29.2472 22.9862 29.0968 22.9883 28.9467 22.9932C28.871 22.9956 28.8477 22.9688 28.848 22.8945C28.8501 22.2362 28.8501 21.5782 28.848 20.9198C28.848 20.8427 28.8661 20.8114 28.9533 20.8062C29.5102 20.7729 29.5102 20.7704 29.5102 21.3162C29.5102 21.5125 29.5102 21.7088 29.5102 21.9051L29.5098 21.9054Z" fill="#0A0A0A"/>
<path d="M55.7183 11.6507C55.7183 11.4947 55.7211 11.3387 55.7169 11.1827C55.7149 11.1091 55.7374 11.082 55.8146 11.083C56.1265 11.0869 56.4385 11.0869 56.7505 11.083C56.8318 11.082 56.862 11.1067 56.8609 11.1907C56.8571 11.5027 56.8564 11.8147 56.8609 12.1263C56.8623 12.2132 56.8304 12.2333 56.7505 12.2323C56.4385 12.2288 56.1265 12.2288 55.8146 12.2323C55.7395 12.2333 55.7142 12.2114 55.7166 12.1353C55.7218 11.9738 55.7183 11.8119 55.7183 11.65V11.6507Z" fill="#0A0A0A"/>
<path d="M14.5602 11.6354C14.5602 11.485 14.5629 11.3342 14.5591 11.1838C14.557 11.1088 14.5838 11.0824 14.6595 11.0834C14.9663 11.0865 15.273 11.0862 15.5801 11.0834C15.6514 11.0827 15.6861 11.1004 15.6858 11.1786C15.6833 11.4968 15.683 11.8154 15.6858 12.1336C15.6865 12.2094 15.6597 12.2333 15.585 12.2326C15.2783 12.2295 14.9711 12.2288 14.6644 12.2326C14.5782 12.2337 14.5563 12.2017 14.5588 12.1211C14.564 11.9592 14.5602 11.797 14.5602 11.6351V11.6354Z" fill="#0A0A0A"/>
<path d="M29.1871 20.0218C29.5216 20.0218 29.5181 20.0218 29.4949 20.3592C29.4893 20.4387 29.4605 20.454 29.3906 20.4523C29.2472 20.4484 29.103 20.4474 28.9595 20.4523C28.8793 20.4551 28.8515 20.4311 28.8466 20.347C28.8275 20.0215 28.8244 20.0215 29.1871 20.0215V20.0218Z" fill="#0A0A0A"/>
<path d="M50.8914 12.8169C50.882 12.7853 50.8931 12.7602 50.9171 12.7397C50.9247 12.7463 50.9324 12.7526 50.9404 12.7592C50.9233 12.778 50.9063 12.7964 50.8893 12.8151L50.8914 12.8172V12.8169Z" fill="#AEADAB"/>
<path d="M50.8894 12.8148C50.8873 12.8193 50.8859 12.8245 50.8828 12.8284C50.881 12.8305 50.8762 12.8294 50.8727 12.8298C50.8789 12.8256 50.8848 12.8211 50.8911 12.8169L50.8894 12.8148Z" fill="#AEADAB"/>
</g>
</g>
<defs>
<clipPath id="clip0_1801_18236">
<rect width="80" height="23.0613" rx="8" fill="white"/>
</clipPath>
<clipPath id="clip1_1801_18236">
<rect width="80" height="23.0613" fill="white"/>
</clipPath>
</defs>
</svg>
