<svg width="80" height="34" viewBox="0 0 80 34" fill="none" xmlns="http://www.w3.org/2000/svg">
<g clip-path="url(#clip0_1801_18527)">
<g clip-path="url(#clip1_1801_18527)">
<path d="M5.62219 13.0456C5.62219 12.179 6.33328 11.8456 7.51125 11.8456C9.2 11.8456 11.3333 12.3568 13.0222 13.2679V8.04559C11.1778 7.31231 9.35562 7.02341 7.51125 7.02341C3 7.02341 0 9.37903 0 13.3125C0 19.4456 8.44437 18.4679 8.44437 21.1125C8.44437 22.1345 7.55562 22.4679 6.31109 22.4679C4.46672 22.4679 2.11109 21.7123 0.244375 20.6901V25.979C2.31109 26.8679 4.4 27.2456 6.31109 27.2456C10.9333 27.2456 14.1111 24.9568 14.1111 20.979C14.0889 14.3568 5.62219 15.5345 5.62219 13.0456ZM20.6444 2.57903L15.2222 3.7345L15.2 21.5345C15.2 24.8236 17.6667 27.2456 20.9556 27.2456C22.7778 27.2456 24.1111 26.9123 24.8444 26.5123V22.0012C24.1334 22.2901 20.6222 23.3123 20.6222 20.0234V12.1345H24.8444V7.40122H20.6222L20.6444 2.57903ZM31.7556 9.04559L31.4 7.40122H26.6V26.8456H32.1556V13.6679C33.4666 11.9568 35.6889 12.2679 36.3778 12.5123V7.40122C35.6667 7.1345 33.0667 6.64559 31.7556 9.04559ZM37.7333 7.40122H43.3111V26.8456H37.7333V7.40122ZM37.7333 5.71231L43.3111 4.51231V0.0012207L37.7333 1.17903V5.71231ZM54.9111 7.02341C52.7333 7.02341 51.3333 8.04559 50.5556 8.75684L50.2666 7.37903H45.3778V33.29L50.9333 32.1123L50.9556 25.8234C51.7556 26.4012 52.9333 27.2234 54.8889 27.2234C58.8667 27.2234 62.4889 24.0234 62.4889 16.979C62.4667 10.5345 58.8 7.02341 54.9111 7.02341ZM53.5778 22.3345C52.2667 22.3345 51.4887 21.8679 50.9556 21.2901L50.9333 13.0456C51.5111 12.4012 52.3111 11.9568 53.5778 11.9568C55.6 11.9568 57 14.2234 57 17.1345C57 20.1123 55.6222 22.3345 53.5778 22.3345ZM80 17.2012C80 11.5123 77.2444 7.02341 71.9778 7.02341C66.6887 7.02341 63.4888 11.5125 63.4888 17.1568C63.4888 23.8456 67.2667 27.2234 72.6888 27.2234C75.3333 27.2234 77.3333 26.6234 78.8444 25.779V21.3345C77.3334 22.0901 75.6 22.5568 73.4 22.5568C71.2444 22.5568 69.3333 21.8012 69.0889 19.179H79.9556C79.9556 18.89 80 17.7345 80 17.2012ZM69.0222 15.0901C69.0222 12.579 70.5556 11.5345 71.9556 11.5345C73.3111 11.5345 74.7556 12.579 74.7556 15.0901H69.0222Z" fill="#6772E5"/>
</g>
</g>
<defs>
<clipPath id="clip0_1801_18527">
<rect width="80" height="33.44" rx="8" fill="white"/>
</clipPath>
<clipPath id="clip1_1801_18527">
<rect width="80" height="33.44" fill="white"/>
</clipPath>
</defs>
</svg>
