<svg width="80" height="24" viewBox="0 0 80 24" fill="none" xmlns="http://www.w3.org/2000/svg">
<g clip-path="url(#clip0_1801_18433)">
<path fill-rule="evenodd" clip-rule="evenodd" d="M35.4129 7.42627L32.9714 10.9723L30.5153 7.42627H28.5679L31.9686 12.193L28.3936 17.1923H30.341L32.9714 13.4283L35.5728 17.1923H37.5202L33.9451 12.193L37.3458 7.42627H35.4129Z" fill="#446CB3"/>
<path fill-rule="evenodd" clip-rule="evenodd" d="M42.7955 8.70511C43.5076 8.70511 44.0598 8.93764 44.4377 9.38816C44.801 9.82414 45.0045 10.4636 45.019 11.2774H40.2958C40.383 10.4926 40.6446 9.86774 41.0515 9.41722C41.4875 8.93764 42.0688 8.70511 42.7955 8.70511ZM42.81 7.25183C41.5021 7.25183 40.4412 7.71688 39.6709 8.64698C38.9007 9.56255 38.5083 10.8269 38.5083 12.3819C38.5083 13.9369 38.9298 15.1577 39.7581 16.0297C40.5865 16.9016 41.7491 17.3521 43.1879 17.3521C43.8418 17.3521 44.3941 17.3085 44.8591 17.2068C45.3242 17.1051 45.8183 16.9452 46.327 16.7272L46.3996 16.6982V15.1431L46.2252 15.2158C45.237 15.6373 44.2342 15.8553 43.2315 15.8553C42.3014 15.8553 41.5602 15.5791 41.0515 15.0269C40.5574 14.4892 40.2813 13.7044 40.2377 12.6871H46.8065V11.6553C46.8065 10.3473 46.4432 9.27189 45.7311 8.47259C45.019 7.65875 44.0308 7.25183 42.81 7.25183Z" fill="#446CB3"/>
<path fill-rule="evenodd" clip-rule="evenodd" d="M53.6515 7.25183C52.983 7.25183 52.358 7.38263 51.8203 7.64422C51.3407 7.87674 50.9338 8.19646 50.6432 8.60338L50.4252 7.41169H49.03V17.1777H50.7158V12.0622C50.7158 10.856 50.9338 9.984 51.3843 9.47535C51.8203 8.9667 52.5324 8.70511 53.4771 8.70511C54.1892 8.70511 54.7124 8.87951 55.0466 9.24283C55.3809 9.60615 55.5407 10.1584 55.5407 10.8996V17.1777H57.2265V10.8414C57.2265 9.59161 56.9213 8.67605 56.3255 8.09473C55.7297 7.54249 54.8286 7.25183 53.6515 7.25183Z" fill="#446CB3"/>
<path fill-rule="evenodd" clip-rule="evenodd" d="M63.6793 15.8988C62.8509 15.8988 62.2405 15.6082 61.8191 15.0269C61.3976 14.431 61.1796 13.53 61.1796 12.3528C61.1796 11.1902 61.3976 10.2746 61.8336 9.6352C62.255 9.01029 62.8654 8.7051 63.6793 8.7051C64.6239 8.7051 65.3069 8.98122 65.7284 9.51894C66.1644 10.0712 66.3824 11.0158 66.3824 12.3238V12.629C66.3824 13.7916 66.1644 14.6345 65.7429 15.1431C65.3069 15.6518 64.6239 15.8988 63.6793 15.8988ZM66.3533 7.42621L66.3824 8.09472L66.426 8.53071C65.7284 7.67327 64.7402 7.23728 63.4903 7.23728C62.2114 7.23728 61.2087 7.6878 60.4966 8.58884C59.7845 9.47534 59.4211 10.7252 59.4211 12.3238C59.4211 13.9078 59.7845 15.1577 60.482 16.0296C61.1941 16.9016 62.2114 17.3521 63.4903 17.3521C64.7838 17.3521 65.7865 16.9016 66.4696 16.0006L66.644 17.1777H68.0536V3.42969H66.3678L66.3533 7.42621Z" fill="#446CB3"/>
<path fill-rule="evenodd" clip-rule="evenodd" d="M71.7159 3.88025C71.4398 3.88025 71.2072 3.96745 71.0183 4.14184C70.8294 4.31623 70.7422 4.59236 70.7422 4.95568C70.7422 5.319 70.8294 5.58059 71.0183 5.76951C71.2072 5.95844 71.4398 6.04564 71.7159 6.04564C71.9775 6.04564 72.21 5.95844 72.3989 5.76951C72.5879 5.58059 72.6896 5.319 72.6896 4.95568C72.6896 4.59236 72.5879 4.33077 72.3989 4.14184C72.21 3.96745 71.9775 3.88025 71.7159 3.88025Z" fill="#446CB3"/>
<path fill-rule="evenodd" clip-rule="evenodd" d="M70.8584 17.1923H72.5587V7.42627H70.8584V17.1923Z" fill="#446CB3"/>
<path fill-rule="evenodd" clip-rule="evenodd" d="M79.8398 15.7536C79.709 15.7972 79.5201 15.8262 79.2876 15.8698C79.0551 15.8989 78.8225 15.928 78.5609 15.928C78.125 15.928 77.7762 15.7972 77.5291 15.5065C77.2821 15.2304 77.1513 14.8089 77.1513 14.2712V8.79236H79.9125V7.42627H77.1513V5.21729H76.1049L75.48 7.28095L74.0994 7.89132V8.79236H75.4655V14.3294C75.4655 16.3349 76.4392 17.3667 78.3575 17.3667C78.6045 17.3667 78.8807 17.3377 79.2004 17.2941C79.5201 17.2359 79.7526 17.1778 79.927 17.0906L79.9997 17.0615V15.71L79.8398 15.7536Z" fill="#446CB3"/>
<path d="M13.1667 0H6.68509L0 11.5827L6.68509 23.1653L8.00758 20.8837L2.64497 11.5827L8.00758 2.29618H11.8442L13.1667 0Z" fill="#446CB3"/>
<path d="M8.60339 7.86221L9.91134 5.59509L8.00754 2.29614L6.68506 4.56326L8.60339 7.86221Z" fill="#D24D57"/>
<path d="M16.1023 2.29614L17.4248 4.57779L8.00754 20.8836L6.68506 18.602L16.1023 2.29614Z" fill="#D24D57"/>
<path d="M10.9578 23.1653L12.2657 20.8837H16.1024L21.465 11.5827L16.1024 2.29618L17.4249 0L24.11 11.5827L17.4249 23.1653H10.9578Z" fill="#446CB3"/>
<path d="M15.4775 15.2594L14.155 17.5411L16.1024 20.8836L17.4249 18.6165L15.4775 15.2594Z" fill="#D24D57"/>
</g>
<defs>
<clipPath id="clip0_1801_18433">
<rect width="80" height="23.1653" rx="8" fill="white"/>
</clipPath>
</defs>
</svg>
