<svg width="80" height="80" viewBox="0 0 80 80" fill="none" xmlns="http://www.w3.org/2000/svg">
<g clip-path="url(#clip0_1801_5312)">
<path d="M60 0H20C8.9543 0 0 8.9543 0 20V60C0 71.0457 8.9543 80 20 80H60C71.0457 80 80 71.0457 80 60V20C80 8.9543 71.0457 0 60 0Z" fill="#00A4DE"/>
<path fill-rule="evenodd" clip-rule="evenodd" d="M43.545 16C37.5076 16 28.9317 18.5099 23.8665 24.5928C15.8519 27.9525 10 35.4634 10 43.6655C10 56.3956 21.2941 64 34.9071 64C37.1476 64 39.2783 63.5221 41.2718 63.0398C42.74 63.2612 44.2612 63.3785 45.8313 63.3785C58.6785 63.3785 70 53.379 70 40.322C70 26.8374 58.8347 16 43.545 16ZM34.3334 25.7543C40.7923 25.7543 45.8025 31.8553 45.8025 37.3035C45.8025 44.6677 41.1157 49.6078 34.5699 49.6078C28.6958 49.6078 23.4614 44.3817 23.4614 36.9567C23.4614 30.8337 28.2031 25.7543 34.3334 25.7543ZM33.4689 61.7077C24.5774 61.7077 15.1769 53.4524 15.1769 43.1631C15.1769 38.1433 16.8209 33.1228 20.9765 29.7481C20.2303 31.2269 19.735 33.0037 19.5345 35.1247C19.4325 35.8949 19.3757 36.6939 19.3757 37.5186C19.3757 48.6326 25.7202 57.8438 35.6434 61.5835C34.9253 61.6644 34.1994 61.7077 33.4689 61.7077ZM40.1336 60.545C32.6816 59.1407 26.5709 53.722 23.9312 47.3093C26.5448 49.7577 30.2633 51.4373 35.0031 51.4373C42.5839 51.4373 49.7922 45.8656 49.7922 37.5945C49.7922 33.5349 48.2966 30.877 48.2966 30.877C51.4551 33.9557 53.4532 38.2794 53.4532 43.5526C53.4532 50.965 47.6745 57.8751 40.1336 60.545ZM47.5047 60.5857C53.5787 57.1025 57.3547 51.1482 57.3547 44.6702C57.3547 30.2423 42.6969 25.0719 42.6969 25.0719C40.0029 23.5492 36.6843 22.7364 32.9965 22.7364C32.7162 22.7364 32.2366 22.7433 31.9589 22.7527C35.6964 20.0477 40.559 18.3826 45.4785 18.3826C56.9463 18.3826 65.6209 28.8293 65.6209 38.6111C65.6209 49.9835 57.2358 58.8046 47.5047 60.5857Z" fill="white"/>
</g>
<defs>
<clipPath id="clip0_1801_5312">
<rect width="80" height="80" fill="white"/>
</clipPath>
</defs>
</svg>
