<svg width="80" height="24" viewBox="0 0 80 24" fill="none" xmlns="http://www.w3.org/2000/svg">
<g clip-path="url(#clip0_1801_4949)">
<path fill-rule="evenodd" clip-rule="evenodd" d="M37.5912 4.22705C37.6808 4.10901 37.7255 3.5584 37.7255 3.42955V0.760082C37.711 0.602867 37.6535 0.484681 37.5534 0.406257C37.4534 0.327429 37.3382 0.288254 37.2092 0.288254H25.6393C25.4955 0.288254 25.3755 0.331131 25.2787 0.416664C25.1823 0.502418 25.1335 0.617196 25.1335 0.760082V0.789875C25.1335 0.961786 25.2138 1.12289 25.3494 1.22824C26.0125 1.74354 26.6287 2.29111 27.3036 3.26071C27.9539 4.19396 27.987 4.40406 28.1873 4.40406H29.3381V15.7384C29.3381 15.8841 29.4002 16.026 29.5107 16.1216C29.6148 16.2116 29.7251 16.2563 29.8422 16.2563H32.9958C33.1457 16.2563 33.2671 16.2045 33.3602 16.1005C33.4527 15.9964 33.4995 15.8796 33.4995 15.7506V4.40406H37.2092C37.3745 4.40406 37.5013 4.34506 37.5912 4.22705Z" fill="#E72635"/>
<path fill-rule="evenodd" clip-rule="evenodd" d="M42.6838 11.8994C40.7324 11.8994 39.1507 10.3175 39.1507 8.36632C39.1507 6.41488 40.7324 4.8332 42.6838 4.8332C44.6355 4.8332 46.2169 6.41488 46.2169 8.36632C46.2169 10.3175 44.6355 11.8994 42.6838 11.8994ZM50.6141 6.19397C50.4171 5.49512 50.1408 4.83914 49.7858 4.22622C49.4303 3.61352 49.0018 3.05634 48.5001 2.5541C47.9975 2.05226 47.4415 1.62411 46.8323 1.26948C46.2222 0.914447 45.566 0.638166 44.8625 0.441373C44.1597 0.24436 43.4319 0.145523 42.6785 0.145523C41.918 0.145523 41.1883 0.24436 40.4886 0.441373C39.9854 0.583269 39.5068 0.768043 39.0501 0.991625C38.959 1.05429 38.8383 1.15514 38.7277 1.29968C38.5958 1.47181 38.528 1.68535 38.528 1.90219V4.02287C38.528 4.57759 38.0784 5.02717 37.5239 5.02717H35.8522C35.4224 5.02717 35.0413 5.30056 34.9008 5.70602C34.8451 5.86587 34.7942 6.02902 34.7481 6.19397C34.5545 6.89326 34.4578 7.62272 34.4578 8.38263C34.4578 9.14213 34.5545 9.87185 34.7481 10.5707C34.942 11.2696 35.2181 11.9219 35.5768 12.528C35.9355 13.1338 36.3643 13.6852 36.8628 14.1836C37.3612 14.682 37.9153 15.1103 38.5253 15.4687C39.1348 15.8272 39.7898 16.1034 40.4886 16.2961C41.1883 16.4903 41.918 16.5871 42.6785 16.5871C43.4319 16.5871 44.1597 16.4903 44.8625 16.2961C45.566 16.1034 46.2222 15.8272 46.8323 15.4687C47.4415 15.1103 47.9975 14.682 48.5001 14.1836C49.0018 13.6852 49.4303 13.1338 49.7858 12.528C50.1408 11.9219 50.4171 11.2696 50.6141 10.5707C50.8115 9.87185 50.9103 9.14213 50.9103 8.38263C50.9103 7.62272 50.8115 6.89326 50.6141 6.19397Z" fill="#E72635"/>
<path fill-rule="evenodd" clip-rule="evenodd" d="M8.11111 11.8053C6.15967 11.8053 4.57803 10.2234 4.57803 8.27222C4.57803 6.32078 6.15967 4.7391 8.11111 4.7391C10.0623 4.7391 11.6442 6.32078 11.6442 8.27222C11.6442 10.2234 10.0623 11.8053 8.11111 11.8053ZM27.0931 11.0899L23.6825 9.94841C23.4204 9.8606 23.1262 9.95534 22.9767 10.1883C22.3079 11.2326 21.1016 11.8994 19.7457 11.7912C18.8564 11.7204 18.0489 11.3037 17.4654 10.673C17.042 10.2159 16.7358 9.64666 16.6053 9.0123C16.5557 8.7712 16.5338 8.53435 16.5338 8.30264H16.5326C16.5326 6.05802 15.6365 4.0235 14.1836 2.53388C14.1608 2.50999 14.1381 2.48532 14.1149 2.46103C12.6187 0.963453 10.5505 0.0365448 8.26672 0.0365448C4.88711 0.0365448 1.98307 2.06572 0.701493 4.97082C0.25213 5.99044 0 7.11682 0 8.30282C0 12.1473 2.62457 15.378 6.17931 16.3029C6.23135 16.3164 6.28486 16.3262 6.33774 16.3384V16.3388C6.95659 16.487 7.60172 16.5691 8.26628 16.5691C10.3339 16.5691 12.2233 15.8078 13.6729 14.553C13.6729 14.553 14.0926 14.1657 14.153 14.1073C15.6518 15.6251 17.7304 16.5694 20.032 16.5694C20.953 16.5694 21.8366 16.4139 22.6637 16.1355C24.7603 15.4309 26.4827 13.9125 27.4492 11.9513C27.615 11.6146 27.4492 11.2087 27.0931 11.0899Z" fill="#E72635"/>
<path fill-rule="evenodd" clip-rule="evenodd" d="M20.0321 4.80339C21.1136 4.80339 22.0785 5.29505 22.7202 6.06617C22.8945 6.27564 23.1908 6.33831 23.4425 6.23258L26.7461 4.8422C27.1085 4.68968 27.2453 4.24867 27.0362 3.91548C25.5748 1.58657 22.9852 0.0371094 20.0321 0.0371094C17.9441 0.0371094 16.0382 0.812739 14.5835 2.09025C15.7826 3.30908 16.6321 4.87218 16.9692 6.6162C17.5652 5.53615 18.7115 4.80339 20.0321 4.80339Z" fill="#E72635"/>
<path fill-rule="evenodd" clip-rule="evenodd" d="M58.6749 9.22064H57.9097C55.9967 9.22064 54.5857 10.5598 54.5857 12.3532C54.5857 14.5293 56.2476 15.4857 57.4791 15.4857H58.6749V16.5379H57.4791C55.1478 16.5379 53.4141 14.7445 53.4141 12.3532C53.4141 10.3206 55.076 8.16844 57.7901 8.16844H58.6749V9.22064Z" fill="#790008"/>
<mask id="mask0_1801_4949" style="mask-type:luminance" maskUnits="userSpaceOnUse" x="0" y="0" width="80" height="24">
<path d="M0 23.3536H79.9709V0.0367432H0V23.3536Z" fill="#790008"/>
</mask>
<g mask="url(#mask0_1801_4949)">
<path fill-rule="evenodd" clip-rule="evenodd" d="M59.7756 16.5379H60.8278V8.16846H59.7756V16.5379Z" fill="#790008"/>
</g>
<path fill-rule="evenodd" clip-rule="evenodd" d="M62.7647 16.5379H63.8167V10.7988H62.7647V16.5379ZM63.2907 8.88585C63.6973 8.88585 63.9244 9.19672 63.9244 9.51955C63.9244 9.84237 63.6973 10.1532 63.2907 10.1532C62.8843 10.1532 62.657 9.84237 62.657 9.51955C62.657 9.19672 62.8843 8.88585 63.2907 8.88585Z" fill="#790008"/>
<path fill-rule="evenodd" clip-rule="evenodd" d="M69.3528 11.8031H68.5397C67.5474 11.8031 66.567 12.4489 66.567 13.6684C66.567 14.8879 67.5474 15.5336 68.5397 15.5336H69.3528V16.5379H68.3486C67.0094 16.5379 65.467 15.5097 65.467 13.6684C65.467 11.827 67.0094 10.7988 68.3486 10.7988H69.3528V11.8031Z" fill="#790008"/>
<path fill-rule="evenodd" clip-rule="evenodd" d="M70.2261 16.5379V8.16844H71.2781V12.9271H71.7206C72.1629 12.9271 72.4499 12.7597 72.6054 12.4967L73.5977 10.7988H74.7933L74.04 12.0902C73.8129 12.4847 73.4662 13.0586 73.1433 13.1423V13.1662C73.9922 13.3336 74.4585 13.8358 74.4585 14.8521V16.5379H73.4063V14.9716C73.4063 14.2543 73.0237 13.9314 72.4737 13.9314H71.2781V16.5379H70.2261Z" fill="#790008"/>
<path fill-rule="evenodd" clip-rule="evenodd" d="M75.248 15.5336H78.1892C78.6795 15.5336 78.8707 15.3423 78.8707 14.9836C78.8707 13.9314 75.248 14.3379 75.248 12.3531C75.248 11.3369 75.9534 10.7988 77.2088 10.7988H79.6837V11.8031H77.0295C76.5154 11.8031 76.36 11.9467 76.348 12.3054C76.3359 13.2978 79.9708 12.8792 79.9708 14.9358C79.9708 16.0238 79.2055 16.5379 78.1892 16.5379H75.248V15.5336Z" fill="#790008"/>
<path d="M18.1051 19.2714C18.2558 19.2714 18.373 19.2505 18.4568 19.2086C18.5884 19.1429 18.6542 19.0244 18.6542 18.8534C18.6542 18.6811 18.5842 18.5651 18.4442 18.5053C18.3653 18.4718 18.248 18.455 18.0925 18.455H17.4556V19.2714H18.1051ZM18.2253 20.488C18.4442 20.488 18.6003 20.4246 18.6936 20.2978C18.7523 20.2177 18.7816 20.1208 18.7816 20.0071C18.7816 19.8157 18.696 19.6853 18.525 19.616C18.4341 19.5789 18.3138 19.5603 18.1643 19.5603H17.4556V20.488H18.2253ZM17.1057 18.1572H18.2379C18.5465 18.1572 18.766 18.2493 18.8964 18.4335C18.973 18.5424 19.0112 18.668 19.0112 18.8103C19.0112 18.9766 18.964 19.1129 18.8695 19.2194C18.8204 19.2756 18.7499 19.3271 18.6577 19.3737C18.7929 19.4252 18.894 19.4832 18.961 19.5478C19.0794 19.6626 19.1386 19.8211 19.1386 20.0233C19.1386 20.1931 19.0854 20.3468 18.9789 20.4844C18.8198 20.6902 18.5668 20.793 18.2199 20.793H17.1057V18.1572ZM19.3611 18.1572H19.7774L20.5346 19.424L21.2918 18.1572H21.7099L20.714 19.7308V20.793H20.357V19.7308L19.3611 18.1572Z" fill="#790008"/>
<path fill-rule="evenodd" clip-rule="evenodd" d="M22.8457 22.6007H27.152V18.2957H22.8457V22.6007Z" fill="#790008"/>
<path fill-rule="evenodd" clip-rule="evenodd" d="M25.7171 19.1082H23.428L24.4396 20.4479H26.7288L25.7171 19.1082Z" fill="white"/>
<path fill-rule="evenodd" clip-rule="evenodd" d="M26.7288 20.4479H24.4396L23.428 21.7873H25.7171L26.7288 20.4479Z" fill="#ED1C24"/>
<path fill-rule="evenodd" clip-rule="evenodd" d="M30.3501 21.1943C30.1869 21.3252 29.9901 21.3925 29.7813 21.3925C29.2743 21.3925 28.8808 20.9906 28.8808 20.4749C28.8808 19.9598 29.2743 19.5569 29.7813 19.5569C29.9901 19.5569 30.1869 19.6257 30.3501 19.755L30.358 19.7618L30.7484 19.3713L30.7388 19.3637C30.4732 19.1325 30.1325 19.0051 29.7813 19.0051C28.962 19.0051 28.2954 19.665 28.2954 20.4749C28.2954 21.2848 28.962 21.9442 29.7813 21.9442C30.1325 21.9442 30.4732 21.8168 30.7388 21.5858L30.7484 21.5778L30.358 21.1874L30.3501 21.1943ZM31.2788 21.8618H31.8403V19.0874H31.2788V21.8618ZM34.0523 20.8602C34.0329 20.8234 33.0737 19.0816 33.0737 19.0816H32.5267V21.8569H33.0863V20.1987C33.1274 20.2719 34.0523 21.8783 34.0523 21.8783C34.0523 21.8783 34.9752 20.2725 35.0173 20.1998V21.8569H35.5765V19.0816H35.0292C35.0292 19.0816 34.0729 20.8234 34.0523 20.8602ZM37.3426 21.3601H36.7942V20.7057H37.3426C37.5982 20.7057 37.6891 20.8745 37.6891 21.0313C37.6891 21.1903 37.5982 21.3601 37.3426 21.3601ZM36.7942 19.5906H37.3076C37.5225 19.5906 37.6513 19.7047 37.6513 19.8959C37.6513 20.0865 37.5225 20.2007 37.3076 20.2007H36.7942V19.5906ZM37.8871 20.4393C38.0091 20.3717 38.2116 20.1826 38.2116 19.8718C38.2116 19.3881 37.8818 19.0874 37.3503 19.0874H36.2331V21.8618H37.3958C37.9236 21.8618 38.2504 21.5548 38.2504 21.0583C38.2504 20.6858 38.0305 20.5127 37.8871 20.4393Z" fill="#790008"/>
<path fill-rule="evenodd" clip-rule="evenodd" d="M44.1476 19.102H44.5498L45.5152 21.8528H45.1809L44.918 21.1119H43.7613L43.5099 21.8702H43.1335L44.1476 19.102ZM43.8767 20.7887H44.8032L44.3475 19.4484H44.34L43.8767 20.7887Z" fill="#790008"/>
<path fill-rule="evenodd" clip-rule="evenodd" d="M49.7418 19.102H50.1456L51.109 21.8528H50.7739L50.5125 21.1119H49.3557L49.104 21.8702H48.7288L49.7418 19.102ZM49.4708 20.7887H50.3976L49.9407 19.4484H49.9341L49.4708 20.7887Z" fill="#790008"/>
<path fill-rule="evenodd" clip-rule="evenodd" d="M48.1952 19.4603C48.1952 19.4603 47.1524 18.6327 46.2174 19.5146C46.2174 19.5146 45.7974 19.8798 45.8205 20.6471C45.8205 20.6471 45.8692 21.9069 47.2602 21.9245C47.2602 21.9245 47.8538 21.8885 48.2504 21.6549V20.342H47.3329V20.5928H47.9806V21.4568C47.9806 21.4568 47.0266 21.9069 46.4866 21.3666C46.4866 21.3666 46.0558 21.1329 46.1445 20.3243C46.1445 20.3243 46.3252 19.3404 47.3209 19.4004C47.3209 19.4004 47.8605 19.4662 48.0049 19.6998L48.1952 19.4603Z" fill="#790008"/>
<path fill-rule="evenodd" clip-rule="evenodd" d="M42.3857 21.8527H42.6737V19.0824H42.3857V21.8527Z" fill="#790008"/>
<path fill-rule="evenodd" clip-rule="evenodd" d="M41.3608 19.0824V21.3487L39.7051 19.0824H39.4175V21.8528H39.7051V19.5776L41.3608 21.8528H41.6487V19.0824H41.3608Z" fill="#790008"/>
</g>
<defs>
<clipPath id="clip0_1801_4949">
<rect width="80" height="23.3807" fill="white"/>
</clipPath>
</defs>
</svg>
