<svg width="80" height="26" viewBox="0 0 80 26" fill="none" xmlns="http://www.w3.org/2000/svg">
<g clip-path="url(#clip0_1801_5268)">
<path d="M28.181 16.1959C25.9479 16.1959 24.1365 14.3844 24.1365 12.1513C24.1365 9.91822 25.9538 8.10679 28.181 8.10679C30.4082 8.10679 32.2255 9.91822 32.2255 12.1513C32.2255 14.3844 30.4082 16.1959 28.181 16.1959ZM28.181 4.69179C24.0592 4.69179 20.7096 8.04146 20.7096 12.1573C20.7096 16.2731 24.0652 19.6228 28.181 19.6228C32.2968 19.6228 35.6524 16.2731 35.6524 12.1573C35.6524 8.04146 32.2968 4.69179 28.181 4.69179Z" fill="#FF8500"/>
<path d="M60.6385 16.196C58.4054 16.196 56.5939 14.3846 56.5939 12.1514C56.5939 9.91834 58.4113 8.1069 60.6385 8.1069C62.8656 8.1069 64.683 9.91834 64.683 12.1514C64.683 14.3846 62.8656 16.196 60.6385 16.196ZM64.683 5.88567C63.513 5.1314 62.1233 4.69191 60.6385 4.69191C56.5167 4.69191 53.1671 8.04157 53.1671 12.1574C53.1671 16.2732 56.5227 19.6229 60.6385 19.6229C64.7543 19.6229 68.1099 16.2732 68.1099 12.1574V0H64.683V5.88567Z" fill="#FF8500"/>
<path d="M73.4431 5.12535C71.5544 5.12535 70.0281 6.6517 70.0281 8.53441V19.1951H73.4431V9.81132C73.4431 9.10456 74.0192 8.53441 74.7259 8.53441H79.8514V5.13129H73.4431V5.12535Z" fill="#FF8500"/>
<path d="M17.3957 5.11959L14.5746 13.3928L11.9495 7.7625C11.6644 7.1864 11.0824 6.82412 10.4469 6.82412C9.81143 6.82412 9.2294 7.1864 8.94432 7.7625L6.09948 13.3809L3.52784 5.11365H0L4.13957 18.4173C4.34744 19.0825 4.92947 19.5517 5.61247 19.6051C6.29547 19.6586 6.94284 19.2903 7.25167 18.6727L10.4529 12.2228L13.654 18.6727C13.9391 19.2547 14.5271 19.6111 15.1566 19.6111C15.2042 19.6111 15.2457 19.6111 15.2932 19.6111C15.9762 19.5576 16.5583 19.0884 16.7661 18.4232L20.9295 5.11365H17.4016L17.3957 5.11959Z" fill="#FF8500"/>
<path d="M35.0169 20.8997H21.351V24.3206H35.0169V20.8997Z" fill="#3FD8D4"/>
<path d="M59.2427 23.7981C59.1773 23.9347 59.0942 24.0357 58.9814 24.1069C58.8745 24.1723 58.7438 24.2079 58.6013 24.2079C58.4587 24.2079 58.334 24.1723 58.2211 24.1069C58.1142 24.0416 58.0252 23.9347 57.9598 23.7981C57.8945 23.6615 57.8648 23.4893 57.8648 23.2933C57.8648 23.0973 57.8945 22.925 57.9598 22.7825C58.0252 22.6459 58.1083 22.539 58.2211 22.4737C58.3281 22.4083 58.4587 22.3727 58.6013 22.3727C58.8151 22.3727 58.9932 22.4499 59.1298 22.6043C59.2664 22.7588 59.3377 22.9904 59.3377 23.2933C59.3377 23.4952 59.308 23.6615 59.2427 23.7981ZM59.8188 22.4737C59.7119 22.248 59.5634 22.0758 59.3793 21.9629C59.1892 21.8501 58.9754 21.7907 58.7319 21.7907C58.5359 21.7907 58.3696 21.8263 58.233 21.8976C58.0905 21.9689 57.9836 22.0579 57.9004 22.1648H57.8707V20.8939H57.2234V24.7305H57.841V24.3861H57.8707C57.9717 24.5049 58.0905 24.6058 58.233 24.6771C58.3756 24.7484 58.5419 24.784 58.7319 24.784C58.9754 24.784 59.1952 24.7246 59.3793 24.6118C59.5693 24.4989 59.7178 24.3267 59.8188 24.101C59.9257 23.8753 59.9791 23.6081 59.9791 23.2873C59.9791 22.9666 59.9257 22.6994 59.8188 22.4677V22.4737Z" fill="#757575"/>
<path d="M60.8224 25.5916L61.2679 24.4928L60.181 21.844H60.8759L61.5886 23.6673H61.6123L62.3072 21.844H62.9843L61.4995 25.5916H60.8224Z" fill="#757575"/>
<path d="M66.2924 23.8989C66.3696 23.8989 66.4408 23.887 66.5002 23.8573C66.5596 23.8276 66.6012 23.7861 66.6309 23.7326C66.6606 23.6792 66.6784 23.6138 66.6784 23.5426C66.6784 23.4357 66.6487 23.3525 66.5834 23.2872C66.518 23.2219 66.423 23.1922 66.2983 23.1922H65.4728V23.8989H66.2983H66.2924ZM66.2389 22.4379C66.3161 22.4379 66.3874 22.4201 66.4468 22.3904C66.5002 22.3607 66.5477 22.3191 66.5774 22.2657C66.6071 22.2122 66.6249 22.1528 66.6249 22.0815C66.6249 21.9746 66.5952 21.8856 66.5299 21.8262C66.4646 21.7668 66.3696 21.7311 66.2508 21.7311H65.4787V22.4379H66.2508H66.2389ZM64.4869 24.7363V20.8997H66.3696C66.6309 20.8997 66.8566 20.9412 67.0407 21.0303C67.2248 21.1135 67.3614 21.2382 67.4505 21.3985C67.5396 21.5589 67.5871 21.749 67.5871 21.9687C67.5871 22.1469 67.5396 22.3132 67.4445 22.4617C67.3495 22.6101 67.2367 22.717 67.1001 22.7883C67.2604 22.8655 67.397 22.9784 67.498 23.1268C67.6049 23.2753 67.6584 23.4594 67.6584 23.6673C67.6584 23.8752 67.6108 24.0652 67.5277 24.2256C67.4386 24.3859 67.302 24.5106 67.1238 24.5997C66.9397 24.6888 66.714 24.7363 66.4468 24.7363H64.4869Z" fill="#757575"/>
<path d="M68.2226 24.7304V20.8997H69.4817L70.7348 23.2991H70.7586V20.8997H71.7385V24.7304H70.4735L69.2322 22.331H69.2025V24.7304H68.2226Z" fill="#757575"/>
<path d="M73.4431 20.8997H72.4453V24.7363H73.4431V20.8997Z" fill="#757575"/>
<path d="M44.4069 4.67416C40.4039 4.67416 37.1493 7.88129 37.1493 11.8189V19.1894H40.5642V11.8189C40.5642 9.76993 42.3282 8.10104 44.4069 8.10104C46.4855 8.10104 48.2495 9.76993 48.2495 11.8189V19.1894H51.6645V11.8189C51.6645 7.88129 48.4098 4.67416 44.4069 4.67416Z" fill="#FF8500"/>
</g>
<defs>
<clipPath id="clip0_1801_5268">
<rect width="79.8514" height="25.5916" fill="white"/>
</clipPath>
</defs>
</svg>
