<svg width="80" height="69" viewBox="0 0 80 69" fill="none" xmlns="http://www.w3.org/2000/svg">
<g clip-path="url(#clip0_1801_18783)">
<path d="M66.2345 10.8017H44.4661V0.592684C44.4661 0.263183 44.1963 0 43.8668 0C35.0294 0 33.093 2.17803 33.093 5.02204V10.8019H12.4339C11.2015 10.8019 10.6606 13.6601 10.661 15.6754C10.661 16.0099 10.9189 16.2859 11.2533 16.2859H33.093V23.5143H18.6207C17.384 23.5143 16.844 26.4607 16.8478 28.4084C16.8483 28.7349 17.1136 28.9985 17.4401 28.9985H46.5092C45.9181 34.1856 44.5012 38.7858 42.5237 42.7646C46.0939 44.4478 49.6659 46.2547 53.4261 47.9187C57.815 40.8609 60.4996 32.7724 60.55 24.7108C60.5542 24.052 60.0233 23.5145 59.3644 23.5145H44.4661V16.2861H65.0536C66.286 16.2861 66.827 13.5441 66.8266 11.4125C66.8266 11.0777 66.5687 10.8017 66.2345 10.8017Z" fill="#1677FF"/>
<path d="M4.79684 52.2515C4.77681 64.0517 29.1092 68.8106 40.4288 61.493C42.6746 59.9925 44.7597 58.2796 46.6698 56.3952C46.2867 56.1386 44.3544 54.7318 42.1347 53.291C40.51 52.2364 38.6879 51.1867 37.4236 50.4409C23.871 66.0805 4.79684 61.9362 4.79684 52.2515Z" fill="url(#paint0_linear_1801_18783)"/>
<path d="M72.8581 68.169C78.3153 68.169 79.7468 61.3551 79.9979 55.9956C80.047 54.9476 79.2284 54.0651 78.1798 54.0322C63.2425 53.565 52.8767 47.6453 42.5235 42.7642C53.95 52.567 58.8481 68.169 72.8581 68.169Z" fill="url(#paint1_linear_1801_18783)"/>
<path d="M17.1228 43.5849C24.1554 43.5849 30.9026 46.5688 37.4562 50.4591C40.575 52.3126 43.653 54.3697 46.7106 56.4065C55.3944 62.2215 63.8131 67.8635 72.2216 68.1588C58.7272 67.67 53.8044 52.4246 42.5624 42.7906C35.0814 39.2669 27.6105 36.283 18.4376 36.283C7.61354 36.283 0 43.3303 0 52.2617C0 61.0911 7.78681 68.169 18.4376 68.169C26.7952 68.169 34.2456 65.6434 40.4527 61.5087C29.1088 68.7902 4.83108 64.0445 4.83108 52.2617C4.83108 47.2104 10.3858 43.5747 17.1228 43.5747V43.5849Z" fill="url(#paint2_radial_1801_18783)"/>
</g>
<defs>
<linearGradient id="paint0_linear_1801_18783" x1="27.2474" y1="72.4408" x2="84.7973" y2="31.841" gradientUnits="userSpaceOnUse">
<stop stop-color="#1677FF" stop-opacity="0.8"/>
<stop offset="0.0373" stop-color="#1374FE" stop-opacity="0.8075"/>
<stop offset="0.2604" stop-color="#0866FB" stop-opacity="0.8521"/>
<stop offset="0.5337" stop-color="#025DF9" stop-opacity="0.9067"/>
<stop offset="1" stop-color="#005BF8"/>
</linearGradient>
<linearGradient id="paint1_linear_1801_18783" x1="0.000173424" y1="34.0847" x2="80.0002" y2="34.0847" gradientUnits="userSpaceOnUse">
<stop offset="0.1168" stop-color="#1677FF"/>
<stop offset="1" stop-color="#1677FF" stop-opacity="0.5"/>
</linearGradient>
<radialGradient id="paint2_radial_1801_18783" cx="0" cy="0" r="1" gradientUnits="userSpaceOnUse" gradientTransform="translate(31.4588 65.909) rotate(-76.2986) scale(19.6403 44.4853)">
<stop stop-color="#5CA0FF"/>
<stop offset="1" stop-color="#1777FF"/>
</radialGradient>
<clipPath id="clip0_1801_18783">
<rect width="80" height="68.169" rx="8" fill="white"/>
</clipPath>
</defs>
</svg>
