<svg width="80" height="21" viewBox="0 0 80 21" fill="none" xmlns="http://www.w3.org/2000/svg">
<g clip-path="url(#clip0_1801_18412)">
<path d="M16.7985 0H3.20409C1.4337 0 0 1.44636 0 3.23168V16.9412C0 18.7254 1.4337 20.1723 3.20409 20.1723H16.7985C18.5685 20.1723 20.0015 18.7254 20.0015 16.9412V3.23168C20.0015 1.44636 18.5685 0 16.7985 0Z" fill="#1677FF"/>
<path d="M5.40457 15.5126C2.29287 15.5126 1.37291 13.0407 2.91072 11.6882C3.42389 11.2312 4.36161 11.008 4.86155 10.958C6.70998 10.7737 8.42105 11.4849 10.4403 12.4789C9.02094 14.3463 7.21314 15.5126 5.40457 15.5126ZM16.4679 12.6664C15.6676 12.396 14.5936 11.9826 13.3974 11.5461C14.1158 10.2866 14.6896 8.85237 15.0667 7.2936H11.1241V5.86141H15.9538V5.06199H11.1241V2.67451H9.15301C8.80725 2.67451 8.80725 3.01876 8.80725 3.01876V5.06199H3.92251V5.86141H8.80725V7.2936H4.77426V8.09282H12.5961C12.3099 9.08742 11.9256 10.0212 11.4695 10.8695C8.93138 10.025 6.22308 9.34041 4.52164 9.76175C3.43352 10.0321 2.73273 10.5147 2.32103 11.0203C0.43141 13.339 1.7867 16.8609 5.77736 16.8609C8.13688 16.8609 10.4099 15.5341 12.1716 13.3477C14.7992 14.6216 20.0015 16.8088 20.0015 16.8088V13.6916C20.0015 13.6916 19.3482 13.6391 16.4679 12.6664Z" fill="white"/>
<path d="M43.4315 2.95306C43.4315 3.99659 44.1941 4.69908 45.2579 4.69908C46.3216 4.69908 47.0842 3.99659 47.0842 2.95306C47.0842 1.92956 46.3216 1.20685 45.2579 1.20685C44.1941 1.20685 43.4315 1.92956 43.4315 2.95306Z" fill="#1677FF"/>
<path d="M38.3338 16.2995H41.5048V1.64847H38.3338V16.2995Z" fill="black"/>
<path d="M28.1582 11.2218L30.0446 4.69912H30.1251L31.9113 11.2218H28.1582ZM32.7744 2.15028H28.5194L23.7628 16.2996H26.6931L27.4959 13.5299H32.5335L33.2959 16.2996H37.0493L32.7744 2.15028Z" fill="black"/>
<path d="M43.6724 16.2995H46.8434V5.54203H43.6724V16.2995Z" fill="black"/>
<path d="M79.9802 5.5621L80 5.54207H77.0096L75.1232 12.0848H75.0229L72.8553 5.54207H69.3026L73.5778 16.3398L71.7916 19.6312V19.7115H74.5813L79.9802 5.5621Z" fill="black"/>
<path d="M52.7244 14.4531C52.3634 14.4531 52.0219 14.4131 51.6408 14.2925V8.47232C52.3031 8.01074 52.845 7.78986 53.5272 7.78986C54.7115 7.78986 55.6547 8.73325 55.6547 10.7402C55.6547 13.3091 54.27 14.4531 52.7244 14.4531ZM54.7316 5.32132C53.5675 5.32132 52.6643 5.76288 51.6408 6.60576V5.54201H48.4694V19.7114H51.6408V16.1991C52.2428 16.3597 52.8047 16.44 53.4872 16.44C56.317 16.44 58.866 14.3528 58.866 10.6399C58.866 7.30825 57.0193 5.32132 54.7316 5.32132Z" fill="black"/>
<path d="M65.5096 13.6904C64.6667 14.152 64.1847 14.3327 63.6232 14.3327C62.8604 14.3327 62.3788 13.831 62.3788 13.0282C62.3788 12.727 62.4389 12.426 62.6796 12.1853C63.0611 11.8038 63.8038 11.5229 65.5096 11.1216V13.6904ZM68.6806 13.6101V9.11462C68.6806 6.66592 67.2358 5.3214 64.687 5.3214C63.0611 5.3214 61.9373 5.60217 59.8901 6.22436L60.4518 8.69309C62.3184 7.85003 63.1414 7.48877 64.0045 7.48877C65.0482 7.48877 65.5096 8.23131 65.5096 9.37536V9.45566C61.8768 10.1381 60.753 10.5194 60.0505 11.2219C59.5288 11.7438 59.3081 12.4863 59.3081 13.3492C59.3081 15.4164 60.9138 16.5204 62.4191 16.5204C63.5429 16.5204 64.4459 16.0989 65.6704 15.1755L65.8911 16.2995H69.0621L68.6806 13.6101Z" fill="black"/>
</g>
<defs>
<clipPath id="clip0_1801_18412">
<rect width="80" height="20.1723" rx="8" fill="white"/>
</clipPath>
</defs>
</svg>
