<svg width="80" height="52" viewBox="0 0 80 52" fill="none" xmlns="http://www.w3.org/2000/svg">
<g clip-path="url(#clip0_1801_18451)">
<g clip-path="url(#clip1_1801_18451)">
<path d="M72.8357 0H7.16437C6.89086 0 6.61686 0 6.34384 0.00159496C6.11305 0.00323826 5.88279 0.00579987 5.65254 0.0120831C5.15037 0.0256644 4.64389 0.055292 4.148 0.144417C3.64419 0.235088 3.17537 0.382984 2.718 0.615849C2.26836 0.844509 1.85672 1.14359 1.49998 1.50047C1.14309 1.85736 0.844014 2.26833 0.615403 2.71845C0.38249 3.17581 0.234496 3.64478 0.144453 4.14898C0.0548503 4.64502 0.0250245 5.15139 0.0114915 5.65303C0.00530495 5.88329 0.00265151 6.11354 0.00114837 6.34375C-0.00044659 6.61736 8.50647e-05 6.89077 8.50647e-05 7.16486V44.0509C8.50647e-05 44.325 -0.00044659 44.598 0.00114837 44.8721C0.00265151 45.1023 0.00530495 45.3326 0.0114915 45.5628C0.0250245 46.064 0.0548503 46.5704 0.144453 47.0663C0.234496 47.5707 0.38249 48.0395 0.615403 48.4969C0.844014 48.947 1.14309 49.3585 1.49998 49.7149C1.85672 50.0723 2.26836 50.3713 2.718 50.5994C3.17537 50.8329 3.64419 50.9809 4.148 51.0715C4.64389 51.16 5.15037 51.1902 5.65254 51.2038C5.88279 51.209 6.11305 51.2121 6.34384 51.2131C6.61686 51.2153 6.89086 51.2153 7.16437 51.2153H72.8357C73.1088 51.2153 73.3828 51.2153 73.6557 51.2131C73.886 51.2121 74.1162 51.209 74.3476 51.2038C74.8487 51.1902 75.355 51.16 75.8521 51.0715C76.3553 50.9809 76.8242 50.8329 77.2816 50.5994C77.7317 50.3713 78.1422 50.0723 78.4996 49.7149C78.8559 49.3585 79.155 48.947 79.3842 48.4969C79.6177 48.0395 79.7655 47.5707 79.8551 47.0663C79.9448 46.5704 79.9739 46.064 79.9874 45.5628C79.9937 45.3326 79.9968 45.1023 79.9979 44.8721C80 44.598 80 44.325 80 44.0509V7.16486C80 6.89077 80 6.61736 79.9979 6.34375C79.9968 6.11354 79.9937 5.88329 79.9874 5.65303C79.9739 5.15139 79.9448 4.64502 79.8551 4.14898C79.7655 3.64478 79.6177 3.17581 79.3842 2.71845C79.155 2.26833 78.8559 1.85736 78.4996 1.50047C78.1422 1.14359 77.7317 0.844509 77.2816 0.615849C76.8242 0.382984 76.3553 0.235088 75.8521 0.144417C75.355 0.055292 74.8487 0.0256644 74.3476 0.0120831C74.1162 0.00579987 73.886 0.00323826 73.6557 0.00159496C73.3828 0 73.1088 0 72.8357 0Z" fill="black"/>
<path d="M72.8356 1.70715L73.6435 1.7087C73.8623 1.71025 74.0812 1.71261 74.3013 1.71861C74.6841 1.72895 75.1318 1.74969 75.5492 1.8245C75.9121 1.88985 76.2164 1.98922 76.5084 2.13789C76.7967 2.28439 77.0608 2.47636 77.2915 2.70666C77.523 2.93851 77.7152 3.20308 77.8636 3.49458C78.0115 3.78433 78.1102 4.08718 78.1752 4.45266C78.2498 4.86552 78.2704 5.31452 78.2809 5.69968C78.2868 5.91708 78.2897 6.13448 78.2908 6.35705C78.2929 6.62621 78.2928 6.89523 78.2928 7.16492V44.051C78.2928 44.3207 78.2929 44.5892 78.2907 44.8642C78.2897 45.0815 78.2868 45.2989 78.2809 45.5167C78.2704 45.9013 78.2498 46.35 78.1743 46.7678C78.1102 47.1282 78.0115 47.4311 77.8629 47.7223C77.7149 48.0131 77.5229 48.2774 77.2924 48.5078C77.0605 48.7398 76.7972 48.9312 76.5055 49.079C76.2156 49.227 75.9119 49.3262 75.5526 49.3909C75.1268 49.4668 74.6602 49.4877 74.3088 49.4972C74.0878 49.5022 73.8678 49.5052 73.6424 49.5062C73.3738 49.5083 73.1043 49.5082 72.8356 49.5082H7.16427C7.16069 49.5082 7.15721 49.5082 7.15359 49.5082C6.88805 49.5082 6.62198 49.5083 6.35161 49.5062C6.13117 49.5052 5.91121 49.5022 5.69855 49.4974C5.33915 49.4877 4.87231 49.4668 4.44993 49.3914C4.08759 49.3262 3.78382 49.227 3.49015 49.0771C3.20118 48.9305 2.9381 48.7393 2.70606 48.5069C2.4758 48.277 2.28446 48.0136 2.13651 47.7224C1.98842 47.4315 1.88934 47.1276 1.82419 46.7629C1.74889 46.346 1.7282 45.899 1.71786 45.517C1.71196 45.2983 1.7095 45.0797 1.70809 44.8623L1.70703 44.2205L1.70708 44.051V7.16492L1.70703 6.99547L1.70805 6.35502C1.7095 6.13632 1.71196 5.91766 1.71786 5.69915C1.7282 5.3168 1.74889 4.86963 1.82482 4.44923C1.88939 4.08776 1.98842 3.78394 2.13728 3.49158C2.28407 3.2026 2.47576 2.9388 2.70722 2.70739C2.93777 2.47675 3.20171 2.28501 3.49252 2.13712C3.78305 1.98917 4.08739 1.88985 4.44974 1.82465C4.86723 1.74964 5.31532 1.72895 5.69908 1.71856C5.91783 1.71261 6.13658 1.71025 6.35369 1.70875L7.16427 1.70715H72.8356" fill="white"/>
<path d="M21.8398 17.2258C22.5248 16.369 22.9896 15.2186 22.867 14.0431C21.8643 14.093 20.6407 14.7046 19.9323 15.5621C19.2962 16.2963 18.7332 17.4949 18.88 18.6211C20.0056 18.7188 21.1301 18.0585 21.8398 17.2258Z" fill="black"/>
<path d="M22.8541 18.841C21.2195 18.7436 19.8296 19.7687 19.049 19.7687C18.2679 19.7687 17.0726 18.8901 15.7796 18.9137C14.0968 18.9385 12.5354 19.8899 11.6814 21.4032C9.92495 24.4306 11.2179 28.9212 12.9259 31.3868C13.7554 32.6066 14.755 33.9497 16.0722 33.9014C17.3168 33.8526 17.8046 33.0956 19.3173 33.0956C20.829 33.0956 21.2684 33.9014 22.5858 33.877C23.952 33.8526 24.8061 32.6566 25.6356 31.4356C26.5871 30.0451 26.9766 28.7024 27.0011 28.6287C26.9766 28.6043 24.3668 27.6031 24.3426 24.6009C24.3179 22.0872 26.3916 20.8915 26.4892 20.8173C25.3182 19.0854 23.4885 18.8901 22.8541 18.841Z" fill="black"/>
<path d="M37.0876 15.4391C40.6405 15.4391 43.1145 17.8881 43.1145 21.4537C43.1145 25.0321 40.5896 27.4938 36.9985 27.4938H33.0648V33.7495H30.2227V15.4391H37.0876V15.4391ZM33.0648 25.1082H36.3259C38.8004 25.1082 40.2087 23.776 40.2087 21.4665C40.2087 19.1572 38.8004 17.8375 36.3386 17.8375H33.0648V25.1082V25.1082Z" fill="black"/>
<path d="M43.8569 29.9556C43.8569 27.6206 45.6461 26.1868 48.8186 26.0091L52.4729 25.7935V24.7657C52.4729 23.281 51.4703 22.3928 49.7957 22.3928C48.2092 22.3928 47.2194 23.154 46.9786 24.347H44.39C44.5423 21.9359 46.5977 20.1594 49.897 20.1594C53.1327 20.1594 55.2009 21.8725 55.2009 24.5499V33.7495H52.5742V31.5543H52.511C51.7371 33.039 50.0493 33.9779 48.2983 33.9779C45.6843 33.9779 43.8569 32.3537 43.8569 29.9556ZM52.4729 28.7501V27.6969L49.1863 27.8998C47.5493 28.0141 46.6232 28.7374 46.6232 29.8794C46.6232 31.0467 47.5875 31.8081 49.0595 31.8081C50.9754 31.8081 52.4729 30.4884 52.4729 28.7501Z" fill="black"/>
<path d="M57.6811 38.6603V36.4396C57.8837 36.4903 58.3404 36.4903 58.569 36.4903C59.8379 36.4903 60.5232 35.9575 60.9417 34.5871C60.9417 34.5616 61.183 33.775 61.183 33.7623L56.3613 20.4005H59.3302L62.7059 31.2626H62.7563L66.132 20.4005H69.025L64.0251 34.4473C62.8836 37.6832 61.5639 38.7237 58.7976 38.7237C58.569 38.7237 57.8837 38.6982 57.6811 38.6603Z" fill="black"/>
</g>
</g>
<defs>
<clipPath id="clip0_1801_18451">
<rect width="80" height="51.2153" rx="8" fill="white"/>
</clipPath>
<clipPath id="clip1_1801_18451">
<rect width="80" height="51.2153" fill="white"/>
</clipPath>
</defs>
</svg>
