<svg width="80" height="31" viewBox="0 0 80 31" fill="none" xmlns="http://www.w3.org/2000/svg">
<g clip-path="url(#clip0_1801_17849)">
<path fill-rule="evenodd" clip-rule="evenodd" d="M37.8345 24.0597V15.0374V15.0356H42.7153C44.7275 15.0368 46.4187 14.4045 47.7887 13.1387C49.1733 11.9374 49.9474 10.2101 49.908 8.40976C49.9354 6.6194 49.1627 4.90495 47.7887 3.7075C46.4307 2.43478 44.6042 1.74037 42.7153 1.7786H34.8804V24.0597H37.8345ZM37.8345 12.2996V4.52173V4.51995H42.7887C43.8929 4.48988 44.9573 4.92039 45.7116 5.70218C46.4706 6.41715 46.8989 7.3992 46.8989 8.42487C46.8989 9.45054 46.4706 10.4326 45.7116 11.1476C44.948 11.9129 43.8869 12.3311 42.7887 12.2996H37.8345Z" fill="#5F6368"/>
<path fill-rule="evenodd" clip-rule="evenodd" d="M61.8859 10.0134C60.6223 8.88272 58.8987 8.31738 56.7152 8.31738C53.9103 8.31738 51.7922 9.31295 50.361 11.3041L52.9629 12.8916C53.9243 11.5429 55.2302 10.8685 56.8803 10.8685C57.9324 10.8566 58.9505 11.2292 59.7317 11.9121C60.5106 12.536 60.9587 13.4662 60.9519 14.4454V15.0997C59.8167 14.4774 58.3721 14.1663 56.6179 14.1663C54.5629 14.1687 52.9201 14.6357 51.6895 15.5672C50.4589 16.4988 49.8436 17.7533 49.8436 19.3308C49.8168 20.7672 50.4599 22.1388 51.5941 23.0642C52.761 24.0597 54.2112 24.5575 55.9445 24.5575C57.9751 24.5575 59.6021 23.6864 60.8253 21.9442H60.9538V24.0597H63.7795V14.6641C63.7807 12.6943 63.1495 11.1441 61.8859 10.0134ZM53.873 21.2597C53.2541 20.8275 52.8891 20.1321 52.8931 19.393C52.8931 18.5628 53.295 17.8712 54.1041 17.3023C54.9054 16.7417 55.906 16.4614 57.106 16.4614C58.7537 16.4614 60.0381 16.817 60.9592 17.5281C60.9592 18.7299 60.4699 19.777 59.4913 20.6695C58.6099 21.5236 57.415 22.0044 56.1684 22.0064C55.3373 22.0214 54.5263 21.7577 53.873 21.2597Z" fill="#5F6368"/>
<path fill-rule="evenodd" clip-rule="evenodd" d="M79.9998 8.81519L70.1355 30.7798H67.086L70.7465 23.0944L64.2603 8.81519H67.4713L72.1594 19.7664H72.2236L76.7833 8.81519L79.9998 8.81519Z" fill="#5F6368"/>
<path fill-rule="evenodd" clip-rule="evenodd" d="M25.8968 13.0926C25.8979 12.2203 25.8218 11.3495 25.6693 10.4899H13.2104V15.4197H20.3463C20.0512 17.0107 19.0981 18.4159 17.7077 19.3095V22.5095H21.9665C24.4601 20.2819 25.8968 16.9877 25.8968 13.0926Z" fill="#4285F4"/>
<path fill-rule="evenodd" clip-rule="evenodd" d="M13.2105 25.601C16.7757 25.601 19.7775 24.4668 21.9665 22.5112L17.7078 19.3112C16.5224 20.0899 14.9958 20.5343 13.2105 20.5343C9.7646 20.5343 6.83981 18.2836 5.79393 15.2507H1.40674V18.5485C3.64924 22.872 8.21637 25.6008 13.2105 25.601Z" fill="#34A853"/>
<path fill-rule="evenodd" clip-rule="evenodd" d="M5.79394 15.2507C5.24102 13.6615 5.24102 11.9404 5.79394 10.3511V7.05334H1.40675C-0.468916 10.6696 -0.468916 14.9323 1.40675 18.5485L5.79394 15.2507Z" fill="#FBBC04"/>
<path fill-rule="evenodd" clip-rule="evenodd" d="M13.2105 5.06754C15.0945 5.03772 16.915 5.72742 18.2784 6.98756V6.98756L22.0491 3.3342C19.6581 1.15832 16.4906 -0.0362788 13.2105 0.000839806C8.21637 0.00106034 3.64924 2.72983 1.40674 7.05334L5.79393 10.3511C6.83981 7.31823 9.7646 5.06754 13.2105 5.06754Z" fill="#EA4335"/>
</g>
<defs>
<clipPath id="clip0_1801_17849">
<rect width="80" height="30.7797" rx="8" fill="white"/>
</clipPath>
</defs>
</svg>
