<svg width="80" height="70" viewBox="0 0 80 70" fill="none" xmlns="http://www.w3.org/2000/svg">
<g clip-path="url(#clip0_1801_18386)">
<path fill-rule="evenodd" clip-rule="evenodd" d="M79.9986 20.6628C79.9607 20.9619 79.9229 21.2611 79.885 21.5603C79.6123 23.6963 78.7072 25.533 77.2188 27.0782C75.7077 28.6537 73.871 29.6383 71.7123 29.9981C68.2508 30.5775 64.2478 29.1574 62.2179 25.9837C61.9035 25.4914 61.699 24.9309 61.4453 24.4007C61.3809 24.2643 61.4036 24.1507 61.5097 24.0258C61.8846 23.5902 62.2406 23.1433 62.6042 22.7002C62.642 22.6548 62.661 22.598 62.7178 22.4957C62.8541 22.8707 62.9374 23.1623 63.0586 23.435C64.2099 26.0254 66.183 27.5933 68.9704 28.0667C73.0075 28.7559 76.8666 26.0367 77.7869 22.1814C77.9308 21.5792 77.9952 20.9506 78.0217 20.3333C78.052 19.5304 78.0331 18.7199 77.9838 17.9133C77.8929 16.3795 77.3324 15.0123 76.4008 13.8042C75.0374 12.0394 73.2499 10.9638 71.0306 10.7063C68.8265 10.4526 66.8685 11.1191 65.1643 12.5204C63.3881 13.9822 61.8505 15.6788 60.3735 17.4361C59.6881 18.2541 59.0291 19.0949 58.3588 19.9243C58.3171 19.9735 58.2717 20.0189 58.1997 20.0985C58.1921 19.9962 58.1883 19.9394 58.1883 19.8826C58.1883 19.0684 58.1846 18.2503 58.1921 17.4361C58.1921 17.3225 58.2262 17.1899 58.2944 17.1028C59.4722 15.5766 60.6954 14.0882 62.0664 12.7324C63.0814 11.7288 64.1834 10.8275 65.3877 10.0625C66.4936 9.35808 67.7168 8.96042 69.012 8.79C74.155 8.11589 78.6352 11.7516 79.6918 16.2128C79.8168 16.7317 79.8585 17.2695 79.938 17.7997C79.9569 17.9171 79.9797 18.0345 80.0024 18.1519V20.6514L79.9986 20.6628Z" fill="#00B041"/>
<path fill-rule="evenodd" clip-rule="evenodd" d="M53.9694 62.4427C54.1171 62.5601 54.2232 62.6397 54.3292 62.7268C55.8782 63.9841 57.6392 64.7832 59.6199 65.0369C60.9378 65.2073 62.252 65.1808 63.5093 64.6582C64.9068 64.075 65.6074 62.9691 65.7362 61.4997C65.8043 60.7233 65.7778 59.9394 65.7892 59.1593C65.7892 59.0949 65.774 59.0305 65.7665 58.9396C65.7134 58.9661 65.6794 58.9737 65.6604 58.9964C64.778 60 63.6267 60.5226 62.3542 60.7726C60.2826 61.1854 58.2755 60.9619 56.397 59.9659C54.3898 58.9017 53.231 57.1672 52.6742 55.0009C52.4546 54.1488 52.3599 53.2816 52.3599 52.403C52.3599 48.5476 52.3599 44.6961 52.3599 40.8408C52.3599 40.616 52.4748 40.5037 52.7045 40.5037C54.0338 40.5037 55.3593 40.5113 56.6886 40.4961C56.9575 40.4961 57.0181 40.5756 57.0181 40.8332C57.0105 44.7491 56.9916 48.665 57.0257 52.5772C57.0408 54.3761 58.1088 56.1977 60.3773 56.5916C61.6877 56.8188 62.9375 56.6105 64.0168 55.766C64.831 55.1259 65.24 54.2511 65.3726 53.2437C65.4256 52.8498 65.4294 52.4484 65.4294 52.0508C65.4294 48.3166 65.4294 44.5863 65.4294 40.8521C65.4294 40.6173 65.5481 40.4999 65.7854 40.4999C67.0806 40.4999 68.372 40.4999 69.6672 40.4999C69.8642 40.4999 69.9361 40.5529 69.9361 40.765C69.9286 47.6766 69.9513 54.5844 69.9172 61.4959C69.9096 63.3857 69.3491 65.1354 68.0577 66.5859C66.9784 67.7978 65.5998 68.5135 64.0509 68.9226C63.1344 69.1649 62.199 69.271 61.2522 69.3164C58.6239 69.4376 56.2758 68.7067 54.2156 67.0593C54.03 66.9116 53.9467 66.7525 53.9505 66.5101C53.9619 65.2339 53.9543 63.9576 53.9581 62.6813C53.9581 62.6207 53.9657 62.5601 53.9732 62.4389L53.9694 62.4427Z" fill="#00B041"/>
<path fill-rule="evenodd" clip-rule="evenodd" d="M14.7193 61.0604H14.4088C13.1325 61.0604 11.8562 61.0528 10.5799 61.068C10.3073 61.068 10.2505 60.9847 10.2505 60.7309C10.258 55.2888 10.2542 49.8466 10.2542 44.4007C10.2542 41.78 10.2542 39.1593 10.2542 36.5348C10.2542 36.1939 10.2542 36.1901 10.5951 36.1901C13.7649 36.1901 16.9348 36.1371 20.1009 36.2128C22.3883 36.2659 24.4864 36.9627 26.1452 38.648C27.1866 39.7046 27.8002 40.996 28.0766 42.4389C28.4288 44.2719 28.391 46.1011 27.7737 47.8773C26.842 50.5472 24.9106 52.1227 22.2179 52.8271C21.309 53.0657 20.3811 53.1604 19.4381 53.1604C17.9801 53.1604 16.522 53.1604 15.0639 53.1604C14.7231 53.1604 14.7231 53.1604 14.7231 53.505C14.7231 55.9099 14.7231 58.3147 14.7231 60.7196V61.0566L14.7193 61.0604ZM17.2643 49.0059C17.8816 49.0059 18.4951 49.0248 19.1124 48.9983C19.6388 48.9756 20.1728 48.9491 20.6841 48.843C22.0891 48.5476 23.1117 47.7637 23.5813 46.3738C23.96 45.2604 23.9638 44.1242 23.6343 42.9994C23.3162 41.9087 22.608 41.1589 21.5476 40.7347C20.8848 40.4696 20.1918 40.3674 19.4911 40.356C17.9838 40.3371 16.4728 40.3522 14.9617 40.3484C14.7685 40.3484 14.7117 40.4204 14.7117 40.6097C14.7155 43.3176 14.7193 46.0216 14.7117 48.7294C14.7117 48.9491 14.7837 49.0097 14.9958 49.0097C15.7494 48.9983 16.5068 49.0097 17.2605 49.0097L17.2643 49.0059Z" fill="#00B041"/>
<path fill-rule="evenodd" clip-rule="evenodd" d="M45.0696 58.9472C44.0471 60.0151 42.8163 60.6059 41.4188 60.8824C40.3811 61.0907 39.3359 61.0756 38.2906 60.9657C37.0181 60.8332 35.81 60.4961 34.6852 59.8788C32.6023 58.7313 31.3298 56.9513 30.6898 54.6866C30.4095 53.6906 30.2808 52.6681 30.277 51.6342C30.277 50.6381 30.2505 49.6345 30.3338 48.6423C30.6595 44.7908 32.8371 41.5868 37.0825 40.5794C39.3018 40.053 41.5286 40.0985 43.6911 40.8483C46.6072 41.8633 48.3872 43.9387 49.1408 46.9154C49.3605 47.7902 49.4627 48.684 49.4627 49.5891C49.4627 53.2096 49.4627 56.8264 49.4627 60.4469C49.4627 60.6918 49.3403 60.8142 49.0954 60.8142C47.8532 60.8142 46.6148 60.8105 45.3726 60.818C45.1454 60.818 45.0507 60.7688 45.062 60.5151C45.081 59.9886 45.0696 59.4622 45.0696 58.9358V58.9472ZM45.1151 50.7252C45.062 49.9905 45.0772 49.2483 44.9484 48.5287C44.6303 46.779 43.6456 45.5293 41.9604 44.8968C40.9037 44.4992 39.813 44.4689 38.711 44.6658C36.6621 45.0294 35.0829 46.6313 34.7761 48.684C34.6057 49.8315 34.6095 50.9866 34.7307 52.1341C34.9314 54.0466 35.9047 55.4592 37.6581 56.281C38.7488 56.7961 39.9039 56.8415 41.0893 56.6824C42.9564 56.4287 44.3538 55.232 44.8613 53.4179C45.1075 52.5355 45.081 51.6342 45.1226 50.729L45.1151 50.7252Z" fill="#00B041"/>
<path fill-rule="evenodd" clip-rule="evenodd" d="M20.3849 18.0951H12.216C12.2084 17.9814 12.2008 17.8906 12.2008 17.7997C12.2008 17.3641 12.2008 16.9324 12.2008 16.4969C12.2008 16.2595 12.3246 16.1409 12.572 16.1409H19.1882C20.1425 16.1409 21.0969 16.1485 22.0513 16.1371C22.2785 16.1371 22.3504 16.2015 22.3466 16.4287C22.3391 19.822 22.3466 23.2153 22.3353 26.6124C22.3353 26.7525 22.2709 26.9229 22.18 27.029C21.1916 28.1878 19.938 28.9869 18.5633 29.6005C17.2643 30.1799 15.9009 30.5094 14.4845 30.6646C12.0797 30.926 9.7354 30.7063 7.51991 29.6838C3.64565 27.8849 1.21429 24.8779 0.331881 20.6968C-0.18696 18.2352 -0.137727 15.7622 0.767405 13.3763C1.95657 10.2367 4.11147 7.94168 7.05031 6.36243C8.60683 5.52547 10.2732 5.02556 12.0342 4.82863C13.3256 4.68472 14.6133 4.73774 15.9009 4.83621C17.1658 4.93467 18.4042 5.16948 19.5972 5.61257C19.8395 5.70347 19.9494 5.81329 19.9342 6.09354C19.9077 6.68813 19.9267 7.2865 19.9267 7.91896C19.6843 7.79777 19.4836 7.68794 19.2753 7.58947C18.1921 7.06684 17.0446 6.78281 15.8555 6.68813C14.992 6.61996 14.1285 6.57451 13.2612 6.58587C10.6784 6.61996 8.36824 7.4645 6.32317 9.02859C4.38414 10.5094 3.03213 12.4105 2.35423 14.7699C2.00959 15.9629 1.949 17.1861 1.99823 18.4245C2.06261 20 2.39588 21.4997 3.10408 22.9048C4.65682 25.9761 7.12226 27.8811 10.4928 28.6006C11.8562 28.8923 13.231 28.862 14.6057 28.7029C16.2266 28.5173 17.768 28.0856 19.1541 27.2032C19.5328 26.9608 19.885 26.673 20.2221 26.3776C20.3243 26.2905 20.4 26.1125 20.4 25.9761C20.4114 23.4425 20.4076 20.9051 20.4076 18.3715C20.4076 18.2882 20.3925 18.2011 20.3811 18.0988L20.3849 18.0951Z" fill="#00B041"/>
<path fill-rule="evenodd" clip-rule="evenodd" d="M49.9816 27.5781C49.9816 28.2068 49.9891 28.8051 49.974 29.4035C49.974 29.4717 49.8566 29.5777 49.7771 29.6005C49.1711 29.7671 48.5652 29.9943 47.9479 30.0587C45.4029 30.3314 43.1003 29.6573 41.0742 28.1007C38.942 26.4609 37.6278 24.306 37.2832 21.6361C37.1355 20.4999 37.1847 19.3335 37.2037 18.1822C37.2491 15.872 38.0937 13.8572 39.601 12.1227C41.1045 10.3958 42.9791 9.27097 45.24 8.88089C48.3001 8.35069 51.0382 9.11191 53.39 11.1456C55.2078 12.7173 56.2986 14.7207 56.6886 17.0915C56.7606 17.5421 56.7985 18.0042 56.7985 18.4624C56.806 22.2306 56.8022 25.9989 56.8022 29.7633V30.1117H54.8519V29.7406C54.8519 25.9724 54.8784 22.2041 54.8443 18.4397C54.8102 14.4783 51.9509 11.4524 48.4402 10.7934C44.1948 10.0019 40.1122 12.9029 39.2677 17.0536C39.1844 17.4664 39.1314 17.8943 39.1276 18.3147C39.1124 19.4244 39.0253 20.5378 39.2488 21.6361C39.832 24.5294 41.5211 26.5329 44.2327 27.6501C46.0353 28.3924 47.8645 28.3355 49.69 27.6766C49.7771 27.6463 49.8642 27.616 49.9816 27.5781Z" fill="#00B041"/>
<path fill-rule="evenodd" clip-rule="evenodd" d="M18.8852 19.6099V19.8864C18.8852 21.6929 18.8852 23.4956 18.889 25.302C18.889 25.499 18.8284 25.6239 18.6769 25.7413C17.8324 26.4041 16.8515 26.7601 15.8214 26.9911C14.6587 27.2524 13.4695 27.3812 12.2842 27.3016C8.79619 27.0706 6.21334 25.3816 4.54699 22.3215C3.81607 20.9809 3.52067 19.5266 3.49416 18.0004C3.46765 16.5234 3.65701 15.0956 4.30461 13.755C5.49378 11.2971 7.41766 9.65347 9.95506 8.7029C11.4813 8.13104 13.0681 8.00227 14.6852 8.10453C16.06 8.19163 17.4044 8.39992 18.6883 8.90362C19.0518 9.04374 19.404 9.21417 19.7524 9.38459C19.8282 9.42246 19.9115 9.53229 19.9115 9.60803C19.9229 10.3011 19.9191 10.9941 19.9191 11.744C19.813 11.672 19.7373 11.6266 19.6653 11.5736C18.5936 10.7631 17.3703 10.3276 16.0486 10.1837C15.1624 10.089 14.2648 9.99811 13.3787 10.036C10.2542 10.1685 7.81152 11.5205 6.23606 14.2738C5.69071 15.2282 5.4597 16.281 5.43697 17.3869C5.41046 18.6669 5.53923 19.9167 6.09215 21.0869C7.19043 23.4122 8.99691 24.8589 11.5532 25.2604C13.3559 25.5444 15.1245 25.2907 16.8401 24.6696C17.0143 24.6052 17.0787 24.5067 17.0787 24.3249C17.0711 23.5107 17.0673 22.6927 17.0787 21.8784C17.0825 21.6247 17.0105 21.5338 16.7416 21.5338C15.3253 21.5452 13.9126 21.5338 12.4962 21.5452C12.2614 21.5452 12.1819 21.4884 12.1895 21.2422C12.2084 20.7044 12.1971 20.1704 12.1971 19.6099H18.8852Z" fill="#00B041"/>
<path fill-rule="evenodd" clip-rule="evenodd" d="M65.4635 19.1895C65.5771 19.7008 65.6491 20.1326 65.7665 20.5529C66.0959 21.708 66.6678 22.7192 67.5313 23.5713C69.3491 25.3626 71.8941 24.8627 73.3105 23.416C74.0944 22.6169 74.5262 21.6512 74.5451 20.5264C74.5602 19.6781 74.6019 18.8222 74.5262 17.9814C74.3595 16.1674 72.9886 14.6525 71.2086 14.2473C69.6407 13.8913 68.2773 14.3268 67.0995 15.3835C65.5354 16.7923 64.1759 18.398 62.8238 20.0038C61.2862 21.8292 59.7979 23.6925 58.2906 25.5406C58.2755 25.5596 58.2641 25.5861 58.1997 25.5974C58.1959 25.5293 58.1846 25.4611 58.1846 25.3891C58.1846 24.5484 58.177 23.7038 58.1921 22.8631C58.1921 22.7192 58.2489 22.5525 58.3323 22.4389C59.7259 20.5832 61.237 18.8298 62.8087 17.1255C63.6646 16.1939 64.5243 15.2623 65.4332 14.3761C66.4595 13.3763 67.6487 12.6075 69.0689 12.3007C70.7617 11.9371 72.3258 12.3234 73.7309 13.3119C75.1776 14.3268 76.0903 15.7091 76.4197 17.455C76.4765 17.758 76.4993 18.0761 76.4993 18.3867C76.4917 19.3221 76.5334 20.2651 76.4349 21.193C76.166 23.6433 74.3217 25.7375 71.9054 26.4268C69.262 27.1805 66.5693 26.1163 65.0128 23.7114C64.5394 22.9767 64.1948 22.1852 63.9941 21.3369C63.9676 21.2157 64.0054 21.0415 64.0812 20.943C64.4902 20.4166 64.9219 19.9053 65.3423 19.3865C65.3802 19.341 65.4029 19.2842 65.4597 19.1933L65.4635 19.1895Z" fill="#00B041"/>
<path fill-rule="evenodd" clip-rule="evenodd" d="M49.9816 23.7644C49.9816 24.4348 49.9891 25.0596 49.974 25.6807C49.974 25.7754 49.8642 25.889 49.7771 25.9496C49.2582 26.3018 48.6674 26.4798 48.0577 26.5745C45.3991 26.9835 42.8806 25.7944 41.5135 23.4842C40.9378 22.5109 40.6349 21.4543 40.6424 20.3181C40.6424 19.7614 40.6462 19.2085 40.6424 18.6518C40.6235 16.5461 41.4832 14.8532 43.1041 13.5505C46.7246 10.6419 52.322 12.5279 53.2196 17.2884C53.2991 17.7201 53.3332 18.167 53.337 18.6063C53.3446 22.3291 53.3408 26.0519 53.3408 29.7747C53.3408 30.0069 53.2221 30.1243 52.9848 30.1269C52.5493 30.1269 52.1175 30.1155 51.682 30.1307C51.4586 30.1382 51.4055 30.0549 51.4055 29.8466C51.4131 28.8468 51.4055 27.8508 51.4055 26.851C51.4055 24.1356 51.4055 21.4164 51.4055 18.701C51.4055 17.7353 51.1972 16.8226 50.633 16.0235C49.743 14.7699 48.5273 14.1526 46.9821 14.1223C45.1719 14.0882 43.2556 15.2963 42.7292 17.402C42.6458 17.7429 42.608 18.1026 42.5966 18.4548C42.5739 19.0684 42.589 19.6857 42.589 20.303C42.589 22.526 44.138 24.3552 46.3421 24.6696C47.5464 24.8438 48.6864 24.5863 49.724 23.9349C49.796 23.8894 49.868 23.8402 49.9854 23.7644H49.9816Z" fill="#00B041"/>
<path fill-rule="evenodd" clip-rule="evenodd" d="M39.3737 10.0322C38.8814 10.5662 38.4497 11.0396 38.0255 11.4978C37.5218 11.3085 37.037 11.0585 36.522 10.9411C33.4355 10.2405 30.686 10.8275 28.4629 13.202C27.4707 14.2625 26.9215 15.5614 26.7095 16.9892C26.6072 17.6633 26.5693 18.3526 26.5693 19.0343C26.5542 22.6094 26.5618 26.1844 26.5618 29.7595C26.5618 30.0044 26.4393 30.1269 26.1944 30.1269C25.7513 30.1269 25.3082 30.1193 24.8651 30.1269C24.6795 30.1307 24.6114 30.0625 24.6265 29.8883C24.6303 29.8466 24.6265 29.8012 24.6265 29.7595C24.6265 26.0367 24.6265 22.314 24.6265 18.5912C24.6265 16.4439 25.1529 14.4556 26.3989 12.6908C27.8721 10.6041 29.9058 9.37701 32.3978 8.90741C34.3368 8.54005 36.2455 8.66124 38.0899 9.38838C38.5216 9.5588 38.9231 9.80496 39.3699 10.0322H39.3737Z" fill="#00B041"/>
<path fill-rule="evenodd" clip-rule="evenodd" d="M37.1734 12.7476C36.878 13.3346 36.6015 13.8875 36.3288 14.4291C35.9426 14.3382 35.5601 14.2094 35.17 14.164C33.3143 13.9443 31.5192 14.5276 30.5534 16.3151C30.2012 16.9665 30.0346 17.6747 30.0346 18.4132C30.0346 22.189 30.0346 25.9648 30.0346 29.7406V30.1004H28.1031C28.0993 30.0095 28.088 29.9186 28.088 29.8277C28.088 25.9913 28.0539 22.1549 28.0993 18.3185C28.1334 15.2244 30.2656 12.812 33.1704 12.2893C34.333 12.081 35.4805 12.1492 36.6091 12.5052C36.8022 12.5658 36.984 12.6681 37.1734 12.7514V12.7476Z" fill="#00B041"/>
<path fill-rule="evenodd" clip-rule="evenodd" d="M60.241 0.015149H62.1573C62.1611 0.12119 62.1724 0.212081 62.1724 0.302973C62.1724 3.62053 62.1724 6.93429 62.1724 10.2518C62.1724 10.4223 62.1194 10.5321 61.9982 10.6571C61.4756 11.1873 60.9681 11.7364 60.4569 12.278C60.3925 12.3461 60.3319 12.4143 60.241 12.5204V0.015149Z" fill="#00B041"/>
<path fill-rule="evenodd" clip-rule="evenodd" d="M63.6949 9.60803V9.27855C63.6949 6.30184 63.6949 3.32513 63.6949 0.344632C63.6949 0.114877 63.8148 0 64.0547 0C64.4523 0 64.8538 0 65.2514 0C65.4988 0 65.6238 0.128763 65.6263 0.38629C65.6263 0.958152 65.6263 1.5338 65.6263 2.10566C65.6263 4.07499 65.6263 6.0481 65.6263 8.01742C65.6263 8.22193 65.5657 8.33933 65.3839 8.45294C64.884 8.76728 64.4069 9.1157 63.9221 9.44897C63.8615 9.49063 63.8009 9.53229 63.6911 9.60803H63.6949Z" fill="#00B041"/>
</g>
<defs>
<clipPath id="clip0_1801_18386">
<rect width="80.0024" height="69.3293" rx="8" fill="white"/>
</clipPath>
</defs>
</svg>
