<svg width="80" height="51" viewBox="0 0 80 51" fill="none" xmlns="http://www.w3.org/2000/svg">
<g clip-path="url(#clip0_1801_18487)">
<path d="M79.0469 0.936027H0.905259V49.1157H79.0469V0.936027Z" fill="white"/>
<path d="M76.5703 3.27259H3.26573V47.0217H76.5703V3.27259Z" fill="#0023A0"/>
<path d="M41.679 41.2964L42.3793 44.2274H39.8446L39.3527 41.802C39.1067 40.562 39.0247 40.4663 37.8804 40.4663H37.6071L36.8453 44.2274H34.297L36.2987 34.7172H39.3356C41.3408 34.7923 43.1069 34.7616 43.2504 36.8522C43.3802 38.7173 41.86 39.3151 40.6303 39.626C41.17 39.7353 41.4979 40.6371 41.6722 41.2964H41.679ZM38.871 38.8164C40.924 38.649 40.6747 36.8043 40.6815 37.1152C40.661 36.2578 40.0427 36.227 39.2946 36.21H38.4543L37.9316 38.8164H38.871Z" fill="white"/>
<path d="M7.52211 34.7069H10.0841L8.10966 44.2137H5.54764L7.52211 34.7069Z" fill="white"/>
<path d="M11.8024 34.7069H14.5865L16.5336 41.2998H16.5609L17.6985 34.7069H19.8062L17.7907 44.2137H15.1159L13.1278 37.6344H13.1005L11.9766 44.2137H9.77327L11.8024 34.7069Z" fill="white"/>
<path d="M22.621 36.268L20.2502 36.2988L20.5987 34.7069H27.9124L27.564 36.2988L25.1932 36.268L23.5125 44.2137H20.9369L22.6175 36.268H22.621Z" fill="white"/>
<path d="M28.6605 34.7069H35.069L34.7615 36.2407L30.8707 36.2168L30.3583 38.4884L34.0339 38.4645L33.6889 40.0325L30.044 40.0188L29.4701 42.6799L33.5249 42.6594L33.2072 44.2103H26.6177L28.6605 34.7035V34.7069Z" fill="white"/>
<path d="M45.1155 34.7069H47.6912L46.0515 42.6253H49.7374L49.4026 44.2171H43.141L45.1155 34.7103V34.7069Z" fill="white"/>
<path d="M66.271 34.7069H68.833L67.9995 38.6558H68.0268L71.477 34.7069H74.5651L70.1038 39.1443L73.045 44.2137H70.1174L67.7843 39.8549H67.757L66.8346 44.2137H64.2726L66.2744 34.7069H66.271Z" fill="white"/>
<path d="M52.4053 34.7069H54.9673L52.9929 44.2137H50.4309L52.4053 34.7069Z" fill="white"/>
<path d="M56.6105 34.7069H59.3945L61.3417 41.2998H61.369L62.5065 34.7069H64.6142L62.5988 44.2137H59.924L57.9359 37.6344H57.9085L56.7847 44.2137H54.5813L56.6105 34.7069Z" fill="white"/>
<path d="M31.2874 11.5086L34.1296 11.5428L34.6625 9.88603C35.3457 7.52555 37.5183 5.78337 40.0905 5.78337C42.4442 5.78337 44.463 7.24202 45.3136 9.29847L46.2155 11.7751L48.8219 11.7956C48.8219 11.7956 52.7059 11.577 53.7922 15.7138C53.7922 15.7138 54.8 19.5876 51.2234 21.7294L49.6349 22.8089L50.3113 24.6774C50.3113 24.6774 51.5923 28.2711 48.5042 30.6931C48.5042 30.6931 45.3307 33.5523 41.252 30.3959L39.7968 29.3711L37.5353 30.898C37.5353 30.898 34.6761 32.8793 31.5197 30.8092C28.3633 28.7391 29.0123 25.4016 29.2754 24.7082C29.5384 24.0147 30.0816 22.4024 30.0816 22.4024L27.8714 20.7968C27.8714 20.7968 25.4768 18.877 26.1429 15.6147C26.809 12.3524 29.4906 11.495 31.2806 11.5121L31.2874 11.5086ZM40.9719 10.945C40.8762 10.5419 40.5175 10.2379 40.0905 10.2379C39.6635 10.2379 39.2844 10.5556 39.2024 10.9792L38.953 11.7409H41.1768L40.9719 10.945ZM31.875 17.9479L32.6163 15.8504L31.7896 15.8333C31.3626 15.7753 30.9458 16.0212 30.8023 16.438C30.6657 16.8445 30.8365 17.2783 31.1884 17.5004L31.875 17.9513V17.9479ZM35.8478 20.6943L39.9334 23.5775L44.0975 20.7661L42.4305 16.0827H37.4397L35.8444 20.6909L35.8478 20.6943ZM48.8287 17.7839C49.184 17.5653 49.3514 17.128 49.2148 16.7215C49.0747 16.3048 48.6545 16.0588 48.2275 16.1169L47.4247 16.1271L48.1387 18.2314L48.8253 17.7805L48.8287 17.7839ZM44.487 27.0584C44.7944 27.3385 45.3 27.3727 45.5869 27.1848C45.9559 26.9457 46.072 26.4674 45.9012 26.0712L45.6757 25.3026L43.8413 26.5597L44.487 27.055V27.0584ZM33.7709 25.9311C33.6274 26.3206 33.7367 26.7373 34.0954 26.9696C34.4643 27.2121 34.9699 27.1609 35.2705 26.8535L35.8683 26.3342L34.0066 25.1181L33.7709 25.9311Z" fill="white"/>
<path d="M44.2342 10.4121C43.6569 8.53669 42.0206 7.18395 40.0905 7.18395C38.1605 7.18395 36.6062 8.46837 35.9913 10.272L33.0808 18.7916L34.5839 19.8301L37.8564 10.4838C38.1844 9.56492 39.076 8.90904 40.1281 8.90904C41.2554 8.90904 42.2051 9.67082 42.4647 10.699L42.796 11.7478H44.6202L44.2376 10.4121H44.2342Z" fill="#FFA000"/>
<path d="M49.2079 21.3468L50.9706 20.1819C50.9706 20.1819 53.1193 18.5593 52.3473 15.8231C51.5752 13.0868 48.8219 13.1073 48.4735 13.1005L38.485 13.0561L37.9487 14.7402L48.2309 14.7846C48.5452 14.7914 50.0722 14.6651 50.5982 16.2091C51.1243 17.7531 49.9594 18.7165 49.9594 18.7165L48.6545 19.6627L49.2148 21.3468H49.2079Z" fill="#FFA000"/>
<path d="M47.1651 25.3709L44.0634 16.1237H45.8773L49.0952 25.6886C49.0952 25.6886 49.7511 28.0456 47.4384 29.7297C47.4384 29.7297 45.1053 31.3592 42.6526 29.6409L41.0743 28.5205L42.6526 27.4308L43.9506 28.3872C43.9506 28.3872 45.2829 29.2276 46.581 28.1413C47.8791 27.055 47.1685 25.3709 47.1685 25.3709H47.1651Z" fill="#FFA000"/>
<path d="M44.5963 22.2589L45.1736 23.9259L36.432 29.8527C36.432 29.8527 34.1364 31.2362 31.9262 29.3437C29.7161 27.4513 30.7511 24.838 30.7511 24.838L31.3216 23.3008L32.7871 24.3119L32.3942 25.5383C32.3942 25.5383 31.834 26.9593 33.1321 28.0456C33.1321 28.0456 34.3755 29.1764 36.0938 28.0012C37.812 26.8261 44.5997 22.2589 44.5997 22.2589H44.5963Z" fill="#FFA000"/>
<path d="M38.6421 24.5203L29.9176 18.3031C29.9176 18.3031 28.985 17.2851 29.3198 16.1476C29.6546 15.0169 30.4778 14.4293 31.9501 14.4977L33.074 14.525L33.6684 12.8238L31.0995 12.8067C31.0995 12.8067 28.5136 12.8785 27.6733 15.4371C27.6733 15.4371 26.85 17.9786 28.7357 19.6012C30.4198 21.053 37.1083 25.5724 37.1083 25.5724L38.6421 24.5203Z" fill="#FFA000"/>
<path d="M50.7554 31.5129H50.5368V30.4915H50.9193C51.1824 30.4915 51.3361 30.5667 51.3361 30.799C51.3361 30.9869 51.2268 31.0552 51.0902 31.0654L51.3498 31.5129H51.0902L50.8544 31.0859H50.752V31.5129H50.7554ZM50.9501 30.9117C51.0492 30.9117 51.1038 30.8912 51.1038 30.7785C51.1038 30.6726 50.9911 30.6657 50.9091 30.6657H50.7554V30.9117H50.9501ZM50.9159 31.9502C50.4138 31.9502 49.9629 31.6017 49.9629 31.0039C49.9629 30.4061 50.4104 30.0577 50.9159 30.0577C51.4215 30.0577 51.8656 30.4061 51.8656 31.0039C51.8656 31.6017 51.4181 31.9502 50.9159 31.9502ZM50.9159 30.2763C50.5402 30.2763 50.2361 30.5667 50.2361 31.0039C50.2361 31.4412 50.5402 31.7315 50.9159 31.7315C51.2815 31.7315 51.5923 31.4412 51.5923 31.0039C51.5923 30.5667 51.2815 30.2763 50.9159 30.2763Z" fill="white"/>
<path d="M74.244 43.8789H74.0254V42.8576H74.408C74.671 42.8576 74.8247 42.9327 74.8247 43.165C74.8247 43.3529 74.7154 43.4212 74.5788 43.4314L74.8384 43.8789H74.5788L74.3431 43.4519H74.2406V43.8789H74.244ZM74.4353 43.2777C74.5344 43.2777 74.589 43.2572 74.589 43.1445C74.589 43.0386 74.4763 43.0318 74.3943 43.0318H74.2406V43.2777H74.4353ZM74.4011 44.3162C73.899 44.3162 73.4481 43.9678 73.4481 43.37C73.4481 42.7722 73.8956 42.4237 74.4011 42.4237C74.9067 42.4237 75.3508 42.7722 75.3508 43.37C75.3508 43.9678 74.9033 44.3162 74.4011 44.3162ZM74.4011 42.6423C74.0254 42.6423 73.7213 42.9327 73.7213 43.37C73.7213 43.8072 74.0254 44.101 74.4011 44.0976C74.7666 44.0976 75.0775 43.8072 75.0775 43.37C75.0775 42.9327 74.7666 42.6423 74.4011 42.6423Z" fill="white"/>
</g>
<defs>
<clipPath id="clip0_1801_18487">
<rect width="80" height="50.0551" rx="8" fill="white"/>
</clipPath>
</defs>
</svg>
