<svg width="80" height="24" viewBox="0 0 80 24" fill="none" xmlns="http://www.w3.org/2000/svg">
<g clip-path="url(#clip0_1801_18786)">
<path d="M12.9797 5.06294H11.0334C10.7344 5.06294 10.4921 5.3053 10.4921 5.60426V17.7163C10.4921 18.0153 10.7344 18.2576 11.0334 18.2576H12.9797C13.2787 18.2576 13.5211 18.0153 13.5211 17.7163V5.60426C13.5211 5.3053 13.2787 5.06294 12.9797 5.06294Z" fill="black"/>
<path d="M8.27504 15.2286H3.02901V5.60028C3.02901 5.30176 2.78621 5.05896 2.48769 5.05896H0.54132C0.242798 5.05896 0 5.30176 0 5.60028V17.7123C0 18.0109 0.242798 18.2537 0.54132 18.2537H8.27504C8.57356 18.2537 8.81636 18.0109 8.81636 17.7123V15.766C8.81636 15.4674 8.57356 15.2246 8.27504 15.2246V15.2286Z" fill="black"/>
<path d="M37.2038 8.08797C37.5024 8.08797 37.7452 7.84517 37.7452 7.54665V5.60028C37.7452 5.30176 37.5024 5.05896 37.2038 5.05896H29.4701C29.1716 5.05896 28.9288 5.30176 28.9288 5.60028V17.7123C28.9288 18.0109 29.1716 18.2537 29.4701 18.2537H37.2038C37.5024 18.2537 37.7452 18.0109 37.7452 17.7123V15.766C37.7452 15.4674 37.5024 15.2246 37.2038 15.2246H31.9578V13.1708H37.2038C37.5024 13.1708 37.7452 12.928 37.7452 12.6295V10.6831C37.7452 10.3846 37.5024 10.1418 37.2038 10.1418H31.9578V8.08797H37.2038Z" fill="black"/>
<path d="M26.3376 5.06294H24.3913C24.0927 5.06294 23.8499 5.30574 23.8499 5.60426V12.6096L18.7552 5.32564C18.6119 5.11866 18.3969 5.05896 18.1541 5.05896C18.1223 5.05498 18.0944 5.05896 18.0626 5.05896H16.1162C15.8177 5.05896 15.5749 5.30176 15.5749 5.60028V17.7123C15.5749 18.0109 15.8177 18.2537 16.1162 18.2537H18.0626C18.3611 18.2537 18.6039 18.0109 18.6039 17.7123V10.3965L23.9176 17.9909C23.9375 18.0188 23.9574 18.0427 23.9813 18.0666C24.0728 18.174 24.2042 18.2457 24.3554 18.2576H26.3416C26.6401 18.2576 26.8829 18.0148 26.8829 17.7163V5.60028C26.8829 5.30176 26.6401 5.05896 26.3416 5.05896L26.3376 5.06294Z" fill="black"/>
<path d="M78.6427 0H44.1813C43.4339 0 42.828 0.605894 42.828 1.3533V21.9633C42.828 22.7107 43.4339 23.3166 44.1813 23.3166H78.6427C79.3901 23.3166 79.996 22.7107 79.996 21.9633V1.3533C79.996 0.605894 79.3901 0 78.6427 0Z" fill="#08BF5B"/>
<path d="M56.2297 9.091C56.2297 11.1409 54.5818 12.7887 52.4563 12.7887H50.8403V15.8137C50.8403 16.0127 50.6771 16.1759 50.4781 16.1759H48.7387C48.5397 16.1759 48.3765 16.0127 48.3765 15.8137V5.75949C48.3765 5.56048 48.5397 5.39729 48.7387 5.39729H52.4563C54.5818 5.39729 56.2297 7.04513 56.2297 9.09498V9.091ZM53.7659 9.091C53.7659 8.30688 53.2126 7.70586 52.4563 7.70586H50.8403V10.4761H52.4563C53.2126 10.4761 53.7659 9.87512 53.7659 9.091Z" fill="white"/>
<path d="M65.3804 8.66511V15.9849C65.3804 16.0884 65.2968 16.1759 65.1893 16.1759H63.2628C63.1594 16.1759 63.0718 16.0923 63.0718 15.9849V15.4515C62.5623 16.0366 61.81 16.3909 60.7791 16.3909C58.7611 16.3909 57.0974 14.6196 57.0974 12.327C57.0974 10.0343 58.7611 8.2631 60.7791 8.2631C61.81 8.2631 62.5663 8.61735 63.0718 9.20245V8.66909C63.0718 8.5656 63.1554 8.47804 63.2628 8.47804H65.1893C65.2928 8.47804 65.3804 8.56162 65.3804 8.66909V8.66511ZM63.0718 12.323C63.0718 11.1687 62.3036 10.4443 61.2409 10.4443C60.1781 10.4443 59.4099 11.1687 59.4099 12.323C59.4099 13.4773 60.1781 14.2017 61.2409 14.2017C62.3036 14.2017 63.0718 13.4773 63.0718 12.323Z" fill="white"/>
<path d="M73.0663 8.67705L71.2951 13.1429L69.4602 8.67307C69.4124 8.55366 69.293 8.47406 69.1656 8.47406H67.1994C67.064 8.47406 66.9725 8.61337 67.0242 8.73676L70.0811 16.1919L68.9666 18.998C68.9149 19.1214 69.0104 19.2607 69.1457 19.2607H71.112C71.2433 19.2607 71.3588 19.1811 71.4065 19.0617L75.5062 8.73676C75.558 8.61337 75.4625 8.47406 75.3271 8.47406H73.3609C73.2295 8.47406 73.1141 8.55366 73.0663 8.67307V8.67705Z" fill="white"/>
</g>
<defs>
<clipPath id="clip0_1801_18786">
<rect width="79.996" height="23.3166" rx="8" fill="white"/>
</clipPath>
</defs>
</svg>
