<svg width="61" height="64" viewBox="0 0 61 64" fill="none" xmlns="http://www.w3.org/2000/svg">
<g clip-path="url(#clip0_1801_18789)">
<path d="M21.3086 0.00287379H18.4244C17.9815 0.00287379 17.6225 0.361899 17.6225 0.804778V18.7571C17.6225 19.2 17.9815 19.559 18.4244 19.559H21.3086C21.7515 19.559 22.1105 19.2 22.1105 18.7571V0.804778C22.1105 0.361899 21.7515 0.00287379 21.3086 0.00287379Z" fill="black"/>
<path d="M14.3372 15.0774H6.5575V0.804778C6.5575 0.365024 6.20181 0.00287379 5.75559 0.00287379H2.87133C2.43158 0.00287379 2.06943 0.365024 2.06943 0.804778V18.7635C2.06943 19.2033 2.42511 19.5655 2.87133 19.5655H14.3372C14.777 19.5655 15.1391 19.2098 15.1391 18.7635V15.8793C15.1391 15.4395 14.7835 15.0774 14.3372 15.0774Z" fill="black"/>
<path d="M57.2197 4.49742C57.6594 4.49742 58.0216 4.14173 58.0216 3.69551V0.804778C58.0216 0.365024 57.6594 0.00287379 57.2197 0.00287379H45.7537C45.314 0.00287379 44.9518 0.358557 44.9518 0.804778V18.7635C44.9518 19.2033 45.3075 19.5655 45.7537 19.5655H57.2197C57.6594 19.5655 58.0216 19.2098 58.0216 18.7635V15.8793C58.0216 15.4395 57.6594 15.0774 57.2197 15.0774H49.4464V12.0314H57.2197C57.6594 12.0314 58.0216 11.6758 58.0216 11.2295V8.34526C58.0216 7.90551 57.6594 7.54336 57.2197 7.54336H49.4464V4.49742H57.2197Z" fill="black"/>
<path d="M38.2262 0.00287421C37.7864 0.00287421 37.4243 0.358558 37.4243 0.804778V11.1972L29.8709 0.397359C29.6575 0.0934118 29.3406 0.00287421 28.9849 0.00287421C28.9396 -0.00359276 28.8944 0.00287421 28.8491 0.00287421H25.9648C25.5251 0.00287421 25.1629 0.358558 25.1629 0.804778V18.7636C25.1629 19.2033 25.5186 19.5655 25.9648 19.5655H28.8491C29.2889 19.5655 29.651 19.2098 29.651 18.7636V7.91198L37.5278 19.171C37.5536 19.2098 37.586 19.2486 37.6183 19.2809C37.7541 19.4426 37.9481 19.5461 38.1745 19.5655H41.1169C41.5567 19.5655 41.9188 19.2098 41.9188 18.7636V0.804778C41.9188 0.365025 41.5567 0.00287421 41.1169 0.00287421H38.2262Z" fill="black"/>
<path d="M58.1897 26.1165H2.19877C0.984421 26.1165 0 27.1009 0 28.3153V61.8012C0 63.0156 0.984421 64 2.19877 64H58.1897C59.404 64 60.3885 63.0156 60.3885 61.8012V28.3153C60.3885 27.1009 59.404 26.1165 58.1897 26.1165Z" fill="#08BF5B"/>
<path d="M21.7742 40.8871C21.7742 44.2175 19.0969 46.8949 15.6436 46.8949H13.018V51.8098C13.018 52.1331 12.7528 52.3983 12.4295 52.3983H9.60343C9.28008 52.3983 9.01494 52.1331 9.01494 51.8098V35.4742C9.01494 35.1508 9.28008 34.8857 9.60343 34.8857H15.6436C19.0969 34.8857 21.7742 37.563 21.7742 40.8935V40.8871ZM17.7712 40.8871C17.7712 39.6131 16.8723 38.6365 15.6436 38.6365H13.018V43.1376H15.6436C16.8723 43.1376 17.7712 42.161 17.7712 40.8871Z" fill="white"/>
<path d="M36.6353 40.1951V52.0878C36.6353 52.256 36.4995 52.3983 36.3249 52.3983H33.1949C33.0268 52.3983 32.8845 52.2625 32.8845 52.0878V51.2213C32.0567 52.1719 30.8345 52.7475 29.1595 52.7475C25.8808 52.7475 23.1776 49.8697 23.1776 46.1447C23.1776 42.4197 25.8808 39.5419 29.1595 39.5419C30.8345 39.5419 32.0632 40.1175 32.8845 41.0681V40.2016C32.8845 40.0334 33.0203 39.8911 33.1949 39.8911H36.3249C36.493 39.8911 36.6353 40.0269 36.6353 40.2016V40.1951ZM32.8845 46.1382C32.8845 44.2628 31.6364 43.0858 29.9097 43.0858C28.183 43.0858 26.9349 44.2628 26.9349 46.1382C26.9349 48.0136 28.183 49.1906 29.9097 49.1906C31.6364 49.1906 32.8845 48.0136 32.8845 46.1382Z" fill="white"/>
<path d="M49.1295 40.208L46.2517 47.464L43.2704 40.2016C43.1928 40.0075 42.9988 39.8782 42.7919 39.8782H39.5972C39.3773 39.8782 39.2286 40.1045 39.3126 40.305L44.2793 52.4177L42.4685 56.9769C42.3844 57.1773 42.5397 57.4037 42.7595 57.4037H45.9542C46.1676 57.4037 46.3552 57.2744 46.4328 57.0803L53.0937 40.305C53.1778 40.1045 53.0226 39.8782 52.8027 39.8782H49.608C49.3946 39.8782 49.2071 40.0075 49.1295 40.2016V40.208Z" fill="white"/>
</g>
<defs>
<clipPath id="clip0_1801_18789">
<rect width="60.3885" height="64" rx="8" fill="white"/>
</clipPath>
</defs>
</svg>
