<svg width="80" height="20" viewBox="0 0 80 20" fill="none" xmlns="http://www.w3.org/2000/svg">
<g clip-path="url(#clip0_1801_18273)">
<g clip-path="url(#clip1_1801_18273)">
<path d="M72.9943 7.70718H62.249C61.1667 7.70718 60.2794 6.89495 60.2794 5.88417C60.2794 4.87339 61.157 4.06117 62.249 4.06117L71.2197 4.07019C73.4039 4.07019 74.3984 4.5485 74.5349 6.01955C74.5934 6.60616 75.0517 7.08447 75.6952 7.08447H77.6844C78.3279 7.08447 78.8447 6.60616 78.8447 6.01955C78.8447 2.90599 77.1579 0 71.3854 0L34.4692 0.00902478V4.06117H44.103V18.5189C44.103 19.1326 44.6392 19.6199 45.2925 19.6199H47.7302C48.3932 19.6199 48.9198 19.1236 48.9198 18.5189V4.06117H56.2231C56.0085 4.6568 55.8916 5.28854 55.8818 5.94735V5.95637V5.9654C55.8818 9.62948 58.5632 11.7323 64.677 11.7323H72.9651C74.1644 11.7323 75.0712 12.5716 75.0712 13.6816C75.0712 14.8007 74.0473 15.5949 72.9065 15.5949L63.6629 15.5858C61.4787 15.5858 60.4452 15.0714 60.3086 13.5914C60.2501 13.0048 59.7918 12.5264 59.1483 12.5264H57.1592C56.5156 12.5264 55.9988 13.0048 55.9988 13.5914C55.9988 16.705 57.6857 19.6109 63.4581 19.6109L72.9748 19.6199C76.5533 19.6199 79.459 16.9486 79.459 13.6636C79.4785 10.3785 76.5728 7.70718 72.9943 7.70718Z" fill="#EA0029"/>
<path d="M35.5807 0.0109863H19.7163V4.06312H35.5807C36.2534 4.06312 36.7995 3.55774 36.7995 2.93502V1.13909C36.7995 0.516376 36.2534 0.0109863 35.5807 0.0109863Z" fill="#003DA6"/>
<path d="M35.5803 7.7887H19.7158V11.8408H35.5803C36.253 11.8408 36.7991 11.3355 36.7991 10.7128V8.91676C36.7991 8.29409 36.253 7.7887 35.5803 7.7887Z" fill="#003DA6"/>
<path d="M35.5803 15.5673H19.7158V19.6194H35.5803C36.253 19.6194 36.7991 19.114 36.7991 18.4913V16.6954C36.7991 16.0727 36.253 15.5673 35.5803 15.5673Z" fill="#003DA6"/>
<path d="M18.0096 0.0101318C17.3465 0.0101318 16.82 0.506496 16.82 1.11116V13.3127L6.13319 0.443322C5.90892 0.172578 5.5579 0.0101318 5.18737 0.0101318H1.18958C0.536289 0.0101318 0 0.506496 0 1.11116V18.52C0 19.1337 0.536289 19.6211 1.18958 19.6211H3.17873C3.84177 19.6211 4.36831 19.1246 4.36831 18.52V4.88352L16.0009 18.8991C16.2642 19.2149 16.6542 19.6211 17.2783 19.6211H19.989C20.652 19.6211 21.1785 19.1246 21.1785 18.52V4.06227V1.11116C21.1785 0.506496 20.652 0.0101318 19.989 0.0101318H18.0096Z" fill="#EA0029"/>
</g>
</g>
<defs>
<clipPath id="clip0_1801_18273">
<rect width="80" height="20" rx="8" fill="white"/>
</clipPath>
<clipPath id="clip1_1801_18273">
<rect width="80" height="20" fill="white"/>
</clipPath>
</defs>
</svg>
