<svg width="80" height="37" viewBox="0 0 80 37" fill="none" xmlns="http://www.w3.org/2000/svg">
<g clip-path="url(#clip0_1801_18531)">
<path d="M18.2774 36.3019V17.869H21.2475V19.2231C21.6559 18.5616 22.455 18.091 23.081 17.8823C23.7114 17.6737 24.3596 17.5671 25.0255 17.5671C26.6681 17.5671 28.4217 18.1221 29.8468 19.6004C31.1609 20.9678 31.8579 22.6326 31.8579 24.6038C31.8579 25.5094 31.6848 26.3973 31.3385 27.2541C31.0055 28.111 30.526 28.8657 29.9134 29.4961C29.2652 30.1753 28.5283 30.6859 27.7158 31.0322C26.9078 31.374 26.1487 31.5516 25.1587 31.5516C24.435 31.5516 23.738 31.4406 23.081 31.2097C22.4328 31.0011 21.5271 30.4817 21.1986 29.909V36.2974H18.2774M24.9278 20.1776C23.8446 20.1776 22.899 20.515 22.1265 21.3096C21.3363 22.1354 21.0255 23.3163 21.0255 24.4928C21.0255 25.7447 21.3229 26.9656 22.0954 27.7913C22.8723 28.6215 23.8313 28.9101 24.95 28.9101C26.0688 28.9101 27.0011 28.4484 27.6981 27.7425C28.5016 26.9256 28.879 25.8202 28.879 24.626C28.879 23.3207 28.4927 22.162 27.7158 21.3407C27.0499 20.6304 26.0821 20.1776 24.9234 20.1776" fill="#1E4BC6"/>
<path d="M52.2175 36.3019L54.7258 30.4905L48.9767 17.869H52.1065L56.1909 27.3429L59.96 17.869H63.1076L55.2941 36.3019H52.2175Z" fill="#1E4BC6"/>
<path d="M44.2619 31.3119V29.9178C43.9334 30.4861 43.0277 31.01 42.3795 31.2186C41.718 31.4495 41.0166 31.5605 40.3018 31.5605C39.3074 31.5605 38.5527 31.3873 37.7402 31.041C36.9323 30.6948 36.1953 30.1798 35.5471 29.5005C34.93 28.8746 34.4506 28.1154 34.122 27.263C33.7758 26.4018 33.5982 25.5183 33.5982 24.6126C33.5982 22.6415 34.2952 20.9767 35.6137 19.6093C37.0432 18.1265 38.7968 17.576 40.4395 17.576C41.101 17.576 41.7491 17.6826 42.3795 17.8912C43.0099 18.0999 43.8091 18.5705 44.2175 19.232V17.8779H47.1831V31.3207H44.2619M37.7358 21.3585C36.9589 22.1842 36.5771 23.3429 36.5771 24.6437C36.5771 25.8335 36.9589 26.9434 37.758 27.7602C38.455 28.4661 39.374 28.9278 40.5061 28.9278C41.6381 28.9278 42.5793 28.6393 43.3562 27.8091C44.1331 26.9833 44.4262 25.7625 44.4262 24.5105C44.4262 23.3341 44.1198 22.1576 43.334 21.3274C42.5527 20.5283 41.6115 20.1953 40.5327 20.1953C39.3695 20.1953 38.4062 20.6482 37.7358 21.3585Z" fill="#1E4BC6"/>
<path d="M66.2197 9.34074L66.0688 0.364053H68.9012V11.6892H64.8257L62.0066 2.39291H61.9356L62.0954 11.6892H59.2852V0.364053H63.5249L66.1576 9.34074H66.2197Z" fill="#1E4BC6"/>
<path d="M14.7702 1.42066L13.2075 11.7913H10.122L12.2353 0.364053H17.3274L19.4406 11.7913H16.364L14.8368 1.42066H14.7702Z" fill="#1E4BC6"/>
<path d="M28.1021 9.10988L29.5183 0.364053H34.1753L34.4328 11.7913H31.5693L31.4894 1.51832H31.4317L29.5227 11.7913H26.6281L24.7103 1.51832H24.6437L24.5727 11.7913H21.7136L21.9755 0.364053H26.637L28.0443 9.10988H28.1021Z" fill="#1E4BC6"/>
<path d="M52.0754 10.0777C52.879 10.0777 53.1187 9.53163 53.1764 9.25638C53.1986 9.13208 53.1986 8.96782 53.1986 8.81687V0.364053H56.1021V8.55938C56.1021 8.77248 56.0799 9.19867 56.071 9.3141C55.8757 11.4495 54.1798 12.1332 52.0754 12.1332C49.9711 12.1332 48.2885 11.4495 48.0932 9.3141C48.0799 9.19867 48.0577 8.77248 48.0665 8.55938V0.364053H50.9611V8.82131C50.9522 8.96782 50.9611 9.13652 50.9833 9.26082C51.0366 9.53607 51.2852 10.0821 52.0754 10.0821" fill="#1E4BC6"/>
<path d="M5.30522 8.56825C5.41177 8.8435 5.38069 9.2031 5.32741 9.41619C5.23418 9.79799 4.97669 10.1887 4.20866 10.1887C3.49834 10.1887 3.0677 9.77579 3.0677 9.14982L3.05882 8.03995H0V8.92341C0 11.4761 2.00222 12.2442 4.1465 12.2442C6.29079 12.2442 7.92453 11.5427 8.1909 9.63817C8.33296 8.64816 8.23085 7.99999 8.18202 7.76026C7.70255 5.35848 3.35627 4.65704 3.03219 3.31631C2.97891 3.08102 2.98779 2.84572 3.01887 2.71698C3.10322 2.34406 3.35183 1.9445 4.06215 1.9445C4.77248 1.9445 5.13208 2.36626 5.13208 2.97447V3.68923H7.98668V2.88568C7.98668 0.390677 5.74917 0 4.12431 0C2.09545 0 0.435072 0.674805 0.128746 2.54384C0.0488346 3.04994 0.0399556 3.50277 0.150943 4.07991C0.652608 6.42397 4.71476 7.09433 5.30522 8.57269" fill="#1E4BC6"/>
<path d="M42.4816 8.55494C42.5971 8.82575 42.5482 9.17647 42.5038 9.38957C42.4151 9.76249 42.1531 10.1443 41.4028 10.1443C40.6925 10.1443 40.2663 9.73585 40.2663 9.11876V8.01776H37.2253V8.89679C37.2253 11.4273 39.2142 12.1776 41.3451 12.1776C43.4761 12.1776 45.0699 11.485 45.3407 9.59379C45.4783 8.6171 45.3762 7.97781 45.3274 7.7292C44.8523 5.36294 40.5549 4.6615 40.2397 3.32964C40.1864 3.10767 40.1997 2.86794 40.2264 2.74363C40.3018 2.37959 40.5505 1.98447 41.2608 1.98447C41.9311 1.98447 42.3174 2.38847 42.3174 2.99668V3.70256H45.1365V2.90789C45.1365 0.443964 42.9212 0.0577276 41.3274 0.0577276C39.3118 0.0577276 37.6603 0.714775 37.3718 2.57049C37.2785 3.06771 37.2697 3.5161 37.394 4.09324C37.8868 6.4151 41.9045 7.07659 42.4905 8.54606" fill="#1E4BC6"/>
<path d="M75.9289 9.96227C76.7502 9.96227 77.0432 9.44728 77.0965 9.13652C77.1143 9.00777 77.1232 8.84351 77.1232 8.70145V7.04551H75.9556V5.36738H80.0044V8.43951C80.0044 8.65261 79.9955 8.81243 79.9644 9.19423C79.7735 11.263 77.9667 12.0178 75.9378 12.0178C73.9089 12.0178 72.1154 11.263 71.9334 9.19423C71.889 8.81243 71.889 8.65261 71.889 8.43951V3.63153C71.889 3.42731 71.9112 3.06327 71.9422 2.88125C72.1909 0.732532 73.9178 0.0532872 75.9422 0.0532872C77.9667 0.0532872 79.7558 0.723652 79.96 2.88125C80.0044 3.23197 79.9822 3.63153 79.9822 3.63153V4.00445H77.1054V3.36516C77.1054 3.36516 77.1054 3.08991 77.0654 2.92565C77.0166 2.68147 76.7946 2.0999 75.92 2.0999C75.0987 2.0999 74.8501 2.6504 74.788 2.92565C74.7525 3.07659 74.7436 3.28525 74.7436 3.47171V8.69701C74.7436 8.84351 74.7525 9.00333 74.7658 9.13208C74.8235 9.44284 75.1076 9.95783 75.9422 9.95783" fill="#1E4BC6"/>
</g>
<defs>
<clipPath id="clip0_1801_18531">
<rect width="80.0044" height="36.3019" rx="8" fill="white"/>
</clipPath>
</defs>
</svg>
