<svg width="80" height="80" viewBox="0 0 80 80" fill="none" xmlns="http://www.w3.org/2000/svg">
<g clip-path="url(#clip0_1801_18421)">
<path d="M79.1707 28.0364C78.188 20.6182 75.5622 13.8953 70.9307 8.97129H70.9288C66.0048 4.34116 59.2819 1.71529 51.863 0.732893C44.7758 -0.20684 39.9523 0.0254265 39.9523 0.0254265C39.9523 0.0254265 35.1262 -0.20684 28.0395 0.732626C20.62 1.71503 13.8974 4.34116 8.9723 8.97103C4.3419 13.895 1.7147 20.618 0.732032 28.0364C-0.207435 35.1212 0.0256317 39.9465 0.0256317 39.9465C0.0256317 39.9465 -0.207435 44.77 0.732032 51.8569C1.7147 59.2753 4.3419 65.9964 8.9723 70.9198V70.9217C13.8974 75.5513 20.62 78.1769 28.0392 79.1606C35.1259 80.0998 39.952 79.8668 39.952 79.8668C39.952 79.8668 44.7755 80.0998 51.8627 79.1606C59.2816 78.1772 66.0046 75.5516 70.9286 70.9217L70.9304 70.9198C75.5619 65.9964 78.188 59.2753 79.1704 51.8569C80.1094 44.77 79.8768 39.9465 79.8768 39.9465C79.8768 39.9465 80.1094 35.1209 79.1707 28.0364Z" fill="#1E4BC6"/>
<path d="M14.7123 28.2422H21.8859C22.9771 28.2422 23.9811 28.4385 24.8995 28.8302C25.8184 29.222 26.6112 29.7526 27.2824 30.423C27.9512 31.0929 28.4774 31.8817 28.8598 32.7905C29.2424 33.6988 29.4342 34.6694 29.4342 35.7017C29.4342 36.735 29.2424 37.7105 28.8598 38.6294C28.4776 39.547 27.9512 40.3409 27.2824 41.01C26.6112 41.6801 25.8128 42.2124 24.8851 42.6033C23.9579 42.9961 22.9483 43.1918 21.8576 43.1918H18.615V49.1884H14.7123V28.2422ZM18.615 31.8574V39.5764H21.599C22.1734 39.5764 22.6995 39.4758 23.1768 39.275C23.6547 39.0742 24.0664 38.7964 24.4115 38.4422C24.7566 38.0892 25.024 37.6774 25.2147 37.2086C25.4067 36.7398 25.5027 36.2382 25.5027 35.7017C25.5027 35.1673 25.4067 34.6644 25.2147 34.1956C25.024 33.7268 24.7566 33.3214 24.4115 32.9764C24.0664 32.6321 23.655 32.3593 23.1768 32.1588C22.6995 31.958 22.1734 31.8574 21.599 31.8574H18.615Z" fill="white"/>
<path d="M38.4454 49.2161C37.4312 49.2161 36.4315 49.0289 35.447 48.6508C34.46 48.2729 33.576 47.7244 32.7915 47.0046C32.007 46.2857 31.3755 45.4049 30.8971 44.3628C30.419 43.3222 30.1803 42.1366 30.1803 40.8094C30.1803 39.463 30.4144 38.2702 30.883 37.2278C31.3518 36.1862 31.9731 35.3049 32.7491 34.586C33.5232 33.8676 34.4134 33.3188 35.4168 32.9409C36.4219 32.5633 37.4502 32.3734 38.5024 32.3734C39.611 32.3734 40.635 32.5748 41.5728 32.9758C42.5096 33.3772 43.2854 33.9236 43.8982 34.6172V32.403H47.772V49.1884H43.8982V46.8033C43.2854 47.5537 42.5016 48.1428 41.5435 48.5721C40.5875 49.0033 39.5547 49.2161 38.4454 49.2161ZM39.0766 45.6598C39.803 45.6598 40.4726 45.5332 41.0859 45.282C41.6976 45.0305 42.2235 44.6798 42.663 44.2308C43.1032 43.7809 43.452 43.2598 43.7107 42.667C43.9699 42.0764 44.0992 41.438 44.0992 40.7534C44.0992 40.0894 43.9699 39.4601 43.7107 38.8673C43.452 38.2756 43.1035 37.7585 42.663 37.3182C42.2235 36.8774 41.6976 36.5321 41.0859 36.2812C40.4726 36.0294 39.8027 35.9036 39.0766 35.9036C38.3683 35.9036 37.704 36.0294 37.0816 36.2812C36.4595 36.5321 35.9198 36.8729 35.4606 37.3038C35.0014 37.7361 34.6427 38.2481 34.384 38.8412C34.1256 39.434 33.9971 40.0718 33.9971 40.7532C33.9971 41.4374 34.1256 42.0798 34.384 42.6814C34.6427 43.283 35.0014 43.8025 35.4606 44.243C35.9195 44.6852 36.4595 45.03 37.0816 45.2817C37.704 45.5334 38.3683 45.6598 39.0766 45.6598Z" fill="white"/>
<path d="M55.9219 48.462L49.0347 32.4025H53.167L57.8438 43.8876L62.2646 32.4025H66.3395L56.3227 56.9062H52.3934L55.9219 48.462Z" fill="white"/>
</g>
<defs>
<clipPath id="clip0_1801_18421">
<rect width="79.9024" height="79.8924" rx="8" fill="white"/>
</clipPath>
</defs>
</svg>
