<svg width="80" height="20" viewBox="0 0 80 20" fill="none" xmlns="http://www.w3.org/2000/svg">
<g clip-path="url(#clip0_1801_14992)">
<g clip-path="url(#clip1_1801_14992)">
<path d="M23.8226 19.3316L21.0274 10.7701C21.0099 10.6998 21.045 10.6647 21.1153 10.6647H23.0315C23.0667 10.6647 23.1018 10.6647 23.1195 10.7174L25.229 17.4505C25.2993 17.6967 25.5455 17.6967 25.6158 17.4505L27.6902 10.7174C27.7078 10.6647 27.7429 10.6647 27.7781 10.6647H29.6767C29.7295 10.6647 29.7646 10.6998 29.7471 10.7701L26.987 19.3316C26.9694 19.3843 26.9519 19.3843 26.9167 19.3843H23.8929C23.8577 19.3843 23.8402 19.3843 23.8226 19.3316Z" fill="black"/>
<path d="M29.7285 15.0588C29.7285 12.494 31.3669 10.401 34.1032 10.401C37.1827 10.401 38.6066 12.8629 38.4265 15.3933C38.4179 15.5134 38.375 15.5563 38.2807 15.5563H31.6671C31.8387 17.0146 32.8251 17.8895 34.1461 17.8895C35.2698 17.8895 35.8789 17.4006 36.2477 16.6972C36.282 16.6457 36.3164 16.62 36.3764 16.62H38.1692C38.2035 16.62 38.2378 16.6457 38.2378 16.6972C38.2378 16.9202 37.8004 18.1211 36.8139 18.816C36.0933 19.3649 35.1926 19.648 34.1461 19.648C31.5385 19.648 29.7285 17.7523 29.7285 15.0588ZM36.4965 13.9865C36.1791 12.7599 35.3042 12.1595 34.0689 12.1595C32.8938 12.1595 32.0531 12.8457 31.7358 13.9865H36.4965Z" fill="black"/>
<path d="M44.0163 12.4578H43.2802C42.1375 12.4578 41.276 13.2665 41.276 14.4619V19.314C41.276 19.3492 41.2409 19.3843 41.2057 19.3843H39.4302C39.395 19.3843 39.3599 19.3492 39.3599 19.314V10.735C39.3599 10.6998 39.395 10.6647 39.4302 10.6647H41.0827C41.1178 10.6647 41.153 10.6998 41.153 10.735V11.6492C41.153 11.8074 41.3463 11.8777 41.4694 11.7195C41.9968 11.0162 42.7879 10.6647 43.4735 10.6647H44.0163C44.0515 10.6647 44.0867 10.6998 44.0867 10.735V12.3875C44.0867 12.4226 44.0515 12.4578 44.0163 12.4578Z" fill="black"/>
<path d="M45.8815 7.34753C46.5143 7.34753 47.0769 7.87492 47.0769 8.50777C47.0769 9.14071 46.5143 9.66809 45.8815 9.66809C45.2485 9.66809 44.686 9.14071 44.686 8.50777C44.686 7.87492 45.2486 7.34753 45.8815 7.34753ZM44.9146 19.314V10.735C44.9146 10.6998 44.9497 10.6647 44.9849 10.6647H46.7429C46.7781 10.6647 46.8132 10.6998 46.8132 10.735V19.314C46.8132 19.3492 46.7781 19.3843 46.7429 19.3843H44.9849C44.9497 19.3843 44.9146 19.3492 44.9146 19.314Z" fill="black"/>
<path d="M48.9051 19.314V12.4579H47.7118C47.6767 12.4579 47.6416 12.4227 47.6416 12.3875V10.735C47.6416 10.6998 47.6767 10.6647 47.7118 10.6647H48.9051V9.46479C48.9051 8.04081 49.7314 7.40796 51.1202 7.40796H52.7003C52.7355 7.40796 52.7706 7.44316 52.7706 7.47828V9.13079C52.7706 9.16591 52.7355 9.20111 52.7003 9.20111H51.5422C50.9971 9.20111 50.7863 9.41209 50.7863 9.92191V10.6647H52.3982C52.4333 10.6647 52.4685 10.6998 52.4685 10.735V12.3875C52.4685 12.4226 52.4333 12.4578 52.3982 12.4578H50.7863V19.314C50.7863 19.3492 50.7511 19.3843 50.7159 19.3843H48.9755C48.9403 19.3843 48.9051 19.3492 48.9051 19.314Z" fill="black"/>
<path d="M52.626 15.0421C52.626 12.2645 54.507 10.401 57.1089 10.401C59.7459 10.401 61.6269 12.282 61.6269 15.0421C61.6269 17.767 59.7459 19.6481 57.1089 19.6481C54.507 19.6481 52.626 17.767 52.626 15.0421ZM57.1089 17.8373C58.6383 17.8373 59.7283 16.765 59.7283 15.0421C59.7283 13.2841 58.6559 12.2117 57.1089 12.2117C55.597 12.2117 54.5422 13.3017 54.5422 15.0421C54.5422 16.7474 55.6146 17.8373 57.1089 17.8373Z" fill="black"/>
<path d="M62.5449 19.314V10.735C62.5449 10.6998 62.58 10.6647 62.6152 10.6647H64.2677C64.3029 10.6647 64.3381 10.6998 64.3381 10.735V11.4734C64.3381 11.6316 64.549 11.7019 64.672 11.5437C65.1467 10.9108 65.8675 10.4537 67.0454 10.4537C69.0319 10.4537 70.368 11.7723 70.368 13.7763V19.314C70.368 19.3492 70.3328 19.3844 70.2976 19.3844H68.522C68.4869 19.3844 68.4517 19.3492 68.4517 19.314V14.2334C68.4517 13.0028 67.6607 12.2645 66.518 12.2645C65.3225 12.2645 64.4611 13.0907 64.4611 14.2862V19.314C64.4611 19.3492 64.426 19.3844 64.3908 19.3844H62.6152C62.58 19.3844 62.5449 19.3492 62.5449 19.314Z" fill="black"/>
<path d="M71.2866 15.0588C71.2866 12.494 72.925 10.401 75.6613 10.401C78.7408 10.401 80.1648 12.8629 79.9846 15.3933C79.976 15.5134 79.9331 15.5563 79.8388 15.5563H73.2252C73.3968 17.0146 74.3832 17.8895 75.7042 17.8895C76.8279 17.8895 77.437 17.4006 77.8058 16.6972C77.8401 16.6457 77.8745 16.62 77.9345 16.62H79.7273C79.7616 16.62 79.7959 16.6457 79.7959 16.6972C79.7959 16.9202 79.3585 18.1211 78.372 18.816C77.6514 19.3649 76.7508 19.648 75.7042 19.648C73.0966 19.648 71.2866 17.7523 71.2866 15.0588ZM78.0546 13.9865C77.7372 12.7599 76.8623 12.1595 75.627 12.1595C74.4519 12.1595 73.6112 12.8457 73.2938 13.9865H78.0546Z" fill="black"/>
<path d="M14.5381 13.0472C15.9733 13.0472 17.1475 11.8729 17.1475 10.4377C17.1475 9.65492 16.7561 8.97647 16.2473 8.4546C15.7124 7.93271 15.06 7.41084 15.06 6.52364C15.06 5.63644 15.7124 5.11455 16.2473 4.59268C16.7561 4.07079 17.1475 3.39234 17.1475 2.60954C17.1475 1.17436 15.9733 0.00012207 14.5381 0.00012207C13.0899 0.00012207 11.9287 1.17436 11.9287 2.60954C11.9287 3.39236 12.3071 4.07082 12.8159 4.59268C13.3508 5.11458 14.0032 5.63644 14.0032 6.52364C14.0032 7.41084 13.3508 7.93274 12.8159 8.4546C12.3071 8.9765 11.9287 9.65492 11.9287 10.4377C11.9287 11.8729 13.0899 13.0472 14.5381 13.0472Z" fill="black"/>
<path d="M8.57377 19.3844C10.0149 19.3844 11.1832 18.2161 11.1832 16.7749C11.1832 15.3338 10.0149 14.1655 8.57377 14.1655C7.13263 14.1655 5.96436 15.3338 5.96436 16.7749C5.96436 18.2161 7.13263 19.3844 8.57377 19.3844Z" fill="black"/>
<path d="M2.60941 13.0471C4.05055 13.0471 5.21883 11.8788 5.21883 10.4377C5.21883 8.99652 4.05055 7.82825 2.60941 7.82825C1.16827 7.82825 0 8.99652 0 10.4377C0 11.8788 1.16827 13.0471 2.60941 13.0471Z" fill="black"/>
<path d="M2.60941 5.21883C4.05055 5.21883 5.21883 4.05055 5.21883 2.60941C5.21883 1.16827 4.05055 0 2.60941 0C1.16827 0 0 1.16827 0 2.60941C0 4.05055 1.16827 5.21883 2.60941 5.21883Z" fill="black"/>
</g>
</g>
<defs>
<clipPath id="clip0_1801_14992">
<rect width="80" height="19.648" rx="8" fill="white"/>
</clipPath>
<clipPath id="clip1_1801_14992">
<rect width="80" height="19.648" fill="white"/>
</clipPath>
</defs>
</svg>
