<svg width="80" height="16" viewBox="0 0 80 16" fill="none" xmlns="http://www.w3.org/2000/svg">
<g clip-path="url(#clip0_1801_18780)">
<path fill-rule="evenodd" clip-rule="evenodd" d="M12.3539 4.27984L10.7434 11.5151L8.30486 4.27984H6.50996L4.07243 11.5151L2.46156 4.27984H0L2.89909 15.144H4.83095L7.4079 7.97794L9.98354 15.144H11.9165L14.8148 4.27984H12.3539ZM16.4609 2.29383H18.7654V0H16.4609V2.29383ZM16.4609 14.9794H18.7654V4.12922H16.4609V14.9794Z" fill="#112032"/>
<path d="M28.0051 0.0789882H79.9165V15.2978H28.0049L28.0051 0.0789882Z" fill="white"/>
<path fill-rule="evenodd" clip-rule="evenodd" d="M33.5284 15.2625C30.251 15.2625 28.0051 12.969 28.0051 9.75751C28.0051 5.97413 30.5714 4.06977 33.3681 4.06977C36.6005 4.06977 38.4565 6.40919 38.4565 9.64376V10.3773H30.3659C30.5714 12.1429 31.6038 13.382 33.8726 13.382C35.1791 13.382 36.2334 12.9231 37.0812 12.4413L37.8611 14.0699C36.8976 14.7116 35.2479 15.2625 33.5284 15.2625ZM30.3885 8.84047H36.2333C36.1643 7.55603 35.4762 5.97413 33.3679 5.97413C31.5345 5.97413 30.5942 7.14368 30.3885 8.84047ZM45.068 15.3085C41.7445 15.3085 39.7738 12.8543 39.7738 9.78138C39.7738 6.45512 42.0877 4.11553 45.3651 4.11553C46.4431 4.11553 47.6808 4.36837 48.414 4.84936L47.7498 6.82236C47.2221 6.45528 46.4431 6.0887 45.4119 6.0887C43.4173 6.0887 42.1796 7.46417 42.1796 9.64376C42.1796 11.5927 43.1656 13.382 45.5952 13.382C46.6267 13.382 47.268 13.015 47.8645 12.556L48.5057 14.4601C47.704 14.9641 46.3055 15.3085 45.068 15.3085ZM59.9386 4.20771V15.0559H57.6466V14.1848C56.7528 14.8724 55.5154 15.2625 54.2775 15.2625C51.2973 15.2625 49.0512 13.0838 49.0512 9.68985C49.0512 5.90533 51.9167 4.06993 54.6206 4.06993C55.8584 4.06993 56.8896 4.46006 57.6466 5.01002V4.20771H59.9386ZM51.4579 9.68985C51.4579 11.7993 52.6955 13.3356 54.7124 13.3356C56.7062 13.3356 57.8293 11.7993 57.8293 9.68985C57.8293 7.46417 56.5465 6.01907 54.6446 6.01907C52.7187 6.01907 51.4579 7.48722 51.4579 9.68985ZM79.9165 0.0789882L79.9165 15.102H77.6244V14.2308C76.73 14.9185 75.4922 15.3086 74.2551 15.3086C71.2751 15.3086 69.029 13.129 69.029 9.73496C69.029 5.95059 71.8935 4.11603 74.5984 4.11603C75.836 4.11603 76.8673 4.50615 77.6242 5.05611V0.0789882L79.9165 0.0789882ZM71.4359 9.73496C71.4359 11.8454 72.6737 13.3817 74.6902 13.3817C76.6841 13.3817 77.8079 11.8454 77.8079 9.73479C77.8079 7.51026 76.5233 6.06533 74.6214 6.06533C72.6965 6.06533 71.4359 7.53347 71.4359 9.73496Z" fill="#112032"/>
<path fill-rule="evenodd" clip-rule="evenodd" d="M67.2061 3.95142C67.2031 3.95142 67.1998 3.95191 67.1969 3.95207C67.109 3.95603 65.543 4.04491 64.8443 5.03026V4.13825H62.5514V14.9794H64.8443V9.06631C64.8443 7.34763 65.9215 6.15602 67.2515 6.15602C67.5727 6.15602 67.8938 6.24689 68.1684 6.36146L68.9712 4.39043C68.6316 4.17035 67.814 3.93413 67.2061 3.95142ZM26.0537 3.95142C26.0507 3.95142 26.0474 3.95191 26.0446 3.95191C25.9564 3.95619 24.3908 4.04508 23.6917 5.02993V4.13808H21.3992V14.9794H23.6917V9.06598C23.6917 7.34747 24.7692 6.1557 26.0991 6.1557C26.4204 6.1557 26.7416 6.24656 27.016 6.36146L27.8189 4.39059C27.479 4.17002 26.6614 3.9343 26.0537 3.95142Z" fill="#112032"/>
</g>
<defs>
<clipPath id="clip0_1801_18780">
<rect width="79.9165" height="15.3086" rx="7.65431" fill="white"/>
</clipPath>
</defs>
</svg>
