<svg width="80" height="15" viewBox="0 0 80 15" fill="none" xmlns="http://www.w3.org/2000/svg">
<g clip-path="url(#clip0_1801_15011)">
<path d="M30.8908 2.92905H33.9535L34.4463 0.45093H31.3829L30.8908 2.92905ZM30.5735 4.52327H33.6369L31.6909 14.3081C31.5492 14.3573 31.1102 14.5315 30.505 14.5315C29.6876 14.5315 28.9381 14.2136 28.9381 13.0856C28.9381 12.8735 28.9627 12.6314 29.0172 12.3574C29.6258 9.30394 30.5735 4.52327 30.5735 4.52327ZM60.9914 4.2998C58.9529 4.2998 58.1422 5.49231 57.7617 6.21792H57.7258L57.8435 4.52527H54.816C54.7961 4.89705 54.6651 6.07094 54.4708 7.08321C54.4708 7.08321 53.7718 10.6348 53.6395 11.3145C53.5391 11.8339 53.3542 12.6021 53.3542 13.0477C53.3542 13.9968 53.837 14.5315 54.9125 14.5315C55.5157 14.5315 55.95 14.3673 56.1083 14.3081L57.1206 9.21216C57.4019 7.80483 58.4202 6.88434 59.6326 6.88434C60.6096 6.88434 61.0772 7.59599 61.0772 8.17794C61.0772 8.68474 60.9502 9.24608 60.8517 9.7429L60.4161 11.9251C60.3642 12.1871 60.2531 12.6906 60.2531 13.085C60.2531 14.0494 60.7979 14.5315 61.8327 14.5315C62.3974 14.5315 62.7552 14.3905 63.0093 14.3081L63.9178 9.73957C64.1147 8.70735 64.1872 8.16331 64.1872 7.5062C64.1872 5.61469 63.0798 4.2998 60.9914 4.2998ZM47.3843 6.66553C45.6717 6.66553 44.7233 8.41338 44.7233 9.97169C44.7233 11.2866 45.3179 12.1665 46.6687 12.1665C48.1964 12.1665 49.3922 10.8682 49.3922 8.65282C49.3922 7.63922 48.8515 6.66553 47.3843 6.66553ZM46.4811 14.5322C43.2016 14.5322 41.632 12.5675 41.632 10.0635C41.632 6.62762 43.9944 4.2998 47.6444 4.2998C50.8115 4.2998 52.4935 6.2146 52.4935 8.6741C52.4935 12.36 49.9709 14.5322 46.4811 14.5322ZM35.0097 12.1758C34.9398 12.5283 34.8959 12.775 34.8959 13.0777C34.8959 14.1997 35.6468 14.5315 36.4423 14.5315C37.0781 14.5315 37.4718 14.358 37.6161 14.3081L39.0893 6.89099L41.471 6.89033L41.9412 4.52327H39.5595L39.6753 3.93999C39.8908 2.84658 40.4055 2.36572 41.2974 2.36572C41.8933 2.36572 42.3742 2.47147 42.5418 2.51537L42.9901 0.263375C42.7992 0.215489 41.9186 0 40.6164 0C38.5406 0 37.1805 1.25901 36.7781 3.28687L36.5327 4.52327H34.9817L34.5108 6.89033H36.0625C36.0625 6.89033 35.4506 9.95706 35.0097 12.1758ZM27.9584 4.2998C26.4207 4.2998 25.5754 5.36594 25.2441 6.21659H25.2089L25.3273 4.52327H22.2985C22.2719 5.10988 22.1488 6.1022 21.8402 7.66316C21.5276 9.24475 21.223 10.8217 20.9084 12.3567C20.8546 12.6194 20.8306 12.8761 20.8306 13.0936C20.8306 13.8977 21.2283 14.5309 22.4035 14.5309C22.9862 14.5309 23.3905 14.3799 23.5847 14.3081L24.4859 9.7715C24.8105 8.03628 25.3998 6.889 27.1104 6.889C27.8885 6.889 28.6281 7.05461 28.7824 7.09983L29.3012 4.49002C29.1888 4.45145 28.7405 4.2998 27.9584 4.2998ZM72.3904 8.4892C72.554 7.592 72.0319 6.66553 70.8507 6.66553C69.4088 6.66553 68.7749 7.6492 68.4923 8.4892H72.3904ZM73.7571 12.1299C73.7571 13.4913 72.4376 14.5349 70.1018 14.5349C66.8721 14.5349 65.2932 12.5256 65.2932 10.0661C65.2932 7.62459 66.916 4.3018 70.8766 4.3018C73.4878 4.3018 75.4405 5.59739 75.4405 8.56436C75.4405 9.2933 75.2775 10.0861 75.2077 10.404H68.2668C68.2548 11.1156 68.8554 12.3494 71.2677 12.3494C72.3438 12.3494 73.5609 11.9696 73.7571 11.8732V12.1299ZM17.0403 8.4892C17.2039 7.592 16.6811 6.66553 15.5006 6.66553C14.058 6.66553 13.4248 7.6492 13.1422 8.4892H17.0403ZM18.407 12.1299C18.407 13.4913 17.0875 14.5349 14.7517 14.5349C11.522 14.5349 9.94309 12.5256 9.94309 10.0661C9.94309 7.62459 11.5652 4.3018 15.5259 4.3018C18.1377 4.3018 20.0897 5.59739 20.0897 8.56436C20.0897 9.2933 19.9274 10.0861 19.8576 10.404H12.916C12.9047 11.1156 13.5053 12.3494 15.9176 12.3494C16.993 12.3494 18.2108 11.9696 18.407 11.8732V12.1299ZM0 1.19384H3.08136V10.9228C3.08136 12.3853 3.8103 13.1322 4.98086 13.1322C5.10057 13.1322 5.17041 13.1169 5.19368 13.1116C4.6809 13.8871 4.01581 14.5229 2.48877 14.5229C0.872598 14.5229 0 13.4022 0 11.7215V1.19384Z" fill="#231F20"/>
<path d="M3.93984 9.91755V10.9391C3.93984 11.9255 4.47324 12.2786 5.05586 12.2786C5.65111 12.2786 5.96969 11.8749 6.26167 11.4173C6.75184 10.6491 12.737 1.19357 12.737 1.19357H9.53391L3.93984 9.91755Z" fill="#00ADEF"/>
<path d="M78.2091 5.68612H78.5483C78.8629 5.68612 79.0186 5.53448 79.0186 5.35025C79.0186 5.23851 78.962 5.0749 78.67 5.0749H78.3309L78.2091 5.68612ZM78.1992 4.92925H78.7C79.0013 4.92925 79.1835 5.09086 79.1835 5.32697C79.1835 5.72004 78.817 5.80251 78.6454 5.8218L78.9813 6.64717H78.7991L78.4785 5.83177H78.1799L78.0183 6.64717H77.858L78.1992 4.92925ZM78.3342 7.15264C79.1602 7.15264 79.7322 6.55739 79.8127 5.81914C79.8938 5.08155 79.3631 4.48563 78.6248 4.48563C77.8061 4.48563 77.2268 5.08155 77.1463 5.81914C77.0659 6.55739 77.5966 7.15264 78.3342 7.15264ZM78.6441 4.30805C79.4775 4.30805 80.082 4.98644 79.9909 5.8198C79.8998 6.65249 79.2254 7.33089 78.3149 7.33089C77.4822 7.33089 76.8776 6.65249 76.9681 5.8198C77.0592 4.98644 77.7549 4.30805 78.6441 4.30805Z" fill="#231F20"/>
</g>
<defs>
<clipPath id="clip0_1801_15011">
<rect width="80" height="14.5349" rx="7.26744" fill="white"/>
</clipPath>
</defs>
</svg>
