<svg width="80" height="55" viewBox="0 0 80 55" fill="none" xmlns="http://www.w3.org/2000/svg">
<g clip-path="url(#clip0_1801_9909)">
<path fill-rule="evenodd" clip-rule="evenodd" d="M24.0743 50.0061C36.5299 51.4275 49.3104 47.9358 56.0528 47.2178C57.9611 47.0129 59.3836 47.1544 60.1924 47.7709C61.4177 48.7075 61.3875 49.8851 60.3748 51.9924C59.3348 54.1446 60.6968 55.1105 63.0802 54.29C69.1846 52.1866 81.5621 41.1485 79.7621 25.2363C77.9328 9.08997 62.847 -1.41247 40.0216 0.154358C16.8168 1.75241 1.75334 13.6509 0.108459 27.208C-0.913004 35.6392 5.14455 47.8441 24.0743 50.0061Z" fill="#753C94"/>
<path fill-rule="evenodd" clip-rule="evenodd" d="M23.0939 28.4675L20.5065 24.0763L17.9231 28.4666L23.0939 28.4675ZM29.0685 32.6022C29.1684 32.7731 29.233 32.9623 29.2585 33.1587C29.284 33.355 29.2699 33.5544 29.2171 33.7452C29.1643 33.936 29.0737 34.1143 28.9508 34.2695C28.828 34.4248 28.6752 34.5538 28.5017 34.649C28.2694 34.7808 28.0067 34.8495 27.7397 34.848C27.4713 34.8493 27.2072 34.7807 26.9734 34.649C26.7396 34.5173 26.544 34.327 26.406 34.0968L24.8578 31.4656H16.1592L14.608 34.0978C14.1865 34.8139 13.247 35.0607 12.5143 34.649C12.3402 34.5544 12.1869 34.4257 12.0635 34.2705C11.9402 34.1153 11.8493 33.9369 11.7964 33.7459C11.7435 33.5549 11.7297 33.3552 11.7556 33.1587C11.7816 32.9622 11.8468 32.7729 11.9475 32.6022L13.9182 29.2529L13.9241 29.2412L19.1768 20.3212C19.45 19.8549 19.9563 19.57 20.5065 19.57C21.0578 19.57 21.5631 19.8549 21.8392 20.3212L27.086 29.2334L27.1007 29.2578L29.0685 32.6022ZM40.2519 27.1622L45.4743 22.0617C45.6167 21.9243 45.7299 21.7596 45.8073 21.5775C45.8846 21.3954 45.9245 21.1995 45.9245 21.0017C45.9245 20.8038 45.8846 20.608 45.8073 20.4259C45.7299 20.2438 45.6167 20.0791 45.4743 19.9417C45.1839 19.6592 44.7947 19.5012 44.3895 19.5012C43.9843 19.5012 43.5951 19.6592 43.3046 19.9417L38.0782 25.0412L32.8558 19.9417C32.5646 19.6592 32.1747 19.5012 31.769 19.5012C31.3632 19.5012 30.9734 19.6592 30.6821 19.9417C30.5404 20.0793 30.4278 20.2439 30.3509 20.4258C30.2739 20.6077 30.2343 20.8032 30.2343 21.0007C30.2343 21.1982 30.2739 21.3937 30.3509 21.5756C30.4278 21.7575 30.5404 21.9222 30.6821 22.0597L35.9065 27.1622L30.6802 32.2646C30.5389 32.4023 30.4266 32.5669 30.3499 32.7487C30.2732 32.9305 30.2337 33.1258 30.2337 33.3231C30.2337 33.5205 30.2732 33.7158 30.3499 33.8976C30.4266 34.0794 30.5389 34.244 30.6802 34.3817C30.9826 34.6792 31.3748 34.8236 31.7651 34.8236C32.1621 34.8236 32.5524 34.6792 32.8529 34.3827L38.0782 29.2812L43.3046 34.3827C43.6051 34.6792 43.9982 34.8236 44.3895 34.8236C44.7952 34.8261 45.1854 34.6676 45.4743 34.3827C45.6168 34.2455 45.7301 34.081 45.8075 33.899C45.8849 33.7171 45.9247 33.5214 45.9247 33.3236C45.9247 33.1259 45.8849 32.9302 45.8075 32.7482C45.7301 32.5663 45.6168 32.4018 45.4743 32.2646L40.2519 27.1622ZM48.8587 19.5017C48.0109 19.5017 47.3251 20.1749 47.3251 20.9992V33.3505C47.3251 34.1788 48.0109 34.848 48.8587 34.848C49.7075 34.848 50.3934 34.1788 50.3934 33.3505V20.9992C50.3934 20.1739 49.7085 19.5017 48.8587 19.5017ZM68.4636 30.2636C68.4636 32.7934 66.3573 34.848 63.769 34.848H53.8743C53.0217 34.848 52.3368 34.1788 52.3368 33.3505C52.3368 32.5222 53.0217 31.85 53.8743 31.85H63.769C64.6646 31.85 65.3943 31.1397 65.3943 30.2636C65.3943 29.3885 64.6646 28.6792 63.769 28.6792H56.6129C54.0236 28.6792 51.9163 26.6227 51.9163 24.0939C51.9163 21.5671 54.0236 19.5105 56.6129 19.5105H66.4714C67.3202 19.5105 68.007 20.1797 68.007 21.009C68.007 21.8373 67.3202 22.5075 66.4714 22.5075H56.6129C55.7143 22.5075 54.9865 23.2178 54.9865 24.0929C54.9865 24.968 55.7143 25.6812 56.6129 25.6812H63.769C66.3573 25.6812 68.4636 27.7358 68.4636 30.2636Z" fill="white"/>
</g>
<defs>
<clipPath id="clip0_1801_9909">
<rect width="79.9391" height="54.5803" fill="white"/>
</clipPath>
</defs>
</svg>
