<svg width="80" height="50" viewBox="0 0 80 50" fill="none" xmlns="http://www.w3.org/2000/svg">
<g clip-path="url(#clip0_1801_9961)">
<g clip-path="url(#clip1_1801_9961)">
<path fill-rule="evenodd" clip-rule="evenodd" d="M11.4227 42.6804C9.15464 42.6804 7.29897 42.0206 5.81443 40.701L5.52577 40.4536V42.1443H0V15.8763H5.52577V25.6495L5.81443 25.4021C7.25773 24.0825 9.15464 23.4227 11.4227 23.4227C16.4124 23.3815 20.2062 27.5052 20.2062 33.0309C20.2062 35.7526 19.299 38.2681 17.6082 40.0413C15.9588 41.732 13.7732 42.6804 11.4227 42.6804ZM10.1856 28.0413C7.54639 28.0413 5.48454 30.2268 5.48454 33.0309C5.48454 35.8351 7.54639 38.0206 10.1856 38.0206C12.9072 38.0206 14.8041 35.9588 14.8041 33.0309C14.8041 30.1031 12.9072 28.0413 10.1856 28.0413ZM47.0103 42.6804C45.1134 42.6804 43.7113 41.4845 43.7113 39.7938C43.7113 39.0516 44.0412 38.3093 44.6186 37.7732C45.2371 37.1959 46.0619 36.9072 46.9691 36.9072C48.7835 36.9072 50.268 38.1856 50.268 39.7938C50.268 40.5773 49.9381 41.3196 49.3196 41.8557C48.7423 42.3918 47.9175 42.6804 47.0103 42.6804ZM59.2165 28.8248C59.1753 27.7526 59.134 26.6392 59.134 25.5258C59.134 21.567 59.2577 17.4021 60.1237 13.5258V13.4845C60.1649 13.3608 60.1649 13.1959 60.2062 13.0309C60.2474 12.7835 60.2887 12.5361 60.3711 12.3299L60.4124 12.1237C60.5361 11.5876 60.6186 11.0516 60.7835 10.5567C61.3608 10.1856 61.8144 9.52579 61.9794 8.82476C62.1443 8.12373 62.0206 7.42269 61.6082 6.84537L61.567 6.80414C60.9072 5.93816 60.0412 5.44331 59.0515 5.44331C58.8866 5.44331 58.7216 5.44331 58.5567 5.48455C57.4845 5.60826 56.866 6.35053 56.5361 6.7629L56.3711 6.96909C55.8763 7.71135 55.6289 8.57733 55.4639 9.23713L55.4227 9.40208C55.0103 10.7629 54.7216 12.1237 54.5155 13.5258C54.0206 16.5361 53.6907 19.7114 53.6082 23.0516C53.567 25.3608 53.567 27.7938 53.8144 30.2681C53.9794 32.3711 54.3093 35.0928 55.299 37.567C55.7113 38.7217 56.1649 39.6701 56.7835 40.4536C57.1959 41.0309 57.8144 41.7732 58.7629 42.2268H58.8041C59.5052 42.5567 60.2062 42.7217 60.866 42.7217C62.8866 42.7217 64.9072 41.3196 66.8454 38.5155C68.2062 36.5773 69.3196 34.433 70.1443 32.6186C70.1856 33.6907 70.268 34.7629 70.3505 36C70.8866 42.1443 71.5876 44.2474 71.5876 44.3299C71.9588 45.3608 72.4536 46.5155 73.4021 47.3402L73.4433 47.3815C73.9794 47.7938 74.6392 48.0413 75.299 48.0413C76 48.0413 76.701 47.7526 77.2371 47.2577C77.8144 46.6804 78.0619 46.1031 78.0619 45.4021C78.0619 44.9072 77.8969 44.4124 77.6495 43.8763L76.9485 42.6392H76.9072C76.8247 42.5567 76.3299 41.732 76 37.1134C75.9588 36.6598 75.9175 36.165 75.8763 35.7114C75.7938 34.7217 75.7113 33.6907 75.6701 32.701C75.5876 30.1031 75.5876 27.3402 75.7113 23.7526C75.7526 22.8041 75.7938 21.7732 75.8763 20.8248C75.9175 20.3299 75.9588 19.8351 75.9588 19.3815L76.2474 17.1547C76.3299 16.866 76.4536 16.5773 76.5361 16.2474C76.6598 15.8763 76.7835 15.4639 76.9072 15.0928C77.2783 14.0206 77.8144 12.3711 78.268 10.7217C78.3918 10.3093 78.5155 9.93816 78.6804 9.52579V9.48455C78.8866 8.86599 79.134 8.2062 79.299 7.50517C79.7938 5.9794 80.2474 4.00001 79.5464 2.14434C79.2577 1.27836 78.5567 0.61857 77.732 0.371148C77.4845 0.288673 77.2371 0.247437 76.9897 0.247437C76.3299 0.247437 75.6289 0.494859 75.0928 0.948467C73.7732 2.06187 73.2371 3.58764 72.9485 4.82476C72.7835 5.40208 72.701 5.9794 72.5773 6.47424C72.4948 6.7629 72.4124 7.0928 72.3299 7.42269C72.2474 7.67012 72.1649 7.95878 72.1237 8.2062C71.5464 10.5155 71.134 13.0309 70.7216 15.8763C70.6392 16.165 70.5155 16.4536 70.3918 16.7835L70.268 17.1547C69.8144 18.3918 69.3608 19.6701 68.866 20.866L68.8247 21.0309C68.4948 21.8969 68.1649 22.7217 67.8351 23.5876C66.268 27.8351 64.866 30.9278 63.2577 33.6495L63.2165 33.6907C62.9278 34.2681 62.5567 34.8041 62.1856 35.3402C61.567 36.2062 61.1134 36.5773 60.9072 36.7423C60.9897 36.7835 59.3402 34.598 59.2165 28.8248ZM31.4639 43.0103L23.9175 25.3608H29.8144L34.268 36.3711L39.0103 25.3608H44.9072L34.4742 49.6907H28.5361L31.4639 43.0103Z" fill="#00BCF1"/>
</g>
</g>
<defs>
<clipPath id="clip0_1801_9961">
<rect width="80" height="49.8969" fill="white"/>
</clipPath>
<clipPath id="clip1_1801_9961">
<rect width="80" height="49.8969" fill="white"/>
</clipPath>
</defs>
</svg>
