<svg width="80" height="42" viewBox="0 0 80 42" fill="none" xmlns="http://www.w3.org/2000/svg">
<g clip-path="url(#clip0_1801_9973)">
<path d="M0.00337868 3.28101C0.00337868 1.46807 1.46886 0 3.28349 0C5.0952 0 6.56552 1.46807 6.56552 3.28101C6.56552 5.09643 5.0952 6.56281 3.28349 6.56281C1.46875 6.56281 0.00337868 5.09654 0.00337868 3.28101Z" fill="#ED1C24"/>
<path d="M3.29069 9.17636C1.56408 9.17636 0.120323 10.5509 0 12.35V41.6707H6.58026V12.2524C6.4632 10.5268 5.01832 9.17636 3.29069 9.17636ZM41.6064 9.12751C38.613 9.12751 35.7087 10.1079 33.4227 11.8875L32.1935 12.8441L30.9644 11.8875C28.6771 10.1079 25.7693 9.12751 22.7795 9.12751C16.0515 9.12751 10.1501 14.918 10.1501 21.5209V41.6712H16.7259V21.6033C16.7259 18.3099 19.3898 15.7316 22.7868 15.7316C26.1971 15.7316 28.9723 18.3648 28.9723 21.6033V38.2791C28.9723 40.7408 31.0475 41.3902 32.1558 41.3902C33.8665 41.3902 35.2991 40.0058 35.3476 38.2791V21.5995C35.3476 18.3625 38.1227 15.7317 41.533 15.7317C44.9068 15.7317 47.6551 18.3649 47.6551 21.6034V41.6713H54.2342V21.5209C54.2342 14.918 48.3332 9.12751 41.6064 9.12751ZM70.3323 28.5169C72.1943 28.5169 73.7063 30.0476 73.7063 31.9265C73.7063 33.8087 72.1895 35.3381 70.3275 35.3381H57.4044V41.6651L70.4801 41.6707C75.7303 41.6578 80 37.3099 80 31.981C80 29.91 79.3321 27.8574 78.1127 26.1925L77.5494 25.4244L78.1102 24.6592C79.3308 22.9931 79.9999 20.936 79.9999 18.87C79.9999 13.5242 75.718 9.17625 70.458 9.17625L57.4043 9.18897V15.4659H70.3274C72.1894 15.4659 73.7062 16.9935 73.7062 18.8743C73.7062 20.7544 72.1894 22.2827 70.3274 22.2827L63.357 22.2859C63.3446 22.2859 63.3301 22.2852 63.3153 22.2852C61.595 22.2852 60.199 23.6801 60.199 25.4C60.199 27.122 61.5949 28.5168 63.3153 28.5168L70.3323 28.5169Z" fill="#231F20"/>
</g>
<defs>
<clipPath id="clip0_1801_9973">
<rect width="80" height="41.6713" fill="white"/>
</clipPath>
</defs>
</svg>
