<svg width="80" height="46" viewBox="0 0 80 46" fill="none" xmlns="http://www.w3.org/2000/svg">
<g clip-path="url(#clip0_1801_9915)">
<path fill-rule="evenodd" clip-rule="evenodd" d="M50.8202 0.222007C44.7201 3.7864 38.62 7.3508 32.5156 10.9152C31.5674 11.4782 30.708 11.8931 32.2616 14.2214C37.9638 24.0637 43.666 33.906 49.3724 43.7483C50.5281 45.6448 51.053 45.5855 52.8352 44.4934C58.4485 41.3057 63.9475 37.9911 69.5608 34.7992C71.8298 33.779 71.8341 32.9535 70.3524 30.8284C64.8746 21.2062 59.2867 11.6391 53.8089 2.01691C53.0427 0.539501 52.2468 -0.468013 50.8202 0.222007Z" fill="#DEDEDD"/>
<path fill-rule="evenodd" clip-rule="evenodd" d="M65.1244 26.9592C65.971 29.3806 66.8134 31.8021 67.6601 34.2235C67.931 35.5612 67.4526 36.4586 65.6789 37.0047C63.448 37.6821 61.2298 38.4694 58.9988 39.151C59.6042 38.8674 60.2138 38.5795 60.8191 38.2959C61.107 38.008 61.3737 37.7456 61.6616 37.4577C63.0839 37.0005 64.5232 36.5179 65.9456 36.0607C66.6526 35.8448 67.1394 35.413 66.8558 34.2362C66.6187 33.4911 66.3774 32.7418 66.1403 31.9968L66.1319 31.2263L65.1286 26.9592H65.1244ZM42.2479 33.6562L44.5931 41.1533C45.0884 42.3429 45.4016 42.9228 47.0441 42.2116C48.8433 41.6698 50.6339 41.0602 52.4331 40.5183L53.974 40.421L57.6146 39.6209C54.1137 40.7893 50.5154 41.983 46.9171 43.181C44.6058 44.015 44.2544 42.6858 43.8819 41.6232L39.2846 26.5867L41.4732 32.9154L42.2436 33.6562H42.2479ZM40.8763 5.07755L44.1486 3.66787C40.961 4.76852 37.7691 5.86917 34.5814 6.96558C33.7179 7.28731 33.1972 7.88843 33.43 9.0949C34.1412 11.1057 34.8524 13.1165 35.5678 15.1273C35.2969 13.8192 35.0259 12.5069 34.755 11.1988C34.8185 11.0972 34.8524 10.9702 34.81 10.839C34.6873 10.4411 34.319 9.53093 34.12 8.86631C33.866 8.20592 34.3232 7.7445 35.1445 7.45664C36.842 6.91055 38.5057 6.33059 40.2074 5.7845C40.3768 5.54321 40.5884 5.33154 40.8763 5.07755ZM61.8013 16.6724C61.6489 15.8723 56.9034 1.97457 56.6959 1.30572C55.8916 -0.0785531 54.9392 0.183908 53.9782 0.501402L48.5427 2.24127C49.7957 1.96611 51.0996 1.66555 52.3526 1.39039C52.577 1.46658 52.7971 1.54702 53.0215 1.62321C53.5422 1.42002 54.0629 1.21259 54.5836 1.00939C55.4217 0.691899 55.9636 0.983993 56.2134 1.87298C56.3869 2.44023 58.6771 9.27693 58.8507 9.84419L59.6465 10.7628L61.797 16.6724H61.8013Z" fill="black"/>
<path fill-rule="evenodd" clip-rule="evenodd" d="M49.9143 18.861C47.4082 16.791 42.6797 18.0694 43.4078 22.7598C45.1857 27.3445 51.2097 27.8482 56.061 30.1342C56.9499 26.9846 57.7035 23.7547 58.1141 20.3554C58.021 10.6908 48.7459 14.0393 49.91 18.8653L49.9143 18.861Z" fill="#DA251D"/>
<path fill-rule="evenodd" clip-rule="evenodd" d="M73.8618 24.6987C76.4314 24.923 79.0856 24.4743 79.746 23.3059C80.2794 22.0783 80.1651 20.2792 77.5108 19.8474C76.3001 19.496 75.9826 19.1404 76.5541 18.7891C77.1934 18.4038 77.9426 18.6197 78.8062 19.4283L79.3015 17.1211C77.1214 16.6555 75.3773 16.8799 74.5264 17.2397C73.1802 17.9128 71.7494 19.8855 73.9549 21.456C74.8439 21.8878 75.5932 21.7269 75.9911 22.2603C76.3298 23.4245 74.5518 23.107 73.6713 22.0783C73.5274 22.4762 73.3877 22.9461 73.248 23.2848L69.0528 14.5854L62.6183 15.267L59.782 26.3877L64.6926 25.867L65.0736 23.8774L68.5829 23.5049L69.2518 25.3506L73.8787 24.8595L73.8703 24.7029L73.8618 24.6987ZM66.17 18.6748L67.3341 21.2697L65.6366 21.4518L66.17 18.6748Z" fill="#DA251D"/>
<path fill-rule="evenodd" clip-rule="evenodd" d="M22.4235 25.9136C22.5209 26.8492 22.6225 27.7889 22.7241 28.7245C20.5355 28.9573 18.3427 29.1902 16.1541 29.423C15.9763 29.0166 15.8027 28.6102 15.6249 28.2038L13.1019 28.4705L12.8479 29.8251L6.04085 30.549C5.56673 28.1149 4.70738 27.9371 3.83956 27.8355L4.15282 30.7776L0.817018 31.1332C0.54609 28.5679 0.270928 26.0025 0 23.4329C1.12181 23.3144 2.24362 23.1959 3.36544 23.0773C3.45433 23.9198 3.54323 24.7579 3.63213 25.6004C4.73701 25.4649 5.33813 24.6606 5.20267 22.8826C6.34988 22.7598 7.49709 22.6371 8.6443 22.5185C8.75013 24.1272 8.49614 25.5115 7.45899 26.392C8.29718 26.9846 9.13959 27.8948 9.58408 29.3806C10.1556 26.9973 10.7736 24.559 11.3451 22.1799C12.958 22.0106 14.5709 21.837 16.1795 21.6677C17.2039 23.8817 18.2242 26.0914 19.2486 28.3054C19.0031 26.011 18.7618 23.7166 18.5162 21.4221C20.1206 21.2528 21.7208 21.0835 23.3252 20.9099C25.9117 20.5543 27.5246 22.7471 25.9583 24.669C26.6907 25.5157 27.4145 26.6544 27.7998 28.2461C26.6102 28.3731 25.4164 28.5001 24.2269 28.6271C23.956 26.7518 23.3972 25.7358 22.4235 25.9221V25.9136ZM13.9697 24.6309L13.5422 26.6163L14.8587 26.4766L13.9697 24.6309ZM22.0552 22.709C22.1103 23.2086 22.1611 23.7081 22.2161 24.2076C22.8723 24.0595 23.1982 23.7674 23.1855 23.3356C23.0458 22.5566 22.4405 22.6201 22.0552 22.7133V22.709ZM38.3702 22.9673C38.2432 21.7693 38.1162 20.567 37.9892 19.369C39.0856 19.2547 40.1778 19.1362 41.2742 19.0219C41.4181 20.3808 41.5621 21.7354 41.706 23.0943C41.6679 25.5707 40.4995 26.9762 38.2728 27.154C36.0461 27.3445 34.6195 26.32 34.0607 23.9071C33.9168 22.5482 33.7729 21.1935 33.629 19.8347C34.7254 19.7204 35.8175 19.6018 36.914 19.4875C37.041 20.6855 37.168 21.8878 37.295 23.0858C37.405 24.1907 38.4041 24.1907 38.3702 22.9715V22.9673ZM33.2564 19.8685L26.479 20.5882L26.8431 24.0298L28.6041 23.8436L29.057 28.098L32.3928 27.7424L31.9357 23.4329L33.6417 23.2509L33.2564 19.8643V19.8685Z" fill="black"/>
</g>
<defs>
<clipPath id="clip0_1801_9915">
<rect width="80.0005" height="45.2565" fill="white"/>
</clipPath>
</defs>
</svg>
