<svg width="80" height="34" viewBox="0 0 80 34" fill="none" xmlns="http://www.w3.org/2000/svg">
<g clip-path="url(#clip0_1801_9891)">
<path fill-rule="evenodd" clip-rule="evenodd" d="M43.6971 0H76.4719C78.4127 0 80 1.58727 80 3.52814V11.382C79.4578 9.94008 78.1927 9.00894 75.3403 9.00894C70.8968 9.00894 70.3232 11.268 70.3232 14.199C70.3232 17.1299 70.8968 19.3733 75.3403 19.3733C78.1927 19.3733 79.4578 18.4422 80 17.0082V19.7584L74.6921 25.137H43.6932C41.7523 25.137 40.165 23.5497 40.165 21.6089V19.1298H43.4103C43.6028 19.1298 43.7167 19.0158 43.7167 18.8469V13.3739H49.0404V18.8469C49.0404 19.0158 49.174 19.1298 49.3665 19.1298H52.5921C52.7846 19.1298 52.9182 19.0158 52.9182 18.8469V5.27257C52.9182 5.12327 52.8042 4.98969 52.6314 4.98969H52.5921L49.3665 5.36686C49.1936 5.3865 49.0404 5.4808 49.0404 5.64974V10.6512H43.7167V5.27257C43.7167 5.12327 43.6028 4.98969 43.4496 4.98969H43.4103L40.1847 5.36686H40.165V3.53207C40.165 1.5912 41.7523 0.00392889 43.6932 0.00392889L43.6971 0ZM63.4044 17.1378V12.0224C63.4044 10.9144 63.0233 10.0855 62.0882 9.57863C61.4203 9.20145 60.4459 9.01287 59.1298 9.01287C56.9728 9.01287 55.1026 9.59434 54.7608 9.72793C54.6272 9.78293 54.5133 9.86151 54.5133 10.0462C54.5133 10.0855 54.5133 10.1208 54.533 10.1601L54.8748 11.6649C54.8944 11.7788 54.9691 11.8338 55.083 11.8338C55.1419 11.8338 55.1773 11.8338 55.2362 11.8142C55.6173 11.7002 57.1457 11.2877 58.289 11.2877C58.8233 11.2877 59.2633 11.3427 59.4912 11.4763C59.778 11.6256 59.8527 11.8888 59.8527 12.3406V12.6785L56.6467 13.1657C55.4837 13.3346 53.8218 13.7472 53.8218 16.1006C53.8218 18.9962 56.1477 19.3733 58.6111 19.3733C59.7741 19.3733 60.6542 19.2987 61.4557 19.1298C62.7325 18.8272 63.4005 18.6229 63.4005 17.1378H63.4044ZM59.9116 17.1182V14.5801L58.3872 14.8237C57.7586 14.918 57.2596 15.0673 57.2596 16.0652C57.2596 17.0632 58.0807 17.2675 58.6504 17.2675C59.2791 17.2675 59.9077 17.1182 59.9077 17.1182H59.9116ZM70.1935 18.6033L69.887 17.0239C69.8674 16.8903 69.8124 16.7606 69.6199 16.7606H69.5609C69.3881 16.7999 69.2545 16.8156 68.9323 16.8156C68.5709 16.8156 68.2448 16.5917 68.2448 15.9316V5.34722C68.2448 5.08398 68.0719 4.98969 67.8637 4.98969H67.7301L64.9838 5.3865C64.6773 5.44151 64.642 5.57509 64.642 5.87369V16.3127C64.642 17.9668 65.6163 19.283 67.9226 19.283C69.2191 19.283 69.7928 19.059 69.9656 19.0001C70.0049 18.9805 70.1935 18.8665 70.1935 18.6622V18.6033ZM76.7351 14.2029C76.7351 12.0774 76.6604 11.3073 75.3443 11.3073C74.0281 11.3073 73.9692 12.0774 73.9692 14.2029C73.9692 16.3285 74.0281 17.0789 75.3443 17.0789C76.6604 17.0789 76.7351 16.3088 76.7351 14.2029Z" fill="#FF0000"/>
<path fill-rule="evenodd" clip-rule="evenodd" d="M8.08958 18.9412L4.71859 14.1086L7.90099 9.61399C7.91671 9.5747 7.93635 9.55898 7.93635 9.51969C7.93635 9.44504 7.88528 9.35075 7.76741 9.35075L5.7126 9.29575C5.6301 9.29575 5.55938 9.31539 5.49258 9.42933L2.8288 13.4132H2.25518V5.32757C2.25518 5.11934 2.15303 5.0054 2.00373 5.0054H1.93694L0.286809 5.32757C0.0864355 5.38258 0 5.49651 0 5.72439V18.9215C0 19.0905 0.117867 19.2044 0.271093 19.2044H2.00766C2.1766 19.2044 2.25911 19.0905 2.25911 18.9215V15.1066H2.83273L5.44544 19.0905C5.52794 19.2044 5.61438 19.2044 5.69689 19.2044H7.956C8.05815 19.2044 8.12494 19.1101 8.12494 19.0355C8.12494 18.9962 8.10922 18.9608 8.08958 18.9412ZM16.8824 17.2242V12.0145C16.8824 10.997 16.7135 10.109 15.8531 9.57863C15.3148 9.24074 14.5055 9.04823 13.3111 9.04823C11.5941 9.04823 10.0422 9.51969 9.63756 9.68864C9.55505 9.72792 9.43719 9.80257 9.43719 9.97152V10.0462L9.67292 11.217C9.68864 11.3506 9.77507 11.3859 9.85758 11.3859C9.89294 11.3859 9.92437 11.3663 9.97544 11.3663C10.4823 11.217 11.7277 10.8359 12.875 10.8359C13.48 10.8359 13.8847 10.8909 14.1558 11.0245C14.5762 11.2327 14.6272 11.6099 14.6272 12.1403V12.7453L11.6295 13.2914C10.2819 13.535 8.91857 13.8022 8.91857 16.2381C8.91857 19.2398 11.158 19.448 12.9771 19.448C13.92 19.448 14.7294 19.3341 15.3187 19.1848C16.466 18.8822 16.8864 18.6386 16.8864 17.2203L16.8824 17.2242ZM14.6233 17.5464C14.2697 17.68 13.7315 17.8096 13.0753 17.8096C12.266 17.8096 11.2052 17.6957 11.2052 16.2224C11.2052 14.9966 11.8456 14.8826 12.5371 14.7687L14.6272 14.3915V17.5425L14.6233 17.5464ZM23.9387 10.6551V9.42933C23.9387 9.24074 23.8562 9.16609 23.7855 9.12681C23.7069 9.09014 23.589 9.0718 23.4319 9.0718H23.1451C22.1864 9.09145 20.9881 9.28003 20.2456 9.54327C19.4362 9.8065 19.0512 10.0344 19.0512 10.7691V18.9254C19.0512 19.0944 19.2358 19.2083 19.338 19.2083H21.0549C21.2081 19.2083 21.3064 19.0944 21.3064 18.9254V11.2405C21.7778 11.107 22.654 10.997 23.6833 10.997C23.9191 10.997 23.9348 10.8477 23.9348 10.6551H23.9387ZM30.661 18.6386L30.4607 17.5621C30.4449 17.4285 30.3782 17.3539 30.276 17.3539H30.2092C29.9224 17.4285 29.4352 17.5228 28.9284 17.5228C28.0523 17.5228 27.7497 17.185 27.7497 16.352V11.1227H30.1581C30.3114 11.1227 30.4096 11.0284 30.4096 10.8594V9.5747C30.4096 9.40576 30.3074 9.29182 30.1581 9.29182H27.7497V6.25086C27.7497 6.04263 27.6672 5.94834 27.514 5.94834H27.4315L25.7814 6.28622C25.5967 6.34122 25.4945 6.45516 25.4945 6.68304V16.407C25.4945 18.5404 26.4532 19.3694 28.3744 19.3694C29.4509 19.3694 30.1935 19.1062 30.4803 19.0119C30.6139 18.9726 30.6807 18.8626 30.6807 18.729C30.6807 18.6897 30.665 18.674 30.665 18.6347L30.661 18.6386ZM40.1611 15.7706V9.3704C40.1611 9.16217 40.0589 9.04823 39.9096 9.04823C39.8939 9.04823 39.8586 9.04823 39.8428 9.06787L38.1927 9.39004C37.9923 9.42933 37.9059 9.53934 37.9059 9.78686V15.9041C37.9059 16.9217 37.7212 17.735 36.2361 17.735C34.9239 17.735 34.5349 17.1299 34.5349 15.9238V9.35468C34.5349 9.16609 34.4524 9.05216 34.2835 9.05216H34.2167L32.5665 9.39004C32.3819 9.42933 32.2797 9.53934 32.2797 9.76721V15.7902C32.2797 18.454 33.5095 19.4519 36.2401 19.4519C39.2064 19.4519 40.165 18.1122 40.165 15.7706H40.1611Z" fill="black"/>
<path fill-rule="evenodd" clip-rule="evenodd" d="M43.4889 30.3742V27.3843C43.4889 27.3451 43.4889 27.3058 43.4889 27.2625C43.4889 27.2193 43.481 27.18 43.4653 27.1447C43.4535 27.1093 43.4299 27.0779 43.3985 27.0582C43.3671 27.0386 43.3238 27.0268 43.2688 27.0268C43.2178 27.0268 43.1745 27.0386 43.1431 27.0582C43.1117 27.0779 43.0881 27.1093 43.0763 27.1447C43.0606 27.18 43.0527 27.2193 43.0488 27.2625C43.0488 27.3058 43.0488 27.3451 43.0488 27.3843V30.3742C43.0488 30.4607 43.041 30.5589 43.0292 30.6768C43.0174 30.7946 42.982 30.9046 42.927 31.0107C42.872 31.1168 42.7895 31.2072 42.6795 31.2818C42.5695 31.3565 42.4163 31.3918 42.2277 31.3918C42.0745 31.3918 41.9487 31.3643 41.8466 31.3132C41.7444 31.2622 41.6619 31.1954 41.5951 31.1168C41.5283 31.0343 41.4812 30.9439 41.4498 30.8457C41.4183 30.7435 41.3987 30.6492 41.383 30.555C41.3751 30.5039 41.3594 30.4489 41.3358 30.3939C41.3122 30.3389 41.2612 30.3114 41.1787 30.3114C41.1472 30.3114 41.104 30.3232 41.0529 30.3507C40.9979 30.3782 40.9704 30.4371 40.9704 30.5314C40.9704 30.5353 40.9704 30.555 40.9704 30.5903C40.9704 30.6257 40.9783 30.6689 40.9861 30.7239C40.994 30.7789 41.0058 30.8418 41.0215 30.9086C41.0372 30.9753 41.0608 31.0461 41.0883 31.1129C41.1472 31.2582 41.2258 31.3722 41.3201 31.4586C41.4144 31.545 41.5087 31.6079 41.6108 31.6511C41.7091 31.6943 41.8112 31.7218 41.9094 31.7336C42.0077 31.7454 42.098 31.7533 42.1687 31.7533C42.3023 31.7533 42.4477 31.7415 42.6009 31.714C42.7541 31.6904 42.8995 31.6275 43.0292 31.5332C43.1588 31.439 43.2688 31.2975 43.3513 31.1168C43.4378 30.9361 43.4771 30.6885 43.4771 30.3703L43.4889 30.3742ZM44.4043 28.618V30.5275C44.4043 30.5746 44.4043 30.6335 44.4043 30.7082C44.4043 30.7789 44.4161 30.8575 44.4318 30.94C44.4475 31.0225 44.4711 31.1011 44.5064 31.1836C44.5418 31.2661 44.5929 31.3407 44.6557 31.4075C44.6832 31.439 44.7186 31.4743 44.7697 31.5136C44.8207 31.5529 44.8797 31.5922 44.9543 31.6275C45.029 31.6629 45.1154 31.6943 45.2136 31.7218C45.3119 31.7493 45.4258 31.7611 45.5554 31.7611C45.7126 31.7611 45.8462 31.7415 45.9641 31.7061C46.078 31.6708 46.1801 31.6236 46.2626 31.5686C46.3491 31.5136 46.4198 31.4507 46.4827 31.3879C46.5416 31.3211 46.5966 31.2582 46.6477 31.1914V31.435C46.6477 31.4743 46.6477 31.5097 46.6477 31.549C46.6477 31.5883 46.6555 31.6236 46.6673 31.655C46.6791 31.6865 46.6948 31.714 46.7223 31.7336C46.7498 31.7533 46.7891 31.7611 46.8402 31.7611C46.8913 31.7611 46.9306 31.7533 46.9581 31.7336C46.9856 31.714 47.0052 31.6904 47.017 31.655C47.0288 31.6236 47.0366 31.5883 47.0406 31.549C47.0406 31.5097 47.0406 31.4704 47.0406 31.435V28.6219C47.0406 28.5827 47.0406 28.5434 47.0406 28.508C47.0406 28.4687 47.0327 28.4334 47.017 28.4019C47.0052 28.3705 46.9856 28.343 46.9581 28.3233C46.9306 28.3037 46.8913 28.2958 46.8402 28.2958C46.7891 28.2958 46.7498 28.3076 46.7223 28.3273C46.6948 28.3469 46.6791 28.3744 46.6673 28.4059C46.6555 28.4373 46.6516 28.4726 46.6477 28.5119C46.6477 28.5512 46.6477 28.5866 46.6477 28.6219V29.8045C46.6477 30.0874 46.6398 30.3035 46.6241 30.4528C46.6084 30.606 46.577 30.7278 46.5298 30.826C46.4434 31.0146 46.3098 31.16 46.1369 31.2622C45.9601 31.3643 45.7794 31.4154 45.5908 31.4154C45.4572 31.4154 45.3315 31.3879 45.2176 31.3368C45.1036 31.2857 45.0093 31.2072 44.9386 31.1089C44.8758 31.0225 44.8404 30.9243 44.8247 30.8064C44.809 30.6885 44.8011 30.5628 44.8011 30.4253V28.6219C44.8011 28.5827 44.8011 28.5434 44.8011 28.508C44.8011 28.4687 44.7932 28.4334 44.7815 28.4019C44.7697 28.3705 44.754 28.343 44.7265 28.3233C44.6989 28.3037 44.6597 28.2958 44.6086 28.2958C44.5575 28.2958 44.5182 28.3076 44.4907 28.3273C44.4632 28.3469 44.4436 28.3744 44.4318 28.4059C44.42 28.4373 44.4121 28.4726 44.4082 28.5119C44.4082 28.5512 44.4082 28.5866 44.4082 28.6219L44.4043 28.618ZM50.5058 30.7514C50.5058 30.5353 50.4508 30.3664 50.3448 30.2446C50.2348 30.1228 50.1012 30.0285 49.9362 29.9578C49.7711 29.887 49.5943 29.832 49.4058 29.7967C49.2172 29.7613 49.0364 29.7142 48.8754 29.667C48.7103 29.6199 48.5768 29.557 48.4668 29.4824C48.3567 29.4077 48.3017 29.2977 48.3017 29.1484C48.3017 29.0581 48.3253 28.9795 48.3685 28.9166C48.4117 28.8498 48.4707 28.7948 48.5493 28.7516C48.6239 28.7084 48.7103 28.673 48.8086 28.6534C48.9068 28.6337 49.0089 28.6219 49.1189 28.6219C49.3193 28.6219 49.4961 28.6612 49.6493 28.7398C49.8026 28.8184 49.9087 28.9323 49.9597 29.0816C49.9912 29.1681 50.0187 29.2231 50.0462 29.2427C50.0737 29.2663 50.109 29.2781 50.1522 29.2781C50.1915 29.2781 50.223 29.2702 50.2465 29.2545C50.2701 29.2388 50.2898 29.2231 50.3015 29.2034C50.3133 29.1838 50.3251 29.1681 50.329 29.1484C50.333 29.1327 50.3369 29.117 50.3369 29.1091C50.3369 29.0973 50.3251 29.0463 50.3055 28.9598C50.2819 28.8734 50.2308 28.7791 50.1483 28.6809C50.0658 28.5827 49.9401 28.4962 49.7751 28.4137C49.6101 28.3351 49.3861 28.2958 49.1032 28.2958C48.8361 28.2958 48.6278 28.3351 48.4707 28.4098C48.3135 28.4844 48.1957 28.5787 48.1132 28.6809C48.0306 28.787 47.9756 28.8891 47.9521 28.9913C47.9285 29.0934 47.9167 29.172 47.9167 29.2231C47.9167 29.3645 47.9481 29.4863 48.011 29.5884C48.0739 29.6906 48.1485 29.7731 48.231 29.832C48.2978 29.8792 48.3646 29.9185 48.4353 29.946C48.506 29.9774 48.5846 30.0049 48.675 30.0324C48.7653 30.0599 48.8754 30.0874 48.9972 30.1189C49.1189 30.1503 49.2682 30.1856 49.4372 30.2328C49.4883 30.2446 49.5551 30.2642 49.6297 30.2878C49.7044 30.3114 49.779 30.3467 49.8497 30.3899C49.9204 30.4332 49.9794 30.4921 50.0304 30.5589C50.0815 30.6257 50.1051 30.7121 50.1051 30.8143C50.1051 30.8928 50.0855 30.9675 50.0501 31.0421C50.0147 31.1168 49.9558 31.1836 49.8851 31.2425C49.8104 31.3014 49.7161 31.3486 49.6022 31.3879C49.4883 31.4232 49.3468 31.4429 49.1897 31.4429C49.1347 31.4429 49.0639 31.439 48.9775 31.4311C48.8911 31.4232 48.8086 31.3997 48.7182 31.3604C48.6318 31.3211 48.5453 31.2661 48.4628 31.1914C48.3803 31.1168 48.3096 31.0146 48.2546 30.8889C48.231 30.8339 48.2074 30.7828 48.1839 30.7435C48.1564 30.7003 48.1132 30.6807 48.0542 30.6807C48.0071 30.6807 47.9639 30.6964 47.9206 30.7278C47.8774 30.7593 47.8578 30.8025 47.8578 30.8575C47.8578 30.9518 47.8892 31.0579 47.956 31.1757C48.0228 31.2936 48.1053 31.3957 48.2114 31.4861C48.2507 31.5215 48.2978 31.5529 48.3528 31.5883C48.4078 31.6236 48.4707 31.6511 48.5493 31.6786C48.6239 31.7061 48.7143 31.7258 48.8125 31.7415C48.9107 31.7572 49.0286 31.769 49.1661 31.769C49.4647 31.769 49.7083 31.7297 49.889 31.6511C50.0697 31.5725 50.2073 31.4782 50.3015 31.3682C50.3958 31.2582 50.4548 31.1482 50.4823 31.0343C50.5098 30.9203 50.5255 30.83 50.5255 30.7632L50.5058 30.7514ZM51.8181 28.3666V27.7576C51.8181 27.6397 51.8102 27.5415 51.7906 27.4708C51.7749 27.4001 51.7159 27.3608 51.6138 27.3608C51.5116 27.3608 51.4566 27.4001 51.4409 27.4747C51.4252 27.5533 51.4173 27.6515 51.4173 27.7733V28.3626H51.213C51.1698 28.3626 51.1148 28.3705 51.052 28.3823C50.9891 28.3941 50.9577 28.4373 50.9577 28.5119C50.9577 28.5473 50.9655 28.5709 50.9852 28.5905C51.0009 28.6102 51.0245 28.6219 51.052 28.6337C51.0795 28.6416 51.107 28.6494 51.1384 28.6494C51.1698 28.6494 51.1934 28.6494 51.217 28.6494H51.4213V30.8732C51.4213 30.9714 51.4252 31.0696 51.4331 31.1718C51.4409 31.27 51.4684 31.3643 51.5156 31.4429C51.5627 31.5254 51.6334 31.5922 51.7356 31.6433C51.8338 31.6983 51.9752 31.7218 52.1599 31.7218C52.2974 31.7218 52.4114 31.7061 52.4978 31.6786C52.5842 31.6511 52.6235 31.6 52.6235 31.5293C52.6235 31.4861 52.6117 31.4507 52.5842 31.4193C52.5567 31.3879 52.5214 31.3761 52.4742 31.3761C52.4664 31.3761 52.4467 31.3761 52.4231 31.3761C52.3956 31.3761 52.3681 31.38 52.3406 31.3839C52.3131 31.3879 52.2856 31.3918 52.2581 31.3918C52.2306 31.3918 52.211 31.3918 52.1992 31.3918C52.0342 31.3918 51.9281 31.3447 51.8849 31.2543C51.8417 31.1639 51.8181 31.0186 51.8181 30.8182V28.6377H52.1835C52.2267 28.6377 52.2817 28.6298 52.3446 28.618C52.4074 28.6062 52.4389 28.563 52.4389 28.4884C52.4389 28.453 52.431 28.4294 52.4114 28.4098C52.3956 28.3901 52.3721 28.3784 52.3446 28.3666C52.3171 28.3587 52.2896 28.3509 52.2581 28.3509C52.2267 28.3509 52.2031 28.3509 52.1796 28.3509H51.8142L51.8181 28.3666ZM55.0869 28.0169V28.3666H54.7412C54.7412 28.3666 54.7019 28.3666 54.6744 28.3666C54.6469 28.3666 54.6194 28.3744 54.588 28.3823C54.5605 28.3901 54.5369 28.4059 54.5172 28.4255C54.4976 28.4451 54.4897 28.4726 54.4897 28.5041C54.4897 28.5434 54.4976 28.5709 54.5172 28.5905C54.5369 28.6102 54.5605 28.6219 54.584 28.6337C54.6115 28.6416 54.639 28.6494 54.6665 28.6494C54.694 28.6494 54.7215 28.6494 54.7412 28.6494H55.0869V31.4311C55.0869 31.4704 55.0869 31.5057 55.0869 31.5411C55.0869 31.5765 55.0948 31.6118 55.1105 31.6433C55.1223 31.6747 55.1419 31.7022 55.1694 31.7218C55.1969 31.7415 55.2362 31.7493 55.2873 31.7493C55.3816 31.7493 55.4405 31.714 55.4562 31.6433C55.472 31.5725 55.4837 31.5018 55.4837 31.4272V28.6455H55.9199C55.9199 28.6455 55.9552 28.6455 55.9827 28.6455C56.0102 28.6455 56.0377 28.6377 56.0691 28.6298C56.0967 28.6219 56.1242 28.6062 56.1438 28.5866C56.1674 28.5669 56.1752 28.5394 56.1752 28.5001C56.1752 28.4648 56.1674 28.4412 56.1477 28.4216C56.132 28.4019 56.1084 28.3901 56.0809 28.3784C56.0534 28.3705 56.0259 28.3626 55.9945 28.3626C55.9631 28.3626 55.9395 28.3626 55.9159 28.3626H55.4798V28.068C55.4798 27.9658 55.4837 27.8715 55.4916 27.7851C55.4995 27.6987 55.523 27.6279 55.5584 27.5651C55.5938 27.5022 55.6488 27.4551 55.7195 27.4236C55.7902 27.3922 55.8845 27.3765 56.0063 27.3765C56.0141 27.3765 56.0338 27.3765 56.0574 27.3765C56.0849 27.3765 56.1124 27.3804 56.1438 27.3843C56.1752 27.3883 56.2027 27.3922 56.2302 27.3922C56.2577 27.3922 56.2774 27.3922 56.2892 27.3922C56.3363 27.3922 56.3756 27.3765 56.407 27.3411C56.4385 27.3058 56.4542 27.2704 56.4542 27.2272C56.4542 27.2154 56.4503 27.1918 56.4385 27.1643C56.4267 27.1329 56.4031 27.1093 56.3638 27.0857C56.3245 27.0661 56.2577 27.0465 56.1634 27.0307C56.0692 27.015 55.9788 27.0072 55.8845 27.0072C55.747 27.0072 55.6095 27.0386 55.4759 27.1015C55.3423 27.1643 55.2441 27.2586 55.1773 27.3843C55.1537 27.4197 55.1341 27.4786 55.1105 27.5651C55.0869 27.6515 55.0791 27.7969 55.0791 27.9973L55.0869 28.0169ZM59.4637 30.0285C59.4637 30.3624 59.4205 30.6335 59.338 30.8457C59.2516 31.0579 59.1376 31.2347 58.9962 31.3682C58.8469 31.5057 58.6858 31.604 58.5051 31.6629C58.3283 31.7218 58.1436 31.7533 57.9511 31.7533C57.7114 31.7533 57.4993 31.71 57.3107 31.6236C57.1221 31.5372 56.9649 31.4193 56.8353 31.27C56.7056 31.1168 56.6074 30.94 56.5367 30.7318C56.466 30.5235 56.4345 30.2917 56.4345 30.0403C56.4345 29.8595 56.4581 29.671 56.5013 29.4667C56.5445 29.2624 56.6231 29.0738 56.7331 28.897C56.8431 28.7241 56.9964 28.5787 57.1928 28.4609C57.3893 28.3469 57.6407 28.288 57.9511 28.288C58.12 28.288 58.289 28.3076 58.4501 28.3509C58.6151 28.3941 58.7762 28.4844 58.9372 28.6259C58.9922 28.6769 59.0551 28.7398 59.118 28.8105C59.1808 28.8813 59.2398 28.9716 59.2908 29.0816C59.3419 29.1916 59.3851 29.3213 59.4166 29.4745C59.448 29.6277 59.4637 29.8124 59.4637 30.0246V30.0285ZM59.0472 30.0481C59.0472 29.9971 59.0472 29.9263 59.0394 29.832C59.0315 29.7377 59.0158 29.6395 58.9922 29.5334C58.9687 29.4274 58.9333 29.3174 58.8862 29.2073C58.839 29.0973 58.7762 28.9991 58.6976 28.9088C58.619 28.8223 58.5168 28.7477 58.399 28.6927C58.2811 28.6337 58.1357 28.6062 57.9668 28.6062C57.6368 28.6062 57.3696 28.728 57.1653 28.9677C56.961 29.2073 56.8589 29.5531 56.8589 30.0049C56.8589 30.2328 56.8864 30.4332 56.9453 30.61C57.0042 30.7868 57.0789 30.9361 57.1771 31.0579C57.2753 31.1797 57.3932 31.27 57.5268 31.3368C57.6603 31.3997 57.8096 31.4311 57.9707 31.4311C58.1475 31.4311 58.3047 31.3957 58.4422 31.3211C58.5758 31.2504 58.6897 31.1482 58.7801 31.0225C58.8704 30.8968 58.9412 30.7514 58.9844 30.5825C59.0315 30.4135 59.0512 30.2328 59.0512 30.0442L59.0472 30.0481ZM60.6659 30.1189C60.6659 30.1189 60.6659 30.0521 60.6738 29.9735C60.6817 29.8949 60.6856 29.8006 60.6935 29.6985C60.7013 29.5963 60.717 29.4942 60.7367 29.3881C60.7563 29.282 60.7799 29.2034 60.8035 29.1406C60.8506 29.0345 60.9017 28.952 60.9606 28.893C61.0156 28.8341 61.0746 28.7909 61.1296 28.7634C61.1846 28.7359 61.2356 28.7202 61.2828 28.7123C61.3299 28.7045 61.3653 28.7044 61.3967 28.7044C61.4635 28.7044 61.5264 28.7123 61.5932 28.732C61.5971 28.732 61.6128 28.7359 61.6403 28.7437C61.6678 28.7516 61.6953 28.7595 61.7228 28.7712C61.7503 28.7791 61.7778 28.787 61.8053 28.7948C61.8328 28.8027 61.8485 28.8027 61.8525 28.8027C61.8878 28.8027 61.9271 28.787 61.9664 28.7516C62.0057 28.7162 62.0293 28.6691 62.0293 28.6102C62.0293 28.5591 62.0057 28.5159 61.9625 28.4766C61.9193 28.4373 61.8643 28.4059 61.8014 28.3823C61.7385 28.3548 61.6717 28.3351 61.601 28.3233C61.5303 28.3076 61.4674 28.2998 61.4124 28.2998C61.2789 28.2998 61.1649 28.3273 61.0746 28.3823C60.9842 28.4373 60.9095 28.5041 60.8506 28.5787C60.7917 28.6534 60.7445 28.7359 60.7092 28.8223C60.6738 28.9088 60.6463 28.9795 60.6227 29.0384V28.5787C60.6227 28.5159 60.6149 28.4491 60.5992 28.3862C60.5834 28.3233 60.5324 28.2919 60.4459 28.2919C60.3595 28.2919 60.3084 28.3233 60.2927 28.3862C60.277 28.4491 60.2691 28.5159 60.2691 28.5787V31.549C60.2691 31.5843 60.2731 31.6197 60.2848 31.6511C60.2966 31.6825 60.3163 31.71 60.3438 31.7297C60.3713 31.7493 60.4145 31.7611 60.4695 31.7611C60.5206 31.7611 60.5638 31.7493 60.5913 31.7297C60.6188 31.71 60.6384 31.6825 60.6502 31.6511C60.662 31.6197 60.6659 31.5843 60.6659 31.549V30.1189ZM66.4807 28.5119L65.3845 31.2268L64.3473 28.5552C64.3159 28.4726 64.2884 28.4098 64.2609 28.3587C64.2334 28.3076 64.1823 28.2841 64.1077 28.2841C64.0448 28.2841 63.9976 28.3037 63.9623 28.343C63.9269 28.3823 63.9112 28.4255 63.9112 28.4687C63.9112 28.5001 63.9151 28.5276 63.923 28.5512C63.9309 28.5787 63.9466 28.618 63.9701 28.6809L65.1763 31.6708L64.9406 32.2522C64.8934 32.3622 64.8424 32.4526 64.7834 32.5194C64.7245 32.5862 64.6341 32.6176 64.5084 32.6176C64.4848 32.6176 64.4455 32.6176 64.3827 32.6098C64.3198 32.6058 64.2766 32.6019 64.2491 32.6019C64.1862 32.6019 64.143 32.6216 64.1155 32.6608C64.088 32.7001 64.0723 32.7394 64.0723 32.7826C64.0723 32.8337 64.088 32.873 64.1194 32.9044C64.1509 32.9359 64.1941 32.9594 64.2412 32.9752C64.2884 32.9909 64.3395 33.0027 64.3945 33.0066C64.4495 33.0105 64.4966 33.0144 64.5359 33.0144C64.6066 33.0144 64.6734 33.0066 64.7441 32.9869C64.8149 32.9712 64.8816 32.9359 64.9484 32.8887C65.0152 32.8416 65.082 32.7708 65.1449 32.6805C65.2077 32.5901 65.2706 32.4723 65.3295 32.3308L66.8186 28.6377C66.8422 28.5827 66.8539 28.5434 66.8657 28.5237C66.8736 28.5041 66.8775 28.4766 66.8775 28.4491C66.8775 28.4137 66.8618 28.3784 66.8264 28.343C66.7911 28.3076 66.7479 28.288 66.6968 28.288C66.6379 28.288 66.5907 28.3076 66.5671 28.3469C66.5396 28.3862 66.5121 28.4412 66.4807 28.5119ZM70.1817 30.0285C70.1817 29.8163 70.166 29.6317 70.1346 29.4784C70.1031 29.3252 70.0599 29.1956 70.0088 29.0856C69.9578 28.9755 69.8988 28.8852 69.836 28.8145C69.7731 28.7437 69.7142 28.6809 69.6552 28.6298C69.4942 28.4884 69.3331 28.398 69.1681 28.3548C69.003 28.3116 68.838 28.2919 68.6691 28.2919C68.3587 28.2919 68.1073 28.3508 67.9108 28.4648C67.7144 28.5787 67.5611 28.7241 67.4511 28.9009C67.3411 29.0738 67.2625 29.2663 67.2193 29.4706C67.1761 29.6749 67.1525 29.8674 67.1525 30.0442C67.1525 30.2956 67.1879 30.5275 67.2547 30.7357C67.3215 30.9439 67.4197 31.1246 67.5533 31.2739C67.6829 31.4232 67.844 31.545 68.0287 31.6275C68.2173 31.714 68.4294 31.7572 68.6691 31.7572C68.8616 31.7572 69.0463 31.7258 69.2231 31.6668C69.3999 31.6079 69.5649 31.5097 69.7142 31.3722C69.8595 31.2347 69.9735 31.0618 70.056 30.8496C70.1424 30.6375 70.1817 30.3624 70.1817 30.0324V30.0285ZM69.7653 30.0481C69.7653 30.2406 69.7417 30.4214 69.6985 30.5864C69.6513 30.7553 69.5845 30.9007 69.4942 31.0264C69.4038 31.1521 69.2899 31.2504 69.1563 31.325C69.0227 31.3957 68.8655 31.435 68.6848 31.435C68.5237 31.435 68.3744 31.4036 68.2408 31.3407C68.1073 31.2779 67.9894 31.1836 67.8912 31.0618C67.7929 30.94 67.7144 30.7907 67.6594 30.6139C67.6044 30.4371 67.5729 30.2367 67.5729 30.0088C67.5729 29.557 67.6751 29.2113 67.8794 28.9716C68.0837 28.732 68.3509 28.6102 68.6809 28.6102C68.8498 28.6102 68.9952 28.6377 69.1131 28.6966C69.2309 28.7555 69.3331 28.8262 69.4117 28.9127C69.4902 28.9991 69.557 29.0973 69.6002 29.2113C69.6474 29.3213 69.6788 29.4313 69.7063 29.5374C69.7299 29.6435 69.7456 29.7417 69.7535 29.836C69.7613 29.9263 69.7613 29.9971 69.7613 30.0521L69.7653 30.0481ZM70.9321 28.618V30.5275C70.9321 30.5746 70.9321 30.6335 70.9321 30.7082C70.9321 30.7789 70.9439 30.8575 70.9596 30.94C70.9753 31.0225 70.9989 31.1011 71.0343 31.1836C71.0696 31.2661 71.1207 31.3407 71.1836 31.4075C71.2111 31.439 71.2464 31.4743 71.2975 31.5136C71.3486 31.5529 71.4115 31.5922 71.4822 31.6275C71.5568 31.6629 71.6433 31.6943 71.7415 31.7218C71.8397 31.7493 71.9536 31.7611 72.0833 31.7611C72.2405 31.7611 72.374 31.7415 72.4919 31.7061C72.6058 31.6708 72.708 31.6236 72.7905 31.5686C72.8769 31.5136 72.9477 31.4507 73.0105 31.3879C73.0734 31.3211 73.1245 31.2582 73.1755 31.1914V31.435C73.1755 31.4743 73.1755 31.5097 73.1755 31.549C73.1755 31.5883 73.1834 31.6236 73.1952 31.655C73.207 31.6865 73.2227 31.714 73.2502 31.7336C73.2777 31.7533 73.317 31.7611 73.368 31.7611C73.4191 31.7611 73.4584 31.7533 73.4859 31.7336C73.5134 31.714 73.5331 31.6904 73.5448 31.655C73.5566 31.6236 73.5645 31.5883 73.5684 31.549C73.5684 31.5097 73.5684 31.4704 73.5684 31.435V28.6219C73.5684 28.5827 73.5684 28.5434 73.5684 28.508C73.5684 28.4687 73.5606 28.4334 73.5448 28.4019C73.5331 28.3705 73.5134 28.343 73.4859 28.3233C73.4584 28.3037 73.4191 28.2958 73.368 28.2958C73.317 28.2958 73.2777 28.3076 73.2502 28.3273C73.2227 28.3469 73.207 28.3744 73.1952 28.4059C73.1834 28.4373 73.1795 28.4726 73.1755 28.5119C73.1755 28.5512 73.1755 28.5866 73.1755 28.6219V29.8045C73.1755 30.0874 73.1677 30.3035 73.1519 30.4528C73.1362 30.606 73.1048 30.7278 73.0577 30.826C72.9712 31.0146 72.8376 31.16 72.6648 31.2622C72.488 31.3643 72.3072 31.4154 72.1187 31.4154C71.9851 31.4154 71.8594 31.3879 71.7454 31.3368C71.6315 31.2857 71.5372 31.2072 71.4665 31.1089C71.4036 31.0225 71.3682 30.9243 71.3525 30.8064C71.3368 30.6885 71.3289 30.5628 71.3289 30.4253V28.6219C71.3289 28.5827 71.3289 28.5434 71.3289 28.508C71.3289 28.4687 71.3211 28.4334 71.3093 28.4019C71.2975 28.3705 71.2818 28.343 71.2543 28.3233C71.2268 28.3037 71.1875 28.2958 71.1364 28.2958C71.0854 28.2958 71.0461 28.3076 71.0186 28.3273C70.9911 28.3469 70.9714 28.3744 70.9596 28.4059C70.9478 28.4373 70.94 28.4726 70.9361 28.5119C70.9361 28.5512 70.9361 28.5866 70.9361 28.6219L70.9321 28.618Z" fill="#333333"/>
</g>
<defs>
<clipPath id="clip0_1801_9891">
<rect width="80" height="33.0144" fill="white"/>
</clipPath>
</defs>
</svg>
