<svg width="80" height="25" viewBox="0 0 80 25" fill="none" xmlns="http://www.w3.org/2000/svg">
<g clip-path="url(#clip0_1801_9936)">
<g clip-path="url(#clip1_1801_9936)">
<mask id="mask0_1801_9936" style="mask-type:luminance" maskUnits="userSpaceOnUse" x="0" y="0" width="80" height="25">
<path d="M79.6921 0H0.365234V24.8705H79.6921V0Z" fill="white"/>
</mask>
<g mask="url(#mask0_1801_9936)">
<path d="M13.8159 24.4427C12.9356 24.4427 12.0612 24.3274 11.2023 24.0974C7.68159 23.154 4.83268 21.4972 2.96402 19.3061C1.39441 17.4676 0.525453 15.2892 0.381969 12.8311C0.0815901 7.72536 3.86918 2.00611 8.17639 1.06273C9.22236 0.834089 10.2321 0.90516 11.1775 1.27326C11.6998 1.47642 12.196 1.76406 12.6539 2.12948C15.2876 4.23549 17.745 4.99181 19.7189 5.59927C20.0608 5.70451 20.3847 5.80445 20.6985 5.907L20.7394 5.91976C21.5131 6.17522 22.4022 6.50845 23.1297 7.04217C24.4284 7.99893 25.0634 9.50082 25.1901 11.9119C25.3423 14.8171 24.4365 17.6795 22.6389 19.9725C20.9063 22.1831 18.5087 23.6958 15.8877 24.2308C15.1951 24.3716 14.5031 24.4413 13.8159 24.4413V24.4427ZM9.35645 1.43954C9.00512 1.43954 8.64777 1.4791 8.28503 1.55822C6.3822 1.97526 4.45585 3.46308 2.99956 5.64084C1.51979 7.85278 0.750738 10.463 0.888189 12.8017C1.02497 15.147 1.85302 17.2242 3.34956 18.9769C5.15115 21.0903 7.91156 22.6914 11.3331 23.6079C12.7874 23.9975 14.2859 24.0404 15.7865 23.7353C18.2894 23.2238 20.5811 21.7768 22.2399 19.6608C23.9618 17.4642 24.83 14.7219 24.6839 11.9394C24.5665 9.69394 23.9946 8.31006 22.8299 7.45183C22.1695 6.96772 21.3435 6.65527 20.616 6.4139L20.5785 6.40184C20.2573 6.29589 19.9234 6.1933 19.5694 6.0847C17.5539 5.46451 15.0462 4.69207 12.3368 2.5264C11.9198 2.19317 11.4678 1.93101 10.9931 1.74662C10.4688 1.54213 9.92101 1.43954 9.35579 1.43954H9.35645Z" fill="#FF00FF"/>
<path d="M14.3254 22.7894C14.2288 22.7894 14.1316 22.7867 14.0351 22.7813C10.5559 22.5969 4.64285 19.3531 2.23447 15.4482C1.38898 14.0777 1.03899 12.7434 1.19387 11.4829C1.44665 9.45734 2.60592 7.37212 4.54631 5.4505L4.55099 5.44582C4.55908 5.43778 4.56641 5.4304 4.5745 5.42236L4.62076 5.37676C6.39419 3.64689 8.71075 2.15372 10.9924 1.27269C12.2797 0.773177 13.4786 0.504982 14.4595 0.496265H14.55C14.6104 0.494922 14.6694 0.494254 14.7284 0.496265C18.9779 0.675287 22.2318 3.23789 23.2248 7.18439C23.6593 8.90754 23.6559 10.8292 23.2141 12.897C23.0109 13.8477 22.7173 14.8206 22.3418 15.7881C20.6964 20.0169 17.5035 22.7887 14.3248 22.7887L14.3254 22.7894ZM4.83062 5.88433C3.01626 7.70402 1.93342 9.65983 1.69808 11.5453C1.55795 12.6878 1.88381 13.9114 2.66694 15.182C4.99688 18.9602 10.7061 22.0974 14.0626 22.2751C17.069 22.432 20.2794 19.693 21.8698 15.6051C22.2358 14.663 22.5215 13.7163 22.7186 12.7917C23.1444 10.801 23.149 8.95649 22.7333 7.30911C21.7973 3.58856 18.7238 1.17279 14.7116 1.00383C14.6633 1.00248 14.6097 1.00315 14.5547 1.00383H14.4649C13.5449 1.01254 12.4078 1.26934 11.1761 1.74673C8.94005 2.60965 6.66909 4.07735 4.93856 5.77705L4.88625 5.88499H4.82992L4.83062 5.88433Z" fill="#8700DC"/>
<path d="M12.0432 24.8706C10.3214 24.8706 8.613 24.5018 7.1158 23.7743C5.04732 22.7686 3.59573 21.1956 2.91719 19.2237C1.87056 16.5217 2.15016 13.662 2.56988 11.7404L2.58999 11.6465C2.9011 10.2077 3.4214 7.79995 4.49756 5.52431C5.43957 3.425 6.81341 1.82185 8.47153 0.887192C10.3026 -0.144692 12.3892 -0.280131 14.5086 0.495627H14.51L14.5555 0.512386C19.0579 2.23085 22.944 7.75635 23.2196 12.83C23.4127 15.0808 22.6866 17.6521 21.2256 19.8775C19.7961 22.0552 17.8584 23.6402 15.9093 24.2256C14.6709 24.6567 13.3527 24.8699 12.0419 24.8699L12.0432 24.8706ZM11.8387 0.522446C9.34788 0.522446 6.68533 1.88756 4.95949 5.73484L4.9575 5.73952C3.90617 7.96286 3.39324 10.3357 3.08616 11.7538L3.06604 11.8484C2.66107 13.7023 2.38885 16.456 3.39391 19.0501C4.03021 20.9006 5.39331 22.373 7.33773 23.3184C9.8554 24.542 13.002 24.7016 15.7544 23.7442C19.715 22.5547 23.0929 17.2699 22.7147 12.8668C22.4539 8.0601 18.6509 2.6365 14.4027 0.998492L14.3752 0.989107C13.5847 0.694761 12.7224 0.523117 11.8387 0.523117V0.522446Z" fill="#0000FF"/>
<path d="M12.7882 19.4491C8.92085 19.4491 5.7749 16.3032 5.7749 12.4358C5.7749 8.56843 8.92085 5.42249 12.7882 5.42249C16.6556 5.42249 19.8016 8.5691 19.8016 12.4358C19.8016 16.3025 16.6556 19.4491 12.7882 19.4491ZM12.7882 5.92939C9.20044 5.92939 6.2818 8.84802 6.2818 12.4358C6.2818 16.0236 9.20044 18.9422 12.7882 18.9422C16.376 18.9422 19.2947 16.0236 19.2947 12.4358C19.2947 8.84802 16.376 5.92939 12.7882 5.92939Z" fill="#0000FF"/>
<path d="M30.4629 16.725V8.02136H32.5662V14.9113H36.9908V16.7243H30.4636L30.4629 16.725Z" fill="black"/>
<path d="M39.8709 16.725H37.7676V8.02136H39.8709V16.725Z" fill="black"/>
<path d="M45.1588 13.1271H45.2459L45.8992 11.5897L47.5526 8.02136H49.946L45.3769 16.725H45.0001L40.4741 8.02136H42.8243L44.4923 11.5897L45.1597 13.1271H45.1588Z" fill="black"/>
<path d="M56.4656 13.2002H52.6359V14.912H57.4521V16.725H50.5327V8.02136H57.4521V9.83434H52.6359V11.5461H56.4656V13.1995V13.2002Z" fill="black"/>
<path d="M58.5791 15.6805C58.5791 15.3519 58.6902 15.0737 58.9124 14.8463C59.135 14.6191 59.4106 14.5057 59.7389 14.5057C60.0676 14.5057 60.3457 14.6197 60.5733 14.8463C60.8004 15.0737 60.9136 15.3519 60.9136 15.6805C60.9136 16.009 60.7996 16.2852 60.5733 16.5071C60.3457 16.7297 60.0676 16.8411 59.7389 16.8411C59.4106 16.8411 59.135 16.7297 58.9124 16.5071C58.6898 16.2846 58.5791 16.009 58.5791 15.6805Z" fill="black"/>
<path d="M65.9698 16.9135C65.2444 16.9135 64.5965 16.7949 64.0262 16.5582C63.4554 16.3215 62.9696 15.995 62.5683 15.5793C62.1667 15.1636 61.8599 14.6822 61.6473 14.1357C61.4347 13.5893 61.3281 13.0019 61.3281 12.373C61.3281 11.7441 61.4338 11.1688 61.6473 10.6177C61.8599 10.0665 62.1667 9.5831 62.5683 9.16739C62.9696 8.75168 63.4554 8.42517 64.0262 8.18849C64.5965 7.9518 65.2444 7.83313 65.9698 7.83313C66.6952 7.83313 67.3476 7.9518 67.9283 8.18849C68.5082 8.42584 68.999 8.75168 69.4007 9.16739C69.8019 9.5831 70.1095 10.0665 70.3221 10.6177C70.5348 11.1688 70.6413 11.7541 70.6413 12.373C70.6413 12.9918 70.5348 13.5893 70.3221 14.1357C70.1095 14.6822 69.8019 15.1636 69.4007 15.5793C68.999 15.995 68.5091 16.3215 67.9283 16.5582C67.3476 16.7949 66.6952 16.9135 65.9698 16.9135ZM65.9698 14.8826C66.318 14.8826 66.6442 14.8223 66.9489 14.7016C67.2531 14.5809 67.5192 14.4113 67.7468 14.194C67.9739 13.9768 68.1501 13.7133 68.2765 13.4035C68.4017 13.0938 68.4647 12.7505 68.4647 12.3737C68.4647 11.9969 68.4017 11.6536 68.2765 11.3438C68.1501 11.0347 67.9739 10.7705 67.7468 10.5533C67.5192 10.3354 67.2531 10.1664 66.9489 10.0457C66.6442 9.92503 66.318 9.86401 65.9698 9.86401C65.622 9.86401 65.2975 9.92436 64.9978 10.0457C64.6981 10.1664 64.4365 10.3361 64.2143 10.5533C63.9918 10.7705 63.8177 11.0347 63.6921 11.3438C63.5661 11.6536 63.5039 11.9969 63.5039 12.3737C63.5039 12.7505 63.5661 13.0944 63.6921 13.4035C63.8177 13.7133 63.9918 13.9768 64.2143 14.194C64.4369 14.4119 64.6981 14.5809 64.9978 14.7016C65.2975 14.8223 65.6212 14.8826 65.9698 14.8826Z" fill="black"/>
<path d="M79.6923 16.725H79.2136L73.5854 11.9236V16.725H71.4971V8.02136H71.9758L77.6036 12.6343V8.03608H79.6923V16.725Z" fill="black"/>
</g>
</g>
</g>
<defs>
<clipPath id="clip0_1801_9936">
<rect width="80" height="24.8705" fill="white"/>
</clipPath>
<clipPath id="clip1_1801_9936">
<rect width="80" height="24.8705" fill="white"/>
</clipPath>
</defs>
</svg>
