<svg width="80" height="35" viewBox="0 0 80 35" fill="none" xmlns="http://www.w3.org/2000/svg">
<g clip-path="url(#clip0_1801_9903)">
<path fill-rule="evenodd" clip-rule="evenodd" d="M75.5444 5.35152C75.0256 4.89132 74.6826 4.22611 74.6449 3.44377C74.5947 2.27234 75.3059 1.31428 76.3728 0.879183C77.2262 0.531939 78.1592 0.607245 78.9039 1.17204C80.2719 2.2054 80.3472 4.25122 79.1549 5.33478C79.2679 5.44356 79.3724 5.56907 79.4687 5.70713C79.9707 6.43509 79.9958 7.22998 79.9958 8.07508C79.9958 14.4426 79.9958 20.7516 79.9958 27.0856C79.9958 30.0435 78.2554 32.5955 75.741 33.7711C74.7579 34.2648 73.6534 34.5409 72.4861 34.5409H7.38835C4.91162 34.5409 2.7152 33.2942 1.39316 31.3948C0.518774 30.1816 0 28.6922 0 27.0815C0 22.3163 0.0334693 17.5343 0.0334693 12.7608C0.0334693 10.7024 -0.175714 9.25488 1.03336 7.40988C1.97051 5.97907 3.5603 4.9457 5.2505 4.70305C6.42611 4.53152 7.57661 4.66958 8.66018 5.16325C8.95304 5.29713 9.22916 5.45193 9.49691 5.61927C10.6265 4.8704 12.0197 4.54826 13.3794 4.6654C15.2913 4.82856 16.9731 5.82846 18.0358 7.42662C18.383 7.94957 18.6131 8.46835 18.7595 8.98712C19.3369 7.65253 20.2824 6.48529 21.5166 5.69876C22.1399 5.30132 22.8261 5.00427 23.5457 4.83274C25.6082 4.34326 27.7 4.65703 29.4153 5.93305C30.3441 6.62754 31.0553 7.51866 31.5532 8.51855L31.5616 6.04601C31.5616 5.3055 32.1682 4.70305 32.9087 4.70305H35.5486C35.9209 4.70305 36.2556 4.85366 36.5025 5.1005C38.4311 4.29724 40.5941 4.54826 42.3805 5.64019C42.9286 5.97488 43.3846 6.3807 43.7653 6.83253V6.04182C43.7737 5.30132 44.3761 4.70305 45.1166 4.70305H45.7233C45.7233 4.12989 45.7233 3.55254 45.7233 2.97938C45.7233 1.30592 46.698 -0.0328552 48.4761 0.000614138C50.2542 0.0340834 51.0993 1.42724 51.0951 3.06724C51.0951 3.61112 51.0909 4.15918 51.0909 4.70305H51.7435C52.4841 4.70305 53.0907 5.3055 53.0907 6.05019V7.66508C53.4588 7.16304 53.8856 6.70284 54.3709 6.30539C55.8728 5.07121 57.7304 4.5357 59.659 4.67377C60.5292 4.73652 61.1275 4.87458 61.7467 5.13815C61.9935 4.87877 62.3408 4.7156 62.7257 4.71142H65.3363C65.9094 4.70723 66.4031 5.05866 66.5997 5.57325C66.7964 5.05866 67.29 4.70305 67.8674 4.70723L70.4947 4.72397C70.9173 4.72397 71.298 4.92479 71.5406 5.23438C72.369 4.81183 73.3271 4.60683 74.2475 4.66958C74.7704 4.70305 75.2055 5.03356 75.398 5.48958C75.444 5.43938 75.49 5.39336 75.5402 5.34734L75.5444 5.35152Z" fill="white"/>
<path fill-rule="evenodd" clip-rule="evenodd" d="M75.4649 21.764C74.6156 21.308 73.645 21.0486 72.6158 21.0486C71.5867 21.0486 70.6119 21.308 69.7626 21.764C68.6414 22.3623 67.7377 23.3078 67.1771 24.4499C66.6206 23.3078 65.7128 22.3581 64.5916 21.764C63.7423 21.308 62.7717 21.0486 61.7383 21.0486C60.7049 21.0486 59.7427 21.308 58.8892 21.764C57.7638 22.3665 56.8476 23.3203 56.2954 24.475C55.7389 23.3203 54.8269 22.3665 53.7015 21.764C52.8522 21.308 51.8816 21.0486 50.8441 21.0486C49.8065 21.0486 48.8443 21.308 47.995 21.764C46.8863 22.3623 45.9784 23.2952 45.4178 24.4332C44.8656 23.2952 43.9577 22.3581 42.8491 21.764C41.9998 21.308 41.0334 21.0486 39.9958 21.0486C38.9583 21.0486 37.9918 21.308 37.1509 21.764C36.0255 22.3623 35.1177 23.3078 34.5654 24.4499C34.0048 23.3078 33.097 22.3581 31.9799 21.764C31.1265 21.308 30.1558 21.0486 29.1308 21.0486C28.1058 21.0486 27.1269 21.308 26.2818 21.764C25.1605 22.3623 24.2569 23.3078 23.6921 24.4499C23.1398 23.3078 22.2362 22.3581 21.1149 21.764C20.2615 21.308 19.2951 21.0486 18.2659 21.0486C17.2367 21.0486 16.2619 21.308 15.4126 21.764C14.2914 22.3623 13.3835 23.3078 12.8271 24.4499C12.2707 23.3078 11.3628 22.3581 10.2416 21.764C9.39232 21.308 8.42171 21.0486 7.38835 21.0486C6.35498 21.0486 5.38856 21.308 4.53509 21.764C2.63571 22.7848 1.34714 24.7846 1.34714 27.0898C1.34714 30.4242 4.05815 33.1269 7.38835 33.1269C9.77722 33.1269 11.8481 31.7337 12.8271 29.7255C13.8019 31.7379 15.8686 33.1269 18.2659 33.1269C20.6631 33.1269 22.7173 31.7337 23.6921 29.7255C24.6711 31.7379 26.742 33.1269 29.1308 33.1269C31.5197 33.1269 33.5864 31.7337 34.5654 29.7255C35.5444 31.7379 37.6028 33.1269 39.9958 33.1269C42.3889 33.1269 44.4389 31.7462 45.4178 29.7423C46.401 31.7504 48.4635 33.1269 50.8441 33.1269C53.2246 33.1269 55.3206 31.7295 56.2912 29.7046C57.2618 31.7295 59.3327 33.1269 61.7341 33.1269C64.1355 33.1269 66.1939 31.7337 67.1729 29.7255C68.1519 31.7379 70.2186 33.1269 72.6116 33.1269C75.9418 33.1269 78.6487 30.4284 78.6487 27.0898C78.6487 24.7846 77.3559 22.7807 75.4607 21.764H75.4649Z" fill="#E82329"/>
<path fill-rule="evenodd" clip-rule="evenodd" d="M9.07018 27.7969C8.97396 28.0228 8.84008 28.2236 8.67692 28.3826C8.51794 28.5499 8.31712 28.6796 8.08702 28.7842C7.86529 28.8846 7.62682 28.9306 7.3758 28.9306C7.12478 28.9306 6.87376 28.8846 6.66039 28.7842C6.43029 28.6838 6.23366 28.5541 6.07468 28.3826C5.90733 28.2236 5.77346 28.0186 5.67723 27.7969C5.57682 27.571 5.52662 27.3367 5.52662 27.0773C5.52662 26.8179 5.57264 26.5878 5.67723 26.3577C5.77346 26.136 5.90733 25.9393 6.07468 25.772C6.23366 25.6088 6.43029 25.4749 6.66039 25.3787C6.87794 25.2783 7.12478 25.2281 7.3758 25.2281C7.62682 25.2281 7.86529 25.2783 8.08702 25.3787C8.31294 25.4749 8.51376 25.6088 8.67692 25.772C8.84008 25.9435 8.97814 26.1401 9.07018 26.3577C9.271 26.8095 9.271 27.3492 9.07018 27.8011V27.7969ZM9.54712 24.9018C9.271 24.6257 8.94886 24.4081 8.57651 24.2449C8.20416 24.086 7.79835 24.0023 7.3758 24.0023C6.95325 24.0023 6.53907 24.086 6.1709 24.2449C5.79437 24.4081 5.46805 24.6298 5.19611 24.9018C4.91999 25.1863 4.70244 25.5126 4.53928 25.8849C4.37611 26.2573 4.29662 26.6631 4.29662 27.0856C4.29662 27.5082 4.37611 27.9182 4.53928 28.2905C4.70244 28.6629 4.91999 28.9892 5.19611 29.2612C5.46805 29.5373 5.79437 29.7548 6.1709 29.9222C6.53907 30.0811 6.94488 30.1648 7.36743 30.1648C7.78998 30.1648 8.20416 30.077 8.57651 29.9222C8.94467 29.759 9.271 29.5373 9.54712 29.2612C9.81906 28.9892 10.0408 28.6629 10.204 28.2905C10.3671 27.9182 10.4508 27.5207 10.4508 27.0856C10.4508 26.6505 10.3671 26.2573 10.204 25.8849C10.0408 25.5126 9.82324 25.1863 9.54712 24.9018Z" fill="white"/>
<path fill-rule="evenodd" clip-rule="evenodd" d="M19.9435 27.7969C19.8515 28.0228 19.7134 28.2236 19.5461 28.3826C19.3787 28.5499 19.1863 28.6796 18.9604 28.7842C18.7344 28.8846 18.496 28.9306 18.245 28.9306C17.9939 28.9306 17.7513 28.8846 17.5254 28.7842C17.2994 28.6838 17.1028 28.5541 16.9396 28.3826C16.7723 28.2236 16.6468 28.0186 16.5464 27.7969C16.446 27.571 16.4 27.3367 16.4 27.0773C16.4 26.8179 16.4502 26.5878 16.5464 26.3577C16.6468 26.136 16.7723 25.9393 16.9396 25.772C17.1028 25.6088 17.3036 25.4749 17.5254 25.3787C17.7513 25.2783 17.9939 25.2281 18.245 25.2281C18.496 25.2281 18.7386 25.2783 18.9604 25.3787C19.1863 25.4749 19.3787 25.6088 19.5461 25.772C19.7134 25.9435 19.8473 26.136 19.9435 26.3577C20.136 26.8095 20.136 27.3492 19.9435 27.8011V27.7969ZM20.4163 24.9018C20.1443 24.6257 19.8138 24.4081 19.4457 24.2449C19.0733 24.086 18.6675 24.0023 18.2408 24.0023C17.814 24.0023 17.4082 24.086 17.0401 24.2449C16.6635 24.4081 16.3414 24.6298 16.0611 24.9018C15.7933 25.1863 15.5716 25.5126 15.4042 25.8849C15.2453 26.2573 15.1616 26.6631 15.1616 27.0856C15.1616 27.5082 15.2453 27.9182 15.4042 28.2905C15.5674 28.6629 15.7891 28.9892 16.0611 29.2612C16.3414 29.5373 16.6635 29.7548 17.0401 29.9222C17.4082 30.0811 17.814 30.1648 18.2408 30.1648C18.6675 30.1648 19.0733 30.077 19.4457 29.9222C19.8138 29.759 20.1402 29.5373 20.4163 29.2612C20.6924 28.9892 20.9141 28.6629 21.0689 28.2905C21.2321 27.9182 21.3158 27.5166 21.3158 27.0856C21.3158 26.6547 21.2321 26.2573 21.0689 25.8849C20.9099 25.5126 20.6882 25.1863 20.4163 24.9018Z" fill="white"/>
<path fill-rule="evenodd" clip-rule="evenodd" d="M63.4201 27.7969C63.3239 28.0228 63.19 28.2236 63.0269 28.3826C62.8637 28.5499 62.6671 28.6796 62.4412 28.7842C62.2194 28.8846 61.9768 28.9306 61.7216 28.9306C61.4664 28.9306 61.2279 28.8846 61.0062 28.7842C60.7844 28.6838 60.5878 28.5541 60.4246 28.3826C60.2573 28.2236 60.1276 28.0186 60.0272 27.7969C59.931 27.571 59.8808 27.3367 59.8808 27.0773C59.8808 26.8179 59.931 26.5878 60.0272 26.3577C60.1276 26.136 60.2573 25.9393 60.4246 25.772C60.592 25.6088 60.7886 25.4749 61.0062 25.3787C61.2279 25.2783 61.4747 25.2281 61.7216 25.2281C61.9684 25.2281 62.2194 25.2783 62.4412 25.3787C62.6671 25.4749 62.8637 25.6088 63.0269 25.772C63.1859 25.9435 63.3239 26.1401 63.4201 26.3577C63.6168 26.8095 63.6168 27.3492 63.4201 27.8011V27.7969ZM63.8971 24.9018C63.6293 24.6257 63.303 24.4081 62.9265 24.2449C62.5541 24.086 62.1525 24.0023 61.7216 24.0023C61.2907 24.0023 60.8932 24.086 60.5209 24.2449C60.1527 24.4081 59.8264 24.6298 59.5461 24.9018C59.2783 25.1863 59.0566 25.5126 58.8934 25.8849C58.7344 26.2573 58.6466 26.6631 58.6466 27.0856C58.6466 27.5082 58.7344 27.9182 58.8934 28.2905C59.0566 28.6629 59.2741 28.9892 59.5461 29.2612C59.8222 29.5373 60.1527 29.7548 60.5209 29.9222C60.8932 30.0811 61.2948 30.1648 61.7216 30.1648C62.1483 30.1648 62.5541 30.077 62.9265 29.9222C63.2988 29.759 63.6293 29.5373 63.8971 29.2612C64.1732 28.9892 64.3907 28.6629 64.5497 28.2905C64.7129 27.9182 64.7924 27.5207 64.7924 27.0856C64.7924 26.6505 64.7129 26.2573 64.5497 25.8849C64.3907 25.5126 64.1732 25.1863 63.8971 24.9018Z" fill="white"/>
<path fill-rule="evenodd" clip-rule="evenodd" d="M74.2893 27.7969C74.1931 28.0228 74.0592 28.2236 73.896 28.3826C73.7329 28.5499 73.5321 28.6796 73.3103 28.7842C73.0886 28.8846 72.8418 28.9306 72.5949 28.9306C72.3481 28.9306 72.1012 28.8846 71.8753 28.7842C71.6494 28.6838 71.4486 28.5541 71.2854 28.3826C71.1181 28.2236 70.9884 28.0186 70.8838 27.7969C70.7918 27.571 70.7374 27.3367 70.7374 27.0773C70.7374 26.8179 70.7918 26.5878 70.8838 26.3577C70.9842 26.136 71.1181 25.9393 71.2854 25.772C71.4444 25.6088 71.6494 25.4749 71.8753 25.3787C72.1012 25.2783 72.3397 25.2281 72.5949 25.2281C72.8501 25.2281 73.0886 25.2783 73.3103 25.3787C73.5321 25.4749 73.7329 25.6088 73.896 25.772C74.0592 25.9435 74.1931 26.136 74.2893 26.3577C74.4901 26.8095 74.4901 27.3492 74.2893 27.8011V27.7969ZM74.7662 24.9018C74.4943 24.6257 74.168 24.4081 73.7998 24.2449C73.4275 24.086 73.0217 24.0023 72.5949 24.0023C72.1682 24.0023 71.7624 24.086 71.39 24.2449C71.0177 24.4081 70.6914 24.6298 70.4152 24.9018C70.1391 25.1863 69.9216 25.5126 69.7626 25.8849C69.5994 26.2573 69.5199 26.6631 69.5199 27.0856C69.5199 27.5082 69.5994 27.9182 69.7626 28.2905C69.9216 28.6629 70.1391 28.9892 70.4152 29.2612C70.6914 29.5373 71.0177 29.7548 71.39 29.9222C71.7624 30.0811 72.1682 30.1648 72.5949 30.1648C73.0217 30.1648 73.4233 30.077 73.7998 29.9222C74.168 29.759 74.4943 29.5373 74.7662 29.2612C75.0382 28.9892 75.2599 28.6629 75.4231 28.2905C75.5821 27.9182 75.6657 27.5207 75.6657 27.0856C75.6657 26.6505 75.5821 26.2573 75.4231 25.8849C75.2557 25.5126 75.0382 25.1863 74.7662 24.9018Z" fill="white"/>
<path fill-rule="evenodd" clip-rule="evenodd" d="M30.4236 25.7511C30.5909 25.9142 30.7165 26.1109 30.821 26.3368C30.8796 26.4623 30.9131 26.5962 30.9382 26.7342H32.1807C32.1473 26.4246 32.072 26.1276 31.9548 25.8473C31.7917 25.4791 31.5741 25.1528 31.298 24.8767C31.0219 24.6089 30.7039 24.3872 30.3274 24.224C29.955 24.0609 29.5492 23.9814 29.1225 23.9814C28.6957 23.9814 28.2899 24.0609 27.9218 24.2198C27.5494 24.3788 27.2231 24.5964 26.947 24.8683C26.6667 25.1444 26.4449 25.4708 26.286 25.8389C26.1353 26.2113 26.0475 26.6213 26.0475 27.0522V29.9724H27.2733V26.9685H27.2817C27.29 26.7468 27.3402 26.5334 27.4239 26.3368C27.5243 26.1109 27.6582 25.9184 27.8297 25.7511C27.9887 25.5879 28.1895 25.4498 28.4071 25.3578C28.8547 25.1612 29.3986 25.1612 29.8462 25.3578C30.0638 25.4498 30.2688 25.5879 30.432 25.7511H30.4236Z" fill="white"/>
<path fill-rule="evenodd" clip-rule="evenodd" d="M38.3475 26.0397L38.4018 25.9602C38.6989 25.4708 39.2344 25.203 39.9874 25.1863C40.728 25.1904 41.2509 25.4498 41.548 25.9602L41.594 26.0397H38.3475ZM42.8282 25.9435C42.6817 25.567 42.4725 25.2281 42.2132 24.9352C41.9496 24.6466 41.6274 24.4165 41.2509 24.2408C40.8786 24.0734 40.4477 23.9814 39.9749 23.9814C39.544 23.9814 39.1382 24.065 38.77 24.224C38.4018 24.3872 38.0671 24.6047 37.7952 24.885C37.5191 25.157 37.2974 25.4833 37.1384 25.8556C36.9794 26.228 36.8999 26.6254 36.8999 27.0564C36.8999 27.4873 36.9794 27.8973 37.1384 28.2613C37.2974 28.6336 37.5191 28.9599 37.7952 29.236C38.0671 29.5038 38.3977 29.7255 38.77 29.8887C39.1382 30.056 39.544 30.1314 39.9749 30.1314C40.2845 30.1314 40.6024 30.0853 40.912 30.0017C41.23 29.918 41.5229 29.7716 41.7906 29.5875C42.0625 29.4034 42.301 29.1566 42.5102 28.8553C42.7152 28.5708 42.8784 28.2194 43.0039 27.8262H41.6525C41.5187 28.1483 41.3095 28.4035 41.025 28.6043C40.7321 28.8009 40.3807 28.9014 39.9749 28.9014C39.7281 28.9014 39.4938 28.8553 39.2762 28.7675C39.0503 28.6754 38.8579 28.5541 38.6905 28.3951C38.5315 28.2403 38.3977 28.0521 38.2931 27.8387C38.1843 27.6253 38.1299 27.3994 38.1215 27.1526V27.0982H43.0541C43.0415 26.7049 42.962 26.3117 42.8198 25.9477L42.8282 25.9435Z" fill="white"/>
<path fill-rule="evenodd" clip-rule="evenodd" d="M52.7016 27.0313C52.7016 27.2865 52.6514 27.5249 52.5552 27.7467C52.4589 27.9726 52.3251 28.1692 52.1619 28.3366C51.9946 28.4997 51.7979 28.6294 51.572 28.7298C51.3503 28.8302 51.1118 28.8763 50.8566 28.8763C50.6014 28.8763 50.3587 28.8344 50.1412 28.7298C49.9111 28.6294 49.7186 28.4997 49.5513 28.3366C49.384 28.1692 49.2543 27.9684 49.158 27.7467C49.0576 27.5249 49.0074 27.2865 49.0074 27.0313C49.0074 26.7761 49.0576 26.5418 49.158 26.3159C49.2543 26.0899 49.3881 25.8933 49.5513 25.7301C49.7186 25.567 49.9111 25.4331 50.1412 25.3369C50.5847 25.1402 51.1244 25.1402 51.5678 25.3369C51.7937 25.4331 51.9904 25.567 52.1577 25.7301C52.3251 25.8933 52.4548 26.0941 52.5552 26.3159C52.6514 26.5418 52.7016 26.7844 52.7016 27.0313ZM53.9316 27.0313V21.8812C53.5425 21.6511 53.1283 21.4712 52.7016 21.3289V24.7093L52.6054 24.6257C52.5133 24.542 52.3962 24.4499 52.2623 24.3705C52.1284 24.291 51.9862 24.224 51.8314 24.1613C51.6766 24.1069 51.5176 24.0483 51.3461 24.0148C51.1829 23.973 51.0198 23.9605 50.8524 23.9605C50.4215 23.9605 50.0157 24.0441 49.6475 24.2031C49.2752 24.3746 48.9489 24.588 48.6727 24.8558C48.405 25.1319 48.1791 25.4582 48.0201 25.8305C47.8611 26.2029 47.7774 26.6045 47.7774 27.0313C47.7774 27.458 47.8611 27.8638 48.0201 28.2362C48.1791 28.6085 48.405 28.9348 48.6727 29.2026C48.9489 29.4787 49.2752 29.7004 49.6475 29.8678C50.0157 30.0226 50.4173 30.1063 50.8524 30.1063C51.2875 30.1063 51.685 30.0226 52.0531 29.8678C52.4297 29.7088 52.7476 29.4871 53.0321 29.2109C53.3124 28.939 53.53 28.6127 53.6889 28.2445C53.8437 27.8722 53.9274 27.4664 53.9274 27.0271L53.9316 27.0313Z" fill="white"/>
<path fill-rule="evenodd" clip-rule="evenodd" d="M1.38061 18.1703H4.0456C4.04142 16.1914 4.0456 14.2041 4.0456 12.2211C4.0456 11.2547 3.92428 10.305 4.47652 9.68579C5.82784 8.17549 7.87784 9.08335 8.17069 10.5058C8.28365 11.0455 8.2209 15.5178 8.21671 16.4424C8.21671 17.2164 8.33804 18.2288 9.50947 18.2372C10.4675 18.2414 10.8106 17.5385 10.8106 16.6014C10.8106 15.6099 10.8106 14.6183 10.8106 13.6268C10.8106 11.627 10.3964 9.61049 12.2498 9.01641C13.1995 8.711 14.0027 9.09171 14.4755 9.59794C15.149 10.3175 15.0068 11.0329 15.0068 12.1374C15.0068 14.133 14.9817 16.1454 15.0068 18.141L17.6676 18.1703C17.6802 16.3922 17.6676 14.6141 17.6676 12.8403C17.6676 10.9744 17.8391 9.57702 16.9062 8.17549C15.103 5.46448 11.4214 5.41846 9.58896 7.28019C9.07437 7.08774 7.85692 5.6904 5.43876 6.03764C3.90336 6.25937 2.7403 7.25508 2.15459 8.15039C1.17561 9.64396 1.37224 10.7819 1.37224 12.7608C1.37224 14.5598 1.36388 16.3629 1.37224 18.1619L1.38061 18.1703ZM58.4123 8.60641C63.1859 7.72784 64.3573 14.7689 59.7929 15.6601C57.6425 16.0784 55.9021 14.6016 55.5549 12.8654C55.1114 10.6522 56.6426 8.93273 58.4123 8.60641ZM62.734 17.116C62.9474 18.2958 64.2987 18.6597 65.0811 17.7435C65.5622 17.1787 65.3655 14.9196 65.3655 14.0243C65.3655 12.698 65.4325 6.866 65.3404 6.06274H62.7298L62.7173 7.15049C61.8262 6.7907 61.4204 6.15897 59.567 6.02509C53.0949 5.55652 50.3295 14.1958 56.1071 17.48C57.6341 18.3502 59.5628 18.5091 61.2823 17.8565C61.5208 17.7644 61.7634 17.6431 61.9768 17.5343C62.2655 17.3837 62.4077 17.2415 62.734 17.116ZM22.1483 11.0873C22.4202 9.63559 23.6084 8.51437 25.307 8.52692C26.9428 8.53947 28.1226 9.66488 28.4029 11.0873H22.1483ZM22.1692 13.2168H31.0595C31.4946 8.86161 28.3694 5.08376 23.8594 6.15897C20.2573 7.01662 18.132 11.6437 20.3995 15.4927C22.6838 19.3793 28.0305 18.7141 29.9759 16.0282C30.57 15.2082 30.2186 13.9866 29.0639 13.974C28.428 13.9699 28.1644 14.3715 27.8799 14.6393C25.8969 16.5219 22.734 15.84 22.1692 13.2168ZM35.5737 7.28437L35.5528 6.06693H32.9129L32.892 14.1037C32.892 15.158 32.6577 17.1745 33.2434 17.823C33.9797 18.6388 35.4816 18.2205 35.5528 16.9235C35.6323 15.4383 35.5528 12.56 35.5528 10.8196C35.5528 9.86151 35.3645 9.69834 36.0255 9.25906C37.653 8.17549 40.6861 7.8157 41.2886 10.5644C41.7906 12.8528 40.8074 17.0992 41.9287 17.9778C42.6022 18.505 44.0665 18.4045 44.0707 16.6139C44.0707 15.2584 44.0707 13.8987 44.0707 12.5432C44.0832 9.81967 43.3511 7.83661 41.6735 6.80743C40.2426 5.93305 38.4144 5.67366 36.7618 6.47692C36.2347 6.73213 35.9628 7.0208 35.5695 7.28855L35.5737 7.28437ZM47.0746 6.06274C47.0746 5.04193 47.0746 4.01693 47.0746 2.99193C47.0746 2.02969 47.4846 1.33939 48.4552 1.35612C49.4216 1.37286 49.7521 2.12173 49.7479 3.06724C49.7479 4.06295 49.7396 5.06285 49.7479 6.05437H51.7435V8.69845H49.7479C49.7354 9.91171 49.5889 14.1916 50.0031 14.9739C50.388 15.6977 51.3796 15.3714 51.6933 16.4926C52.3753 18.9233 47.6812 19.0739 47.1415 15.02C46.9156 13.3214 47.0662 10.5183 47.0704 8.69845L45.0999 8.69008L45.1124 6.05437H47.0704L47.0746 6.06274ZM70.5282 7.97049L70.4905 6.07948L67.8632 6.06274C67.7795 6.78652 67.8381 15.1287 67.8381 16.6056C67.8381 17.2708 67.9259 17.618 68.3108 17.9485C68.6581 18.2456 69.2061 18.3669 69.7124 18.1493C70.7081 17.7226 70.4947 16.5596 70.4947 15.43C70.4947 14.3004 70.4487 13.0411 70.5031 11.9073C70.6286 9.22141 72.5112 8.87416 74.1638 8.44325V6.01672C73.3396 5.96233 72.5405 6.20499 71.9548 6.54805C71.5574 6.78233 71.1181 7.15886 70.8336 7.53957C70.7248 7.686 70.6746 7.80315 70.524 7.96631L70.5282 7.97049ZM76.0046 18.1661L78.6529 18.187V8.08345C78.6529 7.38478 78.7282 5.9958 77.3183 6.01254C76.7618 6.01672 76.4481 6.30958 76.2389 6.61499C75.9377 7.05009 76.0046 7.50611 76.0046 8.08763V18.1744V18.1661Z" fill="#121921"/>
<path fill-rule="evenodd" clip-rule="evenodd" d="M76.879 2.1301C75.1553 2.82877 76.197 5.17999 77.8203 4.59428C79.385 4.02948 78.5315 1.46071 76.879 2.1301Z" fill="#E21D1A"/>
</g>
<defs>
<clipPath id="clip0_1801_9903">
<rect width="79.9958" height="34.5409" fill="white"/>
</clipPath>
</defs>
</svg>
