<svg width="80" height="25" viewBox="0 0 80 25" fill="none" xmlns="http://www.w3.org/2000/svg">
<g clip-path="url(#clip0_1801_9894)">
<path fill-rule="evenodd" clip-rule="evenodd" d="M3.33922 18.4941H3.86151L1.61396 21.1698L1.2201 22.9764H0.787713L1.19441 21.127L0 18.4941H0.453791L1.46412 20.7674L3.33922 18.4941Z" fill="#575756"/>
<path fill-rule="evenodd" clip-rule="evenodd" d="M4.74768 19.6457C4.93605 19.6457 5.10729 19.6757 5.26569 19.7314C5.42409 19.787 5.5568 19.8726 5.67239 19.9797C5.7837 20.0867 5.8736 20.2194 5.93782 20.3778C6.00203 20.5362 6.032 20.7117 6.032 20.9129C6.032 21.1869 5.99347 21.4523 5.92069 21.7092C5.84363 21.9704 5.73233 22.1973 5.58677 22.3985C5.43693 22.5997 5.25285 22.7624 5.03023 22.8865C4.80762 23.0107 4.54219 23.0706 4.24252 23.0706C4.03275 23.0706 3.84866 23.0363 3.68598 22.9721C3.5233 22.9079 3.39059 22.818 3.27928 22.6981C3.17226 22.5825 3.08664 22.4413 3.03098 22.27C2.97533 22.1031 2.94536 21.919 2.94536 21.7178C2.94536 21.4566 2.98389 21.1955 3.06523 20.9472C3.14657 20.6946 3.26216 20.472 3.41628 20.2836C3.5704 20.091 3.75876 19.9369 3.98566 19.8213C4.20827 19.7057 4.46514 19.6457 4.75625 19.6457H4.74768ZM4.30674 22.7409C4.52507 22.7409 4.71344 22.6853 4.8804 22.574C5.04736 22.4627 5.18435 22.3214 5.29566 22.1502C5.40697 21.9789 5.48831 21.7905 5.54824 21.5851C5.60389 21.3796 5.63386 21.1826 5.63386 20.9943C5.63386 20.6946 5.55252 20.4506 5.39412 20.2579C5.23572 20.0696 4.99599 19.9754 4.67919 19.9754C4.46085 19.9754 4.26821 20.0268 4.10125 20.1338C3.93428 20.2408 3.79301 20.3778 3.6817 20.5405C3.5704 20.7074 3.48477 20.8915 3.42484 21.0927C3.3649 21.2939 3.33494 21.4909 3.33494 21.6792C3.33494 21.9918 3.41628 22.2486 3.57468 22.4413C3.73308 22.6339 3.97709 22.7324 4.31102 22.7324L4.30674 22.7409Z" fill="#575756"/>
<path fill-rule="evenodd" clip-rule="evenodd" d="M8.98593 22.9764H8.62204L8.73335 22.3856H8.7205C8.60063 22.5783 8.43795 22.7409 8.23246 22.8737C8.03125 23.0064 7.80864 23.0706 7.56462 23.0706C7.42334 23.0706 7.29063 23.0535 7.17076 23.0192C7.05089 22.985 6.94815 22.9336 6.85824 22.8651C6.76834 22.7966 6.70413 22.7067 6.65275 22.5954C6.60566 22.4841 6.57998 22.3514 6.57998 22.1973C6.57998 22.1031 6.5971 21.9746 6.63135 21.8162L7.07658 19.7399H7.47044L7.01664 21.8291C7.0038 21.8805 6.99524 21.9318 6.98668 21.9875C6.97811 22.0431 6.97383 22.0988 6.97383 22.1544C6.97383 22.2615 6.99096 22.3556 7.02949 22.4284C7.06802 22.5012 7.11939 22.5611 7.17932 22.6082C7.24354 22.6553 7.31204 22.6896 7.39766 22.7067C7.479 22.7281 7.56462 22.7367 7.65024 22.7367C7.79151 22.7367 7.92851 22.7067 8.0655 22.6425C8.19821 22.5783 8.32236 22.4926 8.43367 22.3771C8.54498 22.2615 8.64344 22.1202 8.72478 21.9575C8.8104 21.7906 8.87462 21.6065 8.91743 21.401L9.27704 19.7399H9.6709L8.97308 22.9764H8.98593Z" fill="#575756"/>
<path fill-rule="evenodd" clip-rule="evenodd" d="M10.587 19.7399H10.9466L10.784 20.4848H10.7968C10.861 20.3692 10.9295 20.2622 11.0023 20.1638C11.0794 20.0696 11.165 19.984 11.2592 19.9112C11.3533 19.8384 11.4604 19.787 11.576 19.7485C11.6915 19.71 11.82 19.6928 11.9698 19.6928H12.0768C12.1154 19.6928 12.1496 19.6928 12.1839 19.6971L12.0983 20.091C12.0597 20.091 12.0212 20.091 11.9869 20.091C11.9484 20.091 11.9099 20.091 11.8756 20.091C11.7001 20.0953 11.5417 20.1295 11.4047 20.198C11.2677 20.2665 11.1479 20.3521 11.0494 20.4634C10.9509 20.5747 10.8696 20.6989 10.8054 20.8444C10.7412 20.9857 10.6898 21.1313 10.6598 21.2854L10.2959 22.9807H9.90207L10.5999 19.7442L10.587 19.7399Z" fill="#575756"/>
<path fill-rule="evenodd" clip-rule="evenodd" d="M14.9195 18.4941H17.9248L17.8434 18.858H15.2705L14.9237 20.4806H17.3254L17.2441 20.8444H14.8467L14.47 22.6125H17.1071L17.0257 22.9764H13.9648L14.9195 18.4941Z" fill="#575756"/>
<path fill-rule="evenodd" clip-rule="evenodd" d="M17.8777 19.7399H18.2929L18.6782 22.5312H18.6911L20.2066 19.7399H20.6432L18.8152 22.9764H18.3871L17.8777 19.7399Z" fill="#575756"/>
<path fill-rule="evenodd" clip-rule="evenodd" d="M21.1912 21.4652C21.1784 21.5422 21.1741 21.6236 21.1741 21.7178C21.1741 21.8633 21.1912 22.0003 21.2297 22.1245C21.2683 22.2486 21.3239 22.3599 21.401 22.4498C21.478 22.5397 21.5765 22.6125 21.6964 22.6639C21.8162 22.7153 21.9532 22.7409 22.1116 22.7409C22.3728 22.7409 22.5954 22.6682 22.7795 22.5183C22.9636 22.3685 23.0963 22.1758 23.1733 21.9361H23.5672C23.4602 22.3 23.2804 22.5783 23.0363 22.7752C22.7923 22.9721 22.4755 23.0706 22.0902 23.0706C21.6578 23.0706 21.3325 22.9464 21.1099 22.6981C20.8872 22.4498 20.7759 22.1159 20.7759 21.6964C20.7759 21.4395 20.8145 21.1912 20.8915 20.9429C20.9686 20.6946 21.0842 20.4763 21.234 20.2836C21.3839 20.091 21.5679 19.9369 21.7863 19.817C22.0046 19.7014 22.2529 19.6415 22.5269 19.6415C22.7195 19.6415 22.8908 19.6714 23.0449 19.7314C23.199 19.7913 23.3274 19.8769 23.4345 19.9882C23.5415 20.0995 23.6228 20.2323 23.6742 20.3864C23.7299 20.5405 23.7556 20.7117 23.7556 20.9001C23.7556 20.9943 23.7556 21.0842 23.7513 21.1784C23.7513 21.2683 23.7384 21.3624 23.7256 21.4609H21.1912V21.4652ZM23.3574 21.1313C23.3574 21.0842 23.3574 21.0414 23.3574 21.0028C23.3574 20.9643 23.3574 20.9215 23.3574 20.8787C23.3574 20.6047 23.2804 20.3864 23.122 20.2237C22.9636 20.0567 22.7495 19.9754 22.4712 19.9754C22.3086 19.9754 22.1587 20.0096 22.0217 20.0738C21.8847 20.1381 21.7649 20.2237 21.6621 20.3307C21.5594 20.4377 21.4695 20.5576 21.3967 20.6989C21.3239 20.8359 21.2683 20.9814 21.2383 21.1313H23.3574Z" fill="#575756"/>
<path fill-rule="evenodd" clip-rule="evenodd" d="M24.7017 19.7399H25.0613L24.8986 20.4848H24.9114C24.9757 20.3692 25.0442 20.2622 25.1169 20.1638C25.194 20.0696 25.2796 19.984 25.3738 19.9112C25.468 19.8384 25.575 19.787 25.6906 19.7485C25.8062 19.71 25.9346 19.6928 26.0844 19.6928H26.1915C26.23 19.6928 26.2642 19.6928 26.2985 19.6971L26.2086 20.091C26.1701 20.091 26.1315 20.091 26.0973 20.091C26.0588 20.091 26.0202 20.091 25.986 20.091C25.8105 20.0953 25.6521 20.1295 25.5151 20.198C25.3781 20.2665 25.2582 20.3521 25.1597 20.4634C25.0613 20.5747 24.9799 20.6989 24.9157 20.8444C24.8515 20.9857 24.8001 21.1313 24.7702 21.2854L24.4063 22.9807H24.0124L24.7102 19.7442L24.7017 19.7399Z" fill="#575756"/>
<path fill-rule="evenodd" clip-rule="evenodd" d="M26.0202 23.8241C26.1315 23.8369 26.2471 23.8412 26.3584 23.8412C26.4783 23.8412 26.581 23.8026 26.6667 23.7299C26.7523 23.6528 26.8165 23.5758 26.8679 23.4901L27.1633 22.9764L26.5682 19.7399H26.9835L27.4458 22.4884H27.4587L28.9527 19.7399H29.3809L27.0776 23.7427C26.992 23.8883 26.885 23.9996 26.7523 24.0681C26.6196 24.1408 26.4655 24.1751 26.2942 24.1751C26.2343 24.1751 26.1786 24.1708 26.123 24.1623C26.0673 24.1537 26.0074 24.1494 25.9517 24.1451L26.0288 23.8241H26.0202Z" fill="#575756"/>
<path fill-rule="evenodd" clip-rule="evenodd" d="M32.0694 22.9764H31.6883L31.8339 22.3942H31.8211C31.6841 22.6082 31.5214 22.7752 31.3416 22.8908C31.1575 23.0106 30.9263 23.0706 30.6438 23.0706C30.434 23.0706 30.2542 23.0406 30.1001 22.9764C29.946 22.9122 29.8175 22.8223 29.7191 22.7067C29.6163 22.5911 29.5393 22.4498 29.4879 22.2872C29.4365 22.1245 29.4108 21.9447 29.4108 21.7477C29.4108 21.4994 29.4536 21.2511 29.535 20.9986C29.6163 20.746 29.7362 20.5234 29.8903 20.3221C30.0444 20.1209 30.2328 19.9583 30.4468 19.8341C30.6652 19.71 30.9092 19.6457 31.1789 19.6457C31.4358 19.6457 31.6541 19.6971 31.8425 19.8041C32.0308 19.9112 32.1593 20.091 32.232 20.3478H32.2449L32.6345 18.4984H33.0283L32.0694 22.9807V22.9764ZM30.678 22.7367C30.9049 22.7367 31.1061 22.6767 31.2816 22.5654C31.4572 22.4498 31.6027 22.3043 31.7226 22.1245C31.8425 21.9447 31.9324 21.752 31.9966 21.5337C32.0608 21.3196 32.0908 21.1099 32.0908 20.9087C32.0908 20.6261 32.0137 20.3949 31.8553 20.228C31.6969 20.0567 31.4743 19.9754 31.1875 19.9754C30.9606 19.9754 30.7636 20.031 30.5881 20.1466C30.4126 20.2579 30.2713 20.4035 30.1557 20.579C30.0401 20.7545 29.9545 20.9472 29.8946 21.1612C29.8346 21.371 29.8047 21.5765 29.8047 21.7734C29.8047 22.0474 29.8775 22.2786 30.0187 22.4627C30.16 22.6468 30.3826 22.7409 30.678 22.7409V22.7367Z" fill="#575756"/>
<path fill-rule="evenodd" clip-rule="evenodd" d="M33.435 20.7032C33.4607 20.5191 33.5121 20.3607 33.5934 20.228C33.6747 20.0953 33.7775 19.984 33.8974 19.8983C34.0172 19.8127 34.1542 19.7485 34.3083 19.7057C34.4625 19.6629 34.6251 19.6415 34.8007 19.6415C34.9077 19.6415 35.0318 19.65 35.1603 19.6714C35.293 19.6928 35.4129 19.7314 35.5284 19.7827C35.6397 19.8384 35.7339 19.9112 35.811 20.0054C35.888 20.0995 35.9223 20.2194 35.9223 20.3607C35.9223 20.4377 35.9137 20.5276 35.9009 20.6261C35.8881 20.7203 35.8666 20.8188 35.8452 20.9172C35.8238 21.0157 35.8024 21.1099 35.781 21.204C35.7596 21.2982 35.7382 21.3796 35.7211 21.4523C35.6826 21.6364 35.6526 21.7863 35.6269 21.9061C35.6012 22.0217 35.5798 22.1202 35.5627 22.2015C35.5456 22.2829 35.5284 22.3471 35.5199 22.3985C35.5113 22.4498 35.507 22.4969 35.507 22.5483C35.507 22.6082 35.5284 22.6425 35.5755 22.6596C35.6226 22.6725 35.6654 22.681 35.7125 22.681C35.7425 22.681 35.7682 22.681 35.7896 22.681C35.811 22.681 35.8367 22.6767 35.8666 22.6724L35.811 22.985C35.7639 22.9935 35.7125 23.0021 35.6526 23.0064C35.5927 23.0107 35.537 23.0149 35.4813 23.0149C35.3743 23.0149 35.2887 22.985 35.2288 22.9208C35.1688 22.8565 35.1389 22.7709 35.1346 22.6639C35.1346 22.6339 35.1346 22.604 35.1346 22.5783C35.1346 22.5483 35.1389 22.5183 35.1431 22.4884L35.1303 22.4755C35.019 22.6639 34.8563 22.8094 34.6551 22.9165C34.4496 23.0192 34.2356 23.0749 34.0087 23.0749C33.8631 23.0749 33.7261 23.0577 33.5977 23.0235C33.4693 22.9892 33.3622 22.9379 33.268 22.8651C33.1781 22.7923 33.1054 22.6981 33.0497 22.5868C32.9983 22.4755 32.9727 22.3385 32.9727 22.1801C32.9727 22.0089 33.0026 21.8633 33.0668 21.7477C33.1311 21.6322 33.2124 21.5337 33.3194 21.4609C33.4222 21.3839 33.542 21.3239 33.679 21.2811C33.8117 21.2383 33.953 21.204 34.0986 21.1784C34.3083 21.1441 34.501 21.1313 34.6765 21.1313C34.852 21.1313 35.0019 21.1184 35.1303 21.0842C35.2587 21.0499 35.3572 20.99 35.4214 20.9044C35.4856 20.8188 35.5199 20.6646 35.5199 20.4506C35.5199 20.3564 35.4985 20.2751 35.4557 20.2151C35.4129 20.1552 35.3572 20.1081 35.293 20.0738C35.2288 20.0396 35.156 20.0182 35.0746 20.0054C34.9933 19.9925 34.9163 19.9882 34.8392 19.9882C34.715 19.9882 34.5952 20.0011 34.4796 20.0268C34.3683 20.0524 34.2655 20.091 34.1713 20.1509C34.0814 20.2066 34.0044 20.2836 33.9402 20.3778C33.8802 20.472 33.8374 20.5876 33.816 20.7203H33.4222L33.435 20.7032ZM35.3914 21.2426L35.3786 21.2297C35.3444 21.2683 35.2973 21.2982 35.2416 21.3196C35.1817 21.341 35.1175 21.3624 35.049 21.371C34.9805 21.3838 34.912 21.3924 34.8435 21.3967C34.775 21.401 34.715 21.4053 34.6637 21.4095C34.5438 21.4181 34.4068 21.4309 34.257 21.4438C34.1071 21.4566 33.9701 21.4909 33.8417 21.538C33.7133 21.5851 33.602 21.6578 33.5163 21.7563C33.4264 21.8505 33.3836 21.9832 33.3836 22.1502C33.3836 22.2529 33.405 22.3428 33.4436 22.4156C33.4821 22.4884 33.5378 22.5483 33.602 22.5997C33.6705 22.6468 33.7475 22.681 33.8289 22.7024C33.9145 22.7238 34.0044 22.7324 34.1029 22.7324C34.4196 22.7324 34.6765 22.6468 34.8734 22.4712C35.0704 22.2957 35.1988 22.0688 35.263 21.782L35.3872 21.234L35.3914 21.2426Z" fill="#575756"/>
<path fill-rule="evenodd" clip-rule="evenodd" d="M36.1578 23.8241C36.2691 23.8369 36.3847 23.8412 36.496 23.8412C36.6158 23.8412 36.7186 23.8026 36.8042 23.7299C36.8898 23.6528 36.954 23.5758 37.0054 23.4901L37.3008 22.9764L36.7057 19.7399H37.121L37.5834 22.4884H37.5962L39.0903 19.7399H39.5184L37.2152 23.7427C37.1296 23.8883 37.0225 23.9996 36.8898 24.0681C36.7571 24.1408 36.603 24.1751 36.4317 24.1751C36.3718 24.1751 36.3162 24.1708 36.2605 24.1623C36.2049 24.1537 36.1449 24.1494 36.0893 24.1451L36.1663 23.8241H36.1578Z" fill="#575756"/>
<path fill-rule="evenodd" clip-rule="evenodd" d="M43.778 18.4941C44.0991 18.4941 44.3688 18.537 44.5871 18.6226C44.8055 18.7082 44.981 18.8281 45.1137 18.9865C45.2464 19.1449 45.3449 19.3332 45.4005 19.5558C45.4562 19.7785 45.4862 20.0225 45.4862 20.2879C45.4862 20.6389 45.4348 20.9772 45.3278 21.3025C45.225 21.6279 45.0666 21.9147 44.8611 22.163C44.6556 22.4113 44.3988 22.6082 44.0905 22.7581C43.7866 22.9036 43.4313 22.9764 43.0288 22.9764H41.3592L42.331 18.4941H43.778ZM41.8687 22.6125H42.9475C43.32 22.6168 43.6368 22.5526 43.9065 22.4199C44.1719 22.2872 44.3902 22.1074 44.5615 21.8847C44.7327 21.6621 44.8569 21.4053 44.9382 21.1141C45.0195 20.823 45.0581 20.5234 45.0581 20.2151C45.0581 19.3161 44.6086 18.8666 43.7095 18.8666H42.6864L41.8687 22.6211V22.6125Z" fill="#575756"/>
<path fill-rule="evenodd" clip-rule="evenodd" d="M46.3809 19.7399H46.7748L46.077 22.9764H45.6831L46.3809 19.7399ZM46.6506 18.4984H47.0445L46.9075 19.132H46.5136L46.6506 18.4984Z" fill="#575756"/>
<path fill-rule="evenodd" clip-rule="evenodd" d="M47.4298 21.9233C47.4298 22.0817 47.4555 22.2144 47.5068 22.3171C47.5582 22.4199 47.6267 22.5055 47.7123 22.5697C47.7979 22.6339 47.8964 22.6767 48.0077 22.7024C48.119 22.7281 48.2303 22.7409 48.3416 22.7409C48.4273 22.7409 48.5214 22.7281 48.6156 22.7067C48.7098 22.6853 48.7997 22.6468 48.881 22.5997C48.9624 22.5526 49.0266 22.4884 49.078 22.4156C49.1293 22.3385 49.155 22.2486 49.155 22.1459C49.155 22.0431 49.1293 21.9532 49.078 21.8805C49.0266 21.8077 48.9624 21.7435 48.8768 21.6921C48.7911 21.6407 48.697 21.5936 48.5942 21.5551C48.4915 21.5166 48.3844 21.4738 48.2817 21.4309C48.1747 21.3881 48.0676 21.3453 47.9649 21.294C47.8622 21.2469 47.7723 21.1869 47.6866 21.1184C47.6053 21.0499 47.5411 20.9686 47.4897 20.8744C47.4383 20.7802 47.4126 20.6646 47.4126 20.5319C47.4126 20.3778 47.4512 20.2451 47.524 20.1295C47.601 20.0182 47.6952 19.924 47.8108 19.8512C47.9264 19.7785 48.0591 19.7271 48.2004 19.6928C48.3416 19.6586 48.4786 19.6415 48.6071 19.6415C48.774 19.6415 48.9281 19.6586 49.0737 19.6971C49.2192 19.7357 49.3434 19.7956 49.4461 19.8812C49.5489 19.9625 49.6259 20.0738 49.6859 20.2023C49.7415 20.335 49.7672 20.4934 49.7629 20.6818H49.3691C49.3776 20.5576 49.3648 20.4506 49.3263 20.3607C49.2877 20.2708 49.2364 20.198 49.1679 20.1423C49.0994 20.0824 49.018 20.0396 48.9239 20.0139C48.8297 19.9882 48.7269 19.9711 48.6156 19.9711C48.53 19.9711 48.4358 19.9797 48.3416 19.9968C48.2474 20.0139 48.1618 20.0396 48.0848 20.0824C48.0077 20.1209 47.9435 20.1766 47.8921 20.2494C47.8407 20.3222 47.8151 20.4121 47.8151 20.5276C47.8151 20.6004 47.8322 20.6689 47.8707 20.7288C47.9092 20.7888 47.9563 20.8402 48.0206 20.8873C48.0848 20.9343 48.1533 20.9729 48.2346 21.0114C48.3159 21.0499 48.4016 21.0842 48.4957 21.1227C48.6071 21.1698 48.7269 21.2169 48.8511 21.264C48.9752 21.3111 49.0865 21.371 49.1893 21.4438C49.292 21.5166 49.3776 21.6022 49.4461 21.7006C49.5146 21.7991 49.5489 21.9275 49.5489 22.0774C49.5489 22.2615 49.5104 22.4156 49.4333 22.5397C49.3562 22.6639 49.2535 22.7666 49.1293 22.8437C49.0052 22.9207 48.8639 22.9764 48.7098 23.0149C48.5557 23.0492 48.4016 23.0663 48.2475 23.0663C48.0933 23.0663 47.9392 23.0449 47.7894 23.0021C47.6395 22.9593 47.5068 22.8908 47.3912 22.7966C47.2757 22.7024 47.1857 22.5868 47.1173 22.437C47.0488 22.2914 47.0231 22.1159 47.0274 21.9147H47.4212L47.4298 21.9233Z" fill="#575756"/>
<path fill-rule="evenodd" clip-rule="evenodd" d="M52.8453 20.7503C52.8539 20.6304 52.841 20.5191 52.8025 20.4249C52.764 20.3264 52.7126 20.2494 52.6441 20.1852C52.5756 20.1209 52.49 20.0696 52.3915 20.0353C52.293 20.0011 52.186 19.9839 52.0704 19.9839C51.8307 19.9839 51.6252 20.0353 51.454 20.1423C51.2784 20.2451 51.1372 20.3821 51.0173 20.549C50.9017 20.716 50.8118 20.9044 50.7561 21.1141C50.7005 21.3239 50.6705 21.5337 50.6705 21.7392C50.6705 21.8847 50.6876 22.0174 50.7219 22.1416C50.7561 22.2615 50.8118 22.3685 50.8889 22.4584C50.9659 22.5483 51.0601 22.6168 51.1714 22.6682C51.2827 22.7195 51.4197 22.7452 51.5738 22.7452C51.8393 22.7452 52.0619 22.6682 52.2417 22.5183C52.4215 22.3685 52.5542 22.1716 52.6398 21.9361H53.0337C52.9138 22.3086 52.7297 22.5911 52.4814 22.788C52.2331 22.9807 51.9163 23.0791 51.5225 23.0791C51.3212 23.0791 51.1457 23.0449 50.9873 22.9807C50.8332 22.9165 50.7005 22.8266 50.5935 22.7067C50.4864 22.5911 50.4051 22.4498 50.3537 22.2872C50.2981 22.1245 50.2724 21.9404 50.2724 21.7392C50.2724 21.4866 50.3109 21.2383 50.3923 20.9857C50.4736 20.7331 50.5849 20.5105 50.739 20.3136C50.8889 20.1167 51.0729 19.9583 51.2913 19.8341C51.5096 19.71 51.7579 19.65 52.0319 19.65C52.2074 19.65 52.3701 19.6714 52.5199 19.7142C52.6698 19.7571 52.7982 19.8255 52.9095 19.9197C53.0165 20.0096 53.1022 20.1252 53.1621 20.2665C53.222 20.4035 53.2477 20.5662 53.2434 20.7545H52.8496L52.8453 20.7503Z" fill="#575756"/>
<path fill-rule="evenodd" clip-rule="evenodd" d="M55.461 19.6457C55.6494 19.6457 55.8206 19.6757 55.979 19.7314C56.1374 19.787 56.2701 19.8726 56.3857 19.9797C56.497 20.0867 56.5869 20.2194 56.6511 20.3778C56.7154 20.5362 56.7453 20.7117 56.7453 20.9129C56.7453 21.1869 56.7068 21.4523 56.634 21.7092C56.557 21.9704 56.4457 22.1973 56.2958 22.3985C56.146 22.5997 55.9619 22.7624 55.7393 22.8865C55.5167 23.0107 55.2512 23.0706 54.9516 23.0706C54.7418 23.0706 54.5577 23.0363 54.395 22.9721C54.2324 22.9079 54.0996 22.818 53.9883 22.6981C53.8813 22.5825 53.7957 22.4413 53.74 22.27C53.6844 22.1031 53.6544 21.919 53.6544 21.7178C53.6544 21.4566 53.6929 21.1955 53.7743 20.9472C53.8556 20.6946 53.9712 20.472 54.1253 20.2836C54.2794 20.091 54.4678 19.9369 54.6947 19.8213C54.9173 19.7057 55.1742 19.6457 55.4653 19.6457H55.461ZM55.0201 22.7409C55.2384 22.7409 55.4268 22.6853 55.5937 22.574C55.7607 22.4627 55.8977 22.3214 56.009 22.1502C56.1203 21.9789 56.2016 21.7905 56.2616 21.5851C56.3172 21.3796 56.3472 21.1826 56.3472 20.9943C56.3472 20.6946 56.2659 20.4506 56.1075 20.2579C55.9491 20.0696 55.7093 19.9754 55.3925 19.9754C55.1742 19.9754 54.9815 20.0268 54.8146 20.1338C54.6476 20.2408 54.5063 20.3778 54.395 20.5405C54.2837 20.7074 54.1981 20.8915 54.1382 21.0927C54.0782 21.2939 54.0483 21.4909 54.0483 21.6792C54.0483 21.9918 54.1296 22.2486 54.288 22.4413C54.4464 22.6339 54.6904 22.7324 55.0201 22.7324V22.7409Z" fill="#575756"/>
<path fill-rule="evenodd" clip-rule="evenodd" d="M57.4003 19.7399H57.8156L58.1966 22.5312H58.2094L59.7292 19.7399H60.1616L58.3379 22.9764H57.9098L57.4003 19.7399Z" fill="#575756"/>
<path fill-rule="evenodd" clip-rule="evenodd" d="M60.7139 21.4652C60.701 21.5422 60.6967 21.6236 60.6967 21.7178C60.6967 21.8633 60.7139 22.0003 60.7524 22.1245C60.7909 22.2486 60.8466 22.3599 60.9236 22.4498C61.0007 22.5397 61.0992 22.6125 61.219 22.6639C61.3389 22.7153 61.4759 22.7409 61.6343 22.7409C61.8954 22.7409 62.1181 22.6682 62.3021 22.5183C62.4862 22.3685 62.6189 22.1758 62.696 21.9361H63.0898C62.9828 22.3 62.803 22.5783 62.559 22.7752C62.315 22.9721 61.9982 23.0706 61.6129 23.0706C61.1805 23.0706 60.8551 22.9464 60.6325 22.6981C60.4099 22.4498 60.2986 22.1159 60.2986 21.6964C60.2986 21.4395 60.3371 21.1912 60.4142 20.9429C60.4912 20.6946 60.6068 20.4763 60.7567 20.2836C60.9065 20.091 61.0906 19.9369 61.3089 19.817C61.5273 19.7014 61.7756 19.6415 62.0496 19.6415C62.2422 19.6415 62.4134 19.6714 62.5676 19.7314C62.7217 19.7913 62.8501 19.8769 62.9571 19.9882C63.0642 20.0995 63.1455 20.2323 63.1969 20.3864C63.2525 20.5405 63.2782 20.7117 63.2782 20.9001C63.2782 20.9943 63.2782 21.0842 63.2739 21.1784C63.2739 21.2683 63.2611 21.3624 63.2482 21.4609H60.7139V21.4652ZM62.8801 21.1313C62.8801 21.0842 62.8801 21.0414 62.8801 21.0028C62.8801 20.9643 62.8801 20.9215 62.8801 20.8787C62.8801 20.6047 62.803 20.3864 62.6446 20.2237C62.4862 20.0567 62.2722 19.9754 61.9939 19.9754C61.8312 19.9754 61.6814 20.0096 61.5444 20.0738C61.4074 20.1381 61.2875 20.2237 61.1848 20.3307C61.082 20.4377 60.9921 20.5576 60.9194 20.6989C60.8466 20.8359 60.7909 20.9814 60.761 21.1313H62.8801Z" fill="#575756"/>
<path fill-rule="evenodd" clip-rule="evenodd" d="M64.2243 19.7399H64.5839L64.4213 20.4848H64.4341C64.4983 20.3692 64.5668 20.2622 64.6396 20.1638C64.7167 20.0696 64.8023 19.984 64.8965 19.9112C64.9949 19.8384 65.0977 19.787 65.2132 19.7485C65.3288 19.71 65.4573 19.6928 65.6071 19.6928H65.7141C65.7527 19.6928 65.7869 19.6928 65.8212 19.6971L65.7355 20.091C65.697 20.091 65.6585 20.091 65.6242 20.091C65.5857 20.091 65.5472 20.091 65.5129 20.091C65.3374 20.0953 65.179 20.1295 65.042 20.198C64.905 20.2665 64.7851 20.3521 64.6867 20.4634C64.5882 20.5747 64.5069 20.6989 64.4427 20.8444C64.3784 20.9857 64.3271 21.1313 64.2971 21.2854L63.9332 22.9807H63.5394L64.2372 19.7442L64.2243 19.7399Z" fill="#575756"/>
<path fill-rule="evenodd" clip-rule="evenodd" d="M66.3263 19.7399H66.7202L66.0224 22.9764H65.6285L66.3263 19.7399ZM66.596 18.4984H66.9899L66.8529 19.132H66.459L66.596 18.4984Z" fill="#575756"/>
<path fill-rule="evenodd" clip-rule="evenodd" d="M67.4865 21.4652C67.4736 21.5422 67.4694 21.6236 67.4694 21.7178C67.4694 21.8633 67.4865 22.0003 67.525 22.1245C67.5635 22.2486 67.6192 22.3599 67.6963 22.4498C67.7733 22.5397 67.8718 22.6125 67.9917 22.6639C68.1115 22.7153 68.2485 22.7409 68.4069 22.7409C68.6681 22.7409 68.8907 22.6682 69.0748 22.5183C69.2588 22.3685 69.3916 22.1758 69.4686 21.9361H69.8625C69.7554 22.3 69.5756 22.5783 69.3316 22.7752C69.0876 22.9721 68.7708 23.0706 68.3855 23.0706C67.9531 23.0706 67.6278 22.9464 67.4051 22.6981C67.1825 22.4498 67.0712 22.1159 67.0712 21.6964C67.0712 21.4395 67.1098 21.1912 67.1868 20.9429C67.2639 20.6946 67.3795 20.4763 67.5293 20.2836C67.6791 20.091 67.8632 19.9369 68.0816 19.817C68.2999 19.7014 68.5439 19.6415 68.8222 19.6415C69.0148 19.6415 69.1861 19.6714 69.3402 19.7314C69.4943 19.7913 69.6227 19.8769 69.7298 19.9882C69.8368 20.0995 69.9181 20.2323 69.9695 20.3864C70.0252 20.5405 70.0508 20.7117 70.0508 20.9001C70.0508 20.9943 70.0508 21.0842 70.0466 21.1784C70.0466 21.2683 70.0337 21.3624 70.0209 21.4609H67.4865V21.4652ZM69.6527 21.1313C69.6527 21.0842 69.6527 21.0414 69.6527 21.0028C69.6527 20.9643 69.6527 20.9215 69.6527 20.8787C69.6527 20.6047 69.5756 20.3864 69.4172 20.2237C69.2588 20.0567 69.0448 19.9754 68.7665 19.9754C68.6038 19.9754 68.454 20.0096 68.317 20.0738C68.18 20.1381 68.0602 20.2237 67.9574 20.3307C67.8547 20.4377 67.7648 20.5576 67.692 20.6989C67.6192 20.8359 67.5635 20.9814 67.5336 21.1313H69.6527Z" fill="#575756"/>
<path fill-rule="evenodd" clip-rule="evenodd" d="M70.7572 21.9233C70.7572 22.0817 70.7829 22.2144 70.8343 22.3171C70.8857 22.4199 70.9542 22.5055 71.0398 22.5697C71.1254 22.6339 71.2239 22.6767 71.3352 22.7024C71.4465 22.7281 71.5578 22.7409 71.6691 22.7409C71.7547 22.7409 71.8489 22.7281 71.9431 22.7067C72.0373 22.6853 72.1272 22.6468 72.2085 22.5997C72.2898 22.5526 72.3541 22.4884 72.4054 22.4156C72.4568 22.3385 72.4825 22.2486 72.4825 22.1459C72.4825 22.0431 72.4568 21.9532 72.4054 21.8805C72.3541 21.8077 72.2898 21.7435 72.2042 21.6921C72.1186 21.6407 72.0244 21.5936 71.9217 21.5551C71.8189 21.5166 71.7119 21.4738 71.6091 21.4309C71.5021 21.3881 71.3951 21.3453 71.2924 21.294C71.1896 21.2469 71.0997 21.1869 71.0141 21.1184C70.9327 21.0499 70.8685 20.9686 70.8172 20.8744C70.7658 20.7802 70.7401 20.6646 70.7401 20.5319C70.7401 20.3778 70.7786 20.2451 70.8514 20.1295C70.9285 20.0182 71.0226 19.924 71.1382 19.8512C71.2538 19.7785 71.3865 19.7271 71.5278 19.6928C71.6691 19.6586 71.8061 19.6415 71.9345 19.6415C72.1015 19.6415 72.2556 19.6586 72.4011 19.6971C72.5467 19.7357 72.6708 19.7956 72.7693 19.8812C72.8721 19.9625 72.9491 20.0738 73.0091 20.2023C73.0647 20.335 73.0904 20.4934 73.0861 20.6818H72.6923C72.7008 20.5576 72.688 20.4506 72.6494 20.3607C72.6109 20.2708 72.5595 20.198 72.491 20.1423C72.4225 20.0824 72.3412 20.0396 72.247 20.0139C72.1528 19.9882 72.0501 19.9711 71.9388 19.9711C71.8532 19.9711 71.759 19.9797 71.6691 19.9968C71.5749 20.0139 71.4893 20.0396 71.4122 20.0824C71.3352 20.1209 71.2709 20.1766 71.2196 20.2494C71.1682 20.3222 71.1425 20.4121 71.1425 20.5276C71.1425 20.6004 71.1596 20.6689 71.1982 20.7288C71.2367 20.7888 71.2838 20.8402 71.348 20.8873C71.4122 20.9343 71.4807 20.9729 71.5621 21.0114C71.6434 21.0499 71.729 21.0842 71.8232 21.1227C71.9345 21.1698 72.0544 21.2169 72.1785 21.264C72.3027 21.3111 72.414 21.371 72.5167 21.4438C72.6195 21.5166 72.7051 21.6022 72.7736 21.7006C72.8421 21.7991 72.8763 21.9275 72.8763 22.0774C72.8763 22.2615 72.8378 22.4156 72.7607 22.5397C72.6837 22.6639 72.5809 22.7666 72.4568 22.8437C72.3326 22.9207 72.1914 22.9764 72.0373 23.0149C71.8831 23.0492 71.729 23.0663 71.5749 23.0663C71.4208 23.0663 71.2667 23.0449 71.1168 23.0021C70.967 22.9593 70.8343 22.8908 70.7187 22.7966C70.6031 22.7024 70.5132 22.5868 70.4447 22.437C70.3762 22.2914 70.3505 22.1159 70.3591 21.9147H70.7529L70.7572 21.9233Z" fill="#575756"/>
<path fill-rule="evenodd" clip-rule="evenodd" d="M3.87007 10.8054C3.88291 11.2206 4.00278 11.5332 4.2254 11.7386C4.43517 11.9099 4.75197 11.9912 5.17151 11.9912C5.41125 11.9912 5.60389 11.957 5.74089 11.8842C5.88216 11.8157 5.98919 11.7301 6.05769 11.6316C6.12618 11.5332 6.16899 11.4347 6.1904 11.3405C6.2118 11.242 6.22037 11.1607 6.22037 11.0965C6.2118 10.9167 6.15615 10.7711 6.04484 10.6684C5.93354 10.5656 5.77942 10.4757 5.57821 10.403C5.377 10.3345 5.14154 10.2745 4.86755 10.2317C4.59785 10.1846 4.28961 10.129 3.95141 10.069C3.79729 10.0433 3.57468 9.99625 3.29213 9.91919C3.00958 9.8507 2.72275 9.72227 2.43164 9.54247C2.14481 9.36266 1.89222 9.10152 1.67817 8.77188C1.46412 8.44224 1.34425 8.00557 1.32713 7.46188C1.30572 6.7341 1.41703 6.13475 1.67389 5.65955C1.92647 5.18435 2.27324 4.80763 2.7099 4.5208C3.14229 4.23396 3.63461 4.03703 4.18687 3.92572C4.73484 3.81442 5.29138 3.75876 5.85648 3.75876C6.3488 3.75876 6.85396 3.79729 7.37197 3.87435C7.88998 3.95141 8.36089 4.10553 8.78472 4.33243C9.20426 4.55932 9.54674 4.8804 9.80789 5.30422C10.069 5.72377 10.1846 6.27174 10.1589 6.94815H6.97383C6.99952 6.57142 6.90534 6.30599 6.69556 6.15188C6.57141 6.04913 6.4387 5.98063 6.29314 5.94638C6.14759 5.91213 6.00203 5.89929 5.86076 5.89929C5.62102 5.89929 5.39412 5.95923 5.18007 6.08338C4.96602 6.20753 4.86756 6.4173 4.87612 6.71697C4.88468 6.99096 4.96602 7.17933 5.12014 7.28207C5.27425 7.38482 5.47118 7.45331 5.71092 7.479C6.37448 7.58174 6.95671 7.70162 7.46187 7.83861C7.96704 7.9756 8.38658 8.15969 8.7205 8.39086C9.0587 8.62632 9.31557 8.92171 9.48681 9.27704C9.66233 9.63236 9.75651 10.0776 9.77364 10.6084C9.79076 11.1907 9.70086 11.7172 9.49537 12.1839C9.28988 12.6505 8.98592 13.0444 8.57922 13.3612C8.17681 13.678 7.68449 13.9263 7.11083 14.1018C6.53288 14.2773 5.88645 14.3629 5.16295 14.3672C4.65778 14.3672 4.13978 14.3244 3.60036 14.2388C3.06523 14.1532 2.57719 13.9819 2.13196 13.7208C1.69102 13.4639 1.32713 13.1043 1.03173 12.6419C0.740621 12.1796 0.595066 11.5674 0.595066 10.8011H3.87007V10.8054Z" fill="#E30613"/>
<path fill-rule="evenodd" clip-rule="evenodd" d="M12.5649 4.01135H16.131L14.5213 14.1103H10.9552L12.5649 4.01135ZM12.749 2.70563L13.1814 0H16.7475L16.3151 2.70563H12.749Z" fill="#E30613"/>
<path fill-rule="evenodd" clip-rule="evenodd" d="M18.1474 4.01135H21.6065L21.3967 5.33419H21.4309C21.7734 4.85472 22.193 4.46942 22.681 4.18259C23.169 3.90004 23.7127 3.75448 24.3164 3.75448C24.92 3.75448 25.4765 3.87863 25.9603 4.12693C26.4398 4.37095 26.7523 4.80762 26.8936 5.43265C27.2575 4.9018 27.6941 4.48654 28.2036 4.19543C28.713 3.90432 29.2781 3.75448 29.8989 3.75448C30.8107 3.75448 31.5471 3.98994 32.1036 4.46514C32.6601 4.94034 32.9555 5.70236 32.9898 6.75122C32.9983 6.9824 32.9769 7.2521 32.9341 7.55606C32.8913 7.86001 32.8528 8.12544 32.8271 8.34377L31.8853 14.1061H28.3234L29.1154 9.28132C29.1283 9.22995 29.1411 9.14005 29.1582 9.00734C29.1796 8.8789 29.1968 8.73335 29.2182 8.57923C29.2353 8.42083 29.2524 8.27527 29.2653 8.134C29.2781 7.98844 29.2824 7.87713 29.2824 7.80008C29.2695 7.47472 29.1839 7.2307 29.0127 7.0723C28.8457 6.90962 28.6188 6.82828 28.3277 6.82828C27.981 6.82828 27.6898 6.93102 27.4544 7.13223C27.2232 7.33344 27.0734 7.62027 27.0177 7.99701L25.9945 14.1061H22.4284L23.3317 8.6991C23.3531 8.57067 23.3745 8.41655 23.4045 8.24102C23.4345 8.0655 23.4473 7.9071 23.443 7.76583C23.4216 7.14507 23.1134 6.83256 22.5098 6.83256C22.0688 6.83256 21.7306 6.97383 21.508 7.2521C21.2811 7.53037 21.1355 7.88998 21.0671 8.33093L20.1081 14.1103H16.542L18.1517 4.01135H18.1474Z" fill="#E30613"/>
<path fill-rule="evenodd" clip-rule="evenodd" d="M36.1877 0.209774H42.5622C43.153 0.209774 43.6881 0.295395 44.1719 0.470918C44.6556 0.646441 45.0752 0.916149 45.422 1.2886C45.7687 1.65677 46.047 2.1234 46.2525 2.6885C46.458 3.2536 46.5736 3.91717 46.595 4.67919C46.6206 5.38128 46.5093 6.04485 46.2653 6.67844C46.0213 7.30776 45.6703 7.86429 45.2036 8.34377C44.7413 8.82325 44.1676 9.19998 43.4869 9.48253C42.8062 9.7608 42.0442 9.90207 41.2051 9.90207H38.5423L37.8702 14.1061H33.9616L36.1834 0.214053L36.1877 0.209774ZM39.0817 6.59282H40.5929C41.3849 6.59282 41.9286 6.44299 42.2283 6.15188C42.5237 5.86076 42.665 5.47975 42.6478 5.01311C42.6393 4.73913 42.5793 4.52507 42.4723 4.36239C42.3653 4.19971 42.2283 4.07556 42.0656 3.98994C41.8986 3.90432 41.7146 3.84439 41.5091 3.81442C41.3036 3.78017 41.0981 3.76733 40.8969 3.76733H39.5484L39.086 6.58854L39.0817 6.59282Z" fill="#E30613"/>
<path fill-rule="evenodd" clip-rule="evenodd" d="M51.5439 0.20121H55.431L57.8884 14.0932H54.0012L53.7186 12.1111H49.5232L48.5985 14.0975H44.5657L51.5439 0.20121ZM50.8675 9.13148H53.3333L52.764 4.96602H52.7297L50.8675 9.13148Z" fill="#E30613"/>
<path fill-rule="evenodd" clip-rule="evenodd" d="M61.4031 3.75876H57.837L58.4021 0.20121L69.4643 0.196931L68.9292 3.75448H65.3631L63.7234 14.0889H59.7635L61.4031 3.75876Z" fill="#E30613"/>
<path fill-rule="evenodd" clip-rule="evenodd" d="M71.4679 0.192653H75.4278L73.2231 14.0847L69.2631 14.0889L71.4679 0.192653Z" fill="#E30613"/>
<path fill-rule="evenodd" clip-rule="evenodd" d="M79.9914 1.90507C79.9914 2.1705 79.9443 2.41023 79.8502 2.62857C79.756 2.8469 79.6318 3.03099 79.4692 3.18939C79.3108 3.34351 79.1267 3.46337 78.9169 3.549C78.7071 3.63462 78.4845 3.67743 78.2576 3.67743C78.0008 3.67743 77.7653 3.63033 77.5555 3.54471C77.3415 3.45481 77.1574 3.33066 77.0076 3.17226C76.8534 3.01386 76.7336 2.8255 76.6479 2.61144C76.5623 2.39739 76.5195 2.16193 76.5195 1.90935C76.5195 1.65677 76.5666 1.40419 76.6608 1.18585C76.755 0.967519 76.8791 0.783435 77.0418 0.625036C77.2002 0.470919 77.3886 0.351051 77.5983 0.26543C77.8081 0.179809 78.0307 0.136997 78.2662 0.136997C78.5016 0.136997 78.7157 0.179809 78.9255 0.26543C79.1352 0.351051 79.3193 0.470919 79.4777 0.625036C79.6361 0.779154 79.7646 0.967519 79.8587 1.18585C79.9529 1.40419 80 1.64393 80 1.90935L79.9914 1.90507ZM79.6104 1.90507C79.6104 1.69102 79.5762 1.49409 79.5077 1.31429C79.4392 1.13448 79.3407 0.980363 79.2166 0.851932C79.0924 0.7235 78.9511 0.620756 78.7842 0.552259C78.6215 0.479481 78.4417 0.445233 78.2533 0.445233C78.065 0.445233 77.8809 0.479481 77.7139 0.552259C77.547 0.625037 77.4014 0.7235 77.2815 0.851932C77.1574 0.980363 77.0632 1.13448 76.9947 1.31429C76.9262 1.49409 76.892 1.69102 76.892 1.90507C76.892 2.10628 76.9219 2.29464 76.9861 2.47445C77.0504 2.64997 77.1403 2.80409 77.2601 2.9368C77.38 3.06951 77.5213 3.17226 77.6882 3.2536C77.8552 3.33066 78.0436 3.36919 78.2576 3.36919C78.446 3.36919 78.6258 3.33494 78.7885 3.26217C78.9511 3.18939 79.0967 3.09092 79.2209 2.96249C79.345 2.83405 79.4392 2.67994 79.512 2.50014C79.5805 2.32033 79.6147 2.12341 79.6147 1.90507H79.6104ZM77.9066 2.91968V2.08059H78.2105L78.7157 2.91968H79.0796L78.5316 2.05919C78.6772 2.04207 78.797 1.99497 78.8955 1.91363C78.994 1.83229 79.0411 1.70386 79.0411 1.52406C79.0411 1.32713 78.9811 1.18157 78.8612 1.09167C78.7414 1.00177 78.5616 0.958958 78.3261 0.958958H77.5812V2.91968H77.9066ZM78.2662 1.8066C78.3261 1.8066 78.3818 1.80661 78.4374 1.79805C78.4931 1.79377 78.5402 1.78092 78.583 1.75951C78.6215 1.73811 78.6558 1.70814 78.6814 1.66533C78.7071 1.6268 78.72 1.57115 78.72 1.49837C78.72 1.43843 78.7071 1.39134 78.6814 1.35709C78.6558 1.32284 78.6215 1.29716 78.5787 1.27576C78.5359 1.25435 78.4931 1.24579 78.4417 1.24151C78.3903 1.23723 78.3432 1.23294 78.2961 1.23294H77.9066V1.8066H78.2662Z" fill="#E30613"/>
</g>
<defs>
<clipPath id="clip0_1801_9894">
<rect width="80" height="24.1751" fill="white"/>
</clipPath>
</defs>
</svg>
