<svg width="80" height="14" viewBox="0 0 80 14" fill="none" xmlns="http://www.w3.org/2000/svg">
<g clip-path="url(#clip0_1801_9885)">
<path d="M27.0245 13.3568C25.5823 13.2068 24.644 12.7079 24.2421 11.8774C24.0872 11.5574 23.9597 10.9448 23.9584 10.5139C23.9549 9.25369 24.576 8.38108 25.7865 7.94561C26.4735 7.69856 27.1141 7.62209 28.4976 7.62209H29.7539V7.2674C29.7539 6.349 29.0718 5.7949 27.9527 5.80392C27.3386 5.80882 26.9135 5.92029 26.144 6.27782C25.4457 6.60232 25.2749 6.6134 24.9374 6.35596C24.7296 6.19753 24.3149 5.41256 24.2843 5.12032C24.2688 4.97121 24.3071 4.92621 24.6539 4.68651C25.8905 3.83164 28.0937 3.45862 29.6043 3.84831C30.6208 4.11055 31.3771 4.68592 31.7834 5.5057C32.1547 6.25508 32.1696 6.42743 32.1719 9.99376L32.1738 13.125L32.0472 13.1564C31.2747 13.3476 28.1385 13.4727 27.0245 13.3568ZM29.5781 11.4137L29.7539 11.3785V9.31046L28.7832 9.31095C27.3035 9.31163 26.7973 9.43545 26.5062 9.86759C26.4068 10.015 26.3774 10.1374 26.3776 10.4022C26.3779 10.9637 26.5991 11.2092 27.2497 11.37C27.5453 11.443 29.2697 11.4754 29.5781 11.4137ZM60.9083 13.3545C59.3176 13.1503 58.1686 12.4052 57.5261 11.1612C56.753 9.66446 56.7725 7.45376 57.5717 5.97588C58.4044 4.43584 59.9944 3.58214 61.808 3.70125C63.6533 3.82243 64.7945 4.6721 65.3232 6.31841C65.5297 6.96152 65.6019 7.51856 65.6019 8.47029V9.25409H59.4521L59.4846 9.52878C59.5533 10.1086 59.928 10.6433 60.467 10.9305C60.9391 11.1822 61.3727 11.2801 62.0149 11.2801C62.9463 11.2801 63.7647 11.027 64.4105 10.5393L64.7174 10.3078L64.82 10.4422C64.8766 10.5161 64.9996 10.7317 65.0936 10.9212C65.3992 11.5383 65.2883 12.1397 64.7946 12.5403C63.9618 13.2163 62.3928 13.545 60.9083 13.3545ZM63.3046 7.53699C63.357 7.48445 63.2349 6.87123 63.1202 6.61124C62.9696 6.26998 62.666 5.96872 62.3157 5.81304C61.9043 5.6303 61.0951 5.63001 60.6371 5.81235C60.0512 6.04577 59.557 6.67899 59.4848 7.28877L59.452 7.56582H61.3639C62.4153 7.56582 63.2887 7.55287 63.3046 7.53699ZM2.23491 13.327C1.32455 13.2186 0.46889 12.9066 0.197429 12.5839C0.00724002 12.3579 -0.0470718 12.0104 0.0411604 11.5823C0.132334 11.1401 0.411441 10.5269 0.503693 10.5665L1.02495 10.7898C1.85257 11.1444 2.81096 11.3144 3.70525 11.2651C4.59404 11.2161 4.97049 10.9718 4.95883 10.4514C4.94824 9.97533 4.65404 9.80338 3.39271 9.53555C2.03413 9.24713 1.50209 9.02135 0.948481 8.49833C0.460753 8.03756 0.2089 7.40376 0.2089 6.63742C0.2089 5.83578 0.468498 5.22473 1.03338 4.69632C2.04756 3.74763 3.83348 3.45273 5.94281 3.88556C6.55014 4.01026 7.24855 4.24957 7.28541 4.34574C7.33433 4.47319 7.14561 5.25541 6.98846 5.57667C6.91052 5.73618 6.77769 5.91245 6.69337 5.96842C6.49093 6.10283 6.0634 6.09097 5.44263 5.93352C4.77442 5.76412 3.6628 5.71824 3.23526 5.84255C2.82802 5.96097 2.62881 6.18234 2.62881 6.51664C2.62881 6.99505 2.87812 7.14838 4.04955 7.39033C5.90027 7.77267 6.77112 8.26314 7.19032 9.15889C7.48286 9.78397 7.54403 10.9385 7.29884 11.6306C6.43025 13.4121 4.18542 13.6158 2.23491 13.327ZM41.679 13.2815C40.7365 13.0841 40.1651 12.5646 39.8491 11.6177C39.7532 11.3305 39.7445 11.0025 39.7273 7.05936C39.7172 4.72249 39.7239 2.72894 39.7422 2.62924C39.8234 2.18837 40.3241 1.88652 41.442 1.60476C41.8194 1.50967 42.1423 1.43173 42.1596 1.43173C42.1768 1.43173 42.1909 1.97622 42.1909 2.64169V3.85164H44.6805L44.6567 4.56916C44.6385 5.11806 44.6082 5.33786 44.5278 5.50462C44.3682 5.83549 44.2094 5.87755 43.1214 5.87755H42.191V8.20109C42.191 10.4987 42.1924 10.5275 42.3176 10.7757C42.4095 10.958 42.5137 11.0626 42.6975 11.1575C42.9357 11.2806 42.9999 11.287 43.7864 11.267L44.622 11.2457L44.6024 11.896C44.5863 12.4268 44.5614 12.5824 44.4671 12.7431C44.3344 12.9689 44.0674 13.1652 43.7733 13.2531C43.4412 13.3523 42.1038 13.3704 41.679 13.2815ZM20.137 11.7239C20.1305 11.2812 20.1307 10.6792 20.1307 9.85338C20.1307 8.08197 20.1087 6.96231 20.0704 6.78359C19.9311 6.1342 19.4735 5.80706 18.6583 5.77392C17.2782 5.8248 16.899 6.6781 16.8667 7.38827L16.8929 13.2216C16.068 13.2436 15.2435 13.2318 14.4187 13.2216L14.3906 9.95759C14.3629 6.75065 14.3603 6.68967 14.2412 6.4685C13.9819 5.98666 13.6502 5.80882 12.9495 5.77618C12.2611 5.74412 11.8785 5.85392 11.5576 6.17587C11.1518 6.58291 11.162 6.4884 11.1422 10.042L11.1246 13.2216L8.70664 13.252L8.70762 9.97269C8.70869 6.28949 8.71389 6.22939 9.09878 5.44874C9.49445 4.64583 10.2414 4.08369 11.2672 3.81694C11.8469 3.66616 13.2947 3.6791 13.8921 3.84046C14.5132 4.00811 14.9885 4.2677 15.3431 4.63298L15.6499 4.94905L15.9643 4.63945C16.3442 4.26565 16.8217 4.00242 17.4118 3.84154C18.048 3.66812 19.4566 3.66831 20.0937 3.84194C21.4224 4.20398 22.2565 5.04895 22.5218 6.30126C22.5895 6.62085 22.6052 7.29416 22.6058 9.93739C22.6068 12.9438 22.5999 13.1841 22.5109 13.2183C21.1401 13.495 20.1061 13.384 20.137 11.7239ZM73.3816 13.2503C73.0471 13.1789 72.8628 13.0787 72.7258 12.894C72.6108 12.7387 72.6076 12.6679 72.5802 9.71436C72.5714 8.78175 72.5627 8.1604 72.5541 7.22779C72.6048 6.29086 72.1272 5.73961 70.9413 5.7651C69.7778 5.74059 69.3199 6.38233 69.3564 6.9329L69.3443 13.2216H66.8681V10.0139C66.8681 7.13201 66.8783 6.76261 66.9686 6.37831C67.2568 5.15091 67.9933 4.34799 69.1815 3.96566C70.0642 3.68184 70.9822 3.61645 71.978 3.76664C73.6438 4.01762 74.6016 4.80023 74.9808 6.22018C75.0655 6.53664 75.0799 6.98662 75.0978 9.87985L75.1184 13.1787L74.9888 13.2163C74.7678 13.2801 73.6339 13.3041 73.3816 13.2503ZM33.7551 13.2216C33.782 12.3481 33.7575 10.849 33.7629 9.8922C33.7839 6.80918 33.7891 6.67732 33.9081 6.24332C34.253 4.98601 34.9535 4.27261 36.1517 3.95879C36.66 3.82566 37.7315 3.75978 38.3874 3.82125L38.8276 3.86242L38.8034 4.54642C38.7848 5.07414 38.7532 5.28825 38.6653 5.48364C38.4905 5.87206 38.4405 5.8946 37.6702 5.93294C36.9463 5.96892 36.851 5.99764 36.6078 6.25341C36.2582 6.62095 36.2596 6.6085 36.2382 10.0842L36.2189 13.2216C35.3797 13.2306 34.545 13.2241 33.7551 13.2216ZM45.9186 8.05825C45.9373 2.30984 45.9152 2.66012 46.3098 1.82976C46.5517 1.32115 47.1478 0.728032 47.6933 0.453336C48.4147 0.0900163 48.9181 -0.00154886 50.1822 1.97081e-05C50.7857 0.000803993 51.353 0.0208032 51.4427 0.0444298L51.6058 0.0874674L51.5706 0.661172C51.5284 1.34997 51.417 1.75623 51.2198 1.94152C51.0812 2.0719 51.0285 2.08053 50.1918 2.10974C49.4348 2.13612 49.2771 2.15768 49.0778 2.26199C48.6364 2.49316 48.3814 2.97589 48.3814 3.58047V3.85164H50.9024L50.9393 4.23153C50.9764 4.61338 50.9003 5.35472 50.8059 5.53099C50.7782 5.58295 50.6998 5.67598 50.6318 5.73755C50.5195 5.83931 50.4126 5.85108 49.4448 5.86794L48.3814 5.88637V13.2497H45.9019L45.9186 8.05825ZM51.5626 6.8329C51.5833 6.32027 51.7864 5.80314 52.0243 5.38835C52.4429 4.66641 53.1019 4.20192 54.0371 3.96173C54.5641 3.82645 55.6199 3.76145 56.3303 3.82066L56.8228 3.86174L56.8223 4.2928C56.8217 4.81974 56.7344 5.3859 56.6195 5.60814C56.4912 5.85617 56.2398 5.93382 55.5647 5.93382C55.2895 5.93382 55.1348 5.93774 55.0118 5.96117C54.6651 6.04146 54.3524 6.34753 54.1787 6.66948C54.0553 6.89604 54.0362 7.08956 54.0349 7.33308L54.0045 13.2497H51.5271L51.5626 6.8329Z" fill="#050708"/>
<path fill-rule="evenodd" clip-rule="evenodd" d="M76.5909 9.90845H80V13.2434H76.5909V9.90845Z" fill="#ED1D61"/>
</g>
<defs>
<clipPath id="clip0_1801_9885">
<rect width="80" height="13.4349" fill="white"/>
</clipPath>
</defs>
</svg>
