<svg width="80" height="14" viewBox="0 0 80 14" fill="none" xmlns="http://www.w3.org/2000/svg">
<g clip-path="url(#clip0_1801_9873)">
<path d="M4.20958 3.86181C5.80534 3.86046 7.45606 4.45428 7.36625 4.41608L6.90179 5.68947C6.7329 6.14588 6.26779 6.01117 5.53859 5.87377C5.14652 5.79267 4.69815 5.73235 4.24309 5.73235C2.95026 5.73235 2.51127 6.27723 2.51127 6.81674C2.5099 7.67997 3.32959 7.84819 4.30675 7.98559C5.75106 8.18263 7.66583 8.7322 7.66583 10.7334C7.66583 11.8768 7.38703 13.7078 3.73172 13.7078C1.49188 13.7078 0 12.9491 0 12.9491C0 12.9491 0.23189 12.3319 0.436973 11.8339C0.661492 11.2931 0.986548 11.3051 1.26937 11.4217C1.26937 11.4217 2.13528 11.84 3.32959 11.846C4.51385 11.8466 5.36701 11.7904 5.36701 10.7395C5.36701 9.91444 4.37646 9.82464 3.2619 9.64167C1.86251 9.41112 0.275452 8.70271 0.275452 6.83216C0.275452 4.60439 2.54211 3.86181 4.20958 3.86181Z" fill="#404042"/>
<path d="M9.51093 5.27528V13.5135H11.805V6.46557C12.0409 6.1117 12.6911 5.8282 13.4584 5.8282C14.4738 5.8282 15.0374 6.52522 15.0374 7.26446V13.5135H17.3195V6.49305C17.3195 6.49305 17.6338 5.81882 18.9327 5.81882C20.6317 5.81882 20.564 7.44407 20.564 7.44407V12.8359C20.564 13.2152 20.8508 13.5135 21.2711 13.5135H22.8534V6.86837C22.8534 6.86837 22.8166 3.71772 19.2725 3.71772C17.105 3.71772 16.3243 4.38458 16.3243 4.38458C16.3243 4.38458 15.2372 3.70566 13.5087 3.70566C11.7809 3.70566 10.0799 4.37921 9.51093 5.27528Z" fill="#404042"/>
<path d="M80 7.16929V13.5135H78.3821C77.9713 13.5135 77.661 13.1643 77.661 12.6234V7.26379C77.661 6.52455 77.4673 5.73974 75.8347 5.73974C75.07 5.73974 74.2288 6.11103 73.9842 6.4649V13.5135H71.6693V5.27461C72.3918 4.55146 74.0727 3.70565 75.7991 3.70565C77.5283 3.70565 78.3365 4.16073 78.8667 4.48176C79.8197 5.04741 80 6.05406 80 7.16929Z" fill="#404042"/>
<path d="M30.6473 11.5209C30.6473 11.5209 29.6902 11.8038 29.2412 11.8038C28.8377 11.8038 26.9182 11.9278 26.9182 10.6919C26.9182 9.51033 28.1186 9.29117 28.2499 9.25498C29.0039 9.06263 30.6245 9.12965 30.6245 9.12965L30.6473 11.5209ZM32.9494 6.92667C32.9494 6.92667 33.2202 3.87991 29.2271 3.87991C26.2098 3.87991 25.4699 4.55079 25.4699 4.55079L25.7963 5.76118C25.9103 6.10098 26.2795 6.2129 26.8184 6.07618C27.3679 5.93276 28.1259 5.78397 28.9563 5.77325C30.8999 5.75113 30.6245 6.72561 30.6245 7.43603C29.9938 7.43603 28.6299 7.4119 27.7587 7.58146C27.5509 7.62168 24.7032 8.11361 24.7032 10.8581C24.7032 13.6046 27.2272 13.6395 28.4396 13.6395C30.2156 13.6395 32.1519 13.3861 32.9494 12.9029V6.92667Z" fill="#404042"/>
<path d="M35.1028 7.0272V13.5718H37.405V6.82681C37.405 6.82681 37.2997 5.86909 38.4391 5.84027C38.4543 5.84027 39.3298 5.92203 39.3486 5.92471C39.75 5.99911 40.2855 5.75113 40.3954 5.18413C40.4946 4.6044 40.6146 4.24517 40.6146 4.24517C40.6146 4.24517 39.2145 3.78474 37.6697 3.97173C37.5551 3.98845 35.1028 4.31152 35.1028 7.0272Z" fill="#404042"/>
<path d="M54.9677 7.0272V13.5718H57.2753V6.82681C57.2753 6.82681 57.1681 5.86909 58.3067 5.84027C58.32 5.84027 59.1921 5.92203 59.2182 5.92471C59.617 5.99911 60.1531 5.75113 60.259 5.18413C60.369 4.6044 60.4809 4.24517 60.4809 4.24517C60.4809 4.24517 59.0788 3.78474 57.536 3.97173C57.4146 3.98845 54.9677 4.31152 54.9677 7.0272Z" fill="#404042"/>
<path d="M41.9778 10.2911C41.9778 10.2911 41.6487 13.5818 45.2524 13.614H45.5929C46.5479 13.614 47.0271 13.4552 47.0271 13.4552C47.0271 13.4552 46.9815 13.1516 46.9091 12.535C46.832 11.9184 46.3113 11.716 45.7564 11.716C45.7469 11.716 45.4488 11.716 45.432 11.7146C44.4897 11.6871 44.2605 10.8192 44.2605 9.85077V5.8188H45.6143C46.1351 5.8188 46.6712 5.43142 46.6712 4.72234V3.98444H44.3577V1.31366C44.3577 1.31366 42.8745 1.66351 42.6352 1.73992C42.3919 1.82168 41.9778 2.09312 41.9778 2.7211L41.9778 10.2911Z" fill="#404042"/>
<path d="M48.9272 3.98446V13.5718H51.1904V5.81882H52.8157C53.3492 5.81882 53.7573 5.30477 53.7573 4.81351V3.98446H51.2092V2.9443C51.2092 2.9443 51.1697 1.93497 52.4726 1.90816H53.4939C54.01 1.90816 54.199 1.69771 54.2714 1.31838C54.3276 0.94172 54.4624 0.175673 54.4624 0.175673C54.4624 0.175673 53.6924 0.046999 52.9678 0.0101238C52.9678 0.0101238 52.5584 -0.0126548 52.0972 0.0101238C51.6355 5.45587e-05 48.9272 0.125411 48.9272 3.98446Z" fill="#404042"/>
<path d="M67.5636 7.82408H63.2978C63.2978 7.82408 63.3916 5.45825 65.419 5.45825C67.6568 5.45825 67.5636 7.82408 67.5636 7.82408ZM69.8511 8.50903C69.8663 8.00772 69.9825 3.68957 65.6013 3.67013C61.2147 3.64802 60.946 7.71618 60.946 8.70875C60.946 9.70535 61.2148 13.549 65.6462 13.549C68.0857 13.549 68.9074 13.0437 68.9074 13.0437C68.9074 13.0437 68.8183 12.6234 68.6956 12.1576C68.5702 11.7046 68.0857 11.4043 67.3679 11.5685C66.8639 11.6771 66.6542 11.7388 66.1173 11.7388C64.8077 11.7388 63.3614 11.0411 63.3614 9.52307H68.9416C69.4925 9.52307 69.8242 9.0003 69.8511 8.50903Z" fill="#404042"/>
</g>
<defs>
<clipPath id="clip0_1801_9873">
<rect width="80" height="13.7078" fill="white"/>
</clipPath>
</defs>
</svg>
