<svg width="80" height="14" viewBox="0 0 80 14" fill="none" xmlns="http://www.w3.org/2000/svg">
<g clip-path="url(#clip0_1801_10106)">
<g clip-path="url(#clip1_1801_10106)">
<path d="M36.2939 11.3804C34.8882 11.3804 33.8658 10.3575 33.8658 8.69517C33.8658 7.03286 34.8882 6.0099 36.2939 6.0099C37.6997 6.0099 38.722 7.03286 38.722 8.69517C38.722 10.3575 37.6997 11.3804 36.2939 11.3804ZM36.2939 3.83611C33.4824 3.83611 31.3099 5.88203 31.3099 8.69517C31.3099 11.5083 33.3546 13.5542 36.2939 13.5542C39.2332 13.5542 41.278 11.5083 41.278 8.69517C41.1502 5.88203 39.1054 3.83611 36.2939 3.83611ZM27.2204 8.82304C27.0927 8.82304 27.0927 8.69517 27.2204 8.69517C27.7316 8.5673 28.115 8.18369 28.4984 7.80008L31.5655 3.96398H28.6262L25.3035 8.18369V0H22.7476V13.4264H25.3035V9.07879L28.2428 12.5313C28.754 13.1706 29.2652 13.4264 30.1597 13.4264H31.9489L28.4984 9.46239C28.2428 9.07879 27.7316 8.82304 27.2204 8.82304ZM53.5463 3.83611C52.0128 3.83611 50.9904 4.60333 50.4792 5.49842C49.9681 4.47546 49.0735 3.83611 47.5399 3.83611C46.3898 3.83611 45.4952 4.34759 45.1118 5.11481C45.1118 5.24268 44.984 5.24268 44.984 5.11481C44.8562 4.47546 44.2173 3.96398 43.5783 3.96398H42.5559V13.4264H45.1118V8.69517C45.1118 7.03286 45.7508 6.0099 47.0288 6.0099C48.0511 6.0099 48.5623 6.64925 48.5623 7.80008V13.5542H51.1182V8.5673C51.1182 6.90499 51.7572 5.88203 52.9074 5.88203C53.9297 5.88203 54.4409 6.52138 54.4409 7.67221V13.4264H56.9968V7.03286C56.9968 5.11481 55.5911 3.83611 53.5463 3.83611ZM20.9585 1.40657C20.9585 0.639351 20.3195 0 19.5527 0H18.5304V11.7641C18.5304 13.1706 19.4249 13.6821 20.3195 13.6821C20.7029 13.6821 21.0863 13.5542 21.4696 13.4264C21.0863 12.9149 20.9585 12.0198 20.9585 11.3804V1.40657ZM6.38978 2.94101C6.38978 1.53444 5.23962 0.38361 3.83387 0.38361H1.40575C0.638977 0.38361 0 1.02296 0 1.91805V3.06888H3.83387V11.7641C3.83387 13.1706 4.72843 13.6821 5.623 13.6821C6.00639 13.6821 6.51757 13.5542 6.77316 13.4264C6.38978 12.9149 6.26198 12.0198 6.26198 11.3804L6.38978 2.94101ZM10.0958 2.42953V0.38361H5.49521C5.36741 0.38361 5.36741 0.511481 5.49521 0.511481C6.13418 0.895092 6.64537 1.66231 6.77316 2.42953C6.77316 2.81314 7.02875 2.94101 7.41214 2.94101H9.45687C9.95661 2.93559 10.0958 2.81298 10.0958 2.42953ZM62.492 7.67221C61.2141 7.2886 60.8307 7.03286 60.8307 6.64925C60.8307 6.13777 61.3419 5.75416 62.2364 5.75416C63.2588 5.75416 64.4089 6.13777 65.0479 6.64925V4.60333C64.2812 4.09185 63.2588 3.83611 62.1086 3.83611C59.8083 3.83611 58.4026 5.11481 58.4026 6.77712C58.4026 8.43943 59.8083 9.20665 61.3419 9.59026C62.6198 9.97388 63.2588 10.2296 63.2588 10.7411C63.2588 11.3804 62.7476 11.7641 61.7252 11.7641C60.3195 11.7641 59.2971 11.2526 58.5304 10.4854V12.6592C59.4249 13.2985 60.5751 13.5542 61.853 13.5542C64.2812 13.5542 65.6869 12.4034 65.6869 10.6132C65.6869 8.69517 64.0256 8.05582 62.492 7.67221ZM10.4792 7.67221C10.7348 6.52138 11.5016 5.62629 12.6518 5.62629C13.6741 5.62629 14.4409 6.26564 14.5687 7.67221H10.4792ZM12.6518 3.83611C10.0958 3.83611 7.92332 5.75416 7.92332 8.82304C7.92332 11.6362 9.84026 13.6821 13.0351 13.6821C14.1853 13.6821 15.3355 13.2985 16.3578 12.787V10.4854C15.4633 11.1247 14.4409 11.5083 13.2907 11.5083C11.7572 11.5083 10.607 10.869 10.3514 9.33452H16.9968C16.9968 9.07879 17.1246 8.69517 17.1246 8.43943C16.9968 5.49842 15.0799 3.83611 12.6518 3.83611ZM69.0096 7.67221C69.2652 6.52138 70.032 5.62629 71.1821 5.62629C72.2045 5.62629 72.9712 6.26564 73.099 7.67221H69.0096ZM71.1821 3.83611C68.6262 3.83611 66.4537 5.75416 66.4537 8.82304C66.4537 11.6362 68.3706 13.6821 71.5655 13.6821C72.7157 13.6821 73.8658 13.2985 74.8882 12.787V10.4854C73.9936 11.1247 72.9712 11.5083 71.8211 11.5083C70.2875 11.5083 69.1374 10.869 68.8818 9.33452H75.5272C75.5272 9.07879 75.655 8.69517 75.655 8.43943C75.5272 5.49842 73.6102 3.83611 71.1821 3.83611ZM79.4888 11.2526V1.40657C79.4888 0.639351 78.8498 0 78.0831 0H77.0607V11.7641C77.0607 13.1706 77.9553 13.6821 78.8498 13.6821C79.2332 13.6821 79.6166 13.5542 80 13.4264C79.4888 12.787 79.4888 12.0198 79.4888 11.2526Z" fill="#FF0025"/>
</g>
</g>
<defs>
<clipPath id="clip0_1801_10106">
<rect width="80" height="13.6821" fill="white"/>
</clipPath>
<clipPath id="clip1_1801_10106">
<rect width="80" height="13.6821" fill="white"/>
</clipPath>
</defs>
</svg>
