<svg width="80" height="22" viewBox="0 0 80 22" fill="none" xmlns="http://www.w3.org/2000/svg">
<g clip-path="url(#clip0_1801_10014)">
<path fill-rule="evenodd" clip-rule="evenodd" d="M38.6566 8.73342C38.6566 10.3289 37.6598 11.4049 36.2861 11.4049C34.9124 11.4049 33.8757 10.3787 33.8757 8.73342C33.8757 7.08814 34.8791 6.06182 36.2861 6.06182C37.693 6.06182 38.6566 7.13798 38.6566 8.73342ZM36.2861 3.80948C33.3384 3.80494 31.2737 5.91218 31.2777 8.73348C31.2817 11.5548 33.305 13.6783 36.2861 13.6772C39.2673 13.676 41.2477 11.523 41.2479 8.73348C41.2481 5.94401 39.2338 3.81401 36.2861 3.80948Z" fill="#FF0025"/>
<path fill-rule="evenodd" clip-rule="evenodd" d="M12.8079 3.80947C11.3882 3.80682 10.3212 4.24698 9.40554 5.12778C8.48993 6.00859 7.97229 7.21498 7.97436 8.87982C7.9764 10.5447 8.67867 11.8048 9.58997 12.5406C10.5013 13.2764 11.5904 13.6774 13.1238 13.6772C14.6572 13.6769 15.8426 13.1207 16.4487 12.7424V10.486C16.0282 10.8429 14.7436 11.5413 13.4561 11.5413C12.1687 11.5413 10.8394 11.1113 10.5125 9.51719H17.0291C17.0606 9.26692 17.118 8.89 17.1167 8.49417C17.1124 7.20691 16.8336 6.35238 16.1739 5.43724C15.5143 4.5221 14.2277 3.81212 12.8079 3.80947ZM12.6848 5.76931C13.285 5.76931 13.7013 5.95902 14.0224 6.29626C14.3436 6.6335 14.5623 7.13632 14.5974 7.677H10.5592C10.6696 7.20355 10.7971 6.86373 11.1528 6.44871C11.5084 6.0337 12.0846 5.76931 12.6848 5.76931Z" fill="#FF0025"/>
<path fill-rule="evenodd" clip-rule="evenodd" d="M18.4211 1.09863e-05V11.8873C18.4211 13.1165 19.297 13.6772 20.1549 13.6772C21.0129 13.6772 21.5571 13.3915 21.5571 13.3915C21.5571 13.3915 21.0338 12.9679 21.0316 11.0853C21.0294 9.25943 21.0313 2.39467 21.0316 1.58261C21.0318 0.770542 20.5137 1.09863e-05 19.5582 1.09863e-05H18.4211Z" fill="#FF0025"/>
<path fill-rule="evenodd" clip-rule="evenodd" d="M0 1.78968V3.13196H3.79208V11.8873C3.79208 13.1165 4.66795 13.6772 5.5259 13.6772C6.38384 13.6772 6.92802 13.3915 6.92802 13.3915C6.92802 13.3915 6.40481 12.9679 6.40255 11.0853C6.40035 9.25943 6.40235 3.50203 6.40255 2.68996C6.40275 1.8779 5.4561 0.415723 3.89844 0.415728L1.49103 0.415735C0.702014 0.415738 0 1.05838 0 1.78968ZM5.56915 0.415728C5.51941 0.415728 5.4794 0.455739 5.4794 0.505471C5.4794 0.555203 5.52929 0.592094 5.56915 0.621838C5.7343 0.745091 6.24903 1.11001 6.49483 1.60927C6.74063 2.10853 6.7465 2.56162 6.9062 2.82334C7.06591 3.08506 7.32654 3.13196 7.6022 3.13196H9.58408C10.022 3.13196 10.1941 2.83763 10.1941 2.48852V0.415728H5.56915Z" fill="#FF0025"/>
<path fill-rule="evenodd" clip-rule="evenodd" d="M22.7433 0V13.521H25.3538C25.3537 12.1179 25.3538 10.7125 25.3538 9.24615C25.918 9.89813 27.4601 11.7108 27.6561 11.9384C28.3551 12.7505 28.8566 13.521 30.0002 13.521H32.088C32.088 13.521 29.5631 10.6034 29.3311 10.3338C28.7044 9.60594 28.2256 8.91187 27.3096 8.77574V8.68106C28.0991 8.50186 28.558 7.8394 29.1274 7.14621C29.3488 6.87669 31.7122 3.95909 31.7122 3.95909H28.7558L25.3538 8.11069C25.3538 8.11069 25.3536 2.46871 25.3538 0H22.7433Z" fill="#FF0025"/>
<path fill-rule="evenodd" clip-rule="evenodd" d="M47.5114 3.80947C46.4708 3.80947 45.7844 4.27112 45.4743 4.62808C45.1643 4.98504 45.2148 5.08338 45.1218 5.15183C44.9442 4.45349 44.4705 3.96038 43.6575 3.96038H42.5204V13.521H45.1309V8.58456C45.1309 7.03614 45.8448 6.03466 46.8567 6.03759C47.8685 6.04053 48.4291 6.55627 48.4291 7.75285V13.521H51.0395V8.62534C51.0395 7.23373 51.6026 6.0309 52.8053 6.03759C54.0081 6.04429 54.391 6.83291 54.391 7.86597V13.521H56.9816V7.17867C56.9816 6.09769 56.6619 5.29782 56.0087 4.69599C55.3554 4.09416 54.6413 3.80947 53.4666 3.80947C52.292 3.80947 51.4615 4.29568 50.823 4.98925C50.7116 5.11029 50.6064 5.27398 50.5084 5.41017C50.3454 5.06352 50.0592 4.6839 49.8141 4.47988C49.1989 3.96806 48.552 3.80947 47.5114 3.80947Z" fill="#FF0025"/>
<path fill-rule="evenodd" clip-rule="evenodd" d="M62.1548 3.80948C60.5753 3.80664 59.724 4.30023 59.2443 4.72236C58.7646 5.14448 58.327 5.67925 58.3231 6.83664C58.3192 7.99403 59.1665 8.94888 60.838 9.46245C62.5095 9.97602 63.2024 10.1531 63.1969 10.7174C63.1914 11.2817 62.7751 11.641 61.5997 11.641C60.4244 11.641 59.2367 11.1188 58.3811 10.3464V12.7158C59.0204 13.1938 60.2568 13.677 61.7326 13.6772C63.2084 13.6774 64.0988 13.3163 64.6122 12.9092C65.1255 12.5022 65.7162 11.8564 65.7118 10.5654C65.7073 9.27451 64.8424 8.42523 63.5239 7.9638C62.2054 7.50236 60.9712 7.34674 60.8693 6.80769C60.7673 6.26863 61.0735 5.90384 62.0453 5.81585C63.0171 5.72786 64.595 6.22861 65.1298 6.75856V4.56653C64.6311 4.27795 63.7344 3.81231 62.1548 3.80948Z" fill="#FF0025"/>
<path fill-rule="evenodd" clip-rule="evenodd" d="M71.2509 3.80947C69.8311 3.80682 68.7641 4.24697 67.8485 5.12778C66.9329 6.00858 66.4153 7.21498 66.4173 8.87982C66.4194 10.5447 67.1216 11.8048 68.0329 12.5406C68.9442 13.2764 70.0333 13.6774 71.5668 13.6772C73.1002 13.6769 74.2856 13.1207 74.8917 12.7424V10.486C74.4711 10.8429 73.1866 11.5413 71.8991 11.5413C70.6117 11.5413 69.2824 11.1113 68.9554 9.51719H75.4721C75.5036 9.26692 75.561 8.88999 75.5597 8.49416C75.5554 7.20691 75.2766 6.35238 74.6169 5.43724C73.9572 4.5221 72.6707 3.81212 71.2509 3.80947ZM71.1278 5.76931C71.7279 5.76931 72.1442 5.95902 72.4654 6.29626C72.7865 6.6335 73.0053 7.13631 73.0404 7.677H69.0022C69.1126 7.20355 69.2401 6.86372 69.5958 6.44871C69.9514 6.03369 70.5276 5.76931 71.1278 5.76931Z" fill="#FF0025"/>
<path fill-rule="evenodd" clip-rule="evenodd" d="M76.8641 1.09863e-05V11.8873C76.8641 13.1165 77.7399 13.6772 78.5979 13.6772C79.4558 13.6772 80 13.3915 80 13.3915C80 13.3915 79.4768 12.9679 79.4745 11.0853C79.4723 9.25943 79.4745 2.39467 79.4745 1.58261C79.4745 0.770542 78.9566 1.09863e-05 78.0011 1.09863e-05H76.8641Z" fill="#FF0025"/>
<path d="M53.6808 16.0998V20.0499C53.6808 20.2362 53.7304 20.3728 53.8298 20.4721C53.9291 20.5715 54.0782 20.6151 54.2707 20.6151C54.4322 20.6151 54.5627 20.5902 54.6745 20.5343V16.8886H55.3328C55.5378 16.8886 55.6992 16.9445 55.8172 17.0563C55.929 17.1681 55.9911 17.3234 55.9911 17.5222C55.9911 17.7271 55.9352 17.8823 55.8297 17.9941C55.7179 18.1059 55.575 18.1592 55.3949 18.1618C54.8803 18.1692 54.9215 18.4089 54.9215 18.9506H55.488C55.9538 18.9506 56.3202 18.8264 56.5873 18.5718C56.8481 18.3234 56.9848 17.9754 56.9848 17.5282C56.9848 17.0872 56.8481 16.7395 56.5811 16.4848C56.314 16.2302 55.9476 16.0998 55.488 16.0998H53.6808Z" fill="#FF0025"/>
<path d="M57.4281 17.3668V20.5715H58.4032V18.845C58.4032 18.6152 58.4653 18.435 58.5895 18.3046C58.7137 18.1742 58.8876 18.1059 59.1174 18.1059C59.3161 18.1059 59.4714 18.1556 59.5894 18.2549C59.7198 18.1059 59.7882 17.9382 59.7882 17.7643C59.7882 17.6214 59.7385 17.5096 59.6453 17.4227C59.5522 17.342 59.4279 17.2985 59.2665 17.2985C59.0801 17.2985 58.9125 17.3544 58.751 17.4662C58.5895 17.578 58.4715 17.727 58.397 17.9071V17.8264C58.397 17.6649 58.3411 17.5345 58.2417 17.4351C58.1423 17.3357 58.0057 17.2861 57.8318 17.2861C57.6703 17.2861 57.5337 17.3171 57.4281 17.3668Z" fill="#FF0025"/>
<path d="M60.2935 18.9071C60.0265 19.0934 59.896 19.3604 59.896 19.7082C59.896 19.9815 59.9892 20.2051 60.1755 20.379C60.3618 20.5529 60.5979 20.6336 60.8898 20.6336C61.1196 20.6336 61.3245 20.5777 61.5108 20.4597C61.6971 20.348 61.8214 20.174 61.8897 19.9443V20.0436C61.8897 20.4101 62.0512 20.5902 62.3803 20.5902C62.6163 20.5902 62.784 20.5343 62.8834 20.4163C62.8337 20.3045 62.8089 20.1057 62.8089 19.8076V18.4288C62.8089 18.05 62.6909 17.7581 62.4549 17.5531C62.2188 17.3544 61.8586 17.2488 61.3866 17.2488C61.1071 17.2488 60.8711 17.2861 60.6724 17.3482C60.4736 17.4103 60.3184 17.4972 60.219 17.609C60.1196 17.7208 60.0699 17.8388 60.0699 17.963C60.0699 18.0562 60.101 18.1369 60.1693 18.2115C60.2314 18.286 60.3122 18.3419 60.4115 18.3854C60.4798 18.2611 60.5916 18.1618 60.7469 18.0872C60.896 18.0127 61.0699 17.9755 61.2562 17.9755C61.4425 17.9755 61.5854 18.0189 61.6847 18.0997C61.7841 18.1866 61.8338 18.3233 61.8338 18.5096V18.6648C61.7344 18.64 61.5978 18.6276 61.4177 18.6276C60.9332 18.6276 60.5606 18.7207 60.2935 18.9071ZM60.9767 19.8387C60.9022 19.7766 60.8711 19.6958 60.8711 19.584C60.8711 19.4536 60.9208 19.3542 61.0326 19.2797C61.1382 19.2052 61.2934 19.1679 61.5046 19.1679C61.6164 19.1679 61.7282 19.1803 61.8338 19.2052V19.4226C61.8338 19.5654 61.7779 19.6834 61.6661 19.7828C61.5543 19.8821 61.4239 19.9256 61.2624 19.9256C61.1382 19.9256 61.045 19.9008 60.9767 19.8387Z" fill="#FF0025"/>
<path d="M63.5212 16.0998V16.6104C63.5212 16.9302 63.928 16.8886 64.3312 16.8886H65.2601C65.4464 16.8886 65.5955 16.9382 65.701 17.0251C65.8004 17.1121 65.8565 17.2364 65.8565 17.3979C65.8565 17.5656 65.8004 17.696 65.701 17.783C65.5955 17.8699 65.4464 17.9132 65.2601 17.9132H64.5024V17.124C64.1036 17.1229 63.6535 17.1567 63.5212 16.9302V20.5715H65.3906C65.8937 20.5715 66.285 20.4596 66.5582 20.2361C66.8315 20.0125 66.9743 19.7082 66.9743 19.317C66.9743 19.0375 66.8998 18.8015 66.7631 18.6027C66.6265 18.404 66.4341 18.2921 66.1981 18.2549C66.3969 18.1803 66.552 18.0562 66.67 17.8761C66.7818 17.7022 66.844 17.4911 66.844 17.2427C66.844 16.8825 66.7135 16.5967 66.4527 16.398C66.1918 16.1992 65.8254 16.0998 65.3534 16.0998H63.5212ZM64.5024 18.6896H65.434C65.6079 18.6896 65.7447 18.7394 65.844 18.8263C65.9372 18.9195 65.9868 19.0499 65.9868 19.2176C65.9868 19.3977 65.9309 19.5343 65.8316 19.6336C65.726 19.733 65.5769 19.7766 65.3906 19.7766H64.5024V18.6896Z" fill="#FF0025"/>
<path d="M67.7448 18.9071C67.4777 19.0934 67.3473 19.3604 67.3473 19.7082C67.3473 19.9815 67.4404 20.2051 67.6268 20.379C67.8131 20.5529 68.0491 20.6336 68.341 20.6336C68.5708 20.6336 68.7758 20.5777 68.9621 20.4597C69.1484 20.348 69.2726 20.174 69.3409 19.9443V20.0436C69.3409 20.4101 69.5024 20.5902 69.8316 20.5902C70.0676 20.5902 70.2353 20.5343 70.3346 20.4163C70.285 20.3045 70.2601 20.1057 70.2601 19.8076V18.4288C70.2601 18.05 70.1421 17.7581 69.9061 17.5531C69.6701 17.3544 69.3099 17.2488 68.8379 17.2488C68.5584 17.2488 68.3224 17.2861 68.1236 17.3482C67.9249 17.4103 67.7696 17.4972 67.6702 17.609C67.5709 17.7208 67.5212 17.8388 67.5212 17.963C67.5212 18.0562 67.5522 18.1369 67.6206 18.2115C67.6827 18.286 67.7634 18.3419 67.8628 18.3854C67.9311 18.2611 68.0429 18.1618 68.1982 18.0872C68.3472 18.0127 68.5211 17.9755 68.7074 17.9755C68.8938 17.9755 69.0366 18.0189 69.136 18.0997C69.2354 18.1866 69.285 18.3233 69.285 18.5096V18.6648C69.1857 18.64 69.049 18.6276 68.8689 18.6276C68.3845 18.6276 68.0118 18.7207 67.7448 18.9071ZM68.428 19.8387C68.3534 19.7766 68.3224 19.6958 68.3224 19.584C68.3224 19.4536 68.3721 19.3542 68.4839 19.2797C68.5894 19.2052 68.7447 19.1679 68.9559 19.1679C69.0677 19.1679 69.1795 19.1803 69.285 19.2052V19.4226C69.285 19.5654 69.2291 19.6834 69.1173 19.7828C69.0056 19.8821 68.8751 19.9256 68.7136 19.9256C68.5894 19.9256 68.4963 19.9008 68.428 19.8387Z" fill="#FF0025"/>
<path d="M73.7653 17.4165C73.6224 17.3357 73.4734 17.2923 73.3181 17.2923C73.1318 17.2923 72.9827 17.342 72.8709 17.4289C72.7591 17.5221 72.6846 17.6649 72.6349 17.8637L72.3741 18.9319C72.3057 19.1865 72.2312 19.5157 72.1567 19.9132C72.0946 19.6648 72.0138 19.3356 71.902 18.9319L71.5667 17.7519C71.517 17.5904 71.4424 17.4724 71.3493 17.3979C71.2499 17.3295 71.1319 17.2923 70.9829 17.2923C70.809 17.2923 70.6351 17.342 70.4674 17.4413L71.4673 20.4101C71.6039 20.4101 71.7157 20.4287 71.7903 20.4597C71.8648 20.4908 71.9083 20.5653 71.9083 20.6833C71.9083 20.9255 71.7406 21.0436 71.4176 21.0436C71.3431 21.0436 71.281 21.0373 71.2189 21.0125C71.1568 20.9939 71.1071 20.969 71.0698 20.9318C70.9642 21.0436 70.9145 21.174 70.9145 21.3168C70.9145 21.4535 70.9642 21.5653 71.0698 21.6398C71.1754 21.7143 71.3369 21.7516 71.5542 21.7516C71.8461 21.7516 72.0884 21.6833 72.2809 21.5404C72.4672 21.4038 72.6163 21.1678 72.7219 20.8324L73.7653 17.4165Z" fill="#FF0025"/>
<path d="M74.2582 18.9071C73.9911 19.0934 73.8607 19.3604 73.8607 19.7082C73.8607 19.9815 73.9539 20.2051 74.1402 20.379C74.3265 20.5529 74.5625 20.6336 74.8544 20.6336C75.0842 20.6336 75.2892 20.5777 75.4755 20.4597C75.6618 20.348 75.786 20.174 75.8544 19.9443V20.0436C75.8544 20.4101 76.0158 20.5902 76.345 20.5902C76.581 20.5902 76.7487 20.5343 76.8481 20.4163C76.7984 20.3045 76.7735 20.1057 76.7735 19.8076V18.4288C76.7735 18.05 76.6555 17.7581 76.4195 17.5531C76.1835 17.3544 75.8233 17.2488 75.3513 17.2488C75.0718 17.2488 74.8358 17.2861 74.6371 17.3482C74.4383 17.4103 74.283 17.4972 74.1837 17.609C74.0843 17.7208 74.0346 17.8388 74.0346 17.963C74.0346 18.0562 74.0657 18.1369 74.134 18.2115C74.1961 18.286 74.2768 18.3419 74.3762 18.3854C74.4445 18.2611 74.5563 18.1618 74.7116 18.0872C74.8606 18.0127 75.0345 17.9755 75.2209 17.9755C75.4072 17.9755 75.55 18.0189 75.6494 18.0997C75.7488 18.1866 75.7985 18.3233 75.7985 18.5096V18.6648C75.6991 18.64 75.5625 18.6276 75.3823 18.6276C74.8979 18.6276 74.5253 18.7207 74.2582 18.9071ZM74.9414 19.8387C74.8668 19.7766 74.8358 19.6958 74.8358 19.584C74.8358 19.4536 74.8855 19.3542 74.9973 19.2797C75.1029 19.2052 75.2581 19.1679 75.4693 19.1679C75.5811 19.1679 75.6929 19.1803 75.7985 19.2052V19.4226C75.7985 19.5654 75.7426 19.6834 75.6308 19.7828C75.519 19.8821 75.3886 19.9256 75.2271 19.9256C75.1029 19.9256 75.0097 19.9008 74.9414 19.8387Z" fill="#FF0025"/>
<path d="M77.3845 17.3668V20.5715H78.3596V18.845C78.3596 18.6152 78.4217 18.435 78.5459 18.3046C78.6701 18.1742 78.844 18.1059 79.0738 18.1059C79.2726 18.1059 79.4278 18.1556 79.5458 18.2549C79.6763 18.1059 79.7446 17.9382 79.7446 17.7643C79.7446 17.6214 79.6949 17.5096 79.6017 17.4227C79.5086 17.342 79.3843 17.2985 79.2229 17.2985C79.0365 17.2985 78.8689 17.3544 78.7074 17.4662C78.5459 17.578 78.4279 17.727 78.3534 17.9071V17.8264C78.3534 17.6649 78.2975 17.5345 78.1981 17.4351C78.0987 17.3357 77.9621 17.2861 77.7882 17.2861C77.6267 17.2861 77.4901 17.3171 77.3845 17.3668Z" fill="#FF0025"/>
</g>
<defs>
<clipPath id="clip0_1801_10014">
<rect width="80" height="21.7516" fill="white"/>
</clipPath>
</defs>
</svg>
