<svg width="80" height="48" viewBox="0 0 80 48" fill="none" xmlns="http://www.w3.org/2000/svg">
<g clip-path="url(#clip0_1801_9982)">
<path d="M2.53176 18.8465C2.06435 18.8465 1.63595 18.9245 1.16855 19.0024C0.701141 19.0803 0.311628 19.1971 2.56276e-05 19.3529V43.8527C2.56276e-05 45.0212 0.311599 45.878 0.934804 46.5012C1.55801 47.1244 2.49281 47.3972 3.70028 47.3972C4.71299 47.3972 5.5309 47.2414 6.23201 46.8908V22.391C6.23201 21.2614 5.88157 20.4045 5.25836 19.7813C4.63516 19.1581 3.70027 18.8465 2.53176 18.8465ZM18.6573 18.8465C18.1899 18.8465 17.7613 18.9245 17.2939 19.0024C16.8265 19.0803 16.437 19.1971 16.1254 19.3529V30.3759H11.949C10.2491 30.3759 9.11343 30.5149 8.24619 31.6209C7.37896 32.7269 7.56796 33.82 7.56796 35.8289H16.1254V43.8527C16.1254 45.0212 16.4369 45.878 17.0602 46.5012C17.6834 47.1244 18.6183 47.3972 19.8258 47.3972C20.8385 47.3972 21.6564 47.2414 22.3575 46.8908V22.391C22.3575 21.2614 22.0069 20.4045 21.3837 19.7813C20.7605 19.1581 19.8258 18.8465 18.6573 18.8465Z" fill="#FF0025"/>
<path d="M28.8957 36.6858C27.2209 37.8543 26.4029 39.5292 26.4029 41.7104C26.4029 43.4242 26.9872 44.8265 28.1557 45.9171C29.3242 47.0077 30.8043 47.514 32.635 47.514C34.0761 47.514 35.3615 47.1635 36.53 46.4234C37.6985 45.7223 38.4775 44.6317 38.906 43.1905V43.8137C38.906 46.1118 39.9187 47.2414 41.9831 47.2414C43.4632 47.2414 44.5148 46.8908 45.138 46.1508C44.8264 45.4497 44.6706 44.2032 44.6706 42.3336V33.6866C44.6706 31.3107 43.9306 29.48 42.4505 28.1946C40.9703 26.9482 38.7112 26.2861 35.751 26.2861C33.9982 26.2861 32.5181 26.5198 31.2717 26.9093C30.0253 27.2988 29.0515 27.8441 28.4283 28.5452C27.8051 29.2463 27.4935 29.9864 27.4935 30.7654C27.4935 31.3496 27.6883 31.856 28.1167 32.3234C28.5062 32.7908 29.0126 33.1413 29.6358 33.414C30.0642 32.635 30.7653 32.0118 31.7391 31.5444C32.6739 31.077 33.7645 30.8433 34.933 30.8433C36.1015 30.8433 36.9974 31.1159 37.6206 31.6223C38.2438 32.1676 38.5554 33.0245 38.5554 34.193V35.1668C37.9322 35.011 37.0753 34.9331 35.9457 34.9331C32.9076 34.9331 30.5706 35.5173 28.8957 36.6858ZM33.1803 42.5284C32.7129 42.1389 32.5181 41.6325 32.5181 40.9314C32.5181 40.1135 32.8297 39.4902 33.5308 39.0228C34.193 38.5554 35.1667 38.3217 36.4911 38.3217C37.1922 38.3217 37.8933 38.3996 38.5554 38.5554V39.9187C38.5554 40.8146 38.2049 41.5546 37.5038 42.1778C36.8027 42.801 35.9847 43.0737 34.972 43.0737C34.193 43.0737 33.6087 42.9179 33.1803 42.5284Z" fill="#FF0025"/>
<path d="M49.2938 18.496V43.6969C49.2938 44.8654 49.5664 45.7223 50.1896 46.3455C50.8128 46.9687 51.7087 47.2414 52.8772 47.2414C53.3057 47.2414 53.7731 47.2024 54.2405 47.1245C54.7079 47.0466 55.0974 46.8908 55.409 46.735V21.5341C55.409 20.4046 55.0974 19.5477 54.4742 18.9245C53.851 18.3013 52.994 17.9897 51.8255 17.9897C51.3581 17.9897 50.9297 18.0676 50.4623 18.1455C49.9949 18.2234 49.6054 18.3402 49.2938 18.496Z" fill="#FF0025"/>
<path d="M63.8745 46.1897C65.4715 47.0856 67.3411 47.514 69.4445 47.514C71.5478 47.514 73.3784 47.0856 74.9754 46.1897C76.5724 45.3328 77.8188 44.0864 78.6757 42.4505C79.5326 40.8535 80 38.9839 80 36.8806C80 34.7773 79.5326 32.9466 78.6757 31.3496C77.8188 29.7527 76.5724 28.5062 74.9754 27.6104C73.3784 26.7535 71.5478 26.2861 69.4445 26.2861C67.3411 26.2861 65.4715 26.7535 63.8745 27.6104C62.2776 28.5062 61.0312 29.7527 60.1743 31.3496C59.3173 32.9466 58.8889 34.7773 58.8889 36.8806C58.8889 38.9839 59.3173 40.8535 60.1743 42.4505C61.0312 44.0864 62.2776 45.3328 63.8745 46.1897ZM72.6773 41.3209C71.8983 42.3336 70.8467 42.84 69.4445 42.84C68.0422 42.84 66.9516 42.3336 66.2116 41.3209C65.4326 40.3082 65.082 38.8281 65.082 36.8806C65.082 35.011 65.4326 33.5308 66.2116 32.5181C66.9516 31.5054 68.0422 30.9601 69.4445 30.9601C70.8467 30.9601 71.8983 31.5054 72.6773 32.5181C73.4174 33.5308 73.8069 35.011 73.8069 36.8806C73.8069 38.8281 73.4174 40.3082 72.6773 41.3209Z" fill="#FF0025"/>
<path fill-rule="evenodd" clip-rule="evenodd" d="M38.6565 8.73341C38.6565 10.3288 37.6597 11.4049 36.286 11.4049C34.9123 11.4049 33.8757 10.3787 33.8757 8.73341C33.8757 7.08814 34.8791 6.06181 36.286 6.06181C37.693 6.06181 38.6565 7.13797 38.6565 8.73341ZM36.2861 3.80947C33.3384 3.80494 31.2736 5.91217 31.2776 8.73348C31.2817 11.5548 33.3049 13.6783 36.2861 13.6772C39.2673 13.676 41.2477 11.523 41.2479 8.73348C41.2481 5.944 39.2338 3.81401 36.2861 3.80947Z" fill="#FF0025"/>
<path fill-rule="evenodd" clip-rule="evenodd" d="M12.8079 3.80947C11.3882 3.80682 10.3211 4.24697 9.40554 5.12778C8.48993 6.00858 7.97228 7.21498 7.97436 8.87982C7.9764 10.5447 8.67866 11.8048 9.58996 12.5406C10.5013 13.2764 11.5904 13.6774 13.1238 13.6772C14.6572 13.6769 15.8426 13.1207 16.4487 12.7424V10.486C16.0281 10.8429 14.7436 11.5413 13.4561 11.5413C12.1687 11.5413 10.8394 11.1113 10.5125 9.51719H17.0291C17.0606 9.26691 17.118 8.88999 17.1167 8.49416C17.1124 7.20691 16.8336 6.35238 16.1739 5.43724C15.5142 4.5221 14.2277 3.81212 12.8079 3.80947ZM12.6848 5.7693C13.2849 5.7693 13.7013 5.95902 14.0224 6.29626C14.3435 6.6335 14.5623 7.13631 14.5974 7.677H10.5592C10.6696 7.20355 10.7971 6.86372 11.1528 6.44871C11.5084 6.03369 12.0846 5.7693 12.6848 5.7693Z" fill="#FF0025"/>
<path fill-rule="evenodd" clip-rule="evenodd" d="M18.4211 1.07783e-05V11.8873C18.4211 13.1165 19.297 13.6772 20.1549 13.6772C21.0129 13.6772 21.557 13.3915 21.557 13.3915C21.557 13.3915 21.0338 12.9679 21.0316 11.0853C21.0294 9.25942 21.0313 2.39467 21.0316 1.58261C21.0318 0.770542 20.5137 1.07783e-05 19.5581 1.07783e-05H18.4211Z" fill="#FF0025"/>
<path fill-rule="evenodd" clip-rule="evenodd" d="M0 1.78967V3.13196H3.79207V11.8873C3.79207 13.1165 4.66795 13.6772 5.52589 13.6772C6.38384 13.6772 6.92802 13.3915 6.92802 13.3915C6.92802 13.3915 6.40481 12.9679 6.40255 11.0853C6.40034 9.25942 6.40234 3.50202 6.40255 2.68996C6.40275 1.87789 5.4561 0.415723 3.89844 0.415727L1.49103 0.415735C0.702014 0.415737 0 1.05838 0 1.78967ZM5.56914 0.415727C5.51941 0.415727 5.4794 0.455738 5.4794 0.50547C5.4794 0.555203 5.52929 0.592094 5.56914 0.621838C5.73429 0.745091 6.24903 1.11001 6.49483 1.60927C6.74063 2.10853 6.7465 2.56162 6.9062 2.82334C7.0659 3.08506 7.32654 3.13196 7.60219 3.13196H9.58408C10.022 3.13196 10.1941 2.83762 10.1941 2.48852V0.415727H5.56914Z" fill="#FF0025"/>
<path fill-rule="evenodd" clip-rule="evenodd" d="M22.7433 0V13.5209H25.3538C25.3537 12.1179 25.3538 10.7125 25.3538 9.24614C25.918 9.89812 27.4601 11.7108 27.6561 11.9384C28.3551 12.7505 28.8566 13.5209 30.0002 13.5209H32.088C32.088 13.5209 29.5631 10.6034 29.331 10.3338C28.7044 9.60593 28.2256 8.91186 27.3096 8.77573V8.68106C28.0991 8.50185 28.558 7.8394 29.1274 7.1462C29.3488 6.87668 31.7122 3.95909 31.7122 3.95909H28.7558L25.3538 8.11068C25.3538 8.11068 25.3535 2.46871 25.3538 0H22.7433Z" fill="#FF0025"/>
<path fill-rule="evenodd" clip-rule="evenodd" d="M47.5113 3.80947C46.4708 3.80947 45.7844 4.27112 45.4743 4.62808C45.1642 4.98504 45.2148 5.08338 45.1218 5.15182C44.9441 4.45349 44.4704 3.96038 43.6575 3.96038H42.5204V13.5209H45.1309V8.58455C45.1309 7.03613 45.8448 6.03465 46.8566 6.03759C47.8685 6.04053 48.429 6.55626 48.429 7.75284V13.5209H51.0395V8.62534C51.0395 7.23372 51.6025 6.0309 52.8053 6.03759C54.008 6.04428 54.3909 6.83291 54.3909 7.86596V13.5209H56.9815V7.17867C56.9815 6.09768 56.6619 5.29782 56.0086 4.69599C55.3554 4.09416 54.6413 3.80947 53.4666 3.80947C52.2919 3.80947 51.4615 4.29568 50.823 4.98925C50.7116 5.11028 50.6064 5.27397 50.5083 5.41017C50.3454 5.06351 50.0592 4.6839 49.814 4.47988C49.1989 3.96805 48.5519 3.80947 47.5113 3.80947Z" fill="#FF0025"/>
<path fill-rule="evenodd" clip-rule="evenodd" d="M62.1548 3.80947C60.5752 3.80664 59.724 4.30023 59.2443 4.72235C58.7646 5.14448 58.327 5.67925 58.3231 6.83664C58.3191 7.99403 59.1664 8.94887 60.8379 9.46244C62.5094 9.97601 63.2024 10.1531 63.1968 10.7174C63.1913 11.2817 62.775 11.641 61.5997 11.641C60.4243 11.641 59.2367 11.1188 58.381 10.3464V12.7158C59.0204 13.1938 60.2567 13.677 61.7325 13.6772C63.2084 13.6774 64.0988 13.3163 64.6121 12.9092C65.1255 12.5022 65.7162 11.8564 65.7117 10.5654C65.7073 9.27451 64.8424 8.42523 63.5239 7.96379C62.2054 7.50235 60.9712 7.34673 60.8692 6.80768C60.7673 6.26863 61.0735 5.90384 62.0453 5.81585C63.0171 5.72786 64.5949 6.22861 65.1297 6.75856V4.56653C64.6311 4.27795 63.7343 3.81231 62.1548 3.80947Z" fill="#FF0025"/>
<path fill-rule="evenodd" clip-rule="evenodd" d="M71.2509 3.80947C69.8311 3.80682 68.7641 4.24697 67.8485 5.12777C66.9329 6.00858 66.4152 7.21498 66.4173 8.87981C66.4193 10.5446 67.1216 11.8048 68.0329 12.5406C68.9442 13.2764 70.0333 13.6774 71.5667 13.6772C73.1001 13.6769 74.2855 13.1207 74.8916 12.7424V10.486C74.4711 10.8429 73.1865 11.5413 71.8991 11.5413C70.6116 11.5413 69.2823 11.1112 68.9554 9.51718H75.4721C75.5035 9.26691 75.561 8.88999 75.5596 8.49416C75.5553 7.2069 75.2766 6.35237 74.6169 5.43723C73.9572 4.52209 72.6706 3.81212 71.2509 3.80947ZM71.1277 5.7693C71.7279 5.7693 72.1442 5.95901 72.4653 6.29625C72.7865 6.63349 73.0053 7.13631 73.0403 7.67699H69.0021C69.1125 7.20354 69.24 6.86372 69.5957 6.4487C69.9514 6.03369 70.5275 5.7693 71.1277 5.7693Z" fill="#FF0025"/>
<path fill-rule="evenodd" clip-rule="evenodd" d="M76.864 1.07783e-05V11.8873C76.864 13.1165 77.7399 13.6772 78.5978 13.6772C79.4558 13.6772 80 13.3915 80 13.3915C80 13.3915 79.4767 12.9679 79.4745 11.0853C79.4723 9.25942 79.4745 2.39467 79.4745 1.58261C79.4745 0.770542 78.9566 1.07783e-05 78.0011 1.07783e-05H76.864Z" fill="#FF0025"/>
</g>
<defs>
<clipPath id="clip0_1801_9982">
<rect width="80" height="47.514" fill="white"/>
</clipPath>
</defs>
</svg>
