<svg width="63" height="80" viewBox="0 0 63 80" fill="none" xmlns="http://www.w3.org/2000/svg">
<g clip-path="url(#clip0_1801_9954)">
<g clip-path="url(#clip1_1801_9954)">
<path d="M52.1568 33.4583C51.5395 33.028 50.9473 32.5626 50.3832 32.0646C50.5689 31.7419 50.9001 31.2449 51.1972 30.8251C52.9251 28.3175 56.1667 23.5822 56.1667 16.8306C56.1776 14.7112 55.7538 12.6122 54.9217 10.663C54.0896 8.71382 52.8667 6.95593 51.3286 5.49789C47.9013 2.25917 42.5035 0.0086213 34.578 0.0114773C27.0552 0.0114773 18.5843 2.48193 11.2671 6.80881C7.98558 8.75376 5.28379 10.8529 3.39025 12.8664C1.4967 14.8799 0.411413 16.8049 0.405701 18.4642C0.403689 18.86 0.481865 19.252 0.635504 19.6167C0.789142 19.9814 1.01506 20.3112 1.29964 20.5862C2.36779 21.6373 4.26419 22.1256 6.68324 22.3855C9.10229 22.6454 12.0526 22.6454 15.2285 22.6454H15.7997C20.6949 22.6454 24.1507 22.7797 26.3669 23.0995C27.1902 23.1874 27.9959 23.3972 28.7574 23.7222C29.2572 23.9792 29.4143 24.2248 29.4172 24.5047C29.3543 24.7704 29.2033 25.007 28.9888 25.1759C27.932 26.2355 25.156 27.8091 22.6598 29.537C21.4666 30.3262 20.3548 31.2322 19.3411 32.2417C18.4643 33.167 17.8703 34.1181 17.8617 35.0977V35.1462C17.8617 36.3886 18.53 37.3882 19.5353 38.1593C22.5713 40.487 28.8602 41.0982 32.1475 41.6951C34.1782 42.0664 35.2549 42.7861 35.8346 43.5715C36.3227 44.2797 36.5645 45.1286 36.5229 45.9877C36.5229 48.8066 35.4776 51.297 33.5984 52.9992C31.9305 54.5329 29.9198 55.5268 26.9867 55.5297H26.6354C26.7044 54.984 26.7387 54.4346 26.7382 53.8846C26.7382 50.5659 25.4359 47.7984 23.2196 45.8877C21.0033 43.9771 17.8903 42.8861 14.2774 42.8861C9.81915 42.8861 6.24341 44.7339 3.79295 47.4785C1.36465 50.228 0.0186928 53.7664 0.00585938 57.4346C0.00585938 63.0638 2.60484 68.7216 7.66571 72.96C12.7266 77.1983 20.2551 80.0229 30.1055 80.0229C37.9167 80.0229 45.7936 77.4525 51.757 72.9657C56.695 69.2528 62.6098 62.4669 62.5956 51.3427C62.5956 41.1639 55.764 36.1344 52.1625 33.484L52.1568 33.4583ZM21.0719 34.1781C22.1629 33.0899 24.4163 31.5448 26.0985 30.4795C27.7807 29.4142 29.2401 28.4803 30.314 27.5235C31.3878 26.5668 32.1018 25.61 32.1047 24.4933C32.1057 24.0606 32.0198 23.632 31.852 23.2332C31.6842 22.8343 31.438 22.4732 31.1279 22.1713C29.9855 21.0289 27.9406 20.5091 25.4159 20.2264C22.8912 19.9436 19.8266 19.9408 16.6622 19.9408H15.8054C13.1978 19.9408 11.1186 19.9008 9.45929 19.8351C11.7641 18.9412 14.4288 17.516 17.3333 15.9652C22.0458 13.4462 27.2666 10.6473 32.1847 9.39636C31.0422 10.6816 30.314 12.1467 30.3082 13.4091C30.3036 13.7401 30.4228 14.061 30.6424 14.3087C30.7902 14.4546 30.967 14.5678 31.1613 14.6411C31.3557 14.7144 31.5632 14.7462 31.7705 14.7343C32.6473 14.7343 33.6269 14.3973 34.7608 14.0345C36.2973 13.529 38.0766 12.9492 40.0301 12.9492C41.9952 12.9673 43.9081 13.584 45.5137 14.7171C44.2114 14.8028 43.1432 15.1827 42.4749 15.711C42.2063 15.8927 41.9847 16.1355 41.8283 16.4195C41.6719 16.7035 41.5852 17.0206 41.5752 17.3447C41.5752 18.0672 42.0865 18.6127 42.7177 19.3439C43.7287 20.4863 45.0539 21.9771 45.0539 24.3848C45.0126 26.1955 44.4296 27.9523 43.3802 29.4285C43.3802 29.3295 43.3802 29.2267 43.3802 29.12C43.3802 27.8977 43.1089 26.5182 42.4378 25.7357C42.2483 25.5099 42.0113 25.3288 41.7437 25.2054C41.4761 25.082 41.1845 25.0192 40.8898 25.0216C39.8588 25.0216 38.9706 25.8156 37.6454 26.9066C36.5148 27.8723 35.3212 28.7615 34.0725 29.5684C27.8692 33.4755 24.5419 34.9949 22.1829 35.1834C21.3118 35.2605 20.0066 35.2462 21.0719 34.1781ZM26.7582 58.1058C30.2511 58.1058 33.1643 57.0405 35.4177 54.9642C37.8253 52.7736 39.1933 49.4949 39.1933 45.9677C39.2419 44.4373 38.7069 42.9457 37.6968 41.7951C42.9033 43.0374 48.3097 45.7135 51.3171 49.7376C50.2725 49.3714 49.1739 49.1832 48.067 49.1807C47.0959 49.195 46.3248 50.206 46.3191 51.3656C46.3191 51.9711 46.5504 52.6594 46.8275 53.519C47.2616 54.8528 47.8185 56.575 47.8185 58.6313C47.8185 60.5277 47.3473 62.7068 45.8536 65.143C45.8107 63.1781 45.2824 61.6101 44.5998 60.7676C44.4368 60.5208 44.2158 60.3178 43.956 60.1763C43.6963 60.0348 43.4059 59.9592 43.1101 59.9561C42.8144 59.953 42.5224 60.0225 42.2598 60.1585C41.9972 60.2945 41.7719 60.4929 41.6038 60.7362C41.1647 61.3081 40.7822 61.9212 40.4614 62.5669C39.0334 65.1373 36.7743 69.2357 29.717 71.3577C30.3029 70.4103 30.6371 69.3289 30.6881 68.2161C30.696 67.8894 30.6397 67.5644 30.5224 67.2593C30.4313 67.0089 30.2654 66.7925 30.0474 66.6392C29.8293 66.486 29.5694 66.4034 29.3029 66.4025H29.2858C28.3635 66.489 27.4542 66.6807 26.5754 66.9737C24.9503 67.425 22.9797 67.9791 20.8148 67.9791C18.1967 67.9859 15.6532 67.1072 13.5977 65.4858C14.4062 65.3908 15.172 65.0712 15.8082 64.5633C16.0317 64.3891 16.2149 64.1689 16.3455 63.9175C16.4761 63.6662 16.551 63.3896 16.5651 63.1067C16.5651 62.2813 15.9053 61.7158 15.1656 61.0361C14.086 60.0193 12.798 58.8227 12.8008 56.8092C12.8103 56.1329 12.9329 55.4629 13.1635 54.8271C13.383 55.4562 13.7203 56.0378 14.1574 56.5407C14.8172 57.2518 15.6054 57.6831 16.3766 57.6831C17.1477 57.6831 17.6675 57.3061 17.8703 56.8263C18.0369 56.3508 18.1068 55.8469 18.0759 55.344C18.0814 55.0933 18.1373 54.8462 18.2404 54.6176C18.3434 54.3889 18.4915 54.1833 18.6757 54.0131C19.0509 53.6509 19.5508 53.4464 20.0723 53.4419C21.2604 53.4419 22.1572 54.1017 22.7855 55.087C23.4162 56.1559 23.745 57.3759 23.7365 58.617C23.7471 59.3335 23.619 60.0454 23.3595 60.7133L23.0911 61.3674L23.648 60.9333C24.6178 60.1683 25.3994 59.1913 25.9328 58.0772C26.1984 58.0972 26.4812 58.1058 26.7582 58.1058ZM3.68442 19.2639C3.31885 19.0497 3.08751 18.8184 3.08751 18.4671C3.08751 17.5046 3.99858 15.9709 5.68649 14.2887C10.7416 9.22214 22.4485 2.69614 34.578 2.7047C40.707 2.7047 45.6993 4.22125 49.0152 7.05157C50.4311 8.25421 51.5643 9.75441 52.3339 11.4452C53.1035 13.136 53.4907 14.9758 53.4677 16.8334C53.4677 22.7654 50.6745 26.8524 48.9752 29.3257C48.1184 30.5795 47.59 31.3249 47.5815 32.1503C47.596 32.4831 47.6773 32.8096 47.8206 33.1104C47.9639 33.4111 48.1661 33.68 48.4154 33.901C49.0832 34.5317 49.7984 35.1103 50.5546 35.6318C54.0846 38.245 59.888 42.5148 59.8909 51.3399C59.8909 61.3588 54.5958 67.445 50.1405 70.8065C44.6455 74.9506 37.3341 77.3297 30.0998 77.3297C12.0326 77.3297 2.68195 67.2765 2.68195 57.4318C2.69187 54.4314 3.78754 51.536 5.76646 49.2807C6.83003 48.0772 8.14129 47.1179 9.61034 46.4687C11.0794 45.8194 12.6715 45.4956 14.2774 45.5193C16.3052 45.5193 18.8642 45.9963 20.8948 47.3529C22.9254 48.7095 24.4477 50.9343 24.4534 54.5358C24.4534 54.6386 24.4534 54.7443 24.4534 54.8499C24.2502 54.3893 23.986 53.958 23.668 53.5676C23.2394 53.0235 22.6915 52.5851 22.0665 52.2865C21.4415 51.9879 20.7563 51.837 20.0637 51.8454C19.1278 51.8465 18.2292 52.2121 17.5584 52.8648C16.8877 53.5174 16.4976 54.4057 16.4708 55.3412C16.4827 55.5722 16.4527 55.8034 16.3823 56.0238C16.3722 56.051 16.3587 56.0769 16.3423 56.1009C15.8682 56.1009 15.3056 55.761 14.8572 55.1184C14.313 54.2675 14.0392 53.2718 14.0718 52.2624C14.0713 52.0048 14.0846 51.7474 14.1118 51.4913L14.1746 50.92L13.7862 51.3513C11.9583 53.3848 11.2986 55.2241 11.2986 56.8063C11.2986 59.3967 13.0465 61.2446 14.0803 62.2127C14.2688 62.3841 14.503 62.5983 14.6858 62.784C14.7743 62.8782 14.8543 62.9667 14.9086 63.0353L14.9657 63.1238V63.141C14.9657 63.2352 14.7601 63.4837 14.2774 63.675C13.465 63.9672 12.6039 64.1 11.7412 64.0663C11.33 64.0663 10.8844 64.0463 10.3732 63.9978L9.92196 63.9578L10.2076 64.3091C13.6833 68.4389 17.5047 69.5527 20.8148 69.5527C23.2596 69.5527 25.4302 68.9444 26.9953 68.5074C27.655 68.3189 28.4004 68.039 28.8117 68.0447C28.9831 68.0447 29.0545 68.0847 29.0973 68.1361C29.1516 68.2305 29.1765 68.3389 29.1687 68.4474C29.1687 68.9273 28.8831 69.7983 28.4147 70.6923C27.9336 71.6199 27.3047 72.463 26.5526 73.1884L26.1099 73.5911L26.7011 73.514C36.8085 72.2145 40.1815 66.3568 41.838 63.3352C42.069 62.8912 42.3226 62.4594 42.5977 62.0414C42.8262 61.7015 43.0518 61.5387 43.1061 61.5587C43.1603 61.5787 43.3545 61.6444 43.5202 61.8929C44.0171 62.6297 44.4341 64.4633 44.4313 66.3968C44.4356 67.2286 44.3523 68.0586 44.1828 68.873L44.0571 69.4585L44.4941 69.0501C48.3097 65.5172 49.3493 61.8015 49.3493 58.7113C49.3121 56.7763 48.963 54.8601 48.3155 53.0364C48.11 52.5005 47.9672 51.9428 47.8899 51.3742C47.8716 51.2153 47.9057 51.0549 47.987 50.9172C48.0625 50.8356 48.163 50.7814 48.2726 50.763C49.8834 50.763 51.7969 51.3342 54.0932 52.4337L54.5416 52.6479L54.3474 52.191C51.2514 44.9053 44.3113 41.7751 37.5597 40.0672C34.1781 39.2104 30.8338 38.7106 28.0177 38.225C25.97 37.8709 24.1964 37.5196 22.9083 37.0598L22.2743 36.7742C26.1356 36.2886 30.7966 33.5669 34.9321 30.9108C36.2291 30.0551 37.4693 29.1163 38.645 28.1004C39.1505 27.6835 39.616 27.295 40.013 27.018C40.2631 26.802 40.5637 26.6527 40.8869 26.5839C40.961 26.5864 41.0337 26.6051 41.0998 26.6386C41.1659 26.6722 41.2239 26.7198 41.2697 26.7781C41.6495 27.1865 41.8751 28.3175 41.8666 29.5513C41.8719 30.5345 41.7471 31.514 41.4953 32.4644L41.3639 32.9443L41.7809 32.6758C45.0653 30.5595 46.6361 27.3636 46.6361 24.3619C46.6361 21.3602 44.9682 19.4753 43.8943 18.2729C43.7287 18.0872 43.5373 17.8673 43.3831 17.6788C43.289 17.5644 43.2049 17.4421 43.1318 17.3132C43.1886 17.1665 43.2881 17.0402 43.4174 16.9505C44.1057 16.4365 45.2795 16.1166 46.6418 16.1166C47.3784 16.1195 48.1123 16.2057 48.8295 16.3736L49.3465 16.4907L49.0209 16.0737C46.1963 12.4409 42.949 11.3956 40.053 11.4013C37.7682 11.4013 35.7118 12.0382 34.2067 12.5437C33.4756 12.7836 32.4588 13.0978 32.0247 13.092C31.9859 13.0976 31.9464 13.0976 31.9076 13.092C31.9076 12.5637 32.296 11.664 33.0215 10.7244C33.9136 9.57889 35.0121 8.61025 36.2602 7.86839L36.7714 7.56279L36.1774 7.51996C35.9175 7.50282 35.6519 7.49139 35.3834 7.49139C29.5714 7.49139 22.0686 11.7212 16.5337 14.5772C13.1093 16.3451 5.86356 20.5463 3.68442 19.2496V19.2639Z" fill="#1D1D1B"/>
</g>
</g>
<defs>
<clipPath id="clip0_1801_9954">
<rect width="62.5897" height="80" fill="white"/>
</clipPath>
<clipPath id="clip1_1801_9954">
<rect width="62.5897" height="80" fill="white"/>
</clipPath>
</defs>
</svg>
