<svg width="77" height="80" viewBox="0 0 77 80" fill="none" xmlns="http://www.w3.org/2000/svg">
<g clip-path="url(#clip0_1801_9879)">
<path d="M45.6988 0.647523C46.3822 0.210494 47.2165 -0.165616 48.0376 0.0754122C48.766 0.350873 49.0176 1.20374 48.999 1.91888C49.0017 10.8237 48.999 19.7258 48.999 28.6306C57.4218 28.6306 65.8445 28.6253 74.2672 28.6306C74.94 28.628 75.7478 28.8531 76.0127 29.5417C76.2908 30.3575 75.8697 31.1892 75.4989 31.9017C73.2925 35.9621 70.9882 39.9669 68.6494 43.9505C67.9555 44.8748 67.0391 45.7383 65.8842 46.0164C64.9228 46.2468 63.9295 46.2389 62.9495 46.2548C60.1552 46.2654 57.3609 46.2574 54.5665 46.2601C53.3508 46.2548 51.9841 46.3131 51.0226 47.1606C50.2254 47.9234 50.3234 49.1551 50.6359 50.1192C51.3166 52.1798 52.6118 53.9571 53.5706 55.8853C52.5827 55.2232 51.6265 54.5133 50.7127 53.7505C47.8734 51.2396 45.275 48.4505 43.0793 45.3569C36.4921 36.2296 33.0859 25.0602 32.4661 13.8829C32.3575 11.4329 33.3614 8.74977 35.5544 7.46252C38.9368 5.19262 42.3191 2.92272 45.6988 0.647523Z" fill="#929395"/>
<path d="M0.0994796 18.4995C0.449103 17.7685 1.32846 17.5407 2.07273 17.5539C7.18729 17.5539 12.3019 17.5539 17.4138 17.5539C18.3011 17.5725 19.2334 17.6069 20.0306 18.0413C20.8438 18.4809 21.4556 19.1881 22.0754 19.853C23.9427 21.9772 25.8047 24.1041 27.6694 26.2256C27.7753 26.3369 27.966 26.5858 28.1144 26.3713C29.142 25.2589 30.1141 24.0935 31.1338 22.9731C31.9867 28.4055 34.0871 33.5942 36.9264 38.2823C40.5445 44.2074 45.3015 49.4093 50.7101 53.7478C51.6239 54.5107 52.5774 55.2205 53.568 55.8827C54.1851 56.5554 54.7731 57.2573 55.3664 57.9513C55.8114 58.4678 56.116 59.2147 55.8352 59.8821C55.5306 60.5443 54.7493 60.8145 54.0659 60.8039C48.901 60.8092 43.7361 60.8039 38.5713 60.8065C37.7052 60.8065 36.794 60.7827 36.0047 60.3854C35.1757 59.9563 34.5374 59.2544 33.9123 58.5764C32.0767 56.4839 30.2386 54.3941 28.4084 52.299C28.2706 52.1322 28.1011 51.9944 27.9236 51.8779C25.9769 54.0577 24.0698 56.2747 22.1284 58.4625C21.4927 59.1697 20.8385 59.9007 19.9936 60.3615C19.2043 60.7747 18.2958 60.8092 17.427 60.8092C12.2568 60.8065 7.08664 60.8092 1.91646 60.8092C1.17484 60.8304 0.290183 60.5125 0.0571011 59.7391C-0.168035 58.9498 0.311372 58.2161 0.817266 57.6599C6.1808 51.4938 11.5496 45.3331 16.9423 39.1908C11.5417 32.9744 6.0881 26.803 0.698077 20.576C0.194831 20.0304 -0.189224 19.2411 0.0994796 18.4995Z" fill="#BDBFBE"/>
<path d="M1.94789 78.9266H4.5059e-09V67.9548H4.41257C5.68467 67.9548 6.59898 68.2728 7.23503 68.9089C7.83132 69.5449 7.91083 70.817 7.91083 71.7313C7.91083 72.7252 7.79157 73.7587 7.15552 74.3948C6.51948 75.0706 5.64491 75.5079 4.65109 75.5079H1.94789V78.9266ZM1.94789 73.9178H4.25356C4.84986 73.9178 5.32689 73.56 5.64491 73.2817C5.96294 72.9637 6.12195 72.2084 6.12195 71.7313C6.12195 71.2941 5.96294 70.4195 5.68467 70.1015C5.4064 69.7835 4.84985 69.4257 4.09455 69.4257H1.94789V73.9575V73.9178Z" fill="#BDBFBE"/>
<path d="M17.6105 78.9266H15.6626L13.993 74.9911H11.4091V78.9266H9.58043V67.9548H14.0328C15.2651 67.9548 16.1794 68.2728 16.736 68.9486C17.3322 69.5847 17.6105 70.4592 17.6105 71.4928C17.6105 73.0432 17.0142 74.0768 15.7819 74.6731L17.6503 78.9664L17.6105 78.9266ZM11.4091 73.3612H13.7147C14.3905 73.3612 14.8676 73.1227 15.1856 72.8047C15.5036 72.4867 15.6626 72.0096 15.6626 71.4531C15.6626 70.9363 15.5434 70.3797 15.2253 70.0617C14.9073 69.7437 14.4303 69.4654 13.834 69.4654H11.4091V73.401V73.3612Z" fill="#BDBFBE"/>
<path d="M21.4268 78.9266H19.5982V67.9151H21.4268V78.9266Z" fill="#BDBFBE"/>
<path d="M55.7733 78.9266H53.9049V69.4654H50.8439V67.9151H58.8342V69.4654H55.7733V78.9266Z" fill="#BDBFBE"/>
<path d="M65.9897 78.9266L65.4332 76.5414H61.2989L60.7424 78.9266H58.7547L61.4977 67.9548H65.2344L68.0171 78.9266H65.9897ZM65.0754 74.9513L63.7636 69.3064H62.9288L61.6169 74.9513H65.0754Z" fill="#BDBFBE"/>
<path d="M45.5568 78.9266H43.6089L41.9393 74.9911H39.3553V78.9266H37.5267V67.9548H41.979C43.2114 67.9548 44.1257 68.2728 44.6822 68.9486C45.2785 69.5847 45.5568 70.4592 45.5568 71.4928C45.5568 73.0432 44.9605 74.0768 43.7282 74.6731L45.5966 78.9664L45.5568 78.9266ZM39.3553 73.3612H41.661C42.3368 73.3612 42.8138 73.1227 43.1319 72.8047C43.4499 72.4867 43.6089 72.0096 43.6089 71.4531C43.6089 70.9363 43.4897 70.3797 43.1716 70.0617C42.8536 69.7437 42.3766 69.4654 41.7803 69.4654H39.3553V73.401V73.3612Z" fill="#BDBFBE"/>
<path d="M49.3731 78.9266H47.5445V67.9151H49.3731V78.9266Z" fill="#BDBFBE"/>
<path d="M75.8089 69.7437C74.7355 69.5449 73.861 69.4654 73.1852 69.4257C72.5094 69.4257 72.0323 69.4654 71.6746 69.5052C70.8795 69.6245 70.641 70.1412 70.482 70.7375C70.3627 71.2543 70.5615 71.6519 71.0385 71.9301C71.436 72.1289 71.9528 72.2481 72.5094 72.3674C73.7417 72.6457 75.8486 73.1227 76.0474 74.9116C76.1269 75.4681 76.1269 75.9849 76.0076 76.5017C75.8884 77.0185 75.6498 77.5353 75.2523 77.9328C74.7355 78.4496 74.02 78.8074 73.0659 78.8471C72.1913 78.8869 71.3963 78.8869 70.641 78.8471C70.0049 78.8074 69.2496 78.6484 68.7328 78.6086V77.0582C69.2894 77.1378 70.0844 77.2968 70.7602 77.3365C71.436 77.3763 72.1913 77.416 72.9864 77.3365C73.4237 77.2968 74.0597 76.939 74.2187 76.2234C74.338 75.5476 74.0995 74.8718 73.6224 74.5538C73.1454 74.2358 72.5491 74.196 71.9926 74.0768C71.3168 73.9178 70.6807 73.7985 70.0844 73.4805C69.5279 73.1625 69.1304 72.7252 68.8918 72.1686C68.6931 71.6519 68.6533 71.0953 68.6931 70.499C68.7328 69.9425 68.9316 69.3462 69.3291 68.8692C69.7664 68.3921 70.7205 68.0741 71.2373 67.9946C71.6746 67.9151 72.4696 67.9151 73.2249 67.9151C73.9007 67.9151 74.7753 67.9946 75.8089 68.1933V69.7437Z" fill="#BDBFBE"/>
<path d="M25.084 73.6793C25.0442 74.1165 24.6865 74.4346 24.2492 74.4346C23.8119 74.3948 23.4939 74.037 23.4939 73.5997C23.6131 71.8904 24.3287 70.5785 25.3225 69.6245C26.5151 68.4716 28.145 67.9151 29.4966 67.9151C30.9674 67.9151 32.5575 68.5511 33.7104 69.6245C34.7439 70.6183 35.4993 71.9699 35.539 73.5997C35.539 74.037 35.221 74.3948 34.7837 74.3948C34.3464 74.3948 33.9886 74.0768 33.9886 73.6395C33.9489 72.4469 33.4321 71.4928 32.6768 70.7773C31.8022 69.9425 30.6096 69.4654 29.5363 69.4654C28.5425 69.4654 27.3499 69.9027 26.4356 70.7375C25.72 71.4133 25.1635 72.4072 25.084 73.6793Z" fill="#BDBFBE"/>
<path d="M23.8916 76.2235C23.7326 75.8259 23.9313 75.3489 24.3289 75.1899C24.7264 75.0309 25.2034 75.2297 25.3624 75.6272C25.7202 76.5017 26.3165 77.1378 26.9923 77.6148C27.7874 78.1714 28.7017 78.4099 29.4967 78.4099C30.3315 78.4099 31.2459 78.1316 32.0012 77.6148C32.7167 77.1378 33.313 76.462 33.6708 75.6272C33.8298 75.2297 34.3068 75.0309 34.7044 75.1899C35.1019 75.3489 35.3007 75.8259 35.1416 76.2235C34.6646 77.3763 33.8696 78.2509 32.9155 78.9267C31.8819 79.6025 30.6893 80 29.5365 80C28.4632 80 27.2308 79.6422 26.1575 78.9267C25.2432 78.2906 24.4084 77.4161 23.9711 76.2235H23.8916Z" fill="url(#paint0_radial_1801_9879)"/>
</g>
<defs>
<radialGradient id="paint0_radial_1801_9879" cx="0" cy="0" r="1" gradientUnits="userSpaceOnUse" gradientTransform="translate(29.5198 78.4647) scale(57.9359 57.9359)">
<stop stop-color="#FCE68F"/>
<stop offset="0.25098" stop-color="#DBAF41"/>
<stop offset="0.811765" stop-color="#693E25"/>
<stop offset="1" stop-color="#542920"/>
</radialGradient>
<clipPath id="clip0_1801_9879">
<rect width="76.1028" height="80" fill="white"/>
</clipPath>
</defs>
</svg>
