<svg width="80" height="64" viewBox="0 0 80 64" fill="none" xmlns="http://www.w3.org/2000/svg">
<g clip-path="url(#clip0_1801_11674)">
<path d="M48.039 0.680682C48.7574 0.221273 49.6344 -0.174097 50.4976 0.0792741C51.2633 0.368841 51.5278 1.26538 51.5083 2.01714C51.5111 11.378 51.5083 20.736 51.5083 30.0968C60.3623 30.0968 69.2164 30.0912 78.0705 30.0968C78.7777 30.094 79.6269 30.3307 79.9053 31.0546C80.1977 31.9121 79.755 32.7864 79.3652 33.5354C77.0458 37.8037 74.6235 42.0136 72.165 46.2012C71.4355 47.1729 70.4721 48.0806 69.2582 48.3729C68.2475 48.6151 67.2034 48.6068 66.1732 48.6235C63.2357 48.6346 60.2983 48.6263 57.3609 48.6291C56.0829 48.6235 54.6462 48.6847 53.6355 49.5757C52.7974 50.3776 52.9004 51.6723 53.229 52.6858C53.9445 54.852 55.3061 56.7202 56.314 58.7472C55.2754 58.0511 54.2703 57.3049 53.3097 56.5031C50.3249 53.8635 47.5936 50.9317 45.2854 47.6796C38.3608 38.0849 34.7802 26.3435 34.1287 14.5938C34.0145 12.0183 35.0698 9.19785 37.3752 7.84468C40.9307 5.45854 44.4863 3.07239 48.039 0.680682Z" fill="#00C89F"/>
<path d="M0.104574 19.4468C0.472101 18.6784 1.39649 18.4389 2.17888 18.4529C7.55535 18.4529 12.9318 18.4529 18.3055 18.4529C19.2383 18.4723 20.2183 18.5085 21.0564 18.9652C21.9112 19.4274 22.5544 20.1708 23.2059 20.8696C25.1688 23.1026 27.1262 25.3384 29.0863 27.5686C29.1977 27.6856 29.3982 27.9473 29.5541 27.7218C30.6344 26.5524 31.6562 25.3273 32.7282 24.1495C33.6247 29.8601 35.8327 35.3146 38.8174 40.2428C42.6208 46.4712 47.6214 51.9396 53.3069 56.5003C54.2675 57.3021 55.2699 58.0483 56.3112 58.7444C56.9599 59.4516 57.578 60.1895 58.2017 60.919C58.6695 61.4619 58.9897 62.2471 58.6945 62.9487C58.3744 63.6448 57.553 63.9288 56.8346 63.9176C51.4053 63.9232 45.9759 63.9176 40.5465 63.9204C39.636 63.9204 38.6782 63.8954 37.8485 63.4777C36.977 63.0267 36.306 62.2888 35.6489 61.576C33.7194 59.3765 31.7871 57.1796 29.8631 54.9773C29.7184 54.8019 29.5402 54.6571 29.3536 54.5346C27.3072 56.826 25.3025 59.1565 23.2616 61.4563C22.5933 62.1997 21.9056 62.9682 21.0174 63.4527C20.1877 63.887 19.2327 63.9232 18.3194 63.9232C12.8845 63.9204 7.44955 63.9232 2.0146 63.9232C1.235 63.9455 0.305043 63.6114 0.0600252 62.7984C-0.17664 61.9686 0.327318 61.1974 0.859119 60.6127C6.49732 54.1308 12.1411 47.6546 17.8099 41.1978C12.1327 34.663 6.39987 28.1756 0.733825 21.6297C0.204809 21.0562 -0.198914 20.2264 0.104574 19.4468Z" fill="#002CBA"/>
</g>
<defs>
<clipPath id="clip0_1801_11674">
<rect width="80" height="63.9242" fill="white"/>
</clipPath>
</defs>
</svg>
