<svg width="81" height="28" viewBox="0 0 81 28" fill="none" xmlns="http://www.w3.org/2000/svg">
<g clip-path="url(#clip0_1801_2133)">
<path fill-rule="evenodd" clip-rule="evenodd" d="M22.1023 27.2885L26.4754 0.337402H3.83728C2.18043 0.337402 0.83728 1.68055 0.83728 3.3374V24.2885C0.83728 25.9454 2.18043 27.2885 3.83728 27.2885H22.1023Z" fill="url(#paint0_linear_1801_2133)"/>
<path fill-rule="evenodd" clip-rule="evenodd" d="M26.4754 0.337402L22.1023 27.2885H53.7867L49.4149 0.337402H26.4754Z" fill="url(#paint1_linear_1801_2133)"/>
<path fill-rule="evenodd" clip-rule="evenodd" d="M49.4149 0.337402L53.7867 27.2885H77.1613C78.8182 27.2885 80.1613 25.9454 80.1613 24.2885V3.3374C80.1613 1.68054 78.8182 0.337402 77.1613 0.337402H49.4149Z" fill="url(#paint2_linear_1801_2133)"/>
<path fill-rule="evenodd" clip-rule="evenodd" d="M4.22134 0H76.7787C77.8027 0 78.7327 0.419306 79.4074 1.09261C80.0821 1.76727 80.5 2.69726 80.5 3.72134V23.9045C80.5 24.9285 80.0807 25.8585 79.4074 26.5332C78.7327 27.2078 77.8027 27.6258 76.7787 27.6258H4.22134C3.19726 27.6258 2.26727 27.2065 1.59261 26.5332C0.917962 25.8585 0.5 24.9285 0.5 23.9045V3.72134C0.5 2.69726 0.919306 1.76727 1.59261 1.09261C2.26727 0.417962 3.19726 0 4.22134 0ZM76.7773 0.675996H4.22134C3.38407 0.675996 2.62206 1.0187 2.07105 1.57105C1.5187 2.12341 1.176 2.88407 1.176 3.72134V23.9045C1.176 24.7417 1.5187 25.5037 2.07105 26.0547C2.62341 26.6071 3.38407 26.9498 4.22134 26.9498H76.7787C77.6159 26.9498 78.3779 26.6071 78.929 26.0547C79.4813 25.5024 79.824 24.7417 79.824 23.9045V3.72134C79.824 2.88407 79.4813 2.12206 78.929 1.57105C78.3766 1.0187 77.6159 0.675996 76.7787 0.675996H76.7773Z" fill="white"/>
<path fill-rule="evenodd" clip-rule="evenodd" d="M21.0016 4.67561C20.8484 4.82345 20.8148 4.89871 20.7153 5.09089C20.6306 5.25619 20.5514 5.4309 20.4774 5.61368C20.2328 6.21979 20.046 6.91594 19.8821 7.65913C19.4009 9.84705 19.1792 11.9705 18.8056 14.1517C18.7465 14.4997 18.6725 14.8935 18.5489 15.2604C18.3836 15.755 18.135 16.2038 17.6659 16.4605C17.5087 16.5465 17.3286 16.611 17.1203 16.65H10.9369C11.2621 16.3046 11.5376 15.63 11.7782 14.7658C11.9663 14.0912 12.133 13.3036 12.2862 12.4677C12.5604 10.9665 12.731 9.4479 12.977 7.9427C13.1759 6.72645 13.6167 5.02503 14.7187 4.67561H21.0002H21.0016Z" fill="#F0B300"/>
<path fill-rule="evenodd" clip-rule="evenodd" d="M28.8784 14.3102C28.8784 14.5642 28.8408 14.7994 28.7668 15.0158C28.6902 15.2295 28.5854 15.4244 28.4483 15.595C28.3113 15.7657 28.1473 15.9162 27.9551 16.0466C27.7629 16.1743 27.5466 16.2845 27.3073 16.3718C27.0654 16.4592 26.8074 16.525 26.5332 16.568C26.2591 16.6124 25.9433 16.6339 25.5898 16.6339H23.1223C23.0108 16.6339 22.906 16.6016 22.8065 16.5371C22.7071 16.4713 22.6573 16.3571 22.6573 16.1958V8.97082C22.6573 8.80821 22.7071 8.69532 22.8065 8.62946C22.906 8.56495 23.0108 8.5327 23.1223 8.5327H25.2686C25.8317 8.5327 26.294 8.57705 26.6528 8.66978C27.0144 8.76117 27.3154 8.8969 27.5546 9.07162C27.7965 9.24633 27.978 9.4627 28.0976 9.7167C28.2199 9.9707 28.2817 10.2596 28.2817 10.5795C28.2817 10.7717 28.2548 10.9558 28.1997 11.1305C28.1473 11.3052 28.068 11.4678 27.9632 11.6157C27.8584 11.7635 27.7293 11.8952 27.5694 12.0135C27.4122 12.1304 27.2307 12.2245 27.0265 12.3024C27.2832 12.3427 27.5251 12.4193 27.7481 12.5309C27.9726 12.6397 28.1661 12.7809 28.3354 12.9515C28.5021 13.1222 28.6338 13.3238 28.7319 13.5536C28.8287 13.7821 28.8784 14.0347 28.8784 14.3102ZM72.7442 14.2027C72.7442 14.4917 72.6999 14.7524 72.6071 14.9849C72.513 15.2201 72.3854 15.4271 72.2241 15.6071C72.0601 15.7872 71.8653 15.9404 71.6395 16.0681C71.4151 16.1985 71.1637 16.306 70.8923 16.3893C70.6208 16.4726 70.3292 16.5344 70.0201 16.5734C69.711 16.6137 69.3669 16.6326 68.9866 16.6326H66.4788C66.3175 16.6326 66.1818 16.5922 66.0729 16.5103C65.9627 16.4296 65.909 16.2966 65.909 16.1125V9.04877C65.909 8.86465 65.9641 8.73294 66.0729 8.65096C66.1831 8.57033 66.3175 8.52867 66.4788 8.52867H68.8495C69.4274 8.52867 69.9179 8.57167 70.3184 8.655C70.7189 8.73832 71.0576 8.86465 71.3317 9.03264C71.6086 9.20198 71.8169 9.41566 71.9647 9.67369C72.1085 9.93173 72.1838 10.2381 72.1838 10.5889C72.1838 10.7851 72.1542 10.9692 72.0937 11.1426C72.036 11.316 71.9513 11.4732 71.8397 11.6143C71.7282 11.7581 71.5911 11.8818 71.4258 11.9906C71.2645 12.0995 71.0777 12.1868 70.8681 12.254C71.1369 12.297 71.3842 12.3696 71.6099 12.4744C71.8344 12.5793 72.0333 12.7123 72.1999 12.879C72.3666 13.0429 72.501 13.2364 72.5977 13.4582C72.6945 13.6786 72.7415 13.9259 72.7415 14.2014L72.7442 14.2027ZM70.2633 10.7918C70.2633 10.6279 70.2338 10.4814 70.176 10.3537C70.1182 10.2234 70.0295 10.1158 69.9125 10.0312C69.7983 9.94517 69.6505 9.87932 69.4717 9.83228C69.2943 9.78793 69.0578 9.76374 68.7621 9.76374H67.7905V11.867H68.8643C69.1411 11.867 69.3629 11.8388 69.5268 11.7837C69.6935 11.7286 69.8306 11.6493 69.9408 11.5525C70.051 11.4544 70.1303 11.3388 70.1854 11.2058C70.2378 11.0754 70.2647 10.937 70.2647 10.7918H70.2633ZM70.7512 14.2605C70.7512 14.0724 70.7162 13.903 70.641 13.7565C70.5684 13.6074 70.4622 13.4824 70.3224 13.3829C70.18 13.2848 70.0012 13.2055 69.7822 13.1518C69.5631 13.098 69.2796 13.0711 68.9274 13.0711H67.7891V15.3746H69.1761C69.4422 15.3746 69.6666 15.3518 69.8507 15.3021C70.0322 15.255 70.1894 15.1851 70.3238 15.0911C70.4582 14.997 70.563 14.8801 70.6369 14.7403C70.7122 14.5992 70.7485 14.4406 70.7485 14.2619L70.7512 14.2605ZM65.2558 9.20601C65.2558 9.32831 65.2478 9.43044 65.2357 9.51646C65.2236 9.60247 65.2061 9.67235 65.1806 9.72342C65.155 9.77449 65.1255 9.81481 65.0905 9.839C65.0529 9.86453 65.0139 9.87797 64.9682 9.87797H62.6043V16.4095C62.6043 16.4498 62.5895 16.4888 62.5572 16.521C62.525 16.5546 62.4726 16.5828 62.4 16.6016C62.3274 16.6231 62.228 16.6406 62.103 16.6527C61.9807 16.6662 61.8261 16.6715 61.6393 16.6715C61.4525 16.6715 61.3007 16.6648 61.1757 16.6527C61.0534 16.6393 60.9539 16.6231 60.8814 16.6016C60.8061 16.5828 60.7537 16.5546 60.7241 16.521C60.6919 16.4888 60.6771 16.4511 60.6771 16.4095V9.87797H58.3118C58.2647 9.87797 58.2217 9.86453 58.1895 9.839C58.1545 9.81615 58.125 9.77449 58.0994 9.72342C58.0766 9.67235 58.0578 9.60112 58.0443 9.51646C58.0349 9.43044 58.0268 9.32831 58.0268 9.20601C58.0268 9.08371 58.0349 8.97485 58.0443 8.8875C58.0564 8.80014 58.0766 8.72891 58.0994 8.67784C58.125 8.62409 58.1545 8.5878 58.1895 8.56495C58.2217 8.54211 58.2647 8.53136 58.3118 8.53136H64.9655C65.0099 8.53136 65.0502 8.54211 65.0879 8.56495C65.1228 8.5878 65.1524 8.62543 65.1779 8.67784C65.2034 8.72891 65.2209 8.80014 65.233 8.8875C65.2451 8.97485 65.2532 9.08237 65.2532 9.20601H65.2558ZM57.3791 16.056C57.3791 16.1528 57.3589 16.2374 57.3213 16.314C57.281 16.3893 57.2286 16.4511 57.164 16.4995C57.0969 16.5506 57.0202 16.5869 56.9302 16.6111C56.8402 16.6326 56.7488 16.6447 56.656 16.6447H55.8389C55.6696 16.6447 55.5204 16.6299 55.3981 16.6003C55.2731 16.5721 55.1589 16.5197 55.0541 16.4417C54.9493 16.3651 54.8471 16.2603 54.7504 16.1272C54.6536 15.9969 54.5434 15.8262 54.4238 15.6165L52.0733 11.8294C51.9389 11.6022 51.7991 11.3617 51.658 11.1009C51.5182 10.8402 51.3919 10.5862 51.279 10.3403H51.2642C51.2844 10.64 51.2991 10.9383 51.3086 11.238C51.3166 11.5377 51.3206 11.8455 51.3206 12.1613V16.4014C51.3206 16.4417 51.3086 16.4807 51.2803 16.5129C51.2548 16.5465 51.2078 16.5748 51.1433 16.599C51.0761 16.6218 50.9887 16.6393 50.8772 16.6527C50.7656 16.6662 50.6205 16.6715 50.4458 16.6715C50.271 16.6715 50.134 16.6648 50.0224 16.6527C49.9109 16.6393 49.8235 16.6231 49.759 16.599C49.6972 16.5748 49.6542 16.5479 49.63 16.5129C49.6045 16.4807 49.5924 16.4431 49.5924 16.4014V9.11865C49.5924 8.92378 49.6596 8.77729 49.7939 8.67784C49.9257 8.57974 50.091 8.53001 50.2845 8.53001H51.3153C51.4994 8.53001 51.6539 8.54345 51.7816 8.57033C51.9093 8.59855 52.0208 8.6429 52.1203 8.70472C52.2197 8.76654 52.3152 8.8539 52.4012 8.96544C52.4885 9.0743 52.5786 9.21138 52.67 9.374L54.5098 12.336C54.6173 12.5161 54.7221 12.6935 54.8256 12.8655C54.9304 13.0389 55.0326 13.2123 55.1293 13.3843C55.2261 13.5576 55.3215 13.7283 55.4129 13.895C55.5056 14.0616 55.5943 14.2283 55.6817 14.3949H55.6898C55.675 14.1019 55.6642 13.7982 55.6575 13.4797C55.6494 13.1639 55.6481 12.8601 55.6481 12.5739V8.77192C55.6481 8.7316 55.6629 8.69263 55.6911 8.65903C55.7207 8.62677 55.7704 8.59721 55.8376 8.57167C55.9048 8.54883 55.9948 8.52867 56.1064 8.5206C56.2179 8.50985 56.3631 8.50313 56.5378 8.50313C56.7125 8.50313 56.8415 8.50985 56.9531 8.5206C57.0646 8.52867 57.152 8.54883 57.2124 8.57167C57.2742 8.59721 57.3173 8.62677 57.3401 8.65903C57.3656 8.69263 57.3777 8.7316 57.3777 8.77192V16.0533L57.3791 16.056ZM48.2699 16.4713C48.2699 16.5035 48.2605 16.5331 48.2431 16.5586C48.2229 16.5842 48.1906 16.603 48.1436 16.6205C48.0966 16.6379 48.0334 16.65 47.9487 16.6594C47.8668 16.6675 47.7619 16.6729 47.6356 16.6729C47.5093 16.6729 47.3964 16.6688 47.3117 16.6621C47.227 16.6554 47.1545 16.6447 47.098 16.6326C47.0389 16.6178 46.9905 16.5963 46.9542 16.568C46.9193 16.5425 46.887 16.5076 46.8575 16.4713L44.0863 13.3534V16.478C44.0863 16.5103 44.0769 16.5398 44.0567 16.5613C44.0366 16.5842 44.0043 16.6043 43.9626 16.6205C43.9183 16.6379 43.8578 16.65 43.7812 16.6594C43.7019 16.6675 43.6025 16.6729 43.4802 16.6729C43.3659 16.6729 43.2678 16.6688 43.1885 16.6594C43.1119 16.6514 43.0488 16.6379 43.0044 16.6205C42.9574 16.603 42.9251 16.5842 42.9103 16.5613C42.8929 16.5398 42.8835 16.5103 42.8835 16.478V8.11339C42.8835 8.0798 42.8929 8.04889 42.9103 8.02604C42.9251 8.0005 42.9574 7.979 43.0044 7.96153C43.0488 7.94675 43.1119 7.93331 43.1885 7.92524C43.2678 7.91718 43.3659 7.9118 43.4802 7.9118C43.6025 7.9118 43.7019 7.91584 43.7812 7.92524C43.8578 7.93331 43.9183 7.94675 43.9626 7.96153C44.0056 7.979 44.0379 8.0005 44.0567 8.02604C44.0769 8.04889 44.0863 8.0798 44.0863 8.11339V13.2082L46.5672 10.8684C46.6048 10.8254 46.6465 10.7918 46.6922 10.7636C46.7338 10.7381 46.7862 10.7139 46.8494 10.6951C46.9085 10.6763 46.9811 10.6655 47.0631 10.6588C47.1451 10.6521 47.2445 10.648 47.3614 10.648C47.4784 10.648 47.5859 10.6521 47.6678 10.6588C47.7498 10.6655 47.817 10.6736 47.8694 10.6884C47.9192 10.7031 47.9568 10.722 47.9796 10.7461C47.9998 10.7677 48.0119 10.7999 48.0119 10.8362C48.0119 10.8873 47.9944 10.937 47.9649 10.9854C47.9326 11.0364 47.8802 11.0942 47.8076 11.1601L45.4289 13.2029L48.0979 16.1756C48.1597 16.2455 48.2054 16.3033 48.2323 16.349C48.2592 16.392 48.2726 16.4323 48.2726 16.4713H48.2699ZM41.7492 16.478C41.7492 16.5103 41.7398 16.5398 41.7196 16.5613C41.6995 16.5842 41.6699 16.6043 41.6256 16.6205C41.5812 16.6379 41.5207 16.65 41.4441 16.6594C41.3648 16.6675 41.2667 16.6729 41.1525 16.6729C41.0302 16.6729 40.9307 16.6688 40.8515 16.6594C40.7748 16.6514 40.7144 16.6379 40.67 16.6205C40.627 16.603 40.5948 16.5842 40.5759 16.5613C40.5558 16.5398 40.5464 16.5103 40.5464 16.478V13.1787C40.5464 12.8561 40.5195 12.5967 40.459 12.4032C40.4012 12.207 40.3166 12.0377 40.205 11.8952C40.0935 11.7541 39.9483 11.6452 39.7696 11.57C39.5922 11.4947 39.3879 11.4571 39.1541 11.4571C38.853 11.4571 38.552 11.5485 38.2496 11.7326C37.9459 11.9167 37.6301 12.1855 37.3008 12.5403V16.4793C37.3008 16.5116 37.2914 16.5412 37.2712 16.5627C37.2511 16.5855 37.2188 16.6057 37.1771 16.6218C37.1328 16.6393 37.0723 16.6514 36.9957 16.6608C36.9164 16.6688 36.817 16.6742 36.6947 16.6742C36.5804 16.6742 36.4823 16.6702 36.403 16.6608C36.3264 16.6527 36.2633 16.6393 36.2189 16.6218C36.1719 16.6043 36.1396 16.5855 36.1249 16.5627C36.1074 16.5412 36.098 16.5116 36.098 16.4793V10.8443C36.098 10.8107 36.106 10.7824 36.1208 10.7582C36.1356 10.7367 36.1652 10.7152 36.2082 10.6964C36.2525 10.6776 36.3076 10.6669 36.3775 10.6601C36.4447 10.6534 36.5348 10.6494 36.6463 10.6494C36.7578 10.6494 36.8425 10.6534 36.9124 10.6601C36.9823 10.6669 37.0374 10.6776 37.0764 10.6964C37.114 10.7152 37.1435 10.7367 37.161 10.7582C37.1758 10.7811 37.1866 10.8093 37.1866 10.8443V11.5901C37.5548 11.2353 37.923 10.9746 38.2926 10.8107C38.6582 10.6467 39.0304 10.5634 39.4027 10.5634C39.8408 10.5634 40.2091 10.6279 40.5087 10.7556C40.8071 10.8819 41.0517 11.0526 41.2358 11.2636C41.4199 11.4772 41.5516 11.7272 41.6323 12.0121C41.7143 12.2984 41.7546 12.6424 41.7546 13.0416V16.4807L41.7492 16.478ZM34.9906 16.4847C34.9906 16.5344 34.9704 16.5721 34.9314 16.5963C34.8938 16.6218 34.8387 16.6406 34.7715 16.6541C34.7016 16.6675 34.6022 16.6729 34.4732 16.6729C34.3441 16.6729 34.2447 16.6662 34.1694 16.6541C34.0942 16.6406 34.0404 16.6218 34.0055 16.5963C33.9705 16.5734 33.9558 16.5344 33.9558 16.4847V15.9203C33.6668 16.1837 33.3483 16.388 32.9948 16.5331C32.6441 16.6782 32.2705 16.7535 31.8767 16.7535C31.53 16.7535 31.2168 16.7145 30.9373 16.6366C30.6578 16.56 30.4199 16.4484 30.2223 16.3033C30.0261 16.1555 29.8716 15.9767 29.7614 15.7644C29.6538 15.5507 29.6001 15.3088 29.6001 15.0373C29.6001 14.7188 29.6753 14.446 29.8245 14.2108C29.9764 13.9783 30.1928 13.7834 30.475 13.6289C30.7559 13.473 31.1026 13.3574 31.5111 13.2808C31.9197 13.2042 32.3807 13.1652 32.8914 13.1652H33.7958V12.7271C33.7958 12.5094 33.7689 12.3172 33.7165 12.1506C33.6614 11.9839 33.5768 11.8455 33.4572 11.7353C33.3375 11.6237 33.183 11.5404 32.9935 11.4826C32.804 11.4275 32.5702 11.3993 32.2933 11.3993C31.995 11.3993 31.7302 11.4289 31.4937 11.4893C31.2571 11.5512 31.0502 11.617 30.8741 11.6896C30.6954 11.7622 30.5476 11.828 30.4279 11.8898C30.3083 11.9503 30.221 11.9799 30.1618 11.9799C30.1242 11.9799 30.0893 11.9718 30.0597 11.9557C30.0301 11.9382 30.0046 11.9127 29.9831 11.8791C29.9629 11.8468 29.9455 11.8038 29.9361 11.7514C29.9267 11.7003 29.9213 11.6425 29.9213 11.5807C29.9213 11.4759 29.9307 11.3926 29.9482 11.3334C29.9656 11.273 30.0059 11.2165 30.0731 11.1601C30.1377 11.1063 30.2505 11.0432 30.4118 10.9692C30.5717 10.8967 30.7559 10.8308 30.9642 10.769C31.1738 10.7085 31.4023 10.6601 31.6509 10.6198C31.8969 10.5795 32.1495 10.5593 32.4035 10.5593C32.8739 10.5593 33.2757 10.6064 33.6063 10.6978C33.9369 10.7892 34.2044 10.9249 34.4087 11.1023C34.6129 11.2797 34.7621 11.5001 34.8548 11.7622C34.9476 12.0256 34.9946 12.3306 34.9946 12.6814V16.4834L34.9906 16.4847ZM33.7931 13.9111H32.765C32.4344 13.9111 32.1468 13.9353 31.9036 13.981C31.6617 14.0307 31.4601 14.1006 31.2988 14.1947C31.1389 14.2887 31.0193 14.4016 30.9454 14.532C30.8701 14.665 30.8338 14.8142 30.8338 14.9849C30.8338 15.2779 30.9413 15.5104 31.1577 15.6837C31.3741 15.8571 31.6778 15.9445 32.0662 15.9445C32.382 15.9445 32.6736 15.8759 32.9451 15.7375C33.2139 15.6004 33.4975 15.3894 33.7945 15.1045V13.9098L33.7931 13.9111ZM26.9888 10.6857C26.9888 10.4895 26.9566 10.3121 26.8948 10.1535C26.8329 9.99489 26.7335 9.8605 26.5964 9.74896C26.4593 9.63741 26.2833 9.55274 26.0629 9.49495C25.8438 9.43716 25.5549 9.4076 25.1933 9.4076H23.8965V12.0323H25.3264C25.653 12.0323 25.9164 11.996 26.1153 11.9207C26.3142 11.8482 26.4795 11.7501 26.6112 11.6278C26.7429 11.5041 26.8383 11.3603 26.9001 11.1964C26.9593 11.0297 26.9902 10.8604 26.9902 10.6857H26.9888ZM27.5587 14.3721C27.5587 14.1302 27.5143 13.9165 27.4216 13.735C27.3315 13.5509 27.2025 13.395 27.0278 13.2714C26.8558 13.1451 26.6394 13.051 26.38 12.9851C26.118 12.9206 25.7927 12.8884 25.3963 12.8884H23.8951V15.7442H25.7175C26.0064 15.7442 26.255 15.7147 26.4701 15.6569C26.6838 15.5991 26.8733 15.5117 27.0359 15.3961C27.1998 15.2833 27.3275 15.1395 27.4189 14.9688C27.5116 14.7981 27.5587 14.5992 27.5587 14.3721Z" fill="white"/>
<path fill-rule="evenodd" clip-rule="evenodd" d="M8.98282 10.6481C9.30402 12.1076 9.45185 13.5241 9.70048 14.9795C9.7408 15.2107 9.78918 15.4741 9.87116 15.7187C9.98136 16.048 10.1467 16.3477 10.4598 16.5197C10.5646 16.5775 10.6842 16.6191 10.824 16.646H10.9409C11.2648 16.2993 11.539 15.626 11.7795 14.7659C11.9677 14.0912 12.1343 13.3037 12.2875 12.4677C12.5187 11.2044 12.6759 9.92906 12.8668 8.6577H8.2356C8.33773 8.75715 8.36058 8.80688 8.42643 8.93455C8.48288 9.04475 8.53529 9.16167 8.58502 9.28397C8.74763 9.68849 8.87262 10.1535 8.98148 10.6481H8.98282Z" fill="#00ABE6"/>
<path fill-rule="evenodd" clip-rule="evenodd" d="M12.8668 8.65904C12.6759 9.92905 12.5187 11.2044 12.2875 12.4691C12.1343 13.305 11.9677 14.0939 11.7795 14.7672C11.539 15.6273 11.2648 16.3006 10.9409 16.6474H16.2736C16.0573 16.4175 15.8731 15.9673 15.7119 15.3908C15.5869 14.9406 15.4753 14.4151 15.3732 13.8574C15.1904 12.8561 15.0762 11.8428 14.9122 10.8389C14.7805 10.0272 14.4849 8.89289 13.7497 8.66039H12.8654L12.8668 8.65904Z" fill="#007BBF"/>
<path fill-rule="evenodd" clip-rule="evenodd" d="M53.7343 20.0542H53.5166C53.5475 19.7626 53.5636 19.5408 53.5636 19.3903C53.5636 19.1766 53.5058 19.0073 53.3902 18.8836C53.2746 18.76 53.1187 18.6982 52.9198 18.6982C52.6148 18.6982 52.3473 18.8097 52.1189 19.0301C51.8904 19.2505 51.7775 19.4992 51.7775 19.7747C51.7775 19.9212 51.8084 20.0555 51.8716 20.1752C51.9334 20.2948 52.0718 20.4614 52.2855 20.6764C52.6766 21.0595 52.9346 21.3605 53.0569 21.5769C53.1792 21.7946 53.241 22.0056 53.241 22.2125C53.241 22.5163 53.1483 22.8079 52.9629 23.0888C52.7774 23.3697 52.5059 23.6022 52.1457 23.7836C51.7856 23.9664 51.4052 24.0564 51.0047 24.0564C50.6043 24.0564 50.275 23.9529 50.0049 23.7473C49.7347 23.5404 49.5977 23.324 49.5977 23.0969C49.5977 22.9746 49.6326 22.8738 49.7052 22.7918C49.7764 22.7111 49.857 22.6708 49.9484 22.6708C50.0398 22.6708 50.1218 22.7085 50.1823 22.7837C50.2226 22.8281 50.2602 22.9289 50.3005 23.0848C50.3449 23.2743 50.3986 23.4113 50.4631 23.496C50.5277 23.5807 50.615 23.6492 50.7279 23.7043C50.8408 23.7581 50.9631 23.7849 51.0961 23.7849C51.4939 23.7849 51.842 23.6506 52.1404 23.3818C52.436 23.1143 52.5866 22.816 52.5866 22.4921C52.5866 22.3805 52.5677 22.2703 52.5301 22.1601C52.4925 22.0499 52.4253 21.9249 52.3231 21.7865C52.2546 21.6911 52.1 21.5245 51.8608 21.2852C51.6243 21.0514 51.4765 20.8915 51.4146 20.8055C51.3273 20.6805 51.2641 20.5541 51.2225 20.4278C51.1808 20.3015 51.1593 20.1752 51.1593 20.0502C51.1593 19.7962 51.2453 19.5435 51.4146 19.2868C51.584 19.0301 51.8044 18.8272 52.0759 18.6753C52.3473 18.5235 52.6551 18.4469 53.0005 18.4469C53.1725 18.4469 53.3862 18.4737 53.6388 18.5262C53.784 18.553 53.909 18.5745 54.0151 18.5893C53.9533 18.7708 53.9063 18.9401 53.8727 19.1C53.8404 19.2599 53.7947 19.5771 53.7356 20.0529L53.7343 20.0542ZM54.085 20.7759C54.339 20.5918 54.5326 20.499 54.6696 20.499C54.7866 20.499 54.8968 20.573 55.0002 20.7208C55.2059 21.007 55.3645 21.421 55.4773 21.9639C55.5902 22.5069 55.6467 22.9705 55.6467 23.3576C55.6467 23.6344 55.5701 23.9059 55.4182 24.176C55.2677 24.4448 55.0621 24.6773 54.8027 24.8722C54.6132 25.0133 54.4331 25.0845 54.2638 25.0845C54.1993 25.0845 54.0797 25.0657 53.9049 25.0267C53.741 24.9905 53.612 24.973 53.5179 24.973C53.3956 24.973 53.2975 25.0025 53.2249 25.063C53.1537 25.1235 53.1161 25.1947 53.1161 25.2781C53.1161 25.3721 53.1631 25.4541 53.2558 25.5213C53.3499 25.5898 53.4883 25.6234 53.6711 25.6234C53.913 25.6234 54.1697 25.5589 54.4398 25.4299C54.7113 25.3009 54.9922 25.0872 55.2825 24.7875C55.5728 24.4878 55.8953 24.0309 56.2474 23.414C56.5995 22.7972 56.8576 22.222 57.0215 21.6857C57.1868 21.1495 57.2675 20.7033 57.2675 20.3445C57.2675 20.2047 57.2379 20.0986 57.1774 20.0246C57.1169 19.9494 57.039 19.9104 56.9422 19.9104C56.8643 19.9104 56.7998 19.9373 56.7487 19.9897C56.6963 20.0421 56.6707 20.1093 56.6707 20.1899C56.6707 20.2706 56.6963 20.4117 56.746 20.6079C56.793 20.7826 56.8172 20.9224 56.8172 21.0299C56.8172 21.5379 56.5821 22.2246 56.1117 23.0915C56.1171 22.9598 56.1197 22.863 56.1197 22.7998C56.1197 22.3066 56.0351 21.7986 55.8684 21.2745C55.7018 20.7504 55.4948 20.3324 55.2502 20.0246C55.1978 19.9574 55.1414 19.9238 55.0836 19.9238C55.0258 19.9238 54.9613 19.9413 54.8914 19.9736C54.7691 20.0314 54.5581 20.1644 54.2571 20.3714L53.948 20.5797L54.0823 20.7759H54.085ZM60.3612 19.8566L60.6367 19.7989L60.3235 20.8552C60.1999 21.2745 60.0816 21.7583 59.9688 22.3066C59.9069 22.605 59.8774 22.7972 59.8774 22.8818C59.8774 22.9665 59.911 23.0108 59.9808 23.0108C60.0252 23.0108 60.0964 22.9826 60.1945 22.9235C60.3666 22.82 60.5319 22.6923 60.6904 22.5391L60.8248 22.7017C60.5077 22.9907 60.3047 23.1681 60.2147 23.2286C60.0373 23.3495 59.8666 23.4409 59.7067 23.4987C59.6019 23.5377 59.497 23.5565 59.3976 23.5565C59.325 23.5565 59.2712 23.539 59.235 23.5068C59.1973 23.4732 59.1812 23.4248 59.1812 23.3603C59.1812 23.3186 59.1933 23.2622 59.2135 23.1896L59.3801 22.6224C59.1409 22.9087 58.856 23.1546 58.5254 23.3603C58.3211 23.4879 58.1356 23.5524 57.965 23.5524C57.7943 23.5524 57.68 23.496 57.5927 23.3818C57.4758 23.2272 57.418 23.0283 57.418 22.781C57.418 22.4867 57.4973 22.1588 57.6545 21.7973C57.8117 21.4358 58.0214 21.1065 58.2875 20.8122C58.5509 20.5179 58.8304 20.3001 59.1221 20.1617C59.3465 20.0569 59.6368 20.0031 59.9889 20.0031C60.079 20.0031 60.169 20.0085 60.2604 20.0206L60.3598 19.8566H60.3612ZM59.8438 20.4964C59.6932 20.4654 59.5656 20.4493 59.4634 20.4493C59.2121 20.4493 58.9944 20.5192 58.8076 20.6563C58.6208 20.7947 58.4488 21.042 58.2875 21.3995C58.1276 21.757 58.0483 22.1131 58.0483 22.4692C58.0483 22.6587 58.0792 22.7958 58.1437 22.8778C58.2082 22.9625 58.2915 23.0028 58.395 23.0028C58.5872 23.0028 58.7928 22.9006 59.0132 22.6923C59.2323 22.4854 59.3935 22.187 59.4957 21.7973L59.8438 20.495V20.4964ZM61.8758 23.4382H61.2535L61.5452 22.316C61.6876 21.765 61.8113 21.2422 61.9174 20.7463C61.943 20.624 61.9551 20.5488 61.9551 20.5165C61.9551 20.4493 61.9255 20.4171 61.8637 20.4171C61.822 20.4171 61.7589 20.4453 61.6715 20.5031C61.5855 20.5595 61.4296 20.7006 61.2038 20.9264L61.0748 20.7813C61.3422 20.495 61.6083 20.28 61.8744 20.1362C62.1405 19.9937 62.3448 19.9212 62.4873 19.9212C62.537 19.9212 62.576 19.9346 62.6055 19.9574C62.6338 19.9816 62.6499 20.0112 62.6499 20.0475C62.6499 20.0838 62.6311 20.1805 62.5961 20.3351L62.416 21.0823C62.6969 20.6388 63.0141 20.2625 63.3675 19.9467C63.5369 19.7962 63.678 19.7223 63.7922 19.7223C63.8769 19.7223 63.9454 19.7491 64.0019 19.8029C64.057 19.8566 64.0852 19.9198 64.0852 19.9924C64.0852 20.065 64.0583 20.1321 64.0032 20.1846C63.9495 20.237 63.8137 20.3001 63.5974 20.3727C63.3904 20.4426 63.2237 20.5246 63.0947 20.6213C62.9657 20.7194 62.8233 20.8673 62.6687 21.0689C62.5155 21.2691 62.4066 21.4438 62.3448 21.593C62.283 21.7408 62.1889 22.0876 62.0653 22.6305L61.8771 23.4396L61.8758 23.4382ZM65.4439 18.1337C65.5299 18.1337 65.6011 18.162 65.6563 18.2197C65.7114 18.2762 65.7409 18.3514 65.7409 18.4388C65.7409 18.5611 65.6979 18.67 65.6132 18.7627C65.5286 18.8568 65.4332 18.9025 65.3283 18.9025C65.2437 18.9025 65.1751 18.8742 65.1187 18.8151C65.0636 18.7573 65.0367 18.6794 65.0367 18.5853C65.0367 18.4603 65.077 18.3528 65.1577 18.2668C65.2369 18.1781 65.3337 18.1337 65.4453 18.1337H65.4439ZM63.8003 20.8968C64.0435 20.6576 64.2021 20.5152 64.2734 20.4708C64.3446 20.4265 64.4077 20.4036 64.4628 20.4036C64.5139 20.4036 64.5381 20.4318 64.5381 20.4883C64.5381 20.538 64.5287 20.5958 64.5099 20.659C64.0919 22.011 63.8836 22.8617 63.8836 23.2084C63.8836 23.3173 63.9118 23.4019 63.9696 23.4637C64.0261 23.5256 64.104 23.5551 64.2021 23.5551C64.3137 23.5551 64.4561 23.5054 64.6322 23.406C64.8069 23.3052 65.0851 23.0754 65.4654 22.7165L65.3028 22.5579C64.9359 22.902 64.7074 23.0754 64.6187 23.0754C64.5959 23.0754 64.5744 23.0619 64.5556 23.035C64.5354 23.0095 64.526 22.9772 64.526 22.9369C64.526 22.734 64.6738 22.1386 64.9695 21.1522C65.1509 20.5488 65.2396 20.2047 65.2396 20.1254C65.2396 20.0582 65.2168 20.0058 65.1684 19.9655C65.1214 19.9265 65.0528 19.9077 64.9641 19.9077C64.8029 19.9077 64.6066 19.9736 64.3768 20.1026C64.147 20.2316 63.8944 20.4493 63.6162 20.7544L63.8003 20.8968ZM68.5605 19.8566L68.836 19.7989L68.5228 20.8552C68.3992 21.2745 68.2809 21.7583 68.1681 22.3066C68.1062 22.605 68.0767 22.7972 68.0767 22.8818C68.0767 22.9665 68.1103 23.0108 68.1801 23.0108C68.2245 23.0108 68.2957 22.9826 68.3938 22.9235C68.5659 22.82 68.7312 22.6923 68.8897 22.5391L69.0241 22.7017C68.707 22.9907 68.504 23.1681 68.414 23.2286C68.2366 23.3495 68.0659 23.4409 67.906 23.4987C67.8012 23.5377 67.6963 23.5565 67.5969 23.5565C67.5243 23.5565 67.4706 23.539 67.4343 23.5068C67.3966 23.4732 67.3805 23.4248 67.3805 23.3603C67.3805 23.3186 67.3913 23.2622 67.4128 23.1896L67.5794 22.6224C67.3402 22.9087 67.0553 23.1546 66.7247 23.3603C66.5204 23.4879 66.3349 23.5524 66.1643 23.5524C65.9936 23.5524 65.8793 23.496 65.792 23.3818C65.6751 23.2272 65.6173 23.0283 65.6173 22.781C65.6173 22.4867 65.6966 22.1588 65.8538 21.7973C66.011 21.4358 66.2207 21.1065 66.4868 20.8122C66.7502 20.5179 67.0297 20.3001 67.3214 20.1617C67.5458 20.0569 67.8361 20.0031 68.1896 20.0031C68.2796 20.0031 68.3696 20.0085 68.461 20.0206L68.5605 19.8566ZM68.0431 20.4964C67.8925 20.4654 67.7649 20.4493 67.6627 20.4493C67.4114 20.4493 67.1937 20.5192 67.0069 20.6563C66.8201 20.7947 66.6481 21.042 66.4868 21.3995C66.3269 21.757 66.2476 22.1131 66.2476 22.4692C66.2476 22.6587 66.2785 22.7958 66.343 22.8778C66.4075 22.9625 66.4908 23.0028 66.5943 23.0028C66.7865 23.0028 66.9921 22.9006 67.2125 22.6923C67.4316 22.4854 67.5929 22.187 67.695 21.7973L68.0431 20.495V20.4964ZM72.6541 22.5539L72.7629 22.7071C72.5076 22.992 72.2442 23.2165 71.9754 23.3831C71.7913 23.4973 71.6394 23.5538 71.5198 23.5538C71.4231 23.5538 71.3451 23.5148 71.2846 23.4369C71.2241 23.3589 71.1946 23.238 71.1946 23.074C71.1946 22.9625 71.2174 22.8012 71.2631 22.5889C71.3088 22.3752 71.4392 21.9196 71.6529 21.2167C71.7483 20.8713 71.7953 20.6711 71.7953 20.6133C71.7953 20.5179 71.7483 20.4708 71.6529 20.4708C71.5359 20.4708 71.3908 20.5286 71.2161 20.6455C70.9715 20.8068 70.7538 21.0124 70.5656 21.2637C70.446 21.425 70.3493 21.6642 70.2767 21.9814L69.9434 23.4328H69.3211C69.4555 22.945 69.559 22.5485 69.6303 22.2394L70.2444 19.5596C70.356 19.0678 70.5025 18.6888 70.6852 18.4227C70.868 18.1566 71.1059 17.9456 71.3989 17.7857C71.6918 17.6271 71.9835 17.5478 72.2697 17.5478C72.3893 17.5478 72.4834 17.5773 72.5533 17.6365C72.6232 17.6943 72.6568 17.7682 72.6568 17.8569C72.6568 17.9321 72.6232 17.998 72.556 18.0544C72.4874 18.1109 72.3947 18.1404 72.2778 18.1404C72.2106 18.1404 72.1246 18.1337 72.0184 18.1203C71.7792 18.0867 71.6139 18.0692 71.5211 18.0692C71.3948 18.0692 71.2887 18.1216 71.2094 18.2251C71.1287 18.3273 71.0441 18.5705 70.958 18.9522L70.4904 21.0138C70.821 20.6657 71.1811 20.3727 71.5709 20.1335C71.7993 19.991 71.9821 19.9198 72.1205 19.9198C72.2294 19.9198 72.3141 19.9521 72.3759 20.0179C72.4377 20.0838 72.4673 20.1752 72.4673 20.2907C72.4673 20.3848 72.4579 20.4802 72.435 20.5743C72.4001 20.7383 72.3141 21.0353 72.1797 21.468C71.9982 22.0634 71.8934 22.4343 71.8612 22.5781C71.8303 22.7232 71.8141 22.8536 71.8141 22.9665C71.8141 23.0108 71.8209 23.0444 71.837 23.0659C71.8518 23.0888 71.8746 23.0995 71.9055 23.0995C71.9727 23.0995 72.0977 23.0203 72.2818 22.8617C72.384 22.7743 72.5103 22.6722 72.6568 22.5526L72.6541 22.5539Z" fill="white"/>
</g>
<defs>
<linearGradient id="paint0_linear_1801_2133" x1="26.4754" y1="13.813" x2="0.83728" y2="13.813" gradientUnits="userSpaceOnUse">
<stop stop-color="#00693F"/>
<stop offset="1" stop-color="#008A44"/>
</linearGradient>
<linearGradient id="paint1_linear_1801_2133" x1="53.7867" y1="13.813" x2="22.1023" y2="13.813" gradientUnits="userSpaceOnUse">
<stop stop-color="#00693F"/>
<stop offset="1" stop-color="#008A44"/>
</linearGradient>
<linearGradient id="paint2_linear_1801_2133" x1="80.1613" y1="13.813" x2="49.4149" y2="13.813" gradientUnits="userSpaceOnUse">
<stop stop-color="#00693F"/>
<stop offset="1" stop-color="#008A44"/>
</linearGradient>
<clipPath id="clip0_1801_2133">
<rect width="80" height="27.6258" fill="white" transform="translate(0.5)"/>
</clipPath>
</defs>
</svg>
