<svg width="81" height="22" viewBox="0 0 81 22" fill="none" xmlns="http://www.w3.org/2000/svg">
<g clip-path="url(#clip0_1801_2163)">
<g clip-path="url(#clip1_1801_2163)">
<path fill-rule="evenodd" clip-rule="evenodd" d="M9.97119 13.4572V0.214759C9.97119 0.214759 12.8683 -0.340101 14.8943 0.334037C16.9211 1.00817 19.4621 2.4183 19.4621 5.2571C19.4621 7.71598 17.7392 9.11285 15.6939 10.045C13.6494 10.9762 12.4548 10.5574 11.7983 10.7165C11.1428 10.8764 10.6056 11.0752 10.3882 11.6698C10.1709 12.2644 9.97119 13.4572 9.97119 13.4572Z" fill="#DAB741"/>
<path fill-rule="evenodd" clip-rule="evenodd" d="M0.52002 7.6568V20.8992C0.52002 20.8992 3.41713 21.4541 5.44308 20.78C7.46992 20.1058 10.011 18.6957 10.011 15.8569C10.011 13.0181 8.12903 11.7732 6.52188 11.1123C4.4438 10.257 3.00364 10.5574 2.34717 10.3975C1.69071 10.2385 1.1544 10.0388 0.937049 9.44419C0.719699 8.84957 0.52002 7.6568 0.52002 7.6568ZM21.906 7.6568V20.8992C21.906 20.8992 19.0098 21.4541 16.9829 20.78C14.9561 20.1058 12.4151 18.6957 12.4151 15.8569C12.4151 13.0181 14.2025 11.9632 16.247 11.0319C18.2915 10.1007 19.4224 10.5574 20.0789 10.3975C20.7353 10.2385 21.2716 10.0388 21.489 9.44419C21.7063 8.84957 21.906 7.6568 21.906 7.6568Z" fill="#2A82C5"/>
<path fill-rule="evenodd" clip-rule="evenodd" d="M28.4 19.801C28.6288 19.8832 28.8479 19.945 29.0591 19.9865C29.2694 20.0281 29.4779 20.0484 29.6838 20.0484C30.3517 20.0484 30.8695 19.8628 31.2379 19.4917C31.6063 19.1198 31.791 18.5932 31.791 17.9102C31.791 17.2449 31.6125 16.7201 31.2556 16.3349C30.8986 15.9505 30.4153 15.7579 29.8075 15.7579C29.5645 15.7579 29.3277 15.7968 29.0962 15.8745C28.8656 15.9523 28.6332 16.0716 28.4 16.2324V19.801ZM27.1198 20.7835V11.4675H28.4V15.0847C28.6385 14.915 28.893 14.7904 29.166 14.71C29.439 14.6305 29.7421 14.5899 30.0769 14.5899C31.002 14.5899 31.7442 14.8912 32.3026 15.4937C32.8619 16.0963 33.141 16.8977 33.141 17.8961C33.141 18.9546 32.8274 19.7727 32.1992 20.3497C31.5719 20.9275 30.6848 21.2155 29.5398 21.2155C29.1545 21.2155 28.764 21.1802 28.3673 21.1095C27.9706 21.0379 27.5553 20.9293 27.1198 20.7835ZM37.4951 19.7824V17.9244C36.6416 18.1894 36.0523 18.435 35.7289 18.6586C35.4056 18.8839 35.2439 19.1445 35.2439 19.4423C35.2439 19.7029 35.3278 19.9044 35.4948 20.0466C35.6627 20.188 35.8977 20.2595 36.2007 20.2595C36.426 20.2595 36.646 20.2189 36.8616 20.1385C37.0772 20.0581 37.2884 19.9388 37.4951 19.7824ZM37.5428 20.5546C37.2221 20.7799 36.9182 20.9416 36.6319 21.0397C36.3456 21.1387 36.0373 21.1881 35.7077 21.1881C35.1396 21.1881 34.6952 21.0512 34.3745 20.7791C34.0537 20.506 33.8929 20.1314 33.8929 19.6543C33.8929 19.2055 34.067 18.8114 34.4151 18.4721C34.7632 18.1329 35.2872 17.8466 35.9878 17.6133L37.4951 17.108C37.4995 17.0717 37.5031 17.0355 37.5048 16.9984C37.5075 16.9622 37.5084 16.9092 37.5084 16.8411C37.5084 16.4621 37.4156 16.1891 37.2301 16.0221C37.0445 15.8551 36.7379 15.7721 36.3121 15.7721C35.9586 15.7721 35.5946 15.8463 35.2182 15.9947C34.8427 16.144 34.4664 16.3649 34.09 16.6582V15.408C34.4151 15.1421 34.78 14.9415 35.1829 14.8072C35.5858 14.6721 36.0143 14.604 36.4676 14.604C37.2831 14.604 37.8759 14.7834 38.247 15.143C38.6181 15.5026 38.8036 16.0822 38.8036 16.8835V19.5695C38.8036 19.7948 38.8231 19.9538 38.8619 20.0484C38.9008 20.142 38.9662 20.1889 39.0581 20.1889C39.1358 20.1889 39.2171 20.1685 39.3019 20.127C39.3868 20.0855 39.5255 19.9892 39.7181 19.8372V20.6103C39.4893 20.8073 39.2578 20.9531 39.0245 21.0468C38.7913 21.1404 38.5492 21.1881 38.2974 21.1881C38.0553 21.1881 37.8733 21.1378 37.7522 21.0362C37.6312 20.9354 37.5614 20.7746 37.5428 20.5546ZM40.4717 21.075V14.7313H41.7379V15.5026C42.0542 15.2013 42.3687 14.9813 42.6824 14.8417C42.996 14.7021 43.3344 14.6323 43.6958 14.6323C44.3832 14.6323 44.9248 14.8311 45.3215 15.2296C45.7182 15.6272 45.9161 16.1741 45.9161 16.8694V21.075H44.65V17.1928C44.65 16.6794 44.5413 16.3004 44.324 16.0548C44.1057 15.81 43.7682 15.6872 43.3106 15.6872C42.9854 15.6872 42.7 15.75 42.4553 15.8763C42.2105 16.0027 41.9711 16.2094 41.7379 16.4983V21.075H40.4717ZM53.1311 14.7313L50.4734 17.6284L53.6656 21.075H51.9347L48.8388 17.6973L51.5716 14.7313H53.1311ZM47.5312 21.075V11.4675H48.7973V21.075H47.5312ZM57.4012 19.7824V17.9244C56.5468 18.1894 55.9584 18.435 55.635 18.6586C55.3116 18.8839 55.1499 19.1445 55.1499 19.4423C55.1499 19.7029 55.2339 19.9044 55.4009 20.0466C55.5687 20.188 55.8038 20.2595 56.1068 20.2595C56.3312 20.2595 56.5521 20.2189 56.7677 20.1385C56.9833 20.0581 57.1944 19.9388 57.4012 19.7824ZM57.4489 20.5546C57.1282 20.7799 56.8242 20.9416 56.538 21.0397C56.2517 21.1387 55.9434 21.1881 55.6138 21.1881C55.0457 21.1881 54.6013 21.0512 54.2805 20.7791C53.9598 20.506 53.799 20.1314 53.799 19.6543C53.799 19.2055 53.9731 18.8114 54.3212 18.4721C54.6684 18.1329 55.1932 17.8466 55.893 17.6133L57.4012 17.108C57.4056 17.0717 57.4091 17.0355 57.4109 16.9984C57.4136 16.9622 57.4144 16.9092 57.4144 16.8411C57.4144 16.4621 57.3217 16.1891 57.1361 16.0221C56.9506 15.8551 56.644 15.7721 56.2181 15.7721C55.8647 15.7721 55.4998 15.8463 55.1243 15.9947C54.7479 16.144 54.3724 16.3649 53.996 16.6582V15.408C54.3212 15.1421 54.6852 14.9415 55.089 14.8072C55.4919 14.6721 55.9195 14.604 56.3736 14.604C57.1883 14.604 57.782 14.7834 58.1531 15.143C58.5242 15.5026 58.7088 16.0822 58.7088 16.8835V19.5695C58.7088 19.7948 58.7291 19.9538 58.768 20.0484C58.8069 20.142 58.8723 20.1889 58.9633 20.1889C59.0419 20.1889 59.1232 20.1685 59.208 20.127C59.2928 20.0855 59.4307 19.9892 59.6233 19.8372V20.6103C59.3953 20.8073 59.1638 20.9531 58.9306 21.0468C58.6973 21.1404 58.4552 21.1881 58.2034 21.1881C57.9613 21.1881 57.7793 21.1378 57.6583 21.0362C57.5364 20.9354 57.4675 20.7746 57.4489 20.5546ZM60.4193 21.075V11.4675H61.6855V21.075H60.4193ZM66.8639 20.8789C66.6668 20.9885 66.4557 21.0697 66.2295 21.1228C66.0033 21.1758 65.7594 21.2023 65.4988 21.2023C64.7858 21.2023 64.2839 21.0326 63.9941 20.6934C63.7034 20.3541 63.5585 19.7356 63.5585 18.837V15.8277H62.4753V15.7049L64.6948 13.254H64.8388V14.7313H66.8223V15.8277H64.8388V18.7416C64.8388 19.2682 64.9042 19.6084 65.0341 19.7621C65.1648 19.915 65.4087 19.9918 65.7656 19.9918C65.9574 19.9918 66.1447 19.9671 66.3284 19.9167C66.5113 19.8664 66.6898 19.7877 66.8639 19.6826V20.8789ZM67.8446 12.8599C67.8446 12.6576 67.9135 12.4871 68.0513 12.3492C68.1892 12.2114 68.3597 12.1425 68.562 12.1425C68.7643 12.1425 68.9349 12.2114 69.0727 12.3492C69.2105 12.4871 69.2794 12.6576 69.2794 12.8599C69.2794 13.0623 69.2105 13.2328 69.0727 13.3706C68.9349 13.5084 68.7643 13.5774 68.562 13.5774C68.3597 13.5774 68.1892 13.5084 68.0513 13.3706C67.9135 13.2328 67.8446 13.0623 67.8446 12.8599ZM67.9294 21.075V14.7313H69.1955V21.075H67.9294ZM70.8707 21.075V14.7313H72.1377V15.5026C72.4531 15.2013 72.7685 14.9813 73.0822 14.8417C73.3958 14.7021 73.7334 14.6323 74.0956 14.6323C74.563 14.6323 74.9526 14.718 75.2672 14.8894C75.5808 15.0608 75.845 15.3312 76.0606 15.7014C76.4493 15.3179 76.8142 15.0431 77.1553 14.8788C77.4955 14.7145 77.8586 14.6323 78.2429 14.6323C78.9338 14.6323 79.479 14.8311 79.8792 15.2296C80.2795 15.6272 80.48 16.1741 80.48 16.8694V21.075H79.1998V17.1928C79.1998 16.675 79.0929 16.2942 78.88 16.0513C78.667 15.8092 78.3339 15.6872 77.8807 15.6872C77.5467 15.6872 77.256 15.75 77.0086 15.8763C76.7612 16.0027 76.5209 16.2094 76.2877 16.4983V21.075H75.0498V17.1928C75.0498 16.6794 74.9411 16.3004 74.7229 16.0548C74.5056 15.81 74.1681 15.6872 73.7104 15.6872C73.3852 15.6872 73.0999 15.75 72.8551 15.8763C72.6104 16.0027 72.3709 16.2094 72.1377 16.4983V21.075H70.8707Z" fill="#2A82C5"/>
</g>
</g>
<defs>
<clipPath id="clip0_1801_2163">
<rect width="80" height="21.2155" fill="white" transform="translate(0.5)"/>
</clipPath>
<clipPath id="clip1_1801_2163">
<rect width="80" height="21.2155" fill="white" transform="translate(0.5)"/>
</clipPath>
</defs>
</svg>
