<svg width="80" height="36" viewBox="0 0 80 36" fill="none" xmlns="http://www.w3.org/2000/svg">
<g clip-path="url(#clip0_1801_3364)">
<g clip-path="url(#clip1_1801_3364)">
<path d="M80 0H0V28.6542H80V0Z" fill="#134939"/>
<path d="M5.19293 13.6345V23.4613L9.21116 21.7519V11.9251" fill="#C3D451"/>
<path d="M14.2744 5.50893V15.3358L18.2926 13.6345V3.79956" fill="#C3D451"/>
<path d="M9.72961 11.7064V21.5332L13.7559 15.5626V5.72766" fill="#C3D451"/>
<path d="M25.8107 10.9125C25.8107 12.0952 26.1995 13.1889 28.0952 14.7363L28.8729 15.3763C30.3798 16.6239 30.801 17.2639 30.801 18.3656C30.801 19.4674 29.999 20.5206 28.4679 20.5206C27.836 20.5206 26.3534 20.3666 26.0537 18.876C26.0132 18.6411 26.0132 18.4142 26.0132 18.2603C26.0132 18.1712 26.0132 17.9444 25.762 17.9444C25.5271 17.9444 25.5109 18.2036 25.5028 18.3413L25.4866 18.5439C25.4623 18.9003 25.4137 19.4755 25.4137 20.1641C25.4137 20.634 25.4218 20.7798 25.7377 20.9337C26.4021 21.2497 27.1798 21.4117 28.1033 21.4117C29.1484 21.4117 30.0719 21.1525 30.7686 20.6664C31.8866 19.8725 32.2836 18.6249 32.2836 17.7094C32.2836 16.3646 31.8704 15.2547 29.7317 13.5697L29.2537 13.1889C27.6091 11.8441 27.2041 11.2932 27.2041 10.4102C27.2041 9.29221 28.0061 8.53879 29.1889 8.53879C30.6147 8.53879 31.0927 9.13018 31.2304 9.38132C31.3195 9.55145 31.4248 9.99702 31.441 10.1914C31.4491 10.3211 31.4734 10.5317 31.7084 10.5317C31.9514 10.5317 31.9514 10.1914 31.9514 10.0051C31.9514 9.08967 31.9919 8.53879 32.0081 8.31195V8.17423C32.0162 8.01221 31.919 7.93119 31.7246 7.93119C31.6112 7.93119 31.4815 7.93119 31.1575 7.85018C30.6552 7.73676 30.1448 7.68005 29.5291 7.68005C27.3256 7.68005 25.8431 8.96816 25.8431 10.8963" fill="white"/>
<path d="M46.7848 8.04458C46.7848 8.04458 42.24 18.5276 42.2157 18.5762C42.1914 18.5438 37.4602 8.02838 37.4602 8.02838C37.3954 7.87446 37.3063 7.69623 37.1119 7.69623C36.885 7.69623 36.8283 7.97977 36.804 8.10939L35.6536 19.3864C35.5969 19.9858 35.5483 20.5529 35.1352 20.642C34.9083 20.6907 34.8354 20.6907 34.6815 20.6907C34.5276 20.6907 34.3979 20.7798 34.3979 20.8932C34.3979 20.9985 34.4466 21.1686 34.7868 21.1686C35.0704 21.1686 35.5726 21.1443 35.7752 21.1362C35.9858 21.1281 36.0425 21.1281 36.0425 21.1281H36.4395C36.6339 21.1281 37.201 21.1605 37.6142 21.1686C37.7519 21.1686 38.0192 21.1686 38.0192 20.8932C38.0192 20.7717 37.9058 20.6826 37.76 20.6826C37.598 20.6826 37.4521 20.6745 37.1929 20.6096C37.0066 20.5691 36.8688 20.399 36.8688 20.1965C36.8688 19.9048 36.8688 19.597 36.885 19.3296C36.885 19.3296 37.4683 11.7469 37.4845 11.7469C37.444 11.7469 41.3488 20.3504 41.3488 20.3504C41.6729 21.0066 41.7377 21.1443 41.924 21.1443C42.1347 21.1443 42.1914 21.0066 42.4506 20.4152C42.4587 20.4152 46.3068 11.5848 46.3068 11.5848L47.044 20.0588C47.044 20.1641 47.044 20.2451 47.0602 20.3261C47.0602 20.4638 47.0602 20.6258 47.0359 20.6339C46.8982 20.6907 46.8739 20.7798 46.8739 20.8608C46.8739 21.0795 47.1169 21.1281 47.4248 21.1524C48.0405 21.1848 49.758 21.1767 50.0982 21.1767C50.5195 21.1767 50.5519 20.9661 50.5519 20.9013C50.5519 20.8365 50.5276 20.6988 50.3007 20.6988C50.1468 20.6988 49.7498 20.6988 49.3043 20.5529C48.6886 20.3342 48.5833 19.3945 48.5266 18.8355L47.4572 8.28762C47.441 8.04458 47.4086 7.71243 47.1412 7.71243C46.9387 7.71243 46.8415 7.93116 46.7929 8.06078" fill="white"/>
<path d="M55.0076 8.81424C55.0076 8.81424 55.0076 8.77373 55.1129 8.74943C55.3478 8.69272 55.6962 8.66841 55.9068 8.66841C57.519 8.66841 58.0942 10.1266 58.0942 11.4958C58.0942 12.1196 57.8835 12.719 57.5109 13.1484C57.1868 13.5211 56.9924 13.5535 56.0445 13.5535C55.4532 13.5535 55.1534 13.5049 55.0319 13.4887C55.0238 13.4887 54.9995 13.4644 54.9995 13.4239C54.9995 13.3833 54.9995 8.82234 54.9995 8.82234M54.8537 7.9717L54.2137 7.98791H53.9949C53.6223 7.9636 52.8607 7.9393 52.2775 7.9393C52.1802 7.9393 51.8805 7.9393 51.8805 8.19854C51.8805 8.33626 51.9858 8.44158 52.1397 8.44158C52.2937 8.44158 52.5691 8.44158 52.6906 8.48208C53.1686 8.5874 53.2982 8.76563 53.3306 9.34082C53.3711 9.8836 53.3711 10.3697 53.3711 13.0431V16.0649C53.3711 17.677 53.3711 19.0623 53.2901 19.7833C53.2091 20.2937 53.1362 20.5692 52.8932 20.6178C52.7068 20.6664 52.5286 20.6826 52.4071 20.6826C52.2207 20.6826 52.1397 20.796 52.1397 20.9094C52.1397 21.1768 52.4476 21.1768 52.5448 21.1768C52.9094 21.1768 53.444 21.1444 53.8248 21.1201H54.2218L54.878 21.1444C55.4531 21.1768 56.2471 21.2173 56.5063 21.2173C59.4633 21.2173 61.0106 19.273 61.0106 17.353C61.0106 15.2628 59.3337 14.0396 58.1428 13.6669C59.0177 13.0836 59.6577 12.0061 59.6577 10.6289C59.6577 9.62436 58.9043 7.9231 56.0931 7.9231C55.6314 7.9231 55.202 7.9393 54.8618 7.9555M55.5342 20.1722C55.0805 19.9454 55.0805 19.7914 55.0238 19.0056V18.9327C55.0076 18.6816 55.0076 16.5185 55.0076 15.2304V14.2583C55.7286 14.2583 56.158 14.2664 56.2957 14.2907H56.3038C56.7088 14.3393 57.1139 14.3879 57.6729 14.7687C59.123 15.7732 59.2769 17.4259 59.2769 18.0983C59.2769 20.3423 57.2192 20.4152 56.9843 20.4152C56.8304 20.4152 56.0121 20.399 55.5261 20.1722" fill="white"/>
<path d="M65.2233 9.68106C63.9271 11.1636 63.5058 13.1403 63.5463 14.5013C63.603 16.6724 64.3078 18.3899 65.6446 19.6132C67.0056 20.8689 68.723 21.4117 71.04 21.355C71.996 21.3307 73.2597 21.1849 73.9403 20.8689C74.2562 20.7069 74.3129 20.6421 74.4101 20.2856C74.5559 19.678 74.7018 18.1712 74.6937 18.0497C74.6856 17.7013 74.5235 17.6689 74.4425 17.6689C74.2319 17.6689 74.2076 17.8957 74.1752 18.0416C74.1023 18.3737 73.9565 19.0785 73.6567 19.435C73.0653 20.1317 72.1742 20.2937 71.0076 20.3261C69.436 20.3666 67.9858 19.7428 66.9003 18.5681C65.8795 17.4502 65.2638 15.9028 65.2233 14.315C65.1828 12.8568 65.3043 11.1798 66.5033 9.87549C67.2567 9.03296 68.4152 8.60359 70.0435 8.56308C71.4694 8.52258 72.6684 8.98435 73.1706 9.42182C73.5595 9.75397 73.7782 10.3454 73.8511 11.0664C73.8673 11.2689 73.8673 11.5443 74.1104 11.5443C74.3534 11.5443 74.3615 11.2527 74.3615 11.0583V10.4507C74.3615 10.078 74.3615 9.61625 74.3615 9.2841C74.3696 8.90334 74.3939 8.6846 74.402 8.53878L74.4182 8.31194C74.4182 8.12561 74.3129 8.0284 74.0861 8.0122C73.6081 7.99599 73.1058 7.90688 72.5387 7.80967L72.4739 7.79346C71.518 7.63144 70.5215 7.63954 70.1327 7.64764C67.9696 7.71245 66.3737 8.36055 65.2314 9.66486" fill="white"/>
<path d="M32.7129 31.3925C32.7129 31.3925 32.7129 31.3763 32.7453 31.3682C32.8182 31.352 32.9316 31.3438 33.0045 31.3438C33.523 31.3438 33.7094 31.8137 33.7094 32.2593C33.7094 32.4618 33.6364 32.6563 33.523 32.794C33.4177 32.9155 33.3529 32.9236 33.0451 32.9236C32.8506 32.9236 32.7534 32.9074 32.721 32.8993C32.721 32.8993 32.7129 32.8993 32.7129 32.875C32.7129 32.8588 32.7129 31.3844 32.7129 31.3844M32.6643 31.1089H32.4537H32.3807C32.2592 31.1089 32.0162 31.0927 31.8218 31.0927C31.7894 31.0927 31.6921 31.0927 31.6921 31.1737C31.6921 31.2223 31.7245 31.2547 31.7732 31.2547C31.8218 31.2547 31.9109 31.2547 31.9514 31.2709C32.1053 31.3033 32.1458 31.3601 32.162 31.5464C32.1782 31.7246 32.1782 31.8785 32.1782 32.7454V33.7256C32.1782 34.2441 32.1782 34.6978 32.1539 34.9246C32.1296 35.0866 32.1053 35.1757 32.0243 35.192C31.9595 35.2082 31.9028 35.2163 31.8623 35.2163C31.8056 35.2163 31.7732 35.2568 31.7732 35.2892C31.7732 35.3783 31.8704 35.3783 31.9028 35.3783C32.0243 35.3783 32.1944 35.3702 32.3159 35.3621H32.4456L32.6562 35.3702C32.8425 35.3783 33.1018 35.3945 33.1828 35.3945C34.1387 35.3945 34.641 34.7626 34.641 34.1469C34.641 33.4664 34.0982 33.0775 33.7175 32.956C34.001 32.7697 34.2035 32.4213 34.2035 31.9758C34.2035 31.6517 33.9605 31.1008 33.0532 31.1008C32.9073 31.1008 32.7696 31.1008 32.6562 31.1089M32.8749 35.0542C32.7291 34.9813 32.7291 34.9327 32.7129 34.6735V34.6492C32.7129 34.5682 32.7129 33.8714 32.7129 33.4502V33.1342C32.9478 33.1342 33.0856 33.1342 33.1342 33.1423C33.2638 33.1585 33.3934 33.1747 33.5797 33.2963C34.0496 33.6203 34.0982 34.155 34.0982 34.3737C34.0982 35.1028 33.4339 35.119 33.361 35.119C33.3124 35.119 33.045 35.119 32.8911 35.038" fill="#134939"/>
<path d="M63.595 31.117C63.441 31.117 63.3114 31.117 63.2223 31.1332C63.1818 31.1332 63.1413 31.1332 63.1251 31.1332C63.1089 31.1332 63.0603 31.1332 63.0036 31.1332C62.8902 31.1332 62.7119 31.117 62.5418 31.117C62.4932 31.117 62.3879 31.117 62.3879 31.1981C62.3879 31.2467 62.4203 31.2791 62.4689 31.2791C62.5013 31.2791 62.6309 31.2791 62.7281 31.3034C62.8659 31.3358 62.9064 31.4168 62.9145 31.7894L62.9712 34.5034C62.874 34.3981 62.7281 34.2441 62.558 34.0578C62.3069 33.7824 61.999 33.4421 61.7074 33.1343C60.8486 32.2107 60.0223 31.3196 59.9413 31.2305C59.9251 31.2143 59.9089 31.1981 59.8927 31.1819C59.8198 31.0927 59.7631 31.0441 59.7145 31.0441C59.6172 31.0441 59.6091 31.1737 59.6091 31.3601V34.5439C59.6091 35.0462 59.5767 35.1758 59.4633 35.2082C59.3985 35.2325 59.3013 35.2406 59.2527 35.2406C59.196 35.2406 59.1636 35.2811 59.1636 35.3135C59.1636 35.4026 59.2527 35.4026 59.2932 35.4026C59.4633 35.4026 59.6335 35.3945 59.7307 35.3864C59.7793 35.3864 59.8036 35.3864 59.8198 35.3864C59.836 35.3864 59.8603 35.3864 59.9008 35.3864C60.0061 35.3864 60.1843 35.4026 60.4112 35.4026C60.4517 35.4026 60.5489 35.4026 60.5489 35.3135C60.5489 35.2811 60.5246 35.2406 60.4679 35.2406C60.4517 35.2406 60.3221 35.2406 60.2005 35.2082C60.0871 35.1758 60.0223 35.0705 60.0142 34.6006L59.9413 32.0487C60.1843 32.3241 60.7433 32.9398 61.3185 33.5636C61.918 34.2036 62.7119 35.0219 62.7686 35.0705C63.0765 35.3864 63.1413 35.435 63.2061 35.435C63.2952 35.435 63.2952 35.3621 63.2952 34.9975V31.7408C63.3033 31.3925 63.3357 31.3196 63.4816 31.2872C63.5464 31.271 63.5788 31.271 63.6031 31.271C63.676 31.271 63.7084 31.2305 63.7084 31.19C63.7084 31.1089 63.6112 31.1089 63.5707 31.1089" fill="#134939"/>
<path d="M48.5752 31.117C48.4213 31.117 48.2917 31.117 48.2025 31.1332C48.1539 31.1332 48.1215 31.1332 48.1053 31.1332C48.0891 31.1332 48.0405 31.1332 47.9838 31.1332C47.8704 31.1332 47.6922 31.117 47.522 31.117C47.4734 31.117 47.3681 31.117 47.3681 31.1981C47.3681 31.2467 47.4005 31.2791 47.4572 31.2791C47.4896 31.2791 47.6193 31.2791 47.7165 31.3034C47.8461 31.3358 47.8947 31.4168 47.9028 31.7894L47.9595 34.5034C47.8623 34.3981 47.7165 34.2441 47.5463 34.0578C47.2952 33.7824 46.9874 33.4421 46.6957 33.1343C45.837 32.2107 45.0106 31.3196 44.9296 31.2305C44.9134 31.2143 44.8972 31.1981 44.881 31.1819C44.8 31.0927 44.7514 31.0441 44.7028 31.0441C44.6056 31.0441 44.5975 31.1737 44.5975 31.3601V34.5439C44.5975 35.0462 44.5651 35.1758 44.4517 35.2082C44.3869 35.2325 44.2896 35.2406 44.241 35.2406C44.1843 35.2406 44.1519 35.2811 44.1519 35.3135C44.1519 35.4026 44.241 35.4026 44.2815 35.4026C44.4517 35.4026 44.6218 35.3945 44.719 35.3864C44.7676 35.3864 44.7919 35.3864 44.8081 35.3864C44.8243 35.3864 44.8486 35.3864 44.8891 35.3864C44.9944 35.3864 45.1727 35.4026 45.3995 35.4026C45.44 35.4026 45.5372 35.4026 45.5372 35.3135C45.5372 35.2811 45.5129 35.2406 45.4562 35.2406C45.44 35.2406 45.3104 35.2406 45.1889 35.2082C45.0755 35.1758 45.0107 35.0705 45.0025 34.6006L44.9296 32.0487C45.1727 32.3241 45.7317 32.9398 46.3069 33.5636C46.9063 34.2036 47.7003 35.0219 47.757 35.0705C48.0648 35.3864 48.1296 35.435 48.1944 35.435C48.2836 35.435 48.2836 35.3621 48.2836 34.9975V31.7408C48.2917 31.3925 48.3241 31.3196 48.4699 31.2872C48.5347 31.271 48.5671 31.271 48.5914 31.271C48.6643 31.271 48.6967 31.2305 48.6967 31.19C48.6967 31.1089 48.5995 31.1089 48.559 31.1089" fill="#134939"/>
<path d="M43.4714 35.2405C43.4228 35.2405 43.3094 35.2324 43.2284 35.2162C43.0987 35.2 43.0663 35.1109 43.0501 34.9489C43.0258 34.7139 43.0258 34.2684 43.0258 33.7499V32.7696C43.0258 31.9028 43.0258 31.7489 43.0339 31.5707C43.042 31.3762 43.0825 31.3114 43.2121 31.2871C43.277 31.279 43.3013 31.2709 43.3418 31.2709C43.3904 31.2709 43.4228 31.2385 43.4228 31.198C43.4228 31.1089 43.3256 31.1089 43.2932 31.1089C43.1716 31.1089 42.9691 31.117 42.8395 31.1251C42.7909 31.1251 42.7585 31.1251 42.7504 31.1251C42.7423 31.1251 42.7099 31.1251 42.6613 31.1251C42.5397 31.1251 42.321 31.1089 42.1914 31.1089C42.159 31.1089 42.0618 31.1089 42.0618 31.198C42.0618 31.2385 42.1023 31.2709 42.1428 31.2709C42.1752 31.2709 42.24 31.2709 42.3048 31.2952C42.3777 31.3114 42.4506 31.36 42.4587 31.5707C42.4668 31.7489 42.4668 31.9028 42.4668 32.7696V33.7499C42.4668 34.2684 42.4668 34.722 42.4425 34.9489C42.4182 35.119 42.3939 35.2081 42.3129 35.2243C42.2562 35.2405 42.1914 35.2486 42.159 35.2486C42.1023 35.2486 42.0699 35.2891 42.0699 35.3215C42.0699 35.4026 42.1671 35.4026 42.1995 35.4026C42.321 35.4026 42.5235 35.4026 42.6532 35.3864C42.7018 35.3864 42.7342 35.3864 42.7423 35.3864C42.7423 35.3864 42.7747 35.3864 42.8071 35.3864C42.9286 35.3864 43.1878 35.4026 43.4228 35.4026C43.5362 35.4026 43.5524 35.3458 43.5524 35.3215C43.5524 35.2891 43.5281 35.2486 43.4714 35.2486" fill="#134939"/>
<path d="M76.7433 35.2568C76.6866 35.2568 76.6137 35.2568 76.5327 35.2244C76.4111 35.192 76.2653 35.0948 76.079 34.633C75.8359 34.0335 75.3337 32.7049 75.0258 31.911C74.9043 31.5869 74.8071 31.352 74.7909 31.2872C74.7261 31.117 74.6937 31.0684 74.637 31.0684C74.5802 31.0684 74.5559 31.117 74.483 31.3034L73.2273 34.7464C73.122 35.038 73.0167 35.2163 72.7899 35.2487C72.7413 35.2487 72.6684 35.2649 72.6359 35.2649C72.5873 35.2649 72.5549 35.2892 72.5549 35.3297C72.5549 35.4107 72.6522 35.4107 72.6927 35.4107C72.8709 35.4107 73.0653 35.4026 73.1949 35.3945C73.2516 35.3945 73.3003 35.3945 73.3246 35.3945C73.3489 35.3945 73.4056 35.3945 73.4623 35.3945C73.5595 35.3945 73.6729 35.4026 73.7539 35.4026C73.8511 35.4026 73.8754 35.3621 73.8754 35.3216C73.8754 35.3054 73.8673 35.2568 73.7863 35.2568H73.7296C73.6648 35.2568 73.5514 35.2244 73.5514 35.1272C73.5514 35.0299 73.5838 34.9003 73.6243 34.7626L73.9322 33.831C73.9322 33.831 73.9484 33.8066 73.9565 33.8066H75.1959C75.1959 33.8066 75.204 33.8067 75.2121 33.8148L75.7063 35.1353C75.7225 35.1839 75.7144 35.2082 75.7063 35.2244C75.7063 35.2406 75.6901 35.2406 75.6901 35.2406C75.6334 35.2568 75.6253 35.2973 75.6253 35.3135C75.6253 35.3783 75.6982 35.3783 75.7954 35.3864H75.8197C76.0709 35.3945 76.3787 35.4026 76.6947 35.4026C76.8162 35.4026 76.8405 35.3621 76.8405 35.3216C76.8405 35.2811 76.8081 35.2568 76.7514 35.2568M74.0294 33.5393L74.5397 32.0082C74.5397 32.0082 74.5397 31.992 74.5478 31.9839C74.5478 31.9839 74.5478 32.0001 74.5559 32.0082L75.0987 33.5393H74.0213H74.0294Z" fill="#134939"/>
<path d="M4.17213 31.3925C4.17213 31.3925 4.17213 31.3763 4.20453 31.3682C4.27744 31.352 4.39086 31.3438 4.46377 31.3438C4.98225 31.3438 5.16858 31.8137 5.16858 32.2593C5.16858 32.4618 5.10377 32.6563 4.98225 32.794C4.87694 32.9155 4.81213 32.9236 4.50428 32.9236C4.30985 32.9236 4.21263 32.9074 4.18023 32.8993C4.18023 32.8993 4.17213 32.8993 4.17213 32.875C4.17213 32.8588 4.17213 31.3844 4.17213 31.3844M4.12352 31.1089H3.91289H3.83997C3.71846 31.1089 3.47542 31.0927 3.28099 31.0927C3.24858 31.0927 3.15137 31.0927 3.15137 31.1737C3.15137 31.2223 3.18377 31.2547 3.23238 31.2547C3.28099 31.2547 3.3701 31.2547 3.41061 31.2709C3.56453 31.3033 3.60504 31.3601 3.62124 31.5464C3.63744 31.7246 3.63744 31.8785 3.63744 32.7454V33.7256C3.63744 34.2441 3.63744 34.6978 3.61314 34.9246C3.58884 35.0866 3.56453 35.1757 3.48352 35.192C3.41871 35.2082 3.362 35.2163 3.32149 35.2163C3.26478 35.2163 3.23238 35.2568 3.23238 35.2892C3.23238 35.3783 3.3296 35.3783 3.362 35.3783C3.48352 35.3783 3.65365 35.3702 3.77516 35.3621H3.90478L4.11542 35.3702C4.30175 35.3783 4.56099 35.3945 4.642 35.3945C5.59795 35.3945 6.10023 34.7626 6.10023 34.1469C6.10023 33.4664 5.55744 33.0775 5.17668 32.956C5.46023 32.7697 5.66276 32.4213 5.66276 31.9758C5.66276 31.6517 5.41972 31.1008 4.51238 31.1008C4.36656 31.1008 4.22884 31.1008 4.11542 31.1089M4.33415 35.0542C4.18833 34.9813 4.18833 34.9327 4.17213 34.6735V34.6492C4.17213 34.5682 4.17213 33.8714 4.17213 33.4502V33.1342C4.40706 33.1342 4.54478 33.1342 4.59339 33.1423C4.72301 33.1585 4.85263 33.1747 5.03896 33.2963C5.50884 33.6203 5.55744 34.155 5.55744 34.3737C5.55744 35.1028 4.89314 35.119 4.82023 35.119C4.77162 35.119 4.50428 35.119 4.35035 35.038" fill="#134939"/>
<path d="M20.0345 35.2082C19.9939 35.2082 19.84 35.192 19.7104 35.1353C19.4512 35.0299 19.362 34.9408 18.9084 34.5196H18.8922C18.6815 34.3089 17.6203 33.2153 17.3934 32.9722C17.5798 32.7697 18.4547 31.911 18.5843 31.7813C18.6167 31.7489 18.6572 31.7165 18.6815 31.6841C18.8679 31.5059 18.9813 31.3925 19.1676 31.3115C19.2648 31.2629 19.3783 31.2385 19.4593 31.2385C19.5241 31.2385 19.5565 31.2142 19.5565 31.1575C19.5565 31.0765 19.4674 31.0765 19.435 31.0765C19.3377 31.0765 19.1271 31.0765 19.0056 31.0927C18.9489 31.0927 18.9084 31.0927 18.9003 31.0927C18.8355 31.0927 18.7545 31.0927 18.6734 31.0846C18.6005 31.0846 18.5357 31.0846 18.479 31.0846C18.3818 31.0846 18.3737 31.1494 18.3737 31.1656C18.3737 31.2142 18.4223 31.2385 18.4466 31.2466C18.4709 31.2548 18.4952 31.271 18.4952 31.3277C18.4952 31.4006 18.3575 31.5383 18.2279 31.676L18.2036 31.7003C18.0983 31.8137 17.758 32.1621 17.4583 32.4699C17.2395 32.6968 17.0451 32.8912 16.956 32.9884V32.7373C16.956 31.8704 16.956 31.7165 16.9641 31.5383C16.9722 31.3439 17.0127 31.2791 17.1423 31.2548C17.2071 31.2467 17.2395 31.2385 17.2719 31.2385C17.3205 31.2385 17.361 31.2061 17.361 31.1656C17.361 31.0765 17.2638 31.0765 17.2314 31.0765C17.1261 31.0765 16.956 31.0765 16.8264 31.0846C16.7615 31.0846 16.7129 31.0846 16.6886 31.0846C16.6805 31.0846 16.6481 31.0846 16.6076 31.0846C16.4861 31.0846 16.2593 31.0684 16.081 31.0684C16.0486 31.0684 15.9514 31.0684 15.9514 31.1575C15.9514 31.198 15.9919 31.2304 16.0324 31.2304C16.0729 31.2304 16.1701 31.2304 16.2107 31.2466C16.3646 31.2791 16.4051 31.3358 16.4132 31.5302C16.4213 31.7084 16.4213 31.8623 16.4213 32.7292V33.7094C16.4213 34.2279 16.4213 34.6816 16.397 34.9084C16.3727 35.0785 16.3484 35.1677 16.2674 35.1839C16.2107 35.2001 16.1458 35.2082 16.1134 35.2082C16.0567 35.2082 16.0243 35.2487 16.0243 35.2811C16.0243 35.3702 16.1215 35.3702 16.1539 35.3702C16.2674 35.3702 16.4456 35.3702 16.5671 35.354C16.6319 35.354 16.6724 35.354 16.6886 35.354C16.7048 35.354 16.7372 35.354 16.7858 35.354C16.9155 35.354 17.1342 35.3702 17.3286 35.3702C17.442 35.3702 17.4583 35.3135 17.4583 35.2811C17.4583 35.2406 17.4339 35.2082 17.3772 35.2082C17.3367 35.2082 17.2638 35.2082 17.1666 35.1839C17.037 35.1677 17.0046 35.0785 16.9884 34.9165C16.9641 34.6897 16.9641 34.236 16.9641 33.7175V33.2558C17.2962 33.6527 18.3818 34.8112 18.6167 35.0137L18.6572 35.0461C18.876 35.2244 19.0218 35.3378 19.3134 35.3621C19.435 35.3702 19.5403 35.3702 19.7023 35.3702H19.9858C20.0345 35.3702 20.1479 35.3702 20.1479 35.2811C20.1479 35.2487 20.1155 35.2082 20.0345 35.2082Z" fill="#134939"/>
<path d="M15.1008 31.117C14.9468 31.117 14.8172 31.117 14.7281 31.1332C14.6876 31.1332 14.6471 31.1332 14.6309 31.1332C14.6147 31.1332 14.5661 31.1332 14.5094 31.1332C14.396 31.1332 14.2177 31.117 14.0476 31.117C13.9909 31.117 13.8937 31.117 13.8937 31.1981C13.8937 31.2467 13.9261 31.2791 13.9747 31.2791C14.0071 31.2791 14.1367 31.2791 14.2339 31.3034C14.3635 31.3358 14.4122 31.4168 14.4203 31.7894L14.477 34.5034C14.3798 34.3981 14.2339 34.2441 14.0638 34.0578C13.8127 33.7824 13.5048 33.4421 13.2132 33.1343C12.3544 32.2107 11.5281 31.3196 11.4471 31.2305C11.4309 31.2143 11.4147 31.1981 11.3985 31.1819C11.3256 31.0927 11.2689 31.0441 11.2203 31.0441C11.123 31.0441 11.1149 31.1737 11.1149 31.3601V34.5439C11.1149 35.0462 11.0825 35.1758 10.9691 35.2082C10.8962 35.2325 10.8071 35.2406 10.7585 35.2406C10.7018 35.2406 10.6694 35.2811 10.6694 35.3135C10.6694 35.4026 10.7585 35.4026 10.799 35.4026C10.9691 35.4026 11.1392 35.3945 11.2365 35.3864C11.2851 35.3864 11.3094 35.3864 11.3256 35.3864C11.3418 35.3864 11.3661 35.3864 11.4066 35.3864C11.5119 35.3864 11.6901 35.4026 11.917 35.4026C11.9575 35.4026 12.0547 35.4026 12.0547 35.3135C12.0547 35.2811 12.0304 35.2406 11.9737 35.2406C11.9575 35.2406 11.8279 35.2406 11.7063 35.2082C11.5929 35.1758 11.5281 35.0705 11.52 34.6006L11.4471 32.0487C11.6901 32.3241 12.2491 32.9398 12.8243 33.5636C13.4238 34.2036 14.2177 35.0219 14.2744 35.0705C14.5823 35.3864 14.6471 35.435 14.7119 35.435C14.801 35.435 14.801 35.3621 14.801 34.9975V31.7408C14.8091 31.3925 14.8415 31.3196 14.9873 31.2872C15.0522 31.271 15.0846 31.271 15.1089 31.271C15.1818 31.271 15.2142 31.2305 15.2142 31.19C15.2142 31.1089 15.117 31.1089 15.0765 31.1089" fill="#134939"/>
<path d="M10.3939 35.2568C10.3372 35.2568 10.2643 35.2568 10.1833 35.2244C10.0618 35.192 9.91595 35.0948 9.72962 34.633C9.48658 34.0335 8.9843 32.7049 8.67645 31.911C8.55493 31.5869 8.45772 31.352 8.44152 31.2872C8.37671 31.117 8.3443 31.0684 8.28759 31.0684C8.23088 31.0684 8.20658 31.117 8.13367 31.3034L6.87797 34.7464C6.77265 35.038 6.66734 35.2163 6.4405 35.2487C6.3919 35.2487 6.31898 35.2649 6.28658 35.2649C6.23797 35.2649 6.20557 35.2892 6.20557 35.3297C6.20557 35.4107 6.30278 35.4107 6.34329 35.4107C6.52152 35.4107 6.71595 35.4026 6.84557 35.3945C6.91038 35.3945 6.95088 35.3945 6.97519 35.3945C6.99949 35.3945 7.0481 35.3945 7.11291 35.3945C7.21012 35.3945 7.32354 35.4026 7.40455 35.4026C7.50177 35.4026 7.52607 35.3621 7.52607 35.3216C7.52607 35.3054 7.51797 35.2568 7.43696 35.2568H7.38025C7.31544 35.2568 7.20202 35.2244 7.20202 35.1272C7.20202 35.0299 7.22633 34.9003 7.27493 34.7626L7.58278 33.831C7.58278 33.831 7.59898 33.8066 7.60709 33.8066H8.84658C8.84658 33.8066 8.85468 33.8067 8.86278 33.8148L9.35696 35.1353C9.37316 35.1839 9.36506 35.2082 9.35696 35.2244C9.35696 35.2406 9.34076 35.2406 9.34076 35.2406C9.28405 35.2568 9.27595 35.2973 9.27595 35.3135C9.27595 35.3783 9.34886 35.3783 9.44607 35.3864H9.47038C9.72152 35.3945 10.0294 35.4026 10.3453 35.4026C10.4668 35.4026 10.4911 35.3621 10.4911 35.3216C10.4911 35.2811 10.4587 35.2568 10.402 35.2568M7.68 33.5393L8.19038 32.0082C8.19038 32.0082 8.19038 31.992 8.19848 31.9839C8.19848 31.9839 8.19848 32.0001 8.20658 32.0082L8.74936 33.5393H7.6719H7.68Z" fill="#134939"/>
<path d="M66.8192 34.5682C66.7544 34.5682 66.7463 34.633 66.7382 34.6816C66.7058 34.9003 66.641 34.9975 66.5114 35.0542C66.3736 35.111 66.1306 35.111 65.9929 35.111C65.4501 35.111 65.4015 35.038 65.3853 34.6897C65.3853 34.6087 65.3853 34.2522 65.3853 33.9849C65.3853 33.8796 65.3853 33.7904 65.3853 33.7418V33.2477C65.4825 33.2477 66.0253 33.2558 66.1792 33.272C66.3655 33.2882 66.4142 33.3611 66.4385 33.4421C66.4628 33.5069 66.4628 33.5636 66.4628 33.6122C66.4628 33.6608 66.4871 33.6932 66.5357 33.6932C66.6086 33.6932 66.6086 33.6041 66.6086 33.5555C66.6086 33.5231 66.6167 33.3206 66.6329 33.2072C66.641 33.0937 66.6572 33.0208 66.6653 32.9641C66.6653 32.9317 66.6734 32.9074 66.6734 32.8912C66.6734 32.8183 66.6248 32.8102 66.6086 32.8102C66.5762 32.8102 66.5519 32.8426 66.5114 32.8831H66.5033C66.4628 32.9398 66.398 32.9479 66.2683 32.9641C66.1711 32.9722 65.758 32.9722 65.3934 32.9803C65.3934 32.9803 65.3934 32.9803 65.3934 32.956V31.4249C65.3934 31.4249 65.3934 31.4087 65.3934 31.4006C65.4663 31.4006 66.0577 31.4087 66.1468 31.4168C66.4466 31.4411 66.479 31.514 66.5114 31.5869C66.5357 31.6436 66.5438 31.7327 66.5438 31.7732C66.5438 31.8623 66.5924 31.8785 66.6248 31.8785C66.6653 31.8785 66.6815 31.8461 66.6977 31.7894C66.6977 31.7408 66.7139 31.6274 66.7139 31.5302C66.7139 31.4816 66.7139 31.433 66.722 31.4168C66.7301 31.3277 66.7463 31.271 66.7544 31.2223C66.7544 31.1899 66.7706 31.1656 66.7706 31.1494C66.7706 31.0765 66.7301 31.0684 66.7139 31.0684C66.6896 31.0684 66.6734 31.0765 66.6572 31.0846C66.6491 31.0846 66.641 31.0927 66.6248 31.1008C66.5762 31.117 66.4385 31.1251 66.398 31.1251C66.2764 31.1251 65.3205 31.1251 65.0288 31.1251C64.8587 31.1251 64.6319 31.1089 64.5023 31.1089C64.4699 31.1089 64.3807 31.1089 64.3807 31.1899C64.3807 31.2304 64.4131 31.2548 64.4617 31.2548C64.5104 31.2548 64.5995 31.2547 64.64 31.271C64.7939 31.3034 64.8425 31.3682 64.8506 31.5545C64.8587 31.7327 64.8587 31.8866 64.8587 32.7535V33.7256C64.8587 34.2441 64.8587 34.6978 64.8344 34.9246C64.8101 35.0948 64.7858 35.1839 64.6967 35.2001C64.6319 35.2163 64.5752 35.2244 64.5347 35.2244C64.478 35.2244 64.4536 35.2568 64.4536 35.2892C64.4536 35.3702 64.5428 35.3702 64.5752 35.3702C64.6157 35.3702 64.6643 35.3702 64.7129 35.3702C64.7696 35.3702 64.8344 35.3702 64.8911 35.3702C65.0045 35.3702 65.1018 35.3702 65.1099 35.3702C65.1909 35.3702 65.3043 35.3702 65.5392 35.3864H65.6607C65.8633 35.3864 66.1387 35.4026 66.479 35.4026C66.6896 35.4026 66.7625 35.4026 66.8111 35.2325C66.8354 35.1191 66.884 34.7383 66.884 34.6897C66.884 34.6492 66.884 34.5682 66.8192 34.5682Z" fill="#134939"/>
<path d="M30.0638 31.1413C30.0638 31.1413 28.5975 34.5276 28.5894 34.5438C28.5813 34.5357 27.0501 31.1332 27.0501 31.1332C27.0258 31.0846 27.0015 31.0279 26.9367 31.0279C26.8638 31.0279 26.8476 31.117 26.8395 31.1575L26.4668 34.8031C26.4506 34.9975 26.4344 35.1838 26.2967 35.2081C26.2238 35.2243 26.1995 35.2243 26.1509 35.2243C26.1023 35.2243 26.0618 35.2567 26.0618 35.2891C26.0618 35.3215 26.078 35.3783 26.1914 35.3783C26.2805 35.3783 26.4425 35.3783 26.5073 35.3702C26.5803 35.3702 26.5965 35.3702 26.5965 35.3702H26.7261C26.7909 35.3702 26.9691 35.3783 27.1068 35.3864C27.1473 35.3864 27.2365 35.3864 27.2365 35.2972C27.2365 35.2567 27.1959 35.2324 27.1554 35.2324C27.1068 35.2324 27.0582 35.2324 26.9691 35.2081C26.9043 35.1919 26.8638 35.1433 26.8638 35.0704C26.8638 34.9732 26.8638 34.876 26.8638 34.7869C26.8638 34.7869 27.0501 32.3322 27.0582 32.3322C27.042 32.3322 28.3058 35.1109 28.3058 35.1109C28.4111 35.3215 28.4354 35.3702 28.4921 35.3702C28.557 35.3702 28.5813 35.3296 28.6623 35.1352L29.9099 32.2836L30.1448 35.0218C30.1448 35.0218 30.1448 35.0866 30.1448 35.1109C30.1448 35.1514 30.1448 35.2081 30.1367 35.2081C30.0881 35.2243 30.08 35.2567 30.08 35.281C30.08 35.354 30.161 35.3702 30.2582 35.3783C30.4608 35.3864 31.0116 35.3783 31.1251 35.3783C31.2628 35.3783 31.2709 35.3134 31.2709 35.2891C31.2709 35.2648 31.2709 35.2243 31.1899 35.2243C31.1413 35.2243 31.0116 35.2243 30.8658 35.1757C30.6633 35.1028 30.6309 34.8031 30.6147 34.6167L30.2663 31.2061C30.2663 31.1251 30.2501 31.0198 30.161 31.0198C30.0962 31.0198 30.0638 31.0927 30.0476 31.1332" fill="#134939"/>
<path d="M67.8319 32.073C67.8319 32.4537 67.9534 32.8102 68.5691 33.3125L68.8203 33.5231C69.3063 33.9282 69.4441 34.1307 69.4441 34.4871C69.4441 34.8436 69.1848 35.1839 68.6906 35.1839C68.4881 35.1839 68.0101 35.1353 67.9129 34.6492C67.8967 34.5763 67.8967 34.5034 67.8967 34.4547C67.8967 34.4223 67.8967 34.3494 67.8157 34.3494C67.7428 34.3494 67.7347 34.4385 67.7347 34.479V34.5439C67.7185 34.6573 67.7104 34.8436 67.7104 35.0704C67.7104 35.2244 67.7104 35.273 67.8157 35.3216C68.0344 35.4269 68.2856 35.4755 68.5772 35.4755C68.9175 35.4755 69.2091 35.3945 69.436 35.2325C69.8005 34.9732 69.922 34.5682 69.922 34.2765C69.922 33.839 69.7843 33.4826 69.0957 32.9398L68.9418 32.8183C68.4152 32.3808 68.2775 32.2026 68.2775 31.919C68.2775 31.5545 68.5367 31.3115 68.9175 31.3115C69.3792 31.3115 69.5332 31.5059 69.5737 31.5869C69.6061 31.6436 69.6385 31.7894 69.6385 31.8461C69.6385 31.8866 69.6466 31.9596 69.7195 31.9596C69.8005 31.9596 69.8005 31.8461 69.8005 31.7894C69.8005 31.4897 69.8167 31.3196 69.8167 31.2385V31.198C69.8167 31.1413 69.7924 31.117 69.7276 31.117C69.6871 31.117 69.6466 31.117 69.5413 31.0927C69.3792 31.0522 69.2172 31.036 69.0147 31.036C68.3018 31.036 67.8238 31.4573 67.8238 32.073" fill="#134939"/>
<path d="M23.275 32.073C23.275 32.4537 23.4046 32.8102 24.0122 33.3125L24.2633 33.5231C24.7494 33.9282 24.8871 34.1307 24.8871 34.4871C24.8871 34.8436 24.6279 35.1839 24.1337 35.1839C23.9312 35.1839 23.4532 35.1353 23.356 34.6492C23.3398 34.5763 23.3398 34.5034 23.3398 34.4547C23.3398 34.4223 23.3398 34.3494 23.2588 34.3494C23.1777 34.3494 23.1777 34.4385 23.1777 34.479V34.5439C23.1615 34.6573 23.1534 34.8436 23.1534 35.0704C23.1534 35.2244 23.1534 35.273 23.2588 35.3216C23.4775 35.4269 23.7286 35.4755 24.0203 35.4755C24.3605 35.4755 24.6522 35.3945 24.879 35.2325C25.2436 34.9732 25.3651 34.5682 25.3651 34.2765C25.3651 33.839 25.2274 33.4826 24.5388 32.9398L24.3848 32.8183C23.8583 32.3808 23.7205 32.2026 23.7205 31.919C23.7205 31.5545 23.9798 31.3115 24.3605 31.3115C24.8223 31.3115 24.9762 31.5059 25.0167 31.5869C25.0491 31.6436 25.0815 31.7894 25.0815 31.8461C25.0815 31.8866 25.0896 31.9596 25.1626 31.9596C25.2436 31.9596 25.2436 31.8461 25.2436 31.7894C25.2436 31.4897 25.2598 31.3196 25.2598 31.2385V31.198C25.2598 31.1413 25.2274 31.117 25.1707 31.117C25.1302 31.117 25.0896 31.117 24.9843 31.0927C24.8223 31.0522 24.6603 31.036 24.4577 31.036C23.7448 31.036 23.2669 31.4573 23.2669 32.073" fill="#134939"/>
<path d="M72.1904 35.2405C72.1418 35.2405 72.0284 35.2324 71.9473 35.2162C71.8177 35.2 71.7853 35.1109 71.7691 34.9489C71.7448 34.7139 71.7448 34.2684 71.7448 33.7499V32.7696C71.7448 31.9028 71.7448 31.7489 71.7529 31.5707C71.761 31.3762 71.8015 31.3114 71.9311 31.2871C71.996 31.279 72.0203 31.2709 72.0608 31.2709C72.1094 31.2709 72.1418 31.2385 72.1418 31.198C72.1418 31.1089 72.0446 31.1089 72.0122 31.1089C71.8906 31.1089 71.6881 31.117 71.5585 31.1251C71.5099 31.1251 71.4775 31.1251 71.4694 31.1251C71.4613 31.1251 71.4289 31.1251 71.3803 31.1251C71.2587 31.1251 71.04 31.1089 70.9104 31.1089C70.878 31.1089 70.7808 31.1089 70.7808 31.198C70.7808 31.2385 70.8213 31.2709 70.8618 31.2709C70.8942 31.2709 70.959 31.2709 71.0238 31.2952C71.0967 31.3114 71.1696 31.36 71.1777 31.5707C71.1858 31.7489 71.1858 31.9028 71.1858 32.7696V33.7499C71.1858 34.2684 71.1858 34.722 71.1615 34.9489C71.1372 35.119 71.1129 35.2081 71.0319 35.2243C70.9752 35.2405 70.9185 35.2486 70.878 35.2486C70.8213 35.2486 70.7889 35.2891 70.7889 35.3215C70.7889 35.4026 70.8861 35.4026 70.9185 35.4026C71.04 35.4026 71.2425 35.4026 71.3722 35.3864C71.4208 35.3864 71.4532 35.3864 71.4613 35.3864C71.4613 35.3864 71.4937 35.3864 71.5261 35.3864C71.6476 35.3864 71.9068 35.4026 72.1418 35.4026C72.2633 35.4026 72.2714 35.3458 72.2714 35.3215C72.2714 35.2891 72.2471 35.2486 72.1904 35.2486" fill="#134939"/>
<path d="M36.0101 31.676C35.5889 32.154 35.4592 32.794 35.4673 33.2314C35.4835 33.9363 35.7104 34.4871 36.1478 34.8841C36.5853 35.2892 37.1443 35.4674 37.8896 35.4431C38.1975 35.4431 38.6025 35.3864 38.8294 35.2892C38.9347 35.2406 38.9509 35.2163 38.9833 35.1028C39.0319 34.9084 39.0805 34.4223 39.0724 34.3818C39.0724 34.2684 39.0157 34.2603 38.9914 34.2603C38.9266 34.2603 38.9185 34.3332 38.9023 34.3818C38.878 34.4871 38.8294 34.7221 38.7321 34.8355C38.5458 35.0623 38.2542 35.1109 37.8734 35.1271C37.363 35.1433 36.8932 34.9408 36.5448 34.5601C36.2127 34.1955 36.0182 33.6932 36.002 33.1828C35.9858 32.713 36.0263 32.1702 36.4152 31.7489C36.6582 31.4735 37.0309 31.3357 37.5575 31.3276C38.0192 31.3195 38.4081 31.4654 38.5701 31.6031C38.6997 31.7084 38.7646 31.9028 38.7889 32.1378C38.7889 32.2026 38.7889 32.2917 38.8699 32.2917C38.9509 32.2917 38.9509 32.1945 38.9509 32.1378V31.5626C38.9509 31.4411 38.959 31.3682 38.9671 31.3195V31.2466C38.9671 31.1818 38.9347 31.1575 38.8618 31.1494C38.7078 31.1494 38.5458 31.117 38.3595 31.0846H38.3433C38.0354 31.0279 37.7114 31.0279 37.5899 31.036C36.8932 31.0522 36.3747 31.2709 36.002 31.6841" fill="#134939"/>
<path d="M56.5873 30.9955C54.9671 30.9955 54.3595 32.3484 54.3595 33.2071C54.3595 34.2765 55.0481 35.4269 56.5549 35.4269C57.8592 35.4269 58.8071 34.4547 58.8071 33.118C58.8071 32.4861 58.5884 31.9433 58.1752 31.5626C57.7782 31.198 57.2192 30.9955 56.5873 30.9955ZM56.5468 31.2628C57.3408 31.2628 58.1995 31.8947 58.1995 33.2719C58.1995 35.0461 56.9519 35.1352 56.7089 35.1352C55.6881 35.1352 54.9752 34.2765 54.9752 33.0451C54.9752 31.9433 55.5828 31.2547 56.5549 31.2547" fill="#134939"/>
<path d="M51.0623 31.1413C50.7869 31.1494 50.6167 31.1575 50.3656 31.1575C50.0577 31.1575 49.7985 31.1413 49.6122 31.1413C49.5798 31.1413 49.4907 31.1413 49.4907 31.2223C49.4907 31.2628 49.5231 31.2871 49.5717 31.2871C49.6203 31.2871 49.7094 31.2871 49.7499 31.3033C49.9038 31.3357 49.9524 31.4005 49.9605 31.5869C49.9686 31.7651 49.9686 31.919 49.9686 32.7859V33.758C49.9686 34.2765 49.9686 34.7302 49.9443 34.957V34.9975C49.92 35.1433 49.9038 35.2081 49.8066 35.2324C49.758 35.2405 49.6932 35.2567 49.6527 35.2567C49.596 35.2567 49.5717 35.2891 49.5717 35.3215C49.5717 35.4026 49.6608 35.4026 49.6932 35.4026C49.7337 35.4026 49.7823 35.4026 49.8309 35.4026C49.8876 35.4026 49.9524 35.4026 50.0172 35.4026C50.1793 35.4026 50.3089 35.4026 50.3818 35.4026C50.4628 35.4026 50.5681 35.4188 50.6896 35.4269H50.8112C50.9894 35.4512 51.1433 35.4593 51.3377 35.4593C52.2613 35.4593 52.7231 35.0866 52.9904 34.8112C53.3712 34.4061 53.5899 33.8309 53.5899 33.2233C53.5899 32.5023 53.2983 32.0486 53.0552 31.7894C52.4233 31.1413 51.6051 31.1413 51.0623 31.1494M52.6015 34.6978C52.2694 35.0299 51.8481 35.2 51.3621 35.2C50.7059 35.2 50.6248 35.0785 50.5681 34.9894C50.5276 34.9327 50.5195 34.6734 50.5114 34.5843C50.5114 34.4871 50.5033 33.9929 50.5033 33.3853V32.6967C50.5033 32.2755 50.5033 31.7003 50.5033 31.514C50.5033 31.4653 50.5114 31.4491 50.5519 31.4329C50.5843 31.4167 50.7545 31.4005 50.876 31.4005C51.5484 31.4005 51.994 31.441 52.5043 31.9757C52.7393 32.2269 53.0228 32.6724 53.0228 33.3935C53.0228 33.9362 52.8608 34.4385 52.6015 34.6978Z" fill="#134939"/>
</g>
</g>
<defs>
<clipPath id="clip0_1801_3364">
<rect width="80" height="35.4754" fill="white"/>
</clipPath>
<clipPath id="clip1_1801_3364">
<rect width="80" height="35.4754" fill="white"/>
</clipPath>
</defs>
</svg>
