<svg width="81" height="18" viewBox="0 0 81 18" fill="none" xmlns="http://www.w3.org/2000/svg">
<g clip-path="url(#clip0_1801_2170)">
<g clip-path="url(#clip1_1801_2170)">
<path fill-rule="evenodd" clip-rule="evenodd" d="M0.616394 15.6243C3.54699 14.5527 5.88132 13.2848 7.60371 11.8094C7.82983 11.9631 8.07535 12.1027 8.34102 12.2288C8.46192 12.2863 8.58356 12.3393 8.70595 12.3878C7.01789 13.9587 4.61639 15.4176 1.5455 16.7758L0.616394 15.6243ZM8.27087 11.1982C8.63729 10.8378 8.96938 10.4654 9.26789 10.0811C9.46042 9.83255 9.62759 9.5915 9.77087 9.35718C9.91117 9.35718 10.0507 9.36091 10.1888 9.36986C10.4627 9.38703 10.7156 9.42135 10.947 9.47061C10.5597 10.2728 10.0089 11.049 9.29998 11.7997C8.90595 11.6348 8.56266 11.4333 8.27087 11.1982ZM10.238 8.38404C10.5462 7.45792 10.3821 6.67807 9.72983 6.07956C8.84923 5.2721 7.12236 4.85195 4.64401 4.71016C5.88953 4.50941 7.19625 4.50643 8.55669 4.74598C10.8358 5.14822 11.888 6.31016 11.4373 8.12509C11.3985 8.28106 11.3537 8.43703 11.303 8.5915C10.9679 8.49076 10.6127 8.42135 10.238 8.38404Z" fill="#F6D300"/>
<path d="M0.592537 15.5579C2.05448 15.0236 3.36791 14.44 4.5291 13.8064C5.6903 13.1736 6.7 12.4908 7.55821 11.7564L7.59851 11.7214L7.64328 11.7512C7.75448 11.8266 7.8709 11.8997 7.99328 11.9691C8.11418 12.0378 8.23955 12.1035 8.3709 12.1654C8.43433 12.1952 8.49403 12.2229 8.55075 12.2475C8.61269 12.2743 8.67239 12.299 8.73134 12.3229L8.83507 12.3639L8.75373 12.4393C7.90672 13.2281 6.8806 13.9885 5.68134 14.7221C4.48284 15.4542 3.11194 16.1602 1.57388 16.84L1.52463 16.8624L1.49104 16.8199L0.56194 15.6684L0.5 15.5923L0.592537 15.5579ZM4.59701 13.9303C3.45299 14.5535 2.16418 15.1288 0.732836 15.6564L1.56642 16.6893C3.0791 16.0184 4.42836 15.3229 5.60746 14.6012C6.76119 13.8967 7.75224 13.1669 8.57687 12.4109C8.54925 12.3997 8.52164 12.3878 8.49478 12.3766C8.42985 12.3482 8.36866 12.3199 8.31045 12.293C8.17761 12.2296 8.04851 12.1624 7.92388 12.0915C7.81567 12.0296 7.71045 11.9654 7.60896 11.8975C6.75298 12.6251 5.74776 13.302 4.59701 13.9303ZM8.2209 11.1482C8.40373 10.9684 8.57761 10.7863 8.74254 10.602L8.74179 10.6012C8.90821 10.4154 9.06492 10.2273 9.21194 10.0378C9.30597 9.91689 9.39552 9.79524 9.47985 9.67435C9.56343 9.55345 9.6403 9.43554 9.71119 9.32062L9.73134 9.28703H9.7709C9.84254 9.28703 9.91269 9.28778 9.98284 9.29002C10.0552 9.29151 10.1254 9.29524 10.1933 9.29972C10.3306 9.30793 10.4634 9.32136 10.5918 9.33853C10.7209 9.35569 10.8448 9.37659 10.9619 9.40196L11.0493 9.42062L11.0104 9.50121C10.8157 9.90494 10.5791 10.3027 10.3015 10.6945C10.0246 11.0863 9.70746 11.4706 9.35149 11.8475L9.31791 11.8833L9.27313 11.8646C9.07313 11.7811 8.88582 11.6885 8.71269 11.587C8.53806 11.4848 8.37612 11.3736 8.22612 11.2527L8.16493 11.2035L8.2209 11.1482ZM8.84701 10.6952C8.69701 10.8639 8.53955 11.0296 8.37687 11.1923C8.50299 11.2893 8.63806 11.3803 8.78358 11.4654C8.93955 11.5564 9.10597 11.64 9.28209 11.7154C9.62164 11.3535 9.92313 10.9863 10.1866 10.6139C10.4403 10.2557 10.6597 9.89151 10.844 9.52136C10.756 9.50495 10.6657 9.49002 10.5731 9.47808C10.45 9.46166 10.3201 9.44897 10.1843 9.44002C10.1142 9.43554 10.0455 9.43256 9.9791 9.43032C9.92239 9.42883 9.86642 9.42808 9.81045 9.42733C9.74328 9.53629 9.67164 9.64524 9.59552 9.75494C9.51194 9.87435 9.42164 9.99748 9.32313 10.1236C9.17239 10.3184 9.01343 10.5087 8.84776 10.6952H8.84701ZM10.1709 8.36166C10.3216 7.90942 10.3567 7.49375 10.2746 7.11987C10.1933 6.75047 9.99627 6.41987 9.68209 6.13181C9.25075 5.73554 8.60896 5.43405 7.76866 5.21315C6.92164 4.99077 5.87463 4.85121 4.6403 4.78106L3.99552 4.74375L4.63284 4.64077C5.27015 4.53853 5.92313 4.48703 6.59104 4.493C7.23731 4.49897 7.89701 4.55793 8.56866 4.67659C8.74552 4.70793 8.91642 4.74375 9.0806 4.7848C10.009 5.01539 10.6963 5.3945 11.1187 5.91315C11.544 6.4348 11.6993 7.09524 11.5604 7.88256C11.5463 7.96689 11.5276 8.05271 11.506 8.14151C11.4858 8.22211 11.4642 8.30121 11.4425 8.37808C11.4201 8.45569 11.3955 8.5348 11.3694 8.61315L11.3485 8.67883L11.2821 8.65942C11.1164 8.60868 10.9463 8.56689 10.7724 8.5333C10.5963 8.49898 10.4157 8.47211 10.2306 8.45345L10.1433 8.4445L10.1709 8.36166ZM10.4119 7.08927C10.4948 7.46539 10.4672 7.87808 10.3313 8.32286C10.491 8.34151 10.647 8.36539 10.7985 8.3945C10.956 8.42509 11.1082 8.46166 11.2567 8.5042C11.2739 8.44972 11.291 8.3945 11.3067 8.33927C11.3291 8.26091 11.35 8.1833 11.3687 8.10793C11.3896 8.02435 11.4075 7.94077 11.4216 7.85868C11.5537 7.11315 11.4082 6.49077 11.0097 6.00121C10.6067 5.50793 9.94552 5.1445 9.04701 4.92136C8.88806 4.88181 8.72015 4.84674 8.54403 4.81539C7.8791 4.69823 7.22687 4.63927 6.5903 4.6333C6.1709 4.62957 5.75672 4.64897 5.34925 4.68927C6.29328 4.76912 7.11343 4.89599 7.80448 5.07733C8.66716 5.30345 9.3291 5.61614 9.77761 6.02808C10.1134 6.33629 10.3246 6.69151 10.4119 7.08927Z" fill="#3D107A"/>
<path fill-rule="evenodd" clip-rule="evenodd" d="M11.5582 8.67583C10.3328 8.23031 8.80446 8.2512 7.03058 8.66389C7.05222 9.06613 7.1261 9.43926 7.25073 9.78105C8.27386 9.46837 9.25371 9.30941 10.1888 9.36986C12.6224 9.52583 13.388 10.9676 12.2515 13.1572C11.4082 14.7825 9.84551 16.1288 7.87685 17.3721C10.153 16.3079 11.7798 15.0669 12.7142 13.6199C14.1963 11.3228 13.8485 9.51016 11.5582 8.67583ZM5.75595 9.01389C4.88207 9.28777 3.95894 9.6415 2.99103 10.0676L3.95148 11.1743C4.70073 10.793 5.43058 10.4527 6.14028 10.1728C5.96043 9.81389 5.83207 9.42658 5.75595 9.01389Z" fill="#F6D300"/>
<path d="M11.5343 8.74226C10.9291 8.52211 10.2485 8.41688 9.49999 8.41838C8.76566 8.41912 7.96417 8.52285 7.10447 8.71912C7.11641 8.89599 7.1388 9.06688 7.17089 9.23181C7.20298 9.39226 7.24402 9.54673 7.29477 9.69449C7.78805 9.54673 8.27089 9.43479 8.74328 9.36614C9.23731 9.29375 9.72089 9.26912 10.1933 9.29972C10.8455 9.34151 11.3813 9.47434 11.7955 9.68927C12.1627 9.88031 12.4351 10.1348 12.6097 10.4467C12.7836 10.7587 12.8589 11.1258 12.8328 11.5408C12.8015 12.0273 12.6298 12.5811 12.3142 13.19C11.8888 14.0094 11.2821 14.7587 10.5343 15.4594C10.0403 15.9221 9.48507 16.3632 8.8791 16.7893C9.58134 16.4087 10.2075 16.0072 10.756 15.584C11.5575 14.9646 12.1925 14.2982 12.6545 13.5818C12.9425 13.1355 13.1604 12.7087 13.3075 12.3042C13.5522 11.6326 13.6015 11.0236 13.4515 10.4952C13.303 9.96912 12.9545 9.51987 12.4045 9.16464C12.1552 9.0042 11.8657 8.86315 11.5343 8.74226ZM9.49999 8.27808C10.2649 8.27658 10.9619 8.38405 11.5821 8.61017C11.9239 8.73479 12.2231 8.88032 12.4806 9.04673C13.0612 9.42136 13.4284 9.89748 13.5873 10.4572C13.7455 11.0146 13.6948 11.6527 13.4403 12.3527C13.2888 12.7669 13.0664 13.2034 12.7731 13.6579C12.3022 14.3885 11.656 15.0661 10.8418 15.6952C10.0298 16.3229 9.04925 16.9012 7.90671 17.4355L6.89775 17.9072L7.83954 17.3124C8.82089 16.693 9.69999 16.0482 10.4381 15.3564C11.1746 14.6676 11.7709 13.9303 12.1888 13.1251C12.4963 12.534 12.6619 11.999 12.6918 11.5318C12.7164 11.1437 12.6478 10.8027 12.4866 10.5154C12.3261 10.2281 12.0731 9.99226 11.7306 9.81464C11.3336 9.60867 10.8172 9.48031 10.1843 9.44002C9.72238 9.41017 9.24775 9.43479 8.76268 9.50494C8.27611 9.57584 7.77835 9.693 7.27089 9.84897L7.20746 9.86838L7.18432 9.80569C7.12089 9.63106 7.07014 9.44823 7.03283 9.25942C6.99552 9.06987 6.97089 8.87285 6.96044 8.66763L6.95671 8.60867L7.01417 8.59524C7.90596 8.38778 8.73656 8.27882 9.49999 8.27808ZM5.70223 9.10494C5.29104 9.23554 4.8679 9.38405 4.43432 9.54897C4.00149 9.7139 3.55969 9.89599 3.10746 10.0937L3.96865 11.087C4.32387 10.9064 4.67835 10.734 5.03134 10.5721V10.5714C5.37313 10.4146 5.71044 10.2684 6.04402 10.1348C5.96641 9.97434 5.89999 9.80793 5.84253 9.63554C5.78581 9.4639 5.7388 9.28629 5.70223 9.10494ZM4.38358 9.41763C4.84552 9.24151 5.29626 9.08405 5.73507 8.94673L5.81044 8.92285L5.82537 9.00121C5.86268 9.20494 5.91343 9.40196 5.97611 9.59151C6.0388 9.78181 6.11492 9.96464 6.20298 10.1408L6.23731 10.2102L6.16566 10.2378C5.81193 10.3773 5.45372 10.5326 5.09029 10.6997H5.08955C4.72984 10.8654 4.36044 11.0452 3.98358 11.2378L3.93507 11.2624L3.8985 11.2206L2.93805 10.1139L2.87537 10.0415L2.96268 10.0034C3.44775 9.78927 3.92163 9.59375 4.38358 9.41763Z" fill="#3D107A"/>
<path fill-rule="evenodd" clip-rule="evenodd" d="M6.04702 5.86315C6.15448 5.52509 6.27762 5.19748 6.41419 4.87808C6.96866 4.95569 7.46792 5.05569 7.9112 5.17883C7.55225 5.83778 7.30299 6.48629 7.16717 7.12509C6.64777 9.56987 7.53732 11.2766 9.79926 11.9803C10.6993 12.2602 11.6582 12.2923 12.6657 12.1146C12.6284 12.2579 12.5806 12.4049 12.5231 12.5572C11.0955 12.9438 9.68657 12.8684 8.34105 12.2288C5.92687 11.0818 5.12016 8.77211 6.04702 5.86315ZM13.5 11.9236C14.1067 11.7535 14.7291 11.5154 15.3649 11.2154C14.7097 11.6512 14.0522 12.0042 13.3963 12.2646C13.4366 12.149 13.4709 12.0355 13.5 11.9236ZM6.55523 4.56315C7.36419 2.82957 8.59478 1.36688 10.0605 0.110168L10.9187 1.46539C9.75896 2.56987 8.84478 3.643 8.19628 4.68778C7.64031 4.60718 7.09254 4.56614 6.55523 4.56315Z" fill="#F6D300"/>
<path d="M5.97986 5.84151C6.03359 5.67136 6.0918 5.50419 6.15374 5.33927C6.21568 5.17211 6.28135 5.00942 6.34926 4.85046L6.37091 4.80046L6.42389 4.80793C6.70076 4.84748 6.96568 4.89151 7.21792 4.94225C7.47016 4.993 7.70747 5.04897 7.92986 5.11091L8.01494 5.13479L7.9724 5.2124C7.79553 5.53852 7.64479 5.8624 7.52091 6.18479C7.39852 6.50569 7.303 6.82434 7.23583 7.14002C6.97837 8.35121 7.07091 9.37658 7.50822 10.184C7.94106 10.9818 8.7127 11.5684 9.82016 11.9131C10.2642 12.0512 10.7231 12.1281 11.1948 12.1482C11.6679 12.1691 12.1545 12.1333 12.6537 12.0452L12.7612 12.0258L12.7336 12.1318C12.7149 12.2057 12.6933 12.2796 12.6687 12.3542C12.644 12.4303 12.6179 12.5064 12.5888 12.5826L12.5761 12.6161L12.5411 12.6251C11.8075 12.8236 11.0784 12.902 10.3597 12.8452C9.66494 12.7908 8.97986 12.6109 8.31046 12.293C7.09031 11.7124 6.27389 10.8385 5.87837 9.74076C5.4821 8.64002 5.51046 7.31614 5.97986 5.84151ZM6.28508 5.38778C6.22464 5.55121 6.16717 5.71688 6.11419 5.88405C5.65374 7.32808 5.62464 8.62136 6.0112 9.69375C6.39329 10.7549 7.18509 11.602 8.37091 12.1654C9.02389 12.4758 9.69255 12.652 10.3709 12.7049C11.062 12.7594 11.7634 12.6863 12.4702 12.4982C12.494 12.434 12.5157 12.3721 12.5351 12.3117C12.547 12.2743 12.5582 12.2385 12.5687 12.2027C12.0985 12.2781 11.6381 12.3087 11.1888 12.2893C10.7045 12.2684 10.2336 12.1893 9.77837 12.0475C8.63434 11.6915 7.83434 11.0818 7.38434 10.2512C6.93061 9.4139 6.83359 8.35569 7.09777 7.11091C7.16643 6.78778 7.26419 6.46166 7.38956 6.13479C7.50449 5.8333 7.64404 5.53031 7.80673 5.2236C7.61195 5.17136 7.40598 5.1236 7.19031 5.08031C6.95971 5.03405 6.71568 4.99225 6.45747 4.95494C6.39703 5.09897 6.33956 5.243 6.28508 5.38778ZM13.4806 11.8557C13.7814 11.7721 14.0866 11.6699 14.3963 11.552C14.706 11.4348 15.0194 11.3005 15.3351 11.152L16.2037 10.7423L15.4037 11.2743C15.0731 11.4937 14.7403 11.6937 14.4075 11.8714C14.0791 12.046 13.7508 12.1997 13.4224 12.3303L13.2799 12.387L13.3299 12.2423C13.3485 12.1893 13.3664 12.1326 13.3851 12.0721C13.4022 12.0161 13.4179 11.9609 13.4314 11.9064L13.4418 11.8669L13.4806 11.8557ZM14.4463 11.684C14.1478 11.7975 13.8515 11.8967 13.5575 11.9803C13.5455 12.0243 13.5328 12.0684 13.5194 12.1131H13.5202L13.5105 12.1423C13.7873 12.0266 14.0642 11.8945 14.3411 11.7475C14.3888 11.7221 14.4358 11.696 14.4836 11.6699L14.4463 11.684ZM6.4918 4.5333C6.89852 3.66166 7.4112 2.85793 8.00673 2.1139C8.6015 1.37061 9.27911 0.687031 10.0149 0.0564336L10.0769 0.00344849L10.1202 0.0721052L10.9784 1.42808L11.009 1.47658L10.9672 1.51688C10.3888 2.06688 9.8724 2.60942 9.41941 3.14449C8.96717 3.67882 8.57837 4.20569 8.25673 4.72509L8.2321 4.76464L8.18658 4.75793C7.9127 4.71763 7.64031 4.68778 7.36941 4.66688C7.09329 4.64599 6.8224 4.63479 6.55523 4.6333L6.44553 4.63255L6.4918 4.5333ZM8.11643 2.20121C7.55076 2.90867 7.06046 3.66987 6.66568 4.49375C6.903 4.49748 7.1418 4.50793 7.37986 4.52658C7.63807 4.54599 7.89852 4.57434 8.1612 4.61166C8.48285 4.09822 8.86717 3.57882 9.31195 3.05345C9.75673 2.52808 10.2634 1.99524 10.8284 1.45494L10.0448 0.216135C9.33882 0.827329 8.68882 1.48703 8.11643 2.20121Z" fill="#3D107A"/>
<path fill-rule="evenodd" clip-rule="evenodd" d="M22.2836 6.55569C22.6373 6.63181 22.9015 6.75121 23.0776 6.91763C23.3209 7.14897 23.4425 7.43181 23.4425 7.76614C23.4425 8.02061 23.3627 8.26464 23.2022 8.49673C23.0418 8.72957 22.8216 8.89897 22.5418 9.00569C22.2634 9.1124 21.8366 9.16614 21.2619 9.16614H18.8552V9.02808H19.0455C19.2575 9.02808 19.4097 8.95942 19.5022 8.82434C19.5597 8.73703 19.5881 8.54972 19.5881 8.26464V4.95718C19.5881 4.64151 19.5522 4.44226 19.4799 4.36017C19.3821 4.24897 19.2388 4.19375 19.0455 4.19375H18.8552V4.05494H21.0582C21.4694 4.05494 21.7978 4.08479 22.0463 4.14524C22.4224 4.23628 22.709 4.39599 22.9067 4.62584C23.1045 4.85569 23.2037 5.11912 23.2037 5.41837C23.2037 5.67434 23.1269 5.9027 22.9709 6.10569C22.8157 6.30793 22.5866 6.45793 22.2836 6.55569ZM20.3127 6.34599C20.4052 6.3639 20.5119 6.37733 20.6299 6.38628C20.7493 6.39524 20.8806 6.39897 21.0231 6.39897C21.3896 6.39897 21.6657 6.35867 21.8493 6.28106C22.0328 6.20196 22.1746 6.08181 22.2724 5.91837C22.3687 5.75643 22.4172 5.57882 22.4172 5.38628C22.4172 5.08852 22.2955 4.83479 22.0522 4.62434C21.8097 4.41539 21.4552 4.30942 20.9896 4.30942C20.7396 4.30942 20.5134 4.33628 20.3127 4.39151V6.34599ZM20.3127 8.79524C20.6045 8.86315 20.8933 8.89673 21.1776 8.89673C21.6336 8.89673 21.9821 8.79375 22.2209 8.58927C22.4597 8.38554 22.5791 8.13181 22.5791 7.83181C22.5791 7.6333 22.5239 7.44226 22.4119 7.25942C22.3015 7.07584 22.1246 6.93181 21.8813 6.82658C21.6388 6.72136 21.3366 6.66837 20.9784 6.66837C20.8224 6.66837 20.6903 6.67136 20.5799 6.67658C20.4694 6.68181 20.3806 6.69076 20.3127 6.70196V8.79524ZM27.3985 7.46315H25.4187L25.0769 8.26315C24.9918 8.46091 24.9485 8.61017 24.9485 8.70793C24.9485 8.78479 24.9858 8.85419 25.0604 8.91315C25.1336 8.97136 25.294 9.00942 25.5396 9.02808V9.16614H23.9284V9.02808C24.1418 8.99076 24.2791 8.94151 24.3418 8.88106C24.4702 8.76017 24.6119 8.51539 24.7672 8.14599L26.5649 3.93927H26.6918L28.4687 8.19151C28.6119 8.5333 28.741 8.7542 28.8582 8.85643C28.9754 8.95793 29.1373 9.01464 29.3463 9.02808V9.16614H27.3321V9.02808C27.5351 9.01763 27.6724 8.98405 27.744 8.92658C27.8164 8.86837 27.8507 8.79748 27.8507 8.7139C27.8507 8.60345 27.8007 8.42882 27.7007 8.19002L27.3985 7.46315ZM27.2828 7.18554L26.4224 5.12285L25.5381 7.18554H27.2828ZM29.3313 4.05494H30.7045L33.8358 7.893V4.94151C33.8358 4.62733 33.8 4.43031 33.7291 4.35196C33.6358 4.24673 33.4866 4.19375 33.2836 4.19375H33.1037V4.05494H34.9V4.19375H34.7172C34.4978 4.19375 34.3433 4.25942 34.2507 4.39076C34.1955 4.47136 34.1672 4.65569 34.1672 4.94151V9.24897H34.0313L30.6672 5.13181V8.27957C30.6672 8.59449 30.7022 8.79151 30.7701 8.86987C30.8664 8.97509 31.0157 9.02808 31.2172 9.02808H31.4V9.16614H29.6037V9.02808H29.7836C30.0045 9.02808 30.1597 8.9624 30.2522 8.83106C30.3075 8.75046 30.3358 8.56614 30.3358 8.27957V4.72584C30.1881 4.5527 30.0754 4.43778 29.9993 4.38255C29.9224 4.32733 29.8104 4.27658 29.6627 4.22733C29.5896 4.20569 29.4791 4.19375 29.3313 4.19375V4.05494ZM37.3037 6.33181L39.1903 8.20196C39.4993 8.5139 39.7627 8.72584 39.9813 8.83778C40.2 8.94897 40.4187 9.0124 40.6366 9.02808V9.16614H38.203V9.02808C38.35 9.02808 38.4537 9.00345 38.5179 8.95419C38.5821 8.90569 38.6142 8.85046 38.6142 8.79002C38.6142 8.72957 38.6015 8.67584 38.5784 8.62808C38.5537 8.58031 38.4754 8.49076 38.3433 8.36091L36.5821 6.61464V8.26464C36.5821 8.52285 36.5985 8.69375 36.6321 8.77584C36.656 8.83852 36.7104 8.893 36.791 8.93778C36.9 8.99822 37.0157 9.02808 37.1381 9.02808H37.3142V9.16614H35.1246V9.02808H35.306C35.5179 9.02808 35.6709 8.96614 35.7672 8.84375C35.8276 8.76315 35.8567 8.57061 35.8567 8.26464V4.95718C35.8567 4.69897 35.8403 4.52658 35.8082 4.44225C35.7828 4.38181 35.7313 4.32882 35.653 4.28405C35.5425 4.2236 35.4269 4.19375 35.306 4.19375H35.1246V4.05494H37.3142V4.19375H37.1381C37.0187 4.19375 36.903 4.22211 36.791 4.28031C36.7127 4.31987 36.6575 4.38031 36.6284 4.46166C36.597 4.54076 36.5821 4.70643 36.5821 4.95718V6.52509C36.6321 6.47584 36.8037 6.31688 37.097 6.04524C37.8418 5.36166 38.2933 4.90569 38.4485 4.67733C38.5164 4.57584 38.55 4.48852 38.55 4.4124C38.55 4.35494 38.5231 4.3042 38.4701 4.25942C38.4179 4.21614 38.3291 4.19375 38.203 4.19375H38.0873V4.05494H39.9672V4.19375C39.8567 4.19673 39.7567 4.21166 39.6664 4.24002C39.5754 4.26763 39.4649 4.32136 39.3351 4.40121C39.2045 4.48181 39.0433 4.61017 38.8537 4.78778C38.7985 4.83778 38.5425 5.09449 38.0866 5.55867L37.3037 6.33181ZM46.9209 7.75569L47.044 7.78255L46.6052 9.16614H42.65V9.02808H42.8418C43.0575 9.02808 43.2119 8.95793 43.3045 8.81837C43.3567 8.73852 43.3828 8.55345 43.3828 8.26464V4.95718C43.3828 4.63852 43.3478 4.43927 43.2769 4.36017C43.1799 4.24897 43.0343 4.19375 42.8418 4.19375H42.65V4.05494H44.9627V4.19375C44.6918 4.19151 44.5015 4.21614 44.391 4.26837C44.2821 4.31987 44.2075 4.38703 44.1679 4.46539C44.1276 4.54449 44.1075 4.73479 44.1075 5.03405V8.25718C44.1075 8.46614 44.1276 8.60867 44.1679 8.68703C44.197 8.74151 44.2448 8.77957 44.3075 8.80569C44.3694 8.82957 44.5657 8.843 44.8963 8.843H45.2687C45.6619 8.843 45.9366 8.81464 46.0948 8.75643C46.253 8.69897 46.3978 8.59599 46.5291 8.44972C46.659 8.30345 46.7903 8.07136 46.9209 7.75569ZM50.7373 7.46315H48.7575L48.4157 8.26315C48.3306 8.46091 48.2866 8.61017 48.2866 8.70793C48.2866 8.78479 48.3239 8.85419 48.3985 8.91315C48.4716 8.97136 48.6328 9.00942 48.8776 9.02808V9.16614H47.2664V9.02808C47.4799 8.99076 47.6172 8.94151 47.6806 8.88106C47.809 8.76017 47.95 8.51539 48.106 8.14599L49.903 3.93927H50.0306L51.8075 8.19151C51.95 8.5333 52.0799 8.7542 52.197 8.85643C52.3134 8.95793 52.4754 9.01464 52.6851 9.02808V9.16614H50.6702V9.02808C50.8731 9.01763 51.0112 8.98405 51.0828 8.92658C51.1545 8.86837 51.1896 8.79748 51.1896 8.7139C51.1896 8.60345 51.1396 8.42882 51.0388 8.19002L50.7373 7.46315ZM50.6216 7.18554L49.7605 5.12285L48.8769 7.18554H50.6216ZM55.9254 9.16614L53.9522 4.86614V8.27957C53.9522 8.59449 53.9866 8.79151 54.0545 8.86987C54.1485 8.97509 54.2978 9.02808 54.5015 9.02808H54.6843V9.16614H52.8881V9.02808H53.0716C53.2903 9.02808 53.444 8.9624 53.5366 8.83106C53.5918 8.75046 53.6202 8.56614 53.6202 8.27957V4.94151C53.6202 4.71539 53.5948 4.55121 53.5448 4.45121C53.509 4.37808 53.4433 4.31763 53.3478 4.26763C53.2515 4.21837 53.0985 4.19375 52.8881 4.19375V4.05494H54.353L56.1955 8.05121L58.0209 4.05494H59.4716V4.19375H59.2933C59.0709 4.19375 58.9157 4.25942 58.8231 4.39076C58.7679 4.47136 58.7396 4.65569 58.7396 4.94151V8.27957C58.7396 8.59449 58.7754 8.79151 58.8463 8.86987C58.9396 8.97509 59.0888 9.02808 59.2933 9.02808H59.4716V9.16614H57.2821V9.02808H57.4657C57.6873 9.02808 57.841 8.9624 57.9313 8.83106C57.9866 8.75046 58.0149 8.56614 58.0149 8.27957V4.86614L56.0485 9.16614H55.9254ZM61.2075 6.76987V8.26464C61.2075 8.58554 61.2425 8.78479 61.3127 8.86166C61.4082 8.97211 61.5522 9.02808 61.7448 9.02808H61.9403V9.16614H59.7507V9.02808H59.9433C60.159 9.02808 60.3149 8.95718 60.4075 8.81688C60.4575 8.74002 60.4828 8.55494 60.4828 8.26464V4.95718C60.4828 4.63628 60.4493 4.43703 60.3813 4.36017C60.2821 4.24897 60.1373 4.19375 59.9433 4.19375H59.7507V4.05494H61.6239C62.0813 4.05494 62.441 4.1027 62.706 4.19673C62.9694 4.29002 63.1918 4.44972 63.3724 4.6736C63.5537 4.89673 63.644 5.16166 63.644 5.46763C63.644 5.88479 63.506 6.22434 63.2313 6.48479C62.956 6.74599 62.5687 6.87658 62.0657 6.87658C61.9425 6.87658 61.8105 6.86763 61.6679 6.84972C61.5239 6.8333 61.3709 6.80643 61.2075 6.76987ZM61.2075 6.5542C61.3403 6.58031 61.4582 6.59897 61.5612 6.61091C61.6627 6.6236 61.7507 6.63031 61.8231 6.63031C62.0836 6.63031 62.3075 6.52882 62.4963 6.32658C62.6851 6.12509 62.7806 5.86464 62.7806 5.54449C62.7806 5.3236 62.7351 5.11763 62.6455 4.92882C62.5552 4.74002 62.4269 4.59897 62.2627 4.50494C62.097 4.41091 61.909 4.3639 61.7 4.3639C61.5709 4.3639 61.4082 4.38778 61.2075 4.43554V6.5542ZM67.6 4.19375V4.05494H69.3963V4.19375H69.2045C69.0045 4.19375 68.85 4.27733 68.7418 4.44599C68.6896 4.52434 68.6634 4.7042 68.6634 4.98778V7.05942C68.6634 7.57211 68.6134 7.96912 68.5119 8.25196C68.4104 8.53405 68.2105 8.77733 67.9134 8.97882C67.6164 9.18031 67.2127 9.28181 66.7015 9.28181C66.1455 9.28181 65.7224 9.18554 65.4351 8.99151C65.1455 8.79897 64.9418 8.53852 64.8216 8.21166C64.741 7.98852 64.7015 7.56912 64.7015 6.9542V4.95718C64.7015 4.64375 64.6575 4.43778 64.5716 4.34076C64.4851 4.243 64.3455 4.19375 64.1522 4.19375H63.9612V4.05494H66.1657V4.19375H65.9709C65.7597 4.19375 65.6097 4.26091 65.5194 4.393C65.4567 4.4833 65.4261 4.67211 65.4261 4.95718V7.18405C65.4261 7.38181 65.444 7.60942 65.4799 7.86614C65.5172 8.12211 65.5828 8.32136 65.6776 8.46464C65.7739 8.60793 65.9112 8.72584 66.0903 8.81987C66.2701 8.91166 66.4896 8.95793 66.7507 8.95793C67.0843 8.95793 67.3843 8.88479 67.647 8.74002C67.9105 8.59449 68.0903 8.40718 68.1873 8.18106C68.2836 7.95345 68.3321 7.56837 68.3321 7.02584V4.95718C68.3321 4.63852 68.2978 4.43927 68.2269 4.36017C68.1291 4.24897 67.9843 4.19375 67.791 4.19375H67.6ZM69.3791 4.05494H70.753L73.8843 7.893V4.94151C73.8843 4.62733 73.8485 4.43031 73.7776 4.35196C73.6836 4.24673 73.5343 4.19375 73.3313 4.19375H73.1515V4.05494H74.9478V4.19375H74.7657C74.5455 4.19375 74.3918 4.25942 74.2993 4.39076C74.244 4.47136 74.2157 4.65569 74.2157 4.94151V9.24897H74.0799L70.7157 5.13181V8.27957C70.7157 8.59449 70.75 8.79151 70.8187 8.86987C70.9149 8.97509 71.0642 9.02808 71.2657 9.02808H71.4478V9.16614H69.6515V9.02808H69.8313C70.053 9.02808 70.2082 8.9624 70.3007 8.83106C70.356 8.75046 70.3843 8.56614 70.3843 8.27957V4.72584C70.2366 4.5527 70.1231 4.43778 70.0478 4.38255C69.9702 4.32733 69.859 4.27658 69.7112 4.22733C69.6373 4.20569 69.5269 4.19375 69.3791 4.19375V4.05494ZM79.7754 3.93927L79.906 5.55121H79.7679C79.6351 5.15121 79.4634 4.85046 79.2537 4.64748C78.9508 4.35569 78.5612 4.20942 78.0858 4.20942C77.4381 4.20942 76.9448 4.46614 76.6067 4.98181C76.3239 5.41464 76.1828 5.93255 76.1828 6.53255C76.1828 7.01912 76.2769 7.46315 76.4657 7.86464C76.653 8.26614 76.9 8.56016 77.2045 8.74748C77.509 8.93405 77.8224 9.02808 78.1433 9.02808C78.3313 9.02808 78.5134 9.00345 78.6896 8.95569C78.8642 8.90793 79.0336 8.83778 79.197 8.74375V7.2624C79.197 7.00569 79.1776 6.83703 79.1396 6.75867C79.0993 6.67882 79.0388 6.61837 78.9582 6.57733C78.8761 6.53479 78.7321 6.51464 78.5261 6.51464V6.37584H80.5V6.51464H80.406C80.2112 6.51464 80.0776 6.58031 80.0037 6.71091C79.9537 6.80345 79.9299 6.98703 79.9299 7.2624V8.82882C79.6418 8.98554 79.3567 9.09972 79.0761 9.17285C78.7948 9.24599 78.4828 9.28181 78.1396 9.28181C77.1537 9.28181 76.406 8.96614 75.8948 8.33255C75.5112 7.85867 75.3194 7.31017 75.3194 6.69076C75.3194 6.24076 75.4269 5.80942 75.6433 5.39823C75.8985 4.90867 76.2493 4.53031 76.6955 4.26763C77.0694 4.04897 77.5097 3.93927 78.0202 3.93927C78.2052 3.93927 78.3731 3.95494 78.5254 3.98479C78.6769 4.01539 78.8911 4.08106 79.1702 4.18405C79.3105 4.23628 79.4052 4.26315 79.453 4.26315C79.5 4.26315 79.5403 4.24151 79.5746 4.19823C79.6082 4.1542 79.6291 4.06837 79.6366 3.93927H79.7754Z" fill="#0A4390"/>
<path fill-rule="evenodd" clip-rule="evenodd" d="M20.962 12.2348C21.1247 12.2699 21.247 12.3251 21.3276 12.402C21.4396 12.5087 21.4963 12.6385 21.4963 12.7923C21.4963 12.9094 21.4597 13.0221 21.3851 13.1296C21.3112 13.2363 21.2105 13.3146 21.0814 13.3639C20.953 13.4132 20.756 13.4378 20.4918 13.4378H19.3836V13.3736H19.4709C19.5687 13.3736 19.6381 13.3423 19.6814 13.2803C19.7075 13.24 19.7209 13.1535 19.7209 13.0221V11.499C19.7209 11.3535 19.7038 11.2617 19.6709 11.2236C19.6261 11.1729 19.5597 11.1475 19.4709 11.1475H19.3836V11.0833H20.3978C20.5873 11.0833 20.7388 11.0967 20.853 11.1251C21.0261 11.1669 21.1582 11.24 21.2493 11.346C21.3403 11.452 21.3858 11.5736 21.3858 11.7117C21.3858 11.8288 21.3508 11.9348 21.2791 12.0281C21.2075 12.1206 21.1023 12.19 20.962 12.2348ZM20.0545 12.1385C20.097 12.1467 20.1463 12.1527 20.2008 12.1572C20.2552 12.1609 20.3157 12.1632 20.3814 12.1632C20.55 12.1632 20.6776 12.1445 20.762 12.1087C20.847 12.0721 20.912 12.0169 20.9567 11.9415C21.0015 11.8669 21.0239 11.7855 21.0239 11.6967C21.0239 11.5594 20.9679 11.443 20.856 11.346C20.7441 11.249 20.5806 11.2005 20.3664 11.2005C20.2508 11.2005 20.147 11.2132 20.0545 11.2385V12.1385ZM20.0545 13.2669C20.1888 13.2982 20.3217 13.3132 20.453 13.3132C20.6627 13.3132 20.8232 13.2661 20.9336 13.1721C21.0433 13.0781 21.0985 12.9609 21.0985 12.8229C21.0985 12.7318 21.0732 12.6438 21.0217 12.5594C20.9702 12.4751 20.8888 12.4087 20.7769 12.3602C20.6649 12.3117 20.5261 12.287 20.3612 12.287C20.2896 12.287 20.2284 12.2885 20.1776 12.2908C20.1269 12.293 20.0858 12.2975 20.0545 12.3027V13.2669ZM23.3179 12.6527H22.406L22.2485 13.0214C22.2097 13.1124 22.1896 13.1811 22.1896 13.2266C22.1896 13.2617 22.2067 13.2938 22.2411 13.3214C22.2747 13.3475 22.3485 13.3654 22.462 13.3736V13.4378H21.7194V13.3736C21.8179 13.3564 21.8814 13.3341 21.9105 13.3064C21.9694 13.2505 22.0344 13.1378 22.106 12.9676L22.9344 11.0303H22.9926L23.8112 12.9885C23.8769 13.146 23.9366 13.2475 23.9903 13.2952C24.0441 13.3415 24.1187 13.3676 24.2157 13.3736V13.4378H23.2873V13.3736C23.3806 13.3691 23.4441 13.3535 23.4776 13.3273C23.5105 13.3005 23.5269 13.2676 23.5269 13.2296C23.5269 13.1781 23.5038 13.0982 23.4575 12.9878L23.3179 12.6527ZM23.2649 12.5251L22.8687 11.5751L22.4612 12.5251H23.2649ZM24.2082 11.0833H24.8411L26.2836 12.8512V11.4915C26.2836 11.3467 26.2664 11.2564 26.2344 11.2199C26.1911 11.1714 26.1224 11.1475 26.0291 11.1475H25.9463V11.0833H26.7732V11.1475H26.6888C26.5881 11.1475 26.5172 11.1773 26.4747 11.2378C26.4493 11.2751 26.4358 11.3602 26.4358 11.4915V13.4758H26.3732L24.8239 11.5796V13.0296C24.8239 13.1743 24.8396 13.2646 24.8709 13.3012C24.9157 13.3497 24.9844 13.3736 25.0769 13.3736H25.1612V13.4378H24.3336V13.3736H24.4164C24.5187 13.3736 24.5903 13.3438 24.6329 13.2833C24.6582 13.246 24.6709 13.1609 24.6709 13.0296V11.3923C24.603 11.3124 24.5508 11.2602 24.5164 11.2341C24.4806 11.2087 24.4291 11.1855 24.3612 11.1624C24.3276 11.1527 24.2761 11.1475 24.2082 11.1475V11.0833ZM27.8806 12.1318L28.7493 12.993C28.8918 13.137 29.0135 13.2348 29.1142 13.2863C29.2142 13.3378 29.3149 13.3669 29.4157 13.3736V13.4378H28.2948V13.3736C28.362 13.3736 28.4105 13.3624 28.4396 13.34C28.4694 13.3176 28.4844 13.2923 28.4844 13.2639C28.4844 13.2363 28.4784 13.2117 28.4679 13.19C28.4567 13.1676 28.4202 13.1266 28.359 13.0669L27.5478 12.2624V13.0221C27.5478 13.1415 27.556 13.2199 27.5709 13.2579C27.5821 13.287 27.6067 13.3117 27.6441 13.3326C27.6948 13.3602 27.7478 13.3736 27.8045 13.3736H27.8851V13.4378H26.8769V13.3736H26.9605C27.0582 13.3736 27.1284 13.3452 27.1724 13.2893C27.2008 13.252 27.2142 13.1632 27.2142 13.0221V11.499C27.2142 11.3796 27.2067 11.3005 27.1918 11.2617C27.1799 11.2341 27.156 11.2094 27.1202 11.1885C27.0694 11.1609 27.0157 11.1475 26.9605 11.1475H26.8769V11.0833H27.8851V11.1475H27.8045C27.7493 11.1475 27.6955 11.1602 27.6441 11.187C27.6082 11.2057 27.5829 11.2333 27.5694 11.2706C27.5552 11.3072 27.5478 11.3833 27.5478 11.499V12.2206C27.5709 12.1982 27.65 12.1251 27.7851 12.0005C28.1284 11.6855 28.3358 11.4751 28.4075 11.3699C28.4396 11.3229 28.4545 11.2826 28.4545 11.2482C28.4545 11.2214 28.4426 11.1982 28.4179 11.1773C28.3933 11.1572 28.353 11.1475 28.2948 11.1475H28.2418V11.0833H29.1075V11.1475C29.0567 11.1482 29.0105 11.1557 28.9687 11.1684C28.9269 11.1811 28.8761 11.2057 28.8164 11.243C28.756 11.2796 28.6821 11.3393 28.5941 11.4206C28.5687 11.4438 28.4508 11.5624 28.2411 11.7758L27.8806 12.1318ZM29.3373 11.0833H29.9694L31.412 12.8512V11.4915C31.412 11.3467 31.3955 11.2564 31.3627 11.2199C31.3194 11.1714 31.2508 11.1475 31.1575 11.1475H31.0747V11.0833H31.9015V11.1475H31.8179C31.7164 11.1475 31.6455 11.1773 31.603 11.2378C31.5776 11.2751 31.5642 11.3602 31.5642 11.4915V13.4758H31.5015L29.9523 11.5796V13.0296C29.9523 13.1743 29.9687 13.2646 30 13.3012C30.0441 13.3497 30.1127 13.3736 30.206 13.3736H30.2896V13.4378H29.4627V13.3736H29.5455C29.647 13.3736 29.7187 13.3438 29.7612 13.2833C29.7866 13.246 29.8 13.1609 29.8 13.0296V11.3923C29.7321 11.3124 29.6799 11.2602 29.6448 11.2341C29.609 11.2087 29.5575 11.1855 29.4896 11.1624C29.456 11.1527 29.4052 11.1475 29.3373 11.1475V11.0833ZM33.6448 11.0833H34.4657V11.1475H34.4209C34.3903 11.1475 34.3463 11.1609 34.2888 11.1878C34.2306 11.2139 34.1784 11.2527 34.1306 11.3027C34.0836 11.352 34.0254 11.4341 33.956 11.546L33.3903 12.4303V13.0296C33.3903 13.1743 33.4067 13.2646 33.4396 13.3012C33.4836 13.3497 33.5545 13.3736 33.65 13.3736H33.7276V13.4378H32.7194V13.3736H32.8038C32.9045 13.3736 32.9754 13.3438 33.0179 13.2833C33.0433 13.246 33.0567 13.1609 33.0567 13.0296V12.4788L32.4127 11.4833C32.3366 11.3684 32.2851 11.2967 32.2575 11.2684C32.2306 11.2393 32.1739 11.2049 32.0881 11.1646C32.0649 11.1535 32.0321 11.1475 31.9881 11.1475V11.0833H32.9911V11.1475H32.9396C32.8851 11.1475 32.8344 11.1602 32.7888 11.1855C32.7433 11.2109 32.7202 11.249 32.7202 11.2997C32.7202 11.3423 32.756 11.4169 32.8269 11.5258L33.3142 12.2848L33.7776 11.5594C33.8478 11.4505 33.8821 11.3691 33.8821 11.3161C33.8821 11.2833 33.8739 11.2542 33.8575 11.2288C33.8403 11.2035 33.8164 11.1833 33.7851 11.1691C33.7538 11.1542 33.7067 11.1475 33.6448 11.1475V11.0833ZM35.7463 12.6527H34.8344L34.6769 13.0214C34.6381 13.1124 34.6179 13.1811 34.6179 13.2266C34.6179 13.2617 34.6351 13.2938 34.6694 13.3214C34.703 13.3475 34.7769 13.3654 34.8896 13.3736V13.4378H34.1478V13.3736C34.2463 13.3564 34.3097 13.3341 34.3381 13.3064C34.3978 13.2505 34.4627 13.1378 34.5344 12.9676L35.362 11.0303H35.4209L36.2396 12.9885C36.3052 13.146 36.3649 13.2475 36.4187 13.2952C36.4724 13.3415 36.547 13.3676 36.6433 13.3736V13.4378H35.7157V13.3736C35.809 13.3691 35.8724 13.3535 35.9052 13.3273C35.9388 13.3005 35.9545 13.2676 35.9545 13.2296C35.9545 13.1781 35.9314 13.0982 35.8851 12.9878L35.7463 12.6527ZM35.6933 12.5251L35.2963 11.5751L34.8896 12.5251H35.6933ZM38.8276 13.4378L37.9187 11.4572V13.0296C37.9187 13.1743 37.9351 13.2646 37.9664 13.3012C38.0097 13.3497 38.0784 13.3736 38.1724 13.3736H38.256V13.4378H37.4291V13.3736H37.5135C37.6142 13.3736 37.6851 13.3438 37.7276 13.2833C37.753 13.246 37.7664 13.1609 37.7664 13.0296V11.4915C37.7664 11.3878 37.7545 11.3117 37.7314 11.2654C37.7149 11.2318 37.6844 11.2042 37.6403 11.1811C37.5963 11.1587 37.5261 11.1475 37.4291 11.1475V11.0833H38.1038L38.9523 12.9236L39.7933 11.0833H40.4612V11.1475H40.3791C40.2769 11.1475 40.2052 11.1773 40.1627 11.2378C40.1366 11.2751 40.1239 11.3602 40.1239 11.4915V13.0296C40.1239 13.1743 40.1403 13.2646 40.1732 13.3012C40.2164 13.3497 40.2851 13.3736 40.3791 13.3736H40.4612V13.4378H39.453V13.3736H39.5373C39.6388 13.3736 39.7105 13.3438 39.7515 13.2833C39.7769 13.246 39.7903 13.1609 39.7903 13.0296V11.4572L38.8844 13.4378H38.8276ZM42.1597 12.6527H41.2478L41.0903 13.0214C41.0515 13.1124 41.0314 13.1811 41.0314 13.2266C41.0314 13.2617 41.0485 13.2938 41.0829 13.3214C41.1164 13.3475 41.1903 13.3654 41.3038 13.3736V13.4378H40.5612V13.3736C40.6597 13.3564 40.7232 13.3341 40.7515 13.3064C40.8112 13.2505 40.8761 13.1378 40.9478 12.9676L41.7754 11.0303H41.8344L42.653 12.9885C42.7187 13.146 42.7784 13.2475 42.8321 13.2952C42.8858 13.3415 42.9605 13.3676 43.0567 13.3736V13.4378H42.1291V13.3736C42.2224 13.3691 42.2858 13.3535 42.3187 13.3273C42.3523 13.3005 42.3679 13.2676 42.3679 13.2296C42.3679 13.1781 42.3448 13.0982 42.2985 12.9878L42.1597 12.6527ZM42.1067 12.5251L41.7097 11.5751L41.303 12.5251H42.1067ZM44.7269 11.0303V11.843H44.6635C44.6426 11.687 44.6052 11.5624 44.5515 11.4706C44.4978 11.3781 44.4202 11.3049 44.3202 11.2505C44.2209 11.196 44.1179 11.1684 44.0112 11.1684C43.8911 11.1684 43.7911 11.2057 43.7127 11.2788C43.6336 11.352 43.5941 11.4363 43.5941 11.5296C43.5941 11.6012 43.6194 11.6669 43.6687 11.7258C43.7411 11.8124 43.9112 11.9288 44.1814 12.0729C44.4015 12.1915 44.5515 12.2818 44.6321 12.3445C44.7127 12.4079 44.7747 12.4818 44.8179 12.5676C44.8612 12.6535 44.8836 12.743 44.8836 12.837C44.8836 13.0154 44.8142 13.1684 44.6761 13.2975C44.5373 13.4266 44.3597 13.4908 44.1426 13.4908C44.0739 13.4908 44.0097 13.4855 43.9493 13.4751C43.9135 13.4691 43.8396 13.4475 43.7261 13.4109C43.6142 13.3743 43.5426 13.3557 43.512 13.3557C43.4829 13.3557 43.4597 13.3646 43.4433 13.3818C43.4269 13.3997 43.4142 13.4355 43.406 13.4908H43.3426V12.6848H43.406C43.4366 12.8535 43.4761 12.9803 43.5276 13.0639C43.5784 13.1475 43.6567 13.2176 43.7612 13.2729C43.8657 13.3281 43.9806 13.3557 44.1052 13.3557C44.25 13.3557 44.3649 13.3176 44.4485 13.2415C44.5321 13.1639 44.5746 13.0736 44.5746 12.9699C44.5746 12.9117 44.5582 12.8527 44.5269 12.7938C44.4948 12.7348 44.4463 12.6796 44.3791 12.6281C44.3344 12.593 44.2105 12.5199 44.0082 12.4072C43.8067 12.2952 43.6627 12.2057 43.5776 12.1385C43.4926 12.0721 43.4276 11.9975 43.3836 11.9169C43.3396 11.8355 43.3172 11.746 43.3172 11.649C43.3172 11.4803 43.3821 11.3348 43.512 11.2132C43.6418 11.0908 43.8075 11.0303 44.0075 11.0303C44.1329 11.0303 44.2657 11.0609 44.406 11.1221C44.4709 11.1512 44.5164 11.1654 44.5433 11.1654C44.5732 11.1654 44.5978 11.1564 44.6172 11.1385C44.6358 11.1199 44.6515 11.0848 44.6635 11.0303H44.7269ZM46.7679 11.0833H47.5888V11.1475H47.5441C47.5142 11.1475 47.4702 11.1609 47.412 11.1878C47.3538 11.2139 47.3023 11.2527 47.2538 11.3027C47.2067 11.352 47.1485 11.4341 47.0791 11.546L46.5135 12.4303V13.0296C46.5135 13.1743 46.5306 13.2646 46.5627 13.3012C46.6075 13.3497 46.6776 13.3736 46.7739 13.3736H46.8508V13.4378H45.8426V13.3736H45.9269C46.0276 13.3736 46.0985 13.3438 46.1418 13.2833C46.1672 13.246 46.1799 13.1609 46.1799 13.0296V12.4788L45.5358 11.4833C45.4597 11.3684 45.4082 11.2967 45.3806 11.2684C45.3538 11.2393 45.2978 11.2049 45.212 11.1646C45.1888 11.1535 45.1552 11.1475 45.1112 11.1475V11.0833H46.1149V11.1475H46.0627C46.0082 11.1475 45.9582 11.1602 45.9127 11.1855C45.8672 11.2109 45.8441 11.249 45.8441 11.2997C45.8441 11.3423 45.8791 11.4169 45.95 11.5258L46.4373 12.2848L46.9015 11.5594C46.9709 11.4505 47.0052 11.3691 47.0052 11.3161C47.0052 11.2833 46.997 11.2542 46.9806 11.2288C46.9635 11.2035 46.9396 11.1833 46.9082 11.1691C46.8769 11.1542 46.8306 11.1475 46.7679 11.1475V11.0833ZM48.8694 12.6527H47.9575L47.8 13.0214C47.7612 13.1124 47.7411 13.1811 47.7411 13.2266C47.7411 13.2617 47.7582 13.2938 47.7926 13.3214C47.8261 13.3475 47.9 13.3654 48.0135 13.3736V13.4378H47.2709V13.3736C47.3694 13.3564 47.4329 13.3341 47.462 13.3064C47.5209 13.2505 47.5858 13.1378 47.6575 12.9676L48.4858 11.0303H48.5441L49.3627 12.9885C49.4284 13.146 49.4881 13.2475 49.5418 13.2952C49.5955 13.3415 49.6702 13.3676 49.7672 13.3736V13.4378H48.8388V13.3736C48.9321 13.3691 48.9955 13.3535 49.0291 13.3273C49.062 13.3005 49.0784 13.2676 49.0784 13.2296C49.0784 13.1781 49.0552 13.0982 49.009 12.9878L48.8694 12.6527ZM48.8164 12.5251L48.4202 11.5751L48.0127 12.5251H48.8164ZM52.209 13.4378H51.5784L50.7791 12.337C50.7217 12.3393 50.6747 12.3408 50.6388 12.3408C50.6239 12.3408 50.6082 12.34 50.5911 12.3393C50.5739 12.3385 50.5567 12.3378 50.5388 12.337V13.0221C50.5388 13.1699 50.5545 13.2617 50.5873 13.2975C50.6306 13.3482 50.6963 13.3736 50.7844 13.3736H50.8761V13.4378H49.8672V13.3736H49.956C50.0552 13.3736 50.1261 13.3415 50.1687 13.2766C50.1933 13.2415 50.2045 13.1557 50.2045 13.0221V11.499C50.2045 11.3512 50.1888 11.2594 50.156 11.2236C50.1112 11.1729 50.0441 11.1475 49.956 11.1475H49.8672V11.0833H50.7247C50.9747 11.0833 51.159 11.102 51.2769 11.1378C51.3963 11.1743 51.497 11.2423 51.5791 11.3393C51.662 11.437 51.703 11.5542 51.703 11.6893C51.703 11.8348 51.656 11.9602 51.562 12.0661C51.4672 12.1729 51.3217 12.2482 51.1232 12.2923L51.6105 12.9669C51.7217 13.1214 51.8172 13.2251 51.897 13.2758C51.9761 13.3273 52.0806 13.3594 52.209 13.3736V13.4378ZM50.5388 12.2266C50.5605 12.2266 50.5791 12.2266 50.5955 12.2273C50.6112 12.2281 50.6247 12.2288 50.6344 12.2288C50.8567 12.2288 51.0239 12.1803 51.1366 12.0833C51.2493 11.9855 51.3052 11.8617 51.3052 11.7117C51.3052 11.5646 51.2597 11.4452 51.1694 11.3527C51.0784 11.2609 50.9575 11.2146 50.8082 11.2146C50.7418 11.2146 50.6515 11.2251 50.5388 11.2467V12.2266ZM53.8023 12.6527H52.8903L52.7329 13.0214C52.6941 13.1124 52.6739 13.1811 52.6739 13.2266C52.6739 13.2617 52.6911 13.2938 52.7254 13.3214C52.759 13.3475 52.8329 13.3654 52.9463 13.3736V13.4378H52.2038V13.3736C52.3023 13.3564 52.3657 13.3341 52.3948 13.3064C52.4538 13.2505 52.5187 13.1378 52.5903 12.9676L53.4187 11.0303H53.4769L54.2955 12.9885C54.3612 13.146 54.4209 13.2475 54.4747 13.2952C54.5284 13.3415 54.603 13.3676 54.6993 13.3736V13.4378H53.7717V13.3736C53.865 13.3691 53.9284 13.3535 53.962 13.3273C53.9948 13.3005 54.0105 13.2676 54.0105 13.2296C54.0105 13.1781 53.9873 13.0982 53.9418 12.9878L53.8023 12.6527ZM53.7493 12.5251L53.353 11.5751L52.9455 12.5251H53.7493ZM55.8 12.1318L56.6694 12.993C56.812 13.137 56.9329 13.2348 57.0336 13.2863C57.1344 13.3378 57.2351 13.3669 57.3358 13.3736V13.4378H56.215V13.3736C56.2821 13.3736 56.3299 13.3624 56.3597 13.34C56.3896 13.3176 56.4038 13.2923 56.4038 13.2639C56.4038 13.2363 56.3978 13.2117 56.3873 13.19C56.3761 13.1676 56.3403 13.1266 56.2791 13.0669L55.4679 12.2624V13.0221C55.4679 13.1415 55.4754 13.2199 55.4911 13.2579C55.5023 13.287 55.5269 13.3117 55.5642 13.3326C55.6142 13.3602 55.6679 13.3736 55.7239 13.3736H55.8053V13.4378H54.797V13.3736H54.8799C54.9776 13.3736 55.0485 13.3452 55.0926 13.2893C55.1202 13.252 55.1344 13.1632 55.1344 13.0221V11.499C55.1344 11.3796 55.1261 11.3005 55.1112 11.2617C55.1 11.2341 55.0761 11.2094 55.0396 11.1885C54.9888 11.1609 54.9358 11.1475 54.8799 11.1475H54.797V11.0833H55.8053V11.1475H55.7239C55.6687 11.1475 55.6157 11.1602 55.5642 11.187C55.5284 11.2057 55.503 11.2333 55.4888 11.2706C55.4746 11.3072 55.4679 11.3833 55.4679 11.499V12.2206C55.4911 12.1982 55.5702 12.1251 55.7052 12.0005C56.0485 11.6855 56.256 11.4751 56.3276 11.3699C56.359 11.3229 56.3746 11.2826 56.3746 11.2482C56.3746 11.2214 56.362 11.1982 56.3381 11.1773C56.3135 11.1572 56.2724 11.1475 56.215 11.1475H56.1612V11.0833H57.0269V11.1475C56.9761 11.1482 56.9299 11.1557 56.8888 11.1684C56.847 11.1811 56.7955 11.2057 56.7358 11.243C56.6754 11.2796 56.6015 11.3393 56.5142 11.4206C56.4888 11.4438 56.3709 11.5624 56.1605 11.7758L55.8 12.1318ZM58.9314 12.6527H58.0194L57.862 13.0214C57.8224 13.1124 57.8023 13.1811 57.8023 13.2266C57.8023 13.2617 57.8194 13.2938 57.8538 13.3214C57.8881 13.3475 57.962 13.3654 58.0747 13.3736V13.4378H57.3329V13.3736C57.4306 13.3564 57.4941 13.3341 57.5232 13.3064C57.5821 13.2505 57.6478 13.1378 57.7194 12.9676L58.547 11.0303H58.6052L59.4239 12.9885C59.4896 13.146 59.5493 13.2475 59.6038 13.2952C59.6575 13.3415 59.7321 13.3676 59.8284 13.3736V13.4378H58.9V13.3736C58.9941 13.3691 59.0575 13.3535 59.0903 13.3273C59.1232 13.3005 59.1396 13.2676 59.1396 13.2296C59.1396 13.1781 59.1164 13.0982 59.0702 12.9878L58.9314 12.6527ZM58.8776 12.5251L58.4814 11.5751L58.0739 12.5251H58.8776ZM61.5306 11.0833L61.556 11.637H61.4903C61.4769 11.54 61.4597 11.4699 61.4381 11.4288C61.4023 11.3617 61.3545 11.3117 61.2948 11.2803C61.2351 11.2482 61.1567 11.2326 61.0597 11.2326H60.7284V13.0296C60.7284 13.1743 60.7441 13.2646 60.7754 13.3012C60.8187 13.3497 60.8866 13.3736 60.9776 13.3736H61.059V13.4378H60.0575V13.3736H60.1418C60.2426 13.3736 60.3135 13.3438 60.356 13.2833C60.3814 13.246 60.3948 13.1609 60.3948 13.0296V11.2326H60.1127C60.0023 11.2326 59.9239 11.2408 59.8776 11.2572C59.8179 11.2788 59.7664 11.3206 59.7232 11.3833C59.6806 11.446 59.6552 11.5303 59.647 11.637H59.5814L59.606 11.0833H61.5306ZM64.506 12.7878L64.5627 12.8005L64.3605 13.4378H62.5388V13.3736H62.6269C62.7261 13.3736 62.797 13.3415 62.8403 13.2773C62.8642 13.2408 62.8761 13.1557 62.8761 13.0221V11.499C62.8761 11.352 62.8597 11.2602 62.8276 11.2236C62.7829 11.1729 62.7157 11.1475 62.6269 11.1475H62.5388V11.0833H63.6038V11.1475C63.4791 11.146 63.3918 11.1572 63.3403 11.1818C63.2903 11.2057 63.256 11.2363 63.2373 11.2721C63.2194 11.3087 63.2097 11.3967 63.2097 11.5341V13.0184C63.2097 13.1154 63.2194 13.1811 63.2373 13.2169C63.2515 13.2415 63.2732 13.2594 63.3023 13.2714C63.3306 13.2826 63.4209 13.2885 63.5732 13.2885H63.7448C63.9261 13.2885 64.0523 13.2758 64.1254 13.249C64.1985 13.2221 64.265 13.1751 64.3254 13.1072C64.3851 13.04 64.4455 12.9333 64.506 12.7878ZM66.2635 12.6527H65.3515L65.1941 13.0214C65.1552 13.1124 65.1351 13.1811 65.1351 13.2266C65.1351 13.2617 65.1523 13.2938 65.1866 13.3214C65.2202 13.3475 65.2941 13.3654 65.4075 13.3736V13.4378H64.6649V13.3736C64.7635 13.3564 64.8269 13.3341 64.856 13.3064C64.9149 13.2505 64.9799 13.1378 65.0515 12.9676L65.8799 11.0303H65.9381L66.7567 12.9885C66.8224 13.146 66.8821 13.2475 66.9358 13.2952C66.9896 13.3415 67.0642 13.3676 67.1605 13.3736V13.4378H66.2329V13.3736C66.3261 13.3691 66.3896 13.3535 66.4224 13.3273C66.456 13.3005 66.4717 13.2676 66.4717 13.2296C66.4717 13.1781 66.4485 13.0982 66.4023 12.9878L66.2635 12.6527ZM66.2105 12.5251L65.8135 11.5751L65.4067 12.5251H66.2105ZM68.653 13.4378L67.7441 11.4572V13.0296C67.7441 13.1743 67.7605 13.2646 67.7918 13.3012C67.8351 13.3497 67.9038 13.3736 67.9978 13.3736H68.0814V13.4378H67.2545V13.3736H67.3388C67.4396 13.3736 67.5105 13.3438 67.553 13.2833C67.5784 13.246 67.5918 13.1609 67.5918 13.0296V11.4915C67.5918 11.3878 67.5799 11.3117 67.5567 11.2654C67.5403 11.2318 67.5097 11.2042 67.4664 11.1811C67.4217 11.1587 67.3515 11.1475 67.2545 11.1475V11.0833H67.9291L68.7776 12.9236L69.6187 11.0833H70.2866V11.1475H70.2045C70.1023 11.1475 70.0306 11.1773 69.9881 11.2378C69.9627 11.2751 69.9493 11.3602 69.9493 11.4915V13.0296C69.9493 13.1743 69.9657 13.2646 69.9985 13.3012C70.0418 13.3497 70.1105 13.3736 70.2045 13.3736H70.2866V13.4378H69.2784V13.3736H69.3627C69.4649 13.3736 69.5358 13.3438 69.5769 13.2833C69.6023 13.246 69.6157 13.1609 69.6157 13.0296V11.4572L68.7105 13.4378H68.653ZM71.0866 12.3341V13.0221C71.0866 13.1699 71.1023 13.2617 71.1351 13.2975C71.1784 13.3482 71.2448 13.3736 71.3336 13.3736H71.4239V13.4378H70.4149V13.3736H70.5038C70.603 13.3736 70.6746 13.3415 70.7179 13.2766C70.7403 13.2415 70.7523 13.1557 70.7523 13.0221V11.499C70.7523 11.3512 70.7373 11.2594 70.706 11.2236C70.6605 11.1729 70.5933 11.1475 70.5038 11.1475H70.4149V11.0833H71.2776C71.4888 11.0833 71.6545 11.1049 71.7761 11.1482C71.8978 11.1915 72 11.2654 72.0836 11.3684C72.1672 11.4714 72.2082 11.593 72.2082 11.7341C72.2082 11.9258 72.1448 12.0826 72.0187 12.2027C71.8918 12.3229 71.7127 12.3833 71.4814 12.3833C71.4247 12.3833 71.3635 12.3788 71.2978 12.3706C71.2321 12.3632 71.1612 12.3505 71.0866 12.3341ZM71.0866 12.2348C71.147 12.246 71.2015 12.2549 71.2493 12.2602C71.2955 12.2661 71.3366 12.2691 71.3694 12.2691C71.4896 12.2691 71.5926 12.2229 71.6799 12.1296C71.7664 12.037 71.8105 11.9169 71.8105 11.7691C71.8105 11.6676 71.7896 11.5729 71.7485 11.4855C71.7067 11.399 71.6478 11.3341 71.5724 11.2908C71.4955 11.2475 71.409 11.2251 71.3127 11.2251C71.2538 11.2251 71.1784 11.237 71.0866 11.2587V12.2348ZM74.0306 11.1475V11.0833H74.8582V11.1475H74.7694C74.6776 11.1475 74.606 11.1855 74.5567 11.2632C74.5321 11.2997 74.5202 11.3826 74.5202 11.5132V12.4669C74.5202 12.7035 74.4978 12.8863 74.4508 13.0161C74.4038 13.1467 74.3112 13.2587 74.1746 13.3512C74.0381 13.4445 73.8523 13.4908 73.6172 13.4908C73.3605 13.4908 73.1657 13.4467 73.0336 13.3572C72.9 13.2684 72.806 13.1482 72.7508 12.9982C72.7135 12.8952 72.6955 12.702 72.6955 12.4184V11.499C72.6955 11.3542 72.6754 11.2602 72.6358 11.2146C72.5963 11.1699 72.5314 11.1475 72.4426 11.1475H72.3545V11.0833H73.3702V11.1475H73.2799C73.1829 11.1475 73.1135 11.1781 73.0724 11.2393C73.0433 11.2803 73.0291 11.3676 73.0291 11.499V12.5243C73.0291 12.6154 73.0373 12.7206 73.0538 12.8385C73.0709 12.9564 73.1015 13.0482 73.1455 13.1146C73.1896 13.1803 73.253 13.2348 73.3351 13.2781C73.4179 13.3206 73.5194 13.3415 73.6396 13.3415C73.7933 13.3415 73.9314 13.3079 74.0523 13.2415C74.1739 13.1743 74.2567 13.0878 74.3008 12.9841C74.3455 12.8788 74.3679 12.7012 74.3679 12.452V11.499C74.3679 11.352 74.3515 11.2602 74.3194 11.2236C74.2746 11.1729 74.2075 11.1475 74.1187 11.1475H74.0306ZM74.85 11.0833H75.4829L76.9254 12.8512V11.4915C76.9254 11.3467 76.9082 11.2564 76.8761 11.2199C76.8329 11.1714 76.7642 11.1475 76.6709 11.1475H76.5881V11.0833H77.415V11.1475H77.3314C77.2299 11.1475 77.159 11.1773 77.1164 11.2378C77.0911 11.2751 77.0776 11.3602 77.0776 11.4915V13.4758H77.015L75.4657 11.5796V13.0296C75.4657 13.1743 75.4814 13.2646 75.5127 13.3012C75.5575 13.3497 75.6261 13.3736 75.7187 13.3736H75.803V13.4378H74.9754V13.3736H75.0582C75.1605 13.3736 75.2321 13.3438 75.2746 13.2833C75.3 13.246 75.3127 13.1609 75.3127 13.0296V11.3923C75.2448 11.3124 75.1926 11.2602 75.1582 11.2341C75.1224 11.2087 75.0709 11.1855 75.003 11.1624C74.9694 11.1527 74.9179 11.1475 74.85 11.1475V11.0833ZM79.6388 11.0303L79.6993 11.7721H79.6351C79.5739 11.5885 79.4948 11.4497 79.3985 11.3564C79.2582 11.2221 79.0791 11.1542 78.8605 11.1542C78.562 11.1542 78.3351 11.2729 78.1791 11.5102C78.0485 11.7094 77.9836 11.9482 77.9836 12.2243C77.9836 12.449 78.0269 12.6527 78.1142 12.8378C78.2008 13.0229 78.3142 13.1587 78.4545 13.2445C78.5948 13.3303 78.7388 13.3736 78.8866 13.3736C78.9732 13.3736 79.0575 13.3624 79.1381 13.3408C79.2187 13.3184 79.297 13.2863 79.3724 13.243V12.5609C79.3724 12.4423 79.3635 12.3646 79.3455 12.3288C79.3276 12.2923 79.2993 12.2639 79.262 12.2452C79.2239 12.2258 79.1582 12.2161 79.0635 12.2161V12.152H79.9724V12.2161H79.9291C79.8388 12.2161 79.7776 12.246 79.7441 12.3064C79.7209 12.349 79.7097 12.4341 79.7097 12.5609V13.2818C79.5769 13.3542 79.4455 13.4072 79.3164 13.4408C79.1873 13.4743 79.0433 13.4908 78.8851 13.4908C78.4314 13.4908 78.0866 13.3452 77.8515 13.0535C77.6747 12.8348 77.5858 12.5826 77.5858 12.2975C77.5858 12.09 77.6358 11.8915 77.7351 11.702C77.853 11.4766 78.0149 11.3027 78.2202 11.1811C78.3918 11.0803 78.5948 11.0303 78.8299 11.0303C78.9149 11.0303 78.9926 11.037 79.0627 11.0512C79.1329 11.0654 79.2314 11.0952 79.3597 11.143C79.4246 11.1669 79.4679 11.1796 79.4903 11.1796C79.512 11.1796 79.5299 11.1691 79.5463 11.149C79.5612 11.1288 79.5709 11.0893 79.5746 11.0303H79.6388Z" fill="#DD1717"/>
</g>
</g>
<defs>
<clipPath id="clip0_1801_2170">
<rect width="80" height="17.9104" fill="white" transform="translate(0.5)"/>
</clipPath>
<clipPath id="clip1_1801_2170">
<rect width="80" height="17.9104" fill="white" transform="translate(0.5)"/>
</clipPath>
</defs>
</svg>
