<svg width="80" height="24" viewBox="0 0 80 24" fill="none" xmlns="http://www.w3.org/2000/svg">
<g clip-path="url(#clip0_1801_2797)">
<path fill-rule="evenodd" clip-rule="evenodd" d="M0 8.13519L6.74901 16.6488L0 22.2413V8.13519Z" fill="#F15A23"/>
<path fill-rule="evenodd" clip-rule="evenodd" d="M2.71631 22.2412L7.7946 17.993L11.3046 22.2412H2.71631Z" fill="#F15A23"/>
<path fill-rule="evenodd" clip-rule="evenodd" d="M0 3.57964L1.76124 5.80753L9.00279 14.8564L11.3493 12.9878C11.3493 12.9878 9.40129 10.6944 8.09326 8.13516C5.53591 3.13155 7.34645 0.0162964 7.34645 0.0162964H0V3.57964Z" fill="#F15A23"/>
<path fill-rule="evenodd" clip-rule="evenodd" d="M10.0349 16.2533L12.4247 14.2794C12.4247 14.2794 14.7071 17.2839 17.3536 17.993C20.8217 18.9223 22.3572 16.6488 22.3572 16.6488V22.2413H14.7398L16.4575 20.7562C16.4575 20.7562 15.5613 21.3537 13.3695 19.8355C12.0759 18.9395 10.0349 16.2533 10.0349 16.2533Z" fill="#F15A23"/>
<path fill-rule="evenodd" clip-rule="evenodd" d="M10.2548 0C10.2548 0 9.49239 1.03855 10.0351 3.57963C10.6151 6.29571 12.9219 9.17037 12.9166 9.10601C12.9166 9.10601 13.0649 6.2516 14.7399 4.57654C18.3104 1.00611 22.3574 3.13155 22.3574 3.13155V0.0162955L10.2548 0Z" fill="#F15A23"/>
<path fill-rule="evenodd" clip-rule="evenodd" d="M22.3573 6.89552C22.3573 6.89552 20.0993 4.96149 18.1363 4.96149C15.6251 4.96149 14.2544 7.12947 14.2544 8.70212C14.2544 10.9928 15.3539 12.2656 16.4575 13.3692C18.0434 14.9551 19.9728 16.6656 22.3573 15.2889C22.3573 12.6834 22.3573 6.89552 22.3573 6.89552Z" fill="#F15A23"/>
<path fill-rule="evenodd" clip-rule="evenodd" d="M48.0718 0.233032H53.3999C53.3999 0.233032 58.12 7.37991 60.4397 10.3327C62.7594 13.2855 65.2563 16.6488 65.2563 16.6488C65.2563 16.6488 65.2563 6.89555 65.2563 1.83357C65.2563 1.19371 63.5763 0.233032 63.5763 0.233032H69.7205C69.7205 0.233032 67.7044 1.06132 67.7044 1.83357C67.7044 8.13519 67.7044 23.3862 67.7044 23.3862C67.7044 23.3862 65.7699 22.3135 63.5763 19.7645C61.1115 16.9005 52.3439 5.33768 52.3439 5.33768C52.3439 5.33768 52.3439 16.2534 52.3439 20.3141C52.3439 21.0812 54.024 22.2413 54.024 22.2413H48.0718C48.0718 22.2413 49.7038 21.0718 49.7038 20.3141C49.7038 14.8565 49.7038 6.89555 49.7038 1.83357C49.7038 1.15344 48.0718 0.233032 48.0718 0.233032Z" fill="#005E6A"/>
<path fill-rule="evenodd" clip-rule="evenodd" d="M73.1616 0.233032H80C80 0.233032 78.1638 1.10281 78.1638 1.83357C78.1638 6.89555 78.1638 15.2889 78.1638 20.3141C78.1638 21.1127 80 22.2413 80 22.2413H73.1616C73.1616 22.2413 74.8712 21.087 74.8712 20.3141C74.8712 14.2795 74.8712 6.89555 74.8712 1.83357C74.8712 1.131 73.1616 0.233032 73.1616 0.233032Z" fill="#005E6A"/>
<path fill-rule="evenodd" clip-rule="evenodd" d="M27.9526 0.233032C27.9526 0.233032 29.7255 1.11702 29.7255 1.83357C29.7255 6.89555 29.7255 14.2795 29.7255 20.3141C29.7255 21.0997 27.9526 22.2413 27.9526 22.2413C27.9526 22.2413 36.8096 22.2413 38.0835 22.2413C38.7167 22.2413 45.8083 21.0817 45.8083 15.6144C45.8083 10.147 40.2996 9.63509 40.2996 9.63509C40.2996 9.63509 43.6555 8.70215 43.6555 4.96152C43.6555 0.92953 38.7167 0.233032 38.0835 0.233032C36.7677 0.233032 27.9526 0.233032 27.9526 0.233032ZM33.3347 9.27277V2.3923C33.3347 2.3923 36.2712 2.3923 37.4503 2.3923C38.0835 2.3923 40.2996 3.13158 40.2996 5.87442C40.2996 8.13519 38.0835 9.27277 37.4503 9.27277C36.0148 9.27277 33.3347 9.27277 33.3347 9.27277ZM33.3347 11.0773C33.3347 11.0773 37.4503 11.0773 38.0835 11.0773C38.7167 11.0773 42.4525 12.0477 42.4525 15.2889C42.4525 18.5934 38.7167 19.7645 38.0835 19.7645C37.4503 19.7645 33.3347 19.7645 33.3347 19.7645V11.0773Z" fill="#005E6A"/>
</g>
<defs>
<clipPath id="clip0_1801_2797">
<rect width="80" height="23.3862" fill="white"/>
</clipPath>
</defs>
</svg>
