<svg width="50" height="80" viewBox="0 0 50 80" fill="none" xmlns="http://www.w3.org/2000/svg">
<g clip-path="url(#clip0_1801_2744)">
<g clip-path="url(#clip1_1801_2744)">
<path d="M14.5312 56.0724C14.242 56.0724 13.9578 56.0922 13.6772 56.1236H15.3853C15.1047 56.0922 14.8203 56.0724 14.5312 56.0724Z" fill="#00529C"/>
<path d="M11.0267 68.3585C12.3739 68.3585 13.3726 68.7077 14.0227 69.4046C14.6335 70.0907 14.9417 70.9005 14.9417 71.8375C14.9417 72.8025 14.5922 73.6273 13.8943 74.3126C13.1956 74.9981 12.0475 75.3407 10.4483 75.3407H9.85014H5.02324V68.3585H11.0267ZM11.799 58.159C12.1591 58.2965 12.46 58.475 12.6947 58.6999C13.304 59.2844 13.6086 59.9823 13.6086 60.7944C13.6086 61.5308 13.4813 62.1401 13.2278 62.6223C12.9738 63.1047 12.72 63.4731 12.4666 63.7264H5.02324V57.8432H9.65009C10.5174 57.8432 11.2315 57.9498 11.799 58.159ZM16.5327 65.1847C16.7108 65.0067 16.9212 64.777 17.1638 64.4965C17.4056 64.2164 17.6353 63.8846 17.8521 63.5023C18.0684 63.1199 18.2535 62.6934 18.4067 62.2214C18.5594 61.7499 18.6361 61.2462 18.6361 60.7109C18.6361 59.666 18.4576 58.6908 18.1008 57.7857C17.7435 56.8812 17.1955 56.0906 16.4565 55.415C15.7168 54.7398 14.793 54.2106 13.6841 53.8279C12.5752 53.4456 11.2812 53.2544 9.80304 53.2544H9.76278H5.51325H4.40636H0.0522461V58.1289V75.0029V80.021H10.759C12.3136 80.021 13.6709 79.8108 14.8313 79.3902C15.9911 78.9693 16.9534 78.3899 17.7184 77.6502C18.4829 76.9113 19.0502 76.0508 19.4201 75.0692C19.7891 74.0882 19.9742 73.0368 19.9742 71.9145C19.9742 70.4107 19.6303 69.0724 18.942 67.8997C18.2535 66.7275 17.4507 65.8221 16.5327 65.1847Z" fill="#00529C"/>
<path d="M32.2957 57.8428C32.6146 57.8428 32.9149 57.8633 33.2013 57.8998C34.1053 58.036 34.843 58.3586 35.4118 58.8712C36.1857 59.5694 36.5734 60.4263 36.5734 61.4413C36.5734 61.9495 36.4903 62.4446 36.3257 62.9265C36.1603 63.4089 35.9003 63.8346 35.545 64.202C35.1892 64.5702 34.7324 64.8685 34.1742 65.097C33.6153 65.3256 32.9425 65.4398 32.1559 65.4398H26.7897V57.8428H32.2957ZM38.1272 68.4921C38.93 67.9443 39.5993 67.3064 40.1346 66.5801C40.6699 65.8536 41.065 65.0506 41.32 64.1711C41.5745 63.2916 41.7024 62.3932 41.7024 61.4754C41.7024 60.2774 41.5046 59.1751 41.1098 58.1677C40.7143 57.1611 40.1214 56.2943 39.3316 55.5677C38.5413 54.841 37.5536 54.274 36.3682 53.866C35.1829 53.4588 33.8121 53.2542 32.2577 53.2542H32.118H21.8187H21.7219V80.0206H26.7897V70.0788H29.6155L36.6038 80.0206H42.5436L35.3166 69.7347C36.3872 69.4546 37.324 69.0406 38.1272 68.4921Z" fill="#00529C"/>
<path d="M44.3329 53.2544V53.262C44.2818 53.2605 44.2319 53.2544 44.18 53.2544H44.1375V53.2567V63.0673V70.0976V80.0208H49.3039V53.2544H44.3329Z" fill="#00529C"/>
<path d="M9.09292 0.0348073C7.33945 0.239021 6.12158 0.62192 4.8527 1.37495C2.13004 2.98313 0.38294 5.70171 0.0705029 8.81596C0.0194917 9.33925 0.0067402 13.8383 0.0194917 25.1083C0.0449969 39.3075 0.0513706 40.7242 0.153394 41.1901C0.529593 43.028 1.19272 44.4256 2.32132 45.7849C3.89626 47.6866 6.22997 48.9246 8.75498 49.199C9.64128 49.2948 39.6799 49.2884 40.5725 49.1926C42.2941 49.0076 44.0157 48.3247 45.4313 47.259C46.0689 46.774 47.0763 45.7083 47.5482 45.019C48.5684 43.5257 49.104 41.9495 49.2315 40.1052C49.308 39.0203 49.308 10.2391 49.2315 9.15418C49.0594 6.66533 48.1157 4.55301 46.3941 2.83634C45.0296 1.46429 43.4992 0.634675 41.4843 0.175196L40.8467 0.0348009L25.0655 0.0220378C16.3874 0.0156492 9.20132 0.0220443 9.09292 0.0348073ZM15.4692 5.73362C17.4713 6.28882 19.1355 7.93529 19.6584 9.86893C19.8624 10.6347 19.8433 11.7132 19.6201 12.4726C19.4033 13.2001 19.0781 13.8638 18.6318 14.4765C18.1982 15.0827 18.5808 14.6743 13.2056 20.4178C10.6997 23.0981 8.64658 25.3253 8.64658 25.37C8.64658 25.4784 12.9378 29.6201 16.1387 32.6004C18.0962 34.4255 18.8359 35.4147 19.3013 36.8505C19.5436 37.5908 19.5883 38.848 19.397 39.6457C19.1292 40.7625 18.5744 41.7134 17.6881 42.5685C17.1015 43.1365 16.534 43.5194 16.1068 43.647C15.9219 43.6981 14.8953 43.7108 12.4086 43.6981L8.96539 43.6789L8.4808 43.5066C7.11628 43.0216 6.17897 42.0516 5.70075 40.6476C5.59235 40.3094 5.58597 39.6776 5.56684 24.885C5.54771 7.63535 5.51583 8.94997 6.01318 7.91614C6.38938 7.1312 7.08439 6.44837 7.91331 6.03356C8.857 5.5677 8.99728 5.55493 12.1854 5.57408C14.8316 5.58685 14.9846 5.59322 15.4692 5.73362ZM29.9433 5.86764C31.1931 6.29521 32.4811 7.4439 33.0996 8.68194C34.3238 11.1134 33.514 13.7617 30.6256 16.7483C29.1973 18.2289 22.6744 25.2934 22.6744 25.3636C22.6744 25.4019 26.6276 29.5244 31.4545 34.5276C39.0677 42.409 40.2155 43.6215 40.0943 43.6598C40.0178 43.6789 36.3132 43.6981 31.8626 43.7044C25.4162 43.7108 23.7838 43.6917 23.8093 43.6279C24.8423 41.2475 25.0973 40.2009 25.0846 38.3183C25.0655 35.0956 23.6818 32.1345 20.9464 29.4797C20.5638 29.1096 19.3842 27.9928 18.3194 26.9973C17.2545 26.0017 16.3937 25.1657 16.4065 25.1402C16.4192 25.1147 17.7519 23.6788 19.3715 21.943C22.5596 18.5224 22.7636 18.2927 23.4204 17.2908C25.0973 14.7317 25.7158 11.777 25.1547 9.02655C24.9953 8.22885 24.6127 7.14397 24.2047 6.3335L23.7336 5.54855H25.4289C26.9806 5.54482 28.5736 5.41203 29.9433 5.86764ZM40.445 5.64428C41.9052 5.9506 43.1294 7.14397 43.5949 8.70747C43.7097 9.07122 43.716 9.77959 43.7288 22.3004C43.7415 29.5627 43.7415 36.3528 43.7352 37.3802L43.7161 39.25L37.021 32.3196C33.3419 28.5097 30.3259 25.3508 30.3259 25.3061C30.3259 25.2615 31.3142 24.1702 32.5257 22.8811C35.395 19.8307 35.7075 19.4861 36.2749 18.733C38.0731 16.3591 39.0295 13.9659 39.1889 11.4197C39.2973 9.75406 38.8573 7.73108 38.0475 6.15481C37.9073 5.87402 37.7797 5.62513 37.767 5.59322C37.7224 5.50388 39.9923 5.54855 40.445 5.64428Z" fill="#00529C"/>
</g>
</g>
<defs>
<clipPath id="clip0_1801_2744">
<rect width="49.2518" height="80" fill="white"/>
</clipPath>
<clipPath id="clip1_1801_2744">
<rect width="49.2518" height="80" fill="white"/>
</clipPath>
</defs>
</svg>
