<svg width="108" height="31" viewBox="0 0 108 31" fill="none" xmlns="http://www.w3.org/2000/svg">
<g clip-path="url(#clip0_1801_2770)">
<path d="M39.636 -2.36363e-05H18.6167C16.0681 -2.36363e-05 14 2.11797 14 4.73402V25.5446C14 28.1366 16.0272 30.2413 18.5476 30.2786L39.621 30.2792C42.1697 30.2792 44.2426 28.1606 44.2426 25.5446L44.2528 4.73402C44.2528 2.11797 42.1841 -2.36363e-05 39.636 -2.36363e-05ZM21.1149 27.8533L19.9678 27.8671C18.5789 27.8671 17.4576 26.7236 17.4576 25.3184L17.4492 25.1157V5.89799L17.4576 4.86215C17.5135 3.50269 18.5452 2.4043 19.8986 2.4043H22.2283C24.3439 2.4043 26.0547 4.24197 26.0547 6.40628C26.0547 7.48121 25.6336 8.45148 24.9527 9.16069L19.0077 15.1904L24.5821 20.8689C25.298 21.6112 25.7311 22.5851 25.7311 23.6492C25.7311 25.9705 23.6684 27.8533 21.1149 27.8533V27.8533ZM38.2525 27.8358L27.8587 27.8328C27.8587 27.8328 29.0605 25.233 29.0605 23.6263C29.0605 21.6671 28.4055 19.9137 27.3799 18.7563L23.8266 15.1315L27.4502 11.3864C28.5348 10.3674 29.2506 8.56457 29.2506 6.51395C29.2506 4.88922 28.8019 3.44976 28.0752 2.4043H30.595C32.7088 2.4043 34.4214 4.24197 34.4214 6.40628C34.4214 7.48121 34.0021 8.45148 33.323 9.16069L27.4881 15.1291L39.603 27.4839C39.2168 27.7257 38.7343 27.8358 38.2525 27.8358V27.8358ZM40.788 23.977L32.1049 15.1273L36.2398 10.9262C37.0825 9.87049 37.6191 8.28546 37.6191 6.51395C37.6191 4.87959 37.1619 3.40223 36.4323 2.35737L38.2808 2.41512C39.6673 2.41512 40.7952 3.55503 40.7952 4.96441L40.788 23.977Z" fill="#00529C"/>
<path d="M62.8834 13.7179C63.0525 13.5489 63.2522 13.3311 63.4826 13.0647C63.7123 12.7982 63.9301 12.4836 64.1358 12.1203C64.3415 11.7569 64.5172 11.3521 64.6622 10.904C64.8077 10.4564 64.8805 9.97821 64.8805 9.46992C64.8805 8.47799 64.7109 7.55224 64.3722 6.69265C64.033 5.83366 63.5126 5.08295 62.8107 4.44112C62.1087 3.80049 61.2316 3.29761 60.1784 2.93428C59.1257 2.57156 57.8967 2.3899 56.4934 2.3899H56.4549H52.4198H51.3695H47.2346V7.01808V23.0405V27.8052H57.4011C58.8772 27.8052 60.1657 27.6055 61.2677 27.2061C62.3685 26.8066 63.2829 26.2562 64.0089 25.5542C64.7349 24.8523 65.2733 24.0354 65.6246 23.1036C65.9753 22.1718 66.151 21.1733 66.151 20.108C66.151 18.68 65.8243 17.4095 65.1711 16.2955C64.5172 15.1827 63.7545 14.3231 62.8834 13.7179ZM58.3882 7.04695C58.7305 7.17748 59.0162 7.34711 59.2394 7.56066C59.8174 8.11527 60.1068 8.77815 60.1068 9.54932C60.1068 10.2489 59.9859 10.827 59.7453 11.2847C59.504 11.7431 59.2628 12.0926 59.0222 12.3332H51.9548V6.74679H56.3478C57.1713 6.74679 57.8492 6.84844 58.3882 7.04695V7.04695ZM57.6549 16.7316C58.9344 16.7316 59.8824 17.063 60.4996 17.7247C61.08 18.3762 61.3724 19.1449 61.3724 20.0346C61.3724 20.9513 61.0409 21.7339 60.3781 22.3848C59.7146 23.0356 58.6246 23.3617 57.1057 23.3617H56.5385H51.9548V16.7316H57.6549Z" fill="#00529C"/>
<path d="M83.3872 16.8585C84.1493 16.3382 84.7851 15.7331 85.2934 15.0431C85.8017 14.3531 86.1765 13.591 86.4189 12.7561C86.6607 11.9206 86.7822 11.0676 86.7822 10.196C86.7822 9.05847 86.5939 8.0118 86.2192 7.05537C85.8432 6.09954 85.2808 5.27665 84.5307 4.58669C83.78 3.89673 82.8422 3.35836 81.7167 2.97098C80.5913 2.58419 79.2902 2.3899 77.814 2.3899H77.6811H67.902H67.8105V27.8052H72.6222V18.3654H75.305L81.9405 27.8052H87.5805L80.7188 18.0387C81.7348 17.7728 82.6244 17.3794 83.3872 16.8585ZM77.8501 6.74679C78.1527 6.74679 78.4384 6.76664 78.7103 6.80092C79.5681 6.93025 80.2689 7.23643 80.809 7.72307C81.5441 8.38656 81.9116 9.19983 81.9116 10.1635C81.9116 10.6465 81.8328 11.1163 81.6764 11.5741C81.5194 12.0324 81.2728 12.4361 80.9353 12.785C80.5973 13.135 80.1636 13.4178 79.6336 13.6349C79.1031 13.8521 78.4643 13.9603 77.7172 13.9603H72.6222V6.74679H77.8501Z" fill="#00529C"/>
<path d="M89.2799 2.3899V2.39712C89.2311 2.39591 89.1836 2.3899 89.1349 2.3899H89.094V2.3917V11.7076V18.3828V27.8052H94.0001V2.3899H89.2799Z" fill="#00529C"/>
</g>
<defs>
<clipPath id="clip0_1801_2770">
<rect width="108" height="30.2793" fill="white"/>
</clipPath>
</defs>
</svg>
