<svg width="80" height="52" viewBox="0 0 80 52" fill="none" xmlns="http://www.w3.org/2000/svg">
<g clip-path="url(#clip0_1801_2783)">
<path d="M62.7256 17.1676L62.3166 16.9073C60.9344 15.5251 59.0005 14.9239 56.4221 15.0788C54.2775 15.209 52.573 16.0643 51.2714 16.8515C51.2714 16.8329 51.2714 16.8143 51.2714 16.7957C51.2714 16.1201 51.3458 15.3949 51.4202 14.6884C51.4945 13.9694 51.5689 13.238 51.5689 12.5438C51.5689 11.8372 51.4883 11.1678 51.2466 10.5913C51.1846 10.4426 51.0483 10.3558 50.8809 10.3558C50.1867 10.3744 48.8355 10.8455 48.507 11.1368L48.3273 11.5273C48.3149 12.2959 48.1475 14.4404 47.974 14.7007C47.9802 14.6945 47.881 14.9611 47.881 14.9611C47.5897 18.023 47.5835 20.7192 47.85 23.0311C47.881 23.2604 48.3273 23.6075 48.6682 23.7315C49.0462 23.8741 50.2239 23.558 50.9057 23.2976C50.8995 23.2976 51.1598 23.2542 51.1598 23.2542C51.3768 23.2294 51.5007 23.0497 51.4945 22.8018C51.4883 22.7956 51.5131 22.1386 51.5131 22.1386C52.0028 20.1428 53.9924 17.7627 56.3415 17.4032C57.6741 17.1924 58.7216 17.5333 59.546 18.4383C59.6575 18.5994 59.8993 20.0374 59.0253 21.6861C58.3745 22.9071 57.0729 23.936 55.356 24.5807C53.7321 25.2005 51.947 25.4484 49.7404 25.374C49.6475 25.312 47.6764 23.9794 47.6764 23.9794C45.9286 22.7522 43.753 21.2212 41.782 20.4775C41.4349 20.3473 40.8151 19.8266 40.4432 19.5229L40.2386 19.3556C39.1044 18.4445 36.9412 17.0003 35.1995 15.8474C35.1995 15.8474 34.4123 15.3206 34.2636 15.2214C34.2636 15.1594 34.2636 15.0231 34.2636 15.0231C34.3132 14.9673 35.404 14.3103 35.404 14.3103C36.9288 13.4177 37.6354 12.9777 37.7903 12.7483C37.7593 12.7855 37.9949 12.6306 37.9949 12.6306C38.0073 12.6244 41.782 10.486 41.782 10.486C45.4203 8.49016 49.5359 6.22163 51.6991 3.97789C51.7053 3.97789 51.8044 3.63699 51.8044 3.63699L51.8478 3.33327C51.9904 2.85601 51.9966 2.49032 51.8788 2.06265C51.8478 1.93868 51.7363 1.80232 51.5875 1.77133C49.8954 1.60398 47.7198 2.61429 45.7364 4.47374C45.2901 4.89522 44.9121 5.09976 44.5154 5.31669L44.2117 5.48404C42.0237 6.72988 37.0961 9.78559 34.5177 11.4343C34.685 8.65752 35.1995 4.71547 35.8317 1.42423L35.7635 1.03375C35.7573 1.02135 35.497 0.537893 35.497 0.537893L35.2987 0.184596L35.2429 0.166002C34.7284 -0.0943221 34.307 0.0110471 33.997 0.0854253L33.4826 0.277569L32.7946 0.525496C32.6582 0.550289 32.5653 0.637064 32.5095 0.767226C31.276 3.74235 30.2533 8.63892 30.0054 12.5562C27.5447 10.988 25.27 9.86616 24.1543 9.32072L24.1233 9.30213L23.9932 9.27114C23.5903 9.22155 23.1006 8.92404 22.6358 8.63892C22.5862 8.60793 21.6998 8.0315 21.6998 8.0315L20.2681 7.11417C20.2805 7.12037 19.89 7.02739 19.89 7.02739C19.2764 7.13276 18.0987 7.92613 17.7454 8.46537C17.702 8.53975 17.6834 8.61413 17.6834 8.6947C17.6834 8.80627 17.7206 8.92404 17.7454 9.0356L17.8074 9.32692L17.8756 9.50047C18.5636 10.2009 20.2929 11.3723 21.985 12.2835L23.9498 13.3247L26.9621 14.9673C26.9621 14.9797 27.4766 15.3763 27.4766 15.3763L27.8299 15.5809C27.8299 15.5809 27.8732 15.6057 27.8918 15.6181C27.0923 16.1573 22.4188 19.275 22.4188 19.275L19.5429 21.184C19.2702 21.37 18.1359 21.8782 17.8818 21.9774C17.2557 22.2315 16.7847 22.622 16.5925 23.0435L16.512 23.2109L16.5925 23.3224L16.8157 23.4898C16.8033 23.4898 17.107 23.6819 17.107 23.6819L17.4231 23.8989C17.4293 23.8989 17.7206 23.9484 17.7206 23.9484C18.2289 23.967 18.9726 23.6819 20.3796 23.0683C21.6689 22.4981 25.1646 20.3907 26.6584 19.4857L27.2968 19.1015C27.5633 19.1201 27.8484 18.8969 28.1088 18.7048C28.4063 18.463 29.0633 18.0664 29.46 17.8866C29.4724 17.8804 29.7017 17.7565 29.9124 17.6387C29.9124 17.7069 29.9062 17.8122 29.9062 17.8122C29.9744 22.3865 30.2347 25.7087 30.7368 28.2748L30.743 28.3182L30.7926 28.4235C31.0405 28.783 31.3194 29.8677 31.5674 30.8222L32.1376 32.7313C32.15 32.7561 32.2987 32.911 32.2987 32.911C32.6211 33.1342 33.6128 33.5122 34.276 33.4317L34.4433 33.4131L34.5487 33.1837C34.6045 32.8986 34.6231 32.6197 34.6231 32.3098C34.6231 31.9627 34.5983 31.5784 34.5673 31.1073L34.5239 30.4193C34.3132 27.2273 34.1024 22.6158 34.1024 19.5539C34.1024 19.4672 34.1024 19.3928 34.1024 19.3122C34.6479 19.6531 37.0156 21.1469 37.0156 21.1469C41.0506 23.7687 47.1496 27.7231 50.8375 28.7706C51.0297 28.8264 51.2342 28.783 51.3706 28.6467C51.3768 28.6405 51.9346 28.281 51.9346 28.281L52.04 28.2376C52.2507 28.1384 52.3933 27.7789 52.4181 27.3946C55.5234 27.2397 59.8559 26.0434 62.174 23.1303C63.0727 22.0022 63.4756 20.6138 63.4756 19.43C63.4756 18.463 63.2091 17.6263 62.7194 17.1614L62.7256 17.1676Z" fill="#FCAF16"/>
<path d="M77.5641 41.2166C79.188 41.2166 80 42.0471 80 43.7144V49.3114H78.4381V44.2909C78.4381 43.8446 78.3947 43.5037 78.3017 43.2558C78.2087 43.0078 78.06 42.8343 77.8492 42.7227C77.6385 42.6174 77.3472 42.5616 76.9877 42.5616C76.622 42.5616 76.2377 42.6112 75.8224 42.7165C75.4071 42.8157 75.0229 42.9521 74.6572 43.1194V49.3052H73.0952V41.2476H74.6572V42.0037C75.6737 41.4769 76.6468 41.2104 77.5703 41.2104L77.5641 41.2166Z" fill="#776C61"/>
<path d="M69.8163 49.3114V41.2166H71.4961V49.3114H69.8163Z" fill="#776C61"/>
<path d="M65.2793 41.1794C66.0045 41.1794 66.6057 41.3529 67.0891 41.7062C67.5664 42.0595 67.9259 42.5306 68.149 43.1132C68.3784 43.702 68.4899 44.3405 68.4899 45.0347C68.4899 45.9272 68.3164 46.6958 67.9693 47.3404C67.6222 47.985 67.1511 48.4746 66.5561 48.8094C65.9611 49.1441 65.2793 49.3114 64.5169 49.3114C63.9405 49.3114 63.3888 49.237 62.8496 49.0821V51.3506L61.3372 51.9704V41.2104H62.8496V41.8984C63.2711 41.6628 63.6863 41.4831 64.1078 41.3591C64.5231 41.2352 64.9136 41.1732 65.2731 41.1732L65.2793 41.1794ZM64.3991 48.1214C64.8764 48.1214 65.3041 48.0098 65.6698 47.7928C66.0354 47.5759 66.333 47.235 66.5499 46.7825C66.7668 46.3239 66.8722 45.7536 66.8722 45.0718C66.8722 44.1917 66.6987 43.5409 66.3454 43.1132C65.9921 42.6917 65.4962 42.481 64.8516 42.481C64.1698 42.481 63.5066 42.6731 62.8496 43.0636V47.8548C63.4012 48.0284 63.9157 48.1214 64.3929 48.1214H64.3991Z" fill="#776C61"/>
<path d="M55.9882 49.5097C55.2072 49.5097 54.5564 49.3238 54.0358 48.9581C53.5151 48.5924 53.1247 48.0904 52.8643 47.4643C52.6102 46.8321 52.48 46.1193 52.48 45.326C52.48 44.3652 52.6474 43.5719 52.9821 42.9583C53.3168 42.3384 53.7693 41.886 54.3333 41.6071C54.9035 41.3219 55.5481 41.1856 56.2671 41.1856C57.0481 41.1856 57.6989 41.3715 58.2196 41.7372C58.7402 42.1029 59.1307 42.5988 59.391 43.2248C59.6451 43.8508 59.7753 44.5574 59.7753 45.3508C59.7753 46.3239 59.608 47.1172 59.2733 47.7371C58.9386 48.3569 58.4861 48.8093 57.922 49.0883C57.3518 49.3734 56.7072 49.5097 55.9882 49.5097ZM56.1246 48.2453C57.5626 48.2453 58.2753 47.2722 58.2753 45.326C58.2753 44.4458 58.1018 43.7516 57.7485 43.2248C57.3952 42.7041 56.8746 42.4376 56.168 42.4376C55.387 42.4376 54.8292 42.6917 54.4883 43.2062C54.1474 43.7144 53.98 44.421 53.98 45.326C53.98 46.2123 54.1598 46.9251 54.513 47.4519C54.8663 47.9788 55.4056 48.2453 56.1184 48.2453H56.1246Z" fill="#776C61"/>
<path d="M48.3272 44.9727L52.2755 49.1998V49.3114H50.1061L46.288 45.0656V49.3114H44.5092V38.7621H46.288V44.9355L50.1247 41.1918H52.0895V41.3033L48.3272 44.9727Z" fill="#776C61"/>
<path d="M43.1146 41.1794V49.3114H41.6084L41.5093 48.7722C40.5052 49.2618 39.4887 49.5097 38.4598 49.5097C37.6664 49.5097 37.0156 49.3238 36.5135 48.9457C36.0115 48.5676 35.7635 47.9974 35.7635 47.235V41.1856H37.4433V46.8259C37.4433 47.1854 37.4928 47.4705 37.5982 47.6875C37.7036 47.8982 37.8709 48.0532 38.1065 48.1461C38.342 48.2391 38.6643 48.2825 39.0858 48.2825C39.7118 48.2825 40.4928 48.078 41.4287 47.6751V41.1794H43.1084H43.1146Z" fill="#776C61"/>
<path d="M32.3235 43.7268C33.2223 43.9128 33.8855 44.2475 34.3194 44.7247C34.747 45.2082 34.964 45.7474 34.964 46.3487C34.964 46.9189 34.7904 47.4271 34.4433 47.8734C34.0962 48.3197 33.5818 48.673 32.8876 48.9271C32.1996 49.1812 31.3566 49.3114 30.3649 49.3114H25.7906V38.7001H30.2038C31.0901 38.7001 31.8525 38.8179 32.4909 39.0534C33.1293 39.2889 33.619 39.6112 33.9537 40.0203C34.2946 40.4294 34.4619 40.9005 34.4619 41.4397C34.4619 41.9542 34.2884 42.4128 33.9413 42.8157C33.5942 43.2186 33.0549 43.5285 32.3111 43.733L32.3235 43.7268ZM27.5943 39.9459V43.2868H29.9558C30.7492 43.2868 31.3938 43.1504 31.8897 42.8715C32.3855 42.5926 32.6334 42.1463 32.6334 41.5389C32.6334 41.2352 32.5405 40.9624 32.3607 40.7207C32.181 40.479 31.9083 40.293 31.5488 40.1567C31.1893 40.0203 30.7554 39.9521 30.2471 39.9521H27.5881L27.5943 39.9459ZM30.4083 48.0718C31.3442 48.0718 32.026 47.9106 32.4413 47.5821C32.8566 47.2536 33.0673 46.8321 33.0673 46.3239C33.0673 45.766 32.8442 45.326 32.4041 44.9975C31.964 44.669 31.3008 44.5078 30.4331 44.5078H27.6005V48.078H30.4145L30.4083 48.0718Z" fill="#776C61"/>
<path d="M18.0925 43.7268C18.9913 43.9128 19.6545 44.2475 20.0883 44.7247C20.516 45.2082 20.7329 45.7474 20.7329 46.3487C20.7329 46.9189 20.5594 47.4271 20.2123 47.8734C19.8652 48.3197 19.3508 48.673 18.6566 48.9271C17.9686 49.1812 17.1256 49.3114 16.1339 49.3114H11.5596V38.7001H15.9727C16.8591 38.7001 17.6215 38.8179 18.2599 39.0534C18.8983 39.2889 19.3879 39.6112 19.7226 40.0203C20.0635 40.4294 20.2309 40.9005 20.2309 41.4397C20.2309 41.9542 20.0573 42.4128 19.7102 42.8157C19.3631 43.2186 18.8239 43.5285 18.0801 43.733L18.0925 43.7268ZM13.3633 39.9459V43.2868H15.7248C16.5182 43.2868 17.1628 43.1504 17.6586 42.8715C18.1545 42.5926 18.4024 42.1463 18.4024 41.5389C18.4024 41.2352 18.3095 40.9624 18.1297 40.7207C17.95 40.479 17.6772 40.293 17.3177 40.1567C16.9583 40.0203 16.5244 39.9521 16.0161 39.9521H13.3571L13.3633 39.9459ZM16.1773 48.0718C17.1132 48.0718 17.795 47.9106 18.2103 47.5821C18.6256 47.2536 18.8363 46.8321 18.8363 46.3239C18.8363 45.766 18.6132 45.326 18.1731 44.9975C17.733 44.669 17.0698 44.5078 16.2021 44.5078H13.3695V48.078H16.1835L16.1773 48.0718Z" fill="#776C61"/>
<path d="M3.91106 43.795L9.76834 49.2122V49.3114H7.59898L1.79747 43.8942V49.3114H0V38.7001H1.79747V43.7578L7.48741 38.7001H9.53281V38.7993L3.91106 43.795Z" fill="#776C61"/>
<path fill-rule="evenodd" clip-rule="evenodd" d="M69.8163 40.1257H71.4961V38.6691H69.8163V40.1257Z" fill="#776C61"/>
</g>
<defs>
<clipPath id="clip0_1801_2783">
<rect width="80" height="51.9704" fill="white"/>
</clipPath>
</defs>
</svg>
