<svg width="80" height="73" viewBox="0 0 80 73" fill="none" xmlns="http://www.w3.org/2000/svg">
<g clip-path="url(#clip0_1801_2653)">
<path d="M52.365 43.0889C52.1839 41.9872 51.8821 40.9005 51.4293 39.9195C50.0257 36.8859 48.0636 34.3352 45.1357 32.6298C40.5777 29.9584 35.0689 29.9886 30.5562 32.7203C28.5036 33.9579 26.8283 35.7389 25.7567 37.8669C25.3794 38.5913 25.0926 39.346 24.8512 40.1157C23.6588 43.8888 23.7041 48.975 25.8473 52.4161C26.5415 53.5481 27.5527 54.4989 28.7903 54.9819C30.0279 55.4648 31.4919 55.4045 32.6088 54.68C34.0426 53.7594 34.2992 51.9935 34.0275 50.4239C33.6804 48.4166 33.4389 46.4395 34.1784 44.4624C34.4048 43.8285 34.7368 43.2399 35.2349 42.772C35.5367 42.5003 35.8839 42.2588 36.2461 42.0928C37.0309 41.7004 37.9063 41.5495 38.7666 41.6702C40.2607 41.9117 41.4832 43.0738 42.1473 44.4322C42.8114 45.7905 42.9925 47.3299 43.0529 48.8392C43.3698 55.4346 41.8002 62.2414 40.1098 68.5652C39.9438 69.2142 39.7627 69.8631 39.5816 70.5121C39.4306 71.0102 39.1892 71.6591 39.5061 72.1421C39.6419 72.3534 39.8683 72.5043 40.0947 72.5949C41.0607 72.9873 41.8757 72.3836 42.5246 71.7346C46.3733 67.8558 48.8636 62.8451 50.5539 57.6985C51.1878 55.7667 51.7161 53.8197 52.0934 51.8124C52.5914 49.0958 52.8782 45.9716 52.3801 43.0889" fill="#008A8B"/>
<path d="M80 12.6623C80 11.6662 79.1246 11.0172 78.1889 11.0474C77.2229 11.0927 76.3476 11.5757 75.4722 11.9077C58.493 18.3673 39.3404 19.5898 21.4405 17.009C18.3767 16.5713 15.2827 15.9525 12.1888 15.4695C10.272 15.1677 8.35522 14.73 6.42336 14.5942C4.76317 14.4583 2.71057 14.4131 1.36733 15.5601C-0.398511 17.0845 -0.27777 19.9671 0.733437 21.8839C1.94085 24.178 4.03873 25.8985 6.22716 27.1965C8.35522 28.4642 10.8908 29.8226 13.4414 29.6566C20.2784 29.2189 27.1003 28.5699 33.892 27.6794C45.4831 26.1702 57.6478 24.7515 68.5296 20.2539C72.0915 18.7899 75.608 16.9486 78.6568 14.5791C79.2152 14.1565 80 13.4773 80 12.6623Z" fill="#008A8B"/>
<path d="M31.296 6.83696C31.296 10.5195 34.2844 13.523 37.9821 13.523C41.6798 13.523 44.653 10.5346 44.653 6.83696C44.653 6.27854 44.5323 5.7352 44.3059 5.23715C43.7324 4.01465 43.0985 3.44113 43.1437 1.97716C43.2343 0.0151231 40.7138 3.05176e-05 39.3555 3.05176e-05C37.8764 3.05176e-05 36.3068 0.196234 34.9786 0.875399C33.9221 1.40364 33.0015 2.23373 32.3525 3.22984C31.6884 4.25613 31.3262 5.46354 31.296 6.68603V6.83696Z" fill="#E50045"/>
</g>
<defs>
<clipPath id="clip0_1801_2653">
<rect width="80" height="72.7193" fill="white"/>
</clipPath>
</defs>
</svg>
