<svg width="64" height="64" viewBox="0 0 64 64" fill="none" xmlns="http://www.w3.org/2000/svg">
<g clip-path="url(#clip0_1801_2731)">
<rect width="64" height="64" rx="8.31769" fill="#6936D3"/>
<g clip-path="url(#clip1_1801_2731)">
<path d="M14.2672 49.0499C14.3599 48.9187 14.4361 48.8026 14.5205 48.6926C17.0501 45.3972 19.233 41.8843 21.1331 38.1928C23.6454 33.312 25.64 28.2259 27.2138 22.9705C28.0321 20.2372 28.7278 17.4737 29.3075 14.681C29.6412 13.0725 29.9111 11.4522 30.1542 9.82765C30.1931 9.56708 30.2255 9.30557 30.2577 9.04406C30.2724 8.92519 30.3467 8.88697 30.4514 8.89745C30.8066 8.93241 31.1616 8.96924 31.5161 9.00956C32.5644 9.12843 33.6128 9.24776 34.661 9.3699C35.6012 9.47944 36.5407 9.59411 37.4807 9.70459C37.6504 9.7244 37.8214 9.73023 37.9911 9.75027C38.1657 9.77102 38.2149 9.82206 38.1965 9.98871C38.1643 10.2812 38.127 10.5737 38.0767 10.8637C37.8361 12.253 37.5816 13.6396 37.2949 15.0203C36.7812 17.4942 36.1813 19.9464 35.5049 22.3808C34.6707 25.3838 33.7196 28.3487 32.6232 31.2668C32.6069 31.3104 32.5927 31.3547 32.5756 31.398C32.3384 32.0035 32.3365 31.9497 32.9271 31.9001C35.4357 31.6898 37.6529 30.7874 39.5371 29.1071C40.6139 28.1469 41.4679 27.009 42.1576 25.746C42.5519 25.0237 42.8936 24.2769 43.1775 23.5042C43.2043 23.4315 43.2288 23.3579 43.2595 23.287C43.3038 23.1859 43.3719 23.1605 43.4821 23.2008C43.8462 23.3339 44.214 23.4567 44.5799 23.5851C46.1751 24.145 47.77 24.7055 49.3649 25.2658C49.4673 25.3017 49.57 25.3374 49.6707 25.3779C49.7558 25.4122 49.7833 25.484 49.7567 25.5663C49.7043 25.7282 49.6479 25.8891 49.5859 26.0478C48.7261 28.2503 47.5073 30.2399 45.9926 32.0499C44.5403 33.7854 42.892 35.309 41.0076 36.5697C40.5953 36.8457 40.1652 37.0951 39.7432 37.3566C39.6772 37.3974 39.6089 37.4342 39.5443 37.4773C39.4861 37.516 39.4896 37.5994 39.5488 37.6255C39.591 37.6442 39.6355 37.6582 39.6793 37.6731C41.2465 38.2064 42.4799 39.1841 43.4511 40.5075C44.4018 41.8032 44.999 43.2566 45.371 44.8108C45.7129 46.2393 45.812 47.6876 45.7565 49.1513C45.6828 51.0912 45.278 52.9595 44.5571 54.7607C44.5226 54.847 44.4888 54.9337 44.4466 55.0162C44.417 55.074 44.3615 55.1047 44.2946 55.105C44.2483 55.105 44.2019 55.101 44.1553 55.0992C43.0071 55.0507 41.859 55.0048 40.7109 54.9532C39.4234 54.8954 38.1361 54.8327 36.8488 54.7712C36.7717 54.7675 36.6936 54.7633 36.6179 54.7491C36.5437 54.7353 36.5188 54.675 36.5393 54.6097C36.5764 54.4918 36.6248 54.3773 36.6677 54.261C37.136 52.9943 37.5254 51.7056 37.7753 50.3764C37.9911 49.2271 38.079 48.0678 37.9907 46.9033C37.793 44.2959 36.6551 42.195 34.5412 40.6331C33.432 39.8136 32.2144 39.2102 30.897 38.8075C30.5262 38.6942 30.1477 38.6068 29.8025 38.4215C29.7063 38.3697 29.6216 38.3928 29.5697 38.4935C29.5128 38.6038 29.4597 38.7156 29.4058 38.8275C28.4395 40.8403 27.4902 42.8616 26.464 44.8453C25.4086 46.8856 24.2856 48.8865 22.9702 50.7742C22.1973 51.8832 21.3643 52.9441 20.439 53.9312C20.3646 54.0105 20.2919 54.0916 20.2134 54.1664C20.105 54.2699 20.0551 54.2729 19.9348 54.1671C19.6316 53.9007 19.3326 53.6296 19.0326 53.3597C17.4857 51.9692 15.9388 50.5784 14.3925 49.1872C14.3583 49.1564 14.3301 49.1189 14.2672 49.0495L14.2672 49.0499Z" fill="white"/>
</g>
</g>
<defs>
<clipPath id="clip0_1801_2731">
<rect width="64" height="64" fill="white"/>
</clipPath>
<clipPath id="clip1_1801_2731">
<rect width="35.4994" height="46.2094" fill="white" transform="translate(14.2672 8.89531)"/>
</clipPath>
</defs>
</svg>
