<svg width="48" height="59" viewBox="0 0 48 59" fill="none" xmlns="http://www.w3.org/2000/svg">
<g clip-path="url(#clip0_1801_2659)">
<g clip-path="url(#clip1_1801_2659)">
<path d="M47.062 17.0419C47.062 5.42788 35.691 -2.77911 24.669 0.879885L0 9.06788V26.7609C0 26.9439 0.005 27.1249 0.012 27.3049L24.669 19.1209C32.503 16.5209 40.512 19.9149 44.49 26.2649C46.135 23.5459 47.062 20.3749 47.062 17.0419Z" fill="#00D200"/>
<path d="M34.853 33.958L17.81 39.615C9.217 42.467 0.359 36.252 0.012 27.305L0 27.309V45.002C0 54.239 9.043 60.766 17.81 57.856L34.853 52.199C42.142 49.78 47.062 42.963 47.062 35.283C47.062 31.923 46.109 28.85 44.49 26.265C42.345 29.811 38.979 32.589 34.854 33.958H34.853Z" fill="#008BEC"/>
<path d="M24.669 19.121L0.0119934 27.305C0.358993 36.252 9.217 42.467 17.81 39.615L34.853 33.958C38.978 32.589 42.344 29.811 44.489 26.265C40.51 19.915 32.502 16.521 24.668 19.121H24.669Z" fill="#1A4FE3"/>
</g>
</g>
<defs>
<clipPath id="clip0_1801_2659">
<rect width="47.062" height="58.555" fill="white"/>
</clipPath>
<clipPath id="clip1_1801_2659">
<rect width="47.062" height="58.555" fill="white"/>
</clipPath>
</defs>
</svg>
