<svg width="80" height="59" viewBox="0 0 80 59" fill="none" xmlns="http://www.w3.org/2000/svg">
<g clip-path="url(#clip0_1801_2534)">
<g clip-path="url(#clip1_1801_2534)">
<path d="M22.9391 -3.05176e-05H35.5649C33.4632 4.72864 31.3569 9.45558 29.2517 14.1831C27.2777 18.6194 25.302 23.0551 23.3274 27.4908C19.1165 27.4925 14.9056 27.4919 10.6953 27.4913C14.7768 18.3275 18.8548 9.16202 22.9391 -3.05176e-05Z" fill="#FFCA08"/>
<path d="M35.5649 -3.05176e-05H35.5684C36.8911 2.97886 38.2219 5.95429 39.5441 8.93377L39.5533 8.95457C38.6513 10.9222 37.7897 12.9083 36.9044 14.8835C35.8856 17.162 34.8749 19.4446 33.8573 21.7237C33.6423 22.1813 33.4695 22.6586 33.2234 23.1007C31.8983 20.1288 30.5762 17.1551 29.2517 14.1831C31.3569 9.45558 33.4632 4.72864 35.5649 -3.05176e-05Z" fill="#FA9D1C"/>
<path d="M43.525 -3.05176e-05H43.5284C45.6325 4.7298 47.7388 9.45847 49.8451 14.1871C48.5096 17.1608 47.1938 20.1438 45.8619 23.1192C43.7515 18.4009 41.6562 13.6763 39.5533 8.95457L39.5441 8.93377C40.8784 5.95892 42.2011 2.97886 43.525 -3.05176e-05Z" fill="#9E9FA3"/>
<path d="M43.5284 -3.05176e-05H56.1542C60.2409 9.16145 64.3171 18.3275 68.3998 27.4908C64.19 27.4948 59.9797 27.4913 55.7699 27.4925C53.7931 23.058 51.8191 18.6223 49.8451 14.1871C47.7388 9.45847 45.6324 4.7298 43.5284 -3.05176e-05Z" fill="#636466"/>
<path d="M39.5533 8.95457C41.6562 13.6763 43.7515 18.4009 45.8619 23.1192C45.2967 24.361 44.3479 25.422 43.1846 26.1345C41.4614 27.2047 39.2603 27.4474 37.3401 26.8008C35.5348 26.2067 34.0047 24.8337 33.2234 23.1007C33.4696 22.6586 33.6423 22.1813 33.8573 21.7237C34.8749 19.4446 35.8856 17.162 36.9044 14.8835C37.7897 12.9083 38.6513 10.9222 39.5533 8.95457Z" fill="#F37022"/>
<path d="M39.3608 34.6457H42.0201L44.4236 39.1886H44.5089L46.9125 34.6457H49.5803V45.3339H46.8272V40.0921H46.742L45.3953 42.6491C45.302 42.8092 45.1691 42.9426 45.0094 43.0366C44.8497 43.1307 44.6686 43.1821 44.4833 43.1861C44.2996 43.1754 44.121 43.1211 43.9624 43.0277C43.8039 42.9344 43.6698 42.8046 43.5713 42.6491L42.1138 40.2881H42.0201V45.4021H39.3608" fill="#646565"/>
<path d="M54.8903 42.9815H59.5269V45.3425H51.9241V34.6457H59.5269V36.9896H54.8903V38.7966H58.7428V41.0893H54.8903V42.9815Z" fill="#646565"/>
<path d="M65.033 39.1801H69.4055V40.1603C69.4349 41.0583 69.3403 41.956 69.1242 42.8281C68.886 43.6632 68.3647 44.3894 67.6497 44.8822C66.8949 45.3868 66 45.6404 65.0927 45.6067C64.1903 45.6388 63.2993 45.3982 62.5357 44.9163C61.8297 44.4501 61.3106 43.7499 61.0697 42.9389C60.8352 41.977 60.732 40.9879 60.7628 39.9983C60.7328 39.0004 60.836 38.0029 61.0697 37.0322C61.3141 36.2275 61.8329 35.5338 62.5357 35.0719C63.2995 34.5904 64.1904 34.3499 65.0927 34.3815C65.9276 34.3556 66.7526 34.5685 67.4707 34.9951C68.1286 35.3926 68.6422 35.9898 68.9367 36.6998C69.1174 37.1186 69.2241 37.5656 69.2521 38.0209H66.5672L66.465 37.68C66.3743 37.4422 66.213 37.2379 66.0027 37.0947C65.7924 36.9514 65.5432 36.8761 65.2887 36.8788C64.4875 36.8788 63.9932 37.1175 63.7801 37.8334C63.6425 38.5434 63.591 39.2675 63.6267 39.9898C63.5933 40.7121 63.6448 41.4359 63.7801 42.1462C63.8733 42.4488 64.0688 42.7095 64.3332 42.8837C64.5976 43.0579 64.9143 43.1346 65.2291 43.1008C65.9962 43.1008 66.465 42.8196 66.6354 42.2485C66.6959 41.9684 66.7274 41.6827 66.7292 41.3962V41.3195H65.0245L65.033 39.1801Z" fill="#646565"/>
<path d="M76.0537 34.5519L80 45.334H77.1617L76.5736 43.7998H73.3773L72.7722 45.334H69.9169L73.8291 34.5519H76.0537ZM74.9115 38.5835L74.0592 41.2342H75.9173L74.9627 38.5835H74.9115Z" fill="#646565"/>
<path d="M29.0986 34.7309H30.4538V40.7058L35.4656 34.7309H37.1447L33.6671 39.0949L37.4771 45.5044H35.8832L32.5762 40.1177L30.4027 42.7088V45.5044H29.0986V34.7309Z" fill="#646565"/>
<path d="M25.391 34.7309H26.7206V45.5044H25.391L19.6974 37.0408V45.5044H18.4104V34.7309H19.74L25.3995 43.2457L25.391 34.7309Z" fill="#646565"/>
<path d="M13.3731 34.7309H12.248L8.21649 45.5044H9.5717L10.424 43.1946H15.1715L15.9642 45.5044H17.3706L13.3731 34.7309ZM10.7394 41.9928L12.8361 36.2992L14.8476 41.9928H10.7394Z" fill="#646565"/>
<path d="M4.04858 34.7309C4.94259 34.6639 5.82882 34.9379 6.52887 35.498C6.81077 35.7622 7.03272 36.0838 7.17975 36.4411C7.32679 36.7984 7.39548 37.1831 7.38121 37.5692C7.40745 38.1053 7.26432 38.6361 6.97209 39.0863C6.71392 39.4706 6.34546 39.7678 5.91519 39.9387C6.35657 40.084 6.74311 40.3606 7.02323 40.7313C7.19442 40.9531 7.32961 41.2005 7.42382 41.4644C7.52589 41.7781 7.57767 42.1061 7.57724 42.436C7.60553 42.8648 7.53668 43.2944 7.37582 43.6929C7.21496 44.0913 6.96624 44.4483 6.6482 44.7373C5.88284 45.2986 4.94463 45.5731 3.99744 45.5129H0V34.7309H4.04858ZM5.42936 38.9244C5.59375 38.7731 5.72372 38.5883 5.81048 38.3824C5.89724 38.1765 5.93876 37.9544 5.93224 37.7311C5.94102 37.5012 5.90071 37.2721 5.814 37.059C5.72729 36.8459 5.59616 36.6537 5.42936 36.4952C5.03561 36.1628 4.52886 35.9949 4.01449 36.0265H1.45749V39.4358H4.01449C4.53465 39.4557 5.04211 39.2722 5.42936 38.9244ZM4.0912 44.2259C4.63529 44.2644 5.17309 44.0902 5.59131 43.7401C5.91672 43.3939 6.09789 42.9367 6.09789 42.4616C6.09789 41.9865 5.91672 41.5292 5.59131 41.1831C5.17309 40.8329 4.63529 40.6587 4.0912 40.6973H1.44044V44.2515L4.0912 44.2259Z" fill="#646565"/>
<path d="M13.714 58.4343C13.1093 58.4321 12.5095 58.3254 11.9412 58.1189C11.4496 57.9555 10.999 57.6881 10.62 57.3348C10.6105 57.3253 10.6029 57.314 10.5978 57.3016C10.5926 57.2891 10.59 57.2758 10.59 57.2624C10.59 57.2489 10.5926 57.2356 10.5978 57.2231C10.6029 57.2107 10.6105 57.1994 10.62 57.1899L11.6343 55.9966C11.6438 55.9871 11.6551 55.9795 11.6676 55.9744C11.68 55.9692 11.6933 55.9666 11.7068 55.9666C11.7202 55.9666 11.7336 55.9692 11.746 55.9744C11.7584 55.9795 11.7697 55.9871 11.7792 55.9966C12.309 56.4907 13.0067 56.7649 13.7311 56.7637C14.0079 56.7798 14.2834 56.7146 14.5237 56.5762C14.6152 56.5225 14.6905 56.445 14.7415 56.3519C14.7925 56.2589 14.8174 56.1538 14.8135 56.0478C14.8176 55.9635 14.7992 55.8797 14.7602 55.8048C14.7213 55.7299 14.6632 55.6667 14.5919 55.6216C14.3614 55.4931 14.1052 55.4174 13.8419 55.4L13.4413 55.3489C11.7366 55.1017 10.8843 54.3005 10.8843 52.9368C10.8771 52.6126 10.9431 52.291 11.0774 51.9958C11.2117 51.7007 11.4108 51.4396 11.6599 51.2321C12.2404 50.7439 12.9816 50.4888 13.7396 50.5161C14.712 50.4957 15.6643 50.7952 16.45 51.3685C16.4698 51.3891 16.4809 51.4166 16.4809 51.4452C16.4809 51.4738 16.4698 51.5013 16.45 51.5219L15.5977 52.7493C15.5834 52.7734 15.5605 52.7912 15.5336 52.7991C15.5067 52.807 15.4778 52.8044 15.4528 52.7919C14.9543 52.4356 14.3606 52.2367 13.7481 52.2208C13.5286 52.2053 13.31 52.2621 13.1259 52.3827C13.0534 52.4387 12.9954 52.5113 12.9568 52.5944C12.9183 52.6774 12.9003 52.7686 12.9043 52.8601C12.9043 53.2095 13.2367 53.4226 13.8845 53.4993L14.2936 53.559C14.9978 53.6127 15.6679 53.8837 16.2114 54.3346C16.4326 54.5562 16.6023 54.8238 16.7084 55.1184C16.8145 55.4131 16.8543 55.7275 16.825 56.0393C16.8324 56.3822 16.759 56.722 16.611 57.0314C16.463 57.3409 16.2443 57.6112 15.9727 57.8206C15.3116 58.2762 14.5148 58.4927 13.714 58.4343Z" fill="#94278F"/>
<path d="M23.5585 58.2979H21.5641V55.3233L19.2372 50.7463C19.2372 50.661 19.2372 50.6184 19.3309 50.6184H21.1038C21.1411 50.6179 21.1777 50.6281 21.2094 50.6478C21.2411 50.6674 21.2666 50.6956 21.2828 50.7292L22.5698 53.3544L23.8313 50.7292C23.8456 50.6942 23.8706 50.6646 23.9027 50.6447C23.9349 50.6248 23.9725 50.6156 24.0102 50.6184H25.7149C25.8172 50.6184 25.8428 50.6184 25.8087 50.7463L23.4818 55.3233L23.5585 58.2979Z" fill="#94278F"/>
<path d="M27.8372 58.1871L30.4965 50.7292C30.5027 50.6961 30.5209 50.6665 30.5477 50.646C30.5744 50.6256 30.6078 50.6157 30.6414 50.6184H32.4824C32.5146 50.6178 32.5459 50.6286 32.5708 50.6489C32.5958 50.6692 32.6128 50.6976 32.6188 50.7292L35.2014 58.1871C35.2014 58.2553 35.2014 58.2979 35.1247 58.2979H33.2836C33.2508 58.2974 33.219 58.2864 33.1929 58.2664C33.1668 58.2465 33.1478 58.2187 33.1387 58.1871L32.7807 57.0024H30.2749L29.9169 58.1871C29.9091 58.2194 29.8904 58.248 29.8641 58.2682C29.8377 58.2884 29.8052 58.2989 29.772 58.2979H27.9224C27.8457 58.2979 27.8202 58.2553 27.8372 58.1871ZM31.5278 52.9538L30.7863 55.3489H32.2779L31.5619 52.9538H31.5278Z" fill="#94278F"/>
<path d="M44.4151 58.2979H42.4547C42.4199 58.2972 42.386 58.2864 42.3572 58.2667C42.3284 58.247 42.306 58.2194 42.2928 58.1871L41.1677 55.562H40.3154V58.2979H38.338V50.6269H41.5768C42.3176 50.5804 43.0468 50.8286 43.6054 51.3173C43.8463 51.5407 44.0371 51.8128 44.1649 52.1155C44.2928 52.4182 44.3548 52.7446 44.3469 53.0731C44.3515 53.5239 44.2368 53.968 44.0145 54.3602C43.7908 54.7288 43.4652 55.0249 43.0769 55.2125L44.4918 58.1871C44.5 58.2014 44.5044 58.2176 44.5044 58.234C44.5044 58.2505 44.5 58.2666 44.4918 58.2809C44.4808 58.2886 44.4683 58.2942 44.4551 58.2971C44.442 58.3 44.4284 58.3003 44.4151 58.2979ZM41.4575 53.9255C41.5761 53.934 41.6953 53.9188 41.8079 53.8807C41.9206 53.8427 42.0246 53.7826 42.1138 53.7039C42.2674 53.5449 42.3533 53.3325 42.3533 53.1115C42.3533 52.8904 42.2674 52.6781 42.1138 52.5191C41.9305 52.3665 41.6955 52.2902 41.4575 52.306H40.3154V53.9255H41.4575Z" fill="#94278F"/>
<path d="M47.8755 58.2979V50.6269H49.8615V58.2979H47.8755Z" fill="#94278F"/>
<path d="M52.8873 58.1871L55.5381 50.7292C55.5461 50.6954 55.566 50.6656 55.5942 50.6453C55.6224 50.625 55.6569 50.6154 55.6915 50.6184H57.5325C57.5654 50.6189 57.5971 50.63 57.6232 50.6499C57.6493 50.6699 57.6683 50.6977 57.6774 50.7292L60.2344 58.1871C60.2344 58.2553 60.2344 58.2979 60.1577 58.2979H58.2144C58.1822 58.2985 58.1509 58.2877 58.126 58.2674C58.101 58.2471 58.084 58.2187 58.078 58.1871L57.7115 57.2751H55.4954L55.1034 58.1871C55.0974 58.2187 55.0804 58.2471 55.0554 58.2674C55.0305 58.2877 54.9992 58.2985 54.967 58.2979H52.9725C52.8958 58.2979 52.8703 58.2553 52.8873 58.1871ZM56.5779 53.6612L56.1177 55.3659H57.0467L56.612 53.6612H56.5779Z" fill="#94278F"/>
<path d="M63.2261 58.2979V50.6269H65.2205V53.5334H67.4451V50.6184H69.4311V58.2894H67.4451V55.2807H65.2205V58.2979H63.2261Z" fill="#94278F"/>
</g>
</g>
<defs>
<clipPath id="clip0_1801_2534">
<rect width="80" height="58.4437" fill="white"/>
</clipPath>
<clipPath id="clip1_1801_2534">
<rect width="80" height="58.4437" fill="white"/>
</clipPath>
</defs>
</svg>
