<svg width="80" height="24" viewBox="0 0 80 24" fill="none" xmlns="http://www.w3.org/2000/svg">
<g clip-path="url(#clip0_1801_2612)">
<path d="M55.4382 8.02509H56.6994V10.9457H56.7215C56.81 10.8055 56.917 10.6802 57.0423 10.5695C57.1677 10.4589 57.3042 10.3667 57.4517 10.293C57.6065 10.2118 57.7651 10.1528 57.9274 10.116C58.097 10.0717 58.2629 10.0496 58.4252 10.0496C58.8751 10.0496 59.266 10.1307 59.5979 10.293C59.9371 10.4478 60.2174 10.6654 60.4386 10.9457C60.6599 11.2186 60.8258 11.5394 60.9365 11.9081C61.0471 12.2769 61.1024 12.6715 61.1024 13.0919C61.1024 13.4754 61.0508 13.8478 60.9475 14.2092C60.8516 14.5706 60.7005 14.8914 60.4939 15.1717C60.2948 15.4446 60.0404 15.6658 59.7306 15.8354C59.4209 15.9977 59.0558 16.0788 58.6354 16.0788C58.4436 16.0788 58.2482 16.0641 58.0491 16.0346C57.8573 16.0125 57.6729 15.9645 57.4959 15.8908C57.3189 15.817 57.1567 15.7211 57.0092 15.6031C56.869 15.4851 56.751 15.3302 56.6551 15.1385H56.633V15.9239H55.4382V8.02509ZM59.8412 13.0697C59.8412 12.8116 59.8081 12.5608 59.7417 12.3175C59.6753 12.0741 59.5757 11.8602 59.443 11.6758C59.3102 11.4841 59.1443 11.3329 58.9451 11.2222C58.746 11.1042 58.5174 11.0452 58.2593 11.0452C57.7282 11.0452 57.3263 11.2296 57.0534 11.5984C56.7879 11.9671 56.6551 12.4576 56.6551 13.0697C56.6551 13.3574 56.6883 13.6266 56.7547 13.8773C56.8285 14.1207 56.9354 14.3309 57.0755 14.5079C57.2157 14.6849 57.3816 14.825 57.5734 14.9283C57.7725 15.0315 58.0011 15.0832 58.2593 15.0832C58.5469 15.0832 58.7903 15.0242 58.9894 14.9062C59.1885 14.7882 59.3508 14.637 59.4762 14.4526C59.6089 14.2608 59.7011 14.047 59.7527 13.8109C59.8117 13.5676 59.8412 13.3205 59.8412 13.0697Z" fill="#223C77"/>
<path d="M66.9583 14.6517C66.9583 14.8066 66.9767 14.9172 67.0136 14.9836C67.0578 15.05 67.139 15.0832 67.257 15.0832C67.2938 15.0832 67.3381 15.0832 67.3897 15.0832C67.4413 15.0832 67.5003 15.0758 67.5667 15.061V15.935C67.5225 15.9498 67.4635 15.9645 67.3897 15.9793C67.3233 16.0014 67.2533 16.0198 67.1795 16.0346C67.1058 16.0493 67.032 16.0604 66.9583 16.0678C66.8845 16.0751 66.8218 16.0788 66.7702 16.0788C66.5121 16.0788 66.2982 16.0272 66.1286 15.9239C65.9589 15.8207 65.8483 15.64 65.7967 15.3819C65.5459 15.6253 65.2362 15.8023 64.8674 15.9129C64.506 16.0235 64.1557 16.0788 63.8164 16.0788C63.5583 16.0788 63.3112 16.042 63.0752 15.9682C62.8392 15.9018 62.629 15.8023 62.4446 15.6695C62.2676 15.5294 62.1238 15.3561 62.0132 15.1496C61.9099 14.9357 61.8583 14.6886 61.8583 14.4083C61.8583 14.0543 61.921 13.7667 62.0464 13.5454C62.1791 13.3242 62.3488 13.1509 62.5553 13.0255C62.7691 12.9001 63.0052 12.8116 63.2633 12.76C63.5288 12.701 63.7943 12.6567 64.0598 12.6272C64.2884 12.583 64.506 12.5535 64.7125 12.5387C64.919 12.5166 65.0997 12.4834 65.2546 12.4392C65.4168 12.3949 65.5422 12.3285 65.6307 12.24C65.7266 12.1441 65.7745 12.004 65.7745 11.8196C65.7745 11.6574 65.734 11.5246 65.6529 11.4214C65.5791 11.3181 65.4832 11.2407 65.3652 11.1891C65.2546 11.1301 65.1292 11.0932 64.9891 11.0784C64.849 11.0563 64.7162 11.0452 64.5908 11.0452C64.2368 11.0452 63.9455 11.119 63.7169 11.2665C63.4882 11.414 63.3592 11.6426 63.3297 11.9524H62.0685C62.0906 11.5836 62.1791 11.2776 62.334 11.0342C62.4889 10.7908 62.6843 10.5954 62.9203 10.4478C63.1637 10.3003 63.4366 10.1971 63.739 10.1381C64.0414 10.0791 64.3511 10.0496 64.6683 10.0496C64.9485 10.0496 65.2251 10.0791 65.498 10.1381C65.7709 10.1971 66.0142 10.293 66.2281 10.4257C66.4494 10.5585 66.6264 10.7318 66.7591 10.9457C66.8919 11.1522 66.9583 11.4066 66.9583 11.709V14.6517ZM65.6971 13.0587C65.5053 13.1841 65.2693 13.2615 64.9891 13.291C64.7088 13.3131 64.4286 13.35 64.1483 13.4016C64.0156 13.4237 63.8865 13.4569 63.7611 13.5012C63.6357 13.5381 63.5251 13.5934 63.4292 13.6671C63.3333 13.7335 63.2559 13.8257 63.1969 13.9437C63.1453 14.0543 63.1195 14.1908 63.1195 14.353C63.1195 14.4932 63.16 14.6112 63.2412 14.707C63.3223 14.8029 63.4182 14.8804 63.5288 14.9394C63.6468 14.991 63.7722 15.0279 63.9049 15.05C64.0451 15.0721 64.1704 15.0832 64.2811 15.0832C64.4212 15.0832 64.5724 15.0647 64.7346 15.0279C64.8969 14.991 65.0481 14.9283 65.1882 14.8398C65.3357 14.7513 65.4574 14.6407 65.5533 14.5079C65.6492 14.3678 65.6971 14.1981 65.6971 13.999V13.0587Z" fill="#223C77"/>
<path d="M68.3153 10.2045H69.5101V11.0452L69.5322 11.0674C69.7239 10.7502 69.9747 10.5032 70.2845 10.3262C70.5942 10.1418 70.9372 10.0496 71.3133 10.0496C71.9402 10.0496 72.4343 10.2118 72.7957 10.5364C73.1571 10.8609 73.3378 11.3476 73.3378 11.9966V15.9239H72.0766V12.3285C72.0619 11.8786 71.966 11.5541 71.789 11.355C71.612 11.1485 71.3354 11.0452 70.9593 11.0452C70.7454 11.0452 70.5537 11.0858 70.384 11.1669C70.2144 11.2407 70.0706 11.3476 69.9526 11.4878C69.8346 11.6205 69.7424 11.7791 69.676 11.9635C69.6096 12.1478 69.5764 12.3433 69.5764 12.5498V15.9239H68.3153V10.2045Z" fill="#223C77"/>
<path d="M74.701 8.02509H75.9621V12.5166L78.2411 10.2045H79.7899L77.5994 12.3064L80 15.9239H78.4623L76.7144 13.1472L75.9621 13.8773V15.9239H74.701V8.02509Z" fill="#223C77"/>
<path d="M45.6815 1.80752C45.2201 1.46631 44.8681 1.02329 44.4456 0.665711C43.4797 -0.235663 41.9752 -0.222362 41.0437 0.709194L41.0022 0.751654C40.8831 0.850897 40.7674 0.955256 40.6498 1.06524L37.1712 4.51624L37.1522 4.60219C36.8842 5.91076 37.7421 6.86841 37.7421 6.86841L39.6793 8.85481L42.7769 11.9784L43.8348 10.9185L46.0995 8.67474L47.8122 7.005L47.9247 6.91036C47.9646 6.87608 48.0234 6.83004 48.1027 6.77786C48.5672 6.45916 49.0343 6.34201 49.4195 6.31081C49.7223 6.28523 49.9735 6.31592 50.1295 6.34713C50.2001 6.36043 50.2508 6.37424 50.2784 6.38243L50.2938 6.38703L50.3035 6.3901L45.6815 1.80752Z" fill="#FFD200"/>
<path d="M53.7817 9.83445L50.2938 6.38703L50.2785 6.38243C50.2509 6.37424 50.1997 6.35992 50.1296 6.34713C49.9736 6.31592 49.7229 6.28472 49.4201 6.31081C49.0354 6.34201 48.5678 6.45916 48.1033 6.77787C48.024 6.83005 47.9652 6.87609 47.9253 6.91036L47.8128 7.005L46.1 8.67474L43.8354 10.9185L42.778 11.9784L45.6652 14.8058L47.8496 17.003L47.8532 17.0061L47.8552 17.0091C47.9401 17.0997 48.2123 17.424 48.399 18.0394C48.5919 18.6794 48.4936 19.2533 48.4614 19.4089L48.4507 19.4534L48.4532 19.4508L48.8922 19.0078L51.7774 16.0944L54.1024 13.7689C54.4927 13.378 54.7209 12.8864 54.7905 12.379C54.8099 12.2572 54.8237 12.1283 54.8253 11.9897C54.8406 11.052 54.3715 10.4524 53.7817 9.83445Z" fill="#223C77"/>
<path d="M48.3995 18.0394C48.2123 17.424 47.9406 17.0996 47.8552 17.0091L47.8501 17.003L45.6657 14.8058L42.7779 11.9779L39.9485 14.8626L37.7493 17.0521C37.7493 17.0521 36.9451 17.869 35.6222 17.7048C35.5444 17.6946 35.4641 17.6833 35.3833 17.6654L39.8513 22.1687C40.4043 22.7217 41.1814 23.8252 42.537 23.9341C43.2747 24.0446 44.0522 23.8175 44.6185 23.2522L47.3283 20.5414L48.4348 19.4713V19.4697L48.4517 19.4523L48.4624 19.4078C48.4941 19.2523 48.5929 18.6783 48.4 18.0384" fill="#EE3524"/>
<path d="M47.8547 17.0091L47.8532 17.0055L47.8501 17.0035L47.8552 17.0091H47.8547Z" fill="#EA4125"/>
<path d="M39.6799 8.8548L37.7421 6.8684C37.7421 6.8684 36.8847 5.91126 37.1523 4.60217L37.1712 4.51623L32.5855 9.0497C32.0095 9.62572 30.8345 10.4437 30.8099 11.9098C30.7951 12.8527 31.2606 13.4604 31.8438 14.0825L35.3066 17.5887H35.3055L35.3818 17.6649V17.6665C35.4636 17.6844 35.5439 17.6956 35.6212 17.7048C36.9446 17.8696 37.7488 17.0526 37.7488 17.0526L39.948 14.8631L42.7774 11.9784L39.6799 8.85531V8.8548Z" fill="#3F9244"/>
<path d="M36.3296 11.9779C36.3296 8.44708 39.2169 5.58488 42.7773 5.58488C46.3378 5.58488 49.2261 8.44708 49.2261 11.9779C49.2261 15.5087 46.3399 18.3699 42.7773 18.3699C39.2148 18.3699 36.3296 15.5087 36.3296 11.9779ZM36.7808 11.9779C36.7808 13.6215 37.4514 15.1051 38.538 16.1799C39.6256 17.2557 41.1209 17.9212 42.7773 17.9212C44.4338 17.9212 45.9326 17.2552 47.0182 16.1799C48.1042 15.1051 48.7749 13.6215 48.7749 11.9779C48.7749 10.3342 48.1042 8.8507 47.0182 7.77335C45.9326 6.69753 44.4353 6.0325 42.7773 6.0325C41.1194 6.0325 39.6256 6.69753 38.538 7.77335C37.4514 8.85121 36.7808 10.3342 36.7808 11.9779Z" fill="white"/>
<path d="M43.7416 11.8848C43.7416 12.4112 43.3155 12.8383 42.7881 12.8383C42.2607 12.8383 41.833 12.4112 41.833 11.8848C41.833 11.3584 42.2612 10.9297 42.7881 10.9297C43.315 10.9297 43.7416 11.3569 43.7416 11.8848Z" fill="white"/>
<path d="M19.795 8.06646V13.5934C19.795 13.5934 17.6694 10.3777 17.3512 9.83902C16.8044 9.0993 16.1322 8.06594 14.9832 8.06594H12.5999V15.9082H14.9832V10.3828C14.9832 10.3828 17.1093 13.597 17.4275 14.1372C17.9733 14.8748 18.5867 15.9082 19.795 15.9082H22.1599V8.06646H19.795Z" fill="#223C77"/>
<path d="M7.3839 9.2671C6.86773 10.481 5.94999 13.0593 5.94999 13.0593L4.82864 9.79299C4.82864 9.79299 4.24546 8.06646 2.37826 8.06646H0V15.9092H2.37826V10.4677C2.37826 10.4677 2.6632 10.523 3.21313 12.0787C3.76306 13.6323 4.57491 15.9261 4.57491 15.9261H6.17763C6.17763 15.9261 7.32916 15.8514 8.00033 14.0246L8.86334 11.6704C8.86334 11.6704 9.29561 10.3879 9.69156 10.2334V15.9092H12.0468V8.06646H9.69156C9.69156 8.06646 7.90109 8.05419 7.3839 9.26659" fill="#223C77"/>
<path d="M30.8488 13.8942L30.8314 13.8763H27.1666C26.1296 13.8763 25.2886 13.0394 25.2886 12.0065C25.2886 10.9737 26.1296 10.1367 27.1666 10.1367H30.6866C30.9823 9.80883 31.3 9.54947 31.5215 9.32848L32.7968 8.06696H26.6683C24.4834 8.06696 22.7124 9.83032 22.7124 12.007C22.7124 14.1837 24.4834 15.9471 26.6683 15.9471H32.8751L30.8483 13.8947L30.8488 13.8942Z" fill="#223C77"/>
<path d="M48.73 11.9779C48.73 15.2647 46.0648 17.9299 42.778 17.9299C39.4912 17.9299 36.8259 15.2647 36.8259 11.9779C36.8259 8.69109 39.4912 6.02636 42.778 6.02636C46.0648 6.02636 48.73 8.69109 48.73 11.9779Z" fill="url(#paint0_radial_1801_2612)"/>
</g>
<defs>
<radialGradient id="paint0_radial_1801_2612" cx="0" cy="0" r="1" gradientUnits="userSpaceOnUse" gradientTransform="translate(42.7774 11.9779) scale(5.95203)">
<stop stop-color="white"/>
<stop offset="1" stop-color="white" stop-opacity="0"/>
</radialGradient>
<clipPath id="clip0_1801_2612">
<rect width="80" height="23.9613" fill="white"/>
</clipPath>
</defs>
</svg>
