<svg width="80" height="17" viewBox="0 0 80 17" fill="none" xmlns="http://www.w3.org/2000/svg">
<g clip-path="url(#clip0_1801_2438)">
<path d="M38.1855 7.35684C38.2725 7.40031 38.3485 7.45464 38.4246 7.49811C38.4463 7.50898 38.4681 7.53071 38.4898 7.54158C38.5333 7.56331 38.5659 7.59591 38.5985 7.61764L39.6634 8.29137V6.91131C39.6634 5.1618 38.2507 4.58587 36.5012 4.58587H35.947V10.2256H38.1638C38.2073 10.2473 38.1529 7.33511 38.1855 7.35684Z" fill="#122448"/>
<path d="M38.1855 2.77099C38.2725 2.81445 38.3485 2.86878 38.4246 2.91225C38.4463 2.92312 38.4681 2.94485 38.4898 2.95572C38.5333 2.98832 38.5659 3.01005 38.5985 3.03178L39.6634 3.70551V2.32546C39.6634 0.575942 38.2507 1.52588e-05 36.5012 1.52588e-05H35.947V1.34746L38.0769 2.69492C38.1095 2.72752 38.1529 2.74925 38.1855 2.77099Z" fill="#122448"/>
<path d="M44.1187 13.0183C43.771 13.1487 43.3798 13.2574 42.956 13.3334C42.5322 13.4095 42.1193 13.4421 41.7281 13.4421C40.9022 13.4421 40.348 13.2139 40.0763 12.7466C39.9025 12.4532 39.7938 12.0838 39.7286 11.66L39.6851 11.6926L39.6634 11.7034L36.4904 14.1484C36.6316 14.4636 36.8055 14.7569 37.0228 15.0177C37.4249 15.5067 37.9574 15.8871 38.6202 16.1696C39.2831 16.4413 40.1198 16.5825 41.1304 16.5825C41.9237 16.5825 42.5974 16.5173 43.1516 16.3869C43.1625 16.3869 43.1625 16.3869 43.1625 16.3761C43.7601 16.2348 44.1839 15.6915 44.1731 15.0721L44.1187 13.0183Z" fill="#122448"/>
<path d="M68.6877 3.75992C69.318 3.57519 70.133 3.41219 71.1327 3.24919C72.1325 3.0862 73.1757 3.01013 74.2732 3.01013C75.3816 3.01013 76.3161 3.15139 77.0442 3.44479C77.7831 3.73819 78.3699 4.14025 78.8046 4.67271C79.2392 5.20517 79.5435 5.83543 79.7282 6.56349C79.913 7.29155 79.9999 8.10655 79.9999 8.9976V16.3977H76.2835V9.454C76.2835 8.25868 76.1205 7.41108 75.8163 6.91122C75.5011 6.41136 74.9143 6.16143 74.045 6.16143C73.7733 6.16143 73.5017 6.1723 73.1974 6.19403C72.8931 6.21576 72.6323 6.24836 72.4041 6.28096V16.3977H68.6986V3.75992H68.6877Z" fill="#122448"/>
<path d="M66.0797 9.83446C66.0797 10.8668 65.9276 11.8013 65.6342 12.6598C65.3299 13.5182 64.9061 14.2463 64.3411 14.8548C63.776 15.4633 63.1023 15.9306 62.309 16.2566C61.5266 16.5826 60.6355 16.7565 59.6575 16.7565C58.6904 16.7565 57.8211 16.5935 57.0278 16.2566C56.2346 15.9197 55.5608 15.4525 54.9958 14.8548C54.4307 14.2463 53.996 13.5182 53.6809 12.6598C53.3658 11.8013 53.2136 10.8559 53.2136 9.83446C53.2136 8.80213 53.3766 7.86761 53.7026 7.02002C54.0286 6.17243 54.4742 5.45523 55.0501 4.85757C55.626 4.25991 56.2997 3.79265 57.093 3.46665C57.8754 3.12979 58.7447 2.96679 59.6684 2.96679C60.6138 2.96679 61.4831 3.12979 62.2764 3.46665C63.0697 3.79265 63.7434 4.25991 64.3085 4.85757C64.8735 5.45523 65.3082 6.18329 65.6233 7.02002C65.9167 7.86761 66.0797 8.80213 66.0797 9.83446ZM62.2873 9.83446C62.2873 8.69347 62.0591 7.79154 61.6027 7.12868C61.1463 6.47669 60.4943 6.15069 59.6467 6.15069C58.7991 6.15069 58.1471 6.47669 57.6798 7.12868C57.2125 7.78068 56.9843 8.6826 56.9843 9.83446C56.9843 10.9754 57.2125 11.8882 57.6798 12.562C58.1471 13.2357 58.7991 13.5726 59.6467 13.5726C60.4943 13.5726 61.1463 13.2357 61.6027 12.562C62.0591 11.8882 62.2873 10.9754 62.2873 9.83446Z" fill="#122448"/>
<path d="M50.5839 16.4086H49.3777C47.9977 16.4086 46.8676 15.2893 46.8676 13.9093V3.3144H48.4215C49.6168 3.3144 50.5839 4.28152 50.5839 5.47684V16.4086Z" fill="#122448"/>
<path d="M33.4579 9.83446C33.4579 10.8668 33.3058 11.8013 33.0124 12.6598C32.7081 13.5182 32.2843 14.2463 31.7192 14.8548C31.1542 15.4633 30.4804 15.9306 29.6872 16.2566C28.9048 16.5826 28.0137 16.7565 27.0357 16.7565C26.0686 16.7565 25.1993 16.5935 24.406 16.2566C23.6127 15.9197 22.939 15.4525 22.3739 14.8548C21.8089 14.2463 21.3633 13.5182 21.0591 12.6598C20.7439 11.8013 20.5809 10.8559 20.5809 9.83446C20.5809 8.80213 20.7439 7.86761 21.0699 7.02002C21.3959 6.17243 21.8415 5.45523 22.4174 4.85757C22.9933 4.25991 23.6671 3.79265 24.4603 3.46665C25.2536 3.12979 26.1121 2.96679 27.0357 2.96679C27.9811 2.96679 28.8504 3.12979 29.6437 3.46665C30.437 3.79265 31.1107 4.25991 31.6758 4.85757C32.2408 5.45523 32.6755 6.18329 32.9906 7.02002C33.2949 7.86761 33.4579 8.80213 33.4579 9.83446ZM29.6654 9.83446C29.6654 8.69347 29.4372 7.79154 28.9808 7.12868C28.5244 6.47669 27.8724 6.15069 27.0248 6.15069C26.1772 6.15069 25.5253 6.47669 25.058 7.12868C24.5907 7.78068 24.3625 8.6826 24.3625 9.83446C24.3625 10.9754 24.5907 11.8882 25.058 12.562C25.5253 13.2357 26.1772 13.5726 27.0248 13.5726C27.8724 13.5726 28.5244 13.2357 28.9808 12.562C29.4481 11.8882 29.6654 10.9754 29.6654 9.83446Z" fill="#122448"/>
<path d="M7.18284 9.45411C7.18284 8.25878 7.03071 7.41119 6.72645 6.91133C6.42218 6.41147 5.88972 6.16154 5.15078 6.16154C4.92259 6.16154 4.68351 6.17241 4.43358 6.20501C4.18365 6.22674 3.94458 6.25934 3.70552 6.29194V16.3978H0V3.76003C0.315133 3.6731 0.684596 3.58617 1.1084 3.49923C1.5322 3.4123 1.97772 3.32537 2.45586 3.2493C2.93399 3.17324 3.41213 3.1189 3.91199 3.07544C4.41185 3.03197 4.90085 3.01024 5.37898 3.01024C6.32437 3.01024 7.09591 3.12977 7.68271 3.36883C8.26951 3.6079 8.7585 3.90129 9.13884 4.22729C9.6713 3.84696 10.2798 3.5427 10.9753 3.32537C11.6599 3.10803 12.301 2.99937 12.877 2.99937C13.9202 2.99937 14.7786 3.14063 15.4524 3.43403C16.1261 3.72743 16.6585 4.14036 17.0606 4.66195C17.4627 5.19441 17.7343 5.82467 17.8756 6.55273C18.0277 7.28079 18.1038 8.09579 18.1038 8.99771V16.3978H14.3983V9.45411C14.3983 8.25878 14.2462 7.41119 13.9419 6.91133C13.6376 6.41147 13.1052 6.16154 12.3554 6.16154C12.1598 6.16154 11.8772 6.21587 11.5186 6.31367C11.16 6.41147 10.8666 6.54187 10.6384 6.68313C10.758 7.06346 10.8232 7.46552 10.8558 7.88932C10.8884 8.31312 10.9101 8.76951 10.9101 9.24764V16.3978H7.19371V9.45411H7.18284Z" fill="#122448"/>
<path d="M42.7278 5.72672L39.6525 3.7164L38.5985 3.04268C38.5659 3.01008 38.5224 2.98835 38.4898 2.96661C38.4681 2.95575 38.4463 2.93401 38.4246 2.92314C38.3485 2.86881 38.2725 2.82535 38.1964 2.78188H38.1855C38.1421 2.76015 38.1095 2.73841 38.0769 2.71668L35.947 1.36922V5.46592L36.4904 5.78105C38.0008 6.67211 38.0551 8.82369 36.6099 9.80168L35.9579 10.2363V10.9318C35.9579 11.7794 36.034 12.5509 36.197 13.2464C36.273 13.5724 36.3708 13.8766 36.5012 14.1592L39.6743 11.7142L39.696 11.7033L39.7395 11.6707L39.8807 11.5621L42.8256 9.42135C44.0753 8.48682 44.0318 6.58518 42.7278 5.72672Z" fill="#DCA32D"/>
</g>
<defs>
<clipPath id="clip0_1801_2438">
<rect width="80" height="16.7564" fill="white"/>
</clipPath>
</defs>
</svg>
