<svg width="80" height="10" viewBox="0 0 80 10" fill="none" xmlns="http://www.w3.org/2000/svg">
<g clip-path="url(#clip0_1801_2359)">
<g clip-path="url(#clip1_1801_2359)">
<path d="M15.1663 4.46274C15.2008 4.48 15.2311 4.50158 15.2613 4.51885C15.2699 4.52316 15.2785 4.53179 15.2872 4.53611C15.3044 4.54474 15.3174 4.55769 15.3303 4.56632L15.7533 4.83391V4.28578C15.7533 3.59091 15.1922 3.36216 14.4973 3.36216H14.2772V5.60216H15.1577C15.1749 5.61079 15.1534 4.45411 15.1663 4.46274Z" fill="#122448"/>
<path d="M15.1663 2.64139C15.2008 2.65866 15.2311 2.68024 15.2613 2.6975C15.2699 2.70182 15.2785 2.71045 15.2872 2.71477C15.3044 2.72772 15.3174 2.73635 15.3303 2.74498L15.7533 3.01257V2.46444C15.7533 1.76957 15.1922 1.54082 14.4973 1.54082H14.2772V2.076L15.1232 2.61118C15.1361 2.62413 15.1534 2.63276 15.1663 2.64139Z" fill="#122448"/>
<path d="M17.5229 6.71137C17.3848 6.76316 17.2294 6.80632 17.0611 6.83653C16.8927 6.86674 16.7287 6.87969 16.5733 6.87969C16.2453 6.87969 16.0252 6.78905 15.9173 6.60347C15.8483 6.48694 15.8051 6.34019 15.7792 6.17187L15.7619 6.18482L15.7533 6.18913L14.493 7.16023C14.5491 7.28539 14.6182 7.40192 14.7045 7.50551C14.8642 7.69973 15.0757 7.85078 15.339 7.963C15.6022 8.0709 15.9346 8.12701 16.336 8.12701C16.651 8.12701 16.9186 8.10111 17.1387 8.04932C17.1431 8.04932 17.1431 8.04932 17.1431 8.045C17.3804 7.9889 17.5488 7.7731 17.5444 7.52709L17.5229 6.71137Z" fill="#122448"/>
<path d="M27.2814 3.03415C27.5317 2.96078 27.8554 2.89604 28.2525 2.8313C28.6495 2.76656 29.0639 2.73635 29.4998 2.73635C29.94 2.73635 30.3112 2.79245 30.6004 2.90899C30.8938 3.02552 31.1269 3.18521 31.2996 3.39669C31.4722 3.60817 31.593 3.8585 31.6664 4.14767C31.7398 4.43684 31.7743 4.76054 31.7743 5.11445V8.05363H30.2982V5.29572C30.2982 4.82097 30.2335 4.48432 30.1127 4.28578C29.9875 4.08725 29.7544 3.98798 29.4092 3.98798C29.3013 3.98798 29.1934 3.9923 29.0725 4.00093C28.9517 4.00956 28.8481 4.02251 28.7574 4.03546V8.05363H27.2857V3.03415H27.2814Z" fill="#122448"/>
<path d="M26.2455 5.44678C26.2455 5.8568 26.1851 6.22798 26.0685 6.56894C25.9477 6.9099 25.7794 7.19907 25.5549 7.44077C25.3305 7.68246 25.0629 7.86805 24.7479 7.99753C24.4371 8.12701 24.0832 8.19606 23.6948 8.19606C23.3106 8.19606 22.9654 8.13132 22.6503 7.99753C22.3352 7.86373 22.0676 7.67814 21.8432 7.44077C21.6188 7.19907 21.4461 6.9099 21.321 6.56894C21.1958 6.22798 21.1354 5.85249 21.1354 5.44678C21.1354 5.03677 21.2001 4.66559 21.3296 4.32895C21.4591 3.9923 21.636 3.70744 21.8648 3.47007C22.0935 3.23269 22.3611 3.0471 22.6762 2.91762C22.9869 2.78382 23.3322 2.71909 23.6991 2.71909C24.0746 2.71909 24.4198 2.78382 24.7349 2.91762C25.05 3.0471 25.3176 3.23269 25.542 3.47007C25.7664 3.70744 25.9391 3.99662 26.0642 4.32895C26.1808 4.66559 26.2455 5.03677 26.2455 5.44678ZM24.7392 5.44678C24.7392 4.99361 24.6486 4.63538 24.4673 4.37211C24.286 4.11315 24.0271 3.98367 23.6904 3.98367C23.3538 3.98367 23.0948 4.11315 22.9092 4.37211C22.7237 4.63106 22.633 4.98929 22.633 5.44678C22.633 5.89996 22.7237 6.2625 22.9092 6.53009C23.0948 6.79768 23.3538 6.93148 23.6904 6.93148C24.0271 6.93148 24.286 6.79768 24.4673 6.53009C24.6486 6.2625 24.7392 5.89996 24.7392 5.44678Z" fill="#122448"/>
<path d="M20.0909 8.05795H19.6119C19.0637 8.05795 18.6149 7.6134 18.6149 7.06527V2.85719H19.2321C19.7068 2.85719 20.0909 3.24132 20.0909 3.71607V8.05795Z" fill="#122448"/>
<path d="M13.2889 5.44678C13.2889 5.8568 13.2285 6.22798 13.1119 6.56894C12.9911 6.9099 12.8228 7.19907 12.5983 7.44077C12.3739 7.68246 12.1063 7.86805 11.7912 7.99753C11.4805 8.12701 11.1266 8.19606 10.7381 8.19606C10.354 8.19606 10.0087 8.13132 9.69367 7.99753C9.3786 7.86373 9.11101 7.67814 8.88658 7.44077C8.66214 7.19907 8.48519 6.9099 8.36434 6.56894C8.23918 6.22798 8.17444 5.85249 8.17444 5.44678C8.17444 5.03677 8.23918 4.66559 8.36866 4.32895C8.49814 3.9923 8.67509 3.70744 8.90384 3.47007C9.13259 3.23269 9.40018 3.0471 9.71525 2.91762C10.0303 2.78382 10.3713 2.71909 10.7381 2.71909C11.1136 2.71909 11.4589 2.78382 11.774 2.91762C12.089 3.0471 12.3566 3.23269 12.5811 3.47007C12.8055 3.70744 12.9781 3.99662 13.1033 4.32895C13.2241 4.66559 13.2889 5.03677 13.2889 5.44678ZM11.7826 5.44678C11.7826 4.99361 11.692 4.63538 11.5107 4.37211C11.3294 4.11315 11.0705 3.98367 10.7338 3.98367C10.3972 3.98367 10.1382 4.11315 9.95262 4.37211C9.76704 4.63106 9.6764 4.98929 9.6764 5.44678C9.6764 5.89996 9.76704 6.2625 9.95262 6.53009C10.1382 6.79768 10.3972 6.93148 10.7338 6.93148C11.0705 6.93148 11.3294 6.79768 11.5107 6.53009C11.6963 6.2625 11.7826 5.89996 11.7826 5.44678Z" fill="#122448"/>
<path d="M2.85286 5.29572C2.85286 4.82097 2.79244 4.48432 2.67159 4.28578C2.55075 4.08725 2.33926 3.98798 2.04577 3.98798C1.95514 3.98798 1.86019 3.9923 1.76092 4.00525C1.66165 4.01388 1.5667 4.02683 1.47175 4.03978V8.05364H0V3.03415C0.125164 2.99962 0.271906 2.9651 0.44023 2.93057C0.608554 2.89604 0.785507 2.86151 0.975411 2.8313C1.16532 2.80109 1.35522 2.77951 1.55375 2.76225C1.75229 2.74498 1.94651 2.73635 2.13641 2.73635C2.5119 2.73635 2.81834 2.78382 3.0514 2.87878C3.28446 2.97373 3.47868 3.09026 3.62974 3.21974C3.84122 3.06868 4.08292 2.94783 4.35914 2.86151C4.63105 2.77519 4.88569 2.73203 5.11444 2.73203C5.52877 2.73203 5.86973 2.78814 6.13732 2.90467C6.40492 3.0212 6.6164 3.18521 6.77609 3.39238C6.93578 3.60386 7.04368 3.85419 7.09979 4.14336C7.16021 4.43253 7.19042 4.75623 7.19042 5.11445V8.05364H5.71868V5.29572C5.71868 4.82097 5.65825 4.48432 5.5374 4.28578C5.41655 4.08725 5.20507 3.98798 4.90727 3.98798C4.82958 3.98798 4.71737 4.00956 4.57494 4.04841C4.43251 4.08725 4.31598 4.13904 4.22534 4.19515C4.27282 4.34621 4.29872 4.5059 4.31166 4.67422C4.32461 4.84255 4.33324 5.02382 4.33324 5.21372V8.05364H2.85718V5.29572H2.85286Z" fill="#122448"/>
<path d="M16.9704 3.81534L15.749 3.01689L15.3303 2.74929C15.3174 2.73635 15.3001 2.72772 15.2872 2.71908C15.2785 2.71477 15.2699 2.70613 15.2613 2.70182C15.2311 2.68024 15.2008 2.66297 15.1706 2.64571H15.1663C15.149 2.63708 15.1361 2.62845 15.1232 2.61982L14.2772 2.08463V3.71176L14.493 3.83692C15.0929 4.19083 15.1145 5.0454 14.5405 5.43383L14.2815 5.60647V5.8827C14.2815 6.21934 14.3117 6.52578 14.3765 6.802C14.4067 6.93148 14.4455 7.05233 14.4973 7.16454L15.7576 6.19345L15.7662 6.18913L15.7835 6.17618L15.8396 6.13302L17.0092 5.28277C17.5056 4.9116 17.4883 4.1563 16.9704 3.81534ZM42.0204 4.04409L40.5961 2.63708H40.5831C40.5745 2.63708 40.5659 2.63276 40.5572 2.63276C40.5054 2.62413 40.4062 2.60687 40.2896 2.61982C40.1084 2.63276 39.94 2.69319 39.789 2.79677C39.7631 2.81403 39.7415 2.82698 39.7242 2.84425C39.707 2.85719 39.694 2.87014 39.6811 2.88309L39.4696 3.09026C39.9228 3.56502 40.2033 4.20378 40.2033 4.9116C40.2033 5.59784 39.94 6.22366 39.5041 6.6941L39.694 6.884L39.7242 6.90558V6.91853L39.7286 6.92285L39.7415 6.93579C39.7458 6.94011 39.7501 6.94874 39.7545 6.95306C39.7588 6.95737 39.7631 6.96601 39.7674 6.97032C39.7717 6.97895 39.776 6.98327 39.7847 6.9919C39.789 7.00053 39.7933 7.00485 39.7976 7.01348C39.8019 7.02211 39.8106 7.03075 39.8149 7.03938C39.8192 7.04801 39.8235 7.05664 39.8278 7.06096C39.8321 7.06959 39.8408 7.08254 39.8451 7.09549L39.858 7.12138C39.8667 7.13433 39.871 7.14728 39.8753 7.16023L39.8883 7.18612C39.8969 7.20338 39.9012 7.22065 39.9098 7.23791L39.9228 7.26381C39.9314 7.2897 39.94 7.31992 39.9487 7.35013C39.9573 7.38466 39.9659 7.41918 39.9746 7.4494C39.9789 7.46234 39.9789 7.47098 39.9789 7.48392C39.9832 7.5055 39.9875 7.52708 39.9875 7.54435C39.9875 7.5573 39.9918 7.57024 39.9918 7.58319C39.9918 7.60046 39.9962 7.61772 39.9962 7.63498V7.70835L41.1874 6.5042L42.1498 5.54173C42.2923 5.39931 42.3829 5.21804 42.4088 5.0195C42.4174 4.96339 42.4217 4.91592 42.4217 4.86844C42.4304 4.5059 42.2362 4.27284 42.0204 4.04409ZM35.7535 2.93488C36.224 2.51623 36.8498 2.26159 37.5317 2.26159C38.2266 2.26159 38.8611 2.52486 39.3358 2.95646L39.5516 2.74498C39.5646 2.73203 39.5732 2.7234 39.5861 2.71477C39.5905 2.71045 39.5991 2.70613 39.6034 2.6975C39.6163 2.68887 39.6293 2.67592 39.6422 2.66729C39.6552 2.65866 39.6681 2.64571 39.6854 2.63708C39.7933 2.56371 39.9142 2.5076 40.0393 2.46875C40.1127 2.44718 40.1947 2.43423 40.2724 2.4256C40.3112 2.42128 40.3458 2.42128 40.3803 2.42128H40.3846L38.6711 0.7251C38.5589 0.638783 38.4597 0.543832 38.3647 0.44888C38.2957 0.379825 38.2309 0.315083 38.1575 0.25466C37.9806 0.0906507 37.7562 1.52588e-05 37.5188 1.52588e-05C37.2728 1.52588e-05 37.044 0.0949694 36.8714 0.267608L36.8498 0.289187C36.8023 0.328033 36.7592 0.366877 36.716 0.410037L36.7074 0.418669L35.2917 1.82567V1.82999C35.1925 2.32633 35.5119 2.68887 35.5119 2.69319L35.7535 2.93488ZM39.8149 7.65225C39.8149 7.6393 39.8106 7.62203 39.8106 7.60477C39.8106 7.59614 39.8106 7.58319 39.8063 7.57024C39.8063 7.55298 39.8019 7.53572 39.7976 7.51414C39.7976 7.5055 39.7933 7.49256 39.7933 7.48392C39.789 7.45371 39.7804 7.42782 39.7717 7.3976C39.7631 7.36739 39.7545 7.3415 39.7458 7.3156C39.7415 7.30697 39.7372 7.29834 39.7372 7.2897C39.7329 7.27244 39.7242 7.25518 39.7199 7.24223L39.707 7.21633C39.7027 7.20339 39.694 7.19044 39.6897 7.1818L39.6768 7.15591L39.6638 7.13001C39.6595 7.12138 39.6552 7.11275 39.6509 7.10843C39.6466 7.0998 39.6422 7.09549 39.6379 7.08685C39.6336 7.07822 39.6293 7.07391 39.625 7.06959C39.6207 7.06527 39.6163 7.05664 39.612 7.05233C39.6077 7.04801 39.6034 7.04369 39.6034 7.03938C39.5991 7.03506 39.5948 7.03075 39.5948 7.02643L39.5861 7.0178L39.5775 7.00917L39.5646 6.99622L39.3833 6.81495C38.9042 7.26812 38.2568 7.54866 37.5404 7.54866C36.8369 7.54866 36.1981 7.27676 35.719 6.83653L35.5248 7.03075C35.5205 7.03506 35.4644 7.09117 35.3651 7.15159C35.3608 7.15591 35.3565 7.15591 35.3522 7.16023C35.3435 7.16454 35.3306 7.17317 35.3219 7.17749C35.3176 7.1818 35.3133 7.18612 35.3047 7.18612C35.2961 7.19044 35.2831 7.19907 35.2702 7.20339C35.2615 7.2077 35.2572 7.21202 35.2486 7.21633C35.2356 7.22065 35.227 7.22496 35.214 7.22928L35.1882 7.24223C35.1752 7.24655 35.1666 7.25086 35.1536 7.25518C35.145 7.25949 35.132 7.26381 35.1234 7.26812C35.1148 7.27244 35.1018 7.27676 35.0889 7.27676C35.0759 7.28107 35.063 7.28539 35.0544 7.2897C35.0414 7.29402 35.0328 7.29402 35.0198 7.29834C35.0069 7.30265 34.9939 7.30697 34.9767 7.30697C34.9637 7.31128 34.9551 7.31129 34.9421 7.31129C34.9292 7.3156 34.9119 7.3156 34.8947 7.31992C34.8817 7.31992 34.8688 7.32423 34.8601 7.32423C34.8429 7.32423 34.8299 7.32855 34.8127 7.32855H34.722L36.3923 9.01178C36.4312 9.05062 36.47 9.09378 36.5132 9.13694C36.7246 9.36569 37.0095 9.68076 37.4454 9.71529C37.4972 9.72392 37.5447 9.72823 37.5878 9.72823C37.8295 9.72823 38.0626 9.63328 38.2352 9.46064L39.3574 8.33849L39.8019 7.90689V7.89394C39.8019 7.88963 39.8019 7.88531 39.8063 7.87668C39.8063 7.86805 39.8106 7.85941 39.8106 7.8551C39.8106 7.84647 39.8106 7.84215 39.8149 7.83352C39.8149 7.82489 39.8149 7.81625 39.8192 7.80331V7.77741V7.74288V7.71267V7.67383C39.8149 7.67383 39.8149 7.66519 39.8149 7.65225ZM35.5809 6.71136C35.1364 6.24092 34.8645 5.60647 34.8645 4.90728C34.8645 4.19083 35.1536 3.53912 35.6198 3.06436L35.3824 2.82267C35.3824 2.82267 35.3781 2.81835 35.3781 2.81404L35.3737 2.80972C35.3694 2.8054 35.3694 2.80109 35.3651 2.79677C35.3651 2.79245 35.3608 2.79245 35.3608 2.78814C35.3565 2.78382 35.3522 2.77951 35.3478 2.77088C35.3435 2.76656 35.3435 2.76224 35.3392 2.75793C35.3349 2.75361 35.3306 2.74498 35.3263 2.73635C35.3219 2.73203 35.3176 2.72772 35.3176 2.7234C35.3133 2.71477 35.3047 2.70613 35.3004 2.6975C35.2961 2.69319 35.2917 2.68887 35.2917 2.68024C35.2831 2.66729 35.2788 2.65866 35.2702 2.64571C35.2702 2.64139 35.2658 2.63708 35.2658 2.63276C35.2572 2.6155 35.2486 2.59824 35.2356 2.58097C35.2313 2.57666 35.2313 2.56802 35.227 2.56371C35.2184 2.55076 35.214 2.53781 35.2054 2.52055C35.2011 2.51192 35.1968 2.50328 35.1968 2.49465C35.1925 2.4817 35.1838 2.46876 35.1795 2.45149C35.1752 2.44286 35.1709 2.43423 35.1709 2.4256C35.1666 2.41265 35.1623 2.39539 35.1579 2.38244C35.1536 2.37381 35.1493 2.36086 35.1493 2.35223C35.145 2.33496 35.1407 2.32201 35.1364 2.30475C35.132 2.29612 35.132 2.28317 35.1277 2.27454L35.1148 2.2098C35.1148 2.20117 35.1105 2.19685 35.1105 2.18822C35.1061 2.158 35.1018 2.13211 35.1018 2.1019V2.08032V2.0199L33.3884 3.71176C33.3495 3.7506 33.3064 3.78945 33.2632 3.83261C33.0215 4.05272 32.6892 4.35915 32.6806 4.83391C32.6762 5.20077 32.8662 5.43815 33.0863 5.67121L34.5278 7.13001C34.5494 7.13433 34.571 7.13865 34.5925 7.13865C34.6357 7.14296 34.6832 7.14728 34.7263 7.14728C35.1407 7.14728 35.3953 6.89695 35.3953 6.89695L35.5809 6.71136Z" fill="#DCA32D"/>
<path d="M37.3117 4.54474C37.3678 4.51022 37.4369 4.48864 37.5146 4.48864C37.5879 4.48864 37.6527 4.51022 37.7131 4.54474L37.8728 4.38505L38.7791 3.48733L39.1244 3.15068C38.6971 2.76656 38.1361 2.5335 37.5146 2.5335C36.9017 2.5335 36.3449 2.76224 35.922 3.13342L36.3406 3.5607L37.3117 4.54474ZM37.8383 4.66991C37.8728 4.72601 37.8944 4.79507 37.8944 4.86844C37.8944 4.94181 37.8728 5.00655 37.8383 5.06698L38.7273 5.93449L39.2884 6.49988C39.6725 6.08123 39.9099 5.52016 39.9099 4.90729C39.9099 4.27284 39.6596 3.69881 39.2539 3.27585L38.9043 3.61681L37.8383 4.66991ZM37.7131 5.19214C37.657 5.22667 37.5879 5.24825 37.5146 5.24825C37.4412 5.24825 37.3764 5.22667 37.316 5.19214L36.4442 6.08555L35.8831 6.64662C36.3104 7.03938 36.8844 7.28107 37.5146 7.28107C38.1576 7.28107 38.736 7.03075 39.1676 6.62505L38.6065 6.05965L37.7131 5.19214ZM37.1909 5.06698C37.1563 5.00655 37.1347 4.94181 37.1347 4.86844C37.1347 4.79507 37.1563 4.73033 37.1909 4.66991L36.2111 3.68155L35.7925 3.24995C35.3738 3.67723 35.1149 4.25989 35.1149 4.90297C35.1149 5.52879 35.3566 6.09418 35.7536 6.51715L36.3147 5.95607L37.1909 5.06698Z" fill="#DCA32D"/>
<path d="M49.8046 2.97344C50.4497 2.8035 51.0988 2.73728 51.7361 2.7357C52.4426 2.7357 52.9579 2.99164 53.2862 3.29501C53.6145 3.59839 53.7808 4.04305 53.7808 4.63317V7.90635C53.206 8.06037 52.3165 8.18596 51.456 8.14555C50.6615 8.04124 49.6488 8.00032 49.359 7.20976C49.2884 7.01028 49.251 6.79834 49.251 6.56977C49.251 6.31627 49.2925 6.08354 49.3757 5.87575C49.4588 5.66381 49.5876 5.48095 49.7538 5.32719C49.9201 5.17343 50.1362 5.04875 50.3897 4.96148C50.6473 4.87421 50.9507 4.8285 51.2998 4.8285H52.2615V4.67058C52.2615 4.57915 52.2532 4.49188 52.2324 4.40876C52.2116 4.32565 52.1742 4.25084 52.1119 4.18851C52.0495 4.12617 51.9664 4.0763 51.8542 4.0389C51.742 4.0015 51.7029 3.98072 51.52 3.98072C51.4245 3.98072 51.3122 3.98487 51.1876 3.99734C49.7309 4.23959 49.9426 3.48852 49.8046 2.97344ZM52.3188 5.82087H51.7095C51.6181 5.82087 51.5225 5.82918 51.4186 5.84165C51.3147 5.85412 51.2191 5.88321 51.1318 5.93308C51.0446 5.98294 50.9739 6.05359 50.9116 6.14502C50.8534 6.23645 50.8243 6.3038 50.8243 6.46172C50.8243 6.69029 50.8991 6.84821 51.0529 6.93963C51.2066 7.03106 51.4103 7.02361 51.6721 7.02361C51.7095 7.02361 52.2565 7.04854 52.3188 7.02361V5.82087Z" fill="#142B4B"/>
<path d="M55.1321 3.00179C55.3839 2.92798 55.7096 2.86284 56.1091 2.79771C56.5086 2.73257 56.9254 2.70218 57.364 2.70218C57.8069 2.70218 58.1803 2.75863 58.4712 2.87587C58.7665 2.99311 59.001 3.15377 59.1747 3.36654C59.3484 3.57931 59.47 3.83116 59.5438 4.12208C59.6176 4.41301 59.6523 4.73868 59.6523 5.09474V8.05179H58.1673V5.27711C58.1673 4.79947 58.1022 4.46078 57.9806 4.26104C57.8547 4.06129 57.6202 3.96142 57.2728 3.96142C57.1642 3.96142 57.0557 3.96576 56.9341 3.97445C56.8125 3.98313 56.7083 3.99616 56.6171 4.00919V8.05179H55.1364V3.00179H55.1321Z" fill="#142B4B"/>
<path d="M68.2489 8.08185H67.7672C67.2162 8.08185 66.7649 7.63492 66.7649 7.08384V2.85313H67.3854C67.8627 2.85313 68.2489 3.23932 68.2489 3.71663V8.08185Z" fill="#142B4B"/>
<path d="M69.6105 3.00179C69.8623 2.92798 70.188 2.86284 70.5875 2.79771C70.987 2.73257 71.4038 2.70218 71.8424 2.70218C72.2853 2.70218 72.6587 2.75863 72.9496 2.87587C73.2449 2.99311 73.4794 3.15377 73.6531 3.36654C73.8268 3.57931 73.9483 3.83116 74.0222 4.12208C74.096 4.41301 74.1307 4.73868 74.1307 5.09474V8.05179H72.6457V5.27711C72.6457 4.79947 72.5806 4.46078 72.459 4.26104C72.333 4.06129 72.0986 3.96142 71.7512 3.96142C71.6426 3.96142 71.5341 3.96576 71.4125 3.97445C71.2909 3.98313 71.1867 3.99616 71.0955 4.00919V8.05179H69.6148V3.00179H69.6105Z" fill="#142B4B"/>
<path d="M60.9832 4.20695V0.36211H61.4755C61.8537 0.36211 62.0293 0.423681 62.2336 0.62795C62.4951 0.889485 62.4995 0.924129 62.5019 2.76698L62.5045 4.64017L62.9622 4.15257C63.214 3.88439 63.5787 3.48034 63.7725 3.25468L64.1251 2.84439C64.7131 2.86536 65.3012 2.83686 65.8892 2.85783L64.8332 4.01734L63.7772 5.12739L64.3329 5.73542C64.8784 6.33223 65.25 6.83756 65.7377 7.64565L65.9829 8.05179H65.1159H64.249L63.7614 7.32073C63.4933 6.91865 63.0997 6.42171 62.8867 6.21643L62.4994 5.84319V6.94749V8.05179H61.7413H60.9832V4.20695Z" fill="#142B4B"/>
<path d="M44.0614 8.03382L43.6543 7.93074V4.14643V0.36211H44.3423C45.1349 0.36211 45.1719 1.0744 45.1719 1.75944L45.1706 2.96803L45.5111 2.83146C46.6371 2.52976 47.3587 2.86473 47.8877 3.39685C48.3426 3.86673 48.5283 4.59483 48.5438 5.34734C48.596 6.785 47.9565 7.60044 46.935 8.04506C46.4801 8.23509 44.8303 8.206 44.0614 8.03382ZM46.9224 5.83981C47.0089 5.00656 47.0228 4.26217 46.1649 4.0323C45.752 3.96479 45.6006 4.02393 45.1786 4.16298V6.75383C46.2422 7.14305 46.8306 6.72318 46.9224 5.83981Z" fill="#142B4B"/>
<path d="M75.3757 9.48368L75.7611 8.32936C76.6853 8.62613 78.1387 9.2159 78.4342 7.85248C78.4342 7.85248 78.4671 7.67679 78.4552 7.56508C76.3775 8.12178 75.2498 7.12319 75.2288 5.3117C75.2288 3.43042 76.19 2.72651 78.0394 2.72651C78.5587 2.76442 79.4873 2.85197 79.9999 2.98934V5.83367V8.18108C80.0067 8.84504 79.5279 9.27343 78.9499 9.59321C78.0519 10.1116 76.4972 10.1312 75.3757 9.48368ZM78.4636 6.33483C78.4636 5.83341 78.4755 5.83478 78.4755 5.13023V3.93619C77.1576 3.79035 76.81 4.5566 76.7505 5.04917C76.6916 5.49182 76.751 5.93587 77.0649 6.22447C77.3794 6.50522 77.884 6.60263 78.4636 6.33483Z" fill="#142B4B"/>
</g>
</g>
<defs>
<clipPath id="clip0_1801_2359">
<rect width="80" height="9.97631" fill="white"/>
</clipPath>
<clipPath id="clip1_1801_2359">
<rect width="80" height="9.97631" fill="white"/>
</clipPath>
</defs>
</svg>
