<svg width="80" height="19" viewBox="0 0 80 19" fill="none" xmlns="http://www.w3.org/2000/svg">
<g clip-path="url(#clip0_1801_2576)">
<g clip-path="url(#clip1_1801_2576)">
<path d="M40.6804 15.6324V7.5151L37.2083 12.8172H37.1144L33.5955 7.60889V15.7263H30.9678V3.1515H33.8769L37.1613 8.40661L40.3988 3.1515H43.214V15.6794H40.6803V15.6324H40.6804ZM50.6745 15.7732C47.3431 15.7732 45.3726 13.8962 45.3726 10.2834V3.1515H48.0001V10.2364C48.0001 12.2541 49.0793 13.2863 50.7216 13.2863C52.3639 13.2863 53.443 12.3011 53.443 10.3302V3.15137H56.0236V10.1895C56.0235 13.9433 54.006 15.7732 50.6745 15.7732ZM60.7155 5.73197V8.35965H66.2053V10.9872H60.7155V15.6794H58.088V3.1515H67.7535V5.77905H60.7154L60.7155 5.73197ZM74.745 15.8201C70.8975 15.8201 68.2698 13.0986 68.2698 9.43885V9.39189C68.2698 5.87296 70.9913 2.96381 74.745 2.96381C76.9971 2.96381 78.311 3.57384 79.5777 4.65303L77.8417 6.71751C76.9033 5.91979 76.1058 5.45049 74.651 5.45049C72.6805 5.45049 71.132 7.2335 71.132 9.29811V9.39189C71.132 11.691 72.6334 13.3333 74.8387 13.3333C75.8242 13.3333 76.5748 13.0988 77.3725 12.5827V10.9404H74.5103V8.31269H80.0001V13.8026C78.7332 14.9286 77.0441 15.8201 74.745 15.8201Z" fill="#5A5A5A"/>
<path d="M17.0322 0.00784302C15.6715 0.00784302 14.3578 0.289314 13.1847 0.805434C12.0587 0.289445 10.7449 0.00784302 9.38407 0.00784302C4.22287 0.00784302 0 4.18363 0 9.39191C0 14.5532 4.22287 18.7761 9.38407 18.7761C10.7447 18.7761 12.0586 18.4946 13.2317 17.9784C14.4047 18.4945 15.6714 18.7761 17.0792 18.7761C22.2405 18.7761 26.4632 14.5532 26.4632 9.39191C26.4164 4.18363 22.2405 0.00784302 17.0322 0.00784302ZM13.2317 17.8846C8.53952 17.8846 4.73886 14.0839 4.73886 9.39178C4.73886 4.69975 8.53952 0.899084 13.2317 0.899084C17.9237 0.899084 21.7244 4.69975 21.7244 9.39178C21.7244 14.0841 17.8769 17.8846 13.2317 17.8846ZM17.1261 9.39191C17.1274 9.90369 17.0275 10.4107 16.8323 10.8837C16.637 11.3568 16.3502 11.7866 15.9884 12.1485C15.6265 12.5104 15.1967 12.7972 14.7236 12.9925C14.2506 13.1877 13.7436 13.2876 13.2318 13.2864C11.0734 13.2864 9.33737 11.5503 9.33737 9.39191C9.33737 7.23352 11.0734 5.4976 13.2318 5.4976C13.7436 5.49633 14.2506 5.59618 14.7236 5.79144C15.1967 5.98669 15.6265 6.2735 15.9884 6.63537C16.3502 6.99725 16.637 7.42706 16.8323 7.90012C17.0275 8.37317 17.1274 8.88015 17.1261 9.39191Z" fill="#E60000"/>
</g>
</g>
<defs>
<clipPath id="clip0_1801_2576">
<rect width="80" height="18.784" fill="white"/>
</clipPath>
<clipPath id="clip1_1801_2576">
<rect width="80" height="18.784" fill="white"/>
</clipPath>
</defs>
</svg>
