<svg width="80" height="24" viewBox="0 0 80 24" fill="none" xmlns="http://www.w3.org/2000/svg">
<g clip-path="url(#clip0_1801_2476)">
<path d="M61.3434 16.0929C61.3434 16.0621 61.3434 16.0421 61.3434 16.0221C61.3434 15.8189 61.345 15.6157 61.3422 15.4126C61.3414 15.361 61.357 15.3442 61.4086 15.3446C61.6302 15.347 61.8518 15.3454 62.0734 15.3458C62.1525 15.3458 62.1529 15.3458 62.1529 15.4278C62.1529 16.5965 62.1529 17.7649 62.1529 18.9336C62.1529 19.4304 62.1529 19.9272 62.1529 20.424C62.1529 20.5024 62.1525 20.5028 62.0761 20.5028C61.8526 20.5028 61.6294 20.5016 61.4058 20.5036C61.3566 20.504 61.3418 20.4884 61.3422 20.4392C61.3446 20.238 61.343 20.0364 61.343 19.8352C61.343 19.8128 61.343 19.7904 61.343 19.7516C61.3146 19.7776 61.2954 19.7928 61.279 19.8104C61.0434 20.0648 60.7682 20.2636 60.4546 20.4076C60.013 20.6103 59.5507 20.6871 59.0675 20.6375C58.5303 20.5823 58.0519 20.382 57.6379 20.034C57.2463 19.7044 56.9652 19.2956 56.8036 18.8044C56.6664 18.388 56.6288 17.9625 56.69 17.5297C56.7572 17.0533 56.9344 16.6217 57.2295 16.2421C57.5599 15.8173 57.9747 15.5126 58.4827 15.339C58.9243 15.1886 59.3751 15.155 59.8318 15.2418C60.3706 15.3446 60.8378 15.5901 61.2258 15.9849C61.2558 16.0157 61.2862 16.0461 61.317 16.0765C61.321 16.0793 61.3266 16.0817 61.3434 16.0929ZM57.5447 17.8297C57.5459 18.1632 57.5759 18.3564 57.6547 18.5888C57.7703 18.9296 57.9663 19.2172 58.2447 19.4412C58.6711 19.784 59.1583 19.914 59.6982 19.842C60.0586 19.794 60.3834 19.656 60.6518 19.4116C61.2762 18.8428 61.455 18.1352 61.233 17.3269C61.1214 16.9209 60.881 16.5929 60.5438 16.3409C60.3218 16.1749 60.075 16.0645 59.8054 16.0109C59.5775 15.9657 59.3479 15.9637 59.1171 16.0021C58.8387 16.0485 58.5823 16.1497 58.3547 16.3157C57.8135 16.7117 57.5587 17.2573 57.5447 17.8297Z" fill="#002657"/>
<path d="M72.9934 16.0825C72.9934 16.0625 72.9934 16.0425 72.9934 16.0225C72.9934 15.8173 72.9946 15.6121 72.9926 15.407C72.9922 15.3614 73.005 15.3442 73.0522 15.3446C73.283 15.3466 73.5142 15.3462 73.745 15.3446C73.7894 15.3442 73.8066 15.361 73.8026 15.4042C73.8014 15.419 73.8026 15.4342 73.8026 15.4494C73.8026 17.1001 73.8026 18.7504 73.8026 20.4012C73.8026 20.4164 73.8014 20.4312 73.8026 20.4464C73.8058 20.4864 73.7906 20.5032 73.7482 20.5032C73.5154 20.5016 73.2826 20.5016 73.0498 20.5032C73.005 20.5036 72.9922 20.4876 72.9926 20.4444C72.9942 20.2372 72.9934 20.0304 72.993 19.8232C72.993 19.8032 72.991 19.7836 72.9894 19.7524C72.3338 20.4456 71.5447 20.7475 70.6127 20.6235C69.9287 20.5327 69.3655 20.202 68.926 19.6664C68.0448 18.5928 68.1168 16.9869 69.0928 15.9953C69.6315 15.4478 70.2911 15.1798 71.0551 15.1978C71.819 15.2158 72.4586 15.5238 72.979 16.0885C72.9842 16.0869 72.9886 16.0845 72.9934 16.0825ZM69.1952 17.8093C69.1956 18.164 69.2259 18.3576 69.3039 18.588C69.4195 18.9292 69.6151 19.2168 69.8935 19.4408C70.3195 19.784 70.8067 19.9136 71.3471 19.8428C71.6367 19.8048 71.9062 19.708 72.1414 19.536C72.8038 19.052 73.0582 18.3892 72.9422 17.5805C72.8858 17.1893 72.7114 16.8493 72.441 16.5617C72.1702 16.2737 71.8402 16.0905 71.4563 16.0117C71.2271 15.9649 70.9951 15.9637 70.7623 16.0033C70.4839 16.0505 70.2279 16.1521 70.0007 16.3189C69.4623 16.7145 69.2084 17.2581 69.1952 17.8093Z" fill="#002657"/>
<path d="M75.8319 15.8497C75.9571 15.7033 76.1023 15.581 76.2659 15.4818C76.4831 15.3498 76.7163 15.2618 76.9655 15.2142C77.2511 15.1594 77.5363 15.1622 77.8202 15.217C78.1666 15.2838 78.4774 15.4302 78.7426 15.6673C79.0414 15.9341 79.2318 16.2697 79.3374 16.6545C79.3994 16.8801 79.4258 17.1117 79.4254 17.3461C79.425 18.3792 79.425 19.4124 79.4262 20.4456C79.4262 20.4972 79.4102 20.508 79.3626 20.5076C79.1298 20.5052 78.897 20.5048 78.6642 20.508C78.6102 20.5088 78.5958 20.4932 78.5958 20.4388C78.5974 19.466 78.597 18.4928 78.597 17.5201C78.597 17.2565 78.5658 16.9989 78.4614 16.7541C78.297 16.3681 78.023 16.1025 77.6143 16.0037C77.1035 15.8801 76.6383 15.9797 76.2431 16.3405C76.0431 16.5229 75.9131 16.7525 75.8591 17.0197C75.8327 17.1513 75.8179 17.2877 75.8175 17.4217C75.8143 18.4208 75.8155 19.42 75.8155 20.4196C75.8155 20.4456 75.8155 20.4716 75.8155 20.5024C75.7923 20.504 75.7739 20.5064 75.7559 20.5064C75.5195 20.5068 75.2827 20.5052 75.0464 20.5076C74.9948 20.508 74.9848 20.4896 74.9848 20.442C74.9864 19.9488 74.9856 19.456 74.9856 18.9628C74.9856 17.0585 74.9856 15.1542 74.9856 13.2498C74.9856 13.231 74.9872 13.2118 74.9852 13.1934C74.98 13.1474 74.9968 13.1314 75.0444 13.1318C75.2195 13.1342 75.3943 13.1327 75.5695 13.1327C75.6347 13.1327 75.6999 13.1346 75.7651 13.1318C75.8043 13.1302 75.8163 13.145 75.8159 13.1838C75.8143 13.3286 75.8151 13.4734 75.8151 13.6186C75.8151 14.3374 75.8151 15.0562 75.8151 15.7753C75.8151 15.7989 75.8151 15.8225 75.8151 15.8461C75.8211 15.8477 75.8267 15.8485 75.8319 15.8497Z" fill="#002657"/>
<path d="M51.1908 15.365C51.216 15.3638 51.234 15.3618 51.2516 15.3618C51.516 15.3618 51.7804 15.363 52.0448 15.3606C52.0912 15.3602 52.1136 15.3758 52.1316 15.4186C52.3935 16.0425 52.6575 16.6653 52.9207 17.2889C53.2239 18.0073 53.5271 18.7256 53.8307 19.4436C53.8371 19.4584 53.8471 19.4716 53.8599 19.4936C53.9271 19.338 53.9911 19.1904 54.0543 19.0424C54.4015 18.2348 54.7487 17.4273 55.0958 16.6197C55.2698 16.2149 55.4446 15.8109 55.6174 15.4058C55.6302 15.3758 55.645 15.361 55.6786 15.361C55.9578 15.3618 56.2374 15.3614 56.5166 15.3618C56.5254 15.3618 56.5342 15.3646 56.5522 15.3674C56.5206 15.4394 56.4918 15.5074 56.4614 15.5745C55.7506 17.1517 55.0398 18.7284 54.3291 20.3056C53.9751 21.0915 53.6211 21.8779 53.2691 22.6647C53.2463 22.7155 53.2211 22.7375 53.1619 22.7367C52.9107 22.7327 52.6591 22.7351 52.4075 22.7351C52.3855 22.7351 52.3636 22.7351 52.3304 22.7351C52.3464 22.6959 52.3572 22.6647 52.3708 22.6351C52.7031 21.9175 53.0355 21.1999 53.3691 20.4828C53.3891 20.44 53.3903 20.4048 53.3711 20.3616C52.8099 19.0812 52.25 17.8001 51.69 16.5189C51.5264 16.1445 51.3632 15.7697 51.2004 15.3954C51.1984 15.389 51.1964 15.3818 51.1908 15.365Z" fill="#002657"/>
<path d="M47.5328 19.2848C47.6072 19.3476 47.6772 19.4092 47.75 19.4676C47.9923 19.6616 48.2623 19.8024 48.5647 19.8696C48.8995 19.9436 49.2315 19.9444 49.5423 19.7732C49.9223 19.5636 49.9735 19.1172 49.8259 18.8504C49.7383 18.6916 49.5975 18.5852 49.4403 18.51C49.1907 18.3904 48.9359 18.2804 48.6795 18.1756C48.3475 18.04 48.0207 17.8973 47.7444 17.6597C47.5548 17.4965 47.4128 17.3005 47.3452 17.0545C47.292 16.8609 47.2868 16.6633 47.3224 16.4673C47.4264 15.8977 47.7784 15.5417 48.2983 15.3406C48.7367 15.171 49.1875 15.1614 49.6443 15.2526C49.9503 15.3138 50.2363 15.4246 50.5002 15.5929C50.5534 15.6269 50.603 15.6673 50.655 15.7033C50.6822 15.7221 50.685 15.7425 50.6682 15.7697C50.5506 15.9593 50.433 16.1485 50.3167 16.3385C50.2931 16.3773 50.2715 16.3637 50.2443 16.3445C50.0879 16.2321 49.9247 16.1309 49.7455 16.0593C49.4787 15.9525 49.2027 15.9205 48.9183 15.9585C48.7483 15.9813 48.5875 16.0297 48.4447 16.1281C48.0839 16.3761 48.0615 16.8441 48.3967 17.1261C48.5615 17.2645 48.7515 17.3597 48.9471 17.4433C49.2139 17.5569 49.4851 17.6613 49.7499 17.7797C49.9803 17.8825 50.1951 18.0132 50.3839 18.1848C50.6482 18.4248 50.777 18.724 50.7794 19.0828C50.7818 19.464 50.677 19.8056 50.4251 20.0944C50.2463 20.2992 50.0223 20.4364 49.7691 20.5271C49.4771 20.6315 49.1751 20.6651 48.8679 20.6495C48.4371 20.6275 48.0267 20.5223 47.6436 20.3192C47.4464 20.2148 47.266 20.086 47.1136 19.9204C47.0948 19.9 47.0804 19.8836 47.1032 19.8536C47.2404 19.6712 47.376 19.4872 47.5124 19.3036C47.5172 19.2976 47.5236 19.2932 47.5328 19.2848Z" fill="#002657"/>
<path d="M64.1303 15.9273C64.1871 15.8529 64.2323 15.7889 64.2823 15.7289C64.4871 15.481 64.7419 15.3094 65.0519 15.2262C65.3111 15.1566 65.5707 15.1566 65.8295 15.2282C65.9027 15.2486 65.9743 15.2758 66.0471 15.2978C66.0875 15.3098 66.0899 15.3282 66.0727 15.3642C65.9607 15.5929 65.8495 15.8225 65.7407 16.0529C65.7215 16.0933 65.7015 16.1005 65.6627 16.0845C65.4359 15.9917 65.2055 15.9937 64.9739 16.0633C64.7167 16.1409 64.5291 16.3081 64.3943 16.5377C64.2403 16.7993 64.1715 17.0885 64.1699 17.3889C64.1639 18.3896 64.1667 19.3908 64.1659 20.392C64.1659 20.5072 64.1659 20.5072 64.0504 20.5072C63.84 20.5072 63.6296 20.5072 63.4192 20.5072C63.3368 20.5072 63.3368 20.5072 63.3368 20.4252C63.3368 19.076 63.3368 17.7269 63.3368 16.3781C63.3368 16.0581 63.338 15.7385 63.3356 15.4186C63.3352 15.3622 63.3512 15.3438 63.4084 15.3446C63.6244 15.3474 63.8404 15.3474 64.0564 15.3446C64.1087 15.3438 64.1279 15.3578 64.1267 15.4138C64.1231 15.5642 64.1255 15.7149 64.1255 15.8653C64.1259 15.8805 64.1283 15.8969 64.1303 15.9273Z" fill="#002657"/>
<path d="M67.4512 17.9337C67.4512 18.7672 67.4508 19.6008 67.4524 20.4348C67.4524 20.4903 67.4408 20.5091 67.382 20.5079C67.1492 20.5043 66.9164 20.5051 66.6836 20.5075C66.6352 20.5079 66.62 20.4947 66.62 20.4444C66.6212 18.7712 66.6212 17.0985 66.62 15.4254C66.62 15.3774 66.6312 15.3598 66.682 15.3606C66.9168 15.3634 67.1512 15.363 67.386 15.3606C67.4372 15.3602 67.452 15.3746 67.452 15.427C67.4504 16.2625 67.4512 17.0981 67.4512 17.9337Z" fill="#002657"/>
<path d="M67.028 14.2206C66.7028 14.2198 66.4488 13.9678 66.4496 13.6458C66.45 13.319 66.7032 13.0699 67.0332 13.0707C67.3655 13.0719 67.6199 13.3238 67.6183 13.651C67.6167 13.9714 67.3576 14.2214 67.028 14.2206Z" fill="#002657"/>
<path d="M47.1708 10.4224C47.1708 7.10569 47.1708 3.79902 47.1708 0.484756C47.9367 0.484756 48.6979 0.484756 49.4707 0.484756C49.4707 1.61231 49.4707 2.73747 49.4707 3.88622C49.5159 3.86302 49.5447 3.85182 49.5691 3.83502C50.9026 2.92146 52.7878 3.10545 53.9757 4.4642C55.368 6.05653 55.1601 8.54363 53.5249 9.87478C52.3218 10.8543 50.6326 10.8871 49.3931 9.95518C49.3647 9.93398 49.3355 9.91358 49.2871 9.87838C49.2871 10.0708 49.2871 10.2432 49.2871 10.4224C48.5767 10.4224 47.8807 10.4224 47.1708 10.4224ZM52.5134 6.9537C52.5018 6.8489 52.4958 6.74291 52.4778 6.63931C52.3166 5.70975 51.349 5.15417 50.4642 5.48216C49.7391 5.75094 49.3375 6.53451 49.5187 7.32688C49.7047 8.14005 50.4478 8.63523 51.2702 8.49403C51.9794 8.37164 52.5062 7.71607 52.5134 6.9537Z" fill="#002657"/>
<path d="M63.2973 10.4228C62.5865 10.4228 61.8766 10.4228 61.149 10.4228C61.149 10.2552 61.149 10.0904 61.149 9.90038C61.0914 9.94317 61.0578 9.96837 61.0234 9.99357C59.715 10.9527 57.9295 10.8219 56.724 9.67878C55.0008 8.04485 55.2464 5.14857 57.2191 3.83262C58.3851 3.05505 59.8942 3.08865 61.0302 3.91742C61.0618 3.94022 61.0934 3.96341 61.1454 4.00141C61.1454 3.81662 61.1454 3.65503 61.1454 3.48463C61.8694 3.48463 62.5789 3.48463 63.2973 3.48463C63.2973 5.79534 63.2973 8.10525 63.2973 10.4228ZM59.4891 8.51883C60.3402 8.52243 60.9922 7.85086 60.9986 6.96369C61.005 6.07413 60.3546 5.38936 59.4994 5.38536C58.6391 5.38136 57.9855 6.05093 57.9791 6.94289C57.9727 7.83766 58.6215 8.51523 59.4891 8.51883Z" fill="#002657"/>
<path d="M79.3957 10.43C79.3313 10.43 79.2957 10.43 79.2601 10.43C78.4093 10.43 77.5582 10.4288 76.7074 10.432C76.623 10.4324 76.577 10.4032 76.5318 10.3352C75.895 9.374 75.2559 8.41444 74.6171 7.45487C74.5939 7.42008 74.5691 7.38608 74.5211 7.35928C74.5211 8.37764 74.5211 9.396 74.5211 10.422C73.7463 10.422 72.9851 10.422 72.2156 10.422C72.2156 7.10889 72.2156 3.79942 72.2156 0.483555C72.9815 0.483555 73.7427 0.483555 74.5195 0.483555C74.5195 2.28668 74.5195 4.08501 74.5195 5.88374C74.5279 5.88654 74.5363 5.88934 74.5447 5.89214C74.5687 5.86254 74.5931 5.83294 74.6167 5.80254C75.1931 5.05817 75.7698 4.3142 76.3434 3.56743C76.3958 3.49943 76.449 3.47343 76.5342 3.47383C77.3998 3.47703 78.2653 3.47583 79.1305 3.47583C79.1665 3.47583 79.2025 3.47583 79.2649 3.47583C79.2301 3.52383 79.2093 3.55503 79.1861 3.58383C78.3909 4.56459 77.5962 5.54575 76.7982 6.52411C76.737 6.59931 76.7318 6.64731 76.7894 6.7285C77.6322 7.92006 78.4713 9.11401 79.3113 10.3076C79.3345 10.34 79.3569 10.3732 79.3957 10.43Z" fill="#002657"/>
<path d="M66.7155 10.4228C65.9399 10.4228 65.1787 10.4228 64.4108 10.4228C64.4108 8.10845 64.4108 5.80174 64.4108 3.48503C65.1167 3.48503 65.8183 3.48503 66.5343 3.48503C66.5343 3.65823 66.5343 3.82742 66.5343 4.00581C66.5587 3.99421 66.5703 3.99221 66.5763 3.98541C67.0311 3.48103 67.6186 3.28024 68.277 3.24984C68.989 3.21704 69.6522 3.36624 70.2157 3.82622C70.8433 4.3386 71.1237 5.02377 71.1337 5.81614C71.1481 6.96489 71.1389 8.11405 71.1397 9.2632C71.1401 9.61719 71.1397 9.97077 71.1397 10.3248C71.1397 10.3536 71.1369 10.3824 71.1349 10.4204C70.3677 10.4204 69.6038 10.4204 68.8294 10.4204C68.8294 10.3724 68.8294 10.3296 68.8294 10.2864C68.8294 9.04241 68.8286 7.79846 68.8302 6.55451C68.8306 6.34372 68.8006 6.14013 68.7086 5.94853C68.5042 5.52175 68.0438 5.29736 67.567 5.39136C67.0915 5.48495 66.7515 5.86494 66.7211 6.33892C66.7163 6.41531 66.7163 6.49211 66.7163 6.56851C66.7159 7.80526 66.7163 9.04161 66.7163 10.2784C66.7155 10.322 66.7155 10.3656 66.7155 10.4228Z" fill="#002657"/>
<path d="M28.7041 4.44339C28.7041 4.09181 28.7041 3.76902 28.7041 3.43384C28.7513 3.43144 28.7901 3.42824 28.8285 3.42824C29.1097 3.42784 29.3913 3.43304 29.6725 3.42544C29.7821 3.42264 29.8141 3.45063 29.8137 3.56383C29.8101 5.79214 29.8109 8.02045 29.8109 10.2488C29.8109 10.288 29.8109 10.3272 29.8109 10.3744C29.4393 10.3744 29.0797 10.3744 28.7085 10.3744C28.7085 10.0456 28.7085 9.71998 28.7085 9.366C27.7466 10.3524 26.6098 10.7543 25.2715 10.5152C24.4079 10.3608 23.6979 9.92597 23.1416 9.2504C21.9916 7.85406 22.0288 5.80454 23.2396 4.4458C23.9607 3.63663 24.8795 3.23144 25.965 3.22824C27.045 3.22504 27.947 3.64703 28.7041 4.44339ZM28.6893 6.9029C28.6669 6.7225 28.6549 6.53971 28.6205 6.36132C28.293 4.66579 26.4102 3.76142 24.8895 4.56739C23.8755 5.10457 23.3499 6.22892 23.5575 7.41768C23.7903 8.75282 25.0775 9.69038 26.4206 9.50279C27.7382 9.3188 28.6777 8.23724 28.6893 6.9029Z" fill="#002657"/>
<path d="M42.3358 10.5852C41.0555 10.5336 39.8911 9.93118 39.1708 8.62443C38.26 6.97249 38.7808 4.95338 40.3555 3.87902C42.0351 2.73347 44.4286 3.13185 45.6189 4.75538C46.8737 6.46652 46.4201 8.84402 44.6242 9.97957C43.9838 10.3844 43.2838 10.5804 42.3358 10.5852ZM42.5298 9.52319C43.979 9.52439 45.1093 8.37804 45.1109 6.9065C45.1125 5.43096 43.9802 4.2746 42.5318 4.2734C41.0815 4.2722 39.9331 5.43496 39.9339 6.9045C39.9343 8.36924 41.0771 9.52199 42.5298 9.52319Z" fill="#002657"/>
<path d="M32.5467 10.3768C32.1648 10.3768 31.7976 10.3768 31.4196 10.3768C31.4176 10.334 31.4136 10.2948 31.4136 10.256C31.4132 8.02405 31.414 5.79174 31.4112 3.55983C31.4112 3.45504 31.4388 3.42344 31.5448 3.42584C31.8548 3.43264 32.1648 3.42824 32.4876 3.42824C32.4876 3.67703 32.4876 3.91622 32.4876 4.16941C32.5152 4.15701 32.5299 4.15461 32.5375 4.14621C33.1719 3.41464 33.9939 3.14865 34.9335 3.21065C35.8182 3.26904 36.5274 3.65823 37.0162 4.4094C37.327 4.88698 37.471 5.42216 37.475 5.98613C37.485 7.42288 37.4793 8.86002 37.4797 10.2972C37.4797 10.3216 37.4753 10.3464 37.4722 10.3764C37.0998 10.3764 36.7322 10.3764 36.3482 10.3764C36.3482 10.3284 36.3482 10.2824 36.3482 10.236C36.3482 8.94121 36.3478 7.64647 36.3482 6.35172C36.3482 5.96853 36.3014 5.59335 36.1286 5.24576C35.8126 4.60939 35.2922 4.2742 34.5843 4.2522C33.8171 4.2286 33.2039 4.52099 32.7995 5.19097C32.6159 5.49495 32.5455 5.83174 32.5459 6.18533C32.5467 6.8565 32.5463 7.52767 32.5463 8.19844C32.5463 8.87682 32.5463 9.55519 32.5463 10.2336C32.5467 10.2768 32.5467 10.3204 32.5467 10.3768Z" fill="#002657"/>
<path d="M16.1252 10.3768C15.7404 10.3768 15.3732 10.3768 14.9948 10.3768C14.9928 10.3332 14.9892 10.2944 14.9892 10.2556C14.9888 8.02405 14.9896 5.79214 14.9868 3.56063C14.9868 3.45743 15.0112 3.42304 15.1188 3.42544C15.4284 3.43264 15.7384 3.42784 16.0604 3.42784C16.0604 3.67943 16.0604 3.92142 16.0604 4.18301C16.0908 4.16301 16.1068 4.15661 16.1168 4.14541C16.7031 3.46023 17.4671 3.18465 18.3471 3.20264C19.2974 3.22224 20.0654 3.60223 20.5926 4.409C20.9038 4.88538 21.0486 5.42136 21.0526 5.98493C21.063 7.42528 21.057 8.86562 21.0574 10.306C21.0574 10.3272 21.0538 10.348 21.0514 10.3752C20.679 10.3752 20.3114 10.3752 19.9286 10.3752C19.9266 10.3312 19.923 10.2856 19.923 10.24C19.9226 8.93801 19.9222 7.63647 19.923 6.33452C19.923 5.95813 19.875 5.59055 19.7074 5.24976C19.3942 4.61219 18.8747 4.2754 18.1667 4.2518C17.4003 4.2262 16.7851 4.51539 16.3796 5.18497C16.1896 5.49855 16.1232 5.84654 16.1236 6.21132C16.126 7.55327 16.1244 8.89522 16.1244 10.2372C16.1252 10.2808 16.1252 10.3236 16.1252 10.3768Z" fill="#002657"/>
<path d="M9.40883 5.25376C9.35963 1.8575 5.60658 0.0063751 3.10028 1.42872C2.83709 1.11953 2.44551 0.923538 2.00792 0.923538C1.21556 0.923538 0.573181 1.56591 0.573181 2.35828V9.81358C0.573181 10.6059 1.21556 11.2483 2.00792 11.2483C2.80029 11.2483 3.44267 10.6059 3.44267 9.81358V5.44176C3.44267 3.29464 6.51974 3.39904 6.51974 5.44176L6.54054 5.44096V9.81358C6.54054 10.6059 7.18292 11.2483 7.97528 11.2483C8.76765 11.2483 9.41003 10.6059 9.41003 9.81358V5.32136C9.41003 5.29736 9.40963 5.27496 9.40883 5.25376Z" fill="#31F000"/>
</g>
<defs>
<clipPath id="clip0_1801_2476">
<rect width="80" height="23.2015" fill="white"/>
</clipPath>
</defs>
</svg>
