<svg width="51" height="80" viewBox="0 0 51 80" fill="none" xmlns="http://www.w3.org/2000/svg">
<g clip-path="url(#clip0_1801_2566)">
<path d="M36.5945 74.7697V74.714L36.5937 74.2342C36.5929 74.1937 36.6056 74.1801 36.6462 74.1809L37.1753 74.1817C37.2381 74.1817 37.2381 74.1817 37.2381 74.2462V78.1796C37.2381 78.2417 37.2381 78.2417 37.1769 78.2417C36.9994 78.2417 36.8212 78.2409 36.6438 78.2425C36.6048 78.2425 36.5929 78.2305 36.5929 78.1916L36.5937 77.7158V77.6498L36.5428 77.6959C36.3571 77.894 36.1343 78.0537 35.8872 78.1661C35.5355 78.326 35.168 78.3865 34.7837 78.3467C34.3564 78.303 33.9761 78.1454 33.6468 77.8717C33.3384 77.6183 33.1083 77.2825 32.9832 76.9035C32.8742 76.5757 32.844 76.2408 32.8925 75.9002C32.9423 75.53 33.0907 75.1799 33.3222 74.8866C33.5847 74.5525 33.9149 74.3122 34.319 74.1762C34.6707 74.0576 35.0287 74.0314 35.3923 74.0998C35.8133 74.1754 36.2005 74.3797 36.5006 74.6846L36.573 74.7562C36.5762 74.7586 36.5809 74.7609 36.5945 74.7697ZM33.5728 76.1365C33.5736 76.3991 33.5974 76.551 33.6603 76.734C33.7482 76.9985 33.9113 77.2316 34.1297 77.4047C34.4686 77.6744 34.8561 77.7771 35.2857 77.7206C35.5721 77.6832 35.8307 77.5742 36.0439 77.3816C36.5404 76.9337 36.6828 76.3768 36.5062 75.7403C36.4178 75.4205 36.2261 75.1627 35.958 74.9638C35.7814 74.8333 35.5848 74.7466 35.3708 74.7044C35.1894 74.6686 35.0064 74.6671 34.8235 74.6973C34.6049 74.731 34.3973 74.8155 34.2172 74.9439C33.7868 75.2566 33.5839 75.6862 33.5728 76.1365ZM45.86 74.7617V74.7148L45.8592 74.2303C45.8592 74.1945 45.8688 74.1809 45.907 74.1809H46.4583C46.4933 74.1809 46.5069 74.1937 46.5045 74.2279C46.5037 74.2398 46.5045 74.2518 46.5045 74.2637V78.1971C46.5069 78.229 46.4949 78.2417 46.4615 78.2417C46.2764 78.2401 46.0913 78.2401 45.9062 78.2417C45.8704 78.2417 45.8608 78.2298 45.8608 78.1955L45.8616 77.707L45.8592 77.6514C45.3381 78.1971 44.7104 78.435 43.9689 78.3372C43.4247 78.2656 42.9768 78.0054 42.6275 77.5837C42.2892 77.1705 42.1157 76.6469 42.1402 76.1135C42.1647 75.58 42.3856 75.0745 42.7604 74.6941C42.9615 74.4851 43.2045 74.3212 43.4736 74.213C43.7426 74.1048 44.0316 74.0548 44.3213 74.0664C44.9292 74.0807 45.4376 74.3226 45.8521 74.7673L45.86 74.7617ZM42.8391 76.1206C42.8391 76.3999 42.8638 76.5518 42.9259 76.734C43.0182 77.0021 43.1733 77.2289 43.3945 77.4055C43.7334 77.676 44.1209 77.7779 44.5505 77.7222C44.7812 77.6919 44.9952 77.6156 45.1822 77.4811C45.7089 77.1 45.9118 76.5781 45.8187 75.9416C45.7741 75.6337 45.6349 75.3664 45.4201 75.1396C45.2053 74.9129 44.9419 74.7689 44.6364 74.7068C44.4542 74.6694 44.2696 74.6694 44.0843 74.7005C43.8658 74.7348 43.6585 74.8198 43.4788 74.9487C43.0516 75.259 42.8495 75.687 42.8391 76.1206ZM48.118 74.578C48.2174 74.4626 48.3328 74.3663 48.4632 74.2883C48.6348 74.1854 48.8234 74.114 49.0202 74.0775C49.2469 74.0345 49.4745 74.0369 49.7004 74.0799C49.9728 74.1288 50.2265 74.2515 50.4339 74.4347C50.6718 74.6448 50.823 74.9089 50.9065 75.212C50.9559 75.3895 50.9765 75.5717 50.9765 75.7562L50.9774 78.1955C50.9774 78.2361 50.9646 78.2449 50.9264 78.2441C50.7413 78.2421 50.5562 78.2421 50.3711 78.2441C50.3281 78.2449 50.317 78.2321 50.317 78.19L50.3178 75.8923C50.3178 75.6846 50.2931 75.4818 50.2096 75.2892C50.0783 74.9853 49.8611 74.7761 49.5357 74.6989C49.1292 74.6018 48.7592 74.6798 48.4449 74.9638C48.2858 75.107 48.1824 75.2884 48.1394 75.4985C48.118 75.6019 48.1068 75.7093 48.106 75.8151L48.1044 78.2401L48.0567 78.2433C47.8689 78.2433 47.6804 78.2425 47.4926 78.2441C47.452 78.2449 47.4433 78.2298 47.4441 78.1924L47.4449 72.5317C47.4449 72.5165 47.4465 72.5022 47.4449 72.4871C47.4409 72.4513 47.4544 72.4378 47.4918 72.4386L47.9095 72.4394L48.0647 72.4386C48.0957 72.4378 48.1052 72.4489 48.1052 72.4799L48.1044 72.8221V74.5756L48.118 74.578ZM28.5271 74.2207L28.9169 75.1054L30.2543 78.1303C30.2617 78.1452 30.2655 78.1616 30.2652 78.1782C30.2649 78.1949 30.2606 78.2112 30.2527 78.2258L29.4587 79.9196C29.4476 79.9427 29.4388 79.9674 29.4269 79.9984H29.4882L30.088 80C30.135 80.0008 30.1549 79.9833 30.1732 79.9435L31.0165 78.0865L32.7127 74.3623L32.7851 74.1992C32.7708 74.1969 32.7637 74.1945 32.7565 74.1945C32.5345 74.1945 32.3117 74.1945 32.0898 74.1937C32.0635 74.1937 32.0516 74.2048 32.0412 74.2287L30.7977 77.0913L30.6426 77.4461L30.6195 77.4071L29.2678 74.239C29.2535 74.2056 29.236 74.1929 29.1986 74.1937L28.5677 74.1945L28.5191 74.1969L28.5271 74.2207ZM25.5937 77.2965L25.2683 77.7293C25.25 77.7532 25.2619 77.7659 25.2762 77.7818C25.398 77.9123 25.5412 78.0134 25.6979 78.0953C25.9996 78.2522 26.332 78.3411 26.6717 78.3555C26.9147 78.371 27.1583 78.3382 27.3886 78.2592C27.589 78.1926 27.7688 78.0753 27.9105 77.9187C28.111 77.6911 28.1945 77.4222 28.1921 77.1223C28.1905 76.8398 28.0879 76.6043 27.8779 76.415C27.7275 76.2805 27.5564 76.1771 27.3735 76.096L26.7346 75.831C26.5771 75.77 26.4296 75.6858 26.297 75.5812C26.0305 75.3592 26.048 74.9909 26.3352 74.7959C26.449 74.7188 26.5771 74.6806 26.7123 74.6623C26.9348 74.631 27.1616 74.6584 27.3703 74.7418C27.5127 74.7983 27.6424 74.8779 27.7673 74.9662C27.7888 74.9813 27.8063 74.9917 27.8246 74.9614L28.1038 74.5135C28.1173 74.492 28.115 74.4761 28.0935 74.461L27.9702 74.3743C27.7601 74.2414 27.5326 74.1547 27.2891 74.1062C26.9255 74.0346 26.5675 74.0417 26.219 74.1754C25.8053 74.3337 25.5253 74.6138 25.4425 75.0625C25.4128 75.2159 25.4191 75.3741 25.4608 75.5247C25.5149 75.718 25.6279 75.8724 25.7783 76.0013C25.9979 76.1882 26.258 76.3004 26.5222 76.4078L27.1276 76.6712C27.2554 76.7261 27.3626 76.8199 27.4339 76.9393C27.4994 77.0657 27.5125 77.2129 27.4702 77.3489C27.4279 77.4849 27.3337 77.5987 27.208 77.6657C26.9605 77.8009 26.6964 77.8001 26.4299 77.7421C26.1896 77.6895 25.9748 77.5782 25.7814 77.4254L25.6088 77.2814C25.6024 77.2886 25.5969 77.2925 25.5937 77.2965ZM38.807 74.5899L38.8078 74.2342C38.8086 74.1905 38.7935 74.1794 38.7521 74.1801H38.2366C38.1912 74.1794 38.1785 74.1945 38.1785 74.2382L38.1793 74.9932V78.1788C38.1793 78.2433 38.1793 78.2433 38.2445 78.2433H38.7466C38.8381 78.2433 38.8381 78.2433 38.8389 78.1526L38.842 75.7888C38.8436 75.5526 38.8977 75.325 39.0203 75.119C39.1277 74.9384 39.2772 74.8063 39.4817 74.7458C39.6655 74.6909 39.8493 74.6893 40.0299 74.7625C40.0609 74.7753 40.0768 74.7697 40.0919 74.7379L40.3561 74.1961C40.3696 74.1682 40.368 74.1531 40.3362 74.1436L40.1627 74.0887C39.9567 74.0322 39.7498 74.0322 39.5438 74.0871C39.2971 74.1523 39.095 74.2876 38.9319 74.4825L38.811 74.6384L38.807 74.5899ZM41.4524 74.2454C41.4524 74.204 41.4405 74.1929 41.3999 74.1929H40.8398C40.7992 74.1921 40.7905 74.2064 40.7905 74.2438V78.1948C40.7905 78.2345 40.8024 78.2449 40.8414 78.2441H41.3967C41.4437 78.2449 41.4524 78.2298 41.4524 78.186V74.2454ZM41.5853 72.8475C41.5857 72.7867 41.5739 72.7264 41.5506 72.6702C41.5272 72.614 41.4928 72.5631 41.4494 72.5205C41.406 72.4779 41.3544 72.4444 41.2978 72.4222C41.2412 72.3999 41.1807 72.3892 41.1198 72.3908C40.8573 72.39 40.656 72.5866 40.6552 72.8435C40.6544 73.0965 40.8565 73.2954 41.1151 73.2962C41.3736 73.297 41.5837 73.0997 41.5853 72.8475ZM25.4521 70.2531V62.3941H27.2708V65.084L27.3488 65.0435C28.4038 64.3211 29.8939 64.4666 30.8335 65.5407C31.9346 66.8001 31.7699 68.7669 30.4771 69.8195C29.5256 70.5944 28.1897 70.6198 27.2096 69.8831L27.126 69.8226V70.2531H25.4521ZM29.6767 67.5098L29.6489 67.2608C29.5216 66.5257 28.7562 66.0865 28.0569 66.3459C27.4832 66.5583 27.1658 67.1781 27.309 67.805C27.3724 68.1099 27.5532 68.3777 27.8124 68.5504C28.0716 68.7231 28.3883 68.7869 28.6941 68.7279C29.255 68.6308 29.6711 68.1129 29.6767 67.5098ZM38.2048 70.2531H36.5062V69.8401L36.4067 69.9141C35.3716 70.6723 33.9594 70.5697 33.0063 69.6651C32.688 69.3558 32.4422 68.9797 32.2869 68.564C32.1315 68.1482 32.0703 67.7031 32.1077 67.2608C32.1452 66.8186 32.2803 66.3901 32.5034 66.0064C32.7265 65.6227 33.0319 65.2933 33.3977 65.0419C34.3198 64.4269 35.5132 64.4531 36.4115 65.1087L36.5022 65.1747V64.7658H38.204L38.2048 70.2531ZM35.1934 68.7478C35.8665 68.751 36.382 68.2195 36.3868 67.5178C36.3916 66.8161 35.8776 66.2727 35.2014 66.2695C34.5211 66.2663 34.004 66.7962 33.9992 67.5011C33.9944 68.206 34.5076 68.7446 35.1934 68.7478ZM10.848 65.5248V64.726L10.9467 64.7212L11.6142 64.7189C11.7009 64.7165 11.7264 64.7387 11.7256 64.8287L11.7232 70.2149H10.8512V69.4169C10.0906 70.1966 9.19158 70.5148 8.13343 70.3255C7.4508 70.2029 6.88911 69.8592 6.44914 69.3254C5.53977 68.2211 5.56921 66.6005 6.52632 65.5256C6.79313 65.2171 7.12447 64.9709 7.4969 64.8046C7.86934 64.6382 8.27377 64.5557 8.6816 64.5629C9.53607 64.5613 10.2497 64.8947 10.848 65.5248ZM10.8369 67.4693L10.7828 67.0412C10.5234 65.6998 9.03484 64.9854 7.8319 65.6227C7.02993 66.0475 6.61463 66.937 6.77852 67.8766C6.87333 68.389 7.16092 68.8455 7.58211 69.1523C8.00329 69.4591 8.52604 69.5928 9.0428 69.5259C9.54123 69.4609 9.9987 69.2159 10.3291 68.8372C10.6596 68.4584 10.8401 67.9719 10.8369 67.4693ZM21.6284 70.382C20.6156 70.3414 19.6951 69.8648 19.1255 68.8313C18.4054 67.5249 18.8168 65.9282 20.0627 65.0785C21.3905 64.1723 23.2841 64.4873 24.2253 65.7714C25.2174 67.1248 24.8586 69.0048 23.4384 69.903C22.9316 70.2228 22.3779 70.378 21.6284 70.382ZM21.782 69.5418C22.9276 69.5426 23.8219 68.6364 23.8235 67.4724C23.8251 66.3085 22.9292 65.3911 21.7836 65.3903C20.6379 65.3896 19.7285 66.3093 19.7285 67.4708C19.7285 68.6324 20.6323 69.541 21.782 69.5418ZM50.936 70.2586H50.8286C50.1555 70.2586 49.4824 70.2578 48.8101 70.2602C48.7433 70.2602 48.7067 70.2372 48.6717 70.1838L47.1577 67.906C47.1394 67.8782 47.1195 67.8511 47.0821 67.8305V70.2523H45.2586V62.3925H47.0805V66.6633L47.1004 66.6697L47.1577 66.5989L48.5229 64.831C48.5393 64.8064 48.5619 64.7866 48.5885 64.7736C48.6151 64.7606 48.6446 64.7549 48.6741 64.757L50.8333 64.7586L50.7713 64.8438L48.8825 67.1693C48.834 67.229 48.83 67.2664 48.8754 67.3308L50.8699 70.1616L50.936 70.2586ZM40.9082 67.2051L40.9122 67.0237C40.9361 66.649 41.205 66.3483 41.5813 66.2743C41.7594 66.2356 41.9454 66.2581 42.1092 66.3381C42.273 66.418 42.4052 66.5508 42.4843 66.715C42.5522 66.8653 42.5851 67.0291 42.5806 67.194L42.5798 70.2507H44.4033L44.4073 70.1751V69.3357L44.4025 66.6092C44.3945 65.9823 44.1726 65.4405 43.6769 65.0355C43.2314 64.6719 42.7071 64.5542 42.1438 64.5796C41.6227 64.6035 41.158 64.7626 40.7984 65.1612C40.7936 65.1668 40.7841 65.1684 40.765 65.1771V64.765H39.0855V70.2515H40.9082V67.2051ZM13.8864 70.1035V66.902C13.8864 66.6227 13.9421 66.3562 14.0869 66.1159C14.4067 65.5861 14.8921 65.3545 15.4983 65.3736C16.0584 65.3911 16.4697 65.6561 16.7196 66.1597C16.8556 66.4342 16.893 66.7309 16.893 67.0341V70.2165H17.7817L17.7873 70.1536L17.7833 66.7445C17.7801 66.2981 17.6663 65.8749 17.4205 65.4978C17.0338 64.9034 16.4729 64.5955 15.7736 64.5494C15.0305 64.5001 14.3805 64.7109 13.8785 65.2893C13.8729 65.2965 13.861 65.2981 13.8387 65.3076V64.7212C13.5833 64.7212 13.3383 64.7244 13.0932 64.7197C13.0097 64.7181 12.9874 64.7427 12.9874 64.8255L12.989 70.121C12.989 70.152 12.9922 70.1823 12.9938 70.2165H13.8848L13.8864 70.1035ZM0.90062 70.1067L0.899825 66.9227C0.89903 66.6339 0.952333 66.3594 1.10191 66.1112C1.42253 65.5813 1.90944 65.353 2.51489 65.3728C2.77281 65.3711 3.0256 65.4449 3.24206 65.5851C3.45852 65.7254 3.62917 65.926 3.73296 66.1621C3.86503 66.4318 3.90322 66.7222 3.90322 67.0197V70.1083L3.90799 70.2149H4.79588L4.80066 70.16L4.79668 66.7429C4.7935 66.2973 4.67893 65.8733 4.43309 65.497C4.01619 64.8589 3.40836 64.5581 2.65731 64.543C1.96116 64.5287 1.35729 64.7467 0.893458 65.2885C0.885502 65.2973 0.872772 65.302 0.848904 65.3179V64.7204C0.594312 64.7204 0.349269 64.7244 0.104224 64.7189C0.0190948 64.7173 0 64.7443 0 64.8255L0.00159033 70.1202C0.00159033 70.1512 0.00397754 70.1814 0.00636435 70.2157H0.899825L0.90062 70.1067Z" fill="#002657"/>
<path d="M49.9256 23.8505C49.9256 5.14356 28.9837 -5.05048 15.1801 2.78222C13.7305 1.08043 11.5736 0 9.16293 0C4.79826 0 1.26023 3.53804 1.26023 7.90271V48.9645C1.26023 53.3291 4.79826 56.8672 9.16293 56.8672C13.5276 56.8672 17.0656 53.3291 17.0656 48.9645V24.8848C17.0656 13.059 34.1273 13.6342 34.1273 24.8848V48.9637C34.1273 53.3283 37.6653 56.8664 42.03 56.8664C46.3947 56.8664 49.9327 53.3283 49.9327 48.9637C49.9327 48.9637 49.9256 33.089 49.9256 23.8505Z" fill="#31F100"/>
</g>
<defs>
<clipPath id="clip0_1801_2566">
<rect width="50.9773" height="80" fill="white"/>
</clipPath>
</defs>
</svg>
