<svg width="89" height="33" viewBox="0 0 89 33" fill="none" xmlns="http://www.w3.org/2000/svg">
<g clip-path="url(#clip0_1801_2289)">
<g clip-path="url(#clip1_1801_2289)">
<path d="M18.1587 14.7742C17.9188 14.1027 16.7196 13.7189 16.4798 13.623C16.2399 13.527 16.0001 13.4311 16.0001 13.4311C16.144 14.0547 15.8082 14.5824 15.8082 14.5824H15.8562C15.9041 14.5344 16.0001 14.5824 16.0001 14.5824C17.1993 14.8702 18.0627 15.7336 18.0627 15.7336C18.1107 15.7336 18.1107 15.7336 18.1107 15.7336C18.1587 15.5897 18.1587 15.4458 18.1587 15.3498C18.1587 15.2539 18.1587 14.8702 18.1587 14.7742ZM19.6457 8.97006C19.4058 9.066 18.5904 8.92209 18.3505 8.77819C18.1587 8.63428 18.0147 8.63428 18.0147 8.63428C17.1993 8.49038 16.9115 8.92209 16.8635 8.92209C16.8635 8.97006 16.8635 8.97006 16.8635 8.97006C16.8635 8.97006 17.3912 8.77819 18.2066 9.16193C19.0701 9.54568 19.5977 9.01803 19.5977 9.01803C19.6936 8.97006 19.6457 8.97006 19.6457 8.97006ZM20.3172 28.685C20.4611 27.7736 19.166 27.9175 19.166 27.9175C19.118 27.8696 19.118 27.8696 19.118 27.8696C20.0774 27.7257 20.3652 28.1574 20.3652 28.1574C20.3652 27.5818 19.9335 27.4858 19.9335 27.4858H19.8855C19.7416 27.15 19.166 27.1021 18.8782 27.2939C18.5904 27.4858 18.3505 27.4858 18.3505 27.4858C17.1993 27.7257 16.5277 26.7663 16.5277 26.7663C15.4245 25.0394 17.0554 25.2313 16.8155 23.3126C16.5757 21.4418 13.4098 21.0101 13.4098 21.0101C12.5464 20.9142 11.8748 22.641 11.7309 23.1207C11.587 23.6004 11.4431 23.7443 11.4431 23.7443C11.3951 23.8402 11.4911 23.7923 11.4911 23.7923C14.0813 24.176 13.9854 25.5671 13.9854 25.5671C13.9854 25.8069 13.6017 25.8549 13.6017 25.8549C13.3618 25.9029 12.8342 26.1907 13.7456 26.8143C13.8415 26.8622 13.8895 26.9102 13.9374 26.9582C13.9374 26.9582 13.9374 26.9582 13.9374 27.0061C13.8895 27.0541 13.7935 27.1021 13.6496 27.198C13.6496 27.198 13.6017 27.198 13.4578 27.246C13.3618 27.2939 13.17 27.4379 13.122 27.7736C13.122 27.7736 13.122 27.7736 13.122 27.7257C13.17 27.7257 13.2659 27.4858 13.6976 27.5338C13.9374 27.5338 14.1773 27.4379 14.4171 27.2939C14.5131 27.3419 14.609 27.4379 14.7049 27.4858C14.609 27.5338 14.561 27.5338 14.4651 27.5818C14.4651 27.5818 14.3692 27.6297 14.2732 27.6297C14.1773 27.6297 13.9854 27.7736 13.8895 28.1094C13.8895 28.1094 13.8895 28.1094 13.8895 28.0614C13.8895 28.0614 14.0334 27.8216 14.4651 27.9175C14.7049 27.9655 14.9448 27.9175 15.1367 27.8216C15.2326 27.8696 15.2806 27.9175 15.3765 27.9655C15.2806 28.0135 15.1846 28.0614 15.0407 28.1094C15.0407 28.1094 14.9448 28.1574 14.8488 28.1574C14.7529 28.1574 14.5131 28.3013 14.4171 28.5891C14.4651 28.5411 14.561 28.3493 14.9927 28.4452C15.2806 28.5411 15.5684 28.4452 15.8082 28.3493H15.8562C16.4318 28.781 16.9115 29.2606 16.9115 29.5485C16.9115 30.1241 17.3912 30.268 17.3912 30.268C17.3912 30.5558 17.2473 30.5558 17.2473 30.5558C17.1993 30.6038 17.2473 30.6038 17.2473 30.6038C17.7269 30.6517 17.8708 30.268 17.8708 30.268C18.3026 29.8842 18.1587 29.4525 18.1587 29.4525C18.6383 30.22 19.118 30.0281 19.118 30.0281V30.0761C19.166 30.4119 18.9741 30.6997 18.9261 30.6997C18.9261 30.7477 18.9261 30.7477 18.9261 30.7477C19.5497 30.3639 19.5497 29.9802 19.5497 29.9802C19.5497 29.9322 19.5497 29.9322 19.5497 29.9322C20.1733 29.1647 18.9741 28.5891 18.9741 28.5891C19.4058 28.6371 19.5977 28.781 19.6457 28.8289C19.6936 28.8769 19.7416 29.0208 19.8855 29.0688C20.0294 29.0688 20.1733 29.0688 20.1733 29.0688C20.2693 29.0688 20.3172 29.4046 20.3172 29.4046C20.605 28.9728 20.3172 28.685 20.3172 28.685ZM18.4944 11.9921C18.4944 11.9921 18.3505 11.9441 18.3985 12.04C18.3985 12.04 18.9741 12.8555 18.9261 13.0953C18.9261 13.2872 18.9261 13.2872 18.8302 13.2392C18.7822 13.2392 18.5424 13.2392 18.6863 13.527C18.8302 13.8628 19.0221 14.1506 18.8302 14.5824V14.6303C18.7822 14.6303 18.7343 14.5344 18.5904 14.6783C18.4944 14.8222 18.4465 15.2539 18.4944 15.7336C18.4944 15.7336 18.4944 15.8295 18.3985 15.8775C18.3026 15.9255 18.3985 16.0214 18.5424 16.0214C18.6383 15.9734 19.3579 15.7336 19.3579 15.7336C19.3579 15.7336 19.7416 15.6377 20.0774 14.7742C20.4132 13.8628 21.9482 11.8961 22.0441 11.8482C22.188 11.8002 22.4758 11.6563 22.5717 11.5603C22.6197 11.4644 22.7636 10.9847 22.8595 10.7449H22.9075C22.9075 10.7449 23.3872 10.9847 23.723 10.601C23.723 10.601 23.8669 10.649 23.9149 10.8408C23.9149 10.8408 23.9149 10.8408 23.9628 10.8408C23.9628 10.8408 24.0588 10.553 23.8669 10.2652C23.8669 10.2652 23.8189 9.54568 22.8116 9.83349C22.8116 9.83349 22.8595 9.73755 23.1474 9.64162C23.3872 9.59365 23.4352 9.64162 23.627 9.35381C23.627 9.35381 23.723 9.2099 23.9628 9.59365C23.9628 9.59365 23.9628 9.59365 24.0108 9.59365C24.0108 9.59365 24.1547 9.25787 23.7709 8.97006C23.7709 8.92209 23.723 8.34647 23.0035 8.44241C23.0035 8.44241 22.5238 8.49038 22.188 8.97006C22.188 8.92209 22.2839 8.68225 22.6197 8.44241C22.6197 8.44241 22.8116 8.34647 22.8116 8.20257C22.8595 8.01069 22.7156 7.96273 22.7636 7.86679C22.8595 7.77085 23.0035 7.72288 23.0994 7.72288C23.0994 7.72288 22.9555 7.43508 22.4758 7.62695C22.4278 7.62695 21.5644 7.33914 21.5644 8.68225C21.5644 8.68225 21.5644 8.77819 21.5644 8.73022C21.5644 8.73022 21.4205 8.58631 21.4685 8.10663C21.4685 8.10663 21.5644 7.86679 21.3725 7.86679H21.3246C21.3246 7.86679 21.3725 7.62695 21.5164 7.57898H21.5644C21.5644 7.57898 21.0847 7.29117 20.8449 8.49038C20.8449 8.49038 20.8449 8.92209 20.9408 9.11397C20.9888 9.30584 21.0368 10.0254 20.5571 10.601C20.5571 10.601 19.2619 11.9441 18.4944 11.9921ZM12.8342 16.5491C14.657 15.7336 15.3285 15.0141 15.5684 14.4864C15.6163 14.3425 15.6643 14.2466 15.7123 14.1506C15.7123 14.0067 15.7123 13.8149 15.7123 13.8149C15.7123 13.623 15.7123 13.4311 15.6163 13.2872C15.5684 13.1913 15.4245 13.0474 15.2806 12.9514C15.0407 12.7596 14.8488 12.5197 14.8488 12.5197C14.9448 14.6783 12.8821 15.4937 12.8821 15.4937C12.8342 15.4937 12.8342 15.5417 12.8342 15.5417C12.9781 16.2612 12.7382 16.5011 12.7382 16.5491C12.7382 16.597 12.8342 16.5491 12.8342 16.5491ZM14.657 15.7816C14.657 15.7816 15.5204 15.7336 15.7123 17.0767C15.7123 17.0767 15.7123 17.1247 15.7602 17.1247C15.7602 17.1247 16.9594 16.2133 17.0074 15.3019C17.0074 15.3019 17.0074 15.2539 16.9594 15.2539C16.9594 15.2539 16.5277 14.9181 15.7602 14.7263H15.7123C15.7123 14.7263 15.4245 15.3019 14.657 15.7816ZM13.4578 -1.06023e-05C5.8308 0.191863 -0.165238 6.52368 0.0266351 14.1506C0.122572 18.084 1.8974 21.5857 4.63159 24.0321L4.67956 24.0801L4.7755 24.0321C4.9194 23.7923 5.25518 23.6004 5.44705 23.6004H5.6869C5.6869 23.6004 5.6869 23.6004 5.6869 23.5524L5.49502 23.4085C5.35112 23.2646 5.20721 23.1687 5.06331 22.9768C2.71286 20.7703 1.17787 17.6044 1.08194 14.1027C0.986001 10.601 2.32911 7.38711 4.58362 5.03666C6.83813 2.68621 9.95607 1.15123 13.4578 1.05529C17.0074 0.959355 20.1733 2.30247 22.5717 4.55698C24.9222 6.81149 26.4092 9.92943 26.5051 13.4311C26.6011 16.9808 25.258 20.1946 23.0035 22.5451C21.5164 24.128 19.6936 25.2793 17.5351 25.9508H17.4391V25.9988L17.4871 26.0468C17.631 26.4785 17.9188 26.6704 18.1107 26.8143L18.1587 26.8622L18.2066 26.8143C23.8669 25.0394 27.7043 19.7629 27.5604 13.527V13.4311C27.3686 5.80415 21.0368 -0.191884 13.4578 -1.06023e-05ZM15.4724 6.61961H15.4245C15.7602 6.81149 16.2399 7.2432 16.4318 6.66758C16.192 6.37977 15.7123 6.57165 15.4724 6.61961ZM9.95607 29.4525C9.95607 29.4525 9.95607 29.4525 9.95607 29.4046C9.95607 29.4046 10.5797 28.781 11.2512 29.4525C11.2512 29.4525 11.2992 29.5005 11.2992 29.4525C11.2992 29.4525 11.2512 29.0208 10.8675 28.8289C10.7715 28.781 10.7236 28.8289 10.7236 28.8289H10.6756C10.5317 28.733 10.4358 28.685 10.1959 28.733C10.1959 28.733 9.81217 28.781 9.57233 28.9249C9.38045 29.1167 9.18858 29.0688 9.09264 28.9728C8.94874 28.8769 7.94141 27.5338 7.89344 26.0468C7.89344 26.0468 7.94141 25.9508 8.03734 25.9029C8.03734 25.9029 9.7642 25.0394 10.4358 24.3679C11.1073 23.6963 11.635 21.7776 12.3065 21.0581C12.3065 21.0581 12.5943 20.6743 12.9301 20.5784C13.2179 20.4825 14.609 20.0507 14.9927 19.8109C15.3765 19.5711 16.048 18.8036 16.4798 18.7556C16.4798 18.7556 16.5757 18.6597 16.6716 18.8036L18.2546 20.2426C18.2546 20.2426 18.4944 20.4825 18.7343 20.5304C18.9741 20.5304 19.3579 20.6743 19.3579 20.9142C19.4058 21.154 19.214 21.8256 19.5977 22.0654C19.5977 22.0654 19.6936 22.2093 19.4538 22.3532C19.4538 22.3532 19.4058 22.4012 19.4538 22.4012C19.4538 22.4012 20.701 22.4492 20.4132 21.3938C20.4132 21.3938 20.4132 21.3459 20.4611 21.3459C20.4611 21.3459 20.7489 21.5378 20.8928 21.9695C21.0368 22.4012 21.2766 22.4492 21.2766 22.4492C21.2766 22.4492 21.3246 22.4971 21.3246 22.5451C21.3246 22.5451 21.3725 22.689 21.1807 22.9288C21.1807 22.9288 21.7083 22.9288 21.7083 22.5931C21.7083 22.5931 21.9961 22.4971 22.0921 22.3532C22.188 22.1613 22.3799 21.3938 21.4205 20.8182C21.4205 20.8182 21.9002 20.7703 22.14 21.2499C22.4278 21.7296 22.6197 21.154 22.7156 21.6817V21.7296C22.7156 21.7296 23.0514 21.5378 22.8116 21.106V21.0581C22.8116 21.0581 23.0514 20.2426 21.8522 20.0507H21.8042C21.8042 20.0507 21.9482 19.9068 22.2839 20.0507C22.6197 20.1467 22.7636 20.0507 22.7636 19.9068C22.7636 19.9068 22.9555 19.9068 23.0994 20.0987C23.0994 20.0987 23.1474 19.0434 21.4205 19.3312C21.4205 19.3312 20.9888 19.5231 20.605 19.2353C20.1733 18.9475 18.1107 16.9328 18.1107 16.9328C18.1107 16.9328 17.9668 16.7409 17.9188 16.645C17.8708 16.5491 17.7269 15.9734 17.7269 15.8295C17.7269 15.8295 17.7269 15.8295 17.679 15.7816C17.679 15.7816 17.3912 15.5417 17.2473 15.4458C17.2473 15.4458 17.1034 16.5491 15.6163 17.4604C15.6163 17.4604 15.4245 17.5084 15.4245 17.3645C15.4245 17.2686 15.0887 15.5897 14.1293 16.1173C13.122 16.693 12.4025 17.0287 12.2586 16.9328C12.2106 16.9328 12.2106 16.8369 12.2586 16.7889C12.3545 16.7409 12.6903 16.2133 12.5943 15.6377H12.5464C12.5464 15.6377 12.4504 15.6856 12.3065 15.7336C11.587 15.9734 11.1073 16.2133 10.8675 16.4051C10.8195 16.4051 10.7236 16.4531 10.6756 16.5011C10.5317 16.645 10.004 17.0767 9.23655 17.4604C8.46906 17.8442 7.22188 18.5158 6.8861 19.4751C6.59829 20.4345 5.49502 20.6264 4.87143 19.8589C4.24785 19.1393 4.87143 17.7962 7.60563 15.8775C7.60563 15.8775 8.42109 15.3498 8.7089 14.5344C8.99671 13.7189 8.80484 13.4791 8.75687 13.1433C8.7089 12.8075 8.94874 12.3758 9.04468 12.2799C9.09264 12.1839 9.04468 11.8961 9.04468 11.9441C9.04468 11.9441 8.94874 12.136 8.7089 12.1839C8.46906 12.2319 8.42109 12.2799 8.42109 12.3278C8.42109 12.3278 8.37312 12.3278 8.37312 12.2799C8.37312 12.2799 8.37312 12.088 8.61296 11.9441C8.8528 11.7522 8.90077 11.3685 8.8528 11.1286C8.8528 10.8888 8.90077 10.7929 8.94874 10.7449C8.94874 10.7449 8.80484 10.7929 8.66093 10.9368C8.66093 10.8888 8.46906 10.0733 8.90077 9.64162C8.99671 9.59365 9.09264 9.16193 8.75687 8.73022C8.42109 8.2985 8.42109 8.1546 8.42109 8.1546C8.42109 8.1546 8.37312 8.1546 8.37312 8.2985C8.42109 8.44241 8.32515 8.58631 8.32515 8.68225C8.27718 8.73022 8.27718 8.92209 8.32515 9.01803C8.32515 9.01803 8.08531 8.63428 8.13328 8.2985C8.18125 7.96273 8.42109 7.38711 8.13328 7.0993C8.13328 7.0993 8.08531 7.05133 8.13328 7.14727C8.13328 7.14727 8.18125 7.67492 7.70156 8.20257C7.22188 8.68225 7.74953 9.35381 7.94141 9.64162C8.13328 9.88146 7.94141 10.3132 7.98937 10.4571C7.98937 10.4571 7.94141 10.3611 7.94141 10.3132C7.94141 10.2172 7.89344 9.88146 7.70156 9.78552C7.70156 9.78552 7.70156 9.78552 7.70156 9.83349C7.70156 9.83349 7.70156 10.0733 7.6536 10.2172C7.60563 10.3132 7.60563 10.6969 7.84547 10.9368C8.08531 11.1766 7.89344 11.8961 7.74953 11.9921C7.74953 11.9921 7.74953 11.9921 7.74953 11.9441C7.74953 11.8961 7.74953 11.8002 7.7975 11.7522C7.84547 11.6563 7.84547 11.3205 7.7975 11.2725C7.7975 11.2725 7.74953 11.5124 7.41375 11.7522C7.26985 11.8482 7.12594 12.3278 7.55766 12.8075C7.55766 12.8075 7.70156 12.9514 7.7975 13.0953C7.7975 13.0953 7.46172 13.0474 7.41375 12.8555C7.41375 12.8555 7.41375 12.8555 7.36579 12.8555C7.36579 12.8555 7.31782 13.3352 7.7975 13.4791C8.13328 13.527 8.42109 14.5344 6.69423 15.5417C6.35845 15.6856 6.02267 15.9255 5.6869 16.2133C5.59096 16.1653 5.35112 16.0214 5.01534 15.5417C5.01534 15.5417 4.96737 15.4458 4.96737 15.3498C4.9194 15.2539 4.72753 15.062 4.43972 15.0141V15.062C4.43972 15.062 4.67956 15.158 4.67956 15.5897C4.67956 15.9734 4.96737 16.4051 5.25518 16.5491C5.25518 16.5491 5.25518 16.5491 5.20721 16.597C5.11128 16.693 5.01534 16.8369 4.9194 16.9328C4.82347 16.7889 4.67956 16.645 4.58362 16.4531C4.58362 16.4531 4.53566 16.3572 4.48769 16.2612C4.48769 16.1653 4.29581 15.9734 4.008 15.8775C4.008 15.8775 4.008 15.8775 4.008 15.9255C4.05597 15.9255 4.24785 16.0214 4.24785 16.4531C4.19988 16.7889 4.39175 17.1247 4.58362 17.3165V17.3645C4.48769 17.4604 4.39175 17.5564 4.34378 17.7003C4.24785 17.5564 4.15191 17.4125 4.05597 17.2206C4.05597 17.2206 4.008 17.1247 4.008 17.0287C3.96004 16.9328 3.81613 16.693 3.52832 16.597C3.57629 16.597 3.76816 16.7409 3.72019 17.1726C3.62426 17.5564 3.81613 18.0361 4.05597 18.18C4.05597 18.18 4.05597 18.18 4.05597 18.2279C3.76816 18.9475 3.72019 19.7629 4.19988 20.4825C5.15924 21.8735 6.69423 21.0581 6.69423 21.0581C6.69423 21.0581 6.79017 20.9621 6.79017 21.0581C6.79017 21.0581 6.93407 22.2093 7.22188 22.8809C7.50969 23.5524 7.12594 24.0321 6.45439 24.128C5.78283 24.224 5.20721 24.5598 5.39909 25.3272C5.49502 25.5191 5.59096 25.8549 5.73486 26.2386C5.59096 26.2386 5.39909 26.2386 5.20721 26.2386C5.20721 26.2386 5.11128 26.2386 5.01534 26.1907C4.9194 26.1427 4.67956 26.1907 4.43972 26.3826C4.48769 26.3826 4.67956 26.2386 5.01534 26.5265C5.25518 26.7183 5.63893 26.7663 5.87877 26.7663H5.92674C5.97471 26.8622 6.02267 27.0061 6.07064 27.1021C5.92674 27.1021 5.78283 27.0541 5.63893 27.0061C5.63893 27.0061 5.54299 27.0061 5.44705 26.9582C5.35112 26.9102 5.11128 26.9102 4.82347 27.1021C4.82347 27.1021 4.82347 27.1021 4.87143 27.1021C4.87143 27.0541 5.11128 26.9582 5.39909 27.2939C5.63893 27.5338 5.97471 27.6297 6.26251 27.6297C6.31048 27.6777 6.31048 27.7736 6.35845 27.8216C6.21455 27.8216 6.02267 27.7736 5.78283 27.7257C5.78283 27.7257 5.6869 27.7257 5.63893 27.6777C5.54299 27.6297 5.25518 27.6297 5.01534 27.7736C5.06331 27.7736 5.30315 27.6777 5.59096 28.0135C5.8308 28.2533 6.26251 28.3972 6.55032 28.3493C6.7422 28.8289 6.8861 29.1647 6.8861 29.1647C6.8861 29.1647 6.98204 29.7403 6.93407 29.9322C6.8861 30.172 7.03001 30.6038 7.36579 30.7477C7.70156 30.9395 7.98937 31.3713 7.98937 31.4192C7.98937 31.5152 7.98937 31.9948 8.56499 32.2347C8.56499 32.2347 8.66093 32.1867 8.66093 32.2827C8.66093 32.3786 8.56499 32.5705 8.56499 32.5705C8.56499 32.5705 8.56499 32.6184 8.61296 32.5705C8.66093 32.5705 8.90077 32.5225 9.04468 32.2347V32.1867C9.04468 32.1867 9.28452 31.9469 9.33249 31.707C9.38045 31.4672 9.28452 31.1794 8.8528 30.9395V30.8916C8.8528 30.8916 8.99671 30.8916 9.14061 31.0355C9.23655 31.1314 9.52436 31.3713 9.57233 31.4192C9.6203 31.4672 9.90811 31.755 10.3398 31.707C10.3398 31.707 10.3878 31.6591 10.3878 31.707C10.4358 31.707 10.5317 31.803 10.4837 32.1867V32.2347C10.4837 32.1867 10.9154 32.0428 10.8195 31.5152C10.8195 31.5152 10.8195 31.5152 10.8195 31.4672C10.8195 31.4672 10.9634 31.1314 10.9634 30.9395C10.9154 30.7477 10.7715 30.316 10.004 30.172C10.004 30.172 10.1959 30.0281 10.6276 30.22C10.6276 30.22 10.6756 30.22 10.7236 30.22C10.7236 30.268 10.8675 30.5078 11.2033 30.4119C11.2033 30.4119 11.4911 30.4599 11.539 30.8436C11.539 30.8436 11.8748 30.5078 11.3951 30.0281C11.3951 30.0281 11.1073 29.0688 9.95607 29.4525ZM16.7676 6.1879C16.7676 6.1879 16.7676 6.13993 16.7676 6.09196C16.7676 6.09196 16.6716 5.94806 16.4798 5.85212C16.3359 5.75618 15.9521 5.75618 15.6643 5.75618C15.3765 5.80415 15.1846 5.70822 14.9448 5.66025C14.7529 5.61228 14.2253 5.46838 13.8895 5.80415C13.8895 5.80415 13.8415 5.85212 13.8895 5.90009C13.8895 5.90009 13.9854 6.09196 14.1773 6.23587C14.3692 6.37977 14.7529 6.66758 15.1846 6.52368C15.1846 6.52368 15.3765 6.47571 15.4245 6.42774C15.5204 6.37977 15.7123 6.23587 15.8562 6.23587C16.048 6.23587 16.2399 6.28384 16.2399 6.28384C16.2879 6.28384 16.4318 6.3318 16.4318 6.3318C16.4318 6.3318 16.7196 6.37977 16.7676 6.1879ZM12.0187 12.9035H11.9707C12.0187 12.9514 12.0667 12.9994 12.1626 12.9994C12.3065 12.9994 12.8342 12.9035 12.9301 12.2799C12.9781 11.6083 12.1626 10.8408 11.6829 10.4571C11.1073 9.97739 10.2919 9.44974 10.1 8.87412C10.1 8.87412 9.95607 9.2099 9.7642 9.54568C9.57233 9.92943 9.6203 10.4091 9.71623 10.649C9.86014 10.9847 10.052 11.3205 10.1 11.4164C10.1479 11.5124 10.1479 11.6563 10.3878 11.7522C10.4837 11.7522 10.8195 11.7522 11.0114 11.5603C11.1553 11.4644 11.2512 11.2725 11.2512 11.1286C11.2512 10.553 10.7236 10.601 10.7715 10.7929C10.7715 10.8408 10.8675 10.8408 10.8195 10.9368C10.7715 10.9847 10.6756 11.0327 10.5797 10.9847C10.4837 10.9847 10.2439 10.649 10.7236 10.4571C11.1553 10.3132 11.6829 10.6969 11.587 11.2725C11.4911 11.8482 10.7236 12.088 10.3398 11.9921H10.2919C10.2919 12.04 10.2919 12.1839 10.2439 12.3278C10.1479 12.4238 9.7642 13.527 10.4358 14.6783C10.4358 14.6783 10.5797 14.8702 10.9154 14.8702C11.2512 14.8702 11.635 14.3905 11.3951 14.0547C11.3472 14.0067 11.3472 14.0067 11.3472 14.0547C11.3472 14.0547 11.3472 14.2466 11.1553 14.1506C10.8675 14.0547 10.9154 13.671 11.2512 13.575C11.587 13.4791 11.9707 13.623 11.8268 14.2945C11.6829 14.9661 11.0114 15.2059 10.8675 15.158C10.7715 15.158 10.7715 15.158 10.7715 15.2059C10.7715 15.2059 10.9634 15.7816 10.8675 16.0694C10.8675 16.0694 10.8195 16.1653 10.9634 16.0694C10.9634 16.0694 11.4431 15.8295 11.8268 15.6856C12.1626 15.5417 13.122 15.3019 13.8415 14.3905C14.561 13.4311 14.8968 12.04 13.8895 10.505C13.7456 10.2652 13.6017 9.83349 12.6903 9.49771C12.6903 9.49771 12.4984 9.44974 12.6423 9.35381C12.6423 9.35381 12.6903 9.30584 12.8821 9.35381C12.8821 9.35381 13.8415 9.49771 14.4171 10.7929C14.9448 12.088 15.1846 12.6636 15.9041 13.0474C16.6716 13.4311 18.1107 13.9108 18.3505 14.4384C18.3505 14.4384 18.4465 14.5824 18.4944 14.3905C18.5424 14.1986 18.5424 13.9588 18.3505 13.575C18.2066 13.1913 18.2066 13.0953 18.3505 13.0953C18.5424 13.0953 18.5424 13.0953 18.5424 12.9994C18.5424 12.9035 18.3985 11.7522 16.3359 11.7522C16.3359 11.7522 16.144 11.8002 16.192 11.6563C16.2399 11.5603 16.3838 11.5603 16.5757 11.5603C16.8155 11.5603 17.8708 11.6563 18.2066 11.9441C18.2066 11.9441 18.3505 12.04 18.2546 11.8482C18.1587 11.6083 17.631 10.6969 15.9041 10.3132C14.1773 9.92943 14.1773 8.73022 14.1773 8.73022C14.1773 8.73022 14.2253 8.53835 14.3692 8.82616C14.8968 10.0254 16.8635 10.2172 16.9594 10.2652C17.1034 10.2652 17.2952 10.4091 17.3912 10.3132C17.631 10.0733 17.679 9.64162 17.5351 9.44974C17.5351 9.44974 17.5351 9.35381 17.4871 9.40178C17.4391 9.44974 17.2952 9.54568 17.2473 9.54568C17.2473 9.54568 17.2473 9.54568 17.2473 9.49771C17.1993 9.49771 17.1034 9.30584 17.1034 9.2099C17.1034 9.2099 16.9594 9.49771 16.8635 9.59365C16.8635 9.59365 16.8635 9.64162 16.8155 9.64162C16.8155 9.64162 16.0001 9.59365 15.9041 8.92209C15.8082 8.2985 16.096 7.86679 16.8155 7.96273C16.8155 7.96273 16.9594 8.01069 17.0074 8.05866C17.0554 8.10663 17.1513 8.34647 17.1513 8.34647V8.39444L17.2952 8.20257C17.2952 8.20257 17.3432 8.1546 17.3432 8.20257L17.7269 8.2985C17.7269 8.2985 17.7749 8.34647 17.7749 8.2985C17.7749 8.2985 17.9188 8.20257 18.0147 7.91476C18.0627 7.67492 18.1107 7.33914 18.0627 7.33914C18.0627 7.33914 17.7269 7.14727 17.679 7.0993V7.05133C17.679 7.05133 17.7749 7.05133 18.1107 7.14727C18.1107 7.14727 18.2066 7.14727 18.1587 7.14727C18.1587 7.0993 18.1587 7.0993 18.1587 7.0993C18.1587 7.0993 18.0147 6.85946 17.631 6.71555C17.1513 6.52368 17.0074 6.47571 16.7676 6.52368C16.7676 6.52368 16.7196 6.52368 16.6716 6.52368C16.6716 6.52368 16.5277 7.0993 16.0001 7.14727C16.0001 7.14727 15.8562 7.14727 15.6643 7.00336C15.4724 6.85946 15.4245 6.85946 15.0887 6.81149C14.8009 6.76352 14.0813 6.61961 13.7456 6.09196C13.3618 5.51634 13.2179 5.2765 12.4504 5.66025C11.6829 6.04399 11.3951 6.04399 10.8195 5.51634H10.7715C10.7715 5.51634 10.8195 5.61228 10.7236 5.94806C10.6756 6.28384 10.7715 6.47571 10.8675 6.57165C10.9154 6.71555 10.9154 7.00336 11.3472 7.14727C11.7309 7.29117 11.9228 7.05133 12.3065 7.29117H12.3545C12.3545 7.29117 12.4025 7.33914 12.3545 7.33914C12.3065 7.33914 12.2586 7.33914 12.2586 7.33914C12.2586 7.33914 12.1146 7.2432 11.9707 7.2432C11.8268 7.29117 11.635 7.33914 11.539 7.33914C11.4431 7.33914 11.0593 7.33914 10.9154 7.0993C10.9154 7.0993 10.9154 7.0993 10.9154 7.14727C10.9154 7.14727 10.8675 7.43508 10.4837 7.96273C10.1479 8.49038 10.4837 9.066 11.2992 9.73755C12.1146 10.4091 13.074 11.1766 13.2179 11.8961C13.3618 12.5677 12.8821 13.2392 12.3545 13.2872C11.7789 13.3352 11.4911 12.7596 11.8748 12.5677C12.3545 12.3278 12.3545 13.0953 12.0187 12.9035ZM58.2602 25.0874L59.0756 22.0654H59.1236L59.939 25.0874H58.2602ZM58.4041 21.2499L56.3894 27.3899H57.5886L58.0203 25.8549H60.1309L60.5626 27.3899H61.7618L59.8911 21.2499H58.4041ZM55.0943 25.8069H55.0463L52.9836 21.2499H51.5926V27.3899H52.6958V22.689L54.7585 27.3899H56.1496V21.2499H55.0943V25.8069ZM48.5226 26.7663C47.8031 26.7663 47.2754 26.3826 47.2754 24.2719C47.2754 22.2093 47.8031 21.8735 48.5226 21.8735C49.1941 21.8735 49.7218 22.2093 49.7218 24.2719C49.7218 26.3826 49.1941 26.7663 48.5226 26.7663ZM48.5226 21.154C46.8437 21.154 46.1242 22.1134 46.1242 24.3199C46.1242 26.5265 46.8437 27.4858 48.5226 27.4858C50.1535 27.4858 50.873 26.5265 50.873 24.3199C50.873 22.1134 50.1535 21.154 48.5226 21.154ZM88.3363 21.2499H87.0891L84.9305 23.9362H84.8826V21.2499H83.7793V27.3899H84.8826V25.3752L85.5541 24.6077L87.281 27.3899H88.5761L86.2736 23.8402L88.3363 21.2499ZM44.3014 27.3899H45.4526V21.2499H44.3014V27.3899ZM63.105 21.2499H61.9537V27.3899H65.8871V26.5744H63.105V21.2499ZM74.6174 25.0874L75.4808 22.0654H75.5287L76.3442 25.0874H74.6174ZM74.8092 21.2499L72.7466 27.3899H73.9458L74.4255 25.8549H76.5361L76.9678 27.3899H78.167L76.2962 21.2499H74.8092ZM81.8606 25.8069L79.75 21.2499H78.3589V27.3899H79.4621V22.689L81.5728 27.3899H82.9638V21.2499H81.8606V25.8069ZM70.636 26.6224H69.4847V24.5118H70.588C71.2116 24.5118 71.6913 24.8955 71.6913 25.5671C71.6913 26.2866 71.3075 26.6224 70.636 26.6224ZM69.4847 21.9695H70.3002C70.9718 21.9695 71.4514 22.1134 71.4514 22.8809C71.4514 23.4565 71.1157 23.8402 70.3961 23.8402H69.4847V21.9695ZM71.5474 24.128C72.2669 23.9362 72.6027 23.5045 72.6027 22.737C72.6027 21.6337 71.7393 21.2499 70.6839 21.2499H68.3335V27.3899H70.636C71.9791 27.3899 72.8425 26.7183 72.8425 25.711C72.8425 24.6557 72.3149 24.2719 71.5474 24.128ZM36.8663 25.0874L37.6818 22.0654H37.7297L38.5452 25.0874H36.8663ZM37.0102 21.2499L34.9955 27.3899H36.1947L36.6265 25.8549H38.7371L39.1688 27.3899H40.368L38.4972 21.2499H37.0102ZM39.5046 22.0654H41.1834V27.3899H42.3347V22.0654H44.0136V21.2499H39.5046V22.0654ZM33.7004 25.8069H33.6524L31.5898 21.2499H30.1987V27.3899H31.302V22.689L33.3646 27.3899H34.7557V21.2499H33.7004V25.8069ZM84.5468 3.93339V13.1913C84.5468 15.158 83.8273 16.1653 81.8606 16.1653C79.8939 16.1653 79.1743 15.158 79.1743 13.1913V3.93339H75.193V12.9514C75.193 17.4125 77.2076 19.619 81.8606 19.619C86.5135 19.619 88.5761 17.4125 88.5761 12.9514V3.93339H84.5468ZM52.1202 7.05133C54.7105 7.05133 55.6699 9.30584 55.6699 11.6083C55.6699 13.9108 54.7105 16.1653 52.1202 16.1653C49.5299 16.1653 48.5226 13.9108 48.5226 11.6083C48.5226 9.30584 49.5299 7.05133 52.1202 7.05133ZM52.1202 19.619C56.965 19.619 59.6992 16.0694 59.6992 11.6083C59.6992 7.14727 56.965 3.59761 52.1202 3.59761C47.2754 3.59761 44.5412 7.14727 44.5412 11.6083C44.5412 16.0694 47.2754 19.619 52.1202 19.619ZM67.9977 16.0694H64.7838V12.5677H67.9977C69.2449 12.5677 70.1563 12.9994 70.1563 14.3425C70.1563 15.6377 69.2929 16.0694 67.9977 16.0694ZM64.7838 7.00336H67.9018C68.7652 7.00336 69.5327 7.38711 69.5327 8.49038C69.5327 9.59365 68.6213 9.97739 67.9018 9.97739H64.7838V7.00336ZM74.1856 14.5344C74.1856 12.7596 73.1783 11.3685 71.5474 10.8888C72.7466 10.2652 73.562 9.16193 73.562 7.77085C73.562 4.55698 70.636 3.88542 67.9977 3.93339H60.8025V19.2832H68.1896C71.4994 19.2832 74.1856 18.18 74.1856 14.5344ZM33.9402 9.68959H33.9882L39.3606 19.2832H43.438V3.93339H39.6964V13.3831H39.6485L34.276 3.93339H30.1987V19.2832H33.9402V9.68959Z" fill="#E20613"/>
</g>
</g>
<defs>
<clipPath id="clip0_1801_2289">
<rect width="88.6027" height="32.6184" fill="white"/>
</clipPath>
<clipPath id="clip1_1801_2289">
<rect width="88.6027" height="32.6184" fill="white"/>
</clipPath>
</defs>
</svg>
