<svg width="80" height="15" viewBox="0 0 80 15" fill="none" xmlns="http://www.w3.org/2000/svg">
<g clip-path="url(#clip0_1801_2233)">
<g clip-path="url(#clip1_1801_2233)">
<path fill-rule="evenodd" clip-rule="evenodd" d="M75.7775 1.90735e-05C78.109 1.90735e-05 80 1.89104 80 4.22254C80 6.55403 78.109 8.44505 75.7775 8.44505C73.446 8.44505 71.555 6.55403 71.555 4.22254C71.555 1.89104 73.446 1.90735e-05 75.7775 1.90735e-05Z" fill="url(#paint0_linear_1801_2233)"/>
<path fill-rule="evenodd" clip-rule="evenodd" d="M74.4105 0.611372C74.4029 0.987297 74.3421 1.37461 74.2244 1.75813C74.551 1.75813 74.8813 1.8075 75.2003 1.91002C75.2724 1.93281 75.3446 1.95939 75.413 1.98597C75.4851 2.01635 75.5572 2.04672 75.6256 2.0809C75.7167 1.68978 75.7471 1.29867 75.7205 0.926542C75.6484 0.888569 75.5762 0.854394 75.5003 0.824017C75.4205 0.789842 75.3332 0.759464 75.2421 0.732883C74.9687 0.649344 74.6877 0.611372 74.4067 0.615169L74.4105 0.611372ZM71.6043 4.53771C71.6651 4.57188 71.722 4.60985 71.779 4.64783C71.817 4.66301 71.8587 4.6782 71.8967 4.69339C72.0068 4.73136 72.117 4.76174 72.2271 4.78073C72.0296 4.67061 71.8246 4.58707 71.6119 4.52631L71.6005 4.53391L71.6043 4.53771ZM72.3676 5.25158C72.5992 5.58574 72.7625 5.99204 72.8346 6.43632H72.846C73.1498 6.53125 73.465 6.56922 73.7763 6.55783C73.5561 6.04141 73.2447 5.60093 72.8764 5.25538C72.7055 5.27057 72.5384 5.27057 72.3676 5.25538V5.25158ZM72.8726 6.91097V6.94515C72.8726 7.05527 72.8688 7.16539 72.8574 7.27171C72.7473 7.16539 72.641 7.05147 72.5422 6.93376C72.5422 6.89199 72.5422 6.85022 72.5422 6.80845C72.5043 6.79326 72.4625 6.77807 72.4245 6.76288L72.4055 6.75529C72.2195 6.50467 72.06 6.23507 71.9309 5.95027C72.0942 6.08697 72.2726 6.20469 72.4739 6.29962C72.3828 5.90851 72.2081 5.56296 71.9803 5.28576C71.9423 5.24019 71.9043 5.19842 71.8625 5.15665C71.8284 5.14526 71.7904 5.13387 71.7562 5.12248C71.722 5.11109 71.6841 5.0959 71.6499 5.08071C71.6157 4.90983 71.5891 4.73136 71.5777 4.55289V4.5491V4.5453V4.5415C71.5777 4.49214 71.574 4.44657 71.5702 4.39721V4.39341V4.38961V4.36683V4.36303V4.35924L72.922 1.15438C72.941 1.43917 72.9334 1.73535 72.8916 2.03533C73.1726 1.92521 73.465 1.85307 73.7612 1.8113C73.8941 1.43157 73.9624 1.04426 73.9776 0.672127C73.7384 0.7101 73.5029 0.770855 73.2713 0.861989C73.4916 0.698708 73.727 0.554413 73.9776 0.436699H73.9852H73.9928V0.432902H73.9966L74.0042 0.429105H74.0118V0.425308L74.0194 0.42151H74.027L74.0308 0.417713L74.0384 0.413916H74.0459L74.0535 0.406322H74.0611H74.0687L74.0763 0.398727H74.0839H74.0915L74.0991 0.391133H74.1029H74.1105L74.1181 0.383538H74.1257L74.1333 0.375944H74.1371H74.1447L74.1523 0.368349H74.1599H74.1675L74.1751 0.364552H74.1826H74.1902L74.1978 0.360755H74.2054H74.2092L74.2168 0.356958H74.2244V0.35316H74.2282L74.2358 0.349363H74.2434L74.2472 0.345566L74.2548 0.341769H74.2624L74.2662 0.337971H74.2738H74.2814L74.289 0.334174H74.2966H74.3042L74.3118 0.330377H74.3193H74.3269L74.3345 0.32658H74.3383H74.3459L74.3535 0.322782H74.3573H74.3649L74.3725 0.318985H74.3763H74.3839L74.3991 0.311391H74.4067C74.4712 0.288607 74.5358 0.269621 74.6041 0.250635C74.8661 0.262027 75.1244 0.307594 75.3788 0.383538C75.4699 0.410119 75.5572 0.440497 75.6446 0.478469C75.6142 0.349363 75.5762 0.224055 75.5307 0.098746V0.0911516C75.6104 0.0873544 75.6939 0.0835571 75.7813 0.0835571C75.8534 0.0835571 75.9294 0.0835571 76.0015 0.0873544C76.0661 0.292405 76.1154 0.508847 76.1458 0.729086C76.6433 1.04426 77.0192 1.49233 77.2508 2.01635C77.547 2.68846 77.604 3.48587 77.3647 4.28329L77.3457 4.34025C77.4976 4.97818 77.4748 5.68447 77.2546 6.38696C77.2242 6.48189 77.1901 6.57682 77.1559 6.67175C76.9546 7.18058 76.6698 7.63624 76.3205 8.01597C76.2977 8.18305 76.2673 8.34253 76.2218 8.50201C76.0775 8.5172 75.9294 8.5248 75.7813 8.5248H75.7623C75.5231 8.5248 75.2876 8.50201 75.0598 8.46404C75.3636 8.29316 75.6446 8.07293 75.8952 7.81851C75.937 7.37424 75.8952 6.90338 75.7623 6.43252C75.6332 6.51606 75.5041 6.5958 75.3674 6.66415C75.056 6.82364 74.7219 6.94135 74.3839 7.0135C74.5092 7.46157 74.5586 7.90964 74.5396 8.33873C74.3877 8.29316 74.2396 8.23621 74.0953 8.17545C74.0953 7.81851 74.0459 7.44638 73.9358 7.07425C73.5827 7.10083 73.2257 7.07425 72.8764 6.99072L72.8726 6.91097ZM72.7701 2.54416C72.7397 2.65048 72.7093 2.75681 72.6714 2.86313C72.6144 3.02641 72.5498 3.1821 72.4777 3.33398C72.5764 3.32259 72.6751 3.3188 72.7739 3.3188C73.0777 3.034 73.3397 2.68086 73.5447 2.27836C73.2827 2.33531 73.0207 2.42645 72.7739 2.54416H72.7701ZM71.5588 4.31747L72.9106 1.12779C72.7511 1.27589 72.603 1.43537 72.4701 1.60245C72.4587 1.8113 72.4321 2.02394 72.3866 2.23659C72.2195 2.32772 72.06 2.43024 71.9043 2.54416C71.7904 2.80997 71.7031 3.08716 71.6423 3.37575C71.8094 3.19728 71.9878 3.0378 72.1815 2.8973C72.1018 3.09476 72.0068 3.28462 71.9005 3.45929C71.8701 3.47068 71.8436 3.47828 71.8132 3.48967C71.7448 3.51625 71.6765 3.54663 71.6081 3.57701C71.5891 3.71371 71.574 3.85041 71.5664 3.98711V3.9947V4.0023V4.00609V4.01369V4.02128V4.02508V4.03267V4.04027V4.04407V4.05166V4.05546V4.05925V4.06305V4.08204V4.08584V4.09343V4.09723V4.10102V4.139V4.14659V4.15419V4.16178V4.16937V4.17697V4.18456V4.19216V4.19975V4.20735V4.21494V4.21874V4.22633V4.23393V4.24152V4.24532V4.25291V4.2643V4.2681V4.2719V4.28709L71.5588 4.31747ZM72.1891 4.2643C72.2764 4.22254 72.36 4.17317 72.4473 4.12381C72.6182 4.02128 72.7815 3.90357 72.9372 3.77067C73.3207 3.79725 73.7042 3.91876 74.0649 4.12001C74.1295 4.15798 74.194 4.19595 74.2586 4.23772C74.1713 4.30607 74.0763 4.36683 73.9852 4.42379C73.6814 4.60606 73.3549 4.73136 73.0207 4.78453C72.846 4.63643 72.66 4.50733 72.4663 4.40101C72.3752 4.35164 72.284 4.30228 72.1929 4.26051L72.1891 4.2643ZM73.408 5.16045C73.6852 5.08451 73.9586 4.963 74.2168 4.81111C74.3573 4.72757 74.494 4.62884 74.6269 4.52252C75.0332 4.88325 75.3788 5.35791 75.6104 5.9199C75.4699 6.02242 75.318 6.11356 75.1661 6.1895C74.8737 6.34139 74.5624 6.44771 74.2434 6.50847C74.0422 5.99204 73.7536 5.53638 73.4118 5.16045H73.408ZM74.0649 2.20621C73.8789 2.64669 73.6283 3.0416 73.3359 3.37196C73.6586 3.43651 73.9776 3.55802 74.2814 3.7289C74.3915 3.78965 74.5016 3.8618 74.6041 3.93395C74.9839 3.55802 75.2952 3.07198 75.5003 2.50999C75.4205 2.46822 75.337 2.43024 75.2535 2.39987C75.1927 2.37708 75.132 2.3543 75.0712 2.33531C74.7446 2.23279 74.4029 2.19102 74.0649 2.20621ZM76.0319 2.30873C76.4686 2.60492 76.8141 3.00363 77.0534 3.46689C77.0951 2.98844 77.0192 2.52517 76.8407 2.11887C76.6888 1.77712 76.4686 1.47714 76.18 1.23032C76.18 1.58346 76.1268 1.9442 76.0319 2.30873ZM76.3471 7.18058C76.5028 6.94895 76.6357 6.69833 76.7382 6.43252C76.7724 6.34898 76.8027 6.26165 76.8293 6.17811C76.947 5.79839 77.004 5.41487 76.9964 5.05033C76.7686 5.44145 76.4724 5.7832 76.1382 6.07179C76.2597 6.44391 76.3281 6.81604 76.3471 7.18437V7.18058ZM76.8787 4.24532C76.8445 4.12001 76.8027 4.0023 76.7534 3.88458C76.5635 3.43651 76.2711 3.04919 75.8838 2.75681C75.6636 3.33019 75.3408 3.82383 74.9535 4.22254C75.3636 4.59466 75.7129 5.06932 75.9635 5.62751C76.3281 5.28956 76.6243 4.87186 76.8217 4.39721C76.8407 4.34784 76.8597 4.29848 76.8787 4.24912V4.24532Z" fill="url(#paint1_linear_1801_2233)"/>
<path fill-rule="evenodd" clip-rule="evenodd" d="M73.5827 6.28063C73.4346 5.76041 73.1346 5.26298 72.7093 4.8149C73.1498 4.79972 73.8827 4.60606 74.2434 4.23393C73.9206 3.91496 73.2182 3.66814 72.5878 3.65675C72.9675 3.1783 73.4953 2.65428 73.5865 2.02774C73.1498 2.14545 72.6524 2.33531 72.2954 2.71124C72.4283 2.34671 72.5157 1.95939 72.5119 1.5265C72.4891 1.55309 72.4701 1.57967 72.4511 1.60245L71.8815 2.98084L71.7638 2.87072C71.6233 3.29222 71.5474 3.74409 71.5474 4.21494C71.5474 4.60985 71.6005 4.98958 71.7031 5.35411C71.9992 5.76421 72.2764 6.28063 72.546 6.83503C72.5271 6.44771 72.4777 6.0566 72.3182 5.65029C72.6865 5.93888 73.1688 6.11735 73.5865 6.27684L73.5827 6.28063Z" fill="#FF0000"/>
<path fill-rule="evenodd" clip-rule="evenodd" d="M1.14676 7.46537V6.85022H1.34422C1.42016 6.85022 1.46953 6.85022 1.49231 6.85781C1.52649 6.86541 1.55686 6.88819 1.57965 6.91857C1.60243 6.94895 1.61382 6.99072 1.61382 7.04008C1.61382 7.07805 1.60623 7.10843 1.59484 7.13501C1.57965 7.16159 1.56446 7.18058 1.54167 7.19577C1.51889 7.21096 1.49991 7.21855 1.47712 7.22615C1.44674 7.23374 1.40497 7.23374 1.34802 7.23374H1.26827V7.46537H1.14297H1.14676ZM1.27207 6.95274V7.12742H1.34042C1.38979 7.12742 1.42016 7.12742 1.43915 7.11603C1.45434 7.10843 1.46953 7.10084 1.47712 7.08565C1.48472 7.07046 1.49231 7.05527 1.49231 7.03628C1.49231 7.0135 1.48472 6.99451 1.47332 6.97932C1.46193 6.96414 1.44295 6.95654 1.42396 6.95274C1.40877 6.95274 1.37839 6.94895 1.33662 6.94895H1.27587L1.27207 6.95274ZM2.20999 7.46537L1.96317 6.85022H1.83026L1.59104 7.46537H1.72394L1.77331 7.32487H2.02013L2.07329 7.46537H2.20999ZM1.81508 7.22235L1.89861 6.99451L1.98595 7.22235H1.81508ZM2.27454 7.46537V6.85022H2.39605L2.65047 7.26412V6.85022H2.76438V7.46537H2.63907L2.38846 7.05907V7.46537H2.27454ZM2.88969 7.46537V6.85022H3.015V7.46537H2.88969ZM3.13271 7.46537V6.85022H3.25422L3.50864 7.26412V6.85022H3.62256V7.46537H3.49725L3.24663 7.05907V7.46537H3.13271ZM4.27948 7.23754V7.13501H4.54528V7.38183C4.5187 7.40841 4.48073 7.4312 4.43137 7.45018C4.382 7.46917 4.33264 7.48056 4.27948 7.48056C4.21492 7.48056 4.15796 7.46537 4.1124 7.43879C4.06303 7.41221 4.02886 7.37424 4.00608 7.32108C3.98329 7.27171 3.9681 7.21475 3.9681 7.15779C3.9681 7.09324 3.98329 7.03628 4.00987 6.98692C4.03645 6.93756 4.07443 6.89958 4.12759 6.873C4.16556 6.85402 4.21492 6.84263 4.27568 6.84263C4.35162 6.84263 4.41238 6.85781 4.45415 6.89199C4.49592 6.92616 4.5263 6.96793 4.53769 7.02489L4.41238 7.04768C4.40478 7.0173 4.3858 6.99451 4.36301 6.97553C4.34023 6.95654 4.30985 6.94895 4.27188 6.94895C4.21872 6.94895 4.17315 6.96793 4.14278 7.00211C4.1124 7.03628 4.09341 7.08945 4.09341 7.154C4.09341 7.22615 4.1086 7.2831 4.14278 7.31728C4.17695 7.35525 4.21872 7.37044 4.27188 7.37044C4.29846 7.37044 4.32504 7.36664 4.35162 7.35525C4.3782 7.34386 4.40099 7.33247 4.41997 7.31728V7.23754H4.27948ZM4.663 6.85022H4.925C4.98956 6.85022 5.03892 6.85402 5.0693 6.86541C5.09968 6.8768 5.12246 6.89579 5.14145 6.92616C5.16043 6.95274 5.16803 6.98692 5.16803 7.02489C5.16803 7.07046 5.15284 7.10843 5.12626 7.13881C5.09968 7.16919 5.05791 7.18817 5.00475 7.19577C5.03133 7.21096 5.05411 7.22994 5.0693 7.24893C5.08829 7.26791 5.11107 7.30209 5.14145 7.34766L5.21739 7.46917H5.0693L4.98196 7.33626C4.95159 7.2869 4.9288 7.26032 4.91741 7.24513C4.90602 7.23374 4.89463 7.22615 4.87944 7.21855C4.86425 7.21475 4.84526 7.21096 4.81489 7.21096H4.7883V7.46917H4.663V6.85022ZM4.7883 7.11223H4.87944C4.94019 7.11223 4.97437 7.11223 4.98956 7.10463C5.00475 7.10084 5.01614 7.08944 5.02373 7.07805C5.03133 7.06666 5.03512 7.05147 5.03512 7.03249C5.03512 7.0135 5.03133 6.99451 5.01994 6.98312C5.00854 6.97173 4.99336 6.96414 4.97437 6.96034C4.96298 6.96034 4.9326 6.96034 4.88323 6.96034H4.78451V7.11603L4.7883 7.11223ZM5.25916 7.16159C5.25916 7.09704 5.26676 7.04768 5.28574 7.00211C5.30093 6.97173 5.31992 6.94135 5.3427 6.91857C5.36548 6.89199 5.39206 6.8768 5.42244 6.86161C5.46041 6.84642 5.50598 6.83883 5.55534 6.83883C5.64648 6.83883 5.71863 6.86541 5.77179 6.92237C5.82495 6.97933 5.85533 7.05527 5.85533 7.15779C5.85533 7.26032 5.82874 7.33626 5.77558 7.39322C5.72242 7.45018 5.65028 7.47676 5.55914 7.47676C5.46801 7.47676 5.39586 7.45018 5.3389 7.39322C5.28194 7.33626 5.25916 7.26032 5.25916 7.16159ZM5.38827 7.15779C5.38827 7.22615 5.40346 7.27931 5.43763 7.31728C5.47181 7.35145 5.50978 7.37044 5.55914 7.37044C5.60851 7.37044 5.65028 7.35145 5.68065 7.31728C5.71103 7.2831 5.73002 7.22615 5.73002 7.15779C5.73002 7.08944 5.71483 7.03628 5.68445 6.99831C5.65407 6.96414 5.6123 6.94515 5.55914 6.94515C5.50598 6.94515 5.46801 6.96414 5.43383 6.99831C5.40346 7.03249 5.38827 7.08565 5.38827 7.15779ZM5.95405 6.85022H6.07936V7.18438C6.07936 7.23754 6.07936 7.27171 6.08316 7.2869C6.08696 7.31348 6.10215 7.33247 6.12113 7.34766C6.14012 7.36285 6.1667 7.37044 6.20087 7.37044C6.23505 7.37044 6.26163 7.36285 6.28062 7.34766C6.2996 7.33247 6.3072 7.31728 6.31099 7.29449C6.31099 7.27171 6.31479 7.23754 6.31479 7.18817V6.84642H6.4401V7.16919C6.4401 7.24133 6.4401 7.2945 6.42871 7.32487C6.42111 7.35525 6.40972 7.38183 6.39073 7.40082C6.37175 7.4236 6.34897 7.43879 6.31859 7.45018C6.28821 7.46157 6.25024 7.46917 6.20087 7.46917C6.14391 7.46917 6.09835 7.46157 6.06797 7.45018C6.03759 7.43499 6.01481 7.4198 5.99582 7.39702C5.97684 7.37424 5.96545 7.35145 5.96165 7.32867C5.95405 7.29449 5.95026 7.24133 5.95026 7.17298V6.84263L5.95405 6.85022ZM6.573 7.46537V6.85022H6.77046C6.8464 6.85022 6.89577 6.85022 6.91855 6.85781C6.95272 6.86541 6.9831 6.88819 7.00589 6.91857C7.02867 6.94895 7.04006 6.99072 7.04006 7.04008C7.04006 7.07805 7.03247 7.10843 7.02107 7.13501C7.00589 7.16159 6.9907 7.18058 6.96791 7.19577C6.94513 7.21096 6.92614 7.21855 6.90336 7.22615C6.87298 7.23374 6.83121 7.23374 6.77425 7.23374H6.69451V7.46537H6.5692H6.573ZM6.69831 6.95274V7.12742H6.76666C6.81602 7.12742 6.8464 7.12742 6.86539 7.11603C6.88058 7.10843 6.89577 7.10084 6.90336 7.08565C6.91096 7.07046 6.91855 7.05527 6.91855 7.03628C6.91855 7.0135 6.91095 6.99451 6.89956 6.97932C6.88817 6.96414 6.86919 6.95654 6.8502 6.95274C6.83501 6.95274 6.80463 6.94895 6.76286 6.94895H6.70211L6.69831 6.95274ZM0.402506 7.46537C0.402506 7.67422 0.531612 7.89825 0.759446 7.89825H7.21473C7.54889 7.89825 7.68939 7.77295 7.68939 7.46537V0.751871C7.68939 0.512646 7.50332 0.356959 7.22992 0.356959H0.805012C0.637934 0.356959 0.402506 0.539226 0.402506 0.668332V7.46537ZM0 0.63036V7.41221C0 7.71599 0.117714 8.00458 0.368331 8.14887C0.432884 8.18684 0.558193 8.25519 0.653123 8.25519H7.33245C7.74634 8.25519 8.0767 7.93623 8.0767 7.57549V0.672129C8.0767 0.52024 7.96658 0.322784 7.84887 0.212664C7.75014 0.121531 7.5375 0.00761414 7.34764 0.00761414H0.713879C0.573381 0.00761414 0.353142 0.125328 0.250617 0.220259C0.155686 0.307595 0 0.493659 0 0.63036ZM4.27568 4.30228C4.23771 4.31367 4.21872 4.33266 4.16936 4.34405C3.98329 4.39721 3.86558 4.29848 3.82761 4.28709L3.91114 4.53011C4.04405 5.03894 3.88456 5.60853 3.52003 5.96167C3.015 6.44392 2.24416 6.54264 1.648 6.14394C1.58724 6.10217 1.51889 6.0566 1.48092 5.99964C2.21378 5.99964 2.13024 4.93642 1.46573 4.9554C1.28726 4.9592 1.07841 5.08451 1.04424 5.2288H1.01766C1.01766 5.17564 0.998671 5.13007 0.994874 5.08831C0.979685 4.97439 0.994874 4.71618 1.01386 4.62504C1.04803 4.45037 1.10879 4.2795 1.19233 4.15039C1.2303 4.08584 1.27967 4.01369 1.32903 3.96053C1.35941 3.92635 1.3746 3.90357 1.40497 3.87319C1.5037 3.76687 1.74293 3.59979 1.88722 3.54283C2.02392 3.48967 2.22138 3.42132 2.41883 3.42132C2.84033 3.42132 3.08715 3.51246 3.39852 3.74409C3.52383 3.83902 3.60737 3.94154 3.70609 4.07445C3.70609 3.97572 3.71749 3.91876 3.77065 3.85421L3.81621 3.80484C4.05544 3.57701 4.48073 3.79345 4.41238 4.08963L4.43516 4.07065C4.43516 4.07065 4.44655 4.05546 4.45415 4.04786L4.73894 3.77826C5.17182 3.47069 5.74521 3.41752 6.21227 3.63397C6.2958 3.67194 6.34897 3.70611 6.42111 3.75168C6.75147 3.97192 6.96032 4.28329 7.05525 4.6782C7.11601 4.94401 7.07424 5.02375 7.07424 5.25538C7.02107 5.24019 7.02487 5.20602 6.9907 5.16425C6.85779 5.00477 6.5768 4.93642 6.35276 5.07691C6.27682 5.12628 6.22366 5.16805 6.17429 5.25159C5.98443 5.57815 6.12873 6.04141 6.64135 6.04141C6.59578 6.10596 6.52744 6.15153 6.45908 6.1971L6.25783 6.31861C5.52497 6.66036 4.73135 6.39835 4.32884 5.73383C4.26049 5.61992 4.21872 5.52878 4.18075 5.39208C4.11999 5.18324 4.1124 5.04654 4.13138 4.80351C4.15417 4.52252 4.26049 4.38582 4.27948 4.30228H4.27568ZM2.6087 2.2138C2.6087 1.89484 2.734 1.54169 2.92766 1.29867C3.03399 1.16197 3.19347 1.01388 3.34536 0.930341C3.53902 0.824018 3.51623 0.854396 3.65293 0.789843C3.62256 0.918949 3.49345 1.04046 3.63774 1.31766C3.67951 1.3974 3.70989 1.43157 3.78584 1.48474C4.07822 1.68219 4.46554 1.56827 4.58325 1.27209C4.68578 1.01768 4.57186 0.888571 4.54908 0.789843C4.61363 0.824018 4.69717 0.850599 4.76552 0.884774C4.95918 0.979705 5.12246 1.124 5.25916 1.28728C5.82115 1.97838 5.63129 3.02261 4.86045 3.48588C4.49972 3.70232 4.08202 3.74788 3.67192 3.63397C3.49345 3.5846 3.34915 3.50106 3.20486 3.39474C3.1441 3.34917 2.97323 3.19349 2.93146 3.12894C2.7416 2.85174 2.61249 2.57834 2.61249 2.2138H2.6087Z" fill="#2171B5"/>
<path fill-rule="evenodd" clip-rule="evenodd" d="M32.1815 1.71257C32.1815 2.03533 32.0714 2.30494 31.8246 2.52897C31.6043 2.73023 31.3575 2.82136 31.0879 2.82136C30.7993 2.82136 30.5449 2.73023 30.3285 2.54037C30.0854 2.33911 29.9639 2.05812 29.9639 1.72396C29.9639 1.3898 30.0778 1.10122 30.3171 0.880976C30.5373 0.691115 30.7955 0.599982 31.0879 0.599982C31.3651 0.599982 31.6119 0.698709 31.8322 0.888571C32.0714 1.10881 32.1853 1.38221 32.1853 1.71257H32.1815Z" fill="#2171B5"/>
<path fill-rule="evenodd" clip-rule="evenodd" d="M23.5922 3.10995H25.4984V3.96812C25.7756 3.61498 26.068 3.36436 26.3642 3.21627C26.6527 3.06438 27.0135 2.99224 27.4312 2.99224C27.9894 2.99224 28.4336 3.15931 28.7564 3.49347C29.0792 3.82003 29.2349 4.32886 29.2349 5.02375V8.34633H27.1844V5.47183C27.1844 5.13767 27.116 4.91363 26.9945 4.76934C26.8692 4.63644 26.6983 4.56809 26.4705 4.56809C26.2237 4.56809 26.0262 4.65922 25.8743 4.84528C25.7186 5.02755 25.6351 5.35411 25.6351 5.84016V8.34633H23.5922V3.10995ZM32.8954 3.10995H34.8016V3.96812C35.0826 3.61498 35.3712 3.36436 35.6598 3.21627C35.9522 3.06438 36.3053 2.99224 36.723 2.99224C37.2926 2.99224 37.7369 3.15931 38.0596 3.49347C38.3748 3.82003 38.5381 4.32886 38.5381 5.02375V8.34633H36.48V5.47183C36.48 5.13767 36.4192 4.91363 36.3015 4.76934C36.1724 4.63644 36.0015 4.56809 35.7737 4.56809C35.5269 4.56809 35.3218 4.65922 35.1661 4.84528C35.0142 5.02755 34.9383 5.35411 34.9383 5.84016V8.34633H32.8954V3.10995ZM29.9601 8.34633H32.1815V3.10995H29.9601V8.34633ZM16.7496 3.50106C16.7572 5.44145 15.2497 6.30721 13.6358 6.12495V4.66681C14.2054 4.59846 14.6497 4.21494 14.6649 3.38715C14.6801 2.81756 14.2396 2.37329 13.6358 2.32013V0.964516C13.7384 0.956921 13.8523 0.956921 13.97 0.956921C15.5686 0.97211 16.742 1.68979 16.7534 3.50106H16.7496ZM13.6358 6.12495V4.66681C13.3131 4.70099 12.9485 4.64023 12.5992 4.50733V2.56315C12.9561 2.3543 13.3245 2.28975 13.6358 2.32013V0.964516C13.2371 0.991096 12.9372 1.08223 12.5992 1.22273V0.956921H10.2943V8.34633H12.5992V5.87433C12.9372 6.00723 13.2903 6.09457 13.6358 6.12495ZM19.943 2.99224C20.524 2.99224 20.9987 3.02641 21.3594 3.09096C21.7353 3.16311 22.0391 3.30741 22.2859 3.52385C22.6619 3.85041 22.8821 4.45417 22.8821 4.93642V8.34633H20.9759V7.75396C20.7367 7.95521 20.3607 8.12229 19.9468 8.22102V7.27931C20.0759 7.25273 20.2051 7.21096 20.3228 7.14261C20.5202 7.04388 20.6531 6.91857 20.7367 6.77427C20.8164 6.62618 20.8582 6.43252 20.8582 6.1971V5.88952C20.581 5.99205 20.2848 6.06419 19.981 6.14014C19.9734 6.14014 19.9582 6.14393 19.9468 6.14393V5.15666C20.0228 5.14147 20.0911 5.12248 20.1443 5.10729C20.3645 5.04654 20.6038 4.96679 20.8582 4.86427C20.8582 4.61365 20.8088 4.43898 20.7063 4.33645C20.6038 4.24532 20.4177 4.19596 20.1633 4.19596C20.0873 4.19596 20.019 4.19596 19.9506 4.20735V2.98844L19.943 2.99224ZM19.0925 4.83009C19.1722 4.59467 19.2823 4.44657 19.4114 4.36303C19.5405 4.2795 19.719 4.23013 19.9468 4.21115V2.99224H19.8975C19.514 2.99224 19.1646 3.02641 18.8343 3.07577C18.5115 3.13653 18.2533 3.21627 18.0672 3.3188C17.8166 3.46309 17.6077 3.62637 17.4748 3.82763C17.3381 4.01749 17.228 4.28709 17.1597 4.62125L19.1001 4.83009H19.0925ZM19.943 7.27931C19.8595 7.29449 19.7722 7.30209 19.6886 7.30209C19.4646 7.30209 19.3051 7.25273 19.195 7.16159C19.0849 7.06286 19.0241 6.94515 19.0241 6.79326C19.0241 6.66036 19.0849 6.55024 19.195 6.44392C19.3051 6.35278 19.5519 6.25026 19.943 6.15153V5.16425C19.6696 5.2288 19.2444 5.31234 18.652 5.44145C18.0216 5.56676 17.5888 5.75662 17.3495 6.01863C17.1103 6.27684 16.9926 6.6034 16.9926 7.0135C16.985 7.95521 17.9381 8.35012 18.9406 8.35012C19.2823 8.35012 19.6203 8.30835 19.943 8.22482V7.27931Z" fill="#FF0000"/>
<path fill-rule="evenodd" clip-rule="evenodd" d="M69.0564 1.78851C69.0564 2.06951 68.9615 2.30114 68.745 2.4948C68.5552 2.66947 68.3387 2.74542 68.1071 2.74542C67.8565 2.74542 67.6362 2.66567 67.4502 2.50239C67.2375 2.32772 67.135 2.0847 67.135 1.79611C67.135 1.50752 67.2337 1.2569 67.4426 1.06704C67.6324 0.90376 67.8565 0.824018 68.1071 0.824018C68.3463 0.824018 68.5627 0.907557 68.7526 1.07464C68.9615 1.2645 69.0564 1.50372 69.0564 1.78472V1.78851Z" fill="#2171B5"/>
<path fill-rule="evenodd" clip-rule="evenodd" d="M67.135 3.08337H69.0564V8.22102H67.135V3.08337ZM64.2339 5.80218C63.9567 5.90091 63.6719 5.99205 63.3719 6.06799C62.9656 6.17811 62.7074 6.28823 62.6011 6.39455C62.4872 6.50467 62.434 6.62998 62.434 6.77048C62.434 6.92996 62.491 7.06286 62.5973 7.16539C62.7074 7.26791 62.8707 7.31728 63.0834 7.31728C63.296 7.31728 63.5162 7.26032 63.7099 7.1502C63.8998 7.04008 64.0365 6.90718 64.12 6.74769C64.1997 6.58821 64.2415 6.38316 64.2415 6.12875V5.80218H64.2339ZM62.4986 4.74276L60.5848 4.53771C60.6569 4.19975 60.7594 3.93395 60.8961 3.74029C61.0328 3.54663 61.2265 3.37576 61.4847 3.23526C61.667 3.13273 61.9214 3.05299 62.2404 2.99603C62.5593 2.93907 62.9087 2.91249 63.2846 2.91249C63.8846 2.91249 64.3668 2.94667 64.7276 3.01502C65.0921 3.08337 65.3959 3.22387 65.6351 3.44031C65.806 3.5884 65.9427 3.80104 66.0376 4.07445C66.1363 4.34785 66.1857 4.60985 66.1857 4.85667V7.18817C66.1857 7.43879 66.2009 7.63245 66.2313 7.77294C66.2616 7.91344 66.33 8.09191 66.4363 8.31215H64.5605C64.4845 8.17545 64.4352 8.07293 64.4124 8.00458C64.3896 7.93243 64.3668 7.82231 64.344 7.67042C64.082 7.92483 63.82 8.1071 63.5618 8.21342C63.2087 8.35772 62.7948 8.43366 62.3277 8.43366C61.705 8.43366 61.2303 8.28937 60.9075 7.99318C60.5848 7.7008 60.4215 7.34006 60.4215 6.91477C60.4215 6.51227 60.5354 6.18191 60.7708 5.9237C61.0063 5.66548 61.4354 5.47183 62.0619 5.34652C62.8137 5.19463 63.2998 5.08831 63.5238 5.02375C63.7479 4.963 63.9833 4.88325 64.2339 4.78453C64.2339 4.53391 64.1845 4.36303 64.082 4.26051C63.9795 4.16178 63.8048 4.11242 63.5466 4.11242C63.2201 4.11242 62.9732 4.16558 62.81 4.2719C62.6808 4.35544 62.5783 4.51113 62.5024 4.74276H62.4986ZM42.1872 2.29734L42.1948 6.92996C42.3543 6.98312 42.5062 7.0097 42.6505 7.0097C42.9087 7.0097 43.1441 6.93376 43.3416 6.77048C43.5428 6.6072 43.7099 6.35658 43.8276 6.01483C43.9529 5.65789 44.0251 5.20602 44.0289 4.65162C44.0365 4.23013 43.9947 3.85041 43.9073 3.52764C43.801 3.12894 43.6264 2.81377 43.4023 2.59353C43.1783 2.37708 42.9011 2.25557 42.5859 2.24798C42.4606 2.24798 42.3277 2.25937 42.191 2.29355L42.1872 2.29734ZM40.057 0.994893H42.0201V1.29108C42.5821 1.02907 43.1175 0.922746 43.5998 0.953124C44.0744 0.979704 44.4997 1.13539 44.8643 1.3936C45.225 1.65181 45.5212 2.01255 45.7376 2.45303C46.0224 3.0416 46.1629 3.76687 46.1173 4.57948C46.0794 5.58574 45.9199 6.37557 45.6617 6.97173C45.4338 7.50714 45.1225 7.88686 44.7503 8.13368C44.3782 8.3767 43.9415 8.48303 43.4555 8.46404C43.0112 8.44505 42.5214 8.32354 42.0087 8.1109V8.43366H39.9734C39.9848 5.95407 39.9962 3.47448 40.0114 0.998691H40.057V0.994893ZM55.675 5.70346C55.675 6.14773 55.7661 6.4705 55.9522 6.66795C56.1344 6.8692 56.3661 6.96793 56.647 6.96793C56.9053 6.96793 57.1255 6.8692 57.3002 6.67555C57.4786 6.47809 57.566 6.15153 57.566 5.68827C57.566 5.28196 57.4786 4.98198 57.3078 4.79212C57.1369 4.60226 56.928 4.50353 56.6812 4.50353C56.385 4.50353 56.1458 4.60226 55.9597 4.80351C55.7699 5.00097 55.6788 5.30475 55.6788 5.70725L55.675 5.70346ZM53.4916 1.20374H55.6939V3.65295C55.9104 3.4479 56.1572 3.29222 56.4344 3.18969C56.7116 3.08717 57.0154 3.0378 57.3495 3.0378C58.0406 3.0378 58.614 3.26184 59.0659 3.71371C59.5178 4.16558 59.7456 4.81111 59.7456 5.65409C59.7456 6.21608 59.6431 6.70972 59.4342 7.13881C59.2292 7.56789 58.9406 7.88686 58.576 8.09571C58.2115 8.30835 57.8052 8.41088 57.3609 8.41088C56.9812 8.41088 56.6281 8.33493 56.3129 8.18684C56.0737 8.06913 55.8117 7.85269 55.5307 7.52992V8.28937H53.4916V1.20374ZM52.4245 8.36531H50.6322V7.53752C50.3664 7.87927 50.0968 8.12229 49.8272 8.26659C49.5538 8.41088 49.2235 8.48303 48.8248 8.48303C48.2969 8.48303 47.8868 8.31975 47.5831 7.99698C47.2831 7.67422 47.135 7.17298 47.135 6.49708V3.22387H49.064V6.0566C49.064 6.37936 49.1209 6.6072 49.2387 6.7439C49.3526 6.8806 49.5159 6.94515 49.7247 6.94515C49.9525 6.94515 50.1386 6.85402 50.2829 6.67555C50.4272 6.49328 50.4993 6.17052 50.4993 5.69966V3.22387H52.4207V8.36152L52.4245 8.36531Z" fill="#3B720D"/>
<path fill-rule="evenodd" clip-rule="evenodd" d="M20.9341 12.4967L22.0467 12.4283C22.0695 12.6068 22.1189 12.7435 22.1948 12.8347C22.3163 12.9865 22.4872 13.0625 22.7112 13.0625C22.8783 13.0625 23.0074 13.0245 23.0985 12.9448C23.1897 12.8688 23.2352 12.7777 23.2352 12.6752C23.2352 12.5726 23.1935 12.4929 23.1061 12.4132C23.0188 12.3372 22.8213 12.2651 22.5062 12.1967C21.9935 12.0828 21.6252 11.9309 21.4088 11.741C21.1885 11.5512 21.0784 11.312 21.0784 11.0196C21.0784 10.8297 21.1354 10.6474 21.2493 10.4766C21.3632 10.3057 21.5303 10.169 21.7581 10.0741C21.986 9.97534 22.2973 9.92597 22.6922 9.92597C23.1783 9.92597 23.5466 10.0133 23.801 10.1918C24.0554 10.3702 24.2073 10.6512 24.2567 11.0424L23.1555 11.1069C23.1251 10.936 23.0644 10.8145 22.9694 10.7348C22.8745 10.6588 22.7454 10.6209 22.5783 10.6209C22.4416 10.6209 22.3391 10.6512 22.2707 10.7044C22.2024 10.7614 22.1682 10.8297 22.1682 10.9133C22.1682 10.974 22.1948 11.0272 22.2518 11.0727C22.3049 11.1221 22.4378 11.1677 22.6429 11.2094C23.1555 11.3196 23.5238 11.4297 23.7441 11.5398C23.9643 11.6499 24.1276 11.7904 24.2263 11.9537C24.3288 12.117 24.3782 12.303 24.3782 12.5081C24.3782 12.7473 24.3099 12.9676 24.177 13.1726C24.0403 13.3739 23.8542 13.5295 23.6112 13.6321C23.3681 13.7384 23.0644 13.7878 22.6998 13.7878C22.0543 13.7878 21.6062 13.6662 21.3594 13.4194C21.1126 13.1726 20.9721 12.865 20.9379 12.4853L20.9341 12.4967ZM24.5946 11.0196H25.7072L26.273 12.8271L26.797 11.0196H27.8337L26.7439 13.9207C26.6186 14.251 26.4933 14.4713 26.3642 14.589C26.1819 14.7523 25.9047 14.832 25.5288 14.832C25.3769 14.832 25.1414 14.813 24.8263 14.7712L24.7427 14.046C24.8946 14.0915 25.0617 14.1181 25.2516 14.1181C25.3769 14.1181 25.4756 14.0915 25.5553 14.0346C25.6313 13.9814 25.6958 13.8789 25.749 13.7384L24.5946 11.0234V11.0196ZM29.0108 11.8967L28.0046 11.7904C28.0425 11.6157 28.0957 11.479 28.1678 11.3803C28.24 11.2816 28.3425 11.1942 28.4754 11.1221C28.5703 11.0689 28.7032 11.0272 28.8741 11.0006C29.0412 10.9702 29.2273 10.9588 29.4247 10.9588C29.7399 10.9588 29.9943 10.9778 30.1842 11.012C30.374 11.0462 30.5335 11.1183 30.6626 11.2322C30.7538 11.3082 30.8221 11.4183 30.8753 11.5588C30.9284 11.6993 30.9512 11.8322 30.9512 11.9613V13.1612C30.9512 13.2903 30.9588 13.389 30.9778 13.4612C30.993 13.5333 31.0309 13.6245 31.0841 13.7384H30.0968C30.0589 13.67 30.0323 13.6169 30.0209 13.5789C30.0095 13.5409 29.9981 13.484 29.9829 13.408C29.8462 13.5371 29.7095 13.6321 29.5728 13.689C29.3867 13.765 29.1703 13.8029 28.9235 13.8029C28.5969 13.8029 28.3463 13.727 28.1754 13.5789C28.0046 13.4308 27.921 13.2448 27.921 13.0245C27.921 12.8195 27.9818 12.6486 28.1033 12.5157C28.2248 12.3828 28.4526 12.2841 28.783 12.2195C29.1779 12.1398 29.4323 12.0866 29.55 12.0524C29.6677 12.022 29.7931 11.9803 29.9222 11.9271C29.9222 11.798 29.8956 11.7107 29.8424 11.6575C29.7893 11.6043 29.6943 11.5816 29.5614 11.5816C29.3905 11.5816 29.2614 11.6081 29.1741 11.6651C29.1058 11.7069 29.0526 11.7904 29.0108 11.9081V11.8967ZM29.9222 12.4397C29.7779 12.4929 29.626 12.5347 29.4665 12.5764C29.2538 12.6334 29.1171 12.6904 29.0602 12.7435C28.9994 12.8005 28.9729 12.865 28.9729 12.9372C28.9729 13.0207 29.0032 13.0891 29.0602 13.1384C29.1171 13.1916 29.2045 13.2182 29.3146 13.2182C29.4247 13.2182 29.5424 13.1878 29.645 13.1346C29.7475 13.0777 29.8158 13.0093 29.8614 12.9258C29.907 12.8422 29.926 12.7359 29.926 12.6068V12.4397H29.9222ZM31.5929 11.0158H32.5802V11.4601C32.6751 11.2664 32.7739 11.1335 32.8726 11.0613C32.9751 10.9892 33.1004 10.955 33.2485 10.955C33.4042 10.955 33.5751 11.0044 33.7612 11.0993L33.4346 11.836C33.3093 11.7828 33.2106 11.76 33.1384 11.76C33.0017 11.76 32.8916 11.817 32.8156 11.9271C32.7055 12.0866 32.6524 12.3828 32.6524 12.8195V13.7308H31.5929V11.0158ZM33.9738 11.0158H35.0294V13.7308H33.9738V11.0158ZM36.666 11.8929L35.6598 11.7866C35.6977 11.6119 35.7509 11.4752 35.823 11.3765C35.8952 11.2778 35.9977 11.1905 36.1306 11.1183C36.2256 11.0651 36.3585 11.0234 36.5293 10.9968C36.6964 10.9664 36.8825 10.955 37.0799 10.955C37.3951 10.955 37.6495 10.974 37.8394 11.0082C38.0292 11.0424 38.1887 11.1145 38.3178 11.2284C38.409 11.3044 38.4773 11.4145 38.5305 11.555C38.5836 11.6955 38.6064 11.8284 38.6064 11.9575V13.1574C38.6064 13.2865 38.614 13.3852 38.633 13.4574C38.6482 13.5295 38.6862 13.6207 38.7393 13.7346H37.752C37.7141 13.6662 37.6875 13.6131 37.6761 13.5751C37.6647 13.5371 37.6533 13.4802 37.6381 13.4042C37.5014 13.5333 37.3647 13.6283 37.228 13.6852C37.042 13.7612 36.8255 13.7991 36.5787 13.7991C36.2521 13.7991 36.0015 13.7232 35.8306 13.5751C35.6598 13.427 35.5762 13.241 35.5762 13.0207C35.5762 12.8157 35.637 12.6448 35.7585 12.5119C35.88 12.379 36.1078 12.2803 36.4382 12.2157C36.8331 12.136 37.0913 12.0828 37.2052 12.0486C37.323 12.0182 37.4483 11.9765 37.5774 11.9233C37.5774 11.7942 37.5508 11.7069 37.4976 11.6537C37.4445 11.6006 37.3495 11.5778 37.2166 11.5778C37.0458 11.5778 36.9167 11.6043 36.8293 11.6613C36.761 11.7031 36.7078 11.7866 36.666 11.9043V11.8929ZM37.5774 12.4359C37.4331 12.4891 37.2812 12.5309 37.1217 12.5726C36.9091 12.6296 36.7724 12.6866 36.7154 12.7397C36.6546 12.7967 36.6281 12.8612 36.6281 12.9334C36.6281 13.0169 36.6584 13.0853 36.7154 13.1346C36.7724 13.1878 36.8597 13.2144 36.9698 13.2144C37.0799 13.2144 37.1976 13.184 37.3002 13.1308C37.4027 13.0739 37.4711 13.0055 37.5166 12.922C37.5584 12.8384 37.5812 12.7321 37.5812 12.603V12.4359H37.5774ZM39.2368 9.98293H40.2924V11.3613C40.4367 11.2132 40.5772 11.1069 40.7177 11.0462C40.8582 10.9816 41.0253 10.9512 41.2189 10.9512C41.5037 10.9512 41.7315 11.0386 41.8948 11.2094C42.0581 11.3803 42.1416 11.6461 42.1416 12.0031V13.727H41.0822V12.2347C41.0822 12.0638 41.0518 11.9423 40.9873 11.874C40.9227 11.8018 40.8354 11.7676 40.7177 11.7676C40.5924 11.7676 40.4898 11.817 40.4101 11.9119C40.3304 12.0069 40.2924 12.1777 40.2924 12.4246V13.727H39.2368V9.98293ZM44.6136 9.98293H46.8122C47.1768 9.98293 47.4578 10.0741 47.6552 10.2525C47.8527 10.431 47.9476 10.6512 47.9476 10.9171C47.9476 11.1373 47.8792 11.3272 47.7388 11.4866C47.6476 11.593 47.5109 11.6765 47.3287 11.7373C47.6021 11.8018 47.7995 11.9119 47.9286 12.0714C48.0577 12.2309 48.1223 12.4283 48.1223 12.6638C48.1223 12.8574 48.0767 13.0321 47.9856 13.1878C47.8944 13.3435 47.7691 13.465 47.6096 13.5561C47.5109 13.6131 47.3628 13.6511 47.1616 13.6776C46.8958 13.7118 46.7211 13.7308 46.6376 13.7308H44.6136V9.98293ZM45.7946 11.4525H46.3072C46.4895 11.4525 46.6186 11.4221 46.6907 11.3575C46.7629 11.293 46.797 11.2056 46.797 11.0879C46.797 10.9778 46.7629 10.8943 46.6907 10.8335C46.6186 10.7728 46.4933 10.7424 46.3148 10.7424H45.7946V11.4525ZM45.7946 12.922H46.3945C46.5958 12.922 46.7401 12.8878 46.8236 12.8157C46.9072 12.7435 46.9489 12.6524 46.9489 12.5309C46.9489 12.4208 46.9072 12.3296 46.8274 12.2651C46.7439 12.1967 46.5996 12.1625 46.3945 12.1625H45.7984V12.922H45.7946ZM49.626 11.8929L48.6197 11.7866C48.6577 11.6119 48.7108 11.4752 48.783 11.3765C48.8551 11.2778 48.9577 11.1905 49.0906 11.1183C49.1855 11.0651 49.3184 11.0234 49.4893 10.9968C49.6564 10.9664 49.8424 10.955 50.0399 10.955C50.355 10.955 50.6095 10.974 50.7993 11.0082C50.9892 11.0424 51.1487 11.1145 51.2778 11.2284C51.3689 11.3044 51.4373 11.4145 51.4904 11.555C51.5436 11.6955 51.5664 11.8284 51.5664 11.9575V13.1574C51.5664 13.2865 51.574 13.3852 51.5929 13.4574C51.6081 13.5295 51.6461 13.6207 51.6993 13.7346H50.712C50.674 13.6662 50.6474 13.6131 50.636 13.5751C50.6246 13.5371 50.6133 13.4802 50.5981 13.4042C50.4614 13.5333 50.3247 13.6283 50.188 13.6852C50.0019 13.7612 49.7855 13.7991 49.5386 13.7991C49.2121 13.7991 48.9615 13.7232 48.7906 13.5751C48.6197 13.427 48.5362 13.241 48.5362 13.0207C48.5362 12.8157 48.5969 12.6448 48.7184 12.5119C48.8399 12.379 49.0678 12.2803 49.3981 12.2157C49.7931 12.136 50.0475 12.0828 50.1652 12.0486C50.2829 12.0182 50.4082 11.9765 50.5373 11.9233C50.5373 11.7942 50.5107 11.7069 50.4576 11.6537C50.4044 11.6006 50.3095 11.5778 50.1766 11.5778C50.0057 11.5778 49.8766 11.6043 49.7893 11.6613C49.7209 11.7031 49.6677 11.7866 49.626 11.9043V11.8929ZM50.5373 12.4359C50.393 12.4891 50.2411 12.5309 50.0816 12.5726C49.869 12.6296 49.7323 12.6866 49.6753 12.7397C49.6146 12.7967 49.588 12.8612 49.588 12.9334C49.588 13.0169 49.6184 13.0853 49.6753 13.1346C49.7323 13.1878 49.8196 13.2144 49.9298 13.2144C50.0399 13.2144 50.1576 13.184 50.2601 13.1308C50.3626 13.0739 50.431 13.0055 50.4766 12.922C50.5183 12.8384 50.5411 12.7321 50.5411 12.603V12.4359H50.5373ZM52.1967 11.012H53.1802V11.4525C53.3283 11.2702 53.4726 11.1411 53.6245 11.0651C53.7763 10.9892 53.9586 10.9474 54.1713 10.9474C54.4636 10.9474 54.6915 11.031 54.8548 11.2056C55.018 11.3765 55.1016 11.6423 55.1016 11.9993V13.7232H54.0422V12.2309C54.0422 12.06 54.0118 11.9385 53.9472 11.8702C53.8827 11.798 53.7953 11.7638 53.6776 11.7638C53.5523 11.7638 53.446 11.8132 53.37 11.9081C53.2903 12.0031 53.2523 12.1739 53.2523 12.4208V13.7232H52.1967V11.0082V11.012ZM55.7319 9.98293H56.8065V11.9119L57.5926 11.0158H58.8874L57.9001 11.9651L58.9444 13.7308H57.7596L57.2014 12.6448L56.8027 13.0283V13.7346H55.7281V9.99053L55.7319 9.98293Z" fill="#3B720D"/>
<path fill-rule="evenodd" clip-rule="evenodd" d="M34.5244 10.7386C34.8396 10.7386 35.094 10.4804 35.094 10.169C35.094 9.85762 34.8358 9.59941 34.5244 9.59941C34.213 9.59941 33.9548 9.85762 33.9548 10.169C33.9548 10.4804 34.213 10.7386 34.5244 10.7386Z" fill="#2171B5"/>
</g>
</g>
<defs>
<linearGradient id="paint0_linear_1801_2233" x1="75.0104" y1="5.86294" x2="77.7748" y2="-0.0569384" gradientUnits="userSpaceOnUse">
<stop stop-color="#406F3D"/>
<stop offset="0.68" stop-color="#72C380"/>
<stop offset="1" stop-color="#406F3D"/>
</linearGradient>
<linearGradient id="paint1_linear_1801_2233" x1="73.8599" y1="5.83636" x2="76.7572" y2="0.770854" gradientUnits="userSpaceOnUse">
<stop stop-color="#FFF9AE"/>
<stop offset="0.26" stop-color="#ABA048"/>
<stop offset="0.73" stop-color="#E5E3DD"/>
<stop offset="1" stop-color="#C7BC84"/>
</linearGradient>
<clipPath id="clip0_1801_2233">
<rect width="80" height="14.832" fill="white"/>
</clipPath>
<clipPath id="clip1_1801_2233">
<rect width="80" height="14.832" fill="white"/>
</clipPath>
</defs>
</svg>
