<svg width="80" height="24" viewBox="0 0 80 24" fill="none" xmlns="http://www.w3.org/2000/svg">
<g clip-path="url(#clip0_1801_3482)">
<g clip-path="url(#clip1_1801_3482)">
<path fill-rule="evenodd" clip-rule="evenodd" d="M10.3604 19.0475L6.70428 22.7036L6.41142 22.5612C5.6262 22.1796 4.89538 21.6617 4.22368 21.1076L3.83476 20.7872L10.58 14.0419C10.9535 13.6685 11.4586 13.4609 11.9866 13.4609C12.5145 13.4609 13.019 13.6678 13.3931 14.0419L20.1384 20.7872L19.7495 21.1076C19.0771 21.6617 18.3469 22.1796 17.5617 22.5612L17.2688 22.7036L13.6128 19.0475V23.8038L13.2319 23.8683C12.8202 23.9381 12.4044 23.9731 11.9866 23.9731C11.5688 23.9731 11.153 23.9388 10.7412 23.8683L10.3604 23.8038V19.0475ZM19.0475 13.612L22.7036 17.2681L22.5612 17.561C22.1797 18.3462 21.6618 19.077 21.1076 19.7487L20.7872 20.1376L14.042 13.3924C13.6685 13.0189 13.461 12.5138 13.461 11.9858C13.461 11.4579 13.6678 10.9534 14.042 10.5793L20.7872 3.83403L21.1076 4.22295C21.6618 4.89532 22.1797 5.62546 22.5612 6.41069L22.7036 6.70355L19.0475 10.3596H23.8039L23.8683 10.7405C23.9382 11.1522 23.9731 11.568 23.9731 11.9858C23.9731 12.4036 23.9389 12.8194 23.8683 13.2312L23.8039 13.612H19.0475ZM13.6128 4.92555L17.2688 1.26946L17.5617 1.41186C18.3469 1.79339 19.0777 2.31127 19.7495 2.86543L20.1384 3.18583L13.3931 9.93109C13.0196 10.3046 12.5145 10.5121 11.9866 10.5121C11.4586 10.5121 10.9542 10.3052 10.58 9.93109L3.83476 3.18516L4.22368 2.86476C4.89605 2.3106 5.6262 1.79272 6.41142 1.41119L6.70428 1.26879L10.3604 4.92488V0.169209L10.7412 0.104053C11.153 0.0341962 11.5688 -0.000732422 11.9866 -0.000732422C12.4044 -0.000732422 12.8202 0.0335245 13.2319 0.104053L13.6128 0.169209V4.92555ZM4.92561 10.3603L1.26952 6.70422L1.41192 6.41136C1.79345 5.62614 2.31133 4.89532 2.86549 4.22362L3.18589 3.8347L9.93115 10.58C10.3046 10.9534 10.5122 11.4585 10.5122 11.9865C10.5122 12.5145 10.3053 13.0189 9.93115 13.3931L3.18589 20.1383L2.86549 19.7494C2.31133 19.077 1.79345 18.3469 1.41192 17.5617L1.26952 17.2688L4.92561 13.6127H0.16927L0.104786 13.2318C0.0349286 12.8201 0 12.4043 0 11.9865C0 11.5687 0.0342569 11.1529 0.104786 10.7412L0.16927 10.3603H4.92561Z" fill="#878786"/>
<mask id="mask0_1801_3482" style="mask-type:luminance" maskUnits="userSpaceOnUse" x="0" y="4" width="11" height="16">
<path d="M0.457439 11.9865C0.457439 11.6063 0.487665 11.2174 0.555508 10.8177H6.0299L1.82301 6.61153C2.16222 5.91228 2.64182 5.21371 3.21814 4.51447L9.6074 10.9037C9.90496 11.2013 10.0541 11.5942 10.0541 11.9865C10.0541 12.3788 9.90496 12.7717 9.6074 13.0693L3.21814 19.4585C2.64182 18.7593 2.1629 18.0607 1.82301 17.3615L6.0299 13.1546H0.555508C0.487665 12.7549 0.456767 12.366 0.457439 11.9858" fill="white"/>
</mask>
<g mask="url(#mask0_1801_3482)">
<path d="M10.0541 4.51447H0.456757V19.4592H10.0541V4.51447Z" fill="url(#paint0_linear_1801_3482)"/>
</g>
<mask id="mask1_1801_3482" style="mask-type:luminance" maskUnits="userSpaceOnUse" x="4" y="0" width="16" height="11">
<path d="M11.9866 0.457362C12.3668 0.457362 12.7557 0.486917 13.1553 0.555431V6.02982L17.3622 1.82294C18.0615 2.16215 18.76 2.64175 19.4593 3.21807L13.07 9.60732C12.7725 9.90488 12.3795 10.054 11.9872 10.054C11.595 10.054 11.202 9.90488 10.9045 9.60732L4.51453 3.21807C5.21377 2.64175 5.91234 2.16282 6.61159 1.82294L10.8185 6.02982V0.555431C11.2181 0.487589 11.6071 0.456691 11.9872 0.457362" fill="white"/>
</mask>
<g mask="url(#mask1_1801_3482)">
<path d="M19.4593 0.456696H4.51453V10.054H19.4593V0.456696Z" fill="url(#paint1_linear_1801_3482)"/>
</g>
<mask id="mask2_1801_3482" style="mask-type:luminance" maskUnits="userSpaceOnUse" x="13" y="4" width="11" height="16">
<path d="M23.5157 11.9865C23.5157 12.3667 23.4855 12.7549 23.4176 13.1553H17.9432L22.1501 17.3622C21.8109 18.0614 21.3313 18.76 20.755 19.4592L14.3658 13.07C14.0682 12.7724 13.9191 12.3795 13.9191 11.9872C13.9191 11.5949 14.0682 11.202 14.3658 10.9044L20.755 4.51514C21.3313 5.21438 21.8103 5.91295 22.1501 6.6122L17.9432 10.8191H23.4176C23.4855 11.2187 23.5164 11.6077 23.5157 11.9878" fill="white"/>
</mask>
<g mask="url(#mask2_1801_3482)">
<path d="M23.5164 4.51447H13.9191V19.4592H23.5164V4.51447Z" fill="url(#paint2_linear_1801_3482)"/>
</g>
<mask id="mask3_1801_3482" style="mask-type:luminance" maskUnits="userSpaceOnUse" x="4" y="13" width="16" height="11">
<path d="M11.9866 23.5156C11.6064 23.5156 11.2181 23.4854 10.8178 23.4176V17.9432L6.61092 22.1501C5.91167 21.8109 5.2131 21.3313 4.51385 20.7556L10.9031 14.3664C11.2007 14.0688 11.5936 13.9197 11.9859 13.9197C12.3782 13.9197 12.7711 14.0688 13.0687 14.3664L19.4579 20.7556C18.7587 21.3319 18.0601 21.8109 17.3609 22.1501L13.154 17.9432V23.4176C12.7543 23.4854 12.3654 23.5163 11.9852 23.5156" fill="white"/>
</mask>
<g mask="url(#mask3_1801_3482)">
<path d="M19.4593 13.919H4.51453V23.5163H19.4593V13.919Z" fill="url(#paint3_linear_1801_3482)"/>
</g>
<path fill-rule="evenodd" clip-rule="evenodd" d="M68.1887 6.01521H74.3043C75.4447 6.01521 76.3781 6.94863 76.3781 8.08899V8.28008C76.3781 9.52523 75.3593 10.5441 74.1141 10.5441H69.1467C69.1467 11.997 69.8503 12.956 70.966 12.956H74.3413C75.5557 12.956 77.1548 13.8251 77.1548 15.0298V15.2209C77.1548 16.466 76.136 17.4849 74.8908 17.4849H68.1887V6.01521ZM48.2301 3.70366H49.9015C50.7284 3.70366 51.4619 4.20736 51.8168 4.56224L60.0908 15.3512V3.70366H62.7026V19.8906H61.0638C60.237 19.8906 59.9851 19.4662 59.6302 19.1113L50.8746 7.85123V19.8906H48.2293V3.70366H48.2301ZM37.0053 14.4204L40.0248 17.4989C39.3107 17.8653 38.4935 18.0669 37.5988 18.0669C34.3424 18.0669 32.1189 15.404 32.1189 11.8297C32.1189 8.25542 34.3125 5.59252 37.5988 5.59252C40.8852 5.59252 43.0787 8.2246 43.0787 11.8297C43.0787 13.3963 42.6516 14.7885 41.897 15.8575L40.5814 14.527C40.5814 14.527 39.0579 12.8662 37.0053 14.4213V14.4204ZM37.5979 3.31268C42.6701 3.31268 45.9767 7.12563 45.9767 11.8297C45.9767 14.1289 45.171 16.215 43.7629 17.7473L45.8913 19.9012C45.8913 19.9012 45.1085 20.6206 44.0931 20.6206C43.0778 20.6206 42.4112 19.9329 42.4112 19.9329L41.7913 19.3006C40.5919 19.9672 39.1768 20.3459 37.5979 20.3459C32.5892 20.3459 29.2191 16.5329 29.2191 11.8297C29.2191 7.12651 32.5258 3.31268 37.5979 3.31268ZM74.3457 3.70366H65.4377V19.8906H74.8565C80.3099 19.8906 81.8307 13.2131 77.4489 11.7813C77.0967 11.6659 76.6634 11.6589 77.22 11.4299C77.6515 11.2521 77.972 10.9447 78.3119 10.5414C80.6754 7.74028 78.2388 3.70278 74.3457 3.70278V3.70366Z" fill="#00193E"/>
</g>
</g>
<defs>
<linearGradient id="paint0_linear_1801_3482" x1="0.456757" y1="11.9865" x2="10.0541" y2="11.9865" gradientUnits="userSpaceOnUse">
<stop stop-color="#003A73"/>
<stop offset="0.35" stop-color="#003A73"/>
<stop offset="0.73" stop-color="#0062AF"/>
<stop offset="1" stop-color="#0062AF"/>
</linearGradient>
<linearGradient id="paint1_linear_1801_3482" x1="4.51453" y1="5.25535" x2="19.4586" y2="5.25535" gradientUnits="userSpaceOnUse">
<stop stop-color="#AB004C"/>
<stop offset="0.35" stop-color="#AB004C"/>
<stop offset="0.61" stop-color="#760030"/>
<stop offset="1" stop-color="#1A1A18"/>
</linearGradient>
<linearGradient id="paint2_linear_1801_3482" x1="13.9191" y1="11.9865" x2="23.5164" y2="11.9865" gradientUnits="userSpaceOnUse">
<stop stop-color="#0062AF"/>
<stop offset="0.27" stop-color="#0062AF"/>
<stop offset="0.65" stop-color="#003A73"/>
<stop offset="1" stop-color="#003A73"/>
</linearGradient>
<linearGradient id="paint3_linear_1801_3482" x1="11.9866" y1="23.5163" x2="11.9866" y2="13.919" gradientUnits="userSpaceOnUse">
<stop stop-color="#003A73"/>
<stop offset="0.35" stop-color="#003A73"/>
<stop offset="0.73" stop-color="#0062AF"/>
<stop offset="1" stop-color="#0062AF"/>
</linearGradient>
<clipPath id="clip0_1801_3482">
<rect width="80" height="23.9798" fill="white"/>
</clipPath>
<clipPath id="clip1_1801_3482">
<rect width="80" height="23.9798" fill="white"/>
</clipPath>
</defs>
</svg>
