<svg width="72" height="72" viewBox="0 0 72 72" fill="none" xmlns="http://www.w3.org/2000/svg">
<g clip-path="url(#clip0_1801_3414)">
<circle cx="36" cy="36" r="36" fill="#012A31"/>
<g clip-path="url(#clip1_1801_3414)">
<path d="M26.265 13.5509C25.6368 13.7321 25.0037 13.8985 24.3831 14.0996C12.3367 17.9826 11.433 30.5727 16.1502 36.9881C18.9185 40.7545 22.7444 42.6141 27.3301 42.9939C29.0556 43.1354 30.7985 43.0237 32.534 43.0734C36.3847 43.1851 38.9469 45.0273 39.6843 48.1705C40.5706 51.9517 39.0884 55.4499 35.7988 57.2077C33.0032 58.6999 29.9618 58.9953 26.8832 58.675C14.3229 57.3666 5.55878 47.3214 5.9734 34.7934C6.3185 24.3062 14.4893 15.1647 24.9144 13.603C25.3538 13.536 25.7933 13.4739 26.2327 13.4069C26.2426 13.4541 26.2551 13.5037 26.265 13.5509Z" fill="#AFEE01"/>
<path d="M48.2797 23.472V14.0524C54.1962 19.9092 60.1722 25.8232 66.0737 31.6651C61.0982 36.5884 55.8944 41.7352 50.7352 46.8372C50.6111 46.1048 50.4944 45.1092 50.266 44.136C48.6124 37.0775 42.6786 32.3851 35.064 32.1244C33.2888 32.0623 31.5087 32.1443 29.736 32.0723C27.2135 31.9705 25.4806 30.451 25.2869 28.2786C25.0287 25.3788 26.7071 23.5167 29.7608 23.4919C35.3371 23.4447 40.9159 23.4745 46.4946 23.472C47.0284 23.472 47.5622 23.472 48.2797 23.472Z" fill="#AFEE01"/>
</g>
</g>
<defs>
<clipPath id="clip0_1801_3414">
<rect width="72" height="72" fill="white"/>
</clipPath>
<clipPath id="clip1_1801_3414">
<rect width="60.1175" height="45.3848" fill="white" transform="translate(5.95862 13.4069)"/>
</clipPath>
</defs>
</svg>
