<svg width="80" height="23" viewBox="0 0 80 23" fill="none" xmlns="http://www.w3.org/2000/svg">
<g clip-path="url(#clip0_1801_3392)">
<path fill-rule="evenodd" clip-rule="evenodd" d="M16.7275 22.0003C16.7203 22.5648 17.4322 22.626 17.8636 22.626H18.0957C18.1379 22.626 18.172 22.6246 18.2227 22.6188C19.2407 22.5662 19.2331 22.1819 19.2331 22.0003C19.2299 21.9045 19.2299 21.8047 19.2331 21.6924V0.629735C19.2407 0.0669739 18.5252 0 18.0957 0H17.8636C17.4322 0 16.7203 0.0669739 16.7275 0.629735C16.7275 0.749299 16.7239 0.86302 16.7239 0.982135V21.6452C16.7239 21.6564 16.7239 21.6726 16.7275 21.7036" fill="#E1091D"/>
<path fill-rule="evenodd" clip-rule="evenodd" d="M3.36443 22.0003C3.3568 22.5648 4.0696 22.626 4.50005 22.626H4.73167C4.77431 22.626 4.80887 22.6246 4.85914 22.6188C5.87716 22.5662 5.86953 22.1819 5.86953 22.0003C5.86729 21.9045 5.86729 21.8047 5.86953 21.6924V0.629735C5.87716 0.0669739 5.16168 0 4.73167 0H4.50005C4.0696 0 3.3568 0.0669739 3.36443 0.629735C3.36443 0.749299 3.3595 0.86302 3.3595 0.982135V21.6452C3.3595 21.6564 3.3595 21.6726 3.36443 21.7036" fill="#E1091D"/>
<path fill-rule="evenodd" clip-rule="evenodd" d="M7.818 22.0003C7.81261 22.5648 8.52361 22.626 8.95497 22.626H9.18658C9.22922 22.626 9.26378 22.6246 9.31451 22.6188C10.3321 22.5662 10.3249 22.1819 10.3249 22.0003C10.3204 21.9045 10.3204 21.8047 10.3249 21.6924V0.629735C10.3321 0.0669739 9.61659 0 9.18658 0H8.95497C8.52361 0 7.81261 0.0669739 7.818 0.629735C7.818 0.749299 7.81531 0.86302 7.81531 0.982135V21.6452C7.81531 21.6564 7.81531 21.6726 7.818 21.7036" fill="#E1091D"/>
<path fill-rule="evenodd" clip-rule="evenodd" d="M12.2736 22.0003C12.2668 22.5648 12.9783 22.626 13.4092 22.626H13.6412C13.6834 22.626 13.718 22.6246 13.7678 22.6188C14.7867 22.5662 14.7778 22.1819 14.7778 22.0003C14.776 21.9045 14.776 21.8047 14.7778 21.6924V0.629735C14.7867 0.0669739 14.0703 0 13.6412 0H13.4092C12.9783 0 12.2668 0.0669739 12.2736 0.629735C12.2736 0.749299 12.2686 0.86302 12.2686 0.982135V21.6452C12.2686 21.6564 12.2686 21.6726 12.2736 21.7036" fill="#E1091D"/>
<path fill-rule="evenodd" clip-rule="evenodd" d="M0.623918 10.0598C0.0601475 10.0526 0 10.7655 0 11.1984V11.4312C0 11.4734 0.00134659 11.5076 0.00538634 11.5575C0.0579032 12.576 0.44168 12.5689 0.623918 12.5689C0.719974 12.5662 0.818275 12.5662 0.931837 12.5689H21.9642C22.5266 12.576 22.5926 11.8605 22.5926 11.4312V11.1984C22.5926 10.7655 22.5266 10.0526 21.9642 10.0598C21.8452 10.0598 21.7316 10.0558 21.6118 10.0558H0.977621C0.966399 10.0558 0.952934 10.0558 0.920167 10.0598" fill="#E1091D"/>
<path fill-rule="evenodd" clip-rule="evenodd" d="M53.7197 1.6582C47.7126 1.6582 45.0342 4.62079 45.0342 11.2638C45.0342 17.7522 47.8257 20.9283 53.5676 20.9683H53.8476C59.5998 20.9395 62.3971 17.7643 62.3971 11.2638C62.3971 4.62079 59.721 1.6582 53.7197 1.6582M53.7359 18.1226H53.6919C50.2437 18.1226 48.8998 16.1888 48.8998 11.2323C48.8998 6.32885 50.189 4.50661 53.6569 4.50661H53.7686C57.2374 4.50661 58.5275 6.32885 58.5275 11.2323C58.5275 16.1888 57.1836 18.1226 53.7359 18.1226" fill="#002469"/>
<path fill-rule="evenodd" clip-rule="evenodd" d="M29.5967 19.4982C30.8149 20.4404 32.4721 20.8422 35.1392 20.8422H35.308C37.9949 20.8422 39.657 20.4404 40.8654 19.4996C42.6186 18.1637 42.914 16.5927 42.914 13.5731L42.9171 2.7399C42.9189 2.58258 42.9225 2.38481 42.7475 2.20771C42.471 1.92678 41.8547 1.78519 40.9156 1.78519C39.9852 1.78519 39.3743 1.92678 39.0987 2.20591C38.9223 2.38436 38.9254 2.58258 38.9276 2.7417L38.9281 4.69383V14.0598C38.9285 15.945 38.9285 16.3374 38.0919 17.0283C37.3212 17.6549 36.1568 17.7367 35.229 17.7367C34.3017 17.7367 33.1382 17.6549 32.368 17.0283C31.534 16.3433 31.534 15.9571 31.5344 14.1017L31.5353 2.7417C31.5385 2.58258 31.5407 2.38481 31.3648 2.20591C31.0887 1.92678 30.476 1.78519 29.5424 1.78519C28.6065 1.78519 27.9934 1.92678 27.7182 2.20681C27.5414 2.38481 27.5445 2.58258 27.5463 2.7408L27.5472 2.7871V13.5731C27.5472 16.5909 27.843 18.1623 29.5967 19.4982" fill="#002469"/>
<path fill-rule="evenodd" clip-rule="evenodd" d="M77.3974 2.9099C76.4054 2.17138 75.2213 1.90933 72.8733 1.90933H65.1502C64.7992 1.90933 64.5137 2.19431 64.5137 2.54446V20.0782C64.5137 20.4319 64.7992 20.7173 65.1502 20.7173H73.2522C75.4511 20.7173 76.9889 20.6468 78.2655 19.6826C79.6983 18.5701 79.9999 16.7479 79.9999 15.4151C79.9999 13.6549 79.4097 12.2611 78.3387 11.4916C77.8741 11.145 77.3247 10.9369 76.8018 10.753L76.4517 10.6299L76.7865 10.4694C78.3638 9.71517 78.9415 8.66651 78.9168 6.59931C78.9029 5.63245 78.6874 3.86551 77.3974 2.9099V2.9099ZM68.4462 4.5384H72.7602C74.9942 4.5384 75.1715 5.67202 75.1715 7.15488C75.1715 8.92722 74.36 9.68236 72.4604 9.68236H68.4462V4.5384ZM72.6718 18.024H68.4431V12.3501H72.9784C75.4929 12.3501 75.9983 13.4455 75.9983 15.2156C75.9983 17.5992 75.1271 18.024 72.6718 18.024V18.024Z" fill="#002469"/>
</g>
<defs>
<clipPath id="clip0_1801_3392">
<rect width="79.9999" height="22.626" fill="white"/>
</clipPath>
</defs>
</svg>
