<svg width="74" height="80" viewBox="0 0 74 80" fill="none" xmlns="http://www.w3.org/2000/svg">
<g clip-path="url(#clip0_1801_9979)">
<path d="M43.4195 0.725187C33.4891 -2.82595 25.768 7.92598 25.2832 16.3792C26.595 7.00542 36.6037 2.89818 41.9582 4.95649C43.3278 5.47719 44.4419 6.57696 44.1586 8.25093C44.0686 8.79831 43.7729 9.34506 43.3841 9.91861C43.3841 9.91861 49.1846 2.79401 43.4195 0.725187Z" fill="black"/>
<path d="M43.4195 0.725187C33.4891 -2.82595 25.768 7.92598 25.2832 16.3792C26.595 7.00542 36.6037 2.89818 41.9582 4.95649C43.3278 5.47719 44.4419 6.57696 44.1586 8.25093C44.0686 8.79831 43.7729 9.34506 43.3841 9.91861C43.3841 9.91861 49.1846 2.79401 43.4195 0.725187Z" fill="url(#paint0_linear_1801_9979)"/>
<path d="M30.4809 45.8343C24.3539 42.6378 25.119 26.0291 25.1164 19.535C25.1164 18.4214 25.1791 17.373 25.2832 16.3792C25.7141 8.87785 31.83 -0.419221 40.14 0.0501678C39.3184 -0.0193617 38.4593 -0.0169278 37.5373 0.0594007C35.2572 0.244129 29.2237 1.42639 24.5398 5.86345C19.6701 10.4828 18.3712 17.2509 18.4376 24.6398C18.5907 42.497 26.7537 45.4313 30.3055 46.3135C30.3254 46.3178 30.36 46.3264 30.3848 46.3241C30.5268 46.3241 30.641 46.2125 30.641 46.0681C30.641 45.9631 30.5739 45.8814 30.4809 45.8343Z" fill="black"/>
<path d="M30.3005 46.326V46.3132H30.2492V46.3004H30.1979V46.2876H30.1466V46.2747H30.0952V46.2619H30.0439V46.2491H29.9926V46.2362H29.9541V46.2234H29.9028V46.2106H29.8515V46.1978H29.813V46.1849H29.7617V46.1721H29.7232V46.1593H29.6719V46.1464H29.6206V46.1336H29.5821V46.1208H29.5436V46.108H29.4923V46.0951H29.4538V46.0823H29.4153V46.0695H29.364V46.0566H29.3255V46.0438H29.2871V46.031H29.2486V46.0182H29.2101V46.0053H29.1588V45.9925H29.1203V45.9797H29.0818V45.9668H29.0433V45.954H29.0048V45.9412H28.9664V45.9284H28.9279V45.9155H28.8894V45.9027H28.8637V45.8899H28.8252V45.877H28.7868V45.8642H28.7483V45.8514H28.7098V45.8386H28.6713V45.8257H28.6456V45.8129H28.6072V45.8001H28.5687V45.7872H28.543V45.7744H28.5045V45.7616H28.4661V45.7488H28.4404V45.7359H28.4019V45.7231H28.3763V45.7103H28.3378V45.6974H28.2993V45.6846H28.2736V45.6718H28.2351V45.659H28.2095V45.6461H28.1838V45.6333H28.1453V45.6205H28.1197V45.6077H28.0812V45.5948H28.0555V45.582H28.0299V45.5692H27.9914V45.5563H27.9657V45.5435H27.9273V45.5307H27.9016V45.5179H27.8759V45.505H27.8503V45.4922H27.8118V45.4794H27.7861V45.4665H27.7605V45.4537H27.7348V45.4409H27.6964V45.4281H27.6707V45.4152H27.645V45.4024H27.6194V45.3896H27.5937V45.3767H27.5681V45.3639H27.5424V45.3511H27.5039V45.3383H27.4783V45.3254H27.4526V45.3126H27.427V45.2998H27.4013V45.2869H27.3756V45.2741H27.35V45.2613H27.3243V45.2485H27.2987V45.2356H27.273V45.2228H27.2474V45.21H27.2217V45.1971H27.196V45.1843H27.1704V45.1715H27.1447V45.1587H27.1191V45.1458H27.0934V45.133H27.0678V45.1202H27.0421V45.1073H27.0165V45.0945H27.0036V45.0817H26.978V45.0689H26.9523V45.056H26.9267V45.0432H26.901V45.0304H26.8753V45.0175H26.8625V45.0047H26.8369V44.9919H26.8112V44.9791H26.7855V44.9662H26.7599V44.9534H26.7342V44.9406H26.7214V44.9277H26.6957V44.9149H26.6701V44.9021H26.6444V44.8893H26.6316V44.8764H26.6059V44.8636H26.5803V44.8508H26.5675V44.838H26.5418V44.8251H26.5161V44.8123H26.4905V44.7995H26.4777V44.7866H26.452V44.7738H26.4263V44.761H26.4135V44.7482H26.3879V44.7353H26.3622V44.7225H26.3494V44.7097H26.3237V44.6968H26.3109V44.684H26.2852V44.6712H26.2596V44.6584H26.2468V44.6455H26.2211V44.6327H26.2083V44.6199H26.1826V44.607H26.157V44.5942H26.1441V44.5814H26.1185V44.5686H26.1056V44.5557H26.08V44.5429H26.0672V44.5301H26.0415V44.5172H26.0158V44.5044H26.003V44.4916H25.9774V44.4788H25.9645V44.4659H25.9517V44.4531H25.926V44.4403H25.9132V44.4274H25.8876V44.4146H25.8747V44.4018H25.8491V44.389H25.8362V44.3761H25.8106V44.3633H25.7978V44.3505H25.7721V44.3376H25.7593V44.3248H25.7336V44.312H25.7208V44.2992H25.6951V44.2863H25.6823V44.2735H25.6695V44.2607H25.6438V44.2478H25.631V44.235H25.6053V44.2222H25.5925V44.2094H25.5797V44.1965H25.554V44.1837H25.5412V44.1709H25.5155V44.1581H25.5027V44.1452H25.4899V44.1324H25.4642V44.1196H25.4514V44.1067H25.4386V44.0939H25.4129V44.0811H25.4001V44.0683H25.3873V44.0554H25.3616V44.0426H25.3488V44.0298H25.3359V44.0169H25.3103V44.0041H25.2975V43.9913H25.2846V43.9785H25.259V43.9656H25.2461V43.9528H25.2333V43.94H25.2205V43.9271H25.1948V43.9143H25.182V43.9015H25.1692V43.8887H25.1435V43.8758H25.1307V43.863H25.1179V43.8502H25.105V43.8373H25.0794V43.8245H25.0665V43.8117H25.0537V43.7989H25.0409V43.786H25.0152V43.7732H25.0024V43.7604H24.9896V43.7475H24.9767V43.7347H24.9639V43.7219H24.9383V43.7091H24.9254V43.6962H24.9126V43.6834H24.8998V43.6706H24.8741V43.6577H24.8613V43.6449H24.8485V43.6321H24.8356V43.6193H24.8228V43.6064H24.7971V43.5936H24.7843V43.5808H24.7715V43.5679H24.7587V43.5551H24.7458V43.5423H24.733V43.5295H24.7074V43.5166H24.6945V43.5038H24.6817V43.491H24.6689V43.4781H24.656V43.4653H24.6432V43.4525H24.6304V43.4397H24.6047V43.4268H24.5919V43.414H24.5791V43.4012H24.5662V43.3884H24.5534V43.3755H24.5406V43.3627H24.5278V43.3499H24.5149V43.337H24.4893V43.3242H24.4764V43.3114H24.4636V43.2986H24.4508V43.2857H24.438V43.2729H24.4251V43.2601H24.4123V43.2472H24.3995V43.2344H24.3866V43.2216H24.3738V43.2088H24.361V43.1959H24.3482V43.1831H24.3225V43.1703H24.3097V43.1574H24.2968V43.1446H24.284V43.1318H24.2712V43.119H24.2584V43.1061H24.2455V43.0933H24.2327V43.0805H24.2199V43.0676H24.207V43.0548H24.1942V43.042H24.1814V43.0292H24.1686V43.0163H24.1557V43.0035H24.1429V42.9907H24.1301V42.9778H24.1172V42.965H24.1044V42.9522H24.0916V42.9394H24.0788V42.9265H24.0659V42.9137H24.0531V42.9009H24.0403V42.888H24.0275V42.8752H24.0146V42.8624H24.0018V42.8496H23.989V42.8367H23.9761V42.8239H23.9633V42.8111H23.9505V42.7982H23.9377V42.7854H23.9248V42.7726H23.912V42.7598H23.8992V42.7469H23.8863V42.7341H23.8735V42.7213H23.8607V42.7085H23.8479V42.6956H23.835V42.6828H23.8222V42.67H23.8094V42.6571H23.7965V42.6443H23.7837V42.6315H23.7709V42.6187H23.7581V42.6058H23.7452V42.593H23.7324V42.5802H23.7196V42.5545H23.7067V42.5417H23.6939V42.5289H23.6811V42.516H23.6683V42.5032H23.6554V42.4904H23.6426V42.4775H23.6298V42.4647H23.6169V42.4519H23.6041V42.4391H23.5913V42.4262H23.5785V42.4134H23.5656V42.4006H23.5528V42.3749H23.54V42.3621H23.5271V42.3493H23.5143V42.3364H23.5015V42.3236H23.4887V42.3108H23.4758V42.2979H23.463V42.2723H23.4502V42.2595H23.4373V42.2466H23.4245V42.2338H23.4117V42.221H23.3989V42.2081H23.386V42.1953H23.3732V42.1825H23.3604V42.1568H23.3475V42.144H23.3347V42.1312H23.3219V42.1183H23.3091V42.1055H23.2962V42.0927H23.2834V42.067H23.2706V42.0542H23.2578V42.0414H23.2449V42.0285H23.2321V42.0157H23.2193V41.9901H23.2064V41.9772H23.1936V41.9644H23.1808V41.9516H23.168V41.9388H23.1551V41.9131H23.1423V41.9003H23.1295V41.8874H23.1166V41.8746H23.1038V41.8618H23.091V41.8361H23.0782V41.8233H23.0653V41.8105H23.0525V41.7976H23.0397V41.772H23.0268V41.7592H23.014V41.7463H23.0012V41.7335H22.9884V41.7078H22.9755V41.695H22.9627V41.6822H22.9499V41.6565H22.937V41.6437H22.9242V41.6309H22.9114V41.618H22.8986V41.5924H22.8857V41.5796H22.8729V41.5667H22.8601V41.5539H22.8472V41.5282H22.8344V41.5154H22.8216V41.5026H22.8088V41.4769H22.7959V41.4641H22.7831V41.4513H22.7703V41.4256H22.7574V41.4128H22.7446V41.4H22.7318V41.3743H22.719V41.3615H22.7061V41.3486H22.6933V41.323H22.6805V41.3102H22.6676V41.2973H22.6548V41.2717H22.642V41.2589H22.6292V41.246H22.6163V41.2204H22.6035V41.2075H22.5907V41.1819H22.5779V41.1691H22.565V41.1562H22.5522V41.1306H22.5394V41.1177H22.5265V41.0921H22.5137V41.0793H22.5009V41.0664H22.4881V41.0408H22.4752V41.0279H22.4624V41.0023H22.4496V40.9895H22.4367V40.9766H22.4239V40.951H22.4111V40.9381H22.3983V40.9125H22.3854V40.8997H22.3726V40.874H22.3598V40.8612H22.3469V40.8355H22.3341V40.8227H22.3213V40.797H22.3085V40.7842H22.2956V40.7585H22.2828V40.7457H22.27V40.7201H22.2571V40.7072H22.2443V40.6816H22.2315V40.6687H22.2187V40.6431H22.2058V40.6303H22.193V40.6046H22.1802V40.5918H22.1673V40.5661H22.1545V40.5533H22.1417V40.5276H22.1289V40.5148H22.116V40.4892H22.1032V40.4763H22.0904V40.4507H22.0775V40.425H22.0647V40.4122H22.0519V40.3865H22.0391V40.3737H22.0262V40.348H22.0134V40.3224H22.0006V40.3096H21.9877V40.2839H21.9749V40.2711H21.9621V40.2454H21.9493V40.2326H21.9364V40.2069H21.9236V40.1813H21.9108V40.1684H21.8979V40.1428H21.8851V40.1171H21.8723V40.1043H21.8595V40.0786H21.8466V40.053H21.8338V40.0402H21.821V40.0145H21.8082V39.9888H21.7953V39.976H21.7825V39.9504H21.7697V39.9247H21.7568V39.9119H21.744V39.8862H21.7312V39.8606H21.7184V39.8349H21.7055V39.8221H21.6927V39.7964H21.6799V39.7708H21.667V39.7451H21.6542V39.7194H21.6414V39.7066H21.6286V39.681H21.6157V39.6553H21.6029V39.6297H21.5901V39.6168H21.5772V39.5912H21.5644V39.5655H21.5516V39.5399H21.5388V39.527H21.5259V39.5014H21.5131V39.4757H21.5003V39.4501H21.4874V39.4244H21.4746V39.3987H21.4618V39.3731H21.449V39.3603H21.4361V39.3346H21.4233V39.3089H21.4105V39.2833H21.3976V39.2576H21.3848V39.232H21.372V39.2063H21.3592V39.1807H21.3463V39.1678H21.3335V39.1422H21.3207V39.1165H21.3078V39.0909H21.295V39.0652H21.2822V39.0395H21.2694V39.0139H21.2565V38.9882H21.2437V38.9626H21.2309V38.9369H21.218V38.9113H21.2052V38.8856H21.1924V38.86H21.1796V38.8343H21.1667V38.8086H21.1539V38.783H21.1411V38.7573H21.1283V38.7317H21.1154V38.706H21.1026V38.6804H21.0898V38.6547H21.0769V38.6162H21.0641V38.5906H21.0513V38.5649H21.0385V38.5392H21.0256V38.5136H21.0128V38.4879H21V38.4623H20.9871V38.4366H20.9743V38.3981H20.9615V38.3725H20.9487V38.3468H20.9358V38.3212H20.923V38.2955H20.9102V38.2698H20.8973V38.2314H20.8845V38.2057H20.8717V38.18H20.8589V38.1544H20.846V38.1159H20.8332V38.0903H20.8204V38.0646H20.8075V38.0389H20.7947V38.0005H20.7819V37.9748H20.7691V37.9491H20.7562V37.9235H20.7434V37.885H20.7306V37.8593H20.7177V37.8337H20.7049V37.7952H20.6921V37.7695H20.6793V37.7439H20.6664V37.7054H20.6536V37.6797H20.6408V37.6413H20.6279V37.6156H20.6151V37.5771H20.6023V37.5515H20.5895V37.5258H20.5766V37.4873H20.5638V37.4617H20.551V37.4232H20.5381V37.3975H20.5253V37.359H20.5125V37.3334H20.4997V37.2949H20.4868V37.2692H20.474V37.2308H20.4612V37.1923H20.4483V37.1666H20.4355V37.1281H20.4227V37.1025H20.4099V37.064H20.397V37.0383H20.3842V36.9998H20.3714V36.9614H20.3586V36.9357H20.3457V36.8972H20.3329V36.8587H20.3201V36.8202H20.3072V36.7946H20.2944V36.7561H20.2816V36.7176H20.2688V36.6791H20.2559V36.6535H20.2431V36.615H20.2303V36.5765H20.2174V36.538H20.2046V36.5124H20.1918V36.4739H20.179V36.4354H20.1661V36.3969H20.1533V36.3584H20.1405V36.3199H20.1276V36.2815H20.1148V36.243H20.102V36.2045H20.0892V36.166H20.0763V36.1275H20.0635V36.089H20.0507V36.0505H20.0378V36.0121H20.025V35.9736H20.0122V35.9351H19.9994V35.8966H19.9865V35.8581H19.9737V35.8196H19.9609V35.7683H19.948V35.7298H19.9352V35.6914H19.9224V35.6529H19.9096V35.6144H19.8967V35.5631H19.8839V35.5246H19.8711V35.4861H19.8582V35.4476H19.8454V35.3963H19.8326V35.3578H19.8198V35.3193H19.8069V35.268H19.7941V35.2295H19.7813V35.1782H19.7684V35.1397H19.7556V35.0884H19.7428V35.0499H19.73V34.9986H19.7171V34.9601H19.7043V34.9088H19.6915V34.8703H19.6786V34.819H19.6658V34.7677H19.653V34.7164H19.6402V34.6779H19.6273V34.6266H19.6145V34.5753H19.6017V34.524H19.5889V34.4855H19.576V34.4342H19.5632V34.3829H19.5504V34.3316H19.5375V34.2802H19.5247V34.2289H19.5119V34.1776H19.4991V34.1263H19.4862V34.075H19.4734V34.0237H19.4606V33.9724H19.4477V33.921H19.4349V33.8697H19.4221V33.8056H19.4093V33.7543H19.3964V33.703H19.3836V33.6388H19.3708V33.5875H19.3579V33.5234H19.3451V33.4721H19.3323V33.4079H19.3195V33.3566H19.3066V33.2925H19.2938V33.2411H19.281V33.177H19.2681V33.1129H19.2553V33.0487H19.2425V32.9846H19.2297V32.9333H19.2168V32.8691H19.204V32.805H19.1912V32.7408H19.1783V32.6767H19.1655V32.6126H19.1527V32.5484H19.1399V32.4714H19.127V32.4073H19.1142V32.3303H19.1014V32.2662H19.0885V32.1892H19.0757V32.1251H19.0629V32.0481H19.0501V31.984H19.0372V31.907H19.0244V31.83H19.0116V31.7531H18.9987V31.6761H18.9859V31.5991H18.9731V31.5222H18.9603V31.4452H18.9474V31.3554H18.9346V31.2784H18.9218V31.1886H18.9089V31.0988H18.8961V31.009H18.8833V30.9192H18.8705V30.8422H18.8576V30.7525H18.8448V30.6627H18.832V30.56H18.8192V30.4574H18.8063V30.3548H18.7935V30.2521H18.7807V30.1623H18.7678V30.0597H18.755V29.9571H18.7422V29.8416H18.7294V29.7134H18.7165V29.5979H18.7037V29.4824H18.6909V29.367H18.678V29.2515H18.6652V29.1104H18.6524V28.9693H18.6396V28.841H18.6267V28.6999H18.6139V28.5588H18.6011V28.392H18.5882V28.2253H18.5754V28.0585H18.5626V27.8917H18.5498V27.6993H18.5369V27.4941H18.5241V27.276H18.5113V27.0707H18.4984V26.7885H18.4856V26.5063H18.4728V26.1984H18.46V25.7751H18.4471V25.2748H18.4343V23.017H18.4471V22.4782H18.46V22.1318H18.4728V21.7983H18.4856V21.5545H18.4984V21.298H18.5113V21.0799H18.5241V20.8875H18.5369V20.695H18.5498V20.5026H18.5626V20.3487H18.5754V20.1947H18.5882V20.0408H18.6011V19.8869H18.6139V19.7586H18.6267V19.6175H18.6396V19.4892H18.6524V19.3609H18.6652V19.2326H18.678V19.13H18.6909V19.0145H18.7037V18.9119H18.7165V18.7965H18.7294V18.681H18.7422V18.5784H18.755V18.4886H18.7678V18.3859H18.7807V18.2961H18.7935V18.2063H18.8063V18.1037H18.8192V18.0139H18.832V17.9241H18.8448V17.8343H18.8576V17.7574H18.8705V17.6804H18.8833V17.5906H18.8961V17.5136H18.9089V17.4238H18.9218V17.3469H18.9346V17.2699H18.9474V17.1929H18.9603V17.1288H18.9731V17.0518H18.9859V16.9748H18.9987V16.9107H19.0116V16.8337H19.0244V16.7696H19.0372V16.6926H19.0501V16.6285H19.0629V16.5643H19.0757V16.5002H19.0885V16.436H19.1014V16.3719H19.1142V16.3078H19.127V16.2436H19.1399V16.1795H19.1527V16.1153H19.1655V16.0512H19.1783V15.987H19.1912V15.9357H19.204V15.8716H19.2168V15.8203H19.2297V15.7561H19.2425V15.7048H19.2553V15.6535H19.2681V15.5894H19.281V15.5381H19.2938V15.4739H19.3066V15.4226H19.3195V15.3713H19.3323V15.32H19.3451V15.2687H19.3579V15.2173H19.3708V15.166H19.3836V15.1147H19.3964V15.0634H19.4093V15.0121H19.4221V14.9608H19.4349V14.9095H19.4477V14.8582H19.4606V14.8068H19.4734V14.7555H19.4862V14.7042H19.4991V14.6657H19.5119V14.6144H19.5247V14.5631H19.5375V14.5246H19.5504V14.4733H19.5632V14.4348H19.576V14.3835H19.5889V14.3322H19.6017V14.2937H19.6145V14.2424H19.6273V14.2039H19.6402V14.1526H19.653V14.1141H19.6658V14.0756H19.6786V14.0243H19.6915V13.9858H19.7043V13.9473H19.7171V13.9089H19.73V13.8575H19.7428V13.8191H19.7556V13.7806H19.7684V13.7293H19.7813V13.6908H19.7941V13.6523H19.8069V13.6138H19.8198V13.5753H19.8326V13.5368H19.8454V13.4984H19.8582V13.4599H19.8711V13.4214H19.8839V13.3829H19.8967V13.3444H19.9096V13.3059H19.9224V13.2674H19.9352V13.229H19.948V13.1905H19.9609V13.152H19.9737V13.1135H19.9865V13.075H19.9994V13.0365H20.0122V12.998H20.025V12.9596H20.0378V12.9211H20.0507V12.8954H20.0635V12.8569H20.0763V12.8185H20.0892V12.78H20.102V12.7543H20.1148V12.7158H20.1276V12.6773H20.1405V12.6389H20.1533V12.6132H20.1661V12.5747H20.179V12.5362H20.1918V12.4977H20.2046V12.4721H20.2174V12.4336H20.2303V12.4079H20.2431V12.3695H20.2559V12.3438H20.2688V12.3053H20.2816V12.2797H20.2944V12.2412H20.3072V12.2155H20.3201V12.177H20.3329V12.1514H20.3457V12.1129H20.3586V12.0744H20.3714V12.0488H20.3842V12.0103H20.397V11.9846H20.4099V11.9461H20.4227V11.9205H20.4355V11.882H20.4483V11.8563H20.4612V11.8307H20.474V11.7922H20.4868V11.7665H20.4997V11.7409H20.5125V11.7152H20.5253V11.6767H20.5381V11.6511H20.551V11.6254H20.5638V11.5869H20.5766V11.5613H20.5895V11.5356H20.6023V11.4971H20.6151V11.4715H20.6279V11.4458H20.6408V11.4202H20.6536V11.3817H20.6664V11.356H20.6793V11.3304H20.6921V11.2919H20.7049V11.2662H20.7177V11.2406H20.7306V11.2149H20.7434V11.1893H20.7562V11.1636H20.7691V11.1379H20.7819V11.1123H20.7947V11.0738H20.8075V11.0481H20.8204V11.0225H20.8332V10.9968H20.846V10.9712H20.8589V10.9455H20.8717V10.9199H20.8845V10.8942H20.8973V10.8557H20.9102V10.8301H20.923V10.8044H20.9358V10.7787H20.9487V10.7531H20.9615V10.7274H20.9743V10.7018H20.9871V10.6761H21V10.6505H21.0128V10.6248H21.0256V10.5992H21.0385V10.5735H21.0513V10.5478H21.0641V10.535H21.0769V10.5094H21.0898V10.4837H21.1026V10.458H21.1154V10.4324H21.1283V10.4067H21.1411V10.3811H21.1539V10.3554H21.1667V10.3298H21.1796V10.3041H21.1924V10.2784H21.2052V10.2528H21.218V10.2271H21.2309V10.2015H21.2437V10.1758H21.2565V10.163H21.2694V10.1373H21.2822V10.1117H21.295V10.086H21.3078V10.0604H21.3207V10.0475H21.3335V10.0219H21.3463V9.99622H21.3592V9.97056H21.372V9.94491H21.3848V9.93208H21.3976V9.90642H21.4105V9.88077H21.4233V9.85511H21.4361V9.82945H21.449V9.81662H21.4618V9.79097H21.4746V9.76531H21.4874V9.73965H21.5003V9.714H21.5131V9.70117H21.5259V9.67551H21.5388V9.64986H21.5516V9.63703H21.5644V9.61137H21.5772V9.58571H21.5901V9.56006H21.6029V9.54723H21.6157V9.52157H21.6286V9.49592H21.6414V9.48309H21.6542V9.45743H21.667V9.43178H21.6799V9.41895H21.6927V9.39329H21.7055V9.36763H21.7184V9.3548H21.7312V9.32915H21.744V9.30349H21.7568V9.29066H21.7697V9.26501H21.7825V9.23935H21.7953V9.22652H21.8082V9.20086H21.821V9.17521H21.8338V9.16238H21.8466V9.13672H21.8595V9.12389H21.8723V9.09824H21.8851V9.08541H21.8979V9.05975H21.9108V9.04692H21.9236V9.02127H21.9364V9.00844H21.9493V8.98278H21.9621V8.95713H21.9749V8.9443H21.9877V8.91864H22.0006V8.90581H22.0134V8.88016H22.0262V8.86733H22.0391V8.84167H22.0519V8.82884H22.0647V8.80319H22.0775V8.77753H22.0904V8.7647H22.1032V8.73905H22.116V8.72622H22.1289V8.70056H22.1417V8.68773H22.1545V8.66208H22.1673V8.64925H22.1802V8.62359H22.193V8.61076H22.2058V8.59793H22.2187V8.57228H22.2315V8.55945H22.2443V8.53379H22.2571V8.52096H22.27V8.49531H22.2828V8.48248H22.2956V8.45682H22.3085V8.44399H22.3213V8.43117H22.3341V8.40551H22.3469V8.39268H22.3598V8.36702H22.3726V8.3542H22.3854V8.32854H22.3983V8.31571H22.4111V8.30288H22.4239V8.27723H22.4367V8.2644H22.4496V8.23874H22.4624V8.22591H22.4752V8.20026H22.4881V8.18743H22.5009V8.1746H22.5137V8.14894H22.5265V8.13611H22.5394V8.12329H22.5522V8.09763H22.565V8.0848H22.5779V8.07197H22.5907V8.04632H22.6035V8.03349H22.6163V8.02066H22.6292V7.995H22.642V7.98217H22.6548V7.96935H22.6676V7.94369H22.6805V7.93086H22.6933V7.91803H22.7061V7.89238H22.719V7.87955H22.7318V7.86672H22.7446V7.84106H22.7574V7.82823H22.7703V7.81541H22.7831V7.78975H22.7959V7.77692H22.8088V7.76409H22.8216V7.73844H22.8344V7.72561H22.8472V7.71278H22.8601V7.68712H22.8729V7.67429H22.8857V7.66147H22.8986V7.64864H22.9114V7.62298H22.9242V7.61015H22.937V7.59732H22.9499V7.5845H22.9627V7.57167H22.9755V7.54601H22.9884V7.53318H23.0012V7.52035H23.014V7.50753H23.0268V7.48187H23.0397V7.46904H23.0525V7.45621H23.0653V7.44338H23.0782V7.41773H23.091V7.4049H23.1038V7.39207H23.1166V7.37924H23.1295V7.35359H23.1423V7.34076H23.1551V7.32793H23.168V7.3151H23.1808V7.30227H23.1936V7.27662H23.2064V7.26379H23.2193V7.25096H23.2321V7.23813H23.2449V7.21247H23.2578V7.19965H23.2706V7.18682H23.2834V7.17399H23.2962V7.16116H23.3091V7.14833H23.3219V7.1355H23.3347V7.10985H23.3475V7.09702H23.3604V7.08419H23.3732V7.07136H23.386V7.05853H23.3989V7.04571H23.4117V7.03288H23.4245V7.00722H23.4373V6.99439H23.4502V6.98156H23.463V6.96874H23.4758V6.95591H23.4887V6.94308H23.5015V6.91742H23.5143V6.90459H23.5271V6.89177H23.54V6.87894H23.5528V6.86611H23.5656V6.85328H23.5785V6.84045H23.5913V6.8148H23.6041V6.80197H23.6169V6.78914H23.6298V6.77631H23.6426V6.76348H23.6554V6.75065H23.6683V6.73783H23.6811V6.725H23.6939V6.71217H23.7067V6.69934H23.7196V6.67368H23.7324V6.66086H23.7452V6.64803H23.7581V6.6352H23.7709V6.62237H23.7837V6.60954H23.7965V6.59671H23.8094V6.58389H23.8222V6.57106H23.835V6.55823H23.8479V6.5454H23.8607V6.53257H23.8735V6.51974H23.8863V6.50692H23.8992V6.49409H23.912V6.48126H23.9248V6.4556H23.9377V6.44277H23.9505V6.42995H23.9633V6.41712H23.9761V6.40429H23.989V6.39146H24.0018V6.37863H24.0146V6.36581H24.0275V6.35298H24.0403V6.34015H24.0531V6.32732H24.0659V6.31449H24.0788V6.30166H24.0916V6.28884H24.1044V6.27601H24.1172V6.26318H24.1301V6.25035H24.1429V6.23752H24.1557V6.22469H24.1686V6.21186H24.1814V6.19904H24.1942V6.18621H24.207V6.17338H24.2199V6.16055H24.2327V6.14772H24.2455V6.1349H24.2584V6.12207H24.2712V6.10924H24.284V6.09641H24.2968V6.08358H24.3097V6.07075H24.3225V6.05793H24.3353V6.0451H24.3482V6.03227H24.361V6.01944H24.3738V6.00661H24.3866V5.99378H24.3995V5.98096H24.4123V5.96813H24.4251V5.9553H24.438V5.94247H24.4508V5.92964H24.4636V5.91681H24.4764V5.90399H24.4893V5.89116H24.5021V5.87833H24.5149V5.8655H24.5278V5.85267H24.5406V5.83984H24.5534V5.82702H24.5662V5.81419H24.5919V5.80136H24.6047V5.78853H24.6176V5.7757H24.6304V5.76287H24.6432V5.75005H24.656V5.73722H24.6689V5.72439H24.6817V5.71156H24.6945V5.69873H24.7074V5.6859H24.7202V5.67308H24.733V5.66025H24.7587V5.64742H24.7715V5.63459H24.7843V5.62176H24.7971V5.60893H24.81V5.59611H24.8228V5.58328H24.8356V5.57045H24.8485V5.55762H24.8613V5.54479H24.8741V5.53196H24.8998V5.51914H24.9126V5.50631H24.9254V5.49348H24.9383V5.48065H24.9511V5.46782H24.9639V5.45499H24.9767V5.44217H24.9896V5.42934H25.0024V5.41651H25.0281V5.40368H25.0409V5.39085H25.0537V5.37802H25.0665V5.3652H25.0794V5.35237H25.0922V5.33954H25.1179V5.32671H25.1307V5.31388H25.1435V5.30105H25.1563V5.28823H25.1692V5.2754H25.182V5.26257H25.2077V5.24974H25.2205V5.23691H25.2333V5.22408H25.2461V5.21126H25.259V5.19843H25.2718V5.1856H25.2975V5.17277H25.3103V5.15994H25.3231V5.14711H25.3359V5.13429H25.3488V5.12146H25.3616V5.10863H25.3744V5.0958H25.4001V5.08297H25.4129V5.07014H25.4257V5.05732H25.4386V5.04449H25.4514V5.03166H25.4771V5.01883H25.4899V5.006H25.5027V4.99317H25.5155V4.98035H25.5412V4.96752H25.554V4.95469H25.5669V4.94186H25.5797V4.92903H25.6053V4.9162H25.6182V4.90338H25.631V4.89055H25.6438V4.87772H25.6566V4.86489H25.6823V4.85206H25.6951V4.83923H25.708V4.82641H25.7208V4.81358H25.7464V4.80075H25.7593V4.78792H25.7721V4.77509H25.7849V4.76226H25.8106V4.74944H25.8234V4.73661H25.8362V4.72378H25.8491V4.71095H25.8619V4.69812H25.8876V4.68529H25.9004V4.67247H25.9132V4.65964H25.9389V4.64681H25.9517V4.63398H25.9645V4.62115H25.9902V4.60832H26.003V4.5955H26.0158V4.58267H26.0415V4.56984H26.0543V4.55701H26.0672V4.54418H26.08V4.53135H26.1056V4.51853H26.1185V4.5057H26.1313V4.49287H26.157V4.48004H26.1698V4.46721H26.1826V4.45438H26.2083V4.44156H26.2211V4.42873H26.2339V4.4159H26.2596V4.40307H26.2724V4.39024H26.2852V4.37741H26.2981V4.36459H26.3237V4.35176H26.3365V4.33893H26.3494V4.3261H26.375V4.31327H26.3879V4.30044H26.4135V4.28762H26.4263V4.27479H26.4392V4.26196H26.4648V4.24913H26.4777V4.2363H26.5033V4.22347H26.5161V4.21065H26.529V4.19782H26.5546V4.18499H26.5675V4.17216H26.5931V4.15933H26.6059V4.1465H26.6188V4.13368H26.6444V4.12085H26.6573V4.10802H26.6829V4.09519H26.6957V4.08236H26.7086V4.06953H26.7342V4.05671H26.7471V4.04388H26.7599V4.03105H26.7855V4.01822H26.7984V4.00539H26.824V3.99256H26.8369V3.97974H26.8625V3.96691H26.8753V3.95408H26.901V3.94125H26.9138V3.92842H26.9395V3.9156H26.9523V3.90277H26.978V3.88994H26.9908V3.87711H27.0036V3.86428H27.0293V3.85145H27.0421V3.83862H27.0678V3.8258H27.0806V3.81297H27.1062V3.80014H27.1191V3.78731H27.1447V3.77448H27.1576V3.76166H27.1832V3.74883H27.196V3.736H27.2217V3.72317H27.2345V3.71034H27.2602V3.69751H27.273V3.68469H27.2987V3.67186H27.3115V3.65903H27.3372V3.6462H27.35V3.63337H27.3756V3.62054H27.4013V3.60772H27.4141V3.59489H27.4398V3.58206H27.4526V3.56923H27.4783V3.5564H27.4911V3.54357H27.5168V3.53075H27.5296V3.51792H27.5552V3.50509H27.5809V3.49226H27.5937V3.47943H27.6194V3.4666H27.6322V3.45378H27.6579V3.44095H27.6707V3.42812H27.6964V3.41529H27.722V3.40246H27.7348V3.38963H27.7605V3.37681H27.7733V3.36398H27.799V3.35115H27.8246V3.33832H27.8375V3.32549H27.8631V3.31266H27.8888V3.29984H27.9016V3.28701H27.9273V3.27418H27.9529V3.26135H27.9657V3.24852H27.9914V3.23569H28.0171V3.22287H28.0299V3.21004H28.0555V3.19721H28.0812V3.18438H28.094V3.17155H28.1197V3.15872H28.1453V3.1459H28.1582V3.13307H28.1838V3.12024H28.2095V3.10741H28.2223V3.09458H28.248V3.08175H28.2736V3.06893H28.2993V3.0561H28.3121V3.04327H28.3378V3.03044H28.3634V3.01761H28.3891V3.00478H28.4019V2.99196H28.4276V2.97913H28.4532V2.9663H28.4789V2.95347H28.4917V2.94064H28.5174V2.92781H28.543V2.91499H28.5687V2.90216H28.5815V2.88933H28.6072V2.8765H28.6328V2.86367H28.6585V2.85084H28.6713V2.83802H28.697V2.82519H28.7226V2.81236H28.7483V2.79953H28.7739V2.7867H28.7996V2.77387H28.8252V2.76105H28.8381V2.74822H28.8637V2.73539H28.8894V2.72256H28.915V2.70973H28.9407V2.6969H28.9664V2.68408H28.992V2.67125H29.0048V2.65842H29.0305V2.64559H29.0562V2.63276H29.0818V2.61993H29.1075V2.60711H29.1331V2.59428H29.1588V2.58145H29.1716V2.56862H29.1973V2.55579H29.2229V2.54296H29.2486V2.53014H29.2742V2.51731H29.2999V2.50448H29.3255V2.49165H29.3512V2.47882H29.3769V2.46599H29.4025V2.45317H29.4282V2.44034H29.4538V2.42751H29.4795V2.41468H29.5051V2.40185H29.5308V2.38902H29.5565V2.3762H29.5821V2.36337H29.6078V2.35054H29.6334V2.33771H29.6591V2.32488H29.6847V2.31205H29.7104V2.29923H29.7361V2.2864H29.7617V2.27357H29.8002V2.26074H29.8259V2.24791H29.8515V2.23508H29.8772V2.22226H29.9028V2.20943H29.9285V2.1966H29.9541V2.18377H29.9798V2.17094H30.0054V2.15811H30.0311V2.14529H30.0568V2.13246H30.0952V2.11963H30.1209V2.1068H30.1466V2.09397H30.1722V2.08114H30.1979V2.06832H30.2364V2.05549H30.262V2.04266H30.2877V2.02983H30.3133V2.017H30.339V2.00417H30.3775V1.99135H30.4031V1.97852H30.4288V1.96569H30.4544V1.95286H30.4801V1.94003H30.5186V1.9272H30.5442V1.91438H30.5699V1.90155H30.5956V1.88872H30.634V1.87589H30.6597V1.86306H30.6982V1.85023H30.7238V1.83741H30.7495V1.82458H30.788V1.81175H30.8136V1.79892H30.8393V1.78609H30.8778V1.77326H30.9034V1.76044H30.9291V1.74761H30.9676V1.73478H30.9932V1.72195H31.0189V1.70912H31.0574V1.69629H31.083V1.68347H31.1215V1.67064H31.1472V1.65781H31.1857V1.64498H31.2113V1.63215H31.2498V1.61932H31.2755V1.6065H31.3139V1.59367H31.3396V1.58084H31.3781V1.56801H31.4037V1.55518H31.4422V1.54235H31.4679V1.52953H31.5064V1.5167H31.532V1.50387H31.5705V1.49104H31.609V1.47821H31.6346V1.46538H31.6731V1.45256H31.7116V1.43973H31.7373V1.4269H31.7758V1.41407H31.8142V1.40124H31.8399V1.38841H31.8784V1.37559H31.9169V1.36276H31.9425V1.34993H31.981V1.3371H32.0195V1.32427H32.058V1.31144H32.0836V1.29862H32.1221V1.28579H32.1606V1.27296H32.1991V1.26013H32.2376V1.2473H32.2632V1.23448H32.3017V1.22165H32.3402V1.20882H32.3787V1.19599H32.4172V1.18316H32.4557V1.17033H32.4941V1.15751H32.5326V1.14468H32.5711V1.13185H32.6096V1.11902H32.6481V1.10619H32.6866V1.09336H32.7251V1.08054H32.7635V1.06771H32.802V1.05488H32.8405V1.04205H32.879V1.02922H32.9175V1.01639H32.956V1.00357H33.0073V0.990737H33.0458V0.977909H33.0842V0.96508H33.1227V0.952252H33.1612V0.939424H33.1997V0.926595H33.251V0.913767H33.2895V0.900939H33.328V0.88811H33.3793V0.875282H33.4178V0.862454H33.4691V0.849625H33.5076V0.836797H33.5461V0.823969H33.5974V0.81114H33.6359V0.798312H33.6872V0.785484H33.7257V0.772655H33.777V0.759827H33.8283V0.746999H33.8668V0.73417H33.9181V0.721342H33.9566V0.708514H34.0079V0.695685H34.0592V0.682857H34.1105V0.670029H34.149V0.6572H34.2003V0.644372H34.2516V0.631544H34.3029V0.618715H34.3543V0.605887H34.4056V0.593059H34.4569V0.58023H34.5082V0.567402H34.5595V0.554574H34.6108V0.541745H34.6621V0.528917H34.7134V0.516089H34.7776V0.503261H34.8289V0.490432H34.8802V0.477604H34.9444V0.464776H34.9957V0.451947H35.0598V0.439119H35.1111V0.426291H35.1753V0.413462H35.2266V0.400634H35.2907V0.387806H35.3549V0.374977H35.419V0.362149H35.4831V0.349321H35.5345V0.336492H35.6114V0.323664H35.6756V0.310836H35.7397V0.298007H35.8039V0.285179H35.8808V0.272351H35.945V0.259522H36.0219V0.246694H36.0989V0.233866H36.1759V0.221037H36.2528V0.208209H36.3298V0.195381H36.4068V0.182552H36.4966V0.169724H36.5864V0.156896H36.6762V0.144067H36.766V0.131239H36.8558V0.118411H36.9584V0.105582H37.061V0.0927541H37.1893V0.0799258H37.3048V0.0670975H37.4459V0.0542692H37.587V0.0414408H37.7666V0.0286125H37.9975V0.0157842H38.2156V0.00295587H39.601V0.0157842H39.8319V0.0286125H40.0372V0.0414408H40.1527V0.0542692H39.9859V0.0414408H39.2418V0.0542692H38.9853V0.0670975H38.7415V0.0799258H38.5619V0.0927541H38.4593V0.105582H38.3567V0.118411H38.2541V0.131239H38.1514V0.144067H38.0488V0.156896H37.9462V0.169724H37.8564V0.182552H37.7922V0.195381H37.7153V0.208209H37.6511V0.221037H37.587V0.233866H37.5228V0.246694H37.4587V0.259522H37.3946V0.272351H37.3304V0.285179H37.2663V0.298007H37.2021V0.310836H37.138V0.323664H37.0867V0.336492H37.0354V0.349321H36.9969V0.362149H36.9456V0.374977H36.8943V0.387806H36.8429V0.400634H36.8045V0.413462H36.7531V0.426291H36.7018V0.439119H36.6505V0.451947H36.612V0.464776H36.5607V0.477604H36.5094V0.490432H36.4709V0.503261H36.4196V0.516089H36.3811V0.528917H36.3426V0.541745H36.3042V0.554574H36.2657V0.567402H36.2272V0.58023H36.1887V0.593059H36.1502V0.605887H36.1246V0.618715H36.0861V0.631544H36.0476V0.644372H36.0091V0.6572H35.9706V0.670029H35.9321V0.682857H35.8937V0.695685H35.8552V0.708514H35.8167V0.721342H35.7782V0.73417H35.7397V0.746999H35.7141V0.759827H35.6756V0.772655H35.6499V0.785484H35.6114V0.798312H35.5858V0.81114H35.5601V0.823969H35.5216V0.836797H35.496V0.849625H35.4575V0.862454H35.4318V0.875282H35.4062V0.88811H35.3677V0.900939H35.342V0.913767H35.3035V0.926595H35.2779V0.939424H35.2522V0.952252H35.2137V0.96508H35.1881V0.977909H35.1496V0.990737H35.124V1.00357H35.0855V1.01639H35.0598V1.02922H35.0342V1.04205H35.0085V1.05488H34.9828V1.06771H34.9572V1.08054H34.9315V1.09336H34.9059V1.10619H34.8802V1.11902H34.8546V1.13185H34.8161V1.14468H34.7904V1.15751H34.7648V1.17033H34.7391V1.18316H34.7134V1.19599H34.6878V1.20882H34.6621V1.22165H34.6365V1.23448H34.6108V1.2473H34.5852V1.26013H34.5595V1.27296H34.5338V1.28579H34.5082V1.29862H34.4825V1.31144H34.4569V1.32427H34.4312V1.3371H34.4056V1.34993H34.3799V1.36276H34.3543V1.37559H34.3286V1.38841H34.3158V1.40124H34.2901V1.41407H34.2645V1.4269H34.2388V1.43973H34.2131V1.45256H34.2003V1.46538H34.1747V1.47821H34.149V1.49104H34.1233V1.50387H34.1105V1.5167H34.0849V1.52953H34.0592V1.54235H34.0335V1.55518H34.0207V1.56801H33.9951V1.58084H33.9694V1.59367H33.9437V1.6065H33.9181V1.61932H33.9053V1.63215H33.8796V1.64498H33.8539V1.65781H33.8283V1.67064H33.8155V1.68347H33.7898V1.69629H33.7641V1.70912H33.7385V1.72195H33.7257V1.73478H33.7V1.74761H33.6872V1.76044H33.6615V1.77326H33.6359V1.78609H33.623V1.79892H33.5974V1.81175H33.5846V1.82458H33.5589V1.83741H33.5461V1.85023H33.5204V1.86306H33.5076V1.87589H33.4819V1.88872H33.4563V1.90155H33.4434V1.91438H33.4178V1.9272H33.405V1.94003H33.3793V1.95286H33.3665V1.96569H33.3408V1.97852H33.328V1.99135H33.3023V2.00417H33.2767V2.017H33.2638V2.02983H33.2382V2.04266H33.2254V2.05549H33.1997V2.06832H33.1869V2.08114H33.1612V2.09397H33.1484V2.1068H33.1227V2.11963H33.1099V2.13246H33.0842V2.14529H33.0714V2.15811H33.0458V2.17094H33.0329V2.18377H33.0201V2.1966H32.9944V2.20943H32.9816V2.22226H32.956V2.23508H32.9431V2.24791H32.9303V2.26074H32.9047V2.27357H32.8918V2.2864H32.879V2.29923H32.8533V2.31205H32.8405V2.32488H32.8149V2.33771H32.802V2.35054H32.7892V2.36337H32.7635V2.3762H32.7507V2.38902H32.7251V2.40185H32.7122V2.41468H32.6994V2.42751H32.6737V2.44034H32.6609V2.45317H32.6481V2.46599H32.6224V2.47882H32.6096V2.49165H32.5839V2.50448H32.5711V2.51731H32.5583V2.53014H32.5326V2.54296H32.5198V2.55579H32.4941V2.56862H32.4813V2.58145H32.4685V2.59428H32.4557V2.60711H32.43V2.61993H32.4172V2.63276H32.4043V2.64559H32.3915V2.65842H32.3659V2.67125H32.353V2.68408H32.3402V2.6969H32.3274V2.70973H32.3145V2.72256H32.2889V2.73539H32.2761V2.74822H32.2632V2.76105H32.2504V2.77387H32.2248V2.7867H32.2119V2.79953H32.1991V2.81236H32.1863V2.82519H32.1606V2.83802H32.1478V2.85084H32.135V2.86367H32.1221V2.8765H32.0965V2.88933H32.0836V2.90216H32.0708V2.91499H32.058V2.92781H32.0323V2.94064H32.0195V2.95347H32.0067V2.9663H31.9938V2.97913H31.9682V2.99196H31.9554V3.00478H31.9425V3.01761H31.9297V3.03044H31.904V3.04327H31.8912V3.0561H31.8784V3.06893H31.8656V3.08175H31.8527V3.09458H31.8399V3.10741H31.8271V3.12024H31.8142V3.13307H31.7886V3.1459H31.7758V3.15872H31.7629V3.17155H31.7501V3.18438H31.7373V3.19721H31.7244V3.21004H31.7116V3.22287H31.6988V3.23569H31.6731V3.24852H31.6603V3.26135H31.6475V3.27418H31.6346V3.28701H31.6218V3.29984H31.609V3.31266H31.5962V3.32549H31.5833V3.33832H31.5577V3.35115H31.5448V3.36398H31.532V3.37681H31.5192V3.38963H31.5064V3.40246H31.4935V3.41529H31.4807V3.42812H31.4679V3.44095H31.4422V3.45378H31.4294V3.4666H31.4166V3.47943H31.4037V3.49226H31.3909V3.50509H31.3781V3.51792H31.3653V3.53075H31.3524V3.54357H31.3396V3.5564H31.3268V3.56923H31.3011V3.58206H31.2883V3.59489H31.2755V3.60772H31.2626V3.62054H31.2498V3.63337H31.237V3.6462H31.2241V3.65903H31.2113V3.67186H31.1985V3.68469H31.1857V3.69751H31.1728V3.71034H31.16V3.72317H31.1472V3.736H31.1343V3.74883H31.1215V3.76166H31.1087V3.77448H31.0959V3.78731H31.083V3.80014H31.0702V3.81297H31.0574V3.8258H31.0445V3.83862H31.0317V3.85145H31.0189V3.86428H31.0061V3.87711H30.9932V3.88994H30.9804V3.90277H30.9676V3.9156H30.9547V3.92842H30.9419V3.94125H30.9291V3.95408H30.9163V3.96691H30.9034V3.97974H30.8906V3.99256H30.8778V4.00539H30.8649V4.01822H30.8521V4.03105H30.8393V4.04388H30.8265V4.05671H30.8136V4.06953H30.8008V4.08236H30.788V4.09519H30.7752V4.10802H30.7623V4.12085H30.7495V4.13368H30.7367V4.1465H30.7238V4.15933H30.711V4.17216H30.6982V4.18499H30.6854V4.19782H30.6725V4.21065H30.6597V4.22347H30.6469V4.2363H30.634V4.26196H30.6212V4.27479H30.6084V4.28762H30.5956V4.30044H30.5827V4.31327H30.5699V4.3261H30.5571V4.33893H30.5442V4.35176H30.5314V4.36459H30.5186V4.37741H30.5058V4.39024H30.4929V4.40307H30.4801V4.4159H30.4673V4.42873H30.4544V4.45438H30.4416V4.46721H30.4288V4.48004H30.416V4.49287H30.4031V4.5057H30.3903V4.51853H30.3775V4.53135H30.3646V4.54418H30.3518V4.55701H30.339V4.56984H30.3262V4.58267H30.3133V4.5955H30.3005V4.60832H30.2877V4.62115H30.2748V4.64681H30.262V4.65964H30.2492V4.67247H30.2364V4.68529H30.2235V4.69812H30.2107V4.71095H30.1979V4.73661H30.185V4.74944H30.1722V4.76226H30.1594V4.77509H30.1466V4.78792H30.1337V4.80075H30.1209V4.82641H30.1081V4.83923H30.0952V4.85206H30.0824V4.86489H30.0696V4.87772H30.0568V4.89055H30.0439V4.9162H30.0311V4.92903H30.0183V4.94186H30.0054V4.95469H29.9926V4.96752H29.9798V4.98035H29.967V5.006H29.9541V5.01883H29.9413V5.03166H29.9285V5.04449H29.9157V5.05732H29.9028V5.07014H29.89V5.0958H29.8772V5.10863H29.8643V5.12146H29.8515V5.13429H29.8387V5.14711H29.8259V5.15994H29.813V5.1856H29.8002V5.19843H29.7874V5.21126H29.7745V5.22408H29.7617V5.23691H29.7489V5.26257H29.7361V5.2754H29.7232V5.28823H29.7104V5.31388H29.6976V5.32671H29.6847V5.33954H29.6719V5.35237H29.6591V5.37802H29.6463V5.39085H29.6334V5.40368H29.6206V5.41651H29.6078V5.44217H29.5949V5.45499H29.5821V5.46782H29.5693V5.49348H29.5565V5.50631H29.5436V5.51914H29.5308V5.53196H29.518V5.55762H29.5051V5.57045H29.4923V5.58328H29.4795V5.59611H29.4667V5.62176H29.4538V5.63459H29.441V5.64742H29.4282V5.67308H29.4153V5.6859H29.4025V5.69873H29.3897V5.71156H29.3769V5.73722H29.364V5.75005H29.3512V5.76287H29.3384V5.7757H29.3255V5.80136H29.3127V5.81419H29.2999V5.82702H29.2871V5.85267H29.2742V5.8655H29.2614V5.87833H29.2486V5.90399H29.2358V5.91681H29.2229V5.94247H29.2101V5.9553H29.1973V5.96813H29.1844V5.99378H29.1716V6.00661H29.1588V6.03227H29.146V6.0451H29.1331V6.05793H29.1203V6.08358H29.1075V6.09641H29.0946V6.10924H29.0818V6.1349H29.069V6.14772H29.0562V6.17338H29.0433V6.18621H29.0305V6.19904H29.0177V6.22469H29.0048V6.23752H28.992V6.26318H28.9792V6.27601H28.9664V6.28884H28.9535V6.31449H28.9407V6.32732H28.9279V6.34015H28.915V6.36581H28.9022V6.37863H28.8894V6.40429H28.8766V6.41712H28.8637V6.42995H28.8509V6.4556H28.8381V6.46843H28.8252V6.49409H28.8124V6.50692H28.7996V6.53257H28.7868V6.5454H28.7739V6.57106H28.7611V6.58389H28.7483V6.60954H28.7354V6.62237H28.7226V6.64803H28.7098V6.66086H28.697V6.68651H28.6841V6.69934H28.6713V6.725H28.6585V6.73783H28.6456V6.76348H28.6328V6.77631H28.62V6.80197H28.6072V6.8148H28.5943V6.84045H28.5815V6.85328H28.5687V6.87894H28.5558V6.89177H28.543V6.91742H28.5302V6.93025H28.5174V6.95591H28.5045V6.96874H28.4917V6.99439H28.4789V7.00722H28.4661V7.03288H28.4532V7.04571H28.4404V7.07136H28.4276V7.08419H28.4147V7.10985H28.4019V7.1355H28.3891V7.14833H28.3763V7.17399H28.3634V7.18682H28.3506V7.21247H28.3378V7.23813H28.3249V7.25096H28.3121V7.27662H28.2993V7.30227H28.2865V7.3151H28.2736V7.34076H28.2608V7.36641H28.248V7.37924H28.2351V7.4049H28.2223V7.43056H28.2095V7.44338H28.1967V7.46904H28.1838V7.48187H28.171V7.50753H28.1582V7.53318H28.1453V7.54601H28.1325V7.57167H28.1197V7.59732H28.1069V7.61015H28.094V7.63581H28.0812V7.66147H28.0684V7.67429H28.0555V7.69995H28.0427V7.72561H28.0299V7.73844H28.0171V7.76409H28.0042V7.78975H27.9914V7.80258H27.9786V7.82823H27.9657V7.85389H27.9529V7.87955H27.9401V7.89238H27.9273V7.91803H27.9144V7.94369H27.9016V7.96935H27.8888V7.995H27.8759V8.00783H27.8631V8.03349H27.8503V8.05914H27.8375V8.0848H27.8246V8.11046H27.8118V8.12329H27.799V8.14894H27.7861V8.1746H27.7733V8.20026H27.7605V8.22591H27.7477V8.23874H27.7348V8.2644H27.722V8.29005H27.7092V8.31571H27.6964V8.32854H27.6835V8.3542H27.6707V8.37985H27.6579V8.40551H27.645V8.43117H27.6322V8.44399H27.6194V8.46965H27.6066V8.49531H27.5937V8.52096H27.5809V8.54662H27.5681V8.57228H27.5552V8.59793H27.5424V8.62359H27.5296V8.64925H27.5168V8.6749H27.5039V8.70056H27.4911V8.72622H27.4783V8.75187H27.4654V8.77753H27.4526V8.80319H27.4398V8.82884H27.427V8.8545H27.4141V8.88016H27.4013V8.90581H27.3885V8.93147H27.3756V8.95713H27.3628V8.96996H27.35V8.99561H27.3372V9.02127H27.3243V9.04692H27.3115V9.07258H27.2987V9.09824H27.2858V9.12389H27.273V9.14955H27.2602V9.17521H27.2474V9.20086H27.2345V9.22652H27.2217V9.26501H27.2089V9.29066H27.196V9.31632H27.1832V9.34198H27.1704V9.36763H27.1576V9.39329H27.1447V9.43178H27.1319V9.45743H27.1191V9.48309H27.1062V9.50874H27.0934V9.5344H27.0806V9.56006H27.0678V9.59854H27.0549V9.6242H27.0421V9.64986H27.0293V9.67551H27.0165V9.70117H27.0036V9.72683H26.9908V9.75248H26.978V9.79097H26.9651V9.81662H26.9523V9.84228H26.9395V9.86794H26.9267V9.89359H26.9138V9.93208H26.901V9.95774H26.8882V9.98339H26.8753V10.0219H26.8625V10.0475H26.8497V10.086H26.8369V10.1117H26.824V10.1373H26.8112V10.1758H26.7984V10.2015H26.7855V10.24H26.7727V10.2656H26.7599V10.2913H26.7471V10.3298H26.7342V10.3554H26.7214V10.3811H26.7086V10.4196H26.6957V10.4452H26.6829V10.4837H26.6701V10.5094H26.6573V10.535H26.6444V10.5735H26.6316V10.5992H26.6188V10.6376H26.6059V10.6633H26.5931V10.7018H26.5803V10.7403H26.5675V10.7659H26.5546V10.8044H26.5418V10.8429H26.529V10.8685H26.5161V10.907H26.5033V10.9455H26.4905V10.9712H26.4777V11.0097H26.4648V11.0481H26.452V11.0738H26.4392V11.1123H26.4263V11.1508H26.4135V11.1764H26.4007V11.2149H26.3879V11.2534H26.375V11.2791H26.3622V11.3175H26.3494V11.356H26.3365V11.3945H26.3237V11.433H26.3109V11.4715H26.2981V11.51H26.2852V11.5484H26.2724V11.5869H26.2596V11.6254H26.2468V11.6639H26.2339V11.7024H26.2211V11.7409H26.2083V11.7794H26.1954V11.8178H26.1826V11.8563H26.1698V11.8948H26.157V11.9333H26.1441V11.9718H26.1313V12.0103H26.1185V12.0488H26.1056V12.0872H26.0928V12.1257H26.08V12.177H26.0672V12.2155H26.0543V12.254H26.0415V12.3053H26.0287V12.3438H26.0158V12.3951H26.003V12.4336H25.9902V12.4721H25.9774V12.5234H25.9645V12.5619H25.9517V12.6132H25.9389V12.6517H25.926V12.703H25.9132V12.7415H25.9004V12.78H25.8876V12.8313H25.8747V12.8826H25.8619V12.9339H25.8491V12.9852H25.8362V13.0365H25.8234V13.0878H25.8106V13.1392H25.7978V13.1905H25.7849V13.2418H25.7721V13.2931H25.7593V13.3444H25.7464V13.3957H25.7336V13.447H25.7208V13.4984H25.708V13.5497H25.6951V13.6138H25.6823V13.6779H25.6695V13.7421H25.6566V13.7934H25.6438V13.8575H25.631V13.9217H25.6182V13.9858H25.6053V14.0371H25.5925V14.1013H25.5797V14.1654H25.5669V14.2296H25.554V14.2937H25.5412V14.3707H25.5284V14.4476H25.5155V14.5246H25.5027V14.6016H25.4899V14.6786H25.4771V14.7555H25.4642V14.8325H25.4514V14.9095H25.4386V14.9864H25.4257V15.0891H25.4129V15.1917H25.4001V15.2943H25.3873V15.3969H25.3744V15.4996H25.3616V15.6022H25.3488V15.7305H25.3359V15.8716H25.3231V16.0127H25.3103V16.1666H25.2975V16.3591H25.2846V16.5002H25.2718V16.6285H25.259V16.7696H25.2461V16.9107H25.2333V17.0646H25.2205V17.2186H25.2077V17.411H25.1948V17.6034H25.182V17.7958H25.1692V18.0268H25.1563V18.3346H25.1435V18.6425H25.1307V19.2583H25.1179V21.4134H25.105V22.9913H25.0922V25.6981H25.105V26.7628H25.1179V27.4427H25.1307V27.9687H25.1435V28.4177H25.1563V28.8025H25.1692V29.1489H25.182V29.4696H25.1948V29.7518H25.2077V30.0212H25.2205V30.2778H25.2333V30.5215H25.2461V30.7525H25.259V30.9705H25.2718V31.1758H25.2846V31.381H25.2975V31.5606H25.3103V31.7402H25.3231V31.9198H25.3359V32.0866H25.3488V32.2534H25.3616V32.4201H25.3744V32.5741H25.3873V32.7152H25.4001V32.8691H25.4129V33.0102H25.4257V33.1513H25.4386V33.2796H25.4514V33.4207H25.4642V33.549H25.4771V33.6773H25.4899V33.7928H25.5027V33.921H25.5155V34.0365H25.5284V34.152H25.5412V34.2674H25.554V34.3829H25.5669V34.4855H25.5797V34.5881H25.5925V34.7036H25.6053V34.8062H25.6182V34.9088H25.631V35.0115H25.6438V35.1013H25.6566V35.2039H25.6695V35.2937H25.6823V35.3963H25.6951V35.4861H25.708V35.5759H25.7208V35.6657H25.7336V35.7555H25.7464V35.8453H25.7593V35.9223H25.7721V36.0121H25.7849V36.089H25.7978V36.1788H25.8106V36.2558H25.8234V36.3328H25.8362V36.4226H25.8491V36.4995H25.8619V36.5637H25.8747V36.6407H25.8876V36.7176H25.9004V36.7946H25.9132V36.8716H25.926V36.9485H25.9389V37.0127H25.9517V37.0896H25.9645V37.1538H25.9774V37.2308H25.9902V37.2949H26.003V37.359H26.0158V37.4232H26.0287V37.5001H26.0415V37.5643H26.0543V37.6284H26.0672V37.6926H26.08V37.7567H26.0928V37.8209H26.1056V37.885H26.1185V37.9363H26.1313V38.0005H26.1441V38.0646H26.157V38.1159H26.1698V38.18H26.1826V38.2442H26.1954V38.2955H26.2083V38.3596H26.2211V38.411H26.2339V38.4623H26.2468V38.5264H26.2596V38.5777H26.2724V38.6419H26.2852V38.6932H26.2981V38.7445H26.3109V38.7958H26.3237V38.8471H26.3365V38.8984H26.3494V38.9497H26.3622V39.0011H26.375V39.0524H26.3879V39.1165H26.4007V39.1678H26.4135V39.2063H26.4263V39.2576H26.4392V39.3089H26.452V39.3603H26.4648V39.3987H26.4777V39.4501H26.4905V39.5014H26.5033V39.5527H26.5161V39.5912H26.529V39.6425H26.5418V39.6938H26.5546V39.7323H26.5675V39.7836H26.5803V39.8221H26.5931V39.8606H26.6059V39.9119H26.6188V39.9504H26.6316V40.0017H26.6444V40.0402H26.6573V40.0915H26.6701V40.13H26.6829V40.1684H26.6957V40.2069H26.7086V40.2582H26.7214V40.2967H26.7342V40.3352H26.7471V40.3737H26.7599V40.4122H26.7727V40.4635H26.7855V40.502H26.7984V40.5405H26.8112V40.5789H26.824V40.6174H26.8369V40.6559H26.8497V40.6944H26.8625V40.7329H26.8753V40.7714H26.8882V40.8099H26.901V40.8483H26.9138V40.8868H26.9267V40.9125H26.9395V40.951H26.9523V40.9895H26.9651V41.0279H26.978V41.0664H26.9908V41.0921H27.0036V41.1306H27.0165V41.1691H27.0293V41.2075H27.0421V41.2332H27.0549V41.2717H27.0678V41.3102H27.0806V41.3358H27.0934V41.3743H27.1062V41.4128H27.1191V41.4384H27.1319V41.4769H27.1447V41.5026H27.1576V41.5411H27.1704V41.5667H27.1832V41.6052H27.196V41.6309H27.2089V41.6694H27.2217V41.695H27.2345V41.7335H27.2474V41.7592H27.2602V41.7976H27.273V41.8233H27.2858V41.849H27.2987V41.8874H27.3115V41.9131H27.3243V41.9388H27.3372V41.9772H27.35V42.0029H27.3628V42.0414H27.3756V42.067H27.3885V42.0927H27.4013V42.1183H27.4141V42.144H27.427V42.1825H27.4398V42.2081H27.4526V42.2338H27.4654V42.2595H27.4783V42.2851H27.4911V42.3236H27.5039V42.3493H27.5168V42.3749H27.5296V42.4006H27.5424V42.4262H27.5552V42.4519H27.5681V42.4775H27.5809V42.5032H27.5937V42.5289H27.6066V42.5545H27.6194V42.5802H27.6322V42.6058H27.645V42.6315H27.6579V42.6571H27.6707V42.6956H27.6835V42.7213H27.6964V42.7469H27.7092V42.7726H27.722V42.7854H27.7348V42.8111H27.7477V42.8367H27.7605V42.8624H27.7733V42.888H27.7861V42.9137H27.799V42.9394H27.8118V42.9522H27.8246V42.9778H27.8375V43.0035H27.8503V43.0292H27.8631V43.0548H27.8759V43.0805H27.8888V43.1061H27.9016V43.119H27.9144V43.1446H27.9273V43.1703H27.9401V43.1959H27.9529V43.2088H27.9657V43.2344H27.9786V43.2601H27.9914V43.2729H28.0042V43.2986H28.0171V43.3242H28.0299V43.3499H28.0427V43.3627H28.0555V43.3884H28.0684V43.414H28.0812V43.4268H28.094V43.4525H28.1069V43.4781H28.1197V43.491H28.1325V43.5166H28.1453V43.5295H28.1582V43.5551H28.171V43.5679H28.1838V43.5936H28.1967V43.6193H28.2095V43.6321H28.2223V43.6577H28.2351V43.6706H28.248V43.6962H28.2608V43.7091H28.2736V43.7347H28.2865V43.7475H28.2993V43.7732H28.3121V43.786H28.3249V43.8117H28.3378V43.8245H28.3506V43.8502H28.3634V43.863H28.3763V43.8758H28.3891V43.9015H28.4019V43.9143H28.4147V43.94H28.4276V43.9528H28.4404V43.9785H28.4532V43.9913H28.4661V44.0041H28.4789V44.0298H28.4917V44.0426H28.5045V44.0683H28.5174V44.0811H28.5302V44.0939H28.543V44.1196H28.5558V44.1324H28.5687V44.1452H28.5815V44.1581H28.5943V44.1837H28.6072V44.1965H28.62V44.2094H28.6328V44.235H28.6456V44.2478H28.6585V44.2607H28.6713V44.2863H28.6841V44.2992H28.697V44.312H28.7098V44.3248H28.7226V44.3505H28.7354V44.3633H28.7483V44.3761H28.7611V44.389H28.7739V44.4018H28.7868V44.4274H28.7996V44.4403H28.8124V44.4531H28.8252V44.4659H28.8381V44.4788H28.8509V44.4916H28.8637V44.5172H28.8766V44.5301H28.8894V44.5429H28.9022V44.5557H28.915V44.5686H28.9279V44.5942H28.9407V44.607H28.9535V44.6199H28.9664V44.6327H28.9792V44.6455H28.992V44.6584H29.0048V44.6712H29.0177V44.684H29.0305V44.6968H29.0433V44.7097H29.0562V44.7225H29.069V44.7353H29.0818V44.7482H29.0946V44.761H29.1075V44.7866H29.1203V44.7995H29.1331V44.8123H29.146V44.8251H29.1588V44.838H29.1716V44.8508H29.1844V44.8636H29.1973V44.8764H29.2101V44.8893H29.2229V44.9021H29.2358V44.9149H29.2486V44.9277H29.2614V44.9406H29.2871V44.9534H29.2999V44.9662H29.3127V44.9791H29.3255V44.9919H29.3384V45.0047H29.3512V45.0175H29.364V45.0304H29.3769V45.0432H29.3897V45.056H29.4025V45.0689H29.4153V45.0817H29.4282V45.0945H29.441V45.1073H29.4667V45.1202H29.4795V45.133H29.4923V45.1458H29.5051V45.1587H29.518V45.1715H29.5308V45.1843H29.5565V45.1971H29.5693V45.21H29.5821V45.2228H29.5949V45.2356H29.6078V45.2485H29.6206V45.2613H29.6463V45.2741H29.6591V45.2869H29.6719V45.2998H29.6847V45.3126H29.7104V45.3254H29.7232V45.3383H29.7361V45.3511H29.7617V45.3639H29.7745V45.3767H29.7874V45.3896H29.813V45.4024H29.8259V45.4152H29.8387V45.4281H29.8643V45.4409H29.8772V45.4537H29.89V45.4665H29.9157V45.4794H29.9285V45.4922H29.9413V45.505H29.967V45.5179H29.9798V45.5307H30.0054V45.5435H30.0183V45.5563H30.0439V45.5692H30.0696V45.582H30.0824V45.5948H30.1081V45.6077H30.1209V45.6205H30.1466V45.6333H30.1594V45.6461H30.185V45.659H30.1979V45.6718H30.2235V45.6846H30.2492V45.6974H30.262V45.7103H30.2877V45.7231H30.3133V45.7359H30.3262V45.7488H30.3518V45.7616H30.3775V45.7744H30.4031V45.7872H30.416V45.8001H30.4416V45.8129H30.4673V45.8257H30.4929V45.8386H30.5186V45.8514H30.5314V45.8642H30.5571V45.877H30.5699V45.8899H30.5827V45.9155H30.5956V45.9284H30.6084V45.954H30.6212V45.9668H30.634V46.0053H30.6469V46.1208H30.634V46.1721H30.6212V46.1978H30.6084V46.2106H30.5956V46.2362H30.5827V46.2491H30.5699V46.2619H30.5571V46.2747H30.5314V46.2876H30.5186V46.3004H30.4929V46.3132H30.4544V46.326" fill="url(#paint1_linear_1801_9979)"/>
<path d="M52.5113 26.623C47.5075 22.1139 44.567 20.7923 44.3848 18.1245C44.2466 16.1498 45.7599 15.0141 47.4896 12.4412C50.5472 7.89763 48.7258 2.98067 43.9664 0.955202C48.7946 3.2634 43.3841 9.91861 43.3841 9.91861C43.4072 9.88282 43.4232 9.84613 43.4518 9.8156C41.7104 12.2981 37.7245 15.673 38.5274 19.1077C39.8257 24.7371 48.3161 22.0991 54.241 28.4394C53.4803 27.5269 52.8659 26.9415 52.5113 26.623Z" fill="black"/>
<path d="M52.5113 26.623C47.5075 22.1139 44.567 20.7923 44.3848 18.1245C44.2466 16.1498 45.7599 15.0141 47.4896 12.4412C50.5472 7.89763 48.7258 2.98067 43.9664 0.955202C48.7946 3.2634 43.3841 9.91861 43.3841 9.91861C43.4072 9.88282 43.4232 9.84613 43.4518 9.8156C41.7104 12.2981 37.7245 15.673 38.5274 19.1077C39.8257 24.7371 48.3161 22.0991 54.241 28.4394C53.4803 27.5269 52.8659 26.9415 52.5113 26.623Z" fill="url(#paint2_linear_1801_9979)"/>
<path d="M54.1208 28.319C48.2019 22.135 39.8187 24.698 38.5274 19.1077C38.4766 18.9061 38.448 18.704 38.4349 18.5008C38.5342 23.3488 41.6737 25.1995 46.6396 28.9403C51.9992 32.9806 52.8219 45.4914 33.3018 46.3296C33.1841 46.3327 33.0284 46.3526 32.8646 46.36C32.5981 46.3767 32.5225 46.7947 32.8604 46.8809C37.9856 48.1461 48.2694 48.7691 53.8269 43.5243C57.879 39.6885 58.3301 33.4102 54.1208 28.319Z" fill="black"/>
<path d="M54.1208 28.319C48.2019 22.135 39.8187 24.698 38.5274 19.1077C38.4766 18.9061 38.448 18.704 38.4349 18.5008C38.5342 23.3488 41.6737 25.1995 46.6396 28.9403C51.9992 32.9806 52.8219 45.4914 33.3018 46.3296C33.1841 46.3327 33.0284 46.3526 32.8646 46.36C32.5981 46.3767 32.5225 46.7947 32.8604 46.8809C37.9856 48.1461 48.2694 48.7691 53.8269 43.5243C57.879 39.6885 58.3301 33.4102 54.1208 28.319Z" fill="url(#paint3_radial_1801_9979)"/>
<path d="M8.52632 76.8378C10.7308 76.8391 12.0719 75.975 12.0688 74.3209L12.0701 74.2712C12.0701 72.7202 10.8357 71.8045 8.29506 71.8064H3.17977V76.8417L8.52632 76.8378ZM7.58214 69.0753C9.65773 69.0753 11.0446 68.2657 11.0464 66.5838L11.0476 66.5336C11.0476 65.0909 9.88833 64.1951 7.82017 64.1976H3.17727L3.17977 69.0735L7.58214 69.0753ZM0.00486073 62.9674C0.00315697 62.0513 0.709166 61.3383 1.62794 61.3383L8.23809 61.3395C10.3403 61.3395 11.9925 61.9141 13.0414 62.9645C13.8536 63.7809 14.2728 64.7778 14.2728 66.0097V66.0618C14.2709 68.2631 13.0136 69.4437 11.6479 70.1528C13.8003 70.8882 15.2932 72.1207 15.2932 74.6129V74.665C15.2932 77.9427 12.5951 79.6978 8.50092 79.696H1.62794C0.709166 79.6978 0.00315697 78.9899 0 78.0754L0.00486073 62.9674Z" fill="#2B2D72"/>
<path d="M17.3613 67.7715C17.3613 66.939 18.016 66.2311 18.8728 66.2334C19.7048 66.2321 20.4141 66.9155 20.4141 67.7734V78.3141C20.4141 79.1652 19.732 79.8254 18.8721 79.8254C18.0396 79.8254 17.3613 79.1652 17.3613 78.3159V67.7715ZM17.132 62.8063C17.132 61.8956 17.892 61.3147 18.8721 61.3147C19.8598 61.3147 20.6155 61.8956 20.6155 62.8013L20.6161 62.9582C20.6155 63.8597 19.8561 64.4666 18.8728 64.4666C17.892 64.4672 17.1307 63.8634 17.132 62.9551V62.8063Z" fill="#2B2D72"/>
<path d="M22.4543 78.4647V78.4131C22.455 77.8298 22.6564 77.4542 23.1369 76.9533L30.2243 68.8819L23.9193 68.88C23.2385 68.88 22.6787 68.3283 22.6806 67.6476C22.6787 66.939 23.2374 66.3848 23.9174 66.3848H32.7221C33.5522 66.3848 34.1827 66.8888 34.1827 67.5943L34.1834 67.6675C34.1815 68.2496 33.9807 68.6302 33.5257 69.1343L26.4139 77.2011H32.9715C33.6774 77.2011 34.2342 77.7573 34.2342 78.4634C34.2342 79.1492 33.6794 79.696 32.9715 79.696L23.9441 79.699C23.0848 79.696 22.455 79.192 22.4543 78.4647Z" fill="#2B2D72"/>
<path d="M35.9973 67.7697C35.9973 66.939 36.6527 66.2321 37.5113 66.2321C38.3451 66.2334 39.0494 66.9155 39.0526 67.7734L39.0494 68.4529C39.9049 67.19 41.1425 66.1101 43.2126 66.1083C46.2119 66.1045 47.9515 68.1225 47.9515 71.2279V78.3159C47.9515 79.169 47.2701 79.8254 46.4401 79.8262C45.5825 79.8262 44.9013 79.169 44.9013 78.3141V72.1337C44.9013 70.063 43.8641 68.88 42.0495 68.8819C40.2856 68.8831 39.0526 70.1157 39.0526 72.1838L39.0494 78.3141C39.0526 79.167 38.37 79.8254 37.5126 79.8262C36.6775 79.8254 35.9973 79.169 35.9986 78.3159L35.9973 67.7697Z" fill="#2B2D72"/>
<path d="M59.5033 72.1107C59.2993 70.1436 58.1363 68.6036 56.1244 68.6054C54.2547 68.6054 52.9434 70.0394 52.6682 72.1076L59.5033 72.1107ZM49.6422 73.0914V73.045C49.6422 69.2315 52.3408 66.1027 56.1474 66.1064C60.3811 66.1064 62.4771 69.5881 62.4771 72.6644C62.4771 73.5193 61.82 74.1287 61.0364 74.1275H52.6898C53.0197 76.293 54.5578 77.5081 56.5269 77.5087C57.8107 77.5087 58.8206 77.0778 59.6767 76.3469C59.8287 76.2217 60.1076 76.0692 60.4573 76.0692C61.1374 76.0672 61.67 76.624 61.67 77.3022C61.67 77.6842 61.4945 78.0126 61.2658 78.2111C60.0581 79.2985 58.5428 79.9997 56.4735 80.0004C52.6154 80.0004 49.6402 77.2011 49.6422 73.0914Z" fill="#2B2D72"/>
<path d="M64.9719 76.0177V69.0091H64.4722C63.7377 69.0059 63.1585 68.4263 63.1615 67.6971C63.1585 66.965 63.7377 66.3848 64.4691 66.3829L64.9737 66.3848L64.9719 64.1133C64.9737 63.2837 65.6575 62.6042 66.4852 62.6042C67.3425 62.5999 68.024 63.2837 68.0271 64.1157V66.3829L70.422 66.3848C71.1528 66.3829 71.7344 66.965 71.7332 67.6955C71.7344 68.4263 71.1535 69.0091 70.4201 69.0072L68.0271 69.0059V75.5403C68.024 76.7239 68.6315 77.2019 69.665 77.2019C70.0178 77.2019 70.319 77.1281 70.422 77.1281C71.1044 77.1281 71.7096 77.6842 71.7076 78.3872C71.7076 78.9451 71.3296 79.3966 70.9006 79.5731C70.2439 79.7995 69.6141 79.9247 68.8051 79.9247C66.5614 79.9247 64.9749 78.9451 64.9719 76.0177Z" fill="#2B2D72"/>
<path d="M73.0152 62.487L73.0172 62.4796C73.0172 61.8088 72.4944 61.2682 71.8076 61.2682C71.1175 61.2682 70.5925 61.8169 70.5925 62.487V62.4952C70.5925 63.1672 71.1114 63.7078 71.7977 63.7089C72.4939 63.7089 73.0172 63.1596 73.0152 62.487ZM70.373 62.4976L70.3761 62.4901C70.3749 61.7108 71.0035 61.0592 71.8076 61.0618C72.6105 61.0592 73.2354 61.7022 73.2354 62.4815L73.2323 62.487C73.2323 63.2664 72.6029 63.9173 71.8001 63.9198C70.9991 63.9173 70.373 63.2751 70.373 62.4976Z" fill="#2B2D72"/>
<path d="M71.8851 62.4294C72.0698 62.4312 72.1807 62.3389 72.1807 62.1962V62.1902C72.182 62.0375 72.068 61.9545 71.8826 61.9526L71.513 61.9545V62.4312L71.8851 62.4294ZM71.2266 61.8434C71.2285 61.7611 71.2924 61.6985 71.3717 61.6954L71.8956 61.6985C72.0897 61.6985 72.2446 61.7556 72.3512 61.8596C72.4294 61.9378 72.4721 62.0419 72.4704 62.1727V62.1802C72.4721 62.4102 72.3414 62.5584 72.135 62.6302L72.4244 62.9799C72.451 63.009 72.4641 63.0412 72.4641 63.0816C72.4654 63.1554 72.4015 63.2199 72.3315 63.2193C72.2689 63.2193 72.2416 63.1981 72.2068 63.1554L71.8323 62.6769C71.828 62.6805 71.8237 62.6779 71.8181 62.6779H71.513V63.0784C71.5106 63.1554 71.4443 63.2199 71.37 63.2193C71.2924 63.2168 71.2266 63.1528 71.2266 63.0784V61.8434Z" fill="#2B2D72"/>
</g>
<defs>
<linearGradient id="paint0_linear_1801_9979" x1="0" y1="40" x2="73.2354" y2="40" gradientUnits="userSpaceOnUse">
<stop stop-color="#4CB0E7"/>
<stop offset="0.0901456" stop-color="#4CB0E7"/>
<stop offset="1" stop-color="#2F439A"/>
</linearGradient>
<linearGradient id="paint1_linear_1801_9979" x1="75.8096" y1="8.43737" x2="58.5032" y2="80.9034" gradientUnits="userSpaceOnUse">
<stop stop-color="#83D2EF"/>
<stop offset="0.378296" stop-color="#4CB0E7"/>
<stop offset="1" stop-color="#2F439A"/>
</linearGradient>
<linearGradient id="paint2_linear_1801_9979" x1="36.6176" y1="81.2177" x2="36.6176" y2="-5.47037" gradientUnits="userSpaceOnUse">
<stop stop-color="#4CB0E7"/>
<stop offset="0.712223" stop-color="#2A4FA5"/>
<stop offset="1" stop-color="#2F439A"/>
</linearGradient>
<radialGradient id="paint3_radial_1801_9979" cx="0" cy="0" r="1" gradientUnits="userSpaceOnUse" gradientTransform="translate(4.87174 3.17826) scale(85.7962 98.0311)">
<stop stop-color="#83D2EF"/>
<stop offset="0.365446" stop-color="#4CB0E7"/>
<stop offset="0.931088" stop-color="#3068B9"/>
<stop offset="0.999291" stop-color="#3068B9"/>
<stop offset="1" stop-color="#3068B9"/>
</radialGradient>
<clipPath id="clip0_1801_9979">
<rect width="73.2354" height="80.0004" fill="white"/>
</clipPath>
</defs>
</svg>
