<svg width="80" height="42" viewBox="0 0 80 42" fill="none" xmlns="http://www.w3.org/2000/svg">
<g clip-path="url(#clip0_1801_10063)">
<path fill-rule="evenodd" clip-rule="evenodd" d="M39.3072 23.0918C39.3072 23.0052 39.3416 22.9222 39.4028 22.8609C39.464 22.7997 39.5471 22.7653 39.6337 22.7653C39.7203 22.7653 39.8034 22.7997 39.8646 22.8609C39.9258 22.9222 39.9602 23.0052 39.9602 23.0918V27.051H45.8786V23.0918C45.878 23.0488 45.8861 23.0061 45.9023 22.9662C45.9185 22.9264 45.9426 22.8902 45.973 22.8597C46.0034 22.8293 46.0397 22.8053 46.0795 22.789C46.1194 22.7728 46.1621 22.7648 46.2051 22.7653C46.2898 22.771 46.3696 22.8073 46.4296 22.8673C46.4897 22.9274 46.5259 23.0071 46.5317 23.0918V31.7041C46.5322 31.7471 46.5241 31.7898 46.5079 31.8297C46.4917 31.8696 46.4677 31.9058 46.4372 31.9362C46.4068 31.9666 46.3706 31.9907 46.3307 32.0069C46.2909 32.0231 46.2482 32.0312 46.2051 32.0306C46.1204 32.0249 46.0406 31.9886 45.9806 31.9286C45.9206 31.8686 45.8843 31.7888 45.8786 31.7041V27.6633H39.9602V31.7041C39.9602 31.7907 39.9258 31.8737 39.8646 31.935C39.8034 31.9962 39.7203 32.0306 39.6337 32.0306C39.5471 32.0306 39.464 31.9962 39.4028 31.935C39.3416 31.8737 39.3072 31.7907 39.3072 31.7041V23.0918Z" fill="#E64325"/>
<path fill-rule="evenodd" clip-rule="evenodd" d="M48.0827 28.6837C48.0729 28.2249 48.1541 27.7688 48.3214 27.3416C48.4888 26.9144 48.739 26.5245 49.0577 26.1944C49.3764 25.8643 49.7573 25.6005 50.1784 25.4183C50.5995 25.2361 51.0525 25.139 51.5112 25.1327H51.5521C52.0025 25.1321 52.4485 25.2204 52.8648 25.3925C53.281 25.5647 53.6592 25.8172 53.9776 26.1357C54.2961 26.4541 54.5486 26.8323 54.7207 27.2485C54.8929 27.6648 54.9812 28.1108 54.9806 28.5612V28.6837C55.0077 29.5984 54.6703 30.4864 54.0426 31.1524C53.4149 31.8183 52.5484 32.2076 51.6337 32.2347C50.719 32.2618 49.831 31.9243 49.165 31.2967C48.4991 30.669 48.1097 29.8025 48.0827 28.8878V28.6837ZM54.2459 28.6837C54.2601 28.311 54.2006 27.9391 54.0707 27.5895C53.9408 27.2398 53.7431 26.9193 53.489 26.6462C53.2349 26.3732 52.9294 26.153 52.59 25.9983C52.2506 25.8437 51.884 25.7575 51.5112 25.7449H51.4704C51.0989 25.75 50.7321 25.8297 50.3919 25.9792C50.0517 26.1287 49.745 26.345 49.4899 26.6153C49.2349 26.8855 49.0367 27.2043 48.9071 27.5526C48.7776 27.9008 48.7193 28.2716 48.7357 28.6429V28.6837C48.7107 29.049 48.7586 29.4157 48.8768 29.7623C48.9949 30.1089 49.1808 30.4286 49.4238 30.7026C49.6667 30.9766 49.9617 31.1996 50.2917 31.3584C50.6216 31.5172 50.9799 31.6088 51.3456 31.6278C51.7113 31.6467 52.0771 31.5927 52.4217 31.4688C52.7663 31.345 53.0829 31.1538 53.3528 30.9063C53.6228 30.6589 53.8408 30.3602 53.9941 30.0276C54.1474 29.6951 54.2331 29.3354 54.2459 28.9694V28.6837Z" fill="#E64325"/>
<path fill-rule="evenodd" clip-rule="evenodd" d="M56.2868 25.5816C56.2925 25.4969 56.3287 25.4172 56.3888 25.3571C56.4488 25.2971 56.5286 25.2608 56.6133 25.2551C56.694 25.2516 56.773 25.2794 56.8338 25.3326C56.8946 25.3858 56.9326 25.4604 56.9398 25.5408V26.5204C57.1597 26.1032 57.492 25.7558 57.8991 25.5177C58.3061 25.2795 58.7717 25.16 59.2432 25.1728C59.7147 25.1855 60.1731 25.3299 60.5667 25.5898C60.9604 25.8496 61.2734 26.2144 61.4704 26.6429C61.6968 26.1993 62.0417 25.8271 62.4668 25.5677C62.8919 25.3083 63.3806 25.1719 63.8786 25.1735C65.4704 25.1735 66.45 26.2755 66.45 27.9898V31.7449C66.4535 31.8256 66.4258 31.9046 66.3726 31.9654C66.3193 32.0262 66.2448 32.0642 66.1643 32.0714C66.0836 32.0749 66.0046 32.0472 65.9438 31.994C65.883 31.9408 65.845 31.8662 65.8378 31.7857V28.0306C65.8378 26.5612 65.1031 25.7449 63.8378 25.7449C62.6949 25.7449 61.7153 26.602 61.7153 28.1122V31.7449C61.7188 31.8256 61.6911 31.9046 61.6379 31.9654C61.5847 32.0262 61.5101 32.0642 61.4296 32.0714C61.3449 32.0657 61.2651 32.0295 61.2051 31.9694C61.1451 31.9094 61.1088 31.8296 61.1031 31.7449V27.9898C61.1031 26.602 60.3276 25.7449 59.1439 25.7449C58.5293 25.7735 57.9503 26.0415 57.5308 26.4916C57.1112 26.9416 56.8845 27.538 56.899 28.1531V31.7449C56.8933 31.8296 56.857 31.9094 56.797 31.9694C56.737 32.0295 56.6572 32.0657 56.5725 32.0714C56.4918 32.0749 56.4128 32.0472 56.352 31.994C56.2912 31.9408 56.2532 31.8662 56.2459 31.7857V25.5816H56.2868Z" fill="#E64325"/>
<path fill-rule="evenodd" clip-rule="evenodd" d="M67.7153 28.6837C67.7153 26.7245 69.1031 25.1735 70.899 25.1735C72.7766 25.1735 73.9602 26.7245 73.9602 28.6429C73.9545 28.7276 73.9183 28.8073 73.8582 28.8674C73.7982 28.9274 73.7184 28.9637 73.6337 28.9694H68.3684C68.4908 30.6429 69.6745 31.6225 70.9806 31.6225C71.3865 31.6241 71.7884 31.5415 72.1607 31.3799C72.5331 31.2183 72.8679 30.9812 73.1439 30.6837C73.163 30.6462 73.1923 30.6148 73.2284 30.5932C73.2645 30.5715 73.3059 30.5605 73.348 30.5612C73.4327 30.567 73.5125 30.6032 73.5725 30.6632C73.6325 30.7233 73.6688 30.803 73.6745 30.8878C73.6731 30.9635 73.6441 31.0361 73.5929 31.0918C73.2567 31.4565 72.8454 31.7439 72.3873 31.9341C71.9293 32.1244 71.4354 32.213 70.9398 32.1939C70.0476 32.1536 69.2076 31.7618 68.6034 31.104C67.9992 30.4463 67.6799 29.5761 67.7153 28.6837ZM73.2664 28.3163C73.1847 26.9694 72.4092 25.7041 70.8582 25.7041C69.5521 25.7041 68.4908 26.8061 68.4092 28.3163H73.2664Z" fill="#E64325"/>
<path fill-rule="evenodd" clip-rule="evenodd" d="M21.6337 0.602044C13.0215 -2.45918 6.32757 6.80612 5.91941 14.1122C7.06227 5.9898 15.7153 2.47959 20.3684 4.2347C21.5521 4.68368 22.5317 5.66327 22.2868 7.09184C22.1794 7.61111 21.9561 8.09945 21.6337 8.52041C21.5929 8.52041 26.6541 2.39796 21.6337 0.602044Z" fill="url(#paint0_linear_1801_10063)"/>
<path fill-rule="evenodd" clip-rule="evenodd" d="M10.4092 39.5816C5.10309 36.8061 5.75615 22.4388 5.75615 16.8469C5.75615 15.949 5.79696 15.0102 5.8786 14.1122C6.28676 7.66327 11.5929 -0.418365 18.7766 0.0306148C18.0288 -0.0102049 17.2794 -0.0102049 16.5317 0.0306148C12.3543 0.448723 8.42061 2.19384 5.30717 5.01021C1.10309 9.05102 -0.0397702 14.8878 0.00104616 21.2551C0.123495 36.6837 7.18472 39.2143 10.2868 39.9898C10.3276 39.9898 10.3276 40.0306 10.3684 40.0306C10.3957 40.0324 10.423 40.0284 10.4486 40.0188C10.4742 40.0091 10.4974 39.9942 10.5167 39.9748C10.536 39.9555 10.551 39.9323 10.5606 39.9067C10.5702 39.8811 10.5743 39.8538 10.5725 39.8265C10.571 39.7745 10.5548 39.724 10.526 39.6807C10.4971 39.6374 10.4566 39.603 10.4092 39.5816Z" fill="url(#paint1_linear_1801_10063)"/>
<path fill-rule="evenodd" clip-rule="evenodd" d="M29.5113 22.9694C25.1847 19.0918 22.6133 17.949 22.4908 15.6225C22.3684 13.9082 23.6745 12.9286 25.1847 10.7245C27.8378 6.80612 26.2459 2.52041 22.1235 0.765309C26.3276 2.76531 21.6337 8.52041 21.6337 8.52041C21.6337 8.52041 21.6745 8.43878 21.7153 8.43878C20.1643 10.602 16.7357 13.5 17.4296 16.4796C18.5317 21.3776 25.9194 19.0918 31.0623 24.5204C30.5725 23.9898 30.0419 23.4592 29.5113 22.9694Z" fill="url(#paint2_linear_1801_10063)"/>
<path fill-rule="evenodd" clip-rule="evenodd" d="M17.3888 16.4796C17.3387 16.307 17.3112 16.1286 17.3072 15.949C17.3888 20.1531 20.1235 21.7449 24.4092 24.9694C29.0623 28.4796 29.7561 39.2959 12.8582 39.9898C12.7357 39.9898 12.6133 40.0306 12.4908 40.0306C12.4342 40.0425 12.3833 40.0732 12.3463 40.1176C12.3092 40.1621 12.2883 40.2177 12.2868 40.2755C12.2868 40.3571 12.3684 40.4388 12.4908 40.4796C16.9398 41.5816 25.8378 42.1122 30.6541 37.5816C34.1235 34.2755 34.5317 28.8469 30.8582 24.398C25.7561 19.0918 18.5317 21.2959 17.3888 16.4796Z" fill="url(#paint3_radial_1801_10063)"/>
<path fill-rule="evenodd" clip-rule="evenodd" d="M39.2663 9.86735C39.2631 9.75196 39.2827 9.63707 39.3242 9.52932C39.3656 9.42157 39.4279 9.3231 39.5076 9.2396C39.5873 9.1561 39.6828 9.08923 39.7885 9.04285C39.8942 8.99647 40.0081 8.9715 40.1235 8.96939H43.8378C45.0215 8.96939 45.9194 9.29592 46.4908 9.86735C46.9337 10.3119 47.1831 10.9133 47.1847 11.5408V11.5816C47.198 12.061 47.0643 12.533 46.8017 12.9343C46.5391 13.3355 46.16 13.6469 45.7153 13.8265C46.899 14.2347 47.7153 14.9286 47.7153 16.3163V16.3571C47.7153 18.1531 46.2051 19.1735 43.9602 19.1735H40.1643C40.0489 19.1767 39.934 19.1571 39.8263 19.1157C39.7185 19.0742 39.6201 19.0119 39.5366 18.9322C39.4531 18.8525 39.3862 18.757 39.3398 18.6513C39.2934 18.5456 39.2685 18.4317 39.2663 18.3163V9.86735ZM43.5112 13.2551C44.6541 13.2551 45.4296 12.8061 45.4296 11.8673V11.8265C45.4296 11.0102 44.7766 10.5204 43.6337 10.5204H41.0623V13.2143H43.5112V13.2551ZM44.001 17.5816C45.2255 17.5816 45.9602 17.0918 45.9602 16.1939V16.1531C45.9602 15.2959 45.2664 14.8061 43.8378 14.8061H40.9806V17.6225L44.001 17.5816Z" fill="#2C296C"/>
<path fill-rule="evenodd" clip-rule="evenodd" d="M48.8174 9.78572C48.8246 9.67019 48.8547 9.55725 48.906 9.45346C48.9573 9.34968 49.0286 9.25712 49.116 9.18116C49.2033 9.1052 49.3049 9.04737 49.4148 9.01101C49.5247 8.97466 49.6407 8.96051 49.7561 8.96939H49.797C49.9152 8.95704 50.0347 8.9685 50.1484 9.0031C50.2621 9.03769 50.3677 9.09472 50.459 9.17081C50.5504 9.2469 50.6255 9.34052 50.68 9.44613C50.7346 9.55174 50.7674 9.66721 50.7766 9.78572V9.86735C50.757 10.1023 50.6494 10.3211 50.4753 10.4801C50.3012 10.639 50.0735 10.7263 49.8378 10.7245H49.797C49.6815 10.7334 49.5655 10.7192 49.4556 10.6829C49.3457 10.6465 49.2441 10.5887 49.1568 10.5127C49.0694 10.4368 48.9981 10.3442 48.9468 10.2404C48.8955 10.1366 48.8654 10.0237 48.8582 9.90816V9.86735C48.8174 9.86735 48.8174 9.78572 48.8174 9.78572ZM48.9398 12.5204C48.9386 12.2997 49.0229 12.0871 49.1751 11.9272C49.3274 11.7674 49.5356 11.6728 49.7561 11.6633H49.797C50.024 11.6643 50.2414 11.755 50.4019 11.9155C50.5624 12.076 50.653 12.2934 50.6541 12.5204V18.3571C50.6541 18.5845 50.5638 18.8025 50.4031 18.9632C50.2423 19.124 50.0243 19.2143 49.797 19.2143C49.5696 19.2143 49.3516 19.124 49.1909 18.9632C49.0301 18.8025 48.9398 18.5845 48.9398 18.3571V12.5204Z" fill="#2C296C"/>
<path fill-rule="evenodd" clip-rule="evenodd" d="M51.7561 18.4388C51.7519 18.2838 51.7827 18.1299 51.8464 17.9886C51.91 17.8472 52.0047 17.722 52.1235 17.6225L56.0827 13.1327H52.5725C52.4812 13.1332 52.3907 13.1156 52.3063 13.0809C52.2219 13.0463 52.1452 12.9952 52.0806 12.9306C52.0161 12.8661 51.965 12.7894 51.9303 12.705C51.8956 12.6205 51.8781 12.5301 51.8786 12.4388C51.8752 12.2607 51.9417 12.0884 52.0637 11.9588C52.1858 11.8291 52.3537 11.7523 52.5317 11.7449H57.4704C57.9602 11.7449 58.2868 12.0306 58.2868 12.398V12.4388C58.291 12.5937 58.2602 12.7476 58.1965 12.889C58.1329 13.0304 58.0382 13.1555 57.9194 13.2551L53.9602 17.7449H57.5929C57.7709 17.7415 57.9432 17.808 58.0729 17.93C58.2026 18.0521 58.2793 18.22 58.2868 18.398V18.4388C58.2816 18.6212 58.2069 18.7947 58.0778 18.9237C57.9488 19.0528 57.7753 19.1275 57.5929 19.1327H52.5725C52.3848 19.1493 52.1977 19.096 52.047 18.983C51.8963 18.87 51.7927 18.7052 51.7561 18.5204V18.4388Z" fill="#2C296C"/>
<path fill-rule="evenodd" clip-rule="evenodd" d="M59.2664 12.5204C59.2651 12.2997 59.3494 12.0871 59.5017 11.9272C59.6539 11.7674 59.8622 11.6728 60.0827 11.6633H60.1235C60.3505 11.6643 60.5679 11.755 60.7284 11.9155C60.8889 12.076 60.9796 12.2934 60.9806 12.5204V12.8878C61.2192 12.4875 61.5611 12.1587 61.9704 11.9361C62.3798 11.7135 62.8415 11.6051 63.3072 11.6225C64.9806 11.6225 65.9602 12.7245 65.9602 14.4796V18.398C65.9417 18.6224 65.8387 18.8315 65.672 18.983C65.5054 19.1345 65.2875 19.2171 65.0623 19.2143C64.8505 19.2 64.6511 19.1094 64.501 18.9593C64.3509 18.8092 64.2603 18.6097 64.2459 18.398V14.9694C64.2459 13.8265 63.6745 13.1735 62.6541 13.1735C61.6337 13.1735 60.9806 13.8673 60.9806 15.0102V18.398C60.9621 18.6224 60.8591 18.8315 60.6924 18.983C60.5258 19.1345 60.3079 19.2171 60.0827 19.2143C59.8709 19.2 59.6715 19.1094 59.5214 18.9593C59.3713 18.8092 59.2807 18.6097 59.2664 18.398V12.5204Z" fill="#2C296C"/>
<path fill-rule="evenodd" clip-rule="evenodd" d="M66.8582 15.5C66.8582 13.3776 68.3684 11.6225 70.4908 11.6225C72.8582 11.6225 74.001 13.5408 74.001 15.2551C74.0054 15.36 73.9887 15.4648 73.9518 15.5631C73.9149 15.6615 73.8586 15.7514 73.7862 15.8275C73.7139 15.9037 73.627 15.9645 73.5306 16.0064C73.4343 16.0483 73.3306 16.0704 73.2255 16.0714H68.5317C68.5734 16.5983 68.818 17.0884 69.2139 17.4386C69.6098 17.7888 70.1261 17.9718 70.6541 17.949C71.3011 17.9633 71.929 17.7297 72.4092 17.2959C72.5289 17.2071 72.6695 17.1509 72.8174 17.1327C72.9067 17.1325 72.9951 17.1506 73.0771 17.186C73.1591 17.2213 73.233 17.2731 73.2942 17.3381C73.3554 17.4032 73.4026 17.4801 73.4329 17.5641C73.4632 17.6481 73.476 17.7374 73.4704 17.8265C73.4711 17.9177 73.4534 18.0081 73.4183 18.0922C73.3833 18.1764 73.3316 18.2526 73.2663 18.3163C72.543 18.9754 71.5914 19.3267 70.6133 19.2959C68.5317 19.3367 66.899 17.7449 66.8582 15.5ZM72.3684 14.9286C72.2459 13.8265 71.5929 12.9694 70.4908 12.9694C69.4704 12.9694 68.7357 13.7857 68.5725 14.9286H72.3684Z" fill="#2C296C"/>
<path fill-rule="evenodd" clip-rule="evenodd" d="M75.3888 17.1327V13.2551H75.1031C74.9205 13.2591 74.7433 13.1934 74.6075 13.0713C74.4716 12.9493 74.3874 12.7802 74.3718 12.5983C74.3562 12.4163 74.4104 12.2353 74.5235 12.0919C74.6366 11.9486 74.8001 11.8537 74.9806 11.8265H75.348V10.602C75.3666 10.3776 75.4696 10.1685 75.6362 10.017C75.8028 9.86555 76.0207 9.78288 76.2459 9.78572C76.4577 9.80004 76.6571 9.89065 76.8072 10.0407C76.9573 10.1908 77.0479 10.3903 77.0623 10.602V11.8673H78.3684C78.4655 11.8527 78.5646 11.8582 78.6595 11.8834C78.7544 11.9086 78.8431 11.9529 78.9202 12.0138C78.9973 12.0746 79.0611 12.1506 79.1077 12.237C79.1543 12.3235 79.1826 12.4185 79.191 12.5164C79.1994 12.6142 79.1876 12.7127 79.1564 12.8058C79.1253 12.899 79.0753 12.9847 79.0097 13.0577C78.9441 13.1308 78.8642 13.1896 78.7749 13.2306C78.6857 13.2716 78.589 13.2938 78.4908 13.2959H77.1031V16.9286C77.0819 17.0566 77.0915 17.1879 77.1312 17.3115C77.1708 17.4351 77.2394 17.5474 77.3312 17.6392C77.423 17.731 77.5353 17.7996 77.6589 17.8393C77.7825 17.8789 77.9138 17.8886 78.0419 17.8673C78.1643 17.8673 78.3276 17.8265 78.45 17.8265C78.6389 17.8232 78.8215 17.8939 78.9589 18.0236C79.0962 18.1533 79.1773 18.3317 79.1847 18.5204C79.1849 18.662 79.1421 18.8002 79.0619 18.9168C78.9817 19.0335 78.868 19.123 78.7357 19.1735C78.3545 19.304 77.955 19.3728 77.5521 19.3776C76.2868 19.2959 75.3888 18.7245 75.3888 17.1327Z" fill="#2C296C"/>
<path fill-rule="evenodd" clip-rule="evenodd" d="M78.4092 9.62245C78.4092 9.40595 78.4952 9.19831 78.6483 9.04522C78.8014 8.89213 79.009 8.80612 79.2255 8.80612C79.3283 8.80272 79.4307 8.82044 79.5263 8.85821C79.6219 8.89598 79.7088 8.95298 79.7815 9.02568C79.8542 9.09838 79.9112 9.18524 79.949 9.28087C79.9867 9.3765 80.0045 9.47887 80.001 9.58163C80 9.68667 79.9779 9.79042 79.936 9.88674C79.8941 9.98306 79.8333 10.07 79.7572 10.1423C79.681 10.2147 79.5911 10.271 79.4928 10.3079C79.3944 10.3448 79.2897 10.3615 79.1847 10.3571C79.0843 10.3652 78.9833 10.352 78.8883 10.3185C78.7933 10.285 78.7064 10.2319 78.6333 10.1626C78.5601 10.0933 78.5024 10.0094 78.4638 9.91634C78.4252 9.82329 78.4066 9.72316 78.4092 9.62245ZM79.8786 9.62245C79.8797 9.53639 79.8636 9.45097 79.8311 9.37124C79.7987 9.29152 79.7506 9.21909 79.6898 9.15822C79.6289 9.09736 79.5565 9.0493 79.4767 9.01687C79.397 8.98444 79.3116 8.96829 79.2255 8.96939H79.1847C79.0084 8.97195 78.8394 9.04039 78.711 9.16124C78.5826 9.28209 78.5041 9.44661 78.4908 9.62245C78.4897 9.70852 78.5059 9.79393 78.5383 9.87366C78.5708 9.95339 78.6188 10.0258 78.6797 10.0867C78.7405 10.1475 78.813 10.1956 78.8927 10.228C78.9724 10.2605 79.0578 10.2766 79.1439 10.2755H79.1847C79.2737 10.2805 79.3628 10.2673 79.4465 10.2368C79.5303 10.2063 79.6069 10.159 79.6718 10.0979C79.7368 10.0368 79.7886 9.96318 79.8241 9.88144C79.8596 9.7997 79.8782 9.71158 79.8786 9.62245Z" fill="#2C296C"/>
<path fill-rule="evenodd" clip-rule="evenodd" d="M78.8582 9.25511C78.86 9.23407 78.8692 9.21436 78.8841 9.19943C78.8991 9.1845 78.9188 9.17531 78.9398 9.17347H79.2255C79.3123 9.18193 79.396 9.20983 79.4704 9.25511C79.5134 9.30011 79.5418 9.35699 79.5521 9.41837C79.5505 9.47039 79.5344 9.52094 79.5056 9.56424C79.4767 9.60755 79.4362 9.64186 79.3888 9.66327L79.5521 9.86735L79.5929 9.90816C79.591 9.9292 79.5818 9.94891 79.5669 9.96384C79.552 9.97877 79.5323 9.98796 79.5112 9.9898C79.4704 9.9898 79.4704 9.9898 79.4296 9.94898L79.2255 9.66327H79.0623V9.86735C79.0623 9.889 79.0537 9.90976 79.0384 9.92507C79.0231 9.94038 79.0023 9.94898 78.9806 9.94898C78.959 9.94898 78.9382 9.94038 78.9229 9.92507C78.9076 9.90976 78.899 9.889 78.899 9.86735L78.8582 9.25511ZM79.2663 9.58164C79.3888 9.58164 79.4296 9.54082 79.4296 9.45919C79.4296 9.37755 79.348 9.33674 79.2663 9.33674H79.0623V9.62245H79.2663V9.58164Z" fill="#2C296C"/>
</g>
<defs>
<linearGradient id="paint0_linear_1801_10063" x1="-0.959045" y1="20.6714" x2="79.3919" y2="20.6714" gradientUnits="userSpaceOnUse">
<stop offset="0.17" stop-color="#F5A31D"/>
<stop offset="0.26" stop-color="#F39A1F"/>
<stop offset="0.43" stop-color="#EF8522"/>
<stop offset="0.64" stop-color="#E95F24"/>
<stop offset="0.76" stop-color="#E64325"/>
</linearGradient>
<linearGradient id="paint1_linear_1801_10063" x1="83.4252" y1="37.0214" x2="57.0785" y2="-14.1162" gradientUnits="userSpaceOnUse">
<stop stop-color="#FBC311"/>
<stop offset="0.09" stop-color="#F9BA16"/>
<stop offset="0.26" stop-color="#F5A41D"/>
<stop offset="0.48" stop-color="#EF8022"/>
<stop offset="0.6" stop-color="#ED7823"/>
<stop offset="0.82" stop-color="#E95F24"/>
<stop offset="1" stop-color="#E64325"/>
</linearGradient>
<linearGradient id="paint2_linear_1801_10063" x1="39.8231" y1="-0.206636" x2="39.8231" y2="44.4576" gradientUnits="userSpaceOnUse">
<stop offset="0.17" stop-color="#F5A31D"/>
<stop offset="0.26" stop-color="#F39A1F"/>
<stop offset="0.43" stop-color="#EF8522"/>
<stop offset="0.64" stop-color="#E95F24"/>
<stop offset="0.76" stop-color="#E64325"/>
</linearGradient>
<radialGradient id="paint3_radial_1801_10063" cx="0" cy="0" r="1" gradientUnits="userSpaceOnUse" gradientTransform="translate(5.6663 38.812) scale(103.555 53.3782)">
<stop stop-color="#FBC311"/>
<stop offset="0.14" stop-color="#F9B717"/>
<stop offset="0.41" stop-color="#F3991F"/>
<stop offset="0.62" stop-color="#EF8022"/>
<stop offset="0.68" stop-color="#ED7423"/>
<stop offset="0.78" stop-color="#E75225"/>
<stop offset="0.82" stop-color="#E64325"/>
<stop offset="1" stop-color="#E64325"/>
</radialGradient>
<clipPath id="clip0_1801_10063">
<rect width="80.0015" height="41.2421" fill="white"/>
</clipPath>
</defs>
</svg>
