<svg width="80" height="34" viewBox="0 0 80 34" fill="none" xmlns="http://www.w3.org/2000/svg">
<g clip-path="url(#clip0_1801_10011)">
<path fill-rule="evenodd" clip-rule="evenodd" d="M39.4545 27.0145C38.1066 27.0145 36.8416 26.7615 35.6636 26.2556C34.4856 25.7496 33.446 25.0499 32.5764 24.1763C31.7067 23.3066 31.0031 22.267 30.4971 21.089C29.9911 19.9111 29.7381 18.6461 29.7381 17.2981C29.7381 15.9502 29.9911 14.6852 30.4971 13.5073C31.0031 12.3293 31.7028 11.2897 32.5764 10.3884C33.446 9.51872 34.4856 8.8151 35.6636 8.28145C36.8416 7.77547 38.1342 7.49481 39.4545 7.49481C40.3795 7.49481 41.2531 7.60549 42.0951 7.85848C42.9094 8.0838 43.696 8.4198 44.455 8.87044L45.0993 9.23411L44.708 9.85077C44.5104 10.1591 44.3167 10.4398 44.119 10.7204C43.9214 11.0011 43.7277 11.2541 43.5577 11.5347L43.194 12.0961L42.605 11.7601C42.1267 11.4794 41.6207 11.2817 41.1187 11.1157C40.6127 10.9734 40.0791 10.8904 39.4901 10.8904C38.6481 10.8904 37.8338 11.0604 37.0748 11.3964C36.3159 11.7324 35.6715 12.183 35.1102 12.772C34.5489 13.361 34.0983 14.037 33.7623 14.8236C33.4263 15.5826 33.2839 16.4245 33.2839 17.2665C33.2839 18.1085 33.4539 18.9505 33.7623 19.7095C34.0983 20.4684 34.5489 21.1404 35.1102 21.7294C35.6715 22.2907 36.3475 22.7414 37.1025 23.0774C37.8338 23.4134 38.6481 23.5834 39.5178 23.5834C40.6404 23.5834 41.68 23.3027 42.605 22.7414L43.1663 22.4054L45.1033 25.2713L44.4313 25.6626C43.7 26.0856 42.945 26.4216 42.1307 26.6469C41.261 26.8999 40.3597 27.0106 39.4624 27.0106L39.4545 27.0145Z" fill="#39393B"/>
<path fill-rule="evenodd" clip-rule="evenodd" d="M47.9613 26.8169V7.69246H53.2978C54.1674 7.69246 54.9817 7.77547 55.7407 7.97312C56.4997 8.17076 57.1717 8.4791 57.733 8.87044C58.2943 9.29341 58.745 9.85472 59.081 10.5267C59.3893 11.1711 59.5593 11.9577 59.5593 12.8274C59.5593 14.0053 59.2786 15.045 58.7173 15.9739C58.4366 16.4245 58.073 16.8159 57.65 17.1242C58.1283 17.4049 58.575 17.7409 58.9426 18.1362C59.334 18.5591 59.6462 19.0612 59.8676 19.6225C60.0929 20.1838 60.2313 20.8281 60.2313 21.5318C60.2313 22.4014 60.0336 23.1881 59.67 23.864C59.3063 24.5083 58.8003 25.0697 58.1836 25.5203C57.5946 25.9433 56.891 26.2793 56.1321 26.4769C55.3731 26.6746 54.6141 26.7853 53.8275 26.7853H47.9573V26.8129L47.9613 26.8169ZM53.5784 23.3897C54.0291 23.3897 54.4758 23.3343 54.8711 23.2474C55.2347 23.1643 55.5747 22.9944 55.8277 22.8244C56.0807 22.6267 56.2783 22.433 56.4443 22.1524C56.5866 21.8994 56.642 21.6187 56.642 21.2551C56.642 20.8637 56.559 20.5238 56.389 20.2708C56.219 19.9624 55.966 19.7371 55.6854 19.5395C55.377 19.3418 55.0134 19.2035 54.5904 19.0888C54.1398 18.9782 53.6654 18.9189 53.2148 18.9189H51.4755V23.4134H53.5824V23.3857L53.5784 23.3897ZM53.5231 15.4719C54.3374 15.4719 54.9541 15.2742 55.4047 14.8275C55.8553 14.4046 56.049 13.8433 56.049 13.1436C56.049 12.3846 55.8514 11.8786 55.4601 11.598C54.9817 11.262 54.3097 11.092 53.4954 11.092H51.5308V15.4442H53.5231V15.4719Z" fill="#39393B"/>
<path fill-rule="evenodd" clip-rule="evenodd" d="M78.7667 27.4059C76.6044 25.1052 74.4422 22.8007 72.3076 20.5277C70.4536 18.5354 68.572 16.5392 66.6627 14.5469V26.8169H63.1525V5.78318L64.3898 7.13114C66.5521 9.49105 68.7143 11.8193 70.8489 14.1516C72.7029 16.1716 74.5845 18.1955 76.4937 20.2747V7.69641H80.004V28.6985L78.7667 27.4059Z" fill="#39393B"/>
<path fill-rule="evenodd" clip-rule="evenodd" d="M23.7573 20.8914C23.0537 20.8914 22.437 21.089 21.931 21.5081L21.7887 21.6187L18.8398 24.5676C17.1559 25.9156 14.7406 25.8049 13.1673 24.2593C11.8194 22.9114 11.5664 20.8598 12.4084 19.2628L16.0886 15.5272C17.1282 14.3769 17.7449 12.859 17.7449 11.2027C17.7449 7.63711 14.8513 4.74355 11.2857 4.74355C9.74012 4.74355 8.33681 5.2772 7.21417 6.17452L6.93351 6.39984C4.32061 8.87044 2.63665 12.2977 2.63665 16.1716C2.63665 23.698 8.72816 29.7618 16.2269 29.7618C20.2155 29.7618 23.781 28.0779 26.2516 25.3543L26.2793 25.2989C26.5323 24.876 26.643 24.3739 26.643 23.8126C26.6983 22.2117 25.378 20.8914 23.7494 20.8914H23.7573Z" fill="#0065B2"/>
<path fill-rule="evenodd" clip-rule="evenodd" d="M18.7094 24.6744C17.0333 25.9116 14.7011 25.7654 13.1713 24.2633C11.8233 22.9153 11.5703 20.8637 12.4123 19.2667C10.1828 21.0693 8.47517 23.5992 10.9576 26.2279C12.5388 27.9039 15.2071 27.983 16.8831 26.3979L18.7094 24.6744Z" fill="#004070"/>
<path fill-rule="evenodd" clip-rule="evenodd" d="M5.92549 2.94891C5.92549 4.57753 4.6052 5.89782 2.97658 5.89782C1.32029 5.92549 0 4.6052 0 2.94891C0 1.29262 1.32029 0 2.94891 0C4.57753 0 5.92549 1.32029 5.92549 2.94891Z" fill="#0065B2"/>
<path fill-rule="evenodd" clip-rule="evenodd" d="M19.9071 33.0784C20.5238 33.189 18.8952 33.7227 16.2585 33.695C13.618 33.695 11.9893 33.1337 12.6376 32.9637C13.282 32.7937 14.8829 32.9084 16.2862 32.9637C17.6895 33.0191 19.2905 32.9361 19.9071 33.0744V33.0784Z" fill="#CCCCCC"/>
</g>
<defs>
<clipPath id="clip0_1801_10011">
<rect width="80.004" height="33.6961" fill="white"/>
</clipPath>
</defs>
</svg>
