<svg width="80" height="38" viewBox="0 0 80 38" fill="none" xmlns="http://www.w3.org/2000/svg">
<g clip-path="url(#clip0_1801_10503)">
<path d="M34.7744 29.7956L34.135 27.3886V29.9963C34.135 30.1413 34.0978 30.2491 34.0309 30.3216C33.9621 30.3923 33.871 30.4294 33.7614 30.4294C33.6517 30.4294 33.5625 30.3923 33.4937 30.3235C33.4249 30.251 33.3896 30.1413 33.3896 29.9963V27.0075C33.3896 26.8421 33.4342 26.7325 33.5253 26.6748C33.6164 26.6172 33.7391 26.5875 33.8952 26.5875H34.1461C34.2948 26.5875 34.4045 26.6005 34.4732 26.6284C34.542 26.6525 34.5903 26.699 34.6238 26.7659C34.6591 26.8328 34.6944 26.9425 34.7353 27.093L35.3171 29.1618L35.897 27.093C35.9398 26.9425 35.9769 26.8328 36.0085 26.7659C36.042 26.699 36.094 26.6525 36.1591 26.6284C36.2297 26.6005 36.3375 26.5875 36.4881 26.5875H36.739C36.8951 26.5875 37.016 26.6172 37.1089 26.6748C37.1981 26.7325 37.2446 26.8421 37.2446 27.0075V29.9963C37.2446 30.1413 37.2093 30.2491 37.1423 30.3216C37.0736 30.3923 36.9825 30.4294 36.8673 30.4294C36.7613 30.4294 36.674 30.3923 36.6033 30.3216C36.5345 30.2491 36.5029 30.1413 36.5029 29.9963V27.3886L35.8598 29.7956C35.8171 29.9517 35.7855 30.067 35.7576 30.1413C35.7316 30.2138 35.6833 30.2789 35.6126 30.3383C35.542 30.3997 35.4435 30.4294 35.3171 30.4294C35.2223 30.4294 35.1442 30.4108 35.0773 30.3718C35.0123 30.3328 34.9621 30.2826 34.923 30.2231C34.8877 30.1636 34.8599 30.0967 34.8376 30.0261C34.8171 29.9499 34.7948 29.8755 34.7744 29.7956Z" fill="black"/>
<path d="M40.2358 27.2029H38.4105V28.1304H40.0926C40.2135 28.1304 40.3082 28.1583 40.3677 28.2103C40.4291 28.2624 40.4588 28.3311 40.4588 28.4185C40.4588 28.504 40.4291 28.5728 40.3696 28.6267C40.3082 28.6806 40.2172 28.7085 40.0926 28.7085H38.4105V29.7846H40.2971C40.4253 29.7846 40.5201 29.8125 40.5852 29.8683C40.6502 29.924 40.6837 29.9984 40.6837 30.0895C40.6837 30.1805 40.6502 30.253 40.5852 30.3069C40.5201 30.3627 40.4253 30.3906 40.2971 30.3906H38.0982C37.9217 30.3906 37.7971 30.3534 37.7209 30.2809C37.6429 30.2084 37.6038 30.0876 37.6038 29.9222V27.0839C37.6038 26.9724 37.6206 26.8832 37.6559 26.8126C37.6912 26.7438 37.7432 26.6936 37.8176 26.6602C37.8919 26.6286 37.9849 26.6118 38.0982 26.6118H40.2358C40.3659 26.6118 40.4625 26.6397 40.522 26.6955C40.5852 26.7494 40.6168 26.82 40.6168 26.9074C40.6168 26.9984 40.5852 27.0672 40.522 27.1211C40.4625 27.1769 40.3659 27.2029 40.2358 27.2029Z" fill="black"/>
<path d="M41.6878 26.612H42.7194C42.9907 26.612 43.2175 26.638 43.4108 26.6864C43.6023 26.7347 43.777 26.8239 43.935 26.9559C44.342 27.2923 44.5428 27.8072 44.5428 28.493C44.5428 28.7198 44.5223 28.9261 44.4833 29.1157C44.4424 29.3016 44.3773 29.4707 44.2918 29.6213C44.2082 29.7699 44.1004 29.9056 43.9666 30.0246C43.8606 30.1138 43.7472 30.1863 43.6227 30.2421C43.4982 30.2978 43.3662 30.3369 43.2212 30.3573C43.0781 30.3815 42.9164 30.3908 42.738 30.3908H41.7045C41.5633 30.3908 41.4517 30.3685 41.383 30.3257C41.3086 30.2867 41.2603 30.2253 41.238 30.151C41.2157 30.0729 41.2045 29.9725 41.2045 29.8536V27.0841C41.2045 26.9168 41.2417 26.7979 41.3179 26.7235C41.3941 26.651 41.5187 26.612 41.6878 26.612ZM41.9926 27.2179V29.7848H42.5948C42.7268 29.7848 42.8309 29.7811 42.9034 29.7755C42.9796 29.7681 43.0558 29.7514 43.1376 29.7216C43.2157 29.6937 43.2863 29.6584 43.3439 29.6082C43.6116 29.3889 43.7435 29.019 43.7435 28.4893C43.7435 28.1157 43.684 27.835 43.5688 27.6492C43.4517 27.4633 43.3067 27.3462 43.1376 27.2942C42.9647 27.244 42.7584 27.2179 42.5168 27.2179H41.9926Z" fill="black"/>
<path d="M45.0949 29.9621V26.9864C45.0949 26.8339 45.134 26.715 45.2046 26.6388C45.2808 26.5607 45.3774 26.5217 45.4927 26.5217C45.6154 26.5217 45.7157 26.5607 45.7901 26.6388C45.8644 26.7131 45.9035 26.8321 45.9035 26.9864V29.9621C45.9035 30.1183 45.8644 30.2354 45.7901 30.3116C45.7157 30.3897 45.6154 30.4287 45.4927 30.4287C45.3793 30.4287 45.2826 30.3897 45.2083 30.3097C45.134 30.2354 45.0949 30.1164 45.0949 29.9621Z" fill="black"/>
<path d="M49.1078 29.9363L48.9201 29.4605H47.3179L47.1302 29.9475C47.0558 30.1352 46.9964 30.2634 46.9406 30.3303C46.8886 30.3935 46.8049 30.4289 46.686 30.4289C46.5856 30.4289 46.4964 30.3917 46.4202 30.3229C46.3421 30.2504 46.3049 30.1724 46.3049 30.0831C46.3049 30.0311 46.3124 29.9791 46.3309 29.9251C46.3495 29.8694 46.3774 29.7913 46.4202 29.6947L47.4294 27.2412C47.4555 27.1705 47.4908 27.085 47.5317 26.9865C47.5707 26.888 47.6153 26.8081 47.6599 26.743C47.7064 26.6743 47.7659 26.6241 47.8421 26.5832C47.9127 26.5423 48.0075 26.5219 48.1172 26.5219C48.2268 26.5219 48.3216 26.5423 48.3923 26.5832C48.4703 26.6241 48.5279 26.6743 48.5744 26.7393C48.6209 26.8007 48.6599 26.8713 48.6878 26.9438C48.7212 27.0181 48.7621 27.1148 48.8086 27.2356L49.8402 29.6742C49.9201 29.8582 49.961 29.9921 49.961 30.0776C49.961 30.1668 49.922 30.2448 49.8458 30.3192C49.7714 30.3917 49.6785 30.4289 49.5725 30.4289C49.5075 30.4289 49.4536 30.4177 49.409 30.3954C49.3644 30.375 49.3253 30.3452 49.2974 30.3099C49.2658 30.2709 49.2342 30.2151 49.1989 30.1389C49.1618 30.0627 49.1357 29.9921 49.1078 29.9363ZM47.5261 28.8861H48.7064L48.1097 27.3285L47.5261 28.8861Z" fill="black"/>
<path d="M5.9653 0H24.1509V6.03522H13.5786V9.03889H21.1621V14.3604H13.5786V30.4121H5.9653V0Z" fill="#006FBA"/>
<path d="M33.3115 0.0319775H38.54C41.4006 -0.0107728 43.4359 0.230858 44.6533 0.714122C45.8652 1.19553 46.8429 1.99663 47.5845 3.11929C48.3205 4.24009 48.6923 5.70661 48.6923 7.23818C48.6923 8.84596 48.2834 10.1917 47.4674 11.2753C46.657 12.3589 45.5474 13.1303 43.9061 13.6823L50.1235 21.251L45.6589 24.4814L38.1887 14.2436H38.5995V24.3383H33.3115V0.0319775ZM38.6069 9.71026H39.7538C41.343 9.71026 42.4359 9.5151 43.0325 9.12477C43.631 8.73258 43.9303 8.08575 43.9303 7.1787C43.9303 6.6434 43.7853 6.17314 43.4879 5.7791C43.1887 5.38133 42.7928 5.09695 42.2946 4.92409C41.7983 4.75123 40.8857 4.66387 39.5586 4.66387H38.6069V9.71026Z" fill="#F7901E"/>
<path d="M62.9835 0.00186467L79.9999 0.00372235V6.00363L74.3011 5.99991L74.3104 30.3824H68.4388L68.4239 5.99991L62.9798 5.99433L62.9835 0.00186467Z" fill="#00A851"/>
<path d="M25.7341 9.17215H31.8009V30.3428H25.7341V9.17215Z" fill="#CC1543"/>
<path d="M31.7844 4.66627C31.7844 6.35397 30.4164 7.72384 28.7269 7.72384C27.0392 7.72384 25.6693 6.35397 25.6693 4.66627C25.6693 2.9767 27.0392 1.6087 28.7269 1.6087C30.4164 1.6087 31.7844 2.9767 31.7844 4.66627Z" fill="#CC1543"/>
<path d="M0 36.5267C0 36.5267 39.3377 30.0937 79.2366 37.9709C79.2366 37.9709 40.1332 25.473 0 36.5267Z" fill="#006FBA"/>
<path d="M61.6908 16.8034C57.7708 13.8184 56.2633 12.35 56.2633 12.35C56.2633 12.35 55.5645 11.5229 56.4362 10.8091C57.3098 10.0935 60.5848 11.4597 61.4603 13.1492L65.687 9.95225C65.687 9.95225 61.9064 4.9895 56.9938 5.35009C51.9251 5.72741 50.769 8.91695 50.3936 9.91693C50.0181 10.9188 49.1259 13.7775 53.6444 17.5488C57.6369 20.8796 61.3172 22.9427 59.6908 24.5691C58.0644 26.1955 54.44 24.7996 53.5218 22.0524L49.1854 25.4241C49.1854 25.4241 50.8415 30.9073 58.0923 30.9073C58.0923 30.9073 58.8618 30.9092 59.7782 30.6805C59.7782 30.6805 65.6294 29.5932 65.858 23.8275C65.858 23.8275 66.371 20.2885 61.6908 16.8034Z" fill="#006FBA"/>
</g>
<defs>
<clipPath id="clip0_1801_10503">
<rect width="79.9999" height="37.9709" fill="white"/>
</clipPath>
</defs>
</svg>
