<svg width="80" height="15" viewBox="0 0 80 15" fill="none" xmlns="http://www.w3.org/2000/svg">
<g clip-path="url(#clip0_1801_10477)">
<path d="M0 12.7864C0 13.4976 0.56237 14.06 1.27361 14.06C1.98484 14.06 2.54721 13.4976 2.54721 12.7864V3.55687C2.54721 2.84563 1.98484 2.28326 1.27361 2.28326C0.56237 2.28326 0 2.84563 0 3.55687V12.7864Z" fill="#ED3123"/>
<path d="M4.71359 12.8029C4.71359 13.4976 5.27599 14.06 5.97068 14.06C6.66538 14.06 7.22774 13.4976 7.22774 12.8029V9.01518C7.22774 7.82427 7.83974 7.21228 8.79908 7.21228C9.75842 7.21228 10.3208 7.82427 10.3208 9.01518V12.8029C10.3208 13.4976 10.8832 14.06 11.5778 14.06C12.2726 14.06 12.8349 13.4976 12.8349 12.8029V8.22124C12.8349 6.18678 11.7267 4.92971 9.82458 4.92971C8.55096 4.92971 7.80665 5.60787 7.22774 6.35218V6.25294C7.22774 5.55825 6.66538 4.99587 5.97068 4.99587C5.27599 4.99587 4.71359 5.55825 4.71359 6.25294V12.8029Z" fill="#ED3123"/>
<path d="M23.4522 3.04411C23.4522 2.34942 22.8899 1.78705 22.1952 1.78705C21.5005 1.78705 20.9381 2.34942 20.9381 3.04411V6.25294C20.3426 5.54171 19.5156 4.92971 18.1759 4.92971C16.0752 4.92971 14.14 6.55067 14.14 9.51139V9.54447C14.14 12.5052 16.1083 14.1261 18.1759 14.1261C19.4825 14.1261 20.3261 13.5141 20.9381 12.6871V12.8029C20.9381 13.4976 21.5005 14.06 22.1952 14.06C22.8899 14.06 23.4522 13.4976 23.4522 12.8029V3.04411ZM18.8209 7.06342C19.9953 7.06342 20.9712 8.0393 20.9712 9.51139V9.54447C20.9712 11.0166 19.9953 11.9924 18.8209 11.9924C17.6466 11.9924 16.6541 11.0166 16.6541 9.54447V9.51139C16.6541 8.02276 17.6466 7.06342 18.8209 7.06342Z" fill="#ED3123"/>
<path d="M25.2473 3.01103C25.2473 3.73881 25.8593 4.20194 26.6533 4.20194C27.4472 4.20194 28.0592 3.73881 28.0592 3.01103V2.97795C28.0592 2.25018 27.4472 1.80359 26.6533 1.80359C25.8593 1.80359 25.2473 2.25018 25.2473 2.97795V3.01103ZM25.3962 12.8029C25.3962 13.4976 25.9586 14.06 26.6533 14.06C27.348 14.06 27.9103 13.4976 27.9103 12.8029V6.25294C27.9103 5.55825 27.348 4.99587 26.6533 4.99587C25.9586 4.99587 25.3962 5.55825 25.3962 6.25294V12.8029Z" fill="#ED3123"/>
<path d="M30.035 12.7864C30.035 13.4976 30.5974 14.06 31.3086 14.06C32.0198 14.06 32.5822 13.4976 32.5822 12.7864V9.3129H37.2797V12.7864C37.2797 13.4976 37.842 14.06 38.5533 14.06C39.2645 14.06 39.8269 13.4976 39.8269 12.7864V3.55687C39.8269 2.84563 39.2645 2.28326 38.5533 2.28326C37.842 2.28326 37.2797 2.84563 37.2797 3.55687V6.96417H32.5822V3.55687C32.5822 2.84563 32.0198 2.28326 31.3086 2.28326C30.5974 2.28326 30.035 2.84563 30.035 3.55687V12.7864Z" fill="#808285"/>
<path d="M56.5622 12.8029C56.5622 13.4976 57.1245 14.06 57.8192 14.06C58.5139 14.06 59.0763 13.4976 59.0763 12.8029V9.01518C59.0763 7.82427 59.6552 7.21228 60.598 7.21228C61.5408 7.21228 62.0701 7.82427 62.0701 9.01518V12.8029C62.0701 13.4976 62.6325 14.06 63.3272 14.06C64.0219 14.06 64.5842 13.4976 64.5842 12.8029V9.01518C64.5842 7.82427 65.1632 7.21228 66.106 7.21228C67.0488 7.21228 67.578 7.82427 67.578 9.01518V12.8029C67.578 13.4976 68.1404 14.06 68.8351 14.06C69.5298 14.06 70.0922 13.4976 70.0922 12.8029V8.18816C70.0922 6.05446 68.9674 4.92971 67.0984 4.92971C65.8909 4.92971 64.9647 5.42592 64.1873 6.33564C63.7241 5.44246 62.8475 4.92971 61.6897 4.92971C60.4161 4.92971 59.6552 5.60787 59.0763 6.35218V6.25294C59.0763 5.55825 58.5139 4.99587 57.8192 4.99587C57.1245 4.99587 56.5622 5.55825 56.5622 6.25294V12.8029Z" fill="#808285"/>
<path d="M73.8139 8.83323C74.0124 7.69195 74.6906 6.94764 75.7326 6.94764C76.7912 6.94764 77.4528 7.70849 77.6017 8.83323H73.8139ZM79.0572 13.0841C79.2392 12.9187 79.388 12.6706 79.388 12.3398C79.388 11.7774 78.9745 11.3474 78.4121 11.3474C78.1475 11.3474 77.9821 11.4135 77.8002 11.5458C77.2874 11.9263 76.7085 12.1413 76.0138 12.1413C74.8891 12.1413 74.0951 11.5458 73.847 10.4046H78.8257C79.4873 10.4046 80 9.9249 80 9.19712C80 7.36114 78.6933 4.92971 75.7326 4.92971C73.1523 4.92971 71.3494 7.0138 71.3494 9.54447V9.57755C71.3494 12.2902 73.3177 14.1592 75.9807 14.1592C77.2709 14.1592 78.2798 13.7457 79.0572 13.0841Z" fill="#808285"/>
<path fill-rule="evenodd" clip-rule="evenodd" d="M44.4133 0C43.3233 0 42.4397 0.883666 42.4396 1.97372C42.4396 2.72587 42.867 3.41268 43.5418 3.74481L41.2206 5.07811C40.7651 5.33981 40.7263 5.84727 40.9362 6.22336C41.1461 6.59945 41.6592 6.75037 42.0518 6.52488L47.9743 3.12283L53.8968 6.52488C54.3523 6.78655 54.8101 6.56432 55.0295 6.19369C55.2489 5.82307 55.1205 5.3036 54.728 5.07811L48.5304 1.518C48.3325 1.40434 48.1744 1.33542 48.0048 1.32995C47.8352 1.32448 47.6542 1.38243 47.4106 1.52236L46.3822 2.11317C46.3855 2.06676 46.3871 2.02025 46.3871 1.97372C46.387 0.883666 45.5034 0 44.4133 0ZM47.9743 3.62061L42.2911 6.90166V13.0223C42.2911 13.5651 42.7281 14.0021 43.2709 14.0021H52.891C53.4338 14.0021 53.871 13.5651 53.871 13.0223V6.97021L47.9743 3.62061Z" fill="#ED3123"/>
<path d="M48.004 4.82687C45.3789 4.82687 43.4101 6.80788 43.4101 9.25065C43.4101 11.7177 45.3546 13.6744 47.9797 13.6744C50.6047 13.6744 52.5734 11.6934 52.5734 9.25065C52.5734 6.78358 50.629 4.82687 48.004 4.82687ZM47.9741 7.0396C49.2245 7.0396 50.0776 8.06788 50.0776 9.24814C50.0776 10.4518 49.248 11.4567 47.9976 11.4567C46.7589 11.4567 45.9057 10.4284 45.9057 9.24814C45.9057 8.04451 46.7355 7.0396 47.9741 7.0396Z" fill="white"/>
<path fill-rule="evenodd" clip-rule="evenodd" d="M44.2196 2.42961C44.1067 2.42961 44.0159 2.52041 44.0159 2.63325V5.40813L44.804 4.95308V2.63325C44.804 2.52041 44.7132 2.42961 44.6004 2.42961H44.2196ZM43.5002 0.975598C43.2891 1.1855 43.1781 1.48791 43.1781 1.80692C43.1781 2.12593 43.297 2.42073 43.5002 2.63824C43.5593 2.70144 43.6703 2.76802 43.764 2.70059C43.8345 2.64989 43.8597 2.55552 43.7265 2.41349C43.5795 2.25674 43.4999 2.0397 43.4999 1.80692C43.4999 1.57414 43.5795 1.35711 43.7265 1.20036C43.8597 1.05832 43.8367 0.960808 43.764 0.913249C43.6693 0.851226 43.5671 0.909061 43.5002 0.975598ZM43.9164 1.29606C43.7626 1.43421 43.7064 1.63677 43.7064 1.80692C43.7064 1.97708 43.7716 2.17022 43.9164 2.31778C43.9814 2.38407 44.0795 2.42035 44.1624 2.32767C44.2256 2.25718 44.1826 2.18045 44.1001 2.09436C44.0369 2.02841 43.9955 1.92623 43.9955 1.80692C43.9955 1.68761 44.0369 1.58543 44.1001 1.51948C44.1826 1.43339 44.2279 1.35446 44.1624 1.28617C44.0784 1.19853 43.9878 1.23187 43.9164 1.29606ZM44.5965 1.81144C44.5965 1.90648 44.5194 1.98353 44.4244 1.98353C44.3294 1.98353 44.2523 1.90648 44.2523 1.81144C44.2523 1.7164 44.3294 1.63936 44.4244 1.63936C44.5194 1.63936 44.5965 1.7164 44.5965 1.81144ZM45.3464 0.975633C45.5575 1.18554 45.6685 1.48795 45.6685 1.80696C45.6685 2.12597 45.5497 2.42076 45.3464 2.63828C45.2873 2.70148 45.1763 2.76806 45.0826 2.70063C45.0121 2.64992 44.987 2.55555 45.1201 2.41352C45.2671 2.25677 45.3467 2.03974 45.3467 1.80696C45.3467 1.57418 45.2671 1.35714 45.1201 1.20039C44.987 1.05836 45.0099 0.960843 45.0826 0.913284C45.1773 0.851261 45.2795 0.909096 45.3464 0.975633ZM44.9302 1.2961C45.084 1.43425 45.1402 1.6368 45.1402 1.80696C45.1402 1.97711 45.075 2.17026 44.9302 2.31782C44.8652 2.38411 44.7672 2.42038 44.6842 2.32771C44.6211 2.25721 44.664 2.18049 44.7465 2.0944C44.8097 2.02844 44.8511 1.92627 44.8511 1.80696C44.8511 1.68764 44.8097 1.58547 44.7465 1.51951C44.664 1.43342 44.6187 1.3545 44.6842 1.28621C44.7682 1.19857 44.8588 1.23191 44.9302 1.2961Z" fill="white"/>
</g>
<defs>
<clipPath id="clip0_1801_10477">
<rect width="80" height="14.1592" fill="white"/>
</clipPath>
</defs>
</svg>
