<svg width="80" height="13" viewBox="0 0 80 13" fill="none" xmlns="http://www.w3.org/2000/svg">
<g clip-path="url(#clip0_1801_9958)">
<path d="M78.769 11.4805H78.9153V12.2085L78.769 12.2085V11.4805Z" fill="white"/>
<path d="M0.033258 11.4997H0.742794V12.2085H0.033258V11.4997Z" fill="white"/>
<path d="M0.777538 11.4997H1.48707V12.2085H0.777538V11.4997Z" fill="#FCFAF5"/>
<path d="M1.52181 11.4997H2.23134V12.2085H1.52181V11.4997Z" fill="#F7F4ED"/>
<path d="M2.26683 11.4997H2.97637V12.2085H2.26683V11.4997Z" fill="#F5F1E7"/>
<path d="M3.0111 11.4997H3.72064V12.2085H3.0111V11.4997Z" fill="#F2ECE0"/>
<path d="M3.75538 11.4997H4.46492V12.2085H3.75538V11.4997Z" fill="#EFEADB"/>
<path d="M4.50038 11.4997H5.20992V12.2085H4.50038V11.4997Z" fill="#EDE7D5"/>
<path d="M5.24466 11.4997H5.9542V12.2085H5.24466V11.4997Z" fill="#EBE3D1"/>
<path d="M5.98893 11.4997H6.69847V12.2085H5.98893V11.4997Z" fill="#E9E1CB"/>
<path d="M6.73394 11.4997H7.44348V12.2085H6.73394V11.4997Z" fill="#E8DEC6"/>
<path d="M7.47822 11.4997H8.18777V12.2085H7.47822V11.4997Z" fill="#E6DCC0"/>
<path d="M8.22249 11.4997H8.93203V12.2085H8.22249V11.4997Z" fill="#E5DABC"/>
<path d="M8.96751 11.4997H9.67705V12.2085H8.96751V11.4997Z" fill="#E2D6B7"/>
<path d="M9.71179 11.4997H10.4213V12.2085H9.71179V11.4997Z" fill="#E0D4B2"/>
<path d="M10.4561 11.4997H11.1656V12.2085H10.4561V11.4997Z" fill="#DFD1AD"/>
<path d="M11.2011 11.4997H11.9106V12.2085H11.2011V11.4997Z" fill="#DDCEA9"/>
<path d="M11.9454 11.4997H12.6549V12.2085H11.9454V11.4997Z" fill="#DBCDA5"/>
<path d="M12.6896 11.4997H13.3992V12.2085H12.6896V11.4997Z" fill="#DACAA0"/>
<path d="M13.4346 11.4997H14.1442V12.2085H13.4346V11.4997Z" fill="#D7C89C"/>
<path d="M14.1789 11.4997H14.8885V12.2085H14.1789V11.4997Z" fill="#D6C597"/>
<path d="M14.9232 11.4997H15.6327V12.2085H14.9232V11.4997Z" fill="#D4C493"/>
<path d="M15.6682 11.4997H16.3777V12.2085H15.6682V11.4997Z" fill="#D3C08E"/>
<path d="M16.4125 11.4997H17.122V12.2085H16.4125V11.4997Z" fill="#D2BE8A"/>
<path d="M17.1567 11.4997H17.8663V12.2085H17.1567V11.4997Z" fill="#D0BC86"/>
<path d="M17.9018 11.4997H18.6113V12.2085H17.9018V11.4997Z" fill="#CEBA82"/>
<path d="M18.646 11.4997H19.3556V12.2085H18.646V11.4997Z" fill="#CDB87E"/>
<path d="M19.3903 11.4997H20.0999V12.2085H19.3903V11.4997Z" fill="#CAB67A"/>
<path d="M20.1353 11.4997H20.8449V12.2085H20.1353V11.4997Z" fill="#CAB577"/>
<path d="M20.8796 11.4997H21.5891V12.2085H20.8796V11.4997Z" fill="#C9B273"/>
<path d="M21.6239 11.4997H22.3334V12.2085H21.6239V11.4997Z" fill="#C7B070"/>
<path d="M22.3689 11.4997H23.0784V12.2085H22.3689V11.4997Z" fill="#C6AE6B"/>
<path d="M23.1132 11.4997H23.8227V12.2085H23.1132V11.4997Z" fill="#C4AC68"/>
<path d="M23.8574 11.4997H24.567V12.2085H23.8574V11.4997Z" fill="#C3AA64"/>
<path d="M24.6025 11.4997H25.312V12.2085H24.6025V11.4997Z" fill="#C0A861"/>
<path d="M25.3467 11.4997H26.0563V12.2085H25.3467V11.4997Z" fill="#C0A65D"/>
<path d="M26.091 11.4997H26.8006V12.2085H26.091V11.4997Z" fill="#BDA559"/>
<path d="M26.836 11.4997H27.5456V12.2085H26.836V11.4997Z" fill="#BCA355"/>
<path d="M27.5803 11.4997H28.2898V12.2085H27.5803V11.4997Z" fill="#BBA052"/>
<path d="M28.3246 11.4997H29.0341V12.2085H28.3246V11.4997Z" fill="#B99E4E"/>
<path d="M29.0696 11.4997H29.7791V12.2085H29.0696V11.4997Z" fill="#B89C4B"/>
<path d="M29.8139 11.4997H30.5234V12.2085H29.8139V11.4997Z" fill="#B69A47"/>
<path d="M30.5581 11.4997H31.2677V12.2085H30.5581V11.4997Z" fill="#B59943"/>
<path d="M31.3032 11.4997H32.0127V12.2085H31.3032V11.4997Z" fill="#B3973F"/>
<path d="M32.0474 11.4997H32.757V12.2085H32.0474V11.4997Z" fill="#B2953C"/>
<path d="M32.7917 11.4997H33.5012V12.2085H32.7917V11.4997Z" fill="#B09338"/>
<path d="M33.5367 11.4997H34.2463V12.2085H33.5367V11.4997Z" fill="#AE9234"/>
<path d="M34.281 11.4997H34.9905V12.2085H34.281V11.4997Z" fill="#AD8F31"/>
<path d="M35.0253 11.4997H35.7348V12.2085H35.0253V11.4997Z" fill="#AC8E2E"/>
<path d="M35.7703 11.4997H36.4798V12.2085H35.7703V11.4997Z" fill="#AA8C2B"/>
<path d="M36.5145 11.4997H37.2241V12.2085H36.5145V11.4997Z" fill="#A98A28"/>
<path d="M37.2588 11.4997H37.9684V12.2085H37.2588V11.4997Z" fill="#A88824"/>
<path d="M38.0039 11.4997H38.7134V12.2085H38.0039V11.4997Z" fill="#A68722"/>
<path d="M38.7481 11.4997H39.4577L39.4577 12.2085L38.7481 12.2085V11.4997Z" fill="#A58520"/>
<path d="M39.4909 11.4997H40.2005V12.2085H39.4909V11.4997Z" fill="#A58520"/>
<path d="M40.2352 11.4997H40.9447V12.2085H40.2352V11.4997Z" fill="#A68722"/>
<path d="M40.9802 11.4997H41.6897V12.2085H40.9802V11.4997Z" fill="#A88824"/>
<path d="M41.7245 11.4997H42.434V12.2085H41.7245V11.4997Z" fill="#A98A28"/>
<path d="M42.4688 11.4997H43.1783V12.2085H42.4688V11.4997Z" fill="#AA8C2B"/>
<path d="M43.2138 11.4997H43.9233V12.2085H43.2138V11.4997Z" fill="#AC8E2E"/>
<path d="M43.9581 11.4997H44.6676V12.2085H43.9581V11.4997Z" fill="#AD8F31"/>
<path d="M44.7023 11.4997H45.4119V12.2085H44.7023V11.4997Z" fill="#AE9234"/>
<path d="M45.4473 11.4997H46.1569V12.2085H45.4473V11.4997Z" fill="#B09338"/>
<path d="M46.1916 11.4997H46.9011V12.2085H46.1916V11.4997Z" fill="#B2953C"/>
<path d="M46.9359 11.4997H47.6454V12.2085H46.9359V11.4997Z" fill="#B3973F"/>
<path d="M47.6809 11.4997H48.3904V12.2085H47.6809V11.4997Z" fill="#B59943"/>
<path d="M48.4252 11.4997H49.1347V12.2085H48.4252V11.4997Z" fill="#B69A47"/>
<path d="M49.1694 11.4997H49.879V12.2085H49.1694V11.4997Z" fill="#B89C4B"/>
<path d="M49.9145 11.4997H50.624V12.2085H49.9145V11.4997Z" fill="#B99E4E"/>
<path d="M50.6587 11.4997H51.3683V12.2085H50.6587V11.4997Z" fill="#BBA052"/>
<path d="M51.403 11.4997H52.1125V12.2085H51.403V11.4997Z" fill="#BCA355"/>
<path d="M52.148 11.4997H52.8576V12.2085H52.148V11.4997Z" fill="#BDA559"/>
<path d="M52.8923 11.4997H53.6018V12.2085H52.8923V11.4997Z" fill="#C0A65D"/>
<path d="M53.6366 11.4997H54.3461V12.2085H53.6366V11.4997Z" fill="#C0A861"/>
<path d="M54.3808 11.4997H55.0904V12.2085H54.3808V11.4997Z" fill="#C3AA64"/>
<path d="M55.1259 11.4997H55.8354V12.2085H55.1259V11.4997Z" fill="#C4AC68"/>
<path d="M55.8701 11.4997H56.5797V12.2085H55.8701V11.4997Z" fill="#C6AE6B"/>
<path d="M56.6144 11.4997H57.324V12.2085H56.6144V11.4997Z" fill="#C7B070"/>
<path d="M57.3594 11.4997H58.069V12.2085H57.3594V11.4997Z" fill="#C9B273"/>
<path d="M58.1037 11.4997H58.8132V12.2085H58.1037V11.4997Z" fill="#CAB577"/>
<path d="M58.848 11.4997H59.5575V12.2085H58.848V11.4997Z" fill="#CAB67A"/>
<path d="M59.593 11.4997H60.3025V12.2085H59.593V11.4997Z" fill="#CDB87E"/>
<path d="M60.3373 11.4997H61.0468V12.2085H60.3373V11.4997Z" fill="#CEBA82"/>
<path d="M61.0815 11.4997H61.7911V12.2085H61.0815V11.4997Z" fill="#D0BC86"/>
<path d="M61.8266 11.4997H62.5361V12.2085H61.8266V11.4997Z" fill="#D2BE8A"/>
<path d="M62.5708 11.4997H63.2804V12.2085H62.5708V11.4997Z" fill="#D3C08E"/>
<path d="M63.3151 11.4997H64.0246V12.2085H63.3151V11.4997Z" fill="#D4C493"/>
<path d="M64.0601 11.4997H64.7696V12.2085H64.0601V11.4997Z" fill="#D6C597"/>
<path d="M64.8044 11.4997H65.5139V12.2085H64.8044V11.4997Z" fill="#D7C89C"/>
<path d="M65.5487 11.4997H66.2582V12.2085H65.5487V11.4997Z" fill="#DACAA0"/>
<path d="M66.2937 11.4997H67.0032V12.2085H66.2937V11.4997Z" fill="#DBCDA5"/>
<path d="M67.038 11.4997H67.7475V12.2085H67.038V11.4997Z" fill="#DDCEA9"/>
<path d="M67.7822 11.4997H68.4918V12.2085H67.7822V11.4997Z" fill="#DFD1AD"/>
<path d="M68.5272 11.4997H69.2368V12.2085H68.5272V11.4997Z" fill="#E0D4B2"/>
<path d="M69.2715 11.4997H69.9811V12.2085H69.2715V11.4997Z" fill="#E2D6B7"/>
<path d="M70.0158 11.4997H70.7253V12.2085H70.0158V11.4997Z" fill="#E5DABC"/>
<path d="M70.7608 11.4997H71.4704V12.2085H70.7608V11.4997Z" fill="#E6DCC0"/>
<path d="M71.5051 11.4997H72.2146V12.2085H71.5051V11.4997Z" fill="#E8DEC6"/>
<path d="M72.2494 11.4997H72.9589V12.2085H72.2494V11.4997Z" fill="#E9E1CB"/>
<path d="M72.9944 11.4997H73.7039V12.2085H72.9944V11.4997Z" fill="#EBE3D1"/>
<path d="M73.7387 11.4997H74.4482V12.2085H73.7387V11.4997Z" fill="#EDE7D5"/>
<path d="M74.4829 11.4997H75.1925V12.2085H74.4829V11.4997Z" fill="#EFEADB"/>
<path d="M75.2279 11.4997H75.9375V12.2085H75.2279V11.4997Z" fill="#F2ECE0"/>
<path d="M75.9722 11.4997H76.6817V12.2085H75.9722V11.4997Z" fill="#F5F1E7"/>
<path d="M76.7165 11.4997H77.426V12.2085H76.7165V11.4997Z" fill="#F7F4ED"/>
<path d="M77.4615 11.4997H78.171V12.2085H77.4615V11.4997Z" fill="#FCFAF5"/>
<path d="M78.2058 11.4997H78.9153L78.9153 12.2085L78.2058 12.2085V11.4997Z" fill="white"/>
<path d="M0.273461 4.01036C0.273461 2.46195 0.245376 1.3969 0.161857 0.1796C0.468585 0.207686 0.844788 0.249075 1.30451 0.249075C1.76423 0.249075 2.14043 0.207686 2.44716 0.1796C2.36364 1.3969 2.33556 2.46195 2.33556 4.01036V5.89138C2.33556 7.4398 2.36364 8.50484 2.44716 9.72214C2.14043 9.69405 1.76423 9.65267 1.30451 9.65267C0.844788 9.65267 0.468585 9.69405 0.161857 9.72214C0.245376 8.50484 0.273461 7.4398 0.273461 5.89138V4.01036Z" fill="#034699"/>
<path d="M4.81598 0.1796C5.02514 0.221699 5.23431 0.249075 5.44348 0.249075C5.6519 0.249075 5.86107 0.221758 6.07023 0.1796C8.07689 2.37843 10.0695 4.56395 12.1183 6.76278C12.1183 4.56395 12.1183 0.801924 12.0207 0.1796C12.2292 0.221699 12.4383 0.249075 12.6475 0.249075C12.8567 0.249075 13.0651 0.221758 13.2743 0.1796C13.0518 4.20401 13.0518 6.04363 13.0518 9.72214C12.8567 9.68075 12.6756 9.65267 12.4805 9.65267C12.2853 9.65267 12.1043 9.68075 11.9365 9.72214C10.0274 7.48192 7.99337 5.24171 5.84702 3.00075C5.81971 4.03845 5.81971 5.18628 5.81971 6.22323C5.81971 8.43611 5.8611 9.21068 5.90323 9.72214C5.68002 9.68075 5.45681 9.65267 5.24838 9.65267C5.03922 9.65267 4.81601 9.68075 4.60684 9.72214C4.67706 9.32081 4.88548 5.75317 4.88548 2.93202C4.88548 1.68737 4.83005 0.843313 4.81598 0.1796Z" fill="#034699"/>
<path d="M15.5041 4.01036C15.5041 2.46195 15.476 1.3969 15.3925 0.1796C15.6992 0.207686 16.0754 0.249075 16.5352 0.249075C17.1486 0.249075 17.8316 0.1796 19.0577 0.1796C22.2344 0.1796 24.4221 1.18921 24.4221 4.67408C24.4221 7.71696 22.2211 9.72214 19.601 9.72214C18.2078 9.72214 17.2602 9.65267 16.5352 9.65267C16.0754 9.65267 15.6992 9.69405 15.3925 9.72214C15.476 8.50484 15.5041 7.4398 15.5041 5.89138V4.01036ZM17.5662 6.19589C17.5662 6.94238 17.5662 8.62975 17.5803 8.89213C17.8589 8.90614 18.2351 8.93352 18.8065 8.93352C20.8966 8.93352 22.2211 7.52332 22.2211 4.64673C22.2211 2.37843 20.9528 0.968223 19.0297 0.968223C18.3608 0.968223 18.0127 0.99554 17.5803 1.03696C17.5662 1.30008 17.5662 2.98745 17.5662 3.73394V6.19589Z" fill="#034699"/>
<path d="M30.8464 0C33.8006 0 36.128 1.60459 36.128 4.9372C36.128 7.67557 33.9122 9.90174 30.805 9.90174C27.8641 9.90174 25.4953 8.40802 25.4953 4.95124C25.4953 2.22691 27.6136 0 30.8464 0ZM30.805 0.788623C28.8959 0.788623 27.7806 2.69698 27.7806 5.07541C27.7806 8.02073 29.1465 9.04439 30.7074 9.04439C32.3793 9.04439 33.8427 7.66153 33.8427 4.64673C33.8427 2.25426 32.6025 0.788623 30.805 0.788623Z" fill="#034699"/>
<path d="M41.8686 2.04657C41.5759 1.25869 41.0327 0.857359 40.1827 0.857359C39.3327 0.857359 38.7333 1.43829 38.7333 2.10201C38.7333 4.14858 42.9699 3.63712 42.9699 6.77608C42.9699 8.62975 41.4924 9.90174 39.2773 9.90174C38.2736 9.90174 37.4377 9.61128 37.0334 9.30677C37.2145 8.67114 37.3401 8.17298 37.4377 7.55066H37.7023C37.8553 8.35259 38.4968 9.04439 39.6254 9.04439C40.7119 9.04439 41.2559 8.40802 41.2559 7.63344C41.2559 5.54548 37.1029 6.09907 37.1029 2.95936C37.1029 1.051 38.5803 0 40.2381 0C41.2418 0 41.9942 0.263119 42.5242 0.677756C42.3564 1.10643 42.2588 1.43829 42.0778 2.04657H41.8686Z" fill="#034699"/>
<path d="M52.4873 9.72214C52.0416 9.69405 51.6513 9.65267 51.2611 9.65267C50.8708 9.65267 50.4666 9.69405 50.0763 9.72214C49.7836 8.78126 49.4636 7.82708 49.1147 6.88695C48.5161 6.87287 47.9307 6.85963 47.3313 6.85963C46.8435 6.85963 46.3697 6.87293 45.8819 6.88695C45.5057 7.82708 45.199 8.76796 44.9344 9.72214C44.7119 9.69405 44.5027 9.65267 44.2795 9.65267C44.0563 9.65267 43.8479 9.69405 43.5826 9.72214C44.2655 8.18703 46.3557 3.26387 47.5545 0.110863C47.7356 0.13818 47.9026 0.179599 48.0837 0.179599C48.2648 0.179599 48.4318 0.13821 48.6136 0.110863C49.7977 3.26387 51.4281 7.46788 52.4873 9.72214ZM48.7947 6.07098C48.3904 4.95124 48.0002 3.85811 47.5545 2.77976C47.0807 3.85811 46.6484 4.95124 46.2448 6.07098H48.7947Z" fill="#034699"/>
<path d="M54.7319 2.43386C54.7319 1.90836 54.7319 1.41094 54.6898 1.2173C54.1466 1.2173 52.9758 1.30008 52.1399 1.3969C52.1813 1.18921 52.2094 0.99557 52.2094 0.788622C52.2094 0.580934 52.1813 0.387287 52.1399 0.1796C53.4075 0.221699 54.035 0.249075 55.763 0.249075C57.491 0.249075 58.1178 0.221758 59.3026 0.1796C59.2604 0.387287 59.2323 0.580934 59.2323 0.788622C59.2323 0.99557 59.2604 1.18921 59.3026 1.3969C58.5494 1.30008 57.3794 1.2173 56.8221 1.2173C56.794 1.41094 56.794 1.90836 56.794 2.43386V5.89138C56.794 7.4398 56.8221 8.50484 56.9056 9.72214C56.5989 9.69405 56.2227 9.65267 55.763 9.65267C55.3033 9.65267 54.9271 9.69405 54.6203 9.72214C54.7039 8.50484 54.732 7.4398 54.732 5.89138L54.7319 2.43386Z" fill="#034699"/>
<path d="M63.1525 3.46048C62.4511 5.54844 61.9138 7.65044 61.3654 9.73914C61.1503 9.69775 60.933 9.66967 60.7238 9.66967C60.5006 9.66967 60.2863 9.69775 60.0557 9.73914C61.2634 6.55805 62.3469 3.37769 63.3595 0.196594C63.5465 0.237983 63.7224 0.266076 63.9175 0.266076C64.0986 0.266076 64.2989 0.237983 64.4888 0.196594C65.0749 2.39542 65.7771 4.85738 66.4127 6.80713C67.9168 4.74651 69.5199 2.39542 70.9545 0.196594C71.1414 0.237983 71.3447 0.266076 71.5398 0.266076C71.7349 0.266076 71.9352 0.237983 72.1385 0.196594C71.8776 3.37769 71.5014 7.78865 71.4681 9.73914C71.1001 9.69775 70.729 9.66967 70.3528 9.66967C69.9766 9.66967 69.5812 9.69775 69.1828 9.73914C69.4615 7.81674 69.6854 5.46566 69.882 3.32227H69.8547C68.389 5.46566 66.9411 7.59575 65.5176 9.73914C65.4371 9.7251 65.3425 9.71106 65.2582 9.71106C65.1747 9.71106 65.0749 9.7251 64.9884 9.73914C64.4082 7.65044 63.8162 5.54844 63.1806 3.46048H63.1525Z" fill="#A58520"/>
<path d="M72.565 9.11682C75.9316 6.51666 77.3484 4.82929 77.7061 3.00445C78.001 1.49668 77.4024 0.999268 76.6914 0.999268C75.6603 0.999268 75.0993 2.29861 74.9722 3.01776L74.8244 3.05915C74.5302 2.71399 74.222 2.43682 73.9168 2.14636C74.446 1.15079 75.5317 0.376948 77.1614 0.376948C79.7394 0.376948 80.1622 1.70437 79.9538 2.76868C79.7158 3.98598 78.7254 5.27202 74.9559 8.01039L74.9641 8.03773C76.2767 8.02443 77.6004 8.02444 78.9294 7.92761C78.8562 8.23138 78.7571 8.52184 78.698 8.82635C78.6381 9.13012 78.6204 9.43463 78.5746 9.73914C77.5347 9.71106 76.5118 9.66967 75.4667 9.66967C74.4637 9.66967 73.4519 9.71106 72.443 9.73914L72.565 9.11682Z" fill="#A58520"/>
</g>
<defs>
<clipPath id="clip0_1801_9958">
<rect width="80" height="12.2085" fill="white"/>
</clipPath>
</defs>
</svg>
