<svg width="80" height="64" viewBox="0 0 80 64" fill="none" xmlns="http://www.w3.org/2000/svg">
<g clip-path="url(#clip0_1801_9918)">
<g clip-path="url(#clip1_1801_9918)">
<mask id="mask0_1801_9918" style="mask-type:luminance" maskUnits="userSpaceOnUse" x="0" y="0" width="80" height="64">
<path d="M79.7496 0.21814H0.214355V63.8463H79.7496V0.21814Z" fill="white"/>
</mask>
<g mask="url(#mask0_1801_9918)">
<path d="M0.588295 2.25709C0.469764 2.14925 0.375413 2.01924 0.31104 1.87504C0.246667 1.73083 0.213632 1.57548 0.213966 1.41854C0.211838 1.26014 0.244021 1.10304 0.308468 0.95724C0.372915 0.811464 0.468214 0.680174 0.588295 0.57176C0.701612 0.459274 0.837393 0.369967 0.987488 0.309217C1.13758 0.248467 1.29889 0.217524 1.46173 0.218263C1.62581 0.215953 1.78863 0.246157 1.94007 0.306983C2.0915 0.36779 2.22831 0.45793 2.34199 0.57176C2.46002 0.681272 2.5534 0.812941 2.61633 0.958604C2.67926 1.10427 2.71039 1.26082 2.70778 1.41854C2.70861 1.57479 2.67666 1.72962 2.61379 1.87371C2.55094 2.01781 2.45849 2.14821 2.34199 2.25709C2.2289 2.37213 2.09236 2.46349 1.9409 2.52545C1.78943 2.58739 1.62631 2.61864 1.46173 2.61718C1.29829 2.61773 1.13647 2.58607 0.986255 2.52412C0.836034 2.4622 0.700597 2.37132 0.588295 2.25709ZM0.360963 3.32419H2.56249V10.9452H0.360963V3.32419Z" fill="#4D4D4F"/>
<path d="M3.44288 6.7957C3.43167 6.12758 3.60888 5.46903 3.95566 4.89003C4.28804 4.33864 4.76942 3.8841 5.3487 3.57465C5.97137 3.24772 6.67175 3.08227 7.38101 3.09454C8.0824 3.08201 8.7751 3.24521 9.3911 3.56808C9.96938 3.87497 10.4512 4.32592 10.7859 4.8736C11.1351 5.4564 11.3124 6.11984 11.2986 6.7924V10.9458H9.09199V6.7957C9.09843 6.57843 9.05802 6.36225 8.97329 6.16076C8.88857 5.95927 8.76137 5.77685 8.59972 5.62501C8.43868 5.47187 8.24708 5.35168 8.03644 5.27171C7.82581 5.19174 7.60053 5.15364 7.37418 5.1597C7.14563 5.1525 6.91795 5.19005 6.70493 5.27002C6.49192 5.35001 6.29801 5.47077 6.13496 5.62501C5.97332 5.77685 5.84612 5.95927 5.76139 6.16076C5.67667 6.36225 5.63626 6.57843 5.6427 6.7957V10.9458H3.44288V6.7957Z" fill="#4D4D4F"/>
<path d="M13.7654 10.6354C13.1647 10.2793 12.6715 9.77827 12.3347 9.18185C11.9785 8.55458 11.7966 7.84951 11.8065 7.13479C11.8024 6.59883 11.9045 6.06703 12.1074 5.56785C12.3001 5.08986 12.5862 4.65175 12.9501 4.27712C13.3062 3.9098 13.7351 3.61465 14.2115 3.40898C14.7015 3.1998 15.2325 3.09385 15.7686 3.09822C16.2046 3.09466 16.6375 3.16882 17.0454 3.31691C17.4249 3.45708 17.773 3.6658 18.071 3.93184V0.924561H20.2725V10.9543H18.071V10.3246C17.7768 10.5984 17.4279 10.8122 17.0454 10.9527C16.6378 11.1022 16.2048 11.1768 15.7686 11.173C15.0613 11.1804 14.3665 10.9938 13.7654 10.6354ZM17.4916 8.55375C17.6835 8.3677 17.834 8.14585 17.9336 7.90185C18.0333 7.65784 18.08 7.39682 18.071 7.13479C18.0747 6.78631 17.984 6.44289 17.8078 6.1384C17.6376 5.84361 17.3893 5.59741 17.0882 5.4248C16.7722 5.24872 16.4123 5.15889 16.0472 5.16502C15.6795 5.15955 15.317 5.24927 14.9977 5.4248C14.6931 5.59529 14.4421 5.84185 14.2713 6.1384C14.0936 6.44419 14.0023 6.78941 14.0064 7.13973C13.9969 7.40045 14.0431 7.66027 14.1422 7.90312C14.2413 8.14598 14.3911 8.36669 14.5824 8.55163C14.7737 8.73657 15.0024 8.88178 15.2543 8.9783C15.5063 9.07482 15.7761 9.12059 16.0472 9.11279C16.3149 9.11944 16.5811 9.07325 16.8295 8.97711C17.0779 8.88094 17.3032 8.73687 17.4916 8.55375Z" fill="#4D4D4F"/>
<path d="M23.4037 10.8534C22.6456 10.5437 21.9995 10.0256 21.5467 9.36383C21.0939 8.7021 20.8546 7.92635 20.8587 7.13412C20.8494 6.4241 21.0396 5.72483 21.409 5.11008C21.7715 4.50658 22.2896 4.00314 22.9132 3.64835C23.5807 3.28723 24.3335 3.09753 25.0993 3.09753C25.8651 3.09753 26.618 3.28723 27.2855 3.64835C27.9091 4.00314 28.4271 4.50658 28.7895 5.11008C29.159 5.72483 29.3491 6.4241 29.34 7.13412C29.3455 7.92663 29.1067 8.70293 28.6536 9.36493C28.2006 10.0269 27.5539 10.5449 26.7949 10.8534C25.7077 11.2787 24.4908 11.2787 23.4037 10.8534ZM26.1488 8.84246C26.4535 8.66811 26.7051 8.41975 26.8786 8.12231C27.0517 7.81803 27.1422 7.4768 27.1422 7.13001C27.1422 6.78322 27.0517 6.44199 26.8786 6.13771C26.7049 5.84374 26.4546 5.59837 26.1522 5.42578C25.8325 5.25016 25.4708 5.15778 25.1027 5.15778C24.7346 5.15778 24.3729 5.25016 24.0532 5.42578C23.7496 5.59791 23.4982 5.84332 23.3234 6.13771C23.1459 6.44116 23.0552 6.78435 23.0601 7.13247C23.0573 7.47879 23.1512 7.81949 23.3319 8.11901C23.508 8.41568 23.7604 8.66371 24.0651 8.83918C24.3774 9.01918 24.7355 9.11199 25.0993 9.10718C25.468 9.11436 25.8314 9.0227 26.1488 8.84246Z" fill="#4D4D4F"/>
<path d="M31.3433 10.8677C30.8449 10.6899 30.4042 10.388 30.0666 9.993C29.7456 9.60176 29.5768 9.11497 29.5895 8.61677H31.7466C31.7552 8.74522 31.7972 8.86952 31.869 8.97816C31.9406 9.08681 32.0396 9.17628 32.1568 9.2383C32.4206 9.39148 32.724 9.46958 33.0321 9.46356C33.4218 9.46356 33.7004 9.39779 33.868 9.26625C33.9452 9.21016 34.0079 9.13765 34.0513 9.05435C34.0944 8.97106 34.1172 8.87926 34.1174 8.78614C34.1221 8.70278 34.1058 8.61957 34.07 8.54349C34.0344 8.4674 33.9803 8.40062 33.9123 8.34878C33.7767 8.24635 33.6138 8.18255 33.4423 8.16461L32.0629 8.0002C31.4304 7.94739 30.8341 7.69409 30.3673 7.28003C30.1542 7.07846 29.9874 6.83622 29.8778 6.56889C29.7679 6.30156 29.7175 6.01508 29.7297 5.72788C29.7111 5.23353 29.8493 4.74545 30.1262 4.32865C30.4074 3.93279 30.7958 3.61838 31.2494 3.41939C31.7576 3.19432 32.3119 3.08193 32.8713 3.09055C33.4434 3.08275 34.0113 3.18332 34.5431 3.3865C35.0104 3.56289 35.4225 3.85229 35.7395 4.22671C36.0415 4.59962 36.204 5.05952 36.201 5.5322H34.0303C34.0159 5.42089 33.9751 5.31418 33.9115 5.22018C33.8479 5.12618 33.7629 5.04734 33.6627 4.98962C33.461 4.85741 33.2232 4.78588 32.9791 4.7841C32.7202 4.77185 32.4645 4.84301 32.2526 4.98633C32.1665 5.0452 32.0966 5.12351 32.0493 5.21439C32.0019 5.30525 31.9784 5.40591 31.9809 5.50755C31.9752 5.60398 31.9977 5.69997 32.0458 5.78477C32.0938 5.86957 32.1653 5.93984 32.2526 5.98766C32.4483 6.09592 32.6657 6.16317 32.8902 6.18496L33.7449 6.28362C34.5567 6.37899 35.1943 6.62233 35.6592 7.01859C35.8836 7.20248 36.0628 7.43219 36.1834 7.69102C36.304 7.94983 36.3631 8.23127 36.3565 8.51483C36.3684 9.00879 36.2281 9.49509 35.9531 9.91251C35.6721 10.317 35.2782 10.6372 34.8165 10.8364C34.2787 11.0652 33.6953 11.1775 33.1073 11.1654C32.5049 11.1752 31.9061 11.0741 31.3433 10.8677Z" fill="#4D4D4F"/>
<path d="M43.0293 3.64915C43.6529 4.00394 44.1708 4.50738 44.5333 5.11088C44.9028 5.72563 45.0929 6.42488 45.0838 7.13492V10.9462H42.8822V10.3674C42.6118 10.6229 42.2893 10.8223 41.9353 10.9528C41.546 11.1018 41.1303 11.1766 40.7114 11.1732C40.1556 11.1772 39.6053 11.0685 39.0963 10.8541C38.6053 10.6483 38.1614 10.351 37.7904 9.97942C37.4181 9.60563 37.1225 9.16777 36.9185 8.6887C36.4902 7.70564 36.4834 6.59946 36.8996 5.61155C37.3158 4.62367 38.1216 3.83428 39.1406 3.41568C39.6777 3.20027 40.2545 3.09231 40.8362 3.09834C41.606 3.08353 42.3652 3.27418 43.0293 3.64915ZM41.8925 8.84326C42.1961 8.66845 42.4464 8.42013 42.619 8.12309C42.7917 7.81902 42.8822 7.4781 42.8822 7.13162C42.8822 6.78515 42.7917 6.44423 42.619 6.14016C42.4453 5.84618 42.195 5.6008 41.8925 5.42821C41.5729 5.25259 41.2112 5.16021 40.843 5.16021C40.4749 5.16021 40.1132 5.25259 39.7936 5.42821C39.4915 5.60034 39.2412 5.84514 39.0671 6.13851C38.8944 6.44258 38.8041 6.78351 38.8041 7.12998C38.8041 7.47645 38.8944 7.81737 39.0671 8.12144C39.2397 8.41849 39.4902 8.66681 39.7936 8.84161C40.1132 9.01724 40.4749 9.10961 40.843 9.10961C41.2112 9.10961 41.5729 9.01888 41.8925 8.84326Z" fill="#4D4D4F"/>
<path d="M47.3435 10.7426C46.825 10.4646 46.394 10.0572 46.0957 9.56361C45.7886 9.04875 45.6314 8.46366 45.641 7.87006V1.49048H47.8427V3.32543H49.8818V5.3988H47.8427V7.86513C47.841 8.02858 47.8733 8.1907 47.9375 8.342C48.0019 8.49331 48.0968 8.63077 48.217 8.74635C48.3371 8.86194 48.4801 8.95331 48.6372 9.01516C48.7946 9.07701 48.9632 9.10806 49.133 9.10653H49.8818V11.1734H49.133C48.5077 11.1821 47.8908 11.0336 47.3435 10.7426Z" fill="#4D4D4F"/>
<path d="M74.7668 25.5676C74.104 25.5664 73.4478 25.6933 72.8369 25.9404C72.2258 26.1876 71.6726 26.55 71.2098 27.0064H71.1894C70.7394 27.5624 70.1221 27.9712 69.4218 28.1773C68.7213 28.3833 67.972 28.3763 67.2757 28.1576C66.5796 27.9387 65.9705 27.5185 65.5318 26.9543C65.093 26.3902 64.8459 25.7096 64.8241 25.0053V13.7375C64.8241 13.6996 64.8241 13.6619 64.8241 13.624C64.8241 12.9904 65.0856 12.3827 65.5515 11.9347C66.0171 11.4866 66.6489 11.2349 67.3077 11.2349C67.9663 11.2349 68.598 11.4866 69.0637 11.9347C69.5296 12.3827 69.7911 12.9904 69.7911 13.624V15.9555C69.7911 17.2228 70.3145 18.438 71.246 19.3341C72.1775 20.2302 73.441 20.7335 74.7582 20.7335C76.0757 20.7335 77.339 20.2302 78.2705 19.3341C79.202 18.438 79.7254 17.2228 79.7254 15.9555V13.624C79.7447 12.0436 79.4378 10.4754 78.8223 9.00989C78.207 7.54445 77.2954 6.21106 76.1404 5.08696C74.9855 3.96287 73.6103 3.0704 72.0942 2.46132C70.5781 1.85221 68.9514 1.53857 67.3084 1.53857C65.6655 1.53857 64.0388 1.85221 62.5227 2.46132C61.0066 3.0704 59.6314 3.96287 58.4764 5.08696C57.3215 6.21106 56.4098 7.54445 55.7946 9.00989C55.1791 10.4754 54.8723 12.0436 54.8915 13.624C54.8915 13.6619 54.8915 13.6996 54.8915 13.7375V59.0688C54.8909 59.696 55.0185 60.3173 55.2676 60.8969C55.5164 61.4768 55.8817 62.0036 56.3422 62.4477C56.8028 62.8916 57.3499 63.244 57.9521 63.4847C58.5543 63.7254 59.1998 63.8494 59.8518 63.8502C60.5048 63.8507 61.1515 63.7276 61.755 63.4875C62.3585 63.2474 62.9067 62.8954 63.3686 62.4513C63.8305 62.0072 64.1967 61.4798 64.4465 60.8994C64.6963 60.319 64.8245 59.6969 64.8241 59.0688V35.7932C64.8231 35.1173 65.0301 34.4564 65.4191 33.8936C65.8081 33.3308 66.3616 32.8913 67.0096 32.6305C67.6578 32.3697 68.3717 32.2995 69.0612 32.4282C69.7509 32.5572 70.3855 32.8795 70.8851 33.3546C71.4117 33.987 72.0965 34.4804 72.8753 34.7891C73.654 35.0976 74.5015 35.2112 75.3383 35.1192C76.1751 35.027 76.9741 34.7323 77.6601 34.2625C78.3464 33.7927 78.8977 33.1632 79.2622 32.4328C79.6267 31.7024 79.7928 30.8949 79.7449 30.0861C79.6968 29.2771 79.4364 28.4931 78.988 27.8074C78.5394 27.1215 77.9173 26.5565 77.1801 26.1647C76.4427 25.773 75.6142 25.5676 74.7719 25.5676H74.7668Z" fill="#FFB71B"/>
<path d="M49.8547 25.6234C49.8547 22.9846 47.6308 20.8455 44.8876 20.8455C42.1444 20.8455 39.9204 22.9846 39.9204 25.6234V59.0671C39.9204 61.7059 42.1444 63.8452 44.8876 63.8452C47.6308 63.8452 49.8547 61.7059 49.8547 59.0671V25.6234Z" fill="#D9117C"/>
<path d="M29.9862 30.4009C28.6691 30.4013 27.406 30.9048 26.4749 31.8009C25.5437 32.697 25.0207 33.912 25.0207 35.1789V44.7335L24.9711 47.1752C24.9798 47.4911 24.9226 47.8053 24.8029 48.0996C24.6832 48.3938 24.5035 48.662 24.2744 48.8885C24.0453 49.1148 23.7712 49.2947 23.4686 49.4176C23.166 49.5403 22.8409 49.6035 22.5123 49.6035C22.1839 49.6035 21.8588 49.5403 21.5562 49.4176C21.2536 49.2947 20.9795 49.1148 20.7504 48.8885C20.5213 48.662 20.3416 48.3938 20.2219 48.0996C20.1022 47.8053 20.045 47.4911 20.0535 47.1752V44.7335C20.0535 44.1059 19.9251 43.4846 19.6754 42.905C19.4256 42.3251 19.0595 41.7985 18.5981 41.355C18.1366 40.9113 17.5888 40.5596 16.986 40.3197C16.3832 40.0798 15.7371 39.9567 15.0848 39.957C13.7694 39.9593 12.5086 40.4634 11.5792 41.3589C10.6499 42.2545 10.1279 43.4681 10.1279 44.7335V59.0678C10.127 60.334 10.6485 61.5486 11.5779 62.4451C12.5073 63.3417 13.7686 63.8466 15.0848 63.8492C16.4021 63.8492 17.6655 63.3459 18.5971 62.4498C19.5286 61.5537 20.0518 60.3383 20.0518 59.0711V56.6411C20.0433 56.3252 20.1005 56.0109 20.2202 55.7166C20.3399 55.4223 20.5196 55.1541 20.7487 54.9278C20.9778 54.7014 21.2519 54.5215 21.5545 54.3987C21.8571 54.2758 22.1822 54.2126 22.5106 54.2126C22.8392 54.2126 23.1643 54.2758 23.4669 54.3987C23.7695 54.5215 24.0436 54.7014 24.2727 54.9278C24.5018 55.1541 24.6815 55.4223 24.8012 55.7166C24.9209 56.0109 24.9781 56.3252 24.9694 56.6411L25.019 59.0678C25.0186 59.6956 25.1466 60.3173 25.396 60.8973C25.6456 61.4774 26.0113 62.0046 26.4726 62.4487C26.9339 62.8927 27.4816 63.245 28.0845 63.4853C28.6873 63.7256 29.3336 63.8492 29.9862 63.8492C31.3034 63.8492 32.5669 63.3459 33.4984 62.4498C34.4299 61.5537 34.9531 60.3383 34.9531 59.0711V35.1789C34.9531 33.9118 34.4299 32.6964 33.4984 31.8003C32.5669 30.9042 31.3034 30.4009 29.9862 30.4009Z" fill="#D9117C"/>
<path d="M79.7203 44.7361C79.7203 42.0972 77.4965 39.9579 74.7533 39.9579C72.0101 39.9579 69.7861 42.0972 69.7861 44.7361V59.0689C69.7861 61.7078 72.0101 63.8469 74.7533 63.8469C77.4965 63.8469 79.7203 61.7078 79.7203 59.0689V44.7361Z" fill="#FFB71B"/>
</g>
</g>
</g>
<defs>
<clipPath id="clip0_1801_9918">
<rect width="80" height="64" fill="white"/>
</clipPath>
<clipPath id="clip1_1801_9918">
<rect width="80" height="64" fill="white"/>
</clipPath>
</defs>
</svg>
