<svg width="81" height="25" viewBox="0 0 81 25" fill="none" xmlns="http://www.w3.org/2000/svg">
<g clip-path="url(#clip0_1801_10103)">
<path fill-rule="evenodd" clip-rule="evenodd" d="M10.1915 19.0646C10.1915 17.853 9.2294 16.8909 8.01782 16.8909C6.80624 16.8909 5.8441 17.853 5.8441 19.0646V21.8441C5.8441 23.0557 6.80624 24.0178 8.01782 24.0178C9.2294 24.0178 10.1915 23.0557 10.1915 21.8441V19.0646Z" fill="#87CCD4"/>
<path fill-rule="evenodd" clip-rule="evenodd" d="M4.2049 22.0935C4.2049 20.9176 3.2784 19.9911 2.10245 19.9911C0.926503 19.9911 0 20.9176 0 22.0935V21.9154C0 23.0913 0.926503 24.0178 2.10245 24.0178C3.2784 24.0178 4.2049 23.0913 4.2049 21.9154V22.0935Z" fill="#F89F32"/>
<path fill-rule="evenodd" clip-rule="evenodd" d="M15.1091 18.0312C15.1091 18.0668 15.1091 18.1024 15.1091 18.1381V17.9599C15.1091 17.9955 15.1091 18.0312 15.1091 18.0668C15.1804 16.6058 16.2851 16.392 16.2851 14.8597C16.2851 13.5056 15.8931 11.9733 14.1826 11.9733C12.4722 11.9733 12.0802 13.4699 12.0802 14.8597C12.0802 16.4276 13.1849 16.6414 13.2561 18.0668C13.1849 19.4922 12.0802 19.706 12.0802 21.2027C12.0802 22.5568 12.5078 24.0534 14.1826 24.0534C15.8575 24.0534 16.2851 22.5568 16.2851 21.2027C16.2851 19.6704 15.1804 19.4922 15.1091 18.0668V18.0312Z" fill="#B210A5"/>
<path fill-rule="evenodd" clip-rule="evenodd" d="M37.8797 18.9577V21.0958L37.951 22.735V23.3764L37.7016 23.3408L37.2027 23.3051C36.7751 23.3051 36.3118 23.3051 35.8842 23.3764C35.9198 23.1269 35.9198 22.9131 35.9198 22.6637L36.0267 21.1314L36.1336 18.5301V16.6771C36.1336 15.8218 36.1693 14.6459 35.706 13.8975C35.2428 13.2205 34.4232 12.8285 33.6036 12.8285C32.2494 12.8285 31.1091 13.5768 30.6815 14.8953C30.539 15.5367 30.539 16.1782 30.5033 16.8552C30.4677 17.8174 30.4677 18.8508 30.4677 19.8129C30.4677 20.49 30.4677 21.167 30.5033 21.8085V22.8419L30.5746 23.3764C30.2183 23.3051 29.8976 23.3051 29.5768 23.3051C29.2205 23.3051 28.8285 23.3051 28.4722 23.3764C28.5078 23.1982 28.5078 23.0557 28.5078 22.8775L28.6503 20.0267V16.2494C28.6503 15.3942 28.6147 14.4677 28.0802 13.755C27.5813 13.1136 26.8686 12.8641 26.0846 12.8641C24.9087 12.8641 23.8753 13.4699 23.412 14.5746C23.02 15.5724 23.02 16.7127 23.02 17.7461V21.0958L23.0913 22.8419L23.1269 23.3408L22.8775 23.3051C22.6281 23.2695 22.3786 23.2695 22.0935 23.2695C21.7372 23.2695 21.4165 23.2695 21.0601 23.3408C21.0958 23.1626 21.0958 22.9488 21.0958 22.7706L21.2739 17.9599V15.0379L21.167 12.3296V11.7595L21.3452 11.7951C21.6303 11.8307 21.8797 11.8307 22.1648 11.8307C22.4855 11.8307 22.8062 11.7951 23.1269 11.7595C23.0557 12.4365 23.0913 13.1136 23.0913 13.8263C23.9822 12.4365 25.0869 11.6169 26.7973 11.6169C28.4009 11.6169 29.8619 12.4365 30.3608 14.0045C31.2873 12.4365 32.5345 11.6526 34.3875 11.6526C36.5612 11.6526 38.0579 12.9354 38.0579 15.1804C38.0579 15.9287 38.0223 16.6414 37.9866 17.4254L37.9154 18.9577H37.8797ZM70.735 14.2895V12.9354C71.9109 12.1158 73.2294 11.5457 74.6904 11.5457C75.7951 11.5457 76.9354 11.902 77.7194 12.686C78.6102 13.6125 78.6815 14.4677 78.6459 15.6793L78.5746 18.6013C78.5746 19.1715 78.539 19.7773 78.539 20.3474C78.539 21.0601 78.4321 22.5568 79.4655 22.5568C79.6437 22.5568 79.8575 22.5568 80.0356 22.4499V22.9844C80 23.02 79.9287 23.02 79.8575 23.0557C79.6437 23.0913 79.5011 23.1626 79.2873 23.2338C78.0044 23.4477 76.971 23.2695 76.7572 21.8085L76.5434 22.0223C75.51 23.0557 74.4053 23.5546 72.9087 23.5546C71.1626 23.5546 69.6659 22.3786 69.6659 20.5612C69.6659 19.5278 70.1648 18.3519 71.1269 17.853C72.0891 17.3541 73.1225 17.1759 74.2272 17.0334C74.9399 16.9265 75.7238 16.8552 76.3652 16.4632C76.5078 16.392 76.6503 16.3207 76.7216 16.1782C76.8285 15.9287 76.7929 15.6436 76.7929 15.3586C76.7929 13.5412 75.7595 12.4365 73.9421 12.4365C72.8731 12.4365 71.8396 12.9354 71.2338 13.8263C71.1269 13.9332 71.0557 14.0401 71.02 14.1826H70.735V14.2895ZM76.7929 17.2472C76.7216 17.2828 76.6503 17.2828 76.5791 17.3541L75.8307 17.4967C74.1559 17.8174 71.6615 18.0668 71.6615 20.2762C71.6615 21.8085 72.5523 22.5924 74.049 22.5924C74.7261 22.5924 75.5457 22.1292 76.0445 21.7016C76.1871 21.5234 76.3296 21.3452 76.4722 21.2027C76.5791 21.1314 76.6147 21.0245 76.6503 20.9176L76.7572 17.2828L76.7929 17.2472ZM59.9733 21.0245C60.5434 21.9866 61.6481 22.7706 62.7884 22.7706C64 22.7706 65.1759 21.9154 65.1759 20.6325C65.1759 18.9577 63.608 18.7082 62.3252 18.3163C61.6481 18.1024 60.9354 17.8886 60.4009 17.4254C59.7951 16.8909 59.4031 16 59.4031 15.216C59.4031 12.8641 61.1849 11.5813 63.3942 11.5813C64.2851 11.5813 65.1403 11.7595 65.9955 12.1514C66.0312 12.1871 66.1024 12.1871 66.1737 12.2227C65.9243 12.7929 65.7461 13.363 65.6036 13.9688H65.3898C65.069 13.1492 64.2138 12.4009 63.3229 12.4009C62.1114 12.4009 61.1136 13.0779 61.1136 14.3964C61.1136 15.8575 62.2183 16.3207 63.4298 16.6414C63.9644 16.784 65.1759 17.1403 65.6392 17.461C66.4588 18.1024 66.8508 18.7439 66.8508 19.8129C66.8508 21.3452 66.1025 22.3073 64.8909 23.0913C64.2494 23.5189 63.1091 23.6615 62.3608 23.6615C61.363 23.6615 60.1514 23.3764 59.2962 22.8775C59.51 22.3073 59.7238 21.7016 59.7951 21.0958H59.9733V21.0245ZM56.0178 20.5256L56.0535 23.0557L56.0891 23.3051L55.4477 23.2695C54.9488 23.2338 54.4855 23.2338 53.9866 23.3051C54.0223 23.0557 54.0223 22.8062 54.0223 22.5568L54.2004 16.8909V7.37639L54.1292 0.178174L54.0935 0L54.4143 0.0712695H55.9465C56.0534 0.0356347 56.1604 0.0356347 56.2673 0C56.2316 0.213808 56.2316 0.427617 56.2316 0.67706L56.0535 11.0824V20.5256H56.0178ZM50.9577 17.4254L46.0045 17.3541L42.5122 17.4254C42.2984 20.2049 43.8307 22.5568 46.7884 22.5568C47.9644 22.5568 49.3541 21.951 50.1737 21.0958C50.245 20.9889 50.3163 20.9532 50.5301 20.9176L50.3875 22.1292C49.1759 22.9844 47.6793 23.5902 46.1826 23.5902C45.6125 23.5902 45.0423 23.4477 44.4722 23.3051C43.1893 23.02 42.0134 22.1292 41.3007 20.9889C40.588 19.8842 40.4098 18.7795 40.4098 17.4967C40.4098 16 40.9087 14.1826 41.9421 13.0779C42.9755 11.9733 44.5078 11.4388 46.0045 11.4388C49.1759 11.4388 50.8864 13.363 51.0289 16.4276L50.9933 17.3898L50.9577 17.4254ZM46.0045 12.294C43.6882 12.294 42.6904 14.4677 42.5479 16.4632C43.6169 16.4989 44.686 16.5345 45.755 16.5345C46.8597 16.5345 47.9644 16.4989 49.069 16.4632C49.0334 14.3964 48.4276 12.294 46.0045 12.294Z" fill="black"/>
</g>
<defs>
<clipPath id="clip0_1801_10103">
<rect width="80.0356" height="24.0534" fill="white"/>
</clipPath>
</defs>
</svg>
