<svg width="80" height="70" viewBox="0 0 80 70" fill="none" xmlns="http://www.w3.org/2000/svg">
<g clip-path="url(#clip0_1801_10060)">
<path fill-rule="evenodd" clip-rule="evenodd" d="M43.172 57.479C44.102 57.2301 43.6959 60.6968 43.5868 61.3212C43.4121 62.3079 42.8926 64.3338 41.8054 64.0849C40.1157 63.6963 41.9146 57.8152 43.172 57.479ZM35.575 56.4486C36.6971 55.9552 35.8239 59.5878 34.8153 59.9502C33.7543 60.3301 34.5228 56.907 35.575 56.4486ZM26.2577 53.7722C27.5981 53.7329 29.4712 55.2217 29.0608 56.7018C28.7115 57.9593 26.8865 58.6098 25.3409 58.7539L26.2577 53.7722ZM26.6201 51.48C26.118 51.3315 25.6683 51.1831 25.0964 51.1962C24.3498 51.2137 24.3105 51.4145 24.1053 52.0039C23.0487 52.1742 22.254 52.2048 21.5904 52.8378C21.2062 53.2046 21.1101 53.353 21.4114 53.8508C21.6166 54.1913 21.8742 54.6061 22.1405 54.7851C22.4461 54.3878 22.957 54.0254 23.6556 53.8857C23.3543 55.9465 21.4201 64.6743 21.586 65.5781C22.027 65.6698 22.4549 65.7571 22.9002 65.8095C23.1011 65.8313 23.7472 65.8881 23.9568 65.8183C24.1708 65.7484 24.1096 65.744 24.1838 65.6305C24.2493 65.5257 24.52 63.4955 24.5768 63.1593C24.6598 62.6572 24.8562 61.0243 25.0309 60.7187L26.2883 62.094C26.9782 62.9148 28.3185 64.277 29.1568 65.207C29.3271 65.3947 29.7987 65.9929 30.0693 65.9405C30.5234 65.8532 31.6848 64.7486 31.9642 64.4691C32.7632 65.2245 33.5622 65.9056 34.9332 65.958C36.8106 66.0278 37.4568 65.0018 38.0244 64.6219C37.9327 65.6523 37.7188 66.853 37.5397 67.8878C37.4655 68.3157 37.3869 68.3506 37.6227 68.5689C38.103 69.0186 38.8714 69.3286 39.5656 69.3985L40.369 64.7398C40.5654 64.8446 40.5349 64.8621 40.727 65.0193C41.1112 65.3292 41.6744 65.6261 42.1984 65.6785C44.412 65.8968 45.4642 62.7751 45.8572 60.9719C46.2326 59.2473 46.1148 57.5707 45.1935 56.4355C44.3421 55.3876 42.6044 55.3222 41.4387 56.5927C41.3251 55.4793 40.465 55.4138 39.3691 55.3265L38.4566 61.6661L37.5048 61.3124C37.3258 61.5395 37.2516 62.0067 37.1293 62.273C36.9852 62.5873 36.7975 62.8755 36.6098 63.0982C36.243 63.5261 35.7846 63.9452 35.0423 64.1679C32.9553 64.7922 33.1867 61.9717 33.5186 60.9806C34.2215 61.3168 35.1209 61.8495 36.1295 61.4565C36.8499 61.1727 37.2952 60.4654 37.5528 59.6009C39.0155 54.6585 33.8111 53.7111 32.117 58.1558C31.3311 60.2165 31.043 61.5307 31.4752 63.6046C30.9644 63.4082 27.8077 61.0199 27.5981 60.007C27.9562 59.7625 32.1825 58.7976 31.3835 55.6496C30.8465 53.5321 28.4321 52.6326 26.5284 52.196L26.6114 51.4756L26.6201 51.48ZM58.8769 57.7453C60.2696 57.169 59.4663 63.8928 57.8988 64.0194C56.1568 64.1591 57.6413 58.2562 58.8769 57.7453ZM56.9863 50.7509C57.1173 50.8207 57.9818 51.0477 58.7197 51.4101C58.3224 52.5366 57.7591 55.1737 57.6325 56.4704C58.3922 56.2216 60.4137 54.9467 61.4834 56.9463C62.6841 59.1862 61.5489 63.8099 59.4357 65.0848C58.497 65.6523 56.9907 65.7266 56.0258 65.2987C55.5805 65.1022 55.5499 64.98 55.2661 64.6438C54.8513 64.7442 52.3932 66.8312 51.5113 63.072C51.1838 63.43 50.9611 65.4428 49.2627 65.5912C48.1275 65.6916 46.9487 64.9276 46.5732 63.6308C46.0493 61.8189 46.6562 59.3084 47.1844 57.5314C47.3635 56.9332 47.6342 56.322 47.787 55.7719C48.5991 55.7457 49.1972 55.8941 49.9133 56.1081C49.695 57.6493 48.2541 62.6223 49.0793 63.8055C49.4985 63.8186 49.5814 63.5086 49.7299 63.1593C49.8696 62.8362 49.97 62.5088 50.0748 62.1551C50.5813 60.4742 51.2537 57.1996 51.4894 55.5274C52.6115 55.4182 53.1704 55.9552 53.917 56.2652C53.7773 57.1035 53.5328 57.9156 53.4105 58.8019C53.2795 59.7537 53.1835 60.7667 53.2621 61.7578C53.524 65.0062 54.7771 63.3558 54.7116 62.714C54.323 58.7932 55.5412 54.5232 56.3838 50.7596H56.9863V50.7509ZM7.32198 52.4536C7.35254 52.0956 7.40494 52.0389 7.16044 51.8991C6.68453 51.6284 5.56681 51.8205 5.09964 51.921C4.63683 52.0214 4.53205 51.9996 4.31374 52.3532C3.33137 53.9468 2.62843 55.702 2.01281 57.5183C1.55437 58.8805 -0.00869575 64.2858 3.64417e-05 65.4821C0.620022 65.958 1.63296 66.3553 2.42759 66.6784C2.66336 65.9187 2.82054 64.8577 3.00828 64.0413C3.20912 63.1811 3.42742 62.3035 3.637 61.4565L4.96429 56.5927C5.00795 56.501 5.01232 56.501 5.05161 56.4486C5.09091 57.5314 5.14767 63.1025 5.53625 63.8797C5.79821 64.4036 6.71509 64.5914 7.50972 64.4211C8.46153 61.2819 9.70587 58.1994 11.0375 55.213C11.0856 55.1082 11.1205 55.0078 11.1729 54.8986L11.3388 54.6323L10.9939 63.4213C10.9589 65.1721 10.828 65.6916 11.9544 66.0147C12.4871 66.1675 13.3035 66.2592 13.9017 66.2461C13.4433 63.0414 13.3559 56.6407 13.4389 53.0649C13.4782 51.2879 13.7882 51.3446 12.0199 50.9735C11.2078 50.8032 11.0244 51.1176 10.7144 51.6066C9.91544 52.8509 8.85448 55.5885 8.33055 57.073C8.19957 57.4397 7.41804 59.7974 7.30452 59.9284C7.03818 59.2036 7.10804 57.7191 7.10804 56.859L7.32635 52.4493L7.32198 52.4536ZM68.0675 63.9889C66.9061 62.4826 68.8708 57.2389 68.8316 56.549C68.2116 56.2216 67.334 56.0251 66.5306 55.9683C65.8277 58.099 65.295 60.627 65.4566 63.0894C65.5482 64.4604 65.8277 65.2332 67.203 65.4384C68.6875 65.6611 69.5476 64.6656 70.1458 64.3643C70.9316 66.1588 75.4287 66.0235 76.6993 63.0545C76.9874 62.3821 76.9438 62.1988 76.5202 61.8451C76.2888 61.653 75.7562 61.2993 75.4244 61.212C75.1799 62.3603 74.1713 64.1417 72.7217 63.7836C70.5387 63.2466 71.3726 58.3784 72.892 57.252C73.1584 57.0555 73.5513 56.9725 73.6561 57.3917C73.8264 58.0859 73.1453 59.2429 73.1889 59.483C73.2413 59.7712 74.5686 60.3825 74.9616 60.2253C75.4462 60.0288 75.5728 58.8107 75.4855 58.1296C75.0925 54.9947 72.0712 55.3789 70.8269 56.5403C68.6132 58.6098 69.4341 62.4476 69.3686 62.679C69.3206 62.8406 68.9756 63.3689 68.8621 63.5173C68.539 63.9321 68.408 64.0369 68.0675 63.9976V63.9889ZM19.7959 69.7259C19.7479 69.6997 19.7959 69.7128 19.6431 69.6561C19.5252 69.6124 19.5558 69.6255 19.4423 69.5906C19.3069 69.5513 19.2021 69.5207 19.0581 69.464C18.6738 69.3024 18.1455 68.9837 17.9229 68.665C17.757 68.4248 17.8617 68.1978 17.9141 67.8747C18.0888 66.7963 18.3202 65.5738 18.4293 64.491C18.115 64.6394 17.0278 65.9056 15.6525 65.2114C14.7967 64.7791 14.3296 64.0587 14.216 62.7794C14.0545 60.9544 14.7356 57.658 15.3425 56.1124C16.1939 56.095 17.2287 56.3133 17.8137 56.68C17.8355 56.9332 17.054 59.959 16.9361 60.6008C16.8139 61.26 16.696 62.0328 16.6873 62.714C16.6785 63.4649 16.9361 64.4124 17.6129 63.6527C18.5385 62.6135 19.3418 57.6842 19.5689 55.8941C20.6429 55.964 20.966 56.2478 21.7607 56.5359C21.6471 57.5707 21.4026 58.7102 21.2586 59.7668C21.1058 60.8671 20.9573 61.9455 20.8089 63.0589C20.5163 65.2157 20.298 67.5603 19.94 69.7215H19.8047L19.7959 69.7259ZM64.6314 50.7509H64.1118C63.6708 53.0125 63.1731 55.1955 62.8151 57.5183C62.6011 58.9067 61.9331 63.5523 62.003 64.7093C62.5618 65.1197 63.4351 65.4384 64.3126 65.3947C64.4262 64.9276 64.4436 64.0413 64.4917 63.4999C64.758 60.5746 65.1378 57.5969 65.6574 54.7065C65.7491 54.2044 66.3123 51.6372 66.2905 51.4494C65.8495 51.1307 65.1116 51.0477 64.6314 50.7552V50.7509ZM67.4169 52.7156C68.2552 52.5104 68.9363 53.0954 69.0892 53.7198C69.2987 54.5799 68.7093 55.296 68.0544 55.44C66.2119 55.8417 65.5875 53.1609 67.4126 52.7156H67.4169ZM77.0747 57.5139V55.9858H76.529V55.6758H77.9916V55.9858H77.4502V57.5139H77.0747ZM78.2274 57.5139V55.6714H78.7863L79.1181 56.9289L79.4455 55.6714H80.0044V57.5139H79.6595V56.0644L79.2971 57.5139H78.9391L78.5767 56.0644V57.5139H78.2274Z" fill="#7D8081"/>
<path fill-rule="evenodd" clip-rule="evenodd" d="M30.4361 27.7983C31.2395 24.8031 32.0385 21.808 32.8418 18.8128C30.017 16.6778 25.1662 18.0662 22.1143 22.2883C20.4203 24.4058 21.0708 26.3094 23.1491 25.4319C26.4499 23.7465 28.908 24.4538 30.4361 27.7983Z" fill="#7F1E7C"/>
<path fill-rule="evenodd" clip-rule="evenodd" d="M43.8619 38.4254C46.5208 36.8317 49.1841 35.2381 51.8431 33.6445C54.6723 35.7751 54.6723 40.8224 51.4458 44.9134C49.874 47.1226 47.8656 47.0222 48.1363 44.7824C48.8479 41.1454 47.4944 38.9755 43.8575 38.4254H43.8619Z" fill="#7F1E7C"/>
<path fill-rule="evenodd" clip-rule="evenodd" d="M27.9212 39.0322C26.9607 39.3204 25.9958 39.6129 25.0352 39.9011C26.5284 35.1682 27.6767 31.4003 29.5105 25.6982C31.3442 19.9961 34.4966 14.0232 37.4612 9.42574C44.1806 -0.201505 59.1083 -3.28834 64.758 4.10347C68.753 10.609 67.7138 18.4723 63.8717 24.6678C58.497 32.8891 42.9144 40.198 33.2479 45.8958C33.1736 45.0313 33.0994 44.1711 33.0252 43.3067C30.8552 44.3676 28.6853 45.4286 26.5153 46.4895C26.9825 44.0052 27.4541 41.5209 27.9212 39.0366V39.0322Z" fill="#852683"/>
<path fill-rule="evenodd" clip-rule="evenodd" d="M30.8378 22.0612C32.6715 17.5336 35.1253 13.0496 37.4655 9.42574C44.1806 -0.201505 59.1083 -3.28834 64.758 4.10347C66.0635 6.22976 66.8319 8.50449 67.1419 10.8142C65.0069 14.3944 62.0336 17.9309 58.3791 21.0003C48.0577 29.6844 36.2474 31.3741 32.0035 24.7769C31.4752 23.9561 31.091 23.048 30.8378 22.0656V22.0612Z" fill="#90298D"/>
<path fill-rule="evenodd" clip-rule="evenodd" d="M38.5483 8.01112C45.6738 -0.4853 59.3964 -2.91285 64.758 4.0991C66.0591 6.21666 66.8275 8.48266 67.1375 10.7836C63.8629 13.1675 58.8201 14.7218 53.345 14.7218C45.9576 14.7218 40.0764 11.8926 38.5527 8.01112H38.5483Z" fill="#973D92"/>
<path fill-rule="evenodd" clip-rule="evenodd" d="M27.9212 39.0322C26.9607 39.3204 25.9958 39.6129 25.0352 39.9011C26.3145 35.845 27.3405 32.5006 28.7595 28.0428C32.1694 33.1206 38.0113 38.731 43.6086 40.0626C39.9018 42.1496 36.2823 44.1013 33.2435 45.8914C33.1693 45.0269 33.0951 44.1668 33.0208 43.3023L27.5501 45.9787L26.7118 45.4329L27.9169 39.0322L27.9212 39.0322Z" fill="#7F8082"/>
<path fill-rule="evenodd" clip-rule="evenodd" d="M27.9212 39.0322C26.9607 39.3204 25.9958 39.6129 25.0352 39.9011C26.0831 36.5785 26.9607 33.7318 28.026 30.3612C31.2788 34.9805 35.4746 38.4559 40.8361 41.6126C38.1204 43.1233 35.5182 44.551 33.2479 45.8914C33.1736 45.0269 33.0994 44.1668 33.0252 43.3023C30.8552 44.3632 28.6853 45.4242 26.5153 46.4852C26.9825 44.0009 27.4541 41.5166 27.9212 39.0322Z" fill="#FAAB3B"/>
<path fill-rule="evenodd" clip-rule="evenodd" d="M29.9296 32.8149C32.2568 35.5394 34.9943 37.8534 38.2034 39.9753L35.5968 41.5602L35.5619 39.4514L29.9384 41.9313L30.9382 35.4957L28.8687 36.1244L29.934 32.8149H29.9296Z" fill="#FFD43A"/>
<path fill-rule="evenodd" clip-rule="evenodd" d="M50.0704 0.724108C55.8337 -0.843321 61.6799 0.0691929 64.758 4.10347C67.0371 7.81465 67.6789 11.9668 67.0939 15.9967C59.4226 14.3289 52.0788 6.78862 50.0661 0.724108H50.0704Z" fill="#939099"/>
<path fill-rule="evenodd" clip-rule="evenodd" d="M50.0704 0.724108C55.8337 -0.843321 61.6799 0.0691929 64.758 4.10347C66.0635 6.22976 66.8319 8.50449 67.1419 10.8142C66.2861 12.2506 65.2907 13.6827 64.1729 15.0798C57.6325 12.4165 51.8256 6.01145 50.0704 0.724108Z" fill="#BBBDBF"/>
<path fill-rule="evenodd" clip-rule="evenodd" d="M50.0704 0.724108C55.8337 -0.843321 61.6799 0.0691929 64.758 4.10347C66.0591 6.22102 66.8275 8.48703 67.1375 10.788C65.5352 11.9537 63.5093 12.923 61.2171 13.6041C55.9385 10.4736 51.5505 5.19499 50.0661 0.724108H50.0704Z" fill="#ADAFB1"/>
<path fill-rule="evenodd" clip-rule="evenodd" d="M52.1924 0.261302C57.2265 -0.568257 62.0554 0.566927 64.758 4.10347C66.6092 7.12044 67.382 10.4256 67.2903 13.722C59.9902 12.255 53.8733 6.31708 52.1924 0.261302Z" fill="#AEAAB5"/>
<path fill-rule="evenodd" clip-rule="evenodd" d="M52.1924 0.261302C57.2265 -0.568257 62.0554 0.566927 64.758 4.10347C66.0635 6.22976 66.8319 8.50449 67.1419 10.8142C66.6485 11.6394 66.1115 12.4602 65.5352 13.2766C59.0253 11.2857 53.738 5.82371 52.1967 0.261302H52.1924Z" fill="#CACCCE"/>
<path fill-rule="evenodd" clip-rule="evenodd" d="M37.1424 36.1419C33.4312 39.8225 31.3137 37.6002 33.0296 34.867C34.6319 32.3521 36.2343 29.8372 37.8366 27.3224C40.2773 23.6156 45.2328 26.9905 42.4953 30.466C40.775 32.6927 39.0286 34.4522 37.1424 36.1419Z" fill="#7F1E7C"/>
<path fill-rule="evenodd" clip-rule="evenodd" d="M57.1217 1.10832C59.0297 1.25241 60.5796 1.89859 60.5796 2.54914C60.5796 3.19969 59.034 3.60573 57.1217 3.46165C55.2137 3.31757 53.6637 2.67139 53.6637 2.02084C53.6637 1.37029 55.2093 0.964243 57.1217 1.10832Z" fill="#E8E8E9"/>
<path fill-rule="evenodd" clip-rule="evenodd" d="M49.5771 25.4319C53.2926 25.4319 56.3271 22.4018 56.3271 18.6819C56.3271 14.962 53.297 11.9319 49.5771 11.9319C45.8572 11.9319 42.8271 14.962 42.8271 18.6819C42.8271 22.4018 45.8572 25.4319 49.5771 25.4319Z" fill="white"/>
<path fill-rule="evenodd" clip-rule="evenodd" d="M49.5771 23.9561C52.4805 23.9561 54.847 21.5897 54.847 18.6862C54.847 15.7828 52.4805 13.4164 49.5771 13.4164C46.6736 13.4164 44.3072 15.7828 44.3072 18.6862C44.3072 21.5897 46.6736 23.9561 49.5771 23.9561Z" fill="#1FB2DE"/>
<path fill-rule="evenodd" clip-rule="evenodd" d="M49.7212 19.4765C51.651 19.2669 53.3014 19.8782 53.4061 20.8431C53.5109 21.808 52.0308 22.7598 50.1054 22.9694C48.1756 23.1789 46.5252 22.5677 46.4204 21.6028C46.3156 20.6379 47.7957 19.6861 49.7212 19.4765Z" fill="#AEDAEF"/>
</g>
<defs>
<clipPath id="clip0_1801_10060">
<rect width="80.0044" height="69.7259" fill="white"/>
</clipPath>
</defs>
</svg>
