<svg width="80" height="41" viewBox="0 0 80 41" fill="none" xmlns="http://www.w3.org/2000/svg">
<g clip-path="url(#clip0_1801_10309)">
<path fill-rule="evenodd" clip-rule="evenodd" d="M30.8498 6.9467C30.8498 8.21574 30.0569 9.07168 28.9642 9.07168C27.8716 9.07168 27.047 8.25538 27.047 6.9467C27.047 5.63802 27.8451 4.82167 28.9642 4.82167C30.0833 4.82167 30.8498 5.67766 30.8498 6.9467ZM28.9643 3.03012C26.6196 3.02651 24.9773 4.70264 24.9805 6.94675C24.9837 9.19087 26.593 10.88 28.9643 10.879C31.3356 10.8781 32.9108 9.16555 32.9109 6.94675C32.9111 4.72796 31.3089 3.03373 28.9643 3.03012Z" fill="#FF0025"/>
<path fill-rule="evenodd" clip-rule="evenodd" d="M10.2893 3.03012C9.16002 3.02801 8.31131 3.37811 7.58302 4.07872C6.85473 4.77932 6.44298 5.73891 6.44463 7.06315C6.44626 8.38739 7.00485 9.38976 7.72971 9.97501C8.45457 10.5603 9.32086 10.8792 10.5406 10.879C11.7603 10.8789 12.7032 10.4364 13.1853 10.1355V8.34077C12.8507 8.62459 11.829 9.1801 10.8049 9.1801C9.78086 9.1801 8.72351 8.83807 8.46348 7.57013H13.6469C13.672 7.37105 13.7177 7.07124 13.7166 6.75639C13.7132 5.73249 13.4914 5.05278 12.9667 4.32487C12.442 3.59695 11.4186 3.03222 10.2893 3.03012ZM10.1914 4.589C10.6688 4.589 10.9999 4.7399 11.2553 5.00815C11.5108 5.27639 11.6848 5.67634 11.7127 6.10641H8.50067C8.58848 5.72982 8.6899 5.45952 8.9728 5.12941C9.2557 4.7993 9.71398 4.589 10.1914 4.589Z" fill="#FF0025"/>
<path fill-rule="evenodd" clip-rule="evenodd" d="M14.7542 8.54492e-06V9.45532C14.7542 10.4331 15.4508 10.8791 16.1333 10.8791C16.8157 10.8791 17.2485 10.6518 17.2485 10.6518C17.2485 10.6518 16.8324 10.3149 16.8306 8.81742C16.8288 7.3651 16.8304 1.90476 16.8306 1.25883C16.8307 0.612901 16.4186 8.54492e-06 15.6586 8.54492e-06H14.7542Z" fill="#FF0025"/>
<path fill-rule="evenodd" clip-rule="evenodd" d="M0.101702 1.42354V2.49121H3.11798V9.45532C3.11798 10.4331 3.81467 10.8791 4.49709 10.8791C5.17951 10.8791 5.61236 10.6518 5.61236 10.6518C5.61236 10.6518 5.19619 10.3149 5.19439 8.81742C5.19264 7.36509 5.19423 2.78557 5.19439 2.13964C5.19455 1.49371 4.44157 0.330673 3.20258 0.330676L1.28769 0.330682C0.660095 0.330684 0.101702 0.841853 0.101702 1.42354ZM4.53149 0.330676C4.49193 0.330676 4.4601 0.362502 4.4601 0.402059C4.4601 0.441617 4.49979 0.470961 4.53149 0.49462C4.66285 0.592657 5.07228 0.882921 5.26779 1.28004C5.46331 1.67716 5.46797 2.03755 5.595 2.24573C5.72203 2.4539 5.92935 2.49121 6.14861 2.49121H7.72503C8.07336 2.49121 8.21025 2.25709 8.21025 1.97941V0.330676H4.53149Z" fill="#FF0025"/>
<path fill-rule="evenodd" clip-rule="evenodd" d="M18.1921 0V10.7548H20.2685C20.2685 9.63877 20.2686 8.52091 20.2685 7.35453C20.7173 7.87313 21.9439 9.31493 22.0998 9.49602C22.6558 10.142 23.0547 10.7548 23.9643 10.7548H25.625C25.625 10.7548 23.6167 8.43408 23.4321 8.2197C22.9337 7.64071 22.5528 7.08864 21.8242 6.98036V6.90505C22.4522 6.76251 22.8172 6.23559 23.2701 5.68421C23.4462 5.46983 25.3261 3.14912 25.3261 3.14912H22.9746L20.2685 6.45137C20.2685 6.45137 20.2684 1.96365 20.2685 0H18.1921Z" fill="#FF0025"/>
<path fill-rule="evenodd" clip-rule="evenodd" d="M37.893 3.03012C37.0653 3.03012 36.5194 3.39732 36.2727 3.68125C36.0261 3.96518 36.0663 4.0434 35.9923 4.09785C35.851 3.54238 35.4742 3.15016 34.8276 3.15016H33.9232V10.7548H35.9996V6.8283C35.9996 5.59666 36.5674 4.80006 37.3723 4.8024C38.1771 4.80474 38.623 5.21496 38.623 6.16674V10.7548H40.6994V6.86074C40.6994 5.75383 41.1472 4.79708 42.1039 4.8024C43.0606 4.80772 43.3652 5.43501 43.3652 6.25672V10.7548H45.4258V5.71003C45.4258 4.8502 45.1715 4.21398 44.6519 3.73527C44.1323 3.25656 43.5643 3.03012 42.6299 3.03012C41.6956 3.03012 41.035 3.41686 40.5272 3.96853C40.4386 4.06481 40.3549 4.19501 40.2769 4.30334C40.1473 4.02761 39.9196 3.72565 39.7246 3.56337C39.2353 3.15626 38.7207 3.03012 37.893 3.03012Z" fill="#FF0025"/>
<path fill-rule="evenodd" clip-rule="evenodd" d="M49.5407 3.03012C48.2843 3.02787 47.6072 3.42047 47.2256 3.75624C46.8441 4.09201 46.496 4.51737 46.4929 5.43798C46.4897 6.35858 47.1637 7.11808 48.4932 7.52658C49.8228 7.93509 50.3739 8.07598 50.3695 8.52483C50.3652 8.97368 50.034 9.25944 49.0991 9.25944C48.1643 9.25944 47.2196 8.84409 46.539 8.22969V10.1143C47.0475 10.4946 48.0309 10.8789 49.2048 10.8791C50.3787 10.8792 51.087 10.592 51.4953 10.2682C51.9036 9.94444 52.3735 9.43074 52.3699 8.40392C52.3664 7.3771 51.6784 6.70156 50.6297 6.33453C49.5809 5.9675 48.5992 5.84372 48.5181 5.41494C48.437 4.98617 48.6806 4.69601 49.4536 4.62602C50.2266 4.55604 51.4816 4.95434 51.907 5.37587V3.63229C51.5104 3.40275 50.7971 3.03238 49.5407 3.03012Z" fill="#FF0025"/>
<path fill-rule="evenodd" clip-rule="evenodd" d="M56.7759 3.03012C55.6465 3.02801 54.7978 3.37811 54.0695 4.07872C53.3412 4.77932 52.9295 5.73891 52.9312 7.06315C52.9328 8.38739 53.4914 9.38976 54.2162 9.97501C54.9411 10.5603 55.8074 10.8792 57.0271 10.879C58.2468 10.8789 59.1897 10.4364 59.6718 10.1355V8.34077C59.3373 8.62459 58.3155 9.18011 57.2914 9.18011C56.2674 9.18011 55.21 8.83807 54.95 7.57013H60.1335C60.1585 7.37105 60.2042 7.07125 60.2031 6.7564C60.1997 5.73249 59.978 5.05278 59.4532 4.32487C58.9285 3.59695 57.9052 3.03222 56.7759 3.03012ZM56.6779 4.589C57.1553 4.589 57.4864 4.7399 57.7419 5.00815C57.9973 5.27639 58.1713 5.67634 58.1992 6.10641H54.9872C55.075 5.72982 55.1764 5.45952 55.4593 5.12941C55.7422 4.7993 56.2005 4.589 56.6779 4.589Z" fill="#FF0025"/>
<path fill-rule="evenodd" clip-rule="evenodd" d="M61.2407 8.54492e-06V9.45532C61.2407 10.4331 61.9373 10.8791 62.6198 10.8791C63.3022 10.8791 63.735 10.6518 63.735 10.6518C63.735 10.6518 63.3189 10.3149 63.3171 8.81742C63.3153 7.3651 63.3171 1.90476 63.3171 1.25883C63.3171 0.612901 62.9051 8.54492e-06 62.1451 8.54492e-06H61.2407Z" fill="#FF0025"/>
<path d="M11.1018 15.6229C8.80025 15.6229 6.80327 16.1306 5.14477 17.146C3.48627 18.1614 2.20006 19.5829 1.32004 21.4784C0.440023 23.3738 -0.00645674 25.5739 7.05451e-05 28.1462C0.00323913 29.3949 0.133278 30.814 0.40672 31.9256C0.530555 32.429 0.914077 33.5561 2.03348 33.8574C3.41588 34.2296 5.78178 32.8521 6.21391 32.5903C5.74999 31.3991 5.51704 29.9223 5.51704 28.1462C5.51704 25.6077 5.99104 23.6784 6.93875 22.3245C7.88646 20.9706 9.24028 20.2937 11.0342 20.2937C12.828 20.2937 14.2157 21.0045 15.1972 22.3584C16.1788 23.7123 16.6866 25.6415 16.6866 28.1462C16.6866 30.6509 16.1788 32.6141 15.1972 33.9679C14.2157 35.3218 12.828 35.9987 11.0342 35.9987C9.24028 35.9987 7.88646 35.3218 6.93875 33.9679C6.87977 33.8837 6.82261 33.7971 6.76731 33.7083L3.38767 37.8048C3.92338 38.3272 4.51987 38.785 5.17868 39.1803C6.87103 40.1957 8.83416 40.6695 11.1357 40.6695C13.4035 40.6695 15.3665 40.1957 17.025 39.1803C18.6835 38.1649 19.9697 36.7434 20.8497 34.848C21.7297 32.9525 22.2036 30.7186 22.2036 28.1462C22.2036 25.5738 21.7297 23.3738 20.8497 21.4784C19.9697 19.5829 18.6835 18.1614 17.025 17.146C15.3326 16.1306 13.3696 15.6229 11.1018 15.6229Z" fill="#FF0025"/>
<path d="M25.0118 22.8661V40.3311H30.3257V30.9217C30.3257 29.6693 30.6642 28.6878 31.3411 27.977C32.0181 27.2662 32.9658 26.8939 34.2181 26.8939C35.3012 26.8939 36.1474 27.1647 36.7905 27.7062C37.5013 26.8939 37.8736 25.98 37.8736 25.0323C37.8736 24.2538 37.6028 23.6446 37.0951 23.1707C36.5874 22.7307 35.9105 22.4938 35.0305 22.4938C34.015 22.4938 33.1012 22.7984 32.2212 23.4077C31.3411 24.0169 30.6981 24.8292 30.2919 25.8108V25.3708C30.2919 24.4908 29.9873 23.78 29.4457 23.2384C28.9042 22.6969 28.1595 22.4261 27.2118 22.4261C26.3318 22.4261 25.5872 22.5953 25.0118 22.8661Z" fill="#FF0025"/>
<path d="M53.9023 23.3738C52.8192 22.6292 51.5669 22.223 50.1115 22.223C47.5729 22.223 45.8467 23.4077 44.9667 25.7092V18.026C44.9667 17.0444 44.696 16.2998 44.1544 15.7583C43.6129 15.2167 42.8682 14.9459 41.8528 14.9459C41.4467 14.9459 41.0743 15.0136 40.6682 15.0813C40.262 15.149 39.9235 15.2506 39.6528 15.3859V39.9926C40.2282 40.2972 40.9728 40.4326 41.8528 40.4326C42.8005 40.4326 43.5113 40.2295 44.019 39.8234C44.4929 39.4172 44.7975 38.7403 44.899 37.7926C45.8467 39.7218 47.6068 40.6696 50.1115 40.6696C52.3453 40.6696 54.0715 39.8572 55.3239 38.1987C56.5762 36.5402 57.2193 34.3063 57.2193 31.4971C57.2193 29.6693 56.9147 28.0447 56.3731 26.6231C55.7977 25.2354 54.9854 24.1523 53.9023 23.3738ZM50.8561 35.2879C50.213 36.2018 49.333 36.6418 48.216 36.6418C47.336 36.6418 46.5575 36.371 45.9144 35.7618C45.2713 35.1525 44.9667 34.4417 44.9667 33.6294V29.6355C44.9667 28.6878 45.2713 27.9093 45.9144 27.2662C46.5237 26.6231 47.336 26.2846 48.2837 26.2846C49.3668 26.2846 50.213 26.7585 50.8561 27.6724C51.4992 28.5862 51.8376 29.8386 51.8376 31.4632C51.8376 33.0879 51.4992 34.374 50.8561 35.2879Z" fill="#FF0025"/>
<path d="M60.0887 17.3491C59.8179 17.6875 59.6825 17.9922 59.6825 18.2629C59.6825 18.6014 59.8179 18.906 60.0887 19.1091L62.5933 21.1738L64.9626 18.6691C65.2334 18.3645 65.3688 18.0598 65.3688 17.7552C65.3688 17.4506 65.2334 17.1798 64.9626 16.9091L62.458 14.8444L60.0887 17.3491ZM59.8856 22.5615V37.3526C59.8856 38.368 60.1225 39.1126 60.6641 39.6542C61.2056 40.1957 61.9841 40.4326 62.9995 40.4326C63.3718 40.4326 63.778 40.3988 64.1841 40.3311C64.5903 40.2634 64.9288 40.128 65.1996 39.9926V22.5615H59.8856Z" fill="#FF0025"/>
<path d="M69.8459 22.5615H66.7997C66.7997 23.5769 66.8674 24.3215 67.0705 24.8631C67.2397 25.4046 67.5444 25.8108 67.9844 26.0139C68.4244 26.2508 69.0675 26.3862 69.8798 26.3862V35.1187C69.8798 36.8787 70.3198 38.2326 71.2337 39.1803C72.1475 40.128 73.4676 40.568 75.1599 40.568C76.7507 40.568 77.9692 40.3311 78.7815 39.8572C79.5938 39.3834 80 38.6726 80 37.7249C80 37.4541 79.9323 37.1833 79.8308 36.9126C79.6954 36.6418 79.56 36.4049 79.3908 36.1341C79.2215 35.8633 79.0861 35.6602 79.0184 35.5248C78.7477 35.7956 78.443 35.9987 78.0369 36.1679C77.6307 36.3372 77.2246 36.4049 76.8184 36.4049C75.7014 36.4049 75.1599 35.8972 75.1599 34.8141V26.3862H79.6277V22.5615H75.126V20.6661C75.126 19.6845 74.8553 18.9399 74.3137 18.3983C73.7722 17.8568 73.0275 17.586 72.046 17.586C71.6398 17.586 71.2675 17.6537 70.8613 17.7214C70.4552 17.7891 70.1167 17.8906 69.8459 18.026V22.5615Z" fill="#FF0025"/>
</g>
<defs>
<clipPath id="clip0_1801_10309">
<rect width="80" height="40.6696" fill="white"/>
</clipPath>
</defs>
</svg>
