<svg width="80" height="28" viewBox="0 0 80 28" fill="none" xmlns="http://www.w3.org/2000/svg">
<g clip-path="url(#clip0_1801_18858)">
<path d="M4.32302 0.00170898L0 10.0779H2.81451L3.61216 8.06022H8.24928L9.0428 10.0779H11.9193L7.60041 0.00170898H4.32302ZM5.92245 2.34675L7.33591 5.87262H4.50487L5.92245 2.34675V2.34675Z" fill="#016FD0"/>
<path d="M12.217 10.0762V0L16.2166 0.0148947L18.5429 6.51141L20.8135 0H24.7811V10.0762H22.2683V2.65164L19.6046 10.0762H17.4009L14.7298 2.65164V10.0762H12.217Z" fill="#016FD0"/>
<path d="M26.5005 10.0762V0H34.7002V2.2539H29.0397V3.97746H34.5679V6.09878H29.0397V7.88864H34.7002V10.0762H26.5005Z" fill="#016FD0"/>
<path d="M36.1548 0.00170898V10.0779H38.6676V6.49823H39.7256L42.7385 10.0779H45.8092L42.5029 6.36565C43.8599 6.25086 45.2596 5.08333 45.2596 3.27069C45.2596 1.1503 43.5994 0.00170898 41.7466 0.00170898H36.1548V0.00170898ZM38.6676 2.2556H41.54C42.229 2.2556 42.7302 2.79593 42.7302 3.31626C42.7302 3.98568 42.0808 4.37692 41.5772 4.37692H38.6676V2.2556V2.2556Z" fill="#016FD0"/>
<path d="M48.8509 10.0762H46.2852V0H48.8509V10.0762Z" fill="#016FD0"/>
<path d="M54.9345 10.0762H54.3807C51.7011 10.0762 50.0742 7.95991 50.0742 5.07955C50.0742 2.12804 51.6829 0 55.0668 0H57.8441V2.38648H54.9652C53.5916 2.38648 52.6201 3.46115 52.6201 5.10441C52.6201 7.05579 53.7309 7.87538 55.3313 7.87538H55.9925L54.9345 10.0762Z" fill="#016FD0"/>
<path d="M60.4026 0.00170898L56.0796 10.0779H58.8941L59.6917 8.06022H64.3289L65.1224 10.0779H67.9989L63.68 0.00170898H60.4026ZM62.002 2.34675L63.4155 5.87262H60.5845L62.002 2.34675Z" fill="#016FD0"/>
<path d="M68.2922 10.0762V0H71.487L75.5662 6.3308V0H78.079V10.0762H74.9875L70.805 3.57972V10.0762H68.2922Z" fill="#016FD0"/>
<path d="M12.6028 27.7097V17.6334H20.8025V19.8873H15.142V21.6109H20.6702V23.7322H15.142V25.5221H20.8025V27.7097H12.6028Z" fill="#016FD0"/>
<path d="M52.7812 27.7097V17.6334H60.9809V19.8873H55.3205V21.6109H60.8222V23.7322H55.3205V25.5221H60.9809V27.7097H52.7812Z" fill="#016FD0"/>
<path d="M21.1209 27.7097L25.1133 22.7337L21.0259 17.6334H24.1917L26.626 20.7864L29.0685 17.6334H32.1103L28.0766 22.6715L32.0764 27.7097H28.911L26.5474 24.6064L24.2413 27.7097H21.1209Z" fill="#016FD0"/>
<path d="M32.3745 17.6351V27.7114H34.9534V24.5294H37.5985C39.8366 24.5294 41.533 23.3391 41.533 21.0243C41.533 19.1067 40.2025 17.6351 37.925 17.6351H32.3745V17.6351ZM34.9534 19.9139H37.739C38.4621 19.9139 38.9789 20.3581 38.9789 21.074C38.9789 21.7465 38.4647 22.2341 37.7308 22.2341H34.9534V19.9139Z" fill="#016FD0"/>
<path d="M42.6243 17.6334V27.7097H45.1371V24.1299H46.1951L49.208 27.7097H52.2787L48.9724 23.9974C50.3293 23.8826 51.7291 22.715 51.7291 20.9024C51.7291 18.782 50.0689 17.6334 48.2161 17.6334H42.6243V17.6334ZM45.1371 19.8873H48.0094C48.6985 19.8873 49.1997 20.4276 49.1997 20.948C49.1997 21.6174 48.5503 22.0086 48.0466 22.0086H45.1371V19.8873V19.8873Z" fill="#016FD0"/>
<path d="M62.1445 27.7097V25.5221H67.1734C67.9175 25.5221 68.2397 25.119 68.2397 24.6769C68.2397 24.2533 67.9185 23.825 67.1734 23.825H64.9009C62.9256 23.825 61.8254 22.6185 61.8254 20.8071C61.8254 19.1915 62.8329 17.6334 65.7682 17.6334H70.6616L69.6036 19.9006H65.3715C64.5625 19.9006 64.3134 20.3261 64.3134 20.7325C64.3134 21.1502 64.6212 21.6109 65.2392 21.6109H67.6198C69.8218 21.6109 70.7773 22.8631 70.7773 24.5028C70.7773 26.2658 69.7126 27.7097 67.4999 27.7097H62.1445Z" fill="#016FD0"/>
<path d="M71.3672 27.7097V25.5221H76.3961C77.1402 25.5221 77.4624 25.119 77.4624 24.6769C77.4624 24.2533 77.1412 23.825 76.3961 23.825H74.1236C72.1482 23.825 71.0481 22.6185 71.0481 20.8071C71.0481 19.1915 72.0555 17.6334 74.9909 17.6334H79.8842L78.8262 19.9006H74.5941C73.7851 19.9006 73.5361 20.3261 73.5361 20.7325C73.5361 21.1502 73.8439 21.6109 74.4619 21.6109H76.8424C79.0445 21.6109 80 22.8631 80 24.5028C80 26.2658 78.9352 27.7097 76.7226 27.7097H71.3672Z" fill="#016FD0"/>
</g>
<defs>
<clipPath id="clip0_1801_18858">
<rect width="80" height="27.7114" rx="8" fill="white"/>
</clipPath>
</defs>
</svg>
