<svg width="80" height="80" viewBox="0 0 80 80" fill="none" xmlns="http://www.w3.org/2000/svg">
<g clip-path="url(#clip0_1801_19652)">
<g clip-path="url(#clip1_1801_19652)">
<path d="M80 43.2962V0H0V80H80V56.6592C79.8218 56.6592 80 43.2962 80 43.2962Z" fill="#006FCF"/>
<path d="M70.2004 38.8418H76.2584V24.7661H69.6659V26.726L68.4187 24.7661H62.7172V27.2605L61.6481 24.7661H51.1359C50.7795 24.7661 50.4232 24.9443 50.0668 24.9443C49.7105 24.9443 49.5323 25.1225 49.1759 25.3006C48.8196 25.4788 48.6414 25.4788 48.2851 25.657V24.7661H18.1737L17.2829 27.0824L16.392 24.7661H9.26503V27.2605L8.19599 24.7661H2.49443L0 30.824V38.8418H4.098L4.81069 36.8819H6.23608L6.94878 38.8418H38.3073V37.0601L39.5546 38.8418H48.2851V37.7728C48.4633 37.951 48.8196 37.951 48.9978 38.1291C49.1759 38.3073 49.5323 38.3073 49.7105 38.4855C50.0668 38.6637 50.4232 38.6637 50.7795 38.6637H57.1938L57.9065 36.7038H59.3318L60.0445 38.6637H68.7751V36.8819L70.2004 38.8418ZM80 56.6592V43.4744H31.0022L29.755 45.2561L28.5078 43.4744H14.2539V57.5501H28.5078L29.755 55.7683L31.0022 57.5501H39.9109V54.5211H39.5546C40.8018 54.5211 41.8708 54.3429 42.7617 53.9866V57.7283H49.1759V55.9465L50.4232 57.7283H76.971C78.0401 57.3719 79.1091 57.1937 80 56.6592Z" fill="white"/>
<path d="M76.971 53.2739H72.1604V55.2338H76.7929C78.7528 55.2338 80 53.9866 80 52.2049C80 50.4232 78.931 49.5323 77.1492 49.5323H75.0111C74.4766 49.5323 74.1203 49.1759 74.1203 48.6414C74.1203 48.1069 74.4766 47.7506 75.0111 47.7506H79.1091L80 45.7906H75.1893C73.2294 45.7906 71.9822 47.0379 71.9822 48.6414C71.9822 50.4232 73.0512 51.314 74.833 51.314H76.971C77.5056 51.314 77.8619 51.6704 77.8619 52.2049C78.0401 52.9176 77.6837 53.2739 76.971 53.2739ZM68.2405 53.2739H63.4298V55.2338H68.0624C70.0223 55.2338 71.2695 53.9866 71.2695 52.2049C71.2695 50.4232 70.2004 49.5323 68.4187 49.5323H66.2806C65.7461 49.5323 65.3898 49.1759 65.3898 48.6414C65.3898 48.1069 65.7461 47.7506 66.2806 47.7506H70.3786L71.2695 45.7906H66.4588C64.4989 45.7906 63.2517 47.0379 63.2517 48.6414C63.2517 50.4232 64.3207 51.314 66.1025 51.314H68.2405C68.7751 51.314 69.1314 51.6704 69.1314 52.2049C69.3096 52.9176 68.7751 53.2739 68.2405 53.2739ZM62.0045 47.5724V45.6125H54.5212V55.0557H62.0045V53.0958H56.6592V51.1359H61.8263V49.1759H56.6592V47.3942H62.0045V47.5724ZM49.8886 47.5724C50.7795 47.5724 51.1359 48.1069 51.1359 48.6414C51.1359 49.1759 50.7795 49.7105 49.8886 49.7105H47.216V47.3942L49.8886 47.5724ZM47.216 51.6704H48.2851L51.1359 55.0557H53.8085L50.6013 51.4922C52.2049 51.1358 53.0958 50.0668 53.0958 48.6414C53.0958 46.8597 51.8486 45.6125 49.8886 45.6125H44.8998V55.0557H47.0379L47.216 51.6704ZM41.5145 48.8196C41.5145 49.5323 41.1581 50.0668 40.2673 50.0668H37.4165V47.5724H40.0891C40.98 47.5724 41.5145 48.1069 41.5145 48.8196ZM35.2784 45.6125V55.0557H37.4165V51.8485H40.2673C42.2272 51.8485 43.6526 50.6013 43.6526 48.6414C43.6526 46.8597 42.4053 45.4343 40.4454 45.4343L35.2784 45.6125ZM32.0713 55.0557H34.7439L31.0022 50.245L34.7439 45.6125H32.0713L29.755 48.6414L27.4388 45.6125H24.7661L28.5078 50.245L24.7661 54.8775H27.4388L29.755 51.8485L32.0713 55.0557ZM24.0535 47.5724V45.6125H16.5702V55.0557H24.0535V53.0958H18.7082V51.1359H23.8753V49.1759H18.7082V47.3942H24.0535V47.5724ZM67.3497 30.824L71.0913 36.5256H73.7639V27.0824H71.6258V33.3185L71.0913 32.4276L67.706 27.0824H64.8552V36.5256H66.9933V30.1114L67.3497 30.824ZM58.0846 30.6459L58.7973 28.686L59.51 30.6459L60.4009 32.784H57.1938L58.0846 30.6459ZM61.8263 36.5256H64.1425L60.0445 27.0824H57.1938L53.0958 36.5256H55.412L56.3029 34.5657H60.9354L61.8263 36.5256ZM51.8485 36.5256L52.7394 34.5657H52.2049C50.6013 34.5657 49.7105 33.4967 49.7105 31.8931V31.7149C49.7105 30.1113 50.6013 29.0423 52.2049 29.0423H54.5212V27.0824H52.0267C49.1759 27.0824 47.5724 29.0423 47.5724 31.7149V31.8931C47.5724 34.7439 49.1759 36.5256 51.8485 36.5256ZM43.8307 36.5256H45.9688V27.2606H43.8307V36.5256ZM39.1982 29.0423C40.0891 29.0423 40.4454 29.5768 40.4454 30.1114C40.4454 30.6459 40.0891 31.1804 39.1982 31.1804H36.5256V28.8641L39.1982 29.0423ZM36.5256 33.1403H37.5947L40.4454 36.5256H43.118L39.9109 32.9621C41.5145 32.6058 42.4053 31.5367 42.4053 30.1114C42.4053 28.3296 41.1581 27.0824 39.1982 27.0824H34.2094V36.5256H36.3474L36.5256 33.1403ZM32.6058 29.0423V27.0824H25.1225V36.5256H32.6058V34.5657H27.2606V32.6058H32.4276V30.6459H27.2606V28.8641H32.6058V29.0423ZM16.392 36.5256H18.3519L21.0245 28.8641V36.5256H23.1626V27.0824H19.5991L17.461 33.4967L15.3229 27.0824H11.7595V36.5256H13.8976V28.8641L16.392 36.5256ZM4.81069 30.6459L5.52339 28.686L6.23608 30.6459L7.12695 32.784H3.91982L4.81069 30.6459ZM8.55234 36.5256H10.8686L6.7706 27.0824H4.098L0 36.5256H2.31626L3.20713 34.5657H7.83964L8.55234 36.5256Z" fill="#006FCF"/>
</g>
</g>
<defs>
<clipPath id="clip0_1801_19652">
<rect width="80" height="80" rx="8" fill="white"/>
</clipPath>
<clipPath id="clip1_1801_19652">
<rect width="80" height="80" fill="white"/>
</clipPath>
</defs>
</svg>
