<svg width="80" height="80" viewBox="0 0 80 80" fill="none" xmlns="http://www.w3.org/2000/svg">
<g clip-path="url(#clip0_1801_18876)">
<g clip-path="url(#clip1_1801_18876)">
<path d="M80 80V67.3232H70.3488L65.3792 61.8288L60.3856 67.3232H28.5648V41.7152H18.2944L31.0336 12.8848H43.32L47.7056 22.7616V12.8848H62.9136L65.5536 20.328L68.2112 12.8848H80V0H0V80H80ZM71.9744 64.1168H80L69.384 52.8592L80 41.7296H72.1024L65.5456 48.8944L59.0528 41.7296H51.0256L61.5792 52.9232L51.0256 64.1168H58.8304L65.4192 56.888L71.976 64.1168H71.9744ZM73.8512 52.8688L79.9984 59.4096V46.3824L73.8512 52.8688ZM38.0704 58.936V55.4496H50.704V50.3968H38.0704V46.9104H51.024V41.7296H31.9616V64.1184H51.024V58.9376H38.0704V58.936ZM73.9536 38.48H79.9984V16.0912H70.5952L65.5728 30.0352L60.584 16.0912H51.0208V38.48H57.0656V22.808L62.8224 38.48H68.1952L73.952 22.776V38.48H73.9536ZM44.1456 38.48H51.0224L41.1392 16.0912H33.2704L23.3872 38.48H30.104L31.96 34.0016H42.2592L44.1456 38.48ZM40.1472 28.9808H34.0704L37.1088 21.656L40.1472 28.9808Z" fill="#006FCF"/>
</g>
</g>
<defs>
<clipPath id="clip0_1801_18876">
<rect width="80" height="80" rx="8" fill="white"/>
</clipPath>
<clipPath id="clip1_1801_18876">
<rect width="80" height="80" fill="white"/>
</clipPath>
</defs>
</svg>
