<svg width="80" height="24" viewBox="0 0 80 24" fill="none" xmlns="http://www.w3.org/2000/svg">
<g clip-path="url(#clip0_1801_20110)">
<g clip-path="url(#clip1_1801_20110)">
<path d="M57.2971 7.47962V22.8233H60.4466V13.635C60.4466 11.4602 61.701 10.1049 63.7282 10.1049C64.3379 10.1049 64.8932 10.1787 65.1418 10.2796V7.34758C64.9088 7.30487 64.5127 7.23108 64.0622 7.23108C62.2525 7.23108 60.8816 8.29516 60.3728 10.0893H60.2991V7.47962H57.2971Z" fill="black"/>
<path d="M76.8311 10.031H76.7728C75.9146 8.33779 74.1631 7.23099 71.9612 7.23099C68.1126 7.23099 65.5457 10.3067 65.5457 15.1494C65.5457 19.9922 68.1126 23.0834 71.9884 23.0834C74.2214 23.0834 75.969 21.9611 76.8738 20.2096H76.9321V22.8193H79.9961V1.77856H76.8311V10.031ZM72.8233 20.4155C70.3301 20.4155 68.769 18.3883 68.769 15.1494C68.769 11.9261 70.3301 9.88342 72.8233 9.88342C75.2427 9.88342 76.8622 11.9689 76.8622 15.1494C76.8622 18.3611 75.2427 20.4155 72.8233 20.4155Z" fill="black"/>
<path d="M47.2156 13.9223C43.569 14.1281 41.5146 15.7747 41.5146 18.4582C41.5146 21.2155 43.6117 23.0834 46.6176 23.0757C48.6331 23.0757 50.571 21.9961 51.4603 20.2912H51.5341V22.8155H54.5515V12.2446C54.5515 9.16888 52.1748 7.19995 48.4545 7.19995C44.6603 7.19995 42.2991 9.24267 42.1244 12.0116H45.0991C45.3787 10.6407 46.5166 9.76694 48.3379 9.76694C50.2603 9.76694 51.4137 10.7883 51.4137 12.4932V13.6737L47.2156 13.9223ZM51.4137 17.0757C51.4137 19.0718 49.6933 20.5864 47.4913 20.5902C45.7981 20.5902 44.6913 19.7126 44.6913 18.3728C44.6913 17.0601 45.7554 16.2291 47.635 16.097L51.4137 15.864V17.0757Z" fill="black"/>
<path d="M31.1884 4.28733C34.0466 4.28733 36.2913 6.05044 36.8738 8.74947H40.1127C39.5573 4.36112 35.9573 1.42908 31.1884 1.42908C25.3127 1.42908 21.5496 5.62714 21.5496 12.2912C21.5496 18.998 25.2816 23.1689 31.1884 23.1689C36.0311 23.1689 39.3243 20.6174 40.1282 16.2718H36.8777C36.2214 18.8077 34.136 20.3106 31.2039 20.3106C27.3399 20.3106 24.8894 17.2038 24.8894 12.2912C24.8894 7.42131 27.367 4.28733 31.1884 4.28733Z" fill="black"/>
<path d="M9.73204 5.44857C9.71651 5.30876 9.70485 5.16507 9.70485 5.01362C9.70485 3.90682 10.1864 2.72235 11.0408 1.75536C11.468 1.26604 12.0117 0.858275 12.6718 0.532062C13.3282 0.209731 13.9495 0.0349742 14.5359 0.00390625C14.5553 0.155363 14.5631 0.306819 14.5631 0.462159C14.5631 1.61556 14.1437 2.69128 13.301 3.68934C12.2874 4.87381 11.0641 5.5573 9.73204 5.44857ZM5.94175 5.52235C4.92427 5.53789 3.9767 5.80196 3.10291 6.32235C2.22524 6.84274 1.52621 7.54954 1.00194 8.44662C0.333981 9.56119 0 10.8932 0 12.4389C0 13.7864 0.248544 15.1806 0.745631 16.6214C1.20777 17.9534 1.79806 19.1224 2.51262 20.1282C3.18058 21.068 3.73592 21.7359 4.18252 22.1243C4.87767 22.7728 5.5767 23.0835 6.27961 23.0525C6.74175 23.0369 7.34369 22.8777 8.0932 22.5748C8.83883 22.2719 9.53786 22.1243 10.1903 22.1243C10.8117 22.1243 11.4913 22.2719 12.2291 22.5748C12.967 22.8816 13.6 23.0292 14.1243 23.0292C14.8544 23.0097 15.5379 22.7107 16.1748 22.1243C16.5864 21.767 17.1184 21.1224 17.7709 20.1942C18.2485 19.5107 18.6602 18.769 19.0097 17.9651C19.1534 17.6233 19.2893 17.266 19.4136 16.9049C18.8233 16.6563 18.2913 16.3068 17.8175 15.8563C16.7689 14.8855 16.2369 13.6622 16.2214 12.1903C16.2019 10.3029 17.0602 8.83109 18.7961 7.77866C17.8291 6.40002 16.3689 5.63497 14.4311 5.47963C13.7165 5.4175 12.8427 5.57284 11.8058 5.94565C10.7107 6.34565 10.066 6.5476 9.87573 6.5476C9.6233 6.5476 9.04078 6.37284 8.13592 6.03497C7.23107 5.69323 6.49709 5.52235 5.94175 5.52235Z" fill="black"/>
</g>
</g>
<defs>
<clipPath id="clip0_1801_20110">
<rect width="80" height="23.1689" rx="8" fill="white"/>
</clipPath>
<clipPath id="clip1_1801_20110">
<rect width="80" height="23.1689" fill="white"/>
</clipPath>
</defs>
</svg>
