<svg width="80" height="63" viewBox="0 0 80 63" fill="none" xmlns="http://www.w3.org/2000/svg">
<g clip-path="url(#clip0_1801_18846)">
<path d="M50.0581 58.998C50.0701 59.4606 49.981 59.9203 49.797 60.3449C49.6391 60.699 49.4044 61.0135 49.1098 61.2656C48.8236 61.5051 48.4916 61.6839 48.1342 61.7912C47.3997 62.0159 46.6148 62.0159 45.8804 61.7912C45.522 61.6835 45.189 61.5048 44.9012 61.2656C44.6053 61.0148 44.3704 60.6999 44.2141 60.3449C44.0324 59.9197 43.9445 59.4603 43.9564 58.998V55.2047H45.3994V58.8676C45.3927 59.1419 45.4346 59.4153 45.523 59.675C45.5936 59.8785 45.71 60.063 45.8632 60.2143C46.0084 60.3522 46.1836 60.4545 46.3751 60.513C46.7874 60.6368 47.2271 60.6368 47.6394 60.513C47.8309 60.4545 48.0062 60.3522 48.1513 60.2143C48.3046 60.063 48.421 59.8785 48.4914 59.675C48.58 59.4153 48.6219 59.1419 48.6152 58.8676V55.2047H50.0581V58.998ZM36.7548 55.0398C36.4057 55.0295 36.0603 55.1136 35.755 55.2832C35.4497 55.4529 35.1959 55.7017 35.0202 56.0035V55.2051H33.6022V61.7856H35.0339V58.0961C35.0339 57.0085 35.502 56.4027 36.4382 56.4027C36.7444 56.3985 37.0485 56.4547 37.333 56.5681L37.7736 55.2189C37.4466 55.1018 37.1021 55.0413 36.7548 55.0398ZM41.8535 55.0398C41.5044 55.0295 41.159 55.1136 40.8537 55.2832C40.5485 55.4529 40.2946 55.7017 40.1189 56.0035V55.2051H38.7009V61.7856H40.1326V58.0961C40.1326 57.0085 40.6007 56.4027 41.5369 56.4027C41.8432 56.3985 42.1472 56.4547 42.4318 56.5681L42.8723 55.2189C42.5453 55.1018 42.2008 55.0413 41.8535 55.0398ZM22.8639 58.4953C22.8449 58.9589 22.9231 59.4214 23.0935 59.8529C23.264 60.2844 23.5229 60.6755 23.8535 61.001C24.1842 61.3265 24.5793 61.5792 25.0135 61.7428C25.4477 61.9064 25.9113 61.9773 26.3746 61.9509C27.2341 61.9941 28.0788 61.7141 28.7424 61.166L28.054 60.0096C27.5591 60.387 26.9555 60.5946 26.3331 60.6016C25.7966 60.5691 25.2927 60.333 24.9244 59.9416C24.556 59.5502 24.3508 59.0329 24.3508 58.4954C24.3508 57.9579 24.556 57.4406 24.9244 57.0492C25.2927 56.6578 25.7966 56.4217 26.3331 56.3892C26.9555 56.3962 27.5591 56.6038 28.054 56.9811L28.7424 55.8247C28.0788 55.2767 27.2341 54.9967 26.3746 55.0398C25.9113 55.0135 25.4477 55.0844 25.0135 55.248C24.5794 55.4116 24.1843 55.6642 23.8536 55.9897C23.5229 56.3152 23.264 56.7062 23.0936 57.1378C22.9231 57.5693 22.8449 58.0317 22.8639 58.4953ZM56.9311 55.7283C56.1207 55.2463 55.1888 55.0074 54.2465 55.0398C52.5807 55.0398 51.507 55.8384 51.507 57.1462C51.507 58.22 52.3054 58.8808 53.7784 59.0874L54.453 59.1838C55.2377 59.2939 55.6094 59.5004 55.6094 59.8721C55.6094 60.3814 55.0863 60.6706 54.1088 60.6706C53.3226 60.6932 52.5516 60.4507 51.9198 59.9823L51.2453 61.0972C52.0793 61.6797 53.0782 61.979 54.0951 61.9509C55.9949 61.9509 57.0962 61.0559 57.0962 59.8031C57.0962 58.6467 56.2289 58.041 54.7971 57.8345L54.1226 57.7382C53.5031 57.6556 53.0075 57.5317 53.0075 57.0912C53.0075 56.6094 53.4755 56.3202 54.2603 56.3202C54.9809 56.331 55.6869 56.5253 56.3115 56.8847L56.9311 55.7283ZM59.3372 60.8318C59.4259 60.8311 59.5138 60.8485 59.5955 60.883C59.6742 60.9157 59.7458 60.9632 59.8066 61.0228C59.867 61.0823 59.9153 61.1529 59.9489 61.2307C59.9832 61.3106 60.0009 61.3968 60.0009 61.4838C60.0009 61.5708 59.9832 61.6569 59.9489 61.7369C59.9151 61.8143 59.8668 61.8846 59.8066 61.9439C59.7457 62.0036 59.6741 62.0513 59.5955 62.0846C59.5139 62.1196 59.426 62.1373 59.3372 62.1367C59.2065 62.138 59.0784 62.1008 58.9687 62.0296C58.8591 61.9585 58.7729 61.8567 58.7208 61.7369C58.6865 61.6569 58.6688 61.5708 58.6688 61.4838C58.6688 61.3968 58.6865 61.3107 58.7208 61.2307C58.7543 61.153 58.8023 61.0824 58.8624 61.0228C58.9231 60.9627 58.9951 60.9152 59.0742 60.883C59.1576 60.8484 59.247 60.831 59.3372 60.8318ZM59.3372 61.9927C59.4049 61.9932 59.4719 61.9796 59.534 61.9527C59.5936 61.9268 59.6479 61.8899 59.6938 61.8439C59.7527 61.7852 59.7963 61.7128 59.8207 61.6333C59.8451 61.5538 59.8496 61.4694 59.8339 61.3877C59.8181 61.306 59.7825 61.2295 59.7302 61.1647C59.6779 61.1 59.6105 61.0491 59.534 61.0165C59.4718 60.99 59.4048 60.9766 59.3372 60.9772C59.2683 60.9767 59.2001 60.99 59.1365 61.0165C59.0759 61.0414 59.0207 61.0781 58.9742 61.1243C58.903 61.1957 58.8545 61.2866 58.835 61.3856C58.8155 61.4845 58.8259 61.587 58.8648 61.6801C58.9036 61.7732 58.9693 61.8526 59.0535 61.9082C59.1376 61.9639 59.2363 61.9933 59.3372 61.9927ZM59.3756 61.1787C59.4398 61.1745 59.5034 61.1929 59.5556 61.2307C59.5763 61.2478 59.5928 61.2695 59.6038 61.294C59.6147 61.3186 59.6198 61.3453 59.6187 61.3722C59.6194 61.3952 59.6153 61.4181 59.6066 61.4395C59.598 61.4608 59.5849 61.4801 59.5683 61.496C59.5286 61.5313 59.4782 61.5525 59.4252 61.556L59.6235 61.7847H59.4684L59.2845 61.5576H59.2253V61.7847H59.0958V61.1787H59.3756ZM59.2253 61.2923V61.4538H59.3741C59.4026 61.4552 59.431 61.4482 59.4557 61.4337C59.4657 61.427 59.4737 61.4178 59.479 61.407C59.4844 61.3962 59.4867 61.3842 59.4859 61.3722C59.4866 61.3604 59.4842 61.3487 59.4788 61.3382C59.4735 61.3276 59.4655 61.3187 59.4557 61.3122C59.431 61.2978 59.4026 61.2909 59.3741 61.2923H59.2253ZM31.9161 52.9312C31.9173 53.0644 31.8917 53.1965 31.8408 53.3197C31.79 53.4428 31.7149 53.5545 31.6201 53.648C31.5253 53.7416 31.4126 53.8151 31.2888 53.8643C31.165 53.9135 31.0326 53.9373 30.8994 53.9343C30.7669 53.937 30.6352 53.913 30.5123 53.8635C30.3894 53.8141 30.2777 53.7403 30.184 53.6466C30.0904 53.5529 30.0166 53.4412 29.9671 53.3183C29.9177 53.1953 29.8936 53.0637 29.8964 52.9312C29.8934 52.798 29.9172 52.6656 29.9664 52.5418C30.0155 52.418 30.0891 52.3054 30.1827 52.2106C30.2762 52.1158 30.3879 52.0407 30.511 51.9898C30.6341 51.939 30.7662 51.9134 30.8994 51.9146C31.0333 51.9131 31.1661 51.9384 31.2901 51.989C31.4142 52.0396 31.5268 52.1144 31.6215 52.2091C31.7162 52.3038 31.791 52.4164 31.8416 52.5404C31.8922 52.6644 31.9175 52.7973 31.9161 52.9312ZM31.6275 61.7862H30.1849V55.2049H31.6275V61.7862Z" fill="black"/>
<path d="M50.8167 5.28577H29.1843V44.1597H50.8167V5.28577Z" fill="#007AD0"/>
<path d="M30.558 24.7227C30.5546 20.9789 31.403 17.2833 33.0389 13.9158C34.6749 10.5483 37.0555 7.59715 40.0006 5.28572C36.3535 2.41901 31.9735 0.63625 27.3611 0.141196C22.7486 -0.353857 18.09 0.458778 13.9176 2.48621C9.74521 4.51365 6.22741 7.67408 3.76628 11.6063C1.30516 15.5385 0 20.0838 0 24.7227C0 29.3616 1.30516 33.9069 3.76628 37.8391C6.22741 41.7713 9.74521 44.9318 13.9176 46.9592C18.09 48.9866 22.7486 49.7993 27.3611 49.3042C31.9735 48.8091 36.3535 47.0264 40.0006 44.1597C37.0555 41.8482 34.6749 38.8971 33.0389 35.5296C31.403 32.1621 30.5546 28.4665 30.558 24.7227Z" fill="#0066BA"/>
<path d="M77.6414 40.0424V39.2465H77.9623V39.0844H77.145V39.2465H77.4661V40.0424H77.6414ZM79.2281 40.0424V39.0828H78.9776L78.6894 39.7428L78.4012 39.0828H78.1505V40.0424H78.3275V39.3185L78.5977 39.9426H78.7811L79.0513 39.3169V40.0424H79.2281Z" fill="#00A2E5"/>
<path d="M80.0001 24.7227C80.0003 29.3615 78.6953 33.9068 76.2343 37.839C73.7733 41.7712 70.2556 44.9317 66.0833 46.9591C61.911 48.9866 57.2524 49.7992 52.6401 49.3042C48.0277 48.8091 43.6477 47.0264 40.0007 44.1597C42.9433 41.8459 45.322 38.8943 46.9577 35.5273C48.5934 32.1603 49.4433 28.4659 49.4433 24.7227C49.4433 20.9794 48.5934 17.285 46.9577 13.9181C45.322 10.5511 42.9433 7.59948 40.0007 5.28572C43.6477 2.419 48.0277 0.636239 52.6401 0.141192C57.2524 -0.353855 61.911 0.458794 66.0833 2.48625C70.2556 4.51371 73.7733 7.67416 76.2343 11.6064C78.6953 15.5386 80.0003 20.0839 80.0001 24.7227Z" fill="#00A2E5"/>
</g>
<defs>
<clipPath id="clip0_1801_18846">
<rect width="80" height="62.1367" rx="8" fill="white"/>
</clipPath>
</defs>
</svg>
