<svg width="80" height="48" viewBox="0 0 80 48" fill="none" xmlns="http://www.w3.org/2000/svg">
<g clip-path="url(#clip0_1801_20119)">
<path d="M29.5919 47.4053C20.0568 46.5695 11.6431 43.0323 6.16313 37.5562C3.04101 34.4362 1.14701 31.0518 0.290839 27.062C-0.0987252 25.2471 -0.0966842 22.2352 0.295431 20.4049C1.48377 14.8577 5.06842 10.0051 10.7132 6.30358C23.5869 -2.13851 43.308 -2.09616 56.0603 6.40129C57.7543 7.52993 58.848 8.4259 60.3802 9.93901C62.3137 11.8486 63.6733 13.7454 65.1078 16.5351C65.1608 16.6384 65.4239 16.7688 65.6923 16.8244C66.5966 17.0121 67.8021 17.7163 68.7741 18.6237C69.5269 19.3268 70.1109 20.0937 71.5485 22.2676C72.9981 24.4593 79.5599 34.592 79.9589 35.2548C80.1141 35.5125 79.8074 35.9271 79.4615 35.9271C79.216 35.9271 79.0415 35.7635 78.6795 35.1936C78.4231 34.7903 76.7496 32.1926 74.9602 29.4216C68.6287 19.6148 68.2842 19.1597 66.5209 18.2778L65.5933 17.8137H62.8704C60.1511 17.8137 60.1473 17.814 60.0812 18.1007C59.7197 19.6694 59.6536 20.0536 59.7322 20.1266C59.7825 20.1733 61.3277 21.0532 63.1658 22.0821L66.5084 23.9529L66.2994 24.3912C66.1844 24.6322 66.0525 24.8294 66.0061 24.8294C65.9596 24.8294 63.1469 23.2722 59.7557 21.3685C56.3644 19.4648 53.3915 17.853 53.1494 17.7862C52.1848 17.5198 50.7031 18.5885 50.7031 19.5506C50.7031 20.5251 50.9924 20.8093 56.9506 25.6887C60.6685 28.7333 62.7949 30.5622 63.1196 30.9944C63.7105 31.7806 64.3077 32.9391 64.8588 34.3678C65.8275 36.8794 67.4028 38.2808 69.9864 38.9288L70.8372 39.142L70.7655 39.6074C70.726 39.8633 70.6714 40.0987 70.6438 40.1301C70.5346 40.2556 68.8213 39.7089 67.8296 39.2326C66.2793 38.4877 65.2147 37.4264 64.1677 35.5834C64.16 35.5699 63.5526 35.7781 62.8176 36.0459C61.5124 36.522 61.4527 36.5613 60.2197 37.7644C54.9648 42.892 47.4289 46.1685 38.3296 47.2823C36.8548 47.463 31.1629 47.5428 29.5919 47.4053ZM38.6485 45.8264C42.8235 45.2756 46.0607 44.4462 49.4494 43.0589C53.0063 41.6027 56.3601 39.5102 58.7069 37.2827L59.6317 36.4051L57.3037 35.2931C54.8166 34.1048 54.5717 33.9078 54.253 32.8455C54.052 32.1745 54.2796 31.462 54.9146 30.7729L55.4095 30.2359L54.3306 29.4165C53.4765 28.7677 53.2086 28.4837 53.0443 28.0536C52.7785 27.3577 52.8744 26.6048 53.306 25.9981L53.6341 25.5369L50.2229 24.9366C48.3468 24.6067 46.598 24.2735 46.3367 24.1962C45.8252 24.0452 45.3048 23.4635 45.1701 22.8928C45.0976 22.5867 46.7694 14.4242 47.1429 13.2599C47.31 12.7387 48.0246 12.1088 48.5629 12.008C49.1267 11.9024 59.1811 13.6698 59.6817 13.9625C60.4741 14.4255 60.7246 15.1699 60.4733 16.3149L60.3682 16.7932L60.9246 16.7925C61.2305 16.7922 61.955 16.755 62.5342 16.7098L63.5873 16.6277L63.0651 15.6582C61.4836 12.7221 58.6283 9.76859 55.1031 7.42202C53.4583 6.32705 49.9464 4.59736 47.8322 3.84017C44.8262 2.76408 41.188 1.95791 37.6913 1.59335C35.7739 1.39359 30.7514 1.3964 28.8898 1.59845C24.428 2.08241 20.3752 3.09242 16.8329 4.60246C8.63216 8.0991 3.11805 13.8913 1.70649 20.4927C1.33759 22.2181 1.30876 25.2381 1.64628 26.8069C2.39275 30.2754 4.02219 33.2779 6.67516 36.0727C12.0785 41.7654 20.3318 45.2623 30.2296 46.0532C31.5547 46.1591 37.3002 46.0044 38.6485 45.8264ZM36.8413 39.614C36.3308 39.4663 35.8134 38.8589 35.7047 38.279C35.6338 37.9014 35.7203 37.6394 36.2614 36.5927C38.448 32.3628 39.3983 28.4702 39.3983 23.7455C39.3983 19.1794 38.5569 15.6266 36.4668 11.3684C36.018 10.4543 35.6509 9.60557 35.6509 9.48286C35.6509 9.02977 36.03 8.37284 36.4405 8.11517C37.0035 7.76183 37.9469 7.82791 38.3985 8.25191C38.572 8.41493 39.023 9.15528 39.4006 9.89666C40.8961 12.8333 41.9209 16.0552 42.4268 19.4087C42.7398 21.4841 42.8021 25.4175 42.5521 27.3174C42.0906 30.8222 41.1655 33.9494 39.6843 37.0131C38.7891 38.865 38.2271 39.6268 37.7566 39.6268C37.6625 39.6268 37.5089 39.6502 37.4155 39.6791C37.3217 39.7074 37.0635 39.6783 36.8413 39.614ZM30.7549 36.4299C29.972 36.2021 29.4074 35.2416 29.6337 34.5219C29.6885 34.3476 30.0572 33.545 30.4526 32.7383C32.1275 29.3228 32.8242 25.6614 32.4828 22.0665C32.2022 19.1128 31.6728 17.2499 30.3393 14.5242C29.4446 12.6955 29.4031 12.4121 29.9232 11.6758C30.4179 10.9758 31.6524 10.8623 32.3009 11.4572C32.7505 11.8695 34.1485 14.789 34.6881 16.4425C36.4739 21.9142 36.2014 27.788 33.9128 33.1634C32.7405 35.9169 31.9175 36.7682 30.7549 36.4299ZM24.4785 33.2009C23.9948 32.9827 23.5785 32.4712 23.4652 31.9556C23.3961 31.6416 23.515 31.2941 24.089 30.1318C26.197 25.8624 26.2197 21.7502 24.1584 17.58C23.2532 15.7485 23.2333 15.384 23.9989 14.6617C24.3767 14.3053 24.5372 14.2423 25.0679 14.2423C25.958 14.2423 26.4195 14.6895 27.2149 16.3233C28.4382 18.8362 28.939 21.0162 28.9349 23.8092C28.9306 26.6801 28.4624 28.6508 27.1555 31.3008C26.407 32.8179 26.037 33.2185 25.2878 33.3213C25.0592 33.3527 24.6951 33.2983 24.4785 33.2009ZM18.6218 30.193C18.2386 30.0344 17.8011 29.5129 17.671 29.0595C17.5258 28.5529 17.6447 28.1508 18.22 27.2048C18.9598 25.9882 19.132 25.3353 19.132 23.7452C19.132 22.1553 18.9598 21.5022 18.22 20.2855C17.9692 19.873 17.7174 19.3789 17.6603 19.1873C17.422 18.3854 18.0901 17.4027 18.9876 17.2343C19.7484 17.0915 20.2709 17.431 20.9704 18.5229C22.9958 21.6844 22.9955 25.9076 20.9694 29.0422C20.2548 30.1481 19.4578 30.539 18.6218 30.193ZM62.2568 35.104C62.9344 34.8619 63.5202 34.6326 63.5582 34.5946C63.5962 34.5566 63.4656 34.1234 63.2676 33.632C62.8615 32.623 62.9273 32.6491 61.4854 32.9251C59.9284 33.2231 59.0245 32.9575 57.3203 31.7026C56.8557 31.3605 56.3764 31.0803 56.2555 31.0803C56.1343 31.0803 55.8687 31.2587 55.6651 31.4765C55.2284 31.9442 55.1625 32.6766 55.5182 33.1098C55.8274 33.4863 60.107 35.5227 60.6152 35.5349C60.8404 35.54 61.579 35.3464 62.2568 35.104ZM61.5833 31.8286C62.2178 31.701 62.2875 31.6574 62.1785 31.4541C62.0568 31.2265 56.1376 26.314 55.6243 26.014C55.2005 25.7667 54.8566 25.8241 54.5053 26.2007C53.4772 27.3031 53.5971 27.5339 56.2603 29.5759C59.472 32.0386 59.8149 32.184 61.5833 31.8286ZM53.6367 24.3906C53.6367 24.3598 52.9652 23.7814 52.1447 23.1059C50.1173 21.4366 49.6824 20.8136 49.6824 19.5791C49.6824 18.5485 50.3699 17.5527 51.4768 16.9802C52.0264 16.696 53.006 16.6062 53.5604 16.7892C53.9525 16.9185 55.7202 17.8749 58.1714 19.2834L58.6877 19.5801L59.1133 17.5619C59.549 15.495 59.5569 14.9531 59.1536 14.8273C59.0309 14.789 56.6682 14.3597 53.903 13.8732C48.993 13.0093 48.4573 12.9578 48.2287 13.3277C48.107 13.5244 46.239 22.1813 46.2388 22.5495C46.2385 22.7337 46.3321 22.9625 46.447 23.0577C46.5615 23.1528 48.1545 23.499 49.9867 23.8271C53.5267 24.4611 53.6367 24.4781 53.6367 24.3906Z" fill="black"/>
</g>
<defs>
<clipPath id="clip0_1801_20119">
<rect width="80.0003" height="47.4748" rx="8" fill="white"/>
</clipPath>
</defs>
</svg>
