<svg width="64" height="80" viewBox="0 0 64 80" fill="none" xmlns="http://www.w3.org/2000/svg">
<g clip-path="url(#clip0_1801_20107)">
<path fill-rule="evenodd" clip-rule="evenodd" d="M48.3891 79.8196C47.1055 79.4516 45.8046 77.9197 45.5308 76.4649C45.3511 75.5149 45.5736 74.856 46.9343 72.2201C52.437 61.5741 54.8247 51.7838 54.8247 39.8968C54.8247 28.0099 52.7109 19.4691 47.4478 8.75454C46.3181 6.45246 45.3939 4.32154 45.3939 4.01345C45.3939 2.87525 46.3438 1.22357 47.3793 0.573164C48.7999 -0.316861 51.1705 -0.145702 52.3087 0.915481C52.7451 1.32626 53.8833 3.19189 54.8333 5.05752C58.5988 12.443 61.1747 20.5474 62.4498 28.9855C63.2372 34.2058 63.3912 44.0988 62.7665 48.8827C61.6026 57.6973 59.2748 65.5706 55.5521 73.2728C53.3014 77.9283 51.8893 79.8453 50.6998 79.8453C50.4602 79.8453 50.0751 79.9052 49.844 79.9736C49.6044 80.0421 48.954 79.9736 48.3977 79.811L48.3891 79.8196ZM33.079 71.8094C31.1107 71.236 29.6901 68.8226 30.2549 67.0084C30.3918 66.5719 31.3161 64.5522 32.3173 62.524C36.5278 53.9318 38.2822 44.7235 37.4264 35.6778C36.7247 28.2495 35.3896 23.5598 32.0349 16.7049C29.7842 12.1007 29.6815 11.3904 30.9909 9.54187C32.2318 7.77894 35.3383 7.49653 36.9729 8.99417C38.1025 10.0297 41.6198 17.3809 42.9805 21.5401C47.4734 35.3098 46.7888 50.0808 41.0293 63.6109C38.0768 70.5342 36.0058 72.6823 33.0876 71.8265L33.079 71.8094ZM17.2896 63.6879C16.0744 63.1402 15.0218 61.8565 14.7394 60.5557C14.5682 59.7684 14.8677 58.8954 16.3055 55.9686C21.6114 45.2284 21.6627 34.8819 16.4766 24.3899C14.2002 19.7857 14.1489 18.8615 16.0744 17.0472C17.0243 16.1486 17.4265 15.9946 18.7616 15.9946C21.0038 15.9946 22.1591 17.1156 24.1616 21.232C27.2425 27.5563 28.5005 33.0419 28.492 40.068C28.4834 47.2909 27.3024 52.2459 24.0162 58.9126C22.1334 62.7294 21.2006 63.7392 19.3179 63.996C18.7445 64.073 17.8288 63.9361 17.2811 63.6964L17.2896 63.6879ZM2.55286 56.1227C1.58582 55.7205 0.490401 54.4111 0.156641 53.2729C-0.21135 51.9978 0.0881778 50.9879 1.53447 48.6088C3.4001 45.5451 3.82799 43.902 3.82799 39.9054C3.82799 35.9089 3.39154 34.2657 1.53447 31.202C0.901181 30.1665 0.267894 28.917 0.12241 28.4378C-0.476646 26.4181 1.20071 23.9449 3.46 23.5255C5.37698 23.1661 6.68634 24.0219 8.44928 26.769C13.5412 34.7193 13.5412 45.3482 8.44928 53.2301C6.65211 56.0114 4.64956 56.9956 2.5443 56.1227H2.55286Z" fill="black"/>
</g>
<defs>
<clipPath id="clip0_1801_20107">
<rect width="63.1523" height="80" rx="8" fill="white"/>
</clipPath>
</defs>
</svg>
