<svg width="79" height="15" viewBox="0 0 79 15" fill="none" xmlns="http://www.w3.org/2000/svg">
<g clip-path="url(#clip0_1801_19659)">
<g clip-path="url(#clip1_1801_19659)">
<path d="M3.54 0.48999H0V12.87H3.53C5.4 12.87 6.76 12.43 7.95 11.44C9.36 10.27 10.2 8.50999 10.2 6.68999C10.19 3.02999 7.46 0.48999 3.54 0.48999ZM6.36 9.78999C5.6 10.47 4.62 10.77 3.06 10.77H2.41V2.58999H3.06C4.62 2.58999 5.57 2.86999 6.36 3.58999C7.2 4.32999 7.7 5.48999 7.7 6.66999C7.7 7.84999 7.2 9.04999 6.36 9.78999Z" fill="#231F20"/>
<path d="M13.71 0.48999H11.3V12.87H13.71V0.48999Z" fill="#231F20"/>
<path d="M19.6201 5.24004C18.1701 4.70004 17.7501 4.35004 17.7501 3.68004C17.7501 2.90004 18.5101 2.31004 19.5501 2.31004C20.2701 2.31004 20.8701 2.61004 21.5001 3.31004L22.7601 1.66004C21.7201 0.750039 20.4801 0.290039 19.1201 0.290039C16.9301 0.290039 15.2601 1.81004 15.2601 3.84004C15.2601 5.55004 16.0401 6.42004 18.3101 7.23004C19.2501 7.56004 19.7401 7.79004 19.9801 7.93004C20.4601 8.24004 20.7001 8.69004 20.7001 9.21004C20.7001 10.21 19.9001 10.96 18.8201 10.96C17.6701 10.96 16.7401 10.38 16.1801 9.31004L14.6201 10.81C15.7301 12.44 17.0701 13.17 18.9101 13.17C21.4201 13.17 23.1801 11.5 23.1801 9.11004C23.1801 7.14004 22.3701 6.25004 19.6201 5.25004V5.24004Z" fill="#231F20"/>
<path d="M23.9399 6.68996C23.9399 10.33 26.7999 13.15 30.4699 13.15C31.5099 13.15 32.3999 12.95 33.4999 12.43V9.58996C32.5299 10.56 31.6799 10.95 30.5799 10.95C28.1499 10.95 26.4199 9.18996 26.4199 6.67996C26.4199 4.29996 28.1999 2.42996 30.4699 2.42996C31.6199 2.42996 32.4899 2.83996 33.4999 3.81996V0.969961C32.4399 0.429961 31.5699 0.209961 30.5299 0.209961C26.8699 0.209961 23.9399 3.08996 23.9399 6.68996Z" fill="#231F20"/>
<path d="M52.65 8.79999L49.35 0.48999H46.71L51.96 13.19H53.26L58.61 0.48999H55.99L52.65 8.79999Z" fill="#231F20"/>
<path d="M59.7 12.87H66.55V10.77H62.11V7.42999H66.3899V5.32999H62.11V2.58999H66.55V0.48999H59.7V12.87Z" fill="#231F20"/>
<path d="M76.1099 4.13999C76.1099 1.81999 74.5099 0.48999 71.7299 0.48999H68.1499V12.87H70.5599V7.89999H70.8799L74.2199 12.87H77.1899L73.2899 7.64999C75.1099 7.27999 76.1099 6.03999 76.1099 4.13999ZM71.2699 6.17999H70.5599V2.43999H71.2999C72.7999 2.43999 73.6199 3.06999 73.6199 4.27999C73.6199 5.48999 72.7999 6.18999 71.2599 6.18999L71.2699 6.17999Z" fill="#231F20"/>
<path d="M78.04 1.14005C78.04 0.920049 77.89 0.800049 77.63 0.800049H77.28V1.89005H77.54V1.47005L77.85 1.89005H78.17L77.81 1.44005C77.96 1.40005 78.05 1.29005 78.05 1.14005H78.04ZM77.58 1.29005H77.54V1.00005H77.59C77.72 1.00005 77.79 1.05005 77.79 1.14005C77.79 1.23005 77.72 1.29005 77.59 1.29005H77.58Z" fill="#231F20"/>
<path d="M77.67 0.390015C77.14 0.390015 76.72 0.810015 76.72 1.34001C76.72 1.87001 77.15 2.29001 77.67 2.29001C78.19 2.29001 78.61 1.86001 78.61 1.34001C78.61 0.820015 78.19 0.390015 77.67 0.390015ZM77.67 2.12001C77.25 2.12001 76.91 1.77001 76.91 1.34001C76.91 0.910015 77.25 0.560015 77.67 0.560015C78.09 0.560015 78.42 0.920015 78.42 1.34001C78.42 1.76001 78.08 2.12001 77.67 2.12001Z" fill="#231F20"/>
<path d="M47.4 6.66999C47.4 10.29 44.47 13.23 40.84 13.23C37.21 13.23 34.28 10.3 34.28 6.66999C34.28 3.03999 37.22 0.109985 40.84 0.109985C44.46 0.109985 47.4 3.03999 47.4 6.66999Z" fill="url(#paint0_linear_1801_19659)"/>
<path style="mix-blend-mode:multiply" opacity="0.65" d="M47.4 6.66999C47.4 10.29 44.47 13.23 40.84 13.23C37.21 13.23 34.28 10.3 34.28 6.66999C34.28 3.03999 37.22 0.109985 40.84 0.109985C44.46 0.109985 47.4 3.03999 47.4 6.66999Z" fill="url(#paint1_linear_1801_19659)"/>
<g style="mix-blend-mode:multiply" opacity="0.5">
<mask id="mask0_1801_19659" style="mask-type:luminance" maskUnits="userSpaceOnUse" x="34" y="0" width="14" height="14">
<path d="M47.4 6.66999C47.4 10.29 44.46 13.23 40.84 13.23C37.22 13.23 34.28 10.3 34.28 6.66999C34.28 3.03999 37.22 0.109985 40.84 0.109985C44.46 0.109985 47.4 3.03999 47.4 6.66999Z" fill="white"/>
</mask>
<g mask="url(#mask0_1801_19659)">
<g style="mix-blend-mode:multiply">
<path d="M47.5499 6.69C47.5499 10.38 44.5599 13.38 40.8599 13.38C37.1599 13.38 34.1699 10.39 34.1699 6.69C34.1699 2.99 37.1599 0 40.8599 0C44.5599 0 47.5499 2.99 47.5499 6.69Z" fill="#3F1313"/>
</g>
<path d="M40.8699 0C44.5599 0 47.5599 2.99 47.5599 6.69C47.5599 10.39 44.5699 13.38 40.8699 13.38C37.1699 13.38 34.1799 10.39 34.1799 6.69C34.1799 3 37.1699 0 40.8699 0Z" fill="#3F1414"/>
<path d="M40.8699 0.0100098C44.5599 0.0100098 47.5599 3.00001 47.5599 6.70001C47.5599 10.4 44.5699 13.39 40.8699 13.39C37.1699 13.39 34.1799 10.4 34.1799 6.70001C34.1799 3.01001 37.1699 0.0100098 40.8699 0.0100098Z" fill="#401414"/>
<path d="M40.8799 0.0200195C44.5699 0.0200195 47.5699 3.01002 47.5699 6.71002C47.5699 10.41 44.5799 13.4 40.8799 13.4C37.1799 13.4 34.1899 10.41 34.1899 6.71002C34.1899 3.02002 37.1899 0.0200195 40.8799 0.0200195Z" fill="#401514"/>
<path d="M40.88 0.0200445C44.57 0.0200445 47.56 3.01004 47.56 6.70004C47.56 10.39 44.57 13.38 40.88 13.38C37.19 13.38 34.19 10.39 34.2 6.70004C34.2 3.01004 37.2 0.0100445 40.88 0.0200445Z" fill="#411514"/>
<path d="M40.88 0.0300542C44.57 0.0300542 47.56 3.02005 47.56 6.71005C47.56 10.4001 44.57 13.3901 40.88 13.3901C37.19 13.3901 34.19 10.4001 34.2 6.71005C34.2 3.02005 37.2 0.0200542 40.88 0.0300542Z" fill="#411615"/>
<path d="M40.89 0.0300542C44.58 0.0300542 47.57 3.02005 47.57 6.71005C47.57 10.4001 44.58 13.3901 40.89 13.3901C37.2 13.3901 34.2 10.4001 34.21 6.71005C34.21 3.02005 37.21 0.0200542 40.89 0.0300542Z" fill="#421615"/>
<path d="M40.89 0.0399419C44.58 0.0399419 47.57 3.02994 47.57 6.71994C47.57 10.4099 44.58 13.3999 40.89 13.3999C37.2 13.3999 34.2 10.4099 34.21 6.71994C34.21 3.02994 37.21 0.0299419 40.89 0.0399419Z" fill="#431615"/>
<path d="M40.9 0.0399419C44.59 0.0399419 47.58 3.02994 47.58 6.71994C47.58 10.4099 44.59 13.3999 40.9 13.3999C37.21 13.3999 34.21 10.4099 34.22 6.71994C34.22 3.02994 37.22 0.0299419 40.9 0.0399419Z" fill="#431715"/>
<path d="M40.9 0.0499517C44.59 0.0499517 47.58 3.03995 47.58 6.72995C47.58 10.42 44.59 13.41 40.9 13.41C37.21 13.41 34.21 10.42 34.22 6.72995C34.22 3.03995 37.22 0.0399517 40.9 0.0499517Z" fill="#441716"/>
<path d="M40.91 0.0599615C44.6 0.0599615 47.59 3.04996 47.59 6.73996C47.59 10.43 44.6 13.42 40.91 13.42C37.22 13.42 34.22 10.43 34.23 6.73996C34.23 3.04996 37.23 0.0499615 40.91 0.0599615Z" fill="#441816"/>
<path d="M40.91 0.0599615C44.6 0.0599615 47.59 3.04996 47.59 6.73996C47.59 10.43 44.6 13.42 40.91 13.42C37.22 13.42 34.22 10.43 34.23 6.73996C34.23 3.04996 37.23 0.0499615 40.91 0.0599615Z" fill="#451816"/>
<path d="M40.91 0.0699712C44.6 0.0699712 47.59 3.05997 47.59 6.74997C47.59 10.44 44.6 13.43 40.91 13.43C37.22 13.43 34.22 10.44 34.23 6.74997C34.23 3.05997 37.23 0.0599712 40.91 0.0699712Z" fill="#451816"/>
<path d="M40.92 0.0699712C44.61 0.0699712 47.6 3.05997 47.6 6.74997C47.6 10.44 44.61 13.43 40.92 13.43C37.23 13.43 34.23 10.44 34.24 6.74997C34.24 3.05997 37.24 0.0599712 40.92 0.0699712Z" fill="#461916"/>
<path d="M40.92 0.079981C44.61 0.079981 47.6 3.06998 47.6 6.75998C47.6 10.45 44.61 13.44 40.92 13.44C37.23 13.44 34.23 10.45 34.24 6.75998C34.24 3.06998 37.24 0.069981 40.92 0.079981Z" fill="#461917"/>
<path d="M40.93 0.079981C44.62 0.079981 47.61 3.06998 47.61 6.75998C47.61 10.45 44.62 13.44 40.93 13.44C37.24 13.44 34.24 10.45 34.25 6.75998C34.25 3.06998 37.25 0.069981 40.93 0.079981Z" fill="#471917"/>
<path d="M40.93 0.0899907C44.62 0.0899907 47.61 3.07999 47.61 6.76999C47.61 10.46 44.62 13.45 40.93 13.45C37.24 13.45 34.24 10.46 34.25 6.76999C34.25 3.07999 37.25 0.0799907 40.93 0.0899907Z" fill="#481A17"/>
<path d="M40.94 0.0899907C44.63 0.0999907 47.62 3.07999 47.62 6.76999C47.62 10.46 44.63 13.45 40.94 13.45C37.25 13.45 34.25 10.46 34.26 6.76999C34.26 3.07999 37.26 0.0799907 40.94 0.0899907Z" fill="#481A17"/>
<path d="M40.94 0.100001C44.63 0.110001 47.62 3.09 47.62 6.78C47.62 10.47 44.63 13.46 40.94 13.46C37.25 13.46 34.25 10.47 34.26 6.78C34.27 3.09 37.26 0.0900005 40.94 0.100001Z" fill="#491B17"/>
<path d="M40.95 0.11001C44.64 0.12001 47.62 3.10001 47.62 6.79001C47.62 10.48 44.63 13.46 40.95 13.46C37.27 13.46 34.26 10.47 34.27 6.79001C34.28 3.10001 37.27 0.10001 40.95 0.11001Z" fill="#491B18"/>
<path d="M40.9499 0.109963C44.6399 0.119963 47.6199 3.09996 47.6199 6.77996C47.6199 10.46 44.6299 13.45 40.9499 13.45C37.2699 13.45 34.2599 10.46 34.2799 6.77996C34.2899 3.08996 37.2799 0.0899627 40.9499 0.109963Z" fill="#4A1B18"/>
<path d="M40.9499 0.119972C44.6399 0.129972 47.6199 3.10997 47.6199 6.78997C47.6199 10.47 44.6299 13.46 40.9499 13.46C37.2699 13.46 34.2599 10.47 34.2799 6.78997C34.2899 3.09997 37.2799 0.0999725 40.9499 0.119972Z" fill="#4A1C18"/>
<path d="M40.9599 0.119972C44.6399 0.129972 47.6299 3.10997 47.6299 6.78997C47.6299 10.47 44.6399 13.46 40.9599 13.46C37.2799 13.46 34.2699 10.47 34.2899 6.78997C34.2999 3.09997 37.2899 0.0999725 40.9599 0.119972Z" fill="#4B1C18"/>
<path d="M40.9599 0.129982C44.6399 0.139982 47.6299 3.11998 47.6299 6.79998C47.6299 10.48 44.6399 13.47 40.9599 13.47C37.2799 13.47 34.2699 10.48 34.2899 6.79998C34.2999 3.10998 37.2999 0.109982 40.9599 0.129982Z" fill="#4C1D18"/>
<path d="M40.9699 0.129982C44.6499 0.139982 47.6399 3.11998 47.6399 6.79998C47.6399 10.48 44.6499 13.47 40.9699 13.47C37.2899 13.47 34.2799 10.48 34.2999 6.79998C34.3099 3.10998 37.3099 0.109982 40.9699 0.129982Z" fill="#4C1D19"/>
<path d="M40.9698 0.139992C44.6498 0.159992 47.6398 3.12999 47.6398 6.80999C47.6398 10.49 44.6498 13.48 40.9698 13.48C37.2898 13.48 34.2898 10.49 34.2998 6.80999C34.3098 3.11999 37.3098 0.119992 40.9698 0.139992Z" fill="#4D1D19"/>
<path d="M40.9798 0.150002C44.6598 0.170002 47.6498 3.14 47.6498 6.82C47.6498 10.5 44.6598 13.49 40.9798 13.49C37.2998 13.49 34.2998 10.5 34.3098 6.82C34.3198 3.13 37.3198 0.130002 40.9798 0.150002Z" fill="#4D1E19"/>
<path d="M40.9798 0.150002C44.6598 0.170002 47.6498 3.14 47.6498 6.82C47.6498 10.5 44.6598 13.49 40.9798 13.49C37.2998 13.49 34.2998 10.5 34.3098 6.82C34.3298 3.13 37.3198 0.130002 40.9798 0.150002Z" fill="#4E1E19"/>
<path d="M40.9798 0.160012C44.6598 0.180012 47.6498 3.15001 47.6498 6.83001C47.6498 10.51 44.6598 13.5 40.9798 13.5C37.2998 13.5 34.2998 10.51 34.3098 6.83001C34.3298 3.14001 37.3198 0.140012 40.9798 0.160012Z" fill="#4E1E19"/>
<path d="M40.9899 0.160012C44.6699 0.180012 47.6598 3.15001 47.6598 6.83001C47.6598 10.51 44.6699 13.5 40.9899 13.5C37.3099 13.5 34.3098 10.51 34.3198 6.83001C34.3398 3.14001 37.3299 0.140012 40.9899 0.160012Z" fill="#4F1F1A"/>
<path d="M40.9899 0.170021C44.6699 0.190021 47.6598 3.16002 47.6598 6.84002C47.6598 10.52 44.6699 13.51 40.9899 13.51C37.3099 13.51 34.3098 10.52 34.3198 6.84002C34.3398 3.15002 37.3299 0.150021 40.9899 0.170021Z" fill="#501F1A"/>
<path d="M40.9999 0.170021C44.6799 0.190021 47.6699 3.16002 47.6699 6.84002C47.6699 10.52 44.6799 13.51 40.9999 13.51C37.3199 13.51 34.3199 10.53 34.3299 6.84002C34.3499 3.15002 37.3399 0.150021 40.9999 0.170021Z" fill="#50201A"/>
<path d="M40.9999 0.180031C44.6799 0.200031 47.6699 3.16003 47.6699 6.85003C47.6699 10.54 44.6899 13.52 40.9999 13.52C37.3099 13.52 34.3199 10.54 34.3299 6.85003C34.3499 3.15003 37.3399 0.160031 40.9999 0.180031Z" fill="#51201A"/>
<path d="M41.0099 0.180031C44.6899 0.200031 47.6799 3.16003 47.6799 6.85003C47.6799 10.54 44.6999 13.52 41.0099 13.52C37.3199 13.52 34.3299 10.54 34.3399 6.85003C34.3599 3.15003 37.3499 0.160031 41.0099 0.180031Z" fill="#51201A"/>
<path d="M41.0099 0.190041C44.6899 0.210041 47.6699 3.17004 47.6699 6.86004C47.6699 10.55 44.6899 13.52 41.0099 13.52C37.3299 13.52 34.3299 10.54 34.3399 6.86004C34.3599 3.16004 37.3499 0.170041 41.0099 0.190041Z" fill="#52211A"/>
<path d="M41.02 0.200053C44.7 0.220053 47.68 3.18005 47.68 6.86005C47.68 10.5401 44.7 13.5201 41.02 13.5201C37.34 13.5201 34.34 10.5401 34.36 6.86005C34.38 3.16005 37.37 0.170053 41.02 0.200053Z" fill="#52211B"/>
<path d="M41.02 0.200053C44.7 0.220053 47.68 3.18005 47.68 6.86005C47.68 10.5401 44.7 13.5201 41.02 13.5201C37.34 13.5201 34.34 10.5401 34.36 6.86005C34.38 3.16005 37.37 0.170053 41.02 0.200053Z" fill="#53211B"/>
<path d="M41.02 0.209941C44.7 0.229941 47.68 3.18994 47.68 6.86994C47.68 10.5499 44.7 13.5299 41.02 13.5299C37.34 13.5299 34.34 10.5499 34.36 6.86994C34.38 3.16994 37.37 0.179941 41.02 0.209941Z" fill="#54221B"/>
<path d="M41.03 0.209941C44.71 0.229941 47.69 3.18994 47.69 6.86994C47.69 10.5499 44.71 13.5299 41.03 13.5299C37.35 13.5299 34.35 10.5499 34.37 6.86994C34.39 3.16994 37.38 0.179941 41.03 0.209941Z" fill="#54221B"/>
<path d="M41.03 0.21995C44.71 0.23995 47.69 3.19995 47.69 6.87995C47.69 10.56 44.71 13.54 41.03 13.54C37.35 13.54 34.35 10.56 34.37 6.87995C34.39 3.17995 37.38 0.18995 41.03 0.21995Z" fill="#55221B"/>
<path d="M41.04 0.21995C44.72 0.23995 47.7 3.19995 47.7 6.87995C47.7 10.56 44.72 13.54 41.04 13.54C37.36 13.54 34.36 10.56 34.38 6.87995C34.4 3.17995 37.39 0.18995 41.04 0.21995Z" fill="#55231B"/>
<path d="M41.04 0.22996C44.72 0.25996 47.7 3.20996 47.7 6.88996C47.7 10.57 44.72 13.55 41.04 13.55C37.36 13.55 34.36 10.57 34.38 6.88996C34.4 3.18996 37.39 0.19996 41.04 0.22996Z" fill="#56231C"/>
<path d="M41.05 0.22996C44.73 0.25996 47.71 3.20996 47.71 6.88996C47.71 10.57 44.73 13.55 41.05 13.55C37.37 13.55 34.37 10.57 34.39 6.88996C34.41 3.18996 37.41 0.19996 41.05 0.22996Z" fill="#57231C"/>
<path d="M41.05 0.239968C44.73 0.269968 47.71 3.21997 47.71 6.89997C47.71 10.58 44.73 13.56 41.05 13.56C37.37 13.56 34.37 10.58 34.39 6.89997C34.41 3.19997 37.41 0.219968 41.05 0.239968Z" fill="#57241C"/>
<path d="M41.05 0.249978C44.73 0.279978 47.71 3.22998 47.71 6.90998C47.71 10.59 44.73 13.57 41.05 13.57C37.37 13.57 34.37 10.59 34.39 6.90998C34.41 3.20998 37.41 0.229978 41.05 0.249978Z" fill="#58241C"/>
<path d="M41.06 0.249978C44.74 0.279978 47.72 3.22998 47.72 6.90998C47.72 10.59 44.74 13.57 41.06 13.57C37.38 13.57 34.38 10.59 34.4 6.90998C34.43 3.20998 37.42 0.229978 41.06 0.249978Z" fill="#58241C"/>
<path d="M41.06 0.259988C44.74 0.289988 47.72 3.23999 47.72 6.91999C47.72 10.6 44.74 13.58 41.06 13.58C37.38 13.58 34.38 10.6 34.4 6.91999C34.43 3.21999 37.42 0.239988 41.06 0.259988Z" fill="#59251C"/>
<path d="M41.07 0.259988C44.75 0.289988 47.73 3.23999 47.73 6.91999C47.73 10.6 44.75 13.58 41.07 13.58C37.39 13.58 34.39 10.6 34.41 6.91999C34.44 3.21999 37.43 0.239988 41.07 0.259988Z" fill="#59251C"/>
<path d="M41.07 0.269998C44.75 0.299998 47.73 3.25 47.73 6.93C47.73 10.61 44.75 13.59 41.07 13.59C37.39 13.59 34.39 10.61 34.41 6.93C34.44 3.23 37.43 0.249998 41.07 0.269998Z" fill="#5A251D"/>
<path d="M41.08 0.269998C44.75 0.299998 47.74 3.25 47.74 6.93C47.74 10.61 44.76 13.59 41.08 13.59C37.4 13.59 34.4 10.61 34.42 6.93C34.45 3.23 37.44 0.249998 41.08 0.269998Z" fill="#5B261D"/>
<path d="M41.0799 0.28001C44.7499 0.31001 47.7299 3.26001 47.7299 6.93001C47.7299 10.6 44.7499 13.58 41.0799 13.58C37.4099 13.58 34.3999 10.6 34.4299 6.93001C34.4599 3.23001 37.4499 0.25001 41.0799 0.28001Z" fill="#5B261D"/>
<path d="M41.0899 0.28001C44.7599 0.31001 47.7399 3.26001 47.7399 6.93001C47.7399 10.6 44.7599 13.58 41.0899 13.58C37.4199 13.58 34.4099 10.6 34.4399 6.93001C34.4699 3.23001 37.4599 0.25001 41.0899 0.28001Z" fill="#5C261D"/>
<path d="M41.0899 0.290019C44.7599 0.320019 47.7399 3.27002 47.7399 6.94002C47.7399 10.61 44.7599 13.59 41.0899 13.59C37.4199 13.59 34.4099 10.61 34.4399 6.94002C34.4699 3.24002 37.4599 0.260019 41.0899 0.290019Z" fill="#5C271D"/>
<path d="M41.0899 0.300029C44.7599 0.330029 47.7399 3.28003 47.7399 6.95003C47.7399 10.62 44.7599 13.6 41.0899 13.6C37.4199 13.6 34.4099 10.62 34.4399 6.95003C34.4699 3.25003 37.4599 0.270029 41.0899 0.300029Z" fill="#5D271D"/>
<path d="M41.0999 0.300029C44.7699 0.330029 47.7499 3.28003 47.7499 6.95003C47.7499 10.62 44.7699 13.6 41.0999 13.6C37.4299 13.6 34.4199 10.62 34.4499 6.95003C34.4799 3.25003 37.4699 0.270029 41.0999 0.300029Z" fill="#5E281D"/>
<path d="M41.0999 0.310039C44.7699 0.340039 47.7499 3.29004 47.7499 6.96004C47.7499 10.63 44.7699 13.61 41.0999 13.61C37.4299 13.61 34.4199 10.63 34.4499 6.96004C34.4799 3.26004 37.4699 0.280039 41.0999 0.310039Z" fill="#5E281D"/>
<path d="M41.1099 0.310039C44.7799 0.340039 47.7599 3.29004 47.7599 6.96004C47.7599 10.63 44.7799 13.61 41.1099 13.61C37.4399 13.61 34.4299 10.63 34.4599 6.96004C34.4899 3.26004 37.4799 0.280039 41.1099 0.310039Z" fill="#5F281E"/>
<path d="M41.1099 0.320049C44.7799 0.360049 47.7599 3.30005 47.7599 6.97005C47.7599 10.64 44.7799 13.62 41.1099 13.62C37.4399 13.62 34.4299 10.64 34.4599 6.97005C34.4899 3.27005 37.4799 0.290049 41.1099 0.320049Z" fill="#5F291E"/>
<path d="M41.1199 0.320049C44.7899 0.360049 47.7699 3.30005 47.7699 6.97005C47.7699 10.64 44.7899 13.62 41.1199 13.62C37.4499 13.62 34.4399 10.64 34.4699 6.97005C34.4999 3.27005 37.4899 0.290049 41.1199 0.320049Z" fill="#60291E"/>
<path d="M41.1199 0.330059C44.7899 0.370059 47.7699 3.31006 47.7699 6.98006C47.7699 10.6501 44.7899 13.6301 41.1199 13.6301C37.4499 13.6301 34.4399 10.6501 34.4699 6.98006C34.4999 3.28006 37.4899 0.300059 41.1199 0.330059Z" fill="#61291E"/>
<path d="M41.1199 0.330059C44.7899 0.370059 47.7699 3.31006 47.7699 6.98006C47.7699 10.6501 44.7899 13.6301 41.1199 13.6301C37.4499 13.6301 34.4399 10.6501 34.4699 6.98006C34.4999 3.28006 37.4899 0.300059 41.1199 0.330059Z" fill="#612A1E"/>
<path d="M41.13 0.339946C44.8 0.379946 47.78 3.31995 47.78 6.98995C47.78 10.6599 44.8 13.6399 41.13 13.6399C37.46 13.6399 34.45 10.6599 34.48 6.98995C34.51 3.28995 37.5 0.309946 41.13 0.339946Z" fill="#622A1E"/>
<path d="M41.13 0.349956C44.8 0.389956 47.78 3.32996 47.78 6.99996C47.78 10.67 44.8 13.65 41.13 13.65C37.46 13.65 34.45 10.67 34.48 6.99996C34.51 3.29996 37.51 0.319956 41.13 0.349956Z" fill="#632A1E"/>
<path d="M41.14 0.349956C44.81 0.389956 47.79 3.32996 47.79 6.99996C47.79 10.67 44.81 13.65 41.14 13.65C37.47 13.65 34.46 10.67 34.49 6.99996C34.53 3.29996 37.52 0.319956 41.14 0.349956Z" fill="#632B1F"/>
<path d="M41.14 0.359966C44.81 0.399966 47.79 3.33997 47.79 7.00997C47.79 10.68 44.81 13.66 41.14 13.66C37.47 13.66 34.46 10.68 34.49 7.00997C34.53 3.30997 37.52 0.329966 41.14 0.359966Z" fill="#642B1F"/>
<path d="M41.15 0.360017C44.82 0.400017 47.79 3.34002 47.79 7.00002C47.79 10.66 44.81 13.64 41.15 13.64C37.49 13.64 34.47 10.66 34.5 7.00002C34.54 3.30002 37.53 0.320017 41.15 0.360017Z" fill="#642B1F"/>
<path d="M41.1499 0.370027C44.8199 0.410027 47.7899 3.34003 47.7899 7.01003C47.7899 10.68 44.8199 13.65 41.1499 13.65C37.4799 13.65 34.4699 10.68 34.5099 7.01003C34.5499 3.31003 37.5399 0.330027 41.1499 0.370027Z" fill="#652C1F"/>
<path d="M41.1499 0.370027C44.8199 0.410027 47.7899 3.34003 47.7899 7.01003C47.7899 10.68 44.8199 13.65 41.1499 13.65C37.4799 13.65 34.4699 10.68 34.5099 7.01003C34.5499 3.31003 37.5399 0.330027 41.1499 0.370027Z" fill="#662C1F"/>
<path d="M41.1599 0.380037C44.8299 0.420037 47.7999 3.35004 47.7999 7.02004C47.7999 10.69 44.8299 13.66 41.1599 13.66C37.4899 13.66 34.4799 10.69 34.5199 7.02004C34.5599 3.32004 37.5499 0.340037 41.1599 0.380037Z" fill="#662C1F"/>
<path d="M41.1599 0.390046C44.8299 0.430046 47.7999 3.36005 47.7999 7.03005C47.7999 10.7 44.8299 13.67 41.1599 13.67C37.4899 13.67 34.4799 10.7 34.5199 7.03005C34.5599 3.33005 37.5499 0.350046 41.1599 0.390046Z" fill="#672D1F"/>
<path d="M41.1699 0.390046C44.8399 0.430046 47.8099 3.36005 47.8099 7.03005C47.8099 10.7 44.8399 13.67 41.1699 13.67C37.4999 13.67 34.4899 10.7 34.5299 7.03005C34.5699 3.33005 37.5599 0.350046 41.1699 0.390046Z" fill="#682D1F"/>
<path d="M41.1699 0.400056C44.8399 0.440056 47.8099 3.37006 47.8099 7.04006C47.8099 10.7101 44.8399 13.6801 41.1699 13.6801C37.4999 13.6801 34.4899 10.7101 34.5299 7.04006C34.5699 3.34006 37.5599 0.360056 41.1699 0.400056Z" fill="#682D20"/>
<path d="M41.1799 0.400056C44.8499 0.440056 47.8199 3.37006 47.8199 7.04006C47.8199 10.7101 44.8499 13.6801 41.1799 13.6801C37.5099 13.6801 34.4999 10.7101 34.5399 7.04006C34.5799 3.34006 37.5699 0.360056 41.1799 0.400056Z" fill="#692E20"/>
<path d="M41.1799 0.409944C44.8499 0.459944 47.8199 3.37994 47.8199 7.04994C47.8199 10.7199 44.8499 13.6899 41.1799 13.6899C37.5099 13.6899 34.4999 10.7199 34.5399 7.04994C34.5799 3.34994 37.5699 0.369944 41.1799 0.409944Z" fill="#692E20"/>
<path d="M41.19 0.409944C44.86 0.459944 47.83 3.37994 47.83 7.04994C47.83 10.7199 44.86 13.6899 41.19 13.6899C37.52 13.6899 34.51 10.7199 34.55 7.04994C34.59 3.34994 37.58 0.369944 41.19 0.409944Z" fill="#6A2E20"/>
<path d="M41.19 0.419954C44.86 0.469954 47.83 3.38995 47.83 7.05995C47.83 10.73 44.86 13.7 41.19 13.7C37.52 13.7 34.51 10.73 34.55 7.05995C34.59 3.35995 37.58 0.379954 41.19 0.419954Z" fill="#6B2F20"/>
<path d="M41.19 0.419954C44.85 0.469954 47.83 3.38995 47.83 7.05995C47.83 10.73 44.86 13.7 41.19 13.7C37.52 13.7 34.51 10.73 34.55 7.05995C34.59 3.35995 37.58 0.379954 41.19 0.419954Z" fill="#6B2F20"/>
<path d="M41.2 0.429963C44.86 0.479963 47.84 3.39996 47.84 7.06996C47.84 10.74 44.87 13.71 41.2 13.71C37.53 13.71 34.52 10.74 34.56 7.06996C34.6 3.36996 37.59 0.389963 41.2 0.429963Z" fill="#6C2F20"/>
<path d="M41.2 0.439973C44.86 0.489973 47.84 3.40997 47.84 7.07997C47.84 10.75 44.87 13.72 41.2 13.72C37.53 13.72 34.52 10.75 34.56 7.07997C34.6 3.37997 37.59 0.399973 41.2 0.439973Z" fill="#6D3020"/>
<path d="M41.21 0.439973C44.87 0.489973 47.85 3.40997 47.85 7.07997C47.85 10.75 44.88 13.72 41.21 13.72C37.54 13.72 34.53 10.75 34.57 7.07997C34.61 3.37997 37.6 0.399973 41.21 0.439973Z" fill="#6D3020"/>
<path d="M41.21 0.449983C44.87 0.499983 47.84 3.41998 47.84 7.08998C47.84 10.76 44.87 13.73 41.21 13.73C37.55 13.73 34.53 10.76 34.57 7.08998C34.61 3.38998 37.6 0.409983 41.21 0.449983Z" fill="#6E3021"/>
<path d="M41.22 0.449961C44.88 0.499961 47.85 3.41996 47.85 7.07996C47.85 10.74 44.88 13.71 41.22 13.71C37.56 13.71 34.54 10.74 34.59 7.07996C34.64 3.37996 37.63 0.399961 41.22 0.449961Z" fill="#6F3121"/>
<path d="M41.22 0.459971C44.88 0.509971 47.85 3.42997 47.85 7.08997C47.85 10.75 44.88 13.72 41.22 13.72C37.56 13.72 34.54 10.75 34.59 7.08997C34.64 3.38997 37.63 0.409971 41.22 0.459971Z" fill="#6F3121"/>
<path d="M41.22 0.459971C44.88 0.509971 47.85 3.42997 47.85 7.08997C47.85 10.75 44.88 13.72 41.22 13.72C37.56 13.72 34.54 10.75 34.59 7.08997C34.64 3.38997 37.63 0.409971 41.22 0.459971Z" fill="#703121"/>
<path d="M41.23 0.46998C44.89 0.51998 47.86 3.43998 47.86 7.09998C47.86 10.76 44.89 13.73 41.23 13.73C37.57 13.73 34.55 10.76 34.6 7.09998C34.65 3.39998 37.64 0.41998 41.23 0.46998Z" fill="#713221"/>
<path d="M41.23 0.46998C44.89 0.51998 47.86 3.43998 47.86 7.09998C47.86 10.76 44.89 13.73 41.23 13.73C37.57 13.73 34.55 10.76 34.6 7.09998C34.65 3.39998 37.64 0.41998 41.23 0.46998Z" fill="#713221"/>
<path d="M41.24 0.47999C44.9 0.52999 47.87 3.44999 47.87 7.10999C47.87 10.77 44.9 13.74 41.24 13.74C37.58 13.74 34.56 10.77 34.61 7.10999C34.66 3.40999 37.65 0.42999 41.24 0.47999Z" fill="#723221"/>
<path d="M41.24 0.49C44.9 0.54 47.87 3.46 47.87 7.12C47.87 10.78 44.9 13.75 41.24 13.75C37.58 13.75 34.56 10.78 34.61 7.12C34.66 3.42 37.65 0.44 41.24 0.49Z" fill="#733321"/>
<path d="M41.25 0.49C44.91 0.54 47.88 3.46 47.88 7.12C47.88 10.78 44.91 13.75 41.25 13.75C37.59 13.75 34.57 10.78 34.62 7.12C34.67 3.42 37.66 0.44 41.25 0.49Z" fill="#733321"/>
<path d="M41.25 0.50001C44.91 0.56001 47.88 3.47001 47.88 7.13001C47.88 10.79 44.91 13.76 41.25 13.76C37.59 13.76 34.57 10.79 34.62 7.13001C34.67 3.43001 37.66 0.45001 41.25 0.50001Z" fill="#743321"/>
<path d="M41.26 0.50001C44.92 0.56001 47.89 3.47001 47.89 7.13001C47.89 10.79 44.92 13.76 41.26 13.76C37.6 13.76 34.58 10.79 34.63 7.13001C34.68 3.43001 37.67 0.45001 41.26 0.50001Z" fill="#753422"/>
<path d="M41.26 0.51002C44.92 0.57002 47.89 3.48002 47.89 7.14002C47.89 10.8 44.92 13.77 41.26 13.77C37.6 13.77 34.58 10.8 34.63 7.14002C34.68 3.44002 37.67 0.46002 41.26 0.51002Z" fill="#753422"/>
<path d="M41.26 0.51002C44.92 0.57002 47.89 3.48002 47.89 7.14002C47.89 10.8 44.92 13.77 41.26 13.77C37.6 13.77 34.58 10.8 34.63 7.14002C34.68 3.44002 37.67 0.46002 41.26 0.51002Z" fill="#763522"/>
<path d="M41.27 0.520029C44.93 0.580029 47.9 3.49003 47.9 7.15003C47.9 10.81 44.93 13.78 41.27 13.78C37.61 13.78 34.59 10.81 34.64 7.15003C34.69 3.45003 37.68 0.470029 41.27 0.520029Z" fill="#773522"/>
<path d="M41.27 0.520029C44.93 0.580029 47.9 3.49003 47.9 7.15003C47.9 10.81 44.93 13.78 41.27 13.78C37.61 13.78 34.59 10.81 34.64 7.15003C34.69 3.45003 37.68 0.470029 41.27 0.520029Z" fill="#773522"/>
<path d="M41.28 0.530039C44.94 0.590039 47.91 3.50004 47.91 7.16004C47.91 10.82 44.94 13.79 41.28 13.79C37.62 13.79 34.6 10.82 34.65 7.16004C34.7 3.46004 37.69 0.480039 41.28 0.530039Z" fill="#783622"/>
<path d="M41.2798 0.539953C44.9398 0.599953 47.8998 3.50995 47.8998 7.15995C47.8998 10.81 44.9298 13.78 41.2798 13.78C37.6298 13.78 34.5998 10.81 34.6598 7.15995C34.7098 3.45995 37.6998 0.479953 41.2798 0.539953Z" fill="#793622"/>
<path d="M41.2898 0.539953C44.9498 0.599953 47.9098 3.50995 47.9098 7.15995C47.9098 10.81 44.9398 13.78 41.2898 13.78C37.6398 13.78 34.6098 10.81 34.6698 7.15995C34.7198 3.45995 37.7098 0.479953 41.2898 0.539953Z" fill="#793622"/>
<path d="M41.2898 0.549963C44.9498 0.609963 47.9098 3.51996 47.9098 7.16996C47.9098 10.82 44.9398 13.79 41.2898 13.79C37.6398 13.79 34.6098 10.82 34.6698 7.16996C34.7298 3.46996 37.7098 0.489963 41.2898 0.549963Z" fill="#7A3722"/>
<path d="M41.2898 0.549963C44.9498 0.609963 47.9098 3.51996 47.9098 7.16996C47.9098 10.82 44.9398 13.79 41.2898 13.79C37.6398 13.79 34.6098 10.82 34.6698 7.16996C34.7298 3.46996 37.7098 0.489963 41.2898 0.549963Z" fill="#7B3722"/>
<path d="M41.2998 0.559972C44.9598 0.619972 47.9198 3.51997 47.9198 7.17997C47.9198 10.84 44.9598 13.8 41.2998 13.8C37.6398 13.8 34.6198 10.83 34.6798 7.17997C34.7398 3.47997 37.7198 0.499972 41.2998 0.559972Z" fill="#7B3723"/>
<path d="M41.2998 0.559972C44.9598 0.619972 47.9198 3.51997 47.9198 7.17997C47.9198 10.84 44.9598 13.8 41.2998 13.8C37.6398 13.8 34.6198 10.83 34.6798 7.17997C34.7398 3.47997 37.7298 0.499972 41.2998 0.559972Z" fill="#7C3823"/>
<path d="M41.3098 0.569982C44.9698 0.629982 47.9298 3.52998 47.9298 7.18998C47.9298 10.85 44.9698 13.81 41.3098 13.81C37.6498 13.81 34.6298 10.85 34.6898 7.18998C34.7498 3.48998 37.7398 0.509982 41.3098 0.569982Z" fill="#7D3823"/>
<path d="M41.3098 0.569982C44.9598 0.629982 47.9298 3.52998 47.9298 7.18998C47.9298 10.85 44.9698 13.81 41.3098 13.81C37.6498 13.81 34.6298 10.85 34.6898 7.18998C34.7498 3.48998 37.7398 0.509982 41.3098 0.569982Z" fill="#7E3823"/>
<path d="M41.3199 0.579992C44.9699 0.639992 47.9399 3.53999 47.9399 7.19999C47.9399 10.86 44.9799 13.82 41.3199 13.82C37.6599 13.82 34.6399 10.86 34.6999 7.19999C34.7599 3.49999 37.7499 0.519992 41.3199 0.579992Z" fill="#7E3923"/>
<path d="M41.3199 0.590002C44.9699 0.660002 47.9399 3.55 47.9399 7.21C47.9399 10.87 44.9799 13.83 41.3199 13.83C37.6599 13.83 34.6399 10.87 34.6999 7.21C34.7599 3.51 37.7499 0.530002 41.3199 0.590002Z" fill="#7F3923"/>
<path d="M41.3199 0.590002C44.9699 0.660002 47.9399 3.55 47.9399 7.21C47.9399 10.87 44.9799 13.83 41.3199 13.83C37.6599 13.83 34.6399 10.87 34.6999 7.21C34.7599 3.51 37.7499 0.530002 41.3199 0.590002Z" fill="#803923"/>
<path d="M41.3299 0.600011C44.9799 0.670011 47.9499 3.56001 47.9499 7.22001C47.9499 10.88 44.9899 13.84 41.3299 13.84C37.6699 13.84 34.6499 10.88 34.7099 7.22001C34.7699 3.52001 37.7599 0.540011 41.3299 0.600011Z" fill="#803A23"/>
<path d="M41.3299 0.600011C44.9799 0.670011 47.9499 3.56001 47.9499 7.22001C47.9499 10.88 44.9899 13.84 41.3299 13.84C37.6699 13.84 34.6499 10.88 34.7099 7.22001C34.7699 3.52001 37.7599 0.540011 41.3299 0.600011Z" fill="#813A23"/>
<path d="M41.3399 0.610021C44.9899 0.680021 47.9599 3.57002 47.9599 7.23002C47.9599 10.89 44.9999 13.85 41.3399 13.85C37.6799 13.85 34.6599 10.89 34.7199 7.23002C34.7799 3.53002 37.7699 0.550021 41.3399 0.610021Z" fill="#823A23"/>
<path d="M41.3399 0.610021C44.9899 0.680021 47.9599 3.57002 47.9599 7.23002C47.9599 10.89 44.9999 13.85 41.3399 13.85C37.6799 13.85 34.6599 10.89 34.7199 7.23002C34.7799 3.53002 37.7699 0.550021 41.3399 0.610021Z" fill="#823B23"/>
<path d="M41.3499 0.619983C44.9999 0.689983 47.9599 3.57998 47.9599 7.22998C47.9599 10.88 44.9999 13.84 41.3499 13.84C37.6999 13.84 34.6699 10.88 34.7299 7.22998C34.7899 3.52998 37.7799 0.549983 41.3499 0.619983Z" fill="#833B23"/>
<path d="M41.35 0.629993C45 0.699993 47.96 3.58999 47.96 7.23999C47.96 10.89 45 13.85 41.35 13.85C37.7 13.85 34.67 10.89 34.74 7.23999C34.8 3.53999 37.79 0.559993 41.35 0.629993Z" fill="#843B24"/>
<path d="M41.36 0.629993C45.01 0.699993 47.97 3.58999 47.97 7.23999C47.97 10.89 45.01 13.85 41.36 13.85C37.71 13.85 34.68 10.89 34.75 7.23999C34.81 3.53999 37.8 0.559993 41.36 0.629993Z" fill="#853C24"/>
<path d="M41.36 0.640002C45.01 0.710002 47.97 3.6 47.97 7.25C47.97 10.9 45.01 13.86 41.36 13.86C37.71 13.86 34.68 10.9 34.75 7.25C34.81 3.55 37.8 0.570002 41.36 0.640002Z" fill="#853C24"/>
<path d="M41.36 0.640002C45.01 0.710002 47.97 3.6 47.97 7.25C47.97 10.9 45.01 13.86 41.36 13.86C37.71 13.86 34.68 10.9 34.75 7.25C34.81 3.55 37.8 0.570002 41.36 0.640002Z" fill="#863D24"/>
<path d="M41.37 0.650012C45.02 0.720012 47.98 3.61001 47.98 7.26001C47.98 10.91 45.02 13.87 41.37 13.87C37.72 13.87 34.69 10.91 34.76 7.26001C34.83 3.56001 37.81 0.580012 41.37 0.650012Z" fill="#873D24"/>
<path d="M41.37 0.650012C45.02 0.720012 47.98 3.61001 47.98 7.26001C47.98 10.91 45.02 13.87 41.37 13.87C37.72 13.87 34.69 10.91 34.76 7.26001C34.83 3.56001 37.81 0.580012 41.37 0.650012Z" fill="#883D24"/>
<path d="M41.38 0.660022C45.03 0.730022 47.99 3.62002 47.99 7.27002C47.99 10.92 45.03 13.88 41.38 13.88C37.73 13.88 34.7 10.92 34.77 7.27002C34.84 3.57002 37.82 0.590022 41.38 0.660022Z" fill="#883E24"/>
<path d="M41.38 0.660022C45.03 0.730022 47.99 3.62002 47.99 7.27002C47.99 10.92 45.03 13.88 41.38 13.88C37.73 13.88 34.7 10.92 34.77 7.27002C34.84 3.57002 37.82 0.590022 41.38 0.660022Z" fill="#893E24"/>
<path d="M41.39 0.670032C45.04 0.740032 48 3.63003 48 7.28003C48 10.93 45.04 13.89 41.39 13.89C37.74 13.89 34.71 10.93 34.78 7.28003C34.85 3.58003 37.84 0.600032 41.39 0.670032Z" fill="#8A3E24"/>
<path d="M41.3899 0.680041C45.0399 0.760041 47.9999 3.64004 47.9999 7.29004C47.9999 10.94 45.0399 13.9 41.3899 13.9C37.7399 13.9 34.7199 10.94 34.7799 7.29004C34.8499 3.59004 37.8399 0.610041 41.3899 0.680041Z" fill="#8A3F24"/>
<path d="M41.3899 0.680041C45.0399 0.760041 47.9999 3.64004 47.9999 7.29004C47.9999 10.94 45.0399 13.9 41.3899 13.9C37.7399 13.9 34.7199 10.94 34.7799 7.29004C34.8499 3.59004 37.8399 0.610041 41.3899 0.680041Z" fill="#8B3F24"/>
<path d="M41.3999 0.690051C45.0499 0.770051 48.0099 3.65005 48.0099 7.30005C48.0099 10.9501 45.0499 13.9101 41.3999 13.9101C37.7499 13.9101 34.7299 10.9501 34.7899 7.30005C34.8599 3.60005 37.8499 0.620051 41.3999 0.690051Z" fill="#8C3F24"/>
<path d="M41.3999 0.690051C45.0499 0.770051 48.0099 3.65005 48.0099 7.30005C48.0099 10.9501 45.0499 13.9101 41.3999 13.9101C37.7499 13.9101 34.7299 10.9501 34.7899 7.30005C34.8599 3.60005 37.8499 0.620051 41.3999 0.690051Z" fill="#8D4024"/>
<path d="M41.41 0.699939C45.06 0.779939 48.02 3.65994 48.02 7.30994C48.02 10.9599 45.06 13.9199 41.41 13.9199C37.76 13.9199 34.74 10.9599 34.8 7.30994C34.87 3.60994 37.86 0.629939 41.41 0.699939Z" fill="#8D4024"/>
<path d="M41.4099 0.70006C45.0599 0.78006 48.0099 3.66006 48.0099 7.30006C48.0099 10.9401 45.0499 13.9101 41.4099 13.9101C37.7699 13.9101 34.7399 10.9501 34.7999 7.30006C34.8699 3.60006 37.8599 0.62006 41.4099 0.70006Z" fill="#8E4025"/>
<path d="M41.42 0.709948C45.07 0.789948 48.02 3.66995 48.02 7.30995C48.02 10.9499 45.06 13.9099 41.42 13.9099C37.78 13.9099 34.75 10.9499 34.82 7.30995C34.89 3.60995 37.88 0.629948 41.42 0.709948Z" fill="#8F4125"/>
<path d="M41.42 0.709948C45.07 0.789948 48.02 3.66995 48.02 7.30995C48.02 10.9499 45.06 13.9099 41.42 13.9099C37.78 13.9099 34.75 10.9499 34.82 7.30995C34.89 3.60995 37.88 0.629948 41.42 0.709948Z" fill="#904125"/>
<path d="M41.4298 0.719958C45.0798 0.799958 48.0298 3.67996 48.0298 7.31996C48.0298 10.96 45.0698 13.92 41.4298 13.92C37.7898 13.92 34.7598 10.96 34.8298 7.31996C34.8998 3.61996 37.8898 0.639958 41.4298 0.719958Z" fill="#904125"/>
<path d="M41.4298 0.729967C45.0698 0.809967 48.0298 3.68997 48.0298 7.32997C48.0298 10.97 45.0698 13.93 41.4298 13.93C37.7898 13.93 34.7598 10.97 34.8298 7.32997C34.8998 3.62997 37.8898 0.649967 41.4298 0.729967Z" fill="#914225"/>
<path d="M41.4298 0.729967C45.0698 0.809967 48.0298 3.68997 48.0298 7.32997C48.0298 10.97 45.0698 13.93 41.4298 13.93C37.7898 13.93 34.7598 10.97 34.8298 7.32997C34.8998 3.62997 37.8898 0.649967 41.4298 0.729967Z" fill="#924225"/>
<path d="M41.4398 0.739977C45.0798 0.819977 48.0398 3.69998 48.0398 7.33998C48.0398 10.98 45.0798 13.94 41.4398 13.94C37.7998 13.94 34.7698 10.98 34.8398 7.33998C34.9098 3.63998 37.8998 0.659977 41.4398 0.739977Z" fill="#934325"/>
<path d="M41.4398 0.739977C45.0798 0.819977 48.0398 3.68998 48.0398 7.33998C48.0398 10.99 45.0898 13.94 41.4398 13.94C37.7898 13.94 34.7698 10.98 34.8398 7.33998C34.9098 3.63998 37.8998 0.659977 41.4398 0.739977Z" fill="#934325"/>
<path d="M41.4498 0.749987C45.0898 0.829987 48.0498 3.69999 48.0498 7.34999C48.0498 11 45.0998 13.95 41.4498 13.95C37.7998 13.95 34.7798 10.99 34.8498 7.34999C34.9298 3.64999 37.9098 0.669987 41.4498 0.749987Z" fill="#944325"/>
<path d="M41.4498 0.749987C45.0898 0.829987 48.0498 3.69999 48.0498 7.34999C48.0498 11 45.0998 13.95 41.4498 13.95C37.7998 13.95 34.7798 10.99 34.8498 7.34999C34.9298 3.64999 37.9098 0.669987 41.4498 0.749987Z" fill="#954425"/>
<path d="M41.4598 0.759997C45.0998 0.839997 48.0598 3.71 48.0598 7.36C48.0598 11.01 45.1098 13.96 41.4598 13.96C37.8098 13.96 34.7898 11 34.8598 7.36C34.9398 3.66 37.9198 0.679997 41.4598 0.759997Z" fill="#964425"/>
<path d="M41.4598 0.759997C45.0998 0.849997 48.0598 3.71 48.0598 7.36C48.0598 11.01 45.1098 13.96 41.4598 13.96C37.8098 13.96 34.7898 11.01 34.8598 7.36C34.9398 3.66 37.9198 0.679997 41.4598 0.759997Z" fill="#974425"/>
<path d="M41.4598 0.770007C45.0998 0.860007 48.0598 3.72001 48.0598 7.37001C48.0598 11.02 45.1098 13.97 41.4598 13.97C37.8098 13.97 34.7898 11.02 34.8598 7.37001C34.9398 3.67001 37.9198 0.690007 41.4598 0.770007Z" fill="#974525"/>
<path d="M41.4698 0.780016C45.1098 0.870016 48.0698 3.73002 48.0698 7.38002C48.0698 11.03 45.1198 13.98 41.4698 13.98C37.8198 13.98 34.7998 11.03 34.8698 7.38002C34.9498 3.68002 37.9298 0.700016 41.4698 0.780016Z" fill="#984525"/>
<path d="M41.4698 0.780016C45.1098 0.870016 48.0698 3.73002 48.0698 7.38002C48.0698 11.03 45.1198 13.98 41.4698 13.98C37.8198 13.98 34.7998 11.03 34.8698 7.38002C34.9498 3.68002 37.9398 0.700016 41.4698 0.780016Z" fill="#994525"/>
<path d="M41.4799 0.790026C45.1199 0.880026 48.0799 3.74003 48.0799 7.39003C48.0799 11.04 45.1299 13.99 41.4799 13.99C37.8299 13.99 34.8099 11.04 34.8799 7.39003C34.9599 3.69003 37.9499 0.710026 41.4799 0.790026Z" fill="#9A4625"/>
<path d="M41.48 0.78995C45.12 0.87995 48.07 3.73995 48.07 7.37995C48.07 11.02 45.12 13.97 41.48 13.97C37.84 13.97 34.81 11.02 34.89 7.37995C34.97 3.67995 37.96 0.69995 41.48 0.78995Z" fill="#9A4625"/>
<path d="M41.49 0.79996C45.13 0.88996 48.08 3.74996 48.08 7.38996C48.08 11.03 45.13 13.98 41.49 13.98C37.85 13.98 34.82 11.03 34.9 7.38996C34.98 3.68996 37.97 0.70996 41.49 0.79996Z" fill="#9B4625"/>
<path d="M41.49 0.79996C45.13 0.88996 48.08 3.74996 48.08 7.38996C48.08 11.03 45.13 13.98 41.49 13.98C37.85 13.98 34.82 11.03 34.9 7.38996C34.98 3.68996 37.97 0.70996 41.49 0.79996Z" fill="#9C4725"/>
<path d="M41.5 0.80997C45.14 0.89997 48.09 3.75997 48.09 7.39997C48.09 11.04 45.14 13.99 41.5 13.99C37.86 13.99 34.83 11.04 34.91 7.39997C34.99 3.69997 37.98 0.71997 41.5 0.80997Z" fill="#9D4725"/>
<path d="M41.5 0.819979C45.14 0.909979 48.09 3.76998 48.09 7.40998C48.09 11.05 45.14 14 41.5 14C37.86 14 34.83 11.05 34.91 7.40998C34.99 3.70998 37.98 0.729979 41.5 0.819979Z" fill="#9D4725"/>
<path d="M41.5 0.819979C45.14 0.909979 48.09 3.76998 48.09 7.40998C48.09 11.05 45.14 14 41.5 14C37.86 14 34.83 11.05 34.91 7.40998C34.99 3.70998 37.98 0.729979 41.5 0.819979Z" fill="#9E4825"/>
<path d="M41.51 0.829989C45.15 0.919989 48.1 3.77999 48.1 7.41999C48.1 11.06 45.15 14.01 41.51 14.01C37.87 14.01 34.84 11.06 34.92 7.41999C35 3.71999 37.99 0.739989 41.51 0.829989Z" fill="#9F4825"/>
<path d="M41.51 0.829989C45.15 0.919989 48.1 3.77999 48.1 7.41999C48.1 11.06 45.15 14.01 41.51 14.01C37.87 14.01 34.84 11.06 34.92 7.41999C35 3.71999 37.99 0.739989 41.51 0.829989Z" fill="#A04925"/>
<path d="M41.52 0.839999C45.16 0.929999 48.11 3.79 48.11 7.43C48.11 11.07 45.16 14.02 41.52 14.02C37.88 14.02 34.85 11.07 34.93 7.43C35.01 3.73 38 0.749999 41.52 0.839999Z" fill="#A14925"/>
<path d="M41.52 0.839999C45.16 0.929999 48.11 3.79 48.11 7.43C48.11 11.07 45.16 14.02 41.52 14.02C37.88 14.02 34.85 11.07 34.93 7.43C35.01 3.73 38 0.749999 41.52 0.839999Z" fill="#A14925"/>
<path d="M41.53 0.850009C45.17 0.940009 48.12 3.80001 48.12 7.44001C48.12 11.08 45.17 14.03 41.53 14.03C37.89 14.03 34.86 11.08 34.94 7.44001C35.03 3.74001 38.01 0.760009 41.53 0.850009Z" fill="#A24A25"/>
<path d="M41.53 0.850009C45.17 0.950009 48.12 3.80001 48.12 7.44001C48.12 11.08 45.17 14.03 41.53 14.03C37.89 14.03 34.86 11.08 34.94 7.44001C35.03 3.74001 38.01 0.760009 41.53 0.850009Z" fill="#A34A25"/>
<path d="M41.53 0.860019C45.17 0.960019 48.12 3.81002 48.12 7.45002C48.12 11.09 45.17 14.04 41.53 14.04C37.89 14.04 34.86 11.09 34.94 7.45002C35.03 3.75002 38.01 0.770019 41.53 0.860019Z" fill="#A44A25"/>
<path d="M41.54 0.870028C45.18 0.970028 48.13 3.82003 48.13 7.46003C48.13 11.1 45.18 14.05 41.54 14.05C37.9 14.05 34.87 11.1 34.95 7.46003C35.04 3.76003 38.02 0.780028 41.54 0.870028Z" fill="#A44B25"/>
<path d="M41.54 0.870028C45.18 0.970028 48.13 3.82003 48.13 7.46003C48.13 11.1 45.18 14.05 41.54 14.05C37.9 14.05 34.87 11.1 34.95 7.46003C35.04 3.76003 38.02 0.780028 41.54 0.870028Z" fill="#A54B25"/>
<path d="M41.55 0.880009C45.19 0.980009 48.13 3.83001 48.13 7.46001C48.13 11.09 45.18 14.04 41.55 14.04C37.92 14.04 34.88 11.09 34.96 7.46001C35.05 3.76001 38.03 0.780009 41.55 0.880009Z" fill="#A64B25"/>
<path d="M41.55 0.880009C45.18 0.980009 48.13 3.83001 48.13 7.46001C48.13 11.09 45.18 14.04 41.55 14.04C37.92 14.04 34.88 11.09 34.97 7.46001C35.06 3.76001 38.04 0.780009 41.55 0.880009Z" fill="#A74C25"/>
<path d="M41.56 0.890018C45.19 0.990019 48.14 3.84002 48.14 7.47002C48.14 11.1 45.19 14.05 41.56 14.05C37.93 14.05 34.89 11.1 34.98 7.47002C35.07 3.77002 38.06 0.790018 41.56 0.890018Z" fill="#A74C25"/>
<path d="M41.56 0.890018C45.19 0.990019 48.14 3.84002 48.14 7.47002C48.14 11.1 45.19 14.05 41.56 14.05C37.93 14.05 34.89 11.1 34.98 7.47002C35.07 3.77002 38.06 0.790018 41.56 0.890018Z" fill="#A84C25"/>
<path d="M41.56 0.900028C45.19 1.00003 48.14 3.85003 48.14 7.48003C48.14 11.11 45.19 14.06 41.56 14.06C37.93 14.06 34.89 11.11 34.98 7.48003C35.07 3.78003 38.06 0.800028 41.56 0.900028Z" fill="#A94D25"/>
<path d="M41.57 0.900028C45.2 1.00003 48.15 3.85003 48.15 7.48003C48.15 11.11 45.2 14.06 41.57 14.06C37.94 14.06 34.9 11.11 34.99 7.48003C35.08 3.78003 38.07 0.800028 41.57 0.900028Z" fill="#AA4D25"/>
<path d="M41.57 0.910038C45.2 1.01004 48.15 3.86004 48.15 7.49004C48.15 11.12 45.2 14.07 41.57 14.07C37.94 14.07 34.9 11.12 34.99 7.49004C35.08 3.79004 38.07 0.810038 41.57 0.910038Z" fill="#AB4D25"/>
<path d="M41.58 0.920048C45.21 1.02005 48.16 3.87005 48.16 7.50005C48.16 11.13 45.21 14.08 41.58 14.08C37.95 14.08 34.91 11.13 35 7.50005C35.09 3.80005 38.08 0.820048 41.58 0.920048Z" fill="#AB4E25"/>
<path d="M41.58 0.920048C45.21 1.02005 48.16 3.87005 48.16 7.50005C48.16 11.13 45.21 14.08 41.58 14.08C37.95 14.08 34.91 11.13 35 7.50005C35.09 3.80005 38.08 0.820048 41.58 0.920048Z" fill="#AC4E25"/>
<path d="M41.59 0.930058C45.22 1.03006 48.17 3.88006 48.17 7.51006C48.17 11.1401 45.22 14.0901 41.59 14.0901C37.96 14.0901 34.92 11.1401 35.01 7.51006C35.1 3.81006 38.09 0.830058 41.59 0.930058Z" fill="#AD4F25"/>
<path d="M41.59 0.930058C45.22 1.03006 48.17 3.87006 48.17 7.51006C48.17 11.1501 45.23 14.0901 41.59 14.0901C37.95 14.0901 34.92 11.1401 35.01 7.51006C35.1 3.81006 38.09 0.830058 41.59 0.930058Z" fill="#AE4F25"/>
<path d="M41.6 0.939945C45.23 1.03995 48.18 3.87995 48.18 7.51995C48.18 11.1599 45.24 14.0999 41.6 14.0999C37.96 14.0999 34.93 11.1499 35.02 7.51995C35.11 3.81995 38.1 0.839945 41.6 0.939945Z" fill="#AF4F25"/>
<path d="M41.6 0.939945C45.23 1.04995 48.18 3.87995 48.18 7.51995C48.18 11.1599 45.24 14.0999 41.6 14.0999C37.96 14.0999 34.93 11.1499 35.02 7.51995C35.12 3.81995 38.1 0.839945 41.6 0.939945Z" fill="#AF5025"/>
<path d="M41.6 0.949955C45.23 1.05996 48.18 3.88996 48.18 7.52996C48.18 11.17 45.24 14.11 41.6 14.11C37.96 14.11 34.93 11.16 35.02 7.52996C35.12 3.82996 38.1 0.849955 41.6 0.949955Z" fill="#B05025"/>
<path d="M41.61 0.949955C45.24 1.05996 48.19 3.88996 48.19 7.52996C48.19 11.17 45.25 14.11 41.61 14.11C37.97 14.11 34.94 11.16 35.03 7.52996C35.13 3.82996 38.11 0.849955 41.61 0.949955Z" fill="#B15025"/>
<path d="M41.61 0.959982C45.24 1.06998 48.18 3.89998 48.18 7.52998C48.18 11.16 45.24 14.11 41.61 14.11C37.98 14.11 34.94 11.16 35.03 7.52998C35.13 3.82998 38.11 0.849982 41.61 0.959982Z" fill="#B25125"/>
<path d="M41.62 0.969991C45.25 1.07999 48.19 3.90999 48.19 7.53999C48.19 11.17 45.25 14.11 41.62 14.11C37.99 14.11 34.95 11.17 35.05 7.53999C35.15 3.83999 38.13 0.859991 41.62 0.969991Z" fill="#B35125"/>
<path d="M41.62 0.969991C45.25 1.07999 48.19 3.90999 48.19 7.53999C48.19 11.17 45.25 14.11 41.62 14.11C37.99 14.11 34.95 11.17 35.05 7.53999C35.15 3.83999 38.13 0.859991 41.62 0.969991Z" fill="#B35125"/>
<path d="M41.63 0.980001C45.26 1.09 48.2 3.92 48.2 7.55C48.2 11.18 45.26 14.12 41.63 14.12C38 14.12 34.96 11.18 35.06 7.55C35.16 3.85 38.14 0.870001 41.63 0.980001Z" fill="#B45225"/>
<path d="M41.63 0.980001C45.26 1.09 48.2 3.92 48.2 7.55C48.2 11.18 45.26 14.12 41.63 14.12C38 14.12 34.96 11.18 35.06 7.55C35.16 3.85 38.14 0.870001 41.63 0.980001Z" fill="#B55225"/>
<path d="M41.63 0.990011C45.26 1.10001 48.2 3.93001 48.2 7.56001C48.2 11.19 45.26 14.13 41.63 14.13C38 14.13 34.96 11.19 35.06 7.56001C35.16 3.86001 38.14 0.880011 41.63 0.990011Z" fill="#B65325"/>
<path d="M41.64 0.990011C45.27 1.10001 48.21 3.93001 48.21 7.56001C48.21 11.19 45.27 14.13 41.64 14.13C38.01 14.13 34.97 11.19 35.07 7.56001C35.17 3.86001 38.15 0.880011 41.64 0.990011Z" fill="#B75325"/>
<path d="M41.64 1.00002C45.27 1.11002 48.21 3.94002 48.21 7.57002C48.21 11.2 45.27 14.14 41.64 14.14C38.01 14.14 34.97 11.2 35.07 7.57002C35.17 3.87002 38.16 0.890021 41.64 1.00002Z" fill="#B75325"/>
<path d="M41.65 1.00002C45.28 1.11002 48.22 3.94002 48.22 7.57002C48.22 11.2 45.28 14.14 41.65 14.14C38.02 14.14 34.98 11.2 35.08 7.57002C35.18 3.87002 38.17 0.890021 41.65 1.00002Z" fill="#B85425"/>
<path d="M41.65 1.01003C45.28 1.12003 48.22 3.95003 48.22 7.58003C48.22 11.21 45.28 14.15 41.65 14.15C38.02 14.15 34.98 11.21 35.08 7.58003C35.18 3.88003 38.17 0.90003 41.65 1.01003Z" fill="#B95425"/>
<path d="M41.6598 1.02004C45.2898 1.13004 48.2298 3.96004 48.2298 7.59004C48.2298 11.22 45.2898 14.16 41.6598 14.16C38.0298 14.16 34.9898 11.22 35.0898 7.59004C35.1898 3.89004 38.1798 0.91004 41.6598 1.02004Z" fill="#BA5425"/>
<path d="M41.6598 1.02004C45.2898 1.13004 48.2298 3.96004 48.2298 7.59004C48.2298 11.22 45.2898 14.16 41.6598 14.16C38.0298 14.16 34.9898 11.22 35.0898 7.59004C35.1898 3.89004 38.1798 0.91004 41.6598 1.02004Z" fill="#BB5525"/>
<path d="M41.6698 1.03005C45.2998 1.14005 48.2398 3.97005 48.2398 7.60005C48.2398 11.2301 45.2998 14.17 41.6698 14.17C38.0398 14.17 34.9998 11.2301 35.0998 7.60005C35.1998 3.90005 38.1898 0.92005 41.6698 1.03005Z" fill="#BB5525"/>
<path d="M41.6698 1.03005C45.2898 1.15005 48.2398 3.97005 48.2398 7.60005C48.2398 11.2301 45.2998 14.17 41.6698 14.17C38.0398 14.17 34.9998 11.2301 35.0998 7.60005C35.1998 3.90005 38.1898 0.92005 41.6698 1.03005Z" fill="#BC5525"/>
<path d="M41.6698 1.04006C45.2898 1.16006 48.2398 3.98006 48.2398 7.61006C48.2398 11.2401 45.2998 14.1801 41.6698 14.1801C38.0398 14.1801 34.9998 11.2401 35.0998 7.61006C35.1998 3.91006 38.1898 0.93006 41.6698 1.04006Z" fill="#BD5625"/>
<path d="M41.6798 1.04006C45.2998 1.16006 48.2398 3.98006 48.2398 7.61006C48.2398 11.2401 45.2998 14.1801 41.6798 14.1801C38.0598 14.1801 35.0098 11.2401 35.1098 7.61006C35.2198 3.91006 38.1998 0.93006 41.6798 1.04006Z" fill="#BE5625"/>
<path d="M41.6798 1.05001C45.2998 1.17001 48.2398 3.99001 48.2398 7.61001C48.2398 11.23 45.2998 14.17 41.6798 14.17C38.0598 14.17 35.0098 11.23 35.1198 7.61001C35.2298 3.91001 38.2098 0.93001 41.6798 1.05001Z" fill="#BF5725"/>
<path d="M41.6898 1.06002C45.3098 1.18002 48.2498 4.00002 48.2498 7.62002C48.2498 11.24 45.3098 14.18 41.6898 14.18C38.0698 14.18 35.0198 11.24 35.1298 7.62002C35.2398 3.92002 38.2198 0.94002 41.6898 1.06002Z" fill="#BF5725"/>
<path d="M41.6898 1.06002C45.3098 1.18002 48.2498 4.00002 48.2498 7.62002C48.2498 11.24 45.3098 14.18 41.6898 14.18C38.0698 14.18 35.0198 11.24 35.1298 7.62002C35.2398 3.92002 38.2198 0.94002 41.6898 1.06002Z" fill="#C05725"/>
<path d="M41.6999 1.07003C45.3198 1.19003 48.2598 4.01003 48.2598 7.63003C48.2598 11.25 45.3198 14.19 41.6999 14.19C38.0799 14.19 35.0298 11.25 35.1398 7.63003C35.2498 3.93003 38.2299 0.95003 41.6999 1.07003Z" fill="#C15825"/>
<path d="M41.6999 1.07003C45.3198 1.19003 48.2598 4.01003 48.2598 7.63003C48.2598 11.25 45.3198 14.19 41.6999 14.19C38.0799 14.19 35.0298 11.25 35.1398 7.63003C35.2498 3.93003 38.2299 0.95003 41.6999 1.07003Z" fill="#C25825"/>
<path d="M41.6999 1.08004C45.3198 1.20004 48.2598 4.02004 48.2598 7.64004C48.2598 11.26 45.3198 14.2 41.6999 14.2C38.0799 14.2 35.0298 11.26 35.1398 7.64004C35.2498 3.94004 38.2299 0.960039 41.6999 1.08004Z" fill="#C35825"/>
<path d="M41.7099 1.08004C45.3299 1.20004 48.2699 4.02004 48.2699 7.64004C48.2699 11.26 45.3299 14.2 41.7099 14.2C38.0899 14.2 35.0399 11.26 35.1499 7.64004C35.2599 3.94004 38.2399 0.960039 41.7099 1.08004Z" fill="#C45925"/>
<path d="M41.7099 1.09005C45.3299 1.21005 48.2699 4.03005 48.2699 7.65005C48.2699 11.27 45.3299 14.21 41.7099 14.21C38.0899 14.21 35.0399 11.27 35.1499 7.65005C35.2599 3.95005 38.2399 0.970049 41.7099 1.09005Z" fill="#C45925"/>
<path d="M41.7199 1.09005C45.3399 1.21005 48.2799 4.03005 48.2799 7.65005C48.2799 11.27 45.3399 14.21 41.7199 14.21C38.0999 14.21 35.0499 11.27 35.1599 7.65005C35.2699 3.95005 38.2499 0.970049 41.7199 1.09005Z" fill="#C55925"/>
<path d="M41.7199 1.10006C45.3399 1.22006 48.2799 4.04006 48.2799 7.66006C48.2799 11.2801 45.3399 14.2201 41.7199 14.2201C38.0999 14.2201 35.0499 11.2801 35.1599 7.66006C35.2699 3.96006 38.2499 0.980059 41.7199 1.10006Z" fill="#C65A25"/>
<path d="M41.7299 1.10995C45.3499 1.22995 48.2899 4.04995 48.2899 7.66995C48.2899 11.2899 45.3499 14.2299 41.7299 14.2299C38.1099 14.2299 35.0599 11.2899 35.1699 7.66995C35.2799 3.96995 38.2699 0.989947 41.7299 1.10995Z" fill="#C75A25"/>
<path d="M41.7299 1.10996C45.3499 1.22996 48.2899 4.04996 48.2899 7.66996C48.2899 11.29 45.3499 14.23 41.7299 14.23C38.1099 14.23 35.0599 11.29 35.1699 7.66996C35.2799 3.95996 38.2699 0.989958 41.7299 1.10996Z" fill="#C85B25"/>
<path d="M41.7299 1.11997C45.3499 1.23997 48.2899 4.05997 48.2899 7.67997C48.2899 11.3 45.3499 14.24 41.7299 14.24C38.1099 14.24 35.0599 11.3 35.1699 7.67997C35.2799 3.96997 38.2699 0.999968 41.7299 1.11997Z" fill="#C95B24"/>
<path d="M48.2999 7.67997C48.2999 11.3 45.3699 14.24 41.7399 14.24C38.1099 14.24 35.0699 11.3 35.1799 7.67997C35.2899 3.96997 38.2799 0.999968 41.7399 1.11997C45.3599 1.24997 48.2999 4.04997 48.2999 7.67997Z" fill="#CA5B24"/>
<path d="M41.7399 1.13004C45.3599 1.25004 48.2999 4.06004 48.2999 7.69004C48.2999 11.32 45.3699 14.25 41.7399 14.25C38.1099 14.25 35.0699 11.31 35.1799 7.69004C35.2899 3.99004 38.2799 1.02004 41.7399 1.13004Z" fill="#CA5C25"/>
<path opacity="0.99" d="M41.7499 1.13004C45.3699 1.25004 48.3099 4.06004 48.3099 7.69004C48.3099 11.32 45.3799 14.25 41.7499 14.25C38.1199 14.25 35.0799 11.31 35.1899 7.69004C35.2999 3.99004 38.2799 1.02004 41.7499 1.13004Z" fill="#CA5D25"/>
<path opacity="0.99" d="M41.7499 1.13004C45.3699 1.25004 48.3099 4.06004 48.3099 7.69004C48.3099 11.32 45.3799 14.25 41.7499 14.25C38.1199 14.25 35.0799 11.31 35.1899 7.69004C35.2999 3.99004 38.2799 1.02004 41.7499 1.13004Z" fill="#CA5D26"/>
<path opacity="0.98" d="M41.7499 1.13004C45.3699 1.25004 48.3099 4.06004 48.3099 7.69004C48.3099 11.32 45.3799 14.25 41.7499 14.25C38.1199 14.25 35.0899 11.31 35.1899 7.69004C35.2999 3.99004 38.2799 1.02004 41.7499 1.13004Z" fill="#CA5E26"/>
<path opacity="0.98" d="M41.7499 1.14004C45.3699 1.26004 48.3099 4.07004 48.3099 7.70004C48.3099 11.33 45.3799 14.26 41.7499 14.26C38.1199 14.26 35.0899 11.32 35.1899 7.70004C35.2999 4.00004 38.2799 1.03004 41.7499 1.14004Z" fill="#CB5F27"/>
<path opacity="0.97" d="M41.7599 1.14004C45.3799 1.26004 48.3199 4.07004 48.3199 7.70004C48.3199 11.33 45.3899 14.26 41.7599 14.26C38.1299 14.26 35.0999 11.32 35.1999 7.70004C35.3099 4.00004 38.2899 1.03004 41.7599 1.14004Z" fill="#CB6028"/>
<path opacity="0.97" d="M41.7599 1.14004C45.3799 1.26004 48.3199 4.07004 48.3199 7.70004C48.3199 11.33 45.3899 14.26 41.7599 14.26C38.1299 14.26 35.0999 11.32 35.1999 7.70004C35.3099 4.00004 38.2899 1.03004 41.7599 1.14004Z" fill="#CB6028"/>
<path opacity="0.96" d="M41.7599 1.15005C45.3799 1.27005 48.3199 4.08005 48.3199 7.71005C48.3199 11.3401 45.3899 14.2701 41.7599 14.2701C38.1299 14.2701 35.0999 11.3301 35.1999 7.71005C35.3099 4.01005 38.2899 1.04005 41.7599 1.15005Z" fill="#CB6129"/>
<path opacity="0.96" d="M41.7699 1.15005C45.3899 1.27005 48.3299 4.08005 48.3299 7.71005C48.3299 11.3401 45.3999 14.2701 41.7699 14.2701C38.1399 14.2701 35.1099 11.3301 35.2099 7.71005C35.3199 4.01005 38.2999 1.04005 41.7699 1.15005Z" fill="#CC622A"/>
<path opacity="0.95" d="M41.7699 1.15005C45.3899 1.27005 48.3299 4.08005 48.3299 7.71005C48.3299 11.3401 45.3999 14.2701 41.7699 14.2701C38.1399 14.2701 35.1099 11.3301 35.2099 7.71005C35.3199 4.01005 38.2999 1.04005 41.7699 1.15005Z" fill="#CC632A"/>
<path opacity="0.95" d="M41.7699 1.15994C45.3899 1.27994 48.3299 4.08994 48.3299 7.71994C48.3299 11.3499 45.3999 14.2799 41.7699 14.2799C38.1399 14.2799 35.1099 11.3399 35.2099 7.71994C35.3199 4.01994 38.2999 1.04994 41.7699 1.15994Z" fill="#CC632B"/>
<path opacity="0.94" d="M41.7799 1.15994C45.3999 1.27994 48.3399 4.08994 48.3399 7.71994C48.3399 11.3499 45.4099 14.2799 41.7799 14.2799C38.1499 14.2799 35.1199 11.3399 35.2199 7.71994C35.3299 4.01994 38.3099 1.04994 41.7799 1.15994Z" fill="#CC642C"/>
<path opacity="0.94" d="M41.7799 1.15994C45.3999 1.27994 48.3399 4.08994 48.3399 7.71994C48.3399 11.3499 45.4099 14.2799 41.7799 14.2799C38.1499 14.2799 35.1199 11.3399 35.2199 7.71994C35.3299 4.01994 38.3099 1.04994 41.7799 1.15994Z" fill="#CC652C"/>
<path opacity="0.93" d="M41.7799 1.16995C45.3999 1.28995 48.3399 4.09995 48.3399 7.72995C48.3399 11.36 45.4099 14.29 41.7799 14.29C38.1499 14.29 35.1199 11.35 35.2199 7.72995C35.3299 4.02995 38.3099 1.05995 41.7799 1.16995Z" fill="#CD652D"/>
<path opacity="0.93" d="M41.7899 1.16995C45.4099 1.28995 48.3499 4.09995 48.3499 7.72995C48.3499 11.36 45.4199 14.29 41.7899 14.29C38.1599 14.29 35.1299 11.35 35.2299 7.72995C35.3299 4.02995 38.3099 1.05995 41.7899 1.16995Z" fill="#CD662E"/>
<path opacity="0.92" d="M41.7899 1.16995C45.4099 1.28995 48.3499 4.09995 48.3499 7.72995C48.3499 11.36 45.4199 14.29 41.7899 14.29C38.1599 14.29 35.1299 11.35 35.2299 7.72995C35.3299 4.02995 38.3099 1.05995 41.7899 1.16995Z" fill="#CD672F"/>
<path opacity="0.92" d="M41.7899 1.17996C45.4099 1.28996 48.3499 4.10996 48.3499 7.73996C48.3499 11.37 45.4199 14.3 41.7899 14.3C38.1599 14.3 35.1299 11.36 35.2299 7.73996C35.3299 4.03996 38.3099 1.06996 41.7899 1.17996Z" fill="#CD6730"/>
<path opacity="0.91" d="M41.7899 1.17995C45.4099 1.28995 48.3499 4.10995 48.3499 7.73995C48.3499 11.37 45.4199 14.3 41.7899 14.3C38.1599 14.3 35.1299 11.36 35.2299 7.73995C35.3299 4.03995 38.3099 1.07995 41.7899 1.17995Z" fill="#CD6830"/>
<path opacity="0.91" d="M41.8 1.17995C45.42 1.28995 48.36 4.10995 48.36 7.73995C48.36 11.37 45.43 14.3 41.8 14.3C38.17 14.3 35.14 11.36 35.24 7.73995C35.34 4.03995 38.32 1.07995 41.8 1.17995Z" fill="#CE6931"/>
<path opacity="0.9" d="M41.8 1.18996C45.42 1.29996 48.36 4.11996 48.36 7.74996C48.36 11.38 45.43 14.31 41.8 14.31C38.17 14.31 35.14 11.37 35.24 7.74996C35.34 4.04996 38.32 1.08996 41.8 1.18996Z" fill="#CE6A32"/>
<path opacity="0.9" d="M41.8 1.18996C45.42 1.29996 48.36 4.11996 48.36 7.74996C48.36 11.38 45.43 14.31 41.8 14.31C38.17 14.31 35.14 11.37 35.24 7.74996C35.34 4.04996 38.32 1.08996 41.8 1.18996Z" fill="#CE6A33"/>
<path opacity="0.89" d="M41.81 1.18996C45.43 1.29996 48.37 4.11996 48.37 7.74996C48.37 11.38 45.44 14.31 41.81 14.31C38.18 14.31 35.16 11.37 35.25 7.74996C35.35 4.04996 38.33 1.08996 41.81 1.18996Z" fill="#CE6B33"/>
<path opacity="0.89" d="M41.81 1.19997C45.43 1.30997 48.37 4.12997 48.37 7.75997C48.37 11.39 45.44 14.32 41.81 14.32C38.18 14.32 35.16 11.38 35.25 7.75997C35.35 4.05997 38.33 1.09997 41.81 1.19997Z" fill="#CF6C34"/>
<path opacity="0.88" d="M41.81 1.19997C45.43 1.30997 48.37 4.12997 48.37 7.75997C48.37 11.39 45.44 14.32 41.81 14.32C38.18 14.32 35.16 11.38 35.25 7.75997C35.35 4.05997 38.33 1.09997 41.81 1.19997Z" fill="#CF6C35"/>
<path opacity="0.88" d="M41.82 1.19996C45.44 1.30996 48.38 4.12996 48.38 7.75996C48.38 11.39 45.45 14.32 41.82 14.32C38.19 14.32 35.17 11.38 35.26 7.75996C35.36 4.06996 38.34 1.09996 41.82 1.19996Z" fill="#CF6D36"/>
<path opacity="0.87" d="M41.82 1.20997C45.44 1.31997 48.38 4.13997 48.38 7.76997C48.38 11.4 45.45 14.33 41.82 14.33C38.19 14.33 35.17 11.39 35.26 7.76997C35.36 4.07997 38.34 1.10997 41.82 1.20997Z" fill="#CF6E37"/>
<path opacity="0.87" d="M41.82 1.20997C45.44 1.31997 48.38 4.13997 48.38 7.76997C48.38 11.4 45.45 14.33 41.82 14.33C38.19 14.33 35.17 11.39 35.26 7.76997C35.36 4.07997 38.33 1.10997 41.82 1.20997Z" fill="#CF6E37"/>
<path opacity="0.86" d="M41.83 1.20997C45.45 1.31997 48.39 4.13997 48.39 7.76997C48.39 11.4 45.46 14.33 41.83 14.33C38.2 14.33 35.18 11.39 35.27 7.76997C35.37 4.07997 38.34 1.10997 41.83 1.20997Z" fill="#D06F38"/>
<path opacity="0.86" d="M41.83 1.21998C45.45 1.32998 48.39 4.14998 48.39 7.77998C48.39 11.41 45.46 14.34 41.83 14.34C38.2 14.34 35.18 11.4 35.27 7.77998C35.37 4.08998 38.34 1.11998 41.83 1.21998Z" fill="#D07039"/>
<path opacity="0.85" d="M41.83 1.21998C45.45 1.32998 48.39 4.14998 48.39 7.77998C48.39 11.41 45.46 14.34 41.83 14.34C38.2 14.34 35.18 11.4 35.27 7.77998C35.37 4.08998 38.34 1.11998 41.83 1.21998Z" fill="#D0703A"/>
<path opacity="0.85" d="M41.83 1.21998C45.45 1.32998 48.39 4.14998 48.39 7.77998C48.39 11.41 45.46 14.34 41.83 14.34C38.2 14.34 35.18 11.4 35.27 7.77998C35.37 4.08998 38.34 1.11998 41.83 1.21998Z" fill="#D0713B"/>
<path opacity="0.84" d="M41.84 1.22999C45.46 1.33999 48.4 4.15999 48.4 7.78999C48.4 11.42 45.47 14.35 41.84 14.35C38.21 14.35 35.19 11.41 35.28 7.78999C35.38 4.09999 38.35 1.12999 41.84 1.22999Z" fill="#D0723C"/>
<path opacity="0.84" d="M41.84 1.22999C45.46 1.32999 48.4 4.15999 48.4 7.78999C48.4 11.42 45.47 14.35 41.84 14.35C38.21 14.35 35.19 11.41 35.28 7.78999C35.37 4.09999 38.35 1.12999 41.84 1.22999Z" fill="#D1723D"/>
<path opacity="0.83" d="M41.84 1.22999C45.46 1.32999 48.4 4.15999 48.4 7.78999C48.4 11.42 45.47 14.35 41.84 14.35C38.21 14.35 35.19 11.41 35.28 7.78999C35.37 4.09999 38.35 1.12999 41.84 1.22999Z" fill="#D1733D"/>
<path opacity="0.83" d="M41.85 1.23003C45.47 1.33003 48.41 4.16003 48.41 7.79003C48.41 11.42 45.48 14.35 41.85 14.35C38.22 14.35 35.2 11.41 35.29 7.79003C35.38 4.10003 38.36 1.14003 41.85 1.23003Z" fill="#D1743E"/>
<path opacity="0.82" d="M41.85 1.24004C45.47 1.34004 48.41 4.17004 48.41 7.80004C48.41 11.43 45.48 14.36 41.85 14.36C38.22 14.36 35.2 11.42 35.29 7.80004C35.38 4.11004 38.36 1.15004 41.85 1.24004Z" fill="#D1743F"/>
<path opacity="0.82" d="M41.85 1.24004C45.47 1.34004 48.41 4.17004 48.41 7.80004C48.41 11.43 45.48 14.36 41.85 14.36C38.22 14.36 35.2 11.42 35.29 7.80004C35.38 4.11004 38.36 1.15004 41.85 1.24004Z" fill="#D27540"/>
<path opacity="0.81" d="M41.8598 1.24004C45.4798 1.34004 48.4198 4.17004 48.4198 7.80004C48.4198 11.43 45.4898 14.36 41.8598 14.36C38.2298 14.36 35.2098 11.42 35.2998 7.80004C35.3898 4.11004 38.3698 1.15004 41.8598 1.24004Z" fill="#D27641"/>
<path opacity="0.81" d="M41.8598 1.25005C45.4798 1.35005 48.4198 4.18005 48.4198 7.81005C48.4198 11.44 45.4898 14.37 41.8598 14.37C38.2298 14.37 35.2098 11.43 35.2998 7.81005C35.3898 4.12005 38.3698 1.16005 41.8598 1.25005Z" fill="#D27642"/>
<path opacity="0.8" d="M41.8599 1.25005C45.4799 1.35005 48.4199 4.18005 48.4199 7.81005C48.4199 11.44 45.4899 14.37 41.8599 14.37C38.2299 14.37 35.2199 11.43 35.2999 7.81005C35.3899 4.12005 38.3599 1.16005 41.8599 1.25005Z" fill="#D27743"/>
<path opacity="0.8" d="M41.8599 1.25005C45.4799 1.35005 48.4199 4.18005 48.4199 7.81005C48.4199 11.44 45.4899 14.37 41.8599 14.37C38.2299 14.37 35.2199 11.43 35.2999 7.81005C35.3899 4.12005 38.3599 1.16005 41.8599 1.25005Z" fill="#D27844"/>
<path opacity="0.79" d="M41.8699 1.26006C45.4899 1.36006 48.4299 4.19006 48.4299 7.82006C48.4299 11.4501 45.4999 14.3801 41.8699 14.3801C38.2399 14.3801 35.2299 11.4401 35.3099 7.82006C35.3999 4.13006 38.3699 1.17006 41.8699 1.26006Z" fill="#D37845"/>
<path opacity="0.79" d="M41.8699 1.26006C45.4899 1.36006 48.4299 4.19006 48.4299 7.82006C48.4299 11.4501 45.4999 14.3801 41.8699 14.3801C38.2399 14.3801 35.2299 11.4401 35.3099 7.82006C35.3999 4.13006 38.3699 1.17006 41.8699 1.26006Z" fill="#D37946"/>
<path opacity="0.78" d="M41.8699 1.26006C45.4899 1.36006 48.4299 4.19006 48.4299 7.82006C48.4299 11.4501 45.4999 14.3801 41.8699 14.3801C38.2399 14.3801 35.2299 11.4401 35.3099 7.82006C35.3999 4.13006 38.3699 1.17006 41.8699 1.26006Z" fill="#D37A47"/>
<path opacity="0.78" d="M41.8799 1.26994C45.4999 1.36994 48.4399 4.19994 48.4399 7.82994C48.4399 11.4599 45.5099 14.3899 41.8799 14.3899C38.2499 14.3899 35.2399 11.4499 35.3199 7.82994C35.4099 4.13994 38.3799 1.17994 41.8799 1.26994Z" fill="#D37A48"/>
<path opacity="0.77" d="M41.8799 1.26994C45.4999 1.36994 48.4399 4.19994 48.4399 7.82994C48.4399 11.4599 45.5099 14.3899 41.8799 14.3899C38.2499 14.3899 35.2399 11.4499 35.3199 7.82994C35.4099 4.13994 38.3799 1.17994 41.8799 1.26994Z" fill="#D47B49"/>
<path opacity="0.77" d="M41.8799 1.26994C45.4999 1.36994 48.4399 4.19994 48.4399 7.82994C48.4399 11.4599 45.5099 14.3899 41.8799 14.3899C38.2499 14.3899 35.2399 11.4499 35.3199 7.82994C35.4099 4.13994 38.3799 1.17994 41.8799 1.26994Z" fill="#D47C4A"/>
<path opacity="0.76" d="M41.8899 1.27995C45.5099 1.37995 48.4499 4.20995 48.4499 7.83995C48.4499 11.4699 45.5199 14.3999 41.8899 14.3999C38.2599 14.3999 35.2499 11.4599 35.3299 7.83995C35.4199 4.15995 38.3899 1.18995 41.8899 1.27995Z" fill="#D47D4A"/>
<path opacity="0.76" d="M41.8899 1.27995C45.5099 1.36995 48.4499 4.20995 48.4499 7.83995C48.4499 11.4699 45.5199 14.3999 41.8899 14.3999C38.2599 14.3999 35.2499 11.4599 35.3299 7.83995C35.4199 4.15995 38.3899 1.18995 41.8899 1.27995Z" fill="#D47D4B"/>
<path opacity="0.75" d="M41.8899 1.27995C45.5099 1.36995 48.4499 4.20995 48.4499 7.83995C48.4499 11.4699 45.5199 14.3999 41.8899 14.3999C38.2599 14.3999 35.2499 11.4599 35.3299 7.83995C35.4099 4.15995 38.3899 1.18995 41.8899 1.27995Z" fill="#D47E4C"/>
<path opacity="0.75" d="M41.8999 1.28996C45.5199 1.37996 48.4599 4.21996 48.4599 7.84996C48.4599 11.48 45.5299 14.41 41.8999 14.41C38.2699 14.41 35.2599 11.47 35.3399 7.84996C35.4199 4.16996 38.3999 1.19996 41.8999 1.28996Z" fill="#D57F4D"/>
<path opacity="0.74" d="M41.8999 1.29004C45.5199 1.38004 48.4599 4.22004 48.4599 7.85004C48.4599 11.48 45.5299 14.41 41.8999 14.41C38.2699 14.41 35.2599 11.47 35.3399 7.85004C35.4199 4.17004 38.3899 1.21004 41.8999 1.29004Z" fill="#D57F4E"/>
<path opacity="0.74" d="M41.8999 1.29004C45.5199 1.38004 48.4599 4.22004 48.4599 7.85004C48.4599 11.48 45.5299 14.41 41.8999 14.41C38.2699 14.41 35.2599 11.47 35.3399 7.85004C35.4199 4.17004 38.3899 1.21004 41.8999 1.29004Z" fill="#D5804F"/>
<path opacity="0.73" d="M41.8999 1.30005C45.5199 1.39005 48.4599 4.23005 48.4599 7.86005C48.4599 11.49 45.5299 14.42 41.8999 14.42C38.2699 14.42 35.2599 11.48 35.3399 7.86005C35.4199 4.18005 38.3899 1.22005 41.8999 1.30005Z" fill="#D58150"/>
<path opacity="0.73" d="M41.9099 1.30005C45.5299 1.39005 48.47 4.23005 48.47 7.86005C48.47 11.49 45.5399 14.42 41.9099 14.42C38.2799 14.42 35.2699 11.48 35.3499 7.86005C35.4299 4.18005 38.3999 1.22005 41.9099 1.30005Z" fill="#D68151"/>
<path opacity="0.72" d="M41.9099 1.30005C45.5299 1.39005 48.47 4.23005 48.47 7.86005C48.47 11.49 45.5399 14.42 41.9099 14.42C38.2799 14.42 35.2699 11.48 35.3499 7.86005C35.4299 4.18005 38.3999 1.22005 41.9099 1.30005Z" fill="#D68252"/>
<path opacity="0.72" d="M41.9099 1.31006C45.5299 1.40006 48.47 4.24006 48.47 7.87006C48.47 11.5001 45.5399 14.4301 41.9099 14.4301C38.2799 14.4301 35.2699 11.4901 35.3499 7.87006C35.4299 4.19006 38.3999 1.23006 41.9099 1.31006Z" fill="#D68353"/>
<path opacity="0.71" d="M41.9198 1.31006C45.5398 1.40006 48.4798 4.24006 48.4798 7.87006C48.4798 11.5001 45.5498 14.4301 41.9198 14.4301C38.2898 14.4301 35.2898 11.4901 35.3598 7.87006C35.4398 4.19006 38.4098 1.23006 41.9198 1.31006Z" fill="#D68354"/>
<path opacity="0.71" d="M41.9198 1.31006C45.5398 1.40006 48.4798 4.24006 48.4798 7.87006C48.4798 11.5001 45.5498 14.4301 41.9198 14.4301C38.2898 14.4301 35.2898 11.4901 35.3598 7.87006C35.4398 4.19006 38.4098 1.23006 41.9198 1.31006Z" fill="#D68455"/>
<path opacity="0.7" d="M41.9198 1.31994C45.5398 1.40994 48.4798 4.24994 48.4798 7.87994C48.4798 11.5099 45.5498 14.4399 41.9198 14.4399C38.2898 14.4399 35.2898 11.4999 35.3598 7.87994C35.4398 4.19994 38.4098 1.23994 41.9198 1.31994Z" fill="#D78556"/>
<path opacity="0.7" d="M41.9299 1.31994C45.5499 1.40994 48.4899 4.24994 48.4899 7.87994C48.4899 11.5099 45.5599 14.4399 41.9299 14.4399C38.2999 14.4399 35.2999 11.4999 35.3699 7.87994C35.4499 4.19994 38.4199 1.23994 41.9299 1.31994Z" fill="#D78557"/>
<path opacity="0.69" d="M41.9299 1.31994C45.5499 1.40994 48.4899 4.24994 48.4899 7.87994C48.4899 11.5099 45.5599 14.4399 41.9299 14.4399C38.2999 14.4399 35.2999 11.4999 35.3699 7.87994C35.4499 4.19994 38.4199 1.23994 41.9299 1.31994Z" fill="#D78658"/>
<path opacity="0.69" d="M41.9299 1.31994C45.5499 1.40994 48.4899 4.24994 48.4899 7.87994C48.4899 11.5099 45.5599 14.4399 41.9299 14.4399C38.2999 14.4399 35.2999 11.4999 35.3699 7.87994C35.4499 4.19994 38.4199 1.23994 41.9299 1.31994Z" fill="#D78759"/>
<path opacity="0.68" d="M41.9399 1.32995C45.5599 1.41995 48.4999 4.25995 48.4999 7.88995C48.4999 11.52 45.5699 14.45 41.9399 14.45C38.3099 14.45 35.3099 11.51 35.3799 7.88995C35.4599 4.20995 38.4299 1.24995 41.9399 1.32995Z" fill="#D8885A"/>
<path opacity="0.68" d="M41.9399 1.32995C45.5599 1.40995 48.4999 4.25995 48.4999 7.88995C48.4999 11.52 45.5699 14.45 41.9399 14.45C38.3099 14.45 35.3099 11.51 35.3799 7.88995C35.4599 4.20995 38.4199 1.24995 41.9399 1.32995Z" fill="#D8885B"/>
<path opacity="0.67" d="M41.9399 1.32995C45.5599 1.40995 48.4999 4.25995 48.4999 7.88995C48.4999 11.52 45.5699 14.45 41.9399 14.45C38.3099 14.45 35.3099 11.51 35.3799 7.88995C35.4599 4.20995 38.4199 1.24995 41.9399 1.32995Z" fill="#D8895C"/>
<path opacity="0.67" d="M41.9399 1.33996C45.5599 1.41996 48.4999 4.26996 48.4999 7.89996C48.4999 11.53 45.5699 14.46 41.9399 14.46C38.3099 14.46 35.3099 11.52 35.3799 7.89996C35.4599 4.21996 38.4199 1.25996 41.9399 1.33996Z" fill="#D88A5C"/>
<path opacity="0.66" d="M41.9499 1.33996C45.5699 1.41996 48.5099 4.26996 48.5099 7.89996C48.5099 11.53 45.5799 14.46 41.9499 14.46C38.3199 14.46 35.3199 11.52 35.3899 7.89996C35.4599 4.21996 38.4299 1.25996 41.9499 1.33996Z" fill="#D88A5D"/>
<path opacity="0.66" d="M41.9499 1.33997C45.5699 1.41997 48.5099 4.26997 48.5099 7.89997C48.5099 11.53 45.5799 14.46 41.9499 14.46C38.3199 14.46 35.3199 11.52 35.3899 7.89997C35.4599 4.21997 38.4299 1.26997 41.9499 1.33997Z" fill="#D98B5E"/>
<path opacity="0.65" d="M41.9499 1.34998C45.5699 1.42998 48.5099 4.27997 48.5099 7.90998C48.5099 11.54 45.5799 14.47 41.9499 14.47C38.3199 14.47 35.3199 11.53 35.3899 7.90998C35.4599 4.22997 38.4299 1.27998 41.9499 1.34998Z" fill="#D98C5F"/>
<path opacity="0.65" d="M41.9599 1.34998C45.5799 1.42998 48.5199 4.27997 48.5199 7.90998C48.5199 11.54 45.5899 14.47 41.9599 14.47C38.3299 14.47 35.3299 11.53 35.3999 7.90998C35.4699 4.22997 38.4399 1.27998 41.9599 1.34998Z" fill="#D98C60"/>
<path opacity="0.64" d="M41.9599 1.34997C45.5799 1.42997 48.5199 4.27997 48.5199 7.90997C48.5199 11.54 45.5899 14.47 41.9599 14.47C38.3299 14.47 35.3299 11.53 35.3999 7.90997C35.4699 4.23997 38.4399 1.27997 41.9599 1.34997Z" fill="#D98D61"/>
<path opacity="0.64" d="M41.9599 1.35998C45.5799 1.43998 48.5199 4.28998 48.5199 7.91998C48.5199 11.55 45.5899 14.48 41.9599 14.48C38.3299 14.48 35.3299 11.54 35.3999 7.91998C35.4699 4.24998 38.4399 1.28998 41.9599 1.35998Z" fill="#DA8E62"/>
<path opacity="0.63" d="M41.9699 1.35998C45.5899 1.43998 48.5299 4.28998 48.5299 7.91998C48.5299 11.55 45.5999 14.48 41.9699 14.48C38.3399 14.48 35.3399 11.54 35.4099 7.91998C35.4799 4.24998 38.4499 1.28998 41.9699 1.35998Z" fill="#DA8F63"/>
<path opacity="0.63" d="M41.9699 1.35998C45.5899 1.43998 48.5299 4.28998 48.5299 7.91998C48.5299 11.55 45.5999 14.48 41.9699 14.48C38.3399 14.48 35.3399 11.54 35.4099 7.91998C35.4799 4.24998 38.4499 1.28998 41.9699 1.35998Z" fill="#DA8F64"/>
<path opacity="0.62" d="M41.9698 1.36999C45.5898 1.44999 48.5298 4.29999 48.5298 7.92999C48.5298 11.56 45.5998 14.49 41.9698 14.49C38.3398 14.49 35.3498 11.55 35.4098 7.92999C35.4798 4.25999 38.4498 1.29999 41.9698 1.36999Z" fill="#DA9065"/>
<path opacity="0.62" d="M41.9798 1.36999C45.5998 1.44999 48.5398 4.29999 48.5398 7.92999C48.5398 11.56 45.6098 14.49 41.9798 14.49C38.3498 14.49 35.3598 11.55 35.4198 7.92999C35.4898 4.25999 38.4498 1.29999 41.9798 1.36999Z" fill="#DB9166"/>
<path opacity="0.61" d="M41.9798 1.36999C45.5998 1.44999 48.5398 4.29999 48.5398 7.92999C48.5398 11.56 45.6098 14.49 41.9798 14.49C38.3498 14.49 35.3598 11.55 35.4198 7.92999C35.4898 4.25999 38.4498 1.29999 41.9798 1.36999Z" fill="#DB9267"/>
<path opacity="0.61" d="M41.9798 1.38C45.5998 1.46 48.5398 4.31 48.5398 7.94C48.5398 11.57 45.6098 14.5 41.9798 14.5C38.3498 14.5 35.3598 11.56 35.4198 7.94C35.4898 4.27 38.4498 1.31 41.9798 1.38Z" fill="#DB9268"/>
<path opacity="0.6" d="M41.9798 1.38C45.5998 1.46 48.5398 4.31 48.5398 7.94C48.5398 11.57 45.6098 14.5 41.9798 14.5C38.3498 14.5 35.3598 11.56 35.4198 7.94C35.4898 4.27 38.4498 1.31 41.9798 1.38Z" fill="#DB9369"/>
<path opacity="0.6" d="M41.9898 1.38C45.6098 1.45 48.5498 4.31 48.5498 7.94C48.5498 11.57 45.6198 14.5 41.9898 14.5C38.3598 14.5 35.3698 11.56 35.4298 7.94C35.4998 4.27 38.4598 1.31 41.9898 1.38Z" fill="#DB946A"/>
<path opacity="0.59" d="M41.9898 1.39001C45.6098 1.46001 48.5498 4.32001 48.5498 7.95001C48.5498 11.58 45.6198 14.51 41.9898 14.51C38.3598 14.51 35.3698 11.57 35.4298 7.95001C35.4998 4.28001 38.4598 1.32001 41.9898 1.39001Z" fill="#DC946A"/>
<path opacity="0.59" d="M41.9898 1.39001C45.6098 1.46001 48.5498 4.32001 48.5498 7.95001C48.5498 11.58 45.6198 14.51 41.9898 14.51C38.3598 14.51 35.3698 11.57 35.4298 7.95001C35.4998 4.28001 38.4598 1.32001 41.9898 1.39001Z" fill="#DC956B"/>
<path opacity="0.58" d="M41.9999 1.39001C45.6199 1.46001 48.5599 4.33001 48.5599 7.95001C48.5599 11.57 45.6299 14.51 41.9999 14.51C38.3699 14.51 35.3799 11.57 35.4399 7.95001C35.5099 4.28001 38.4699 1.32001 41.9999 1.39001Z" fill="#DC966C"/>
<path opacity="0.58" d="M41.9999 1.39995C45.6199 1.46995 48.5599 4.33995 48.5599 7.95995C48.5599 11.5799 45.6299 14.5199 41.9999 14.5199C38.3699 14.5199 35.3799 11.5799 35.4399 7.95995C35.5099 4.28995 38.4699 1.33995 41.9999 1.39995Z" fill="#DC976D"/>
<path opacity="0.57" d="M41.9999 1.39995C45.6199 1.46995 48.5599 4.33995 48.5599 7.95995C48.5599 11.5799 45.6299 14.5199 41.9999 14.5199C38.3699 14.5199 35.3799 11.5799 35.4399 7.95995C35.4999 4.28995 38.4699 1.33995 41.9999 1.39995Z" fill="#DD976E"/>
<path opacity="0.57" d="M42.0099 1.39995C45.6299 1.46995 48.5699 4.33995 48.5699 7.95995C48.5699 11.5799 45.6399 14.5199 42.0099 14.5199C38.3799 14.5199 35.3899 11.5799 35.4499 7.95995C35.5099 4.28995 38.4799 1.33995 42.0099 1.39995Z" fill="#DD986F"/>
<path opacity="0.56" d="M42.0099 1.40996C45.6299 1.47996 48.5699 4.34996 48.5699 7.96996C48.5699 11.59 45.6399 14.53 42.0099 14.53C38.3799 14.53 35.3899 11.59 35.4499 7.96996C35.5099 4.29996 38.4799 1.34996 42.0099 1.40996Z" fill="#DD9970"/>
<path opacity="0.56" d="M42.0099 1.40996C45.6299 1.47996 48.5699 4.34996 48.5699 7.96996C48.5699 11.59 45.6399 14.53 42.0099 14.53C38.3799 14.53 35.3899 11.59 35.4499 7.96996C35.5099 4.29996 38.4799 1.34996 42.0099 1.40996Z" fill="#DD9A71"/>
<path opacity="0.55" d="M42.0099 1.40996C45.6299 1.47996 48.5699 4.34996 48.5699 7.96996C48.5699 11.59 45.6399 14.53 42.0099 14.53C38.3799 14.53 35.3899 11.59 35.4499 7.96996C35.5099 4.29996 38.4699 1.34996 42.0099 1.40996Z" fill="#DE9A72"/>
<path opacity="0.55" d="M42.0199 1.41997C45.6399 1.48997 48.5799 4.35997 48.5799 7.97997C48.5799 11.6 45.6499 14.54 42.0199 14.54C38.3899 14.54 35.3999 11.6 35.4599 7.97997C35.5199 4.30997 38.4799 1.35997 42.0199 1.41997Z" fill="#DE9B73"/>
<path opacity="0.54" d="M42.0199 1.41997C45.6399 1.48997 48.5799 4.35997 48.5799 7.97997C48.5799 11.6 45.6499 14.54 42.0199 14.54C38.3899 14.54 35.3999 11.6 35.4599 7.97997C35.5199 4.30997 38.4799 1.35997 42.0199 1.41997Z" fill="#DE9C74"/>
<path opacity="0.54" d="M42.0199 1.41997C45.6399 1.48997 48.5799 4.35997 48.5799 7.97997C48.5799 11.6 45.6499 14.54 42.0199 14.54C38.3899 14.54 35.3999 11.6 35.4599 7.97997C35.5199 4.30997 38.4799 1.35997 42.0199 1.41997Z" fill="#DE9D75"/>
<path opacity="0.53" d="M42.0299 1.41997C45.6499 1.48997 48.5899 4.35997 48.5899 7.97997C48.5899 11.6 45.6599 14.54 42.0299 14.54C38.3999 14.54 35.4199 11.6 35.4699 7.97997C35.5299 4.30997 38.4899 1.35997 42.0299 1.41997Z" fill="#DF9D76"/>
<path opacity="0.53" d="M42.0299 1.42998C45.6499 1.49998 48.5899 4.36998 48.5899 7.98998C48.5899 11.61 45.6599 14.55 42.0299 14.55C38.3999 14.55 35.4199 11.61 35.4699 7.98998C35.5299 4.31998 38.4899 1.36998 42.0299 1.42998Z" fill="#DF9E77"/>
<path opacity="0.52" d="M42.0299 1.42997C45.6499 1.49997 48.5899 4.36997 48.5899 7.98997C48.5899 11.61 45.6599 14.55 42.0299 14.55C38.3999 14.55 35.4199 11.61 35.4699 7.98997C35.5299 4.32997 38.4899 1.36997 42.0299 1.42997Z" fill="#DF9F78"/>
<path opacity="0.52" d="M42.0399 1.42997C45.6599 1.48997 48.5999 4.36997 48.5999 7.98997C48.5999 11.61 45.6699 14.55 42.0399 14.55C38.4099 14.55 35.4299 11.61 35.4799 7.98997C35.5399 4.32997 38.4999 1.36997 42.0399 1.42997Z" fill="#DFA079"/>
<path opacity="0.51" d="M42.0399 1.43998C45.6599 1.49998 48.5999 4.37998 48.5999 7.99998C48.5999 11.62 45.6699 14.56 42.0399 14.56C38.4099 14.56 35.4299 11.62 35.4799 7.99998C35.5399 4.33998 38.4999 1.37998 42.0399 1.43998Z" fill="#DFA17A"/>
<path opacity="0.51" d="M42.0399 1.43998C45.6599 1.49998 48.5999 4.37998 48.5999 7.99998C48.5999 11.62 45.6699 14.56 42.0399 14.56C38.4099 14.56 35.4299 11.62 35.4799 7.99998C35.5399 4.33998 38.4999 1.37998 42.0399 1.43998Z" fill="#E0A17B"/>
<path opacity="0.5" d="M42.0499 1.43998C45.6699 1.49998 48.6099 4.37998 48.6099 7.99998C48.6099 11.62 45.6799 14.56 42.0499 14.56C38.4199 14.56 35.4399 11.62 35.4899 7.99998C35.5499 4.33998 38.5099 1.37998 42.0499 1.43998Z" fill="#E0A27C"/>
<path opacity="0.5" d="M42.0499 1.44999C45.6699 1.50999 48.6099 4.38999 48.6099 8.00999C48.6099 11.63 45.6799 14.57 42.0499 14.57C38.4199 14.57 35.4399 11.63 35.4899 8.00999C35.5499 4.34999 38.5099 1.38999 42.0499 1.44999Z" fill="#E0A37D"/>
<path opacity="0.49" d="M42.0499 1.44997C45.6699 1.50997 48.6099 4.38997 48.6099 8.00997C48.6099 11.63 45.6799 14.57 42.0499 14.57C38.4199 14.57 35.4399 11.63 35.4899 8.00997C35.5499 4.34997 38.4999 1.39997 42.0499 1.44997Z" fill="#E0A47E"/>
<path opacity="0.49" d="M42.0499 1.44997C45.6699 1.50997 48.6099 4.38997 48.6099 8.00997C48.6099 11.63 45.6799 14.57 42.0499 14.57C38.4199 14.57 35.4399 11.63 35.4899 8.00997C35.5499 4.34997 38.4999 1.39997 42.0499 1.44997Z" fill="#E1A47F"/>
<path opacity="0.48" d="M42.0599 1.45998C45.6799 1.51998 48.6199 4.39998 48.6199 8.01998C48.6199 11.64 45.6899 14.58 42.0599 14.58C38.4299 14.58 35.4499 11.64 35.4999 8.01998C35.5499 4.35998 38.5099 1.40998 42.0599 1.45998Z" fill="#E1A580"/>
<path opacity="0.48" d="M42.0599 1.45998C45.6799 1.51998 48.6199 4.39998 48.6199 8.01998C48.6199 11.64 45.6899 14.58 42.0599 14.58C38.4299 14.58 35.4499 11.64 35.4999 8.01998C35.5499 4.35998 38.5099 1.40998 42.0599 1.45998Z" fill="#E1A681"/>
<path opacity="0.47" d="M42.0599 1.45998C45.6799 1.51998 48.6199 4.39998 48.6199 8.01998C48.6199 11.64 45.6899 14.58 42.0599 14.58C38.4299 14.58 35.4499 11.64 35.4999 8.01998C35.5499 4.35998 38.5099 1.40998 42.0599 1.45998Z" fill="#E1A782"/>
<path opacity="0.47" d="M42.0699 1.46999C45.6899 1.52999 48.6299 4.40999 48.6299 8.02999C48.6299 11.65 45.6999 14.59 42.0699 14.59C38.4399 14.59 35.4599 11.65 35.5099 8.02999C35.5599 4.36999 38.5199 1.41999 42.0699 1.46999Z" fill="#E2A883"/>
<path opacity="0.46" d="M42.0699 1.46999C45.6899 1.52999 48.6299 4.40999 48.6299 8.02999C48.6299 11.65 45.6999 14.59 42.0699 14.59C38.4399 14.59 35.4599 11.65 35.5099 8.02999C35.5599 4.36999 38.5199 1.41999 42.0699 1.46999Z" fill="#E2A884"/>
<path opacity="0.46" d="M42.0699 1.46999C45.6899 1.52999 48.6299 4.40999 48.6299 8.02999C48.6299 11.65 45.6999 14.59 42.0699 14.59C38.4399 14.59 35.4599 11.65 35.5099 8.02999C35.5599 4.36999 38.5199 1.41999 42.0699 1.46999Z" fill="#E2A985"/>
<path opacity="0.45" d="M42.0799 1.48C45.6999 1.54 48.6399 4.42 48.6399 8.04C48.6399 11.66 45.7099 14.6 42.0799 14.6C38.4499 14.6 35.4699 11.66 35.5199 8.04C35.5699 4.38 38.5299 1.43 42.0799 1.48Z" fill="#E2AA86"/>
<path opacity="0.45" d="M42.0799 1.48C45.6999 1.54 48.6399 4.42 48.6399 8.04C48.6399 11.66 45.7099 14.6 42.0799 14.6C38.4499 14.6 35.4699 11.66 35.5199 8.04C35.5699 4.38 38.5299 1.43 42.0799 1.48Z" fill="#E3AB87"/>
<path opacity="0.44" d="M42.0799 1.48C45.6999 1.54 48.6399 4.42 48.6399 8.04C48.6399 11.66 45.7099 14.6 42.0799 14.6C38.4499 14.6 35.4799 11.66 35.5199 8.04C35.5699 4.38 38.5299 1.43 42.0799 1.48Z" fill="#E3AC88"/>
<path opacity="0.44" d="M42.0899 1.49001C45.7099 1.54001 48.6499 4.43001 48.6499 8.05001C48.6499 11.67 45.7199 14.61 42.0899 14.61C38.4599 14.61 35.4899 11.67 35.5299 8.05001C35.5799 4.39001 38.5399 1.44001 42.0899 1.49001Z" fill="#E3AC89"/>
<path opacity="0.43" d="M42.0899 1.49001C45.7099 1.54001 48.6499 4.43001 48.6499 8.05001C48.6499 11.67 45.7199 14.61 42.0899 14.61C38.4599 14.61 35.4899 11.67 35.5299 8.05001C35.5799 4.39001 38.5399 1.44001 42.0899 1.49001Z" fill="#E4AD8A"/>
<path opacity="0.43" d="M42.0899 1.49001C45.7099 1.54001 48.6499 4.43001 48.6499 8.05001C48.6499 11.67 45.7199 14.61 42.0899 14.61C38.4599 14.61 35.4899 11.67 35.5299 8.05001C35.5799 4.39001 38.5299 1.44001 42.0899 1.49001Z" fill="#E4AE8B"/>
<path opacity="0.42" d="M42.0899 1.50002C45.7099 1.55002 48.6499 4.44002 48.6499 8.06002C48.6499 11.68 45.7199 14.62 42.0899 14.62C38.4599 14.62 35.4899 11.68 35.5299 8.06002C35.5799 4.40002 38.5299 1.45002 42.0899 1.50002Z" fill="#E4AF8D"/>
<path opacity="0.42" d="M42.0999 1.50002C45.7199 1.55002 48.6599 4.44002 48.6599 8.06002C48.6599 11.68 45.7299 14.62 42.0999 14.62C38.4699 14.62 35.5 11.68 35.54 8.06002C35.59 4.40002 38.5399 1.45002 42.0999 1.50002Z" fill="#E4B08E"/>
<path opacity="0.41" d="M42.0999 1.50002C45.7199 1.55002 48.6599 4.44002 48.6599 8.06002C48.6599 11.68 45.7299 14.62 42.0999 14.62C38.4699 14.62 35.5 11.68 35.54 8.06002C35.59 4.40002 38.5399 1.45002 42.0999 1.50002Z" fill="#E5B08F"/>
<path opacity="0.41" d="M42.0999 1.51005C45.7199 1.56005 48.6599 4.45005 48.6599 8.07005C48.6599 11.69 45.7299 14.63 42.0999 14.63C38.4699 14.63 35.5 11.69 35.54 8.07005C35.59 4.41005 38.5399 1.47005 42.0999 1.51005Z" fill="#E5B190"/>
<path opacity="0.4" d="M42.11 1.51005C45.73 1.56005 48.67 4.45005 48.67 8.07005C48.67 11.69 45.74 14.63 42.11 14.63C38.48 14.63 35.51 11.69 35.55 8.07005C35.6 4.42005 38.55 1.47005 42.11 1.51005Z" fill="#E5B291"/>
<path opacity="0.4" d="M42.11 1.51005C45.73 1.56005 48.67 4.45005 48.67 8.07005C48.67 11.69 45.74 14.63 42.11 14.63C38.48 14.63 35.51 11.69 35.55 8.07005C35.59 4.42005 38.55 1.47005 42.11 1.51005Z" fill="#E5B392"/>
<path opacity="0.39" d="M42.11 1.51005C45.73 1.56005 48.67 4.45005 48.67 8.07005C48.67 11.69 45.74 14.63 42.11 14.63C38.48 14.63 35.51 11.69 35.55 8.07005C35.59 4.42005 38.55 1.47005 42.11 1.51005Z" fill="#E6B493"/>
<path opacity="0.39" d="M42.12 1.52006C45.74 1.57006 48.68 4.46006 48.68 8.08006C48.68 11.7001 45.75 14.6401 42.12 14.6401C38.49 14.6401 35.52 11.7001 35.56 8.08006C35.6 4.43006 38.56 1.48006 42.12 1.52006Z" fill="#E6B594"/>
<path opacity="0.38" d="M42.12 1.52006C45.74 1.57006 48.68 4.46006 48.68 8.08006C48.68 11.7001 45.75 14.6401 42.12 14.6401C38.49 14.6401 35.52 11.7001 35.56 8.08006C35.6 4.43006 38.56 1.48006 42.12 1.52006Z" fill="#E6B595"/>
<path opacity="0.38" d="M42.12 1.52006C45.74 1.57006 48.68 4.46006 48.68 8.08006C48.68 11.7001 45.75 14.6401 42.12 14.6401C38.49 14.6401 35.52 11.7001 35.56 8.08006C35.6 4.43006 38.56 1.48006 42.12 1.52006Z" fill="#E6B697"/>
<path opacity="0.37" d="M42.13 1.52994C45.75 1.57994 48.69 4.46994 48.69 8.08994C48.69 11.7099 45.76 14.6499 42.13 14.6499C38.5 14.6499 35.53 11.7099 35.57 8.08994C35.61 4.43994 38.57 1.48994 42.13 1.52994Z" fill="#E7B798"/>
<path opacity="0.37" d="M42.13 1.52994C45.75 1.57994 48.69 4.46994 48.69 8.08994C48.69 11.7099 45.76 14.6499 42.13 14.6499C38.5 14.6499 35.53 11.7099 35.57 8.08994C35.61 4.43994 38.56 1.48994 42.13 1.52994Z" fill="#E7B899"/>
<path opacity="0.36" d="M42.13 1.52994C45.75 1.57994 48.69 4.46994 48.69 8.08994C48.69 11.7099 45.76 14.6499 42.13 14.6499C38.5 14.6499 35.53 11.7099 35.57 8.08994C35.61 4.43994 38.56 1.48994 42.13 1.52994Z" fill="#E7B99A"/>
<path opacity="0.36" d="M42.13 1.53995C45.75 1.57995 48.69 4.47995 48.69 8.09995C48.69 11.72 45.76 14.66 42.13 14.66C38.5 14.66 35.53 11.72 35.57 8.09995C35.61 4.44995 38.56 1.49995 42.13 1.53995Z" fill="#E7B99B"/>
<path opacity="0.35" d="M42.14 1.53995C45.76 1.57995 48.7 4.47995 48.7 8.09995C48.7 11.72 45.77 14.66 42.14 14.66C38.51 14.66 35.54 11.72 35.58 8.09995C35.62 4.44995 38.57 1.49995 42.14 1.53995Z" fill="#E8BA9C"/>
<path opacity="0.35" d="M42.1398 1.53995C45.7598 1.57995 48.6998 4.47995 48.6998 8.09995C48.6998 11.72 45.7698 14.66 42.1398 14.66C38.5098 14.66 35.5498 11.72 35.5798 8.09995C35.6198 4.44995 38.5698 1.49995 42.1398 1.53995Z" fill="#E8BB9D"/>
<path opacity="0.34" d="M42.1398 1.54996C45.7598 1.58996 48.6998 4.48996 48.6998 8.10996C48.6998 11.73 45.7698 14.67 42.1398 14.67C38.5098 14.67 35.5498 11.73 35.5798 8.10996C35.6198 4.45996 38.5698 1.50996 42.1398 1.54996Z" fill="#E8BC9F"/>
<path opacity="0.34" d="M42.1498 1.54996C45.7698 1.58996 48.7098 4.48996 48.7098 8.10996C48.7098 11.73 45.7798 14.67 42.1498 14.67C38.5198 14.67 35.5598 11.73 35.5898 8.10996C35.6298 4.45996 38.5798 1.50996 42.1498 1.54996Z" fill="#E8BDA0"/>
<path opacity="0.33" d="M42.1498 1.54996C45.7698 1.58996 48.7098 4.48996 48.7098 8.10996C48.7098 11.73 45.7798 14.67 42.1498 14.67C38.5198 14.67 35.5598 11.73 35.5898 8.10996C35.6298 4.45996 38.5798 1.50996 42.1498 1.54996Z" fill="#E9BEA1"/>
<path opacity="0.33" d="M42.1498 1.55997C45.7698 1.59997 48.7098 4.49997 48.7098 8.11997C48.7098 11.74 45.7798 14.68 42.1498 14.68C38.5198 14.68 35.5598 11.74 35.5898 8.11997C35.6298 4.46997 38.5798 1.51997 42.1498 1.55997Z" fill="#E9BEA2"/>
<path opacity="0.32" d="M42.1598 1.56004C45.7798 1.60004 48.7198 4.50004 48.7198 8.12004C48.7198 11.74 45.7898 14.68 42.1598 14.68C38.5298 14.68 35.5698 11.74 35.5998 8.12004C35.6398 4.47004 38.5898 1.53004 42.1598 1.56004Z" fill="#E9BFA3"/>
<path opacity="0.32" d="M42.1598 1.56004C45.7798 1.60004 48.7198 4.50004 48.7198 8.12004C48.7198 11.74 45.7898 14.68 42.1598 14.68C38.5298 14.68 35.5698 11.74 35.5998 8.12004C35.6398 4.47004 38.5898 1.53004 42.1598 1.56004Z" fill="#E9C0A5"/>
<path opacity="0.31" d="M42.1598 1.57005C45.7798 1.61005 48.7198 4.51005 48.7198 8.13005C48.7198 11.7501 45.7898 14.6901 42.1598 14.6901C38.5298 14.6901 35.5698 11.7501 35.5998 8.13005C35.6398 4.48005 38.5898 1.54005 42.1598 1.57005Z" fill="#EAC1A6"/>
<path opacity="0.31" d="M42.1598 1.57005C45.7798 1.61005 48.7198 4.51005 48.7198 8.13005C48.7198 11.7501 45.7898 14.6901 42.1598 14.6901C38.5298 14.6901 35.5698 11.7501 35.5998 8.13005C35.6298 4.48005 38.5898 1.54005 42.1598 1.57005Z" fill="#EAC2A7"/>
<path opacity="0.3" d="M42.1698 1.57005C45.7898 1.61005 48.7298 4.51005 48.7298 8.13005C48.7298 11.7501 45.7998 14.6901 42.1698 14.6901C38.5398 14.6901 35.5798 11.7501 35.6098 8.13005C35.6398 4.48005 38.5898 1.54005 42.1698 1.57005Z" fill="#EAC3A8"/>
<path opacity="0.3" d="M42.1698 1.57994C45.7898 1.61994 48.7298 4.51994 48.7298 8.13994C48.7298 11.7599 45.7998 14.6999 42.1698 14.6999C38.5398 14.6999 35.5798 11.7599 35.6098 8.13994C35.6398 4.48994 38.5898 1.54994 42.1698 1.57994Z" fill="#EAC4A9"/>
<path opacity="0.29" d="M42.1698 1.57994C45.7898 1.61994 48.7298 4.51994 48.7298 8.13994C48.7298 11.7599 45.7998 14.6999 42.1698 14.6999C38.5398 14.6999 35.5798 11.7599 35.6098 8.13994C35.6398 4.48994 38.5898 1.54994 42.1698 1.57994Z" fill="#EBC4AA"/>
<path opacity="0.29" d="M42.1799 1.57994C45.7999 1.61994 48.7399 4.51994 48.7399 8.13994C48.7399 11.7599 45.8099 14.6999 42.1799 14.6999C38.5499 14.6999 35.5899 11.7599 35.6199 8.13994C35.6499 4.48994 38.5999 1.54994 42.1799 1.57994Z" fill="#EBC5AC"/>
<path opacity="0.28" d="M42.1799 1.58995C45.7999 1.62995 48.7399 4.52995 48.7399 8.14995C48.7399 11.7699 45.8099 14.7099 42.1799 14.7099C38.5499 14.7099 35.5899 11.7699 35.6199 8.14995C35.6499 4.50995 38.5999 1.55995 42.1799 1.58995Z" fill="#EBC6AD"/>
<path opacity="0.28" d="M42.1799 1.58995C45.7999 1.61995 48.7399 4.52995 48.7399 8.14995C48.7399 11.7699 45.8099 14.7099 42.1799 14.7099C38.5499 14.7099 35.5899 11.7699 35.6199 8.14995C35.6499 4.50995 38.5999 1.55995 42.1799 1.58995Z" fill="#ECC7AE"/>
<path opacity="0.27" d="M42.1899 1.58995C45.8099 1.61995 48.7499 4.52995 48.7499 8.14995C48.7499 11.7699 45.8199 14.7099 42.1899 14.7099C38.5599 14.7099 35.5999 11.7699 35.6299 8.14995C35.6599 4.50995 38.6099 1.55995 42.1899 1.58995Z" fill="#ECC8AF"/>
<path opacity="0.27" d="M42.1899 1.59996C45.8099 1.62996 48.7499 4.53996 48.7499 8.15996C48.7499 11.78 45.8199 14.72 42.1899 14.72C38.5599 14.72 35.5999 11.78 35.6299 8.15996C35.6599 4.51996 38.6099 1.56996 42.1899 1.59996Z" fill="#ECC9B0"/>
<path opacity="0.26" d="M42.1899 1.59996C45.8099 1.62996 48.7499 4.53996 48.7499 8.15996C48.7499 11.78 45.8199 14.72 42.1899 14.72C38.5599 14.72 35.5999 11.78 35.6299 8.15996C35.6599 4.51996 38.6099 1.56996 42.1899 1.59996Z" fill="#ECCAB2"/>
<path opacity="0.26" d="M42.2 1.59996C45.82 1.62996 48.76 4.53996 48.76 8.15996C48.76 11.78 45.83 14.72 42.2 14.72C38.57 14.72 35.62 11.78 35.64 8.15996C35.67 4.51996 38.62 1.56996 42.2 1.59996Z" fill="#EDCAB3"/>
<path opacity="0.25" d="M42.2 1.59996C45.82 1.62996 48.76 4.53996 48.76 8.15996C48.76 11.78 45.83 14.72 42.2 14.72C38.57 14.72 35.62 11.78 35.64 8.15996C35.67 4.51996 38.62 1.56996 42.2 1.59996Z" fill="#EDCBB4"/>
<path opacity="0.25" d="M42.2 1.60997C45.82 1.63997 48.76 4.54997 48.76 8.16997C48.76 11.79 45.83 14.73 42.2 14.73C38.57 14.73 35.62 11.79 35.64 8.16997C35.67 4.52997 38.62 1.57997 42.2 1.60997Z" fill="#EDCCB5"/>
<path opacity="0.24" d="M42.2 1.60997C45.82 1.63997 48.76 4.54997 48.76 8.16997C48.76 11.79 45.83 14.73 42.2 14.73C38.57 14.73 35.62 11.79 35.64 8.16997C35.67 4.52997 38.61 1.57997 42.2 1.60997Z" fill="#EDCDB7"/>
<path opacity="0.24" d="M42.21 1.60996C45.83 1.63996 48.77 4.54996 48.77 8.16996C48.77 11.79 45.84 14.73 42.21 14.73C38.58 14.73 35.63 11.79 35.65 8.16996C35.68 4.52996 38.62 1.58996 42.21 1.60996Z" fill="#EECEB8"/>
<path opacity="0.23" d="M42.21 1.61997C45.83 1.64997 48.77 4.55997 48.77 8.17997C48.77 11.8 45.84 14.74 42.21 14.74C38.58 14.74 35.63 11.8 35.65 8.17997C35.68 4.53997 38.62 1.59997 42.21 1.61997Z" fill="#EECFB9"/>
<path opacity="0.23" d="M42.21 1.61997C45.83 1.64997 48.77 4.55997 48.77 8.17997C48.77 11.8 45.84 14.74 42.21 14.74C38.58 14.74 35.63 11.8 35.65 8.17997C35.68 4.53997 38.62 1.59997 42.21 1.61997Z" fill="#EED0BA"/>
<path opacity="0.22" d="M42.22 1.61997C45.84 1.64997 48.78 4.55997 48.78 8.17997C48.78 11.8 45.85 14.74 42.22 14.74C38.59 14.74 35.64 11.8 35.66 8.17997C35.69 4.53997 38.63 1.59997 42.22 1.61997Z" fill="#EFD0BB"/>
<path opacity="0.22" d="M42.22 1.62998C45.84 1.65998 48.78 4.56998 48.78 8.18998C48.78 11.81 45.85 14.75 42.22 14.75C38.59 14.75 35.64 11.81 35.66 8.18998C35.68 4.54998 38.63 1.60998 42.22 1.62998Z" fill="#EFD1BD"/>
<path opacity="0.21" d="M42.22 1.62998C45.84 1.65998 48.78 4.56998 48.78 8.18998C48.78 11.81 45.85 14.75 42.22 14.75C38.59 14.75 35.64 11.81 35.66 8.18998C35.68 4.54998 38.63 1.60998 42.22 1.62998Z" fill="#EFD2BE"/>
<path opacity="0.21" d="M42.23 1.62998C45.85 1.65998 48.79 4.56998 48.79 8.18998C48.79 11.81 45.86 14.75 42.23 14.75C38.6 14.75 35.65 11.81 35.67 8.18998C35.69 4.54998 38.64 1.60998 42.23 1.62998Z" fill="#EFD3BF"/>
<path opacity="0.2" d="M42.23 1.63999C45.85 1.66999 48.79 4.57999 48.79 8.19999C48.79 11.82 45.86 14.76 42.23 14.76C38.6 14.76 35.65 11.82 35.67 8.19999C35.69 4.55999 38.64 1.61999 42.23 1.63999Z" fill="#F0D4C0"/>
<path opacity="0.2" d="M42.23 1.63999C45.85 1.65999 48.79 4.57999 48.79 8.19999C48.79 11.82 45.86 14.76 42.23 14.76C38.6 14.76 35.65 11.82 35.67 8.19999C35.69 4.55999 38.64 1.61999 42.23 1.63999Z" fill="#F0D5C2"/>
<path opacity="0.19" d="M42.24 1.63999C45.86 1.65999 48.8 4.57999 48.8 8.19999C48.8 11.82 45.87 14.76 42.24 14.76C38.61 14.76 35.66 11.82 35.68 8.19999C35.7 4.55999 38.65 1.61999 42.24 1.63999Z" fill="#F0D6C3"/>
<path opacity="0.19" d="M42.24 1.65C45.86 1.67 48.8 4.59 48.8 8.21C48.8 11.83 45.87 14.77 42.24 14.77C38.61 14.77 35.66 11.83 35.68 8.21C35.7 4.57 38.65 1.63 42.24 1.65Z" fill="#F1D7C4"/>
<path opacity="0.18" d="M42.24 1.65C45.86 1.67 48.8 4.59 48.8 8.21C48.8 11.83 45.87 14.77 42.24 14.77C38.61 14.77 35.66 11.83 35.68 8.21C35.7 4.57 38.64 1.63 42.24 1.65Z" fill="#F1D7C6"/>
<path opacity="0.18" d="M42.24 1.65C45.86 1.67 48.8 4.59 48.8 8.21C48.8 11.83 45.87 14.77 42.24 14.77C38.61 14.77 35.66 11.83 35.68 8.21C35.7 4.57 38.64 1.63 42.24 1.65Z" fill="#F1D8C7"/>
<path opacity="0.17" d="M42.25 1.66001C45.87 1.68001 48.81 4.60001 48.81 8.22001C48.81 11.84 45.88 14.78 42.25 14.78C38.62 14.78 35.67 11.84 35.69 8.22001C35.71 4.58001 38.65 1.64001 42.25 1.66001Z" fill="#F1D9C8"/>
<path opacity="0.17" d="M42.25 1.66001C45.87 1.68001 48.81 4.60001 48.81 8.22001C48.81 11.84 45.88 14.78 42.25 14.78C38.62 14.78 35.68 11.84 35.69 8.22001C35.71 4.59001 38.65 1.64001 42.25 1.66001Z" fill="#F2DAC9"/>
<path opacity="0.16" d="M42.25 1.66001C45.87 1.68001 48.81 4.60001 48.81 8.22001C48.81 11.84 45.88 14.78 42.25 14.78C38.62 14.78 35.68 11.84 35.69 8.22001C35.71 4.59001 38.65 1.64001 42.25 1.66001Z" fill="#F2DBCB"/>
<path opacity="0.16" d="M42.26 1.66995C45.88 1.68995 48.82 4.60995 48.82 8.22995C48.82 11.8499 45.89 14.7899 42.26 14.7899C38.63 14.7899 35.69 11.8499 35.7 8.22995C35.72 4.59995 38.66 1.65995 42.26 1.66995Z" fill="#F2DCCC"/>
<path opacity="0.15" d="M42.26 1.66995C45.88 1.68995 48.82 4.60995 48.82 8.22995C48.82 11.8499 45.89 14.7899 42.26 14.7899C38.63 14.7899 35.69 11.8499 35.7 8.22995C35.72 4.59995 38.66 1.65995 42.26 1.66995Z" fill="#F3DDCD"/>
<path opacity="0.15" d="M42.26 1.66995C45.88 1.68995 48.82 4.60995 48.82 8.22995C48.82 11.8499 45.89 14.7899 42.26 14.7899C38.63 14.7899 35.69 11.8499 35.7 8.22995C35.72 4.59995 38.66 1.65995 42.26 1.66995Z" fill="#F3DECF"/>
<path opacity="0.14" d="M42.27 1.67996C45.89 1.69996 48.83 4.61996 48.83 8.23996C48.83 11.86 45.9 14.8 42.27 14.8C38.64 14.8 35.7 11.86 35.71 8.23996C35.73 4.60996 38.67 1.66996 42.27 1.67996Z" fill="#F3DFD0"/>
<path opacity="0.14" d="M42.27 1.67996C45.89 1.69996 48.83 4.61996 48.83 8.23996C48.83 11.86 45.9 14.8 42.27 14.8C38.64 14.8 35.7 11.86 35.71 8.23996C35.73 4.60996 38.67 1.66996 42.27 1.67996Z" fill="#F4E0D1"/>
<path opacity="0.13" d="M42.27 1.67996C45.89 1.69996 48.83 4.61996 48.83 8.23996C48.83 11.86 45.9 14.8 42.27 14.8C38.64 14.8 35.7 11.86 35.71 8.23996C35.73 4.60996 38.67 1.66996 42.27 1.67996Z" fill="#F4E1D3"/>
<path opacity="0.13" d="M42.28 1.68997C45.9 1.70997 48.84 4.62997 48.84 8.24997C48.84 11.87 45.91 14.81 42.28 14.81C38.65 14.81 35.71 11.87 35.72 8.24997C35.73 4.61997 38.68 1.67997 42.28 1.68997Z" fill="#F4E2D4"/>
<path opacity="0.12" d="M42.28 1.68997C45.9 1.70997 48.84 4.62997 48.84 8.24997C48.84 11.87 45.91 14.81 42.28 14.81C38.65 14.81 35.71 11.87 35.72 8.24997C35.73 4.61997 38.68 1.67997 42.28 1.68997Z" fill="#F5E3D5"/>
<path opacity="0.12" d="M42.28 1.68997C45.9 1.69997 48.84 4.62997 48.84 8.24997C48.84 11.87 45.91 14.81 42.28 14.81C38.65 14.81 35.71 11.87 35.72 8.24997C35.73 4.61997 38.67 1.67997 42.28 1.68997Z" fill="#F5E4D7"/>
<path opacity="0.11" d="M42.28 1.69998C45.9 1.70998 48.84 4.63998 48.84 8.25998C48.84 11.88 45.91 14.82 42.28 14.82C38.65 14.82 35.71 11.88 35.72 8.25998C35.73 4.62998 38.67 1.68998 42.28 1.69998Z" fill="#F5E5D8"/>
<path opacity="0.11" d="M42.29 1.69998C45.91 1.70998 48.85 4.63998 48.85 8.25998C48.85 11.88 45.92 14.82 42.29 14.82C38.66 14.82 35.72 11.88 35.73 8.25998C35.74 4.62998 38.68 1.68998 42.29 1.69998Z" fill="#F6E5DA"/>
<path opacity="0.1" d="M42.29 1.69998C45.91 1.70998 48.85 4.63998 48.85 8.25998C48.85 11.88 45.92 14.82 42.29 14.82C38.66 14.82 35.72 11.88 35.73 8.25998C35.74 4.62998 38.68 1.68998 42.29 1.69998Z" fill="#F6E6DB"/>
<path opacity="0.1" d="M42.29 1.69998C45.91 1.70998 48.85 4.63998 48.85 8.25998C48.85 11.88 45.92 14.82 42.29 14.82C38.66 14.82 35.72 11.88 35.73 8.25998C35.74 4.62998 38.68 1.68998 42.29 1.69998Z" fill="#F6E7DC"/>
<path opacity="0.09" d="M42.3 1.70999C45.92 1.71999 48.86 4.64999 48.86 8.26999C48.86 11.89 45.93 14.83 42.3 14.83C38.67 14.83 35.73 11.89 35.74 8.26999C35.75 4.63999 38.69 1.69999 42.3 1.70999Z" fill="#F7E8DE"/>
<path opacity="0.09" d="M42.3 1.70999C45.92 1.71999 48.86 4.64999 48.86 8.26999C48.86 11.89 45.93 14.83 42.3 14.83C38.67 14.83 35.73 11.89 35.74 8.26999C35.75 4.63999 38.69 1.69999 42.3 1.70999Z" fill="#F7E9DF"/>
<path opacity="0.08" d="M42.3 1.70999C45.92 1.71999 48.86 4.64999 48.86 8.26999C48.86 11.89 45.93 14.83 42.3 14.83C38.67 14.83 35.73 11.89 35.74 8.26999C35.74 4.63999 38.69 1.69999 42.3 1.70999Z" fill="#F8EAE1"/>
<path opacity="0.08" d="M42.31 1.72C45.93 1.72 48.87 4.66 48.87 8.28C48.87 11.9 45.94 14.84 42.31 14.84C38.68 14.84 35.75 11.9 35.75 8.28C35.75 4.65 38.7 1.71 42.31 1.72Z" fill="#F8EBE2"/>
<path opacity="0.07" d="M42.31 1.71997C45.93 1.71997 48.87 4.65997 48.87 8.27997C48.87 11.9 45.94 14.84 42.31 14.84C38.68 14.84 35.75 11.9 35.75 8.27997C35.75 4.64997 38.7 1.71997 42.31 1.71997Z" fill="#F8ECE4"/>
<path opacity="0.07" d="M42.31 1.71997C45.93 1.71997 48.87 4.65997 48.87 8.27997C48.87 11.9 45.94 14.84 42.31 14.84C38.68 14.84 35.75 11.9 35.75 8.27997C35.75 4.64997 38.7 1.71997 42.31 1.71997Z" fill="#F9EDE5"/>
<path opacity="0.06" d="M42.31 1.72998C45.93 1.72998 48.87 4.66998 48.87 8.28998C48.87 11.91 45.94 14.85 42.31 14.85C38.68 14.85 35.75 11.91 35.75 8.28998C35.75 4.65998 38.7 1.72998 42.31 1.72998Z" fill="#F9EEE7"/>
<path opacity="0.06" d="M42.32 1.72998C45.94 1.72998 48.88 4.66998 48.88 8.28998C48.88 11.91 45.95 14.85 42.32 14.85C38.69 14.85 35.76 11.91 35.76 8.28998C35.76 4.65998 38.7 1.72998 42.32 1.72998Z" fill="#FAEFE8"/>
<path opacity="0.05" d="M42.32 1.72998C45.94 1.72998 48.88 4.66998 48.88 8.28998C48.88 11.91 45.95 14.85 42.32 14.85C38.69 14.85 35.76 11.91 35.76 8.28998C35.76 4.65998 38.7 1.72998 42.32 1.72998Z" fill="#FAF0EA"/>
<path opacity="0.05" d="M42.32 1.73999C45.94 1.73999 48.88 4.67999 48.88 8.29999C48.88 11.92 45.95 14.86 42.32 14.86C38.69 14.86 35.76 11.92 35.76 8.29999C35.76 4.67999 38.7 1.73999 42.32 1.73999Z" fill="#FAF1EB"/>
<path opacity="0.04" d="M42.33 1.73999C45.95 1.73999 48.89 4.67999 48.89 8.29999C48.89 11.92 45.96 14.86 42.33 14.86C38.7 14.86 35.77 11.92 35.77 8.29999C35.77 4.67999 38.71 1.73999 42.33 1.73999Z" fill="#FBF3ED"/>
<path opacity="0.04" d="M42.33 1.73999C45.95 1.73999 48.89 4.67999 48.89 8.29999C48.89 11.92 45.96 14.86 42.33 14.86C38.7 14.86 35.77 11.92 35.77 8.29999C35.77 4.67999 38.71 1.73999 42.33 1.73999Z" fill="#FBF4EE"/>
<path opacity="0.03" d="M42.33 1.75C45.95 1.75 48.89 4.69 48.89 8.31C48.89 11.93 45.96 14.87 42.33 14.87C38.7 14.87 35.77 11.93 35.77 8.31C35.77 4.69 38.71 1.75 42.33 1.75Z" fill="#FCF5F0"/>
<path opacity="0.03" d="M42.34 1.75C45.96 1.75 48.9 4.69 48.9 8.31C48.9 11.93 45.97 14.87 42.34 14.87C38.71 14.87 35.78 11.93 35.78 8.31C35.78 4.69 38.72 1.75 42.34 1.75Z" fill="#FCF6F1"/>
<path opacity="0.02" d="M42.34 1.75C45.96 1.75 48.9 4.69 48.9 8.31C48.9 11.93 45.97 14.87 42.34 14.87C38.71 14.87 35.78 11.93 35.78 8.31C35.78 4.69 38.72 1.75 42.34 1.75Z" fill="#FDF7F3"/>
<path opacity="0.02" d="M42.34 1.76001C45.96 1.76001 48.9 4.70001 48.9 8.32001C48.9 11.94 45.97 14.88 42.34 14.88C38.71 14.88 35.78 11.94 35.78 8.32001C35.78 4.70001 38.72 1.76001 42.34 1.76001Z" fill="#FDF8F5"/>
<path opacity="0.01" d="M42.35 1.76001C45.97 1.76001 48.91 4.70001 48.91 8.32001C48.91 11.94 45.98 14.88 42.35 14.88C38.72 14.88 35.79 11.94 35.79 8.32001C35.79 4.70001 38.73 1.76001 42.35 1.76001Z" fill="#FEFAF7"/>
</g>
</g>
</g>
</g>
<defs>
<linearGradient id="paint0_linear_1801_19659" x1="44.2" y1="11.92" x2="39.66" y2="4.80998" gradientUnits="userSpaceOnUse">
<stop stop-color="#F9A020"/>
<stop offset="0.25" stop-color="#F89B20"/>
<stop offset="0.53" stop-color="#F68D20"/>
<stop offset="0.62" stop-color="#F68820"/>
<stop offset="0.73" stop-color="#F58120"/>
<stop offset="1" stop-color="#F47521"/>
</linearGradient>
<linearGradient id="paint1_linear_1801_19659" x1="43.48" y1="11.82" x2="36.85" y2="-1.14002" gradientUnits="userSpaceOnUse">
<stop stop-color="#F68820" stop-opacity="0"/>
<stop offset="0.11" stop-color="#EE7F22" stop-opacity="0.14"/>
<stop offset="0.31" stop-color="#E37226" stop-opacity="0.35"/>
<stop offset="0.5" stop-color="#DB6829" stop-opacity="0.52"/>
<stop offset="0.69" stop-color="#D5602C" stop-opacity="0.64"/>
<stop offset="0.85" stop-color="#D15C2D" stop-opacity="0.71"/>
<stop offset="0.98" stop-color="#D05B2E" stop-opacity="0.74"/>
</linearGradient>
<clipPath id="clip0_1801_19659">
<rect width="78.61" height="14.88" rx="7.44" fill="white"/>
</clipPath>
<clipPath id="clip1_1801_19659">
<rect width="78.61" height="14.88" fill="white"/>
</clipPath>
</defs>
</svg>
