<svg width="47" height="60" viewBox="0 0 47 60" fill="none" xmlns="http://www.w3.org/2000/svg">
<g clip-path="url(#clip0_1801_18892)">
<path fill-rule="evenodd" clip-rule="evenodd" d="M32.9967 7.91483L37.554 21.0822C37.8163 21.8502 37.8411 22.7766 37.554 23.5103L33.4386 31.7435L28.9037 26.111L27.8852 23.0649C27.7267 22.4667 27.7501 21.8348 27.9526 21.25L28.7123 19.5863C28.8777 19.2236 29.218 19.2035 29.3409 19.5048L31.4488 25.5556C31.8671 25.3323 32.1578 24.2665 31.8919 23.4583L29.8431 17.7656C29.4886 16.5249 29.9057 15.2618 30.7162 13.9845C30.9018 13.675 31.17 13.6856 31.307 13.9704L33.7092 20.8743C34.216 20.6994 34.4098 19.6655 34.0636 18.6364L31.7714 12.0196C31.6364 11.1795 31.7455 10.3182 32.0857 9.5383C32.0857 9.5383 32.9813 7.92664 32.9967 7.91483ZM35.2511 30.9979C36.3311 31.2626 38.114 31.265 40.0684 31.2023C40.6992 31.3519 41.246 31.7431 41.5914 32.2917C43.3047 32.3106 44.0361 33.0645 43.8576 34.5025C43.3472 33.2193 41.7674 33.0716 41.0325 34.018C41.524 34.4363 42.0877 34.4564 42.7245 34.0653C42.7966 34.74 41.9884 35.1417 40.2432 35.2528C39.1467 35.4134 35.5725 38.3697 33.3665 40.3418C31.1706 41.9838 28.6492 43.1376 25.9711 43.7258L8.13885 49.1515C7.76547 49.2531 7.55751 48.8502 7.7702 48.7155C8.70009 47.8955 10.1333 47.0885 11.81 46.2862C11.7225 46.0582 11.2605 46.0062 10.554 46.0676L4.30466 48.6789C4.50552 47.9262 5.3917 47.0613 7.14042 46.1551L16.7111 40.3961C16.9734 40.2567 17.0372 40.1102 16.8293 39.953C15.9325 39.9885 12.4882 36.2299 9.69261 33.4367C9.21551 32.9545 8.91744 32.3237 8.84779 31.649V29.6143C8.85842 29.3024 9.00966 29.2941 9.29796 29.5777L16.2184 36.2724C16.9628 36.94 16.9096 35.5635 16.3756 35.0649L7.94625 26.5529C7.54525 26.0628 7.28471 25.4731 7.19241 24.8467V22.6809C7.19241 22.4174 7.33065 22.3607 7.62959 22.6431L16.2775 31.0322C16.9203 31.5816 16.8458 30.0869 16.2704 29.4702L6.69497 20.0708C6.05456 19.3524 5.68 18.6056 5.54885 17.8329V15.432C5.54885 15.1425 5.74263 15.1129 6.10891 15.4591L16.2704 25.3654C16.8364 25.9148 17.1944 24.8136 16.2704 23.9192L4.96279 12.621C4.49725 12.1141 3.96791 11.2953 3.91592 10.6123L3.94664 8.10506C3.96555 7.74232 4.27748 7.67851 4.55042 7.93137L16.2479 19.3122C16.9675 20.0708 16.9876 18.9318 16.4654 18.1307L3.1479 4.93846C2.14003 3.70254 2.38225 1.79667 2.45314 0.224003C2.46378 -0.0123104 2.63747 -0.0808413 2.84897 0.111754L19.769 16.6324L33.9478 34.4528C34.1215 34.6549 34.3118 34.7293 34.5221 34.6301L34.5079 33.8396L33.812 32.6521L35.9128 32.1878L35.2535 30.9956L35.2511 30.9979ZM39.4067 32.3071L40.5162 32.3993C40.1452 32.8908 39.6572 32.9203 39.0321 32.4134L39.1775 32.1027L39.4067 32.3071Z" fill="#F5303E"/>
<path fill-rule="evenodd" clip-rule="evenodd" d="M11.4768 43.5462C6.49882 43.0605 -0.04233 43.3453 0.000206392 52.1846C0.118363 57.2086 2.72608 59.8045 8.16011 59.9983C10.3885 59.9983 12.5154 59.5706 14.5169 58.6206L14.4886 51.5607C13.7548 50.4973 12.6784 50.2752 11.2842 50.8234L6.70914 52.6442V53.0306H11.1991L11.2842 56.3768C7.07897 57.6257 3.69497 56.5092 3.71387 52.0676C3.65451 50.9046 3.85638 49.7431 4.30466 48.6683C4.50907 47.918 5.39524 47.0554 7.14042 46.1515L11.4744 43.5426L11.4768 43.5462Z" fill="#003563"/>
<path fill-rule="evenodd" clip-rule="evenodd" d="M32.8667 43.2331H35.1235C35.4638 43.2331 35.7934 43.4351 36.0593 43.7837L43.1877 53.5233V43.4706C43.1846 43.4405 43.1876 43.4101 43.1966 43.3813C43.2055 43.3524 43.2202 43.3256 43.2397 43.3026C43.2592 43.2795 43.2832 43.2606 43.3102 43.2471C43.3372 43.2335 43.3667 43.2255 43.3968 43.2236L45.5236 43.2307C46.2196 43.2307 46.8458 43.9006 46.8576 44.5032L46.8647 59.2728C46.8647 59.5233 46.7466 59.7147 46.4453 59.7195L43.9415 59.7266C43.4311 59.7266 43.0506 59.1889 42.7009 58.7589L36.2767 49.9219L36.2625 59.3615C36.2625 59.5836 36.155 59.7325 35.8986 59.7337L33.8403 59.7266C33.207 59.7195 32.5465 58.9408 32.5406 58.4469V43.5592C32.5406 43.3595 32.6268 43.2342 32.8632 43.2319L32.8667 43.2331Z" fill="#003563"/>
<path fill-rule="evenodd" clip-rule="evenodd" d="M22.8694 46.1125L28.535 44.8695C30.3369 46.2082 30.8084 49.3288 29.654 51.8585C28.7028 53.5883 27.2838 54.5655 25.3129 54.6576H20.5488L20.5146 59.3603C20.5323 59.6155 20.3964 59.7514 20.0644 59.7419L18.1739 59.749C17.5701 59.6687 16.899 58.8687 16.8635 58.3016L16.8694 47.7774C16.8694 47.5292 17.452 47.1807 18.1184 47.0129L19.8115 46.6442C20.2298 46.5722 20.6516 46.6691 20.6646 46.8357L20.6918 51.6305L24.3228 51.6234C25.5291 51.6068 26.4933 50.7466 26.5205 49.0133C26.5205 47.2728 25.8517 46.2567 22.8824 46.4729L22.8694 46.1125Z" fill="#003563"/>
</g>
<defs>
<clipPath id="clip0_1801_18892">
<rect width="46.8647" height="59.9983" rx="8" fill="white"/>
</clipPath>
</defs>
</svg>
