<svg width="80" height="62" viewBox="0 0 80 62" fill="none" xmlns="http://www.w3.org/2000/svg">
<g clip-path="url(#clip0_1801_18843)">
<path d="M79.4667 48.8652C79.4667 55.6655 73.9293 61.2029 67.1289 61.2029H0V12.3377C0 5.53741 5.53741 0 12.3377 0H79.4667V48.8652Z" fill="white"/>
<path d="M57.6085 36.3332H62.7087C62.8545 36.3332 63.1945 36.2846 63.3402 36.2846C64.3117 36.0903 65.1374 35.216 65.1374 34.0016C65.1374 32.8359 64.3117 31.9615 63.3402 31.7187C63.1945 31.6701 62.903 31.6701 62.7087 31.6701H57.6085V36.3332Z" fill="url(#paint0_linear_1801_18843)"/>
<path d="M62.1258 4.12877C57.2685 4.12877 53.2854 8.06325 53.2854 12.9692V22.1496H65.7689C66.0603 22.1496 66.4003 22.1496 66.6432 22.1982C69.4605 22.3439 71.5492 23.8011 71.5492 26.327C71.5492 28.3185 70.1405 30.0186 67.5175 30.3586V30.4558C70.3834 30.65 72.5692 32.253 72.5692 34.7302C72.5692 37.4018 70.1405 39.1505 66.9346 39.1505H53.2368V57.1227H66.206C71.0634 57.1227 75.0465 53.1883 75.0465 48.2823V4.12877H62.1258Z" fill="url(#paint1_linear_1801_18843)"/>
<path d="M64.506 26.9099C64.506 25.7441 63.6802 24.9669 62.7087 24.8212C62.6116 24.8212 62.3687 24.7726 62.223 24.7726H57.6085V29.0471H62.223C62.3687 29.0471 62.6601 29.0471 62.7087 28.9985C63.6802 28.8528 64.506 28.0756 64.506 26.9099Z" fill="url(#paint2_linear_1801_18843)"/>
<path d="M13.2606 4.12877C8.40326 4.12877 4.42021 8.06324 4.42021 12.9692V34.7788C6.89747 35.9932 9.47188 36.7703 12.0463 36.7703C15.1064 36.7703 16.7579 34.9245 16.7579 32.3987V22.1011H24.3355V32.3501C24.3355 36.3332 21.8582 39.5876 13.4549 39.5876C8.35469 39.5876 4.37164 38.4704 4.37164 38.4704V57.0742H17.3408C22.1982 57.0742 26.1813 53.1397 26.1813 48.2337V4.12877H13.2606Z" fill="url(#paint3_linear_1801_18843)"/>
<path d="M37.6932 4.12877C32.8359 4.12877 28.8528 8.06325 28.8528 12.9692V24.5298C31.0872 22.6354 34.9731 21.421 41.2391 21.7125C44.5907 21.8582 48.1852 22.7811 48.1852 22.7811V26.5213C46.3879 25.5984 44.2507 24.7726 41.482 24.5783C36.7218 24.2383 33.8559 26.5699 33.8559 30.65C33.8559 34.7788 36.7218 37.1104 41.482 36.7218C44.2507 36.5275 46.3879 35.6531 48.1852 34.7788V38.519C48.1852 38.519 44.6393 39.4419 41.2391 39.5876C34.9731 39.8791 31.0872 38.6647 28.8528 36.7703V57.1713H41.822C46.6794 57.1713 50.6624 53.2368 50.6624 48.3309V4.12877H37.6932Z" fill="url(#paint4_linear_1801_18843)"/>
</g>
<defs>
<linearGradient id="paint0_linear_1801_18843" x1="-45.7149" y1="30.6775" x2="184.674" y2="30.6775" gradientUnits="userSpaceOnUse">
<stop stop-color="#007940"/>
<stop offset="0.2285" stop-color="#00873F"/>
<stop offset="0.7433" stop-color="#40A737"/>
<stop offset="1" stop-color="#5CB531"/>
</linearGradient>
<linearGradient id="paint1_linear_1801_18843" x1="0.14504" y1="30.577" x2="79.684" y2="30.577" gradientUnits="userSpaceOnUse">
<stop stop-color="#007940"/>
<stop offset="0.2285" stop-color="#00873F"/>
<stop offset="0.7433" stop-color="#40A737"/>
<stop offset="1" stop-color="#5CB531"/>
</linearGradient>
<linearGradient id="paint2_linear_1801_18843" x1="-49.9063" y1="30.5145" x2="201.584" y2="30.5145" gradientUnits="userSpaceOnUse">
<stop stop-color="#007940"/>
<stop offset="0.2285" stop-color="#00873F"/>
<stop offset="0.7433" stop-color="#40A737"/>
<stop offset="1" stop-color="#5CB531"/>
</linearGradient>
<linearGradient id="paint3_linear_1801_18843" x1="0.139509" y1="30.605" x2="80.9036" y2="30.605" gradientUnits="userSpaceOnUse">
<stop stop-color="#1F286F"/>
<stop offset="0.4751" stop-color="#004E94"/>
<stop offset="0.8261" stop-color="#0066B1"/>
<stop offset="1" stop-color="#006FBC"/>
</linearGradient>
<linearGradient id="paint4_linear_1801_18843" x1="28.7272" y1="30.6046" x2="50.2552" y2="30.6046" gradientUnits="userSpaceOnUse">
<stop stop-color="#6C2C2F"/>
<stop offset="0.1735" stop-color="#882730"/>
<stop offset="0.5731" stop-color="#BE1833"/>
<stop offset="0.8585" stop-color="#DC0436"/>
<stop offset="1" stop-color="#E60039"/>
</linearGradient>
<clipPath id="clip0_1801_18843">
<rect width="79.4667" height="61.2029" rx="8" fill="white"/>
</clipPath>
</defs>
</svg>
