<svg width="80" height="63" viewBox="0 0 80 63" fill="none" xmlns="http://www.w3.org/2000/svg">
<g clip-path="url(#clip0_1801_18895)">
<path d="M24.1858 61.8764V57.7619C24.21 57.4158 24.16 57.0686 24.0394 56.7434C23.9187 56.4181 23.7301 56.1223 23.4861 55.8757C23.2421 55.6291 22.9483 55.4374 22.6244 55.3133C22.3004 55.1892 21.9538 55.1356 21.6075 55.156C21.1542 55.1266 20.7014 55.2192 20.2962 55.4242C19.8909 55.6293 19.5481 55.9392 19.3034 56.3219C19.0804 55.9506 18.7614 55.6464 18.38 55.4412C17.9987 55.2361 17.569 55.1375 17.1364 55.156C16.7592 55.1371 16.3837 55.217 16.0469 55.3878C15.7102 55.5586 15.4238 55.8144 15.2163 56.1298V55.3207H13.7899V61.8764H15.23V58.242C15.1988 58.0177 15.2177 57.7893 15.2853 57.5732C15.353 57.3571 15.4676 57.1587 15.621 56.9922C15.7744 56.8257 15.9628 56.6952 16.1726 56.6101C16.3825 56.5251 16.6086 56.4876 16.8346 56.5003C17.7809 56.5003 18.261 57.1174 18.261 58.2282V61.8764H19.7011V58.242C19.6723 58.0181 19.6929 57.7907 19.7614 57.5756C19.8298 57.3606 19.9446 57.1631 20.0975 56.9971C20.2504 56.8311 20.4378 56.7006 20.6466 56.6148C20.8553 56.5289 21.0803 56.4899 21.3058 56.5003C22.2794 56.5003 22.7458 57.1174 22.7458 58.2282V61.8764H24.1858ZM32.2229 55.3207H30.7965V56.1161C30.553 55.8024 30.2379 55.5515 29.8776 55.3844C29.5173 55.2174 29.1222 55.1391 28.7255 55.156C27.8417 55.1994 27.0084 55.581 26.3982 56.2219C25.788 56.8627 25.4477 57.7137 25.4477 58.5986C25.4477 59.4834 25.788 60.3344 26.3982 60.9753C27.0084 61.6161 27.8417 61.9977 28.7255 62.0411C29.1222 62.058 29.5173 61.9797 29.8776 61.8127C30.2379 61.6456 30.553 61.3947 30.7965 61.081V61.8764H32.2229V55.3207ZM26.9152 58.5985C26.9374 58.2116 27.0722 57.8397 27.3032 57.5286C27.5342 57.2175 27.8512 56.9808 28.2151 56.8477C28.579 56.7146 28.9738 56.6909 29.351 56.7795C29.7283 56.8681 30.0712 57.0652 30.3378 57.3465C30.6043 57.6277 30.7827 57.9808 30.8509 58.3623C30.9192 58.7437 30.8743 59.1367 30.7219 59.4929C30.5694 59.8492 30.316 60.153 29.993 60.3669C29.6699 60.5808 29.2913 60.6955 28.9038 60.6969C28.6322 60.7005 28.3628 60.6479 28.1126 60.5423C27.8624 60.4367 27.6367 60.2804 27.4499 60.0832C27.2631 59.8861 27.1191 59.6524 27.0271 59.3968C26.9351 59.1413 26.897 58.8695 26.9152 58.5985ZM62.7436 55.1483C63.2252 55.1437 63.7031 55.2333 64.1504 55.412C64.5673 55.5784 64.9475 55.8249 65.2695 56.1376C65.5864 56.4485 65.8378 56.8198 66.0089 57.2294C66.3651 58.1074 66.3651 59.0896 66.0089 59.9675C65.8379 60.3774 65.5865 60.7487 65.2695 61.0596C64.9475 61.3723 64.5673 61.6188 64.1504 61.7851C63.2455 62.1367 62.2417 62.1367 61.3367 61.7851C60.9205 61.6193 60.5413 61.3727 60.2209 61.0596C59.9058 60.7479 59.6556 60.3767 59.485 59.9675C59.1291 59.0895 59.1291 58.1075 59.485 57.2294C59.6557 56.8204 59.9058 56.4493 60.2209 56.1376C60.5413 55.8245 60.9205 55.5779 61.3367 55.412C61.784 55.2333 62.2619 55.1437 62.7436 55.1483ZM62.7436 56.497C62.4646 56.4945 62.1878 56.5469 61.9291 56.6511C61.6852 56.7489 61.4638 56.8957 61.2787 57.0822C61.0923 57.2728 60.9457 57.4986 60.8474 57.7464C60.6374 58.2952 60.6374 58.9021 60.8474 59.4509C60.9457 59.6987 61.0923 59.9244 61.2787 60.1149C61.4638 60.3015 61.6851 60.4483 61.9291 60.5462C62.4527 60.7516 63.0345 60.7516 63.5581 60.5462C63.8027 60.4478 64.0251 60.3011 64.2119 60.1149C64.4 59.9251 64.5479 59.6992 64.6467 59.4509C64.8567 58.9021 64.8567 58.2952 64.6467 57.7464C64.5478 57.498 64.3999 57.2722 64.2119 57.0822C64.0251 56.8961 63.8027 56.7495 63.5581 56.6511C63.2993 56.5469 63.0225 56.4945 62.7436 56.497ZM39.9843 58.5985C39.9707 56.555 38.7088 55.156 36.871 55.156C35.9814 55.2027 35.1445 55.5921 34.5358 56.2426C33.9272 56.8931 33.5941 57.754 33.6065 58.6447C33.6189 59.5355 33.9759 60.3868 34.6025 61.02C35.229 61.6533 36.0765 62.0192 36.967 62.041C37.9456 62.0754 38.9025 61.7483 39.6552 61.1221L38.9557 60.066C38.4141 60.5001 37.7433 60.7413 37.0493 60.7517C36.578 60.7914 36.1098 60.6461 35.7437 60.3466C35.3776 60.0471 35.1425 59.6169 35.088 59.1471H39.9569C39.9706 58.9688 39.9843 58.7906 39.9843 58.5985ZM35.1018 58.0225C35.1268 57.5824 35.3231 57.1695 35.6486 56.8722C35.9741 56.5749 36.403 56.4168 36.8436 56.4316C37.2744 56.4232 37.691 56.5859 38.0021 56.8841C38.3131 57.1823 38.4933 57.5917 38.5032 58.0225H35.1018ZM45.9912 56.994C45.3689 56.636 44.6656 56.4424 43.9477 56.4316C43.1659 56.4316 42.6996 56.7196 42.6996 57.1997C42.6996 57.6386 43.1933 57.7619 43.8106 57.8442L44.4825 57.9402C45.909 58.1459 46.7729 58.7493 46.7729 59.9014C46.7729 61.1495 45.6758 62.0411 43.7831 62.0411C42.7701 62.0691 41.7749 61.7709 40.9441 61.1906L41.6161 60.0798C42.2455 60.5465 43.0136 60.788 43.7968 60.7656C44.7705 60.7656 45.2917 60.4776 45.2917 59.97C45.2917 59.5997 44.9214 59.394 44.1397 59.2843L43.4676 59.1884C42.0002 58.9826 41.2047 58.3243 41.2047 57.2545C41.2047 55.9515 42.2744 55.156 43.934 55.156C44.8728 55.1237 45.8011 55.3617 46.6084 55.8419L45.9912 56.994ZM52.8449 56.6236H50.5134V59.5861C50.5134 60.2443 50.7466 60.6833 51.4598 60.6833C51.9049 60.6685 52.339 60.5411 52.7216 60.313L53.1329 61.5337C52.5982 61.8671 51.9802 62.043 51.35 62.0411C49.6631 62.0411 49.0734 61.1359 49.0734 59.6134V56.6236H47.743V55.3207H49.0734L49.073 53.3321H50.513L50.5134 55.3207H52.8449V56.6236ZM57.7812 55.156C58.1272 55.1574 58.4705 55.2178 58.7962 55.3345L58.3573 56.6785C58.0739 56.5656 57.7709 56.5097 57.4659 56.5139C56.5332 56.5139 56.0668 57.1174 56.0668 58.2008V61.8764H54.6406V55.3207H56.0533V56.1161C56.2282 55.8154 56.4811 55.5675 56.7853 55.3985C57.0894 55.2296 57.4335 55.1458 57.7812 55.156ZM67.656 60.9221C67.7447 60.9215 67.8326 60.939 67.9144 60.9733C67.993 61.0062 68.0646 61.0536 68.1255 61.1132C68.1858 61.1727 68.2341 61.2433 68.2677 61.3212C68.302 61.4011 68.3197 61.4872 68.3197 61.5742C68.3197 61.6613 68.302 61.7474 68.2677 61.8273C68.2339 61.9048 68.1856 61.9751 68.1255 62.0344C68.0645 62.094 67.9929 62.1417 67.9144 62.175C67.8327 62.21 67.7448 62.2277 67.656 62.2271C67.5254 62.2284 67.3972 62.1912 67.2876 62.1201C67.1779 62.049 67.0917 61.9471 67.0396 61.8273C67.0053 61.7473 66.9877 61.6612 66.9877 61.5742C66.9877 61.4872 67.0053 61.4012 67.0396 61.3212C67.073 61.2434 67.1211 61.1728 67.1812 61.1132C67.242 61.0532 67.314 61.0057 67.3931 60.9733C67.4764 60.9388 67.5658 60.9214 67.656 60.9221ZM67.656 62.0831C67.7237 62.0837 67.7907 62.07 67.8528 62.0432C67.9124 62.0173 67.9667 61.9804 68.0126 61.9344C68.0716 61.8757 68.1152 61.8034 68.1396 61.7238C68.164 61.6442 68.1686 61.5599 68.1528 61.4782C68.137 61.3965 68.1014 61.3199 68.0491 61.2552C67.9968 61.1904 67.9294 61.1395 67.8528 61.1069C67.7906 61.0804 67.7236 61.0671 67.656 61.0677C67.5872 61.0671 67.5189 61.0805 67.4553 61.1069C67.3947 61.1319 67.3396 61.1685 67.2931 61.2147C67.1982 61.3104 67.145 61.4398 67.145 61.5746C67.145 61.7094 67.1982 61.8387 67.2931 61.9344C67.3408 61.9819 67.3974 62.0195 67.4597 62.045C67.522 62.0705 67.5887 62.0835 67.656 62.0831ZM67.6944 61.2691C67.7587 61.2649 67.8223 61.2833 67.8744 61.3212C67.8952 61.3383 67.9117 61.3599 67.9226 61.3845C67.9336 61.409 67.9387 61.4358 67.9375 61.4627C67.9382 61.4857 67.9341 61.5086 67.9255 61.5299C67.9168 61.5512 67.9038 61.5705 67.8872 61.5865C67.8474 61.6218 67.7971 61.6429 67.744 61.6465L67.9423 61.8752H67.7872L67.6033 61.6481H67.5441V61.8752H67.4146V61.2691H67.6944ZM67.5441 61.3827V61.5443H67.6929C67.7215 61.5457 67.7498 61.5387 67.7745 61.5241C67.7845 61.5174 67.7926 61.5083 67.7979 61.4975C67.8032 61.4867 67.8056 61.4747 67.8048 61.4627C67.8054 61.4509 67.803 61.4391 67.7977 61.4286C67.7923 61.418 67.7844 61.409 67.7745 61.4026C67.7498 61.3882 67.7214 61.3813 67.6929 61.3827H67.5441Z" fill="black"/>
<path d="M50.8168 5.28572H29.1844V44.1597H50.8168V5.28572Z" fill="#7375CF"/>
<path d="M30.558 24.7227C30.5546 20.9789 31.403 17.2833 33.0389 13.9159C34.6749 10.5484 37.0555 7.59719 40.0006 5.28576C36.3535 2.41905 31.9735 0.63629 27.361 0.141237C22.7486 -0.353817 18.09 0.458818 13.9176 2.48625C9.7452 4.51369 6.22741 7.67412 3.76628 11.6063C1.30516 15.5385 0 20.0838 0 24.7227C0 29.3616 1.30516 33.9069 3.76628 37.8391C6.22741 41.7714 9.7452 44.9318 13.9176 46.9592C18.09 48.9867 22.7486 49.7993 27.361 49.3042C31.9735 48.8092 36.3535 47.0264 40.0006 44.1597C37.0555 41.8483 34.6749 38.8971 33.0389 35.5296C31.403 32.1621 30.5546 28.4666 30.558 24.7227Z" fill="#EB001B"/>
<path d="M77.6414 40.0424V39.2465H77.9623V39.0844H77.145V39.2465H77.4661V40.0424H77.6414ZM79.2281 40.0424V39.0828H78.9776L78.6894 39.7428L78.4012 39.0828H78.1505V40.0424H78.3274V39.3186L78.5977 39.9426H78.7811L79.0513 39.317V40.0424H79.2281Z" fill="#00A2E5"/>
<path d="M80 24.7227C80.0002 29.3615 78.6952 33.9068 76.2342 37.839C73.7732 41.7712 70.2555 44.9317 66.0832 46.9591C61.9109 48.9866 57.2524 49.7992 52.64 49.3042C48.0277 48.8091 43.6476 47.0264 40.0006 44.1597C42.9431 41.846 45.322 38.8942 46.9577 35.5273C48.5933 32.1603 49.4432 28.4659 49.4432 24.7227C49.4432 20.9794 48.5933 17.2851 46.9577 13.9181C45.322 10.5511 42.9431 7.59952 40.0006 5.28576C43.6476 2.41905 48.0277 0.636239 52.64 0.141192C57.2524 -0.353855 61.9109 0.458794 66.0832 2.48625C70.2555 4.51371 73.7732 7.67416 76.2342 11.6064C78.6952 15.5386 80.0002 20.0839 80 24.7227Z" fill="#00A2E5"/>
</g>
<defs>
<clipPath id="clip0_1801_18895">
<rect width="80" height="62.2271" rx="8" fill="white"/>
</clipPath>
</defs>
</svg>
