<svg width="80" height="29" viewBox="0 0 80 29" fill="none" xmlns="http://www.w3.org/2000/svg">
<g clip-path="url(#clip0_1801_19649)">
<path fill-rule="evenodd" clip-rule="evenodd" d="M75.6203 11.1206C75.6203 10.2652 76.3046 9.54663 77.1258 9.54663C77.9813 9.54663 78.6314 10.2652 78.6314 11.1206C78.6314 11.9761 77.9813 12.6946 77.1258 12.6946C76.3046 12.7288 75.6203 12.0103 75.6203 11.1206ZM77.1258 12.3524C77.776 12.3524 78.255 11.805 78.255 11.1548C78.255 10.5047 77.7418 9.95724 77.1258 9.95724C76.4757 9.95724 75.9967 10.5047 75.9967 11.1548C75.9967 11.805 76.5099 12.3524 77.1258 12.3524ZM76.9205 11.8392H76.6126V10.4363H77.1943C77.2969 10.4363 77.4338 10.4363 77.5365 10.5047C77.6391 10.5731 77.7075 10.71 77.7075 10.8469C77.7075 11.018 77.6049 11.1548 77.468 11.1891L77.7075 11.805H77.3654L77.1601 11.2575H76.9205V11.8392ZM76.9205 11.0522H77.0916C77.1601 11.0522 77.2285 11.0522 77.2627 11.018C77.2969 10.9838 77.3311 10.9153 77.3311 10.8469C77.3311 10.8127 77.2969 10.7442 77.2627 10.71C77.2285 10.6758 77.1258 10.6758 77.0916 10.6758H76.9205C76.9548 10.71 76.9205 11.0522 76.9205 11.0522ZM54.0976 0.61591L53.687 3.31908C52.7974 2.84004 52.1472 2.66895 51.4287 2.66895C49.5467 2.66895 48.2465 4.58512 48.2465 7.28828C48.2465 9.17024 49.1361 10.2994 50.6075 10.2994C51.2234 10.2994 51.9077 10.0941 52.7631 9.64928L52.3183 12.4893C51.3945 12.7631 50.7785 12.8657 50.0942 12.8657C47.391 12.8657 45.6802 10.8127 45.6802 7.52781C45.6802 3.11377 48.0069 0 51.3602 0C51.8051 0 52.1815 0.0342152 52.4894 0.136867L53.5501 0.410607C53.7897 0.513259 53.8581 0.513258 54.0976 0.61591ZM45.7144 2.46364C45.6459 2.42943 45.5433 2.42943 45.4749 2.42943C44.6537 2.42943 44.1746 2.87425 43.3876 4.07186L43.6271 2.53208H41.3346L39.7948 12.592H42.3269C43.2507 6.43285 43.456 5.37212 44.6879 5.37212H44.8589C45.0985 4.17451 45.3722 3.28486 45.817 2.46364H45.7144ZM30.6588 12.4551C29.9744 12.6946 29.427 12.7973 28.8453 12.7973C27.5792 12.7973 26.8607 12.0103 26.8607 10.5731C26.8607 10.2994 26.8949 9.99145 26.9291 9.64928L27.1002 8.65698L27.2028 7.86998L28.2978 0.9923H30.7957L30.4877 2.46364H31.788L31.4116 4.89307H30.1797L29.4954 9.17024C29.4612 9.34132 29.4612 9.47819 29.4612 9.58085C29.4612 10.0941 29.7349 10.3336 30.3166 10.3336C30.6246 10.3336 30.8299 10.2994 31.001 10.231L30.6588 12.4551ZM20.7016 5.71429C20.7016 6.98033 21.2833 7.86998 22.6177 8.52011C23.61 9.03337 23.8153 9.17024 23.8153 9.64928C23.8153 10.2652 23.3705 10.5731 22.3782 10.5731C21.6254 10.5731 20.9411 10.4705 20.1199 10.1625L19.7777 12.4893L19.8803 12.5235L20.3252 12.6262C20.4963 12.6604 20.7016 12.6946 20.9753 12.7288C21.557 12.7631 22.036 12.8315 22.3782 12.8315C25.0129 12.8315 26.2448 11.7708 26.2448 9.47819C26.2448 8.1095 25.7315 7.28829 24.4655 6.67237C23.4047 6.15912 23.3021 6.05646 23.3021 5.57742C23.3021 5.02994 23.7127 4.7562 24.5339 4.7562C25.0471 4.7562 25.6973 4.82464 26.3474 4.92729L26.7238 2.60051C26.0052 2.46365 25.2525 2.39521 24.4997 2.39521C21.6596 2.32678 20.7016 3.83234 20.7016 5.71429ZM74.1832 12.592H71.788L71.8906 11.5997C71.2063 12.3867 70.4877 12.7288 69.5638 12.7288C67.7161 12.7288 66.5185 11.0522 66.5185 8.55433C66.5185 5.20103 68.4004 2.36099 70.6246 2.36099C71.6169 2.36099 72.3354 2.80582 73.054 3.72968L73.6015 0.205303H76.0993L74.1832 12.592ZM70.4535 10.231C71.6511 10.231 72.4723 8.82806 72.4723 6.84346C72.4723 5.57742 71.9933 4.85886 71.1378 4.85886C70.0087 4.85886 69.1874 6.26177 69.1874 8.24637C69.1532 9.54663 69.598 10.231 70.4535 10.231ZM38.6314 12.3867C37.776 12.6604 36.9205 12.7973 36.0309 12.7973C33.2251 12.7973 31.7537 11.2575 31.7537 8.28059C31.7537 4.82464 33.6357 2.29256 36.1678 2.29256C38.255 2.29256 39.5553 3.72968 39.5553 5.95381C39.5553 6.67237 39.4526 7.42515 39.2473 8.45167H34.2174C34.1832 8.62276 34.1832 8.6912 34.1832 8.75963C34.1832 9.95724 34.9359 10.5389 36.4073 10.5389C37.2969 10.5389 38.1181 10.3336 39.042 9.8888C39.0078 9.8888 38.6314 12.3867 38.6314 12.3867ZM37.2285 6.36442C37.2627 6.15911 37.2627 5.98803 37.2627 5.85116C37.2627 5.02994 36.8179 4.5509 36.0651 4.5509C35.2781 4.5509 34.6964 5.20103 34.4569 6.36442H37.2285ZM10.5732 12.592H8.07538L9.5125 3.07956L6.26186 12.592H4.551L4.3457 3.14799L2.80592 12.592H0.444925L2.46374 0.205303H6.09078L6.19343 7.86998L8.62286 0.205303H12.5578L10.5732 12.592ZM17.0745 8.1095C16.8008 8.07528 16.6981 8.07528 16.4928 8.07528C15.0557 8.07528 14.3371 8.58854 14.3371 9.61506C14.3371 10.231 14.7135 10.6416 15.261 10.6416C16.2875 10.6074 17.0403 9.58084 17.0745 8.1095ZM18.9223 12.592H16.835L16.8692 11.5312C16.2191 12.3867 15.3979 12.7288 14.2345 12.7288C12.8658 12.7288 11.9419 11.5997 11.9419 9.99145C11.9419 7.52781 13.5844 6.1249 16.356 6.1249C16.6639 6.1249 17.0061 6.15911 17.3825 6.19333C17.4509 5.85116 17.4851 5.71429 17.4851 5.5432C17.4851 4.89307 17.0403 4.61934 15.8769 4.61934C15.1584 4.61934 14.3371 4.72199 13.7897 4.92729L13.4133 5.02994L13.1738 5.09838L13.5159 2.84003C14.782 2.46364 15.6032 2.29256 16.527 2.29256C18.6827 2.29256 19.8461 3.31908 19.8461 5.23525C19.8461 5.74851 19.8119 6.09068 19.6408 7.25407L19.1276 10.8469L19.0249 11.497L18.9565 12.0103L18.9223 12.3867C18.9565 12.3182 18.9223 12.592 18.9223 12.592ZM58.4432 8.1095C58.2037 8.07528 58.0668 8.07528 57.8615 8.07528C56.4244 8.07528 55.7058 8.58854 55.7058 9.61506C55.7058 10.231 56.0822 10.6416 56.6297 10.6416C57.6562 10.6074 58.409 9.58084 58.4432 8.1095ZM60.2567 12.592H58.1695L58.2037 11.5312C57.5536 12.3867 56.7324 12.7288 55.569 12.7288C54.2003 12.7288 53.2764 11.5997 53.2764 9.99145C53.2764 7.52781 54.9188 6.1249 57.6904 6.1249C57.9642 6.1249 58.3406 6.15911 58.7169 6.19333C58.7854 5.85116 58.8196 5.71429 58.8196 5.5432C58.8196 4.89307 58.3748 4.61934 57.2114 4.61934C56.4928 4.61934 55.6716 4.72199 55.1241 4.92729L54.7477 5.02994L54.5082 5.09838L54.8504 2.84003C56.1164 2.46364 56.9376 2.29256 57.8615 2.29256C60.0172 2.29256 61.1806 3.31908 61.1806 5.23525C61.1806 5.74851 61.1464 6.09068 60.9753 7.25407L60.462 10.8127L60.3936 11.4628L60.3252 11.9761L60.2909 12.3182L60.2567 12.592ZM67.3055 2.46364C67.2371 2.42943 67.1344 2.42943 67.066 2.42943C66.2448 2.42943 65.7657 2.87425 64.9787 4.07186L65.2182 2.53208H62.9257L61.3859 12.592H63.918C64.8418 6.43285 65.0471 5.37212 66.279 5.37212H66.4501C66.6211 4.3456 66.9633 3.38751 67.4081 2.46364H67.3055Z" fill="#E52727"/>
<path fill-rule="evenodd" clip-rule="evenodd" d="M56.7323 22.3439C56.7323 24.6365 56.0137 25.9709 54.9187 25.9709C54.0975 26.0052 53.6185 25.0813 53.6185 23.7468C53.6185 22.1386 54.337 20.3251 55.5004 20.3251C56.4243 20.3251 56.7323 21.3174 56.7323 22.3439ZM59.2301 22.3781C59.2301 19.846 57.9641 17.8614 55.6373 17.8614C52.9341 17.8614 51.1548 20.2567 51.1548 23.781C51.1548 26.3131 52.2156 28.4004 54.7477 28.4004C57.3139 28.4004 59.2301 26.5869 59.2301 22.3781ZM51.9418 16.1164L51.5654 18.8195C50.71 18.3405 50.1283 18.1694 49.4782 18.1694C47.7331 18.1694 46.5013 20.0856 46.5013 22.7887C46.5013 24.6707 47.3225 25.7999 48.6912 25.7999C49.2729 25.7999 49.923 25.5946 50.71 25.1497L50.2994 27.9898C49.444 28.2635 48.8623 28.3662 48.2121 28.3662C45.6801 28.3662 44.0719 26.3131 44.0719 23.0283C44.0719 18.6142 46.2618 15.5004 49.3755 15.5004C49.7861 15.5004 50.1283 15.5347 50.4363 15.6373L51.3944 15.9111C51.6681 15.9795 51.7365 16.0137 51.9418 16.1164ZM36.373 17.9299C36.3045 17.8957 36.2019 17.8957 36.1334 17.8957C35.3464 17.8957 34.9358 18.3405 34.1831 19.5381L34.4226 17.9983H32.3011L30.864 28.0582H33.225C34.0804 21.8991 34.2857 20.8383 35.4149 20.8383C35.4833 20.8383 35.4833 20.8384 35.586 20.8726C35.7913 19.675 36.0992 18.7853 36.4756 17.9641L36.373 17.9299ZM67.1001 27.9898H64.876L64.9786 26.9975C64.3285 27.7845 63.6441 28.1266 62.7887 28.1266C61.0778 28.1266 59.9487 26.45 59.9487 23.9521C59.9487 20.5988 61.6938 17.7588 63.781 17.7588C64.7049 17.7588 65.3892 18.2036 66.0394 19.1617L66.5526 15.6373H68.8794L67.1001 27.9898ZM63.6099 25.6288C64.7391 25.6288 65.4919 24.2259 65.4919 22.2413C65.4919 20.9752 65.0471 20.2909 64.2258 20.2909C63.1651 20.2909 62.4123 21.6938 62.4123 23.6784C62.4123 24.9444 62.8229 25.6288 63.6099 25.6288ZM14.3028 27.9556C13.5158 28.2293 12.6946 28.3662 11.8734 28.3662C9.23867 28.3662 7.86998 26.8264 7.86998 23.8495C7.86998 20.3935 9.61506 17.8614 11.976 17.8614C13.9264 17.8614 15.1583 19.2644 15.1583 21.5227C15.1583 22.2413 15.0556 22.994 14.8503 24.0206H10.1967C10.1625 24.1916 10.1625 24.2601 10.1625 24.3285C10.1625 25.4919 10.8811 26.0736 12.2498 26.0736C13.1052 26.0736 13.858 25.8683 14.6792 25.4235L14.3028 27.9556ZM12.9683 21.9675C12.9683 21.7622 13.0026 21.5911 13.0026 21.4543C13.0026 20.633 12.592 20.154 11.8734 20.154C11.1206 20.154 10.6074 20.8041 10.3678 21.9675H12.9683ZM42.2926 27.9556C41.5056 28.2293 40.6843 28.3662 39.8631 28.3662C37.2284 28.3662 35.8597 26.8264 35.8597 23.8495C35.8597 20.3935 37.6048 17.8614 39.9658 17.8614C41.9162 17.8614 43.148 19.2644 43.148 21.5227C43.148 22.2413 43.0453 22.994 42.84 24.0206H38.1523C38.118 24.1916 38.118 24.2601 38.118 24.3285C38.118 25.4919 38.8366 26.0736 40.2053 26.0736C41.0607 26.0736 41.8135 25.8683 42.6347 25.4235L42.2926 27.9556ZM40.9923 21.9675C41.0265 21.7622 41.0265 21.5911 41.0265 21.4543C41.0265 20.633 40.6159 20.154 39.8973 20.154C39.1446 20.154 38.6313 20.8041 38.3918 21.9675H40.9923ZM75.1411 27.9556C74.3541 28.2293 73.5329 28.3662 72.7117 28.3662C70.077 28.3662 68.7083 26.8264 68.7083 23.8495C68.7083 20.3935 70.4534 17.8614 72.8486 17.8614C74.799 17.8614 76.0308 19.2644 76.0308 21.5227C76.0308 22.2413 75.9281 22.994 75.7228 24.0206H71.0351C71.0009 24.1916 71.0009 24.2601 71.0009 24.3285C71.0009 25.4919 71.7194 26.0736 73.0881 26.0736C73.9435 26.0736 74.6963 25.8683 75.5175 25.4235L75.1411 27.9556ZM73.8067 21.9675C73.8067 21.7622 73.8409 21.5911 73.8409 21.4543C73.8409 20.633 73.4303 20.154 72.7117 20.154C71.9589 20.154 71.4457 20.8041 71.2062 21.9675H73.8067ZM7.3225 18.4089C6.87767 18.101 6.22755 17.8272 5.37211 17.8272C4.41403 17.8272 3.66125 18.0325 3.66125 19.0248C3.66125 20.8041 7.11719 20.154 7.11719 23.9863C7.11719 27.4765 4.82464 28.4004 2.7716 28.4004C1.84773 28.4004 0.786997 28.0924 0 27.7502L0.581694 25.1839C1.06074 25.6288 1.9846 25.9025 2.80582 25.9025C3.5586 25.9025 4.68777 25.6972 4.68777 24.397C4.68777 22.3781 1.23182 23.1309 1.23182 19.5723C1.23182 16.3217 3.25064 15.3636 5.23524 15.3636C6.3302 15.3636 7.39093 15.5347 7.97263 15.9453L7.3225 18.4089ZM21.1805 27.9556C20.7015 28.1951 20.0513 28.3319 19.0932 28.3319C17.0402 28.3319 15.7742 26.2789 15.7742 23.781C15.7742 20.4962 17.6219 17.8957 20.3251 17.8957C20.9068 17.8957 21.8306 18.1352 22.5492 18.5458L22.0359 20.941C21.5227 20.5988 21.0094 20.3935 20.4619 20.3935C19.1959 20.3935 18.3062 21.5569 18.3062 23.61C18.3062 24.8076 18.9564 25.7656 19.9829 25.7656C20.5988 25.7656 21.0436 25.6288 21.5569 25.3208L21.1805 27.9556ZM30.0086 25.4235C29.8717 26.2789 29.8033 27.1686 29.7006 28.024H27.4423L27.6133 26.4158H27.5791C26.8606 27.5107 26.142 28.2635 24.8417 28.2635C23.4388 28.2635 22.6518 26.7579 22.6518 24.8076C22.6518 24.1232 22.6861 23.7468 22.8229 22.7203L23.4731 18.0667H26.0051L25.3208 22.7545C25.2524 23.2678 25.1497 23.7468 25.1497 24.2943C25.1497 24.876 25.4234 25.4919 26.1078 25.4235C27.1343 25.4235 27.7502 24.1574 27.9213 22.6861L28.6399 18.0667H31.0693L30.0086 25.4235ZM77.4679 27.8871H77.0915V26.2447H76.5441V25.8683H78.0154V26.2447H77.4679V27.8871ZM80 27.8871H79.6236V26.2105L79.2814 27.8871H78.905L78.5629 26.2105V27.8871H78.1865V25.8683H78.7682L79.0761 27.4765H79.1104L79.4183 25.8683H79.9658C80 25.8683 80 27.8871 80 27.8871Z" fill="#F3AE12"/>
</g>
<defs>
<clipPath id="clip0_1801_19649">
<rect width="80" height="28.4004" rx="8" fill="white"/>
</clipPath>
</defs>
</svg>
