<svg width="80" height="65" viewBox="0 0 80 65" fill="none" xmlns="http://www.w3.org/2000/svg">
<g clip-path="url(#clip0_1801_17905)">
<g clip-path="url(#clip1_1801_17905)">
<path d="M14.1942 61.8911H12.7924V58.3678C12.7924 57.2944 12.3505 56.7009 11.4033 56.7009C10.4815 56.7009 9.85006 57.2818 9.85006 58.3804V61.8911H8.46095V58.3678C8.46095 57.2944 7.99371 56.7009 7.08447 56.7009C6.13735 56.7009 5.5312 57.2818 5.5312 58.3804V61.8911H4.14209V55.5517H5.5312V56.3346C6.04896 55.5896 6.70563 55.3875 7.38755 55.3875C8.35993 55.3875 9.04185 55.8043 9.48384 56.5114C10.0647 55.6275 10.8982 55.3749 11.7064 55.3875C13.2344 55.4002 14.1942 56.3978 14.1942 57.9006V61.8785V61.8911ZM34.7782 56.8019H32.5304V59.6685C32.5304 60.2999 32.7451 60.7293 33.4396 60.7293C33.8059 60.7293 34.2479 60.6156 34.6646 60.3757L35.0561 61.5501C34.6267 61.8532 33.9321 62.0426 33.3386 62.0426C31.7096 62.0426 31.1413 61.1586 31.1413 59.6938V56.8145H29.8532V55.5517H31.1413V53.6322H32.5304V55.5517H34.7782V56.8019ZM46.5351 55.3875C46.813 55.3875 47.2044 55.438 47.5201 55.5643L47.0908 56.865C46.8003 56.7387 46.5099 56.7009 46.2321 56.7009C45.3355 56.7009 44.8808 57.2818 44.8808 58.3299V61.8785H43.5044V55.5391H44.8682V56.3094C45.2218 55.7537 45.7396 55.3875 46.5351 55.3875ZM28.161 57.1681C27.7822 56.9282 26.9992 56.6251 26.191 56.6251C25.446 56.6251 24.9913 56.9029 24.9913 57.3702C24.9913 57.7869 25.4712 57.9132 26.0647 57.989L26.7088 58.0773C28.0853 58.2794 28.9187 58.8603 28.9187 59.9716C28.9187 61.1839 27.858 62.0426 26.0269 62.0426C24.9913 62.0426 24.0442 61.7774 23.2865 61.2218L23.9306 60.1484C24.3978 60.502 25.0797 60.805 26.0395 60.805C26.974 60.805 27.4791 60.5272 27.4791 60.0347C27.4791 59.6811 27.1255 59.4791 26.3678 59.3781L25.7238 59.2897C24.3094 59.0876 23.5391 58.4562 23.5391 57.4207C23.5391 56.1579 24.5746 55.3875 26.1784 55.3875C27.1887 55.3875 28.1105 55.6022 28.7672 56.0442L28.161 57.1681ZM39.0718 55.3875C40.8524 55.3875 42.0647 56.7387 42.0774 58.6961C42.0774 58.8856 42.0647 59.0497 42.0521 59.2265H37.3418C37.5438 60.3631 38.352 60.7798 39.236 60.7798C39.8801 60.7798 40.5494 60.5525 41.0797 60.1231L41.7617 61.146C40.9913 61.7901 40.12 62.03 39.1602 62.03C37.266 62.03 35.9148 60.7167 35.9148 58.7088C35.9148 56.7388 37.2155 55.3875 39.0718 55.3875ZM39.0466 56.6251C38.0616 56.6251 37.5059 57.2439 37.367 58.1657H40.6504C40.4988 57.1807 39.9306 56.6251 39.0466 56.6251ZM21.9479 61.8785H20.5714V61.1081C20.1421 61.6764 19.4728 62.03 18.5762 62.03C16.7956 62.03 15.4065 60.6409 15.4065 58.7088C15.4065 56.7766 16.7956 55.3875 18.5762 55.3875C19.4728 55.3875 20.1295 55.7411 20.5714 56.3094V55.5391H21.9479V58.7088V61.8785ZM16.8209 58.7088C16.8209 59.82 17.5533 60.7419 18.7404 60.7419C19.8769 60.7419 20.6472 59.8579 20.6472 58.7088C20.6472 57.547 19.8769 56.6756 18.7404 56.6756C17.5533 56.6756 16.8209 57.5975 16.8209 58.7088ZM62.7625 61.8785H61.386V61.1081C60.9566 61.6764 60.2873 62.03 59.3907 62.03C57.6101 62.03 56.221 60.6409 56.221 58.7088C56.221 56.7766 57.6101 55.3875 59.3907 55.3875C60.2873 55.3875 60.944 55.7411 61.386 56.3094V55.5391H62.7625V58.7088V61.8785ZM57.6354 58.7088C57.6354 59.82 58.3678 60.7419 59.5549 60.7419C60.6914 60.7419 61.4617 59.8579 61.4617 58.7088C61.4617 57.547 60.6914 56.6756 59.5549 56.6756C58.3678 56.6756 57.6354 57.5975 57.6354 58.7088ZM48.6693 55.5264H50.0458V56.2968C50.4752 55.7285 51.1445 55.3749 52.0411 55.3749C53.8217 55.3749 55.2108 56.764 55.2108 58.6961C55.2108 60.6283 53.8217 62.0174 52.0411 62.0174C51.1445 62.0174 50.4878 61.6638 50.0458 61.0955V64.1515H48.6693V58.6961V55.5264ZM53.7964 58.6961C53.7964 57.5848 53.064 56.6756 51.8769 56.663C50.7404 56.663 49.97 57.547 49.97 58.6961C49.97 59.8579 50.7404 60.7293 51.8769 60.7293C53.064 60.7293 53.7964 59.8074 53.7964 58.6961ZM68.9756 57.1934C68.5967 56.9534 67.8138 56.6504 67.0055 56.6504C66.2605 56.6504 65.8059 56.9282 65.8059 57.3954C65.8059 57.8122 66.2857 57.9384 66.8793 58.0142L67.5233 58.1026C68.8998 58.3047 69.7333 58.8856 69.7333 59.9968C69.7333 61.2092 68.6725 62.0679 66.8414 62.0679C65.8059 62.0679 64.8587 61.8027 64.1011 61.247L64.7451 60.1736C65.2123 60.5272 65.8943 60.8303 66.854 60.8303C67.7885 60.8303 68.2936 60.5525 68.2936 60.06C68.2936 59.7064 67.94 59.5043 67.1823 59.4033L66.5383 59.3149C65.1239 59.1129 64.3536 58.4815 64.3536 57.4459C64.3536 56.1831 65.3891 55.4128 66.9929 55.4128C68.0032 55.4128 68.925 55.6275 69.5817 56.0695L68.9756 57.1934ZM75.5801 57.1934C75.2013 56.9534 74.4183 56.6504 73.6101 56.6504C72.8651 56.6504 72.4104 56.9282 72.4104 57.3954C72.4104 57.8122 72.8903 57.9384 73.4838 58.0142L74.1279 58.1026C75.5044 58.3047 76.3378 58.8856 76.3378 59.9968C76.3378 61.2092 75.2771 62.0679 73.446 62.0679C72.4104 62.0679 71.4633 61.8027 70.7056 61.247L71.3497 60.1736C71.8169 60.5272 72.4988 60.8303 73.4586 60.8303C74.3931 60.8303 74.8982 60.5525 74.8982 60.06C74.8982 59.7064 74.5446 59.5043 73.7869 59.4033L73.1429 59.3149C71.7285 59.1129 70.9582 58.4815 70.9582 57.4459C70.9582 56.1831 71.9937 55.4128 73.5975 55.4128C74.6078 55.4128 75.5296 55.6275 76.1863 56.0695L75.5801 57.1934Z" fill="black"/>
<path d="M29.1838 44.1737V5.29126H50.816V44.1737H29.1838Z" fill="#FF5F00"/>
<path d="M40.0063 44.161C35.8011 47.4822 30.4972 49.4523 24.7261 49.4523C11.075 49.4523 0 38.3773 0 24.7261C0 11.075 11.075 0 24.7261 0C30.4846 0 35.8011 1.98264 40.0063 5.29124C34.2478 9.81215 30.5604 16.8335 30.5604 24.7261C30.5604 32.6188 34.2478 39.6401 40.0063 44.161Z" fill="#EB001B"/>
<path d="M80 24.764C80 38.4151 68.925 49.4901 55.2738 49.4901C49.5027 49.4901 44.1989 47.5201 39.9937 44.1989C45.7395 39.6653 49.4396 32.644 49.4396 24.764C49.4396 16.8839 45.7521 9.85 40.0063 5.32908C44.2115 2.02048 49.5154 0.0378418 55.2865 0.0378418C68.9376 0.0378418 80 11.1128 80 24.764Z" fill="#F79E1B"/>
</g>
</g>
<defs>
<clipPath id="clip0_1801_17905">
<rect width="80" height="64.1515" rx="8" fill="white"/>
</clipPath>
<clipPath id="clip1_1801_17905">
<rect width="80" height="64.1515" fill="white"/>
</clipPath>
</defs>
</svg>
