<svg width="79" height="81" viewBox="0 0 79 81" fill="none" xmlns="http://www.w3.org/2000/svg">
<g clip-path="url(#clip0_1801_20125)">
<path d="M78.2871 66.4987H0.0503764V66.2468H78.2871V66.4987Z" fill="#231F20"/>
<path d="M52.8463 75.3149H50.5793V77.9345C50.5793 78.136 50.5793 78.2872 50.6801 78.4383C50.7305 78.5894 50.7809 78.6902 50.8816 78.7909C50.9824 78.8917 51.0831 78.9421 51.1839 78.9924C51.335 79.0428 51.4358 79.0428 51.5869 79.0428C51.7884 79.0428 51.9899 78.9924 52.1914 78.9421C52.3929 78.8917 52.5441 78.7909 52.6952 78.6902L53.1486 79.3955C52.9471 79.5466 52.6952 79.6977 52.4433 79.7985C52.1411 79.8992 51.8388 79.9496 51.5365 79.9496C51.2846 79.9496 50.9824 79.8992 50.7305 79.8489C50.529 79.7481 50.3275 79.6474 50.1259 79.4962C49.9748 79.2947 49.8237 79.0932 49.7733 78.8413C49.6725 78.539 49.6222 78.2368 49.6222 77.9345V75.2645H48.4635V74.4081H49.6222V72.6952H50.5793V74.4081H52.8463V75.3149ZM47.3048 79.8992H46.398V74.4584H47.3048V79.8992ZM46.8514 71.8892C46.9521 71.8892 47.0529 71.8892 47.1033 71.9396C47.204 71.9899 47.2544 72.0403 47.3048 72.0907C47.3552 72.1411 47.4055 72.2418 47.4559 72.2922C47.5063 72.3929 47.5063 72.4433 47.5063 72.5441C47.5063 72.6448 47.5063 72.6952 47.4559 72.796C47.4055 72.8967 47.3552 72.9471 47.3048 72.9975C47.2544 73.0479 47.1536 73.0982 47.1033 73.1486C47.0025 73.199 46.9521 73.199 46.8514 73.199C46.7506 73.199 46.7003 73.199 46.5995 73.1486C46.4987 73.0982 46.4484 73.0479 46.398 72.9975C46.3476 72.9471 46.2972 72.8464 46.2469 72.796C46.1965 72.6952 46.1965 72.6448 46.1965 72.5441C46.1965 72.4433 46.1965 72.3426 46.2469 72.2922C46.2972 72.1914 46.3476 72.1411 46.398 72.0907C46.4484 72.0403 46.5491 71.9899 46.5995 71.9396C46.6499 71.8892 46.7506 71.8892 46.8514 71.8892ZM42.0655 75.2141C41.8136 75.2141 41.5617 75.2645 41.3098 75.3652C41.1083 75.466 40.9068 75.6171 40.7053 75.7683C40.5542 75.9698 40.403 76.1713 40.3023 76.3728C40.2015 76.6247 40.1511 76.8766 40.1511 77.1285C40.1511 77.3804 40.2015 77.6322 40.3023 77.8841C40.403 78.136 40.5038 78.3375 40.7053 78.4887C40.8564 78.6902 41.0579 78.7909 41.3098 78.8917C41.5617 78.9924 41.8136 79.0428 42.0655 79.0428C42.3174 79.0428 42.5693 78.9924 42.8212 78.8917C43.0227 78.7909 43.2242 78.6398 43.4257 78.4887C43.5768 78.2872 43.728 78.0856 43.7783 77.8841C43.8791 77.6322 43.9295 77.3804 43.9295 77.1285C43.9295 76.8766 43.8791 76.6247 43.7783 76.3728C43.6776 76.1209 43.5768 75.9194 43.3753 75.7683C43.2242 75.5668 43.0227 75.466 42.7708 75.3652C42.6196 75.2645 42.3174 75.2141 42.0655 75.2141ZM42.1662 74.3577C42.5189 74.3577 42.8715 74.4081 43.2242 74.5592C43.5264 74.7103 43.8287 74.9118 44.0806 75.1637C44.3325 75.4156 44.534 75.7179 44.6348 76.0705C44.7859 76.4232 44.8363 76.8262 44.8363 77.1788C44.8363 77.5819 44.7859 77.9345 44.6348 78.3375C44.4836 78.6902 44.2821 78.9924 44.0806 79.2443C43.8287 79.4962 43.5264 79.6977 43.2242 79.8489C42.8715 80 42.5189 80.0504 42.1662 80.0504C41.7632 80.0504 41.4106 80 41.0579 79.7985C40.7557 79.6474 40.5038 79.4458 40.2519 79.194V79.8992H39.3451V71.6877H40.2519V75.2141C40.4534 74.9622 40.7557 74.7607 41.0579 74.6096C41.4106 74.4081 41.8136 74.3577 42.1662 74.3577ZM35.3149 75.1637C35.1133 75.1637 34.8615 75.2141 34.66 75.2645C34.4584 75.3149 34.3073 75.466 34.1562 75.5667C34.005 75.7179 33.9043 75.869 33.8035 76.0705C33.7028 76.272 33.6524 76.4736 33.602 76.7254H36.927C36.8766 76.5239 36.8262 76.272 36.7254 76.0705C36.6247 75.869 36.5239 75.7179 36.3728 75.5667C36.2217 75.4156 36.0705 75.3149 35.869 75.2645C35.7179 75.2141 35.5164 75.1637 35.3149 75.1637ZM35.3149 74.3577C35.6675 74.3577 36.0201 74.4081 36.3224 74.5592C36.6247 74.7103 36.9269 74.9118 37.1285 75.1133C37.3803 75.3652 37.5315 75.6675 37.6322 76.0202C37.7834 76.3728 37.8338 76.7758 37.8338 77.1788C37.8338 77.2292 37.8338 77.2796 37.8338 77.3804C37.8338 77.4811 37.8338 77.4811 37.8338 77.5315H33.5516C33.602 77.7834 33.6524 78.0353 33.7531 78.2872C33.8539 78.4887 34.005 78.6902 34.1562 78.7909C34.3073 78.9421 34.5088 79.0428 34.7103 79.0932C34.9118 79.1436 35.1637 79.194 35.3652 79.194C35.6675 79.194 35.9698 79.1436 36.272 79.0428C36.5743 78.9421 36.8262 78.7909 37.0277 78.5894L37.5315 79.2443C37.3804 79.3955 37.1788 79.5466 37.0277 79.6474C36.8766 79.7481 36.6751 79.8489 36.4736 79.8992C36.272 79.9496 36.1209 80 35.9194 80.0504C35.7179 80.1008 35.5164 80.1008 35.3149 80.1008C34.9118 80.1008 34.5592 80.0504 34.2065 79.8992C33.8539 79.7481 33.602 79.597 33.3501 79.3451C33.0982 79.0932 32.8967 78.7909 32.796 78.4383C32.6448 78.0856 32.5945 77.6826 32.5945 77.2796C32.5945 76.8766 32.6448 76.5239 32.796 76.1209C32.8967 75.7683 33.0982 75.466 33.3501 75.2141C33.602 74.9622 33.9043 74.7607 34.2065 74.66C34.6096 74.4081 34.9622 74.3577 35.3149 74.3577ZM28.4131 75.2141C28.1612 75.2141 27.9093 75.2645 27.6574 75.3652C27.4559 75.466 27.2544 75.6171 27.0529 75.7683C26.9018 75.9698 26.7506 76.1713 26.7003 76.3728C26.5995 76.6247 26.5491 76.8766 26.5491 77.1285C26.5491 77.3804 26.5995 77.6322 26.7003 77.8841C26.801 78.136 26.9018 78.3375 27.1033 78.4887C27.2544 78.6902 27.4559 78.7909 27.7078 78.8917C27.9597 78.9924 28.2116 79.0428 28.4635 79.0428C28.7154 79.0428 28.9673 78.9924 29.2191 78.8917C29.4207 78.7909 29.6222 78.6398 29.8237 78.4887C29.9748 78.2872 30.1259 78.0856 30.2267 77.8841C30.3275 77.6322 30.3778 77.3804 30.3778 77.1285C30.3778 76.8766 30.3275 76.6247 30.2267 76.3728C30.1259 76.1209 30.0252 75.9194 29.8237 75.7683C29.6725 75.6171 29.471 75.466 29.2191 75.3652C28.9169 75.2645 28.665 75.2141 28.4131 75.2141ZM28.3123 74.3577C28.7154 74.3577 29.068 74.4081 29.4207 74.6096C29.7229 74.7607 30.0252 74.9622 30.2267 75.2141V71.6877H31.1839V79.8992H30.2267V79.1436C30.0252 79.3955 29.7229 79.597 29.4207 79.7481C29.068 79.8992 28.7154 80 28.3123 80C27.9597 80 27.6071 79.9496 27.2544 79.7985C26.9521 79.6474 26.6499 79.4458 26.398 79.194C26.1461 78.9421 25.9446 78.6398 25.8438 78.2872C25.6927 77.9345 25.6423 77.5315 25.6423 77.1285C25.6423 76.7254 25.6927 76.3728 25.8438 76.0202C25.995 75.6675 26.1461 75.3652 26.398 75.1133C26.6499 74.8615 26.9521 74.66 27.2544 74.5088C27.5567 74.4081 27.9597 74.3577 28.3123 74.3577Z" fill="#231F20"/>
<path d="M69.3199 57.33C69.3199 56.1209 70.0756 55.1637 71.335 55.1637C72.4937 55.1637 73.2997 56.0705 73.2997 57.33C73.2997 58.5894 72.4937 59.4962 71.2846 59.4962C70.0756 59.4962 69.3199 58.539 69.3199 57.33ZM74.5088 51.5365H73.199V54.9118C72.6952 54.3073 71.9395 53.9547 71.1335 53.9547C69.3199 53.9547 67.9597 55.3652 67.9597 57.33C67.9597 59.2947 69.3199 60.7053 71.1335 60.7053C71.9395 60.7557 72.6952 60.403 73.199 59.7481V60.5038H74.5088V51.5365ZM56.3224 57.33C56.3224 56.1209 57.0781 55.1637 58.3375 55.1637C59.4962 55.1637 60.3023 56.0705 60.3023 57.33C60.3023 58.5894 59.5466 59.4962 58.3375 59.4962C57.0781 59.4962 56.3224 58.539 56.3224 57.33ZM61.5113 54.1058H60.2015V54.8615C59.6977 54.2569 58.9421 53.9043 58.136 53.9043C56.3224 53.9043 54.9622 55.3149 54.9622 57.2796C54.9622 59.2443 56.3224 60.6549 58.136 60.6549C58.9421 60.7053 59.6977 60.3527 60.2015 59.6977V60.4534H61.5113V54.1058ZM76.7254 60.0504V60.2015H76.8766C76.9269 60.2015 76.9269 60.2015 76.9773 60.2015L77.0277 60.1511C77.0277 60.1511 77.0277 60.1008 76.9773 60.1008C76.9773 60.1008 76.9269 60.1008 76.8766 60.1008L76.7254 60.0504ZM76.8766 59.9496C76.9269 59.9496 76.9773 59.9496 77.0277 60C77.0781 60.0504 77.0781 60.1008 77.0781 60.1511C77.0781 60.2015 77.0781 60.2519 77.0277 60.2519C76.9773 60.3023 76.9269 60.3023 76.8766 60.3023L77.0781 60.5038H76.9269L76.7254 60.3023H76.6751V60.5038H76.5239V59.8992L76.8766 59.9496ZM76.8262 60.7557C76.8766 60.7557 76.9773 60.7557 77.0277 60.7053C77.0781 60.6549 77.1285 60.6549 77.1788 60.6045C77.2292 60.5542 77.2796 60.5038 77.2796 60.4534C77.33 60.403 77.33 60.3023 77.33 60.2519C77.33 60.2015 77.33 60.1008 77.2796 60.0504C77.2796 60 77.2292 59.9496 77.1788 59.8992C77.1285 59.8489 77.0781 59.7985 77.0277 59.7985C76.9773 59.7481 76.9269 59.7481 76.8262 59.7481C76.7758 59.7481 76.675 59.7481 76.6247 59.7985C76.5743 59.7985 76.5239 59.8489 76.4735 59.8992C76.4232 59.9496 76.3728 60 76.3728 60.0504C76.3224 60.1008 76.3224 60.2015 76.3224 60.2519C76.3224 60.3023 76.3224 60.403 76.3728 60.4534C76.3728 60.5038 76.4232 60.5542 76.4735 60.6045C76.5239 60.6549 76.5743 60.7053 76.6247 60.7053C76.7254 60.7053 76.7758 60.7557 76.8262 60.7557ZM76.8262 59.597C76.9269 59.597 76.9773 59.597 77.0781 59.6474C77.1788 59.6977 77.2292 59.7481 77.2796 59.7985C77.33 59.8489 77.3803 59.9496 77.4307 60C77.4811 60.1008 77.4811 60.1511 77.4811 60.2519C77.4811 60.3526 77.4811 60.403 77.4307 60.5038C77.3803 60.5542 77.33 60.6549 77.2796 60.7053C77.2292 60.7557 77.1284 60.806 77.0781 60.8564C76.9773 60.9068 76.9269 60.9068 76.8262 60.9068C76.7254 60.9068 76.6751 60.9068 76.5743 60.8564C76.4735 60.806 76.4232 60.7557 76.3728 60.7053C76.3224 60.6549 76.272 60.5542 76.2217 60.5038C76.1713 60.403 76.1713 60.3526 76.1713 60.2519C76.1713 60.1511 76.1713 60.1008 76.2217 60C76.272 59.9496 76.3224 59.8489 76.3728 59.7985C76.4232 59.7481 76.5239 59.6977 76.5743 59.6474C76.6751 59.597 76.7254 59.597 76.8262 59.597ZM66.4483 53.9547C65.7431 53.9547 65.0881 54.3073 64.6851 54.9118V54.1058H63.4257V60.5542H64.7355V56.927C64.7355 55.869 65.2393 55.1637 66.1461 55.1637C66.4484 55.1637 66.7506 55.2141 67.0025 55.3149L67.4559 54.1058C67.1536 54.005 66.801 53.9547 66.4483 53.9547ZM16.8262 57.33C16.8262 56.1209 17.5819 55.1637 18.8413 55.1637C20 55.1637 20.806 56.0705 20.806 57.33C20.806 58.5894 20.0504 59.4962 18.8413 59.4962C17.6322 59.4962 16.8262 58.539 16.8262 57.33ZM22.0655 54.1058H20.7557V54.8615C20.2519 54.2569 19.4962 53.9043 18.6902 53.9043C16.8766 53.9043 15.5164 55.3149 15.5164 57.2796C15.5164 59.2443 16.8766 60.6549 18.6902 60.6549C19.4962 60.7053 20.2519 60.3527 20.7557 59.6977V60.4534H22.0655V54.1058ZM39.4458 55.1637C40.3526 55.1134 41.1083 55.8186 41.1587 56.7254V56.7758H37.6826C37.733 55.8186 38.539 55.1134 39.4458 55.1637ZM39.4962 53.9547C37.6322 53.9547 36.3224 55.3149 36.3224 57.33C36.3224 59.3955 37.6826 60.7053 39.597 60.7053C40.5542 60.7557 41.5113 60.403 42.2166 59.7985L41.5113 58.8413C40.9572 59.2443 40.3023 59.4962 39.6474 59.4962C38.6398 59.5466 37.7834 58.8413 37.6826 57.8338H42.4685C42.4685 57.6826 42.5189 57.4811 42.5189 57.2796C42.4685 55.3149 41.2594 53.9547 39.4962 53.9547ZM48.5139 57.33C48.4131 59.0932 49.7733 60.6045 51.5365 60.7053C51.6373 60.7053 51.7884 60.7053 51.8892 60.7053C52.7456 60.7557 53.5516 60.4534 54.2065 59.9496L53.5516 58.9421C53.0479 59.2947 52.4937 59.4962 51.8892 59.4962C50.7809 59.4962 49.8741 58.539 49.8741 57.4307C49.8741 57.3804 49.8741 57.3804 49.8741 57.33C49.7733 56.2217 50.6297 55.2141 51.738 55.1637C51.7884 55.1637 51.7884 55.1637 51.8388 55.1637C52.4433 55.1637 53.0479 55.3652 53.5013 55.7179L54.1562 54.7103C53.5013 54.1562 52.6952 53.9043 51.8388 53.9547C50.0756 53.8539 48.5642 55.2141 48.4635 56.9773C48.5138 57.0781 48.5139 57.2292 48.5139 57.33ZM29.0176 54.6096C28.2116 54.1562 27.3048 53.9043 26.398 53.9547C24.7859 53.9547 23.7783 54.7103 23.7783 56.0202C23.7783 57.0781 24.4836 57.6826 25.9446 57.8841L26.5995 57.9849C27.3552 58.0856 27.7582 58.3375 27.7582 58.7406C27.7582 59.2443 27.204 59.5466 26.2468 59.5466C25.4912 59.597 24.7355 59.3451 24.131 58.8917L23.4761 59.8992C24.2821 60.4534 25.2897 60.7557 26.2468 60.7557C28.1108 60.7557 29.1184 59.8992 29.1184 58.6902C29.1184 57.5819 28.3627 56.9773 26.9018 56.7758L26.2468 56.6751C25.6423 56.5743 25.0882 56.4232 25.0882 55.9698C25.0882 55.5164 25.5919 55.1637 26.3476 55.1637C27.0529 55.1637 27.7582 55.3652 28.3627 55.7179L29.0176 54.6096ZM47.0529 53.9547C46.3476 53.9547 45.6927 54.3073 45.2897 54.9118V54.1058H44.0302V60.5542H45.34V56.927C45.34 55.869 45.8438 55.1637 46.7506 55.1637C47.0529 55.1637 47.3552 55.2141 47.607 55.3149L48.0604 54.1058C47.7078 54.005 47.4055 53.9547 47.0529 53.9547ZM35.1133 54.1058H32.796V52.1411H31.4861V54.1058H30.1259V55.2645H31.4861V58.2872C31.4861 59.7985 31.9899 60.6549 33.6524 60.6549C34.2569 60.6549 34.8615 60.5038 35.4156 60.1511L35.0126 58.9924C34.6599 59.194 34.2065 59.3451 33.7531 59.3451C33.0479 59.3451 32.796 58.8917 32.796 58.2872V55.2141H35.1133V54.1058ZM14.1562 60.5542V56.5239C14.1562 55.0126 13.2494 54.005 11.6877 54.005C10.7809 53.9547 9.92443 54.4081 9.42065 55.1637C8.96725 54.4081 8.16121 54.005 7.30478 54.005C6.54912 53.9547 5.79345 54.3073 5.39043 54.9622V54.1562H4.0806V60.6045H5.39043V56.927C5.28967 56.0705 5.89421 55.3149 6.75063 55.2141C6.85139 55.2141 6.90176 55.2141 7.00252 55.2141C7.90932 55.2141 8.46347 55.8186 8.46347 56.927V60.6045H9.7733V56.927C9.67254 56.0705 10.3275 55.3149 11.1839 55.2141C11.2846 55.2141 11.335 55.2141 11.4358 55.2141C12.3929 55.2141 12.8967 55.8186 12.8967 56.927V60.6045L14.1562 60.5542Z" fill="#231F20"/>
<path d="M49.7229 43.2242H28.5642V5.18892H49.7229V43.2242Z" fill="#F1511B"/>
<path d="M29.9244 24.1814C29.9244 16.7758 33.2997 9.7733 39.1436 5.18892C34.8615 1.8136 29.6222 0 24.1814 0C10.8312 0 0 10.8312 0 24.1814C0 37.5315 10.8312 48.3627 24.1814 48.3627C29.6222 48.3627 34.8615 46.5491 39.1436 43.1738C33.2997 38.6398 29.9244 31.6373 29.9244 24.1814Z" fill="#E71F22"/>
<path d="M77.5315 39.194V38.2368H77.2796L76.9773 38.8917L76.6751 38.2368H76.4232V39.194H76.5743V38.4887L76.8262 39.0932H77.0277L77.2796 38.4887V39.194H77.5315ZM75.9698 39.194V38.4383H76.272V38.2872H75.466V38.4383H75.7683V39.194H75.9698Z" fill="#F79410"/>
<path d="M78.2871 24.1814C78.2871 37.5315 67.4559 48.3627 54.1058 48.3627C48.665 48.3627 43.4257 46.5491 39.1436 43.1738C44.9874 38.5894 48.3627 31.5869 48.3627 24.1814C48.3627 16.7758 44.9874 9.7733 39.1436 5.18892C43.3753 1.8136 48.665 7.11275e-07 54.1058 7.11275e-07C67.4559 7.11275e-07 78.2871 10.8312 78.2871 24.1814Z" fill="#F79410"/>
</g>
<defs>
<clipPath id="clip0_1801_20125">
<rect width="78.2871" height="80.1008" rx="8" fill="white"/>
</clipPath>
</defs>
</svg>
