<svg width="80" height="66" viewBox="0 0 80 66" fill="none" xmlns="http://www.w3.org/2000/svg">
<g clip-path="url(#clip0_1801_20134)">
<path d="M27.3691 58.3379C27.8224 58.3201 28.2758 58.4179 28.6847 58.6134C29.0491 58.7734 29.3691 59.0223 29.618 59.3245V55.2179H30.7024V64.8179H29.6002V63.9734C29.3424 64.2756 29.0224 64.5245 28.6669 64.6845C28.258 64.8801 27.8047 64.9779 27.3513 64.9601C26.5069 64.969 25.6891 64.6312 25.1024 64.0268C24.818 63.7245 24.5958 63.369 24.4447 62.9868C24.1158 62.1423 24.1158 61.2001 24.4447 60.3556C24.5958 59.9645 24.818 59.6179 25.1024 59.3157C25.3869 59.0223 25.7247 58.7912 26.1069 58.6312C26.4891 58.4534 26.9247 58.3557 27.3691 58.3379ZM27.4847 59.369C27.1824 59.3601 26.8802 59.4223 26.6047 59.5379C26.3469 59.6534 26.1069 59.8223 25.9024 60.0268C25.7158 60.2401 25.5647 60.489 25.4669 60.7556C25.2536 61.3245 25.2536 61.9557 25.4669 62.5245C25.7869 63.3512 26.5958 63.8756 27.4847 63.8401C27.7869 63.849 28.0891 63.7868 28.3647 63.6712C28.6224 63.5645 28.8536 63.3956 29.0491 63.2001C29.2447 62.9868 29.3958 62.7468 29.4936 62.4712C29.6002 62.1868 29.6536 61.8845 29.6536 61.5734C29.6358 61.289 29.5736 61.0045 29.458 60.7468C29.3513 60.4801 29.2002 60.2312 29.0136 60.0179C28.818 59.8223 28.5869 59.6623 28.3291 59.5468C28.0624 59.4223 27.778 59.369 27.4847 59.369ZM35.5202 58.3379C35.9291 58.3379 36.338 58.4179 36.7202 58.5779C37.0669 58.7468 37.3869 58.969 37.6536 59.2534C37.9202 59.5557 38.1336 59.9112 38.258 60.2934C38.418 60.7112 38.498 61.1645 38.498 61.609C38.5069 61.6801 38.5069 61.7512 38.498 61.8223V62.0179H33.5202C33.5469 62.3201 33.6358 62.6045 33.7691 62.8712C33.8847 63.1112 34.0447 63.3157 34.2402 63.4934C34.4269 63.6534 34.6491 63.769 34.8891 63.849C35.138 63.929 35.4047 63.9645 35.6624 63.9645C36.018 63.9645 36.3736 63.9023 36.7024 63.769C37.0313 63.6357 37.3336 63.449 37.6002 63.2179L38.178 63.9645C37.9913 64.1334 37.7869 64.2934 37.5736 64.4268C37.3691 64.5423 37.1647 64.6401 36.9424 64.7201C36.7291 64.8001 36.498 64.8534 36.2669 64.8801C36.0358 64.8979 35.8136 64.8979 35.5824 64.8801C35.1291 64.889 34.6847 64.809 34.2669 64.6401C33.8936 64.489 33.5469 64.2579 33.2624 63.9645C32.9691 63.6623 32.738 63.3157 32.5869 62.9245C32.4269 62.5068 32.3469 62.0534 32.3469 61.609C32.3469 61.1557 32.4269 60.7112 32.5869 60.2934C32.738 59.9023 32.9602 59.5557 33.2447 59.2534C33.5202 58.9601 33.858 58.7379 34.2313 58.5779C34.6491 58.409 35.0847 58.329 35.5202 58.3379ZM35.5202 59.2979C35.2624 59.2979 34.9958 59.3512 34.7558 59.4401C34.5336 59.5201 34.338 59.6534 34.178 59.8223C34.0091 59.9823 33.8669 60.1779 33.7691 60.3912C33.6536 60.6223 33.5736 60.8801 33.5469 61.1379H37.3691C37.3336 60.8712 37.2624 60.6134 37.1558 60.3734C37.058 60.1601 36.9247 59.9645 36.7647 59.7956C36.5958 59.6445 36.4091 59.5201 36.1958 59.4312C35.9736 59.3512 35.7424 59.3068 35.5113 59.2979H35.5202ZM43.5291 58.3379C43.9558 58.3379 44.3736 58.4268 44.7647 58.5868C45.138 58.7468 45.4847 58.9779 45.7691 59.2712C46.0536 59.5734 46.2847 59.929 46.4447 60.3112C46.9602 61.5645 46.7024 63.0045 45.7691 63.9823C45.4847 64.2668 45.138 64.5068 44.7647 64.6668C44.3736 64.8356 43.9558 64.9157 43.5291 64.9157C43.0758 64.9245 42.6224 64.8356 42.2136 64.6401C41.858 64.4712 41.538 64.2312 41.2891 63.929V64.809H40.2047V55.209H41.3069V59.3068C41.5647 59.0134 41.8758 58.7734 42.2313 58.6045C42.6313 58.4179 43.0669 58.3201 43.5113 58.329H43.5291V58.3379ZM43.3958 59.369C43.0936 59.3601 42.8002 59.4223 42.5247 59.5379C42.2669 59.6534 42.0358 59.8134 41.8402 60.009C41.6447 60.2223 41.4936 60.4712 41.3958 60.7379C41.2891 61.0223 41.2358 61.3245 41.2358 61.6357C41.2358 61.9379 41.2891 62.249 41.3958 62.5334C41.4936 62.8001 41.6536 63.049 41.8402 63.2623C42.0358 63.4668 42.2669 63.6268 42.5247 63.7334C42.8002 63.849 43.0936 63.9112 43.3958 63.9023C43.9913 63.9201 44.5691 63.6801 44.978 63.2445C45.1736 63.0312 45.3158 62.7912 45.4136 62.5157C45.6269 61.9468 45.6269 61.3157 45.4136 60.7468C45.3158 60.4801 45.1647 60.2312 44.9691 60.0179C44.7824 59.8134 44.5513 59.6445 44.2936 59.529C44.0091 59.4045 43.698 59.3512 43.3869 59.3601H43.3958V59.369ZM48.9336 55.4134C49.0491 55.449 49.1469 55.5112 49.2269 55.6001C49.4136 55.6712 49.5647 55.8134 49.6358 56.009C49.7247 56.2045 49.7247 56.4268 49.6358 56.6134C49.6002 56.7023 49.5469 56.7823 49.4758 56.8534C49.3958 56.889 49.3158 56.9068 49.2269 56.9157C49.0313 56.9868 48.818 56.9868 48.6224 56.9157C48.4447 56.8445 48.3024 56.7023 48.2313 56.5245C48.1424 56.329 48.1424 56.1068 48.2313 55.9201C48.2669 55.8312 48.3202 55.7423 48.3913 55.6712C48.4624 55.6001 48.5424 55.5468 48.6313 55.5112C48.7291 55.4756 48.8358 55.4668 48.9336 55.4845V55.4134ZM49.4669 64.8179H48.3824V58.4712H49.4669V64.8179ZM55.938 59.5556H53.3069V62.6223C53.298 62.8356 53.3336 63.0401 53.3958 63.2445C53.4491 63.3956 53.538 63.5468 53.6447 63.6623C53.7513 63.769 53.8758 63.849 54.0091 63.9023C54.1602 63.9557 54.3202 63.9823 54.4802 63.9823C54.7113 63.9823 54.9424 63.9468 55.1647 63.8668C55.3958 63.7868 55.6091 63.6623 55.7958 63.5112L56.3113 64.329C56.0536 64.5156 55.778 64.6668 55.4847 64.7734C55.1469 64.8979 54.7824 64.9601 54.418 64.9601C54.1069 64.9601 53.8047 64.9156 53.5113 64.8179C53.2536 64.7201 53.0224 64.5779 52.8269 64.3823C52.6224 64.1779 52.4802 63.9201 52.3913 63.6445C52.2847 63.3068 52.2313 62.9601 52.2491 62.6045V59.4845H50.9336V58.4801H52.2491V56.5068H53.3336V58.4801H55.9647L55.938 59.5556Z" fill="black"/>
<path d="M50.2669 5.49341H29.6357V42.5601H50.2669V5.49341Z" fill="#FF5F00"/>
<path d="M31.0046 23.9911C31.0223 16.7911 34.3379 9.99112 40.0001 5.54668C29.7423 -2.4711 14.9246 -0.666658 6.90678 9.59112C-1.11099 19.8489 0.69345 34.6667 10.9512 42.6845C15.0846 45.92 20.1868 47.68 25.4312 47.6889C30.729 47.6711 35.8668 45.8667 40.0001 42.5511C34.3023 38.0889 30.9868 31.2356 31.0046 23.9911Z" fill="#EB001B"/>
<path d="M75.8935 38.64V37.8756H76.2135V37.7334H75.4224V37.8756H75.7335V38.64H75.8935ZM77.4046 38.64V37.7156H77.1735L76.8801 38.3467L76.6046 37.7156H76.3646V38.64H76.5335V37.9467L76.8001 38.5422H76.969L77.2179 37.9378V38.64H77.4046Z" fill="#F79E1B"/>
<path d="M54.5689 0.45338C49.28 0.462269 44.1422 2.25782 40 5.54671C50.2222 13.6 51.9733 28.4178 43.92 38.64C42.7733 40.0978 41.4578 41.4134 40 42.56C50.2578 50.5778 65.0756 48.7734 73.0933 38.5156C81.1111 28.2578 79.3067 13.44 69.0489 5.41338C64.9156 2.18671 59.8222 0.417824 54.5689 0.408936" fill="#F79E1B"/>
</g>
<defs>
<clipPath id="clip0_1801_20134">
<rect width="80" height="65.1467" rx="8" fill="white"/>
</clipPath>
</defs>
</svg>
