<svg width="80" height="62" viewBox="0 0 80 62" fill="none" xmlns="http://www.w3.org/2000/svg">
<g clip-path="url(#clip0_1801_18934)">
<g clip-path="url(#clip1_1801_18934)">
<mask id="mask0_1801_18934" style="mask-type:luminance" maskUnits="userSpaceOnUse" x="-308" y="-176" width="406" height="256">
<path d="M-300.292 -175.928C-304.435 -175.928 -307.795 -172.568 -307.795 -168.424V71.6958C-307.795 75.8396 -304.435 79.1996 -300.292 79.1996H89.9033C94.047 79.1996 97.407 75.8396 97.407 71.6958V-168.424C97.407 -172.568 94.047 -175.928 89.9033 -175.928H-300.292Z" fill="white"/>
</mask>
<g mask="url(#mask0_1801_18934)">
<path d="M74.4106 59.2581C74.0738 59.7867 73.5002 60.1152 72.8081 60.1152C71.6659 60.1152 70.8672 59.2798 70.8672 58.0825C70.8672 57.3188 71.1923 56.7035 71.7226 56.3566C71.9944 56.2166 72.3096 56.1349 72.6697 56.1349C73.8503 56.1349 74.6474 57.0336 74.6474 58.2192C74.6474 58.6011 74.5623 58.9546 74.4106 59.2581ZM74.6541 52.1612L74.564 52.348V55.3845C74.0804 54.8809 73.4184 54.6124 72.6297 54.6124C71.3891 54.6124 70.3519 55.2494 69.78 56.2383C69.4181 56.7869 69.208 57.4622 69.208 58.2192C69.208 60.2069 70.6504 61.6393 72.4913 61.6393C73.0816 61.6393 73.5735 61.4909 73.9704 61.2341C74.1905 61.114 74.3889 60.9606 74.564 60.7789V61.4742H75.9931L76.1815 61.3875V52.1612H74.6541Z" fill="#7B7979"/>
<path d="M11.9558 54.6122H11.8924C10.9203 54.6122 10.1666 54.9891 9.64798 55.7295C9.16107 54.9974 8.41236 54.6122 7.47689 54.6122C6.66482 54.6122 6.06786 54.8874 5.60429 55.4777V54.7773H4.07519L3.98682 54.9641V61.474H5.4292L5.61763 61.3873V57.7271C5.61763 57.0801 5.8294 56.6049 6.2146 56.3264C6.44638 56.2047 6.71985 56.1347 7.03667 56.1347C7.98381 56.1347 8.46405 56.7483 8.46405 57.8505V61.474H9.90644L10.0965 61.3873V57.7271C10.0965 57.0735 10.3216 56.5849 10.7268 56.3081C10.952 56.193 11.2204 56.1347 11.5122 56.1347C12.4877 56.1347 12.9563 56.7483 12.9563 57.8505V61.474H14.397L14.5871 61.3873V57.2502C14.5871 55.6628 13.5533 54.6272 11.9558 54.6122Z" fill="#7B7979"/>
<path d="M48.0594 54.6122C47.3474 54.6122 46.7955 54.8874 46.3803 55.4543V54.7773H44.8645L44.7761 54.9641V61.474H46.2052L46.3936 61.3873V57.6871C46.3936 57.0218 46.5754 56.5532 46.9272 56.2964C46.9372 56.2914 46.9455 56.2847 46.9555 56.2797C46.9672 56.2714 46.9822 56.2664 46.9922 56.2597C47.169 56.1864 47.3724 56.1497 47.6059 56.1497C47.8927 56.1497 48.1962 56.1897 48.498 56.3131L48.6681 56.2431L49.1383 54.8107L49.0949 54.7923C48.7514 54.6589 48.3229 54.6122 48.0594 54.6122Z" fill="#7B7979"/>
<path d="M39.3197 56.2617C39.5565 56.14 39.835 56.0683 40.1618 56.0683C41.0223 56.0683 41.5875 56.5719 41.7843 57.459H38.6161C38.7161 56.9104 38.9596 56.5085 39.3197 56.2617ZM40.3269 54.6126C39.0613 54.6126 38.0441 55.2145 37.4838 56.1934C37.1253 56.7436 36.9219 57.4323 36.9219 58.2194C36.9219 60.2904 38.3209 61.6394 40.2852 61.6394C41.0773 61.6394 41.8127 61.4777 42.4847 61.0725C42.7181 60.9491 42.9399 60.8007 43.1483 60.6256L43.1817 60.5972L42.4263 59.465L42.3846 59.4983C41.8477 59.9252 41.1623 60.1703 40.507 60.1703C39.9167 60.1703 38.9129 59.9802 38.6261 58.7646H43.2784L43.4651 58.6763L43.4685 58.6296C43.4818 58.4545 43.4968 58.2744 43.4968 58.081C43.4818 56.0066 42.2078 54.6126 40.3269 54.6126Z" fill="#7B7979"/>
<path d="M27.5217 57.3773L26.848 57.2822C26.1877 57.1972 25.7792 57.0655 25.7792 56.6919C25.7792 56.4935 25.8742 56.3334 26.0376 56.2134C26.2427 56.12 26.5129 56.0683 26.8397 56.0683C27.6785 56.0683 28.4872 56.3801 28.8857 56.6269L29.0441 56.5585L29.7095 55.3279L29.6711 55.3029C28.9925 54.8577 28.032 54.6126 26.9648 54.6126C25.6775 54.6126 24.7553 55.0728 24.3751 55.8582C24.1934 56.15 24.0933 56.4935 24.0933 56.8837C24.0933 57.9476 24.8904 58.5996 26.3595 58.8047L27.0315 58.8997C27.8152 59.0098 28.1854 59.2149 28.1854 59.5817C28.1854 59.6601 28.1687 59.7318 28.142 59.8002C27.9369 60.0486 27.49 60.1837 26.828 60.1837C25.7725 60.1837 25.0738 59.8185 24.6753 59.5133L24.6303 59.4783L23.9032 60.6706L23.9066 60.6723L23.8315 60.794C24.6153 61.3659 25.6041 61.6394 26.6746 61.6394C27.5434 61.6394 28.2404 61.451 28.744 61.1308C29.4493 60.754 29.8579 60.1453 29.8579 59.3749C29.8579 58.2727 29.0725 57.6007 27.5217 57.3773Z" fill="#7B7979"/>
<path d="M67.9048 54.6122C67.1912 54.6122 66.6409 54.8874 66.2257 55.4543V54.7773H64.7099L64.6199 54.9641V61.474H66.0506L66.239 61.3873V57.6871C66.239 57.0218 66.4208 56.5532 66.7726 56.2964C66.7826 56.2914 66.791 56.2847 66.801 56.2797C66.8126 56.2714 66.8276 56.2664 66.8376 56.2597C67.0127 56.1864 67.2178 56.1497 67.4513 56.1497C67.7381 56.1497 68.0416 56.1897 68.3434 56.3131L68.5118 56.2431L68.9837 54.8107L68.9404 54.7923C68.5969 54.6589 68.1683 54.6122 67.9048 54.6122Z" fill="#7B7979"/>
<path d="M35.7291 59.7401C35.3372 59.9669 34.8737 60.102 34.4918 60.102C33.8798 60.102 33.5947 59.7718 33.5947 59.0631V56.2584H35.7391L35.9292 56.17V54.776H33.5947V52.8017H32.0506L31.9622 52.9884V54.776H30.7183L30.6299 54.9644V56.2584H31.9622V59.2265C31.9622 60.7406 32.5542 61.6394 34.2417 61.6394C34.8286 61.6394 35.5006 61.4643 35.9559 61.1792C36.0409 61.1342 36.1226 61.0891 36.196 61.0374L36.2277 61.0174L35.7825 59.7101L35.7291 59.7401Z" fill="#7B7979"/>
<path d="M51.9236 56.3432C52.1904 56.2131 52.4939 56.1397 52.824 56.1347C53.441 56.1347 54.0046 56.3398 54.5399 56.7217L54.695 56.655L55.432 55.4261L55.397 55.401C54.6733 54.8341 54.003 54.6123 53.0041 54.6123C51.6168 54.6123 50.5112 55.241 49.9226 56.2581C49.5607 56.8034 49.3623 57.4737 49.3623 58.2191C49.3623 60.1951 50.7497 61.6392 52.8641 61.6392C53.6561 61.6392 54.2364 61.4958 54.8034 61.1539C55.0035 61.0472 55.1986 60.9188 55.397 60.7621L55.432 60.737L54.695 59.5064L54.6499 59.5398C54.1063 59.9266 53.5544 60.1151 52.9641 60.1151C51.8285 60.1017 51.0365 59.2663 51.0365 58.0824C51.0365 57.3103 51.375 56.6867 51.9236 56.3432Z" fill="#7B7979"/>
<path d="M20.8616 59.2581C20.5264 59.7867 19.9511 60.1152 19.2608 60.1152C18.1169 60.1152 17.3198 59.2798 17.3198 58.0825C17.3198 57.3188 17.645 56.7035 18.1752 56.3566C18.447 56.2166 18.7622 56.1349 19.1207 56.1349C20.303 56.1349 21.1 57.0336 21.1 58.2192C21.1 58.6011 21.015 58.9546 20.8616 59.2581ZM21.0167 54.9643V55.3845C20.5331 54.8809 19.8711 54.6124 19.0824 54.6124C17.8417 54.6124 16.8045 55.2494 16.2326 56.2383C15.8707 56.7869 15.6606 57.4622 15.6606 58.2192C15.6606 60.2069 17.103 61.6393 18.944 61.6393C19.5342 61.6393 20.0262 61.4909 20.423 61.2341C20.6431 61.114 20.8399 60.9606 21.0167 60.7789V61.4742H22.444L22.6341 61.3875V54.7759H21.105L21.0167 54.9643Z" fill="#7B7979"/>
<path d="M61.1567 59.2581C60.8199 59.7867 60.2463 60.1152 59.5543 60.1152C58.412 60.1152 57.615 59.2798 57.615 58.0825C57.615 57.3188 57.9385 56.7052 58.4687 56.3583C58.7405 56.2166 59.0557 56.1349 59.4159 56.1349C60.5965 56.1349 61.3952 57.0336 61.3952 58.2192C61.3952 58.6028 61.3102 58.9546 61.1567 59.2581ZM61.3118 54.9643V55.3845C60.8282 54.8809 60.1646 54.6124 59.3775 54.6124C58.1369 54.6124 57.0997 55.2494 56.5261 56.2383C56.1659 56.7869 55.9558 57.4622 55.9558 58.2192C55.9558 60.2069 57.3965 61.6393 59.2374 61.6393C59.8294 61.6393 60.3213 61.4909 60.7165 61.2341C60.9366 61.114 61.1351 60.9606 61.3118 60.7789V61.4742H62.7392L62.9276 61.3875V54.7759H61.4002L61.3118 54.9643Z" fill="#7B7979"/>
</g>
<path d="M30.5637 24.5139C30.5637 38.029 41.6526 49.0278 55.2811 49.0278C68.9112 49.0278 80.0001 38.029 80.0001 24.5139C80.0001 10.9972 68.9112 -9.95401e-06 55.2811 -9.95401e-06C41.6526 -9.95401e-06 30.5637 10.9972 30.5637 24.5139Z" fill="url(#paint0_linear_1801_18934)"/>
<path d="M0 24.5139C0 38.029 11.0905 49.0278 24.719 49.0278C38.3475 49.0278 49.4363 38.029 49.4363 24.5139C49.4363 10.9972 38.3475 -9.95401e-06 24.719 -9.95401e-06C11.0905 -9.95401e-06 0 10.9972 0 24.5139Z" fill="url(#paint1_linear_1801_18934)"/>
<mask id="mask1_1801_18934" style="mask-type:luminance" maskUnits="userSpaceOnUse" x="-308" y="-176" width="406" height="256">
<path d="M-300.292 -175.928C-304.435 -175.928 -307.795 -172.568 -307.795 -168.424V71.6958C-307.795 75.8396 -304.435 79.1996 -300.292 79.1996H89.9033C94.047 79.1996 97.407 75.8396 97.407 71.6958V-168.424C97.407 -172.568 94.047 -175.928 89.9033 -175.928H-300.292Z" fill="white"/>
</mask>
<g mask="url(#mask1_1801_18934)">
<path d="M48.8525 24.5141C48.8525 16.9453 45.4125 10.1736 39.9998 5.64965C34.5871 10.1736 31.1487 16.9453 31.1487 24.5141C31.1487 32.0812 34.5871 38.8529 39.9998 43.3768C45.4125 38.8529 48.8525 32.0812 48.8525 24.5141Z" fill="#868484"/>
</g>
<path d="M30.5637 24.5139C30.5637 38.029 41.6526 49.0278 55.2811 49.0278C68.9112 49.0278 80.0001 38.029 80.0001 24.5139C80.0001 10.9972 68.9112 -9.95401e-06 55.2811 -9.95401e-06C41.6526 -9.95401e-06 30.5637 10.9972 30.5637 24.5139ZM31.5492 24.5139C31.5492 11.5141 42.1745 0.975514 55.2811 0.975514C68.3893 0.975514 79.0146 11.5141 79.0146 24.5139C79.0146 37.5121 68.3893 48.0507 55.2811 48.0507C42.1745 48.0507 31.5492 37.5121 31.5492 24.5139Z" fill="url(#paint2_linear_1801_18934)"/>
<mask id="mask2_1801_18934" style="mask-type:luminance" maskUnits="userSpaceOnUse" x="-308" y="-176" width="406" height="256">
<path d="M-300.292 -175.928C-304.435 -175.928 -307.795 -172.568 -307.795 -168.424V71.6958C-307.795 75.8396 -304.435 79.1996 -300.292 79.1996H89.9033C94.047 79.1996 97.407 75.8396 97.407 71.6958V-168.424C97.407 -172.568 94.047 -175.928 89.9033 -175.928H-300.292Z" fill="white"/>
</mask>
<g mask="url(#mask2_1801_18934)">
<mask id="mask3_1801_18934" style="mask-type:luminance" maskUnits="userSpaceOnUse" x="30" y="0" width="50" height="50">
<mask id="mask4_1801_18934" style="mask-type:luminance" maskUnits="userSpaceOnUse" x="30" y="0" width="50" height="50">
<path d="M30.5637 -9.95401e-06H79.9984V49.0278H30.5637V-9.95401e-06Z" fill="white"/>
</mask>
<g mask="url(#mask4_1801_18934)">
<path d="M30.5657 -9.95401e-06H80.0004V49.0278H30.5657V-9.95401e-06Z" fill="black"/>
<mask id="mask5_1801_18934" style="mask-type:luminance" maskUnits="userSpaceOnUse" x="30" y="0" width="51" height="50">
<path d="M30.5657 -9.95401e-06H80.0004V49.0278H30.5657V-9.95401e-06Z" fill="white"/>
</mask>
<g mask="url(#mask5_1801_18934)">
<path d="M30.5657 24.5139C30.5657 38.0307 41.6546 49.0278 55.283 49.0278C68.9132 49.0278 80.0004 38.0307 80.0004 24.5139C80.0004 10.9972 68.9132 -9.95401e-06 55.283 -9.95401e-06C41.6546 -9.95401e-06 30.5657 10.9972 30.5657 24.5139Z" fill="url(#paint3_linear_1801_18934)"/>
</g>
</g>
</mask>
<g mask="url(#mask3_1801_18934)">
<mask id="mask6_1801_18934" style="mask-type:luminance" maskUnits="userSpaceOnUse" x="30" y="0" width="50" height="50">
<path d="M30.5637 -9.95401e-06H79.9984V49.0278H30.5637V-9.95401e-06Z" fill="white"/>
</mask>
<g mask="url(#mask6_1801_18934)">
<path d="M30.5637 24.5139C30.5637 38.0307 41.6526 49.0278 55.2811 49.0278C68.8228 49.0278 79.8567 38.1707 79.9984 24.7757V24.2538C79.8567 10.8554 68.8228 -9.95401e-06 55.2811 -9.95401e-06C41.6526 -9.95401e-06 30.5637 10.9972 30.5637 24.5139ZM31.5492 24.5139C31.5492 11.5141 42.1745 0.975514 55.2811 0.975514C68.3893 0.975514 79.0146 11.5141 79.0146 24.5139C79.0146 37.5121 68.3893 48.0507 55.2811 48.0507C42.1745 48.0507 31.5492 37.5121 31.5492 24.5139Z" fill="url(#paint4_linear_1801_18934)"/>
</g>
</g>
<mask id="mask7_1801_18934" style="mask-type:luminance" maskUnits="userSpaceOnUse" x="30" y="0" width="50" height="50">
<mask id="mask8_1801_18934" style="mask-type:luminance" maskUnits="userSpaceOnUse" x="30" y="0" width="50" height="50">
<path d="M30.5637 -9.95401e-06H79.9984V49.0278H30.5637V-9.95401e-06Z" fill="white"/>
</mask>
<g mask="url(#mask8_1801_18934)">
<path d="M30.5657 -9.95401e-06H80.0004V49.0278H30.5657V-9.95401e-06Z" fill="black"/>
<mask id="mask9_1801_18934" style="mask-type:luminance" maskUnits="userSpaceOnUse" x="30" y="0" width="51" height="50">
<path d="M30.5657 -9.95401e-06H80.0004V49.0278H30.5657V-9.95401e-06Z" fill="white"/>
</mask>
<g mask="url(#mask9_1801_18934)">
<path d="M30.5657 24.5139C30.5657 38.0307 41.6546 49.0278 55.283 49.0278C68.9132 49.0278 80.0004 38.0307 80.0004 24.5139C80.0004 10.9972 68.9132 -9.95401e-06 55.283 -9.95401e-06C41.6546 -9.95401e-06 30.5657 10.9972 30.5657 24.5139Z" fill="url(#paint5_linear_1801_18934)"/>
</g>
</g>
</mask>
<g mask="url(#mask7_1801_18934)">
<mask id="mask10_1801_18934" style="mask-type:luminance" maskUnits="userSpaceOnUse" x="30" y="0" width="50" height="50">
<path d="M30.5637 -9.95401e-06H79.9984V49.0278H30.5637V-9.95401e-06Z" fill="white"/>
</mask>
<g mask="url(#mask10_1801_18934)">
<path d="M30.5637 24.5139C30.5637 38.0307 41.6526 49.0278 55.2811 49.0278C68.8228 49.0278 79.8567 38.1707 79.9984 24.7757V24.2538C79.8567 10.8554 68.8228 -9.95401e-06 55.2811 -9.95401e-06C41.6526 -9.95401e-06 30.5637 10.9972 30.5637 24.5139ZM31.5492 24.5139C31.5492 11.5141 42.1745 0.975514 55.2811 0.975514C68.3893 0.975514 79.0146 11.5141 79.0146 24.5139C79.0146 37.5121 68.3893 48.0507 55.2811 48.0507C42.1745 48.0507 31.5492 37.5121 31.5492 24.5139Z" fill="url(#paint6_linear_1801_18934)"/>
</g>
</g>
</g>
<path d="M14.3956 2.23943C2.01279 7.88225 -3.4316 22.4662 2.25958 34.7506C7.95242 47.0318 22.6564 52.4328 35.0409 46.7884C47.4238 41.1439 52.8699 26.5599 47.1787 14.2754C43.0199 5.30094 34.0455 0.00162729 24.6808 0.00162729C21.2324 0.00162729 17.7306 0.720337 14.3956 2.23943ZM3.15335 34.3421C-2.31938 22.5312 2.89823 8.55255 14.8092 3.12651C26.7185 -2.30287 40.8088 2.87306 46.2832 14.6856C51.7576 26.4965 46.54 40.4718 34.6291 45.8995C31.4191 47.3636 28.0491 48.0556 24.7325 48.0556C24.7308 48.0556 24.7291 48.0556 24.7275 48.0556C15.743 48.0556 7.15201 42.9681 3.15335 34.3421Z" fill="url(#paint7_linear_1801_18934)"/>
<mask id="mask11_1801_18934" style="mask-type:luminance" maskUnits="userSpaceOnUse" x="-308" y="-176" width="406" height="256">
<path d="M-300.292 -175.928C-304.435 -175.928 -307.795 -172.568 -307.795 -168.424V71.6958C-307.795 75.8396 -304.435 79.1996 -300.292 79.1996H89.9033C94.047 79.1996 97.407 75.8396 97.407 71.6958V-168.424C97.407 -172.568 94.047 -175.928 89.9033 -175.928H-300.292Z" fill="white"/>
</mask>
<g mask="url(#mask11_1801_18934)">
<mask id="mask12_1801_18934" style="mask-type:luminance" maskUnits="userSpaceOnUse" x="0" y="0" width="50" height="50">
<mask id="mask13_1801_18934" style="mask-type:luminance" maskUnits="userSpaceOnUse" x="0" y="0" width="50" height="50">
<path d="M0.00170898 -9.95401e-06H49.4364V49.0278H0.00170898V-9.95401e-06Z" fill="white"/>
</mask>
<g mask="url(#mask13_1801_18934)">
<path d="M0.00170898 -9.95401e-06H49.4364V49.0278H0.00170898V-9.95401e-06Z" fill="black"/>
<mask id="mask14_1801_18934" style="mask-type:luminance" maskUnits="userSpaceOnUse" x="0" y="0" width="50" height="50">
<path d="M0.00170898 -9.95401e-06H49.4364V49.0278H0.00170898V-9.95401e-06Z" fill="white"/>
</mask>
<g mask="url(#mask14_1801_18934)">
<path d="M5.16764 9.51471C-3.16986 20.2067 -1.18389 35.6344 9.5965 43.9036C20.3786 52.1744 35.933 50.2034 44.2705 39.5114C52.6097 28.8194 50.622 13.3917 39.8416 5.12256C35.351 1.67751 30.0284 0.00831335 24.7457 0.00831335C17.3504 0.00664585 10.0334 3.27659 5.16764 9.51471Z" fill="url(#paint8_linear_1801_18934)"/>
</g>
</g>
</mask>
<g mask="url(#mask12_1801_18934)">
<mask id="mask15_1801_18934" style="mask-type:luminance" maskUnits="userSpaceOnUse" x="0" y="0" width="50" height="50">
<path d="M0.00170898 -9.95401e-06H49.4364V49.0278H0.00170898V-9.95401e-06Z" fill="white"/>
</mask>
<g mask="url(#mask15_1801_18934)">
<path d="M0.00170898 24.5139C0.00170898 38.0307 11.0889 49.0278 24.7191 49.0278C38.3475 49.0278 49.4364 38.0307 49.4364 24.5139C49.4364 10.9972 38.3475 -9.95401e-06 24.7191 -9.95401e-06C11.0889 -9.95401e-06 0.00170898 10.9972 0.00170898 24.5139ZM0.985528 24.5139C0.985528 11.5141 11.6125 0.975514 24.7191 0.975514C37.8273 0.975514 48.4526 11.5141 48.4526 24.5139C48.4526 37.5121 37.8273 48.0507 24.7191 48.0507C11.6125 48.0507 0.985528 37.5121 0.985528 24.5139Z" fill="url(#paint9_linear_1801_18934)"/>
</g>
</g>
</g>
<path d="M74.7039 52.2112V55.6162C74.2487 55.0292 73.5633 54.6624 72.6295 54.6624C70.7886 54.6624 69.3479 56.0931 69.3479 58.0807C69.3479 60.0717 70.7886 61.4991 72.6295 61.4991C73.5633 61.4991 74.2487 61.1323 74.7039 60.547V61.3374H76.1329V58.0807V52.2128L76.1313 52.2112H74.7039ZM70.8169 58.0807C70.8169 56.9368 71.5723 55.998 72.8079 55.998C73.9885 55.998 74.7839 56.8968 74.7839 58.0807C74.7839 59.2663 73.9885 60.1651 72.8079 60.1651C71.5723 60.1651 70.8169 59.2263 70.8169 58.0807ZM32.1009 52.8532V54.8258H30.7686V56.1198H32.1009V59.0896C32.1009 60.6004 32.6912 61.4991 34.3804 61.4991C34.9991 61.4991 35.7127 61.309 36.168 60.9956L35.7544 59.7849C35.3275 60.0301 34.8623 60.1518 34.4905 60.1518C33.7768 60.1518 33.5433 59.7149 33.5433 59.0629V56.1198H35.8795V54.8258H33.5433V52.8532H32.1009ZM66.1746 55.6162V54.8258H64.7606V61.3374H66.188V57.6855C66.188 56.61 66.6565 56.0114 67.5887 56.0114C67.8772 56.0114 68.1806 56.0514 68.4808 56.1748L68.921 54.8391C68.6042 54.7174 68.194 54.6624 67.9055 54.6624C67.0818 54.6624 66.5448 55.0442 66.1746 55.6162ZM56.0946 58.0807C56.0946 60.0717 57.537 61.4991 59.3762 61.4991C60.31 61.4991 60.9971 61.1323 61.4506 60.547V61.3374H62.878V58.0807V54.8258H61.4506V55.6162C60.9971 55.0292 60.31 54.6624 59.3762 54.6624C57.537 54.6624 56.0946 56.0931 56.0946 58.0807ZM57.5653 58.0807C57.5653 56.9368 58.319 55.998 59.5546 55.998C60.7352 55.998 61.5323 56.8968 61.5323 58.0807C61.5323 59.2663 60.7352 60.1651 59.5546 60.1651C58.319 60.1651 57.5653 59.2263 57.5653 58.0807ZM49.5013 58.0807C49.5013 60.0567 50.8903 61.4991 53.0047 61.4991C53.9936 61.4991 54.6522 61.2824 55.3659 60.7238L54.6789 59.5799C54.1453 59.9617 53.5817 60.1651 52.9614 60.1651C51.8225 60.1518 50.9854 59.3347 50.9854 58.0807C50.9854 56.8284 51.8225 56.0114 52.9614 55.998C53.5817 55.998 54.1453 56.2015 54.6789 56.585L55.3659 55.4394C54.6522 54.8808 53.9936 54.6624 53.0047 54.6624C50.8903 54.6624 49.5013 56.1081 49.5013 58.0807ZM46.3297 55.6162V54.8258H44.9157V61.3374H46.343V57.6855C46.343 56.61 46.8099 56.0114 47.7437 56.0114C48.0339 56.0114 48.3341 56.0514 48.6375 56.1748L49.0761 54.8391C48.7609 54.7174 48.3474 54.6624 48.0589 54.6624C47.2352 54.6624 46.6999 55.0442 46.3297 55.6162ZM37.0584 58.0807C37.0584 60.1518 38.4608 61.4991 40.4234 61.4991C41.4122 61.4991 42.3194 61.2557 43.1164 60.5887L42.4144 59.5382C41.8675 59.9751 41.1655 60.2219 40.5051 60.2219C39.5863 60.2219 38.7493 59.7966 38.5425 58.6261H43.4183C43.4316 58.4493 43.4466 58.2725 43.4466 58.0807C43.4316 56.0514 42.1676 54.6624 40.3267 54.6624C38.4057 54.6624 37.0584 56.0514 37.0584 58.0807ZM40.3 55.9297C41.2205 55.9297 41.8124 56.5 41.9625 57.5088H38.5558C38.7059 56.57 39.2845 55.9297 40.3 55.9297ZM24.232 56.7468C24.232 57.809 25.0291 58.4643 26.4981 58.6661L27.1718 58.7628C27.9539 58.8712 28.324 59.0763 28.324 59.4431C28.324 59.9467 27.8038 60.2335 26.8283 60.2335C25.8395 60.2335 25.1241 59.9217 24.6439 59.5532L23.9719 60.6554C24.7539 61.229 25.7427 61.4991 26.8133 61.4991C28.7092 61.4991 29.8081 60.6137 29.8081 59.3747C29.8081 58.2308 28.9427 57.6322 27.5153 57.4288L26.8416 57.3321C26.223 57.2504 25.7278 57.1286 25.7278 56.6918C25.7278 56.2165 26.1963 55.9297 26.98 55.9297C27.8171 55.9297 28.6275 56.2432 29.0261 56.4883L29.643 55.3444C28.956 54.8942 28.0089 54.6624 26.965 54.6624C25.3025 54.6624 24.232 55.4511 24.232 56.7468ZM15.8011 58.0807C15.8011 60.0717 17.2418 61.4991 19.0811 61.4991C20.0166 61.4991 20.7019 61.1323 21.1571 60.547V61.3374H22.5845V58.0807V54.8258H21.1571V55.6162C20.7019 55.0292 20.0166 54.6624 19.0811 54.6624C17.2418 54.6624 15.8011 56.0931 15.8011 58.0807ZM17.2702 58.0807C17.2702 56.9368 18.0256 55.998 19.2612 55.998C20.4401 55.998 21.2372 56.8968 21.2372 58.0807C21.2372 59.2663 20.4401 60.1651 19.2612 60.1651C18.0256 60.1651 17.2702 59.2263 17.2702 58.0807ZM11.8925 54.6624C11.0754 54.6624 10.2367 54.9309 9.64637 55.8213C9.19448 55.0993 8.47913 54.6624 7.47696 54.6624C6.77495 54.6624 6.09127 54.8675 5.55434 55.6296V54.8258H4.12695V61.3374H5.56767V57.7273C5.56767 56.5967 6.19798 55.998 7.17347 55.998C8.12228 55.998 8.60253 56.61 8.60253 57.7156V61.3374H10.0449V57.7273C10.0449 56.5967 10.7052 55.998 11.6524 55.998C12.6262 55.998 13.0931 56.61 13.0931 57.7156V61.3374H14.5371V57.2503C14.5371 55.7112 13.5467 54.6757 11.9542 54.6624H11.8925Z" fill="url(#paint10_linear_1801_18934)"/>
</g>
</g>
<defs>
<linearGradient id="paint0_linear_1801_18934" x1="35.0957" y1="38.6477" x2="75.4677" y2="10.379" gradientUnits="userSpaceOnUse">
<stop stop-color="#C8C7C7"/>
<stop offset="0.14739" stop-color="#C8C7C7"/>
<stop offset="0.180923" stop-color="#C8C7C7"/>
<stop offset="0.522242" stop-color="#B2B1B1"/>
<stop offset="0.78538" stop-color="#B2B1B1"/>
<stop offset="1" stop-color="#C8C7C7"/>
</linearGradient>
<linearGradient id="paint1_linear_1801_18934" x1="4.53291" y1="38.6478" x2="44.905" y2="10.379" gradientUnits="userSpaceOnUse">
<stop stop-color="#514E4F"/>
<stop offset="0.0776684" stop-color="#656263"/>
<stop offset="0.229472" stop-color="#656263"/>
<stop offset="0.285246" stop-color="#656263"/>
<stop offset="0.588927" stop-color="#514E4F"/>
<stop offset="0.815336" stop-color="#514E4F"/>
<stop offset="1" stop-color="#706D6E"/>
</linearGradient>
<linearGradient id="paint2_linear_1801_18934" x1="35.0957" y1="38.6477" x2="75.4677" y2="10.379" gradientUnits="userSpaceOnUse">
<stop stop-color="#302B27"/>
<stop offset="0.245586" stop-color="#302B27"/>
<stop offset="0.503178" stop-color="#40423A"/>
<stop offset="0.542199" stop-color="#40423A"/>
<stop offset="0.641943" stop-color="#327254"/>
<stop offset="0.75382" stop-color="#E9E9E9"/>
<stop offset="0.78441" stop-color="#E9E9E9"/>
<stop offset="0.862825" stop-color="#E9E9E9"/>
<stop offset="0.963264" stop-color="#40423A"/>
<stop offset="0.978757" stop-color="#40423A"/>
<stop offset="0.998448" stop-color="#403034"/>
<stop offset="1" stop-color="#403034"/>
</linearGradient>
<linearGradient id="paint3_linear_1801_18934" x1="72.6107" y1="8.05235" x2="62.8223" y2="17.3514" gradientUnits="userSpaceOnUse">
<stop stop-color="white"/>
<stop offset="0.178292" stop-color="white"/>
<stop offset="0.393132" stop-color="white"/>
<stop offset="0.536082" stop-color="#231F20"/>
<stop offset="1" stop-color="#231F20"/>
</linearGradient>
<linearGradient id="paint4_linear_1801_18934" x1="46.116" y1="18.0973" x2="65.7165" y2="31.8177" gradientUnits="userSpaceOnUse">
<stop stop-color="#302B27"/>
<stop offset="0.124879" stop-color="#302B27"/>
<stop offset="0.582999" stop-color="#9C9A9B"/>
<stop offset="0.672989" stop-color="#9C9A9B"/>
<stop offset="0.998448" stop-color="#403034"/>
<stop offset="1" stop-color="#403034"/>
</linearGradient>
<linearGradient id="paint5_linear_1801_18934" x1="35.0969" y1="10.3794" x2="75.4689" y2="38.6481" gradientUnits="userSpaceOnUse">
<stop stop-color="white"/>
<stop offset="0.178292" stop-color="white"/>
<stop offset="0.341529" stop-color="white"/>
<stop offset="0.382571" stop-color="#231F20"/>
<stop offset="1" stop-color="#231F20"/>
</linearGradient>
<linearGradient id="paint6_linear_1801_18934" x1="35.0957" y1="38.6477" x2="75.4677" y2="10.379" gradientUnits="userSpaceOnUse">
<stop stop-color="#302B27"/>
<stop offset="0.0559689" stop-color="#302B27"/>
<stop offset="0.114674" stop-color="#40423A"/>
<stop offset="0.140182" stop-color="#40423A"/>
<stop offset="0.172855" stop-color="#F7992E"/>
<stop offset="0.180915" stop-color="#F2F47E"/>
<stop offset="0.191288" stop-color="#F2F47E"/>
<stop offset="0.237879" stop-color="white"/>
<stop offset="0.251777" stop-color="white"/>
<stop offset="0.262969" stop-color="white"/>
<stop offset="0.299747" stop-color="#F2F47E"/>
<stop offset="0.309551" stop-color="#F2F47E"/>
<stop offset="0.334123" stop-color="#B4DF58"/>
<stop offset="0.359013" stop-color="#C2E9CA"/>
<stop offset="0.420219" stop-color="#91C7ED"/>
<stop offset="0.463499" stop-color="#6D92D3"/>
<stop offset="0.483309" stop-color="#6D92D3"/>
<stop offset="0.499895" stop-color="#6D92D3"/>
<stop offset="0.535283" stop-color="#899ED8"/>
<stop offset="0.570788" stop-color="#91C3EB"/>
<stop offset="0.636172" stop-color="#B5E5F9"/>
<stop offset="0.681732" stop-color="#DDF4FB"/>
<stop offset="0.748257" stop-color="white"/>
<stop offset="0.812901" stop-color="#FEFCD1"/>
<stop offset="0.843094" stop-color="#FAF77C"/>
<stop offset="0.871528" stop-color="#F7F33E"/>
<stop offset="0.889706" stop-color="#F9BC3A"/>
<stop offset="0.907262" stop-color="#DE6CBD"/>
<stop offset="0.922337" stop-color="#1C1E19"/>
<stop offset="0.947651" stop-color="#151512"/>
<stop offset="0.96058" stop-color="#F58615"/>
<stop offset="0.965232" stop-color="white"/>
<stop offset="0.970907" stop-color="white"/>
<stop offset="0.976824" stop-color="white"/>
<stop offset="0.980533" stop-color="#23714D"/>
<stop offset="0.999619" stop-color="#403034"/>
<stop offset="1" stop-color="#403034"/>
</linearGradient>
<linearGradient id="paint7_linear_1801_18934" x1="37.004" y1="3.50376" x2="12.2118" y2="45.9032" gradientUnits="userSpaceOnUse">
<stop stop-color="#40423A"/>
<stop offset="0.0695656" stop-color="#40423A"/>
<stop offset="0.0962053" stop-color="#4B4342"/>
<stop offset="0.109473" stop-color="#4B4342"/>
<stop offset="0.148335" stop-color="#4B4342"/>
<stop offset="0.317757" stop-color="#F9F5F7"/>
<stop offset="0.398001" stop-color="#F7F33E"/>
<stop offset="0.399869" stop-color="#F7F33E"/>
<stop offset="0.425485" stop-color="#F9BC3A"/>
<stop offset="0.4402" stop-color="#F58615"/>
<stop offset="0.456941" stop-color="#F58615"/>
<stop offset="0.47769" stop-color="#5D734B"/>
<stop offset="0.487021" stop-color="#5D734B"/>
<stop offset="0.496347" stop-color="#5D734B"/>
<stop offset="0.5174" stop-color="#DE6CBD"/>
<stop offset="0.530708" stop-color="#DA36A2"/>
<stop offset="0.547679" stop-color="#DE6CBD"/>
<stop offset="0.556934" stop-color="#DE6CBD"/>
<stop offset="0.570508" stop-color="#302B27"/>
<stop offset="0.796184" stop-color="#252521"/>
<stop offset="1" stop-color="#252521"/>
</linearGradient>
<linearGradient id="paint8_linear_1801_18934" x1="17.4339" y1="1.09574" x2="32.003" y2="47.9299" gradientUnits="userSpaceOnUse">
<stop stop-color="white"/>
<stop offset="0.279476" stop-color="white"/>
<stop offset="0.515603" stop-color="white"/>
<stop offset="0.628122" stop-color="#231F20"/>
<stop offset="1" stop-color="#231F20"/>
</linearGradient>
<linearGradient id="paint9_linear_1801_18934" x1="4.53296" y1="38.6478" x2="44.905" y2="10.379" gradientUnits="userSpaceOnUse">
<stop stop-color="#1C1916"/>
<stop offset="0.0102041" stop-color="#1C1916"/>
<stop offset="0.027374" stop-color="#594BA9"/>
<stop offset="0.0463234" stop-color="#9986CA"/>
<stop offset="0.0503634" stop-color="#AC61B6"/>
<stop offset="0.0697949" stop-color="#D7088C"/>
<stop offset="0.0926706" stop-color="#F57F25"/>
<stop offset="0.119692" stop-color="#F8F12B"/>
<stop offset="0.132005" stop-color="#BFE37C"/>
<stop offset="0.136573" stop-color="#BFE37C"/>
<stop offset="0.141622" stop-color="#BFE37C"/>
<stop offset="0.153628" stop-color="#BE7876"/>
<stop offset="0.162085" stop-color="#F9BC3A"/>
<stop offset="0.169798" stop-color="#F9BC3A"/>
<stop offset="0.186296" stop-color="#FAF77C"/>
<stop offset="0.199504" stop-color="#F8F12B"/>
<stop offset="0.247445" stop-color="white"/>
<stop offset="0.251743" stop-color="white"/>
<stop offset="0.275277" stop-color="white"/>
<stop offset="0.35504" stop-color="#DDF4FB"/>
<stop offset="0.370777" stop-color="#F9F896"/>
<stop offset="0.377951" stop-color="#F9F896"/>
<stop offset="0.398787" stop-color="#BEE487"/>
<stop offset="0.399682" stop-color="#BEE487"/>
<stop offset="0.415696" stop-color="#BEE487"/>
<stop offset="0.422248" stop-color="#9FD0F1"/>
<stop offset="0.453498" stop-color="#8CADE0"/>
<stop offset="0.462775" stop-color="#899ED8"/>
<stop offset="0.483476" stop-color="#9986CA"/>
<stop offset="0.493179" stop-color="#9986CA"/>
<stop offset="0.504141" stop-color="#9986CA"/>
<stop offset="0.506897" stop-color="#6D92D3"/>
<stop offset="0.527995" stop-color="#6D92D3"/>
<stop offset="0.574091" stop-color="#91C7ED"/>
<stop offset="0.628694" stop-color="#C2E9CA"/>
<stop offset="0.701208" stop-color="#F2F47E"/>
<stop offset="0.767703" stop-color="white"/>
<stop offset="0.787938" stop-color="white"/>
<stop offset="0.800121" stop-color="white"/>
<stop offset="0.840962" stop-color="#F2F47E"/>
<stop offset="0.857637" stop-color="#F2F47E"/>
<stop offset="0.870593" stop-color="#F8F12B"/>
<stop offset="0.871057" stop-color="#F8F12B"/>
<stop offset="0.894813" stop-color="#F7992E"/>
<stop offset="0.90672" stop-color="#F8A32E"/>
<stop offset="0.914873" stop-color="#F8A32E"/>
<stop offset="0.914885" stop-color="#F8A32E"/>
<stop offset="0.93504" stop-color="#AB70BE"/>
<stop offset="0.965691" stop-color="#302B27"/>
<stop offset="0.99054" stop-color="#302B27"/>
<stop offset="0.997907" stop-color="#302B27"/>
<stop offset="1" stop-color="#302B27"/>
</linearGradient>
<linearGradient id="paint10_linear_1801_18934" x1="60.4117" y1="77.057" x2="21.1534" y2="37.7988" gradientUnits="userSpaceOnUse">
<stop stop-color="#A7A5A6"/>
<stop offset="0.00094099" stop-color="#A7A5A6"/>
<stop offset="0.101803" stop-color="#BDBCBC"/>
<stop offset="0.243156" stop-color="#BBBABA"/>
<stop offset="0.430015" stop-color="#C8C7C7"/>
<stop offset="0.61004" stop-color="#C8C7C7"/>
<stop offset="0.707133" stop-color="#A7A5A6"/>
<stop offset="0.797708" stop-color="#BDBCBC"/>
<stop offset="1" stop-color="#A7A5A6"/>
</linearGradient>
<clipPath id="clip0_1801_18934">
<rect width="80" height="61.6393" rx="8" fill="white"/>
</clipPath>
<clipPath id="clip1_1801_18934">
<rect width="80" height="61.6393" fill="white"/>
</clipPath>
</defs>
</svg>
