<svg width="80" height="15" viewBox="0 0 80 15" fill="none" xmlns="http://www.w3.org/2000/svg">
<g clip-path="url(#clip0_1801_18855)">
<path fill-rule="evenodd" clip-rule="evenodd" d="M8.28375 12.5362H14.4271V1.5007H8.28375V12.5362Z" fill="#FF5F00"/>
<path fill-rule="evenodd" clip-rule="evenodd" d="M8.67372 7.01842C8.67372 4.7797 9.72104 2.78699 11.3553 1.5007C10.1217 0.527187 8.59289 -0.00349713 7.01841 1.73444e-05C3.14194 1.73444e-05 0 3.14196 0 7.01842C0 10.8949 3.14194 14.0368 7.01841 14.0368C8.65615 14.0368 10.1603 13.4745 11.3553 12.5361C9.72455 11.2498 8.67372 9.25714 8.67372 7.01842Z" fill="#EB001B"/>
<path fill-rule="evenodd" clip-rule="evenodd" d="M22.7108 7.01844C22.7108 10.8949 19.5688 14.0368 15.6923 14.0368C14.1179 14.0404 12.5889 13.5097 11.3553 12.5361C12.9895 11.2498 14.037 9.25716 14.037 7.01844C14.037 4.77972 12.9895 2.78699 11.3553 1.5007C12.5924 0.527187 14.1179 -0.00347964 15.6923 3.48333e-05C19.5688 3.48333e-05 22.7108 3.14198 22.7108 7.01844Z" fill="#F79E1B"/>
<path fill-rule="evenodd" clip-rule="evenodd" d="M30.5268 12.863H30.0031L30.6638 11.7103L29.7079 9.99168H30.2386L30.9344 11.2358L31.6022 9.99168H32.1188L30.5268 12.863ZM28.5516 10.3783C28.281 10.3712 28.035 10.5399 27.9471 10.7965C27.9155 10.8808 27.9014 10.9722 27.9014 11.0706C27.9014 11.169 27.9155 11.2604 27.9471 11.3448C27.9788 11.4291 28.0244 11.5029 28.0807 11.5626C28.1369 11.6259 28.2072 11.6716 28.2845 11.7067C28.3654 11.7419 28.4532 11.7595 28.5516 11.7595C28.6535 11.7595 28.7414 11.7419 28.8257 11.7032C28.9066 11.6646 28.9769 11.6154 29.0296 11.5521C29.0823 11.4888 29.128 11.415 29.1561 11.3307C29.1877 11.2428 29.2018 11.155 29.2018 11.0636C29.2018 10.9687 29.1877 10.8773 29.1561 10.7965C29.128 10.7157 29.0858 10.6419 29.0296 10.5751C28.9734 10.5118 28.9031 10.4591 28.8257 10.4275C28.7379 10.3958 28.6465 10.3783 28.5516 10.3783ZM28.6078 9.93193C28.896 9.92842 29.1737 10.0444 29.374 10.2517C29.4724 10.3537 29.5497 10.4732 29.6024 10.6137C29.6587 10.7543 29.6868 10.9054 29.6868 11.0706C29.6868 11.2358 29.6587 11.3869 29.6024 11.5275C29.5497 11.6611 29.4724 11.7841 29.374 11.8895C29.1737 12.0968 28.896 12.2128 28.6078 12.2093C28.4532 12.2093 28.3197 12.1812 28.2107 12.1214C28.1018 12.0652 28.0069 11.9879 27.9331 11.893V12.1496H27.4621V9.11306H27.9331V10.2412C28.0069 10.1463 28.1018 10.069 28.2107 10.0128C28.3197 9.96005 28.4532 9.93193 28.6078 9.93193ZM37.6963 11.0706C37.6963 10.6911 37.9458 10.3783 38.35 10.3783C38.7401 10.3783 39.0002 10.677 39.0002 11.0706C39.0002 11.4642 38.7401 11.763 38.35 11.763C37.9423 11.763 37.6963 11.4502 37.6963 11.0706ZM39.4465 11.0706V9.98816H38.9755V10.2517C38.8279 10.0585 38.5995 9.93545 38.2937 9.93545C37.6893 9.93545 37.2148 10.4099 37.2148 11.0741C37.2148 11.7349 37.6893 12.2128 38.2937 12.2128C38.603 12.2128 38.8279 12.0898 38.9755 11.8965V12.1601H39.4465C39.4465 12.1531 39.4465 11.0706 39.4465 11.0706ZM55.3284 11.0706C55.3284 10.6911 55.5779 10.3783 55.9856 10.3783C56.3757 10.3783 56.6358 10.677 56.6358 11.0706C56.6358 11.4642 56.3722 11.763 55.9856 11.763C55.5744 11.763 55.3284 11.4502 55.3284 11.0706ZM57.0751 9.11658H56.6042V10.2482C56.453 10.0549 56.2281 9.93193 55.9223 9.93193C55.3179 9.93193 54.8434 10.4064 54.8434 11.0706C54.8434 11.7313 55.3179 12.2093 55.9223 12.2093C56.2316 12.2093 56.4565 12.0863 56.6042 11.893V12.1566H57.0751V9.11658ZM45.277 10.3537C45.5793 10.3537 45.7725 10.5435 45.8253 10.8808H44.7041C44.7533 10.5681 44.9431 10.3537 45.277 10.3537ZM45.2875 9.93193C44.6549 9.93193 44.2121 10.3958 44.2121 11.0706C44.2121 11.7595 44.6725 12.2093 45.3192 12.2093C45.646 12.2093 45.9412 12.1285 46.2048 11.9071L45.9729 11.5591C45.7936 11.7032 45.5722 11.7841 45.3438 11.7841C45.0415 11.7841 44.7639 11.6435 44.6971 11.2534H46.3032C46.3067 11.1936 46.3138 11.1374 46.3138 11.0741C46.3103 10.3958 45.892 9.93193 45.2875 9.93193ZM50.9634 11.0706C50.9634 10.6911 51.213 10.3783 51.6206 10.3783C52.0107 10.3783 52.2708 10.677 52.2708 11.0706C52.2708 11.4642 52.0072 11.763 51.6206 11.763C51.213 11.763 50.9634 11.4502 50.9634 11.0706ZM52.7136 11.0706V9.98816H52.2427V10.2517C52.0951 10.0585 51.8666 9.93545 51.5609 9.93545C50.9529 9.93545 50.4784 10.4099 50.4784 11.0741C50.4784 11.7349 50.9529 12.2128 51.5609 12.2128C51.8702 12.2128 52.0951 12.0898 52.2427 11.8965V12.1601H52.7136C52.7136 12.1531 52.7136 11.0706 52.7136 11.0706ZM48.3065 11.0706C48.3065 11.7278 48.7634 12.2093 49.4592 12.2093C49.7861 12.2093 50.0005 12.1355 50.2359 11.9528L50.011 11.5732C49.8353 11.6997 49.649 11.77 49.4452 11.77C49.0691 11.7665 48.795 11.4924 48.795 11.0777C48.795 10.6594 49.0726 10.3888 49.4452 10.3853C49.649 10.3853 49.8353 10.4521 50.011 10.5821L50.2359 10.2025C50.0005 10.0163 49.7826 9.94248 49.4592 9.94248C48.7669 9.93193 48.31 10.4134 48.3065 11.0706ZM54.3689 9.93193C54.0983 9.93193 53.9226 10.0585 53.7996 10.2482V9.98465H53.3322V12.1496H53.8031V10.9336C53.8031 10.5751 53.9578 10.3748 54.2635 10.3748C54.3584 10.3748 54.4568 10.3888 54.5587 10.4275L54.7028 9.98465C54.5939 9.95302 54.4814 9.93545 54.3689 9.93193ZM41.7696 10.1604C41.5446 10.0093 41.2318 9.93545 40.8874 9.93545C40.3392 9.93545 39.9877 10.199 39.9877 10.6278C39.9877 10.9792 40.2513 11.1971 40.7328 11.2674L40.9542 11.2991C41.2108 11.3342 41.3338 11.4045 41.3338 11.5275C41.3338 11.6962 41.1616 11.7911 40.8417 11.7911C40.5149 11.7911 40.2794 11.6857 40.1213 11.5626L39.8999 11.9282C40.1564 12.1179 40.4833 12.2093 40.8347 12.2093C41.4603 12.2093 41.8188 11.9141 41.8188 11.5029C41.8188 11.1233 41.5341 10.923 41.0631 10.8562L40.8417 10.8246C40.6379 10.7965 40.4762 10.7578 40.4762 10.6102C40.4762 10.4521 40.6309 10.3572 40.8874 10.3572C41.1651 10.3572 41.4287 10.4626 41.5622 10.5435L41.7696 10.1604ZM47.832 9.93193C47.5614 9.93193 47.3857 10.0585 47.2627 10.2482V9.98465H46.7988V12.1496H47.2697V10.9336C47.2697 10.5751 47.4244 10.3748 47.7301 10.3748C47.825 10.3748 47.9234 10.3888 48.0253 10.4275L48.1694 9.98465C48.0605 9.95302 47.948 9.93545 47.832 9.93193ZM43.822 9.98816H43.0523V9.33096H42.5779V9.98816H42.1386V10.4169H42.5779V11.4045C42.5779 11.9071 42.7712 12.2058 43.33 12.2058C43.5338 12.2058 43.7693 12.1425 43.9169 12.0371L43.7798 11.6329C43.6393 11.7138 43.4846 11.7559 43.3651 11.7559C43.1297 11.7559 43.0523 11.6119 43.0523 11.394V10.4134H43.822V9.98816ZM36.7931 12.1531V10.793C36.7931 10.2799 36.4662 9.93545 35.9426 9.93193C35.6649 9.92842 35.3802 10.0128 35.1834 10.3185C35.0358 10.0795 34.8004 9.93193 34.47 9.93193C34.238 9.93193 34.0131 9.99871 33.8374 10.2553V9.98816H33.3664V12.1531H33.8409V10.9511C33.8409 10.5751 34.0483 10.3748 34.3681 10.3748C34.6809 10.3748 34.839 10.5786 34.839 10.9441V12.1496H35.3135V10.9476C35.3135 10.5716 35.5314 10.3712 35.8442 10.3712C36.164 10.3712 36.3186 10.5751 36.3186 10.9406V12.1461H36.7931V12.1531ZM79.8805 3.37744C79.399 3.05762 78.7313 2.89244 78.0003 2.89244C76.8335 2.89244 76.0814 3.45476 76.0814 4.37204C76.0814 5.12765 76.6402 5.59156 77.6734 5.73565L78.1479 5.80243C78.6997 5.87975 78.9597 6.02384 78.9597 6.28742C78.9597 6.6459 78.5942 6.84974 77.9089 6.84974C77.213 6.84974 76.714 6.62833 76.3731 6.36474L75.8986 7.14847C76.4469 7.55615 77.1428 7.74945 77.8949 7.74945C79.2268 7.74945 80 7.12036 80 6.24174C80 5.42989 79.392 5.00464 78.3869 4.86055L77.9124 4.79377C77.4766 4.73403 77.1322 4.64968 77.1322 4.34041C77.1322 4.00302 77.4591 3.79918 78.0108 3.79918C78.6013 3.79918 79.1671 4.02059 79.4482 4.19631L79.8805 3.37744ZM75.0657 3.37744C74.5842 3.05762 73.9165 2.89244 73.1855 2.89244C72.0187 2.89244 71.2665 3.45476 71.2665 4.37204C71.2665 5.12765 71.8253 5.59156 72.8586 5.73565L73.3331 5.80243C73.8848 5.87975 74.1449 6.02384 74.1449 6.28742C74.1449 6.6459 73.7794 6.84974 73.0941 6.84974C72.3982 6.84974 71.8992 6.62833 71.5583 6.36474L71.0838 7.14847C71.6356 7.55615 72.3279 7.74945 73.08 7.74945C74.412 7.74945 75.1852 7.12036 75.1852 6.24174C75.1852 5.42989 74.5772 5.00464 73.572 4.86055L73.0976 4.79377C72.6618 4.73403 72.3139 4.64968 72.3139 4.34041C72.3139 4.00302 72.6407 3.79918 73.1925 3.79918C73.7794 3.79918 74.3487 4.02059 74.6299 4.19631L75.0657 3.37744ZM63.5698 5.29986C63.5698 6.1117 63.0392 6.77945 62.1711 6.77945C61.3417 6.77945 60.7794 6.13982 60.7794 5.29986C60.7794 4.4599 61.3382 3.82026 62.1711 3.82026C63.0392 3.82026 63.5698 4.48801 63.5698 5.29986ZM59.8375 9.28527H60.8391V7.05006C61.1589 7.46477 61.6404 7.72836 62.2976 7.72836C63.5909 7.72836 64.6031 6.71268 64.6031 5.29986C64.6031 3.88704 63.5909 2.87136 62.2976 2.87136C61.6404 2.87136 61.1589 3.13143 60.8391 3.54965V2.98733H59.8375V9.28527ZM66.3709 5.3104C66.3709 4.49856 66.9016 3.83081 67.7696 3.83081C68.5991 3.83081 69.1614 4.47044 69.1614 5.3104C69.1614 6.15036 68.6026 6.78999 67.7732 6.78999C66.9016 6.78999 66.3709 6.12224 66.3709 5.3104ZM70.1033 2.99788H69.0981V3.56019C68.7783 3.14548 68.2968 2.8819 67.6396 2.8819C66.3463 2.8819 65.3341 3.89758 65.3341 5.3104C65.3341 6.72322 66.3463 7.73539 67.6396 7.73539C68.2968 7.73539 68.7783 7.47532 69.0981 7.06061V7.62293H70.1033V2.99788ZM36.649 5.3104C36.649 4.49856 37.1797 3.83081 38.0477 3.83081C38.8771 3.83081 39.436 4.47044 39.436 5.3104C39.436 6.15036 38.8771 6.78999 38.0477 6.78999C37.1797 6.78999 36.649 6.12224 36.649 5.3104ZM40.3813 2.99788H39.3762V3.56019C39.0564 3.14548 38.5749 2.8819 37.9177 2.8819C36.6244 2.8819 35.6122 3.89758 35.6122 5.3104C35.6122 6.72322 36.6244 7.73539 37.9177 7.73539C38.5749 7.73539 39.0564 7.47532 39.3762 7.06061V7.62293H40.3813V2.99788ZM52.8296 3.78161C53.4763 3.78161 53.891 4.18577 53.9964 4.90272H51.6031C51.712 4.23849 52.1162 3.78161 52.8296 3.78161ZM52.8507 2.8819C51.5011 2.8819 50.5522 3.86947 50.5522 5.3104C50.5522 6.77945 51.5363 7.73539 52.9175 7.73539C53.6133 7.73539 54.2495 7.56318 54.8083 7.08872L54.3162 6.34366C53.9296 6.65293 53.4376 6.82865 52.9737 6.82865C52.327 6.82865 51.7401 6.52992 51.5925 5.69699H55.0191C55.0297 5.57047 55.0367 5.44747 55.0367 5.3104C55.0297 3.86947 54.144 2.8819 52.8507 2.8819ZM45.3438 3.3669C44.8623 3.04708 44.1945 2.8819 43.4635 2.8819C42.2967 2.8819 41.5446 3.44422 41.5446 4.36149C41.5446 5.11711 42.1034 5.58102 43.1367 5.72511L43.6111 5.79188C44.1629 5.8692 44.423 6.0133 44.423 6.27688C44.423 6.63536 44.0575 6.8392 43.3722 6.8392C42.6763 6.8392 42.1772 6.61779 41.8363 6.3542L41.3619 7.13793C41.9101 7.54561 42.606 7.73539 43.3581 7.73539C44.6901 7.73539 45.4633 7.1063 45.4633 6.22768C45.4633 5.41584 44.8553 4.99058 43.8536 4.84649L43.3792 4.77971C42.9469 4.71997 42.599 4.63562 42.599 4.32635C42.599 3.98896 42.9258 3.78512 43.4776 3.78512C44.068 3.78512 44.6339 4.00653 44.915 4.18226L45.3438 3.3669ZM58.2841 2.8819C57.7042 2.8819 57.3281 3.15251 57.0681 3.56019V2.99788H56.0735V7.61941H57.0751V5.02924C57.0751 4.2666 57.4019 3.84135 58.0592 3.84135C58.263 3.84135 58.4739 3.86947 58.6882 3.95733L58.9975 3.00842C58.7761 2.92407 58.4844 2.8819 58.2841 2.8819ZM49.7228 2.99788H48.0816V1.5956H47.0694V2.99788H46.1345V3.91515H47.0694V6.02384C47.0694 7.09575 47.4841 7.73539 48.672 7.73539C49.1078 7.73539 49.6068 7.59832 49.9267 7.37691L49.6385 6.51587C49.3397 6.69159 49.0094 6.77594 48.7493 6.77594C48.2467 6.77594 48.0816 6.46666 48.0816 6.00275V3.91515H49.7228V2.99788ZM34.7266 7.62293V4.71997C34.7266 3.62697 34.0307 2.89244 32.9131 2.8819C32.3226 2.87135 31.7182 3.05762 31.2929 3.70429C30.9731 3.19117 30.474 2.8819 29.7676 2.8819C29.2756 2.8819 28.7941 3.02599 28.4181 3.57074V3.00139H27.4129V7.62293H28.4251V5.06087C28.4251 4.25957 28.8679 3.83432 29.5532 3.83432C30.2175 3.83432 30.5584 4.27012 30.5584 5.05384V7.62644H31.5706V5.06439C31.5706 4.26309 32.0345 3.83784 32.6987 3.83784C33.384 3.83784 33.7109 4.27363 33.7109 5.05736V7.62995L34.7266 7.62293Z" fill="#211F1C"/>
</g>
<defs>
<clipPath id="clip0_1801_18855">
<rect width="80" height="14.0369" rx="7.01843" fill="white"/>
</clipPath>
</defs>
</svg>
