<svg width="80" height="51" viewBox="0 0 80 51" fill="none" xmlns="http://www.w3.org/2000/svg">
<g clip-path="url(#clip0_1801_20145)">
<path d="M80 0H0V50.5893H80V0Z" fill="black"/>
<path d="M33.6454 14.116C33.8545 14.4012 34.0256 14.7149 34.1349 15.0571C34.249 15.3993 34.3155 15.7605 34.3155 16.1407C34.3155 16.5209 34.2537 16.8869 34.1349 17.2244C34.0256 17.5618 33.8545 17.8803 33.6454 18.1654C33.3554 18.5504 33.441 19.097 33.826 19.3822C34.211 19.6673 34.7575 19.5865 35.0427 19.2015C35.3564 18.7738 35.613 18.2937 35.7841 17.7804C35.96 17.2671 36.0551 16.7111 36.0551 16.1407C36.0551 15.5704 35.96 15.0143 35.7889 14.501C35.6178 13.9829 35.3611 13.5076 35.0475 13.0799C34.7623 12.6949 34.2157 12.6141 33.8307 12.8993C33.441 13.1844 33.3602 13.7263 33.6501 14.116M36.6349 12.4905C37.2908 13.5552 37.6663 14.8004 37.6663 16.1407C37.6663 17.481 37.2908 18.731 36.6349 19.7909C36.383 20.1996 36.5066 20.7367 36.9201 20.9886C37.3288 21.2405 37.8706 21.1122 38.1178 20.7034C38.9353 19.3774 39.4106 17.809 39.4106 16.1407C39.4106 14.4677 38.9353 12.904 38.1178 11.578C37.8659 11.1692 37.3288 11.0409 36.9201 11.2928C36.5113 11.5447 36.383 12.0818 36.6349 12.4905ZM39.8003 10.8365C40.7129 12.3955 41.2309 14.2063 41.2309 16.1407C41.2309 18.0751 40.7129 19.886 39.8003 21.4449C39.5579 21.8631 39.7005 22.3955 40.114 22.6379C40.5322 22.8802 41.0646 22.7424 41.307 22.3289C42.3668 20.5133 42.9752 18.3983 42.9752 16.1455C42.9752 13.8926 42.3668 11.7776 41.307 9.96201C41.0646 9.54851 40.5322 9.40592 40.114 9.64832C39.7005 9.89071 39.5579 10.423 39.8003 10.8413M42.9562 9.17779C44.1254 11.2358 44.7956 13.6074 44.7956 16.1455C44.7956 18.6835 44.1254 21.0552 42.9562 23.1084C42.7186 23.5266 42.8659 24.059 43.2794 24.2966C43.7024 24.5342 44.23 24.3869 44.4676 23.9686C45.7794 21.6588 46.5351 18.9877 46.5351 16.1407C46.5351 13.2938 45.7841 10.6227 44.4676 8.31277C44.23 7.89452 43.6976 7.74718 43.2794 7.98482C42.8659 8.22722 42.7186 8.75478 42.9562 9.17303M22.0864 28.6027C22.3051 28.6027 22.5189 28.6264 22.7281 28.674C22.9372 28.7215 23.1273 28.7928 23.3079 28.8783C23.4838 28.9686 23.6454 29.078 23.7927 29.2063C23.9353 29.3346 24.0589 29.482 24.1539 29.6435L23.479 30.0903C23.3269 29.8669 23.1321 29.6911 22.8944 29.5627C22.6568 29.4344 22.3859 29.3679 22.0864 29.3679C21.8298 29.3679 21.5969 29.4107 21.3783 29.501C21.1596 29.5913 20.9743 29.7148 20.8174 29.8717C20.6606 30.0285 20.537 30.2234 20.4467 30.4468C20.3564 30.6702 20.3136 30.9173 20.3136 31.1835C20.3136 31.4496 20.3564 31.6968 20.4467 31.9202C20.537 32.1435 20.6606 32.3337 20.8174 32.4953C20.9743 32.6521 21.1596 32.7804 21.3783 32.866C21.5969 32.9515 21.8298 32.9991 22.0864 32.9991C22.3811 32.9991 22.652 32.9373 22.8849 32.8089C23.1225 32.6854 23.3174 32.5095 23.4743 32.2814L24.1302 32.7614C24.0256 32.9183 23.8973 33.0561 23.7547 33.1797C23.6121 33.3032 23.4505 33.4078 23.2794 33.4981C23.1035 33.5837 22.9182 33.655 22.7138 33.6977C22.5142 33.7453 22.3051 33.769 22.0864 33.769C21.7062 33.769 21.3545 33.7025 21.0313 33.5742C20.7081 33.4458 20.4324 33.2652 20.2043 33.0323C19.9714 32.7994 19.7956 32.5285 19.6672 32.2101C19.5389 31.8964 19.4771 31.5494 19.4771 31.1787C19.4771 30.808 19.5389 30.461 19.6672 30.1474C19.7956 29.8289 19.9762 29.558 20.2043 29.3251C20.4324 29.097 20.7081 28.9164 21.0313 28.7833C21.3497 28.655 21.7062 28.5884 22.0864 28.5884V28.6027ZM26.6302 30.1806C26.8916 30.1806 27.1387 30.2281 27.3621 30.3185C27.5855 30.4088 27.7803 30.5371 27.9467 30.6939C28.1083 30.8555 28.2366 31.0456 28.3317 31.2643C28.4267 31.4829 28.4695 31.7205 28.4695 31.9772C28.4695 32.2338 28.422 32.4715 28.3317 32.6901C28.2366 32.9088 28.113 33.0989 27.9467 33.2605C27.7803 33.4221 27.5902 33.5456 27.3621 33.6359C27.1387 33.7262 26.8916 33.7738 26.6302 33.7738C26.3687 33.7738 26.1216 33.7262 25.8982 33.6359C25.6748 33.5456 25.48 33.4173 25.3184 33.2605C25.1568 33.0989 25.0284 32.9088 24.9334 32.6901C24.8383 32.4715 24.7956 32.2338 24.7956 31.9772C24.7956 31.7205 24.8431 31.4829 24.9334 31.2643C25.0284 31.0456 25.152 30.8555 25.3184 30.6939C25.48 30.5323 25.6748 30.4088 25.8982 30.3185C26.1216 30.2281 26.3687 30.1806 26.6302 30.1806ZM26.6302 30.884C26.4781 30.884 26.3355 30.9126 26.2071 30.9648C26.0741 31.0171 25.9648 31.0932 25.8697 31.1882C25.7746 31.2833 25.6986 31.4021 25.6463 31.5352C25.594 31.6683 25.5655 31.8156 25.5655 31.9772C25.5655 32.1388 25.594 32.2861 25.6463 32.4192C25.7033 32.5523 25.7746 32.6711 25.8697 32.7662C25.9648 32.8612 26.0788 32.9373 26.2071 32.9896C26.3355 33.0418 26.4781 33.0704 26.6302 33.0704C26.7822 33.0704 26.9248 33.0418 27.0532 32.9896C27.1815 32.9373 27.2956 32.8612 27.3954 32.7662C27.4904 32.6711 27.5665 32.557 27.6235 32.4192C27.6805 32.2861 27.7043 32.1388 27.7043 31.9772C27.7043 31.8156 27.6758 31.6683 27.6235 31.5352C27.5665 31.4021 27.4952 31.288 27.3954 31.1882C27.3003 31.0932 27.1862 31.0171 27.0532 30.9648C26.9201 30.9126 26.7822 30.884 26.6302 30.884ZM31.1834 30.1806C31.383 30.1806 31.5731 30.2139 31.7395 30.2804C31.9106 30.347 32.0579 30.442 32.1815 30.5608C32.3051 30.6797 32.4001 30.8223 32.4667 30.9886C32.5332 31.155 32.5665 31.3403 32.5665 31.5399V33.6835H31.8203V31.7823C31.8203 31.4924 31.749 31.2738 31.6111 31.1169C31.4733 30.9601 31.2784 30.884 31.0265 30.884C30.9077 30.884 30.7889 30.9031 30.6843 30.9411C30.575 30.9791 30.4847 31.0361 30.4039 31.1122C30.3231 31.1882 30.2613 31.2833 30.2138 31.3973C30.1663 31.5114 30.1425 31.6397 30.1425 31.7823V33.674H29.3963V30.2614H30.1378V30.6797C30.2043 30.5799 30.2851 30.4991 30.3659 30.4325C30.4514 30.366 30.537 30.3137 30.6321 30.2757C30.7271 30.2377 30.8174 30.2091 30.9125 30.1949C31.0075 30.1806 31.0978 30.1711 31.1834 30.1711V30.1806ZM35.998 30.9458H34.691V32.4335C34.691 32.5475 34.7052 32.6473 34.7338 32.7281C34.7623 32.8089 34.8003 32.8755 34.8478 32.9278C34.8954 32.98 34.9524 33.0181 35.0189 33.0418C35.0855 33.0656 35.1568 33.0799 35.2328 33.0799C35.3516 33.0799 35.4657 33.0561 35.5893 33.0133C35.7081 32.9705 35.8222 32.9135 35.922 32.8517L36.2167 33.4458C36.0788 33.5409 35.922 33.6169 35.7509 33.6835C35.5798 33.75 35.3849 33.7833 35.1663 33.7833C34.7813 33.7833 34.4771 33.674 34.2632 33.4601C34.0494 33.2462 33.94 32.9088 33.94 32.4572V30.9553H33.2604V30.2804H33.94V29.2443H34.691V30.2804H35.998V30.9553V30.9458ZM40.1853 33.6835H39.4391V33.2747C39.3203 33.4268 39.1729 33.5504 38.9971 33.6359C38.8212 33.7262 38.6121 33.7738 38.3649 33.7738C38.1178 33.7738 37.9039 33.731 37.6948 33.6407C37.4904 33.5504 37.3098 33.4268 37.153 33.27C36.9961 33.1131 36.8773 32.923 36.7918 32.6996C36.7014 32.481 36.6587 32.2386 36.6587 31.9772C36.6587 31.7158 36.7014 31.4734 36.7918 31.2548C36.8773 31.0361 37.0009 30.846 37.153 30.6844C37.3098 30.5228 37.4904 30.3992 37.6948 30.3137C37.9039 30.2234 38.1273 30.1806 38.3649 30.1806C38.6026 30.1806 38.8212 30.2281 38.9971 30.3185C39.1729 30.4088 39.3203 30.5323 39.4391 30.6844V30.2709H40.1853V33.6835ZM38.4552 30.884C38.2937 30.884 38.1511 30.9126 38.0227 30.9696C37.8944 31.0266 37.7898 31.1074 37.6995 31.2072C37.614 31.307 37.5427 31.4211 37.4952 31.5542C37.4476 31.6873 37.4239 31.8299 37.4239 31.9772C37.4239 32.1245 37.4476 32.2671 37.4952 32.4002C37.5427 32.5333 37.6092 32.6473 37.6995 32.7472C37.7898 32.847 37.8944 32.923 38.0227 32.9848C38.1511 33.0418 38.2937 33.0704 38.4552 33.0704C38.6168 33.0704 38.7499 33.0418 38.8783 32.9848C39.0018 32.9278 39.1111 32.8517 39.2014 32.7567C39.2918 32.6569 39.363 32.5428 39.4106 32.4097C39.4581 32.2766 39.4866 32.1293 39.4866 31.9724C39.4866 31.8156 39.4628 31.673 39.4106 31.5352C39.3583 31.4021 39.2918 31.288 39.2014 31.1882C39.1111 31.0884 39.0018 31.0124 38.8783 30.9601C38.7499 30.9031 38.6121 30.8745 38.4552 30.8745V30.884ZM42.9039 30.1806C43.1606 30.1806 43.3982 30.2281 43.6216 30.3185C43.8402 30.4088 44.0303 30.5466 44.1824 30.7272L43.7071 31.2358C43.5883 31.1217 43.46 31.0361 43.3317 30.9743C43.1986 30.9126 43.056 30.884 42.8897 30.884C42.7471 30.884 42.614 30.9126 42.4904 30.9648C42.3668 31.0171 42.2575 31.0932 42.172 31.1882C42.0817 31.2833 42.0104 31.4021 41.9581 31.5352C41.9058 31.6683 41.8821 31.8156 41.8821 31.9772C41.8821 32.1388 41.9058 32.2861 41.9581 32.4192C42.0104 32.5523 42.0817 32.6711 42.172 32.7662C42.2623 32.8612 42.3716 32.9373 42.4904 32.9896C42.614 33.0418 42.7471 33.0704 42.8897 33.0704C43.056 33.0704 43.2081 33.0371 43.3507 32.9705C43.4933 32.904 43.6168 32.8184 43.7262 32.7139L44.1872 33.2272C44.0303 33.4078 43.8402 33.5456 43.6216 33.6359C43.403 33.7262 43.1653 33.7738 42.9087 33.7738C42.6378 33.7738 42.3906 33.7262 42.172 33.6359C41.9486 33.5456 41.7632 33.4173 41.6064 33.2605C41.4495 33.0989 41.3307 32.9088 41.2452 32.6901C41.1596 32.4715 41.1168 32.2338 41.1168 31.9772C41.1168 31.7205 41.1596 31.4829 41.2452 31.2643C41.3307 31.0456 41.4543 30.8555 41.6064 30.6939C41.7632 30.5323 41.9533 30.4088 42.172 30.3185C42.3906 30.2281 42.6378 30.1806 42.9087 30.1806H42.9039ZM47.3764 30.9458H46.0693V32.4335C46.0693 32.5475 46.0836 32.6473 46.1121 32.7281C46.1406 32.8089 46.1786 32.8755 46.2262 32.9278C46.2737 32.98 46.3307 33.0181 46.3973 33.0418C46.4638 33.0656 46.5351 33.0799 46.6111 33.0799C46.73 33.0799 46.844 33.0561 46.9676 33.0133C47.0864 32.9705 47.2005 32.9135 47.3003 32.8517L47.595 33.4458C47.4571 33.5409 47.3003 33.6169 47.1292 33.6835C46.9581 33.75 46.7632 33.7833 46.5446 33.7833C46.1596 33.7833 45.8554 33.674 45.6416 33.4601C45.4277 33.2462 45.3184 32.9088 45.3184 32.4572V30.9553H44.6387V30.2804H45.3184V29.2443H46.0693V30.2804H47.3764V30.9553V30.9458ZM49.0351 33.6835H48.2889V28.5504H49.0351V33.6835ZM51.6587 30.1806C51.8963 30.1806 52.1149 30.2234 52.3146 30.3089C52.5142 30.3945 52.6853 30.5181 52.8231 30.6749C52.9657 30.8318 53.075 31.0219 53.1558 31.2405C53.2366 31.4591 53.2746 31.7015 53.2746 31.9677C53.2746 32.0152 53.2746 32.0627 53.2746 32.1103C53.2746 32.1578 53.2699 32.2006 53.2651 32.2481H50.7414C50.7651 32.405 50.8079 32.5333 50.8744 32.6426C50.9362 32.7519 51.017 32.8422 51.1073 32.9135C51.1976 32.9848 51.2975 33.0371 51.4115 33.0704C51.5256 33.1036 51.6397 33.1226 51.7632 33.1226C51.9343 33.1226 52.1054 33.0894 52.2765 33.0276C52.4476 32.9658 52.6045 32.8755 52.7471 32.7614L53.1178 33.2937C52.9087 33.4743 52.6853 33.5979 52.4524 33.6692C52.2195 33.7405 51.9724 33.7738 51.711 33.7738C51.4495 33.7738 51.2167 33.731 51.0028 33.6454C50.7889 33.5599 50.6035 33.4363 50.4514 33.2795C50.2946 33.1226 50.1758 32.9325 50.0902 32.7139C50.0047 32.4953 49.9619 32.2481 49.9619 31.9772C49.9619 31.7063 50.0047 31.4686 50.0855 31.2453C50.171 31.0266 50.2851 30.8365 50.4372 30.6749C50.5893 30.5181 50.7651 30.3945 50.9743 30.3089C51.1834 30.2234 51.4115 30.1806 51.6634 30.1806H51.6587ZM51.6444 30.8413C51.5113 30.8413 51.3925 30.8603 51.2879 30.9031C51.1834 30.9411 51.0931 31.0029 51.0218 31.0742C50.9457 31.1502 50.884 31.2358 50.8364 31.3403C50.7889 31.4449 50.7556 31.5589 50.7366 31.6825H52.5094C52.4714 31.4164 52.3763 31.2072 52.2243 31.0599C52.0769 30.9126 51.8821 30.8413 51.6444 30.8413ZM56.5208 31.1217C56.4686 31.0884 56.402 31.0599 56.326 31.0219C56.2499 30.9886 56.1644 30.9553 56.0741 30.9268C55.979 30.8983 55.884 30.8745 55.7794 30.8555C55.6748 30.8365 55.5703 30.827 55.4657 30.827C55.2613 30.827 55.1045 30.865 54.9904 30.9411C54.8763 31.0171 54.8193 31.1122 54.8193 31.2358C54.8193 31.2928 54.8336 31.3451 54.8621 31.3831C54.8906 31.4259 54.9334 31.4591 54.9809 31.4829C55.0284 31.5114 55.0902 31.5304 55.1568 31.5447C55.2233 31.5589 55.2994 31.5732 55.3754 31.5875L55.7271 31.6397C56.1026 31.6968 56.3925 31.8013 56.6016 31.9677C56.8108 32.1293 56.9153 32.3574 56.9153 32.6521C56.9153 32.8184 56.8821 32.9658 56.8108 33.1036C56.7395 33.2415 56.6397 33.3603 56.5066 33.4553C56.3735 33.5551 56.2119 33.6312 56.017 33.6835C55.8222 33.7357 55.6035 33.7643 55.3611 33.7643C55.2756 33.7643 55.171 33.7595 55.057 33.75C54.9381 33.7405 54.8193 33.7167 54.6862 33.6882C54.5532 33.655 54.4248 33.6122 54.287 33.5551C54.1492 33.4981 54.0208 33.4221 53.8973 33.3318L54.2442 32.7709C54.306 32.8184 54.3726 32.8612 54.4438 32.904C54.5151 32.9468 54.5959 32.9848 54.691 33.0133C54.7813 33.0466 54.8811 33.0704 54.9952 33.0894C55.1045 33.1084 55.2328 33.1179 55.3706 33.1179C55.6273 33.1179 55.8222 33.0799 55.9505 33.0038C56.0836 32.9278 56.1454 32.828 56.1454 32.6996C56.1454 32.5998 56.0978 32.5238 56.0028 32.4572C55.9077 32.3954 55.7556 32.3479 55.5513 32.3194L55.1948 32.2719C54.8146 32.2196 54.5246 32.1103 54.3298 31.9392C54.1349 31.7681 54.0351 31.5447 54.0351 31.269C54.0351 31.1027 54.0684 30.9506 54.1349 30.8127C54.2014 30.6797 54.2917 30.5608 54.4153 30.4705C54.5389 30.3755 54.6862 30.3042 54.8573 30.2519C55.0332 30.1996 55.2281 30.1759 55.4467 30.1759C55.7176 30.1759 55.9695 30.2091 56.2071 30.2709C56.4448 30.3327 56.6539 30.423 56.8298 30.5371L56.5113 31.1169L56.5208 31.1217ZM60.1235 31.1217C60.0712 31.0884 60.0047 31.0599 59.9286 31.0219C59.8526 30.9886 59.767 30.9553 59.6767 30.9268C59.5817 30.8983 59.4866 30.8745 59.3821 30.8555C59.2775 30.8365 59.1729 30.827 59.0684 30.827C58.864 30.827 58.7071 30.865 58.5931 30.9411C58.479 31.0171 58.422 31.1122 58.422 31.2358C58.422 31.2928 58.4362 31.3451 58.4648 31.3831C58.4933 31.4259 58.536 31.4591 58.5836 31.4829C58.6311 31.5114 58.6929 31.5304 58.7594 31.5447C58.826 31.5589 58.902 31.5732 58.9781 31.5875L59.3298 31.6397C59.7052 31.6968 59.9952 31.8013 60.2043 31.9677C60.4134 32.1293 60.518 32.3574 60.518 32.6521C60.518 32.8184 60.4847 32.9658 60.4134 33.1036C60.3421 33.2415 60.2423 33.3603 60.1092 33.4553C59.9762 33.5551 59.8146 33.6312 59.6197 33.6835C59.4248 33.7357 59.2062 33.7643 58.9638 33.7643C58.8783 33.7643 58.7737 33.7595 58.6596 33.75C58.5408 33.7405 58.422 33.7167 58.2889 33.6882C58.1558 33.655 58.0275 33.6122 57.8897 33.5551C57.7518 33.4981 57.6235 33.4221 57.4999 33.3318L57.8469 32.7709C57.9087 32.8184 57.9752 32.8612 58.0465 32.904C58.1178 32.9468 58.1986 32.9848 58.2936 33.0133C58.384 33.0466 58.4838 33.0704 58.5978 33.0894C58.7071 33.1084 58.8355 33.1179 58.9733 33.1179C59.23 33.1179 59.4248 33.0799 59.5532 33.0038C59.6862 32.9278 59.748 32.828 59.748 32.6996C59.748 32.5998 59.7005 32.5238 59.6054 32.4572C59.5104 32.3954 59.3583 32.3479 59.1539 32.3194L58.7975 32.2719C58.4172 32.2196 58.1273 32.1103 57.9324 31.9392C57.7376 31.7681 57.6378 31.5447 57.6378 31.269C57.6378 31.1027 57.671 30.9506 57.7376 30.8127C57.8041 30.6797 57.8944 30.5608 58.018 30.4705C58.1416 30.3802 58.2889 30.3042 58.46 30.2519C58.6359 30.1996 58.8307 30.1759 59.0494 30.1759C59.3203 30.1759 59.5722 30.2091 59.8098 30.2709C60.0475 30.3327 60.2566 30.423 60.4324 30.5371L60.114 31.1169L60.1235 31.1217ZM27.9419 41.2833L27.4476 40.0095H25.19L24.6957 41.2833H23.8592L25.8317 36.2928H26.8393L28.8117 41.2833H27.9419ZM25.4847 39.2491H27.153L26.3212 37.096L25.4847 39.2491ZM31.0123 37.7804C31.2689 37.7804 31.5066 37.828 31.73 37.9183C31.9486 38.0086 32.1387 38.1464 32.2908 38.327L31.8155 38.8356C31.6967 38.7215 31.5684 38.6359 31.44 38.5742C31.307 38.5124 31.1644 38.4838 30.998 38.4838C30.8554 38.4838 30.7224 38.5124 30.5988 38.5646C30.4752 38.6169 30.3659 38.693 30.2803 38.788C30.19 38.8831 30.1187 39.0019 30.0665 39.135C30.0142 39.2681 29.9904 39.4154 29.9904 39.577C29.9904 39.7386 30.0142 39.8859 30.0665 40.019C30.1187 40.1521 30.19 40.2709 30.2803 40.366C30.3706 40.461 30.4752 40.5371 30.5988 40.5894C30.7224 40.6416 30.8554 40.6702 30.998 40.6702C31.1644 40.6702 31.3165 40.6369 31.4591 40.5703C31.6016 40.5038 31.7252 40.4183 31.8345 40.3137L32.2956 40.827C32.1387 41.0076 31.9486 41.1454 31.73 41.2357C31.5113 41.326 31.2737 41.3736 31.017 41.3736C30.7461 41.3736 30.499 41.326 30.2803 41.2357C30.057 41.1454 29.8716 41.0171 29.7148 40.8603C29.5579 40.6987 29.4391 40.5086 29.3535 40.2899C29.268 40.0713 29.2252 39.8336 29.2252 39.577C29.2252 39.3203 29.268 39.0827 29.3535 38.8641C29.4391 38.6454 29.5627 38.4553 29.7148 38.2937C29.8716 38.1321 30.0617 38.0086 30.2803 37.9183C30.499 37.828 30.7461 37.7804 31.017 37.7804H31.0123ZM34.6007 37.7804C34.8573 37.7804 35.095 37.828 35.3184 37.9183C35.537 38.0086 35.7271 38.1464 35.8792 38.327L35.4039 38.8356C35.2851 38.7215 35.1568 38.6359 35.0284 38.5742C34.8954 38.5124 34.7528 38.4838 34.5864 38.4838C34.4438 38.4838 34.3108 38.5124 34.1872 38.5646C34.0636 38.6169 33.9543 38.693 33.8687 38.788C33.7784 38.8831 33.7071 39.0019 33.6549 39.135C33.6026 39.2681 33.5788 39.4154 33.5788 39.577C33.5788 39.7386 33.6026 39.8859 33.6549 40.019C33.7071 40.1521 33.7784 40.2709 33.8687 40.366C33.9591 40.461 34.0684 40.5371 34.1872 40.5894C34.3108 40.6416 34.4438 40.6702 34.5864 40.6702C34.7528 40.6702 34.9049 40.6369 35.0475 40.5703C35.19 40.5038 35.3136 40.4183 35.4229 40.3137L35.884 40.827C35.7271 41.0076 35.537 41.1454 35.3184 41.2357C35.0997 41.326 34.8621 41.3736 34.6054 41.3736C34.3345 41.3736 34.0874 41.326 33.8687 41.2357C33.6454 41.1454 33.46 41.0171 33.3032 40.8603C33.1463 40.6987 33.0227 40.5086 32.9419 40.2899C32.8564 40.0713 32.8136 39.8336 32.8136 39.577C32.8136 39.3203 32.8564 39.0827 32.9419 38.8641C33.0275 38.6454 33.1511 38.4553 33.3032 38.2937C33.46 38.1321 33.6501 38.0086 33.8687 37.9183C34.0874 37.828 34.3345 37.7804 34.6054 37.7804H34.6007ZM38.094 37.7804C38.3317 37.7804 38.5503 37.8232 38.7499 37.9087C38.9495 37.9943 39.1206 38.1179 39.2585 38.2747C39.4011 38.4316 39.5104 38.6217 39.5912 38.8403C39.672 39.0589 39.71 39.3013 39.71 39.5675C39.71 39.615 39.71 39.6626 39.71 39.7101C39.71 39.7576 39.7052 39.8004 39.7005 39.8479H37.1767C37.2005 40.0048 37.2433 40.1331 37.3098 40.2424C37.3716 40.3517 37.4524 40.442 37.5427 40.5133C37.633 40.5846 37.7328 40.6369 37.8469 40.6702C37.961 40.7034 38.075 40.7224 38.1986 40.7224C38.3697 40.7224 38.5408 40.6892 38.7119 40.6274C38.883 40.5656 39.0398 40.4753 39.1824 40.3612L39.5532 40.8935C39.344 41.0741 39.1206 41.1977 38.8878 41.269C38.6549 41.3403 38.4077 41.3736 38.1463 41.3736C37.8849 41.3736 37.652 41.3308 37.4381 41.2452C37.2243 41.1597 37.0389 41.0361 36.8868 40.8793C36.73 40.7224 36.6111 40.5323 36.5256 40.3137C36.44 40.0951 36.3973 39.8479 36.3973 39.577C36.3973 39.3061 36.44 39.0684 36.5208 38.8451C36.6064 38.6264 36.7205 38.4363 36.8726 38.2747C37.0246 38.1179 37.2005 37.9943 37.4096 37.9087C37.6187 37.8232 37.8469 37.7804 38.0988 37.7804H38.094ZM38.0798 38.4411C37.9467 38.4411 37.8279 38.4601 37.7233 38.5029C37.6187 38.5409 37.5284 38.6027 37.4571 38.674C37.3811 38.75 37.3193 38.8356 37.2718 38.9401C37.2243 39.0447 37.191 39.1587 37.172 39.2823H38.9448C38.9068 39.0162 38.8117 38.807 38.6596 38.6597C38.5123 38.5124 38.3174 38.4411 38.0798 38.4411ZM42.4476 37.7804C42.6853 37.7804 42.9087 37.8232 43.1178 37.9135C43.3269 38.0038 43.5075 38.1274 43.6596 38.2842C43.8165 38.4411 43.9353 38.6312 44.0208 38.8546C44.1111 39.0732 44.1539 39.3156 44.1539 39.577C44.1539 39.8384 44.1111 40.0808 44.0208 40.2994C43.9353 40.5181 43.8117 40.7082 43.6596 40.8698C43.5028 41.0314 43.3222 41.1549 43.1178 41.2405C42.9134 41.326 42.6853 41.3736 42.4476 41.3736C42.21 41.3736 41.9914 41.3308 41.8203 41.2357C41.6444 41.1454 41.4971 41.0266 41.3783 40.8745V42.7091H40.6321V37.8707H41.3783V38.2747C41.4971 38.1274 41.6444 38.0038 41.8203 37.9135C41.9961 37.8232 42.2052 37.7804 42.4476 37.7804ZM42.3573 38.4838C42.2005 38.4838 42.0627 38.5124 41.9343 38.5694C41.8108 38.6264 41.7014 38.7025 41.6111 38.7975C41.5208 38.8926 41.4495 39.0114 41.402 39.1445C41.3545 39.2776 41.326 39.4249 41.326 39.5817C41.326 39.7386 41.3497 39.8859 41.402 40.019C41.4543 40.1521 41.5208 40.2662 41.6111 40.366C41.7014 40.4658 41.8108 40.5418 41.9343 40.5941C42.0627 40.6511 42.2005 40.6797 42.3573 40.6797C42.5142 40.6797 42.6615 40.6511 42.7898 40.5941C42.9182 40.5371 43.0275 40.4563 43.113 40.3565C43.1986 40.2567 43.2699 40.1426 43.3174 40.0095C43.3649 39.8764 43.3887 39.7338 43.3887 39.5865C43.3887 39.4392 43.3649 39.2966 43.3174 39.1635C43.2699 39.0304 43.2033 38.9164 43.113 38.8165C43.0227 38.7167 42.9182 38.6407 42.7898 38.5789C42.6615 38.5219 42.5189 38.4933 42.3573 38.4933V38.4838ZM47.3668 38.5456H46.0598V40.0333C46.0598 40.1473 46.0741 40.2472 46.1026 40.3279C46.1311 40.4087 46.1691 40.4753 46.2167 40.5276C46.2642 40.5798 46.3212 40.6179 46.3878 40.6416C46.4543 40.6654 46.5256 40.6797 46.6016 40.6797C46.7205 40.6797 46.8345 40.6559 46.9581 40.6131C47.0769 40.5703 47.191 40.5133 47.2908 40.4515L47.5855 41.0456C47.4476 41.1407 47.2908 41.2167 47.1197 41.2833C46.9486 41.3498 46.7537 41.3831 46.5351 41.3831C46.1501 41.3831 45.8459 41.2738 45.6321 41.0599C45.4182 40.846 45.3089 40.5086 45.3089 40.057V38.5551H44.6292V37.8802H45.3089V36.8441H46.0598V37.8802H47.3668V38.5551V38.5456ZM49.729 37.7804C49.9667 37.7804 50.1853 37.8232 50.3849 37.9087C50.5845 37.9943 50.7556 38.1179 50.8935 38.2747C51.036 38.4316 51.1454 38.6217 51.2262 38.8403C51.307 39.0589 51.345 39.3013 51.345 39.5675C51.345 39.615 51.345 39.6626 51.345 39.7101C51.345 39.7576 51.3402 39.8004 51.3355 39.8479H48.8117C48.8355 40.0048 48.8783 40.1331 48.9448 40.2424C49.0066 40.3517 49.0874 40.442 49.1777 40.5133C49.268 40.5846 49.3678 40.6369 49.4819 40.6702C49.5959 40.7034 49.71 40.7224 49.8336 40.7224C50.0047 40.7224 50.1758 40.6892 50.3469 40.6274C50.518 40.5656 50.6748 40.4753 50.8174 40.3612L51.1881 40.8935C50.979 41.0741 50.7556 41.1977 50.5227 41.269C50.2898 41.3403 50.0427 41.3736 49.7813 41.3736C49.5199 41.3736 49.287 41.3308 49.0731 41.2452C48.8592 41.1597 48.6739 41.0361 48.5218 40.8793C48.3649 40.7224 48.2461 40.5323 48.1606 40.3137C48.075 40.0951 48.0322 39.8479 48.0322 39.577C48.0322 39.3061 48.075 39.0684 48.1558 38.8451C48.2414 38.6264 48.3554 38.4363 48.5075 38.2747C48.6596 38.1179 48.8355 37.9943 49.0446 37.9087C49.2537 37.8232 49.4819 37.7804 49.7338 37.7804H49.729ZM49.7148 38.4411C49.5817 38.4411 49.4629 38.4601 49.3583 38.5029C49.2537 38.5409 49.1634 38.6027 49.0921 38.674C49.0161 38.75 48.9543 38.8356 48.9068 38.9401C48.8592 39.0447 48.826 39.1587 48.807 39.2823H50.5798C50.5418 39.0162 50.4467 38.807 50.2946 38.6597C50.1473 38.5124 49.9524 38.4411 49.7148 38.4411ZM53.7309 37.7804C53.9781 37.7804 54.1872 37.828 54.363 37.9183C54.5389 38.0086 54.6862 38.1321 54.8051 38.2842V36.1549H55.5513V41.288H54.8051V40.8793C54.6862 41.0314 54.5389 41.1549 54.363 41.2405C54.1872 41.3308 53.9781 41.3783 53.7309 41.3783C53.4838 41.3783 53.2699 41.3356 53.0608 41.2452C52.8564 41.1549 52.6758 41.0314 52.5189 40.8745C52.3621 40.7177 52.2433 40.5276 52.1577 40.3042C52.0674 40.0856 52.0246 39.8432 52.0246 39.5817C52.0246 39.3203 52.0674 39.0779 52.1577 38.8593C52.2433 38.6407 52.3668 38.4506 52.5189 38.289C52.6758 38.1274 52.8516 38.0038 53.0608 37.9183C53.2699 37.828 53.4933 37.7852 53.7309 37.7852V37.7804ZM53.8212 38.4838C53.6596 38.4838 53.517 38.5124 53.3887 38.5694C53.2604 38.6264 53.1558 38.7072 53.0655 38.807C52.98 38.9068 52.9087 39.0209 52.8611 39.154C52.8136 39.2871 52.7898 39.4297 52.7898 39.577C52.7898 39.7243 52.8136 39.8669 52.8611 40C52.9087 40.1331 52.9752 40.2471 53.0655 40.347C53.1558 40.4468 53.2604 40.5228 53.3887 40.5846C53.517 40.6416 53.6596 40.6702 53.8212 40.6702C53.9828 40.6702 54.1159 40.6416 54.2442 40.5846C54.3678 40.5276 54.4771 40.4515 54.5674 40.3565C54.6577 40.2567 54.729 40.1426 54.7765 40.0095C54.8241 39.8764 54.8526 39.7291 54.8526 39.5722C54.8526 39.4154 54.8288 39.2728 54.7765 39.135C54.7243 39.0019 54.6577 38.8878 54.5674 38.788C54.4771 38.6882 54.3678 38.6122 54.2442 38.5599C54.1159 38.5029 53.9781 38.4743 53.8212 38.4743V38.4838Z" fill="white"/>
</g>
<defs>
<clipPath id="clip0_1801_20145">
<rect width="80" height="50.5893" rx="8" fill="white"/>
</clipPath>
</defs>
</svg>
