<svg width="80" height="25" viewBox="0 0 80 25" fill="none" xmlns="http://www.w3.org/2000/svg">
<g clip-path="url(#clip0_1801_18880)">
<g clip-path="url(#clip1_1801_18880)">
<path d="M6.92175 16.5826C6.50334 16.3179 6.06664 16.1122 5.61124 15.9655C5.15584 15.8193 4.67947 15.7463 4.18224 15.7463C3.85704 15.7463 3.55954 15.7802 3.29015 15.8475C3.02049 15.9144 2.78929 16.012 2.59643 16.1405C2.40383 16.2684 2.25374 16.4213 2.14695 16.5999C2.04003 16.7789 1.9865 16.9804 1.9865 17.2032C1.9865 17.4074 2.03317 17.5816 2.1261 17.7257C2.21904 17.8699 2.35272 17.9919 2.52703 18.0918C2.70106 18.1919 2.91383 18.2739 3.16466 18.3392C3.41576 18.4044 3.69914 18.4604 4.01493 18.5068L4.69117 18.5971C5.08604 18.653 5.4719 18.7392 5.84822 18.8555C6.22453 18.9713 6.56023 19.1338 6.85544 19.3432C7.15039 19.5519 7.38763 19.8151 7.56638 20.1308C7.74552 20.4466 7.83496 20.8301 7.83496 21.2808C7.83496 21.7782 7.73032 22.2173 7.52119 22.5983C7.31178 22.9793 7.0284 23.3 6.67078 23.5598C6.31262 23.8205 5.89798 24.0182 5.42658 24.1528C4.95464 24.2874 4.45406 24.3548 3.92428 24.3548C3.5941 24.3548 3.25168 24.3271 2.89621 24.2708C2.54075 24.2155 2.18972 24.133 1.84353 24.024C1.49748 23.9143 1.16622 23.7785 0.850026 23.6162C0.533965 23.4533 0.250587 23.2629 -0.000244141 23.044L0.857154 21.7897C1.02473 21.9427 1.2254 22.0851 1.46022 22.2152C1.69465 22.3452 1.94669 22.4589 2.21635 22.5565C2.48601 22.6536 2.76575 22.7299 3.05626 22.7831C3.34663 22.8364 3.63391 22.8635 3.91702 22.8635C4.23792 22.8635 4.53637 22.8311 4.81288 22.7658C5.08954 22.7007 5.33001 22.6051 5.53431 22.4798C5.73861 22.3545 5.90027 22.2021 6.01876 22.0231C6.13751 21.8446 6.19669 21.6437 6.19669 21.4207C6.19669 21.0391 6.00934 20.7489 5.63558 20.549C5.26129 20.3492 4.71659 20.2004 4.00095 20.1028L3.24119 19.9986C2.8786 19.9472 2.5242 19.8637 2.17815 19.7473C1.8321 19.6322 1.52303 19.4681 1.25095 19.2563C0.979005 19.0449 0.760587 18.7802 0.595832 18.4617C0.430539 18.1439 0.348095 17.7571 0.348095 17.3013C0.348095 16.8132 0.449369 16.38 0.651647 16.0009C0.853522 15.6225 1.12897 15.3041 1.47744 15.0461C1.82591 14.7877 2.23383 14.5915 2.70079 14.4573C3.16776 14.3221 3.66606 14.2549 4.1961 14.2549C4.90717 14.2549 5.54951 14.3487 6.12312 14.5372C6.69714 14.7252 7.23054 14.9821 7.72333 15.3071L6.92175 16.5826ZM12.2403 17.3286C12.7047 17.3286 13.1312 17.4137 13.5192 17.5829C13.9071 17.7531 14.2393 17.992 14.5159 18.3012C14.7925 18.6103 15.0085 18.9798 15.1643 19.4093C15.3197 19.8395 15.3977 20.3145 15.3977 20.8351C15.3977 20.9278 15.3953 21.0208 15.3908 21.1138C15.3858 21.2066 15.3791 21.2949 15.3697 21.3785H10.4346C10.481 21.6807 10.5672 21.9385 10.6924 22.1521C10.8176 22.3661 10.9691 22.5416 11.1455 22.6788C11.3222 22.8157 11.5196 22.9169 11.7384 22.9815C11.9565 23.0467 12.1841 23.0791 12.4212 23.0791C12.7561 23.0791 13.0914 23.0181 13.4284 22.895C13.7656 22.7717 14.0733 22.5985 14.3521 22.3756L15.0769 23.4139C14.6682 23.7626 14.235 24.0069 13.7772 24.1457C13.3193 24.2856 12.8373 24.3551 12.3307 24.3551C11.8288 24.3551 11.3685 24.271 10.9505 24.1045C10.5324 23.9371 10.1722 23.7 9.87012 23.3936C9.56791 23.0867 9.33322 22.7171 9.16618 22.2848C8.99887 21.8526 8.91508 21.3719 8.91508 20.842C8.91508 20.3215 8.99631 19.845 9.15905 19.4132C9.32165 18.981 9.54949 18.6104 9.84201 18.3014C10.1349 17.9922 10.4844 17.7532 10.8913 17.5831C11.2978 17.4137 11.7475 17.3286 12.2403 17.3286ZM12.2121 18.6251C11.9518 18.6251 11.7209 18.6642 11.5186 18.7432C11.3166 18.8231 11.142 18.9353 10.9958 19.082C10.8496 19.2282 10.7298 19.4025 10.637 19.6045C10.5438 19.8065 10.4788 20.0283 10.4417 20.2701H13.906C13.8269 19.7496 13.6412 19.3451 13.3483 19.0574C13.0556 18.7694 12.6769 18.6251 12.2121 18.6251ZM19.9563 17.3286C20.4583 17.3286 20.9252 17.4179 21.3572 17.5969C21.7898 17.7759 22.1544 18.0421 22.452 18.3951L21.5176 19.3916C21.2808 19.1687 21.0345 18.9979 20.7789 18.8794C20.5234 18.7609 20.2353 18.702 19.9147 18.702C19.6357 18.702 19.3752 18.7542 19.1338 18.8586C18.8921 18.963 18.683 19.1097 18.5065 19.2976C18.3298 19.4856 18.1915 19.7116 18.0916 19.9737C17.9919 20.2367 17.9418 20.5259 17.9418 20.8417C17.9418 21.1575 17.9919 21.4473 18.0916 21.7097C18.1915 21.9724 18.3298 22.1978 18.5065 22.3858C18.683 22.5736 18.892 22.7198 19.1338 22.8248C19.3752 22.9292 19.6357 22.9814 19.9147 22.9814C20.2352 22.9814 20.5348 22.9152 20.8136 22.783C21.0926 22.6509 21.3389 22.4843 21.5525 22.2844L22.452 23.2883C22.1452 23.6412 21.7781 23.9075 21.3505 24.0865C20.923 24.2655 20.4584 24.3548 19.9565 24.3548C19.4266 24.3548 18.9456 24.2655 18.5134 24.0865C18.0815 23.9075 17.7119 23.6611 17.4051 23.3479C17.0985 23.0341 16.8615 22.6636 16.6942 22.2355C16.5269 21.8084 16.4431 21.3439 16.4431 20.8417C16.4431 20.3402 16.5269 19.875 16.6942 19.4474C16.8615 19.0199 17.0985 18.6492 17.4051 18.3361C17.7118 18.0223 18.0814 17.7759 18.5134 17.5969C18.9455 17.4179 19.4264 17.3286 19.9563 17.3286ZM29.924 21.3506C29.924 21.88 29.8357 22.3357 29.6593 22.7167C29.4825 23.0977 29.25 23.4095 28.9621 23.651C28.6738 23.8928 28.3441 24.0702 27.9723 24.184C27.6004 24.2979 27.2193 24.3548 26.8288 24.3548C26.4387 24.3548 26.0577 24.2979 25.6859 24.184C25.3139 24.0702 24.9831 23.8928 24.6924 23.651C24.4019 23.4095 24.1696 23.0977 23.9955 22.7167C23.8209 22.3357 23.734 21.8799 23.734 21.3506V17.503H25.1977V21.2182C25.1977 21.5385 25.2398 21.8122 25.3231 22.0371C25.4068 22.2626 25.522 22.4449 25.6683 22.5846C25.8148 22.7235 25.9877 22.8248 26.1874 22.8875C26.3874 22.9502 26.6011 22.9814 26.8287 22.9814C27.0565 22.9814 27.2701 22.9502 27.4704 22.8875C27.67 22.8248 27.8431 22.7235 27.9895 22.5846C28.136 22.4449 28.251 22.2625 28.3345 22.0371C28.418 21.8122 28.4601 21.5385 28.4601 21.2182V17.503H29.9238V21.3506H29.924ZM35.2422 17.3286C35.4654 17.3286 35.666 17.3437 35.8452 17.3739C36.0242 17.4038 36.1973 17.4517 36.3646 17.5165L36.0161 18.9599C35.8627 18.8804 35.6836 18.8205 35.4795 18.7782C35.2749 18.7363 35.0841 18.7155 34.9076 18.7155C34.6753 18.7155 34.4619 18.7552 34.2666 18.8341C34.0713 18.9133 33.9038 19.0293 33.7647 19.1827C33.6251 19.3362 33.516 19.5242 33.4368 19.7469C33.3577 19.9705 33.3183 20.2236 33.3183 20.5071V24.1804H31.8613V17.503H33.3045V18.2557C33.5273 17.9346 33.804 17.7002 34.1339 17.5516C34.4639 17.4027 34.8335 17.3286 35.2422 17.3286ZM40.1361 17.3286C40.6007 17.3286 41.0271 17.4137 41.4151 17.5829C41.8035 17.7531 42.1354 17.992 42.4121 18.3012C42.6882 18.6103 42.9042 18.9798 43.0604 19.4093C43.2153 19.8395 43.2932 20.3145 43.2932 20.8351C43.2932 20.9278 43.2909 21.0208 43.2869 21.1138C43.2816 21.2066 43.2749 21.2949 43.2655 21.3785H38.3303C38.3767 21.6807 38.4627 21.9385 38.5882 22.1521C38.7135 22.3661 38.8648 22.5416 39.0411 22.6788C39.2179 22.8157 39.4149 22.9169 39.6337 22.9815C39.8519 23.0467 40.08 23.0791 40.3164 23.0791C40.6516 23.0791 40.9873 23.0181 41.3239 22.895C41.6612 22.7717 41.9687 22.5985 42.2479 22.3756L42.9724 23.4139C42.5637 23.7626 42.1303 24.0069 41.6727 24.1457C41.2148 24.2856 40.7331 24.3551 40.2262 24.3551C39.7245 24.3551 39.2641 24.271 38.8459 24.1045C38.4277 23.9371 38.0676 23.7 37.7656 23.3936C37.4633 23.0867 37.2287 22.7171 37.0617 22.2848C36.8941 21.8526 36.8106 21.3719 36.8106 20.842C36.8106 20.3215 36.8918 19.845 37.0545 19.4132C37.2171 18.981 37.4447 18.6104 37.7376 18.3014C38.0304 17.9922 38.38 17.7532 38.7866 17.5831C39.1935 17.4137 39.6433 17.3286 40.1361 17.3286ZM40.1078 18.6251C39.8478 18.6251 39.6166 18.6642 39.4142 18.7432C39.2124 18.8231 39.0378 18.9353 38.8913 19.082C38.7451 19.2282 38.6253 19.4025 38.5326 19.6045C38.4396 19.8065 38.3745 20.0283 38.3375 20.2701H41.8023C41.7228 19.7496 41.5371 19.3451 41.2443 19.0574C40.9514 18.7694 40.573 18.6251 40.1078 18.6251ZM49.5808 14.2403C50.013 14.2403 50.4317 14.2867 50.8356 14.3797C51.2403 14.4732 51.6162 14.6072 51.9648 14.7842C52.313 14.9612 52.6299 15.1757 52.9128 15.4295C53.1962 15.6827 53.4339 15.9667 53.6238 16.283L52.3068 17.161C52.0086 16.724 51.6271 16.3805 51.16 16.1296C50.6922 15.879 50.1666 15.7537 49.5809 15.7537C49.0834 15.7537 48.6234 15.8393 48.2007 16.011C47.7777 16.1832 47.413 16.4249 47.1059 16.7361C46.7996 17.0472 46.5589 17.4217 46.3852 17.8585C46.2107 18.2955 46.1236 18.7761 46.1236 19.3013C46.1236 19.8265 46.2107 20.3078 46.3852 20.7443C46.5589 21.1813 46.7996 21.5549 47.1059 21.8667C47.4129 22.1783 47.7777 22.4194 48.2007 22.5912C48.6234 22.7635 49.0834 22.8492 49.5809 22.8492C50.1614 22.8492 50.6833 22.7265 51.1455 22.4801C51.6084 22.2337 51.9926 21.8902 52.2995 21.4485L53.5826 22.3897C53.3732 22.6961 53.1286 22.9702 52.8472 23.2119C52.5662 23.4536 52.2546 23.6603 51.9126 23.8324C51.5707 24.0042 51.2037 24.1357 50.8112 24.2262C50.4182 24.317 50.0084 24.3625 49.581 24.3625C48.8328 24.3625 48.1449 24.2357 47.518 23.982C46.8906 23.7291 46.3513 23.3768 45.9009 22.9264C45.4498 22.4753 45.0992 21.9413 44.8479 21.3232C44.5975 20.7045 44.4716 20.0314 44.4716 19.3015C44.4716 18.5716 44.5975 17.8983 44.8479 17.2798C45.0992 16.6616 45.4499 16.1273 45.9009 15.6767C46.3514 15.2262 46.8906 14.8743 47.518 14.6212C48.1448 14.3672 48.8327 14.2403 49.5808 14.2403ZM58.1898 17.3286C58.7055 17.3286 59.1827 17.4179 59.6217 17.5969C60.0612 17.7759 60.4407 18.0223 60.7612 18.3361C61.0823 18.6492 61.3328 19.0199 61.5145 19.4474C61.6957 19.875 61.7861 20.3402 61.7861 20.8417C61.7861 21.3439 61.6957 21.8084 61.5145 22.2355C61.3328 22.6636 61.0823 23.0341 60.7612 23.3479C60.4407 23.6611 60.0612 23.9075 59.6217 24.0865C59.1825 24.2655 58.7054 24.3548 58.1898 24.3548C57.6735 24.3548 57.1958 24.2655 56.7569 24.0865C56.3174 23.9075 55.9389 23.6611 55.621 23.3479C55.3021 23.0341 55.0532 22.6636 54.8715 22.2355C54.6903 21.8084 54.6001 21.3439 54.6001 20.8417C54.6001 20.3402 54.6903 19.875 54.8715 19.4474C55.0533 19.0199 55.3021 18.6492 55.621 18.3361C55.9389 18.0223 56.3175 17.7759 56.7569 17.5969C57.1959 17.4179 57.6735 17.3286 58.1898 17.3286ZM58.1898 18.702C57.8917 18.702 57.6154 18.7542 57.3597 18.8586C57.1046 18.963 56.8832 19.1097 56.6979 19.2976C56.5115 19.4856 56.3653 19.7116 56.2584 19.9737C56.1517 20.2367 56.0981 20.5259 56.0981 20.8417C56.0981 21.1575 56.1517 21.4473 56.2584 21.7097C56.3653 21.9724 56.5115 22.1978 56.6979 22.3858C56.8832 22.5736 57.1045 22.7198 57.3597 22.8248C57.6154 22.9292 57.8917 22.9814 58.1898 22.9814C58.4869 22.9814 58.763 22.9292 59.0187 22.8248C59.2739 22.7199 59.4964 22.5737 59.6843 22.3858C59.8728 22.1978 60.0199 21.9724 60.1275 21.7097C60.234 21.4473 60.2877 21.1575 60.2877 20.8417C60.2877 20.5259 60.234 20.2367 60.1275 19.9737C60.0199 19.7116 59.8728 19.4856 59.6843 19.2976C59.4964 19.1098 59.2739 18.9631 59.0187 18.8586C58.763 18.7541 58.4869 18.702 58.1898 18.702ZM66.1708 17.3286C66.6496 17.3286 67.0609 17.4179 67.4044 17.5969C67.7484 17.7759 68.0365 18.0144 68.2695 18.3115V14.1427H69.7263V24.1804H68.2695V23.3792C68.0367 23.6763 67.7484 23.9137 67.4044 24.0901C67.0609 24.2667 66.6496 24.3548 66.1708 24.3548C65.7016 24.3548 65.2647 24.2682 64.8606 24.0934C64.456 23.9189 64.1031 23.6763 63.8011 23.3647C63.4987 23.054 63.2617 22.6835 63.09 22.2532C62.9178 21.8235 62.8322 21.3528 62.8322 20.8417C62.8322 20.3306 62.9178 19.8598 63.09 19.4302C63.2617 19.0006 63.4987 18.6294 63.8011 18.3182C64.1031 18.0071 64.456 17.7643 64.8606 17.59C65.2647 17.4157 65.7016 17.3286 66.1708 17.3286ZM66.3453 18.702C66.0288 18.702 65.747 18.7589 65.498 18.8722C65.2494 18.9865 65.0396 19.14 64.8675 19.3325C64.6956 19.5253 64.563 19.7518 64.47 20.0123C64.3772 20.2728 64.3307 20.5489 64.3307 20.8418C64.3307 21.1342 64.3772 21.4109 64.47 21.6714C64.563 21.9319 64.6956 22.1584 64.8675 22.3511C65.0395 22.5437 65.2494 22.6972 65.498 22.8115C65.747 22.9253 66.0288 22.9816 66.3453 22.9816C66.6469 22.9816 66.9209 22.9274 67.168 22.8177C67.4144 22.709 67.6257 22.5588 67.8021 22.3682C67.9787 22.1783 68.1153 21.9528 68.213 21.6924C68.3106 21.4323 68.3597 21.1489 68.3597 20.842C68.3597 20.5356 68.3106 20.2515 68.213 19.9916C68.1153 19.7311 67.9787 19.5063 67.8021 19.3157C67.6257 19.1252 67.4144 18.9753 67.168 18.8657C66.9209 18.7568 66.6469 18.702 66.3453 18.702ZM74.5778 17.3286C75.0424 17.3286 75.4684 17.4137 75.8564 17.5829C76.2441 17.7531 76.5772 17.992 76.8533 18.3012C77.1301 18.6103 77.3455 18.9798 77.5017 19.4093C77.6573 19.8395 77.735 20.3145 77.735 20.8351C77.735 20.9278 77.7322 21.0208 77.728 21.1138C77.7234 21.2066 77.716 21.2949 77.7073 21.3785H72.7722C72.8182 21.6807 72.9043 21.9385 73.0301 22.1521C73.1555 22.3661 73.3063 22.5416 73.4833 22.6788C73.6596 22.8157 73.8569 22.9169 74.0757 22.9815C74.2939 23.0467 74.522 23.0791 74.7584 23.0791C75.0936 23.0791 75.4291 23.0181 75.7659 22.895C76.1027 22.7717 76.4105 22.5985 76.6897 22.3756L77.4144 23.4139C77.0051 23.7626 76.5718 24.0069 76.114 24.1457C75.6568 24.2856 75.1751 24.3551 74.6681 24.3551C74.1665 24.3551 73.706 24.271 73.2878 24.1045C72.8697 23.9371 72.509 23.7 72.2073 23.3936C71.9056 23.0867 71.6707 22.7171 71.5036 22.2848C71.3362 21.8526 71.2527 21.3719 71.2527 20.842C71.2527 20.3215 71.3335 19.845 71.4964 19.4132C71.6592 18.981 71.8868 18.6104 72.1797 18.3014C72.4727 17.9922 72.8218 17.7532 73.2285 17.5831C73.6356 17.4137 74.0851 17.3286 74.5778 17.3286ZM78.4309 24.1804V23.8448H78.5664V23.776H78.2216V23.8448H78.3568V24.1804H78.4309ZM79.1007 24.1804V23.7753H78.9952L78.8736 24.054L78.7515 23.7753H78.6461V24.1804H78.7207V23.8749L78.8346 24.1381H78.9124L79.0261 23.874V24.1802H79.1007V24.1804ZM74.5498 18.6251C74.2891 18.6251 74.0585 18.6642 73.8559 18.7432C73.6539 18.8231 73.4796 18.9353 73.3329 19.082C73.1867 19.2282 73.0671 19.4025 72.9743 19.6045C72.8809 19.8065 72.816 20.0283 72.779 20.2701H76.2432C76.1643 19.7496 75.9789 19.3451 75.6861 19.0574C75.3932 18.7694 75.0143 18.6251 74.5498 18.6251Z" fill="#F79E1B"/>
<path d="M11.7181 10.4113H10.084V2.08238L7.127 9.42063H5.40629L2.44904 2.16173V10.4113H0.814941V0.289309H3.32406L6.26678 7.51943L9.20937 0.289309H11.7181V10.4113ZM20.3216 10.4113H18.8105V9.58001C18.5695 9.88853 18.2708 10.1341 17.9141 10.3173C17.5574 10.5007 17.1305 10.5923 16.6344 10.5923C16.1472 10.5923 15.6945 10.5018 15.275 10.3212C14.8556 10.1403 14.4892 9.88853 14.176 9.56535C13.8627 9.24283 13.6169 8.85831 13.4387 8.4122C13.2601 7.96621 13.1712 7.47827 13.1712 6.94823C13.1712 6.41779 13.2602 5.92971 13.4387 5.484C13.617 5.03842 13.8629 4.6535 14.176 4.33085C14.4892 4.00766 14.8556 3.75616 15.275 3.57499C15.6945 3.39437 16.1472 3.30372 16.6344 3.30372C17.1305 3.30372 17.5573 3.39692 17.9141 3.58239C18.2706 3.76799 18.5695 4.01492 18.8105 4.32318V3.48488H20.3216V10.4113ZM16.815 4.72841C16.4871 4.72841 16.1943 4.78759 15.9368 4.9054C15.6789 5.02389 15.4606 5.18313 15.2823 5.38272C15.1038 5.58325 14.9665 5.81754 14.8702 6.08774C14.7736 6.35794 14.7256 6.64441 14.7256 6.94823C14.7256 7.25178 14.7735 7.53866 14.8702 7.80845C14.9665 8.07852 15.1038 8.31375 15.2823 8.51347C15.4606 8.7136 15.6788 8.8723 15.9368 8.99092C16.1943 9.1086 16.4871 9.16778 16.815 9.16778C17.1285 9.16778 17.4127 9.11116 17.6682 8.99792C17.9238 8.88467 18.143 8.72933 18.3263 8.53149C18.5095 8.33392 18.6515 8.10031 18.753 7.83011C18.8541 7.56018 18.9046 7.26631 18.9046 6.94823C18.9046 6.62975 18.8541 6.33588 18.753 6.06595C18.6515 5.79575 18.5095 5.56214 18.3263 5.3643C18.1431 5.16726 17.9238 5.01139 17.6682 4.89814C17.4128 4.78517 17.1285 4.72841 16.815 4.72841ZM27.2623 5.21999C27.1566 5.15785 27.0264 5.09114 26.8722 5.02134C26.718 4.95167 26.5467 4.88792 26.3588 4.82982C26.1707 4.77212 25.972 4.72411 25.7623 4.68524C25.5525 4.64664 25.3392 4.62754 25.1224 4.62754C24.7079 4.62754 24.3861 4.70326 24.1571 4.85524C23.9282 5.00681 23.8136 5.206 23.8136 5.45185C23.8136 5.57222 23.8439 5.67323 23.9039 5.75514C23.9645 5.83758 24.0451 5.90496 24.1461 5.95795C24.2477 6.01121 24.3679 6.05304 24.5076 6.08451C24.6475 6.11585 24.7971 6.14342 24.956 6.16723L25.6717 6.27603C26.4285 6.38672 27.0188 6.60715 27.4431 6.93747C27.8676 7.26765 28.0795 7.72937 28.0795 8.32208C28.0795 8.65455 28.0082 8.95972 27.8662 9.23651C27.7239 9.5137 27.5191 9.75256 27.2516 9.95228C26.9841 10.1524 26.6539 10.3078 26.261 10.419C25.8683 10.5297 25.4234 10.5847 24.9271 10.5847C24.7488 10.5847 24.5414 10.5742 24.3054 10.5525C24.0692 10.5306 23.8185 10.4873 23.5537 10.4226C23.2883 10.3574 23.0184 10.2667 22.7437 10.1513C22.469 10.0358 22.206 9.88329 21.9556 9.69594L22.6569 8.56054C22.7821 8.65711 22.9183 8.74709 23.0653 8.83141C23.2126 8.91601 23.3786 8.99092 23.5642 9.05561C23.7498 9.12084 23.9549 9.17289 24.1788 9.21122C24.403 9.24982 24.6573 9.26892 24.9418 9.26892C25.4623 9.26892 25.8551 9.1932 26.1202 9.04136C26.3852 8.88978 26.518 8.6836 26.518 8.42309C26.518 8.22579 26.4215 8.06318 26.2286 7.93501C26.0356 7.80765 25.7322 7.71471 25.3177 7.65701L24.5947 7.56287C23.8233 7.45675 23.239 7.23188 22.8414 6.88677C22.4437 6.54246 22.2448 6.09056 22.2448 5.53107C22.2448 5.18865 22.3111 4.88012 22.4437 4.60589C22.576 4.33112 22.7665 4.09844 23.0148 3.908C23.263 3.71769 23.5632 3.57069 23.9151 3.46713C24.2669 3.3633 24.6647 3.31179 25.1081 3.31179C25.6528 3.31179 26.1659 3.37554 26.6484 3.50331C27.1303 3.63067 27.552 3.81022 27.9134 4.04182L27.2623 5.21999ZM34.4348 4.85847H31.7812V7.87382C31.7812 8.10474 31.8104 8.30258 31.8678 8.46653C31.9258 8.63008 32.0043 8.7643 32.103 8.868C32.2018 8.97169 32.3176 9.04754 32.4499 9.09556C32.5825 9.14357 32.7257 9.16778 32.8803 9.16778C33.1164 9.16778 33.3561 9.12246 33.5997 9.03033C33.8433 8.93874 34.0684 8.82805 34.2759 8.69799L34.8756 9.90521C34.596 10.0931 34.2816 10.255 33.9324 10.3897C33.5826 10.5247 33.1888 10.5925 32.75 10.5925C31.9644 10.5925 31.3532 10.3746 30.9172 9.93816C30.4808 9.50173 30.2629 8.82361 30.2629 7.9026V4.85847H28.8819V3.48502H30.2629V1.38812H31.7812V3.48502H34.4348V4.85847ZM39.0835 3.30385C39.5654 3.30385 40.0082 3.39208 40.4104 3.568C40.813 3.74392 41.1576 3.99219 41.4446 4.31296C41.7312 4.63346 41.9551 5.0169 42.1169 5.46221C42.2782 5.90832 42.3593 6.40124 42.3593 6.9411C42.3593 7.03767 42.3566 7.13424 42.3519 7.23026C42.3472 7.32683 42.3392 7.41815 42.3305 7.50477H37.2111C37.2591 7.81827 37.3484 8.08591 37.4786 8.30769C37.6085 8.52921 37.7655 8.71118 37.9484 8.85347C38.1316 8.9955 38.3366 9.10054 38.563 9.16792C38.7897 9.23584 39.0258 9.26892 39.2716 9.26892C39.6186 9.26892 39.9668 9.20531 40.3166 9.0774C40.6664 8.95004 40.9854 8.77049 41.2746 8.53902L42.0267 9.61592C41.6025 9.9777 41.1529 10.2308 40.678 10.3754C40.2029 10.52 39.7029 10.5925 39.1779 10.5925C38.6572 10.5925 38.1799 10.5053 37.7463 10.3321C37.3124 10.1585 36.9388 9.91288 36.6255 9.59466C36.3123 9.27618 36.0687 8.89341 35.8952 8.44474C35.7219 7.99688 35.635 7.49777 35.635 6.9485C35.635 6.40837 35.7193 5.91438 35.8878 5.46597C36.0566 5.01811 36.2929 4.63359 36.5965 4.31309C36.9003 3.99233 37.2629 3.74419 37.6848 3.56813C38.1063 3.39208 38.5729 3.30385 39.0835 3.30385ZM39.0549 4.64906C38.7848 4.64906 38.5452 4.69008 38.3352 4.77199C38.1257 4.85403 37.9448 4.97063 37.7932 5.12248C37.6412 5.27459 37.5169 5.45495 37.4206 5.66476C37.3241 5.87443 37.257 6.10482 37.2181 6.35525H40.8119C40.73 5.81566 40.5374 5.39604 40.2335 5.09719C39.9298 4.79848 39.5368 4.64906 39.0549 4.64906ZM47.5934 3.30385C47.8252 3.30385 48.0334 3.31972 48.2188 3.35119C48.4046 3.38253 48.5842 3.43203 48.7574 3.49914L48.3962 4.99592C48.2369 4.91401 48.0516 4.85134 47.8391 4.80803C47.6271 4.76499 47.4293 4.74334 47.2466 4.74334C47.0055 4.74334 46.7837 4.78409 46.5812 4.86613C46.3786 4.94804 46.2052 5.06828 46.0607 5.22765C45.9161 5.38662 45.8028 5.58177 45.7208 5.81324C45.639 6.0443 45.5983 6.30737 45.5983 6.60124V10.4114H44.0871V3.48502H45.5838V4.26575C45.8151 3.93328 46.1021 3.68998 46.444 3.53572C46.7859 3.38146 47.169 3.30385 47.5934 3.30385ZM52.7629 3.30385C53.2839 3.30385 53.7684 3.39706 54.2162 3.58252C54.6648 3.76813 55.0426 4.04438 55.3511 4.41047L54.3822 5.44446C54.1363 5.21272 53.8816 5.03573 53.6171 4.9128C53.3508 4.79014 53.0522 4.72814 52.7196 4.72814C52.431 4.72814 52.1612 4.78248 51.9099 4.89101C51.6594 4.99942 51.4422 5.15099 51.259 5.34681C51.0763 5.5421 50.9327 5.77571 50.8294 6.04766C50.725 6.32001 50.6739 6.61993 50.6739 6.9481C50.6739 7.27599 50.725 7.57578 50.8294 7.84826C50.9328 8.12021 51.0763 8.35409 51.259 8.54965C51.4422 8.7448 51.6594 8.89678 51.9099 9.00478C52.161 9.11372 52.4308 9.16765 52.7196 9.16765C53.0522 9.16765 53.3627 9.09879 53.652 8.96174C53.9412 8.82429 54.1975 8.652 54.4188 8.44447L55.3512 9.48599C55.0338 9.85249 54.6521 10.1279 54.2096 10.3135C53.7653 10.4991 53.2841 10.5922 52.763 10.5922C52.2139 10.5922 51.7148 10.4991 51.2669 10.3135C50.8185 10.1279 50.4348 9.8728 50.117 9.54746C49.7991 9.22171 49.5532 8.83747 49.38 8.39404C49.2062 7.95034 49.1195 7.46859 49.1195 6.94823C49.1195 6.42747 49.2062 5.94558 49.38 5.50188C49.5532 5.05859 49.7991 4.67434 50.117 4.3486C50.4348 4.02339 50.8185 3.76813 51.2669 3.58252C51.7147 3.39706 52.2138 3.30385 52.7629 3.30385ZM63.4062 10.4113H61.8949V9.58001C61.6539 9.88853 61.3552 10.1341 60.9988 10.3173C60.6417 10.5007 60.2152 10.5923 59.7186 10.5923C59.2316 10.5923 58.7785 10.5018 58.3593 10.3212C57.9402 10.1403 57.5737 9.88853 57.2605 9.56535C56.9469 9.24283 56.7014 8.85831 56.5231 8.4122C56.345 7.96621 56.2552 7.47827 56.2552 6.94823C56.2552 6.41779 56.345 5.92971 56.5231 5.484C56.7014 5.03842 56.9469 4.6535 57.2605 4.33085C57.5737 4.00766 57.9402 3.75616 58.3593 3.57499C58.7785 3.39437 59.2316 3.30372 59.7186 3.30372C60.2151 3.30372 60.6415 3.39692 60.9988 3.58239C61.3552 3.76799 61.6539 4.01492 61.8949 4.32318V3.48488H63.4062V10.4113ZM59.8993 4.72841C59.5715 4.72841 59.2787 4.78759 59.0208 4.9054C58.7629 5.02389 58.5452 5.18313 58.3668 5.38272C58.1888 5.58325 58.0508 5.81754 57.9544 6.08774C57.8583 6.35794 57.8098 6.64441 57.8098 6.94823C57.8098 7.25178 57.8583 7.53866 57.9544 7.80845C58.0509 8.07852 58.1888 8.31375 58.3668 8.51347C58.5452 8.7136 58.7629 8.8723 59.0208 8.99092C59.2787 9.1086 59.5716 9.16778 59.8993 9.16778C60.2124 9.16778 60.497 9.11116 60.7528 8.99792C61.008 8.88467 61.2273 8.72933 61.4106 8.53149C61.5938 8.33392 61.7358 8.10031 61.8372 7.83011C61.939 7.56018 61.989 7.26631 61.989 6.94823C61.989 6.62975 61.939 6.33588 61.8372 6.06595C61.7358 5.79575 61.5938 5.56214 61.4106 5.3643C61.2274 5.16726 61.0082 5.01139 60.7528 4.89814C60.497 4.78517 60.2124 4.72841 59.8993 4.72841ZM69.1394 3.30385C69.3711 3.30385 69.5795 3.31972 69.7648 3.35119C69.9505 3.38253 70.1301 3.43203 70.3034 3.49914L69.9418 4.99592C69.7831 4.91401 69.5978 4.85134 69.3858 4.80803C69.1733 4.76499 68.9754 4.74334 68.7923 4.74334C68.5511 4.74334 68.3299 4.78409 68.1279 4.86613C67.9248 4.94804 67.7513 5.06828 67.6068 5.22765C67.4623 5.38662 67.349 5.58177 67.267 5.81324C67.1851 6.0443 67.1439 6.30737 67.1439 6.60124V10.4114H65.6333V3.48502H67.1298V4.26575C67.3611 3.93328 67.6477 3.68998 67.99 3.53572C68.3324 3.38146 68.7155 3.30385 69.1394 3.30385ZM74.0997 3.30385C74.5961 3.30385 75.0224 3.39706 75.3795 3.58252C75.7362 3.76813 76.0346 4.01506 76.2759 4.32332V-0.00012207H77.7871V10.4113H76.2759V9.58001C76.0346 9.88853 75.7362 10.1341 75.3795 10.3173C75.0226 10.5007 74.5962 10.5923 74.0997 10.5923C73.6125 10.5923 73.1596 10.5018 72.7403 10.3212C72.3213 10.1403 71.9546 9.88853 71.6415 9.56535C71.3283 9.24283 71.0824 8.85831 70.9038 8.4122C70.7259 7.96621 70.6362 7.47827 70.6362 6.94823C70.6362 6.41779 70.7259 5.92971 70.9038 5.484C71.0824 5.03842 71.3283 4.6535 71.6415 4.33085C71.9546 4.00766 72.3213 3.75616 72.7403 3.57499C73.1596 3.3945 73.6125 3.30385 74.0997 3.30385ZM79.5514 9.77085C79.6136 9.77085 79.6715 9.78228 79.7258 9.80555C79.78 9.82855 79.8276 9.85989 79.8684 9.89997C79.9091 9.93991 79.9415 9.98671 79.9644 10.0401C79.9881 10.0939 79.9999 10.1508 79.9999 10.2113C79.9999 10.2717 79.9881 10.3285 79.9644 10.3819C79.9415 10.4351 79.9091 10.4818 79.8684 10.5217C79.8276 10.5617 79.7801 10.5933 79.7258 10.6164C79.6715 10.64 79.6136 10.6517 79.5514 10.6517C79.4882 10.6517 79.4292 10.64 79.374 10.6164C79.3192 10.5933 79.2711 10.5617 79.231 10.5217C79.1909 10.4818 79.1589 10.435 79.1355 10.3819C79.112 10.3286 79.1006 10.2717 79.1006 10.2113C79.1006 10.1508 79.112 10.0939 79.1355 10.0401C79.1589 9.98658 79.1908 9.93991 79.231 9.89997C79.2712 9.85989 79.3192 9.82855 79.374 9.80555C79.4292 9.78228 79.4883 9.77085 79.5514 9.77085ZM79.5514 10.5547C79.599 10.5547 79.6434 10.5455 79.6845 10.5278C79.7253 10.5095 79.7612 10.4853 79.792 10.4542C79.8233 10.4234 79.8474 10.3868 79.8651 10.3453C79.8829 10.3034 79.8918 10.2589 79.8918 10.2113C79.8918 10.1638 79.8829 10.1192 79.8651 10.0774C79.8474 10.0357 79.8233 9.99936 79.792 9.96829C79.7612 9.93722 79.7253 9.91315 79.6845 9.89539C79.6432 9.87764 79.599 9.86903 79.5514 9.86903C79.5035 9.86903 79.458 9.87751 79.4162 9.89539C79.374 9.91315 79.3374 9.93722 79.3067 9.96829C79.2759 9.99936 79.2513 10.0357 79.2336 10.0774C79.2163 10.1192 79.2075 10.1638 79.2075 10.2113C79.2075 10.2589 79.2163 10.3034 79.2336 10.3453C79.2513 10.3867 79.2758 10.4233 79.3067 10.4542C79.3375 10.4851 79.374 10.5095 79.4162 10.5278C79.458 10.5455 79.5035 10.5547 79.5514 10.5547ZM79.5776 10.0053C79.6305 10.0053 79.6705 10.0167 79.6993 10.0402C79.7274 10.0638 79.7415 10.0955 79.7415 10.1357C79.7415 10.1696 79.7305 10.1975 79.7075 10.2195C79.6851 10.2416 79.6528 10.2548 79.611 10.26L79.745 10.4143H79.6401L79.5159 10.2609H79.4762V10.4143H79.3885V10.0053H79.5776ZM79.4763 10.0819V10.1907H79.5765C79.5995 10.1907 79.6178 10.1863 79.6314 10.1772C79.6454 10.1683 79.6522 10.1544 79.6522 10.1357C79.6522 10.1177 79.6454 10.1044 79.6314 10.0953C79.6177 10.0864 79.5995 10.0819 79.5765 10.0819H79.4763ZM74.2802 4.72841C73.9523 4.72841 73.6595 4.78759 73.4018 4.9054C73.1438 5.02389 72.9262 5.18313 72.7476 5.38272C72.5697 5.58325 72.4318 5.81754 72.3354 6.08774C72.2393 6.35794 72.1908 6.64441 72.1908 6.94823C72.1908 7.25178 72.2393 7.53866 72.3354 7.80845C72.4319 8.07852 72.5697 8.31375 72.7476 8.51347C72.9262 8.7136 73.1438 8.8723 73.4018 8.99092C73.6595 9.1086 73.9524 9.16778 74.2802 9.16778C74.5934 9.16778 74.8778 9.11116 75.1338 8.99792C75.3889 8.88467 75.6083 8.72933 75.7916 8.53149C75.9748 8.33392 76.1168 8.10031 76.2179 7.83011C76.3198 7.56018 76.3705 7.26631 76.3705 6.94823C76.3705 6.62975 76.3198 6.33588 76.2179 6.06595C76.1168 5.79575 75.9748 5.56214 75.7916 5.3643C75.6084 5.16726 75.3891 5.01139 75.1338 4.89814C74.8778 4.78517 74.5934 4.72841 74.2802 4.72841Z" fill="#EB001B"/>
</g>
</g>
<defs>
<clipPath id="clip0_1801_18880">
<rect width="80" height="24.3623" rx="8" fill="white"/>
</clipPath>
<clipPath id="clip1_1801_18880">
<rect width="80" height="24.3623" fill="white"/>
</clipPath>
</defs>
</svg>
