<svg width="80" height="54" viewBox="0 0 80 54" fill="none" xmlns="http://www.w3.org/2000/svg">
<g clip-path="url(#clip0_1801_20159)">
<path d="M80 0H0V53.3333H80V0Z" fill="#231F20"/>
<path d="M51.2925 46.5889V46.35H51.3888V46.3019H51.1444V46.35H51.2407V46.5889H51.2925ZM51.7685 46.5889V46.3019H51.6925L51.6055 46.5L51.5185 46.3019H51.4425V46.5889H51.4962V46.3722L51.5777 46.5593H51.6333L51.7148 46.3722V46.5889H51.7685Z" fill="#F99F1C"/>
<path d="M43.2277 36.1611H36.7388V47.8241H43.2277V36.1611Z" fill="#F26522"/>
<path d="M37.1666 41.9926C37.1666 39.6259 38.274 37.5185 39.9999 36.1611C38.7388 35.1685 37.1462 34.5759 35.4166 34.5759C31.3203 34.5759 27.9999 37.8963 27.9999 41.9926C27.9999 46.0889 31.3203 49.4093 35.4166 49.4093C37.1462 49.4093 38.7388 48.8167 39.9999 47.8241C38.274 46.4667 37.1666 44.3593 37.1666 41.9926Z" fill="#E52423"/>
<path d="M44.5833 34.5759C42.8536 34.5759 41.2611 35.1685 39.9999 36.1611C41.7259 37.5185 42.8333 39.6259 42.8333 41.9926C42.8333 44.3593 41.7259 46.4667 39.9999 47.8241C41.2611 48.8167 42.8536 49.4093 44.5833 49.4093C48.6796 49.4093 51.9999 46.0889 51.9999 41.9926C51.9999 37.8963 48.6796 34.5759 44.5833 34.5759Z" fill="#F99F1C"/>
<path d="M55.0222 28.5278L56.2574 25.3334H56.7148L55.2852 28.976H54.7667L53.5667 25.7926L52.3741 28.976H51.8593L50.4315 25.3334H50.9L52.1315 28.5241L53.3278 25.3334H53.8241L55.0241 28.5278H55.0222ZM19.0722 24.0056H17.1167V28.9778H16.6444V24.0056H14.6926V23.5556H19.0722V24.0056ZM22.6778 28.9778H22.2407V28.2778C22.0944 28.5074 21.9 28.6908 21.6574 28.8297C21.4167 28.9685 21.1296 29.0371 20.7963 29.0371C20.5407 29.0371 20.3019 28.9889 20.0796 28.8963C19.8574 28.8019 19.6648 28.6722 19.5037 28.5056C19.3407 28.3389 19.213 28.1408 19.1185 27.9111C19.0241 27.6815 18.9778 27.4315 18.9778 27.1593C18.9778 26.8871 19.0241 26.6371 19.1185 26.4074C19.213 26.1778 19.3407 25.9797 19.5037 25.8111C19.6667 25.6426 19.8593 25.513 20.0796 25.4185C20.3019 25.3241 20.5407 25.2778 20.7963 25.2778C21.1296 25.2778 21.4167 25.3482 21.6574 25.4871C21.8981 25.626 22.0926 25.8093 22.2407 26.0371V25.3371H22.6778V28.9797V28.9778ZM20.8463 25.6908C20.637 25.6908 20.4463 25.7297 20.2722 25.8056C20.0981 25.8815 19.9481 25.9852 19.8222 26.1167C19.6963 26.2482 19.6 26.4037 19.5296 26.5815C19.4593 26.7593 19.4259 26.9519 19.4259 27.1574C19.4259 27.363 19.4611 27.5556 19.5296 27.7352C19.6 27.913 19.6981 28.0685 19.8241 28.2C19.95 28.3315 20.1 28.4352 20.2759 28.5093C20.45 28.5834 20.6407 28.6222 20.8463 28.6222C21.0519 28.6222 21.2426 28.5852 21.4148 28.5111C21.587 28.4371 21.737 28.3352 21.8648 28.2037C21.9907 28.0722 22.0889 27.9167 22.1593 27.7389C22.2296 27.5611 22.263 27.3667 22.263 27.1574C22.263 26.9482 22.2278 26.7537 22.1593 26.5741C22.0889 26.3945 21.9907 26.2408 21.8648 26.1093C21.7389 25.9797 21.5889 25.876 21.4148 25.8019C21.2426 25.7278 21.0519 25.6889 20.8463 25.6889V25.6908ZM25.9611 25.276C26.2167 25.276 26.4556 25.3222 26.6778 25.4167C26.9 25.5111 27.0926 25.6426 27.2574 25.8093C27.4204 25.9778 27.55 26.1759 27.6444 26.4056C27.7389 26.6352 27.7852 26.8852 27.7852 27.1574C27.7852 27.4297 27.7389 27.6797 27.6444 27.9093C27.55 28.1389 27.4204 28.3371 27.2574 28.5037C27.0926 28.6704 26.9 28.8 26.6778 28.8945C26.4556 28.9889 26.2167 29.0352 25.9611 29.0352C25.6315 29.0352 25.3463 28.9667 25.1056 28.8297C24.8648 28.6926 24.6722 28.5111 24.5241 28.2834V30.5259H24.0833V25.3334H24.5241V26.0259C24.6685 25.8019 24.8611 25.6204 25.1037 25.4815C25.3444 25.3445 25.6315 25.2741 25.9611 25.2741V25.276ZM25.9111 25.6908C25.7056 25.6908 25.5148 25.7278 25.3426 25.8037C25.1704 25.8778 25.0204 25.9815 24.8963 26.1111C24.7704 26.2408 24.6722 26.3963 24.6019 26.5759C24.5315 26.7556 24.4963 26.95 24.4963 27.1593C24.4963 27.3685 24.5315 27.5611 24.6019 27.7408C24.6722 27.9185 24.7704 28.0741 24.8963 28.2056C25.0222 28.3371 25.1704 28.4389 25.3426 28.513C25.5148 28.5871 25.7056 28.6241 25.9111 28.6241C26.1167 28.6241 26.3111 28.5871 26.4852 28.5111C26.6593 28.4371 26.8093 28.3334 26.9352 28.2019C27.0611 28.0704 27.1574 27.9148 27.2278 27.7371C27.2981 27.5593 27.3315 27.3667 27.3315 27.1593C27.3315 26.9519 27.2963 26.7611 27.2278 26.5834C27.1574 26.4056 27.0593 26.25 26.9333 26.1185C26.8074 25.9871 26.6574 25.8834 26.4833 25.8074C26.3111 25.7315 26.1185 25.6926 25.9111 25.6926V25.6908ZM34.7963 28.9778L33.8741 28.0797C33.7741 28.2111 33.6648 28.3352 33.55 28.4519C33.4352 28.5685 33.3093 28.6685 33.1722 28.7556C33.0352 28.8426 32.887 28.9111 32.7259 28.9611C32.5648 29.0111 32.387 29.0371 32.1944 29.0371C31.9667 29.0371 31.763 29.0074 31.5796 28.9463C31.3963 28.8852 31.2389 28.7982 31.1093 28.6834C30.9796 28.5685 30.8778 28.4297 30.8074 28.2685C30.737 28.1074 30.7018 27.926 30.7018 27.7241C30.7018 27.5408 30.7333 27.3722 30.7963 27.2167C30.8593 27.0611 30.9426 26.9185 31.0481 26.7871C31.1519 26.6556 31.2722 26.5315 31.4056 26.4148C31.5407 26.2982 31.6796 26.1871 31.8241 26.0815C31.6852 25.9445 31.563 25.8185 31.4574 25.7019C31.3537 25.5852 31.2667 25.4722 31.2 25.363C31.1333 25.2537 31.0833 25.1426 31.0481 25.0315C31.0148 24.9204 30.9981 24.8 30.9981 24.6667C30.9981 24.5074 31.0296 24.3556 31.0926 24.213C31.1556 24.0704 31.2444 23.9463 31.3574 23.8408C31.4704 23.7352 31.6056 23.6519 31.763 23.5889C31.9185 23.5278 32.0907 23.4963 32.2796 23.4963C32.4685 23.4963 32.637 23.526 32.7944 23.5834C32.9518 23.6408 33.087 23.7222 33.1981 23.8241C33.3111 23.926 33.3981 24.0463 33.4611 24.1834C33.5241 24.3222 33.5556 24.4722 33.5556 24.6352C33.5556 24.7982 33.5259 24.9389 33.4667 25.0722C33.4074 25.2074 33.3278 25.3334 33.2278 25.4519C33.1278 25.5704 33.0148 25.6834 32.887 25.7889C32.7593 25.8945 32.6278 25.9982 32.4907 26.0982L33.8296 27.4074L34.7204 26.0945L35.0759 26.3185L34.1389 27.7093L35.4315 28.976H34.7926L34.7963 28.9778ZM32.2185 28.6222C32.3685 28.6222 32.5056 28.6019 32.6296 28.563C32.7537 28.5222 32.8685 28.4667 32.9759 28.3926C33.0833 28.3185 33.1852 28.2315 33.2815 28.1278C33.3778 28.0241 33.4741 27.9093 33.5704 27.7834L32.1222 26.3741C31.9963 26.4685 31.8759 26.5667 31.7593 26.6648C31.6444 26.763 31.5444 26.8667 31.4574 26.9741C31.3704 27.0834 31.3019 27.1982 31.25 27.3204C31.1981 27.4426 31.1722 27.5741 31.1722 27.713C31.1722 27.8519 31.1981 27.9704 31.25 28.0834C31.3019 28.1963 31.3741 28.2926 31.4648 28.3722C31.5556 28.4519 31.6667 28.5148 31.7944 28.5574C31.9222 28.6019 32.063 28.6241 32.2185 28.6241V28.6222ZM31.4722 24.6963C31.4722 24.7871 31.4852 24.8722 31.5111 24.9519C31.537 25.0315 31.5778 25.1148 31.6352 25.1982C31.6926 25.2815 31.7667 25.3741 31.8593 25.4722C31.9518 25.5722 32.0648 25.6852 32.1963 25.8148C32.3185 25.7278 32.4333 25.6389 32.5407 25.55C32.65 25.4611 32.7444 25.3685 32.8278 25.2741C32.9111 25.1797 32.9759 25.0815 33.0241 24.9797C33.0722 24.8778 33.0963 24.7704 33.0963 24.6556C33.0963 24.55 33.0778 24.4519 33.0389 24.3611C33 24.2704 32.9444 24.1926 32.8741 24.126C32.8037 24.0593 32.7167 24.0074 32.6167 23.9685C32.5167 23.9315 32.4056 23.913 32.2833 23.913C32.1611 23.913 32.0519 23.9334 31.9537 23.9722C31.8556 24.013 31.7704 24.0667 31.6981 24.1371C31.6259 24.2074 31.5704 24.2889 31.5315 24.3852C31.4926 24.4815 31.4741 24.5834 31.4741 24.6945L31.4722 24.6963ZM39.8667 25.2778C40.1944 25.2778 40.4778 25.3482 40.7167 25.4889C40.9556 25.6297 41.1463 25.8167 41.287 26.0482V25.3352H41.7278V28.7315C41.7278 29.0334 41.6796 29.3 41.5815 29.5297C41.4833 29.7593 41.3481 29.9519 41.1741 30.1074C41 30.263 40.7981 30.3797 40.5667 30.4574C40.3352 30.5371 40.0833 30.576 39.8148 30.576C39.6648 30.576 39.5185 30.563 39.3741 30.5389C39.2296 30.5148 39.0907 30.4797 38.9593 30.4352C38.8278 30.3908 38.7037 30.3352 38.5889 30.2704C38.4741 30.2056 38.3722 30.1315 38.2815 30.05L38.5056 29.7297C38.6778 29.8667 38.8759 29.9741 39.0963 30.0556C39.3167 30.1352 39.5556 30.1759 39.8148 30.1759C40.0185 30.1759 40.2111 30.1463 40.3889 30.0889C40.5685 30.0315 40.7241 29.9426 40.8574 29.8241C40.9907 29.7056 41.0944 29.5574 41.1704 29.3797C41.2463 29.2019 41.2852 28.9945 41.2852 28.7556V28.2371C41.1426 28.4704 40.9519 28.6556 40.7148 28.7945C40.4759 28.9334 40.1926 29.0037 39.8648 29.0037C39.6093 29.0037 39.3704 28.9574 39.15 28.8667C38.9296 28.7741 38.737 28.6463 38.5759 28.4834C38.413 28.3185 38.287 28.1241 38.1944 27.8945C38.1019 27.6667 38.0574 27.4148 38.0574 27.1408C38.0574 26.8667 38.1037 26.6204 38.1944 26.3908C38.2852 26.163 38.413 25.9667 38.5759 25.8019C38.7389 25.6389 38.9296 25.5111 39.15 25.4185C39.3704 25.3278 39.6093 25.2815 39.8648 25.2815L39.8667 25.2778ZM39.913 25.6926C39.7074 25.6926 39.5167 25.7297 39.3444 25.8056C39.1722 25.8797 39.0222 25.9834 38.9 26.113C38.7759 26.2426 38.6796 26.3963 38.6111 26.5722C38.5426 26.7482 38.5093 26.9371 38.5093 27.1371C38.5093 27.3371 38.5426 27.5315 38.6111 27.7056C38.6796 27.8797 38.7759 28.0334 38.9 28.1648C39.0241 28.2945 39.1722 28.3982 39.3444 28.4722C39.5167 28.5463 39.7074 28.5852 39.913 28.5852C40.1185 28.5852 40.3056 28.5482 40.4778 28.4741C40.65 28.4 40.8 28.3 40.9241 28.1704C41.05 28.0408 41.1463 27.8889 41.2167 27.7111C41.287 27.5334 41.3204 27.3426 41.3204 27.1371C41.3204 26.9315 41.2852 26.7426 41.2167 26.5667C41.1463 26.3908 41.05 26.2371 40.9241 26.1074C40.7981 25.9778 40.65 25.8778 40.4778 25.8037C40.3056 25.7297 40.1167 25.6926 39.913 25.6926ZM44.7333 25.2778C45.0037 25.2778 45.2556 25.326 45.487 25.4204C45.7185 25.5167 45.9185 25.6482 46.087 25.8148C46.2556 25.9834 46.3889 26.1815 46.4852 26.4111C46.5815 26.6408 46.6296 26.8908 46.6296 27.1593C46.6296 27.4278 46.5815 27.676 46.4852 27.9037C46.3889 28.1315 46.2556 28.3297 46.087 28.4982C45.9185 28.6667 45.7185 28.7982 45.487 28.8926C45.2556 28.9871 45.0056 29.0352 44.7333 29.0352C44.4611 29.0352 44.2111 28.9871 43.9815 28.8926C43.7519 28.7963 43.5518 28.6648 43.3833 28.4982C43.2148 28.3297 43.0815 28.1315 42.987 27.9037C42.8907 27.676 42.8444 27.4278 42.8444 27.1593C42.8444 26.8908 42.8926 26.6426 42.987 26.4111C43.0833 26.1815 43.2148 25.9834 43.3833 25.8148C43.5518 25.6463 43.7519 25.5148 43.9815 25.4204C44.2111 25.3241 44.4611 25.2778 44.7333 25.2778ZM44.7333 25.6926C44.5296 25.6926 44.3389 25.7297 44.1648 25.8037C43.9907 25.8778 43.837 25.9797 43.7074 26.1093C43.5778 26.2389 43.4778 26.3945 43.4037 26.5741C43.3296 26.7537 43.2926 26.9482 43.2926 27.1611C43.2926 27.3741 43.3296 27.5685 43.4037 27.7482C43.4778 27.9278 43.5778 28.0815 43.7074 28.2111C43.837 28.3408 43.9889 28.4408 44.1648 28.5148C44.3407 28.5889 44.5296 28.626 44.7333 28.626C44.937 28.626 45.1278 28.5889 45.3037 28.5148C45.4815 28.4408 45.6333 28.3408 45.763 28.2111C45.8926 28.0815 45.9926 27.9278 46.0667 27.7482C46.1407 27.5685 46.1778 27.3741 46.1778 27.1611C46.1778 26.9482 46.1407 26.7537 46.0667 26.5741C45.9926 26.3945 45.8926 26.2389 45.763 26.1093C45.6333 25.9797 45.4815 25.8778 45.3037 25.8037C45.1278 25.7297 44.937 25.6926 44.7333 25.6926ZM46.9426 24.9204V24.2426H46.6685V24.1334H47.3333V24.2426H47.0593V24.9204H46.9426ZM48.2333 24.9204V24.2926L47.9815 24.8352H47.8611L47.6074 24.2926V24.9204H47.4889V24.1315H47.6556L47.9222 24.6982L48.187 24.1315H48.3519V24.9204H48.2333ZM57.8407 23.7074C57.9315 23.7074 58.0074 23.7389 58.0667 23.8C58.1278 23.8611 58.1574 23.9389 58.1574 24.0278C58.1574 24.1167 58.1278 24.1926 58.0667 24.2519C58.0056 24.3111 57.9296 24.3408 57.8407 24.3408C57.7519 24.3408 57.6759 24.3111 57.6167 24.2519C57.5574 24.1926 57.5278 24.1185 57.5278 24.0278C57.5278 23.9371 57.5574 23.8611 57.6167 23.8C57.6759 23.7389 57.75 23.7074 57.8407 23.7074ZM58.0611 28.9815H57.6204V25.3389H58.0611V28.9815ZM61.9333 25.7408H60.2537V27.7278C60.2537 27.8834 60.2722 28.0167 60.3111 28.1278C60.35 28.2408 60.4037 28.3334 60.4759 28.4074C60.5463 28.4815 60.6315 28.5352 60.7315 28.5722C60.8315 28.6093 60.9407 28.626 61.063 28.626C61.2204 28.626 61.3685 28.6 61.5056 28.55C61.6444 28.5 61.7667 28.4315 61.8759 28.3463L62.0852 28.676C61.9537 28.7834 61.8 28.8722 61.6222 28.9389C61.4444 29.0056 61.2481 29.0389 61.0278 29.0389C60.6481 29.0389 60.35 28.9315 60.1352 28.7167C59.9204 28.5019 59.8111 28.1741 59.8111 27.7334V25.7389H58.9741V25.3371H59.8111V24.1482H60.2518V25.3371H61.9315V25.7389L61.9333 25.7408ZM63.4093 25.9685C63.4815 25.85 63.5667 25.7463 63.663 25.6593C63.7593 25.5722 63.8648 25.5 63.9778 25.4445C64.0907 25.3889 64.2093 25.3482 64.3333 25.3204C64.4574 25.2926 64.5815 25.2797 64.7056 25.2797C64.9333 25.2797 65.1407 25.3148 65.3296 25.3815C65.5185 25.45 65.6796 25.5482 65.8148 25.6741C65.95 25.8 66.0556 25.9556 66.1278 26.1371C66.2019 26.3185 66.2389 26.5222 66.2389 26.7463V28.9797H65.7981V26.8815C65.7981 26.6982 65.7722 26.5334 65.7204 26.3852C65.6685 26.2389 65.5926 26.113 65.4926 26.0111C65.3926 25.9093 65.2685 25.8315 65.1241 25.7778C64.9796 25.7241 64.8148 25.6963 64.6278 25.6963C64.4574 25.6963 64.2981 25.726 64.15 25.7834C64.0019 25.8408 63.8722 25.9241 63.763 26.0315C63.6537 26.1389 63.5667 26.2667 63.5037 26.4148C63.4407 26.563 63.4093 26.7259 63.4093 26.9056V28.9815H62.9685V23.4056H63.4093V25.9685ZM33.1963 9.84633C33.4018 10.126 33.5704 10.4371 33.6796 10.7741C33.7944 11.1111 33.8556 11.4686 33.8556 11.8463C33.8556 12.2241 33.7944 12.5815 33.6796 12.9186C33.5704 13.2537 33.4018 13.5667 33.1963 13.8482C32.9111 14.2297 32.9926 14.7685 33.3741 15.05C33.7537 15.3315 34.2907 15.2519 34.5778 14.8723C34.8889 14.45 35.1407 13.976 35.3093 13.4667C35.4815 12.9593 35.5759 12.4111 35.5759 11.8463C35.5759 11.2815 35.4815 10.7352 35.3111 10.226C35.1407 9.71485 34.8889 9.24448 34.5778 8.82041C34.2963 8.43892 33.7593 8.35929 33.3778 8.64448C32.9944 8.92596 32.913 9.463 33.1981 9.84633M36.1444 8.24263C36.7926 9.29263 37.163 10.5223 37.163 11.8463C37.163 13.1704 36.7907 14.4019 36.1444 15.4519C35.8963 15.8574 36.0204 16.3834 36.4241 16.6334C36.8278 16.8815 37.3611 16.7556 37.6074 16.3519C38.4148 15.0445 38.8833 13.4963 38.8833 11.8463C38.8833 10.1963 38.4167 8.65189 37.6074 7.34078C37.3593 6.93892 36.8278 6.80929 36.4241 7.06115C36.0185 7.31115 35.8963 7.84078 36.1444 8.24448M39.2667 6.61115C40.1667 8.14818 40.6778 9.93707 40.6778 11.8463C40.6778 13.7556 40.1667 15.5445 39.2667 17.0815C39.0259 17.4926 39.1667 18.0204 39.5741 18.2593C39.987 18.5 40.513 18.3611 40.7519 17.9519C41.7981 16.1593 42.3981 14.0686 42.3981 11.8463C42.3981 9.62411 41.7963 7.53337 40.7519 5.74078C40.5111 5.33152 39.987 5.19263 39.5759 5.43337C39.1667 5.67041 39.0278 6.20004 39.2667 6.61115ZM42.3815 4.97041C43.537 7.00004 44.1963 9.34263 44.1963 11.8482C44.1963 14.3537 43.5352 16.6963 42.3815 18.7222C42.1481 19.1371 42.2907 19.6611 42.7019 19.8945C43.1167 20.1278 43.6407 19.9852 43.8759 19.5723C45.1722 17.2945 45.9148 14.6556 45.9148 11.8463C45.9148 9.03707 45.1722 6.39818 43.8759 4.12041C43.6407 3.70744 43.1167 3.563 42.7019 3.79818C42.2926 4.03522 42.1481 4.5593 42.3815 4.97041Z" fill="white"/>
</g>
<defs>
<clipPath id="clip0_1801_20159">
<rect width="80" height="53.3333" rx="8" fill="white"/>
</clipPath>
</defs>
</svg>
