<svg width="80" height="12" viewBox="0 0 80 12" fill="none" xmlns="http://www.w3.org/2000/svg">
<g clip-path="url(#clip0_1801_20100)">
<g clip-path="url(#clip1_1801_20100)">
<path d="M72.0646 2.55675C71.7032 2.71657 71.432 2.9307 71.2493 3.20106V2.40139H69.7159V8.82117H71.2493C71.2493 8.82117 71.2564 6.52573 71.2524 6.15728C71.2462 5.67353 71.214 5.18132 71.432 4.73215C71.7887 3.99762 72.6008 3.59548 73.3927 3.6173V2.32853C72.9376 2.28654 72.4795 2.36535 72.0646 2.55675ZM67.1045 2.88811L67.106 2.90295C66.6685 2.45629 66.0343 2.17792 65.2872 2.17792C63.4543 2.17792 62.2422 3.58435 62.2422 5.61165C62.2422 7.63806 63.4543 9.0445 65.2872 9.0445C66.0343 9.0445 66.6685 8.76627 67.106 8.31932L67.1045 8.33416V8.82117H68.6394V2.40139H67.1045V2.88811ZM65.4517 7.83883C64.4421 7.83883 63.7757 6.94746 63.7757 5.61151C63.7757 4.27496 64.4419 3.38358 65.4517 3.38358C66.4615 3.38358 67.0816 4.38076 67.0816 5.61165C67.0816 6.84166 66.4614 7.83883 65.4517 7.83883ZM78.4651 2.88811L78.4665 2.90295C78.0291 2.45629 77.3949 2.17792 76.6477 2.17792C74.8148 2.17792 73.6028 3.58435 73.6028 5.61165C73.6028 7.63806 74.8148 9.0445 76.6477 9.0445C77.3949 9.0445 78.0291 8.76627 78.4665 8.31932L78.4651 8.33416V8.82117H80V0.294108H78.4651V2.88811ZM76.8124 7.83883C75.8028 7.83883 75.1364 6.94746 75.1364 5.61151C75.1364 4.27496 75.8027 3.38358 76.8124 3.38358C77.8222 3.38358 78.4424 4.38076 78.4424 5.61165C78.4424 6.84166 77.8221 7.83883 76.8124 7.83883ZM58.0453 1.35272C59.0417 1.35272 59.7858 2.23237 59.9503 3.08369H61.6946C61.3277 1.20923 59.8328 0.000445169 57.9944 0.000445169C55.6636 0.000445169 54.095 1.80976 54.0943 4.52218V4.52292C54.0958 7.23548 55.6636 9.0448 57.9944 9.0448C59.8328 9.0448 61.3278 7.83512 61.6946 5.96081H59.9503C59.7856 6.81287 59.0417 7.69252 58.0453 7.69252C56.6217 7.69252 55.7947 6.24691 55.7947 4.52218C55.7947 2.79833 56.6217 1.35257 58.0453 1.35257M22.0905 2.24514C20.9161 2.24514 20.1988 2.81673 19.8907 3.15135C19.4667 2.50541 18.7651 2.24514 17.9411 2.24514C17.0826 2.24514 16.4962 2.594 16.1576 2.88247V2.40035H14.636V8.82103H16.1576V5.15135C16.1576 4.24587 16.5802 3.44546 17.5257 3.40629C18.4437 3.3677 18.7847 4.07018 18.7847 4.73972V8.82103H20.3055L20.307 5.15135C20.307 4.24587 20.7296 3.44546 21.6751 3.40629C22.5788 3.36859 22.9224 4.04822 22.9324 4.70841V8.82103H24.4542L24.4557 4.57663C24.4557 2.95696 23.3464 2.24514 22.0905 2.24514ZM35.4251 5.75559C35.4251 6.49487 35.2534 7.83231 34.0618 7.83231C33.0419 7.83231 32.8349 6.9801 32.8349 6.40005V2.40035H31.3062V6.64074C31.3062 8.14897 32.2322 8.97683 33.5953 8.97683C34.3847 8.97683 35.0136 8.68362 35.4251 8.23682V8.82251H36.9538V2.4002H35.4251V5.75559ZM41.4139 2.24514C40.5288 2.24514 39.9691 2.59489 39.6295 2.92031V2.4005H38.108V8.82103H39.6295L39.6303 5.15135C39.6303 4.24587 40.0818 3.44472 41.0274 3.40554C41.9305 3.36785 42.2457 4.06944 42.2557 4.72962V8.82103H43.7775L43.779 4.53286C43.779 3.04644 42.6698 2.24528 41.4138 2.24528M28.5275 5.04154C27.2881 4.73111 26.8225 4.50763 26.8225 4.07181C26.8225 3.58094 27.3789 3.30583 27.9529 3.33951C28.6388 3.38106 29.0136 3.72681 29.1044 4.20967H30.5517C30.4466 3.06054 29.4432 2.17777 27.8753 2.17777C26.4273 2.17777 25.2043 2.94761 25.2262 4.16114C25.242 5.01409 25.8338 5.54636 26.7017 5.87178C27.6495 6.22688 28.9272 6.35776 29.0394 6.96541C29.1507 7.57381 28.5205 7.91006 27.8063 7.8332C27.1886 7.76642 26.8373 7.46311 26.6741 6.94731H25.0412C25.3134 8.29958 26.3936 9.04435 27.9269 9.04435C29.5435 9.04435 30.6897 8.12552 30.6622 6.93084C30.6316 5.6115 29.1828 5.20536 28.5275 5.04154ZM49.0467 2.8844L49.0481 2.89924C48.6129 2.45481 48.0274 2.17806 47.2842 2.17806C45.4607 2.17806 44.4533 3.45273 44.4533 5.40257C44.4533 7.35286 45.4608 8.62767 47.2842 8.62767C48.0376 8.62767 48.6279 8.3438 49.0654 7.88914V8.1785C49.0654 9.05014 48.7344 9.82399 47.6895 9.88275C46.5598 9.94701 46.2298 9.20387 46.1858 9.04317H44.6822C44.8781 10.0497 45.7429 11.1292 47.5844 11.1292C49.5458 11.1292 50.5745 9.76998 50.5745 7.95888V2.39991H49.0472L49.0467 2.8844ZM47.4786 7.42661C46.4941 7.40865 45.9806 6.57441 45.9806 5.40257C45.9806 4.21872 46.505 3.3775 47.5093 3.3775C48.5142 3.3775 49.0238 4.22807 49.0238 5.39382C49.0238 6.54784 48.4641 7.4085 47.4786 7.42661ZM11.977 2.88796L11.9777 2.9028C11.5403 2.45615 10.906 2.17777 10.1582 2.17777C8.32615 2.17777 7.11321 3.58421 7.11321 5.61151C7.11321 7.63791 8.32615 9.04435 10.1582 9.04435C10.906 9.04435 11.5403 8.76612 11.9777 8.32006L11.977 8.33416V8.82088H13.5119V2.40139H11.977V2.88796ZM10.3244 7.83869C9.31472 7.83869 8.6483 6.94731 8.6483 5.61136C8.6483 4.27481 9.31457 3.38343 10.3244 3.38343C11.3342 3.38343 11.9543 4.38061 11.9543 5.61151C11.9543 6.84151 11.3342 7.83869 10.3244 7.83869ZM3.778 3.80145C2.31043 3.35064 2.03205 2.94375 1.97477 2.44665C1.91527 1.92699 2.2947 1.23549 3.28312 1.23549C4.27095 1.23549 4.60646 1.96854 4.68244 2.38002H6.36176C6.1509 0.756787 4.84878 0 3.2895 0C1.72933 0 0.224959 0.853686 0.224959 2.48909C0.224959 4.04985 1.54207 4.60097 2.97907 5.07849C4.34307 5.53152 4.85264 5.81302 4.85264 6.51935C4.85264 7.16693 4.29054 7.71641 3.4094 7.71641C2.52901 7.71641 1.92461 7.36206 1.69491 6.57663H0C0.135628 7.48522 0.984714 9.04435 3.26517 9.04435C5.50644 9.04435 6.57663 7.75885 6.57663 6.37823C6.57663 4.81421 5.19127 4.23564 3.778 3.80145Z" fill="#003CDC"/>
</g>
</g>
<defs>
<clipPath id="clip0_1801_20100">
<rect width="80" height="11.1292" rx="5.56461" fill="white"/>
</clipPath>
<clipPath id="clip1_1801_20100">
<rect width="80" height="11.1292" fill="white"/>
</clipPath>
</defs>
</svg>
