<svg width="80" height="51" viewBox="0 0 80 51" fill="none" xmlns="http://www.w3.org/2000/svg">
<g clip-path="url(#clip0_1801_18925)">
<path d="M15.6669 0H35.6342C38.4186 0 40.1565 2.2705 39.5024 5.07358L30.2055 44.9801C29.5515 47.7739 26.7577 50.0444 23.9733 50.0444H4.00604C1.22164 50.0444 -0.516267 47.7739 0.137785 44.9801L9.43468 5.07358C10.0794 2.2705 12.8731 0 15.6669 0Z" fill="#ED171F"/>
<path d="M33.9708 5.86157e-06H56.928C59.7124 5.86157e-06 58.4604 2.2705 57.8063 5.07359L48.5094 44.9801C47.8554 47.7739 48.061 50.0444 45.2672 50.0444H22.31C19.5162 50.0444 17.7876 47.7739 18.4417 44.9801L27.7386 5.07359C28.3926 2.2705 31.1864 5.86157e-06 33.9708 5.86157e-06Z" fill="#082F67"/>
<path d="M56.0217 5.86157e-06H75.989C78.7734 5.86157e-06 80.5113 2.2705 79.8573 5.07359L70.5604 44.9801C69.9063 47.7739 67.1219 50.0444 64.3188 50.0444H44.3609C41.5671 50.0444 39.8386 47.7739 40.4926 44.9801L49.7895 5.07359C50.4436 2.2705 53.228 5.86157e-06 56.0217 5.86157e-06Z" fill="#006A65"/>
<path fill-rule="evenodd" clip-rule="evenodd" d="M52.686 37.5426H54.5641L55.106 35.73H53.228L52.686 37.5426ZM54.1904 32.5438L53.5456 34.6835C53.5456 34.6835 54.2558 34.3191 54.6482 34.207C55.0313 34.1135 55.6199 34.0481 55.6199 34.0481L56.0778 32.5531H54.1997L54.1904 32.5438ZM55.1247 29.4604L54.4987 31.516C54.4987 31.516 55.1995 31.1983 55.5826 31.0955C55.9656 30.9928 56.5543 30.9554 56.5543 30.9554L57.0028 29.4604H55.1247ZM59.292 29.4604L56.8626 37.5146H57.5167L57.0121 39.1778H56.3581L56.2086 39.6917H53.8914L54.0502 39.1778H49.341L49.8175 37.6361H50.2941L52.7608 29.4604L53.256 27.8066H55.6199L55.377 28.6382C55.377 28.6382 56.003 28.1803 56.601 28.0308C57.199 27.872 60.6188 27.8159 60.6188 27.8159L60.1142 29.4511H59.3013L59.292 29.4604Z" fill="white"/>
<path d="M60.3385 27.8253H62.8612L62.8893 28.769C62.8706 28.9278 63.0107 29.0026 63.3004 29.0026H63.8143L63.3471 30.5536H61.9829C60.8056 30.6377 60.3571 30.1331 60.3852 29.5632L60.3385 27.8253Z" fill="white"/>
<path d="M60.6655 35.188H58.2642L58.6753 33.8052H61.4223L61.8147 32.5438H59.1051L59.5723 30.9834H67.1219L66.6454 32.5438H64.1133L63.7208 33.8052H66.2623L65.8418 35.188H63.0948L62.609 35.7673H63.7208L63.9918 37.5052C64.0198 37.6734 64.0292 37.7856 64.0759 37.8603C64.132 37.9257 64.4683 37.9537 64.6552 37.9537H64.9916L64.4777 39.6449H63.6181C63.4872 39.6449 63.291 39.6356 63.0201 39.6169C62.7584 39.5982 62.5809 39.4487 62.4034 39.3646C62.2445 39.2899 62.011 39.0937 61.9549 38.776L61.6839 37.0381L60.4412 38.748C60.0488 39.2899 59.5069 39.701 58.6005 39.701H56.8533L57.3111 38.1873H57.9839C58.1801 38.1873 58.3483 38.1126 58.4697 38.0472C58.6005 37.9911 58.7127 37.9257 58.8435 37.7388L60.6561 35.1787L60.6655 35.188Z" fill="white"/>
<path d="M34.3445 31.4039H40.7075L40.2403 32.9269H37.6989L37.3064 34.2163H39.9133L39.4368 35.786H36.8393L36.2132 37.8883C36.1385 38.1219 36.8299 38.15 37.0822 38.15L38.3903 37.9724L37.8671 39.7103H34.9332C34.6996 39.7103 34.5221 39.673 34.2698 39.6169C34.0268 39.5515 33.9147 39.4487 33.8026 39.2805C33.6998 39.1124 33.5316 38.9722 33.6438 38.5985L34.4847 35.8141H33.0364L33.5129 34.2163H34.9705L35.3536 32.9269H33.9054L34.3726 31.4039H34.3445Z" fill="white"/>
<path d="M38.6332 28.6755H41.2401L40.7636 30.264H37.1943L36.8112 30.6003C36.6431 30.7592 36.587 30.6938 36.3721 30.8152C36.1665 30.918 35.7461 31.1142 35.1948 31.1142H34.0549L34.5221 29.5819H34.8678C35.1574 29.5819 35.3536 29.5538 35.4564 29.4884C35.5685 29.4137 35.6993 29.2548 35.8395 28.9932L36.4936 27.7972H39.0911L38.6332 28.6662V28.6755Z" fill="white"/>
<path fill-rule="evenodd" clip-rule="evenodd" d="M43.6414 31.2918C43.6414 31.2918 44.3515 30.6377 45.5755 30.4321C45.8559 30.3761 47.5844 30.3948 47.5844 30.3948L47.846 29.5258H44.174L43.6414 31.2918ZM47.0892 31.9551H43.4452L43.221 32.6933H46.3791C46.7528 32.6466 46.8276 32.6933 46.8556 32.6839L47.0892 31.9551ZM42.3707 27.8346H44.5945L44.2674 28.9558C44.2674 28.9558 44.9682 28.3952 45.4634 28.199C45.9493 28.0121 47.0612 27.8533 47.0612 27.8533L50.6585 27.8346L49.4345 31.9178C49.2289 32.6185 48.986 33.067 48.8365 33.2726C48.6963 33.4875 48.5375 33.6557 48.2291 33.8332C47.9301 33.9921 47.6498 34.0855 47.3975 34.1135C47.1546 34.1322 46.7902 34.1416 46.2857 34.1416H42.8192L41.8381 37.3744C41.7447 37.6921 41.6979 37.8416 41.7634 37.9351C41.8194 38.0098 41.9315 38.1032 42.0997 38.1032L43.6227 37.9631L43.0995 39.7384H41.3896C40.8477 39.7384 40.4459 39.729 40.1749 39.701C39.9133 39.6823 39.633 39.701 39.4555 39.5608C39.2966 39.4207 39.0537 39.2338 39.0537 39.0469C39.0724 38.8694 39.1378 38.5798 39.2593 38.178L42.3707 27.844V27.8346Z" fill="white"/>
<path d="M48.8458 34.4219L48.6403 35.4029C48.5468 35.7113 48.4721 35.9449 48.2385 36.1411C47.9955 36.3466 47.7059 36.5615 47.0425 36.5615L45.8091 36.6083V37.7202C45.7811 38.0378 45.8652 38.0005 45.9213 38.0565C45.9773 38.1126 46.024 38.1313 46.0801 38.15L46.4725 38.1313L47.6498 38.0659L47.164 39.6823H45.8091C44.8654 39.6823 44.1553 39.6636 43.9311 39.4768C43.7068 39.3366 43.6788 39.1497 43.6788 38.8414L43.7629 34.5153H45.9213L45.8932 35.3936H46.4165C46.594 35.3936 46.7061 35.3749 46.7902 35.3282C46.8556 35.2721 46.9023 35.2067 46.9397 35.1039L47.1453 34.4125H48.8458V34.4219Z" fill="white"/>
<path d="M18.0306 12.754C17.9558 13.0997 16.5636 19.5001 16.5636 19.5001C16.2646 20.7895 16.0497 21.7239 15.3116 22.3125C14.8911 22.6583 14.4053 22.8264 13.8353 22.8264C12.929 22.8264 12.3964 22.3779 12.3029 21.5183L12.2843 21.2287L12.5646 19.4908C12.5646 19.4908 14.0222 13.6604 14.2744 12.8942C14.2838 12.8475 14.2931 12.8288 14.2931 12.8101C11.462 12.8381 10.9575 12.8101 10.9294 12.7727C10.9107 12.8288 10.836 13.1932 10.836 13.1932L9.35037 19.7524L9.21955 20.313L8.97662 22.135C8.97662 22.6769 9.0794 23.1161 9.2943 23.4898C9.97639 24.6765 11.9012 24.854 12.9944 24.854C14.4053 24.854 15.7227 24.555 16.6104 24.0131C18.1614 23.0974 18.5632 21.6678 18.9276 20.3971L19.0958 19.743C19.0958 19.743 20.5907 13.6884 20.8524 12.9035C20.8524 12.8568 20.8617 12.8381 20.871 12.8194C18.8154 12.8381 18.2175 12.8194 18.0212 12.7821" fill="white"/>
<path d="M26.3184 24.7606C25.3093 24.7512 24.9635 24.7512 23.7862 24.8073L23.7395 24.7232C23.8423 24.2747 23.9544 23.8356 24.0572 23.3871L24.1974 22.7797C24.4123 21.8267 24.6272 20.7241 24.6552 20.3878C24.6739 20.1822 24.7393 19.6776 24.1693 19.6776C23.9264 19.6776 23.6741 19.7991 23.4125 19.9112C23.2723 20.4158 22.9827 21.836 22.8519 22.4901C22.5622 23.8542 22.5435 24.0131 22.4127 24.6858L22.3286 24.7699C21.2915 24.7606 20.9364 24.7606 19.7405 24.8166L19.6844 24.7139C19.8806 23.901 20.0862 23.0881 20.273 22.2752C20.7683 20.0794 20.8897 19.2385 21.0299 18.1173L21.1233 18.0519C22.2819 17.893 22.5622 17.8556 23.8236 17.594L23.9264 17.7155L23.7395 18.4163C23.9544 18.2948 24.1506 18.164 24.3749 18.0519C24.9635 17.7622 25.6269 17.6781 25.9913 17.6781C26.5426 17.6781 27.1406 17.837 27.3929 18.4723C27.6358 19.0423 27.477 19.7431 27.1593 21.1166L27.0004 21.8173C26.6734 23.3497 26.6267 23.63 26.4492 24.6858L26.3277 24.7699L26.3184 24.7606Z" fill="white"/>
<path d="M30.3922 24.7606C29.7848 24.7606 29.4018 24.7512 29.0187 24.7606C28.6449 24.7606 28.2712 24.7793 27.7106 24.8073L27.6358 24.7139C27.7853 24.1345 27.8787 23.929 27.9535 23.7234C28.0282 23.5179 28.103 23.3123 28.2338 22.7237C28.4113 21.9575 28.5141 21.4156 28.5982 20.9484C28.6823 20.4905 28.7197 20.1075 28.7851 19.659L28.8318 19.6216L28.8785 19.5749C29.4765 19.4908 29.8596 19.4347 30.252 19.3693C30.6445 19.3132 31.0462 19.2385 31.6629 19.117L31.6909 19.1731L31.7096 19.2292C31.5975 19.7057 31.476 20.1822 31.3639 20.6681C31.2518 21.1539 31.1397 21.6211 31.0275 22.0976C30.8033 23.1067 30.7099 23.4898 30.6538 23.7515C30.6071 24.0131 30.5884 24.1532 30.495 24.6765L30.4389 24.7232L30.3828 24.7606H30.3922Z" fill="white"/>
<path d="M36.7925 21.1913C36.7365 21.4529 36.5122 22.4247 36.2039 22.8358C35.989 23.1348 35.7367 23.3217 35.4471 23.3217C35.363 23.3217 34.8678 23.3217 34.8584 22.5835C34.8584 22.2191 34.9238 21.8454 35.0173 21.4436C35.2789 20.2756 35.5966 19.2946 36.3908 19.2946C37.0168 19.2946 37.0542 20.0234 36.7925 21.2007M39.4181 21.3128C39.7732 19.7711 39.5022 19.0423 39.1565 18.6031C38.6332 17.9397 37.7082 17.7155 36.7458 17.7155C36.1665 17.7155 34.8024 17.7715 33.7278 18.762C32.9617 19.4721 32.5973 20.4438 32.3824 21.3688C32.1675 22.3125 31.9152 24.0224 33.4849 24.6484C33.9708 24.854 34.6622 24.9101 35.1107 24.9101C36.26 24.9101 37.4373 24.5924 38.3156 23.658C38.9976 22.9012 39.3153 21.7706 39.4181 21.3034" fill="white"/>
<path d="M63.9638 24.8633C62.7491 24.854 62.4034 24.854 61.2822 24.9007L61.2074 24.8073C61.5158 23.658 61.8241 22.5088 62.0857 21.3408C62.4408 19.8271 62.5155 19.1918 62.637 18.3041L62.7304 18.2294C63.9357 18.0612 64.2628 18.0051 65.5242 17.7809L65.5615 17.8837C65.3279 18.8274 65.1037 19.7804 64.8795 20.7335C64.4216 22.7237 64.2534 23.7421 64.0759 24.7793L63.9638 24.8633Z" fill="white"/>
<path d="M62.1418 21.3221C62.0857 21.5651 61.8521 22.5461 61.5438 22.9573C61.3382 23.2469 60.8523 23.4338 60.572 23.4338C60.4879 23.4338 60.0021 23.4338 59.9834 22.705C59.9834 22.3499 60.0581 21.9668 60.1516 21.5651C60.4132 20.4158 60.7309 19.4441 61.5251 19.4441C62.1511 19.4441 62.4221 20.1542 62.1511 21.3315M64.5431 21.4436C64.8981 19.9112 63.4779 21.3128 63.2537 20.7989C62.9079 20.0047 63.1228 18.4069 61.7306 17.865C61.1981 17.6594 59.9367 17.9304 58.8622 18.9115C58.096 19.6216 57.7409 20.5746 57.526 21.4996C57.3111 22.434 57.0588 24.1345 58.6192 24.7419C59.1144 24.9474 59.5629 25.0128 60.0114 24.9942C61.5812 24.9101 62.7678 22.5461 63.6554 21.6118C64.3375 20.8736 64.459 21.8921 64.5618 21.4436" fill="white"/>
<path d="M46.2763 24.7606C45.2672 24.7512 44.9308 24.7512 43.7442 24.8073L43.6975 24.7232C43.8003 24.2747 43.9124 23.8356 44.0152 23.3871L44.1553 22.7797C44.3702 21.8267 44.5851 20.7241 44.6132 20.3878C44.6318 20.1822 44.6972 19.6776 44.1273 19.6776C43.875 19.6776 43.6321 19.7991 43.3705 19.9112C43.2303 20.4158 42.9406 21.836 42.8005 22.4901C42.5108 23.8542 42.4922 24.0131 42.3613 24.6858L42.2773 24.7699C41.2401 24.7606 40.8851 24.7606 39.6984 24.8166L39.6424 24.7139C39.8386 23.901 40.0348 23.0881 40.2217 22.2752C40.7169 20.0794 40.8383 19.2385 40.9785 18.1173L41.0719 18.0519C42.2305 17.893 42.5108 17.8556 43.7722 17.594L43.875 17.7155L43.6975 18.4163C43.903 18.2948 44.1179 18.164 44.3235 18.0519C44.9121 17.7622 45.5755 17.6781 45.9306 17.6781C46.4819 17.6781 47.0799 17.837 47.3415 18.4723C47.5751 19.0423 47.4162 19.7431 47.0986 21.1166L46.9397 21.8173C46.6127 23.3497 46.5566 23.63 46.3884 24.6858L46.267 24.7699L46.2763 24.7606Z" fill="white"/>
<path d="M54.9752 12.7353L54.1436 12.7447C51.9759 12.7727 51.107 12.754 50.7426 12.7167C50.7052 12.8755 50.6491 13.1558 50.6491 13.1558L49.8736 16.7624C49.8736 16.7624 48.0142 24.4242 47.9301 24.7886C49.8269 24.7699 50.6024 24.7699 50.9294 24.7979C51.0042 24.4335 51.4433 22.2939 51.4433 22.2939C51.4433 22.2939 51.8171 20.7241 51.8451 20.6681C51.8451 20.6681 51.9572 20.5092 52.0787 20.4438H52.2469C53.882 20.4438 55.732 20.4438 57.171 19.3787C58.152 18.6498 58.8341 17.5753 59.1238 16.2672C59.2079 15.9495 59.2639 15.5571 59.2639 15.1834C59.2639 14.6788 59.1612 14.1836 58.8715 13.8005C58.1334 12.7634 56.6664 12.754 54.9659 12.7447M56.0497 16.5008C55.8722 17.295 55.3583 17.9771 54.6856 18.2948C54.1343 18.5751 53.4616 18.5938 52.7701 18.5938H52.3216L52.359 18.4163C52.359 18.4163 53.1906 14.819 53.1812 14.8283L53.2093 14.6414L53.228 14.5013L53.555 14.5387C53.555 14.5387 55.2555 14.6882 55.3022 14.6882C55.975 14.9404 56.2553 15.6225 56.0591 16.5008" fill="white"/>
<path d="M73.8867 17.7715L73.7933 17.6688C72.5599 17.9117 72.3263 17.9584 71.1864 18.1079L71.1023 18.192C71.1023 18.192 71.1023 18.2294 71.0929 18.2481V18.2294C70.2427 20.1915 70.2614 19.7617 69.5699 21.3034C69.5699 21.2287 69.5699 21.182 69.5699 21.1166L69.4017 17.7809L69.2896 17.6781C67.9909 17.921 67.9628 17.9678 66.7575 18.1173L66.6641 18.2014C66.6641 18.2014 66.6547 18.2854 66.6454 18.3322V18.3509C66.8042 19.117 66.7669 18.9488 66.9164 20.1542C66.9911 20.7428 67.0752 21.3502 67.1499 21.9295C67.2714 22.9105 67.3368 23.3964 67.477 24.8914C66.6734 26.2275 66.4772 26.7414 65.7017 27.9094L65.7391 28.0121C66.907 27.9654 67.178 27.9654 68.0469 27.9654L68.2338 27.7505C68.8879 26.3396 73.8773 17.7715 73.8773 17.7715" fill="white"/>
<path d="M31.4947 18.6031C32.1581 18.1453 32.2422 17.5006 31.6816 17.1736C31.1116 16.8372 30.1212 16.9493 29.4578 17.4071C28.7851 17.865 28.7103 18.5004 29.2709 18.8367C29.8316 19.1637 30.822 19.0703 31.4947 18.6031Z" fill="white"/>
<path d="M68.1497 27.8626L67.178 29.5352C66.8696 30.1051 66.2997 30.5349 65.384 30.5349L63.833 30.5069L64.2815 29.0026H64.5805C64.7393 29.0026 64.8608 28.9932 64.9449 28.9465C65.0196 28.9185 65.0757 28.8624 65.1411 28.769L65.711 27.8533H68.1404L68.1497 27.8626Z" fill="white"/>
</g>
<defs>
<clipPath id="clip0_1801_18925">
<rect width="79.995" height="50.0444" rx="8" fill="white"/>
</clipPath>
</defs>
</svg>
