<svg width="80" height="50" viewBox="0 0 80 50" fill="none" xmlns="http://www.w3.org/2000/svg">
<g clip-path="url(#clip0_1801_18931)">
<path d="M15.6679 0H35.6304C38.4299 0 40.1559 2.27709 39.5056 5.06999L30.2055 44.9355C29.553 47.7196 26.7601 49.9901 23.9761 49.9901H4.00912C1.21622 49.9901 -0.511987 47.7196 0.13609 44.9355L9.4318 5.06999C10.0843 2.27709 12.875 0 15.6679 0Z" fill="#ED171F"/>
<path d="M33.9772 0H56.9332C59.7217 0 58.4652 2.27709 57.8083 5.06999L48.5104 44.9355C47.8623 47.7196 48.0651 49.9901 45.2722 49.9901H22.3184C19.5189 49.9901 17.7907 47.7196 18.4454 44.9355L27.7367 5.06999C28.3958 2.27709 31.1798 0 33.9772 0Z" fill="#082F67"/>
<path d="M56.025 0H75.9853C78.7782 0 80.5152 2.27709 79.8605 5.06999L70.5604 44.9355C69.9079 47.7196 67.1128 49.9901 64.3221 49.9901H44.364C41.5733 49.9901 39.8407 47.7196 40.4932 44.9355L49.7933 5.06999C50.4436 2.27709 53.2343 0 56.025 0Z" fill="#006A65"/>
<path d="M19.3734 15.4635C17.2264 15.4855 16.6003 15.4635 16.3953 15.4172C16.3116 15.7809 14.8633 22.4556 14.8633 22.4556C14.5503 23.8091 14.3188 24.7746 13.5539 25.3852C13.1131 25.7511 12.6039 25.9319 12.0109 25.9319C11.063 25.9319 10.5097 25.458 10.4105 24.5564L10.4017 24.2566C10.4017 24.2566 10.6861 22.4468 10.6927 22.4358C10.6927 22.4358 12.2049 16.3562 12.4782 15.5538C12.4848 15.5053 12.4936 15.4899 12.5047 15.4679C9.54202 15.4943 9.01518 15.4679 8.98212 15.4216C8.96889 15.4811 8.88292 15.8602 8.88292 15.8602L7.33547 22.7047L7.1988 23.2933L6.9453 25.1912C6.9453 25.7533 7.05552 26.2096 7.27595 26.6042C7.99237 27.8453 10.0049 28.0216 11.1468 28.0216C12.6149 28.0216 13.9838 27.713 14.9162 27.1399C16.5342 26.1876 16.9618 24.6975 17.3322 23.3727L17.5129 22.6893C17.5129 22.6893 19.0802 16.3761 19.3513 15.5538C19.3513 15.5053 19.3602 15.4899 19.3734 15.4679M24.7013 20.5577C24.3243 20.5577 23.6344 20.6503 23.015 20.9545C22.7857 21.0735 22.5697 21.1992 22.3492 21.3358L22.5476 20.5996L22.4396 20.4761C21.128 20.7407 20.8305 20.7848 19.6225 20.9523L19.5255 21.0206C19.3734 22.1845 19.261 23.0618 18.7297 25.361C18.5291 26.1942 18.3197 27.0473 18.1147 27.896L18.1676 28.0018C19.4263 27.9423 19.7944 27.9423 20.8723 27.9533L20.9649 27.8607C21.095 27.1575 21.117 26.9966 21.4256 25.5704C21.5623 24.8914 21.8577 23.4101 22.0054 22.8789C22.2809 22.7576 22.5388 22.643 22.7989 22.643C23.4051 22.643 23.328 23.1632 23.3103 23.3793C23.2883 23.7298 23.059 24.8826 22.832 25.8746L22.6865 26.505C22.5807 26.9834 22.4639 27.4419 22.3581 27.9158L22.4066 28.0018C23.63 27.9423 23.9959 27.9423 25.0474 27.9533L25.1686 27.8607C25.3582 26.7651 25.4177 26.4698 25.7528 24.8738L25.9225 24.1398C26.2509 22.7003 26.4141 21.9751 26.165 21.3821C25.9026 20.7164 25.2722 20.5555 24.6991 20.5555M30.6398 22.0589C29.9917 22.1845 29.5773 22.2595 29.1695 22.3278C28.7595 22.3895 28.3605 22.4468 27.7256 22.5328L27.6771 22.5791L27.6353 22.6144C27.5691 23.0861 27.525 23.4873 27.4369 23.9656C27.3509 24.4572 27.2429 25.0193 27.0599 25.8195C26.9166 26.4345 26.8439 26.6483 26.7623 26.8643C26.6852 27.0826 26.597 27.2964 26.4405 27.896L26.511 28.0018C27.0974 27.9731 27.4765 27.9533 27.8733 27.9489C28.2701 27.9423 28.6779 27.9489 29.3106 27.9533L29.3679 27.9158L29.4252 27.8585C29.52 27.3118 29.5288 27.1685 29.5861 26.8974C29.6412 26.613 29.736 26.2207 29.9719 25.1692C30.0799 24.6644 30.2099 24.1772 30.3246 23.6724C30.448 23.161 30.567 22.6673 30.6839 22.1691L30.664 22.1184L30.6376 22.0567L30.6398 22.0589ZM35.9478 20.5996C35.3461 20.5996 33.9132 20.6613 32.789 21.6996C31.9932 22.4336 31.6207 23.4476 31.3893 24.4109C31.1666 25.4029 30.8999 27.1773 32.5355 27.8431C33.0469 28.0547 33.7699 28.1142 34.2351 28.1142C35.4386 28.1142 36.6665 27.7835 37.5835 26.8048C38.3021 26.0135 38.6239 24.8407 38.7319 24.347C39.1045 22.7312 38.8245 21.9839 38.463 21.5232C37.9075 20.8288 36.9508 20.5996 35.9478 20.5996ZM35.9875 24.2346C35.939 24.4969 35.701 25.5109 35.3769 25.9407C35.1565 26.2603 34.8875 26.4521 34.5878 26.4521C34.5062 26.4521 33.9882 26.4521 33.9794 25.685C33.9683 25.3059 34.0477 24.9135 34.1513 24.488C34.418 23.2668 34.7553 22.2418 35.5863 22.2418C36.2366 22.2418 36.2785 23.0111 35.9897 24.2346M64.5117 27.9731C64.6947 26.8908 64.8732 25.8371 65.3516 23.754C65.5764 22.762 65.8189 21.7679 66.0614 20.7848L66.0173 20.6745C64.7079 20.9126 64.3618 20.9655 63.1075 21.1507L63.0061 21.2234C62.9929 21.3226 62.9797 21.4196 62.9687 21.5144C62.7725 21.197 62.4837 20.9258 62.0428 20.7561C61.4918 20.5445 60.1714 20.8332 59.0471 21.8583C58.2602 22.5879 57.8744 23.5953 57.6518 24.5564C57.427 25.5285 57.158 27.3052 58.7959 27.9423C59.3117 28.1583 59.7812 28.2222 60.2441 28.2046C60.7401 28.1781 61.203 27.929 61.6306 27.5697C61.591 27.7174 61.5535 27.8629 61.5138 28.0106L61.591 28.101C62.7659 28.0547 63.1252 28.0547 64.3949 28.0569L64.5117 27.9731ZM62.5873 23.7386C62.5432 23.9414 62.4947 24.1552 62.4396 24.3977C62.3581 24.7526 62.2655 25.1053 62.1773 25.458C62.0891 25.6982 61.9855 25.9231 61.8709 26.073C61.6483 26.3772 61.1435 26.5645 60.8459 26.5645C60.7643 26.5645 60.2551 26.5645 60.2353 25.8062C60.2309 25.4381 60.3102 25.048 60.4006 24.6181C60.6806 23.4278 61.0046 22.4049 61.84 22.4049C62.3691 22.4049 62.6446 22.8965 62.5851 23.7386M45.5566 20.5555C45.1796 20.5555 44.4875 20.6481 43.8702 20.9523C43.6498 21.0713 43.425 21.197 43.2089 21.3336L43.4073 20.5974L43.2993 20.4739C41.9833 20.7385 41.6968 20.7825 40.48 20.9501L40.3852 21.0184C40.2375 22.1823 40.1163 23.0596 39.5916 25.3588C39.3932 26.192 39.1926 27.0451 38.9788 27.8938L39.0405 27.9996C40.2794 27.9401 40.6563 27.9401 41.7298 27.9511L41.829 27.8585C41.9591 27.1553 41.9811 26.9944 42.2765 25.5682C42.422 24.8892 42.7262 23.4079 42.8739 22.8767C43.1406 22.7554 43.4051 22.6408 43.6719 22.6408C44.2626 22.6408 44.1965 23.161 44.1744 23.3771C44.1458 23.7276 43.9298 24.8804 43.6983 25.8724L43.5528 26.5028C43.4382 26.9812 43.3214 27.4397 43.2178 27.9136L43.2618 27.9996C44.4963 27.9401 44.8622 27.9401 45.9071 27.9511L46.0371 27.8585C46.2223 26.7629 46.2708 26.4676 46.6147 24.8716L46.7734 24.1376C47.1128 22.6981 47.276 21.9729 47.0291 21.3799C46.7579 20.7142 46.1231 20.5533 45.5566 20.5533M59.3403 19.0896C59.4263 18.7546 59.4836 18.3512 59.4836 17.9544C59.4836 17.4209 59.3822 16.9161 59.078 16.5061C58.2999 15.4282 56.7767 15.415 54.9956 15.4062L54.1271 15.415C51.8566 15.4414 50.955 15.4282 50.5737 15.3797C50.5428 15.5472 50.4745 15.8448 50.4745 15.8448L49.6677 19.6142C49.6677 19.6142 47.7278 27.6138 47.6353 27.9885C49.6104 27.9665 50.4282 27.9665 50.7588 28.0018C50.8448 27.6248 51.3033 25.3852 51.3033 25.3852C51.3033 25.3852 51.6935 23.7518 51.7155 23.6923C51.7155 23.6923 51.8478 23.5248 51.9712 23.452H52.152C53.8559 23.452 55.7869 23.452 57.3035 22.3498C58.3241 21.5849 59.0251 20.4585 59.3381 19.0918M56.1308 19.3255C55.9434 20.1587 55.4056 20.8663 54.7112 21.1992C54.1271 21.4901 53.4283 21.5144 52.703 21.5144H52.2313L52.2666 21.3314C52.2666 21.3314 53.1351 17.573 53.1307 17.5796L53.1571 17.3923L53.1748 17.2424L53.5187 17.2754C53.5187 17.2754 55.2909 17.4253 55.3372 17.4253C56.0382 17.7009 56.3292 18.4085 56.1286 19.3255M74.7575 20.6613L74.6583 20.5467C73.3599 20.8112 73.1241 20.8531 71.9337 21.0074L71.8478 21.0912C71.8434 21.1044 71.8434 21.1264 71.8345 21.1463L71.8301 21.1242C70.9396 23.1743 70.9726 22.7268 70.2496 24.336C70.2364 24.2654 70.2364 24.2147 70.2364 24.142L70.0578 20.6591L69.9454 20.5445C68.5897 20.809 68.5523 20.8509 67.3024 21.0052L67.1966 21.089C67.1966 21.1352 67.1878 21.1837 67.1834 21.2256L67.1944 21.2477C67.3421 22.0456 67.3134 21.8671 67.4633 23.1302C67.5405 23.7474 67.6397 24.3756 67.7124 24.9818C67.8336 26.009 67.9042 26.5116 68.0563 28.0767C67.2076 29.4633 67.007 29.9967 66.2024 31.2201V31.2289L65.6271 32.1393C65.5566 32.2341 65.4993 32.2958 65.4133 32.3201C65.3229 32.3664 65.2017 32.384 65.0407 32.384H64.7189L64.2472 33.9491L65.8718 33.9733C66.8263 33.9689 67.4236 33.5259 67.7455 32.9285L68.7639 31.1848H68.7507L68.8543 31.0614C69.5376 29.5867 74.7553 20.6547 74.7553 20.6547M30.6508 20.0309C30.0556 19.676 29.0328 19.7862 28.3318 20.2711C27.6309 20.7473 27.5449 21.4086 28.1356 21.7613C28.722 22.1096 29.7647 22.0082 30.459 21.521C31.149 21.0338 31.2438 20.3659 30.653 20.0287" fill="white"/>
</g>
<defs>
<clipPath id="clip0_1801_18931">
<rect width="79.9986" height="49.9901" rx="8" fill="white"/>
</clipPath>
</defs>
</svg>
