<svg width="80" height="88" viewBox="0 0 80 88" fill="none" xmlns="http://www.w3.org/2000/svg">
<g clip-path="url(#clip0_1801_20131)">
<path d="M15.6693 0H35.6389C38.424 0 40.1568 2.27247 39.5063 5.06959L30.2095 44.9847C29.556 47.7728 26.7619 50.0453 23.9737 50.0453H4.00716C1.21904 50.0453 -0.513796 47.7758 0.136766 44.9847L9.43951 5.06959C10.0901 2.27247 12.8752 0 15.6693 0Z" fill="#ED171F"/>
<path d="M33.9751 3.65333e-05H56.9366C59.7218 3.65333e-05 58.4686 2.27251 57.8151 5.06962L48.5153 44.9848C47.8618 47.7729 48.0686 50.0453 45.2745 50.0453H22.3159C19.5248 50.0453 17.798 47.7759 18.4515 44.9848L27.7423 5.06962C28.3988 2.27251 31.184 3.65333e-05 33.9751 3.65333e-05Z" fill="#082F67"/>
<path d="M56.0282 3.65333e-05H75.9917C78.7829 3.65333e-05 80.5157 2.27251 79.8621 5.06962L70.5654 44.9848C69.9118 47.7729 67.1207 50.0453 64.3266 50.0453H44.369C41.5719 50.0453 39.8421 47.7759 40.4986 44.9848L49.7954 5.06962C50.4489 2.27251 53.237 3.65333e-05 56.0312 3.65333e-05" fill="#006A65"/>
<path fill-rule="evenodd" clip-rule="evenodd" d="M52.6915 37.5468H54.5742L55.1169 35.742H53.2371L52.6915 37.5468ZM54.1995 32.5551L53.5519 34.6957C53.5519 34.6957 54.2684 34.3239 54.6522 34.213C55.0359 34.1201 55.6265 34.0481 55.6265 34.0481L56.0822 32.5551H54.1995ZM55.1379 29.4732L54.5113 31.5298C54.5113 31.5298 55.2128 31.215 55.5965 31.1101C55.9833 31.0082 56.5649 30.9722 56.5649 30.9722L57.0176 29.4732H55.1379ZM59.2991 29.4732L56.8647 37.5288H57.5213L57.0146 39.1897H56.361L56.2081 39.7053H53.8937L54.0526 39.1897H49.3428L49.8164 37.6517H50.2931L52.7605 29.4732L53.2521 27.8243H55.6145L55.3687 28.6547C55.3687 28.6547 55.9983 28.2021 56.5949 28.0492C57.1915 27.8903 60.6122 27.8303 60.6122 27.8303L60.1115 29.4732H59.2991Z" fill="white"/>
<path d="M60.3363 27.8303H62.8606L62.8876 28.7747C62.8726 28.9336 63.0075 29.0085 63.3013 29.0085H63.817L63.3463 30.5585H61.9852C60.804 30.6454 60.3573 30.1388 60.3873 29.5661L60.3363 27.8333V27.8303Z" fill="white"/>
<path d="M60.672 35.1903H58.2707L58.6814 33.8083H61.4275L61.8203 32.5521H59.1071L59.5688 30.9932H67.1177L66.644 32.5521H64.1137L63.715 33.8083H66.2543L65.8376 35.1903H63.0914L62.6027 35.772H63.715L63.9848 37.5168C64.0148 37.6877 64.0208 37.7986 64.0748 37.8705C64.1287 37.9365 64.4645 37.9635 64.6594 37.9635H64.9951L64.4795 39.6633H63.6251C63.4901 39.6633 63.2953 39.6543 63.0285 39.6364C62.7706 39.6154 62.5878 39.4625 62.4139 39.3785C62.255 39.3036 62.0211 39.1087 61.9642 38.7849L61.6973 37.0521L60.4472 38.7639C60.0485 39.3036 59.5118 39.7143 58.6094 39.7143H56.8616L57.3173 38.2033H57.9888C58.1777 38.2033 58.3546 38.1284 58.4775 38.0654C58.6034 38.0115 58.7204 37.9455 58.8433 37.7536L60.663 35.1903H60.672Z" fill="white"/>
<path d="M40.7115 31.4129L40.2438 32.9329H37.6955L37.3028 34.228H39.905L39.4313 35.7929H36.8291L36.1995 37.9005C36.1246 38.1314 36.8141 38.1643 37.0659 38.1643L38.367 37.9845L37.8454 39.7173H34.9104C34.6765 39.7173 34.4966 39.6873 34.2418 39.6274C33.993 39.5674 33.8881 39.4565 33.7741 39.2856C33.6692 39.1117 33.5073 38.9738 33.6182 38.611L34.4577 35.8199H33.0126L33.4953 34.228H34.9463L35.3301 32.9329H33.8851L34.3438 31.4129H40.7115Z" fill="white"/>
<path d="M38.6339 28.6817H41.2451L40.7684 30.2707H37.2038L36.8141 30.6034C36.6522 30.7653 36.5922 30.6964 36.3794 30.8163C36.1755 30.9152 35.7528 31.1161 35.2042 31.1161H34.0589L34.5236 29.5871H34.8684C35.1592 29.5871 35.3571 29.5631 35.456 29.4972C35.5669 29.4282 35.6958 29.2633 35.8397 29.0025L36.4933 27.8123H39.0896L38.6339 28.6787V28.6817Z" fill="white"/>
<path fill-rule="evenodd" clip-rule="evenodd" d="M43.6405 31.296C43.6405 31.296 44.354 30.6454 45.5742 30.4296C45.85 30.3756 47.5888 30.3966 47.5888 30.3966L47.8497 29.5242H44.1741L43.6435 31.296H43.6405ZM47.0852 31.9615H43.4396L43.2148 32.693H46.3717C46.7434 32.6481 46.8214 32.702 46.8513 32.684L47.0852 31.9615ZM42.3634 27.8303H44.5849L44.2641 28.9515C44.2641 28.9515 44.9656 28.3939 45.4603 28.1871C45.9489 28.0072 47.0552 27.8393 47.0552 27.8393L50.6558 27.8213L49.4326 31.9046C49.2197 32.6061 48.9859 33.0558 48.833 33.2597C48.6981 33.4725 48.5362 33.6494 48.2244 33.8203C47.9216 33.9822 47.6458 34.0751 47.388 34.0991C47.1541 34.1171 46.7854 34.1291 46.2817 34.1351H42.8161L41.8357 37.3669C41.7458 37.6877 41.6978 37.8376 41.7608 37.9275C41.8147 38.0025 41.9286 38.0924 42.0935 38.0924L43.6225 37.9425L43.1009 39.7143H41.389C40.8464 39.7143 40.4476 39.7053 40.1718 39.6843C39.905 39.6663 39.6322 39.6843 39.4463 39.5404C39.2874 39.4025 39.0446 39.2196 39.0506 39.0248C39.0686 38.8539 39.1405 38.5601 39.2514 38.1614L42.3694 27.8303H42.3634Z" fill="white"/>
<path d="M48.848 34.4199L48.6441 35.4032C48.5542 35.709 48.4792 35.9428 48.2484 36.1407C48.0056 36.3416 47.7178 36.5604 47.0492 36.5604L45.817 36.6114L45.808 37.7176C45.793 38.0324 45.877 38.0025 45.925 38.0504C45.9819 38.1074 46.0329 38.1284 46.0868 38.1494L46.4766 38.1284L47.6548 38.0624L47.1691 39.6843H45.817C44.8697 39.6843 44.1681 39.6603 43.9373 39.4805C43.7094 39.3366 43.6795 39.1537 43.6825 38.8419L43.7694 34.5218H45.928L45.898 35.4032H46.4196C46.5935 35.4032 46.7164 35.3822 46.7914 35.3373C46.8543 35.2863 46.9053 35.2173 46.9383 35.1124L47.1481 34.4199H48.848Z" fill="white"/>
<path d="M18.0317 12.7535C17.9538 13.1012 16.5717 19.4929 16.5657 19.4989C16.2659 20.791 16.0531 21.7174 15.3156 22.311C14.8958 22.6528 14.4072 22.8237 13.8405 22.8237C12.9352 22.8237 12.4015 22.368 12.3086 21.5166L12.2936 21.2198C12.2936 21.2198 12.5694 19.4869 12.5694 19.4779C12.5694 19.4779 14.0264 13.6499 14.2842 12.8824C14.2962 12.8374 14.3022 12.8194 14.3052 12.7924C11.4721 12.8224 10.9715 12.7924 10.9415 12.7535C10.9205 12.8074 10.8456 13.1732 10.8456 13.1732L9.36156 19.7328L9.23264 20.2934L8.98981 22.1132C8.98981 22.6528 9.09474 23.0935 9.30759 23.4652C9.98814 24.6524 11.9158 24.8263 13.0041 24.8263C14.4132 24.8263 15.7323 24.5295 16.6227 23.9869C18.1696 23.0695 18.5774 21.6395 18.9371 20.3683L19.105 19.7208C19.105 19.7208 20.604 13.6648 20.8618 12.8794C20.8648 12.8344 20.8738 12.8164 20.8828 12.7894C18.8352 12.8164 18.2266 12.7894 18.0347 12.7505" fill="white"/>
<path d="M26.3181 24.7664C25.3108 24.7514 24.9601 24.7514 23.7849 24.8083L23.7399 24.7244C23.8448 24.2777 23.9527 23.831 24.0547 23.3843L24.2016 22.7697C24.4174 21.8223 24.6273 20.7161 24.6543 20.3773C24.6753 20.1765 24.7472 19.6698 24.1656 19.6698C23.9228 19.6698 23.6679 19.7867 23.4101 19.9066C23.2722 20.4133 22.9844 21.8343 22.8465 22.4789C22.5587 23.843 22.5407 23.9959 22.4118 24.6764L22.3248 24.7634C21.2935 24.7484 20.9338 24.7484 19.7436 24.8053L19.6866 24.7064C19.8875 23.897 20.0853 23.0785 20.2772 22.272C20.7749 20.0745 20.8918 19.2321 21.0327 18.1168L21.1286 18.0479C22.2859 17.889 22.5677 17.85 23.8268 17.5982L23.9318 17.7151L23.7399 18.4166C23.9497 18.2877 24.1566 18.1648 24.3725 18.0479C24.9691 17.7601 25.6256 17.6731 25.9884 17.6731C26.54 17.6731 27.1396 17.826 27.3914 18.4616C27.6313 19.0312 27.4754 19.7268 27.1576 21.1088L26.9957 21.8044C26.6749 23.3393 26.6269 23.6211 26.4441 24.6734L26.3271 24.7604L26.3181 24.7664Z" fill="white"/>
<path d="M30.3984 24.7664C29.7928 24.7604 29.4031 24.7514 29.0223 24.7604C28.6416 24.7664 28.2758 24.7844 27.7152 24.8083L27.6822 24.7604L27.6433 24.7094C27.7992 24.1308 27.8861 23.9269 27.961 23.7201C28.036 23.5162 28.1079 23.3093 28.2429 22.7157C28.4197 21.9513 28.5277 21.4116 28.6026 20.9379C28.6806 20.4823 28.7315 20.0955 28.7855 19.6458L28.8365 19.6098L28.8814 19.5679C29.484 19.4839 29.8678 19.43 30.2575 19.373C30.6502 19.313 31.046 19.2351 31.6695 19.1182L31.7115 19.2261C31.5946 19.7058 31.4777 20.1795 31.3608 20.6621C31.2498 21.1418 31.1359 21.6185 31.025 22.0952C30.8031 23.1085 30.7102 23.4832 30.6592 23.7531C30.6083 24.0109 30.5933 24.1518 30.5003 24.6764L30.4494 24.7214L30.3954 24.7634L30.3984 24.7664Z" fill="white"/>
<path d="M36.7901 21.1928C36.7361 21.4506 36.5113 22.4219 36.1995 22.8357C35.9866 23.1385 35.7318 23.3213 35.45 23.3213C35.3691 23.3213 34.8744 23.3213 34.8624 22.5898C34.8564 22.2211 34.9284 21.8463 35.0213 21.4416C35.2851 20.2754 35.6029 19.295 36.3914 19.295C37.0179 19.295 37.0629 20.0206 36.7871 21.1958M39.4133 21.3067C39.7671 19.7657 39.4973 19.0402 39.1495 18.6025C38.6279 17.934 37.7015 17.7211 36.7451 17.7211C36.1665 17.7211 34.7964 17.7781 33.7232 18.7674C32.9557 19.4779 32.5959 20.4463 32.3801 21.3756C32.1672 22.32 31.9124 24.0229 33.4803 24.6524C33.966 24.8593 34.6585 24.9163 35.1082 24.9163C36.2565 24.9163 37.4287 24.6015 38.3101 23.6631C38.9996 22.9016 39.3054 21.7714 39.4133 21.3067Z" fill="white"/>
<path d="M63.9698 24.8683C62.7586 24.8563 62.4079 24.8563 61.2866 24.9043L61.2147 24.8143C61.5235 23.6631 61.8263 22.5119 62.0961 21.3487C62.4468 19.8377 62.5248 19.1991 62.6447 18.3147L62.7377 18.2368C63.9428 18.0659 64.2726 18.0179 65.5318 17.7841L65.5677 17.889C65.3399 18.8394 65.1091 19.7867 64.8872 20.7371C64.4285 22.7277 64.2576 23.7441 64.0807 24.7874L63.9698 24.8713V24.8683Z" fill="white"/>
<path d="M62.15 21.3307C62.0931 21.5795 61.8652 22.5599 61.5534 22.9616C61.3466 23.2524 60.8579 23.4353 60.5761 23.4353C60.4982 23.4353 60.0035 23.4353 59.9855 22.7038C59.9795 22.347 60.0575 21.9692 60.1474 21.5645C60.4142 20.4193 60.726 19.4449 61.5265 19.4449C62.15 19.4449 62.4199 20.1555 62.15 21.3307ZM64.5454 21.4446C64.9022 19.9066 63.4841 21.3067 63.2563 20.803C62.9085 20.0116 63.1274 18.4106 61.7303 17.871C61.1907 17.6641 59.9315 17.934 58.8523 18.9173C58.0968 19.6218 57.728 20.5872 57.5182 21.5106C57.3023 22.4399 57.0505 24.1428 58.6094 24.7544C59.1041 24.9612 59.5538 25.0212 60.0035 25.0032C61.5684 24.9193 62.7646 22.5539 63.643 21.6185C64.3236 20.878 64.4465 21.9003 64.5454 21.4446Z" fill="white"/>
<path d="M46.2757 24.7664C45.2714 24.7514 44.9266 24.7514 43.7454 24.8083L43.7005 24.7244C43.7994 24.2777 43.9133 23.831 44.0182 23.3843L44.1621 22.7697C44.378 21.8223 44.5879 20.7161 44.6118 20.3773C44.6298 20.1765 44.7018 19.6698 44.1262 19.6698C43.8773 19.6698 43.6255 19.7867 43.3707 19.9066C43.2298 20.4133 42.942 21.8343 42.8011 22.4789C42.5193 23.843 42.4953 23.9959 42.3664 24.6764L42.2824 24.7634C41.2481 24.7484 40.8883 24.7484 39.7011 24.8053L39.6472 24.7064C39.845 23.897 40.0399 23.0785 40.2288 22.272C40.7295 20.0745 40.8464 19.2321 40.9873 18.1168L41.0802 18.0479C42.2374 17.889 42.5222 17.85 43.7814 17.5982L43.8773 17.7151L43.6945 18.4166C43.8983 18.2877 44.1142 18.1648 44.33 18.0479C44.9146 17.7601 45.5832 17.6731 45.937 17.6731C46.4856 17.6731 47.0912 17.826 47.349 18.4616C47.5858 19.0312 47.427 19.7268 47.1062 21.1088L46.9503 21.8044C46.6235 23.3393 46.5725 23.6211 46.3956 24.6734L46.2697 24.7604L46.2757 24.7664Z" fill="white"/>
<path d="M54.9789 12.7415L54.1454 12.7535C51.9749 12.7774 51.1055 12.7654 50.7457 12.7205C50.7157 12.8794 50.6588 13.1672 50.6588 13.1672C50.6588 13.1672 49.8853 16.7678 49.8853 16.7737C49.8853 16.7737 48.0235 24.4396 47.9336 24.7963C49.8313 24.7784 50.6078 24.7784 50.9316 24.8083C51.0035 24.4486 51.4472 22.311 51.4472 22.311C51.4472 22.311 51.828 20.7371 51.849 20.6771C51.849 20.6771 51.9659 20.5152 52.0828 20.4523H52.2597C53.8936 20.4523 55.7434 20.4523 57.1824 19.382C58.1657 18.6535 58.8403 17.5742 59.1431 16.2701C59.218 15.9463 59.278 15.5626 59.278 15.1818C59.278 14.6812 59.176 14.1835 58.8852 13.7968C58.1447 12.7594 56.6847 12.7505 54.9819 12.7385M56.0701 16.4889C55.8933 17.2864 55.3746 17.9609 54.7091 18.2877C54.1574 18.5665 53.4859 18.5905 52.7903 18.5905H52.3436L52.3766 18.4076C52.3766 18.4076 53.2041 14.8131 53.2011 14.8191L53.225 14.6392L53.243 14.4923L53.5698 14.5313C53.5698 14.5313 55.2757 14.6752 55.3176 14.6812C55.9892 14.936 56.268 15.6105 56.0731 16.4889" fill="white"/>
<path d="M73.8901 17.7751L73.7972 17.6671C72.559 17.913 72.3342 17.9579 71.192 18.1049L71.108 18.1918C71.108 18.1918 71.102 18.2278 71.093 18.2428V18.2278C70.2386 20.1855 70.2686 19.7657 69.579 21.3067C69.573 21.2347 69.5731 21.1868 69.5671 21.1148L69.3962 17.7781L69.2882 17.6701C67.9931 17.916 67.9601 17.9609 66.7579 18.1078L66.665 18.1948C66.653 18.2368 66.653 18.2847 66.644 18.3297L66.653 18.3477C66.8029 19.1152 66.7699 18.9413 66.9168 20.1495C66.9888 20.7431 67.0757 21.3427 67.1477 21.9273C67.2676 22.9046 67.3366 23.3903 67.4775 24.8833C66.671 26.2234 66.4731 26.73 65.7057 27.9023L65.7446 28.0102C66.9168 27.9712 67.1867 27.9712 68.0561 27.9712L68.2449 27.7524C68.8985 26.3403 73.8871 17.7781 73.8871 17.7781" fill="white"/>
<path d="M31.4987 18.6025C32.1612 18.1408 32.2482 17.4993 31.6875 17.1725C31.1179 16.8367 30.1286 16.9416 29.46 17.4063C28.7885 17.862 28.7135 18.5036 29.2742 18.8394C29.8348 19.1631 30.8331 19.0642 31.4987 18.6025Z" fill="white"/>
<path d="M68.158 27.8663L67.1807 29.5362C66.8719 30.1088 66.3022 30.5345 65.3939 30.5405L63.8409 30.5165L64.2936 29.0115H64.5964C64.7553 29.0115 64.8722 28.9995 64.9622 28.9575C65.0371 28.9336 65.0971 28.8706 65.16 28.7777L65.7326 27.8663H68.161H68.158Z" fill="white"/>
<path d="M30.4134 71.9606C30.7312 72.3893 30.983 72.863 31.1539 73.3816C31.3278 73.8913 31.4207 74.4399 31.4207 75.0155C31.4207 75.5912 31.3278 76.1398 31.1509 76.6524C30.983 77.1651 30.7312 77.6508 30.4104 78.0735C29.9787 78.6521 30.1046 79.4795 30.6832 79.9142C31.2648 80.343 32.0833 80.223 32.524 79.6354C32.9977 78.9879 33.3874 78.2743 33.6422 77.4979C33.903 76.7184 34.0439 75.885 34.0439 75.0185C34.0439 74.1521 33.903 73.3217 33.6422 72.5422C33.3844 71.7627 32.9977 71.0402 32.524 70.4016C32.0863 69.82 31.2678 69.6941 30.6862 70.1318C30.1076 70.5605 29.9817 71.376 30.4134 71.9636" fill="#231815"/>
<path d="M34.9194 69.5083C35.8997 71.1122 36.4663 72.9979 36.4663 75.0155C36.4663 77.0332 35.8997 78.9159 34.9194 80.5228C34.5296 81.1344 34.7305 81.9499 35.3421 82.3276C35.9567 82.7054 36.7691 82.5135 37.1499 81.8989C38.379 79.8963 39.1015 77.5368 39.0985 75.0155C39.0985 72.4912 38.379 70.1318 37.1499 68.1262C36.7691 67.5086 35.9567 67.3287 35.3421 67.7005C34.7275 68.0842 34.5296 68.8967 34.9194 69.5083Z" fill="#231815"/>
<path d="M39.6862 67.0199C41.0592 69.3613 41.8477 72.0895 41.8477 75.0155C41.8477 77.9416 41.0592 80.6667 39.6832 83.0142C39.3204 83.6407 39.5333 84.4472 40.1568 84.8129C40.7864 85.1877 41.5899 84.9658 41.9586 84.3453C43.5596 81.6111 44.4769 78.4153 44.4769 75.0155C44.4769 71.6158 43.5596 68.429 41.9586 65.6858C41.5899 65.0592 40.7864 64.8464 40.1568 65.2151C39.5333 65.5809 39.3204 66.3784 39.6892 67.0199" fill="#231815"/>
<path d="M44.4499 64.5076C46.2158 67.6075 47.2231 71.1901 47.2231 75.0155C47.2231 78.841 46.2158 82.4176 44.4499 85.5205C44.0902 86.147 44.312 86.9565 44.9416 87.3133C45.5682 87.67 46.3747 87.4512 46.7344 86.8216C48.7221 83.3409 49.8493 79.3027 49.8493 75.0125C49.8493 70.7224 48.7221 66.6871 46.7344 63.2035C46.3776 62.5859 45.5742 62.3521 44.9536 62.7088C44.315 63.0716 44.0932 63.872 44.4529 64.5046" fill="#231815"/>
</g>
<defs>
<clipPath id="clip0_1801_20131">
<rect width="80" height="87.4844" rx="8" fill="white"/>
</clipPath>
</defs>
</svg>
