<svg width="80" height="88" viewBox="0 0 80 88" fill="none" xmlns="http://www.w3.org/2000/svg">
<g clip-path="url(#clip0_1801_20094)">
<path d="M30.4202 71.8843C30.7377 72.3126 30.9892 72.7857 31.1599 73.3038C31.3336 73.813 31.4265 74.361 31.4265 74.936C31.4265 75.511 31.3337 76.0591 31.157 76.5712C30.9892 77.0833 30.7377 77.5684 30.4172 77.9907C29.986 78.5687 30.1118 79.3953 30.6898 79.8295C31.2708 80.2578 32.0883 80.138 32.5286 79.551C33.0018 78.9041 33.3911 78.1914 33.6456 77.4157C33.9062 76.6371 34.0469 75.8045 34.0469 74.939C34.0469 74.0735 33.9062 73.244 33.6456 72.4653C33.3881 71.6867 33.0018 70.9649 32.5286 70.327C32.0913 69.746 31.2737 69.6202 30.6928 70.0575C30.1148 70.4857 29.989 71.3003 30.4202 71.8873" fill="#231815"/>
<path d="M34.9244 69.4346C35.9037 71.0368 36.4697 72.9205 36.4697 74.936C36.4697 76.9515 35.9037 78.8323 34.9244 80.4375C34.5351 81.0484 34.7358 81.863 35.3467 82.2403C35.9606 82.6177 36.7722 82.426 37.1526 81.8121C38.3804 79.8116 39.1022 77.4546 39.0992 74.936C39.0992 72.4144 38.3804 70.0575 37.1526 68.054C36.7722 67.437 35.9606 67.2573 35.3467 67.6287C34.7328 68.012 34.5351 68.8236 34.9244 69.4346Z" fill="#231815"/>
<path d="M39.6862 66.9489C41.0578 69.2878 41.8454 72.0131 41.8454 74.936C41.8454 77.8589 41.0578 80.5812 39.6832 82.9261C39.3208 83.5521 39.5334 84.3577 40.1564 84.723C40.7853 85.0974 41.5879 84.8758 41.9562 84.2558C43.5555 81.5246 44.4719 78.3321 44.4719 74.936C44.4719 71.5399 43.5555 68.3564 41.9562 65.6162C41.5879 64.9903 40.7853 64.7776 40.1564 65.146C39.5334 65.5114 39.3208 66.308 39.6892 66.9489" fill="#231815"/>
<path d="M44.4419 64.4392C46.2059 67.5358 47.2121 71.1146 47.2121 74.936C47.2121 78.7574 46.2059 82.3302 44.4419 85.4298C44.0825 86.0557 44.3042 86.8643 44.9331 87.2207C45.559 87.5771 46.3646 87.3585 46.724 86.7296C48.7095 83.2526 49.8356 79.2186 49.8356 74.933C49.8356 70.6474 48.7095 66.6164 46.724 63.1365C46.3676 62.5196 45.565 62.286 44.945 62.6423C44.3072 63.0047 44.0855 63.8043 44.4449 64.4362" fill="#231815"/>
<path d="M15.6678 0H35.6312C38.4314 0 40.1564 2.27605 39.5065 5.0702L30.2076 44.937C29.5548 47.7222 26.7636 49.9923 23.9784 49.9923H4.00904C1.21489 49.9923 -0.513113 47.7222 0.13676 44.937L9.43264 5.0702C10.0855 2.27905 12.8767 0 15.6708 0" fill="#ED171F"/>
<path d="M33.9782 8.99146e-06H56.9363C59.7245 8.99146e-06 58.4697 2.27606 57.8108 5.07021L48.512 44.9371C47.8621 47.7222 48.0657 49.9923 45.2746 49.9923H22.3194C19.5192 49.9923 17.7912 47.7222 18.4471 44.9371L27.737 5.07021C28.3958 2.27906 31.181 8.99146e-06 33.9782 8.99146e-06Z" fill="#082F67"/>
<path d="M56.0258 8.99146e-06H75.9862C78.7804 8.99146e-06 80.5174 2.27606 79.8615 5.07021L70.5626 44.9371C69.9127 47.7222 67.1156 49.9923 64.3244 49.9923H44.367C41.5759 49.9923 39.8419 47.7222 40.4948 44.9371L49.7936 5.07021C50.4435 2.27906 53.2347 8.99146e-06 56.0258 8.99146e-06Z" fill="#006A65"/>
<path d="M19.3725 15.4622C17.2252 15.4861 16.5993 15.4622 16.3956 15.4173C16.3118 15.7796 14.8623 22.4551 14.8623 22.4551C14.5478 23.8087 14.3172 24.773 13.5536 25.384C13.1133 25.7493 12.6012 25.929 12.0112 25.929C11.0649 25.929 10.5108 25.4558 10.412 24.5544L10.403 24.2549C10.403 24.2549 10.6875 22.4461 10.6965 22.4341C10.6965 22.4341 12.2089 16.3546 12.4814 15.552C12.4874 15.5041 12.4964 15.4891 12.5084 15.4652C9.54352 15.4921 9.01943 15.4652 8.98648 15.4203C8.97151 15.4802 8.88766 15.8575 8.88766 15.8575L7.34234 22.7036L7.20458 23.2906L6.95301 25.1893C6.95301 25.7523 7.06382 26.2075 7.28245 26.6029C7.9982 27.8457 10.0107 28.0224 11.1547 28.0224C12.6222 28.0224 13.9908 27.7139 14.9252 27.1419C16.5424 26.1896 16.9706 24.6982 17.342 23.3745L17.5247 22.6916C17.5247 22.6916 19.094 16.3786 19.3635 15.555C19.3635 15.5071 19.3725 15.4921 19.3845 15.4682M24.7122 20.5593C24.3349 20.5593 23.6431 20.6522 23.0261 20.9576C22.7955 21.0744 22.5799 21.2032 22.3613 21.341L22.559 20.6043L22.4511 20.4815C21.1394 20.748 20.8399 20.7899 19.633 20.9576L19.5372 21.0265C19.3845 22.1915 19.2736 23.066 18.7436 25.366C18.5429 26.1986 18.3333 27.0521 18.1266 27.9026L18.1805 28.0104C19.4384 27.9505 19.8067 27.9505 20.8849 27.9625L20.9777 27.8697C21.1065 27.1659 21.1304 27.0042 21.4389 25.5786C21.5737 24.8988 21.8701 23.4164 22.0199 22.8893C22.2954 22.7695 22.553 22.6527 22.8135 22.6527C23.4185 22.6527 23.3436 23.1738 23.3256 23.3894C23.3017 23.7398 23.0741 24.8928 22.8465 25.8841L22.7027 26.516C22.5979 26.9922 22.4811 27.4534 22.3733 27.9266L22.4212 28.0104C23.6461 27.9505 24.0114 27.9505 25.0626 27.9625L25.1824 27.8697C25.3711 26.7736 25.431 26.4771 25.7664 24.8838L25.9341 24.1501C26.2635 22.7126 26.4253 21.9849 26.1767 21.3919C25.9131 20.727 25.2842 20.5653 24.7092 20.5653M30.6509 22.0687C30.004 22.1945 29.5878 22.2694 29.1805 22.3383C28.7702 22.4011 28.3719 22.458 27.737 22.5449L27.6861 22.5898L27.6441 22.6258C27.5783 23.0989 27.5333 23.4972 27.4465 23.9764C27.3626 24.4676 27.2518 25.0306 27.0691 25.8302C26.9254 26.4441 26.8535 26.6598 26.7696 26.8754C26.6918 27.094 26.6049 27.3066 26.4492 27.9056L26.5211 28.0134C27.1081 27.9835 27.4854 27.9655 27.8837 27.9595C28.279 27.9535 28.6893 27.9595 29.3212 27.9655L29.3781 27.9296L29.435 27.8727C29.5279 27.3276 29.5369 27.1809 29.5967 26.9113C29.6507 26.6268 29.7465 26.2345 29.9831 25.1833C30.0909 24.6802 30.2227 24.192 30.3365 23.6889C30.4593 23.1798 30.579 22.6857 30.6958 22.1855L30.6779 22.1346L30.6509 22.0717V22.0687ZM35.9577 20.6073C35.3558 20.6073 33.9212 20.6672 32.7982 21.7064C32.0016 22.4401 31.6302 23.4553 31.3966 24.4166C31.172 25.4079 30.9055 27.1838 32.5436 27.8487C33.0557 28.0613 33.7775 28.1212 34.2417 28.1212C35.4456 28.1212 36.6735 27.7888 37.5899 26.8125C38.3086 26.0219 38.6291 24.8479 38.7399 24.3538C39.1142 22.7366 38.8327 21.9909 38.4704 21.5297C37.9163 20.8349 36.958 20.6043 35.9547 20.6043M35.9937 24.24C35.9457 24.5035 35.7062 25.5157 35.3827 25.944C35.1611 26.2644 34.8946 26.4561 34.5921 26.4561C34.5112 26.4561 33.9931 26.4561 33.9841 25.6894C33.9722 25.3121 34.053 24.9168 34.1578 24.4945C34.4244 23.2726 34.7598 22.2484 35.5924 22.2484C36.2422 22.2484 36.2842 23.0181 35.9937 24.2429M64.5162 27.9835C64.6989 26.8993 64.8786 25.8482 65.3577 23.7638C65.5824 22.7695 65.8249 21.7782 66.0675 20.7959L66.0226 20.6851C64.7139 20.9247 64.3694 20.9756 63.1146 21.1613L63.0128 21.2362C63.0008 21.335 62.9889 21.4308 62.9739 21.5267C62.7762 21.2092 62.4887 20.9367 62.0485 20.766C61.4974 20.5533 60.1767 20.8438 59.0537 21.8681C58.266 22.5988 57.8797 23.6051 57.6581 24.5664C57.4335 25.5397 57.164 27.3156 58.8021 27.9535C59.3172 28.1691 59.7874 28.232 60.2516 28.2141C60.7487 28.1871 61.2099 27.9385 61.6382 27.5792C61.5993 27.7259 61.5603 27.8727 61.5214 28.0194L61.5993 28.1092C62.7732 28.0613 63.1356 28.0613 64.4024 28.0673L64.5192 27.9835H64.5162ZM62.5935 23.7488C62.5486 23.9525 62.5007 24.1651 62.4468 24.4077C62.3659 24.764 62.2731 25.1144 62.1862 25.4678C62.0964 25.7074 61.9946 25.932 61.8808 26.0818C61.6591 26.3872 61.153 26.5729 60.8565 26.5729C60.7757 26.5729 60.2666 26.5729 60.2486 25.8152C60.2426 25.4469 60.3235 25.0575 60.4133 24.6263C60.6948 23.4344 61.0183 22.4131 61.8538 22.4131C62.3839 22.4131 62.6594 22.9043 62.5995 23.7458M45.5711 20.5623C45.1937 20.5623 44.5019 20.6552 43.885 20.9606C43.6634 21.0774 43.4387 21.2062 43.2231 21.344L43.4208 20.6073L43.313 20.4845C41.9982 20.751 41.7107 20.7929 40.4949 20.9606L40.399 21.0295C40.2523 22.1945 40.1295 23.069 39.6054 25.369C39.4047 26.2016 39.2071 27.0551 38.9945 27.9056L39.0573 28.0134C40.2942 27.9535 40.6715 27.9535 41.7467 27.9655L41.8455 27.8727C41.9743 27.1689 41.9982 27.0072 42.2917 25.5816C42.4385 24.9018 42.741 23.4194 42.8877 22.8923C43.1542 22.7725 43.4208 22.6557 43.6843 22.6557C44.2773 22.6557 44.2084 23.1768 44.1874 23.3924C44.1605 23.7428 43.9419 24.8958 43.7113 25.8871L43.5645 26.519C43.4507 26.9952 43.3339 27.4564 43.2291 27.9296L43.274 28.0134C44.5079 27.9535 44.8733 27.9535 45.9214 27.9655L46.0502 27.8727C46.2329 26.7766 46.2838 26.4801 46.6252 24.8868L46.7839 24.1531C47.1224 22.7156 47.2871 21.9879 47.0415 21.3949C46.772 20.73 46.1341 20.5683 45.5681 20.5683M59.3531 19.1039C59.437 18.7684 59.4969 18.3641 59.4969 17.9688C59.4969 17.4358 59.3951 16.9326 59.0926 16.5193C58.3139 15.4412 56.7896 15.4292 55.0077 15.4203L54.1392 15.4292C51.8661 15.4562 50.9647 15.4412 50.5844 15.3933C50.5544 15.561 50.4855 15.8575 50.4855 15.8575L49.6799 19.628C49.6799 19.628 47.7393 27.6271 47.6465 28.0014C49.62 27.9805 50.4406 27.9805 50.77 28.0134C50.8569 27.6361 51.3151 25.396 51.3151 25.396C51.3151 25.396 51.7044 23.7638 51.7284 23.7039C51.7284 23.7039 51.8601 23.5362 51.9829 23.4613H52.1626C53.8667 23.4613 55.7983 23.4613 57.3137 22.3592C58.3349 21.5925 59.0357 20.4665 59.3502 19.1009M56.1427 19.3345C55.954 20.167 55.418 20.8768 54.7232 21.2062C54.1392 21.4967 53.4414 21.5207 52.7137 21.5207H52.2405L52.2764 21.338C52.2764 21.338 53.1449 17.5795 53.1389 17.5885L53.1659 17.3998L53.1838 17.2501L53.5283 17.283C53.5283 17.283 55.3012 17.4328 55.3461 17.4328C56.0469 17.7083 56.3404 18.4181 56.1367 19.3315M74.7674 20.6672L74.6686 20.5534C73.3718 20.8169 73.1353 20.8588 71.9433 21.0145L71.8565 21.0984C71.8565 21.0984 71.8535 21.1343 71.8415 21.1553L71.8355 21.1343C70.9431 23.1828 70.979 22.7366 70.2542 24.3448C70.2423 24.2759 70.2423 24.222 70.2423 24.1501L70.0626 20.6672L69.9488 20.5534C68.5921 20.8169 68.5562 20.8588 67.3074 21.0145L67.2025 21.0984C67.2025 21.1463 67.1936 21.1942 67.1906 21.2362L67.2025 21.2571C67.3493 22.0567 67.3223 21.8771 67.4721 23.1409C67.547 23.7578 67.6488 24.3867 67.7206 24.9916C67.8404 26.0189 67.9123 26.522 68.065 28.0853C67.2145 29.4719 67.0169 30.005 66.2113 31.2298V31.2388L65.6363 32.1492C65.5644 32.2451 65.5075 32.305 65.4236 32.3289C65.3338 32.3768 65.214 32.3918 65.0493 32.3918H64.7288L64.2556 33.9581L65.8788 33.9821C66.8342 33.9791 67.4302 33.5358 67.7536 32.9369L68.7718 31.1939H68.7598L68.8617 31.0711C69.5445 29.5977 74.7644 20.6642 74.7644 20.6642M30.6599 20.0412C30.0639 19.6879 29.0427 19.7957 28.3389 20.2838C27.6381 20.76 27.5513 21.4218 28.1413 21.7722C28.7283 22.1196 29.7704 22.0178 30.4652 21.5327C31.154 21.0475 31.2499 20.3767 30.6599 20.0412Z" fill="white"/>
</g>
<defs>
<clipPath id="clip0_1801_20094">
<rect width="80" height="87.3916" rx="8" fill="white"/>
</clipPath>
</defs>
</svg>
