<svg width="80" height="35" viewBox="0 0 80 35" fill="none" xmlns="http://www.w3.org/2000/svg">
<g clip-path="url(#clip0_1801_20104)">
<path d="M32.3528 18.409L28.3437 29.2218L27.9162 27.0249C26.9172 24.3314 24.7556 21.5048 22.2378 20.3596L25.9062 34.2441L30.2417 34.2419L36.6905 18.409H32.3528Z" fill="#025EA3"/>
<path d="M35.7905 34.2595L38.3533 18.3936H42.4503L39.8853 34.2595H35.7905Z" fill="#025EA3"/>
<path d="M54.7455 18.7859C53.9367 18.4661 52.6586 18.1177 51.075 18.1177C47.023 18.1177 44.1756 20.2717 44.1503 23.3533C44.1239 25.6347 46.1856 26.9085 47.7352 27.6667C49.3342 28.4426 49.8694 28.9405 49.8639 29.635C49.8485 30.6977 48.5836 31.1824 47.4088 31.1824C45.7713 31.1824 44.8987 30.9439 43.5558 30.3537L43.0239 30.101L42.4502 33.6518C43.4085 34.0936 45.1779 34.4771 47.0164 34.4969C51.3167 34.4969 54.1147 32.3682 54.1477 29.0789C54.1653 27.2689 53.0707 25.8985 50.7046 24.7676C49.277 24.0324 48.3935 23.5456 48.4066 22.7994C48.4077 22.1411 49.1474 21.4355 50.7541 21.4355C52.0959 21.4136 53.0597 21.7213 53.8191 22.0455L54.184 22.2279L54.7411 18.7892L54.7455 18.7859Z" fill="#025EA3"/>
<path d="M62.0869 18.4101C61.1055 18.4101 60.3703 18.6892 59.9373 19.7266L53.8566 34.2639H58.1591C58.1591 34.2639 58.8625 32.3077 59.0218 31.878C59.4911 31.878 63.6694 31.8879 64.2661 31.8879C64.3925 32.4407 64.7651 34.2639 64.7651 34.2639H68.5697L65.253 18.4101H62.0869ZM60.1999 28.6339C60.5395 27.7228 61.8319 24.1995 61.8319 24.1995C61.8066 24.2423 62.1682 23.2818 62.377 22.6884L62.6495 24.0566C62.6495 24.0566 63.4364 27.8426 63.6013 28.635L60.1999 28.6339Z" fill="#025EA3"/>
<path d="M24.6248 18.4013H18.0177L17.9793 18.6738C23.1159 19.9882 26.5051 23.2137 27.9162 27.0293L26.4799 19.7376C26.2337 18.7343 25.5139 18.4364 24.6237 18.4013" fill="#F1A535"/>
<path d="M5.62566 14.568H3.0134L0 0.983586L2.88701 0.501135L4.94869 11.1315L10.2007 0.641804H12.9734L5.62566 14.568Z" fill="#025EA3"/>
<path d="M19.2102 10.1271H12.9812C12.8109 12.0162 13.6889 12.8394 15.1759 12.8394C16.4221 12.8394 17.5178 12.3767 18.697 11.6338L18.6871 13.5229C17.531 14.246 16.1935 14.7087 14.6264 14.7087C11.9141 14.7087 10.1228 13.1614 10.6602 9.66441C11.1459 6.50925 13.3285 4.60142 15.8605 4.60142C18.7739 4.60142 19.7432 6.79168 19.3201 9.54462C19.2893 9.74573 19.2322 9.98641 19.2102 10.1271ZM15.544 6.26857C14.5791 6.26857 13.6779 7.03236 13.2526 8.61928H17.1101C17.1815 7.11149 16.7089 6.26857 15.5429 6.26857" fill="#025EA3"/>
<path d="M23.2708 8.94128L22.4147 14.5076H20.0036L21.4971 4.80143H23.5467V6.75102C24.3643 5.62566 25.4743 4.68164 26.9942 4.60142L27.0074 6.99279C25.4853 7.0939 24.1149 7.89725 23.2708 8.94238" fill="#025EA3"/>
<path d="M26.9757 14.5076L28.4692 4.80144H30.8803L29.3868 14.5076H26.9757ZM29.9462 3.17385C29.1429 3.17385 28.5857 2.61118 28.7099 1.80782C28.8363 0.983591 29.5693 0.401134 30.3726 0.401134C31.176 0.401134 31.7101 0.983591 31.5826 1.80782C31.4584 2.61118 30.7298 3.17385 29.9451 3.17385" fill="#025EA3"/>
<path d="M37.5586 2.1496C36.7344 2.1496 36.2366 2.51116 36.1036 3.37496L35.8838 4.80143H37.7323V6.7708H35.5805L34.3892 14.5076H31.9978L33.1891 6.7708H31.7824L32.0857 4.80143H33.4924L33.7496 3.13428C34.0804 0.984684 35.5706 0.180232 37.5597 0.180232C37.9817 0.180232 38.2972 0.220896 38.5323 0.260459L38.551 2.22982C38.3158 2.19026 37.9609 2.1496 37.5586 2.1496Z" fill="#025EA3"/>
<path d="M37.585 14.5076L39.0785 4.80143H41.4897L39.9962 14.5076H37.585ZM40.5556 3.17385C39.7522 3.17385 39.195 2.61117 39.3192 1.80782C39.4456 0.983584 40.1786 0.401128 40.982 0.401128C41.7853 0.401128 42.3194 0.983584 42.1919 1.80782C42.0677 2.61117 41.3391 3.17385 40.5556 3.17385Z" fill="#025EA3"/>
<path d="M50.8387 10.1271H44.6097C44.4394 12.0162 45.3175 12.8394 46.8044 12.8394C48.0506 12.8394 49.1463 12.3767 50.3255 11.6338L50.3156 13.5229C49.1595 14.246 47.8221 14.7087 46.2549 14.7087C43.5426 14.7087 41.7513 13.1614 42.2898 9.66441C42.7755 6.50925 44.9581 4.60142 47.4902 4.60142C50.4035 4.60142 51.3728 6.79168 50.9497 9.54462C50.919 9.74573 50.8618 9.98641 50.8398 10.1271M47.1737 6.26857C46.2088 6.26857 45.3076 7.03236 44.8823 8.61928H48.7408C48.8122 7.11149 48.3397 6.26857 47.1737 6.26857Z" fill="#025EA3"/>
<path d="M57.982 14.5076L57.9886 13.1613C57.1787 13.9856 56.1226 14.7087 54.7763 14.7087C52.7465 14.7087 51.3508 13.202 51.8552 9.92596C52.4113 6.30923 54.6488 4.70143 56.8995 4.70143C57.8238 4.70143 58.5436 4.86187 59.0942 5.06299L59.8151 0.381345L62.2856 0L60.0525 14.5087H57.9831L57.982 14.5076ZM58.7876 7.05214C58.2282 6.7708 57.7875 6.63013 56.9633 6.63013C55.6973 6.63013 54.6159 7.65547 54.2873 9.78529C53.996 11.6744 54.6642 12.558 55.7291 12.558C56.6138 12.558 57.3765 12.036 58.1436 11.2315L58.7865 7.05214H58.7876Z" fill="#025EA3"/>
<path d="M67.4387 14.5988C66.2969 14.5988 65.3672 14.4153 64.5001 14.112L66.0859 3.80686L67.9563 3.51782L67.2706 7.97748C67.8168 7.49063 68.5773 7.00378 69.5059 7.00378C71.0588 7.00378 72.0984 8.16101 71.7181 10.626C71.3016 13.335 69.6312 14.5988 67.4387 14.5988ZM68.785 8.61598C68.1761 8.61598 67.5651 9.027 67.0244 9.57539L66.5112 12.9086C66.8706 13.046 67.12 13.1064 67.6376 13.1064C68.7949 13.1064 69.6026 12.4064 69.8598 10.7315C70.0774 9.31603 69.607 8.61598 68.785 8.61598Z" fill="#025EA3"/>
<path d="M76.0217 14.9032C75.0887 16.7144 74.1644 17.2781 72.749 17.2781C72.4291 17.2781 72.2511 17.2474 72.0918 17.2023L72.0797 15.6956C72.3138 15.756 72.5654 15.8022 72.916 15.8022C73.449 15.8022 73.9128 15.5593 74.2227 15.0263L74.4645 14.5395L72.916 7.29392L74.8568 7.05105L75.7558 12.2866L78.1889 7.15765H80L76.0217 14.9054V14.9032Z" fill="#025EA3"/>
</g>
<defs>
<clipPath id="clip0_1801_20104">
<rect width="80" height="34.4969" rx="8" fill="white"/>
</clipPath>
</defs>
</svg>
