<svg width="80" height="41" viewBox="0 0 80 41" fill="none" xmlns="http://www.w3.org/2000/svg">
<g clip-path="url(#clip0_1801_19629)">
<path d="M4.76387 14.3776L0.557861 1.45911H2.36044L4.3776 7.81104C4.93554 9.5707 5.40765 11.1158 5.75099 12.6608H5.79391C6.13726 11.1587 6.6952 9.52778 7.25314 7.85396L9.44198 1.45911H11.2446L6.60936 14.3776H4.76387Z" fill="#1A1F71"/>
<path d="M12.1458 10.0429C12.1888 12.3175 13.648 13.2617 15.3218 13.2617C16.5235 13.2617 17.2531 13.0472 17.8969 12.7896L18.1973 13.9914C17.5965 14.2489 16.5664 14.5493 15.1072 14.5493C12.2317 14.5493 10.5579 12.6609 10.5579 9.87119C10.5579 7.08149 12.1888 4.84973 14.8926 4.84973C17.9398 4.84973 18.7124 7.51068 18.7124 9.22741C18.7124 9.57076 18.6694 9.82827 18.6694 9.99995L12.1458 10.0429ZM17.0815 8.84115C17.1244 7.76819 16.6523 6.09437 14.721 6.09437C13.0042 6.09437 12.2746 7.68235 12.1458 8.84115H17.0815Z" fill="#1A1F71"/>
<path d="M20.0429 7.98271C20.0429 6.90975 20.0429 5.96554 19.957 5.10717H21.4163L21.4592 6.90975H21.545C21.9742 5.66511 23.0042 4.89258 24.1201 4.89258C24.2918 4.89258 24.4635 4.89258 24.5922 4.9355V6.52348C24.4206 6.48056 24.2489 6.48056 24.0343 6.48056C22.8326 6.48056 22.0171 7.38185 21.7596 8.62648C21.7167 8.84108 21.6738 9.14151 21.6738 9.39902V14.3346H19.9999V7.98271H20.0429Z" fill="#1A1F71"/>
<path d="M27.5107 2.48922C27.5107 3.04716 27.1245 3.51926 26.4378 3.51926C25.8369 3.51926 25.4077 3.04716 25.4077 2.48922C25.4077 1.88836 25.8369 1.41626 26.4807 1.41626C27.0815 1.41626 27.5107 1.88836 27.5107 2.48922ZM25.6223 5.10725H27.2961V14.3776H25.6223V5.10725Z" fill="#1A1F71"/>
<path d="M29.5278 14.3776V6.39477H28.2402V5.10722H29.5278V4.67803C29.5278 3.39048 29.8282 2.18876 30.6007 1.41623C31.2445 0.815372 32.06 0.557861 32.8754 0.557861C33.4763 0.557861 33.9913 0.686617 34.3347 0.815372L34.1201 2.10293C33.8626 1.97417 33.5192 1.88833 33.0471 1.88833C31.6308 1.88833 31.2445 3.13297 31.2445 4.5922V5.10722H33.4763V6.39477H31.2445V14.3776H29.5278Z" fill="#1A1F71"/>
<path d="M36.9526 2.48922C36.9955 3.04716 36.5663 3.51926 35.8797 3.51926C35.2788 3.51926 34.8496 3.04716 34.8496 2.48922C34.8496 1.88836 35.2788 1.41626 35.9226 1.41626C36.5663 1.41626 36.9526 1.88836 36.9526 2.48922ZM35.0642 5.10725H36.738V14.3776H35.0642V5.10725Z" fill="#1A1F71"/>
<path d="M39.7425 10.0429C39.7854 12.3175 41.2447 13.2617 42.9185 13.2617C44.1202 13.2617 44.8498 13.0472 45.4936 12.7896L45.794 13.9914C45.1932 14.2489 44.1631 14.5493 42.7039 14.5493C39.8284 14.5493 38.1545 12.6609 38.1545 9.87119C38.1545 7.08149 39.7854 4.84973 42.4893 4.84973C45.5365 4.84973 46.309 7.51068 46.309 9.22741C46.309 9.57076 46.2661 9.82827 46.2661 9.99995L39.7425 10.0429ZM44.6781 8.84115C44.6781 7.76819 44.249 6.09437 42.3176 6.09437C40.6009 6.09437 39.8713 7.68235 39.7425 8.84115H44.6781Z" fill="#1A1F71"/>
<path d="M55.6651 0.772461V11.9742C55.6651 12.7896 55.6651 13.7338 55.751 14.3776H54.2488L54.163 12.7467H54.1201C53.605 13.7768 52.4892 14.5493 50.9441 14.5493C48.7123 14.5493 46.9956 12.6609 46.9956 9.82826C46.9956 6.73813 48.884 4.84971 51.1587 4.84971C52.575 4.84971 53.5192 5.53641 53.9484 6.26602H53.9913V0.772461H55.6651ZM53.9913 8.88405C53.9913 8.66946 53.9913 8.36903 53.9055 8.15444C53.648 7.08147 52.7467 6.18019 51.4591 6.18019C49.6995 6.18019 48.6694 7.72525 48.6694 9.78534C48.6694 11.6737 49.5707 13.2188 51.4162 13.2188C52.5321 13.2188 53.5621 12.4892 53.9055 11.2016C53.9484 10.9871 53.9913 10.7295 53.9913 10.472V8.88405Z" fill="#1A1F71"/>
<path d="M61.8884 14.3776C61.9313 13.7338 61.9743 12.7896 61.9743 11.9742V0.772461H63.6481V6.60937H63.691C64.2919 5.57933 65.3648 4.89263 66.867 4.89263C69.1846 4.89263 70.8155 6.82396 70.7725 9.61366C70.7725 12.9184 68.6695 14.5922 66.6095 14.5922C65.279 14.5922 64.206 14.0772 63.5193 12.8325H63.4764L63.3906 14.3776H61.8884ZM63.6481 10.6437C63.6481 10.8583 63.691 11.0729 63.7339 11.2446C64.0773 12.4034 65.0215 13.2188 66.2661 13.2188C68.0258 13.2188 69.0987 11.7596 69.0987 9.65658C69.0987 7.81109 68.1545 6.2231 66.352 6.2231C65.1932 6.2231 64.1202 6.99564 63.7768 8.28319C63.7339 8.45486 63.691 8.71238 63.691 8.96989V10.6437H63.6481Z" fill="#1A1F71"/>
<path d="M72.618 5.10718L74.6351 10.6007C74.8497 11.2016 75.0643 11.9312 75.236 12.4892H75.2789C75.4506 11.9312 75.6223 11.2016 75.8798 10.5578L77.7253 5.10718H79.5278L76.9956 11.7166C75.7939 14.8926 74.9785 16.5235 73.8197 17.5106C73.0042 18.2402 72.1888 18.5407 71.7596 18.5836L71.3304 17.1673C71.7596 17.0385 72.3175 16.781 72.7896 16.3518C73.2617 16.0085 73.8197 15.3218 74.2059 14.4634C74.2918 14.2917 74.3347 14.163 74.3347 14.0771C74.3347 13.9913 74.2918 13.8625 74.2059 13.648L70.7725 5.10718H72.618Z" fill="#1A1F71"/>
<path d="M28.5407 20.6866L23.4334 33.6051L21.3734 22.618C21.1159 21.3733 20.1716 20.6866 19.0987 20.6866H10.7296L10.6008 21.2446C12.3176 21.6309 14.2489 22.2317 15.4506 22.8755C16.1802 23.2618 16.3948 23.6051 16.6094 24.5493L20.515 39.6995H25.751L33.7339 20.6866H28.5407Z" fill="#1A1F71"/>
<path d="M35.8368 20.6866L31.7595 39.6995H36.6951L40.7295 20.6866H35.8368Z" fill="#1A1F71"/>
<path d="M47.2103 25.9656C47.2103 25.2789 47.897 24.5493 49.3134 24.3776C50 24.2918 51.9743 24.2059 54.1631 25.236L55.0215 21.2016C53.8198 20.7724 52.3176 20.3433 50.4292 20.3433C45.5794 20.3433 42.146 22.9184 42.1031 26.6523C42.0601 29.3991 44.5494 30.9012 46.3949 31.8025C48.3262 32.7467 48.97 33.3046 48.9271 34.163C48.9271 35.4506 47.382 36.0085 46.0086 36.0085C43.5194 36.0514 42.1031 35.3218 40.9443 34.8068L40.043 38.9699C41.2018 39.4849 43.3048 39.957 45.4936 39.957C50.6438 39.957 54.0344 37.4248 54.0344 33.4334C54.1202 28.4978 47.1674 28.1973 47.2103 25.9656Z" fill="#1A1F71"/>
<path d="M61.4164 32.9613L64.0344 25.8368L65.4936 32.9613H61.4164ZM63.3048 20.6866C62.3606 20.6866 61.5451 21.2445 61.2018 22.06L53.8198 39.6566H58.97L60.0001 36.8239H66.3091L66.9099 39.6566H71.4593L67.5108 20.6437H63.3048V20.6866Z" fill="#1A1F71"/>
</g>
<defs>
<clipPath id="clip0_1801_19629">
<rect width="80" height="40.3004" rx="8" fill="white"/>
</clipPath>
</defs>
</svg>
