<svg width="80" height="87" viewBox="0 0 80 87" fill="none" xmlns="http://www.w3.org/2000/svg">
<g clip-path="url(#clip0_1801_20097)">
<path d="M80 0H0V86.6675H80V0Z" fill="#1434CB"/>
<path d="M78.001 1.99911H1.9992V56.281H78.001V1.99911Z" fill="white"/>
<path d="M59.221 11.8536L44.3099 47.4496H34.5731L27.2351 19.0386C26.7883 17.2982 26.4002 16.6515 25.0479 15.9106C22.8253 14.7111 19.1681 13.5822 15.9577 12.8884L16.1694 11.8536H31.8449C33.844 11.8536 35.6432 13.1824 36.09 15.4755L39.9707 36.0664L49.5547 11.8536H59.221Z" fill="#1434CB"/>
<path d="M19.9207 79.0592V62.5253H25.9651C27.1528 62.5253 28.1994 62.7134 29.0931 63.078C29.9869 63.4425 30.6924 64.0187 31.1981 64.7949C31.7037 65.571 31.9507 66.5588 31.9507 67.77C31.9507 68.9812 31.7037 69.9573 31.1981 70.7334C30.6924 71.4978 29.9986 72.074 29.0931 72.4385C28.1876 72.8031 27.1528 72.9912 25.9651 72.9912H22.8488V79.0592H19.9089H19.9207ZM25.53 64.8301H22.8488V70.7922H25.53C26.6119 70.7922 27.4468 70.5688 28.023 70.1337C28.5992 69.6868 28.8815 68.9224 28.8815 67.8171C28.8815 66.7117 28.5992 65.9238 28.023 65.4887C27.4468 65.0536 26.6236 64.8419 25.53 64.8419V64.8301Z" fill="white"/>
<path d="M32.08 79.0592L38.2185 62.5253H41.3348L47.4733 79.0592H44.3452L42.7342 74.5317H36.4076L34.7965 79.0592H32.08ZM37.1249 72.3092H41.9816L39.5944 65.6298H39.5473L37.1366 72.3092H37.1249Z" fill="white"/>
<path d="M52.6239 79.0592V71.8976L46.7912 62.5253H50.0368L54.3643 69.6986H54.4349L58.7154 62.5253H61.373L55.5403 71.8741V79.0592H52.6239Z" fill="white"/>
</g>
<defs>
<clipPath id="clip0_1801_20097">
<rect width="80" height="86.6675" rx="8" fill="white"/>
</clipPath>
</defs>
</svg>
