<svg width="80" height="44" viewBox="0 0 80 44" fill="none" xmlns="http://www.w3.org/2000/svg">
<g clip-path="url(#clip0_1801_20122)">
<path d="M18.0156 42.9555L0 22.8695L22.0185 22.8743L18.0156 42.9555Z" fill="#0058A0"/>
<path d="M47.448 19.9185L29.6115 0.182097L25.8102 19.9185H47.448Z" fill="#0058A0"/>
<path d="M67.016 22.9904L61.8394 22.988L59.2347 36.3393C59.1188 36.4258 58.8051 38.9872 56.4261 38.7886C53.5536 38.5504 54.4518 35.7334 54.4518 35.7334L56.742 22.9817L51.658 22.9892L49.1026 36.4022C49.1026 36.4022 47.4997 42.9064 55.9523 43.3998C55.9523 43.3998 63.0821 44.4153 64.67 35.7123C66.3522 26.4849 67.016 22.9904 67.016 22.9904Z" fill="white"/>
<path d="M67.016 22.9904L61.8394 22.988L59.2347 36.3393C59.1188 36.4258 58.8051 38.9872 56.4261 38.7886C53.5536 38.5504 54.4518 35.7334 54.4518 35.7334L56.742 22.9817L51.658 22.9892L49.1026 36.4022C49.1026 36.4022 47.4997 42.9064 55.9523 43.3998C55.9523 43.3998 63.0821 44.4153 64.67 35.7123C66.3522 26.4849 67.016 22.9904 67.016 22.9904Z" fill="#0058A0"/>
<path d="M65.1131 36.3489C65.1131 36.3489 62.9611 42.9803 71.5911 43.3724C71.5911 43.3724 78.8171 43.2368 78.7998 36.8228C78.7998 36.8228 79.3527 33.0247 73.2695 30.4359C73.2695 30.4359 71.991 29.8682 71.9195 28.5849C71.8491 27.3004 73.2202 27.0597 73.2202 27.0597C73.2202 27.0597 74.1604 26.8054 74.6687 27.3732C75.0339 27.7829 74.9796 29.3451 74.9796 29.3451H79.7982C79.7982 29.3451 81.6848 22.7041 73.8643 22.6202C73.8643 22.6202 68.0522 22.2604 66.7948 27.931C66.7948 27.931 65.9904 31.2997 68.6669 33.0371C71.3396 34.7768 71.8936 34.8263 72.8697 35.5197C73.8445 36.2155 73.9482 38.7995 71.9354 38.9303C69.6688 39.0759 70.1376 36.3537 70.0957 36.3537L65.1131 36.3489Z" fill="white"/>
<path d="M65.1131 36.3489C65.1131 36.3489 62.9611 42.9803 71.5911 43.3724C71.5911 43.3724 78.8171 43.2368 78.7998 36.8228C78.7998 36.8228 79.3527 33.0247 73.2695 30.4359C73.2695 30.4359 71.991 29.8682 71.9195 28.5849C71.8491 27.3004 73.2202 27.0597 73.2202 27.0597C73.2202 27.0597 74.1604 26.8054 74.6687 27.3732C75.0339 27.7829 74.9796 29.3451 74.9796 29.3451H79.7982C79.7982 29.3451 81.6848 22.7041 73.8643 22.6202C73.8643 22.6202 68.0522 22.2604 66.7948 27.931C66.7948 27.931 65.9904 31.2997 68.6669 33.0371C71.3396 34.7768 71.8936 34.8263 72.8697 35.5197C73.8445 36.2155 73.9482 38.7995 71.9354 38.9303C69.6688 39.0759 70.1376 36.3537 70.0957 36.3537L65.1131 36.3489Z" fill="#0058A0"/>
<path d="M26.2032 0L22.4886 19.94L0.542873 19.9301L26.2032 0Z" fill="#0058A0"/>
<path d="M45.96 22.8769L43.0626 38.2763L48.5907 38.2862L47.7442 42.8938L36.8868 42.8962L40.7207 22.8817L45.96 22.8769Z" fill="white"/>
<path d="M45.96 22.8769L43.0626 38.2763L48.5907 38.2862L47.7442 42.8938L36.8868 42.8962L40.7207 22.8817L45.96 22.8769Z" fill="#0058A0"/>
<path d="M29.5296 27.6744L28.7121 32.0377H30.6198C33.8921 31.976 33.7663 29.6069 33.7663 29.6069C33.5362 27.6326 31.5218 27.6744 31.5218 27.6744H29.5296ZM25.1929 22.8719L31.9339 22.8916C31.9339 22.8916 36.792 23.057 38.3385 26.4504C39.8842 29.8437 37.75 33.5382 37.3618 33.8342C36.9737 34.1303 35.5551 37.3757 27.7402 36.9338L26.4488 43.0789L21.3324 43.0813L25.1929 22.8719Z" fill="white"/>
<path d="M29.5296 27.6744L28.7121 32.0377H30.6198C33.8921 31.976 33.7663 29.6069 33.7663 29.6069C33.5362 27.6326 31.5218 27.6744 31.5218 27.6744H29.5296ZM25.1929 22.8719L31.9339 22.8916C31.9339 22.8916 36.792 23.057 38.3385 26.4504C39.8842 29.8437 37.75 33.5382 37.3618 33.8342C36.9737 34.1303 35.5551 37.3757 27.7402 36.9338L26.4488 43.0789L21.3324 43.0813L25.1929 22.8719Z" fill="#0058A0"/>
<path d="M18.0156 42.9555L0 22.8695L22.0185 22.8743L18.0156 42.9555ZM47.448 19.9185L29.6115 0.182097L25.8102 19.9185H47.448ZM67.016 22.9904L61.8394 22.988L59.2347 36.3393C59.1188 36.4258 58.8051 38.9872 56.4261 38.7886C53.5536 38.5504 54.4518 35.7334 54.4518 35.7334L56.742 22.9817L51.658 22.9892L49.1026 36.4022C49.1026 36.4022 47.4997 42.9064 55.9523 43.3998C55.9523 43.3998 63.0821 44.4153 64.67 35.7123C66.3522 26.4849 67.016 22.9904 67.016 22.9904ZM65.1131 36.3489C65.1131 36.3489 62.9611 42.9803 71.5911 43.3724C71.5911 43.3724 78.8171 43.2368 78.7998 36.8228C78.7998 36.8228 79.3527 33.0247 73.2695 30.4359C73.2695 30.4359 71.991 29.8682 71.9195 28.5849C71.8491 27.3004 73.2202 27.0597 73.2202 27.0597C73.2202 27.0597 74.1604 26.8054 74.6687 27.3732C75.0339 27.7829 74.9796 29.3451 74.9796 29.3451H79.7982C79.7982 29.3451 81.6848 22.7041 73.8643 22.6202C73.8643 22.6202 68.0522 22.2604 66.7948 27.931C66.7948 27.931 65.9904 31.2997 68.6669 33.0371C71.3396 34.7768 71.8936 34.8263 72.8697 35.5197C73.8445 36.2155 73.9482 38.7995 71.9354 38.9303C69.6688 39.0759 70.1376 36.3537 70.0957 36.3537L65.1131 36.3489ZM26.2032 0L22.4886 19.94L0.542873 19.9301L26.2032 0ZM45.96 22.8769L43.0626 38.2763L48.5907 38.2862L47.7442 42.8938L36.8868 42.8962L40.7207 22.8817L45.96 22.8769ZM29.5296 27.6744L28.7121 32.0377H30.6198C33.8921 31.976 33.7663 29.6069 33.7663 29.6069C33.5362 27.6326 31.5218 27.6744 31.5218 27.6744H29.5296ZM25.1929 22.8719L31.9339 22.8916C31.9339 22.8916 36.792 23.057 38.3385 26.4504C39.8842 29.8437 37.75 33.5382 37.3618 33.8342C36.9737 34.1303 35.5551 37.3757 27.7402 36.9338L26.4488 43.0789L21.3324 43.0813L25.1929 22.8719Z" stroke="#0058A0" stroke-width="0.00120728"/>
</g>
<defs>
<clipPath id="clip0_1801_20122">
<rect width="79.998" height="43.4362" rx="8" fill="white"/>
</clipPath>
</defs>
</svg>
