<svg width="80" height="12" viewBox="0 0 80 12" fill="none" xmlns="http://www.w3.org/2000/svg">
<g clip-path="url(#clip0_1801_18898)">
<g clip-path="url(#clip1_1801_18898)">
<mask id="mask0_1801_18898" style="mask-type:luminance" maskUnits="userSpaceOnUse" x="0" y="0" width="81" height="12">
<path d="M0 11.5901H80.0004V9.14477e-06H0V11.5901Z" fill="white"/>
</mask>
<g mask="url(#mask0_1801_18898)">
<path d="M43.3166 11.119C42.9289 11.2559 42.5568 11.3616 42.1993 11.4306C41.8429 11.5007 41.5049 11.5358 41.184 11.5358C40.3391 11.5358 39.6635 11.3045 39.1583 10.8407C38.653 10.3781 38.4001 9.76396 38.4001 9.00045C38.4001 8.49738 38.4805 8.02343 38.6396 7.57805C38.8002 7.13321 39.0364 6.72665 39.3481 6.35838C39.7158 5.92594 40.1585 5.59326 40.6772 5.36032C41.1954 5.12685 41.7529 5.01092 42.3519 5.01092C42.6771 5.01092 43.0044 5.04975 43.3333 5.12523C43.6616 5.20342 43.996 5.32096 44.3351 5.47841L44.0741 6.77896C43.8056 6.57514 43.5328 6.42416 43.261 6.32873C42.9887 6.23221 42.6965 6.1853 42.3848 6.1853C41.7362 6.1853 41.1927 6.43549 40.7554 6.9364C40.3165 7.4357 40.0975 8.06063 40.0975 8.80958C40.0975 9.29378 40.2323 9.67337 40.5014 9.94675C40.7721 10.2234 41.1441 10.3603 41.6197 10.3603C41.9017 10.3603 42.2042 10.3086 42.5229 10.2066C42.841 10.1053 43.1979 9.94351 43.5948 9.72352L43.3166 11.119Z" fill="#1D337A"/>
<path d="M49.4226 8.54092L48.8618 11.4143H47.3494L47.826 8.9534C47.8605 8.7938 47.8853 8.65846 47.9031 8.54793C47.9225 8.43685 47.9322 8.34842 47.9322 8.28426C47.9322 8.10417 47.8826 7.96451 47.7823 7.86638C47.6821 7.76771 47.5413 7.71918 47.3585 7.71918C47.0469 7.71918 46.7789 7.8405 46.5557 8.08422C46.3324 8.32685 46.1777 8.66278 46.0903 9.09252L45.6353 11.4143H44.1228L45.3953 4.85819H46.9121L46.4187 7.38703C46.6969 7.11474 46.9762 6.912 47.2566 6.77989C47.5381 6.64725 47.8314 6.58201 48.1377 6.58201C48.5723 6.58201 48.9087 6.69632 49.1444 6.92278C49.3811 7.15086 49.4975 7.47061 49.4975 7.88417C49.4975 7.97422 49.4916 8.07397 49.4792 8.18343C49.4668 8.29235 49.4479 8.41151 49.4226 8.54092Z" fill="#1D337A"/>
<path d="M53.5618 8.54096C53.5693 8.50429 53.5758 8.46708 53.5796 8.42826C53.5839 8.3916 53.586 8.35385 53.586 8.31773C53.586 8.09234 53.5192 7.91441 53.3844 7.7823C53.249 7.65074 53.0657 7.58442 52.8365 7.58442C52.5411 7.58442 52.2903 7.66584 52.0844 7.82706C51.8784 7.98828 51.7193 8.22606 51.6099 8.54096H53.5618ZM54.9847 9.23059L54.9335 9.47161H51.4039C51.4039 9.48887 51.4017 9.51367 51.399 9.54548C51.3963 9.57837 51.3953 9.60264 51.3953 9.61989C51.3953 9.92508 51.4875 10.1537 51.6719 10.3063C51.8552 10.4578 52.1307 10.5338 52.499 10.5338C52.8161 10.5338 53.1509 10.4848 53.503 10.3904C53.8567 10.295 54.2261 10.1532 54.6132 9.96498L54.3813 11.1361C54.0147 11.2715 53.6486 11.3701 53.2852 11.4375C52.9207 11.5039 52.5508 11.5367 52.1755 11.5367C51.4389 11.5367 50.8712 11.3664 50.4711 11.0267C50.0705 10.6864 49.8699 10.206 49.8699 9.58592C49.8699 9.22628 49.9346 8.87688 50.0624 8.53826C50.1896 8.20018 50.3762 7.89068 50.6204 7.60922C50.9094 7.27222 51.2562 7.01826 51.6579 6.8441C52.0612 6.6694 52.5093 6.58205 53.001 6.58205C53.6378 6.58205 54.1446 6.75189 54.5183 7.09105C54.8941 7.43128 55.0812 7.88906 55.0812 8.46547C55.0812 8.57654 55.0742 8.69571 55.0586 8.8208C55.0424 8.94589 55.0192 9.08231 54.9847 9.23059Z" fill="#1D337A"/>
<path d="M60.0428 6.84408L59.8029 8.07399C59.599 7.93865 59.3995 7.8362 59.2038 7.76665C59.007 7.69493 58.8145 7.66042 58.6258 7.66042C58.134 7.66042 57.7334 7.82542 57.4218 8.15433C57.1101 8.4854 56.9548 8.90705 56.9548 9.42037C56.9548 9.74982 57.0508 10.0043 57.2449 10.186C57.4379 10.3672 57.7118 10.4572 58.0661 10.4572C58.3028 10.4572 58.5336 10.4227 58.7606 10.3526C58.9897 10.2815 59.2054 10.179 59.4103 10.0404L59.1779 11.2747C58.9288 11.362 58.6765 11.4273 58.4241 11.4709C58.1723 11.5141 57.9178 11.5356 57.6612 11.5356C56.9203 11.5356 56.3493 11.3701 55.9492 11.0369C55.5491 10.7031 55.3496 10.2313 55.3496 9.61987C55.3496 9.23488 55.4224 8.86122 55.5701 8.49888C55.7168 8.136 55.9298 7.81086 56.2037 7.52131C56.511 7.20372 56.8615 6.96809 57.2568 6.81226C57.6536 6.65913 58.1108 6.58203 58.6258 6.58203C58.8652 6.58203 59.103 6.60413 59.3391 6.64727C59.5748 6.68933 59.8088 6.75565 60.0428 6.84408Z" fill="#1D337A"/>
<path d="M61.2611 4.85819H62.7762L62.0855 8.40989L64.121 6.69524H65.8998L63.1564 8.87792L65.1487 11.4143H63.4265L61.8968 9.37937L61.5005 11.4143H59.988L61.2611 4.85819Z" fill="#1D337A"/>
<path d="M68.145 7.66067C67.7557 7.66067 67.4348 7.83699 67.1803 8.1907C66.928 8.54603 66.8024 8.99626 66.8024 9.54301C66.8024 9.84119 66.8703 10.0682 67.0067 10.2246C67.1415 10.3793 67.341 10.457 67.602 10.457C67.9924 10.457 68.3148 10.2801 68.5677 9.9253C68.8195 9.56943 68.9462 9.11704 68.9462 8.56652C68.9462 8.27212 68.8788 8.04619 68.7424 7.89144C68.6054 7.73777 68.407 7.66067 68.145 7.66067ZM68.2684 6.58227C68.9699 6.58227 69.5221 6.76021 69.9232 7.11608C70.325 7.4741 70.5255 7.95938 70.5255 8.57461C70.5255 8.93156 70.4624 9.27719 70.3374 9.61311C70.2096 9.94903 70.0262 10.2548 69.7836 10.5341C69.4973 10.8646 69.1587 11.1148 68.7694 11.283C68.379 11.4518 67.9433 11.5359 67.4629 11.5359C66.77 11.5359 66.2233 11.358 65.8221 11.0005C65.4226 10.6446 65.2214 10.1588 65.2214 9.54301C65.2214 9.18983 65.2861 8.84421 65.4166 8.50505C65.5439 8.16644 65.7299 7.85747 65.972 7.57655C66.2524 7.25088 66.5878 7.00285 66.9765 6.83408C67.3653 6.66639 67.7961 6.58227 68.2684 6.58227Z" fill="#1D337A"/>
<path d="M70.9922 9.57764L71.5449 6.69562H73.0563L72.5796 9.15113C72.5456 9.31182 72.5219 9.44769 72.5041 9.56039C72.4885 9.67362 72.4799 9.76097 72.4799 9.82621C72.4799 10.0025 72.5284 10.1406 72.6265 10.2398C72.7247 10.3368 72.8654 10.3859 73.0482 10.3859C73.3598 10.3859 73.6283 10.2646 73.8527 10.0236C74.077 9.78254 74.2322 9.44662 74.3158 9.01741L74.7704 6.69562H76.2834L75.3694 11.4142H73.8478L73.9869 10.7234C73.7286 10.9957 73.4574 11.199 73.1749 11.3349C72.8907 11.4697 72.5915 11.536 72.2771 11.536C71.8474 11.536 71.5147 11.4222 71.2785 11.1958C71.0424 10.9672 70.9248 10.6463 70.9248 10.2295C70.9248 10.1319 70.9307 10.0279 70.941 9.91841C70.9528 9.80788 70.969 9.69519 70.9922 9.57764Z" fill="#1D337A"/>
<path d="M78.7139 5.3555L78.4573 6.69541H79.9999L79.7837 7.77327H78.241L77.8544 9.77154C77.8431 9.81629 77.8361 9.85296 77.8312 9.88477C77.8275 9.91659 77.8259 9.9457 77.8259 9.97212C77.8259 10.1026 77.8679 10.1943 77.9526 10.2514C78.0388 10.3064 78.1839 10.3355 78.3839 10.3355H79.1647L78.9506 11.4139H77.6819C77.2268 11.4139 76.8801 11.3185 76.6412 11.1265C76.4024 10.9367 76.2832 10.6612 76.2832 10.3016C76.2832 10.2239 76.2875 10.1387 76.2961 10.0492C76.3037 9.95918 76.3172 9.86806 76.3339 9.77478L77.1982 5.3555H78.7139Z" fill="#1D337A"/>
<path d="M17.7671 0.205863L15.3677 11.4142H12.469L14.8662 0.205863H17.7671ZM29.9654 7.44299L31.4919 3.23454L32.3697 7.44299H29.9654ZM33.2006 11.4142H35.8837L33.5414 0.205863H31.0676C30.51 0.205863 30.042 0.528304 29.8339 1.02922L25.482 11.4142H28.5263L29.1324 9.7389H32.8501L33.2006 11.4142ZM25.6335 7.75465C25.6459 4.79768 21.5421 4.63376 21.5701 3.31057C21.5782 2.90994 21.9621 2.48236 22.8 2.37236C23.2152 2.3179 24.3605 2.27585 25.6594 2.87382L26.1695 0.499727C25.4701 0.244686 24.5718 -0.000110616 23.4568 -0.000110616C20.5898 -0.000110616 18.5727 1.52474 18.5549 3.70526C18.5377 5.32124 19.9967 6.21901 21.0951 6.75659C22.2252 7.30603 22.6027 7.65705 22.5984 8.14988C22.5908 8.90098 21.6984 9.23313 20.8638 9.24553C19.4068 9.26818 18.5592 8.85191 17.8847 8.53756L17.3617 10.9947C18.0378 11.3047 19.2877 11.5749 20.585 11.59C23.6315 11.59 25.6233 10.0867 25.6335 7.75465ZM13.6234 0.205863L8.92374 11.4142H5.85947L3.54847 2.46834C3.40828 1.91728 3.28642 1.71454 2.85937 1.4843C2.16165 1.10633 1.01046 0.750993 0 0.529922L0.0673998 0.205863H5.00107C5.62923 0.205863 6.19593 0.624281 6.3399 1.34843L7.55957 7.83337L10.5775 0.205863H13.6234Z" fill="#1D337A"/>
</g>
</g>
</g>
<defs>
<clipPath id="clip0_1801_18898">
<rect width="80" height="11.5899" rx="5.79496" fill="white"/>
</clipPath>
<clipPath id="clip1_1801_18898">
<rect width="80" height="11.5899" fill="white"/>
</clipPath>
</defs>
</svg>
