<svg width="73" height="80" viewBox="0 0 73 80" fill="none" xmlns="http://www.w3.org/2000/svg">
<g clip-path="url(#clip0_1801_20088)">
<path d="M21.5608 13.161C22.0018 13.7605 22.3532 14.4289 22.5943 15.1455C22.8355 15.8621 22.9664 16.627 22.9664 17.4332C22.9664 18.2394 22.8355 19.0042 22.5943 19.7209C22.3532 20.4375 22.0018 21.1059 21.5608 21.6985C20.9544 22.5116 21.1266 23.6623 21.9397 24.2687C22.7528 24.875 23.9036 24.7028 24.5099 23.8897C25.1783 22.987 25.7089 21.981 26.0741 20.8923C26.4393 19.8035 26.6391 18.639 26.6391 17.4332C26.6391 16.2273 26.4393 15.0628 26.0741 13.9741C25.7089 12.8854 25.1783 11.8793 24.5099 10.9767C23.9036 10.1636 22.7528 9.9913 21.9397 10.5977C21.1266 11.204 20.9544 12.3479 21.5608 13.1679" fill="#0023A0"/>
<path d="M27.8519 9.73634C29.23 11.9758 30.0224 14.6011 30.0293 17.4263C30.0293 20.2514 29.2369 22.8836 27.8519 25.1162C27.3213 25.9775 27.59 27.1076 28.4514 27.6451C29.3127 28.1756 30.4428 27.9069 30.9802 27.0456C32.7029 24.248 33.702 20.9474 33.6951 17.4263C33.6951 13.9052 32.7029 10.6046 30.9802 7.80697C30.4497 6.94564 29.3127 6.67691 28.4514 7.20749C27.59 7.73806 27.3213 8.86813 27.8519 9.73634Z" fill="#0023A0"/>
<path d="M34.5151 6.24969C36.4307 9.53652 37.5332 13.347 37.5332 17.4263C37.5332 21.5124 36.4307 25.3229 34.5151 28.6098C34.0052 29.4849 34.3015 30.608 35.1766 31.1179C36.0517 31.6278 37.1749 31.3315 37.6848 30.4564C39.9243 26.6321 41.2059 22.167 41.2059 17.4263C41.2059 12.6855 39.9243 8.22041 37.6917 4.39611C37.1818 3.521 36.0586 3.22471 35.1835 3.73461C34.3084 4.24452 34.0121 5.36769 34.522 6.2428" fill="#0023A0"/>
<path d="M41.1715 2.74926C43.6383 7.08346 45.044 12.0792 45.044 17.4263C45.044 22.7734 43.6383 27.776 41.1715 32.1033C40.6684 32.9853 40.9785 34.1016 41.8536 34.6046C42.7356 35.1076 43.8588 34.7975 44.3549 33.9224C47.125 29.0576 48.7098 23.4211 48.7098 17.4263C48.7098 11.4314 47.125 5.79491 44.3549 0.930132C43.8519 0.0481326 42.7356 -0.261945 41.8536 0.24107C40.9716 0.744085 40.6616 1.86037 41.1646 2.74237" fill="#0023A0"/>
<path d="M3.47287 46.1326H0V44.8785H8.45479V46.1326H4.96125V56.3032H3.46598V46.1326H3.47287Z" fill="#5C5C5C"/>
<path d="M13.168 56.3032L13.0508 55.2696H13.0026C12.5478 55.9104 11.6658 56.4892 10.4944 56.4892C8.83378 56.4892 7.98623 55.3178 7.98623 54.1326C7.98623 52.1481 9.75023 51.0663 12.9199 51.0801V50.9078C12.9199 50.2325 12.7339 49.0129 11.0526 49.0129C10.2877 49.0129 9.49528 49.2472 8.91646 49.6262L8.57882 48.6408C9.2541 48.1998 10.2395 47.9104 11.2731 47.9104C13.7812 47.9104 14.3945 49.6193 14.3945 51.2661V54.3324C14.3945 55.0422 14.429 55.7381 14.5323 56.2963H13.1749L13.168 56.3032ZM12.9475 52.1137C11.3213 52.0792 9.4746 52.3686 9.4746 53.9603C9.4746 54.925 10.1154 55.3867 10.8803 55.3867C11.9483 55.3867 12.6236 54.7114 12.8648 54.0155C12.913 53.8639 12.9475 53.6916 12.9475 53.54V52.1137Z" fill="#5C5C5C"/>
<path d="M16.7993 50.7769C16.7993 49.7226 16.7649 48.882 16.7304 48.0964H18.0672L18.1361 49.5021H18.1706C18.7838 48.503 19.7485 47.9104 21.0853 47.9104C23.0698 47.9104 24.5582 49.5917 24.5582 52.0792C24.5582 55.0284 22.7597 56.4892 20.8303 56.4892C19.7485 56.4892 18.7976 56.0138 18.3015 55.2007H18.267V59.6589H16.7924V50.7769H16.7993ZM18.2739 52.9612C18.2739 53.1817 18.3084 53.3884 18.3428 53.5745C18.6116 54.6081 19.5142 55.3178 20.5823 55.3178C22.1602 55.3178 23.0767 54.0293 23.0767 52.1481C23.0767 50.5013 22.2154 49.0956 20.6374 49.0956C19.6176 49.0956 18.6736 49.826 18.3842 50.9423C18.3359 51.1283 18.2808 51.3488 18.2808 51.5555V52.9612H18.2739Z" fill="#5C5C5C"/>
<path d="M31.8347 45.7467V48.1033H33.9708V49.2403H31.8347V53.6641C31.8347 54.6839 32.1241 55.2558 32.9509 55.2558C33.3437 55.2558 33.6262 55.2076 33.8123 55.1524L33.8812 56.2687C33.5918 56.3858 33.137 56.4685 32.5582 56.4685C31.8622 56.4685 31.3041 56.248 30.9458 55.8415C30.5186 55.4005 30.367 54.6701 30.367 53.7054V49.2334H29.0991V48.0964H30.367V46.1326L31.8278 45.7398L31.8347 45.7467Z" fill="#5C5C5C"/>
<path d="M42.9906 52.1343C42.9906 55.1662 40.8889 56.4892 38.9044 56.4892C36.6857 56.4892 34.9699 54.863 34.9699 52.2721C34.9699 49.5297 36.7684 47.9173 39.0354 47.9173C41.3024 47.9173 42.9837 49.6261 42.9837 52.1343H42.9906ZM36.4789 52.217C36.4789 54.0155 37.5125 55.3729 38.9734 55.3729C40.4342 55.3729 41.4678 54.0361 41.4678 52.1895C41.4678 50.7976 40.7718 49.0404 39.0078 49.0404C37.2438 49.0404 36.4789 50.6666 36.4789 52.2239V52.217Z" fill="#5C5C5C"/>
<path d="M48.4686 50.7769C48.4686 49.7226 48.4342 48.882 48.3997 48.0964H49.7365L49.8054 49.5021H49.8399C50.4531 48.503 51.4178 47.9104 52.7546 47.9104C54.7391 47.9104 56.2275 49.5917 56.2275 52.0792C56.2275 55.0284 54.429 56.4892 52.4996 56.4892C51.4178 56.4892 50.4669 56.0138 49.9708 55.2007H49.9363V59.6589H48.4617V50.7769H48.4686ZM49.9432 52.9612C49.9432 53.1817 49.9777 53.3884 50.0121 53.5745C50.2809 54.6081 51.1835 55.3178 52.2516 55.3178C53.8295 55.3178 54.746 54.0293 54.746 52.1481C54.746 50.5013 53.8847 49.0956 52.3067 49.0956C51.2869 49.0956 50.3429 49.826 50.0535 50.9423C50.0052 51.1283 49.9501 51.3488 49.9501 51.5555V52.9612H49.9432Z" fill="#5C5C5C"/>
<path d="M62.6564 56.3032L62.5393 55.2696H62.491C62.0363 55.9104 61.1543 56.4892 59.9829 56.4892C58.3222 56.4892 57.4747 55.3178 57.4747 54.1326C57.4747 52.1481 59.2387 51.0663 62.4084 51.0801V50.9078C62.4084 50.2325 62.2223 49.0129 60.541 49.0129C59.7761 49.0129 58.9837 49.2472 58.4049 49.6262L58.0673 48.6408C58.7425 48.1998 59.7279 47.9104 60.7615 47.9104C63.2697 47.9104 63.883 49.6193 63.883 51.2661V54.3324C63.883 55.0422 63.9174 55.7381 64.0208 56.2963H62.6633L62.6564 56.3032ZM62.4359 52.1137C60.8097 52.0792 58.963 52.3686 58.963 53.9603C58.963 54.925 59.6039 55.3867 60.3687 55.3867C61.4368 55.3867 62.1121 54.7114 62.3532 54.0155C62.4015 53.8639 62.4359 53.6916 62.4359 53.54V52.1137Z" fill="#5C5C5C"/>
<path d="M66.7219 48.1033L68.5203 52.9543C68.7064 53.4987 68.9131 54.1395 69.044 54.6287H69.0785C69.2301 54.1395 69.4023 53.5125 69.6022 52.9199L71.2283 48.1033H72.8063L70.5668 53.9535C69.4988 56.7648 68.7684 58.205 67.7555 59.087C67.0251 59.7278 66.2947 59.9828 65.9226 60.0517L65.5505 58.7976C65.9226 58.6804 66.4118 58.4393 66.8528 58.0672C67.2593 57.7433 67.7693 57.1714 68.1069 56.4065C68.1758 56.2549 68.224 56.1378 68.224 56.0482C68.224 55.9586 68.1896 55.8484 68.1207 55.6554L65.0888 48.0964H66.715L66.7219 48.1033Z" fill="#5C5C5C"/>
<path d="M5.10595 71.118C5.10595 70.0637 5.0715 69.2231 5.03704 68.4375H6.37383L6.44273 69.8432H6.47718C7.09045 68.8441 8.05514 68.2515 9.39192 68.2515C11.3764 68.2515 12.8648 69.9328 12.8648 72.4203C12.8648 75.3695 11.0663 76.8303 9.13696 76.8303C8.05514 76.8303 7.10423 76.3549 6.60811 75.5418H6.57365V80H5.09906V71.118H5.10595ZM6.58054 73.3023C6.58054 73.5228 6.615 73.7295 6.64945 73.9156C6.91818 74.9492 7.82086 75.6589 8.8889 75.6589C10.4669 75.6589 11.3833 74.3704 11.3833 72.4892C11.3833 70.8424 10.522 69.4367 8.94403 69.4367C7.92422 69.4367 6.9802 70.1671 6.69079 71.2834C6.64256 71.4694 6.58743 71.6899 6.58743 71.8897V73.2954L6.58054 73.3023Z" fill="#5C5C5C"/>
<path d="M14.7459 71.0009C14.7459 70.0362 14.7253 69.2024 14.677 68.4444H15.9793L16.0276 70.0568H16.0965C16.4686 68.9543 17.3644 68.2584 18.3704 68.2584C18.5427 68.2584 18.6598 68.2722 18.7976 68.3066V69.7123C18.646 69.6779 18.4944 69.6641 18.2877 69.6641C17.2334 69.6641 16.4893 70.4634 16.2894 71.5797C16.255 71.7795 16.2205 72.0207 16.2205 72.2756V76.6512H14.7459V71.0009Z" fill="#5C5C5C"/>
<path d="M20.9337 72.8131C20.9682 74.832 22.2567 75.6589 23.7451 75.6589C24.8131 75.6589 25.454 75.4729 26.019 75.2317L26.2739 76.2997C25.7503 76.534 24.8476 76.8096 23.5453 76.8096C21.0164 76.8096 19.5142 75.149 19.5142 72.6753C19.5142 70.2015 20.975 68.2515 23.3592 68.2515C26.0397 68.2515 26.7494 70.6081 26.7494 72.1171C26.7494 72.4203 26.7149 72.6615 26.7012 72.8131H20.9337ZM25.3093 71.745C25.323 70.7941 24.9165 69.3195 23.2421 69.3195C21.733 69.3195 21.0715 70.7114 20.9544 71.745H25.3093Z" fill="#5C5C5C"/>
<path d="M28.7546 76.6443V69.5745H27.6038V68.4375H28.7546V68.0448C28.7546 66.894 29.0095 65.8398 29.7055 65.1783C30.2636 64.6339 31.0078 64.4134 31.7037 64.4134C32.2274 64.4134 32.6891 64.5306 32.9716 64.6477L32.7718 65.7984C32.5513 65.6951 32.2481 65.6124 31.8209 65.6124C30.553 65.6124 30.2292 66.7287 30.2292 67.9828V68.4238H32.2137V69.5607H30.2292V76.6305H28.7546V76.6443Z" fill="#5C5C5C"/>
<path d="M34.143 72.8131C34.1775 74.832 35.466 75.6589 36.9544 75.6589C38.0224 75.6589 38.6633 75.4729 39.2283 75.2317L39.4833 76.2997C38.9596 76.534 38.0569 76.8096 36.7546 76.8096C34.2257 76.8096 32.7236 75.149 32.7236 72.6753C32.7236 70.2015 34.1844 68.2515 36.5685 68.2515C39.249 68.2515 39.9587 70.6081 39.9587 72.1171C39.9587 72.4203 39.9243 72.6615 39.9105 72.8131H34.143ZM38.5186 71.745C38.5323 70.7941 38.1258 69.3195 36.4514 69.3195C34.9423 69.3195 34.2808 70.7114 34.1637 71.745H38.5186Z" fill="#5C5C5C"/>
<path d="M41.8054 71.0009C41.8054 70.0362 41.7847 69.2024 41.7365 68.4444H43.0388L43.0871 70.0568H43.156C43.5281 68.9543 44.4238 68.2584 45.4299 68.2584C45.6021 68.2584 45.7193 68.2722 45.8571 68.3066V69.7123C45.7055 69.6779 45.5539 69.6641 45.3472 69.6641C44.2929 69.6641 43.5487 70.4634 43.3489 71.5797C43.3144 71.7795 43.28 72.0207 43.28 72.2756V76.6512H41.8054V71.0009Z" fill="#5C5C5C"/>
<path d="M47.4695 71.0009C47.4695 70.0362 47.4488 69.2024 47.4006 68.4444H48.7029L48.7511 70.0568H48.82C49.1921 68.9543 50.0879 68.2584 51.094 68.2584C51.2662 68.2584 51.3834 68.2722 51.5212 68.3066V69.7123C51.3696 69.6779 51.218 69.6641 51.0113 69.6641C49.957 69.6641 49.2128 70.4634 49.013 71.5797C48.9785 71.7795 48.9441 72.0207 48.9441 72.2756V76.6512H47.4695V71.0009Z" fill="#5C5C5C"/>
<path d="M53.6504 72.8131C53.6848 74.832 54.9734 75.6589 56.4617 75.6589C57.5298 75.6589 58.1706 75.4729 58.7357 75.2317L58.9906 76.2997C58.4669 76.534 57.5642 76.8096 56.2619 76.8096C53.7331 76.8096 52.2309 75.149 52.2309 72.6753C52.2309 70.2015 53.6917 68.2515 56.0759 68.2515C58.7563 68.2515 59.4661 70.6081 59.4661 72.1171C59.4661 72.4203 59.4316 72.6615 59.4178 72.8131H53.6504ZM58.0259 71.745C58.0397 70.7941 57.6332 69.3195 55.9587 69.3195C54.4497 69.3195 53.7882 70.7114 53.671 71.745H58.0259Z" fill="#5C5C5C"/>
<path d="M68.4032 74.5289C68.4032 75.2593 68.417 76.0861 68.4721 76.6443H67.1353L67.0664 75.2179H67.032C66.5772 76.1344 65.5711 76.8303 64.2344 76.8303C62.2499 76.8303 60.727 75.149 60.727 72.6615C60.7133 69.9328 62.4083 68.2515 64.4066 68.2515C65.6607 68.2515 66.5083 68.8441 66.8804 69.5056H66.9148V64.6064H68.4032V74.5289ZM66.9148 71.7795C66.9148 71.5935 66.8941 71.3385 66.8459 71.1524C66.6254 70.2015 65.8123 69.4229 64.696 69.4229C63.1525 69.4229 62.2361 70.7804 62.2361 72.5926C62.2361 74.2532 63.0492 75.6245 64.6616 75.6245C65.6607 75.6245 66.5772 74.963 66.8459 73.8467C66.8941 73.6469 66.9148 73.4401 66.9148 73.2059V71.7795Z" fill="#5C5C5C"/>
</g>
<defs>
<clipPath id="clip0_1801_20088">
<rect width="72.8063" height="80" rx="8" fill="white"/>
</clipPath>
</defs>
</svg>
