<svg width="80" height="51" viewBox="0 0 80 51" fill="none" xmlns="http://www.w3.org/2000/svg">
<g clip-path="url(#clip0_1801_15056)">
<g clip-path="url(#clip1_1801_15056)">
<path d="M80 50.8209H0V0.000854492L80 0.000855357V50.8209Z" fill="white"/>
<path d="M1.33179 42.5609H78.6638V49.4949H1.33179V42.5609Z" fill="#F7B600"/>
<path d="M1.33179 8.26731H78.6638V1.33411H1.33179V8.26731Z" fill="#1A1F71"/>
<path d="M38.4616 14.5273L34.586 32.6448H29.8986L33.7742 14.5273H38.4616ZM58.1802 26.2258L60.6484 19.4221L62.0661 26.2258H58.1802ZM63.4125 32.6448H67.7462L63.9599 14.5273H59.9613C59.0595 14.5273 58.3017 15.0506 57.9654 15.8554L50.932 32.6448H55.8543L56.8306 29.9384H62.8443L63.4125 32.6448ZM51.1765 26.7295C51.1961 21.9488 44.5661 21.6836 44.6094 19.5473C44.6253 18.898 45.2439 18.2065 46.5979 18.0299C47.2687 17.9432 49.1216 17.8739 51.2205 18.841L52.0417 14.9969C50.9139 14.5891 49.4628 14.1965 47.6576 14.1965C43.0238 14.1965 39.7642 16.6576 39.7383 20.1847C39.7079 22.7936 42.0664 24.2477 43.8401 25.1166C45.6672 26.004 46.2798 26.5744 46.2713 27.3673C46.2583 28.5829 44.8124 29.121 43.4679 29.141C41.1105 29.1784 39.7438 28.504 38.6538 27.9962L37.8031 31.9677C38.8997 32.4703 40.9209 32.907 43.0142 32.9292C47.9402 32.9292 51.162 30.4962 51.1765 26.7295ZM31.7634 14.5273L24.1693 32.6448H19.2145L15.4771 18.1854C15.2508 17.2969 15.0537 16.9699 14.3641 16.5943C13.237 15.9821 11.3759 15.4095 9.73999 15.0532L9.85036 14.5273H17.8271C18.8423 14.5273 19.7563 15.2032 19.9886 16.3736L21.9634 26.8584L26.8386 14.5273H31.7634Z" fill="#1A1F71"/>
<path d="M50.9666 39.4341C51.0537 39.4487 51.1535 39.4584 51.2661 39.4632C51.3839 39.4681 51.5093 39.4705 51.6424 39.4705C52.3591 39.4705 52.9043 39.2906 53.2781 38.9306C53.6569 38.5658 53.8463 38.0502 53.8463 37.3839C53.8463 37.0921 53.8028 36.8294 53.7158 36.5959C53.6339 36.3625 53.5059 36.1655 53.3318 36.0049C53.1578 35.8396 52.9376 35.7131 52.6714 35.6256C52.4104 35.5331 52.1032 35.4869 51.7499 35.4869C51.5759 35.4869 51.4223 35.4942 51.2892 35.5088C51.1612 35.5185 51.0537 35.5331 50.9667 35.5526L50.9666 39.4341ZM50.2986 35.0857C50.5034 35.0565 50.7235 35.0322 50.959 35.0127C51.1996 34.9932 51.453 34.9835 51.7192 34.9835C52.2004 34.9835 52.6125 35.0346 52.9555 35.1367C53.2986 35.2389 53.5852 35.3921 53.8156 35.5964C54.0459 35.8007 54.2251 36.0463 54.3531 36.3333C54.4811 36.6202 54.5451 36.9632 54.5451 37.362C54.5451 37.7657 54.4811 38.1281 54.3531 38.4491C54.2302 38.7701 54.0459 39.0449 53.8002 39.2735C53.5545 39.507 53.2371 39.6845 52.848 39.8061C52.4641 39.9228 52.0187 39.9812 51.5119 39.9812C51.2713 39.9812 51.0512 39.9764 50.8515 39.9666C50.6519 39.9569 50.4676 39.9423 50.2986 39.9229L50.2986 35.0857Z" fill="#1A1F71"/>
<path d="M57.7786 37.8285C57.7786 37.7264 57.7658 37.6145 57.7402 37.4929C57.7146 37.3713 57.6659 37.2594 57.5943 37.1573C57.5277 37.0503 57.433 36.9627 57.3102 36.8946C57.1873 36.8217 57.0312 36.7852 56.8417 36.7852C56.6728 36.7852 56.5243 36.8193 56.3963 36.8873C56.2735 36.9554 56.1685 37.0406 56.0815 37.1427C55.9996 37.2448 55.9356 37.3567 55.8895 37.4783C55.8486 37.5999 55.8204 37.7167 55.805 37.8285L57.7786 37.8285ZM55.7974 38.2882C55.8025 38.507 55.8384 38.6943 55.9049 38.85C55.9766 39.0007 56.0687 39.1272 56.1814 39.2294C56.2991 39.3266 56.4348 39.3996 56.5884 39.4482C56.7419 39.492 56.9032 39.5139 57.0721 39.5139C57.3179 39.5139 57.5175 39.4969 57.6711 39.4628C57.8298 39.4288 57.9731 39.385 58.1011 39.3315L58.2163 39.7911C58.0986 39.8446 57.9373 39.8957 57.7325 39.9443C57.5278 39.993 57.2769 40.0173 56.98 40.0173C56.6933 40.0173 56.4373 39.976 56.2121 39.8933C55.9868 39.8057 55.7948 39.6841 55.6361 39.5285C55.4774 39.368 55.3571 39.1783 55.2752 38.9594C55.1933 38.7405 55.1523 38.4973 55.1523 38.2298C55.1523 37.9623 55.1907 37.7142 55.2675 37.4856C55.3494 37.2522 55.4646 37.0503 55.6131 36.88C55.7667 36.7098 55.951 36.5761 56.166 36.4788C56.381 36.3766 56.6241 36.3256 56.8955 36.3256C57.1975 36.3256 57.4484 36.3815 57.648 36.4934C57.8477 36.6052 58.0038 36.7463 58.1165 36.9166C58.2342 37.0819 58.3161 37.2619 58.3622 37.4565C58.4083 37.651 58.4313 37.8286 58.4313 37.9891C58.4313 38.0572 58.4287 38.1155 58.4236 38.1642C58.4185 38.2128 58.4134 38.2541 58.4083 38.2882L55.7974 38.2882Z" fill="#1A1F71"/>
<path d="M59.9413 38.5218C59.9413 38.5607 59.9438 38.5996 59.9489 38.6385C59.954 38.6774 59.9617 38.7164 59.9719 38.7553C60.0385 38.979 60.1614 39.1614 60.3405 39.3025C60.5248 39.4387 60.7398 39.5068 60.9856 39.5068C61.1596 39.5068 61.3158 39.4752 61.454 39.4119C61.5974 39.3438 61.7177 39.2514 61.8149 39.1347C61.9122 39.0131 61.9864 38.8696 62.0376 38.7042C62.0888 38.5388 62.1144 38.354 62.1144 38.1497C62.1144 37.9746 62.0888 37.8068 62.0376 37.6463C61.9915 37.4858 61.9224 37.3471 61.8303 37.2304C61.7381 37.1088 61.6229 37.014 61.4847 36.9459C61.3465 36.8729 61.1878 36.8364 61.0086 36.8364C60.7783 36.8364 60.5658 36.907 60.3713 37.048C60.1818 37.1842 60.0513 37.3763 59.9796 37.6244C59.9694 37.6633 59.9592 37.7047 59.9489 37.7484C59.9438 37.7873 59.9413 37.8335 59.9413 37.8871V38.5218ZM59.2732 34.7571H59.9413V36.975H59.9566C60.0743 36.7756 60.2382 36.6175 60.448 36.5008C60.6631 36.3841 60.9216 36.3257 61.2236 36.3257C61.454 36.3257 61.6639 36.3695 61.8533 36.457C62.0479 36.5446 62.2142 36.6686 62.3524 36.8291C62.4907 36.9848 62.5982 37.1745 62.675 37.3982C62.7517 37.6171 62.7901 37.8603 62.7901 38.1278C62.7901 38.444 62.7415 38.7212 62.6442 38.9596C62.5521 39.193 62.4267 39.39 62.268 39.5506C62.1093 39.7062 61.9301 39.8229 61.7304 39.9008C61.5308 39.9786 61.3286 40.0175 61.1238 40.0175C60.8525 40.0175 60.6119 39.9664 60.402 39.8643C60.1921 39.7573 60.018 39.587 59.8798 39.3536H59.8568L59.826 39.9372H59.2424C59.2527 39.8156 59.2603 39.6721 59.2654 39.5067C59.2706 39.3414 59.2731 39.1809 59.2731 39.0252L59.2732 34.7571Z" fill="#1A1F71"/>
<path d="M63.9792 35.0125C64.1072 35.0125 64.207 35.0514 64.2787 35.1292C64.3555 35.207 64.3939 35.3019 64.3939 35.4137C64.399 35.5256 64.3606 35.6204 64.2787 35.6983C64.2019 35.7712 64.097 35.8077 63.9639 35.8077C63.8461 35.8077 63.7489 35.7712 63.6721 35.6983C63.5953 35.6204 63.5569 35.5256 63.5569 35.4137C63.5569 35.3019 63.5953 35.207 63.6721 35.1292C63.754 35.0514 63.8564 35.0125 63.9792 35.0125ZM63.6414 39.9371V36.4059H64.3171V39.9371H63.6414Z" fill="#1A1F71"/>
<path d="M66.2525 35.5594V36.4058H67.22V36.8946H66.2525V38.7989C66.2525 39.0177 66.2883 39.188 66.36 39.3096C66.4368 39.4263 66.5699 39.4847 66.7593 39.4847C66.8514 39.4847 66.9257 39.4823 66.982 39.4774C67.0434 39.4677 67.0997 39.4555 67.1509 39.4409L67.1816 39.9225C67.1151 39.9468 67.0306 39.9687 66.9282 39.9881C66.8309 40.0076 66.7157 40.0173 66.5826 40.0173C66.2652 40.0173 66.0221 39.9249 65.8531 39.7401C65.7559 39.6428 65.6868 39.5188 65.6458 39.368C65.61 39.2123 65.5921 39.0299 65.5921 38.8208V36.8946H65.0161V36.4058H65.5921V35.7564L66.2525 35.5594Z" fill="#1A1F71"/>
</g>
</g>
<defs>
<clipPath id="clip0_1801_15056">
<rect width="80" height="50.82" rx="8" fill="white"/>
</clipPath>
<clipPath id="clip1_1801_15056">
<rect width="80" height="50.82" fill="white"/>
</clipPath>
</defs>
</svg>
