<svg width="80" height="80" viewBox="0 0 80 80" fill="none" xmlns="http://www.w3.org/2000/svg">
<g clip-path="url(#clip0_1801_18928)">
<path d="M80 0H0V80H80V0Z" fill="white"/>
<path d="M77.7899 39.2606H2.21414V77.7859H77.7899V39.2606Z" fill="#1434CB"/>
<path d="M31.8707 11.1838L24.3394 29.1475H19.4263L15.7212 14.8121C15.4949 13.9313 15.301 13.6081 14.6182 13.2323C13.499 12.6263 11.6566 12.0566 10.0323 11.705L10.1414 11.1838H18.0485C19.0545 11.1838 19.9636 11.8545 20.1939 13.0141L22.1495 23.4101L26.9859 11.1838H31.8707ZM51.1192 23.2848C51.1394 18.5455 44.5657 18.2828 44.6101 16.1616C44.6263 15.5192 45.2364 14.8323 46.5818 14.6586C47.2485 14.5737 49.0828 14.505 51.1636 15.4626L51.9798 11.6525C50.8606 11.2485 49.4222 10.8606 47.6323 10.8606C43.0384 10.8606 39.8061 13.301 39.7818 16.8C39.7535 19.3859 42.0889 20.8283 43.8505 21.6889C45.6646 22.5697 46.2707 23.1354 46.2626 23.9192C46.2505 25.1232 44.8162 25.6566 43.4828 25.6768C41.1434 25.7131 39.7899 25.0465 38.7111 24.5414L37.8667 28.4808C38.9535 28.9778 40.9576 29.4101 43.0343 29.4343C47.9192 29.4343 51.1111 27.0222 51.1273 23.2889M63.2606 29.1556H67.5596L63.8061 11.1919H59.8424C58.9495 11.1919 58.198 11.7091 57.8626 12.5091L50.8889 29.1556H55.7697L56.7394 26.4727H62.703L63.2646 29.1556H63.2606ZM58.0727 22.7919L60.5212 16.0444L61.9273 22.7919H58.0727ZM38.5212 11.1919L34.6788 29.1556H30.0323L33.8747 11.1919H38.5212Z" fill="#1434CB"/>
<path d="M16.7111 56.1859C16.7111 55.6121 16.8485 55.1273 17.1273 54.7313C17.4061 54.3354 17.7859 54.0323 18.2667 53.8303C18.7475 53.6283 19.2889 53.5273 19.895 53.5273C20.5697 53.5273 21.1071 53.5919 21.5111 53.7253C21.9111 53.8586 22.2222 53.9879 22.4364 54.1253L22.5455 55.6283H22.5091C22.3111 55.4626 22.0646 55.3131 21.7778 55.1879C21.4869 55.0626 21.1798 54.9576 20.8525 54.8848C20.5253 54.8081 20.2061 54.7717 19.8869 54.7717C19.3859 54.7717 18.9818 54.8525 18.6707 55.0141C18.3596 55.1758 18.2061 55.4626 18.2061 55.8667C18.2061 56.1778 18.2788 56.4202 18.4283 56.5939C18.5737 56.7677 18.796 56.9131 19.0909 57.0222C19.3859 57.1313 19.7495 57.2485 20.1859 57.3697C20.598 57.4828 20.9859 57.596 21.3495 57.7091C21.7091 57.8263 22.0283 57.9758 22.299 58.1616C22.5697 58.3475 22.7798 58.5939 22.9374 58.901C23.0909 59.2081 23.1717 59.6 23.1717 60.0768C23.1717 60.998 22.8727 61.705 22.2707 62.1939C21.6687 62.6828 20.8323 62.9253 19.7495 62.9253C19.2081 62.9253 18.6667 62.8525 18.1172 62.703C17.5677 62.5535 17.1232 62.3596 16.7838 62.1131L16.6869 60.598H16.7232C17.1192 60.9333 17.596 61.196 18.1535 61.3859C18.7111 61.5758 19.2687 61.6727 19.8343 61.6727C21.0343 61.6727 21.6323 61.2606 21.6323 60.4323C21.6323 60.1374 21.5636 59.899 21.4303 59.7172C21.297 59.5354 21.0747 59.3818 20.7758 59.2566C20.4727 59.1354 20.0808 59.0101 19.596 58.8808C19.2162 58.7798 18.8525 58.6667 18.5131 58.5455C18.1697 58.4242 17.8667 58.2707 17.596 58.0808C17.3253 57.8909 17.1152 57.6444 16.9576 57.3414C16.804 57.0384 16.7232 56.6545 16.7232 56.1859H16.7111Z" fill="white"/>
<path d="M24.3515 53.697H30.1899V55.0101H25.9475V57.4303H29.297V58.695H25.9475V61.4465H30.1899V62.7596H24.3515V53.697Z" fill="white"/>
<path d="M32.6101 58.2263C32.6101 58.9091 32.7354 59.5071 32.9859 60.0121C33.2364 60.5212 33.596 60.9131 34.0646 61.1919C34.5333 61.4707 35.099 61.6081 35.7576 61.6081C36.4162 61.6081 36.9939 61.5071 37.4384 61.305C37.8828 61.103 38.2707 60.8364 38.6061 60.5131H38.6424L38.4768 62.097C38.1253 62.3354 37.7131 62.5333 37.2364 62.6869C36.7596 62.8404 36.202 62.9212 35.5677 62.9212C34.8525 62.9212 34.2101 62.8 33.6444 62.5576C33.0747 62.3152 32.5899 61.9798 32.1899 61.5556C31.7899 61.1313 31.4828 60.6303 31.2727 60.0606C31.0626 59.4869 30.9576 58.8768 30.9576 58.2263C30.9576 57.5758 31.0626 56.9535 31.2727 56.3838C31.4828 55.8141 31.7899 55.3172 32.1899 54.8929C32.5899 54.4687 33.0747 54.1333 33.6364 53.8909C34.202 53.6485 34.8364 53.5273 35.5434 53.5273C36.1778 53.5273 36.7273 53.5919 37.1879 53.7253C37.6485 53.8586 38.0404 54.0444 38.3677 54.2909L38.5333 55.9111H38.497C38.1616 55.5838 37.7697 55.3253 37.3172 55.1313C36.8646 54.9374 36.3354 54.8404 35.7333 54.8404C35.0747 54.8404 34.5131 54.9778 34.0485 55.2566C33.5838 55.5354 33.2283 55.9273 32.9818 56.4364C32.7354 56.9455 32.6141 57.5394 32.6141 58.2222L32.6101 58.2263Z" fill="white"/>
<path d="M43.6848 61.5636C44.5051 61.5636 45.099 61.3859 45.4707 61.0343C45.8424 60.6788 46.0323 60.0808 46.0323 59.2283V53.697H47.3657V59.3091C47.3657 60.5818 47.0465 61.499 46.404 62.0687C45.7657 62.6384 44.8323 62.9212 43.6081 62.9212C42.3838 62.9212 41.4465 62.6384 40.7717 62.0768C40.097 61.5111 39.7576 60.5899 39.7576 59.3131V53.701H41.3535V59.196C41.3535 60.0444 41.5354 60.6545 41.895 61.0182C42.2545 61.3818 42.8485 61.5677 43.6768 61.5677L43.6848 61.5636Z" fill="white"/>
<path d="M48.9293 62.7556V53.697H52.7556C53.3495 53.697 53.8667 53.8141 54.299 54.0525C54.7313 54.2909 55.0626 54.6182 55.2929 55.0343C55.5232 55.4505 55.6404 55.9232 55.6404 56.4485C55.6404 57.0667 55.4707 57.6081 55.1273 58.0687C54.7838 58.5293 54.3192 58.8364 53.7333 58.9859L56.0566 62.7515H54.2222L52.1253 59.2H50.5293V62.7515H48.9333L48.9293 62.7556ZM52.3273 54.9616H50.5253V58.0121H52.3273C52.905 58.0121 53.3252 57.8869 53.5838 57.6364C53.8424 57.3859 53.9717 57.002 53.9717 56.4848C53.9717 55.9677 53.8424 55.5838 53.5838 55.3333C53.3252 55.0828 52.905 54.9576 52.3273 54.9576V54.9616Z" fill="white"/>
<path d="M57.2485 53.697H63.0909V55.0101H58.8485V57.4303H62.198V58.695H58.8485V61.4465H63.0909V62.7596H57.2485V53.697Z" fill="white"/>
</g>
<defs>
<clipPath id="clip0_1801_18928">
<rect width="80" height="80" rx="8" fill="white"/>
</clipPath>
</defs>
</svg>
