<svg width="80" height="43" viewBox="0 0 80 43" fill="none" xmlns="http://www.w3.org/2000/svg">
<g clip-path="url(#clip0_1801_20128)">
<path d="M30.3717 0.471674L19.8923 25.4499H13.0633L7.91592 5.49603C7.60831 4.26557 7.34171 3.81441 6.37785 3.30172C4.81928 2.46091 2.25583 1.68162 0 1.18944L0.16406 0.471674H11.1561C12.5506 0.471674 13.8221 1.39451 14.1297 3.01461L16.8572 17.4724L23.5837 0.471674H30.3717ZM57.1341 17.2879C57.1546 10.6844 48.0082 10.3358 48.0697 7.38272C48.0697 6.48039 48.931 5.53704 50.8177 5.29095C51.7406 5.16791 54.2835 5.08588 57.1956 6.39836L58.3235 1.10741C56.7649 0.553704 54.7757 0 52.2738 0C45.8959 0 41.3843 3.40426 41.3638 8.26455C41.3227 11.8534 44.5629 13.8631 47.0238 15.0526C49.5463 16.283 50.3871 17.0623 50.3871 18.1492C50.3666 19.8308 48.3773 20.5691 46.5112 20.5896C43.271 20.6511 41.3843 19.7078 39.8667 19.031L38.6978 24.5065C40.1948 25.2038 42.9839 25.7985 45.8754 25.8395C52.6634 25.8395 57.0931 22.4763 57.1341 17.2879ZM73.9913 25.4499H79.9795L74.7706 0.471674H69.254C68.0236 0.471674 66.9777 1.18944 66.506 2.29685L56.806 25.4499H63.594L64.9474 21.7175H73.2325L74.0118 25.4499H73.9913ZM66.7931 16.5906L70.1974 7.21866L72.1661 16.5906H66.7931ZM39.6001 0.471674L34.2476 25.4499H27.7877L33.1402 0.471674H39.6001Z" fill="#1434CB"/>
<path d="M31.0895 34.3297C31.0895 33.8375 31.2125 33.4273 31.4381 33.1197C31.6637 32.7916 31.9918 32.566 32.4019 32.402C32.7916 32.2379 33.2428 32.1559 33.7349 32.1559C34.3091 32.1559 34.7808 32.2174 35.1294 32.3404C35.4781 32.4635 35.7447 32.5865 35.9087 32.7096L35.9908 33.735H35.9703C35.8062 33.5914 35.6011 33.4684 35.355 33.3453C35.1089 33.2223 34.8423 33.1402 34.5552 33.0582C34.2681 32.9967 33.981 32.9557 33.7144 32.9557C33.2222 32.9557 32.8326 33.0377 32.525 33.2223C32.2174 33.4068 32.0533 33.6939 32.0533 34.1246C32.0533 34.4527 32.1353 34.7193 32.2789 34.9039C32.4224 35.0884 32.648 35.232 32.9351 35.3345C33.2222 35.4371 33.5504 35.5601 33.94 35.6627C34.2886 35.7652 34.6168 35.8677 34.9244 35.9703C35.232 36.0728 35.5191 36.1959 35.7447 36.3599C35.9703 36.524 36.1753 36.7291 36.2984 36.9957C36.4419 37.2623 36.5035 37.5904 36.5035 38.0005C36.5035 38.7798 36.2369 39.354 35.7242 39.7642C35.2115 40.1743 34.4937 40.3589 33.5709 40.3589C33.1197 40.3589 32.648 40.2974 32.1764 40.1743C31.7047 40.0513 31.3356 39.8667 31.0279 39.6616L30.9664 38.6157H31.0074C31.3561 38.9029 31.7662 39.1284 32.2174 39.2925C32.6891 39.4566 33.1607 39.5386 33.6324 39.5386C34.8834 39.5386 35.4986 39.0874 35.4986 38.2056C35.4986 37.8775 35.4166 37.6314 35.273 37.4263C35.1294 37.2417 34.9039 37.0777 34.6168 36.9546C34.3297 36.8316 33.9605 36.7085 33.5504 36.606C33.2222 36.524 32.8941 36.4214 32.607 36.3189C32.2994 36.2164 32.0328 36.0728 31.8072 35.9088C31.5816 35.7447 31.3971 35.5396 31.274 35.273C31.151 35.0064 31.069 34.6783 31.069 34.2887" fill="#1434CB"/>
<path d="M37.8364 32.9146C37.8364 32.7506 37.898 32.6275 38.0005 32.525C38.103 32.4225 38.2466 32.3815 38.4107 32.3815C38.5747 32.3815 38.7183 32.4225 38.8208 32.525C38.9234 32.6275 38.9849 32.7506 38.9849 32.9146C38.9849 33.0787 38.9234 33.2018 38.8208 33.3043C38.6978 33.4068 38.5747 33.4478 38.4107 33.4478C38.2466 33.4478 38.103 33.4068 38.0005 33.3043C37.898 33.2018 37.8364 33.0787 37.8364 32.9146ZM38.8823 40.2769H37.9595V34.3707H38.8823V40.2769Z" fill="#1434CB"/>
<path d="M44.2143 39.3335C44.809 39.3335 45.2192 39.4361 45.4653 39.6616C45.6908 39.8872 45.8139 40.2153 45.8139 40.646C45.8139 41.1792 45.5678 41.5893 45.0551 41.8764C44.5424 42.1636 43.7631 42.3071 42.7172 42.3071C42.1841 42.3071 41.6714 42.2661 41.1997 42.1636C40.7075 42.0815 40.3179 41.9585 40.0513 41.7944L39.9897 40.9536C40.2153 41.1177 40.5434 41.2612 41.0151 41.4253C41.4868 41.5688 42.0405 41.6509 42.7172 41.6509C43.517 41.6509 44.0913 41.5688 44.4399 41.4253C44.7885 41.2817 44.9526 41.0561 44.9526 40.7485C44.9526 40.523 44.8911 40.3794 44.768 40.2974C44.645 40.2153 44.4399 40.1743 44.1118 40.1743H41.6919C41.2612 40.1743 40.9331 40.0923 40.6665 39.9282C40.4204 39.7642 40.2974 39.4976 40.2974 39.1284C40.2974 38.8618 40.3999 38.6363 40.605 38.4517C40.81 38.2671 41.0766 38.1646 41.4048 38.1031C41.0972 37.898 40.8511 37.6519 40.6665 37.3443C40.5024 37.0367 40.3999 36.688 40.3999 36.2984C40.3999 35.9088 40.4819 35.5396 40.687 35.232C40.8716 34.9244 41.1382 34.6578 41.4868 34.4732C41.8354 34.2887 42.2456 34.1861 42.7172 34.1861C43.0454 34.1861 43.353 34.2271 43.6196 34.3297C43.8862 34.4322 44.1323 34.5553 44.3168 34.7193H44.3373C44.3989 34.6168 44.5014 34.5142 44.6655 34.4527C44.809 34.3912 44.9936 34.3297 45.1576 34.3092C45.3422 34.2681 45.4858 34.2681 45.6293 34.2681H45.9574L45.8754 35.0884L44.5424 34.9859C44.8705 35.355 45.0346 35.8062 45.0346 36.3189C45.0346 36.7291 44.9321 37.0777 44.7475 37.4058C44.5629 37.7339 44.2963 37.98 43.9477 38.1646C43.5991 38.3492 43.1889 38.4312 42.7172 38.4312C42.5327 38.4312 42.3481 38.4312 42.1841 38.4312C42.02 38.4312 41.8969 38.4312 41.8354 38.4312C41.5893 38.4312 41.3843 38.4722 41.2202 38.5542C41.0561 38.6363 40.9946 38.7593 40.9946 38.9439C40.9946 39.1284 41.0561 39.2515 41.1997 39.313C41.3227 39.3745 41.4868 39.4155 41.6919 39.4155H44.1938L44.2143 39.3335ZM42.7378 34.8834C42.2866 34.8834 41.938 35.0064 41.6714 35.2525C41.4253 35.4986 41.2817 35.8472 41.2817 36.2984C41.2817 36.7496 41.4048 37.1392 41.6714 37.3648C41.938 37.5904 42.2866 37.7339 42.7378 37.7339C43.1889 37.7339 43.5376 37.6109 43.8041 37.3648C44.0707 37.1187 44.1938 36.7701 44.1938 36.2984C44.1938 35.8267 44.0707 35.4986 43.8041 35.2525C43.5376 35.0064 43.1889 34.8834 42.7378 34.8834Z" fill="#1434CB"/>
<path d="M49.9154 34.2066C50.5511 34.2066 51.0638 34.3707 51.4125 34.6988C51.7816 35.0269 51.9662 35.5396 51.9662 36.2369V40.2564H51.0433V36.483C51.0433 35.9908 50.9408 35.6216 50.7357 35.3756C50.5306 35.1295 50.141 35.0064 49.5668 35.0064C49.2387 35.0064 48.931 35.0679 48.6849 35.2115C48.4183 35.355 48.1928 35.5396 48.0492 35.7857C47.8852 36.0318 47.8236 36.3189 47.8236 36.647V40.2769H46.9008V34.3707H47.7826V35.6216H47.8441C47.9672 35.2935 48.1312 35.0269 48.3568 34.8013C48.5824 34.5963 48.849 34.4527 49.1156 34.3502C49.4027 34.2681 49.6693 34.2066 49.9564 34.2066" fill="#1434CB"/>
<path d="M53.7093 35.6627L53.8118 34.7603C54.0374 34.5963 54.304 34.4732 54.6526 34.3707C54.9808 34.2681 55.3499 34.2066 55.7601 34.2066C56.5188 34.2066 57.0931 34.3502 57.4622 34.6578C57.8313 34.9654 58.0159 35.4576 58.0159 36.1548V40.2769H57.1341V39.1489H57.0931C56.9495 39.5796 56.7034 39.9077 56.3753 40.1128C56.0472 40.3179 55.6575 40.4204 55.1653 40.4204C54.8372 40.4204 54.5296 40.3589 54.263 40.2358C53.9964 40.1128 53.7708 39.9282 53.6068 39.6821C53.4427 39.4361 53.3607 39.1284 53.3607 38.7388C53.3607 38.3491 53.4427 38.0415 53.6068 37.816C53.7708 37.5904 53.9964 37.4058 54.2835 37.2828C54.5706 37.1597 54.9192 37.0572 55.3294 36.9957C55.8216 36.9136 56.2112 36.8316 56.4983 36.7701C56.7854 36.7085 56.9905 36.606 57.1136 36.483V36.2164C57.1136 35.7857 57.011 35.4781 56.8059 35.273C56.6009 35.0679 56.2317 34.9859 55.6985 34.9859C55.3499 34.9859 55.0013 35.0474 54.6732 35.1705C54.3245 35.2935 54.0374 35.4781 53.7503 35.7037H53.7298L53.7093 35.6627ZM57.0725 38.2876V37.0572C56.97 37.1597 56.7649 37.2417 56.4778 37.3033C56.1907 37.3648 55.8421 37.4468 55.4319 37.5288C55.0833 37.5904 54.7962 37.6929 54.5706 37.8365C54.345 37.98 54.2425 38.2671 54.2425 38.6568C54.2425 39.0054 54.345 39.272 54.5501 39.4566C54.7552 39.6206 55.0423 39.7027 55.4114 39.7027C55.7806 39.7027 56.0677 39.6206 56.3138 39.4771C56.5599 39.3335 56.7649 39.1489 56.888 38.9234C57.011 38.6978 57.0931 38.4927 57.0931 38.2671" fill="#1434CB"/>
<path d="M60.9895 38.6773C60.9895 39.0464 61.0715 39.313 61.2356 39.4361C61.3996 39.5591 61.6047 39.6206 61.8713 39.6206C62.1174 39.6206 62.3225 39.6001 62.4865 39.5591C62.6506 39.5181 62.7942 39.4771 62.9172 39.4155H62.9377L62.8557 40.1948C62.7531 40.2564 62.5891 40.2974 62.384 40.3384C62.1789 40.3794 61.9739 40.3999 61.7483 40.3999C61.2151 40.3999 60.8049 40.2769 60.5178 40.0308C60.2102 39.7847 60.0667 39.3745 60.0667 38.8003V35.109H58.9797L59.1028 34.4937L60.0667 34.3502V33.0787L61.01 32.9352V34.3092H62.8147L62.6916 35.0885H60.9895V38.6773Z" fill="#1434CB"/>
<path d="M66.383 39.6001C66.7111 39.6001 66.9982 39.5386 67.2648 39.395C67.5314 39.272 67.757 39.0669 67.9005 38.8208C68.0646 38.5747 68.1466 38.2876 68.1466 37.9595V34.3297H69.0695V40.2358H68.1876V38.9849H68.1466C68.0236 39.313 67.8595 39.6001 67.6339 39.8052C67.4084 40.0103 67.1623 40.1538 66.8752 40.2564C66.5881 40.3589 66.3215 40.3999 66.0549 40.3999C65.4191 40.3999 64.9064 40.2358 64.5373 39.9077C64.1682 39.5796 63.9836 39.0464 63.9836 38.3492V34.3297H64.9064V38.1236C64.9064 38.6363 65.009 38.9849 65.214 39.231C65.4191 39.4566 65.8088 39.5796 66.3625 39.5796" fill="#1434CB"/>
<path d="M73.212 35.1705C72.7403 35.1705 72.3917 35.314 72.1251 35.6011C71.8585 35.8882 71.7355 36.3189 71.7355 36.9136V40.2564H70.8126V34.3502H71.6944V35.5806H71.7355C71.879 35.0679 72.1046 34.6988 72.4122 34.4937C72.7403 34.2887 73.0889 34.1861 73.4581 34.1861C73.5606 34.1861 73.6632 34.1861 73.7452 34.1861C73.8477 34.1861 73.9093 34.2066 73.9503 34.2271L73.8272 35.232H73.7862C73.7862 35.232 73.6427 35.191 73.5401 35.1705C73.4376 35.15 73.3145 35.1295 73.171 35.1295" fill="#1434CB"/>
<path d="M77.6006 39.6616C78.1338 39.6616 78.5645 39.6001 78.8926 39.4771C79.2207 39.354 79.5283 39.1695 79.7949 38.9644L79.7129 39.8052C79.5488 39.9487 79.2617 40.0923 78.8926 40.2153C78.5234 40.3589 78.0723 40.4204 77.5186 40.4204C76.9239 40.4204 76.3907 40.2974 75.9395 40.0308C75.4883 39.7642 75.1397 39.395 74.8936 38.9234C74.6475 38.4517 74.5245 37.9185 74.5245 37.3238C74.5245 36.7291 74.6475 36.1959 74.8936 35.7242C75.1397 35.2525 75.4883 34.8834 75.8985 34.6168C76.3291 34.3502 76.8213 34.2066 77.3545 34.2066C77.9697 34.2066 78.4824 34.3092 78.8721 34.5347C79.2617 34.7603 79.5488 35.0679 79.7129 35.4576C79.8975 35.8472 79.9795 36.3189 79.9795 36.8316C79.9795 36.8931 79.9795 36.9957 79.9795 37.0777C79.9795 37.1802 79.9795 37.2622 79.9385 37.3443H75.4678C75.4678 37.3443 75.4678 37.3443 75.4678 37.3648C75.4678 37.3648 75.4678 37.3648 75.4678 37.3853C75.4678 38.0825 75.6729 38.6363 76.0625 39.0464C76.4317 39.4566 76.9444 39.6616 77.6006 39.6616ZM77.375 34.9244C76.8418 34.9244 76.4317 35.0884 76.1036 35.3961C75.7754 35.7242 75.5909 36.1548 75.5088 36.7291H79.0772V36.6265C79.0772 36.2779 79.0361 35.9703 78.9131 35.7242C78.8106 35.4781 78.626 35.273 78.3799 35.1295C78.1338 34.9859 77.7852 34.9244 77.3545 34.9244" fill="#1434CB"/>
</g>
<defs>
<clipPath id="clip0_1801_20128">
<rect width="79.9795" height="42.3071" rx="8" fill="white"/>
</clipPath>
</defs>
</svg>
