<svg width="80" height="32" viewBox="0 0 80 32" fill="none" xmlns="http://www.w3.org/2000/svg">
<g clip-path="url(#clip0_1801_11543)">
<g clip-path="url(#clip1_1801_11543)">
<path d="M17.3272 11.2493C19.798 9.88768 21.2601 9.47276 22.6735 8.93782C24.8453 8.0935 26.7936 7.44061 28.1708 7.02983V8.4153C28.1708 8.84573 28.5475 8.77848 28.7823 8.52911C29.0172 8.28079 33.9 2.91482 34.3128 2.46059C34.7257 2.00739 34.6956 1.6142 34.141 1.5128C33.5864 1.41244 26.2753 0.114921 25.6565 0.00731185C25.6565 0.00731185 25.3006 -0.066152 25.2395 0.209079C25.1909 0.431539 25.9752 1.24171 26.2784 1.54488C24.5194 2.08396 21.9243 2.96345 19.0665 4.13267C16.6784 5.20876 14.8108 5.92684 12.8841 6.99258C12.8169 7.02983 12.7372 7.07225 12.6482 7.11778C9.71382 8.68018 6.93772 10.493 4.90143 12.5044C4.0985 13.297 3.40007 14.1248 2.80719 14.9753L9.80488 15.8807C11.7905 14.1817 14.5138 12.6038 17.3261 11.2473L17.3272 11.2493Z" fill="url(#paint0_linear_1801_11543)"/>
<path d="M0.738801 24.4056C1.60485 27.8015 4.2899 30.5269 7.74683 31.5202C8.84155 31.8348 9.97868 31.9889 11.1231 31.9889C13.6902 31.9889 16.2873 31.214 18.4819 29.7354C21.8333 27.4787 23.9368 23.8024 24.4045 19.3863C24.8308 15.3634 24.0972 11.8205 22.6724 8.93787C21.259 9.47281 19.797 9.88772 17.3261 11.2494C18.3567 13.1957 18.9526 15.7276 18.6298 18.7748C18.2656 22.211 16.5842 24.0135 15.237 24.9199C13.4956 26.0922 11.24 26.4833 9.34752 25.9401C7.84203 25.5076 6.72558 24.3973 6.3624 22.9705C5.86988 21.0397 6.79905 18.7893 8.9802 16.636C9.23784 16.3815 9.51307 16.1301 9.80382 15.8817L2.80613 14.9764C0.703621 18.0008 -0.048607 21.3201 0.738801 24.4056Z" fill="url(#paint1_linear_1801_11543)"/>
<path d="M7.74684 31.5212C8.84156 31.8358 9.97869 31.9899 11.1231 31.9899C13.6902 31.9899 16.2873 31.2149 18.4819 29.7363C21.8333 27.4797 23.9368 23.8034 24.4045 19.3873C24.8308 15.3643 24.0972 11.8215 22.6724 8.93884C21.259 9.47378 19.797 9.8887 17.3261 11.2504C18.3567 13.1966 18.9527 15.7286 18.6298 18.7758C18.2656 22.212 16.5842 24.0144 15.237 24.9208C13.4956 26.0932 4.28784 30.5289 7.74477 31.5212H7.74684Z" fill="url(#paint2_linear_1801_11543)"/>
<path d="M13.8598 1.21165C7.97963 -0.374546 2.03217 4.16779 1.3741 4.69135C1.3741 4.69135 -1.18886 6.6459 0.686022 9.22645C1.27787 10.0408 2.47502 10.347 3.48489 10.107C3.71977 10.0511 3.94844 9.95177 4.15227 9.83899C4.6303 9.57618 5.2863 9.01123 5.49324 8.87051C6.96045 7.87409 10.0728 6.20409 12.3492 6.81766C12.5251 6.86526 12.7041 6.92424 12.8852 6.9946C14.8118 5.92886 16.6794 5.21077 19.0675 4.13468C17.4782 2.70162 15.6778 1.7021 13.8598 1.21165Z" fill="url(#paint3_linear_1801_11543)"/>
<path d="M13.8598 1.21165C7.97963 -0.374546 2.03217 4.16779 1.3741 4.69135C1.3741 4.69135 -1.18886 6.6459 0.686022 9.22645C1.27787 10.0408 2.47502 10.347 3.48489 10.107C3.71977 10.0511 3.94844 9.95177 4.15227 9.83899C4.6303 9.57618 5.2863 9.01123 5.49324 8.87051C6.96045 7.87409 10.0728 6.20409 12.3492 6.81766C12.5251 6.86526 12.7041 6.92424 12.8852 6.9946C14.8118 5.92886 16.6794 5.21077 19.0675 4.13468C17.4782 2.70162 15.6778 1.7021 13.8598 1.21165Z" fill="url(#paint4_linear_1801_11543)"/>
<path d="M27.5272 19.3583V19.3325C27.5272 17.8011 28.6923 17.0934 30.355 17.0934C31.0617 17.0934 31.5729 17.2113 32.0695 17.381V17.2631C32.0695 16.4384 31.5594 15.98 30.564 15.98C30.0146 15.98 29.5687 16.0587 29.1889 16.1766C29.071 16.216 28.9923 16.2294 28.9013 16.2294C28.4429 16.2294 28.0766 15.8755 28.0766 15.4182C28.0766 15.0643 28.2991 14.7632 28.6136 14.6463C29.2417 14.4104 29.9225 14.28 30.8527 14.28C31.9392 14.28 32.7245 14.5677 33.2222 15.0654C33.7457 15.5889 33.9817 16.3618 33.9817 17.3045V20.4986C33.9817 21.0356 33.5502 21.4547 33.0132 21.4547C32.4368 21.4547 32.0571 21.049 32.0571 20.63V20.6165C31.5729 21.1536 30.9055 21.5064 29.936 21.5064C28.6136 21.5064 27.5272 20.7469 27.5272 19.3594V19.3583ZM32.0964 18.9V18.5461C31.756 18.3888 31.3111 18.2843 30.8269 18.2843C29.9763 18.2843 29.4517 18.6247 29.4517 19.2528V19.2787C29.4517 19.8157 29.8967 20.1292 30.5382 20.1292C31.4673 20.1292 32.0964 19.6191 32.0964 18.8989V18.9Z" fill="#ED0677"/>
<path d="M35.6962 15.2733C35.6962 14.7239 36.1411 14.2779 36.6915 14.2779C37.242 14.2779 37.6869 14.7229 37.6869 15.2733V15.352C38.1453 14.7632 38.734 14.2262 39.7418 14.2262C41.2473 14.2262 42.1248 15.2216 42.1248 16.8316V20.4582C42.1248 21.0076 41.6798 21.4536 41.1294 21.4536C40.5789 21.4536 40.134 21.0087 40.134 20.4582V17.4607C40.134 16.5181 39.6891 16.0338 38.9296 16.0338C38.1701 16.0338 37.6859 16.5181 37.6859 17.4607V20.4582C37.6859 21.0076 37.241 21.4536 36.6905 21.4536C36.1401 21.4536 35.6951 21.0087 35.6951 20.4582V15.2743L35.6962 15.2733Z" fill="#ED0677"/>
<path d="M44.1807 19.3841V16.0586H44.1155C43.6447 16.0586 43.265 15.6789 43.265 15.2081C43.265 14.7373 43.6447 14.3576 44.1155 14.3576H44.1807V13.4801C44.1807 12.9307 44.6256 12.4847 45.1761 12.4847C45.7265 12.4847 46.1715 12.9297 46.1715 13.4801V14.3576H47.0489C47.5197 14.3576 47.8994 14.7373 47.8994 15.2081C47.8994 15.6789 47.5197 16.0586 47.0489 16.0586H46.1715V19.0561C46.1715 19.5145 46.3681 19.737 46.813 19.737C46.8782 19.737 47.0096 19.7235 47.0489 19.7235C47.4938 19.7235 47.8735 20.0898 47.8735 20.5482C47.8735 20.902 47.6376 21.1897 47.3624 21.2942C46.9961 21.438 46.6557 21.4908 46.2232 21.4908C45.0054 21.4908 44.1807 21.0065 44.1807 19.3831V19.3841Z" fill="#ED0677"/>
<path d="M52.4148 21.5312C50.3072 21.5312 48.7489 20.0516 48.7489 17.9046V17.8787C48.7489 15.8755 50.1758 14.2262 52.2183 14.2262C54.5619 14.2262 55.5955 16.1507 55.5955 17.6035C55.5955 18.1798 55.1899 18.5595 54.6664 18.5595H50.7262C50.9228 19.4628 51.5509 19.9346 52.4407 19.9346C52.9901 19.9346 53.4485 19.765 53.8551 19.4639C53.999 19.3594 54.1304 19.3066 54.3394 19.3066C54.7843 19.3066 55.1113 19.647 55.1113 20.0919C55.1113 20.3537 54.9933 20.5503 54.8495 20.6807C54.2338 21.2042 53.4361 21.5312 52.4148 21.5312ZM53.6979 17.3158C53.5799 16.426 53.0564 15.8238 52.2183 15.8238C51.3801 15.8238 50.8566 16.4125 50.6993 17.3158H53.6968H53.6979Z" fill="#ED0677"/>
<path d="M57.1155 15.2733C57.1155 14.7239 57.5604 14.278 58.1109 14.278C58.6614 14.278 59.1063 14.7229 59.1063 15.2733V15.5879C59.3939 14.9071 59.8657 14.279 60.4545 14.279C61.0432 14.279 61.423 14.6846 61.423 15.2475C61.423 15.771 61.0826 16.0856 60.6769 16.1766C59.6692 16.4125 59.1063 17.1844 59.1063 18.5989V20.4582C59.1063 21.0077 58.6614 21.4536 58.1109 21.4536C57.5604 21.4536 57.1155 21.0087 57.1155 20.4582V15.2744V15.2733Z" fill="#ED0677"/>
<path d="M61.841 19.3583V19.3325C61.841 17.8011 63.0061 17.0934 64.6688 17.0934C65.3755 17.0934 65.8867 17.2113 66.3833 17.381V17.2631C66.3833 16.4384 65.8722 15.98 64.8779 15.98C64.3284 15.98 63.8825 16.0587 63.5027 16.1766C63.3848 16.216 63.3061 16.2294 63.2151 16.2294C62.7567 16.2294 62.3904 15.8755 62.3904 15.4182C62.3904 15.0643 62.6129 14.7632 62.9274 14.6463C63.5555 14.4104 64.2363 14.28 65.1655 14.28C66.2519 14.28 67.0373 14.5677 67.535 15.0654C68.0585 15.5889 68.2944 16.3618 68.2944 17.3045V20.4986C68.2944 21.0356 67.8619 21.4547 67.326 21.4547C66.7496 21.4547 66.3699 21.049 66.3699 20.63V20.6165C65.8857 21.1536 65.2183 21.5064 64.2488 21.5064C62.9264 21.5064 61.84 20.7469 61.84 19.3594L61.841 19.3583ZM66.4102 18.9V18.5461C66.0698 18.3888 65.6249 18.2843 65.1407 18.2843C64.2901 18.2843 63.7655 18.6247 63.7655 19.2528V19.2787C63.7655 19.8157 64.2105 20.1292 64.852 20.1292C65.7811 20.1292 66.4102 19.6191 66.4102 18.8989V18.9Z" fill="#FFCB08"/>
<path d="M69.9458 23.5085C69.3043 23.5085 68.8335 23.2467 68.8335 22.6973C68.8335 22.213 69.1874 21.8985 69.6054 21.8985H69.6178C69.9065 21.8985 70.102 21.7153 70.102 21.2435V15.2733C70.102 14.7239 70.547 14.2779 71.0974 14.2779C71.6479 14.2779 72.0928 14.7228 72.0928 15.2733V21.2559C72.0928 22.8007 71.2816 23.5074 69.9717 23.5074H69.9458V23.5085ZM69.9851 12.6814C69.9851 12.105 70.4694 11.7522 71.0985 11.7522C71.7276 11.7522 72.2108 12.1061 72.2108 12.6814V12.7072C72.2108 13.2836 71.7265 13.6498 71.0985 13.6498C70.4704 13.6498 69.9851 13.2836 69.9851 12.7072V12.6814Z" fill="#FFCB08"/>
<path d="M73.5456 19.3583V19.3325C73.5456 17.8011 74.7106 17.0934 76.3734 17.0934C77.0801 17.0934 77.5912 17.2113 78.0879 17.381V17.2631C78.0879 16.4384 77.5768 15.98 76.5824 15.98C76.033 15.98 75.587 16.0587 75.2073 16.1766C75.0893 16.216 75.0107 16.2294 74.9196 16.2294C74.4613 16.2294 74.095 15.8755 74.095 15.4182C74.095 15.0643 74.3174 14.7632 74.632 14.6463C75.2601 14.4104 75.9409 14.28 76.8701 14.28C77.9565 14.28 78.7418 14.5677 79.2395 15.0654C79.7631 15.5889 79.999 16.3618 79.999 17.3045V20.4986C79.999 21.0356 79.5665 21.4547 79.0305 21.4547C78.4542 21.4547 78.0744 21.049 78.0744 20.63V20.6165C77.5902 21.1536 76.9228 21.5064 75.9533 21.5064C74.631 21.5064 73.5445 20.7469 73.5445 19.3594L73.5456 19.3583ZM78.1148 18.9V18.5461C77.7744 18.3888 77.3295 18.2843 76.8452 18.2843C75.9947 18.2843 75.4701 18.6247 75.4701 19.2528V19.2787C75.4701 19.8157 75.915 20.1292 76.5565 20.1292C77.4857 20.1292 78.1148 19.6191 78.1148 18.8989V18.9Z" fill="#FFCB08"/>
</g>
</g>
<defs>
<linearGradient id="paint0_linear_1801_11543" x1="6.32517" y1="30.0323" x2="20.7324" y2="4.98009" gradientUnits="userSpaceOnUse">
<stop stop-color="#FFCB08"/>
<stop offset="1" stop-color="#ED0677"/>
</linearGradient>
<linearGradient id="paint1_linear_1801_11543" x1="6.80525" y1="30.3086" x2="21.2135" y2="5.2564" gradientUnits="userSpaceOnUse">
<stop stop-color="#FFCB08"/>
<stop offset="1" stop-color="#ED0677"/>
</linearGradient>
<linearGradient id="paint2_linear_1801_11543" x1="11.1562" y1="12.6089" x2="14.6245" y2="19.5435" gradientUnits="userSpaceOnUse">
<stop stop-opacity="0.3"/>
<stop offset="1" stop-color="#000600" stop-opacity="0"/>
</linearGradient>
<linearGradient id="paint3_linear_1801_11543" x1="-1.93488" y1="25.2819" x2="12.4733" y2="0.229722" gradientUnits="userSpaceOnUse">
<stop stop-color="#FFCB08"/>
<stop offset="1" stop-color="#ED0677"/>
</linearGradient>
<linearGradient id="paint4_linear_1801_11543" x1="16.8067" y1="9.81106" x2="9.49547" y2="6.31687" gradientUnits="userSpaceOnUse">
<stop stop-opacity="0.3"/>
<stop offset="1" stop-color="#000600" stop-opacity="0"/>
</linearGradient>
<clipPath id="clip0_1801_11543">
<rect width="80" height="31.9888" fill="white"/>
</clipPath>
<clipPath id="clip1_1801_11543">
<rect width="80" height="31.9888" fill="white"/>
</clipPath>
</defs>
</svg>
