<svg width="80" height="32" viewBox="0 0 80 32" fill="none" xmlns="http://www.w3.org/2000/svg">
<g clip-path="url(#clip0_1801_11537)">
<path d="M2.19424 18.3162C2.34478 17.5425 2.43843 16.9999 2.47607 16.6874C2.5137 16.3758 2.5811 15.9032 2.67737 15.2686C4.13903 14.9247 5.42914 14.6831 6.54771 14.5431C7.66539 14.4039 8.74632 14.333 9.78961 14.333C10.9721 14.333 12.0582 14.4704 13.0473 14.7444C14.0363 15.0183 14.81 15.4568 15.3693 16.059C15.9286 16.6612 16.2078 17.5268 16.2078 18.6558C16.2078 19.2685 16.122 20.83 15.9513 23.341C15.7807 25.8512 15.6791 28.4455 15.6468 31.122C14.8293 31.1009 14.0757 31.0896 13.3869 31.0896C12.6981 31.0896 11.9611 31.1001 11.0788 31.122C11.2206 29.8213 11.3344 28.3159 11.4211 26.6066L11.6329 22.5909C11.2241 22.8596 10.9117 23.0478 10.6964 23.1555C10.4811 23.2631 10.2386 23.3629 9.96991 23.4539C9.70034 23.5458 9.22771 23.685 8.54939 23.8732C7.87195 24.0614 7.32843 24.2259 6.91969 24.3651C6.51095 24.5051 6.14247 24.6635 5.81425 24.8412C5.48603 25.0189 5.20858 25.2176 4.98277 25.4381C4.75696 25.6587 4.59241 25.8897 4.49088 26.1313C4.38848 26.3729 4.33771 26.6337 4.33771 26.9138C4.33771 27.3654 4.469 27.7549 4.73245 28.0831C4.9959 28.4113 5.32674 28.6398 5.7241 28.7684C6.12146 28.8971 6.58972 28.9618 7.12712 28.9618C7.47109 28.9618 7.83432 28.9347 8.21592 28.8813C8.59753 28.8279 9.1113 28.6932 9.75635 28.4778C9.53054 29.0905 9.26709 30.0043 8.96601 31.2191C8.20279 31.3478 7.59537 31.4292 7.14375 31.4607C6.69212 31.4931 6.27288 31.5088 5.88602 31.5088C4.53114 31.5088 3.41871 31.3259 2.54784 30.9609C1.67697 30.5959 1.03454 30.0148 0.620549 29.2192C0.206558 28.4236 0 27.6227 0 26.8166C0 26.3545 0.0805225 25.8976 0.241568 25.446C0.402613 24.9944 0.639804 24.5804 0.951391 24.204C1.26298 23.8277 1.66647 23.4653 2.16185 23.1152C2.65637 22.766 3.37232 22.4273 4.30795 22.0991C5.24359 21.7708 6.48119 21.4409 8.01899 21.1074C8.42773 21.0216 8.8531 20.9166 9.29422 20.7932C9.73535 20.6698 10.0881 20.549 10.3515 20.43C10.615 20.3118 10.8434 20.1586 11.0368 19.9705C11.2303 19.7823 11.3729 19.5862 11.4648 19.3823C11.5559 19.1784 11.6022 18.9683 11.6022 18.753C11.6022 18.3338 11.4648 17.9793 11.1909 17.6887C10.9161 17.3981 10.5616 17.1968 10.1257 17.0839C9.68984 16.971 9.20845 16.915 8.68068 16.915C6.72276 16.915 4.56003 17.3824 2.19336 18.318L2.19424 18.3162Z" fill="#231F20"/>
<path d="M17.5889 30.8147L17.2344 27.2665C18.2882 27.6962 19.1801 27.9947 19.9118 28.1619C20.6426 28.329 21.3148 28.4122 21.9275 28.4122C22.5402 28.4122 23.0566 28.3396 23.4758 28.1943C23.8951 28.049 24.2066 27.8345 24.4115 27.5492C24.6154 27.2647 24.7178 26.9663 24.7178 26.6538C24.7178 26.5147 24.7038 26.3851 24.6775 26.267C24.6504 26.1488 24.6023 26.0254 24.5322 25.8959C24.4622 25.7672 24.3817 25.6455 24.2907 25.5335C24.1996 25.4206 24.0727 25.2919 23.9117 25.1467C23.7506 25.0014 23.5187 24.8158 23.2185 24.59L22.3476 23.8968C21.5091 23.2412 20.8693 22.7249 20.4282 22.3485C19.9871 21.9721 19.616 21.5879 19.3158 21.1958C19.0147 20.8037 18.7863 20.3897 18.6305 19.9538C18.4747 19.5188 18.3968 19.0751 18.3968 18.6235C18.3968 17.8392 18.6357 17.0918 19.1145 16.382C19.5924 15.6721 20.289 15.154 21.2028 14.8258C22.1166 14.4984 23.1914 14.3339 24.4281 14.3339C25.8364 14.3339 27.4599 14.5011 29.2988 14.8336L29.508 18.2042C28.2608 17.6992 27.0617 17.4463 25.9116 17.4463C25.2884 17.4463 24.7423 17.5084 24.2749 17.6318C23.8075 17.7552 23.4714 17.9434 23.2666 18.1963C23.0627 18.4493 22.9603 18.7311 22.9603 19.0427C22.9603 19.2256 22.9927 19.4059 23.0574 19.5827C23.1222 19.7604 23.2351 19.946 23.3962 20.1394C23.5572 20.3328 23.7428 20.5157 23.9528 20.6873C24.1629 20.8597 24.6005 21.1984 25.2674 21.7034C25.9335 22.2093 26.5173 22.6662 27.0171 23.0741C27.5168 23.4828 27.9282 23.8942 28.2512 24.3073C28.5732 24.7213 28.8209 25.165 28.9934 25.6377C29.1649 26.1112 29.2516 26.5891 29.2516 27.0731C29.2516 27.8792 29.0039 28.6266 28.5093 29.3146C28.0148 30.0025 27.2674 30.5399 26.2678 30.9268C25.2683 31.3136 24.1498 31.5071 22.913 31.5071C22.268 31.5071 21.4829 31.4554 20.5586 31.3539C19.6335 31.2515 18.6445 31.0721 17.5915 30.8139L17.5889 30.8147Z" fill="#231F20"/>
<path d="M30.4191 30.8147L30.0647 27.2665C31.1185 27.6962 32.0103 27.9947 32.742 28.1619C33.4729 28.329 34.145 28.4122 34.7577 28.4122C35.3704 28.4122 35.8868 28.3396 36.306 28.1943C36.7253 28.049 37.0369 27.8345 37.2417 27.5492C37.4456 27.2647 37.548 26.9663 37.548 26.6538C37.548 26.5147 37.534 26.3851 37.5077 26.267C37.4806 26.1488 37.4325 26.0254 37.3624 25.8959C37.2924 25.7672 37.2119 25.6455 37.1209 25.5335C37.029 25.4206 36.9029 25.2919 36.7419 25.1467C36.5809 25.0014 36.3489 24.8158 36.0487 24.59L35.1778 23.8968C34.3394 23.2412 33.6996 22.7249 33.2584 22.3485C32.8173 21.9721 32.4462 21.5879 32.146 21.1958C31.8449 20.8037 31.6165 20.3897 31.4607 19.9538C31.3049 19.5188 31.227 19.0751 31.227 18.6235C31.227 17.8392 31.4659 17.0918 31.9447 16.382C32.4226 15.6721 33.1193 15.154 34.033 14.8258C34.9468 14.4984 36.0216 14.3339 37.2583 14.3339C38.6666 14.3339 40.2901 14.5011 42.1282 14.8336L42.3382 18.2042C41.091 17.6992 39.8919 17.4463 38.7418 17.4463C38.1187 17.4463 37.5725 17.5084 37.1051 17.6318C36.6377 17.7552 36.3017 17.9434 36.0968 18.1963C35.8929 18.4493 35.7905 18.7311 35.7905 19.0427C35.7905 19.2256 35.8229 19.4059 35.8877 19.5827C35.9524 19.7604 36.0653 19.946 36.2264 20.1394C36.3874 20.3328 36.573 20.5157 36.783 20.6873C36.9931 20.8597 37.4307 21.1984 38.0977 21.7034C38.7646 22.2093 39.3475 22.6662 39.8473 23.0741C40.347 23.4828 40.7584 23.8942 41.0805 24.3073C41.4035 24.7213 41.6503 25.165 41.8227 25.6377C41.9942 26.1112 42.0809 26.5891 42.0809 27.0731C42.0809 27.8792 41.8332 28.6266 41.3387 29.3146C40.8442 30.0025 40.0967 30.5399 39.0972 30.9268C38.0977 31.3136 36.9791 31.5071 35.7424 31.5071C35.0973 31.5071 34.3122 31.4554 33.388 31.3539C32.4628 31.2515 31.4738 31.0721 30.4209 30.8139L30.4191 30.8147Z" fill="#231F20"/>
<path d="M44.9263 18.3162C45.0769 17.5425 45.1705 16.9999 45.2081 16.6874C45.2458 16.3758 45.3132 15.9032 45.4095 15.2686C46.8711 14.9247 48.1612 14.6831 49.2798 14.5431C50.3975 14.4039 51.4784 14.333 52.5208 14.333C53.7033 14.333 54.7895 14.4704 55.7785 14.7444C56.7675 15.0183 57.5412 15.4568 58.1005 16.059C58.6598 16.6612 58.939 17.5268 58.939 18.6558C58.939 19.2685 58.8532 20.8299 58.6825 23.341C58.5119 25.8512 58.4103 28.4455 58.378 31.122C57.5605 31.1009 56.8069 31.0896 56.1181 31.0896C55.4293 31.0896 54.6923 31.1001 53.81 31.122C53.951 29.8213 54.0656 28.3159 54.1523 26.6066L54.3641 22.5909C53.9553 22.8596 53.6429 23.0478 53.4276 23.1555C53.2123 23.2631 52.9698 23.3629 52.7011 23.4539C52.4324 23.5458 51.9589 23.685 51.2806 23.8732C50.6032 24.0614 50.0596 24.2259 49.6509 24.3651C49.2422 24.5051 48.8737 24.6635 48.5455 24.8412C48.2172 25.0189 47.9398 25.2176 47.714 25.4381C47.4882 25.6587 47.3236 25.8897 47.2212 26.1313C47.1188 26.3729 47.068 26.6337 47.068 26.9138C47.068 27.3654 47.1993 27.7549 47.4628 28.0831C47.7262 28.4113 48.0571 28.6398 48.4544 28.7684C48.8518 28.8971 49.32 28.9618 49.8574 28.9618C50.2014 28.9618 50.5646 28.9347 50.9463 28.8813C51.3279 28.8279 51.8416 28.6931 52.4867 28.4778C52.2609 29.0905 51.9974 30.0043 51.6963 31.2191C50.9331 31.3478 50.3257 31.4292 49.8741 31.4607C49.4225 31.4931 49.0032 31.5088 48.6163 31.5088C47.2615 31.5088 46.149 31.3259 45.2782 30.9609C44.4073 30.5959 43.7649 30.0148 43.3509 29.2192C42.9369 28.4236 42.7303 27.6227 42.7303 26.8166C42.7303 26.3545 42.8108 25.8976 42.9719 25.446C43.1329 24.9944 43.3701 24.5804 43.6817 24.204C43.9933 23.8277 44.3968 23.4653 44.8922 23.1152C45.3867 22.766 46.1026 22.4273 47.0383 22.0991C47.9739 21.7708 49.2115 21.4409 50.7493 21.1074C51.1581 21.0216 51.5834 20.9166 52.0237 20.7932C52.4648 20.6698 52.8175 20.549 53.081 20.43C53.3444 20.3118 53.5729 20.1586 53.7663 19.9705C53.9597 19.7823 54.1024 19.5862 54.1943 19.3823C54.2853 19.1784 54.3317 18.9683 54.3317 18.753C54.3317 18.3338 54.1943 17.9793 53.9203 17.6887C53.6455 17.3981 53.291 17.1968 52.8552 17.0839C52.4193 16.971 51.9379 16.915 51.411 16.915C49.4531 16.915 47.2904 17.3824 44.9237 18.318L44.9263 18.3162Z" fill="#231F20"/>
<path d="M20.577 5.32849C20.577 5.32849 24.2329 10.4802 29.8835 10.6465C35.5341 10.8128 41.4428 6.42605 45.8751 4.94863C50.3073 3.47122 54.0744 3.17626 57.3242 5.4659C57.3242 5.4659 53.9265 0 47.5004 0C43.364 0 34.8698 4.29133 32.5057 5.32586C30.1417 6.3604 25.341 7.90346 20.577 5.32849Z" fill="#231F20"/>
<path d="M43.2537 6.21511C43.2537 6.21511 46.9096 11.3668 52.5602 11.5331C58.2108 11.6994 64.1196 7.31267 68.5518 5.83526C72.984 4.35784 76.7511 4.06289 80.0009 6.35253C80.0009 6.35253 76.6032 0.886623 70.1771 0.886623C66.0407 0.886623 57.5465 5.17795 55.1824 6.21249C52.8184 7.24703 48.0177 8.79096 43.2537 6.21511Z" fill="#E5BF00"/>
</g>
<defs>
<clipPath id="clip0_1801_11537">
<rect width="80.0009" height="31.5088" fill="white"/>
</clipPath>
</defs>
</svg>
