<svg width="61" height="80" viewBox="0 0 61 80" fill="none" xmlns="http://www.w3.org/2000/svg">
<g clip-path="url(#clip0_1801_11300)">
<path fill-rule="evenodd" clip-rule="evenodd" d="M46.2978 4.08385C54.7 9.12096 60.3205 18.3097 60.3205 28.8214C60.3205 44.7402 47.4178 57.6377 31.5042 57.6377C26.04 57.6377 20.9351 56.1167 16.5804 53.4757L32.4679 53.632L33.0148 51.0743C33.2649 49.9075 33.5149 48.7459 33.7649 47.5791L34.6036 43.6671L23.7689 43.7661C22.0707 43.7817 20.3882 43.3754 19.3099 41.9794C17.5962 39.7708 17.9712 36.2182 18.9193 33.7335C19.3308 33.046 19.8829 32.1552 20.4559 31.6812C21.4977 30.8269 23.9199 30.7904 25.1753 30.7748C28.2851 30.7436 31.3896 30.7748 34.4994 30.7748H37.0779L37.63 28.2589C39.4532 19.9765 42.4536 11.6734 46.2978 4.08385Z" fill="#131085"/>
<path fill-rule="evenodd" clip-rule="evenodd" d="M31.5043 0C35.7705 0 39.8179 0.927204 43.459 2.58888C39.6355 10.1419 36.4216 18.8254 34.4995 27.5713H25.1441C19.2423 27.6651 18.0442 28.9673 16.0387 32.3115C13.3144 39.0311 15.4032 47.0426 23.8054 46.9697L30.6344 46.9072C30.3843 48.074 30.1343 49.2356 29.8843 50.4024L12.2153 50.2305C6.36559 44.9538 2.68802 37.3174 2.68802 28.8215C2.68282 12.9027 15.5855 0 31.5043 0Z" fill="black"/>
<path fill-rule="evenodd" clip-rule="evenodd" d="M0 61.758H3.07332C5.05795 61.758 6.39667 61.8257 7.09988 61.9716C7.79789 62.1122 8.33442 62.3466 8.69384 62.6748C9.05847 62.9978 9.28767 63.3624 9.37622 63.7583C9.46477 64.1594 9.51165 64.9407 9.51165 66.1128V70.4414C9.51165 71.551 9.44394 72.2906 9.31371 72.6657C9.17828 73.0407 8.94908 73.3324 8.61571 73.546C8.28233 73.7544 7.87082 73.9002 7.38117 73.9888C6.89673 74.0721 6.15705 74.1138 5.17776 74.1138H0V61.758ZM4.12033 63.8677V72.0041C4.70374 72.0041 5.06316 71.9104 5.19859 71.7281C5.33403 71.5405 5.40174 71.0353 5.40174 70.2122V65.4043C5.40174 64.847 5.3757 64.4875 5.33403 64.3261C5.28715 64.1698 5.18818 64.0552 5.0267 63.9823C4.86522 63.9093 4.5683 63.8729 4.12554 63.8729L4.12033 63.8677ZM18.143 61.758L20.4975 74.1138H16.2938L16.0698 71.8948H14.5852L14.3612 74.1138H10.1055L12.1891 61.758H18.143ZM15.9604 69.707C15.7625 68.3058 15.5593 66.5711 15.3353 64.5032C14.929 66.8785 14.6738 68.6131 14.5644 69.707H15.9604ZM31.0092 61.758L28.66 67.3369L31.228 74.1138H26.9879L25.321 68.8162V74.1138H21.2007V61.758H25.321V66.5607L27.1702 61.758H31.0092ZM40.9428 68.9986C40.9428 70.2383 40.9064 71.1186 40.8282 71.6343C40.7553 72.15 40.5209 72.624 40.1302 73.0512C39.7396 73.4783 39.203 73.8065 38.5363 74.0357C37.8643 74.2649 37.0882 74.3794 36.1974 74.3794C35.3067 74.3794 34.593 74.2701 33.9211 74.0565C33.2491 73.8429 32.7074 73.52 32.3011 73.0876C31.8896 72.6553 31.65 72.1865 31.5666 71.676C31.4885 71.1655 31.452 70.2748 31.452 69.0038V66.8889C31.452 65.6492 31.4885 64.7688 31.5666 64.2531C31.6395 63.7374 31.8739 63.2634 32.2646 62.8363C32.6605 62.4091 33.1918 62.081 33.8586 61.8518C34.5305 61.6226 35.3067 61.508 36.1974 61.508C37.0882 61.508 37.8018 61.6174 38.4738 61.8309C39.1457 62.0445 39.6875 62.3675 40.0938 62.7998C40.5053 63.2322 40.7449 63.701 40.8282 64.2115C40.9064 64.7219 40.9428 65.6127 40.9428 66.8837V68.9986ZM36.8225 64.9407C36.8225 64.3677 36.7808 64.0031 36.7027 63.8416C36.6246 63.6854 36.4579 63.602 36.213 63.602C36.0047 63.602 35.8432 63.6645 35.7286 63.7947C35.6192 63.9198 35.5619 64.3052 35.5619 64.9407V70.7071C35.5619 71.4207 35.5984 71.8635 35.6713 72.0302C35.7442 72.1969 35.9161 72.2802 36.1818 72.2802C36.4475 72.2802 36.6298 72.1813 36.7079 71.9937C36.786 71.801 36.8225 71.3426 36.8225 70.6133V64.9355V64.9407ZM50.7618 61.758V64.2271H48.3448V74.1138H44.2245V64.2271H41.7867V61.758H50.7618ZM52.0432 61.758L49.9596 74.1138H54.2154L54.4394 71.8948H55.9239L56.1479 74.1138H60.3516L57.9971 61.758H52.0432ZM55.8093 69.707H54.4133C54.5227 68.6131 54.778 66.8785 55.1843 64.5032C55.403 66.5711 55.6114 68.3058 55.8093 69.707Z" fill="#131085"/>
<path fill-rule="evenodd" clip-rule="evenodd" d="M29.5663 79.9166V75.291H30.5092V79.1249H32.848V79.9114H29.5663V79.9166ZM33.322 77.6143C33.322 77.1402 33.395 76.7391 33.5356 76.4162C33.6398 76.1766 33.7856 75.963 33.968 75.7755C34.1503 75.5879 34.3534 75.4473 34.5722 75.3535C34.8639 75.2285 35.1973 75.1712 35.5775 75.1712C36.2651 75.1712 36.8173 75.3848 37.2288 75.8119C37.6403 76.2391 37.8487 76.8329 37.8487 77.5934C37.8487 78.3539 37.6455 78.9373 37.234 79.3645C36.8225 79.7916 36.2756 80.0052 35.5932 80.0052C34.9108 80.0052 34.3482 79.7916 33.9367 79.3697C33.5252 78.9478 33.322 78.3643 33.322 77.6195V77.6143ZM34.2909 77.583C34.2909 78.1143 34.4159 78.5102 34.6556 78.7863C34.9004 79.0571 35.2077 79.1978 35.588 79.1978C35.9682 79.1978 36.2703 79.0623 36.5152 78.7915C36.7548 78.5206 36.8746 78.1143 36.8746 77.5726C36.8746 77.0308 36.7548 76.6402 36.5204 76.3745C36.286 76.1088 35.9734 75.9786 35.5828 75.9786C35.1921 75.9786 34.8795 76.1141 34.6451 76.3797C34.4055 76.6454 34.2857 77.0465 34.2857 77.5882L34.2909 77.583ZM40.7501 78.2029V77.4163H42.7764V79.2759C42.5785 79.4687 42.292 79.6353 41.9221 79.7812C41.5471 79.927 41.172 80 40.7866 80C40.2969 80 39.875 79.8958 39.5104 79.6926C39.1509 79.4895 38.8749 79.1926 38.6925 78.8123C38.5102 78.4321 38.4165 78.0153 38.4165 77.5674C38.4165 77.0829 38.5206 76.6506 38.7238 76.2703C38.9269 75.8901 39.2239 75.6036 39.6197 75.4004C39.9219 75.2442 40.2917 75.166 40.7345 75.166C41.3127 75.166 41.7659 75.2858 42.0888 75.5306C42.4118 75.7755 42.6253 76.1088 42.7139 76.5412L41.7763 76.7183C41.7086 76.4891 41.5887 76.3068 41.4064 76.1766C41.2241 76.0463 41.0001 75.9786 40.7293 75.9786C40.3178 75.9786 39.9896 76.1088 39.75 76.3693C39.5104 76.6297 39.3853 77.0204 39.3853 77.5309C39.3853 78.0831 39.5104 78.4998 39.7552 78.7759C40 79.0519 40.323 79.1926 40.7188 79.1926C40.9168 79.1926 41.1147 79.1509 41.3127 79.078C41.5106 78.9998 41.6825 78.9061 41.8232 78.7967V78.2029H40.7501ZM43.6151 79.9166V75.2546H44.5579V79.9166H43.6151ZM45.209 78.406L46.1258 78.3175C46.1831 78.6248 46.2925 78.8488 46.4592 78.9946C46.6259 79.1405 46.8551 79.2082 47.1416 79.2082C47.4437 79.2082 47.6729 79.1457 47.8239 79.0155C47.975 78.8852 48.0531 78.7394 48.0531 78.5675C48.0531 78.4581 48.0219 78.3643 47.9542 78.2862C47.8917 78.2081 47.7771 78.1404 47.6156 78.0831C47.5062 78.0466 47.2562 77.9789 46.8655 77.8799C46.3654 77.7549 46.0112 77.5986 45.808 77.4163C45.5216 77.1611 45.3809 76.8433 45.3809 76.4735C45.3809 76.2339 45.4486 76.0099 45.5841 75.8067C45.7195 75.5984 45.9122 75.4421 46.1623 75.3327C46.4175 75.2233 46.7196 75.1712 47.079 75.1712C47.6625 75.1712 48.1 75.3014 48.3969 75.5619C48.6938 75.8223 48.8449 76.1661 48.8605 76.5985L47.9177 76.6297C47.876 76.3901 47.7927 76.2182 47.6625 76.1088C47.5322 76.0047 47.3343 75.9526 47.0686 75.9526C46.803 75.9526 46.5842 76.0099 46.4331 76.1245C46.3342 76.1974 46.2821 76.2964 46.2821 76.4162C46.2821 76.5256 46.3289 76.6193 46.4227 76.6975C46.5425 76.7964 46.829 76.9006 47.2874 77.01C47.7458 77.1194 48.0844 77.2288 48.298 77.3434C48.5167 77.458 48.6886 77.6142 48.8136 77.8174C48.9387 78.0205 49.0012 78.2654 49.0012 78.5623C49.0012 78.828 48.9282 79.078 48.7772 79.3124C48.6261 79.5468 48.4178 79.7187 48.1469 79.8333C47.876 79.9479 47.5374 80.0052 47.1311 80.0052C46.5425 80.0052 46.0893 79.8698 45.7716 79.5989C45.4538 79.328 45.2663 78.9321 45.2038 78.4112L45.209 78.406ZM50.8504 79.9166V76.0411H49.47V75.2546H53.1684V76.0411H51.7932V79.9166H50.8504ZM53.7466 79.9166V75.2546H54.6894V79.9166H53.7466ZM55.601 79.9166V75.2546H56.5438V77.3225L58.4451 75.2546H59.7109L57.9503 77.0725L59.7995 79.9218H58.5805L57.2991 77.7341L56.5386 78.5154V79.9271H55.5958L55.601 79.9166Z" fill="#FF0000"/>
</g>
<defs>
<clipPath id="clip0_1801_11300">
<rect width="60.3516" height="80.0052" fill="white"/>
</clipPath>
</defs>
</svg>
