<svg width="57" height="80" viewBox="0 0 57 80" fill="none" xmlns="http://www.w3.org/2000/svg">
<g clip-path="url(#clip0_1801_11294)">
<path fill-rule="evenodd" clip-rule="evenodd" d="M43.2376 3.81391C51.0843 8.51807 56.3334 17.0994 56.3334 26.9164C56.3334 41.7829 44.2835 53.8279 29.4218 53.8279C24.3188 53.8279 19.5514 52.4074 15.4845 49.941L30.3218 50.0869L30.8326 47.6984C31.0661 46.6087 31.2996 45.5239 31.5331 44.4342L32.3163 40.7808L22.1978 40.8732C20.6119 40.8878 19.0406 40.5083 18.0336 39.2046C16.4331 37.142 16.7833 33.8242 17.6687 31.5038C18.053 30.8616 18.5687 30.0298 19.1038 29.5871C20.0767 28.7893 22.3388 28.7552 23.5112 28.7406C26.4154 28.7114 29.3148 28.7406 32.219 28.7406H34.6271L35.1427 26.391C36.8454 18.6561 39.6474 10.9018 43.2376 3.81391Z" fill="#FF0000"/>
<path fill-rule="evenodd" clip-rule="evenodd" d="M29.4219 0C33.4061 0 37.1859 0.865917 40.5864 2.41776C37.0157 9.47157 34.0142 17.581 32.2191 25.7489H23.4821C17.9704 25.8364 16.8515 27.0526 14.9786 30.1757C12.4343 36.4512 14.3851 43.9331 22.2318 43.865L28.6095 43.8066C28.376 44.8963 28.1425 45.9811 27.909 47.0708L11.4079 46.9103C5.94483 41.9824 2.51035 34.8507 2.51035 26.9164C2.50548 12.0499 14.5553 0 29.4219 0Z" fill="#131085"/>
<path fill-rule="evenodd" clip-rule="evenodd" d="M0 57.6759H2.87017C4.72362 57.6759 5.97385 57.7391 6.63059 57.8754C7.28246 58.0067 7.78352 58.2256 8.11919 58.5321C8.45971 58.8337 8.67376 59.1742 8.75646 59.5439C8.83916 59.9185 8.88294 60.6482 8.88294 61.7428V65.7854C8.88294 66.8215 8.8197 67.5123 8.69808 67.8626C8.5716 68.2128 8.35756 68.4853 8.04622 68.6847C7.73487 68.8793 7.35056 69.0155 6.89328 69.0982C6.44086 69.176 5.75008 69.215 4.83551 69.215H0V57.6759ZM3.84798 59.6461V67.2448C4.39282 67.2448 4.72849 67.1572 4.85497 66.9869C4.98145 66.8118 5.04469 66.3399 5.04469 65.5713V61.0812C5.04469 60.5607 5.02037 60.225 4.98145 60.0742C4.93767 59.9283 4.84524 59.8212 4.69444 59.7531C4.54363 59.685 4.26634 59.651 3.85284 59.651L3.84798 59.6461ZM16.9438 57.6759L19.1426 69.215H15.2168L15.0076 67.1426H13.6212L13.412 69.215H9.43752L11.3834 57.6759H16.9438ZM14.9054 65.0994C14.7206 63.7908 14.5309 62.1709 14.3217 60.2396C13.9422 62.4579 13.7039 64.0779 13.6017 65.0994H14.9054ZM28.9596 57.6759L26.7656 62.886L29.1639 69.215H25.204L23.6473 64.2676V69.215H19.7993V57.6759H23.6473V62.1612L25.3743 57.6759H28.9596ZM38.2365 64.4378C38.2365 65.5956 38.2025 66.4178 38.1295 66.8994C38.0614 67.381 37.8425 67.8237 37.4777 68.2226C37.1128 68.6215 36.6117 68.928 35.9891 69.142C35.3615 69.3561 34.6367 69.4631 33.8048 69.4631C32.9729 69.4631 32.3065 69.3609 31.6789 69.1615C31.0514 68.962 30.5455 68.6604 30.166 68.2566C29.7817 67.8529 29.5579 67.415 29.4801 66.9383C29.4071 66.4616 29.3731 65.6297 29.3731 64.4427V62.4676C29.3731 61.3098 29.4071 60.4877 29.4801 60.0061C29.5482 59.5245 29.7671 59.0818 30.132 58.6829C30.5017 58.284 30.9979 57.9775 31.6206 57.7635C32.2481 57.5494 32.9729 57.4424 33.8048 57.4424C34.6367 57.4424 35.3031 57.5446 35.9307 57.744C36.5582 57.9435 37.0642 58.2451 37.4436 58.6488C37.8279 59.0526 38.0517 59.4904 38.1295 59.9672C38.2025 60.4439 38.2365 61.2758 38.2365 62.4628V64.4378ZM34.3886 60.6482C34.3886 60.1131 34.3497 59.7726 34.2767 59.6218C34.2037 59.4758 34.048 59.398 33.8194 59.398C33.6248 59.398 33.474 59.4564 33.367 59.578C33.2648 59.6948 33.2113 60.0547 33.2113 60.6482V66.0335C33.2113 66.6999 33.2454 67.1134 33.3135 67.2691C33.3816 67.4248 33.5421 67.5026 33.7902 67.5026C34.0383 67.5026 34.2086 67.4102 34.2815 67.235C34.3545 67.055 34.3886 66.627 34.3886 65.9459V60.6434V60.6482ZM47.4065 57.6759V59.9818H45.1493V69.215H41.3013V59.9818H39.0246V57.6759H47.4065ZM48.6032 57.6759L46.6573 69.215H50.6318L50.841 67.1426H52.2274L52.4366 69.215H56.3624L54.1636 57.6759H48.6032ZM52.1204 65.0994H50.8167C50.9188 64.0779 51.1572 62.4579 51.5366 60.2396C51.741 62.1709 51.9355 63.7908 52.1204 65.0994Z" fill="#131085"/>
<path fill-rule="evenodd" clip-rule="evenodd" d="M35.2545 73.997V74.4688C34.4372 75.3785 33.6929 76.1228 33.0119 76.7115C32.3308 77.305 31.6643 77.7574 31.0125 78.0736C30.3606 78.3898 29.733 78.5503 29.125 78.5503C28.5996 78.5503 28.152 78.4482 27.7726 78.239C27.398 78.0298 27.1158 77.7233 26.9213 77.3244C26.7315 76.9255 26.6342 76.4488 26.6342 75.8991C26.6342 75.4661 26.7023 75.0088 26.8386 74.5272C26.9796 74.0408 27.1791 73.5543 27.4418 73.063C27.7045 72.5668 28.0255 72.0608 28.405 71.5354C28.7893 71.01 29.2369 70.4603 29.7476 69.8814C30.2828 69.2831 30.8081 68.7723 31.3287 68.3345C31.8492 67.9015 32.3162 67.561 32.7394 67.308C33.1627 67.0599 33.5567 66.8751 33.9167 66.7534C34.2815 66.6318 34.5783 66.5734 34.8167 66.5734C35.055 66.5734 35.2691 66.6318 35.4345 66.7486C35.6047 66.8653 35.7361 67.0356 35.8285 67.2594C35.921 67.4783 35.9696 67.741 35.9696 68.028C35.9696 68.5777 35.7847 69.1906 35.4102 69.862C35.0356 70.5333 34.5734 71.1852 34.014 71.8127C33.4594 72.4403 32.9243 72.9511 32.4135 73.3451C31.9076 73.7391 31.5427 73.9386 31.3189 73.9386C31.1681 73.9386 31.0271 73.8802 30.9006 73.7586C30.7741 73.637 30.7109 73.5056 30.7109 73.3548C30.7109 73.0775 30.8568 72.7419 31.1487 72.3527C31.4406 71.9587 31.7616 71.5987 32.107 71.2679C32.4573 70.9419 32.6616 70.7765 32.7297 70.7765C32.7638 70.7765 32.7832 70.7911 32.7832 70.8203C32.7832 70.8641 32.7589 70.9419 32.7054 71.0441C32.6567 71.1511 32.6275 71.2192 32.6275 71.2435C32.6275 71.2825 32.6421 71.3019 32.6713 71.3019C32.754 71.3019 32.9924 71.083 33.3864 70.6403C33.7805 70.1976 34.1405 69.7112 34.4664 69.1809C34.7923 68.6507 34.9577 68.2128 34.9577 67.8772C34.9577 67.7361 34.9285 67.6291 34.8653 67.5512C34.8069 67.4783 34.7145 67.4394 34.5929 67.4394C34.2524 67.4394 33.7367 67.7166 33.0459 68.2664C32.3551 68.8161 31.6449 69.5214 30.92 70.3728C30.1952 71.2241 29.592 72.1046 29.1055 73.0094C28.619 73.9191 28.3758 74.7169 28.3758 75.4077C28.3758 75.8066 28.4342 76.1374 28.5558 76.405C28.6774 76.6726 28.8477 76.8817 29.0763 77.0228C29.3098 77.1688 29.5871 77.2417 29.913 77.2417C30.6184 77.2417 31.4162 76.9693 32.3065 76.4196C33.1967 75.8747 34.1794 75.0672 35.2496 73.997H35.2545ZM36.0426 72.7176C35.7653 72.9802 35.5658 73.1894 35.4393 73.35C35.3129 73.5105 35.2302 73.6662 35.1815 73.8218C35.1377 73.9726 35.1183 74.1672 35.1183 74.3959C35.1183 74.7072 35.1815 75.0137 35.3031 75.3104C35.4296 75.6023 35.5707 75.8407 35.7264 76.0304C35.8869 76.2153 36.0182 76.3077 36.1253 76.3077C36.349 76.3077 36.6312 76.1423 36.9766 75.8115C37.322 75.4807 37.8474 74.9213 38.5576 74.1332C38.2803 74.8629 38.1393 75.4175 38.1393 75.7969C38.1393 76.0401 38.1782 76.2201 38.2609 76.3466C38.3436 76.4731 38.4749 76.5315 38.6695 76.5315C39.1998 76.5315 40.0803 75.8504 41.3062 74.4883V74.0456C40.5813 74.6829 40.0511 74.9991 39.7105 74.9991C39.37 74.9991 39.2144 74.8191 39.2144 74.4591C39.2144 74.2402 39.263 74.0553 39.3554 73.9045C39.4479 73.7537 39.6181 73.5202 39.8516 73.1992C40.09 72.883 40.2068 72.664 40.2068 72.5473C40.2068 72.4889 40.1922 72.4208 40.163 72.3478C40.1338 72.2749 40.0949 72.1727 40.0365 72.056C39.983 71.9343 39.9392 71.837 39.9051 71.7543C40.0754 71.696 40.197 71.6473 40.2651 71.6035C40.3332 71.5646 40.3673 71.5014 40.3673 71.4138C40.3673 71.3603 40.343 71.2776 40.2895 71.1657C40.2408 71.0538 40.1678 70.9565 40.0851 70.869C39.9976 70.7863 39.9003 70.7425 39.7981 70.7425C39.4187 70.7425 38.8836 70.903 38.1879 71.229C37.4922 71.5549 36.7771 72.0511 36.0377 72.7224L36.0426 72.7176ZM39.5306 71.9149C38.9371 72.7467 38.4311 73.4035 38.0079 73.8851C37.5847 74.3716 37.1177 74.7607 36.6069 75.0623C36.4707 75.1304 36.3782 75.1645 36.3247 75.1645C36.2323 75.1645 36.1593 75.1159 36.1058 75.0137C36.0523 74.9164 36.028 74.7851 36.028 74.6294C36.028 74.2013 36.2955 73.7878 36.8355 73.3792C37.3706 72.9754 38.2706 72.4889 39.5354 71.91L39.5306 71.9149ZM41.1651 74.5856V74.1089C41.4278 73.7975 41.6272 73.5348 41.7635 73.3159C41.6078 73.2624 41.4959 73.1992 41.4278 73.1165C41.3548 73.0386 41.3208 72.9219 41.3208 72.7662C41.3208 72.5911 41.3937 72.3673 41.5397 72.1046C41.6856 71.837 41.8656 71.5841 42.0797 71.3506C42.2937 71.1171 42.4883 70.9663 42.6634 70.8982C42.7315 70.8641 42.7996 70.8495 42.8629 70.8495C42.9602 70.8495 43.0088 70.8933 43.0088 70.9906C43.0088 71.0733 42.931 71.2387 42.7802 71.4917C43.7823 71.336 44.4147 71.2581 44.6774 71.2581C44.7796 71.2581 44.8477 71.2679 44.8866 71.2873C44.9693 71.3311 45.0374 71.4333 45.0909 71.5938C45.1444 71.7543 45.1687 71.9149 45.1687 72.0754C45.1687 72.1776 45.125 72.2846 45.0325 72.4062C44.945 72.5278 44.7893 72.6981 44.5704 72.9267C44.3126 73.204 44.0985 73.5056 43.9234 73.8316C43.7483 74.1575 43.6607 74.4056 43.6607 74.5661C43.6607 74.7948 43.8018 74.9067 44.0839 74.9067C44.3807 74.9067 44.8963 74.6051 45.626 74.0018V74.4932C45.2223 74.9115 44.8866 75.2472 44.6288 75.4856C44.3661 75.7288 44.1228 75.9185 43.8991 76.0645C43.6753 76.2055 43.4758 76.2785 43.3007 76.2785C43.0964 76.2785 42.9261 76.1861 42.7899 75.9964C42.6537 75.8115 42.5856 75.5391 42.5856 75.184C42.5856 74.9748 42.6391 74.7364 42.7461 74.4688C42.8531 74.2013 43.0088 73.9143 43.218 73.5981C43.4223 73.2867 43.6558 72.9705 43.9137 72.6592C43.7774 72.6884 43.6266 72.7176 43.4515 72.7516C43.2812 72.7857 43.1012 72.8148 42.9115 72.8489C42.7218 72.883 42.5759 72.9073 42.4737 72.9267C42.1721 73.53 41.7343 74.0797 41.1651 74.5661V74.5856ZM51.3858 74.5078V74.0359L49.6199 75.3202C50.0821 74.3521 50.4032 73.6564 50.5832 73.2332C50.7583 72.81 50.8507 72.484 50.8507 72.2603C50.8507 72.1435 50.8215 72.056 50.7583 71.9927C50.6999 71.9295 50.6172 71.9003 50.5199 71.9003C50.3496 71.9003 50.1599 72.0024 49.9507 72.2165C49.7416 72.4257 49.474 72.737 49.1481 73.1359C48.827 73.5348 48.5643 73.8267 48.3746 74.0067C47.9465 74.4007 47.6254 74.6732 47.4065 74.8288C47.1876 74.9845 46.993 75.0623 46.8227 75.0623C46.7206 75.0623 46.6379 75.0234 46.5746 74.9456C46.5114 74.8678 46.4822 74.7656 46.4822 74.6342C46.4822 74.3667 46.6087 74.0651 46.8568 73.7391C47.1049 73.4083 47.4357 73.0921 47.8395 72.7954C48.2432 72.4986 48.6519 72.2651 49.0654 72.0851C49.7416 71.7835 50.0772 71.4722 50.0772 71.1609C50.0772 70.9322 49.9216 70.8203 49.6102 70.8203C49.1919 70.8203 48.6081 71.0538 47.8541 71.5257C47.4552 71.7689 47.1098 72.017 46.813 72.2749C46.5163 72.5278 46.273 72.7759 46.0833 73.0192C45.8936 73.2624 45.7525 73.491 45.6601 73.7051C45.5725 73.9191 45.5239 74.1235 45.5239 74.318C45.5239 74.7364 45.626 75.145 45.8352 75.5391C46.0444 75.9331 46.2682 76.1326 46.5211 76.1326C46.7498 76.1326 47.0076 76.0499 47.2898 75.8796C47.5719 75.7093 47.8832 75.471 48.2238 75.1596C48.5643 74.8483 48.9632 74.4494 49.4156 73.9629C49.2016 74.4883 48.8562 75.2423 48.3697 76.2347C48.2724 76.3174 48.0924 76.4682 47.8249 76.6871C47.5573 76.9061 47.3433 77.0909 47.1827 77.2369C47.0222 77.3877 46.8471 77.5628 46.6671 77.7671C46.4871 77.9714 46.3265 78.1806 46.1855 78.3947C45.8303 78.9346 45.6552 79.3822 45.6552 79.7325C45.6552 79.9124 45.7282 80 45.8741 80C46.1465 80 46.56 79.7081 47.1146 79.1292C47.6741 78.5503 48.2919 77.6747 48.9729 76.4974L51.3956 74.5078H51.3858ZM56.0122 74.4932C55.6911 74.7851 55.4333 74.9796 55.2435 75.0769C55.0489 75.1742 54.7717 75.2131 54.4068 75.1888C53.7793 75.938 53.2198 76.3126 52.7431 76.3126C52.4707 76.3126 52.2226 76.225 51.9988 76.045C51.775 75.865 51.595 75.6218 51.4637 75.3104C51.3275 74.9991 51.2642 74.6537 51.2642 74.2694C51.2642 73.9581 51.3664 73.6127 51.5707 73.2332C51.775 72.8538 52.0474 72.5035 52.3734 72.1727C52.6993 71.8468 53.0496 71.5792 53.4241 71.3798C53.7987 71.1803 54.1441 71.0781 54.4652 71.0781C54.6938 71.0781 54.8738 71.1122 55.0052 71.1803C55.1365 71.2533 55.1998 71.3506 55.1998 71.4771C55.1998 71.5743 55.1462 71.6862 55.0344 71.8127C55.2192 71.8516 55.3457 71.9149 55.4138 72.0024C55.4819 72.09 55.516 72.2554 55.516 72.4938C55.516 72.7322 55.4625 73.0192 55.3506 73.3743C55.2435 73.7294 55.0927 74.0602 54.903 74.3716L55.0344 74.5029H55.1414C55.2241 74.5029 55.3068 74.4786 55.3846 74.4397C55.4625 74.3959 55.5354 74.357 55.5987 74.3083C55.6619 74.2645 55.7981 74.1575 56.0122 74.0018V74.4932ZM54.5138 72.0949C54.1101 72.3381 53.7695 72.557 53.4777 72.7516C53.1906 72.9462 52.9523 73.1457 52.7479 73.35C52.5485 73.5494 52.4172 73.7537 52.349 73.9581C52.2274 74.498 52.169 74.7948 52.169 74.8386C52.169 75.1596 52.3928 75.3202 52.8404 75.3202C53.0496 75.3202 53.395 75.1402 53.8912 74.785C53.8085 74.5564 53.7647 74.3375 53.7647 74.1283C53.7647 73.8218 53.8279 73.5105 53.9544 73.1943C54.0809 72.8781 54.2657 72.5132 54.5138 72.0997V72.0949Z" fill="#FF0000"/>
</g>
<defs>
<clipPath id="clip0_1801_11294">
<rect width="56.3624" height="80" fill="white"/>
</clipPath>
</defs>
</svg>
