<svg width="80" height="25" viewBox="0 0 80 25" fill="none" xmlns="http://www.w3.org/2000/svg">
<g clip-path="url(#clip0_1801_11159)">
<path d="M79.9997 0V17.6546H0V0H79.9997Z" fill="#FFCC00"/>
<path d="M14.0688 3.17034L11.5128 6.64281C11.5128 6.64281 24.7632 6.64281 25.4429 6.64281C26.147 6.64281 26.1377 6.91035 25.7936 7.37658C25.444 7.84987 24.8591 8.67297 24.5031 9.15374C24.3225 9.39772 23.9958 9.84222 25.0783 9.84222C26.2227 9.84222 30.7748 9.84222 30.7748 9.84222C30.7748 9.84222 31.693 8.59268 32.4625 7.54818C33.5097 6.12733 32.5534 3.17048 28.8101 3.17048C25.4597 3.17034 14.0688 3.17034 14.0688 3.17034Z" fill="#D2002E"/>
<path d="M10.4786 14.4832L15.6124 7.50782C15.6124 7.50782 21.3035 7.50782 21.983 7.50782C22.6871 7.50782 22.678 7.77537 22.3338 8.2416C21.9843 8.71488 21.3898 9.52923 21.0337 10.01C20.853 10.254 20.5264 10.6992 21.6088 10.6992C22.7533 10.6992 30.1435 10.6992 30.1435 10.6992C29.4337 11.6716 27.1313 14.4832 22.9972 14.4832C19.6468 14.4832 10.4786 14.4832 10.4786 14.4832Z" fill="#D2002E"/>
<path d="M39.8798 10.6982L37.0959 14.4831H29.7522C29.7522 14.4831 32.5346 10.699 32.537 10.699L39.8798 10.6982Z" fill="#D2002E"/>
<path d="M51.1301 9.84222H33.1679L38.0798 3.17034H45.4214L42.606 6.99601H45.883L48.6996 3.17034H56.0403L51.1301 9.84222Z" fill="#D2002E"/>
<path d="M50.4996 10.6992L47.7144 14.4832H40.3734C40.3734 14.4832 43.1558 10.6992 43.1582 10.6992H50.4996Z" fill="#D2002E"/>
<path d="M0 12.1913H10.8187L10.2277 12.9952H0V12.1913Z" fill="#D2002E"/>
<path d="M0 10.6992H11.9178L11.3257 11.502H0V10.6992Z" fill="#D2002E"/>
<path d="M0 13.6843H9.72016L9.13201 14.4832H0V13.6843Z" fill="#D2002E"/>
<path d="M79.9999 12.9952H69.223L69.8143 12.1914H79.9999V12.9952Z" fill="#D2002E"/>
<path d="M80 14.4832L68.1273 14.4844L68.7155 13.6843H80V14.4832Z" fill="#D2002E"/>
<path d="M70.912 10.6992H80V11.5024L70.3213 11.5031L70.912 10.6992Z" fill="#D2002E"/>
<path d="M66.2077 3.17034L61.2964 9.84208H53.5173C53.5173 9.84208 58.4296 3.17034 58.432 3.17034H66.2077Z" fill="#D2002E"/>
<path d="M52.8877 10.6992C52.8877 10.6992 52.351 11.4325 52.0904 11.785C51.1682 13.0313 51.9834 14.4832 54.9928 14.4832C58.4681 14.4832 66.7829 14.4832 66.7829 14.4832L69.5679 10.6992H52.8877Z" fill="#D2002E"/>
<path d="M0 20.5248H80V20.9247H0V20.5248Z" fill="#FFCC00"/>
<path d="M0 22.391H80V22.7909H0V22.391Z" fill="#FFCC00"/>
<path d="M0 24.2567H80V24.6566H0V24.2567Z" fill="#FFCC00"/>
<path d="M26.8635 24.6566H29.2711L29.6554 24.1358H27.8637L28.8684 22.7744H30.5L30.8844 22.2534H29.2528L30.1437 21.046H31.9356L32.32 20.525H29.9125L26.8635 24.6566Z" fill="#D2002E"/>
<path d="M29.8181 24.6566H30.557L33.0754 22.9046L33.0507 24.6566H33.8265L33.8323 22.4962L36.7338 20.525H36.032L33.7223 22.1114L33.7475 20.525H33.0087L32.9862 22.5081L29.8181 24.6566Z" fill="#D2002E"/>
<path fill-rule="evenodd" clip-rule="evenodd" d="M37.6659 21.046H38.1893C38.5711 21.046 38.9977 21.2354 38.6133 21.7562C38.2115 22.3008 37.5958 22.4844 37.2139 22.4844H36.6043L37.6659 21.046ZM34.3856 24.6566H35.0013L36.2199 23.0052H36.8233C37.5992 23.0052 38.5844 22.6797 39.2615 21.7622C39.956 20.821 39.4417 20.5249 38.5613 20.5249H37.4345L34.3856 24.6566Z" fill="#D2002E"/>
<path fill-rule="evenodd" clip-rule="evenodd" d="M37.9313 24.6566H38.5471L39.9012 22.8216H40.2707C40.5969 22.8216 40.8003 22.8216 40.6942 23.2241L40.2959 24.6566H40.998L41.3994 23.011C41.4519 22.7566 41.4251 22.6678 41.2865 22.5967L41.2953 22.5848C41.8554 22.5019 42.5052 22.1468 42.8766 21.6436C43.606 20.6553 42.8832 20.5249 42.0334 20.5249H40.9805L37.9313 24.6566ZM41.2117 21.046H41.8027C42.3693 21.046 42.4901 21.2828 42.2149 21.6556C41.9222 22.0523 41.3941 22.3008 40.809 22.3008H40.2856L41.2117 21.046Z" fill="#D2002E"/>
<path d="M41.6355 24.6566H44.043L44.4274 24.1358H42.6357L43.6403 22.7744H45.2719L45.6563 22.2534H44.0247L44.9158 21.046H46.7075L47.092 20.525H44.6845L41.6355 24.6566Z" fill="#D2002E"/>
<path d="M50.0576 20.6019C49.8363 20.5013 49.5325 20.4539 49.2493 20.4539C48.4735 20.4539 47.5818 20.8448 47.0401 21.5787C46.0922 22.8631 48.1273 22.6087 47.4458 23.532C47.0876 24.0173 46.4552 24.2069 46.1044 24.2069C45.7902 24.2069 45.5082 24.0884 45.36 24.0054L44.8924 24.556C45.11 24.6448 45.3445 24.7277 45.6462 24.7277C46.5081 24.7277 47.474 24.3782 48.1248 23.4963C49.1295 22.1351 47.1468 22.3183 47.7322 21.5254C48.0511 21.0933 48.5449 20.9748 48.8896 20.9748C49.2099 20.9748 49.3429 21.0282 49.5695 21.1465L50.0576 20.6019Z" fill="#D2002E"/>
<path d="M53.1365 20.6019C52.9151 20.5013 52.6115 20.4539 52.3281 20.4539C51.5523 20.4539 50.6606 20.8448 50.119 21.5787C49.171 22.8631 51.2061 22.6087 50.5247 23.532C50.1666 24.0173 49.5341 24.2069 49.1832 24.2069C48.869 24.2069 48.587 24.0884 48.4389 24.0054L47.9712 24.556C48.1889 24.6448 48.4233 24.7278 48.725 24.7278C49.587 24.7278 50.5528 24.3782 51.2036 23.4963C52.2083 22.1351 50.2257 22.3183 50.811 21.5254C51.1299 21.0933 51.6237 20.9748 51.9684 20.9748C52.2887 20.9748 52.4218 21.0282 52.6483 21.1465L53.1365 20.6019Z" fill="#D2002E"/>
</g>
<defs>
<clipPath id="clip0_1801_11159">
<rect width="80" height="24.7278" fill="white"/>
</clipPath>
</defs>
</svg>
