<svg width="80" height="16" viewBox="0 0 80 16" fill="none" xmlns="http://www.w3.org/2000/svg">
<g clip-path="url(#clip0_1801_11275)">
<path fill-rule="evenodd" clip-rule="evenodd" d="M22.9903 15.1526L15.3844 15.0392L19.5326 0H27.3112L26.157 3.97558H22.5267L22.0088 5.82033H25.5256L24.6032 9.27801H21.0864L20.5093 11.3546H24.0261L22.9903 15.1575V15.1526ZM28.9241 15.3252L31.0007 6.04723L30.828 15.3252H32.5002L36.821 6.51088L34.5175 15.2118H38.4339L42.3454 0.113447H37.2748L33.9898 6.51088L33.9306 0H29.0918L25.0472 15.271L28.9192 15.3252H28.9241ZM48.4814 3.47247H47.0707L46.321 6.00777H49.2607L51.1055 7.5911L49.6948 13.1204L46.7846 15.1082H42.8978L40.7374 13.1204L41.3984 10.6147H44.9152L44.856 11.5075H46.4394L47.0707 8.9426H43.5835L42.1728 7.41353L43.7857 2.05685L46.2963 0.0739873H50.3854L52.4866 2.09137L51.9983 4.51323H48.3384L48.4814 3.4774V3.47247Z" fill="#05319E"/>
<path fill-rule="evenodd" clip-rule="evenodd" d="M79.8323 6.94987L53.552 6.99427L53.9515 5.47999H79.8668L79.8323 6.94987ZM54.2721 4.27153L54.6371 2.89044H79.926L79.8915 4.27153H54.2672H54.2721ZM54.9578 1.67705L55.3968 0.0197299H80L79.9605 1.67705H54.9578ZM13.1944 15.2463L13.663 13.446H11.6308L13.1944 15.2463ZM13.9836 12.2375L14.3535 10.8268H9.36186L10.5851 12.2375H13.9836ZM14.6692 9.61835L15.0539 8.14847H7.03373L8.30631 9.61835H14.6692ZM15.3696 6.94001L15.7396 5.52932H4.75985L5.98311 6.94001H15.3696ZM16.0552 4.32086L16.4252 2.91017H2.48597L3.70923 4.32086H16.0552ZM16.7409 1.70171L17.1749 0.0443924H0L1.43535 1.70171H16.7409Z" fill="#F48400"/>
</g>
<defs>
<clipPath id="clip0_1801_11275">
<rect width="80" height="15.3252" fill="white"/>
</clipPath>
</defs>
</svg>
