<svg width="80" height="46" viewBox="0 0 80 46" fill="none" xmlns="http://www.w3.org/2000/svg">
<g clip-path="url(#clip0_1801_11431)">
<path fill-rule="evenodd" clip-rule="evenodd" d="M1.94001 34.5229L4.55412 24.9274H11.9193L11.4836 26.5353H6.16201L5.57072 28.7086H10.7108L10.2751 30.3164H5.13504L4.42964 32.915H10.1247L9.69416 34.5229H1.94001ZM18.6361 32.583L16.7377 34.5229H14.3518L17.8581 30.9596L16.2398 27.5675H18.3041L19.2377 29.5229L21.1516 27.5675H23.5375L20.0106 31.1774L21.6288 34.5229H19.5645L18.6361 32.583ZM28.8176 27.5675H30.69L30.4877 28.2781C30.9079 27.9513 31.2865 27.7283 31.6288 27.6038C31.9659 27.4793 32.3238 27.4171 32.6869 27.4171C33.4182 27.4171 33.994 27.666 34.4141 28.1588C34.8394 28.6567 35.0209 29.4036 34.9639 30.3994C34.8913 31.6702 34.4348 32.7386 33.5842 33.5996C32.884 34.3102 32.0904 34.6629 31.1983 34.6629C30.3062 34.6629 29.5852 34.2947 29.1444 33.553L28.1485 37.1733H26.1931L28.8124 27.5623L28.8176 27.5675ZM29.7875 31.5613C29.7564 32.1059 29.8653 32.526 30.1195 32.8216C30.3684 33.1173 30.6693 33.2677 31.0168 33.2677C31.2969 33.2677 31.5821 33.1743 31.8622 32.9824C32.1423 32.7905 32.412 32.443 32.661 31.9347C32.9099 31.4264 33.05 30.9025 33.0811 30.3631C33.1122 29.8445 33.0033 29.4503 32.7699 29.1754C32.5313 28.9005 32.2305 28.7656 31.857 28.7656C31.5614 28.7656 31.2761 28.859 30.9908 29.0457C30.7056 29.2324 30.441 29.5696 30.2025 30.0571C29.9587 30.5447 29.8238 31.0478 29.7927 31.5664L29.7875 31.5613ZM43.1537 27.5675L42.7854 28.916C43.5168 27.9202 44.2792 27.4171 45.0728 27.4171C45.3477 27.4171 45.6433 27.4793 45.9649 27.6142L45.135 29.1598C44.9587 29.0976 44.7771 29.0664 44.5801 29.0664C44.274 29.0664 43.9888 29.1442 43.7087 29.3102C43.2937 29.5592 42.9618 29.8859 42.7232 30.2853C42.4846 30.6847 42.2357 31.3745 41.966 32.3496L41.3539 34.5229H39.3985L41.2969 27.5675H43.1537ZM56.1776 31.6287H51.302L51.2917 31.805C51.2657 32.2667 51.385 32.6401 51.6392 32.915C51.8985 33.1899 52.2201 33.3299 52.6039 33.3299C53.2419 33.3299 53.7606 33.0084 54.1651 32.3652L55.8923 32.6453C55.5137 33.3196 55.0313 33.8279 54.4452 34.165C53.8591 34.5021 53.2108 34.6681 52.5106 34.6681C51.5769 34.6681 50.8145 34.3776 50.2232 33.8019C49.6371 33.221 49.3726 32.443 49.4296 31.4523C49.4919 30.3891 49.8964 29.4451 50.6433 28.6359C51.3954 27.8268 52.4016 27.4171 53.6672 27.4171C54.523 27.4171 55.1973 27.6764 55.7004 28.1847C56.2035 28.6982 56.4265 29.4347 56.3747 30.4046C56.3487 30.861 56.2813 31.2708 56.1724 31.6287H56.1776ZM54.5904 30.4876L54.6112 30.3061C54.6423 29.7822 54.5437 29.388 54.3103 29.1391C54.0821 28.8849 53.7709 28.7604 53.3819 28.7604C52.9929 28.7604 52.6195 28.9057 52.2823 29.1961C51.9452 29.4866 51.7066 29.9171 51.5666 30.4876H54.5904ZM60.6745 32.5675L62.5676 32.2718C62.7128 32.666 62.9047 32.9409 63.1537 33.0965C63.3975 33.2521 63.7294 33.3299 64.1496 33.3299C64.5697 33.3299 64.8861 33.2521 65.1454 33.1017C65.3996 32.9513 65.5344 32.7698 65.55 32.5623C65.5552 32.4223 65.5085 32.303 65.4099 32.2096C65.3062 32.1162 65.0469 32.0073 64.6319 31.8776C63.4857 31.5094 62.7803 31.2189 62.5106 31.0063C62.0852 30.664 61.8881 30.2179 61.9193 29.6629C61.9556 29.0094 62.2771 28.4752 62.884 28.055C63.4908 27.6349 64.3052 27.4223 65.3166 27.4223C67.0334 27.4223 67.9929 28.0291 68.2004 29.2428L66.3902 29.5384C66.2139 28.9835 65.7263 28.7086 64.9379 28.7086C64.5645 28.7086 64.2792 28.7708 64.0769 28.8901C63.8798 29.0094 63.7761 29.165 63.7657 29.3517C63.7554 29.5073 63.828 29.6422 63.9732 29.7511C64.0769 29.8341 64.4504 29.9637 65.0935 30.1505C66.0064 30.415 66.6184 30.6691 66.9245 30.9181C67.3705 31.2812 67.578 31.722 67.552 32.2407C67.5106 32.9409 67.1786 33.527 66.5562 33.9886C65.9286 34.4503 65.1195 34.6837 64.1288 34.6837C62.1786 34.6837 61.0323 33.9835 60.6848 32.5779L60.6745 32.5675ZM72.4639 32.5675L74.357 32.2718C74.5022 32.666 74.6942 32.9409 74.9431 33.0965C75.1869 33.2521 75.5188 33.3299 75.939 33.3299C76.3591 33.3299 76.6755 33.2521 76.9348 33.1017C77.189 32.9513 77.3238 32.7698 77.3394 32.5623C77.3446 32.4223 77.2979 32.303 77.1993 32.2096C77.0956 32.1162 76.8363 32.0073 76.4213 31.8776C75.2751 31.5094 74.5749 31.2189 74.3 31.0063C73.8747 30.664 73.6776 30.2179 73.7087 29.6629C73.745 29.0094 74.0666 28.4752 74.6734 28.055C75.2803 27.6349 76.0946 27.4223 77.106 27.4223C78.8228 27.4223 79.7823 28.0291 79.9898 29.2428L78.1796 29.5384C78.0033 28.9835 77.5157 28.7086 76.7273 28.7086C76.3539 28.7086 76.0686 28.7708 75.8664 28.8901C75.6693 29.0094 75.5655 29.165 75.5552 29.3517C75.5448 29.5073 75.6174 29.6422 75.7626 29.7511C75.8664 29.8341 76.2398 29.9637 76.8829 30.1505C77.7958 30.415 78.4079 30.6691 78.7139 30.9181C79.1599 31.2812 79.3674 31.722 79.3415 32.2407C79.3 32.9409 78.968 33.527 78.3456 33.9886C77.718 34.4503 76.9089 34.6837 75.9182 34.6837C73.968 34.6837 72.8217 33.9835 72.4742 32.5779L72.4639 32.5675Z" fill="#174622"/>
<path fill-rule="evenodd" clip-rule="evenodd" d="M0.0363071 42.0176H1.20332C1.20332 42.0176 1.19813 42.0591 1.19813 42.0851C1.18257 42.2303 1.17739 42.3392 1.17739 42.4015C1.17739 42.7023 1.23963 42.9149 1.35373 43.0394C1.46784 43.1639 1.65456 43.2261 1.90871 43.2261C2.16286 43.2261 2.38589 43.1587 2.54668 43.0342C2.70747 42.9046 2.78527 42.7334 2.78008 42.5207C2.78008 42.2251 2.47925 41.9087 1.89315 41.5664L1.85166 41.5405C1.35373 41.2448 1.02178 40.9958 0.855809 40.7884C0.689834 40.5861 0.60166 40.3527 0.596473 40.0882C0.591286 39.6266 0.757261 39.2739 1.09958 39.0197C1.44191 38.7656 1.92946 38.6411 2.56743 38.6411C3.20539 38.6411 3.64108 38.75 3.96784 38.973C4.29461 39.1961 4.46058 39.5124 4.46577 39.9326C4.46577 39.9792 4.46577 40.0363 4.46577 40.1037C4.46577 40.1712 4.45539 40.249 4.44502 40.3371H3.27282C3.27282 40.2438 3.28319 40.166 3.28319 40.1089C3.28319 40.0519 3.28319 40.0104 3.28319 39.9793C3.28319 39.7666 3.21577 39.611 3.0861 39.5021C2.95643 39.3932 2.7749 39.3413 2.52593 39.3413C2.29253 39.3413 2.10581 39.3932 1.96577 39.5021C1.82054 39.611 1.75311 39.751 1.7583 39.9274C1.7583 40.0674 1.82054 40.1971 1.93465 40.3164C2.04876 40.4409 2.27697 40.6017 2.62448 40.8091C2.66597 40.8351 2.72303 40.8662 2.80083 40.9129C3.63071 41.39 4.04564 41.862 4.05083 42.3288C4.0612 42.8371 3.87448 43.2365 3.49066 43.527C3.10685 43.8174 2.57261 43.9627 1.88278 43.9627C1.27075 43.9627 0.803942 43.8434 0.487552 43.61C0.171162 43.3714 0.0103734 43.0239 0 42.5571C0 42.4637 0 42.3755 0.00518672 42.2873C0.0103734 42.1992 0.0207469 42.111 0.0363071 42.0176ZM6.70124 43.8434H5.54461L6.87759 38.7863H8.02905L7.62967 40.3216C7.79046 40.1971 7.96162 40.1089 8.14315 40.0467C8.32469 39.9844 8.5166 39.9533 8.70851 39.9533C9.01971 39.9533 9.26348 40.0156 9.43465 40.14C9.60581 40.2645 9.69398 40.4409 9.69398 40.6691C9.69398 40.7158 9.69398 40.7728 9.67842 40.8402C9.66805 40.9077 9.64212 41.001 9.611 41.1255L8.9056 43.8382H7.74896L8.4388 41.2033C8.46473 41.1151 8.48029 41.0529 8.48548 41.0114C8.49066 40.9699 8.49585 40.9388 8.49585 40.9077C8.49585 40.8039 8.45954 40.7313 8.38693 40.6743C8.31431 40.6172 8.21577 40.5913 8.08091 40.5913C7.89419 40.5913 7.74378 40.6432 7.62967 40.7521C7.51556 40.861 7.42739 41.0373 7.36514 41.2759L6.69606 43.8382L6.70124 43.8434ZM12.0384 39.5436L12.2303 38.7863H13.3973L13.195 39.5436H12.0332H12.0384ZM10.9077 43.8434L11.8983 40.0674H13.0602L12.0643 43.8434H10.9077ZM16.0062 43.2313C16.1463 43.2313 16.2707 43.195 16.3745 43.1276C16.4782 43.0602 16.5664 42.9564 16.639 42.8216C16.7842 42.5311 16.8932 42.2199 16.9761 41.8932C17.0591 41.5664 17.1006 41.2811 17.0954 41.0477C17.0954 40.8869 17.0591 40.7676 16.9865 40.7002C16.9191 40.6328 16.805 40.5965 16.6494 40.5965C16.4782 40.5965 16.3382 40.6483 16.2241 40.7469C16.11 40.8454 16.0062 41.0218 15.9077 41.2656C15.7936 41.556 15.7054 41.8361 15.6483 42.111C15.5861 42.3807 15.5602 42.6193 15.5654 42.8216C15.5654 42.9512 15.6068 43.0498 15.6846 43.1224C15.7624 43.195 15.8662 43.2313 16.0062 43.2313ZM16.1151 40.0726L16.0166 40.4616C16.1566 40.2801 16.3122 40.1504 16.4834 40.0674C16.6546 39.9844 16.8568 39.9429 17.0851 39.9429C17.4585 39.9429 17.7438 40.0363 17.9305 40.223C18.1172 40.4097 18.2158 40.6898 18.221 41.0633C18.221 41.1566 18.2158 41.2656 18.2002 41.3797C18.1846 41.499 18.1535 41.6649 18.112 41.8776C18.0602 42.1369 17.9979 42.3755 17.9253 42.5882C17.8527 42.8008 17.7749 42.9824 17.6919 43.1276C17.5363 43.4025 17.3444 43.6048 17.1214 43.7396C16.8983 43.8745 16.6338 43.9367 16.3226 43.9367C16.0944 43.9367 15.8973 43.89 15.7365 43.8019C15.5809 43.7137 15.4616 43.5788 15.3838 43.4025L14.9481 45.1297H13.7707L15.1141 40.0726H16.1203H16.1151ZM21.3849 43.2313C21.5249 43.2313 21.6494 43.195 21.7531 43.1276C21.8568 43.0602 21.945 42.9564 22.0176 42.8216C22.1629 42.5311 22.2718 42.2199 22.3548 41.8932C22.4378 41.5664 22.4793 41.2811 22.4741 41.0477C22.4741 40.8869 22.4378 40.7676 22.3651 40.7002C22.2977 40.6328 22.1836 40.5965 22.028 40.5965C21.8568 40.5965 21.7168 40.6483 21.6027 40.7469C21.4886 40.8454 21.3849 41.0218 21.2863 41.2656C21.1722 41.556 21.084 41.8361 21.027 42.111C20.9647 42.3807 20.9388 42.6193 20.944 42.8216C20.944 42.9512 20.9855 43.0498 21.0633 43.1224C21.1411 43.195 21.2448 43.2313 21.3849 43.2313ZM21.4886 40.0726L21.39 40.4616C21.5301 40.2801 21.6857 40.1504 21.8568 40.0674C22.028 39.9844 22.2303 39.9429 22.4585 39.9429C22.8319 39.9429 23.1172 40.0363 23.3039 40.223C23.4907 40.4097 23.5892 40.6898 23.5944 41.0633C23.5944 41.1566 23.5892 41.2656 23.5737 41.3797C23.5581 41.499 23.527 41.6649 23.4855 41.8776C23.4336 42.1369 23.3714 42.3755 23.2988 42.5882C23.2261 42.8008 23.1483 42.9824 23.0654 43.1276C22.9097 43.4025 22.7178 43.6048 22.4948 43.7396C22.2718 43.8745 22.0073 43.9367 21.6961 43.9367C21.4678 43.9367 21.2707 43.89 21.11 43.8019C20.9544 43.7137 20.8351 43.5788 20.7573 43.4025L20.3216 45.1297H19.1442L20.4876 40.0726H21.4938H21.4886ZM25.9855 39.5488L26.1774 38.7915H27.3444L27.1421 39.5488H25.9803H25.9855ZM24.8548 43.8485L25.8454 40.0726H27.0073L26.0114 43.8485H24.8548ZM29.1857 43.8485H28.0239L29.0145 40.0726H30.083L29.9948 40.3942C30.1919 40.249 30.3838 40.14 30.5809 40.0674C30.778 39.9948 30.9803 39.9585 31.1878 39.9585C31.5041 39.9585 31.7479 40.0207 31.9139 40.1452C32.0851 40.2697 32.1732 40.4461 32.1732 40.6743C32.1732 40.721 32.1732 40.778 32.1577 40.8454C32.1473 40.9129 32.1214 41.0062 32.0902 41.1307L31.3849 43.8434H30.2282L30.918 41.2085C30.944 41.1203 30.9595 41.0581 30.9647 41.0166C30.9699 40.9751 30.9751 40.944 30.9751 40.9129C30.9751 40.8091 30.9388 40.7365 30.8662 40.6795C30.7936 40.6224 30.695 40.5965 30.5602 40.5965C30.3734 40.5965 30.223 40.6483 30.1089 40.7573C29.9948 40.8662 29.9066 41.0425 29.8444 41.2811L29.1805 43.8434L29.1857 43.8485ZM36.5819 40.0726H37.7334L36.7324 43.8849C36.5923 44.4035 36.39 44.7458 36.1255 44.917C35.8558 45.0882 35.4253 45.1712 34.8237 45.1712C34.3932 45.1712 34.056 45.0985 33.8019 44.9533C33.5477 44.8081 33.4077 44.6058 33.3714 44.3413H34.4502C34.4502 44.4243 34.4865 44.4865 34.5539 44.528C34.6214 44.5695 34.7303 44.5851 34.8755 44.5851C35.0985 44.5851 35.2697 44.5228 35.3786 44.3932C35.4875 44.2687 35.5861 43.999 35.6743 43.5944C35.5861 43.7137 35.4616 43.8019 35.306 43.8693C35.1452 43.9315 34.9585 43.9678 34.751 43.9678C34.3776 43.9678 34.0975 43.8745 33.9056 43.6929C33.7189 43.5114 33.6203 43.2313 33.6151 42.8579C33.6151 42.7541 33.6151 42.6349 33.6359 42.5052C33.6515 42.3755 33.6774 42.2199 33.7189 42.0384C33.7707 41.7842 33.8382 41.5508 33.9108 41.3382C33.9834 41.1255 34.0664 40.944 34.1494 40.7884C34.305 40.5135 34.4917 40.3112 34.7147 40.1763C34.9378 40.0467 35.2023 39.9793 35.5083 39.9793C35.7365 39.9793 35.9336 40.0259 36.0944 40.1141C36.25 40.2023 36.3693 40.3371 36.4471 40.5135L36.5716 40.0674L36.5819 40.0726ZM35.8402 40.6846C35.7002 40.6846 35.5757 40.721 35.4616 40.7936C35.3527 40.8662 35.2645 40.9647 35.1971 41.0996C35.0571 41.3849 34.9481 41.6961 34.8651 42.0228C34.7822 42.3496 34.7458 42.6349 34.751 42.8734C34.751 43.0394 34.7873 43.1535 34.8548 43.221C34.9222 43.2884 35.0311 43.3247 35.1815 43.3247C35.3216 43.3247 35.4461 43.2884 35.5498 43.2158C35.6587 43.1431 35.7469 43.0342 35.8195 42.889C35.8662 42.8008 35.9129 42.6867 35.9595 42.5519C36.0062 42.417 36.0581 42.2562 36.11 42.0643C36.167 41.862 36.2137 41.6805 36.2396 41.5145C36.2707 41.3537 36.2811 41.2241 36.2811 41.1307C36.2811 40.9855 36.2396 40.8766 36.1618 40.7988C36.084 40.721 35.9803 40.6846 35.8402 40.6846ZM41.0425 43.8434L42.3496 38.7759H43.5581L42.4689 43.0083H44.7199L44.4865 43.8434H41.0373H41.0425ZM46.0114 42.7697C46.0114 42.6608 46.0218 42.5259 46.0477 42.3651C46.0736 42.2044 46.11 42.0176 46.1566 41.8102C46.2448 41.4523 46.3278 41.1774 46.4108 40.9907C46.4938 40.8039 46.5975 40.638 46.7168 40.4927C46.8672 40.3164 47.0695 40.1815 47.3236 40.0882C47.5726 39.9948 47.8631 39.9481 48.195 39.9481C48.7448 39.9481 49.1597 40.0467 49.4346 40.2438C49.7095 40.4409 49.8548 40.7365 49.86 41.1255C49.86 41.25 49.8496 41.3952 49.8288 41.5612C49.8029 41.7272 49.7718 41.9087 49.7199 42.1058C49.6421 42.4066 49.5591 42.6608 49.4606 42.8786C49.3672 43.0913 49.2583 43.2728 49.1338 43.4232C48.9886 43.6048 48.7915 43.7396 48.5373 43.833C48.2832 43.9263 47.9927 43.973 47.6556 43.973C47.111 43.973 46.7012 43.8745 46.4263 43.6774C46.1514 43.4803 46.0114 43.1795 46.0062 42.7749L46.0114 42.7697ZM48.1795 40.5965C48.0031 40.5965 47.8579 40.6432 47.7541 40.7365C47.6504 40.8299 47.5519 41.0062 47.4637 41.2604C47.3496 41.6079 47.2562 41.9243 47.194 42.2095C47.1317 42.4948 47.1006 42.7127 47.1006 42.8475C47.1006 43.0135 47.1473 43.138 47.2355 43.2106C47.3236 43.2884 47.4689 43.3247 47.666 43.3247C47.8475 43.3247 47.9927 43.278 48.0965 43.1846C48.2002 43.0913 48.2988 42.9149 48.3817 42.6608C48.4958 42.3236 48.5892 42.0124 48.6515 41.7272C48.7137 41.4419 48.7448 41.2293 48.7448 41.084C48.7448 40.918 48.6981 40.7936 48.6048 40.7158C48.5166 40.638 48.3714 40.5965 48.1795 40.5965ZM54.3205 40.0726H55.472L54.471 43.8849C54.3309 44.4035 54.1286 44.7458 53.8641 44.917C53.5944 45.0882 53.1639 45.1712 52.5622 45.1712C52.1317 45.1712 51.7946 45.0985 51.5405 44.9533C51.2863 44.8081 51.1463 44.6058 51.11 44.3413H52.1888C52.1888 44.4243 52.2251 44.4865 52.2925 44.528C52.36 44.5695 52.4689 44.5851 52.6141 44.5851C52.8371 44.5851 53.0031 44.5228 53.1172 44.3932C53.2261 44.2687 53.3247 43.999 53.4129 43.5944C53.3247 43.7137 53.2002 43.8019 53.0446 43.8693C52.8838 43.9315 52.6971 43.9678 52.4896 43.9678C52.1162 43.9678 51.8361 43.8745 51.6442 43.6929C51.4575 43.5114 51.3589 43.2313 51.3537 42.8579C51.3537 42.7541 51.3537 42.6349 51.3745 42.5052C51.39 42.3755 51.416 42.2199 51.4575 42.0384C51.5093 41.7842 51.5768 41.5508 51.6494 41.3382C51.722 41.1255 51.805 40.944 51.888 40.7884C52.0436 40.5135 52.2303 40.3112 52.4533 40.1763C52.6763 40.0467 52.9409 39.9793 53.2469 39.9793C53.4751 39.9793 53.6722 40.0259 53.833 40.1141C53.9886 40.2023 54.1079 40.3371 54.1857 40.5135L54.3102 40.0674L54.3205 40.0726ZM53.5788 40.6846C53.4388 40.6846 53.3143 40.721 53.2002 40.7936C53.0913 40.8662 53.0031 40.9647 52.9357 41.0996C52.7956 41.3849 52.6867 41.6961 52.6037 42.0228C52.5207 42.3496 52.4844 42.6349 52.4896 42.8734C52.4896 43.0394 52.5259 43.1535 52.5934 43.221C52.6608 43.2884 52.7697 43.3247 52.9201 43.3247C53.0602 43.3247 53.1846 43.2884 53.2884 43.2158C53.3973 43.1431 53.4855 43.0342 53.5581 42.889C53.6048 42.8008 53.6514 42.6867 53.6981 42.5519C53.7448 42.417 53.7967 42.2562 53.8485 42.0643C53.9056 41.862 53.9523 41.6805 53.9782 41.5145C54.0093 41.3537 54.0197 41.2241 54.0197 41.1307C54.0197 40.9855 53.9782 40.8766 53.9004 40.7988C53.8226 40.721 53.7189 40.6846 53.5788 40.6846ZM57.6349 39.5436L57.8268 38.7863H58.9938L58.7915 39.5436H57.6297H57.6349ZM56.5041 43.8434L57.4948 40.0674H58.6566L57.6608 43.8434H56.5041ZM59.7822 42.5H60.7728C60.7728 42.5363 60.7728 42.5778 60.7728 42.6141C60.7728 42.6504 60.7728 42.7023 60.7728 42.7645C60.7728 42.9512 60.8247 43.0861 60.918 43.1691C61.0114 43.2521 61.1566 43.2936 61.3589 43.2936C61.5456 43.2936 61.6857 43.2573 61.779 43.1846C61.8724 43.112 61.9139 43.0031 61.9139 42.8579C61.9139 42.6763 61.7064 42.4741 61.2967 42.2458L61.2448 42.2147C60.8558 42.0021 60.5913 41.8102 60.4564 41.6442C60.3216 41.4782 60.2541 41.2759 60.249 41.0425C60.2438 40.6846 60.3838 40.4097 60.6639 40.2178C60.944 40.0259 61.3537 39.9326 61.888 39.9326C62.3755 39.9326 62.749 40.0207 63.0083 40.1971C63.2676 40.3734 63.3973 40.6328 63.4025 40.9699C63.4025 40.9751 63.4025 41.0166 63.4025 41.084C63.4025 41.1514 63.4025 41.2085 63.4025 41.2656H62.4014V41.1566C62.3963 40.9232 62.3496 40.7676 62.2666 40.6846C62.1836 40.6017 62.0332 40.5602 61.8205 40.5602C61.6701 40.5602 61.5508 40.5965 61.4627 40.6639C61.3745 40.7313 61.333 40.8299 61.3382 40.9492C61.3382 41.1411 61.5197 41.3278 61.8724 41.5093C61.9658 41.556 62.0384 41.5923 62.0851 41.6183C62.4066 41.7946 62.6452 41.971 62.7905 42.1421C62.9357 42.3185 63.0135 42.5104 63.0187 42.7178C63.0239 43.1068 62.8838 43.4077 62.5882 43.6255C62.2925 43.8382 61.8776 43.9471 61.3382 43.9471C60.7988 43.9471 60.4253 43.8589 60.1608 43.6774C59.8963 43.4958 59.7614 43.2261 59.7562 42.8631C59.7562 42.806 59.7562 42.7438 59.7614 42.6815C59.7666 42.6245 59.777 42.5622 59.7873 42.4948L59.7822 42.5ZM66.9969 38.9834L66.7012 40.0674H67.2147L67.0643 40.638H66.5508L65.9595 42.8942C65.9595 42.8942 65.9544 42.9201 65.9492 42.9305C65.944 42.9668 65.9388 42.9876 65.944 43.0031C65.944 43.0757 65.9751 43.1224 66.0322 43.1535C66.0892 43.1846 66.1929 43.2002 66.333 43.2002H66.4471L66.2656 43.8382C66.1618 43.8537 66.0581 43.8641 65.9647 43.8693C65.8714 43.8745 65.778 43.8797 65.6846 43.8797C65.3838 43.8797 65.1504 43.8278 64.9844 43.7292C64.8185 43.6307 64.7355 43.4855 64.7303 43.2988C64.7303 43.2417 64.7303 43.1691 64.7458 43.0965C64.7562 43.0187 64.777 42.9357 64.8029 42.8423L65.3838 40.638H64.9533L65.0985 40.0674H65.5342L65.8143 38.9834H66.9969ZM69.0871 39.5436L69.279 38.7863H70.4461L70.2438 39.5436H69.0819H69.0871ZM67.9564 43.8434L68.9471 40.0674H70.1089L69.1131 43.8434H67.9564ZM74.7977 42.417C74.7251 42.9512 74.5436 43.3402 74.2427 43.5944C73.9419 43.8434 73.5114 43.9678 72.9461 43.9678C72.417 43.9678 72.0228 43.8745 71.7687 43.6878C71.5145 43.501 71.3849 43.2158 71.3745 42.8268C71.3745 42.7075 71.3848 42.5622 71.4108 42.3911C71.4367 42.2251 71.473 42.028 71.5197 41.8102C71.5975 41.4834 71.6805 41.2189 71.7687 41.0166C71.8517 40.8143 71.9606 40.6432 72.0851 40.4979C72.2407 40.3164 72.4429 40.1815 72.6867 40.0882C72.9357 39.9948 73.2209 39.9481 73.5425 39.9481C74.0405 39.9481 74.4243 40.0415 74.6888 40.223C74.9533 40.4097 75.0882 40.6795 75.0934 41.0373C75.0934 41.0892 75.0934 41.1411 75.0882 41.2033C75.083 41.2656 75.0726 41.333 75.0571 41.4108H73.9471C73.9678 41.3278 73.9782 41.2552 73.9886 41.1929C73.999 41.1307 73.999 41.0788 73.999 41.0322C73.999 40.8921 73.9523 40.7832 73.8641 40.7106C73.7759 40.6328 73.6566 40.5965 73.501 40.5965C73.3351 40.5965 73.2054 40.6432 73.1017 40.7417C72.9979 40.8402 72.9097 41.0062 72.8319 41.25C72.7178 41.5975 72.6348 41.8983 72.5778 42.1629C72.5207 42.4274 72.4948 42.6452 72.4948 42.8164C72.4948 42.9927 72.5363 43.1172 72.6141 43.1898C72.6867 43.2676 72.806 43.3039 72.9668 43.3039C73.1691 43.3039 73.3247 43.2313 73.444 43.0809C73.5581 42.9357 73.6359 42.7075 73.6774 42.4066H74.8029L74.7977 42.417ZM76.3589 42.5052H77.3496C77.3496 42.5415 77.3496 42.583 77.3496 42.6193C77.3496 42.6556 77.3496 42.7075 77.3496 42.7697C77.3496 42.9564 77.4015 43.0913 77.4948 43.1743C77.5882 43.2573 77.7334 43.2988 77.9357 43.2988C78.1224 43.2988 78.2624 43.2624 78.3558 43.1898C78.4492 43.1172 78.4907 43.0083 78.4907 42.8631C78.4907 42.6815 78.2832 42.4792 77.8734 42.251L77.8216 42.2199C77.4326 42.0073 77.1681 41.8154 77.0332 41.6494C76.8983 41.4834 76.8309 41.2811 76.8257 41.0477C76.8205 40.6898 76.9606 40.4149 77.2407 40.223C77.5207 40.0311 77.9305 39.9378 78.4647 39.9378C78.9523 39.9378 79.3257 40.0259 79.5851 40.2023C79.8444 40.3786 79.9741 40.638 79.9792 40.9751C79.9792 40.9803 79.9792 41.0218 79.9792 41.0892C79.9792 41.1566 79.9792 41.2137 79.9792 41.2707H78.9782V41.1618C78.973 40.9284 78.9263 40.7728 78.8434 40.6898C78.7604 40.6068 78.6099 40.5653 78.3973 40.5653C78.2469 40.5653 78.1276 40.6017 78.0394 40.6691C77.9512 40.7365 77.9097 40.8351 77.9149 40.9544C77.9149 41.1463 78.0965 41.333 78.4492 41.5145C78.5425 41.5612 78.6151 41.5975 78.6618 41.6234C78.9834 41.7998 79.222 41.9761 79.3672 42.1473C79.5124 42.3236 79.5902 42.5156 79.5954 42.723C79.6006 43.112 79.4554 43.4129 79.1649 43.6307C78.8693 43.8434 78.4544 43.9523 77.9149 43.9523C77.3755 43.9523 77.0021 43.8641 76.7375 43.6826C76.473 43.501 76.3382 43.2313 76.333 42.8683C76.333 42.8112 76.333 42.749 76.3382 42.6867C76.3434 42.6297 76.3537 42.5674 76.3641 42.5L76.3589 42.5052Z" fill="#174622"/>
<path fill-rule="evenodd" clip-rule="evenodd" d="M50.1763 18.2936L48.8434 23.4855H4.60581L5.93361 18.2936H50.1763Z" fill="#612E7B"/>
<path fill-rule="evenodd" clip-rule="evenodd" d="M49.8236 16.499H6.39523L7.7749 11.1203H51.1826L49.8236 16.499ZM10.6276 0H53.999L51.6338 9.33091H8.23652L10.6276 0Z" fill="#174622"/>
<path fill-rule="evenodd" clip-rule="evenodd" d="M52.7282 1.31743L51.7479 5.7832H40.389L39.668 9.08195H49.6058L48.6411 13.2988H38.7241L38.0135 16.4627H49.3309L48.0757 22.0954H30.8662L35.4512 1.31743H52.7282Z" fill="white"/>
<path fill-rule="evenodd" clip-rule="evenodd" d="M79.7666 17.417L78.5373 22.0954H62.4378L62.889 20.389C62.7075 20.5602 62.5104 20.7158 62.3029 20.8714C60.7365 22.0124 58.527 22.583 55.6795 22.583C52.8319 22.583 50.861 22.1058 49.4969 21.1463C48.1224 20.1867 47.4378 18.7448 47.4378 16.8309C47.4378 16.5145 47.4533 16.1981 47.4948 15.8766V15.8454H52.8268C52.8268 15.9751 52.8268 16.1255 52.8268 16.2915C52.8268 17.2822 53.0705 17.9979 53.5581 18.444C54.0405 18.89 54.8133 19.1183 55.8662 19.1183C56.8568 19.1183 57.5985 18.9263 58.0809 18.5529C58.5737 18.1691 58.8122 17.5985 58.8122 16.8309C58.8122 15.8766 57.7438 14.7977 55.6172 13.5892L55.3423 13.4284C53.2988 12.3029 51.9346 11.2863 51.2396 10.3994C50.5446 9.51245 50.2023 8.44398 50.2023 7.20954C50.2023 5.3112 50.9595 3.85373 52.4637 2.83195C53.9678 1.81017 56.1359 1.30705 58.9523 1.30705C61.5249 1.30705 63.4907 1.77905 64.8392 2.71784C65.9077 3.46473 66.5508 4.47614 66.7739 5.75207L67.9461 1.3278H73.9108L69.6058 17.4274H79.7718L79.7666 17.417ZM64.4191 14.611L66.3848 7.18361H61.499C61.4367 6.28112 61.2241 5.64834 60.8714 5.28008C60.4357 4.83921 59.6525 4.61618 58.5322 4.61618C57.7386 4.61618 57.111 4.8029 56.6442 5.16598C56.1826 5.53423 55.9492 6.03734 55.9492 6.6805C55.9492 7.70747 56.8672 8.69813 58.7085 9.6473C59.2012 9.89108 59.5643 10.0882 59.834 10.223C61.5249 11.1515 62.749 12.0851 63.5062 13.0083C63.9212 13.5166 64.2272 14.0456 64.4139 14.6006L64.4191 14.611Z" fill="#E95525"/>
</g>
<defs>
<clipPath id="clip0_1801_11431">
<rect width="79.9898" height="45.1712" fill="white"/>
</clipPath>
</defs>
</svg>
