<svg width="80" height="37" viewBox="0 0 80 37" fill="none" xmlns="http://www.w3.org/2000/svg">
<g clip-path="url(#clip0_1801_11487)">
<g clip-path="url(#clip1_1801_11487)">
<path fill-rule="evenodd" clip-rule="evenodd" d="M64.5161 8.36218L67.7222 11.8941L70.8074 8.36218H77.3983L70.9599 15.6048L77.4877 22.9052H70.6287L67.4542 19.347L64.3111 22.9052H57.694L64.164 15.6363L57.694 8.36218H64.5161Z" fill="#FF5900"/>
<path fill-rule="evenodd" clip-rule="evenodd" d="M57.694 8.36213V13.2764H50.362V17.786H57.694V22.9052H44.98V0H57.694V5.10348H50.362V8.36213H57.694Z" fill="#FF5900"/>
<path fill-rule="evenodd" clip-rule="evenodd" d="M39.6137 0V9.37126H39.5559C38.368 8.00473 36.8859 7.5317 35.1619 7.5317C31.6352 7.5317 28.981 9.92839 28.0507 13.0977C26.9838 9.60778 24.2454 7.46337 20.1774 7.46337C16.8767 7.46337 14.2698 8.94554 12.9085 11.358V8.35688H6.08107V5.09822H13.5287V0H0V22.9052H6.08633V13.2764H12.1516C11.9729 13.9859 11.8731 14.7428 11.8731 15.5417C11.8731 20.3193 15.5259 23.6726 20.1826 23.6726C24.0983 23.6726 26.6842 21.833 28.0455 18.4797H22.8316C22.1273 19.4889 21.5912 19.7885 20.1826 19.7885C18.5481 19.7885 17.1395 18.3641 17.1395 16.6717H27.7564C28.2189 20.4665 31.1727 23.7409 35.2303 23.7409C36.9805 23.7409 38.5835 22.8789 39.5611 21.4283H39.6189V22.9105H44.98V0H39.6189H39.6137ZM17.3024 13.3447C17.6388 11.8888 18.7688 10.9375 20.1774 10.9375C21.7279 10.9375 22.8001 11.8573 23.0786 13.3447C23.1995 13.3447 17.2972 13.3447 17.2972 13.3447H17.3024ZM36.3603 19.4205C34.3841 19.4205 33.1542 17.5757 33.1542 15.6573C33.1542 13.6023 34.2211 11.626 36.3603 11.626C38.4994 11.626 39.456 13.6023 39.456 15.6573C39.456 17.6073 38.5205 19.4205 36.3603 19.4205Z" fill="#2A007C"/>
<path fill-rule="evenodd" clip-rule="evenodd" d="M44.98 34.3578V26.1481H49.5158V26.763H45.7263V29.7904H49.3529V30.4001H45.7263V33.7428H49.684V34.3578H44.98Z" fill="#2A007C"/>
<path fill-rule="evenodd" clip-rule="evenodd" d="M50.2253 34.3578L52.4381 31.4093L50.341 28.6237H51.1872L52.9006 30.8995L54.5825 28.6237H55.4287L53.3 31.4093L55.518 34.3578H54.6613L52.8218 31.9191L51.0768 34.3578H50.2253Z" fill="#2A007C"/>
<path fill-rule="evenodd" clip-rule="evenodd" d="M56.9582 36.5127H56.2644V30.337C56.2644 29.7694 56.2644 29.1912 56.2276 28.6236H56.9109L56.9319 29.4856C57.3629 28.8023 57.9305 28.4869 58.782 28.4869C60.5479 28.4869 61.3101 29.9481 61.3101 31.4881C61.3101 33.028 60.5532 34.4944 58.782 34.4944C57.9883 34.4944 57.3629 34.1896 56.9582 33.5326V36.5127ZM60.5742 31.4933C60.5742 30.2687 60.0644 29.0651 58.7031 29.0651C57.4207 29.0651 56.9582 30.1215 56.9582 31.4933C56.9582 32.8651 57.4207 33.9215 58.7031 33.9215C60.0644 33.9215 60.5742 32.7179 60.5742 31.4933Z" fill="#2A007C"/>
<path fill-rule="evenodd" clip-rule="evenodd" d="M64.8683 29.1544C63.7225 29.1544 63.323 30.1163 63.323 31.1149V34.3578H62.6293V30.3107C62.6293 29.7536 62.6187 29.1912 62.5977 28.6236H63.281L63.323 29.454C63.6647 28.797 64.2323 28.4922 64.9892 28.4922C65.089 28.4922 65.2046 28.5027 65.3045 28.5132V29.207C65.1468 29.1807 65.0207 29.1597 64.863 29.1597L64.8683 29.1544Z" fill="#2A007C"/>
<path fill-rule="evenodd" clip-rule="evenodd" d="M66.156 31.6142C66.156 32.9072 66.7657 33.9688 68.0271 33.9688C68.9994 33.9688 69.4567 33.3224 69.6249 32.6759H70.2819C69.977 33.8795 69.236 34.4892 67.9325 34.4892C66.1875 34.4892 65.4149 33.1962 65.4149 31.5879C65.4149 29.9796 66.2191 28.4817 68.0218 28.4817C69.8246 28.4817 70.3344 30.0795 70.3344 31.6089H66.156V31.6142ZM66.177 31.0939H69.5986C69.5986 29.9691 69.0678 29.0073 67.9798 29.0073C66.9917 29.0073 66.3137 29.7536 66.177 31.0939Z" fill="#2A007C"/>
<path fill-rule="evenodd" clip-rule="evenodd" d="M73.036 34.4944C71.8586 34.4944 70.9756 33.9373 70.9756 32.6811H71.6694C71.6694 33.5431 72.2371 33.9741 73.0728 33.9741C73.8559 33.9741 74.4656 33.6009 74.4656 32.8336C74.4656 32.1398 73.7508 31.9611 73.0044 31.7456C72.1004 31.4828 71.1123 31.199 71.1123 30.09C71.1123 28.8548 72.1425 28.4922 73.1095 28.4922C74.2185 28.4922 75.049 28.9232 75.0805 30.111H74.3867C74.3552 29.433 73.8664 29.0441 73.1306 29.0441C72.5524 29.0441 71.8481 29.2701 71.8481 30.0164C71.8481 30.6997 72.5524 30.8889 73.2988 31.0939C74.208 31.3409 75.2014 31.6142 75.2014 32.7284C75.2014 34.0214 74.2028 34.4944 73.036 34.4944Z" fill="#2A007C"/>
<path fill-rule="evenodd" clip-rule="evenodd" d="M77.8346 34.4944C76.6573 34.4944 75.769 33.9373 75.769 32.6811H76.4628C76.4628 33.5431 77.0305 33.9741 77.8714 33.9741C78.6545 33.9741 79.2642 33.6009 79.2642 32.8336C79.2642 32.1398 78.5494 31.9611 77.8031 31.7456C76.8991 31.4828 75.9109 31.199 75.9109 30.09C75.9109 28.8548 76.9411 28.4922 77.9082 28.4922C79.0172 28.4922 79.8476 28.9232 79.8791 30.111H79.1854C79.1538 29.433 78.665 29.0441 77.9292 29.0441C77.3511 29.0441 76.6468 29.2701 76.6468 30.0164C76.6468 30.6997 77.3511 30.8889 78.0974 31.0939C79.0067 31.3409 80 31.6142 80 32.7284C80 34.0214 79.0014 34.4944 77.8346 34.4944Z" fill="#2A007C"/>
</g>
</g>
<defs>
<clipPath id="clip0_1801_11487">
<rect width="80" height="36.5127" fill="white"/>
</clipPath>
<clipPath id="clip1_1801_11487">
<rect width="80" height="36.5127" fill="white"/>
</clipPath>
</defs>
</svg>
