<svg width="80" height="22" viewBox="0 0 80 22" fill="none" xmlns="http://www.w3.org/2000/svg">
<g clip-path="url(#clip0_1801_11413)">
<path fill-rule="evenodd" clip-rule="evenodd" d="M3.14003 0.183238H7.12546L6.51744 1.99896H4.89329L4.31026 3.73139H5.75117L5.17231 5.45133H3.73139L2.45289 9.26184H0.0957848L3.14003 0.183238ZM10.0573 0.183238H7.70016L4.65591 9.26184H7.01302L10.0573 0.183238ZM10.9984 0.183238H12.6642C13.7762 0.183238 14.5133 0.224883 14.8756 0.312337C15.2379 0.399792 15.4878 0.62051 15.6169 0.970328C15.746 1.32431 15.6835 1.88652 15.4211 2.66111C15.1838 3.36908 14.9381 3.83967 14.6799 4.08537C14.4258 4.32691 14.0302 4.47267 13.5013 4.52264C13.9261 4.63925 14.1926 4.79334 14.2842 4.98907C14.38 5.18063 14.4175 5.36387 14.4008 5.52629C14.3883 5.6887 14.2551 6.13847 14.0094 6.87142L13.2056 9.27017H11.0193L12.0312 6.25091C12.1937 5.76366 12.2561 5.46382 12.2186 5.34722C12.1853 5.23061 12.0062 5.17231 11.6814 5.17231L10.3071 9.27017H7.95003L10.9984 0.183238ZM12.8391 1.73243L12.1603 3.75221C12.4227 3.75221 12.6184 3.71473 12.7475 3.64394C12.8766 3.57314 13.0099 3.33576 13.1432 2.93597L13.3097 2.43623C13.4055 2.14888 13.418 1.95731 13.3472 1.86986C13.2764 1.77824 13.1057 1.7366 12.835 1.7366L12.8391 1.73243ZM21.2223 2.93597L21.3431 2.57782C21.5846 1.85737 21.6845 1.34513 21.6471 1.04529C21.6096 0.741281 21.4097 0.495575 21.0474 0.295679C20.6809 0.0999479 20.1978 0 19.5856 0C19.0276 0 18.5195 0.0916189 18.0656 0.270692C17.6117 0.45393 17.241 0.7038 16.9578 1.02447C16.6747 1.34513 16.4123 1.8532 16.1832 2.54867C16.0208 3.03175 15.95 3.42738 15.9708 3.73555C15.9917 4.04373 16.0666 4.28943 16.1957 4.46434C16.329 4.63925 16.6163 4.92244 17.0703 5.3139C17.5242 5.7012 17.7991 5.97605 17.8948 6.13847C17.9865 6.30089 17.9407 6.6507 17.7616 7.18376C17.6825 7.4253 17.5825 7.60854 17.4617 7.72931C17.3451 7.85424 17.2077 7.91671 17.0495 7.91671C16.8912 7.91671 16.7996 7.86674 16.7704 7.77095C16.7413 7.67517 16.7829 7.45445 16.8995 7.11296L17.2702 6.00937H15.0838L14.8839 6.60489C14.6549 7.28371 14.5466 7.80843 14.5632 8.18324C14.5799 8.55388 14.7673 8.85789 15.1296 9.09526C15.4961 9.33264 15.9917 9.45341 16.6205 9.45341C17.1952 9.45341 17.7324 9.3493 18.2322 9.14107C18.7361 8.93285 19.1109 8.67881 19.3649 8.37064C19.619 8.06247 19.8563 7.58771 20.0729 6.93805C20.3686 6.05102 20.4518 5.40552 20.3144 5.00573C20.177 4.60594 19.6939 4.08954 18.8568 3.46486C18.5653 3.24831 18.4071 3.06091 18.3779 2.91098C18.3488 2.7569 18.3779 2.53201 18.482 2.22801C18.5612 1.99063 18.657 1.81989 18.7652 1.70328C18.8777 1.58667 19.0026 1.52837 19.1442 1.52837C19.2733 1.52837 19.3524 1.57002 19.3774 1.65747C19.4024 1.74492 19.3649 1.94482 19.2608 2.25716L19.0359 2.92764H21.2223V2.93597ZM27.823 0.183238L27.215 1.99896H25.8282L23.392 9.26601H21.0349L23.4711 1.99896H22.076L22.684 0.183238H27.823Z" fill="#FF6600"/>
<path fill-rule="evenodd" clip-rule="evenodd" d="M24.1914 9.26598L26.1654 3.56479H26.8317L25.0701 8.63714H27.0524L26.8359 9.26598H24.1914ZM33.4782 6.21341C33.6198 5.56791 33.5407 5.04318 33.2409 4.64339C32.941 4.2436 32.4704 4.0437 31.8374 4.0437C31.5209 4.0437 31.2086 4.10201 30.9004 4.22278C30.5923 4.34355 30.3049 4.51429 30.0425 4.73501C29.7427 4.98904 29.4928 5.28056 29.2929 5.60539C29.093 5.93438 28.9514 6.27587 28.8723 6.62986C28.7307 7.27952 28.8057 7.80008 29.1014 8.19987C29.397 8.5955 29.8593 8.79539 30.4881 8.79539C30.813 8.79539 31.1295 8.73709 31.446 8.61632C31.7625 8.49555 32.054 8.32064 32.3288 8.09576C32.6162 7.85422 32.8577 7.57103 33.0576 7.24204C33.2575 6.91304 33.395 6.57155 33.4741 6.21757L33.4782 6.21341ZM32.004 3.43569C32.8328 3.43569 33.4449 3.68972 33.8322 4.19362C34.2237 4.69753 34.3236 5.37218 34.1404 6.21341C34.0405 6.66734 33.8655 7.09212 33.6157 7.49191C33.3658 7.8917 33.0535 8.24152 32.687 8.54136C32.3413 8.82038 31.9624 9.03694 31.5459 9.19102C31.1295 9.34094 30.7089 9.42007 30.2799 9.42007C29.4803 9.42007 28.8931 9.16187 28.51 8.64964C28.131 8.1374 28.0311 7.46692 28.2102 6.64235C28.3101 6.18009 28.485 5.74698 28.7349 5.33886C28.9848 4.93074 29.2846 4.58092 29.6427 4.28941C29.9801 4.01455 30.3549 3.80216 30.7588 3.6564C31.1628 3.51065 31.5792 3.43569 31.9998 3.43569H32.004ZM37.9676 6.47577H40.2955L40.2872 6.51325C40.0915 7.40862 39.6875 8.11658 39.0795 8.63714C38.4715 9.15771 37.7427 9.4159 36.889 9.4159C36.0353 9.4159 35.4772 9.16187 35.0982 8.65797C34.7234 8.15406 34.6276 7.47941 34.8109 6.63819C34.9108 6.18009 35.0857 5.74698 35.3398 5.33886C35.5896 4.93074 35.8978 4.57676 36.2643 4.28108C36.61 4.00206 36.9764 3.78967 37.3679 3.64391C37.7552 3.49815 38.1591 3.42736 38.5673 3.42736C39.0878 3.42736 39.5168 3.51898 39.8624 3.70638C40.2081 3.89378 40.4871 4.1853 40.7037 4.58092L40.1081 5.03485C39.9249 4.69336 39.6958 4.44349 39.421 4.28108C39.1461 4.11866 38.8171 4.03954 38.434 4.03954C37.7469 4.03954 37.1222 4.28941 36.5641 4.78498C36.0061 5.28056 35.6438 5.9094 35.4772 6.6715C35.3356 7.317 35.4147 7.83756 35.7104 8.22902C36.0103 8.62049 36.4725 8.81622 37.1055 8.81622C37.6303 8.81622 38.1175 8.64964 38.5673 8.32064C39.017 7.99165 39.321 7.57103 39.4876 7.06296H37.7593L37.9676 6.47161V6.47577ZM40.8911 9.26598L42.865 3.56479H43.5522L41.574 9.26598H40.8869H40.8911ZM43.3856 8.22069C43.4522 8.61216 43.6063 8.912 43.8437 9.1119C44.0811 9.31179 44.3976 9.4159 44.789 9.4159C45.3304 9.4159 45.7885 9.26182 46.1716 8.94948C46.5548 8.63714 46.8005 8.22069 46.9171 7.6918C46.992 7.34615 46.9837 7.0588 46.8879 6.83392C46.7921 6.60487 46.5714 6.37582 46.2258 6.14261C46.18 6.11346 46.1133 6.07181 46.0259 6.01767C45.5345 5.7095 45.3304 5.36801 45.4137 4.98904C45.4762 4.70586 45.6178 4.47265 45.8385 4.29357C46.0592 4.1145 46.3132 4.02288 46.6047 4.02288C46.8171 4.02288 46.9879 4.08118 47.1211 4.19779C47.2544 4.3144 47.3585 4.49347 47.4251 4.73501L47.9957 4.3144C47.8791 4.01455 47.7167 3.78967 47.5084 3.64391C47.3002 3.49815 47.0379 3.42736 46.7172 3.42736C46.2341 3.42736 45.8093 3.58144 45.4345 3.89378C45.0597 4.20612 44.8223 4.60591 44.7141 5.09316C44.6433 5.41382 44.6683 5.68452 44.789 5.9094C44.9098 6.13428 45.1847 6.38415 45.6136 6.66317C45.9468 6.87973 46.1466 7.05463 46.2133 7.19206C46.2799 7.32949 46.2924 7.50024 46.2466 7.70846C46.1716 8.04162 46.0134 8.30815 45.7718 8.50804C45.5261 8.70794 45.2346 8.80789 44.9056 8.80789C44.6433 8.80789 44.4392 8.72876 44.2934 8.57468C44.1435 8.41643 44.0352 8.15823 43.9645 7.79592L43.3856 8.22069ZM48.8536 9.26598L50.6068 4.1853H49.22L49.4324 3.56479H52.9056L52.6891 4.1853H51.2856L49.5199 9.26598H48.8494H48.8536ZM52.2393 9.26598H52.9264L54.9046 3.56479H54.2174L52.2435 9.26598H52.2393ZM60.3309 4.75167C60.1269 4.51013 59.9061 4.33105 59.6729 4.21445C59.4397 4.09784 59.1857 4.0437 58.9067 4.0437C58.6027 4.0437 58.307 4.10201 58.0155 4.21445C57.7239 4.32689 57.4533 4.49347 57.2076 4.71419C56.9244 4.96406 56.687 5.24724 56.4996 5.56791C56.3122 5.88858 56.1789 6.2259 56.0998 6.57988C55.9499 7.26286 56.0123 7.80424 56.2914 8.19987C56.5662 8.5955 57.0201 8.79539 57.649 8.79539C57.8905 8.79539 58.1446 8.75375 58.4069 8.6663C58.6693 8.58301 58.9525 8.44558 59.2648 8.26234L58.9441 9.06192C58.6984 9.18269 58.4444 9.27015 58.1904 9.32845C57.9322 9.38675 57.674 9.4159 57.4075 9.4159C56.6329 9.4159 56.0582 9.15771 55.6875 8.64131C55.3169 8.12491 55.2211 7.45026 55.4043 6.62569C55.5043 6.17176 55.6792 5.73865 55.9207 5.3347C56.1664 4.93074 56.4704 4.57676 56.8286 4.27275C57.1534 4.00206 57.4991 3.79383 57.8739 3.64808C58.2487 3.50648 58.636 3.43569 59.0316 3.43569C59.3731 3.43569 59.6771 3.48566 59.9436 3.58977C60.2102 3.69389 60.4475 3.85214 60.6599 4.06869L60.3309 4.75167ZM60.2601 8.22486C60.3268 8.61632 60.4809 8.91617 60.7182 9.11606C60.9556 9.31596 61.2721 9.42007 61.6636 9.42007C62.205 9.42007 62.663 9.26598 63.0462 8.95365C63.4293 8.64547 63.675 8.22486 63.7916 7.69597C63.8666 7.35031 63.8583 7.06296 63.7625 6.83808C63.6667 6.60903 63.446 6.37999 63.1003 6.14677C63.0545 6.11762 62.9879 6.07598 62.9004 6.02184C62.409 5.71367 62.205 5.37218 62.2882 4.99321C62.3507 4.71002 62.4923 4.47681 62.713 4.29774C62.9337 4.11866 63.1878 4.02705 63.4793 4.02705C63.6917 4.02705 63.8624 4.08535 63.9957 4.20195C64.1289 4.31856 64.2331 4.49763 64.2997 4.73917L64.8702 4.31856C64.7536 4.01872 64.5912 3.79383 64.383 3.64808C64.1748 3.50232 63.9124 3.43152 63.5917 3.43152C63.1086 3.43152 62.6839 3.58561 62.3091 3.89795C61.9343 4.21028 61.6969 4.61007 61.5886 5.09732C61.5178 5.41799 61.5428 5.68868 61.6636 5.91356C61.7843 6.13845 62.0592 6.38832 62.4881 6.66734C62.8213 6.88389 63.0212 7.0588 63.0878 7.19623C63.1545 7.33366 63.167 7.5044 63.1211 7.71263C63.0462 8.04579 62.8879 8.31231 62.6464 8.51221C62.4007 8.7121 62.1092 8.81205 61.7802 8.81205C61.5178 8.81205 61.3138 8.73293 61.168 8.57884C61.0181 8.42059 60.9098 8.16239 60.839 7.80008L60.2601 8.22486Z" fill="#8C8C8C"/>
<path fill-rule="evenodd" clip-rule="evenodd" d="M65.3325 12.127C65.1826 12.152 64.9119 12.7642 64.9494 12.9349C64.9577 12.9807 65.0618 12.9932 65.0993 12.9891C65.3242 12.9516 65.4991 12.4852 65.4533 12.2519C65.4408 12.1936 65.3991 12.1187 65.3367 12.127H65.3325ZM61.9801 12.5351C61.9218 13.0265 61.8635 13.5179 61.8093 14.0094C61.7968 14.1426 61.7885 14.4133 61.8093 14.5466C61.8135 14.6049 61.8676 14.6257 61.9135 14.6382C62.1592 14.7007 62.5048 14.7007 62.7464 14.6549C63.1836 14.5799 63.6834 14.3592 64.029 14.0635C64.2248 13.8928 64.4288 13.6179 64.3663 13.3139C64.3039 13.0182 63.9582 12.7975 63.7208 12.6892C63.2752 12.481 62.6131 12.4268 62.155 12.5018C62.0925 12.5143 62.0384 12.5268 61.9801 12.5351ZM68.3643 11.5107C68.3101 11.748 68.2518 12.0562 68.2268 12.3644C68.2019 12.6726 68.2018 12.9849 68.2518 13.2306C68.2685 13.2972 68.3601 13.5346 68.4559 13.5055C68.4559 13.5055 68.4892 13.4971 68.5142 13.493C68.5142 13.493 68.56 13.4388 68.5725 13.4263C68.5975 13.393 68.6308 13.368 68.6724 13.3597C68.7182 13.3514 68.7765 13.4013 68.789 13.4513C68.8182 13.5846 68.5933 13.7262 68.4892 13.747C68.2185 13.7928 68.0811 13.5679 68.0269 13.3097C67.9561 12.9932 67.9603 12.6392 67.9895 12.3269C68.0186 12.0645 68.0561 11.8105 68.0977 11.5523C68.0519 11.5606 68.0061 11.569 67.9603 11.5731C67.8853 11.5898 67.8104 11.6023 67.7354 11.6148C67.6396 11.6314 67.5105 11.6148 67.4856 11.494C67.4731 11.4315 67.5147 11.3691 67.573 11.3607C67.6396 11.3524 67.7021 11.3441 67.7687 11.3357C67.8895 11.3149 68.0144 11.2941 68.1352 11.2774C68.1935 11.0359 68.2477 10.7985 68.306 10.5528C68.3268 10.457 68.3559 10.2072 68.4392 10.153C68.4642 10.1364 68.4892 10.1322 68.5183 10.128C68.585 10.1156 68.6683 10.153 68.6891 10.2322C68.6974 10.2821 68.6724 10.4321 68.6599 10.482C68.5891 10.7236 68.5225 10.9651 68.4559 11.2067C68.5683 11.1817 68.6808 11.1567 68.7932 11.1317C68.8807 11.1109 69.0306 11.1317 69.0556 11.2441C69.0681 11.3108 69.0139 11.3899 68.9515 11.3982C68.9265 11.3982 68.889 11.3941 68.8682 11.3899C68.8515 11.3899 68.8265 11.3857 68.8099 11.3899C68.8015 11.3899 68.7932 11.3899 68.7849 11.3899C68.6474 11.4274 68.51 11.4648 68.3768 11.4982L68.3643 11.5107ZM62.0176 12.177C62.434 12.0479 62.8338 11.8521 63.2003 11.6148C63.5001 11.4232 64.1165 10.9318 64.0207 10.4654C63.9707 10.228 63.6709 10.1156 63.4835 10.0656C63.1003 9.96563 62.6506 9.99062 62.2799 10.0448C61.5761 10.153 60.9806 10.4112 60.4309 10.886C60.2018 11.0859 59.9103 11.444 59.9853 11.8188C60.0186 11.9896 60.1061 12.102 60.2435 12.1811C60.3268 12.227 60.4392 12.2686 60.4642 12.3727C60.4767 12.4435 60.4434 12.4976 60.3809 12.5101C60.2851 12.5268 60.1769 12.4435 60.0977 12.381C59.9228 12.2353 59.7937 12.0854 59.7438 11.8521C59.6396 11.3274 60.0269 10.8943 60.3601 10.6278C60.9056 10.1905 61.597 9.91982 62.2841 9.81987C62.6839 9.75741 63.1545 9.73658 63.5668 9.83653C63.8166 9.899 64.1373 10.0323 64.2539 10.3113C64.2664 10.3446 64.2789 10.3779 64.2831 10.4112C64.3872 10.8985 63.9624 11.3191 63.6625 11.5773C63.3419 11.8521 63.0212 12.0354 62.6506 12.1936C62.9338 12.2061 63.2419 12.227 63.5085 12.3186C63.6126 12.3519 63.7125 12.3977 63.8125 12.4435C64.154 12.6018 64.5454 12.835 64.6329 13.2597C64.7495 13.8136 64.2706 14.2384 63.8833 14.4633C63.5626 14.659 63.1961 14.8131 62.8213 14.8797C62.4965 14.938 62.105 14.9589 61.7802 14.8714C61.6511 14.8423 61.5262 14.8048 61.497 14.6465C61.497 14.634 61.4928 14.6215 61.4887 14.609C61.4803 14.5466 61.4887 14.4799 61.4887 14.4175C61.5053 14.2217 61.522 14.0302 61.5428 13.8344C61.5845 13.4222 61.6303 13.0057 61.6802 12.5934C61.5678 12.6184 61.4512 12.6476 61.3429 12.6726C61.3179 12.6809 61.2846 12.6892 61.2596 12.6934C61.1847 12.7059 61.0847 12.6934 61.0639 12.5893C61.0472 12.506 61.1097 12.4393 61.1763 12.4227C61.3596 12.3685 61.5387 12.3186 61.7219 12.2644C61.7552 11.9563 61.7927 11.6523 61.826 11.3482C61.8302 11.3108 61.8343 11.2774 61.8427 11.24C61.8385 11.1733 61.8427 11.1067 61.8427 11.0317C61.8427 10.9901 61.8468 10.9443 61.8552 10.9026C61.8676 10.7527 61.8635 10.6486 62.0176 10.6236C62.0967 10.6111 62.2008 10.6403 62.2216 10.7402C62.2341 10.7902 62.2258 10.8443 62.2216 10.8901C62.2216 10.9276 62.2175 10.9693 62.2175 11.0109C62.2175 11.0526 62.2133 11.0942 62.2175 11.1359C62.2091 11.1817 62.2008 11.2275 62.1883 11.2774C62.13 11.5773 62.08 11.8771 62.0259 12.177H62.0176ZM66.0072 13.6054C66.0321 13.4805 66.1029 13.3555 66.1904 13.3264C66.2279 13.3139 66.2653 13.3097 66.2903 13.3514C66.2903 13.3514 66.2903 13.3555 66.2903 13.3597C66.3028 13.3722 66.3112 13.3805 66.3112 13.3972C66.3153 13.4263 66.3112 13.4596 66.2987 13.4846C66.2778 13.5346 66.2362 13.6346 66.2487 13.6929C66.2654 13.7553 66.4319 13.7886 66.4736 13.7928C66.6485 13.8136 66.8442 13.797 67.015 13.7678C67.0483 13.7637 67.4106 13.6929 67.4064 13.6387C67.3856 13.5804 67.1857 13.4721 67.1316 13.4472C66.9941 13.3888 66.8567 13.3305 66.7193 13.2722C66.4278 13.1473 66.1196 13.0015 66.0405 12.6351C65.9655 12.2977 66.2029 12.0146 66.4236 11.8355C66.5985 11.6939 66.8234 11.5648 67.0483 11.5273C67.3773 11.4732 67.673 11.6856 67.7479 12.0437C67.7729 12.1603 67.7729 12.2936 67.7604 12.4102C67.7479 12.5601 67.673 12.9308 67.5022 12.9599C67.4481 12.9682 67.3898 12.9266 67.3773 12.8683C67.3565 12.7892 67.3981 12.7184 67.4273 12.6476C67.4939 12.4852 67.4772 12.2936 67.4397 12.1145C67.3939 11.8896 67.3107 11.7314 67.0774 11.773C66.8984 11.8022 66.7026 11.9146 66.561 12.0229C66.4069 12.1437 66.2487 12.3477 66.2945 12.5809C66.3528 12.8433 66.6068 12.9682 66.8192 13.0599C66.965 13.1223 67.1191 13.189 67.2732 13.2514C67.4023 13.3056 67.6396 13.4388 67.673 13.5971C67.7313 13.8594 67.2315 13.9677 67.0733 13.9969C66.8734 14.0302 66.1071 14.1176 66.0072 13.8011C65.9738 13.8886 65.9197 13.9802 65.8781 14.0343C65.7656 14.1718 65.6115 14.2676 65.4408 14.2967C65.091 14.3592 64.7745 14.1843 64.6912 13.7845C64.5954 13.3305 64.6912 12.685 64.8786 12.2894C64.9744 12.0854 65.1368 11.8563 65.3617 11.8188C65.5116 11.7938 65.6532 11.9229 65.6907 12.0812C65.7864 12.5268 65.5824 13.1723 65.1368 13.2473C65.0577 13.2597 64.9952 13.2597 64.9244 13.2514C64.9161 13.3888 64.9036 13.5638 64.9369 13.697C64.9952 13.9594 65.1868 14.0468 65.4116 14.0094C65.5949 13.976 65.7573 13.8428 65.8198 13.6554C65.8322 13.6054 65.8531 13.5638 65.9072 13.5554C65.9488 13.5471 65.9905 13.5679 66.0155 13.6054H66.0072Z" fill="#FF6600"/>
<path fill-rule="evenodd" clip-rule="evenodd" d="M59.2356 12.9765C59.0607 13.0015 58.7359 13.6678 58.7734 13.8511C58.7817 13.9011 58.9066 13.9135 58.9483 13.9094C59.2148 13.8719 59.423 13.368 59.3689 13.114C59.3564 13.0515 59.3106 12.964 59.2356 12.9765ZM58.7401 14.2009C58.7317 14.3508 58.7151 14.5424 58.7401 14.684C58.8025 14.9672 59.0316 15.0671 59.2981 15.0255C59.5147 14.9922 59.7104 14.8506 59.7854 14.6465C59.8062 14.5924 59.8228 14.5507 59.8895 14.5382C59.9519 14.5299 60.0186 14.5757 60.0352 14.6382C60.0644 14.7714 59.9436 14.9672 59.8603 15.0588C59.7312 15.2087 59.5396 15.3128 59.3356 15.342C58.9233 15.4086 58.5485 15.2129 58.4527 14.7798C58.3486 14.2842 58.4735 13.5804 58.6901 13.1556C58.8067 12.9307 58.9983 12.685 59.269 12.6475C59.4439 12.6226 59.6146 12.7641 59.6521 12.9391C59.7604 13.4263 59.5147 14.1259 58.9816 14.2051C58.89 14.2176 58.8192 14.2176 58.7317 14.2051L58.7401 14.2009ZM57.4574 14.5091C57.5407 14.3467 57.6115 14.1551 57.6865 13.9927C57.7114 13.951 57.8489 13.6554 57.9197 13.5721C57.9197 13.5887 57.9197 13.6054 57.928 13.622C57.928 13.9385 57.9363 14.255 57.9363 14.5715C57.928 14.7506 57.9363 14.9505 57.978 15.1296C58.0279 15.3503 58.157 15.5086 58.3944 15.4711C58.4944 15.4544 58.6401 15.3878 58.6151 15.2628C58.5985 15.1796 58.5027 15.1546 58.4319 15.1754C58.3986 15.1837 58.3694 15.1921 58.3403 15.1962C58.307 15.1962 58.2653 15.0921 58.257 15.0671C58.2278 14.9255 58.2195 14.6798 58.2195 14.5341C58.2195 14.2301 58.2195 13.9302 58.2195 13.6304C58.2195 13.5596 58.2195 13.4721 58.2028 13.4013C58.1779 13.2889 58.0946 13.1889 57.9738 13.2014C57.7156 13.2389 57.3408 14.0468 57.1326 14.5549C57.195 14.1051 57.2617 13.6553 57.3241 13.2056C57.3866 12.7558 57.4532 12.3102 57.5115 11.8605C57.5199 11.7688 57.5365 11.6855 57.5615 11.6023C57.5865 11.519 57.6115 11.4024 57.5907 11.3107C57.574 11.2399 57.4865 11.1816 57.4158 11.19C57.2533 11.2108 57.1784 11.4273 57.1784 11.5731C57.1784 11.6356 57.1867 11.698 57.1784 11.7605C57.1284 12.1311 57.0618 12.4976 57.0118 12.8683C56.9618 13.2347 56.9035 13.6054 56.8494 13.976C56.8286 14.1343 56.7703 14.3133 56.7161 14.4633C56.637 14.7006 56.5412 14.9422 56.4454 15.1712C56.4121 15.2462 56.308 15.4544 56.2164 15.4669C56.1664 15.4752 56.1331 15.342 56.1248 15.3087C56.1248 15.2878 56.1164 15.267 56.1164 15.2462C56.1039 15.1754 56.0998 15.1046 56.1039 15.0338C56.1039 14.8256 56.1164 14.6215 56.1289 14.4133C56.1622 14.1593 56.1997 13.9094 56.2372 13.6595C56.4121 13.6137 56.5829 13.5637 56.7536 13.5179C56.8286 13.4971 56.8785 13.4388 56.8577 13.3555C56.8369 13.2597 56.7411 13.2097 56.6495 13.2264C56.5995 13.2431 56.5454 13.2556 56.4996 13.2681C56.4288 13.2889 56.3663 13.3055 56.2955 13.3222C56.3663 13.0057 56.4371 12.685 56.5079 12.3685C56.5246 12.2852 56.5745 12.1103 56.5537 12.0187C56.537 11.9312 56.4496 11.8896 56.3705 11.8979C56.3372 11.9021 56.308 11.9063 56.2747 11.9271C56.1456 12.002 56.1164 12.381 56.0998 12.5184C56.054 12.8183 56.0123 13.1098 55.9748 13.4055C55.8124 13.4471 55.6583 13.4888 55.5042 13.5263C55.4085 13.5512 55.1211 13.6012 55.0878 13.7178C55.0878 13.7386 55.0878 13.7595 55.0878 13.7844C55.1045 13.8677 55.2002 13.9135 55.2752 13.9052H55.2835C55.321 13.8927 55.3585 13.8844 55.396 13.8719C55.5751 13.8303 55.7541 13.7845 55.9374 13.7386C55.904 13.9719 55.8707 14.2051 55.8416 14.4383C55.8083 14.7048 55.7958 15.1879 55.8541 15.4502C55.8915 15.6252 56.0123 15.7834 56.2039 15.7543C56.4704 15.7126 56.6037 15.4711 56.7036 15.2504C56.7203 15.2004 56.7369 15.1546 56.7578 15.1088C56.7494 15.2504 56.7369 15.4086 56.7578 15.5002C56.7744 15.5877 56.8494 15.6418 56.9327 15.6252C57.0451 15.6085 57.1159 15.5086 57.1534 15.4128C57.2492 15.1129 57.3491 14.8089 57.4449 14.5091H57.4574Z" fill="#FF6600"/>
<path fill-rule="evenodd" clip-rule="evenodd" d="M52.4935 14.4175C52.506 14.38 52.5185 14.3425 52.5226 14.3175C52.5726 14.0344 52.6226 13.7595 52.6767 13.4805C52.7559 13.089 52.81 12.5934 52.7392 12.1936C52.7392 12.1895 52.7392 12.1812 52.7392 12.1728C52.7267 12.2145 52.71 12.2853 52.7059 12.3061C52.6309 12.6476 52.5685 12.9974 52.531 13.3514C52.4935 13.7054 52.4727 14.0635 52.4977 14.4217L52.4935 14.4175ZM50.5279 16.0208C50.6986 16.1124 50.9943 16.2832 51.1692 16.2832C51.2108 16.2832 51.2566 16.2749 51.2983 16.2665C51.7106 16.1749 51.8855 15.4919 51.8938 15.1046C51.8938 14.9672 51.8813 14.8214 51.8522 14.684C51.8064 14.4966 51.6731 14.101 51.4274 14.1551C51.1775 14.2093 51.0193 14.4258 50.8943 14.6465C50.6569 15.0796 50.5903 15.5211 50.5279 16.0208ZM54.5466 14.3259C54.5466 14.7173 54.5466 15.1088 54.5549 15.5003C54.5632 16.0666 54.5882 16.7121 54.33 17.2202C54.2176 17.4326 54.0219 17.645 53.7928 17.6991C53.4263 17.7824 53.189 17.4534 53.0432 17.1411C52.9641 16.9745 52.7184 16.379 53.0182 16.3123C53.1182 16.2873 53.1848 16.3457 53.214 16.4498C53.2306 16.5247 53.2223 16.5872 53.1765 16.6538C53.139 16.708 53.139 16.6996 53.1556 16.7663C53.1931 16.9204 53.2889 17.1661 53.3805 17.291C53.468 17.4159 53.6179 17.4784 53.7595 17.4451C54.0385 17.3826 54.1968 17.0036 54.2592 16.7413C54.3134 16.5039 54.33 16.2665 54.3342 16.0167C54.3342 15.6585 54.305 15.2962 54.2801 14.9339C54.1343 15.3295 53.8803 15.9209 53.5263 16C53.3389 16.0416 53.2139 15.8709 53.1681 15.6918C53.1057 15.4128 53.1057 15.0796 53.1432 14.7506C53.1765 14.4217 53.2514 14.0968 53.343 13.8345C53.3847 13.7054 53.4472 13.4805 53.5971 13.4472C53.6762 13.4305 53.747 13.4888 53.7678 13.5721C53.7845 13.6512 53.7678 13.697 53.7387 13.7678C53.7262 13.7887 53.722 13.8053 53.7137 13.822C53.7012 13.8386 53.6929 13.8594 53.6845 13.8761C53.6637 13.8928 53.6471 13.9053 53.6262 13.9178C53.5929 13.9469 53.5971 13.9469 53.5804 13.9927C53.5679 14.0219 53.5554 14.0552 53.5429 14.0843C53.393 14.4883 53.3014 15.1296 53.4097 15.5627C53.418 15.6085 53.4722 15.7501 53.5346 15.7376C53.6679 15.7085 53.8761 15.317 53.9302 15.1963C54.0802 14.8756 54.2384 14.405 54.2384 14.0385C54.2384 13.8928 54.2592 13.7054 54.4133 13.672C54.4841 13.6554 54.5757 13.7012 54.5924 13.7803C54.6049 13.8261 54.5924 13.8844 54.5924 13.9302C54.5716 14.0635 54.5549 14.1968 54.5466 14.3259ZM52.5768 15.1296C52.5893 15.2546 52.6059 15.367 52.6351 15.4878C52.6767 15.671 52.7434 15.8001 52.9058 15.8959C52.9724 15.9417 53.0141 15.95 53.089 15.9334C53.0973 15.9334 53.1057 15.9292 53.114 15.9292C53.1848 15.9125 53.2556 15.9292 53.2723 16.0083C53.2972 16.0999 53.2264 16.1458 53.1515 16.1624C52.6517 16.2707 52.4435 15.8417 52.3352 15.392C52.2603 15.0796 52.2311 14.7007 52.2228 14.3259C52.2145 13.9511 52.2395 13.5721 52.2769 13.2514C52.3144 12.8516 52.3686 12.4144 52.4685 12.0312C52.5101 11.8896 52.5601 11.7647 52.71 11.7356C52.8558 11.7022 52.9558 11.8022 52.9932 11.9521C53.0724 12.2894 53.0349 12.7892 52.9932 13.1265C52.9766 13.2889 52.9516 13.4513 52.9224 13.6137C52.8641 13.9927 52.7683 14.3675 52.6726 14.7382C52.6392 14.8673 52.6101 15.0005 52.5726 15.1296H52.5768ZM48.9995 16.0708C49.0869 15.7876 49.1827 15.5086 49.2785 15.2254C49.3285 15.0796 49.4284 14.8048 49.595 14.7715C49.6866 14.7507 49.7782 14.8256 49.8032 14.9172C49.8199 15.0005 49.824 15.1088 49.8199 15.1963C49.7991 15.4753 49.7699 16.0583 49.8282 16.3373C49.8407 16.3915 49.9032 16.5455 49.974 16.5289C50.0073 16.5206 50.0364 16.4581 50.0531 16.4331C50.0739 16.3956 50.1156 16.3498 50.1614 16.3415C50.1697 16.3415 50.178 16.3415 50.1864 16.3415C50.2238 15.975 50.2655 15.6002 50.303 15.2337C50.3404 14.8673 50.3738 14.4966 50.4154 14.1301C50.4279 14.001 50.4529 13.8345 50.5945 13.8053C50.6611 13.7928 50.7527 13.8345 50.7694 13.9094C50.7819 13.9761 50.7569 14.0802 50.7319 14.1385C50.6986 14.2218 50.6778 14.3009 50.6694 14.3883C50.6611 14.4591 50.6528 14.5258 50.6445 14.5966C50.8152 14.2509 51.0609 13.9136 51.4232 13.8345C51.823 13.7512 52.0187 14.2467 52.0979 14.5757C52.1895 14.963 52.1812 15.3045 52.0687 15.6793C51.9646 16.05 51.7439 16.4664 51.3566 16.5539C51.0401 16.6205 50.7819 16.4997 50.5029 16.3415C50.4529 16.8037 50.4029 17.2702 50.3529 17.7324C50.3446 17.8032 50.3363 17.9032 50.3529 17.9781C50.3613 17.999 50.3738 18.0323 50.3863 18.0573C50.4029 18.0906 50.4237 18.1364 50.4321 18.1697C50.4612 18.2863 50.3738 18.3738 50.2738 18.3946C50.1822 18.4154 50.0947 18.3738 50.0698 18.2696C50.0239 18.0614 50.0656 17.5783 50.0864 17.3618C50.1114 17.1411 50.1364 16.9162 50.1614 16.6955C50.1114 16.7371 50.0573 16.7746 50.0031 16.7871C49.8074 16.8287 49.645 16.5997 49.6075 16.4206C49.5783 16.2915 49.57 16.1499 49.5658 16.0167C49.5575 15.7501 49.5659 15.4794 49.5742 15.2129C49.5742 15.1921 49.5658 15.1754 49.5658 15.1504C49.545 15.1838 49.5159 15.2712 49.5117 15.292C49.3701 15.7793 49.2244 16.2665 49.0786 16.7538C49.0536 16.8329 49.0036 16.9245 48.9204 16.9412C48.8412 16.9578 48.7496 16.9079 48.7329 16.8162C48.7205 16.7538 48.7288 16.6788 48.7288 16.6163C48.7413 16.2665 48.7538 15.9167 48.7663 15.5627C48.7663 15.5086 48.7663 15.4378 48.7579 15.3837C48.683 15.4669 48.5539 15.8667 48.5289 15.9542C48.4123 16.3623 48.304 16.7704 48.1874 17.1786C48.1707 17.2493 48.1083 17.2952 48.0416 17.3118C47.9708 17.3285 47.8876 17.291 47.8667 17.2077V17.1994C47.8584 17.1661 47.8626 17.1286 47.8584 17.0911C47.8584 16.9662 47.8584 16.8412 47.8584 16.7121C47.9084 16.2041 47.9625 15.7002 48.0125 15.1921C48.0125 15.1629 48.0042 15.1338 48 15.1046C47.975 14.9505 48.0375 14.5966 48.2041 14.5632C48.279 14.5466 48.3581 14.5966 48.379 14.684C48.3873 14.709 48.3831 14.734 48.379 14.759C48.3123 15.2379 48.2457 15.7168 48.1832 16.1916C48.2249 16.0583 48.2707 15.9167 48.3123 15.7793C48.379 15.5835 48.5539 15.088 48.7788 15.038C48.887 15.013 48.9787 15.1046 48.9995 15.2171C49.0286 15.342 49.0161 15.4544 49.012 15.5794C49.012 15.746 49.0036 15.9125 49.0036 16.0791L48.9995 16.0708ZM47.2379 14.3092C47.3337 14.2884 47.4336 14.3384 47.4586 14.4466C47.4919 14.5966 47.417 14.7631 47.2712 14.7923C47.1629 14.8131 47.0921 14.7756 47.063 14.6549C47.0338 14.5091 47.0921 14.3384 47.2337 14.3092H47.2379ZM47.4211 15.5877C47.3878 15.9001 47.3545 16.2166 47.3212 16.5331C47.3129 16.6413 47.3087 16.7996 47.3337 16.912C47.3462 16.9787 47.4086 17.0619 47.4794 17.0495H47.4878C47.4878 17.0495 47.4878 17.0453 47.4919 17.0411C47.4919 17.0411 47.4919 17.0411 47.4961 17.037C47.5169 17.0245 47.5544 16.9953 47.5711 16.9911C47.6252 16.9828 47.6793 17.037 47.6918 17.0869C47.721 17.2119 47.5711 17.3118 47.4794 17.3326C47.2754 17.3743 47.1088 17.2035 47.063 16.9953C47.0297 16.8537 47.0213 16.6788 47.0338 16.5331C47.063 16.1874 47.088 15.8417 47.1171 15.4961C47.1255 15.3503 47.1338 15.1463 47.3004 15.113C47.3753 15.0963 47.4461 15.1421 47.4669 15.2254C47.4878 15.317 47.4669 15.4545 47.4336 15.5461C47.4295 15.5627 47.4211 15.5794 47.4211 15.5919V15.5877ZM45.8719 15.8293C46.1135 15.9292 46.5091 16.0875 46.5757 16.3998C46.634 16.6663 46.4383 16.9162 46.2634 17.0703C45.9844 17.316 45.5929 17.4742 45.2348 17.5534C44.9266 17.62 44.506 17.6033 44.2186 17.4243C44.0604 17.3243 43.8813 17.1244 43.8397 16.9287C43.8272 16.8621 43.8313 16.8037 43.8563 16.7413C43.873 16.6955 43.9021 16.6122 43.8896 16.558C43.8771 16.5039 43.8147 16.4748 43.7647 16.4831C43.5856 16.5206 43.5357 16.8412 43.5731 17.012C43.6189 17.2285 43.748 17.4034 43.9105 17.5409C44.2978 17.874 44.8725 17.874 45.3222 17.7824C45.7345 17.6949 46.1718 17.5034 46.4925 17.2077C46.7132 17.0036 46.9464 16.683 46.8673 16.3457C46.7715 15.9292 46.33 15.746 45.9969 15.6044C45.8345 15.5336 45.6679 15.4628 45.5055 15.392C45.2889 15.3004 45.0724 15.2046 44.8641 15.1005C44.7517 15.0422 44.6143 14.9797 44.5102 14.9006C44.3352 14.7715 44.1437 14.5716 44.0937 14.3425C44.0271 14.0344 44.1812 13.7137 44.3519 13.4888C44.71 13.0265 45.2514 12.6184 45.8095 12.5018C46.1385 12.4352 46.6507 12.531 46.7507 12.9558C46.7798 13.0849 46.7631 13.2514 46.734 13.3764C46.7007 13.5346 46.6715 13.6929 46.6424 13.847C46.6174 13.9677 46.5924 14.1385 46.6215 14.2676C46.6382 14.3467 46.7215 14.43 46.8006 14.4133C46.9589 14.38 47.0338 13.9136 47.0547 13.7762C47.0921 13.5346 47.1088 13.1265 47.0547 12.885C46.9214 12.2894 46.2842 12.0979 45.8011 12.1978C45.2681 12.3103 44.6059 12.7434 44.2353 13.1598C43.9646 13.4638 43.7022 13.9219 43.8022 14.3758C43.8105 14.4217 43.823 14.4633 43.8397 14.5049C44.0437 15.0672 44.8433 15.3961 45.3181 15.5919C45.5096 15.671 45.6929 15.746 45.8886 15.8251L45.8719 15.8293Z" fill="#FF6600"/>
<path fill-rule="evenodd" clip-rule="evenodd" d="M0 12.5893H43.2483C40.1249 19.2358 43.9854 20.6434 52.5976 18.4904C61.0599 16.3706 71.3087 12.6392 76.6351 12.5809L80 12.5893V21.3056H0V12.5893Z" fill="#FF6600"/>
</g>
<defs>
<clipPath id="clip0_1801_11413">
<rect width="80" height="21.3056" fill="white"/>
</clipPath>
</defs>
</svg>
