<svg width="80" height="56" viewBox="0 0 80 56" fill="none" xmlns="http://www.w3.org/2000/svg">
<g clip-path="url(#clip0_1801_11465)">
<path fill-rule="evenodd" clip-rule="evenodd" d="M35.3724 9.92015C37.2704 10.0166 39.3338 9.93941 41.2294 9.93941C43.177 9.93941 45.1245 9.93941 47.0721 9.93941C50.1231 9.93941 54.0105 9.88141 55.1829 13.4956C56.306 16.9576 54.1778 20.4973 52.4172 21.8735C49.8836 23.8541 46.928 24.1395 42.9486 24.078L44.1191 19.3553C44.3078 18.6535 45.3118 15.0137 45.3456 14.6298L18.185 14.6192L13.0083 33.9942L24.0191 34.0035C24.2004 33.6732 25.7354 27.6452 26.0003 26.7057L27.4646 21.2441C27.5897 20.7937 27.8118 19.7227 27.971 19.4088L32.7499 19.4012L28.8774 33.9889C30.9566 34.0661 33.1256 34.004 35.1963 34.004C37.3132 34.004 39.4301 34.004 41.547 34.004C45.8029 34.004 49.2548 33.8967 52.9333 32.7452C59.2701 30.7618 63.8784 26.5486 66.0117 20.5445C67.144 17.3576 67.4309 12.9382 66.3927 9.52268C64.2301 2.40802 57.6088 0.1843 50.6291 0.0245937C48.5481 -0.0230748 46.4268 0.0147355 44.3413 0.0147355C42.2364 0.0147355 40.0988 -0.0217991 37.9979 0.0201863L35.3724 9.92015ZM27.0762 0.0639116C24.0526 0.475067 21.6564 2.60368 20.7882 5.17337C19.5952 8.70443 21.839 11.5462 25.4301 11.1554C28.3828 10.8341 30.8824 8.50703 31.7061 6.05355C32.8807 2.55473 30.6519 -0.4224 27.0762 0.0639116Z" fill="#FE1600"/>
<path fill-rule="evenodd" clip-rule="evenodd" d="M39.689 43.4586C39.7106 43.0993 40.0951 41.6599 40.2334 41.4546C40.9303 41.4356 43.1087 41.2115 42.5744 42.6445C42.235 43.5552 40.8188 43.5065 39.689 43.4586ZM34.6945 48.9109L38.1821 48.9334C38.2919 48.4556 38.8672 46.2312 39.0253 45.9635L39.8084 45.9567L40.982 48.9214L44.7198 48.9323L43.327 45.4949C43.9261 45.1344 45.1761 44.9582 45.8777 43.4027C46.4226 42.1944 46.2682 40.6387 45.495 39.7618C44.7948 38.9677 43.4894 38.572 42.1212 38.529C40.6494 38.4826 38.9671 38.4701 37.4977 38.5183L34.6945 48.9109ZM46.0488 48.9199L54.9585 48.9329L55.7247 46.0713L50.2376 46.0553L50.5202 44.9428L53.3078 44.9384L53.9684 42.4404L51.2241 42.4227L51.4736 41.3851L56.921 41.3845L57.6834 38.5309L48.8089 38.5151L46.7202 46.2803C46.5342 46.9357 46.1081 48.2782 46.0488 48.9199ZM1.85791 48.9068L10.8052 48.9333L11.5673 46.0786L6.09252 46.0549C6.21929 44.4433 6.57837 45.021 9.12962 44.9535L9.81483 42.4483L7.07048 42.4223C7.0757 42.1439 7.23819 41.5711 7.3464 41.3925L12.715 41.3836C12.851 41.1648 13.4932 38.8405 13.5061 38.5404L4.66223 38.5143L1.85791 48.9068ZM69.1724 44.9009C69.0024 44.9902 67.2747 47.0309 67.1971 47.2665C67.6282 47.7349 68.6936 48.3662 69.4557 48.6343C70.4999 49.0017 71.3373 49.1599 72.6035 49.1249C74.7525 49.0655 76.5394 47.9975 76.9193 46.1803C77.6836 42.5248 72.8967 42.4037 72.5144 41.693C72.0474 40.8249 73.991 41.0729 75.0637 41.5656C75.4738 41.754 75.9391 42.148 76.2299 42.2402C76.563 41.82 78.0008 40.1859 78.1421 39.8998C77.9023 39.4322 76.4243 38.7959 75.7783 38.6198C74.8364 38.3632 73.6241 38.1964 72.5536 38.3824C70.5932 38.7232 68.8741 39.8627 68.8633 41.996C68.8523 44.1775 71.1005 44.6122 72.7741 45.3162C73.9672 45.8181 73.4774 46.6579 71.5861 46.1816C71.126 46.0657 70.6555 45.8498 70.287 45.6436C69.8604 45.405 69.522 45.0794 69.1724 44.9009ZM58.7451 44.8801C58.5143 45.0682 56.8373 47.0223 56.7706 47.2665C58.4876 49.1372 63.333 50.0391 65.5642 47.8506C66.6023 46.8324 67.0843 44.8414 65.8408 43.6131C65.3374 43.1157 64.693 42.8087 63.9497 42.5153C63.3788 42.2899 61.9686 41.9276 62.0156 41.4875C62.1015 40.6865 64.1437 41.2918 64.9342 41.7253C65.2315 41.8884 65.5032 42.108 65.7431 42.2321C66.0121 42.0654 66.9206 40.8751 67.2378 40.5051C67.4283 40.2829 67.6569 40.1282 67.7228 39.8191C66.1013 38.6866 64.2087 38.0334 62.0884 38.3944C60.1725 38.7204 58.4072 39.8987 58.436 41.9958C58.4754 44.8782 62.4878 44.8985 62.9063 45.6625C63.3304 46.4366 61.9104 46.3943 61.0676 46.1564C60.1779 45.9052 59.3357 45.3571 58.7451 44.8801ZM11.7003 48.9112C12.4532 48.9841 14.2408 48.9264 15.1933 48.9347C15.816 48.9401 15.7421 48.8817 16.0326 48.5496C16.3546 48.1816 18.0181 46.2203 18.3035 46.1032L19.4143 48.9327L23.1416 48.9312C23.0713 48.3749 20.9383 43.8537 20.9581 43.6466C21.0539 43.4173 22.9669 41.3904 23.2918 41.0775C23.6873 40.6964 24.0806 40.235 24.4575 39.8302C24.6761 39.5953 25.5283 38.7742 25.6055 38.5182L22.3679 38.5151C21.9072 38.5136 21.7253 38.4264 21.4724 38.6863C21.0674 39.1024 19.7052 40.7953 19.3815 40.9845L18.4368 38.5252L14.7047 38.5153C14.7176 38.7866 15.7653 41.1546 15.9402 41.5607C16.1523 42.0537 16.362 42.5677 16.5893 43.0741C16.8257 43.6007 16.6445 43.5611 15.9057 44.3592C15.4713 44.8285 11.931 48.5461 11.7003 48.9112ZM29.0565 43.6171C29.0309 43.2906 29.5107 41.6975 29.6195 41.3087C30.151 41.3106 30.7168 41.2811 31.1073 41.514C31.8204 41.9391 31.9306 43.7715 29.0565 43.6171ZM24.123 48.9237L27.576 48.9311L28.3339 46.1234C30.4562 46.0061 31.4343 46.266 33.1116 45.3115C35.4565 43.9768 36.2733 39.5753 32.3386 38.6982C30.9436 38.3873 28.4645 38.5081 26.8905 38.5181L24.795 46.2603C24.6046 46.9961 24.1844 48.2212 24.123 48.9237Z" fill="#FD1602"/>
<path d="M1.82625 54.2565L0.426001 52.4292H0V55.0719H0.45662V53.1919L1.89792 55.0719H2.28275V52.4292H1.82625V54.2565ZM5.08498 52.4104H4.6584L3.50578 55.0719H3.97724L4.24667 54.4339H5.48535L5.75107 55.0719H6.23761L5.08498 52.4104ZM5.31706 54.0224H4.41507L4.86415 52.9654L5.31706 54.0224ZM8.16036 54.4604L7.37075 52.4292H6.86182L7.95078 55.0908H8.35497L9.44392 52.4292H8.94625L8.16036 54.4604ZM10.693 52.4292V55.0719H11.1497V52.4292H10.693ZM14.9622 54.7058V53.5958H13.8471V53.9998H14.5168V54.4968C14.4371 54.5579 14.3429 54.6063 14.2343 54.6435C14.1259 54.6799 14.0092 54.6982 13.8844 54.6982C13.7497 54.6982 13.6281 54.6742 13.5195 54.6265C13.4111 54.5787 13.3175 54.512 13.239 54.4277C13.1603 54.3433 13.0998 54.2433 13.0575 54.1269C13.015 54.0111 12.9938 53.8846 12.9938 53.7487C12.9938 53.6203 13.0156 53.4989 13.0593 53.3857C13.1029 53.2718 13.1628 53.1724 13.239 53.0868C13.315 53.0012 13.4048 52.9332 13.5084 52.8842C13.6118 52.8351 13.7235 52.8105 13.8432 52.8105C13.9256 52.8105 14.0011 52.8175 14.0696 52.8313C14.1383 52.8452 14.2013 52.864 14.2587 52.8879C14.3161 52.9119 14.3709 52.9415 14.4234 52.9766C14.4757 53.0119 14.5268 53.0508 14.5768 53.0936L14.8686 52.7426C14.8012 52.6847 14.7321 52.6338 14.661 52.5897C14.5898 52.5456 14.5144 52.5085 14.4345 52.4784C14.3547 52.4481 14.2681 52.4248 14.1745 52.4085C14.0809 52.3921 13.9767 52.3839 13.862 52.3839C13.6648 52.3839 13.4834 52.4205 13.3175 52.4934C13.1516 52.5664 13.0087 52.6652 12.889 52.7898C12.7692 52.9143 12.6763 53.0597 12.6102 53.2259C12.5441 53.3919 12.5111 53.5681 12.5111 53.7544C12.5111 53.9482 12.5434 54.1281 12.6084 54.2943C12.6732 54.4604 12.7648 54.6044 12.8834 54.7266C13.0019 54.8486 13.1447 54.9442 13.3119 55.0134C13.479 55.0826 13.6648 55.1173 13.8694 55.1173C13.9843 55.1173 14.094 55.1065 14.1988 55.0852C14.3036 55.0638 14.4014 55.0342 14.4926 54.9964C14.5837 54.9586 14.6684 54.9147 14.7471 54.8643C14.8256 54.814 14.8974 54.7611 14.9622 54.7058ZM17.6895 52.4104H17.2629L16.1103 55.0719H16.5818L16.8513 54.4339H18.09L18.3557 55.0719H18.8422L17.6895 52.4104ZM17.9216 54.0224H17.0197L17.4687 52.9654L17.9216 54.0224ZM20.836 52.8596H21.6668V52.4292H19.5412V52.8596H20.372V55.0719H20.836V52.8596ZM24.8657 52.4292H22.9271V55.0719H24.8843V54.6529H23.3838V53.9469H24.6973V53.5279H23.3838V52.8483H24.8657V52.4292ZM29.8083 52.4104H29.3818L28.2291 55.0719H28.7007L28.9701 54.4339H30.2088L30.4745 55.0719H30.961L29.8083 52.4104ZM30.0404 54.0224H29.1385L29.5876 52.9654L30.0404 54.0224ZM34.5528 53.7468C34.5528 53.5606 34.5192 53.3868 34.4518 53.2259C34.3844 53.0648 34.2889 52.925 34.1654 52.8068C34.042 52.6885 33.8948 52.596 33.7239 52.5293C33.553 52.4626 33.3653 52.4292 33.1607 52.4292H32.184V55.0719H33.1607C33.3653 55.0719 33.553 55.038 33.7239 54.97C33.8948 54.902 34.042 54.8089 34.1654 54.6906C34.2889 54.5723 34.3844 54.4321 34.4518 54.2697C34.5192 54.1073 34.5528 53.9331 34.5528 53.7468ZM34.0701 53.7544C34.0701 53.8859 34.0483 54.0066 34.0046 54.1161C33.9609 54.2263 33.8991 54.3213 33.8206 54.4005C33.742 54.4804 33.6459 54.5421 33.5337 54.5868C33.4207 54.6309 33.296 54.6529 33.1582 54.6529H32.6405V52.8483H33.1582C33.296 52.8483 33.4207 52.871 33.5337 52.9163C33.6459 52.9622 33.742 53.0251 33.8206 53.1063C33.8991 53.1868 33.9609 53.2825 34.0046 53.3925C34.0483 53.502 34.0701 53.6229 34.0701 53.7544ZM36.7899 54.4604L36.0003 52.4292H35.4913L36.5804 55.0908H36.9845L38.0735 52.4292H37.5757L36.7899 54.4604ZM40.277 52.4104H39.8503L38.6978 55.0719H39.1692L39.4386 54.4339H40.6773L40.943 55.0719H41.4296L40.277 52.4104ZM40.5089 54.0224H39.607L40.0561 52.9654L40.5089 54.0224ZM44.4787 54.2565L43.0785 52.4292H42.6525V55.0719H43.109V53.1919L44.5504 55.0719H44.9352V52.4292H44.4787V54.2565ZM48.6617 54.6491L48.3661 54.3471C48.2538 54.4528 48.1404 54.5364 48.0256 54.5982C47.9109 54.6599 47.7736 54.6906 47.614 54.6906C47.4892 54.6906 47.3738 54.6661 47.2678 54.6171C47.1617 54.568 47.0701 54.5006 46.9928 54.415C46.9154 54.3294 46.8556 54.2295 46.8131 54.1149C46.7707 54.0004 46.7494 53.8777 46.7494 53.7468C46.7494 53.6159 46.7707 53.4939 46.8131 53.3806C46.8556 53.2674 46.9154 53.1686 46.9928 53.0842C47.0701 52.9999 47.1617 52.9332 47.2678 52.8842C47.3738 52.8351 47.4892 52.8105 47.614 52.8105C47.7636 52.8105 47.8971 52.8407 48.0143 52.9011C48.1316 52.9615 48.2427 53.0409 48.3474 53.139L48.6431 52.7955C48.5807 52.735 48.5146 52.6797 48.4447 52.6294C48.3749 52.579 48.2987 52.5355 48.2165 52.4991C48.1341 52.4626 48.0437 52.4343 47.9451 52.4141C47.8466 52.394 47.7375 52.3839 47.6177 52.3839C47.4181 52.3839 47.236 52.4198 47.0713 52.4916C46.9067 52.5633 46.7645 52.6614 46.6447 52.7859C46.5249 52.9106 46.432 53.0559 46.3659 53.222C46.2998 53.3881 46.2667 53.5656 46.2667 53.7544C46.2667 53.9456 46.3003 54.1244 46.3677 54.2905C46.4351 54.4565 46.528 54.6007 46.6466 54.7227C46.7651 54.8448 46.9054 54.9411 47.0676 55.0115C47.2297 55.082 47.4068 55.1173 47.599 55.1173C47.7212 55.1173 47.8328 55.1065 47.9338 55.0852C48.035 55.0638 48.1279 55.0323 48.2127 54.9908C48.2976 54.9492 48.3768 54.9002 48.4503 54.8436C48.524 54.7869 48.5944 54.7221 48.6617 54.6491ZM51.8569 52.4292H49.9184V55.0719H51.8756V54.6529H50.3749V53.9469H51.6885V53.5279H50.3749V52.8483H51.8569V52.4292ZM57.8137 53.7468C57.8137 53.5606 57.7801 53.3868 57.7127 53.2259C57.6453 53.0648 57.55 52.925 57.4265 52.8068C57.303 52.6885 57.1558 52.596 56.9849 52.5293C56.814 52.4626 56.6262 52.4292 56.4217 52.4292H55.4449V55.0719H56.4217C56.6262 55.0719 56.814 55.038 56.9849 54.97C57.1558 54.902 57.303 54.8089 57.4265 54.6906C57.55 54.5723 57.6453 54.4321 57.7127 54.2697C57.7801 54.1073 57.8137 53.9331 57.8137 53.7468ZM57.331 53.7544C57.331 53.8859 57.3092 54.0066 57.2655 54.1161C57.2219 54.2263 57.1602 54.3213 57.0815 54.4005C57.003 54.4804 56.9069 54.5421 56.7946 54.5868C56.6818 54.6309 56.557 54.6529 56.4192 54.6529H55.9014V52.8483H56.4192C56.557 52.8483 56.6818 52.871 56.7946 52.9163C56.9069 52.9622 57.003 53.0251 57.0815 53.1063C57.1602 53.1868 57.2219 53.2825 57.2655 53.3925C57.3092 53.502 57.331 53.6229 57.331 53.7544ZM61.0837 52.4292H59.1452V55.0719H61.1025V54.6529H59.6018V53.9469H60.9153V53.5279H59.6018V52.8483H61.0837V52.4292ZM62.4264 55.0719H64.2601V54.6529H62.8829V52.4292H62.4264V55.0719ZM65.543 52.4292V55.0719H65.9995V52.4292H65.543ZM68.551 54.4604L67.7614 52.4292H67.2524L68.3414 55.0908H68.7456L69.8345 52.4292H69.3369L68.551 54.4604ZM72.996 52.4292H71.0576V55.0719H73.0148V54.6529H71.5141V53.9469H72.8276V53.5279H71.5141V52.8483H72.996V52.4292ZM76.5616 55.0719L75.8543 54.0715C75.9467 54.0463 76.0309 54.0105 76.107 53.9639C76.183 53.9173 76.2486 53.8607 76.3034 53.7941C76.3583 53.7274 76.4013 53.6506 76.4325 53.5637C76.4637 53.4768 76.4792 53.3781 76.4792 53.2674C76.4792 53.139 76.4569 53.0225 76.412 52.9182C76.367 52.8137 76.3027 52.7256 76.2192 52.6538C76.1356 52.5822 76.0333 52.5267 75.9123 52.4878C75.7914 52.4488 75.656 52.4292 75.5063 52.4292H74.3387V55.0719H74.7952V54.1508H75.3735L76.0189 55.0719H76.5616ZM76.0115 53.2919C76.0115 53.4285 75.9629 53.5373 75.8649 53.6179C75.7676 53.6989 75.6361 53.7393 75.4708 53.7393H74.7952V52.8483H75.467C75.6398 52.8483 75.7739 52.8855 75.8687 52.9603C75.9641 53.0346 76.0115 53.1453 76.0115 53.2919ZM78.9596 54.0186L80 52.4292H79.4723L78.7314 53.5996L77.9979 52.4292H77.4552L78.4956 54.03V55.0719H78.9596V54.0186Z" fill="black"/>
</g>
<defs>
<clipPath id="clip0_1801_11465">
<rect width="80" height="55.1173" fill="white"/>
</clipPath>
</defs>
</svg>
