<svg width="80" height="19" viewBox="0 0 80 19" fill="none" xmlns="http://www.w3.org/2000/svg">
<g clip-path="url(#clip0_1801_11452)">
<path fill-rule="evenodd" clip-rule="evenodd" d="M18.2338 0H13.0788L9.71141 14.7524H1.84456L0 18.3478H14.1172L18.2338 0ZM69.0385 11.7188C67.8821 12.3296 67.0596 13.4535 66.8397 14.7442C66.8397 14.7524 66.8397 14.7565 66.8397 14.7646C66.6606 15.8111 66.8356 16.7395 67.3243 17.3543C67.8129 17.9895 68.6069 18.3153 69.7755 18.3153C70.6225 18.3153 71.5061 18.0832 71.9825 17.9122L72.5892 14.1579H70.3945L70.1827 15.4161H71.1315L70.8912 16.9105C70.765 16.9756 70.3497 17.0123 70.0158 17.0123C69.1037 17.0123 68.4929 16.5033 68.3585 15.6075C68.3504 15.5545 68.3463 15.4975 68.3463 15.4405C68.3504 13.8118 69.2584 13.1236 69.2584 13.1236C69.3154 13.0666 69.3724 13.0096 69.4376 12.9608C69.4376 12.9608 69.9506 12.4355 71.1925 12.3826C71.5387 12.3663 71.9377 12.3866 72.3978 12.4681C72.5526 12.4966 72.7113 12.5251 72.8783 12.5658L73.1267 11.2994C73.1267 11.2994 72.9923 11.2628 72.7602 11.218H72.7358C72.0354 11.0918 70.4881 10.9533 69.0345 11.7188H69.0385ZM52.519 12.35C52.8447 12.35 53.1216 12.3948 53.3537 12.4599L53.655 11.1325C53.3863 11.0755 53.0564 11.0388 52.6778 11.0388C50.6092 11.0388 48.7158 12.3703 48.3005 14.7646C47.9503 16.7639 48.9031 18.2827 51.2607 18.2827C51.6516 18.2827 52.0018 18.246 52.3031 18.189L52.5393 16.9675L52.5597 16.8698C52.295 16.9227 52.0018 16.9593 51.729 16.9593C50.54 16.9593 49.8926 16.2997 49.8926 15.2166C49.8926 15.0456 49.9089 14.8623 49.9415 14.6669C50.2143 13.1073 51.2974 12.3459 52.523 12.3459L52.519 12.35ZM78.2939 14.6954C78.0577 16.0798 77.2841 17.1181 76.2417 17.1181C75.1993 17.1181 74.7554 16.1368 74.9916 14.7402C75.2278 13.3557 76.0136 12.3174 77.052 12.3174C78.0903 12.3174 78.5097 13.4168 78.2898 14.6954H78.2939ZM77.3166 11.0388C79.4055 11.0388 80.2687 12.6757 79.9308 14.6424C79.5317 16.9797 77.9356 18.3967 75.9444 18.3967C73.9533 18.3967 73.0167 16.8005 73.3629 14.7687C73.7293 12.635 75.3051 11.0348 77.3166 11.0348V11.0388ZM64.5839 13.2906C64.474 13.9136 63.9283 14.3167 63.1343 14.3167H62.5072L62.8574 12.35C62.9755 12.3296 63.2035 12.297 63.5904 12.297C64.3233 12.3093 64.702 12.635 64.588 13.2906H64.5839ZM63.6229 11.104C62.7719 11.104 61.9983 11.1691 61.4689 11.2506L60.2189 18.2827H61.8028L62.2996 15.4812H62.7801C63.4275 15.4935 63.6881 15.7337 63.7207 16.6214C63.7736 17.4968 63.8388 18.071 63.9161 18.2827H65.553C65.4675 18.0058 65.4105 17.0774 65.3331 16.2753C65.2721 15.6197 65.0847 15.1433 64.6287 14.9438V14.9112C65.2802 14.6872 66.0335 14.0642 66.1923 13.1562C66.3104 12.5006 66.1679 12.0039 65.8095 11.6659C65.3779 11.2628 64.6735 11.104 63.6229 11.104ZM55.98 15.2491L56.6682 13.7385C56.8555 13.3272 57.0591 12.7857 57.2383 12.3622H57.2586C57.2871 12.7857 57.3197 13.315 57.3686 13.7385L57.5396 15.2491H55.976H55.98ZM58.582 11.1569L59.5063 18.2827H57.7839L57.564 16.4544H55.5362L54.7056 18.2827H53.0442L56.4809 11.1569H58.582ZM25.2619 15.3672C23.7797 15.3672 22.2609 14.3859 22.2609 13.2132C22.2609 12.4233 23.0305 11.3076 24.6837 10.367L28.1448 14.4633C28.1448 14.4633 26.74 15.3672 25.2619 15.3672ZM32.86 14.4836L36.0727 18.3478H31.2475L30.2458 17.2525C28.898 18.0424 26.2473 18.4456 25.0542 18.4456C21.2063 18.4456 17.9203 16.886 17.9203 13.5593C17.9203 10.2326 22.3057 7.47595 22.3057 7.47595C19.602 4.7193 20.6322 1.30707 20.6322 1.30707L20.9661 0H32.6971C32.6971 0 31.5611 2.04001 29.9282 4.92289C30.6204 2.82588 28.7148 2.36576 27.9289 2.36576C25.95 2.36576 25.0827 4.13702 25.0827 4.86588C25.0827 5.59475 25.3515 6.17295 25.6976 6.78781C26.0437 7.40266 29.0243 10.3466 29.4111 10.6154C29.7939 10.8841 30.1237 11.2506 30.3924 11.2872C31.219 9.86207 31.1213 8.22925 31.1213 8.22925C31.1213 8.22925 31.2353 8.30661 34.7941 9.38159C34.7941 11.8043 32.8518 14.4796 32.8518 14.4796L32.86 14.4836ZM47.9585 3.59953H53.2478L51.8837 4.96361H45.9592L42.5551 18.4456H37.5345L40.8612 4.96361H32.803L35.4375 0H56.8433L55.6909 1.15234H50.3812L49.689 1.92192H54.9214L54.0174 2.82588H48.6507L47.9585 3.59546V3.59953Z" fill="#008037"/>
</g>
<defs>
<clipPath id="clip0_1801_11452">
<rect width="80.002" height="18.4456" fill="white"/>
</clipPath>
</defs>
</svg>
