<svg width="80" height="18" viewBox="0 0 80 18" fill="none" xmlns="http://www.w3.org/2000/svg">
<g clip-path="url(#clip0_1801_11065)">
<path fill-rule="evenodd" clip-rule="evenodd" d="M30.6349 4.6012H37.4799L34.1114 16.6722H38.8489L42.2174 4.6012H47.7446L49.017 3.16403H44.5408L45.1315 2.49374H49.6191L50.2553 1.77799H45.6598L46.2506 0.829352H51.0961L51.8345 0H32.7424L30.6349 4.6012Z" fill="#ED3237"/>
<path fill-rule="evenodd" clip-rule="evenodd" d="M12.9572 16.837H0L1.98817 13.6218L9.44098 13.6673L12.8322 0.124971H17.1551L13.6957 13.6673L12.9572 16.837Z" fill="#ED3237"/>
<path fill-rule="evenodd" clip-rule="evenodd" d="M33.0945 16.6666H28.891L28.1695 15.8656C26.1643 17.0642 23.7672 17.672 21.3814 17.3198C18.4445 16.7404 16.6779 14.9567 16.9278 12.0426C17.3198 10.009 18.2116 8.31056 19.5295 6.9018C18.0583 3.95362 18.5979 1.93137 19.5409 0.0965681H29.7033L28.0048 3.97066C26.6869 1.31219 22.5175 1.98249 22.6822 5.53848L27.6583 11.0429C28.0843 10.5203 28.5161 9.32737 28.9421 7.97541L32.0664 9.53187C31.5949 10.9634 31.0552 12.3892 30.3168 13.5821L30.3281 13.5934L33.0945 16.6666ZM25.6872 13.0992L21.8358 9.09447C17.8367 11.9915 21.8926 16.7177 25.6872 13.0992Z" fill="#ED3237"/>
<path fill-rule="evenodd" clip-rule="evenodd" d="M49.5055 10.3555C49.5055 10.3783 49.5055 10.4123 49.4998 10.4635C49.4941 10.5089 49.4884 10.5657 49.4771 10.6282C49.4657 10.685 49.4544 10.7475 49.4373 10.8157C49.4203 10.8838 49.4032 10.9406 49.3748 10.9974C49.3521 11.0486 49.3237 11.094 49.2896 11.1338C49.2555 11.1679 49.2158 11.1849 49.176 11.1849H46.9095L46.5971 12.7357H48.5228C48.5682 12.7357 48.6023 12.7527 48.6193 12.7811C48.642 12.8152 48.6534 12.8606 48.6534 12.9174C48.6534 12.9458 48.6477 12.9799 48.6477 13.0254C48.642 13.0708 48.6307 13.1276 48.6193 13.1901C48.6136 13.2469 48.6023 13.3094 48.5852 13.3719C48.5682 13.4344 48.5455 13.4912 48.5228 13.5423C48.5 13.5934 48.4659 13.6389 48.4375 13.6729C48.4035 13.7014 48.3694 13.7184 48.3296 13.7184H46.4039L46.0461 15.5077H48.341C48.3807 15.5077 48.4148 15.5248 48.4319 15.5646C48.4489 15.593 48.4603 15.6441 48.4603 15.7122C48.4603 15.735 48.4603 15.7691 48.4546 15.8202C48.4546 15.8713 48.4432 15.9281 48.4319 15.9849C48.4205 16.0474 48.4091 16.1099 48.3921 16.1724C48.3751 16.2349 48.358 16.2917 48.3296 16.3485C48.3069 16.3996 48.2785 16.445 48.2444 16.4791C48.2103 16.5075 48.1762 16.5246 48.1365 16.5246H44.9384C44.8872 16.5246 44.8418 16.5189 44.7964 16.5018C44.7509 16.4905 44.7168 16.4621 44.6941 16.428C44.6657 16.3939 44.643 16.3541 44.6373 16.303C44.6259 16.2519 44.6259 16.1894 44.6373 16.1156L45.745 10.5771C45.7734 10.4351 45.8359 10.3271 45.9268 10.2647C46.012 10.2022 46.1142 10.1681 46.2222 10.1681H49.3805C49.4657 10.1681 49.5055 10.2306 49.5055 10.3555ZM53.1353 13.2469L54.1124 16.0247C54.1464 16.144 54.1692 16.2349 54.1748 16.3087C54.1805 16.3769 54.1578 16.4337 54.1124 16.4678C54.0669 16.5075 53.9931 16.5302 53.8908 16.5416C53.7829 16.553 53.6409 16.553 53.4534 16.553C53.3171 16.553 53.2148 16.553 53.1353 16.5473C53.0558 16.5416 52.999 16.5302 52.9535 16.5132C52.9081 16.4962 52.8797 16.4791 52.8627 16.4507C52.8399 16.428 52.8286 16.3939 52.8115 16.3541L52.039 14.0422L50.4087 16.3541C50.3803 16.3939 50.3519 16.428 50.3178 16.4507C50.2894 16.4791 50.2439 16.4962 50.1871 16.5132C50.1303 16.5302 50.0508 16.5416 49.9599 16.5473C49.8634 16.553 49.7441 16.553 49.5964 16.553C49.426 16.553 49.2896 16.553 49.1931 16.5416C49.0965 16.5302 49.0283 16.5075 48.9999 16.4734C48.9715 16.4393 48.9715 16.3825 49.0056 16.3144C49.034 16.2462 49.0908 16.1553 49.176 16.0417L51.2664 13.2412L50.3803 10.6566C50.3462 10.543 50.3235 10.4521 50.3178 10.3783C50.3121 10.3101 50.3348 10.259 50.3803 10.2249C50.42 10.1851 50.4939 10.1624 50.6018 10.1567C50.7041 10.1454 50.8518 10.1397 51.0335 10.1397C51.1699 10.1397 51.2835 10.1454 51.363 10.151C51.4425 10.1567 51.505 10.1681 51.5505 10.1851C51.5959 10.2022 51.63 10.2249 51.647 10.2533C51.6697 10.2817 51.6868 10.3215 51.6982 10.3669L52.3741 12.4403L53.8624 10.3385C53.8851 10.3044 53.9135 10.2703 53.9476 10.2419C53.976 10.2192 54.0158 10.1965 54.0669 10.1794C54.1237 10.1681 54.1919 10.1567 54.2771 10.151C54.3623 10.1454 54.4759 10.1397 54.6179 10.1397C54.7997 10.1397 54.9417 10.1454 55.044 10.1567C55.1462 10.1624 55.2087 10.1851 55.2428 10.2249C55.2712 10.259 55.2712 10.3101 55.2428 10.3783C55.2144 10.4521 55.1576 10.543 55.078 10.6566L53.1353 13.2469ZM60.2757 11.7302C60.2757 11.912 60.253 12.1051 60.2132 12.304C60.1734 12.5028 60.1053 12.7016 60.0144 12.889C59.9235 13.0822 59.8042 13.264 59.6565 13.4344C59.5088 13.6048 59.3327 13.7582 59.1226 13.8945C58.9124 14.0251 58.6624 14.1331 58.3841 14.2069C58.1057 14.2864 57.782 14.3205 57.407 14.3205H56.7424L56.3334 16.3541C56.3278 16.3882 56.3107 16.4166 56.288 16.445C56.2596 16.4678 56.2198 16.4905 56.163 16.5075C56.1062 16.5246 56.038 16.5359 55.9528 16.5416C55.8676 16.553 55.7597 16.553 55.6404 16.553C55.5154 16.553 55.4189 16.553 55.3337 16.5416C55.2541 16.5359 55.1917 16.5246 55.1462 16.5075C55.1008 16.4905 55.0724 16.4678 55.0553 16.445C55.0383 16.4223 55.0326 16.3882 55.044 16.3541L56.1914 10.6339C56.2198 10.4805 56.2823 10.3612 56.3846 10.2874C56.4811 10.2078 56.6004 10.1681 56.7424 10.1681H58.1341C58.3046 10.1681 58.4579 10.1738 58.5886 10.1851C58.7249 10.1965 58.8556 10.2192 58.9862 10.2419C59.185 10.2817 59.3668 10.3442 59.5259 10.4237C59.6849 10.5089 59.8156 10.6112 59.9292 10.7305C60.0428 10.8554 60.128 10.9974 60.1848 11.1679C60.2416 11.3326 60.2757 11.52 60.2757 11.7302ZM58.9181 11.8722C58.9181 11.7189 58.8783 11.5825 58.8044 11.4632C58.7306 11.3496 58.6113 11.2701 58.4579 11.2247C58.3841 11.2019 58.3102 11.1849 58.225 11.1792C58.1398 11.1679 58.0433 11.1679 57.941 11.1679H57.373L56.9412 13.3264H57.532C57.7195 13.3264 57.8785 13.3037 58.0092 13.2583C58.1455 13.2185 58.2591 13.156 58.3614 13.0879C58.4636 13.014 58.5488 12.9288 58.617 12.8322C58.6908 12.73 58.7476 12.6277 58.7931 12.5198C58.8329 12.4119 58.8669 12.3039 58.884 12.1903C58.9067 12.0824 58.9181 11.9745 58.9181 11.8722ZM65.7062 11.5541C65.7062 11.77 65.6778 11.9745 65.621 12.179C65.5642 12.3892 65.4733 12.5823 65.3484 12.7641C65.2234 12.9515 65.0587 13.1163 64.8655 13.264C64.6667 13.4116 64.4225 13.5309 64.1384 13.6161C64.2975 13.6786 64.4281 13.8036 64.5361 13.9854C64.644 14.1728 64.7349 14.4228 64.803 14.7466L65.0473 16.036C65.0644 16.1099 65.0757 16.1724 65.0871 16.2292C65.0984 16.286 65.1041 16.3371 65.1041 16.3769C65.1041 16.4053 65.0928 16.4337 65.07 16.4564C65.0473 16.4791 65.0132 16.4962 64.9507 16.5132C64.8939 16.5302 64.8201 16.5416 64.7235 16.5473C64.6269 16.553 64.502 16.553 64.3543 16.553C64.218 16.553 64.1043 16.553 64.0248 16.5416C63.9453 16.5359 63.8771 16.5246 63.8317 16.5018C63.7862 16.4848 63.7578 16.4621 63.7465 16.4337C63.7294 16.4053 63.7181 16.3712 63.7124 16.3314L63.4681 14.9227C63.4454 14.7579 63.4056 14.6159 63.3602 14.4909C63.3204 14.366 63.258 14.2637 63.1898 14.1785C63.1216 14.0933 63.0364 14.0308 62.9398 13.9911C62.8376 13.9513 62.7183 13.9286 62.5763 13.9286H62.1673L61.6845 16.3541C61.6845 16.3882 61.6674 16.4166 61.639 16.445C61.6106 16.4678 61.5708 16.4905 61.5197 16.5075C61.4629 16.5246 61.3948 16.5359 61.3095 16.5416C61.2243 16.553 61.1164 16.553 60.9914 16.553C60.8665 16.553 60.7699 16.553 60.6904 16.5416C60.6052 16.5359 60.5427 16.5246 60.4972 16.5075C60.4518 16.4905 60.4234 16.4678 60.4063 16.445C60.3893 16.4223 60.3836 16.3882 60.395 16.3541L61.5538 10.5771C61.5822 10.4351 61.639 10.3271 61.7242 10.2647C61.8151 10.2022 61.923 10.1681 62.0423 10.1681H63.7465C64.0475 10.1681 64.3145 10.1965 64.5588 10.2533C64.7974 10.3101 65.0019 10.3953 65.1723 10.5089C65.3484 10.6225 65.479 10.7702 65.5699 10.9406C65.6608 11.1167 65.7062 11.3212 65.7062 11.5541ZM64.3202 11.7984C64.3202 11.7075 64.3032 11.6223 64.2691 11.5428C64.2407 11.4632 64.1896 11.3951 64.1214 11.3326C64.0532 11.2758 63.9623 11.236 63.8544 11.2019C63.7408 11.1679 63.6101 11.1565 63.4568 11.1565H62.724L62.3604 12.9629H62.9796C63.2239 12.9629 63.4341 12.9288 63.6045 12.8606C63.7749 12.7868 63.9112 12.6959 64.0191 12.5823C64.1214 12.4744 64.2009 12.3494 64.2464 12.2131C64.2975 12.0767 64.3202 11.9404 64.3202 11.7984ZM70.9664 10.3555C70.9664 10.3783 70.9664 10.4123 70.9607 10.4635C70.955 10.5089 70.9437 10.5657 70.938 10.6282C70.9266 10.685 70.9153 10.7475 70.8982 10.8157C70.8812 10.8838 70.8585 10.9406 70.8357 10.9974C70.813 11.0486 70.7789 11.094 70.7448 11.1338C70.7108 11.1679 70.6767 11.1849 70.6369 11.1849H68.3704L68.058 12.7357H69.9837C70.0291 12.7357 70.0632 12.7527 70.0802 12.7811C70.1029 12.8152 70.1086 12.8606 70.1086 12.9174C70.1086 12.9458 70.1086 12.9799 70.103 13.0254C70.0973 13.0708 70.0916 13.1276 70.0802 13.1901C70.0745 13.2469 70.0575 13.3094 70.0405 13.3719C70.0234 13.4344 70.0064 13.4912 69.978 13.5423C69.9553 13.5934 69.9269 13.6389 69.8928 13.6729C69.8587 13.7014 69.8246 13.7184 69.7848 13.7184H67.8592L67.5013 15.5077H69.8019C69.8416 15.5077 69.8701 15.5248 69.8871 15.5646C69.9098 15.593 69.9212 15.6441 69.9212 15.7122C69.9212 15.735 69.9155 15.7691 69.9155 15.8202C69.9098 15.8713 69.9041 15.9281 69.8928 15.9849C69.8814 16.0474 69.87 16.1099 69.853 16.1724C69.836 16.2349 69.8132 16.2917 69.7905 16.3485C69.7678 16.3996 69.7394 16.445 69.7053 16.4791C69.6712 16.5075 69.6371 16.5246 69.5917 16.5246H66.3993C66.3481 16.5246 66.297 16.5189 66.2573 16.5018C66.2118 16.4905 66.1777 16.4621 66.1493 16.428C66.1209 16.3939 66.1039 16.3541 66.0925 16.303C66.0812 16.2519 66.0868 16.1894 66.0982 16.1156L67.2059 10.5771C67.2343 10.4351 67.2911 10.3271 67.382 10.2647C67.4729 10.2022 67.5751 10.1681 67.6831 10.1681H70.8357C70.9209 10.1681 70.9664 10.2306 70.9664 10.3555ZM75.312 10.6566C75.312 10.685 75.3063 10.7248 75.3006 10.7759C75.2949 10.8213 75.2892 10.8781 75.2779 10.935C75.2722 10.9918 75.2552 11.0542 75.2438 11.1167C75.2268 11.1735 75.2097 11.2303 75.187 11.2815C75.1643 11.3326 75.1415 11.3723 75.1131 11.4064C75.0847 11.4405 75.0563 11.4576 75.0279 11.4576C74.9825 11.4576 74.9257 11.4348 74.8575 11.3951C74.7894 11.3553 74.7041 11.3099 74.6019 11.2587C74.4996 11.2133 74.386 11.1679 74.2497 11.1281C74.1191 11.0826 73.9657 11.0656 73.7953 11.0656C73.6192 11.0656 73.4715 11.0883 73.3465 11.1394C73.2272 11.1849 73.125 11.2531 73.0454 11.3326C72.9659 11.4121 72.9091 11.503 72.875 11.6052C72.8353 11.7018 72.8182 11.8041 72.8182 11.9063C72.8182 12.0199 72.8466 12.1279 72.9034 12.2187C72.9659 12.3096 73.0398 12.3892 73.142 12.4687C73.2386 12.5425 73.3522 12.6164 73.4772 12.6902C73.6021 12.7641 73.7328 12.8379 73.8634 12.9174C73.9884 12.9913 74.1191 13.0822 74.244 13.1731C74.369 13.2696 74.4826 13.3719 74.5849 13.4969C74.6814 13.6218 74.761 13.7582 74.8178 13.9172C74.8746 14.0763 74.9086 14.2637 74.9086 14.4682C74.9086 14.775 74.8462 15.059 74.7212 15.326C74.5962 15.5873 74.4201 15.8145 74.1929 16.0133C73.96 16.2064 73.6873 16.3598 73.3635 16.4678C73.0398 16.5814 72.6819 16.6382 72.2899 16.6382C72.0741 16.6382 71.8809 16.6211 71.6992 16.5814C71.5231 16.553 71.3583 16.5075 71.222 16.4564C71.0857 16.4109 70.9664 16.3598 70.8755 16.303C70.7789 16.2462 70.7051 16.1951 70.6596 16.1496C70.6142 16.0985 70.5915 16.0247 70.5915 15.9281C70.5915 15.8997 70.5971 15.8599 70.6028 15.8088C70.6085 15.752 70.6199 15.6952 70.6312 15.6384C70.6426 15.5759 70.654 15.5134 70.671 15.4509C70.688 15.3885 70.7051 15.326 70.7278 15.2748C70.7505 15.2237 70.7789 15.1783 70.8073 15.1442C70.8357 15.1158 70.8641 15.0988 70.8925 15.0988C70.9493 15.0988 71.0175 15.1215 71.0914 15.1726C71.1709 15.2237 71.2674 15.2805 71.3811 15.343C71.4947 15.3998 71.631 15.4623 71.7901 15.5134C71.9434 15.5646 72.1309 15.593 72.3524 15.593C72.5456 15.593 72.716 15.5646 72.8637 15.5191C73.0114 15.468 73.1307 15.3998 73.2272 15.3146C73.3295 15.2294 73.4033 15.1328 73.4544 15.0192C73.5056 14.9113 73.5283 14.7863 73.5283 14.6557C73.5283 14.5307 73.4999 14.4228 73.4431 14.3376C73.3806 14.241 73.3067 14.1615 73.2102 14.0819C73.1136 14.0024 73 13.9286 72.8807 13.8604C72.7557 13.7922 72.6308 13.7241 72.5058 13.6445C72.3751 13.565 72.2502 13.4798 72.1309 13.3889C72.0059 13.298 71.898 13.1901 71.8014 13.0651C71.7048 12.9402 71.6253 12.8038 71.5685 12.6391C71.506 12.48 71.4776 12.2926 71.4776 12.0824C71.4776 11.787 71.5344 11.5144 71.6537 11.2644C71.773 11.0202 71.9377 10.8043 72.1422 10.6282C72.3524 10.4464 72.6024 10.3101 72.8921 10.2078C73.1818 10.1113 73.5056 10.0602 73.8521 10.0602C74.0168 10.0602 74.1759 10.0715 74.3236 10.0942C74.4712 10.1226 74.6076 10.151 74.7269 10.1908C74.8462 10.2249 74.9541 10.2703 75.0393 10.3158C75.1245 10.3612 75.1813 10.401 75.2154 10.4294C75.2495 10.4635 75.2722 10.4976 75.2892 10.526C75.3006 10.5657 75.312 10.6055 75.312 10.6566ZM79.987 10.6566C79.987 10.685 79.987 10.7248 79.9813 10.7759C79.9756 10.8213 79.97 10.8781 79.9586 10.935C79.9472 10.9918 79.9359 11.0542 79.9188 11.1167C79.9075 11.1735 79.8848 11.2303 79.8677 11.2815C79.845 11.3326 79.8166 11.3723 79.7939 11.4064C79.7655 11.4405 79.7371 11.4576 79.7087 11.4576C79.6632 11.4576 79.6064 11.4348 79.5326 11.3951C79.4644 11.3553 79.3792 11.3099 79.2826 11.2587C79.1804 11.2133 79.0668 11.1679 78.9304 11.1281C78.7941 11.0826 78.6464 11.0656 78.476 11.0656C78.2999 11.0656 78.1465 11.0883 78.0272 11.1394C77.9023 11.1849 77.8057 11.2531 77.7262 11.3326C77.6466 11.4121 77.5898 11.503 77.5501 11.6052C77.516 11.7018 77.4933 11.8041 77.4933 11.9063C77.4933 12.0199 77.5274 12.1279 77.5842 12.2187C77.641 12.3096 77.7205 12.3892 77.8227 12.4687C77.9193 12.5425 78.0329 12.6164 78.1579 12.6902C78.2829 12.7641 78.4135 12.8379 78.5385 12.9174C78.6691 12.9913 78.7998 13.0822 78.9248 13.1731C79.0497 13.2696 79.1633 13.3719 79.2599 13.4969C79.3622 13.6218 79.4417 13.7582 79.4985 13.9172C79.5553 14.0763 79.5894 14.2637 79.5894 14.4682C79.5894 14.775 79.5269 15.059 79.4019 15.326C79.2769 15.5873 79.1008 15.8145 78.8736 16.0133C78.6407 16.2064 78.3681 16.3598 78.0443 16.4678C77.7205 16.5814 77.3626 16.6382 76.965 16.6382C76.7548 16.6382 76.5617 16.6211 76.3799 16.5814C76.1981 16.553 76.0391 16.5075 75.9027 16.4564C75.7664 16.4109 75.6471 16.3598 75.5505 16.303C75.4596 16.2462 75.3858 16.1951 75.3404 16.1496C75.2949 16.0985 75.2722 16.0247 75.2722 15.9281C75.2722 15.8997 75.2779 15.8599 75.2836 15.8088C75.2892 15.752 75.3006 15.6952 75.312 15.6384C75.3233 15.5759 75.3347 15.5134 75.3517 15.4509C75.3688 15.3885 75.3858 15.326 75.4085 15.2748C75.4313 15.2237 75.4597 15.1783 75.4824 15.1442C75.5108 15.1158 75.5392 15.0988 75.5733 15.0988C75.6301 15.0988 75.6926 15.1215 75.7721 15.1726C75.8516 15.2237 75.9425 15.2805 76.0618 15.343C76.1754 15.3998 76.3117 15.4623 76.4708 15.5134C76.6242 15.5646 76.8116 15.593 77.0331 15.593C77.2263 15.593 77.3967 15.5646 77.5444 15.5191C77.6864 15.468 77.8114 15.3998 77.9079 15.3146C78.0102 15.2294 78.084 15.1328 78.1295 15.0192C78.1863 14.9113 78.209 14.7863 78.209 14.6557C78.209 14.5307 78.1806 14.4228 78.1181 14.3376C78.0613 14.241 77.9875 14.1615 77.8852 14.0819C77.7943 14.0024 77.6807 13.9286 77.5614 13.8604C77.4365 13.7922 77.3115 13.7241 77.1808 13.6445C77.0559 13.565 76.9309 13.4798 76.8059 13.3889C76.6866 13.298 76.573 13.1901 76.4821 13.0651C76.3799 12.9402 76.306 12.8038 76.2492 12.6391C76.1868 12.48 76.1584 12.2926 76.1584 12.0824C76.1584 11.787 76.2152 11.5144 76.3344 11.2644C76.4537 11.0202 76.6128 10.8043 76.823 10.6282C77.0331 10.4464 77.2831 10.3101 77.5728 10.2078C77.8625 10.1113 78.1863 10.0602 78.5328 10.0602C78.6975 10.0602 78.8566 10.0715 79.0043 10.0942C79.152 10.1226 79.2826 10.151 79.4076 10.1908C79.5269 10.2249 79.6348 10.2703 79.72 10.3158C79.8052 10.3612 79.862 10.401 79.8961 10.4294C79.9302 10.4635 79.9529 10.4976 79.97 10.526C79.9813 10.5657 79.987 10.6055 79.987 10.6566Z" fill="#ED3237"/>
</g>
<defs>
<clipPath id="clip0_1801_11065">
<rect width="79.987" height="17.4191" fill="white"/>
</clipPath>
</defs>
</svg>
