<svg width="80" height="32" viewBox="0 0 80 32" fill="none" xmlns="http://www.w3.org/2000/svg">
<g clip-path="url(#clip0_1801_11564)">
<path d="M23.3953 18.6417C24.1922 18.5291 24.9907 18.4212 25.7891 18.318L26.7062 13.8695C25.8924 14.0837 25.0801 14.3026 24.2693 14.5292L23.3953 18.6417ZM0 23.5726C2.50323 22.8281 5.03266 22.1499 7.60371 21.5456L7.93819 19.9719C7.75322 20.0459 7.56671 20.1183 7.38175 20.1923C4.89085 21.1896 2.36913 22.2485 0 23.5726ZM44.4724 11.3031L44.7575 9.92043C44.4477 9.97284 44.1379 10.0283 43.8281 10.0823L44.4724 11.3031ZM78.1503 7.42183C73.8175 7.42183 69.5 7.51431 65.1964 7.73473C62.1645 7.89041 59.1387 8.10929 56.1191 8.40678C55.3978 8.47768 54.6764 8.55321 53.9566 8.63336L52.3859 16.0228C53.1134 15.9843 53.8425 15.9488 54.57 15.9165C57.548 15.7824 60.5275 15.6976 63.5071 15.6822C64.1637 15.6791 64.8188 15.6775 65.4754 15.6822C67.5918 15.6945 73.6032 15.6822 78.3106 15.6729H78.3692L79.9985 7.42337H78.1503V7.42183ZM34.8756 17.3068C36.0717 17.1927 37.2694 17.0848 38.4671 16.9847L35.9469 12.2695L34.8772 17.3068H34.8756Z" fill="#EC2C25"/>
<path d="M6.77598 29.2434H8.58249L8.70426 28.374H6.90237L7.07655 27.1841H8.93856L9.06033 26.3163H6.48157L5.74941 31.5262H8.46997L8.59174 30.6568H6.56943L6.77598 29.2434Z" fill="#313B97"/>
<path d="M13.088 26.3163H12.1786L11.6314 27.2226C11.5004 27.443 11.3385 27.7251 11.1458 28.0704C11.135 28.0303 11.1243 27.9995 11.115 27.9764C10.9701 27.5401 10.8915 27.3058 10.8792 27.2704L10.5354 26.3147H9.77707L10.6526 28.9074L9.11119 31.5262H10.0453L10.5185 30.7447C10.7713 30.3224 10.9285 30.0434 10.9886 29.9093C11.0333 30.0834 11.1273 30.3686 11.2661 30.7694L11.5343 31.5262H12.345L11.4865 29.0553L13.0865 26.3147L13.088 26.3163Z" fill="#313B97"/>
<path d="M15.619 26.4488C15.4725 26.3594 15.2737 26.3147 15.0224 26.3147H13.609L12.8768 31.5247H13.5951L13.8726 29.5501H14.3304C14.6386 29.5501 14.8498 29.5378 14.9623 29.5147C15.155 29.4746 15.3091 29.416 15.4232 29.339C15.5373 29.2619 15.6436 29.1478 15.7423 28.9983C15.8409 28.8488 15.9242 28.6484 15.992 28.3987C16.0598 28.149 16.0937 27.8916 16.0937 27.628C16.0937 27.3428 16.0506 27.0978 15.9658 26.8912C15.881 26.6862 15.7654 26.5382 15.619 26.4488ZM15.2644 28.2353C15.192 28.391 15.0934 28.5051 14.967 28.576C14.8406 28.6469 14.5909 28.6823 14.2148 28.6823H13.9959L14.207 27.1841H14.7157C14.9469 27.1841 15.0949 27.2026 15.1627 27.2396C15.229 27.2766 15.2814 27.3351 15.3184 27.4153C15.3554 27.4954 15.3739 27.5987 15.3739 27.7236C15.3739 27.9101 15.3384 28.0812 15.266 28.2369L15.2644 28.2353Z" fill="#313B97"/>
<path d="M19.0454 26.438C18.8959 26.3563 18.6878 26.3147 18.4196 26.3147H16.8613L16.1291 31.5246H16.8474L17.1511 29.3682H17.447C17.6181 29.3682 17.7383 29.4021 17.8077 29.4715C17.9202 29.5871 18.025 29.8137 18.1252 30.1497C18.3086 30.7724 18.4304 31.2318 18.4936 31.5246H19.2628C19.0655 30.7802 18.8867 30.2052 18.7264 29.7967C18.6447 29.5948 18.5584 29.433 18.4674 29.3097C18.8281 29.2403 19.0978 29.063 19.2766 28.7748C19.4554 28.4866 19.5448 28.1212 19.5448 27.6789C19.5448 27.369 19.4986 27.1039 19.4077 26.8866C19.3167 26.6692 19.195 26.5197 19.047 26.4365L19.0454 26.438ZM18.7325 28.1582C18.6601 28.3047 18.5599 28.4126 18.4304 28.4819C18.3025 28.5513 18.042 28.5852 17.6489 28.5852H17.2621L17.4594 27.1841H18.264C18.4782 27.1841 18.6185 27.2118 18.6832 27.2689C18.788 27.3644 18.8404 27.5062 18.8404 27.6958C18.8404 27.8577 18.8034 28.0118 18.731 28.1582L18.7325 28.1582Z" fill="#313B97"/>
<path d="M19.8085 31.5262H22.5275L22.6508 30.6568H20.6285L20.8351 29.2434H22.6416L22.7633 28.374H20.9614L21.1356 27.1841H22.9976L23.1194 26.3163H20.5406L19.8085 31.5262Z" fill="#313B97"/>
<path d="M24.8242 27.0716C25.0292 27.0716 25.1833 27.1378 25.2881 27.2704C25.3714 27.3768 25.4269 27.5216 25.4546 27.702H26.1498C26.1159 27.2689 25.9956 26.9174 25.7845 26.6492C25.5579 26.361 25.2388 26.2176 24.8273 26.2176C24.4157 26.2176 24.1121 26.3625 23.8978 26.6523C23.6836 26.9421 23.5772 27.3074 23.5772 27.7482C23.5772 28.001 23.6126 28.2199 23.6851 28.4079C23.7575 28.596 23.8562 28.7486 23.9826 28.8657C24.109 28.9829 24.3094 29.1309 24.5837 29.3066C24.8581 29.4823 25.0261 29.6102 25.0862 29.6888C25.1386 29.7536 25.1741 29.8291 25.1941 29.9108C25.208 29.9648 25.2172 30.0202 25.2172 30.0819C25.2172 30.2607 25.1633 30.4133 25.0585 30.5382C24.9521 30.6646 24.7795 30.7278 24.5421 30.7278C24.2554 30.7278 24.0597 30.6353 23.9533 30.4488C23.8963 30.3501 23.8593 30.1698 23.8454 29.9108H23.1564C23.1564 30.2314 23.1965 30.5181 23.2812 30.7694C23.3722 31.0376 23.5279 31.2472 23.7483 31.3983C23.9687 31.5493 24.2307 31.6248 24.5313 31.6248C24.9675 31.6248 25.3082 31.4615 25.5533 31.1347C25.7983 30.8079 25.9201 30.4148 25.9201 29.9524C25.9201 29.9386 25.9186 29.9262 25.917 29.9124C25.9109 29.5594 25.8307 29.2665 25.672 29.0368C25.561 28.875 25.3036 28.6654 24.8982 28.4064C24.6284 28.2338 24.4558 28.0966 24.3772 27.9964C24.2986 27.8993 24.26 27.7744 24.26 27.6249C24.26 27.4662 24.3032 27.3336 24.3895 27.2288C24.4758 27.124 24.6207 27.0716 24.8211 27.0716H24.8242ZM28.9289 29.0353C28.8179 28.8734 28.5605 28.6638 28.1551 28.4049C27.8854 28.2322 27.7128 28.095 27.6341 27.9949C27.5694 27.9147 27.534 27.8161 27.5216 27.702C27.5185 27.6773 27.517 27.6511 27.517 27.6249C27.517 27.4662 27.5602 27.3336 27.6465 27.2288C27.7328 27.124 27.8761 27.0716 28.0781 27.0716C28.28 27.0716 28.4372 27.1378 28.542 27.2704C28.6253 27.3768 28.6808 27.5216 28.7085 27.702H29.4037C29.3698 27.2689 29.2495 26.9174 29.0384 26.6492C28.8118 26.361 28.4942 26.2176 28.0812 26.2176C27.6681 26.2176 27.3659 26.3625 27.1517 26.6523C26.9451 26.9328 26.8388 27.2827 26.8326 27.702C26.8326 27.7174 26.8326 27.7328 26.8326 27.7482C26.8326 28.001 26.8681 28.2199 26.9405 28.4079C27.013 28.596 27.1116 28.7486 27.238 28.8657C27.3644 28.9829 27.5648 29.1309 27.8392 29.3066C28.1135 29.4823 28.2815 29.6102 28.3416 29.6888C28.3941 29.7536 28.4295 29.8291 28.4495 29.9108C28.4634 29.9648 28.4711 30.0202 28.4711 30.0819C28.4711 30.2607 28.4172 30.4133 28.3124 30.5382C28.206 30.6646 28.0334 30.7278 27.796 30.7278C27.5093 30.7278 27.3135 30.6353 27.2072 30.4488C27.1502 30.3501 27.1132 30.1698 27.0993 29.9108H26.4103C26.4103 30.2314 26.4504 30.5181 26.5351 30.7694C26.6261 31.0376 26.7818 31.2472 27.0022 31.3983C27.2226 31.5493 27.4846 31.6248 27.7852 31.6248C28.2214 31.6248 28.5621 31.4615 28.8072 31.1347C29.0522 30.8079 29.174 30.4148 29.174 29.9524C29.174 29.9386 29.1725 29.9262 29.1709 29.9124C29.1648 29.5594 29.0846 29.2665 28.9258 29.0368L28.9289 29.0353Z" fill="#313B97"/>
<path d="M55.8217 26.3163L55.3284 29.8029L54.3727 26.3163H53.7022L52.9701 31.5262H53.6406L54.1369 28.0241L55.0895 31.5262H55.76L56.4922 26.3163H55.8217Z" fill="#313B97"/>
<path d="M58.3449 26.3163L56.375 31.5262H57.1226L57.5449 30.3778H58.9322L59.0462 31.5262H59.7275L59.1634 26.3163H58.3449ZM57.864 29.51L58.6362 27.4091L58.8443 29.51H57.8624H57.864Z" fill="#313B97"/>
<path d="M63.0446 26.3163H60.2963L60.1838 27.1841H61.2088L60.5984 31.5262H61.3167L61.9271 27.1841H62.9321L63.0446 26.3163Z" fill="#313B97"/>
<path d="M63.0601 31.5262H63.7783L64.5105 26.3163H63.7922L63.0601 31.5262Z" fill="#313B97"/>
<path d="M66.7748 26.2176C66.4527 26.2176 66.166 26.3163 65.9132 26.512C65.6604 26.7078 65.4523 26.9744 65.2858 27.312C65.1194 27.6496 64.9976 28.0473 64.9159 28.5066C64.8542 28.8488 64.8234 29.174 64.8234 29.4823C64.8234 29.8152 64.8697 30.1451 64.9621 30.4719C65.0546 30.7987 65.2103 31.073 65.4307 31.2934C65.6511 31.5139 65.924 31.6248 66.2492 31.6248C66.6238 31.6248 66.9598 31.4861 67.2557 31.2087C67.5532 30.9312 67.7875 30.5335 67.9602 30.0187C68.1328 29.5039 68.2191 28.969 68.2191 28.4187C68.2191 27.7559 68.0865 27.2242 67.8199 26.8218C67.5548 26.4211 67.2064 26.2192 66.7748 26.2192V26.2176ZM67.339 29.5702C67.2218 29.9586 67.0723 30.2499 66.892 30.4411C66.7116 30.6322 66.5236 30.7278 66.3278 30.7278C66.0874 30.7278 65.8947 30.606 65.7467 30.364C65.5987 30.122 65.5263 29.8199 65.5263 29.4607C65.5263 28.8765 65.6373 28.3386 65.8592 27.8484C66.0812 27.3583 66.3694 27.1132 66.7224 27.1132C66.9536 27.1132 67.1432 27.2303 67.2912 27.4646C67.4407 27.6989 67.5147 28.0211 67.5147 28.4326C67.5147 28.801 67.4561 29.1802 67.339 29.5686V29.5702Z" fill="#313B97"/>
<path d="M70.7593 29.8029L69.8037 26.3163H69.1347L68.4025 31.5262H69.073L69.5678 28.0241L70.5219 31.5262H71.1925L71.9246 26.3163H71.2541L70.7593 29.8029Z" fill="#313B97"/>
<path d="M74.5388 29.0368C74.4279 28.875 74.1704 28.6654 73.7651 28.4064C73.4953 28.2338 73.3227 28.0966 73.2441 27.9964C73.1793 27.9162 73.1439 27.8176 73.1315 27.7035C73.1285 27.6789 73.1269 27.6527 73.1269 27.6265C73.1269 27.4677 73.1701 27.3351 73.2564 27.2303C73.3427 27.1255 73.4861 27.0731 73.688 27.0731C73.8899 27.0731 74.0471 27.1394 74.1535 27.2719C74.2367 27.3783 74.2922 27.5232 74.32 27.7035H75.0151C74.9812 27.2704 74.861 26.919 74.6498 26.6508C74.4232 26.3625 74.1042 26.2192 73.6926 26.2192C73.2811 26.2192 72.9774 26.3641 72.7631 26.6538C72.5566 26.9344 72.4502 27.2843 72.4441 27.7035C72.4441 27.7189 72.4441 27.7344 72.4441 27.7498C72.4441 28.0026 72.4811 28.2214 72.5535 28.4095C72.626 28.5975 72.7246 28.7501 72.851 28.8673C72.9774 28.9844 73.1778 29.1324 73.4521 29.3081C73.7265 29.4838 73.8945 29.6118 73.9562 29.6904C74.0086 29.7551 74.044 29.8307 74.0641 29.9123C74.078 29.9663 74.0857 30.0218 74.0857 30.0834C74.0857 30.2622 74.0333 30.4148 73.9269 30.5397C73.8205 30.6661 73.6479 30.7293 73.4105 30.7293C73.1238 30.7293 72.9281 30.6368 72.8217 30.4503C72.7647 30.3516 72.7277 30.1713 72.7138 29.9123H72.0248C72.0248 30.233 72.0649 30.5197 72.1497 30.7709C72.2406 31.0391 72.3963 31.2487 72.6167 31.3998C72.8371 31.5509 73.0976 31.6264 73.3997 31.6264C73.836 31.6264 74.1766 31.463 74.4217 31.1362C74.6668 30.8094 74.7885 30.4164 74.7885 29.954C74.7885 29.9401 74.787 29.9278 74.7855 29.9139C74.7793 29.5609 74.6991 29.268 74.5404 29.0384L74.5388 29.0368Z" fill="#313B97"/>
<path d="M32.4415 26.3163L30.4716 31.5262H31.2191L31.6415 30.3779H33.0272L33.1413 31.5262H33.8226L33.2584 26.3163H32.4399H32.4415ZM31.9606 29.5101L32.7328 27.4091L32.9409 29.5101H31.959H31.9606Z" fill="#313B97"/>
<path d="M36.4413 30.458C36.2857 30.6368 36.1146 30.7262 35.9281 30.7262C35.7277 30.7262 35.5597 30.6122 35.424 30.384C35.2899 30.1559 35.2221 29.8322 35.2221 29.413C35.2221 29.0291 35.2745 28.6453 35.3778 28.2615C35.4811 27.8777 35.6198 27.5941 35.794 27.4138C35.9681 27.2334 36.1546 27.1425 36.3535 27.1425C36.5354 27.1425 36.6818 27.2103 36.7912 27.3475C36.8806 27.46 36.9454 27.6311 36.987 27.8561H37.6914C37.6452 27.3598 37.5095 26.9637 37.2845 26.6723C37.0502 26.3687 36.745 26.2176 36.3658 26.2176C36.0283 26.2176 35.7169 26.3487 35.4302 26.6092C35.1435 26.8712 34.92 27.2473 34.7581 27.7405C34.5963 28.2338 34.5161 28.7764 34.5161 29.3713C34.5161 30.1035 34.6364 30.6615 34.8768 31.0468C35.1173 31.4322 35.4518 31.6249 35.8787 31.6249C36.2579 31.6249 36.5893 31.4707 36.8714 31.1624C37.1535 30.8542 37.3662 30.4087 37.508 29.826L37.4325 29.8091H36.7481C36.6726 30.0865 36.5708 30.307 36.4383 30.4596L36.4413 30.458Z" fill="#313B97"/>
<path d="M40.7049 26.4381C40.5554 26.3564 40.3473 26.3147 40.0791 26.3147H38.5207L37.7886 31.5247H38.5069L38.809 29.3683H39.1049C39.276 29.3683 39.3963 29.4022 39.4656 29.4715C39.5781 29.5871 39.683 29.8137 39.7831 30.1497C39.965 30.7725 40.0883 31.2318 40.1515 31.5247H40.9207C40.7234 30.7802 40.5446 30.2052 40.3843 29.7968C40.3041 29.5948 40.2178 29.433 40.1253 29.3097C40.486 29.2403 40.7542 29.0631 40.933 28.7748C41.1118 28.4866 41.2012 28.1213 41.2012 27.6789C41.2012 27.3691 41.1565 27.1039 41.064 26.8866C40.9716 26.6693 40.8513 26.5198 40.7018 26.4365L40.7049 26.4381ZM40.392 28.1583C40.3195 28.3047 40.2194 28.4126 40.0914 28.482C39.9635 28.5513 39.703 28.5852 39.3099 28.5852H38.923L39.1203 27.1841H39.9249C40.1407 27.1841 40.2795 27.2118 40.3442 27.2689C40.449 27.3644 40.5014 27.5062 40.5014 27.6958C40.5014 27.8577 40.4644 28.0118 40.392 28.1583Z" fill="#313B97"/>
<path d="M43.4794 26.2176C43.1573 26.2176 42.8706 26.3163 42.6178 26.512C42.365 26.7078 42.1569 26.9745 41.9904 27.312C41.824 27.6496 41.7006 28.0473 41.6205 28.5066C41.5588 28.8488 41.528 29.174 41.528 29.4823C41.528 29.8153 41.5742 30.1451 41.6652 30.4719C41.7577 30.7987 41.9134 31.073 42.1338 31.2935C42.3542 31.5139 42.627 31.6249 42.9523 31.6249C43.3268 31.6249 43.6613 31.4861 43.9588 31.2087C44.2547 30.9312 44.4906 30.5336 44.6632 30.0187C44.8358 29.5039 44.9222 28.969 44.9222 28.4188C44.9222 27.756 44.7896 27.2242 44.5229 26.8219C44.2578 26.4211 43.9095 26.2192 43.4779 26.2192L43.4794 26.2176ZM44.0436 29.5702C43.9264 29.9586 43.7769 30.2499 43.5966 30.4411C43.4162 30.6322 43.2282 30.7278 43.0339 30.7278C42.7935 30.7278 42.6008 30.606 42.4528 30.364C42.3064 30.122 42.2324 29.8199 42.2324 29.4607C42.2324 28.8766 42.3434 28.3386 42.5654 27.8484C42.7873 27.3583 43.074 27.1132 43.4285 27.1132C43.6598 27.1132 43.8493 27.2303 43.9973 27.4646C44.1468 27.6989 44.2208 28.0211 44.2208 28.4326C44.2208 28.801 44.1622 29.1802 44.0436 29.5686V29.5702Z" fill="#313B97"/>
<path d="M46.8689 27.0716C47.0739 27.0716 47.2281 27.1379 47.3329 27.2704C47.4161 27.3768 47.4716 27.5217 47.4994 27.702H48.1945C48.1606 27.2689 48.0404 26.9174 47.8292 26.6492C47.6026 26.361 47.2851 26.2176 46.872 26.2176C46.4589 26.2176 46.1568 26.3625 45.9426 26.6523C45.736 26.9328 45.6297 27.2827 45.6235 27.702C45.6235 27.7174 45.6235 27.7328 45.6235 27.7482C45.6235 28.001 45.6589 28.2199 45.7314 28.408C45.8038 28.596 45.9025 28.7486 46.0289 28.8658C46.1553 28.9829 46.3557 29.1309 46.63 29.3066C46.9044 29.4823 47.0724 29.6103 47.1325 29.6889C47.1849 29.7536 47.2204 29.8291 47.2404 29.9108C47.2543 29.9648 47.262 30.0203 47.262 30.0819C47.262 30.2607 47.208 30.4133 47.1032 30.5382C46.9969 30.6646 46.8242 30.7278 46.5869 30.7278C46.3002 30.7278 46.1044 30.6353 45.9981 30.4488C45.941 30.3501 45.9056 30.1698 45.8902 29.9108H45.2011C45.2011 30.2314 45.2412 30.5181 45.326 30.7694C45.4169 31.0376 45.5726 31.2472 45.793 31.3983C46.0135 31.5493 46.2755 31.6249 46.5761 31.6249C47.0123 31.6249 47.3529 31.4615 47.598 31.1347C47.8431 30.8079 47.9649 30.4149 47.9649 29.9524C47.9649 29.9386 47.9633 29.9262 47.9618 29.9124C47.9556 29.5594 47.8755 29.2665 47.7167 29.0369C47.6057 28.875 47.3483 28.6654 46.9429 28.4064C46.6747 28.2338 46.5005 28.0966 46.4219 27.9964C46.3572 27.9163 46.3202 27.8176 46.3094 27.7035C46.3063 27.6789 46.3048 27.6527 46.3048 27.6265C46.3048 27.4677 46.3479 27.3352 46.4343 27.2303C46.5206 27.1255 46.6655 27.0731 46.8659 27.0731L46.8689 27.0716ZM50.9737 29.0353C50.8627 28.8735 50.6053 28.6638 50.1999 28.4049C49.9301 28.2322 49.7575 28.0951 49.6789 27.9949C49.6142 27.9147 49.5787 27.8161 49.5664 27.702C49.5633 27.6773 49.5618 27.6511 49.5618 27.6249C49.5618 27.4662 49.6049 27.3336 49.6912 27.2288C49.7776 27.124 49.9209 27.0716 50.1228 27.0716C50.3247 27.0716 50.482 27.1379 50.5868 27.2704C50.67 27.3768 50.7255 27.5217 50.7533 27.702H51.4484C51.4145 27.2689 51.2943 26.9174 51.0831 26.6492C50.8565 26.361 50.539 26.2176 50.1259 26.2176C49.7128 26.2176 49.4107 26.3625 49.1964 26.6523C48.9899 26.9328 48.8835 27.2827 48.8774 27.702C48.8774 27.7174 48.8774 27.7328 48.8774 27.7482C48.8774 28.001 48.9144 28.2199 48.9868 28.408C49.0593 28.596 49.1579 28.7486 49.2843 28.8658C49.4107 28.9829 49.6111 29.1309 49.8855 29.3066C50.1598 29.4823 50.3278 29.6103 50.3895 29.6889C50.4419 29.7536 50.4773 29.8291 50.4974 29.9108C50.5113 29.9648 50.519 30.0203 50.519 30.0819C50.519 30.2607 50.4666 30.4133 50.3602 30.5382C50.2538 30.6646 50.0812 30.7278 49.8438 30.7278C49.5571 30.7278 49.3614 30.6353 49.255 30.4488C49.198 30.3501 49.161 30.1698 49.1471 29.9108H48.4581C48.4581 30.2314 48.4982 30.5181 48.583 30.7694C48.6739 31.0376 48.8296 31.2472 49.05 31.3983C49.2704 31.5493 49.5309 31.6249 49.833 31.6249C50.2693 31.6249 50.6114 31.4615 50.855 31.1347C51.1001 30.8079 51.2218 30.4149 51.2218 29.9524C51.2218 29.9386 51.2203 29.9262 51.2188 29.9124C51.2126 29.5594 51.1324 29.2665 50.9737 29.0369V29.0353Z" fill="#313B97"/>
<path d="M63.5071 15.6822C60.5275 15.6976 57.548 15.7824 54.57 15.9165L52.9917 23.5726H71.2603L72.498 17.5719H63.1063L63.5086 15.6822H63.5071ZM18.3133 0.189592C18.3303 0.109439 18.3426 0.0447005 18.3519 0C18.3426 0.0462419 18.3287 0.109439 18.3133 0.189592ZM18.3704 0C18.3704 0 18.3673 0.0107898 18.3642 0.0323693C18.3611 0.0462419 18.358 0.0631973 18.3534 0.0832354C18.3442 0.127936 18.3303 0.192675 18.3149 0.272827C18.2871 0.410012 18.2486 0.596521 18.2008 0.823106C17.7446 3.03655 16.4791 9.17285 15.844 12.2479C15.8101 12.4113 15.7777 12.5655 15.7484 12.7104C15.75 12.7011 15.7515 12.6934 15.7546 12.6842C15.7515 12.698 15.7484 12.7119 15.7454 12.7258C15.7454 12.7304 15.7438 12.7335 15.7423 12.7381C15.6976 12.9554 15.6575 13.1527 15.622 13.3208C15.6159 13.3531 15.6082 13.3839 15.602 13.4148C15.5958 13.4471 15.5881 13.4795 15.582 13.5103C15.5696 13.5689 15.5589 13.6244 15.5481 13.6737C15.5465 13.683 15.545 13.6922 15.5419 13.7015C15.5265 13.7724 15.5142 13.834 15.5034 13.8849C15.4849 13.9743 15.4741 14.0298 15.4695 14.0468C15.2043 15.3338 14.8282 16.2078 13.461 16.5376H8.66419L7.20911 23.3845L7.18445 23.5032H7.20603L7.18907 23.5895H12.7689V23.571H16.4637C16.5191 23.5633 16.5746 23.5556 16.6286 23.5479C20.3696 22.9576 22.5059 21.0478 23.3044 19.0594L27.3567 0H18.3704ZM66.8396 0.0015414L57.8532 0L56.1191 8.40678C59.1387 8.10929 62.1645 7.89041 65.1964 7.73473L65.5571 6.04073H74.8764L76.1218 0H66.8396V0.0015414ZM55.7908 0.0015414H46.8045L44.4739 11.3046L38.5102 0H29.5671L26.7062 13.8695L25.7891 18.318L24.7055 23.5726H33.5454L34.8772 17.3068L35.9469 12.2695L38.4671 16.9847L41.9553 23.5094L41.9892 23.5726H50.7813L52.3859 16.0228L53.9566 8.63336L55.7908 0V0.0015414Z" fill="#313B97"/>
</g>
<defs>
<clipPath id="clip0_1801_11564">
<rect width="79.9985" height="31.6264" fill="white"/>
</clipPath>
</defs>
</svg>
