<svg width="80" height="34" viewBox="0 0 80 34" fill="none" xmlns="http://www.w3.org/2000/svg">
<g clip-path="url(#clip0_1801_11141)">
<path fill-rule="evenodd" clip-rule="evenodd" d="M52.6676 23.9996L57.7019 3.8147e-06H76.5064L75.2489 6.00092H65.8436L65.2148 9.00036H73.214L71.9584 15.0013H63.9572L63.3284 18.0007H72.7337L71.4762 23.9996H52.6676Z" fill="#1E3378"/>
<path fill-rule="evenodd" clip-rule="evenodd" d="M0 23.9996C16.7248 16.0004 39.359 10.901 60.003 9.00036C65.5807 8.48756 71.1075 8.20064 78.7994 8.20064C79.0985 8.20064 79.5991 8.10093 80 8.00122L78.4474 15.4021C78.3639 15.801 77.6985 16.0024 77.2 16.0024C30.0351 16.0004 1.80089 24.0016 1.80089 24.0016H0V23.9996Z" fill="#E11B22"/>
<path fill-rule="evenodd" clip-rule="evenodd" d="M25.3263 23.9996L30.3587 0H39.361L44.7128 10.901L46.998 0H55.9984L50.9661 23.9996H41.9677L36.6974 12.6998L34.3287 23.9996H25.3263Z" fill="#1E3378"/>
<path fill-rule="evenodd" clip-rule="evenodd" d="M16.7247 14.0001L19.6591 0H28.6594L25.137 16.8001C24.0463 21.9993 19.9989 23.9996 14.6288 23.9996H7.9991L9.50899 16.8001H12.5105C14.7102 16.8001 16.3056 16.0004 16.7247 14.0001Z" fill="#1E3378"/>
<path d="M45.5817 31.9683L45.771 30.6944H47.7713L47.9524 29.3473H45.9541L46.0905 28.336H48.1579L48.339 26.9889H45.1259L44.2753 33.3154H47.639L47.8242 31.9683H45.5817Z" fill="#1E3378"/>
<path d="M52.6591 26.9889H51.2632L50.6039 28.1426C50.5041 28.3197 50.3882 28.5293 50.2579 28.7735C50.1562 28.4458 50.0992 28.2668 50.089 28.2301L49.6719 26.9909H48.4774L49.4867 30.0982L47.6756 33.3174H49.1001L49.682 32.2999C49.8163 32.0619 49.9262 31.8645 50.0117 31.7037C50.0605 31.8706 50.1216 32.068 50.1948 32.2959L50.5225 33.3174H51.7861L50.7829 30.3302L52.6571 26.9909L52.6591 26.9889Z" fill="#1E3378"/>
<path d="M55.8742 28.6636C55.8742 28.3176 55.8213 28.0124 55.7195 27.756C55.6117 27.4874 55.457 27.29 55.2658 27.1679C55.0765 27.0499 54.8221 26.9889 54.5108 26.9889H52.7893L51.9346 33.3154H53.0803L53.3875 31.0363H53.7436C54.1018 31.0363 54.3419 31.022 54.4803 30.9915C54.7163 30.9406 54.9096 30.8633 55.0541 30.7616C55.1986 30.6598 55.3329 30.5133 55.455 30.3241C55.5751 30.1368 55.6727 29.8967 55.7541 29.5895C55.8335 29.2903 55.8722 28.979 55.8722 28.6636M53.7518 28.3197H54.1689C54.5006 28.3197 54.5739 28.3563 54.582 28.3604C54.6248 28.3848 54.6573 28.4235 54.6817 28.4804C54.7123 28.5496 54.7285 28.6453 54.7285 28.7653C54.7285 28.9546 54.6919 29.1296 54.6227 29.2842C54.5556 29.4307 54.4721 29.5325 54.3623 29.5976C54.2992 29.6342 54.116 29.6973 53.6093 29.6973H53.5646L53.7518 28.3197Z" fill="#1E3378"/>
<path d="M58.9082 31.0973C58.8512 30.9508 58.7922 30.8206 58.7312 30.7087C59.0629 30.5927 59.3213 30.381 59.5024 30.0778C59.714 29.7217 59.8219 29.27 59.8219 28.7307C59.8219 28.3543 59.7669 28.0267 59.6591 27.756C59.5431 27.4691 59.3844 27.2676 59.187 27.1537C58.9937 27.0438 58.7413 26.9909 58.4117 26.9909H56.5457L55.691 33.3174H56.8367L57.1704 30.843H57.3413C57.5286 30.843 57.5916 30.8877 57.6079 30.906C57.6791 30.9834 57.7911 31.1685 57.9152 31.6142C58.1126 32.3203 58.2469 32.8473 58.314 33.179L58.3425 33.3194H59.5614L59.5065 33.1017C59.2887 32.245 59.0873 31.5735 58.9082 31.0994M57.5041 28.338H58.2265C58.5012 28.338 58.5623 28.3889 58.5623 28.3889C58.6396 28.4642 58.6803 28.5863 58.6803 28.7531C58.6803 28.9118 58.6457 29.0645 58.5786 29.2089C58.5155 29.3453 58.432 29.4409 58.3222 29.502C58.2591 29.5386 58.0759 29.5976 57.5591 29.5976H57.3373L57.5062 28.34L57.5041 28.338Z" fill="#1E3378"/>
<path d="M63.2692 30.6944L63.4503 29.3473H61.452L61.5883 28.336H63.6558L63.8369 26.9889H60.6238L59.7712 33.3154H63.1369L63.3221 31.9683H61.0776L61.2688 30.6944H63.2692Z" fill="#1E3378"/>
<path d="M65.6661 28.2098C65.835 28.2098 65.951 28.2607 66.0324 28.3685C66.126 28.4927 66.181 28.6819 66.1993 28.9322L66.2115 29.1072L67.3164 29.0299L67.3083 28.861C67.2818 28.281 67.1333 27.8069 66.8626 27.4508C66.5818 27.0784 66.181 26.8892 65.6722 26.8892C65.1635 26.8892 64.7769 27.0804 64.5083 27.4589C64.2539 27.8191 64.1237 28.2729 64.1237 28.8121C64.1237 29.1194 64.1664 29.3941 64.2519 29.6261C64.3394 29.8642 64.4635 30.0616 64.6181 30.2142C64.7647 30.3566 64.9865 30.5296 65.2978 30.7392C65.6661 30.9874 65.7719 31.0933 65.8065 31.138C65.8778 31.2296 65.9123 31.3415 65.9123 31.4799C65.9123 31.6447 65.8676 31.779 65.778 31.893C65.6966 31.9947 65.5562 32.0435 65.3507 32.0435C65.0231 32.0435 64.9152 31.9133 64.8603 31.8156C64.8277 31.7566 64.7708 31.5898 64.7586 31.1401L64.7524 30.9569L63.6556 31.0444V31.2031C63.6455 31.6203 63.6963 31.9947 63.8001 32.3203C63.912 32.6622 64.1074 32.9348 64.3801 33.1282C64.6527 33.3215 64.9763 33.4191 65.3426 33.4191C65.8798 33.4191 66.3071 33.2055 66.6083 32.7863C66.8972 32.3834 67.0458 31.895 67.0458 31.3334C67.0458 30.8735 66.944 30.4889 66.7467 30.1898C66.6103 29.9842 66.3173 29.7319 65.8493 29.4185C65.5033 29.1866 65.3711 29.0563 65.3182 28.9871C65.2551 28.9057 65.2245 28.802 65.2245 28.6697C65.2245 28.5272 65.2591 28.4133 65.3283 28.3238C65.3873 28.2485 65.4993 28.2118 65.662 28.2118" fill="#1E3378"/>
<path d="M69.5711 29.4165C69.2252 29.1845 69.0929 29.0543 69.04 28.9851C68.9769 28.9037 68.9464 28.7999 68.9464 28.6677C68.9464 28.5252 68.981 28.4113 69.0502 28.3217C69.1092 28.2464 69.2211 28.2098 69.3839 28.2098C69.5467 28.2098 69.6688 28.2607 69.7502 28.3685C69.8438 28.4926 69.8988 28.6819 69.915 28.9322L69.9273 29.1072L71.0302 29.0299L71.022 28.861C70.9956 28.281 70.845 27.8069 70.5784 27.4508C70.2976 27.0784 69.8967 26.8891 69.388 26.8891C68.8793 26.8891 68.4926 27.0804 68.224 27.461C67.9676 27.8211 67.8394 28.2749 67.8394 28.8121C67.8394 29.1194 67.8822 29.3941 67.9697 29.6261C68.0572 29.8642 68.1813 30.0616 68.336 30.2142C68.4825 30.3566 68.7043 30.5296 69.0156 30.7392C69.3839 30.9874 69.4918 31.0932 69.5243 31.138C69.5956 31.2296 69.6302 31.3415 69.6302 31.4799C69.6302 31.6447 69.5854 31.779 69.4958 31.893C69.4145 31.9947 69.2741 32.0435 69.0685 32.0435C68.7409 32.0435 68.6331 31.9133 68.5781 31.8156C68.5456 31.7566 68.4886 31.5898 68.4764 31.1401L68.4703 30.9569L67.3755 31.0444V31.2031C67.3653 31.6203 67.4162 31.9947 67.522 32.3203C67.6339 32.6622 67.8272 32.9348 68.0999 33.1281C68.3726 33.3215 68.6961 33.4191 69.0624 33.4191C69.5996 33.4191 70.0249 33.2055 70.3281 32.7863C70.6171 32.3834 70.7656 31.895 70.7656 31.3334C70.7656 30.8735 70.6639 30.4889 70.4665 30.1898C70.3302 29.9842 70.0371 29.7319 69.5711 29.4185" fill="#1E3378"/>
</g>
<defs>
<clipPath id="clip0_1801_11141">
<rect width="80" height="33.4191" fill="white"/>
</clipPath>
</defs>
</svg>
