<svg width="80" height="37" viewBox="0 0 80 37" fill="none" xmlns="http://www.w3.org/2000/svg">
<g clip-path="url(#clip0_1801_11582)">
<path d="M16.9195 21.0987H21.7709L20.6582 19.2697L16.9195 21.0987ZM19.7511 17.7813L14.7089 9.49505L24.4835 2.37324e-07H16.7624C16.1569 -0.000273501 15.5753 0.236267 15.1419 0.659083L8.29418 7.35119L9.06335 2.37324e-07H2.08941L0.00647083 19.8407C-0.0280246 20.1622 0.0761956 20.4837 0.300049 20.7237C0.523902 20.9637 0.824819 21.1009 1.14849 21.1009H6.84684L7.32097 16.6459L9.42372 14.6077L13.1228 20.4558C13.2473 20.6526 13.4196 20.8147 13.6237 20.927C13.8277 21.0393 14.0569 21.0981 14.2898 21.098H16.9188L18.245 18.4536L19.7511 17.7813Z" fill="#2D2A70"/>
<path d="M23.9554 21.0987L33.4013 15.3563L34.6035 20.2327C34.7283 20.7428 35.1862 21.1009 35.7117 21.1009H41.8255L39.0952 11.8899L49.4952 5.56331L49.5393 5.13762L16.9279 21.0951L23.9554 21.0987ZM38.1176 8.58937L35.5679 8.39933e-06H29.5605C28.9456 0.000213441 28.3427 0.171358 27.8194 0.494332C27.2961 0.817306 26.8728 1.27939 26.5969 1.829L18.0105 18.9167L49.6024 4.50423L49.6516 4.01982L38.1176 8.58937ZM27.9627 12.6092L30.0692 8.15194L30.6248 6.92038C30.6908 6.77359 30.8435 6.68551 31.0035 6.70019C31.1635 6.71487 31.2971 6.82863 31.3367 6.98423L32.2996 10.891L27.9627 12.6092Z" fill="#ED6B23"/>
<path d="M45.7856 0C44.9661 0.000596149 44.1759 0.304454 43.5671 0.853022C42.9584 1.40159 42.5742 2.15605 42.4887 2.97101L42.063 7.02679L49.6534 4.02055L50.0674 0H45.7856ZM40.5878 21.0987H47.8905L49.4905 5.5655L41.7195 10.2943L40.5878 21.0987ZM40.7896 34.3802H35.0501L36.0593 25.4261H37.7973L36.9753 32.7193H40.9694L40.7896 34.3802ZM43.6593 32.5725C43.9358 32.8842 44.293 33.04 44.7309 33.04C45.1693 33.04 45.5575 32.8842 45.8956 32.5725C46.2382 32.2608 46.4429 31.8268 46.51 31.2705C46.5726 30.7141 46.4657 30.2801 46.1892 29.9684C45.9211 29.6568 45.5678 29.5009 45.1294 29.5009C44.691 29.5009 44.2983 29.6568 43.9514 29.9684C43.6128 30.2801 43.4122 30.7141 43.3496 31.2705C43.287 31.8268 43.3897 32.2608 43.6578 32.5725H43.6593ZM42.852 28.9072C43.5458 28.2838 44.3605 27.9721 45.296 27.9721C46.2315 27.9721 46.9716 28.2838 47.5162 28.9072C48.0691 29.5305 48.2922 30.3183 48.1856 31.2705C48.0779 32.2226 47.6774 33.0104 46.9841 33.6338C46.2991 34.2571 45.4888 34.5688 44.5533 34.5688C43.6177 34.5688 42.8733 34.2571 42.3199 33.6338C41.7748 33.0104 41.5558 32.2226 41.663 31.2705C41.7706 30.3183 42.167 29.5305 42.852 28.9072ZM48.452 34.7215L50.0153 34.3178C50.0349 34.6632 50.1633 34.9456 50.4006 35.1648C50.6369 35.384 50.9491 35.4936 51.3371 35.4936C52.441 35.4936 53.058 34.9162 53.1881 33.7615L53.2395 33.3064C53.0707 33.5339 52.8302 33.7235 52.518 33.8752C52.2059 34.022 51.8389 34.0954 51.4171 34.0954C50.5912 34.0954 49.9323 33.8092 49.4406 33.2367C48.9572 32.6642 48.7644 31.9437 48.8623 31.0752C48.9572 30.2327 49.3119 29.5163 49.9265 28.9262C50.5405 28.3361 51.2647 28.0411 52.0989 28.0411C52.554 28.0411 52.921 28.1253 53.1999 28.2936C53.4851 28.4536 53.6735 28.6493 53.765 28.8807L53.8472 28.1468H55.4648L54.841 33.6954C54.7358 34.6309 54.3786 35.4065 53.7694 36.022C53.1597 36.6454 52.3071 36.9571 51.2116 36.9571C50.3945 36.9571 49.7325 36.7379 49.2256 36.2994C48.7265 35.861 48.4659 35.3302 48.4439 34.7068L48.452 34.7215ZM51.8692 32.6613C52.2988 32.6613 52.6646 32.5179 52.9665 32.2312C53.2767 31.9445 53.459 31.5611 53.5133 31.0811C53.5622 30.6094 53.4643 30.2302 53.2197 29.9435C52.9741 29.6568 52.6448 29.5134 52.2318 29.5134C51.8022 29.5134 51.4279 29.6568 51.1089 29.9435C50.7986 30.2302 50.6169 30.6094 50.5635 31.0811C50.5146 31.5616 50.6105 31.945 50.8512 32.2312C51.0969 32.5179 51.4389 32.6613 51.8773 32.6613H51.8692Z" fill="#2D2A70"/>
<path d="M57.9363 34.3802H56.2556L56.9558 28.1615H58.6365L57.9363 34.3802ZM56.9822 26.1262C57.0145 25.8395 57.1432 25.5949 57.3682 25.3923C57.5943 25.1819 57.8504 25.0767 58.1367 25.0767C58.4234 25.0767 58.6563 25.1777 58.8354 25.3798C59.015 25.5819 59.0884 25.8305 59.0556 26.1255C59.0243 26.4034 58.8961 26.6437 58.671 26.8462C58.4459 27.0483 58.1903 27.1494 57.904 27.1494C57.6173 27.1494 57.3844 27.0483 57.2053 26.8462C57.0257 26.6442 56.9516 26.4039 56.9829 26.1255L56.9822 26.1262Z" fill="#2D2A70"/>
<path d="M59.1671 32.6488L60.6438 32.3332C60.6301 32.6023 60.7099 32.8299 60.8831 33.0158C61.0656 33.1929 61.3298 33.2815 61.6757 33.2815C61.937 33.2815 62.1459 33.2228 62.3025 33.1053C62.4591 32.9879 62.5472 32.8404 62.5667 32.6628C62.602 32.3511 62.4014 32.1488 61.9649 32.0558L61.1576 31.8664C60.59 31.7402 60.1775 31.5127 59.9201 31.1839C59.6755 30.8551 59.5764 30.4631 59.6229 30.0081C59.6865 29.4434 59.9598 28.9632 60.4427 28.5674C60.934 28.1759 61.5126 27.9802 62.1785 27.9802C62.5993 27.9802 62.9628 28.0433 63.2691 28.1696C63.5759 28.287 63.8069 28.4428 63.962 28.6371C64.1186 28.823 64.2321 29.0126 64.3025 29.2059C64.3735 29.3997 64.4111 29.5893 64.4156 29.7747L62.977 30.0903C62.9682 29.8711 62.8889 29.6773 62.7392 29.509C62.5983 29.3407 62.3676 29.2565 62.0471 29.2565C61.8279 29.2565 61.6317 29.3152 61.4585 29.4327C61.2936 29.5501 61.2011 29.6976 61.1811 29.8752C61.1468 30.1786 61.3181 30.3641 61.6948 30.4316L62.5579 30.6209C63.1422 30.7472 63.571 30.9789 63.8445 31.316C64.1269 31.6585 64.2414 32.0629 64.188 32.5292C64.1254 33.0855 63.8607 33.5658 63.3939 33.9699C62.9271 34.3746 62.3106 34.5769 61.5444 34.5769C61.106 34.5769 60.7211 34.5138 60.3899 34.3875C60.0596 34.2525 59.8088 34.0812 59.6376 33.8738C59.4761 33.6634 59.3538 33.4569 59.2706 33.2543C59.2021 33.0439 59.1659 32.8416 59.162 32.6474L59.1671 32.6488ZM68.0845 26.3031L67.8754 28.1615H69.1267L68.9579 29.6529H67.7051L67.4115 32.2569C67.3822 32.5182 67.4203 32.7036 67.526 32.8132C67.6317 32.9228 67.811 32.9776 68.064 32.9776C68.2915 32.9776 68.4662 32.9605 68.588 32.9263L68.4317 34.3163C68.1758 34.4176 67.8541 34.4683 67.4666 34.4683C66.8598 34.4683 66.3984 34.297 66.0823 33.9545C65.7672 33.6091 65.6434 33.1369 65.711 32.538L66.0368 29.6433H64.9117L65.0805 28.1519H65.3961C65.7078 28.1519 65.9537 28.0634 66.1337 27.8863C66.3231 27.7003 66.4344 27.4601 66.4677 27.1655L66.566 26.2936L68.0845 26.3031Z" fill="#2D2A70"/>
<path d="M71.3063 34.3802H69.6256L70.3257 28.1615H72.0065L71.3063 34.3802ZM70.3522 26.1262C70.3845 25.8395 70.5131 25.5949 70.7382 25.3923C70.9643 25.1819 71.2204 25.0767 71.5067 25.0767C71.7934 25.0767 72.0263 25.1777 72.2054 25.3798C72.3849 25.5819 72.4583 25.8305 72.4256 26.1255C72.3942 26.4034 72.266 26.6437 72.041 26.8462C71.8159 27.0483 71.5602 27.1494 71.274 27.1494C70.9873 27.1494 70.7544 27.0483 70.5753 26.8462C70.3957 26.6442 70.3216 26.4039 70.3529 26.1255L70.3522 26.1262Z" fill="#2D2A70"/>
<path d="M79.6028 28.1615L76.8182 30.778L78.954 34.3802H76.8938L75.5184 32.0037L74.7404 32.7376L74.5555 34.3817H72.8747L73.9052 25.2294H75.5859L74.9951 30.4749L77.4046 28.1615H79.6028Z" fill="#2D2A70"/>
</g>
<defs>
<clipPath id="clip0_1801_11582">
<rect width="79.6028" height="36.9571" fill="white"/>
</clipPath>
</defs>
</svg>
