<svg width="80" height="23" viewBox="0 0 80 23" fill="none" xmlns="http://www.w3.org/2000/svg">
<g clip-path="url(#clip0_1801_11599)">
<path fill-rule="evenodd" clip-rule="evenodd" d="M22.0697 0.0099968C22.0827 0.00204485 22.098 -0.00125731 22.1131 0.000631781C22.1282 0.00252088 22.1423 0.00948911 22.1529 0.0203938C22.1781 0.0467863 22.1769 0.0883745 22.1505 0.113567C21.1828 1.0645 18.8882 3.28066 17.607 4.27078C17.4298 4.40834 16.2258 7.90215 15.2828 9.99235C14.4831 11.7654 13.2326 12.8036 9.98635 14.5758C7.74179 15.7991 6.25622 20.4062 4.14802 22.1365C4.13521 22.1467 4.11936 22.1524 4.10298 22.1525C4.0866 22.1527 4.07063 22.1475 4.05759 22.1375C4.04455 22.1276 4.0352 22.1136 4.03101 22.0978C4.02681 22.082 4.02803 22.0652 4.03445 22.0501L8.71352 11.5303C8.22406 11.4851 6.92603 10.3255 5.47164 8.87227C5.46767 8.86808 5.46485 8.86293 5.46345 8.85733C5.46204 8.85172 5.46211 8.84585 5.46364 8.84028C5.46614 8.83186 5.47189 8.82477 5.47961 8.82057C5.48733 8.81637 5.4964 8.81541 5.50483 8.81789L12.035 10.9593C12.0374 10.9597 12.0402 10.9593 12.0422 10.9581C12.047 10.9553 12.049 10.9493 12.0462 10.9445L11.6011 10.1927C11.5665 10.1346 11.5121 10.0908 11.4479 10.0695L4.42914 7.76819C4.38958 7.75504 4.35378 7.73254 4.32477 7.7026C4.08883 7.45787 3.8553 7.21274 3.62377 6.96761C3.6208 6.96471 3.61893 6.96087 3.61848 6.95674C3.61802 6.95261 3.61901 6.94846 3.62127 6.94497C3.62353 6.94149 3.62692 6.93889 3.63087 6.93763C3.63483 6.93636 3.6391 6.9365 3.64296 6.93802L11.0988 9.38373C11.1008 9.38449 11.103 9.38463 11.1051 9.38411C11.1072 9.38359 11.109 9.38244 11.1104 9.38082C11.1118 9.37921 11.1127 9.3772 11.1129 9.37507C11.1131 9.37294 11.1127 9.3708 11.1116 9.36893L10.657 8.59315C10.6316 8.55047 10.5913 8.5188 10.5438 8.50438L2.76081 5.9519C2.68033 5.92551 2.60792 5.87898 2.55047 5.81674C2.34715 5.59678 2.14467 5.37605 1.94305 5.15453C1.93981 5.15155 1.93761 5.14763 1.93674 5.14331C1.93588 5.139 1.93641 5.13453 1.93825 5.13054C1.94305 5.11934 1.95584 5.11454 1.96664 5.11934L10.1571 7.80817C10.1585 7.80876 10.1601 7.80899 10.1616 7.80885C10.1631 7.80871 10.1646 7.8082 10.1659 7.80737C10.1682 7.80596 10.1699 7.80372 10.1705 7.80111C10.1712 7.79849 10.1708 7.79572 10.1695 7.79338L9.71523 7.02C9.6898 6.9763 9.64949 6.94323 9.60166 6.92683L1.20566 4.17321L1.0605 4.12322C1.00972 4.10584 0.964278 4.07568 0.928534 4.03565C0.621012 3.69488 0.315494 3.3523 0.0119955 3.00794C0.00648462 3.00148 0.00271151 2.99372 0.00103231 2.98539C-0.000646885 2.97707 -0.000176777 2.96845 0.00239827 2.96036C0.00438589 2.95427 0.00756247 2.94863 0.0117438 2.94378C0.0159251 2.93893 0.021028 2.93496 0.0267565 2.93209C0.0324849 2.92923 0.0387251 2.92753 0.045115 2.9271C0.0515049 2.92666 0.0579174 2.9275 0.0639807 2.92956C1.50437 3.40423 11.6407 6.75008 12.4353 7.004C12.4353 7.004 11.1268 3.08512 17.0779 3.08512C17.2659 3.08512 20.7189 0.87775 22.0697 0.0099968ZM61.5313 7.08118C63.8006 7.08118 65.0591 8.52717 65.0591 10.4082C65.0591 13.1455 63.2416 15.0653 60.6291 15.0653C58.3574 15.0653 57.1009 13.6193 57.1009 11.7383C57.1009 8.98944 58.9184 7.08118 61.5313 7.08118ZM79.8349 7.23914C79.8522 7.23875 79.8694 7.24234 79.8852 7.24962C79.9009 7.2569 79.9148 7.26768 79.9258 7.28114C79.9367 7.29461 79.9445 7.31039 79.9484 7.3273C79.9523 7.34421 79.9523 7.36178 79.9484 7.3787L79.7465 8.49838C79.7426 8.52569 79.729 8.55066 79.7081 8.56868C79.6872 8.5867 79.6605 8.59653 79.6329 8.59635H75.9875C75.9602 8.59731 75.9339 8.60764 75.9133 8.62562C75.8926 8.6436 75.8787 8.66814 75.874 8.69512L75.6005 10.2467C75.5964 10.2639 75.5964 10.2818 75.6005 10.299C75.6045 10.3162 75.6125 10.3323 75.6239 10.3458C75.6352 10.3594 75.6495 10.3702 75.6657 10.3772C75.6819 10.3843 75.6996 10.3875 75.7172 10.3866H79.0283C79.0456 10.3863 79.0628 10.3898 79.0786 10.3971C79.0944 10.4044 79.1082 10.4152 79.1192 10.4286C79.1301 10.4421 79.1379 10.4579 79.1418 10.4748C79.1457 10.4917 79.1457 10.5093 79.1418 10.5262L78.9435 11.6439C78.9395 11.6712 78.9258 11.6962 78.9049 11.7142C78.8839 11.7322 78.8572 11.742 78.8295 11.7419H75.4309C75.4035 11.7428 75.3773 11.7531 75.3566 11.7711C75.336 11.7891 75.3221 11.8136 75.3173 11.8406L75.047 13.4058C75.0433 13.4227 75.0434 13.4402 75.0474 13.457C75.0514 13.4739 75.0592 13.4896 75.0702 13.5029C75.0812 13.5163 75.095 13.527 75.1108 13.5342C75.1265 13.5414 75.1437 13.545 75.161 13.5445H78.8283C78.8457 13.544 78.863 13.5475 78.8789 13.5547C78.8947 13.562 78.9087 13.5727 78.9197 13.5862C78.9307 13.5997 78.9385 13.6156 78.9424 13.6325C78.9463 13.6495 78.9463 13.6671 78.9423 13.6841L78.74 14.8198C78.7361 14.8471 78.7225 14.8721 78.7016 14.8901C78.6807 14.9081 78.654 14.9179 78.6264 14.9177H73.1807C73.1633 14.9182 73.146 14.9147 73.1302 14.9074C73.1144 14.9001 73.1004 14.8893 73.0894 14.8758C73.0785 14.8623 73.0707 14.8464 73.0669 14.8294C73.063 14.8124 73.0631 14.7947 73.0672 14.7778L74.3828 7.33671C74.3866 7.3094 74.4002 7.28442 74.4212 7.26646C74.4421 7.24849 74.4688 7.23878 74.4964 7.23914H79.8349ZM67.7923 7.23674C67.8511 7.23674 67.9003 7.28153 67.9059 7.34031L68.676 13.1774C68.6728 13.1927 68.6727 13.2085 68.6757 13.2238C68.6787 13.2391 68.6848 13.2537 68.6937 13.2666C68.7025 13.2795 68.7139 13.2904 68.7271 13.2988C68.7403 13.3071 68.755 13.3127 68.7704 13.3152C68.7859 13.3177 68.8016 13.317 68.8168 13.3131C68.8319 13.3093 68.8461 13.3025 68.8586 13.293C68.871 13.2835 68.8813 13.2716 68.889 13.258C68.8967 13.2444 68.9015 13.2294 68.9032 13.2138L71.7903 7.30752C71.8001 7.28743 71.8152 7.27047 71.8341 7.25853C71.853 7.24659 71.8748 7.24015 71.8971 7.23994H73.4955C73.5166 7.23829 73.5378 7.24258 73.5566 7.25232C73.5755 7.26206 73.5912 7.27686 73.6021 7.29506C73.613 7.31326 73.6186 7.33413 73.6182 7.35534C73.6179 7.37654 73.6117 7.39724 73.6002 7.41509L69.655 14.853C69.6453 14.8722 69.6303 14.8883 69.6119 14.8994C69.5934 14.9104 69.5721 14.916 69.5506 14.9153H67.44C67.4117 14.9166 67.3839 14.9071 67.3623 14.8888C67.3407 14.8705 67.3267 14.8447 67.3232 14.8166L66.0292 7.3755C66.0254 7.35864 66.0255 7.34115 66.0295 7.32435C66.0335 7.30754 66.0413 7.29186 66.0522 7.2785C66.0632 7.26513 66.077 7.25443 66.0927 7.24719C66.1084 7.23996 66.1255 7.23638 66.1428 7.23674H67.7923ZM50.8591 7.22994C50.9223 7.22994 50.9731 7.28073 50.9731 7.34351L51.333 12.5528C51.3361 12.5786 51.3475 12.6026 51.3654 12.6213C51.3834 12.64 51.4069 12.6524 51.4325 12.6566C51.458 12.6609 51.4843 12.6567 51.5073 12.6448C51.5303 12.6328 51.5488 12.6138 51.5601 12.5904L53.6955 7.31072C53.704 7.28778 53.7197 7.26821 53.7403 7.25489C53.7608 7.24156 53.785 7.2352 53.8095 7.23674H56.4923C56.5097 7.23626 56.527 7.2398 56.5428 7.24707C56.5587 7.25435 56.5726 7.26517 56.5836 7.2787C56.5946 7.29224 56.6023 7.30811 56.6062 7.32511C56.61 7.3421 56.6099 7.35975 56.6059 7.3767L55.2894 14.8178C55.2856 14.8451 55.2718 14.8701 55.2509 14.8881C55.2299 14.906 55.2031 14.9157 55.1755 14.9153H53.6707C53.6534 14.9157 53.6361 14.9121 53.6204 14.9049C53.6046 14.8976 53.5908 14.8868 53.5798 14.8733C53.5688 14.8599 53.5611 14.8441 53.5572 14.8272C53.5532 14.8103 53.5532 14.7927 53.5571 14.7758L54.4161 10.0051C54.4206 9.99021 54.4221 9.97453 54.4205 9.95901C54.4189 9.94349 54.4143 9.92843 54.407 9.91469C54.3996 9.90095 54.3895 9.8888 54.3774 9.87893C54.3654 9.86907 54.3515 9.86168 54.3365 9.85719C54.3216 9.8527 54.3059 9.8512 54.2904 9.85277C54.2749 9.85434 54.2598 9.85895 54.2461 9.86634C54.2323 9.87373 54.2202 9.88375 54.2103 9.89583C54.2004 9.90792 54.193 9.92183 54.1886 9.93677L52.0812 14.8406C52.0724 14.863 52.0567 14.882 52.0363 14.8949C52.0159 14.9078 51.992 14.9138 51.968 14.9122H50.1109C50.0808 14.9122 50.0518 14.9002 50.0305 14.8789C50.0091 14.8576 49.9971 14.8287 49.997 14.7986L49.6211 9.89478C49.6218 9.87934 49.6195 9.86391 49.6143 9.84936C49.609 9.83482 49.601 9.82144 49.5906 9.81001C49.5802 9.79857 49.5676 9.78929 49.5537 9.78271C49.5397 9.77612 49.5245 9.77235 49.5091 9.77162C49.4937 9.77088 49.4782 9.77319 49.4637 9.77842C49.4491 9.78365 49.4358 9.79169 49.4243 9.80209C49.4129 9.81249 49.4036 9.82504 49.397 9.83902C49.3904 9.853 49.3867 9.86814 49.3859 9.88358L48.5306 14.8102C48.527 14.8376 48.5134 14.8628 48.4925 14.8809C48.4715 14.8991 48.4447 14.9089 48.417 14.9086H46.9154C46.8998 14.908 46.8844 14.9044 46.8701 14.898C46.8559 14.8915 46.843 14.8823 46.8323 14.8708C46.8216 14.8594 46.8133 14.846 46.8078 14.8313C46.8023 14.8166 46.7997 14.801 46.8003 14.7854L46.8019 14.769L48.1183 7.32751C48.1222 7.30028 48.1359 7.27539 48.1568 7.25746C48.1777 7.23953 48.2043 7.22975 48.2319 7.22994H50.8591ZM30.4721 7.23674C30.4998 7.2365 30.5267 7.24642 30.5476 7.26461C30.5685 7.2828 30.5821 7.30802 30.5857 7.33551L31.8785 14.7746C31.8822 14.7914 31.882 14.8089 31.878 14.8257C31.874 14.8424 31.8662 14.8581 31.8553 14.8714C31.8444 14.8848 31.8306 14.8955 31.8149 14.9027C31.7993 14.91 31.7822 14.9136 31.7649 14.9133H30.1178C30.0899 14.9122 30.0633 14.9013 30.0426 14.8826C30.0219 14.8639 30.0083 14.8386 30.0043 14.811L29.7223 12.8447C29.7183 12.8172 29.7047 12.792 29.6839 12.7735C29.6632 12.755 29.6366 12.7444 29.6088 12.7436H27.912C27.8835 12.7437 27.8554 12.7366 27.8305 12.7228C27.8055 12.709 27.7845 12.689 27.7695 12.6648C27.7544 12.6405 27.7458 12.6129 27.7446 12.5844C27.7433 12.5559 27.7493 12.5275 27.7621 12.502L28.2763 11.4667C28.2905 11.4391 28.3119 11.4159 28.3384 11.3997C28.3648 11.3834 28.3953 11.3748 28.4263 11.3748H29.3636L29.3764 11.3736C29.4077 11.3689 29.4358 11.3521 29.4547 11.3268C29.4736 11.3014 29.4817 11.2697 29.4772 11.2384L29.1829 9.19378C29.1876 9.16368 29.1803 9.13293 29.1625 9.10821C29.1446 9.0835 29.1178 9.06682 29.0877 9.06182C29.0575 9.0571 29.0266 9.06455 29.0019 9.08254C28.9772 9.10053 28.9606 9.12759 28.9558 9.15779L28.18 10.6966L28.0912 10.8761L27.9276 11.202V11.208L26.2297 14.6222L26.1162 14.8494C26.1069 14.8695 26.092 14.8864 26.0732 14.8981C26.0545 14.9098 26.0327 14.9158 26.0106 14.9153H24.4122C24.3917 14.9154 24.3715 14.9101 24.3536 14.9C24.3357 14.8899 24.3207 14.8754 24.3101 14.8578C24.2995 14.8402 24.2936 14.8202 24.293 14.7996C24.2924 14.7791 24.2971 14.7588 24.3067 14.7406L28.2535 7.29912C28.2735 7.25913 28.3151 7.23514 28.3595 7.23674H30.4721ZM44.7073 7.23674C44.7636 7.23874 44.8112 7.27993 44.8208 7.33551L46.1077 14.777C46.1115 14.7938 46.1115 14.8113 46.1075 14.8281C46.1036 14.8448 46.0959 14.8605 46.0849 14.8739C46.074 14.8872 46.0602 14.8979 46.0445 14.9051C46.0288 14.9123 46.0117 14.9158 45.9945 14.9153H44.3462C44.3179 14.9156 44.2906 14.9053 44.2696 14.8864C44.2486 14.8675 44.2354 14.8415 44.2326 14.8134L43.9495 12.8467C43.9464 12.8189 43.9331 12.7931 43.9121 12.7745C43.8911 12.7559 43.864 12.7457 43.8359 12.746H42.1324C42.1037 12.7459 42.0755 12.7385 42.0505 12.7244C42.0255 12.7103 42.0046 12.6899 41.9897 12.6654C41.9749 12.6409 41.9666 12.6129 41.9656 12.5842C41.9647 12.5555 41.9712 12.5271 41.9844 12.5016L42.4991 11.4667C42.5271 11.4107 42.5847 11.3748 42.6479 11.3748H43.5852L43.598 11.3736C43.6292 11.3689 43.6574 11.3521 43.6762 11.3268C43.6951 11.3014 43.7032 11.2697 43.6987 11.2384L43.4044 9.19378C43.4092 9.16361 43.4018 9.13277 43.3838 9.10806C43.3659 9.08335 43.3388 9.06679 43.3087 9.06202C43.2785 9.05725 43.2477 9.06465 43.2229 9.08261C43.1982 9.10058 43.1817 9.12762 43.1769 9.15779L42.3867 10.7397L42.1596 11.2044V11.2124L40.3513 14.8494C40.342 14.8697 40.3269 14.8868 40.3079 14.8985C40.2889 14.9103 40.2669 14.9161 40.2445 14.9153H38.6462C38.625 14.9173 38.6037 14.9131 38.5848 14.9035C38.5658 14.8939 38.5499 14.8791 38.539 14.8608C38.5281 14.8426 38.5225 14.8216 38.5229 14.8004C38.5233 14.7791 38.5298 14.7584 38.5414 14.7406L42.4879 7.29912C42.4983 7.28019 42.5135 7.2644 42.5321 7.25342C42.5507 7.24244 42.5719 7.23668 42.5935 7.23674H44.7073ZM35.4907 7.23674C35.5081 7.23626 35.5254 7.2398 35.5412 7.24707C35.5571 7.25435 35.571 7.26517 35.582 7.2787C35.593 7.29224 35.6007 7.30811 35.6046 7.32511C35.6084 7.3421 35.6083 7.35975 35.6043 7.3767L34.5526 13.307C34.5485 13.3239 34.5484 13.3415 34.5522 13.3584C34.5561 13.3754 34.5637 13.3912 34.5747 13.4047C34.5856 13.4182 34.5995 13.429 34.6153 13.4363C34.6311 13.4435 34.6484 13.447 34.6657 13.4466H38.2883C38.3095 13.4448 38.3308 13.449 38.3497 13.4587C38.3686 13.4684 38.3844 13.4832 38.3954 13.5014C38.4063 13.5197 38.4119 13.5406 38.4114 13.5619C38.411 13.5832 38.4047 13.6039 38.3931 13.6217L37.7396 14.8534C37.7305 14.8715 37.7165 14.8868 37.6994 14.8978C37.6822 14.9087 37.6624 14.9147 37.6421 14.9153H32.6803C32.6629 14.9158 32.6457 14.9123 32.6299 14.905C32.6141 14.8978 32.6001 14.887 32.5892 14.8735C32.5782 14.86 32.5705 14.8442 32.5666 14.8273C32.5627 14.8103 32.5627 14.7927 32.5667 14.7758L33.8823 7.33431C33.8863 7.30707 33.9 7.28219 33.9209 7.26426C33.9417 7.24632 33.9684 7.23655 33.9959 7.23674H35.4907ZM21.2499 7.23674C21.2674 7.23626 21.2847 7.2398 21.3005 7.24707C21.3163 7.25435 21.3303 7.26517 21.3413 7.2787C21.3522 7.29224 21.3599 7.30811 21.3638 7.32511C21.3677 7.3421 21.3676 7.35975 21.3635 7.3767L20.323 13.307C20.319 13.3239 20.319 13.3415 20.3229 13.3585C20.3268 13.3754 20.3345 13.3912 20.3455 13.4047C20.3564 13.4182 20.3704 13.429 20.3862 13.4362C20.4019 13.4435 20.4192 13.447 20.4366 13.4466H24.0591C24.0804 13.4447 24.1017 13.4488 24.1206 13.4585C24.1396 13.4682 24.1554 13.4831 24.1663 13.5014C24.1772 13.5197 24.1828 13.5407 24.1823 13.5619C24.1818 13.5832 24.1753 13.604 24.1635 13.6217L23.5101 14.8534C23.5004 14.8723 23.4856 14.8882 23.4674 14.8991C23.4492 14.9101 23.4282 14.9157 23.4069 14.9153H18.4467C18.4294 14.9157 18.4122 14.9121 18.3964 14.9049C18.3807 14.8976 18.3668 14.8868 18.3558 14.8733C18.3449 14.8599 18.3371 14.8441 18.3332 14.8272C18.3293 14.8103 18.3293 14.7927 18.3332 14.7758L19.642 7.33431C19.646 7.30707 19.6596 7.28219 19.6805 7.26426C19.7014 7.24632 19.728 7.23655 19.7556 7.23674H21.2499ZM61.4301 8.37161C59.7386 8.37161 58.9492 10.1891 58.9492 11.6999C58.9492 12.9231 59.5718 13.7809 60.7291 13.7809C62.4102 13.7809 63.2112 11.9666 63.2112 10.4526C63.2112 9.21777 62.5874 8.37161 61.4301 8.37161Z" fill="#FF671D"/>
</g>
<defs>
<clipPath id="clip0_1801_11599">
<rect width="79.9772" height="22.3936" fill="white"/>
</clipPath>
</defs>
</svg>
