<svg width="80" height="71" viewBox="0 0 80 71" fill="none" xmlns="http://www.w3.org/2000/svg">
<g clip-path="url(#clip0_1801_11257)">
<path fill-rule="evenodd" clip-rule="evenodd" d="M53.3119 63.0144C53.9727 62.9969 54.6861 62.991 55.3468 63.0144C56.5514 63.0612 57.1303 64.143 56.7268 65.3885C56.3468 66.558 54.1949 67.7684 52.9669 66.3241C52.6862 65.9908 52.9084 65.5055 53.0488 64.7277C53.1423 64.1898 53.2359 63.5524 53.3177 63.0144H53.3119ZM52.5517 67.4C52.9727 67.5345 53.768 68.3298 55.3585 67.8503C57.1888 67.3006 58.5162 65.4294 57.9899 63.7161C57.3174 61.5174 54.8323 62.0554 52.7505 62.0379C52.2886 62.0379 52.2067 61.7572 52.0547 63.0787C51.8091 65.2189 51.0372 68.4292 50.8267 70.47L52.0079 70.4466C52.1599 70.1484 52.5459 67.8211 52.5517 67.4ZM40.6812 64.5114C41.1724 62.7103 44.3535 61.9677 44.3886 64.5114H40.6812ZM45.33 65.3827C45.4762 65.2949 45.4119 65.4528 45.4938 65.1663L45.5873 64.1313C45.5171 62.9559 44.7453 62.0379 43.4179 61.9034C42.5758 61.8215 41.6227 62.0963 41.0613 62.4647C40.4649 62.8565 40.0322 63.336 39.6989 64.0026C39.3597 64.6809 39.2252 65.7627 39.541 66.5288C40.5 68.8268 44.3769 68.1719 45.1488 66.2949C42.646 66.3241 44.5348 66.3124 43.0144 66.8855C41.8449 67.324 40.4707 66.6808 40.5409 65.3885H45.3359L45.33 65.3827ZM63.2351 64.5172C63.6445 63.0027 66.1414 62.0788 66.8255 63.7804C66.9132 63.9968 66.9366 64.2599 66.9366 64.5231H63.2351V64.5172ZM67.9541 65.371C68.5915 64.2424 67.8956 61.1257 64.5742 62.0496C64.3169 62.1197 64.2351 62.1197 64.0246 62.2367L63.3755 62.6402C62.1358 63.5582 61.5335 65.254 62.0949 66.5288C63.124 68.8619 66.9308 68.1134 67.6968 66.289L66.4104 66.3007C66.4104 66.3007 65.6092 67.3006 64.276 66.9439C63.6035 66.7627 63.0539 66.2247 63.0773 65.3827L67.9599 65.371H67.9541ZM70.9188 68.0316C69.4628 68.0316 68.2348 67.5345 68.3459 65.9499H69.4394C69.6265 66.4995 69.7317 67.0901 70.9188 67.0901C72.5619 67.0901 72.8251 66.137 72.369 65.716C71.8018 65.1897 68.5388 65.6867 68.995 63.5816C69.4101 61.6578 72.3982 61.5642 73.4098 62.2601C73.8952 62.5934 74.1525 62.9735 74.0999 63.7337L73.2578 63.7746C73.2578 63.7746 73.1584 63.7746 73.135 63.7687C72.9596 63.7395 73.0298 63.7395 72.983 63.7161C72.9245 63.4062 72.9186 63.2366 72.7081 63.0787C72.0649 62.5875 70.8896 62.7162 70.4451 63.1138C69.9656 63.5465 70.2112 64.1254 70.7668 64.2658C71.2346 64.3827 71.9187 64.4763 72.3982 64.5582C74.8015 64.9733 73.8952 68.0257 70.9071 68.0257L70.9188 68.0316ZM76.1231 63.9617C76.0529 63.5231 76.1114 63.2483 76.4389 63.0495C77.0295 62.6928 77.8189 62.6694 78.4387 62.9852C78.7603 63.1489 78.8246 63.3477 78.8773 63.7804L79.9825 63.7512C80.117 62.1431 78.4563 61.6636 76.9301 61.9326C75.0179 62.2659 74.4566 63.8272 75.0822 64.6809C75.8132 65.675 78.8188 65.0669 78.427 66.3416C78.2458 66.9381 77.4154 67.1311 76.6669 67.096C75.5266 67.0434 75.5091 66.4411 75.322 65.9557L74.2285 65.9674C74.1759 66.6983 74.4215 67.1954 74.9477 67.593C75.9009 68.3064 77.9885 68.1251 78.9767 67.3182C79.5731 66.8328 80.1228 65.3943 79.0118 64.8213C77.93 64.2658 76.9827 64.6166 76.1231 63.9617ZM62.5042 61.9151L62.3112 63.0086C61.4458 63.1138 59.9839 63.4354 59.8026 64.447C59.7032 65.0026 59.598 65.5698 59.4986 66.1194C59.3933 66.6983 59.3348 67.248 59.2179 67.8211L58.025 67.8328L58.9898 62.0496H60.1652L60.0775 62.7922C60.3055 62.6986 60.5453 62.4355 61.1125 62.1665C61.4341 62.0145 62.0949 61.8975 62.5101 61.9034L62.5042 61.9151ZM45.5054 62.0437H46.8796C46.8913 62.0905 46.9089 62.0905 46.9147 62.108C46.9147 62.1314 46.9439 62.1314 46.9498 62.1373L48.8093 64.8739L46.9615 66.7568C46.827 66.8738 46.7568 66.9673 46.5872 67.1194C45.599 68.0082 46.2598 67.8211 44.4821 67.8269L46.5639 65.675C46.7978 65.4294 47.0667 65.1721 47.2948 64.9324C47.2305 64.6283 47.0083 64.4529 46.8504 64.2073C46.675 63.9266 46.5639 63.7512 46.3943 63.4881C46.2247 63.2249 46.1253 63.0319 45.9382 62.7747C45.751 62.5174 45.6692 62.2893 45.5054 62.032V62.0437ZM48.2012 65.9908C48.324 66.1721 48.4 66.3533 48.5111 66.5112C48.6456 66.6983 48.7333 66.8095 48.8385 66.9849C49.4642 68.055 49.3473 67.8328 50.7799 67.8328C50.6805 67.5111 49.6806 66.2247 49.4467 65.8212C49.3122 65.5932 49.1368 65.3066 48.9672 65.2072C48.821 65.3008 48.3123 65.8037 48.1953 65.9849L48.2012 65.9908ZM48.5169 63.8915C48.6865 63.5933 48.9555 63.4237 49.1602 63.2132L49.78 62.5992C50.4583 61.9092 50.0256 62.0262 51.7097 62.0437L50.4057 63.4003C50.2653 63.5407 50.1893 63.5875 50.0431 63.7161C49.7624 63.9676 49.3356 64.5348 49.0374 64.6342L48.5228 63.8857L48.5169 63.8915Z" fill="#25495F"/>
<path fill-rule="evenodd" clip-rule="evenodd" d="M31.0387 63.757C31.0621 64.143 30.8399 65.061 30.7638 65.5113C30.6878 65.9265 30.7463 65.9908 30.4715 66.2656C29.6002 67.1252 27.7757 67.4059 27.0974 65.9908C26.5244 64.8038 27.4834 63.6752 28.1851 63.2366C28.6529 62.9442 29.2493 62.8214 29.8341 62.9442C30.5592 63.0963 30.6995 63.3477 31.0504 63.7629L31.0387 63.757ZM30.3136 67.4059C30.4247 67.2714 30.1498 67.2305 30.5007 67.324L30.5475 67.7217H31.4831L31.6585 66.71C31.6585 66.6867 31.676 66.5522 31.6819 66.5463C31.7462 66.3592 31.6468 66.4878 31.8222 66.3533L32.9684 59.6111L31.7755 59.6345L31.2843 62.4355C30.9159 62.3419 30.5767 61.9326 29.5826 61.8917C26.1384 61.7513 24.4134 66.1779 26.9922 67.6456C28.0447 68.2421 29.4657 67.9556 30.3253 67.4117L30.3136 67.4059ZM11.8179 63.0203C11.8062 63.5114 11.6483 64.2716 11.5606 64.7862C11.4319 65.5347 11.4378 65.9908 11.0577 66.3183C10.3326 66.9498 8.88239 67.324 8.09882 66.4878C6.87084 65.178 8.13391 63.0787 9.78291 63.0086C10.3852 62.9852 11.2214 62.9676 11.812 63.0144L11.8179 63.0203ZM12.233 67.8035C12.3909 66.8153 12.5663 65.8855 12.7476 64.9149L13.1862 62.032C12.2096 61.9969 9.5841 61.9326 8.84731 62.1899C7.75382 62.57 6.9644 63.3243 6.56677 64.3593C6.37965 64.8447 6.36796 65.8621 6.53753 66.3767C6.71296 66.9089 7.13983 67.3065 7.54916 67.593C7.98772 67.8971 8.77129 68.0199 9.41452 67.9614C10.1805 67.8854 10.8179 67.4527 11.0811 67.4001V67.8211L12.2272 67.8035H12.233ZM37.9154 63.0086C37.9271 63.6167 37.6171 64.9499 37.4943 65.6692C37.4242 66.0785 37.4066 66.1253 37.1552 66.33C35.5939 67.6106 33.4712 66.8621 33.7285 64.9382C33.787 64.5055 34.1612 63.874 34.4595 63.6401C35.4828 62.8214 36.3424 62.9559 37.9154 63.0144V63.0086ZM39.3188 62.0379L38.3481 67.8152H37.1844L37.1903 67.4059C36.8804 67.4702 36.9915 67.5404 36.4009 67.7392C33.8747 68.5988 31.9216 66.9381 32.6935 64.3359C32.9742 63.3886 34.0092 62.5232 34.9858 62.1841C35.5997 61.9735 38.5294 61.9735 39.3246 62.0437L39.3188 62.0379ZM24.314 63.0086C24.314 63.6576 24.0333 64.8681 23.9047 65.6224C23.8345 66.0376 23.7994 66.1194 23.5597 66.3241C22.0744 67.5813 19.8348 66.8679 20.1272 64.9265C20.2734 63.9675 21.2733 63.0553 22.2732 63.0086C22.8989 62.9793 23.6883 62.9793 24.314 63.0086ZM25.7174 62.0379L24.7409 67.8094H23.5772L23.5831 67.4001C23.355 67.4468 20.9517 68.938 19.3729 66.9615C18.1858 65.4704 19.2501 62.0262 22.5831 62.0262L25.7116 62.0379H25.7174ZM17.0222 64.5465L14.7592 66.8153L18.2033 66.8387L18.063 67.7977L12.7827 67.8152C12.7652 67.2012 12.8763 67.1545 13.6306 66.4703L16.4959 63.6459C16.6596 63.4764 16.9637 63.2659 17.0397 63.0144L13.7066 63.0027L13.8469 62.0496L19.0395 62.032C19.0395 62.1958 19.0279 62.3419 18.9928 62.5057C18.9284 62.8156 17.9344 63.6518 17.6127 63.9617C17.4724 64.0962 17.4666 64.143 17.3438 64.2482C17.2093 64.3652 17.1508 64.4061 17.0222 64.5406V64.5465ZM2.01155 63.2015C2.12265 62.6811 2.58461 59.962 2.58461 59.5936L1.36832 59.6345L0 67.7977C0.54382 67.8795 4.17513 67.8211 5.28032 67.8211C5.57854 67.8211 5.75981 67.862 5.98787 67.7568L6.1516 66.7627L1.4268 66.7451L2.0174 63.2074L2.01155 63.2015ZM30.3194 67.3942C30.5124 67.4761 30.413 67.248 30.4247 67.6106C30.4247 67.6106 30.4013 67.7509 30.4013 67.8152L31.5883 67.8035L31.8164 66.3416C31.641 66.4761 31.7404 66.3475 31.6761 66.5346C31.6761 66.5346 31.6585 66.675 31.6527 66.6983L31.4772 67.6983H30.5416L30.4949 67.3123C30.144 67.2188 30.4188 67.2597 30.3077 67.3942H30.3194Z" fill="#F17121"/>
<path fill-rule="evenodd" clip-rule="evenodd" d="M15.6778 28.6952C15.2801 22.9939 17.3092 16.8306 20.7242 12.5151C20.9639 12.2169 21.1686 11.983 21.3849 11.6906C23.0866 9.45101 26.4197 6.94827 29.051 5.63842C44.9388 -2.27328 63.5515 8.77854 64.3526 26.134C65.218 44.9513 46.1492 56.4534 30.8872 49.9977C29.4253 49.3779 28.1798 48.7581 26.9109 47.9453C26.5483 47.7114 26.3261 47.5827 26.0103 47.3488C24.8701 46.4951 23.6362 45.5419 22.6948 44.5479L20.5955 42.1036C17.701 38.5483 16.0111 33.5721 15.6719 28.6952H15.6778ZM12.6546 28.8589C13.0464 33.2095 13.7773 36.1976 15.514 39.6593C16.3093 41.244 17.1747 42.6357 18.1454 43.8871C19.0986 45.1209 19.4494 45.5536 20.5663 46.6764L22.3205 48.3137C23.2971 49.1323 24.1801 49.7814 25.2677 50.4889C33.156 55.6348 43.8453 56.2195 52.2599 51.9099C56.5227 49.7288 60.7037 46.0974 63.1012 42.1679C66.0951 37.2677 67.6506 32.1219 67.3699 25.9703C66.7091 11.3631 54.1018 -0.8114 38.565 0.0423392C31.0684 0.451666 24.028 4.00696 19.4553 9.26389L18.3091 10.6848C14.5784 15.2751 12.1108 22.8009 12.6546 28.8589ZM25.5718 37.1917H36.8166C37.9919 37.1917 39.5006 36.9344 40.366 36.3847C40.8631 36.0689 41.1788 35.7239 41.4361 35.2152C41.67 34.7591 41.8571 34.0457 41.8045 33.4551L25.8174 33.4317C25.9928 32.9873 26.8056 31.9932 27.1038 31.5488C27.5541 30.8822 27.9868 30.3208 28.4371 29.6601L31.1211 25.9001C32.0333 24.6429 32.8753 23.3623 33.7875 22.1167C34.9103 20.5847 34.5594 18.4094 33.2554 17.6083L21.5428 33.0224C21.075 33.6481 21.0282 33.6715 21.2154 34.7065C21.6071 36.8467 23.5251 37.1975 25.5659 37.1975L25.5718 37.1917ZM48.5525 27.783C47.1433 29.3326 43.4301 32.4142 42.7226 34.2738C42.2548 35.5017 42.781 36.6186 43.512 37.1858C43.7927 37.0864 44.892 35.9169 45.1668 35.6421C45.4417 35.3731 45.7223 35.0807 45.9855 34.8059L50.1197 30.7418C50.5933 31.2623 53.0727 36.6362 53.5931 37.1858C54.1311 36.987 55.0667 36.0748 55.3649 35.5894C56.4935 33.7533 55.1836 31.8938 54.4352 30.5021C54.0258 29.7419 53.6399 28.9934 53.213 28.2508C52.3768 26.7831 51.5991 25.251 50.7863 23.8067C50.3536 23.0407 49.915 22.4267 48.9619 22.1635C48.0497 21.9179 46.6404 21.9998 45.6346 21.994C45.8627 22.836 48.4356 27.093 48.5467 27.783H48.5525ZM52.1078 24.3096C52.1429 24.5727 53.3534 26.8766 53.5931 27.1982L54.9322 25.982C55.3532 25.5492 55.8035 25.0931 56.2479 24.6487C57.3238 23.5552 58.0138 22.8535 58.8617 22.029C57.9261 21.8828 55.3649 21.9238 54.593 22.2454C53.7627 22.5904 52.716 23.6488 52.1137 24.3154L52.1078 24.3096Z" fill="#25495F"/>
<path fill-rule="evenodd" clip-rule="evenodd" d="M29.5189 31.4202C32.3841 31.4611 35.2728 31.426 38.1381 31.4202C41.0209 31.4202 43.1611 30.8705 43.1611 27.8005L31.9397 27.7772C31.5479 28.3151 29.6124 31.0576 29.5189 31.4143V31.4202Z" fill="#F17121"/>
<path fill-rule="evenodd" clip-rule="evenodd" d="M33.5361 25.6019C35.8342 25.7071 38.7053 25.6662 41.0268 25.6019C43.4067 25.5434 45.0791 24.5084 44.9856 22.0056H35.8868C35.5827 22.7132 33.577 25.1165 33.5303 25.6019H33.5361Z" fill="#F17121"/>
</g>
<defs>
<clipPath id="clip0_1801_11257">
<rect width="79.9901" height="70.47" fill="white"/>
</clipPath>
</defs>
</svg>
