<svg width="80" height="19" viewBox="0 0 80 19" fill="none" xmlns="http://www.w3.org/2000/svg">
<g clip-path="url(#clip0_1801_11420)">
<path fill-rule="evenodd" clip-rule="evenodd" d="M8.945 6.50347C8.945 8.09311 12.0628 7.37733 12.0628 6.02482C12.0628 5.5857 11.9398 5.31344 11.4217 5.16414C10.3502 4.85675 8.94061 5.64717 8.94061 6.50347H8.945ZM9.49391 13.6524H7.3378C6.90745 13.6524 7.31584 12.6951 7.44758 12.2868L8.33901 9.25679C8.41366 8.97136 8.47953 8.78253 8.56296 8.48832C8.63761 8.21606 8.72544 7.98333 9.03722 7.98333C9.57734 7.98333 10.9386 7.92624 11.3778 8.03163C11.3909 8.08872 11.4217 8.16337 11.4217 8.17654C11.4217 8.34341 11.0792 9.41488 11.0133 9.61248C10.8596 10.0867 10.7454 10.5566 10.5873 11.0309L9.94621 13.1782C9.87595 13.4109 9.7969 13.6612 9.49391 13.6612V13.6524ZM15.9139 7.6935C16.9107 7.6935 18.013 8.08432 18.4389 8.93184C19.3172 10.684 17.8022 12.3965 16.4189 13.1299C15.6856 13.5207 15.1015 13.6393 14.2628 13.7051C12.1067 13.872 10.6356 12.2692 11.6017 10.2668C12.3526 8.70788 14.276 7.6935 15.9139 7.6935ZM13.8061 10.9343C13.8061 11.1933 13.9071 11.3646 14.0608 11.4788C14.557 11.8564 15.2421 11.6632 15.6417 11.3646C16.9898 10.3546 15.6241 9.12945 14.355 10.0736C14.1399 10.2317 13.8061 10.5654 13.8061 10.9343ZM6.74059 11.4129C6.74059 10.965 6.16533 11.0792 5.7306 11.0792C2.73576 11.0792 3.08706 11.2943 3.91261 8.71228C4.03118 8.34341 4.14535 8.03163 4.25513 7.68911C4.39565 7.25438 5.04117 5.73939 4.62839 5.73939H2.33615C2.05072 5.73939 1.86629 5.98091 1.77846 6.20926L0.430344 10.0516C0.0966078 11.0792 0 10.9694 0 12.0848C0 13.0816 0.97486 13.6568 1.92776 13.6568H5.55055C5.80086 13.6568 6.00285 13.5295 6.09946 13.3714C6.23998 13.1474 6.74059 11.5666 6.74059 11.4173V11.4129ZM25.3639 13.6524C25.5835 13.6524 25.6889 13.5295 25.7504 13.3363L26.1719 11.773C26.51 10.3722 27.2346 9.19531 25.9699 8.20728C25.6581 7.96576 24.9468 7.73742 24.4022 7.73742C23.2298 7.73742 23.3659 7.79889 22.2725 8.00528C20.7136 8.2995 20.4194 7.50029 20.1076 8.47076C20.0285 8.71667 19.9627 8.9011 19.8924 9.1514L18.8122 12.7039C18.7024 13.0816 18.395 13.6524 18.9 13.6524H20.6433C21.1791 13.6524 21.2932 13.4153 21.4294 12.9894L22.1364 10.7718C22.233 10.4117 22.3954 9.98135 22.7994 9.98135C23.1112 9.98135 23.7611 9.88474 23.7611 10.2668C23.7611 10.7235 23.6777 10.7981 23.5767 11.1714C23.5108 11.4217 23.4406 11.6456 23.3659 11.9047C23.2913 12.177 23.2298 12.3922 23.1639 12.6468C23.098 12.8928 22.7863 13.6481 23.1639 13.6481H25.3639V13.6524Z" fill="#FF0000"/>
<path fill-rule="evenodd" clip-rule="evenodd" d="M61.8948 10.3678C61.93 10.3678 61.9431 10.4205 62.233 10.359C62.9487 10.2053 63.5547 9.05918 63.5547 8.87914C63.5547 8.4488 63.2122 8.29072 62.7687 8.29072L59.8002 8.33463C59.5411 8.33463 59.4928 8.36537 59.383 8.53662C59.2864 8.68593 58.496 11.347 58.4082 11.6852C57.9998 13.2397 57.5036 13.7666 58.3643 13.7666H59.8485C60.2657 13.7666 60.4765 13.4724 60.5731 13.1167C60.6785 12.7347 60.7443 12.4185 60.8585 12.054C60.9639 11.7071 61.0824 11.3339 61.1966 11.0045C61.302 10.6971 61.5172 10.3766 61.8992 10.3766L61.8948 10.3678ZM66.9097 10.0516C65.847 10.0516 64.9687 11.1626 65.9216 11.751C66.2729 11.9706 66.4222 11.9091 66.7735 11.9047C67.34 11.8959 67.2653 11.8915 67.3795 12.3658C67.643 13.49 67.7264 13.4856 66.958 13.7183C66.0094 14.0081 64.4242 13.8632 63.6909 13.2484C63.12 12.7654 62.9356 12.1945 62.9356 11.3602C62.9356 10.7981 63.2605 10.3327 63.5064 10.0077C63.8094 9.61248 64.1168 9.36657 64.5164 9.06358C66.0577 7.90867 68.7803 7.92185 68.7803 8.41806C68.7803 8.58493 68.7145 8.63323 68.6486 8.73423C67.6079 10.3063 68.1173 10.0428 66.9009 10.0428L66.9097 10.0516ZM79.9956 6.25317H77.2467C77.1237 6.51664 77.0403 6.92064 76.9481 7.21046L75.8151 10.9606C75.7141 11.2724 75.6351 11.5622 75.5297 11.8872L75.1037 13.3011C75.0598 13.4329 74.9896 13.5954 74.9764 13.7578H77.8132L79.9956 6.25317ZM70.8794 12.2209C70.8794 12.0057 71.1955 11.9794 71.3931 11.9399L73.3077 11.4832C73.7425 11.369 74.164 11.2592 74.5548 11.1494C74.7832 11.0836 74.9457 11.0309 75.0686 10.8684C75.5912 10.1921 75.0291 9.22605 74.5548 8.72984C73.9401 8.08872 73.3604 8.06237 72.5393 8.06237C71.7181 8.06237 70.3041 8.64641 69.6542 9.13823C68.8989 9.71348 68.1524 10.6708 68.227 11.6676C68.4378 14.5263 72.4558 13.9994 73.962 13.0596C74.3528 12.8137 74.5461 12.66 74.5461 12.2648C74.5461 11.7642 72.8335 12.7171 71.841 12.7171C71.5249 12.7171 70.8794 12.4844 70.8794 12.2209ZM70.8794 11.0923C70.5588 11.0923 70.774 10.6137 71.0638 10.3327C71.5776 9.83644 72.6095 9.94183 72.7544 10.5039C72.6446 10.6752 72.57 10.6488 72.346 10.7147C72.0518 10.8025 71.1253 11.0923 70.8794 11.0923ZM56.5726 13.7578H54.8732C54.4297 13.7578 54.8249 12.8049 54.8688 12.6688C55.0532 12.0935 55.5275 10.64 55.5275 10.0999C55.5275 9.8584 55.3475 9.66518 55.1674 9.61248C54.9259 9.54222 54.6756 9.59492 54.478 9.69592C54.1311 9.86279 53.8149 10.2404 53.648 10.6005C53.4943 10.9343 53.2836 11.5578 53.3802 12.0101C53.5119 12.6293 53.9686 12.4536 54.5658 12.4536C54.5658 12.6908 54.5307 12.7742 54.3375 12.985C52.5371 14.9654 50.3897 13.1694 51.672 10.539C52.1418 9.57296 52.7654 8.94501 53.7095 8.48832C54.5658 8.07115 55.3343 8.07554 56.2257 8.20289C56.8844 8.2995 56.9722 8.47076 57.789 8.57176C58.4477 8.6508 58.5531 8.76497 58.2589 9.67835C58.1886 9.89792 58.1447 10.078 58.0744 10.3019L57.3104 12.8576C57.1742 13.2836 57.1347 13.7666 56.5726 13.7666V13.7578ZM47.8472 13.7578C49.024 13.7578 50.2272 12.9103 50.7279 11.9047C51.1231 11.1187 51.2504 10.135 50.8025 9.34023C49.9111 7.75937 48.1458 8.00089 46.6967 8.22484C46.2136 8.2995 45.6384 8.22485 45.1993 8.2995C44.9621 8.33902 44.8348 8.44002 44.7601 8.65519C44.5757 9.15579 44.3737 9.96379 44.1937 10.5083C43.7414 11.9047 43.3242 13.4417 42.8719 14.8381C42.7709 15.1543 42.4855 15.791 42.9641 15.791C45.2388 15.791 45.1773 16.0369 45.4935 14.8425C45.6033 14.4297 45.7482 14.0433 45.8404 13.6217C46.0204 13.6041 45.937 13.5778 46.1039 13.5778C46.3015 13.5778 46.5166 13.6744 46.6835 13.7007C47.1446 13.7798 47.3817 13.7578 47.8516 13.7578H47.8472ZM46.3629 11.9486C46.3629 11.8213 46.8108 10.5786 46.8811 10.359C47.0568 9.81009 47.3949 9.46318 48.0228 9.46318C49.0987 9.46318 49.1338 11.0353 48.3829 11.7818C47.6715 12.4844 46.3629 12.3219 46.3629 11.9486Z" fill="#FF0000"/>
<path fill-rule="evenodd" clip-rule="evenodd" d="M43.9871 5.88429V5.08508C43.728 5.01482 43.9432 4.98408 43.5656 4.9753C43.3767 4.9753 43.2362 4.99286 43.0474 4.95773C42.7883 4.90943 42.5292 4.76013 42.336 4.65474C42.336 4.18926 42.5029 4.18487 42.055 3.9214C41.651 3.68427 41.045 3.40762 40.6981 3.09145C40.5268 2.93336 40.3863 2.65671 40.2546 2.4635C39.8637 2.4635 39.6881 2.52498 39.6134 2.83675C39.4378 2.78845 39.3544 2.65671 39.1392 2.56011L38.0326 2.17367C37.7691 2.06828 37.7735 2.03755 37.4222 2.03755C37.0841 2.54254 37.3036 2.31419 37.1543 2.62597C36.5571 2.62597 37.0665 2.49863 36.0038 2.64793C34.8709 2.80602 35.5164 2.67867 34.8621 2.67867C34.8621 2.98606 34.7216 3.29784 34.8621 3.58766C34.6557 3.60523 33.3032 3.75453 33.2066 3.80283C32.9738 4.29026 33.4218 4.83917 33.5798 5.13778C33.4745 5.18608 33.2022 5.24317 33.0441 5.24317C33.0441 5.92381 33.3471 6.8855 33.5711 7.49149C33.8477 8.23361 34.7918 9.9506 35.288 10.3107C35.512 10.1614 35.6964 9.9989 35.9379 9.84082C37.6505 8.73861 40.0262 9.45439 40.9132 11.3075C41.9759 13.5339 40.4653 16.2389 37.9052 16.2389V15.9183C38.4937 15.9183 39.0382 15.6856 39.4114 15.4485C42.5029 13.5031 40.1404 8.51026 36.4693 9.9989C36.2453 10.0911 36.0609 10.2141 35.8677 10.359C35.6833 10.4951 35.4593 10.6093 35.3978 10.8464C34.2429 10.0736 33.088 7.99649 32.6445 6.44637C32.3371 5.38369 32.3635 5.12021 32.2317 4.13657C32.1615 3.61401 32.1395 2.26589 32.2229 1.69503C32.302 1.14612 32.3722 0.535734 32.4952 0C31.9726 0.017565 31.6916 -0.0395214 31.0066 0.316171C30.6509 0.535734 30.4225 0.900209 30.2776 1.29542C29.6321 3.07388 30.2557 5.25634 30.9846 6.82402C31.2305 7.35536 31.5247 7.80766 31.8321 8.27314C32.4425 9.1953 33.1715 9.91108 33.997 10.6444C34.7128 11.2812 35.1168 11.3295 34.8621 11.8081C34.6864 11.7598 34.7347 11.751 34.5942 11.65L32.9299 10.4336C30.9495 8.66396 29.8736 6.96454 29.2588 4.33418C27.5331 4.33418 26.9271 7.45636 30.6904 10.2668C31.7223 11.0352 32.7675 11.5798 33.9619 12.0672C34.199 12.1638 34.4537 12.2824 34.704 12.3394V12.7127C34.2561 12.7127 33.0705 12.3307 32.6357 12.1638C31.9726 11.9047 31.415 11.6939 30.8353 11.347C29.7331 10.6927 28.7714 10.0867 28.0293 8.97574C27.375 9.41047 27.353 10.4819 27.7834 11.1977C28.1391 11.7905 28.8461 12.1857 29.4696 12.5019C30.1547 12.8444 30.9495 13.064 31.8321 13.1826C32.7806 13.3099 33.6325 13.3055 34.6996 13.3055C34.7172 13.5119 34.7479 13.446 34.7523 13.6788C34.5284 13.7886 33.3954 13.9159 33.0397 13.9423C30.3435 14.1618 28.6528 12.9323 28.2401 12.8225C27.858 14.4648 29.1886 15.286 30.8002 15.2772C33.3822 15.264 34.423 14.3111 35.0158 14.2628C35.0685 14.4648 35.1212 14.3989 35.1739 14.6361C34.2693 15.1147 34.2868 15.2816 32.9519 15.7251C31.5072 16.2038 30.8441 15.9183 30.0493 15.9183C30.0493 16.6736 30.4445 17.0249 31.068 17.1391C32.3547 17.3762 33.4349 16.8976 34.3571 16.1159C34.5986 15.9139 35.3715 15.2772 35.4417 15.0093C35.6174 15.0576 35.6745 15.1411 35.7623 15.2772C35.6745 15.4485 35.5559 15.589 35.4242 15.7427C35.0421 16.1906 34.7699 16.476 34.2824 16.8405C33.7555 17.2357 32.8553 17.6748 32.1834 17.7319C32.2142 18.114 32.8377 18.5004 33.3998 18.4126C34.9323 18.1798 35.6086 16.6912 36.1883 15.5934C36.3683 15.6065 36.3815 15.6329 36.5088 15.6988C36.3815 16.2433 36.0082 16.9678 35.7184 17.363C35.2573 17.9866 35.0202 18.1359 34.3747 18.474C34.5064 18.9746 36.1487 19.3699 36.7152 17.0776C36.7899 16.7658 36.9304 16.1906 36.9392 15.8612C37.1719 15.8656 37.106 15.8964 37.3124 15.9139C37.3124 16.3004 37.2422 17.2225 37.1499 17.5123C37.0445 17.8417 36.8338 18.0964 36.6932 18.3511C36.6098 18.5004 36.5308 18.5004 36.7328 18.5706C37.2553 18.7551 37.813 18.3203 37.936 18.0305C38.1599 17.4992 38.0018 17.104 37.9535 16.5551C38.1863 16.5507 38.6693 16.4497 38.8757 16.4101C39.1919 16.3487 39.429 16.2872 39.6705 16.1906C40.4126 15.892 41.0186 15.5012 41.4665 14.8381C41.7827 14.3726 41.9496 13.9598 42.1208 13.4109C42.2789 12.9015 42.2438 13.1387 42.6478 12.9235C42.6478 12.0716 42.3755 12.4492 42.2087 11.9179C42.0155 11.3031 43.1133 11.2855 42.4546 10.7718C42.1033 10.4995 41.3743 10.1482 41.6378 9.02843C42.0989 9.02843 42.2965 9.26556 42.7049 8.97574C42.9288 8.82204 43.0254 8.33901 43.0254 7.96136C42.6698 8.04479 42.4282 8.33022 42.0242 8.00527C41.4797 7.56614 41.8618 6.51663 42.56 6.37172C43.0254 6.27511 43.2626 6.5825 43.2933 6.94698C43.5656 6.87232 43.8027 6.47272 43.8861 6.20485L43.9871 5.87551V5.88429ZM38.5947 4.65474C38.4454 4.57569 38.419 4.60204 38.3268 4.44396C38.2785 4.36491 38.2214 4.20244 38.2434 4.08826C38.2829 3.87748 38.7703 3.21001 39.3456 4.06631C39.1743 4.02679 39.0162 3.96092 38.8098 3.96092C38.4234 3.96092 38.5947 4.65474 38.5947 4.65474ZM42.0638 4.76013C42.0111 4.99286 41.9057 5.06312 41.8486 5.29586L41.752 5.18169C41.6071 5.01482 41.5807 5.03678 41.5324 4.826L42.0638 4.76452V4.76013Z" fill="#FF0000"/>
</g>
<defs>
<clipPath id="clip0_1801_11420">
<rect width="79.9956" height="18.8589" fill="white"/>
</clipPath>
</defs>
</svg>
