<svg width="80" height="55" viewBox="0 0 80 55" fill="none" xmlns="http://www.w3.org/2000/svg">
<g clip-path="url(#clip0_1801_11281)">
<path fill-rule="evenodd" clip-rule="evenodd" d="M75.1778 24.652C75.444 24.796 75.6273 24.9618 75.8892 25.1015C76.199 24.5996 79.9782 18.6385 80.0044 18.3504C79.8298 18.3024 79.9345 18.3286 79.7993 18.237C79.7251 18.189 79.6552 18.141 79.5723 18.0973C79.3934 17.997 79.2843 17.9402 79.0792 17.8529C76.679 16.8449 74.2745 16.2994 71.6605 16.0855L71.0364 16.0332C70.2073 15.9634 67.7547 16.0725 67.0696 16.1728C65.0884 16.4608 64.3858 16.6529 62.6838 17.3249C62.1209 17.5475 61.3834 17.9446 60.8728 18.2544C60.2924 18.6035 59.7513 18.9919 59.245 19.4196C58.4726 20.0742 58.4508 20.192 57.8704 20.7899C57.722 20.9383 57.6827 20.9994 57.5518 21.1565L56.6441 22.3565C56.6441 21.9856 57.5387 17.2158 57.5387 16.7663C57.2507 16.6267 56.2863 16.4608 55.8673 16.3823C54.9509 16.2121 54.1829 16.0725 53.2097 15.9808C51.0539 15.7757 48.4966 15.8368 46.4325 16.2077C46.2928 16.2339 46.1575 16.2383 46.0179 16.2688C43.8446 16.7227 42.3173 17.2813 40.2575 18.3112C38.7388 19.0705 36.487 20.7986 35.396 22.1514L34.6847 23.0242C34.5232 23.2206 34.3792 23.4214 34.2352 23.6308C34.1305 23.7836 33.9166 24.172 33.8032 24.2549C33.8032 23.9276 33.8992 23.5654 33.9472 23.2904C34.0825 22.4613 35.1211 16.8361 35.1211 16.5001C33.3973 16.5001 31.7303 16.439 29.9542 16.4478C29.4916 16.4478 29.1905 16.3954 28.6886 16.3954H24.7349L24.2723 19.0967C23.9974 20.24 23.7181 22.2955 23.4475 23.6003C23.1028 25.2979 22.8148 27.266 22.47 28.9548C22.4089 29.2516 22.374 29.5658 22.3085 29.8495C22.2562 30.0633 22.1558 30.5695 22.1514 30.8008C22.0249 30.6568 21.0168 28.4181 20.8684 28.1301L15.2433 16.2427C12.6729 16.2427 9.77526 16.3998 7.22671 16.3998H5.16692C4.90072 16.3998 4.80035 16.4521 4.53415 16.4521L0.126555 43.3734C0.0698233 43.6701 0 43.9843 0 44.2985L10.1767 44.3116H10.3338L10.7048 44.2985C11.3725 40.1397 12.6249 34.4185 12.974 30.216C13.1093 30.312 13.3188 30.8881 13.393 31.0626L16.5568 38.0799C16.6921 38.381 16.8012 38.6472 16.9452 38.957C17.5169 40.1833 18.3679 42.23 18.9134 43.3166C18.9963 43.4825 19.0268 43.5872 19.1054 43.7574C19.197 43.9581 19.245 44.0192 19.2974 44.2505H30.2684C30.2684 43.9014 30.3949 43.4344 30.456 43.0679L31.9005 34.8593L31.9791 35.0993C32.2933 36.5438 32.7471 37.7438 33.5675 38.9963C37.7177 45.3328 46.0528 45.1757 52.6642 44.3945C53.345 44.2898 52.9391 44.5036 53.2053 43.3559C53.3755 43.369 53.6155 43.4824 53.8032 43.5479C54.9771 43.9363 56.4652 44.2941 57.6871 44.4643C61.8416 45.036 65.887 45.0447 69.9018 43.7094C72.9828 42.6795 75.4484 40.7986 77.0238 37.962C77.7569 36.6441 78.5163 34.5974 78.4683 32.9653C78.381 30.2466 76.487 28.6363 74.1567 27.6238C73.7814 27.458 73.3493 27.2965 72.974 27.17C70.6175 26.3801 67.7853 25.983 65.3415 25.468L68.6624 23.1595C69.029 22.8977 69.1468 22.8802 69.3781 22.5398C71.8438 23.2992 73.0264 23.4955 75.1691 24.6564L75.1778 24.652ZM58.1497 35.1342C57.7569 34.8898 57.0892 34.4665 56.9583 34.436C56.823 34.6411 56.7139 34.8287 56.5699 35.0469L53.8643 39.3541L53.7988 39.3934C53.8075 39.1403 53.8774 38.8698 53.9166 38.6166C54.1785 37.0282 54.4403 35.3917 54.8287 33.8337C54.9029 33.5414 55.0076 33.345 55.06 33.1181C54.6018 33.4235 54.7153 33.4846 53.6766 34.1087C51.2677 35.5662 46.3976 35.7321 44.3116 33.7901C42.6533 32.2453 42.8846 30.4735 43.8228 28.5795C44.2505 27.7198 44.6782 27.1744 45.3109 26.5372C46.9823 24.844 49.5876 24.7087 51.787 25.2586C52.0969 25.3371 52.398 25.4288 52.6904 25.5161C53.4453 25.7473 54.5145 26.2579 55.2171 26.6289C55.2171 28.3963 55.8892 29.8058 57.1285 31.0452C59.904 33.825 62.1209 33.2184 65.4026 34.2701C66.511 34.6236 66.9518 35.9546 65.9306 36.7663C64.8833 37.5998 62.9893 37.1896 61.7543 36.8056L58.1497 35.1342Z" fill="#0D1B6F"/>
<path fill-rule="evenodd" clip-rule="evenodd" d="M72.276 16.1335C72.1538 17.242 70.1202 21.3572 69.4612 22.4176C69.1776 22.8758 69.0772 22.8671 68.6713 23.1551L62.4483 27.4798C62.1516 27.6893 60.8424 28.5664 60.7028 28.741L65.2238 28.8632C65.0973 29.2559 61.5101 33.2882 61.1261 33.4061C61.0519 33.6286 60.2533 34.2832 60.0307 34.5058C59.9303 34.6062 59.8692 34.6716 59.7689 34.772L59.1885 35.3C59.0794 35.396 58.9877 35.4571 58.8786 35.5488C58.6779 35.8324 57.6698 36.6267 57.3556 36.8929C55.9766 38.0755 53.9735 39.52 52.4723 40.5542C51.5472 41.1914 46.0879 44.6869 45.3591 44.7611C45.2325 44.9051 45.0449 44.9531 44.8529 45.0666C44.7351 45.1364 44.7263 45.1407 44.6129 45.1975L43.2775 45.8695C42.5269 46.2055 41.8854 46.5503 41.1217 46.8776L38.9223 47.842C33.2535 50.0982 30.3166 51.0757 24.1765 52.2409C23.1248 52.4416 22.1516 52.4198 21.2439 52.5289C20.9122 52.5682 20.7769 52.4984 20.5151 52.4853C20.2576 52.4722 19.9914 52.5027 19.7383 52.4722C19.3238 52.4198 18.7957 52.3543 18.3637 52.2627C17.4953 52.0751 16.6748 51.835 15.9417 51.4641C15.8413 51.4117 15.7977 51.3943 15.6886 51.3463L14.9118 50.9099C14.5801 50.7091 14.279 50.4953 13.9866 50.2553C13.4324 49.8014 13.1968 49.6051 12.7647 49.1032C12.6294 48.9417 12.5203 48.8152 12.3807 48.645C11.9138 48.0733 11.4905 47.3533 11.1632 46.6987C10.9319 46.2361 10.3384 44.9225 10.3384 44.3247H10.1813C10.1769 44.5429 10.094 44.8178 10.0547 45.0753C9.73178 47.1132 10.2162 49.4349 11.569 50.8881C12.6469 52.0445 14.1656 53.0002 15.6799 53.4235C16.1861 53.5632 16.6006 53.6897 17.1374 53.8119C18.7259 54.1872 20.5937 54.2745 22.3174 54.2745H23.8361C24.3248 54.2658 24.4776 54.2221 25.8391 54.0563C27.7855 53.8206 31.7174 52.8824 33.5153 52.3413C33.7728 52.2627 33.9954 52.1842 34.2354 52.11C34.471 52.0401 34.7285 51.9747 34.9642 51.8918L37.7353 50.9186C40.5195 49.9236 43.1771 48.5883 45.7999 47.2747L50.334 44.6782C50.4431 44.5472 51.5559 43.8708 51.7916 43.7225C52.276 43.417 52.7516 43.1028 53.2273 42.7842C54.1874 42.1383 55.1082 41.4925 56.0159 40.8248C57.2945 39.8865 59.4765 38.2282 60.6853 37.1634C60.8337 37.0325 61.1566 36.727 61.3443 36.679L62.2651 35.8412C62.2651 35.8412 62.3131 35.8019 62.3218 35.7931L63.8841 34.401C64.015 34.2876 64.1023 34.1785 64.2288 34.0737C64.3467 33.8512 64.578 33.7159 64.77 33.5457C65.4944 32.8998 66.7163 31.6212 67.4014 30.9012L68.3964 29.8625C68.667 30.8357 69.0292 34.3487 69.2343 34.7633L71.7087 26.7903C71.9356 26.2797 72.0883 25.6993 72.2672 25.1626C72.3807 24.8178 72.6644 23.8185 72.8782 23.6264C72.9262 23.417 73.2098 23.0199 73.3364 22.8017C73.751 22.0772 74.2048 21.1259 74.5321 20.3578C74.7809 19.7731 75.0122 19.197 75.2304 18.5774C75.3482 18.2413 75.7235 16.9278 75.85 16.775L76.1904 15.3698C76.2952 14.8942 76.4086 14.3836 76.4741 13.9166C76.6486 12.6816 76.6879 11.8961 76.6923 10.6C76.701 9.2734 76.2733 7.38381 75.7409 6.27536L75.4442 5.6775C75.13 5.06219 74.7765 4.63015 74.3663 4.11957C72.5073 1.81977 68.8372 0.589134 65.9133 0.178922C64.4732 -0.0218198 63.3124 0.00436395 61.8112 0H61.6977C60.3275 0.00872791 57.5738 0.41894 56.269 0.72878C53.8033 1.31791 53.1444 1.5492 50.8009 2.33035C49.9543 2.61401 49.0946 2.99367 48.2699 3.33406C47.4538 3.67008 46.6465 4.05411 45.8522 4.45123C45.4464 4.65197 45.0885 4.81344 44.7045 5.04473L43.8579 5.51604C43.6615 5.6295 43.6746 5.55095 43.6179 5.75169C44.7307 5.16256 46.3104 4.56906 47.4669 4.06284C48.9375 3.41698 51.3421 2.65328 52.7996 2.22562L55.3482 1.6103C55.802 1.52738 56.2035 1.42265 56.6661 1.3441C57.1767 1.26118 57.5694 1.20445 58.0888 1.13463C61.3486 0.689505 64.8616 0.850971 67.9207 1.96378L69.0728 2.44818C69.6707 2.71438 70.0416 2.98058 70.5435 3.35152C71.9748 4.42068 72.8738 6.0659 73.2186 7.85075C73.511 9.37377 73.4673 10.7004 73.236 12.2758C73.1182 13.07 72.7516 14.724 72.5029 15.4964C72.4243 15.7321 72.3545 15.8979 72.2847 16.1466L72.276 16.1335Z" fill="#FF7F00"/>
<path fill-rule="evenodd" clip-rule="evenodd" d="M5.96116 12.6075L6.43247 9.38688H5.56841L5.71678 8.41372H8.44425L8.29588 9.38688H7.47109L6.99978 12.6075H5.96116ZM8.29588 12.6075H9.2254L9.41741 11.259C9.45669 10.9797 9.52651 10.7746 9.61815 10.6437C9.7098 10.5171 9.84072 10.4517 10.0022 10.4517C10.12 10.4517 10.2117 10.4822 10.2727 10.5477C10.3338 10.6131 10.3644 10.7092 10.3644 10.8313C10.3644 10.8619 10.3644 10.8968 10.36 10.9404C10.3557 10.9841 10.3513 11.0234 10.3426 11.067L10.12 12.5987H11.0626L11.2852 11.0801C11.2852 11.0801 11.2852 11.0495 11.2895 11.0277C11.3201 10.7964 11.3376 10.6306 11.3376 10.5302C11.3376 10.2378 11.259 10.0109 11.1106 9.84946C10.9579 9.68799 10.7441 9.60508 10.4691 9.60508C10.2989 9.60508 10.1418 9.64871 9.99782 9.73599C9.85381 9.82327 9.7098 9.96292 9.56142 10.1506C9.57888 10.0807 9.59633 10.0066 9.60943 9.93237C9.62252 9.85818 9.63561 9.784 9.64434 9.70545L9.87999 8.14752H8.95483L8.30024 12.59L8.29588 12.6075ZM13.7814 10.8183C13.7726 10.6612 13.7246 10.539 13.6374 10.4473C13.5501 10.3557 13.4322 10.3077 13.2882 10.3077C13.1573 10.3077 13.0395 10.3513 12.9391 10.443C12.8344 10.5346 12.7602 10.6568 12.7035 10.8183H13.7814ZM12.6424 11.403V11.4685C12.6424 11.6518 12.686 11.7914 12.7733 11.8874C12.8606 11.9834 12.9828 12.0314 13.1486 12.0314C13.2664 12.0314 13.3755 12.0052 13.4759 11.9529C13.5806 11.9005 13.6897 11.8132 13.8075 11.6998L14.3181 12.2584C14.1654 12.4155 13.9908 12.5333 13.7945 12.6118C13.5981 12.6904 13.3755 12.7297 13.1311 12.7297C12.6947 12.7297 12.3587 12.6031 12.1187 12.3544C11.8787 12.1013 11.7565 11.7521 11.7565 11.2983C11.7565 10.8052 11.9005 10.3993 12.1842 10.0895C12.4678 9.77963 12.8388 9.62689 13.2926 9.62689C13.7028 9.62689 14.0345 9.76218 14.2876 10.0371C14.5363 10.312 14.6629 10.6742 14.6629 11.1237C14.6629 11.163 14.6585 11.2372 14.6454 11.3419C14.6454 11.3725 14.6411 11.3987 14.6367 11.4118H12.638L12.6424 11.403ZM18.9396 10.4211C19.1839 10.4691 19.3716 10.5782 19.5025 10.7397C19.6334 10.9012 19.6945 11.115 19.6945 11.3725C19.6945 11.5863 19.6509 11.7827 19.5636 11.966C19.4763 12.1449 19.3585 12.2889 19.2014 12.3936C19.0879 12.4678 18.9483 12.5246 18.7781 12.5551C18.6079 12.5857 18.3242 12.6031 17.9315 12.6031H16.6572L17.2725 8.40499H18.1497C18.4857 8.40499 18.7257 8.41372 18.8697 8.43117C19.0137 8.44863 19.1359 8.47918 19.2319 8.52281C19.3934 8.59264 19.52 8.7061 19.616 8.8632C19.712 9.02031 19.7556 9.20359 19.7556 9.39997C19.7556 9.67926 19.6814 9.90619 19.5374 10.0851C19.3934 10.264 19.1927 10.3775 18.9396 10.4124V10.4211ZM17.7831 11.7827H17.9053C18.2195 11.7827 18.4246 11.7434 18.5293 11.6605C18.6341 11.5776 18.6821 11.4336 18.6821 11.2285C18.6821 11.0757 18.6384 10.9666 18.5512 10.9012C18.4639 10.8357 18.3155 10.8052 18.106 10.8052H17.9228L17.7831 11.7871V11.7827ZM18.0362 10.0327H18.1235C18.3722 10.0327 18.5424 9.99783 18.6341 9.92364C18.7301 9.85382 18.7737 9.73163 18.7737 9.56144C18.7737 9.43925 18.7345 9.35197 18.6603 9.29523C18.5817 9.2385 18.4595 9.21232 18.2937 9.21232H18.1497L18.0362 10.0327ZM22.0423 10.8139C22.0336 10.6568 21.9856 10.5346 21.8983 10.443C21.811 10.3513 21.6932 10.3033 21.5492 10.3033C21.4183 10.3033 21.3005 10.3469 21.2001 10.4386C21.0954 10.5302 21.0212 10.6524 20.9644 10.8139H22.0423ZM20.9033 11.3987V11.4641C20.9033 11.6474 20.947 11.7871 21.0343 11.8831C21.1215 11.9791 21.2437 12.0271 21.4096 12.0271C21.5274 12.0271 21.6365 12.0009 21.7369 11.9485C21.8416 11.8962 21.9507 11.8089 22.0685 11.6954L22.5791 12.254C22.4264 12.4111 22.2518 12.5289 22.0554 12.6075C21.859 12.686 21.6365 12.7253 21.3921 12.7253C20.9557 12.7253 20.6197 12.5987 20.3797 12.35C20.1396 12.0969 20.0175 11.7478 20.0175 11.2939C20.0175 10.8008 20.1615 10.395 20.4451 10.0851C20.7288 9.77527 21.0997 9.62253 21.5536 9.62253C21.9638 9.62253 22.2954 9.75781 22.5485 10.0327C22.7973 10.3077 22.9238 10.6699 22.9238 11.1194C22.9238 11.1586 22.9195 11.2328 22.9064 11.3376C22.9064 11.3681 22.902 11.3943 22.8977 11.4074H20.899L20.9033 11.3987ZM25.4244 9.91928L25.1495 10.5695C25.0273 10.4735 24.9182 10.408 24.8134 10.3644C24.7131 10.3208 24.6127 10.2989 24.508 10.2989C24.425 10.2989 24.3552 10.3208 24.2985 10.36C24.2418 10.4037 24.2156 10.456 24.2156 10.5171C24.2156 10.6044 24.3072 10.6873 24.4905 10.7615C24.5734 10.7921 24.6345 10.8226 24.6782 10.8444C24.9356 10.9666 25.1102 11.0888 25.2149 11.2197C25.3153 11.3507 25.3677 11.5078 25.3677 11.7041C25.3677 12.0096 25.2586 12.254 25.0447 12.4373C24.8265 12.6206 24.5385 12.7122 24.1807 12.7122C23.9756 12.7122 23.7835 12.6817 23.5959 12.6249C23.4082 12.5682 23.2293 12.4766 23.0548 12.3587L23.369 11.6649C23.5479 11.7871 23.7006 11.87 23.8185 11.918C23.9407 11.966 24.0541 11.9922 24.1632 11.9922C24.2549 11.9922 24.3334 11.9703 24.3858 11.9267C24.4425 11.8831 24.4687 11.822 24.4687 11.7521C24.4687 11.643 24.3378 11.5339 24.0803 11.4161C24.0017 11.3812 23.945 11.355 23.9014 11.3376C23.6963 11.2372 23.5479 11.1281 23.4606 11.0146C23.3733 10.8968 23.3297 10.7528 23.3297 10.5782C23.3297 10.2989 23.4344 10.0677 23.6483 9.88873C23.8621 9.70545 24.1327 9.6138 24.4687 9.6138C24.6389 9.6138 24.8047 9.63999 24.9618 9.69235C25.1233 9.74472 25.2717 9.81891 25.4113 9.91928H25.4244ZM25.7953 12.6031L26.1095 10.4473H25.6644L25.7735 9.70981H26.2186L26.3365 8.87193H27.2747L27.1525 9.70981H27.6282L27.5191 10.4473H27.0434L26.7336 12.6031H25.7953ZM29.3127 12.6031L29.6269 10.4473H29.1818L29.2909 9.70981H29.736L29.7796 9.41743C29.784 9.39124 29.7927 9.35633 29.7971 9.30396C29.8494 8.91121 29.9324 8.64501 30.0327 8.50536C30.1287 8.37444 30.2553 8.2697 30.4037 8.19988C30.5564 8.12569 30.7222 8.09078 30.9055 8.09078C30.9884 8.09078 31.0801 8.09951 31.1717 8.12133C31.2634 8.13879 31.3594 8.1737 31.4597 8.21297L31.3419 9.04212C31.2895 9.01594 31.2415 8.99412 31.1892 8.98103C31.1368 8.96794 31.0932 8.95921 31.0495 8.95921C30.9448 8.95921 30.8662 8.99412 30.8139 9.06395C30.7615 9.13377 30.7222 9.26469 30.696 9.45234L30.6568 9.70981H31.2415L31.1324 10.4473H30.552L30.2422 12.6031H29.3039H29.3127ZM32.7907 10.443C32.6075 10.443 32.4504 10.5259 32.3238 10.6917C32.1973 10.8575 32.1318 11.0626 32.1318 11.3027C32.1318 11.4816 32.1798 11.6212 32.2714 11.726C32.3631 11.8307 32.4896 11.8831 32.6424 11.8831C32.8388 11.8831 33.0002 11.8045 33.1224 11.643C33.249 11.4816 33.3101 11.2721 33.3101 11.0234C33.3101 10.8444 33.2621 10.7048 33.1704 10.6001C33.0744 10.4953 32.9479 10.443 32.7864 10.443H32.7907ZM31.2285 11.2939C31.2285 11.726 31.355 12.0707 31.6038 12.3325C31.8525 12.5944 32.1885 12.7209 32.6075 12.7209C33.0788 12.7209 33.4628 12.5638 33.7639 12.2496C34.065 11.9354 34.2134 11.5383 34.2134 11.0495C34.2134 10.6131 34.0868 10.264 33.8294 10.0022C33.5763 9.74036 33.2359 9.60944 32.8082 9.60944C32.3456 9.60944 31.9703 9.76654 31.6736 10.0807C31.3768 10.395 31.2285 10.8008 31.2285 11.2896V11.2939ZM34.4971 12.6031L34.9204 9.70981H35.8237L35.7582 10.2029C35.8412 10.0197 35.9503 9.88 36.0899 9.784C36.2295 9.68799 36.391 9.63999 36.5743 9.63999C36.5918 9.63999 36.6136 9.63999 36.6398 9.63999C36.6659 9.63999 36.7009 9.64871 36.7576 9.65744L36.5699 10.5651C36.5088 10.5477 36.4521 10.539 36.4041 10.5302C36.3561 10.5215 36.3081 10.5171 36.2601 10.5171C36.0812 10.5171 35.9372 10.5782 35.8324 10.7004C35.7277 10.8226 35.6579 11.0146 35.6186 11.2721L35.4266 12.5944H34.4971V12.6031ZM39.6552 11.6692H40.851L40.7157 12.6031H38.4901L39.101 8.40499H41.3266L41.187 9.37379H39.9913L39.8953 10.0589H41.0037L40.8728 10.9666H39.76L39.6552 11.6649V11.6692ZM42.1078 12.6031L42.4744 12.0838C42.5049 12.0402 42.5355 11.9922 42.566 11.9398C42.5966 11.8874 42.6271 11.822 42.662 11.7478C42.6751 11.7958 42.6926 11.8481 42.71 11.8962C42.7318 11.9442 42.7537 12.0052 42.7886 12.0707L43.0373 12.6031H44.0934L43.321 11.1019L44.3727 9.70981H43.3035L42.9849 10.168C42.95 10.2204 42.9151 10.2728 42.8802 10.3295C42.8497 10.3862 42.8191 10.443 42.7929 10.4997C42.7755 10.4386 42.758 10.3775 42.7362 10.3295C42.7187 10.2771 42.6969 10.2291 42.6751 10.1811L42.4482 9.70981H41.4357L42.2082 11.0888L40.9382 12.6031H42.1078ZM46.6419 11.0888C46.6419 10.9012 46.5896 10.7528 46.4848 10.6393C46.3801 10.5259 46.2448 10.4691 46.0746 10.4691C45.887 10.4691 45.7299 10.5477 45.6077 10.7048C45.4855 10.8619 45.42 11.0583 45.42 11.2939C45.42 11.4728 45.4724 11.6169 45.5771 11.7303C45.6819 11.8394 45.8172 11.8962 45.983 11.8962C46.175 11.8962 46.3321 11.822 46.4587 11.6692C46.5808 11.5165 46.6463 11.3245 46.6463 11.0888H46.6419ZM44.1894 13.8818L44.8004 9.70981H45.6862L45.6295 10.1113C45.7604 9.94546 45.9044 9.82327 46.0615 9.74036C46.2186 9.65744 46.3845 9.61817 46.5634 9.61817C46.8732 9.61817 47.122 9.74036 47.3184 9.99347C47.5147 10.2422 47.6107 10.5651 47.6107 10.9623C47.6107 11.4641 47.4798 11.8787 47.2136 12.2104C46.9474 12.542 46.6158 12.7078 46.2186 12.7078C46.0397 12.7078 45.8782 12.6686 45.7299 12.5857C45.5859 12.5027 45.4462 12.3762 45.3197 12.2016C45.3197 12.2933 45.3197 12.3762 45.3109 12.4547C45.3109 12.5333 45.3022 12.5987 45.2891 12.6555L45.1146 13.8905H44.185L44.1894 13.8818ZM47.9337 12.6031L48.357 9.70981H49.2603L49.1949 10.2029C49.2778 10.0197 49.3869 9.88 49.5265 9.784C49.6662 9.68799 49.8276 9.63999 50.0109 9.63999C50.0284 9.63999 50.0546 9.63999 50.0764 9.63999C50.1026 9.63999 50.1375 9.64871 50.1942 9.65744L50.0065 10.5651C49.9455 10.5477 49.8887 10.539 49.8407 10.5302C49.7927 10.5215 49.7447 10.5171 49.6967 10.5171C49.5178 10.5171 49.3738 10.5782 49.269 10.7004C49.1643 10.8226 49.0945 11.0146 49.0552 11.2721L48.8632 12.5944H47.9337V12.6031ZM52.2671 10.8139C52.2583 10.6568 52.2103 10.5346 52.1231 10.443C52.0358 10.3513 51.918 10.3033 51.7739 10.3033C51.643 10.3033 51.5252 10.3469 51.4248 10.4386C51.3201 10.5302 51.2459 10.6524 51.1892 10.8139H52.2671ZM51.1281 11.3987V11.4641C51.1281 11.6474 51.1717 11.7871 51.259 11.8831C51.3463 11.9791 51.4685 12.0271 51.6343 12.0271C51.7521 12.0271 51.8612 12.0009 51.9616 11.9485C52.0663 11.8962 52.1754 11.8089 52.2933 11.6954L52.8038 12.254C52.6511 12.4111 52.4765 12.5289 52.2802 12.6075C52.0838 12.686 51.8612 12.7253 51.6168 12.7253C51.1804 12.7253 50.8444 12.5987 50.6044 12.35C50.3644 12.0969 50.2422 11.7478 50.2422 11.2939C50.2422 10.8008 50.3862 10.395 50.6699 10.0851C50.9535 9.77527 51.3245 9.62253 51.7783 9.62253C52.1885 9.62253 52.5202 9.75781 52.7733 10.0327C53.022 10.3077 53.1486 10.6699 53.1486 11.1194C53.1486 11.1586 53.1442 11.2328 53.1355 11.3376C53.1355 11.3681 53.1311 11.3943 53.1268 11.4074H51.1281V11.3987ZM55.6491 9.91928L55.3742 10.5695C55.252 10.4735 55.1429 10.408 55.0382 10.3644C54.9378 10.3208 54.8374 10.2989 54.7327 10.2989C54.6498 10.2989 54.58 10.3208 54.5232 10.36C54.4665 10.4037 54.4403 10.456 54.4403 10.5171C54.4403 10.6044 54.532 10.6873 54.7153 10.7615C54.7982 10.7921 54.8593 10.8226 54.9029 10.8444C55.1604 10.9666 55.3349 11.0888 55.4397 11.2197C55.54 11.3507 55.5924 11.5078 55.5924 11.7041C55.5924 12.0096 55.4833 12.254 55.2695 12.4373C55.0513 12.6206 54.7633 12.7122 54.4054 12.7122C54.2003 12.7122 54.0083 12.6817 53.8206 12.6249C53.633 12.5682 53.4541 12.4766 53.2795 12.3587L53.5937 11.6649C53.7726 11.7871 53.9254 11.87 54.0432 11.918C54.1654 11.966 54.2789 11.9922 54.388 11.9922C54.4796 11.9922 54.5581 11.9703 54.6105 11.9267C54.6672 11.8831 54.6934 11.822 54.6934 11.7521C54.6934 11.643 54.5625 11.5339 54.305 11.4161C54.2265 11.3812 54.1698 11.355 54.1261 11.3376C53.921 11.2372 53.7726 11.1281 53.6854 11.0146C53.5981 10.8968 53.5544 10.7528 53.5544 10.5782C53.5544 10.2989 53.6592 10.0677 53.873 9.88873C54.0868 9.70545 54.3574 9.6138 54.6934 9.6138C54.8636 9.6138 55.0295 9.63999 55.1866 9.69235C55.348 9.74472 55.4964 9.81891 55.636 9.91928H55.6491ZM58.1279 9.91928L57.8529 10.5695C57.7307 10.4735 57.6216 10.408 57.5169 10.3644C57.4165 10.3208 57.3162 10.2989 57.2114 10.2989C57.1285 10.2989 57.0587 10.3208 57.002 10.36C56.9452 10.4037 56.919 10.456 56.919 10.5171C56.919 10.6044 57.0107 10.6873 57.194 10.7615C57.2769 10.7921 57.338 10.8226 57.3816 10.8444C57.6391 10.9666 57.8137 11.0888 57.9184 11.2197C58.0188 11.3507 58.0711 11.5078 58.0711 11.7041C58.0711 12.0096 57.962 12.254 57.7482 12.4373C57.53 12.6206 57.242 12.7122 56.8841 12.7122C56.679 12.7122 56.487 12.6817 56.2994 12.6249C56.1117 12.5682 55.9328 12.4766 55.7582 12.3587L56.0724 11.6649C56.2514 11.7871 56.4041 11.87 56.5219 11.918C56.6441 11.966 56.7576 11.9922 56.8667 11.9922C56.9583 11.9922 57.0369 11.9703 57.0892 11.9267C57.146 11.8831 57.1722 11.822 57.1722 11.7521C57.1722 11.643 57.0412 11.5339 56.7838 11.4161C56.7052 11.3812 56.6485 11.355 56.6048 11.3376C56.3997 11.2372 56.2514 11.1281 56.1641 11.0146C56.0768 10.8968 56.0332 10.7528 56.0332 10.5782C56.0332 10.2989 56.1379 10.0677 56.3517 9.88873C56.5656 9.70545 56.8361 9.6138 57.1722 9.6138C57.3424 9.6138 57.5082 9.63999 57.6653 9.69235C57.8267 9.74472 57.9751 9.81891 58.1148 9.91928H58.1279Z" fill="black"/>
</g>
<defs>
<clipPath id="clip0_1801_11281">
<rect width="80.0044" height="54.2745" fill="white"/>
</clipPath>
</defs>
</svg>
