<svg width="80" height="35" viewBox="0 0 80 35" fill="none" xmlns="http://www.w3.org/2000/svg">
<g clip-path="url(#clip0_1801_11038)">
<path fill-rule="evenodd" clip-rule="evenodd" d="M29.1202 23.6563V16.161C29.1202 15.7751 29.0873 15.4079 29.023 15.0586C28.9578 14.7101 28.8515 14.4021 28.703 14.1357C28.5563 13.8713 28.34 13.6522 28.0775 13.5021C27.8086 13.3461 27.4697 13.2674 27.0625 13.2674C26.6542 13.2674 26.2979 13.3461 25.9916 13.5021C25.6896 13.655 25.4278 13.8767 25.2271 14.1492C25.023 14.425 24.8701 14.742 24.7684 15.1003C24.6657 15.4633 24.6141 15.8389 24.6153 16.2161V23.6563H20.0275V9.93352H24.4488V11.8348H24.5044C24.6711 11.541 24.8889 11.2516 25.1576 10.9669C25.4261 10.6823 25.7417 10.4389 26.1031 10.2364C26.4779 10.029 26.874 9.86267 27.2846 9.74049C27.7113 9.61223 28.1653 9.54767 28.6474 9.54767C29.5745 9.54767 30.3618 9.71291 31.0114 10.0436C31.6598 10.3741 32.1833 10.8016 32.582 11.3251C32.9804 11.8489 33.2677 12.4504 33.4439 13.1298C33.6184 13.7955 33.7073 14.4808 33.7085 15.1691V23.6563H29.1202ZM36.6014 23.4425H41.0768V9.76144H36.6014V23.4425ZM41.4041 5.39333C41.4041 5.74156 41.3359 6.06648 41.1991 6.36853C41.0691 6.66205 40.8838 6.92782 40.6534 7.15135C40.4261 7.37131 40.1532 7.54575 39.8349 7.67379C39.5163 7.80205 39.1839 7.86554 38.8389 7.86554C38.1108 7.86554 37.502 7.62334 37.0106 7.13788C36.5196 6.65263 36.2737 6.07118 36.2737 5.39333C36.2737 5.0637 36.3372 4.74776 36.4648 4.44549C36.5887 4.14855 36.7748 3.88162 37.0106 3.66268C37.2519 3.43984 37.5285 3.25872 37.8293 3.12676C38.1386 2.98953 38.4749 2.92091 38.8389 2.92091C39.1839 2.92091 39.5166 2.98525 39.8351 3.1133C40.1532 3.24156 40.4261 3.41535 40.6534 3.6351C40.8836 3.85885 41.0689 4.12465 41.1991 4.41813C41.3359 4.72018 41.4041 5.04553 41.4041 5.39333ZM52.8483 23.6563V16.161C52.8483 15.7751 52.8163 15.4079 52.7509 15.0586C52.6857 14.7101 52.5794 14.4021 52.4315 14.1357C52.2846 13.8713 52.068 13.6522 51.8054 13.5021C51.5364 13.3461 51.1983 13.2674 50.7904 13.2674C50.383 13.2674 50.0262 13.3461 49.7201 13.5021C49.4144 13.6582 49.1591 13.8741 48.9554 14.1492C48.7509 14.425 48.5982 14.742 48.4967 15.1003C48.394 15.4633 48.3426 15.8389 48.3438 16.2161V23.6563H43.7556V9.93352H48.1767V11.8348H48.2323C48.3992 11.541 48.617 11.2516 48.886 10.9669C49.1544 10.6823 49.4695 10.4389 49.8314 10.2364C50.2063 10.0288 50.6026 9.86251 51.0134 9.74049C51.4392 9.61223 51.8932 9.54767 52.3757 9.54767C53.3024 9.54767 54.0901 9.71291 54.7393 10.0436C55.3881 10.3741 55.9114 10.8016 56.3101 11.3251C56.709 11.8489 56.9963 12.4504 57.1724 13.1298C57.3466 13.7956 57.4353 14.4809 57.4366 15.1691V23.6563H52.8483ZM65.1322 5.39632C65.1322 5.74498 65.0621 6.07033 64.9221 6.37281C64.7874 6.66786 64.5968 6.93405 64.3609 7.15669C64.1271 7.37687 63.8468 7.55152 63.5193 7.67956C63.1923 7.80825 62.8507 7.87195 62.496 7.87195C61.7479 7.87195 61.122 7.62911 60.6168 7.14301C60.1121 6.65733 59.8594 6.07503 59.8594 5.39654C59.8594 5.06627 59.9253 4.74989 60.0559 4.44741C60.184 4.14865 60.3754 3.88121 60.6168 3.66353C60.8658 3.43968 61.15 3.2584 61.458 3.12698C61.7759 2.98953 62.1215 2.92091 62.496 2.92091C62.8509 2.92091 63.1925 2.98546 63.5193 3.1133C63.8468 3.24198 64.1271 3.41599 64.3609 3.63596C64.5966 3.85876 64.7871 4.12491 64.9221 4.41984C65.0621 4.72232 65.1322 5.0481 65.1322 5.39632ZM64.7957 23.8256C64.7957 24.6689 64.7162 25.4709 64.5574 26.2322C64.3981 26.9927 64.1132 27.6575 63.7019 28.2262C63.2906 28.7948 62.7207 29.2437 61.9913 29.5742C61.2618 29.9042 60.3361 30.0693 59.2145 30.0693C58.8966 30.0693 58.5508 30.0507 58.1765 30.0141C57.8028 29.9771 57.4849 29.9222 57.2228 29.8491L57.5317 26.0808C57.7 26.136 57.8729 26.1725 58.0503 26.1907C58.2042 26.2076 58.3588 26.2168 58.5136 26.2183C59.1865 26.2183 59.6354 25.9934 59.8594 25.5447C60.0839 25.0951 60.1963 24.522 60.1963 23.8256V9.76999H64.7957V23.8256ZM75.6972 17.5417H75.111C74.6087 17.5417 74.1016 17.5652 73.5901 17.6107C73.079 17.6567 72.6228 17.7445 72.2231 17.8732C71.8229 18.0024 71.4924 18.1911 71.2327 18.4397C70.9719 18.6883 70.8419 19.0156 70.8419 19.4205C70.8419 19.6787 70.9022 19.9 71.023 20.084C71.1404 20.2649 71.2982 20.4163 71.4839 20.5261C71.6698 20.6368 71.8836 20.7153 72.1254 20.7612C72.3669 20.8072 72.5999 20.8303 72.8229 20.8303C73.7528 20.8303 74.4646 20.5772 74.9576 20.0701C75.4503 19.5637 75.6972 18.8777 75.6972 18.0113V17.5417ZM67.2981 11.6552C68.1168 10.8818 69.07 10.3012 70.1585 9.91428C71.2464 9.52736 72.3577 9.3339 73.4926 9.3339C74.6651 9.3339 75.6553 9.47713 76.464 9.76272C77.2742 10.0481 77.9293 10.4904 78.4315 11.0887C78.9338 11.6879 79.3011 12.4431 79.5339 13.3551C79.766 14.267 79.8821 15.3495 79.8821 16.602V23.5385H75.6972V22.0737H75.6128C75.2596 22.6449 74.7248 23.087 74.0093 23.4C73.2923 23.7131 72.5161 23.87 71.6788 23.87C71.1209 23.87 70.5446 23.7963 69.949 23.6488C69.3535 23.5019 68.8092 23.2619 68.3165 22.9305C67.824 22.5988 67.4191 22.1565 67.1027 21.6037C66.787 21.0511 66.6286 20.3696 66.6286 19.559C66.6286 18.5639 66.9026 17.7627 67.4522 17.1548C68.0003 16.5466 68.7072 16.077 69.5726 15.7454C70.4375 15.4139 71.4001 15.1926 72.4601 15.0823C73.489 14.9732 74.5228 14.9178 75.5574 14.9162V14.6952C75.5574 14.0137 75.3156 13.5113 74.8319 13.1888C74.3483 12.867 73.7528 12.7054 73.0463 12.7054C72.3947 12.7054 71.7675 12.8435 71.163 13.1197C70.558 13.3963 70.042 13.7277 69.6143 14.1148L67.2981 11.6552Z" fill="#C2002F"/>
<path fill-rule="evenodd" clip-rule="evenodd" d="M24.3088 31.1381L23.1271 29.4303L21.912 31.1381H19.8137L22.0114 28.2253L20.0234 25.5802H22.1333L23.16 27.0648L24.1987 25.5802H26.2421L24.2647 28.2253L26.4405 31.1381H24.3088ZM31.288 28.2602C31.288 28.0827 31.2594 27.9096 31.2036 27.7386C31.151 27.5747 31.0676 27.4224 30.9578 27.2899C30.8451 27.1572 30.706 27.0496 30.5493 26.9739C30.3855 26.8927 30.1953 26.8521 29.9787 26.8521C29.7697 26.8521 29.5833 26.8927 29.4191 26.9739C29.2592 27.052 29.1166 27.1615 28.9999 27.2959C28.8832 27.4296 28.792 27.5836 28.7305 27.7501C28.6682 27.9168 28.6362 28.0933 28.6361 28.2713C28.6361 28.4483 28.6677 28.6223 28.7308 28.7922C28.7921 28.9589 28.8833 29.1129 28.9999 29.2469C29.1166 29.3809 29.2591 29.4901 29.4189 29.568C29.5833 29.6494 29.7694 29.6903 29.9789 29.6903C30.1953 29.6903 30.3855 29.6496 30.5493 29.568C30.7071 29.4919 30.8464 29.3823 30.9576 29.2469C31.0657 29.1137 31.1478 28.9605 31.2036 28.7867C31.259 28.6166 31.2875 28.439 31.288 28.2602ZM33.0672 28.2602C33.0672 28.6445 33.0074 29.0139 32.8881 29.3687C32.769 29.7234 32.5952 30.0357 32.3678 30.3055C32.1378 30.577 31.8539 30.7978 31.5341 30.9538C31.2053 31.1165 30.8325 31.1982 30.415 31.1982C30.0717 31.1982 29.7472 31.1293 29.4417 30.9929C29.1352 30.8561 28.8966 30.6695 28.7252 30.4329H28.7028V33.7033H26.868V25.5218H28.6136V26.1977H28.6472C28.8186 25.9761 29.0555 25.7826 29.3573 25.6161C29.6598 25.4496 30.0157 25.3664 30.4261 25.3664C30.8291 25.3664 31.1946 25.4442 31.5228 25.5994C31.8425 25.7482 32.1268 25.9636 32.3565 26.2313C32.5837 26.4972 32.759 26.8063 32.8821 27.1569C33.0054 27.5081 33.0672 27.8758 33.0672 28.2602ZM37.2654 27.0464C37.1879 27.0246 37.1088 27.0094 37.0287 27.0011C36.9536 26.9937 36.8781 26.99 36.8026 26.9897C36.5606 26.9897 36.3573 27.0351 36.1919 27.1248C36.0266 27.2146 35.8941 27.3236 35.7951 27.4508C35.6981 27.5747 35.6252 27.7158 35.5803 27.8666C35.5364 28.0169 35.514 28.1477 35.514 28.2599V31.1381H33.7085V25.5314H35.4486V26.3427H35.4708C35.6051 26.061 35.8098 25.8188 36.0651 25.6394C36.3218 25.4577 36.6196 25.3664 36.9571 25.3664C37.0305 25.3664 37.1021 25.3707 37.1718 25.3777C37.2417 25.3854 37.2983 25.3965 37.3426 25.4119L37.2654 27.0464ZM41.7107 27.7157C41.7107 27.4218 41.6232 27.1697 41.4486 26.9585C41.2733 26.748 41.011 26.6428 40.6611 26.6428C40.4901 26.6428 40.3329 26.671 40.1901 26.7272C40.0522 26.7809 39.9251 26.8593 39.8152 26.9585C39.7083 27.0569 39.6228 27.1719 39.5587 27.3033C39.4951 27.4319 39.4584 27.5722 39.4509 27.7155L41.7107 27.7157ZM43.328 28.4271V28.6528C43.328 28.7281 43.3244 28.7999 43.3173 28.8675H39.4509C39.4653 29.0252 39.5102 29.1684 39.5852 29.2965C39.6598 29.4245 39.7562 29.5357 39.8738 29.6295C39.9916 29.7236 40.1241 29.7974 40.2701 29.8497C40.4169 29.9025 40.5683 29.9288 40.7254 29.9288C41.0039 29.9288 41.2393 29.8743 41.4321 29.7649C41.6193 29.6612 41.7806 29.5166 41.9039 29.3418L43.1241 30.1546C42.8797 30.5337 42.5376 30.84 42.1339 31.0413C41.7235 31.248 41.2464 31.3519 40.704 31.3519C40.3043 31.3519 39.9259 31.2856 39.5687 31.1541C39.2205 31.0279 38.9017 30.832 38.6318 30.5785C38.3639 30.3258 38.1532 30.0158 38.0001 29.6469C37.8462 29.2779 37.7701 28.8559 37.7701 28.3816C37.7701 27.9226 37.8449 27.5066 37.995 27.1338C38.1446 26.7614 38.3481 26.4446 38.6053 26.1851C38.8646 25.9241 39.1742 25.7186 39.5155 25.581C39.8652 25.4382 40.2434 25.3664 40.6506 25.3664C41.0433 25.3664 41.4039 25.4361 41.732 25.5759C42.0555 25.7116 42.3446 25.9178 42.5781 26.1796C42.8141 26.4429 42.9978 26.7631 43.1296 27.1394C43.2615 27.516 43.328 27.9453 43.328 28.4271ZM47.2739 27.2074C47.1249 27.0609 46.9538 26.9389 46.7669 26.8457C46.5765 26.7489 46.3659 26.6986 46.1523 26.699C45.9866 26.699 45.8342 26.7328 45.6938 26.8008C45.5535 26.8685 45.4834 26.9855 45.4834 27.1507C45.4834 27.3089 45.5606 27.4218 45.7152 27.4897C45.8697 27.5573 46.1196 27.6325 46.465 27.7155C46.6658 27.7604 46.8695 27.8245 47.0743 27.9077C47.2751 27.9879 47.4625 28.0983 47.6301 28.2349C47.7959 28.3713 47.9317 28.5406 48.029 28.7319C48.1294 28.9275 48.1799 29.161 48.1799 29.4318C48.1799 29.786 48.1113 30.0849 47.9749 30.3296C47.8385 30.5746 47.66 30.7721 47.4411 30.9228C47.2165 31.0755 46.9661 31.1864 46.7021 31.2501C46.4341 31.3173 46.1589 31.3515 45.8825 31.3519C45.4437 31.3519 45.0142 31.2783 44.5935 31.1317C44.173 30.9846 43.8222 30.7683 43.5418 30.4825L44.5341 29.3869C44.6923 29.5675 44.8864 29.7183 45.1166 29.8384C45.3426 29.958 45.5946 30.0201 45.8503 30.0192C45.9941 30.0192 46.1361 29.9838 46.2761 29.9119C46.4167 29.8405 46.4864 29.7142 46.4864 29.5336C46.4864 29.3604 46.4001 29.2324 46.2278 29.1499C46.0546 29.0667 45.7853 28.9803 45.4187 28.8899C45.2274 28.8434 45.0399 28.783 44.8575 28.7091C44.6744 28.6365 44.505 28.5333 44.3565 28.404C44.2055 28.2718 44.0825 28.1107 43.995 27.9301C43.9011 27.742 43.8545 27.516 43.8545 27.2525C43.8545 26.9136 43.9227 26.6255 44.0593 26.3884C44.1904 26.1578 44.371 25.9591 44.5882 25.8068C44.8062 25.6552 45.0489 25.5425 45.3054 25.4737C45.5601 25.4033 45.8231 25.3673 46.0873 25.3664C46.4903 25.3664 46.8838 25.4327 47.2684 25.5641C47.6532 25.696 47.9785 25.8938 48.2447 26.1571L47.2739 27.2074ZM52.6181 27.2074C52.4691 27.0609 52.298 26.9389 52.111 26.8457C51.9205 26.7488 51.7098 26.6986 51.496 26.699C51.3308 26.699 51.1784 26.7328 51.0379 26.8008C50.8977 26.8685 50.8276 26.9855 50.8276 27.1507C50.8276 27.3089 50.9048 27.4218 51.0593 27.4897C51.2139 27.5573 51.4638 27.6325 51.8092 27.7155C52.0099 27.7604 52.2137 27.8245 52.4184 27.9077C52.619 27.988 52.8062 28.0983 52.9736 28.2349C53.1398 28.3712 53.2759 28.5404 53.3733 28.7319C53.4736 28.9275 53.524 29.161 53.524 29.4318C53.524 29.786 53.4554 30.0849 53.319 30.3296C53.1822 30.5746 53.0042 30.7721 52.7848 30.9228C52.5604 31.0756 52.3102 31.1865 52.0463 31.2501C51.7783 31.3173 51.503 31.3515 51.2267 31.3519C50.7878 31.3519 50.3584 31.2783 49.9377 31.1317C49.5172 30.9846 49.1664 30.7683 48.886 30.4825L49.8783 29.3869C50.0364 29.5675 50.2305 29.7183 50.4608 29.8384C50.6866 29.958 50.9384 30.0201 51.194 30.0192C51.3383 30.0192 51.4804 29.9838 51.6202 29.9119C51.7609 29.8405 51.8306 29.7142 51.8306 29.5336C51.8306 29.3604 51.7442 29.2324 51.5719 29.1499C51.3988 29.0667 51.1294 28.9803 50.7628 28.8899C50.5716 28.8434 50.3841 28.783 50.2017 28.7091C50.0186 28.6365 49.8492 28.5333 49.7006 28.404C49.5527 28.2766 49.4326 28.1182 49.3391 27.9301C49.2453 27.742 49.1987 27.516 49.1987 27.2525C49.1987 26.9136 49.2669 26.6255 49.4035 26.3884C49.5345 26.1577 49.7151 25.959 49.9323 25.8068C50.1504 25.6552 50.393 25.5425 50.6495 25.4737C50.9042 25.4033 51.1672 25.3672 51.4315 25.3664C51.8344 25.3664 52.228 25.4327 52.6125 25.5641C52.9969 25.696 53.3223 25.8938 53.5888 26.1571L52.6181 27.2074Z" fill="black"/>
<path fill-rule="evenodd" clip-rule="evenodd" d="M7.24198 22.7191L3.35571 24.9643V31.2088L8.98739 34.5231L14.7463 31.2088V24.9645L10.2555 22.7193L7.24198 22.7191Z" fill="black"/>
<path fill-rule="evenodd" clip-rule="evenodd" d="M4.41706 30.2018L8.36768 32.4942V28.745L4.46002 26.4782L4.41706 30.2018Z" fill="#FFFFFE"/>
<path fill-rule="evenodd" clip-rule="evenodd" d="M8.51325 0C3.41962 0 0 3.36597 0 8.37174C0 11.7969 1.83625 14.7409 3.77939 17.8553C4.75973 19.423 5.75673 21.0207 6.57418 22.7505L8.51304 26.9515L10.4872 22.4543C11.4119 20.4944 12.7249 18.9245 13.6411 17.4675C15.456 14.5876 17.0224 12.0998 17.0224 8.18876C17.0224 3.51924 13.363 0 8.51325 0Z" fill="#C2002F"/>
<path fill-rule="evenodd" clip-rule="evenodd" d="M10.2595 22.1539C10.1826 22.3159 10.1056 22.482 10.0286 22.6524C9.87901 22.9763 9.73343 23.3127 9.59171 23.658C9.21845 24.561 8.88712 25.4809 8.59876 26.4145H8.56028C8.35448 25.5738 8.09143 24.7482 7.77298 23.9434V23.9391C7.64122 23.6028 7.49979 23.2704 7.34887 22.9423C7.2764 22.7719 7.19923 22.6058 7.118 22.4438C4.64408 17.2591 0.659256 13.3053 0.659256 8.44421C0.659256 4.12826 3.50107 0.72873 8.51304 0.72873C13.0633 0.72873 16.3675 3.94549 16.3675 8.26101C16.3675 13.8589 13.0286 16.3429 10.2595 22.1539ZM14.5015 25.2086V30.9091L8.97991 34.0663L3.42839 30.9089L3.35571 30.8666V25.2086L6.80141 23.2531C6.95105 23.5855 7.09213 23.922 7.22082 24.2629L5.01219 25.5581L8.92411 27.8074L12.8491 25.5581L10.1398 23.9778C10.2769 23.6361 10.4225 23.298 10.5765 22.9637L14.5015 25.2086ZM17.0224 8.18876C17.0224 3.51924 13.363 0 8.51325 0C3.41962 0 0 3.36597 0 8.37174C0 11.7969 1.83625 14.7409 3.77939 17.8553C4.75973 19.423 5.75673 21.0207 6.57418 22.7505L2.71355 24.9448V31.3437L8.97969 34.9094L15.1434 31.3861V24.9448L10.8031 22.4652C11.7279 20.5056 12.7249 18.9245 13.6411 17.4675C15.456 14.5876 17.0224 12.0998 17.0224 8.18876Z" fill="white"/>
<path fill-rule="evenodd" clip-rule="evenodd" d="M8.61188 2.23258C5.0548 2.23258 2.17002 5.10432 2.17002 8.64857C2.17002 12.1892 5.0548 15.0605 8.61188 15.0605C12.1732 15.0605 15.058 12.1892 15.058 8.64857C15.058 5.10432 12.1732 2.23258 8.61188 2.23258Z" fill="white"/>
<path fill-rule="evenodd" clip-rule="evenodd" d="M8.62007 14.2937C5.46146 14.2937 2.89754 11.7413 2.89754 8.59748C2.89754 5.44912 5.46146 2.90167 8.62007 2.90167C11.7832 2.90167 14.343 5.44912 14.343 8.59748C14.343 11.7416 11.7832 14.2937 8.62007 14.2937Z" fill="#232020"/>
<path fill-rule="evenodd" clip-rule="evenodd" d="M10.9831 9.30056C10.3623 9.30056 9.85742 8.80205 9.85742 8.18405C9.85742 7.56242 10.3623 7.06392 10.9831 7.06392C11.6037 7.06392 12.1086 7.56242 12.1086 8.18405C12.1086 8.80205 11.6037 9.30056 10.9831 9.30056ZM6.1165 9.33048C5.49551 9.33048 4.99059 8.8277 4.99059 8.20971C4.99059 7.59213 5.49551 7.08957 6.1165 7.08957C6.73685 7.08957 7.24198 7.59213 7.24198 8.20971C7.24198 8.8277 6.73685 9.33048 6.1165 9.33048ZM11.4882 6.25866H5.73963C5.48535 6.25844 5.23351 6.30836 4.99854 6.40556C4.76356 6.50276 4.55006 6.64534 4.37024 6.82514C4.01475 7.17892 3.79649 7.66011 3.79649 8.19303C3.79649 9.25759 4.67401 10.127 5.73963 10.127H11.4882C12.0231 10.127 12.5068 9.90979 12.8619 9.56028C13.2129 9.2065 13.4314 8.72531 13.4314 8.19303C13.4314 7.12762 12.5584 6.25866 11.4882 6.25866Z" fill="#FFFFFE"/>
<path fill-rule="evenodd" clip-rule="evenodd" d="M6.16332 7.28538C5.93245 7.28538 5.74391 7.47307 5.74391 7.70286C5.74391 7.93288 5.93224 8.12035 6.16332 8.12035C6.27429 8.12047 6.38079 8.07659 6.45948 7.99834C6.53817 7.92009 6.58265 7.81384 6.58315 7.70286C6.58265 7.59189 6.53817 7.48564 6.45948 7.40739C6.38079 7.32914 6.27429 7.28526 6.16332 7.28538ZM11.0299 7.25566C10.919 7.25555 10.8125 7.29944 10.7339 7.3777C10.6553 7.45597 10.6109 7.56222 10.6105 7.67315C10.6105 7.90723 10.7991 8.0947 11.0299 8.0947C11.0852 8.09464 11.1399 8.08369 11.1909 8.06246C11.2419 8.04122 11.2882 8.01014 11.3271 7.97098C11.3661 7.93182 11.3969 7.88535 11.4179 7.83424C11.4389 7.78314 11.4496 7.72839 11.4493 7.67315C11.4493 7.44271 11.2612 7.25566 11.0299 7.25566Z" fill="#FFFFFE"/>
</g>
<defs>
<clipPath id="clip0_1801_11038">
<rect width="79.8821" height="34.9094" fill="white"/>
</clipPath>
</defs>
</svg>
