<svg width="80" height="49" viewBox="0 0 80 49" fill="none" xmlns="http://www.w3.org/2000/svg">
<g clip-path="url(#clip0_1801_11269)">
<path fill-rule="evenodd" clip-rule="evenodd" d="M34.55 5.504C43.5864 1.85183 52.372 0.0172076 59.2718 0.000114802C66.3084 -0.016978 71.4305 1.87462 72.9632 5.67492C74.4958 9.47522 72.1313 14.3923 67.0548 19.2694C62.0808 24.0497 54.4859 28.8357 45.4495 32.4878C36.4131 36.14 27.6274 37.9746 20.7276 37.9917C13.691 38.0088 8.56891 36.1172 7.03625 32.3169C5.5036 28.5166 7.8681 23.5996 12.9447 18.7224C17.9187 13.9421 25.5136 9.15616 34.55 5.504ZM54.1839 3.46995C48.794 3.05973 42.0195 4.19355 35.1425 6.97398C28.2655 9.75441 22.6078 13.6402 19.0126 17.6798C15.4915 21.6396 13.9759 25.7134 15.2921 28.9781C16.6082 32.2371 20.5339 34.1173 25.8155 34.5219C31.2055 34.9321 37.9799 33.7983 44.8569 31.0178C51.7339 28.2374 57.3916 24.3517 60.9868 20.3121C64.5079 16.3522 66.0235 12.2784 64.7074 9.01372C63.3912 5.74899 59.4656 3.87448 54.1839 3.46995Z" fill="#CA2128"/>
<path fill-rule="evenodd" clip-rule="evenodd" d="M34.7209 5.93132C52.6911 -1.32742 69.6187 -1.36731 72.5359 5.85155C75.453 13.0647 63.2488 24.8018 45.2785 32.0605C27.3083 39.3193 10.3807 39.3591 7.46357 32.1403C4.5521 24.9214 16.7507 13.1901 34.7209 5.93132ZM34.9659 6.54666C21.0865 12.1531 12.0843 22.2777 14.8591 29.149C17.6395 36.026 31.1428 37.0516 45.0221 31.4452C58.9015 25.8387 67.9037 15.7141 65.129 8.84279C62.3485 1.96579 48.8452 0.94022 34.9659 6.54666Z" fill="#000046"/>
<path fill-rule="evenodd" clip-rule="evenodd" d="M23.9241 15.3893L31.5532 12.3069C33.6898 11.4465 35.9802 12.5519 36.6469 14.7682C37.3135 16.9846 36.1113 19.5029 33.9747 20.3633L26.3456 23.4457L23.9241 15.3893ZM41.3018 20.557L48.9309 17.4746C51.0675 16.6142 53.3579 17.7196 54.0245 19.9359C54.6912 22.1523 53.489 24.6707 51.3524 25.531L43.7233 28.6134L41.3018 20.557ZM49.8767 5.44125L42.2476 8.52365C40.111 9.38399 38.8689 11.9251 39.4786 14.1586C40.0939 16.3977 42.3388 17.5202 44.4754 16.6541L52.1044 13.5717L49.8767 5.44125Z" fill="#CA2128"/>
<path fill-rule="evenodd" clip-rule="evenodd" d="M79.7438 43.6323L78.9233 43.7862C78.9575 43.6209 78.9746 43.4842 78.9746 43.3702C78.9746 42.658 78.5416 42.2991 77.6869 42.2991C77.0089 42.2991 76.6671 42.5441 76.6671 43.0341C76.6671 43.3987 77.0488 43.7178 77.8066 43.9799C79.2709 44.4813 80.0002 45.2334 80.0002 46.219C80.0002 46.8002 79.795 47.2617 79.3848 47.615C78.9746 47.9625 78.4276 48.1391 77.7439 48.1391C76.234 48.1391 75.4763 47.5523 75.4763 46.3843C75.4763 46.2874 75.4877 46.1735 75.5048 46.031L76.3594 45.843C76.291 46.1051 76.2568 46.3273 76.2568 46.5153C76.2568 47.2731 76.6899 47.6491 77.5616 47.6491C78.2567 47.6491 78.6042 47.3757 78.6042 46.8287C78.6042 46.4242 78.1883 46.0652 77.3565 45.7575C76.1543 45.3188 75.5503 44.6123 75.5503 43.638C75.5503 43.0911 75.7498 42.6467 76.1543 42.3105C76.5531 41.9743 77.083 41.8091 77.7382 41.8091C79.0828 41.8091 79.7552 42.4131 79.7552 43.6266L79.7438 43.6323Z" fill="#000046"/>
<path fill-rule="evenodd" clip-rule="evenodd" d="M74.3081 45.5809L75.0659 45.7804C75.083 45.9342 75.0887 46.0709 75.0887 46.1792C75.0887 46.7717 74.8722 47.2446 74.4448 47.6036C74.0118 47.9568 73.4364 48.1335 72.7128 48.1335C70.9009 48.1335 69.995 47.1136 69.995 45.0796C69.995 44.1167 70.2571 43.3304 70.787 42.7321C71.3169 42.1339 72.0006 41.8319 72.8495 41.8319C74.1714 41.8319 74.8323 42.4644 74.8323 43.7349L74.0745 44.0825C74.0859 43.9058 74.0916 43.7634 74.0916 43.6665C74.0916 42.7663 73.7269 42.3162 73.0033 42.3162C72.2342 42.3162 71.8524 43.2734 71.8524 45.1821C71.8524 46.823 72.2798 47.6492 73.1344 47.6492C73.4876 47.6492 73.7839 47.5067 74.0175 47.2275C74.2511 46.9484 74.3708 46.5951 74.3708 46.1792C74.3708 46.0424 74.348 45.8487 74.3081 45.5809Z" fill="#000046"/>
<path d="M69.1973 41.9174H67.4311V48.0309H69.1973V41.9174Z" fill="#000046"/>
<path fill-rule="evenodd" clip-rule="evenodd" d="M66.9639 41.9174V42.5327H65.4711V48.0309H63.5909V42.5327H62.081V41.9174H66.9639Z" fill="#000046"/>
<path fill-rule="evenodd" clip-rule="evenodd" d="M61.6425 43.6323L60.822 43.7862C60.8562 43.6209 60.8733 43.4842 60.8733 43.3702C60.8733 42.658 60.4403 42.2991 59.5857 42.2991C58.9076 42.2991 58.5658 42.5441 58.5658 43.0341C58.5658 43.3987 58.9475 43.7178 59.7053 43.9799C61.1696 44.4813 61.8989 45.2334 61.8989 46.219C61.8989 46.8002 61.6938 47.2617 61.2835 47.615C60.8733 47.9625 60.3263 48.1391 59.6426 48.1391C58.1328 48.1391 57.375 47.5523 57.375 46.3843C57.375 46.2874 57.3864 46.1735 57.4035 46.031L58.2581 45.843C58.1897 46.1051 58.1556 46.3273 58.1556 46.5153C58.1556 47.2731 58.5886 47.6491 59.4603 47.6491C60.1554 47.6491 60.503 47.3757 60.503 46.8287C60.503 46.4242 60.087 46.0652 59.2552 45.7575C58.053 45.3188 57.4491 44.6123 57.4491 43.638C57.4491 43.0911 57.6485 42.6467 58.053 42.3105C58.4518 41.9743 58.9817 41.8091 59.6369 41.8091C60.9816 41.8091 61.6539 42.4131 61.6539 43.6266L61.6425 43.6323Z" fill="#000046"/>
<path d="M56.5887 41.9173H54.8225V48.0308H56.5887V41.9173Z" fill="#000046"/>
<path fill-rule="evenodd" clip-rule="evenodd" d="M51.4265 44.732H53.9449V48.0309H53.3808L53.1871 47.6093C52.6971 47.9568 52.1729 48.1278 51.6259 48.1278C50.72 48.1278 50.0192 47.86 49.5178 47.313C49.0165 46.7717 48.7658 46.0083 48.7658 45.0283C48.7658 44.0483 49.0335 43.2962 49.5634 42.7037C50.0933 42.1111 50.7884 41.8148 51.643 41.8148C52.7712 41.8148 53.4606 42.3903 53.7056 43.5469L52.8737 43.9229V43.7748L52.8623 43.4443C52.8054 42.7207 52.4692 42.3618 51.8596 42.3618C51.4094 42.3618 51.1018 42.5555 50.9422 42.9373C50.777 43.319 50.6972 44.0312 50.6972 45.0739C50.6972 46.0481 50.7656 46.7091 50.8967 47.0566C51.0277 47.4042 51.2841 47.5808 51.6601 47.5808C52.0988 47.5808 52.3211 47.3358 52.3211 46.8458V45.3416H51.4322V44.7263L51.4265 44.732Z" fill="#000046"/>
<path fill-rule="evenodd" clip-rule="evenodd" d="M31.992 41.9174V47.4156H34.5047V48.0309H30.2258V41.9174H31.992ZM26.5166 41.9174V46.0197C26.5166 47.427 25.7418 48.1278 24.1863 48.1278C22.6309 48.1278 21.8617 47.427 21.8617 46.0197V41.9174H23.6279V46.0766C23.6279 46.6122 23.702 46.9826 23.8558 47.1763C24.0097 47.3757 24.2946 47.4725 24.7105 47.4725C25.5139 47.4725 25.9184 46.9882 25.9184 46.0254V41.9231H26.5166V41.9174ZM17.6797 47.5238H18.1469C18.5685 47.5238 18.8648 47.3415 19.03 46.9712C19.1952 46.6008 19.275 45.9342 19.275 44.9713C19.275 44.0084 19.1952 43.3418 19.03 42.9714C18.8705 42.6011 18.5742 42.4188 18.1469 42.4188H17.6797V47.5238ZM15.9134 48.0252V41.9117H18.4431C20.2379 41.9117 21.1381 42.9316 21.1381 44.9713C21.1381 47.011 20.2094 48.0195 18.3463 48.0195H15.9134V48.0252ZM14.8878 41.9117V48.0252H13.5318L10.985 44.1622V48.0252H10.3867V41.9117H11.5092L14.2896 46.0937V41.9117H14.8878ZM7.63478 46.0823L6.91119 43.3817L6.13062 46.0823H7.63478ZM8.24443 41.9117L9.94231 48.0252H8.15896L7.79432 46.6977H5.95399L5.56656 48.0252H4.87145L6.67759 41.9117H8.24443ZM1.77195 44.9656H2.17079C2.81461 44.9656 3.13938 44.5383 3.13938 43.6836C3.13938 42.8803 2.81461 42.4814 2.17079 42.4814H1.77195V44.9656ZM0.0056976 48.0252V41.9117H2.63799C4.13076 41.9117 4.88284 42.5099 4.88284 43.7121C4.88284 44.9143 4.05099 45.5297 2.38729 45.5297H1.77765V48.0195H0L0.0056976 48.0252Z" fill="#000046"/>
<path fill-rule="evenodd" clip-rule="evenodd" d="M40.8917 41.7408C42.6978 41.0115 44.447 40.6468 45.8258 40.6411C47.2274 40.6411 48.253 41.0172 48.5606 41.7749C48.8683 42.5327 48.3954 43.5127 47.3812 44.487C46.3899 45.4442 44.8743 46.3957 43.0682 47.125C41.262 47.8543 39.5129 48.2189 38.134 48.2246C36.7324 48.2246 35.7069 47.8486 35.3992 47.0908C35.0915 46.333 35.5644 45.353 36.5786 44.3787C37.57 43.4215 39.0855 42.4701 40.8917 41.7408ZM44.8116 41.3362C43.7348 41.2565 42.3844 41.4787 41.0113 42.037C39.6382 42.5897 38.5101 43.3703 37.7922 44.1736C37.0914 44.9656 36.7837 45.7804 37.0515 46.4299C37.3136 47.0794 38.0999 47.4555 39.1539 47.5352C40.2308 47.615 41.5811 47.3928 42.9542 46.8344C44.3273 46.276 45.4554 45.5012 46.1733 44.6978C46.8742 43.9058 47.1818 43.0911 46.914 42.4416C46.6519 41.792 45.8657 41.416 44.8116 41.3362Z" fill="#CA2128"/>
<path fill-rule="evenodd" clip-rule="evenodd" d="M40.9259 41.8262C44.5096 40.379 47.8883 40.3676 48.4752 41.8091C49.0563 43.2506 46.6235 45.5923 43.034 47.0395C39.4445 48.4867 36.0715 48.4981 35.4846 47.0566C34.9035 45.6151 37.3364 43.2734 40.9259 41.8262ZM40.9771 41.9459C38.2081 43.0683 36.4077 45.0853 36.966 46.4584C37.5244 47.8315 40.2137 48.0366 42.9884 46.9142C45.7574 45.7975 47.5579 43.7748 46.9995 42.4017C46.4411 41.0286 43.7519 40.8234 40.9771 41.9459Z" fill="#000046"/>
<path fill-rule="evenodd" clip-rule="evenodd" d="M38.7722 43.7178L40.2934 43.1025C40.7207 42.9316 41.1766 43.1538 41.3076 43.5925C41.4386 44.0369 41.1993 44.5383 40.772 44.7092L39.2508 45.3246L38.7665 43.7178H38.7722ZM42.242 44.7491L43.7633 44.1338C44.1906 43.9628 44.6464 44.185 44.7774 44.6237C44.9085 45.0682 44.6692 45.5695 44.2419 45.7405L42.7206 46.3558L42.2363 44.7491H42.242ZM43.9513 41.7294L42.43 42.3447C42.0027 42.5156 41.7577 43.0227 41.8774 43.4671C41.997 43.9115 42.4471 44.1394 42.8744 43.9685L44.3957 43.3532L43.9513 41.7294Z" fill="#CA2128"/>
</g>
<defs>
<clipPath id="clip0_1801_11269">
<rect width="80.0002" height="48.2246" fill="white"/>
</clipPath>
</defs>
</svg>
