<svg width="80" height="13" viewBox="0 0 80 13" fill="none" xmlns="http://www.w3.org/2000/svg">
<g clip-path="url(#clip0_1801_11287)">
<path fill-rule="evenodd" clip-rule="evenodd" d="M26.1922 12.4549H35.5533C35.8815 12.0241 36.4517 11.3514 36.7922 10.933L38.0351 9.40288C38.0884 9.46031 38.7079 11.3391 38.8227 11.6796C38.8966 11.897 38.9909 12.2457 39.0853 12.4426L42.1865 12.4508L40.3159 7.52409C40.3528 7.45436 40.4923 7.29848 40.5456 7.23694C40.9928 6.72828 41.5424 6.03912 41.9978 5.49763L42.7198 4.63618C42.8797 4.43518 43.0438 4.25468 43.2079 4.05368L43.9381 3.17992C43.9914 3.12249 44.1514 2.9461 44.1719 2.87637H41.202C41.1404 2.88867 40.9558 3.15531 40.9107 3.21684L39.5078 5.06691C39.4627 5.12844 39.0073 5.74787 38.9417 5.79299C38.8925 5.71095 38.5479 4.52132 38.4905 4.33263L38.1541 3.22505C38.1295 3.1389 38.0802 2.90508 38.0146 2.87226H35.0077C35.0323 3.00763 36.464 6.7734 36.583 7.08106C36.7429 7.49538 36.7799 7.40923 36.5132 7.70459C36.0907 8.17223 35.6066 8.79986 35.1882 9.2593L32.5752 12.3236C32.4972 12.4097 32.5834 12.34 32.489 12.3892L33.0059 10.2766H29.0473C29.0514 10.1249 29.3222 9.14034 29.3919 8.85729C29.4083 8.79576 29.4739 8.41426 29.5355 8.39375H33.0797L33.572 6.43292H30.0031L30.3723 4.92334H34.2283L34.7452 2.87637H28.5715C28.1531 4.45979 27.7716 6.07193 27.3736 7.66357L26.4753 11.2529C26.4261 11.4498 26.184 12.3277 26.1881 12.4508L26.1922 12.4549ZM54.0007 6.75699C54.0007 6.60932 54.2099 5.97348 54.2632 5.78889L54.5298 4.81668H55.6866C56.183 4.81668 56.6917 4.88231 56.6876 5.4238C56.6876 6.0022 56.2773 6.49856 55.8507 6.61752C55.1985 6.79391 54.7021 6.76109 54.0007 6.75699ZM49.7878 12.4549H52.3803L53.4756 8.57014C54.337 8.55783 54.3986 8.79576 54.5791 9.73925C54.6898 10.3218 54.8006 10.8837 54.9113 11.4663C54.9688 11.7534 55.0262 12.0447 55.0754 12.3318C55.0959 12.4467 55.0754 12.4549 55.1862 12.4549H55.9697C56.6547 12.4549 57.3398 12.4549 58.0208 12.4549C58.0331 12.3318 57.6598 10.3218 57.6105 10.0182C57.5326 9.58337 57.3357 8.75884 56.9952 8.4922C56.8106 8.34862 56.6055 8.28709 56.544 8.22146C57.4957 7.94251 57.8936 7.721 58.5499 6.99492C59.2883 6.17449 60.0308 3.97984 58.7632 3.20454C58.3612 2.96251 57.5818 2.87637 57.0403 2.87637H52.4747C52.4131 2.99533 51.1579 7.5323 51.121 7.65126C50.8953 8.45528 50.6697 9.24289 50.4441 10.0428C50.3292 10.4448 50.2185 10.8427 50.1077 11.2488C50.0544 11.4416 49.7796 12.3318 49.7796 12.4508L49.7878 12.4549ZM46.8465 4.75104C47.2567 4.74284 47.9992 4.75104 48.3356 4.89462C48.795 5.08742 48.8279 5.6248 48.6925 6.03912C48.3725 7.02363 47.2567 6.98261 46.3707 6.91287L46.8465 4.75104ZM47.7244 8.93933L45.9317 8.89831C45.8907 9.18546 45.62 10.3259 45.5379 10.7115C45.4846 10.9658 45.1975 12.4097 45.1318 12.5246L42.367 12.4549L44.496 2.70408C45.2877 2.66305 48.0854 2.78612 49.0617 2.81483C49.7837 2.83534 50.3744 2.96251 50.8461 3.31119C52.1588 4.2875 51.4163 6.85955 50.481 7.83586C49.7549 8.59475 48.8607 8.94343 47.7244 8.94343V8.93933ZM58.1438 12.4549C58.1397 12.3359 59.8175 5.71915 59.9283 5.26381C60.1252 4.4762 60.3139 3.65987 60.5272 2.87637H66.7009L66.184 4.92744H62.328L61.9588 6.43703H65.5195C65.5113 6.5724 65.138 7.98353 65.0723 8.26658C65.0354 8.43887 65.0395 8.40195 64.8467 8.39785H61.4625L61.003 10.2766H64.9534C64.937 10.4407 64.4529 12.3646 64.4078 12.4549H58.1438ZM67.6977 9.11162C67.2013 9.11162 66.6065 9.19777 66.0979 9.23469C65.9625 9.24289 65.8312 9.2552 65.7 9.2675C65.4702 9.28391 65.4661 9.23059 65.4333 9.43569C65.3226 10.1905 65.3267 10.9699 65.6672 11.6385C66.2948 12.8651 68.6248 12.7379 69.5888 12.381C70.4544 12.0652 71.082 11.5032 71.5045 10.8796C71.9352 10.2479 72.3906 9.28391 72.3167 8.27889C72.2347 7.18772 71.5865 6.7775 70.7661 6.41241C70.3641 6.23602 69.9293 6.10885 69.4945 5.97348C69.277 5.90785 69.0391 5.8094 68.9448 5.66172C68.6412 5.20228 69.2606 4.2916 70.1836 4.54594C70.7292 4.69772 70.6964 5.13665 70.6964 5.73966L72.8951 5.57558C73.0018 5.27202 72.9772 4.4803 72.9115 4.16444C72.6203 2.76151 71.0943 2.59742 69.798 2.76151C68.1571 2.97071 66.9388 4.13983 66.6353 5.71505C66.4261 6.81032 66.7788 7.44205 67.3859 7.89739C67.6567 8.1025 68.0423 8.28299 68.4115 8.41836C68.793 8.55783 69.1868 8.64808 69.5109 8.84498C69.9252 9.09932 69.9867 9.51774 69.8021 9.93205C69.4124 10.8058 68.3007 10.974 67.8618 10.3915C67.5828 10.0223 67.6813 9.59978 67.7018 9.11162H67.6977ZM79.3601 8.34863C79.3601 8.96805 79.1796 9.56696 78.9499 10.051C78.7038 10.572 78.433 10.9248 78.109 11.2899C77.8382 11.5975 77.3706 11.9421 76.8947 12.1554C75.8938 12.6025 73.9863 12.6805 73.1043 12.0036C72.1691 11.2899 72.4029 9.29622 72.5054 9.18546C72.5423 9.14444 72.649 9.15264 72.7433 9.14444L73.6089 9.07881C73.9576 9.05009 74.3965 8.99266 74.7329 8.99676C74.7206 9.14854 74.6837 9.38236 74.696 9.52594C74.696 10.2766 75.1144 10.7484 75.9225 10.5802C76.4353 10.4735 77.0055 9.91975 76.9275 9.27981C76.8127 8.31171 75.0898 8.57014 74.0971 7.49538C73.2233 6.54778 73.6786 4.98076 74.335 4.0988C74.6755 3.63936 74.9995 3.3317 75.5656 3.02814C76.1933 2.69177 76.8783 2.60562 77.6618 2.60562C79.1919 2.60562 80.0041 3.23325 80.0041 4.73464C80.0041 4.91923 79.9795 5.29663 79.9344 5.46482L77.7274 5.6289C77.7521 5.22689 77.748 4.78796 77.5059 4.58286C76.9973 4.15623 75.9512 4.4762 75.9061 5.2474C75.8815 5.65352 76.2712 5.78478 76.5994 5.88324C77.949 6.28525 79.3642 6.71187 79.3642 8.35683L79.3601 8.34863ZM21.9506 2.5523L22.0778 2.52358C22.2214 2.44564 24.859 1.54727 25.1462 1.44882C25.3308 1.38319 25.4949 1.33396 25.6713 1.27653C25.8312 1.2232 26.061 1.13706 26.2291 1.12065C26.2168 1.31345 26.1676 2.1708 26.2127 2.29386C26.3727 2.31437 26.5614 2.05594 26.6435 1.96159C26.8814 1.67444 27.0865 1.37088 27.3039 1.05912C27.4106 0.907336 27.5131 0.72274 27.628 0.583267C27.9808 0.562756 28.6002 0.488918 28.5222 0.0828057C28.3376 -0.0976886 27.8782 0.062295 27.6403 0.136134C27.3942 0.214074 27.4434 0.214074 27.1726 0.181257C26.6312 0.111521 24.9411 -0.114097 24.5965 0.0787035C24.6293 0.119725 24.6621 0.127929 24.7114 0.14844L25.6179 0.579165C25.6548 0.603778 25.6343 0.587369 25.6548 0.611982C25.5851 0.653004 24.256 1.00579 24.0468 1.06732C23.5094 1.2232 19.5919 2.45384 19.4155 2.63024C20.0677 2.63024 20.7077 2.60152 21.3517 2.58101C21.5486 2.57691 21.7701 2.54819 21.9547 2.5564L21.9506 2.5523Z" fill="#FF0000"/>
<path fill-rule="evenodd" clip-rule="evenodd" d="M5.20977 7.40513L5.75535 5.41559C6.17377 5.37047 6.55527 5.41559 6.87113 5.58378C7.24033 5.78478 7.08855 6.17039 7.0024 6.55599C6.83832 7.28207 5.69792 7.32719 5.20977 7.40513ZM10.3333 6.11296C10.4195 5.65762 10.559 5.33355 10.4851 4.81258C10.1775 2.64665 6.85473 2.66305 5.14003 2.72048C4.68059 2.73689 4.21705 2.77791 3.76171 2.81894C3.70428 2.82304 2.48594 2.92559 2.42851 2.99123C2.39159 3.03225 1.32914 7.33129 1.22248 7.76612C1.09942 8.22146 -0.00815894 12.4754 4.53491e-05 12.5369L1.37016 12.5492C1.58757 12.5492 1.62449 12.5861 1.77627 12.4795L4.21705 10.7648C4.21705 10.7648 4.22525 10.7607 4.22935 10.7566C4.22935 10.7566 4.23756 10.7525 4.24166 10.7484C4.3196 10.6827 4.49599 9.89103 4.57393 9.66541C4.79545 9.66131 5.01286 9.65721 5.23438 9.65311C5.41487 9.649 5.68562 9.68592 5.81688 9.58747C6.07122 9.39877 6.32555 9.23059 6.59629 9.05009C7.7654 8.28299 8.64326 7.74561 9.8616 7.04824C10.1405 6.88826 10.4195 6.73648 10.7107 6.5806C11.2891 6.27294 11.8429 5.96528 12.4542 5.66582C12.8274 5.48533 13.4017 5.17767 13.775 5.01358L17.8731 3.16352C18.0618 3.08147 18.7058 2.83945 18.8125 2.76151L18.7838 2.7451C18.5745 2.66305 17.7008 2.5646 17.508 2.54819C17.0157 2.50717 16.503 2.53179 16.0312 2.58922C14.8006 2.7492 13.6971 3.22095 12.7331 3.88139C11.8634 4.4762 11.5763 4.79617 10.8912 5.47712L10.3662 6.06783C10.3374 6.09245 10.3621 6.07604 10.3251 6.10065L10.3333 6.11296ZM21.9875 7.05645L22.5003 5.06691C22.8859 5.0546 23.4602 5.02589 23.7432 5.21459C24.1617 5.49353 24.0099 5.70274 23.8991 6.195C23.7432 6.88416 22.5167 7.07696 21.9875 7.05645ZM22.0778 2.52358C23.37 2.49076 24.9739 2.32258 26.184 2.85175C28.473 3.85678 27.1973 7.37231 25.2118 8.67269C25.0026 8.80806 24.334 9.22648 24.0591 9.24289C23.1648 9.29212 22.2665 9.33314 21.3722 9.38236C21.2984 9.46441 20.8389 11.9503 20.7036 12.3769L17.0362 12.418L18.9191 4.12752C18.9725 3.93882 18.9519 3.93062 19.1201 3.85678L21.9506 2.5523L22.0778 2.52358ZM17.389 8.71372C17.307 9.30442 16.745 11.495 16.585 12.1267C16.5276 12.3441 16.5481 12.299 16.3307 12.3482C14.0048 12.8897 11.4901 12.8036 10.1939 10.5843C10.0298 10.3053 9.70161 9.60388 9.64829 9.2593C10.3169 8.89011 11.2727 8.27889 11.9701 7.86047L13.7012 6.81442C13.8366 6.73238 14.1771 6.49856 14.3001 6.45754C14.2714 6.51907 14.1237 6.65444 14.0663 6.72418C13.8284 7.01133 13.6028 7.31899 13.5576 7.7374C13.5248 8.04917 13.6151 8.32811 13.7545 8.54142C14.1935 9.20597 15.1 9.49312 15.941 9.32083C16.7819 9.14854 17.028 8.85729 17.389 8.71372ZM15.2026 5.85862L18.3941 4.23417L17.9346 6.40831C17.8403 6.35498 17.6064 5.87913 16.7942 5.74376C16.5194 5.69864 16.2158 5.69864 15.941 5.73556C15.5923 5.78068 15.4856 5.82581 15.2682 5.86273C15.2395 5.86683 15.2477 5.86273 15.2272 5.86273L15.2026 5.85452V5.85862Z" fill="black"/>
</g>
<defs>
<clipPath id="clip0_1801_11287">
<rect width="80.0041" height="12.6271" fill="white"/>
</clipPath>
</defs>
</svg>
