<svg width="80" height="55" viewBox="0 0 80 55" fill="none" xmlns="http://www.w3.org/2000/svg">
<g clip-path="url(#clip0_1801_11147)">
<path d="M14.2947 0H0V6.37183C0 7.80717 0.581849 9.10669 1.52253 10.0474C2.46322 10.9881 3.76273 11.9053 5.19807 11.9053V13.079H2.86062C2.37099 13.079 1.91155 13.2014 1.50912 13.4177C0.660658 13.8738 0.0670719 14.7458 0.00503039 15.7619H0V25.9904H6.95871V19.1993H14.2947C16.9457 19.1993 19.3452 18.1245 21.0824 16.3873C22.8195 14.6502 23.8944 12.2507 23.8944 9.59966C23.8944 4.29763 19.5967 0 14.2947 0ZM16.1962 12.3295C15.7116 12.8174 14.9151 12.9952 13.6659 12.9952H6.95871V6.62335H13.6659C16.1643 6.62335 16.8518 7.33599 16.8518 9.80926C16.8518 11.0467 16.6808 11.8415 16.1962 12.3295Z" fill="#182C61"/>
<path d="M6.95867 28.3379V35.58C5.03706 35.58 3.35523 35.0467 2.09596 33.7875C0.836682 32.5282 0.0485878 30.2327 0.0016375 28.3379H6.95867Z" fill="#F94F1B"/>
<path d="M3.66216 36.4703H6.95874V54.3282H3.32617e-05V39.4886H0.00674045C0.0905803 38.1287 0.419233 37.1411 1.25763 36.8057C1.75061 36.6095 3.00653 36.4703 3.66216 36.4703Z" fill="#182C61"/>
<path d="M35.4643 28.3379V54.3282H27.86L17.2174 39.1583H16.5165V54.3282H9.55778V28.3379H17.2979C17.3314 28.3848 17.3549 28.4217 17.3549 28.4217L27.9724 44.1836H28.5056V28.3379H35.4643Z" fill="#182C61"/>
<path d="M52.2926 28.3379H38.231V41.759C38.4222 42.8221 38.9369 43.7728 39.6697 44.5056C40.6104 45.4462 41.9099 46.3635 43.3452 46.3635V47.5372H41.0078C40.5182 47.5372 40.0587 47.6596 39.6563 47.8759C38.9537 48.2532 38.4255 48.9172 38.231 49.7103V54.3282H52.2926C59.2966 54.3282 64.9759 48.6489 64.9759 41.6449V41.0212C64.9759 34.0172 59.2966 28.3379 52.2926 28.3379ZM57.4303 41.6969C57.4303 47.8608 54.7408 47.7049 51.4224 47.7049H45.1897V34.9612H51.4224C54.7408 34.9612 57.4303 34.8053 57.4303 40.9692V41.6969Z" fill="#182C61"/>
<path d="M0.0016375 28.3379H3.32617e-05V28.1736C3.32617e-05 28.2272 -3.93e-05 28.2825 0.0016375 28.3379Z" fill="#182C61"/>
<path d="M39.237 7.34525e-06C30.8732 7.34525e-06 24.887 5.29701 24.887 12.9952C24.887 20.6934 30.8732 25.9904 39.237 25.9904C47.6009 25.9904 53.5871 20.6934 53.5871 12.9952C53.5871 5.29701 47.6009 7.34525e-06 39.237 7.34525e-06ZM39.237 19.6034C35.4089 19.6034 32.1727 18.2234 32.1727 12.9952C32.1727 7.76693 35.4089 6.38693 39.237 6.38693C43.0652 6.38693 46.3014 7.76693 46.3014 12.9952C46.3014 18.2234 43.0652 19.6034 39.237 19.6034Z" fill="#182C61"/>
<path d="M67.9942 26.158C54.0767 26.158 55.4182 16.7378 55.4182 16.7378H62.4607V18.4196C62.4607 18.8053 62.8481 19.1004 63.2673 19.305C63.7686 19.5498 64.322 19.6672 64.8787 19.6755C66.4331 19.6973 70.6569 19.7476 71.3025 19.6672C71.3209 19.6672 71.3394 19.6621 71.3561 19.6605C72.2348 19.5364 72.8938 18.75 72.8133 17.8663C72.7697 17.3985 72.5316 16.9424 71.8508 16.7378C70.174 16.2331 64.1375 15.7284 64.1375 15.7284C54.2444 15.3913 54.9151 8.1593 54.9151 8.1593C54.9151 8.1593 54.2444 7.34525e-06 67.4794 7.34525e-06C80.7143 7.34525e-06 79.3796 9.33641 79.3796 9.33641H72.3538V8.23979C72.3538 7.9933 72.3002 7.74681 72.1744 7.53721C71.5272 6.46071 69.676 6.40705 69.676 6.40705H64.2482C63.8307 6.40705 63.4132 6.47412 63.0241 6.62503C62.5144 6.82289 61.9577 7.18508 61.9577 7.82227C61.9577 8.36387 62.2763 8.72774 62.6217 8.96249C62.9722 9.20059 63.388 9.31797 63.8106 9.33306C64.5148 9.35821 66.5471 9.53931 72.0185 10.5135C79.5641 11.86 79.8994 16.5701 79.8994 16.5701C79.8994 16.5701 81.9116 26.158 67.9942 26.158Z" fill="#182C61"/>
</g>
<defs>
<clipPath id="clip0_1801_11147">
<rect width="80.0007" height="54.3282" fill="white"/>
</clipPath>
</defs>
</svg>
