<svg width="79" height="53" viewBox="0 0 79 53" fill="none" xmlns="http://www.w3.org/2000/svg">
<g clip-path="url(#clip0_1801_11153)">
<path d="M71.4983 52.1458L73.7969 45.6986H76.3778L78.6326 52.1458H76.1404L75.9329 51.3357H74.1846L73.9862 52.1458H71.4983ZM74.5724 49.8023H75.5361L75.3392 49.0717C75.2414 48.7019 75.1752 48.4164 75.1406 48.2165C75.1047 48.0181 75.0835 47.8302 75.0746 47.6542H75.0354C75.0265 47.8302 75.0039 48.0181 74.9694 48.2165C74.9333 48.4164 74.8671 48.7019 74.7708 49.0717L74.5724 49.8023ZM68.7198 52.1458V45.6986H71.0787V52.1458H68.7198ZM62.6447 51.4243L63.3844 49.619C63.7165 49.8505 64.0112 50.0203 64.2714 50.127C64.5312 50.2338 64.7749 50.2878 65.0003 50.2878C65.1597 50.2878 65.2845 50.2577 65.3745 50.1976C65.4663 50.1375 65.5114 50.0563 65.5114 49.9526C65.5114 49.7738 65.2845 49.637 64.8289 49.5438C64.6817 49.5107 64.5674 49.4866 64.4846 49.4687C64.0038 49.3513 63.6353 49.1425 63.3799 48.8433C63.1244 48.544 62.9966 48.1712 62.9966 47.7248C62.9966 47.0318 63.2446 46.4682 63.7407 46.0337C64.2366 45.5993 64.8875 45.3813 65.6917 45.3813C66.0631 45.3813 66.427 45.4294 66.7846 45.5272C67.1424 45.6235 67.5045 45.7707 67.8684 45.9676L67.1635 47.6542C66.9409 47.4904 66.717 47.3641 66.4914 47.277C66.2675 47.1912 66.0496 47.1477 65.8377 47.1477C65.6767 47.1477 65.5519 47.1747 65.4633 47.2289C65.3745 47.2829 65.3309 47.3596 65.3309 47.4558C65.3309 47.6377 65.6528 47.7986 66.2961 47.9354C66.3982 47.9593 66.4779 47.9774 66.5337 47.9894C66.9771 48.0887 67.3257 48.2931 67.5814 48.6013C67.8368 48.9095 67.9647 49.2823 67.9647 49.7196C67.9647 50.4323 67.7077 51.0153 67.192 51.4679C66.6765 51.9204 66.006 52.1458 65.1806 52.1458C64.7584 52.1458 64.3359 52.0857 63.9134 51.9655C63.4896 51.8453 63.0671 51.6647 62.6447 51.4243ZM57.7991 52.1458V45.6986H62.1104V47.4467H60.072V48.0676H61.9209V49.7196H60.072V50.3975H62.1628V52.1458H57.7991ZM50.0542 52.1458V45.6986H52.3271L54.331 49.0717C54.3038 48.923 54.2857 48.7561 54.2753 48.5741C54.2648 48.3923 54.2603 48.1547 54.2603 47.86V45.6986H56.4925V52.1458H54.2032L52.2204 48.7982C52.2445 48.9426 52.2609 49.0972 52.2731 49.2642C52.285 49.4295 52.2909 49.6144 52.2909 49.8204V52.1458H50.0542ZM49.0156 48.9361C49.0156 49.4082 48.9315 49.8486 48.7647 50.2545C48.5977 50.6619 48.3527 51.0256 48.0295 51.3459C47.7063 51.66 47.3335 51.9006 46.9125 52.0674C46.4918 52.2343 46.0423 52.3183 45.5673 52.3183C45.0863 52.3183 44.6353 52.2343 44.2158 52.0674C43.7949 51.9006 43.4222 51.657 43.096 51.3368C42.7772 51.0256 42.5337 50.6665 42.37 50.2621C42.206 49.8562 42.1234 49.4143 42.1234 48.9361C42.1234 48.4583 42.206 48.0147 42.37 47.6059C42.5337 47.1985 42.7772 46.8378 43.096 46.5266C43.4192 46.2108 43.7905 45.9689 44.2113 45.8036C44.6307 45.6368 45.0832 45.554 45.5673 45.554C46.0512 45.554 46.5038 45.6368 46.9232 45.8036C47.3441 45.9689 47.7168 46.2108 48.043 46.5266C48.3588 46.8406 48.6007 47.203 48.766 47.6103C48.933 48.0192 49.0156 48.4611 49.0156 48.9361ZM45.5673 50.1523C45.8936 50.1523 46.1551 50.0411 46.3535 49.82C46.5519 49.5977 46.651 49.3045 46.651 48.9361C46.651 48.5665 46.5519 48.2703 46.3535 48.0447C46.1551 47.8208 45.8936 47.708 45.5673 47.708C45.2411 47.708 44.978 47.8208 44.7781 48.0478C44.5782 48.2734 44.4789 48.5695 44.4789 48.9361C44.4789 49.3045 44.5782 49.5977 44.7781 49.82C44.978 50.0411 45.2411 50.1523 45.5673 50.1523ZM35.1797 52.1458V45.6986H37.0559C37.6511 45.6986 38.1606 45.7315 38.5816 45.7977C39.0024 45.8639 39.3467 45.966 39.6097 46.1043C40.169 46.3974 40.5958 46.7868 40.895 47.2709C41.1925 47.7548 41.3415 48.3067 41.3415 48.926C41.3415 49.5436 41.1925 50.0924 40.8965 50.5735C40.6004 51.0545 40.172 51.4439 39.6097 51.7399C39.3377 51.8812 38.9904 51.9849 38.5709 52.0496C38.1515 52.1142 37.5879 52.1458 36.8843 52.1458H35.1797ZM37.4781 50.1767C38.0012 50.1736 38.383 50.0713 38.6252 49.8699C38.8656 49.6699 38.9858 49.3544 38.9858 48.926C38.9858 48.5066 38.8702 48.1939 38.6402 47.9879C38.4087 47.782 38.0555 47.6797 37.579 47.6797H37.4781V50.1767ZM27.4107 52.1458V45.6984H29.6836L31.6874 49.0717C31.6603 48.9228 31.6423 48.756 31.6318 48.5741C31.6212 48.3923 31.6166 48.1547 31.6166 47.86V45.6984H33.849V52.1458H31.5595L29.5767 48.798C29.6009 48.9424 29.6174 49.0972 29.6294 49.264C29.6414 49.4295 29.6475 49.6144 29.6475 49.8202V52.1458H27.4107ZM23.7968 52.1458V45.6984H26.1522V52.1458H23.7968ZM14.4605 51.6889L15.2001 49.8836C15.5324 50.1151 15.8268 50.2849 16.0871 50.3916C16.3471 50.4983 16.5906 50.5524 16.816 50.5524C16.9754 50.5524 17.1002 50.5225 17.1903 50.4622C17.282 50.4023 17.3273 50.3209 17.3273 50.2172C17.3273 50.0384 17.1002 49.9016 16.6448 49.8084C16.4974 49.7753 16.3832 49.7514 16.3005 49.7333C15.8194 49.6159 15.4512 49.4071 15.1955 49.1079C14.9401 48.8088 14.8122 48.436 14.8122 47.9894C14.8122 47.2964 15.0603 46.7328 15.5564 46.2983C16.0524 45.8639 16.7034 45.6459 17.5076 45.6459C17.8789 45.6459 18.2426 45.694 18.6004 45.7918C18.9582 45.888 19.3204 46.0353 19.6843 46.2321L18.9793 47.9188C18.7568 47.755 18.5329 47.6287 18.3073 47.5416C18.0832 47.4558 17.8652 47.4123 17.6533 47.4123C17.4926 47.4123 17.3678 47.4393 17.279 47.4935C17.1903 47.5475 17.1468 47.6242 17.1468 47.7204C17.1468 47.9023 17.4684 48.0632 18.1119 48.1999C18.2141 48.2239 18.2938 48.242 18.3493 48.254C18.7929 48.3533 19.1416 48.5577 19.397 48.8659C19.6527 49.1741 19.7805 49.5469 19.7805 49.9842C19.7805 50.6969 19.5233 51.2801 19.0078 51.7327C18.4922 52.185 17.8218 52.4104 16.9965 52.4104C16.574 52.4104 16.1517 52.3503 15.7293 52.2301C15.3053 52.1099 14.883 51.9294 14.4605 51.6889ZM13.9825 49.0281C13.9825 49.5003 13.8982 49.9406 13.7314 50.3465C13.5646 50.754 13.3196 51.1177 12.9964 51.438C12.6732 51.7521 12.3004 51.9927 11.8795 52.1595C11.4585 52.3263 11.009 52.4104 10.534 52.4104C10.053 52.4104 9.60198 52.3263 9.18274 52.1595C8.76179 51.9927 8.38897 51.749 8.06275 51.4289C7.74413 51.1177 7.50065 50.7584 7.33668 50.3542C7.17271 49.9482 7.09016 49.5062 7.09016 49.0281C7.09016 48.5501 7.17271 48.1067 7.33668 47.6978C7.50065 47.2905 7.74413 46.9297 8.06275 46.6185C8.38592 46.3029 8.75722 46.0608 9.17818 45.8955C9.59761 45.7286 10.0499 45.6459 10.534 45.6459C11.0181 45.6459 11.4705 45.7286 11.8899 45.8955C12.3109 46.0608 12.6837 46.3029 13.0099 46.6185C13.3255 46.9327 13.5676 47.2951 13.7329 47.7023C13.8998 48.1113 13.9825 48.5532 13.9825 49.0281ZM10.534 50.2444C10.8603 50.2444 11.1218 50.1331 11.3202 49.9121C11.5188 49.6895 11.6179 49.3966 11.6179 49.0281C11.6179 48.6584 11.5188 48.3622 11.3202 48.1368C11.1218 47.9127 10.8603 47.8001 10.534 47.8001C10.2078 47.8001 9.94475 47.9127 9.74483 48.1398C9.54492 48.3652 9.44562 48.6614 9.44562 49.0281C9.44562 49.3966 9.54492 49.6895 9.74483 49.9121C9.94475 50.1331 10.2078 50.2444 10.534 50.2444ZM3.21391 47.5987V48.6736H3.57475C3.79427 48.6736 3.96413 48.627 4.0813 48.5353C4.19848 48.4419 4.25725 48.3112 4.25725 48.1398C4.25725 47.97 4.19715 47.8378 4.07693 47.7415C3.95652 47.6468 3.7897 47.5987 3.57475 47.5987H3.21391ZM0.883941 52.2542V45.8068H3.65427C4.62856 45.8068 5.34092 45.9948 5.79212 46.3706C6.24293 46.7463 6.46853 47.3417 6.46853 48.1579C6.46853 48.9186 6.26557 49.4748 5.86117 49.825C5.45524 50.1752 4.81193 50.3511 3.93103 50.3511H3.20497V52.2542H0.883941Z" fill="#88898B"/>
<path d="M28.3161 30.9442H35.2589L33.3839 32.2209H29.1364L28.4539 31.184C28.4073 31.1043 28.3614 31.0243 28.3161 30.9442ZM62.2542 32.0878L54.5498 32.1262C53.1015 36.0144 49.2663 39.3478 46.5498 41.0801C46.407 41.0989 46.2919 41.1153 46.1962 41.1294C46.0469 41.133 45.8974 41.1353 45.7475 41.1353C45.5392 41.1353 45.3305 41.1313 45.1218 41.1237C45.0486 41.113 44.9661 41.1012 44.8717 41.0877C43.2233 40.0815 40.9783 38.5548 39.7722 36.8333L41.1313 36.2433C42.2334 37.7024 43.5674 38.7771 44.9124 40.1098L44.9383 34.8115L46.1901 34.3285L46.2177 40.2222C48.8615 38.0121 51.3465 35.0188 52.9668 32.1262L52.361 32.0878L55.2294 30.8255L63.0249 30.8063C62.7407 31.3315 62.5859 31.5923 62.2542 32.0878ZM46.1736 24.0345L44.9103 24.8277V22.7732L46.1736 22.7707V24.0345ZM37.2246 29.5948C36.4301 27.4666 35.8963 25.3216 35.7677 22.87H34.553C34.665 25.5597 35.1141 27.8952 35.992 30.3981L37.2246 29.5948ZM46.1342 9.17989L46.1538 1.9969C48.406 3.75261 50.766 6.24655 52.4426 9.17875H53.9666C52.0326 4.73736 48.1121 1.98074 46.4153 1.2562C46.3179 1.2425 46.2076 1.23052 46.0895 1.22101C45.9755 1.21892 45.8616 1.21739 45.7475 1.21739C45.4884 1.21283 45.2291 1.21473 44.9702 1.22139C44.9122 1.2269 44.8557 1.23337 44.8008 1.24117C42.5823 2.36421 38.8597 5.28937 37.3473 9.25065H38.991C40.3837 6.20622 42.6795 4.03185 44.9174 2.1641L44.8978 9.17989H46.1342Z" fill="#F8AC5E"/>
<path d="M24.6773 23.2763L25.8665 23.1761C26.3617 27.7491 27.9897 30.9817 30.593 34.284L29.6581 35.0652C26.6095 31.5086 24.7789 27.355 24.6773 23.2763ZM35.7848 38.4703L34.4592 39.1367C37.7112 41.1689 41.6317 42.3224 45.7475 42.3224C55.0004 42.1626 62.9304 36.1111 65.745 27.727L64.2075 28.2178C61.5146 35.6867 54.1309 41.1353 45.7475 41.1353C42.2416 41.1353 38.6303 40.0453 35.7848 38.4703ZM9.71782 14.4892L10.3925 13.9597L44.9394 12.7387C45.97 12.7862 47.2087 13.5887 47.5724 14.3106L9.71782 14.4892ZM7.14742 16.4715L48.3757 15.2252C49.1379 15.2252 50.3602 15.9893 51.0715 16.7515L6.38579 17.0302L7.14742 16.4715ZM3.85247 19.0841L51.5259 17.7657C52.8011 17.7138 54.2275 18.6864 54.4537 19.2106L3.14144 19.6719L3.85247 19.0841ZM61.6283 9.24742C58.0209 4.52204 52.0479 1.21739 45.7475 1.21739C39.3864 1.10611 33.0415 4.41532 29.6047 9.31133L28.1221 9.34328C31.9327 3.75432 38.4815 0 45.7475 0C52.9116 0 59.3324 3.67709 63.143 9.21527L61.6283 9.24742ZM72.3296 21.1301C72.7616 21.1301 73.041 21.4856 73.041 21.9429C73.041 22.4002 72.7616 22.6543 72.3296 22.6543C71.8978 22.6543 71.5168 22.4002 71.5168 21.9429C71.5168 21.4856 71.8978 21.1301 72.3296 21.1301ZM13.8391 11.1661L63.1463 9.84184C68.9175 11.1549 68.7746 15.6246 65.9582 19.2854L71.3351 19.2281C74.0134 19.1163 75.4752 21.6123 78.0494 24.087C70.6819 24.8998 63.9832 26.7257 56.3618 29.1645C45.6917 32.6704 35.8018 36.9828 25.0301 41.5556C30.6191 35.4076 35.5699 32.2124 40.5492 28.808C44.3515 26.4697 49.0377 23.8605 52.5476 21.9707H55.0358C52.1062 23.4348 47.8629 25.9786 44.0136 28.1725C39.9339 30.4979 34.5794 34.0997 30.9151 37.7425C40.3074 33.8674 48.2867 30.4928 57.5573 27.5627C62.7483 25.9637 68.7862 24.0676 75.1515 23.0346C74.5544 21.4909 73.2282 20.4982 70.9423 20.4982H63.1929C64.8394 18.6988 66.2314 16.0414 66.2105 14.0359C66.1974 12.7771 64.3583 11.5083 62.9789 11.5139L13.2515 11.7176L13.8391 11.1661ZM0 22.2899L0.609647 21.7818L53.2027 20.3131C54.3204 20.3131 55.1334 20.1029 55.7938 20.3063C56.7086 20.662 57.369 21.1193 57.9278 21.7797L0 22.2899Z" fill="#EB5F27"/>
</g>
<defs>
<clipPath id="clip0_1801_11153">
<rect width="78.6326" height="52.4104" fill="white"/>
</clipPath>
</defs>
</svg>
