<svg width="80" height="47" viewBox="0 0 80 47" fill="none" xmlns="http://www.w3.org/2000/svg">
<g clip-path="url(#clip0_1801_11381)">
<path fill-rule="evenodd" clip-rule="evenodd" d="M52.3509 36.8395V31.394H53.4537V33.8057L55.6765 31.394H57.1527L55.0972 33.5139L57.2557 36.8395H55.8353L54.3377 34.282L53.4537 35.1917V36.8395H52.3509ZM57.8178 32.3595V31.394H58.8606V32.3595H57.8178ZM57.8178 36.8395V32.8916H58.8606V36.8395H57.8178ZM60.9246 36.8395H59.8819V32.8916H60.8474V33.4538C61.0147 33.1877 61.1649 33.0161 61.298 32.9345C61.431 32.853 61.5812 32.8101 61.7485 32.8101C61.9888 32.8101 62.2163 32.8745 62.4351 33.0075L62.1133 33.9172C61.9373 33.8014 61.7743 33.7456 61.6241 33.7456C61.4739 33.7456 61.3537 33.7842 61.2508 33.8657C61.1478 33.9473 61.0705 34.0932 61.0104 34.3034C60.9504 34.5137 60.9246 34.9557 60.9246 35.6251V36.8395ZM62.8857 32.3595V31.394H63.9284V32.3595H62.8857ZM62.8857 36.8395V32.8916H63.9284V36.8395H62.8857ZM64.924 32.8916H65.8809V33.4323C66.2242 33.0161 66.6319 32.8101 67.1082 32.8101C67.3614 32.8101 67.5802 32.8616 67.7647 32.9646C67.9492 33.0676 68.1037 33.2263 68.2196 33.4366C68.3912 33.2263 68.58 33.0676 68.7817 32.9646C68.9834 32.8616 69.198 32.8101 69.4254 32.8101C69.7129 32.8101 69.9575 32.8702 70.1592 32.986C70.3609 33.1019 70.5068 33.2778 70.6098 33.5053C70.6827 33.6726 70.717 33.943 70.717 34.3206V36.8395H69.6743V34.5866C69.6743 34.1961 69.64 33.943 69.567 33.8314C69.4726 33.6812 69.3224 33.6083 69.1207 33.6083C68.9748 33.6083 68.8375 33.6512 68.7088 33.7413C68.58 33.8314 68.4856 33.9601 68.4299 34.1318C68.3741 34.3034 68.344 34.5738 68.344 34.9471V36.8395H67.3013V34.681C67.3013 34.2991 67.2841 34.0502 67.2455 33.9387C67.2069 33.8271 67.1511 33.7456 67.0739 33.6898C66.9966 33.634 66.8893 33.6083 66.7563 33.6083C66.5975 33.6083 66.4516 33.6512 66.3229 33.737C66.1942 33.8228 66.104 33.9473 66.0483 34.1103C65.9925 34.2734 65.9624 34.5437 65.9624 34.9214V36.8352H64.9197V32.8873L64.924 32.8916ZM72.5365 34.106L71.5924 33.9387C71.6997 33.5525 71.8842 33.2693 72.1417 33.0847C72.4035 32.9002 72.7897 32.8058 73.3003 32.8058C73.7638 32.8058 74.1113 32.8616 74.3388 32.9689C74.5662 33.0804 74.725 33.2178 74.8194 33.3894C74.9138 33.5611 74.9567 33.87 74.9567 34.3249L74.9395 35.5393C74.9395 35.8869 74.9567 36.14 74.991 36.3074C75.0254 36.4705 75.0854 36.6464 75.1756 36.8352H74.1414C74.1156 36.7665 74.0813 36.6636 74.0427 36.5305C74.0255 36.4705 74.0126 36.4275 74.0041 36.4104C73.8281 36.5863 73.635 36.7151 73.4333 36.8052C73.2317 36.891 73.0171 36.9382 72.7854 36.9382C72.382 36.9382 72.0602 36.8266 71.8285 36.6078C71.5967 36.3889 71.4766 36.11 71.4766 35.771C71.4766 35.5479 71.5281 35.3505 71.6353 35.1745C71.7426 35.0029 71.8885 34.8656 72.0816 34.7755C72.2747 34.6811 72.5494 34.6038 72.9098 34.5309C73.3947 34.4407 73.7337 34.3549 73.9225 34.2734V34.1704C73.9225 33.9687 73.871 33.8228 73.7723 33.737C73.6736 33.6512 73.4848 33.6083 73.2102 33.6083C73.0257 33.6083 72.8798 33.6469 72.7768 33.7198C72.6695 33.7928 72.588 33.9258 72.5236 34.1103L72.5365 34.106ZM73.9354 34.9514C73.8024 34.9943 73.5921 35.0501 73.3003 35.1102C73.0128 35.1702 72.8197 35.2346 72.7339 35.2904C72.5966 35.3891 72.5279 35.5092 72.5279 35.6594C72.5279 35.8096 72.5837 35.9298 72.691 36.0371C72.7983 36.1443 72.9399 36.1958 73.1072 36.1958C73.296 36.1958 73.4763 36.1358 73.6436 36.0113C73.7681 35.9169 73.8539 35.801 73.8925 35.6637C73.9182 35.5736 73.9311 35.4063 73.9311 35.1574V34.9514H73.9354ZM79.5783 36.8352H78.5355V34.8227C78.5355 34.3978 78.5141 34.1232 78.4669 33.9988C78.4197 33.8743 78.351 33.7756 78.248 33.707C78.145 33.6383 78.0249 33.604 77.8833 33.604C77.6988 33.604 77.5357 33.6555 77.3941 33.7542C77.2482 33.8529 77.1495 33.9859 77.098 34.1489C77.0422 34.312 77.0165 34.6124 77.0165 35.0544V36.8395H75.9737V32.8916H76.9392V33.4709C77.2868 33.029 77.7202 32.8101 78.2437 32.8101C78.4755 32.8101 78.6857 32.853 78.8788 32.9345C79.0719 33.0161 79.2178 33.1234 79.3122 33.2521C79.4109 33.3808 79.4796 33.5267 79.5182 33.6898C79.5568 33.8529 79.5783 34.0846 79.5783 34.3893V36.8395V36.8352Z" fill="#0C514A"/>
<path fill-rule="evenodd" clip-rule="evenodd" d="M52.3337 44.7266V39.2812H56.2215V40.1995H53.3979V41.4096H56.0241V42.3279H53.3979V43.804H56.3245V44.7224H52.3337V44.7266ZM56.7322 44.7266L58.1053 42.6926L56.7922 40.7788H58.0195L58.6932 41.8644L59.4056 40.7788H60.5856L59.294 42.6497L60.7015 44.7266H59.4742L58.6889 43.5037L57.9079 44.7266H56.7279H56.7322ZM61.2722 40.7788H62.212V41.3581C62.3321 41.1607 62.4995 41.0019 62.7055 40.8775C62.9114 40.7573 63.1432 40.693 63.3963 40.693C63.8383 40.693 64.2117 40.8732 64.5206 41.2336C64.8296 41.5941 64.9841 42.0962 64.9841 42.7355C64.9841 43.3749 64.8296 43.907 64.5163 44.2718C64.2074 44.6365 63.8297 44.821 63.3877 44.821C63.1775 44.821 62.9887 44.7781 62.817 44.6923C62.6454 44.6065 62.4652 44.4563 62.2763 44.246V46.22H61.2722V40.7745V40.7788ZM62.2635 42.6926C62.2635 43.1389 62.3493 43.465 62.5166 43.6796C62.684 43.8899 62.89 43.9971 63.1346 43.9971C63.3792 43.9971 63.5637 43.8985 63.7182 43.7053C63.8726 43.5122 63.9499 43.1904 63.9499 42.7441C63.9499 42.3279 63.8684 42.0189 63.7096 41.8172C63.5508 41.6156 63.3534 41.5169 63.1174 41.5169C62.8814 41.5169 62.6668 41.6156 62.5081 41.813C62.345 42.0103 62.2635 42.3021 62.2635 42.6926ZM66.7434 44.7266H65.7393V40.7788H66.6705V41.3409C66.8293 41.0749 66.9752 40.9032 67.1039 40.8217C67.2326 40.7402 67.3785 40.6972 67.5416 40.6972C67.7733 40.6972 67.9922 40.7616 68.2067 40.8946L67.8935 41.8044C67.7218 41.6885 67.5673 41.6327 67.4214 41.6327C67.2755 41.6327 67.1597 41.6713 67.061 41.7529C66.9623 41.8344 66.885 41.9803 66.8293 42.1906C66.7735 42.4008 66.7434 42.8428 66.7434 43.5122V44.7266ZM70.8372 43.4779L71.8413 43.6539C71.7126 44.0358 71.5066 44.3276 71.232 44.525C70.9531 44.7224 70.6055 44.8253 70.1892 44.8253C69.5284 44.8253 69.0392 44.6022 68.7216 44.1516C68.4728 43.7912 68.344 43.3363 68.344 42.7913C68.344 42.1391 68.5071 41.6241 68.8375 41.2551C69.1679 40.8818 69.5842 40.6972 70.0862 40.6972C70.6527 40.6972 71.099 40.8904 71.4251 41.2808C71.7512 41.667 71.91 42.2635 71.8928 43.0617H69.3782C69.3868 43.3706 69.4683 43.6109 69.6228 43.7826C69.7773 43.9542 69.9704 44.0401 70.2021 44.0401C70.3609 44.0401 70.4939 43.9971 70.5969 43.907C70.7042 43.8169 70.7857 43.6753 70.8415 43.4779H70.8372ZM70.8973 42.4223C70.8887 42.1176 70.8157 41.8902 70.6741 41.7314C70.5325 41.5726 70.3566 41.4954 70.1506 41.4954C69.9318 41.4954 69.7515 41.5769 69.6056 41.7443C69.464 41.9116 69.3911 42.1391 69.3954 42.4223H70.8973ZM72.3606 43.6152L73.3733 43.4565C73.4162 43.6581 73.502 43.8126 73.635 43.9156C73.7638 44.0229 73.9483 44.0744 74.1886 44.0744C74.4503 44.0744 74.6434 44.0272 74.7765 43.9242C74.8666 43.8555 74.9095 43.7611 74.9095 43.6453C74.9095 43.568 74.8838 43.4994 74.8365 43.4479C74.7851 43.3964 74.6735 43.3535 74.5018 43.3106C73.6908 43.126 73.1759 42.9544 72.957 42.7999C72.6566 42.5854 72.5065 42.2893 72.5065 41.9116C72.5065 41.5684 72.6395 41.2808 72.8969 41.0491C73.1544 40.8174 73.5621 40.6972 74.107 40.6972C74.652 40.6972 75.0168 40.7874 75.27 40.9633C75.5231 41.1392 75.6991 41.401 75.7935 41.7486L74.8451 41.9331C74.8065 41.7786 74.725 41.6585 74.6134 41.5769C74.4975 41.4954 74.3388 41.4525 74.1242 41.4525C73.8582 41.4525 73.6651 41.4911 73.5492 41.5684C73.472 41.6241 73.4333 41.6928 73.4333 41.7786C73.4333 41.8516 73.4677 41.9159 73.532 41.9674C73.6222 42.0361 73.9397 42.1348 74.4761 42.2635C75.0125 42.3923 75.3901 42.5467 75.6004 42.727C75.8106 42.9115 75.9179 43.1732 75.9179 43.5037C75.9179 43.8641 75.772 44.1774 75.4802 44.4348C75.1884 44.6966 74.7593 44.8253 74.1843 44.8253C73.6651 44.8253 73.2531 44.7181 72.9527 44.4992C72.6523 44.2804 72.4507 43.9886 72.3606 43.6152ZM76.4414 43.6152L77.4542 43.4565C77.4971 43.6581 77.5829 43.8126 77.7159 43.9156C77.8446 44.0229 78.0335 44.0744 78.2695 44.0744C78.5312 44.0744 78.7243 44.0272 78.8574 43.9242C78.9432 43.8555 78.9904 43.7611 78.9904 43.6453C78.9904 43.568 78.9646 43.4994 78.9174 43.4479C78.8659 43.3964 78.7544 43.3535 78.5827 43.3106C77.7674 43.126 77.2525 42.9544 77.0379 42.7999C76.7375 42.5854 76.5873 42.2893 76.5873 41.9116C76.5873 41.5684 76.7161 41.2808 76.9778 41.0491C77.2396 40.8174 77.643 40.6972 78.1879 40.6972C78.7329 40.6972 79.0977 40.7874 79.3508 40.9633C79.604 41.1392 79.78 41.401 79.8744 41.7486L78.926 41.9331C78.8874 41.7786 78.8059 41.6585 78.6943 41.5769C78.5827 41.4954 78.4197 41.4525 78.2051 41.4525C77.9391 41.4525 77.7459 41.4911 77.6301 41.5684C77.5528 41.6241 77.5142 41.6928 77.5142 41.7786C77.5142 41.8516 77.5486 41.9159 77.6129 41.9674C77.703 42.0361 78.0206 42.1348 78.557 42.2635C79.0934 42.3923 79.471 42.5467 79.6813 42.727C79.8915 42.9115 79.9988 43.1732 79.9988 43.5037C79.9988 43.8641 79.8529 44.1774 79.5611 44.4348C79.2693 44.6966 78.8402 44.8253 78.2652 44.8253C77.746 44.8253 77.334 44.7181 77.0336 44.4992C76.7332 44.2804 76.5316 43.9886 76.4414 43.6152Z" fill="#0C514A"/>
<path fill-rule="evenodd" clip-rule="evenodd" d="M0.0803356 0.175872C-0.0698548 0.965444 0.0374241 2.92221 0.0331329 3.84481V14.8516C0.0331329 18.2459 -0.0355255 22.5671 0.0460064 25.8842C0.0717533 26.8154 0.312058 27.9525 1.00723 28.6005C2.03281 29.5617 4.30283 29.4673 5.87339 29.3858C6.71446 29.3429 6.65868 29.0682 6.65009 28.3044L6.63293 13.6286C6.63293 11.2556 6.55569 8.7024 6.66297 6.34655C7.98035 6.09337 11.7652 6.25644 13.1855 6.4195C14.2583 6.54395 15.005 6.72847 15.6186 7.29919C16.8888 8.47926 17.0561 10.7235 16.3266 12.3542C15.3354 14.5727 12.2071 14.4997 10.1045 14.4912C7.93744 14.4783 7.98035 14.4568 9.52088 17.1431L15.9233 27.6178C16.258 28.1842 16.6356 29.094 17.2621 29.2098C18.1761 29.3815 21.9566 29.2914 23.0681 29.2442C23.5701 29.2227 23.819 29.1326 23.7761 28.5576C23.6774 27.326 18.4808 20.5932 17.7942 18.5163C18.3263 18.0914 18.97 17.6881 19.5579 17.289C20.8624 16.4007 20.3217 16.5852 21.1199 15.9115C22.0124 15.1606 22.9136 13.2339 23.2011 12.0238C23.7632 9.6722 23.377 6.68555 22.1626 4.66871C19.7767 0.712266 16.8201 0.120087 11.8982 0.0643016C10.2418 0.047137 0.934275 -0.124509 0.0803356 0.175872Z" fill="#0C514A"/>
<path fill-rule="evenodd" clip-rule="evenodd" d="M40.4859 8.65519C40.6103 8.05443 40.812 6.02472 40.0482 5.6943C39.6362 5.51407 30.7063 5.5956 29.8352 5.5956C25.8273 5.5956 26.1663 4.97767 26.1877 8.81826L26.2049 25.94C26.2049 26.6609 26.0032 28.6691 26.4838 29.0511C26.8529 29.3429 35.0833 29.2141 36.6024 29.2012C38.9367 29.1798 40.5202 29.5746 40.5674 26.2661C40.5888 24.7899 40.8034 24.305 39.2157 24.202C38.0356 24.1248 33.0836 24.3909 32.4399 24.1377C31.9679 23.9532 32.1224 23.2709 32.131 22.7559C32.1696 20.9751 31.7963 20.0997 32.8433 20.0911L37.9841 20.0997C39.1942 20.0997 40.0653 20.0525 40.3829 19.0226C40.5416 18.5077 40.6618 16.2634 40.5416 15.7399C40.3314 14.8087 38.4561 15.1348 37.658 15.1348C36.5165 15.1391 35.3751 15.1477 34.2336 15.1434C31.9894 15.1434 32.0924 15.3408 32.0924 13.8604C32.0924 13.3025 31.9593 11.0754 32.2383 10.7192C32.4914 10.3974 34.8258 10.5519 35.4566 10.5476C37.6108 10.5433 40.0224 10.8265 40.4773 8.64232L40.4859 8.65519Z" fill="#0C514A"/>
<path fill-rule="evenodd" clip-rule="evenodd" d="M55.2989 18.9025L59.9205 24.6483C60.0192 24.3437 60.414 23.6056 60.6242 23.2365C60.9075 22.7388 61.1306 22.2367 61.3494 21.8333C61.594 21.3785 62.6711 19.2887 62.8514 19.1342C62.9071 18.8467 65.9581 13.0107 66.3529 12.2984L68.5629 8.06731C68.6444 7.91282 68.7131 7.79696 68.7903 7.64677L69.7987 5.57844C68.2024 5.61706 66.5804 5.59989 64.9841 5.60847C64.0486 5.61276 63.126 5.4497 62.448 6.03759C62.3836 6.09337 62.212 6.26073 62.1648 6.32939L55.2989 18.9025Z" fill="#F79B29"/>
<path fill-rule="evenodd" clip-rule="evenodd" d="M59.9205 24.6483C60.0535 24.953 60.5513 25.4894 60.7573 25.764C60.9075 25.9614 61.0619 26.176 61.1778 26.3219C61.3323 26.515 61.4396 26.618 61.5855 26.8111C61.9974 27.356 62.787 28.4417 63.2719 28.8794C63.7267 29.2914 64.1859 29.2527 64.8982 29.2484C66.4001 29.2356 69.3696 29.1583 70.5754 29.2442L62.8771 19.0484C62.6969 19.1986 61.5855 21.3785 61.3409 21.8333C61.1263 22.2367 60.8989 22.7388 60.6157 23.2365C60.4054 23.6056 60.0106 24.3479 59.9119 24.6483H59.9205Z" fill="url(#paint0_linear_1801_11381)"/>
<path fill-rule="evenodd" clip-rule="evenodd" d="M51.2266 13.5643L54.3377 7.89566L53.0289 6.09337C52.5397 5.50549 51.6557 5.50549 50.7074 5.50549C48.8364 5.50978 46.914 5.47545 45.0516 5.53123C45.1632 5.7415 45.0688 5.57414 45.1632 5.70717L51.2223 13.56L51.2266 13.5643Z" fill="url(#paint1_linear_1801_11381)"/>
<path fill-rule="evenodd" clip-rule="evenodd" d="M51.218 13.5299L40.3056 33.6426C40.0997 34.0417 39.7649 34.548 39.6105 35.0029C40.945 35.0029 42.2796 35.0029 43.6184 35.0029C44.9572 35.0029 46.2746 35.226 46.8625 34.2391L55.2946 18.9025C55.6079 18.4819 57.127 15.491 57.6204 14.6671L58.4014 13.2124L57.3372 11.8135C56.9725 11.3457 56.6678 10.9252 56.3159 10.4661L54.2519 7.78409C54.1103 8.28615 53.0675 10.0841 52.7371 10.6763L51.5828 12.7919C51.4412 13.0794 51.3167 13.221 51.2094 13.5257L51.218 13.5299Z" fill="#0C514A"/>
</g>
<defs>
<linearGradient id="paint0_linear_1801_11381" x1="43.4279" y1="32.0359" x2="25.5514" y2="7.72565" gradientUnits="userSpaceOnUse">
<stop stop-color="#F89631"/>
<stop offset="1" stop-color="#F26926"/>
</linearGradient>
<linearGradient id="paint1_linear_1801_11381" x1="11.2752" y1="-7.92995" x2="45.6326" y2="43.206" gradientUnits="userSpaceOnUse">
<stop stop-color="#004941"/>
<stop offset="0.17" stop-color="#00382E"/>
<stop offset="0.36" stop-color="#002B20"/>
<stop offset="0.59" stop-color="#002418"/>
<stop offset="1" stop-color="#002216"/>
</linearGradient>
<clipPath id="clip0_1801_11381">
<rect width="79.9988" height="46.22" fill="white"/>
</clipPath>
</defs>
</svg>
