<svg width="80" height="44" viewBox="0 0 80 44" fill="none" xmlns="http://www.w3.org/2000/svg">
<g clip-path="url(#clip0_1801_11370)">
<path fill-rule="evenodd" clip-rule="evenodd" d="M24.5263 15.4872H34.1395L37.4962 10.4735H46.2199C47.42 10.4735 56.3935 8.34126 56.162 2.80973C56.0402 -0.150975 53.7009 0.00132529 53.7009 0.00132529H34.8827L32.0804 4.18652H44.7335C45.3488 4.18652 45.8483 4.40583 45.8483 5.01503C45.8483 6.09331 43.0582 6.41619 42.1992 6.41619H30.5879L24.5263 15.4811V15.4872Z" fill="#B59A28"/>
<path fill-rule="evenodd" clip-rule="evenodd" d="M0 15.4872H9.61316L13.177 10.4735L15.3274 15.4872H25.1416L22.7901 10.0531C28.2486 9.01747 32.6835 5.73998 32.6835 2.80364C32.6835 -0.1327 29.8264 0.00132359 29.8264 0.00132359H11.0082L0 15.4872ZM16.0524 6.42837L17.6424 4.18652H22.2662C22.2662 4.18652 23.7709 4.11951 23.7405 4.63733C23.71 5.16124 20.8894 6.2578 20.8894 6.2578C20.8894 6.2578 17.4718 6.42228 16.0524 6.42228V6.42837Z" fill="black"/>
<path fill-rule="evenodd" clip-rule="evenodd" d="M80 0.00132463H69.6924L65.4341 3.10215L63.4359 0.00132463H53.8288L58.3978 8.2316L48.4435 15.4872H58.7085L61.7545 13.1966L61.7971 13.2575L63.1374 15.4872H73.4085L68.9309 8.5362L80 0.00132463Z" fill="black"/>
<path fill-rule="evenodd" clip-rule="evenodd" d="M25.3122 17.7656C25.3427 17.9179 25.361 18.0945 25.361 18.2956C25.361 18.4783 25.3488 18.6733 25.3305 18.8804C25.3122 19.0814 25.2818 19.2947 25.2391 19.514C25.1965 19.7333 25.1477 19.9404 25.0929 20.1475C25.0381 20.3486 24.9711 20.5496 24.9041 20.7324C24.837 20.9151 24.7639 21.0735 24.6847 21.2136C24.6055 21.3537 24.5203 21.4695 24.4289 21.567C24.3375 21.6644 24.24 21.7375 24.1426 21.7863C24.039 21.835 23.9354 21.8594 23.8258 21.8594C23.7039 21.8594 23.5943 21.8289 23.4968 21.7741C23.3993 21.7193 23.3201 21.634 23.2531 21.5182C23.1861 21.4086 23.1374 21.2806 23.1008 21.1283C23.0704 20.9821 23.0521 20.8116 23.0521 20.6288C23.0521 20.4582 23.0582 20.2816 23.0765 20.0988C23.0947 19.916 23.1191 19.7272 23.1556 19.5261C23.1922 19.3251 23.2348 19.1302 23.2836 18.9352C23.3323 18.7403 23.3932 18.5453 23.4602 18.3565C23.5394 18.1311 23.6186 17.9361 23.6978 17.7777C23.7831 17.6133 23.8684 17.4731 23.9537 17.3696C24.0451 17.2599 24.1426 17.1807 24.2461 17.1259C24.3497 17.0711 24.4654 17.0406 24.5812 17.0406C24.7091 17.0406 24.8249 17.0711 24.9223 17.1259C25.0198 17.1807 25.1051 17.266 25.1721 17.3757C25.2391 17.4853 25.2878 17.6133 25.3183 17.7717L25.3122 17.7656ZM26.1895 19.447C26.226 19.2398 26.2443 19.0327 26.2443 18.8195C26.2443 18.2164 26.0981 17.729 25.7996 17.3635C25.6534 17.1807 25.4828 17.0406 25.2878 16.9492C25.0929 16.8579 24.8797 16.8091 24.6421 16.8091C24.4898 16.8091 24.3375 16.8274 24.1974 16.864C24.0512 16.9005 23.9111 16.9553 23.7709 17.0284C23.6308 17.1015 23.4968 17.1929 23.375 17.2965C23.247 17.4 23.1252 17.528 23.0155 17.662C22.8876 17.8204 22.7658 17.9971 22.6683 18.1859C22.5647 18.3748 22.4733 18.5758 22.4002 18.789C22.3271 19.0022 22.2662 19.2155 22.2297 19.4287C22.1931 19.6419 22.1748 19.849 22.1748 20.0562C22.1748 20.3607 22.2114 20.641 22.2845 20.8847C22.3576 21.1283 22.4673 21.3477 22.6196 21.5304C22.7658 21.7132 22.9363 21.8533 23.1252 21.9447C23.314 22.036 23.5334 22.0848 23.7709 22.0848C23.9232 22.0848 24.0755 22.0665 24.2278 22.0239C24.3801 21.9873 24.5263 21.9264 24.6786 21.8472C24.8249 21.768 24.965 21.6705 25.099 21.5609C25.2269 21.4512 25.3488 21.3233 25.4645 21.1771C25.5924 21.0126 25.7021 20.842 25.7996 20.6532C25.897 20.4704 25.9823 20.2694 26.0493 20.0622C26.1224 19.8551 26.1712 19.6419 26.2077 19.4348L26.1895 19.447ZM27.0667 19.6297L26.5062 21.9629H27.2495L27.353 21.4817C27.3957 21.2685 27.4444 21.0796 27.481 20.9151C27.5236 20.7506 27.5602 20.6105 27.6028 20.4887C27.6394 20.3729 27.682 20.2572 27.7246 20.1536C27.7673 20.0501 27.816 19.9465 27.8648 19.8551C27.9196 19.7516 27.9805 19.6541 28.0414 19.5688C28.1023 19.4835 28.1633 19.4043 28.2303 19.3373C28.2973 19.2703 28.3582 19.2215 28.413 19.185C28.474 19.1484 28.5288 19.1302 28.5836 19.1302C28.6141 19.1302 28.6445 19.1363 28.675 19.1484C28.675 19.1484 28.7237 19.1789 28.7481 19.2033C28.7481 19.2033 28.7846 19.2581 28.7907 19.2886C28.7968 19.319 28.8029 19.3556 28.8029 19.386C28.8029 19.4043 28.8029 19.4287 28.7968 19.4591C28.7968 19.4896 28.7846 19.5201 28.7786 19.5627C28.7725 19.5993 28.7603 19.648 28.7481 19.6967C28.7359 19.7516 28.7237 19.8003 28.7115 19.849L28.4009 20.9821C28.3887 21.0248 28.3765 21.0735 28.3704 21.1162C28.3582 21.1649 28.3521 21.2075 28.346 21.2563C28.3399 21.305 28.3338 21.3477 28.3277 21.3903C28.3277 21.4269 28.3277 21.4634 28.3277 21.506C28.3277 21.6035 28.3399 21.6827 28.3582 21.7558C28.3765 21.8228 28.413 21.8837 28.4496 21.9325C28.4922 21.9812 28.541 22.0117 28.5958 22.036C28.6567 22.0604 28.7237 22.0726 28.809 22.0726C28.9004 22.0726 28.9979 22.0482 29.0832 22.0056C29.1745 21.9569 29.2659 21.8898 29.3573 21.7985C29.4487 21.701 29.5401 21.5852 29.6253 21.439C29.7106 21.305 29.7898 21.1405 29.8751 20.9578L29.7715 20.8603C29.7228 20.9578 29.6802 21.0491 29.6314 21.1283C29.5766 21.2258 29.5279 21.3111 29.4791 21.3781C29.4304 21.4512 29.3817 21.5 29.3451 21.5365C29.2964 21.5791 29.2476 21.6035 29.205 21.6035C29.1806 21.6035 29.1624 21.6035 29.1441 21.5913C29.1441 21.5913 29.1075 21.567 29.0953 21.5487C29.0832 21.5304 29.0771 21.5121 29.071 21.4878C29.071 21.4878 29.0649 21.4451 29.0649 21.4208C29.0649 21.4086 29.0649 21.3964 29.0649 21.3842C29.0649 21.372 29.0649 21.3537 29.0649 21.3477C29.0649 21.3477 29.0649 21.3233 29.0649 21.3111C29.0649 21.2989 29.0649 21.2806 29.071 21.2745L29.3999 19.9587C29.4182 19.8856 29.4304 19.8247 29.4487 19.7637C29.4609 19.7028 29.473 19.648 29.4791 19.5993C29.4852 19.5505 29.4913 19.5018 29.4974 19.4652C29.4974 19.4226 29.4974 19.386 29.4974 19.3556C29.4974 19.2398 29.4852 19.1424 29.4609 19.051C29.4365 18.9657 29.3999 18.8926 29.3573 18.8378C29.3086 18.7829 29.2537 18.7403 29.1928 18.7098C29.1258 18.6794 29.0466 18.6672 28.9613 18.6672C28.876 18.6672 28.7907 18.6855 28.7055 18.722C28.6141 18.7586 28.5288 18.8195 28.4374 18.8926C28.346 18.9718 28.2546 19.0692 28.1572 19.185C28.0658 19.3007 27.9683 19.4409 27.8708 19.5993L27.7064 19.8673L27.7612 19.5566L27.9196 18.6855L26.7134 18.7403L26.6707 18.9657H26.8779C26.9144 18.9657 26.951 18.9718 26.9814 18.984C27.0119 18.9961 27.0423 19.0205 27.0667 19.0449C27.0667 19.0449 27.1093 19.1058 27.1154 19.1363C27.1276 19.1728 27.1337 19.2094 27.1337 19.2459C27.1337 19.2642 27.1337 19.2886 27.1337 19.3129C27.1337 19.3373 27.1337 19.3678 27.1215 19.3921C27.1215 19.4226 27.1094 19.453 27.1033 19.4896C27.0972 19.5201 27.085 19.5627 27.0728 19.6114L27.0667 19.6297ZM31.5443 20.2998C31.4103 20.3729 31.258 20.4278 31.0874 20.4582L31.0021 20.4765L31.0204 20.3912C31.0631 20.1536 31.1179 19.9465 31.1727 19.7637C31.2336 19.581 31.2945 19.4165 31.3677 19.2825C31.4408 19.1484 31.52 19.0449 31.5991 18.9718C31.6844 18.8987 31.7758 18.8621 31.8733 18.8621C31.922 18.8621 31.9708 18.8743 32.0134 18.8926C32.056 18.9109 32.0926 18.9413 32.1231 18.984C32.1535 19.0205 32.1779 19.0632 32.1962 19.1119C32.2144 19.1606 32.2205 19.2094 32.2205 19.2703C32.2205 19.4104 32.1962 19.5505 32.1413 19.6724C32.0865 19.8003 32.0134 19.916 31.9098 20.0257C31.8063 20.1353 31.6844 20.2267 31.5504 20.2998H31.5443ZM32.4764 21.3659L32.3728 21.2258C32.3058 21.305 32.2388 21.3781 32.1718 21.439C32.0926 21.5182 32.0195 21.5791 31.9464 21.6279C31.8733 21.6766 31.8063 21.7132 31.7332 21.7375C31.6601 21.7619 31.5931 21.7741 31.526 21.7741C31.4408 21.7741 31.3616 21.7558 31.2945 21.7193C31.2275 21.6827 31.1666 21.6279 31.1179 21.5548C31.0691 21.4817 31.0326 21.4025 31.0082 21.305C30.9839 21.2136 30.9717 21.1101 30.9717 20.9943C30.9717 20.976 30.9717 20.9517 30.9717 20.9273C30.9717 20.9029 30.9717 20.8786 30.9717 20.8542C30.9717 20.8298 30.9717 20.8055 30.9778 20.7811C30.9778 20.7506 30.9778 20.7263 30.9839 20.7019V20.6532H31.0387C31.3189 20.6288 31.5687 20.5801 31.7819 20.5131C31.9951 20.446 32.1718 20.3608 32.318 20.2511C32.4642 20.1475 32.5678 20.0257 32.6409 19.8856C32.714 19.7455 32.7444 19.5932 32.7444 19.4226C32.7444 19.3068 32.7262 19.1972 32.6835 19.1058C32.647 19.0144 32.586 18.9291 32.5069 18.856C32.4277 18.7829 32.3363 18.7281 32.2327 18.6915C32.1291 18.655 32.0073 18.6367 31.8733 18.6367C31.7697 18.6367 31.6722 18.6489 31.5687 18.6733C31.4712 18.6976 31.3737 18.7342 31.2763 18.7829C31.1788 18.8317 31.0874 18.8926 31.0021 18.9596C30.9168 19.0266 30.8316 19.1119 30.7463 19.2033C30.6549 19.3007 30.5818 19.4165 30.5087 19.5322C30.4417 19.648 30.3807 19.7759 30.3259 19.916C30.2772 20.0562 30.2345 20.1902 30.2102 20.3303C30.1858 20.4704 30.1736 20.6044 30.1736 20.7445C30.1736 20.9456 30.198 21.1222 30.2528 21.2867C30.3016 21.4451 30.3807 21.5913 30.4843 21.7132C30.5879 21.835 30.7036 21.9264 30.8316 21.9934C30.9595 22.0543 31.1118 22.0848 31.2702 22.0848C31.3798 22.0848 31.4895 22.0726 31.5931 22.0421C31.6966 22.0117 31.8002 21.969 31.8977 21.9081C31.9951 21.8472 32.0926 21.768 32.1901 21.6766C32.2814 21.5913 32.3667 21.4878 32.452 21.3781L32.4764 21.3659ZM34.7061 21.969H34.8401L35.1569 21.5121L35.2056 21.4451L35.2543 21.5121C35.3274 21.6096 35.4066 21.6949 35.4919 21.768C35.5772 21.8411 35.6686 21.902 35.76 21.9508C35.8574 21.9995 35.961 22.036 36.0707 22.0604C36.1803 22.0848 36.2961 22.097 36.424 22.097C36.887 22.097 37.2647 21.9386 37.5449 21.6279C37.685 21.4695 37.7947 21.2867 37.8678 21.0857C37.9409 20.8786 37.9775 20.6471 37.9775 20.3851C37.9775 20.2145 37.9592 20.0622 37.9226 19.9221C37.8861 19.7881 37.8373 19.6663 37.7703 19.5627C37.7033 19.4591 37.6058 19.3556 37.4718 19.2581C37.3378 19.1545 37.1733 19.0571 36.9845 18.9596C36.9845 18.9596 36.9235 18.9291 36.8809 18.9109C36.8322 18.8865 36.7834 18.8682 36.7408 18.8438C36.4606 18.7098 36.2534 18.5697 36.1133 18.4235C35.9671 18.2712 35.894 18.1067 35.894 17.9361C35.894 17.8143 35.9123 17.6986 35.9488 17.5889C35.9854 17.4853 36.0402 17.3879 36.1133 17.3087C36.1864 17.2234 36.2717 17.1625 36.3692 17.1198C36.4666 17.0772 36.5702 17.0589 36.686 17.0589C36.8748 17.0589 37.0393 17.0954 37.1855 17.1686C37.3317 17.2417 37.4535 17.3513 37.551 17.4914C37.6485 17.6315 37.7216 17.8082 37.7764 18.0153C37.8252 18.2103 37.8495 18.4357 37.8617 18.6855L38.0445 18.7159L38.2577 16.9858H38.1115L37.8434 17.3391L37.8008 17.394L37.7521 17.3391C37.6729 17.2477 37.5876 17.1685 37.5023 17.1015C37.417 17.0345 37.3317 16.9797 37.2464 16.9371C37.1611 16.8944 37.0637 16.864 36.9662 16.8396C36.8687 16.8213 36.7591 16.8091 36.6494 16.8091C36.4423 16.8091 36.2534 16.8457 36.0889 16.9188C35.9245 16.9919 35.7722 17.1015 35.6442 17.2477C35.5163 17.394 35.4127 17.5645 35.3518 17.7473C35.2848 17.9361 35.2543 18.1372 35.2543 18.3687C35.2543 18.5636 35.2726 18.7342 35.3153 18.8926C35.3579 19.0449 35.4188 19.185 35.5041 19.3007C35.5894 19.4165 35.7051 19.5322 35.8514 19.6358C36.0037 19.7455 36.1803 19.8429 36.3935 19.9343L36.4423 19.9587C36.7286 20.0805 36.9418 20.2206 37.088 20.3729C37.2403 20.5313 37.3134 20.708 37.3134 20.9029C37.3134 21.0431 37.2952 21.1649 37.2525 21.2745C37.2099 21.3842 37.1489 21.4817 37.0637 21.5609C36.9784 21.6401 36.8809 21.701 36.7652 21.7436C36.6494 21.7863 36.5215 21.8046 36.3814 21.8046C36.1864 21.8046 36.0158 21.768 35.8635 21.6888C35.7112 21.6096 35.5772 21.4939 35.4615 21.3355C35.3518 21.1771 35.2665 21.0004 35.2117 20.7872C35.1569 20.5801 35.1325 20.3486 35.1264 20.0927L34.968 20.0562L34.7122 21.9447L34.7061 21.969ZM39.8416 21.4451C39.9269 21.305 40.0061 21.1466 40.0914 20.9639L39.9878 20.8603C39.9391 20.9578 39.8903 21.0491 39.8477 21.1283C39.7929 21.2258 39.7441 21.3111 39.6954 21.3842C39.6467 21.4573 39.5979 21.506 39.5614 21.5426C39.5126 21.5852 39.4639 21.6096 39.4213 21.6096C39.3969 21.6096 39.3786 21.6096 39.3603 21.5974C39.3603 21.5974 39.3238 21.5731 39.3116 21.5548C39.3116 21.5548 39.2933 21.5182 39.2872 21.4939C39.2872 21.4939 39.2811 21.4512 39.2811 21.4268C39.2811 21.4086 39.2811 21.3903 39.2811 21.372C39.2811 21.3537 39.2811 21.3355 39.2872 21.3111C39.2872 21.3111 39.2933 21.2624 39.2994 21.238C39.3055 21.2075 39.3116 21.1771 39.3238 21.1405L39.8111 19.0997L39.8233 19.0571H40.4508L40.5117 18.7464H39.9025L39.9208 18.6733L40.2254 17.4366H39.5309L39.1959 18.6976L39.1837 18.7403H38.6476L38.5806 19.051H39.0984L39.0801 19.1241L38.6232 20.9882C38.611 21.0491 38.5988 21.104 38.5867 21.1588C38.5745 21.2075 38.5684 21.2563 38.5623 21.2928C38.5501 21.372 38.544 21.4451 38.544 21.5121C38.544 21.6096 38.5562 21.6888 38.5745 21.7619C38.5928 21.8289 38.6293 21.8898 38.6659 21.9386C38.7085 21.9873 38.7572 22.0178 38.8121 22.0421C38.873 22.0665 38.94 22.0787 39.0253 22.0787C39.1228 22.0787 39.2141 22.0543 39.2994 22.0117C39.3908 21.9629 39.4822 21.8959 39.5736 21.8046C39.6649 21.7071 39.7563 21.5913 39.8416 21.4451ZM42.0835 18.8926C42.1383 18.8621 42.2053 18.8438 42.2662 18.8438C42.3393 18.8438 42.4063 18.8621 42.4612 18.8987C42.516 18.9352 42.5708 18.984 42.6074 19.0571C42.65 19.1241 42.6744 19.2033 42.6987 19.2886C42.717 19.3738 42.7292 19.4713 42.7292 19.581C42.7292 19.6784 42.7231 19.7881 42.7109 19.916C42.6987 20.0379 42.6805 20.1719 42.6561 20.3181C42.6317 20.4643 42.6013 20.6044 42.5647 20.7445C42.5343 20.8786 42.4916 21.0126 42.4551 21.1344C42.4185 21.2502 42.3759 21.3537 42.3332 21.439C42.2906 21.5304 42.2419 21.6035 42.1931 21.6644C42.1444 21.7254 42.0895 21.7741 42.0286 21.8046C41.9677 21.835 41.9068 21.8533 41.8398 21.8533C41.7667 21.8533 41.6997 21.835 41.6387 21.7985C41.5839 21.7619 41.5291 21.7132 41.4864 21.6401C41.4438 21.5731 41.4133 21.4939 41.3951 21.4086C41.3768 21.3233 41.3646 21.2258 41.3646 21.1162C41.3646 21.0187 41.3707 20.909 41.3829 20.7872C41.3951 20.6653 41.4194 20.5313 41.4438 20.379C41.4743 20.2328 41.5047 20.0866 41.5352 19.9526C41.5717 19.8186 41.6083 19.6906 41.6509 19.5688C41.6936 19.447 41.7362 19.3373 41.7789 19.2459C41.8215 19.1545 41.8702 19.0814 41.919 19.0205C41.9677 18.9596 42.0164 18.9169 42.0774 18.8865L42.0835 18.8926ZM41.3098 21.9812C41.4438 22.0421 41.6022 22.0726 41.7728 22.0726C41.9982 22.0726 42.2053 22.0239 42.4002 21.9203C42.5952 21.8167 42.7779 21.6644 42.9485 21.4573C43.1191 21.2502 43.2409 21.0248 43.3262 20.7872C43.4115 20.5435 43.4542 20.2876 43.4542 20.0135C43.4542 19.8003 43.4298 19.6114 43.375 19.447C43.3262 19.2825 43.247 19.1363 43.1496 19.0083C43.0521 18.8865 42.9363 18.789 42.8023 18.7281C42.6744 18.6672 42.5282 18.6367 42.3637 18.6367C42.2479 18.6367 42.1322 18.6489 42.0225 18.6794C41.9129 18.7037 41.8032 18.7464 41.6997 18.8012C41.5961 18.856 41.4986 18.923 41.4012 19.0022C41.3098 19.0814 41.2184 19.1728 41.1331 19.2825C41.0539 19.3799 40.9869 19.4835 40.926 19.5932C40.8651 19.7028 40.8102 19.8247 40.7676 19.9465C40.7249 20.0683 40.6945 20.1963 40.6701 20.3181C40.6458 20.4399 40.6397 20.5679 40.6397 20.6897C40.6397 20.9029 40.664 21.0918 40.7188 21.2624C40.7676 21.4329 40.8468 21.5792 40.9503 21.7071C41.0539 21.835 41.1758 21.9264 41.3098 21.9873V21.9812ZM43.1983 23.2423L43.3993 23.224C43.4298 23.224 43.4602 23.2118 43.4846 23.2057C43.509 23.1935 43.5334 23.1752 43.5516 23.157C43.5516 23.157 43.5821 23.1143 43.5943 23.0778C43.6065 23.0473 43.6186 23.0169 43.6247 22.9742L44.3923 19.4896C44.3923 19.4652 44.4045 19.447 44.4045 19.4226C44.4045 19.4226 44.4106 19.3799 44.4167 19.3556C44.4167 19.3556 44.4167 19.3129 44.4167 19.2947C44.4167 19.2764 44.4167 19.2581 44.4167 19.2459C44.4167 19.1972 44.4106 19.1545 44.3923 19.118C44.374 19.0753 44.3497 19.0449 44.3192 19.0266C44.3192 19.0266 44.2339 18.9901 44.1608 18.984C44.106 18.984 44.039 18.9718 43.9598 18.9718L44.0085 18.7342L45.1904 18.6915L45.099 19.1972L45.0503 19.4652L45.2026 19.2398C45.2696 19.1424 45.3366 19.0632 45.4036 18.9901C45.4706 18.923 45.5376 18.8621 45.6107 18.8195C45.6777 18.7768 45.7508 18.7403 45.8239 18.722C45.897 18.6976 45.9762 18.6915 46.0615 18.6915C46.1956 18.6915 46.3174 18.7159 46.427 18.7707C46.5367 18.8256 46.6281 18.9048 46.7073 19.0144C46.7865 19.1241 46.8474 19.252 46.89 19.4043C46.9327 19.5566 46.951 19.7272 46.951 19.9221C46.951 20.0622 46.9388 20.2024 46.9144 20.3425C46.89 20.4826 46.8596 20.6227 46.8108 20.7567C46.7682 20.8908 46.7073 21.0248 46.6464 21.1466C46.5793 21.2685 46.5062 21.3842 46.427 21.4878C46.3479 21.5852 46.2687 21.6705 46.1895 21.7436C46.1042 21.8167 46.0189 21.8777 45.9336 21.9325C45.8483 21.9812 45.7569 22.0239 45.6655 22.0482C45.5742 22.0726 45.4889 22.0848 45.3975 22.0848C45.3244 22.0848 45.2513 22.0787 45.1904 22.0604C45.1295 22.0421 45.0685 22.0178 45.0198 21.9812C44.965 21.9447 44.9223 21.902 44.8797 21.8472C44.837 21.7924 44.8005 21.7254 44.7639 21.6523L44.6908 21.4878L44.6543 21.6644L44.4167 22.7549C44.4167 22.7549 44.4045 22.8097 44.4045 22.8341C44.4045 22.8585 44.3984 22.8828 44.3923 22.9072C44.3923 22.9072 44.3923 22.9498 44.3923 22.9681C44.3923 22.9864 44.3923 23.0047 44.3923 23.023C44.3923 23.0595 44.3923 23.0961 44.4106 23.1204C44.4228 23.1509 44.4411 23.1752 44.4715 23.1935C44.4715 23.1935 44.5324 23.2179 44.5751 23.224C44.6177 23.2301 44.6665 23.2362 44.7274 23.2362H44.8005L44.7639 23.4433H43.1617L43.2044 23.2423H43.1983ZM44.8431 21.3964C44.8614 21.4756 44.8919 21.5426 44.9284 21.5974C44.965 21.6583 45.0137 21.701 45.0685 21.7375C45.1234 21.768 45.1843 21.7863 45.2513 21.7863C45.3183 21.7863 45.3853 21.768 45.4462 21.7375C45.5072 21.7071 45.562 21.6583 45.6168 21.6035C45.6655 21.5426 45.7204 21.4695 45.763 21.3781C45.8118 21.2928 45.8544 21.1893 45.897 21.0674C45.9397 20.9517 45.9823 20.8359 46.0128 20.7141C46.0493 20.5983 46.0737 20.4765 46.0981 20.3547C46.1224 20.2328 46.1407 20.1171 46.1529 20.0135C46.1651 19.9039 46.1712 19.8064 46.1712 19.715C46.1712 19.6236 46.1651 19.5322 46.1468 19.4591C46.1285 19.3799 46.0981 19.3129 46.0615 19.2581C46.025 19.1972 45.9762 19.1545 45.9214 19.1241C45.8666 19.0936 45.8057 19.0753 45.7387 19.0753C45.6777 19.0753 45.6168 19.0936 45.5559 19.1241C45.5011 19.1545 45.4401 19.2033 45.3853 19.2642C45.3305 19.3251 45.2818 19.3982 45.233 19.4835C45.1843 19.5688 45.1416 19.6602 45.099 19.7698C45.0563 19.8856 45.0137 20.0074 44.9832 20.1232C44.9467 20.245 44.9162 20.3668 44.8919 20.4948C44.8675 20.6227 44.8431 20.7385 44.8309 20.842C44.8188 20.9517 44.8127 21.0431 44.8127 21.1283C44.8127 21.2197 44.8188 21.305 44.837 21.3781L44.8431 21.3964ZM48.8821 21.7132L48.8456 21.9629H52.2875L52.6348 20.2389L52.4703 20.1902C52.3546 20.4582 52.2388 20.6836 52.1231 20.8725C51.9951 21.0735 51.8672 21.2319 51.7332 21.3477C51.5991 21.4634 51.4468 21.5487 51.2702 21.6096C51.0935 21.6705 50.9047 21.6949 50.6914 21.6949C50.6122 21.6949 50.5513 21.6949 50.4965 21.6827C50.4417 21.6705 50.3929 21.6583 50.3625 21.6401C50.3259 21.6157 50.3016 21.5852 50.2833 21.5426C50.265 21.506 50.2589 21.4634 50.2589 21.4086C50.2589 21.4086 50.2589 21.3659 50.2589 21.3477C50.2589 21.3477 50.2589 21.305 50.265 21.2806C50.265 21.2563 50.2711 21.2319 50.2772 21.2075C50.2772 21.1832 50.2894 21.1527 50.2955 21.1283L51.0387 17.5828C51.0509 17.5219 51.063 17.4731 51.0813 17.4305C51.0996 17.3879 51.1179 17.3513 51.1362 17.3269C51.1362 17.3269 51.1788 17.2782 51.2093 17.266C51.2397 17.2538 51.2702 17.2417 51.3067 17.2356L51.6357 17.2051L51.6783 16.9614H49.7289L49.6863 17.2051L49.9238 17.2295C49.9665 17.2295 49.997 17.2417 50.0274 17.2538C50.0579 17.266 50.0883 17.2843 50.1066 17.3026C50.1493 17.3452 50.1736 17.4061 50.1736 17.4853C50.1736 17.4975 50.1736 17.5097 50.1736 17.5219C50.1736 17.5341 50.1736 17.5463 50.1736 17.5584C50.1736 17.5706 50.1736 17.5828 50.1736 17.6011C50.1736 17.6133 50.1736 17.6315 50.1675 17.6437L49.3938 21.3477C49.3817 21.4086 49.3695 21.4573 49.3512 21.5C49.3329 21.5487 49.3146 21.5791 49.2964 21.6035C49.2781 21.6279 49.2476 21.6462 49.2172 21.6644C49.2172 21.6644 49.1563 21.6888 49.1197 21.6888L48.876 21.7193L48.8821 21.7132ZM54.2674 18.8926C54.3223 18.8621 54.3893 18.8438 54.4502 18.8438C54.5233 18.8438 54.5903 18.8621 54.6451 18.8987C54.7 18.9352 54.7548 18.984 54.7913 19.0571C54.834 19.1241 54.8584 19.2033 54.8827 19.2886C54.901 19.3738 54.9132 19.4713 54.9132 19.581C54.9132 19.6784 54.9071 19.7881 54.8949 19.916C54.8827 20.0379 54.8644 20.1719 54.8401 20.3181C54.8157 20.4643 54.7853 20.6044 54.7487 20.7445C54.7182 20.8786 54.6756 21.0126 54.639 21.1344C54.6025 21.2502 54.5598 21.3537 54.5172 21.439C54.4746 21.5304 54.4258 21.6035 54.3771 21.6644C54.3284 21.7254 54.2735 21.7741 54.2126 21.8046C54.1517 21.835 54.0908 21.8533 54.0238 21.8533C53.9507 21.8533 53.8836 21.835 53.8227 21.7985C53.7679 21.7619 53.7131 21.7132 53.6704 21.6401C53.6278 21.5731 53.5973 21.4939 53.579 21.4086C53.5608 21.3233 53.5486 21.2258 53.5486 21.1162C53.5486 21.0187 53.5547 20.909 53.5669 20.7872C53.579 20.6653 53.6034 20.5313 53.6278 20.379C53.6521 20.2328 53.6887 20.0866 53.7192 19.9526C53.7557 19.8186 53.7923 19.6906 53.8349 19.5688C53.8776 19.447 53.9202 19.3373 53.9628 19.2459C54.0055 19.1545 54.0542 19.0814 54.103 19.0205C54.1517 18.9596 54.2004 18.9169 54.2613 18.8865L54.2674 18.8926ZM53.4938 21.9812C53.6278 22.0421 53.7862 22.0726 53.9567 22.0726C54.1821 22.0726 54.3893 22.0239 54.5842 21.9203C54.7792 21.8167 54.9619 21.6644 55.1325 21.4573C55.3031 21.2502 55.4249 21.0248 55.5102 20.7872C55.5955 20.5435 55.6381 20.2876 55.6381 20.0135C55.6381 19.8003 55.6138 19.6114 55.5589 19.447C55.5102 19.2825 55.431 19.1363 55.3335 19.0083C55.2361 18.8865 55.1203 18.789 54.9863 18.7281C54.8584 18.6672 54.7122 18.6367 54.5477 18.6367C54.4319 18.6367 54.3162 18.6489 54.2065 18.6794C54.0969 18.7037 53.9872 18.7464 53.8836 18.8012C53.7801 18.856 53.6826 18.923 53.5851 19.0022C53.4938 19.0814 53.4024 19.1728 53.3171 19.2825C53.2379 19.3799 53.1709 19.4835 53.11 19.5932C53.049 19.7028 52.9942 19.8247 52.9516 19.9465C52.9089 20.0683 52.8785 20.1963 52.8541 20.3181C52.8297 20.4399 52.8236 20.5679 52.8236 20.6897C52.8236 20.9029 52.848 21.0918 52.9028 21.2624C52.9516 21.4329 53.0308 21.5792 53.1343 21.7071C53.2379 21.835 53.3597 21.9264 53.4938 21.9873V21.9812ZM60.1949 17.1625C60.1767 17.2295 60.1645 17.2965 60.1645 17.3757C60.1645 17.4549 60.1767 17.5219 60.1949 17.5889C60.2132 17.6559 60.2437 17.7107 60.2863 17.7656C60.3229 17.8204 60.3716 17.8569 60.4143 17.8813C60.4569 17.9057 60.5117 17.9179 60.5605 17.9179C60.6092 17.9179 60.6579 17.9057 60.7067 17.8813C60.7554 17.8569 60.798 17.8143 60.8346 17.7656C60.8772 17.7107 60.9077 17.6559 60.926 17.5889C60.9443 17.5219 60.9564 17.4549 60.9564 17.3818C60.9564 17.3087 60.9443 17.2356 60.926 17.1686C60.9077 17.1076 60.8772 17.0467 60.8346 16.998C60.792 16.9431 60.7493 16.9066 60.7067 16.8822C60.664 16.8579 60.6153 16.8457 60.5605 16.8457C60.5056 16.8457 60.4569 16.8579 60.4143 16.8822C60.3655 16.9066 60.3229 16.9431 60.2863 16.998C60.2437 17.0528 60.2132 17.1076 60.1949 17.1746V17.1625ZM60.1462 21.3355C60.1462 21.3355 60.1523 21.305 60.1584 21.2867L60.7615 18.6976L59.4761 18.7525L59.4274 18.9779H59.6284C59.6649 18.9779 59.7015 18.984 59.732 18.9961C59.7624 19.0083 59.7929 19.0327 59.8172 19.0571C59.8172 19.0571 59.8599 19.118 59.866 19.1484C59.8782 19.185 59.8843 19.2216 59.8843 19.2581C59.8843 19.2764 59.8843 19.3007 59.8843 19.3251C59.8843 19.3495 59.8843 19.3739 59.8721 19.3982C59.8721 19.4226 59.8599 19.4591 59.8538 19.4957C59.8477 19.5322 59.8355 19.5749 59.8233 19.6236L59.4822 20.9882C59.47 21.0491 59.4517 21.104 59.4456 21.1588C59.4334 21.2075 59.4273 21.2563 59.4213 21.2928C59.4213 21.3294 59.4091 21.372 59.4091 21.4086C59.4091 21.4451 59.4091 21.4756 59.4091 21.5121C59.4091 21.6096 59.4213 21.6888 59.4395 21.7619C59.4578 21.8289 59.4944 21.8898 59.5309 21.9386C59.5736 21.9873 59.6223 22.0178 59.6832 22.0421C59.7441 22.0665 59.8172 22.0787 59.8964 22.0787C59.9878 22.0787 60.0792 22.0543 60.1706 22.0117C60.262 21.9629 60.3533 21.8959 60.4386 21.8046C60.53 21.7071 60.6214 21.5913 60.7067 21.4451C60.792 21.305 60.8772 21.1466 60.9564 20.9639L60.8529 20.8603C60.8102 20.9578 60.7615 21.0431 60.7188 21.1222C60.664 21.2197 60.6092 21.3111 60.5605 21.3842C60.5117 21.4573 60.463 21.5182 60.4203 21.5548C60.3716 21.6035 60.3229 21.6218 60.2802 21.6218C60.2559 21.6218 60.2315 21.6218 60.2132 21.6096C60.2132 21.6096 60.1767 21.5852 60.1645 21.567C60.1523 21.5487 60.1401 21.5304 60.1401 21.506C60.1401 21.4817 60.134 21.4634 60.134 21.4329C60.134 21.4268 60.134 21.4147 60.134 21.4025C60.134 21.4025 60.134 21.3842 60.134 21.372C60.134 21.372 60.134 21.3416 60.1401 21.3294L60.1462 21.3355ZM62.2967 19.6724C62.1992 19.5688 62.1505 19.4591 62.1505 19.3556C62.1505 19.2764 62.1627 19.2094 62.187 19.1484C62.2114 19.0875 62.2479 19.0327 62.2967 18.984C62.3454 18.9352 62.4002 18.9048 62.4673 18.8804C62.5343 18.856 62.6074 18.8438 62.6866 18.8438C62.7414 18.8438 62.7901 18.8438 62.8328 18.856C62.8815 18.8621 62.9241 18.8804 62.9607 18.8987C63.0033 18.9169 63.0338 18.9413 63.0582 18.9657C63.0825 18.9961 63.1008 19.0266 63.1008 19.0693C63.1008 19.0936 63.0947 19.118 63.0765 19.1545C63.0643 19.185 63.046 19.2215 63.0216 19.2703C62.9973 19.3068 62.9851 19.3434 62.9729 19.3799C62.9607 19.4165 62.9546 19.447 62.9546 19.4774C62.9546 19.5261 62.9607 19.5749 62.979 19.6114C62.9912 19.6541 63.0155 19.6906 63.046 19.7272C63.1069 19.7942 63.18 19.8247 63.2653 19.8247C63.314 19.8247 63.3628 19.8125 63.3993 19.7942C63.442 19.7759 63.4724 19.7455 63.509 19.7089C63.5394 19.6663 63.5638 19.6236 63.5821 19.5688C63.6004 19.514 63.6065 19.453 63.6065 19.386C63.6065 19.2764 63.5882 19.1789 63.5455 19.0936C63.5029 19.0083 63.442 18.9291 63.3567 18.8621C63.1861 18.7281 62.9546 18.6611 62.6683 18.6611C62.5099 18.6611 62.3637 18.6855 62.2358 18.7342C62.1078 18.7829 62.0043 18.8499 61.9068 18.9474C61.8154 19.0388 61.7423 19.1484 61.6997 19.2764C61.6509 19.4043 61.6266 19.5505 61.6266 19.7089C61.6266 19.8186 61.6387 19.9221 61.657 20.0135C61.6753 20.1049 61.7118 20.1841 61.7484 20.2511C61.791 20.3242 61.852 20.3912 61.9251 20.4643C62.0043 20.5374 62.1017 20.6044 62.2175 20.6775C62.2175 20.6775 62.254 20.7019 62.2784 20.7141C62.2967 20.7263 62.3271 20.7385 62.3637 20.7567C62.5099 20.842 62.6135 20.9273 62.6866 21.0187C62.7658 21.1162 62.8023 21.2197 62.8023 21.3294C62.8023 21.4147 62.7901 21.4878 62.7658 21.5548C62.7414 21.6218 62.6987 21.6827 62.65 21.7314C62.5952 21.7802 62.5343 21.8167 62.4673 21.8472C62.4002 21.8716 62.321 21.8837 62.2297 21.8837C62.1748 21.8837 62.12 21.8837 62.0713 21.8716C62.0225 21.8594 61.9738 21.8472 61.9372 21.8289C61.8946 21.8106 61.8641 21.7863 61.8398 21.7619C61.8093 21.7314 61.7971 21.6949 61.7971 21.6583C61.7971 21.6401 61.8093 21.6157 61.8337 21.5852C61.8459 21.5609 61.8702 21.5304 61.9007 21.4939C61.9251 21.4634 61.9433 21.4208 61.9616 21.3781C61.9738 21.3355 61.9799 21.2867 61.9799 21.2319C61.9799 21.171 61.9738 21.1162 61.9555 21.0674C61.9372 21.0187 61.9129 20.976 61.8824 20.9395C61.852 20.9029 61.8154 20.8725 61.7789 20.8542C61.7423 20.8359 61.6997 20.8298 61.6509 20.8298C61.6022 20.8298 61.5595 20.842 61.5169 20.8603C61.4804 20.8786 61.4438 20.909 61.4133 20.9517C61.3829 20.9943 61.3585 21.0431 61.3463 21.104C61.328 21.1649 61.322 21.2319 61.322 21.3111C61.322 21.4268 61.3402 21.5304 61.3829 21.6218C61.4255 21.7132 61.4864 21.7985 61.5717 21.8655C61.657 21.9386 61.7545 21.9934 61.8702 22.03C61.986 22.0665 62.1139 22.0848 62.254 22.0848C62.4307 22.0848 62.5891 22.0604 62.7292 22.0117C62.8693 21.9629 62.9912 21.8898 63.1008 21.7863C63.2044 21.6888 63.2897 21.5731 63.3384 21.4451C63.3932 21.3172 63.4176 21.171 63.4176 21.0065C63.4176 20.8968 63.4054 20.7933 63.3811 20.7019C63.3567 20.6105 63.3262 20.5252 63.2775 20.4521C63.2288 20.379 63.1678 20.3059 63.0886 20.2328C63.0094 20.1597 62.9059 20.0927 62.7901 20.0196C62.7901 20.0196 62.7658 20.0074 62.7475 19.9952L62.7048 19.9709C62.5221 19.8673 62.3881 19.7637 62.2967 19.6663V19.6724ZM65.4158 21.4512C65.5011 21.3111 65.5864 21.1527 65.6656 20.9699L65.562 20.8664C65.5132 20.9639 65.4645 21.0552 65.4219 21.1344C65.367 21.2319 65.3183 21.3172 65.2696 21.3903C65.2208 21.4634 65.1721 21.5121 65.1355 21.5487C65.0868 21.5913 65.0381 21.6157 64.9954 21.6157C64.9711 21.6157 64.9528 21.6157 64.9345 21.6035C64.9345 21.6035 64.898 21.5791 64.8858 21.5609C64.8736 21.5426 64.8675 21.5243 64.8614 21.5C64.8614 21.5 64.8553 21.4573 64.8553 21.4329C64.8553 21.4147 64.8553 21.3964 64.8553 21.3781C64.8553 21.3598 64.8553 21.3416 64.8614 21.3172C64.8614 21.2928 64.8675 21.2685 64.8736 21.2441C64.8797 21.2136 64.8858 21.1771 64.898 21.1466L65.3853 19.1058L65.3975 19.0632H66.025L66.0859 18.7525H65.4767L65.495 18.6794L65.7996 17.4427H65.1051L64.77 18.7037L64.7578 18.7464H64.2217L64.1547 19.0571H64.6726L64.6543 19.1302L64.1974 20.9943C64.1852 21.0552 64.173 21.1101 64.1608 21.1649C64.1486 21.2136 64.1426 21.2624 64.1365 21.2989C64.1365 21.3355 64.1304 21.3781 64.1243 21.4147C64.1243 21.4512 64.1243 21.4878 64.1243 21.5182C64.1243 21.6157 64.1365 21.6949 64.1547 21.768C64.173 21.835 64.2096 21.8959 64.2461 21.9447C64.2888 21.9934 64.3375 22.0239 64.3923 22.0482C64.4532 22.0726 64.5203 22.0848 64.6055 22.0848C64.703 22.0848 64.7944 22.0604 64.8797 22.0178C64.9711 21.969 65.0624 21.902 65.1538 21.8106C65.2452 21.7132 65.3366 21.5974 65.4219 21.4512H65.4158ZM67.2129 17.1686C67.1946 17.2356 67.1824 17.3026 67.1824 17.3818C67.1824 17.461 67.1946 17.528 67.2129 17.595C67.2312 17.662 67.2616 17.7168 67.3043 17.7717C67.3408 17.8265 67.3896 17.863 67.4322 17.8874C67.4749 17.9118 67.5297 17.924 67.5784 17.924C67.6272 17.924 67.6759 17.9118 67.7246 17.8874C67.7734 17.863 67.816 17.8204 67.8526 17.7717C67.8952 17.7168 67.9257 17.662 67.9439 17.595C67.9622 17.528 67.9744 17.461 67.9744 17.3879C67.9744 17.3148 67.9622 17.2417 67.9439 17.1746C67.9257 17.1137 67.8952 17.0528 67.8526 17.0041C67.8099 16.9492 67.7673 16.9127 67.7246 16.8883C67.682 16.8639 67.6333 16.8518 67.5784 16.8518C67.5236 16.8518 67.4749 16.8639 67.4322 16.8883C67.3835 16.9127 67.3408 16.9492 67.3043 17.0041C67.2616 17.0589 67.2312 17.1137 67.2129 17.1807V17.1686ZM67.1642 21.3416C67.1642 21.3416 67.1703 21.3111 67.1764 21.2928L67.7795 18.7037L66.4941 18.7586L66.4453 18.984H66.6464C66.6829 18.984 66.7195 18.9901 66.7499 19.0022C66.7804 19.0144 66.8108 19.0388 66.8352 19.0632C66.8352 19.0632 66.8778 19.1241 66.8839 19.1545C66.8961 19.1911 66.9022 19.2276 66.9022 19.2642C66.9022 19.2825 66.9022 19.3068 66.9022 19.3312C66.9022 19.3556 66.9022 19.3799 66.89 19.4043C66.89 19.4287 66.8778 19.4652 66.8718 19.5018C66.8657 19.5383 66.8535 19.581 66.8413 19.6297L66.5002 20.9943C66.488 21.0552 66.4758 21.1101 66.4636 21.1649C66.4514 21.2136 66.4453 21.2624 66.4392 21.2989C66.4392 21.3355 66.427 21.3781 66.427 21.4147C66.427 21.4512 66.427 21.4817 66.427 21.5182C66.427 21.6157 66.4392 21.6949 66.4575 21.768C66.4758 21.835 66.5123 21.8959 66.5489 21.9447C66.5915 21.9934 66.6403 22.0239 66.7012 22.0482C66.7621 22.0726 66.8352 22.0848 66.9144 22.0848C67.0058 22.0848 67.0972 22.0604 67.1885 22.0178C67.2799 21.969 67.3713 21.902 67.4566 21.8106C67.548 21.7132 67.6394 21.5974 67.7246 21.4512C67.8099 21.3111 67.8952 21.1527 67.9744 20.9699L67.8708 20.8664C67.8282 20.9639 67.7795 21.0491 67.7368 21.1283C67.682 21.2258 67.6272 21.3172 67.5784 21.3903C67.5297 21.4634 67.481 21.5243 67.4383 21.5609C67.3896 21.6096 67.3408 21.6279 67.2982 21.6279C67.2738 21.6279 67.2495 21.6279 67.2312 21.6157C67.2129 21.6035 67.1946 21.5913 67.1824 21.5731C67.1703 21.5548 67.1581 21.5365 67.1581 21.5121C67.1581 21.4878 67.152 21.4695 67.152 21.439C67.152 21.4329 67.152 21.4208 67.152 21.4086C67.152 21.4086 67.152 21.3903 67.152 21.3781C67.152 21.3781 67.152 21.3537 67.1581 21.3355L67.1642 21.3416ZM70.6244 21.2075L70.527 21.0979C70.4782 21.1832 70.4295 21.2563 70.3746 21.3233C70.3076 21.4086 70.2345 21.4878 70.1553 21.5548C70.0761 21.6218 70.003 21.6705 69.9238 21.701C69.8446 21.7375 69.7655 21.7497 69.6924 21.7497C69.5949 21.7497 69.5096 21.7314 69.4365 21.6949C69.3634 21.6583 69.2964 21.6096 69.2476 21.5365C69.1989 21.4695 69.1623 21.3842 69.138 21.2867C69.1136 21.1893 69.1014 21.0796 69.1014 20.9578C69.1014 20.8481 69.1075 20.7263 69.1258 20.5983C69.138 20.4704 69.1624 20.3364 69.1928 20.1902C69.2233 20.0501 69.2598 19.916 69.2964 19.7881C69.3329 19.6602 69.3756 19.5444 69.4243 19.4409C69.4669 19.3434 69.5157 19.252 69.5644 19.1789C69.6132 19.1058 69.668 19.0388 69.7228 18.9901C69.7776 18.9352 69.8386 18.8987 69.8995 18.8743C69.9604 18.8499 70.0274 18.8317 70.0944 18.8317C70.131 18.8317 70.1675 18.8317 70.2041 18.8438C70.2406 18.856 70.2711 18.8682 70.2955 18.8926C70.2955 18.8926 70.3442 18.9413 70.3625 18.9657C70.3807 18.9961 70.3868 19.0266 70.3868 19.0632C70.3868 19.0936 70.3686 19.1302 70.3442 19.1789C70.3198 19.2155 70.2833 19.2642 70.2284 19.319C70.1432 19.4104 70.1005 19.5322 70.1005 19.6663C70.1005 19.7333 70.1066 19.7942 70.1249 19.849C70.1432 19.9039 70.1675 19.9465 70.198 19.9891C70.2285 20.0257 70.265 20.0562 70.3076 20.0744C70.3503 20.0927 70.3929 20.1049 70.4478 20.1049C70.5148 20.1049 70.5757 20.0927 70.6244 20.0622C70.6793 20.0379 70.728 19.9952 70.7706 19.9343C70.8133 19.8795 70.8437 19.8125 70.8681 19.7333C70.8925 19.6541 70.8986 19.5688 70.8986 19.4713C70.8986 19.3434 70.8803 19.2215 70.8376 19.1241C70.8011 19.0205 70.7402 18.9352 70.661 18.8621C70.5818 18.789 70.4904 18.7342 70.3807 18.6915C70.2711 18.655 70.1432 18.6367 70.003 18.6367C69.8995 18.6367 69.7959 18.6489 69.6924 18.6794C69.5888 18.7098 69.4852 18.7525 69.3817 18.8073C69.2781 18.8621 69.1806 18.9352 69.0892 19.0144C68.9979 19.0936 68.9126 19.185 68.8395 19.2825C68.7664 19.3799 68.6994 19.4896 68.6384 19.5993C68.5775 19.715 68.5288 19.8368 68.4861 19.9648C68.4008 20.2206 68.3582 20.4826 68.3582 20.7445C68.3582 20.9456 68.3826 21.1283 68.4313 21.2928C68.48 21.4512 68.5531 21.5913 68.6506 21.7132C68.7481 21.835 68.8577 21.9264 68.9857 21.9812C69.1136 22.0421 69.2598 22.0726 69.4182 22.0726C69.5401 22.0726 69.6558 22.0543 69.7715 22.0178C69.8873 21.9812 69.9909 21.9203 70.0944 21.8472C70.198 21.768 70.2955 21.6766 70.3868 21.5609C70.4721 21.4573 70.5452 21.3355 70.6183 21.1954L70.6244 21.2075ZM72.0926 19.6724C71.9951 19.5688 71.9464 19.4591 71.9464 19.3556C71.9464 19.2764 71.9586 19.2094 71.9829 19.1484C72.0073 19.0875 72.0439 19.0327 72.0926 18.984C72.1413 18.9352 72.1962 18.9048 72.2632 18.8804C72.3302 18.856 72.4033 18.8438 72.4825 18.8438C72.5373 18.8438 72.586 18.8438 72.6287 18.856C72.6774 18.8621 72.7201 18.8804 72.7566 18.8987C72.7993 18.9169 72.8297 18.9413 72.8541 18.9657C72.8785 18.9961 72.8967 19.0266 72.8967 19.0693C72.8967 19.0936 72.8906 19.118 72.8724 19.1545C72.8602 19.185 72.8419 19.2215 72.8175 19.2703C72.7932 19.3068 72.781 19.3434 72.7688 19.3799C72.7566 19.4165 72.7505 19.447 72.7505 19.4774C72.7505 19.5261 72.7566 19.5749 72.7749 19.6114C72.7871 19.6541 72.8115 19.6906 72.8419 19.7272C72.9028 19.7942 72.9759 19.8247 73.0612 19.8247C73.11 19.8247 73.1587 19.8125 73.1952 19.7942C73.2379 19.7759 73.2683 19.7455 73.3049 19.7089C73.3354 19.6663 73.3597 19.6236 73.378 19.5688C73.3963 19.514 73.4024 19.453 73.4024 19.386C73.4024 19.2764 73.3841 19.1789 73.3415 19.0936C73.2988 19.0083 73.2379 18.9291 73.1526 18.8621C72.982 18.7281 72.7505 18.6611 72.4642 18.6611C72.3058 18.6611 72.1596 18.6855 72.0317 18.7342C71.9037 18.7829 71.8002 18.8499 71.7027 18.9474C71.6113 19.0388 71.5382 19.1484 71.4956 19.2764C71.4468 19.4043 71.4225 19.5505 71.4225 19.7089C71.4225 19.8186 71.4347 19.9221 71.4529 20.0135C71.4712 20.1049 71.5078 20.1841 71.5443 20.2511C71.587 20.3242 71.6479 20.3912 71.721 20.4643C71.8002 20.5374 71.8976 20.6044 72.0134 20.6775C72.0134 20.6775 72.0499 20.7019 72.0743 20.7141C72.0926 20.7263 72.1231 20.7385 72.1596 20.7567C72.3058 20.842 72.4094 20.9273 72.4825 21.0187C72.5617 21.1162 72.5982 21.2197 72.5982 21.3294C72.5982 21.4147 72.586 21.4878 72.5617 21.5548C72.5373 21.6218 72.4947 21.6827 72.4459 21.7314C72.3911 21.7802 72.3302 21.8167 72.2632 21.8472C72.1962 21.8716 72.117 21.8837 72.0256 21.8837C71.9708 21.8837 71.9159 21.8837 71.8672 21.8716C71.8185 21.8594 71.7697 21.8472 71.7332 21.8289C71.6905 21.8106 71.654 21.7863 71.6357 21.7619C71.6052 21.7314 71.593 21.6949 71.593 21.6583C71.593 21.6401 71.6052 21.6157 71.6296 21.5852C71.6418 21.5609 71.6662 21.5304 71.6966 21.4939C71.721 21.4634 71.7393 21.4208 71.7575 21.3781C71.7697 21.3355 71.7758 21.2867 71.7758 21.2319C71.7758 21.171 71.7697 21.1162 71.7514 21.0674C71.7332 21.0187 71.7088 20.976 71.6783 20.9395C71.6479 20.9029 71.6113 20.8725 71.5748 20.8542C71.5382 20.8359 71.4956 20.8298 71.4468 20.8298C71.3981 20.8298 71.3555 20.842 71.3128 20.8603C71.2763 20.8786 71.2397 20.909 71.2093 20.9517C71.1788 20.9943 71.1544 21.0431 71.1422 21.104C71.124 21.1649 71.1179 21.2319 71.1179 21.3111C71.1179 21.4268 71.1362 21.5304 71.1788 21.6218C71.2214 21.7132 71.2824 21.7985 71.3676 21.8655C71.4529 21.9386 71.5504 21.9934 71.6662 22.03C71.7819 22.0665 71.9098 22.0848 72.0499 22.0848C72.2266 22.0848 72.385 22.0604 72.5251 22.0117C72.6652 21.9629 72.7871 21.8898 72.8967 21.7863C73.0003 21.6888 73.0856 21.5731 73.1343 21.4451C73.1892 21.3172 73.2135 21.171 73.2135 21.0065C73.2135 20.8968 73.2013 20.7933 73.177 20.7019C73.1526 20.6105 73.1221 20.5252 73.0734 20.4521C73.0308 20.379 72.9637 20.3059 72.8846 20.2328C72.8054 20.1597 72.7018 20.0927 72.586 20.0196C72.586 20.0196 72.5617 20.0074 72.5434 19.9952L72.5008 19.9709C72.318 19.8673 72.184 19.7637 72.0926 19.6663V19.6724ZM57.4353 18.8682C58.4892 18.1555 57.7947 21.5182 57.0758 21.8959C56.1925 22.365 56.5154 20.842 56.6433 20.3608C56.8139 19.7272 56.9784 19.1728 57.4353 18.8682ZM55.9854 23.3519C57.0454 23.4799 57.3743 22.7975 57.4596 21.8655C56.4788 22.7427 55.6991 21.8837 55.894 20.4826C56.0341 19.4896 56.8322 18.3321 57.8861 18.5392C57.9835 18.6976 58.1663 18.9352 58.1602 19.1972C58.4526 18.5514 58.1602 18.4905 58.9705 18.6002C58.8182 19.4104 58.0567 22.5417 57.6607 23.0047C57.3378 23.3885 56.223 23.9611 55.6077 23.3885C55.3396 23.1387 55.2604 22.56 55.7661 22.5173C56.3692 22.4625 56.028 23.1204 55.9793 23.358L55.9854 23.3519Z" fill="black"/>
<path fill-rule="evenodd" clip-rule="evenodd" d="M34.6451 43.3885H34.5842C18.0932 43.3885 0.609197 34.1774 0.18885 23.0717H9.44867C10.2894 33.8058 22.9485 42.0665 34.6451 42.0665V43.3885Z" fill="#B59A28"/>
<path fill-rule="evenodd" clip-rule="evenodd" d="M66.1957 30.7232C62.2908 37.5767 50.996 43.3702 34.6451 43.3885V42.0665C46.2687 42.0665 53.1771 37.5706 57.2405 30.7232H50.9536L62.9426 23.0717L72.9578 30.7232H66.1957Z" fill="black"/>
</g>
<defs>
<clipPath id="clip0_1801_11370">
<rect width="80" height="43.3885" fill="white"/>
</clipPath>
</defs>
</svg>
