<svg width="80" height="61" viewBox="0 0 80 61" fill="none" xmlns="http://www.w3.org/2000/svg">
<g clip-path="url(#clip0_1801_11263)">
<path fill-rule="evenodd" clip-rule="evenodd" d="M5.26141 52.3339H8.91449L9.17008 51.0809H4.20164L2.6681 58.6489H7.63654L7.89213 57.3958H4.23905L4.63178 55.4571H7.76745L8.02304 54.2041H4.88738L5.26764 52.3276L5.26141 52.3339ZM11.7135 58.6489L10.9218 56.7413L9.44438 58.6489H8.07291L10.4854 55.7064L9.33217 52.9448H10.7036L11.4205 54.6778L12.7733 52.9448H14.1323L11.832 55.6753L13.0725 58.6489H11.7135ZM14.8679 52.9448L13.3655 60.3569H14.6185L15.0861 58.0629C15.3354 58.5179 15.7718 58.7424 16.4014 58.7424C16.8004 58.7424 17.1744 58.6426 17.5235 58.4369C17.8726 58.2312 18.1781 57.9319 18.4399 57.533C18.7018 57.134 18.8825 56.6602 18.9948 56.1116L19.1381 55.401C19.3065 54.5719 19.2503 53.9422 18.9698 53.5059C18.6893 53.0695 18.2342 52.8451 17.6108 52.8451C16.9874 52.8451 16.4575 53.0944 15.9651 53.5931L16.096 52.9448H14.8679ZM17.2368 57.1652C16.9999 57.4083 16.7007 57.533 16.3453 57.533C15.99 57.533 15.7344 57.4083 15.5723 57.1652C15.4165 56.922 15.3791 56.5917 15.4601 56.174L15.6097 55.4508C15.697 55.0145 15.8716 54.6716 16.1209 54.4222C16.3703 54.1791 16.6757 54.0544 17.0311 54.0544C17.7791 54.0544 18.0534 54.5282 17.8664 55.4696L17.748 56.0618C17.6482 56.5543 17.4799 56.922 17.243 57.1652H17.2368ZM20.6218 52.9448L19.4623 58.6489H20.7153L21.3574 55.4883C21.4509 55.0145 21.6379 54.6467 21.906 54.3973C22.1741 54.148 22.5107 54.017 22.9034 54.017C23.1715 54.017 23.4084 54.0669 23.6203 54.1604L23.8822 52.8638C23.7512 52.8326 23.5892 52.8201 23.3959 52.8201C23.078 52.8201 22.7787 52.8825 22.4858 53.0134C22.1928 53.1443 21.9372 53.3313 21.7065 53.5869L21.8374 52.9386H20.6156L20.6218 52.9448ZM24.8983 56.1677V56.1927C24.7113 57.1091 25.0479 57.5641 25.9082 57.5641C26.1949 57.5641 26.4443 57.508 26.6563 57.3896C26.862 57.2712 27.0054 57.1091 27.0739 56.8971L27.0926 56.8659H28.3145L28.302 56.9345C28.1586 57.4831 27.8469 57.9257 27.3607 58.2561C26.8807 58.5865 26.3009 58.7548 25.6214 58.7548C24.8484 58.7548 24.2874 58.5242 23.9445 58.0629C23.5954 57.6016 23.5144 56.9283 23.6951 56.0431L23.7949 55.5506C23.9694 54.6778 24.3248 54.0108 24.8484 53.5495C25.3721 53.0882 26.0142 52.8513 26.7622 52.8513C27.5103 52.8513 28.0589 53.082 28.3955 53.5433C28.7322 54.0046 28.8132 54.6591 28.6386 55.5194L28.5077 56.1802H24.9108L24.8983 56.1677ZM25.0853 55.2327H27.4355L27.4542 55.1579C27.529 54.7776 27.4854 54.4908 27.3108 54.2976C27.1363 54.1043 26.8744 54.0046 26.5191 54.0046C25.7773 54.0046 25.3035 54.416 25.0915 55.2327H25.0853ZM29.4989 58.2312C29.8293 58.5491 30.353 58.7112 31.0636 58.7112C31.7743 58.7112 32.3977 58.5553 32.8777 58.2374C33.364 57.9257 33.6632 57.4706 33.7816 56.8784C33.8751 56.4046 33.8066 56.0306 33.5759 55.7563C33.3453 55.482 32.9338 55.3075 32.3416 55.2327L31.525 55.1204C31.2631 55.0893 31.0823 55.0269 30.9888 54.9334C30.8953 54.8399 30.8642 54.709 30.8953 54.5469C30.9327 54.3474 31.0512 54.1978 31.232 54.0918C31.419 53.9859 31.6808 53.936 32.0237 53.936C32.3852 53.936 32.6471 53.9921 32.8029 54.1106C32.9588 54.229 33.0149 54.3973 32.9712 54.6155V54.6467H34.1245V54.603C34.2429 54.0607 34.1307 53.6368 33.7941 53.3313C33.4575 53.0258 32.9401 52.87 32.2419 52.87C31.5437 52.87 30.9951 53.0258 30.5462 53.3313C30.0974 53.6368 29.8106 54.0731 29.6984 54.6342C29.5987 55.1142 29.6672 55.4882 29.8917 55.7501C30.1161 56.0119 30.5213 56.1802 31.0948 56.2613L31.8491 56.361C32.1359 56.3984 32.3354 56.4607 32.4476 56.5605C32.5598 56.654 32.5972 56.7911 32.5598 56.9657C32.5161 57.1776 32.3915 57.3397 32.1857 57.4457C31.98 57.5579 31.6995 57.6078 31.3379 57.6078C30.9577 57.6078 30.6771 57.5392 30.5088 57.4083C30.3405 57.2774 30.2782 57.0966 30.328 56.8722V56.8472H29.1623V56.8784C29.0376 57.4582 29.1436 57.9008 29.4802 58.2249L29.4989 58.2312ZM34.804 58.2312C35.1344 58.5491 35.658 58.7112 36.3687 58.7112C37.0794 58.7112 37.7028 58.5553 38.1828 58.2374C38.669 57.9257 38.9683 57.4706 39.0867 56.8784C39.1802 56.4046 39.1116 56.0306 38.881 55.7563C38.6503 55.482 38.2389 55.3075 37.6467 55.2327L36.83 55.1204C36.5682 55.0893 36.3874 55.0269 36.2939 54.9334C36.2004 54.8399 36.1692 54.709 36.2004 54.5469C36.2378 54.3474 36.3562 54.1978 36.537 54.0918C36.724 53.9859 36.9859 53.936 37.3287 53.936C37.6903 53.936 37.9521 53.9921 38.108 54.1106C38.2638 54.229 38.3199 54.3973 38.2763 54.6155V54.6467H39.4296V54.603C39.548 54.0607 39.4358 53.6368 39.0992 53.3313C38.7625 53.0258 38.2451 52.87 37.5469 52.87C36.8487 52.87 36.3001 53.0258 35.8513 53.3313C35.4025 53.6368 35.1157 54.0731 35.0035 54.6342C34.9037 55.1142 34.9723 55.4882 35.1967 55.7501C35.4212 56.0119 35.8264 56.1802 36.3999 56.2613L37.1542 56.361C37.4409 56.3984 37.6404 56.4607 37.7526 56.5605C37.8649 56.654 37.9023 56.7911 37.8649 56.9657C37.8212 57.1776 37.6965 57.3397 37.4908 57.4457C37.2851 57.5579 37.0046 57.6078 36.643 57.6078C36.2627 57.6078 35.9822 57.5392 35.8139 57.4083C35.6456 57.2774 35.5832 57.0966 35.6331 56.8722V56.8472H34.4674V56.8784C34.3427 57.4582 34.4487 57.9008 34.7853 58.2249L34.804 58.2312ZM42.8458 57.9319C43.2572 58.4868 43.9242 58.7673 44.8593 58.7673C45.7196 58.7673 46.449 58.5366 47.0474 58.0753C47.6459 57.614 48.0262 56.9657 48.2007 56.1366L48.2132 56.0805H46.904L46.8916 56.1366C46.8043 56.5543 46.6111 56.8784 46.3056 57.1153C46.0001 57.3522 45.6136 57.4706 45.1523 57.4706C44.6037 57.4706 44.2235 57.3023 44.0115 56.9657C43.8058 56.6291 43.7684 56.1116 43.9118 55.4197L44.13 54.335C44.2796 53.6118 44.5227 53.0757 44.8656 52.7204C45.2084 52.3713 45.6573 52.1967 46.2059 52.1967C46.6672 52.1967 47.01 52.3214 47.222 52.5645C47.4339 52.8077 47.4963 53.1443 47.409 53.5682V53.6118H48.7181L48.7368 53.5246C48.8989 52.7142 48.7742 52.0783 48.3628 51.6232C47.9451 51.1681 47.3155 50.9375 46.4614 50.9375C45.5264 50.9375 44.7409 51.218 44.105 51.7728C43.4692 52.3277 43.039 53.1568 42.8146 54.2602L42.5715 55.4446C42.3471 56.548 42.4406 57.3771 42.8458 57.9319ZM49.3665 58.0753C49.6969 58.5242 50.2392 58.7424 50.9873 58.7424C51.7353 58.7424 52.3525 58.5179 52.8637 58.0753C53.3749 57.6265 53.7177 56.9782 53.8923 56.1241L54.0294 55.4446C54.1977 54.603 54.1229 53.9609 53.7925 53.5121C53.4621 53.0632 52.926 52.8451 52.1904 52.8451C51.4548 52.8451 50.8127 53.0633 50.3015 53.5059C49.7904 53.9485 49.4475 54.5906 49.2729 55.4446L49.1358 56.1241C48.9612 56.9782 49.0423 57.6327 49.3727 58.0753H49.3665ZM52.6455 56.1116C52.4522 57.053 51.9847 57.5267 51.2304 57.5267C50.4761 57.5267 50.1769 57.053 50.3701 56.1116L50.501 55.4633C50.6943 54.522 51.1681 54.0482 51.9348 54.0482C52.2964 54.0482 52.552 54.1604 52.7016 54.3911C52.8512 54.6217 52.8762 54.9771 52.7764 55.4633L52.6455 56.1116ZM55.0705 58.1127C55.376 58.5304 55.9183 58.7424 56.6913 58.7424C57.4643 58.7424 58.0877 58.5366 58.5677 58.119C59.0477 57.7013 59.3657 57.0779 59.534 56.255L60.2073 52.9448H58.9542L58.2934 56.1927C58.1999 56.6415 58.0503 56.9719 57.8384 57.1963C57.6264 57.4208 57.3209 57.533 56.9344 57.533C56.5479 57.533 56.2986 57.4208 56.1739 57.1901C56.0492 56.9657 56.0305 56.6291 56.1178 56.1927L56.7786 52.9448H55.5256L54.8523 56.255C54.684 57.0717 54.7588 57.6951 55.0643 58.1127H55.0705ZM61.2982 52.9386H62.52L62.3891 53.5869C62.6136 53.3313 62.8754 53.1381 63.1684 53.0134C63.4614 52.8825 63.7606 52.8201 64.0785 52.8201C64.2718 52.8201 64.4339 52.8326 64.5648 52.8638L64.3029 54.1604C64.091 54.0669 63.8541 54.017 63.586 54.017C63.1871 54.017 62.8567 54.1417 62.5886 54.3973C62.3206 54.6467 62.1335 55.0145 62.04 55.4883L61.3979 58.6489H60.1449L61.3044 52.9448L61.2982 52.9386ZM65.7056 51.0435L65.4874 52.1282H66.7279L66.9461 51.0435H65.7056ZM65.3191 52.9386L64.1596 58.6426H65.4001L66.5596 52.9386H65.3191ZM68.2054 56.1615H71.8024L71.9333 55.5007C72.1078 54.6467 72.0268 53.9859 71.6901 53.5246C71.3535 53.0633 70.8112 52.8326 70.0569 52.8326C69.3026 52.8326 68.6667 53.0633 68.143 53.5308C67.6194 53.9921 67.2703 54.6654 67.0895 55.5319L66.9898 56.0244C66.809 56.9096 66.8963 57.5828 67.2391 58.0442C67.5882 58.5055 68.143 58.7361 68.9161 58.7361C69.5956 58.7361 70.1753 58.5678 70.6553 58.2374C71.1353 57.907 71.447 57.4644 71.5966 56.9158L71.6091 56.8472H70.3873L70.3686 56.8784C70.3 57.0904 70.1566 57.2525 69.9509 57.3709C69.7452 57.4893 69.4958 57.5454 69.2028 57.5454C68.3425 57.5454 68.0059 57.0904 68.1929 56.174V56.149L68.2054 56.1615ZM68.3924 55.2264C68.6044 54.4098 69.0844 53.9983 69.82 53.9983C70.1753 53.9983 70.4434 54.0981 70.6117 54.2913C70.7862 54.4846 70.8299 54.7713 70.7551 55.1516L70.7426 55.2264H68.3924ZM73.4544 52.9323L72.2948 58.6364H73.5479L74.19 55.4758C74.2835 55.002 74.4705 54.6342 74.7385 54.3848C75.0066 54.1355 75.3432 54.0046 75.736 54.0046C76.004 54.0046 76.2409 54.0544 76.4529 54.148L76.7147 52.8513C76.5838 52.8201 76.4217 52.8077 76.2284 52.8077C75.9105 52.8077 75.6113 52.87 75.3183 53.0009C75.0253 53.1318 74.7697 53.3188 74.5391 53.5744L74.67 52.9261H73.4481L73.4544 52.9323Z" fill="#902682"/>
<path fill-rule="evenodd" clip-rule="evenodd" d="M70.5805 15.2731C38.1454 10.7411 14.3754 24.4619 0 45.1773C6.93836 27.7285 26.357 9.01426 48.8054 4.08946C48.8054 2.72423 48.793 1.36523 48.7867 0C56.0493 5.09312 63.3118 10.1862 70.5805 15.2731Z" fill="#902682"/>
<path fill-rule="evenodd" clip-rule="evenodd" d="M45.0214 31.4066C45.4266 30.7583 45.0837 31.257 45.383 30.964L46.3929 38.8811H41.1252L45.0214 31.4066ZM28.5264 49.9712L35.2154 50.0086L38.2701 44.3358L47.0038 44.3732L47.7456 49.965L53.9422 50.0149L51.8039 34.9288L49.5472 20.2292L44.8219 20.2416L28.5327 49.9775L28.5264 49.9712ZM66.0671 26.6501C66.304 25.6464 66.036 26.2262 66.5222 25.9332C67.8313 25.9332 71.3099 25.7773 72.3572 26.1389C73.8845 26.6688 74.0902 28.5701 73.5229 30.1847C72.3011 33.6882 68.8537 33.2144 64.8453 33.2207L66.0671 26.6501ZM55.1578 49.9775L61.4229 49.9151L61.9528 47.1847C62.5076 44.4791 63.025 41.7362 63.6172 38.9621C65.3378 38.9808 70.6491 39.9471 75.2747 37.173C81.2405 33.5947 82.213 22.6791 74.3645 20.5845C72.0954 19.9798 63.9227 20.1232 61.1673 20.2541L55.164 49.9712L55.1578 49.9775ZM12.7359 31.2819C12.0315 24.8423 16.6321 20.6905 22.6104 20.092C23.8759 19.9673 24.8048 19.9798 26.064 20.1356C28.8444 20.4723 31.7431 22.037 33.1645 24.4932L28.7696 28.2335C27.6911 27.286 27.7347 26.6563 26.1139 26.0267C23.8323 25.1415 20.4971 25.5903 19.2379 28.0403C16.975 32.4476 23.7762 31.7869 27.0926 33.6446C29.0501 34.7417 30.5462 36.4124 30.7893 39.4359C31.5437 48.899 21.1143 51.9411 13.9016 49.4538C11.9317 48.7743 9.32593 46.6174 8.59656 45.2334C9.26359 44.6038 12.5302 41.6427 13.2907 41.2811C14.2881 43.5565 17.3677 44.7908 20.1854 44.4978C24.2188 44.0739 25.3845 40.9881 24.3497 39.3798C22.7039 36.8301 14.3692 38.8811 12.7359 31.2757V31.2819Z" fill="#EC7023"/>
</g>
<defs>
<clipPath id="clip0_1801_11263">
<rect width="80" height="60.3569" fill="white"/>
</clipPath>
</defs>
</svg>
