<svg width="78" height="80" viewBox="0 0 78 80" fill="none" xmlns="http://www.w3.org/2000/svg">
<g clip-path="url(#clip0_1801_11503)">
<path fill-rule="evenodd" clip-rule="evenodd" d="M27.5227 51.8836C37.0288 51.8836 44.7807 51.1482 44.7807 50.2478C44.7807 49.3474 37.0288 48.6121 27.5227 48.6121C18.0167 48.6121 10.2647 49.3474 10.2647 50.2478C10.2647 51.1482 18.0167 51.8836 27.5227 51.8836Z" fill="#CAC9C9"/>
<path fill-rule="evenodd" clip-rule="evenodd" d="M26.5757 0.147327L59.2478 14.0154C60.1877 14.4136 60.6307 15.5095 60.2307 16.4493L46.3626 49.1215C45.9645 50.0613 44.8686 50.5043 43.9287 50.1044L11.2566 36.2381C10.3168 35.8399 9.87374 34.744 10.2737 33.8042L24.1418 1.13022C24.54 0.190373 25.6359 -0.252645 26.5757 0.147327Z" fill="#921D26"/>
<path fill-rule="evenodd" clip-rule="evenodd" d="M58.4335 15.7606C58.5035 15.9328 58.5071 16.1301 58.4299 16.313L45.0139 47.9197C44.8578 48.2856 44.4327 48.4578 44.065 48.3036L12.4583 34.8875C12.2754 34.8104 12.1408 34.6651 12.0709 34.4929L58.4335 15.7606Z" fill="#70161E"/>
<path fill-rule="evenodd" clip-rule="evenodd" d="M26.6026 3.02246L57.1619 15.9937C57.3466 16.0727 57.4345 16.2897 57.3556 16.4744L44.3843 47.0337C44.3054 47.2185 44.0884 47.3063 43.9036 47.2274L13.3443 34.2579C13.1578 34.179 13.0717 33.962 13.1506 33.7772L26.1219 3.21796C26.2008 3.03322 26.4179 2.94534 26.6026 3.02426V3.02246Z" fill="#D5232B"/>
<path fill-rule="evenodd" clip-rule="evenodd" d="M57.3592 16.1946C57.395 16.2825 57.3968 16.383 57.3574 16.4744L44.3861 47.0337C44.3072 47.2185 44.0902 47.3063 43.9054 47.2274L13.3443 34.2579C13.2511 34.2185 13.1829 34.1449 13.1488 34.057L57.3592 16.1946Z" fill="#A11F24"/>
<path fill-rule="evenodd" clip-rule="evenodd" d="M51.7452 17.1076L32.7815 26.6674L30.8983 18.1945L51.7452 17.1076Z" fill="white"/>
<path fill-rule="evenodd" clip-rule="evenodd" d="M19.2309 33.4974L38.1964 23.9376L40.0796 32.4105L19.2309 33.4974Z" fill="#E6E6E6"/>
<path fill-rule="evenodd" clip-rule="evenodd" d="M32.7815 26.6674L38.1964 23.9376L38.5946 25.7312L32.7815 26.6674Z" fill="#B3B3B3"/>
<path fill-rule="evenodd" clip-rule="evenodd" d="M6.99502 58.4571V61.9546H6.1879C6.1879 61.9546 4.80863 61.7538 4.80863 62.3582C4.80863 62.9626 5.41486 63.1653 6.25427 63.8379C7.09546 64.5105 8.40658 66.0584 8.40658 67.8394C8.40658 69.6205 7.22998 71.9091 3.5298 71.9091C-0.170391 71.9091 0.132726 71.5055 0.132726 71.5055V67.5704C0.132726 67.5704 1.37748 67.9739 2.52 67.9739C3.66252 67.9739 3.8652 67.6045 3.8652 67.235C3.8652 66.8655 0 64.5123 0 62.1591C0 61.2264 0.234961 58.0213 4.43915 58.0213C6.08926 58.0536 6.99502 58.4589 6.99502 58.4589V58.4571Z" fill="#D5232B"/>
<path d="M14.0241 58.0195H9.75716V71.9091H14.0241V58.0195Z" fill="#D5232B"/>
<path fill-rule="evenodd" clip-rule="evenodd" d="M32.7224 68.3775H36.7203V71.9091H28.7244V58.0195H36.7203V61.5511H32.7224V63.1994H36.2199V66.731H32.7224V68.3775Z" fill="#D5232B"/>
<path fill-rule="evenodd" clip-rule="evenodd" d="M38.5444 58.0195H43.8193C46.7698 58.0195 49.184 60.4337 49.184 63.3841C49.184 66.3346 47.0245 68.7488 44.074 68.7488H42.8131V71.9109H38.5462V58.0213L38.5444 58.0195ZM42.8113 61.7179V65.0468H43.0481C43.9646 65.0468 44.7125 64.2971 44.7125 63.3823C44.7125 62.4658 43.9628 61.7179 43.0481 61.7179H42.8113Z" fill="#D5232B"/>
<path fill-rule="evenodd" clip-rule="evenodd" d="M22.9365 58.0033C24.7749 58.0033 26.4466 58.7172 27.6877 59.883L25.2466 62.9913C24.6906 62.3367 23.862 61.9206 22.9365 61.9206C21.2649 61.9206 19.9107 63.2747 19.9107 64.9464C19.9107 66.618 21.2649 67.9721 22.9365 67.9721C23.862 67.9721 24.6906 67.556 25.2466 66.9014L27.6877 70.0097C26.4448 71.1755 24.7749 71.8894 22.9365 71.8894C19.1018 71.8894 15.9917 68.7811 15.9917 64.9446C15.9917 61.1081 19.1 57.9998 22.9365 57.9998V58.0033Z" fill="#D5232B"/>
<path fill-rule="evenodd" clip-rule="evenodd" d="M54.9109 58.0195L62.2001 71.9091H47.6235L54.9109 58.0195Z" fill="#D5232B"/>
<path fill-rule="evenodd" clip-rule="evenodd" d="M53.1549 71.9091H50.3569L55.0221 64.7921L58.4173 68.4923L53.1549 71.9091Z" fill="#E6E6E6"/>
<path fill-rule="evenodd" clip-rule="evenodd" d="M53.0994 67.7264L55.0221 64.7921L55.7414 65.5759L53.0994 67.7264Z" fill="#B3B3B3"/>
<path fill-rule="evenodd" clip-rule="evenodd" d="M55.9386 59.9781L56.9341 61.8757L53.0994 67.7264L51.0116 65.4521L52.8232 62.0013L55.9386 59.9781Z" fill="white"/>
<path fill-rule="evenodd" clip-rule="evenodd" d="M70.5063 58.0195V61.6856H67.9665V71.9091H63.6996V61.6856H61.1598V58.0195H70.5063Z" fill="#D5232B"/>
<path fill-rule="evenodd" clip-rule="evenodd" d="M38.8098 75.1017L38.9103 74.4165H35.0182L34.9141 75.1017H38.8098ZM34.6576 76.7966L34.1841 79.9318H38.1946L38.295 79.2467H35.072L35.3392 77.4656H38.1121L38.2125 76.7966H34.6558H34.6576ZM43.2848 76.9778L46.1313 74.4165H45.1071L41.7262 77.4656L42.1836 74.4165H41.3962L40.5622 79.9318H41.3495L41.563 78.497L42.7252 77.4567L44.5242 79.9301H45.4067L43.2705 76.9903L43.2848 76.9742V76.9778ZM48.9113 79.9964C50.2816 79.9964 51.2125 79.3507 51.1605 78.2781C51.078 76.5993 48.2764 77.1518 48.2208 75.9931C48.1921 75.4102 48.7481 75.0246 49.6557 75.0246C50.2153 75.0246 50.7498 75.1734 51.1749 75.4658L51.4582 74.8201C50.9937 74.5206 50.3408 74.3555 49.6629 74.3555C48.3159 74.3555 47.4011 75.0102 47.4531 76.0648C47.5392 77.8297 50.339 77.2397 50.3946 78.3893C50.4233 78.9884 49.8422 79.3274 48.9508 79.3274C48.2656 79.3274 47.5679 79.0835 47.1321 78.6978L46.8164 79.3274C47.2361 79.7058 48.0701 79.9964 48.9131 79.9964H48.9113ZM56.0821 74.4183H54.0338L53.1998 79.9336H53.9872L54.2365 78.2638H55.7091C57.3 78.2638 58.2542 77.4441 58.1842 76.0344C58.134 75.0102 57.3646 74.4183 56.0803 74.4183H56.0821ZM55.6929 77.5786H54.3459L54.7226 75.1053H56.0463C56.8821 75.1053 57.3699 75.4443 57.4022 76.1061C57.4489 77.0746 56.8193 77.5804 55.6929 77.5804V77.5786ZM64.912 76.0344C64.8618 75.0102 64.0923 74.4183 62.8009 74.4183H60.7437L59.9097 79.9336H60.706L60.9553 78.2477H62.5785L63.6224 79.9336H64.4582L63.3623 78.1365C64.3901 77.8692 64.9676 77.1285 64.9138 76.0326L64.912 76.0344ZM62.4189 77.5786H61.0558L61.4324 75.1053H62.7633C63.6063 75.1053 64.0959 75.4443 64.1282 76.1061C64.1748 77.0746 63.5453 77.5804 62.4189 77.5804V77.5786ZM71.3636 75.1053L71.464 74.4201H67.5719L67.4679 75.1053H71.3636ZM67.2114 76.8002L66.7379 79.9354H70.7484L70.8488 79.2503H67.6257L67.893 77.4692H70.6658L70.7663 76.8002H67.2096H67.2114ZM74.8198 80C76.1901 80 77.121 79.3543 77.069 78.2817C76.9865 76.6029 74.1849 77.1554 74.1293 75.9967C74.1006 75.4138 74.6566 75.0282 75.5642 75.0282C76.1238 75.0282 76.6583 75.177 77.0833 75.4694L77.3667 74.8237C76.9022 74.5242 76.2493 74.3591 75.5713 74.3591C74.2243 74.3591 73.3096 75.0138 73.3616 76.0684C73.4477 77.8333 76.2475 77.2432 76.3031 78.3929C76.3318 78.992 75.7507 79.331 74.8593 79.331C74.1741 79.331 73.4764 79.0871 73.0406 78.7014L72.7249 79.331C73.1446 79.7094 73.9786 80 74.8216 80H74.8198Z" fill="#999999"/>
</g>
<defs>
<clipPath id="clip0_1801_11503">
<rect width="77.3667" height="80" fill="white"/>
</clipPath>
</defs>
</svg>
