<svg width="80" height="48" viewBox="0 0 80 48" fill="none" xmlns="http://www.w3.org/2000/svg">
<g clip-path="url(#clip0_1801_11531)">
<path d="M80 0H0V47.0312H80V0Z" fill="white"/>
<path d="M18.6094 7.1875H19.6875C22.3438 7.32812 24.9688 8.10938 27.0156 9.85938C27.0469 9.89062 27.0625 9.9375 27.0312 9.96875L23.8438 14.0312C23.8125 14.0625 23.7812 14.0781 23.7344 14.0469C21.625 12.7344 17.8594 11.6562 15.6719 13.0156C14.1406 13.9688 15.2344 15.6094 16.4219 16.1562C20.4531 18 26.5938 19.8125 25.7969 25.6875C25.4531 28.2656 23.9531 30.2969 21.7188 31.5938C19.3125 32.9844 16.25 33.2031 13.5625 32.8594C10.8125 32.5156 8.42188 31.3281 6.42188 29.3125C6.375 29.2656 6.375 29.2188 6.42188 29.1719L9.57812 25.1562C9.625 25.1094 9.70313 25.0938 9.75 25.1406C10.7031 25.9688 11.7969 26.7188 12.9688 27.1406C14.875 27.8281 18.3594 28.0938 19.8281 26.3281C20.9531 24.9844 19.1875 23.6406 18.1406 23.1562C14.6875 21.5781 9.73438 20.2969 9.29688 15.7812C9.17188 14.4531 9.45312 13.1406 10.1719 11.7969C11.7344 8.85938 15.2344 7.3125 18.6094 7.1875Z" fill="#EE4D2D"/>
<path d="M32.2813 7.1875H41.5313C45.8907 7.375 50.6251 9.45312 50.3594 14.6562C50.0469 20.7031 45.0001 24.2344 39.3126 24.3594C37.9688 24.3906 36.6407 24.3906 35.3282 24.3594C35.2813 24.3594 35.2344 24.3906 35.2344 24.4375L33.9688 32.9219C33.9688 32.9688 33.9376 33 33.8751 33L28.3282 32.9531C28.2813 32.9531 28.2657 32.9219 28.2657 32.875L32.2813 7.1875ZM43.3751 16.9219C44.3126 15.375 44.4376 12.9062 42.1876 12.3438C40.5469 11.9375 38.9063 11.9688 37.2657 12.0469C37.2032 12.0469 37.1719 12.0781 37.1563 12.1406L36.1719 19.1406C36.1563 19.2031 36.1876 19.2344 36.2657 19.25C38.6876 19.3281 41.9219 19.3281 43.3751 16.9219Z" fill="#EE4D2D"/>
<path d="M51.6406 7.1875H58.6874L64.3124 19C64.3281 19.0469 64.3281 19.0938 64.2968 19.1406L48.6406 39.1094C48.6093 39.1562 48.5624 39.1719 48.4999 39.1719H42.2187C42.1249 39.1719 42.1093 39.1406 42.1562 39.0625C47.1874 32.6719 52.2343 26.2656 57.2968 19.8594C57.6406 19.4375 57.6874 19.4844 57.4218 18.9531C55.4999 15.0625 53.5781 11.1406 51.6406 7.1875Z" fill="#EE4D2D"/>
<path d="M67.2812 7.1875H73.9062L65.2656 17.9375C65.2343 17.9688 65.1875 17.9844 65.1562 17.9531C65.1406 17.9531 65.1406 17.9375 65.1406 17.9219L62.8125 13.0469C62.7812 12.9688 62.7812 12.9062 62.8281 12.8438L67.2812 7.1875Z" fill="#EE4D2D"/>
<path d="M64.875 20.3594C64.8906 20.3438 64.875 20.3438 64.875 20.3594C64.9219 20.375 64.9531 20.4219 64.9688 20.4531C66.9531 24.6094 68.9375 28.75 70.9219 32.875C70.9375 32.9062 70.9219 32.9375 70.8906 32.9531C70.875 32.9531 70.875 32.9531 70.8594 32.9531H64.4063C64.3438 32.9531 64.3125 32.9219 64.2812 32.875L60.75 25.6875C60.7344 25.6406 60.7344 25.5938 60.7656 25.5625L64.875 20.3594Z" fill="#EE4D2D"/>
<path d="M3.56256 34.7656H9.25006C9.28131 34.7656 9.29694 34.7969 9.29694 34.8125C9.29694 34.8281 9.29694 34.8281 9.28131 34.8438L5.90631 39.1562C5.89069 39.1719 5.87506 39.1719 5.85944 39.1719H0.109436C0.078186 39.1719 0.062561 39.1562 0.062561 39.125C0.062561 39.1094 0.062561 39.0938 0.078186 39.0938L3.53131 34.7812C3.53131 34.7812 3.54694 34.7656 3.56256 34.7656Z" fill="#EE4D2D"/>
<path d="M20.0937 34.8281L16.7187 39.1563C16.7031 39.1719 16.6874 39.1719 16.6718 39.1719H7.48431C7.45306 39.1719 7.43744 39.1406 7.43744 39.125C7.43744 39.1094 7.43744 39.1094 7.45306 39.0938L10.8281 34.7813C10.8437 34.7656 10.8593 34.7656 10.8749 34.7656L20.0624 34.75C20.0937 34.75 20.1093 34.7813 20.1093 34.7969C20.1093 34.8125 20.1093 34.8281 20.0937 34.8281Z" fill="#EE4D2D"/>
<path d="M40.4219 39.1875H18.2969C18.2656 39.1875 18.2344 39.1719 18.2344 39.1406C18.2344 39.125 18.2344 39.1094 18.25 39.1094L21.6094 34.8125C21.625 34.7969 21.6406 34.7969 21.6563 34.7969H43.7969C43.8281 34.7969 43.8594 34.8125 43.8594 34.8438C43.8594 34.8594 43.8594 34.875 43.8438 34.875L40.4688 39.1562C40.4531 39.1719 40.4375 39.1875 40.4219 39.1875Z" fill="#EE4D2D"/>
<path d="M54.5468 35.7656L54.4531 36.5469C54.4531 36.5781 54.4687 36.625 54.5156 36.625C54.5156 36.625 54.5156 36.625 54.5312 36.625L56.3593 36.5781C56.3906 36.5781 56.4218 36.6094 56.4218 36.6406C56.4218 36.6406 56.4218 36.6406 56.4218 36.6562L56.3124 37.4531C56.3124 37.4844 56.2812 37.5156 56.2499 37.5156H54.3437C54.3124 37.5156 54.2812 37.5469 54.2812 37.5781L54.2031 38.1875C54.2031 38.2188 54.2187 38.25 54.2656 38.2656H56.1562C56.1874 38.2656 56.2187 38.2969 56.2187 38.3281C56.2187 38.3281 56.2187 38.3281 56.2187 38.3438L56.0781 39.1406C56.0781 39.1719 56.0468 39.2031 56.0156 39.2031H53.1249C53.0937 39.2031 53.0624 39.1719 53.0624 39.1406C53.0624 39.1406 53.0624 39.1406 53.0624 39.125L53.7343 34.8438C53.7343 34.8125 53.7656 34.7812 53.7968 34.7812L56.7031 34.7656C56.7343 34.7656 56.7656 34.7969 56.7656 34.8281V34.8438L56.6249 35.6562C56.6249 35.6875 56.5937 35.7188 56.5624 35.7188H54.6249C54.5781 35.7031 54.5624 35.7344 54.5468 35.7656Z" fill="#EE4D2D"/>
<path d="M58.75 37.9531L57.7656 39.1719C57.75 39.1875 57.7344 39.1875 57.7188 39.1875H56.625C56.5938 39.1875 56.5625 39.1562 56.5625 39.125C56.5625 39.1094 56.5625 39.0938 56.5781 39.0938L58.3125 36.9688C58.3281 36.9531 58.3281 36.9219 58.3125 36.9062L57.2812 34.8438C57.2656 34.8125 57.2812 34.7812 57.3125 34.7656C57.3281 34.7656 57.3281 34.7656 57.3438 34.7656L58.4844 34.7969C58.5156 34.7969 58.5312 34.8125 58.5469 34.8281L59.0625 35.9062C59.0781 35.9375 59.1094 35.9531 59.1406 35.9375C59.1562 35.9375 59.1562 35.9219 59.1562 35.9219L60.0625 34.8281C60.0781 34.8125 60.0938 34.8125 60.1094 34.8125L61.2344 34.75C61.2656 34.75 61.2969 34.7812 61.2969 34.8125C61.2969 34.8281 61.2969 34.8438 61.2812 34.8594L59.5938 36.9375C59.5781 36.9531 59.5781 36.9844 59.5938 37L60.6875 39.125C60.7031 39.1562 60.6875 39.1875 60.6562 39.2031C60.6406 39.2031 60.6406 39.2031 60.625 39.2031H59.4844C59.4531 39.2031 59.4375 39.1875 59.4219 39.1719L58.8281 37.9844C58.8125 37.9531 58.7812 37.9375 58.75 37.9531C58.7656 37.9375 58.7656 37.9375 58.75 37.9531Z" fill="#EE4D2D"/>
<path d="M70.3593 38.25H72.2656C72.2968 38.25 72.3281 38.2813 72.3281 38.3125C72.3281 38.3125 72.3281 38.3125 72.3281 38.3281L72.2031 39.1406C72.2031 39.1719 72.1718 39.1875 72.1406 39.1875H69.2187C69.1874 39.1875 69.1562 39.1563 69.1562 39.125C69.1562 39.125 69.1562 39.125 69.1562 39.1094L69.8124 34.8281C69.8124 34.7969 69.8437 34.7813 69.8749 34.7813L72.7968 34.75C72.8281 34.75 72.8593 34.7813 72.8593 34.8125V34.8281L72.7187 35.6719C72.7187 35.7031 72.6874 35.7188 72.6562 35.7188H70.7187C70.6874 35.7188 70.6718 35.7344 70.6562 35.7656L70.5312 36.5469C70.5312 36.5781 70.5468 36.6094 70.5781 36.6094C70.5781 36.6094 70.5781 36.6094 70.5937 36.6094L72.4531 36.5781C72.4843 36.5781 72.5156 36.6094 72.5156 36.6406L72.4218 37.4531C72.4218 37.4844 72.3906 37.5 72.3593 37.5H70.4687C70.4374 37.5 70.4218 37.5156 70.4062 37.5469L70.2968 38.1719C70.2968 38.2031 70.3124 38.2344 70.3593 38.25C70.3593 38.2344 70.3593 38.2344 70.3593 38.25Z" fill="#EE4D2D"/>
<path d="M62.3906 38.0938L62.2499 39.0781C62.2499 39.125 62.2031 39.1719 62.1406 39.1719H61.3124C61.2656 39.1719 61.2343 39.1406 61.2499 39.0938L61.9218 34.8438C61.9374 34.7813 61.9687 34.7656 62.0156 34.7656C63.2812 34.75 65.1718 34.3906 65.0937 36.1563C65.0312 37.7656 63.8124 37.9844 62.4843 38C62.4374 38.0156 62.3906 38.0469 62.3906 38.0938ZM62.7499 35.8125L62.5781 36.9531C62.5624 37 62.5937 37.0313 62.6406 37.0313C63.3906 37.0469 64.4062 37.0781 64.0781 35.9375C64.0468 35.8438 63.9687 35.7656 63.8593 35.7656L62.9062 35.6875C62.8124 35.6719 62.7656 35.7188 62.7499 35.8125Z" fill="#EE4D2D"/>
<path d="M65.8594 34.7969C65.8594 34.7812 65.875 34.7656 65.8906 34.7656C66.8438 34.75 68.7969 34.4219 69 35.75C69.1406 36.6562 68.8125 37.3438 68 37.8281C67.9531 37.8594 67.9531 37.8906 67.9688 37.9219L68.625 39.0938C68.6562 39.1406 68.6406 39.1719 68.5781 39.1719H67.6406C67.5781 39.1719 67.5469 39.1406 67.5156 39.0938L66.9688 38.1094C66.875 37.9375 66.6406 37.8594 66.4688 37.9688C66.375 38.0312 66.2969 38.125 66.2812 38.2344L66.1562 39.0781C66.1406 39.1406 66.1094 39.1719 66.0469 39.1719H65.2656C65.1875 39.1719 65.1562 39.1406 65.1719 39.0625L65.8594 34.7969ZM66.6719 35.7812L66.4844 36.9844C66.4844 37.0312 66.5 37.0625 66.5625 37.0469C67.1562 37.0156 68.3125 37.0938 68.0469 36.0781C67.9219 35.625 67.125 35.6719 66.7656 35.7031C66.7188 35.7188 66.6875 35.7344 66.6719 35.7812Z" fill="#EE4D2D"/>
<path d="M73.0156 38.2344L73.2812 37.9063C73.3125 37.875 73.3438 37.8594 73.375 37.8906C73.8125 38.1406 74.2812 38.3906 74.7812 38.1719C75.0938 38.0313 75.1094 37.6875 74.7812 37.5469C73.9531 37.1563 72.7969 36.7344 73.4688 35.5469C74.0312 34.5625 75.4688 34.5938 76.2656 35.1719C76.3125 35.2031 76.3281 35.25 76.2812 35.2969L75.8125 35.8594C75.7812 35.9063 75.7344 35.9063 75.6875 35.8906C75.25 35.7031 74.75 35.4531 74.3437 35.8438C74.25 35.9375 74.25 36.0938 74.3281 36.1875C74.3438 36.2031 74.375 36.2187 74.3906 36.2344C75.2031 36.6406 76.5938 37.1094 75.875 38.375C75.25 39.4688 73.6094 39.4063 72.7812 38.5938C72.75 38.5625 72.7344 38.5156 72.7656 38.4844C72.7969 38.4063 72.8438 38.3438 72.9219 38.3125C72.9844 38.2656 73 38.25 73.0156 38.2344Z" fill="#EE4D2D"/>
<path d="M77.1719 35.4531C77.7344 34.5469 79.1407 34.6094 79.9219 35.1562C79.9688 35.1875 79.9844 35.2344 79.9376 35.2812L79.4375 35.875C79.3907 35.9219 79.3438 35.9219 79.2969 35.8906C78.9532 35.6562 78.5938 35.5781 78.1875 35.6562C78.0157 35.6875 77.8907 35.8594 77.9219 36.0469C77.9219 36.0625 77.9219 36.0625 77.9375 36.0781C77.9532 36.1562 78.0469 36.2187 78.1719 36.2812C78.5782 36.4687 78.9219 36.6562 79.2188 36.8437C80.9063 38 78.1876 40.2344 76.4376 38.5937C76.3907 38.5469 76.3907 38.4844 76.4219 38.4375L76.8907 37.8906C76.9376 37.8437 76.9844 37.8281 77.0313 37.875C77.375 38.1406 78.3282 38.4844 78.5938 37.9375C78.6719 37.7812 78.6094 37.5937 78.4532 37.5312C78.4532 37.5312 78.4375 37.5312 78.4375 37.5156C77.5782 37.1406 76.3907 36.7187 77.1719 35.4531Z" fill="#EE4D2D"/>
</g>
<defs>
<clipPath id="clip0_1801_11531">
<rect width="80" height="47.0312" fill="white"/>
</clipPath>
</defs>
</svg>
