<svg width="80" height="20" viewBox="0 0 80 20" fill="none" xmlns="http://www.w3.org/2000/svg">
<g clip-path="url(#clip0_1801_11576)">
<path fill-rule="evenodd" clip-rule="evenodd" d="M4.94592 13.7525C6.23422 14.9771 7.96409 15.7236 9.84875 15.7236C11.7334 15.7236 13.4678 14.9771 14.7652 13.7525H15.7167C14.2645 15.4004 12.1704 16.4201 9.8533 16.4201C7.53618 16.4201 5.44212 15.4004 3.98993 13.7525H4.95047H4.94592ZM6.27974 13.7525C6.52101 13.9209 6.78505 14.0757 7.04908 14.2077C7.23117 14.0393 7.43603 13.8845 7.63633 13.7525H8.44208C8.40566 13.7661 8.36925 13.7889 8.34649 13.8026C8.21447 13.8617 8.09611 13.9346 7.9732 14.0074C7.7911 14.1167 7.62267 14.2487 7.45423 14.3944C8.18715 14.7085 9.00657 14.8769 9.84419 14.8769C10.6818 14.8769 11.5012 14.7085 12.2342 14.3944C12.0657 14.2487 11.8973 14.1167 11.7152 14.0074C11.5968 13.9346 11.4739 13.8617 11.3419 13.8026C11.3191 13.7889 11.2827 13.7661 11.2463 13.7525H12.0521C12.2569 13.8845 12.4618 14.0393 12.6393 14.2077C12.9033 14.062 13.1674 13.9209 13.4086 13.7525H14.0596C13.7091 14.0302 13.3404 14.2806 12.9398 14.4854C12.8077 14.5582 12.6757 14.6311 12.5437 14.6903C11.7152 15.0499 10.8002 15.2547 9.83964 15.2547C8.8791 15.2547 7.96409 15.0499 7.13557 14.6903C7.00356 14.6311 6.87154 14.5582 6.73952 14.4854C6.34347 14.2806 5.97018 14.0302 5.61966 13.7525H6.27974Z" fill="#ED1C24"/>
<path fill-rule="evenodd" clip-rule="evenodd" d="M3.13433 11.0848C3.54404 12.1046 4.16747 13.0196 4.95047 13.7525H3.98993C3.30709 12.9831 2.7656 12.0818 2.40596 11.0848H3.13888H3.13433ZM4.03569 11.0848C4.3589 11.795 4.80503 12.4323 5.34675 12.974C5.63355 12.6508 5.96131 12.3504 6.29818 12.0955C6.12975 11.7813 5.98407 11.4445 5.85206 11.0848H6.239C6.34826 11.3625 6.46662 11.6357 6.59863 11.8769C6.73065 11.8041 6.84901 11.7222 6.98103 11.6493L6.47572 11.0848H7.3179L7.50909 11.3853C7.60469 11.3489 7.70029 11.3125 7.80955 11.2669C7.78678 11.2078 7.77313 11.1486 7.75947 11.0848H8.07358C8.08724 11.1076 8.08724 11.144 8.09634 11.1668C8.19194 11.144 8.3012 11.1076 8.39679 11.0848H11.3057C11.4013 11.1076 11.5106 11.144 11.6062 11.1668C11.6198 11.144 11.6198 11.1076 11.6289 11.0848H11.943C11.9294 11.144 11.9203 11.2032 11.893 11.2669C12.3254 11.4354 12.7215 11.6402 13.1084 11.8815C13.2404 11.6402 13.3588 11.3625 13.4681 11.0894H13.855C13.723 11.449 13.5773 11.7859 13.4089 12.1C13.7457 12.3504 14.069 12.6508 14.3603 12.9786C14.902 12.4369 15.3482 11.7996 15.6714 11.0894H16.0902C15.7305 11.9088 15.2252 12.6508 14.6107 13.2791C14.5287 13.361 14.4286 13.4475 14.333 13.5294C14.2511 13.6023 14.1646 13.6842 14.069 13.757H13.418C13.6456 13.6023 13.8732 13.4202 14.0781 13.2381C13.814 12.9376 13.5136 12.6736 13.1995 12.446C12.8763 12.9649 12.4893 13.4065 12.0568 13.757H11.2511C11.1327 13.707 11.0098 13.6614 10.8915 13.6114C10.7822 13.5886 10.6866 13.5522 10.5773 13.5294C10.3497 13.4794 10.0948 13.4566 9.84443 13.4566C9.59405 13.4566 9.33912 13.4794 9.1115 13.5294C9.00225 13.5522 8.90665 13.5886 8.7974 13.6114C8.67904 13.6614 8.55612 13.707 8.43776 13.757H7.63201C7.19954 13.4065 6.81259 12.9649 6.48938 12.446C6.17527 12.6736 5.87482 12.9376 5.61078 13.2381C5.81564 13.4202 6.04325 13.5977 6.27087 13.757H5.61989C5.52429 13.6842 5.4378 13.6023 5.35586 13.5294C5.26026 13.4475 5.16466 13.361 5.07817 13.2791C4.4636 12.6554 3.9583 11.9088 3.59867 11.0894H4.01748L4.03569 11.0848ZM17.3056 11.0848C16.946 12.0818 16.4041 12.9831 15.7167 13.7525H14.7652C15.5346 13.0196 16.1585 12.1046 16.5682 11.0848H17.3056ZM6.79894 12.2366C7.13581 12.7783 7.53186 13.2199 7.97798 13.5567C8.16918 13.4475 8.37403 13.3655 8.57889 13.2927C8.31485 12.8739 8.08724 12.3185 7.90514 11.6812C7.84596 11.704 7.78678 11.7176 7.72305 11.754L7.80499 11.8724H7.4317C7.21319 11.9816 6.99924 12.1 6.79438 12.232L6.79894 12.2366ZM11.7245 13.5567C12.1707 13.2199 12.5667 12.7737 12.9036 12.2366C12.553 12.009 12.1843 11.8269 11.7974 11.6857C11.6153 12.3231 11.3877 12.8739 11.1236 13.2973C11.3285 13.3701 11.5333 13.452 11.7245 13.5613V13.5567ZM8.19194 11.5856C8.37403 12.2457 8.60165 12.8011 8.86568 13.2062C9.17979 13.1243 9.51666 13.0742 9.85353 13.0742C10.1904 13.0742 10.5273 13.1243 10.8368 13.2062C11.1009 12.7965 11.3285 12.2457 11.5106 11.5856C10.9825 11.4172 10.4271 11.3352 9.85353 11.3352C9.27994 11.3352 8.72456 11.4172 8.19649 11.5856H8.19194Z" fill="#ED1C24"/>
<path fill-rule="evenodd" clip-rule="evenodd" d="M6.2572 7.0788L6.00683 7.47485L7.48633 7.54769C7.49998 7.39291 7.50909 7.23357 7.52274 7.0788H7.83685C7.8232 7.23357 7.8232 7.39291 7.81409 7.56134L9.86718 7.65694L10.4317 7.0788H11.1282L10.4544 8.09851L11.0781 9.11823H10.4772L9.8171 8.51732L7.79588 8.59927C7.81864 9.50062 7.91424 10.3428 8.07357 11.0757H7.75946C7.60469 10.3291 7.50909 9.50062 7.48177 8.61292L5.8475 8.68576L7.31334 11.0757H6.47116L6.20713 10.7889H6.13429C6.17071 10.8845 6.19347 10.9801 6.22989 11.0757H5.84295C5.80653 10.9801 5.78376 10.8845 5.74735 10.7889H5.65175L5.31488 10.3428L5.61533 10.32C5.60167 10.2381 5.57891 10.1653 5.56525 10.0788L5.44689 9.9604H4.91883L4.53643 9.46875L4.98256 9.43234L4.34524 8.73584C4.02202 8.73584 3.72157 8.74949 3.43023 8.74949L3.04783 8.77225L2.60171 8.78591L1.91886 8.83598C1.42721 8.85875 0.981086 8.88606 0.548618 8.89517C0.343764 8.89517 -0.147884 8.93158 0.0433123 8.52188C0.198091 8.19866 0.571379 7.75254 0.921906 7.5841C1.3043 7.40201 1.57289 7.28365 1.95528 7.26999C2.79745 7.24723 4.54099 7.45209 4.54099 7.45209L4.87786 7.0788H6.26176H6.2572ZM12.1843 7.0788C12.2071 7.28365 12.2207 7.49761 12.2207 7.71612H11.8975C11.8975 7.49761 11.8838 7.28365 11.8747 7.0788H12.1889H12.1843ZM14.2647 7.0788C14.2875 7.28365 14.3148 7.49761 14.3239 7.71612H13.9506C13.9369 7.49761 13.9142 7.28365 13.8914 7.0788H14.2647ZM16.5955 7.0788C16.6182 7.28365 16.6456 7.49761 16.6683 7.71612H16.2859C16.2632 7.49761 16.2358 7.28365 16.204 7.0788H16.6H16.5955ZM17.7245 7.0788C17.7472 7.28365 17.7745 7.49761 17.7836 7.71612H17.1099C17.0962 7.49761 17.0735 7.28365 17.0371 7.0788H17.7199H17.7245ZM2.4014 11.0803C2.21931 10.5613 2.07819 10.0332 1.9917 9.46875H2.67454C2.77014 10.0332 2.92492 10.575 3.12977 11.0803H2.39685H2.4014ZM3.61687 11.0803C3.39836 10.575 3.23448 10.0332 3.13433 9.46875H3.52127C3.63053 10.0332 3.80807 10.575 4.04023 11.0803H3.61687ZM8.40134 11.0803C8.87022 10.9619 9.35277 10.8982 9.85352 10.8982C10.3543 10.8982 10.8368 10.9574 11.3057 11.0803H8.39679H8.40134ZM11.6335 11.0803C11.7791 10.3701 11.8747 9.56435 11.8975 8.71307H12.2207C12.198 9.56435 12.1024 10.361 11.943 11.0803H11.6289H11.6335ZM13.4726 11.0803C13.7366 10.3701 13.9051 9.56435 13.9551 8.71307H14.3284C14.2784 9.55525 14.1099 10.361 13.8595 11.0803H13.4726ZM15.6714 11.0803C16.0082 10.361 16.2222 9.55525 16.2859 8.71307H16.6683C16.6091 9.55525 16.4043 10.3473 16.0902 11.0803H15.6714ZM16.5727 11.0803C16.8732 10.3473 17.0553 9.54159 17.1144 8.71307H17.7882C17.7381 9.54159 17.5697 10.3337 17.3056 11.0803H16.5727ZM12.1843 8.02567H20.251V8.39896H12.1843V8.02567Z" fill="#ED1C24"/>
<path fill-rule="evenodd" clip-rule="evenodd" d="M4.87319 7.07883L5.11446 6.80114L4.65923 6.76472L5.04617 6.27307H5.5879C5.61066 6.15471 5.64708 6.0318 5.66984 5.91344L5.45133 5.89978L5.7882 5.45366H5.81096C5.94298 5.04395 6.11141 4.67066 6.2935 4.33379C5.95663 4.06976 5.63342 3.78296 5.34207 3.4552C4.49079 4.30648 3.86257 5.41269 3.58944 6.65091H3.19339C3.87623 3.50072 6.59396 1.15629 9.8534 1.15629C13.1129 1.15629 16.0673 3.71468 16.5954 7.06972H16.1993C15.9717 5.66306 15.3116 4.40208 14.3602 3.45065C14.0734 3.77386 13.7456 4.06521 13.4088 4.32924C13.8276 5.11224 14.128 6.05001 14.26 7.06972H13.8867C13.7684 6.11829 13.4907 5.26701 13.1037 4.53409C12.7214 4.78447 12.3208 4.98932 11.8883 5.14865C12.034 5.7359 12.1296 6.37322 12.1751 7.06972H11.861C11.8109 6.40964 11.7153 5.79508 11.5969 5.24425C11.0461 5.42634 10.4543 5.52194 9.8443 5.52194C9.23429 5.52194 8.64249 5.42634 8.09166 5.24425C7.9733 5.79508 7.87315 6.40964 7.82763 7.06972H7.51352C7.5636 6.37322 7.65919 5.7359 7.80031 5.14865C7.70472 5.11223 7.60912 5.07582 7.52263 5.0394L6.24798 7.06972H4.86408L4.87319 7.07883ZM10.427 7.07883L10.4498 7.04241H11.1326L11.1189 7.07883H10.4224H10.427ZM17.0371 7.0788C16.509 3.47337 13.4907 0.710158 9.84885 0.710158C6.20701 0.710158 3.43011 3.25945 2.7336 6.66002H2.05076C2.74726 2.8634 5.97939 0 9.84885 0C13.7183 0 17.1827 3.07732 17.7199 7.0788H17.0371ZM6.49836 3.97871C6.82157 3.45975 7.20852 3.01818 7.64099 2.68131C7.43613 2.53563 7.23128 2.39451 7.05374 2.22608C6.53478 2.47645 6.05678 2.81332 5.62432 3.20027C5.88835 3.48706 6.1888 3.7511 6.50291 3.98326L6.49836 3.97871ZM7.97786 2.42638C8.09622 2.49921 8.21913 2.57205 8.35114 2.63123C8.49682 2.70407 8.6516 2.76325 8.82003 2.81332C8.91563 2.84974 9.01123 2.8725 9.12048 2.89526C9.36176 2.94534 9.60303 2.97721 9.8534 2.97721C10.1038 2.97721 10.3451 2.94079 10.5863 2.89526C10.6956 2.8725 10.7912 2.84519 10.8868 2.81332C11.0552 2.76325 11.21 2.70407 11.3557 2.63123C11.4877 2.57205 11.606 2.49921 11.729 2.42638C11.911 2.30802 12.0795 2.176 12.2479 2.03033C11.515 1.72987 10.6956 1.56144 9.85796 1.56144C9.02033 1.56144 8.20092 1.72987 7.468 2.03033C7.63643 2.176 7.80487 2.30802 7.98696 2.42638H7.97786ZM7.97786 2.8725C7.53173 3.20937 7.13568 3.6555 6.79881 4.19267C6.95359 4.28827 7.09926 4.37476 7.2677 4.4567L7.34053 4.37476H7.95509L7.7639 4.68887L7.90957 4.74805C8.09166 4.09707 8.32838 3.5599 8.59242 3.13654C8.37391 3.0637 8.1736 2.98176 7.97786 2.8725ZM6.59396 4.54319C6.44828 4.82999 6.31627 5.13044 6.19791 5.45821H6.35268L6.97635 4.77536C6.84433 4.70253 6.72597 4.62969 6.59396 4.54775V4.54319ZM12.9034 4.19267C12.5666 3.65095 12.1705 3.20482 11.7244 2.8725C11.5332 2.98176 11.3283 3.0637 11.1098 3.13654C11.3739 3.55535 11.6151 4.09707 11.7927 4.74805C12.1751 4.60238 12.5484 4.41118 12.8989 4.19722L12.9034 4.19267ZM12.0613 2.67675C12.4937 3.01362 12.8807 3.45975 13.2039 3.97416C13.518 3.74654 13.8185 3.48251 14.0825 3.19116C13.65 2.80877 13.1675 2.4719 12.6531 2.21697C12.471 2.38541 12.2707 2.53108 12.0658 2.6722L12.0613 2.67675ZM8.86555 3.21848C8.60152 3.61453 8.37391 4.16991 8.19181 4.8391C8.71988 5.00753 9.27526 5.08947 9.84885 5.08947C10.4224 5.08947 10.9778 5.00753 11.5059 4.8391C11.3238 4.16535 11.0962 3.61453 10.8321 3.21848C10.518 3.30042 10.1812 3.33684 9.84885 3.33684C9.51653 3.33684 9.17511 3.30042 8.861 3.21848H8.86555Z" fill="#ED1C24"/>
<path fill-rule="evenodd" clip-rule="evenodd" d="M25.8823 14.8951L27.6485 4.97565H23.4195L24.0932 1.11985H38.8518L38.1416 4.97565H34.2494L32.4694 14.8951H25.8823Z" fill="#2B3C67"/>
<path fill-rule="evenodd" clip-rule="evenodd" d="M38.31 14.8951L39.958 4.85728H41.8335C40.7045 4.53407 39.9215 3.89675 39.9215 3.15017C39.9215 2.09404 41.5057 1.2291 43.4541 1.2291C45.4025 1.2291 46.9867 2.09404 46.9867 3.15017C46.9867 3.89675 46.2037 4.53407 45.0747 4.85728H46.5542L44.8972 14.8951H38.31Z" fill="#2B3C67"/>
<path fill-rule="evenodd" clip-rule="evenodd" d="M46.7865 14.8951L49.1628 1.2291H55.7636L53.3736 14.8951H46.7865Z" fill="#2B3C67"/>
<path fill-rule="evenodd" clip-rule="evenodd" d="M66.8575 14.8951L68.5054 4.85728H70.3673C69.2383 4.53407 68.469 3.89675 68.469 3.15017C68.469 2.09404 70.0441 1.2291 72.0016 1.2291C73.9591 1.2291 75.5251 2.09404 75.5251 3.15017C75.5251 3.89675 74.7557 4.53407 73.6268 4.85728H75.1063L73.4492 14.8951H66.8575Z" fill="#2B3C67"/>
<path fill-rule="evenodd" clip-rule="evenodd" d="M77.9606 2.76779H78.1882C78.3339 2.76779 78.4386 2.75413 78.5023 2.7086C78.5615 2.65853 78.5979 2.59025 78.5979 2.4901C78.5979 2.38994 78.5615 2.32166 78.4886 2.27158C78.4295 2.22151 78.3202 2.19875 78.1654 2.19875H77.9606V2.76779ZM77.478 1.88919H78.2474C78.5251 1.88919 78.739 1.93927 78.8847 2.03487C79.0304 2.13046 79.0895 2.27614 79.0895 2.46733C79.0895 2.59935 79.0531 2.7086 78.9803 2.8042C78.8983 2.88614 78.7982 2.95898 78.6571 2.98629L79.1032 3.874H78.5751L78.1927 3.06824H77.9651V3.874H77.4826V1.88919H77.478ZM78.2109 1.43396C78.0061 1.43396 77.8286 1.47038 77.6465 1.54322C77.478 1.61605 77.3232 1.71165 77.1776 1.85733C77.0319 2.003 76.9272 2.17143 76.8407 2.34897C76.7679 2.53106 76.7223 2.72226 76.7223 2.91346C76.7223 3.11831 76.7724 3.29585 76.8407 3.47794C76.9135 3.66004 77.0228 3.81481 77.1548 3.96049C77.3005 4.10616 77.4553 4.21086 77.6465 4.2837C77.8286 4.36564 78.0197 4.40206 78.2109 4.40206C78.4021 4.40206 78.5842 4.36564 78.7618 4.29281C78.953 4.21087 79.1123 4.11071 79.2671 3.96959C79.3991 3.83758 79.5084 3.6828 79.5812 3.50071C79.6631 3.31861 79.6995 3.14107 79.6995 2.94988C79.6995 2.73136 79.6631 2.54017 79.5903 2.36263C79.5174 2.18054 79.4082 2.02576 79.2762 1.88009C79.1305 1.73441 78.9621 1.61605 78.7845 1.54322C78.6024 1.47038 78.4112 1.43396 78.2064 1.43396H78.2109ZM78.2109 1.13351C78.4522 1.13351 78.6935 1.18358 78.9074 1.26553C79.126 1.36112 79.3172 1.49314 79.4856 1.67523C79.654 1.83001 79.786 2.02576 79.868 2.23972C79.9499 2.45823 80 2.68584 80 2.92256C80 3.15928 79.9499 3.39145 79.8543 3.60541C79.7724 3.82392 79.6358 4.01512 79.4719 4.18355C79.308 4.35199 79.0986 4.47035 78.8847 4.56594C78.6662 4.64789 78.4386 4.69796 78.2109 4.69796C77.9697 4.69796 77.7421 4.64789 77.5281 4.55229C77.3096 4.47035 77.1184 4.33378 76.9408 4.15624C76.7861 3.9878 76.6541 3.79661 76.5676 3.59175C76.4856 3.37324 76.4355 3.14562 76.4355 2.91801C76.4355 2.74957 76.4583 2.5948 76.4947 2.43547C76.5448 2.28069 76.604 2.13502 76.6996 1.98934C76.8544 1.71165 77.0729 1.49769 77.3369 1.35202C77.6009 1.19724 77.8877 1.1244 78.2155 1.1244L78.2109 1.13351Z" fill="#ED1C24"/>
<path fill-rule="evenodd" clip-rule="evenodd" d="M59.9333 1.42032H67.5767L61.076 8.04391L65.3051 14.8951H57.3613L53.3371 8.29429L59.9333 1.42032Z" fill="#ED1C24"/>
<path fill-rule="evenodd" clip-rule="evenodd" d="M21.5803 17.9224H22.2905L22.5909 19.1242L22.987 17.9224H23.6471L24.0431 19.1242L24.3572 17.9224H25.0537L24.3572 19.8344H23.7108L23.3102 18.6917L22.9415 19.8344H22.2905L21.5803 17.9224Z" fill="#2B3C67"/>
<path fill-rule="evenodd" clip-rule="evenodd" d="M26.1233 17.9224H26.8334L27.1475 19.1242L27.5299 17.9224H28.19L28.5861 19.1242L28.9002 17.9224H29.6103L28.9002 19.8344H28.2538L27.8668 18.6917L27.4935 19.8344H26.8334L26.1233 17.9224Z" fill="#2B3C67"/>
<path fill-rule="evenodd" clip-rule="evenodd" d="M30.6805 17.9224H31.3906L31.6911 19.1242L32.0871 17.9224H32.7336L33.1433 19.1242L33.4574 17.9224H34.1539L33.4574 19.8344H32.7973L32.4103 18.6917L32.0371 19.8344H31.3906L30.6805 17.9224Z" fill="#2B3C67"/>
<path fill-rule="evenodd" clip-rule="evenodd" d="M35.2234 19.1014H36.0019V19.8344H35.2234V19.1014Z" fill="#2B3C67"/>
<path fill-rule="evenodd" clip-rule="evenodd" d="M38.3965 17.1986V17.9179H38.7925V18.4596H38.3965V19.1333C38.3965 19.2153 38.3965 19.279 38.4193 19.3018C38.442 19.3382 38.4784 19.3609 38.5376 19.3609C38.5968 19.3609 38.6696 19.3382 38.7652 19.3109L38.8244 19.8162C38.6423 19.8526 38.4648 19.8754 38.3055 19.8754C38.1234 19.8754 37.9913 19.8526 37.9094 19.8025C37.8275 19.7524 37.7546 19.6842 37.7182 19.584C37.6818 19.4884 37.659 19.3427 37.659 19.1288V18.455H37.3813V17.9133H37.659V17.5628L38.3919 17.1895L38.3965 17.1986Z" fill="#2B3C67"/>
<path fill-rule="evenodd" clip-rule="evenodd" d="M40.2354 17.1986H40.9683V17.6902H40.2354V17.1986ZM40.2354 17.9178H40.9683V19.8298H40.2354V17.9178Z" fill="#2B3C67"/>
<path fill-rule="evenodd" clip-rule="evenodd" d="M42.5071 17.1986H43.2491V18.5597L43.8045 17.9224H44.7059L44.0185 18.5961L44.7423 19.8343H43.9138L43.5268 19.0741L43.2491 19.3381V19.8343H42.5071V17.1986Z" fill="#2B3C67"/>
<path fill-rule="evenodd" clip-rule="evenodd" d="M46.0534 17.1986H46.7863V17.6902H46.0534V17.1986ZM46.0534 17.9178H46.7863V19.8298H46.0534V17.9178Z" fill="#2B3C67"/>
<path fill-rule="evenodd" clip-rule="evenodd" d="M48.3251 17.9224H49.0079V18.2365C49.1035 18.1181 49.2128 18.018 49.322 17.9588C49.4176 17.9087 49.5497 17.886 49.6953 17.886C49.9002 17.886 50.055 17.9451 50.1779 18.068C50.2871 18.1864 50.3463 18.3685 50.3463 18.6189V19.8343H49.6134V18.7873C49.6134 18.6689 49.5906 18.5825 49.5406 18.5369C49.5041 18.4778 49.4313 18.455 49.3585 18.455C49.2629 18.455 49.19 18.4914 49.1399 18.5642C49.0808 18.6234 49.058 18.7463 49.058 18.9239V19.8389H48.3251V17.9224Z" fill="#2B3C67"/>
<path fill-rule="evenodd" clip-rule="evenodd" d="M53.9745 19.065H52.495C52.5178 19.1834 52.5451 19.2699 52.5906 19.329C52.6634 19.411 52.759 19.4474 52.8774 19.4474C52.9502 19.4474 53.0094 19.4337 53.0823 19.3973C53.1187 19.3746 53.1551 19.3245 53.2006 19.279L53.9199 19.3381C53.8106 19.5293 53.6786 19.675 53.5238 19.7569C53.3691 19.8389 53.1414 19.8753 52.8501 19.8753C52.5997 19.8753 52.404 19.8389 52.2628 19.7661C52.1081 19.6932 51.9852 19.584 51.8896 19.4292C51.8076 19.2744 51.7575 19.0923 51.7575 18.8784C51.7575 18.5779 51.8531 18.3366 52.0352 18.1591C52.2264 17.9679 52.4905 17.8814 52.8273 17.8814C53.105 17.8814 53.319 17.9178 53.4783 17.9998C53.6331 18.0817 53.756 18.2046 53.8379 18.3594C53.9199 18.5142 53.97 18.719 53.97 18.974V19.0559L53.9745 19.065ZM53.2279 18.7145C53.2143 18.5688 53.1688 18.4732 53.1096 18.4004C53.0504 18.3412 52.9639 18.3184 52.8683 18.3184C52.7499 18.3184 52.6498 18.3685 52.5906 18.4504C52.5405 18.5096 52.5178 18.5961 52.5087 18.7145H53.2279Z" fill="#2B3C67"/>
<path fill-rule="evenodd" clip-rule="evenodd" d="M56.2551 17.1986V17.9179H56.6511V18.4596H56.2551V19.1333C56.2551 19.2153 56.2687 19.279 56.2778 19.3018C56.3006 19.3382 56.337 19.3609 56.3962 19.3609C56.4554 19.3609 56.5282 19.3382 56.6238 19.3109L56.683 19.8162C56.5009 19.8526 56.3325 19.8754 56.1777 19.8754C55.9865 19.8754 55.8545 19.8526 55.768 19.8025C55.686 19.7524 55.6223 19.6842 55.5768 19.584C55.5404 19.4884 55.5176 19.3427 55.5176 19.1288V18.455H55.2536V17.9133H55.5176V17.5628L56.2505 17.1895L56.2551 17.1986Z" fill="#2B3C67"/>
<path fill-rule="evenodd" clip-rule="evenodd" d="M58.0716 19.1014H58.8501V19.8344H58.0716V19.1014Z" fill="#2B3C67"/>
<path fill-rule="evenodd" clip-rule="evenodd" d="M61.7952 19.0878L62.4917 19.1697C62.4417 19.3154 62.3825 19.4337 62.3005 19.543C62.2186 19.6522 62.0957 19.7342 61.9637 19.7934C61.8316 19.8525 61.6496 19.8753 61.4447 19.8753C61.2399 19.8753 61.0714 19.8525 60.9394 19.8161C60.7937 19.7797 60.689 19.7205 60.5889 19.634C60.4887 19.5475 60.4068 19.4519 60.3613 19.3336C60.3021 19.2243 60.2793 19.0696 60.2793 18.8784C60.2793 18.6872 60.3157 18.5187 60.3749 18.3958C60.425 18.3002 60.4933 18.2046 60.5798 18.1318C60.6617 18.0589 60.7482 17.9998 60.8438 17.9633C60.9895 17.9042 61.167 17.8814 61.3855 17.8814C61.6996 17.8814 61.9364 17.9315 62.1048 18.0362C62.2596 18.1545 62.3825 18.3139 62.4553 18.5278L61.7588 18.6234C61.7361 18.5415 61.6996 18.4778 61.6405 18.4322C61.5904 18.3958 61.5084 18.373 61.4128 18.373C61.2945 18.373 61.1943 18.4231 61.126 18.5051C61.0532 18.587 61.0077 18.7236 61.0077 18.9011C61.0077 19.0559 61.0578 19.1788 61.126 19.2607C61.1989 19.3427 61.2945 19.3791 61.4037 19.3791C61.4993 19.3791 61.5858 19.3563 61.645 19.3063C61.7178 19.2562 61.7634 19.1879 61.7998 19.0787L61.7952 19.0878Z" fill="#2B3C67"/>
<path fill-rule="evenodd" clip-rule="evenodd" d="M63.803 18.8829C63.803 18.5961 63.8986 18.3548 64.0898 18.1636C64.2947 17.9724 64.5587 17.886 64.8956 17.886C65.2689 17.886 65.5557 17.9952 65.7605 18.2092C65.9153 18.3913 65.9881 18.6189 65.9881 18.8692C65.9881 19.1697 65.8925 19.411 65.7013 19.6022C65.5101 19.7843 65.2324 19.8799 64.8956 19.8799C64.5815 19.8799 64.3447 19.7979 64.149 19.6386C63.9214 19.4474 63.7985 19.1925 63.7985 18.8829H63.803ZM64.5359 18.8829C64.5359 19.0513 64.5724 19.1834 64.6315 19.2699C64.7044 19.3518 64.7863 19.3882 64.8956 19.3882C65.0048 19.3882 65.0868 19.3518 65.1459 19.2699C65.2188 19.1879 65.2552 19.0513 65.2552 18.8829C65.2552 18.7145 65.2188 18.5825 65.1459 18.5096C65.0868 18.4277 65.0003 18.3913 64.8956 18.3913C64.8 18.3913 64.7044 18.4277 64.6315 18.5096C64.5724 18.5916 64.5359 18.7145 64.5359 18.8829Z" fill="#2B3C67"/>
<path fill-rule="evenodd" clip-rule="evenodd" d="M67.3718 19.1014H68.1548V19.8344H67.3718V19.1014Z" fill="#2B3C67"/>
<path fill-rule="evenodd" clip-rule="evenodd" d="M69.6933 17.1986H70.4263V17.6902H69.6933V17.1986ZM69.6933 17.9178H70.4263V19.8298H69.6933V17.9178Z" fill="#2B3C67"/>
<path fill-rule="evenodd" clip-rule="evenodd" d="M73.9726 17.1986V19.8298H73.2898V19.5521C73.1942 19.6705 73.1077 19.7569 73.0257 19.7934C72.9165 19.8525 72.7981 19.8753 72.6752 19.8753C72.4112 19.8753 72.22 19.7797 72.0743 19.5749C71.9423 19.3837 71.8695 19.1424 71.8695 18.8556C71.8695 18.5415 71.9423 18.3048 72.0971 18.1363C72.2519 17.9679 72.4476 17.886 72.6752 17.886C72.7845 17.886 72.8937 17.8996 72.9893 17.936C73.0849 17.9861 73.1578 18.0316 73.2306 18.1181V17.2031H73.9772L73.9726 17.1986ZM73.2397 18.8692C73.2397 18.7236 73.2033 18.6052 73.1441 18.5324C73.0849 18.4595 72.9984 18.4231 72.9028 18.4231C72.8209 18.4231 72.7481 18.4595 72.6843 18.5324C72.6251 18.6052 72.6024 18.7236 72.6024 18.892C72.6024 19.0468 72.6251 19.156 72.6843 19.2289C72.7435 19.3017 72.8163 19.3381 72.9119 19.3381C72.9939 19.3381 73.0804 19.3017 73.1395 19.2289C73.1987 19.156 73.2352 19.0377 73.2352 18.8692H73.2397Z" fill="#2B3C67"/>
</g>
<defs>
<clipPath id="clip0_1801_11576">
<rect width="80" height="19.8799" fill="white"/>
</clipPath>
</defs>
</svg>
