<svg width="80" height="25" viewBox="0 0 80 25" fill="none" xmlns="http://www.w3.org/2000/svg">
<g clip-path="url(#clip0_1801_11509)">
<g clip-path="url(#clip1_1801_11509)">
<path d="M24.904 3.90796L17.2566 15.8483H11.7359L10.0181 13.926L13.6989 10.2249L16.2141 14.1508L14.8035 11.3091C14.8035 11.3091 18.0009 6.18151 18.6515 5.16728C19.302 4.15305 19.5878 3.90796 20.733 3.90796H24.904Z" fill="#264FB5"/>
<path d="M16.1317 5.28809L9.40478 15.8483H3.88524L0.153595 9.8781H5.45854L8.36231 14.1507L6.95165 11.3091C6.95165 11.3091 9.22859 7.56163 9.87914 6.5474C10.5297 5.53317 10.8154 5.28809 11.9607 5.28809H16.1317Z" fill="#264FB5"/>
<path d="M0 9.04449H5.45855C5.45855 9.04449 9.24215 -1.16333 24.433 3.23242C24.433 3.23242 19.0513 -1.47618 10.0181 0.47209C1.67608 2.27128 0 9.04449 0 9.04449Z" fill="#264FB5"/>
<path d="M30.7511 6.52466H25.8437C24.9029 6.52466 24.7594 6.70876 24.1462 7.64957C23.5329 8.59039 18.9734 15.8481 18.9734 15.8481H23.063L24.0445 14.3347H27.1324L27.234 15.8481H31.344L30.7511 6.52466ZM26.9889 12.0962H25.3784L26.9889 9.71982V12.0962Z" fill="#264FB5"/>
<path d="M55.1174 6.52466H50.2101C49.2692 6.52466 49.1258 6.70876 48.5125 7.64957C47.8992 8.59039 43.3397 15.8481 43.3397 15.8481H47.4294L48.4109 14.3347H51.4987L51.6004 15.8481H55.7104L55.1174 6.52466ZM51.3553 12.0962H49.7447L51.3553 9.71982V12.0962Z" fill="#264FB5"/>
<path d="M79.3924 6.52466H74.485C73.5441 6.52466 73.4007 6.70876 72.7874 7.64957C72.1742 8.59039 67.6146 15.8481 67.6146 15.8481H71.7043L72.6858 14.3347H75.7737L75.8753 15.8481H79.9853L79.3924 6.52466ZM75.6302 12.0962H74.0196L75.6302 9.71982V12.0962Z" fill="#264FB5"/>
<path d="M40.9612 6.52466L40.1186 9.6114H37.9738L38.8175 6.52466H34.7278L32.1821 15.8481H36.2717L37.1312 12.6993H39.2749L38.4154 15.8481H42.5051L45.0508 6.52466H40.9612Z" fill="#264FB5"/>
<path d="M65.3953 6.52466L64.1416 11.1169L63.0811 6.52466H58.9914L56.4457 15.8481H60.5354L61.8274 11.1135L62.8496 15.8481H66.9392L69.485 6.52466H65.3953Z" fill="#264FB5"/>
<path d="M53.237 18.3432H57.3108L56.9562 19.6533H54.4511L54.3212 20.1378H56.6557L56.3485 21.291H54.014L53.8706 21.8094H56.4095L56.0617 23.1195H51.9528L53.2358 18.342L53.237 18.3432Z" fill="#D11515"/>
<path d="M58.028 21.203L57.2973 19.3948H58.8739L59.1123 20.1594L59.7402 19.3948H61.4253L59.6984 21.2854L60.4427 23.1208H58.866L58.613 22.329L57.9647 23.1208H56.2785L58.0257 21.203H58.028Z" fill="#D11515"/>
<path d="M61.6095 19.3946H63.159L63.0563 19.7764C63.3228 19.5031 63.7249 19.3054 64.1213 19.3054C64.7832 19.3054 65.3422 19.8374 65.3422 20.759C65.3422 22.1177 64.476 23.2087 63.3838 23.2087C62.8518 23.2087 62.504 22.9693 62.2916 22.6429L61.8681 24.2128H60.3185L61.6083 19.3946H61.6095ZM63.8006 21.1012C63.8006 20.7805 63.5893 20.5693 63.3025 20.5693C62.8789 20.5693 62.5729 20.9713 62.5729 21.4084C62.5729 21.7292 62.7841 21.9404 63.0709 21.9404C63.4945 21.9404 63.8017 21.5383 63.8017 21.1012H63.8006Z" fill="#D11515"/>
<path d="M66.1882 19.3946H67.7377L67.5401 20.1457C67.8879 19.6409 68.3183 19.3133 68.9191 19.3404L68.482 20.9849H68.3183C67.5886 20.9849 67.199 21.3745 66.9878 22.1934L66.7427 23.1218H65.1931L66.1893 19.3958L66.1882 19.3946Z" fill="#D11515"/>
<path d="M70.5625 22.1178C70.8155 22.1178 71.0538 22.015 71.3135 21.8174L72.0307 22.6023C71.6072 22.9773 71.0888 23.21 70.4337 23.21C69.3009 23.21 68.6052 22.5481 68.6052 21.5723C68.6052 20.4395 69.4511 19.3066 70.8708 19.3066C72.0996 19.3066 72.5085 20.139 72.5085 20.924C72.5085 21.1691 72.4678 21.4085 72.3989 21.6197H70.0034C70.0237 21.9201 70.2146 22.1178 70.5636 22.1178H70.5625ZM71.1498 20.9364C71.1701 20.8822 71.1769 20.8269 71.1769 20.7726C71.1769 20.5682 71.0267 20.3773 70.7748 20.3773C70.5421 20.3773 70.2428 20.5208 70.0994 20.9375H71.1509L71.1498 20.9364Z" fill="#D11515"/>
<path d="M72.2205 22.5887L72.9026 21.7009C73.2369 21.9675 73.8175 22.2058 74.2399 22.2058C74.3969 22.2058 74.4579 22.1448 74.4579 22.0759C74.4579 21.9528 74.3415 21.8918 73.8773 21.7213C73.2765 21.5022 72.8608 21.23 72.8608 20.6427C72.8608 19.8984 73.4888 19.3054 74.6081 19.3054C75.3592 19.3054 75.9939 19.5302 76.3689 19.8171L75.6867 20.7048C75.3998 20.5071 74.9221 20.3084 74.5539 20.3084C74.3833 20.3084 74.3088 20.3558 74.3088 20.4315C74.3088 20.5342 74.3912 20.5749 74.8475 20.7387C75.4416 20.9499 75.9058 21.2096 75.9058 21.8647C75.9058 22.4859 75.4687 23.2087 74.2128 23.2087C73.3668 23.2087 72.6767 22.9354 72.2205 22.5876V22.5887Z" fill="#D11515"/>
<path d="M75.8505 22.5887L76.5326 21.7009C76.867 21.9675 77.4475 22.2058 77.8699 22.2058C78.0269 22.2058 78.0879 22.1448 78.0879 22.0759C78.0879 21.9528 77.9715 21.8918 77.5073 21.7213C76.9065 21.5022 76.4909 21.23 76.4909 20.6427C76.4909 19.8984 77.1188 19.3054 78.2381 19.3054C78.9892 19.3054 79.6239 19.5302 79.9989 19.8171L79.3167 20.7048C79.0298 20.5071 78.5521 20.3084 78.1839 20.3084C78.0133 20.3084 77.9388 20.3558 77.9388 20.4315C77.9388 20.5342 78.0212 20.5749 78.4775 20.7387C79.0716 20.9499 79.5358 21.2096 79.5358 21.8647C79.5358 22.4859 79.0987 23.2087 77.8428 23.2087C76.9968 23.2087 76.3068 22.9354 75.8505 22.5876V22.5887Z" fill="#D11515"/>
</g>
</g>
<defs>
<clipPath id="clip0_1801_11509">
<rect width="80" height="24.2128" fill="white"/>
</clipPath>
<clipPath id="clip1_1801_11509">
<rect width="80" height="24.2128" fill="white"/>
</clipPath>
</defs>
</svg>
