<svg width="80" height="28" viewBox="0 0 80 28" fill="none" xmlns="http://www.w3.org/2000/svg">
<g clip-path="url(#clip0_1801_11190)">
<path fill-rule="evenodd" clip-rule="evenodd" d="M7.38031 14.0506C7.38031 10.6885 8.89771 7.91124 11.3383 6.13318C11.6967 5.87252 12.1202 5.59635 12.55 5.37448C12.7719 5.26122 12.9953 5.14175 13.2249 5.04711C13.4452 4.95712 13.7106 4.86403 13.9107 4.77249C13.8859 4.57855 13.3087 3.95949 13.3087 3.95949C12.8991 3.99517 11.692 4.55372 11.3103 4.74456C9.82552 5.4924 8.41984 6.52572 7.24223 7.66299L6.20891 8.74286C5.82258 9.21297 5.69225 9.33244 5.28264 9.89409C4.90717 10.4092 4.58135 11.0453 4.31759 11.7233C3.66129 13.4145 3.25324 14.6371 3.25324 16.5936C3.25324 19.1117 4.63566 21.1194 6.63092 22.4103C8.31278 23.4995 9.8007 23.9727 11.8037 24.1449C12.3995 24.1961 14.266 24.3497 14.8758 24.2504C14.8804 23.3877 14.7268 22.4832 14.7268 21.5725C14.7268 20.6617 14.747 17.6036 14.9207 16.9256C14.9968 16.9644 15.0014 17.011 15.0356 17.1211C15.5072 18.5904 16.449 20.7982 17.3644 21.9216C17.8128 22.4708 18.1557 22.6539 19.1114 22.6539C19.8391 22.6539 20.5652 22.6492 21.2913 22.5003C21.5396 22.4491 21.552 22.207 21.6218 21.9665C21.687 21.7431 21.7552 21.5476 21.8297 21.3165C22.1136 20.4445 22.4302 19.6315 22.7637 18.8123C23.5752 16.817 25.406 13.3757 26.717 11.6256C26.8489 11.4503 26.9467 11.2889 27.0692 11.1198C27.8853 9.9996 29.2057 8.3348 30.1614 7.36975L30.9946 6.52882C30.8426 6.30385 30.7355 6.29299 30.3833 6.33643L28.2251 6.69328C26.1957 7.10754 22.0609 8.01364 21.026 9.55431C20.4225 10.4526 18.5544 15.717 18.196 16.8263C18.1526 16.9582 17.4637 19.1614 17.3892 19.2762L17.3551 19.3119C17.1425 19.0993 16.449 17.5711 16.3063 17.1785C16.0332 16.4322 15.7306 15.4765 15.7306 14.589C15.7306 13.2873 16.0099 12.9351 16.5002 11.9437C16.7997 11.3386 16.7097 11.3603 16.4288 10.7878C16.2349 10.3921 16.0534 10.147 15.8222 9.81962C15.4762 9.33244 14.598 8.56133 13.7369 9.14625C11.5663 10.6202 10.9147 16.1576 10.7409 18.7921C10.7083 19.2855 10.6789 19.7929 10.6618 20.2847C10.6447 20.7626 10.668 21.3816 10.6168 21.8393C10.3577 21.7757 9.98843 21.408 9.82708 21.2591C7.99937 19.571 7.37721 16.5393 7.37721 14.0537L7.38031 14.0506ZM74.3133 20.3002C73.415 20.3002 73.1171 19.3801 73.7796 18.8914C74.1302 18.6323 75.3435 18.3375 75.8866 18.3561L75.8943 19.7541C75.418 20.0147 74.9603 20.3002 74.3133 20.3002ZM72.2715 16.9706C73.5531 16.9706 73.4895 15.7589 74.0666 15.3803C74.4064 15.1584 74.9898 15.0917 75.4025 15.2888C75.868 15.5106 75.8974 15.8845 75.8974 16.4865C75.899 16.7612 75.9192 16.7177 75.8726 16.9737C75.3653 17.0916 74.6066 17.1041 74.0527 17.1956C72.6563 17.4268 70.5152 17.931 70.5152 19.7106C70.5152 21.1892 71.7936 22.0395 73.204 22.0395C73.8696 22.0395 74.3769 21.9309 74.9572 21.7136C75.6275 21.4623 75.7594 21.3056 76.2481 21.0853C76.3676 21.1582 76.5227 21.3537 76.6748 21.4685C77.5591 22.1434 78.9679 22.1822 79.9997 21.8083L80.0028 20.2583C79.8104 20.2707 78.6793 20.6695 78.608 19.7122C78.5257 18.5982 78.7119 16.7736 78.5443 15.6658C78.414 14.8093 77.9967 14.4261 77.3528 14.0941C75.7175 13.2516 73.0535 13.4983 71.6354 14.5937C70.571 15.4144 70.8363 16.9706 72.2746 16.9706H72.2715ZM30.4267 19.7463C28.3058 21.0155 27.5952 19.7758 28.1212 19.0823C28.4098 18.7006 29.0986 18.5485 29.7099 18.4461C30.5354 18.3065 30.4376 18.2941 30.4314 18.6354C30.4236 19.0047 30.4392 19.3786 30.4267 19.7479V19.7463ZM26.852 16.9706C25.4634 16.9706 25.0041 15.6115 26.1724 14.589C27.4571 13.4642 30.298 13.2625 31.9814 14.1499C32.6811 14.5177 33.0256 14.9769 33.1078 15.9637C33.1823 16.8605 33.1295 17.962 33.1295 18.8852C33.1295 19.3057 33.0519 19.9371 33.3188 20.1559C33.8261 20.5733 34.1597 20.1978 34.5398 20.2862C34.5523 20.5081 34.5662 21.6811 34.529 21.7695C34.453 21.8548 34.5305 21.799 34.4049 21.8548L33.9099 21.9619C32.9852 22.1264 31.9659 22.0503 31.2103 21.4732C31.0411 21.3428 30.9775 21.2047 30.7898 21.0868C30.6067 21.152 30.36 21.3118 30.1645 21.4111C29.4198 21.785 28.6595 22.0379 27.7814 22.0379C26.4005 22.0379 25.0445 21.1985 25.0445 19.8518C25.0445 16.9008 29.8356 17.2468 30.4236 16.9473C30.464 15.9575 30.5012 15.1693 29.3221 15.1693C29.0397 15.1693 28.7387 15.281 28.5432 15.4191C28.0777 15.7511 28.025 16.9691 26.8505 16.9691L26.852 16.9706ZM53.1039 18.3592C53.1086 18.727 53.0993 19.0947 53.107 19.4608C53.1117 19.6951 53.1086 19.7634 52.9317 19.8565C52.8231 19.9139 52.6865 19.979 52.5702 20.0318C50.6602 20.896 49.9931 19.3336 51.2731 18.7347C51.5819 18.5904 52.7424 18.3344 53.1039 18.3592ZM57.1937 21.7819C57.2837 21.619 57.2294 21.1148 57.2294 20.8913C57.2294 20.2149 57.2806 20.2226 56.992 20.2924C56.4335 20.429 55.8672 20.325 55.8222 19.7448C55.7306 18.592 55.8641 17.298 55.8005 16.125C55.7322 14.8559 55.2559 14.3718 54.2738 13.9575C53.3661 13.5743 52.1373 13.5169 51.09 13.6798C47.5339 14.2337 47.6099 16.8682 49.3833 16.966C50.8201 17.0451 50.6416 15.6766 51.3988 15.3089C51.8348 15.0979 52.4833 15.1352 52.8215 15.4098C53.1861 15.7061 53.1272 16.4121 53.1008 16.9458C52.9689 17.0141 51.5291 17.1475 51.211 17.2002C50.6153 17.2995 50.0319 17.4407 49.4935 17.6316C48.5191 17.9745 47.5137 18.7688 47.7589 20.1575C47.9497 21.2435 48.9722 21.9231 50.1793 22.0209C51.9154 22.162 53.1396 21.1691 53.467 21.0868C53.6206 21.1846 53.6749 21.2777 53.7928 21.3894C54.7656 22.3125 56.9408 22.0488 57.1937 21.7819ZM63.5736 21.7168C63.5783 21.6795 63.5736 21.5802 63.5736 21.5368C63.5736 21.4173 63.5736 21.2978 63.5736 21.1784C63.5736 21.003 63.5954 20.6074 63.5736 20.4585C63.524 20.1078 62.7374 20.5733 62.6148 19.9837C62.4922 19.3957 62.5682 17.8922 62.5682 17.2034C62.5682 16.3174 62.4689 16.3593 62.8941 16.0987C63.4123 15.7806 64.4208 15.2407 65.029 15.6363C65.3424 15.8396 65.3424 16.2693 65.3439 16.7007C65.347 17.6471 65.3284 18.5982 65.3284 19.5322C65.3284 20.1264 65.2865 20.3033 64.6783 20.3142C64.278 20.3219 64.3168 20.2862 64.3215 20.6772C64.3246 20.9038 64.3215 21.1318 64.3215 21.3583C64.3215 21.8548 64.261 21.8828 64.4952 21.8936C65.1919 21.9262 69.3345 21.8936 69.4058 21.8704C69.4958 21.6997 69.4322 21.0651 69.4353 20.7129C69.4384 20.3576 69.4136 20.4523 69.4058 20.384C69.395 20.2754 68.6875 20.3219 68.509 20.2971C68.2049 20.2552 68.1475 20.0442 68.1289 19.7432C68.025 18.1374 68.4098 15.4843 67.7054 14.5332C67.1965 13.8443 66.1212 13.4331 64.9266 13.5526C63.4154 13.7046 62.531 14.5518 62.2455 14.5657L62.2191 13.5759C62.0749 13.4967 62.0966 13.5402 62.0966 13.5402C61.4667 13.4502 60.9748 13.7046 60.3728 13.8707C59.6327 14.0755 58.9485 14.1267 58.5219 14.2399C58.48 14.4292 58.4831 15.5991 58.5219 15.8008C58.7887 15.8039 59.5536 15.7527 59.7383 15.8318C59.7522 15.852 59.76 15.8582 59.7755 15.9047L59.7941 16.1623C59.7895 16.8636 59.8577 19.8022 59.7119 20.0799C59.4714 20.5376 58.5901 20.1218 58.5141 20.4305L58.511 21.8735C59.1332 21.8797 63.2882 21.9743 63.5302 21.8626L63.5752 21.7183L63.5736 21.7168ZM36.8547 12.2167C36.954 12.3921 36.8951 18.156 36.8951 19.1722C36.8951 20.5422 36.7756 20.1264 35.6538 20.2707C35.5918 20.4786 35.6026 21.6407 35.6538 21.8704C35.8819 21.9231 40.5893 21.9185 40.6637 21.8409C40.7367 21.7555 40.7367 20.3793 40.6591 20.3064C40.476 20.1156 39.9019 20.4026 39.7545 19.9852C39.663 19.7261 39.6583 16.4012 39.7204 16.2693C39.9206 16.0195 40.8468 15.6208 41.2875 15.5494C42.2168 15.3974 42.4759 15.7589 42.4744 16.6277C42.4744 17.0234 42.5411 19.7866 42.4046 20.0349C42.2401 20.3343 41.8088 20.2009 41.469 20.2785C41.4659 20.5531 41.4535 20.8262 41.4535 21.1054L41.4628 21.754C41.4829 21.8983 41.4271 21.844 41.545 21.8828C41.5931 21.8983 46.4059 21.9122 46.5533 21.8673C46.6604 21.664 46.6077 20.5516 46.5735 20.2583C46.0212 20.218 45.3168 20.4135 45.278 19.7773C45.1989 18.4399 45.5076 15.5525 44.946 14.6899C44.1609 13.4843 42.3766 13.3137 40.9973 13.8303C40.7692 13.9157 40.58 13.9886 40.3643 14.0925C40.161 14.1903 39.9206 14.3609 39.6987 14.3951V9.92047C38.4357 9.92047 39.1215 9.87858 38.0541 10.1718C37.5421 10.313 37.0301 10.4294 36.4917 10.5085C36.3862 10.524 35.7175 10.5923 35.6802 10.6202C35.5995 10.6807 35.6213 11.8133 35.6321 12.0104C35.643 12.2152 35.6957 12.1748 35.913 12.1702C36.1752 12.1655 36.6546 12.0957 36.8547 12.2152V12.2167ZM15.7027 2.0449C15.4265 2.17988 14.9037 2.28694 14.7097 2.48088C14.6229 2.66551 15.228 5.16503 14.6647 4.49632C14.5577 4.36909 14.536 4.34272 14.4056 4.21704C14.0581 3.88346 13.2358 2.87807 12.8882 2.51036C12.7641 2.37848 12.6959 2.40641 12.5221 2.47933C12.3887 2.53518 12.2785 2.57707 12.142 2.63758C11.0714 3.11546 9.67502 4.04793 8.8403 4.70733C7.98231 5.38534 7.27015 5.98889 6.54869 6.71345C5.05302 8.21689 3.86299 9.58379 2.78933 11.5511C1.75446 13.4486 0.89957 15.9063 1.22074 18.519C1.54345 21.138 2.89173 22.7858 4.45413 23.8749C9.11337 27.1254 16.7981 25.7321 21.6575 23.4343L23.8033 22.356C24.0562 22.2194 24.2734 22.0736 24.5247 21.9572C25.0274 22.2939 25.2322 22.6197 25.9506 22.975C26.5789 23.2853 27.4028 23.2031 28.1584 23.2419C28.1755 23.439 27.0522 24.0518 26.9079 24.134C26.4362 24.3993 25.977 24.6507 25.4541 24.902C22.1804 26.4737 18.6925 27.3767 14.9301 27.6327C12.1466 27.822 9.63313 27.5303 7.19258 26.6894C2.33474 25.0169 -0.451813 21.5988 0.060192 16.3097C0.175005 15.1274 0.531857 13.7807 0.958528 12.8048C1.66603 11.1881 2.41076 9.97322 3.45959 8.67614C3.80403 8.24947 4.12986 7.87555 4.48516 7.48146C5.78379 6.0463 7.67821 4.49632 9.2437 3.39318C10.0691 2.81136 11.0202 2.1985 11.9728 1.68339C11.8223 1.37309 10.7564 0.364592 10.7192 0.152033C11.1645 -0.406518 12.8913 0.73696 13.2141 0.963483C13.8192 1.3886 13.8611 1.12795 14.6337 1.33585C15.0681 1.45222 15.5879 1.7377 15.7012 2.0449H15.7027ZM15.591 2.96651C18.4148 1.8975 21.9368 1.0302 25.3113 1.0302H26.0638C29.305 1.0302 33.1078 1.88044 35.5794 3.8183C36.5739 4.59872 37.6522 5.8477 38.189 7.36975C38.2589 7.56835 38.5723 8.37514 38.4202 8.5303C38.2666 8.687 37.7034 9.01127 37.4614 9.11522C36.6763 9.45346 35.9098 9.65205 34.951 9.65205C34.8967 9.91116 34.8843 13.098 34.9014 13.5929L36.0743 13.6022C36.1441 13.852 36.0976 15.1243 36.0976 15.4827C36.0976 16.5331 36.2171 16.3112 35.6895 16.9427C35.3901 17.3011 35.1279 17.613 34.8253 17.976C34.695 18.1327 34.5554 18.3034 34.4049 18.4865L34.0744 18.8775C33.9565 18.9892 34.0247 18.938 33.986 18.9147C33.8851 18.7518 33.9549 18.291 33.9549 18.0613C33.9549 17.3833 33.9891 15.8861 33.9332 15.3756C33.8479 14.5813 33.4708 13.7403 32.737 13.43C32.6253 13.3819 32.5477 13.3788 32.4468 13.2981C32.4499 13.0608 32.6672 12.361 32.723 12.0414C33.055 10.1423 32.9278 8.60167 31.8231 7.00359L30.8581 5.85391C30.5369 5.53119 30.0482 5.1883 29.6572 4.94316C27.9288 3.85709 25.4184 3.18993 22.9841 3.18993C20.9981 3.18993 19.1363 3.3606 17.2232 3.81209C16.9595 3.87415 16.7267 3.92535 16.4723 3.99207C16.252 4.04948 15.9137 4.1705 15.7043 4.1705L15.5926 2.96651H15.591Z" fill="#163AC9"/>
<path fill-rule="evenodd" clip-rule="evenodd" d="M31.1125 25.248V26.3807H30.5664V23.3102C30.9294 23.2947 31.1435 23.2869 31.204 23.2869C31.6897 23.2869 32.045 23.3614 32.2699 23.5103C32.4949 23.6593 32.6066 23.892 32.6066 24.207C32.6066 24.9114 32.1908 25.2635 31.3592 25.2635C31.2971 25.2635 31.2149 25.2589 31.1109 25.248H31.1125ZM31.1125 23.7834V24.7624C31.2056 24.7717 31.2785 24.7779 31.3313 24.7779C31.5811 24.7779 31.7626 24.736 31.8774 24.6538C31.9922 24.5716 32.0496 24.4366 32.0496 24.2504C32.0496 23.9323 31.7921 23.7741 31.2785 23.7741C31.2211 23.7741 31.1652 23.7772 31.1125 23.7849V23.7834ZM35.5049 24.6228C35.4118 24.5592 35.3094 24.5281 35.1977 24.5281C35.0767 24.5281 34.9681 24.584 34.8734 24.6941C34.7788 24.8043 34.7322 24.9393 34.7322 25.0991V26.3791H34.2078V24.1309H34.7322V24.3373C34.8796 24.1713 35.0751 24.0875 35.3187 24.0875C35.4971 24.0875 35.6352 24.1154 35.7299 24.1697L35.5064 24.6197L35.5049 24.6228ZM39.196 25.4172H37.5901C37.5994 25.5956 37.6615 25.7352 37.7748 25.8361C37.888 25.9354 38.0401 25.985 38.2325 25.985C38.473 25.985 38.6545 25.9229 38.7786 25.8004L38.9819 26.2007C38.7972 26.3496 38.5226 26.4241 38.1549 26.4241C37.812 26.4241 37.542 26.3232 37.3419 26.1231C37.1433 25.9229 37.044 25.6421 37.044 25.2822C37.044 24.9222 37.1542 24.6398 37.3714 24.4211C37.5901 24.2007 37.8523 24.0921 38.1595 24.0921C38.4854 24.0921 38.7476 24.1899 38.9431 24.3838C39.1401 24.5793 39.2394 24.826 39.2394 25.127C39.2394 25.1922 39.2239 25.2884 39.1944 25.4187L39.196 25.4172ZM37.6119 25.0215H38.7119C38.6747 24.6926 38.4947 24.5281 38.1689 24.5281C37.871 24.5281 37.6848 24.6926 37.6119 25.0215ZM40.6715 26.2348L40.8577 25.8159C41.0144 25.9416 41.1912 26.0052 41.3883 26.0052C41.5853 26.0052 41.6939 25.9323 41.6939 25.7864C41.6939 25.7011 41.6629 25.6297 41.6008 25.5754C41.5388 25.5211 41.4209 25.4559 41.2424 25.3815C40.8546 25.2201 40.6622 24.9951 40.6622 24.705C40.6622 24.5095 40.7366 24.359 40.884 24.2504C41.033 24.1418 41.2207 24.0875 41.4519 24.0875C41.6831 24.0875 41.9049 24.1402 42.1097 24.2442L41.9592 24.6507C41.8444 24.5529 41.6862 24.5049 41.4814 24.5049C41.2983 24.5049 41.2068 24.5778 41.2068 24.7236C41.2068 24.781 41.2362 24.8338 41.2967 24.8803C41.3573 24.9269 41.4845 24.9889 41.6815 25.0665C41.8786 25.1441 42.0213 25.2387 42.1082 25.3489C42.1951 25.4606 42.2385 25.594 42.2385 25.7492C42.2385 25.9586 42.1609 26.1231 42.0058 26.2426C41.8522 26.362 41.6427 26.4225 41.3759 26.4225C41.2269 26.4225 41.1059 26.4101 41.0159 26.3853C40.9259 26.3605 40.8096 26.3108 40.6684 26.2348H40.6715ZM43.8847 24.5529H43.6225V24.1325H43.8847V23.6763L44.4091 23.4839V24.1325H45.0282V24.5529H44.4091V25.5382C44.4091 25.6995 44.4339 25.8128 44.4851 25.8795C44.5363 25.9462 44.6248 25.9788 44.7504 25.9788C44.8761 25.9788 44.9956 25.9447 45.1042 25.8749V26.3574C44.9832 26.3993 44.8079 26.421 44.5813 26.421C44.3548 26.421 44.1841 26.3574 44.0647 26.2317C43.9437 26.1045 43.8831 25.9245 43.8831 25.6902V24.5514L43.8847 24.5529ZM47.9094 26.1557C47.8628 26.2333 47.779 26.2984 47.6611 26.3481C47.5432 26.3977 47.4191 26.4225 47.2903 26.4225C47.0483 26.4225 46.859 26.362 46.7209 26.241C46.5828 26.12 46.513 25.9478 46.513 25.7259C46.513 25.4652 46.6107 25.2604 46.8047 25.1146C47.0002 24.9672 47.2763 24.8943 47.6347 24.8943C47.6968 24.8943 47.7682 24.9036 47.852 24.9238C47.852 24.66 47.6844 24.5281 47.3508 24.5281C47.1538 24.5281 46.9878 24.5607 46.8559 24.6274L46.7426 24.2194C46.9226 24.134 47.1383 24.0906 47.3865 24.0906C47.7294 24.0906 47.9807 24.1682 48.1405 24.3249C48.3003 24.4816 48.3795 24.7764 48.3795 25.2108V25.6918C48.3795 25.9912 48.44 26.179 48.5595 26.2565C48.516 26.3326 48.4679 26.3791 48.4152 26.3977C48.3624 26.4163 48.3019 26.4241 48.2321 26.4241C48.1561 26.4241 48.0878 26.3962 48.0273 26.3403C47.9668 26.2845 47.9264 26.2239 47.9063 26.1572L47.9094 26.1557ZM47.8582 25.3179C47.7682 25.3008 47.7015 25.2915 47.6565 25.2915C47.2438 25.2915 47.0374 25.428 47.0374 25.7011C47.0374 25.9043 47.1538 26.0052 47.3865 26.0052C47.7015 26.0052 47.8582 25.8469 47.8582 25.5289V25.3179ZM49.9589 26.2348L50.1451 25.8159C50.3018 25.9416 50.4787 26.0052 50.6757 26.0052C50.8728 26.0052 50.9814 25.9323 50.9814 25.7864C50.9814 25.7011 50.9504 25.6297 50.8883 25.5754C50.8262 25.5211 50.7083 25.4559 50.5299 25.3815C50.142 25.2201 49.9496 24.9951 49.9496 24.705C49.9496 24.5095 50.0241 24.359 50.1715 24.2504C50.3204 24.1418 50.5082 24.0875 50.7394 24.0875C50.9705 24.0875 51.1924 24.1402 51.3972 24.2442L51.2467 24.6507C51.1319 24.5529 50.9736 24.5049 50.7688 24.5049C50.5858 24.5049 50.4942 24.5778 50.4942 24.7236C50.4942 24.781 50.5237 24.8338 50.5842 24.8803C50.6447 24.9269 50.7719 24.9889 50.969 25.0665C51.166 25.1441 51.3088 25.2387 51.3957 25.3489C51.4825 25.4606 51.526 25.594 51.526 25.7492C51.526 25.9586 51.4484 26.1231 51.2933 26.2426C51.1396 26.362 50.9302 26.4225 50.6633 26.4225C50.5144 26.4225 50.3934 26.4101 50.3034 26.3853C50.2134 26.3605 50.097 26.3108 49.9558 26.2348H49.9589ZM53.5042 23.259C53.588 23.259 53.6609 23.2885 53.7198 23.349C53.7788 23.4079 53.8098 23.4793 53.8098 23.5646C53.8098 23.65 53.7804 23.7213 53.7198 23.7803C53.6609 23.8392 53.5895 23.8703 53.5042 23.8703C53.4189 23.8703 53.3475 23.8408 53.2885 23.7803C53.2296 23.7213 53.1985 23.6484 53.1985 23.5646C53.1985 23.4808 53.228 23.4079 53.2885 23.349C53.3475 23.29 53.4204 23.259 53.5042 23.259ZM53.2342 26.3791V24.5607H52.9456V24.1309H53.7664V26.3791H53.2342ZM56.8524 26.3791V23.3071H57.3985V25.8935H58.7871V26.3791H56.8524ZM60.199 25.2496C60.199 24.9067 60.2983 24.6274 60.4954 24.4118C60.6924 24.1961 60.9546 24.0875 61.2789 24.0875C61.6202 24.0875 61.884 24.1914 62.0733 24.3978C62.261 24.6041 62.3557 24.8881 62.3557 25.248C62.3557 25.608 62.2595 25.8919 62.0671 26.1029C61.8747 26.3139 61.6109 26.4194 61.2774 26.4194C60.9438 26.4194 60.6707 26.3124 60.4814 26.0998C60.2921 25.8857 60.1975 25.6018 60.1975 25.248L60.199 25.2496ZM60.7452 25.2496C60.7452 25.7445 60.9236 25.9912 61.2789 25.9912C61.4418 25.9912 61.5706 25.9261 61.6668 25.7988C61.7614 25.67 61.8095 25.487 61.8095 25.2496C61.8095 24.7624 61.6327 24.5173 61.2774 24.5173C61.1129 24.5173 60.9841 24.5824 60.8879 24.7097C60.7917 24.8384 60.7436 25.0184 60.7436 25.2496H60.7452ZM63.7582 26.9547L64.0903 26.5451C64.2734 26.7142 64.4782 26.798 64.7031 26.798C64.8536 26.798 64.9793 26.7747 65.077 26.7297C65.1748 26.6847 65.2244 26.6227 65.2244 26.5436C65.2244 26.4101 65.1158 26.3419 64.8986 26.3419C64.8397 26.3419 64.7512 26.3496 64.6364 26.3636C64.52 26.3775 64.4332 26.3853 64.3742 26.3853C64.0127 26.3853 63.8327 26.255 63.8327 25.9959C63.8327 25.9214 63.8622 25.8485 63.9227 25.7771C63.9832 25.7057 64.053 25.653 64.1322 25.6188C63.8762 25.4528 63.7474 25.2186 63.7474 24.9145C63.7474 24.674 63.8358 24.4769 64.0127 24.3187C64.1896 24.162 64.4068 24.0844 64.6643 24.0844C64.866 24.0844 65.0351 24.1216 65.1717 24.1976L65.378 23.9603L65.7411 24.2876L65.4898 24.4692C65.5766 24.5995 65.6201 24.7546 65.6201 24.9331C65.6201 25.1875 65.5425 25.3908 65.3858 25.5444C65.2291 25.6964 65.032 25.774 64.7931 25.774C64.7559 25.774 64.7047 25.7709 64.6426 25.7647L64.5557 25.7538C64.5464 25.7538 64.5092 25.7693 64.444 25.7988C64.3789 25.8299 64.3478 25.8609 64.3478 25.8919C64.3478 25.9478 64.3959 25.9757 64.4921 25.9757C64.5356 25.9757 64.6085 25.9648 64.7109 25.9431C64.8133 25.9214 64.9002 25.9105 64.9731 25.9105C65.4835 25.9105 65.7395 26.1153 65.7395 26.5265C65.7395 26.753 65.6372 26.9314 65.4324 27.0618C65.2275 27.1921 64.9809 27.2557 64.6923 27.2557C64.3478 27.2557 64.036 27.1533 63.7582 26.9516V26.9547ZM64.2827 24.9191C64.2827 25.051 64.3199 25.1565 64.3944 25.2356C64.4688 25.3147 64.5681 25.3551 64.6923 25.3551C64.8164 25.3551 64.9141 25.3163 64.9809 25.2387C65.0476 25.1611 65.0817 25.0541 65.0817 24.9191C65.0817 24.8074 65.0445 24.7128 64.9731 24.6352C64.9002 24.5576 64.8071 24.5188 64.6923 24.5188C64.5712 24.5188 64.4735 24.5561 64.3975 24.6305C64.3215 24.705 64.2842 24.8012 64.2842 24.9191H64.2827ZM67.6402 23.259C67.724 23.259 67.7969 23.2885 67.8558 23.349C67.9148 23.4079 67.9458 23.4793 67.9458 23.5646C67.9458 23.65 67.9163 23.7213 67.8558 23.7803C67.7953 23.8392 67.7255 23.8703 67.6402 23.8703C67.5548 23.8703 67.4835 23.8408 67.4245 23.7803C67.3656 23.7213 67.3345 23.6484 67.3345 23.5646C67.3345 23.4808 67.364 23.4079 67.4245 23.349C67.4835 23.29 67.5564 23.259 67.6402 23.259ZM67.3702 26.3791V24.5607H67.0816V24.1309H67.9024V26.3791H67.3702ZM69.5253 26.2348L69.7115 25.8159C69.8682 25.9416 70.045 26.0052 70.2421 26.0052C70.4391 26.0052 70.5477 25.9323 70.5477 25.7864C70.5477 25.7011 70.5167 25.6297 70.4547 25.5754C70.3926 25.5211 70.2747 25.4559 70.0962 25.3815C69.7084 25.2201 69.516 24.9951 69.516 24.705C69.516 24.5095 69.5905 24.359 69.7378 24.2504C69.8868 24.1418 70.0745 24.0875 70.3057 24.0875C70.5369 24.0875 70.7587 24.1402 70.9635 24.2442L70.8131 24.6507C70.6982 24.5529 70.54 24.5049 70.3352 24.5049C70.1521 24.5049 70.0606 24.5778 70.0606 24.7236C70.0606 24.781 70.09 24.8338 70.1506 24.8803C70.2111 24.9269 70.3383 24.9889 70.5353 25.0665C70.7324 25.1441 70.8751 25.2387 70.962 25.3489C71.0489 25.4606 71.0923 25.594 71.0923 25.7492C71.0923 25.9586 71.0148 26.1231 70.8596 26.2426C70.706 26.362 70.4965 26.4225 70.2297 26.4225C70.0807 26.4225 69.9597 26.4101 69.8697 26.3853C69.7797 26.3605 69.6634 26.3108 69.5222 26.2348H69.5253ZM72.7385 24.5529H72.4763V24.1325H72.7385V23.6763L73.2629 23.4839V24.1325H73.882V24.5529H73.2629V25.5382C73.2629 25.6995 73.2877 25.8128 73.3389 25.8795C73.3901 25.9462 73.4786 25.9788 73.6043 25.9788C73.7299 25.9788 73.8494 25.9447 73.958 25.8749V26.3574C73.837 26.3993 73.6617 26.421 73.4367 26.421C73.2117 26.421 73.0395 26.3574 72.92 26.2317C72.799 26.1045 72.7385 25.9245 72.7385 25.6902V24.5514V24.5529ZM75.9222 23.259C76.006 23.259 76.079 23.2885 76.1379 23.349C76.1969 23.4079 76.2279 23.4793 76.2279 23.5646C76.2279 23.65 76.1984 23.7213 76.1379 23.7803C76.0774 23.8392 76.0076 23.8703 75.9222 23.8703C75.8369 23.8703 75.7655 23.8408 75.7066 23.7803C75.6476 23.7213 75.6166 23.6484 75.6166 23.5646C75.6166 23.4808 75.6461 23.4079 75.7066 23.349C75.7655 23.29 75.8385 23.259 75.9222 23.259ZM75.6523 26.3791V24.5607H75.3637V24.1309H76.1845V26.3791H75.6523ZM79.3806 26.3791L78.7212 25.3613L78.4699 25.6282V26.3791H77.9454V23.2947L78.4699 23.169V24.9967L79.2177 24.1325H79.8492L79.0905 24.9843L80.0043 26.3791H79.3806Z" fill="#E30707"/>
</g>
<defs>
<clipPath id="clip0_1801_11190">
<rect width="80.0043" height="27.6881" fill="white"/>
</clipPath>
</defs>
</svg>
