<svg width="80" height="19" viewBox="0 0 80 19" fill="none" xmlns="http://www.w3.org/2000/svg">
<g clip-path="url(#clip0_1801_18801)">
<path fill-rule="evenodd" clip-rule="evenodd" d="M9.9714 14.5687H13.6978C13.7014 14.4286 13.7475 14.2636 13.7741 14.1075L14.1199 12.3055C14.1536 12.1228 14.1643 12.0093 14.2015 11.8497C14.237 11.7025 14.2512 11.5641 14.2831 11.3939C14.3115 11.2342 14.3576 11.0604 14.37 10.9097H16.3512C16.3175 11.3247 15.679 14.2672 15.679 14.5687H19.4054L20.0368 11.0711C20.1769 10.4574 20.3206 9.49606 20.4554 8.83804L20.8137 6.91365C20.8562 6.69904 20.8828 6.51635 20.9272 6.28755L21.2872 4.36493H17.5608L16.9755 7.50604C16.9489 7.65148 16.9578 7.88915 16.8212 7.88915H14.9411L15.5796 4.36493H11.8532L11.3832 6.91542C11.2449 7.76145 11.0515 8.61989 10.9132 9.46591L10.6809 10.7447C10.5957 11.1704 10.523 11.589 10.4396 12.0129L9.97317 14.5669L9.9714 14.5687ZM74.8848 10.7837L76.0678 7.69937L76.1583 10.7944L74.8848 10.7837ZM59.9597 14.5687H63.6861C63.6914 14.3612 63.9681 12.9972 64.0302 12.6638L64.1756 11.8355C64.2146 11.6475 64.2448 11.4382 64.2838 11.2715L64.4381 10.4538C64.4629 10.2889 64.4274 10.2765 64.525 10.2055C64.5356 10.3385 64.6456 10.6294 64.6882 10.7465C64.8265 11.1278 65.9882 14.4073 66.0007 14.5687H73.3187L73.5883 13.8982C73.6362 13.79 73.6734 13.6712 73.7213 13.563C73.7639 13.4655 73.8295 13.3378 73.8543 13.226H76.2718C76.2825 13.3573 76.3073 13.3839 76.3073 13.5612C76.3073 13.8965 76.3445 13.9887 76.3392 14.2689C76.3357 14.4179 76.3002 14.5704 76.4403 14.5704H79.9982C79.9982 14.3416 79.9557 14.1536 79.9255 13.939C79.6861 12.2895 79.5034 10.5053 79.2657 8.85933L78.6893 4.36847H74.695C74.5851 4.36847 74.5301 4.57067 74.4343 4.74448L71.2701 10.8103C71.0839 11.1455 69.8087 13.6819 69.6934 13.7652C69.681 13.6198 68.9077 11.8107 68.8349 11.6368L68.404 10.5922C68.3366 10.4255 67.9818 9.60248 67.9818 9.50316L70.8551 5.66323C71.0218 5.43975 71.1637 5.25175 71.3305 5.03004L71.8093 4.36847H67.4781L66.9992 5.09744C66.9247 5.19854 66.8964 5.25352 66.8254 5.35994C66.7846 5.42024 66.7775 5.42202 66.742 5.477L65.1759 7.87141C65.0979 7.99024 64.9134 8.29709 64.8265 8.36094C64.8265 8.18535 64.8762 8.04168 64.9081 7.87141L65.1883 6.37269C65.3125 5.76433 65.4313 4.94136 65.5661 4.3667H61.8397L61.6677 5.30318C61.6464 5.42911 61.6216 5.49296 61.602 5.64017C61.5737 5.85124 61.5293 6.03569 61.4885 6.26627C61.4477 6.49684 61.4069 6.69194 61.3697 6.91897L61.1303 8.19067C61.0912 8.39109 61.0522 8.59683 61.0132 8.81144L60.7826 10.092C60.7418 10.3173 60.7046 10.523 60.6602 10.7412L59.9579 14.5704L59.9597 14.5687ZM51.1642 14.5687C51.1642 14.2707 51.753 11.33 51.8594 10.7004C52.0758 9.43753 52.3632 8.08957 52.5689 6.84447C52.6079 6.60858 52.6452 6.43654 52.6877 6.19178L52.9272 4.92185C52.9822 4.6558 52.9591 4.36493 53.1099 4.36493H60.0253C60.0253 4.56535 59.9437 4.87573 59.9047 5.08325L59.5836 6.87817C59.5659 6.99523 59.5801 7.15131 59.4542 7.15131H56.1978C56.1978 7.41027 56.0842 7.859 56.0293 8.09134C56.345 8.09134 59.0445 8.04523 59.1225 8.12149C59.1704 8.16938 58.9522 9.20696 58.9132 9.39674C58.8937 9.49606 58.876 9.65392 58.8582 9.74437C58.8352 9.86321 58.8174 9.93061 58.7961 10.0512C58.7607 10.2516 58.6844 10.5354 58.6809 10.7075H55.5592C55.5504 10.8157 55.3819 11.7309 55.3571 11.7823H58.9824C58.9735 11.8993 58.9363 12.0288 58.9114 12.1477L58.5922 13.877C58.5549 14.088 58.4769 14.3736 58.4769 14.5669H51.1589L51.1642 14.5687ZM39.0786 14.5687H41.4961C41.8827 14.5687 42.3315 14.59 42.7092 14.5722C42.9114 14.5634 42.8511 14.5722 42.9203 14.1802L43.3956 11.6014C43.4932 11.0108 43.6776 9.998 43.6776 9.43399C43.7841 9.51203 44.5254 11.7291 44.6319 12.004L45.4477 14.276C45.4921 14.3895 45.5116 14.5687 45.6251 14.5687H49.3178L51.0719 5.0123C51.1056 4.83317 51.1518 4.55825 51.1979 4.36493H47.4715L47.1824 5.95588C47.1575 6.07294 47.1256 6.18823 47.1114 6.28755L46.8755 7.5965C46.8329 7.81465 46.8046 8.02927 46.7531 8.24565C46.7035 8.45849 46.6662 8.68729 46.6325 8.89657L46.4977 9.53508C46.3328 8.8274 45.916 7.61955 45.6393 6.903L44.8323 4.6558C44.795 4.54052 44.7738 4.3667 44.6514 4.3667H40.9587L39.9104 10.0973C39.8714 10.2889 39.8218 10.5461 39.7881 10.7483L39.616 11.683C39.4422 12.4208 39.2631 13.7794 39.0786 14.5704V14.5687ZM27.0267 14.5687C27.0445 14.3612 27.1083 14.1324 27.1473 13.916C27.1704 13.7865 27.1775 13.7209 27.1988 13.5985L27.3761 12.6354C27.5233 11.7344 27.8586 10.2694 27.965 9.46414L28.3215 7.53797C28.5166 6.58907 28.7028 5.23578 28.9068 4.36315H32.6669L33.5856 6.90123C33.8073 7.53265 34.0681 8.21904 34.2561 8.84869C34.3111 9.03314 34.4068 9.33289 34.4122 9.53154C34.5292 9.4464 34.4441 9.55992 34.4849 9.40384C34.4973 9.35417 34.5026 9.29387 34.5132 9.23002L34.9354 6.93316C35.0205 6.48088 35.095 6.03569 35.1819 5.60293C35.2263 5.383 35.2653 5.17903 35.3043 4.95377C35.361 4.63097 35.3504 4.36315 35.487 4.36315H39.0449C39.1779 4.36315 39.1247 4.47134 39.0928 4.61146L37.9559 10.727C37.8814 11.1243 37.2659 14.3257 37.2659 14.5669H33.5732C33.4491 14.5669 33.4349 14.3949 33.3905 14.2796C33.1174 13.5542 32.8336 12.6602 32.5747 12.0058L31.624 9.39674C31.624 9.99268 30.9943 13.6659 30.7851 14.5651H27.0249L27.0267 14.5687ZM21.3191 14.5687H25.113L26.053 9.46769C26.0885 9.2513 26.1257 9.07749 26.1683 8.84337L26.8724 5.01763C26.9097 4.81366 26.9771 4.55116 26.993 4.36493H23.5344C23.0928 4.35783 23.2577 4.27624 23.0396 5.34575C22.9793 5.64372 22.9367 5.89026 22.8835 6.19532C22.7806 6.76998 22.6848 7.28966 22.5767 7.86786L21.5692 13.3058C21.516 13.5701 21.3794 14.4427 21.3209 14.5669L21.3191 14.5687ZM0.00177364 14.5687L0.228799 13.2509C0.643831 11.1278 0.993238 8.94092 1.41004 6.84625L1.8233 4.60791C1.84281 4.49795 1.8233 4.36493 1.94923 4.36493H5.64195C6.20596 4.36493 6.72387 4.4341 7.18856 4.52987C7.69759 4.63629 8.04345 4.76222 8.45139 4.98038C9.89336 5.74836 10.0814 7.72952 9.12537 8.68729C8.84337 8.97107 8.50105 9.12892 8.10553 9.24421C7.70824 9.35949 7.8253 9.22824 7.7242 9.36659C8.07893 9.39674 8.46913 9.62022 8.71212 9.78872C9.12183 10.0707 9.41448 10.5833 9.47123 11.1119C9.52444 11.6156 9.45704 12.1228 9.26372 12.5822C9.1573 12.8341 9.04201 13.0096 8.85933 13.2189C8.03104 14.1696 6.72032 14.5687 5.3759 14.5687H0H0.00177364ZM4.34719 12.0874C5.14001 12.0554 5.42911 11.9969 5.70048 11.7415C5.95943 11.5003 5.8601 10.9788 5.78739 10.876C5.62421 10.6454 5.3085 10.5443 4.96442 10.5336H4.24077C4.14854 11.0515 4.05454 11.5694 3.96231 12.0874C4.1379 12.0944 4.34542 12.0874 4.34542 12.0874H4.34719ZM4.89702 8.15697C5.53021 8.17293 5.9275 8.02749 6.12792 7.82884C6.33544 7.62488 6.22015 7.23468 6.15453 7.15309C6.02683 6.99169 5.79625 6.87108 5.51424 6.86221H4.92008C4.84381 7.28788 4.76754 7.71533 4.69128 8.141C4.83494 8.14633 4.75335 8.15342 4.89702 8.15874V8.15697Z" fill="#ED1C24"/>
<path fill-rule="evenodd" clip-rule="evenodd" d="M23.8022 1.10852L23.3996 3.3238C23.5894 3.32025 23.8235 3.20319 23.992 3.14289L31.4998 0.445183C31.64 0.395522 32.5587 0.101097 32.6332 0C32.4452 0 32.2625 0.0407937 32.094 0.0656247L28.2168 0.551602C27.463 0.661567 26.7607 0.713003 26.0051 0.822969L23.804 1.10675L23.8022 1.10852Z" fill="#F4EB28"/>
<path fill-rule="evenodd" clip-rule="evenodd" d="M0.0425673 16.2519H0.367143V18.4104H0.0425673V16.2519ZM78.7372 16.337H78.4906V16.1969H79.1327V16.337H78.8862V17.0074H78.7372V16.337ZM79.1824 16.9826V16.1986H79.3739L79.3792 16.2164L79.5566 16.7538L79.569 16.791L79.585 16.7432L79.7641 16.2146L79.7694 16.1969H79.945V17.0057H79.7996V16.4948L79.6311 16.9879L79.6258 17.0057H79.5016L79.4963 16.9879L79.3296 16.4878V17.0057H79.1841V16.9808L79.1824 16.9826ZM73.0065 18.3855V16.2572H73.9324C74.0228 16.2572 74.1044 16.2625 74.1736 16.2714C74.2445 16.2802 74.3048 16.2962 74.3545 16.3157C74.4042 16.3352 74.4485 16.3636 74.4893 16.3991C74.5283 16.4345 74.5638 16.4771 74.5922 16.5268C74.6206 16.5764 74.6436 16.6279 74.6578 16.6829C74.672 16.7378 74.6791 16.7964 74.6791 16.8549C74.6791 16.9329 74.6667 17.0039 74.6418 17.0695C74.617 17.1351 74.5815 17.1954 74.5319 17.2486C74.5053 17.277 74.4769 17.3054 74.4432 17.332C74.4272 17.3444 74.4113 17.3568 74.3953 17.3675C74.4698 17.3923 74.5195 17.4331 74.5532 17.481C74.5939 17.5413 74.6099 17.6105 74.6152 17.6761L74.6188 17.7258C74.6383 17.9563 74.6614 18.2117 74.7554 18.3696L74.7784 18.4068H74.3829L74.3758 18.3926C74.3315 18.3004 74.3279 18.1745 74.3244 18.0432C74.3173 17.8162 74.3102 17.5714 74.0831 17.5005L73.324 17.5094V18.4068H73.0048V18.382L73.0065 18.3855ZM73.3258 17.2238H73.8774C73.9377 17.2238 73.9909 17.2203 74.037 17.2149C74.0831 17.2078 74.1222 17.199 74.1559 17.1866C74.1878 17.1741 74.2162 17.1582 74.2392 17.1387C74.2623 17.1192 74.2836 17.0961 74.2995 17.0695C74.3155 17.0429 74.3297 17.0145 74.3368 16.9861C74.3456 16.9578 74.3492 16.9276 74.3492 16.8957C74.3492 16.846 74.3403 16.791 74.3226 16.7414C74.3066 16.697 74.2836 16.658 74.2534 16.6314C74.2215 16.6013 74.1807 16.58 74.1293 16.5658C74.0778 16.5498 74.014 16.5427 73.9413 16.5427H73.324V17.2256L73.3258 17.2238ZM67.4125 18.3855V16.5498H66.7172V16.2519H68.4359V16.5498H67.7406V18.4104H67.4107V18.3855H67.4125ZM69.5657 17.348C69.5657 17.1706 69.5887 17.011 69.6366 16.8709C69.6845 16.7307 69.7555 16.6084 69.8512 16.5073C69.947 16.4062 70.0552 16.3299 70.1776 16.2785C70.3 16.227 70.4365 16.2022 70.5855 16.2022C70.6831 16.2022 70.7771 16.2146 70.8658 16.2377C70.9544 16.2607 71.0378 16.298 71.1176 16.3459C71.1957 16.3937 71.2666 16.4505 71.3269 16.5179C71.3872 16.5853 71.4386 16.6616 71.4794 16.7467C71.5202 16.8318 71.5522 16.9223 71.5717 17.0181C71.593 17.1138 71.6018 17.2167 71.6018 17.3231C71.6018 17.4296 71.5912 17.5342 71.5699 17.6335C71.5486 17.7311 71.5149 17.8233 71.4723 17.9102C71.428 17.9971 71.3766 18.0734 71.3145 18.139C71.2524 18.2046 71.1815 18.2596 71.1017 18.304C71.0218 18.3483 70.9385 18.382 70.8516 18.4033C70.7647 18.4263 70.676 18.437 70.5837 18.437C70.4844 18.437 70.3886 18.4246 70.3 18.3997C70.2095 18.3749 70.1262 18.3377 70.0463 18.288C69.9665 18.2383 69.8974 18.1798 69.8371 18.1124C69.7767 18.045 69.7271 17.9687 69.6863 17.8836C69.6455 17.7985 69.6154 17.7116 69.5958 17.6229C69.5763 17.5324 69.5657 17.4402 69.5657 17.3462V17.348ZM69.9009 17.3533C69.9009 17.4774 69.9169 17.5892 69.9506 17.6867C69.9825 17.7825 70.0321 17.8676 70.096 17.9368C70.1616 18.0078 70.2343 18.061 70.3159 18.0947C70.3975 18.1301 70.4862 18.1479 70.5855 18.1479C70.6848 18.1479 70.7771 18.1301 70.8587 18.0947C70.9403 18.0592 71.013 18.006 71.0786 17.935C71.1424 17.8641 71.1903 17.7772 71.224 17.6761C71.256 17.5732 71.2719 17.4562 71.2719 17.3231C71.2719 17.238 71.2648 17.16 71.2506 17.0872C71.2365 17.0145 71.2152 16.9471 71.1886 16.885C71.1602 16.823 71.1265 16.768 71.0875 16.7201C71.0467 16.6722 71.0006 16.6314 70.9473 16.5977C70.8941 16.564 70.8374 16.5392 70.7789 16.5215C70.7203 16.5037 70.6565 16.4966 70.5908 16.4966C70.4968 16.4966 70.4099 16.5126 70.3283 16.5463C70.2485 16.5782 70.174 16.6279 70.1049 16.6935C70.0375 16.7591 69.9878 16.846 69.9541 16.9542C69.9204 17.0642 69.9027 17.199 69.9027 17.3551L69.9009 17.3533ZM63.8492 17.6779L64.1153 17.6548H64.1401L64.1437 17.6761C64.149 17.7275 64.1596 17.7736 64.1738 17.8162C64.188 17.857 64.2057 17.8942 64.227 17.9262C64.2483 17.9581 64.2767 17.9865 64.3104 18.0131C64.3441 18.0397 64.3849 18.0627 64.431 18.0823C64.4771 18.1018 64.5285 18.1177 64.58 18.1284C64.6332 18.139 64.6882 18.1443 64.7485 18.1443C64.8017 18.1443 64.8513 18.1408 64.8957 18.1337C64.9418 18.1266 64.9844 18.1142 65.0234 18.1C65.0624 18.084 65.0961 18.0663 65.1263 18.0468C65.1546 18.0273 65.1777 18.0042 65.1972 17.9776C65.2167 17.951 65.2291 17.9244 65.2398 17.8978C65.2486 17.8712 65.254 17.841 65.254 17.8127C65.254 17.7524 65.2362 17.6991 65.2008 17.6548C65.183 17.6317 65.16 17.6122 65.1298 17.5927C65.0997 17.5732 65.0624 17.5555 65.0198 17.5395C64.9915 17.5289 64.9471 17.5147 64.8833 17.4987C64.8212 17.481 64.7396 17.4615 64.6438 17.4384C64.5463 17.4154 64.4611 17.3923 64.392 17.3692C64.3228 17.3462 64.266 17.3249 64.227 17.3036C64.1738 17.277 64.1295 17.2451 64.0887 17.2114C64.0497 17.1759 64.016 17.1387 63.9894 17.0979C63.9628 17.0571 63.9432 17.0127 63.9308 16.9666C63.9184 16.9205 63.9113 16.8709 63.9113 16.8212C63.9113 16.7662 63.9202 16.7112 63.9362 16.658C63.9521 16.6066 63.9769 16.5551 64.0089 16.5073C64.0408 16.4594 64.0798 16.415 64.1277 16.3796C64.1738 16.3423 64.227 16.3122 64.2891 16.2873C64.3494 16.2625 64.4133 16.2448 64.4807 16.2323C64.5481 16.2199 64.6172 16.2146 64.6899 16.2146C64.7698 16.2146 64.846 16.2217 64.917 16.2341C64.9879 16.2465 65.0553 16.266 65.1174 16.2927C65.1795 16.3193 65.2345 16.3512 65.2841 16.3902C65.332 16.4292 65.3746 16.4736 65.4083 16.525C65.442 16.5764 65.4686 16.6296 65.4863 16.6882C65.504 16.7449 65.5147 16.807 65.5165 16.8709V16.8957L65.4934 16.8975L65.222 16.9187H65.1972L65.1954 16.8957C65.1883 16.8318 65.1742 16.7769 65.1493 16.729C65.1263 16.6829 65.0961 16.6421 65.0571 16.6119C65.0181 16.58 64.9684 16.5551 64.9099 16.5392C64.8496 16.5232 64.7804 16.5144 64.7006 16.5144C64.6208 16.5144 64.5445 16.5214 64.4842 16.5374C64.4257 16.5516 64.3778 16.5729 64.3423 16.603C64.3068 16.6314 64.2785 16.6633 64.2607 16.697C64.243 16.7307 64.2341 16.768 64.2341 16.807C64.2341 16.8407 64.2412 16.8726 64.2519 16.901C64.2643 16.9294 64.282 16.9542 64.3086 16.9755C64.3334 16.9986 64.3796 17.0216 64.4487 17.0447C64.5197 17.0695 64.6101 17.0943 64.7236 17.1192C64.8389 17.1458 64.9365 17.1688 65.0145 17.1919C65.0943 17.2149 65.1564 17.2362 65.2008 17.2557C65.2646 17.2841 65.3196 17.3178 65.3675 17.3551C65.4154 17.3923 65.4544 17.4331 65.4863 17.4792C65.5165 17.5253 65.5413 17.5732 65.5555 17.6264C65.5714 17.6779 65.5785 17.7346 65.5785 17.7931C65.5785 17.8517 65.5697 17.9084 65.5537 17.9634C65.536 18.0184 65.5111 18.0716 65.4774 18.123C65.4437 18.1745 65.4029 18.2206 65.3533 18.2614C65.3054 18.3022 65.2486 18.3359 65.1866 18.3643C65.1245 18.3926 65.0571 18.4139 64.9879 18.4281C64.917 18.4423 64.8443 18.4494 64.7662 18.4494C64.6687 18.4494 64.5782 18.4423 64.4966 18.4281C64.4133 18.4139 64.3388 18.3926 64.2714 18.3643C64.204 18.3359 64.1437 18.3004 64.0905 18.2561C64.0373 18.2135 63.9911 18.1621 63.9539 18.1035C63.9149 18.045 63.8865 17.9847 63.8652 17.9191C63.8457 17.8535 63.8333 17.7843 63.8315 17.7116V17.6885L63.8546 17.6867L63.8492 17.6779ZM51.4586 16.2519H51.8009V18.1124H52.8811V18.4104H51.4586V16.2519ZM31.9308 18.3891V16.2519H32.2572L32.2643 16.2625L33.3302 17.8517V16.2519H33.6495V18.4139H33.3231L33.316 18.4033L32.2483 16.8141V18.4139H31.9291V18.3891H31.9308ZM41.1733 18.4121H40.8913V16.901H40.3787V16.6562H40.4195C40.588 16.658 40.7192 16.619 40.8114 16.5516C40.9001 16.4842 40.9498 16.3902 40.9533 16.282V16.2501H41.1981V18.4104H41.1733V18.4121ZM38.4631 18.0237H38.8214V18.382H38.4631V18.0237ZM35.0241 17.348C35.0241 17.1706 35.0471 17.011 35.095 16.8709C35.1429 16.7307 35.2138 16.6084 35.3096 16.5073C35.4054 16.4062 35.5136 16.3299 35.636 16.2785C35.7583 16.227 35.8949 16.2022 36.0439 16.2022C36.1414 16.2022 36.2354 16.2146 36.3241 16.2377C36.4128 16.2607 36.4962 16.298 36.576 16.3459C36.654 16.3937 36.725 16.4505 36.7853 16.5179C36.8456 16.5853 36.897 16.6616 36.9378 16.7467C36.9786 16.8318 37.0105 16.9223 37.03 17.0181C37.0513 17.1138 37.0602 17.2167 37.0602 17.3231C37.0602 17.4296 37.0496 17.5342 37.0283 17.6335C37.007 17.7311 36.9733 17.8233 36.9307 17.9102C36.8864 17.9971 36.8349 18.0734 36.7729 18.139C36.7108 18.2046 36.6398 18.2596 36.56 18.304C36.4802 18.3483 36.3969 18.382 36.3099 18.4033C36.223 18.4263 36.1344 18.437 36.0421 18.437C35.9428 18.437 35.847 18.4246 35.7583 18.3997C35.6679 18.3749 35.5845 18.3377 35.5047 18.288C35.4249 18.2383 35.3557 18.1798 35.2954 18.1124C35.2351 18.045 35.1855 17.9687 35.1447 17.8836C35.1039 17.7985 35.0737 17.7116 35.0542 17.6229C35.0347 17.5324 35.0241 17.4402 35.0241 17.3462V17.348ZM35.3593 17.3533C35.3593 17.4774 35.3752 17.5892 35.4089 17.6867C35.4409 17.7825 35.4905 17.8676 35.5544 17.9368C35.62 18.0078 35.6927 18.061 35.7743 18.0947C35.8559 18.1301 35.9446 18.1479 36.0439 18.1479C36.1432 18.1479 36.2354 18.1301 36.317 18.0947C36.3986 18.0592 36.4713 18.006 36.537 17.935C36.6008 17.8641 36.6487 17.7772 36.6824 17.6761C36.7143 17.5732 36.7303 17.4562 36.7303 17.3231C36.7303 17.238 36.7232 17.16 36.709 17.0872C36.6948 17.0145 36.6735 16.9471 36.6469 16.885C36.6186 16.823 36.5849 16.768 36.5458 16.7201C36.505 16.6722 36.4589 16.6314 36.4057 16.5977C36.3525 16.564 36.2958 16.5392 36.2372 16.5215C36.1787 16.5037 36.1148 16.4966 36.0492 16.4966C35.9552 16.4966 35.8683 16.5126 35.7867 16.5463C35.7069 16.5782 35.6324 16.6279 35.5632 16.6935C35.4958 16.7591 35.4462 16.846 35.4125 16.9542C35.3788 17.0642 35.361 17.199 35.361 17.3551L35.3593 17.3533ZM55.9867 18.3891V16.2519H56.313L56.3201 16.2625L57.3861 17.8517V16.2519H57.7054V18.4139H57.379L57.3719 18.4033L56.3042 16.8141V18.4139H55.9849V18.3891H55.9867ZM48.2536 16.2519H48.58L48.5871 16.2625L49.6548 17.8517V16.2519H49.9741V18.4139H49.6477L49.6406 18.4033L48.5729 16.8141V18.4139H48.2536V16.2519ZM54.1723 16.2519H54.4968V18.4104H54.1723V16.2519ZM44.8358 17.348C44.8358 17.1706 44.8589 17.011 44.9068 16.8709C44.9547 16.7307 45.0256 16.6084 45.1214 16.5073C45.2172 16.4062 45.3253 16.3299 45.4477 16.2785C45.5701 16.227 45.7067 16.2022 45.8557 16.2022C45.9532 16.2022 46.0472 16.2146 46.1359 16.2377C46.2246 16.2607 46.308 16.298 46.3878 16.3459C46.4658 16.3937 46.5367 16.4505 46.5971 16.5179C46.6574 16.5853 46.7088 16.6616 46.7496 16.7467C46.7904 16.8318 46.8223 16.9223 46.8418 17.0181C46.8631 17.1138 46.872 17.2167 46.872 17.3231C46.872 17.4296 46.8613 17.5342 46.84 17.6335C46.8188 17.7311 46.7851 17.8233 46.7425 17.9102C46.6982 17.9971 46.6467 18.0734 46.5846 18.139C46.5226 18.2046 46.4516 18.2596 46.3718 18.304C46.292 18.3483 46.2086 18.382 46.1217 18.4033C46.0348 18.4263 45.9461 18.437 45.8539 18.437C45.7546 18.437 45.6588 18.4246 45.5701 18.3997C45.4797 18.3749 45.3963 18.3377 45.3165 18.288C45.2367 18.2383 45.1675 18.1798 45.1072 18.1124C45.0469 18.045 44.9972 17.9687 44.9564 17.8836C44.9156 17.7985 44.8855 17.7116 44.866 17.6229C44.8465 17.5324 44.8358 17.4402 44.8358 17.3462V17.348ZM45.171 17.3533C45.171 17.4774 45.187 17.5892 45.2207 17.6867C45.2526 17.7825 45.3023 17.8676 45.3661 17.9368C45.4318 18.0078 45.5045 18.061 45.5843 18.0947C45.6659 18.1301 45.7546 18.1479 45.8539 18.1479C45.9532 18.1479 46.0455 18.1301 46.127 18.0947C46.2086 18.0592 46.2813 18.006 46.347 17.935C46.4108 17.8641 46.4587 17.7772 46.4924 17.6761C46.5243 17.5732 46.5421 17.4562 46.5421 17.3231C46.5421 17.238 46.535 17.16 46.5208 17.0872C46.5066 17.0145 46.4853 16.9471 46.4587 16.885C46.4303 16.823 46.3966 16.768 46.3576 16.7201C46.3168 16.6722 46.2707 16.6314 46.2175 16.5977C46.1643 16.564 46.1075 16.5392 46.049 16.5215C45.9905 16.5037 45.9266 16.4966 45.861 16.4966C45.767 16.4966 45.6801 16.5126 45.5985 16.5463C45.5187 16.5782 45.4442 16.6279 45.375 16.6935C45.3076 16.7591 45.258 16.846 45.2243 16.9542C45.1906 17.0642 45.1728 17.199 45.1728 17.3551L45.171 17.3533ZM25.1804 16.6155V16.2572H25.551V16.5463C25.551 16.619 25.5457 16.6811 25.5369 16.7343C25.528 16.7875 25.5138 16.8318 25.4943 16.8673C25.4677 16.9152 25.4233 16.9613 25.3684 16.9968C25.3187 17.0287 25.2619 17.05 25.2034 17.0535H25.1768V16.8655H25.1999C25.2176 16.862 25.2353 16.8602 25.2513 16.8531C25.2655 16.846 25.2797 16.8336 25.2903 16.8141C25.3027 16.7928 25.3134 16.7644 25.3205 16.7325C25.3258 16.7059 25.3311 16.6758 25.3329 16.6421H25.1786V16.6172L25.1804 16.6155ZM26.9451 17.6796L27.2112 17.6566H27.236L27.2396 17.6779C27.2449 17.7293 27.2555 17.7754 27.2697 17.818C27.2839 17.8588 27.3016 17.896 27.3229 17.9279C27.3442 17.9599 27.3726 17.9882 27.4063 18.0149C27.44 18.0415 27.4808 18.0645 27.5269 18.084C27.573 18.1035 27.6244 18.1195 27.6759 18.1301C27.7291 18.1408 27.7841 18.1461 27.8444 18.1461C27.8976 18.1461 27.9472 18.1426 27.9916 18.1355C28.0377 18.1284 28.0803 18.116 28.1193 18.1018C28.1583 18.0858 28.192 18.0681 28.2221 18.0486C28.2505 18.029 28.2736 18.006 28.2931 17.9794C28.3126 17.9528 28.325 17.9262 28.3357 17.8996C28.3445 17.873 28.3498 17.8428 28.3498 17.8144C28.3498 17.7541 28.3321 17.7009 28.2966 17.6566C28.2789 17.6335 28.2558 17.614 28.2257 17.5945C28.1955 17.575 28.1583 17.5573 28.1157 17.5413C28.0874 17.5307 28.043 17.5165 27.9792 17.5005C27.9171 17.4828 27.8355 17.4633 27.7397 17.4402C27.6422 17.4171 27.557 17.3941 27.4879 17.371C27.4187 17.348 27.3619 17.3267 27.3229 17.3054C27.2697 17.2788 27.2254 17.2469 27.1846 17.2132C27.1456 17.1777 27.1119 17.1405 27.0852 17.0997C27.0586 17.0589 27.0391 17.0145 27.0267 16.9684C27.0143 16.9223 27.0072 16.8726 27.0072 16.823C27.0072 16.768 27.0161 16.713 27.032 16.6598C27.048 16.6084 27.0728 16.5569 27.1048 16.509C27.1367 16.4611 27.1757 16.4168 27.2236 16.3813C27.2697 16.3441 27.3229 16.3139 27.385 16.2891C27.4453 16.2643 27.5091 16.2465 27.5765 16.2341C27.6439 16.2217 27.7131 16.2164 27.7858 16.2164C27.8656 16.2164 27.9419 16.2235 28.0129 16.2359C28.0838 16.2483 28.1512 16.2678 28.2133 16.2944C28.2754 16.321 28.3303 16.353 28.38 16.392C28.4279 16.431 28.4705 16.4753 28.5042 16.5268C28.5379 16.5782 28.5645 16.6314 28.5822 16.6899C28.5999 16.7467 28.6106 16.8088 28.6124 16.8726V16.8975L28.5893 16.8992L28.3179 16.9205H28.2931L28.2913 16.8975C28.2842 16.8336 28.27 16.7786 28.2452 16.7307C28.2221 16.6846 28.192 16.6438 28.153 16.6137C28.114 16.5818 28.0643 16.5569 28.0058 16.541C27.9455 16.525 27.8763 16.5161 27.7965 16.5161C27.7167 16.5161 27.6404 16.5232 27.5801 16.5392C27.5216 16.5534 27.4737 16.5747 27.4382 16.6048C27.4027 16.6332 27.3743 16.6651 27.3566 16.6988C27.3389 16.7325 27.33 16.7698 27.33 16.8088C27.33 16.8425 27.3371 16.8744 27.3477 16.9028C27.3602 16.9312 27.3779 16.956 27.4045 16.9773C27.4293 17.0003 27.4754 17.0234 27.5446 17.0464C27.6156 17.0713 27.706 17.0961 27.8195 17.1209C27.9348 17.1475 28.0324 17.1706 28.1104 17.1937C28.1902 17.2167 28.2523 17.238 28.2966 17.2575C28.3605 17.2859 28.4155 17.3196 28.4634 17.3568C28.5113 17.3941 28.5503 17.4349 28.5822 17.481C28.6123 17.5271 28.6372 17.575 28.6514 17.6282C28.6673 17.6796 28.6744 17.7364 28.6744 17.7949C28.6744 17.8535 28.6656 17.9102 28.6496 17.9652C28.6319 18.0202 28.607 18.0734 28.5733 18.1248C28.5396 18.1763 28.4988 18.2224 28.4492 18.2632C28.4013 18.304 28.3445 18.3377 28.2825 18.366C28.2204 18.3944 28.153 18.4157 28.0838 18.4299C28.0129 18.4441 27.9401 18.4512 27.8621 18.4512C27.7645 18.4512 27.6741 18.4441 27.5925 18.4299C27.5091 18.4157 27.4347 18.3944 27.3673 18.366C27.2999 18.3377 27.2396 18.3022 27.1863 18.2578C27.1331 18.2153 27.087 18.1638 27.0498 18.1053C27.0108 18.0468 26.9824 17.9865 26.9611 17.9209C26.9416 17.8552 26.9292 17.7861 26.9274 17.7133V17.6903L26.9504 17.6885L26.9451 17.6796ZM22.1563 18.3767L22.9598 16.2678L22.9651 16.2519H23.3038L23.3109 16.2678L24.1641 18.3767L24.1783 18.4104H23.8093L23.8022 18.3944L23.5663 17.7719H22.7203L22.4986 18.3944L22.4933 18.4104H22.1457L22.1581 18.3767H22.1563ZM22.8179 17.4952H23.4599L23.2542 16.9436C23.2223 16.8567 23.1939 16.7769 23.1691 16.7041C23.1549 16.6651 23.1424 16.6279 23.1318 16.5924C23.1229 16.6314 23.1123 16.6687 23.1017 16.7077C23.0821 16.7751 23.0609 16.8443 23.036 16.9116L22.8196 17.497L22.8179 17.4952ZM17.4668 17.6796L17.7328 17.6566H17.7577L17.7612 17.6779C17.7665 17.7293 17.7772 17.7754 17.7914 17.818C17.8056 17.8588 17.8233 17.896 17.8446 17.9279C17.8659 17.9599 17.8942 17.9882 17.9279 18.0149C17.9616 18.0415 18.0024 18.0645 18.0486 18.084C18.0947 18.1035 18.1461 18.1195 18.1975 18.1301C18.2507 18.1408 18.3057 18.1461 18.366 18.1461C18.4192 18.1461 18.4689 18.1426 18.5132 18.1355C18.5594 18.1284 18.6019 18.116 18.6409 18.1018C18.68 18.0858 18.7137 18.0681 18.7438 18.0486C18.7722 18.029 18.7953 18.006 18.8148 17.9794C18.8343 17.9528 18.8467 17.9262 18.8573 17.8996C18.8662 17.873 18.8715 17.8428 18.8715 17.8144C18.8715 17.7541 18.8538 17.7009 18.8183 17.6566C18.8006 17.6335 18.7775 17.614 18.7474 17.5945C18.7172 17.575 18.68 17.5573 18.6374 17.5413C18.609 17.5307 18.5647 17.5165 18.5008 17.5005C18.4388 17.4828 18.3572 17.4633 18.2614 17.4402C18.1638 17.4171 18.0787 17.3941 18.0095 17.371C17.9404 17.348 17.8836 17.3267 17.8446 17.3054C17.7914 17.2788 17.747 17.2469 17.7062 17.2132C17.6672 17.1777 17.6335 17.1405 17.6069 17.0997C17.5803 17.0589 17.5608 17.0145 17.5484 16.9684C17.536 16.9223 17.5289 16.8726 17.5289 16.823C17.5289 16.768 17.5377 16.713 17.5537 16.6598C17.5697 16.6084 17.5945 16.5569 17.6264 16.509C17.6584 16.4611 17.6974 16.4168 17.7453 16.3813C17.7914 16.3441 17.8446 16.3139 17.9067 16.2891C17.967 16.2643 18.0308 16.2465 18.0982 16.2341C18.1656 16.2217 18.2348 16.2164 18.3075 16.2164C18.3873 16.2164 18.4636 16.2235 18.5345 16.2359C18.6055 16.2483 18.6729 16.2678 18.735 16.2944C18.797 16.321 18.852 16.353 18.9017 16.392C18.9496 16.431 18.9921 16.4753 19.0258 16.5268C19.0595 16.5782 19.0861 16.6314 19.1039 16.6899C19.1216 16.7467 19.1322 16.8088 19.134 16.8726V16.8975L19.111 16.8992L18.8396 16.9205H18.8148L18.813 16.8975C18.8059 16.8336 18.7917 16.7786 18.7669 16.7307C18.7438 16.6846 18.7137 16.6438 18.6746 16.6137C18.6356 16.5818 18.586 16.5569 18.5274 16.541C18.4671 16.525 18.398 16.5161 18.3181 16.5161C18.2383 16.5161 18.1621 16.5232 18.1018 16.5392C18.0432 16.5534 17.9953 16.5747 17.9599 16.6048C17.9244 16.6332 17.896 16.6651 17.8783 16.6988C17.8605 16.7325 17.8517 16.7698 17.8517 16.8088C17.8517 16.8425 17.8588 16.8744 17.8712 16.9028C17.8836 16.9312 17.9013 16.956 17.9262 16.9773C17.951 17.0003 17.9971 17.0234 18.0663 17.0464C18.1372 17.0713 18.2277 17.0961 18.3412 17.1209C18.4565 17.1475 18.554 17.1706 18.6321 17.1937C18.7119 17.2167 18.774 17.238 18.8183 17.2575C18.8822 17.2859 18.9371 17.3196 18.985 17.3568C19.0329 17.3941 19.0719 17.4349 19.1039 17.481C19.134 17.5271 19.1589 17.575 19.173 17.6282C19.189 17.6796 19.1961 17.7364 19.1961 17.7949C19.1961 17.8535 19.1872 17.9102 19.1713 17.9652C19.1535 18.0202 19.1287 18.0734 19.095 18.1248C19.0613 18.1763 19.0205 18.2224 18.9708 18.2632C18.923 18.304 18.8662 18.3377 18.8041 18.366C18.742 18.3944 18.6746 18.4157 18.6055 18.4299C18.5345 18.4441 18.4618 18.4512 18.3838 18.4512C18.2862 18.4512 18.1958 18.4441 18.1142 18.4299C18.0308 18.4157 17.9563 18.3944 17.8889 18.366C17.8215 18.3377 17.7612 18.3022 17.708 18.2578C17.6548 18.2153 17.6087 18.1638 17.5714 18.1053C17.5324 18.0468 17.504 17.9865 17.4828 17.9209C17.4633 17.8552 17.4508 17.7861 17.4491 17.7133V17.6903L17.4721 17.6885L17.4668 17.6796ZM20.5724 16.2536H20.897V18.4121H20.5724V16.2536ZM14.7177 18.3873V16.2536H16.2057V16.5516H15.0334V17.1493H16.1313V17.4473H15.0334V18.116H16.2536V18.4139H14.7194V18.3891L14.7177 18.3873ZM76.1051 18.3873V16.2536H77.5932V16.5516H76.4208V17.1493H77.5187V17.4473H76.4208V18.116H77.6411V18.4139H76.1069V18.3891L76.1051 18.3873ZM59.1988 18.3873V16.2536H60.6868V16.5516H59.5145V17.1493H60.6124V17.4473H59.5145V18.116H60.7347V18.4139H59.2005V18.3891L59.1988 18.3873ZM11.5074 18.3909V16.2536H11.8337L11.8408 16.2643L12.9068 17.8535V16.2536H13.226V18.4157H12.8997L12.8926 18.4051L11.8249 16.8159V18.4157H11.5056V18.3909H11.5074ZM8.09312 17.3497C8.09312 17.1724 8.11617 17.0127 8.16406 16.8726C8.21195 16.7325 8.2829 16.6101 8.37867 16.509C8.47445 16.4079 8.58264 16.3317 8.70502 16.2802C8.8274 16.2288 8.96397 16.204 9.11296 16.204C9.21051 16.204 9.30451 16.2164 9.39319 16.2394C9.48188 16.2625 9.56524 16.2997 9.64505 16.3476C9.72309 16.3955 9.79404 16.4523 9.85434 16.5197C9.91464 16.5871 9.96608 16.6633 10.0069 16.7485C10.0477 16.8336 10.0796 16.9241 10.0991 17.0198C10.1204 17.1156 10.1293 17.2185 10.1293 17.3249C10.1293 17.4313 10.1186 17.536 10.0973 17.6353C10.076 17.7328 10.0423 17.8251 9.99978 17.912C9.95544 17.9989 9.904 18.0752 9.84192 18.1408C9.77985 18.2064 9.7089 18.2614 9.62909 18.3057C9.54927 18.3501 9.46591 18.3838 9.379 18.4051C9.2921 18.4281 9.20341 18.4388 9.11119 18.4388C9.01186 18.4388 8.91609 18.4263 8.8274 18.4015C8.73695 18.3767 8.65359 18.3394 8.57377 18.2898C8.49396 18.2401 8.42479 18.1816 8.36448 18.1142C8.30418 18.0468 8.25452 17.9705 8.21372 17.8854C8.17293 17.8002 8.14278 17.7133 8.12327 17.6247C8.10376 17.5342 8.09312 17.442 8.09312 17.348V17.3497ZM8.42833 17.3551C8.42833 17.4792 8.4443 17.591 8.478 17.6885C8.50992 17.7843 8.55958 17.8694 8.62343 17.9386C8.68906 18.0095 8.76178 18.0627 8.84159 18.0964C8.92318 18.1319 9.01186 18.1497 9.11119 18.1497C9.21051 18.1497 9.30274 18.1319 9.38433 18.0964C9.46591 18.061 9.53863 18.0078 9.60426 17.9368C9.66811 17.8659 9.716 17.779 9.74969 17.6779C9.78162 17.575 9.79936 17.4579 9.79936 17.3249C9.79936 17.2398 9.79226 17.1617 9.77807 17.089C9.76388 17.0163 9.7426 16.9489 9.716 16.8868C9.68762 16.8247 9.65392 16.7698 9.6149 16.7219C9.5741 16.674 9.52799 16.6332 9.47478 16.5995C9.42157 16.5658 9.36482 16.541 9.30629 16.5232C9.24776 16.5055 9.1839 16.4984 9.11828 16.4984C9.02428 16.4984 8.93737 16.5144 8.85578 16.5481C8.77597 16.58 8.70147 16.6296 8.6323 16.6953C8.5649 16.7609 8.51524 16.8478 8.48154 16.956C8.44784 17.066 8.43011 17.2008 8.43011 17.3568L8.42833 17.3551ZM5.06197 18.3873V16.2536H5.80512C5.88671 16.2536 5.95943 16.2554 6.02151 16.2607C6.08536 16.266 6.13857 16.2731 6.18291 16.2838C6.24498 16.298 6.30174 16.3193 6.35495 16.3441C6.40816 16.3707 6.45605 16.4026 6.50039 16.4399C6.55714 16.4878 6.60681 16.5427 6.64937 16.6048C6.69194 16.6669 6.72741 16.7343 6.75402 16.8106C6.7824 16.885 6.80368 16.9649 6.8161 17.05C6.83028 17.1351 6.83738 17.2256 6.83738 17.3214C6.83738 17.4012 6.83206 17.4792 6.82319 17.5502C6.81432 17.6229 6.80013 17.6903 6.78062 17.7541C6.76111 17.8162 6.73983 17.8747 6.71677 17.9262C6.69194 17.9794 6.66534 18.0255 6.63518 18.0681C6.60503 18.1106 6.57488 18.1479 6.54118 18.1798C6.50926 18.2135 6.47378 18.2419 6.43831 18.2649C6.40284 18.2898 6.36382 18.3111 6.32125 18.3288C6.27868 18.3465 6.23257 18.3625 6.18291 18.3749C6.13324 18.3873 6.08004 18.3962 6.02328 18.4033C5.96652 18.4086 5.90622 18.4121 5.84237 18.4121H5.06551V18.3873H5.06197ZM5.38832 18.1142H5.80867C5.87607 18.1142 5.93637 18.1106 5.98958 18.1053C6.04279 18.0982 6.08713 18.0893 6.12438 18.0769C6.16162 18.0645 6.19532 18.0503 6.22547 18.0326C6.25385 18.0149 6.28046 17.9953 6.30174 17.9741C6.33189 17.9421 6.36027 17.9049 6.3851 17.8623C6.40993 17.8198 6.43122 17.7701 6.44895 17.7169C6.46669 17.6619 6.48088 17.6016 6.48975 17.536C6.49861 17.4703 6.50393 17.3976 6.50393 17.3178C6.50393 17.2096 6.49507 17.1138 6.47733 17.0305C6.45959 16.9489 6.43476 16.878 6.39929 16.8212C6.36559 16.7644 6.32657 16.7166 6.28578 16.6775C6.24498 16.6403 6.20064 16.6119 6.15098 16.5924C6.11551 16.5782 6.06939 16.5693 6.01264 16.5622C5.95411 16.5551 5.88493 16.5516 5.80335 16.5516H5.39186V18.116L5.38832 18.1142ZM1.85523 18.3873V16.2501H2.18158L2.18867 16.2607L3.25463 17.8499V16.2501H3.57388V18.4121H3.24753L3.24044 18.4015L2.17271 16.8123V18.4121H1.85345V18.3873H1.85523Z" fill="#231F20"/>
</g>
<defs>
<clipPath id="clip0_1801_18801">
<rect width="79.9982" height="18.4512" rx="8" fill="white"/>
</clipPath>
</defs>
</svg>
