<svg width="80" height="28" viewBox="0 0 80 28" fill="none" xmlns="http://www.w3.org/2000/svg">
<g clip-path="url(#clip0_1801_18837)">
<path d="M67.4383 17.5142C67.0854 16.6184 66.5986 15.8432 65.9947 15.2116C65.389 14.5818 64.67 14.0823 63.8612 13.732C63.8496 13.7262 62.7068 13.1712 61.3687 13.1999C60.5581 13.2171 60.1155 13.4181 59.7608 13.6095C59.7281 13.6287 59.6972 13.6478 59.665 13.6688C59.5171 13.7665 59.1472 14.0115 58.8136 14.4192C58.1772 15.1963 58.0909 16.4328 58.2232 17.3305L58.275 17.6865L58.5376 17.4549C58.7715 17.2482 59.2028 16.9438 59.8275 16.7907C60.161 16.7084 60.512 16.7008 60.8534 16.7467C61.6682 16.8577 62.3618 17.2118 62.9196 17.8032C63.6005 18.5248 63.9454 19.457 63.9454 20.5729C63.9454 21.6927 63.5986 22.6114 62.9141 23.3043C62.2278 23.9991 61.3499 24.3513 60.3028 24.3513C59.2469 24.3513 58.3708 24.0087 57.6941 23.3349C56.613 22.2553 56.6877 20.1288 56.6897 20.0982V7.5553C56.6897 7.49212 56.6475 7.4347 56.5861 7.41749L56.149 7.28544C55.7733 7.17248 55.3401 7.11507 54.8608 7.11507C54.2129 7.11507 53.6915 7.24718 53.3139 7.5094C52.9765 7.74288 52.8059 8.17741 52.8059 8.79564V19.8877C52.8059 21.0705 52.9267 22.1061 53.1643 22.9674C53.4001 23.8153 53.7356 24.535 54.165 25.1073C54.8513 26.0088 55.7388 26.7036 56.8047 27.1726C57.882 27.6454 59.0954 27.8866 60.4144 27.8866C61.4918 27.8866 62.5037 27.7066 63.424 27.3526C64.342 26.9984 65.1453 26.4988 65.8146 25.8672C66.4816 25.2375 67.0127 24.4585 67.394 23.555C67.7754 22.6497 67.967 21.6371 67.967 20.5461C67.973 19.4302 67.793 18.4119 67.4383 17.5142Z" fill="#0072FF"/>
<path d="M43.9728 7.2912C43.5857 7.17824 43.1466 7.11889 42.6693 7.11889C42.0214 7.11889 41.5 7.251 41.1224 7.51322C40.785 7.74676 40.6144 8.18123 40.6144 8.79946V27.4904H44.5249V7.4558L43.9728 7.2912Z" fill="#0072FF"/>
<path d="M48.7979 11.46C49.4132 11.46 49.9384 11.2514 50.3583 10.8418C50.7761 10.4321 50.987 9.9154 50.987 9.30287C50.987 8.69039 50.7743 8.16589 50.3563 7.74864C49.9366 7.33139 49.4132 7.11889 48.7998 7.11889C48.1863 7.11889 47.6688 7.32945 47.2585 7.7467C46.8483 8.16589 46.6394 8.68845 46.6394 9.30481C46.6394 9.91922 46.8464 10.4379 47.2566 10.8456C47.663 11.2533 48.1825 11.46 48.7979 11.46Z" fill="#0072FF"/>
<path d="M48.9105 13.6093C48.2625 13.6093 47.7411 13.7413 47.3635 14.0036C47.0261 14.239 46.8554 14.6716 46.8554 15.2899V27.4901H50.768V13.9443L50.2159 13.7797C49.8287 13.6667 49.3897 13.6093 48.9105 13.6093Z" fill="#0072FF"/>
<path d="M73.0762 7.2912C72.6887 7.17824 72.2498 7.11889 71.7726 7.11889C71.1245 7.11889 70.6031 7.251 70.2254 7.51322C69.8883 7.74864 69.7155 8.18123 69.7155 8.79946V27.4904H73.6285V7.4558L73.0762 7.2912Z" fill="#0072FF"/>
<path d="M77.8131 11.4618C78.4285 11.4618 78.9536 11.2532 79.3713 10.8436C79.789 10.4358 80 9.91716 80 9.30462C80 8.69215 79.7872 8.16765 79.3695 7.7504C78.9499 7.33315 78.4261 7.12071 77.8131 7.12071C77.1995 7.12071 76.68 7.33121 76.2719 7.74852C75.8615 8.16771 75.6523 8.69021 75.6523 9.30657C75.6523 9.92098 75.8597 10.4397 76.2695 10.8474C76.6781 11.2532 77.1977 11.4618 77.8131 11.4618Z" fill="#0072FF"/>
<path d="M77.9277 13.6093C77.2778 13.6093 76.7588 13.7413 76.3811 14.0036C76.0434 14.2371 75.8712 14.6716 75.8712 15.2899V27.4901H79.7817V13.9443L79.2294 13.7797C78.8444 13.6667 78.4055 13.6093 77.9277 13.6093Z" fill="#0072FF"/>
<path d="M38.2775 17.5142C37.9248 16.6184 37.4379 15.8432 36.834 15.2116C36.2283 14.5818 35.5094 14.0823 34.7004 13.732C34.689 13.7262 33.5465 13.1712 32.2084 13.1999C31.3975 13.2171 30.9547 13.4181 30.6001 13.6095C30.5675 13.6287 30.5368 13.6478 30.5042 13.6688C30.3566 13.7665 29.9866 14.0115 29.6531 14.4192C29.0166 15.1963 28.9304 16.4328 29.0626 17.3305L29.1144 17.6865L29.3771 17.4549C29.6109 17.2482 30.0442 16.9438 30.6671 16.7907C31.0007 16.7084 31.3515 16.7008 31.6927 16.7467C32.5075 16.8577 33.2014 17.2118 33.7592 17.8032C34.4398 18.5248 34.7848 19.457 34.7848 20.5729C34.7848 21.6927 34.4378 22.6114 33.7535 23.3043C33.0672 23.9991 32.1892 24.3513 31.1426 24.3513C30.0863 24.3513 29.2103 24.0087 28.5336 23.3349C27.4524 22.2553 27.5272 20.1288 27.5291 20.0982V7.5553C27.5291 7.49212 27.4869 7.4347 27.4256 7.41749L26.9885 7.28544C26.6128 7.17248 26.1796 7.11507 25.7003 7.11507C25.0524 7.11507 24.5309 7.24718 24.1533 7.5094C23.8159 7.74288 23.6453 8.17741 23.6453 8.79564V19.8877C23.6453 21.0705 23.7661 22.1061 24.0038 22.9674C24.2396 23.8153 24.5751 24.535 25.0044 25.1073C25.6907 26.0088 26.5782 26.7036 27.6441 27.1726C28.7214 27.6454 29.9349 27.8866 31.2537 27.8866C32.3311 27.8866 33.3432 27.7066 34.2634 27.3526C35.1816 26.9984 35.9848 26.4988 36.6538 25.8672C37.3229 25.2375 37.8519 24.4585 38.2334 23.555C38.6149 22.6497 38.8066 21.6371 38.8066 20.5461C38.8104 19.4302 38.6321 18.4119 38.2775 17.5142Z" fill="#0072FF"/>
<path d="M19.6017 26.1023C17.858 19.8715 17.858 15.59 19.0485 8.70828C19.1576 8.03614 18.616 7.46175 17.9441 7.46175C17.9116 7.46175 17.8905 7.46175 17.858 7.46175C14.3382 7.8083 12.0739 7.99213 9.81917 7.99213C7.5645 7.99213 5.29067 7.81788 1.78036 7.46175C1.74782 7.46175 1.72676 7.46175 1.69423 7.46175C1.03389 7.46175 0.492228 8.03614 0.58984 8.70828C1.78227 15.59 1.78227 19.8715 0.0481807 26.1023C-0.168101 26.8069 0.373559 27.456 1.07792 27.456H18.5739C19.2763 27.456 19.818 26.805 19.6017 26.1023ZM13.3295 11.5939C13.7946 11.5939 14.164 11.9615 14.164 12.4057C14.164 12.8289 13.7965 13.2176 13.3295 13.2176C12.8644 13.2176 12.539 12.8384 12.539 12.4057C12.539 11.9615 12.8644 11.5939 13.3295 11.5939ZM6.24382 11.5939C6.7089 11.5939 7.07832 11.9615 7.07832 12.4057C7.07832 12.8289 6.71084 13.2176 6.24382 13.2176C5.77873 13.2176 5.45334 12.8384 5.45334 12.4057C5.45334 11.9615 5.77873 11.5939 6.24382 11.5939ZM9.80771 19.5805C6.39503 19.5805 5.29067 16.601 5.29067 15.1592C5.29067 14.8567 5.52991 14.6173 5.83233 14.6173C6.13475 14.6173 6.37399 14.8567 6.37399 15.1592C6.37399 16.243 7.20849 18.4967 9.80771 18.4967C12.3974 18.4967 13.2414 16.2525 13.2414 15.1592C13.2414 14.8567 13.4807 14.6173 13.7831 14.6173C14.0855 14.6173 14.3248 14.8567 14.3248 15.1592C14.3267 16.6106 13.2204 19.5805 9.80771 19.5805Z" fill="#0072FF"/>
<path d="M12.0798 4.5117C13.3081 4.22154 14.0688 2.99015 13.7787 1.76132C13.4887 0.532491 12.2578 -0.228457 11.0295 0.061704C9.80117 0.351865 9.04058 1.58326 9.33056 2.81209C9.62061 4.04092 10.8515 4.80187 12.0798 4.5117Z" fill="#FFCD00"/>
<path d="M16.993 6.77646L17.0753 4.49592C17.1021 3.73575 16.2637 3.25706 15.6245 3.67065L11.362 6.42602C11.0596 6.62131 10.8758 6.90663 10.8031 7.21305C12.5372 7.17279 14.3919 7.02728 16.993 6.77646Z" fill="#00CDC7"/>
<path d="M2.77746 6.79155C5.56235 7.06535 7.67539 7.22426 9.76552 7.2262L8.76641 3.91361C8.57688 3.28364 7.91275 2.92748 7.28306 3.11704L3.27702 4.32528C2.6473 4.51485 2.2913 5.17928 2.48079 5.80924L2.77746 6.79155Z" fill="#FF4646"/>
</g>
<defs>
<clipPath id="clip0_1801_18837">
<rect width="80" height="27.8866" rx="8" fill="white"/>
</clipPath>
</defs>
</svg>
