<svg width="80" height="13" viewBox="0 0 80 13" fill="none" xmlns="http://www.w3.org/2000/svg">
<g clip-path="url(#clip0_1801_18795)">
<path fill-rule="evenodd" clip-rule="evenodd" d="M5.49326 6.97977L4.0269 0.9422C3.98639 0.777029 3.91223 0.62199 3.8091 0.486768C3.70594 0.351545 3.57603 0.239046 3.42745 0.156296C3.27887 0.0735468 3.11482 0.022325 2.94555 0.00583114C2.77628 -0.0106628 2.60543 0.00792549 2.44367 0.0604348L0.856848 0.576284C0.694952 0.628564 0.545577 0.713681 0.418068 0.826313C0.290557 0.938942 0.187652 1.07666 0.115784 1.23087C0.0439165 1.38508 0.00463158 1.55245 0.000385366 1.72253C-0.00386087 1.8926 0.0270229 2.06173 0.0911058 2.21933L2.45616 7.96597C2.57427 8.25503 2.79727 8.48877 3.08046 8.62035C3.36365 8.75194 3.6861 8.77161 3.98319 8.67548L4.67484 8.45058C4.97181 8.3541 5.22126 8.14884 5.37306 7.876C5.52487 7.60316 5.56781 7.28297 5.49326 6.97977ZM5.71368 12.821C5.39487 12.9241 5.05265 12.9304 4.73026 12.8391C4.40784 12.7478 4.11971 12.5631 3.90223 12.3082C3.68474 12.0533 3.54761 11.7397 3.50823 11.407C3.46881 11.0742 3.52887 10.7373 3.68077 10.4386C3.83271 10.14 4.06974 9.89303 4.3619 9.72897C4.65403 9.56494 4.98826 9.4911 5.32236 9.51684C5.65642 9.54255 5.97539 9.66668 6.239 9.87355C6.50258 10.0804 6.699 10.3607 6.80339 10.6791C6.873 10.8913 6.89997 11.1151 6.88284 11.3377C6.86571 11.5604 6.80474 11.7774 6.70348 11.9764C6.60226 12.1755 6.46268 12.3525 6.29284 12.4975C6.12297 12.6424 5.92616 12.7524 5.71368 12.821ZM9.23629 11.2708C11.4121 10.564 13.1685 8.05523 12.2948 5.36529C11.4202 2.67717 8.52497 1.67849 6.34913 2.38533C6.10487 2.46451 5.89968 2.63326 5.77481 2.85763C5.64997 3.082 5.61474 3.34532 5.67619 3.59465L5.89574 4.49871C5.92929 4.63442 5.99039 4.76181 6.07526 4.87287C6.16016 4.98394 6.267 5.07635 6.38916 5.14435C6.51132 5.21232 6.64616 5.25442 6.78529 5.26803C6.92442 5.28164 7.06487 5.26645 7.19787 5.22339L7.28713 5.19484C7.50242 5.11832 7.73084 5.08571 7.95894 5.09897C8.18703 5.11223 8.41016 5.17103 8.61516 5.27197C8.82013 5.3729 9.00281 5.51387 9.15239 5.68658C9.30197 5.85929 9.41545 6.06023 9.48606 6.27752C9.55668 6.49481 9.58303 6.72406 9.56358 6.95171C9.54413 7.17935 9.47923 7.40081 9.37274 7.60297C9.26626 7.80513 9.12036 7.98387 8.94365 8.12871C8.7669 8.27352 8.56294 8.38145 8.34381 8.44613L8.25455 8.47468C8.12181 8.5181 7.99942 8.58842 7.89503 8.68126C7.79068 8.7741 7.70655 8.88745 7.64794 9.01423C7.58932 9.141 7.55745 9.27852 7.55432 9.41816C7.55123 9.55781 7.57694 9.69661 7.62984 9.82587L7.98058 10.688C8.07755 10.9258 8.26094 11.1181 8.4939 11.2262C8.72684 11.3343 8.99207 11.3503 9.23629 11.2708Z" fill="#E31E52"/>
<path fill-rule="evenodd" clip-rule="evenodd" d="M19.0526 4.36034C20.2093 3.74099 21.6345 3.85431 22.6002 4.81908C23.5266 5.74724 23.5453 7.0815 23.5453 7.60628C23.5453 9.09224 22.859 10.3444 21.5524 10.7299C19.813 11.2627 17.149 10.7924 17.149 10.7924C17.0899 10.7858 17.0353 10.7577 16.9956 10.7134C16.9559 10.6691 16.9339 10.6118 16.9339 10.5523V2.34157C16.9339 2.28973 16.9545 2.24002 16.9911 2.20337C17.0278 2.16671 17.0775 2.14612 17.1293 2.14612H18.7608C18.8126 2.14612 18.8623 2.16671 18.899 2.20337C18.9356 2.24002 18.9562 2.28973 18.9562 2.34157V4.30502C18.9563 4.31628 18.9593 4.32731 18.9649 4.33702C18.9706 4.34676 18.9787 4.35482 18.9885 4.36044C18.9983 4.36602 19.0093 4.36899 19.0205 4.36895C19.0318 4.36895 19.0429 4.36599 19.0526 4.36034ZM19.0356 9.06637C19.5372 9.20737 20.5386 9.26092 21.1115 8.66563V8.66744C21.5042 8.28544 21.9639 7.05028 21.041 6.12744C20.6519 5.72941 20.0147 5.51431 19.1294 5.88379C19.0769 5.90886 19.0328 5.94837 19.0021 5.99773C18.9714 6.04705 18.9555 6.10415 18.9562 6.16224V8.95392C18.9554 8.97873 18.9628 9.00315 18.9771 9.02344C18.9914 9.04373 19.012 9.05879 19.0356 9.06637ZM47.3029 2.34694V10.8397C47.3032 10.8742 47.3171 10.9072 47.3413 10.9316C47.3658 10.956 47.3987 10.9698 47.4332 10.97H49.2068C49.2413 10.97 49.2745 10.9563 49.299 10.9319C49.3235 10.9075 49.3374 10.8744 49.3377 10.8397V2.34694C49.3377 2.2951 49.3171 2.24539 49.2806 2.20873C49.2439 2.17208 49.1942 2.15149 49.1423 2.15149H47.4968C47.4452 2.15196 47.3958 2.17276 47.3597 2.20936C47.3232 2.24597 47.3029 2.29541 47.3029 2.34694ZM31.458 9.46799C31.3583 9.45399 31.2637 9.41499 31.1831 9.35463C31.0939 9.27612 31.0465 9.13776 31.0367 8.91286V4.21399C31.0365 4.16886 31.0185 4.12563 30.9865 4.09373C30.9546 4.06179 30.9114 4.04376 30.8663 4.04353H29.1938C29.1486 4.04353 29.1052 4.0615 29.0733 4.09347C29.0413 4.12544 29.0233 4.16879 29.0233 4.21399V8.57283C29.0242 8.57934 29.0242 8.58595 29.0233 8.59247C28.8627 9.16008 28.1969 9.33144 27.6748 9.24308C26.9332 9.11815 26.6235 8.49518 26.6502 7.77763C26.6502 7.75266 26.6601 4.45676 26.6618 4.21399C26.6618 4.16879 26.6439 4.12544 26.6119 4.09347C26.5799 4.0615 26.5366 4.04353 26.4914 4.04353H24.8225C24.7776 4.04353 24.7346 4.06128 24.7029 4.09289C24.6711 4.1245 24.6531 4.16737 24.6529 4.21221C24.6529 4.92618 24.6475 8.35863 24.6475 8.35863C24.6475 8.89412 24.8153 10.6291 26.5592 10.9468C27.3794 11.0959 28.3549 10.8326 29.1429 10.2721C29.1502 10.2667 29.1585 10.2628 29.1672 10.2607C29.176 10.2585 29.1852 10.2582 29.1941 10.2597C29.203 10.2612 29.2115 10.2645 29.2192 10.2694C29.2268 10.2743 29.2333 10.2807 29.2384 10.2882C29.4283 10.55 29.6984 10.7427 30.0077 10.8371C30.4679 10.9884 31.0931 10.9273 31.2819 10.9089L31.2866 10.9084C31.3163 10.9052 31.3439 10.8919 31.365 10.8708C31.3861 10.8497 31.3994 10.8221 31.4027 10.7924L31.5624 9.61792C31.5684 9.58421 31.5608 9.54947 31.5412 9.52137C31.5216 9.49328 31.4917 9.47408 31.458 9.46799ZM64.9177 6.90389C64.8581 6.13905 64.6213 5.34118 64.1358 4.76195L64.1229 4.74631L64.1103 4.73141C63.9106 4.49076 63.3765 3.84741 61.7316 3.85253C61.0577 3.85253 60.3832 3.89805 59.7119 3.96231C59.3281 3.99712 58.9445 4.03637 58.5616 4.07653C58.3135 4.1026 58.3142 4.25302 58.3152 4.45541C58.3152 4.46786 58.3152 4.4805 58.3152 4.49334V12.5988C58.3103 12.6382 58.3132 12.6782 58.3235 12.7165C58.3342 12.7548 58.3523 12.7906 58.3768 12.8219C58.4374 12.8656 58.5123 12.8847 58.5864 12.8754H60.0555C60.0916 12.8857 60.1297 12.8862 60.1661 12.8772C60.2026 12.8681 60.2361 12.8496 60.2629 12.8237C60.29 12.7977 60.31 12.7651 60.3203 12.7291C60.331 12.6931 60.3319 12.6549 60.3232 12.6184C60.3268 12.1476 60.3258 11.6831 60.3245 11.217C60.3239 10.9834 60.3232 10.7494 60.3232 10.514C60.3232 10.5015 60.3265 10.4892 60.3332 10.4786C60.3397 10.468 60.349 10.4594 60.3603 10.4541C60.3716 10.4487 60.3842 10.4467 60.3968 10.4483C60.409 10.4499 60.421 10.4551 60.4303 10.4631C61.0158 10.9727 61.8913 11.1137 62.6429 10.896C63.439 10.6675 64.0994 10.057 64.4787 9.31895C64.8581 8.58086 64.981 7.73212 64.9177 6.90389ZM62.8652 7.88028C62.6971 8.53624 62.3965 9.0405 61.4932 9.09492C61.0416 9.12083 60.3242 8.86557 60.3242 8.44521V5.93112C60.3242 5.83473 60.3348 5.76421 60.4287 5.72228C60.6223 5.63302 61.1426 5.56073 61.5416 5.57321C63.2587 5.62231 62.9526 7.55631 62.8694 7.88028H62.8652ZM36.7119 7.2627C36.569 7.46528 36.569 7.53399 36.7029 7.72321L39.07 10.7674C39.0839 10.787 39.0923 10.81 39.0939 10.834C39.0955 10.858 39.0903 10.8819 39.0787 10.9031C39.0681 10.9246 39.0516 10.9427 39.031 10.9552C39.0106 10.9677 38.9868 10.9741 38.9629 10.9736H37.0135C36.9919 10.9735 36.971 10.9681 36.9519 10.9578C36.9329 10.9475 36.9168 10.9327 36.9048 10.9147L34.8665 8.27118C34.8539 8.25512 34.8365 8.24331 34.8171 8.23734C34.7974 8.23134 34.7768 8.23147 34.7571 8.2377C34.7377 8.24389 34.7206 8.25592 34.7084 8.27212C34.6958 8.28831 34.6887 8.30792 34.6877 8.32831V10.8433C34.6877 10.8779 34.6735 10.9111 34.649 10.9355C34.6245 10.9599 34.5913 10.9736 34.5568 10.9736H32.7968C32.7623 10.9734 32.7294 10.9596 32.7048 10.9352C32.6803 10.9108 32.6668 10.8778 32.6665 10.8433V2.34694C32.6661 2.32105 32.671 2.29537 32.681 2.27139C32.6906 2.24741 32.7052 2.22561 32.7232 2.20726C32.7416 2.18891 32.7632 2.17437 32.7871 2.16449C32.8113 2.15461 32.8368 2.14959 32.8629 2.14971H34.4916C34.5432 2.14971 34.5929 2.1703 34.6297 2.20695C34.6665 2.24361 34.6871 2.29332 34.6871 2.34516V6.80753C34.6877 6.82573 34.6939 6.84331 34.7048 6.85789C34.7158 6.8725 34.7306 6.88337 34.7481 6.88912C34.7655 6.89486 34.7839 6.89515 34.8016 6.88999C34.819 6.88479 34.8345 6.87441 34.8458 6.86018C35.2384 6.3247 36.5923 4.42731 36.8094 4.1176C36.8213 4.10021 36.8371 4.08602 36.8558 4.07621C36.8745 4.06641 36.8952 4.06131 36.9165 4.06137H38.82C38.8445 4.06076 38.8687 4.06737 38.8894 4.08037C38.9103 4.09341 38.9268 4.11224 38.9368 4.13457C38.9481 4.15631 38.9529 4.18089 38.9506 4.20528C38.9481 4.22966 38.9387 4.25286 38.9235 4.27202L36.7119 7.2627ZM77.5642 7.72321C77.431 7.53399 77.431 7.46528 77.5739 7.2627L79.789 4.27202C79.8039 4.2526 79.8129 4.2295 79.8152 4.20524C79.8174 4.18099 79.8132 4.15657 79.8023 4.1347C79.7916 4.11283 79.7748 4.09441 79.7542 4.08144C79.7336 4.0685 79.71 4.06153 79.6855 4.06137H77.7784C77.7571 4.06124 77.7365 4.06631 77.7177 4.07612C77.699 4.08592 77.6829 4.10018 77.6713 4.1176C77.4542 4.42731 76.1003 6.3247 75.7077 6.86018C75.6965 6.87476 75.681 6.88547 75.6632 6.89086C75.6458 6.89624 75.6268 6.89602 75.6094 6.89024C75.5916 6.88447 75.5765 6.87344 75.5655 6.85863C75.5545 6.84379 75.5484 6.82595 75.5481 6.80753V2.34515C75.5481 2.31949 75.5429 2.29407 75.5332 2.27036C75.5232 2.24664 75.509 2.2251 75.4906 2.20695C75.4726 2.1888 75.451 2.1744 75.4274 2.16458C75.4035 2.15476 75.3781 2.1497 75.3526 2.1497H73.7203C73.6945 2.1497 73.669 2.15476 73.6455 2.16458C73.6216 2.1744 73.6 2.1888 73.5819 2.20695C73.5639 2.2251 73.5494 2.24664 73.5397 2.27036C73.5297 2.29407 73.5248 2.31949 73.5248 2.34515V10.8415C73.5248 10.8761 73.539 10.9093 73.5635 10.9337C73.5881 10.9581 73.6213 10.9718 73.6558 10.9718H75.4158C75.4503 10.9716 75.4836 10.9578 75.5077 10.9334C75.5323 10.909 75.5461 10.876 75.5461 10.8415V8.32831C75.5477 8.30815 75.5552 8.28889 75.5674 8.27302C75.58 8.25712 75.5968 8.24534 75.6161 8.23918C75.6352 8.23305 75.6558 8.23279 75.6752 8.2385C75.6945 8.24421 75.7119 8.2556 75.7248 8.27118L77.7632 10.9147C77.7752 10.9327 77.7913 10.9474 77.8103 10.9577C77.8294 10.968 77.8503 10.9734 77.8719 10.9736H79.8219C79.8461 10.9739 79.8697 10.9674 79.89 10.9549C79.9106 10.9424 79.9271 10.9245 79.9381 10.9031C79.9494 10.8819 79.9545 10.8579 79.9529 10.8338C79.9513 10.8098 79.9426 10.7868 79.9284 10.7674L77.5642 7.72321ZM46.0648 9.46676L46.0855 9.47153C46.1181 9.47905 46.1468 9.4986 46.1655 9.52625C46.1842 9.55389 46.1916 9.5876 46.1865 9.6206L46.0248 10.7951C46.0219 10.8245 46.009 10.852 45.9884 10.873C45.9674 10.8939 45.94 10.9071 45.9106 10.9102L45.8797 10.9135C45.6536 10.9374 44.9558 11.0113 44.4542 10.7728C44.2165 10.6676 44.0113 10.5002 43.8606 10.2882C43.8561 10.2809 43.8503 10.2747 43.8432 10.2698C43.8361 10.265 43.8284 10.2616 43.82 10.26C43.8116 10.2583 43.8029 10.2583 43.7945 10.2601C43.7861 10.2619 43.7784 10.2654 43.7716 10.2703C43.5161 10.4542 42.4032 11.1699 41.1474 10.9379C40.7819 10.8745 40.439 10.7167 40.1532 10.4801C39.2171 9.67683 39.1548 7.95344 40.0739 7.09489C40.3045 6.90199 40.5655 6.74821 40.8458 6.63973C42.0339 6.12476 43.649 6.20153 43.649 6.20153C43.6671 5.89273 43.61 5.49824 42.8406 5.42863C42.2219 5.36047 41.0787 5.56144 40.74 5.62102C40.7106 5.62615 40.6874 5.63024 40.671 5.63302C40.6455 5.63773 40.619 5.63728 40.5939 5.63166C40.5684 5.62605 40.5442 5.61541 40.5232 5.60034C40.5019 5.58528 40.4839 5.56612 40.4703 5.54399C40.4565 5.52186 40.4474 5.49721 40.4436 5.47147L40.0739 4.37286C40.0697 4.34747 40.0703 4.32147 40.0761 4.29637C40.0816 4.27128 40.0923 4.24753 40.1074 4.22657C40.1223 4.20557 40.1413 4.18776 40.1629 4.17412C40.1848 4.16047 40.209 4.15128 40.2345 4.14705C40.5861 4.09173 41.5671 3.9516 41.9919 3.90608C44.1655 3.64805 44.831 4.36447 45.0748 4.62692C45.0897 4.64308 45.1036 4.65766 45.1155 4.67005C45.6448 5.26263 45.6803 6.09799 45.6752 6.85034L45.661 8.81379C45.661 9.3747 45.8526 9.41837 46.0648 9.46676ZM43.5384 8.98157C43.6055 8.91283 43.6435 8.82063 43.6439 8.72454V7.58395C43.6439 7.46418 43.32 7.49947 43.24 7.50821C43.2303 7.50924 43.2245 7.50989 43.2226 7.50989C42.6765 7.58396 42.289 7.6857 42.0419 7.81421C41.7277 7.98021 41.5697 8.23102 41.5697 8.56389C41.5652 8.67721 41.5871 8.79002 41.6335 8.89344C41.68 8.99689 41.7497 9.08815 41.8374 9.16008C42.4977 9.63131 43.3242 9.20915 43.5384 8.98157ZM57.1013 9.47153L57.0803 9.46673C56.869 9.41834 56.6774 9.37454 56.6774 8.81379L56.6919 6.85034C56.6971 6.09799 56.6606 5.26263 56.1323 4.67005C56.12 4.65747 56.1061 4.64276 56.091 4.62628C55.8458 4.36328 55.1794 3.64824 53.0087 3.90608C52.5839 3.9516 51.6029 4.09173 51.2513 4.14705C51.2003 4.15599 51.1548 4.18476 51.1248 4.22705C51.0948 4.26934 51.0829 4.32176 51.0916 4.37286L51.461 5.47147C51.4648 5.49721 51.4742 5.52186 51.4877 5.54399C51.5016 5.56612 51.5194 5.58528 51.5406 5.60034C51.5619 5.61541 51.5858 5.62605 51.6113 5.63166C51.6368 5.63728 51.6629 5.63773 51.6887 5.63302L51.7035 5.63031C51.9461 5.58599 53.199 5.35702 53.8555 5.42686C54.6248 5.49647 54.6819 5.89095 54.6648 6.19973C54.6648 6.19973 53.0487 6.12299 51.861 6.63795C51.5816 6.74679 51.3219 6.90054 51.0926 7.09312C50.1742 7.95166 50.2355 9.67505 51.1719 10.4783C51.4577 10.7149 51.8003 10.8728 52.1661 10.9361C53.4226 11.1681 54.5348 10.4524 54.79 10.2685C54.7968 10.2636 54.8048 10.2601 54.8132 10.2583C54.8213 10.2565 54.83 10.2565 54.8384 10.2582C54.8468 10.2598 54.8548 10.2632 54.8616 10.2681C54.8687 10.2729 54.8745 10.2791 54.879 10.2864C55.0297 10.4984 55.2348 10.6659 55.4726 10.771C55.9742 11.0095 56.6719 10.9356 56.8981 10.9117L56.9294 10.9084C56.9587 10.9053 56.9858 10.8921 57.0068 10.8712C57.0274 10.8502 57.0406 10.8227 57.0435 10.7933L57.2094 9.6206C57.2145 9.5866 57.2058 9.55199 57.1858 9.52418C57.1655 9.49634 57.1352 9.47747 57.1013 9.47153ZM54.6642 8.72454C54.6635 8.82063 54.6258 8.91283 54.5587 8.98157C54.3436 9.20915 53.5174 9.63131 52.8577 9.16008C52.77 9.08812 52.7003 8.99683 52.6539 8.89341C52.6074 8.78999 52.5855 8.67721 52.59 8.56389C52.59 8.23102 52.7481 7.98021 53.0629 7.81421C53.3103 7.6857 53.6968 7.58396 54.2429 7.50989C54.2445 7.50989 54.2506 7.50924 54.26 7.50821C54.3403 7.49947 54.6648 7.46415 54.6648 7.58395L54.6642 8.72454ZM72.2777 9.46676C72.2845 9.46834 72.2916 9.46995 72.2984 9.47153C72.331 9.47883 72.3597 9.49795 72.3787 9.52518C72.3977 9.55241 72.4061 9.58579 72.4019 9.61879L72.2403 10.7933C72.2374 10.8227 72.2245 10.8502 72.2039 10.8712C72.1829 10.8921 72.1555 10.9053 72.1261 10.9084C72.1171 10.9094 72.1064 10.9105 72.0945 10.9118C71.8671 10.9358 71.17 11.0093 70.6697 10.771C70.4316 10.6661 70.2268 10.4986 70.0761 10.2864C70.0716 10.2792 70.0658 10.2731 70.0587 10.2683C70.0516 10.2635 70.0439 10.2602 70.0355 10.2586C70.0271 10.2569 70.0184 10.2569 70.0103 10.2586C70.0019 10.2603 69.9939 10.2637 69.9871 10.2685C69.7316 10.4524 68.6187 11.1681 67.3632 10.9361C66.9974 10.873 66.6545 10.7151 66.369 10.4783C65.4326 9.67505 65.3703 7.95166 66.2894 7.09312C66.519 6.90054 66.7787 6.74679 67.0577 6.63795C68.2458 6.12299 69.8613 6.19973 69.8613 6.19973C69.8781 5.89095 69.8219 5.49647 69.0526 5.42686C68.3926 5.35673 67.1316 5.58795 66.8974 5.63089L66.8855 5.63302C66.86 5.63776 66.8335 5.63731 66.8081 5.6317C66.7829 5.62608 66.7587 5.61544 66.7374 5.60041C66.7161 5.58534 66.6981 5.56618 66.6842 5.54405C66.6703 5.52192 66.6613 5.49724 66.6571 5.47147L66.2877 4.37286C66.2794 4.32166 66.2916 4.26924 66.3216 4.22699C66.3516 4.18473 66.3971 4.15602 66.4484 4.14705C66.799 4.09173 67.7806 3.9516 68.2048 3.90608C70.3784 3.64805 71.0439 4.36447 71.2877 4.62692C71.3029 4.64315 71.3161 4.65763 71.3284 4.67005C71.8568 5.26263 71.8932 6.09799 71.8881 6.85034L71.8736 8.81379C71.8736 9.3747 72.0655 9.41837 72.2777 9.46676ZM69.7548 8.98157C69.8219 8.91283 69.8597 8.82063 69.8603 8.72454V7.58395C69.8603 7.46418 69.5364 7.49947 69.4561 7.50821C69.4468 7.50924 69.4406 7.50989 69.439 7.50989C68.8919 7.58396 68.5055 7.6857 68.2584 7.81421C67.9432 7.98021 67.7861 8.23102 67.7861 8.56389C67.7816 8.67721 67.8035 8.79002 67.85 8.89344C67.8965 8.99689 67.9661 9.08815 68.0539 9.16008C68.7142 9.63131 69.54 9.20915 69.7548 8.98157Z" fill="#303330"/>
</g>
<defs>
<clipPath id="clip0_1801_18795">
<rect width="79.9532" height="12.9032" rx="6.45162" fill="white"/>
</clipPath>
</defs>
</svg>
