<svg width="80" height="13" viewBox="0 0 80 13" fill="none" xmlns="http://www.w3.org/2000/svg">
<g clip-path="url(#clip0_1801_18792)">
<path d="M13.9513 8.50689C13.9897 8.50689 14.0208 8.47578 14.0208 8.43798C14.0208 8.3991 13.9897 8.368 13.9513 8.368C13.9124 8.368 13.882 8.3991 13.882 8.43798C13.882 8.47578 13.9124 8.50689 13.9513 8.50689Z" fill="#C30D42"/>
<path d="M13.8171 8.50688C13.8558 8.50688 13.8867 8.47578 13.8867 8.43798C13.8867 8.3991 13.8558 8.36799 13.8171 8.36799C13.7784 8.36799 13.7473 8.3991 13.7473 8.43798C13.7473 8.47578 13.7784 8.50688 13.8171 8.50688Z" fill="#C30D42"/>
<path d="M5.61005 10.1682H3.3716C3.17504 10.1682 3.01606 10.0096 3.01606 9.81305L3.01692 8.06428C3.01692 7.88867 3.16359 7.71371 3.37247 7.71457H5.61005C6.43043 7.71457 7.09551 8.2643 7.09551 8.94148C7.09551 9.61908 6.43043 10.1682 5.61005 10.1682ZM3.37441 2.60479H5.3664V2.60652C6.15006 2.64043 6.7728 3.17331 6.7728 3.82543C6.7728 4.47776 6.15006 5.01021 5.3664 5.04434V5.04628L3.377 5.04563C3.18065 5.04563 3.02168 4.88708 3.02168 4.69074L3.01692 2.94413C3.02492 2.75534 3.18303 2.60479 3.37441 2.60479ZM8.9782 5.69407C9.50136 5.03699 9.81845 4.12978 9.7355 3.05689C9.63722 1.82869 9.02183 1.03358 8.10295 0.542602C7.13892 0.0315368 5.88243 0 4.41965 0H0.354894C0.158763 0 0 0.158979 0 0.355759V12.3541C0 12.549 0.155955 12.7069 0.351006 12.7094H4.69722C5.48671 12.7094 6.22048 12.7183 6.87756 12.6144C7.79147 12.4649 8.54144 12.137 9.08771 11.616C9.22293 11.5016 10.9278 9.99471 10.1768 7.44263C10.1768 7.44263 9.90399 6.4773 8.9782 5.69407Z" fill="#C30D42"/>
<path d="M19.3533 1.12776H17.0431C16.8556 1.12776 16.6921 1.28609 16.6921 1.48308V8.42782C16.4111 8.55267 16.1409 8.66197 15.7143 8.73606C15.4685 8.78055 15.1561 8.81922 14.8719 8.80345C14.1502 8.72029 14.0309 8.09409 14.0309 8.09409L14.0292 8.0969C13.9346 7.6757 13.9411 7.1264 13.9197 6.68532C13.8869 6.01463 13.9197 5.3394 13.9197 4.72681V1.48308C13.9197 1.28998 13.7616 1.12776 13.5633 1.12776H11.2531C11.0659 1.12776 10.9026 1.28609 10.9026 1.48308V6.09239C10.9026 6.77431 10.9134 7.42816 10.9715 8.03167C11.1994 9.99255 12.8652 11.5145 14.8863 11.5145C15.1311 11.5145 15.3706 11.4921 15.603 11.4488V11.4499C15.6734 11.4363 15.7426 11.4225 15.8106 11.4065C16.4966 11.24 19.0604 10.2664 19.7093 10.0401V1.48308C19.7093 1.28998 19.5516 1.12776 19.3533 1.12776Z" fill="#C30D42"/>
<path d="M26.854 3.833C26.8449 3.83408 26.3652 3.7952 26.0509 4.23239C25.4146 5.12708 24.2877 6.76914 24.2864 6.77C24.2471 6.82854 24.1801 6.8672 24.1043 6.8672C23.9825 6.8672 23.8816 6.76914 23.8816 6.64796V0.430076C23.8807 0.234376 23.7224 0.0762613 23.5267 0.0762613H21.2124C21.0252 0.0762613 20.8616 0.235455 20.8616 0.431587V12.3528C20.8616 12.3528 20.8616 12.7341 21.2167 12.7341H23.5224C23.7209 12.7341 23.8788 12.5716 23.8788 12.3788V10.4002L23.8794 10.3883C23.8794 10.2669 23.9777 10.1682 24.0987 10.1682C24.1749 10.1682 24.2421 10.2073 24.2814 10.266C24.7864 10.9071 25.4671 11.8154 25.9105 12.3196C25.9114 12.32 26.239 12.7341 26.6888 12.7341H29.713L26.4168 8.46822L29.713 3.833H26.854Z" fill="#C30D42"/>
<path d="M48.7203 8.26841C48.7281 8.44143 48.6 8.58313 48.433 8.60948L48.39 8.61294C48.3861 8.61294 48.382 8.61424 48.3781 8.61424H48.3833L47.5601 8.69135C47.5044 8.70172 47.4467 8.70777 47.3875 8.70777C46.8756 8.70777 46.4602 8.29304 46.4602 7.78154C46.4602 7.26983 46.8756 6.85467 47.3875 6.85467L48.7203 6.72766V8.26841ZM52.8823 9.32273L52.7717 9.31582C52.0284 9.29162 51.8057 9.06007 51.7383 8.75183C51.7165 8.65441 51.7238 8.2088 51.7238 8.055V4.63998C51.7238 3.31394 51.5191 2.36373 50.7885 1.67835C50.0917 1.02235 48.8164 0.880869 47.4893 0.962519C47.0834 0.985415 46.6849 1.02019 46.2926 1.06253C45.477 1.14936 45.2364 1.19299 44.8422 1.25175C44.3795 1.32778 44.1453 1.65956 44.0725 1.94447C44.0412 2.06608 44.0401 2.17884 44.0499 2.26394L44.146 4.26349L44.1468 4.28185L44.1479 4.30842C44.1479 4.30842 44.2188 4.30518 44.1479 4.31706C45.1491 4.15009 45.2696 4.09349 46.6499 3.91205C47.1255 3.84963 48.2725 3.71894 48.5274 3.88159C48.7555 4.02329 48.7417 4.13626 48.7218 4.49267C47.745 4.60261 46.786 4.59829 45.9388 4.77002C45.0871 4.9452 44.4121 5.307 43.9768 5.91527C43.5446 6.53066 43.3805 7.46812 43.4969 8.45331C43.5682 9.04948 43.7749 9.63442 44.1447 10.1118C44.3333 10.355 44.5706 10.5133 44.8383 10.665C45.4066 10.9866 46.0712 11.1477 46.7177 11.1754C46.8931 11.183 47.1234 11.1689 47.2934 11.1469C47.4854 11.122 47.6666 11.084 47.8472 11.0374C48.1956 10.9387 48.6358 10.7656 49.0685 10.4637L49.119 10.5062C49.9221 11.1726 51.37 11.672 52.7717 11.1953L52.8823 11.1611V9.32273Z" fill="#C30D42"/>
<path d="M65.6539 8.99137L66.9866 8.86393V10.4049C66.9944 10.5781 66.867 10.7198 66.6996 10.7455L66.6566 10.7496C66.6527 10.7496 66.6484 10.7509 66.6445 10.7509H66.6503L65.8269 10.8283C65.771 10.8386 65.7131 10.8443 65.6539 10.8443C65.142 10.8443 64.727 10.4297 64.727 9.91781C64.727 9.4061 65.142 8.99137 65.6539 8.99137ZM63.4036 12.7341H72.129L71.1486 11.4594L71.0378 11.4527C70.295 11.4283 70.0718 11.1966 70.0046 10.8887C69.9835 10.7913 69.9902 10.3457 69.9902 10.1913V6.77669C69.9902 5.45064 69.7854 4.50044 69.0551 3.81528C68.3585 3.15884 67.083 3.01736 65.7561 3.09944C65.3498 3.12234 64.9512 3.1569 64.5592 3.1988C63.7431 3.28563 63.5029 3.32948 63.1085 3.38867C62.6463 3.46405 62.4119 3.79605 62.3391 4.08118C62.3076 4.20279 62.3063 4.31554 62.3164 4.40065L62.4121 6.39976L62.413 6.41877L62.4149 6.44534C62.4149 6.44534 62.4851 6.44167 62.4149 6.45333C63.4155 6.28679 63.5366 6.23041 64.9165 6.04875C65.3921 5.98611 66.5393 5.85565 66.7942 6.01873C67.0216 6.16021 67.0078 6.27297 66.9886 6.62894C66.0116 6.73953 65.0523 6.73478 64.2052 6.9065C63.3537 7.08168 62.6778 7.44327 62.2434 8.05219C61.811 8.66737 61.647 9.60439 61.7632 10.59C61.8343 11.1862 62.0412 11.7709 62.411 12.2483C62.5724 12.4559 62.9906 12.7341 63.4036 12.7341Z" fill="#C30D42"/>
<path d="M77.1408 3.833C77.1319 3.83408 76.6519 3.7952 76.3377 4.23239C75.7013 5.12708 74.5744 6.76914 74.5736 6.77C74.5338 6.82854 74.4666 6.8672 74.3908 6.8672C74.2694 6.8672 74.1686 6.76914 74.1686 6.64796V0.430076C74.167 0.234376 74.0089 0.0762613 73.8132 0.0762613H71.4992C71.3117 0.0762613 71.1484 0.235455 71.1484 0.431587V12.3528C71.1484 12.3528 71.1484 12.7341 71.5033 12.7341H73.8096C74.0076 12.7341 74.166 12.5716 74.166 12.3788V10.4002L74.1662 10.3883C74.1662 10.2669 74.2642 10.1682 74.3859 10.1682C74.4617 10.1682 74.5288 10.2073 74.5682 10.266C75.0725 10.9071 75.7542 11.8154 76.197 12.3196C76.1981 12.32 76.5256 12.7341 76.9757 12.7341H80L76.704 8.46822L80 3.833H77.1408Z" fill="#C30D42"/>
<path d="M57.7313 6.5905C57.3561 6.82357 56.7604 6.79355 56.164 6.79312H55.8426L55.8447 3.28154C56.2141 3.20486 56.5193 3.13315 56.9137 3.10831C58.1054 3.03314 58.2545 3.8289 58.3039 4.77694C58.3439 5.55801 58.2519 6.27168 57.7313 6.5905ZM61.1977 3.39473C60.928 1.57295 60.1938 0.3251 58.3409 0.0881435C56.5167 -0.145789 54.7038 0.449085 53.0682 1.21093C53.0414 1.2267 53.0002 1.25089 52.976 1.27379C52.8967 1.33902 52.8442 1.43795 52.8442 1.54919V12.3533C52.8442 12.5498 53.008 12.7088 53.1948 12.7088H55.5054C55.7035 12.7088 55.8614 12.5464 55.8614 12.3533L55.8622 9.74157C56.7487 9.83769 57.6732 9.82386 58.4191 9.64933C60.0484 9.2696 60.993 8.04896 61.2176 6.28248C61.3401 5.39536 61.3401 4.33953 61.1977 3.39473Z" fill="#C30D42"/>
<path d="M34.2608 7.82366C34.2683 7.9969 34.1402 8.13838 33.9733 8.16452L33.9301 8.1684C33.9262 8.1684 33.9219 8.1697 33.9184 8.1697H33.9236L33.1002 8.24703C33.0445 8.2574 32.9864 8.26301 32.9272 8.26301C32.4152 8.26301 32.0001 7.84829 32.0001 7.33679C32.0001 6.82508 32.4152 6.41013 32.9272 6.41013L34.2608 6.28291V7.82366ZM46.1276 10.8801L44.7361 10.3129L44.1172 10.0857C44.1235 10.0939 44.128 10.1021 44.1341 10.1098C44.1494 10.1295 44.1661 10.1481 44.1821 10.1664L41.4578 10.1688V0.404582C41.4578 0.404582 41.4433 0.0684801 41.0988 0.0684801H38.802C38.802 0.0684801 38.4348 0.0697764 38.4348 0.430935V3.98722C38.4357 4.91668 38.4359 5.85414 38.4348 6.77259V8.87776H38.4219L38.3113 8.87106C37.5684 8.84709 37.3451 8.61553 37.2781 8.30729C37.2565 8.20966 37.2634 7.76448 37.2634 7.61025V4.19523C37.2634 2.86962 37.0593 1.9192 36.3284 1.2336C35.6322 0.578032 34.3569 0.435902 33.0296 0.517767C32.623 0.54088 32.2247 0.575657 31.8329 0.61713C31.0173 0.703963 30.776 0.748244 30.3824 0.807429C29.9193 0.883031 29.6854 1.2146 29.6122 1.50015C29.5811 1.62133 29.5802 1.73452 29.5897 1.81941L29.6854 3.81852L29.6863 3.83731L29.6882 3.8641C29.6882 3.8641 29.7586 3.86021 29.6882 3.87187C30.6889 3.70534 30.8097 3.64896 32.1902 3.46751C32.6652 3.40466 33.8126 3.27462 34.0675 3.43706C34.2951 3.57876 34.2811 3.69173 34.2619 4.04748C33.2851 4.15829 32.3258 4.15354 31.4791 4.32527C30.6272 4.50044 29.9517 4.86182 29.5171 5.47073C29.0847 6.0857 28.9205 7.02358 29.0367 8.00856C29.1082 8.60473 29.3149 9.18945 29.685 9.66725C29.8731 9.91004 30.1109 10.0686 30.3781 10.2204C30.9471 10.5419 31.6113 10.7028 32.2582 10.7306C32.4327 10.7386 32.6632 10.7242 32.833 10.7019C33.0252 10.6769 33.2065 10.6395 33.387 10.593C33.7355 10.4939 34.1755 10.3213 34.6081 10.0189L34.6591 10.0612C35.462 10.7278 36.9096 11.2268 38.3113 10.7509L38.4348 10.7123V11.6068H38.4381V12.3958C38.4502 12.5814 38.6033 12.7274 38.7912 12.7285H45.9436C46.1198 12.72 46.2635 12.5846 46.281 12.4105C46.2859 12.3019 46.2913 12.183 46.2963 12.0578V11.1367C46.3531 11.1445 46.4101 11.1467 46.468 11.1523L46.1276 10.8801Z" fill="#C30D42"/>
</g>
<defs>
<clipPath id="clip0_1801_18792">
<rect width="80" height="12.7341" rx="6.36704" fill="white"/>
</clipPath>
</defs>
</svg>
