<svg width="80" height="21" viewBox="0 0 80 21" fill="none" xmlns="http://www.w3.org/2000/svg">
<g clip-path="url(#clip0_1801_18807)">
<g clip-path="url(#clip1_1801_18807)">
<path d="M32.696 2.93225H34.5081V11.6515H37.6319V13.3727H32.7036L32.696 2.93225Z" fill="#000083"/>
<path d="M41.8287 5.54797C42.7887 5.53595 43.6988 5.97357 44.2892 6.73075V5.7034H45.9798V13.3877H44.2892V12.3604C43.6988 13.1176 42.7887 13.5552 41.8287 13.5432C39.7209 13.5432 38.1211 11.7425 38.1211 9.54369C38.1211 7.34489 39.7209 5.54797 41.8287 5.54797ZM42.1359 7.0871C40.7673 7.0871 39.8611 8.16376 39.8611 9.54369C39.8611 10.9236 40.7823 12.004 42.1359 12.004C43.4893 12.004 44.4105 10.9274 44.4105 9.54369C44.4105 8.15996 43.5043 7.0871 42.1359 7.0871Z" fill="#000083"/>
<path d="M47.2954 12.0534L51.3252 7.23884H47.3559V5.70349H53.5088V7.05688L49.4942 11.8525H53.5998V13.3878H47.2954V12.0534Z" fill="#000083"/>
<path d="M57.899 5.54797C58.8588 5.53595 59.7692 5.97357 60.3593 6.73075V5.7034H62.0502V13.3877H60.3593V12.3604C59.7692 13.1176 58.8588 13.5552 57.899 13.5432C55.7913 13.5432 54.1951 11.7425 54.1951 9.54369C54.1951 7.34489 55.7913 5.54797 57.899 5.54797ZM58.206 7.0871C56.8374 7.0871 55.9315 8.16376 55.9315 9.54369C55.9315 10.9236 56.8527 12.004 58.206 12.004C59.5594 12.004 60.4806 10.9274 60.4806 9.54369C60.4806 8.15996 59.5746 7.0871 58.206 7.0871Z" fill="#000083"/>
<path d="M66.8795 5.54806C67.8384 5.53546 68.7477 5.97333 69.3361 6.73083V2.31433H71.0267V13.3878H69.3361V12.3605C68.7477 13.118 67.8384 13.5559 66.8795 13.5433C64.7717 13.5433 63.1719 11.7425 63.1719 9.54378C63.1719 7.34498 64.7717 5.54806 66.8795 5.54806ZM67.1864 7.08719C65.8178 7.08719 64.9119 8.16385 64.9119 9.54378C64.9119 10.9237 65.837 12.0041 67.1864 12.0041C68.5362 12.0041 69.461 10.9275 69.461 9.54378C69.461 8.16005 68.5551 7.08719 67.1864 7.08719Z" fill="#000083"/>
<path d="M75.8569 5.54799C76.8159 5.53539 77.7254 5.97326 78.3136 6.73077V5.70343H80.0005V13.3878H78.3061V12.3604C77.7177 13.1179 76.8084 13.5558 75.8494 13.5432C73.7417 13.5432 72.1418 11.7425 72.1418 9.54371C72.1418 7.34492 73.7492 5.54799 75.8569 5.54799ZM76.1642 7.08712C74.7956 7.08712 73.8893 8.16379 73.8893 9.54371C73.8893 10.9236 74.8144 12.0041 76.1642 12.0041C77.5137 12.0041 78.4387 10.9274 78.4387 9.54371C78.4387 8.15999 77.5325 7.08712 76.1642 7.08712Z" fill="#000083"/>
<path d="M12.916 20.9631C12.7326 20.9643 12.5522 20.9174 12.3927 20.827C11.0269 20.0368 0.911645 13.6946 0.529644 13.5009C0.238927 13.3653 0.040412 13.0873 0.00635134 12.7683V3.87235C-0.00117119 3.54029 0.162988 3.2278 0.440682 3.04556L0.513943 3.0037C1.4925 2.39668 4.76829 0.397702 5.28635 0.109891C5.40524 0.0393438 5.54063 0.00143544 5.67882 0C5.8084 0.00146608 5.93575 0.0337535 6.05038 0.0941927C6.05038 0.0941927 10.6344 3.08219 11.3356 3.34907C11.8276 3.57511 12.3641 3.68777 12.9055 3.67874C13.519 3.69156 14.1251 3.54363 14.6637 3.24964C15.3493 2.88857 19.7292 0.109891 19.7763 0.109891C19.8867 0.0431946 20.0136 0.00875252 20.1426 0.0104658C20.281 0.0111429 20.4165 0.0491058 20.5351 0.120357C21.1317 0.450029 25.1924 2.93567 25.3651 3.04556C25.6507 3.21787 25.8238 3.52837 25.8203 3.86189V12.7579C25.7883 13.0776 25.5891 13.3564 25.2971 13.4905C24.915 13.6998 14.8312 20.0421 13.4392 20.8166C13.2808 20.9106 13.1003 20.9612 12.916 20.9631Z" fill="url(#paint0_linear_1801_18807)"/>
<path d="M12.8635 20.9632L12.9159 20.9632C13.0992 20.9644 13.2796 20.9175 13.4391 20.8271C14.8049 20.0369 24.9149 13.6946 25.2969 13.501C25.589 13.367 25.7882 13.0882 25.8202 12.7684V3.87244C25.8219 3.72184 25.7878 3.57299 25.7208 3.43811L12.8635 10.4973V20.9632Z" fill="url(#paint1_linear_1801_18807)"/>
<path d="M12.8188 20.8376L12.7671 20.8376C12.5857 20.8389 12.4072 20.7924 12.2494 20.703C10.8981 19.9212 0.895833 13.6465 0.51789 13.455C0.228908 13.3224 0.0318789 13.0465 0.00019097 12.7301V3.92897C-0.00147682 3.77997 0.0322224 3.63271 0.0985549 3.49927L12.8188 10.4833V20.8376Z" fill="url(#paint2_linear_1801_18807)"/>
</g>
</g>
<defs>
<linearGradient id="paint0_linear_1801_18807" x1="-0.00957673" y1="0.191562" x2="25.5674" y2="-0.00654554" gradientUnits="userSpaceOnUse">
<stop offset="1e-07" stop-color="#FF9200"/>
<stop offset="0.337553" stop-color="#F36D00"/>
<stop offset="0.56729" stop-color="#F83C72"/>
<stop offset="0.78" stop-color="#FC1CBE"/>
<stop offset="0.93" stop-color="#FE08ED"/>
<stop offset="1" stop-color="#FF00FF"/>
</linearGradient>
<linearGradient id="paint1_linear_1801_18807" x1="7.17561" y1="18.7755" x2="33.2525" y2="4.33699" gradientUnits="userSpaceOnUse">
<stop stop-color="#EE0A3F"/>
<stop offset="1" stop-color="#EE0A3F" stop-opacity="0"/>
</linearGradient>
<linearGradient id="paint2_linear_1801_18807" x1="9.71334" y1="15.0127" x2="-2.88758" y2="4.86193" gradientUnits="userSpaceOnUse">
<stop stop-color="#ED6600"/>
<stop offset="1" stop-color="#F98200"/>
</linearGradient>
<clipPath id="clip0_1801_18807">
<rect width="80" height="20.9631" rx="8" fill="white"/>
</clipPath>
<clipPath id="clip1_1801_18807">
<rect width="80" height="20.9631" fill="white"/>
</clipPath>
</defs>
</svg>
