<svg width="56" height="80" viewBox="0 0 56 80" fill="none" xmlns="http://www.w3.org/2000/svg">
<g clip-path="url(#clip0_1801_18804)">
<path d="M37.1247 42.8592C36.8059 45.6013 35.1435 47.8216 32.5688 48.9193C31.1261 49.5275 29.1995 49.8608 27.6541 49.7617C25.2765 49.6626 23.0477 49.0736 20.9674 48.0277C20.2478 47.6316 19.1388 46.8889 18.2928 46.1955C18.0842 45.9973 18.0492 45.8982 18.2005 45.6932C18.267 45.573 18.4156 45.3531 18.7201 44.9077C19.1844 44.2511 19.2341 44.1644 19.2835 44.0802C19.432 43.8671 19.6584 43.8477 19.8949 44.0161C19.9273 44.0491 19.9273 44.0491 19.9452 44.0651C19.9767 44.0996 19.9767 44.0996 20.0615 44.1642C20.1491 44.2313 20.2126 44.2633 20.2282 44.3012C22.4574 46.0463 25.0524 47.037 27.672 47.1361C31.3081 47.0871 33.9212 45.4522 34.4026 42.9257C34.8982 40.176 32.7312 37.7757 28.4935 36.4372C27.1584 36.041 23.7987 34.6991 23.1784 34.3258C20.274 32.6246 18.9108 30.3917 19.109 27.6227C19.4063 23.7958 22.9614 20.9475 27.4546 20.9226C29.449 20.9226 31.4594 21.3384 33.3667 22.1407C34.0546 22.4333 35.2822 23.0984 35.6905 23.4163C35.9356 23.5979 35.9878 23.7958 35.8367 24.0177C35.7864 24.153 35.6385 24.3546 35.3832 24.7868C35.011 25.3545 34.9971 25.3781 34.9296 25.503C34.797 25.7114 34.6076 25.728 34.3553 25.5789C32.3167 24.1924 30.0174 23.4986 27.5051 23.4491C24.3847 23.4986 22.0385 25.3585 21.8874 27.907C21.8563 30.1963 23.566 31.864 27.2686 33.1198C34.7994 35.546 37.6719 38.3804 37.1247 42.8592ZM27.8386 3.35356C32.7314 3.35356 36.7286 7.99595 36.9265 13.8157H18.7625C18.9372 7.99595 22.9461 3.35356 27.8386 3.35356ZM53.1978 14.9183C53.1978 14.311 52.7277 13.8157 52.1278 13.8157H40.3466C40.0495 6.13729 34.5571 0 27.8386 0C21.1162 0 15.638 6.13729 15.345 13.8157H3.55373C2.96237 13.8291 2.49313 14.3135 2.49313 14.9183C2.49313 14.9533 2.49313 14.9686 2.49313 15.0035H2.4797L4.15446 52.04C4.15446 52.1401 4.17406 52.2411 4.17406 52.3615C4.17406 52.385 4.17726 52.3922 4.17726 52.4363V52.493L4.18962 52.5126C4.44172 55.0947 6.3072 57.1533 8.85673 57.2541V57.2737H46.2578C46.2774 57.2737 46.2889 57.2737 46.3083 57.2737C46.3372 57.2737 46.3372 57.2737 46.3586 57.2737H46.4361V57.2541C49.0219 57.1912 51.139 55.0948 51.3408 52.4843L51.3521 52.4363C51.3521 52.4118 51.3521 52.3852 51.3521 52.3615C51.3521 52.2861 51.3717 52.2381 51.3717 52.1597L53.1978 14.9686C53.1978 14.955 53.1978 14.9339 53.1978 14.9183Z" fill="#EE4D2D"/>
<path d="M49.157 69.8407C49.4815 68.8137 50.4015 68.158 51.484 68.158C52.5451 68.158 53.5396 68.8664 53.8644 69.8407L53.9172 69.8958H49.1474L49.157 69.8407ZM54.9478 71.3027C54.9625 71.3027 54.9625 71.3027 54.9859 71.3027C55.0011 71.3027 55.001 71.3027 55.001 71.3027C55.2176 71.2983 55.4062 71.0862 55.4062 70.8693C55.4062 70.8409 55.4053 70.8164 55.4032 70.8143C55.404 70.8143 55.404 70.8143 55.404 70.7894C55.404 68.5418 53.6479 66.7573 51.4836 66.7573C49.3249 66.7573 47.5879 68.5418 47.5879 70.7894C47.5879 70.9622 47.5879 71.1333 47.6193 71.3021L47.6218 71.3027L47.6367 71.3517C47.7431 72.1432 48.0749 72.8707 48.6159 73.467C49.2115 74.1348 50.0228 74.6022 50.9426 74.7656H50.9967C51.0508 74.7656 51.0589 74.7656 51.1049 74.7769C52.2953 74.9269 53.3687 74.7656 54.2437 74.3111C54.4602 74.196 54.6765 74.0611 54.8385 73.9528C54.893 73.8998 54.9467 73.8497 55.0013 73.8361C55.0013 73.7915 55.029 73.7915 55.0511 73.7915C55.2318 73.575 55.263 73.5066 55.1215 73.3035C55.0013 73.087 54.8926 72.9259 54.7848 72.7625C54.7302 72.7094 54.7217 72.6542 54.6765 72.632C54.6765 72.6012 54.6765 72.6012 54.6756 72.6012C54.6705 72.6012 54.6705 72.6012 54.6641 72.6012H54.6616C54.5486 72.4377 54.46 72.4377 54.3517 72.546C54.3462 72.546 54.2972 72.6012 54.2963 72.6012C53.4314 73.3587 52.241 73.6149 51.073 73.3587C50.852 73.3035 50.6662 73.237 50.4556 73.1422C49.7396 72.7625 49.2115 72.1132 49.0487 71.3556V71.3025L54.9478 71.3027ZM39.8513 69.8407C40.1759 68.8137 41.0941 68.158 42.1837 68.158C43.2505 68.158 44.2327 68.8664 44.5649 69.8407L44.6124 69.8958H39.8513V69.8407ZM45.6517 71.3027C45.6679 71.3027 45.6679 71.3027 45.6913 71.3027C45.6948 71.3027 45.6947 71.3027 45.6947 71.3027C45.9113 71.2983 46.1118 71.0862 46.1118 70.8693C46.1118 70.8409 46.1109 70.8164 46.1088 70.8143C46.1092 70.8143 46.1092 70.8143 46.1092 70.7894C46.1092 68.5418 44.3411 66.7573 42.1809 66.7573C40.0308 66.7573 38.2806 68.5418 38.2806 70.7894C38.2806 70.9622 38.2806 71.1333 38.3247 71.3021L38.3277 71.3027L38.3364 71.3517C38.4446 72.1432 38.7692 72.8707 39.3103 73.467C39.9037 74.1348 40.7172 74.6022 41.6352 74.7656H41.6917C41.7434 74.7656 41.7643 74.7656 41.7988 74.7769C42.9892 74.9269 44.0713 74.7656 44.9372 74.3111C45.155 74.196 45.37 74.0611 45.5319 73.9528C45.5865 73.8998 45.6402 73.8497 45.6947 73.8361C45.6947 73.7915 45.7344 73.7915 45.7484 73.7915C45.9373 73.575 45.9645 73.5066 45.8264 73.3035C45.6948 73.087 45.5865 72.9259 45.4782 72.7625C45.4241 72.7094 45.4233 72.6542 45.37 72.632C45.37 72.6012 45.37 72.6012 45.37 72.6012H45.367C45.2538 72.4377 45.1535 72.4377 45.0452 72.546L44.9902 72.6012C44.1244 73.3587 42.9342 73.6149 41.7784 73.3587C41.5572 73.3035 41.3658 73.237 41.15 73.1422C40.444 72.7625 39.9037 72.1132 39.7441 71.3556L39.7431 71.3025L45.6517 71.3027ZM32.7615 73.52C31.3017 73.52 30.1114 72.3844 30.069 70.9226V70.7877C30.1114 69.3548 31.3017 68.1955 32.7615 68.1955C34.224 68.1955 35.4297 69.3916 35.4297 70.8699C35.4299 72.3297 34.2242 73.52 32.7615 73.52ZM32.7615 66.7724C31.7921 66.7724 30.8873 67.0974 30.1623 67.6939L30.069 67.7817V67.0267C30.069 66.8102 30.04 66.7724 29.8286 66.7724H28.9016C28.6921 66.7724 28.6548 66.8104 28.6548 67.0267V78.9093C28.6548 79.0939 28.6921 79.1476 28.9016 79.1476H29.8286C30.0355 79.1476 30.069 79.0939 30.069 78.9093V73.9528L30.1623 74.008C30.8877 74.6022 31.7921 74.9269 32.7615 74.9269C35.0336 74.9269 36.8732 73.1079 36.8732 70.8699C36.8732 68.5972 35.0336 66.7724 32.7615 66.7724ZM23.118 73.4161C21.6289 73.4161 20.4387 72.2457 20.4387 70.7898C20.4387 69.3343 21.6291 68.1636 23.118 68.1636C24.6048 68.1636 25.7967 69.3343 25.7967 70.7898C25.7969 72.2455 24.6048 73.4161 23.118 73.4161ZM23.118 66.7573C20.8453 66.7573 19.0054 68.5418 19.0054 70.7949C19.0054 73.0342 20.8453 74.8191 23.118 74.8191C25.3905 74.8191 27.2315 73.0342 27.2315 70.7949C27.2315 68.5418 25.3905 66.7573 23.118 66.7573ZM13.9464 66.8336C13.1302 66.8336 12.3228 67.0942 11.6524 67.5952L11.5721 67.6636V62.1441C11.5721 61.941 11.5115 61.8873 11.33 61.8873H10.3484C10.1586 61.8873 10.1046 61.941 10.1046 62.1441V74.7113C10.1046 74.9269 10.1588 74.9821 10.3484 74.9821H11.33C11.5115 74.9821 11.5721 74.9176 11.5721 74.7113V70.5982C11.5927 69.309 12.6476 68.2727 13.9466 68.2727C15.2696 68.2727 16.3267 69.3218 16.3267 70.621V74.7113C16.3267 74.9269 16.3643 74.9821 16.5707 74.9821H17.5448C17.7611 74.9821 17.7878 74.9269 17.7878 74.7113V70.5978C17.7876 68.5418 16.0561 66.8336 13.9464 66.8336ZM0.309915 72.6921L0.307571 72.7009C0.162023 72.9052 0.0972405 72.979 0.0682589 73.034C-0.0404223 73.1953 -0.0231611 73.2795 0.147745 73.4116C0.528769 73.7361 1.04149 74.0609 1.3801 74.2241C2.32691 74.71 3.34255 74.9269 4.42829 74.9806C5.12705 74.9885 6.01887 74.8187 6.66862 74.5489C7.85878 74.0078 8.61486 72.9788 8.74357 71.7204C8.95476 69.6623 7.61542 68.3807 4.173 67.3465L4.17065 67.3459C2.55684 66.8102 1.80076 66.1152 1.80055 65.1721C1.85297 64.1053 2.83814 63.294 4.17278 63.2478C5.23488 63.2544 6.18168 63.5593 7.1189 64.16C7.31751 64.2685 7.39891 64.2436 7.53444 64.0592C7.55383 64.052 7.58857 63.997 7.77461 63.727H7.77567C7.93955 63.5088 7.99367 63.4023 7.99431 63.4023C8.1079 63.1857 8.10193 63.0973 7.89139 62.9694C7.69661 62.8066 7.14255 62.5366 6.83036 62.4017C5.93789 62.0493 5.01837 61.8873 4.11546 61.8873C2.04199 61.941 0.419874 63.2942 0.311833 65.06C0.255574 66.3247 0.904465 67.3514 2.25786 68.109C2.63697 68.3255 4.01743 68.8504 4.66654 69.0302C6.50623 69.5713 7.47797 70.5575 7.26721 71.7355C7.09929 72.8162 5.97753 73.52 4.41998 73.5701C3.28543 73.52 2.13618 73.1213 1.14889 72.3846C1.14442 72.384 1.11991 72.3376 1.06791 72.3295C1.00547 72.2764 1.00547 72.2764 0.987574 72.273C0.79621 72.1129 0.665366 72.1159 0.553488 72.3295C0.528343 72.3297 0.381729 72.5675 0.309915 72.6921Z" fill="#EE4D2D"/>
</g>
<defs>
<clipPath id="clip0_1801_18804">
<rect width="55.4062" height="79.1476" rx="8" fill="white"/>
</clipPath>
</defs>
</svg>
