<svg width="80" height="26" viewBox="0 0 80 26" fill="none" xmlns="http://www.w3.org/2000/svg">
<g clip-path="url(#clip0_1801_18798)">
<path fill-rule="evenodd" clip-rule="evenodd" d="M14.5986 18.0513C14.4583 19.2097 13.7564 20.1374 12.6692 20.6019C12.0638 20.8607 11.2508 21.0004 10.6073 20.9565C9.60355 20.9181 8.66049 20.674 7.7912 20.2277C7.48066 20.0682 7.01771 19.7497 6.66223 19.4514C6.5722 19.376 6.5615 19.3277 6.62108 19.2432C6.65325 19.1947 6.71255 19.1072 6.84366 18.9151C7.0338 18.6365 7.05752 18.6016 7.0789 18.569C7.13974 18.4756 7.23858 18.4674 7.33608 18.5442C7.34632 18.5521 7.34632 18.5521 7.35405 18.5582C7.37004 18.5706 7.37004 18.5706 7.40778 18.5999C7.44597 18.6297 7.46862 18.6472 7.47778 18.6541C8.41527 19.3884 9.50713 19.8118 10.6094 19.8542C12.143 19.8332 13.2458 19.1437 13.4434 18.0849C13.6607 16.9196 12.746 15.913 10.9563 15.3519C10.3965 15.1765 8.98173 14.6101 8.72087 14.4571C7.49584 13.7384 6.92309 12.7969 7.0045 11.634C7.12922 10.0221 8.62562 8.81991 10.5164 8.81185C11.362 8.81013 12.2057 8.98585 13.0163 9.32741C13.3033 9.44839 13.8158 9.72725 13.9927 9.85935C14.0946 9.93418 14.1148 10.0214 14.0564 10.1155C14.0237 10.1701 13.9698 10.2566 13.8562 10.4369L13.8549 10.4389C13.7053 10.6764 13.7006 10.6838 13.6663 10.7394C13.607 10.8297 13.5372 10.8381 13.4303 10.7702C12.5629 10.1875 11.6013 9.89436 10.5438 9.87318C9.22722 9.89924 8.2404 10.6828 8.17552 11.7502C8.15827 12.7143 8.88135 13.4181 10.4433 13.9548C13.6137 14.9736 14.827 16.168 14.5986 18.0513ZM10.6832 1.40834C12.7473 1.40834 14.4298 3.36716 14.5085 5.81919H6.85794C6.93666 3.36716 8.61915 1.40834 10.6832 1.40834ZM21.3657 6.28019C21.3657 6.02558 21.1606 5.81919 20.9077 5.81919H15.9488C15.8272 2.5816 13.5162 0 10.6832 0C7.85024 0 5.53928 2.5816 5.41761 5.81919L0.451625 5.81928C0.20263 5.82381 0.00215704 6.02847 0.00215704 6.28019C0.00215704 6.29223 0.00260758 6.30417 0.00350443 6.31593H0L0.7079 21.9207C0.70799 21.9642 0.709605 22.008 0.712842 22.052C0.713562 22.062 0.71437 22.0718 0.715179 22.0817L0.716707 22.1146L0.718413 22.1164C0.825972 23.2022 1.61402 24.0768 2.68558 24.1172L2.688 24.1195H18.4405C18.448 24.1196 18.4554 24.1197 18.4629 24.1197C18.4703 24.1197 18.4778 24.1196 18.4853 24.1195H18.5188C19.609 24.0898 20.4929 23.2023 20.5861 22.1031L20.5874 22.0878C20.5883 22.0762 20.5891 22.0647 20.5898 22.0531C20.5916 22.0254 20.5927 21.9978 20.5932 21.9704L21.3656 6.304C21.366 6.29612 21.3657 6.28815 21.3657 6.28019ZM73.8802 16.4505C74.1837 15.4605 75.1015 14.8006 76.1723 14.8006C77.1945 14.8006 78.1677 15.4947 78.504 16.4486L78.527 16.5142H73.8606L73.8802 16.4505ZM79.5656 17.8848C79.5718 17.8851 79.5718 17.8851 79.5811 17.8852C79.5904 17.8851 79.5904 17.8851 79.5998 17.8848C79.8232 17.8746 80.0001 17.6841 80.0001 17.4523C80.0001 17.4411 79.9997 17.4314 79.9988 17.4158C79.999 17.413 79.999 17.4073 79.999 17.3891C79.999 15.2027 78.285 13.4309 76.171 13.4309C74.0571 13.4309 72.3431 15.2027 72.3431 17.3891C72.3431 17.5521 72.3525 17.7146 72.3716 17.8762L72.3729 17.8848L72.3788 17.9275C72.4841 18.7141 72.8198 19.4362 73.3499 20.0204C73.3496 20.0202 73.3502 20.0207 73.3529 20.0238C73.9407 20.6706 74.7387 21.1115 75.6239 21.2763L75.6354 21.2786V21.2774L75.6929 21.287C75.7225 21.292 75.7536 21.297 75.7954 21.3034C76.9604 21.4435 77.9938 21.2756 78.8689 20.8349C79.0844 20.7264 79.2781 20.6066 79.446 20.48C79.5 20.4393 79.5486 20.3998 79.5906 20.3629C79.6122 20.3439 79.6295 20.3279 79.6387 20.3186C79.8361 20.1152 79.8484 20.0431 79.7293 19.8574C79.5982 19.6487 79.4825 19.4709 79.3833 19.3237C79.3486 19.2722 79.3184 19.2282 79.293 19.1918C79.279 19.1718 79.279 19.1718 79.2701 19.1591C79.2668 19.1542 79.2667 19.1542 79.2643 19.151L79.263 19.1494C79.1551 19.0152 79.0813 19.0028 78.9616 19.1085C78.9488 19.1199 78.9061 19.1528 78.8984 19.161C78.0566 19.9085 76.907 20.149 75.7591 19.9088C75.5453 19.8514 75.3454 19.7785 75.1612 19.6905C74.442 19.3298 73.9325 18.6873 73.7854 17.9435L73.7738 17.8848L79.5656 17.8848ZM64.7714 16.4505C65.0749 15.4605 65.9926 14.8006 67.0635 14.8006C68.0856 14.8006 69.0589 15.4947 69.3951 16.4486L69.4181 16.5142H64.7518L64.7714 16.4505ZM70.4567 17.8848C70.463 17.8851 70.463 17.8851 70.4723 17.8852C70.4815 17.8851 70.4815 17.8851 70.4909 17.8848C70.7143 17.8746 70.8911 17.6841 70.8911 17.4523C70.8911 17.4411 70.8908 17.4314 70.8899 17.4158C70.8901 17.413 70.8901 17.4073 70.8901 17.3891C70.8901 15.2027 69.1761 13.4309 67.0621 13.4309C64.9483 13.4309 63.2342 15.2027 63.2342 17.3891C63.2342 17.5521 63.2438 17.7146 63.2628 17.8762L63.2641 17.8848L63.27 17.9275C63.3753 18.7141 63.711 19.4362 64.2411 20.0204C64.2408 20.0202 64.2414 20.0207 64.244 20.0238C64.8318 20.6706 65.6299 21.1115 66.515 21.2763L66.5266 21.2786V21.2774L66.5841 21.287C66.6136 21.292 66.6448 21.297 66.6866 21.3034C67.8516 21.4435 68.885 21.2756 69.76 20.8349C69.9755 20.7264 70.1692 20.6066 70.3371 20.48C70.3911 20.4393 70.4397 20.3998 70.4817 20.3629C70.5033 20.3439 70.5206 20.3279 70.5297 20.3186C70.7272 20.1152 70.7395 20.0431 70.6204 19.8574C70.4892 19.6487 70.3735 19.4709 70.2744 19.3237C70.2397 19.2722 70.2095 19.2282 70.1842 19.1918C70.1701 19.1718 70.1701 19.1718 70.1612 19.1591C70.1578 19.1542 70.1578 19.1542 70.1554 19.151L70.1545 19.1494C70.0466 19.0152 69.9727 19.0028 69.853 19.1085C69.8402 19.1199 69.7976 19.1528 69.7898 19.161C68.9481 19.9085 67.7985 20.149 66.6506 19.9088C66.4368 19.8514 66.2369 19.7785 66.0527 19.6905C65.3335 19.3298 64.824 18.6873 64.677 17.9435L64.6653 17.8848L70.4567 17.8848ZM57.8196 20.0648C56.3959 20.0648 55.2315 18.936 55.1957 17.5215V17.3883C55.2311 15.976 56.3959 14.8471 57.8196 14.8471C59.269 14.8471 60.4441 16.0151 60.4441 17.4559C60.4441 18.8968 59.269 20.0648 57.8196 20.0648ZM57.8204 13.4631C56.8866 13.4631 55.9944 13.7811 55.2773 14.3644L55.1958 14.4307V13.7006C55.1958 13.5059 55.154 13.4631 54.9569 13.4631H54.0405C53.8409 13.4631 53.8015 13.5028 53.8015 13.7006V25.3385C53.8015 25.5297 53.8461 25.5761 54.0405 25.5761H54.9569C55.1521 25.5761 55.1958 25.5307 55.1958 25.3385V20.4852L55.2773 20.5514C55.9945 21.1349 56.8867 21.4529 57.8204 21.4529C60.04 21.4529 61.8393 19.6643 61.8393 17.4579C61.8393 15.2517 60.04 13.4631 57.8204 13.4631ZM48.3823 19.9756C46.9299 19.9756 45.7525 18.8179 45.7525 17.3893C45.7525 15.9607 46.93 14.8029 48.3823 14.8029C49.8345 14.8029 51.012 15.9607 51.012 17.3893C51.012 18.8178 49.8345 19.9756 48.3823 19.9756ZM48.3832 13.4309C46.1592 13.4309 44.3566 15.204 44.3566 17.3913C44.3566 19.5784 46.1592 21.3517 48.3832 21.3517C50.607 21.3517 52.4094 19.5784 52.4094 17.3913C52.4094 15.204 50.6071 13.4309 48.3832 13.4309ZM39.4073 13.5188C38.5955 13.5188 37.8099 13.7798 37.1581 14.2622L37.0789 14.3209V8.91601C37.0789 8.73687 37.0201 8.67839 36.841 8.67839H35.8817C35.688 8.67839 35.6437 8.72472 35.6437 8.91601V21.2459C35.6437 21.4325 35.6916 21.4837 35.8817 21.4837H36.841C37.019 21.4837 37.0789 21.4223 37.0789 21.2459V17.2186C37.0889 15.9508 38.1286 14.9275 39.4073 14.9275C40.6892 14.9275 41.7302 15.9558 41.7356 17.2277V21.2459C41.7356 21.4499 41.7696 21.4836 41.9736 21.4836H42.9305C43.1334 21.4836 43.1685 21.4489 43.1685 21.2459V17.2159C43.1609 15.1831 41.4658 13.5188 39.4073 13.5188ZM26.0406 19.2471L26.0383 19.2506C25.9016 19.4578 25.8443 19.5449 25.8123 19.595C25.7044 19.7555 25.7178 19.827 25.8825 19.9662C26.2668 20.276 26.7608 20.6014 27.0941 20.7643C28.0213 21.2178 29.0229 21.4574 30.0843 21.4791C30.7699 21.5137 31.631 21.3507 32.2722 21.0647C33.4331 20.5468 34.1725 19.5375 34.3021 18.2944C34.512 16.28 33.2013 15.0208 29.8254 14.006C28.2525 13.4987 27.5127 12.8241 27.5124 11.8825C27.5588 10.8419 28.5236 10.0644 29.8254 10.0159C30.874 10.0185 31.8011 10.297 32.712 10.8832C32.9041 10.9997 32.9927 10.9782 33.1218 10.8107C33.1367 10.7859 33.1779 10.726 33.3506 10.478C33.5119 10.2464 33.5655 10.1683 33.5787 10.1455C33.6875 9.94068 33.672 9.86174 33.4755 9.72246C33.2821 9.5839 32.7372 9.30036 32.4256 9.17598C31.5589 8.83021 30.6629 8.6623 29.7712 8.67964C27.7418 8.72372 26.1591 10.0436 26.0547 11.775C25.9886 13.0257 26.6233 14.0314 27.9495 14.7748C28.3213 14.9711 29.6807 15.485 30.3152 15.6708C32.1193 16.1991 33.0599 17.171 32.8655 18.3177C32.689 19.3595 31.5974 20.0524 30.0656 20.0998C28.9548 20.0767 27.8356 19.6696 26.8638 18.9393C26.8589 18.9358 26.8343 18.9175 26.7889 18.8836C26.725 18.836 26.725 18.836 26.7155 18.8289C26.5173 18.6921 26.4008 18.7035 26.2798 18.8837C26.2653 18.906 26.1148 19.1348 26.0406 19.2471Z" fill="#EE4D2D"/>
</g>
<defs>
<clipPath id="clip0_1801_18798">
<rect width="80.0001" height="25.5761" rx="8" fill="white"/>
</clipPath>
</defs>
</svg>
