<svg width="80" height="18" viewBox="0 0 80 18" fill="none" xmlns="http://www.w3.org/2000/svg">
<g clip-path="url(#clip0_1801_18834)">
<path fill-rule="evenodd" clip-rule="evenodd" d="M42.7776 12.1133C41.9082 12.9967 40.868 13.4407 39.6636 13.4407C38.6888 13.4407 37.8604 13.2418 37.0156 12.7499V10.7239C37.6958 11.1857 38.5502 11.6255 39.3936 11.6255C41.152 11.6255 42.1976 10.4139 42.1976 8.69754C42.1976 6.97914 41.1152 5.73154 39.3556 5.73154C38.57 5.73154 37.9332 6.01434 37.4358 6.58114C36.9026 7.19514 36.627 8.07274 36.627 9.23314V17.2291H36.4945C35.5253 17.2291 34.7403 16.4427 34.7403 15.4727V8.93274C34.7403 6.15674 36.4347 3.91674 39.3463 3.91674C40.7843 3.91674 41.9523 4.40914 42.8383 5.39814C43.6709 6.32234 44.0835 7.49414 44.0835 8.90214C44.0835 10.1561 43.6481 11.2281 42.7781 12.1121L42.7776 12.1133ZM63.1976 12.0456C62.3316 12.9764 61.217 13.4408 59.8656 13.4408C58.4392 13.4408 57.2776 12.9484 56.3916 11.9594C55.5594 11.0238 55.1466 9.8514 55.1466 8.4554C55.1466 5.9834 57.0522 3.9174 59.5606 3.9174C60.5278 3.9174 61.3676 4.1218 62.2166 4.5878V6.6338C61.5364 6.172 60.6822 5.7322 59.8386 5.7322C58.0802 5.7322 57.0326 6.9436 57.0326 8.6622C57.0326 10.3564 58.1404 11.6282 59.8746 11.6282C60.6596 11.6282 61.306 11.3336 61.823 10.7404C62.3368 10.1508 62.6038 9.2846 62.6038 8.1204V1.7564C62.6038 0.786 63.3894 0 64.358 0H64.4905V8.42C64.4905 9.9028 64.0619 11.116 63.1969 12.048L63.1976 12.0456ZM68.5256 3.0196C68.3276 3.2416 68.0438 3.3438 67.6974 3.3438C67.0498 3.3438 66.5862 2.8656 66.5862 2.222C66.5862 1.5634 67.041 1.1188 67.6974 1.1188C68.329 1.1188 68.8086 1.5876 68.8086 2.222C68.8086 2.5358 68.7167 2.8048 68.5256 3.0196ZM78.1116 8.1196C78.1116 7.3748 77.8302 6.7854 77.265 6.3386C76.7558 5.9366 76.1198 5.7322 75.3458 5.7322C73.638 5.7322 72.5418 7.0688 72.5418 8.7162C72.5418 10.3024 73.704 11.6262 75.3278 11.6262C76.4574 11.6262 77.0614 10.9656 77.7058 10.1426V12.5146C77.3776 12.7608 77.0002 13.0292 76.6148 13.1868C76.2082 13.3568 75.7226 13.4394 75.1618 13.4394C72.4458 13.4394 70.6558 11.1874 70.6558 8.5854C70.6558 7.249 71.0704 6.1434 71.905 5.2834C72.7906 4.3704 73.953 3.9176 75.375 3.9176C78.071 3.9176 80.001 5.4678 80.001 8.2696V13.2556H79.869C78.8994 13.2556 78.1138 12.4692 78.1138 11.499L78.1116 8.1196ZM52.2916 7.5846C52.0532 6.8462 51.7544 6.483 51.0668 6.0986C49.4318 5.1838 47.8228 5.96262 47.0748 7.5774L52.2916 7.5846ZM50.852 13.4126C49.6468 13.669 48.464 13.4713 47.31 12.8256C46.1844 12.1964 45.4308 11.2606 45.054 10.0236C44.2902 7.5236 45.8548 4.7356 48.372 4.0616C49.6194 3.7272 50.816 3.87856 51.952 4.5142C53.8392 5.5706 54.528 7.2042 54.406 9.3102L46.804 9.29499C46.9161 10.1536 47.4476 10.8254 48.195 11.2432C48.9526 11.667 49.6492 11.7684 50.295 11.5676C51.0128 11.342 51.5948 10.7556 52.0682 10.2098L53.6174 11.3398C52.9856 12.4718 52.1254 13.1418 50.8514 13.4138L50.852 13.4126ZM66.762 4.1046H68.6486V13.2546H68.5159C67.5477 13.2546 66.7621 12.4682 66.7621 11.498L66.762 4.1046ZM2.762 13.2546C0.9166 13.2546 0 11.9978 0 10.2426V3.5846C0 2.6144 0.7856 1.8282 1.7546 1.8282H1.88708V4.1062H5.07508V5.9206H1.88708V10.4546C1.88708 11.2254 2.23068 11.442 2.96628 11.442H5.07428V13.2562L2.762 13.2546ZM13.72 12.0982C12.788 12.993 11.668 13.4412 10.366 13.4412C9.0766 13.4412 7.962 12.9924 7.03 12.0982C6.0948 11.2002 5.6286 10.0582 5.6286 8.6802C5.6286 5.9922 7.6786 3.9182 10.3646 3.9182C11.6544 3.9182 12.7706 4.3704 13.7086 5.2712C14.6498 6.1748 15.1198 7.3152 15.1198 8.6792C15.1198 10.0566 14.653 11.1992 13.7178 12.0972L13.72 12.0982ZM22.542 6.3062C22.2652 6.771 22.0506 7.1042 21.8996 7.3056C21.7332 7.5246 21.5688 7.6994 21.406 7.8204C22.7172 8.2444 23.2056 9.154 23.2056 10.5084V13.2544H23.0731C22.1043 13.2544 21.3185 12.468 21.3185 11.4978V10.6956C21.3185 9.8182 20.9255 9.223 19.9971 9.223H18.2837V13.255H18.1512C17.1824 13.255 16.3974 12.4686 16.3974 11.4984V1.7564C16.3974 0.786 17.1822 0 18.1512 0H18.2837V7.392H18.8413C19.4541 7.392 19.8567 7.1822 20.0879 6.7852L21.6727 4.1072L23.8227 4.10506L22.542 6.3062ZM32.282 12.0982C31.3496 12.993 30.23 13.4412 28.928 13.4412C27.6388 13.4412 26.524 12.9924 25.592 12.0982C24.6568 11.2002 24.1906 10.0582 24.1906 8.6802C24.1906 5.9922 26.2406 3.9182 28.9266 3.9182C30.2168 3.9182 31.3326 4.3704 32.2706 5.2712C33.2118 6.1748 33.6816 7.3152 33.6816 8.6792C33.6816 10.0566 33.215 11.1992 32.2798 12.0972L32.282 12.0982ZM30.9202 6.5502C30.4 6.0056 29.7398 5.7322 28.9278 5.7322C27.1916 5.7322 26.1518 6.9996 26.1518 8.6802C26.1518 10.3368 27.2158 11.6282 28.9278 11.6282C30.64 11.6282 31.7038 10.3376 31.7038 8.6802C31.7038 7.8006 31.4396 7.0948 30.9202 6.5502ZM12.3602 6.5502C11.8402 6.0056 11.1798 5.7322 10.368 5.7322C8.6318 5.7322 7.592 6.9996 7.592 8.6802C7.592 10.3368 8.656 11.6282 10.368 11.6282C12.08 11.6282 13.144 10.3376 13.144 8.6802C13.144 7.8006 12.8798 7.0948 12.3602 6.5502Z" fill="#42B549"/>
</g>
<defs>
<clipPath id="clip0_1801_18834">
<rect width="80.001" height="17.2291" rx="8" fill="white"/>
</clipPath>
</defs>
</svg>
