<svg width="80" height="12" viewBox="0 0 80 12" fill="none" xmlns="http://www.w3.org/2000/svg">
<g clip-path="url(#clip0_1801_18840)">
<path d="M0.330067 0.127991C3.42445 0.127991 6.51882 0.127991 9.6132 0.127991C9.6132 0.293024 9.6132 0.416799 9.6132 0.581833C6.97267 3.8825 4.33213 7.18317 1.69159 10.4838C4.37339 10.4838 7.01392 10.4838 9.69572 10.4838C9.69572 10.7727 9.69572 11.1027 9.69572 11.3915C6.47757 11.3915 3.21815 11.3915 0 11.3915C0 11.2678 0 11.144 0 11.0202C2.64054 7.67827 5.28107 4.3776 7.92161 1.03568C5.40485 1.03568 2.88809 1.03568 0.371325 1.03568C0.330067 0.746866 0.330067 0.458058 0.330067 0.127991Z" fill="black"/>
<path d="M29.4585 0.127991C29.7885 0.127991 30.1599 0.127991 30.4899 0.127991C30.4899 3.59369 30.4899 7.01814 30.4899 10.4838C32.2641 10.4838 34.0382 10.4838 35.8123 10.4838C35.8123 10.7727 35.8123 11.1027 35.8123 11.3915C33.7081 11.3915 31.6039 11.3915 29.4585 11.3915C29.4172 7.63702 29.4172 3.8825 29.4585 0.127991Z" fill="black"/>
<path d="M51.6555 4.04754C51.2842 2.72727 50.3765 1.57203 49.2213 0.870642C48.0248 0.127991 46.5395 -0.160818 45.1367 0.0867326C43.5689 0.334283 42.0835 1.28323 41.2584 2.64475C40.2682 4.17131 40.1031 6.19297 40.722 7.88457C41.1759 9.08106 42.0423 10.1538 43.1563 10.7727C44.6416 11.6391 46.4569 11.8041 48.066 11.2265C49.3038 10.8139 50.4177 9.90623 51.0779 8.79225C51.903 7.38947 52.1093 5.61536 51.6555 4.04754ZM49.7989 8.79225C49.0975 9.69993 48.0248 10.3601 46.8695 10.5251C45.5905 10.7314 44.229 10.4013 43.2388 9.57616C42.2486 8.79225 41.5885 7.5545 41.4647 6.27549C41.3409 4.95522 41.7535 3.55244 42.6612 2.56224C43.3213 1.81958 44.1877 1.32448 45.1367 1.11819C46.4157 0.829383 47.8597 1.11819 48.9324 1.9021C49.9639 2.64475 50.624 3.84125 50.7891 5.079C50.9128 6.35801 50.5828 7.76079 49.7989 8.79225Z" fill="black"/>
<path d="M63.5379 7.43072C63.1666 6.85311 62.7953 6.23423 62.2589 5.78039C62.6302 5.61536 62.9603 5.40906 63.2904 5.16151C64.5694 4.0888 64.4868 1.77833 63.0841 0.829383C62.3827 0.334283 61.475 0.127991 60.5673 0.127991C59.5771 0.127991 58.6282 0.127991 57.638 0.127991C57.638 3.8825 57.638 7.63702 57.638 11.3915H58.6694C58.6694 9.61742 58.6694 7.84331 58.6694 6.0692C59.5358 6.11046 60.4848 5.90416 61.31 6.31675C62.0113 6.72933 62.3827 7.47198 62.8365 8.13212C63.4966 9.20483 64.1568 10.3188 64.8582 11.3915C65.2708 11.3915 65.6833 11.3915 66.0959 11.3915C65.2295 10.0713 64.4043 8.75099 63.5379 7.43072ZM60.6911 5.16151C60.0309 5.16151 59.3708 5.16151 58.7107 5.16151C58.7107 3.79999 58.7107 2.3972 58.7107 1.03568C59.4533 1.03568 60.196 0.994417 60.8974 1.07693C61.64 1.15945 62.4652 1.407 62.8365 2.10839C63.2078 2.85104 63.1666 3.84124 62.589 4.46012C62.0939 4.95522 61.3512 5.12025 60.6911 5.16151Z" fill="black"/>
<path d="M19.3914 0.0454742C19.1851 0.0454742 19.0201 0.0454742 18.8138 0.0454742C17.1222 3.84125 15.4306 7.63702 13.739 11.3915C14.1104 11.3915 14.4817 11.3915 14.8118 11.3915C15.3894 10.1125 15.9257 8.83351 16.5034 7.5545C18.1949 7.5545 19.9278 7.5545 21.6194 7.5545C22.197 8.83351 22.7334 10.1125 23.311 11.3915C23.6823 11.3915 24.0536 11.3915 24.3837 11.3915C22.7746 7.63702 21.083 3.84125 19.3914 0.0454742ZM16.9572 6.64682C17.6586 5.03774 18.4012 3.42866 19.1026 1.77833C19.804 3.3874 20.5467 4.99648 21.2481 6.64682H16.9572Z" fill="black"/>
<path d="M75.0077 0.0454742C74.8014 0.0454742 74.6364 0.0454742 74.4301 0.0454742C72.7385 3.84125 71.0469 7.63702 69.3553 11.3915C69.7267 11.3915 70.098 11.3915 70.4281 11.3915C71.0057 10.1125 71.542 8.83351 72.1197 7.5545H77.2357C77.8133 8.83351 78.3497 10.1125 78.9273 11.3915C79.2986 11.3915 79.6699 11.3915 80 11.3915C78.3909 7.63702 76.6993 3.84125 75.0077 0.0454742ZM72.5735 6.64682C73.2749 5.03774 74.0175 3.42866 74.7189 1.77833C75.4203 3.3874 76.163 4.99648 76.8644 6.64682H72.5735Z" fill="black"/>
</g>
<defs>
<clipPath id="clip0_1801_18840">
<rect width="80" height="11.5659" rx="5.78295" fill="white"/>
</clipPath>
</defs>
</svg>
