<svg width="80" height="21" viewBox="0 0 80 21" fill="none" xmlns="http://www.w3.org/2000/svg">
<g clip-path="url(#clip0_1801_11047)">
<g clip-path="url(#clip1_1801_11047)">
<path d="M25.6093 7.46679C24.3634 6.01237 21.9228 4.92677 20.6255 4.28854C17.42 2.71225 14.0669 1.43421 10.6257 0.47689C9.70846 0.220321 8.77198 -0.0137979 7.82109 0.000634136C5.30511 0.040723 2.99757 2.34022 1.59447 4.23083C0.605072 5.56659 -0.214346 7.36258 0.0502405 9.07518C0.614693 12.7201 4.09279 16.4323 6.87017 18.6163C7.66873 19.2449 8.52665 19.8238 9.4904 20.1477C11.0314 20.6657 12.5147 20.2215 13.9322 19.5592C16.3616 18.4239 18.7028 17.0801 20.8484 15.4686C22.9571 13.8842 28.2231 10.5168 25.6093 7.4652" fill="#FACA06"/>
<path d="M23.1783 8.80433C23.1014 8.69851 22.9955 8.61512 22.8785 8.56059C22.755 8.50126 22.6187 8.49003 22.492 8.43873C22.3894 8.39702 22.3156 8.19337 22.2146 8.14366C22.1248 8.10036 22.0318 8.06348 21.9356 8.03301C21.8458 8.00577 21.756 7.99936 21.6646 7.98009C21.4369 7.94962 20.8275 7.82776 20.603 7.76844C20.5373 7.75079 20.5822 7.91115 20.595 7.9368C20.6319 8.01377 20.6928 8.05227 20.7762 8.06989C20.8692 8.09075 20.9735 8.09716 21.0408 8.16934C20.9927 8.2046 20.9398 8.2479 20.9013 8.2944C20.8339 8.37617 20.7858 8.474 20.7457 8.57182C20.4491 9.28379 19.859 9.98935 19.1823 10.3694C18.1319 10.9579 17.7695 10.5009 17.1425 9.52113C16.7224 8.86207 16.1932 8.28158 15.5278 7.84379C14.8831 7.42045 14.1599 7.09012 13.4223 6.86723C12.5997 6.61707 11.7321 6.59142 10.9079 6.34929C10.1783 6.13602 8.12572 5.74794 7.44743 3.85254C6.95673 5.09051 7.27104 6.47115 7.88359 7.60646C8.58115 8.89896 9.65073 9.7889 10.8085 10.6613C11.0009 10.8056 11.1901 10.9531 11.3761 11.1038C11.9486 11.5641 12.7055 12.1285 12.7825 12.9159C12.8931 14.0464 11.6199 14.3254 10.7492 14.4104C9.23218 14.5579 7.76494 13.9918 6.47086 13.2478C6.357 13.182 6.24476 13.1163 6.13252 13.0474C5.45582 12.6352 4.7695 12.2103 4.11365 11.7533C4.011 11.6811 3.89073 11.8174 3.97573 11.9104C5.37723 13.4611 6.98241 14.8722 8.9724 15.6227C10.4749 16.1887 12.133 16.3362 13.7125 16.0412C15.268 15.7509 16.7465 15.0261 17.9636 14.0191C18.1448 13.8684 18.3212 13.7112 18.4911 13.5493C18.9898 13.0698 19.4404 12.5406 19.8333 11.9713C20.5597 10.9226 21.3246 9.74881 22.4615 9.10579C22.6796 8.98234 22.9282 8.86687 23.1687 9.00637C23.1927 9.02081 23.2232 9.00316 23.2216 8.97431C23.2184 8.9214 23.2104 8.84922 23.1783 8.80592" fill="#58585A"/>
<path d="M7.88383 7.60301C8.58139 8.8955 9.65096 9.78545 10.8087 10.6578C11.0011 10.8021 11.1904 10.9513 11.378 11.1004C11.9504 11.5606 12.7057 12.125 12.7843 12.9124C12.826 13.3357 12.6608 13.65 12.3946 13.8826C13.1259 13.2732 14.5659 11.5975 10.86 9.35731C6.57854 6.76918 7.44925 3.85071 7.44925 3.85071C6.95858 5.08864 7.27286 6.46931 7.88542 7.60463" fill="url(#paint0_linear_1801_11047)"/>
<path d="M33.0884 14.1552C32.3875 13.7736 31.8377 13.246 31.4398 12.5742C31.0422 11.9022 30.8433 11.1422 30.8433 10.2971C30.8433 9.45203 31.0437 8.69353 31.4464 8.02006C31.8488 7.34815 32.4004 6.8206 33.1012 6.43893C33.8021 6.0573 34.5877 5.86647 35.4584 5.86647C36.164 5.86647 36.807 5.98995 37.3907 6.23528C37.9728 6.48223 38.4651 6.83822 38.8675 7.30647L37.8332 8.27822C37.2094 7.60634 36.443 7.26959 35.5321 7.26959C34.9421 7.26959 34.413 7.39947 33.9447 7.65763C33.4764 7.91582 33.1123 8.27501 32.8496 8.73362C32.5865 9.19384 32.4549 9.71339 32.4549 10.2971C32.4549 10.8808 32.5865 11.4003 32.8496 11.8606C33.1123 12.3208 33.4764 12.6784 33.9447 12.9366C34.413 13.1947 34.9421 13.3246 35.5321 13.3246C36.443 13.3246 37.2094 12.9847 37.8332 12.3031L38.8675 13.2877C38.4651 13.756 37.9713 14.112 37.3844 14.3589C36.7974 14.6059 36.1511 14.7277 35.4455 14.7277C34.5766 14.7277 33.7907 14.5369 33.0884 14.1552Z" fill="#58585A"/>
<path d="M39.9884 6.68562C39.7994 6.50923 39.7065 6.28954 39.7065 6.02656C39.7065 5.76358 39.8009 5.54551 39.9884 5.3675C40.1778 5.19112 40.4103 5.10291 40.6893 5.10291C40.9682 5.10291 41.2025 5.18791 41.3901 5.35468C41.5794 5.52304 41.6723 5.73473 41.6723 5.98809C41.6723 6.2591 41.5794 6.48679 41.3949 6.6712C41.2106 6.85559 40.9748 6.94863 40.6878 6.94863C40.4007 6.94863 40.1745 6.86042 39.9869 6.68403L39.9884 6.68562ZM39.9147 8.03261H41.4527V14.604H39.9147V8.03261Z" fill="#58585A"/>
<path d="M47.2846 14.2483C47.1036 14.3959 46.8855 14.5065 46.6257 14.5803C46.3675 14.654 46.0948 14.6909 45.8078 14.6909C45.0863 14.6909 44.5281 14.5017 44.1337 14.1249C43.7409 13.748 43.5435 13.198 43.5435 12.4764V9.3142H42.4612V8.08427H43.5435V6.58335H45.0815V8.08427H46.8406V9.3142H45.0815V12.4395C45.0815 12.7586 45.1585 13.004 45.3155 13.1724C45.471 13.3407 45.6972 13.4241 45.9923 13.4241C46.3369 13.4241 46.6239 13.3343 46.8534 13.1531L47.2846 14.2483Z" fill="#58585A"/>
<path d="M47.971 6.68562C47.782 6.50923 47.6888 6.28954 47.6888 6.02656C47.6888 5.76358 47.7835 5.54551 47.971 5.3675C48.1604 5.19112 48.3929 5.10291 48.6719 5.10291C48.9508 5.10291 49.1848 5.18791 49.3727 5.35468C49.5618 5.52304 49.6549 5.73473 49.6549 5.98809C49.6549 6.2591 49.5618 6.48679 49.3775 6.6712C49.1929 6.85559 48.9571 6.94863 48.6701 6.94863C48.383 6.94863 48.1571 6.86042 47.9696 6.68403L47.971 6.68562ZM47.8973 8.03261H49.435V14.604H47.8973V8.03261Z" fill="#58585A"/>
<path d="M55.2016 14.2483C55.0203 14.3959 54.8022 14.5065 54.5424 14.5803C54.2842 14.654 54.0118 14.6909 53.7248 14.6909C53.003 14.6909 52.4451 14.5017 52.0505 14.1249C51.6561 13.748 51.4605 13.198 51.4605 12.4764V9.3142H50.3779V8.08427H51.4605V6.58335H52.9982V8.08427H54.7573V9.3142H52.9982V12.4395C52.9982 12.7586 53.0752 13.004 53.2325 13.1724C53.388 13.3407 53.6139 13.4241 53.909 13.4241C54.2539 13.4241 54.5409 13.3343 54.7701 13.1531L55.2016 14.2483Z" fill="#58585A"/>
<path d="M59.56 7.95917V9.4232C59.4284 9.39914 59.3098 9.38632 59.2025 9.38632C58.6042 9.38632 58.1361 9.56112 57.7994 9.90908C57.4626 10.2571 57.2942 10.7606 57.2942 11.4164V14.6043H55.7562V8.03294H57.2205V8.99345C57.663 8.30392 58.4424 7.95917 59.5585 7.95917H59.56Z" fill="#58585A"/>
<path d="M65.2285 8.65512C65.7415 9.11855 65.9982 9.8177 65.9982 10.7526V14.6043H64.5454V13.8041C64.356 14.0912 64.0884 14.3109 63.7388 14.4632C63.3891 14.6155 62.969 14.6909 62.4767 14.6909C61.9845 14.6909 61.553 14.6075 61.1842 14.4392C60.8156 14.2708 60.5301 14.0367 60.3296 13.7368C60.1277 13.4369 60.0282 13.0986 60.0282 12.7217C60.0282 12.1316 60.2478 11.657 60.6871 11.301C61.1266 10.945 61.8176 10.7654 62.7605 10.7654H64.4588V10.6676C64.4588 10.209 64.3209 9.85617 64.0468 9.60922C63.7723 9.36389 63.3636 9.24041 62.8216 9.24041C62.4528 9.24041 62.0887 9.29815 61.7328 9.41201C61.375 9.52745 61.0736 9.68619 60.8282 9.89147L60.2254 8.77219C60.5702 8.5092 60.9837 8.30876 61.4682 8.16925C61.9524 8.02971 62.4657 7.95918 63.0059 7.95918C63.9746 7.95918 64.7138 8.19169 65.227 8.65512H65.2285ZM63.8254 13.307C64.1253 13.1307 64.3353 12.8789 64.4588 12.5502V11.7869H62.8714C61.9845 11.7869 61.5419 12.0787 61.5419 12.6608C61.5419 12.9398 61.6525 13.1611 61.8739 13.3247C62.095 13.4882 62.403 13.5716 62.7973 13.5716C63.192 13.5716 63.5254 13.4834 63.8254 13.307Z" fill="#58585A"/>
<path d="M72.94 8.68529C73.4404 9.16954 73.6903 9.88795 73.6903 10.8388V14.604H72.1526V11.0345C72.1526 10.4604 72.0178 10.0275 71.7469 9.73559C71.4761 9.44538 71.091 9.29943 70.5907 9.29943C70.0247 9.29943 69.5773 9.46941 69.2502 9.81098C68.9215 10.1509 68.7579 10.6416 68.7579 11.2815V14.604H67.2202V8.03264H68.6842V8.88091C68.9391 8.57784 69.2582 8.34854 69.6448 8.19138C70.0295 8.03585 70.4642 7.95726 70.9484 7.95726C71.7775 7.95726 72.4412 8.19941 72.9415 8.68367L72.94 8.68529Z" fill="#58585A"/>
<path d="M75.3757 14.4824C74.8675 14.3429 74.4603 14.1665 74.1571 13.9533L74.7474 12.7843C75.0422 12.9815 75.3967 13.1387 75.812 13.2573C76.2257 13.376 76.6347 13.4353 77.0371 13.4353C77.9561 13.4353 78.4145 13.1932 78.4145 12.7089C78.4145 12.4796 78.2977 12.3192 78.0633 12.2294C77.8293 12.1396 77.4539 12.053 76.9376 11.9713C76.3956 11.8895 75.9546 11.7949 75.6148 11.6891C75.2747 11.5832 74.9781 11.3956 74.7279 11.1294C74.4777 10.8632 74.3528 10.4912 74.3528 10.0166C74.3528 9.39276 74.6125 8.89404 75.1336 8.52202C75.6549 8.14839 76.3588 7.96238 77.2439 7.96238C77.6945 7.96238 78.1466 8.01371 78.5973 8.11633C79.0479 8.21895 79.4167 8.35687 79.7053 8.52843L79.1153 9.69742C78.5574 9.37032 77.9303 9.20514 77.2328 9.20514C76.7821 9.20514 76.4391 9.27249 76.2048 9.40879C75.9708 9.5435 75.8536 9.7231 75.8536 9.94437C75.8536 10.1913 75.9788 10.3645 76.229 10.4671C76.4792 10.5698 76.8672 10.666 77.3916 10.7558C77.9159 10.8376 78.3471 10.9322 78.6839 11.038C79.0206 11.1455 79.3095 11.325 79.5516 11.58C79.7937 11.835 79.9138 12.1958 79.9138 12.6624C79.9138 13.2782 79.6478 13.7705 79.1138 14.1393C78.5796 14.5081 77.8548 14.6925 76.9361 14.6925C76.4022 14.6925 75.8827 14.6236 75.3727 14.4841L75.3757 14.4824Z" fill="#58585A"/>
</g>
</g>
<defs>
<linearGradient id="paint0_linear_1801_11047" x1="7.20554" y1="8.86503" x2="13.2894" y2="8.86503" gradientUnits="userSpaceOnUse">
<stop stop-color="#FACA06"/>
<stop offset="0.12" stop-color="#F3C509"/>
<stop offset="0.29" stop-color="#E0B813"/>
<stop offset="0.49" stop-color="#C2A222"/>
<stop offset="0.72" stop-color="#988538"/>
<stop offset="0.96" stop-color="#625F54"/>
<stop offset="1" stop-color="#58585A"/>
</linearGradient>
<clipPath id="clip0_1801_11047">
<rect width="80" height="20.3745" fill="white"/>
</clipPath>
<clipPath id="clip1_1801_11047">
<rect width="80" height="20.3745" fill="white"/>
</clipPath>
</defs>
</svg>
