<svg width="80" height="14" viewBox="0 0 80 14" fill="none" xmlns="http://www.w3.org/2000/svg">
<g clip-path="url(#clip0_1801_10967)">
<path d="M71.2888 7.74299C72.9772 7.3007 74.2234 5.76466 74.2234 3.93575C74.2234 1.76317 72.4632 0 70.2876 0H64.2809V13.1849H67.7385V8.09861L71.1035 13.1849H75.4307L71.2888 7.74V7.74299ZM68.901 5.90212H67.7355V2.60889H68.901C69.8095 2.60889 70.5476 3.34703 70.5476 4.25551C70.5476 5.16399 69.8095 5.90212 68.901 5.90212Z" fill="#005DAA"/>
<path d="M24.9294 0.00298849H19.7833V13.1879H24.9294C28.5693 13.1879 31.5219 10.2353 31.5219 6.59544C31.5219 2.95554 28.5693 0.00298849 24.9294 0.00298849ZM24.2361 10.3519H23.3276V2.839H24.2361C26.31 2.839 27.9925 4.52148 27.9925 6.59544C27.9925 8.6694 26.31 10.3519 24.2361 10.3519Z" fill="#005DAA"/>
<path d="M40.0837 0.00298849H36.2376L31.1722 13.1879H34.8121L35.6668 10.8659H40.6545L41.5091 13.1879H45.149L40.0837 0.00298849ZM36.638 8.22114L38.1591 4.08218L39.6802 8.22114H36.638Z" fill="#005DAA"/>
<path d="M60.7097 0.00298849H57.2641L54.5745 7.01382L51.8849 0.00298849H48.4393L46.195 13.1879H49.6406L50.7643 5.61823L53.8633 13.1879H55.2828L58.3848 5.61823L59.5054 13.1879H62.9511L60.7097 0.00298849Z" fill="#005DAA"/>
<path d="M80 0.00298849H76.5275V13.1879H80V0.00298849Z" fill="#005DAA"/>
<path d="M0 0.0149424L6.17408 6.59544L0 13.1759H3.96862L10.1457 6.59544L3.96862 0.0149424H0Z" fill="#005DAA"/>
<path d="M10.1457 6.59544L3.96862 0.0149424L10.5342 0.0149426L16.7112 6.59544L10.1457 6.59544Z" fill="#FEEE00"/>
<path d="M10.5342 13.1759L16.7112 6.59544L10.1457 6.59544L3.96862 13.1759L10.5342 13.1759Z" fill="#FDC42F"/>
</g>
<defs>
<clipPath id="clip0_1801_10967">
<rect width="80" height="13.1879" fill="white"/>
</clipPath>
</defs>
</svg>
