<svg width="80" height="32" viewBox="0 0 80 32" fill="none" xmlns="http://www.w3.org/2000/svg">
<g clip-path="url(#clip0_1801_11059)">
<path d="M0 25.2608V24.6112L0.018747 24.6104L0.037494 24.611C0.0403635 24.8254 0.0434242 25.0399 0.0462936 25.2543C0.0307987 25.2564 0.015495 25.2587 0 25.2608Z" fill="#EE352A"/>
<path d="M0.037494 24.611L0.018747 24.6104L0 24.6112C0 24.4838 1.86818e-07 24.3564 1.86818e-07 24.2292C0.0187472 24.2313 0.0373029 24.2334 0.0560499 24.2355C0.0499285 24.3608 0.0436155 24.4857 0.037494 24.611Z" fill="#EE352A"/>
<path d="M79.9671 3.01865C79.978 3.01865 79.9891 3.01865 80 3.01923V3.36318L79.9839 3.36375C79.9839 3.36375 79.9679 3.36375 79.9677 3.36375C79.9677 3.24878 79.9673 3.13381 79.9671 3.01865Z" fill="#EE352A"/>
<path d="M0.0560499 24.2355C0.0373029 24.2334 0.0187472 24.2313 1.86818e-07 24.2292C1.86818e-07 24.1783 1.86818e-07 24.127 1.86818e-07 24.0761C0.0202776 24.0786 0.0407462 24.0813 0.0610236 24.0838C0.059302 24.1343 0.0575803 24.185 0.0560499 24.2355Z" fill="#EE352A"/>
<path d="M42.7151 0.032329C42.7151 0.0216165 42.7151 0.0109039 42.7151 0H42.8681C42.8681 0.0107126 42.8681 0.0214252 42.8681 0.0321377C42.817 0.0321377 42.7661 0.032329 42.7151 0.032329Z" fill="#EE352A"/>
<path d="M0 25.2608C0.015495 25.2587 0.0307987 25.2564 0.0462936 25.2543C0.0415112 25.2949 0.036729 25.3352 0.0319466 25.3758C0.021234 25.3754 0.0107128 25.3754 1.86818e-07 25.3754C1.86818e-07 25.3374 0 25.2991 0 25.2608Z" fill="#EE352A"/>
<path d="M0.0319466 25.3758C0.036729 25.3352 0.0415112 25.2949 0.0462936 25.2543C0.0434242 25.0399 0.0403635 24.8254 0.037494 24.611C0.0436155 24.4857 0.0499285 24.3608 0.0560499 24.2355C0.0575803 24.185 0.059302 24.1343 0.0610236 24.0838C0.0755621 23.7796 0.0902902 23.4755 0.10502 23.1713C0.161261 22.0168 0.214059 20.8622 0.275274 19.7081C0.313915 18.9789 0.365756 18.2504 0.410711 17.5216C0.41492 17.4521 0.412624 17.3823 0.413198 17.3127C0.413772 17.2997 0.414154 17.2867 0.414728 17.2736C0.42678 17.0827 0.439023 16.892 0.451075 16.7011C0.451648 16.6881 0.452031 16.6753 0.452605 16.6623C0.492586 16.1483 0.528741 15.6339 0.573887 15.1204C0.62611 14.5243 0.686751 13.929 0.742992 13.3333C0.775321 12.9911 0.800764 12.6481 0.839214 12.3066C0.862552 12.0997 0.792729 11.9242 0.683691 11.7603C0.59646 11.6293 0.477282 11.5164 0.406311 11.3781C0.306072 11.1828 0.223241 10.9817 0.218267 10.7472C0.213676 10.5293 0.208511 10.3162 0.260161 10.1037C0.347966 9.74232 0.54041 9.43855 0.790051 9.17111C0.923767 9.02802 1.09077 8.91516 1.21855 8.76786C1.33811 8.63013 1.43721 8.47078 1.52463 8.30971C1.63558 8.10483 1.723 7.88465 1.87623 7.70732C1.99598 7.56863 2.14615 7.45347 2.34548 7.47604C2.44725 7.48752 2.55533 7.51889 2.64199 7.57188C2.82429 7.6836 3.03759 7.7473 3.18297 7.92138C3.20727 7.95045 3.30119 7.94165 3.35361 7.92348C3.49536 7.87394 3.63041 7.80507 3.7714 7.75285C4.07307 7.64075 4.3715 7.51583 4.68082 7.42994C5.13362 7.30426 5.59139 7.19005 6.05318 7.10378C6.78336 6.96738 7.52157 6.8924 8.26609 6.95055C8.55858 6.97331 8.85088 7.00851 9.1405 7.05481C9.52214 7.11583 9.90129 7.19311 10.2814 7.26351C10.3089 7.2857 10.3365 7.3077 10.3638 7.32989C10.4398 7.34539 10.5157 7.36069 10.5919 7.37618C10.6049 7.3869 10.6179 7.39742 10.6309 7.40813C11.2645 7.59904 11.8439 7.8944 12.361 8.30837C13.019 8.8352 13.5153 9.48254 13.8114 10.2755C14.1153 11.0894 14.2143 11.9294 14.1067 12.7914C14.0828 12.9836 14.0151 13.1715 14.0023 13.3637C13.9776 13.7331 13.8491 14.0769 13.7613 14.4297C13.6715 14.7899 13.5483 15.1424 13.4255 15.4934C13.2417 16.0187 13.0139 16.5257 12.7665 17.025C12.1806 18.2077 11.4204 19.2689 10.5528 20.2586C9.21626 21.7836 7.73199 23.1436 6.05471 24.2881C5.29909 24.8038 4.51937 25.2811 3.6989 25.6867C3.16117 25.9526 2.61368 26.1991 2.06542 26.443C1.87393 26.5282 1.71191 26.6399 1.57934 26.7998C1.44964 26.9561 1.31631 27.1095 1.1736 27.2775C1.10932 27.2333 1.05194 27.1971 0.998372 27.1562C0.657292 26.8955 0.401911 26.5592 0.250788 26.1657C0.170252 25.9558 0.0615958 25.7387 0.0772821 25.4963C0.0797689 25.4573 0.0480155 25.416 0.0319466 25.3758ZM1.80392 23.9441C1.96155 23.8628 2.09335 23.8001 2.22037 23.7287C2.51554 23.5627 2.81186 23.3982 3.10148 23.2226C3.38326 23.0517 3.65567 22.8658 3.93457 22.6904C4.27853 22.4742 4.62611 22.2638 4.96949 22.0467C5.04849 21.9967 5.11353 21.9256 5.19024 21.8718C5.50033 21.6547 5.81769 21.4479 6.12205 21.223C6.35026 21.0542 6.56126 20.8626 6.78202 20.6837C7.00315 20.5044 7.23233 20.3348 7.44773 20.1492C7.62238 19.9989 7.77963 19.8284 7.94892 19.6715C8.32061 19.327 8.67259 18.9628 9.02362 18.5976C9.09785 18.5203 9.18374 18.4538 9.25566 18.3746C9.38919 18.2275 9.5187 18.0767 9.64553 17.9239C9.83835 17.6912 10.0327 17.4592 10.2165 17.2195C10.3292 17.0726 10.4254 16.9127 10.5259 16.7568C10.7047 16.4796 10.8999 16.2106 11.0538 15.92C11.2371 15.5742 11.3968 15.2143 11.5441 14.8515C11.7448 14.3571 11.8527 13.8362 11.9376 13.3104C12.0254 12.7671 12.0285 12.2238 11.9281 11.6836C11.7773 10.8723 11.3773 10.2278 10.6378 9.81999C10.2307 9.5956 9.78862 9.48962 9.33237 9.43989C8.41052 9.33926 7.49651 9.39684 6.59015 9.59024C5.71133 9.77771 4.87977 10.0949 4.07499 10.489C3.91851 10.5657 3.8043 10.6766 3.72549 10.8272C3.61396 11.0399 3.5537 11.2675 3.5231 11.5059C3.49689 11.7092 3.4527 11.9101 3.41865 12.1125C3.38766 12.2967 3.36011 12.4817 3.32951 12.6659C3.28436 12.9375 3.23883 13.2092 3.19177 13.4804C3.14911 13.7263 3.10052 13.9713 3.06073 14.2175C3.01693 14.488 2.98192 14.7598 2.93984 15.0307C2.90636 15.2469 2.86829 15.4623 2.83156 15.678C2.79713 15.8802 2.76155 16.0823 2.7275 16.2845C2.69727 16.4639 2.6659 16.6431 2.63988 16.8231C2.59837 17.1103 2.56432 17.3986 2.5209 17.6853C2.48895 17.8956 2.44094 18.1035 2.41071 18.3139C2.36136 18.6582 2.32367 19.0043 2.27566 19.349C2.22152 19.7381 2.15514 20.1257 2.10598 20.5154C2.07939 20.7271 2.08283 20.9427 2.06389 21.1558C2.00842 21.7769 1.94835 22.3977 1.89019 23.0185C1.86246 23.315 1.8351 23.6115 1.80392 23.9441Z" fill="#EE352A"/>
<path d="M42.7151 0.032329C42.7661 0.032329 42.817 0.0321377 42.8681 0.0321377C43.4349 0.115543 43.9438 0.34242 44.4113 0.665519C44.515 0.737255 44.6156 0.82066 44.6967 0.9165C44.8897 1.1451 44.8698 1.39015 44.6253 1.55887C44.4576 1.67461 44.2644 1.76241 44.071 1.82975C43.8001 1.92406 43.5168 1.98202 43.2419 2.06562C42.8019 2.19933 42.37 2.36232 41.9246 2.47346C41.5036 2.57848 41.1019 2.73324 40.6957 2.87767C40.6097 2.90827 40.5284 2.97102 40.4622 3.03644C40.2703 3.22602 40.1377 3.44218 40.1079 3.72568C40.0631 4.15112 39.9625 4.57178 39.9353 4.99761C39.9212 5.21798 39.8468 5.42324 39.8416 5.64362C39.8362 5.87011 39.7942 6.09584 39.7643 6.32138C39.665 7.07528 39.5658 7.82917 39.4625 8.5825C39.4326 8.79981 39.3815 9.01444 39.3528 9.23195C39.3205 9.47738 39.3087 9.72549 39.2767 9.97092C39.245 10.2154 39.1956 10.4576 39.1615 10.7019C39.1409 10.8513 39.139 11.0032 39.1208 11.1529C39.1065 11.2714 39.0772 11.3879 39.0598 11.5061C39.0389 11.6486 39.0248 11.7921 39.0058 11.9348C38.9559 12.3118 38.9016 12.6881 38.8553 13.0655C38.8122 13.4152 38.7813 13.7662 38.7374 14.1157C38.6657 14.6885 38.5877 15.2606 38.5127 15.833C38.4486 16.3218 38.3851 16.8107 38.3212 17.2995C38.2315 17.9857 38.1452 18.6722 38.0507 19.3578C38.005 19.6897 37.9443 20.0197 37.8904 20.3505C37.846 20.3692 37.8081 20.3906 37.8473 20.4467C37.7921 20.5857 37.7368 20.7248 37.6752 20.8796C37.482 20.7878 37.3207 20.659 37.173 20.5178C36.9452 20.3003 36.7591 20.0471 36.6449 19.7521C36.566 19.5484 36.4782 19.3381 36.4561 19.1242C36.4119 18.7017 36.3879 18.2743 36.396 17.8498C36.4128 16.9469 36.4429 16.0438 36.4909 15.142C36.5477 14.0752 36.6271 13.0097 36.7009 11.9438C36.752 11.2078 36.8067 10.4721 36.8662 9.73697C36.9102 9.19197 36.9643 8.64792 37.0139 8.10349C37.0852 8.03864 37.0525 7.95964 37.0439 7.88369C37.0418 7.80316 37.0399 7.72262 37.0378 7.64209L37.0405 7.56844C37.0563 7.46648 37.0722 7.36432 37.0881 7.26236C37.1336 7.22697 37.147 7.18929 37.0963 7.14701C37.1317 6.80325 37.1673 6.45969 37.2027 6.11593C37.2482 6.08073 37.2618 6.04304 37.2113 6.00057C37.2465 5.68455 37.3043 5.36911 37.3096 5.05251C37.3136 4.82104 37.3766 4.60067 37.3825 4.37207C37.3852 4.2659 37.3988 4.15973 37.4099 4.0241C37.1591 4.1274 36.9347 4.21789 36.7118 4.31239C36.5997 4.35983 36.4926 4.41875 36.3803 4.46562C36.1039 4.58097 35.8269 4.69498 35.5482 4.80459C35.1405 4.96471 34.7262 5.10914 34.3242 5.28226C34.0786 5.38824 33.8309 5.46131 33.5659 5.48025C33.4602 5.4879 33.3544 5.49268 33.2484 5.49823C33.2363 5.49881 33.2228 5.49881 33.2121 5.49421C33.0056 5.40584 32.7912 5.3318 32.5953 5.2241C32.3403 5.08388 32.1699 4.85031 32.0111 4.61272C31.8623 4.39005 31.8561 4.13353 31.8349 3.877C31.8152 3.63941 31.9415 3.45347 32.0176 3.24993C32.0396 3.1912 32.1071 3.14912 32.1553 3.10072C32.3472 2.90808 32.5521 2.74146 32.8247 2.6659C33.4276 2.4989 34.0274 2.3208 34.6278 2.14481C34.8671 2.07461 35.1038 1.99541 35.3431 1.9254C35.433 1.89919 35.5292 1.89421 35.6193 1.86839C36.4138 1.64209 37.2109 1.42592 38.0109 1.22047C39.1981 0.915735 40.3832 0.602774 41.5704 0.298422C41.9501 0.201053 42.3338 0.120134 42.7158 0.0315643L42.7151 0.032329Z" fill="#EE352A"/>
<path d="M26.6206 28.6638C26.634 28.5488 26.6475 28.4337 26.6609 28.3187C26.7604 28.2917 26.7413 28.2319 26.7036 28.1666C26.7021 28.1536 26.7003 28.1406 26.6988 28.1276C26.7635 28.1159 26.7726 28.0758 26.7531 28.0212C26.7864 27.7892 26.8195 27.557 26.8528 27.3249C26.8991 27.3165 26.9419 27.3064 26.889 27.2501C26.8897 27.2113 26.8903 27.1726 26.8911 27.1338C26.9373 27.1254 26.9802 27.1153 26.9272 27.059C26.928 27.0202 26.9286 26.9815 26.9293 26.9427C26.9758 26.9343 27.0185 26.924 26.9653 26.8677C27.0121 26.6498 27.0609 26.4323 27.1049 26.2141C27.1174 26.1527 27.1154 26.0886 27.1202 26.0256C27.1673 26.0168 27.2101 26.0063 27.1554 25.9503C27.182 25.797 27.2086 25.6438 27.235 25.4908C27.2815 25.4822 27.3249 25.472 27.2708 25.4156C27.2874 25.3261 27.3041 25.2367 27.3209 25.1472C27.3693 25.1355 27.3993 25.1177 27.3469 25.0714C27.3758 24.931 27.4045 24.7906 27.4334 24.6502C27.4946 24.6363 27.4977 24.5947 27.4831 24.545C27.5943 24.0888 27.6951 23.6296 27.8188 23.1769C28.018 22.448 28.2322 21.7232 28.4402 20.9968C28.59 20.4736 28.7472 19.9526 28.8867 19.4267C28.9641 19.1344 29.0123 18.8344 29.0739 18.5377C29.0778 18.528 29.0818 18.5182 29.0856 18.5085C29.0653 18.5173 29.0449 18.5261 29.0246 18.5351C28.6818 18.7531 28.3374 18.9685 27.9967 19.1899C27.5593 19.4741 27.117 19.7492 26.6452 19.9746C26.2225 20.1764 25.7777 20.2538 25.3134 20.2121C25.2046 20.2024 25.0929 20.1735 24.9923 20.1305C24.421 19.8864 24.1023 19.4351 23.938 18.8499C23.8546 18.5527 23.851 18.2493 23.8395 17.9485C23.8232 17.5233 23.8449 17.0965 23.8514 16.6705C23.8533 16.5435 23.855 16.4161 23.8642 16.2894C23.8737 16.1588 23.8923 16.0289 23.907 15.8988C23.9841 15.882 23.9998 15.8452 23.9443 15.785C23.9449 15.7337 23.9455 15.6824 23.9461 15.6312C24.0109 15.6184 24.0214 15.5797 23.9971 15.5244C24.0342 15.1677 24.1425 14.8262 24.2211 14.4782C24.2349 14.4172 24.2452 14.3552 24.2571 14.2936C24.3011 14.285 24.3407 14.2741 24.2942 14.22C24.2959 14.193 24.2975 14.1659 24.2992 14.1389C24.3072 14.1276 24.3151 14.1161 24.3231 14.1048C24.3539 13.9889 24.3847 13.873 24.4153 13.7571C24.423 13.7465 24.4308 13.736 24.4384 13.7255C24.4538 13.6725 24.4691 13.6197 24.4844 13.5667C24.4943 13.5547 24.5041 13.5428 24.514 13.5308C24.5741 13.429 24.6232 13.318 24.6978 13.2281C24.7508 13.164 24.8348 13.1223 24.9104 13.0806C25.183 12.9303 25.4604 12.9305 25.7421 13.0596C25.8963 13.1304 25.9839 13.2582 26.0448 13.4053C26.1318 13.6155 26.2041 13.8309 26.1959 14.0637C26.1854 14.1148 26.1747 14.166 26.1641 14.2171C26.1488 14.5781 26.066 14.927 25.9839 15.2769C25.8944 15.6578 25.8188 16.0419 25.7289 16.4226C25.6603 16.7139 25.6189 17.0072 25.6591 17.3044C25.6811 17.4665 25.7196 17.6289 25.7735 17.7833C25.8902 18.1171 26.0603 18.232 26.4084 18.1923C26.7432 18.1538 27.0596 18.0528 27.3108 17.8076C27.7136 17.4141 28.1232 17.0271 28.5192 16.6271C28.786 16.3575 29.0428 16.0769 29.2895 15.7888C29.6096 15.415 29.938 15.0464 30.202 14.629C30.4174 14.2887 30.6209 13.9411 30.8304 13.5969C30.8532 13.5594 30.8788 13.5233 30.906 13.4889C30.9877 13.3857 31.089 13.2934 31.1495 13.1791C31.2733 12.9448 31.4764 12.8222 31.7077 12.7279C31.7194 12.7273 31.731 12.7265 31.7427 12.7254C31.9051 12.7063 32.0671 12.6772 32.2301 12.6709C32.4113 12.6638 32.5234 12.7774 32.5976 12.9303C32.6441 13.0259 32.6846 13.1244 32.7246 13.223C32.8555 13.5457 32.8392 13.8619 32.6946 14.1789C32.549 14.4976 32.4082 14.8191 32.2783 15.1445C32.1182 15.5461 31.9723 15.9531 31.819 16.3572C31.555 17.0527 31.319 17.758 31.0912 18.466C30.6795 19.746 30.3191 21.0405 29.9797 22.3411C29.8156 22.9699 29.6455 23.5973 29.4879 24.2278C29.3792 24.6626 29.2912 25.1024 29.1872 25.5384C29.0481 26.1205 28.8987 26.7 28.7606 27.2823C28.5903 28.0008 28.4318 28.7221 28.2592 29.4401C28.167 29.8234 28.066 30.2053 27.9501 30.5819C27.882 30.8034 27.7823 31.016 27.6865 31.2277C27.6187 31.3777 27.4994 31.482 27.3433 31.5405C27.331 31.5493 27.3186 31.5583 27.3064 31.5671C27.0889 31.6696 26.8714 31.7724 26.6475 31.878C26.5846 31.7687 26.524 31.6633 26.4633 31.5579C26.4539 31.5482 26.4444 31.5384 26.435 31.5286C26.4098 31.4716 26.3881 31.4127 26.3587 31.3582C26.2605 31.1772 26.197 30.9907 26.2416 30.7805C26.2504 30.7388 26.242 30.6936 26.2416 30.65C26.3269 30.6351 26.3116 30.5737 26.3036 30.5157C26.321 30.3439 26.3384 30.1722 26.356 30.0004C26.4209 29.9889 26.4295 29.9487 26.4103 29.8942C26.4176 29.7894 26.4249 29.6847 26.4321 29.5799C26.4786 29.5711 26.5224 29.5612 26.4681 29.5045C26.4714 29.4661 26.4746 29.4276 26.4779 29.3892C26.5781 29.3421 26.5511 29.2714 26.5134 29.1985C26.5117 29.1855 26.5102 29.1725 26.5085 29.1594C26.5549 29.1506 26.5988 29.1405 26.5442 29.0839C26.5578 28.9689 26.5714 28.8539 26.585 28.739C26.6311 28.7304 26.6743 28.7208 26.6206 28.6638Z" fill="#EE352A"/>
<path d="M54.8763 6.65175L55.293 6.38087C55.3066 6.37322 55.3199 6.36576 55.3335 6.35811C55.3471 6.35351 55.3609 6.34892 55.3745 6.34433C55.3865 6.33534 55.3986 6.32635 55.4104 6.31736C55.7012 6.15552 56.0128 6.04094 56.3447 6.04208C56.9119 6.04419 57.2394 6.25404 57.5066 6.81549C57.5382 6.88187 57.548 6.95858 57.5679 7.03051C57.5759 7.04295 57.5837 7.05557 57.5918 7.06801C57.6298 7.25261 57.6681 7.43702 57.7056 7.62181C57.815 8.16011 57.8129 8.70741 57.8294 9.25241C57.8391 9.5757 57.8319 9.90148 57.8024 10.2234C57.7676 10.6039 57.7102 10.9856 57.7538 11.3645C57.7806 11.5977 57.8697 11.8294 57.9635 12.0476C58.1075 12.3828 58.3533 12.646 58.6581 12.8417C58.8968 12.9949 59.148 13.1332 59.4062 13.2507C59.6784 13.3745 59.9638 13.4701 60.2464 13.5698C60.4471 13.6406 60.6537 13.6947 60.856 13.7613C61.0634 13.8296 61.2402 13.9397 61.3043 14.1643C61.3701 14.3946 61.429 14.6271 61.482 14.8606C61.5141 15.0024 61.5296 15.1478 61.556 15.3127C61.4871 15.3341 61.4121 15.3586 61.3364 15.3806C61.13 15.4408 60.9255 15.511 60.7156 15.556C60.5747 15.5862 60.4258 15.5887 60.2808 15.5868C60.2171 15.5858 60.1534 15.5447 60.0909 15.5191C59.7924 15.3968 59.4904 15.2821 59.1975 15.1478C59.0223 15.0674 58.8582 14.9607 58.6944 14.8574C58.3503 14.6405 58.0117 14.4147 57.6671 14.1986C57.4146 14.0402 57.1654 13.872 56.8979 13.7425C56.4057 13.5044 55.9388 13.5713 55.5449 13.9556C55.346 14.1498 55.1703 14.3713 55.0064 14.5967C54.8015 14.8779 54.6227 15.178 54.4266 15.4659C54.0446 16.0272 53.5971 16.524 53.0137 16.8867C52.7038 17.0793 52.3696 17.1288 52.0151 17.0766C51.9734 17.0705 51.9336 17.0514 51.8929 17.0384C51.8808 17.0275 51.8686 17.0165 51.8565 17.0056C51.7727 16.9819 51.7088 16.932 51.6438 16.8731C51.4818 16.7267 51.346 16.5662 51.2823 16.3533C51.2761 16.2992 51.3054 16.2332 51.2314 16.2018C51.223 16.1879 51.2145 16.1739 51.2061 16.1601C51.1979 16.1494 51.1895 16.1387 51.1813 16.1278C51.1767 16.1008 51.1723 16.0736 51.1677 16.0467C51.1594 16.0356 51.1512 16.0245 51.1432 16.0132C51.1388 15.9858 51.1342 15.9585 51.1298 15.9311C51.1221 15.9204 51.1145 15.9097 51.1068 15.899C51.0539 15.7119 51.0152 15.5191 50.9437 15.3393C50.8813 15.1826 50.8656 15.041 50.8916 14.8702C50.9613 14.4143 51.0596 13.9652 51.1696 13.5189C51.2765 13.085 51.3852 12.6491 51.5332 12.2282C52.021 10.8409 52.6801 9.53821 53.5187 8.32769C53.6583 8.12606 53.7823 7.91296 53.9296 7.71746C54.0939 7.49938 54.2925 7.30617 54.4461 7.08159C54.5563 6.92052 54.711 6.81836 54.8436 6.68752C54.8545 6.67566 54.8654 6.66361 54.8763 6.65175ZM53.0977 13.965C53.5183 13.7706 53.8699 13.5571 54.2003 13.3077C54.8172 12.8419 55.3194 12.269 55.7352 11.6231C56.0654 11.1103 56.3692 10.5804 56.6841 10.0578C56.7128 10.0101 56.7378 9.96021 56.7696 9.90244C56.5544 9.701 56.3376 9.51717 56.0769 9.39187C55.6876 9.20459 55.3718 9.2505 55.0716 9.56384C54.9278 9.71401 54.8023 9.88637 54.6917 10.0631C54.2561 10.7589 53.8816 11.4881 53.5183 12.2236C53.3381 12.5886 53.1736 12.9532 53.1671 13.3725C53.1642 13.5594 53.1244 13.7456 53.0977 13.965Z" fill="#EE352A"/>
<path d="M19.9214 14.4392C19.922 15.6042 19.9223 16.7692 19.9231 17.9344C19.9231 18.124 19.9137 18.3126 19.9644 18.5006C20.0568 18.844 20.2255 19.139 20.5094 19.353C20.686 19.4862 20.8748 19.6136 21.0764 19.7008C21.5587 19.9091 22.0517 20.093 22.5414 20.2839C22.6041 20.3084 22.6732 20.3185 22.7401 20.33C23.1835 20.4067 23.4908 20.689 23.5855 21.1267C23.6281 21.3238 23.6541 21.5254 23.675 21.7261C23.6978 21.9445 23.5007 22.1894 23.2802 22.2035C22.9444 22.2252 22.6074 22.2361 22.2709 22.234C22.1636 22.2332 22.052 22.1875 21.9501 22.1446C21.2205 21.8384 20.5345 21.455 19.8921 20.9913C19.6503 20.8168 19.3923 20.6623 19.1306 20.519C18.9708 20.4316 18.7935 20.3705 18.6175 20.32C18.3665 20.2481 18.1198 20.2869 17.9063 20.4371C17.7567 20.5425 17.6057 20.6588 17.4921 20.7998C17.2331 21.1218 16.9869 21.455 16.7535 21.7959C16.2977 22.4618 15.7377 23.0183 15.0621 23.4588C14.8549 23.5939 14.6368 23.6995 14.3908 23.7528C14.0763 23.8209 13.521 23.7018 13.3936 23.2937C13.3398 23.1216 13.2813 22.9423 13.2771 22.765C13.258 21.9686 13.3022 21.1747 13.4099 20.3841C13.4816 19.8577 13.5981 19.3421 13.7697 18.8407C13.8649 18.562 13.9885 18.2925 14.1081 18.0228C14.255 17.6914 14.3987 17.3578 14.5664 17.0372C14.7449 16.6959 14.9517 16.3692 15.1428 16.0344C15.2647 15.8211 15.3752 15.6015 15.5011 15.3907C15.5837 15.2522 15.6876 15.1267 15.7758 14.9913C15.8372 14.8972 15.8835 14.7929 15.9449 14.6988C16.1083 14.4482 16.277 14.2012 16.4419 13.9516C16.5375 13.8068 16.6198 13.6522 16.726 13.5158C16.8105 13.4072 16.9224 13.3198 17.0221 13.223C17.0332 13.2098 17.0441 13.1966 17.0552 13.1834C17.1713 13.1005 17.2784 12.9982 17.4056 12.9393C17.5872 12.8551 17.7794 12.7855 17.9744 12.7411C18.2487 12.6787 18.5291 12.6839 18.805 12.7505C19.1954 12.8448 19.429 13.1244 19.6075 13.4561C19.7691 13.7563 19.8611 14.0826 19.921 14.4178C19.9212 14.4251 19.921 14.4319 19.9214 14.4392ZM15.2784 20.5995C15.3532 20.5647 15.411 20.5408 15.4661 20.5117C15.9872 20.2355 16.4582 19.8913 16.8784 19.477C17.7115 18.6561 18.2625 17.6419 18.8306 16.6393C18.8727 16.5651 18.8601 16.5052 18.7899 16.4589C18.5727 16.3156 18.3638 16.1565 18.1343 16.0369C18.0069 15.9705 17.8435 15.9422 17.6987 15.9482C17.5078 15.9562 17.328 16.0419 17.2023 16.194C17.0449 16.3847 16.8861 16.5777 16.7566 16.7876C16.338 17.4648 16.0036 18.1875 15.6371 18.8928C15.3655 19.4154 15.2 19.9461 15.2712 20.5372C15.2727 20.5496 15.274 20.562 15.2784 20.5995Z" fill="#EE352A"/>
<path d="M79.9671 3.01865C79.9673 3.13381 79.9677 3.24878 79.9677 3.36375C79.9087 3.62506 79.7571 3.82382 79.5371 3.96691C79.2253 4.16987 78.8802 4.29498 78.5234 4.39885C78.1565 4.50579 77.797 4.63855 77.4343 4.7604C77.1172 4.86695 76.7964 4.96413 76.484 5.08312C76.0515 5.24801 75.7351 5.54204 75.5602 5.97781C75.4286 6.30569 75.3794 6.64658 75.41 6.99703C75.429 7.21511 75.508 7.41731 75.6624 7.57303C75.8179 7.72989 75.9786 7.89115 76.1645 8.00612C76.515 8.22286 76.8836 8.41052 77.2474 8.60488C77.5315 8.75658 77.7907 8.93945 77.9889 9.19522C78.4165 9.74691 78.5152 10.3512 78.25 11.0022C78.1905 11.1484 78.1115 11.2891 78.0241 11.4208C77.2272 12.6183 76.2255 13.5962 74.933 14.2512C74.6148 14.4124 74.2789 14.5391 73.9474 14.6726C73.7515 14.7516 73.5491 14.8153 73.3483 14.8817C73.2293 14.9211 73.1097 14.9075 72.9984 14.8528C72.7053 14.7088 72.414 14.5613 72.1117 14.4101C72.3952 13.9736 72.6881 13.5881 73.1837 13.4003C73.5154 13.2746 73.8403 13.1235 74.1521 12.9542C74.391 12.8245 74.6223 12.6684 74.8254 12.4884C75.1038 12.2416 75.3607 11.9688 75.6099 11.692C75.7274 11.5617 75.819 11.4028 75.8986 11.245C76.0536 10.9379 76.0069 10.641 75.7984 10.3744C75.7089 10.26 75.6056 10.1515 75.4912 10.0627C75.2955 9.91086 75.0864 9.77618 74.8826 9.63462C74.5808 9.42496 74.2537 9.24266 73.9845 8.99704C73.7842 8.81416 73.658 8.55017 73.5011 8.32042C73.4692 8.27374 73.4483 8.21961 73.4223 8.16891C73.4148 8.15954 73.4076 8.14998 73.4001 8.1406C73.3951 8.11344 73.3902 8.08627 73.3852 8.0593C73.3771 8.04821 73.3689 8.03711 73.3609 8.02602C73.3586 7.99923 73.3565 7.97264 73.3542 7.94586C73.4028 7.89383 73.3649 7.88101 73.3203 7.87126L73.3161 7.79302C73.3661 7.7341 73.3196 7.72721 73.2759 7.71879C73.2807 7.67824 73.2855 7.63769 73.2901 7.59713C73.2844 7.57456 73.2788 7.55218 73.2733 7.5296C73.2723 7.32453 73.2714 7.11946 73.2704 6.91459C73.2715 6.90426 73.2719 6.89373 73.2712 6.88321C73.2727 6.81817 73.2742 6.75332 73.2758 6.68828C73.3224 6.6791 73.3666 6.66896 73.3111 6.61234C73.3146 6.57408 73.318 6.53601 73.3215 6.49775C73.3911 6.48092 73.4001 6.44247 73.3609 6.38699C73.3611 6.36021 73.3613 6.33343 73.3615 6.30665C73.4194 6.29345 73.4253 6.25423 73.4118 6.20545C73.4328 6.09833 73.4538 5.99139 73.4749 5.88427L73.5 5.85021C73.5044 5.82343 73.5086 5.79665 73.513 5.76968C73.5214 5.75858 73.53 5.74768 73.5386 5.73659C73.5464 5.723 73.5543 5.70923 73.5623 5.69565C73.6392 5.66485 73.608 5.59732 73.6143 5.54261C73.6205 5.52999 73.6268 5.51717 73.6329 5.50454C73.6786 5.49115 73.7088 5.47298 73.6576 5.42822C73.6715 5.38938 73.6855 5.35055 73.6995 5.31153C73.7094 5.30024 73.7196 5.28876 73.7295 5.27747C73.8194 5.11105 73.9093 4.94443 73.9994 4.778C74.0237 4.75218 74.0482 4.72635 74.0725 4.70033C74.1029 4.62095 74.158 4.55839 74.2068 4.4901C74.3751 4.25461 74.5949 4.06695 74.7812 3.84964C74.8926 3.71994 75.0418 3.64113 75.1514 3.51506C75.1619 3.50435 75.1725 3.49364 75.1828 3.48312C75.4097 3.32836 75.6365 3.17379 75.8632 3.01903C75.878 3.00985 75.8925 3.00067 75.9072 2.99149C75.9572 2.96184 76.0071 2.93238 76.057 2.90273C76.0708 2.89488 76.0844 2.88704 76.0981 2.8792C76.1115 2.8748 76.1247 2.87059 76.1381 2.86619C76.1504 2.85681 76.1628 2.84763 76.175 2.83826C76.3876 2.73324 76.5972 2.62229 76.8134 2.5253C76.9331 2.47154 77.0351 2.37398 77.1765 2.3715C77.23 2.37398 77.2796 2.37016 77.2849 2.29995C77.4858 2.23395 77.6872 2.16987 77.8873 2.10177C78.1923 1.9979 78.4979 1.89593 78.7996 1.78288C78.8763 1.75399 78.927 1.75399 78.9861 1.8087C79.1633 1.97245 79.3412 2.13563 79.5231 2.29402C79.7479 2.48953 79.8992 2.72826 79.9671 3.01865Z" fill="#EE352A"/>
<path d="M69.7276 11.4661C69.7232 11.4384 69.7188 11.4108 69.7144 11.3831C69.7066 11.3725 69.6989 11.3622 69.6911 11.3517C69.6352 11.1585 69.5792 10.9651 69.5233 10.7719C69.5156 10.7614 69.5078 10.7506 69.5001 10.7401C69.4317 10.5194 69.3687 10.2967 69.2935 10.0782C69.1214 9.57724 68.949 9.07623 68.7642 8.57982C68.7057 8.42276 68.616 8.27508 68.5253 8.13295C68.4025 7.9407 68.215 7.83089 67.992 7.80048C67.8064 7.77504 67.639 7.855 67.4824 7.94414C66.7348 8.36939 66.1209 8.94347 65.6149 9.63577C65.3018 10.0643 65.0494 10.5272 64.8591 11.0217C64.6854 11.4732 64.5215 11.9285 64.3589 12.3843C64.1718 12.909 63.9944 13.4374 63.8047 13.9612C63.762 14.079 63.6955 14.1919 63.6216 14.294C63.4246 14.5672 63.1403 14.6732 62.834 14.5519C62.689 14.4945 62.5584 14.3696 62.4547 14.2472C62.291 14.0538 62.1551 13.8364 62.0086 13.6308C62.0159 13.6163 62.0184 13.5996 62.0266 13.5958C62.1923 13.5218 62.234 13.3875 62.2449 13.2161C62.2793 12.6764 62.3269 12.1375 62.3717 11.5987C62.4429 10.7426 62.5148 9.88675 62.588 9.03109C62.6288 8.55572 62.6724 8.08054 62.7149 7.60536C62.7227 7.55715 62.7306 7.50913 62.7384 7.46093C62.7434 7.38192 62.7482 7.30273 62.7531 7.22372C62.7531 7.21071 62.7531 7.1979 62.7533 7.18489C62.7554 7.10856 62.7577 7.03223 62.7598 6.95591C62.8025 6.94768 62.8492 6.94194 62.8015 6.88245C62.8034 6.85548 62.8055 6.82831 62.8077 6.80134C62.8157 6.7912 62.8235 6.78106 62.8316 6.77092C62.9008 6.63931 62.9578 6.49909 63.0416 6.37743C63.2731 6.04113 63.6191 5.95352 64.0033 5.96652C64.1127 5.97035 64.1729 6.0417 64.2043 6.14022C64.294 6.422 64.3845 6.7034 64.4717 6.98575C64.5274 7.16576 64.5779 7.34711 64.6307 7.52788C64.6539 7.59694 64.6868 7.56882 64.72 7.53668C64.7675 7.52176 64.8149 7.50703 64.8624 7.49211C64.9153 7.49364 64.9662 7.49211 64.9718 7.42095C65.27 7.35533 65.5361 7.22391 65.772 7.03051C65.8384 7.03281 65.854 6.99015 65.8561 6.93563C65.9988 6.7407 66.1806 6.58307 66.3556 6.41951C66.3661 6.40842 66.3767 6.39732 66.3874 6.38603C66.7149 6.16356 67.047 5.95103 67.4437 5.86935C67.794 5.79723 68.1486 5.77025 68.4955 5.8571C69.0759 6.00249 69.5702 6.29287 69.9001 6.80976C70.0346 7.02056 70.1498 7.24438 70.2644 7.46686C70.304 7.54376 70.3154 7.63501 70.3397 7.71975C70.348 7.73104 70.3562 7.74232 70.3644 7.7538C70.6808 8.69593 70.9144 9.66026 71.126 10.6301C71.2027 10.9817 71.2721 11.3351 71.345 11.6874C71.3284 11.7029 71.3117 11.7186 71.2951 11.7341C71.315 11.7462 71.3349 11.7582 71.3548 11.7703C71.3867 11.9036 71.4116 12.0392 71.4525 12.1699C71.5045 12.3357 71.4919 12.4985 71.4186 12.6473C71.3209 12.8455 71.2011 13.0326 71.0887 13.2281C70.8868 13.1464 70.7061 13.0713 70.5238 13.0001C70.3091 12.9161 70.19 12.7627 70.1209 12.5406C70.0191 12.2135 69.8852 11.8961 69.7659 11.5744C69.7574 11.5516 69.7561 11.5264 69.7515 11.5022C69.7435 11.49 69.7356 11.4783 69.7276 11.4661Z" fill="#EE352A"/>
<path d="M45.4841 17.4646C45.4795 17.4917 45.4747 17.5189 45.4701 17.5461C45.4621 17.5571 45.454 17.5681 45.446 17.5791C45.4412 17.6065 45.4366 17.6337 45.4318 17.661C45.4238 17.6719 45.4158 17.683 45.4077 17.6939C45.403 17.7211 45.3984 17.7483 45.3936 17.7754C45.3854 17.7865 45.3773 17.7976 45.3691 17.8087C45.3645 17.8357 45.3597 17.8626 45.3551 17.8894C45.3467 17.9007 45.3381 17.912 45.3297 17.9235C45.2161 18.4113 44.9205 18.7684 44.4958 19.0087C44.2764 19.1329 44.0342 19.1051 43.8234 18.9439L43.7976 18.9178C43.7653 18.8492 43.7331 18.7805 43.7008 18.7118C43.7117 18.6592 43.7006 18.62 43.6394 18.611C43.6084 17.8296 43.591 17.0479 43.6365 16.2665C43.6926 15.3018 43.7525 14.3373 43.8114 13.3727C43.8269 13.1189 43.8449 12.8652 43.8617 12.6116C43.8628 12.5861 43.864 12.5607 43.8651 12.5352C43.9078 11.8873 43.951 11.2394 43.9929 10.5915C44.0107 10.3183 44.0344 10.0451 44.0394 9.77178C44.0427 9.5935 44.0941 9.45404 44.2374 9.34118C44.5523 9.09326 44.8614 8.83807 45.1904 8.57159C45.3978 8.84534 45.648 9.06609 45.8079 9.35916C45.9485 9.61683 45.9793 9.90359 46.0013 10.1894C46.0249 10.493 46.0365 10.7975 46.0553 11.1357C46.1276 11.0887 46.1836 11.0546 46.2372 11.0167C47.1529 10.3711 48.0685 9.72511 48.984 9.07929C48.9944 9.07202 49.0047 9.06437 49.0152 9.0571C49.6578 8.61368 49.9187 8.57752 50.6988 8.78259C50.8566 8.8241 50.9863 8.87499 51.0661 9.01942C51.1721 9.21148 51.2036 9.41502 51.1449 9.62793C51.0793 9.86609 50.9243 10.0413 50.7321 10.1856C50.6357 10.2579 50.5295 10.3174 50.4296 10.3857C49.9675 10.7019 49.4986 11.0089 49.0458 11.3377C47.9097 12.1626 47.0956 13.2415 46.5383 14.5259C46.2252 15.2474 45.9811 15.9923 45.7351 16.7373C45.6842 16.8912 45.6346 17.0458 45.5843 17.2C45.5759 17.2119 45.5677 17.2235 45.5593 17.2354C45.555 17.2622 45.5506 17.289 45.5464 17.3155C45.5382 17.327 45.53 17.3385 45.5218 17.35C45.5174 17.3769 45.5128 17.4039 45.5084 17.4311C45.5003 17.4422 45.4923 17.4535 45.4841 17.4646Z" fill="#EE352A"/>
<path d="M37.0139 8.10349C37.0852 8.03864 37.0525 7.95964 37.0439 7.88369C36.9632 7.94739 36.9511 8.02028 37.0139 8.10349Z" fill="#EE352A"/>
<path d="M26.4779 29.3892C26.5781 29.3421 26.5511 29.2714 26.5134 29.1985C26.5016 29.262 26.4897 29.3257 26.4779 29.3892Z" fill="#EE352A"/>
<path d="M26.1641 14.2171L26.1959 14.0637C26.2475 14.1278 26.2651 14.1848 26.1641 14.2171Z" fill="#EE352A"/>
<path d="M23.907 15.8988C23.9841 15.882 23.9998 15.8452 23.9443 15.785C23.9319 15.8231 23.9195 15.8609 23.907 15.8988Z" fill="#EE352A"/>
<path d="M73.3215 6.49775C73.3911 6.48092 73.4001 6.44247 73.3609 6.38699C73.2861 6.4021 73.3081 6.45146 73.3215 6.49775Z" fill="#EE352A"/>
<path d="M26.2416 30.65C26.3269 30.6351 26.3116 30.5737 26.3036 30.5157C26.2412 30.5412 26.2276 30.5892 26.2416 30.65Z" fill="#EE352A"/>
<path d="M37.0881 7.26236C37.1336 7.22697 37.147 7.18929 37.0963 7.14701C37.028 7.18068 37.0341 7.2199 37.0881 7.26236Z" fill="#EE352A"/>
<path d="M62.7149 7.60536C62.7227 7.55715 62.7306 7.50913 62.7384 7.46093C62.6934 7.50301 62.6345 7.54299 62.7149 7.60536Z" fill="#EE352A"/>
<path d="M73.5623 5.69565C73.6392 5.66485 73.608 5.59732 73.6143 5.54261C73.5661 5.58317 73.5327 5.62869 73.5623 5.69565Z" fill="#EE352A"/>
<path d="M26.6609 28.3187C26.7604 28.2917 26.7413 28.2319 26.7036 28.1666C26.6892 28.2173 26.6751 28.268 26.6609 28.3187Z" fill="#EE352A"/>
<path d="M51.2823 16.3533C51.2761 16.2992 51.3054 16.2332 51.2314 16.2018C51.2006 16.2684 51.2329 16.3137 51.2823 16.3533Z" fill="#EE352A"/>
<path d="M37.2027 6.11593C37.2482 6.08073 37.2618 6.04304 37.2113 6.00057C37.1424 6.03405 37.1489 6.07327 37.2027 6.11593Z" fill="#EE352A"/>
<path d="M77.1765 2.3715C77.23 2.37398 77.2796 2.37016 77.2849 2.29995C77.2488 2.32367 77.2126 2.34758 77.1765 2.3715Z" fill="#EE352A"/>
<path d="M65.772 7.03051C65.8384 7.03281 65.854 6.99015 65.8561 6.93563C65.828 6.96719 65.8001 6.99895 65.772 7.03051Z" fill="#EE352A"/>
<path d="M64.8624 7.49211C64.9153 7.49364 64.9662 7.49211 64.9718 7.42095C64.9354 7.44467 64.8989 7.46839 64.8624 7.49211Z" fill="#EE352A"/>
<path d="M26.8528 27.3249C26.8991 27.3165 26.9419 27.3064 26.889 27.2501C26.8769 27.275 26.8648 27.3 26.8528 27.3249Z" fill="#EE352A"/>
<path d="M62.7598 6.95591C62.8025 6.94768 62.8492 6.94194 62.8015 6.88245C62.7876 6.90693 62.7738 6.93142 62.7598 6.95591Z" fill="#EE352A"/>
<path d="M23.9461 15.6312C24.0109 15.6184 24.0214 15.5797 23.9971 15.5244L23.9461 15.6312Z" fill="#EE352A"/>
<path d="M24.2571 14.2936C24.3011 14.285 24.3407 14.2741 24.2942 14.22C24.2818 14.2445 24.2695 14.2692 24.2571 14.2936Z" fill="#EE352A"/>
<path d="M27.1202 26.0256C27.1673 26.0168 27.2101 26.0063 27.1554 25.9503C27.1438 25.9753 27.1319 26.0006 27.1202 26.0256Z" fill="#EE352A"/>
<path d="M27.235 25.4908C27.2815 25.4822 27.3249 25.472 27.2708 25.4156C27.2589 25.4407 27.2469 25.4657 27.235 25.4908Z" fill="#EE352A"/>
<path d="M26.8911 27.1338C26.9373 27.1254 26.9802 27.1153 26.9272 27.059C26.9152 27.0839 26.9031 27.1089 26.8911 27.1338Z" fill="#EE352A"/>
<path d="M73.3542 7.94586C73.4028 7.89383 73.3649 7.88101 73.3203 7.87126C73.3039 7.90875 73.3014 7.93993 73.3542 7.94586Z" fill="#EE352A"/>
<path d="M26.356 30.0004C26.4209 29.9889 26.4295 29.9487 26.4103 29.8942C26.3922 29.9296 26.3742 29.965 26.356 30.0004Z" fill="#EE352A"/>
<path d="M27.3209 25.1472C27.3693 25.1355 27.3993 25.1177 27.3469 25.0714L27.3209 25.1472Z" fill="#EE352A"/>
<path d="M73.3161 7.79302C73.3661 7.7341 73.3196 7.72721 73.2759 7.71879C73.2893 7.74366 73.3027 7.76834 73.3161 7.79302Z" fill="#EE352A"/>
<path d="M27.4334 24.6502C27.4946 24.6363 27.4977 24.5947 27.4831 24.545C27.45 24.5722 27.3999 24.5915 27.4334 24.6502Z" fill="#EE352A"/>
<path d="M26.9293 26.9427C26.9758 26.9343 27.0185 26.924 26.9653 26.8677C26.9532 26.8928 26.9414 26.9176 26.9293 26.9427Z" fill="#EE352A"/>
<path d="M26.4321 29.5799C26.4786 29.5711 26.5224 29.5612 26.4681 29.5045C26.456 29.5296 26.4442 29.5549 26.4321 29.5799Z" fill="#EE352A"/>
<path d="M73.2758 6.68828C73.3224 6.6791 73.3666 6.66896 73.3111 6.61234C73.2993 6.63759 73.2876 6.66303 73.2758 6.68828Z" fill="#EE352A"/>
<path d="M43.7008 18.7118C43.7117 18.6592 43.7006 18.62 43.6394 18.611C43.6599 18.6447 43.6803 18.6783 43.7008 18.7118Z" fill="#EE352A"/>
<path d="M37.0378 7.64209L37.0405 7.56844C37.0395 7.59292 37.0387 7.6176 37.0378 7.64209Z" fill="#EE352A"/>
<path d="M73.2733 7.5296C73.2788 7.55218 73.2844 7.57456 73.2901 7.59713C73.2731 7.58604 73.2562 7.57513 73.2394 7.56404C73.2507 7.55256 73.262 7.54108 73.2733 7.5296Z" fill="#EE352A"/>
<path d="M71.3548 11.7703C71.3349 11.7582 71.315 11.7462 71.2951 11.7341C71.3117 11.7186 71.3284 11.7029 71.345 11.6874C71.3483 11.7152 71.3515 11.7425 71.3548 11.7703Z" fill="#EE352A"/>
<path d="M37.8904 20.3505C37.846 20.3692 37.8081 20.3906 37.8473 20.4467C37.8617 20.4145 37.876 20.3824 37.8904 20.3505Z" fill="#EE352A"/>
<path d="M73.3615 6.30665C73.4194 6.29345 73.4253 6.25423 73.4118 6.20545C73.3747 6.22917 73.3255 6.24677 73.3615 6.30665Z" fill="#EE352A"/>
<path d="M73.6329 5.50454C73.6786 5.49115 73.7088 5.47298 73.6576 5.42822C73.6494 5.45366 73.6411 5.4791 73.6329 5.50454Z" fill="#EE352A"/>
<path d="M26.585 28.739C26.6311 28.7304 26.6743 28.7208 26.6206 28.6638C26.6083 28.6889 26.5972 28.7139 26.585 28.739Z" fill="#EE352A"/>
<path d="M26.5085 29.1594C26.5549 29.1506 26.5988 29.1405 26.5442 29.0839C26.5324 29.1091 26.5203 29.1342 26.5085 29.1594Z" fill="#EE352A"/>
<path d="M26.6988 28.1276C26.7635 28.1159 26.7726 28.0758 26.7531 28.0212C26.735 28.0566 26.7168 28.0922 26.6988 28.1276Z" fill="#EE352A"/>
<path d="M64.6307 7.52788C64.6539 7.59694 64.6868 7.56882 64.72 7.53668C64.6902 7.53381 64.6605 7.53075 64.6307 7.52788Z" fill="#EE352A"/>
<path d="M29.0246 18.5351C29.0449 18.5261 29.0653 18.5173 29.0856 18.5085C29.0818 18.5182 29.0778 18.528 29.0739 18.5377C29.0575 18.5368 29.041 18.5358 29.0246 18.5351Z" fill="#EE352A"/>
<path d="M0.414728 17.2736C0.414154 17.2867 0.413772 17.2997 0.413198 17.3127C0.398086 17.306 0.382783 17.2989 0.367671 17.2922C0.383357 17.2861 0.399042 17.2798 0.414728 17.2736Z" fill="#EE352A"/>
<path d="M0.452605 16.6623C0.452031 16.6753 0.451648 16.6881 0.451075 16.7011C0.435962 16.6944 0.421042 16.6873 0.40593 16.6806C0.421616 16.6745 0.436919 16.6684 0.452605 16.6623Z" fill="#EE352A"/>
<path d="M19.9214 14.4392C19.921 14.4319 19.9212 14.4251 19.921 14.4178C19.9315 14.4209 19.9415 14.4233 19.952 14.4264C19.9418 14.4306 19.9315 14.435 19.9214 14.4392Z" fill="#EE352A"/>
<path d="M31.7427 12.7254C31.731 12.7265 31.7194 12.7273 31.7077 12.7279C31.7102 12.7185 31.7121 12.7089 31.7146 12.6994C31.7238 12.708 31.7335 12.7168 31.7427 12.7254Z" fill="#EE352A"/>
<path d="M66.3874 6.38603L66.3556 6.41951C66.3661 6.40842 66.3767 6.39732 66.3874 6.38603Z" fill="#EE352A"/>
<path d="M62.7533 7.18489C62.7531 7.1979 62.7531 7.21071 62.7531 7.22372C62.7441 7.21511 62.7351 7.20631 62.726 7.1977C62.7351 7.1933 62.7441 7.18929 62.7533 7.18489Z" fill="#EE352A"/>
<path d="M73.2712 6.88321C73.2719 6.89373 73.2715 6.90426 73.2704 6.91459C73.2616 6.90713 73.2528 6.89967 73.244 6.8922C73.2532 6.88934 73.262 6.88608 73.2712 6.88321Z" fill="#EE352A"/>
</g>
<defs>
<clipPath id="clip0_1801_11059">
<rect width="80" height="31.878" fill="white"/>
</clipPath>
</defs>
</svg>
