<svg width="80" height="63" viewBox="0 0 80 63" fill="none" xmlns="http://www.w3.org/2000/svg">
<g clip-path="url(#clip0_1801_10973)">
<g clip-path="url(#clip1_1801_10973)">
<path d="M10.4389 53.9547C9.99422 53.3195 9.29544 52.9595 8.51195 52.9595H4.50984V52.8748L6.83911 39.7673C6.96616 39.0685 6.77558 38.3697 6.3309 37.8403C5.88622 37.3109 5.22979 36.9933 4.53101 36.9933H3.45107L-0.000488281 56.6017H10.5659L10.7354 56.0935C10.9895 55.3735 10.8836 54.59 10.4177 53.9547" fill="#01629E"/>
<path d="M14.8224 42.3718L12.3237 56.6017H16.1988L18.7186 42.3718H14.8224Z" fill="#01629E"/>
<path d="M32.5245 43.5365C31.8892 42.5412 30.8728 42.0542 29.4329 42.0542C27.8024 42.0542 26.426 42.6259 25.3249 43.7906L25.0496 44.087L25.0073 43.9812C24.732 43.0494 23.7791 42.3718 22.7627 42.3718H21.2804L18.7817 56.6228H22.6568L24.1602 48.2586C24.3296 47.2633 24.6261 46.501 25.092 46.014C25.5578 45.5058 26.2354 45.2517 27.1248 45.2517C28.0141 45.2517 28.5435 45.527 28.84 46.0775C29.1152 46.6069 29.1576 47.348 28.967 48.3433L27.4848 56.644H31.4233L32.9903 47.7292C33.3079 45.9716 33.1385 44.5741 32.5033 43.5576" fill="#01629E"/>
<path d="M46.5848 55.0982L48.8294 42.3718H46.7754C45.9284 42.3718 45.1237 42.8376 44.7214 43.5999L44.4249 44.1505L44.2555 43.7482C44.065 43.2823 43.6838 42.88 43.1121 42.5623C42.5404 42.2447 41.7992 42.0753 40.9099 42.0753C39.1947 42.0753 37.8183 42.6047 36.8654 43.6423C35.8913 44.6799 35.1714 46.4798 34.7479 48.9573C34.3032 51.4772 34.4091 53.383 35.0655 54.6111C35.7219 55.8181 36.8442 56.411 38.4747 56.411C39.3217 56.411 40.084 56.2628 40.7405 55.9875C41.3969 55.6911 41.9263 55.3523 42.3074 54.9499L43.1121 54.1029L42.6674 55.204V55.2464C42.4133 56.6863 41.9263 57.7027 41.2275 58.3168C40.5075 58.9309 39.4699 59.2485 38.1359 59.2485C37.6701 59.2485 37.2042 59.2274 36.7595 59.1638C36.1031 59.0791 35.4467 59.3121 34.9384 59.7356C34.4302 60.2014 34.1338 60.8367 34.1338 61.5143V61.7472C35.2349 62.1707 36.5478 62.4037 38.0724 62.4037C42.9003 62.4037 45.7802 59.9473 46.6483 55.1405M42.4768 52.6418C42.011 53.1289 41.3545 53.3618 40.5499 53.3618C39.6182 53.3618 39.0041 53.0441 38.7076 52.4089C38.4324 51.816 38.4112 50.8207 38.6865 49.402C38.9406 47.8985 39.3005 46.8821 39.7664 46.2469C40.2534 45.6116 40.9734 45.294 41.8839 45.294C42.7309 45.294 43.3027 45.5692 43.6203 46.0986C43.9167 46.6068 43.9803 47.4327 43.8532 48.6185L43.5991 50.2066C43.5991 50.2066 43.5991 50.2066 43.5991 50.2278C43.3238 51.3501 42.9427 52.1548 42.498 52.6206" fill="#01629E"/>
<path d="M71.1061 42.0541C68.7556 42.0541 66.9769 42.6047 65.8123 43.6846C64.6476 44.7858 63.8218 46.6492 63.3559 49.2326C62.8689 52.0277 63.1442 54.0817 64.1818 55.3311C65.0499 56.3687 66.4899 56.8981 68.438 56.8981C70.8096 56.8981 72.6095 56.3263 73.7741 55.204C74.96 54.0817 75.7858 52.1971 76.2305 49.6349C76.6963 47.0092 76.4846 45.0399 75.6376 43.8329C74.7906 42.6259 73.2659 42.033 71.1272 42.033M72.3131 49.4655C72.0378 51.0325 71.6778 52.1124 71.1908 52.7477C70.7037 53.4041 69.9838 53.7429 69.0944 53.7429C68.2051 53.7429 67.5274 53.4041 67.2522 52.7265C66.9981 52.0913 66.9981 51.0325 67.2945 49.4655C67.5698 47.9197 67.9298 46.8398 68.3956 46.2045C68.8827 45.5481 69.5814 45.2093 70.5132 45.2093C71.4449 45.2093 72.0589 45.5481 72.3342 46.2469C72.5883 46.8821 72.5883 47.9621 72.3342 49.4867" fill="#01629E"/>
<path d="M59.1841 43.2824L56.029 47.5598C55.8808 47.7715 55.6055 47.8986 55.3514 47.8986H54.1656L55.5844 39.852C55.6902 39.2379 55.5844 38.645 55.2879 38.1579C54.8432 37.4592 54.1021 37.0356 53.2763 37.0356H52.2387L48.7871 56.644H52.641L53.6786 50.842H54.9914C55.3514 50.842 55.6691 51.0537 55.7961 51.3925L57.236 55.1194C57.596 56.0299 58.4854 56.6652 59.4594 56.6652H61.9793L58.9512 49.8044C58.8242 49.5291 58.8665 49.1903 59.0571 48.9574L64.1603 42.4142H61.0476C60.3276 42.4142 59.65 42.753 59.2265 43.3247" fill="#01629E"/>
<path d="M24.2875 21.3023C23.4616 20.2859 21.9582 19.7988 19.8407 19.7988C18.1255 19.7988 16.4103 20.0106 14.8645 20.4129L14.314 23.3775C15.3727 23.0598 16.7915 22.8904 18.5066 22.8904C19.6501 22.8904 20.3912 23.0598 20.8147 23.4198C21.2594 23.7798 21.3865 24.3939 21.2171 25.2621L21.1112 25.982H17.6385C15.9233 25.982 14.6104 26.2997 13.6999 26.9561C12.8105 27.5914 12.2388 28.5442 12.0059 29.7936C11.7306 31.2335 11.9211 32.4193 12.5564 33.2875C13.1917 34.1557 14.2716 34.6004 15.775 34.6004C17.5114 34.6004 18.7607 34.0287 19.5231 32.9064L19.7983 32.4829L19.8407 32.6099C20.2007 33.6475 21.0688 34.2828 22.0853 34.2828H23.5675L25.0498 25.6856C25.4098 23.7586 25.1768 22.2975 24.3722 21.3446M20.7724 28.1419L20.5183 29.8148C20.3065 30.5136 19.9677 31.0218 19.4807 31.3606C19.0148 31.6994 18.3584 31.8688 17.5538 31.8688C16.7915 31.8688 16.2832 31.6994 16.008 31.3606C15.7327 31.0429 15.648 30.5559 15.7539 29.9418C15.9656 28.7348 16.7491 28.1207 18.062 28.1207H20.7936L20.7724 28.1419Z" fill="#01629E"/>
<path d="M10.1213 14.6533H9.02016L7.00851 26.1938C6.71206 27.909 6.20385 29.1584 5.4839 29.8783C4.76394 30.6195 3.7687 31.0006 2.54054 31.0006C2.01116 31.0006 1.50295 30.9583 1.01592 30.8948L-0.000488281 34.4734C0.719469 34.6216 1.5453 34.6851 2.45584 34.6851C4.91216 34.6851 6.56383 34.1134 8.00375 32.737C9.38014 31.4453 10.3118 29.4125 10.7989 26.702L12.4294 17.4061C12.5564 16.7073 12.3658 16.0085 11.9212 15.4791C11.4765 14.9497 10.8201 14.6321 10.1213 14.6321" fill="#01629E"/>
<path d="M36.1877 20.9212L33.0326 25.1986C32.8632 25.4103 32.6091 25.5374 32.3339 25.5374H31.148L32.5668 17.4908C32.6727 16.8767 32.5668 16.2838 32.2703 15.7967C31.8256 15.0979 31.0845 14.6744 30.2587 14.6744H29.2211L25.7695 34.2616H29.6234L30.661 28.4596H31.9739C32.3339 28.4596 32.6515 28.6713 32.7785 29.0102L34.2184 32.737C34.5784 33.6687 35.4678 34.2828 36.4418 34.2828H38.9617L35.9336 27.422C35.8066 27.1467 35.8489 26.8079 36.0395 26.575L41.1427 20.053H38.03C37.31 20.053 36.6324 20.3918 36.2089 20.9635" fill="#01629E"/>
<path d="M18.9088 37.8615C18.4642 37.2262 17.7442 36.8662 16.9819 36.8662H15.8384L15.1396 40.6989H19.0359L19.2476 40.0213C19.5017 39.2802 19.3959 38.4967 18.93 37.8615" fill="#09AB8A"/>
<mask id="mask0_1801_10973" style="mask-type:luminance" maskUnits="userSpaceOnUse" x="43" y="2" width="11" height="9">
<path d="M46.9449 2.58323C46.4367 3.04909 46.1826 3.53612 46.2038 4.04433C46.2038 4.59489 46.5214 5.14545 47.1567 5.69601C48.0249 6.41597 48.5754 6.88183 49.5071 7.83472L49.5918 7.91942C47.5802 7.91942 44.6157 7.91942 43.7051 10.0158L43.6416 10.1852H43.8322C47.8343 9.84638 49.0625 9.76167 52.9375 9.6558C52.9375 9.6558 52.9587 9.6558 52.9799 9.6558C53.1916 9.63462 53.3822 9.50757 53.4457 9.35934C53.5093 9.21112 53.4457 9.04171 53.3399 8.91466C52.6622 8.17352 50.8412 6.18304 48.2154 4.25608C47.7496 3.91728 47.199 3.36672 47.1567 2.68911V2.45618L46.9661 2.6044L46.9449 2.58323Z" fill="white"/>
</mask>
<g mask="url(#mask0_1801_10973)">
<path d="M44.5843 -0.512546L41.3013 9.39722L52.4773 13.0999L55.7604 3.1901L44.5843 -0.512546Z" fill="url(#paint0_linear_1801_10973)"/>
</g>
<mask id="mask1_1801_10973" style="mask-type:luminance" maskUnits="userSpaceOnUse" x="44" y="19" width="11" height="13">
<path d="M44.3828 19.5236H44.2134L44.2769 19.693C45.4204 22.0435 47.8767 21.9164 50.693 21.7682H50.9683C50.0789 23.4622 49.8672 23.9069 49.0625 25.368C48.279 26.7867 47.8343 28.9466 50.1001 31.2336L50.3965 31.53L50.2907 31.1277C49.966 29.9278 51.2436 26.6173 54.1234 21.1964C54.5045 20.4553 54.7586 19.9683 54.5892 19.6718C54.5045 19.5024 54.314 19.4177 53.9963 19.3965C52.6835 19.3965 51.6882 19.3754 50.693 19.3754C49.0413 19.3754 47.3897 19.4177 44.3616 19.5236" fill="white"/>
</mask>
<g mask="url(#mask1_1801_10973)">
<path d="M52.6366 15.1444L39.3403 21.7911L46.3184 35.7504L59.6146 29.1037L52.6366 15.1444Z" fill="url(#paint1_linear_1801_10973)"/>
</g>
<mask id="mask2_1801_10973" style="mask-type:luminance" maskUnits="userSpaceOnUse" x="57" y="26" width="12" height="10">
<path d="M64.1816 26.3843C64.1816 26.3843 64.0546 26.469 63.9699 26.5749C62.4876 28.9465 60.7936 31.8476 59.8831 33.5628C59.756 33.7745 59.6713 33.9228 59.5866 34.0498C59.3537 34.3674 58.6972 35.1509 57.5961 35.4897L57.2573 35.5956L57.5961 35.7015C58.0196 35.8285 58.4431 35.9132 58.8243 35.9344C58.909 35.9344 58.9725 35.9344 59.036 35.9344C60.8359 35.9344 61.7888 34.7274 62.2123 33.9863C62.8264 32.8852 63.1864 32.2075 64.1181 30.7041L64.224 30.5347C65.0922 33.0757 65.918 35.4686 67.972 35.638H68.1414L68.099 35.4897C67.3791 33.1393 66.7862 31.1064 65.7062 28.523C65.0075 26.829 64.8381 26.4267 64.584 26.3208C64.5416 26.3208 64.5204 26.3208 64.4781 26.3208C64.3722 26.3208 64.2875 26.3631 64.1816 26.4267" fill="white"/>
</mask>
<g mask="url(#mask2_1801_10973)">
<path d="M68.1134 26.1033L57.0615 26.2924L57.2292 36.0951L68.2811 35.9061L68.1134 26.1033Z" fill="url(#paint2_linear_1801_10973)"/>
</g>
<mask id="mask3_1801_10973" style="mask-type:luminance" maskUnits="userSpaceOnUse" x="73" y="22" width="7" height="11">
<path d="M73.2656 22.594C73.0327 22.6999 72.9691 22.9752 73.075 23.314C74.1126 26.7867 74.4938 28.0784 75.0443 32.5464V32.8005L75.2349 32.5888C76.6748 30.7889 75.8913 27.7184 75.489 26.0668L75.4255 25.8762C76.1031 26.2573 76.7172 26.6597 77.5006 27.3373C78.03 27.8031 78.4959 27.9725 78.8982 27.8455C79.3641 27.6973 79.724 27.1467 79.9358 26.215L79.9993 25.9397L79.7452 26.1091C79.3217 26.4267 78.8135 26.1091 78.4747 25.7703C77.2677 24.648 75.849 23.6951 74.2185 22.9328C73.6044 22.6787 73.4562 22.594 73.3715 22.594C73.3291 22.594 73.308 22.594 73.2868 22.6152" fill="white"/>
</mask>
<g mask="url(#mask3_1801_10973)">
<path d="M76.6897 19.0638L67.8535 27.379L76.2702 36.3232L85.1064 28.008L76.6897 19.0638Z" fill="url(#paint3_linear_1801_10973)"/>
</g>
<mask id="mask4_1801_10973" style="mask-type:luminance" maskUnits="userSpaceOnUse" x="71" y="6" width="9" height="12">
<path d="M72.08 7.09357C72.207 8.4488 72.2494 8.89348 71.6776 11.2439C71.6141 11.498 71.8894 11.9427 72.2282 12.1121C77.8185 14.7802 78.6866 16.5378 79.3642 17.9565V17.9989L79.576 17.9142V17.8718C78.6443 15.0343 77.3102 13.6579 76.6115 13.0862C75.6374 12.3451 74.748 11.7945 74.1128 11.4133L73.8799 11.2863C74.1763 10.3758 74.4939 9.25346 72.2705 7.00887L72.0588 6.79712L72.1011 7.11475L72.08 7.09357Z" fill="white"/>
</mask>
<g mask="url(#mask4_1801_10973)">
<path d="M77.0647 3.07694L66.3975 10.2856L74.0922 21.6722L84.7594 14.4635L77.0647 3.07694Z" fill="url(#paint4_linear_1801_10973)"/>
</g>
<mask id="mask5_1801_10973" style="mask-type:luminance" maskUnits="userSpaceOnUse" x="40" y="0" width="41" height="38">
<path d="M60.4762 13.3616C60.6032 13.3616 60.7303 13.3616 60.8361 13.298C61.3867 12.9169 61.1326 12.4934 61.0055 12.2393C58.0834 8.36418 54.7377 5.18788 51.3708 3.04917C51.0955 2.85859 50.9685 2.66801 50.9897 2.51978C51.032 2.37156 51.2438 2.2445 51.519 2.20215C51.879 2.13863 52.4507 2.18098 52.9801 2.45626C55.5 4.02323 58.6339 5.97137 62.8901 11.3287C63.2925 11.8369 63.6524 11.9216 63.8854 11.9216C64.1395 11.9216 64.33 11.7522 64.3936 11.6464C66.0241 8.11008 66.8287 5.95019 66.5958 3.85383L66.6593 3.79031C67.4428 3.95971 68.7557 4.84907 68.7557 5.27258C68.8404 6.31017 68.9674 8.06773 67.0193 12.3028C66.6805 13.0228 66.4687 13.5098 66.6381 13.9121C66.744 14.1662 66.9981 14.3568 67.4216 14.5262C75.4047 16.8343 78.4963 19.6506 78.7504 21.3658C78.7927 21.7047 78.708 21.9799 78.4963 22.107C78.4539 22.1282 78.3904 22.1705 78.1786 22.0011C74.5789 19.0366 68.5863 16.3261 67.2946 17.0884C67.1464 17.1731 66.977 17.3425 67.0405 17.6813C67.0617 17.8084 67.1464 17.9566 67.1675 18.0201C70.852 25.3468 73.2448 33.584 72.0802 34.9604C71.932 35.151 71.7202 35.1934 71.4449 35.1087C71.3179 35.0663 71.0002 34.8969 70.8308 34.2193C70.2168 31.4665 69.0309 27.5702 67.9087 24.521C66.9134 21.8105 65.4947 18.5495 64.4148 18.3166C64.3936 18.3166 64.3512 18.3166 64.33 18.3166C64.1183 18.3166 63.9489 18.4013 63.8007 18.6131C63.8007 18.6131 63.8007 18.6131 63.8007 18.6342C60.215 24.7468 57.8293 28.8902 56.6434 31.0642C56.6434 31.0642 56.4952 31.2971 56.4317 31.403C56.1564 31.7418 55.6906 31.89 55.2247 31.7841C54.6953 31.6571 54.293 31.2336 54.1871 30.7042C54.1024 30.2595 54.2506 29.9419 54.3142 29.8148C55.2247 28.1208 56.2411 26.4268 57.2152 24.7963C58.7186 22.2764 60.2644 19.693 61.5137 16.9826C61.5984 16.792 61.5773 16.5379 61.4502 16.3049C61.3655 16.1355 61.1326 15.8391 60.6244 15.7544C55.987 15.4156 52.3237 15.2462 44.0018 15.7544C43.9171 15.7544 43.8536 15.7544 43.8113 15.7544C43.2819 15.6909 42.9219 15.4156 42.7737 14.9921C42.6466 14.5897 42.7737 14.1451 43.1336 13.8486C43.3454 13.658 43.6207 13.531 43.9383 13.5098C48.9568 13.1922 53.9965 12.9381 60.3491 13.3827H60.3915L60.4762 13.3616ZM49.6133 1.18574C49.0627 1.43984 48.7663 1.79982 48.7239 2.20215C48.6816 2.68919 49.0204 3.1974 49.698 3.7056C51.4767 4.9973 54.1448 6.96661 57.554 11.0746C47.6863 10.8417 42.9431 11.6252 42.9007 11.6252C41.6937 12.0275 40.8255 12.8957 40.5503 13.9968C40.2962 14.9921 40.5503 16.0297 41.2279 16.792C42.2231 17.8719 43.536 17.8719 43.9807 17.8507C50.2062 17.5331 53.2978 17.5119 58.0622 17.766C58.1045 17.766 58.1681 17.766 58.2104 17.766C51.9637 28.8407 51.9425 29.0737 51.8367 30.0477C51.6884 31.2124 52.2178 32.4829 53.1919 33.3299C54.1236 34.1346 55.3094 34.431 56.474 34.1346C57.7657 33.7958 58.3586 32.8217 58.5492 32.4829C60.8785 28.3325 61.4714 27.3585 64.6477 22.0435C66.1299 25.1351 67.8028 28.6713 69.3698 34.9816C69.5815 35.7863 69.8568 36.2309 70.005 36.4639C70.4285 37.0991 71.0002 37.4803 71.6143 37.5015C71.7202 37.5015 71.8049 37.5015 71.9108 37.5015C72.7366 37.3956 73.4142 36.6545 73.8166 35.4686C74.1765 34.4099 74.0918 33.4993 74.0495 33.0546C73.4989 29.5395 72.9484 25.8974 70.2379 19.7353C71.9955 20.3283 75.5106 21.5564 78.1575 23.9281C78.7504 24.4575 78.8986 24.4575 79.2798 24.4363C79.4703 24.4363 79.6186 24.3092 79.7456 24.0975C80.1691 23.3987 80.2326 21.4082 79.0892 19.1848C78.6445 18.3166 78.2633 17.9354 78.0092 17.7025C76.4846 16.432 74.1765 14.5474 69.4121 12.9804C70.0262 11.3923 71.4449 7.77127 70.7673 6.09842C70.4285 5.25141 69.0733 4.19264 67.9087 3.4515C66.744 2.71036 65.3465 2.0751 64.8383 2.26568C64.7747 2.26568 64.7112 2.32921 64.6689 2.37156C64.6689 2.37156 64.6477 2.39273 64.6265 2.41391H64.5842V2.64684C64.6689 3.85383 64.7536 4.9126 63.1231 8.68181C60.4338 5.65374 57.4693 3.26092 54.3142 1.58807C53.2554 1.05869 52.1966 0.889282 51.3073 0.889282C50.5873 0.889282 49.9944 1.01633 49.6133 1.16456" fill="white"/>
</mask>
<g mask="url(#mask5_1801_10973)">
<path d="M62.0795 -18.9762L22.0391 17.5348L58.3929 57.4034L98.4333 20.8924L62.0795 -18.9762Z" fill="url(#paint5_radial_1801_10973)"/>
</g>
<mask id="mask6_1801_10973" style="mask-type:luminance" maskUnits="userSpaceOnUse" x="52" y="-1" width="12" height="7">
<path d="M52.8954 0.063404H52.853V0.169281V0.275158H52.8742C53.8059 0.381034 56.3046 0.656314 61.2596 4.70081C61.9372 5.25137 62.2972 5.569 62.5725 5.569H62.6572C62.6572 5.569 62.8477 5.48429 62.9113 5.35724C63.483 3.55734 63.6524 3.02795 63.5465 1.67273V1.58803L63.4618 1.56685C62.5513 1.29157 62.0219 1.2704 61.6831 1.48215C61.3231 1.71508 61.2384 2.24447 61.1325 2.96443C60.6667 2.6468 59.5444 1.88448 58.0621 1.07982C57.2787 0.635139 55.7752 -0.00012207 53.8906 -0.00012207C53.5518 -0.00012207 53.213 -0.00012207 52.853 0.063404" fill="white"/>
</mask>
<g mask="url(#mask6_1801_10973)">
<path d="M61.8015 -4.06954L50.7676 0.977539L54.74 9.66221L65.7739 4.61513L61.8015 -4.06954Z" fill="url(#paint6_linear_1801_10973)"/>
</g>
</g>
</g>
<defs>
<linearGradient id="paint0_linear_1801_10973" x1="53.8941" y1="3.86629" x2="45.2709" y2="1.00942" gradientUnits="userSpaceOnUse">
<stop stop-color="#BAD647"/>
<stop offset="1" stop-color="#73BC56"/>
</linearGradient>
<linearGradient id="paint1_linear_1801_10973" x1="51.2355" y1="17.4852" x2="45.1177" y2="20.5434" gradientUnits="userSpaceOnUse">
<stop stop-color="#08AB8A"/>
<stop offset="1" stop-color="#0A9077"/>
</linearGradient>
<linearGradient id="paint2_linear_1801_10973" x1="56.0132" y1="28.3951" x2="56.1667" y2="37.3721" gradientUnits="userSpaceOnUse">
<stop stop-color="#BAD647"/>
<stop offset="1" stop-color="#73BC56"/>
</linearGradient>
<linearGradient id="paint3_linear_1801_10973" x1="78.4988" y1="15.144" x2="83.4038" y2="20.3562" gradientUnits="userSpaceOnUse">
<stop stop-color="#08AB8A"/>
<stop offset="1" stop-color="#0A9077"/>
</linearGradient>
<linearGradient id="paint4_linear_1801_10973" x1="72.3939" y1="12.3438" x2="75.6748" y2="10.1267" gradientUnits="userSpaceOnUse">
<stop stop-color="#BAD647"/>
<stop offset="1" stop-color="#73BC56"/>
</linearGradient>
<radialGradient id="paint5_radial_1801_10973" cx="0" cy="0" r="1" gradientUnits="userSpaceOnUse" gradientTransform="translate(71.792 9.47707) rotate(-132.36) scale(21.5565 13.2981)">
<stop stop-color="#2BB6EA"/>
<stop offset="1" stop-color="#1083B8"/>
</radialGradient>
<linearGradient id="paint6_linear_1801_10973" x1="60.3723" y1="6.59204" x2="58.1791" y2="1.79719" gradientUnits="userSpaceOnUse">
<stop stop-color="#08AB8A"/>
<stop offset="1" stop-color="#0A9077"/>
</linearGradient>
<clipPath id="clip0_1801_10973">
<rect width="80" height="62.3614" fill="white"/>
</clipPath>
<clipPath id="clip1_1801_10973">
<rect width="80" height="62.3614" fill="white"/>
</clipPath>
</defs>
</svg>
