<svg width="80" height="25" viewBox="0 0 80 25" fill="none" xmlns="http://www.w3.org/2000/svg">
<g clip-path="url(#clip0_1801_9857)">
<path fill-rule="evenodd" clip-rule="evenodd" d="M4.02341 7.43181C0.631101 11.4254 -2.37616 17.7008 2.73351 21.8214C4.0684 22.8979 8.84558 25.7912 19.0792 23.2844L20.648 17.0158C20.648 17.0158 16.1668 18.2676 11.8914 18.4004C9.0366 18.5608 6.82745 18.1202 5.2589 17.2559C3.97278 16.5472 3.11378 15.5553 2.67846 14.3749C2.24565 13.201 2.23552 11.8469 2.64445 10.4062C2.91719 9.4453 3.37725 8.44433 4.02341 7.43181Z" fill="#ED2324"/>
<path fill-rule="evenodd" clip-rule="evenodd" d="M24.4248 0.0397169C22.4805 -0.0693075 15.4402 -0.190524 9.31455 3.16399C6.44013 4.73796 4.04124 7.34264 3.13282 10.5432C2.75341 11.8801 2.75954 13.1279 3.15493 14.2001C3.50574 15.1515 4.16624 15.9698 5.1389 16.5945C5.25049 16.0314 7.07645 7.6208 16.8906 6.17945L24.4248 0.0397169Z" fill="#ED2324"/>
<path fill-rule="evenodd" clip-rule="evenodd" d="M23.387 6.2132L24.9279 0.152616L17.6473 6.08557C19.3308 5.90731 21.2334 5.92663 23.387 6.2132Z" fill="#FDB813"/>
<path fill-rule="evenodd" clip-rule="evenodd" d="M22.9558 13.2832L23.5465 11.0786C23.7953 9.78403 25.0633 9.09623 26.2933 9.09623H29.0335C30.1785 9.13459 30.8733 9.8763 30.5876 11.0354L30.0266 13.3102C29.7371 14.4842 28.8534 15.1935 27.6198 15.1935H24.7698C23.6349 15.1935 22.7441 14.5502 22.9558 13.2832ZM24.6953 13.0227L25.1756 11.2299C25.1756 11.2299 25.3162 10.6868 25.8892 10.7011H28.403C28.403 10.7011 29.0046 10.6367 28.8399 11.2741L28.3923 12.9443C28.2994 13.2911 28.1209 13.5802 27.7243 13.5802H25.2499C24.8383 13.5928 24.5941 13.467 24.6953 13.0227Z" fill="#1D1819"/>
<path fill-rule="evenodd" clip-rule="evenodd" d="M15.0487 13.2832L15.6394 11.0786C15.8882 9.78403 17.1562 9.09623 18.3863 9.09623H21.1264C22.2714 9.13459 22.9661 9.8763 22.6804 11.0354L22.5513 11.5593H20.8563L20.9327 11.2741C21.0975 10.6367 20.4959 10.7011 20.4959 10.7011H17.9821C17.4091 10.6868 17.2686 11.2299 17.2686 11.2299L16.7882 13.0227C16.687 13.467 16.9312 13.5928 17.3428 13.5802H19.8172C20.2138 13.5802 20.3923 13.2911 20.4852 12.9443L20.5187 12.8193H22.2406L22.1195 13.3102C21.83 14.4842 20.9463 15.1935 19.7127 15.1935H16.8626C15.7278 15.1935 14.837 14.5502 15.0487 13.2832Z" fill="#1D1819"/>
<path fill-rule="evenodd" clip-rule="evenodd" d="M32.0359 15.1935H30.3509L31.9369 9.05813H33.9192L35.0867 13.2873L38.3025 9.04715H40.6373L39.1065 15.1815H37.4545L38.4126 11.426L35.5332 15.1831H33.9619L32.9752 11.4932L32.0359 15.1935Z" fill="#1D1819"/>
<path fill-rule="evenodd" clip-rule="evenodd" d="M41.6016 15.1935H39.9166L41.5025 9.05813H43.485L44.6524 13.2873L47.8682 9.04715H50.203L48.6722 15.1815H47.0202L47.9783 11.426L45.0989 15.1831H43.5276L42.5409 11.4932L41.6016 15.1935Z" fill="#1D1819"/>
<path fill-rule="evenodd" clip-rule="evenodd" d="M65.9028 9.07049H58.561L58.1579 10.6681H60.9117L59.7747 15.1935H61.5505L62.7307 10.6567H65.4702L65.9028 9.07049Z" fill="#1D1819"/>
<path fill-rule="evenodd" clip-rule="evenodd" d="M50.0398 13.2831L51.0968 9.0649H52.7665L51.7793 13.0226C51.6781 13.4669 51.9223 13.5928 52.3339 13.5802H54.36C54.7566 13.5802 54.9413 13.2926 55.028 12.9443L55.9943 9.0649H57.6963L56.6623 13.3101C56.3763 14.485 55.4891 15.1935 54.2555 15.1935H51.8537C50.7189 15.1935 49.828 14.5501 50.0398 13.2831Z" fill="#1D1819"/>
<path fill-rule="evenodd" clip-rule="evenodd" d="M72.9565 9.04178H66.7586L65.1834 15.1936H71.3662L71.7843 13.6225H67.2232L67.4285 12.8332L70.9101 12.837L71.2902 11.4687L67.7833 11.4693L67.9913 10.6701L72.5065 10.6705L72.9565 9.04178Z" fill="#1D1819"/>
<path fill-rule="evenodd" clip-rule="evenodd" d="M73.9007 15.1935H72.2276L73.8204 9.01488H78.5094C78.5094 9.01488 80.2576 8.92368 79.9675 10.5107L79.605 12.0495C79.605 12.0495 79.4707 12.7207 78.7618 12.9382C78.7618 12.9382 79.3445 13.1739 79.1084 13.9652L78.7997 15.1645H77.1504L77.4284 14.0619C77.5214 13.693 77.3698 13.5781 77.0286 13.5811H74.308L73.9007 15.1935ZM74.6315 12.2133L75.0484 10.6253H77.899C77.899 10.6253 78.3046 10.5967 78.2246 10.9623C78.165 11.2344 78.0613 11.6165 78.0168 11.7953C77.9504 12.0614 77.8188 12.2027 77.5105 12.219C77.1449 12.2304 74.6315 12.2133 74.6315 12.2133Z" fill="#1D1819"/>
<path fill-rule="evenodd" clip-rule="evenodd" d="M76.3445 19.8242C76.4063 19.8065 76.4681 19.7889 76.53 19.7715C76.5985 19.7522 76.6671 19.733 76.7357 19.714C76.7659 19.7057 76.7973 19.6984 76.8254 19.6886L76.8309 19.6864L76.8386 19.6843C76.8707 19.6756 76.9299 19.6555 76.9499 19.6294C76.9678 19.606 76.9885 19.5753 76.9959 19.5474L77.1485 18.9655C77.1529 18.949 77.1537 18.9316 77.1525 18.9146C77.1519 18.9059 77.1457 18.8977 77.1396 18.8914C77.1236 18.8745 77.0925 18.8611 77.0701 18.8529C77.022 18.8353 76.9494 18.833 76.8979 18.833C76.8411 18.833 76.7766 18.8367 76.7228 18.8537C76.6899 18.8641 76.6539 18.8786 76.6271 18.8993C76.6116 18.9113 76.5933 18.9275 76.5844 18.9442C76.5745 18.9627 76.5653 18.9826 76.5601 19.0027L76.3445 19.8242ZM47.8461 18.4106C47.9197 18.3793 47.9969 18.3548 48.0753 18.335C48.2151 18.2997 48.3648 18.29 48.5099 18.29C48.6703 18.29 48.8619 18.3012 49.0099 18.3611C49.1104 18.4017 49.2096 18.4592 49.2712 18.544C49.3217 18.6136 49.3505 18.6916 49.3472 18.7748C49.3452 18.8268 49.3415 18.8798 49.3281 18.9304L48.6078 21.6277H47.932L48.6428 18.9655C48.6472 18.949 48.648 18.9316 48.6468 18.9146C48.6462 18.9059 48.6398 18.8976 48.6337 18.8913C48.6174 18.8745 48.5857 18.861 48.563 18.8529C48.5141 18.8353 48.4402 18.833 48.3878 18.833C48.3291 18.833 48.2603 18.8365 48.2046 18.8537C48.1734 18.8633 48.1373 18.8775 48.1123 18.8974C48.0961 18.9103 48.0784 18.9267 48.0688 18.9442C48.0588 18.9627 48.0494 18.9826 48.044 19.0027L47.3431 21.6277H46.6623L47.3731 18.9655C47.3776 18.949 47.3783 18.9316 47.3772 18.9146C47.3766 18.9059 47.3701 18.8976 47.364 18.8913C47.3477 18.8745 47.316 18.861 47.2933 18.8529C47.2444 18.8353 47.1705 18.833 47.1181 18.833C47.0604 18.833 46.9947 18.8367 46.9399 18.8537C46.9065 18.8641 46.8697 18.8787 46.8425 18.8993C46.8268 18.9113 46.8082 18.9274 46.7991 18.9443C46.7891 18.9627 46.7798 18.9826 46.7744 19.0027L46.0734 21.6277H45.3926L46.1205 18.9018C46.1346 18.8491 46.1594 18.797 46.1838 18.7478C46.2258 18.6628 46.2966 18.5905 46.3741 18.5304C46.4725 18.4541 46.5932 18.3999 46.7145 18.3595C46.8803 18.3042 47.0689 18.29 47.2453 18.29C47.3807 18.29 47.53 18.2978 47.6597 18.3357C47.7239 18.3545 47.7881 18.3784 47.8461 18.4106ZM23.3482 20.3463C23.3286 20.352 23.3089 20.3573 23.2896 20.3617L23.2092 20.3835L23.2048 20.3844C23.1746 20.3908 23.1453 20.4009 23.118 20.4144C23.0937 20.4264 23.0714 20.4426 23.0512 20.4598C23.0384 20.4709 23.0316 20.4865 23.0274 20.502L22.732 21.6277H22.0629L22.93 18.324H23.5991L23.2048 19.8262C23.2272 19.8197 23.2495 19.8131 23.2717 19.8064C23.3241 19.7904 23.3765 19.7747 23.429 19.7593C23.4774 19.745 23.5259 19.7312 23.5746 19.718L23.6991 19.6844C23.733 19.6746 23.788 19.6549 23.8101 19.6272C23.828 19.605 23.8497 19.5743 23.8568 19.5474L24.1779 18.324H24.8421L24.4968 19.6398C24.466 19.7572 24.3994 19.8612 24.3135 19.9511C24.2323 20.0362 24.1287 20.099 24.0171 20.1456L24.222 21.6277H23.5242L23.3482 20.3463ZM25.5791 19.6959H26.4615L26.3146 20.2558H25.4323L25.2417 20.9819C25.233 21.0149 25.2334 21.0465 25.2551 21.0754C25.275 21.1019 25.3112 21.106 25.3435 21.106H26.3059L26.169 21.6277H25.1022C25.004 21.6277 24.9018 21.6138 24.8138 21.5705C24.7412 21.5348 24.6789 21.4861 24.6336 21.4226C24.5911 21.3628 24.565 21.2962 24.5553 21.2257C24.5457 21.157 24.5495 21.0883 24.567 21.0213L25.1234 18.9018C25.1419 18.831 25.1753 18.7638 25.2164 18.7019C25.2626 18.6323 25.3207 18.5704 25.3872 18.5167C25.4586 18.4589 25.5401 18.4131 25.6278 18.3789C25.7257 18.3406 25.8305 18.324 25.9371 18.324H27.036L26.8991 18.8457H25.9688C25.9188 18.8457 25.8772 18.8582 25.8389 18.8882C25.7992 18.9192 25.7734 18.956 25.7611 19.0027L25.5791 19.6959ZM30.1538 19.6959H31.0361L30.8892 20.2558H30.0069L29.8163 20.9819C29.8076 21.0149 29.808 21.0465 29.8297 21.0754C29.8497 21.1019 29.8858 21.106 29.9181 21.106H30.8805L30.7436 21.6277H29.6769C29.5787 21.6277 29.4764 21.6138 29.3884 21.5705C29.3158 21.5348 29.2535 21.4861 29.2082 21.4226C29.1657 21.3628 29.1397 21.2962 29.1299 21.2257C29.1203 21.157 29.1241 21.0883 29.1416 21.0213L29.6979 18.9018C29.7165 18.831 29.7499 18.7638 29.791 18.7019C29.8373 18.6323 29.8953 18.5704 29.9619 18.5167C30.0333 18.4589 30.1147 18.4131 30.2024 18.3789C30.3003 18.3407 30.4051 18.324 30.5117 18.324H31.6106L31.4737 18.8457H30.5435C30.4934 18.8457 30.4518 18.8582 30.4135 18.8882C30.3738 18.9192 30.348 18.956 30.3357 19.0027L30.1538 19.6959ZM33.0903 18.85L32.3613 21.6277H31.697L32.426 18.85H31.802L31.9401 18.324H33.8522L33.7142 18.85H33.0903ZM38.8843 19.1048L38.9299 18.9316C38.9342 18.915 38.9349 18.8976 38.9338 18.8807C38.9332 18.872 38.927 18.8638 38.921 18.8574C38.9049 18.8405 38.8738 18.827 38.8514 18.8189C38.8033 18.8014 38.7307 18.799 38.6792 18.799C38.6224 18.799 38.5579 18.8028 38.504 18.8198C38.4711 18.8301 38.4351 18.8447 38.4083 18.8654C38.3928 18.8773 38.3746 18.8935 38.3657 18.9103C38.3557 18.9287 38.3466 18.9485 38.3413 18.9687L37.8219 20.948C37.8171 20.9662 37.8155 20.9853 37.8158 21.0041C37.8158 21.0134 37.8216 21.0224 37.8276 21.0295C37.8406 21.0453 37.8687 21.0579 37.8883 21.0654C37.933 21.0823 37.9991 21.0848 38.0471 21.0848C38.1075 21.0848 38.1781 21.0813 38.2355 21.0637C38.2712 21.0528 38.3109 21.038 38.3412 21.0174C38.3566 21.007 38.3736 20.9933 38.3828 20.9777C38.3917 20.9627 38.4016 20.9445 38.4059 20.9278L38.4439 20.7833H39.1131L39.052 21.0159C39.0378 21.0696 39.0137 21.1224 38.9891 21.1726C38.9482 21.2556 38.8803 21.3268 38.8065 21.3863C38.7109 21.4635 38.5921 21.518 38.473 21.5583C38.31 21.6135 38.1247 21.6277 37.9514 21.6277C37.7938 21.6277 37.6054 21.6165 37.46 21.5567C37.3612 21.5161 37.2639 21.459 37.2019 21.3753C37.1503 21.3058 37.1203 21.2271 37.1235 21.143C37.1255 21.091 37.1292 21.038 37.1424 20.9873L37.6987 18.8678C37.7124 18.8152 37.7368 18.7631 37.7608 18.7137C37.8022 18.6288 37.8718 18.5566 37.9479 18.4965C38.0445 18.4201 38.1632 18.3659 38.2825 18.3255C38.4455 18.2703 38.6308 18.256 38.8042 18.256C38.9618 18.256 39.1501 18.2672 39.2955 18.3271C39.3943 18.3678 39.4919 18.4252 39.5523 18.51C39.602 18.5796 39.6303 18.6576 39.6271 18.7408C39.6251 18.7929 39.6215 18.8459 39.6082 18.8965L39.5535 19.1048H38.8843ZM44.125 18.4106C44.1985 18.3793 44.2757 18.3548 44.3542 18.335C44.4939 18.2997 44.6436 18.29 44.7887 18.29C44.9491 18.29 45.1408 18.3012 45.2887 18.3611C45.3893 18.4017 45.4885 18.4592 45.55 18.544C45.6006 18.6136 45.6294 18.6916 45.6261 18.7748C45.624 18.8268 45.6204 18.8798 45.6069 18.9304L44.8866 21.6277H44.2108L44.9217 18.9655C44.9261 18.949 44.9268 18.9316 44.9257 18.9146C44.9251 18.9059 44.9186 18.8976 44.9125 18.8913C44.8963 18.8745 44.8645 18.861 44.8418 18.8529C44.7929 18.8353 44.719 18.833 44.6665 18.833C44.6079 18.833 44.5392 18.8365 44.4834 18.8537C44.4522 18.8633 44.4161 18.8775 44.3911 18.8974C44.3749 18.9103 44.3572 18.9267 44.3477 18.9442C44.3376 18.9627 44.3283 18.9826 44.3229 19.0027L43.6219 21.6277H42.9411L43.6519 18.9655C43.6564 18.949 43.6572 18.9316 43.656 18.9146C43.6554 18.9059 43.649 18.8976 43.6428 18.8913C43.6266 18.8745 43.5948 18.861 43.5722 18.8529C43.5232 18.8353 43.4494 18.833 43.397 18.833C43.3392 18.833 43.2735 18.8367 43.2188 18.8537C43.1853 18.8641 43.1485 18.8787 43.1214 18.8993C43.1056 18.9113 43.0871 18.9274 43.0779 18.9443C43.0679 18.9627 43.0586 18.9826 43.0532 19.0027L42.3523 21.6277H41.6715L42.3993 18.9018C42.4134 18.8491 42.4382 18.797 42.4627 18.7478C42.5047 18.6628 42.5755 18.5905 42.6529 18.5304C42.7513 18.4541 42.872 18.3999 42.9933 18.3595C43.1592 18.3042 43.3477 18.29 43.524 18.29C43.6595 18.29 43.8088 18.2978 43.9385 18.3357C44.0028 18.3545 44.0669 18.3784 44.125 18.4106ZM51.1902 21.0714C51.1771 21.1059 51.1613 21.1397 51.1451 21.1726C51.1043 21.2556 51.0364 21.3267 50.9626 21.3863C50.8669 21.4635 50.7482 21.518 50.6291 21.5583C50.4661 21.6135 50.2808 21.6277 50.1075 21.6277C49.9499 21.6277 49.7614 21.6165 49.6161 21.5567C49.5172 21.516 49.4198 21.4585 49.3593 21.3738C49.3096 21.3042 49.2813 21.2262 49.2845 21.1429C49.2865 21.0909 49.2901 21.038 49.3033 20.9873L50.0112 18.29H50.6804L49.9828 20.948C49.978 20.9662 49.9765 20.9853 49.9766 21.0042C49.9768 21.0133 49.9827 21.0224 49.9886 21.0295C50.0015 21.0453 50.0297 21.0579 50.0493 21.0654C50.0939 21.0822 50.16 21.0848 50.2081 21.0848C50.2685 21.0848 50.339 21.0813 50.3966 21.0637C50.4321 21.0528 50.4719 21.038 50.5021 21.0174C50.5175 21.007 50.5345 20.9933 50.5437 20.9777C50.5526 20.9627 50.5626 20.9444 50.5669 20.9278L51.2592 18.29H51.9283L51.1984 21.0714H51.1902ZM53.3626 18.85L52.6336 21.6277H51.9693L52.6983 18.85H52.0743L52.2124 18.324H54.1246L53.9865 18.85H53.3626ZM54.7542 19.6959H55.6366L55.4896 20.2558H54.6073L54.4167 20.9819C54.4081 21.0149 54.4084 21.0465 54.4302 21.0754C54.4501 21.1019 54.4862 21.106 54.5185 21.106H55.4809L55.344 21.6277H54.2773C54.1791 21.6277 54.0769 21.6138 53.9888 21.5705C53.9163 21.5348 53.8539 21.4861 53.8088 21.4226C53.7662 21.3628 53.7402 21.2962 53.7303 21.2257C53.7208 21.157 53.7245 21.0883 53.7421 21.0213L54.2984 18.9018C54.3169 18.831 54.3504 18.7638 54.3915 18.7019C54.4377 18.6323 54.4958 18.5704 54.5623 18.5167C54.6337 18.4589 54.7152 18.4131 54.8029 18.3789C54.9008 18.3406 55.0055 18.324 55.1122 18.324H56.2111L56.0742 18.8457H55.1439C55.0938 18.8457 55.0522 18.8582 55.0139 18.8882C54.9742 18.9192 54.9485 18.956 54.9362 19.0027L54.7542 19.6959ZM59.3032 21.6277L60.1703 18.324H60.8346L59.9675 21.6277H59.3032ZM62.2216 21.6277H61.5524L62.2511 18.9655C62.2555 18.949 62.2562 18.9316 62.2551 18.9146C62.2545 18.9048 62.2489 18.8962 62.2423 18.8888C62.2289 18.8736 62.1956 18.8602 62.1762 18.8533C62.1261 18.8355 62.054 18.833 62.0004 18.833C61.9437 18.833 61.8791 18.8367 61.8253 18.8537C61.7924 18.8641 61.7563 18.8786 61.7296 18.8993C61.7141 18.9113 61.6959 18.9275 61.6869 18.9442C61.677 18.9627 61.6679 18.9826 61.6626 19.0027L60.9737 21.6277H60.3094L61.0248 18.9018C61.0386 18.8491 61.063 18.797 61.087 18.7478C61.1279 18.6637 61.1957 18.5917 61.2703 18.5315C61.3659 18.4543 61.4847 18.3998 61.6037 18.3595C61.7667 18.3042 61.9521 18.29 62.1253 18.29C62.283 18.29 62.4714 18.3012 62.6168 18.3611C62.7156 18.4017 62.8131 18.4592 62.8735 18.544C62.9232 18.6136 62.9515 18.6916 62.9483 18.7748C62.9463 18.8268 62.9428 18.8798 62.9295 18.9304L62.2216 21.6277ZM69.2931 21.6277H68.6239L69.3226 18.9655C69.3269 18.949 69.3276 18.9316 69.3265 18.9146C69.3259 18.9048 69.3204 18.8963 69.3137 18.8888C69.3003 18.8736 69.2671 18.8602 69.2476 18.8533C69.1975 18.8355 69.1254 18.833 69.0719 18.833C69.0151 18.833 68.9506 18.8367 68.8968 18.8537C68.8639 18.8641 68.8279 18.8787 68.8011 18.8993C68.7856 18.9113 68.7673 18.9274 68.7584 18.9442C68.7485 18.9627 68.7394 18.9826 68.7341 19.0027L68.0451 21.6277H67.3808L68.0963 18.9018C68.1101 18.8491 68.1344 18.797 68.1584 18.7478C68.1993 18.6637 68.2671 18.5917 68.3417 18.5315C68.4373 18.4543 68.5561 18.3998 68.6751 18.3595C68.8382 18.3042 69.0235 18.29 69.1969 18.29C69.3545 18.29 69.5428 18.3012 69.6882 18.3611C69.7871 18.4017 69.8846 18.4592 69.945 18.544C69.9947 18.6136 70.023 18.6916 70.0198 18.7748C70.0178 18.8268 70.0142 18.8798 70.0009 18.9304L69.2931 21.6277ZM70.9542 19.6959H71.8365L71.6896 20.2558H70.8073L70.6167 20.9819C70.6081 21.0149 70.6084 21.0465 70.6302 21.0753C70.6501 21.1019 70.6861 21.106 70.7185 21.106H71.6809L71.544 21.6277H70.4773C70.379 21.6277 70.2768 21.6138 70.1888 21.5705C70.1162 21.5348 70.0539 21.4861 70.0087 21.4226C69.9661 21.3628 69.9402 21.2962 69.9303 21.2257C69.9207 21.157 69.9245 21.0883 69.9421 21.0213L70.4983 18.9018C70.5169 18.831 70.5504 18.7638 70.5914 18.7019C70.6377 18.6323 70.6958 18.5704 70.7623 18.5167C70.8337 18.4589 70.9152 18.4131 71.0028 18.3789C71.1007 18.3407 71.2054 18.324 71.3121 18.324H72.411L72.2742 18.8457H71.3439C71.2938 18.8457 71.2522 18.8582 71.2139 18.8882C71.1741 18.9192 71.1484 18.956 71.1361 19.0027L70.9542 19.6959ZM73.2057 20.3079L72.8643 20.2005L72.8616 20.1992L72.8498 20.1959C72.6935 20.1523 72.527 20.0774 72.4486 19.938C72.3844 19.8239 72.3711 19.7008 72.4035 19.5772L72.5897 18.8678C72.6034 18.8152 72.6278 18.7631 72.6519 18.7137C72.6927 18.6297 72.7605 18.5578 72.8351 18.4975C72.9307 18.4203 73.0496 18.3659 73.1687 18.3255C73.3316 18.2704 73.517 18.256 73.6903 18.256C73.8478 18.256 74.0362 18.2673 74.1815 18.3271C74.2804 18.3678 74.378 18.4252 74.4384 18.51C74.4881 18.5796 74.5164 18.6576 74.5132 18.7408C74.5113 18.7929 74.5076 18.8459 74.4944 18.8965L74.4397 19.1048H73.7705L73.816 18.9316C73.8203 18.915 73.8211 18.8976 73.82 18.8807C73.8194 18.872 73.8132 18.8638 73.8071 18.8574C73.791 18.8405 73.7599 18.827 73.7375 18.8189C73.6894 18.8014 73.6168 18.799 73.5653 18.799C73.5085 18.799 73.444 18.8028 73.3901 18.8198C73.3572 18.8301 73.3213 18.8447 73.2945 18.8654C73.2791 18.8772 73.2607 18.8935 73.2517 18.9103C73.2419 18.9287 73.2328 18.9485 73.2275 18.9687L73.077 19.5422C73.0709 19.5651 73.0749 19.5916 73.0812 19.6145C73.085 19.6285 73.1344 19.6471 73.147 19.6513L73.1553 19.6539L73.1633 19.6578C73.1715 19.6619 73.1813 19.6651 73.1902 19.6679C73.2082 19.6736 73.2262 19.6792 73.2443 19.6848C73.3068 19.7045 73.3693 19.7245 73.4317 19.7446C73.4965 19.7654 73.5609 19.7876 73.6244 19.8118C73.6798 19.825 73.7352 19.8419 73.7863 19.8661C73.8491 19.8869 73.9068 19.9182 73.9543 19.9619C73.9985 20.0027 74.0337 20.0501 74.0603 20.102C74.1147 20.2084 74.1203 20.3216 74.0909 20.434L73.9381 21.0159C73.924 21.0696 73.8998 21.1224 73.8752 21.1726C73.8344 21.2556 73.7664 21.3268 73.6926 21.3863C73.5971 21.4635 73.4782 21.518 73.3591 21.5583C73.1961 21.6135 73.0109 21.6277 72.8375 21.6277C72.68 21.6277 72.4915 21.6165 72.3461 21.5567C72.2473 21.516 72.1498 21.4586 72.0893 21.3738C72.0396 21.3042 72.0113 21.2262 72.0145 21.143C72.0165 21.091 72.0202 21.038 72.0334 20.9873L72.087 20.7833H72.7513L72.708 20.9479C72.7033 20.9662 72.7016 20.9853 72.7018 21.0042C72.7019 21.0134 72.7079 21.0224 72.7138 21.0296C72.7267 21.0453 72.7548 21.058 72.7744 21.0654C72.8191 21.0823 72.8852 21.0848 72.9332 21.0848C72.9937 21.0848 73.0641 21.0813 73.1217 21.0637C73.1573 21.0528 73.197 21.038 73.2274 21.0174C73.2427 21.007 73.2597 20.9932 73.2689 20.9777C73.2778 20.9626 73.2877 20.9445 73.292 20.9278L73.4135 20.4649C73.4195 20.4422 73.4152 20.4129 73.4102 20.3903C73.4073 20.3772 73.36 20.3595 73.3484 20.3557C73.3263 20.3485 73.3042 20.3418 73.282 20.3349C73.2562 20.3269 73.2307 20.318 73.2057 20.3079ZM74.1976 21.6277L75.0646 18.324H75.7289L74.8619 21.6277H74.1976ZM27.732 19.8233C27.7566 19.8164 27.7811 19.8096 27.8058 19.8029C27.8575 19.789 27.909 19.7744 27.9603 19.7593C28.0086 19.745 28.0572 19.7312 28.1058 19.718C28.1268 19.7124 28.1479 19.7067 28.1689 19.701C28.1866 19.6962 28.2041 19.6911 28.2223 19.6853C28.2582 19.6749 28.3142 19.6552 28.3366 19.6272C28.3526 19.6072 28.3757 19.576 28.3821 19.5516L28.5359 18.9655C28.5403 18.949 28.541 18.9316 28.5398 18.9145C28.5393 18.9059 28.5329 18.8976 28.5269 18.8913C28.511 18.8745 28.4798 18.861 28.4574 18.8529C28.4094 18.8353 28.3367 18.833 28.2853 18.833C28.2285 18.833 28.1639 18.8367 28.1102 18.8537C28.0772 18.8641 28.0411 18.8786 28.0143 18.8993C27.9989 18.9113 27.9807 18.9274 27.9718 18.9443C27.9618 18.9627 27.9527 18.9826 27.9474 19.0027L27.732 19.8233ZM27.8746 20.3463C27.855 20.352 27.8353 20.3573 27.816 20.3617L27.7399 20.3823C27.7046 20.3919 27.67 20.4038 27.6366 20.418C27.617 20.4263 27.5993 20.4393 27.5839 20.4531C27.5702 20.4656 27.5612 20.4812 27.5551 20.4979L27.2585 21.6277H26.5893L27.3048 18.9018C27.3185 18.8491 27.3429 18.797 27.3669 18.7478C27.4078 18.6637 27.4756 18.5917 27.5502 18.5315C27.6458 18.4543 27.7646 18.3998 27.8837 18.3595C28.0466 18.3043 28.232 18.29 28.4053 18.29C28.5629 18.29 28.7513 18.3012 28.8967 18.3611C28.9955 18.4017 29.0931 18.4592 29.1535 18.544C29.2032 18.6136 29.2315 18.6916 29.2283 18.7748C29.2263 18.8268 29.2227 18.8798 29.2094 18.9304L29.0233 19.6398C28.9925 19.7572 28.9259 19.8612 28.84 19.9511C28.7587 20.0361 28.6551 20.099 28.5435 20.1456L28.7485 21.6277H28.0507L27.8746 20.3463ZM34.4883 19.8242C34.5501 19.8065 34.6119 19.7889 34.6738 19.7715C34.7424 19.7522 34.8109 19.733 34.8796 19.714C34.9094 19.7057 34.9402 19.6986 34.9693 19.6885L34.9747 19.6864L34.9825 19.6843C35.0146 19.6756 35.0737 19.6555 35.0937 19.6294C35.1116 19.606 35.1324 19.5753 35.1397 19.5474L35.2924 18.9655C35.2968 18.949 35.2975 18.9316 35.2964 18.9146C35.2958 18.9059 35.2896 18.8977 35.2835 18.8914C35.2675 18.8745 35.2363 18.8611 35.2139 18.8529C35.1659 18.8353 35.0933 18.833 35.0417 18.833C34.985 18.833 34.9204 18.8367 34.8666 18.8537C34.8337 18.8641 34.7977 18.8786 34.7709 18.8993C34.7554 18.9113 34.7372 18.9275 34.7282 18.9442C34.7183 18.9627 34.7092 18.9826 34.704 19.0027L34.4883 19.8242ZM34.9535 20.2572C34.9064 20.2707 34.8592 20.2839 34.8119 20.2973L34.4921 20.3836L34.4878 20.3844C34.4575 20.3908 34.4282 20.4009 34.4009 20.4144C34.3766 20.4264 34.3543 20.4426 34.3341 20.4598C34.3213 20.4709 34.3145 20.4865 34.3104 20.502L34.015 21.6277H33.3507L34.0661 18.9018C34.0799 18.8491 34.1043 18.797 34.1282 18.7478C34.1692 18.6637 34.237 18.5917 34.3116 18.5315C34.4072 18.4543 34.526 18.3998 34.6451 18.3595C34.8081 18.3042 34.9934 18.29 35.1667 18.29C35.3243 18.29 35.5127 18.3012 35.6581 18.3611C35.7569 18.4017 35.8545 18.4592 35.9149 18.544C35.9646 18.6136 35.9929 18.6916 35.9896 18.7748C35.9877 18.8268 35.9841 18.8798 35.9708 18.9304L35.2629 21.6277H34.5937L34.9535 20.2572ZM40.755 20.7833L41.1955 19.1048H41.1907L41.2361 18.9316C41.2404 18.915 41.2411 18.8976 41.2401 18.8807C41.2394 18.8709 41.2339 18.8623 41.2272 18.8549C41.2138 18.8397 41.1808 18.8263 41.1613 18.8193C41.111 18.8016 41.039 18.799 40.9854 18.799C40.9287 18.799 40.8642 18.8028 40.8103 18.8198C40.7774 18.8301 40.7414 18.8447 40.7146 18.8654C40.6992 18.8773 40.6809 18.8935 40.6719 18.9103C40.6621 18.9287 40.6529 18.9485 40.6476 18.9687L40.1282 20.948C40.1234 20.9663 40.1218 20.9854 40.122 21.0043C40.1221 21.0134 40.128 21.0225 40.1339 21.0296C40.1468 21.0453 40.175 21.058 40.1946 21.0654C40.2392 21.0823 40.3053 21.0848 40.3533 21.0848C40.4155 21.0848 40.4861 21.0811 40.5454 21.0634C40.5788 21.0534 40.6194 21.0389 40.6475 21.0191C40.6632 21.008 40.6795 20.9939 40.689 20.9777C40.698 20.9626 40.7079 20.9445 40.7122 20.9278L40.7501 20.7833H40.755ZM41.9145 18.8965L41.3583 21.0159C41.3442 21.0696 41.32 21.1224 41.2953 21.1726C41.2545 21.2556 41.1865 21.3268 41.1127 21.3863C41.0172 21.4635 40.8984 21.518 40.7793 21.5583C40.6163 21.6135 40.431 21.6277 40.2576 21.6277C40.1001 21.6277 39.9116 21.6165 39.7663 21.5567C39.6675 21.5161 39.5699 21.4586 39.5094 21.3738C39.4598 21.3042 39.4315 21.2262 39.4347 21.143C39.4367 21.0909 39.4403 21.038 39.4535 20.9873L40.0098 18.8678C40.0236 18.8152 40.048 18.7631 40.072 18.7137C40.1129 18.6297 40.1807 18.5578 40.2553 18.4975C40.3509 18.4203 40.4697 18.3659 40.5888 18.3255C40.7518 18.2704 40.9371 18.256 41.1104 18.256C41.268 18.256 41.4563 18.2673 41.6017 18.3271C41.7006 18.3678 41.7981 18.4252 41.8586 18.51C41.9083 18.5797 41.9366 18.6576 41.9334 18.7408C41.9314 18.7929 41.9278 18.8459 41.9145 18.8965ZM56.8616 19.8233C56.8861 19.8164 56.9106 19.8096 56.9352 19.8029C56.987 19.789 57.0385 19.7745 57.0898 19.7593C57.1382 19.745 57.1867 19.7312 57.2354 19.718C57.2564 19.7123 57.2774 19.7067 57.2985 19.701C57.3161 19.6962 57.3336 19.6911 57.3519 19.6853C57.3877 19.6749 57.4437 19.6552 57.4661 19.6272C57.4821 19.6072 57.5052 19.576 57.5117 19.5516L57.6655 18.9655C57.6698 18.949 57.6705 18.9316 57.6695 18.9146C57.6689 18.9059 57.6625 18.8976 57.6565 18.8913C57.6405 18.8745 57.6093 18.861 57.587 18.8529C57.539 18.8353 57.4663 18.833 57.4148 18.833C57.3581 18.833 57.2935 18.8367 57.2396 18.8537C57.2068 18.8641 57.1707 18.8787 57.1439 18.8993C57.1284 18.9113 57.1102 18.9274 57.1012 18.9443C57.0913 18.9627 57.0822 18.9826 57.0769 19.0027L56.8616 19.8233ZM57.0041 20.3463C56.9845 20.352 56.9648 20.3573 56.9456 20.3617L56.8694 20.3823C56.8341 20.3919 56.7995 20.4038 56.7662 20.418C56.7466 20.4263 56.7288 20.4393 56.7135 20.4531C56.6997 20.4656 56.6907 20.4812 56.6845 20.4979L56.388 21.6277H55.7189L56.4343 18.9018C56.4481 18.8491 56.4725 18.797 56.4964 18.7478C56.5374 18.6637 56.6052 18.5917 56.6798 18.5315C56.7753 18.4543 56.8942 18.3998 57.0132 18.3595C57.1762 18.3042 57.3616 18.29 57.5348 18.29C57.6925 18.29 57.8809 18.3012 58.0263 18.3611C58.1251 18.4017 58.2226 18.4592 58.283 18.544C58.3327 18.6136 58.361 18.6916 58.3578 18.7748C58.3558 18.8268 58.3523 18.8798 58.3389 18.9304L58.1528 19.6398C58.122 19.7572 58.0554 19.8612 57.9695 19.9511C57.8883 20.0362 57.7847 20.099 57.673 20.1456L57.878 21.6277H57.1802L57.0041 20.3463ZM64.1108 18.8457L63.5176 21.106H63.9298C63.9799 21.106 64.0215 21.0935 64.0598 21.0636C64.0981 21.0336 64.1246 20.9986 64.1365 20.9533L64.6559 18.974C64.6647 18.9405 64.6661 18.9061 64.6436 18.8763C64.6236 18.8499 64.5875 18.8457 64.5552 18.8457H64.1108ZM65.3316 18.9304L64.7754 21.0499C64.7568 21.1208 64.7234 21.1879 64.6822 21.2498C64.636 21.3194 64.5779 21.3813 64.5115 21.4351C64.44 21.4928 64.3585 21.5386 64.2709 21.5728C64.173 21.6111 64.0683 21.6277 63.9616 21.6277H62.7115L63.5786 18.324H64.7965C64.8947 18.324 64.9968 18.338 65.0849 18.3813C65.1574 18.4169 65.2199 18.4656 65.2651 18.5291C65.3076 18.589 65.3336 18.6555 65.3434 18.726C65.3529 18.7947 65.3492 18.8635 65.3316 18.9304ZM66.4719 20.7833L66.9124 19.1048H66.9075L66.9529 18.9316C66.9573 18.915 66.9581 18.8976 66.9569 18.8807C66.9563 18.8709 66.9507 18.8623 66.9441 18.8549C66.9307 18.8397 66.8977 18.8263 66.8781 18.8193C66.8279 18.8016 66.7558 18.799 66.7023 18.799C66.6455 18.799 66.5809 18.8028 66.5271 18.8198C66.4942 18.8301 66.4582 18.8447 66.4315 18.8654C66.416 18.8773 66.3977 18.8936 66.3888 18.9103C66.3789 18.9287 66.3697 18.9485 66.3645 18.9687L65.845 20.948C65.8402 20.9663 65.8387 20.9854 65.8388 21.0043C65.8389 21.0134 65.8449 21.0225 65.8507 21.0296C65.8637 21.0453 65.8918 21.058 65.9114 21.0654C65.956 21.0823 66.0222 21.0848 66.0702 21.0848C66.1324 21.0848 66.2029 21.081 66.2621 21.0634C66.2956 21.0534 66.3363 21.0389 66.3642 21.0191C66.38 21.008 66.3963 20.9938 66.4059 20.9777C66.4148 20.9626 66.4247 20.9445 66.4291 20.9278L66.467 20.7833H66.4719ZM67.6313 18.8965L67.0751 21.0159C67.061 21.0696 67.0368 21.1224 67.0121 21.1726C66.9713 21.2556 66.9034 21.3268 66.8296 21.3863C66.734 21.4635 66.6152 21.518 66.4961 21.5583C66.3331 21.6135 66.1478 21.6277 65.9745 21.6277C65.8169 21.6277 65.6285 21.6165 65.4831 21.5567C65.3842 21.5161 65.2868 21.4586 65.2263 21.3738C65.1767 21.3042 65.1483 21.2262 65.1516 21.143C65.1535 21.0909 65.1571 21.038 65.1704 20.9873L65.7266 18.8678C65.7405 18.8152 65.7649 18.7631 65.7888 18.7137C65.8297 18.6297 65.8976 18.5578 65.9721 18.4975C66.0678 18.4203 66.1865 18.3659 66.3056 18.3255C66.4686 18.2704 66.6539 18.256 66.8272 18.256C66.9848 18.256 67.1732 18.2672 67.3185 18.3271C67.4174 18.3678 67.5149 18.4252 67.5754 18.51C67.625 18.5797 67.6534 18.6576 67.6502 18.7408C67.6482 18.7929 67.6446 18.8459 67.6313 18.8965ZM76.8095 20.2572C76.7625 20.2707 76.7153 20.2839 76.668 20.2973L76.3483 20.3836L76.3439 20.3844C76.3137 20.3908 76.2843 20.4009 76.2571 20.4144C76.2328 20.4264 76.2104 20.4426 76.1903 20.4598C76.1774 20.4709 76.1707 20.4865 76.1666 20.502L75.8711 21.6277H75.2068L75.9223 18.9018C75.9361 18.8491 75.9605 18.797 75.9844 18.7478C76.0253 18.6637 76.0931 18.5917 76.1677 18.5315C76.2634 18.4543 76.3822 18.3998 76.5012 18.3595C76.6642 18.3042 76.8495 18.29 77.0228 18.29C77.1804 18.29 77.3689 18.3012 77.5142 18.3611C77.6131 18.4017 77.7106 18.4592 77.771 18.544C77.8207 18.6136 77.849 18.6916 77.8457 18.7748C77.8438 18.8268 77.8402 18.8798 77.8269 18.9304L77.119 21.6277H76.4499L76.8095 20.2572Z" fill="#ED2324"/>
</g>
<defs>
<clipPath id="clip0_1801_9857">
<rect width="80" height="24.2789" fill="white"/>
</clipPath>
</defs>
</svg>
