<svg width="80" height="35" viewBox="0 0 80 35" fill="none" xmlns="http://www.w3.org/2000/svg">
<g clip-path="url(#clip0_1801_10951)">
<g clip-path="url(#clip1_1801_10951)">
<path d="M16.7987 20.9469H21.6152L20.5105 19.1311L16.7987 20.9469ZM19.6099 17.6533L14.604 9.42672L24.3083 2.35616e-07H16.6428C16.0416 -0.000271533 15.4642 0.234567 15.0339 0.65434L8.23547 7.29829L8.99911 2.35616e-07H2.07535L0.00740083 19.698C-0.0268464 20.0171 0.0766239 20.3363 0.298866 20.5745C0.521109 20.8128 0.819861 20.9491 1.1412 20.9491H6.79855L7.26926 16.5261L9.35689 14.5026L13.0294 20.3086C13.153 20.504 13.324 20.6649 13.5266 20.7764C13.7292 20.8879 13.9567 20.9463 14.1879 20.9462H16.798L18.1147 18.3208L19.6099 17.6533Z" fill="#2D2A70"/>
<path d="M23.7836 20.9469L33.1615 15.2458L34.3551 20.0871C34.4789 20.5935 34.9336 20.9491 35.4553 20.9491H41.5251L38.8145 11.8043L49.1396 5.52327L49.1834 5.10064L16.8066 20.9432L23.7836 20.9469ZM37.8439 8.52755L35.3125 0H29.3484C28.7378 0.000203567 28.1394 0.170117 27.6198 0.490767C27.1002 0.811416 26.68 1.27018 26.4061 1.81583L17.8814 18.7806L49.246 4.47181L49.2948 3.99089L37.8439 8.52755ZM27.7621 12.5184L29.8534 8.09327L30.405 6.87057C30.4705 6.72484 30.6221 6.6374 30.781 6.65197C30.9398 6.66654 31.0724 6.77949 31.1118 6.93396L32.0678 10.8126L27.7621 12.5184Z" fill="#ED6B23"/>
<path d="M45.4568 0C44.6432 0.00059186 43.8587 0.302264 43.2543 0.846884C42.65 1.3915 42.2686 2.14053 42.1836 2.94963L41.761 6.97622L49.2968 3.99162L49.7078 0H45.4568ZM40.2964 20.9469H47.5466L49.1351 5.52546L41.42 10.2202L40.2964 20.9469Z" fill="#2D2A70"/>
<path d="M35.8015 25.2358H39.0018C39.847 25.2358 40.4829 25.4576 40.9094 25.9011C41.3447 26.3446 41.522 26.922 41.4413 27.6331C41.3903 28.0849 41.2237 28.4864 40.9415 28.8376C40.6597 29.1806 40.3238 29.4147 39.9337 29.5401C40.3733 29.6489 40.7178 29.8956 40.967 30.2804C41.2259 30.6569 41.3255 31.1128 41.2657 31.6481C41.1831 32.3758 40.865 32.974 40.3112 33.4428C39.7574 33.9028 39.0664 34.1328 38.2381 34.1328H34.7988L35.8015 25.2358ZM37.0941 28.9127H38.3241C38.7176 28.9127 39.0382 28.8124 39.2859 28.6117C39.5347 28.4111 39.678 28.1391 39.7159 27.7956C39.7547 27.4527 39.6721 27.185 39.4681 26.9926C39.2738 26.792 38.9714 26.6917 38.5609 26.6917H37.3441L37.0941 28.9127ZM36.6686 32.6901H38.0749C38.4927 32.6901 38.8327 32.5898 39.095 32.3891C39.3612 32.1802 39.5143 31.8961 39.5541 31.5366C39.5944 31.1771 39.5099 30.8886 39.3005 30.6709C39.0989 30.4533 38.789 30.3445 38.3707 30.3445H36.9404L36.6686 32.6901Z" fill="#2093D1"/>
<path d="M41.9015 32.451C41.9607 31.924 42.1798 31.5013 42.5587 31.1832C42.9376 30.8655 43.404 30.6646 43.9578 30.5805L45.5025 30.3619C45.8168 30.3202 45.9881 30.1737 46.0162 29.9226C46.0425 29.6884 45.9696 29.4961 45.7976 29.3455C45.6388 29.1997 45.392 29.1269 45.0573 29.1269C44.7061 29.1269 44.4146 29.223 44.1829 29.4154C43.9604 29.6078 43.8205 29.8463 43.7632 30.131L42.3175 29.8176C42.4366 29.2823 42.7533 28.8097 43.2677 28.3997C43.7826 27.9897 44.4248 27.7847 45.1943 27.7847C46.1144 27.7847 46.767 28.0064 47.1522 28.4499C47.5384 28.8852 47.6929 29.4458 47.6157 30.1317L47.2732 33.1688C47.2319 33.537 47.2202 33.8632 47.2382 34.1474H45.708C45.6871 33.9628 45.6939 33.716 45.7284 33.407C45.2669 34.0177 44.6257 34.323 43.8047 34.323C43.1684 34.323 42.6746 34.1389 42.3234 33.7706C41.9799 33.4024 41.8366 32.9677 41.8935 32.4663L41.9015 32.451ZM44.3046 33.066C44.6981 33.066 45.0325 32.9572 45.308 32.7396C45.5926 32.5137 45.7639 32.1455 45.8217 31.6349L45.853 31.358L44.4358 31.5715C43.917 31.6468 43.6328 31.9062 43.5832 32.3497C43.5604 32.5504 43.6121 32.7218 43.7384 32.8642C43.8657 32.9983 44.0547 33.0653 44.3053 33.0653L44.3046 33.066Z" fill="#2093D1"/>
<path d="M50.6944 30.582L50.2936 34.1335H48.6177L49.3128 27.9595H50.9319L50.8459 28.7246C51.0548 28.4235 51.3317 28.1934 51.6766 28.0346C52.0166 27.8757 52.3688 27.7963 52.7332 27.7963C53.4609 27.7963 53.9872 28.0263 54.3122 28.4864C54.6459 28.9381 54.7722 29.5211 54.6911 30.2352L54.2539 34.1262H52.578L52.9838 30.5244C53.0251 30.1562 52.9625 29.8592 52.7958 29.6333C52.637 29.4074 52.3649 29.2945 51.9797 29.2945C51.6285 29.2945 51.3371 29.4159 51.1053 29.6588C50.8688 29.9017 50.7298 30.207 50.6885 30.5747L50.6944 30.582ZM62.6357 25.0471L61.738 33.0085C61.6918 33.4184 61.6666 33.7908 61.6622 34.1255H60.0686C60.0502 33.9166 60.056 33.6781 60.0861 33.4099C59.9146 33.6694 59.6652 33.8782 59.3378 34.0366C59.0186 34.1954 58.6582 34.2749 58.2564 34.2749C57.3782 34.2749 56.6888 33.9696 56.1885 33.3589C55.7027 32.7401 55.5101 31.9621 55.6107 31.025C55.7078 30.1132 56.0702 29.3476 56.6978 28.7283C57.3279 28.1094 58.0735 27.8 58.9348 27.8C59.8219 27.8 60.3747 28.055 60.5933 28.5651L60.9904 25.0383L62.6357 25.0471ZM57.2931 31.033C57.2319 31.5771 57.3257 32.008 57.5744 32.3257C57.8241 32.6351 58.1748 32.7899 58.6266 32.7899C59.0701 32.7899 59.4519 32.631 59.7721 32.3133C60.0927 31.9956 60.2833 31.5647 60.3441 31.0207C60.4043 30.4853 60.3091 30.0671 60.0584 29.7659C59.8087 29.4565 59.4621 29.3017 59.0186 29.3017C58.5751 29.3017 58.1896 29.4565 57.8622 29.7659C57.5431 30.0753 57.3536 30.498 57.2939 31.0338L57.2931 31.033Z" fill="#2093D1"/>
<path d="M62.9674 32.451C63.0267 31.924 63.2457 31.5013 63.6246 31.1832C64.0035 30.8655 64.4699 30.6646 65.0237 30.5805L66.5684 30.3619C66.8827 30.3202 67.054 30.1737 67.0822 29.9226C67.1084 29.6884 67.0355 29.4961 66.8636 29.3455C66.7047 29.1997 66.4579 29.1269 66.1232 29.1269C65.772 29.1269 65.4805 29.223 65.2488 29.4154C65.0263 29.6078 64.8864 29.8463 64.8291 30.131L63.3835 29.8176C63.5025 29.2823 63.8192 28.8097 64.3336 28.3997C64.8486 27.9897 65.4907 27.7847 66.2602 27.7847C67.1803 27.7847 67.8329 28.0064 68.2181 28.4499C68.6043 28.8852 68.7588 29.4458 68.6816 30.1317L68.3391 33.1688C68.2978 33.537 68.2861 33.8632 68.3041 34.1474H66.7739C66.753 33.9628 66.7598 33.716 66.7943 33.407C66.3328 34.0177 65.6916 34.323 64.8707 34.323C64.2343 34.323 63.7405 34.1389 63.3893 33.7706C63.0458 33.4024 62.9025 32.9677 62.9594 32.4663L62.9674 32.451ZM65.3705 33.066C65.764 33.066 66.0985 32.9572 66.3739 32.7396C66.6586 32.5137 66.8298 32.1455 66.8876 31.6349L66.9189 31.358L65.5017 31.5715C64.9829 31.6468 64.6987 31.9062 64.6491 32.3497C64.6263 32.5504 64.678 32.7218 64.8043 32.8642C64.9316 32.9983 65.1206 33.0653 65.3712 33.0653L65.3705 33.066Z" fill="#2093D1"/>
<path d="M74.1538 27.9333L73.9643 29.6151C73.8006 29.5811 73.6354 29.5641 73.4688 29.5641C72.9918 29.5641 72.5915 29.702 72.268 29.978C71.9449 30.2451 71.7487 30.6887 71.6792 31.3085L71.3615 34.1321H69.6929L70.388 27.9581H72.0071L71.9036 28.874C72.2777 28.2299 72.8995 27.9078 73.769 27.9078C73.8613 27.9078 73.99 27.9161 74.1552 27.9326L74.1538 27.9333Z" fill="#2093D1"/>
<path d="M74.2584 32.451C74.3177 31.924 74.5368 31.5013 74.9157 31.1832C75.2946 30.8655 75.7609 30.6646 76.3147 30.5805L77.8595 30.3619C78.1738 30.3202 78.345 30.1737 78.3732 29.9226C78.3994 29.6884 78.3265 29.4961 78.1546 29.3455C77.9957 29.1997 77.7489 29.1269 77.4142 29.1269C77.063 29.1269 76.7716 29.223 76.5398 29.4154C76.3174 29.6078 76.1775 29.8463 76.1201 30.131L74.6745 29.8176C74.7935 29.2823 75.1102 28.8097 75.6246 28.3997C76.1396 27.9897 76.7818 27.7847 77.5512 27.7847C78.4713 27.7847 79.1239 28.0064 79.5092 28.4499C79.8953 28.8852 80.0498 29.4458 79.9726 30.1317L79.6301 33.1688C79.5888 33.537 79.5772 33.8632 79.5951 34.1474H78.0649C78.0441 33.9628 78.0509 33.716 78.0853 33.407C77.6239 34.0177 76.9826 34.323 76.1617 34.323C75.5253 34.323 75.0315 34.1389 74.6803 33.7706C74.3369 33.4024 74.1936 32.9677 74.2504 32.4663L74.2584 32.451ZM76.6615 33.066C77.055 33.066 77.3895 32.9572 77.6649 32.7396C77.9496 32.5137 78.1208 32.1455 78.1786 31.6349L78.2099 31.358L76.7927 31.5715C76.2739 31.6468 75.9897 31.9062 75.9402 32.3497C75.9173 32.5504 75.9691 32.7218 76.0954 32.8642C76.2226 32.9983 76.4116 33.0653 76.6623 33.0653L76.6615 33.066Z" fill="#2093D1"/>
</g>
</g>
<defs>
<clipPath id="clip0_1801_10951">
<rect width="80" height="34.8185" fill="white"/>
</clipPath>
<clipPath id="clip1_1801_10951">
<rect width="80" height="34.8185" fill="white"/>
</clipPath>
</defs>
</svg>
