<svg width="80" height="29" viewBox="0 0 80 29" fill="none" xmlns="http://www.w3.org/2000/svg">
<g clip-path="url(#clip0_1801_10818)">
<path d="M14.0885 17.5685H18.1281L17.2016 16.0455L14.0885 17.5685ZM16.4463 14.8061L12.2477 7.90632L20.3869 1.97615e-07H13.9577C13.4535 -0.000227738 12.9692 0.196735 12.6083 0.548804L6.90638 6.12118L7.54685 1.97615e-07H1.7398L0.00538812 16.521C-0.0233354 16.7886 0.0634464 17.0563 0.249844 17.2562C0.436241 17.456 0.686809 17.5703 0.956321 17.5703H5.70121L6.096 13.8607L7.84692 12.1635L10.9271 17.0331C11.0307 17.197 11.1742 17.332 11.3441 17.4255C11.514 17.519 11.7048 17.568 11.8988 17.5678L14.0885 17.5685L15.1922 15.3659L16.4463 14.8061Z" fill="#2D2A70"/>
<path d="M19.9469 17.5685L27.8122 12.7869L28.8133 16.8473C28.9172 17.2721 29.2985 17.5703 29.7361 17.5703H34.8269L32.5535 9.90048L41.2133 4.63245L41.25 4.27799L14.0952 17.5654L19.9469 17.5685ZM31.7394 7.15218L29.6163 3.8147e-06H24.6142C24.1021 0.000174549 23.6001 0.142683 23.1643 0.411617C22.7286 0.68055 22.3761 1.06532 22.1464 1.52297L14.9966 15.7515L41.3025 3.75057L41.3435 3.34722L31.7394 7.15218ZM23.2837 10.4994L25.0377 6.78794L25.5003 5.76245C25.5553 5.64022 25.6824 5.56688 25.8157 5.5791C25.9489 5.59133 26.0601 5.68605 26.0931 5.81561L26.8949 9.06872L23.2837 10.4994Z" fill="#ED6B23"/>
<path d="M38.1245 3.8147e-06C37.4422 0.000500216 36.7842 0.253516 36.2773 0.710297C35.7704 1.16708 35.4505 1.7953 35.3793 2.4739L35.0248 5.85106L41.3452 3.34783L41.6899 3.8147e-06H38.1245ZM33.7964 17.5685H39.8772L41.2095 4.63428L34.7388 8.57186L33.7964 17.5685Z" fill="#2D2A70"/>
<path d="M32.5467 28.7859C31.4732 28.7859 30.6082 28.428 29.9518 27.7122C29.3 26.9963 29.0351 26.0596 29.1574 24.9021C29.2869 23.7516 29.7642 22.8149 30.5893 22.0921C31.4216 21.3693 32.3587 21.0079 33.4005 21.0079C34.3547 21.0079 35.0921 21.25 35.6128 21.734C36.1409 22.218 36.4505 22.8006 36.5418 23.4818L35.1251 23.9133C35.0673 23.4924 34.8839 23.138 34.5751 22.8499C34.2716 22.5554 33.825 22.4081 33.2355 22.4081C32.6252 22.4081 32.0639 22.6256 31.5518 23.0608C31.0466 23.4959 30.7492 24.1099 30.6595 24.9027C30.5781 25.6606 30.7349 26.2605 31.1301 26.7026C31.5363 27.1446 32.0589 27.3656 32.6977 27.3656C33.2803 27.3656 33.7605 27.2149 34.1381 26.9134C34.5232 26.6119 34.7986 26.254 34.9644 25.8396L36.2759 26.2503C36.1647 26.5518 36.0052 26.8466 35.7974 27.1346C35.5965 27.4223 35.3452 27.6924 35.0432 27.945C34.7418 28.1976 34.3714 28.4013 33.9322 28.5561C33.5003 28.711 33.0354 28.7884 32.5376 28.7884L32.5467 28.7859ZM38.3177 27.1224C38.5479 27.3819 38.8454 27.5117 39.21 27.5117C39.5751 27.5117 39.8983 27.3819 40.1799 27.1224C40.4651 26.8629 40.6356 26.5015 40.6914 26.0382C40.7435 25.575 40.6545 25.2136 40.4243 24.9541C40.2011 24.6946 39.9069 24.5648 39.5418 24.5648C39.1768 24.5648 38.8498 24.6946 38.561 24.9541C38.279 25.2136 38.112 25.575 38.0598 26.0382C38.0077 26.5015 38.0932 26.8629 38.3165 27.1224H38.3177ZM37.6455 24.0704C38.2232 23.5513 38.9016 23.2918 39.6806 23.2918C40.4596 23.2918 41.0758 23.5513 41.5293 24.0704C41.9897 24.5894 42.1755 25.2454 42.0866 26.0382C41.997 26.8311 41.6635 27.4871 41.0862 28.0061C40.5158 28.5252 39.8411 28.7847 39.0621 28.7847C38.2831 28.7847 37.6632 28.5252 37.2024 28.0061C36.7485 27.4871 36.5662 26.8311 36.6554 26.0382C36.7451 25.2454 37.0751 24.5894 37.6455 24.0704Z" fill="#ED1C24"/>
<path d="M44.1083 28.6276H42.7088L43.2918 23.4495H44.6284L44.5575 24.0808C44.7176 23.842 44.9494 23.6526 45.2529 23.5124C45.5565 23.3722 45.859 23.3022 46.1605 23.3022C46.9114 23.3022 47.3911 23.5898 47.5997 24.1651C48.0365 23.5898 48.6162 23.3022 49.339 23.3022C49.8654 23.3022 50.2891 23.4672 50.6102 23.7972C50.9378 24.1272 51.0649 24.6182 50.9915 25.27L50.6126 28.6276H49.2547L49.6006 25.5536C49.6332 25.259 49.5823 25.024 49.4478 24.8484C49.3215 24.6658 49.1035 24.5746 48.7939 24.5746C48.5062 24.5746 48.2638 24.6728 48.0666 24.8691C47.869 25.0655 47.7541 25.3075 47.7219 25.5952L47.3797 28.6264H45.9906L46.3365 25.5524C46.3691 25.2578 46.3182 25.0227 46.1837 24.8471C46.0501 24.6646 45.8321 24.5733 45.5298 24.5733C45.2352 24.5733 44.9891 24.6715 44.7915 24.8679C44.5947 25.0574 44.4799 25.2994 44.4468 25.5939L44.1083 28.6276Z" fill="#ED1C24"/>
<path d="M53.243 28.6276H51.8435L52.4265 23.4495H53.7631L53.6922 24.0808C53.8523 23.842 54.0841 23.6526 54.3876 23.5124C54.6912 23.3722 54.9937 23.3022 55.2952 23.3022C56.0461 23.3022 56.5258 23.5898 56.7344 24.1651C57.1712 23.5898 57.751 23.3022 58.4737 23.3022C59.0001 23.3022 59.4238 23.4672 59.7449 23.7972C60.0725 24.1272 60.1996 24.6182 60.1262 25.27L59.7473 28.6276H58.3894L58.7353 25.5536C58.7679 25.259 58.717 25.024 58.5825 24.8484C58.4562 24.6658 58.2382 24.5746 57.9286 24.5746C57.6409 24.5746 57.3985 24.6728 57.2013 24.8691C57.0037 25.0655 56.8888 25.3075 56.8566 25.5952L56.5144 28.6264H55.1253L55.4712 25.5524C55.5038 25.2578 55.4529 25.0227 55.3184 24.8471C55.1848 24.6646 54.9668 24.5733 54.6645 24.5733C54.3699 24.5733 54.1238 24.6715 53.9262 24.8679C53.7294 25.0574 53.6146 25.2994 53.5816 25.5939L53.243 28.6276Z" fill="#ED1C24"/>
<path d="M64.3248 28.6276C64.3126 28.4875 64.3195 28.3015 64.3456 28.0697C64.1826 28.3011 63.9626 28.4763 63.6855 28.5953C63.4134 28.7077 63.1298 28.7639 62.8348 28.7639C62.2245 28.7639 61.7655 28.571 61.4579 28.1852C61.1511 27.7924 61.0305 27.3047 61.0961 26.7221L61.4646 23.4488H62.8703L62.5341 26.4434C62.4995 26.7523 62.5517 27.0049 62.6906 27.2012C62.8307 27.3907 63.0552 27.4854 63.3641 27.4854C63.6656 27.4854 63.9145 27.3942 64.1109 27.2116C64.3077 27.0222 64.4234 26.773 64.458 26.4642L64.7972 23.4537H66.2028L65.7249 27.695C65.6842 28.021 65.6664 28.3333 65.6717 28.6319L64.3248 28.6276ZM69.396 21.902L69.2218 23.4495H70.2638L70.1233 24.6913H69.0813L68.8368 26.8596C68.8124 27.0772 68.8442 27.2316 68.9322 27.3229C69.0202 27.4141 69.1695 27.4598 69.3801 27.4598C69.5696 27.4598 69.715 27.4455 69.8165 27.417L69.6863 28.5745C69.4732 28.6588 69.2053 28.701 68.8827 28.701C68.3774 28.701 67.9932 28.5584 67.73 28.2732C67.4677 27.9855 67.3646 27.5924 67.4208 27.0937L67.6922 24.6833H66.7553L66.8958 23.4415H67.1586C67.4182 23.4415 67.6229 23.3678 67.7728 23.2203C67.9305 23.0655 68.0232 22.8654 68.0509 22.6201L68.1328 21.8941L69.396 21.902ZM72.0056 25.4491H74.3279C74.3462 25.1615 74.2682 24.9194 74.0938 24.7231C73.9309 24.5267 73.6614 24.4285 73.2853 24.4285C72.9484 24.4285 72.6628 24.5338 72.4285 24.7445C72.1942 24.9551 72.0557 25.1902 72.0129 25.4497L72.0056 25.4491ZM74.3065 26.7961L75.4359 27.1432C75.242 27.6199 74.9205 28.013 74.4715 28.3227C74.0299 28.6315 73.5037 28.7859 72.893 28.7859C72.149 28.7859 71.5456 28.5368 71.0828 28.0385C70.6203 27.5333 70.4366 26.8596 70.5315 26.0175C70.6211 25.2177 70.9471 24.5652 71.5093 24.06C72.0724 23.5478 72.6978 23.2918 73.3855 23.2918C74.1853 23.2918 74.783 23.5301 75.1786 24.0068C75.5812 24.4835 75.7354 25.1395 75.6413 25.9747C75.6347 26.0309 75.6241 26.092 75.6095 26.158C75.6013 26.2281 75.5952 26.2843 75.5911 26.3267L75.5728 26.4H71.8681C71.8436 26.737 71.9455 27.0177 72.1736 27.2422C72.401 27.4663 72.6903 27.5783 73.0415 27.5783C73.6379 27.5783 74.0604 27.3151 74.309 26.7887L74.3065 26.7961ZM79.9993 23.4287L79.8404 24.8392C79.7031 24.8107 79.5646 24.7964 79.4248 24.7964C79.0247 24.7964 78.689 24.9121 78.4177 25.1435C78.1467 25.3676 77.9821 25.7396 77.9239 26.2595L77.6574 28.6276H76.2518L76.8348 23.4495H78.1928L78.106 24.2177C78.4197 23.6774 78.9412 23.4073 79.6705 23.4073C79.752 23.4073 79.8599 23.4142 79.9944 23.4281L79.9993 23.4287Z" fill="#ED1C24"/>
</g>
<defs>
<clipPath id="clip0_1801_10818">
<rect width="79.9993" height="28.7884" fill="white"/>
</clipPath>
</defs>
</svg>
