<svg width="81" height="34" viewBox="0 0 81 34" fill="none" xmlns="http://www.w3.org/2000/svg">
<g clip-path="url(#clip0_1801_10912)">
<path d="M27.0388 33.7165H34.7907L33.0129 30.7932L27.0388 33.7165ZM31.5635 28.4155L23.5048 15.1754L39.1281 5.51563e-07H26.7864C25.8188 -0.000527032 24.8895 0.377449 24.197 1.05313L13.2531 11.7473L14.4854 5.51563e-07H3.34062L0.0102247 31.7052C-0.0168215 31.9594 0.00993539 32.2164 0.0887553 32.4595C0.167575 32.7027 0.296693 32.9265 0.467711 33.1165C0.63873 33.3064 0.847819 33.4583 1.08138 33.5621C1.31494 33.666 1.56774 33.7195 1.82335 33.7192H10.9433L11.7005 26.5997L15.0608 23.3426L20.9724 32.6878C21.1715 33.0021 21.4469 33.261 21.7729 33.4404C22.0989 33.6198 22.465 33.7138 22.8371 33.7138H27.0388L29.1586 29.4877L31.5635 28.4155Z" fill="#2D2A70"/>
<path d="M38.2812 33.7165L53.3752 24.5396L55.2969 32.3322C55.3941 32.7281 55.6213 33.0799 55.9422 33.3314C56.263 33.5828 56.659 33.7194 57.0666 33.7192H66.8379L62.4734 18.9998L79.0955 8.8919L79.1661 8.21334L27.0524 33.7138L38.2812 33.7165ZM60.9127 13.726L56.8386 1.93916e-06H47.2383C46.2554 -4.79842e-05 45.2918 0.273339 44.4553 0.789591C43.6189 1.30584 42.9425 2.0446 42.5019 2.92325L28.7813 30.2287L79.2665 7.1982L79.3452 6.42464L60.9127 13.726ZM44.6869 20.1506L48.0526 13.0284L48.9401 11.0606C48.9922 10.9466 49.0784 10.8516 49.1868 10.7887C49.2952 10.7258 49.4205 10.6981 49.5453 10.7094C49.6701 10.7207 49.7883 10.7705 49.8836 10.8519C49.979 10.9333 50.0467 11.0422 50.0774 11.1637L51.6164 17.4065L44.6869 20.1506Z" fill="#ED6B23"/>
<path d="M73.1676 1.93232e-06C71.858 0.00028084 70.5949 0.485558 69.622 1.36221C68.6491 2.23885 68.0354 3.44475 67.8992 4.74723L67.2206 11.2289L79.3507 6.42464L80.0102 1.93232e-06H73.1676ZM64.862 33.7165H76.5333L79.0901 8.89461L66.6724 16.4511L64.862 33.7165Z" fill="#2D2A70"/>
</g>
<defs>
<clipPath id="clip0_1801_10912">
<rect width="80.0102" height="33.7192" fill="white"/>
</clipPath>
</defs>
</svg>
