<svg width="80" height="20" viewBox="0 0 80 20" fill="none" xmlns="http://www.w3.org/2000/svg">
<g clip-path="url(#clip0_1801_11029)">
<path d="M3.23702 15.1734C3.8242 15.1734 4.35455 15.1658 4.8868 15.1809C4.96635 15.1828 5.06106 15.2738 5.11977 15.3457C6.01759 16.4917 7.12186 17.3649 8.48183 17.9047C10.054 18.5279 11.6753 18.6491 13.3156 18.2778C16.0829 17.6528 18.2043 16.1507 19.4753 13.5709C20.0757 12.353 20.2879 11.048 20.1894 9.69558C20.1629 9.33948 20.1079 8.98339 20.0587 8.57236C15.6056 11.1484 10.8514 12.2129 5.77703 11.8587C6.83395 11.6749 7.89466 11.5158 8.94589 11.2999C11.8988 10.6938 14.7059 9.71641 17.2232 8.01171C18.3009 7.28058 19.2821 6.4358 20.161 5.47548C20.2197 5.41297 20.2784 5.35047 20.375 5.24629C20.5512 5.62512 20.7254 5.97174 20.8769 6.32973C21.3921 7.55333 21.6706 8.83186 21.6497 10.1615C21.6119 12.6296 20.7046 14.7567 19.034 16.5599C17.71 17.9899 16.1076 18.9862 14.221 19.5052C11.4537 20.2667 8.86066 19.8556 6.44944 18.3138C5.22774 17.5316 4.22386 16.5144 3.35635 15.3571C3.32604 15.3173 3.30142 15.2719 3.23891 15.1753" fill="#EF3B39"/>
<path d="M16.9126 1.50919C16.9296 1.52056 16.8652 1.59632 16.7705 1.67966C16.636 1.78384 16.2742 2.09826 15.9655 2.38049C15.8954 2.43352 15.7534 2.43163 15.6454 2.37481C15.0847 2.00735 13.8214 1.58496 12.8251 1.43153C11.4916 0.992099 9.04818 1.45805 7.37189 2.46951C5.30162 3.27641 3.39803 6.34488 3.1177 9.32244C3.1177 9.79407 3.12338 10.7601 3.13096 11.4779C3.13096 11.5537 3.13853 11.6295 3.14043 11.6825C3.14043 11.7109 3.05898 11.7355 2.95291 11.7355C2.80896 11.7507 2.39604 11.745 2.03237 11.7261C1.96229 11.6901 1.89031 11.5935 1.87326 11.5101C1.67059 10.8529 1.62135 9.50238 1.7634 8.49281C1.75772 7.1442 2.78623 4.86557 4.05718 3.40331C5.11599 1.58875 8.33031 0.0696624 11.234 0.014733C12.5675 -0.106491 15.0658 0.533722 16.8141 1.4429C16.8501 1.46184 16.8823 1.48836 16.9126 1.50919Z" fill="#BA8039"/>
<path d="M63.4949 10.4589C63.3586 9.59898 63.226 8.76935 63.0934 7.92647C62.6009 8.76746 62.1122 9.59708 61.6084 10.4589H63.4968H63.4949ZM56.5928 7.2408C56.3977 8.09315 56.2139 8.90005 56.0132 9.7846C56.3863 9.48533 56.7026 9.23341 57.0171 8.9796C57.6914 8.43599 58.3619 7.88669 59.04 7.34876C59.1138 7.29005 59.2199 7.25027 59.3146 7.24459C59.5968 7.23133 59.8791 7.2389 60.1897 7.29005C59.3203 7.98708 58.4509 8.68412 57.5626 9.3982C58.2047 10.4248 58.8373 11.4363 59.4965 12.4913C59.7578 12.0746 59.9965 11.6958 60.2333 11.315C61.0212 10.0403 61.813 8.76746 62.5914 7.48514C62.7127 7.28626 62.849 7.23322 63.0688 7.23701C63.6522 7.25027 63.6654 7.2389 63.7677 7.79578C64.0367 9.25993 64.2924 10.7279 64.5519 12.192C64.5689 12.2924 64.5897 12.3909 64.6106 12.5102H63.8719C63.7942 12.0916 63.709 11.6825 63.6484 11.2696C63.62 11.0802 63.5556 11.0082 63.3548 11.012C62.7184 11.0252 62.0819 11.0101 61.4455 11.0234C61.3489 11.0252 61.2182 11.0972 61.1652 11.1787C60.9038 11.5708 60.6708 11.9799 60.4132 12.3739C60.3678 12.4439 60.2636 12.5159 60.184 12.5197C59.7294 12.533 59.2729 12.533 58.8165 12.5197C58.735 12.5178 58.6271 12.4496 58.5816 12.3795C58.0872 11.5992 57.6023 10.8093 57.1137 10.0252C57.0815 9.97401 57.0417 9.93045 56.9849 9.85468C56.5947 10.1691 56.195 10.4646 55.8332 10.7998C55.7253 10.9002 55.7101 11.1105 55.6703 11.2734C55.5718 11.6806 55.4847 12.0897 55.3881 12.5102H54.6286C54.7195 12.0992 54.8028 11.6996 54.8937 11.3037C55.1817 10.0365 55.4752 8.76935 55.7575 7.50029C55.8029 7.29383 55.8882 7.21049 56.1022 7.23701C56.2537 7.25595 56.409 7.2408 56.5947 7.2408" fill="#343333"/>
<path d="M0 13.0444C6.00814 13.8361 11.9102 13.6126 17.6134 11.209C17.8142 11.5423 18.015 11.8681 18.2101 12.1977C18.407 12.5273 18.5984 12.8588 18.8124 13.2205C12.5031 14.6051 6.24491 14.6752 0 13.0444Z" fill="#EF3B39"/>
<path d="M10.1736 9.59708C10.0069 9.6558 10.0922 9.56109 10.363 9.38494C10.7494 9.1728 11.7969 8.48902 12.706 7.86018C14.1361 7.09306 16.4318 4.87883 17.8315 2.91463C18.0342 2.59074 18.4623 1.93537 18.7881 1.45048C18.8449 1.35388 18.9547 1.2819 19.0324 1.28948C19.5438 1.33683 20.5875 1.441 21.3641 1.52056C21.3963 1.52435 21.4266 1.5395 21.4663 1.55276C21.4891 1.56033 21.4398 1.66262 21.3565 1.78195C21.2599 1.95621 20.9341 2.42216 20.6329 2.82371C19.5476 4.49054 16.5189 6.86387 13.869 8.12346C13.3728 8.35454 12.3443 8.79019 11.5715 9.09893C11.0316 9.31486 10.4748 9.48912 10.1755 9.59519" fill="#BA8039"/>
<path d="M34.2024 9.58004C34.7896 9.55162 35.3464 9.54973 35.8976 9.48344C36.1192 9.45692 36.3446 9.32054 36.5303 9.18417C36.7613 9.0118 36.8295 8.74473 36.7386 8.46819C36.6477 8.19354 36.4015 8.14808 36.1533 8.14429C35.6741 8.13482 35.193 8.1424 34.7138 8.13482C34.5717 8.13293 34.5244 8.19543 34.496 8.32613C34.4107 8.72579 34.3123 9.12166 34.2043 9.58382M32.3462 12.5178C32.7534 10.7411 33.1531 9.00043 33.5546 7.25406C34.5623 7.25406 35.5491 7.25027 36.5359 7.25785C36.6799 7.25785 36.822 7.31088 36.964 7.33361C37.7292 7.45673 38.0645 8.19354 37.9452 8.89058C37.8239 9.59898 37.3542 10.0574 36.642 10.2051C36.517 10.2316 36.3901 10.2543 36.2727 10.2771C36.4962 10.6313 36.7348 10.9779 36.9394 11.3454C37.1459 11.7166 37.3163 12.1068 37.5152 12.5178H36.2575C36.0132 11.9931 35.7764 11.4817 35.5377 10.9703C35.3294 10.5252 34.9903 10.3055 34.4884 10.3585C34.4126 10.3661 34.3331 10.368 34.2573 10.3585C34.0793 10.3358 34.0111 10.3983 33.9732 10.5858C33.8425 11.2298 33.6834 11.8681 33.5338 12.5178H32.3462Z" fill="#343333"/>
<path d="M67.2548 7.83934C67.1203 8.43409 66.9915 9.00612 66.857 9.59708C67.5749 9.59708 68.2643 9.63118 68.9462 9.58193C69.2531 9.5592 69.5713 9.40578 69.8402 9.24099C70.1528 9.04968 70.255 8.62161 70.149 8.27688C70.0486 7.95109 69.7796 7.8507 69.4879 7.84502C68.7492 7.82987 68.0124 7.83934 67.2529 7.83934M66.1619 12.5159H65.4175C65.5141 12.0935 65.605 11.6882 65.6978 11.2828C65.9895 10.0176 66.2831 8.75041 66.5691 7.48325C66.6089 7.30709 66.6714 7.23322 66.8703 7.23512C67.6772 7.24837 68.4859 7.23512 69.2947 7.24269C69.4993 7.24459 69.7076 7.26353 69.9084 7.3052C70.8896 7.50787 71.2684 8.61782 70.6377 9.40767C70.2986 9.83385 69.8251 9.98917 69.325 10.099C69.2341 10.1199 69.1432 10.1388 69.0163 10.1672C69.8099 10.7752 70.0618 11.673 70.471 12.5254C70.1982 12.5254 69.9596 12.5386 69.7228 12.5178C69.6565 12.5121 69.5732 12.4231 69.5391 12.353C69.325 11.906 69.1299 11.4495 68.9159 11.0025C68.842 10.8491 68.736 10.7127 68.6375 10.5726C68.4556 10.3168 68.2056 10.1899 67.8893 10.1937C67.5616 10.1956 67.2358 10.2013 66.91 10.188C66.7547 10.1824 66.696 10.2487 66.6657 10.385C66.5104 11.0688 66.3532 11.7507 66.1941 12.4326C66.1884 12.4572 66.1751 12.478 66.16 12.514" fill="#343333"/>
<path d="M40.3299 8.13672H38.6441C38.7066 7.84502 38.7483 7.58363 38.824 7.33361C38.8392 7.28436 38.9737 7.24459 39.0532 7.24459C40.112 7.2389 41.169 7.2408 42.2278 7.2408H43.3927C43.3548 7.37907 43.3245 7.48135 43.2998 7.58742C43.2563 7.75979 43.2714 8.01549 43.1635 8.08558C43.0233 8.17839 42.7865 8.13103 42.5896 8.13293C42.3054 8.13672 42.0213 8.14051 41.7391 8.13293C41.5838 8.12725 41.5099 8.17649 41.4739 8.3356C41.2542 9.32812 41.0231 10.3187 40.7977 11.3113C40.7068 11.7109 40.614 12.1087 40.5212 12.5159H39.3373C39.6688 11.0631 39.9965 9.61981 40.3337 8.13672" fill="#343333"/>
<path d="M52.725 10.4551C52.5943 9.61413 52.4655 8.78451 52.331 7.92079C51.831 8.77125 51.3461 9.59708 50.8422 10.4551H52.725ZM48.7132 12.5273C49.1697 11.7886 49.5978 11.0896 50.0297 10.3945C50.6187 9.43987 51.2173 8.49092 51.7969 7.53249C51.9257 7.31846 52.0601 7.22375 52.3215 7.23512C52.8879 7.25974 52.886 7.24269 52.9902 7.81472C53.2497 9.23531 53.5148 10.6559 53.7743 12.0765C53.8008 12.2166 53.8103 12.3606 53.8274 12.497C53.8065 12.5121 53.7989 12.5197 53.7914 12.5197C53.0981 12.5822 53.1019 12.5822 52.9977 11.8871C52.9561 11.6086 52.8879 11.3359 52.8273 11.0385C52.7553 11.0328 52.6814 11.0215 52.6057 11.0215C51.9692 11.0215 51.3328 11.0271 50.6983 11.0158C50.5392 11.0139 50.4464 11.065 50.3687 11.1976C50.1433 11.5802 49.899 11.9534 49.6811 12.3398C49.6035 12.478 49.5239 12.5424 49.3629 12.5311C49.1659 12.5178 48.9689 12.5273 48.7151 12.5273" fill="#343333"/>
<path d="M77.0114 10.4456H78.8922C78.7596 9.61034 78.629 8.7864 78.4926 7.92647C77.9887 8.7845 77.5095 9.59898 77.0114 10.4456ZM80.0022 12.5159H79.2729C79.182 12.0197 79.0911 11.5348 78.9964 11.0196H77.2235C76.8283 11.0196 76.5303 11.1881 76.3295 11.5253C76.1628 11.8056 76.0075 12.0916 75.8257 12.3606C75.7707 12.4421 75.6495 12.5102 75.5491 12.5216C75.3464 12.5462 75.1381 12.5292 74.8843 12.5292C75.0642 12.2318 75.2233 11.9628 75.3881 11.6977C76.2708 10.2714 77.1553 8.84512 78.0342 7.41695C78.11 7.29383 78.1895 7.22565 78.3391 7.2408C78.4661 7.25406 78.5986 7.25974 78.7256 7.2408C78.9964 7.19723 79.0911 7.3052 79.1385 7.57227C79.4055 9.12924 79.6934 10.6843 79.9738 12.2413C79.9889 12.3246 79.9908 12.4098 80.0022 12.5178" fill="#343333"/>
<path d="M29.8174 7.2408C29.4784 8.71821 29.1488 10.1615 28.8098 11.6465H31.7456C31.6774 11.9628 31.6187 12.2356 31.5581 12.514H27.4233C27.5047 12.156 27.5805 11.8151 27.6581 11.4761C27.965 10.1445 28.2756 8.81292 28.5749 7.48135C28.6147 7.30141 28.6847 7.22565 28.8798 7.23701C29.1772 7.25595 29.4765 7.24269 29.8155 7.24269" fill="#343333"/>
<path d="M76.2991 7.83744C75.7726 7.83744 75.2668 7.8507 74.7611 7.83176C74.513 7.82229 74.4069 7.89048 74.3501 8.14429C74.0432 9.54594 73.7156 10.9457 73.3954 12.3436C73.3841 12.3928 73.3689 12.442 73.3519 12.5083H72.5904C72.9465 10.9533 73.2988 9.41146 73.6587 7.83934H71.7362C71.7684 7.66319 71.7854 7.51166 71.829 7.3677C71.8461 7.31467 71.9313 7.24648 71.9862 7.24648C73.4561 7.2389 74.924 7.2408 76.4374 7.2408C76.39 7.44726 76.3484 7.6253 76.301 7.83555" fill="#343333"/>
<path d="M45.8512 10.9419C45.8512 11.0404 45.8587 11.101 45.8512 11.1578C45.7849 11.5689 45.8928 11.8321 46.1826 11.9572C46.5728 12.1257 47.0956 12.0367 47.2642 11.7014C47.4365 11.3567 47.5426 10.9722 47.6335 10.5953C47.8873 9.54026 48.1203 8.47955 48.3571 7.41885C48.3874 7.28436 48.448 7.23322 48.5844 7.2408C48.77 7.25027 48.9556 7.24269 49.164 7.24269C49.0314 7.84502 48.9102 8.41136 48.7795 8.97392C48.6033 9.73914 48.4101 10.5006 48.2397 11.2677C47.9214 12.6959 46.5255 12.8569 45.6352 12.4193C45.1106 12.1617 45.031 11.5575 45.1636 11.0783C45.1769 11.0347 45.2602 10.9874 45.3151 10.9798C45.4837 10.9571 45.6542 10.9552 45.8512 10.9419Z" fill="#343333"/>
</g>
<defs>
<clipPath id="clip0_1801_11029">
<rect width="80.0022" height="19.8775" fill="white"/>
</clipPath>
</defs>
</svg>
