<svg width="80" height="47" viewBox="0 0 80 47" fill="none" xmlns="http://www.w3.org/2000/svg">
<g clip-path="url(#clip0_1801_10702)">
<path d="M47.8164 28.8955H57.5636L63.0809 9.91677C64.92 3.9325 60.3222 0 54.2532 0C45.7934 0 41.0118 4.61644 38.9888 11.1136C38.8049 11.6266 31.0807 37.4444 31.0807 37.4444C30.529 38.6413 30.1612 39.6672 28.1382 39.6672C26.8508 39.6672 25.7473 38.6413 26.1151 37.4444L34.2071 9.91677C35.8623 4.27446 30.8968 0 25.3795 0C16.5519 0 12.3219 4.10348 10.4829 9.91677L0 45.3095H9.37938L20.0462 9.23286C20.414 8.03601 21.3335 7.01015 22.9887 7.01015C24.276 7.01015 25.0117 8.03601 24.6439 9.23286L16.7358 35.5636C14.8967 41.7189 19.1266 46.6773 25.3795 46.6773C33.4715 46.8482 38.0692 44.4545 40.644 35.5636L48.5521 9.23286C48.9199 8.03601 49.8394 7.01015 51.4946 7.01015C52.782 7.01015 53.5176 8.03601 53.1498 9.23286L47.8164 28.8955Z" fill="#0056B8"/>
<path d="M79.6328 1.02572H70.4373L59.7706 37.1023C59.2189 38.2992 58.8511 38.9831 56.8281 38.9831C55.7246 38.9831 54.8051 38.1282 55.1729 37.1023L56.8281 31.631H47.0809L45.9774 35.5635C43.7705 42.9156 48.0004 46.6772 54.6212 46.6772C64.0006 46.6772 67.8626 41.7188 69.5178 35.5635C69.3339 35.5635 79.6328 1.02572 79.6328 1.02572Z" fill="#45BB3C"/>
</g>
<defs>
<clipPath id="clip0_1801_10702">
<rect width="79.6328" height="46.6857" fill="white"/>
</clipPath>
</defs>
</svg>
