<svg width="80" height="15" viewBox="0 0 80 15" fill="none" xmlns="http://www.w3.org/2000/svg">
<g clip-path="url(#clip0_1801_10800)">
<g clip-path="url(#clip1_1801_10800)">
<path fill-rule="evenodd" clip-rule="evenodd" d="M37.6446 0.278198H38.8587C39.4773 0.278198 39.8749 0.763649 39.7196 1.35216L39.5439 2.01479H37.1841L37.6446 0.278198Z" fill="#1E468E"/>
<path fill-rule="evenodd" clip-rule="evenodd" d="M61.3447 11.0133L62.4238 6.985C62.962 4.97449 64.3324 3.43769 66.4601 2.92783C67.1786 2.75607 67.8943 2.70996 68.6276 2.70996L68.0349 4.92568H67.2563C65.9876 4.92568 65.1711 5.53498 64.8484 6.73731L63.7045 11.0133H61.3447Z" fill="#1E468E"/>
<path fill-rule="evenodd" clip-rule="evenodd" d="M58.4225 7.23458C59.018 7.10983 59.4933 6.97694 59.8456 6.83049L59.6366 7.61065C59.4804 8.19373 59.1789 8.65025 58.7314 8.98202C58.282 9.3156 57.7438 9.48375 57.1122 9.48375C56.7303 9.48375 56.4612 9.40058 56.3022 9.23334C56.1505 9.04621 56.1163 8.79761 56.2014 8.48482C56.3836 7.79958 56.9559 7.54827 57.6069 7.39278C57.606 7.39188 57.876 7.33944 58.4225 7.23458ZM58.1442 4.36436C58.4133 4.28119 58.7073 4.23871 59.0217 4.23871C59.4822 4.23871 60.4874 4.3056 60.3043 4.98722C60.1924 5.40487 59.6255 5.67427 58.6028 5.79902C57.4645 5.91564 56.3216 6.09644 55.3183 6.67319C54.6673 7.04926 54.2244 7.67212 53.9895 8.54629C53.7389 9.48375 53.861 10.1545 54.3594 10.5613C54.8578 10.9681 55.5116 11.1706 56.3188 11.1706C56.7248 11.1706 57.1991 11.1444 57.7419 11.0929C58.282 11.0395 58.8211 10.8985 59.3546 10.6689C59.8586 10.4619 60.3375 10.1229 60.7888 9.65551C61.2382 9.18904 61.5785 8.53635 61.8004 7.70466L62.5614 4.86157C62.763 4.11305 62.5929 3.52906 62.051 3.11322C61.5304 2.71636 60.639 2.51929 59.3796 2.51929C58.2561 2.51929 57.3258 2.75975 56.5907 3.23616C55.9369 3.65381 55.482 4.18537 55.2203 4.82902H57.4793C57.655 4.60031 57.8732 4.44482 58.1442 4.36436Z" fill="#1E468E"/>
<path fill-rule="evenodd" clip-rule="evenodd" d="M34.4729 12.2428C35.3116 9.07697 36.1503 5.90933 36.989 2.7417H38.2041C38.8199 2.7417 39.2212 3.22534 39.0659 3.81475C38.291 6.73921 37.5142 9.66548 36.7412 12.5908C36.2789 14.3392 34.8123 14.6438 33.1645 14.6438H0.319336C0.866755 12.5836 2.78087 12.8114 3.30702 12.8114H33.748C34.1289 12.8114 34.3657 12.674 34.4794 12.2428" fill="#1E468E"/>
<path fill-rule="evenodd" clip-rule="evenodd" d="M4.90139 11.0132L3.01594 11.0078C1.87949 11.0042 1.3108 10.6408 1.6104 9.45202L4.06824 0.276367H5.28236C5.88064 0.276367 6.26254 0.77357 6.11181 1.33586L5.73639 2.74069H7.11788L6.99952 3.17732C6.9163 3.4892 6.73598 3.74413 6.45765 3.94482C6.18024 4.14189 5.88341 4.24043 5.56994 4.24043H5.33322L4.09505 8.86261C4.00073 9.21788 4.1792 9.39236 4.62675 9.39236H5.33507L4.90139 11.0132Z" fill="#3381C3"/>
<path fill-rule="evenodd" clip-rule="evenodd" d="M49.1943 5.77006L52.8783 2.71181H55.7106L51.6558 5.89481L53.5219 11.0151H50.6895L49.7907 8.20455C49.6012 7.64225 49.3746 7.4054 49.1046 7.48767C48.8355 7.57084 48.6783 7.69559 48.6339 7.86102L47.7888 11.0151H45.4308L48.3066 0.275513H49.5207C50.1042 0.275513 50.5444 0.730227 50.3899 1.30698C49.9914 2.79317 49.5929 4.28116 49.1943 5.76825M42.6188 7.23545C43.2134 7.1107 43.6896 6.97781 44.0419 6.83136L43.832 7.61152C43.6767 8.1946 43.3752 8.65112 42.9267 8.98289C42.4783 9.31647 41.9382 9.48462 41.3085 9.48462C40.9257 9.48462 40.6566 9.40145 40.4966 9.23421C40.3459 9.04708 40.3135 8.79848 40.3958 8.48569C40.5798 7.80045 41.1513 7.54914 41.8023 7.39365C41.8023 7.39275 42.0732 7.34032 42.6188 7.23545ZM42.3405 4.36523C42.6096 4.28207 42.9036 4.23958 43.2162 4.23958C43.6804 4.23958 44.6836 4.30647 44.5015 4.98809C44.3905 5.40574 43.8218 5.67514 42.7991 5.79989C41.6608 5.91651 40.5179 6.09731 39.5137 6.67406C38.8655 7.05013 38.4207 7.67299 38.1858 8.54716C37.9352 9.48462 38.0573 10.1554 38.5557 10.5622C39.0541 10.969 39.7079 11.1715 40.517 11.1715C40.922 11.1715 41.3945 11.1453 41.9382 11.0937C42.4801 11.0404 43.0183 10.8994 43.5509 10.6698C44.0549 10.4628 44.5348 10.1237 44.9851 9.65638C45.4345 9.18991 45.7748 8.53722 45.9976 7.70553L46.7577 4.86244C46.9584 4.11392 46.7901 3.52993 46.2473 3.11409C45.7267 2.71723 44.8362 2.52016 43.5749 2.52016C42.4524 2.52016 41.5221 2.76062 40.787 3.23703C40.1341 3.65469 39.6783 4.18624 39.4166 4.82989H41.6756C41.8513 4.60118 42.0714 4.44569 42.3405 4.36523Z" fill="#1E468E"/>
<path fill-rule="evenodd" clip-rule="evenodd" d="M70.6191 11.0133C69.8654 11.0558 69.0647 11.045 68.2158 10.9817C67.3651 10.9202 67.071 10.4076 67.3271 9.453L69.785 0.277344H70.9991C71.5965 0.277344 71.9802 0.774547 71.8286 1.33684L71.4522 2.74166H72.8337L72.7163 3.1783C72.5517 3.79393 71.934 4.24141 71.2867 4.24141H71.0509L69.8127 8.86359C69.7175 9.21886 69.895 9.39333 70.3444 9.39333H71.0527L70.6191 11.0133ZM75.8408 7.23457C76.4354 7.10982 76.9116 6.97693 77.2648 6.83048L77.0549 7.61064C76.8987 8.19372 76.5991 8.65024 76.1497 8.98201C75.7012 9.31559 75.1612 9.48374 74.5314 9.48374C74.1486 9.48374 73.8795 9.40057 73.7205 9.23333C73.5688 9.0462 73.5355 8.7976 73.6188 8.48481C73.8028 7.79957 74.3742 7.54826 75.0252 7.39277C75.0262 7.39187 75.2962 7.33943 75.8408 7.23457ZM75.5634 4.36435C75.8325 4.28118 76.1256 4.2387 76.44 4.2387C76.9033 4.2387 77.9066 4.30559 77.7253 4.98721C77.6125 5.40486 77.0466 5.67426 76.022 5.79901C74.8847 5.91563 73.7408 6.09643 72.7366 6.67318C72.0875 7.04925 71.6436 7.67211 71.4097 8.54628C71.1591 9.48374 71.2802 10.1545 71.7786 10.5613C72.277 10.9681 72.9308 11.1706 73.7399 11.1706C74.1449 11.1706 74.6174 11.1444 75.1612 11.0929C75.703 11.0395 76.2412 10.8985 76.7738 10.6689C77.2787 10.4619 77.7568 10.1229 78.209 9.6555C78.6584 9.18903 78.9977 8.53634 79.2206 7.70465L79.9816 4.86156C80.1823 4.11304 80.014 3.52905 79.4702 3.11321C78.9496 2.71635 78.0582 2.51928 76.7969 2.51928C75.6753 2.51928 74.745 2.75974 74.0099 3.23615C73.3571 3.6538 72.9012 4.18536 72.6395 4.82901H74.8985C75.0733 4.6003 75.2943 4.44481 75.5634 4.36435Z" fill="#1E468E"/>
<path fill-rule="evenodd" clip-rule="evenodd" d="M5.34521 11.0133L6.42433 6.98507C6.64071 6.17509 6.95233 5.49347 7.36012 4.94112C7.76606 4.39058 8.23858 3.94671 8.77675 3.61494C9.28626 3.30306 9.84755 3.07344 10.4606 2.92699C11.0718 2.78145 11.6821 2.71003 12.2887 2.71003H12.4589H12.629L12.0354 4.92575H11.2577C10.6049 4.92575 10.0815 5.0722 9.69128 5.36329C9.29921 5.65257 9.0181 6.1109 8.85166 6.73738L7.70596 11.0133H5.34521ZM15.5353 7.23458C16.1309 7.10983 16.6061 6.97694 16.9594 6.83049L16.7495 7.61065C16.5932 8.19373 16.2927 8.65025 15.8442 8.98202C15.3948 9.3156 14.8548 9.48375 14.2241 9.48375C13.8422 9.48375 13.5731 9.40058 13.4141 9.23334C13.2634 9.04621 13.2292 8.79761 13.3124 8.48482C13.4955 7.79958 14.0688 7.54827 14.7188 7.39278C14.7198 7.39188 14.9889 7.33944 15.5353 7.23458ZM15.257 4.36436C15.5261 4.28119 15.8192 4.23871 16.1336 4.23871C16.596 4.23871 17.6002 4.3056 17.418 4.98722C17.3061 5.40487 16.7393 5.67427 15.7157 5.79902C14.5774 5.91564 13.4354 6.09644 12.4311 6.67319C11.7811 7.04926 11.3372 7.67212 11.1033 8.54629C10.8527 9.48375 10.9738 10.1545 11.4713 10.5613C11.9697 10.9672 12.6244 11.1706 13.4326 11.1706C13.8385 11.1706 14.312 11.1444 14.8538 11.0929C15.3957 11.0395 15.9339 10.8985 16.4674 10.6689C16.9723 10.4619 17.4504 10.1229 17.9026 9.65551C18.352 9.18904 18.6913 8.53635 18.9133 7.70466L19.6743 4.86157C19.8759 4.11305 19.7057 3.52906 19.1648 3.11322C18.6432 2.71636 17.7528 2.51929 16.4915 2.51929C15.368 2.51929 14.4387 2.75975 13.7035 3.23616C13.0507 3.65381 12.5948 4.18537 12.3341 4.82902H14.5912C14.7669 4.60031 14.987 4.44482 15.257 4.36436Z" fill="#3381C3"/>
<path fill-rule="evenodd" clip-rule="evenodd" d="M26.1784 10.9048H25.029C24.3817 10.9048 24.0257 10.4582 24.1857 9.8453L25.2944 5.59829C25.521 4.73315 25.0226 4.16182 24.1228 4.16182C23.2037 4.16182 22.4612 4.73134 22.2355 5.59829L20.8485 10.9048H18.5479L19.8193 6.03582C20.5027 3.52359 22.0987 2.52286 24.5149 2.41528C25.5931 2.41528 27.2048 2.76875 27.5571 3.93763C27.7153 4.46014 27.6792 5.15984 27.4508 6.03582L26.1784 10.9048Z" fill="#3381C3"/>
<path fill-rule="evenodd" clip-rule="evenodd" d="M35.5827 5.16162C36.0478 3.08783 34.3418 2.39175 32.5284 2.41435C30.7077 2.43785 28.7714 3.22072 28.2785 5.10105C28.0566 5.94539 28.346 6.62611 29.108 7.03201C29.4779 7.22908 29.9892 7.40808 30.6411 7.56808C31.1506 7.74437 32.8585 7.82934 32.657 8.59865C32.4887 9.2414 31.5908 9.41045 31.0193 9.41045C30.1908 9.41045 29.316 9.14919 29.5287 8.16111H27.2771L27.2493 8.25332C27.0089 9.17089 27.1449 9.86878 27.6608 10.3452C28.1509 10.8234 29.0257 11.0639 30.286 11.0639C31.6093 11.0639 32.6644 10.8343 33.4466 10.3768C34.2835 9.87872 34.8226 9.17089 35.0649 8.25332C35.4301 6.86748 34.5443 6.3522 33.3024 5.98155C32.8567 5.84776 32.3879 5.75646 31.932 5.64978C31.4428 5.53588 31.0896 5.40932 30.8732 5.27101C30.4201 4.97901 30.68 4.49989 31.0739 4.28654C31.33 4.16179 31.6786 4.10574 32.1179 4.10032C32.9862 4.08947 33.1748 4.38146 33.3819 4.69877C33.5974 5.02331 33.737 5.16072 34.1568 5.16072L35.5827 5.16162Z" fill="#3381C3"/>
</g>
</g>
<defs>
<clipPath id="clip0_1801_10800">
<rect width="80" height="14.7433" fill="white"/>
</clipPath>
<clipPath id="clip1_1801_10800">
<rect width="80" height="14.7433" fill="white"/>
</clipPath>
</defs>
</svg>
