<svg width="80" height="11" viewBox="0 0 80 11" fill="none" xmlns="http://www.w3.org/2000/svg">
<g clip-path="url(#clip0_1801_10774)">
<path d="M8.00177 5.00646C7.96425 5.08124 7.94377 5.16342 7.94183 5.24703C7.93988 5.33065 7.95652 5.41359 7.99053 5.48985C8.02454 5.5661 8.07507 5.63376 8.13845 5.6879C8.20184 5.74204 8.27648 5.78131 8.35697 5.80285C8.8495 5.93725 9.33164 5.97886 9.80337 5.92766C13.8382 5.50086 18.029 3.85765 21.7446 2.23605C21.7947 2.21575 21.849 2.21073 21.9006 2.22165C22.163 2.27765 22.2286 2.41672 22.0974 2.63885C22.0558 2.71085 21.9854 2.77485 21.8862 2.83085C21.1738 3.24805 19.027 4.73085 18.9574 5.58486C18.7678 7.88046 27.4178 4.49565 28.3294 4.10245C28.3843 4.07894 28.4442 4.07145 28.5022 4.08085C28.8171 4.13365 28.9195 4.27432 28.8094 4.50285C28.7758 4.57325 28.715 4.63245 28.627 4.68045C25.6238 6.32125 15.5054 11.5721 12.5502 10.2601C11.3462 9.72765 12.351 8.68406 12.759 8.04606C12.7925 7.994 12.8129 7.93462 12.8185 7.87297C12.8241 7.81132 12.8147 7.74923 12.7912 7.69198C12.7676 7.63474 12.7305 7.58405 12.6831 7.54422C12.6357 7.5044 12.5794 7.47662 12.519 7.46326C12.2598 7.40566 11.8378 7.43206 11.5618 7.53046C9.85377 8.14926 1.28057 11.4645 0.119373 9.79965C-1.36303 7.67445 11.4202 0.844853 13.0346 0.0292532C13.084 0.0050346 13.1394 -0.00444578 13.1943 0.00193387C13.2491 0.00831352 13.3011 0.0302849 13.3442 0.0652518C13.5506 0.235652 13.4762 0.501652 13.2602 0.631252C11.5306 1.69645 8.77897 3.44925 8.00177 5.00646Z" fill="#C52D42"/>
<path d="M35.5594 6.75525L32.585 10.2649C32.5346 10.3242 32.4718 10.3719 32.401 10.4046C32.3302 10.4374 32.2531 10.4544 32.175 10.4545H30.3062C30.2898 10.4546 30.2737 10.4513 30.2587 10.4446C30.2438 10.4379 30.2306 10.428 30.2198 10.4157C30.2091 10.4034 30.2012 10.3889 30.1966 10.3732C30.192 10.3575 30.1909 10.341 30.1934 10.3249L31.0834 4.38285C31.1074 4.23245 31.1954 4.15726 31.3474 4.15726H33.0746C33.161 4.15726 33.1978 4.20045 33.185 4.28685C33.049 5.15992 32.8915 6.02592 32.7126 6.88486C32.5926 7.45806 32.2906 7.88526 32.0098 8.37446C31.9957 8.40086 31.9918 8.43149 31.9988 8.46057C32.0058 8.48965 32.0232 8.51517 32.0477 8.5323C32.0722 8.54943 32.1022 8.55699 32.1319 8.55356C32.1616 8.55012 32.189 8.53593 32.209 8.51366L35.8286 4.25805C35.8846 4.19085 35.9566 4.15726 36.0446 4.15726H37.6182C37.7062 4.15726 37.747 4.20126 37.7406 4.28926C37.6182 5.82686 37.6518 7.02646 36.853 8.39126C36.8443 8.40581 36.8395 8.42237 36.839 8.43932C36.8386 8.45628 36.8426 8.47306 36.8505 8.48803C36.8585 8.503 36.8702 8.51566 36.8845 8.52477C36.8988 8.53389 36.9152 8.53916 36.9322 8.54006C37.0362 8.54326 37.1242 8.49606 37.1962 8.39846C37.8999 7.43579 38.9738 6.05486 40.4178 4.25566C40.4425 4.22496 40.4739 4.20019 40.5096 4.18317C40.5453 4.16614 40.5845 4.15729 40.6242 4.15726H42.4378C42.5674 4.15726 42.5922 4.20765 42.5122 4.30845L37.753 10.2217C37.6945 10.2943 37.6205 10.3529 37.5362 10.3932C37.452 10.4335 37.3597 10.4544 37.2662 10.4545H35.551C35.5223 10.4546 35.4938 10.4487 35.4676 10.4371C35.4413 10.4256 35.4178 10.4086 35.3985 10.3873C35.3793 10.366 35.3647 10.3409 35.3558 10.3136C35.347 10.2863 35.3439 10.2574 35.347 10.2289L35.707 6.81766C35.7083 6.80014 35.7041 6.78264 35.695 6.76763C35.6859 6.75261 35.6723 6.74083 35.6562 6.73394C35.64 6.72705 35.6221 6.72541 35.6049 6.72923C35.5878 6.73305 35.5723 6.74215 35.5606 6.75525H35.5594Z" fill="#C52D42"/>
<path d="M44.111 6.49606C44.0969 6.51947 44.0918 6.54705 44.0967 6.57373C44.1017 6.60041 44.1163 6.6244 44.1379 6.64132C44.1594 6.65823 44.1865 6.66693 44.2142 6.66581C44.2419 6.6647 44.2683 6.65385 44.2886 6.63526C45.2914 5.65166 46.4714 4.93206 47.9178 5.34006C50.1966 5.98046 48.1602 9.02206 47.553 10.2145C47.5169 10.2867 47.4614 10.3474 47.3927 10.3898C47.324 10.4322 47.2449 10.4546 47.1642 10.4545H45.4922C45.4689 10.4542 45.4461 10.4479 45.4259 10.4363C45.4057 10.4248 45.3887 10.4082 45.3767 10.3883C45.3647 10.3683 45.358 10.3456 45.3572 10.3223C45.3564 10.2991 45.3615 10.276 45.3722 10.2553C45.7735 9.46832 46.1638 8.66392 46.543 7.84206C47.1666 6.48925 45.4466 6.55166 44.7774 6.96166C44.113 7.36926 43.3406 9.48046 42.9542 10.2409C42.9224 10.305 42.8732 10.359 42.8121 10.3967C42.7511 10.4345 42.6806 10.4545 42.6086 10.4545H40.8118C40.7971 10.4544 40.7827 10.4505 40.77 10.4433C40.7572 10.4361 40.7465 10.4258 40.7388 10.4133C40.7311 10.4009 40.7267 10.3866 40.7261 10.372C40.7254 10.3574 40.7285 10.3428 40.735 10.3297L43.6398 4.28006C43.657 4.24411 43.6842 4.21377 43.7181 4.19254C43.7521 4.1713 43.7915 4.16004 43.8318 4.16005L45.667 4.15765C45.7918 4.15765 45.8302 4.21525 45.7822 4.33045C45.6814 4.57205 45.5686 4.80152 45.4438 5.01886C45.1294 5.56566 44.4586 5.92046 44.111 6.49606Z" fill="#C52D42"/>
<path d="M75.3074 6.60646C76.219 5.74286 77.327 5.02086 78.661 5.26326C81.3646 5.75486 79.2678 8.87325 78.4858 10.3321C78.4668 10.3668 78.439 10.3959 78.4053 10.4161C78.3715 10.4364 78.333 10.4472 78.2938 10.4473L76.5018 10.4569C76.4789 10.4568 76.4564 10.4509 76.4364 10.4398C76.4165 10.4286 76.3997 10.4125 76.3877 10.3931C76.3756 10.3736 76.3688 10.3514 76.3678 10.3285C76.3667 10.3057 76.3716 10.2829 76.3818 10.2625C76.7863 9.47872 77.1678 8.66792 77.5262 7.83006C78.1114 6.46046 76.5594 6.57806 75.8566 6.92806C75.1922 7.25686 74.3502 9.49006 74.0142 10.2001C73.9776 10.2762 73.9202 10.3404 73.8485 10.3854C73.7769 10.4304 73.6938 10.4544 73.609 10.4545H71.8818C71.8626 10.4543 71.8437 10.4493 71.8269 10.44C71.8102 10.4306 71.7961 10.4173 71.786 10.4012C71.7759 10.3851 71.7701 10.3667 71.7692 10.3479C71.7684 10.3291 71.7724 10.3104 71.781 10.2937L74.6306 4.34685C74.6581 4.28997 74.7008 4.242 74.7539 4.20846C74.8069 4.17492 74.8682 4.15717 74.9306 4.15726H76.7298C76.7481 4.15712 76.7662 4.16177 76.7822 4.17076C76.7983 4.17975 76.8117 4.19277 76.8211 4.20852C76.8306 4.22428 76.8358 4.24222 76.8362 4.26059C76.8365 4.27896 76.8321 4.29711 76.8234 4.31325L76.2982 5.30646C76.2919 5.31754 76.2836 5.3266 76.2742 5.33285C75.8424 5.65099 75.4594 6.01966 75.125 6.43886C75.1069 6.46361 75.0986 6.49414 75.1016 6.52463C75.1046 6.55513 75.1187 6.58345 75.1412 6.60421C75.1638 6.62497 75.1932 6.63671 75.2238 6.6372C75.2544 6.63768 75.2842 6.62649 75.3074 6.60646Z" fill="#C52D42"/>
<path d="M50.6094 10.3581C47.7862 9.60966 50.2662 6.19126 51.883 5.61806C53.435 5.06886 57.9206 4.62246 56.899 7.77446C56.0594 10.3701 52.9602 10.9841 50.6094 10.3581ZM54.7702 6.49406C54.652 6.37035 54.4964 6.28477 54.3122 6.2422C54.1279 6.19963 53.9187 6.20091 53.6965 6.24597C53.4743 6.29103 53.2433 6.37898 53.0169 6.50479C52.7905 6.63061 52.5731 6.79184 52.377 6.97926C51.981 7.35763 51.696 7.81971 51.5846 8.26387C51.4733 8.70803 51.5448 9.09787 51.7834 9.34766C51.9015 9.47137 52.0572 9.55695 52.2414 9.59952C52.4256 9.64208 52.6348 9.6408 52.857 9.59574C53.0793 9.55069 53.3102 9.46274 53.5366 9.33692C53.763 9.2111 53.9805 9.04988 54.1766 8.86246C54.3727 8.67508 54.5437 8.46517 54.6796 8.24471C54.8156 8.02424 54.914 7.79755 54.9691 7.57758C55.0242 7.35761 55.035 7.14866 55.0009 6.96268C54.9668 6.7767 54.8884 6.61772 54.7702 6.49406Z" fill="#C52D42"/>
<path d="M57.417 8.86606C57.5514 4.56005 65.5922 4.02765 65.0046 7.27086C64.453 10.3029 61.0658 11.0585 58.5446 10.3581C57.8538 10.1661 57.393 9.61446 57.417 8.86606ZM62.7858 6.49486C62.668 6.37119 62.5127 6.28562 62.3287 6.24304C62.1447 6.20045 61.9356 6.20169 61.7132 6.24667C61.4909 6.29165 61.2598 6.3795 61.0331 6.5052C60.8063 6.6309 60.5884 6.79198 60.3918 6.97926C60.1951 7.16652 60.0235 7.37632 59.8869 7.59666C59.7503 7.817 59.6512 8.04358 59.5954 8.26344C59.5396 8.4833 59.5282 8.69214 59.5617 8.87803C59.5953 9.06393 59.6732 9.22324 59.791 9.34686C59.9087 9.47052 60.064 9.55609 60.248 9.59868C60.432 9.64126 60.6412 9.64003 60.8635 9.59505C61.0858 9.55007 61.3169 9.46222 61.5437 9.33652C61.7704 9.21082 61.9883 9.04973 62.185 8.86246C62.3816 8.67519 62.5532 8.4654 62.6898 8.24505C62.8265 8.02471 62.9255 7.79814 62.9813 7.57828C63.0371 7.35842 63.0486 7.14957 63.015 6.96368C62.9814 6.77778 62.9036 6.61848 62.7858 6.49486Z" fill="#C52D42"/>
<path d="M68.039 7.01206C69.025 7.40326 70.0802 7.30006 71.107 7.69086C72.8246 8.34566 70.9078 9.91926 70.1306 10.2121C69.099 10.6009 65.0834 11.0541 65.2226 9.06526C65.2252 9.0322 65.2384 9.00102 65.2601 8.97667C65.2819 8.95231 65.3109 8.93619 65.3426 8.93086L66.6402 8.70286C66.7106 8.69166 66.7642 8.71645 66.801 8.77725C67.2926 9.58325 68.701 9.69606 69.4302 9.19446C69.4755 9.16355 69.5103 9.11961 69.5299 9.06843C69.5495 9.01726 69.5531 8.96124 69.5401 8.90777C69.5271 8.85429 69.4982 8.80586 69.4571 8.76885C69.4161 8.73184 69.3649 8.708 69.3102 8.70046C68.2738 8.56606 66.513 8.52525 65.8462 7.67125C65.8227 7.64091 65.8055 7.60617 65.7956 7.56907C65.7857 7.53198 65.7833 7.49328 65.7886 7.45525C66.1654 4.88125 71.1906 4.42326 72.2462 6.48366C72.269 6.5286 72.281 6.57829 72.2811 6.62871C72.2812 6.67913 72.2695 6.72887 72.2468 6.77392C72.2241 6.81896 72.1912 6.85805 72.1507 6.88802C72.1101 6.91799 72.0631 6.93801 72.0134 6.94646L70.8474 7.14566C70.7594 7.16006 70.685 7.13606 70.6242 7.07366C69.8852 6.31232 69.0192 6.16766 68.0262 6.63966C67.9904 6.65697 67.9604 6.68431 67.9397 6.71831C67.9191 6.75232 67.9088 6.7915 67.9101 6.83104C67.9114 6.87058 67.9242 6.90874 67.9469 6.94083C67.9697 6.97293 68.0022 6.99794 68.039 7.01206Z" fill="#C52D42"/>
</g>
<defs>
<clipPath id="clip0_1801_10774">
<rect width="80.0002" height="10.6004" fill="white"/>
</clipPath>
</defs>
</svg>
