<svg width="80" height="19" viewBox="0 0 80 19" fill="none" xmlns="http://www.w3.org/2000/svg">
<g clip-path="url(#clip0_1801_10730)">
<g clip-path="url(#clip1_1801_10730)">
<path fill-rule="evenodd" clip-rule="evenodd" d="M8.56177 0.0142905C11.0101 0.0142905 13.4611 0.0142905 15.9021 0.0142905C16.5471 0.0142905 16.9913 0.385346 17.1061 1.01765C17.1136 1.08715 17.1136 1.18646 17.1136 1.26099C17.1136 6.49241 17.1136 11.738 17.1136 16.9592C17.1136 17.7034 16.6321 18.2296 15.9394 18.2296C11.01 18.2296 6.09668 18.2296 1.15627 18.2296C0.468746 18.2296 0.000690253 17.7108 0.000690253 16.9592C0.000690253 11.7567 0.00308225 6.56272 0.000690253 1.36027C-0.0217049 0.554158 0.503085 -0.00730183 1.25026 7.17747e-05C3.68758 0.0219438 6.12064 0.0142551 8.56162 0.0142551L8.56177 0.0142905ZM14.6038 5.97361C14.197 6.83502 13.573 7.42413 12.8025 7.88183C12.6711 7.95714 12.6129 7.97795 12.5703 7.79597C12.4121 7.27718 12.2322 6.76576 12.056 6.26856C11.7007 5.21674 11.3789 4.1515 10.9936 3.10495C10.7794 2.58009 10.4099 2.2301 9.8992 2.08289C9.2169 1.87906 8.52131 1.87906 7.81744 1.94858C6.88043 2.05392 6.27816 2.50319 5.96239 3.49312C5.36593 5.38476 4.71782 7.27191 4.0892 9.15011C3.58083 10.6573 3.08373 12.1502 2.6068 13.6565C2.47317 14.05 2.41718 14.465 2.50452 14.8719C2.66577 15.664 3.4207 16.3 4.20729 16.3298C5.09585 16.3777 5.725 15.929 5.9765 15.0749C6.13625 14.5614 6.31317 14.0365 6.42589 13.5177C6.50054 13.1243 6.70135 12.872 7.00069 12.6824C7.03055 12.6266 7.0843 12.6079 7.15074 12.5705C8.04744 11.9464 9.05372 11.7778 10.1108 11.738C10.2362 11.738 10.2362 11.8336 10.2527 11.9255C10.5363 12.9774 10.8043 14.0097 11.1226 15.0533C11.3286 15.7894 11.7884 16.1963 12.519 16.309C13.6165 16.4904 14.8289 15.5087 14.6227 14.1845C14.5779 13.9799 14.5286 13.7342 14.4726 13.5312C14.1546 12.6213 13.8493 11.6867 13.5491 10.7826C13.5192 10.6512 13.5192 10.5393 13.6013 10.4482C13.9328 10.0892 14.144 9.68313 14.3254 9.22016C14.7002 8.17572 14.6337 7.08151 14.6069 5.9736" fill="#E82E2D"/>
<path fill-rule="evenodd" clip-rule="evenodd" d="M51.5041 6.59161C52.058 6.37224 52.5873 6.2058 53.1687 6.21186C53.757 6.21186 54.0973 6.57001 54.0704 7.20758C54.0704 7.69951 53.9152 8.17565 53.8054 8.63124C53.8054 8.67894 53.7681 8.73499 53.8054 8.80742C54.0973 8.36315 54.3855 7.95707 54.7259 7.59286C55.1536 7.09566 55.606 6.65376 56.1651 6.36697C56.4599 6.21185 56.7727 6.11231 57.081 6.12074C57.835 6.14761 58.2097 6.59161 58.2232 7.38902C58.2381 7.83909 58.1142 8.28098 58.0335 8.72209C58.0111 8.79978 58.0111 8.87747 57.9887 9.03732C58.1709 8.79162 58.3023 8.58252 58.4576 8.36315C58.9682 7.66212 59.5465 6.97768 60.2797 6.51998C60.691 6.26031 61.13 6.09388 61.6175 6.14234C62.2386 6.21184 62.5619 6.59161 62.5811 7.27184C62.6109 7.783 62.487 8.26677 62.4094 8.77003C62.16 9.99802 61.9062 11.2236 61.7114 12.4443C61.6591 12.8854 61.6591 13.3012 61.7636 13.7073C61.8159 13.9372 61.9055 14.1202 62.0794 14.2964C61.5121 14.668 60.9044 14.9332 60.2178 14.786C59.7162 14.668 59.4459 14.283 59.3959 13.6939C59.3586 13.0974 59.481 12.5085 59.5795 11.9255C59.8207 10.7422 60.0536 9.59193 60.279 8.42741C60.3014 8.34445 60.3014 8.28099 60.3014 8.21094C60.279 8.13325 60.2268 8.10718 60.1439 8.15935C60.023 8.20332 59.9214 8.28839 59.8416 8.40637C59.0973 9.31044 58.5106 10.3354 57.9657 11.379C57.6954 11.9068 57.4543 12.4659 57.2378 13.0063C57.0587 13.4908 56.8758 13.9941 57.1408 14.4868C57.1931 14.5613 57.1184 14.5613 57.0811 14.598C56.5862 14.786 56.0741 14.9063 55.5181 14.7942C55.0337 14.6814 54.7985 14.253 54.8888 13.6723C55.0038 12.937 55.2076 12.2352 55.3494 11.5186C55.5853 10.5392 55.7884 9.57774 55.9198 8.58255C55.9496 8.4356 56.0638 8.24599 55.8899 8.15935C55.7563 8.08485 55.6301 8.25943 55.5361 8.36318C54.9023 9.065 54.4342 9.8777 53.9871 10.713C53.5966 11.4441 53.2622 12.1717 52.9361 12.937C52.7158 13.44 52.5636 13.9372 52.8174 14.4868C52.8696 14.5613 52.812 14.5613 52.7726 14.598C52.2612 14.786 51.7289 14.9198 51.2207 14.786C50.5921 14.639 50.3427 14.1276 50.5302 13.3997C50.8138 12.2405 51.108 11.1199 51.3571 9.97698C51.5303 9.12004 51.6721 8.25942 51.7288 7.36798C51.7438 7.11649 51.796 6.79544 51.5041 6.59161Z" fill="#E82E2D"/>
<path fill-rule="evenodd" clip-rule="evenodd" d="M31.1986 13.1959C31.1986 14.1703 30.4459 14.8555 29.6407 14.786C28.9688 14.7294 28.5856 14.4091 28.3931 13.6939C28.3185 13.3997 28.2087 13.0974 28.1206 12.7898C28.0982 12.6823 28.0609 12.6078 27.9221 12.6078C26.9085 12.6213 25.9043 12.6213 24.8988 12.6078C24.7518 12.6078 24.7219 12.6771 24.6816 12.7816C24.5913 13.09 24.4808 13.3781 24.4196 13.6723C24.162 14.7294 23.3148 14.9198 22.6667 14.7375C21.8561 14.4994 21.4329 13.7342 21.671 12.8459C21.9285 11.9255 22.2599 11.0372 22.5571 10.1323C23.1357 8.36316 23.7425 6.61848 24.2963 4.84404C24.5688 3.99079 25.0294 3.52729 25.8909 3.44961C26.3627 3.41534 26.86 3.41534 27.334 3.55495C27.8611 3.65344 28.2089 4.00948 28.3932 4.55014C28.7873 5.73547 29.1801 6.9208 29.5651 8.0848C30.0608 9.57773 30.5371 11.0148 31.032 12.5004C31.1231 12.7682 31.1925 13.055 31.1985 13.1959L31.1986 13.1959ZM25.3691 10.1323C25.9962 10.1323 26.6247 10.1323 27.2481 10.1323C27.4034 10.1592 27.4273 10.1034 27.3743 9.9293C27.1466 9.13662 26.9085 8.32814 26.6726 7.53151C26.6054 7.22918 26.5098 6.9553 26.424 6.64034H26.3867C26.0492 7.79591 25.7021 8.96044 25.3693 10.1323" fill="#1560AA"/>
<path fill-rule="evenodd" clip-rule="evenodd" d="M49.3605 10.5579C49.3456 11.5402 49.4053 12.5143 49.3456 13.4827C49.2306 14.618 48.216 15.2437 47.3217 14.7375C47.1672 14.6606 47.0627 14.5613 46.9694 14.465C46.9097 14.3522 46.8567 14.3657 46.7604 14.4299C44.464 15.7759 41.5124 14.2127 41.1727 11.4351C40.9987 9.99804 41.2608 8.67893 42.1523 7.59288C42.8884 6.66642 43.8588 6.30273 44.9538 6.21188C45.5988 6.17739 46.2115 6.33197 46.7791 6.66642C46.8567 6.72226 46.9127 6.75307 46.9859 6.65381C47.4159 6.20585 47.9189 6.10736 48.4654 6.33726C49.0081 6.52766 49.2754 7.01723 49.3455 7.62188C49.4052 8.47592 49.3604 9.33285 49.3604 10.1885C49.3604 10.3354 49.3604 10.4481 49.3604 10.558L49.3605 10.5579ZM45.301 12.7816C45.9094 12.7816 46.2213 12.5293 46.3931 11.9068C46.5723 11.3717 46.5723 10.8123 46.5409 10.2443C46.5185 9.80316 46.4737 9.40972 46.2669 9.00285C46.1258 8.68709 45.9094 8.48326 45.5667 8.42743C44.8859 8.28838 44.303 8.63126 44.067 9.35889C43.808 10.1666 43.808 11.0148 44.067 11.8502C44.2574 12.4793 44.6932 12.7816 45.301 12.7816Z" fill="#1161AB"/>
<path fill-rule="evenodd" clip-rule="evenodd" d="M72.0405 12.0105C71.6553 12.5354 71.3096 13.09 70.8788 13.5522C70.3996 14.1202 69.8779 14.6256 69.1605 14.7807C68.8395 14.8502 68.5446 14.8555 68.2512 14.7941C67.5517 14.6464 67.2046 14.1276 67.1032 13.44C66.8889 12.2839 67.0659 11.176 67.4406 10.1107C67.8385 8.96044 68.4782 7.95708 69.3591 7.17256C70.4349 6.21187 71.6276 6.03779 72.9496 6.61848C73.0093 6.64035 73.1019 6.75305 73.1183 6.59161C73.199 6.05649 73.3221 5.52426 73.2706 4.97017C73.2333 4.60675 73.2333 4.60675 73.5789 4.43294C73.9723 4.24254 74.368 4.15142 74.8151 4.17222C75.4788 4.22097 75.8184 4.65389 75.6984 5.33675C75.5513 6.1289 75.3587 6.92079 75.196 7.69135C74.8907 9.10211 74.5981 10.4831 74.4167 11.9068C74.3227 12.6823 74.3227 13.4826 74.6571 14.2053C74.7019 14.283 74.6646 14.309 74.6048 14.3522C74.0345 14.8294 73.3845 14.9972 72.694 14.7167C72.223 14.5076 72.0087 14.0715 71.9684 13.5469C71.9236 13.0497 72.0058 12.5293 72.0356 12.0105L72.0405 12.0105ZM69.4709 11.9255C69.4635 12.1232 69.4709 12.3316 69.5008 12.5293C69.5605 12.9204 69.7554 12.9928 70.0383 12.7474C70.3272 12.5293 70.5198 12.2278 70.7213 11.9255C71.3738 11.0422 71.8529 10.0546 72.3957 9.13661C72.7629 8.53196 72.7353 8.47587 72.1687 8.0848C72.1612 8.06374 72.1389 8.0474 72.1314 8.02948C71.4998 7.60022 70.9698 7.6995 70.5197 8.32812C70.4346 8.4274 70.3786 8.53195 70.3271 8.65204C69.862 9.68306 69.5434 10.7609 69.4709 11.9255Z" fill="#E82E2D"/>
<path fill-rule="evenodd" clip-rule="evenodd" d="M39.408 11.0922C39.408 11.7777 39.408 12.5293 39.408 13.2312C39.408 13.3781 39.408 13.5177 39.393 13.6565C39.2519 14.4299 38.7264 14.8502 37.9933 14.786C37.1962 14.7294 36.7206 14.1919 36.7063 13.3573C36.6764 12.6823 36.7063 11.9813 36.6839 11.2887C36.6839 10.4481 36.6839 9.59195 36.7063 8.7574C36.7063 8.59597 36.6839 8.51854 36.5033 8.4922C36.1472 8.46242 35.8553 8.30707 35.6443 7.97789C35.3076 7.36797 35.6443 6.66641 36.3191 6.52763C36.6826 6.45731 36.7065 6.45731 36.6826 6.0565C36.6826 5.72731 36.6826 5.39812 36.7498 5.09791C36.8999 4.34631 37.3328 3.84305 37.9942 3.57575C38.8263 3.25921 39.64 3.27343 40.4881 3.55492C41.0397 3.71478 41.3445 4.15141 41.3094 4.6918C41.287 5.18901 41.0071 5.47579 40.5307 5.46288C40.3142 5.46288 40.1141 5.4331 39.9126 5.46288C39.5886 5.48924 39.4363 5.66592 39.4147 6.02224C39.3997 6.48494 39.3997 6.49232 39.8297 6.48494C40.0119 6.48494 40.2127 6.49231 40.3941 6.52764C40.833 6.6185 41.1331 6.95532 41.1549 7.45331C41.1848 7.92944 40.9593 8.25942 40.5182 8.42744C40.2128 8.53198 39.9127 8.51855 39.5998 8.51855C39.4445 8.4922 39.4147 8.54834 39.4147 8.71396C39.4147 9.50901 39.4147 10.293 39.4147 11.0923" fill="#1260AA"/>
<path fill-rule="evenodd" clip-rule="evenodd" d="M32.1105 9.09399C32.1105 7.6914 32.103 6.30276 32.1105 4.90017C32.1105 4.15147 32.5524 3.55498 33.1412 3.40198C34.0029 3.16075 34.7232 3.71484 34.8725 4.65394C34.8874 4.82326 34.9098 4.98681 34.9098 5.16825C34.9098 7.77409 34.9098 10.3757 34.9098 12.9773C34.9098 13.1959 34.8874 13.4184 34.8269 13.6373C34.6366 14.3791 34.1394 14.8152 33.449 14.7942C32.7899 14.7726 32.2867 14.3038 32.1478 13.5522C32.103 13.3439 32.103 13.0974 32.103 12.8944C32.103 11.6253 32.103 10.3407 32.103 9.09399L32.1105 9.09399Z" fill="#1560AA"/>
<path fill-rule="evenodd" clip-rule="evenodd" d="M78.7223 14.2612C78.1176 14.7167 77.4829 14.9198 76.7822 14.7942C76.2522 14.7167 75.9363 14.2964 75.9095 13.6865C75.8423 13.055 76.0087 12.439 76.1371 11.8336C76.3701 10.6646 76.6642 9.52166 76.8568 8.3445C76.9366 7.91682 76.9799 7.45912 76.8866 7.01722C76.8866 6.95534 76.8792 6.8866 76.8493 6.83499C76.7366 6.54109 76.7366 6.54109 77.0441 6.45735C77.5719 6.30276 78.107 6.15581 78.6603 6.2119C79.3239 6.33726 79.5836 6.75309 79.4127 7.4241C79.1903 8.28841 78.9529 9.15008 78.77 10.0257C78.5677 10.9111 78.3878 11.7778 78.2937 12.6905C78.2883 12.937 78.2883 13.1751 78.3086 13.3997C78.3684 13.7342 78.4535 14.0284 78.7207 14.2612" fill="#E82E2D"/>
<path fill-rule="evenodd" clip-rule="evenodd" d="M64.2393 7.62189C64.2393 7.20764 64.202 6.93429 64.0571 6.66119C64.0273 6.59169 64.0422 6.5627 64.1169 6.52767C64.7596 6.31621 65.412 6.12896 66.0943 6.26854C66.6109 6.36704 66.843 6.76574 66.702 7.34643C66.5467 8.10724 66.3467 8.82592 66.1615 9.57778C65.9338 10.558 65.7226 11.5829 65.5994 12.5863C65.5621 12.9929 65.577 13.3998 65.6987 13.7985C65.736 13.8762 65.7584 13.9454 65.8002 14.0284C65.8674 14.1142 65.9794 14.2127 65.9577 14.253C65.9129 14.401 65.7786 14.4434 65.6875 14.4869C65.2381 14.7376 64.791 14.8719 64.2877 14.8295C63.5577 14.751 63.1912 14.3315 63.1778 13.5312C63.1752 12.9371 63.3226 12.3406 63.4398 11.738C63.6652 10.5796 63.9832 9.43663 64.1758 8.25946C64.2057 8.0206 64.2206 7.74804 64.243 7.62189" fill="#E82E2D"/>
<path fill-rule="evenodd" clip-rule="evenodd" d="M66.3049 3.40198C66.3422 3.40198 66.3907 3.40198 66.4475 3.40198C67.1454 3.4496 67.4187 3.89233 67.2365 4.6068C67.1454 4.95679 66.961 5.16826 66.6348 5.27281C66.2407 5.38473 65.8637 5.48928 65.4463 5.44056C64.8842 5.33681 64.7237 5.1256 64.8573 4.52832C64.932 4.28499 64.9887 4.03876 64.8573 3.77962C64.7976 3.68851 64.932 3.70194 64.9701 3.68851C65.4112 3.4931 65.8449 3.40725 66.3046 3.40198" fill="#E92D2E"/>
<path fill-rule="evenodd" clip-rule="evenodd" d="M77.5366 3.71487C78.1413 3.49313 78.7512 3.30352 79.3777 3.4423C79.8786 3.52737 80.0869 3.91844 79.9667 4.45146C79.8921 4.87413 79.7017 5.18172 79.2493 5.28548C78.8589 5.39292 78.4737 5.48931 78.0698 5.43322C77.5958 5.31524 77.4375 5.09798 77.5719 4.60157C77.5793 4.49412 77.6017 4.38141 77.6316 4.27764C77.6764 4.09462 77.654 3.91343 77.5353 3.71487" fill="#E92D2E"/>
<path fill-rule="evenodd" clip-rule="evenodd" d="M14.6039 5.97356C14.6338 7.08146 14.6972 8.17568 14.3225 9.22012C14.1411 9.68308 13.9298 10.0892 13.5984 10.4481C13.52 10.5392 13.52 10.6512 13.5461 10.7826C13.8462 11.6866 14.1515 12.6213 14.4697 13.5311C14.5219 13.7342 14.5719 13.9799 14.6197 14.1845C14.8258 15.5086 13.6135 16.4904 12.5162 16.3089C11.7853 16.1962 11.3255 15.7893 11.1196 15.0533C10.8016 14.0096 10.5336 12.9773 10.2498 11.9255C10.2349 11.8336 10.2349 11.738 10.108 11.738C9.05083 11.7778 8.04455 11.9463 7.14785 12.5704C7.08067 12.6078 7.02543 12.6265 6.99781 12.6824C6.69846 12.872 6.49467 13.1243 6.423 13.5177C6.31028 14.0365 6.13336 14.5614 5.97361 15.0749C5.72204 15.9289 5.09296 16.3777 4.20441 16.3297C3.41782 16.3 2.66303 15.664 2.50164 14.8718C2.4143 14.465 2.47178 14.0499 2.60391 13.6565C3.08092 12.1501 3.57802 10.6572 4.08631 9.15007C4.71486 7.27186 5.36305 5.38471 5.9595 3.49308C6.27527 2.50315 6.87755 2.05388 7.81455 1.94854C8.5185 1.87904 9.21424 1.87904 9.89632 2.08285C10.4069 2.23006 10.7767 2.58005 10.9908 3.1049C11.376 4.15145 11.6977 5.21669 12.0531 6.26851C12.2293 6.76571 12.4092 7.27713 12.5674 7.79593C12.6122 7.9779 12.6682 7.9571 12.7996 7.88179C13.5701 7.42408 14.1943 6.83498 14.6009 5.97356L14.6039 5.97356ZM7.29805 10.18C7.93034 9.59197 8.60958 9.22012 9.33458 8.96862C9.49283 8.93361 9.40176 8.82588 9.37937 8.75741C9.1278 7.88678 8.89265 7.02537 8.62988 6.16317C8.62242 6.08627 8.62242 6.00358 8.5291 5.93853C8.12749 7.34113 7.72796 8.72212 7.29738 10.18" fill="white"/>
<path fill-rule="evenodd" clip-rule="evenodd" d="M7.29785 10.18C7.72858 8.72207 8.12796 7.34107 8.52958 5.93848C8.62065 6.0035 8.62065 6.08622 8.63035 6.16311C8.89312 7.02532 9.12827 7.88673 9.37984 8.75736C9.40223 8.82581 9.49256 8.93354 9.33505 8.96857C8.6102 9.22006 7.93088 9.59192 7.2986 10.18" fill="#E92D2E"/>
</g>
</g>
<defs>
<clipPath id="clip0_1801_10730">
<rect width="80" height="18.2296" fill="white"/>
</clipPath>
<clipPath id="clip1_1801_10730">
<rect width="80" height="18.2296" fill="white"/>
</clipPath>
</defs>
</svg>
