<svg width="80" height="26" viewBox="0 0 80 26" fill="none" xmlns="http://www.w3.org/2000/svg">
<g clip-path="url(#clip0_1801_10117)">
<g clip-path="url(#clip1_1801_10117)">
<path fill-rule="evenodd" clip-rule="evenodd" d="M6.0691 3.95001C6.29898 4.30778 7.24602 7.51963 7.38524 8.14613L4.78695 8.12347L6.0691 3.95001ZM14.5941 0.0922231C13.3362 0.462946 13.3411 1.78071 13.3411 3.18104C13.3411 5.45718 13.2488 9.7472 13.3443 11.7595C13.456 14.1295 16.0899 14.3723 16.7634 12.5139C17.0402 11.7498 16.9172 7.24118 16.9172 6.25367C16.9172 4.87438 16.9819 3.32998 16.9091 1.97012C16.8427 0.731679 15.9977 -0.322209 14.5925 0.0906043L14.5941 0.0922231ZM19.1836 3.7865C17.1859 3.79783 17.1422 6.05778 19.1836 6.2051V10.8286C19.1836 11.5765 19.0946 12.2419 19.4167 12.849C20.0578 14.0599 21.9195 13.9449 22.4359 12.9008C22.9167 11.9294 22.4537 8.04252 22.6723 6.20672C23.7537 6.20672 24.8982 6.16948 24.8659 4.97152C24.8351 3.76869 23.7731 3.78974 22.6512 3.78974C22.6512 3.0402 22.5687 2.60634 23.3635 2.53349C24.0564 2.46873 24.5939 2.69538 24.9063 2.15305C25.4746 1.16392 24.6748 0.271918 23.2794 0.0695589C22.0458 -0.108518 20.8365 0.144027 20.0416 0.718728C19.1367 1.37275 19.1836 2.74232 19.1836 3.78974V3.7865ZM29.831 6.09825C31.2669 5.79229 31.649 7.11167 31.7267 8.32421C31.8108 9.62579 31.6684 11.1751 30.3749 11.29C28.8823 11.4227 28.4112 10.3235 28.3448 8.97176C28.2736 7.54067 28.6152 6.35727 29.831 6.09825ZM32.1573 13.2132C31.3349 13.4836 31.1746 13.9417 29.4424 13.8138C28.4938 13.7426 27.6455 13.4431 26.9672 13.0173C25.7449 12.25 24.7493 10.7347 24.8189 8.61237C24.8885 6.51592 25.8809 5.05408 27.04 4.28349C27.7005 3.84478 28.565 3.55176 29.5104 3.47567C31.2588 3.33321 31.5858 3.92896 32.2528 4.06656C32.97 2.99649 34.6552 3.38987 35.1182 4.5069L35.047 12.938C34.5646 13.8235 33.5123 14.0453 32.7385 13.6746C32.4212 13.5224 32.4163 13.401 32.154 13.2165L32.1573 13.2132ZM3.95161 11.133L8.24001 11.1103C8.41809 11.8776 8.72729 12.985 9.19676 13.3492C9.93983 13.9239 11.0277 13.7798 11.6445 13.1808C12.4248 12.4216 12.2516 11.7125 11.8825 10.6619C11.5943 9.83948 11.3191 9.05432 11.0277 8.23193C10.4546 6.61468 9.88802 5.00389 9.33437 3.42387C8.61397 1.37114 8.64311 0.0954609 6.07395 0.108412C5.00064 0.113269 4.17825 0.323722 3.76544 1.0166C3.36072 1.69491 0.888693 9.05594 0.313992 10.6424C-0.0356851 11.6089 -0.184622 12.4523 0.483974 13.1307C1.26589 13.9255 3.03047 14.1392 3.56793 12.3941C3.69906 11.9699 3.82372 11.5717 3.95161 11.133Z" fill="#005AAB"/>
<path fill-rule="evenodd" clip-rule="evenodd" d="M0 21.4743L0.012951 22.886H64.5268C68.0996 22.886 71.6757 22.9038 75.247 22.886C76.6635 22.8795 78.1658 22.2401 78.9137 21.2121C79.9951 19.7276 80 19.1221 80 16.9334C79.2051 16.8087 11.6915 16.8994 4.71579 16.901C2.16929 16.901 0 18.923 0 21.4743Z" fill="#ED1C24"/>
<path fill-rule="evenodd" clip-rule="evenodd" d="M74.0278 1.40354C74.2301 1.89891 74.3402 1.72731 74.3159 2.53999C74.303 2.98842 74.2285 3.43361 74.1443 3.8707C73.997 4.651 73.7687 5.44425 73.5874 6.23588C72.8767 9.33927 71.376 14.374 76.1177 13.7718C77.7075 13.5694 79.553 12.6612 78.5282 10.9112C77.8451 11.3046 75.7405 12.7729 75.7405 10.5421C75.7405 9.16281 76.2489 7.83047 76.4399 6.5208C77.9422 6.51757 79.8994 6.84944 79.9966 4.56682C78.9297 4.78213 77.9956 4.87603 76.8527 4.8226C76.9903 3.95165 77.7884 2.05432 77.3092 1.39706C76.6924 0.552007 74.9036 1.18661 74.0261 1.40192L74.0278 1.40354ZM40.9509 6.503C41.0885 5.69194 41.6826 4.19934 40.9509 3.67482C40.2774 3.19239 38.7087 3.53236 38.0402 3.90956C38.4481 4.24305 38.3591 4.79832 38.2765 5.45396C38.1017 6.8462 37.663 8.78723 37.31 10.1179C37.1222 10.8254 36.499 12.4766 36.8519 13.1274C37.3278 14.0065 38.7719 13.7556 39.7238 13.448C39.6347 12.7195 39.2543 12.6725 40.0233 11.1216C40.3649 10.4352 40.6854 9.7877 41.027 9.12396C41.3767 8.44403 41.7781 7.83533 42.1602 7.25577C42.3625 6.94819 42.6038 6.63574 42.8029 6.39777C42.9324 6.24074 43.036 6.18732 43.1671 6.04809C43.3549 5.84897 43.329 5.78907 43.6625 5.75508C43.7807 6.61146 42.8693 10.0079 42.6297 11.0164C42.4451 11.7951 42.0145 12.9105 42.662 13.469C43.2173 13.9466 44.6516 13.7491 45.2296 13.401C44.8734 12.4702 45.1486 11.8971 45.5469 11.0763C45.8885 10.3753 46.1912 9.74884 46.5635 9.08996C46.9942 8.32585 48.4754 5.79069 49.1602 5.75993C49.2784 6.09018 48.2812 10.4191 48.1419 11.1686C47.9493 12.2176 48.0043 13.2521 48.8704 13.6212C49.913 14.0648 50.7597 13.4253 51.4671 13.1501C51.3603 12.904 51.4833 13.1501 51.3408 12.938C51.2259 12.768 51.3068 12.938 51.1968 12.7211C50.6917 11.7239 51.1709 9.9593 51.3862 8.9135C51.5901 7.92761 52.2345 5.41511 52.113 4.51178C51.8913 2.85729 50.0457 3.20049 48.8138 4.05202C48.2504 4.44055 47.891 4.86307 47.4831 5.29531C46.9699 5.83764 46.5862 6.46414 46.3045 6.76364C46.3806 5.90887 46.8015 4.97478 46.4389 4.12325C46.1086 3.35104 45.2409 3.16487 44.2647 3.50322C43.0716 3.91765 42.4079 4.76432 41.6632 5.61747C41.5272 5.77288 41.4673 5.85868 41.3184 6.05942L40.9509 6.50785V6.503ZM59.9516 6.20836C59.7509 6.46576 58.7083 8.50069 57.9847 9.50115C57.6658 9.94149 55.639 13.0384 55.8219 10.2523C55.9061 8.97016 56.6475 4.76594 58.4736 5.08648C59.0613 5.19009 59.7881 5.82792 59.95 6.20674L59.9516 6.20836ZM59.0256 10.3996C58.7844 10.5988 58.3959 11.2933 58.1498 11.5944C57.5217 12.3617 57.6447 12.1448 57.1979 12.6434C56.6556 13.2489 55.5791 13.9741 54.339 13.7815C52.0888 13.4318 52.5291 9.73427 53.2608 7.91789C54.3584 5.19171 56.7997 2.61284 59.6926 3.50969C59.8691 3.56474 60.324 3.79462 60.4033 3.80757C60.6704 3.85128 60.8776 3.61168 61.1642 3.53398C61.8619 3.34133 63.1829 3.5615 63.6653 3.89337L62.9045 5.91373C62.4237 7.38205 62.1355 9.12558 62.0756 10.6813C62.0141 12.2872 62.1873 12.1642 62.4641 13.1355C61.8231 13.7021 60.5781 14.0405 59.6198 13.448C58.7585 12.917 58.9949 11.5393 59.0289 10.398L59.0256 10.3996ZM68.0525 6.5807C68.7858 5.58671 70.1327 3.5874 71.4926 3.364C73.7412 2.99489 72.2081 6.503 71.0296 7.23635C70.8111 6.94495 70.5893 6.60175 70.0664 6.78468C69.4188 7.01132 68.386 8.63182 68.0622 9.21785C67.6996 9.87512 67.4001 10.4725 67.1006 11.1848C66.4093 12.8377 66.7477 12.5997 66.8545 13.4399C65.935 13.7572 64.4035 14.0421 63.8628 13.2035C63.4792 12.6094 64.1267 10.8044 64.3113 10.1066C64.58 9.0851 64.8309 8.03122 65.0495 6.98866C65.3279 5.66604 65.5529 4.93754 65.1223 3.84804C65.9399 3.61492 67.2868 3.11469 68.0541 3.72177C68.8668 4.36446 68.0671 5.6887 68.0509 6.57908L68.0525 6.5807Z" fill="#ED1C24"/>
<path fill-rule="evenodd" clip-rule="evenodd" d="M0 25.6186H73.3157C75.145 25.6186 76.4142 25.7773 77.8161 24.9015C78.5754 24.4271 79.8834 23.0511 79.8883 21.7803C79.6358 21.9519 79.5062 22.2028 79.2618 22.4181C76.9954 24.4255 75.0203 23.9998 71.815 23.9998H0.00485663L0 25.6186Z" fill="#FFD503"/>
</g>
</g>
<defs>
<clipPath id="clip0_1801_10117">
<rect width="80" height="25.6301" fill="white"/>
</clipPath>
<clipPath id="clip1_1801_10117">
<rect width="80" height="25.6301" fill="white"/>
</clipPath>
</defs>
</svg>
