<svg width="80" height="43" viewBox="0 0 80 43" fill="none" xmlns="http://www.w3.org/2000/svg">
<g clip-path="url(#clip0_1801_11773)">
<path fill-rule="evenodd" clip-rule="evenodd" d="M75.717 5.93856C78.0224 6.6512 79.3747 7.8189 79.8083 10.4462C79.877 10.8798 79.8727 11.4508 79.8855 11.893C79.9113 12.8117 79.9242 13.7346 79.9371 14.6576C79.9714 17.285 79.9843 19.9123 79.9929 22.5396C79.9972 25.1068 79.9972 27.6783 79.98 30.2498C79.9714 31.1728 79.9628 32.0915 79.9456 33.0145C79.9371 33.5039 79.9371 34.0319 79.8898 34.5213L79.8254 35.1825L79.1729 35.307C78.2928 35.4744 77.3355 35.5173 76.4426 35.5517C75.6612 35.5817 74.8756 35.5903 74.0986 35.6418C69.1144 35.9638 64.1345 36.2901 59.1632 36.8138C52.8225 37.4835 46.4989 38.3292 40.1581 39.0032C33.8818 39.6729 27.6398 40.6131 21.3849 41.4588C19.7965 41.6735 18.2209 41.9225 16.6282 42.1071C15.6966 42.2144 14.7608 42.3045 13.8249 42.3432C13.0178 42.3775 12.1678 42.3818 11.3693 42.2702C7.24803 41.6864 6.73716 39.0633 6.56974 35.6805C5.4879 35.5731 4.62501 35.6161 3.45302 35.0494C-0.230372 33.2721 0.117361 28.1806 0.117361 24.7676C0.117361 22.2004 0.0529657 19.6332 0.0229147 17.066C-0.0157223 14.1725 -0.0243082 11.2533 0.151705 8.36411L0.203221 7.53985L1.02748 7.53127C2.79619 7.51409 4.58208 7.40247 6.35079 7.3252C11.8888 7.08909 17.431 6.62974 22.9432 6.05447C28.9062 5.4277 34.8563 4.65925 40.7892 3.79636C47.1729 2.87336 53.5437 1.81729 59.9574 1.0746C61.035 0.9501 62.1082 0.774087 63.1772 0.598074C66.1437 0.121552 70.4066 -0.66836 73.0811 1.0746C74.7769 2.18219 75.4809 4.0153 75.717 5.93427V5.93856Z" fill="white"/>
<path fill-rule="evenodd" clip-rule="evenodd" d="M1.03606 8.41992C0.718381 13.5157 1.00172 19.5688 1.00172 24.7676C1.00172 27.7556 0.619642 32.6968 3.8351 34.2466C5.11012 34.8605 6.02452 34.6587 7.42404 34.8948C7.5743 38.6083 7.79753 40.8664 11.4981 41.3858C13.9709 41.7336 18.7275 40.9179 21.269 40.5745C27.5196 39.7287 33.8217 38.78 40.068 38.1146C46.3572 37.4449 52.6765 36.5991 59.0731 35.9251C64.186 35.3842 68.9642 35.0794 74.0428 34.7532C75.4938 34.6587 77.6489 34.6974 79.0098 34.4355C79.1729 32.7183 79.13 11.7942 78.9325 10.5922C78.5289 8.1237 77.2496 7.24363 74.8928 6.62974C74.3046 -1.59994 66.4528 1.22056 60.0605 1.95896C53.7326 2.69306 47.233 3.76631 40.918 4.68072C29.9408 6.26912 17.5856 7.74162 6.38943 8.21814C4.89547 8.28254 2.42699 8.40704 1.03606 8.42421V8.41992ZM2.49997 9.86666C4.57349 9.62625 11.438 9.42448 14.4087 9.20553C18.3283 8.9179 22.2392 8.553 26.0771 8.09365C37.5222 6.73277 48.5552 4.90824 59.7299 3.50014C62.2585 3.18246 69.0285 1.89885 71.0763 2.7274C72.6433 3.36277 73.3516 4.52617 73.4074 6.66408C73.4632 8.77194 73.3945 11 73.3945 13.125C73.3945 17.3279 73.489 21.6338 73.3859 25.8237L61.3183 26.4033C49.9805 27.1159 38.2478 28.7816 27.0688 30.3314C23.3768 30.8465 19.6591 31.439 16.0573 32.0529C13.563 32.4779 6.88742 33.843 4.73663 33.0317C1.78734 31.9198 2.4871 26.0727 2.4871 22.5653C2.4871 18.5042 2.27674 13.8548 2.50427 9.86666H2.49997Z" fill="#FF0000"/>
<path fill-rule="evenodd" clip-rule="evenodd" d="M10.4721 13.447L7.22656 13.7862L5.76265 26.7811L8.68189 26.4763L8.83214 25.1411H8.8622C9.1627 25.9997 9.83241 26.6222 11.189 26.4806C13.8592 26.2015 15.1429 23.8361 15.4691 21.037C15.7911 18.1865 14.5547 16.246 12.464 16.465C11.4981 16.568 10.7125 17.0059 9.96979 17.9418L10.4764 13.447H10.4721ZM10.5794 23.8661C9.51902 23.9777 9.34301 22.7285 9.45892 21.7196C9.57483 20.7451 10.0943 19.586 11.0774 19.483C12.1249 19.3713 12.3095 20.4961 12.1936 21.505C12.0776 22.5353 11.6398 23.7545 10.5794 23.8661ZM16.2333 25.6778L19.4788 25.3386L19.848 22.0716C20.0798 20.0325 20.8311 19.2383 22.1576 19.1009C22.3765 19.0794 22.5955 19.1266 22.8187 19.1395L23.248 15.3874C23.1064 15.3874 22.9647 15.3617 22.823 15.3789C21.5566 15.5119 20.6808 16.2976 20.0669 17.8259H20.0369L20.2429 15.9155L17.2936 16.2246L16.2333 25.6821V25.6778ZM26.5665 24.5916L27.6269 15.1342L24.3814 15.4733L23.321 24.9308L26.5665 24.5916ZM24.5188 14.267L27.7643 13.9278L28.0648 11.2576L24.8193 11.5967L24.5188 14.267ZM33.4053 16.92C34.4356 16.8127 34.6631 17.7701 34.5472 18.8133C34.4313 19.8221 33.9419 20.8567 32.9545 20.9082C32.0787 20.9812 31.7782 20.1398 31.8812 19.2039C32.0186 17.9761 32.4179 17.0059 33.4053 16.92ZM28.4426 24.875C28.4511 26.2487 29.5201 27.4551 32.405 27.1503C36.4318 26.7295 36.9513 24.48 37.2775 21.6466L38.1276 14.0309L35.2727 14.3314L35.1353 15.5763C34.6631 14.7177 33.8088 14.2155 32.8257 14.3228C30.1426 14.6061 28.8976 17.1776 28.6314 19.5087C28.3696 21.9257 29.4171 23.8489 31.6838 23.6128C32.8558 23.4883 33.6156 22.9302 34.1394 22.3378L34.0621 23.1148C33.9118 24.4671 33.4782 24.9952 32.5424 25.0939C32.2161 25.1283 31.9929 25.0639 31.8598 24.9351C31.7439 24.8063 31.6924 24.6517 31.7009 24.5401L28.4383 24.8836L28.4426 24.875ZM38.7114 23.3166L41.9569 22.9775L42.4978 18.1607C42.6352 16.9501 42.9829 16.1859 43.9832 16.0786C44.9062 15.9799 45.0307 16.787 44.9277 17.7271L44.361 22.7242L47.6065 22.385L48.2376 16.7183C48.5381 14.1167 47.6838 12.7644 45.533 12.992C44.4383 13.1079 43.6483 13.6874 42.8885 14.7134L43.4165 9.98686L40.171 10.326L38.7071 23.3209L38.7114 23.3166ZM54.823 18.9678L54.3079 19.0236C53.402 19.1181 53.3291 18.8218 53.4321 17.9547L53.8099 14.5288L55.3725 14.3657L55.6129 12.202L54.0503 12.3652L54.3851 9.42448L51.1869 9.75933L50.852 12.7L49.65 12.8245L49.4095 14.9882L50.5644 14.868L50.1265 18.8176C49.7573 22.0845 50.2252 22.3722 54.5225 21.6552L54.823 18.9678Z" fill="#FF0000"/>
<path fill-rule="evenodd" clip-rule="evenodd" d="M71.0334 12.6013L69.0972 10.0598L62.6406 13.2452L62.1984 20.7108L65.4654 20.3502L65.6285 16.8771L69.0157 19.3799L70.2263 16.2718L67.4015 14.4559L71.0334 12.6013Z" fill="#FF6600"/>
<path fill-rule="evenodd" clip-rule="evenodd" d="M28.7817 33.5254C28.786 33.0059 28.9234 32.9887 29.314 32.9458L29.3656 32.1344L28.8547 32.1945C28.0905 32.2847 27.6698 32.5165 27.5968 33.667L27.1933 33.7143L27.1461 34.4612L27.541 34.414L27.3865 36.9211L28.5799 36.7837L28.7345 34.2766L29.2325 34.2208L29.2797 33.4738L28.7817 33.5297V33.5254ZM31.2459 34.0105C31.5593 33.9547 31.7353 34.2938 31.7009 34.7703C31.6666 35.3842 31.4519 35.6762 31.13 35.7105C30.8252 35.7448 30.632 35.5044 30.6663 34.8862C30.6878 34.5213 30.838 34.0534 31.2416 34.0062L31.2459 34.0105ZM29.4729 35.0966C29.4085 36.2085 30.1125 36.6936 31.0785 36.582C32.0401 36.4704 32.8257 35.8264 32.8987 34.633C32.9631 33.6198 32.3492 33.0188 31.2888 33.1433C30.2714 33.2592 29.5459 33.9675 29.4772 35.0966H29.4729ZM35.0752 33.5683C35.3886 33.5125 35.5646 33.8516 35.5303 34.3282C35.4959 34.9421 35.2813 35.234 34.9593 35.2683C34.6545 35.3027 34.4613 35.0623 34.4957 34.4441C34.5171 34.0792 34.6674 33.6112 35.0709 33.564L35.0752 33.5683ZM33.3022 34.6544C33.2378 35.7663 33.9419 36.2514 34.9078 36.1398C35.8694 36.0282 36.6551 35.3842 36.728 34.1908C36.7924 33.1776 36.1785 32.5766 35.1182 32.7011C34.1007 32.817 33.3752 33.5254 33.3022 34.6544ZM40.3814 35.4143L40.6604 30.941L39.467 31.0784L39.3682 32.6238C39.1364 32.3319 38.8788 32.2632 38.501 32.3061C37.7841 32.3877 37.1831 33.1562 37.1144 34.238C37.0586 35.1567 37.4707 35.8436 38.3765 35.7363C38.7629 35.6933 39.0291 35.5302 39.3339 35.1009L39.3081 35.5345L40.3814 35.41V35.4143ZM38.7372 34.7703C38.3465 34.8176 38.2907 34.4269 38.3122 34.0877C38.3336 33.7271 38.471 33.3064 38.866 33.2592C39.2609 33.212 39.3511 33.5898 39.3253 33.9504C39.3081 34.3282 39.1493 34.7231 38.7372 34.7703ZM46.207 34.7403V34.6759C46.0653 34.56 46.061 34.4655 46.0782 34.2809L46.1726 32.7612C46.2199 31.9842 46.1726 31.4218 44.7474 31.5849C43.5582 31.7223 43.086 32.1774 43.0387 32.8685L44.185 32.7354C44.2322 32.4521 44.4554 32.3877 44.6229 32.3705C44.7474 32.3577 45.0092 32.3577 44.9921 32.5938C44.9577 33.2034 42.8584 32.7784 42.764 34.2595C42.7211 34.9335 43.2062 35.1825 43.7728 35.1138C44.2193 35.0623 44.5713 34.9206 44.932 34.5428L44.9663 34.8819L46.1984 34.7403H46.207ZM44.3653 34.3196C44.1292 34.3453 43.9918 34.2509 44.0047 34.092C44.0304 33.6713 44.5413 33.71 44.9448 33.461C44.9448 33.9031 44.786 34.2723 44.3653 34.3196ZM46.6749 34.6888L47.8684 34.5514L47.9714 32.8943C47.9972 32.4779 48.1088 32.2117 48.478 32.1688C48.8171 32.1301 48.8815 32.4049 48.8601 32.7269L48.7527 34.4484L49.9462 34.311L50.0664 32.362C50.1265 31.469 49.783 31.0054 48.9888 31.0998C48.5338 31.1513 48.229 31.396 47.9371 31.821L47.9671 31.3102L46.8767 31.4347L46.6749 34.6888ZM53.7755 33.8645L54.0546 29.3912L52.8611 29.5286L52.7624 31.0741C52.5306 30.7821 52.273 30.7134 51.8952 30.7564C51.1783 30.8379 50.5772 31.6064 50.5086 32.6882C50.4528 33.6069 50.8649 34.2938 51.7707 34.1865C52.1571 34.1436 52.4232 33.9804 52.728 33.5511L52.7023 33.9847L53.7755 33.8602V33.8645ZM52.1313 33.2206C51.7407 33.2678 51.6848 32.8771 51.7063 32.5337C51.7278 32.1731 51.8651 31.7524 52.2601 31.7051C52.6551 31.6579 52.7452 32.0357 52.7195 32.3963C52.7023 32.7741 52.5434 33.169 52.1313 33.2163V33.2206ZM59.5153 33.1991L59.7943 28.7258L58.6009 28.8632L58.5021 30.4086C58.2703 30.1167 58.0127 30.048 57.6349 30.091C56.918 30.1725 56.317 30.941 56.2483 32.0228C56.1925 32.9415 56.6046 33.6284 57.5104 33.5211C57.8968 33.4781 58.163 33.315 58.4678 32.8857L58.442 33.3193L59.5153 33.1948V33.1991ZM57.871 32.5551C57.4804 32.6024 57.4246 32.2117 57.446 31.8726C57.4675 31.5119 57.6049 31.0912 57.9998 31.044C58.3948 30.9968 58.4849 31.3746 58.4592 31.7352C58.442 32.113 58.2832 32.5079 57.871 32.5551ZM60.0905 33.1304L61.284 32.993L61.3527 31.8683C61.3956 31.1642 61.6575 30.8895 62.1469 30.8337C62.2284 30.8251 62.31 30.8379 62.3916 30.8422L62.4731 29.55C62.4216 29.55 62.3701 29.5458 62.3143 29.55C61.8507 29.6059 61.5416 29.8806 61.3441 30.4086H61.3312L61.3698 29.7518L60.2837 29.8763L60.0819 33.1304H60.0905ZM63.8898 32.6925L64.0916 29.4384L62.8982 29.5758L62.6964 32.8299L63.8898 32.6925ZM62.9239 29.1594L64.1174 29.022L64.1732 28.1033L62.9797 28.2407L62.9239 29.1594ZM64.5252 32.6195L65.7186 32.4822L65.8217 30.8251C65.8474 30.4086 65.959 30.1425 66.3282 30.0995C66.6674 30.0609 66.7318 30.3357 66.7103 30.6576L66.603 32.3791L67.7965 32.2418L67.9167 30.2927C67.9768 29.3998 67.6333 28.9361 66.8391 29.0306C66.3841 29.0821 66.0793 29.3268 65.7873 29.7518L65.8174 29.2409L64.727 29.3654L64.5252 32.6195ZM69.87 30.8551L70.4409 31.937L71.8748 31.7695L70.7458 29.9192L71.9306 28.5283L70.5354 28.6914L69.7111 29.7733L69.8485 27.5624L68.6551 27.6998L68.376 32.1731L69.5695 32.0357L69.6253 31.1213L69.8657 30.8551H69.87Z" fill="white"/>
<path fill-rule="evenodd" clip-rule="evenodd" d="M63.3661 7.59566L66.4356 7.23505L65.9118 15.1041L59.5324 17.9289L57.6392 15.263L61.3097 13.6488L58.4034 11.674L59.7771 8.72472L63.1257 11.1073L63.3661 7.59566Z" fill="#FF0000"/>
</g>
<defs>
<clipPath id="clip0_1801_11773">
<rect width="79.9952" height="42.3646" fill="white"/>
</clipPath>
</defs>
</svg>
