<svg width="67" height="80" viewBox="0 0 67 80" fill="none" xmlns="http://www.w3.org/2000/svg">
<g clip-path="url(#clip0_1801_11758)">
<g clip-path="url(#clip1_1801_11758)">
<path d="M66.9918 0H0V80H66.9918V0Z" fill="white"/>
<path d="M66.017 0.97522H0.975586V66.0166H66.017V0.97522Z" fill="#EE3124"/>
<path d="M52.8758 48.6018C56.0073 44.5134 57.8872 39.3168 57.8872 33.4945C57.8872 19.6415 47.3507 9.10498 33.4976 9.10498C19.6446 9.10498 9.10547 19.6441 9.10547 33.4971C9.10547 47.3502 19.6419 57.8867 33.495 57.8867C38.3943 57.8867 42.8895 56.5595 46.6467 54.2389L31.3935 34.5662V46.9435H22.8099V20.0482H31.3935V32.4281L40.2351 20.0482H50.0363L40.4933 32.9809L52.8706 48.6044L52.8758 48.6018Z" fill="white"/>
<path d="M66.017 69.2679H0.975586V79.0248H66.017V69.2679Z" fill="#F8971D"/>
</g>
</g>
<defs>
<clipPath id="clip0_1801_11758">
<rect width="66.9918" height="80" fill="white"/>
</clipPath>
<clipPath id="clip1_1801_11758">
<rect width="66.9918" height="80" fill="white"/>
</clipPath>
</defs>
</svg>
