<svg width="80" height="32" viewBox="0 0 80 32" fill="none" xmlns="http://www.w3.org/2000/svg">
<g clip-path="url(#clip0_1801_11767)">
<path fill-rule="evenodd" clip-rule="evenodd" d="M0 26.2752H80V0H0V26.2752Z" fill="#EE3124"/>
<path fill-rule="evenodd" clip-rule="evenodd" d="M3.17742e-05 31.531H80V27.5912H3.17742e-05V31.531Z" fill="#F8971D"/>
<path fill-rule="evenodd" clip-rule="evenodd" d="M64.5739 5.25585C59.5388 5.25585 55.7073 9.08739 55.7073 14.1184C55.7073 19.1493 59.5388 22.9892 64.5739 22.9892C66.3523 22.9892 67.989 22.5103 69.355 21.6607L63.8076 14.5057V19.0119H60.6924V9.23316H63.8076V13.7352L67.0186 9.23316H70.5836L67.1144 13.9351L71.6165 19.6116C72.7534 18.1248 73.4406 16.2382 73.4406 14.1184C73.4406 9.08323 69.6049 5.25169 64.5739 5.25169V5.25585ZM11.707 9.0624C8.7501 9.0624 6.56779 11.2739 6.56779 14.1225C6.56779 16.9712 8.7501 19.191 11.707 19.191C13.6145 19.191 15.1887 18.2414 16.0842 16.7796L14.1392 15.5094C13.6353 16.2965 12.8274 16.8754 11.7612 16.8754C10.1911 16.8754 9.10826 15.6302 9.10826 14.1267C9.10826 12.6232 10.1911 11.378 11.7612 11.378C12.8315 11.378 13.5895 11.9236 14.1184 12.769L16.1091 11.4613C15.2137 9.96615 13.6145 9.06657 11.707 9.06657V9.0624ZM33.551 9.0624C30.5899 9.0624 28.4117 11.2739 28.4117 14.1225C28.4117 16.9712 30.5899 19.191 33.551 19.191C35.4626 19.191 37.0327 18.2414 37.9281 16.7796L35.9832 15.5094C35.4751 16.2965 34.6713 16.8754 33.6051 16.8754C32.035 16.8754 30.9522 15.6302 30.9522 14.1267C30.9522 12.6232 32.035 11.378 33.6051 11.378C34.6713 11.378 35.4293 11.9236 35.9623 12.769L37.9531 11.4613C37.0618 9.96615 35.4667 9.06657 33.5551 9.06657L33.551 9.0624ZM16.8088 9.23732V19.0161H19.3243V9.23732H16.8088ZM20.4904 9.23732H23.6348C26.3835 9.23732 27.9161 10.3201 27.9161 12.4691C27.9161 13.9018 27.0998 14.868 26.1045 15.2887L28.595 19.0161H25.6255L23.0059 14.9138V19.0161H20.4904V9.23732ZM38.5819 9.23732V19.0161H44.5208V16.7879H41.1349V9.23732H38.5819ZM45.3371 9.23732V19.0161H51.7758V16.7879H47.8526V15.1346H51.5884V13.0772H47.8526V11.4529H51.7633V9.23316H45.3329L45.3371 9.23732ZM23.0017 14.26H23.7056C24.7051 14.26 25.4131 13.7727 25.4131 12.7523C25.4131 11.732 24.7468 11.3072 23.7222 11.3072H23.0017V14.26ZM0 26.2752L3.17742e-05 27.5912H80L80 26.2752H0Z" fill="white"/>
</g>
<defs>
<clipPath id="clip0_1801_11767">
<rect width="80" height="31.531" fill="white"/>
</clipPath>
</defs>
</svg>
