<svg width="80" height="38" viewBox="0 0 80 38" fill="none" xmlns="http://www.w3.org/2000/svg">
<g clip-path="url(#clip0_1801_10918)">
<g clip-path="url(#clip1_1801_10918)">
<path d="M1.61592 37.7657C0.72056 37.6155 0.13837 37.0123 0.0208334 36.113C0.00327761 35.9787 -0.00342675 29.9295 0.00165039 18.8069L0.00945275 1.70725L0.0716332 1.4882C0.278757 0.758556 0.747612 0.281003 1.46068 0.0733872L1.67971 0.00961337L39.8218 0.00190417C67.1474 -0.0036221 78.03 0.00263078 78.1967 0.023939C78.4746 0.05945 78.8229 0.173984 79.0386 0.300804C79.1248 0.351484 79.2883 0.485981 79.402 0.599684C79.7327 0.930332 79.9148 1.33534 79.9757 1.8749C79.9978 2.0715 80.0039 6.79259 79.9978 19.1628C79.9898 35.343 79.987 36.1891 79.9409 36.3583C79.9142 36.4562 79.8381 36.6483 79.7717 36.7852C79.5149 37.3145 79.0325 37.6463 78.3402 37.7698C78.02 37.8269 1.95652 37.8228 1.61592 37.7657Z" fill="#019EC4"/>
<path d="M78.3216 36.4807C78.4631 36.3936 78.6081 36.2068 78.6679 36.0345C78.696 35.9534 78.7042 32.6305 78.7098 18.9032C78.716 3.76924 78.7121 1.85672 78.6753 1.73012C78.6254 1.55844 78.5294 1.43811 78.3777 1.35692L78.2647 1.29651H40.0678H1.87094L1.72615 1.36193C1.54089 1.44565 1.3763 1.63043 1.32267 1.8149C1.28689 1.938 1.28285 3.99434 1.28898 18.999L1.29593 36.0434L1.35888 36.1799C1.44165 36.3595 1.51348 36.434 1.67927 36.5122L1.81617 36.5768L40.0015 36.5702L78.1869 36.5636L78.3216 36.4807Z" fill="white"/>
<path d="M39.726 19.3579C39.6012 19.3305 39.4794 19.2656 39.411 19.1901C39.3597 19.1335 39.3558 19.0848 39.3482 18.4082L39.3401 17.6867L38.6179 17.6786C37.8984 17.6705 37.8955 17.6702 37.8258 17.6047C37.7096 17.4955 37.6587 17.3194 37.6587 17.027C37.6587 16.7305 37.7144 16.5423 37.8288 16.4523C37.8949 16.4003 37.939 16.3972 38.6207 16.3972H39.3426V15.7118C39.3426 14.8997 39.3473 14.88 39.564 14.772C39.6947 14.7069 39.7384 14.6998 39.9983 14.7017C40.2991 14.7038 40.4008 14.7276 40.5356 14.8274L40.6159 14.8868L40.6296 15.6352L40.6433 16.3835L41.3918 16.3972L42.1404 16.4109L42.2055 16.4867C42.2967 16.5928 42.3337 16.7541 42.3331 17.0422C42.3325 17.3399 42.2918 17.4911 42.1846 17.5938L42.1046 17.6705L41.3671 17.6786L40.6296 17.6867V18.4073C40.6296 19.2251 40.6305 19.2215 40.4042 19.3134C40.2748 19.3659 39.8803 19.3918 39.726 19.3579Z" fill="#F27D2E"/>
<path d="M64.6152 23.8208C64.3525 23.7354 64.1408 23.537 64.0036 23.2476L63.917 23.0647V16.9723V10.88L63.9906 10.7229C64.0802 10.5318 64.2803 10.3259 64.4646 10.2354C64.5776 10.1798 64.6421 10.1681 64.8343 10.1683C65.1161 10.1686 65.2586 10.225 65.4641 10.4172C65.6831 10.6221 66.3295 11.5697 69.8235 16.808C70.7425 18.186 71.5115 19.3315 71.5323 19.3535C71.5644 19.3876 71.5701 18.7801 71.5701 15.298C71.5701 12.6421 71.5798 11.1505 71.5979 11.0549C71.6592 10.7293 71.8848 10.4282 72.1664 10.2962C72.3767 10.1977 72.7197 10.1917 72.9186 10.2832C73.2039 10.4143 73.454 10.7408 73.5148 11.0613C73.5538 11.2673 73.551 22.7151 73.5118 22.9296C73.466 23.1807 73.3441 23.409 73.172 23.5663C72.9757 23.7458 72.8181 23.7989 72.5199 23.7862C72.2413 23.7742 72.0471 23.6845 71.8189 23.4624C71.6556 23.3035 71.6384 23.2784 70.5444 21.5998C70.1666 21.02 69.6667 20.253 69.4337 19.8954C69.2006 19.5378 68.8796 19.0449 68.7203 18.8001C68.4556 18.3933 67.563 17.0222 66.5231 15.4253C66.2976 15.0789 66.0563 14.7093 65.987 14.6038L65.8611 14.4122L65.8474 18.711C65.8324 23.4161 65.8452 23.0686 65.6762 23.3565C65.4958 23.6639 65.2306 23.8256 64.889 23.8364C64.7761 23.84 64.6529 23.833 64.6152 23.8208Z" fill="#019EC4"/>
<path d="M54.635 23.7956C54.3402 23.6932 54.1351 23.494 54.0131 23.1917C53.9522 23.0409 53.9505 23.0099 53.942 21.9009C53.9333 20.7529 53.9579 20.1734 54.0882 18.4624C54.1909 17.1138 54.6472 15.4919 55.2784 14.2324C56.0266 12.7394 57.0839 11.5662 58.2951 10.8854C58.9308 10.528 59.4714 10.3509 60.3166 10.2234C60.9473 10.1282 61.9487 10.144 62.2753 10.2543C62.6413 10.3779 62.8959 10.6811 62.9724 11.0841C63.0103 11.2842 63.0104 22.7686 62.9724 22.9718C62.9106 23.3029 62.6936 23.6107 62.421 23.7537C62.2918 23.8215 62.2449 23.8308 62.0279 23.8309C61.7339 23.831 61.6089 23.7831 61.3921 23.5872C61.2298 23.4405 61.0986 23.2004 61.056 22.9718C61.0404 22.8881 61.0285 22.3347 61.0285 21.6916V20.5589L58.4615 20.5659L55.8945 20.5729L55.8808 21.8194L55.8672 23.0659L55.7779 23.2472C55.6651 23.4762 55.3977 23.7357 55.2079 23.8004C55.0395 23.8577 54.8083 23.8558 54.635 23.7956ZM61.0218 15.3499L61.0288 12.3448L60.8849 12.3448C60.68 12.3449 60.3212 12.4128 60.0027 12.5117C58.4569 12.9919 57.2221 14.3878 56.5516 16.413C56.3567 17.0017 56.0999 18.075 56.0999 18.3008V18.3695L58.5574 18.3622L61.0148 18.355L61.0218 15.3499Z" fill="#019EC4"/>
<path d="M44.5955 23.8068C44.3356 23.714 44.121 23.5188 43.9902 23.2563C43.8885 23.0522 43.8878 23.0125 43.8878 17.0314C43.8878 10.6258 43.8778 11.0294 44.0451 10.7218C44.1325 10.5614 44.3206 10.3858 44.5063 10.2912L44.6408 10.2228H46.4069C48.2862 10.2228 48.3692 10.2274 48.9044 10.3618C50.5058 10.7639 51.9112 11.9702 52.7301 13.6454C53.0821 14.3654 53.298 15.0743 53.4223 15.9181C53.4723 16.2575 53.483 16.4525 53.4839 17.0407C53.4852 17.9534 53.4204 18.4859 53.2204 19.2038C52.7813 20.7798 51.7535 22.2128 50.5086 22.9848C49.7777 23.438 48.9365 23.729 48.1038 23.8167C47.6967 23.8596 44.7197 23.8512 44.5955 23.8068ZM48.3819 21.5512C49.1101 21.3749 49.7009 21.0561 50.1894 20.5758C50.8489 19.9274 51.2563 19.1293 51.4488 18.1093C51.521 17.7264 51.5488 16.8379 51.5016 16.4219C51.3537 15.1183 50.7611 13.9569 49.8784 13.2406C49.4857 12.9219 49.1445 12.7324 48.6925 12.5819C48.2404 12.4313 48.1451 12.4217 46.9614 12.4076L45.8593 12.3944V17.0126V21.6308L47.0024 21.6196C48.0452 21.6094 48.1664 21.6034 48.3819 21.5512Z" fill="#019EC4"/>
<path d="M27.1332 23.802C26.7791 23.6728 26.5472 23.3582 26.4742 22.9082C26.4364 22.6752 26.4363 11.3112 26.4742 11.0442C26.5263 10.6763 26.7413 10.3698 27.0484 10.2259C27.2214 10.1449 27.5835 10.1461 27.7651 10.2284C28.0359 10.351 28.1178 10.4529 29.038 11.8109C30.0021 13.2337 30.4025 13.8296 32.0458 16.2878C32.9469 17.6356 33.7837 18.8862 33.9053 19.067L34.1264 19.3955L34.1401 15.2062L34.1538 11.0169L34.2151 10.8663C34.3166 10.6167 34.4919 10.4198 34.7062 10.3143C34.8727 10.2323 34.9161 10.2228 35.1253 10.2228C35.3246 10.2228 35.381 10.2338 35.5126 10.2984C35.8011 10.4401 36.0262 10.7514 36.0838 11.0884C36.1049 11.212 36.1114 12.976 36.1058 17.1092L36.0979 22.9551L36.0322 23.1194C35.9033 23.442 35.6928 23.67 35.4489 23.751C35.2341 23.8223 34.9078 23.7976 34.7017 23.6944C34.3988 23.5427 34.2734 23.3828 33.37 21.9966C32.9088 21.2889 32.2303 20.2478 31.8622 19.683C31.1255 18.5526 31.1013 18.5154 30.347 17.3556C29.7507 16.4388 29.0052 15.2939 28.6627 14.7693L28.431 14.4145L28.4173 18.7122C28.4025 23.3684 28.4132 23.0415 28.2661 23.3259C28.1917 23.4697 27.9777 23.6805 27.8302 23.7553C27.653 23.8451 27.3135 23.8679 27.1332 23.802Z" fill="#019EC4"/>
<path d="M17.2262 23.8053C16.8726 23.6947 16.6389 23.4408 16.5347 23.054C16.5167 22.9871 16.5049 22.5129 16.5036 21.8008C16.5018 20.8386 16.5129 20.484 16.5731 19.5872C16.6871 17.8893 16.6807 17.9461 16.8536 17.1229C17.5188 13.9564 19.2027 11.5594 21.4351 10.6011C21.9121 10.3964 22.5521 10.2495 23.2697 10.18C23.685 10.1398 24.4659 10.1632 24.7185 10.2235C25.178 10.333 25.4691 10.6534 25.5423 11.1299C25.5621 11.2586 25.5688 13.1608 25.5636 17.1503L25.556 22.9825L25.4904 23.1468C25.3705 23.4468 25.1926 23.6582 24.9673 23.7682C24.7903 23.8547 24.4057 23.8565 24.2221 23.7716C24.0483 23.6913 23.8274 23.4797 23.742 23.3116C23.604 23.0401 23.5989 22.9839 23.5986 21.7298L23.5983 20.5592H21.0257H18.4531L18.445 21.8119L18.4369 23.0646L18.3568 23.2289C18.2466 23.4551 17.9605 23.7388 17.7817 23.7993C17.6225 23.8532 17.3877 23.8557 17.2262 23.8053ZM23.5915 15.3459L23.5985 12.3367L23.3451 12.3549C22.9086 12.3863 22.4824 12.5086 21.9965 12.7422C20.5138 13.4549 19.4342 15.0098 18.8787 17.2324C18.7676 17.6766 18.6696 18.1716 18.6696 18.2881V18.369L21.1271 18.362L23.5846 18.355L23.5915 15.3459Z" fill="#019EC4"/>
<path d="M7.15288 23.807C6.8998 23.7259 6.68383 23.5185 6.54605 23.2244L6.47119 23.0646L6.4628 17.1366C6.45649 12.6703 6.46236 11.1714 6.48661 11.0579C6.55588 10.7339 6.78106 10.4337 7.05642 10.2985L7.21048 10.2228H8.97657C10.8833 10.2228 10.9396 10.2261 11.5093 10.3743C12.4598 10.6214 13.257 11.0909 14.016 11.8504C14.5861 12.4209 14.9192 12.8924 15.3039 13.6728C15.7696 14.6176 16.0169 15.6355 16.0589 16.7803C16.1348 18.8499 15.4666 20.7048 14.1378 22.1131C13.4485 22.8437 12.5259 23.3915 11.5477 23.6511C10.8872 23.8263 10.8788 23.8269 8.99026 23.8353C7.62272 23.8414 7.24196 23.8356 7.15288 23.807ZM10.9138 21.5619C12.5202 21.1846 13.6301 19.9849 13.9853 18.2417C14.0794 17.78 14.1051 17.4363 14.0883 16.8627C14.064 16.0345 13.9231 15.4325 13.5896 14.7332C13.0006 13.4983 11.975 12.6752 10.7427 12.4485C10.6074 12.4237 10.2365 12.4133 9.48313 12.4133H8.41526L8.40833 17.022L8.40141 21.6308L9.55834 21.6197C10.5239 21.6104 10.7481 21.6008 10.9138 21.5619Z" fill="#019EC4"/>
<path d="M67.1291 31.6906C66.8736 31.6203 66.6892 31.4557 66.562 31.1845L66.4908 31.0326L66.4771 29.91L66.4634 28.7874L66.2649 28.7793L66.0664 28.7713V28.5124V28.2535H66.2718H66.4771V27.7058V27.1582H66.8331H67.189V27.7058V28.2535H67.5313H67.8736V28.5136V28.7737H67.5313H67.189L67.1895 29.821C67.1899 30.9651 67.1888 30.9568 67.3509 31.0661C67.4278 31.1179 67.4801 31.1285 67.6586 31.1285H67.8736V31.4297V31.7309L67.5655 31.7284C67.3961 31.7271 67.1997 31.7101 67.1291 31.6906Z" fill="#82BE42"/>
<path d="M49.7476 29.2376V26.7443L50.9318 26.7538C52.0848 26.763 52.1207 26.7649 52.292 26.826C52.8454 27.0235 53.1472 27.4163 53.1887 27.9933C53.2221 28.4556 53.0154 28.8839 52.6579 29.0934L52.5395 29.1627L52.6974 29.2574C53.0271 29.4551 53.1976 29.7088 53.2548 30.0867C53.3535 30.7389 53.0854 31.3075 52.5567 31.5671C52.2511 31.7172 52.1209 31.7298 50.877 31.7304L49.7476 31.7308V29.2376ZM51.8602 31.048C52.2864 30.9782 52.5131 30.7166 52.5131 30.2948C52.5131 29.9606 52.3731 29.737 52.0768 29.5982C51.9248 29.5269 51.9225 29.5267 51.2125 29.5267H50.5005L50.4932 30.2656C50.4892 30.672 50.4919 31.0201 50.4992 31.0391C50.5154 31.0813 51.6133 31.0884 51.8602 31.048ZM52.0613 28.7694C52.3324 28.6253 52.4415 28.4407 52.439 28.1302C52.4365 27.8105 52.3347 27.6467 52.052 27.5075L51.8709 27.4183H51.1857H50.5005L50.4932 28.1391L50.4859 28.8598L51.2051 28.851C51.9232 28.8421 51.9246 28.842 52.0613 28.7694Z" fill="#82BE42"/>
<path d="M40.3008 29.2391V26.7474H40.6431H40.9853V27.6191C40.9853 28.0985 40.9933 28.4987 41.0031 28.5085C41.0129 28.5182 41.0678 28.4839 41.1251 28.4321C41.4623 28.1275 42.0663 28.0515 42.5098 28.258C42.6774 28.336 42.9274 28.5842 43.0087 28.7533C43.1434 29.0333 43.1478 29.0866 43.1481 30.4508L43.1484 31.7308H42.8082H42.468L42.4575 30.5329C42.4458 29.1984 42.4432 29.1784 42.2576 28.9873C42.1043 28.8295 41.9914 28.7873 41.7246 28.7879C41.5401 28.7884 41.4692 28.8007 41.3823 28.847C41.2363 28.9251 41.1384 29.0323 41.0622 29.1981C41 29.3332 40.999 29.3503 40.99 30.5329L40.9808 31.7308H40.6408H40.3008L40.3008 29.2391Z" fill="#82BE42"/>
<path d="M38.4848 31.6896C38.2316 31.62 38.021 31.4218 37.9091 31.1481C37.8534 31.0116 37.8503 30.9545 37.8419 29.8894L37.8332 28.7736H37.6295H37.4258V28.5135V28.2533H37.6311H37.8365V27.7057V27.1581H38.1925H38.5484V27.7057V28.2533H38.8907H39.2329V28.5126V28.7719L38.8975 28.7796L38.5621 28.7873L38.5551 29.8141C38.5488 30.747 38.5525 30.8496 38.5962 30.9367C38.6642 31.0724 38.792 31.1283 39.0344 31.1283H39.2329V31.4295V31.7307L38.9249 31.7283C38.7555 31.7269 38.5574 31.7095 38.4848 31.6896Z" fill="#82BE42"/>
<path d="M36.0762 31.7009C35.7436 31.6226 35.4975 31.3479 35.4292 30.9786C35.4094 30.8714 35.3994 30.1333 35.3994 28.7823V26.7474H35.7554H36.1113V28.7882C36.1113 31.0102 36.108 30.9615 36.2651 31.0647C36.3179 31.0994 36.4129 31.1189 36.5754 31.1284L36.8095 31.1421L36.8173 31.4365L36.8251 31.7308L36.5024 31.7281C36.325 31.7266 36.1332 31.7144 36.0762 31.7009Z" fill="#82BE42"/>
<path d="M22.7222 29.2391V26.7474H23.0915H23.4608L23.468 27.8085L23.4752 28.8695L24.4951 28.8767L25.5151 28.8839V27.8156V26.7474H25.8847H26.2544V29.2391V31.7308H25.8847H25.5151V30.6353V29.5397L24.4951 29.5469L23.4752 29.554L23.468 30.6424L23.4608 31.7308H23.0915H22.7222V29.2391Z" fill="#82BE42"/>
<path d="M16.6709 29.951V28.1712H17.0269H17.3828V28.352V28.5328L17.4776 28.4497C17.8621 28.112 18.4753 28.043 18.956 28.2831C19.1054 28.3576 19.3243 28.5802 19.4061 28.7406C19.5392 29.0014 19.5459 29.0836 19.5459 30.4496V31.7308H19.2037H18.8614V30.6269C18.8614 29.9521 18.8499 29.4598 18.8317 29.3605C18.7941 29.1547 18.6892 28.9848 18.5369 28.8831C18.2429 28.6868 17.7389 28.7596 17.5372 29.0275C17.3883 29.2251 17.3828 29.2793 17.3828 30.5543V31.7308H17.0269H16.6709V29.951Z" fill="#82BE42"/>
<path d="M8.40137 29.2391V26.7474H9.98948H11.5776V27.076V27.4046H10.3591H9.14066V28.1713V28.9379H10.1812H11.2216V29.2802V29.6225H10.1812H9.14066V30.6767V31.7308H8.77101H8.40137V29.2391Z" fill="#82BE42"/>
<path d="M63.2388 31.7554C63.0162 31.7312 62.7526 31.6149 62.5927 31.4705C62.4595 31.3501 62.3001 31.0429 62.2607 30.8304C62.2451 30.7459 62.2334 30.1466 62.2334 29.4271V28.1713H62.5739H62.9143L62.9243 29.3692C62.9356 30.7203 62.938 30.7378 63.1433 30.9431C63.288 31.0878 63.4122 31.136 63.6435 31.1374C63.9654 31.1393 64.1781 31.0157 64.3188 30.7451C64.3827 30.6221 64.3828 30.6202 64.391 29.3966L64.3991 28.1713H64.7538H65.1084V29.951V31.7308H64.7525H64.3965V31.5652V31.3995L64.2174 31.5273C63.9381 31.7266 63.631 31.7982 63.2388 31.7554Z" fill="#82BE42"/>
<path d="M59.1117 31.7556C58.7762 31.7236 58.5467 31.6145 58.3629 31.3998C58.2048 31.215 58.1447 31.0257 58.142 30.7035C58.1398 30.4468 58.1454 30.4175 58.2289 30.2478C58.3721 29.9567 58.6277 29.7704 58.9736 29.7048C59.0537 29.6896 59.3815 29.6772 59.7022 29.6772C60.3769 29.6772 60.336 29.6975 60.3036 29.3797C60.2563 28.9158 59.9882 28.7215 59.4367 28.7515C59.1694 28.766 59.0091 28.8275 58.8399 28.9804L58.7254 29.0839L58.5694 28.9317C58.4836 28.8481 58.3793 28.7489 58.3376 28.7114L58.2618 28.6432L58.4136 28.5044C58.7255 28.2193 59.067 28.1242 59.6807 28.1516C60.3069 28.1795 60.6857 28.3659 60.8734 28.7385C60.9925 28.9749 61.001 29.088 61.001 30.4452V31.7308H60.6587H60.3164V31.5985C60.3164 31.5257 60.3093 31.459 60.3006 31.4503C60.2918 31.4415 60.2152 31.4831 60.1302 31.5426C59.8713 31.7239 59.5293 31.7955 59.1117 31.7556ZM59.9662 31.0945C60.1914 30.9914 60.2579 30.8783 60.2962 30.5333C60.3127 30.3844 60.3183 30.2417 60.3085 30.2163C60.2927 30.1752 60.2339 30.1701 59.7765 30.1702C59.4877 30.1702 59.2148 30.1836 59.154 30.2004C58.9343 30.2614 58.7838 30.5125 58.8223 30.7537C58.8733 31.0721 59.0745 31.1907 59.5369 31.1748C59.761 31.1671 59.84 31.1523 59.9662 31.0945Z" fill="#82BE42"/>
<path d="M55.6193 31.7547C54.9663 31.6974 54.5324 31.3267 54.3577 30.6767C54.3154 30.5195 54.3062 30.3889 54.3067 29.9511C54.3072 29.4756 54.3139 29.3961 54.3682 29.2254C54.5934 28.5175 55.0869 28.1429 55.7929 28.1443C56.3002 28.1453 56.6997 28.3372 56.9642 28.707C57.1928 29.0268 57.277 29.3316 57.277 29.8401V30.1701H56.127C55.0498 30.1701 54.977 30.1731 54.9774 30.218C54.9787 30.3419 55.0645 30.6538 55.1266 30.7596C55.2967 31.0498 55.556 31.1696 55.9735 31.1508C56.2494 31.1383 56.434 31.0715 56.6304 30.9131C56.689 30.8659 56.7475 30.8273 56.7604 30.8273C56.7734 30.8273 56.8779 30.9165 56.9928 31.0256L57.2015 31.2239L57.0478 31.3637C56.6951 31.6842 56.239 31.809 55.6193 31.7547ZM56.5792 29.5203C56.5166 29.0198 56.239 28.7353 55.8121 28.7342C55.3487 28.7331 55.0852 28.9691 55.0069 29.4555C54.9914 29.5518 54.9852 29.641 54.9931 29.6539C55.0011 29.6667 55.3656 29.6772 55.8032 29.6772H56.5988L56.5792 29.5203Z" fill="#82BE42"/>
<path d="M32.297 31.7565C31.7441 31.7066 31.4008 31.404 31.3194 30.8948C31.2505 30.4635 31.4042 30.0781 31.728 29.8704C31.9747 29.712 32.0626 29.6963 32.7981 29.6792L33.469 29.6635L33.4651 29.4286C33.4621 29.251 33.4474 29.1667 33.4047 29.0829C33.2889 28.8561 33.0597 28.746 32.7042 28.7466C32.3864 28.7471 32.1811 28.8197 31.9859 29.0007L31.8992 29.081L31.671 28.8582L31.4428 28.6354L31.5931 28.498C31.8979 28.2193 32.2098 28.1307 32.8118 28.1521C33.3885 28.1725 33.7351 28.3071 33.9545 28.5957C34.1627 28.8695 34.1672 28.9082 34.1672 30.4057V31.7308H33.8249H33.4827V31.5985C33.4827 31.5257 33.4748 31.4583 33.4652 31.4486C33.4556 31.439 33.4094 31.4635 33.3625 31.5031C33.2303 31.6146 32.9706 31.7262 32.8012 31.744C32.7167 31.7529 32.6167 31.7637 32.5791 31.768C32.5414 31.7723 32.4145 31.7671 32.297 31.7565ZM33.0078 31.1424C33.3396 31.0438 33.4475 30.8832 33.474 30.4481L33.491 30.1701H32.9629C32.6312 30.1701 32.3941 30.1823 32.3251 30.203C32.0939 30.2723 31.9513 30.5074 31.9888 30.7577C32.0207 30.9704 32.148 31.1026 32.3737 31.1576C32.5185 31.1928 32.866 31.1845 33.0078 31.1424Z" fill="#82BE42"/>
<path d="M28.7981 31.7573C27.8704 31.6711 27.4242 31.0287 27.4672 29.8414C27.4898 29.2167 27.6195 28.8599 27.9413 28.5371C28.2147 28.2629 28.5283 28.1438 28.9769 28.1438C29.4277 28.1438 29.8223 28.3195 30.0798 28.635C30.331 28.9427 30.4354 29.2662 30.4624 29.8209L30.4794 30.17H29.3251H28.1709V30.2883C28.1709 30.6187 28.3467 30.9227 28.6227 31.0693C28.748 31.1359 28.7862 31.1421 29.0745 31.1421C29.3565 31.1421 29.405 31.1346 29.5399 31.071C29.6228 31.0319 29.7464 30.9569 29.8148 30.9044L29.939 30.809L30.1535 31.0088C30.2842 31.1305 30.3623 31.2233 30.3535 31.2464C30.3295 31.3088 30.0035 31.5418 29.827 31.6227C29.5637 31.7432 29.1827 31.7931 28.7981 31.7573ZM29.759 29.5871C29.759 29.464 29.6892 29.2058 29.6298 29.1091C29.4599 28.8322 29.284 28.7358 28.9512 28.7372C28.6426 28.7385 28.448 28.8403 28.3016 29.0769C28.2367 29.1818 28.1709 29.4245 28.1709 29.5589V29.6772H28.9649H29.759V29.5871Z" fill="#82BE42"/>
<path d="M13.5614 31.758C13.1061 31.7089 12.7699 31.4506 12.6098 31.0271C12.5515 30.8727 12.5496 30.8312 12.542 29.5198L12.5342 28.1713H12.8774H13.2207V29.2711C13.2207 30.4266 13.2363 30.6306 13.3391 30.8138C13.5123 31.1226 13.9129 31.2297 14.2922 31.0688C14.4493 31.0021 14.5409 30.9085 14.6225 30.7314C14.6849 30.596 14.6857 30.5814 14.6937 29.3829L14.7019 28.1713H15.0565H15.4112V29.951V31.7308H15.0552H14.6993V31.5665C14.6993 31.3909 14.6816 31.3706 14.6037 31.4567C14.4034 31.678 13.9729 31.8025 13.5614 31.758Z" fill="#82BE42"/>
<path d="M68.7775 32.8479V32.5328L68.9691 32.5168C69.2966 32.4893 69.3532 32.4281 69.5442 31.895L69.6554 31.5845L69.5884 31.3907C69.5516 31.2841 69.4146 30.9073 69.284 30.5534C68.8059 29.2577 68.4427 28.2659 68.4291 28.2192C68.4163 28.1752 68.4457 28.1713 68.7854 28.1713H69.1556L69.2361 28.3972C69.2803 28.5214 69.468 29.0728 69.6532 29.6225C69.8384 30.1722 69.998 30.6311 70.008 30.6424C70.0179 30.6537 70.211 30.1054 70.437 29.4239L70.848 28.185L71.2229 28.1773C71.4291 28.1731 71.5978 28.1773 71.5978 28.1867C71.5978 28.2047 71.4844 28.5151 70.9135 30.0606C70.716 30.5952 70.4574 31.2975 70.3389 31.6213C69.9355 32.723 69.9234 32.7492 69.7409 32.9141C69.5865 33.0535 69.367 33.127 69.0464 33.1466L68.7775 33.1629V32.8479Z" fill="#82BE42"/>
<path d="M44.2642 33.1396C44.2529 33.1278 44.2436 32.9865 44.2436 32.8255V32.5328L44.4371 32.5166C44.7745 32.4883 44.8407 32.4176 45.0338 31.8786L45.1423 31.5755L44.8613 30.8112C44.2033 29.0214 43.915 28.2259 43.915 28.1995C43.915 28.1815 44.0483 28.1713 44.2815 28.1713H44.648L44.8706 28.8353C45.4354 30.5195 45.4954 30.6818 45.5264 30.6082C45.5422 30.5706 45.7313 30.0068 45.9465 29.3555L46.3377 28.1713H46.7174C47.068 28.1713 47.0957 28.1749 47.0783 28.2192C47.0679 28.2455 46.8642 28.7969 46.6257 29.4445C45.681 32.0088 45.4697 32.5697 45.3997 32.6983C45.2451 32.9823 44.9829 33.1199 44.5468 33.1457C44.4026 33.1542 44.2754 33.1515 44.2642 33.1396Z" fill="#82BE42"/>
</g>
</g>
<defs>
<clipPath id="clip0_1801_10918">
<rect width="80" height="37.8106" fill="white"/>
</clipPath>
<clipPath id="clip1_1801_10918">
<rect width="80" height="37.8106" fill="white"/>
</clipPath>
</defs>
</svg>
