<svg width="57" height="62" viewBox="0 0 57 62" fill="none" xmlns="http://www.w3.org/2000/svg">
<g clip-path="url(#clip0_1801_10883)">
<path d="M56.8098 41.043H0V61.3497H56.8098V41.043Z" fill="#0079C4"/>
<path fill-rule="evenodd" clip-rule="evenodd" d="M30.1469 29.7178L28.9567 26.6871H27.2144C27.2144 26.6871 29.3616 31.8773 29.3248 31.9264C29.3125 31.9632 28.6009 33.7669 28.564 33.816C28.6131 33.8282 30.3064 33.816 30.3186 33.8037C30.3309 33.7178 32.9199 26.6871 32.9199 26.6871H31.2512L30.1469 29.7178Z" fill="#0079C4"/>
<path fill-rule="evenodd" clip-rule="evenodd" d="M23.2757 24.135C22.7235 24.135 22.2695 24.589 22.2695 25.1411C22.2695 25.6933 22.7113 26.1473 23.2757 26.1473C23.8278 26.1473 24.2818 25.6933 24.2818 25.1411C24.2818 24.5767 23.8278 24.135 23.2757 24.135Z" fill="#0079C4"/>
<path fill-rule="evenodd" clip-rule="evenodd" d="M12.7239 31.6809C12.7239 31.4969 12.7239 31.3619 12.7239 31.1779C12.7239 30.2576 12.7239 29.3374 12.7239 28.4049C12.7239 28.3803 12.7239 28.3558 12.7239 28.3313C12.6993 28.0122 12.5153 26.6994 10.9202 26.6257C10.9079 26.6257 10.4662 26.6257 10.4662 26.6257C8.82202 26.6625 8.61344 27.0061 8.61344 27.0061V28.319C8.61344 28.319 9.1165 27.9263 9.82816 27.9141C10.5275 27.9018 10.8098 28.0122 10.9693 28.1595C11.0061 28.1963 11.0429 28.2454 11.0797 28.2944C11.1288 28.4049 11.1779 28.4908 11.2024 28.638C11.2024 28.638 11.1901 28.7116 11.1779 28.7239C11.1656 28.7362 11.1165 28.7362 11.1165 28.7362C11.1042 28.7362 11.0674 28.7239 11.0552 28.7239C11.0183 28.6994 10.7852 28.5644 9.87724 28.6012C9.31282 28.6257 8.67478 29.0306 8.55209 29.1901C8.39258 29.3742 8.01221 29.6564 8.01221 30.6135C8.01221 30.9325 8.13491 31.3251 8.40484 31.7914C8.67478 32.2576 9.52141 32.3926 9.54595 32.3926C9.9754 32.4049 10.4417 32.3803 10.6502 32.319C10.8711 32.2454 11.0797 32.0981 11.141 32.049C11.1779 32.0122 11.2637 32.0245 11.2637 32.0613C11.2637 32.1595 11.2883 32.2454 11.3374 32.3313C11.3496 32.3803 11.3619 32.4049 11.3619 32.4049C11.3619 32.4049 12.9693 32.4049 13.0061 32.4049C12.9447 32.3313 12.8956 32.2822 12.8711 32.2208C12.8466 32.0981 12.7239 31.7914 12.7239 31.6809ZM11.0552 30.9816C10.9447 31.0797 10.7852 31.092 10.0613 31.092C9.95086 31.092 9.52141 30.9325 9.52141 30.454C9.52141 29.5705 10.4294 29.6564 10.6871 29.6564C10.9325 29.6564 11.2024 29.7546 11.2024 29.9263C11.2024 30.0613 11.2147 30.4662 11.2147 30.6503C11.2147 30.8343 11.1288 30.9202 11.0552 30.9816Z" fill="#0079C4"/>
<path fill-rule="evenodd" clip-rule="evenodd" d="M46.3679 31.6809C46.3679 31.4969 46.3679 31.3619 46.3679 31.1779V28.4049C46.3679 28.3803 46.3679 28.3558 46.3679 28.3313C46.3434 28.0122 46.1716 26.6994 44.5642 26.6257C44.552 26.6257 44.1102 26.6257 44.1102 26.6257C42.4538 26.6625 42.2575 27.0061 42.2575 27.0061V28.319C42.2575 28.319 42.7605 27.9263 43.4599 27.9141C44.1593 27.9018 44.4415 28.0122 44.6133 28.1595C44.6501 28.1963 44.6869 28.2454 44.7237 28.2944C44.7728 28.4049 44.8219 28.4908 44.8464 28.638C44.8464 28.638 44.8342 28.7116 44.8219 28.7239C44.8096 28.7362 44.7605 28.7362 44.7605 28.7362C44.7483 28.7362 44.7115 28.7239 44.6992 28.7239C44.6747 28.6994 44.4293 28.5644 43.5336 28.6012C42.9569 28.6257 42.3311 29.0306 42.1961 29.1901C42.0366 29.3742 41.6562 29.6564 41.6562 30.6135C41.6562 30.9325 41.779 31.3251 42.0489 31.7914C42.3188 32.2576 43.1655 32.3926 43.19 32.3926C43.6194 32.4049 44.0857 32.3803 44.2943 32.319C44.5151 32.2454 44.7237 32.0981 44.7851 32.049C44.8219 32.0122 44.9078 32.0245 44.9078 32.0613C44.9078 32.1595 44.9446 32.2454 44.9814 32.3313C45.0059 32.3803 45.0182 32.4049 45.0182 32.4049C45.0182 32.4049 46.6256 32.4049 46.6624 32.4049C46.601 32.3313 46.552 32.2822 46.5151 32.2208C46.4906 32.0981 46.3679 31.7914 46.3679 31.6809ZM44.6992 30.9816C44.5888 31.0797 44.4293 31.092 43.7053 31.092C43.5949 31.092 43.1655 30.9325 43.1655 30.454C43.1655 29.5705 44.0734 29.6564 44.3311 29.6564C44.5765 29.6564 44.8464 29.7546 44.8464 29.9263C44.8464 30.0613 44.8464 30.4662 44.8464 30.6503C44.8587 30.8343 44.7728 30.9202 44.6992 30.9816Z" fill="#0079C4"/>
<path fill-rule="evenodd" clip-rule="evenodd" d="M19.6316 26.6135C18.7482 26.6135 18.0243 26.908 17.9875 27.2884C17.9507 26.908 17.3004 26.6135 16.4905 26.6135C15.8648 26.6135 15.3249 26.7976 15.104 27.0552C15.104 26.9325 15.104 26.8221 15.104 26.6994C15.0672 26.6994 15.055 26.6994 15.0427 26.6994C14.6132 26.6994 14.1715 26.6994 13.7421 26.6994C13.6807 26.6994 13.6685 26.724 13.6685 26.773V27.3006V32.2577V32.3927H15.1654V28.6749C15.1654 28.3681 15.5212 28.1227 15.9752 28.1227C16.4292 28.1227 16.785 28.3681 16.785 28.6749V32.3927H18.3188V28.6749C18.3188 28.3681 18.6746 28.1227 19.1286 28.1227C19.5826 28.1227 19.9384 28.3681 19.9384 28.6749V32.3927H21.4967V28.4049V28.3436V28.2332C21.4967 28.2332 21.4967 28.2332 21.4967 28.2209C21.4231 27.1166 20.5151 26.6135 19.6316 26.6135Z" fill="#0079C4"/>
<path fill-rule="evenodd" clip-rule="evenodd" d="M48.7607 27.1657V26.6871H47.2515V32.3804H48.7484V28.6994C48.9079 28.5644 49.3251 28.27 49.8036 28.27C50.4171 28.27 50.6993 28.5031 50.6993 28.5031V26.8466C50.6993 26.8466 50.3435 26.6381 49.9018 26.6381C49.5705 26.6381 49.0306 26.9448 48.7607 27.1657Z" fill="#0079C4"/>
<path d="M24.0244 26.6871H22.5029V32.3804H24.0244V26.6871Z" fill="#0079C4"/>
<path d="M26.6747 24.2454H25.1655V32.3803H26.6747V24.2454Z" fill="#0079C4"/>
<path fill-rule="evenodd" clip-rule="evenodd" d="M4.34356 25.8036H8.02455V24.2454H4.34356H2.76074V25.8036V32.3803H4.34356V28.8098H7.87731V27.2515H4.34356V25.8036Z" fill="#0079C4"/>
<path fill-rule="evenodd" clip-rule="evenodd" d="M54.736 28.1718V26.6871H53.4231V24.5521L51.9262 25.2392V26.6748H51.0918V28.1595H51.9262V30.638C51.9262 30.6748 51.9262 30.6994 51.9262 30.7362V30.7975H51.9384C52.0243 32.2086 53.239 32.3681 53.828 32.3681C54.4415 32.3681 54.6746 32.2086 54.6746 32.2086V30.7975C54.6746 30.7975 54.5397 30.908 53.9875 30.908C53.4354 30.908 53.4354 30.1472 53.4354 30.1472V28.1472H54.736V28.1718Z" fill="#0079C4"/>
<path fill-rule="evenodd" clip-rule="evenodd" d="M37.1409 26.7362C36.9814 26.5398 35.1163 24.2454 35.1163 24.2454H33.4722V32.3926H35.1163V26.773C35.1163 26.773 36.8341 28.9693 37.1409 29.3742C37.4476 28.9816 39.1654 26.7852 39.1654 26.773V32.3926H40.8219V24.2454H39.1654C39.1654 24.2454 37.3004 26.5398 37.1409 26.7362Z" fill="#0079C4"/>
<path d="M56.8098 0H0V18.0613H56.8098V0Z" fill="#1EAA39"/>
</g>
<defs>
<clipPath id="clip0_1801_10883">
<rect width="56.8098" height="61.3497" fill="white"/>
</clipPath>
</defs>
</svg>
