<svg width="80" height="41" viewBox="0 0 80 41" fill="none" xmlns="http://www.w3.org/2000/svg">
<g clip-path="url(#clip0_1801_11732)">
<g clip-path="url(#clip1_1801_11732)">
<path d="M24.067 0.607655C23.879 0.607655 23.6717 0.616716 23.435 0.633706C19.5374 0.931602 15.2208 1.59649 9.09182 6.057C8.51868 6.4727 6.6237 8.06412 4.75703 10.3918C2.41011 13.3209 0.996519 16.3338 0.672571 19.1067C0.608008 19.6549 0.467555 21.5997 1.36577 23.6442C2.3127 25.8008 4.05703 27.2688 6.55007 28.0096L6.64295 28.0367L6.60897 29.166L6.57839 29.2C6.0347 29.8173 4.68341 31.4676 3.90525 33.4487C2.9538 35.8749 3.20639 37.8922 4.65622 39.4451C5.1093 39.9299 5.77645 40.1871 6.58519 40.1871C7.61593 40.1871 8.81657 39.777 10.058 39.0011C11.458 38.1267 12.8274 36.849 14.1289 35.2032L14.1821 35.1353L14.2637 35.1602C16.7782 35.9134 19.8569 36.294 23.4124 36.294C30.3988 36.294 36.6376 34.8453 36.6976 34.8306C36.7758 34.8102 36.94 34.7785 37.1881 34.7298C47.3041 32.7385 56.216 29.2147 61.91 26.6084L61.9939 26.5699L62.055 26.639C63.395 28.1217 64.8641 28.8727 66.4227 28.8727C70.0869 28.8727 73.639 24.8573 76.234 21.9259C76.3223 21.8262 76.4095 21.7266 76.4956 21.6303L75.5057 17.1358C75.1081 17.4677 74.0626 18.3387 73.5393 18.7703C72.8892 19.3037 71.7168 20.1997 71.155 20.1997C70.9579 20.1997 70.873 20.0921 70.8401 20.0287C70.779 19.9075 70.5898 19.5371 71.9898 17.6126L72.0181 17.5719L72.0668 17.5628C76.1762 16.7722 78.0587 12.6877 79.0714 10.4937C79.2254 10.1607 79.3625 9.86282 79.4848 9.62949L77.6249 9.51282L77.643 9.3803C77.9251 7.31541 76.5443 6.09891 75.8307 5.83386C75.3969 5.67189 74.9405 5.5892 74.4761 5.5892C72.4565 5.5892 70.7099 7.12286 70.2081 7.71298L70.1345 7.79794L70.0416 7.73451C66.3026 5.1871 60.783 4.65247 56.8107 4.65247C56.2806 4.65247 55.8581 4.66153 55.5489 4.66833C55.4073 4.67173 55.294 4.67399 55.2102 4.67399C51.5301 4.70231 42.0631 5.66283 36.2989 7.48192L36.2083 7.51024L36.1562 7.42981C35.3554 6.19745 34.0596 5.49066 32.6007 5.49066C30.2198 5.49066 28.2829 7.49098 28.2829 9.95004V10.0384L25.4059 11.0657L24.357 10.1324L24.4895 10.0407C29.0644 6.88612 28.429 5.60053 27.3756 3.46995L27.3009 3.31817C26.2395 1.16494 25.5746 0.607655 24.067 0.607655ZM6.58519 40.4374C5.70509 40.4374 4.97451 40.1531 4.47273 39.615C3.64587 38.7304 3.18713 37.6884 3.10671 36.5149C3.03988 35.5476 3.23017 34.4851 3.67305 33.357C4.45008 31.3736 5.78891 29.7199 6.36091 29.0675L6.38583 28.2214C5.04927 27.8125 3.90978 27.1838 2.99684 26.3536C2.20509 25.6321 1.57872 24.7542 1.13584 23.7461C0.2127 21.6427 0.356551 19.6402 0.423379 19.0772C0.605742 17.5209 1.11318 15.9034 1.93325 14.269C2.60606 12.9279 3.49069 11.5709 4.56221 10.2355C6.44587 7.88629 8.3635 6.27674 8.94343 5.85425C11.6687 3.87092 14.2285 2.49018 16.7703 1.63273C19.2713 0.788884 21.5321 0.528369 23.4157 0.384518C23.6593 0.365262 23.8722 0.356199 24.067 0.356199C25.6789 0.356199 26.423 0.96898 27.5251 3.20716L27.5999 3.35895C28.6646 5.51331 29.3725 6.94276 24.7625 10.1573L25.4614 10.7792L28.0326 9.86169C28.0541 8.63612 28.5253 7.48871 29.3657 6.62108C30.2277 5.73079 31.3763 5.24034 32.6007 5.24034C34.114 5.24034 35.4619 5.95846 36.3136 7.21347C42.1096 5.40684 51.5335 4.45085 55.2079 4.42367C55.2906 4.42254 55.4039 4.42027 55.5444 4.41801C55.8536 4.41121 56.2795 4.40215 56.8107 4.40215C60.7853 4.40215 66.3015 4.93564 70.0903 7.46606C70.6963 6.80118 72.4519 5.33888 74.4761 5.33888C74.971 5.33888 75.4558 5.4261 75.918 5.59826C76.6769 5.88144 78.1335 7.14551 77.9081 9.27949L79.8971 9.40408L79.7974 9.57852C79.6581 9.82091 79.4916 10.1811 79.3002 10.5991C78.2717 12.8259 76.3642 16.9614 72.1631 17.7995C70.9477 19.4793 71.0338 19.8565 71.0644 19.9154C71.0689 19.9256 71.0814 19.9494 71.155 19.9494C71.5028 19.9494 72.3353 19.4363 73.3796 18.5766C74.0309 18.0408 75.4887 16.8232 75.5034 16.8107L75.662 16.6793L76.7675 21.7016L76.7256 21.7481C76.6259 21.8613 76.5239 21.9758 76.422 22.0924C73.7964 25.0601 70.2013 29.123 66.4238 29.1241C64.8154 29.1241 63.3032 28.3675 61.9304 26.8746C56.6589 29.2827 51.239 31.3023 45.8203 32.8778C41.4832 34.1396 38.3978 34.7468 37.2368 34.9756C36.991 35.0243 36.8301 35.0549 36.7565 35.0741C36.6965 35.0877 30.4282 36.5443 23.4124 36.5443C19.8704 36.5443 16.7952 36.1683 14.2727 35.4252C12.969 37.0608 11.5962 38.3351 10.1905 39.2141C8.91059 40.0149 7.6635 40.4374 6.58519 40.4374Z" fill="white"/>
<path fill-rule="evenodd" clip-rule="evenodd" d="M27.963 9.77126C27.963 7.23971 29.9452 5.18729 32.4077 5.18729C33.9549 5.18729 35.2677 5.95298 36.0674 7.18308C41.647 5.42402 51.0415 4.40007 55.0161 4.37062C56.2722 4.36156 64.7368 3.92095 69.9177 7.45266C70.5293 6.73454 73.0325 4.54959 75.6807 5.53729C76.4476 5.82272 77.8634 7.0936 77.5735 9.21851L79.4945 9.33745C78.6212 10.8632 76.8735 16.5493 71.8976 17.5064C69.7432 20.4695 70.7921 20.5295 73.2659 18.4941C73.9251 17.9526 75.3908 16.7293 75.3908 16.7293L76.4374 21.4878C72.8286 25.5575 67.0655 32.4091 61.768 26.5441C47.9719 32.8588 37.3439 34.5748 36.5329 34.773C35.3107 35.072 22.7368 37.7055 14.0333 35.1015C10.104 40.0706 5.981 41.0764 4.37033 39.3513C0.877127 35.6112 5.15641 30.2253 6.29136 28.9386L6.31968 27.9509C0.470494 26.2144 0.123892 20.8738 0.353827 18.9132C1.13878 12.2111 7.70948 6.58729 8.82404 5.77742C14.7027 1.49813 18.9242 0.65995 23.2318 0.330338C25.2706 0.175161 26.0114 0.632765 27.2188 3.08389C28.3255 5.32774 29.1399 6.67451 24.3667 9.96609L25.24 10.7442L27.963 9.77126Z" fill="white"/>
<path d="M23.8727 0.428696C23.6847 0.428696 23.4774 0.437756 23.2407 0.455879C19.3431 0.753775 15.0264 1.41753 8.89748 5.87804C8.32434 6.29487 6.42936 7.88516 4.5627 10.214C2.21577 13.1419 0.802183 16.156 0.478235 18.9277C0.413672 19.4759 0.273219 21.4219 1.17144 23.4652C2.11836 25.623 3.8627 27.091 6.35574 27.8306L6.44862 27.8578L6.41464 28.9871L6.38519 29.0211C5.84036 29.6384 4.48907 31.2898 3.71205 33.2709C2.75946 35.6971 3.01205 37.7133 4.46189 39.2662C4.91496 39.751 5.58211 40.0081 6.39085 40.0081C7.42159 40.0081 8.62337 39.5981 9.86366 38.8222C11.2637 37.9489 12.6331 36.6701 13.9345 35.0243L13.9878 34.9586L14.0693 34.9824C16.5839 35.7345 19.6625 36.1162 23.218 36.1162C30.2044 36.1162 36.4432 34.6664 36.5033 34.6516C36.5826 34.6324 36.7457 34.5995 36.9937 34.552C47.1097 32.5596 56.0206 29.0358 61.7157 26.4295L61.7995 26.3921L61.8607 26.4601C63.1995 27.9439 64.6698 28.6948 66.2283 28.6948H66.2306C69.8937 28.6937 73.4458 24.6783 76.0396 21.7481C76.128 21.6484 76.2152 21.5487 76.3013 21.4525L75.3113 16.958C74.9137 17.2898 73.8683 18.1609 73.345 18.5913C72.696 19.1259 71.5225 20.0207 70.9595 20.0207C70.7625 20.0207 70.6786 19.9143 70.6458 19.8497C70.5846 19.7285 70.3955 19.3581 71.7955 17.4337L71.8238 17.3929L71.8736 17.3839C75.9807 16.5932 77.8644 12.5088 78.877 10.3159C79.0311 9.98176 79.1681 9.685 79.2904 9.45053L77.4306 9.33499L77.4487 9.20134C77.7307 7.13645 76.35 5.92108 75.6364 5.6549C75.2026 5.49293 74.7461 5.41138 74.2817 5.41138C72.2621 5.41138 70.5155 6.9439 70.0138 7.53403L69.9401 7.62011L69.8473 7.55668C66.1094 5.00927 60.5887 4.47351 56.6152 4.47351C56.0874 4.47351 55.6638 4.48257 55.3557 4.48937C55.213 4.49277 55.0997 4.49503 55.0159 4.49503C51.3358 4.52335 41.8688 5.485 36.1046 7.30296L36.014 7.33128L35.9619 7.25085C35.161 6.01963 33.8653 5.3117 32.4075 5.3117C30.0254 5.3117 28.0886 7.31202 28.0886 9.77108V9.85943L25.2115 10.8868L24.1627 9.95344L24.2952 9.86283C28.8701 6.7083 28.2347 5.4227 27.1813 3.29099L27.1065 3.13921C26.0452 0.985979 25.3803 0.428696 23.8727 0.428696ZM6.39085 40.2584C5.51075 40.2584 4.78017 39.9752 4.27839 39.4372C3.45153 38.5526 2.9928 37.5083 2.91238 36.3359C2.84555 35.3686 3.03584 34.3062 3.47872 33.1791C4.25687 31.1958 5.59457 29.541 6.16658 28.8885L6.1915 28.0435C4.85493 27.6335 3.71545 27.0049 2.8025 26.1746C2.01076 25.4542 1.38438 24.5764 0.941502 23.5672C0.0183637 21.4649 0.162215 19.4623 0.229043 18.8983C0.411406 17.3419 0.918849 15.7256 1.73891 14.09C2.41286 12.75 3.29636 11.3931 4.36788 10.0565C6.25153 7.70733 8.16916 6.09778 8.7491 5.67529C11.4743 3.69196 14.0353 2.31122 16.576 1.45377C19.0769 0.609924 21.3378 0.34941 23.2214 0.205559C23.4649 0.187436 23.6779 0.178372 23.8727 0.178372C25.4845 0.178372 26.2287 0.791153 27.3308 3.02821L27.4067 3.17999C28.4714 5.33435 29.1782 6.76493 24.5682 9.97836L25.267 10.6013L27.8382 9.68273C27.8598 8.4583 28.331 7.30976 29.1714 6.44212C30.0334 5.55183 31.1831 5.06138 32.4075 5.06138C33.9196 5.06138 35.2675 5.7795 36.1193 7.03565C41.9152 5.22788 51.3392 4.27303 55.0147 4.24471C55.0963 4.24471 55.2084 4.24131 55.35 4.23905C55.6604 4.23225 56.084 4.22319 56.6152 4.22319C60.5921 4.22319 66.1083 4.75668 69.8971 7.2871C70.5019 6.62222 72.2576 5.15992 74.2817 5.15992C74.7767 5.15992 75.2615 5.24827 75.7236 5.42044C76.4825 5.70248 77.9392 6.96768 77.7137 9.10166L79.7027 9.22512L79.6031 9.39956C79.4637 9.64195 79.2972 10.0033 79.1047 10.4201C78.0785 12.647 76.1699 16.7835 71.9699 17.6206C70.7534 19.3004 70.8395 19.6775 70.8689 19.7364C70.8746 19.7466 70.8871 19.7704 70.9595 19.7704C71.3084 19.7704 72.1409 19.2573 73.1853 18.3976C73.8366 17.8618 75.2955 16.6453 75.3091 16.6329L75.4676 16.5004L76.5731 21.5227L76.5312 21.5703C76.4316 21.6824 76.3307 21.7979 76.2277 21.9135C73.6021 24.8811 70.0058 28.9452 66.2306 28.9452C64.621 28.9452 63.1089 28.1885 61.7361 26.6957C56.4646 29.1037 51.0447 31.1245 45.6259 32.7C41.2889 33.9618 38.2034 34.5689 37.0424 34.7966C36.7978 34.8465 36.6358 34.877 36.5622 34.8952C36.5021 34.9099 30.2339 36.3665 23.218 36.3665C19.6761 36.3665 16.602 35.9893 14.0784 35.2463C12.7747 36.883 11.4018 38.1573 9.99618 39.0351C8.71625 39.8348 7.46917 40.2584 6.39085 40.2584Z" stroke="#006F51" stroke-width="0.356796" stroke-miterlimit="10"/>
<path fill-rule="evenodd" clip-rule="evenodd" d="M8.81026 28.0781C7.33097 21.9831 19.889 13.5163 36.8589 9.1679C53.8288 4.81953 68.7848 6.23538 70.2641 12.3304C71.7422 18.4253 59.1853 26.8922 42.2154 31.2417C25.2455 35.5889 10.2895 34.173 8.81026 28.0781Z" fill="#FDBE56"/>
<path fill-rule="evenodd" clip-rule="evenodd" d="M52.6869 20.4621C51.9303 21.5393 52.628 21.8383 53.2113 21.1802C56.0634 17.5896 60.0799 14.178 62.001 14.298C62.8743 14.477 62.8743 15.9132 62.932 16.9904C62.3498 17.4095 59.9055 19.8629 59.2066 22.3775C58.9824 23.1851 59.5861 23.7152 60.4288 23.3346C62.8165 22.2574 63.9775 21.11 65.0275 19.804C66.1341 18.4267 67.9974 15.6742 67.9974 15.6742C67.5307 15.075 65.9008 15.2551 65.9008 15.2551C67.473 11.0064 69.6262 11.6645 70.9073 11.9636C71.4906 11.1254 72.0139 10.1682 72.655 9.45013C73.1341 8.9121 74.6916 8.13281 75.3315 8.61194C75.7755 8.94382 75.9137 9.45013 75.2149 10.4072C74.6474 11.1877 74.2838 11.7846 74.2838 11.7846L76.2626 11.9636C76.0304 12.9818 74.1094 17.7085 70.7328 15.8532C69.9762 16.8114 68.1673 19.1901 67.6474 21.6593C67.1807 23.8737 68.1322 24.0312 69.9762 23.5736C71.6639 23.1556 74.1094 20.581 74.576 19.983L74.6916 21.1202C74.1671 21.7783 70.9073 25.4266 68.6951 26.5072C66.3675 27.6444 62.6987 27.0453 65.0864 21.4203C63.3398 22.4375 61.2443 26.0881 57.2856 26.8652C56.2571 27.0679 54.7235 25.6679 56.0634 22.3174C56.3104 21.699 57.4023 19.9229 57.6934 19.5639C56.4712 19.804 53.7935 23.9938 52.3369 25.31C50.8202 26.6817 48.7871 26.7462 49.077 23.2757C48.496 23.8137 46.7743 25.5309 45.5272 26.147C42.3829 27.7045 41.6262 26.3872 41.8596 22.7354C41.8596 22.7354 38.4253 25.3689 37.6097 26.0281C37.0921 26.4461 36.3876 26.7462 35.8631 26.5072C35.3398 26.2671 33.9421 24.4118 33.7677 23.1556C30.9733 26.0881 26.608 29.5587 24.9203 22.8554C23.6381 23.4546 17.5261 28.0624 17.0606 28.4215C16.595 28.7805 15.7795 30.0978 15.2562 30.8749C14.7329 31.6541 9.37644 39.2545 6.63987 38.1773C3.84667 34.7656 11.2975 29.3797 11.9963 28.1224C14.0918 25.3689 16.3039 21.7182 17.0606 19.2048C17.0606 19.2048 11.5829 23.9859 10.773 24.6519C9.02757 26.0881 7.64909 26.5593 6.17434 25.7291C3.73 24.3517 3.07644 21.2199 3.32224 19.6839C4.19554 14.238 8.99699 9.94964 10.0753 9.09106C17.0606 3.52505 23.1148 3.52505 24.8025 3.70402C25.6758 4.5422 26.1424 6.33751 26.1424 6.33751C25.1525 8.01275 21.3682 10.0493 19.506 10.7074C19.3316 9.92925 20.2627 8.91097 20.9026 8.37294C17.0606 10.2283 10.4242 13.1936 6.75767 19.8629C5.9999 21.2402 6.5821 24.4718 9.7842 22.1974C11.5036 20.9763 14.4407 19.2048 21.4848 12.5627C21.8337 12.0236 22.707 12.2626 23.2314 12.7417C23.945 13.3941 24.3958 13.5788 23.8714 14.4181C23.4342 15.1169 21.0771 20.5221 18.1083 25.2488L25.1525 21.6593C26.3169 18.7257 28.8779 15.1351 30.9733 13.999C32.4311 13.2084 33.5355 14.537 32.7199 15.8532C31.9055 17.1705 29.5178 20.5221 28.7034 21.1802C28.0623 25.1888 31.7877 24.1127 33.2432 21.8983C35.1654 15.9132 42.1507 13.2809 46.3416 12.2626C47.0405 12.5027 48.496 14.0579 46.6327 14.716C47.4482 15.4953 48.6693 16.5713 46.3994 18.3077C45.3505 19.1097 43.8372 21.8961 44.7117 22.7954C45.7016 23.8137 47.1571 23.1556 48.496 21.9584C49.1167 21.4033 49.4848 21.0001 49.9503 20.103C50.417 19.2048 52.3958 16.3923 53.7935 15.2551C55.3068 15.3152 56.4712 15.3752 55.4235 16.9304C54.9172 17.6825 54.0846 18.7257 52.6869 20.4621Z" fill="white"/>
<path fill-rule="evenodd" clip-rule="evenodd" d="M52.1044 19.5043C51.3489 20.5815 52.0466 20.8817 52.6277 20.2224C55.4809 16.6318 59.4974 13.2202 61.4184 13.3403C62.2917 13.5192 62.2917 14.9555 62.3495 16.0326C61.7684 16.4517 59.323 18.9063 58.6252 21.4197C58.3998 22.2273 59.0036 22.7574 59.8474 22.3768C62.234 21.2996 63.3961 20.1522 64.4461 18.8462C65.5516 17.47 67.4149 14.7165 67.4149 14.7165C66.9482 14.1173 65.3194 14.2974 65.3194 14.2974C66.8904 10.0487 69.0448 10.7068 70.3247 11.0058C70.9069 10.1676 71.4314 9.21048 72.0713 8.49236C72.5516 7.95434 74.109 7.17505 74.749 7.65418C75.193 7.98605 75.3312 8.49236 74.6323 9.44948C74.0649 10.2288 73.7013 10.8268 73.7013 10.8268L75.6801 11.0058C75.4479 12.0241 73.528 16.7519 70.1514 14.8966C69.3937 15.8537 67.5848 18.2323 67.0649 20.7016C66.6005 22.916 67.5508 23.0734 69.3937 22.6169C71.0825 22.1978 73.528 19.6244 73.9924 19.0252L74.109 20.1635C73.5857 20.8216 70.3247 24.4689 68.1126 25.5495C65.7849 26.6867 62.1173 26.0875 64.5027 20.4626C62.7573 21.4786 60.6618 25.1292 56.7042 25.9074C55.6746 26.109 54.1421 24.7113 55.4809 21.3597C55.729 20.7401 56.8197 18.9652 57.1108 18.6072C55.8887 18.8462 53.211 23.0349 51.7555 24.3522C50.2377 25.7239 48.2045 25.7885 48.4956 22.3168C47.9134 22.8548 46.1906 24.572 44.9447 25.1893C41.8003 26.7456 41.0437 25.4283 41.277 21.7788C41.277 21.7788 37.8427 24.4111 37.0272 25.0703C36.5096 25.4894 35.805 25.7885 35.2806 25.5495C34.7573 25.3093 33.3607 23.4551 33.1851 22.1978C30.3919 25.1292 26.0254 28.6009 24.3377 21.8988C23.0567 22.4969 16.9447 27.1046 16.478 27.4637C16.0125 27.8228 15.1981 29.1389 14.6737 29.9171C14.1504 30.6964 8.79391 38.2967 6.05848 37.2195C3.26415 33.8079 10.7149 28.4219 11.4138 27.1647C13.5104 24.4111 15.7214 20.7616 16.478 18.247C16.478 18.247 11.0004 23.0281 10.1916 23.6941C8.44505 25.1292 7.06657 25.6004 5.59295 24.7702C3.14748 23.3951 2.49392 20.2621 2.73971 18.7262C3.61301 13.2802 8.41447 8.99188 9.49278 8.1333C16.478 2.56729 22.5322 2.56729 24.2211 2.74739C25.0932 3.58444 25.5599 5.37974 25.5599 5.37974C24.5699 7.05612 20.7856 9.09155 18.9235 9.74964C18.7491 8.97036 19.6801 7.95434 20.3201 7.41518C16.478 9.27052 9.84165 12.2359 6.17515 18.9063C5.41738 20.2836 6.00072 23.514 9.20168 21.2396C10.9211 20.0186 13.8581 18.247 20.9023 11.605C21.2512 11.0658 22.1256 11.3048 22.6489 11.7839C23.3625 12.4352 23.8133 12.6221 23.2889 13.4592C22.8517 14.1592 20.4957 19.5644 17.5258 24.2922L24.5699 20.7016C25.7343 17.769 28.2953 14.1773 30.3919 13.0412C31.8486 12.2506 32.9529 13.5792 32.1374 14.8966C31.323 16.2127 28.9353 19.5644 28.1209 20.2224C27.4809 24.2321 31.2063 23.155 32.6618 20.9406C34.5829 14.9555 41.5681 12.3231 45.7591 11.3048C46.4579 11.5449 47.9134 13.1001 46.0502 13.7593C46.8646 14.5375 48.0879 15.6135 45.818 17.35C44.768 18.1519 43.2547 20.9394 44.1291 21.8388C45.1191 22.8548 46.5746 22.1978 47.9134 20.9995C48.5342 20.4445 48.9034 20.0435 49.3689 19.1453C49.8345 18.247 51.8144 15.4346 53.211 14.2974C54.7243 14.3574 55.8887 14.4174 54.8398 15.9737C54.3346 16.7247 53.501 17.769 52.1044 19.5043Z" fill="#006F51"/>
<path fill-rule="evenodd" clip-rule="evenodd" d="M30.5366 10.1977C30.5366 8.94159 31.5266 7.92331 32.7488 7.92331C33.9698 7.92331 34.9609 8.94159 34.9609 10.1977C34.9609 11.4539 33.9698 12.4722 32.7488 12.4722C31.5266 12.4722 30.5366 11.4539 30.5366 10.1977Z" fill="#E31837"/>
<path d="M32.7488 8.16049C31.6592 8.16049 30.7723 9.07457 30.7723 10.1982C30.7723 11.3218 31.6592 12.2359 32.7488 12.2359C33.8396 12.2359 34.7265 11.3218 34.7265 10.1982C34.7265 9.07457 33.8396 8.16049 32.7488 8.16049ZM32.7488 12.7094C31.3998 12.7094 30.3022 11.5823 30.3022 10.1982C30.3022 8.81405 31.3998 7.68703 32.7488 7.68703C34.0979 7.68703 35.1966 8.81405 35.1966 10.1982C35.1966 11.5823 34.0979 12.7094 32.7488 12.7094Z" fill="white"/>
<path fill-rule="evenodd" clip-rule="evenodd" d="M42.7902 15.8835C41.1603 16.2131 37.2899 18.9655 36.6488 21.0598C36.4211 21.8052 36.9716 21.9501 37.5515 21.539C39.152 20.4018 42.558 16.3921 42.7902 15.8835Z" fill="white"/>
</g>
</g>
<defs>
<clipPath id="clip0_1801_11732">
<rect width="80" height="40.4373" fill="white"/>
</clipPath>
<clipPath id="clip1_1801_11732">
<rect width="80" height="40.4373" fill="white"/>
</clipPath>
</defs>
</svg>
