<svg width="80" height="25" viewBox="0 0 80 25" fill="none" xmlns="http://www.w3.org/2000/svg">
<g clip-path="url(#clip0_1801_11680)">
<g clip-path="url(#clip1_1801_11680)">
<path d="M32.5386 8.16409H23.9596V12.354V13.0148C23.9596 13.6506 24.0301 14.1883 24.1683 14.6268C24.3066 15.0657 24.5881 15.3636 25.0023 15.5171V15.5859H20.5054V15.5171C20.9223 15.3636 21.2039 15.0657 21.3387 14.6268C21.477 14.185 21.5452 13.6506 21.5452 13.021V12.3574V3.63673V2.89703C21.5452 2.27807 21.477 1.75785 21.3421 1.33863C21.2073 0.919977 20.9274 0.630527 20.5054 0.475365V0.408221H25.0023V0.475365C24.5881 0.630527 24.3066 0.929004 24.1683 1.36684C24.0301 1.80694 23.9596 2.34296 23.9596 2.98505V3.6514V6.50188H32.5386V3.6514V2.88856C32.5386 2.27017 32.4698 1.74939 32.3333 1.33468C32.1962 0.919977 31.9146 0.630527 31.4892 0.475365V0.408221H36.016V0.475365C35.5843 0.630527 35.3 0.931825 35.1578 1.37079C35.019 1.81089 34.9496 2.35142 34.9496 2.99464V3.63673V12.3574V12.9995C34.9496 13.6422 35.019 14.185 35.1578 14.6234C35.3 15.0618 35.5843 15.3591 36.016 15.5171V15.5859H31.4892V15.5171C32.1871 15.2615 32.5386 14.4513 32.5386 13.0898V12.354V8.16409Z" fill="#09509F"/>
<path d="M41.8133 8.17578V13.6623L44.7456 13.9388C44.8556 13.9512 45.022 13.9597 45.2539 13.9597C46.7226 13.9597 47.9752 13.4998 49.0168 12.5762H49.0862L48.048 15.5942H38.4302V15.5243C38.8494 15.3719 39.1287 15.0701 39.2647 14.6311C39.3978 14.1916 39.4672 13.6505 39.4672 13.0061V12.3646V3.67324V3.00238C39.4672 2.36029 39.3978 1.81863 39.2647 1.37909C39.1287 0.940126 38.8494 0.643907 38.4302 0.484795V0.41483H45.8108C46.3768 0.41483 46.739 0.377027 46.8936 0.30537H46.9573V3.01028H46.8936C46.5669 2.63224 46.1945 2.37891 45.7629 2.26268C45.3324 2.14475 44.8026 2.08664 44.1734 2.08664C43.1725 2.08664 42.3882 2.14024 41.8133 2.24518V6.51243H44.5588C45.0548 6.51243 45.3956 6.46673 45.5806 6.37533H45.6489V8.82351H45.5806C45.4255 8.54591 45.18 8.36818 44.8477 8.29032C44.5154 8.21302 44.0708 8.17578 43.5218 8.17578H41.8133Z" fill="#09509F"/>
<path d="M71.3391 -1.26405e-06C72.5821 -1.26405e-06 73.7371 0.207635 74.808 0.624035C75.8738 1.041 76.7963 1.61538 77.5682 2.34267C78.3434 3.0756 78.9443 3.91179 79.3681 4.86082C79.7896 5.80928 80 6.79837 80 7.82527C80 8.98193 79.7687 10.059 79.3094 11.0504C78.845 12.0485 78.1984 12.9152 77.3707 13.6498C76.5402 14.3872 75.5838 14.952 74.5067 15.3549C73.4358 15.7532 72.3096 15.9569 71.1309 15.9614V14.2896C71.1597 14.2936 71.1885 14.2936 71.2184 14.2936C72.1144 14.2936 72.9359 14.1418 73.6897 13.845C74.4407 13.5494 75.08 13.1301 75.612 12.5857C76.1396 12.04 76.5481 11.4019 76.8279 10.6645C77.1078 9.93153 77.2472 9.13935 77.2472 8.29019C77.2472 7.15158 77.0034 6.07334 76.5108 5.0504C76.0188 4.03535 75.3113 3.21779 74.3882 2.59375C73.4612 1.97762 72.3869 1.66785 71.1631 1.66785H71.1309V-1.26405e-06H71.3391ZM71.1309 15.9614H71.0948C69.9184 15.9614 68.7933 15.7662 67.7174 15.3797C66.6408 14.9932 65.6935 14.4352 64.8635 13.7102C64.0392 12.9885 63.3988 12.1331 62.9389 11.1491C62.4841 10.1646 62.2573 9.09534 62.2573 7.94037C62.2573 6.88188 62.4841 5.86176 62.9389 4.88846C63.3988 3.91743 64.0392 3.06883 64.8539 2.33759C65.6771 1.60917 66.6408 1.03705 67.7495 0.624035C68.8007 0.228511 69.9274 0.0203109 71.1309 -1.26405e-06V1.66785C69.9224 1.6718 68.8582 1.93304 67.9335 2.44987C66.9985 2.97009 66.2774 3.69005 65.7702 4.61651C65.2624 5.54466 65.0108 6.58228 65.0108 7.73725C65.0108 8.53845 65.1552 9.33063 65.4458 10.1115C65.733 10.8969 66.1556 11.6045 66.7051 12.2392C67.2553 12.87 67.9177 13.3705 68.6901 13.7406C69.4399 14.0938 70.253 14.28 71.1309 14.2896V15.9614Z" fill="#09509F"/>
<path d="M55.5311 7.17177C54.9528 7.40761 54.3355 7.57745 53.6844 7.6807L56.3317 8.1665C56.9569 8.01416 57.5426 7.75179 58.0933 7.37489C58.6547 6.98726 59.0998 6.51275 59.4423 5.9457C59.778 5.37752 59.9501 4.77154 59.9501 4.12099C59.9501 3.41345 59.7628 2.77813 59.3944 2.21729C59.0231 1.65137 58.4798 1.20788 57.7502 0.886274C57.028 0.566357 56.1681 0.40781 55.1762 0.40781H49.6772V0.474388C50.0936 0.629551 50.3662 0.919564 50.4959 1.33766C50.6251 1.75857 50.6951 2.27766 50.6951 2.89605V3.66566V12.3565V13.0933C50.6951 13.7196 50.6251 14.2404 50.4931 14.6613C50.3628 15.0867 50.0897 15.3722 49.6772 15.5167V15.585H54.0782V15.5167C53.6562 15.3593 53.3752 15.067 53.2392 14.6309C53.1055 14.1958 53.0417 13.6581 53.0417 13.0205V12.3565V2.02263C53.6189 1.91655 54.1448 1.85562 54.6159 1.83361C55.4702 1.83361 56.1811 2.06551 56.7498 2.52987C57.3197 2.98915 57.5996 3.61657 57.5996 4.40085C57.5996 5.0751 57.4094 5.64497 57.0184 6.10538C56.6285 6.56466 56.132 6.91899 55.5311 7.17177Z" fill="#09509F"/>
<path d="M53.5942 7.69534L55.7293 10.9509L58.5487 14.4322C58.8895 14.8509 59.2675 15.1488 59.6783 15.3214C60.0885 15.4969 60.6065 15.5861 61.2294 15.5861H63.3475C62.895 15.3011 62.4487 14.9852 62.0035 14.6438C61.5611 14.3013 61.1261 13.9272 60.6905 13.517C60.2606 13.1057 59.8989 12.7198 59.6106 12.3576L56.2912 8.17606C56.3042 8.17268 56.3206 8.1676 56.3313 8.1676L53.684 7.68123C53.6512 7.68688 53.623 7.69252 53.5942 7.69534Z" fill="#ED2227"/>
<path d="M5.25223 17.5714L4.92329 18.9939H4.65359C4.64456 18.9143 4.62537 18.8133 4.59998 18.6954C4.57177 18.5758 4.53566 18.4584 4.48827 18.341C4.43974 18.2209 4.38727 18.121 4.33028 18.042C4.26991 17.9608 4.20333 17.9156 4.12491 17.9009C4.05381 17.8919 3.9641 17.8823 3.85633 17.8756C3.74913 17.8688 3.65321 17.866 3.57591 17.866H3.39987L2.50783 21.7258C2.49824 21.7665 2.49034 21.8043 2.48526 21.8415C2.47962 21.8771 2.47623 21.903 2.47623 21.9199C2.47623 21.9764 2.48808 22.0254 2.50839 22.0672C2.5304 22.1112 2.57272 22.1456 2.63365 22.1721C2.69008 22.1936 2.77132 22.2173 2.88022 22.2393C2.98629 22.2613 3.07601 22.2765 3.14597 22.2833L3.08503 22.5383H0.315242L0.375615 22.2833C0.439937 22.2782 0.538112 22.2686 0.662242 22.2557C0.788629 22.2421 0.878341 22.2241 0.933635 22.2054C1.0256 22.1676 1.0967 22.1185 1.14296 22.0554C1.18867 21.9922 1.22083 21.9182 1.24057 21.8314L2.15857 17.866H2.0209C1.93288 17.866 1.84148 17.8688 1.75233 17.8739C1.66318 17.8801 1.56162 17.8891 1.44539 17.9009C1.36358 17.9128 1.26822 17.9636 1.16666 18.0522C1.06115 18.1407 0.959026 18.2367 0.861978 18.341C0.745748 18.4736 0.649265 18.5904 0.573658 18.6959C0.49918 18.8026 0.432602 18.9008 0.380693 18.9939H0.109863L0.438244 17.5714H5.25223Z" fill="#39B54A"/>
<path d="M9.32655 22.01L9.24981 22.3187C9.02017 22.4095 8.83398 22.4795 8.6963 22.5269C8.55807 22.5748 8.40121 22.5985 8.21728 22.5985C7.94137 22.5985 7.72527 22.5285 7.56898 22.3903C7.41269 22.2509 7.33652 22.0783 7.33652 21.8735C7.33652 21.808 7.33821 21.7358 7.34442 21.6568C7.35062 21.5784 7.37093 21.4689 7.40648 21.3307L7.65531 20.3997C7.68295 20.2993 7.70101 20.2096 7.71399 20.1283C7.72583 20.0482 7.73204 19.9811 7.73204 19.9308C7.73204 19.818 7.70552 19.7311 7.65192 19.6679C7.59832 19.6058 7.50861 19.5743 7.37996 19.5743C7.30041 19.5743 7.18756 19.6047 7.04143 19.6662C6.89473 19.7294 6.72997 19.8434 6.54829 20.011L5.96827 22.5387H4.81104L5.84075 18.083C5.85203 18.0429 5.85711 18.0057 5.8605 17.9718C5.86783 17.9357 5.87009 17.9064 5.87009 17.8827C5.87009 17.7998 5.85486 17.7315 5.82664 17.683C5.80013 17.6339 5.75894 17.5944 5.69969 17.5645C5.64271 17.5334 5.58177 17.5131 5.50786 17.5024C5.43507 17.4917 5.35213 17.4787 5.25452 17.4697L5.3194 17.2107L7.16161 17.1204L7.20054 17.1752L6.64139 19.5979H6.66509C6.88119 19.4078 7.10744 19.2566 7.34103 19.1471C7.57519 19.0399 7.82514 18.9863 8.09427 18.9863C8.35269 18.9863 8.55638 19.0569 8.70082 19.1996C8.84808 19.3418 8.92087 19.5144 8.92087 19.717C8.92087 19.7712 8.91579 19.8468 8.90733 19.9427C8.90168 20.0397 8.88024 20.1424 8.84977 20.253L8.58459 21.2359C8.55976 21.3188 8.53945 21.4114 8.52027 21.5169C8.50221 21.6224 8.49431 21.7014 8.49431 21.7556C8.49431 21.8904 8.52196 21.9829 8.5812 22.0354C8.64101 22.0868 8.74652 22.1127 8.89604 22.1127C8.96657 22.1127 9.045 22.0992 9.13415 22.076C9.22273 22.0506 9.28705 22.0275 9.32655 22.01Z" fill="#39B54A"/>
<path d="M11.3401 22.6541C11.0609 22.6541 10.8126 22.6168 10.6055 22.5412C10.3911 22.465 10.2173 22.3601 10.0791 22.2241C9.94424 22.0893 9.84438 21.9307 9.77498 21.7519C9.70783 21.5719 9.67285 21.3727 9.67285 21.156C9.67285 20.8813 9.7242 20.6138 9.82689 20.3543C9.92958 20.0953 10.0842 19.8623 10.285 19.6546C10.4769 19.4554 10.7195 19.2946 11.0163 19.1716C11.308 19.0469 11.6318 18.986 11.9879 18.986C12.4043 18.986 12.7231 19.0526 12.9414 19.1841C13.1592 19.3189 13.2692 19.5181 13.2692 19.7844C13.2692 20.0383 13.1739 20.2567 12.9866 20.44C12.7958 20.6234 12.5386 20.7588 12.2147 20.8485C11.958 20.9241 11.7379 20.9806 11.5574 21.0116C11.3774 21.0454 11.1573 21.077 10.8938 21.1036C10.9012 21.2057 10.9142 21.3219 10.9395 21.4494C10.961 21.5792 10.996 21.6881 11.0434 21.7789C11.0987 21.8844 11.1788 21.968 11.2798 22.0295C11.3825 22.091 11.5139 22.1231 11.6725 22.1231C11.9489 22.1231 12.182 22.0701 12.3744 21.9617C12.5656 21.8557 12.7518 21.6881 12.9268 21.4568L13.1812 21.67C12.9708 21.9696 12.7022 22.2083 12.3744 22.386C12.0471 22.5655 11.7007 22.6541 11.3401 22.6541ZM12.1318 19.882C12.1318 19.6834 12.0956 19.5305 12.024 19.4261C11.9495 19.32 11.8491 19.2653 11.721 19.2653C11.541 19.2653 11.3723 19.412 11.2132 19.7054C11.053 19.9988 10.9497 20.3678 10.9051 20.8164C11.0434 20.7994 11.1793 20.7791 11.3159 20.7532C11.4513 20.7267 11.5574 20.6973 11.6364 20.6618C11.8124 20.585 11.9365 20.4874 12.0144 20.3633C12.0923 20.2437 12.1318 20.0829 12.1318 19.882Z" fill="#39B54A"/>
<path d="M17.4159 19.5003C17.2997 20.077 17.1975 20.5769 17.1118 21.0012C17.0255 21.4249 16.925 21.8667 16.8071 22.3288C16.7501 22.5556 16.6553 22.7762 16.5216 22.9946C16.3851 23.2146 16.2271 23.4025 16.046 23.5611C15.8519 23.7292 15.6454 23.8595 15.4208 23.9532C15.2007 24.0474 14.97 24.0931 14.7319 24.0931C14.5197 24.0931 14.3488 24.0723 14.2173 24.0311C14.0836 23.9888 13.982 23.934 13.907 23.8697C13.8336 23.8043 13.7851 23.7315 13.7591 23.6525C13.7321 23.5724 13.7202 23.4945 13.7202 23.4189C13.7202 23.2823 13.7659 23.1633 13.8652 23.0589C13.9628 22.9534 14.0903 22.9026 14.2562 22.9026C14.3815 22.9026 14.4893 22.9359 14.5829 23.0031C14.6749 23.0696 14.7544 23.1492 14.821 23.2434C14.8865 23.3337 14.9418 23.4347 14.9909 23.5458C15.0433 23.6592 15.0834 23.7467 15.1093 23.8093C15.2075 23.701 15.2989 23.5408 15.3881 23.3241C15.4744 23.1091 15.554 22.8219 15.6256 22.4608L16.2536 19.5003H15.5771L15.6589 19.1387H16.3343L16.3913 18.8707C16.4404 18.6512 16.5284 18.4356 16.6587 18.2252C16.7885 18.0142 16.9453 17.8251 17.131 17.6598C17.3081 17.4962 17.5118 17.3625 17.7432 17.2603C17.9762 17.1577 18.2081 17.1063 18.4422 17.1063C18.6448 17.1063 18.8152 17.1249 18.9472 17.1644C19.0832 17.2034 19.1881 17.2547 19.2649 17.3218C19.3348 17.385 19.3817 17.4567 19.4082 17.5346C19.4313 17.613 19.4432 17.6903 19.4432 17.7682C19.4432 17.8184 19.4325 17.8759 19.4133 17.938C19.3952 18.0029 19.3625 18.0599 19.3202 18.1112C19.2694 18.1693 19.2164 18.2133 19.1588 18.2477C19.1018 18.2805 19.0183 18.2957 18.9083 18.2957C18.783 18.2957 18.6747 18.263 18.585 18.1964C18.4924 18.1304 18.4163 18.052 18.3525 17.96C18.2848 17.8646 18.229 17.7603 18.1827 17.6525C18.1353 17.543 18.0981 17.455 18.0665 17.3896C17.9711 17.499 17.8848 17.6598 17.808 17.8691C17.7296 18.0779 17.6518 18.3691 17.5705 18.7381L17.4836 19.1387H18.3655L18.2809 19.5003H17.4159Z" fill="#39B54A"/>
<path d="M21.8447 19.7136C21.8447 19.8191 21.8301 19.9201 21.7979 20.0189C21.768 20.1165 21.724 20.2011 21.6625 20.27C21.5953 20.3501 21.5237 20.4093 21.4509 20.4471C21.3736 20.4878 21.2686 20.5053 21.1332 20.5053C20.9583 20.5053 20.8201 20.4612 20.7213 20.3743C20.6198 20.2897 20.5696 20.1932 20.5696 20.0843C20.5696 19.985 20.5842 19.8981 20.6158 19.8242C20.6429 19.7543 20.6914 19.6437 20.7524 19.497C20.5967 19.563 20.4607 19.642 20.349 19.7373C20.2355 19.8316 20.1278 19.9393 20.024 20.0601L19.4716 22.5376H18.3149L18.799 20.3862C18.812 20.3207 18.8301 20.2355 18.8543 20.13C18.8752 20.0257 18.8859 19.9376 18.8859 19.8688C18.8859 19.7328 18.8611 19.6409 18.8069 19.5923C18.755 19.5432 18.6523 19.5179 18.5039 19.5179C18.4311 19.5179 18.3538 19.528 18.2749 19.5534C18.1964 19.576 18.1298 19.598 18.0757 19.6194L18.153 19.304C18.3409 19.2278 18.5192 19.1613 18.6924 19.106C18.8645 19.0512 19.0287 19.0247 19.1833 19.0247C19.4586 19.0247 19.6634 19.0789 19.7988 19.1867C19.9371 19.2955 20.0268 19.4479 20.0697 19.6437H20.0951C20.3264 19.3994 20.5227 19.229 20.6841 19.1319C20.8455 19.0343 21.0176 18.9864 21.2038 18.9864C21.4018 18.9864 21.5592 19.0484 21.6726 19.1725C21.7872 19.2989 21.8447 19.4795 21.8447 19.7136Z" fill="#39B54A"/>
<path d="M23.7101 22.6541C23.4308 22.6541 23.1854 22.6168 22.9738 22.5412C22.7622 22.465 22.5873 22.3601 22.4496 22.2241C22.3148 22.0893 22.2143 21.9307 22.1461 21.7519C22.0778 21.5719 22.0439 21.3727 22.0439 21.156C22.0439 20.8813 22.0947 20.6138 22.1985 20.3543C22.3007 20.0953 22.453 19.8623 22.6561 19.6546C22.8474 19.4554 23.0923 19.2946 23.3857 19.1716C23.6791 19.0469 24.0018 18.986 24.3573 18.986C24.7742 18.986 25.0942 19.0526 25.3125 19.1841C25.5292 19.3189 25.6392 19.5181 25.6392 19.7844C25.6392 20.0383 25.5444 20.2567 25.3577 20.44C25.1675 20.6234 24.9091 20.7588 24.5875 20.8485C24.3279 20.9241 24.1096 20.9806 23.929 21.0116C23.7473 21.0454 23.5279 21.077 23.2655 21.1036C23.27 21.2057 23.2836 21.3219 23.3078 21.4494C23.3321 21.5792 23.3665 21.6881 23.4145 21.7789C23.4692 21.8844 23.5487 21.968 23.6514 22.0295C23.7552 22.091 23.8839 22.1231 24.0424 22.1231C24.3189 22.1231 24.5519 22.0701 24.7455 21.9617C24.9356 21.8557 25.1224 21.6881 25.2967 21.4568L25.5534 21.67C25.3407 21.9696 25.0738 22.2083 24.7455 22.386C24.4171 22.5655 24.0707 22.6541 23.7101 22.6541ZM24.5017 19.882C24.5017 19.6834 24.4656 19.5305 24.394 19.4261C24.3212 19.32 24.219 19.2653 24.091 19.2653C23.9127 19.2653 23.744 19.412 23.5832 19.7054C23.4218 19.9988 23.3214 20.3678 23.2751 20.8164C23.415 20.7994 23.5487 20.7791 23.687 20.7532C23.823 20.7267 23.929 20.6973 24.008 20.6618C24.1824 20.585 24.3088 20.4874 24.3877 20.3633C24.4622 20.2437 24.5017 20.0829 24.5017 19.882Z" fill="#39B54A"/>
<path d="M27.3159 22.6541C27.0226 22.6541 26.7788 22.6315 26.5864 22.5835C26.394 22.5344 26.2428 22.4746 26.1299 22.3996C26.016 22.3245 25.937 22.2444 25.8952 22.1592C25.8546 22.0723 25.832 21.9939 25.832 21.9189C25.832 21.784 25.8828 21.6661 25.9855 21.5623C26.0871 21.4618 26.2219 21.4122 26.3884 21.4122C26.5277 21.4122 26.6462 21.4477 26.7393 21.52C26.8352 21.5916 26.9131 21.683 26.9768 21.7936C27.0361 21.8935 27.0829 22.0052 27.1252 22.1254C27.1659 22.2467 27.1924 22.3364 27.2082 22.3951C27.4705 22.3951 27.6708 22.3398 27.8051 22.2258C27.9411 22.113 28.0083 21.9578 28.0083 21.7614C28.0083 21.6751 27.9902 21.6018 27.9479 21.5431C27.9067 21.485 27.8548 21.4342 27.7854 21.3902C27.7182 21.3473 27.6302 21.3067 27.5275 21.2683C27.4232 21.2277 27.3176 21.1904 27.2138 21.156C26.9328 21.0607 26.7083 20.9286 26.5452 20.7588C26.381 20.5895 26.2986 20.3785 26.2986 20.1269C26.2986 19.9774 26.3325 19.8369 26.4008 19.7054C26.4707 19.5739 26.5779 19.4515 26.7252 19.3387C26.8702 19.2314 27.0525 19.1451 27.2765 19.0819C27.4954 19.0182 27.7572 18.9849 28.0534 18.9849C28.23 18.9849 28.3942 18.9962 28.546 19.017C28.7 19.0374 28.8388 19.0763 28.9691 19.1327C29.0944 19.1903 29.1909 19.2608 29.2575 19.3516C29.3269 19.4402 29.3613 19.5502 29.3613 19.6783C29.3613 19.8064 29.3133 19.9176 29.2151 20.0084C29.1175 20.1021 28.9917 20.1466 28.8343 20.1466C28.7006 20.1466 28.5877 20.1133 28.498 20.0434C28.4089 19.9706 28.3366 19.8888 28.2796 19.7929C28.2221 19.6936 28.1792 19.5937 28.1454 19.4893C28.1138 19.3838 28.0867 19.298 28.0647 19.2281C27.9039 19.2365 27.7538 19.2969 27.6206 19.4058C27.4852 19.5147 27.4164 19.6495 27.4164 19.8115C27.4164 19.9091 27.435 19.987 27.4643 20.0439C27.4954 20.0987 27.5383 20.1449 27.593 20.1839C27.6534 20.2234 27.7295 20.2634 27.8221 20.3001C27.914 20.3373 28.0303 20.3785 28.1679 20.4237C28.485 20.5365 28.7231 20.6714 28.8845 20.8265C29.0459 20.9834 29.1271 21.1888 29.1271 21.4449C29.1271 21.6153 29.0854 21.7756 29.0098 21.9307C28.9302 22.0842 28.8202 22.2106 28.6752 22.315C28.5144 22.4267 28.3293 22.5119 28.1172 22.5683C27.9067 22.6253 27.6415 22.6541 27.3159 22.6541Z" fill="#39B54A"/>
<path d="M34.2391 22.01L34.1652 22.3187C33.9333 22.4095 33.7499 22.4795 33.61 22.5269C33.4734 22.5748 33.3154 22.5985 33.1304 22.5985C32.8545 22.5985 32.6367 22.5285 32.4832 22.3903C32.3269 22.2509 32.2502 22.0783 32.2502 21.8735C32.2502 21.808 32.2524 21.7358 32.2586 21.6568C32.2648 21.5784 32.2846 21.4689 32.3207 21.3307L32.5695 20.3997C32.5966 20.2993 32.6152 20.2096 32.6265 20.1283C32.6395 20.0482 32.6463 19.9811 32.6463 19.9308C32.6463 19.818 32.6203 19.7311 32.5656 19.6679C32.5137 19.6058 32.4228 19.5743 32.2942 19.5743C32.2135 19.5743 32.1035 19.6047 31.9551 19.6662C31.8101 19.7294 31.6453 19.8434 31.4608 20.011L30.8825 22.5387H29.7241L30.755 18.083C30.7646 18.0429 30.7696 18.0057 30.7747 17.9718C30.7826 17.9357 30.7843 17.9064 30.7843 17.8827C30.7843 17.7998 30.7685 17.7315 30.7403 17.683C30.7126 17.6339 30.6703 17.5944 30.615 17.5645C30.558 17.5334 30.496 17.5131 30.4221 17.5024C30.3504 17.4917 30.2647 17.4787 30.1687 17.4697L30.2325 17.2107L32.0758 17.1204L32.1148 17.1752L31.5556 19.5979H31.5787C31.796 19.4078 32.0205 19.2566 32.2547 19.1471C32.4894 19.0399 32.7388 18.9863 33.0079 18.9863C33.2663 18.9863 33.4706 19.0569 33.6156 19.1996C33.7617 19.3418 33.8356 19.5144 33.8356 19.717C33.8356 19.7712 33.83 19.8468 33.8215 19.9427C33.8136 20.0397 33.795 20.1424 33.764 20.253L33.4999 21.2359C33.474 21.3188 33.4542 21.4114 33.435 21.5169C33.4153 21.6224 33.4085 21.7014 33.4085 21.7556C33.4085 21.8904 33.435 21.9829 33.4977 22.0354C33.5564 22.0868 33.659 22.1127 33.8091 22.1127C33.8802 22.1127 33.9592 22.0992 34.0484 22.076C34.1369 22.0506 34.2018 22.0275 34.2391 22.01Z" fill="#39B54A"/>
<path d="M38.3353 19.5003C38.2197 20.077 38.1175 20.5769 38.0312 21.0012C37.946 21.4249 37.8467 21.8667 37.7277 22.3288C37.6695 22.5556 37.5759 22.7762 37.4382 22.9946C37.3056 23.2146 37.1465 23.4025 36.9626 23.5611C36.773 23.7292 36.5648 23.8595 36.3414 23.9532C36.1185 24.0474 35.8888 24.0931 35.6524 24.0931C35.4397 24.0931 35.2693 24.0723 35.1367 24.0311C35.0041 23.9888 34.902 23.934 34.8253 23.8697C34.7536 23.8043 34.7051 23.7315 34.6786 23.6525C34.6515 23.5724 34.6396 23.4945 34.6396 23.4189C34.6396 23.2823 34.687 23.1633 34.7847 23.0589C34.8823 22.9534 35.0126 22.9026 35.1745 22.9026C35.3009 22.9026 35.4115 22.9359 35.5024 23.0031C35.5954 23.0696 35.6727 23.1492 35.7376 23.2434C35.8031 23.3337 35.8629 23.4347 35.912 23.5458C35.9622 23.6592 36.0017 23.7467 36.0305 23.8093C36.127 23.701 36.22 23.5408 36.3058 23.3241C36.3921 23.1091 36.4734 22.8219 36.5467 22.4608L37.1725 19.5003H36.4965L36.5795 19.1387H37.2531L37.3124 18.8707C37.3609 18.6512 37.4489 18.4356 37.5781 18.2252C37.7079 18.0142 37.8648 17.8251 38.0504 17.6598C38.2276 17.4962 38.4318 17.3625 38.6632 17.2603C38.8962 17.1577 39.1292 17.1063 39.3617 17.1063C39.5654 17.1063 39.7329 17.1249 39.8678 17.1644C40.0032 17.2034 40.107 17.2547 40.1843 17.3218C40.2543 17.385 40.3028 17.4567 40.3271 17.5346C40.3519 17.613 40.3643 17.6903 40.3643 17.7682C40.3643 17.8184 40.3525 17.8759 40.3327 17.938C40.3141 18.0029 40.2836 18.0599 40.2413 18.1112C40.1905 18.1693 40.1358 18.2133 40.0782 18.2477C40.0212 18.2805 39.9394 18.2957 39.8277 18.2957C39.7025 18.2957 39.5947 18.263 39.5044 18.1964C39.4124 18.1304 39.3351 18.052 39.2736 17.96C39.2054 17.8646 39.149 17.7603 39.1021 17.6525C39.0553 17.543 39.0175 17.455 38.987 17.3896C38.8894 17.499 38.8042 17.6598 38.7275 17.8691C38.6507 18.0779 38.5717 18.3691 38.4916 18.7381L38.403 19.1387H39.2844L39.2003 19.5003H38.3353Z" fill="#39B54A"/>
<path d="M43.2158 20.442C43.2158 20.7359 43.16 21.0181 43.0466 21.2849C42.9382 21.5546 42.778 21.7877 42.5715 21.9846C42.3492 22.1979 42.0919 22.3626 41.794 22.4771C41.4972 22.5928 41.1598 22.6515 40.7919 22.6515C40.2931 22.6515 39.8925 22.5178 39.5862 22.2537C39.2815 21.9891 39.1274 21.6274 39.1274 21.1704C39.1274 20.8601 39.185 20.5717 39.2995 20.3054C39.4169 20.038 39.5771 19.8061 39.7882 19.6109C39.989 19.4162 40.2418 19.2616 40.5425 19.1482C40.8421 19.0348 41.1632 18.9795 41.5102 18.9795C42.0383 18.9795 42.4553 19.1081 42.7605 19.3666C43.0635 19.6233 43.2158 19.981 43.2158 20.442ZM41.983 20.0465C41.983 19.7734 41.9373 19.5731 41.8459 19.445C41.7534 19.3158 41.6202 19.2509 41.4436 19.2509C41.2653 19.2509 41.1011 19.3242 40.951 19.4664C40.8021 19.6109 40.6819 19.8208 40.5871 20.0989C40.5053 20.3308 40.4466 20.5802 40.4122 20.8499C40.3778 21.119 40.3603 21.3594 40.3603 21.5716C40.3603 21.8548 40.406 22.0596 40.4991 22.186C40.5933 22.3146 40.7282 22.3778 40.9053 22.3778C41.0977 22.3778 41.2653 22.2983 41.4041 22.1431C41.5435 21.9863 41.6546 21.7944 41.7353 21.5659C41.8177 21.3425 41.8786 21.0937 41.9209 20.8223C41.9627 20.5509 41.983 20.2913 41.983 20.0465Z" fill="#39B54A"/>
<path d="M47.7751 20.442C47.7751 20.7359 47.7176 21.0181 47.6064 21.2849C47.4936 21.5546 47.3356 21.7877 47.1308 21.9846C46.9085 22.1979 46.6484 22.3626 46.351 22.4771C46.0531 22.5928 45.7197 22.6515 45.3495 22.6515C44.8502 22.6515 44.449 22.5178 44.146 22.2537C43.838 21.9891 43.6851 21.6274 43.6851 21.1704C43.6851 20.8601 43.7449 20.5717 43.8577 20.3054C43.9745 20.038 44.1353 19.8061 44.3435 19.6109C44.5506 19.4162 44.8 19.2616 45.1007 19.1482C45.3981 19.0348 45.7214 18.9795 46.0695 18.9795C46.5959 18.9795 47.0117 19.1081 47.3164 19.3666C47.6211 19.6233 47.7751 19.981 47.7751 20.442ZM46.5406 20.0465C46.5406 19.7734 46.4949 19.5731 46.4029 19.445C46.311 19.3158 46.1773 19.2509 46.0018 19.2509C45.8229 19.2509 45.6593 19.3242 45.5081 19.4664C45.3586 19.6109 45.2389 19.8208 45.1447 20.0989C45.0646 20.3308 45.0048 20.5802 44.9704 20.8499C44.9348 21.119 44.9179 21.3594 44.9179 21.5716C44.9179 21.8548 44.9642 22.0596 45.0567 22.186C45.1515 22.3146 45.2852 22.3778 45.4641 22.3778C45.6548 22.3778 45.8212 22.2983 45.9612 22.1431C46.1022 21.9863 46.2128 21.7944 46.2929 21.5659C46.3747 21.3425 46.4362 21.0937 46.4802 20.8223C46.5209 20.5509 46.5406 20.2913 46.5406 20.0465Z" fill="#39B54A"/>
<path d="M50.6918 22.1011H50.6625C50.5824 22.1717 50.5045 22.2354 50.4306 22.2918C50.3561 22.35 50.2596 22.4081 50.1429 22.4668C50.0328 22.5226 49.9262 22.5655 49.8218 22.5977C49.718 22.6287 49.5989 22.6439 49.4647 22.6439C49.055 22.6439 48.7503 22.5243 48.545 22.2856C48.3379 22.047 48.2363 21.7186 48.2363 21.3044C48.2363 20.9857 48.2916 20.6866 48.4033 20.4068C48.5145 20.1258 48.668 19.8798 48.8592 19.6671C49.0483 19.4572 49.2728 19.2918 49.5312 19.1688C49.7913 19.0458 50.0627 18.9855 50.3482 18.9855C50.5626 18.9855 50.7415 19.0092 50.8871 19.0543C51.0326 19.1 51.1523 19.1609 51.2493 19.2337L51.5066 18.0957C51.5145 18.063 51.5213 18.0285 51.5258 17.9896C51.532 17.9518 51.5342 17.9202 51.5342 17.8976C51.5342 17.8203 51.5156 17.7543 51.4767 17.7013C51.4361 17.6483 51.3813 17.6054 51.3119 17.5749C51.2454 17.5456 51.1709 17.5224 51.0874 17.5083C51.0033 17.4948 50.9108 17.4824 50.8132 17.4677L50.873 17.211L52.8342 17.1207L52.8731 17.1743L51.9326 21.2469C51.9162 21.3146 51.8976 21.4037 51.8739 21.516C51.8525 21.6266 51.8412 21.709 51.8412 21.7654C51.8412 21.898 51.8711 21.9905 51.9315 22.0402C51.9901 22.0904 52.0945 22.1147 52.244 22.1147C52.3089 22.1147 52.3879 22.1023 52.4799 22.0769C52.5724 22.0515 52.6373 22.0306 52.6757 22.0137L52.5972 22.3285C52.3676 22.4205 52.182 22.4888 52.0454 22.5367C51.9094 22.5852 51.7492 22.6095 51.5675 22.6095C51.3272 22.6095 51.1365 22.5615 50.9926 22.4684C50.8493 22.3737 50.7494 22.2512 50.6918 22.1011ZM51.1037 19.8606C51.1037 19.8019 51.097 19.7421 51.0823 19.6806C51.0642 19.6191 51.036 19.5593 50.9915 19.5046C50.9463 19.4453 50.8921 19.399 50.8267 19.3663C50.7612 19.3319 50.6721 19.315 50.5609 19.315C50.4114 19.315 50.2732 19.3714 50.1423 19.4809C50.0125 19.592 49.8985 19.7421 49.7964 19.9328C49.7033 20.1117 49.6294 20.3216 49.573 20.5653C49.516 20.8085 49.4883 21.0601 49.4883 21.3191C49.4883 21.432 49.4974 21.5386 49.516 21.6368C49.5335 21.7344 49.5628 21.8168 49.6012 21.8845C49.6429 21.9561 49.7011 22.0126 49.771 22.0532C49.8444 22.091 49.9313 22.113 50.0413 22.113C50.1508 22.113 50.2585 22.0791 50.3663 22.0154C50.4752 21.9516 50.5739 21.8726 50.6597 21.779L51.1037 19.8606Z" fill="#39B54A"/>
<path d="M59.1018 20.3274C59.1018 20.6394 59.047 20.9379 58.9347 21.2217C58.8242 21.5043 58.6752 21.7503 58.4817 21.9585C58.2842 22.1735 58.0613 22.3388 57.8136 22.4551C57.5665 22.5707 57.294 22.6294 56.9944 22.6294C56.7709 22.6294 56.5921 22.6085 56.4544 22.5645C56.3167 22.5216 56.1994 22.4613 56.1001 22.3817L55.8868 23.3149C55.8795 23.342 55.8721 23.3764 55.8665 23.4148C55.858 23.4532 55.8546 23.4803 55.8546 23.4983C55.8546 23.5514 55.8665 23.5999 55.8902 23.6445C55.9133 23.6885 55.9489 23.7212 55.9957 23.7415C56.0465 23.7663 56.1277 23.7889 56.2434 23.8126C56.3562 23.8335 56.451 23.847 56.5272 23.8521L56.4713 24.093H53.9419L53.9978 23.8521C54.0598 23.847 54.1332 23.838 54.2257 23.825C54.3177 23.8132 54.3865 23.7991 54.4322 23.7855C54.5123 23.7596 54.5721 23.7189 54.615 23.6625C54.6556 23.6095 54.6867 23.5344 54.7047 23.4413L55.4016 20.3883C55.4145 20.3183 55.4337 20.2331 55.4535 20.1276C55.4777 20.0221 55.4896 19.9364 55.4896 19.8681C55.4896 19.7456 55.4631 19.6554 55.4117 19.5995C55.3592 19.5459 55.2582 19.5183 55.1053 19.5183C55.0354 19.5183 54.9598 19.5301 54.8768 19.5527C54.7956 19.5764 54.7279 19.5984 54.6731 19.6193L54.751 19.3039C54.9406 19.2282 55.1234 19.1605 55.2949 19.1058C55.4681 19.0511 55.6323 19.0246 55.788 19.0246C55.9161 19.0246 56.0301 19.0364 56.1266 19.0595C56.2265 19.0855 56.3111 19.125 56.3878 19.1763C56.4504 19.2237 56.5024 19.2751 56.5447 19.3394C56.5864 19.4026 56.6186 19.4675 56.6479 19.5307H56.6761C56.8877 19.3462 57.0976 19.2068 57.2996 19.1177C57.5039 19.0308 57.6968 18.9862 57.8825 18.9862C58.2864 18.9862 58.5928 19.1058 58.7971 19.3445C59.0008 19.5837 59.1018 19.911 59.1018 20.3274ZM57.5451 21.7058C57.6444 21.5015 57.7211 21.2882 57.7713 21.0659C57.8227 20.8408 57.8497 20.5897 57.8497 20.3121C57.8497 20.1982 57.8396 20.0932 57.8249 19.9962C57.8085 19.8991 57.7792 19.8156 57.7369 19.7456C57.6951 19.6723 57.6381 19.6176 57.5665 19.5769C57.496 19.5386 57.4079 19.5183 57.2996 19.5183C57.1777 19.5183 57.0576 19.5561 56.9374 19.6328C56.8172 19.7084 56.732 19.7812 56.6761 19.8495L56.2406 21.7724C56.2406 21.9326 56.2874 22.0674 56.3822 22.1735C56.4747 22.2807 56.6084 22.3321 56.7839 22.3321C56.9272 22.3321 57.0649 22.2762 57.1997 22.1651C57.3335 22.0522 57.4497 21.8999 57.5451 21.7058Z" fill="#39B54A"/>
<path d="M61.2413 22.6541C60.9603 22.6541 60.7148 22.6168 60.5038 22.5412C60.2933 22.465 60.1184 22.3601 59.9808 22.2241C59.8465 22.0893 59.7438 21.9307 59.6755 21.7519C59.6078 21.5719 59.5723 21.3727 59.5723 21.156C59.5723 20.8813 59.6253 20.6138 59.7286 20.3543C59.8307 20.0953 59.9842 19.8623 60.1873 19.6546C60.378 19.4554 60.62 19.2946 60.9157 19.1716C61.2085 19.0469 61.5335 18.986 61.889 18.986C62.3054 18.986 62.6236 19.0526 62.8425 19.1841C63.0609 19.3189 63.1687 19.5181 63.1687 19.7844C63.1687 20.0383 63.0756 20.2567 62.886 20.44C62.697 20.6234 62.4402 20.7588 62.1169 20.8485C61.8585 20.9241 61.6402 20.9806 61.4596 21.0116C61.2785 21.0454 61.0573 21.077 60.7955 21.1036C60.8023 21.2057 60.8153 21.3219 60.8384 21.4494C60.8615 21.5792 60.8976 21.6881 60.9433 21.7789C60.9998 21.8844 61.0782 21.968 61.182 22.0295C61.2836 22.091 61.415 22.1231 61.5747 22.1231C61.8484 22.1231 62.0819 22.0701 62.2755 21.9617C62.4668 21.8557 62.6507 21.6881 62.8262 21.4568L63.0823 21.67C62.8713 21.9696 62.6044 22.2083 62.2755 22.386C61.9482 22.5655 61.6029 22.6541 61.2413 22.6541ZM62.0317 19.882C62.0317 19.6834 61.9968 19.5305 61.924 19.4261C61.8523 19.32 61.7513 19.2653 61.6227 19.2653C61.4421 19.2653 61.2723 19.412 61.1126 19.7054C60.9529 19.9988 60.8508 20.3678 60.8068 20.8164C60.9445 20.7994 61.0804 20.7791 61.2153 20.7532C61.3518 20.7267 61.4579 20.6973 61.5386 20.6618C61.7135 20.585 61.8405 20.4874 61.9166 20.3633C61.9939 20.2437 62.0317 20.0829 62.0317 19.882Z" fill="#39B54A"/>
<path d="M67.646 20.442C67.646 20.7359 67.589 21.0181 67.4784 21.2849C67.3667 21.5546 67.2076 21.7877 67.0034 21.9846C66.7805 22.1979 66.5204 22.3626 66.2236 22.4771C65.9251 22.5928 65.5917 22.6515 65.2215 22.6515C64.7239 22.6515 64.3227 22.5178 64.0175 22.2537C63.7117 21.9891 63.5576 21.6274 63.5576 21.1704C63.5576 20.8601 63.614 20.5717 63.7303 20.3054C63.8476 20.038 64.0067 19.8061 64.2166 19.6109C64.4209 19.4162 64.672 19.2616 64.9721 19.1482C65.2695 19.0348 65.5939 18.9795 65.942 18.9795C66.4696 18.9795 66.8837 19.1081 67.1895 19.3666C67.4942 19.6233 67.646 19.981 67.646 20.442ZM66.4154 20.0465C66.4154 19.7734 66.3686 19.5731 66.2761 19.445C66.1847 19.3158 66.0509 19.2509 65.8755 19.2509C65.6972 19.2509 65.5302 19.3242 65.3835 19.4664C65.2317 19.6109 65.1104 19.8208 65.0184 20.0989C64.9366 20.3308 64.8779 20.5802 64.8435 20.8499C64.8079 21.119 64.7916 21.3594 64.7916 21.5716C64.7916 21.8548 64.8373 22.0596 64.9293 22.186C65.0229 22.3146 65.1583 22.3778 65.3355 22.3778C65.5273 22.3778 65.6938 22.2983 65.8326 22.1431C65.9719 21.9863 66.0848 21.7944 66.1655 21.5659C66.2479 21.3425 66.3099 21.0937 66.3511 20.8223C66.3946 20.5509 66.4154 20.2913 66.4154 20.0465Z" fill="#39B54A"/>
<path d="M72.4041 20.3274C72.4041 20.6394 72.3499 20.9379 72.2371 21.2217C72.1282 21.5043 71.9764 21.7503 71.7851 21.9585C71.5854 22.1735 71.3648 22.3388 71.1159 22.4551C70.8682 22.5707 70.5963 22.6294 70.2995 22.6294C70.0738 22.6294 69.8933 22.6085 69.7567 22.5645C69.619 22.5216 69.5017 22.4613 69.4018 22.3817L69.1902 23.3149C69.1818 23.342 69.175 23.3764 69.1694 23.4148C69.1615 23.4532 69.1581 23.4803 69.1581 23.4983C69.1581 23.5514 69.1699 23.5999 69.1919 23.6445C69.2168 23.6885 69.2512 23.7212 69.298 23.7415C69.3488 23.7663 69.4306 23.7889 69.5468 23.8126C69.6602 23.8335 69.7562 23.847 69.8318 23.8521L69.7742 24.093H67.2437L67.2995 23.8521C67.3616 23.847 67.4355 23.838 67.5269 23.825C67.6189 23.8132 67.6871 23.7991 67.7334 23.7855C67.8118 23.7596 67.8739 23.7189 67.9168 23.6625C67.958 23.6095 67.989 23.5344 68.0071 23.4413L68.7022 20.3883C68.7168 20.3183 68.736 20.2331 68.7569 20.1276C68.78 20.0221 68.7919 19.9364 68.7919 19.8681C68.7919 19.7456 68.7642 19.6554 68.7123 19.5995C68.6616 19.5459 68.5606 19.5183 68.4065 19.5183C68.3377 19.5183 68.2604 19.5301 68.1803 19.5527C68.0968 19.5764 68.0302 19.5984 67.9755 19.6193L68.0522 19.3039C68.2418 19.2282 68.424 19.1605 68.5984 19.1058C68.7716 19.0511 68.9335 19.0246 69.0898 19.0246C69.2196 19.0246 69.3336 19.0364 69.43 19.0595C69.5299 19.0855 69.6157 19.125 69.6907 19.1763C69.7528 19.2237 69.8047 19.2751 69.8459 19.3394C69.8882 19.4026 69.922 19.4675 69.9503 19.5307H69.9785C70.1917 19.3462 70.3999 19.2068 70.6019 19.1177C70.8051 19.0308 71.0003 18.9862 71.1848 18.9862C71.5905 18.9862 71.8963 19.1058 72.0994 19.3445C72.3031 19.5837 72.4041 19.911 72.4041 20.3274ZM70.8468 21.7058C70.9495 21.5015 71.0234 21.2882 71.0736 21.0659C71.1267 20.8408 71.1515 20.5897 71.1515 20.3121C71.1515 20.1982 71.1436 20.0932 71.1272 19.9962C71.1109 19.8991 71.0804 19.8156 71.0398 19.7456C70.9975 19.6723 70.9422 19.6176 70.8705 19.5769C70.7988 19.5386 70.7103 19.5183 70.6019 19.5183C70.4801 19.5183 70.3599 19.5561 70.2397 19.6328C70.1206 19.7084 70.0343 19.7812 69.9785 19.8495L69.544 21.7724C69.544 21.9326 69.5914 22.0674 69.6834 22.1735C69.7787 22.2807 69.9119 22.3321 70.0868 22.3321C70.2301 22.3321 70.3689 22.2762 70.5032 22.1651C70.6364 22.0522 70.7526 21.8999 70.8468 21.7058Z" fill="#39B54A"/>
<path d="M75.247 17.1753L74.3053 21.2715C74.2906 21.3393 74.2715 21.4295 74.2483 21.5407C74.2263 21.6524 74.2145 21.7359 74.2145 21.7889C74.2145 21.9249 74.2483 22.0175 74.316 22.066C74.3837 22.1156 74.496 22.1399 74.6512 22.1399C74.7082 22.1399 74.7877 22.128 74.8876 22.1021C74.988 22.079 75.058 22.0575 75.1003 22.0389L75.0236 22.3532C74.7945 22.4446 74.6027 22.5134 74.4554 22.5614C74.3087 22.6093 74.1428 22.6342 73.9544 22.6342C73.6762 22.6342 73.4545 22.5659 73.2931 22.4293C73.1329 22.2917 73.0527 22.119 73.0527 21.9074C73.0527 21.8228 73.0595 21.732 73.0747 21.6389C73.0894 21.5458 73.1075 21.4544 73.1261 21.3703L73.8827 18.0831C73.8917 18.0425 73.8985 18.0058 73.9013 17.9719C73.9075 17.9347 73.9109 17.9059 73.9109 17.8828C73.9109 17.7999 73.8968 17.7327 73.8675 17.6825C73.841 17.6345 73.7975 17.595 73.7428 17.5646C73.6864 17.5335 73.6226 17.5132 73.5498 17.5014C73.4776 17.4912 73.3947 17.4788 73.2987 17.4698L73.3597 17.2108L75.2109 17.1205L75.247 17.1753Z" fill="#39B54A"/>
<path d="M77.0856 22.6541C76.8069 22.6541 76.558 22.6168 76.3493 22.5412C76.136 22.465 75.9633 22.3601 75.8251 22.2241C75.6897 22.0893 75.5887 21.9307 75.5204 21.7519C75.4522 21.5719 75.4194 21.3727 75.4194 21.156C75.4194 20.8813 75.4713 20.6138 75.574 20.3543C75.675 20.0953 75.8285 19.8623 76.0316 19.6546C76.2223 19.4554 76.4666 19.2946 76.7595 19.1716C77.0534 19.0469 77.379 18.986 77.7328 18.986C78.1509 18.986 78.468 19.0526 78.6863 19.1841C78.9035 19.3189 79.013 19.5181 79.013 19.7844C79.013 20.0383 78.9193 20.2567 78.7303 20.44C78.5396 20.6234 78.2846 20.7588 77.9613 20.8485C77.7034 20.9241 77.4845 20.9806 77.3028 21.0116C77.1234 21.0454 76.9017 21.077 76.641 21.1036C76.6466 21.2057 76.6596 21.3219 76.6827 21.4494C76.7064 21.5792 76.7414 21.6881 76.7877 21.7789C76.8441 21.8844 76.9231 21.968 77.0264 22.0295C77.1268 22.091 77.2594 22.1231 77.4174 22.1231C77.6944 22.1231 77.928 22.0701 78.121 21.9617C78.3122 21.8557 78.4962 21.6881 78.6711 21.4568L78.9267 21.67C78.7162 21.9696 78.4488 22.2083 78.121 22.386C77.7926 22.5655 77.4461 22.6541 77.0856 22.6541ZM77.8766 19.882C77.8766 19.6834 77.84 19.5305 77.7683 19.4261C77.6967 19.32 77.5945 19.2653 77.467 19.2653C77.2865 19.2653 77.1166 19.412 76.9581 19.7054C76.7973 19.9988 76.6952 20.3678 76.6506 20.8164C76.7877 20.7994 76.9248 20.7791 77.0613 20.7532C77.1951 20.7267 77.3028 20.6973 77.3818 20.6618C77.5562 20.585 77.6848 20.4874 77.7615 20.3633C77.8366 20.2437 77.8766 20.0829 77.8766 19.882Z" fill="#39B54A"/>
<path d="M16.3462 0.0801562H1.47207C0.662968 0.0801562 0 0.734095 0 1.53248V13.4433C0 15.0096 0.919691 15.7245 3.59469 15.7245C4.09798 15.7245 5.49332 15.6703 6.59131 15.0835C7.68647 14.5001 10.0692 13.1352 11.4109 13.0918C11.974 13.0766 12.1755 13.1505 12.2607 13.085C12.3464 13.019 12.4407 12.9451 12.2861 12.6963C12.1252 12.4373 10.4958 9.74537 10.4297 9.6235C10.3649 9.50501 10.2988 9.36226 10.5307 9.2765C10.7626 9.19073 14.6885 7.72487 14.8132 7.66563C14.9453 7.60864 15.1049 7.50144 14.9238 7.26785C14.7427 7.032 13.6678 5.73371 13.5821 5.63836C13.4974 5.54018 13.3056 5.45894 13.1499 5.61128C12.993 5.75628 10.6312 8.2039 10.5008 8.34157C10.3694 8.48432 10.256 8.64964 9.72615 8.65472C9.20368 8.66318 9.15403 8.74048 9.21778 8.89339C9.28493 9.05419 10.4608 11.1322 10.5505 11.3094C10.6475 11.4905 10.7327 11.859 10.4151 11.9701C10.0991 12.0739 7.3784 13.0783 7.25371 13.1183C7.1324 13.1623 7.00206 13.1984 7.00206 12.94C7.00206 12.6861 6.96652 12.1095 6.89655 11.8759C6.82095 11.6372 6.6545 11.1407 6.35377 10.6284C6.04683 10.1155 5.78559 9.5761 5.64002 8.90524C5.49332 8.2355 5.54466 7.51837 5.76133 6.84186C5.9763 6.16366 6.44799 5.43693 7.09798 4.92405C7.74628 4.41229 8.41037 4.05739 9.44517 3.8492C10.485 3.641 11.4459 3.99251 11.8426 4.16855C12.2403 4.34684 12.5919 4.55561 12.738 4.63911C12.8841 4.72544 13.0037 4.7339 13.1538 4.56069C13.3056 4.39085 13.5217 4.16855 13.7576 4.46477L16.2813 7.59679C16.3671 7.70287 16.4168 7.81571 16.2323 7.86649C16.0399 7.91615 15.7374 7.98047 15.659 8.00022C15.5828 8.02391 15.4869 8.10855 15.5721 8.2355C15.659 8.36189 16.7739 10.1866 16.8191 10.2718C16.8698 10.3542 16.9951 10.581 16.735 10.7125C16.4783 10.8484 16.2356 10.9681 16.1956 10.9985C16.151 11.025 15.9998 11.0978 15.9998 11.4516V12.8859C15.9998 13.0563 16.0805 13.4845 15.2759 13.4845L13.4822 13.476C13.3513 13.476 13.0839 13.498 12.9191 13.858C12.7521 14.2265 12.1196 15.7245 12.1196 15.7245H16.3462C17.1565 15.7245 17.82 15.0734 17.82 14.275V1.53248C17.82 0.734095 17.1565 0.0801562 16.3462 0.0801562ZM13.0246 1.84224C12.9541 1.98386 12.36 3.09482 12.1997 3.38596C12.0389 3.67316 11.7072 3.43618 11.4561 3.36904C10.867 3.19864 9.81248 3.17156 8.92269 3.35719C8.03234 3.53323 7.16795 4.06755 6.71543 4.44446C6.26292 4.82305 5.57457 5.55203 5.26819 6.37355C4.96633 7.19732 4.94207 7.65378 4.92119 8.18867C4.90709 8.72186 5.15873 9.48018 5.22813 9.65961C5.2981 9.84016 5.80985 10.9494 6.03723 11.4285C6.26292 11.9081 6.13259 12.1715 6.02651 12.3566C5.921 12.54 5.74609 12.632 5.51419 12.7047C5.2823 12.7803 4.85574 12.8689 4.20349 13.0918C3.54955 13.3102 2.85161 13.7034 2.85161 13.7034C2.6135 12.9852 2.40812 12.9062 1.87493 11.9949C1.17134 10.7971 0.964829 9.51517 0.964829 8.15707C0.964829 6.79672 1.36656 5.61297 1.59338 5.11194C2.27158 3.63084 3.14331 2.87252 3.40342 2.60338C3.66466 2.33763 4.55444 1.68595 5.07748 1.41117C5.68516 1.09746 6.58623 0.710962 7.65149 0.527024C8.71731 0.340829 9.91291 0.419821 10.1933 0.453675C11.5108 0.619558 12.5163 1.03201 12.874 1.20805C13.2351 1.39029 13.0952 1.704 13.0246 1.84224ZM14.9041 9.2686C15.11 9.2686 15.0942 9.12359 15.075 9.08128C15.0558 9.04855 14.9543 8.87477 14.8939 8.74048C14.8335 8.60732 14.6722 8.62933 14.6231 8.65472C14.5684 8.67842 13.8089 9.01639 13.7519 9.05024C13.5984 9.13883 13.7034 9.2686 13.8033 9.2686H14.9041Z" fill="#ED2227"/>
</g>
</g>
<defs>
<clipPath id="clip0_1801_11680">
<rect width="80" height="24.0931" fill="white"/>
</clipPath>
<clipPath id="clip1_1801_11680">
<rect width="80" height="24.0931" fill="white"/>
</clipPath>
</defs>
</svg>
