<svg width="80" height="19" viewBox="0 0 80 19" fill="none" xmlns="http://www.w3.org/2000/svg">
<g clip-path="url(#clip0_1801_10349)">
<path d="M80 16.619C80 17.529 79.2655 18.2606 78.3592 18.2606H1.6386C0.733018 18.2606 0 17.529 0 16.619V1.64155C0 0.736705 0.733018 0 1.6386 0H78.3592C79.2655 0 80 0.736705 80 1.64155V16.619Z" fill="#0093D0"/>
<path d="M15.3486 13.4665C15.3486 14.1015 14.8361 14.6103 14.2004 14.6103H5.81566C5.18663 14.6103 4.67337 14.1015 4.67337 13.4665V5.08549C4.67337 4.44981 5.18663 3.9395 5.81566 3.9395H14.2004C14.8361 3.9395 15.3486 4.44981 15.3486 5.08549V13.4665Z" fill="#FCEE21"/>
<path d="M24.0924 7.20608C23.9258 6.9878 23.7096 6.80933 23.4456 6.68397C23.1816 6.55639 22.8586 6.49445 22.4774 6.49445C22.175 6.49445 21.8742 6.55861 21.591 6.68988C21.3984 6.7828 21.2075 6.90596 21.0172 7.05934V4.48567C21.0172 4.41192 20.9963 4.34703 20.9524 4.28804C20.9163 4.2379 20.8536 4.19586 20.7689 4.16415C20.6995 4.13908 20.6163 4.11695 20.5108 4.10589C20.4075 4.09251 20.2851 4.08749 20.1354 4.08749C19.9784 4.08749 19.8589 4.09272 19.7549 4.10589C19.6525 4.11697 19.5639 4.13906 19.4953 4.16415C19.4119 4.19586 19.3515 4.2379 19.3133 4.28804C19.2721 4.34703 19.2499 4.41194 19.2499 4.48567V12.2148C19.2499 12.2886 19.2735 12.3542 19.3164 12.411C19.3592 12.4611 19.4182 12.4995 19.5008 12.5282C19.5693 12.5526 19.6542 12.5717 19.7596 12.582C19.8591 12.5902 19.9808 12.5984 20.1357 12.5984C20.2816 12.5984 20.4078 12.5902 20.5059 12.582C20.6135 12.5718 20.6999 12.5526 20.7655 12.5282C20.8503 12.4995 20.9101 12.4611 20.9507 12.411C20.9942 12.3542 21.0178 12.2886 21.0178 12.2148V8.77832C21.2059 8.54677 21.3865 8.36904 21.5583 8.24515C21.7249 8.12642 21.8887 8.06521 22.0421 8.06521C22.1734 8.06521 22.2803 8.09249 22.3725 8.13969C22.4603 8.181 22.5332 8.24515 22.5922 8.32996C22.6526 8.41993 22.7013 8.53055 22.7337 8.65812C22.7661 8.79159 22.7831 8.98333 22.7831 9.223V12.2148C22.7831 12.2886 22.8096 12.3542 22.8502 12.411C22.8893 12.4611 22.9511 12.498 23.0322 12.5282C23.0979 12.5526 23.1834 12.5717 23.2926 12.582C23.3921 12.5902 23.5197 12.5984 23.6694 12.5984C23.8109 12.5984 23.9364 12.5902 24.0403 12.582C24.1474 12.5718 24.2335 12.5526 24.3014 12.5282C24.3804 12.498 24.4408 12.4611 24.4828 12.411C24.5211 12.3542 24.5485 12.2886 24.5485 12.2148V9.00177C24.5485 8.60503 24.5123 8.25695 24.4408 7.97599C24.3708 7.68322 24.2531 7.42584 24.0924 7.20608Z" fill="#FCEE21"/>
<path d="M30.5998 6.61649C30.482 6.5981 30.3322 6.59143 30.1618 6.59143C29.9317 6.59143 29.7776 6.59812 29.6795 6.61649C29.5667 6.64009 29.4849 6.67548 29.4258 6.72712C29.3654 6.778 29.3226 6.8665 29.2937 6.99849L28.2864 10.1894L27.1824 7.06265C27.1536 6.96309 27.1235 6.88861 27.088 6.82814C27.0497 6.75218 26.9855 6.69097 26.8963 6.65485C26.8277 6.6246 26.737 6.60838 26.6212 6.59954C26.5209 6.59369 26.3867 6.59139 26.2112 6.59139C26.0239 6.59139 25.8683 6.59807 25.751 6.61645C25.608 6.63784 25.5062 6.67619 25.4361 6.73665C25.3822 6.78385 25.318 6.87233 25.318 7.01688C25.318 7.10463 25.3416 7.22483 25.4006 7.37822L27.2059 12.2018C27.231 12.2704 27.2721 12.339 27.3238 12.4009C27.3446 12.4275 27.3666 12.4489 27.3938 12.4732L26.7375 14.1192C26.7013 14.2099 26.6881 14.2866 26.694 14.3596C26.6982 14.4208 26.7264 14.5108 26.8334 14.5852C26.8961 14.6273 26.9883 14.6575 27.1055 14.6737C27.2059 14.684 27.3363 14.6958 27.503 14.6958C27.8179 14.6958 28.059 14.6737 28.2279 14.6258C28.4292 14.5705 28.5627 14.4709 28.6136 14.3205L29.2478 12.4636L30.9955 7.31848C31.0308 7.20564 31.0486 7.11053 31.0486 7.02276C31.0486 6.90625 31.0043 6.80596 30.9144 6.73369C30.845 6.67616 30.7406 6.63788 30.5998 6.61649Z" fill="#FCEE21"/>
<path d="M35.7515 10.1942C35.7132 10.3778 35.6491 10.5467 35.573 10.6905C35.4971 10.8328 35.3974 10.9463 35.2832 11.0289C35.1703 11.1108 35.0361 11.1491 34.8739 11.1491C34.7006 11.1491 34.5361 11.0894 34.3746 10.9655C34.2022 10.8379 34.0236 10.6528 33.8355 10.4213V8.78712C33.9388 8.65511 34.0377 8.54155 34.1283 8.44789C34.2287 8.34835 34.3209 8.26944 34.4152 8.20823C34.5051 8.15145 34.5914 8.10941 34.6711 8.08213C34.7559 8.05707 34.8406 8.04379 34.924 8.04379C35.0871 8.04379 35.2205 8.08213 35.3296 8.1581C35.4396 8.24142 35.5338 8.35204 35.6025 8.49363C35.6769 8.63965 35.73 8.81073 35.7603 9.00173C35.7912 9.20084 35.8082 9.4088 35.8082 9.62192C35.8082 9.81292 35.7875 10.0054 35.7515 10.1942ZM37.1222 7.40443C36.9378 7.12273 36.6967 6.90002 36.4098 6.73704C36.1163 6.57333 35.7646 6.49443 35.3568 6.49443C35.1642 6.49443 34.9762 6.51429 34.803 6.55563C34.6288 6.59472 34.4578 6.66034 34.2956 6.74515C34.1357 6.83069 33.9755 6.93615 33.8221 7.06151C33.7521 7.11977 33.6821 7.18097 33.6054 7.24956V6.96786C33.6054 6.90297 33.5886 6.8425 33.5537 6.78792C33.5176 6.73261 33.4601 6.69057 33.3842 6.66034C33.3244 6.63747 33.2462 6.61979 33.1548 6.60798C33.0664 6.59627 32.9638 6.59167 32.8422 6.59167C32.7124 6.59167 32.6062 6.59606 32.5184 6.60798C32.4248 6.61968 32.3504 6.63747 32.2913 6.66034C32.2102 6.69059 32.1577 6.73261 32.1195 6.78792C32.0818 6.84101 32.0664 6.90295 32.0664 6.96786V14.298C32.0664 14.3696 32.0892 14.4308 32.1312 14.4876C32.1694 14.5465 32.2321 14.5856 32.317 14.6173C32.3826 14.6439 32.4696 14.6638 32.5736 14.6771C32.6746 14.6867 32.803 14.6955 32.9505 14.6955C33.1016 14.6955 33.23 14.6867 33.328 14.6771C33.4342 14.6637 33.5191 14.6439 33.5884 14.6173C33.6718 14.5856 33.7328 14.5465 33.7719 14.4876C33.8124 14.4308 33.8352 14.3696 33.8352 14.298V12.1491C33.8802 12.1882 33.9251 12.2288 33.9703 12.2612C34.0942 12.3564 34.2217 12.4382 34.3478 12.4994C34.4768 12.5665 34.6148 12.6181 34.7527 12.6469C34.8861 12.6786 35.0396 12.6978 35.2047 12.6978C35.5912 12.6978 35.9444 12.6204 36.2504 12.467C36.5565 12.3187 36.8153 12.099 37.0159 11.818C37.2201 11.5459 37.3765 11.2045 37.4834 10.8188C37.5844 10.4316 37.6346 9.99359 37.6346 9.51941C37.6346 9.11013 37.5947 8.72592 37.5129 8.36826C37.4333 8.00102 37.3014 7.68023 37.1222 7.40443Z" fill="#FCEE21"/>
<path d="M41.017 7.91513C41.1357 7.85614 41.2795 7.82738 41.444 7.82738C41.7706 7.82738 42.0015 7.92473 42.1549 8.12457C42.2928 8.30892 42.365 8.55818 42.3768 8.87307H40.4624C40.4792 8.75728 40.4963 8.64373 40.531 8.54122C40.5724 8.39521 40.6372 8.26542 40.7177 8.15775C40.7973 8.0604 40.8982 7.97634 41.017 7.91513ZM43.4801 7.27282C43.2655 7.02725 42.9919 6.83256 42.6593 6.69835C42.3304 6.55898 41.9359 6.49481 41.478 6.49481C41.0473 6.49481 40.652 6.56561 40.3054 6.71088C39.9559 6.85246 39.6513 7.07149 39.4072 7.34139C39.1653 7.61793 38.9743 7.95642 38.8453 8.34874C38.7213 8.73442 38.6572 9.1732 38.6572 9.6518C38.6572 10.154 38.7213 10.6016 38.8392 10.977C38.9603 11.3627 39.1497 11.6857 39.3982 11.9416C39.6497 12.1952 39.9646 12.3884 40.337 12.5131C40.6991 12.6333 41.1275 12.6982 41.6076 12.6982C41.8731 12.6982 42.1238 12.6768 42.3583 12.6444C42.5847 12.6112 42.7986 12.5714 42.9829 12.5256C43.1591 12.4762 43.3126 12.4305 43.432 12.3803C43.6091 12.3051 43.6614 12.2645 43.6916 12.2336C43.7284 12.1953 43.7549 12.1547 43.7765 12.1163C43.8001 12.0728 43.8156 12.0264 43.8258 11.9666C43.8342 11.9187 43.8404 11.8605 43.8467 11.7948C43.8488 11.7292 43.8488 11.6525 43.8488 11.5633C43.8488 11.463 43.8488 11.3723 43.8426 11.3074C43.8342 11.227 43.8198 11.1628 43.7962 11.1127C43.7696 11.0508 43.732 11.0036 43.6797 10.9726C43.5787 10.9106 43.4378 10.918 43.2372 10.9991C43.148 11.0323 43.0307 11.0758 42.8936 11.1186C42.7542 11.1628 42.5854 11.2012 42.3995 11.2366C42.2145 11.2742 41.9924 11.2911 41.7424 11.2911C41.505 11.2911 41.3022 11.2617 41.1363 11.2012C40.9799 11.1429 40.8442 11.0559 40.7477 10.9468C40.6481 10.8361 40.5706 10.699 40.5264 10.5382C40.4882 10.4106 40.4652 10.2683 40.4564 10.1142H43.5013C43.6827 10.1142 43.8317 10.0559 43.94 9.93868C44.0439 9.82438 44.0979 9.65476 44.0979 9.44238V9.20787C44.0979 8.82588 44.0506 8.46601 43.9497 8.14079C43.8495 7.80747 43.6918 7.51765 43.4801 7.27282Z" fill="#FCEE21"/>
<path d="M49.0943 6.90974C49.0838 6.86107 49.0715 6.82125 49.0595 6.78584C49.0387 6.74234 49.0123 6.70693 48.9755 6.67154C48.9431 6.63761 48.8921 6.61106 48.8258 6.586C48.7719 6.56614 48.7138 6.55061 48.6423 6.5366C48.5723 6.51883 48.5081 6.50784 48.4439 6.50194C48.3806 6.49463 48.3208 6.49463 48.2648 6.49463C48.1423 6.49463 48.0185 6.50779 47.8953 6.53961C47.7722 6.57354 47.6468 6.6318 47.5229 6.7166C47.4065 6.79773 47.2825 6.90687 47.1557 7.04034C47.1114 7.08828 47.0591 7.14064 47.0133 7.19817V6.96809C47.0133 6.90318 46.9945 6.84273 46.9602 6.78815C46.9255 6.73432 46.8687 6.69007 46.8009 6.66206C46.742 6.63772 46.6674 6.62002 46.5701 6.60823C46.4809 6.59652 46.3688 6.59192 46.242 6.59192C46.1136 6.59192 46.0097 6.59632 45.9204 6.60823C45.8282 6.61994 45.7494 6.63772 45.6889 6.66059C45.6092 6.69009 45.5518 6.73286 45.5156 6.78817C45.4809 6.84275 45.464 6.9032 45.464 6.96811V12.2143C45.464 12.2888 45.4868 12.3536 45.5319 12.4104C45.5701 12.4606 45.6343 12.4997 45.72 12.5284C45.7827 12.5528 45.8668 12.5719 45.9752 12.5823C46.0732 12.5904 46.2001 12.5977 46.3491 12.5977C46.4944 12.5977 46.6241 12.5904 46.7207 12.5823C46.8255 12.572 46.9124 12.5528 46.9796 12.5284C47.0592 12.4997 47.1226 12.4606 47.1646 12.4104C47.2045 12.3537 47.2294 12.2888 47.2294 12.2143V8.9887C47.3289 8.83753 47.4211 8.70774 47.5089 8.60155C47.5973 8.49387 47.6822 8.4076 47.7648 8.34197C47.84 8.27928 47.9138 8.23577 47.9816 8.2085C48.1085 8.15762 48.2382 8.15761 48.3341 8.18268C48.3938 8.19752 48.444 8.20996 48.4852 8.22618C48.5368 8.24019 48.578 8.25273 48.6179 8.26673C48.7536 8.31467 48.8672 8.30212 48.9535 8.23797C49.0051 8.19963 49.0427 8.14062 49.0685 8.06098C49.0852 7.99829 49.0979 7.92159 49.1075 7.81836C49.1159 7.72176 49.1201 7.60376 49.1201 7.46144C49.1201 7.3191 49.1201 7.20481 49.1117 7.11705C49.1075 7.02708 49.0992 6.95849 49.0929 6.90983" fill="#FCEE21"/>
<path d="M58.8062 7.20608C58.6432 6.9878 58.4324 6.80934 58.1735 6.68397C57.9139 6.55639 57.5961 6.49445 57.2303 6.49445C57.0643 6.49445 56.9044 6.51431 56.7436 6.55493C56.5849 6.5918 56.428 6.65374 56.2702 6.73265C56.1161 6.81378 55.9575 6.91997 55.7997 7.04828C55.6876 7.13752 55.5748 7.24149 55.4627 7.35137C55.411 7.26656 55.3542 7.18102 55.2908 7.11096C55.1817 6.97674 55.0541 6.86982 54.9059 6.77543C54.7598 6.68473 54.5939 6.61319 54.4044 6.56378C54.2224 6.51585 54.0173 6.49446 53.7879 6.49446C53.4509 6.49446 53.1264 6.57632 52.816 6.74519C52.597 6.86318 52.3794 7.02542 52.1597 7.22822V6.9679C52.1597 6.903 52.1388 6.84254 52.1089 6.78796C52.0712 6.73338 52.0152 6.68988 51.9473 6.66185C51.8898 6.63825 51.8116 6.61981 51.7179 6.60802C51.6287 6.59631 51.5166 6.59171 51.3876 6.59171C51.2592 6.59171 51.1538 6.5961 51.0712 6.60802C50.9752 6.61973 50.8987 6.63827 50.8367 6.66038C50.7564 6.68988 50.6995 6.73265 50.6634 6.78796C50.6258 6.84106 50.6103 6.903 50.6103 6.9679V12.2148C50.6103 12.2886 50.6325 12.3542 50.6736 12.411C50.7179 12.4611 50.7792 12.4995 50.8624 12.5282C50.928 12.5526 51.0135 12.5717 51.1205 12.582C51.2194 12.5902 51.3447 12.5984 51.4936 12.5984C51.6456 12.5984 51.765 12.5902 51.8668 12.582C51.973 12.5718 52.0579 12.5526 52.1264 12.5282C52.2119 12.4995 52.2731 12.4611 52.3114 12.411C52.3534 12.3542 52.3793 12.2886 52.3793 12.2148V8.77833C52.5658 8.54455 52.7406 8.36536 52.9014 8.24147C53.0578 8.12643 53.2097 8.06523 53.3564 8.06523C53.4751 8.06523 53.574 8.08956 53.6588 8.13749C53.7428 8.17953 53.8128 8.24147 53.8674 8.32776C53.9242 8.41995 53.9669 8.52392 53.9987 8.65739C54.0296 8.79162 54.0415 8.94131 54.0415 9.10576V12.2148C54.0415 12.2886 54.0666 12.3542 54.1101 12.411C54.1529 12.4611 54.2125 12.4995 54.2959 12.5282C54.3668 12.5526 54.4479 12.5717 54.554 12.5821C54.6521 12.5902 54.7789 12.5984 54.9294 12.5984C55.0747 12.5984 55.1971 12.5902 55.2937 12.5821C55.4007 12.5718 55.4847 12.5526 55.5533 12.5282C55.6381 12.4995 55.6971 12.4611 55.7406 12.411C55.7855 12.3542 55.8077 12.2886 55.8077 12.2148V8.78202C55.9993 8.54678 56.1801 8.36537 56.3386 8.24148C56.4912 8.12644 56.641 8.06524 56.787 8.06524C56.9063 8.06524 57.0075 8.08957 57.093 8.13604C57.175 8.17954 57.2435 8.24518 57.2981 8.32998C57.3579 8.41995 57.4028 8.52763 57.4308 8.65741C57.4632 8.79163 57.4772 8.94132 57.4772 9.10577V12.2148C57.4772 12.2871 57.496 12.3513 57.537 12.4066C57.5799 12.4604 57.6395 12.498 57.7229 12.5282C57.7937 12.5526 57.8755 12.5717 57.9832 12.5821C58.082 12.5902 58.2118 12.5984 58.3652 12.5984C58.5134 12.5984 58.6373 12.5902 58.7361 12.5821C58.8415 12.5718 58.9272 12.5526 58.9949 12.5282C59.0746 12.498 59.1335 12.4611 59.1741 12.411C59.2205 12.3542 59.2435 12.2886 59.2435 12.2148V8.86168C59.2435 8.5468 59.2096 8.24887 59.1431 7.9679C59.0767 7.67882 58.9626 7.42436 58.8062 7.20608Z" fill="#FCEE21"/>
<path d="M62.8541 10.1813C63.0128 10.1489 63.2096 10.1327 63.436 10.1327H63.8585V10.8281C63.7015 10.9991 63.5451 11.1363 63.3954 11.2248C63.242 11.3155 63.0783 11.362 62.8962 11.362C62.6867 11.362 62.5238 11.3126 62.4139 11.2115C62.3048 11.112 62.2502 10.977 62.2502 10.8008C62.2502 10.6902 62.2724 10.5972 62.3071 10.5176C62.347 10.4439 62.4074 10.376 62.4929 10.317C62.5822 10.2603 62.7059 10.2116 62.8541 10.1813ZM65.0098 7.01772C64.8004 6.84072 64.5437 6.70652 64.2311 6.61655C63.9258 6.53764 63.5585 6.49487 63.1396 6.49487C62.8978 6.49487 62.6647 6.51034 62.4369 6.55164C62.2164 6.5863 62.0055 6.64013 61.8181 6.70209C61.6235 6.75667 61.4553 6.8282 61.313 6.89971C61.164 6.97419 61.0549 7.04867 60.9871 7.11578C60.9156 7.19175 60.866 7.27359 60.841 7.36872C60.8196 7.4528 60.8071 7.56046 60.8071 7.69394C60.8071 7.79202 60.8113 7.88272 60.8259 7.96458C60.8405 8.05085 60.8606 8.12387 60.8863 8.18213C60.9158 8.25661 60.9586 8.31708 61.0094 8.35912C61.1369 8.46088 61.2985 8.45793 61.5264 8.33257C61.6223 8.28242 61.7446 8.21827 61.8914 8.15633C62.0323 8.09218 62.1997 8.03243 62.3855 7.98228C62.569 7.92624 62.7734 7.90337 63.0064 7.90337C63.1797 7.90337 63.3265 7.92177 63.44 7.95498C63.541 7.9867 63.6221 8.03241 63.6834 8.09805C63.7423 8.16294 63.7837 8.2448 63.8147 8.34731C63.845 8.45793 63.859 8.58845 63.859 8.7411V8.91734H63.491C63.0153 8.91734 62.5913 8.952 62.2351 9.02353C61.8657 9.09874 61.5515 9.21453 61.2993 9.37234C61.0405 9.52795 60.8465 9.7359 60.7138 9.98442C60.5848 10.227 60.5177 10.5176 60.5177 10.8465C60.5177 11.1466 60.5679 11.4173 60.6718 11.6474C60.7727 11.8804 60.9218 12.0736 61.1083 12.2321C61.2919 12.3863 61.5132 12.4991 61.7617 12.5817C62.0087 12.6554 62.2787 12.6975 62.5736 12.6975C62.9283 12.6975 63.258 12.6259 63.5529 12.4895C63.7425 12.3996 63.9209 12.2853 64.0883 12.1496V12.2351C64.0883 12.3538 64.1391 12.4276 64.1812 12.4667C64.238 12.5198 64.3177 12.5544 64.4252 12.5736C64.5174 12.5861 64.6494 12.5979 64.836 12.5979C65.0101 12.5979 65.1398 12.5862 65.235 12.5751C65.3418 12.5544 65.426 12.522 65.485 12.4748C65.5587 12.418 65.5985 12.3317 65.5985 12.2351V8.70421C65.5985 8.33253 65.5521 8.00216 65.459 7.72341C65.3654 7.44318 65.2148 7.20429 65.0098 7.01772Z" fill="#FCEE21"/>
<path d="M70.8508 6.90974C70.8424 6.86107 70.8299 6.82125 70.8154 6.78584C70.8029 6.74234 70.7696 6.70693 70.7343 6.67154C70.7005 6.63761 70.6488 6.61106 70.5847 6.586C70.5309 6.56614 70.4711 6.55061 70.3965 6.5366C70.3302 6.51883 70.2638 6.50784 70.2019 6.50194C70.14 6.49463 70.0788 6.49463 70.0219 6.49463C69.9017 6.49463 69.7778 6.50779 69.6539 6.53961C69.5314 6.57354 69.4062 6.6318 69.283 6.7166C69.1657 6.79773 69.0418 6.90687 68.9113 7.04034C68.8699 7.08828 68.8191 7.14064 68.7704 7.19817V6.96809C68.7704 6.90318 68.7516 6.84273 68.7188 6.78815C68.6818 6.73432 68.6295 6.69007 68.5589 6.66206C68.5014 6.63772 68.4261 6.62002 68.3281 6.60823C68.2382 6.59652 68.1311 6.59192 67.9984 6.59192C67.8738 6.59192 67.7639 6.59632 67.6791 6.60823C67.5846 6.61994 67.5117 6.63772 67.4483 6.66059C67.3649 6.69009 67.3089 6.73286 67.275 6.78817C67.2397 6.84275 67.2219 6.9032 67.2219 6.96811V12.2143C67.2219 12.2888 67.2407 12.3536 67.2867 12.4104C67.3302 12.4606 67.3914 12.4997 67.474 12.5284C67.5405 12.5528 67.6266 12.5719 67.7299 12.5823C67.8302 12.5904 67.957 12.5977 68.1053 12.5977C68.2549 12.5977 68.3803 12.5904 68.4792 12.5823C68.5853 12.572 68.6708 12.5528 68.7365 12.5284C68.8191 12.4997 68.8826 12.4606 68.9217 12.4104C68.9667 12.3537 68.9888 12.2888 68.9888 12.2143V8.9887C69.0877 8.83753 69.1814 8.70774 69.2646 8.60155C69.3554 8.49387 69.4423 8.4076 69.5205 8.34197C69.6002 8.27928 69.6725 8.23577 69.7395 8.2085C69.8685 8.15762 69.9954 8.15761 70.0965 8.18268C70.1502 8.19752 70.2004 8.20996 70.2484 8.22618C70.2948 8.24019 70.3377 8.25273 70.3745 8.26673C70.5095 8.31467 70.6282 8.30212 70.7115 8.23797C70.7623 8.19963 70.8037 8.14062 70.8259 8.06098C70.8447 7.99829 70.8553 7.92159 70.8664 7.81836C70.8727 7.72176 70.8789 7.60376 70.8789 7.46144C70.8789 7.3191 70.8748 7.20481 70.8748 7.11705C70.8664 7.02708 70.8601 6.95849 70.852 6.90983" fill="#FCEE21"/>
<path d="M75.2759 11.2213C75.255 11.1461 75.217 11.0908 75.1639 11.0576C75.0805 11.003 74.978 11.003 74.8748 11.048C74.8453 11.0576 74.8025 11.076 74.7552 11.0908C74.7124 11.1077 74.6607 11.1188 74.6091 11.1365C74.5554 11.1446 74.4956 11.149 74.4285 11.149C74.1578 11.149 74.0878 11.0384 74.0657 11.003C73.989 10.885 73.9522 10.6904 73.9522 10.4374V8.11668H74.9573C75.0332 8.11668 75.1741 8.08348 75.2582 7.88955C75.3069 7.77746 75.3259 7.60785 75.3259 7.37186C75.3259 7.25091 75.3217 7.14768 75.3092 7.06287C75.303 6.96923 75.2826 6.89991 75.259 6.8409C75.2258 6.77086 75.1882 6.71628 75.1321 6.68015C75.0813 6.64549 75.0178 6.62854 74.9507 6.62854H73.953V5.60277C73.953 5.53272 73.9321 5.46636 73.8888 5.4081C73.8474 5.355 73.7908 5.31369 73.7088 5.28347C73.6403 5.25543 73.5562 5.23848 73.4434 5.22594C73.3409 5.21423 73.2162 5.20901 73.068 5.20901C72.9242 5.20901 72.8003 5.21423 72.6985 5.22594C72.585 5.23618 72.5025 5.25543 72.4316 5.28347C72.3476 5.31369 72.2863 5.35648 72.2487 5.41253C72.2073 5.47005 72.1904 5.53272 72.1904 5.60279V6.62858H71.7081C71.641 6.62858 71.5806 6.64551 71.5289 6.68167C71.4773 6.71633 71.433 6.77091 71.3999 6.84096C71.3771 6.89995 71.3556 6.96927 71.3475 7.06293C71.3349 7.15142 71.3328 7.2495 71.3328 7.37192C71.3328 7.60938 71.3542 7.77751 71.3999 7.88961C71.4833 8.08355 71.6241 8.11674 71.703 8.11674H72.1905V10.6572C72.1905 10.992 72.2275 11.2841 72.2929 11.5311C72.3682 11.7877 72.4825 12.0053 72.6402 12.1749C72.7958 12.346 72.9964 12.4765 73.2332 12.5569C73.4618 12.6395 73.7354 12.6763 74.0458 12.6763C74.1587 12.6763 74.2729 12.6726 74.3858 12.6623C74.5001 12.6446 74.6033 12.6314 74.7021 12.607C74.8031 12.5834 74.8903 12.5547 74.9676 12.5222C75.0561 12.4846 75.1211 12.4426 75.1712 12.388C75.2258 12.3305 75.2619 12.2471 75.2958 12.1292C75.3146 12.0259 75.3268 11.8873 75.3268 11.6985C75.3268 11.5835 75.3226 11.4868 75.31 11.4087C75.3038 11.332 75.2933 11.27 75.2776 11.2214" fill="#FCEE21"/>
<path d="M12.778 9.36055C12.7117 9.10909 12.5951 8.88859 12.4366 8.69833C12.2767 8.50807 12.0634 8.3569 11.8031 8.24923C11.5457 8.13787 11.2301 8.08331 10.8577 8.08331C10.5613 8.08331 10.2685 8.13936 9.99343 8.25515C9.80383 8.33036 9.61511 8.4395 9.43149 8.57298V6.35181C9.43149 6.28765 9.4106 6.23529 9.37171 6.18441C9.32885 6.13869 9.2722 6.10182 9.18649 6.07454C9.12086 6.05167 9.03912 6.0362 8.93577 6.02514C8.88351 6.01845 8.82289 6.01553 8.75663 6.01197L8.54947 6.23763L9.17556 6.71033L8.39167 6.73982L8.49995 7.51488L7.92549 6.98392L7.70351 7.27447V13.014C7.70351 13.0752 7.72713 13.1312 7.77145 13.1799C7.8097 13.2256 7.86802 13.2603 7.9506 13.2846C8.01686 13.3053 8.10027 13.3208 8.20353 13.3289C8.29948 13.3376 8.42108 13.3429 8.56855 13.3429C8.71237 13.3429 8.83698 13.3376 8.93582 13.3289C9.03678 13.3207 9.12082 13.3053 9.18432 13.2846C9.26689 13.2603 9.32814 13.2256 9.3664 13.1799C9.40988 13.1312 9.4312 13.0752 9.4312 13.014V10.0546C9.61474 9.85257 9.7933 9.70066 9.95848 9.59299C10.1215 9.49123 10.2822 9.4396 10.4326 9.4396C10.561 9.4396 10.6664 9.45946 10.7534 9.49934C10.8404 9.53622 10.9127 9.59299 10.9725 9.66674C11.0293 9.7427 11.0764 9.8393 11.109 9.94992C11.1399 10.0642 11.1562 10.2287 11.1562 10.4344V13.014C11.1562 13.0752 11.1805 13.1312 11.2227 13.1799C11.2632 13.2256 11.323 13.2573 11.4012 13.2846C11.4645 13.3053 11.5473 13.3208 11.6527 13.3289C11.7515 13.3376 11.8776 13.3429 12.0206 13.3429C12.1622 13.3429 12.2854 13.3376 12.3813 13.3289C12.4883 13.3207 12.5738 13.3053 12.6386 13.2846C12.7191 13.2573 12.7751 13.2256 12.8163 13.1799C12.856 13.1312 12.8811 13.0752 12.8811 13.014V10.2455C12.8811 9.89963 12.846 9.60539 12.778 9.36055Z" fill="#0093D0"/>
<path d="M7.70345 6.35201C7.70345 6.28785 7.72561 6.23476 7.76762 6.18461C7.80671 6.13889 7.86504 6.10202 7.94531 6.07399C8.01241 6.05187 8.0979 6.03638 8.19973 6.02532C8.29923 6.01571 8.42022 6.00839 8.56918 6.00839C8.63775 6.00839 8.69831 6.01134 8.75663 6.01197L9.08547 5.66103L8.30601 5.76796L8.27946 4.98479L7.80676 5.61088L7.23081 5.07476L7.33993 5.85276L6.55382 5.88153L7.17991 6.35496L6.64601 6.93164L7.42401 6.82102L7.45285 7.6064L7.70351 7.27447L7.70345 6.35201Z" fill="#0093D0"/>
</g>
<defs>
<clipPath id="clip0_1801_10349">
<rect width="80" height="18.2606" fill="white"/>
</clipPath>
</defs>
</svg>
