<svg width="80" height="27" viewBox="0 0 80 27" fill="none" xmlns="http://www.w3.org/2000/svg">
<g clip-path="url(#clip0_1801_10685)">
<g clip-path="url(#clip1_1801_10685)">
<path fill-rule="evenodd" clip-rule="evenodd" d="M2.31087 0H77.6891C78.3252 0 78.904 0.259697 79.3222 0.677854C79.7403 1.09601 80 1.67373 80 2.31087V24.5392C80 25.1752 79.7403 25.7541 79.3222 26.1722C78.904 26.5904 78.3263 26.8501 77.6891 26.8501H2.31087C1.67483 26.8501 1.09601 26.5904 0.677854 26.1722C0.259697 25.7541 0 25.1763 0 24.5392V2.31087C0 1.67483 0.259697 1.09601 0.677854 0.677854C1.09601 0.259697 1.67483 0 2.31087 0Z" fill="#F0F0F0"/>
<path fill-rule="evenodd" clip-rule="evenodd" d="M79.1197 18.2262V24.5393C79.1197 25.3261 78.476 25.9698 77.6892 25.9698H2.31091C1.52411 25.9698 0.880371 25.3261 0.880371 24.5393V18.2262H79.1197Z" fill="#FECF22"/>
<path d="M79.1197 9.53284H0.880371V17.3183H79.1197V9.53284Z" fill="#006AB4"/>
<path fill-rule="evenodd" clip-rule="evenodd" d="M2.31091 0.880371H77.6892C78.476 0.880371 79.1197 1.52411 79.1197 2.31091V8.62507H0.880371V2.31091C0.880371 1.52411 1.52411 0.880371 2.31091 0.880371Z" fill="#D61627"/>
<path fill-rule="evenodd" clip-rule="evenodd" d="M12.8341 6.31522C18.0809 4.76034 22.5222 3.83599 26.7543 3.29679C30.5442 2.81371 34.1491 2.64425 38.0061 2.60793V2.59473H42.1458V2.60903C45.9708 2.64755 49.5527 2.82141 53.3183 3.30559C57.5296 3.8459 61.9499 4.76914 67.1659 6.31412C67.7392 6.48359 68.296 6.75208 68.7164 7.17134C69.1587 7.61371 69.436 8.17822 69.436 8.89789V17.9499C69.436 18.6696 69.1587 19.2341 68.7164 19.6764C68.2971 20.0957 67.7392 20.3642 67.1659 20.5337C61.9499 22.0786 57.5296 23.0019 53.3183 23.5422C49.5516 24.0264 45.9708 24.2002 42.1458 24.2387V24.2519H40.7912V24.2475H40.3576H40.2751V24.2519H39.7249V24.2475H38.9546V24.2453C34.7829 24.2299 30.9524 24.0792 26.9513 23.5796C22.6762 23.0459 18.1799 22.116 12.8341 20.5326C12.2608 20.3631 11.704 20.0946 11.2836 19.6753C10.8413 19.233 10.564 18.6685 10.564 17.9488V8.89899C10.564 8.17932 10.8413 7.61481 11.2836 7.17244C11.7029 6.75319 12.2608 6.48468 12.8341 6.31522Z" fill="#E6E6E6"/>
<path fill-rule="evenodd" clip-rule="evenodd" d="M49.0929 16.4852C48.7672 16.0286 49.0797 15.2682 49.3097 14.8434C49.554 14.3934 49.9149 13.8211 50.4871 13.9312C50.749 14.8731 49.9094 16.5766 49.0929 16.4852ZM31.3135 13.8718C31.7372 14.9337 30.3452 16.877 29.8742 16.3477C29.4923 15.9174 30.3848 13.6539 31.3135 13.8718ZM34.2428 16.3488L34.0778 15.9868C33.6167 16.0913 32.8882 16.5194 32.3721 16.3961C32.0915 15.7535 34.1163 11.5246 34.5025 10.2294L33.4868 10.2745C33.1996 10.7477 32.6703 12.4027 32.4117 12.746C30.6148 12.5579 29.8665 13.0762 29.1347 14.0346C27.9441 15.5906 28.8178 15.7469 27.922 16.2564C27.1331 16.7053 27.2464 16.4511 27.187 16.3873C26.8601 16.1023 27.7779 14.1381 27.8659 13.71C27.9793 13.1521 27.6899 12.7064 27.1705 12.7361C26.6852 12.7647 26.3231 13.1092 25.9765 13.2951C24.7771 13.9422 25.9061 11.4421 22.639 13.7507C22.387 13.929 21.7531 14.2954 21.6288 14.4198C21.6563 14.2151 22.5971 12.1848 22.7886 11.7084C23.1573 10.7917 23.527 9.84425 23.8417 8.9122C22.6555 8.83187 19.1231 9.4448 18.0491 10.4033C16.0178 12.2145 18.4398 14.609 20.0398 12.7691C19.6535 12.4918 19.0615 12.7603 18.9702 12.0473C18.8921 11.4354 19.1121 11.0283 19.4423 10.773C19.8461 10.4627 21.6178 10.1436 22.2439 10.0258C22.179 10.3559 21.9039 10.9799 21.7718 11.3485C21.072 13.2995 20.2148 16.2773 17.7245 16.3543C16.4227 16.395 16.0497 15.8129 15.5875 14.9227C15.3025 15.2451 15.1848 15.9119 15.3498 16.3983C15.4973 16.8341 15.8406 17.1356 16.2478 17.3315C18.1933 18.2701 19.911 16.6899 21.2921 15.6192C21.6409 15.3496 22.9372 14.0346 23.6018 14.3614C23.9738 15.102 22.8954 16.6569 22.8712 17.4272L24.1531 17.4547C24.3842 16.8198 24.5713 16.1265 24.7914 15.4597C24.9784 14.8929 25.2392 13.8839 25.9831 14.3956C26.2681 15.1559 25.0577 16.7482 25.7212 17.2819C26.409 17.8354 27.954 16.7273 28.3215 16.5051C28.6087 16.9177 28.6032 17.4338 29.3438 17.5592C29.9347 17.6594 30.5333 17.3799 30.8689 17.1037C31.078 17.3612 31.0263 17.6198 31.5105 17.5747C31.9859 17.5295 33.3999 16.6052 34.245 16.3488H34.2428ZM58.5707 15.2638C58.5135 14.5958 59.2497 13.6737 59.7735 13.6979C59.9474 14.0907 59.6425 14.5232 59.4478 14.7532C59.2233 15.0184 58.9889 15.3056 58.5707 15.2638ZM39.2794 13.6748L39.4258 14.1249C39.8263 14.0126 40.272 13.7507 40.6725 13.8608C40.798 14.6233 39.6414 16.7174 39.4731 17.6044L40.7352 17.578C40.9839 17.1598 41.2458 16.1815 41.4384 15.6687C41.6387 15.1361 41.872 14.0951 42.606 14.3504C43.0384 15.2055 41.8621 16.7405 41.774 17.5758L43.2145 17.589C43.4808 16.8209 43.7823 15.8668 44.0948 15.1086C44.25 14.7323 44.4139 14.1436 44.9729 14.2998C45.6101 14.4781 44.5108 15.6709 44.5229 16.7262C44.5284 17.1983 44.8486 17.6132 45.3196 17.5669C45.9468 17.5053 46.9977 16.647 47.5369 16.526C47.7834 17.0817 47.8351 17.4283 48.4943 17.5317C49.1677 17.6374 49.5892 17.3183 50.0216 17.0674C50.0348 17.0806 50.0491 17.1015 50.0568 17.1114L50.1537 17.2478C50.2857 17.4393 50.3606 17.589 50.6819 17.6209C51.7449 17.7276 53.3141 16.0319 53.927 15.2231C54.6126 14.3185 54.3331 14.3868 55.2134 14.3097C55.0197 15.1427 54.0712 16.4742 54.8734 17.2797C55.6767 18.0874 57.28 16.998 57.7674 16.713C58.2164 17.2093 58.4541 17.6495 59.5226 17.6C60.3644 17.5614 60.831 17.2225 61.5055 17.0266C62.3264 18.3747 65.0082 17.0487 64.9058 16.2277C64.5592 16.1617 64.1553 16.6437 63.7999 16.8352C63.308 17.0993 62.8084 16.9309 62.7974 16.3598C62.7919 16.077 63.4786 13.9774 63.615 13.7155L64.4271 13.7078L64.6967 12.7835L64.1256 12.7724C64.2324 11.8041 64.7463 10.9744 64.9201 10.1172L63.779 10.1623L62.8635 12.6965L62.0271 12.7438L61.8302 13.6946L62.4871 13.6836C62.3474 14.5848 61.8258 15.8019 61.3669 16.3741C60.8926 16.9672 59.1914 17.3205 58.8833 16.2839C59.2816 15.8382 59.9771 15.7359 60.5196 14.7961C61.8808 12.4412 59.1639 12.154 58.0546 13.7936C57.3625 14.8181 57.576 15.1361 57.6145 16.3488C56.2467 17.1092 55.7658 17.261 55.889 15.9207C56.0134 14.565 56.2203 14.7664 56.4458 14.5254C56.6186 14.3405 56.6835 14.0082 56.4954 13.8266C56.2775 13.6011 55.9066 13.8013 55.5006 13.6561C55.2431 13.0189 55.6833 12.9133 55.8604 12.5645C55.626 12.5095 55.4379 12.5414 55.2046 12.505C54.6445 12.4181 55.1463 12.4038 54.771 12.187C54.4486 12.3114 54.4266 12.3235 54.3132 12.6855C53.9864 13.7276 54.1053 13.9543 53.5341 14.7554C53.2238 15.1912 52.1729 16.658 51.4511 16.3884C51.1176 15.9482 52.3897 13.3722 52.5471 12.7262C51.2519 12.6294 51.4456 12.8759 51.264 13.0762C50.0667 12.5381 49.4373 12.9958 48.7022 13.6484C47.6502 14.5826 47.604 15.9273 47.4753 16.0759C47.1562 16.2828 46.508 16.5689 46.0348 16.3972C45.8984 15.858 46.7358 14.2789 46.8723 13.6363C47.0164 12.9584 46.6258 12.5975 45.9424 12.7736C45.4296 12.9056 45.2326 13.381 44.7606 13.4426C44.3633 13.1631 44.3457 12.5766 43.5336 12.7163C42.9603 12.8143 42.924 13.2621 42.2758 13.3909C42.2626 13.3722 42.2527 13.3469 42.2461 13.3315L42.1746 13.1532C42.1427 13.0641 42.0712 12.7857 41.927 12.7086C41.2723 12.625 39.965 13.469 39.2794 13.6704V13.6748Z" fill="#006AB4"/>
<path fill-rule="evenodd" clip-rule="evenodd" d="M36.7265 13.3007C37.1667 13.3007 37.5661 13.479 37.8544 13.7684C38.1427 14.0567 38.3221 14.4561 38.3221 14.8963C38.3221 15.3364 38.1438 15.7359 37.8544 16.0242C37.5661 16.3125 37.1667 16.4919 36.7265 16.4919C36.2863 16.4919 35.8869 16.3136 35.5986 16.0242C35.3103 15.7359 35.1309 15.3364 35.1309 14.8963C35.1309 14.4561 35.3092 14.0567 35.5986 13.7684C35.8869 13.4801 36.2863 13.3007 36.7265 13.3007ZM36.7265 11.9252C35.9056 11.9252 35.1628 12.2575 34.6258 12.7956C34.0877 13.3337 33.7554 14.0765 33.7554 14.8963C33.7554 15.7161 34.0877 16.46 34.6258 16.997C35.1639 17.534 35.9067 17.8674 36.7265 17.8674C37.5463 17.8674 38.2902 17.5351 38.8272 16.997C39.3653 16.4589 39.6976 15.7161 39.6976 14.8963C39.6976 14.0765 39.3653 13.3326 38.8272 12.7956C38.2891 12.2575 37.5463 11.9252 36.7265 11.9252ZM38.5939 13.0289C38.1163 12.5513 37.4561 12.2553 36.7265 12.2553C35.9969 12.2553 35.3367 12.5513 34.8591 13.0289C34.3815 13.5065 34.0855 14.1667 34.0855 14.8963C34.0855 15.6259 34.3815 16.2861 34.8591 16.7637C35.3367 17.2413 35.9969 17.5373 36.7265 17.5373C37.4561 17.5373 38.1163 17.2413 38.5939 16.7637C39.0715 16.2861 39.3675 15.6259 39.3675 14.8963C39.3675 14.1667 39.0715 13.5065 38.5939 13.0289ZM36.7265 12.6129C36.0959 12.6129 35.5248 12.8682 35.1122 13.282C34.6984 13.6946 34.4431 14.2657 34.4431 14.8963C34.4431 15.5268 34.6984 16.0979 35.1122 16.5106C35.5259 16.9243 36.0959 17.1796 36.7265 17.1796C37.357 17.1796 37.9281 16.9243 38.3408 16.5106C38.7545 16.0979 39.0098 15.5268 39.0098 14.8963C39.0098 14.2657 38.7545 13.6946 38.3408 13.282C37.927 12.8682 37.357 12.6129 36.7265 12.6129ZM38.1075 13.5153C37.7543 13.162 37.2657 12.9431 36.7265 12.9431C36.1873 12.9431 35.6987 13.162 35.3455 13.5153C34.9922 13.8685 34.7733 14.3571 34.7733 14.8963C34.7733 15.4355 34.9922 15.9241 35.3455 16.2773C35.6987 16.6305 36.1873 16.8495 36.7265 16.8495C37.2657 16.8495 37.7543 16.6305 38.1075 16.2773C38.4607 15.9241 38.6797 15.4355 38.6797 14.8963C38.6797 14.3571 38.4607 13.8685 38.1075 13.5153ZM37.6211 14.0016C37.3922 13.7728 37.0753 13.6308 36.7265 13.6308C36.3777 13.6308 36.0607 13.7728 35.8318 14.0016C35.603 14.2305 35.461 14.5475 35.461 14.8963C35.461 15.2451 35.603 15.562 35.8318 15.7909C36.0607 16.0198 36.3777 16.1618 36.7265 16.1618C37.0753 16.1618 37.3922 16.0198 37.6211 15.7909C37.85 15.562 37.992 15.2451 37.992 14.8963C37.992 14.5475 37.85 14.2305 37.6211 14.0016Z" fill="#D61627"/>
<path fill-rule="evenodd" clip-rule="evenodd" d="M13.2048 7.57856C23.5718 4.5073 30.7024 3.93289 39.3264 3.91638H40.8251C49.3808 3.93949 56.4884 4.52601 66.7949 7.57856C67.4914 7.78433 68.1154 8.17278 68.1154 8.89905V17.951C68.1154 18.6773 67.4914 19.0658 66.7949 19.2715C56.4884 22.3252 49.3808 22.9106 40.8251 22.9337H40.791C40.6194 22.9337 40.4477 22.9337 40.2749 22.9337H39.7247C30.9203 22.9348 23.7313 22.3901 13.2048 19.2715C12.5082 19.0658 11.8843 18.6773 11.8843 17.951V8.89905C11.8843 8.17278 12.5082 7.78433 13.2048 7.57856ZM39.5134 5.89933C31.4584 5.92904 24.2419 6.23605 14.8004 8.67897C14.0972 8.86054 13.4799 9.27319 13.4799 9.99946V16.8506C13.4799 17.5769 14.0972 17.9896 14.8004 18.1711C24.1682 20.5942 31.3462 20.9156 39.3264 20.9497H40.6755C48.6546 20.9156 55.8326 20.5942 65.1993 18.1711C65.9024 17.9896 66.5198 17.5769 66.5198 16.8506V9.99946C66.5198 9.27319 65.9024 8.86054 65.1993 8.67897C55.7577 6.23715 48.5412 5.93014 40.4862 5.89933H39.5123H39.5134Z" fill="#D61627"/>
</g>
</g>
<defs>
<clipPath id="clip0_1801_10685">
<rect width="80" height="26.8501" fill="white"/>
</clipPath>
<clipPath id="clip1_1801_10685">
<rect width="80" height="26.8501" fill="white"/>
</clipPath>
</defs>
</svg>
