<svg width="80" height="13" viewBox="0 0 80 13" fill="none" xmlns="http://www.w3.org/2000/svg">
<g clip-path="url(#clip0_1801_11753)">
<g clip-path="url(#clip1_1801_11753)">
<path d="M46.1866 6.80539H51.5388C51.998 6.80539 51.998 6.95144 51.998 7.19163V9.16673C51.998 9.66649 51.9186 9.83364 51.1932 9.83364H46.258C46.0665 9.83364 45.8067 9.91001 45.8067 9.52701V7.99974C45.8067 7.73855 45.7499 7.64442 45.4627 7.64442H44.3462C44.179 7.64442 44.0134 7.64442 44.0134 7.99985V10.6921C44.0134 11.596 44.3917 12.1657 45.5584 12.1657H52.0095C52.962 12.1657 53.8076 11.6658 53.8076 10.4535V6.52622C53.8076 5.66781 53.1633 5.00079 51.9981 5.00079H46.3422C46.0566 5.00079 45.8067 4.95533 45.8067 4.5495V2.73854C45.8067 2.52593 45.9219 2.36211 46.2806 2.36211H51.6036C52.1051 2.36211 51.9979 2.47735 51.9979 2.83429V3.88108C51.9979 4.16833 52.2236 4.16833 52.4833 4.16833H53.4829C53.7717 4.16833 53.8075 4.02551 53.8075 3.81129V2.19969C53.8075 0.605967 53.2475 0.0266183 51.9136 0.0266183H46.2806C44.8055 0.0266183 44.0134 0.0525755 43.9972 2.19969V5.33177C43.9972 6.33634 44.6155 6.80539 46.1865 6.80539M57.5207 6.31199V2.93155C57.5207 2.47714 57.7706 2.36189 58.0579 2.36189H63.2463C63.6049 2.36189 63.7088 2.45452 63.7088 2.73843V9.43126C63.7088 9.83364 63.4847 9.83364 63.2463 9.83364H58.0335C57.6749 9.83364 57.5207 9.76224 57.5207 9.40853V6.31199ZM57.5419 12.1658H63.5238C64.8562 12.1658 65.5199 11.7211 65.5199 10.1485V2.19969C65.5199 0.740707 64.9114 0.0266183 63.5952 0.0266183H57.6749C56.4383 0.0266183 55.7096 0.532942 55.7096 2.19969V10.4098C55.7096 11.4338 56.1851 12.1658 57.5419 12.1658ZM0.312599 2.36189H1.92086V9.83364H0.359666C0.324042 9.83356 0.288751 9.84051 0.255822 9.85411C0.222893 9.8677 0.192974 9.88767 0.167783 9.91286C0.142593 9.93805 0.122627 9.96797 0.109034 10.0009C0.0954399 10.0338 0.088486 10.0691 0.0885713 10.1047V11.898C0.0885713 12.0488 0.208663 12.1658 0.359666 12.1658H9.81622C9.9655 12.1658 10.0855 12.0489 10.0855 11.898V7.79532C10.0855 7.64604 9.96701 7.52433 9.81773 7.52433H8.53732C8.46549 7.52444 8.39663 7.55303 8.34583 7.60382C8.29504 7.65462 8.26645 7.72348 8.26633 7.79532V9.83364H3.73031V2.36189H5.24444C5.28042 2.36205 5.31608 2.35505 5.34934 2.34131C5.38259 2.32757 5.41279 2.30735 5.43816 2.28184C5.46354 2.25632 5.48359 2.22602 5.49715 2.19268C5.51071 2.15935 5.51751 2.12366 5.51715 2.08767V0.297606C5.51718 0.261865 5.51013 0.226473 5.49642 0.19347C5.4827 0.160466 5.46259 0.130505 5.43723 0.105313C5.41188 0.0801208 5.38179 0.0601972 5.3487 0.0466908C5.31561 0.0331843 5.28018 0.0263624 5.24444 0.0266183H0.312599C0.240745 0.0267037 0.171857 0.0552781 0.121038 0.106076C0.0702197 0.156875 0.0416179 0.225752 0.0415039 0.297606V2.08767C0.0415039 2.24018 0.163211 2.36189 0.312599 2.36189ZM18.0116 4.277L19.3928 6.76479H19.4074L19.3945 6.76974L19.3928 6.76479H16.6095L16.5998 6.76156L18.0116 4.277ZM11.4521 12.1658H16.3839C16.5333 12.1658 16.6566 12.0489 16.6566 11.898V10.1047C16.6566 9.95546 16.5333 9.83364 16.384 9.83364H14.86L14.8503 9.8288L15.5627 8.57112H20.3957L20.3909 8.57597L21.0903 9.8386L21.0838 9.83364H19.5941C19.4447 9.83364 19.3213 9.95535 19.3213 10.1047V11.898C19.3213 12.0489 19.4447 12.1658 19.5941 12.1658H24.5307C24.5659 12.1659 24.6008 12.159 24.6333 12.1456C24.6659 12.1322 24.6954 12.1125 24.7203 12.0876C24.7452 12.0627 24.7649 12.0332 24.7783 12.0006C24.7917 11.9681 24.7986 11.9332 24.7985 11.898V10.1047C24.7985 9.95546 24.6768 9.83364 24.5307 9.83364H23.1545V9.8386L19.0275 2.362H20.5774C20.7282 2.362 20.8484 2.24029 20.8484 2.08767V0.297606C20.8485 0.261999 20.8415 0.226729 20.8279 0.193819C20.8143 0.16091 20.7944 0.131008 20.7692 0.10583C20.744 0.0806527 20.7141 0.0606946 20.6812 0.0471014C20.6483 0.0335082 20.613 0.0265473 20.5774 0.0266183H15.6422C15.6067 0.026703 15.5716 0.0337811 15.5389 0.047448C15.5061 0.0611149 15.4764 0.0811028 15.4513 0.106269C15.4263 0.131435 15.4065 0.161287 15.393 0.194118C15.3795 0.226948 15.3726 0.262114 15.3727 0.297606V2.08767C15.3727 2.24018 15.4928 2.362 15.6422 2.362H17.0168L12.7714 9.8288L12.7763 9.83364H11.4521C11.3802 9.83373 11.3113 9.86232 11.2605 9.91314C11.2096 9.96396 11.181 10.0329 11.181 10.1047V11.898C11.181 12.0489 11.3027 12.1658 11.4521 12.1658ZM22.8301 2.36189H24.3101L28.0119 9.83364H26.4978C26.4623 9.83373 26.4271 9.84081 26.3944 9.85448C26.3616 9.86816 26.3319 9.88816 26.3068 9.91333C26.2818 9.93851 26.262 9.96838 26.2485 10.0012C26.235 10.0341 26.2282 10.0692 26.2283 10.1047V11.898C26.2283 12.0488 26.3484 12.1658 26.4978 12.1658H31.4346C31.5822 12.1658 31.7056 12.0489 31.7056 11.898V10.1047C31.7052 10.033 31.6765 9.96425 31.6258 9.91349C31.575 9.86273 31.5063 9.83404 31.4346 9.83364H30.0599L32.7377 4.37103L35.4414 9.83364H33.9744C33.9025 9.83376 33.8336 9.86236 33.7828 9.91318C33.732 9.964 33.7035 10.0329 33.7034 10.1047V11.898C33.7034 12.0488 33.8251 12.1658 33.9744 12.1658H38.9079C39.0588 12.1658 39.1789 12.0489 39.1789 11.898V10.1047C39.179 10.0691 39.1721 10.0338 39.1585 10.0009C39.1449 9.968 39.1249 9.93808 39.0997 9.91289C39.0746 9.88771 39.0447 9.86774 39.0117 9.85414C38.9788 9.84054 38.9435 9.83357 38.9079 9.83364H37.5236L41.175 2.36189H42.6243C42.7736 2.36189 42.8921 2.24018 42.8921 2.08767V0.297606C42.8921 0.148326 42.7736 0.0266183 42.6243 0.0266183H37.6875C37.6157 0.0267322 37.5468 0.0553192 37.496 0.106114C37.4452 0.15691 37.4166 0.22577 37.4165 0.297606V2.08767C37.4165 2.24018 37.5382 2.36189 37.6875 2.36189H39.166L36.4768 7.84411L33.7618 2.36189H35.1964C35.3457 2.36189 35.4642 2.24018 35.4642 2.08767V0.297606C35.4642 0.148326 35.3457 0.0266183 35.1964 0.0266183H30.2596C30.2241 0.0267171 30.189 0.0338056 30.1563 0.0474789C30.1235 0.0611521 30.0938 0.0811422 30.0688 0.106307C30.0438 0.131472 30.024 0.161319 30.0105 0.194142C29.997 0.226966 29.9901 0.262123 29.9902 0.297606V2.08767C29.9902 2.24018 30.1103 2.36189 30.2595 2.36189H31.6926L29.031 7.79532L26.3355 2.36189H27.7669C27.9178 2.36189 28.0379 2.24018 28.0379 2.08767V0.297606C28.0379 0.261999 28.031 0.226729 28.0174 0.193819C28.0038 0.16091 27.9838 0.131008 27.9586 0.10583C27.9335 0.0806527 27.9036 0.0606946 27.8707 0.0471014C27.8377 0.0335082 27.8025 0.0265473 27.7669 0.0266183H22.8301C22.6823 0.0266183 22.5622 0.148326 22.5622 0.297606V2.08767C22.5622 2.24018 22.6823 2.36189 22.8301 2.36189ZM66.9675 12.1657H71.9011C72.0537 12.1657 72.1704 12.0489 72.1704 11.8979V10.1046C72.1704 9.95535 72.0537 9.83364 71.9012 9.83364H70.2798V4.48789H70.283L76.0054 9.83364H74.7265C74.6549 9.83413 74.5865 9.86288 74.536 9.91365C74.4855 9.96441 74.4572 10.0331 74.4571 10.1046V11.8979C74.4571 11.9332 74.464 11.9682 74.4776 12.0008C74.4911 12.0335 74.511 12.0631 74.536 12.088C74.561 12.1129 74.5908 12.1325 74.6235 12.1459C74.6562 12.1592 74.6912 12.166 74.7265 12.1657H79.6617C79.8126 12.1657 79.9327 12.0489 79.9327 11.8979V10.1046C79.9327 10.069 79.9258 10.0338 79.9122 10.0008C79.8986 9.96794 79.8786 9.93803 79.8535 9.91286C79.8283 9.88768 79.7984 9.86772 79.7655 9.85413C79.7326 9.84053 79.6973 9.83357 79.6617 9.83364H78.0908V2.36189H79.6617C79.8126 2.36189 79.9327 2.24018 79.9327 2.08767V0.297606C79.9327 0.261999 79.9258 0.226729 79.9122 0.193819C79.8986 0.16091 79.8786 0.131008 79.8535 0.10583C79.8283 0.0806527 79.7984 0.0606946 79.7655 0.0471014C79.7326 0.0335082 79.6973 0.0265473 79.6617 0.0266183H74.7266C74.655 0.0270732 74.5865 0.0558174 74.536 0.106582C74.4856 0.157347 74.4572 0.226013 74.4571 0.297606V2.08767C74.4571 2.24018 74.5788 2.36189 74.7265 2.36189H76.2796V7.61189H76.2732L70.6578 2.36189H71.901C72.0536 2.36189 72.1703 2.24018 72.1703 2.08767V0.297606C72.1703 0.148326 72.0536 0.0266183 71.9011 0.0266183H66.9674C66.9318 0.0265473 66.8965 0.0335082 66.8636 0.0471014C66.8307 0.0606946 66.8008 0.0806527 66.7756 0.10583C66.7504 0.131008 66.7305 0.16091 66.7169 0.193819C66.7033 0.226729 66.6963 0.261999 66.6964 0.297606V2.08767C66.6964 2.24018 66.8165 2.36189 66.9674 2.36189H68.4702V9.83364H66.9674C66.9318 9.83357 66.8965 9.84053 66.8636 9.85413C66.8307 9.86772 66.8008 9.88768 66.7756 9.91286C66.7504 9.93803 66.7305 9.96794 66.7169 10.0008C66.7033 10.0338 66.6963 10.069 66.6964 10.1046V11.8979C66.6964 12.0489 66.8165 12.1657 66.9674 12.1657" fill="#007BC2"/>
</g>
</g>
<defs>
<clipPath id="clip0_1801_11753">
<rect width="80" height="12.192" fill="white"/>
</clipPath>
<clipPath id="clip1_1801_11753">
<rect width="80" height="12.192" fill="white"/>
</clipPath>
</defs>
</svg>
