<svg width="65" height="81" viewBox="0 0 65 81" fill="none" xmlns="http://www.w3.org/2000/svg">
<g clip-path="url(#clip0_1801_10748)">
<path d="M5.23951 55.6971C4.46849 55.6516 4.14341 55.3459 4.14341 54.4614V45.8339H0.512157V55.2439C0.512157 56.7012 1.40643 57.0066 2.22224 57.0391H10.4725V55.6971H5.23951ZM57.9651 47.154H64.0273V45.8315H54.9498C54.1344 45.8654 53.24 46.1708 53.24 47.6271V55.2439C53.24 56.6999 54.1344 57.0046 54.9498 57.0391H64.0273V55.7157H57.9651C57.1944 55.6689 56.8702 55.3459 56.8702 54.4614V51.4255H63.924V50.1144H56.8702V48.4099C56.8702 47.5228 57.1944 47.1998 57.9651 47.154ZM52.0776 45.8329H39.237V47.1822H43.831V57.0478H47.4732V47.1822H52.0776V45.8329ZM38.0733 45.8329H25.2318V47.1822H29.8272V57.0478H33.4703V47.1822H38.0733V45.8329ZM17.7487 56.2371C15.6265 56.2371 14.0124 54.1016 14.0124 51.4671C14.0124 48.8302 15.6265 46.6961 17.7487 46.6961C19.8729 46.6961 21.4868 48.8302 21.4868 51.4671C21.4868 54.1016 19.8729 56.2371 17.7487 56.2371ZM17.7487 45.387C13.1575 45.387 10.4063 48.1105 10.4063 51.4671C10.4063 54.8236 13.1575 57.5448 17.7487 57.5448C22.344 57.5448 25.0955 54.8236 25.0955 51.4671C25.0955 48.1105 22.344 45.387 17.7487 45.387Z" fill="#ED1C24"/>
<path d="M0.050399 79.4862C0.078119 79.3313 0.649044 75.3231 1.31912 70.5792C1.9892 65.8353 2.55751 61.8662 2.58203 61.7589L2.62662 61.5639H8.15557L8.46956 62.4524C8.64225 62.9411 9.4867 65.3851 10.3461 67.8836C11.2055 70.3821 11.9278 72.4454 11.9512 72.4687C12.0046 72.5221 11.8031 73.0577 14.048 66.8951L15.9742 61.6072L18.7599 61.5843C20.2921 61.5718 21.5476 61.5718 21.5499 61.5843C21.5523 61.5969 22.1092 65.6836 22.7875 70.6659L24.0209 79.7246L21.2945 79.7475C19.7949 79.7601 18.5505 79.753 18.5292 79.7316C18.5078 79.7103 18.1524 77.2552 17.7395 74.2759C17.3266 71.2966 16.9682 68.8387 16.9431 68.8139C16.918 68.7892 16.0816 71.0389 15.0844 73.8133C14.0871 76.5878 13.1941 79.0626 13.0998 79.3129L12.9284 79.768H9.32723L8.54657 77.4925C8.11721 76.2409 7.28261 73.8051 6.69191 72.0794C6.10121 70.3538 5.59398 68.9689 5.56472 69.002C5.53547 69.0351 5.16578 71.471 4.74318 74.4151L3.97484 79.768H0L0.050399 79.4862ZM58.1815 79.8934C57.3552 79.7145 56.4216 79.2385 55.9259 78.7435C55.4196 78.2378 55.1061 77.6531 54.8555 76.7473C54.6865 76.136 54.6681 75.7939 54.6225 72.3996L54.5548 68.7776L52.6382 68.7848C50.4389 68.793 49.9426 68.7971 48.9935 69.2479C48.2549 69.5987 47.5802 70.2296 47.195 70.9295L46.9346 71.4028L46.8849 79.768H41.9437V65.4647H46.8912V67.3012L47.3438 66.8948C47.9009 66.3947 48.7806 65.9434 49.6571 65.7082C50.2121 65.5592 50.669 65.5232 52.4681 65.487L54.6164 65.4437V61.5639L56.3307 61.5644C57.2736 61.5647 58.3673 61.59 58.7611 61.6206L59.4772 61.6763V65.4648H63.036V67.0667L63.0451 68.7776H59.5206L59.4949 71.5762C59.461 75.2598 59.549 75.7475 60.3279 76.2312C60.6143 76.4091 60.778 76.4338 61.8425 76.4606L63.036 76.4906V80.028L60.8877 80.0211C59.3991 80.0164 58.5681 79.9771 58.1815 79.8934ZM33.4664 76.6216C34.0474 76.3559 34.5249 75.9372 34.7623 75.4852C34.9244 75.1766 34.9492 74.9835 34.9525 74.006L34.9563 72.8818L34.2185 72.9078C32.6114 72.9645 31.4023 73.316 30.7908 73.9043C29.8236 74.8347 30.16 76.3705 31.4196 76.7743C31.9876 76.9564 32.8797 76.8899 33.4664 76.6216ZM29.8656 80.0175C26.6025 79.7525 24.5793 77.0239 25.5761 74.1527C26.5084 71.4786 29.6791 70.6306 31.7962 70.3878C32.6583 70.2938 33.6119 70.251 34.6769 70.2259C34.7369 70.1906 34.7478 69.9139 34.747 69.8126C34.7445 69.4982 34.5651 69.16 34.3068 68.9228C33.3288 68.0249 30.3534 68.0114 28.0729 68.951C27.7243 69.0947 27.428 69.1979 27.4145 69.1805C27.4009 69.1631 27.194 68.5377 26.9546 67.7907L26.5193 66.4325L27.1899 66.1679C28.9458 65.4749 30.9163 65.1641 33.1335 65.2303C35.5886 65.3035 36.9783 65.7858 38.1705 66.9782C38.8673 67.6752 39.2572 68.3505 39.533 69.3384C39.7151 69.9904 39.7233 70.1982 39.7531 74.8919L39.7841 79.768H34.9997V79.1612C34.9997 78.8274 34.9805 78.5544 34.957 78.5544C34.9336 78.5544 34.7319 78.6934 34.5089 78.8634C33.3404 79.7542 31.6864 80.1653 29.8656 80.0175Z" fill="#ED1C24"/>
<path fill-rule="evenodd" clip-rule="evenodd" d="M39.837 34.6321C35.5403 38.9553 28.6283 38.9553 24.3316 34.6321L16.4855 26.7377C12.1889 22.4145 12.1889 15.4599 16.4855 11.1368L24.3316 3.24236C28.6283 -1.08078 35.5403 -1.08078 39.837 3.24236L47.6831 11.1368C51.9798 15.4599 51.9798 22.4145 47.6831 26.7377L39.837 34.6321Z" fill="#ED1D24"/>
<path fill-rule="evenodd" clip-rule="evenodd" d="M27.5074 30.4969C26.947 30.4969 26.3866 29.9331 26.3866 29.3692C26.3866 28.9932 26.5734 28.8053 26.7602 28.6173C26.947 28.4294 27.3206 28.2414 27.5074 28.2414C28.0679 28.2414 28.6283 28.8053 28.6283 29.3692C28.6283 29.9331 28.0679 30.4969 27.5074 30.4969Z" fill="white"/>
<path fill-rule="evenodd" clip-rule="evenodd" d="M31.6173 9.06918C31.0568 9.06918 30.4964 9.25715 30.1228 9.63307C29.1887 10.5729 28.8151 12.2645 28.8151 14.7081C28.8151 17.7155 29.5624 23.5423 31.9909 26.7377C32.3645 27.3016 32.7382 27.6775 33.2986 27.8654C33.6722 28.0534 34.2326 28.4293 34.9799 28.4293C35.1667 28.4293 35.3535 28.4293 35.5403 28.4293C36.848 28.0534 38.5293 26.5497 39.837 24.6701C40.0238 24.2942 40.3974 24.1062 40.7711 24.1062C40.9579 24.1062 41.1447 24.1062 41.3315 24.2942C41.5183 24.4821 41.7051 24.6701 41.7051 24.858C41.7051 25.046 41.7051 25.4219 41.5183 25.6099C39.837 28.2414 37.7821 29.933 35.914 30.309C35.5403 30.309 35.1667 30.4969 34.7931 30.4969C33.4854 30.4969 32.7382 29.933 31.9909 29.5571C31.4305 29.1812 30.87 28.6173 30.3096 27.8654C26.947 23.5423 26.7602 15.4599 26.7602 14.7081C26.7602 12.6405 26.947 9.63307 28.6283 7.94141C29.3755 7.18956 30.4964 6.81363 31.6173 6.81363H31.8041C32.925 6.81363 34.0458 7.18956 34.7931 7.94141C36.4744 9.63307 36.848 12.4525 36.6612 14.7081C36.6612 16.9636 36.2876 21.2868 33.859 25.046C33.6722 25.4219 33.2986 25.6099 32.925 25.6099C32.7382 25.6099 32.5513 25.6099 32.3645 25.4219C31.8041 25.046 31.8041 24.4821 31.9909 23.9182C33.6722 21.2868 34.4195 18.2794 34.4195 14.5201C34.4195 12.0766 34.0458 10.197 33.1118 9.44511C32.925 9.25715 32.5513 9.06918 31.6173 9.06918Z" fill="white"/>
</g>
<defs>
<clipPath id="clip0_1801_10748">
<rect width="64.0273" height="80.047" fill="white"/>
</clipPath>
</defs>
</svg>
