<svg width="80" height="25" viewBox="0 0 80 25" fill="none" xmlns="http://www.w3.org/2000/svg">
<g clip-path="url(#clip0_1801_10147)">
<g clip-path="url(#clip1_1801_10147)">
<path d="M17.636 22.8629C14.8077 25.6932 10.1769 25.6932 7.34867 22.8629L2.12172 17.636C-0.708541 14.8057 -0.708541 10.1769 2.12172 7.34666L7.34867 2.12172C10.1789 -0.708542 14.8077 -0.708542 17.636 2.12172L22.8629 7.34867C25.6912 10.1769 25.6912 14.8077 22.8629 17.638L17.636 22.8649V22.8629Z" fill="#ED1C24"/>
<path d="M9.392 20.1712C8.9765 20.1712 8.63727 19.846 8.62121 19.4305C8.61318 19.2237 8.68544 19.027 8.82394 18.8765C8.96445 18.7239 9.15314 18.6356 9.36189 18.6276C9.78543 18.6075 10.1487 18.9407 10.1668 19.3683C10.1829 19.7938 9.85167 20.1551 9.42613 20.1712C9.41408 20.1712 9.40405 20.1712 9.392 20.1712Z" fill="white"/>
<path d="M12.2065 5.9034C11.781 5.9034 11.4417 6.03588 11.1667 6.30887C10.5746 6.89901 10.2635 8.11341 10.2916 9.73328C10.3237 11.7285 10.7994 15.6427 12.3691 17.66C12.624 17.9872 12.897 18.2461 13.1841 18.4348C13.4611 18.6175 13.7702 18.7961 14.2539 18.7961C14.3864 18.7961 14.5269 18.7821 14.6734 18.756C15.5747 18.5392 16.7008 17.5376 17.5398 16.2047C17.6683 16.002 17.8871 15.8816 18.128 15.8816C18.2584 15.8816 18.3849 15.9177 18.4973 15.986C18.6539 16.0863 18.7623 16.2389 18.8044 16.4195C18.8446 16.6002 18.8145 16.7869 18.7161 16.9434C17.6563 18.6295 16.2552 19.8138 14.9725 20.1109C14.9685 20.1109 14.9545 20.1149 14.9384 20.1169C14.7036 20.1611 14.4727 20.1832 14.2519 20.1832C13.4249 20.1832 12.8408 19.868 12.4233 19.593C12.0118 19.32 11.6264 18.9567 11.2791 18.5131C9.06913 15.6748 8.91859 10.3555 8.90855 9.75737C8.88446 8.34224 9.08921 6.42328 10.1932 5.32731C10.7332 4.79137 11.4096 4.52039 12.2025 4.52039H12.331C13.1278 4.52039 13.8043 4.79137 14.3443 5.32731C15.4503 6.42328 15.653 8.34224 15.6309 9.75737C15.6048 11.2327 15.3359 14.0891 13.8063 16.6504C13.6819 16.8591 13.453 16.9876 13.2101 16.9876C13.0857 16.9876 12.9612 16.9535 12.8549 16.8892C12.5277 16.6925 12.4193 16.267 12.614 15.9378C13.6839 14.1453 14.2017 12.1721 14.2439 9.73128C14.27 8.1114 13.9609 6.897 13.3667 6.30686C13.0917 6.03387 12.7525 5.90139 12.331 5.90139H12.2105L12.2065 5.9034Z" fill="white"/>
<path d="M44.6999 16.3192C43.062 16.3192 41.8135 14.6531 41.8135 12.6037C41.8135 10.5543 43.062 8.89025 44.6999 8.89025C46.3379 8.89025 47.5924 10.5523 47.5924 12.6037C47.5924 14.6551 46.3459 16.3192 44.6999 16.3192ZM44.6999 7.87256C41.2755 7.87256 39.2261 9.99224 39.2261 12.6037C39.2261 15.2152 41.2755 17.3349 44.6999 17.3349C48.1243 17.3349 50.1818 15.2172 50.1818 12.6037C50.1818 9.99024 48.1283 7.87256 44.6999 7.87256Z" fill="#ED1C24"/>
<path d="M50.6519 9.26967H54.2569V16.9395H56.9728V9.26967H60.0178V8.22388H50.6519V9.26967Z" fill="#ED1C24"/>
<path d="M61.0073 9.26967H64.0483V16.9395H66.7642V9.26967H70.3773V8.22388H61.0073V9.26967Z" fill="#ED1C24"/>
<path d="M33.8125 15.3757V8.2218H31.2051V15.9037C31.2051 16.4777 31.6708 16.9414 32.2448 16.9414H38.911V15.8936H34.3344C34.0514 15.8936 33.8125 15.6668 33.8125 15.3757Z" fill="#ED1C24"/>
<path d="M71.8525 9.25951V15.9036C71.8525 16.4777 72.3202 16.9414 72.8943 16.9414H80.0001V15.9136H74.9859C74.6948 15.9136 74.462 15.6808 74.462 15.3917V12.8244H79.9238V11.8007H74.462V9.76936C74.462 9.48432 74.6948 9.25148 74.9859 9.25148H80.0001V8.22375H72.8923C72.3222 8.22375 71.8525 8.68543 71.8525 9.26152" fill="#ED1C24"/>
</g>
</g>
<defs>
<clipPath id="clip0_1801_10147">
<rect width="80" height="24.9866" fill="white"/>
</clipPath>
<clipPath id="clip1_1801_10147">
<rect width="80" height="24.9866" fill="white"/>
</clipPath>
</defs>
</svg>
