<svg width="80" height="16" viewBox="0 0 80 16" fill="none" xmlns="http://www.w3.org/2000/svg">
<g clip-path="url(#clip0_1801_10474)">
<path d="M6.84206 15.0632C6.03706 14.9182 5.36057 14.6193 4.78845 14.1557C4.46828 13.8963 0.976697 10.3853 0.82476 10.17C0.475673 9.67524 0.242525 9.16369 0.0920773 8.56242C0.0110586 8.2386 0.00128244 8.13525 2.06351e-05 7.58881C-0.00162235 6.78211 0.0945209 6.32042 0.4051 5.64821C0.6833 5.04609 0.789694 4.92398 2.76339 2.94168C3.87655 1.82367 4.7301 0.994453 4.89925 0.866688C5.43528 0.461792 6.12471 0.165692 6.80809 0.0468719C7.28578 -0.0361841 8.12984 -0.00540598 8.59113 0.111883C9.12221 0.246917 9.57274 0.447428 10.0345 0.754275C10.399 0.996473 14.0967 4.69416 14.3391 5.05887C14.832 5.80055 15.0533 6.49207 15.0834 7.38504C15.1178 8.40299 14.9036 9.17753 14.3557 10.0171C14.2011 10.254 13.8287 10.6456 12.2792 12.2004C10.9188 13.5656 10.3105 14.1526 10.1025 14.301C9.6377 14.6326 9.03761 14.8973 8.45528 15.0275C8.12379 15.1016 7.17215 15.1226 6.84206 15.0632Z" fill="#EC1F26"/>
<path d="M5.79491 12.1897C5.86479 12.1704 5.96544 12.1028 6.02416 12.0359C6.10804 11.9404 6.12884 11.8862 6.12884 11.7633C6.12884 11.4635 5.9553 11.2738 5.68107 11.2738C5.44909 11.2738 5.32188 11.3486 5.24024 11.5332C5.09865 11.8533 5.28191 12.1586 5.65337 12.2215C5.66273 12.2231 5.7264 12.2088 5.79491 12.1897Z" fill="white"/>
<path d="M9.2612 12.1077C9.69393 11.9572 10.0104 11.7389 10.4945 11.2568C10.9367 10.8164 11.3232 10.3104 11.3725 10.1071C11.4052 9.97263 11.3396 9.79768 11.2184 9.69562C11.0987 9.59489 10.8437 9.57675 10.7242 9.66046C10.6843 9.68842 10.5633 9.83738 10.4553 9.99149C10.2102 10.3414 9.70736 10.8653 9.4459 11.0433C9.10926 11.2726 8.90582 11.3493 8.63048 11.351C8.0651 11.3547 7.53758 10.9135 7.11426 10.0833C6.75952 9.38761 6.51648 8.54038 6.34028 7.38507C6.26297 6.87816 6.25195 6.69789 6.24996 5.9077C6.24799 5.15078 6.25762 4.9645 6.30997 4.736C6.39788 4.35233 6.60257 3.93978 6.78061 3.78738C7.12373 3.49367 7.70636 3.49602 8.03444 3.7924C8.20063 3.94254 8.40861 4.3638 8.4919 4.71899C8.56877 5.04682 8.59735 6.16935 8.54237 6.70169C8.44628 7.63225 8.21699 8.42811 7.80733 9.25299C7.50772 9.85628 7.49336 9.9506 7.67153 10.145C7.7761 10.2591 7.80486 10.2719 7.95772 10.2719C8.19881 10.2719 8.28398 10.1934 8.51344 9.75953C9.46986 7.95129 9.73955 5.23867 9.10111 3.84857C8.8185 3.23323 8.37862 2.86167 7.79738 2.74732C7.51271 2.69131 7.01319 2.72195 6.76431 2.81071C5.75246 3.17149 5.25381 4.44142 5.37913 6.33836C5.57686 9.33124 6.43262 11.3624 7.77398 12.0224C8.2191 12.2415 8.78353 12.2738 9.2612 12.1077Z" fill="white"/>
<path d="M27.3855 9.81134C28.5186 9.55011 29.1406 7.9564 28.6338 6.61284C28.2936 5.71106 27.5299 5.22001 26.748 5.40028C26.146 5.53907 25.6194 6.12409 25.4136 6.88286C25.3187 7.23272 25.3105 7.91835 25.397 8.26807C25.6627 9.34208 26.5234 10.0101 27.3855 9.81134ZM26.4784 10.4222C25.0407 10.2356 24.0245 9.34478 23.8031 8.07681C23.6227 7.0438 24.0534 5.97919 24.8947 5.37892C25.7344 4.77973 27.0138 4.59092 28.1996 4.89125C28.7668 5.03491 29.4301 5.44648 29.7689 5.86506C30.2709 6.4851 30.4817 7.33223 30.3302 8.12075C30.0524 9.56755 28.7606 10.477 27.0158 10.4543C26.8384 10.452 26.5965 10.4375 26.4784 10.4222Z" fill="#EC1F26"/>
<path d="M65.838 9.04356C66.2784 8.79606 66.5143 8.28296 66.5143 7.57263C66.5143 6.88015 66.2512 6.33932 65.8087 6.12201C65.6416 6.03997 65.5737 6.02659 65.3256 6.02687C65.1035 6.02706 65.0007 6.04382 64.8799 6.09945C64.3886 6.3256 64.1217 6.8516 64.1244 7.58882C64.1264 8.15869 64.2413 8.51549 64.5198 8.8177C64.7617 9.08009 64.9903 9.17019 65.3795 9.15652C65.6122 9.14834 65.6823 9.13108 65.838 9.04356ZM64.9252 10.3172C63.8204 10.2227 62.9512 9.70787 62.5265 8.89637C62.3023 8.4678 62.2518 8.23276 62.2531 7.62277C62.254 7.21011 62.2686 7.02765 62.3142 6.86438C62.6012 5.83473 63.3603 5.17689 64.5614 4.91698C64.8714 4.84989 65.9575 4.8582 66.2679 4.93002C67.3437 5.17898 68.099 5.87507 68.3512 6.85016C68.4357 7.17707 68.4447 7.81315 68.3698 8.17222C68.2287 8.84854 67.8669 9.39445 67.3172 9.7602C66.6439 10.2082 65.8399 10.3954 64.9252 10.3172Z" fill="#2685C7"/>
<path d="M69.7067 10.2727C69.2061 10.1879 68.6539 10.013 68.6539 9.93907C68.6539 9.91748 68.7242 9.65325 68.8101 9.35189L68.9663 8.80394L69.0903 8.86338C69.6633 9.13815 70.5824 9.26461 71.0305 9.13035C71.2659 9.05981 71.3893 8.85485 71.3302 8.63257C71.2849 8.46197 71.0844 8.34223 70.5451 8.16364C69.9598 7.96984 69.7088 7.85965 69.4461 7.68127C69.1995 7.51379 69.0253 7.32446 68.9013 7.0891C68.8152 6.92574 68.8067 6.87747 68.8067 6.55297C68.8067 6.22148 68.8144 6.18004 68.9165 5.96456C69.1362 5.50071 69.6428 5.12565 70.2841 4.95216C70.5354 4.88415 70.654 4.87391 71.2011 4.87294C71.6019 4.87195 71.9155 4.88874 72.0671 4.91865C72.3437 4.97314 72.8219 5.11756 72.8432 5.15306C72.8587 5.17875 72.5768 6.20746 72.5458 6.23844C72.5359 6.2483 72.4395 6.22428 72.3314 6.18508C71.3907 5.84341 70.5558 5.94361 70.5558 6.39817C70.5558 6.64119 70.7119 6.74226 71.5038 7.01209C72.3565 7.30258 72.7617 7.57393 72.9676 7.99223C73.148 8.35867 73.156 8.88696 72.9868 9.25656C72.8887 9.47085 72.6197 9.76773 72.39 9.91513C72.1698 10.0564 71.7349 10.2104 71.3825 10.2719C71.0249 10.3342 70.0728 10.3346 69.7067 10.2727Z" fill="#2685C7"/>
<path d="M54.2028 10.2529C52.6828 10.1036 51.5597 9.45218 51.0054 8.39836C50.7397 7.89301 50.6219 7.42328 50.6025 6.7907C50.5702 5.73928 50.9057 4.86556 51.6108 4.16551C52.5314 3.25134 54.0581 2.79787 55.8134 2.91724C56.1014 2.93682 56.4688 2.97571 56.6298 3.00365C56.9381 3.05714 57.4332 3.17936 57.5003 3.21851C57.5286 3.23501 57.4852 3.4286 57.3487 3.89567C57.1962 4.41767 57.1473 4.54575 57.1066 4.53006C56.3548 4.23992 55.0736 4.1607 54.3141 4.3574C53.4244 4.58781 52.8128 5.15852 52.6102 5.94739C52.3835 6.83039 52.6477 7.8054 53.2621 8.35316C53.4822 8.5493 53.9645 8.79836 54.2789 8.87821C54.7143 8.98879 55.5533 9.0061 55.9273 8.91223L56.0198 8.88899V7.33409H54.7632V6.07747H57.8204L57.8029 9.89615L57.4123 9.99085C56.9333 10.107 56.3558 10.2065 55.8889 10.2535C55.4921 10.2933 54.6118 10.2928 54.2028 10.2529Z" fill="#2685C7"/>
<path d="M19.2893 10.1567C19.1322 10.0842 19.0205 9.97259 18.9689 9.83663C18.9445 9.77221 18.9327 8.96084 18.9327 7.34888V4.95673H20.495V7.14571C20.495 8.67786 20.5063 9.35954 20.5327 9.41748C20.5535 9.463 20.6031 9.51734 20.6431 9.53824C20.6926 9.5641 21.1712 9.57886 22.1422 9.58443L23.5686 9.59261L23.5881 10.2209L21.5067 10.2199C19.5556 10.2189 19.4167 10.2155 19.2893 10.1567Z" fill="#EC1F26"/>
<path d="M32.8234 5.60296L30.6668 5.58508L30.6472 4.95678H36.3215V5.60207H34.4876V10.221H32.8234L32.8234 5.60296Z" fill="#EC1F26"/>
<path d="M38.7668 5.60199H36.9329V4.95671H42.5707V5.60199H40.3971V10.2209H38.7668V5.60199Z" fill="#EC1F26"/>
<path d="M43.8443 10.1645C43.7052 10.0912 43.594 9.98599 43.5269 9.86431C43.4762 9.77253 43.4707 9.55006 43.4707 7.62279C43.4707 6.44599 43.4821 5.4423 43.4961 5.39237C43.5344 5.25604 43.6886 5.09062 43.8428 5.02056C43.9714 4.96216 44.1191 4.95816 46.1792 4.95747L48.3783 4.95648V5.56782H46.8658C45.2561 5.56782 45.1705 5.57573 45.0866 5.73252C45.0639 5.77493 45.0499 6.05454 45.0499 6.46559V7.13009H48.3443V7.74142H45.0499L45.0507 8.56501C45.0515 9.45397 45.0556 9.4756 45.243 9.57141C45.2944 9.59773 45.7873 9.60934 46.8477 9.60934H48.3782V10.2207L46.1622 10.2194C44.2089 10.218 43.9341 10.2118 43.8443 10.1645Z" fill="#EC1F26"/>
<path d="M58.6519 4.98928L60.435 4.97374L60.4412 5.21147C60.4446 5.34223 60.4455 5.4836 60.4433 5.52563C60.4379 5.62523 60.4723 5.62214 60.5734 5.51394C60.6922 5.38675 61.0619 5.17729 61.318 5.09213C61.4656 5.04301 61.6624 5.01262 61.9123 5.00034L62.2859 4.98201V6.17942L62.0583 6.17943C61.3902 6.17945 60.8191 6.50198 60.5617 7.02468L60.4519 7.24769L60.4432 8.69188C60.4385 9.48618 60.4347 10.1552 60.4348 10.1785C60.4348 10.2114 60.2323 10.221 59.5347 10.221H58.6345L58.6519 4.98928Z" fill="#2685C7"/>
<path d="M73.6464 4.95673H75.4804V10.2209H73.6464V4.95673Z" fill="#2685C7"/>
<path d="M76.3634 4.99288L77.2497 4.98328C77.7534 4.97783 78.1442 4.98693 78.155 5.00441C78.1654 5.02134 78.1732 5.14277 78.1723 5.27433C78.17 5.60836 78.1816 5.62417 78.3298 5.49027C78.6443 5.20613 79.1032 5.03118 79.6334 4.99324C79.8243 4.97961 79.9836 4.97021 79.9874 4.97234C79.9934 4.97563 80.0032 5.95376 79.999 6.11991C79.9977 6.16995 79.9639 6.17945 79.7852 6.17994C79.1061 6.18158 78.5228 6.51867 78.272 7.0538L78.1804 7.24916L78.1716 8.67559C78.1668 9.46013 78.1629 10.1288 78.1631 10.1615C78.1634 10.2166 78.0981 10.2209 77.2634 10.2209H76.3634L76.3634 4.99288Z" fill="#2685C7"/>
<path d="M74.2543 4.22289C74.0091 4.16752 73.7837 4.01391 73.6643 3.82074C73.5733 3.67356 73.5616 3.62496 73.5622 3.39711C73.5629 3.10526 73.6092 2.99135 73.8037 2.80249C74.1626 2.45392 74.9903 2.44712 75.3408 2.78986C75.6375 3.07995 75.6971 3.5189 75.483 3.83769C75.373 4.00153 75.1538 4.16031 74.9691 4.21005C74.7835 4.26001 74.4456 4.26607 74.2543 4.22289Z" fill="#2685C7"/>
</g>
<defs>
<clipPath id="clip0_1801_10474">
<rect width="80" height="15.0976" fill="white"/>
</clipPath>
</defs>
</svg>
