<svg width="80" height="17" viewBox="0 0 80 17" fill="none" xmlns="http://www.w3.org/2000/svg">
<g clip-path="url(#clip0_1801_10768)">
<path d="M24.3465 8.0956C24.1374 7.79687 23.9283 7.55789 23.6893 7.40852C23.4503 7.25916 23.2113 7.19941 22.9126 7.19941H22.6139V5.82525H28.6482V7.19941H28.2897C28.0507 7.19941 27.8715 7.22928 27.752 7.28903C27.6325 7.34877 27.5728 7.43839 27.5728 7.55789C27.5728 7.61763 27.5728 7.6475 27.6026 7.70725C27.6325 7.767 27.6624 7.82674 27.7221 7.94623L28.9469 9.79836L30.1717 7.94623C30.2016 7.88649 30.2614 7.79687 30.2912 7.70725C30.3211 7.61763 30.3211 7.52801 30.3211 7.46827C30.3211 7.37865 30.2614 7.3189 30.1419 7.28903C30.0224 7.22928 29.873 7.22928 29.6938 7.22928H29.3054V5.85512H33.9357V7.22928H33.6071C33.3681 7.22928 33.159 7.28903 32.9798 7.43839C32.8006 7.55789 32.5616 7.82674 32.2927 8.21509L29.9626 11.6505V13.3234C29.9626 13.6819 30.0224 13.9208 30.112 14.0105C30.2315 14.1001 30.4406 14.1598 30.8289 14.1598H31.3965V15.534H25.0933V14.1598H25.6908C26.0194 14.1598 26.2584 14.13 26.3779 14.0403C26.4973 13.9507 26.5571 13.7117 26.5571 13.3234V11.6505L24.2867 8.15535L24.3465 8.0956ZM39.8805 7.02017C39.1934 7.02017 38.6855 7.3189 38.3569 7.88649C38.0283 8.45408 37.879 9.38014 37.879 10.6348C37.879 11.9193 38.0283 12.8454 38.3569 13.413C38.6855 13.9806 39.1635 14.2793 39.8805 14.2793C40.5974 14.2793 41.1053 13.9806 41.404 13.413C41.7326 12.8454 41.882 11.9193 41.882 10.6647C41.882 9.38014 41.7326 8.45408 41.404 7.88649C41.0754 7.3189 40.5974 7.02017 39.8805 7.02017ZM33.876 10.6647C33.876 9.08141 34.4137 7.82674 35.4593 6.93055C36.5347 6.03436 37.9985 5.58627 39.8805 5.58627C41.7625 5.58627 43.2262 6.03436 44.2718 6.93055C45.3472 7.82674 45.8551 9.08141 45.8551 10.6647C45.8551 12.248 45.3174 13.5026 44.2718 14.3988C43.1964 15.295 41.7326 15.7431 39.8506 15.7431C37.9985 15.7431 36.5347 15.295 35.4593 14.3988C34.3838 13.5026 33.876 12.248 33.876 10.6647ZM52.8155 11.7102V10.3361H58.5511V11.7102H58.1926C57.8342 11.7102 57.5952 11.7401 57.5056 11.8297C57.3861 11.9193 57.3562 12.1285 57.3562 12.5168V15.534H55.4742L55.1456 14.9365C54.6377 15.2054 54.1299 15.4145 53.6221 15.534C53.1142 15.6535 52.6064 15.7431 52.0985 15.7431C50.4854 15.7431 49.2307 15.295 48.3047 14.3689C47.3786 13.4727 46.9305 12.2181 46.9305 10.6348C46.9305 9.11128 47.4383 7.85662 48.4242 6.93055C49.41 6.00449 50.7244 5.52652 52.3375 5.52652C52.9051 5.52652 53.413 5.58626 53.861 5.70576C54.3091 5.82525 54.7274 6.00449 55.1157 6.2136L55.3547 5.67588H56.9977V9.61912H55.2053C55.0261 8.69306 54.7572 8.03585 54.3988 7.61763C54.0403 7.19941 53.5623 6.9903 52.935 6.9903C52.218 6.9903 51.7102 7.28903 51.4115 7.82674C51.0829 8.39433 50.9335 9.32039 50.9335 10.5751C50.9335 11.8596 51.0829 12.7857 51.4115 13.3533C51.7401 13.9208 52.218 14.2196 52.935 14.2196C53.3831 14.2196 53.6818 14.1598 53.861 14.0403C54.0104 13.9208 54.1 13.6221 54.1 13.2039V12.4571C54.1 12.0986 54.0403 11.8596 53.9507 11.77C53.861 11.6804 53.6221 11.6206 53.2337 11.6206H52.9051L52.8155 11.7102ZM60.0746 8.12547C59.8655 7.82674 59.6564 7.58776 59.4174 7.43839C59.1785 7.28903 58.9395 7.22928 58.6407 7.22928H58.342V5.85512H64.3764V7.22928H64.0179C63.7789 7.22928 63.5997 7.25915 63.4802 7.3189C63.3607 7.37865 63.3009 7.46827 63.3009 7.58776C63.3009 7.6475 63.3009 7.67738 63.3308 7.73712C63.3607 7.79687 63.3905 7.85662 63.4503 7.97611L64.6751 9.82824L65.8999 7.97611C65.9298 7.91636 65.9895 7.82674 66.0194 7.73712C66.0492 7.6475 66.0492 7.55789 66.0492 7.49814C66.0492 7.40852 65.9895 7.34877 65.87 7.3189C65.7505 7.25915 65.6012 7.25915 65.4219 7.25915H65.0336V5.885H69.6639V7.25915H69.3353C69.0963 7.25915 68.8872 7.3189 68.7079 7.46827C68.5287 7.58776 68.2897 7.85662 68.0209 8.24497L65.6908 11.6804V13.3533C65.6908 13.7117 65.7505 13.9507 65.8401 14.0403C65.9596 14.13 66.1687 14.1897 66.5571 14.1897H67.1247V15.5639H60.8215V14.1897H61.4189C61.7475 14.1897 61.9865 14.1598 62.106 14.0702C62.2255 13.9806 62.2852 13.7416 62.2852 13.3533V11.6804L60.0149 8.18522L60.0746 8.12547ZM74.1448 10.9933L73.2188 8.0956L72.3226 10.9933H74.1448ZM73.7565 15.4444V14.0702H74.2345C74.6228 14.0702 74.8618 14.0403 74.9514 14.0105C75.041 13.9806 75.0709 13.891 75.0709 13.7715C75.0709 13.6819 75.0709 13.6221 75.041 13.5624C75.041 13.5026 75.0112 13.4429 74.9813 13.3533L74.6228 12.3376H71.8446L71.516 13.2636C71.4563 13.413 71.4264 13.5026 71.3965 13.5922C71.3666 13.6819 71.3666 13.7416 71.3666 13.8013C71.3666 13.891 71.4264 13.9507 71.5459 14.0105C71.6654 14.0702 71.8446 14.0702 72.0836 14.0702H72.5914V15.4444H67.9611V14.0702H68.3495C68.6183 14.0702 68.8274 13.9806 69.0067 13.8312C69.1859 13.6819 69.3353 13.413 69.4548 13.0844L72.1732 5.82525H75.9073L78.3271 13.0545C78.5063 13.5325 78.6557 13.8312 78.7752 13.9208C78.9245 14.0105 79.1336 14.0702 79.4324 14.0702H79.9701V15.4444H73.6967H73.7565Z" fill="#FF0000"/>
<path d="M23.3905 4.00299V2.03137H22.6736V1.64302H24.5556V2.03137H23.8685V4.00299H23.3905ZM31.6056 2.83794C31.6056 2.59896 31.6355 2.38985 31.7251 2.24048C31.7849 2.12099 31.8446 2.0015 31.9342 1.91188C32.0239 1.82226 32.1433 1.73264 32.233 1.70277C32.3823 1.64302 32.5616 1.61315 32.7408 1.61315C33.0993 1.61315 33.3681 1.73264 33.5773 1.94175C33.7864 2.15086 33.9059 2.44959 33.9059 2.83794C33.9059 3.22629 33.7864 3.52502 33.6071 3.73414C33.398 3.94325 33.1292 4.06274 32.7707 4.06274C32.4122 4.06274 32.1433 3.94325 31.9342 3.73414C31.7251 3.52502 31.6355 3.22629 31.6355 2.83794H31.6056ZM32.1135 2.80807C32.1135 3.07693 32.1732 3.28604 32.2927 3.43541C32.4122 3.58477 32.5616 3.64452 32.7707 3.64452C32.9499 3.64452 33.1292 3.58477 33.2486 3.43541C33.3681 3.28604 33.4279 3.07693 33.4279 2.80807C33.4279 2.53921 33.3681 2.3301 33.2486 2.21061C33.1292 2.06125 32.9798 2.0015 32.7707 2.0015C32.5616 2.0015 32.4122 2.06125 32.2927 2.21061C32.1732 2.35998 32.1135 2.53921 32.1135 2.83794V2.80807ZM41.0455 3.22629L41.5235 3.16655C41.5534 3.31591 41.6131 3.43541 41.7027 3.52502C41.7923 3.58477 41.9118 3.64452 42.0612 3.64452C42.2106 3.64452 42.3301 3.61464 42.4197 3.5549C42.5093 3.49515 42.5392 3.40553 42.5392 3.31591C42.5392 3.25617 42.5093 3.22629 42.4794 3.16655C42.4495 3.13667 42.3898 3.1068 42.3002 3.07693C42.2404 3.04706 42.1209 3.01718 41.9118 2.98731C41.643 2.92756 41.4637 2.83794 41.3741 2.74833C41.2247 2.62883 41.165 2.44959 41.165 2.27036C41.165 2.15086 41.1949 2.03137 41.2546 1.94175C41.3144 1.82226 41.4339 1.76252 41.5534 1.70277C41.6728 1.64302 41.8222 1.61315 42.0313 1.61315C42.3301 1.61315 42.5392 1.6729 42.6885 1.82226C42.8379 1.94175 42.9275 2.12099 42.9275 2.35998L42.4495 2.38985C42.4197 2.27036 42.3898 2.18074 42.3301 2.12099C42.2703 2.06125 42.1508 2.03137 42.0313 2.03137C41.882 2.03137 41.7923 2.06125 41.7027 2.12099C41.643 2.15086 41.6131 2.21061 41.6131 2.27036C41.6131 2.3301 41.643 2.38985 41.6728 2.41972C41.7326 2.47947 41.882 2.50934 42.1209 2.56909C42.3599 2.62883 42.5392 2.68858 42.6288 2.74833C42.7483 2.80807 42.8379 2.89769 42.8976 2.98731C42.9574 3.07693 42.9873 3.22629 42.9873 3.37566C42.9873 3.52502 42.9574 3.64452 42.8678 3.76401C42.7781 3.8835 42.6885 3.97312 42.5392 4.03287C42.3898 4.09261 42.2404 4.12248 42.0313 4.12248C41.7326 4.12248 41.4936 4.06274 41.3442 3.91337C41.1949 3.76401 41.0754 3.58477 41.0455 3.31591V3.22629ZM50.2464 4.00299V1.61315H52.0089V2.0015H50.7244V2.53921H51.9193V2.92756H50.7244V3.58477H52.0388V3.97312H50.2464V4.00299ZM59.3278 4.00299V1.61315H60.3435C60.5825 1.61315 60.7916 1.64302 60.9111 1.6729C61.0306 1.70277 61.1202 1.79239 61.1799 1.91188C61.2397 2.03137 61.2696 2.15086 61.2696 2.30023C61.2696 2.47947 61.2098 2.62883 61.1202 2.74833C61.0007 2.86782 60.8513 2.92756 60.6422 2.95744C60.7318 3.01718 60.8215 3.07693 60.9111 3.16655C60.9708 3.22629 61.0604 3.37566 61.1799 3.5549L61.4787 4.03287H60.9111L60.5526 3.52502C60.4331 3.34579 60.3435 3.22629 60.3136 3.16655C60.2539 3.1068 60.224 3.07693 60.1643 3.07693C60.1045 3.04706 60.0448 3.04706 59.9253 3.04706H59.8357V4.03287H59.3577L59.3278 4.00299ZM59.8058 2.62883H60.1643C60.4032 2.62883 60.5227 2.62883 60.5825 2.59896C60.6422 2.56909 60.6721 2.53921 60.702 2.50934C60.7318 2.44959 60.7617 2.38985 60.7617 2.3301C60.7617 2.24048 60.7318 2.18074 60.702 2.15086C60.6721 2.09112 60.6124 2.06125 60.5227 2.06125C60.4929 2.06125 60.3734 2.06125 60.1643 2.06125H59.7759V2.65871L59.8058 2.62883ZM69.5444 1.61315C69.7236 1.61315 69.873 1.61315 69.9626 1.64302C70.0522 1.6729 70.1419 1.70277 70.2016 1.73264C70.2613 1.79239 70.3211 1.85213 70.3808 1.94175C70.4406 2.03137 70.4406 2.12099 70.4406 2.21061C70.4406 2.3301 70.4107 2.41972 70.351 2.50934C70.2912 2.59896 70.2016 2.65871 70.112 2.71845C70.2613 2.74833 70.3808 2.83794 70.4406 2.92756C70.5302 3.01718 70.5601 3.13667 70.5601 3.28604C70.5601 3.40553 70.5302 3.49515 70.4705 3.61464C70.4107 3.70426 70.351 3.79388 70.2613 3.85363C70.1717 3.91337 70.0821 3.94325 69.9327 3.97312C69.8431 3.97312 69.6639 3.97312 69.3652 4.00299H68.5586V1.61315H69.5444ZM69.0664 2.0015V2.53921H69.395C69.5743 2.53921 69.6938 2.53921 69.7535 2.53921C69.8431 2.53921 69.9029 2.50934 69.9327 2.44959C69.9925 2.38985 69.9925 2.3301 69.9925 2.27036C69.9925 2.21061 69.9626 2.15086 69.9327 2.09112C69.9029 2.03137 69.8431 2.03137 69.7535 2.0015C69.6938 2.0015 69.5743 2.0015 69.3353 2.0015H69.0664ZM69.0664 2.95744V3.58477H69.5145C69.6938 3.58477 69.7834 3.58477 69.8431 3.58477C69.9029 3.58477 69.9626 3.5549 70.0224 3.49515C70.0821 3.4354 70.0821 3.37566 70.0821 3.28604C70.0821 3.22629 70.0522 3.16655 70.0224 3.1068C69.9925 3.04706 69.9327 3.01718 69.873 2.98731C69.8132 2.95744 69.6639 2.95744 69.4548 2.95744H69.0664ZM80 4.00299H79.4921L79.283 3.46528H78.3271L78.118 4.00299H77.6101L78.5362 1.61315H79.044L80 4.00299ZM79.1336 3.04706L78.805 2.18074L78.4764 3.04706H79.1336Z" fill="#159B53"/>
<path fill-rule="evenodd" clip-rule="evenodd" d="M13.8611 6.69156L17.8641 4.45108L17.9238 4.39134L18.0433 4.15235V4.03286L18.0134 3.97311L17.9537 3.91337L17.8342 3.85362H17.6251L17.5355 3.88349L17.4757 3.91337L13.8013 5.97461L11.053 7.528V16.0418L11.0232 16.1016V16.1613L10.9933 16.2211L10.8738 16.4003L10.814 16.46L10.7244 16.5198L10.6049 16.5497L10.5153 16.5795L10.2763 16.5198L10.1867 16.46L10.1568 16.4302L10.127 16.3704L10.0672 16.2808L10.0373 16.1912L10.0075 16.0717L9.97759 16.0119V15.9522L10.0075 6.93054L13.8312 4.80956L16.9978 3.04705L17.2367 2.92756L17.5952 2.83794H17.7446L18.1031 2.92756L18.581 3.16654L18.7603 3.34578L18.82 3.4354L18.9395 3.67438L18.9993 3.91337V4.27184L18.9395 4.51083L18.9096 4.60045L18.82 4.71994L18.7603 4.80956L18.581 4.9888L18.342 5.16804L13.7416 7.73712L12.6662 8.33458V15.9821L12.6064 16.1016L12.5765 16.1912L12.4272 16.3405L12.3376 16.4003L12.2479 16.4302L12.1285 16.46L12.009 16.4302L11.9193 16.4003L11.8297 16.3405L11.7401 16.2509L11.6206 16.0717L11.5907 15.9522V7.73712L13.7117 6.54219L13.8611 6.69156ZM5.67588 1.34429L4.09261 0.477969L3.97311 0.418222L3.73413 0.358476L3.58476 0.328603H3.22629L2.9873 0.388349L2.50934 0.627334L2.3301 0.806572L2.24048 0.926064L2.18073 1.01568L2.12099 1.13518L2.06124 1.37416V1.64302L2.12099 1.882L2.15086 1.97162L2.2106 2.09111L2.30022 2.18073L2.35997 2.30022L2.44959 2.38984L2.56908 2.47946L2.6587 2.56908L2.77819 2.6587L5.73562 4.27184L9.73861 6.48245L13.9208 4.18222L17.3562 2.30022L17.4757 2.24048L17.5653 2.15086L17.6251 2.03137L17.6848 1.94175L17.7446 1.76251L17.7147 1.67289L17.6848 1.61314L17.655 1.58327L17.5952 1.49365L17.5355 1.43391L17.4757 1.40403L17.4459 1.37416L17.3264 1.34429H17.0874L16.9679 1.37416L16.8484 1.43391L13.9208 3.04705L9.76848 5.34727L5.70575 3.1068L3.31591 1.79238L3.19641 1.73264L3.1068 1.5534V1.49365L3.19641 1.31441L3.31591 1.25467H3.37565L3.4354 1.22479L3.52502 1.25467L3.64451 1.31441L5.70575 2.44959L9.76848 4.71994L13.891 2.41972L16.4899 0.955937L16.6094 0.896191L16.7289 0.776699L16.7588 0.716953L16.8185 0.627334L16.8783 0.448096L16.8484 0.358476L16.7886 0.238984L16.6692 0.119492L16.5497 0.0597461L16.4302 0.029873L16.3704 0H16.3107L16.0717 0.0597461L15.9522 0.119492L13.8611 1.28454L9.76848 3.58476L5.646 1.31441L5.67588 1.34429ZM5.67588 6.78118L0.926064 4.15235L0.806572 4.09261L0.567588 4.03286H0.448096L0.328603 4.06273L0.209111 4.12248L0.0597461 4.27184L0.029873 4.36146L0 4.42121V4.5407L0.029873 4.60045V4.66019L0.0896191 4.77969L0.119492 4.80956L0.179238 4.92905L0.238984 4.95892L0.29873 5.01867L0.418222 5.07842L5.70575 8.00597L6.60194 8.51381V15.6236L6.63181 15.7431L6.66169 15.8925L6.72143 15.9821L6.78118 16.1016L6.84093 16.1912L7.02016 16.3704L7.13966 16.4302L7.22927 16.5198L7.58775 16.699L7.82674 16.7588H8.09559L8.21509 16.7289L8.36445 16.699L8.84242 16.46L8.93204 16.3704L8.96191 16.3107L9.11128 16.1613L9.17102 16.0418L9.23077 15.9522L9.29051 15.7132L9.32039 15.5639V7.07991L5.67588 5.07842L1.76251 2.89768L1.64302 2.83794L1.40403 2.77819H1.28454L1.16505 2.80807L1.13518 2.83794L1.07543 2.86781L1.04556 2.89768L0.98581 2.92756L0.926064 3.01718L0.896191 3.1068L0.866318 3.16654V3.34578L0.955937 3.52502L0.98581 3.55489L1.04556 3.67438L1.1053 3.70426L1.13518 3.764L1.25467 3.82375L8.27483 7.73712V15.5041L8.24496 15.5639V15.6236L8.18521 15.7431L8.09559 15.8327L7.9761 15.8925L7.79686 15.8028L7.73712 15.7431L7.61762 15.5041V8.03585L5.646 6.96042L5.67588 6.78118Z" fill="#ED3237"/>
</g>
<defs>
<clipPath id="clip0_1801_10768">
<rect width="80" height="16.7588" fill="white"/>
</clipPath>
</defs>
</svg>
