<svg width="80" height="11" viewBox="0 0 80 11" fill="none" xmlns="http://www.w3.org/2000/svg">
<g clip-path="url(#clip0_1801_11677)">
<path d="M40 10.4129C38.8565 10.3029 37.6969 9.81179 36.8113 9.06227C36.6709 8.94341 36.5393 8.82614 36.519 8.80166C36.489 8.7655 36.6244 8.5865 37.2423 7.84525C37.6604 7.3437 38.0107 6.93335 38.0209 6.93337C38.031 6.93339 38.1451 7.02008 38.2745 7.12603C38.7986 7.55503 39.2661 7.83759 39.702 7.98869C39.9222 8.06506 39.999 8.07569 40.3294 8.07559C40.6525 8.07551 40.7281 8.06546 40.8624 8.00483C41.065 7.91333 41.1552 7.82624 41.1791 7.69899C41.2236 7.4616 41.0378 7.22339 40.6784 7.057C40.5727 7.00809 40.2675 6.91194 40 6.84335C39.0398 6.59707 38.5233 6.39971 38.0763 6.10834C37.4728 5.715 37.1467 5.23248 37.0024 4.51943C36.9293 4.15873 36.953 3.4445 37.049 3.11133C37.3085 2.2111 37.9329 1.55314 38.8444 1.21948C39.2846 1.05835 39.593 1.00216 40.1412 0.983162C41.1579 0.947926 42.087 1.16415 42.9333 1.63297C43.2555 1.81145 43.9098 2.29235 43.8997 2.34322C43.8963 2.36026 43.5955 2.80574 43.2313 3.33318L42.569 4.29218L42.2255 4.06004C41.217 3.3785 40.3164 3.15495 39.9461 3.49427C39.8608 3.5725 39.8337 3.62485 39.8222 3.73441C39.8092 3.85694 39.8197 3.8893 39.9062 3.99248C40.0766 4.19578 40.4017 4.32853 41.5373 4.65864C42.7923 5.02345 43.5528 5.58704 43.8754 6.39125C44.1242 7.01168 44.1043 7.9733 43.8289 8.63491C43.2968 9.91288 41.8393 10.5897 40 10.4129ZM62.651 10.2895C60.7073 10.0201 59.2986 8.74371 58.8603 6.8549C58.462 5.13845 59.0377 3.33746 60.3373 2.23409C61.1479 1.54593 62.009 1.24511 63.1686 1.24505C64.3302 1.24498 65.2203 1.60526 66.0941 2.42914L66.353 2.67318V1.31765H67.702V10.2274H66.353V8.90458L66.0628 9.17634C65.4701 9.73138 64.867 10.0599 64.1255 10.2318C63.8183 10.3029 62.9837 10.3356 62.651 10.2895ZM64.1412 8.91343C64.6299 8.76597 65.0986 8.49382 65.4712 8.14118C65.7905 7.83892 65.9842 7.57412 66.1826 7.16862C66.6924 6.12639 66.5903 4.92086 65.9083 3.93163C65.2302 2.94816 64.0665 2.41718 62.9269 2.57133C61.3843 2.77999 60.2351 4.01437 60.1509 5.55294C60.0619 7.18024 61.1215 8.59973 62.6824 8.94426C63.0546 9.02641 63.8204 9.01023 64.1412 8.91343ZM79.2251 10.2727C78.3595 10.1465 77.6487 9.71498 77.1867 9.03529C76.9632 8.7066 76.7892 8.28106 76.6669 7.7647C76.6022 7.49128 76.5997 7.40319 76.5887 4.98039L76.5773 2.47843H75.451V1.22353H76.6431V0H77.9608V1.22262L79.8902 1.23921L79.8991 1.77255C79.9041 2.06588 79.9004 2.33764 79.8907 2.37647L79.8733 2.44706H77.96L77.964 4.69804C77.9683 7.08128 77.9811 7.33658 78.1191 7.79344C78.156 7.91567 78.2446 8.12862 78.3159 8.26666C78.6147 8.84513 79.2784 9.28627 79.8497 9.28627H80V10.3216L79.7569 10.3182C79.6231 10.3163 79.3838 10.2959 79.2251 10.2727ZM2.38431 3.5451H0V1.16078H7.62353V3.5451H5.20784V10.2274H2.38431V3.5451ZM8.62745 1.16078L10.6745 1.16085C12.794 1.16091 13.3732 1.18356 13.8323 1.28421C15.2466 1.59433 16.0915 2.50486 16.2528 3.89297C16.3451 4.68638 16.171 5.47958 15.7775 6.05919C15.6092 6.30716 15.2875 6.62704 15.0415 6.79108C14.9389 6.85951 14.8432 6.92482 14.829 6.9362C14.8077 6.95323 15.6138 8.64062 16.2552 9.92155L16.4084 10.2274H13.2818L12.6456 8.90195C12.2956 8.17293 12.0002 7.57707 11.989 7.56721C11.798 7.56737 11.5934 7.56769 11.4196 7.56721V10.2274H8.62745V1.16078ZM12.9272 5.16491C13.2644 5.04003 13.458 4.75767 13.4585 4.3899C13.459 4.10134 13.3884 3.91642 13.2222 3.77008C12.9947 3.56988 12.8487 3.53788 12.0863 3.52125L11.4196 3.50671V5.24535L12.102 5.2316C12.6391 5.22076 12.8147 5.20659 12.9272 5.16491ZM16.6818 10.2273C16.6858 10.2169 16.7536 10.0861 16.8422 9.93034C17.6912 8.43728 22.0202 0.965947 22.0419 0.961967C22.0572 0.959167 23.272 3.03921 24.7415 5.58431L27.4219 10.2273C26.9541 10.2185 26.541 10.2375 26.1059 10.2273C26.0857 10.2054 25.1552 8.60314 24.0644 6.71373C22.9736 4.82432 22.0711 3.268 22.0589 3.25523C22.0467 3.24247 21.1269 4.806 20.0148 6.72974L17.9929 10.2275C17.5533 10.2269 17.0739 10.2273 16.6818 10.2273ZM18.946 10.2273C18.9487 10.2201 19.1073 9.92164 19.335 9.5228C20.1532 8.08952 22.0206 4.83108 22.0391 4.80725C22.0427 4.80261 22.745 6.01672 23.5997 7.50529L25.1628 10.2273C24.7227 10.2279 24.2498 10.2267 23.8352 10.2273C23.8162 10.22 23.4287 9.51684 22.9468 8.67899C22.4649 7.84114 22.0587 7.159 22.0441 7.16312C22.0295 7.16724 21.6204 7.8584 21.1349 8.69903L20.2522 10.2275C19.9679 10.225 19.6547 10.2319 19.4049 10.2273C19.2815 10.2248 19.1331 10.2306 18.946 10.2273ZM27.6706 1.16079H29.8557L29.9195 1.23138C29.9546 1.2702 30.6524 2.1833 31.4701 3.26048L32.9569 5.21899L32.973 1.16079H35.7961V10.2275C35.1007 10.2275 34.4052 10.2266 33.7098 10.2273L30.5098 6.0134L30.4937 10.2273H27.6706L27.6706 1.16079ZM45.3333 1.31765H46.6497L46.6667 2.61503L46.7888 2.41705C47.0561 1.98389 47.5247 1.58673 48.0032 1.38771C48.3855 1.22872 48.6937 1.18142 49.2218 1.20068C50.3582 1.24214 51.0516 1.64646 51.5746 2.57255C51.6477 2.70196 51.7114 2.81179 51.7161 2.81661C51.7209 2.82143 51.7937 2.70143 51.8779 2.54994C52.0583 2.22561 52.5179 1.74249 52.8075 1.57278C53.5088 1.16186 54.726 1.0691 55.5828 1.3613C56.6416 1.72244 57.2867 2.50214 57.577 3.7717C57.6419 4.05572 57.6438 4.13718 57.6546 7.1451L57.6656 10.2275H56.2533L56.2429 7.06667C56.2333 4.13947 56.2284 3.8921 56.1764 3.71936C55.9798 3.06546 55.549 2.63614 54.9419 2.48916C54.6577 2.42037 54.0486 2.42026 53.7649 2.489C53.0328 2.66627 52.511 3.24142 52.3229 4.07848C52.2576 4.36881 52.2556 4.4522 52.2436 7.30201L52.2313 10.2275H50.8887L50.8779 7.28632C50.8657 3.957 50.8816 4.17243 50.6057 3.5922C50.3023 2.95412 49.953 2.63323 49.4039 2.48809C49.1646 2.42486 48.6205 2.41832 48.3765 2.47574C47.7211 2.62993 47.2083 3.14569 46.9701 3.89024C46.7767 4.49465 46.7472 5.03136 46.746 7.97652L46.7452 10.2275H45.3334L45.3333 1.31765ZM69.2392 1.31765H70.5882V2.67499L70.8383 2.43609C71.4812 1.82185 72.1296 1.47595 72.9401 1.31487C73.1315 1.27682 73.4568 1.24788 73.8432 1.23451L74.4471 1.21361V2.4385L73.9059 2.45528C73.5892 2.4651 73.2671 2.49317 73.1294 2.52296C71.8918 2.7907 71.0923 3.51198 70.7814 4.64131L70.6988 4.94119L70.6803 10.2275H69.2392V1.31765Z" fill="#ED1B24"/>
</g>
<defs>
<clipPath id="clip0_1801_11677">
<rect width="80" height="10.4406" fill="white"/>
</clipPath>
</defs>
</svg>
