<svg width="80" height="18" viewBox="0 0 80 18" fill="none" xmlns="http://www.w3.org/2000/svg">
<g clip-path="url(#clip0_1801_11770)">
<path fill-rule="evenodd" clip-rule="evenodd" d="M35.5883 10.6923L38.0709 10.6659C38.0709 10.6659 38.0533 10.6483 38.0313 10.6308C37.8687 10.4989 37.7721 10.4242 37.6666 10.1562C37.5656 9.90135 37.5348 9.60256 37.5392 9.30377L37.5743 5.42388C37.5787 4.79115 37.5656 4.12765 37.5963 3.49931C37.7018 3.71462 38.7607 6.76404 38.8838 7.09799L40.1229 10.5956C40.158 10.6879 40.1273 10.6571 40.1932 10.6879H41.3795C41.4323 10.4286 41.5861 10.0507 41.6739 9.78271L43.7655 3.50371C43.7655 3.50371 43.7787 3.47734 43.783 3.46856L43.805 3.4378C43.8621 4.74281 43.8797 6.0654 43.9193 7.37481C43.9368 8.02072 43.9676 8.67982 43.9764 9.32574C43.9808 9.82665 43.8577 10.2704 43.4799 10.5736C43.4271 10.6176 43.37 10.6395 43.3217 10.6879C43.7523 10.7186 46.9731 10.7011 47.6366 10.6923C47.4828 10.4945 47.2631 10.433 47.1049 9.84862C46.9994 9.46634 47.0082 8.99179 46.9907 8.57437L46.7973 3.24886C46.7841 2.84022 46.7314 2.31733 46.8149 1.93505C46.8764 1.65823 47.0302 1.33308 47.2411 1.16611L47.3422 1.06065H43.3349C43.2514 1.43853 43.0405 1.96142 42.9086 2.34369C42.768 2.75673 41.6827 6.06101 41.6124 6.14889L39.9603 1.06065H35.9749L36.054 1.16171C36.0848 1.19247 36.1111 1.21444 36.1463 1.24959C36.6296 1.75929 36.5066 2.67764 36.4846 3.2928C36.4495 4.17599 36.4143 5.06357 36.3792 5.94676C36.3572 6.53116 36.2913 9.4268 36.1551 9.87938C36.0408 10.2704 35.8783 10.4198 35.6234 10.6395L35.5751 10.6879L35.5883 10.6923Z" fill="#ED314C"/>
<path fill-rule="evenodd" clip-rule="evenodd" d="M64.4787 1.93066C65.1246 1.83839 65.7354 1.7549 66.2671 2.09763C66.6977 2.37885 66.891 2.91491 66.869 3.61356C66.8251 5.13827 65.9639 5.45903 64.4743 5.45903V1.93066H64.4787ZM60.7306 1.06065C60.8185 1.17489 60.9152 1.18368 61.0778 1.43414C61.4205 1.96142 61.3414 2.69961 61.3414 3.33673V9.09725C61.3414 9.56301 61.1173 9.85741 60.8888 10.0639C60.4758 10.4374 60.2649 10.5033 60.0891 10.6483L65.1158 10.6879C64.9093 10.4682 64.7204 10.3891 64.5842 9.94529C64.4699 9.57619 64.4787 9.15877 64.4787 8.75452C64.4787 8.13057 64.4524 6.71571 64.4787 6.19283C64.7204 6.46086 65.9287 8.403 66.4428 9.01376C66.6933 9.31255 66.7284 9.32574 66.9877 9.60256C67.8972 10.5692 69.9097 11.0658 71.6058 10.5736L71.2718 10.3276C70.995 10.0991 70.9027 9.96726 70.6918 9.76953C70.5161 9.60256 70.0459 9.00937 69.9053 8.83361C69.4439 8.2536 68.8903 7.43632 68.4772 6.81677L67.7918 5.77979C67.7215 5.66994 67.6116 5.53373 67.5633 5.41509C68.5256 5.20418 69.5362 4.63736 69.8042 3.62674C69.958 3.04673 69.8482 2.4096 69.5582 2.00096C68.4245 0.383977 64.6852 0.981559 62.7563 1.04747C62.084 1.06944 61.4029 1.04747 60.7306 1.05626V1.06065Z" fill="#ED314C"/>
<path fill-rule="evenodd" clip-rule="evenodd" d="M29.2038 1.74611C30.2847 1.59232 30.7988 2.28218 31.1284 2.994C31.4667 3.7278 31.6688 4.71205 31.7172 5.60403C31.8182 7.36163 31.4887 9.88817 29.7794 10.02C28.7688 10.0991 28.18 9.39604 27.868 8.71937C27.2089 7.29572 26.9497 4.7516 27.5165 3.26643C27.8109 2.50188 28.2898 1.86914 29.1994 1.73732L29.2038 1.74611ZM29.3708 0.832164C28.0965 0.911255 26.7212 1.32429 25.7765 2.16354C25.2272 2.65127 24.7878 3.12143 24.4847 3.84204C24.1947 4.52751 24.054 5.19979 24.0628 6.04343C24.0892 8.34588 25.425 10.02 27.3364 10.6527C29.0061 11.2064 31.1811 11.0482 32.6575 10.0244C32.9079 9.85302 33.1935 9.63771 33.3781 9.43119L33.6988 9.09286C34.9907 7.64723 35.3554 5.25691 34.5381 3.53886C34.1954 2.81385 33.6725 2.22066 33.031 1.7549C32.9167 1.67141 32.7673 1.57914 32.6311 1.50005C31.682 0.946407 30.4956 0.766254 29.3708 0.836558V0.832164Z" fill="#ED314C"/>
<path fill-rule="evenodd" clip-rule="evenodd" d="M52.6237 2.98522C52.6633 3.02037 53.7178 5.48979 53.7882 5.71827H51.5999L52.6237 2.98522ZM47.8167 10.6879H50.7695C50.708 10.6483 50.6113 10.6088 50.5454 10.5692C50.4443 10.5121 50.4136 10.4726 50.3477 10.4023C49.7896 9.81347 50.8134 7.68678 51.1474 6.91783C51.1781 6.84314 51.2089 6.69813 51.288 6.69813C52.2019 6.69813 53.318 6.68056 54.21 6.69813C54.7197 7.89769 55.6073 9.33453 55.6292 10.6791C55.7654 10.7186 59.4081 10.7186 59.742 10.6879L59.3685 10.4023C59.1708 10.2133 59.0126 10.0244 58.8588 9.77832C58.5468 9.29059 57.4659 6.71132 57.1803 6.06101L55.5413 2.32612C55.4447 2.11521 55.3612 1.90869 55.2645 1.69338C55.181 1.50444 55.0448 1.23641 54.9965 1.05626H51.2836C51.3231 1.14853 51.3099 1.10459 51.3802 1.18368C51.6966 1.52641 51.7362 1.9043 51.6659 2.35688C51.5912 2.83143 51.4462 3.2928 51.2968 3.7278C50.7519 5.31842 49.8907 7.04965 49.2623 8.63149C48.9592 9.39604 48.7526 10.0244 48.1023 10.5077C48.0101 10.578 47.909 10.6088 47.8255 10.6835L47.8167 10.6879Z" fill="#ED314C"/>
<path fill-rule="evenodd" clip-rule="evenodd" d="M18.1266 7.28693V9.16755C18.1266 9.48831 18.0958 9.79589 17.9947 10.0771C17.8761 10.4154 17.7399 10.4901 17.5597 10.6923H21.8263C21.7384 10.5868 21.6549 10.5341 21.5671 10.4242C21.5011 10.3407 21.4177 10.1957 21.3693 10.0771C21.1496 9.54544 21.2199 8.34588 21.2199 7.69557C21.2199 5.82373 22.4678 3.82886 23.4828 2.46233C23.8212 2.00975 24.0057 1.80763 24.3221 1.42096C24.3748 1.35944 24.4231 1.3155 24.4715 1.25399L24.5769 1.13095C24.6253 1.06944 24.5857 1.13974 24.6209 1.06504H21.3474C21.4352 1.33308 21.6945 1.57914 21.7604 2.18551C21.8307 2.85779 21.2639 3.82886 20.9299 4.40008C20.8245 4.58023 20.473 5.27009 20.3719 5.36236C19.9676 4.33417 18.6407 2.24703 18.7285 1.06504H14.5103L15.3584 2.07566C16.2679 3.25325 18.1222 5.85449 18.1222 7.28693H18.1266Z" fill="#ED314C"/>
<path fill-rule="evenodd" clip-rule="evenodd" d="M71.2938 3.56522C71.3509 3.46416 71.4124 3.32355 71.4652 3.22249C71.6365 2.90612 71.9221 2.58097 72.2649 2.414C72.6383 2.22945 73.5831 2.03172 74.0664 2.08445V8.76331C74.0664 9.3565 74.1059 9.89256 73.7764 10.3671L73.5435 10.6132C73.4952 10.6527 73.4952 10.6351 73.4468 10.6923H77.8232C77.8232 10.6923 77.7969 10.6659 77.7617 10.6351C77.3223 10.2397 77.2213 9.83105 77.2213 9.17195V2.07127C77.8672 2.07127 78.5175 2.1196 79.0448 2.36127C79.2864 2.47112 79.5105 2.65127 79.6336 2.81385C79.7258 2.93688 79.761 2.98522 79.8357 3.13461C79.9016 3.26204 79.9236 3.40704 79.9851 3.53007C80.0159 2.94567 79.9895 1.71535 79.9895 1.06065H71.285V3.56522H71.2938Z" fill="#ED314C"/>
<path fill-rule="evenodd" clip-rule="evenodd" d="M6.53523 0.678374L6.64947 0.766253C6.69341 0.792617 6.73296 0.818981 6.77251 0.845345C7.10645 1.06944 7.48433 1.36384 7.77873 1.62747L8.28404 2.13278C8.76298 2.02293 9.07495 1.87354 9.64617 1.86475C10.1998 1.85596 10.6216 1.99657 10.8282 2.3393C11.0654 2.73915 10.8194 3.29719 10.6304 3.59598C10.3756 3.99583 10.1515 4.20235 9.86148 4.48357C9.11889 5.20857 7.69085 5.98191 6.49568 6.05661C6.23205 6.07419 5.9728 6.05661 5.71795 6.02585C5.55537 6.00388 5.12476 5.87646 5.03249 5.88085C4.99734 6.25874 4.94021 7.62966 5.10719 7.90648C6.62311 8.1833 8.6004 7.67799 9.74723 7.06723C10.0372 6.91344 10.3624 6.68495 10.5865 6.5004C11.3686 5.86767 12.0321 5.16024 12.4364 4.13205C13.0295 2.62052 12.6209 1.03868 11.1269 0.366401C10.0065 -0.138908 8.73662 -0.0773916 7.54585 0.282915C7.08009 0.423523 6.81645 0.5861 6.53523 0.678374Z" fill="#ED314C"/>
<path fill-rule="evenodd" clip-rule="evenodd" d="M2.58943 6.84753C2.58943 6.32904 2.69928 5.63918 2.82671 5.12948C2.86625 4.97569 2.94095 4.7516 2.96292 4.6066C2.7608 4.49675 2.29943 3.95629 2.14124 3.7278C1.5129 2.82264 1.62715 1.9043 2.94095 1.87793C3.45944 1.86914 3.95596 1.99657 4.40415 2.14597C5.4631 2.50627 6.78569 3.32795 7.36569 4.30781C7.47115 4.48357 7.56782 4.66372 7.6557 4.88342C7.70842 5.01963 7.82267 5.46782 7.86661 5.53373C8.29282 5.4107 9.41768 4.70327 9.60662 4.47038C9.32541 3.59598 8.44222 2.45794 7.8007 1.88672C7.40524 1.5352 7.05372 1.20565 6.57038 0.915649C4.84794 -0.112544 1.93912 -0.53876 0.550621 1.1705C0.102434 1.72414 -0.121659 2.58536 0.0672823 3.49492C0.308952 4.64175 0.994413 5.51615 1.76336 6.21919C1.90836 6.35101 2.40928 6.78601 2.59382 6.84314L2.58943 6.84753Z" fill="#ED314C"/>
<path fill-rule="evenodd" clip-rule="evenodd" d="M9.93618 7.1595C9.57587 7.38799 8.84647 7.65602 8.39389 7.79663C8.20055 7.85375 7.99403 7.8933 7.80509 7.95481C7.69964 8.43815 7.60297 8.77649 7.39645 9.18074C7.22069 9.52347 6.96145 9.88377 6.57917 9.99362C5.71795 10.2441 5.19946 9.03134 5.01491 8.34148C4.64142 6.93541 4.71612 4.86145 5.7531 3.72341C5.8278 3.64431 5.87174 3.5828 5.94204 3.50371C6.01674 3.42461 6.10023 3.37189 6.16174 3.29279C5.88492 3.03355 4.69854 2.37006 4.35581 2.32612C3.97793 2.72158 3.50777 3.6575 3.31883 4.14523C2.72125 5.71388 2.55428 7.31329 3.12989 8.93028C3.38914 9.65968 3.69232 10.1826 4.18445 10.7318C5.9025 12.63 8.39389 11.7292 9.38693 9.44877C9.53632 9.10164 9.65935 8.77649 9.75602 8.38982C9.81754 8.13497 9.96693 7.40996 9.93618 7.1595Z" fill="#ED314C"/>
<path fill-rule="evenodd" clip-rule="evenodd" d="M38.8442 13.4649C39.2572 13.4517 39.8153 13.4649 40.0745 13.689C40.4788 14.0405 40.2371 15.2532 39.5868 15.7234C39.2221 15.9826 38.8574 15.9563 38.3433 15.9563L38.8442 13.4649ZM37.5304 16.4308C38.2027 16.4308 39.2528 16.5055 39.8109 16.2682C41.072 15.741 41.4894 13.6538 40.5359 13.1353C40.2503 12.9815 39.8065 12.9903 39.4462 12.9903C39.143 12.9903 38.4839 12.9552 38.2203 12.9991L37.5304 16.4308ZM66.0781 14.9017L66.2715 13.8867H65.6168L65.1027 16.4352C65.7969 16.4352 65.753 16.4879 65.7881 16.3078L65.8892 15.7937C65.9595 15.451 65.9859 15.4773 66.1528 15.24C66.2583 15.0863 66.3901 14.9061 66.5087 14.7787C66.5747 14.7084 66.8075 14.392 66.9745 14.4755C67.0756 14.6073 66.8998 15.24 66.8647 15.429C66.8031 15.7585 66.7153 16.1013 66.6669 16.4308H67.2909C67.3392 16.3298 67.348 16.2375 67.37 16.1188C67.4754 15.5696 67.4315 15.6091 67.7083 15.2313C67.7962 15.1082 68.3542 14.3261 68.5388 14.4755C68.6574 14.5722 68.2795 16.0925 68.2312 16.4308H68.8771C68.943 16.2946 69.0836 15.4378 69.1276 15.2225C69.1979 14.8841 69.378 14.2909 69.2066 14.0097C68.9738 13.6318 68.4553 13.8867 68.2312 14.0976C68.073 14.2426 67.6424 14.7699 67.6248 14.9105C67.6072 14.6644 67.7874 14.3744 67.6731 14.0668C67.5853 13.8164 67.3084 13.7593 67.0097 13.8735C66.6186 14.0229 66.289 14.515 66.0737 14.8973L66.0781 14.9017ZM55.3436 15.9035C55.1942 16.031 54.9218 16.1013 54.6845 16.0617C53.9463 15.9343 54.0298 14.9369 54.7504 14.7303C54.8383 14.9281 54.9306 15.1346 55.0317 15.3279C55.1107 15.4773 55.2997 15.7805 55.3436 15.9035ZM55.2074 14.1767C55.1591 13.9702 55.08 13.7505 55.181 13.5396C55.2513 13.3946 55.4711 13.2364 55.6688 13.3726C55.928 13.5484 55.638 14.0273 55.2074 14.1767ZM54.6098 14.3612C54.2803 14.537 54.0562 14.5634 53.7662 14.8929C53.1203 15.6223 53.7178 16.7911 55.0668 16.444C55.2821 16.3869 55.4227 16.277 55.5765 16.2331C55.6029 16.3122 55.6468 16.3473 55.6776 16.4264H56.4553C56.4245 16.3649 56.4553 16.4176 56.407 16.3517C56.3894 16.3254 56.3762 16.3122 56.3586 16.2858L56.0818 15.8552C56.2268 15.6838 56.3542 15.6575 56.552 15.2796C56.6486 15.0994 56.8068 14.7611 56.798 14.5062H56.2576C56.2048 14.7216 56.2136 14.8709 56.1345 15.0906C56.0906 15.2137 56.0247 15.3191 55.9456 15.4246L55.8445 15.5213C55.7654 15.3191 55.4315 14.8182 55.3568 14.5414C55.4227 14.4887 55.5238 14.4623 55.6029 14.4228C55.8621 14.2953 56.0686 14.1635 56.218 13.9043C56.4685 13.4781 56.2664 13.0782 55.8797 12.9508C55.4315 12.8014 54.9394 12.9947 54.7197 13.2232C54.355 13.6055 54.4516 13.8559 54.601 14.3569L54.6098 14.3612ZM18.5747 15.9563L18.7857 14.8753C19.2251 14.8753 19.704 15.0116 19.6161 15.5081C19.5326 15.9694 19.0581 15.9563 18.5747 15.9563ZM18.8867 14.4228L19.0669 13.4737C19.4755 13.4517 19.9852 13.4649 19.7611 13.9922C19.6161 14.3305 19.3437 14.4184 18.8867 14.4184V14.4228ZM17.7882 16.4308C18.1969 16.444 18.6275 16.4308 19.0361 16.4308C19.4448 16.4308 19.7919 16.3869 20.0336 16.154C20.4466 15.7454 20.4905 15.1741 20.0599 14.8578C19.9105 14.7479 19.7699 14.7216 19.6513 14.6381C19.9632 14.5238 20.1698 14.392 20.3367 14.1899C20.6267 13.834 20.763 13.0431 19.6249 12.9947C19.2602 12.9771 18.834 12.9815 18.4693 12.9947L17.7882 16.4308ZM61.2184 14.3964H59.8343L60.1067 12.9947H59.4256C59.3641 13.0343 59.4081 12.9771 59.3773 13.065L59.0521 14.6908C58.9379 15.2444 58.7929 15.8728 58.7094 16.4308H59.4256C59.4915 15.9782 59.6102 15.5125 59.6981 15.0599C59.7376 14.8578 59.6937 14.8622 59.9046 14.8666H61.1437L60.8449 16.4308H61.5655C61.6402 15.9211 62.2466 13.1617 62.229 12.9903C62.0357 12.9903 61.8379 12.9903 61.6446 12.9903C61.5128 12.9903 61.5216 12.9947 61.4996 13.1265C61.482 13.2144 61.4644 13.3023 61.4469 13.3902C61.4117 13.5615 61.381 13.7285 61.3458 13.9043C61.3194 14.0317 61.315 14.3129 61.2184 14.3964ZM43.9896 16.4308H44.6662C44.7234 16.3254 44.9079 15.3103 44.9387 15.1258L45.1408 15.451C45.2287 15.6091 45.6725 16.4132 45.734 16.4308H46.4678C46.3887 16.2155 45.7164 15.1917 45.6637 14.9896C45.7208 14.9456 45.7428 14.9061 45.7999 14.8578L46.727 13.8823C46.6084 13.8735 46.4897 13.8779 46.3667 13.8779C46.1909 13.8779 46.1602 13.8515 46.0679 13.9482L44.9518 15.0775L45.4088 12.7618H44.7234L43.9896 16.4264V16.4308ZM26.976 14.3393C26.9673 14.5326 26.9189 14.7479 26.8091 14.8973C26.6948 15.0555 25.8512 16.2419 25.7106 15.7585C25.6315 15.4729 25.9347 14.849 26.0533 14.6644C26.2071 14.4272 26.5718 14.0756 26.976 14.3393ZM26.7651 15.407L26.5718 16.4264H27.2265C27.2924 16.4088 27.4814 15.3147 27.5077 15.1829C27.5912 14.7611 27.7011 14.3041 27.7626 13.8779C27.5824 13.8779 27.4067 13.8779 27.2265 13.8779C26.9014 13.8779 26.563 13.667 25.9786 14.0625C25.4162 14.4403 24.7791 15.5696 25.0691 16.1584C25.1877 16.3957 25.3942 16.567 25.7413 16.4572C25.8907 16.4088 26.1192 16.2638 26.2071 16.154C26.2642 16.0881 26.2906 16.0793 26.3433 16.0178C26.4971 15.8508 26.6289 15.6267 26.7651 15.407ZM70.4457 15.8552C70.2392 15.5213 70.7533 14.0053 71.5662 14.2865C71.7024 14.3349 71.6673 14.3525 71.6365 14.5062C71.6145 14.6029 71.6058 14.7259 71.5618 14.7962C71.4827 14.9369 71.3553 15.0863 71.2586 15.2181C71.0873 15.4422 70.7621 15.9123 70.4457 15.8596V15.8552ZM71.4476 15.4202L71.2542 16.4264H71.9002C71.9441 16.4176 71.9529 16.3737 71.9661 16.3078L72.1902 15.1697C72.2692 14.7655 72.4011 14.269 72.445 13.8735C72.2693 13.8735 72.0979 13.8735 71.9221 13.8735C71.5838 13.8735 71.2411 13.6626 70.6698 14.0537C70.0898 14.4491 69.4747 15.53 69.7383 16.132C70.0195 16.7735 70.6303 16.4352 71.0038 16.0222C71.0961 15.9211 71.1488 15.8596 71.2367 15.7366C71.307 15.6355 71.3597 15.5037 71.4432 15.4158L71.4476 15.4202ZM34.8589 14.3261C34.8852 14.515 34.7886 14.7611 34.7095 14.8797C34.5996 15.0423 33.7735 16.2111 33.6066 15.7805C33.5055 15.5169 33.9669 13.8999 34.8589 14.3261ZM34.6479 15.3938L34.4546 16.4264H35.1357L35.6498 13.8735C35.4696 13.8735 35.2895 13.8735 35.1137 13.8735C34.7886 13.8735 34.437 13.6626 33.8658 14.0581C33.2551 14.4799 32.6707 15.5696 32.9519 16.1584C33.0617 16.3913 33.277 16.5626 33.6241 16.4484C33.8702 16.3693 34.1119 16.1496 34.2261 16.009C34.292 15.9299 34.6348 15.4993 34.6436 15.3938H34.6479ZM48.902 14.3349C48.8933 14.5282 48.8449 14.7391 48.7351 14.8929C48.6208 15.0511 47.7772 16.2463 47.6366 15.7585C47.5223 15.3587 48.1551 13.8515 48.902 14.3349ZM48.6911 15.4026C48.4802 15.7893 48.0935 16.3122 47.6629 16.4528C47.3202 16.5626 47.1005 16.3913 46.9907 16.154C46.705 15.552 47.3466 14.414 47.9046 14.0581C48.5329 13.6538 48.7834 13.8735 49.1525 13.8735C49.3326 13.8735 49.5084 13.8735 49.693 13.8735L49.1789 16.4264H48.4978L48.6955 15.4026H48.6911ZM29.0764 14.9105L29.2697 13.8735H28.5755L28.0702 16.4264H28.76C28.7864 16.2155 28.8479 15.9651 28.8918 15.7585C28.9665 15.385 29.3005 15.0467 29.5246 14.7567C29.5597 14.7084 29.674 14.5941 29.7267 14.5502C29.797 14.4887 29.898 14.4315 30.0123 14.4667C30.0826 14.704 29.7311 16.0573 29.6784 16.4264H30.3506C30.4297 16.2946 30.5615 15.4422 30.6055 15.2225C30.6714 14.9017 30.8603 14.2822 30.6758 14.0053C30.4385 13.645 29.9332 13.8515 29.6915 14.0844C29.5377 14.2338 29.0852 14.7523 29.072 14.9061L29.0764 14.9105ZM63.1122 15.095C63.2264 14.4535 63.7801 14.1152 63.9734 14.3481C64.1404 14.5546 63.9383 15.0775 63.1122 15.095ZM64.6589 15.6619C64.6589 15.7102 64.6193 16.154 64.5051 16.2155C63.9163 16.5407 62.1455 16.8351 62.396 15.3543C62.5102 14.6776 63.0243 13.9878 63.7449 13.8428C64.8478 13.6187 64.9577 14.6688 64.1492 15.1961C63.8372 15.4026 63.4989 15.4861 63.0682 15.5213C63.0375 15.9563 63.389 16.0749 63.7933 15.9958C64.158 15.9211 64.3864 15.8025 64.6633 15.6619H64.6589ZM41.9947 15.0863C42.043 14.8534 42.1529 14.6381 42.2671 14.5019C42.7153 13.9702 43.2338 14.4975 42.6582 14.9149C42.5 15.0335 42.2408 15.1126 41.9947 15.0863ZM43.5458 15.6575C43.5458 15.7541 43.515 15.8596 43.4974 15.9519C43.4491 16.2023 43.4974 16.2375 42.8691 16.3913C41.9991 16.6066 41.0895 16.444 41.2785 15.3455C41.3927 14.6732 41.9156 13.979 42.6318 13.8384C43.7611 13.6187 43.805 14.7128 43.0361 15.1961C42.7417 15.3807 42.3726 15.4905 41.9508 15.5169C41.8761 16.3605 43.1152 15.9211 43.5502 15.6531L43.5458 15.6575ZM21.5187 15.095C21.5627 14.8578 21.6901 14.6205 21.8043 14.4931C22.2833 13.957 22.7227 14.5282 22.1998 14.9105C22.0065 15.0511 21.8131 15.0906 21.5231 15.095H21.5187ZM23.0654 15.6619C23.0654 15.7629 23.0346 15.8596 23.0171 15.9607C23.0083 16.009 22.9995 16.0749 22.9907 16.1144C22.9687 16.2067 22.9907 16.1804 22.9116 16.2199C22.793 16.2814 22.5293 16.3649 22.3887 16.4001C20.5081 16.8482 20.4729 15.3763 21.2595 14.3876L21.4396 14.2075C22.0152 13.6978 23.0083 13.6626 23.0742 14.2997C23.1225 14.7523 22.7974 15.0467 22.5557 15.2093C22.2701 15.4026 21.8878 15.5037 21.4704 15.53C21.4396 15.9651 21.7911 16.0837 22.1954 16.0046C22.5645 15.9299 22.7842 15.8069 23.0654 15.6707V15.6619ZM50.6377 13.4429L50.5366 13.8779C50.128 13.8779 50.1719 13.8252 50.1192 14.08C50.1016 14.1547 50.0796 14.2338 50.0752 14.3041L50.4531 14.3129C50.3345 15.1434 49.8555 16.1935 50.4751 16.422C50.6596 16.4879 51.1254 16.5187 51.2792 16.4001C51.3187 16.3561 51.2924 16.4001 51.3187 16.321L51.3846 15.9694C50.7871 16.1144 50.8398 15.8684 50.9365 15.3719C50.9892 15.1082 51.0683 14.5458 51.1518 14.3217L51.6659 14.3085L51.7581 13.8779H51.244L51.3363 13.355L50.6464 13.4429H50.6377ZM73.2887 13.8735H72.9108L72.8229 14.3041H73.2052C73.0953 15.1741 72.5944 16.176 73.2359 16.4176C73.4337 16.4923 73.8511 16.4879 74.0444 16.4001L74.1367 15.9694C73.5303 16.0749 73.5787 15.886 73.6885 15.3587L73.8687 14.4315C73.9038 14.269 73.8511 14.3041 74.4179 14.3041L74.5058 13.8735H73.9873L74.0796 13.355C73.8862 13.3726 73.6885 13.4034 73.4952 13.4253C73.3502 13.4429 73.3721 13.4517 73.3458 13.5923C73.3282 13.6934 73.315 13.7768 73.2843 13.8735H73.2887ZM30.2364 17.3184C30.2012 17.2393 30.2759 16.9888 30.2979 16.8526C30.6494 16.9405 30.935 17.1075 31.1987 16.7999C31.3656 16.6066 31.4096 16.1716 31.4711 15.8684C31.5502 15.4685 31.827 14.1811 31.8622 13.8779H32.552L32.0555 16.3385C31.7963 17.2349 31.1108 17.5864 30.2408 17.3228L30.2364 17.3184ZM23.5136 16.4308C23.6366 15.574 23.975 14.1372 24.1595 13.1617C24.1727 13.087 24.1903 13.0079 24.2034 12.9332C24.243 12.7267 24.1463 12.7399 24.9197 12.7618C24.9153 12.9596 24.2122 16.3781 24.1815 16.4308H23.5136ZM31.9544 13.4473H32.6355L32.7629 12.8453H32.0775L31.9588 13.4473H31.9544Z" fill="#00A758"/>
</g>
<defs>
<clipPath id="clip0_1801_11770">
<rect width="80" height="17.4082" fill="white"/>
</clipPath>
</defs>
</svg>
