<svg width="80" height="62" viewBox="0 0 80 62" fill="none" xmlns="http://www.w3.org/2000/svg">
<g clip-path="url(#clip0_1801_17897)">
<path d="M14.4201 56.617H9.42566L4.93947 49.9319L4.13284 51.0589V56.617H0.000244141V40.1639H4.13284V47.4678L9.39251 40.1639H14.177L8.30964 47.7993L14.4201 56.617Z" fill="#0060AF"/>
<path d="M18.9321 56.617H15.0647V39.4236H18.9321V56.617Z" fill="#0060AF"/>
<path d="M25.2894 56.617H21.422V44.2081H25.2894V56.617ZM25.3999 42.4402H21.3115V39.4236H25.3999V42.4402Z" fill="#0060AF"/>
<path d="M40.1991 56.617H35.6025L32.2433 51.2136L31.6467 52.0203V56.617H27.7792V39.4236H31.6467V49.0589L35.3152 44.2081H39.8787L35.5362 49.5562L40.1991 56.617Z" fill="#0060AF"/>
<path d="M53.8271 45.3573C53.8271 46.1234 53.7056 46.8527 53.4625 47.5451C53.2194 48.2376 52.8695 48.8158 52.4128 49.2799C52.1328 49.5672 51.8234 49.8324 51.4846 50.0755C51.1531 50.3186 50.7848 50.5249 50.3796 50.6943C49.9745 50.8637 49.5325 50.9963 49.0537 51.0921C48.5822 51.1879 48.0518 51.2357 47.4625 51.2357H45.2967V56.617H41.1641V40.1639H47.5509C48.5012 40.1639 49.3188 40.2523 50.0039 40.4291C50.6964 40.5985 51.3225 40.8711 51.8824 41.2468C52.5012 41.6593 52.98 42.2118 53.3188 42.9042C53.6577 43.5893 53.8271 44.407 53.8271 45.3573ZM49.584 45.4567C49.584 44.9926 49.4735 44.5949 49.2525 44.2634C49.0316 43.9245 48.7664 43.6925 48.457 43.5672C48.0665 43.3978 47.6909 43.302 47.3299 43.2799C46.9763 43.2505 46.4938 43.2357 45.8824 43.2357H45.2967V48.1639H45.584C45.9745 48.1639 46.3428 48.1602 46.689 48.1529C47.0352 48.1455 47.3373 48.1197 47.5951 48.0755C47.8161 48.0387 48.0481 47.9687 48.2912 47.8656C48.5417 47.7551 48.7332 47.6335 48.8658 47.5009C49.1457 47.2284 49.3336 46.9448 49.4293 46.6501C49.5325 46.3554 49.584 45.9577 49.584 45.4567Z" fill="#0060AF"/>
<path d="M62.1844 53.3794V50.7937C61.5288 50.86 60.9984 50.919 60.5932 50.9705C60.1881 51.0147 59.7903 51.1068 59.3999 51.2468C59.061 51.3647 58.7958 51.5451 58.6043 51.7882C58.4201 52.024 58.3281 52.3407 58.3281 52.7385C58.3281 53.3205 58.4827 53.7219 58.7921 53.9429C59.1089 54.1565 59.573 54.2634 60.1844 54.2634C60.5233 54.2634 60.8695 54.186 61.2231 54.0313C61.5767 53.8766 61.8971 53.6593 62.1844 53.3794ZM62.1844 55.302C61.9192 55.523 61.6798 55.7219 61.4662 55.8987C61.2599 56.0755 60.98 56.2523 60.6264 56.4291C60.2802 56.5985 59.9413 56.7274 59.6098 56.8158C59.2857 56.9042 58.829 56.9484 58.2396 56.9484C57.142 56.9484 56.2286 56.5801 55.4993 55.8435C54.7774 55.1068 54.4164 54.1786 54.4164 53.0589C54.4164 52.1381 54.6006 51.3941 54.9689 50.8269C55.3373 50.2597 55.8676 49.8103 56.5601 49.4788C57.2599 49.14 58.096 48.9042 59.0684 48.7716C60.0408 48.6391 61.0868 48.5359 62.2065 48.4623V48.396C62.2065 47.7109 61.9524 47.2394 61.4441 46.9816C60.9431 46.7164 60.1881 46.5838 59.1789 46.5838C58.7222 46.5838 58.1881 46.6685 57.5767 46.8379C56.9652 47 56.3686 47.21 55.7866 47.4678H55.4551V44.4733C55.8382 44.3628 56.457 44.2339 57.3115 44.0866C58.166 43.9319 59.0279 43.8545 59.8971 43.8545C62.0334 43.8545 63.5877 44.2118 64.5601 44.9263C65.5398 45.6335 66.0297 46.7164 66.0297 48.175V56.617H62.1844V55.302Z" fill="#0060AF"/>
<path d="M80.0002 44.2081L73.7351 61.1694H69.5804L71.4588 56.3186L66.9063 44.2081H70.9726L73.5804 51.9871L76.0223 44.2081H80.0002Z" fill="#0060AF"/>
<path d="M56.3014 3.16096L51.9568 11.0465C50.3169 9.71496 48.3145 8.73486 45.7596 8.73486C39.7136 8.73486 37.2578 13.2417 37.2578 16.4163C37.2578 18.7727 38.8008 22.2496 44.1804 22.2496C46.4384 22.2496 49.6486 20.6786 50.5725 19.964L46.2756 29.1125C44.2274 29.5211 43.5547 29.7745 41.8208 29.8281C32.1922 30.1155 28.3013 24.2006 28.3042 18.1565C28.3106 10.1664 35.4145 0.449252 47.1909 0.449252C47.9126 0.449252 48.7952 0.698802 49.5499 0.975338L50.3125 0" fill="#0060AF"/>
<path d="M74.2279 0.247314L75.4582 28.908H66.3023L66.2969 23.9926H60.0537L57.9989 28.908H48.0693L58.4504 8.44181L56.1095 8.42657L60.5573 0.247314H74.2279ZM66.2376 9.01521L62.7077 17.3516H66.3439" fill="#0060AF"/>
<path d="M22.524 0.247373C27.0581 0.272771 29.6203 2.73398 29.6203 6.28927C29.6203 9.56675 26.9181 12.468 23.9518 13.9682C27.0057 15.0908 27.2699 17.8466 27.2699 19.7964C27.2699 24.5067 22.5434 28.9081 16.3996 28.9081H3.00073L8.2273 8.72697L6.08041 8.71459L10.4691 0.247373C10.4691 0.247373 18.837 0.221973 22.524 0.247373V0.247373ZM18.0756 11.8676C19.0135 11.8676 20.6695 11.6301 21.0835 9.81501C21.5372 7.84467 19.9831 7.79164 19.2376 7.79164L16.5739 7.77997L15.6449 11.8677L18.0756 11.8676ZM14.3095 16.9323L13.083 21.6426H16.2196C17.4536 21.6426 19.1354 21.0301 19.5475 19.4973C19.9545 17.96 18.7789 16.9323 17.5492 16.9323" fill="#0060AF"/>
</g>
<defs>
<clipPath id="clip0_1801_17897">
<rect width="80" height="61.1694" rx="8" fill="white"/>
</clipPath>
</defs>
</svg>
