<svg width="80" height="31" viewBox="0 0 80 31" fill="none" xmlns="http://www.w3.org/2000/svg">
<g clip-path="url(#clip0_1801_20148)">
<rect width="80" height="30.2835" fill="#1B5196"/>
<path d="M17.9016 14.1698C18.0207 14.0507 18.1614 13.8973 18.3237 13.7095C18.4856 13.5218 18.639 13.3001 18.784 13.0441C18.9289 12.7882 19.0527 12.5029 19.1548 12.1872C19.2574 11.8719 19.3087 11.5349 19.3087 11.1768C19.3087 10.478 19.1892 9.82571 18.9506 9.22008C18.7115 8.61487 18.3449 8.08595 17.8503 7.63374C17.3557 7.18238 16.7378 6.82807 15.9957 6.57209C15.254 6.31653 14.3882 6.18854 13.3994 6.18854H13.3723H10.5294H9.78939H6.8761V9.44936V20.7381V24.0951H14.039C15.079 24.0951 15.9868 23.9544 16.7632 23.673C17.5388 23.3916 18.183 23.0038 18.6946 22.5092C19.2061 22.0146 19.5854 21.4391 19.8329 20.7826C20.08 20.1261 20.2038 19.4225 20.2038 18.672C20.2038 17.6658 19.9736 16.7707 19.5134 15.9858C19.0527 15.2018 18.5153 14.5962 17.9016 14.1698ZM14.7345 9.4697C14.9756 9.56167 15.1769 9.68119 15.3341 9.83164C15.7414 10.2224 15.9453 10.6894 15.9453 11.2328C15.9453 11.7257 15.8601 12.1329 15.6906 12.4555C15.5206 12.7784 15.3507 13.0247 15.1812 13.1942H10.2018V9.25822H13.2969C13.8771 9.25822 14.3547 9.32984 14.7345 9.4697V9.4697ZM14.2178 16.2931C15.1193 16.2931 15.7872 16.5266 16.222 16.9928C16.631 17.4518 16.837 17.9934 16.837 18.6203C16.837 19.2662 16.6035 19.8175 16.1364 20.2761C15.669 20.7347 14.901 20.9644 13.8309 20.9644H13.4312H10.2018V16.2931H14.2178Z" fill="white"/>
<path d="M32.348 16.3825C32.8849 16.0159 33.3329 15.5896 33.691 15.1035C34.0491 14.6173 34.3132 14.0804 34.484 13.4921C34.6543 12.9034 34.74 12.3025 34.74 11.6884C34.74 10.8869 34.6073 10.1495 34.3433 9.47564C34.0784 8.8022 33.6821 8.22242 33.1536 7.73631C32.6247 7.25019 31.964 6.87088 31.171 6.59794C30.3781 6.32543 29.4614 6.18854 28.4213 6.18854H28.3277H21.4377H21.3733V24.0951H24.7634V17.4442H26.6536L31.3287 24.0951H35.3024L30.4679 17.2141C31.1837 17.0267 31.8106 16.7496 32.348 16.3825ZM28.4467 9.25822C28.6599 9.25822 28.8612 9.27221 29.0528 9.29636C29.6572 9.38748 30.1509 9.6032 30.5315 9.94607C31.0494 10.4135 31.3083 10.9865 31.3083 11.6655C31.3083 12.0058 31.2528 12.3368 31.1426 12.6593C31.032 12.9823 30.8582 13.2667 30.6205 13.5125C30.3823 13.7591 30.0767 13.9583 29.7034 14.1113C29.3295 14.2643 28.8795 14.3406 28.3531 14.3406H24.7634V9.25822H28.4467Z" fill="white"/>
<path d="M36.4995 6.18853V6.19362C36.4652 6.19277 36.4317 6.18853 36.3973 6.18853H36.3685V6.1898V12.7534V17.4565V24.0951H39.8252V6.18853H36.4995Z" fill="white"/>
<path d="M49.0323 14.4816H47.3169V13.6126C47.1062 13.8985 46.8504 14.1355 46.5495 14.3236C46.2561 14.5042 45.8836 14.5945 45.4322 14.5945C45.0786 14.5945 44.7363 14.5267 44.4053 14.3913C44.0742 14.2559 43.7808 14.0565 43.525 13.7932C43.2692 13.5223 43.0623 13.1951 42.9043 12.8114C42.7538 12.4201 42.6786 11.9725 42.6786 11.4684V11.4458C42.6786 10.9418 42.7538 10.4979 42.9043 10.1142C43.0623 9.72294 43.2654 9.39567 43.5137 9.13234C43.7695 8.86149 44.0629 8.65836 44.394 8.52293C44.725 8.38751 45.0711 8.31979 45.4322 8.31979C45.8912 8.31979 46.2673 8.41008 46.5608 8.59064C46.8617 8.77121 47.1137 8.98187 47.3169 9.22262V6.24329H49.0323V14.4816ZM47.3394 11.4684V11.4458C47.3394 11.1976 47.2981 10.9719 47.2153 10.7687C47.1401 10.5581 47.0347 10.3813 46.8993 10.2383C46.7714 10.0878 46.6172 9.97498 46.4366 9.89975C46.2636 9.81699 46.0755 9.77561 45.8723 9.77561C45.6692 9.77561 45.4774 9.81699 45.2968 9.89975C45.1238 9.97498 44.9695 10.0878 44.8341 10.2383C44.6987 10.3813 44.5896 10.5543 44.5068 10.7574C44.4316 10.9606 44.394 11.19 44.394 11.4458V11.4684C44.394 11.7167 44.4316 11.9462 44.5068 12.1568C44.5896 12.36 44.6987 12.5368 44.8341 12.6872C44.9695 12.8302 45.1238 12.943 45.2968 13.0258C45.4774 13.101 45.6692 13.1386 45.8723 13.1386C46.0755 13.1386 46.2636 13.101 46.4366 13.0258C46.6172 12.943 46.7714 12.8302 46.8993 12.6872C47.0347 12.5368 47.1401 12.36 47.2153 12.1568C47.2981 11.9462 47.3394 11.7167 47.3394 11.4684Z" fill="#E47539"/>
<path d="M51.9342 7.76681H50.1285V6.24329H51.9342V7.76681ZM51.889 14.4816H50.1736V8.43265H51.889V14.4816Z" fill="#E47539"/>
<path d="M56.675 10.1142H56.5848C56.013 10.1142 55.5615 10.2872 55.2305 10.6333C54.907 10.9794 54.7452 11.5173 54.7452 12.2471V14.4816H53.0299V8.43265H54.7452V9.65147C54.9183 9.23767 55.1553 8.90663 55.4562 8.65836C55.7572 8.41008 56.1634 8.29722 56.675 8.31979V10.1142Z" fill="#E47539"/>
<path d="M62.9193 11.6264C62.9193 11.7092 62.9155 11.7806 62.908 11.8408C62.908 11.901 62.9042 11.9725 62.8967 12.0553H58.6872C58.77 12.4465 58.9393 12.7437 59.1951 12.9468C59.4584 13.1424 59.7819 13.2402 60.1656 13.2402C60.4515 13.2402 60.7073 13.1913 60.933 13.0935C61.1587 12.9957 61.392 12.8377 61.6327 12.6195L62.6146 13.4885C62.3287 13.8421 61.9826 14.1205 61.5763 14.3236C61.17 14.5192 60.6923 14.617 60.1431 14.617C59.6916 14.617 59.2703 14.5418 58.8791 14.3913C58.4954 14.2409 58.1606 14.0264 57.8747 13.7481C57.5963 13.4697 57.3781 13.1424 57.2201 12.7662C57.0621 12.3825 56.9832 11.9574 56.9832 11.491V11.4684C56.9832 11.0396 57.0546 10.6333 57.1976 10.2496C57.348 9.86589 57.5549 9.53109 57.8183 9.24519C58.0816 8.9593 58.3938 8.73359 58.755 8.56807C59.1236 8.40255 59.5299 8.31979 59.9738 8.31979C60.4779 8.31979 60.9142 8.41008 61.2829 8.59064C61.6515 8.77121 61.9562 9.01573 62.197 9.32419C62.4453 9.62514 62.6258 9.97498 62.7387 10.3737C62.8591 10.765 62.9193 11.175 62.9193 11.6038V11.6264ZM61.249 10.9831C61.1964 10.5994 61.0609 10.291 60.8427 10.0577C60.6246 9.81699 60.3349 9.69661 59.9738 9.69661C59.6126 9.69661 59.3192 9.81322 59.0935 10.0465C58.8753 10.2797 58.7324 10.5919 58.6647 10.9831H61.249Z" fill="#E47539"/>
<path d="M69.0541 13.5111C68.7607 13.8346 68.4259 14.1017 68.0498 14.3123C67.6736 14.5155 67.1845 14.617 66.5827 14.617C66.1312 14.617 65.7099 14.5343 65.3187 14.3688C64.935 14.2032 64.604 13.9813 64.3256 13.7029C64.0472 13.417 63.829 13.086 63.671 12.7098C63.513 12.3261 63.434 11.9198 63.434 11.491V11.4684C63.434 11.0396 63.513 10.6333 63.671 10.2496C63.829 9.86589 64.0472 9.53109 64.3256 9.24519C64.604 8.9593 64.935 8.73359 65.3187 8.56807C65.7099 8.40255 66.1388 8.31979 66.6052 8.31979C67.177 8.31979 67.651 8.41008 68.0272 8.59064C68.4034 8.77121 68.7344 9.01949 69.0203 9.33548L67.9708 10.464C67.7751 10.2609 67.572 10.0991 67.3613 9.97874C67.1582 9.85837 66.9024 9.79818 66.5939 9.79818C66.3758 9.79818 66.1764 9.84332 65.9958 9.9336C65.8228 10.0164 65.6685 10.133 65.5331 10.2834C65.4052 10.4339 65.3036 10.6107 65.2284 10.8139C65.1607 11.0095 65.1268 11.2201 65.1268 11.4458V11.4684C65.1268 11.7016 65.1607 11.9198 65.2284 12.123C65.3036 12.3261 65.409 12.5029 65.5444 12.6534C65.6798 12.8038 65.8416 12.9242 66.0297 13.0145C66.2178 13.0973 66.4284 13.1386 66.6616 13.1386C66.9475 13.1386 67.1958 13.0822 67.4065 12.9694C67.6247 12.849 67.8391 12.691 68.0498 12.4954L69.0541 13.5111Z" fill="#E47539"/>
<path d="M73.1013 14.2333C72.9208 14.3387 72.7214 14.4214 72.5032 14.4816C72.285 14.5493 72.033 14.5832 71.7471 14.5832C71.4838 14.5832 71.243 14.5531 71.0248 14.4929C70.8142 14.4402 70.6298 14.3424 70.4718 14.1995C70.3214 14.0565 70.201 13.8722 70.1107 13.6465C70.028 13.4133 69.9866 13.1198 69.9866 12.7662V9.89975H69.2643V8.43265H69.9866V6.88655H71.7019V8.43265H73.1239V9.89975H71.7019V12.4841C71.7019 12.8753 71.8863 13.0709 72.2549 13.0709C72.5559 13.0709 72.838 12.9995 73.1013 12.8565V14.2333Z" fill="#E47539"/>
<path d="M49.0323 23.9048H47.3169V23.0358C47.1062 23.3217 46.8504 23.5587 46.5495 23.7468C46.2561 23.9274 45.8836 24.0177 45.4322 24.0177C45.0786 24.0177 44.7363 23.9499 44.4053 23.8145C44.0742 23.6791 43.7808 23.4797 43.525 23.2164C43.2692 22.9455 43.0623 22.6183 42.9043 22.2346C42.7538 21.8433 42.6786 21.3957 42.6786 20.8916V20.869C42.6786 20.365 42.7538 19.9211 42.9043 19.5374C43.0623 19.1461 43.2654 18.8189 43.5137 18.5555C43.7695 18.2847 44.0629 18.0815 44.394 17.9461C44.725 17.8107 45.0711 17.743 45.4322 17.743C45.8912 17.743 46.2673 17.8333 46.5608 18.0138C46.8617 18.1944 47.1137 18.4051 47.3169 18.6458V15.6665H49.0323V23.9048ZM47.3394 20.8916V20.869C47.3394 20.6208 47.2981 20.395 47.2153 20.1919C47.1401 19.9813 47.0347 19.8044 46.8993 19.6615C46.7714 19.511 46.6172 19.3982 46.4366 19.3229C46.2636 19.2402 46.0755 19.1988 45.8723 19.1988C45.6692 19.1988 45.4774 19.2402 45.2968 19.3229C45.1238 19.3982 44.9695 19.511 44.8341 19.6615C44.6987 19.8044 44.5896 19.9775 44.5068 20.1806C44.4316 20.3838 44.394 20.6132 44.394 20.869V20.8916C44.394 21.1399 44.4316 21.3694 44.5068 21.58C44.5896 21.7831 44.6987 21.96 44.8341 22.1104C44.9695 22.2534 45.1238 22.3662 45.2968 22.449C45.4774 22.5242 45.6692 22.5618 45.8723 22.5618C46.0755 22.5618 46.2636 22.5242 46.4366 22.449C46.6172 22.3662 46.7714 22.2534 46.8993 22.1104C47.0347 21.96 47.1401 21.7831 47.2153 21.58C47.2981 21.3694 47.3394 21.1399 47.3394 20.8916Z" fill="#E47539"/>
<path d="M56.5014 21.0496C56.5014 21.1324 56.4977 21.2038 56.4901 21.264C56.4901 21.3242 56.4864 21.3957 56.4789 21.4784H52.2694C52.3522 21.8697 52.5215 22.1669 52.7773 22.37C53.0406 22.5656 53.3641 22.6634 53.7478 22.6634C54.0337 22.6634 54.2895 22.6145 54.5152 22.5167C54.7409 22.4189 54.9741 22.2609 55.2149 22.0427L56.1967 22.9117C55.9108 23.2653 55.5648 23.5437 55.1585 23.7468C54.7522 23.9424 54.2745 24.0402 53.7252 24.0402C53.2738 24.0402 52.8525 23.965 52.4613 23.8145C52.0776 23.664 51.7428 23.4496 51.4569 23.1712C51.1785 22.8929 50.9603 22.5656 50.8023 22.1894C50.6443 21.8057 50.5653 21.3806 50.5653 20.9142V20.8916C50.5653 20.4628 50.6368 20.0565 50.7798 19.6728C50.9302 19.2891 51.1371 18.9543 51.4004 18.6684C51.6638 18.3825 51.976 18.1568 52.3371 17.9913C52.7058 17.8257 53.1121 17.743 53.556 17.743C54.06 17.743 54.4964 17.8333 54.8651 18.0138C55.2337 18.1944 55.5384 18.4389 55.7792 18.7474C56.0275 19.0483 56.208 19.3982 56.3209 19.7969C56.4412 20.1881 56.5014 20.5982 56.5014 21.027V21.0496ZM54.8312 20.4063C54.7785 20.0226 54.6431 19.7142 54.4249 19.4809C54.2067 19.2402 53.9171 19.1198 53.556 19.1198C53.1948 19.1198 52.9014 19.2364 52.6757 19.4696C52.4575 19.7029 52.3146 20.0151 52.2469 20.4063H54.8312Z" fill="#E47539"/>
<path d="M64.4274 20.8916C64.4274 21.3957 64.3484 21.8433 64.1904 22.2346C64.0399 22.6183 63.8368 22.9455 63.581 23.2164C63.3327 23.4797 63.0431 23.6791 62.712 23.8145C62.381 23.9499 62.0349 24.0177 61.6738 24.0177C61.2148 24.0177 60.8349 23.9274 60.534 23.7468C60.2405 23.5662 59.9923 23.3556 59.7891 23.1148V23.9048H58.0737V15.6665H59.7891V18.7248C59.9998 18.4389 60.2518 18.2057 60.5452 18.0251C60.8462 17.837 61.2224 17.743 61.6738 17.743C62.0274 17.743 62.3697 17.8107 62.7007 17.9461C63.0318 18.0815 63.3252 18.2847 63.581 18.5555C63.8368 18.8189 64.0399 19.1461 64.1904 19.5374C64.3484 19.9211 64.4274 20.365 64.4274 20.869V20.8916ZM62.712 20.8916V20.869C62.712 20.6208 62.6707 20.395 62.5879 20.1919C62.5127 19.9813 62.4073 19.8044 62.2719 19.6615C62.1365 19.511 61.9785 19.3982 61.7979 19.3229C61.6249 19.2402 61.4368 19.1988 61.2337 19.1988C61.0305 19.1988 60.8387 19.2402 60.6581 19.3229C60.4851 19.3982 60.3308 19.511 60.1954 19.6615C60.0675 19.8044 59.9622 19.9813 59.8794 20.1919C59.8042 20.395 59.7666 20.6208 59.7666 20.869V20.8916C59.7666 21.1399 59.8042 21.3694 59.8794 21.58C59.9622 21.7831 60.0675 21.96 60.1954 22.1104C60.3308 22.2534 60.4851 22.3662 60.6581 22.449C60.8387 22.5242 61.0305 22.5618 61.2337 22.5618C61.4368 22.5618 61.6249 22.5242 61.7979 22.449C61.9785 22.3662 62.1365 22.2534 62.2719 22.1104C62.4073 21.96 62.5127 21.7831 62.5879 21.58C62.6707 21.3769 62.712 21.1474 62.712 20.8916Z" fill="#E47539"/>
<path d="M67.8226 17.19H66.0169V15.6665H67.8226V17.19ZM67.7774 23.9048H66.0621V17.8558H67.7774V23.9048Z" fill="#E47539"/>
<path d="M73.0793 23.6565C72.8987 23.7618 72.6994 23.8446 72.4812 23.9048C72.263 23.9725 72.0109 24.0064 71.7251 24.0064C71.4617 24.0064 71.221 23.9763 71.0028 23.9161C70.7921 23.8634 70.6078 23.7656 70.4498 23.6227C70.2993 23.4797 70.179 23.2954 70.0887 23.0697C70.0059 22.8364 69.9645 22.543 69.9645 22.1894V19.3229H69.2423V17.8558H69.9645V16.3097H71.6799V17.8558H73.1019V19.3229H71.6799V21.9073C71.6799 22.2985 71.8642 22.4941 72.2329 22.4941C72.5338 22.4941 72.816 22.4227 73.0793 22.2797V23.6565Z" fill="#E47539"/>
</g>
<defs>
<clipPath id="clip0_1801_20148">
<rect width="80" height="30.2835" rx="8" fill="white"/>
</clipPath>
</defs>
</svg>
