<svg width="80" height="21" viewBox="0 0 80 21" fill="none" xmlns="http://www.w3.org/2000/svg">
<g clip-path="url(#clip0_1801_20212)">
<g clip-path="url(#clip1_1801_20212)">
<mask id="mask0_1801_20212" style="mask-type:luminance" maskUnits="userSpaceOnUse" x="0" y="0" width="80" height="21">
<path d="M80 0H0V20.313H80V0Z" fill="white"/>
</mask>
<g mask="url(#mask0_1801_20212)">
<path d="M4.06299 20.313H75.936C78.1704 20.313 79.999 18.4844 79.999 16.25V4.06299C80 1.82864 78.1714 0 75.936 0H4.06299C1.82864 0 0 1.82864 0 4.06299V16.2491C0 18.4844 1.82864 20.313 4.06299 20.313Z" fill="#00A4DE"/>
</g>
<mask id="mask1_1801_20212" style="mask-type:luminance" maskUnits="userSpaceOnUse" x="0" y="0" width="80" height="21">
<path d="M80 0H0V20.313H80V0Z" fill="white"/>
</mask>
<g mask="url(#mask1_1801_20212)">
<path d="M11.8231 15.2115C13.1489 14.4137 13.9769 13.049 13.9769 11.5678C13.9769 8.2619 10.7719 7.07969 10.7719 7.07969C10.1827 6.73027 9.45476 6.54391 8.65109 6.54391C8.59188 6.54391 8.48414 6.54585 8.42493 6.54585C9.24219 5.92854 10.306 5.54709 11.3805 5.54709C13.8866 5.54709 15.7812 7.94063 15.7812 10.1789C15.7812 12.785 13.9497 14.8077 11.824 15.2125M10.2118 15.2028C8.58314 14.8815 7.24564 13.6391 6.67006 12.1706C7.24175 12.7345 8.05416 13.1198 9.09175 13.1198C10.7476 13.1198 12.3229 11.8415 12.3229 9.9498C12.3229 9.01801 11.9949 8.40943 11.9949 8.40943C12.6869 9.11604 13.1247 10.1061 13.1247 11.3125C13.1247 13.0101 11.8619 14.5923 10.2118 15.2037M8.75591 15.4716C6.81177 15.4716 4.75698 13.5789 4.75698 11.2242C4.75698 10.0711 5.11611 8.92386 6.0246 8.15125C5.86348 8.49097 5.75186 8.89571 5.70721 9.38296C5.68489 9.56058 5.67227 9.74209 5.67227 9.93233C5.67227 12.4773 7.05928 14.5855 9.23151 15.4415C9.07428 15.461 8.91509 15.4716 8.75494 15.4716M8.94324 7.23596C10.3555 7.23596 11.4494 8.63267 11.4494 9.88186C11.4494 11.5698 10.4254 12.6986 8.99371 12.6986C7.71056 12.6986 6.56524 11.5038 6.56524 9.80324C6.56524 8.39876 7.60185 7.23596 8.94324 7.23596ZM10.9582 5.00452C9.6382 5.00452 7.76297 5.57718 6.65647 6.97098C4.90549 7.74068 3.62524 9.45964 3.62524 11.3397C3.62524 14.2554 6.09352 15.9987 9.06845 15.9987C9.55861 15.9987 10.0264 15.889 10.4603 15.7754C10.7806 15.8278 11.1145 15.8541 11.4581 15.8541C14.2661 15.8541 16.7392 13.5644 16.7392 10.572C16.7392 7.57956 14.3001 5.00452 10.9582 5.00452Z" fill="white"/>
<path d="M21.3768 13.5527C21.3768 14.4913 20.7847 15.0203 19.52 15.06V16.4898C20.9536 16.4898 22.7696 15.7074 22.7696 13.5527V6.55164H21.3768V13.5527Z" fill="white"/>
<path d="M25.3796 9.43245C25.4728 8.56278 25.8406 7.79309 26.7608 7.79309C27.6809 7.79309 28.0507 8.56278 28.1449 9.43245H25.3796ZM29.6037 9.56543C29.6037 8.45505 28.9981 6.41772 26.7608 6.41772C24.6429 6.41772 23.9198 8.2056 23.9198 10.0546C23.9198 11.9036 24.6584 13.6935 27.0908 13.6935C27.7489 13.6935 28.5894 13.5343 29.5513 12.8461L28.8418 11.7357C28.2352 12.1201 27.6547 12.3171 27.0908 12.3171C26.0115 12.3171 25.5116 11.5765 25.3932 10.8098H28.3274C29.1951 10.8098 29.6037 10.4652 29.6037 9.56446" fill="white"/>
<path d="M33.395 6.4187C31.6567 6.4187 30.7666 7.86201 30.7666 7.86201V13.6158H32.1585V8.32499C32.1585 8.32499 32.5933 7.79406 33.3941 7.79406C34.2754 7.79406 34.7626 8.523 34.7626 9.1704V13.6158H36.1593V9.1704C36.1593 7.83386 35.2237 6.4187 33.3941 6.4187" fill="white"/>
<path d="M71.74 13.6158C73.4784 13.6158 74.3684 12.1735 74.3684 12.1735V6.41968H72.9766V11.7105C72.9766 11.7105 72.5417 12.2414 71.741 12.2414C70.8597 12.2414 70.3724 11.5125 70.3724 10.8651V6.41968H68.9757V10.8651C68.9757 12.2016 69.9114 13.6168 71.741 13.6168" fill="white"/>
<path d="M39.1012 6.49829H37.7064V13.6148H39.1012V6.49829Z" fill="white"/>
<path d="M49.6479 9.30337H49.6605C49.1849 9.17137 48.5695 8.93454 48.5695 8.44535C48.5695 8.08719 48.9374 7.79407 49.6343 7.79407C50.3312 7.79407 51.1213 8.11243 51.4241 8.25802L51.8735 7.00108C51.4105 6.76328 50.4758 6.41968 49.6343 6.41968C48.4249 6.41968 47.1612 7.0399 47.1612 8.44535C47.1612 9.74015 48.2939 10.3885 49.4111 10.6671C50.0177 10.7981 50.7796 11.0505 50.7796 11.5523C50.7796 12.0822 50.1633 12.32 49.5557 12.32C48.9481 12.32 48.1493 11.9357 47.53 11.6047L46.9904 12.915C47.5815 13.2208 48.4521 13.6682 49.5557 13.6954C50.832 13.6954 52.1744 13.0868 52.1744 11.5533C52.1744 10.0197 50.701 9.56738 49.6479 9.30435" fill="white"/>
<path d="M44.6851 10.9427C44.6851 11.5892 44.2008 12.3132 43.3233 12.3191C42.4517 12.3132 41.9645 11.5892 41.9645 10.9427V6.49829H40.5697V10.9427C40.5697 12.2754 41.4995 13.6847 43.3165 13.6944H43.333C45.151 13.6847 46.077 12.2754 46.077 10.9427V6.49829H44.6841V10.9427H44.6851Z" fill="white"/>
<path d="M61.6185 9.88672C61.6185 11.9163 60.6275 13.3091 58.7794 13.3091H57.076V15.7551C57.076 15.8725 57.0032 15.9502 56.8945 15.9502H55.855C55.7463 15.9502 55.6735 15.8725 55.6735 15.7551C55.6735 15.7551 55.6977 6.32166 55.7463 6.28186H58.8153C60.4829 6.28186 61.6185 7.56987 61.6185 9.88575M60.2169 9.85955C60.2169 7.99888 59.2143 7.66013 58.3805 7.66013H57.075V11.9279H58.3805C59.2143 11.9279 60.2169 11.7066 60.2169 9.85858" fill="white"/>
<path d="M67.781 8.72878V12.5938C67.781 12.6724 67.7325 12.7238 67.6364 12.7762C66.9356 13.0626 66.0057 13.3101 65.0264 13.3101C62.9114 13.3101 62.3805 12.2948 62.3805 11.1893C62.3805 10.2264 62.9124 9.11994 65.0264 9.11994C65.4612 9.11994 65.9329 9.18497 66.3794 9.26262V8.72878C66.3794 8.18232 65.932 7.66207 64.9419 7.66207C64.3499 7.66207 63.6607 7.84455 63.1415 8.05226C63.0211 8.10468 62.9483 8.05226 62.9114 7.93482L62.6697 7.07582C62.6338 6.95838 62.6697 6.86811 62.7784 6.82832C63.4676 6.51578 64.1557 6.28186 64.9293 6.28186C65.932 6.28186 67.781 6.55557 67.781 8.72781M66.3794 10.4972C65.799 10.3798 65.4971 10.3672 65.0264 10.3546C64.5556 10.3419 63.8063 10.3546 63.8063 11.2398C63.8063 12.125 64.5314 12.1114 65.0264 12.0725C65.5214 12.0463 65.7514 12.0201 66.3794 11.8386V10.4982V10.4972Z" fill="white"/>
<path d="M72.9754 13.5527C72.9754 14.4913 72.3834 15.0203 71.1187 15.06V16.4898C72.5523 16.4898 74.3683 15.7074 74.3683 13.5527V6.55164H72.9754V13.5527Z" fill="white"/>
</g>
</g>
</g>
<defs>
<clipPath id="clip0_1801_20212">
<rect width="80" height="20.313" rx="8" fill="white"/>
</clipPath>
<clipPath id="clip1_1801_20212">
<rect width="80" height="20.313" fill="white"/>
</clipPath>
</defs>
</svg>
