<svg width="80" height="37" viewBox="0 0 80 37" fill="none" xmlns="http://www.w3.org/2000/svg">
<g clip-path="url(#clip0_1801_20162)">
<g clip-path="url(#clip1_1801_20162)">
<path d="M33.8712 30.4807C34.0954 30.1597 34.3292 29.8653 34.6311 29.626C35.6126 28.8491 37.0098 28.802 37.951 29.5272C38.5583 29.9955 38.8302 30.6484 38.9406 31.3838C38.989 31.7096 38.9979 32.0381 38.9972 32.3673C38.9958 33.7236 38.9951 35.0792 38.9992 36.4355C38.9992 36.5629 38.976 36.6222 38.8336 36.6086C38.6932 36.595 38.5494 36.5977 38.4083 36.6086C38.2774 36.6188 38.2345 36.58 38.2359 36.4423C38.2427 35.6708 38.24 34.8992 38.2386 34.1277C38.2372 33.3903 38.2434 32.6528 38.227 31.9154C38.2161 31.441 38.1105 30.9823 37.8672 30.5659C37.4678 29.8809 36.8373 29.6199 36.0835 29.6785C35.0605 29.7583 34.3939 30.3471 33.9973 31.2686C33.8848 31.5296 33.8732 31.8098 33.8726 32.0865C33.8685 33.5273 33.8671 34.9688 33.8753 36.4096C33.876 36.58 33.8276 36.6256 33.6674 36.6093C33.5325 36.5956 33.3948 36.599 33.2592 36.6093C33.1412 36.6181 33.1072 36.5691 33.1215 36.4627C33.1242 36.4402 33.1215 36.4171 33.1215 36.3946C33.1215 33.3364 33.1215 30.2783 33.1215 27.2202C33.1215 26.9755 33.0922 27.0096 33.3416 27.0068C33.4663 27.0055 33.5924 27.0164 33.7158 27.0041C33.8507 26.9905 33.8732 27.0457 33.8726 27.1677C33.8678 28.2173 33.8698 29.2669 33.8698 30.3165C33.8698 30.3717 33.8698 30.4276 33.8698 30.4828L33.8712 30.4807Z" fill="#FFCA07"/>
<path d="M3.48268 32.8212C2.63142 32.8212 1.78016 32.8246 0.928892 32.8178C0.783039 32.8164 0.749643 32.8573 0.757821 32.9991C0.792581 33.6029 0.878457 34.1939 1.16267 34.7391C1.59409 35.5692 2.29473 36.0054 3.21006 36.0913C4.00953 36.167 4.79536 36.0852 5.53621 35.7444C5.62345 35.7042 5.65821 35.7253 5.68206 35.8091C5.70592 35.8964 5.73795 35.9816 5.76385 36.0681C5.83814 36.3169 5.87699 36.2651 5.618 36.381C5.16885 36.582 4.6904 36.6754 4.20377 36.7245C3.57333 36.7885 2.9463 36.7858 2.33494 36.5888C1.39848 36.2869 0.716928 35.681 0.364564 34.7711C-0.205899 33.2969 -0.116615 31.8377 0.701252 30.476C1.4646 29.2049 3.02195 28.6896 4.41437 29.1817C5.13273 29.4359 5.60164 29.9525 5.90493 30.6341C6.18164 31.257 6.28047 31.9134 6.26139 32.5895C6.25457 32.8205 6.24844 32.8205 6.02012 32.8205C5.1743 32.8205 4.32849 32.8205 3.48336 32.8205L3.48268 32.8212ZM3.12964 32.2187C3.86708 32.2187 4.60384 32.2167 5.34129 32.2207C5.46056 32.2214 5.50213 32.1942 5.48032 32.0667C5.45034 31.8943 5.45306 31.7164 5.42239 31.544C5.32561 31.0028 5.13137 30.5025 4.70335 30.1359C3.90048 29.4482 2.5878 29.4686 1.79379 30.172C1.23355 30.6682 0.962288 31.3143 0.81848 32.0313C0.783039 32.2064 0.837563 32.2221 0.986824 32.2207C1.70109 32.2146 2.41605 32.218 3.13032 32.218L3.12964 32.2187Z" fill="#FFCA07"/>
<path d="M24.2565 35.5611C23.9519 35.9802 23.5702 36.3108 23.0911 36.5207C22.479 36.7892 21.8445 36.854 21.1963 36.6925C20.1876 36.4416 19.5654 35.4684 19.7085 34.4236C19.8346 33.5028 20.3628 32.9051 21.1752 32.5234C21.8097 32.2249 22.4879 32.1035 23.1803 32.0429C23.4857 32.0163 23.7917 32.0034 24.0977 32.0095C24.1686 32.0108 24.2286 32.0177 24.2286 31.91C24.2286 31.4765 24.1945 31.0499 24.0275 30.6436C23.7849 30.0514 23.3289 29.7338 22.7067 29.6629C21.9413 29.5757 21.2168 29.7126 20.5591 30.1311C20.4855 30.1781 20.4391 30.1843 20.4098 30.0902C20.3996 30.0582 20.3846 30.0268 20.371 29.9962C20.2122 29.6227 20.2108 29.6193 20.585 29.4373C21.3497 29.0645 22.156 28.9289 22.9984 29.0549C23.9894 29.2035 24.6327 29.8387 24.8699 30.8883C24.9429 31.21 24.9749 31.5365 24.9756 31.8664C24.9763 33.0516 24.9735 34.2368 24.9831 35.422C24.9858 35.7669 25.0028 36.1131 25.0676 36.4539C25.0908 36.578 25.0567 36.6154 24.934 36.6066C24.7984 36.597 24.6614 36.597 24.5257 36.6066C24.4215 36.6148 24.3874 36.5745 24.3792 36.4771C24.356 36.2065 24.3267 35.9359 24.2967 35.666C24.2926 35.632 24.3158 35.5842 24.2558 35.5604L24.2565 35.5611ZM24.2272 33.5334C24.2272 33.2724 24.2238 33.0114 24.2293 32.751C24.2313 32.6549 24.202 32.6208 24.1039 32.6249C23.866 32.6358 23.6281 32.6345 23.3903 32.6447C22.8103 32.6699 22.2391 32.7476 21.6939 32.9609C20.8501 33.2922 20.4398 33.879 20.4834 34.7269C20.5121 35.2891 20.7363 35.7458 21.2734 35.9993C21.6666 36.1847 22.0776 36.169 22.4899 36.0934C23.6029 35.8903 24.3111 34.8598 24.2293 34.0262C24.2129 33.8633 24.2272 33.6977 24.2272 33.5328V33.5334Z" fill="#FFCA07"/>
<path d="M13.5895 32.9227C13.5957 33.7576 13.7988 34.5271 14.3556 35.1732C14.8341 35.728 15.4516 36.0224 16.1747 36.0954C16.8958 36.1683 17.5862 36.0429 18.2418 35.7382C18.3543 35.6858 18.4041 35.7001 18.4259 35.8187C18.4286 35.835 18.4347 35.8514 18.4402 35.8677C18.5922 36.3019 18.5935 36.3053 18.1512 36.4573C17.2366 36.7715 16.3021 36.8873 15.3609 36.6215C13.9835 36.2317 13.2079 35.2693 12.9291 33.8994C12.7308 32.9268 12.8112 31.9679 13.2542 31.0641C13.8308 29.8884 14.7932 29.2348 16.0779 29.0508C16.8201 28.9445 17.5487 29.0263 18.2528 29.2907C18.6324 29.4332 18.631 29.4379 18.4708 29.8026C18.3495 30.08 18.3543 30.0677 18.083 29.9593C16.9728 29.5156 15.8789 29.4891 14.8518 30.1767C14.1805 30.6259 13.8383 31.304 13.6713 32.0783C13.6114 32.3564 13.5909 32.6385 13.5909 32.9227H13.5895Z" fill="#FFCA07"/>
<path d="M31.1901 34.3595C31.2017 35.6313 30.5549 36.4225 29.5047 36.6638C28.6159 36.8683 27.7612 36.7524 26.9454 36.3408C26.8139 36.2746 26.7839 36.2058 26.8568 36.079C26.9352 35.942 26.9386 35.7239 27.0633 35.6667C27.1819 35.6122 27.3271 35.7771 27.4648 35.8378C28.1129 36.1227 28.7768 36.2337 29.4672 36.0245C29.9647 35.8739 30.313 35.5583 30.4193 35.0369C30.5352 34.4706 30.3832 33.9819 29.9211 33.6098C29.6171 33.3651 29.2688 33.2022 28.909 33.0597C28.4489 32.8771 28.0107 32.6597 27.629 32.3346C26.6701 31.5181 26.8888 30.0929 27.8253 29.442C28.4564 29.0038 29.1605 28.9438 29.8938 29.0624C30.2148 29.1142 30.5174 29.2219 30.8023 29.3827C30.9073 29.442 30.9598 29.4925 30.8814 29.6152C30.8207 29.7092 30.7751 29.8162 30.739 29.9225C30.694 30.0554 30.6476 30.0793 30.5147 29.9996C29.9524 29.6622 29.3418 29.547 28.7018 29.7004C28.2104 29.8183 27.8812 30.1331 27.7742 30.6361C27.6617 31.163 27.8239 31.5958 28.2656 31.9181C28.6084 32.1676 28.9969 32.3257 29.3847 32.4845C29.7159 32.6201 30.0376 32.7735 30.33 32.9827C30.8944 33.3862 31.1983 33.9267 31.1901 34.3602V34.3595Z" fill="#FFCA07"/>
<path d="M9.59629 32.6849C9.03468 32.6849 8.47308 32.6801 7.91148 32.6883C7.77381 32.6903 7.73087 32.6481 7.74382 32.5159C7.75404 32.415 7.7554 32.3107 7.74382 32.2098C7.72678 32.0619 7.77585 32.0156 7.9292 32.0176C8.59849 32.0258 9.26778 32.021 9.93706 32.021C10.3848 32.021 10.8333 32.0258 11.2811 32.0183C11.4106 32.0163 11.4556 32.0579 11.4413 32.1833C11.4235 32.3448 11.5115 32.5547 11.401 32.6569C11.3015 32.7496 11.0971 32.6822 10.9396 32.6828C10.4919 32.6862 10.0434 32.6842 9.5956 32.6842L9.59629 32.6849Z" fill="#FFCA07"/>
</g>
<path fill-rule="evenodd" clip-rule="evenodd" d="M58.8989 0.896292C57.3589 1.81741 53.7265 3.96929 52.3705 4.77064V4.77064C51.5441 5.20551 49.6301 5.39539 48.5475 3.88763V3.88763C48.5282 3.86041 47.1077 2.02711 47.0497 1.95808V1.95808C47.009 1.9093 46.0907 0.502368 44.0445 0.458381V0.458381C43.7422 0.450977 42.239 0.442702 40.7724 1.30372V1.30372C38.8229 2.45413 34.2891 5.13147 34.2891 5.13147V5.13147C34.2878 5.13147 34.2878 5.13386 34.2855 5.13386V5.13386C32.4218 6.23528 30.9697 7.09282 30.9697 7.09282V7.09282L32.6854 9.26931C33.488 10.2987 35.2978 11.095 36.8674 10.1643V10.1643C36.8674 10.1643 42.6668 6.69541 42.6881 6.68539V6.68539C45.1962 5.26452 47.1315 5.26452 48.416 5.79324V5.79324C49.569 6.29647 50.572 7.55033 50.572 7.55033V7.55033C50.572 7.55033 51.8829 9.22837 52.1142 9.52191V9.52191C52.8601 10.4702 54.0946 10.0977 54.0946 10.0977V10.0977C54.0946 10.0977 54.5521 10.0441 55.2417 9.6212V9.6212C55.2417 9.6212 60.8591 6.25684 60.8627 6.25575V6.25575C62.6464 5.1748 64.2824 4.97294 65.1185 5.05242V5.05242C67.7373 5.29827 68.5508 7.18798 69.6863 8.50628V8.50628C70.355 9.28172 70.9584 9.72203 71.8811 9.69982V9.69982C72.4874 9.68653 73.1724 9.30676 73.2734 9.23817V9.23817L80.0002 5.22837C80.0002 5.22837 79.31 4.15461 77.8964 2.48397V2.48397C76.6313 0.993412 75.2875 1.66781 74.2162 2.21591V2.21591C73.7661 2.44586 72.1352 3.56644 70.5195 4.34819V4.34819C69.3682 4.905 67.7145 4.73754 66.8082 3.58081V3.58081C66.754 3.51048 65.2878 1.67695 65.1337 1.45136V1.45136C64.5419 0.68572 63.3873 0 61.9075 0V0C61.0078 0 59.9868 0.25347 58.8989 0.896292" fill="url(#paint0_linear_1801_20162)"/>
<path fill-rule="evenodd" clip-rule="evenodd" d="M0.0843273 16.5733C0.0843273 15.376 0.0632455 14.3713 0 13.4754H2.1942L2.29708 15.0145H2.35864C2.85596 14.2012 3.76543 13.2394 5.46188 13.2394C6.78603 13.2394 7.82031 14.0105 8.25396 15.1639H8.29655C8.64882 14.5871 9.06118 14.1601 9.53658 13.8598C10.0957 13.4543 10.7372 13.2394 11.5647 13.2394C13.2398 13.2394 14.935 14.4144 14.935 17.7483V23.8801H12.453V18.1335C12.453 16.403 11.8748 15.376 10.655 15.376C9.78471 15.376 9.14277 16.0182 8.87566 16.7664C8.81284 17.0221 8.75086 17.3428 8.75086 17.6398V23.8801H6.26805V17.8548C6.26805 16.403 5.71044 15.376 4.53112 15.376C3.57949 15.376 2.93902 16.1464 2.71091 16.8714C2.60677 17.1294 2.56503 17.4277 2.56503 17.7263V23.8801H0.0843273V16.5733Z" fill="#003A70"/>
<path fill-rule="evenodd" clip-rule="evenodd" d="M24.6052 21.3808C24.6052 22.3205 24.6465 23.2377 24.75 23.8805H22.4531L22.2883 22.727H22.2254C21.6052 23.5397 20.5503 24.1157 19.2472 24.1157C17.2196 24.1157 16.0824 22.5999 16.0824 21.0178C16.0824 18.3889 18.3363 17.0653 22.0599 17.0864V16.9148C22.0599 16.2309 21.7907 15.0992 20.0121 15.0992C19.0187 15.0992 17.984 15.4199 17.3018 15.8679L16.8047 14.16C17.5507 13.689 18.8551 13.2397 20.4465 13.2397C23.6748 13.2397 24.6052 15.3564 24.6052 17.6202V21.3808ZM22.1219 18.7958C20.3226 18.7527 18.6061 19.1586 18.6061 20.74C18.6061 21.7645 19.2472 22.2356 20.0542 22.2356C21.0666 22.2356 21.8124 21.5516 22.0393 20.804C22.1008 20.6117 22.1219 20.3972 22.1219 20.227V18.7958Z" fill="#003A70"/>
<path fill-rule="evenodd" clip-rule="evenodd" d="M26.3642 16.5733C26.3642 15.376 26.3414 14.3713 26.2811 13.4754H28.5133L28.6381 15.035H28.6992C29.1341 14.2241 30.2304 13.2394 31.9056 13.2394C33.6644 13.2394 35.4846 14.4144 35.4846 17.7056V23.8801H32.9407V18.0055C32.9407 16.5088 32.4029 15.376 31.0167 15.376C30.0031 15.376 29.3 16.124 29.0304 16.9149C28.949 17.1505 28.9275 17.4717 28.9275 17.7687V23.8801H26.3642V16.5733Z" fill="#003A70"/>
<path fill-rule="evenodd" clip-rule="evenodd" d="M46.5156 9.29468V20.9524C46.5156 22.0205 46.5563 23.1763 46.5978 23.8805H44.3222L44.2204 22.2356H44.1782C43.578 23.3899 42.3557 24.1157 40.8886 24.1157C38.4902 24.1157 36.5865 22.0009 36.5865 18.7959C36.5654 15.3129 38.6752 13.2398 41.0952 13.2398C42.4807 13.2398 43.4745 13.8389 43.9288 14.6086H43.9708V9.29468H46.5156ZM43.9708 17.8114C43.9708 17.6 43.9495 17.3424 43.9097 17.1294C43.6818 16.1038 42.8745 15.27 41.7161 15.27C40.082 15.27 39.1717 16.7664 39.1717 18.7108C39.1717 20.6118 40.082 22.0009 41.6954 22.0009C42.7293 22.0009 43.64 21.2747 43.8879 20.1425C43.9495 19.9065 43.9708 19.6504 43.9708 19.3717V17.8114Z" fill="#003A70"/>
<path fill-rule="evenodd" clip-rule="evenodd" d="M48.3134 23.88H50.8809V13.476H48.3134V23.88Z" fill="#003A70"/>
<path fill-rule="evenodd" clip-rule="evenodd" d="M52.679 16.8295C52.679 15.4199 52.6575 14.4143 52.5957 13.4751H54.8095L54.8905 15.4615H54.9763C55.4719 13.9873 56.6512 13.4751 57.7264 13.4751C57.9741 13.4751 58.1187 13.4314 58.3262 13.4751V15.7834C58.1187 15.7407 57.8917 15.698 57.5813 15.698C56.3611 15.698 55.533 16.5092 55.3058 17.6835C55.2655 17.9187 55.2238 18.1977 55.2238 18.4982V23.8805H52.679V16.8295Z" fill="#003A70"/>
<path fill-rule="evenodd" clip-rule="evenodd" d="M59.5052 23.88H62.069V13.476H59.5052V23.88Z" fill="#003A70"/>
</g>
<defs>
<linearGradient id="paint0_linear_1801_20162" x1="30.9697" y1="10.5765" x2="80.0002" y2="10.5765" gradientUnits="userSpaceOnUse">
<stop stop-color="#FFCA06"/>
<stop offset="0.330844" stop-color="#FBAA18"/>
<stop offset="0.694742" stop-color="#FFC907"/>
<stop offset="1" stop-color="#FAA619"/>
</linearGradient>
<clipPath id="clip0_1801_20162">
<rect width="80.0002" height="36.7796" rx="8" fill="white"/>
</clipPath>
<clipPath id="clip1_1801_20162">
<rect width="39" height="9.77965" fill="white" transform="translate(0 27)"/>
</clipPath>
</defs>
</svg>
