<svg width="80" height="17" viewBox="0 0 80 17" fill="none" xmlns="http://www.w3.org/2000/svg">
<g clip-path="url(#clip0_1801_20194)">
<path fill-rule="evenodd" clip-rule="evenodd" d="M37.6051 4.19182C37.6948 4.07374 37.7395 3.52292 37.7395 3.39402V0.723586C37.725 0.566314 37.6674 0.448085 37.5673 0.369633C37.4672 0.290777 37.3521 0.251587 37.223 0.251587H25.6489C25.5051 0.251587 25.385 0.294479 25.2882 0.380044C25.1917 0.465829 25.1429 0.580649 25.1429 0.723586V0.753391C25.1429 0.925364 25.2232 1.08652 25.3588 1.19192C26.0222 1.7074 26.6386 2.25517 27.3138 3.22513C27.9643 4.15872 27.9974 4.36889 28.1978 4.36889H29.3491V15.7073C29.3491 15.8532 29.4112 15.9951 29.5217 16.0907C29.6258 16.1808 29.7361 16.2255 29.8533 16.2255H33.008C33.158 16.2255 33.2795 16.1736 33.3726 16.0696C33.4651 15.9655 33.5119 15.8487 33.5119 15.7196V4.36889H37.223C37.3884 4.36889 37.5152 4.30987 37.6051 4.19182Z" fill="#E72635"/>
<path fill-rule="evenodd" clip-rule="evenodd" d="M42.6996 11.8669C40.7475 11.8669 39.1652 10.2845 39.1652 8.33255C39.1652 6.3804 40.7475 4.79815 42.6996 4.79815C44.652 4.79815 46.234 6.3804 46.234 8.33255C46.234 10.2845 44.652 11.8669 42.6996 11.8669ZM50.6328 6.15941C50.4357 5.4603 50.1593 4.80409 49.8042 4.19095C49.4486 3.57802 49.0199 3.02064 48.5181 2.51822C48.0152 2.01619 47.4591 1.58789 46.8496 1.23313C46.2393 0.877968 45.5829 0.601587 44.8791 0.404722C44.1761 0.207637 43.448 0.108765 42.6943 0.108765C41.9336 0.108765 41.2036 0.207637 40.5036 0.404722C40.0002 0.54667 39.5214 0.731511 39.0646 0.955174C38.9735 1.01786 38.8528 1.11875 38.7421 1.26334C38.6101 1.43553 38.5423 1.64915 38.5423 1.86607V3.98752C38.5423 4.54244 38.0926 4.99219 37.5379 4.99219H35.8655C35.4356 4.99219 35.0543 5.26567 34.9138 5.67128C34.858 5.83119 34.8072 5.99441 34.761 6.15941C34.5674 6.85896 34.4706 7.58868 34.4706 8.34887C34.4706 9.10865 34.5674 9.83863 34.761 10.5377C34.955 11.2368 35.2312 11.8894 35.59 12.4958C35.9489 13.1018 36.3778 13.6534 36.8765 14.152C37.3751 14.6505 37.9294 15.079 38.5396 15.4375C39.1493 15.7961 39.8045 16.0725 40.5036 16.2653C41.2036 16.4595 41.9336 16.5563 42.6943 16.5563C43.448 16.5563 44.1761 16.4595 44.8791 16.2653C45.5829 16.0725 46.2393 15.7961 46.8496 15.4375C47.4591 15.079 48.0152 14.6505 48.5181 14.152C49.0199 13.6534 49.4486 13.1018 49.8042 12.4958C50.1593 11.8894 50.4357 11.2368 50.6328 10.5377C50.8303 9.83863 50.9291 9.10865 50.9291 8.34887C50.9291 7.58868 50.8303 6.85896 50.6328 6.15941Z" fill="#E72635"/>
<path fill-rule="evenodd" clip-rule="evenodd" d="M8.11431 11.773C6.16216 11.773 4.57994 10.1906 4.57994 8.23867C4.57994 6.28652 6.16216 4.70427 8.11431 4.70427C10.0662 4.70427 11.6487 6.28652 11.6487 8.23867C11.6487 10.1906 10.0662 11.773 8.11431 11.773ZM27.1032 11.0574L23.6914 9.91547C23.4291 9.82763 23.1348 9.9224 22.9853 10.1554C22.3162 11.2002 21.1096 11.8672 19.7532 11.7589C18.8635 11.6881 18.0557 11.2712 17.472 10.6404C17.0484 10.183 16.7421 9.61361 16.6115 8.97902C16.5619 8.73784 16.5401 8.5009 16.5401 8.2691H16.5389C16.5389 6.02367 15.6424 3.9884 14.189 2.49824C14.1662 2.47434 14.1435 2.44967 14.1202 2.42536C12.6235 0.927245 10.5546 0 8.26997 0C4.88913 0 1.98404 2.02991 0.701993 4.93607C0.252466 5.95607 0.000244141 7.08285 0.000244141 8.26928C0.000244141 12.1152 2.62577 15.347 6.18181 16.2723C6.23386 16.2858 6.28739 16.2955 6.34029 16.3078V16.3082C6.95937 16.4565 7.60473 16.5386 8.26953 16.5386C10.3379 16.5386 12.2279 15.777 13.6781 14.5217C13.6781 14.5217 14.098 14.1343 14.1584 14.0758C15.6578 15.5942 17.7371 16.5388 20.0396 16.5388C20.9609 16.5388 21.8448 16.3833 22.6722 16.1048C24.7696 15.4 26.4926 13.881 27.4594 11.9191C27.6252 11.5823 27.4594 11.1763 27.1032 11.0574Z" fill="#E72635"/>
<path fill-rule="evenodd" clip-rule="evenodd" d="M20.0395 4.76839C21.1213 4.76839 22.0866 5.26022 22.7285 6.03162C22.9029 6.24117 23.1993 6.30386 23.4511 6.1981L26.7559 4.80721C27.1185 4.65463 27.2553 4.21346 27.0461 3.88015C25.5842 1.55039 22.9936 0.000366211 20.0395 0.000366211C17.9507 0.000366211 16.0441 0.776278 14.5889 2.05425C15.7884 3.27353 16.6382 4.8372 16.9754 6.58185C17.5716 5.50141 18.7184 4.76839 20.0395 4.76839Z" fill="#E72635"/>
<path fill-rule="evenodd" clip-rule="evenodd" d="M58.6966 9.18723H57.9311C56.0174 9.18723 54.6059 10.5268 54.6059 12.3209C54.6059 14.4978 56.2684 15.4545 57.5003 15.4545H58.6966V16.5071H57.5003C55.1682 16.5071 53.4338 14.7131 53.4338 12.3209C53.4338 10.2876 55.0964 8.13464 57.8114 8.13464H58.6966V9.18723Z" fill="#790008"/>
<path fill-rule="evenodd" clip-rule="evenodd" d="M59.7975 16.5071H60.8501V8.13464H59.7975V16.5071Z" fill="#790008"/>
<path fill-rule="evenodd" clip-rule="evenodd" d="M62.7878 16.5071H63.8402V10.766H62.7878V16.5071ZM63.314 8.85229C63.7208 8.85229 63.9479 9.16328 63.9479 9.48622C63.9479 9.80916 63.7208 10.1201 63.314 10.1201C62.9075 10.1201 62.6801 9.80916 62.6801 9.48622C62.6801 9.16328 62.9075 8.85229 63.314 8.85229Z" fill="#790008"/>
<path fill-rule="evenodd" clip-rule="evenodd" d="M69.3784 11.7707H68.565C67.5724 11.7707 66.5916 12.4166 66.5916 13.6366C66.5916 14.8565 67.5724 15.5024 68.565 15.5024H69.3784V16.5071H68.3738C67.0341 16.5071 65.4912 15.4785 65.4912 13.6366C65.4912 11.7946 67.0341 10.766 68.3738 10.766H69.3784V11.7707Z" fill="#790008"/>
<path fill-rule="evenodd" clip-rule="evenodd" d="M70.252 16.5071V8.13464H71.3043V12.895H71.747C72.1895 12.895 72.4766 12.7275 72.6321 12.4644L73.6248 10.766H74.8208L74.0672 12.0578C73.8401 12.4524 73.4932 13.0265 73.1702 13.1103V13.1342C74.0194 13.3016 74.4859 13.804 74.4859 14.8207V16.5071H73.4333V14.9402C73.4333 14.2227 73.0506 13.8997 72.5004 13.8997H71.3043V16.5071H70.252Z" fill="#790008"/>
<path fill-rule="evenodd" clip-rule="evenodd" d="M75.2758 15.5024H78.218C78.7085 15.5024 78.8998 15.3111 78.8998 14.9523C78.8998 13.8997 75.2758 14.3063 75.2758 12.3209C75.2758 11.3042 75.9813 10.766 77.2373 10.766H79.7131V11.7707H77.0579C76.5436 11.7707 76.3881 11.9142 76.3762 12.2731C76.3641 13.2658 80.0002 12.8472 80.0002 14.9044C80.0002 15.9928 79.2347 16.5071 78.218 16.5071H75.2758V15.5024Z" fill="#790008"/>
</g>
<defs>
<clipPath id="clip0_1801_20194">
<rect width="80" height="16.5564" rx="8" fill="white"/>
</clipPath>
</defs>
</svg>
