<svg width="80" height="43" viewBox="0 0 80 43" fill="none" xmlns="http://www.w3.org/2000/svg">
<g clip-path="url(#clip0_1801_17793)">
<path d="M17.5628 23.2592C17.5554 23.7999 18.2443 23.8592 18.6591 23.8592H18.8813C18.9258 23.8592 18.9554 23.8592 19.0072 23.8518C19.9924 23.7999 19.9776 23.4296 19.9776 23.2592C19.9776 23.1703 19.9776 23.074 19.9776 22.9629V22.9185V3.02957V2.97031V2.68883C19.985 2.14809 19.2961 2.08142 18.8813 2.08142H18.6591C18.2443 2.08142 17.5554 2.14809 17.5628 2.68883C17.5628 2.80735 17.5628 2.91105 17.5628 3.02957V22.9185C17.5628 22.9259 17.5628 22.9407 17.5628 22.9777V23.2592Z" fill="#EB202D"/>
<path d="M4.68148 23.2592C4.67407 23.7999 5.36296 23.8592 5.77778 23.8592H6C6.04444 23.8592 6.07407 23.8592 6.12592 23.8518C7.1037 23.7999 7.09629 23.4296 7.09629 23.2592C7.09629 23.1703 7.09629 23.074 7.09629 22.9629V22.9185V3.02957V2.97031V2.68883C7.1037 2.14809 6.41481 2.08142 6 2.08142H5.77778C5.36296 2.08142 4.67407 2.14809 4.68148 2.68883C4.68148 2.80735 4.67407 2.91105 4.67407 3.02957V22.9185C4.67407 22.9259 4.67407 22.9407 4.68148 22.9777V23.2592Z" fill="#EB202D"/>
<path d="M8.9776 23.2592C8.97019 23.7999 9.65908 23.8592 10.0739 23.8592H10.2961C10.3332 23.8592 10.3702 23.8592 10.422 23.8518C11.3998 23.7999 11.3924 23.4296 11.3924 23.2592C11.3924 23.1703 11.3924 23.074 11.3924 22.9629V22.9185V3.02957V2.97031V2.68883C11.3998 2.14809 10.7109 2.08142 10.2961 2.08142H10.0739C9.65908 2.08142 8.97019 2.14809 8.9776 2.68883C8.9776 2.80735 8.9776 2.91105 8.9776 3.02957V22.9185C8.9776 22.9259 8.9776 22.9407 8.9776 22.9777V23.2592Z" fill="#EB202D"/>
<path d="M13.2738 23.2592C13.2664 23.7999 13.9553 23.8592 14.3701 23.8592H14.5924C14.6294 23.8592 14.6664 23.8592 14.7109 23.8518C15.6961 23.7999 15.6813 23.4296 15.6813 23.2592C15.6813 23.1703 15.6813 23.074 15.6813 22.9629V22.9185V3.02957V2.97031V2.68883C15.6887 2.14809 14.9998 2.08142 14.585 2.08142H14.3627C13.9479 2.08142 13.259 2.14809 13.2664 2.68883C13.2664 2.80735 13.259 2.91105 13.259 3.02957V22.9185C13.259 22.9259 13.259 22.9407 13.2664 22.9777V23.2592H13.2738Z" fill="#EB202D"/>
<path d="M2.04434 11.7629C1.5036 11.7555 1.44434 12.4444 1.44434 12.8592V13.0814C1.44434 13.1259 1.44434 13.1555 1.45174 13.1999C1.5036 14.1851 1.87397 14.1777 2.04434 14.1777C2.13322 14.1777 2.22952 14.1777 2.34063 14.1777H2.38508H22.274H22.3332H22.6147C23.1554 14.1851 23.2221 13.4962 23.2221 13.0814V12.8592C23.2221 12.4444 23.1554 11.7555 22.6147 11.7629C22.4962 11.7629 22.3925 11.7555 22.274 11.7555H2.38508C2.37767 11.7555 2.36285 11.7555 2.32582 11.7629H2.04434Z" fill="#EB202D"/>
<path d="M53.2222 3.67407C47.4296 3.67407 44.8518 6.52592 44.8518 12.9185C44.8518 19.163 47.5407 22.2222 53.0814 22.2593H53.3481C58.8963 22.2296 61.5925 19.1778 61.5925 12.9185C61.5925 6.52592 59.0074 3.67407 53.2222 3.67407ZM53.2444 19.5259H53.2C49.874 19.5259 48.5777 17.6667 48.5777 12.8963C48.5777 8.17778 49.8222 6.42222 53.1629 6.42222H53.274C56.6148 6.42222 57.8592 8.17778 57.8592 12.8963C57.8592 17.6667 56.5629 19.5259 53.2444 19.5259Z" fill="#223C77"/>
<path d="M29.9702 20.8518C31.148 21.7555 32.7406 22.1407 35.3109 22.1407H35.3924H35.4739C38.0665 22.1407 39.6665 21.7555 40.8294 20.8518C42.5183 19.5629 42.8072 18.0518 42.8072 15.1481V4.71845C42.8072 4.56289 42.8146 4.3777 42.6443 4.20733C42.3776 3.94067 41.785 3.79993 40.8813 3.79993C39.985 3.79993 39.3924 3.93326 39.1331 4.20733C38.9628 4.3777 38.9628 4.5703 38.9702 4.72585V6.60733V15.6221C38.9702 17.437 38.9702 17.8147 38.1628 18.4814C37.422 19.0888 36.2961 19.1629 35.3998 19.1629C34.5035 19.1629 33.385 19.0888 32.6443 18.4814C31.8443 17.8221 31.8443 17.4518 31.8443 15.6666V4.73326C31.8443 4.5777 31.8517 4.39252 31.6813 4.21474C31.4146 3.94808 30.822 3.80733 29.9257 3.80733C29.022 3.80733 28.4294 3.94067 28.1702 4.21474C27.9998 4.38511 27.9998 4.5777 28.0072 4.72585V4.7703V15.1555C27.9924 18.0518 28.2813 19.5629 29.9702 20.8518Z" fill="#223C77"/>
<path d="M76.0519 4.88142C75.0963 4.17031 73.9556 3.91846 71.6889 3.91846H64.2445C63.9037 3.91846 63.6296 4.19253 63.6296 4.53327V21.4073C63.6296 21.7481 63.9037 22.0222 64.2445 22.0222H72.0519C74.1704 22.0222 75.6519 21.9555 76.8889 21.0222C78.2667 19.9555 78.563 18.1999 78.563 16.911C78.563 15.2148 77.9926 13.874 76.963 13.1333C76.5111 12.7999 75.9852 12.5999 75.4815 12.4222L75.1408 12.3036L75.4667 12.1481C76.9852 11.4222 77.5407 10.4148 77.5185 8.42216C77.5037 7.50364 77.2963 5.79994 76.0519 4.88142ZM67.4222 6.45179H71.5778C73.7333 6.45179 73.9037 7.54068 73.9037 8.97031C73.9037 10.674 73.1185 11.3999 71.2889 11.3999H67.4222V6.45179ZM71.4963 19.4296H67.4222V13.9703H71.7926C74.2148 13.9703 74.7037 15.0296 74.7037 16.7259C74.7037 19.0222 73.8593 19.4296 71.4963 19.4296Z" fill="#223C77"/>
<path d="M18.1851 39.6221V28.8444H23.8073V29.8221H19.3184V33.7036H22.9999V34.6814H19.3184V38.637H24.3999V39.6147H18.1851V39.6221Z" fill="#00377B"/>
<path d="M26.2444 39.6221V39.3703L29.9629 33.0073C30.2814 32.4666 30.5999 31.911 30.9333 31.3481C31.2666 30.7851 31.5777 30.274 31.874 29.8073L31.8592 29.7925H26.6888V28.8444H33.4814V29.0962L29.7333 35.4888C29.4296 36.0073 29.1111 36.5481 28.7777 37.1036C28.4444 37.6592 28.1333 38.1777 27.837 38.6518L27.8518 38.6666H33.6444V39.6147H26.2444V39.6221Z" fill="#00377B"/>
<path d="M47.1851 31.7703C47.1851 32.2295 47.0962 32.6444 46.9258 32.9999C46.7481 33.3629 46.5184 33.6666 46.2369 33.9184C45.9481 34.1703 45.6221 34.3629 45.2518 34.4962C44.8814 34.6221 44.4962 34.6888 44.1036 34.6888H42.1629V39.6221H41.0295V28.8444H44.0369C44.4444 28.8444 44.8369 28.911 45.2221 29.037C45.6073 29.1703 45.9407 29.3555 46.2369 29.6147C46.5332 29.8666 46.7629 30.1777 46.9407 30.5333C47.0962 30.8962 47.1851 31.3036 47.1851 31.7703ZM46.0369 31.7703C46.0369 31.4666 45.9777 31.1925 45.8592 30.9481C45.7406 30.7036 45.5851 30.5036 45.3851 30.3407C45.1851 30.1777 44.9555 30.0518 44.6962 29.9629C44.4295 29.874 44.1481 29.8295 43.8444 29.8295H42.1555V33.711H43.911C44.1925 33.711 44.4592 33.6666 44.7184 33.5851C44.9777 33.5036 45.1999 33.3703 45.3925 33.2073C45.5851 33.037 45.7406 32.8295 45.8592 32.5925C45.9777 32.3555 46.0369 32.074 46.0369 31.7703Z" fill="#00377B"/>
<path d="M55.785 39.6221L54.5554 36.5999H49.9924L48.7776 39.6221H47.6665L52.1258 28.6295H52.4813L56.9406 39.6221H55.785ZM52.8813 32.3554C52.7776 32.111 52.6813 31.8443 52.585 31.5629C52.4887 31.2814 52.3998 30.9925 52.3035 30.7036H52.2665C52.1776 30.9925 52.0813 31.2814 51.9776 31.5629C51.8739 31.8443 51.7776 32.1036 51.6739 32.3554L50.3702 35.6517H54.1554L52.8813 32.3554Z" fill="#00377B"/>
<path d="M62.0444 34.6369V39.6221H60.9333V34.6369L56.8296 28.8443H58.0814L60.4148 32.1406C60.5851 32.3851 60.7703 32.6591 60.9703 32.948C61.1703 33.2443 61.3555 33.5184 61.5259 33.7777H61.5629C61.7333 33.5184 61.9111 33.2443 62.1037 32.9554C62.2963 32.6665 62.4888 32.3925 62.6814 32.1332L65.0296 28.8369H66.1926L62.0444 34.6369Z" fill="#00377B"/>
</g>
<defs>
<clipPath id="clip0_1801_17793">
<rect width="80" height="42.1111" rx="8" fill="white"/>
</clipPath>
</defs>
</svg>
