<svg width="88" height="90" viewBox="0 0 88 90" fill="none" xmlns="http://www.w3.org/2000/svg">
<g clip-path="url(#clip0_1801_11193)">
<mask id="mask0_1801_11193" style="mask-type:alpha" maskUnits="userSpaceOnUse" x="2" y="0" width="81" height="80">
<path d="M62.1491 0H22.3245C11.2304 0 2.23682 8.99358 2.23682 20.0877V59.9123C2.23682 71.0064 11.2304 80 22.3245 80H62.1491C73.2432 80 82.2368 71.0064 82.2368 59.9123V20.0877C82.2368 8.99358 73.2432 0 62.1491 0Z" fill="black"/>
</mask>
<g mask="url(#mask0_1801_11193)">
<path d="M62.1491 0H22.3245C11.2304 0 2.23682 8.99358 2.23682 20.0877V59.9123C2.23682 71.0064 11.2304 80 22.3245 80H62.1491C73.2432 80 82.2368 71.0064 82.2368 59.9123V20.0877C82.2368 8.99358 73.2432 0 62.1491 0Z" fill="url(#paint0_linear_1801_11193)"/>
<path d="M22.9677 25.7894C22.4306 25.1367 21.7113 24.6589 20.9015 24.4167C20.0917 24.1745 19.2281 24.1791 18.4209 24.4297C16.9589 24.9999 16.0086 27.5292 16.9589 29.883C18.8448 34.6637 24.2688 34.0789 24.2688 34.0789C25.4383 38.0684 28.0419 41.4844 31.5788 43.6695C33.3624 49.2104 33.801 55.3654 35.2045 56.9444C38.4209 60.6724 40.4823 63.3625 40.4823 63.3625L46.0963 55.5555C45.4969 51.5204 43.4355 44.2251 43.9764 43.7865C49.0788 39.5467 48.9033 32.2806 48.9033 32.2806C49.5788 32.243 50.2355 32.0442 50.8185 31.7009C51.4015 31.3576 51.8939 30.8798 52.2545 30.3074C52.6152 29.735 52.8336 29.0845 52.8915 28.4105C52.9494 27.7364 52.8452 27.0582 52.5875 26.4327C52.4457 25.9382 52.2023 25.4788 51.8729 25.0837C51.5435 24.6886 51.1353 24.3666 50.6744 24.1382C50.2134 23.9098 49.71 23.7801 49.1961 23.7573C48.6822 23.7345 48.1692 23.8191 47.6899 24.0058C47.6899 24.0058 48.5817 9.38589 34.8244 10.9356C28.2747 11.652 23.5378 14.8683 22.2951 18.114C21.2425 20.9502 22.9677 25.7894 22.9677 25.7894Z" fill="white"/>
<path d="M40.4386 64.0057C40.34 64.0063 40.2425 63.9842 40.1538 63.9411C40.0651 63.898 39.9875 63.8351 39.9269 63.7572C39.9269 63.7572 37.8363 61.0379 34.6784 57.3829C33.772 56.3303 33.2164 53.9472 32.6608 50.9355C32.2222 48.8156 31.7252 46.418 31.0088 44.1227C27.608 41.9255 25.0719 38.6197 23.8304 34.7659C22.2677 34.8426 20.7186 34.4416 19.3893 33.6163C18.06 32.7911 17.0135 31.5806 16.3889 30.1461C15.8199 28.7394 15.8199 27.1667 16.3889 25.7601C16.5534 25.3386 16.7995 24.9537 17.1131 24.6275C17.4267 24.3014 17.8016 24.0404 18.2164 23.8595C18.7987 23.6317 19.424 23.5345 20.048 23.5749C20.672 23.6153 21.2795 23.7923 21.8275 24.0934C21.2573 22.1151 21.227 20.0202 21.7398 18.0262C23.2018 14.2396 28.538 11.1256 34.7953 10.4385C38.9328 9.98524 42.2076 10.8917 44.5614 13.1139C47.9386 16.3303 48.3772 21.3157 48.4065 23.3478C49.2819 23.1992 50.1817 23.3111 50.9942 23.6695C51.5272 23.9355 52.0004 24.3073 52.385 24.7623C52.7696 25.2173 53.0574 25.7458 53.231 26.3157C53.5152 27.06 53.6158 27.8619 53.5242 28.6534C53.4326 29.4449 53.1515 30.2027 52.7047 30.8624C52.3433 31.3956 51.8792 31.8513 51.3394 32.2028C50.7997 32.5542 50.1952 32.7944 49.5614 32.9092C49.4883 34.7659 48.8889 40.4823 44.5468 44.2104C44.7672 46.0236 45.1041 47.8207 45.5556 49.5905C46.0234 51.6811 46.4913 53.8303 46.7544 55.4385C46.7678 55.5226 46.7644 55.6086 46.7443 55.6914C46.7243 55.7742 46.6879 55.8523 46.6375 55.9209L40.9503 63.6695C40.8905 63.7492 40.8134 63.8144 40.7248 63.8599C40.6361 63.9055 40.5383 63.9304 40.4386 63.9326V64.0057ZM24.3567 33.4355C24.4984 33.4334 24.6369 33.4781 24.7505 33.5627C24.8642 33.6473 24.9468 33.767 24.9854 33.9034C26.1034 37.7078 28.5663 40.976 31.9152 43.0993C32.0607 43.1772 32.1706 43.3081 32.2222 43.4648C32.9376 45.8248 33.5281 48.2209 33.9913 50.6431C34.5322 53.2455 35.0439 55.7162 35.731 56.4911C37.9825 59.108 39.6784 61.2279 40.4971 62.2513L45.5117 55.4092C45.2632 53.8303 44.81 51.7981 44.3714 49.8537C43.1872 44.5613 43.0994 43.7572 43.655 43.304C48.4503 39.3127 48.348 32.3829 48.348 32.3244C48.346 32.2399 48.3608 32.1559 48.3913 32.0771C48.4218 31.9983 48.4676 31.9263 48.526 31.8652C48.5844 31.8041 48.6542 31.7551 48.7315 31.721C48.8089 31.687 48.8921 31.6684 48.9766 31.6665C49.5209 31.6363 50.0509 31.4807 50.5251 31.2119C50.9993 30.9431 51.405 30.5683 51.7105 30.1168C52.0131 29.6149 52.1921 29.0483 52.2328 28.4637C52.2735 27.8791 52.1746 27.2932 51.9445 26.7542C51.7217 25.9553 51.1976 25.2739 50.4825 24.8537C49.6888 24.5359 48.8081 24.5099 47.9971 24.7806C47.896 24.8203 47.7866 24.8338 47.6789 24.8199C47.5712 24.8059 47.4688 24.7649 47.3812 24.7007C47.2936 24.6365 47.2238 24.5511 47.1781 24.4526C47.1324 24.3541 47.1124 24.2456 47.1199 24.1373C47.1199 24.1373 47.4562 17.6607 43.6842 14.0788C41.6228 12.1197 38.6989 11.3303 34.9123 11.7542C28.1579 12.4999 23.962 15.7747 22.924 18.5086C21.9883 21.0086 23.5527 25.5847 23.5673 25.6431C23.627 25.7881 23.6317 25.9499 23.5805 26.0981C23.5293 26.2463 23.4257 26.3707 23.2892 26.4479C23.1528 26.5251 22.9928 26.5499 22.8394 26.5174C22.686 26.485 22.5497 26.3976 22.4562 26.2718C22.0074 25.7213 21.4045 25.3173 20.7247 25.1115C20.0449 24.9057 19.3191 24.9076 18.6404 25.1168C18.1321 25.3648 17.7392 25.7995 17.5439 26.3303C17.0978 27.4219 17.0978 28.645 17.5439 29.7367C19.2544 33.918 24.1667 33.4502 24.1667 33.4355H24.3567Z" fill="#00376E"/>
<path d="M18.5674 26.5496C18.7387 26.336 18.9666 26.1747 19.225 26.0843C19.4835 25.9938 19.7622 25.9778 20.0294 26.038C20.5467 26.1341 21.0187 26.3958 21.3744 26.7836C21.7056 27.1268 21.9423 27.5498 22.0615 28.0116C22.2055 28.4883 22.2055 28.9969 22.0615 29.4736C21.8715 29.1227 21.6814 28.7573 21.4621 28.421C21.2519 28.0843 21.0069 27.7707 20.7311 27.4853C20.4697 27.1908 20.1514 26.9521 19.7955 26.7836C19.4416 26.6114 19.041 26.56 18.6551 26.6374L18.5674 26.5496Z" fill="#00376E"/>
<path d="M44.6345 23.611C44.5049 23.611 44.3784 23.572 44.2715 23.4989C44.1645 23.4259 44.0821 23.3223 44.035 23.2016C43.9079 22.8166 43.7058 22.4606 43.4404 22.1541C43.175 21.8476 42.8514 21.5967 42.4885 21.4159C42.1256 21.2351 41.7304 21.128 41.3259 21.1008C40.9214 21.0735 40.5154 21.1267 40.1315 21.2572C39.9667 21.3095 39.7879 21.2943 39.6344 21.2148C39.4808 21.1353 39.3652 20.998 39.3128 20.8332C39.2605 20.6684 39.2757 20.4896 39.3552 20.3361C39.4348 20.1825 39.572 20.0668 39.7368 20.0145C40.8229 19.6581 42.0053 19.7399 43.0321 20.2423C44.0588 20.7448 44.8488 21.6282 45.2339 22.7046C45.275 22.8028 45.2912 22.9097 45.2808 23.0158C45.2704 23.1218 45.2339 23.2236 45.1744 23.312C45.115 23.4004 45.0346 23.4726 44.9403 23.5223C44.8461 23.5719 44.741 23.5974 44.6345 23.5964V23.611Z" fill="#00376E"/>
<path d="M27.9824 23.3918C27.8154 23.3882 27.656 23.3213 27.5365 23.2045C27.4171 23.0878 27.3465 22.93 27.3391 22.7631C27.5437 21.8747 28.063 21.0905 28.8011 20.5555C29.3916 20.1288 30.079 19.8559 30.8014 19.7615C31.5237 19.6671 32.2582 19.754 32.9385 20.0146C33.1033 20.065 33.2413 20.1788 33.3222 20.3309C33.4031 20.4831 33.4202 20.6612 33.3698 20.826C33.3194 20.9908 33.2056 21.1288 33.0534 21.2097C32.9013 21.2905 32.7232 21.3077 32.5584 21.2573C32.1345 21.0986 31.6829 21.0272 31.2307 21.0473C30.7785 21.0674 30.335 21.1786 29.9268 21.3742C29.3377 21.7014 28.8746 22.216 28.611 22.8362C28.5843 22.9848 28.5072 23.1197 28.3927 23.2182C28.2782 23.3167 28.1333 23.3728 27.9824 23.3771V23.3918Z" fill="#00376E"/>
<path d="M30.3508 24.8537C30.5116 25.804 31.0964 26.4911 31.6666 26.4034C32.2368 26.3157 32.573 25.4677 32.4122 24.5175C32.2514 23.5672 31.6666 22.88 31.0964 22.9677C30.5263 23.0555 30.2046 23.8303 30.3508 24.8537Z" fill="#00376E"/>
<path d="M41.0232 25.1022C41.1694 25.9794 41.7104 26.5642 42.2367 26.5642C42.763 26.5642 43.07 25.7016 42.9238 24.8244C42.7776 23.9472 42.2367 23.3624 41.7104 23.3624C41.1841 23.3624 40.877 24.2396 41.0232 25.1022Z" fill="#00376E"/>
<path d="M38.6551 32.3976C38.5177 32.3931 38.386 32.3415 38.2822 32.2515C38.1783 32.1615 38.1085 32.0385 38.0845 31.9031C38.0605 31.7678 38.0838 31.6283 38.1504 31.508C38.217 31.3878 38.323 31.2941 38.4504 31.2427C38.5279 31.2239 38.5956 31.177 38.6405 31.1111C38.7575 30.8187 38.3773 29.9561 38.0411 29.1959C37.7064 28.4693 37.4183 27.7222 37.1785 26.959C36.8035 25.9333 36.7374 24.8201 36.9884 23.7573C37.0327 23.6177 37.1264 23.4992 37.2521 23.424C37.3777 23.3489 37.5264 23.3223 37.6703 23.3493C37.8142 23.3762 37.9432 23.4549 38.0331 23.5705C38.1229 23.686 38.1674 23.8305 38.158 23.9766V24.0935C37.9747 24.9361 38.0356 25.8135 38.3335 26.6228C38.562 27.3362 38.8354 28.0345 39.1522 28.7134C39.6639 29.883 40.0732 30.8041 39.7516 31.6374C39.6699 31.8212 39.5511 31.9863 39.4027 32.1221C39.2543 32.258 39.0794 32.3617 38.889 32.4269L38.6551 32.3976Z" fill="#00376E"/>
<path d="M44.7661 42.3245C44.4699 43.2798 43.856 44.1051 43.0264 44.6637C42.8266 44.8178 42.611 44.9501 42.3831 45.0584C42.165 45.161 41.9404 45.2489 41.7106 45.3215C41.4791 45.4166 41.2393 45.49 40.9942 45.5408L40.2632 45.7017C39.2873 45.8377 38.2943 45.7831 37.3392 45.5408C36.8799 45.4126 36.4303 45.2514 35.9942 45.0584C35.5687 44.8347 35.1627 44.5755 34.7808 44.2835L36.0819 44.6052C36.5205 44.6052 36.9591 44.766 37.3977 44.8099C38.2811 44.9222 39.1752 44.9222 40.0585 44.8099C40.9646 44.6439 41.8352 44.3224 42.6316 43.8596C43.404 43.4753 44.0866 42.9323 44.6346 42.266H44.7223L44.7661 42.3245Z" fill="#00376E"/>
<path d="M47.9824 29.7806C48.4614 30.4448 48.7815 31.2101 48.9181 32.0175C48.9667 32.2145 49.0009 32.4149 49.0205 32.6169C49.0205 32.8216 49.0205 33.0116 49.0205 33.2163C49.0205 33.421 49.0205 34.0204 49.0205 34.4298C48.9483 35.2326 48.7764 36.0232 48.5088 36.7836C48.2502 37.5491 47.8647 38.2657 47.3684 38.9034C47.6138 38.1746 47.8188 37.4327 47.9824 36.6812C48.1395 35.9289 48.2469 35.167 48.3041 34.4005C48.3619 33.6365 48.3619 32.8692 48.3041 32.1052C48.261 31.3371 48.1285 30.5766 47.9093 29.8391L47.9824 29.7806Z" fill="#00376E"/>
<path d="M69.576 54.9414C69.576 54.9414 68.4941 58.6987 65.8772 59.0934C65.4532 59.0934 60.4532 58.8303 60.0292 58.918C48.8596 61.0964 40.7895 69.3712 38.962 83.7718L25.0585 85.1168C19.4444 85.2192 0 82.88 0 82.88C4.35672 70.6578 8.58187 64.1227 12.4708 59.2104C13.215 58.3726 14.0652 57.6354 15 57.0174L32.7485 48.2455C33.0688 49.524 33.5145 50.7679 34.0789 51.9589C37.8801 61.2426 46.3304 58.7718 44.5906 50.6285L44.2544 46.9297C44.2544 46.9297 60.0731 48.4502 69.576 54.9414Z" fill="#00376E"/>
<path d="M47.7925 26.3156C47.9836 26.1319 48.2165 25.9973 48.4712 25.9234C48.7259 25.8496 48.9947 25.8387 49.2545 25.8917C49.7644 25.9587 50.235 26.2018 50.5849 26.5788C50.9195 26.9425 51.1294 27.4034 51.1843 27.8946C51.2175 28.1273 51.2175 28.3636 51.1843 28.5963C51.1242 28.835 51.0255 29.0622 50.8919 29.2689L50.7457 28.7279C50.7457 28.5525 50.6287 28.377 50.5556 28.2016C50.4091 27.863 50.2065 27.5516 49.9562 27.2806C49.7018 27.012 49.3959 26.7972 49.0569 26.649C48.7179 26.5009 48.3525 26.4223 47.9825 26.418L47.7925 26.3156Z" fill="#00376E"/>
<path d="M20.9358 33.1432L22.0323 33.3332C22.3952 33.3936 22.7613 33.4327 23.1288 33.4502C23.4989 33.4713 23.8698 33.4713 24.2399 33.4502C24.6027 33.436 24.9618 33.3721 25.3072 33.2601L26.0235 32.9531C25.9712 33.1116 25.892 33.2599 25.7896 33.3917L25.6288 33.6256L25.4534 33.7865C25.2521 33.9106 25.036 34.0089 24.8101 34.0789C24.6104 34.1466 24.4048 34.1956 24.196 34.2251H23.582H22.9826C22.5907 34.1652 22.2076 34.0572 21.8422 33.9034C21.4656 33.7386 21.1196 33.5113 20.8188 33.2309L20.9358 33.1432Z" fill="#00376E"/>
<path d="M40.2485 41.9298C39.2376 41.8876 38.2445 41.6492 37.3246 41.228C31.4766 38.8304 28.5526 31.9298 28.5526 31.6374C28.499 31.5078 28.4882 31.3645 28.5218 31.2283C28.5554 31.0922 28.6317 30.9703 28.7394 30.8805C28.8471 30.7907 28.9807 30.7377 29.1207 30.7292C29.2607 30.7207 29.3998 30.7572 29.5176 30.8333C37.9094 36.345 43.9035 34.0204 43.9474 34.0058C44.0876 33.9566 44.2403 33.9563 44.3807 34.005C44.5211 34.0537 44.6409 34.1484 44.7206 34.2739C44.8003 34.3993 44.8351 34.548 44.8195 34.6958C44.8039 34.8436 44.7387 34.9817 44.6345 35.0877C43.9533 36.0971 43.5684 37.2772 43.5234 38.4941C43.5275 39.0912 43.3858 39.6803 43.1106 40.2102C42.8355 40.7401 42.4352 41.1949 41.9445 41.5351C41.4239 41.8139 40.8388 41.9501 40.2485 41.9298ZM30.7895 33.1579C32.3605 36.1148 34.8062 38.5146 37.7924 40.0292C38.3197 40.345 38.9104 40.5403 39.5221 40.6009C40.1338 40.6616 40.7513 40.5862 41.3304 40.3801C41.6388 40.1412 41.8859 39.8322 42.0511 39.4788C42.2164 39.1254 42.2951 38.7378 42.2807 38.3479C42.3518 37.4259 42.5587 36.5194 42.8947 35.6579C38.6921 36.246 34.4153 35.3628 30.7895 33.1579Z" fill="#00376E"/>
<path d="M47.7778 23.5964C47.8656 23.9327 47.8948 24.0935 47.8948 24.0935L47.7778 23.5964Z" fill="#003A6C"/>
<path d="M37.2514 11.8127C37.3265 11.8795 37.3821 11.9654 37.4122 12.0613C36.7982 12.0613 36.1257 12.0613 35.4824 12.0613C36.0664 11.9422 36.6572 11.8592 37.2514 11.8127Z" fill="#00376E"/>
<path d="M17.149 17.7339C17.2439 15.858 18.0182 14.0807 19.3274 12.7339C17.5584 12.997 16.8859 12.076 17.6169 12.0321C18.3111 11.8845 18.9806 11.6384 19.6052 11.3011C20.2539 11 20.8752 10.6429 21.4619 10.2339C22.5388 9.41156 23.5506 8.50731 24.4882 7.52919C24.4882 7.52919 24.4882 7.39761 24.4882 7.44147C20.9356 10.1608 18.1578 8.90346 19.1373 8.72802C20.0635 8.56285 20.9361 8.17668 21.6812 7.60229L22.4268 7.07597C23.1852 6.53384 23.9987 6.07321 24.8537 5.7017C25.4252 5.4555 26.0171 5.25982 26.6227 5.11691C27.8124 4.84498 29.0281 4.70282 30.2484 4.69293C29.5374 4.66265 28.834 4.53475 28.1578 4.31281C26.6958 3.74264 26.6958 2.85082 27.2221 3.07012C29.3859 3.84498 35.2631 3.17246 38.304 4.18123C38.304 4.18123 42.5438 5.64322 43.6695 9.18123C43.6695 9.18123 50.8625 10.8187 48.9911 23.3625L47.1929 23.8157C47.226 21.7248 46.8279 19.6495 46.0233 17.7192C45.7195 16.9094 45.2507 16.1715 44.6467 15.5524C44.0427 14.9333 43.3166 14.4464 42.5145 14.1228C42.3646 14.0569 42.2007 14.0292 42.0375 14.0419C41.8743 14.0547 41.7167 14.1076 41.5788 14.1959L41.4765 14.269C40.6661 14.6822 39.7693 14.8976 38.8595 14.8976C36.418 14.6783 33.6841 13.6695 31.5496 14.8099C29.4151 15.9502 28.4648 17.4268 26.3303 18.4649C25.8547 18.6922 25.3666 18.8923 24.8683 19.0643L23.8303 19.5321C22.3683 20.1315 23.3186 24.576 23.8303 26.5789C23.8303 26.6666 23.8303 26.7836 23.8303 26.9005C23.8428 27.1392 23.8428 27.3783 23.8303 27.6169C23.8452 27.822 23.81 28.0277 23.728 28.2163C23.71 28.2463 23.6862 28.2725 23.658 28.2932C23.6297 28.3139 23.5977 28.3288 23.5636 28.337C23.5296 28.3451 23.4943 28.3464 23.4597 28.3408C23.4252 28.3351 23.3921 28.3226 23.3625 28.304C23.1158 28.0543 22.9088 27.7683 22.7484 27.4561C21.9151 25.804 21.6227 24.9999 18.3625 24.5321C17.3945 22.4036 16.9772 20.0658 17.149 17.7339Z" fill="#003A6C"/>
<path d="M22.4854 9.94141C20.4207 11.1133 18.171 11.9242 15.8334 12.3391C15.3802 12.3391 15.3071 12.9092 15.6287 13.2163C16.9006 14.4005 19.4445 14.3859 21.579 13.4063C25.0001 11.842 22.4854 9.94141 22.4854 9.94141Z" fill="#00376E"/>
<path d="M31.0965 7.95307C30.5106 8.12317 29.9388 8.33823 29.386 8.59634C28.8304 8.84488 28.3041 9.18114 27.7632 9.47354C28.6996 8.49349 29.8393 7.7304 31.1022 7.23789C32.365 6.74537 33.7204 6.53538 35.0731 6.62266C37.5756 6.91852 39.871 8.15771 41.4913 10.0876C40.5488 9.30553 39.4878 8.67876 38.348 8.23085L37.7778 8.02617C37.2293 7.84474 36.667 7.70785 36.0965 7.61681H35.731C35.4159 7.57165 35.0988 7.54237 34.7807 7.52909H34.1375C33.1078 7.50944 32.0815 7.65253 31.0965 7.95307Z" fill="white"/>
<path d="M35.234 9.78059C35.4401 9.72143 35.6502 9.67745 35.8627 9.64901H36.0674C37.1878 9.52567 38.3199 9.72875 39.3276 10.2338C39.8169 10.4749 40.2657 10.7905 40.658 11.1695L40.965 11.4911L40.6726 11.3595C40.1961 11.1343 39.7081 10.9343 39.2107 10.7601C38.5963 10.5581 37.9651 10.4114 37.3247 10.3215C36.7224 10.2519 36.1141 10.2519 35.5118 10.3215H35.3949C34.7576 10.4058 34.1395 10.5987 33.5674 10.8917C33.9965 10.3599 34.5781 9.97219 35.234 9.78059Z" fill="white"/>
<path d="M21.1112 12.88C22.6538 12.5653 24.086 11.8492 25.2633 10.804C24.9445 11.6123 24.3384 12.2744 23.5612 12.6629C22.784 13.0515 21.8906 13.1392 21.0527 12.9092L21.1112 12.88Z" fill="white"/>
<path d="M78.2602 56.4911C78.1871 56.7835 78.0994 57.0759 77.9971 57.3829C78.0994 57.0905 78.1871 56.7981 78.2602 56.5057V56.4911Z" fill="#0081F2"/>
<path d="M76.7983 60.0877L76.3013 61.0818C76.3073 60.9796 76.3073 60.8771 76.3013 60.7748C76.4792 60.5549 76.6451 60.3255 76.7983 60.0877Z" fill="#0081F2"/>
<path d="M45.7895 73.9619C46.8441 68.8967 49.8138 64.4343 54.079 61.5057C49.8127 64.4332 46.8427 68.8961 45.7895 73.9619Z" fill="#003A6C"/>
<path d="M45.8479 74.7368C45.7841 74.4824 45.7841 74.2163 45.8479 73.9619C46.9025 68.8967 49.8722 64.4343 54.1373 61.5058C54.9562 60.9307 55.8107 60.4082 56.6958 59.9414L57.88 59.342C59.0789 58.7718 61.5496 56.8274 62.7923 56.418C62.7923 56.418 76.9297 52.4414 77.9677 58.1139C77.9677 58.2017 76.3303 61.0379 76.3303 61.1403L73.0847 67.6023C72.9309 67.8483 72.7204 68.0539 72.4707 68.2017L72.3391 68.2894C72.014 68.4577 71.6524 68.543 71.2865 68.5379H71.0672C68.6206 68.2604 66.1468 68.7185 63.9619 69.8537C62.3963 70.6626 61.0742 71.8736 60.1315 73.3625C59.8433 73.8263 59.5986 74.3157 59.4005 74.8245C59.2344 75.2296 58.9283 75.5617 58.5379 75.7601C58.3354 75.8614 58.1184 75.9304 57.8946 75.9648H57.5291L47.9824 76.1256C47.5897 76.1296 47.2024 76.0341 46.8566 75.8479C46.4085 75.6239 46.0632 75.2367 45.8917 74.766L45.8479 74.7368Z" fill="#00376E"/>
<path d="M62.7339 51.5935C62.5731 52.5438 61.8713 54.883 61.7251 55.6725L61.6082 56.3596C61.5422 56.8447 61.5422 57.3365 61.6082 57.8216C60.3605 58.232 59.1398 58.7203 57.9532 59.2836L56.769 59.883C55.8623 60.3665 54.9882 60.9086 54.152 61.5058C49.8858 64.4333 46.9158 68.8961 45.8626 73.9619C45.7988 74.2163 45.7988 74.4824 45.8626 74.7368C46.034 75.2075 46.3793 75.5947 46.8275 75.8186C47.1776 76.0073 47.5702 76.1029 47.9678 76.0964L57.5146 76.0233H57.8801C58.1038 75.9885 58.3207 75.9194 58.5234 75.8186C58.9137 75.6202 59.2198 75.2881 59.386 74.883C59.5841 74.3742 59.8288 73.8848 60.117 73.421C61.0619 71.934 62.3834 70.7234 63.9474 69.9122C66.1323 68.777 68.6061 68.3189 71.0526 68.5964H71.2719C71.638 68.6021 71.9997 68.5167 72.3246 68.3479L72.4561 68.2602C72.7058 68.1124 72.9164 67.9068 73.0702 67.6608L76.3012 61.1988L76.7982 60.0877C77.0145 59.7289 77.2098 59.3579 77.383 58.9765C77.5585 58.611 77.7193 58.2309 77.8655 57.807C77.8655 57.6608 77.9532 57.5146 78.0117 57.3684C78.0702 57.2222 78.2017 56.7836 78.2748 56.4765C78.4837 55.6969 78.6159 54.8988 78.6696 54.0935C78.6696 53.845 78.5672 52.7339 78.5672 52.4853C82.5872 54.0408 85.9066 57.0017 87.9094 60.8186C87.9094 60.8186 85.5702 76.2719 85.4386 76.5643L65.9064 83.8742L36.7836 89.4005C34.0936 61.3157 55.6287 51.8713 62.7339 51.5935Z" fill="#FF8D00"/>
<path d="M50.8916 59.7368C46.3003 64.1368 43.0724 69.7653 41.5934 75.9502C41.556 74.3126 41.7781 72.6793 42.2513 71.111C42.4395 70.2991 42.6738 69.4986 42.953 68.7134C43.2747 67.9678 43.6548 67.2514 44.0495 66.5204C44.4443 65.7894 44.9121 65.1315 45.3946 64.4736C45.8859 63.8212 46.413 63.1964 46.9735 62.6023C48.0873 61.4007 49.3852 60.3841 50.8185 59.5906V59.6783L50.8916 59.7368Z" fill="white"/>
<path d="M78.5673 52.5292C78.5673 52.5292 69.0351 48.0701 56.3889 53.2017L58.6696 58.9034C58.6696 58.9034 71.3889 53.6549 77.3977 58.9912C82.7778 63.7719 80.541 57.2368 80.541 57.2368L78.5673 52.5292Z" fill="#FF8D00"/>
<path d="M63.6404 51.1695C63.6404 51.1695 61.3158 58.0994 63.0556 59.1081C64.7953 60.1169 69.4883 58.4795 69.4883 58.4795L69.9123 53.3771L68.9474 50.6578L65.424 50.7748L63.6404 51.1695Z" fill="white"/>
<path d="M62.2805 58.3624C62.0011 58.5664 61.7704 58.8297 61.605 59.1336C61.4396 59.4374 61.3436 59.7742 61.3241 60.1196C61.3045 60.465 61.3618 60.8104 61.4918 61.131C61.6218 61.4516 61.8213 61.7393 62.0759 61.9735C63.2601 62.8215 64.2835 62.2075 65.6577 62.7776C66.674 63.2626 67.7782 63.5361 68.9034 63.5817C69.1924 63.585 69.4744 63.492 69.7047 63.3173C69.935 63.1425 70.1006 62.8961 70.1753 62.6168C70.3507 61.7689 69.5612 60.994 68.494 60.4677" fill="white"/>
<path d="M68.8011 64.1958C67.6274 64.1274 66.477 63.8398 65.4092 63.3478C64.9418 63.1741 64.4459 63.0897 63.9473 63.0993C63.1484 63.1397 62.3581 62.919 61.6958 62.4706C61.3513 62.2203 61.0765 61.8861 60.8974 61.4998C60.7183 61.1134 60.6408 60.6877 60.6724 60.263C60.682 59.7876 60.8019 59.321 61.0226 58.8998C61.2433 58.4787 61.5589 58.1145 61.9443 57.8361C62.084 57.7756 62.2409 57.7678 62.3859 57.8142C62.5309 57.8606 62.6541 57.958 62.7327 58.0884C62.8113 58.2188 62.8399 58.3733 62.8132 58.5232C62.7865 58.673 62.7064 58.8082 62.5876 58.9034C62.3762 59.0837 62.2065 59.3079 62.0903 59.5603C61.9742 59.8128 61.9144 60.0875 61.9151 60.3654C61.8909 60.5859 61.9255 60.8089 62.0154 61.0118C62.1052 61.2146 62.2472 61.3901 62.4268 61.5204C62.8894 61.8233 63.4402 61.9623 63.9911 61.9151C64.6403 61.9045 65.2855 62.0187 65.8917 62.2513C66.8047 62.7005 67.7995 62.9591 68.8157 63.0116C68.965 63.0152 69.1114 62.97 69.2327 62.883C69.3541 62.7959 69.4437 62.6717 69.4882 62.5291C69.6051 62.0028 68.8595 61.4326 68.1285 61.0671C68.0038 60.9836 67.913 60.8581 67.8727 60.7135C67.8324 60.5688 67.8452 60.4145 67.9088 60.2785C67.9724 60.1425 68.0826 60.0337 68.2194 59.9719C68.3563 59.91 68.5107 59.8992 68.6549 59.9414C70.1168 60.687 70.8917 61.725 70.6724 62.7777C70.571 63.1939 70.333 63.5641 69.9964 63.8292C69.6598 64.0942 69.2441 64.2387 68.8157 64.2396L68.8011 64.1958Z" fill="#00376E"/>
<path d="M72.2951 59.9414C72.4863 60.2353 72.7684 60.4586 73.0983 60.5774C73.4282 60.6961 73.7879 60.7038 74.1226 60.5993C76.5934 60.1022 79.0641 56.608 77.5875 52.0028C77.4386 51.4768 77.1287 51.0106 76.7013 50.6697C76.2739 50.3288 75.7504 50.1304 75.2045 50.1022C74.8961 49.601 74.4437 49.2044 73.9064 48.9645C73.369 48.7245 72.7718 48.6522 72.1928 48.7572C71.8755 48.177 71.3567 47.7333 70.7344 47.5097C70.1121 47.2861 69.4295 47.2982 68.8156 47.5437C68.4942 47.1817 68.066 46.9313 67.5929 46.8288C67.1198 46.7263 66.6264 46.777 66.184 46.9735C65.477 47.3931 64.8785 47.9729 64.4366 48.6661C63.9948 49.3594 63.7219 50.1467 63.6401 50.9648" fill="white"/>
<path d="M73.6402 61.4034C73.2599 61.4141 72.8836 61.3237 72.5497 61.1413C72.2157 60.9589 71.9362 60.6912 71.7397 60.3654C71.689 60.293 71.6541 60.2107 71.6374 60.1239C71.6206 60.0371 71.6224 59.9477 71.6425 59.8616C71.6627 59.7756 71.7007 59.6947 71.7542 59.6243C71.8078 59.554 71.8755 59.4957 71.9531 59.4533C72.0307 59.4109 72.1163 59.3853 72.2044 59.3782C72.2926 59.3712 72.3812 59.3828 72.4645 59.4123C72.5479 59.4418 72.624 59.4886 72.6881 59.5495C72.7521 59.6105 72.8026 59.6842 72.8361 59.766C72.9666 59.9394 73.1488 60.0668 73.3564 60.1299C73.564 60.1929 73.7863 60.1884 73.9911 60.1169C74.5407 59.969 75.054 59.7097 75.4992 59.3551C75.9443 59.0004 76.3118 58.5581 76.5788 58.0555C77.0575 57.1842 77.3431 56.2202 77.4162 55.2288C77.4894 54.2375 77.3484 53.2419 77.0028 52.3099C76.8976 51.9066 76.6665 51.5474 76.3431 51.2844C76.0197 51.0215 75.6208 50.8686 75.2046 50.8479H74.8391L74.6636 50.5263C74.4237 50.1377 74.072 49.8307 73.6546 49.6454C73.2372 49.4602 72.7735 49.4054 72.3244 49.4882L71.8859 49.5613L71.6666 49.1666C71.4259 48.7161 71.0255 48.3717 70.544 48.2013C70.0625 48.0309 69.5347 48.0467 69.0642 48.2455L68.6987 48.3917L68.4063 48.1286C68.1695 47.8424 67.8445 47.6426 67.4821 47.5607C67.1197 47.4787 66.7404 47.519 66.4034 47.6754C65.5116 47.997 64.7075 49.3128 64.2689 51.1695C64.2147 51.3109 64.1113 51.428 63.9777 51.4993C63.8441 51.5705 63.6892 51.5911 63.5416 51.5573C63.394 51.5235 63.2635 51.4376 63.1742 51.3153C63.0849 51.193 63.0427 51.0426 63.0554 50.8917C63.5964 48.5526 64.6344 46.9882 65.9794 46.5058C66.4607 46.3015 66.9894 46.2358 67.506 46.3158C68.0226 46.3959 68.5066 46.6187 68.9034 46.959C69.5527 46.7705 70.2447 46.7905 70.882 47.0161C71.5193 47.2416 72.0698 47.6614 72.456 48.2163C73.0481 48.1767 73.6403 48.2904 74.1756 48.5465C74.7108 48.8026 75.171 49.1924 75.5116 49.6783C76.1174 49.7771 76.6831 50.0449 77.1435 50.451C77.6039 50.857 77.9402 51.3848 78.1139 51.9736C78.5105 53.0723 78.6687 54.2429 78.5779 55.4075C78.4872 56.572 78.1496 57.704 77.5876 58.728C77.236 59.3824 76.7512 59.956 76.1645 60.4117C75.5778 60.8675 74.9022 61.1953 74.1812 61.3742C74.0021 61.3997 73.8211 61.4095 73.6402 61.4034Z" fill="#00376E"/>
<path d="M68.6548 59.5613C68.7079 59.8652 68.848 60.1472 69.0582 60.3729C69.2685 60.5987 69.5397 60.7586 69.839 60.8333C71.4033 61.2572 72.763 59.7368 73.2162 59.1666C74.5068 57.2096 75.0515 54.8541 74.7513 52.5292" fill="white"/>
<path d="M68.7281 59.5467C68.7737 59.7974 68.884 60.0318 69.0481 60.2267C69.2123 60.4216 69.4245 60.5702 69.6637 60.6578C69.9025 60.7455 70.155 60.79 70.4093 60.7894C70.664 60.7796 70.9155 60.7303 71.155 60.6432C71.6393 60.4539 72.0815 60.1707 72.4561 59.8099C72.8398 59.4588 73.1655 59.0493 73.421 58.5964C73.9344 57.6791 74.3182 56.6951 74.5614 55.6725C74.8261 54.6456 74.8709 53.5745 74.693 52.5292C75.2967 53.5451 75.5389 54.7353 75.3801 55.9064C75.3302 56.487 75.2175 57.0606 75.0438 57.6169C74.8818 58.1862 74.6562 58.7354 74.3713 59.2543C74.2956 59.3949 74.2126 59.5316 74.1228 59.6637C74.0288 59.8062 73.9262 59.9429 73.8158 60.073C73.6066 60.3166 73.3767 60.5417 73.1286 60.7455C72.6218 61.1824 72.0217 61.4974 71.3743 61.6666C71.0158 61.7223 70.6509 61.7223 70.2924 61.6666C69.9301 61.6149 69.5821 61.4906 69.269 61.3011C68.9625 61.1062 68.7189 60.827 68.5672 60.497C68.4378 60.1976 68.4071 59.8648 68.4795 59.5467H68.7281Z" fill="#00376E"/>
<path d="M65.1023 58.7864C65.1023 58.7864 65.19 60.7163 66.9883 60.6432C68.7865 60.5701 71.9152 56.2572 71.7982 51.5057" fill="white"/>
<path d="M65.1022 58.7864C65.1178 59.0656 65.1892 59.3389 65.3122 59.59C65.4353 59.8411 65.6075 60.065 65.8186 60.2484C66.0462 60.4067 66.3091 60.5068 66.5844 60.54C66.8597 60.5731 67.1389 60.5383 67.3975 60.4385C67.9175 60.2096 68.3814 59.8703 68.7572 59.4443C69.149 59.0227 69.4968 58.5622 69.7952 58.07C71.0303 56.0996 71.6746 53.8165 71.6519 51.4911C72.0979 52.6651 72.224 53.9365 72.0174 55.1753C71.9774 55.7981 71.8745 56.4153 71.7104 57.0174C71.5068 57.6178 71.2524 58.1998 70.9502 58.7572C70.2427 60.0013 69.1035 60.9428 67.7484 61.4034C67.5383 61.4585 67.3223 61.4879 67.1051 61.4911C66.9218 61.4855 66.7399 61.4561 66.5642 61.4034C66.1591 61.3082 65.7891 61.1004 65.497 60.804C65.2604 60.5403 65.0947 60.2209 65.0154 59.8756C64.9362 59.5304 64.9459 59.1707 65.0437 58.8303H65.1168L65.1022 58.7864Z" fill="#00376E"/>
<path d="M63.4793 60.0877C63.2332 60.094 62.9889 60.0431 62.7656 59.9391C62.5424 59.8351 62.3463 59.6808 62.1928 59.4883C61.9099 58.9265 61.7411 58.3144 61.6959 57.6871C61.6507 57.0598 61.7302 56.4297 61.9296 55.8333L63.0992 50.5994L64.3127 50.8771L63.1431 56.1111C62.8255 56.9545 62.8255 57.8846 63.1431 58.728C63.1806 58.776 63.2301 58.8134 63.2865 58.8364C63.3429 58.8595 63.4043 58.8675 63.4647 58.8596C63.6131 58.8824 63.7485 58.9576 63.8463 59.0716C63.944 59.1856 63.9978 59.3308 63.9978 59.4809C63.9978 59.6311 63.944 59.7763 63.8463 59.8903C63.7485 60.0042 63.6131 60.0795 63.4647 60.1023L63.4793 60.0877Z" fill="#00376E"/>
<path d="M63.0995 56.1548C62.968 56.8566 62.4709 59.7367 63.9914 59.3712C67.0908 58.6402 68.4797 50.4823 68.4797 50.4823" fill="white"/>
<path d="M63.1578 56.1694C63.0425 56.7471 62.9837 57.3347 62.9824 57.9238C62.9781 58.2156 63.0175 58.5063 63.0993 58.7864C63.1272 58.9154 63.1917 59.0337 63.2851 59.127C63.3784 59.2203 63.4966 59.2848 63.6257 59.3127C63.7555 59.3427 63.8905 59.3427 64.0204 59.3127C64.1575 59.274 64.2899 59.22 64.4151 59.1519C64.668 59.016 64.8996 58.8436 65.1023 58.6402C65.5134 58.2058 65.8583 57.7132 66.1257 57.1782C66.6924 56.1405 67.1529 55.0483 67.4999 53.918C67.8588 52.7908 68.1517 51.6436 68.3771 50.4823C68.6036 51.7098 68.6036 52.9683 68.3771 54.1958C68.3049 54.8175 68.1876 55.4331 68.0262 56.0379C67.8118 56.6458 67.5427 57.233 67.2221 57.7922C66.8813 58.4013 66.4359 58.9457 65.9064 59.4004C65.6096 59.6603 65.2742 59.8724 64.9122 60.0291C64.7145 60.1098 64.5086 60.1686 64.2982 60.2045C64.0378 60.2585 63.7691 60.2585 63.5087 60.2045C63.1771 60.1432 62.8801 59.9608 62.6754 59.6928C62.5215 59.4905 62.4165 59.2553 62.3683 59.0057C62.301 58.6482 62.301 58.2813 62.3683 57.9238C62.4843 57.2982 62.7016 56.6958 63.0116 56.1402H63.0993L63.1578 56.1694Z" fill="#00376E"/>
<path d="M78.2601 57.149C77.0771 60.9203 75.2737 64.468 72.9238 67.6461L73.9034 62.0613L77.1928 58.7134L78.2601 57.149Z" fill="#00376E"/>
</g>
</g>
<defs>
<linearGradient id="paint0_linear_1801_11193" x1="35.5848" y1="12.4123" x2="49.0497" y2="68.2456" gradientUnits="userSpaceOnUse">
<stop stop-color="#00C6F9"/>
<stop offset="0.42" stop-color="#00C6F9"/>
<stop offset="0.79" stop-color="#009CE0"/>
<stop offset="1" stop-color="#0089D5"/>
</linearGradient>
<clipPath id="clip0_1801_11193">
<rect width="87.9094" height="89.4005" fill="white"/>
</clipPath>
</defs>
</svg>
