<svg width="80" height="22" viewBox="0 0 80 22" fill="none" xmlns="http://www.w3.org/2000/svg">
<g clip-path="url(#clip0_1801_11068)">
<g clip-path="url(#clip1_1801_11068)">
<path d="M16.392 0H5.496C2.46064 0 0 2.46064 0 5.496V16.392C0 19.4273 2.46064 21.888 5.496 21.888H16.392C19.4274 21.888 21.888 19.4273 21.888 16.392V5.496C21.888 2.46064 19.4274 0 16.392 0Z" fill="url(#paint0_linear_1801_11068)"/>
<mask id="mask0_1801_11068" style="mask-type:luminance" maskUnits="userSpaceOnUse" x="0" y="0" width="22" height="22">
<path d="M16.392 0H5.496C2.46064 0 0 2.46064 0 5.496V16.392C0 19.4273 2.46064 21.888 5.496 21.888H16.392C19.4274 21.888 21.888 19.4273 21.888 16.392V5.496C21.888 2.46064 19.4274 0 16.392 0Z" fill="white"/>
</mask>
<g mask="url(#mask0_1801_11068)">
<path d="M5.67203 7.05604C5.52508 6.87748 5.32828 6.74673 5.10671 6.68047C4.88515 6.61422 4.64888 6.61546 4.42803 6.68404C4.02803 6.84004 3.76803 7.53204 4.02803 8.17604C4.54403 9.48404 6.02803 9.32404 6.02803 9.32404C6.34798 10.4156 7.06035 11.3502 8.02803 11.948C8.51603 13.464 8.63603 15.148 9.02003 15.58C9.90003 16.6 10.464 17.336 10.464 17.336L12 15.2C11.836 14.096 11.272 12.1 11.42 11.98C12.816 10.82 12.768 8.83204 12.768 8.83204C12.9528 8.82174 13.1325 8.76735 13.292 8.67343C13.4515 8.57951 13.5862 8.44878 13.6849 8.29217C13.7836 8.13555 13.8433 7.95759 13.8592 7.77317C13.875 7.58874 13.8465 7.4032 13.776 7.23204C13.7372 7.09676 13.6706 6.97106 13.5805 6.86297C13.4904 6.75488 13.3787 6.66677 13.2526 6.60429C13.1265 6.5418 12.9887 6.5063 12.8481 6.50006C12.7075 6.49382 12.5672 6.51697 12.436 6.56804C12.436 6.56804 12.68 2.56805 8.91603 2.99205C7.12403 3.18805 5.82803 4.06805 5.48803 4.95604C5.20003 5.73204 5.67203 7.05604 5.67203 7.05604Z" fill="white"/>
<path d="M10.4519 17.512C10.4249 17.5122 10.3982 17.5061 10.374 17.4943C10.3497 17.4825 10.3284 17.4653 10.3119 17.444C10.3119 17.444 9.73989 16.7 8.87589 15.7C8.62789 15.412 8.47589 14.76 8.32389 13.936C8.20389 13.356 8.06789 12.7 7.87189 12.072C6.94143 11.4709 6.24754 10.5664 5.90789 9.512C5.48032 9.53297 5.05649 9.42326 4.6928 9.19746C4.3291 8.97167 4.04277 8.6405 3.87189 8.248C3.71621 7.86315 3.71621 7.43286 3.87189 7.048C3.91688 6.93267 3.98421 6.82737 4.07002 6.73813C4.15582 6.64889 4.25841 6.57749 4.37189 6.528C4.53121 6.46566 4.70228 6.43908 4.873 6.45014C5.04373 6.4612 5.20994 6.50963 5.35989 6.592C5.20389 6.05073 5.1956 5.47756 5.33589 4.93201C5.73589 3.89601 7.19589 3.04401 8.90789 2.85601C10.0399 2.73201 10.9359 2.98001 11.5799 3.58801C12.5039 4.46801 12.6239 5.83201 12.6319 6.388C12.8714 6.34735 13.1176 6.37795 13.3399 6.476C13.4857 6.5488 13.6152 6.65053 13.7204 6.77501C13.8256 6.89948 13.9044 7.04409 13.9519 7.2C14.0296 7.40366 14.0572 7.62307 14.0321 7.83962C14.007 8.05618 13.9301 8.2635 13.8079 8.444C13.709 8.58988 13.582 8.71456 13.4344 8.81072C13.2867 8.90688 13.1213 8.97259 12.9479 9.004C12.9279 9.512 12.7639 11.076 11.5759 12.096C11.6362 12.5921 11.7284 13.0838 11.8519 13.568C11.9799 14.14 12.1079 14.728 12.1799 15.168C12.1836 15.191 12.1826 15.2146 12.1771 15.2372C12.1716 15.2599 12.1617 15.2812 12.1479 15.3L10.5919 17.42C10.5755 17.4418 10.5544 17.4596 10.5302 17.4721C10.5059 17.4846 10.4792 17.4914 10.4519 17.492V17.512ZM6.05189 9.148C6.09065 9.14742 6.12853 9.15964 6.15963 9.18279C6.19073 9.20594 6.21332 9.2387 6.22389 9.276C6.52978 10.3169 7.20362 11.2111 8.11989 11.792C8.15968 11.8133 8.18975 11.8491 8.20389 11.892C8.39962 12.5377 8.56117 13.1933 8.68789 13.856C8.83589 14.568 8.97589 15.244 9.16389 15.456C9.77989 16.172 10.2439 16.752 10.4679 17.032L11.8399 15.16C11.7719 14.728 11.6479 14.172 11.5279 13.64C11.2039 12.192 11.1799 11.972 11.3319 11.848C12.6439 10.756 12.6159 8.86 12.6159 8.844C12.6154 8.82089 12.6194 8.7979 12.6277 8.77634C12.6361 8.75478 12.6486 8.73508 12.6646 8.71837C12.6806 8.70165 12.6997 8.68825 12.7208 8.67892C12.742 8.66959 12.7648 8.66452 12.7879 8.664C12.9368 8.65573 13.0818 8.61316 13.2115 8.53961C13.3413 8.46606 13.4523 8.36353 13.5359 8.24C13.6187 8.10269 13.6676 7.94767 13.6788 7.78772C13.6899 7.62777 13.6629 7.46746 13.5999 7.32C13.5389 7.1014 13.3955 6.91498 13.1999 6.8C12.9827 6.71305 12.7418 6.70596 12.5199 6.78C12.4922 6.79088 12.4623 6.79458 12.4328 6.79076C12.4034 6.78694 12.3753 6.77572 12.3514 6.75815C12.3274 6.74058 12.3083 6.71723 12.2958 6.69027C12.2833 6.66332 12.2778 6.63364 12.2799 6.604C12.2799 6.604 12.3719 4.83201 11.3399 3.85201C10.7759 3.31601 9.97589 3.10001 8.93989 3.21601C7.09189 3.42001 5.94389 4.31601 5.65989 5.06401C5.40389 5.74801 5.83189 7 5.83589 7.016C5.85222 7.05567 5.8535 7.09994 5.83949 7.14049C5.82549 7.18104 5.79715 7.21507 5.75981 7.2362C5.72247 7.25732 5.67871 7.26408 5.63673 7.25521C5.59476 7.24633 5.55748 7.22243 5.53189 7.188C5.4091 7.03738 5.24415 6.92685 5.05815 6.87055C4.87216 6.81425 4.67359 6.81476 4.48789 6.872C4.34882 6.93985 4.24134 7.05879 4.18789 7.204C4.06584 7.50269 4.06584 7.83732 4.18789 8.136C4.65589 9.28 5.99989 9.152 5.99989 9.148H6.05189Z" fill="#00376E"/>
<path d="M4.46802 7.26404C4.51489 7.20558 4.57723 7.16147 4.64795 7.13671C4.71867 7.11196 4.79492 7.10757 4.86802 7.12404C5.00956 7.15035 5.13871 7.22195 5.23602 7.32804C5.32663 7.42194 5.3914 7.53769 5.42402 7.66404C5.46339 7.79447 5.46339 7.93361 5.42402 8.06404C5.37202 7.96804 5.32002 7.86804 5.26002 7.77604C5.20251 7.68393 5.13548 7.59812 5.06002 7.52004C4.98849 7.43945 4.90141 7.37415 4.80402 7.32804C4.7072 7.28093 4.59759 7.26687 4.49202 7.28804L4.46802 7.26404Z" fill="#00376E"/>
<path d="M11.5999 6.45995C11.5644 6.45996 11.5298 6.44927 11.5006 6.42929C11.4713 6.40931 11.4488 6.38096 11.4359 6.34795C11.4011 6.2426 11.3458 6.14519 11.2732 6.06134C11.2005 5.97748 11.112 5.90884 11.0127 5.85938C10.9134 5.80991 10.8053 5.78061 10.6946 5.77316C10.584 5.7657 10.4729 5.78025 10.3679 5.81595C10.3228 5.83027 10.2739 5.82609 10.2318 5.80434C10.1898 5.78259 10.1582 5.74503 10.1439 5.69995C10.1295 5.65486 10.1337 5.60593 10.1555 5.56392C10.1772 5.52192 10.2148 5.49027 10.2599 5.47595C10.557 5.37844 10.8805 5.40081 11.1615 5.53828C11.4424 5.67575 11.6585 5.91747 11.7639 6.21195C11.7751 6.23883 11.7795 6.26809 11.7767 6.29709C11.7739 6.3261 11.7639 6.35395 11.7476 6.37813C11.7314 6.40232 11.7093 6.4221 11.6836 6.43568C11.6578 6.44926 11.629 6.45622 11.5999 6.45595V6.45995Z" fill="#00376E"/>
<path d="M7.04392 6.39997C6.99823 6.399 6.95462 6.38069 6.92194 6.34875C6.88925 6.3168 6.86994 6.27363 6.86792 6.22797C6.92388 5.98492 7.06598 5.77035 7.26792 5.62397C7.42947 5.50723 7.61756 5.43257 7.81519 5.40673C8.01283 5.38089 8.21379 5.40469 8.39992 5.47597C8.44501 5.48976 8.48277 5.5209 8.5049 5.56253C8.52703 5.60417 8.53171 5.65289 8.51792 5.69797C8.50413 5.74306 8.47299 5.78082 8.43136 5.80295C8.38973 5.82508 8.34101 5.82976 8.29592 5.81597C8.17993 5.77257 8.05638 5.75304 7.93266 5.75853C7.80894 5.76403 7.6876 5.79445 7.57592 5.84797C7.41473 5.9375 7.28804 6.07827 7.21592 6.24797C7.20859 6.28863 7.1875 6.32554 7.15618 6.35249C7.12486 6.37944 7.08522 6.39479 7.04392 6.39597V6.39997Z" fill="#00376E"/>
<path d="M7.69199 6.80005C7.73599 7.06005 7.89599 7.24805 8.05199 7.22405C8.20799 7.20005 8.29999 6.96805 8.25599 6.70805C8.21199 6.44805 8.05199 6.26005 7.89599 6.28405C7.73999 6.30805 7.65199 6.52005 7.69199 6.80005Z" fill="#00376E"/>
<path d="M10.612 6.86797C10.652 7.10797 10.8 7.26797 10.944 7.26797C11.088 7.26797 11.172 7.03197 11.132 6.79197C11.092 6.55197 10.944 6.39197 10.8 6.39197C10.656 6.39197 10.572 6.63197 10.612 6.86797Z" fill="#00376E"/>
<path d="M9.96397 8.86394C9.92637 8.86271 9.89035 8.84859 9.86192 8.82396C9.8335 8.79933 9.81441 8.76568 9.80784 8.72864C9.80128 8.69161 9.80765 8.65344 9.82588 8.62054C9.8441 8.58765 9.87309 8.56201 9.90797 8.54794C9.92916 8.5428 9.94769 8.52997 9.95997 8.51194C9.99197 8.43194 9.88797 8.19594 9.79597 7.98794C9.70441 7.78915 9.62558 7.58473 9.55997 7.37594C9.45735 7.0953 9.43927 6.79074 9.50797 6.49994C9.52007 6.46176 9.54572 6.42933 9.58009 6.40877C9.61445 6.3882 9.65516 6.38093 9.69452 6.38831C9.73388 6.39569 9.76919 6.41722 9.79377 6.44883C9.81835 6.48045 9.83052 6.51997 9.82797 6.55994V6.59194C9.77781 6.82248 9.79446 7.06254 9.87597 7.28394C9.93849 7.47914 10.0133 7.67019 10.1 7.85594C10.24 8.17594 10.352 8.42794 10.264 8.65594C10.2416 8.70624 10.2091 8.75139 10.1685 8.78856C10.1279 8.82573 10.08 8.85411 10.028 8.87194L9.96397 8.86394Z" fill="#00376E"/>
<path d="M11.6361 11.58C11.555 11.8413 11.3871 12.0671 11.1601 12.22C11.1054 12.2621 11.0464 12.2983 10.9841 12.328C10.9244 12.356 10.8629 12.3801 10.8001 12.4C10.7367 12.426 10.6711 12.4461 10.6041 12.46L10.4041 12.504C10.1371 12.5412 9.86536 12.5262 9.60405 12.46C9.47837 12.4249 9.35538 12.3808 9.23605 12.328C9.11962 12.2668 9.00856 12.1958 8.90405 12.116L9.26005 12.204C9.38005 12.204 9.50005 12.248 9.62005 12.26C9.86174 12.2907 10.1064 12.2907 10.3481 12.26C10.596 12.2146 10.8341 12.1266 11.0521 12C11.2634 11.8948 11.4501 11.7463 11.6001 11.564H11.6241L11.6361 11.58Z" fill="#00376E"/>
<path d="M12.5159 8.14795C12.6469 8.32967 12.7345 8.53905 12.7719 8.75995C12.7852 8.81386 12.7946 8.86867 12.7999 8.92395C12.7999 8.97995 12.7999 9.03195 12.7999 9.08795C12.7999 9.14395 12.7999 9.30795 12.7999 9.41995C12.7802 9.63959 12.7331 9.85593 12.6599 10.0639C12.5891 10.2734 12.4837 10.4695 12.3479 10.6439C12.415 10.4445 12.4711 10.2416 12.5159 10.0359C12.5589 9.8301 12.5883 9.62165 12.6039 9.41195C12.6197 9.20291 12.6197 8.99298 12.6039 8.78395C12.5921 8.57379 12.5559 8.36572 12.4959 8.16395L12.5159 8.14795Z" fill="#00376E"/>
<path d="M18.4239 15.032C18.4239 15.032 18.1279 16.06 17.4119 16.168C17.2959 16.168 15.9279 16.096 15.8119 16.12C12.7559 16.716 10.5479 18.98 10.0479 22.92L6.24394 23.288C4.70794 23.316 -0.612061 22.676 -0.612061 22.676C0.579939 19.332 1.73594 17.544 2.79994 16.2C3.00355 15.9707 3.23618 15.769 3.49194 15.6L8.34794 13.2C8.43557 13.5498 8.5575 13.8901 8.71194 14.216C9.75194 16.756 12.0639 16.08 11.5879 13.852L11.4959 12.84C11.4959 12.84 15.8239 13.256 18.4239 15.032Z" fill="#00376E"/>
<path d="M12.4639 7.19999C12.5162 7.14971 12.5799 7.11289 12.6496 7.09268C12.7192 7.07247 12.7928 7.06949 12.8639 7.08399C13.0034 7.10233 13.1321 7.16883 13.2279 7.27199C13.3194 7.3715 13.3769 7.4976 13.3919 7.63199C13.4009 7.69566 13.4009 7.76031 13.3919 7.82399C13.3754 7.88928 13.3484 7.95144 13.3119 8.00799L13.2719 7.85999C13.2719 7.81199 13.2399 7.76399 13.2199 7.71599C13.1798 7.62335 13.1243 7.53815 13.0559 7.46399C12.9862 7.3905 12.9026 7.33174 12.8098 7.2912C12.717 7.25066 12.6171 7.22917 12.5159 7.22799L12.4639 7.19999Z" fill="#00376E"/>
<path d="M5.11598 9.06799L5.41598 9.11999C5.51527 9.13651 5.61545 9.14719 5.71598 9.15199C5.81724 9.15777 5.91873 9.15777 6.01998 9.15199C6.11924 9.14812 6.21749 9.13062 6.31198 9.09999L6.50798 9.01599C6.49366 9.05935 6.47201 9.09994 6.44398 9.13599L6.39998 9.19999L6.35198 9.24399C6.29692 9.27796 6.23779 9.30484 6.17598 9.32399C6.12136 9.34254 6.06511 9.35593 6.00798 9.36399H5.83998H5.67598C5.56875 9.34763 5.46396 9.31807 5.36398 9.27599C5.26093 9.23091 5.16626 9.16869 5.08398 9.09199L5.11598 9.06799Z" fill="#00376E"/>
<path d="M10.3999 11.472C10.1234 11.4605 9.85165 11.3953 9.59995 11.28C7.99995 10.624 7.19995 8.73603 7.19995 8.65603C7.18528 8.62057 7.18233 8.58136 7.19152 8.5441C7.20071 8.50685 7.22157 8.47351 7.25105 8.44895C7.28052 8.42438 7.31708 8.40988 7.35538 8.40756C7.39368 8.40523 7.43172 8.41521 7.46395 8.43603C9.75995 9.94403 11.3999 9.30803 11.4119 9.30403C11.4503 9.29056 11.4921 9.29048 11.5305 9.3038C11.5689 9.31712 11.6017 9.34305 11.6235 9.37737C11.6453 9.41169 11.6548 9.45237 11.6506 9.49281C11.6463 9.53324 11.6284 9.57103 11.5999 9.60003C11.4136 9.87621 11.3083 10.1991 11.2959 10.532C11.2971 10.6954 11.2583 10.8566 11.183 11.0015C11.1077 11.1465 10.9982 11.271 10.8639 11.364C10.7215 11.4403 10.5614 11.4776 10.3999 11.472ZM7.81195 9.07203C8.24177 9.88105 8.91092 10.5376 9.72795 10.952C9.87223 11.0384 10.0338 11.0919 10.2012 11.1085C10.3686 11.1251 10.5375 11.1044 10.6959 11.048C10.7803 10.9827 10.8479 10.8981 10.8931 10.8014C10.9383 10.7048 10.9599 10.5987 10.9559 10.492C10.9754 10.2398 11.032 9.99174 11.1239 9.75603C9.9741 9.91695 8.80398 9.6753 7.81195 9.07203Z" fill="#00376E"/>
<path d="M12.46 6.45605C12.484 6.54805 12.492 6.59205 12.492 6.59205L12.46 6.45605Z" fill="#003A6C"/>
<path d="M9.57995 3.23206C9.60049 3.25033 9.6157 3.27383 9.62395 3.30006C9.45595 3.30006 9.27195 3.30006 9.09595 3.30006C9.25573 3.26748 9.41737 3.24477 9.57995 3.23206Z" fill="#00376E"/>
<path d="M4.07989 4.85199C4.10585 4.33874 4.3177 3.85248 4.67589 3.48399C4.19189 3.55599 4.00789 3.30399 4.20789 3.29199C4.39784 3.2516 4.58102 3.18426 4.75189 3.09199C4.92939 3.0096 5.09936 2.91189 5.25989 2.79999C5.55453 2.575 5.83135 2.3276 6.08789 2.05999C6.08789 2.05999 6.08789 2.02399 6.08789 2.03599C5.11589 2.77999 4.35589 2.43599 4.62389 2.38799C4.87729 2.3428 5.11604 2.23714 5.31989 2.07999L5.52389 1.93599C5.73139 1.78766 5.95396 1.66163 6.18789 1.55999C6.34425 1.49263 6.5062 1.43909 6.67189 1.39999C6.9974 1.32559 7.33001 1.28669 7.66389 1.28399C7.46936 1.2757 7.27689 1.24071 7.09189 1.17999C6.69189 1.02399 6.69189 0.779988 6.83589 0.839988C7.42789 1.05199 9.03589 0.867988 9.86789 1.14399C9.86789 1.14399 11.0279 1.54399 11.3359 2.51199C11.3359 2.51199 13.3039 2.95999 12.7919 6.39198L12.2999 6.51599C12.309 5.94391 12.2 5.3761 11.9799 4.84799C11.8968 4.62641 11.7685 4.42453 11.6033 4.25514C11.438 4.08575 11.2393 3.95255 11.0199 3.86399C10.9789 3.84598 10.934 3.83839 10.8894 3.84188C10.8447 3.84537 10.8016 3.85983 10.7639 3.88399L10.7359 3.90399C10.5142 4.01705 10.2688 4.076 10.0199 4.07599C9.35189 4.01599 8.60389 3.73999 8.01989 4.05199C7.43589 4.36399 7.17589 4.76799 6.59189 5.05199C6.46178 5.11419 6.32823 5.16895 6.19189 5.21599L5.90789 5.34399C5.50789 5.50799 5.76789 6.72398 5.90789 7.27198C5.90789 7.29598 5.90789 7.32798 5.90789 7.35998C5.91131 7.42527 5.91131 7.49069 5.90789 7.55598C5.91196 7.61211 5.90235 7.66838 5.87989 7.71998C5.87497 7.7282 5.86846 7.73535 5.86074 7.74102C5.85302 7.74668 5.84425 7.75075 5.83493 7.75299C5.82562 7.75522 5.81596 7.75558 5.80651 7.75403C5.79705 7.75249 5.78801 7.74907 5.77989 7.74398C5.71242 7.67565 5.65577 7.59741 5.61189 7.51198C5.38389 7.05998 5.30389 6.83998 4.41189 6.71199C4.14706 6.12962 4.03289 5.49001 4.07989 4.85199Z" fill="#003A6C"/>
<path d="M5.53991 2.71997C4.97499 3.0406 4.35949 3.26245 3.71991 3.37597C3.59591 3.37597 3.57591 3.53197 3.66391 3.61597C4.01191 3.93997 4.70791 3.93597 5.29191 3.66797C6.22791 3.23997 5.53991 2.71997 5.53991 2.71997Z" fill="#00376E"/>
<path d="M7.89589 2.17603C7.73559 2.22257 7.57913 2.28141 7.42789 2.35203C7.27589 2.42003 7.13189 2.51203 6.98389 2.59203C7.2401 2.32389 7.55191 2.11511 7.89743 1.98036C8.24295 1.84561 8.61379 1.78815 8.98389 1.81203C9.66856 1.89298 10.2966 2.23202 10.7399 2.76003C10.482 2.54607 10.1917 2.37458 9.87989 2.25203L9.72389 2.19603C9.57381 2.1464 9.41998 2.10894 9.26389 2.08403H9.16389C9.07768 2.07168 8.9909 2.06367 8.90389 2.06003H8.72789C8.44618 2.05466 8.16538 2.09381 7.89589 2.17603Z" fill="white"/>
<path d="M9.02802 2.67598C9.0844 2.65979 9.14189 2.64776 9.20002 2.63998H9.25602C9.56256 2.60623 9.87232 2.6618 10.148 2.79998C10.2819 2.86594 10.4047 2.9523 10.512 3.05598L10.596 3.14398L10.516 3.10798C10.3856 3.04636 10.2521 2.99162 10.116 2.94398C9.94793 2.88872 9.77525 2.84856 9.60002 2.82398C9.43524 2.80493 9.26881 2.80493 9.10402 2.82398H9.07202C8.89767 2.84705 8.72856 2.89981 8.57202 2.97998C8.68944 2.83448 8.84856 2.7284 9.02802 2.67598Z" fill="white"/>
<path d="M5.16395 3.52405C5.58599 3.43796 5.97785 3.24203 6.29995 2.95605C6.21275 3.17722 6.04689 3.35836 5.83426 3.46467C5.62162 3.57099 5.3772 3.59499 5.14795 3.53205L5.16395 3.52405Z" fill="white"/>
<path d="M20.8 15.4559C20.78 15.5359 20.756 15.6159 20.728 15.6999C20.756 15.6199 20.78 15.5399 20.8 15.4599V15.4559Z" fill="#0081F2"/>
<path d="M20.3999 16.44L20.2639 16.712C20.2656 16.684 20.2656 16.656 20.2639 16.628C20.3126 16.5678 20.358 16.505 20.3999 16.44Z" fill="#0081F2"/>
<path d="M11.9159 20.236C12.2045 18.8502 13.017 17.6293 14.1839 16.828C13.0167 17.629 12.2041 18.85 11.9159 20.236Z" fill="#003A6C"/>
<path d="M11.932 20.448C11.9146 20.3784 11.9146 20.3056 11.932 20.236C12.2206 18.8501 13.0331 17.6292 14.2 16.828C14.4241 16.6706 14.6579 16.5277 14.9 16.4L15.224 16.236C15.552 16.08 16.228 15.548 16.568 15.436C16.568 15.436 20.436 14.348 20.72 15.9C20.72 15.924 20.272 16.7 20.272 16.728L19.384 18.496C19.342 18.5633 19.2843 18.6195 19.216 18.66L19.18 18.684C19.0911 18.73 18.9922 18.7534 18.892 18.752H18.832C18.1626 18.676 17.4858 18.8014 16.888 19.112C16.4597 19.3333 16.098 19.6646 15.84 20.072C15.7612 20.1989 15.6942 20.3328 15.64 20.472C15.5946 20.5828 15.5108 20.6737 15.404 20.728C15.3486 20.7557 15.2892 20.7746 15.228 20.784H15.128L12.516 20.828C12.4086 20.8291 12.3026 20.8029 12.208 20.752C12.0854 20.6907 11.9909 20.5848 11.944 20.456L11.932 20.448Z" fill="#00376E"/>
<path d="M16.5519 14.116C16.5079 14.376 16.3159 15.016 16.2759 15.232L16.2439 15.42C16.2259 15.5527 16.2259 15.6872 16.2439 15.82C15.9025 15.9323 15.5686 16.0659 15.2439 16.22L14.9199 16.384C14.6718 16.5162 14.4327 16.6646 14.2039 16.828C13.0367 17.6289 12.2241 18.85 11.9359 20.236C11.9185 20.3056 11.9185 20.3784 11.9359 20.448C11.9828 20.5768 12.0773 20.6827 12.1999 20.744C12.2957 20.7956 12.4031 20.8217 12.5119 20.82L15.1239 20.8H15.2239C15.2851 20.7904 15.3445 20.7715 15.3999 20.744C15.5067 20.6897 15.5905 20.5988 15.6359 20.488C15.6901 20.3488 15.7571 20.2148 15.8359 20.088C16.0944 19.6811 16.456 19.3499 16.8839 19.128C17.4817 18.8174 18.1585 18.692 18.8279 18.768H18.8879C18.9881 18.7695 19.087 18.7462 19.1759 18.7L19.2119 18.676C19.2802 18.6355 19.3378 18.5793 19.3799 18.512L20.2639 16.744L20.3999 16.44C20.4591 16.3418 20.5125 16.2403 20.5599 16.136C20.6079 16.036 20.6519 15.932 20.6919 15.816C20.6919 15.776 20.7159 15.736 20.7319 15.696C20.7479 15.656 20.7839 15.536 20.8039 15.452C20.861 15.2387 20.8972 15.0203 20.9119 14.8C20.9119 14.732 20.8839 14.428 20.8839 14.36C21.9838 14.7856 22.8919 15.5957 23.4399 16.64C23.4399 16.64 22.7999 20.868 22.7639 20.948L17.4199 22.948L9.45191 24.46C8.71591 16.776 14.6079 14.192 16.5519 14.116Z" fill="#FF8D00"/>
<path d="M13.3119 16.344C12.0558 17.5478 11.1726 19.0878 10.768 20.78C10.7577 20.3319 10.8185 19.885 10.948 19.456C10.9994 19.2338 11.0635 19.0148 11.14 18.8C11.228 18.596 11.332 18.4 11.44 18.2C11.548 18 11.676 17.82 11.808 17.64C11.9424 17.4614 12.0866 17.2905 12.24 17.128C12.5447 16.7992 12.8998 16.5211 13.292 16.304V16.328L13.3119 16.344Z" fill="white"/>
<path d="M20.8839 14.372C20.8839 14.372 18.2759 13.152 14.8159 14.556L15.4399 16.116C15.4399 16.116 18.9199 14.68 20.5639 16.14C22.0359 17.448 21.4239 15.66 21.4239 15.66L20.8839 14.372Z" fill="#FF8D00"/>
<path d="M16.7999 14C16.7999 14 16.1639 15.896 16.6399 16.172C17.1159 16.448 18.3999 16 18.3999 16L18.5159 14.604L18.2519 13.86L17.2879 13.892L16.7999 14Z" fill="white"/>
<path d="M16.428 15.968C16.3515 16.0238 16.2884 16.0959 16.2432 16.179C16.1979 16.2621 16.1717 16.3543 16.1663 16.4488C16.161 16.5433 16.1766 16.6378 16.2122 16.7255C16.2478 16.8132 16.3023 16.8919 16.372 16.956C16.696 17.188 16.976 17.02 17.352 17.176C17.6301 17.3087 17.9322 17.3835 18.24 17.396C18.3191 17.3969 18.3962 17.3715 18.4593 17.3237C18.5223 17.2759 18.5676 17.2084 18.588 17.132C18.636 16.9 18.42 16.688 18.128 16.544" fill="white"/>
<path d="M18.212 17.564C17.8909 17.5453 17.5761 17.4666 17.284 17.332C17.1561 17.2844 17.0204 17.2614 16.884 17.264C16.6654 17.2751 16.4492 17.2147 16.268 17.092C16.1737 17.0235 16.0985 16.9321 16.0495 16.8264C16.0005 16.7207 15.9793 16.6042 15.988 16.488C15.9906 16.3579 16.0234 16.2302 16.0838 16.115C16.1442 15.9998 16.2305 15.9002 16.336 15.824C16.3742 15.8074 16.4171 15.8053 16.4568 15.818C16.4965 15.8307 16.5302 15.8574 16.5517 15.893C16.5732 15.9287 16.581 15.971 16.5737 16.012C16.5664 16.053 16.5445 16.0899 16.512 16.116C16.4541 16.1653 16.4077 16.2267 16.3759 16.2957C16.3441 16.3648 16.3278 16.44 16.328 16.516C16.3213 16.5763 16.3308 16.6374 16.3554 16.6929C16.38 16.7484 16.4188 16.7964 16.468 16.832C16.5945 16.9149 16.7452 16.9529 16.896 16.94C17.0736 16.9371 17.2501 16.9683 17.416 17.032C17.6658 17.1549 17.9379 17.2256 18.216 17.24C18.2568 17.241 18.2969 17.2286 18.3301 17.2048C18.3633 17.181 18.3878 17.147 18.4 17.108C18.432 16.964 18.228 16.808 18.028 16.708C17.9938 16.6851 17.969 16.6508 17.958 16.6112C17.9469 16.5717 17.9504 16.5294 17.9678 16.4922C17.9852 16.455 18.0154 16.4252 18.0528 16.4083C18.0903 16.3914 18.1325 16.3885 18.172 16.4C18.572 16.604 18.784 16.888 18.724 17.176C18.6962 17.2899 18.6311 17.3912 18.539 17.4637C18.4469 17.5362 18.3332 17.5757 18.216 17.576L18.212 17.564Z" fill="#00376E"/>
<path d="M19.168 16.4C19.2204 16.4804 19.2975 16.5415 19.3878 16.574C19.4781 16.6065 19.5765 16.6086 19.668 16.58C20.344 16.444 21.02 15.488 20.616 14.228C20.5753 14.084 20.4905 13.9565 20.3736 13.8632C20.2566 13.77 20.1134 13.7157 19.964 13.708C19.8797 13.5708 19.7559 13.4623 19.6089 13.3967C19.4619 13.331 19.2985 13.3113 19.14 13.34C19.0532 13.1812 18.9113 13.0598 18.741 12.9986C18.5708 12.9375 18.384 12.9408 18.216 13.008C18.1281 12.9089 18.011 12.8404 17.8815 12.8124C17.7521 12.7843 17.6171 12.7982 17.496 12.852C17.3026 12.9668 17.1389 13.1254 17.018 13.3151C16.8971 13.5047 16.8224 13.7202 16.8 13.944" fill="white"/>
<path d="M19.536 16.8C19.432 16.8029 19.329 16.7782 19.2376 16.7283C19.1463 16.6784 19.0698 16.6051 19.016 16.516C19.0021 16.4962 18.9926 16.4737 18.988 16.4499C18.9834 16.4262 18.9839 16.4017 18.9894 16.3782C18.9949 16.3546 19.0054 16.3325 19.02 16.3132C19.0346 16.294 19.0532 16.278 19.0744 16.2664C19.0956 16.2548 19.1191 16.2478 19.1432 16.2459C19.1673 16.244 19.1915 16.2471 19.2143 16.2552C19.2371 16.2633 19.258 16.2761 19.2755 16.2928C19.293 16.3094 19.3068 16.3296 19.316 16.352C19.3517 16.3994 19.4016 16.4343 19.4584 16.4515C19.5152 16.4688 19.576 16.4676 19.632 16.448C19.7824 16.4075 19.9228 16.3366 20.0446 16.2396C20.1664 16.1425 20.267 16.0215 20.34 15.884C20.471 15.6456 20.5491 15.3819 20.5691 15.1106C20.5891 14.8394 20.5506 14.567 20.456 14.312C20.4272 14.2017 20.364 14.1034 20.2755 14.0314C20.187 13.9595 20.0779 13.9177 19.964 13.912H19.864L19.816 13.824C19.7504 13.7177 19.6541 13.6337 19.5399 13.583C19.4257 13.5323 19.2989 13.5173 19.176 13.54L19.056 13.56L18.996 13.452C18.9302 13.3287 18.8206 13.2345 18.6889 13.1879C18.5571 13.1413 18.4127 13.1456 18.284 13.2L18.184 13.24L18.104 13.168C18.0392 13.0897 17.9503 13.035 17.8511 13.0126C17.752 12.9902 17.6482 13.0012 17.556 13.044C17.312 13.132 17.092 13.492 16.972 14C16.9572 14.0387 16.9289 14.0707 16.8923 14.0902C16.8558 14.1097 16.8134 14.1153 16.773 14.1061C16.7326 14.0969 16.6969 14.0733 16.6725 14.0399C16.6481 14.0064 16.6365 13.9653 16.64 13.924C16.788 13.284 17.072 12.856 17.44 12.724C17.5717 12.6681 17.7163 12.6501 17.8577 12.672C17.999 12.6939 18.1314 12.7549 18.24 12.848C18.4177 12.7964 18.607 12.8019 18.7814 12.8636C18.9557 12.9253 19.1064 13.0402 19.212 13.192C19.374 13.1812 19.536 13.2123 19.6825 13.2823C19.8289 13.3524 19.9548 13.4591 20.048 13.592C20.2138 13.619 20.3685 13.6923 20.4945 13.8034C20.6205 13.9145 20.7125 14.0589 20.76 14.22C20.8685 14.5206 20.9118 14.8409 20.887 15.1595C20.8621 15.4781 20.7698 15.7878 20.616 16.068C20.5198 16.247 20.3872 16.404 20.2267 16.5287C20.0661 16.6533 19.8813 16.7431 19.684 16.792C19.635 16.799 19.5855 16.8017 19.536 16.8Z" fill="#00376E"/>
<path d="M18.1719 16.2959C18.1864 16.3791 18.2247 16.4562 18.2823 16.518C18.3398 16.5798 18.414 16.6235 18.4959 16.6439C18.9239 16.7599 19.2959 16.3439 19.4199 16.1879C19.773 15.6525 19.922 15.0081 19.8399 14.3719" fill="white"/>
<path d="M18.192 16.2919C18.2045 16.3605 18.2347 16.4247 18.2796 16.478C18.3245 16.5313 18.3826 16.572 18.448 16.5959C18.5134 16.6199 18.5824 16.6321 18.652 16.6319C18.7217 16.6293 18.7905 16.6158 18.856 16.5919C18.9885 16.5401 19.1095 16.4627 19.212 16.3639C19.317 16.2679 19.4061 16.1559 19.476 16.0319C19.6165 15.781 19.7215 15.5118 19.788 15.2319C19.8604 14.951 19.8727 14.658 19.824 14.3719C19.9892 14.6499 20.0555 14.9756 20.012 15.2959C19.9984 15.4548 19.9675 15.6117 19.92 15.7639C19.8757 15.9197 19.814 16.07 19.736 16.2119C19.7153 16.2504 19.6926 16.2878 19.668 16.3239C19.6423 16.3629 19.6142 16.4003 19.584 16.4359C19.5268 16.5026 19.4639 16.5642 19.396 16.6199C19.2573 16.7395 19.0931 16.8257 18.916 16.8719C18.8179 16.8872 18.7181 16.8872 18.62 16.8719C18.5209 16.8578 18.4257 16.8238 18.34 16.7719C18.2562 16.7186 18.1895 16.6422 18.148 16.5519C18.1126 16.47 18.1042 16.379 18.124 16.2919H18.192Z" fill="#00376E"/>
<path d="M17.2 16.084C17.2 16.084 17.224 16.612 17.716 16.592C18.208 16.572 19.064 15.392 19.032 14.092" fill="white"/>
<path d="M17.1999 16.084C17.2041 16.1604 17.2237 16.2352 17.2573 16.3039C17.291 16.3726 17.3381 16.4338 17.3959 16.484C17.4581 16.5273 17.5301 16.5547 17.6054 16.5638C17.6807 16.5729 17.7571 16.5633 17.8279 16.536C17.9701 16.4734 18.0971 16.3806 18.1999 16.264C18.3071 16.1487 18.4022 16.0227 18.4839 15.888C18.8218 15.3489 18.9981 14.7242 18.9919 14.088C19.1139 14.4092 19.1484 14.7571 19.0919 15.096C19.0809 15.2664 19.0528 15.4353 19.0079 15.6C18.9522 15.7643 18.8826 15.9235 18.7999 16.076C18.6063 16.4164 18.2946 16.674 17.9239 16.8C17.8664 16.8151 17.8073 16.8231 17.7479 16.824C17.6977 16.8225 17.648 16.8144 17.5999 16.8C17.489 16.774 17.3878 16.7171 17.3079 16.636C17.2432 16.5639 17.1978 16.4765 17.1761 16.382C17.1544 16.2876 17.1571 16.1892 17.1839 16.096H17.2039L17.1999 16.084Z" fill="#00376E"/>
<path d="M16.756 16.44C16.6886 16.4417 16.6218 16.4278 16.5607 16.3993C16.4996 16.3709 16.446 16.3287 16.404 16.276C16.3266 16.1223 16.2804 15.9548 16.268 15.7832C16.2557 15.6116 16.2774 15.4392 16.332 15.276L16.652 13.844L16.984 13.92L16.664 15.352C16.5771 15.5828 16.5771 15.8372 16.664 16.068C16.6742 16.0811 16.6878 16.0913 16.7032 16.0977C16.7186 16.104 16.7354 16.1061 16.752 16.104C16.7926 16.1102 16.8296 16.1308 16.8564 16.162C16.8831 16.1932 16.8978 16.2329 16.8978 16.274C16.8978 16.3151 16.8831 16.3548 16.8564 16.386C16.8296 16.4172 16.7926 16.4377 16.752 16.444L16.756 16.44Z" fill="#00376E"/>
<path d="M16.6519 15.364C16.6159 15.556 16.4799 16.344 16.8959 16.244C17.7439 16.044 18.1239 13.812 18.1239 13.812" fill="white"/>
<path d="M16.668 15.368C16.6365 15.5261 16.6204 15.6868 16.62 15.848C16.6189 15.9278 16.6297 16.0074 16.652 16.084C16.6597 16.1193 16.6773 16.1517 16.7029 16.1772C16.7284 16.2027 16.7607 16.2204 16.796 16.228C16.8316 16.2362 16.8685 16.2362 16.904 16.228C16.9416 16.2174 16.9778 16.2026 17.012 16.184C17.0812 16.1468 17.1446 16.0997 17.2 16.044C17.3125 15.9252 17.4069 15.7904 17.48 15.644C17.6351 15.3601 17.7611 15.0613 17.856 14.752C17.9542 14.4436 18.0344 14.1297 18.096 13.812C18.158 14.1478 18.158 14.4922 18.096 14.828C18.0763 14.9981 18.0442 15.1666 18 15.332C17.9414 15.4983 17.8677 15.659 17.78 15.812C17.6868 15.9787 17.5649 16.1276 17.42 16.252C17.3388 16.3231 17.2471 16.3811 17.148 16.424C17.094 16.4461 17.0376 16.4622 16.98 16.472C16.9088 16.4868 16.8353 16.4868 16.764 16.472C16.6733 16.4552 16.592 16.4053 16.536 16.332C16.4939 16.2766 16.4652 16.2123 16.452 16.144C16.4336 16.0462 16.4336 15.9458 16.452 15.848C16.4838 15.6769 16.5432 15.512 16.628 15.36H16.652L16.668 15.368Z" fill="#00376E"/>
<path d="M20.7998 15.636C20.4762 16.6678 19.9828 17.6385 19.3398 18.508L19.6078 16.98L20.5078 16.064L20.7998 15.636Z" fill="#00376E"/>
</g>
<path d="M31.2481 13.744H27.5041L27.0001 15.016C26.9695 15.0958 26.9142 15.1637 26.8422 15.2097C26.7702 15.2558 26.6854 15.2776 26.6001 15.272H25.2001C25.1293 15.279 25.058 15.2671 24.9934 15.2375C24.9287 15.2078 24.8732 15.1614 24.8325 15.1032C24.7917 15.0449 24.7672 14.9768 24.7615 14.906C24.7558 14.8351 24.7691 14.764 24.8001 14.7L28.1121 6.95596C28.1676 6.83544 28.2568 6.73355 28.369 6.66258C28.4811 6.5916 28.6114 6.55458 28.7441 6.55596H30.1561C30.2917 6.55291 30.4252 6.59001 30.5398 6.66261C30.6543 6.7352 30.7449 6.84004 30.8001 6.96396L34.0001 14.716C34.0279 14.7777 34.0395 14.8456 34.0339 14.9131C34.0284 14.9806 34.0057 15.0456 33.9681 15.102C33.9305 15.1584 33.8793 15.2043 33.8191 15.2354C33.7589 15.2665 33.6918 15.2819 33.6241 15.28H32.1201C32.0343 15.2853 31.9491 15.2629 31.8771 15.2161C31.805 15.1693 31.75 15.1005 31.7201 15.02L31.2481 13.744ZM30.5161 11.84L29.5161 9.23196C29.507 9.20746 29.4906 9.18634 29.4692 9.17142C29.4477 9.1565 29.4222 9.1485 29.3961 9.1485C29.3699 9.1485 29.3444 9.1565 29.323 9.17142C29.3015 9.18634 29.2852 9.20746 29.2761 9.23196L28.2521 11.84C28.2456 11.8557 28.2423 11.8726 28.2425 11.8896C28.2426 11.9066 28.2461 11.9234 28.2528 11.9391C28.2595 11.9547 28.2693 11.9689 28.2815 11.9807C28.2937 11.9925 28.3082 12.0018 28.3241 12.008H28.3721H30.4001C30.4211 12.0082 30.442 12.0032 30.4606 11.9934C30.4793 11.9837 30.4953 11.9695 30.5072 11.9521C30.519 11.9347 30.5264 11.9146 30.5287 11.8936C30.5309 11.8727 30.528 11.8515 30.5201 11.832L30.5161 11.84Z" fill="#00376E"/>
<path d="M57.1999 6.56794C56.3243 6.56319 55.4669 6.81841 54.7364 7.30127C54.0059 7.78414 53.4352 8.47293 53.0964 9.28041C52.7577 10.0879 52.6661 10.9777 52.8335 11.8373C53.0008 12.6968 53.4195 13.4873 54.0364 14.1088C54.6533 14.7302 55.4408 15.1545 56.2991 15.3281C57.1574 15.5017 58.0479 15.4166 58.8578 15.0837C59.6677 14.7508 60.3606 14.185 60.8488 13.4581C61.3369 12.7311 61.5984 11.8756 61.5999 10.9999C61.6021 9.82938 61.1402 8.70569 60.3155 7.87498C59.4908 7.04428 58.3705 6.57428 57.1999 6.56794ZM57.1999 13.3679C56.7253 13.3679 56.2613 13.2272 55.8666 12.9635C55.4719 12.6997 55.1643 12.3249 54.9826 11.8864C54.801 11.4478 54.7535 10.9653 54.8461 10.4997C54.9387 10.0342 55.1672 9.60652 55.5029 9.27088C55.8385 8.93523 56.2662 8.70665 56.7317 8.61405C57.1973 8.52145 57.6798 8.56897 58.1184 8.75062C58.5569 8.93227 58.9318 9.23989 59.1955 9.63457C59.4592 10.0292 59.5999 10.4933 59.5999 10.9679C59.5999 11.6045 59.3471 12.2149 58.897 12.665C58.4469 13.1151 57.8365 13.3679 57.1999 13.3679Z" fill="#00376E"/>
<path d="M70.5319 9.77595V14.9759C70.5319 15.082 70.4898 15.1838 70.4148 15.2588C70.3397 15.3338 70.238 15.3759 70.1319 15.3759H68.9639C68.78 15.3749 68.604 15.3011 68.4744 15.1707C68.3447 15.0403 68.2719 14.8638 68.2719 14.6799V10.5599C68.2719 9.35995 67.5719 8.67195 66.6719 8.67195C65.5399 8.67195 64.9919 9.35995 64.9879 10.5559V14.9559C64.9879 15.062 64.9458 15.1638 64.8708 15.2388C64.7957 15.3138 64.694 15.3559 64.5879 15.3559H63.4559C63.272 15.3549 63.096 15.2811 62.9664 15.1507C62.8367 15.0203 62.7639 14.8438 62.7639 14.6599V7.05995C62.7639 6.93901 62.812 6.82303 62.8975 6.73751C62.983 6.65199 63.099 6.60395 63.2199 6.60395H63.8959C64.1824 6.60395 64.457 6.71773 64.6596 6.92027C64.8621 7.12281 64.9759 7.39751 64.9759 7.68395C64.9759 7.68395 65.6239 6.57195 67.3759 6.57195C67.7966 6.56411 68.2145 6.64199 68.6041 6.80085C68.9937 6.95971 69.3469 7.19623 69.6422 7.49599C69.9375 7.79574 70.1686 8.15247 70.3216 8.54445C70.4745 8.93642 70.5461 9.35543 70.5319 9.77595Z" fill="#00376E"/>
<path d="M71.6919 11.028V11C71.6919 8.59997 73.4199 6.59998 75.8839 6.59998C78.7079 6.59998 79.9999 8.79997 79.9999 11.2C79.9988 11.3658 79.9322 11.5245 79.8146 11.6415C79.6969 11.7584 79.5378 11.824 79.3719 11.824H74.0759C74.15 12.3094 74.4036 12.7494 74.7865 13.0568C75.1695 13.3642 75.6539 13.5167 76.1439 13.484C76.7942 13.5 77.4277 13.2765 77.9239 12.856C78.0011 12.7908 78.0989 12.7551 78.1999 12.7551C78.3009 12.7551 78.3987 12.7908 78.4759 12.856L79.2519 13.544C79.2941 13.5807 79.3286 13.6253 79.3534 13.6754C79.3782 13.7254 79.393 13.7799 79.3967 13.8357C79.4004 13.8914 79.393 13.9474 79.3751 14.0003C79.3571 14.0532 79.3288 14.102 79.2919 14.144C78.8779 14.5585 78.3829 14.8832 77.8379 15.0979C77.2928 15.3126 76.7094 15.4127 76.1239 15.392C73.5679 15.408 71.6879 13.62 71.6919 11.028ZM77.6639 10.324C77.5239 9.24797 76.8919 8.52397 75.8799 8.51997C74.8679 8.51597 74.2359 9.22797 74.0439 10.32L77.6639 10.324Z" fill="#00376E"/>
<path d="M49.1121 12.948C49.0476 12.8566 48.9496 12.7944 48.8395 12.7749C48.7293 12.7554 48.616 12.7803 48.5241 12.844C48.0656 13.2235 47.4948 13.4414 46.9001 13.464C46.5838 13.4642 46.2708 13.4006 45.9798 13.2769C45.6887 13.1532 45.4257 12.9719 45.2064 12.7441C44.9871 12.5162 44.8161 12.2464 44.7037 11.9508C44.5912 11.6552 44.5397 11.34 44.5521 11.024C44.5521 11.004 44.5521 10.984 44.5521 10.964C44.5521 10.944 44.5521 10.924 44.5521 10.904C44.5402 10.5882 44.5923 10.2732 44.7053 9.97806C44.8183 9.6829 44.9898 9.41364 45.2095 9.18646C45.4292 8.95928 45.6926 8.77887 45.9838 8.65609C46.275 8.53331 46.588 8.47069 46.9041 8.47199C47.498 8.49628 48.0673 8.71559 48.5241 9.09599C48.5681 9.13024 48.6186 9.15545 48.6724 9.17017C48.7263 9.18489 48.7825 9.18884 48.8378 9.18178C48.8932 9.17472 48.9467 9.15679 48.9951 9.12903C49.0435 9.10126 49.086 9.06421 49.1201 9.01999L49.7841 8.07599C49.8166 8.03082 49.84 7.97967 49.8528 7.92547C49.8656 7.87127 49.8676 7.81508 49.8587 7.76011C49.8498 7.70513 49.8301 7.65245 49.8009 7.60507C49.7716 7.5577 49.7332 7.51655 49.6881 7.48399C48.858 6.90007 47.8708 6.58076 46.8561 6.56799C44.2121 6.56799 42.2161 8.44399 42.2161 10.94C42.2161 10.94 42.2161 10.964 42.2161 10.976C42.2161 10.988 42.2161 11 42.2161 11.012C42.2161 13.508 44.2161 15.392 46.8481 15.412C47.8618 15.4006 48.8487 15.0842 49.6801 14.504C49.7256 14.4717 49.7642 14.4308 49.7939 14.3836C49.8236 14.3363 49.8436 14.2837 49.8529 14.2287C49.8622 14.1737 49.8605 14.1175 49.848 14.0631C49.8355 14.0088 49.8124 13.9574 49.7801 13.912L49.1121 12.948Z" fill="#00376E"/>
<path d="M41.092 12.9399C41.0276 12.8486 40.9296 12.7863 40.8195 12.7669C40.7093 12.7474 40.596 12.7722 40.504 12.8359C40.0456 13.2155 39.4748 13.4333 38.88 13.4559C38.5638 13.4562 38.2508 13.3925 37.9597 13.2688C37.6687 13.1451 37.4056 12.9639 37.1864 12.736C36.9671 12.5081 36.7961 12.2383 36.6837 11.9428C36.5712 11.6472 36.5197 11.3319 36.532 11.0159C36.532 10.9959 36.532 10.9759 36.532 10.9559C36.532 10.9359 36.532 10.9159 36.532 10.8959C36.5202 10.5801 36.5723 10.2652 36.6853 9.97C36.7983 9.67484 36.9697 9.40558 37.1895 9.1784C37.4092 8.95122 37.6725 8.77082 37.9638 8.64804C38.255 8.52526 38.568 8.46263 38.884 8.46394C39.4793 8.48735 40.0502 8.70671 40.508 9.08793C40.5968 9.15586 40.7088 9.18598 40.8197 9.17174C40.9305 9.15751 41.0313 9.10008 41.1 9.01194L41.764 8.06794C41.7966 8.02276 41.82 7.97162 41.8328 7.91742C41.8456 7.86322 41.8476 7.80702 41.8387 7.75205C41.8298 7.69707 41.8101 7.64439 41.7808 7.59702C41.7516 7.54964 41.7132 7.5085 41.668 7.47594C40.8379 6.89224 39.8508 6.57295 38.836 6.55994C36.188 6.55994 34.196 8.43594 34.196 10.9319C34.196 10.9319 34.196 10.9559 34.196 10.9679C34.196 10.9799 34.196 10.9919 34.196 11.0039C34.196 13.4999 36.196 15.3839 38.828 15.4039C39.8418 15.3925 40.8286 15.0761 41.66 14.4959C41.7055 14.4637 41.7442 14.4228 41.7739 14.3755C41.8035 14.3283 41.8236 14.2757 41.8329 14.2207C41.8422 14.1657 41.8405 14.1094 41.828 14.0551C41.8155 14.0007 41.7924 13.9493 41.76 13.9039L41.092 12.9399Z" fill="#00376E"/>
</g>
</g>
<defs>
<linearGradient id="paint0_linear_1801_11068" x1="9.124" y1="3.396" x2="12.808" y2="18.672" gradientUnits="userSpaceOnUse">
<stop stop-color="#00C6F9"/>
<stop offset="0.42" stop-color="#00C6F9"/>
<stop offset="0.79" stop-color="#009CE0"/>
<stop offset="1" stop-color="#0089D5"/>
</linearGradient>
<clipPath id="clip0_1801_11068">
<rect width="80" height="21.888" fill="white"/>
</clipPath>
<clipPath id="clip1_1801_11068">
<rect width="80" height="21.888" fill="white"/>
</clipPath>
</defs>
</svg>
