<svg width="80" height="80" viewBox="0 0 80 80" fill="none" xmlns="http://www.w3.org/2000/svg">
<g clip-path="url(#clip0_1801_9976)">
<path d="M0 14.1006C0.265503 13.6843 0.228402 13.1928 0.322314 12.7371C1.75881 5.82828 7.58597 0.65158 14.6004 0.0799983C15.1951 0.0313037 15.7945 0.00347819 16.3916 0.00347819C32.265 0 48.1395 0 64.0141 0C71.7971 0 78.4741 5.66133 79.7553 13.3307C79.9176 14.3046 79.9825 15.282 79.9825 16.2652C79.9837 32.0399 79.9454 47.8146 79.9999 63.5894C80.0266 71.4408 74.7153 77.756 67.7682 79.429C66.7537 79.6737 65.7265 79.8383 64.6796 79.8545C64.5567 79.8568 64.4048 79.7873 64.319 79.9484H15.645C15.5789 79.8082 15.449 79.8568 15.3424 79.8534C8.17378 79.567 2.13678 74.6187 0.433616 67.6507C0.275938 67.0073 0.2713 66.3302 0 65.7134V14.1006ZM47.299 44.1567C47.3442 44.1312 47.3882 44.1057 47.4335 44.0791C47.5575 44.2263 47.67 44.384 47.8056 44.5196C52.6427 49.345 57.4785 54.1716 62.3213 58.99C64.661 61.3181 68.4952 60.9019 70.2934 58.1379C71.6418 56.0661 71.3079 53.4354 69.4296 51.549C66.3792 48.4859 63.3115 45.4402 60.2564 42.3805C58.8547 40.9777 58.8582 38.9267 60.2553 37.5308C63.2581 34.5291 66.2645 31.5298 69.2673 28.5292C69.4714 28.3252 69.6777 28.12 69.8644 27.8997C71.3253 26.1641 71.5154 23.6853 70.3351 21.8175C68.5647 19.0152 64.6587 18.5921 62.2726 20.9654C57.3892 25.8255 52.5198 30.7008 47.6422 35.5668C47.5042 35.7036 47.394 35.8891 47.1598 35.9563C47.1251 35.8091 47.0903 35.6989 47.0729 35.5865C45.4126 25.0348 35.1786 17.7643 24.6883 19.6842C15.5058 21.3653 8.87174 29.306 8.86479 38.6311C8.86131 44.166 8.86131 49.701 8.86827 55.2359C8.86827 55.6777 8.88218 56.1298 8.97725 56.5576C9.52913 59.0527 11.8398 60.7477 14.2908 60.4822C16.8902 60.2005 18.7754 58.0938 18.7754 55.4643C18.7765 49.9294 18.7754 44.3944 18.7754 38.8595C18.7754 38.3389 18.8055 37.823 18.8704 37.3036C19.5904 31.5669 25.7109 27.8301 31.1589 29.8081C34.9919 31.1993 37.4197 34.6474 37.4197 38.6983C37.4197 44.2333 37.4267 49.7682 37.4127 55.3032C37.4104 56.0834 37.4696 56.8741 37.8046 57.5478C38.9779 59.9083 41.1657 60.8242 43.4393 60.3813C45.6236 59.9558 47.2839 57.9049 47.299 55.5965C47.3106 53.687 47.3013 51.7774 47.3013 49.8691C47.3013 47.9654 47.3013 46.0605 47.3013 44.1567H47.299ZM33.0395 42.0269C33.043 39.2699 30.854 37.0462 28.1236 37.0299C25.3886 37.0137 23.1115 39.278 23.1057 42.0188C23.0999 44.7272 25.3538 46.9648 28.09 46.9683C30.8575 46.9706 33.0372 44.7956 33.0395 42.0281V42.0269Z" fill="#00953B"/>
<path d="M47.299 44.1567C47.299 46.0605 47.298 47.9655 47.298 49.8692C47.298 51.7787 47.3073 53.6882 47.2957 55.5966C47.2806 57.905 45.6215 59.9571 43.4361 60.3814C41.1625 60.8243 38.9747 59.9084 37.8014 57.5479C37.4663 56.8731 37.4072 56.0836 37.4095 55.3033C37.4234 49.7683 37.4176 44.2334 37.4165 38.6984C37.4165 34.6475 34.9887 31.1994 31.1557 29.8082C25.7065 27.8302 19.5872 31.567 18.8672 37.3037C18.8023 37.8219 18.7721 38.3378 18.7721 38.8596C18.7744 44.3945 18.7744 49.9295 18.7721 55.4644C18.7721 58.0939 16.8869 60.1994 14.2875 60.4823C11.8377 60.7478 9.52704 59.0528 8.97401 56.5577C8.87893 56.1299 8.86502 55.6778 8.86502 55.236C8.85807 49.7011 8.85691 44.1661 8.86154 38.6312C8.8685 29.3062 15.5026 21.3655 24.6851 19.6843C35.1753 17.7644 45.4082 25.0349 47.0696 35.5866C47.087 35.6991 47.1218 35.8092 47.1566 35.9564C47.3908 35.8892 47.5009 35.7037 47.6389 35.5669C52.5165 30.7009 57.386 25.8268 62.2694 20.9655C64.6543 18.591 68.5603 19.0154 70.3319 21.8176C71.5121 23.6842 71.322 26.1642 69.8612 27.8998C69.6757 28.1201 69.4693 28.3253 69.2641 28.5294C66.2612 31.531 63.2549 34.5292 60.252 37.5309C58.855 38.9268 58.8515 40.9778 60.2532 42.3807C63.3082 45.4391 66.376 48.486 69.4264 51.5492C71.3058 53.4355 71.6385 56.0662 70.2901 58.138C68.4919 60.902 64.6589 61.3182 62.3181 58.9902C57.4741 54.1717 52.6394 49.3451 47.8024 44.5197C47.6667 44.3841 47.5531 44.2264 47.4302 44.0792C47.385 44.1047 47.3409 44.1302 47.2957 44.1568L47.299 44.1567Z" fill="#FEFEFE"/>
<path d="M33.0395 42.0269C33.036 44.7956 30.8568 46.9706 28.0893 46.9672C25.3531 46.9648 23.0992 44.726 23.105 42.0177C23.1108 39.2769 25.3879 37.0138 28.1229 37.0288C30.8533 37.0451 33.0423 39.2688 33.0388 42.0258L33.0395 42.0269Z" fill="#DBE000"/>
</g>
<defs>
<clipPath id="clip0_1801_9976">
<rect width="80" height="79.9484" fill="white"/>
</clipPath>
</defs>
</svg>
