<svg width="80" height="20" viewBox="0 0 80 20" fill="none" xmlns="http://www.w3.org/2000/svg">
<g clip-path="url(#clip0_1801_9967)">
<path d="M0 3.52222C0.0663203 3.41825 0.0570529 3.29546 0.0805112 3.18164C0.439336 1.45586 1.89491 0.16276 3.64704 0.019983C3.79561 0.00781943 3.94534 0.000868826 4.09448 0.000868826C8.05951 0 12.0248 0 15.9902 0C17.9343 0 19.6021 1.41416 19.9222 3.32992C19.9627 3.57319 19.9789 3.81733 19.9789 4.06292C19.9792 8.00333 19.9697 11.9437 19.9833 15.8842C19.9899 17.8454 18.6632 19.4229 16.9279 19.8408C16.6745 19.9019 16.4179 19.943 16.1564 19.9471C16.1257 19.9477 16.0878 19.9303 16.0663 19.9705H3.90798C3.89147 19.9355 3.85903 19.9477 3.83239 19.9468C2.04174 19.8753 0.533748 18.6392 0.108314 16.8987C0.0689268 16.7379 0.0677684 16.5688 0 16.4147V3.52222ZM11.8149 11.03C11.8262 11.0237 11.8372 11.0173 11.8485 11.0106C11.8794 11.0474 11.9075 11.0868 11.9414 11.1207C13.1497 12.326 14.3576 13.5317 15.5673 14.7353C16.1518 15.3168 17.1095 15.2128 17.5587 14.5224C17.8955 14.0049 17.8121 13.3478 17.3429 12.8766C16.581 12.1114 15.8146 11.3506 15.0515 10.5864C14.7014 10.2359 14.7023 9.72361 15.0512 9.37492C15.8013 8.62512 16.5523 7.8759 17.3024 7.1264C17.3533 7.07543 17.4049 7.02417 17.4515 6.96914C17.8164 6.5356 17.8639 5.91641 17.5691 5.44985C17.1269 4.74987 16.1512 4.64416 15.5552 5.23699C14.3353 6.45103 13.119 7.66883 11.9006 8.88432C11.8661 8.91849 11.8386 8.96483 11.7801 8.98163C11.7714 8.94485 11.7627 8.91734 11.7584 8.88924C11.3437 6.25352 8.7873 4.43738 6.16692 4.91697C3.87322 5.33691 2.21608 7.32044 2.21435 9.64976C2.21348 11.0323 2.21348 12.4149 2.21521 13.7975C2.21521 13.9079 2.21869 14.0208 2.24244 14.1277C2.38029 14.7509 2.95748 15.1743 3.56971 15.108C4.21902 15.0376 4.68992 14.5114 4.68992 13.8546C4.69021 12.472 4.68992 11.0894 4.68992 9.70681C4.68992 9.57677 4.69745 9.4479 4.71367 9.31815C4.89351 7.88517 6.42236 6.95176 7.78323 7.44584C8.74067 7.79337 9.34711 8.65466 9.34711 9.66655C9.34711 11.0491 9.34885 12.4317 9.34538 13.8143C9.3448 14.0092 9.35957 14.2067 9.44326 14.375C9.73635 14.9647 10.2828 15.1934 10.8508 15.0828C11.3964 14.9765 11.8111 14.4642 11.8149 13.8876C11.8178 13.4106 11.8154 12.9336 11.8154 12.4569C11.8154 11.9814 11.8149 11.5056 11.8149 11.03ZM8.25297 10.498C8.25384 9.80933 7.70706 9.25386 7.02503 9.24981C6.34185 9.24575 5.77306 9.81136 5.77161 10.496C5.77016 11.1725 6.33316 11.7315 7.01663 11.7323C7.70793 11.7329 8.25239 11.1893 8.25297 10.498Z" fill="#00953B"/>
<path d="M65.9004 11.3929C65.9004 10.5791 65.8966 9.76531 65.9019 8.95151C65.9048 8.50059 66.1112 8.14524 66.5245 7.97698C67.6919 7.50173 68.8932 7.31435 70.1388 7.65435C70.5101 7.75572 70.8156 7.9735 71.1226 8.18752C71.2228 8.25761 71.2819 8.25124 71.3757 8.17333C71.9787 7.67289 72.6851 7.4551 73.4603 7.45047C74.2956 7.44526 75.074 7.65146 75.7627 8.13337C76.3486 8.54345 76.6394 9.12701 76.6469 9.83366C76.6611 11.158 76.6559 12.4827 76.6542 13.8074C76.6533 14.3258 76.3104 14.7188 75.8143 14.7877C75.3492 14.8523 74.9011 14.5641 74.7653 14.112C74.7317 14.0005 74.7199 13.8864 74.7201 13.77C74.721 12.5563 74.7207 11.3425 74.7201 10.1285C74.7201 10.0373 74.7207 9.94458 74.708 9.85451C74.6573 9.50119 74.4488 9.28079 74.1094 9.1916C73.6141 9.06127 73.1244 9.10124 72.6483 9.28108C72.3396 9.39751 72.1919 9.62919 72.1919 9.96195C72.1916 11.1514 72.1866 12.3411 72.184 13.5305C72.184 13.6553 72.1988 13.7796 72.1852 13.905C72.1247 14.4645 71.7195 14.817 71.1565 14.7961C70.6627 14.7776 70.2741 14.353 70.2726 13.8166C70.2694 12.5884 70.2718 11.3602 70.2715 10.132C70.2715 10.079 70.272 10.026 70.268 9.97325C70.2301 9.49105 70.014 9.24604 69.5396 9.16466C69.0557 9.08154 68.5784 9.16061 68.1046 9.2501C67.9187 9.28543 67.8138 9.45224 67.8133 9.66337C67.8115 10.0969 67.8118 10.5305 67.813 10.964C67.8153 11.9128 67.8179 12.8615 67.8214 13.8103C67.8234 14.3637 67.4064 14.7949 66.8662 14.7964C66.3038 14.7981 65.892 14.386 65.892 13.8207C65.892 13.0115 65.892 12.2024 65.892 11.3932C65.8949 11.3932 65.8975 11.3929 65.9004 11.3929Z" fill="#00953B"/>
<path d="M28.551 5.02094C29.3608 5.01892 29.9249 5.39599 30.1859 6.01922C31.0851 8.1687 31.9835 10.3188 32.8824 12.4682C33.0122 12.7784 33.1442 13.0877 33.2734 13.3985C33.4944 13.9308 33.2728 14.4964 32.7608 14.7115C32.2563 14.9235 31.6985 14.6887 31.4694 14.1674C31.2279 13.6174 30.9829 13.0689 30.7477 12.5163C30.6834 12.3651 30.5853 12.3046 30.4265 12.3049C29.2638 12.3069 28.1013 12.3069 26.9385 12.3049C26.7798 12.3049 26.6831 12.3631 26.6225 12.5192C26.4053 13.079 26.1791 13.6353 25.9504 14.1905C25.7682 14.633 25.3645 14.8471 24.8316 14.7941C24.4206 14.7532 24.078 14.4405 23.9862 14.0176C23.9399 13.8039 23.9726 13.598 24.0583 13.3976C24.7572 11.7682 25.4548 10.1386 26.1525 8.5087C26.5081 7.67839 26.8589 6.84577 27.2194 6.01749C27.4983 5.37658 27.9993 5.05135 28.551 5.02094ZM28.6675 10.5223C29.0338 10.5223 29.4002 10.5192 29.7662 10.5244C29.8696 10.5258 29.8864 10.5032 29.8514 10.4048C29.5293 9.49568 29.2108 8.58545 28.8939 7.67434C28.8551 7.56255 28.7905 7.48435 28.6692 7.48609C28.5548 7.48754 28.492 7.564 28.4549 7.66912C28.1334 8.58342 27.8111 9.49771 27.4859 10.4108C27.4531 10.5024 27.4717 10.5255 27.5684 10.5241C27.9348 10.5195 28.3011 10.5223 28.6675 10.5223Z" fill="#00953B"/>
<path d="M49.941 9.94574C49.941 8.67407 49.9401 7.40268 49.9415 6.13101C49.9421 5.599 50.2607 5.19326 50.7385 5.10898C51.3586 4.99951 51.8984 5.44783 51.8996 6.07801C51.9016 7.04618 51.9031 8.01434 51.8967 8.98221C51.8958 9.11253 51.9306 9.14786 52.0557 9.13715C52.1898 9.12556 52.3259 9.12933 52.4605 9.1357C52.6517 9.14468 52.7887 9.06475 52.9036 8.91531C53.7788 7.77802 54.6569 6.64304 55.5353 5.50835C55.7795 5.19326 56.18 5.07944 56.5449 5.21527C57.098 5.42147 57.2906 6.10031 56.9182 6.57411C56.4597 7.1571 55.9883 7.72994 55.5223 8.30713C55.1985 8.70824 54.8741 9.10848 54.5512 9.51016C54.3389 9.77429 54.3355 9.81831 54.5399 10.085C55.3456 11.1357 56.1551 12.1838 56.9605 13.2348C57.2359 13.5942 57.2124 14.0895 56.9127 14.4153C56.509 14.8546 55.8206 14.8086 55.4693 14.3182C54.8808 13.4963 54.2926 12.6741 53.7047 11.8519C53.4582 11.5073 53.2109 11.1635 52.9674 10.8169C52.8614 10.6663 52.7241 10.5924 52.5385 10.5982C52.3699 10.6034 52.2005 10.6066 52.0322 10.5968C51.9233 10.5904 51.8967 10.6234 51.8973 10.7314C51.9019 11.6706 51.9002 12.6098 51.8996 13.549C51.8996 13.6788 51.908 13.8106 51.89 13.9383C51.8141 14.4853 51.3786 14.832 50.8254 14.7952C50.3264 14.7619 49.9424 14.3232 49.9415 13.7746C49.9392 12.4983 49.941 11.222 49.941 9.94574Z" fill="#00953B"/>
<path d="M40.7931 10.0022C40.7931 11.3028 40.7931 12.6032 40.7931 13.9038C40.7931 13.9664 40.7905 14.0289 40.7887 14.0915C40.7835 14.2826 40.688 14.415 40.5078 14.4683C39.1209 14.8786 37.718 15.106 36.2764 14.7918C35.7035 14.6669 35.1776 14.4384 34.7539 14.0153C34.347 13.6087 34.139 13.1109 34.1037 12.5444C34.0603 11.847 34.1083 11.1485 34.0968 10.4505C34.0936 10.2533 34.0803 10.0555 34.0933 9.85914C34.1448 9.0772 34.5477 8.5032 35.19 8.08906C35.9045 7.62858 36.6905 7.43338 37.5414 7.49912C37.9407 7.52982 38.3375 7.57413 38.7291 7.65696C38.8423 7.681 38.866 7.64972 38.8652 7.53996C38.86 7.02474 38.8594 6.50924 38.864 5.99374C38.8684 5.51617 39.1606 5.15214 39.6161 5.04237C40.0349 4.94159 40.4673 5.13997 40.6796 5.52776C40.7702 5.69341 40.7942 5.87123 40.7942 6.05687C40.7928 7.37199 40.7931 8.6871 40.7931 10.0022ZM38.873 11.2698C38.873 10.6393 38.8695 10.0086 38.8756 9.3781C38.877 9.22461 38.8185 9.1302 38.6772 9.08357C37.9833 8.85449 37.2952 8.85073 36.6222 9.15713C36.2373 9.33234 36.0351 9.62601 36.0331 10.0645C36.0296 10.8293 36.0235 11.5942 36.0371 12.359C36.0386 12.4451 36.0409 12.5331 36.0589 12.6168C36.146 13.0231 36.4452 13.2192 36.806 13.3446C37.4267 13.5601 38.0554 13.5299 38.6862 13.3932C38.8209 13.364 38.8756 13.2852 38.875 13.1474C38.8715 12.5215 38.873 11.8957 38.873 11.2698Z" fill="#00953B"/>
<path d="M64.5668 11.4201C64.5668 12.0463 64.5891 12.6736 64.5607 13.2985C64.53 13.971 64.0921 14.4749 63.4353 14.6565C62.9166 14.7999 62.3828 14.8387 61.8482 14.8639C61.2603 14.8917 60.6715 14.9079 60.0874 14.8233C59.538 14.7437 59.017 14.5766 58.5774 14.2201C58.0428 13.7868 57.8394 13.2067 57.891 12.5409C57.9666 11.5618 58.5667 10.9843 59.4306 10.6341C59.9197 10.436 60.439 10.3961 60.9606 10.3718C61.4807 10.3477 61.9892 10.4303 62.4952 10.531C62.6133 10.5545 62.6188 10.5168 62.618 10.4219C62.6154 10.2 62.5977 9.98049 62.5682 9.76039C62.5326 9.49424 62.3811 9.32481 62.1503 9.21274C61.7587 9.02275 61.3385 8.98047 60.9116 8.9825C60.5511 8.98424 60.2073 9.06967 59.8705 9.19681C59.5322 9.32453 59.1742 9.20723 58.975 8.91907C58.7839 8.64279 58.8033 8.2689 59.0225 8.00652C59.0981 7.91616 59.1893 7.84347 59.2994 7.80379C60.6689 7.3103 62.0252 7.28858 63.3475 7.95526C63.8778 8.22286 64.2934 8.61412 64.4848 9.20231C64.5873 9.51683 64.5586 9.84148 64.5679 10.1621C64.5798 10.5808 64.5708 11.0002 64.5708 11.4193C64.5697 11.4193 64.5679 11.4201 64.5668 11.4201ZM61.5763 13.4801C61.7442 13.4784 62.0338 13.4709 62.3194 13.4231C62.554 13.3837 62.6113 13.3133 62.6145 13.0738C62.6189 12.7706 62.6125 12.4671 62.6168 12.1636C62.6189 12.0144 62.5563 11.9351 62.4098 11.8989C62.0625 11.8126 61.7101 11.7613 61.3544 11.7358C60.9299 11.7054 60.5273 11.7975 60.165 12.0199C59.8907 12.1882 59.7732 12.4511 59.8091 12.772C59.8415 13.0631 60.0321 13.2308 60.2849 13.3394C60.3593 13.3712 60.4393 13.3947 60.5189 13.4097C60.8279 13.4688 61.1413 13.4819 61.5763 13.4801Z" fill="#00953B"/>
<path d="M48.6047 11.4893C48.6047 12.0193 48.585 12.5499 48.609 13.0787C48.649 13.9583 48.0588 14.563 47.2656 14.7098C46.355 14.8783 45.4378 14.907 44.5157 14.8627C43.9993 14.8378 43.5093 14.7162 43.041 14.4955C41.6518 13.8413 41.5765 12.0022 42.6541 11.1071C43.1983 10.655 43.8383 10.4693 44.5279 10.4001C45.2018 10.3324 45.8656 10.3871 46.5242 10.529C46.6359 10.553 46.6545 10.5221 46.6516 10.4207C46.6455 10.209 46.6357 9.99844 46.6096 9.78761C46.5772 9.52522 46.4428 9.34132 46.2111 9.2249C45.8129 9.02507 45.3834 8.98047 44.9467 8.9825C44.5864 8.98424 44.2429 9.07112 43.9058 9.19681C43.5641 9.32424 43.2078 9.20694 43.0106 8.91994C42.8177 8.63931 42.8363 8.27006 43.0561 8.00854C43.1485 7.89849 43.2672 7.82754 43.3996 7.77686C44.1282 7.49796 44.8844 7.41658 45.6576 7.47016C46.32 7.51621 46.9458 7.68824 47.5201 8.03113C48.2398 8.46062 48.6345 9.06822 48.6076 9.92836C48.5914 10.4482 48.6047 10.9689 48.6047 11.4893ZM45.5369 13.4824C45.7943 13.4732 46.1022 13.4691 46.4066 13.4135C46.556 13.3863 46.6296 13.3035 46.6438 13.1517C46.6765 12.801 46.6577 12.4509 46.6484 12.1004C46.6455 11.9892 46.5728 11.9319 46.4686 11.9046C46.1277 11.8157 45.7799 11.7694 45.4303 11.7373C45.0318 11.7005 44.6544 11.7862 44.2988 11.9608C43.962 12.1265 43.7966 12.4398 43.8479 12.7851C43.8942 13.0975 44.1505 13.3318 44.5386 13.4077C44.8514 13.4688 45.1688 13.4819 45.5369 13.4824Z" fill="#00953B"/>
<path d="M79.9316 11.1992C79.9316 12.0709 79.9319 12.9429 79.9316 13.8146C79.9314 14.3649 79.5106 14.7909 78.9681 14.7912C78.4173 14.7918 77.9878 14.3637 77.9878 13.8126C77.9875 12.0689 77.9875 10.3251 77.9878 8.58139C77.9878 8.032 78.4228 7.59904 78.9693 7.60251C79.5088 7.6057 79.9316 8.03577 79.9319 8.58342C79.9325 9.45514 79.9316 10.3274 79.9316 11.1992Z" fill="#00953B"/>
<path d="M77.9247 6.12001C77.9276 5.546 78.3944 5.08408 78.9681 5.08784C79.5424 5.09161 80.0014 5.55643 80 6.13246C79.9986 6.70994 79.5395 7.16839 78.962 7.16897C78.3779 7.16955 77.9218 6.70849 77.9247 6.12001Z" fill="#00953B"/>
<path d="M11.8149 11.03C11.8149 11.5056 11.8154 11.9814 11.8154 12.4569C11.8154 12.9336 11.8178 13.4106 11.8149 13.8876C11.8111 14.4642 11.3964 14.9765 10.8508 15.0828C10.2828 15.1934 9.73635 14.9647 9.44326 14.375C9.35957 14.2067 9.3448 14.0092 9.34538 13.8143C9.34885 12.4317 9.34711 11.0491 9.34711 9.66655C9.34711 8.65466 8.74067 7.79337 7.78323 7.44584C6.42236 6.95176 4.89351 7.88517 4.71367 9.31815C4.69745 9.4479 4.68992 9.57677 4.68992 9.70681C4.68992 11.0894 4.69021 12.472 4.68992 13.8546C4.68992 14.5114 4.21902 15.0376 3.56971 15.108C2.95748 15.1743 2.38029 14.7509 2.24244 14.1277C2.21869 14.0208 2.21521 13.9079 2.21521 13.7975C2.21348 12.4149 2.21348 11.0323 2.21435 9.64976C2.21608 7.32044 3.87322 5.33691 6.16692 4.91697C8.7873 4.43738 11.3437 6.25352 11.7584 8.88924C11.7627 8.91734 11.7714 8.94485 11.7801 8.98163C11.8386 8.96483 11.8661 8.91849 11.9006 8.88432C13.119 7.66883 14.3353 6.45103 15.5552 5.23699C16.1512 4.64416 17.1269 4.74987 17.5691 5.44985C17.8639 5.91641 17.8164 6.5356 17.4515 6.96914C17.4049 7.02417 17.3533 7.07543 17.3024 7.1264C16.5523 7.8759 15.8013 8.62512 15.0512 9.37492C14.7023 9.72361 14.7014 10.2359 15.0515 10.5864C15.8146 11.3506 16.581 12.1114 17.3429 12.8766C17.8121 13.3478 17.8955 14.0049 17.5587 14.5224C17.1095 15.2128 16.1518 15.3168 15.5673 14.7353C14.3576 13.5317 13.1497 12.326 11.9414 11.1207C11.9075 11.0868 11.8794 11.0474 11.8485 11.0106C11.8372 11.0173 11.8262 11.0237 11.8149 11.03Z" fill="#FEFEFE"/>
<path d="M8.25297 10.498C8.25239 11.1893 7.70793 11.7329 7.01663 11.7323C6.33316 11.7315 5.77016 11.1725 5.77161 10.496C5.77306 9.81136 6.34185 9.24575 7.02503 9.24981C7.70706 9.25386 8.25384 9.80933 8.25297 10.498Z" fill="#DBE000"/>
</g>
<defs>
<clipPath id="clip0_1801_9967">
<rect width="80" height="19.9705" fill="white"/>
</clipPath>
</defs>
</svg>
