<svg width="80" height="19" viewBox="0 0 80 19" fill="none" xmlns="http://www.w3.org/2000/svg">
<g clip-path="url(#clip0_1801_11779)">
<g clip-path="url(#clip1_1801_11779)">
<path fill-rule="evenodd" clip-rule="evenodd" d="M25.1292 9.04065C26.9861 9.20948 27.5421 8.92482 29.0107 8.30815C31.1881 7.3241 32.4871 4.8176 32.2007 3.74841C32.0335 3.01551 31.4025 2.68922 30.7091 2.59668C29.6062 2.50961 28.4952 2.44322 27.6104 2.48378L25.1292 9.04065ZM0 11.0572H4.52751L10.5032 4.05474L12.0128 11.0572H26.2037C28.4653 11.1797 30.9447 10.9602 32.535 10.3435C34.8596 9.54317 36.5207 8.12644 37.6222 5.97245C38.6371 4.03891 38.555 2.66859 37.7248 1.44706C36.9593 0.379661 34.9861 0.0615021 33.0286 0.0615021C30.8887 -0.00191324 26.0945 0.0363373 20.8327 0.0363373L21.1998 2.34643L18.3045 10.284L16.2021 0.094882L12.3716 0.0784122C10.896 0.0784122 10.2459 0.249138 9.16833 1.30459" fill="#231F20"/>
<path fill-rule="evenodd" clip-rule="evenodd" d="M36.7656 11.0827H43.3701L47.4696 0L40.9238 0.061232C39.5956 3.55716 38.1649 7.41479 36.7656 11.0827Z" fill="#231F20"/>
<path fill-rule="evenodd" clip-rule="evenodd" d="M44.8989 11.0827L48.753 0.986301L48.9984 0.0612902H62.1996C63.8353 0.0149659 66.0774 1.83403 63.9214 4.18776L61.599 6.65009L63.3109 9.91278L64.0453 11.0827H56.9498L54.9784 6.39622L58.7295 2.26466L54.8707 2.40116L51.5055 11.0827H44.8989Z" fill="#231F20"/>
<path fill-rule="evenodd" clip-rule="evenodd" d="M8.89046 5.94641L19.4728 5.95659L4.88867 10.6261L8.89046 5.94641Z" fill="#FFDE00"/>
<path fill-rule="evenodd" clip-rule="evenodd" d="M60.9827 11.0827H65.8092L71.9878 3.81819L73.4543 11.0827H80L77.6754 0.119141L73.2109 0.124711C72.1006 0.124711 71.4386 0.308402 70.3393 1.35588C70.4001 1.41711 60.9827 11.0827 60.9827 11.0827Z" fill="#231F20"/>
<path d="M18.7 18.2941V14.0746H21.7024V14.4477V14.8238H19.5812V15.7825H21.4297V16.1442V16.5087H19.5812V18.2941H19.142H18.7Z" fill="#231F20"/>
<path d="M28.1682 18.2941V14.0746H28.6074H29.0494V18.2941H28.6103H28.1682Z" fill="#231F20"/>
<path d="M45.7061 18.2941L47.2898 14.0746H47.7983H48.3067L49.7951 18.2941H49.3294H48.8638L48.581 17.4359H46.987L46.645 18.2941C46.3431 18.2941 46.0079 18.2941 45.7061 18.2941ZM47.762 15.1373L47.2199 16.6749C47.5922 16.6749 47.9298 16.6749 48.3021 16.6749L47.762 15.1373Z" fill="#231F20"/>
<path d="M70.1533 16.8158C70.0972 17.3038 69.897 17.6913 69.5527 17.9783C69.2104 18.2654 68.774 18.4089 68.2435 18.4089C67.6229 18.4089 67.1294 18.2108 66.7631 17.8147C66.3987 17.4186 66.2166 16.8828 66.2166 16.2073C66.2166 15.5184 66.3987 14.972 66.7631 14.5682C67.1294 14.1626 67.6229 13.9597 68.2435 13.9597C68.768 13.9597 69.2024 14.0956 69.5467 14.3673C69.891 14.6371 70.0932 15.0036 70.1533 15.4667H69.2284C69.1984 15.239 69.0953 15.0581 68.9191 14.9242C68.7449 14.7902 68.5227 14.7233 68.2525 14.7233C67.9102 14.7233 67.6419 14.8543 67.4477 15.1165C67.2535 15.3768 67.1564 15.7384 67.1564 16.2015C67.1564 16.6531 67.2525 17.0072 67.4447 17.2636C67.6389 17.5181 67.9082 17.6454 68.2525 17.6454C68.5227 17.6454 68.7449 17.5707 68.9191 17.4215C69.0953 17.2722 69.1984 17.0703 69.2284 16.8158H70.1533Z" fill="#231F20"/>
<path d="M76.6006 18.2941V14.0746H79.7064V14.4477V14.8238H77.4818V15.7193H79.5457V16.081V16.4456H77.4818V17.5449H79.804V17.9181V18.2941H76.6006Z" fill="#231F20"/>
<path d="M36.7063 18.3643L36.6642 18.2941H36.239H35.8108V14.0746H36.2895H36.7682L38.5226 16.9358C38.5226 15.9493 38.5226 15.0611 38.5226 14.0746H38.9478H39.376V18.2941H38.921H38.4661L36.7063 15.5056V18.3643Z" fill="#231F20"/>
<path d="M57.0635 18.3643L57.0214 18.2941H56.5962H56.168V14.0746H56.6467H57.1254L58.8798 16.9358C58.8798 15.9493 58.8798 15.0611 58.8798 14.0746H59.305H59.7331V18.2941H59.2782H58.8233L57.0635 15.5056V18.3643Z" fill="#231F20"/>
</g>
</g>
<defs>
<clipPath id="clip0_1801_11779">
<rect width="80" height="18.4089" fill="white"/>
</clipPath>
<clipPath id="clip1_1801_11779">
<rect width="80" height="18.4089" fill="white"/>
</clipPath>
</defs>
</svg>
