<svg width="68" height="71" viewBox="0 0 68 71" fill="none" xmlns="http://www.w3.org/2000/svg">
<g clip-path="url(#clip0_1801_11776)">
<path fill-rule="evenodd" clip-rule="evenodd" d="M3.36674 0H64.6156C66.4288 0 67.9827 1.55388 67.9827 3.36674V66.5579C67.9827 68.5011 66.4288 70.055 64.6156 70.055H3.36674C1.42439 70.055 0 68.5011 0 66.5579V3.36674C0 1.55388 1.42439 0 3.36674 0Z" fill="#673E89"/>
<path fill-rule="evenodd" clip-rule="evenodd" d="M0 23.6967H3.23725C32.761 23.6967 56.7171 20.5889 56.7171 15.5392C56.7171 9.97115 32.761 5.439 3.23725 5.439H0V4.12252C2.24242 4.05154 4.97043 4.27359 7.25145 4.27359C39.1056 4.27359 64.875 10.7481 64.875 18.2585C64.875 25.7689 39.1056 31.078 7.25145 31.078C4.97043 31.078 2.24284 31.0789 0 30.9759V23.6967Z" fill="#F7A131"/>
<path fill-rule="evenodd" clip-rule="evenodd" d="M27.4519 48.2994C27.4519 47.7814 27.3224 47.2635 27.3224 46.6164C27.3224 41.5663 31.4661 37.4226 36.3867 37.4226C41.4368 37.4226 45.451 41.5663 45.451 46.6164C45.451 51.6666 41.4368 55.8102 36.3867 55.8102C32.6315 55.8102 29.3943 53.479 27.9699 50.1123H25.7685C23.4377 50.1123 21.2364 49.9828 19.294 49.7238V53.738H27.8404V55.5504H17.4812V49.3345C15.0209 48.8165 13.467 47.9101 13.467 47.0041C13.467 46.0981 14.6324 45.0617 17.4812 44.5438V39.1052L5.95655 55.5513H3.62614L15.9277 37.8111H27.8408V39.7535H19.294V44.2856C20.5889 44.1565 22.1428 44.0271 23.9553 44.0271C22.1424 44.0271 20.5885 44.2856 19.294 44.545V47.9113C21.1069 48.1707 23.4377 48.4293 26.0275 48.4293H27.4519V48.2994ZM60.3428 37.8111V55.5513H58.4005L48.2998 41.1774V55.5513H46.487V37.8111H48.2998L58.4005 52.3136V37.8111H60.3428Z" fill="white"/>
<path fill-rule="evenodd" clip-rule="evenodd" d="M17.4812 47.5229C16.1863 47.2635 15.4093 46.7463 15.4093 46.357C15.4093 45.9686 16.1863 45.4506 17.4812 45.0626V47.5229ZM30.0417 49.9832C34.7033 49.4652 38.0705 48.4293 38.0705 47.0049C38.0705 45.8391 36.5166 44.8032 31.4661 44.2852C34.4448 44.6745 36.5166 45.5805 36.5166 46.357C36.5166 47.2635 33.5379 48.0408 29.3943 48.2994C29.2648 47.7814 29.2648 47.2635 29.2648 46.6164C29.2648 42.6023 32.502 39.3646 36.3871 39.3646C40.4013 39.3646 43.639 42.6023 43.639 46.6164C43.639 50.6306 40.4013 53.997 36.3871 53.997C33.6674 53.9974 31.2071 52.3136 30.0417 49.9832Z" fill="#673E89"/>
<path fill-rule="evenodd" clip-rule="evenodd" d="M9.32329 64.2271C9.1938 64.3566 8.54635 64.875 7.8989 64.875C6.73349 64.875 5.95613 63.839 5.95613 62.2852C5.95613 60.9899 6.604 59.6954 7.8989 59.6954C8.54635 59.6954 9.06431 60.2133 9.1938 60.4719V60.3428C9.32329 60.2133 9.32329 59.9535 9.45278 59.8249C8.93482 59.5655 8.41686 59.4356 7.8989 59.4356C6.47409 59.4356 5.3091 60.4715 5.3091 62.2848C5.3091 64.0972 6.21553 65.263 7.76941 65.263C8.28737 65.263 8.80533 65.1335 9.32329 64.7451V64.2271ZM11.2656 59.8249H12.3016C12.8195 59.9539 13.0785 60.3428 13.0785 60.8608C13.0785 61.5078 12.69 61.8959 12.1717 62.0258C11.7832 62.1553 11.3947 62.0258 11.2652 62.0258L11.2656 59.8249ZM10.7477 65.1335H11.2656V62.4138H11.5246L12.0426 63.1912L12.949 64.357L13.3379 65.1335H14.1148L13.9854 64.875L13.7264 64.4857L12.302 62.2848C12.9494 62.1553 13.5969 61.7668 13.5969 60.7309C13.5969 59.9535 13.2084 59.565 12.1725 59.565H10.7481L10.7477 65.1335ZM15.9273 59.9539H17.7402V59.5655H15.2798V65.1335H17.7402V64.6156H17.0927C16.7042 64.7451 16.3158 64.7451 15.9273 64.7451V62.2848H16.9632C17.0927 62.2848 17.3517 62.2848 17.6107 62.4138C17.6107 62.2848 17.4812 62.1553 17.4812 62.1553C17.4812 62.0258 17.6107 62.0258 17.6107 61.8959H15.9273V59.9539ZM19.812 59.8249H20.7184C22.1428 59.8249 22.7903 60.4719 22.7903 62.1553C22.7903 63.1912 22.5313 64.0976 21.7543 64.4857C21.2364 64.875 20.4594 64.7451 19.812 64.7451V59.8249ZM19.1645 65.1335H20.5889C21.2364 65.1335 22.0133 65.004 22.6608 64.4857C23.1787 63.9677 23.4377 63.1912 23.4377 62.0254C23.4377 61.2488 23.3082 60.4715 22.7903 59.9535C22.1428 59.4356 21.4954 59.565 20.7184 59.565H19.1645V65.1335ZM24.8621 65.1335H25.51V59.5655H24.8621V65.1335ZM28.8763 59.9539H30.3007V59.5655H26.675C26.8045 59.5655 26.8045 59.695 26.8045 59.8249C26.8045 59.8249 26.8045 59.9539 26.675 59.9539H28.2289V65.1335H28.8763V59.9539ZM33.5379 63.9677C33.5379 64.2271 33.5379 64.4857 33.4085 64.7451C33.6674 65.0036 34.1854 65.263 34.5735 65.263C35.4807 65.263 36.2572 64.4857 36.2572 63.3207C36.2572 61.6369 34.0559 62.1548 34.0559 60.7309C34.0559 60.083 34.4448 59.695 34.9628 59.695C35.3512 59.695 35.7393 60.0834 35.8692 60.4715C35.9987 60.2129 35.9987 59.9535 36.1286 59.8244C35.8692 59.565 35.4807 59.4351 35.0918 59.4351C34.3153 59.4351 33.5384 59.9531 33.5384 60.989C33.5384 62.8023 35.7397 62.1549 35.7397 63.7087C35.7397 64.3566 35.3512 64.8746 34.8333 64.8746C34.1858 64.8746 33.9268 64.4853 33.6679 63.9673L33.5379 63.9677ZM38.1996 59.9539H40.0133V59.5655H37.553V65.1335H40.1419C40.0129 65.004 40.0129 64.875 40.0129 64.875C40.0129 64.7455 40.0129 64.7455 40.1419 64.6156H39.4949C38.9769 64.7451 38.5885 64.7451 38.1996 64.7451V62.2848H39.2355C39.4949 62.2848 39.6248 62.2848 39.8834 62.4138V61.8959H38.1996V59.9539ZM42.0847 59.8249H43.1206C43.6386 59.9539 43.7677 60.3428 43.7677 60.8608C43.7677 61.5078 43.5091 61.8959 42.9911 62.0258C42.6027 62.1553 42.2138 62.0258 42.0847 62.0258V59.8249ZM41.4368 65.1335H42.0847V62.4138H42.3433L43.6386 64.357C43.7677 64.6156 43.8972 64.875 44.1557 65.1335H44.9335L44.804 64.875L44.4155 64.4857L42.9911 62.2848C43.7677 62.1553 44.4155 61.7668 44.4155 60.7309C44.4155 59.9535 44.0271 59.565 42.8617 59.565H41.4373L41.4368 65.1335ZM48.0408 63.1912C47.9113 63.5797 47.7814 63.839 47.6524 64.2271H47.5229L46.7455 61.7668L46.2276 60.3424C46.0985 60.083 46.0985 59.8244 45.969 59.565H45.3211C45.5805 60.2129 46.6165 63.1908 47.393 65.1331H47.652C47.9105 64.2267 49.4644 60.083 49.5943 59.565H49.2062L49.0768 59.6945L48.6883 60.989L48.0408 63.1912ZM50.7597 65.1335H51.4076V59.5655H50.7597V65.1335ZM56.7171 64.2271C56.5876 64.3566 55.9397 64.875 55.2927 64.875C54.1269 64.875 53.3495 63.839 53.3495 62.2852C53.3495 60.9899 53.9974 59.6954 55.2927 59.6954C55.9397 59.6954 56.4577 60.2133 56.5872 60.4719V60.3428C56.7167 60.2133 56.7167 59.9535 56.8458 59.8249C56.3286 59.5655 55.8107 59.4356 55.2927 59.4356C53.8675 59.4356 52.7029 60.4715 52.7029 62.2848C52.7029 64.0972 53.6093 65.263 55.1632 65.263C55.6812 65.263 56.1991 65.1335 56.7171 64.7451V64.2271ZM58.659 59.9539H60.4719V59.5655H58.0116V65.1335H60.6014C60.4719 65.004 60.4719 64.875 60.4719 64.875C60.4719 64.7455 60.4719 64.7455 60.6014 64.6156H59.9535C59.4356 64.7451 59.0471 64.7451 58.659 64.7451V62.2848H59.695C59.9535 62.2848 60.0834 62.2848 60.3428 62.4138V61.8959H58.659V59.9539Z" fill="white"/>
</g>
<defs>
<clipPath id="clip0_1801_11776">
<rect width="67.9827" height="70.055" fill="white"/>
</clipPath>
</defs>
</svg>
