<svg width="80" height="80" viewBox="0 0 80 80" fill="none" xmlns="http://www.w3.org/2000/svg">
<g clip-path="url(#clip0_1801_11144)">
<path d="M42.7235 25.6183C41.283 24.7037 39.6694 24.0958 37.9835 23.8326C36.3626 23.584 34.7095 23.6402 33.1092 23.9983C31.2497 24.43 29.5112 25.2746 28.0224 26.4696C26.5337 27.6645 25.333 29.1791 24.5092 30.9012C23.4178 33.1612 23.0292 35.9012 23.3892 38.8155C23.6772 41.0213 24.5579 43.1077 25.9378 44.8526C28.7578 48.4555 33.4949 50.3497 37.9578 49.6097C39.6945 49.3269 41.3556 48.6936 42.8399 47.7486C44.3243 46.8036 45.6009 45.5665 46.5921 44.1126C48.4178 41.3697 49.0292 37.9183 48.5521 34.564C48.2936 32.7375 47.6377 30.9899 46.6307 29.4443C45.6236 27.8986 44.2899 26.5927 42.7235 25.6183Z" fill="#EB3223"/>
<path d="M45.9433 0.444032C38.1194 -0.731516 30.1227 0.439529 22.9643 3.80906C15.806 7.1786 9.80773 12.5953 5.72805 19.374C1.64837 26.1528 -0.329432 33.9891 0.0447804 41.892C0.418992 49.7948 3.12841 57.4092 7.83036 63.7722C12.5323 70.1351 19.0156 74.9607 26.4603 77.6388C33.905 80.3168 41.9766 80.727 49.6544 78.8174C57.3322 76.9079 64.2713 72.7643 69.5941 66.9108C74.9169 61.0573 78.3842 53.7568 79.5576 45.9326C81.1308 35.4431 78.4733 24.7583 72.1697 16.2279C65.866 7.6975 56.4324 2.02002 45.9433 0.444032ZM58.3062 53.184C57.5465 53.9234 56.5398 54.355 55.4805 54.3955C54.4858 54.4069 53.5174 54.076 52.7376 53.4583C52.2939 53.1088 51.9313 52.6672 51.6748 52.164C51.6382 52.0554 51.5743 51.9579 51.4894 51.8809C51.4044 51.8039 51.3012 51.75 51.1895 51.7242C51.0777 51.6984 50.9613 51.7017 50.8512 51.7336C50.7411 51.7656 50.641 51.8253 50.5605 51.9069C50.2605 52.1926 49.9605 52.4326 49.6405 52.704C48.611 53.6005 47.4884 54.384 46.2919 55.0412C44.1823 56.1711 41.8999 56.9435 39.5376 57.3269C37.8864 57.5897 36.2094 57.6511 34.5433 57.5098C31.419 57.253 28.3922 56.298 25.6862 54.7155C23.0008 53.1226 20.6972 50.9605 18.9376 48.3812C17.3094 45.9722 16.2029 43.2494 15.6891 40.3875C15.1752 37.5257 15.2655 34.588 15.9539 31.7631C16.6424 28.9381 17.9139 26.2884 19.6869 23.9838C21.4598 21.6793 23.6951 19.7709 26.2491 18.3812C28.3702 17.2379 30.6708 16.4649 33.0519 16.0955C39.0719 15.1326 44.8919 16.9955 49.2176 20.3812C50.9944 21.764 52.5203 23.4417 53.7291 25.3412C54.2176 26.0297 55.3433 27.584 56.6062 31.8297C57.5966 35.3013 58.3338 38.8401 58.8119 42.4183C59.0519 44.1326 59.1976 45.2755 59.3833 47.5612C59.4148 47.964 59.5348 49.9869 59.5348 50.1783C59.5391 51.3033 59.0973 52.3841 58.3062 53.184ZM70.7548 51.6755C70.0161 52.3875 69.0321 52.7884 68.0062 52.7955C66.9453 52.7955 65.9279 52.374 65.1778 51.6239C64.4276 50.8737 64.0062 49.8563 64.0062 48.7955L63.9633 47.9012C63.9046 45.3204 63.7014 42.7449 63.3548 40.1869C62.9862 37.164 62.5348 34.2669 61.9776 31.5297C60.6547 24.975 58.6772 18.5695 56.0748 12.4097C55.6405 11.3983 55.2376 10.4097 54.8548 9.6326C54.5999 9.18238 54.4185 8.69433 54.3176 8.18689C54.2966 7.95446 54.3242 7.72021 54.3986 7.49901C54.473 7.27781 54.5926 7.0745 54.7498 6.902C54.9069 6.7295 55.0983 6.59157 55.3116 6.49699C55.525 6.40241 55.7557 6.35324 55.9891 6.3526C56.5501 6.3934 57.1038 6.50377 57.6376 6.68117C58.4013 6.90716 59.1322 7.2318 59.8119 7.64689C60.959 8.31632 61.9574 9.21269 62.7462 10.2812C63.2154 10.9338 63.6238 11.6282 63.9662 12.3555C64.2976 13.104 64.6205 13.844 64.9376 14.6012C65.6891 16.3926 66.3662 18.2326 67.0462 20.0612C67.4748 21.2297 67.8605 22.404 68.2462 23.5955C68.4519 24.224 68.6805 24.8983 68.8576 25.5326C69.1005 26.3897 69.3948 27.3355 69.6491 28.2697C69.7748 28.7326 69.9348 29.2955 70.0319 29.8097C70.2462 30.8412 70.3891 31.8669 70.5605 32.864C70.9433 35.1069 71.2033 37.3869 71.4033 39.3612C71.7519 42.7897 71.8862 45.5612 71.9433 47.6726C71.9433 47.904 71.9662 48.5697 71.9662 48.8298C71.9623 49.3606 71.8533 49.8854 71.6453 50.3739C71.4374 50.8623 71.1347 51.3047 70.7548 51.6755Z" fill="#EB3223"/>
</g>
<defs>
<clipPath id="clip0_1801_11144">
<rect width="80.0002" height="80" fill="white"/>
</clipPath>
</defs>
</svg>
