<svg width="80" height="23" viewBox="0 0 80 23" fill="none" xmlns="http://www.w3.org/2000/svg">
<g clip-path="url(#clip0_1801_10324)">
<g clip-path="url(#clip1_1801_10324)">
<path d="M12.2273 7.33203C11.8152 7.06952 11.353 6.89558 10.8701 6.82124C10.4063 6.74953 9.93322 6.76555 9.47537 6.86849C8.94302 6.99181 8.44527 7.23344 8.01907 7.57544C7.59287 7.91745 7.24916 8.35104 7.01346 8.84405C6.70144 9.49578 6.58983 10.2754 6.6933 11.1096C6.77618 11.7423 7.02963 12.3404 7.42649 12.84C8.23301 13.8713 9.58861 14.4139 10.866 14.2013C11.3631 14.1205 11.8385 13.9395 12.2635 13.6692C12.6884 13.3989 13.0539 13.045 13.3377 12.629C13.8607 11.8428 14.0359 10.8546 13.899 9.89497C13.825 9.37144 13.6369 8.87056 13.348 8.4277C13.0592 7.98484 12.6766 7.61081 12.2273 7.33203Z" fill="#EB3223"/>
<path d="M13.1487 0.128722C10.9097 -0.207282 8.62127 0.128214 6.57289 1.09278C4.52451 2.05735 2.80815 3.60768 1.64087 5.54771C0.473585 7.48773 -0.0922029 9.73033 0.0150528 11.9919C0.122309 14.2535 0.89779 16.4325 2.24343 18.2533C3.58908 20.0742 5.44445 21.4551 7.57492 22.2215C9.70539 22.9879 12.0153 23.1053 14.2125 22.5589C16.4097 22.0125 18.3955 20.8269 19.9189 19.1519C21.4422 17.4768 22.4347 15.3877 22.7707 13.1487C22.9939 11.662 22.922 10.1459 22.5592 8.68699C22.1964 7.22808 21.5498 5.85492 20.6563 4.6459C19.7628 3.43688 18.6399 2.41569 17.3518 1.64063C16.0636 0.865571 14.6354 0.351824 13.1487 0.128722ZM16.6876 15.2244C16.4705 15.4366 16.1821 15.5603 15.8787 15.5715C15.5942 15.5748 15.3172 15.4802 15.0941 15.3035C14.9669 15.2035 14.8629 15.077 14.7895 14.9328C14.779 14.9017 14.7608 14.8739 14.7365 14.8519C14.7123 14.8298 14.6828 14.8144 14.6509 14.807C14.6189 14.7995 14.5857 14.8004 14.5542 14.8094C14.5227 14.8185 14.494 14.8354 14.4709 14.8587C14.3895 14.9401 14.299 15.0094 14.2078 15.0876C13.9139 15.3438 13.5936 15.568 13.2522 15.7564C12.6484 16.0804 11.9952 16.3026 11.319 16.4139C10.8463 16.4892 10.3662 16.5067 9.88926 16.466C8.99466 16.3927 8.12796 16.1193 7.35321 15.666C6.58455 15.2103 5.92521 14.5916 5.42164 13.8534C4.95581 13.1639 4.63926 12.3847 4.4923 11.5658C4.34534 10.7468 4.37123 9.90614 4.5683 9.09777C4.76537 8.28939 5.12927 7.53114 5.63664 6.87168C6.14402 6.21223 6.78366 5.66613 7.51452 5.26844C8.12188 4.94235 8.78028 4.72197 9.46156 4.61671C11.1846 4.34135 12.8506 4.87414 14.0889 5.8387C14.5977 6.23428 15.0345 6.71464 15.3801 7.25866C15.5202 7.455 15.8428 7.90062 16.2037 9.11528C16.4872 10.1089 16.6982 11.1217 16.8351 12.1458C16.9035 12.6346 16.9459 12.9605 16.998 13.6171C17.007 13.7328 17.0412 14.312 17.0412 14.3666C17.0415 14.6881 16.9144 14.9966 16.6876 15.2244ZM20.2518 14.7927C20.0407 14.9962 19.7596 15.111 19.4665 15.1137C19.1623 15.1134 18.8707 14.9925 18.6556 14.7775C18.4405 14.5624 18.3196 14.2708 18.3194 13.9666L18.3072 13.71C18.2903 12.97 18.2321 12.2316 18.1328 11.4982C18.0269 10.6338 17.8982 9.80449 17.7385 9.02078C17.3601 7.14448 16.794 5.31097 16.0489 3.54787C15.9243 3.25866 15.8086 2.9776 15.6994 2.75276C15.6262 2.62401 15.5742 2.48425 15.5455 2.33891C15.5387 2.27709 15.5445 2.21454 15.5626 2.15503C15.5806 2.09552 15.6106 2.04029 15.6506 1.99267C15.695 1.93625 15.7519 1.89082 15.8167 1.85988C15.8816 1.82894 15.9527 1.81334 16.0245 1.81426C16.1848 1.8255 16.343 1.85698 16.4954 1.90795C16.714 1.97278 16.9233 2.06589 17.1178 2.18493C17.4465 2.37683 17.7326 2.63381 17.9585 2.94013C18.0928 3.12693 18.2095 3.32574 18.3072 3.53402C18.4025 3.74827 18.4937 3.96009 18.585 4.17597C18.8001 4.68921 18.9964 5.21548 19.1886 5.73931C19.3117 6.07414 19.4216 6.4106 19.5324 6.75113C19.5911 6.93117 19.6563 7.12424 19.7076 7.3051C19.7777 7.55438 19.8607 7.82241 19.9341 8.08962C19.9699 8.22241 20.0155 8.3829 20.0432 8.52954C20.1043 8.82526 20.1459 9.11854 20.1948 9.40449C20.3039 10.0464 20.3789 10.699 20.4392 11.2635C20.5385 12.2411 20.5768 13.0387 20.5939 13.6424C20.5939 13.7092 20.6005 13.8998 20.6005 13.9739C20.5996 14.1267 20.5683 14.2778 20.5084 14.4184C20.4486 14.5589 20.3613 14.6862 20.2518 14.7927Z" fill="#EB3223"/>
<path d="M31.0722 10.5686H27.4836V20.1556H29.381V17.0159H31.0722C32.0311 17.0159 32.8319 16.7112 33.4543 16.1075C34.0767 15.5038 34.379 14.7226 34.379 13.7857C34.379 12.8488 34.0678 12.0822 33.4527 11.4761C32.8376 10.87 32.0311 10.5686 31.0722 10.5686ZM32.0849 14.7853C31.9525 14.9176 31.7942 15.0211 31.62 15.0894C31.4457 15.1577 31.2592 15.1892 31.0722 15.182H29.381V12.4024H31.0722C31.2599 12.3956 31.4469 12.4276 31.6215 12.4964C31.7962 12.5652 31.9548 12.6694 32.0873 12.8024C32.2182 12.9296 32.3209 13.0828 32.3889 13.2522C32.4568 13.4216 32.4884 13.6033 32.4816 13.7857C32.4894 13.9708 32.4581 14.1556 32.3897 14.3278C32.3214 14.5 32.2175 14.6559 32.0849 14.7853Z" fill="#EB3223"/>
<path d="M59.3565 12.8717C58.798 12.8713 58.2469 12.9994 57.7458 13.2461C57.2447 13.4928 56.8071 13.8514 56.4669 14.2943C56.1266 14.7372 55.8928 15.2524 55.7835 15.8001C55.6742 16.3478 55.6924 16.9133 55.8367 17.4529C55.981 17.9924 56.2474 18.4916 56.6155 18.9116C56.9835 19.3317 57.4433 19.6615 57.9592 19.8754C58.4751 20.0894 59.0333 20.1818 59.5906 20.1455C60.1479 20.1091 60.6894 19.9451 61.1732 19.666V20.1548H62.9972V16.4562C62.9814 15.5008 62.591 14.5897 61.9101 13.9193C61.2291 13.2488 60.3121 12.8726 59.3565 12.8717ZM59.3565 18.33C58.9972 18.33 58.6459 18.2234 58.3472 18.0238C58.0484 17.8242 57.8156 17.5404 57.6781 17.2085C57.5406 16.8765 57.5046 16.5112 57.5747 16.1588C57.6448 15.8064 57.8178 15.4827 58.0719 15.2287C58.326 14.9746 58.6497 14.8016 59.0021 14.7315C59.3545 14.6614 59.7198 14.6973 60.0517 14.8348C60.3837 14.9723 60.6674 15.2052 60.867 15.5039C61.0667 15.8027 61.1732 16.1539 61.1732 16.5133C61.1728 16.9949 60.9812 17.4568 60.6406 17.7974C60.3 18.138 59.8382 18.3295 59.3565 18.33Z" fill="#EB3223"/>
<path d="M55.1217 18.3218H52.026V10.5686H50.1287V20.1556H56.5816C55.9432 19.6823 55.4399 19.05 55.1217 18.3218Z" fill="#EB3223"/>
<path d="M38.3178 12.8717C37.7592 12.8712 37.2081 12.9992 36.7069 13.2458C36.2057 13.4924 35.7681 13.851 35.4277 14.2938C35.0873 14.7367 34.8534 15.2519 34.744 15.7996C34.6347 16.3473 34.6528 16.9129 34.797 17.4525C34.9413 17.9921 35.2077 18.4913 35.5757 18.9114C35.9438 19.3315 36.4035 19.6614 36.9194 19.8754C37.4354 20.0894 37.9936 20.1818 38.551 20.1455C39.1083 20.1092 39.6498 19.9451 40.1336 19.666V20.1548H41.9552V16.4562C41.9399 15.5012 41.55 14.5904 40.8697 13.9199C40.1893 13.2495 39.2729 12.8731 38.3178 12.8717ZM38.3178 18.33C37.9584 18.3301 37.6071 18.2237 37.3082 18.0242C37.0094 17.8247 36.7764 17.541 36.6388 17.209C36.5011 16.8771 36.465 16.5118 36.5351 16.1593C36.6051 15.8069 36.778 15.4831 37.0321 15.2289C37.2861 14.9748 37.6098 14.8017 37.9622 14.7315C38.3147 14.6614 38.68 14.6973 39.012 14.8348C39.344 14.9722 39.6278 15.2051 39.8274 15.5039C40.0271 15.8026 40.1336 16.1539 40.1336 16.5133C40.1332 16.9948 39.9418 17.4565 39.6014 17.7971C39.2609 18.1377 38.7993 18.3293 38.3178 18.33Z" fill="#EB3223"/>
<path d="M68.5516 12.9075H66.3951V11.0077L64.497 11.516V12.9075H62.4326L62.4603 12.9539C62.9962 13.4468 63.4058 14.0612 63.6546 14.7454H64.4986V20.1596H66.3951V14.7454H67.2342C67.4502 14.1575 67.7948 13.6254 68.2428 13.1877C68.3433 13.0856 68.4462 12.9922 68.5516 12.9075Z" fill="#EB3223"/>
<path d="M45.662 17.4053L43.9552 12.8741H41.9585L44.5948 20.0269L43.6416 22.7617H45.6587L49.3548 12.8741H47.3581L45.662 17.4053Z" fill="#EB3223"/>
<path d="M27.9121 8.70067C28.0357 8.74817 28.1731 8.74465 28.2941 8.69087C28.415 8.6371 28.5097 8.53748 28.5573 8.41391L29.051 7.13163H31.7451L32.2388 8.41391C32.2751 8.50805 32.339 8.589 32.4222 8.64614C32.5053 8.70328 32.6038 8.73393 32.7047 8.73407C32.7661 8.73428 32.8269 8.72295 32.884 8.70067C33.0076 8.65294 33.1072 8.5581 33.161 8.43698C33.2148 8.31586 33.2183 8.17835 33.1707 8.05464L31.2074 2.9524C31.1446 2.78865 31.0337 2.64779 30.8891 2.54843C30.7446 2.44907 30.5734 2.39587 30.398 2.39587C30.2227 2.39587 30.0514 2.44907 29.9069 2.54843C29.7624 2.64779 29.6514 2.78865 29.5887 2.9524L27.6253 8.05464C27.5778 8.17835 27.5813 8.31586 27.6351 8.43698C27.6888 8.5581 27.7885 8.65294 27.9121 8.70067ZM30.3984 3.6302L31.3646 6.13204H29.4355L30.3984 3.6302Z" fill="#EB3223"/>
<path d="M45.3369 8.73327C45.4697 8.73283 45.5969 8.67977 45.6907 8.58571C45.7844 8.49164 45.8371 8.36425 45.8371 8.23143L45.8224 2.82043C45.822 2.68784 45.769 2.56082 45.6751 2.46721C45.5812 2.37361 45.454 2.32104 45.3214 2.32104C45.1887 2.32148 45.0615 2.37456 44.9679 2.46865C44.8743 2.56274 44.8218 2.69014 44.822 2.82288L44.8367 8.23388C44.8369 8.3664 44.8897 8.49342 44.9835 8.58705C45.0773 8.68068 45.2044 8.73327 45.3369 8.73327Z" fill="#EB3223"/>
<path d="M35.0763 8.5621L36.3154 7.16903L37.7525 8.58898C37.8463 8.68286 37.9737 8.7356 38.1064 8.7356C38.2392 8.7356 38.3665 8.68286 38.4604 8.58898C38.5543 8.49511 38.607 8.36778 38.607 8.23501C38.607 8.10225 38.5543 7.97492 38.4604 7.88104L36.994 6.42768C36.9914 6.42455 36.9884 6.42181 36.985 6.41953L38.4832 4.72503C38.5287 4.6759 38.5639 4.61814 38.5867 4.55517C38.6095 4.4922 38.6195 4.4253 38.616 4.35842C38.6125 4.29155 38.5956 4.22605 38.5663 4.1658C38.5371 4.10555 38.4961 4.05178 38.4457 4.00766C38.3953 3.96354 38.3366 3.92997 38.273 3.90893C38.2094 3.8879 38.1423 3.87982 38.0755 3.88518C38.0088 3.89054 37.9438 3.90923 37.8844 3.94014C37.825 3.97105 37.7723 4.01356 37.7296 4.06516L35.2042 6.89856V2.82524C35.2042 2.69236 35.1514 2.56492 35.0574 2.47096C34.9635 2.377 34.836 2.32422 34.7032 2.32422C34.5703 2.32422 34.4429 2.377 34.3489 2.47096C34.2549 2.56492 34.2021 2.69236 34.2021 2.82524V8.23542C34.2021 8.33755 34.2332 8.43726 34.2915 8.52114C34.3498 8.60503 34.4323 8.66907 34.528 8.70467C34.5842 8.7259 34.6439 8.73667 34.704 8.73644C34.7748 8.73536 34.8447 8.71927 34.9088 8.68921C34.973 8.65916 35.0301 8.61584 35.0763 8.5621Z" fill="#EB3223"/>
<path d="M41.7216 8.73316C42.2815 8.73187 42.8181 8.50892 43.2141 8.11307C43.6101 7.71721 43.8333 7.18066 43.8348 6.62073V4.42521C43.8348 4.29233 43.782 4.1649 43.688 4.07094C43.5941 3.97698 43.4667 3.92419 43.3338 3.92419C43.2009 3.92419 43.0735 3.97698 42.9795 4.07094C42.8855 4.1649 42.8328 4.29233 42.8328 4.42521V6.62073C42.8249 6.91013 42.7045 7.18503 42.497 7.38695C42.2895 7.58887 42.0115 7.70185 41.722 7.70185C41.4325 7.70185 41.1544 7.58887 40.9469 7.38695C40.7395 7.18503 40.619 6.91013 40.6112 6.62073V4.42521C40.6112 4.29233 40.5584 4.1649 40.4644 4.07094C40.3705 3.97698 40.243 3.92419 40.1101 3.92419C39.9773 3.92419 39.8498 3.97698 39.7559 4.07094C39.6619 4.1649 39.6091 4.29233 39.6091 4.42521V6.62073C39.6106 7.18052 39.8337 7.71695 40.2295 8.11278C40.6253 8.50861 41.1618 8.73165 41.7216 8.73316Z" fill="#EB3223"/>
<path d="M49.2286 8.73324C49.7331 8.73372 50.2249 8.57491 50.6339 8.27947C50.6466 8.40726 50.7078 8.52531 50.805 8.60925C50.9022 8.69319 51.0279 8.73661 51.1562 8.73055C51.2844 8.72449 51.4055 8.6694 51.4943 8.57667C51.5831 8.48394 51.633 8.36063 51.6335 8.23222V6.38538C51.6335 6.37886 51.6335 6.37316 51.6335 6.36664C51.6335 6.36012 51.6335 6.34139 51.6335 6.32835C51.6335 5.85271 51.4925 5.38775 51.2282 4.99227C50.964 4.59679 50.5884 4.28854 50.1489 4.10652C49.7095 3.9245 49.226 3.87688 48.7594 3.96967C48.2929 4.06247 47.8644 4.29151 47.5281 4.62784C47.1918 4.96417 46.9627 5.39268 46.8699 5.85918C46.7771 6.32568 46.8248 6.80923 47.0068 7.24866C47.1888 7.6881 47.4971 8.06369 47.8925 8.32794C48.288 8.59219 48.753 8.73324 49.2286 8.73324ZM49.2286 4.92631C49.5061 4.92631 49.7774 5.00861 50.0081 5.16279C50.2388 5.31698 50.4186 5.53612 50.5248 5.79251C50.6309 6.04889 50.6587 6.331 50.6045 6.60315C50.5503 6.8753 50.4166 7.12526 50.2203 7.32142C50.024 7.51758 49.774 7.65112 49.5018 7.70516C49.2296 7.7592 48.9475 7.7313 48.6912 7.625C48.4349 7.51869 48.2158 7.33876 48.0618 7.10795C47.9077 6.87715 47.8256 6.60584 47.8258 6.32835C47.8264 5.95657 47.9744 5.6002 48.2374 5.33739C48.5004 5.07457 48.8568 4.92675 49.2286 4.92631Z" fill="#EB3223"/>
<path d="M52.9596 8.70141C53.0159 8.72264 53.0755 8.73341 53.1356 8.73318C53.207 8.7332 53.2777 8.71795 53.3427 8.68844C53.4078 8.65893 53.4658 8.61586 53.5128 8.5621L54.7527 7.16903L56.189 8.58898C56.2355 8.63547 56.2906 8.67234 56.3514 8.6975C56.4121 8.72266 56.4772 8.7356 56.5429 8.7356C56.6087 8.7356 56.6738 8.72266 56.7345 8.6975C56.7953 8.67234 56.8504 8.63547 56.8969 8.58898C56.9434 8.5425 56.9803 8.48732 57.0054 8.42658C57.0306 8.36585 57.0435 8.30075 57.0435 8.23501C57.0435 8.16927 57.0306 8.10418 57.0054 8.04345C56.9803 7.98271 56.9434 7.92753 56.8969 7.88104L55.4305 6.42768C55.4279 6.42455 55.4249 6.42181 55.4216 6.41953L56.9197 4.72503C56.9652 4.6759 57.0004 4.61814 57.0232 4.55517C57.046 4.4922 57.056 4.4253 57.0525 4.35842C57.049 4.29155 57.0321 4.22605 57.0029 4.1658C56.9736 4.10555 56.9326 4.05178 56.8822 4.00766C56.8318 3.96354 56.7731 3.92997 56.7095 3.90893C56.646 3.8879 56.5788 3.87982 56.512 3.88518C56.4453 3.89054 56.3803 3.90923 56.3209 3.94014C56.2615 3.97105 56.2089 4.01356 56.1662 4.06516L53.6407 6.89856V2.82524C53.6407 2.69236 53.5879 2.56492 53.494 2.47096C53.4 2.377 53.2726 2.32422 53.1397 2.32422C53.0068 2.32422 52.8794 2.377 52.7854 2.47096C52.6915 2.56492 52.6387 2.69236 52.6387 2.82524V8.23542C52.6389 8.33642 52.6696 8.43499 52.7269 8.51816C52.7842 8.60134 52.8654 8.66522 52.9596 8.70141Z" fill="#EB3223"/>
<path d="M60.1589 8.73316C60.7187 8.73165 61.2551 8.50861 61.6509 8.11278C62.0468 7.71695 62.2698 7.18052 62.2713 6.62073V4.42521C62.2713 4.29233 62.2185 4.1649 62.1246 4.07094C62.0306 3.97698 61.9032 3.92419 61.7703 3.92419C61.6374 3.92419 61.51 3.97698 61.416 4.07094C61.3221 4.1649 61.2693 4.29233 61.2693 4.42521V6.62073C61.2614 6.91013 61.141 7.18503 60.9335 7.38695C60.7261 7.58887 60.448 7.70185 60.1585 7.70185C59.869 7.70185 59.5909 7.58887 59.3835 7.38695C59.176 7.18503 59.0555 6.91013 59.0477 6.62073V4.42521C59.0477 4.35942 59.0347 4.29427 59.0096 4.23348C58.9844 4.17269 58.9475 4.11746 58.9009 4.07094C58.8544 4.02442 58.7992 3.98751 58.7384 3.96233C58.6776 3.93715 58.6125 3.92419 58.5467 3.92419C58.4809 3.92419 58.4157 3.93715 58.3549 3.96233C58.2942 3.98751 58.2389 4.02442 58.1924 4.07094C58.1459 4.11746 58.109 4.17269 58.0838 4.23348C58.0586 4.29427 58.0457 4.35942 58.0457 4.42521V6.62073C58.0472 7.18066 58.2703 7.71721 58.6663 8.11307C59.0623 8.50892 59.599 8.73187 60.1589 8.73316Z" fill="#EB3223"/>
<path d="M71.5698 12.8757C70.5173 12.8757 69.6293 13.2244 68.9319 13.9128C68.2346 14.6012 67.8916 15.4696 67.8916 16.5157C67.8916 17.5617 68.2419 18.4383 68.9319 19.1226C69.6219 19.8069 70.5165 20.1596 71.5698 20.1596C72.3299 20.1726 73.0757 19.9523 73.7067 19.5283C74.3052 19.116 74.7608 18.5278 75.0101 17.8452L75.0435 17.7548H72.8928C72.8659 17.7841 72.8374 17.8118 72.8114 17.8362C72.7853 17.8607 72.7592 17.8851 72.7299 17.9071L72.712 17.9218C72.672 17.9543 72.6305 17.9853 72.589 18.0138L72.5629 18.0309C72.5303 18.0513 72.4977 18.0725 72.4643 18.0904C72.2436 18.2158 71.9989 18.2933 71.7463 18.318C71.4936 18.3426 71.2386 18.3138 70.9978 18.2334C70.757 18.1531 70.5358 18.0229 70.3486 17.8515C70.1614 17.68 70.0123 17.4711 69.9112 17.2383H75.1812L75.1959 17.1364C75.2289 16.9308 75.2472 16.7231 75.2505 16.5148C75.2505 15.468 74.8953 14.5914 74.1987 13.9136C73.5022 13.2358 72.624 12.8757 71.5698 12.8757ZM71.5698 14.7038C71.9227 14.7038 72.2679 14.8069 72.563 15.0004C72.8581 15.1939 73.0903 15.4694 73.2309 15.793H69.9095C70.0501 15.4695 70.2821 15.1941 70.5771 15.0006C70.872 14.8071 71.2171 14.704 71.5698 14.7038Z" fill="#EB3223"/>
<path d="M79.6367 12.8757C79.0463 12.8752 78.4651 13.0217 77.9455 13.3018V12.8757H76.0481V20.1556H77.9455V16.4301C77.9505 15.9898 78.1268 15.5688 78.4371 15.2564C78.7474 14.944 79.1671 14.7648 79.6074 14.7568H80V12.8937C79.8793 12.8816 79.758 12.8756 79.6367 12.8757Z" fill="#EB3223"/>
</g>
</g>
<defs>
<clipPath id="clip0_1801_10324">
<rect width="80" height="22.8994" fill="white"/>
</clipPath>
<clipPath id="clip1_1801_10324">
<rect width="80" height="22.8994" fill="white"/>
</clipPath>
</defs>
</svg>
