<svg width="80" height="11" viewBox="0 0 80 11" fill="none" xmlns="http://www.w3.org/2000/svg">
<g clip-path="url(#clip0_1801_11278)">
<path d="M5.1422 8.30177C5.1422 7.86584 5.14694 6.70066 5.13619 6.5571C5.14556 4.82327 3.88493 3.60022 3.08852 3.69556C2.53743 3.74339 2.07558 3.9681 1.82759 4.61454C1.59775 5.21699 1.80324 6.01833 2.56741 6.20637C3.38452 6.40831 3.86166 6.57633 4.20696 6.81336C4.63007 7.10355 4.97547 7.65799 4.98464 8.30245" fill="#0060AF"/>
<path d="M5.46838 10.9374C4.02761 10.9374 2.5469 10.5825 1.06816 9.88063L1.03187 9.86279L1.01452 9.82581C0.350926 8.42506 0 6.89299 0 5.39404C0 3.89735 0.33653 2.43084 1.00062 1.03197L1.01886 0.994798L1.05583 0.97626C2.42374 0.328247 3.89528 0 5.43091 0C6.86143 0 8.38918 0.36542 9.84829 1.05859L9.88576 1.07526L9.90302 1.11312C10.5793 2.5397 10.936 4.07138 10.936 5.54549C10.936 7.01387 10.5935 8.48167 9.91643 9.90735L9.89858 9.94482L9.86091 9.96218C8.51391 10.5998 6.99484 10.9374 5.46838 10.9374ZM1.20502 9.68856C2.64155 10.3643 4.07424 10.7055 5.46838 10.7055C6.94663 10.7055 8.41679 10.3824 9.72544 9.76991C10.3755 8.38839 10.705 6.96655 10.705 5.54549C10.705 4.11871 10.3611 2.63455 9.71055 1.24998C8.29452 0.584316 6.81568 0.231321 5.43091 0.231321C3.94419 0.231321 2.51919 0.546651 1.19259 1.16873C0.555821 2.52461 0.231716 3.94537 0.231716 5.39404C0.231716 6.84546 0.56854 8.33021 1.20502 9.68856Z" fill="#0060AF"/>
<path d="M4.80074 8.30245C4.80341 7.74368 4.49153 7.24958 4.08391 6.98405C3.72233 6.74937 3.23691 6.59516 2.45381 6.39657C2.21175 6.33465 1.95854 6.1971 1.88015 6.02179C1.67279 6.23072 1.63512 6.70046 1.6716 6.97497C1.714 7.29267 2.08524 7.81625 2.64422 7.83676C2.98558 7.85046 3.41716 7.76329 3.62412 7.71933C3.98116 7.64221 4.54606 7.86584 4.63598 8.30177" fill="#0060AF"/>
<path d="M5.43091 0.993367C4.48315 0.993367 3.66445 1.61841 3.66741 2.69997C3.67037 3.60948 4.4018 4.09638 4.6628 4.44415C5.05721 4.96822 5.27068 5.58852 5.29287 6.53767C5.31012 7.29307 5.30924 8.03899 5.31308 8.30334H5.52232C5.51867 8.02676 5.5092 7.23489 5.52004 6.5143C5.53424 5.56486 5.75541 4.96822 6.15001 4.44415C6.41328 4.09638 7.14412 3.60948 7.1457 2.69997C7.14925 1.61841 6.33105 0.993367 5.38407 0.993367" fill="#0060AF"/>
<path d="M5.6715 8.30177C5.6715 7.86584 5.66657 6.70066 5.67712 6.5571C5.66785 4.82327 6.92769 3.60022 7.72479 3.69556C8.27588 3.74339 8.73724 3.9681 8.98592 4.61454C9.21556 5.21699 9.00889 6.01833 8.24561 6.20637C7.4281 6.40831 6.95156 6.57633 6.60536 6.81336C6.18275 7.10355 5.86151 7.65799 5.85165 8.30245" fill="#0060AF"/>
<path d="M6.01276 8.30245C6.0098 7.74368 6.32159 7.24958 6.72802 6.98405C7.09108 6.74937 7.57709 6.59516 8.3595 6.39657C8.60206 6.33465 8.85497 6.1971 8.93198 6.02179C9.14033 6.23072 9.1779 6.70046 9.14141 6.97497C9.09813 7.29267 8.72787 7.81625 8.16988 7.83676C7.82862 7.85046 7.39477 7.76329 7.18869 7.71933C6.83304 7.64221 6.26657 7.86584 6.17625 8.30177" fill="#0060AF"/>
<path d="M6.30512 10.1064L6.18384 9.22143L6.47659 9.17706C6.54788 9.1673 6.63465 9.17971 6.66936 9.22439C6.70771 9.27102 6.71945 9.30958 6.72684 9.37071C6.73788 9.44634 6.71599 9.5338 6.6308 9.57738V9.58004C6.72595 9.58004 6.78344 9.64837 6.8001 9.76373C6.80257 9.78808 6.80976 9.84695 6.80257 9.89605C6.78324 10.0129 6.71353 10.0505 6.5959 10.0669L6.30512 10.1064ZM6.49355 9.94793C6.52826 9.94298 6.56346 9.94113 6.59097 9.92357C6.63307 9.89606 6.62922 9.8372 6.62341 9.79352C6.60871 9.69748 6.58367 9.661 6.48181 9.67608L6.41782 9.68594L6.45835 9.95286L6.49355 9.94793ZM6.43222 9.53902C6.47097 9.53274 6.52352 9.52808 6.54541 9.4913C6.55685 9.46675 6.57154 9.44723 6.56188 9.3926C6.54995 9.32782 6.52845 9.28769 6.44622 9.30326L6.3696 9.31559L6.39978 9.54238" fill="#0060AF"/>
<path d="M7.57324 9.57413C7.57551 9.5906 7.57818 9.60894 7.57916 9.6254C7.60282 9.78681 7.57324 9.92042 7.39182 9.9572C7.12362 10.0089 7.07225 9.84223 7.02502 9.60894L6.99987 9.48272C6.9629 9.25948 6.94702 9.09048 7.20851 9.03842C7.35592 9.01151 7.45334 9.07017 7.49387 9.21689C7.50018 9.23878 7.50807 9.26048 7.51103 9.28246L7.3506 9.31559C7.33206 9.26048 7.30751 9.16197 7.23533 9.17026C7.10577 9.18583 7.14856 9.34704 7.16188 9.41439L7.21009 9.65666C7.22459 9.72992 7.25338 9.84696 7.36549 9.82438C7.4565 9.80614 7.41686 9.66435 7.40878 9.60628" fill="#0060AF"/>
<path d="M7.83069 9.84193L7.77518 8.92611L7.99072 8.86034L8.44262 9.65686L8.27292 9.70763L8.16584 9.50521L7.97741 9.5618L8.00177 9.79194L7.83069 9.84193ZM7.96164 9.4139L8.09781 9.37446L7.91697 9.00391" fill="#0060AF"/>
<path d="M2.50696 9.14955C2.57441 8.93361 2.63485 8.77466 2.8922 8.84526C3.02995 8.88372 3.11534 8.94445 3.1113 9.10448C3.11063 9.14008 3.09887 9.17636 3.09118 9.21156L2.93095 9.1673C2.95195 9.07895 2.96527 9.00884 2.85641 8.97532C2.73059 8.94081 2.69993 9.09334 2.68257 9.15921L2.6174 9.39931C2.59669 9.4706 2.57184 9.58842 2.68257 9.61879C2.77408 9.64344 2.82959 9.55362 2.86272 9.42247L2.75061 9.3928L2.78936 9.25387L3.05292 9.33867L2.9278 9.8014L2.80652 9.76847L2.83383 9.67066H2.83038C2.77457 9.75063 2.70643 9.75901 2.64678 9.74757C2.38321 9.67628 2.41073 9.50402 2.47363 9.27388" fill="#0060AF"/>
<path d="M3.48795 9.54041L3.40858 9.91687L3.22991 9.87822L3.42031 8.99918L3.72489 9.068C3.90317 9.10646 3.957 9.18583 3.93176 9.34922C3.91737 9.44299 3.87112 9.54405 3.75822 9.53587L3.75704 9.53434C3.85249 9.56776 3.86057 9.61588 3.84391 9.69911C3.83671 9.7345 3.78711 9.94936 3.82133 9.98406L3.82251 10.0104L3.63763 9.96217C3.62994 9.90262 3.65607 9.79554 3.66642 9.73627C3.67687 9.68382 3.69354 9.60987 3.64029 9.58206C3.59858 9.55987 3.5831 9.56096 3.53597 9.55011L3.48795 9.54041ZM3.51842 9.40424L3.63872 9.43668C3.71178 9.44723 3.7524 9.40937 3.7668 9.32112C3.77982 9.24016 3.76295 9.20851 3.69738 9.19283L3.56841 9.16671" fill="#0060AF"/>
<path d="M4.63391 9.19559L4.81061 9.21611L4.73448 9.83405C4.69751 10.03 4.62178 10.1157 4.40624 10.0888C4.18695 10.0611 4.13488 9.96124 4.14819 9.76374L4.22481 9.14629L4.40288 9.16671L4.32647 9.77035C4.31838 9.83592 4.3032 9.93304 4.41984 9.94477C4.52328 9.95266 4.54675 9.88413 4.55838 9.79894" fill="#0060AF"/>
<path d="M5.00544 10.1227L5.05859 9.23898L5.39808 9.25367C5.5585 9.26156 5.60051 9.3926 5.59548 9.51763C5.59084 9.59365 5.56708 9.67855 5.50082 9.7246C5.44649 9.76374 5.37668 9.77301 5.3119 9.76986L5.20127 9.76372L5.17918 10.1341L5.00544 10.1227ZM5.2063 9.62895L5.29622 9.63398C5.36929 9.63663 5.4177 9.60775 5.42401 9.50047C5.42756 9.39744 5.38861 9.37998 5.29395 9.37584L5.22266 9.3734" fill="#0060AF"/>
<path d="M28.9492 1.84746L27.5999 4.29644C27.0907 3.8829 26.4688 3.57852 25.6753 3.57852C23.7977 3.57852 23.035 4.97818 23.035 5.9641C23.035 6.69593 23.5142 7.77572 25.1849 7.77572C25.8861 7.77572 26.8831 7.28784 27.17 7.06589L25.8356 9.90711C25.1995 10.034 24.9905 10.1127 24.4521 10.1294C21.4618 10.2186 20.2534 8.38164 20.2543 6.50454C20.2563 4.02312 22.4625 1.0053 26.1198 1.0053C26.344 1.0053 26.6181 1.0828 26.8524 1.16868L27.0893 0.865776" fill="#0060AF"/>
<path d="M34.5166 0.942587L34.8987 9.84361H32.0552L32.0535 8.31705H30.1146L29.4764 9.84361H26.3927L29.6167 3.48751L28.8897 3.48278L30.271 0.942587H34.5166ZM32.0351 3.66559L30.9388 6.25458H32.0681" fill="#0060AF"/>
<path d="M18.4591 0.942587C19.8673 0.950475 20.663 1.71484 20.663 2.81899C20.663 3.83686 19.8238 4.73789 18.9025 5.20378C19.851 5.55244 19.933 6.40831 19.933 7.01382C19.933 8.47669 18.4651 9.84361 16.5571 9.84361H12.3959L14.0191 3.57606L13.3523 3.57221L14.7153 0.942587C14.7153 0.942587 17.3141 0.934699 18.4591 0.942587ZM17.0776 4.55143C17.3689 4.55143 17.8832 4.47767 18.0118 3.91396C18.1527 3.30204 17.67 3.28557 17.4385 3.28557L16.6112 3.28195L16.3227 4.55146L17.0776 4.55143ZM15.908 6.12433L15.5271 7.58719H16.5012C16.8844 7.58719 17.4067 7.39699 17.5347 6.92094C17.6611 6.44351 17.296 6.12433 16.9141 6.12433" fill="#0060AF"/>
<path d="M57.629 9.76796C57.6339 9.75122 57.8889 8.32467 58.1956 6.59785C58.5023 4.87103 58.7573 3.44057 58.7622 3.41905L58.7711 3.37991H61.0171L61.0072 3.42774C60.9903 3.5103 60.8404 4.42028 60.8404 4.44066C60.8404 4.45132 60.921 4.38726 61.0196 4.2983C61.6208 3.75579 62.2383 3.41769 62.8046 3.32095C63.1588 3.26045 63.6525 3.29613 63.983 3.40612C64.4425 3.55903 64.7207 3.78188 64.8942 4.13607C65.1104 4.57747 65.133 5.0426 64.9802 5.90208C64.9277 6.19749 64.3018 9.7873 64.3018 9.7931C64.3018 9.79602 63.7537 9.7984 63.0839 9.7984H61.866L61.8751 9.75926C61.8858 9.71323 62.3309 7.3621 62.3961 7.00662C62.4756 6.57327 62.545 6.05388 62.5448 5.89341C62.5445 5.65002 62.4788 5.45852 62.3669 5.37451C62.282 5.3108 62.1404 5.24401 62.0285 5.21486C61.7496 5.14223 61.372 5.23542 61.1494 5.43182C60.9788 5.58234 60.7882 5.92939 60.6937 6.2617C60.6616 6.37446 60.0228 9.73376 60.0228 9.78962C60.0228 9.79445 59.4822 9.7984 58.8214 9.7984C57.6855 9.7984 57.6205 9.79675 57.629 9.76796Z" fill="#00A6B5"/>
<path d="M42.8725 9.79405C42.8728 9.79166 43.1297 8.34946 43.4434 6.58916L44.0137 3.38861L45.14 3.38413C46.2074 3.37989 46.2659 3.38125 46.2577 3.41022C46.2337 3.49503 46.0881 4.42747 46.0974 4.43679C46.1034 4.44275 46.1491 4.40789 46.1991 4.35933C46.4887 4.07807 46.9172 3.77059 47.2698 3.59101C47.6811 3.38153 48.0304 3.29287 48.4435 3.29304C49.3153 3.2934 49.9471 3.63323 50.1889 4.23186C50.3551 4.64336 50.3669 5.10443 50.231 5.87599C50.0631 6.82934 49.5515 9.77101 49.5515 9.78302C49.5515 9.79178 49.0269 9.7984 48.3325 9.7984H47.1135L47.1235 9.75057C47.1701 9.52696 47.633 7.06054 47.6727 6.82398C47.7677 6.25816 47.7991 5.99058 47.7899 5.82381C47.7746 5.54426 47.6905 5.39876 47.4838 5.29444C47.32 5.21172 47.1835 5.18348 47.0032 5.19498C46.5724 5.22246 46.2914 5.43789 46.0717 5.90933C45.9491 6.17219 45.9058 6.36575 45.5862 8.08026C45.4136 9.0056 45.2725 9.77073 45.2725 9.78055C45.2725 9.79258 44.8813 9.7984 44.0723 9.7984C43.4121 9.7984 42.8723 9.79644 42.8725 9.79405Z" fill="#00A6B5"/>
<path d="M39.71 9.76796C39.7143 9.75122 39.9636 8.31489 40.264 6.57611L40.8102 3.4147H43.1531L43.1432 3.46253C43.1377 3.48884 42.8942 4.90365 42.6022 6.60655C42.3101 8.30945 42.0667 9.72426 42.0614 9.75057L42.0518 9.7984H40.877C39.7668 9.7984 39.7027 9.79673 39.71 9.76796Z" fill="#00A6B5"/>
<path d="M35.8534 9.77666C35.8584 9.75513 36.0348 8.74344 36.2452 7.52845C36.4557 6.31345 36.6323 5.29785 36.6378 5.27154L36.6477 5.2237H35.7376L35.7475 5.17587C35.753 5.14956 35.8203 4.76015 35.8972 4.3105C35.9741 3.86086 36.0413 3.47145 36.0466 3.44514L36.0563 3.3973H36.9747L36.9831 3.35817C36.9877 3.33664 37.0001 3.27206 37.0108 3.21466C37.1484 2.47443 37.4469 1.80983 37.8002 1.45709C38.0874 1.17044 38.5466 0.969131 39.1149 0.880822C39.3902 0.838035 40.1308 0.837684 40.4874 0.880171C40.8083 0.918404 41.1913 0.979415 41.2194 0.996785C41.2358 1.0069 41.1806 1.19203 40.9983 1.73848L40.7553 2.46671L40.4961 2.46095C40.0262 2.45052 39.834 2.4989 39.6714 2.66859C39.5355 2.81031 39.4876 2.93675 39.4201 3.33207L39.409 3.3973H40.0012C40.5202 3.3973 40.5934 3.40058 40.5934 3.42381C40.5934 3.44623 40.3159 5.03433 40.2872 5.17587L40.2775 5.2237H39.0714L38.6482 7.48922C38.4155 8.73526 38.2212 9.76844 38.2165 9.78519C38.2085 9.8138 38.1369 9.81563 37.0261 9.81563H35.8441L35.8534 9.77666Z" fill="#00A6B5"/>
<path d="M51.7962 9.93612C51.3843 9.89645 51.1167 9.79743 50.8125 9.57209C50.5851 9.40362 50.4327 9.22998 50.3264 9.0184C50.1679 8.70265 50.1648 8.19111 50.3189 7.74985C50.5268 7.1544 51.0423 6.66458 51.7021 6.43551C51.9823 6.33823 52.2965 6.26601 53.2999 6.06822C54.467 5.83817 54.732 5.77779 54.955 5.69114C55.2604 5.5725 55.3317 5.49624 55.3304 5.28979C55.3292 5.09941 55.2338 4.95324 55.0492 4.85907C54.8551 4.76006 54.4517 4.73428 54.173 4.80308C53.7532 4.90673 53.3957 5.14988 53.2619 5.4227C53.2163 5.51569 53.2101 5.52122 53.1609 5.51291C53.1321 5.50803 52.6252 5.44716 52.0345 5.37763C51.0767 5.26491 50.9604 5.24796 50.9604 5.22113C50.9604 5.20459 50.9809 5.13383 51.0061 5.0639C51.1754 4.59232 51.5156 4.18808 52.0319 3.84484C52.497 3.5357 52.9284 3.38746 53.6232 3.29804C53.9146 3.26054 55.1599 3.25557 55.5351 3.2904C55.9941 3.33303 56.5469 3.47534 56.856 3.63049C57.1345 3.77023 57.3779 3.98221 57.4771 4.17141C57.6235 4.45046 57.7035 4.86252 57.6849 5.24116C57.663 5.68541 57.6058 6.05728 57.344 7.45893C57.152 8.48711 57.1185 8.70229 57.1059 8.99031C57.0951 9.23511 57.1215 9.45213 57.1876 9.66289C57.2064 9.7231 57.222 9.77824 57.2221 9.78542C57.2223 9.79259 56.7144 9.79846 56.0936 9.79846H54.9649L54.9292 9.7225C54.8849 9.62814 54.8439 9.42516 54.8242 9.20216C54.816 9.10857 54.805 9.02777 54.7998 9.0226C54.7946 9.01742 54.7143 9.07721 54.6212 9.15546C54.2904 9.43361 54.0141 9.58851 53.6119 9.72125C53.0435 9.9089 52.3571 9.99013 51.7962 9.93612ZM53.8391 8.5074C54.0154 8.44455 54.2577 8.31878 54.3807 8.22631C54.4394 8.18219 54.5549 8.07517 54.6374 7.9885C54.8136 7.80326 54.9155 7.61454 54.9853 7.34373C55.0297 7.17191 55.0879 6.82328 55.0745 6.80988C55.0675 6.80289 54.7872 6.87341 53.9783 7.08564C53.1932 7.29165 52.8134 7.50896 52.7264 7.80204C52.6949 7.90795 52.6916 8.1233 52.72 8.21805C52.748 8.31141 52.8438 8.41734 52.9479 8.47013C53.09 8.54212 53.2206 8.56327 53.4826 8.5567C53.6791 8.55178 53.7373 8.54373 53.8391 8.5074Z" fill="#00A6B5"/>
<path d="M75.2515 9.95374C74.7179 9.92287 74.2649 9.80458 73.8522 9.58834C73.4243 9.36412 73.0338 8.96974 72.8212 8.54696C72.7015 8.309 72.5742 7.85693 72.6138 7.81034C72.6236 7.79883 73.0193 7.50763 73.4933 7.16323C73.9672 6.81882 74.3532 6.52894 74.351 6.51906C74.3488 6.50917 74.0691 6.24 73.7295 5.92089C73.3899 5.60179 73.0973 5.32686 73.0793 5.30994C73.0475 5.27997 73.0483 5.27637 73.113 5.16885C73.5024 4.52163 74.3356 3.85826 75.1073 3.58094C76.4786 3.0882 77.8787 3.16195 78.9043 3.78095C79.5728 4.1844 79.9212 4.80015 79.9921 5.7034C80.0182 6.03595 79.9793 6.50164 79.8817 7.02407L79.859 7.14583L74.9645 7.15465V7.32927C74.9645 7.57543 75.0013 7.73883 75.1041 7.94893C75.1737 8.09125 75.2102 8.14334 75.2907 8.21546C75.4132 8.32529 75.6305 8.43354 75.8018 8.47008C76.1765 8.55004 76.7258 8.3971 76.9901 8.13919C77.05 8.08075 77.111 8.01486 77.1256 7.99275L77.1523 7.95254L78.3373 8.03797C78.9891 8.08495 79.5272 8.12821 79.5331 8.1341C79.539 8.13998 79.4782 8.23656 79.398 8.34872C78.7133 9.30635 77.5192 9.90448 76.2082 9.94651C75.6226 9.96528 75.4707 9.96642 75.2515 9.95374ZM77.5631 6.03117C77.5833 5.97859 77.5729 5.56241 77.5486 5.44761C77.4864 5.15432 77.298 4.92713 77.0459 4.84169C76.7906 4.75516 76.4745 4.75493 76.2155 4.8411C75.7838 4.98469 75.3964 5.43061 75.237 5.9674L75.2099 6.0587H76.3812C77.4333 6.0587 77.5536 6.05589 77.5631 6.03117Z" fill="#00A6B5"/>
<path d="M68.059 9.95355C67.455 9.91847 66.8552 9.78017 66.4711 9.58748C66.0977 9.40015 65.7782 9.10045 65.5104 8.68647C65.2916 8.34825 65.172 7.92689 65.1719 7.49366C65.1717 6.41902 65.4564 5.54694 66.0463 4.81494C66.2072 4.61537 66.4572 4.35539 66.614 4.22459C67.3288 3.62837 68.449 3.2585 69.5409 3.25821C70.3128 3.258 71.065 3.42035 71.5291 3.68733C71.9808 3.94716 72.3784 4.43763 72.546 4.94172C72.636 5.21245 72.6875 5.57569 72.6609 5.75305L72.6489 5.8325H70.3243L70.3173 5.72379C70.3078 5.57646 70.2528 5.47053 70.105 5.31488C69.9585 5.16065 69.8909 5.11899 69.6853 5.0563C69.5453 5.01359 69.5022 5.00856 69.2766 5.00865C69.059 5.00865 69.0009 5.01505 68.8538 5.05458C68.5712 5.13054 68.4401 5.20403 68.259 5.38802C68.0405 5.61004 67.9061 5.85243 67.7629 6.28276C67.6661 6.57355 67.6247 6.79398 67.6125 7.08489C67.6005 7.36793 67.6241 7.53298 67.708 7.75377C67.8795 8.20505 68.5732 8.40929 69.2125 8.19676C69.4537 8.11656 69.5715 8.04356 69.7564 7.85955C69.934 7.68288 70.0326 7.54285 70.1052 7.36416L70.1445 7.26753L72.5158 7.25859L72.5038 7.30655C72.4795 7.40431 72.351 7.71383 72.266 7.87941C71.6931 8.99499 70.6005 9.70906 69.1589 9.91014C68.989 9.93383 68.3945 9.97585 68.3199 9.96943C68.3056 9.9682 68.1881 9.96105 68.059 9.95355Z" fill="#00A6B5"/>
</g>
<defs>
<clipPath id="clip0_1801_11278">
<rect width="80" height="10.9374" fill="white"/>
</clipPath>
</defs>
</svg>
