<svg width="80" height="15" viewBox="0 0 80 15" fill="none" xmlns="http://www.w3.org/2000/svg">
<g clip-path="url(#clip0_1801_10303)">
<path d="M23.8735 6.88426C23.9398 6.82108 24.0182 6.73969 24.1086 6.64009C24.1987 6.54049 24.2842 6.4229 24.3649 6.2871C24.4456 6.1513 24.5146 5.99999 24.5715 5.83249C24.6286 5.66522 24.6571 5.48647 24.6571 5.29649C24.6571 4.92574 24.5906 4.57972 24.4577 4.25843C24.3245 3.93737 24.1204 3.65678 23.8449 3.41688C23.5694 3.17744 23.2253 2.98948 22.8119 2.85368C22.3988 2.7181 21.9166 2.6502 21.3659 2.6502H17.7326V12.1496H21.7221C22.3013 12.1496 22.807 12.075 23.2394 11.9257C23.6714 11.7764 24.0302 11.5707 24.3151 11.3083C24.6 11.0459 24.8113 10.7406 24.9491 10.3923C25.0868 10.0441 25.1557 9.67084 25.1557 9.27266C25.1557 8.73891 25.0275 8.26406 24.7712 7.84767C24.5146 7.43173 24.2153 7.11044 23.8735 6.88426ZM22.1094 4.39086C22.2437 4.43965 22.3559 4.50305 22.4434 4.58287C22.6703 4.79017 22.7838 5.03793 22.7838 5.32617C22.7838 5.58765 22.7364 5.80371 22.642 5.97481C22.5473 6.14613 22.4527 6.27676 22.3582 6.36669H19.5849V4.27867H21.3087C21.6319 4.27867 21.8979 4.31667 22.1094 4.39086ZM21.8217 8.01067C22.3238 8.01067 22.6958 8.13456 22.938 8.38187C23.1658 8.62537 23.2805 8.9127 23.2805 9.24523C23.2805 9.58788 23.1504 9.88038 22.8903 10.1237C22.6299 10.3669 22.2022 10.4888 21.6062 10.4888H19.5849V8.01067H21.8217Z" fill="#00529C"/>
<path d="M31.9195 8.05811C32.2186 7.86363 32.4681 7.63745 32.6676 7.37957C32.867 7.12168 33.0141 6.83682 33.1092 6.52475C33.2041 6.21246 33.2518 5.89365 33.2518 5.56786C33.2518 5.1427 33.1779 4.75149 33.0309 4.39401C32.8833 4.03675 32.6626 3.72918 32.3683 3.47129C32.0737 3.21341 31.7057 3.01219 31.264 2.86739C30.8224 2.72283 30.3118 2.6502 29.7325 2.6502H25.807V12.1496H27.6951V8.62132H28.7479L31.3518 12.1496H33.565L30.8724 8.49924C31.2711 8.39986 31.6202 8.25282 31.9195 8.05811ZM29.7467 4.27867C29.8654 4.27867 29.9775 4.28609 30.0842 4.2989C30.4208 4.34724 30.6958 4.46168 30.9078 4.64357C31.1963 4.89156 31.3405 5.19554 31.3405 5.55572C31.3405 5.73626 31.3096 5.91186 31.2482 6.08295C31.1866 6.25428 31.0898 6.40514 30.9574 6.53554C30.8247 6.6664 30.6545 6.77207 30.4466 6.85323C30.2384 6.9344 29.9877 6.97487 29.6945 6.97487H27.6951V4.27867H29.7467Z" fill="#00529C"/>
<path d="M34.2319 2.6502V2.6529C34.2128 2.65245 34.1941 2.6502 34.175 2.6502H34.1589V12.1496H36.0842V2.6502H34.2319Z" fill="#00529C"/>
<path d="M38.1883 6.26613H37.2822V5.34341H38.1883V4.82777C38.1883 4.04074 38.3652 3.47987 38.7191 3.14516C39.0729 2.8014 39.5518 2.62952 40.1559 2.62952H40.4148V3.55224H40.1559C39.8194 3.55224 39.5605 3.65175 39.3792 3.85077C39.2066 4.04979 39.1203 4.39807 39.1203 4.89561V5.34341H40.4148V6.26613H39.1203V12.1281H38.1883V6.26613Z" fill="#F36F21"/>
<path d="M41.6575 5.34341H42.5895V12.1281H41.6575V5.34341ZM41.6575 2.62952H42.5895V3.74221H41.6575V2.62952Z" fill="#F36F21"/>
<path d="M44.4148 5.34341H45.3468V6.22542C45.6057 5.89975 45.9293 5.65098 46.3177 5.4791C46.706 5.29818 47.0814 5.20771 47.4439 5.20771C48.2896 5.20771 48.9541 5.44744 49.4374 5.92689C49.9293 6.40635 50.1752 7.15719 50.1752 8.17942V12.1281H49.2302V8.36939C49.2302 7.59141 49.0706 7.03506 48.7513 6.70035C48.432 6.35659 47.9746 6.18471 47.3791 6.18471C47.172 6.18471 46.9649 6.22542 46.7578 6.30684C46.5507 6.37921 46.3565 6.47872 46.1753 6.60536C45.994 6.72297 45.8301 6.85414 45.6834 6.99888C45.5367 7.14362 45.4245 7.28836 45.3468 7.4331V12.1281H44.4148V5.34341Z" fill="#F36F21"/>
<path d="M56.9194 11.2461C56.3154 11.9246 55.5818 12.2638 54.7188 12.2638C54.2528 12.2638 53.8127 12.1734 53.3985 11.9924C52.9929 11.8025 52.639 11.5492 52.337 11.2325C52.0349 10.9159 51.7933 10.545 51.6121 10.1198C51.4395 9.68563 51.3532 9.22427 51.3532 8.73577C51.3532 8.24727 51.4395 7.79043 51.6121 7.36525C51.7933 6.93103 52.0349 6.55561 52.337 6.23899C52.639 5.92237 52.9929 5.6736 53.3985 5.49267C53.8127 5.3027 54.2528 5.20771 54.7188 5.20771C55.5818 5.20771 56.3154 5.54695 56.9194 6.22542V5.34341H57.8515V12.1281H56.9194V11.2461ZM56.9194 7.4331C56.8245 7.28836 56.6994 7.1391 56.544 6.98531C56.3973 6.83152 56.2291 6.6913 56.0392 6.56466C55.858 6.43801 55.6552 6.33398 55.4308 6.25256C55.2064 6.17114 54.9691 6.13043 54.7188 6.13043C54.3736 6.13043 54.0543 6.19828 53.7609 6.33398C53.4675 6.46967 53.2129 6.65512 52.9972 6.89032C52.7814 7.12553 52.6131 7.40144 52.4923 7.71806C52.3715 8.03468 52.3111 8.37391 52.3111 8.73577C52.3111 9.09762 52.3715 9.43685 52.4923 9.75347C52.6131 10.0701 52.7814 10.346 52.9972 10.5812C53.2129 10.8164 53.4675 11.0019 53.7609 11.1376C54.0543 11.2733 54.3736 11.3411 54.7188 11.3411C54.9691 11.3411 55.2064 11.3049 55.4308 11.2325C55.6552 11.1511 55.858 11.0516 56.0392 10.934C56.2291 10.8074 56.3973 10.6671 56.544 10.5134C56.6994 10.3505 56.8245 10.1922 56.9194 10.0384V7.4331Z" fill="#F36F21"/>
<path d="M59.5343 5.34341H60.4663V6.22542C60.7252 5.89975 61.0488 5.65098 61.4372 5.4791C61.8255 5.29818 62.2009 5.20771 62.5634 5.20771C63.4091 5.20771 64.0736 5.44744 64.5569 5.92689C65.0488 6.40635 65.2947 7.15719 65.2947 8.17942V12.1281H64.3498V8.36939C64.3498 7.59141 64.1901 7.03506 63.8708 6.70035C63.5515 6.35659 63.0941 6.18471 62.4987 6.18471C62.2915 6.18471 62.0844 6.22542 61.8773 6.30684C61.6702 6.37921 61.476 6.47872 61.2948 6.60536C61.1136 6.72297 60.9496 6.85414 60.8029 6.99888C60.6562 7.14362 60.544 7.28836 60.4663 7.4331V12.1281H59.5343V5.34341Z" fill="#F36F21"/>
<path d="M72.6215 10.3641C72.3712 10.934 71.9958 11.3954 71.4953 11.7482C70.9948 12.0919 70.4166 12.2638 69.7607 12.2638C69.2947 12.2638 68.8546 12.1734 68.4403 11.9924C68.0347 11.8025 67.6809 11.5492 67.3789 11.2325C67.0768 10.9159 66.8352 10.545 66.6539 10.1198C66.4813 9.68563 66.3951 9.22427 66.3951 8.73577C66.3951 8.24727 66.4813 7.79043 66.6539 7.36525C66.8352 6.93103 67.0768 6.55561 67.3789 6.23899C67.6809 5.92237 68.0347 5.6736 68.4403 5.49267C68.8546 5.3027 69.2947 5.20771 69.7607 5.20771C70.4166 5.20771 70.9948 5.38412 71.4953 5.73692C71.9958 6.08068 72.3712 6.53752 72.6215 7.10743H71.4953C71.2968 6.80891 71.0552 6.57823 70.7704 6.41539C70.4942 6.25256 70.1577 6.17114 69.7607 6.17114C69.4155 6.17114 69.0962 6.23899 68.8028 6.37468C68.5094 6.50133 68.2548 6.68226 68.039 6.91746C67.8319 7.14362 67.668 7.41501 67.5471 7.73163C67.4263 8.0392 67.3659 8.37391 67.3659 8.73577C67.3659 9.09762 67.4263 9.43685 67.5471 9.75347C67.668 10.061 67.8319 10.3324 68.039 10.5676C68.2548 10.7938 68.5094 10.9747 68.8028 11.1104C69.0962 11.2371 69.4155 11.3004 69.7607 11.3004C70.1577 11.3004 70.4986 11.219 70.7833 11.0561C71.0768 10.8933 71.3227 10.6626 71.5212 10.3641H72.6215Z" fill="#F36F21"/>
<path d="M79.6893 10.3641C79.5513 10.6445 79.3743 10.9024 79.1586 11.1376C78.9429 11.3728 78.7012 11.5763 78.4337 11.7482C78.1748 11.911 77.89 12.0377 77.5793 12.1281C77.2773 12.2186 76.9623 12.2638 76.6344 12.2638C76.1684 12.2638 75.7325 12.1734 75.3269 11.9924C74.93 11.8025 74.5848 11.5492 74.2914 11.2325C73.9979 10.9159 73.7649 10.545 73.5923 10.1198C73.4284 9.68563 73.3464 9.22427 73.3464 8.73577C73.3464 8.24727 73.4284 7.79043 73.5923 7.36525C73.7649 6.93103 73.9979 6.55561 74.2914 6.23899C74.5848 5.92237 74.93 5.6736 75.3269 5.49267C75.7325 5.3027 76.1684 5.20771 76.6344 5.20771C77.1349 5.20771 77.5923 5.3027 78.0065 5.49267C78.4207 5.68264 78.7746 5.94951 79.068 6.29327C79.3614 6.63703 79.5901 7.05768 79.7541 7.55523C79.918 8.04373 80 8.59103 80 9.19713H74.3431C74.3949 9.5047 74.4855 9.78966 74.615 10.052C74.7444 10.3053 74.9041 10.5269 75.0939 10.7169C75.2924 10.9069 75.5211 11.0561 75.78 11.1647C76.0389 11.2733 76.3237 11.3275 76.6344 11.3275C77.0313 11.3275 77.3981 11.2416 77.7347 11.0697C78.0799 10.8978 78.3647 10.6626 78.589 10.3641H79.6893ZM78.9644 8.27441C78.9385 7.97588 78.8566 7.69544 78.7185 7.4331C78.589 7.17076 78.4207 6.9446 78.2136 6.75463C78.0065 6.56466 77.7649 6.41539 77.4887 6.30684C77.2212 6.19828 76.9364 6.144 76.6344 6.144C76.3237 6.144 76.0389 6.19828 75.78 6.30684C75.5211 6.41539 75.2924 6.56466 75.0939 6.75463C74.9041 6.9446 74.7444 7.17076 74.615 7.4331C74.4855 7.69544 74.3949 7.97588 74.3431 8.27441H78.9644Z" fill="#F36F21"/>
<path d="M12.6768 0H2.28463C1.02275 0 0 1.04799 0 2.34079V12.6327C0 13.9129 1.00382 14.9539 2.2493 14.9728H12.6712C13.933 14.9728 14.9564 13.9255 14.9564 12.6327L14.9608 2.34079C14.9608 1.04799 13.9387 0 12.6768 0ZM3.51938 13.7734L2.9528 13.7797C2.26634 13.7797 1.70985 13.2157 1.70985 12.5197L1.70669 12.4207V2.9162L1.71048 2.40388C1.73635 1.73067 2.24804 1.18932 2.91747 1.18932H4.07019C5.11503 1.18932 5.96175 2.09788 5.96175 3.16858C5.96175 3.69857 5.75417 4.17935 5.41788 4.52889L2.47707 7.51323L5.23365 10.3203C5.58886 10.6869 5.80338 11.1676 5.80338 11.6945C5.80338 12.8428 4.78126 13.7734 3.51938 13.7734ZM11.9935 13.764L6.85453 13.7621C6.85453 13.7621 7.44825 12.4781 7.44825 11.6831C7.44825 10.7134 7.12457 9.84771 6.6173 9.27482L4.8595 7.48295L6.65326 5.62925C7.18767 5.12765 7.54225 4.23676 7.54225 3.22158C7.54225 2.41776 7.32016 1.70606 6.96242 1.18932H8.20726C9.2521 1.18932 10.0995 2.09788 10.0995 3.16858C10.0995 3.69857 9.89187 4.17935 9.55558 4.52889L6.67093 7.48232L12.6623 13.5917C12.4724 13.711 12.2333 13.764 11.9935 13.764ZM13.2485 11.8566L8.95493 7.48042L10.9998 5.40211C11.4156 4.88158 11.68 4.09796 11.68 3.22158C11.68 2.41271 11.4547 1.68272 11.0938 1.16598L12.0087 1.19374C12.6951 1.19374 13.2516 1.7578 13.2516 2.45373L13.2485 11.8566Z" fill="#00529C"/>
</g>
<defs>
<clipPath id="clip0_1801_10303">
<rect width="80" height="14.9728" fill="white"/>
</clipPath>
</defs>
</svg>
