<svg width="80" height="33" viewBox="0 0 80 33" fill="none" xmlns="http://www.w3.org/2000/svg">
<g clip-path="url(#clip0_1801_11150)">
<path d="M19.4664 16.1951C21.6549 15.0215 24.902 12.3981 24.902 8.78711C24.902 3.86305 20.3554 0.0687906 14.8241 0.0687906H3.80511C3.56931 0.0687906 3.3432 0.16246 3.17645 0.329192C3.0097 0.495925 2.91605 0.722062 2.91605 0.957857V26.18H0.891721C0.774742 26.1797 0.658802 26.2023 0.550715 26.2469C0.442512 26.2913 0.344124 26.3568 0.261326 26.4394C0.178413 26.522 0.112707 26.6201 0.0679012 26.7282C0.0229803 26.8363 -0.000115047 26.9521 4.30915e-07 27.0691V31.9931C-0.000115047 32.1101 0.0229803 32.2259 0.0679012 32.334C0.112707 32.4421 0.178413 32.5401 0.261326 32.6228C0.344124 32.7053 0.442512 32.7708 0.550715 32.8153C0.658802 32.8599 0.774742 32.8825 0.891721 32.8821H15.5272C21.105 32.8821 25.7473 29.0852 25.7473 23.8356C25.7473 19.5243 21.9557 17.2346 19.4664 16.1951ZM10.3241 6.82023H13.9815C15.7624 6.82023 17.2642 8.13057 17.2642 10.0072C17.2731 10.8891 16.933 11.7388 16.3181 12.371C15.7032 13.0034 14.8634 13.367 13.9815 13.3829H9.61828V6.81749L10.3241 6.82023ZM14.5888 26.18H9.61828V19.475H14.121C15.9484 19.475 17.9508 20.8839 17.9508 22.7577C17.956 23.6566 17.6053 24.5208 16.9754 25.1621C16.3456 25.8032 15.4876 26.1692 14.5888 26.18Z" fill="#1A325E"/>
<path d="M79.1926 0.0687906H62.3359C61.7892 0.0687905 61.248 0.176505 60.743 0.385777C60.238 0.59505 59.7791 0.901776 59.3927 1.28843C59.0063 1.67509 58.7 2.1341 58.4909 2.63924C58.282 3.14436 58.1746 3.68571 58.175 4.23235V32.0068C58.175 32.1238 58.1981 32.2396 58.243 32.3476C58.2878 32.4557 58.3535 32.5538 58.4364 32.6364C58.5192 32.719 58.6176 32.7844 58.7258 32.829C58.8339 32.8735 58.9499 32.8962 59.0668 32.8959H64.5955C64.8292 32.8884 65.0512 32.7924 65.2168 32.6273C65.3824 32.4623 65.4791 32.2404 65.4873 32.0068V20.0823H71.1964C71.4479 20.0923 71.6954 20.0165 71.8982 19.8674C72.1009 19.7182 72.247 19.5047 72.3125 19.2617C72.3125 19.2617 73.9703 15.3634 74.1344 14.9695C74.4737 14.1488 73.9238 13.7166 73.4916 13.7166H65.4873V6.95973H76.7032C76.9754 6.97076 77.2432 6.8887 77.4625 6.72709C77.6818 6.56547 77.8395 6.33394 77.9096 6.07067C77.9096 6.07067 79.7041 1.85239 79.882 1.42017C80.2567 0.54752 79.6604 0.0687906 79.1926 0.0687906Z" fill="#1A325E"/>
<path d="M56.2459 31.6782L44.3269 6.04568L40.6886 14.1321H40.7351L44.2558 21.7917H39.5698C39.3213 21.7839 39.0775 21.8608 38.8786 22.01C38.6797 22.1592 38.5375 22.3717 38.4755 22.6125C38.4755 22.6125 36.8341 26.4641 36.6782 26.8526C36.3417 27.6569 36.8861 28.0891 37.3129 28.0891H47.0434L48.6985 31.7329C49.1169 32.6138 49.4862 32.89 50.3206 32.89H55.4607C55.6083 32.9018 55.7562 32.8734 55.8889 32.8079C56.0216 32.7424 56.1342 32.6423 56.2146 32.5182C56.2951 32.3939 56.3404 32.2504 56.346 32.1024C56.3515 31.9546 56.3169 31.808 56.2459 31.6782Z" fill="#1A325E"/>
<path d="M41.7557 0.51976C41.6818 0.371419 41.57 0.245234 41.4316 0.153965C41.2933 0.0626958 41.1332 0.00958348 40.9678 0H40.5055C40.3411 0.00824564 40.1817 0.059602 40.0435 0.148914C39.9051 0.238225 39.7928 0.362349 39.7176 0.508819L25.2382 31.6782C25.1691 31.8078 25.1362 31.9538 25.1429 32.1007C25.1496 32.2476 25.1956 32.39 25.276 32.513C25.3565 32.6361 25.4687 32.7351 25.6005 32.8C25.7325 32.8648 25.8794 32.8931 26.0261 32.8818H31.1197C31.4786 32.8936 31.8321 32.7929 32.1308 32.5937C32.4297 32.3946 32.6585 32.1069 32.7857 31.7711L44.3408 6.04566L41.7557 0.51976Z" fill="#EEAF2E"/>
</g>
<defs>
<clipPath id="clip0_1801_11150">
<rect width="80" height="32.8959" fill="white"/>
</clipPath>
</defs>
</svg>
