<svg width="80" height="27" viewBox="0 0 80 27" fill="none" xmlns="http://www.w3.org/2000/svg">
<g clip-path="url(#clip0_1801_11056)">
<path d="M46.5337 10.9971C46.6525 10.9971 46.7713 10.8783 46.7713 10.7425V3.61483C46.7713 3.47906 46.6525 3.36027 46.5337 3.36027H45.2609C45.1421 3.36027 45.0233 3.47906 45.0233 3.61483V10.7255C45.0233 10.8613 45.1252 10.9801 45.2609 10.9801H46.5337V10.9971Z" fill="black"/>
<path d="M54.6966 3.36027H53.4747C53.339 3.36027 53.2372 3.47906 53.2372 3.61483V6.56773H50.6746V3.61483C50.6746 3.47906 50.5728 3.36027 50.437 3.36027H49.2151C49.0963 3.36027 48.9945 3.47906 48.9945 3.61483V10.7255C48.9945 10.8613 49.0963 10.9801 49.2151 10.9801H50.437C50.5558 10.9801 50.6746 10.8613 50.6746 10.7255V7.39929H53.2372V10.7255C53.2372 10.8613 53.339 10.9801 53.4747 10.9801H54.6966C54.8154 10.9801 54.9342 10.8613 54.9342 10.7255V3.61483C54.9342 3.47906 54.8324 3.36027 54.6966 3.36027Z" fill="black"/>
<path d="M33.076 3.36025H30.0552C29.9194 3.36025 29.8176 3.47905 29.8176 3.61481V10.7255C29.8176 10.8613 29.9194 10.9801 30.0552 10.9801H33.042C34.8239 10.9801 36.1986 9.89397 36.1986 7.14472C36.1986 4.39546 34.8409 3.34328 33.076 3.34328M32.6347 10.1485H31.4977V4.15787H32.6347C34.0094 4.15787 34.4506 5.07429 34.4506 7.14472C34.4506 9.21514 34.0433 10.1655 32.6347 10.1655" fill="black"/>
<path d="M43.7166 10.7425L41.2389 3.63182C41.2049 3.49605 41.0522 3.37726 40.9164 3.37726H39.6606C39.6606 3.37726 39.5078 3.44514 39.4909 3.51302L37.0131 10.8613C37.0131 10.8613 37.0132 10.9971 37.081 10.9971H37.8278C37.8278 10.9971 37.9805 10.9292 37.9975 10.8613L38.6084 8.99456H41.2728L41.8498 10.7425C41.9007 10.8783 42.0365 10.9971 42.1723 10.9971H43.5299C43.6487 10.9971 43.7166 10.8953 43.6826 10.7425M38.8799 8.17996L39.9491 4.90462L41.0182 8.17996H38.8799Z" fill="black"/>
<path d="M62.7238 10.7255L60.263 3.61483C60.2121 3.46209 60.0764 3.36027 59.9406 3.36027H58.6848C58.6848 3.36027 58.549 3.42815 58.5151 3.49603L56.0373 10.8443C56.0373 10.8443 56.0373 10.9801 56.1222 10.9801H56.8859C56.8859 10.9801 57.0216 10.9122 57.0556 10.8443L57.6665 8.97757H60.3479L60.9249 10.7255C60.9758 10.8613 61.1116 10.9801 61.2304 10.9801H62.588C62.7068 10.9801 62.7917 10.8613 62.7408 10.7255M57.938 8.16297L59.0072 4.88763L60.0764 8.16297H57.938Z" fill="black"/>
<path d="M68.0017 3.36027H62.2995C62.2995 3.36027 62.1807 3.42815 62.1807 3.49603V4.0391C62.1807 4.0391 62.2316 4.17486 62.2995 4.17486H64.336V10.7086C64.336 10.8443 64.4378 10.9631 64.5736 10.9631H65.8124C65.9482 10.9631 66.05 10.8443 66.05 10.7086V4.17486H68.0356C68.0356 4.17486 68.1714 4.12395 68.1714 4.0391V3.49603C68.1714 3.49603 68.1035 3.36027 68.0356 3.36027" fill="black"/>
<path d="M78.9817 8.46845V3.49603C78.9817 3.49603 79.0496 3.36027 79.1005 3.36027H79.8303C79.8303 3.36027 79.966 3.42815 79.966 3.49603V8.23086C79.966 8.65512 79.966 8.80786 79.966 9.07939C79.8642 10.5898 78.8969 11.065 77.3356 11.065C75.4858 11.065 74.6203 10.0298 74.4506 9.07939C74.3827 8.72301 74.3827 8.34965 74.3827 8.02721V3.6318C74.3827 3.49603 74.4845 3.37724 74.6203 3.37724H75.8252C75.9609 3.37724 76.0628 3.49603 76.0628 3.6318V8.60421C76.0628 8.79089 76.0628 9.01151 76.0967 9.23213C76.1816 9.63942 76.4531 10.3352 77.5392 10.3352C78.4896 10.3352 78.9648 9.77519 78.9648 9.07939V8.50239L78.9817 8.46845Z" fill="black"/>
<path d="M72.5668 4.54822C72.5668 4.54822 72.6856 4.51428 72.6856 4.4464V3.78454C72.6856 3.69969 72.6516 3.66574 72.5668 3.61483C72.5668 3.61483 72.4141 3.51301 72.0237 3.41118C71.7352 3.3433 71.294 3.25845 70.8188 3.25845C69.6987 3.25845 69.1726 3.6318 68.8502 4.07304C68.5447 4.49731 68.4089 5.0234 68.5277 5.61737C68.6974 6.60167 69.4781 7.19565 70.2757 7.78962C70.8867 8.24783 71.4807 8.60422 71.6843 9.19819C71.7692 9.43578 71.7352 9.80914 71.5146 10.0128C71.294 10.2164 71.0394 10.3013 70.6152 10.3013C70.1569 10.3013 69.546 10.1995 68.935 9.91096C68.8332 9.86005 68.6975 9.79216 68.6975 9.79216C68.6296 9.75822 68.5787 9.79217 68.5787 9.87702V10.5558C68.5787 10.5558 68.6296 10.6916 68.7144 10.7256C68.7144 10.7256 68.7993 10.7595 68.8841 10.7934C69.4102 10.9801 69.9872 11.065 70.6491 11.065C71.7522 11.065 72.3462 10.6746 72.6516 10.3183C73.008 9.91096 73.1947 9.31699 73.042 8.60422C72.8383 7.46718 71.888 6.85623 71.1243 6.33014C70.5642 5.92285 69.9872 5.53252 69.8345 5.07431C69.7327 4.7349 69.8684 4.49731 69.9533 4.37851C70.106 4.17487 70.4285 4.02213 70.8697 4.02213C71.26 4.02213 71.6504 4.10698 72.0916 4.31063C72.1765 4.34457 72.3631 4.4464 72.5498 4.54822" fill="black"/>
<path d="M0.0169873 0H24.7264V14.5439H0.0169873V0ZM7.48411 4.27661C12.2189 4.27661 18.8545 4.73482 22.011 6.00763C22.2995 6.12642 22.5371 6.22825 22.5371 6.44886C22.5371 6.73737 21.8923 6.94101 21.2983 7.12769C18.9563 7.85743 14.7985 8.70597 8.68903 9.13023L3.03777 3.47899C2.49471 3.47899 2.0365 3.51293 1.68012 3.5299L7.53502 9.38479L5.95674 11.6928C15.4094 10.1994 19.6861 8.70597 21.5868 7.82349C21.9941 7.63681 23.1651 7.11072 23.1651 6.43189C23.1651 6.00763 22.7747 5.75307 22.2486 5.53245C20.297 4.70088 17.0216 4.14085 13.7972 3.86932C10.437 3.5299 5.97371 3.44505 3.51295 3.46202L8.79085 8.72294C9.82606 8.65505 10.7934 8.55323 11.7268 8.46838L7.50107 4.24267L7.48411 4.27661Z" fill="black"/>
<path d="M16.6483 19.7031L15.9355 21.6207H17.3441L16.6483 19.7031Z" fill="black"/>
<path d="M33.8057 19.7539L33.0929 21.6716H34.5185L33.8227 19.7539H33.8057Z" fill="black"/>
<path d="M53.4917 19.4994H52.2359V20.7892H53.4239C53.9499 20.7892 54.2045 20.6025 54.2045 20.1273C54.2045 19.8728 54.0857 19.4994 53.4917 19.4994Z" fill="black"/>
<path d="M80 15.4604H0V26.661H80V15.4604ZM7.45015 19.5333H5.02333V20.6195H7.14467V21.468H5.02333V23.5045H4.00509V18.6678H7.45015V19.5333ZM8.77386 23.4536H7.7726V18.6339H8.77386V23.4536ZM13.5936 23.4536H12.4735L10.3012 20.0085V23.4536H9.26601V18.6339H10.437L12.5414 21.9941V18.6339H13.5766V23.4536H13.5936ZM18.0569 23.4536L17.7005 22.4693H15.63L15.2397 23.4536H14.0178L15.9864 18.6339H17.3271L19.2787 23.4536H18.0229H18.0569ZM24.0136 23.5045H22.9105L20.7382 20.0594H20.7213V23.5045H19.686V18.6678H20.857L22.9614 22.028H22.9784V18.6678H24.0136V23.5045ZM26.9495 22.7578C27.5605 22.7578 28.0017 22.4523 28.1205 21.8583H29.2236C29.003 22.9105 28.2563 23.6403 26.9325 23.6403C25.524 23.6403 24.5227 22.7748 24.5227 21.1116C24.5227 19.4485 25.5919 18.566 26.9495 18.566C28.5278 18.566 29.1727 19.5673 29.2236 20.2631H28.1205C28.0356 19.9746 27.8659 19.4315 26.9495 19.4315C26.4234 19.4315 25.6428 19.754 25.6428 21.1116C25.6428 21.9771 26.0161 22.7578 26.9495 22.7578ZM30.6661 23.5045H29.6648V18.6678H30.6661V23.5045ZM35.2143 23.5045L34.8579 22.5202H32.8044L32.4141 23.5045H31.1922L33.1608 18.6678H34.5015L36.4531 23.5045H35.1973H35.2143ZM40.1188 23.5045H36.7077V18.6678H37.7259V22.622H40.1188V23.5045ZM44.8536 23.5893C42.902 23.5893 42.5796 22.5711 42.5796 21.9771H43.6487C43.6487 22.2487 43.8014 22.7578 44.7688 22.7578C45.2949 22.7578 45.8888 22.639 45.8888 22.1299C45.8888 21.7565 45.4815 21.6547 44.9215 21.5359L44.3615 21.4001C43.496 21.2134 42.6644 21.0437 42.6644 19.9916C42.6644 19.4485 42.9699 18.4981 44.7179 18.4981C46.3471 18.4981 46.7883 19.4655 46.7883 20.0594H45.7191C45.6852 19.8558 45.6003 19.3297 44.633 19.3297C44.2087 19.3297 43.7166 19.4824 43.7166 19.9067C43.7166 20.2801 44.056 20.3649 44.2766 20.4158L45.5664 20.7043C46.2961 20.874 46.975 21.1286 46.975 22.0111C46.975 23.4536 45.3458 23.5893 44.8876 23.5893M50.9122 23.5045H47.2465V18.6678H50.8104V19.5333H48.2478V20.5516H50.6067V21.4001H48.2478V22.656H50.9122V23.5045ZM54.2045 23.5045L53.3051 21.6038H52.2698V23.5045H51.2855V18.6678H53.7293C55.0191 18.6678 55.4094 19.5503 55.4094 20.1782C55.4094 21.1965 55.07 21.3662 54.51 21.5868C54.51 21.5868 55.4094 23.4536 55.4943 23.4705H54.2215L54.2045 23.5045ZM58.8205 23.5045H57.1744L55.2737 18.6678H56.6653L58.0059 22.3335L59.3466 18.6678H60.6873L58.8036 23.5045H58.8205ZM62.0789 23.4536H61.0607V18.6339H62.0789V23.4536ZM64.9639 22.7069C65.5749 22.7069 65.9992 22.4014 66.1349 21.8074H67.238C67.0174 22.8596 66.2707 23.5893 64.947 23.5893C63.5384 23.5893 62.5371 22.7238 62.5371 21.0437C62.5371 19.3636 63.6063 18.4981 64.9639 18.4981C66.5422 18.4981 67.1871 19.4994 67.238 20.2122H66.1349C66.0501 19.9237 65.8804 19.3806 64.9639 19.3806C64.4378 19.3806 63.6572 19.7031 63.6572 21.0607C63.6572 21.9262 64.0305 22.7069 64.9639 22.7069ZM71.4468 23.4875H67.7811V18.6509H71.328V19.5164H68.7654V20.5346H71.1243V21.3832H68.7654V22.639H71.4468V23.4875ZM73.9415 23.6233C71.9898 23.6233 71.6674 22.605 71.6674 22.0111H72.7365C72.7365 22.2826 72.8893 22.7917 73.8566 22.7917C74.3827 22.7917 74.9767 22.6729 74.9767 22.1638C74.9767 21.7905 74.5694 21.6886 74.0093 21.5698L73.4493 21.451C72.5838 21.2644 71.7692 21.0947 71.7692 20.0425C71.7692 19.4994 72.0916 18.549 73.8227 18.549C75.4518 18.549 75.8931 19.5164 75.8931 20.1104H74.8239C74.79 19.8897 74.7051 19.3806 73.7378 19.3806C73.3135 19.3806 72.8044 19.5333 72.8044 19.9576C72.8044 20.331 73.1438 20.4158 73.3645 20.4667L74.6542 20.7552C75.384 20.908 76.0628 21.1795 76.0628 22.045C76.0628 23.4875 74.4336 23.6233 73.9754 23.6233" fill="black"/>
</g>
<defs>
<clipPath id="clip0_1801_11056">
<rect width="80" height="26.661" fill="white"/>
</clipPath>
</defs>
</svg>
