<svg width="67" height="80" viewBox="0 0 67 80" fill="none" xmlns="http://www.w3.org/2000/svg">
<g clip-path="url(#clip0_1801_10110)">
<g clip-path="url(#clip1_1801_10110)">
<path fill-rule="evenodd" clip-rule="evenodd" d="M29.1013 31.1044C26.3095 34.204 6.0429 59.651 18.437 78.2833C20.0626 80.724 20.3878 80.5506 20.0236 77.8671C18.1639 64.1682 18.9745 55.7624 35.5606 35.9727C40.6284 29.9772 33.5622 26.1493 29.1013 31.1V31.1044ZM0.0994742 34.7545C-1.67358 14.9778 20.7172 -11.7611 44.2785 5.60529C47.2438 7.79018 47.0183 8.95199 43.4202 7.55175C23.8385 -0.0910347 7.18304 15.7408 3.06469 34.9236C2.31905 38.3873 0.402932 38.1316 0.0994742 34.7589V34.7545ZM57.583 21.6929C51.5225 8.92165 75.8728 27.2765 61.3459 50.0618C57.3576 56.3217 49.7364 61.6669 42.3711 70.103C39.705 73.1549 38.3655 72.3009 40.2252 68.8154C43.6716 62.3561 48.5139 56.417 52.9011 51.384C60.6913 42.445 61.8617 30.7055 57.583 21.6929ZM6.12527 60.1496C2.48812 41.7991 10.5601 23.752 23.0495 16.0095C38.7123 6.30324 58.5107 21.2724 51.9343 38.5564C47.0834 51.3103 32.6778 60.2276 28.8499 76.6576C27.9829 80.3728 27.6014 80.8714 26.8818 77.0305C25.4815 67.5279 28.9756 57.206 42.085 40.4032C50.8679 28.8241 36.4667 13.9417 24.09 25.0612C15.6972 33.3196 11.4054 42.2369 8.18011 60.0455C7.62088 63.1234 6.71918 63.1451 6.12527 60.1496Z" fill="url(#paint0_radial_1801_10110)"/>
</g>
</g>
<defs>
<radialGradient id="paint0_radial_1801_10110" cx="0" cy="0" r="1" gradientUnits="userSpaceOnUse" gradientTransform="translate(40.6457 24.1422) scale(36.6793 36.6793)">
<stop offset="0.11" stop-color="#F4EC40"/>
<stop offset="0.24" stop-color="#F3CA3B"/>
<stop offset="0.62" stop-color="#F26A2F"/>
<stop offset="0.87" stop-color="#DB372F"/>
<stop offset="1" stop-color="#D3232F"/>
</radialGradient>
<clipPath id="clip0_1801_10110">
<rect width="66.0453" height="80" fill="white"/>
</clipPath>
<clipPath id="clip1_1801_10110">
<rect width="66.0453" height="80" fill="white"/>
</clipPath>
</defs>
</svg>
