<svg width="80" height="22" viewBox="0 0 80 22" fill="none" xmlns="http://www.w3.org/2000/svg">
<g clip-path="url(#clip0_1801_10129)">
<g clip-path="url(#clip1_1801_10129)">
<path d="M11.1297 6.5616C12.296 6.5616 13.4613 6.5616 14.6305 6.5616C15.2967 6.5616 15.4548 6.40156 15.4568 5.72939C15.4618 4.38005 15.4568 3.02871 15.4568 1.68138C15.4568 1.14424 15.4568 1.14424 15.9209 1.39231C19.6218 3.39281 21.8734 7.86793 21.2792 12.033C20.62 16.6431 17.5133 20.081 12.9991 21.1543C11.1457 21.5954 9.30322 21.4833 7.47976 20.9282C7.02965 20.7592 7.06666 20.8592 7.06666 20.3721C7.06666 19.0897 7.08466 17.8064 7.06666 16.5241C7.06065 16.167 7.17468 16.079 7.51777 16.081C9.46726 16.096 11.4187 16.09 13.3652 16.089C14.1244 16.089 14.2985 15.9129 14.2985 15.1437C14.2985 13.7614 14.2985 12.3791 14.2985 10.9967C14.2985 10.3756 14.1234 10.1965 13.4923 10.1965C11.5098 10.1965 9.52727 10.1855 7.54478 10.2025C7.17368 10.2025 7.05765 10.1025 7.06866 9.72739C7.09566 8.81216 7.08866 7.89493 7.06866 6.9797C7.06165 6.65562 7.15068 6.5476 7.48676 6.5526C8.70206 6.5726 9.91337 6.5606 11.1297 6.5616Z" fill="#FC0303"/>
<path d="M5.90138 20.2721C4.32945 19.4899 2.97786 18.3275 1.9694 16.8902C-2.44871 10.6156 0.937141 1.88945 8.43602 0.244042C10.2354 -0.149757 12.1066 -0.0638694 13.8624 0.493104C14.3305 0.653144 14.3305 0.653144 14.3115 1.07425C14.2535 2.33857 14.2815 3.60588 14.3115 4.8752C14.3215 5.31031 14.1684 5.39333 13.7693 5.38933C11.5368 5.37133 9.30523 5.37833 7.07267 5.37833C5.9654 5.37833 5.90238 5.44134 5.90238 6.52261C5.90238 7.83761 5.90238 9.15327 5.90238 10.4696C5.90238 11.2228 6.04442 11.3628 6.81561 11.3638C8.74809 11.3638 10.6806 11.3718 12.6171 11.3558C12.9952 11.3558 13.1422 11.4348 13.1252 11.8499C13.0892 12.6982 13.0952 13.5504 13.1252 14.3976C13.1382 14.7877 13.0252 14.9107 12.6251 14.9067C10.7096 14.8857 8.79311 14.8977 6.87763 14.8967C6.03041 14.8967 5.90538 15.0207 5.90438 15.885L5.90138 20.2721Z" fill="#FC0303"/>
<path d="M51.3928 8.6601C51.8309 8.30069 52.3359 8.03167 52.8786 7.86857C53.4213 7.70547 53.991 7.65153 54.5546 7.70986C55.2438 7.76787 55.869 8.00994 56.2841 8.57508C56.5011 8.87515 56.6151 8.81814 56.8502 8.62709C57.9295 7.74587 59.1688 7.49181 60.5061 7.82689C60.9918 7.93627 61.4249 8.20963 61.7326 8.60096C62.0403 8.99229 62.2038 9.47768 62.1955 9.97543C62.2126 12.124 62.1955 14.2765 62.2066 16.422C62.2066 16.8221 62.0415 17.0062 61.6444 17.0012C61.2283 16.9959 60.8119 16.9959 60.3951 17.0012C59.981 17.0082 59.7949 16.8331 59.7999 16.401C59.8129 14.5686 59.8059 12.7361 59.7999 10.8997C59.7999 9.98643 59.4859 9.70636 58.5696 9.81239C58.3545 9.83677 58.1426 9.88405 57.9375 9.95342C56.9542 10.2875 56.8192 10.4826 56.8192 11.5168V16.218C56.8192 16.9452 56.7622 16.9992 56.013 17.0012C55.6959 17.0012 55.3798 17.0012 55.0628 17.0012C54.5146 16.9922 54.3946 16.8732 54.3936 16.316C54.3896 14.5156 54.3896 12.7168 54.3936 10.9197C54.3936 9.96743 54.0935 9.70136 53.1403 9.81939C52.9264 9.84593 52.7161 9.89591 52.5131 9.96843C51.5499 10.3165 51.4298 10.4946 51.4298 11.5118C51.4298 13.1272 51.4148 14.7436 51.4348 16.359C51.4408 16.8412 51.2568 17.0262 50.7887 17.0042C50.3886 16.9862 49.9885 17.0042 49.5884 17.0042C49.2303 17.0042 49.0312 16.8592 49.0322 16.4681C49.0369 13.7534 49.0369 11.0384 49.0322 8.32301C49.0322 7.95592 49.2183 7.82289 49.5634 7.82289C49.8634 7.83089 50.1635 7.82289 50.4636 7.82289C51.2678 7.82289 51.2678 7.82289 51.3928 8.6601Z" fill="#393939"/>
<path d="M68.9612 16.177C68.086 16.8202 67.1748 17.1633 66.1325 17.1313C64.5661 17.0813 63.6589 16.171 63.6599 14.6146C63.6599 14.2145 63.6279 13.8144 63.7329 13.4213C64.006 12.4031 64.9332 11.7349 66.1555 11.6979C66.9207 11.6739 67.6889 11.6759 68.4561 11.6979C68.7912 11.7069 68.9102 11.6689 68.9102 11.2628C68.9102 11.0628 68.9102 10.8967 68.9102 10.7137C68.9102 9.81344 68.6241 9.53037 67.7099 9.52037C67.4424 9.50796 67.1744 9.52203 66.9097 9.56238C66.4526 9.6484 66.1525 9.90647 66.1815 10.4176C66.2075 10.8957 65.9895 11.0748 65.5193 11.0367C65.1529 11.0142 64.7855 11.0142 64.4191 11.0367C64.052 11.0528 63.9189 10.8807 63.9079 10.5306C63.8479 9.21929 64.4581 8.30207 65.7164 7.93697C66.9565 7.58188 68.2713 7.58188 69.5114 7.93697C70.6817 8.26306 71.2718 9.06826 71.2788 10.2926C71.2908 12.3081 71.2858 14.3246 71.2788 16.3401C71.2788 16.9072 71.1788 16.9992 70.6057 17.0052C70.3556 17.0052 70.1055 17.0052 69.8555 17.0052C69.1173 17.0042 69.0943 16.9852 68.9612 16.177ZM68.8862 13.9555C68.8862 13.4183 68.7532 13.3653 68.3121 13.3913C67.7999 13.4213 67.2838 13.3913 66.7697 13.4033C66.2215 13.4203 66.0255 13.6644 66.0185 14.2886C66.0115 14.9127 66.1965 15.1578 66.7397 15.2018C67.3808 15.2548 67.94 15.0107 68.4851 14.7137C68.7872 14.5496 68.8862 14.4136 68.8862 13.9555V13.9555Z" fill="#393939"/>
<path d="M26.6596 10.7196C26.6596 8.88781 26.6596 7.05669 26.6596 5.22623C26.6596 4.55506 26.7056 4.51405 27.3598 4.51305C29.4423 4.51305 31.5238 4.52506 33.6053 4.50305C34.0794 4.50305 34.2885 4.64209 34.2415 5.12721C34.2185 5.37527 34.2415 5.62733 34.2415 5.87639C34.2415 6.52556 34.1895 6.57657 33.5163 6.57657C32.251 6.57657 30.9847 6.60258 29.7204 6.56357C29.2202 6.54856 29.1302 6.7086 29.1302 7.17872C29.1302 7.80888 29.1302 8.47104 29.1302 9.0792C29.1162 9.41928 29.2042 9.54031 29.5663 9.53231C30.6816 9.5093 31.7979 9.53931 32.9132 9.5163C33.3783 9.5063 33.5473 9.69235 33.5193 10.1365C33.4993 10.4515 33.5073 10.7696 33.5193 11.0857C33.5313 11.4688 33.3543 11.6198 32.9742 11.6158C31.8419 11.6048 30.7096 11.6258 29.5733 11.6048C29.2282 11.5988 29.1222 11.6918 29.1272 12.0469C29.1472 13.4783 29.1372 14.9097 29.1342 16.342C29.1342 16.9232 29.0522 16.9982 28.466 17.0032C28.0999 17.0032 27.7332 17.0032 27.3658 17.0032C26.7516 17.0032 26.6656 16.9192 26.6656 16.317C26.6602 14.4505 26.6582 12.5847 26.6596 10.7196Z" fill="#393939"/>
<path d="M41.8774 8.63509C42.4965 8.22298 43.1377 7.8889 43.8679 7.76187C44.3605 7.67098 44.8647 7.66185 45.3602 7.73486C46.6246 7.93491 47.3888 8.82813 47.3968 10.1195C47.4098 12.201 47.3968 14.2825 47.4068 16.365C47.4068 16.8111 47.2457 17.0152 46.7976 17.0032C46.3975 16.9922 45.9974 16.9962 45.5973 17.0032C45.1622 17.0102 44.9752 16.8301 44.9792 16.371C44.9972 14.5566 44.9862 12.7411 44.9852 10.9257C44.9852 9.97942 44.6711 9.70535 43.7248 9.81638C43.1317 9.8864 42.6166 10.1455 42.1154 10.4535C41.8794 10.5976 41.9024 10.8006 41.9024 11.0157C41.9024 12.7641 41.9024 14.5129 41.9024 16.262C41.9024 16.9212 41.8203 17.0002 41.1532 17.0022C40.7861 17.0022 40.42 17.0022 40.0529 17.0022C39.6858 17.0022 39.4988 16.8631 39.4998 16.468C39.5064 13.7534 39.5064 11.039 39.4998 8.32501C39.4998 7.95392 39.6838 7.82488 40.0259 7.82488C40.309 7.82488 40.592 7.82488 40.8751 7.82488C41.7163 7.82288 41.7163 7.82288 41.8774 8.63509Z" fill="#393939"/>
<path d="M76.4031 7.70192C77.161 7.65797 77.9178 7.80554 78.6036 8.13103C79.0425 8.34474 79.4021 8.69252 79.6302 9.12407C79.8584 9.55563 79.9434 10.0486 79.8729 10.5316C79.8389 10.7947 79.7179 10.9177 79.4518 10.9137C79.0187 10.9077 78.5846 10.9007 78.1515 10.9137C77.7984 10.9257 77.6514 10.7607 77.6974 10.4296C77.7974 9.76944 77.3713 9.42035 76.6581 9.41335C76.3578 9.39555 76.0564 9.4056 75.7579 9.44336C75.4038 9.50737 75.0978 9.65641 75.0658 10.1035C75.0337 10.5506 75.2028 10.8337 75.6289 10.9817C76.5081 11.2818 77.3843 11.5999 78.2605 11.914C78.6856 12.066 79.0927 12.2541 79.4258 12.5721C79.6057 12.7335 79.7494 12.9311 79.8475 13.1519C79.9455 13.3727 79.9958 13.6118 79.995 13.8535C80.014 15.983 79.4338 16.7052 77.3013 17.0543C76.186 17.2363 75.0738 17.1683 74.0205 16.7052C73.0533 16.2791 72.5881 15.4829 72.6402 14.4366C72.6592 14.0695 72.7852 13.8815 73.1793 13.9015C73.5734 13.9215 73.9795 13.9135 74.3796 13.9015C74.7207 13.8945 74.8467 14.0625 74.8677 14.3876C74.9107 15.0878 75.0147 15.1958 75.6899 15.3478C76.1806 15.4515 76.6892 15.4333 77.1713 15.2948C77.5254 15.2018 77.7484 14.9807 77.7834 14.5946C77.8214 14.1945 77.6654 13.9125 77.2833 13.7704C76.4111 13.4454 75.5399 13.1163 74.6627 12.8062C72.9182 12.195 72.6592 11.0027 72.9522 9.53238C73.0823 8.88021 73.5434 8.4321 74.1425 8.13203C74.8467 7.78494 75.5979 7.68091 76.4031 7.70192Z" fill="#393939"/>
<path d="M37.8174 12.4561C37.8174 13.7564 37.8024 15.0567 37.8244 16.3571C37.8324 16.8322 37.6593 17.0312 37.1852 17.0092C36.7701 16.9892 36.353 17.0092 35.9359 17.0032C35.5958 17.0032 35.4148 16.8352 35.4148 16.4801C35.4148 13.7667 35.4148 11.0527 35.4148 8.33806C35.4148 7.98598 35.5848 7.82193 35.9379 7.82594C36.37 7.83194 36.8041 7.84094 37.2382 7.82594C37.6723 7.81093 37.8314 7.99098 37.8264 8.41808C37.8124 9.76742 37.8264 11.1188 37.8264 12.4641L37.8174 12.4561Z" fill="#393939"/>
<path d="M37.8193 5.55243C37.8193 6.97978 37.9403 6.79974 36.576 6.80774C35.3206 6.81474 35.4137 6.89876 35.4137 5.60744C35.4137 4.10106 35.3426 4.30712 36.671 4.30712C37.9243 4.30111 37.8183 4.14908 37.8193 5.55243Z" fill="#393939"/>
</g>
</g>
<defs>
<clipPath id="clip0_1801_10129">
<rect width="80" height="21.4244" fill="white"/>
</clipPath>
<clipPath id="clip1_1801_10129">
<rect width="80" height="21.4244" fill="white"/>
</clipPath>
</defs>
</svg>
