<svg width="80" height="19" viewBox="0 0 80 19" fill="none" xmlns="http://www.w3.org/2000/svg">
<g clip-path="url(#clip0_1801_11162)">
<g clip-path="url(#clip1_1801_11162)">
<path d="M6.4415 0.0603027C6.7328 0.193939 7.05576 0.200972 7.35937 0.290649C9.84101 1.0192 11.5929 3.43813 11.4581 5.96432C11.311 8.72086 9.3686 10.9522 6.72928 11.3959C3.59235 11.9234 0.722104 9.94527 0.0972965 6.83061C0.0779544 6.73449 0.107847 6.61199 0 6.54166V5.0236C0.102572 4.93919 0.0756099 4.81083 0.099641 4.70416C0.641219 2.3116 2.11239 0.819919 4.48033 0.192767C4.66437 0.144118 4.86248 0.153496 5.03597 0.0603027H6.4415ZM4.86365 1.74892C4.6673 1.75303 4.41527 1.91831 4.18082 2.11232C3.74826 2.47044 3.41593 2.91531 3.11349 3.38186C2.85677 3.77808 2.92945 4.16024 3.30574 4.45974C4.06828 5.06755 4.80152 5.70526 5.47146 6.4174C6.00894 6.98887 6.20822 7.66115 6.16485 8.42135C6.15254 8.63412 6.1121 8.84512 6.0822 9.05612C6.06755 9.15811 6.07107 9.24955 6.16836 9.31402C6.26214 9.37615 6.33658 9.32222 6.40809 9.27358C7.25855 8.69742 8.05158 8.05913 8.6799 7.23387C9.27365 6.45491 9.31995 5.65544 8.81999 4.81962C8.09261 3.60459 7.09678 2.66855 5.85127 1.99744C5.58576 1.85443 5.30149 1.74599 4.86307 1.74892H4.86365ZM5.62151 8.24845C5.59924 7.62774 5.3982 7.06624 4.90761 6.6325C4.66965 6.42209 4.44457 6.41447 4.23298 6.62782C3.77464 7.09144 3.32567 7.56503 2.87845 8.03979C2.71434 8.21445 2.67507 8.43601 2.81457 8.62884C3.185 9.1417 3.63455 9.56957 4.2617 9.75537C4.68313 9.88021 5.02718 9.75244 5.2839 9.39373C5.5248 9.0573 5.6051 8.67104 5.62151 8.24727V8.24845Z" fill="#02AED5"/>
<path d="M4.86416 1.74835C5.30258 1.74542 5.58685 1.85385 5.85236 1.99687C7.09787 2.66798 8.0937 3.60402 8.82108 4.81905C9.32104 5.65428 9.27474 6.45375 8.68099 7.23329C8.05208 8.05855 7.25965 8.69684 6.40918 9.273C6.33709 9.32165 6.26324 9.37557 6.16946 9.31344C6.07216 9.24897 6.06864 9.15753 6.0833 9.05555C6.11377 8.84396 6.15422 8.63295 6.16594 8.42078C6.20931 7.65999 6.01003 6.98829 5.47255 6.41682C4.80262 5.70468 4.06937 5.06698 3.30683 4.45917C2.93112 4.15966 2.85844 3.77751 3.11458 3.38129C3.41702 2.91415 3.74935 2.46987 4.18191 2.11175C4.41636 1.91715 4.66839 1.75245 4.86474 1.74835H4.86416Z" fill="#FDFDFD"/>
<path d="M5.6216 8.24794C5.60519 8.67112 5.52489 9.05737 5.284 9.39439C5.02727 9.7531 4.68322 9.88088 4.2618 9.75603C3.63464 9.56964 3.18509 9.14177 2.81466 8.6295C2.67516 8.43667 2.71443 8.21511 2.87854 8.04045C3.32576 7.56569 3.77473 7.0921 4.23308 6.62848C4.44467 6.41454 4.66915 6.42216 4.9077 6.63317C5.39829 7.0669 5.59933 7.62782 5.6216 8.24911V8.24794Z" fill="#FDFDFD"/>
<path d="M16.3596 8.93777C17.0096 9.70617 17.5535 9.96641 18.4637 9.96641C19.4449 9.96641 20.1664 9.33985 20.1664 8.4888V8.03982H20.143C19.7057 8.52455 18.9842 8.79651 18.1214 8.79651C16.23 8.83168 14.7167 7.36578 14.7518 5.49781C14.7518 3.67731 16.1825 2.24658 18.0622 2.24658C18.9491 2.24658 19.7057 2.50682 20.143 2.97982H20.1664V2.36498H21.8451V8.46535C21.8451 10.239 20.4384 11.4681 18.4637 11.4681C17.033 11.4681 15.8508 10.9599 15.1064 9.97813L16.3596 8.93777ZM20.0955 5.14262C20.0955 4.43341 19.2913 3.78281 18.3928 3.78281C17.2581 3.78281 16.5014 4.46858 16.5014 5.49722C16.5014 6.59679 17.1989 7.25852 18.3219 7.25852C19.3031 7.25852 20.0955 6.64368 20.0955 5.87527V5.14203V5.14262Z" fill="black"/>
<path d="M26.2433 2.18737C28.2888 2.18737 29.7782 3.64154 29.7782 5.49779C29.7782 7.35405 28.2883 8.80822 26.2433 8.80822C24.2452 8.84397 22.6726 7.3306 22.7084 5.49779C22.6726 3.66557 24.2452 2.1522 26.2433 2.18737ZM26.2433 3.72418C25.1671 3.72418 24.4579 4.46915 24.4579 5.49779C24.4579 6.52644 25.1671 7.2714 26.2433 7.2714C27.3194 7.2714 28.0286 6.52644 28.0286 5.49779C28.0286 4.46915 27.3194 3.72418 26.2433 3.72418Z" fill="black"/>
<path d="M30.7244 2.3645H32.403V2.92014H32.4265C32.8995 2.43542 33.6321 2.1869 34.448 2.1869C36.2568 2.15115 37.7344 3.66452 37.6992 5.49732C37.7344 7.35358 36.2808 8.84292 34.4597 8.80775C33.6913 8.80775 32.9112 8.53579 32.4974 8.14602H32.4739V11.2906H30.7244V2.3645ZM34.1766 3.73602C33.2547 3.73602 32.4739 4.38603 32.4739 5.09583V5.88768C32.4739 6.64437 33.2306 7.27093 34.1884 7.27093C35.2287 7.27093 35.9497 6.53769 35.9497 5.49732C35.9497 4.45696 35.2287 3.73602 34.176 3.73602H34.1766Z" fill="black"/>
<path d="M40.9977 4.89466C42.1448 4.74109 42.4877 4.57522 42.4877 4.25637C42.4877 3.84257 42.0504 3.59405 41.3764 3.59405C40.5722 3.59405 39.9697 4.01958 39.8161 4.71706L38.1609 4.37418C38.3971 3.0976 39.7094 2.18677 41.3295 2.18677C43.1617 2.18677 44.297 3.12046 44.297 4.64614V8.63002H42.7244V7.94426H42.701C42.3229 8.47646 41.5188 8.80703 40.5845 8.80703C39.2013 8.80703 38.2435 8.05035 38.2435 6.93906C38.2435 5.76857 39.0237 5.16545 40.9983 4.89349L40.9977 4.89466ZM42.6295 5.55698H42.606C42.4525 5.78146 42.1213 5.91158 41.2703 6.06515C40.2416 6.25446 39.8753 6.4555 39.8753 6.82183C39.8753 7.18816 40.1824 7.36575 40.8447 7.36575C41.8499 7.36575 42.6301 6.90447 42.6301 6.30194V5.55698H42.6295Z" fill="black"/>
<path d="M47.4645 8.28777L44.5679 2.36499H46.495L48.3982 6.45555H48.4216L50.3013 2.36499H52.2402L47.9012 11.2911H45.974L47.4639 8.28835L47.4645 8.28777Z" fill="black"/>
<path d="M52.8198 0H54.5694V8.63067H52.8198V0Z" fill="black"/>
<path d="M58.3412 4.89466C59.4883 4.74109 59.8312 4.57522 59.8312 4.25637C59.8312 3.84257 59.3939 3.59405 58.7199 3.59405C57.9157 3.59405 57.3132 4.01958 57.1596 4.71706L55.5044 4.37418C55.7406 3.0976 57.0529 2.18677 58.673 2.18677C60.5052 2.18677 61.6405 3.12046 61.6405 4.64614V8.63002H60.068V7.94426H60.0445C59.6665 8.47646 58.8623 8.80703 57.928 8.80703C56.5448 8.80703 55.587 8.05035 55.587 6.93906C55.587 5.76857 56.3672 5.16545 58.3418 4.89349L58.3412 4.89466ZM59.973 5.55698H59.9496C59.796 5.78146 59.4648 5.91158 58.6138 6.06515C57.5851 6.25446 57.2188 6.4555 57.2188 6.82183C57.2188 7.18816 57.5259 7.36575 58.1883 7.36575C59.1935 7.36575 59.9736 6.90447 59.9736 6.30194V5.55698H59.973Z" fill="black"/>
<path d="M65.34 3.85424V6.50235C65.34 6.89271 65.4701 7.01052 65.9783 7.01052H67.1253V8.62998H65.8013C64.2287 8.62998 63.5904 8.01513 63.5904 6.60844V3.85366H62.1128V2.36373H63.5904V0.791748H65.34V2.36432H67.3615V3.85424H65.34Z" fill="black"/>
<path d="M71.121 2.18735C73.2017 2.18735 74.5258 3.65325 74.5258 5.55698V6.05342H69.4423C69.5015 6.86931 70.1756 7.3892 71.216 7.3892C71.9726 7.3892 72.5166 7.10551 73.1431 6.45492L74.231 7.54276C73.4743 8.35865 72.5406 8.80762 71.2283 8.80762C69.0409 8.80762 67.7168 7.49529 67.7168 5.50891C67.7168 3.52254 69.1475 2.18677 71.1216 2.18677L71.121 2.18735ZM72.8237 4.82374C72.741 4.07877 72.0905 3.60577 71.1568 3.60577C70.2231 3.60577 69.5607 4.07877 69.4664 4.82374H72.8237Z" fill="black"/>
<path d="M75.4602 2.36439H77.1037V2.96751H77.1271C77.5884 2.48279 78.2027 2.24658 78.9717 2.24658C79.2911 2.24658 79.634 2.30578 80.0003 2.41187L79.634 3.98444C79.3146 3.90179 79.0192 3.85432 78.7237 3.85432C77.766 3.85432 77.2104 4.49261 77.2104 5.76977V8.63064H75.4608V2.36439H75.4602Z" fill="black"/>
<path d="M14.7673 14.0742H16.4255C17.0098 14.0742 17.3914 14.4089 17.3914 14.9223C17.3914 15.2424 17.2455 15.4967 17.0005 15.6052V15.6146C17.3158 15.7277 17.5139 16.0196 17.5139 16.4011C17.5139 17.0371 17.1089 17.3717 16.3505 17.3717H14.7679V14.0742H14.7673ZM16.3358 15.4686C16.7643 15.4686 16.9811 15.2945 16.9811 14.9411C16.9811 14.6211 16.7549 14.4464 16.3358 14.4464H15.1723V15.4686H16.3358ZM16.2795 16.9996C16.8492 16.9996 17.1036 16.8161 17.1036 16.4058C17.1036 15.9955 16.8727 15.8168 16.2936 15.8168H15.1723V16.999H16.2795V16.9996Z" fill="black"/>
<path d="M18.9218 17.1548L17.7771 14.8748H18.2196L19.1334 16.7498H19.1428L20.0518 14.8748H20.4944L18.7184 18.4314H18.2806L18.9212 17.1548H18.9218Z" fill="black"/>
<path d="M22.2234 14.0742H24.5978V14.4464H22.629V15.6286H24.4471V15.9821H22.629V17.3717H22.224V14.0742H22.2234Z" fill="black"/>
<path d="M25.0872 14.0078H25.535V14.4363H25.0872V14.0078ZM25.1247 14.8747H25.5109V17.371H25.1247V14.8747Z" fill="black"/>
<path d="M26.1282 14.8749H26.5051V15.1855H26.5144C26.7026 14.9452 27.0466 14.804 27.4094 14.804C28.111 14.804 28.5917 15.2371 28.5917 15.8684V17.3712H28.2054V15.944C28.2054 15.4493 27.8994 15.1433 27.4094 15.1433C26.8819 15.1433 26.5144 15.478 26.5144 15.9627V17.3712H26.1282V14.8749Z" fill="black"/>
<path d="M30.4098 14.8044C30.8007 14.8044 31.1495 14.9457 31.3564 15.1907H31.3658V13.9329H31.752V17.3716H31.3798V17.061H31.3704C31.1676 17.3013 30.8242 17.4426 30.4332 17.4426C29.656 17.4426 29.0957 16.8963 29.0957 16.1238C29.0957 15.3513 29.6607 14.805 30.4098 14.805V14.8044ZM31.3658 15.9351C31.3658 15.4972 30.9607 15.1438 30.4332 15.1438C29.8635 15.1438 29.482 15.53 29.482 16.1238C29.482 16.7175 29.8588 17.1038 30.4573 17.1038C30.966 17.1038 31.3663 16.7504 31.3663 16.3125V15.9356L31.3658 15.9351Z" fill="black"/>
<path d="M33.3819 15.9205C33.9141 15.8308 34.0982 15.7324 34.0982 15.539C34.0982 15.2986 33.8532 15.1433 33.4716 15.1433C33.0385 15.1433 32.7413 15.3649 32.6663 15.7418L32.2941 15.6615C32.3885 15.1386 32.8451 14.804 33.4716 14.804C34.0982 14.804 34.5126 15.124 34.5126 15.6187V17.3712H34.1404V17.0558H34.131C33.9616 17.2868 33.5988 17.4421 33.2032 17.4421C32.6235 17.4421 32.28 17.1596 32.28 16.7024C32.28 16.2452 32.586 16.0477 33.3825 15.9205H33.3819ZM34.1263 15.9627H34.1169C34.046 16.0899 33.8673 16.1608 33.4529 16.2312C32.8925 16.3255 32.671 16.4574 32.671 16.7024C32.671 16.9709 32.8691 17.098 33.2835 17.098C33.726 17.098 34.1269 16.8155 34.1269 16.4996V15.9627H34.1263Z" fill="black"/>
<path d="M35.9399 17.1548L34.7952 14.8748H35.2377L36.1515 16.7498H36.1608L37.0699 14.8748H37.5124L35.7365 18.4314H35.2986L35.9393 17.1548H35.9399Z" fill="black"/>
<path d="M38.7374 15.9205C39.2696 15.8308 39.4537 15.7324 39.4537 15.539C39.4537 15.2986 39.2087 15.1433 38.8271 15.1433C38.3939 15.1433 38.0968 15.3649 38.0218 15.7418L37.6496 15.6615C37.7439 15.1386 38.2005 14.804 38.8271 14.804C39.4537 14.804 39.868 15.124 39.868 15.6187V17.3712H39.4959V17.0558H39.4865C39.3171 17.2868 38.9543 17.4421 38.5586 17.4421C37.979 17.4421 37.6355 17.1596 37.6355 16.7024C37.6355 16.2452 37.9415 16.0477 38.738 15.9205H38.7374ZM39.4818 15.9627H39.4724C39.4015 16.0899 39.2227 16.1608 38.8083 16.2312C38.248 16.3255 38.0264 16.4574 38.0264 16.7024C38.0264 16.9709 38.2246 17.098 38.6389 17.098C39.0815 17.098 39.4824 16.8155 39.4824 16.4996V15.9627H39.4818Z" fill="black"/>
</g>
</g>
<defs>
<clipPath id="clip0_1801_11162">
<rect width="80" height="18.4312" fill="white"/>
</clipPath>
<clipPath id="clip1_1801_11162">
<rect width="80" height="18.4312" fill="white"/>
</clipPath>
</defs>
</svg>
