<svg width="80" height="34" viewBox="0 0 80 34" fill="none" xmlns="http://www.w3.org/2000/svg">
<g clip-path="url(#clip0_1801_10081)">
<path fill-rule="evenodd" clip-rule="evenodd" d="M26.6918 0H28.1372C30.7728 0.173006 33.3458 1.3092 35.19 3.20982C36.617 4.6638 37.5949 6.56074 37.9041 8.57791C38.2796 10.9534 37.7471 13.4528 36.417 15.4589C35.3819 15.4611 34.3465 15.4607 33.311 15.4602H33.3085H33.3084H33.3084H33.3084H33.3083H33.3083H33.3082H33.3082H33.3081C32.6188 15.4599 31.9294 15.4596 31.2403 15.4601C32.5323 14.4896 33.455 13.0282 33.7287 11.4319C34.0354 9.77055 33.6268 7.99877 32.6464 6.62577C31.6514 5.20613 30.0599 4.21963 28.3422 3.97301C26.3618 3.66135 24.2563 4.37055 22.8563 5.80368C21.4379 7.20982 20.7372 9.3092 21.0587 11.2834C21.3017 12.9362 22.2379 14.4577 23.5679 15.4601C22.8565 15.4591 22.1451 15.4596 21.4337 15.46C20.4175 15.4606 19.4013 15.4613 18.3851 15.4577C17.1483 13.5497 16.5704 11.2123 16.8538 8.95092C17.1409 6.37791 18.5323 3.97914 20.5471 2.37055C22.282 0.96319 24.4673 0.146012 26.6918 0ZM0.860207 0.644287C1.39027 0.644813 1.92033 0.644663 2.45039 0.644512C3.15714 0.644312 3.86389 0.644112 4.57064 0.645514V6.56331C6.57432 6.56453 8.578 6.56453 10.5829 6.56331C10.5837 5.24797 10.5835 3.93263 10.5832 2.61729L10.5829 0.644287C11.8099 0.644287 13.0369 0.644287 14.2639 0.645514V15.459H14.2629C13.0363 15.4602 11.8096 15.4615 10.5829 15.459L10.5832 13.6087C10.5835 12.3752 10.5837 11.1416 10.5829 9.90809C9.24707 9.90727 7.9107 9.90755 6.5745 9.90782L4.57064 9.90809C4.57002 10.8328 4.57033 11.7574 4.57064 12.6821V12.6836V12.685C4.57094 13.6097 4.57125 14.5343 4.57064 15.459C3.64317 15.4609 2.71502 15.4606 1.7872 15.4604L0.85898 15.4602L0.858827 11.7563C0.858596 8.05229 0.858366 4.34829 0.860207 0.644287ZM41.5886 0.644133C41.2432 0.645227 40.8978 0.646321 40.5525 0.644049V15.46L41.4798 15.4602H41.4809C42.4087 15.4604 43.3367 15.4606 44.2641 15.4588C44.2763 14.0962 44.2642 12.7336 44.2522 11.3711C44.2424 10.26 44.2326 9.14897 44.2359 8.03791C44.7603 8.85149 45.286 9.66393 45.8119 10.4765L45.812 10.4767L45.8121 10.4769L45.8122 10.4771L45.8124 10.4773L45.8125 10.4775L45.8126 10.4777L45.8127 10.4779L45.8133 10.4788L45.8162 10.4832C46.3865 11.3644 46.9568 12.2457 47.5255 13.1287H49.5917C50.6727 11.4502 51.7586 9.77411 52.8518 8.10295C52.854 9.573 52.8536 11.0426 52.8532 12.5121V12.5183V12.5184V12.5185V12.5186V12.5187V12.5188V12.5188V12.5189V12.519C52.8529 13.499 52.8526 14.4789 52.8531 15.4588C53.7805 15.4606 54.7085 15.4604 55.6362 15.4602H55.6374L56.5647 15.46L56.5649 11.7531C56.5651 8.05011 56.5653 4.34708 56.5635 0.644049L55.8687 0.644203C55.1739 0.644433 54.4791 0.644663 53.7844 0.642822C52.9138 1.95509 52.0423 3.26675 51.1709 4.57841C50.2994 5.89006 49.4279 7.20172 48.5574 8.51399C47.8862 7.49826 47.2114 6.48493 46.5366 5.47164L46.5364 5.47129L46.5363 5.47106L46.5362 5.47092C45.4692 3.86865 44.4022 2.26647 43.35 0.655092C42.7629 0.640414 42.1757 0.642274 41.5886 0.644133ZM59.5709 0.644287L63.3133 0.64456H63.3134H63.3136H63.3137H63.3138H63.314H63.3141H63.3142C65.8087 0.644832 68.3029 0.645105 70.7966 0.644287C70.7979 1.71791 70.7991 2.79153 70.7966 3.86515H70.7952C68.2914 3.86515 65.7863 3.86515 63.2825 3.86637L63.2822 4.75481C63.282 5.34758 63.2817 5.94072 63.2825 6.53386C64.2249 6.53438 65.1673 6.53423 66.1095 6.53408C67.3658 6.53388 68.6219 6.53368 69.8776 6.53508C69.877 7.05773 69.8773 7.58037 69.8776 8.10301V8.11586C69.8779 8.6417 69.8782 9.16753 69.8776 9.69337C68.9353 9.69389 67.9932 9.69374 67.0511 9.69359C65.795 9.69339 64.5389 9.69319 63.2825 9.69459L63.2822 10.5424C63.282 11.1077 63.2817 11.6733 63.2825 12.2394C64.9529 12.2402 66.6228 12.2399 68.2924 12.2397L70.7966 12.2394C70.7979 13.313 70.7979 14.3866 70.7979 15.4602H59.5709L59.5706 10.5216V10.4873C59.5703 7.20629 59.57 3.92529 59.5709 0.644287ZM30.9094 11.7521C28.5757 11.7448 26.2407 11.7472 23.907 11.7509C24.0603 12.1853 24.275 12.6 24.5695 12.9571C25.5548 14.2147 27.4076 14.6663 28.8616 14.0037C29.8297 13.5951 30.5695 12.7399 30.9094 11.7521ZM6.49816 18.7018C8.21227 18.4699 10.027 18.6552 11.5693 19.4798C13.4049 20.4098 14.7104 22.2307 15.1387 24.2307C14.4535 24.2339 13.7687 24.2334 13.0838 24.2329C12.4613 24.2325 11.8388 24.232 11.216 24.2344C10.8736 23.4908 10.3239 22.8147 9.57301 22.4589C7.88957 21.6614 5.62822 22.1239 4.5411 23.681C3.31043 25.4123 3.48344 28.0724 5.07239 29.5288C6.17178 30.5202 7.82086 30.7742 9.20491 30.3068C10.119 29.9963 10.8368 29.2515 11.211 28.373C11.8651 28.3748 12.5188 28.3745 13.1725 28.3742H13.1742C13.8285 28.3739 14.4828 28.3736 15.1374 28.3755C14.8344 29.7509 14.1472 31.0528 13.1178 32.0221C11.8847 33.2233 10.1877 33.8638 8.48712 33.9877H7.19755C5.14479 33.8466 3.11779 32.9399 1.77914 31.3558C0.716564 30.1288 0.119018 28.5399 0 26.9301V25.6405C0.117791 24.2822 0.549693 22.9387 1.3411 21.8196C2.51656 20.1068 4.45767 19 6.49816 18.7018ZM24.0477 18.8969H24.0489L24.0502 18.8969C25.5974 18.946 27.2084 19.3926 28.3557 20.4785C30.1876 22.1767 30.3189 25.2797 28.8293 27.2356C28.4293 27.762 27.9164 28.1914 27.3569 28.5374C27.9507 29.4272 28.5485 30.3148 29.1463 31.2024L29.1464 31.2025C29.7084 32.0369 30.2704 32.8714 30.8293 33.708C30.3861 33.7076 29.9428 33.7093 29.4995 33.711C28.4896 33.7148 27.4797 33.7186 26.471 33.6982C25.819 32.6739 25.1521 31.6596 24.4854 30.6455L24.4852 30.6452L24.485 30.6449L24.4848 30.6446L24.4846 30.6443L24.4844 30.644C24.2154 30.2348 23.9464 29.8257 23.6784 29.4159C23.1532 29.4173 22.628 29.4171 22.1028 29.4169H22.0995C21.7068 29.4168 21.314 29.4166 20.9213 29.4172C20.9199 30.2354 20.9201 31.0532 20.9203 31.871V31.871V31.8711V31.8711V31.8711V31.8711C20.9205 32.4845 20.9206 33.098 20.9201 33.7117H17.2084L17.2087 28.7729V28.7728V28.7726V28.7725V28.7724V28.7722C17.209 25.4802 17.2093 22.1883 17.2084 18.8969C19.487 18.8945 21.7643 18.8957 24.0428 18.8969H24.0441H24.0453H24.0465H24.0477ZM20.9212 22.1779C20.92 23.4871 20.92 24.7951 20.92 26.1043C21.2797 26.1024 21.6397 26.1035 21.9997 26.1045H21.9997H21.9998H21.9998H21.9999H22.0006C22.5636 26.1062 23.1267 26.1079 23.6893 26.0982C24.4427 26.0736 25.2402 25.8307 25.7323 25.227C26.1911 24.6699 26.2709 23.8221 25.8746 23.211C25.4672 22.546 24.6684 22.2331 23.9188 22.1804C23.3108 22.1751 22.7024 22.1763 22.094 22.1774H22.094H22.0939H22.0939H22.0938H22.0938C21.7028 22.1781 21.3119 22.1789 20.9212 22.1779ZM32.577 18.8957H43.804C43.804 19.9693 43.804 21.0429 43.8028 22.1166C42.8019 22.1175 41.8008 22.1169 40.7997 22.1164H40.7996H40.7996H40.7959C39.2922 22.1155 37.7884 22.1146 36.285 22.119C36.2895 22.6618 36.289 23.2046 36.2884 23.7474V23.7504C36.2881 24.0949 36.2877 24.4395 36.2887 24.784C37.5438 24.7854 38.7984 24.7852 40.0532 24.785H40.0577C40.9996 24.7849 41.9416 24.7847 42.8838 24.7853V27.9435C41.6281 27.9449 40.3721 27.9447 39.1159 27.9445H39.1158H39.1157H39.1156C38.1734 27.9444 37.231 27.9442 36.2887 27.9448C36.2879 28.5089 36.2881 29.0726 36.2884 29.636V29.6418L36.2887 30.4896C37.7206 30.491 39.1522 30.4908 40.5838 30.4906C41.6571 30.4904 42.7305 30.4903 43.804 30.4908L43.8042 31.2966C43.8044 32.1016 43.8046 32.9066 43.8028 33.7116C41.3173 33.7108 38.8313 33.7111 36.3454 33.7114H36.3195L32.5783 33.7116C32.5764 30.0067 32.5766 26.3017 32.5769 22.5968L32.577 18.8957ZM46.2578 18.8957H52.5167C54.6873 18.935 56.9094 19.7386 58.3928 21.3644C60.9634 24.1374 60.8124 28.9632 58.0591 31.5595C56.6272 32.9534 54.621 33.6454 52.6456 33.7104C51.4319 33.7118 50.2183 33.7116 49.0047 33.7114H48.996C48.0837 33.7113 47.1714 33.7111 46.2591 33.7116C46.2572 30.0077 46.2575 26.3037 46.2577 22.5997L46.2578 18.8957ZM49.9694 27.6575V27.6578L49.9697 30.3681C50.3553 30.3501 50.7481 30.3595 51.1421 30.3689C52.1952 30.3942 53.2569 30.4197 54.2114 29.9215C55.82 29.1558 56.7575 27.254 56.3943 25.5117C56.1562 24.2037 55.2053 23.0712 53.9759 22.5779C53.0826 22.1893 52.1204 22.214 51.1625 22.2386C50.7624 22.2489 50.363 22.2591 49.9697 22.2393C49.9689 24.045 49.9692 25.8508 49.9694 27.657V27.6572V27.6575ZM62.2087 18.8958L63.1363 18.8957C64.064 18.8954 64.9919 18.8952 65.9204 18.897V33.7105C65.302 33.7112 64.6836 33.7112 64.0652 33.7112C63.4468 33.7112 62.8284 33.7112 62.21 33.7118C62.2081 30.0068 62.2084 26.3019 62.2086 22.5969L62.2087 18.8958ZM76.956 18.8957C73.9118 18.8954 70.8674 18.8952 67.8223 18.897V22.2075C68.5326 22.2093 69.2433 22.209 69.9539 22.2087C70.6647 22.2084 71.3756 22.2081 72.0861 22.2099C72.0853 24.7654 72.0855 27.3214 72.0858 29.8772C72.0859 31.1551 72.0861 32.4329 72.0861 33.7105C72.6988 33.7124 73.3118 33.7121 73.925 33.7118C74.5385 33.7115 75.1522 33.7112 75.7658 33.713C75.766 33.1652 75.7662 32.6174 75.7664 32.0696C75.7676 28.7831 75.7688 25.4967 75.7646 22.2112C76.6626 22.208 77.5611 22.2084 78.4598 22.2087C78.9732 22.2089 79.4867 22.2091 80.0002 22.2087V18.8958C78.9855 18.8958 77.9708 18.8957 76.956 18.8957Z" fill="#DA1A32"/>
</g>
<defs>
<clipPath id="clip0_1801_10081">
<rect width="80.0002" height="33.9877" fill="white"/>
</clipPath>
</defs>
</svg>
