<svg width="80" height="14" viewBox="0 0 80 14" fill="none" xmlns="http://www.w3.org/2000/svg">
<g clip-path="url(#clip0_1801_9991)">
<g clip-path="url(#clip1_1801_9991)">
<path d="M41.6159 4.61108C39.5151 4.61108 37.8127 6.31508 37.8127 8.41428C37.8127 10.5135 39.5151 12.2159 41.6159 12.2159C41.9263 12.2159 42.2287 12.1775 42.5183 12.1087C44.1839 11.7039 45.4175 10.2031 45.4175 8.41428C45.4175 6.31348 43.7167 4.61108 41.6159 4.61108ZM41.6159 10.2527C40.5999 10.2527 39.7775 9.42708 39.7775 8.41268C39.7775 7.39668 40.5999 6.57268 41.6159 6.57268C42.6319 6.57268 43.4543 7.39508 43.4543 8.41268C43.4543 9.42868 42.6319 10.2527 41.6159 10.2527Z" fill="black"/>
<path d="M58.9905 4.61108C56.8897 4.61108 55.1873 6.31508 55.1873 8.41428C55.1873 10.5135 56.8897 12.2159 58.9905 12.2159C59.3009 12.2159 59.6033 12.1775 59.8929 12.1087C60.2769 12.0159 60.6353 11.8623 60.9633 11.6623C61.1345 11.9567 61.4529 12.1551 61.8193 12.1551C62.3569 12.1551 62.7921 11.7199 62.7921 11.1823V8.41428C62.7921 6.31348 61.0913 4.61108 58.9905 4.61108ZM58.9905 10.2527C57.9745 10.2527 57.1521 9.42708 57.1521 8.41268C57.1521 7.39668 57.9745 6.57268 58.9905 6.57268C60.0065 6.57268 60.8289 7.39508 60.8289 8.41268C60.8289 9.42868 60.0065 10.2527 58.9905 10.2527Z" fill="black"/>
<path d="M18.3025 4.60328C18.2993 4.60328 18.2945 4.60328 18.2913 4.60328C18.2881 4.60328 18.2849 4.60328 18.2817 4.60328C17.7553 4.60168 17.3201 5.01128 17.3201 5.53768V11.2801C17.3201 11.7969 17.7393 12.2161 18.2561 12.2161H18.3313C18.8481 12.2161 19.2673 11.7969 19.2673 11.2801V5.53768C19.2657 5.01128 18.8305 4.60168 18.3025 4.60328Z" fill="black"/>
<path d="M18.2912 3.82091C18.9707 3.82091 19.5216 3.27004 19.5216 2.59051C19.5216 1.91098 18.9707 1.36011 18.2912 1.36011C17.6117 1.36011 17.0608 1.91098 17.0608 2.59051C17.0608 3.27004 17.6117 3.82091 18.2912 3.82091Z" fill="black"/>
<path d="M35.72 1.3584C35.16 1.3584 34.7056 1.8128 34.7056 2.3728V5.0848C34.16 4.7824 33.5344 4.6112 32.8672 4.6112C30.7664 4.6112 29.064 6.3152 29.064 8.41439C29.064 10.5136 30.7664 12.216 32.8672 12.216C33.1776 12.216 33.48 12.1776 33.7696 12.1088C34.1472 12.016 34.5024 11.8656 34.8272 11.6704C34.9904 11.96 35.2992 12.1552 35.6544 12.1552H35.6608C36.2176 12.1552 36.6704 11.704 36.6704 11.1456V2.3072C36.6688 1.7824 36.2448 1.3584 35.72 1.3584ZM32.8672 10.2528C31.8512 10.2528 31.0288 9.42719 31.0288 8.41279C31.0288 7.3968 31.8512 6.5728 32.8672 6.5728C33.8832 6.5728 34.7056 7.3952 34.7056 8.41279C34.7056 9.42879 33.8832 10.2528 32.8672 10.2528Z" fill="black"/>
<path d="M53.0735 1.3584C52.5135 1.3584 52.0591 1.8128 52.0591 2.3728V5.0848C51.5135 4.7824 50.8879 4.6112 50.2207 4.6112C48.1199 4.6112 46.4175 6.3152 46.4175 8.41439C46.4175 10.5136 48.1199 12.216 50.2207 12.216C50.5311 12.216 50.8335 12.1776 51.1231 12.1088C51.5007 12.016 51.8559 11.8656 52.1807 11.6704C52.3439 11.96 52.6527 12.1552 53.0079 12.1552H53.0143C53.5711 12.1552 54.0239 11.704 54.0239 11.1456V2.3072C54.0223 1.7824 53.5967 1.3584 53.0735 1.3584ZM50.2207 10.2528C49.2047 10.2528 48.3823 9.42719 48.3823 8.41279C48.3823 7.3968 49.2047 6.5728 50.2207 6.5728C51.2367 6.5728 52.0591 7.3952 52.0591 8.41279C52.0575 9.42879 51.2351 10.2528 50.2207 10.2528Z" fill="black"/>
<path d="M80.0001 8.41428C80.0001 6.31508 78.2993 4.61108 76.1985 4.61108C74.0977 4.61108 72.3953 6.31508 72.3953 8.41428C72.3953 10.5135 74.0977 12.2159 76.1985 12.2159C76.5089 12.2159 76.8113 12.1775 77.1009 12.1087C77.4849 12.0159 77.8433 11.8623 78.1713 11.6623C78.3425 11.9567 78.6609 12.1551 79.0273 12.1551C79.5649 12.1551 80.0001 11.7199 80.0001 11.1823V8.41428ZM76.1985 10.2527C75.1825 10.2527 74.3601 9.42708 74.3601 8.41268C74.3601 7.39668 75.1825 6.57268 76.1985 6.57268C77.2145 6.57268 78.0369 7.39508 78.0369 8.41268C78.0353 9.42868 77.2129 10.2527 76.1985 10.2527Z" fill="black"/>
<path d="M24.2656 4.60327C22.2864 4.60327 20.6768 6.21287 20.6768 8.19207V11.2593C20.6768 11.7809 21.0992 12.2033 21.6208 12.2033C22.1424 12.2033 22.5648 11.7809 22.5648 11.2593V8.19207C22.5648 7.25447 23.3264 6.49287 24.264 6.49287C25.2016 6.49287 25.9632 7.25447 25.9632 8.19207V11.2593C25.9632 11.7809 26.3856 12.2033 26.9072 12.2033C27.4288 12.2033 27.8512 11.7809 27.8512 11.2593V8.19207C27.8544 6.21447 26.2448 4.60327 24.2656 4.60327Z" fill="black"/>
<path d="M67.6703 4.60327C65.6911 4.60327 64.0815 6.21287 64.0815 8.19207V11.2593C64.0815 11.7809 64.5039 12.2033 65.0255 12.2033C65.5471 12.2033 65.9695 11.7809 65.9695 11.2593V8.19207C65.9695 7.25447 66.7311 6.49287 67.6687 6.49287C68.6063 6.49287 69.3679 7.25447 69.3679 8.19207V11.2593C69.3679 11.7809 69.7903 12.2033 70.3119 12.2033C70.8335 12.2033 71.2559 11.7809 71.2559 11.2593V8.19207C71.2575 6.21447 69.6479 4.60327 67.6703 4.60327Z" fill="black"/>
<path d="M9.1104 2.568V2.576C9.1104 2.6944 9.0336 2.7968 8.9168 2.8336C8.9168 2.8336 0.9888 5.7088 0.928 5.7328C0.3456 5.3312 0 4.6752 0 3.9664V2.1488C0 0.9632 0.9632 0 2.1472 0C2.3616 0 2.5728 0.032 2.7776 0.0944C2.9568 0.1584 6.9616 1.608 8.9056 2.3136C8.9936 2.3392 9.1104 2.432 9.1104 2.568Z" fill="#FFBA00"/>
<path d="M10.96 4.1343L10.9552 4.1231C10.8304 3.8415 10.656 3.5727 10.44 3.3343C10.4032 3.2943 10.3664 3.2559 10.3296 3.2207C10.1328 3.7727 9.6224 3.9951 9.4576 4.0527L1.4384 6.9599C1.2144 7.0591 1.2336 7.0463 1.1376 7.0991C0.4352 7.4847 0 8.2207 0 9.0207V11.3791C0 12.5887 0.984 13.5727 2.1936 13.5727C2.4112 13.5727 2.6304 13.5391 2.8432 13.4751C3.0912 13.3887 9.096 11.2111 9.1536 11.1919C9.2576 11.1551 9.3264 11.1279 9.344 11.1215L9.3488 11.1199C9.7616 10.9487 10.1392 10.6831 10.44 10.3503C10.6544 10.1135 10.8304 9.84631 10.96 9.55511C11.136 9.16631 11.224 8.7487 11.224 8.3167V5.3679C11.2224 4.9327 11.1344 4.5183 10.96 4.1343Z" fill="#33CC00"/>
</g>
</g>
<defs>
<clipPath id="clip0_1801_9991">
<rect width="80" height="13.5744" fill="white"/>
</clipPath>
<clipPath id="clip1_1801_9991">
<rect width="80" height="13.5744" fill="white"/>
</clipPath>
</defs>
</svg>
