<svg width="80" height="25" viewBox="0 0 80 25" fill="none" xmlns="http://www.w3.org/2000/svg">
<g clip-path="url(#clip0_1801_11053)">
<path d="M77.1637 0.00350935C77.8035 -0.0476715 78.3793 0.468402 78.4603 1.06551C78.5072 1.43231 78.4006 1.79057 78.2598 1.99956C78.085 2.25547 77.7225 2.49858 77.4196 2.54123C76.5751 2.65638 75.9866 1.9953 75.9823 1.2745C75.9823 0.600619 76.4429 0.0632204 77.1637 0.00777443" fill="#DC0814"/>
<path d="M57.4591 13.9418C56.8748 13.9332 56.2521 13.9631 55.6933 13.929C56.3331 10.116 56.9558 6.29023 57.5742 2.51564H59.3954C59.3954 2.51564 59.4125 2.52843 59.4253 2.52843C58.7599 6.32008 58.1202 10.1416 57.4591 13.9375" fill="#DC0814"/>
<path d="M77.394 8.12847C76.814 8.42703 76.1913 8.19671 75.8714 7.7958C75.7818 7.67638 75.6624 7.48445 75.6112 7.25413C75.3681 6.21772 76.4728 5.44148 77.3471 5.84666C77.9698 6.13242 78.2129 6.98543 77.9869 7.51857C77.8845 7.76594 77.6969 7.97493 77.394 8.12847Z" fill="#DC0814"/>
<path d="M41.1537 4.46478H44.5871V6.6357C44.8302 6.66982 45.2055 6.6357 45.4273 6.64849V9.02414C45.2055 9.02414 44.8728 9.02414 44.6041 9.02414C44.57 10.6235 44.5999 12.2827 44.5871 13.9076C43.4739 13.8735 42.22 13.9034 41.1281 13.8949C41.1196 12.2869 41.1452 10.6363 41.1153 9.05399C40.9021 8.99855 40.4628 9.01987 40.2751 9.0412C40.241 8.26922 40.2708 7.43327 40.2623 6.6357C40.5139 6.66129 40.8594 6.65702 41.1153 6.6357C41.1494 5.95329 41.1196 5.20263 41.1281 4.49463C41.1196 4.47331 41.158 4.43066 41.158 4.46478" fill="#009FDC"/>
<path d="M79.3474 5.00644C78.9167 5.23249 78.4475 5.18557 78.1532 5.01923C78.0381 4.95099 77.7566 4.70788 77.667 4.52875C77.2746 3.74398 77.6073 2.972 78.294 2.70757C78.7589 2.52843 79.3261 2.69904 79.6161 2.99333C79.7612 3.14687 79.9232 3.43263 79.9787 3.72692C80.0682 4.23446 79.8337 4.74627 79.3474 5.00217" fill="#DC0814"/>
<path d="M37.8653 5.85092C37.8184 5.82107 37.4004 5.93196 37.3365 5.86372C37.3578 5.88504 37.5412 5.85092 37.5924 5.85092H37.8653Z" fill="white"/>
<path d="M72.438 7.12192C72.0968 7.50577 71.73 7.87683 71.3717 8.24363C71.1201 8.00905 70.8599 7.67637 70.5017 7.55695C69.9856 7.38635 69.5932 7.84698 69.4909 8.22657C69.3501 8.74691 69.8022 9.07105 70.1306 9.21607C70.3311 9.30563 70.5657 9.33122 70.7832 9.43359C71.0007 9.53168 71.2225 9.71081 71.3675 9.87289C71.6234 10.1629 71.7513 10.5382 71.8537 10.9349C71.939 12.0609 71.6277 12.8968 71.0689 13.4428C70.668 13.7541 70.1391 14.0271 69.5292 14.1124C69.2307 14.155 68.8895 14.1763 68.5909 14.1124C67.7507 13.9247 67.0981 13.3532 66.5394 12.9011C66.8593 12.5769 67.1664 12.2443 67.5204 11.9542C67.7422 12.1035 67.9469 12.24 68.1772 12.3637C68.4203 12.4916 68.6805 12.6239 68.9321 12.6708C69.6103 12.7902 70.0496 12.4149 70.1434 11.8817C70.1989 11.5576 70.024 11.2462 69.8321 11.0799C69.5591 10.8453 69.2094 10.7686 68.8767 10.6278C68.5568 10.4913 68.254 10.3165 68.0365 10.0606C67.7251 9.69802 67.5545 9.14783 67.6398 8.46968C67.7166 7.84698 68.0493 7.33517 68.463 6.96837C68.8895 6.59305 69.5036 6.34567 70.1434 6.29876C71.1756 6.22199 71.8324 6.64849 72.4338 7.11339" fill="#DC0814"/>
<path d="M50.0805 8.59337C49.6497 8.97722 49.2573 9.65537 49.2701 10.4316C49.2787 11.0458 49.5175 11.5661 49.8502 11.9031C50.1573 12.2101 50.6136 12.4319 51.1596 12.385C52.1619 12.2997 52.968 11.3614 53.0533 10.3591C53.113 9.6639 52.9381 9.2118 52.6694 8.84074C52.3538 8.40997 51.9273 8.11994 51.2747 8.12847C50.7842 8.12847 50.3535 8.35026 50.0762 8.59337M49.2531 13.157C49.1763 13.2551 49.2019 13.3916 49.1806 13.5067C48.9161 14.9057 48.6901 16.3515 48.4555 17.7462C47.7432 17.7547 47.0566 17.7377 46.3784 17.7206C46.9883 14.0569 47.6196 10.3122 48.2551 6.62717H50.3364C50.3364 6.73379 50.2682 6.77218 50.2895 6.9044C50.5198 6.86601 50.6904 6.75938 50.8909 6.69967C51.5221 6.51628 52.2685 6.5504 52.8827 6.81483C53.7314 7.18163 54.3456 7.93228 54.6057 8.88339C54.6655 9.09238 54.6868 9.2971 54.7209 9.52742C54.7422 9.67243 54.7849 10.035 54.7635 10.2695C54.7635 10.3122 54.7294 10.3591 54.7209 10.4018C54.6953 10.534 54.7081 10.6705 54.6782 10.8069C54.465 11.8561 53.8124 12.7902 53.0405 13.3447C52.5287 13.7115 51.7695 14.0143 50.8653 13.9119C50.3705 13.8565 50.0293 13.6517 49.6241 13.447C49.5218 13.3276 49.3938 13.238 49.2531 13.157Z" fill="#DC0814"/>
<path d="M61.9971 6.6229C61.8393 7.51004 61.7242 8.52939 61.5706 9.51036C61.5493 9.64684 61.5066 9.77479 61.4853 9.90274C61.4384 10.2226 61.4213 10.5382 61.3702 10.8368C61.3531 10.9349 61.3104 11.1439 61.3275 11.3017C61.3915 11.8135 61.7497 12.159 62.2104 12.2187C62.8843 12.3082 63.4003 12.0779 63.6904 11.6386C63.9505 11.0628 63.9591 10.2226 64.1297 9.55301C64.2576 8.65734 64.4112 7.77874 64.5775 6.91719C64.5604 6.78924 64.6031 6.72526 64.6159 6.62717H66.339C66.1087 8.03891 65.8997 9.65537 65.6651 11.0586C65.584 11.5704 65.3708 12.0523 65.1405 12.4405C64.9016 12.8499 64.5818 13.1741 64.2405 13.447C63.8524 13.6475 63.4771 13.8607 62.9738 13.9119C61.1569 14.1081 59.7068 13.3191 59.4295 11.7964C59.3784 11.4766 59.3741 11.1268 59.4295 10.8197C59.4978 10.4316 59.5618 10.035 59.63 9.63831C59.6684 9.40799 59.7025 9.16915 59.7452 8.93884C59.8859 8.17112 60.0096 7.429 60.1418 6.66555C60.1418 6.63996 60.1546 6.62717 60.1717 6.6229H61.9971Z" fill="#DC0814"/>
<path d="M35.9972 6.63996C37.0422 6.67408 38.1511 6.63996 39.2174 6.65276V13.9076C38.1724 13.8821 37.0294 13.8821 35.9844 13.9076V6.68261C35.9844 6.68261 35.9844 6.64423 35.9972 6.63996Z" fill="#009FDC"/>
<path d="M3.34808 2.87817C3.36514 4.91261 3.3097 7.14324 3.37794 9.17342C3.56987 9.08385 3.65943 8.74691 3.8343 8.5891C4.23948 7.92375 4.69158 7.30958 5.10103 6.65276C6.33364 6.63996 7.57477 6.69541 8.79032 6.65276C8.81164 6.721 8.70502 6.78498 8.64531 6.85748C7.77523 7.90242 6.89663 9.0284 6.03935 10.0947C6.97766 11.3657 7.92877 12.6793 8.85856 13.9119C7.65581 13.8863 6.15877 13.8863 4.95602 13.9119C4.70011 13.4556 4.44421 12.9907 4.1883 12.5258C3.9324 12.0609 3.68929 11.5917 3.40779 11.1567C3.33529 11.2292 3.35235 11.3657 3.35235 11.4638C3.32676 12.2357 3.36941 13.157 3.35235 13.8991H0V2.89096C1.0748 2.85684 2.29461 2.8867 3.34808 2.87817Z" fill="#009FDC"/>
<path d="M21.2443 9.32269C20.8519 9.32269 20.3273 9.34402 19.9776 9.29284C19.9691 8.76397 20.1866 8.32467 20.6344 8.24363C21.1846 8.14553 21.5557 8.64028 21.6026 9.23313C21.56 9.36534 21.3723 9.32269 21.2443 9.32269ZM24.9038 10.6918C24.9891 10.3037 24.9038 9.91554 24.8782 9.52742C24.8185 9.42505 24.8099 9.35681 24.7929 9.20754C24.6905 9.01561 24.6351 8.81088 24.537 8.62322C24.0422 7.71476 23.1252 7.07927 22.0163 6.80204C21.5344 6.68261 20.9372 6.64423 20.451 6.67408C19.0819 6.74659 18.0157 7.33517 17.3461 8.15833C17.2352 8.29908 17.1371 8.45688 17.0475 8.62322C17.0049 8.70426 16.9409 8.78529 16.9068 8.8706C16.8854 8.92178 16.894 8.98575 16.8769 9.03267C16.8556 9.07958 16.8087 9.10517 16.7916 9.14783C16.7575 9.24592 16.7788 9.36961 16.7063 9.45491C16.7148 9.59139 16.6551 9.65537 16.6764 9.80465C16.6082 10.035 16.6082 10.5212 16.6764 10.7515C16.6594 11.0245 16.766 11.1737 16.7916 11.4083C17.0006 11.8732 17.2437 12.304 17.5892 12.6324C17.9218 12.9736 18.3611 13.2124 18.7834 13.4641C19.2653 13.6219 19.8369 13.8437 20.4638 13.8863C21.5088 13.9631 22.4258 13.784 23.1252 13.4342C23.2916 13.3063 23.475 13.221 23.637 13.0973C24.1318 12.722 24.5156 12.2528 24.763 11.6258C23.6754 11.5405 22.5324 11.5064 21.4619 11.4083C21.3851 11.6855 21.2187 11.9841 20.9074 12.0353C20.7069 12.0694 20.5065 11.9926 20.3913 11.9031C20.1013 11.6727 19.9733 11.178 19.9776 10.6918C21.5855 10.6662 23.2958 10.6662 24.9038 10.6918Z" fill="#009FDC"/>
<path d="M29.992 9.0284C29.3437 8.96869 28.8916 9.71082 28.9769 10.4871C29.0238 10.8922 29.365 11.3699 29.7446 11.451C30.0176 11.5064 30.2436 11.4168 30.3844 11.3187C30.6275 11.1481 30.7554 10.8283 30.8535 10.5468C30.8877 10.3293 30.8749 10.1714 30.8535 9.94966C30.6829 9.48477 30.4782 9.07958 29.9877 9.03267M31.0967 2.75022H34.3168C34.2827 6.44377 34.3125 10.197 34.2997 13.9119C33.2718 13.8949 32.1032 13.8693 31.0967 13.929C31.054 13.5579 31.1094 13.0888 31.0668 12.7177C30.9261 12.8115 30.8408 12.9608 30.7256 13.0802C30.3801 13.4342 29.9408 13.6987 29.3864 13.8522C28.5291 13.9887 27.8126 13.7968 27.2922 13.4428C26.516 12.9096 26.0425 11.9926 25.8677 10.8794C25.8122 10.3463 25.8378 9.86436 25.8975 9.34828C25.9914 9.05399 26.0425 8.75117 26.1534 8.48674C26.4818 7.70197 27.0576 7.10486 27.8637 6.79351C28.4182 6.58025 29.203 6.60158 29.7574 6.81057C30.3076 7.01955 30.7213 7.37356 31.054 7.77021C31.1222 6.16227 31.0668 4.43492 31.0839 2.77154C31.0796 2.74169 31.0967 2.72036 31.1009 2.74169" fill="#009FDC"/>
<path d="M15.9045 6.63996V9.61272C15.8618 9.62125 15.7893 9.55727 15.7211 9.51036C15.5419 9.39093 15.2775 9.23739 15.0216 9.19048C14.4543 9.08385 13.9639 9.2971 13.6824 9.59992C13.6269 9.73214 13.5672 9.85583 13.5118 9.99231V13.9119C12.4583 13.8778 11.2683 13.9076 10.2362 13.8991V6.65276H13.5118C13.5331 6.90866 13.4691 7.20295 13.5373 7.38209C13.6013 7.33943 13.6312 7.27546 13.6781 7.22001C13.9255 6.95558 14.369 6.69541 14.7742 6.59305C15.1325 6.50348 15.5206 6.51628 15.9002 6.6357" fill="#009FDC"/>
<path d="M37.3109 2.66491C37.9677 2.57961 38.5435 2.86537 38.8335 3.21937C38.9487 3.35586 39.1918 3.79942 39.2216 4.07239C39.3496 5.25381 38.5605 6.07697 37.5582 6.08977C36.8801 6.0983 36.2361 5.61208 36.01 5.10027C35.8991 4.83584 35.8224 4.39653 35.8991 3.99562C36.0228 3.30468 36.5645 2.76301 37.3109 2.66918" fill="#009FDC"/>
<path d="M10.5305 22.5785L10.475 22.5444C10.2916 22.361 10.0357 22.28 9.69451 22.3013C9.40875 22.3184 9.1827 22.4335 9.0121 22.5359C9.0121 22.5359 9.0121 22.5316 9.0121 22.5274C9.0121 22.4378 9.0249 22.3397 9.03343 22.2459C9.04196 22.152 9.05475 22.0539 9.05475 21.9601C9.05475 21.8663 9.04622 21.7767 9.0121 21.6999C9.00357 21.6786 8.98651 21.6701 8.96518 21.6701C8.87135 21.6701 8.69222 21.7341 8.64957 21.7724L8.62398 21.8236C8.62398 21.926 8.59839 22.2117 8.57706 22.2459L8.56427 22.28C8.52588 22.6852 8.52588 23.0434 8.56427 23.3505C8.56427 23.3804 8.62824 23.4273 8.67516 23.4443C8.72634 23.4614 8.87988 23.4188 8.97371 23.3846L9.00784 23.3804C9.03769 23.3804 9.05475 23.3548 9.05049 23.3207V23.2311C9.11446 22.9667 9.3789 22.651 9.69025 22.6041C9.86511 22.5743 10.0059 22.6212 10.1168 22.7406C10.1338 22.7619 10.1637 22.9539 10.0485 23.1714C9.96321 23.3335 9.78834 23.4699 9.56229 23.5552C9.34478 23.6363 9.1102 23.6704 8.81591 23.6576C8.80311 23.6491 8.54294 23.4742 8.54294 23.4742C8.31263 23.3121 8.0226 23.1074 7.76243 23.0093C7.71552 22.9923 7.63448 22.924 7.5833 22.8814L7.55771 22.86C7.40843 22.7406 7.11841 22.5487 6.88809 22.3951C6.88809 22.3951 6.78573 22.3269 6.76441 22.3141C6.76441 22.3056 6.76441 22.2885 6.76441 22.2885C6.77294 22.28 6.91795 22.1947 6.91795 22.1947C7.12267 22.0753 7.2165 22.0156 7.23356 21.9857C7.23356 21.99 7.25915 21.9686 7.25915 21.9686L7.76243 21.6829C8.24439 21.4184 8.79458 21.1156 9.08034 20.8171L9.09314 20.7701L9.10167 20.7275C9.11873 20.6635 9.12299 20.6166 9.10167 20.5612C9.10167 20.5441 9.08461 20.527 9.06328 20.5228C8.83723 20.5015 8.55147 20.6337 8.28704 20.881C8.22733 20.9365 8.17615 20.9663 8.12496 20.9919L8.08658 21.0133C7.79655 21.1796 7.144 21.5848 6.79853 21.8023C6.81985 21.4355 6.88809 20.9109 6.97339 20.4716L6.96486 20.4204L6.93074 20.3564L6.90515 20.3095H6.89662C6.82838 20.2711 6.77294 20.2882 6.73029 20.2967L6.66204 20.3223L6.57248 20.3564C6.57248 20.3564 6.54262 20.3735 6.53409 20.3906C6.37202 20.7872 6.23554 21.4355 6.20142 21.9558C5.87301 21.7469 5.57445 21.5976 5.42517 21.5251H5.42091L5.40385 21.5208C5.35267 21.5123 5.28443 21.4739 5.22471 21.4355C5.22045 21.4355 5.10103 21.3545 5.10103 21.3545L4.9091 21.2308L4.85792 21.218C4.77688 21.2308 4.61907 21.3374 4.57216 21.4099C4.56789 21.4184 4.56363 21.4312 4.56363 21.4398C4.56363 21.4526 4.56789 21.4696 4.57216 21.4824L4.58069 21.5208L4.58922 21.5421C4.67879 21.636 4.9091 21.7895 5.13515 21.9132L5.39532 22.0539L5.79623 22.2715L5.86448 22.3269L5.91139 22.3525C5.91139 22.3525 5.91566 22.3525 5.91992 22.3568C5.81329 22.4293 5.19486 22.843 5.19486 22.843L4.811 23.0946C4.77688 23.1202 4.62334 23.1884 4.58922 23.2012C4.50818 23.2354 4.44421 23.2865 4.41862 23.342L4.41009 23.3633L4.41862 23.3761L4.44847 23.3974L4.48686 23.423L4.52951 23.4529L4.56789 23.4571C4.63613 23.4571 4.73423 23.423 4.92189 23.342C5.0925 23.2652 5.55739 22.988 5.75358 22.8686L5.83888 22.8174C5.87301 22.8174 5.91139 22.7918 5.94551 22.7662C5.9839 22.7321 6.07346 22.6809 6.12464 22.6596C6.12464 22.6596 6.15877 22.6425 6.18436 22.6255C6.18436 22.634 6.18436 22.6468 6.18436 22.6468C6.19289 23.2524 6.22701 23.696 6.29525 24.0372V24.0457L6.30378 24.0585C6.3379 24.1054 6.37202 24.2504 6.40614 24.3784L6.48291 24.63L6.50424 24.6556C6.54689 24.6855 6.6791 24.7367 6.76867 24.7239H6.79L6.80279 24.6898C6.81132 24.6514 6.81132 24.613 6.81132 24.5746C6.81132 24.5277 6.81132 24.4765 6.80279 24.4168V24.3272C6.76867 23.905 6.74308 23.2908 6.74308 22.8856V22.8515C6.81559 22.8984 7.1312 23.0946 7.1312 23.0946C7.6686 23.4444 8.4747 23.969 8.96518 24.1054C8.99077 24.114 9.01637 24.1054 9.03769 24.0884L9.11446 24.0415H9.12726C9.15711 24.0244 9.17417 23.9732 9.17844 23.922C9.59215 23.9007 10.1679 23.7429 10.475 23.3548C10.5944 23.2055 10.6456 23.0221 10.6456 22.8643C10.6456 22.7363 10.6115 22.6255 10.5433 22.5615" fill="#F9B000"/>
<path d="M48.2252 23.9434V23.7258C48.1058 23.8922 47.8669 23.9903 47.6196 23.9903C47.0566 23.9903 46.758 23.6448 46.758 22.9752V21.6786H47.2314V22.9581C47.2314 23.4145 47.4148 23.5808 47.7262 23.5808C48.0375 23.5808 48.2252 23.3718 48.2252 23.0008V21.6786H48.6986V23.9434H48.2252Z" fill="#7A7267"/>
<path d="M37.925 24.0031C37.8397 24.0031 37.7587 23.9945 37.6734 23.986C37.5881 23.969 37.5028 23.9476 37.426 23.922C37.3407 23.9007 37.264 23.8666 37.1957 23.8282C37.1189 23.7941 37.055 23.7557 36.991 23.713L37.2085 23.3718C37.3237 23.4486 37.4388 23.5041 37.5625 23.5382C37.6819 23.5766 37.8014 23.5979 37.9165 23.5979C38.0658 23.5979 38.1767 23.5808 38.2577 23.5339C38.326 23.4913 38.3643 23.4316 38.3643 23.3505C38.3643 23.3079 38.3473 23.2695 38.326 23.2354C38.3004 23.2055 38.262 23.1714 38.2151 23.1373C38.1639 23.1117 38.1084 23.0818 38.0359 23.052C37.9634 23.0264 37.8824 22.9923 37.7971 22.9624C37.6649 22.9155 37.554 22.8686 37.4644 22.8216C37.3706 22.7747 37.2981 22.7236 37.2469 22.6681C37.1872 22.6127 37.1445 22.5529 37.1232 22.4847C37.0976 22.4207 37.0848 22.3397 37.0848 22.2501C37.0848 22.1478 37.1019 22.0582 37.1445 21.9814C37.1829 21.9047 37.2426 21.8407 37.3194 21.7895C37.3876 21.7383 37.4772 21.6999 37.5838 21.6701C37.6819 21.6488 37.7928 21.6317 37.9165 21.6317C38.0701 21.6317 38.2193 21.653 38.3643 21.6999C38.5051 21.7468 38.633 21.8066 38.7439 21.8791L38.5349 22.2245C38.4326 22.1648 38.3345 22.1136 38.2321 22.0795C38.1298 22.0497 38.0189 22.0326 37.9037 22.0326C37.7886 22.0326 37.699 22.0539 37.6478 22.0923C37.5924 22.1307 37.5668 22.1819 37.5668 22.2416C37.5668 22.2715 37.5668 22.3013 37.5881 22.3226C37.6009 22.3482 37.6222 22.3781 37.6563 22.3994C37.6862 22.425 37.7288 22.4549 37.7928 22.4804C37.8483 22.5103 37.925 22.5402 38.0146 22.5743C38.1511 22.6255 38.2705 22.6724 38.3729 22.715C38.4752 22.7619 38.5605 22.8131 38.633 22.8686C38.697 22.9283 38.7482 22.9923 38.7866 23.0648C38.8164 23.1415 38.8378 23.2311 38.8378 23.3377C38.8378 23.4657 38.8122 23.568 38.7653 23.6533C38.7098 23.7429 38.6458 23.8111 38.5648 23.8666C38.4795 23.9178 38.3814 23.9562 38.2705 23.9775C38.1596 23.9988 38.0445 24.0116 37.9293 24.0116" fill="#7A7267"/>
<path d="M27.0576 21.3673V22.1563H27.9832V22.5999H27.0576V23.9434H26.5757V20.9237H28.6485V21.3673H27.0576Z" fill="#7A7267"/>
<path d="M31.4123 23.9434V22.6638C31.4123 22.2075 31.2289 22.0411 30.9133 22.0411C30.5976 22.0411 30.4185 22.2544 30.4185 22.6212V23.9434H29.9451V21.6786H30.4185V21.8961C30.5379 21.7341 30.7768 21.6317 31.0241 21.6317C31.5871 21.6317 31.8857 21.9772 31.8857 22.6468V23.9434H31.4123Z" fill="#7A7267"/>
<path d="M33.7197 22.9752C33.5917 22.9155 33.4254 22.8771 33.1652 22.8771C32.8624 22.8771 32.6705 23.005 32.6705 23.214C32.6705 23.4358 32.824 23.5894 33.1354 23.5894C33.387 23.5894 33.6088 23.4443 33.7197 23.2993V22.9752ZM33.7197 23.9434V23.7173C33.5533 23.8709 33.3188 23.9903 33.0586 23.9903C32.6662 23.9903 32.2226 23.7856 32.2226 23.2268C32.2226 22.7236 32.6364 22.4932 33.1823 22.4932C33.4083 22.4932 33.5875 22.5231 33.7197 22.5785V22.4122C33.7197 22.1648 33.5576 22.0283 33.2633 22.0283C33.0159 22.0283 32.824 22.071 32.6321 22.1691L32.4487 21.8322C32.679 21.6957 32.9349 21.6274 33.2761 21.6274C33.8135 21.6274 34.1803 21.8748 34.1803 22.3866V23.9391H33.7154L33.7197 23.9434Z" fill="#7A7267"/>
<path d="M36.0996 23.9434V22.6638C36.0996 22.2075 35.9162 22.0411 35.6006 22.0411C35.285 22.0411 35.1058 22.2544 35.1058 22.6212V23.9434H34.6324V21.6786H35.1058V21.8961C35.2252 21.7341 35.4641 21.6317 35.7115 21.6317C36.2745 21.6317 36.573 21.9772 36.573 22.6468V23.9434H36.0996Z" fill="#7A7267"/>
<path d="M29.4461 21.6701H28.9726V23.9434H29.4461V21.6701Z" fill="#7A7267"/>
<path d="M29.4461 20.9237H28.9726V21.3715H29.4461V20.9237Z" fill="#7A7267"/>
<path d="M23.0143 23.5979H23.9655C24.554 23.5979 24.7118 23.3676 24.7118 23.0733C24.7118 22.7278 24.473 22.5359 23.9399 22.5359H23.0143V23.5979ZM23.0143 22.1904H23.9953C24.3578 22.1904 24.6265 22.0539 24.6265 21.7298C24.6265 21.4483 24.4943 21.2606 23.9399 21.2606H23.0143V22.1904ZM22.5324 20.9194H24.0166C24.7246 20.9194 25.0914 21.154 25.0914 21.6658C25.0914 22.0283 24.8355 22.28 24.4986 22.3482V22.361C24.9848 22.4207 25.2151 22.7363 25.2151 23.0989C25.2151 23.551 24.8867 23.9391 24.0635 23.9391H22.5324V20.9194Z" fill="#7A7267"/>
<path d="M19.2696 20.9237H19.7516V22.2757L21.3723 20.9237H22.0547L20.3401 22.2843L22.1997 23.9434H21.5173L19.7516 22.3226V23.9434H19.2696V20.9237Z" fill="#7A7267"/>
<path d="M41.5674 22.9752C41.4395 22.9155 41.2731 22.8771 41.013 22.8771C40.7101 22.8771 40.5182 23.005 40.5182 23.214C40.5182 23.4358 40.6717 23.5894 40.9831 23.5894C41.2347 23.5894 41.4565 23.4443 41.5674 23.2993V22.9752ZM41.5674 23.9434V23.7173C41.4011 23.8709 41.1665 23.9903 40.9063 23.9903C40.5139 23.9903 40.0704 23.7856 40.0704 23.2268C40.0704 22.7236 40.4841 22.4932 41.03 22.4932C41.2561 22.4932 41.4352 22.5231 41.5674 22.5785V22.4122C41.5674 22.1648 41.4053 22.0283 41.111 22.0283C40.8637 22.0283 40.6675 22.071 40.4798 22.1691L40.2964 21.8322C40.5267 21.6957 40.7826 21.6274 41.1238 21.6274C41.6612 21.6274 42.028 21.8748 42.028 22.3866V23.9391H41.5631L41.5674 23.9434Z" fill="#7A7267"/>
<path d="M39.7292 21.6701H39.2557V23.9434H39.7292V21.6701Z" fill="#7A7267"/>
<path d="M39.7292 20.9237H39.2557V21.3715H39.7292V20.9237Z" fill="#7A7267"/>
<path d="M52.4178 21.6701H51.9443V23.9434H52.4178V21.6701Z" fill="#7A7267"/>
<path d="M52.4178 20.9237H51.9443V21.3715H52.4178V20.9237Z" fill="#7A7267"/>
<path d="M51.4283 23.8879C51.3131 23.9476 51.1553 23.9903 50.9676 23.9903C50.635 23.9903 50.4302 23.7983 50.4302 23.3974V22.1051H50.089V21.7042H50.4302V21.0644L50.8909 20.8341V21.7042H51.4794V22.1051H50.8909V23.3207C50.8909 23.5297 50.9634 23.5894 51.134 23.5894C51.2577 23.5894 51.3941 23.5467 51.4794 23.4998L51.424 23.8879H51.4283Z" fill="#7A7267"/>
<path d="M45.841 23.9434V22.3653C45.841 22.1862 45.8453 21.926 45.8495 21.8407C45.8154 21.926 45.7216 22.1392 45.6448 22.3098L44.8728 23.9903L44.1094 22.3098C44.0326 22.1392 43.9431 21.926 43.9047 21.8407C43.9089 21.926 43.9132 22.1862 43.9132 22.3653V23.9434H43.4611V20.9578H43.9516L44.6639 22.5487C44.7406 22.7193 44.8387 22.9368 44.8814 23.0605C44.9283 22.9368 45.0179 22.7236 45.0946 22.5487L45.7941 20.9578H46.3059V23.9434H45.8368H45.841Z" fill="#7A7267"/>
<path d="M49.1891 23.9434V21.0303L49.6625 20.8V23.9434H49.1891Z" fill="#7A7267"/>
<path d="M13.371 22.3312C13.5331 22.3312 13.6653 22.2928 13.7677 22.2075C13.8658 22.1264 13.9169 22.007 13.9212 21.8449C13.9212 21.6871 13.87 21.5635 13.7719 21.4781C13.6696 21.3971 13.5331 21.3545 13.371 21.3545H12.4711V22.3312H13.371ZM13.371 22.7619H12.4711V23.9434H12.0488V20.9237H13.371C13.5118 20.9237 13.644 20.945 13.7762 20.9791C13.8999 21.0175 14.0108 21.073 14.1089 21.1455C14.2027 21.2222 14.2795 21.3161 14.3349 21.427C14.3904 21.5421 14.416 21.6829 14.416 21.8364V21.8577C14.416 22.0156 14.3904 22.152 14.3349 22.2629C14.2752 22.3781 14.1984 22.4762 14.1089 22.5487C14.0108 22.6255 13.8999 22.6809 13.7762 22.715C13.644 22.7534 13.5118 22.7705 13.371 22.7705" fill="#7A7267"/>
<path d="M16.1177 21.3715V23.9434H15.6315V21.3715H14.6847V20.9237H17.0646V21.3715H16.1177Z" fill="#7A7267"/>
<path d="M54.4479 21.3673V22.1563H55.3735V22.5999H54.4479V23.9434H53.966V20.9237H56.0388V21.3673H54.4479Z" fill="#7A7267"/>
<path d="M58.8026 23.9434V22.6638C58.8026 22.2075 58.6192 22.0411 58.3036 22.0411C57.9879 22.0411 57.8088 22.2544 57.8088 22.6212V23.9434H57.3354V21.6786H57.8088V21.8961C57.9282 21.7341 58.1671 21.6317 58.4145 21.6317C58.9774 21.6317 59.276 21.9772 59.276 22.6468V23.9434H58.8026Z" fill="#7A7267"/>
<path d="M56.8364 21.6701H56.363V23.9434H56.8364V21.6701Z" fill="#7A7267"/>
<path d="M56.8364 20.9237H56.363V21.3715H56.8364V20.9237Z" fill="#7A7267"/>
<path d="M61.11 22.9795C60.982 22.9197 60.8157 22.8814 60.5598 22.8814C60.257 22.8814 60.065 23.0093 60.065 23.2183C60.065 23.4443 60.2143 23.5936 60.5299 23.5936C60.7816 23.5936 61.0034 23.4486 61.1142 23.3036V22.9795H61.11ZM61.11 23.9434V23.7173C60.9436 23.8709 60.7091 23.9903 60.4489 23.9903C60.0565 23.9903 59.6129 23.7813 59.6129 23.2268C59.6129 22.7236 60.0267 22.4932 60.5726 22.4932C60.7986 22.4932 60.9778 22.5231 61.11 22.5785V22.4122C61.11 22.1648 60.9479 22.0283 60.6536 22.0283C60.4062 22.0283 60.2101 22.071 60.0224 22.1734L59.839 21.8364C60.0693 21.7042 60.3252 21.6317 60.6664 21.6317C61.2038 21.6317 61.5706 21.8791 61.5706 22.3909V23.9434H61.1057H61.11Z" fill="#7A7267"/>
<path d="M63.4899 23.9434V22.6638C63.4899 22.2075 63.3065 22.0454 62.9951 22.0454C62.6838 22.0454 62.5004 22.2544 62.5004 22.6212V23.9434H62.027V21.6786H62.5004V21.8961C62.6198 21.7341 62.8587 21.6317 63.106 21.6317C63.669 21.6317 63.9676 21.9772 63.9676 22.6468V23.9434H63.4899Z" fill="#7A7267"/>
<path d="M65.9338 22.3312C65.7376 22.1392 65.5627 22.0539 65.3452 22.0539C64.9997 22.0539 64.778 22.344 64.778 22.8046C64.778 23.2652 64.9784 23.568 65.358 23.568C65.5841 23.568 65.7163 23.4742 65.9039 23.2865L66.2067 23.568C66.0191 23.7941 65.7802 23.9903 65.3409 23.9903C64.7524 23.9903 64.296 23.5254 64.296 22.8174C64.296 22.0667 64.7651 21.6317 65.3537 21.6317C65.7077 21.6317 65.985 21.7639 66.211 22.0156L65.9295 22.3312H65.9338Z" fill="#7A7267"/>
<path d="M67.418 22.0326C67.1024 22.0326 66.9062 22.2373 66.8678 22.5999H67.9896C67.9682 22.2885 67.8104 22.0326 67.418 22.0326ZM68.4502 22.9667H66.855C66.9062 23.4017 67.1664 23.5894 67.4607 23.5894C67.6654 23.5894 67.8232 23.5211 67.9853 23.4102L68.2668 23.696C68.0535 23.8879 67.8019 23.9945 67.4351 23.9945C66.8678 23.9945 66.3902 23.568 66.3902 22.8174C66.3902 22.0667 66.8209 21.636 67.4479 21.636C68.1346 21.636 68.463 22.1563 68.463 22.7705C68.463 22.8515 68.4544 22.924 68.4502 22.9709" fill="#7A7267"/>
</g>
<defs>
<clipPath id="clip0_1801_11053">
<rect width="79.9974" height="24.7259" fill="white"/>
</clipPath>
</defs>
</svg>
