<svg width="78" height="60" viewBox="0 0 78 60" fill="none" xmlns="http://www.w3.org/2000/svg">
<g clip-path="url(#clip0_1801_10017)">
<g clip-path="url(#clip1_1801_10017)">
<path d="M56.8399 0C57.1339 0.102496 57.4473 0.114427 57.7456 0.211501C59.7776 0.872033 61.0537 2.80591 60.8428 4.92363C60.6405 6.94915 59.0086 8.63356 56.9695 8.87109C55.8194 8.98316 54.6708 8.64309 53.767 7.92293C52.8632 7.20276 52.2753 6.15907 52.1277 5.01292C51.9802 3.86677 52.2846 2.70819 52.9765 1.78261C53.6684 0.857021 54.6934 0.237127 55.8345 0.0542309C55.8724 0.0488078 55.9039 0.0395886 55.9185 0H56.8399ZM57.6718 3.30809H57.8817C58.2266 3.30809 58.2814 3.23704 58.1746 2.90678C58.0021 2.37586 57.6323 2.04776 57.0992 1.90188C56.95 1.86121 56.8692 1.81457 56.8703 1.63723C56.8703 1.21315 56.8622 1.21315 56.4365 1.21315C56.3823 1.21613 56.328 1.21613 56.2738 1.21315C56.0568 1.18928 55.9646 1.29178 55.9956 1.49677C56.033 1.74678 55.9505 1.88181 55.6864 1.90405C55.5889 1.92166 55.4952 1.95596 55.4093 2.00546C54.8269 2.27661 54.5362 2.76795 54.5611 3.44095C54.5834 4.05864 54.9624 4.39325 55.4945 4.60095C55.6192 4.64976 55.7515 4.68013 55.8795 4.72243C56.2624 4.84824 56.6604 4.92363 57.0346 5.0809C57.2732 5.18176 57.4202 5.33741 57.4354 5.6026C57.4475 5.72976 57.4201 5.85757 57.3569 5.9686C57.2938 6.07962 57.1979 6.16846 57.0823 6.223C56.706 6.41714 56.3063 6.45456 55.9147 6.26367C55.7081 6.16334 55.5129 6.00607 55.4841 5.7718C55.4424 5.42852 55.2488 5.38242 54.9684 5.41658C54.8601 5.42421 54.7513 5.42421 54.643 5.41658C54.4803 5.41333 54.444 5.50498 54.4597 5.6449C54.5416 6.35532 55.0346 6.92963 55.7369 7.0831C55.9386 7.12757 56.0048 7.19156 55.9972 7.39601C55.9847 7.74851 55.9972 7.74906 56.3594 7.74906C56.4136 7.74523 56.468 7.74523 56.5221 7.74906C56.7933 7.79027 56.9121 7.68018 56.8768 7.40523C56.853 7.22139 56.8947 7.12594 57.1198 7.08581C57.8069 6.96325 58.3671 6.36996 58.4154 5.77342C58.4783 4.96809 58.1442 4.44043 57.3719 4.14162C57.2287 4.08875 57.0828 4.04332 56.9348 4.0055C56.5888 3.91113 56.2336 3.8428 55.8974 3.72241C55.5357 3.59226 55.4294 3.22132 55.6344 2.90461C55.86 2.55753 56.2217 2.60959 56.5606 2.60525C56.8388 2.60146 57.0856 2.71372 57.1572 2.97782C57.2494 3.30321 57.4408 3.35418 57.6718 3.30809V3.30809Z" fill="#FE9A02"/>
<path d="M77.8099 54.2793C77.7166 54.3317 77.6064 54.3455 77.503 54.3178C76.3479 53.9924 75.4894 54.6432 75.4747 55.8726C75.4601 57.0657 75.4715 58.2533 75.4715 59.4437C75.4715 59.9155 75.4124 59.9757 74.9465 59.9757C74.5403 59.9757 74.1331 59.979 73.7285 59.9757C73.4362 59.9725 73.3586 59.8944 73.3586 59.6048C73.3586 57.305 73.3615 55.0054 73.3673 52.706C73.3673 52.4349 73.4682 52.3416 73.7502 52.3394C74.1651 52.3356 74.5799 52.3394 74.9975 52.3394C75.3901 52.3394 75.4688 52.4186 75.4742 52.8134C75.4742 52.8747 75.4742 52.9354 75.4742 53.0618C75.8695 52.5965 76.3229 52.3438 76.8744 52.3026C77.1998 52.2765 77.5404 52.2364 77.8126 52.4962L77.8099 54.2793Z" fill="#5EC421"/>
<path d="M33.5439 3.52127C35.4929 3.51097 37.442 3.53212 39.3905 3.59828C41.4334 3.6677 43.4578 3.85154 45.4166 4.49201C50.0805 6.01698 53.2991 9.04741 54.9754 13.6787C55.4173 14.9 55.5985 16.1734 55.695 17.4646C55.8577 19.6181 55.682 21.7402 54.99 23.7917C53.6142 27.852 51.0078 30.749 46.883 32.1314C45.4231 32.6194 43.8954 32.8808 42.4008 33.2528C41.0993 33.5782 39.7847 33.8586 38.4865 34.1981C36.8595 34.6233 35.7272 35.6363 35.1133 37.2085C34.9398 37.6531 34.7922 38.1076 34.6323 38.5572C33.8069 40.8728 31.6566 42.3533 29.1967 42.2991C27.0416 42.2525 25.1565 40.4949 24.9168 38.3592C24.6961 36.3972 24.4287 34.4405 24.1836 32.4806C23.9403 30.5308 23.6988 28.5798 23.4591 26.6275C23.2194 24.6751 22.9739 22.7257 22.7226 20.7792C22.4959 18.9628 22.2714 17.1464 22.0491 15.3301C21.9167 14.2292 21.728 13.1343 21.6646 12.0258C21.5491 10.016 22.1158 8.20466 23.3615 6.63033C25.0339 4.51533 27.2569 3.52236 29.9391 3.52127C31.1412 3.52055 32.3428 3.52055 33.5439 3.52127ZM27.9038 21.8649C28.0313 21.7277 28.1208 21.6322 28.2102 21.5346C29.335 20.2891 30.4594 19.0433 31.5834 17.797C33.3976 15.7883 35.2122 13.78 37.0271 11.772C37.7956 10.9249 38.9187 10.6922 39.9106 11.1684C41.0554 11.7188 42.1953 12.2812 43.3363 12.8403C43.729 13.0323 43.7382 13.1489 43.3949 13.4369C39.466 16.7142 35.5368 19.9918 31.6073 23.2695C31.4684 23.3855 31.3638 23.513 31.4039 23.7066C31.4457 23.9132 31.5986 24.0005 31.7868 24.0396C32.0775 24.1003 32.3698 24.1551 32.661 24.2142C35.5761 24.8042 38.491 25.3948 41.4057 25.9859C41.8005 26.0662 41.8721 26.2657 41.6177 26.5667C41.3097 26.9322 41.0093 27.3064 40.6806 27.6513C39.6221 28.7652 38.3243 29.2154 36.8232 28.8726C35.392 28.5472 33.9804 28.1324 32.5601 27.756C31.1241 27.3764 29.6886 26.9935 28.2303 26.6063C28.2845 27.3162 28.3388 28.0076 28.3838 28.6996C28.5541 31.1644 28.7184 33.6298 28.8925 36.0946C28.9722 37.2258 29.9098 38.0154 30.9907 37.85C31.9397 37.7047 32.5802 37.1651 32.8849 36.248C32.9896 35.9324 33.0802 35.6108 33.1653 35.2892C33.7413 33.1108 35.0466 31.5825 37.192 30.8331C39.1309 30.1555 41.0769 29.4986 43.0299 28.8623C44.7111 28.3151 46.2442 27.5163 47.4899 26.2484C50.1586 23.5325 51.145 20.277 50.4118 16.5486C49.6716 12.785 47.4167 10.2145 43.9432 8.67159C42.2154 7.90368 40.3721 7.70085 38.5109 7.58697C36.6497 7.47308 34.795 7.4579 32.9359 7.46549C32.6025 7.46329 32.2696 7.49326 31.9419 7.55497C28.9548 8.15151 27.0611 10.7302 27.3279 13.7747C27.4993 15.7238 27.6077 17.6793 27.7449 19.6317C27.7943 20.3551 27.8474 21.0807 27.9038 21.8649Z" fill="#5EC421"/>
<path d="M2.76573 55.512V59.5348C2.76573 59.9226 2.71584 59.9741 2.33188 59.9752C1.92551 59.9752 1.51932 59.9752 1.11331 59.9752C0.73641 59.9752 0.644759 59.8987 0.617644 59.5267C0.53467 58.403 0.459832 57.2783 0.381197 56.1546C0.261527 54.4637 0.142039 52.774 0.0227305 51.0856C0.0151382 50.9772 0.00429201 50.8687 0.000495845 50.7602C-0.0179427 50.1854 0.30907 49.8426 0.883918 49.8383C1.36223 49.8351 1.84055 49.8383 2.31941 49.8383C2.70228 49.8383 2.76302 49.898 2.76302 50.2722V54.3726C3.18222 53.7549 3.55533 53.2066 3.92682 52.6572C4.50275 51.8058 5.08085 50.956 5.65027 50.0997C5.77229 49.9159 5.91384 49.8285 6.13835 49.8351C6.70669 49.8475 7.2772 49.8389 7.84446 49.8394C7.97786 49.8394 8.12158 49.8161 8.19858 49.9712C8.27559 50.1263 8.16496 50.2282 8.09012 50.3361C7.09661 51.7939 6.10256 53.2549 5.09766 54.7088C4.98378 54.8715 4.99625 54.9756 5.10851 55.1269C6.17903 56.568 7.24557 58.0118 8.30813 59.4583C8.39273 59.5728 8.51421 59.6807 8.441 59.8428C8.36778 60.005 8.2013 59.9741 8.06138 59.9746C7.45671 59.9746 6.85149 59.9703 6.24681 59.9784C6.15768 59.9846 6.06857 59.9661 5.9892 59.9251C5.90983 59.8841 5.84324 59.822 5.7967 59.7458C4.85272 58.4149 3.9035 57.087 2.94903 55.762C2.90077 55.6953 2.85304 55.6345 2.76573 55.512Z" fill="#5EC421"/>
<path d="M42.5934 49.8382C43.4215 49.8501 44.2583 49.7704 45.069 50.0069C46.3293 50.374 47.2252 51.1311 47.5219 52.4522C47.9655 54.4224 46.8033 56.1583 44.8158 56.5542C44.1807 56.6811 43.5402 56.6594 42.9003 56.6507C42.6932 56.6475 42.6449 56.7098 42.6476 56.9094C42.6579 57.7847 42.653 58.6605 42.6514 59.5358C42.6514 59.8807 42.5608 59.974 42.223 59.9762C41.7626 59.9794 41.3011 59.9805 40.8417 59.9762C40.5402 59.9735 40.442 59.8742 40.4247 59.5705C40.2761 56.987 40.1277 54.4036 39.9795 51.8204C39.9648 51.559 39.9377 51.2981 39.9361 51.0373C39.9317 50.3599 40.4241 49.8545 41.1037 49.8409C41.5999 49.829 42.0966 49.8382 42.5934 49.8382ZM42.7436 53.2933C42.7436 53.6903 42.7463 54.0878 42.7436 54.4864C42.7436 54.6458 42.7978 54.7635 42.9654 54.7651C43.3884 54.77 43.8147 54.8058 44.2311 54.6919C44.8749 54.5162 45.2377 53.9902 45.2225 53.2597C45.2084 52.5698 44.8233 52.0959 44.1601 51.9483C43.7398 51.8545 43.3141 51.9158 42.8916 51.9001C42.7441 51.8941 42.7447 51.9999 42.7452 52.1034L42.7436 53.2933Z" fill="#5EC421"/>
<path d="M26.6045 53.0135V50.0047C26.6045 49.5367 26.7129 49.4288 27.1733 49.4277C27.5074 49.4277 27.8415 49.4245 28.1755 49.4277C28.5508 49.4326 28.6636 49.5459 28.6636 49.9115C28.6636 53.1248 28.6636 56.338 28.6636 59.551C28.6636 59.8959 28.5806 59.9875 28.239 59.9946C27.8594 60.0022 27.4798 59.9989 27.1001 59.9946C26.6907 59.9908 26.605 59.9029 26.6034 59.5011C26.6034 59.4024 26.6034 59.3032 26.6034 59.1925C26.5714 59.1996 26.5405 59.1963 26.528 59.2104C25.5003 60.3552 23.5274 60.2093 22.445 58.8308C21.6776 57.8546 21.4808 56.7158 21.5919 55.5108C21.6782 54.5683 21.9661 53.7016 22.6831 53.046C23.5171 52.283 24.4835 51.9728 25.6017 52.3264C25.9819 52.45 26.2791 52.6978 26.6045 53.0135ZM26.5584 55.8937H26.5502C26.5502 55.5873 26.5535 55.2803 26.5502 54.9717C26.547 54.7488 26.5003 54.5346 26.3143 54.3909C25.579 53.8231 24.2536 53.892 23.8349 54.9712C23.5236 55.7418 23.5259 56.6036 23.8414 57.3725C23.9602 57.6692 24.1777 57.9157 24.4572 58.0705C24.7368 58.2252 25.0612 58.2787 25.3756 58.2218C25.6888 58.1652 25.9745 58.0064 26.1879 57.7702C26.4013 57.534 26.5305 57.2338 26.5551 56.9165C26.5784 56.5786 26.5584 56.2375 26.5584 55.8937V55.8937Z" fill="#5EC421"/>
<path d="M18.4711 56.771C17.8035 56.771 17.1354 56.7819 16.4683 56.7651C16.2367 56.7591 16.2221 56.8469 16.2514 57.0313C16.3555 57.6447 16.8978 58.1159 17.5887 58.1745C18.2167 58.2287 18.8138 58.1252 19.3436 57.7656C19.5524 57.6241 19.6972 57.6463 19.842 57.8513C20.0291 58.1165 20.2287 58.373 20.4326 58.6252C20.5866 58.8155 20.5557 58.9701 20.3702 59.1078C19.4646 59.783 18.4618 60.0883 17.3252 59.9473C16.4325 59.8389 15.6115 59.5867 14.9959 58.8887C14.2568 58.0514 14.0073 57.0449 14.0393 55.9559C14.0719 54.8388 14.4113 53.8545 15.2866 53.1001C16.5231 52.035 18.6175 51.9998 19.8718 53.0264C20.5893 53.6137 20.848 54.4098 20.9055 55.2921C20.9265 55.6704 20.9158 56.0497 20.8735 56.4261C20.8458 56.6973 20.726 56.7781 20.4722 56.7743C19.8068 56.7645 19.1392 56.771 18.4711 56.771ZM17.567 54.0182C16.9916 54.0248 16.4884 54.4852 16.304 55.1755C16.2297 55.4543 16.2715 55.515 16.5643 55.515C17.259 55.515 17.9542 55.4998 18.6489 55.5053C18.8724 55.5053 18.9299 55.4185 18.9103 55.2119C18.8789 54.8799 18.7228 54.5722 18.4736 54.3507C18.2243 54.1293 17.9004 54.0105 17.567 54.0182V54.0182Z" fill="#5EC421"/>
<path d="M54.2151 53.1072C55.1153 52.2292 56.1272 52.0876 57.1978 52.4564C58.2178 52.8105 58.643 53.6614 58.6685 54.6799C58.7097 56.322 58.6831 57.9658 58.6837 59.609C58.6837 59.8546 58.5459 59.9718 58.31 59.9745C57.9033 59.9788 57.4966 59.9783 57.0909 59.9745C56.7574 59.9718 56.65 59.859 56.65 59.5065C56.65 58.1612 56.65 56.8159 56.65 55.4706C56.65 55.3356 56.6452 55.1994 56.6327 55.0655C56.5508 54.2005 55.6706 53.7791 54.9331 54.2558C54.4797 54.5487 54.2725 54.9966 54.2443 55.5129C54.182 56.6583 54.2308 57.8052 54.2194 58.9512C54.2167 59.1681 54.2248 59.385 54.2161 59.6019C54.2069 59.8351 54.0844 59.9723 53.8419 59.974C53.4081 59.9772 52.9743 59.9794 52.5404 59.974C52.3002 59.9707 52.1814 59.8384 52.1814 59.5943C52.1814 57.2924 52.1814 54.9903 52.1814 52.688C52.1814 52.3984 52.3012 52.2867 52.5995 52.284C52.9791 52.2812 53.3587 52.284 53.7384 52.284C54.118 52.284 54.2113 52.3843 54.2167 52.772C54.2161 52.8659 54.2151 52.9619 54.2151 53.1072Z" fill="#5EC421"/>
<path d="M69.7202 59.4572C68.9685 60.0169 68.1475 60.0819 67.3053 59.8797C66.8578 59.7733 66.4569 59.5246 66.1627 59.1711C65.8684 58.8175 65.6968 58.3781 65.6735 57.9187C65.6101 56.821 66.1187 56.0136 67.1144 55.6296C67.7652 55.3774 68.4496 55.3443 69.1383 55.3584C69.2554 55.3584 69.3731 55.3508 69.4897 55.3584C69.6361 55.3704 69.6697 55.3042 69.6752 55.1692C69.7023 54.4766 69.3845 54.1106 68.6741 54.0656C67.9579 54.0196 67.245 54.1959 66.6328 54.5705C66.532 54.6301 66.4382 54.7538 66.2939 54.6654C66.1496 54.577 66.2088 54.4392 66.2066 54.3205C66.2012 54.0227 66.1974 53.7239 66.212 53.4273C66.2332 52.9934 66.5087 52.6073 66.917 52.4989C67.9349 52.2304 68.9658 52.1594 69.9897 52.4533C71.0347 52.7537 71.6611 53.5645 71.7359 54.6768C71.8091 55.7755 71.7533 56.8769 71.7663 57.9772C71.7723 58.5 71.7706 59.0234 71.7663 59.5467C71.763 59.8894 71.6703 59.9805 71.3297 59.987C70.9691 59.9925 70.6079 59.987 70.2451 59.987C69.8227 59.9963 69.756 59.9328 69.7202 59.4572ZM69.673 57.1893C69.6673 57.114 69.6673 57.0384 69.673 56.9631C69.7191 56.7017 69.5965 56.641 69.3585 56.6584C69.071 56.679 68.7809 56.6584 68.4908 56.6735C68.1269 56.6931 67.7733 56.7603 67.4772 56.9989C66.9967 57.3823 67.0228 58.1193 67.5558 58.3834C68.1231 58.6649 68.712 58.6546 69.2522 58.2912C69.6594 58.0185 69.6866 57.5879 69.673 57.1893Z" fill="#5EC421"/>
<path d="M62.8091 55.865C62.8091 56.3796 62.8091 56.8954 62.8091 57.4084C62.8091 57.9995 63.1345 58.2897 63.7246 58.217C63.8942 58.1949 64.0614 58.157 64.224 58.1036C64.4409 58.0342 64.5602 58.1096 64.5841 58.3271C64.6253 58.7034 64.6524 59.0814 64.6926 59.4578C64.7137 59.6503 64.6465 59.7664 64.4545 59.8179C63.6047 60.0467 62.7538 60.0684 61.9333 59.73C61.0754 59.3759 60.7137 58.6519 60.686 57.7723C60.6529 56.609 60.6686 55.4436 60.6806 54.2798C60.6806 54.0472 60.6122 53.9805 60.3926 54.0049C60.2302 54.0182 60.0669 54.0182 59.9045 54.0049C59.6719 53.9913 59.5385 53.8671 59.5363 53.6252C59.5341 53.336 59.5341 53.0468 59.5363 52.7575C59.5363 52.5168 59.6686 52.3953 59.9045 52.3806C59.9403 52.3779 59.9772 52.3806 60.013 52.3806C60.2256 52.3611 60.5011 52.4772 60.6345 52.3318C60.7679 52.1865 60.6659 51.918 60.6724 51.7033C60.6789 51.4885 60.6762 51.2694 60.6724 51.0525C60.6686 50.7965 60.8026 50.6572 61.0466 50.6512C61.5065 50.6393 61.9686 50.6382 62.4273 50.6512C62.6692 50.6583 62.807 50.802 62.8037 51.0547C62.8037 51.4072 62.8146 51.7597 62.7994 52.1106C62.7907 52.3145 62.8362 52.3964 63.0613 52.385C63.4577 52.3649 63.8558 52.3768 64.2544 52.3801C64.5461 52.3801 64.6855 52.5173 64.692 52.8069C64.6975 53.0596 64.6969 53.3123 64.692 53.5661C64.6861 53.8693 64.5467 54.0027 64.2365 54.0049C63.839 54.0049 63.4415 54.0146 63.0434 54.0016C62.8585 53.9951 62.7939 54.0423 62.7988 54.238C62.8178 54.782 62.8091 55.3238 62.8091 55.865Z" fill="#5EC421"/>
<path d="M34.1442 55.9469C34.1442 55.3693 34.1383 54.7918 34.1486 54.2115C34.1486 54.0417 34.1009 53.9891 33.9349 54.0027C33.7637 54.0122 33.592 54.0122 33.4208 54.0027C33.1567 53.9946 33.0168 53.8639 33.0086 53.6041C33.0005 53.3248 32.9983 53.0444 33.0086 52.7651C33.0179 52.5227 33.1491 52.3855 33.4024 52.379H33.5108C34.1431 52.379 34.1432 52.379 34.1432 51.757C34.1432 51.5314 34.1399 51.3058 34.1432 51.0802C34.1491 50.7987 34.2798 50.6534 34.5515 50.6463C34.994 50.6384 35.4364 50.6384 35.8785 50.6463C36.1497 50.6518 36.2863 50.796 36.2912 51.0764C36.2983 51.4376 36.3037 51.7988 36.2912 52.161C36.2836 52.3459 36.3503 52.3877 36.5212 52.3817C36.8547 52.3698 37.1887 52.3747 37.5228 52.3817C37.8064 52.3855 37.9311 52.5113 37.9366 52.7966C37.9413 53.058 37.9413 53.3198 37.9366 53.5819C37.9317 53.8763 37.8026 54.0016 37.5027 54.0049C37.1687 54.0081 36.8341 54.0157 36.5005 54.0016C36.3265 53.994 36.2923 54.0558 36.2934 54.2185C36.2994 55.3107 36.2934 56.403 36.2983 57.4946C36.2983 57.9583 36.5456 58.1996 37.0217 58.2219C37.2474 58.2246 37.4719 58.1879 37.6849 58.1134C37.9263 58.0375 38.0336 58.0939 38.0646 58.3379C38.1117 58.7316 38.1405 59.1275 38.173 59.5229C38.1844 59.6563 38.1253 59.7631 37.9984 59.794C36.9355 60.0652 35.8834 60.1324 34.9414 59.4448C34.3297 58.9979 34.1708 58.3135 34.1491 57.5982C34.1312 57.051 34.1448 56.4979 34.1442 55.9469Z" fill="#5EC421"/>
<path d="M11.4838 53.0253C12.0554 52.4038 12.7116 52.2005 13.4811 52.316C13.716 52.3518 13.8065 52.4787 13.8065 52.6999C13.8065 53.1598 13.8109 53.6219 13.8065 54.0801C13.8033 54.3236 13.7187 54.3768 13.4811 54.3068C12.4231 53.9988 11.5977 54.5411 11.4936 55.6523C11.4393 56.2076 11.4686 56.77 11.4659 57.3291C11.4621 58.0341 11.4659 58.7391 11.4659 59.4403C11.4659 59.9284 11.4155 59.9756 10.9193 59.9756C10.5315 59.9756 10.1432 59.9756 9.75494 59.9756C9.42956 59.9756 9.34658 59.8953 9.34767 59.5797C9.35309 57.2886 9.36014 54.997 9.36882 52.7048C9.36882 52.4299 9.46426 52.3409 9.74843 52.3382C10.1546 52.335 10.5619 52.3382 10.967 52.3382C11.3878 52.3382 11.4518 52.4006 11.4659 52.8176C11.4654 52.8675 11.4735 52.919 11.4838 53.0253Z" fill="#5EC421"/>
<path d="M32.1313 56.2043C32.1313 57.3139 32.1313 58.4233 32.1313 59.5325C32.1313 59.8736 32.0385 59.9712 31.7045 59.9745C31.3252 59.9781 30.9456 59.9781 30.5656 59.9745C30.2478 59.9717 30.1318 59.866 30.1318 59.5585C30.1296 57.3126 30.1296 55.0669 30.1318 52.8213C30.1318 52.5247 30.244 52.4119 30.539 52.4081C30.9367 52.403 31.3344 52.403 31.7321 52.4081C32.032 52.4113 32.1291 52.5166 32.1297 52.8224C32.1318 53.9501 32.1324 55.0774 32.1313 56.2043Z" fill="#5EC421"/>
<path d="M50.4922 56.1891C50.4922 57.2896 50.4922 58.3898 50.4922 59.4896C50.4922 59.8914 50.4065 59.9744 49.9966 59.9776C49.6267 59.9776 49.2569 59.9809 48.887 59.9776C48.6056 59.9738 48.4971 59.8638 48.4966 59.5812C48.4966 57.3267 48.4966 55.0723 48.4966 52.8181C48.4966 52.5198 48.6012 52.4157 48.9066 52.4114C49.2943 52.406 49.682 52.407 50.0698 52.4114C50.3838 52.4146 50.4911 52.5242 50.4917 52.8376C50.4935 53.9537 50.4937 55.0709 50.4922 56.1891Z" fill="#5EC421"/>
<path d="M32.3472 50.5861C32.3438 50.7443 32.3092 50.9003 32.2453 51.0451C32.1815 51.1899 32.0897 51.3207 31.9751 51.4299C31.8606 51.5391 31.7256 51.6246 31.5779 51.6815C31.4302 51.7383 31.2727 51.7655 31.1145 51.7613C30.4306 51.7363 29.9138 51.194 29.9355 50.534C29.9427 50.2141 30.0767 49.9101 30.308 49.689C30.5393 49.4678 30.849 49.3476 31.169 49.3548C31.4889 49.362 31.7929 49.496 32.0141 49.7273C32.2353 49.9586 32.3555 50.2683 32.3483 50.5883L32.3472 50.5861Z" fill="#5EC421"/>
<path d="M50.6772 50.5535C50.678 50.7908 50.6084 51.023 50.4772 51.2206C50.346 51.4183 50.1591 51.5727 49.9402 51.6642C49.7213 51.7557 49.4802 51.7802 49.2474 51.7346C49.0145 51.6891 48.8004 51.5755 48.6321 51.4083C48.4638 51.241 48.3489 51.0276 48.3019 50.7951C48.2548 50.5625 48.2778 50.3213 48.3679 50.1018C48.458 49.8823 48.6112 49.6945 48.8081 49.562C49.0049 49.4296 49.2366 49.3585 49.4739 49.3577C49.6318 49.3559 49.7884 49.3856 49.9347 49.4449C50.0811 49.5043 50.2141 49.5922 50.3261 49.7035C50.4381 49.8148 50.5268 49.9473 50.5871 50.0932C50.6474 50.2392 50.678 50.3956 50.6772 50.5535V50.5535Z" fill="#5EC421"/>
</g>
</g>
<defs>
<clipPath id="clip0_1801_10017">
<rect width="77.81" height="60" fill="white"/>
</clipPath>
<clipPath id="clip1_1801_10017">
<rect width="77.81" height="60" fill="white"/>
</clipPath>
</defs>
</svg>
