<svg width="80" height="28" viewBox="0 0 80 28" fill="none" xmlns="http://www.w3.org/2000/svg">
<g clip-path="url(#clip0_1801_10078)">
<path d="M14.7029 25.466C12.3807 22.8544 10.8811 21.19 10.4244 20.7171C10.0167 20.2949 9.89159 20.0741 9.88873 19.7718C9.88755 19.6473 9.89563 19.5961 9.92729 19.5275C9.97357 19.4273 9.91816 19.4869 11.5267 17.8064C12.2043 17.0985 12.846 16.4277 12.9528 16.3155C13.4942 15.7471 13.5411 15.7025 13.6705 15.6348C13.9872 15.4689 14.2642 15.4557 14.5426 15.593C14.7014 15.6713 14.5542 15.5162 16.4512 17.6035C17.2155 18.4445 18.5322 19.8915 19.3774 20.8191C21.0214 22.6236 22.3546 24.0945 22.6193 24.3957C22.8761 24.6878 22.9525 24.8879 22.952 25.2667C22.9514 25.6174 22.8535 25.8593 22.6524 26.0066C22.4723 26.1384 22.7819 26.1285 18.8456 26.1285H15.292L14.7029 25.466Z" fill="#48BBE5"/>
<path d="M77.855 23.1093L77.9801 23.0723C78.4192 22.9427 78.6273 22.9045 78.967 22.8914C79.3397 22.877 79.8564 22.9519 79.8566 23.0204C79.8566 23.0508 79.7247 23.7083 79.7169 23.7165C79.7135 23.7201 79.6288 23.7058 79.5288 23.6846C79.279 23.6319 79.0807 23.6208 78.8929 23.6492L78.7353 23.6729L78.7258 26.0544H77.8551L77.855 23.1093ZM54.3594 23.8858C54.7218 23.8514 54.9175 23.7624 55.0137 23.5882C55.0655 23.4944 55.0692 23.4744 55.0693 23.293C55.0693 23.1285 55.0631 23.0868 55.029 23.023C54.9389 22.8548 54.7685 22.7577 54.4966 22.7199C54.337 22.6977 54.0828 22.6941 53.9342 22.712L53.8369 22.7237V23.9046L53.9991 23.9046C54.0883 23.9046 54.2504 23.8961 54.3594 23.8858ZM52.9103 22.0205L53.1188 21.9897C53.571 21.9228 54.2256 21.9018 54.6007 21.9421C54.8829 21.9724 55.1871 22.0549 55.3929 22.1569C55.6953 22.3068 55.8911 22.5412 55.9785 22.8581C56.0255 23.0283 56.0355 23.4361 55.9975 23.6283C55.9221 24.0091 55.7238 24.2675 55.3751 24.4395C55.0501 24.5999 54.7538 24.6595 54.1937 24.6771L53.8369 24.6884V26.0544H52.9103V22.0205ZM45.4397 25.9663C45.366 25.7945 45.1655 25.2427 45.0373 24.859C44.8047 24.1625 44.4595 23.0314 44.4595 22.9656C44.4595 22.9457 44.5473 22.9409 44.9128 22.9409H45.3661L45.3843 23.0104C45.3942 23.0486 45.4494 23.2884 45.5069 23.5432C45.5969 23.9422 45.7946 24.7419 45.8459 24.9146C45.8619 24.9683 45.8639 24.9657 45.9031 24.8405C45.9577 24.6663 46.1978 23.7597 46.308 23.3115L46.3968 22.9502L47.0262 22.9402L47.1796 23.5776C47.3252 24.1824 47.5225 24.9352 47.5399 24.9527C47.5593 24.972 47.7808 24.111 47.9443 23.3811L48.0428 22.9409H48.949L48.937 23.0011C48.9151 23.111 48.6288 24.0504 48.4595 24.5677C48.2839 25.104 48.1691 25.4272 48.015 25.8185L47.9218 26.0552L47.2363 26.0451L47.0557 25.4891C46.9564 25.1833 46.8345 24.7892 46.7847 24.6133C46.735 24.4374 46.6886 24.3039 46.6817 24.3168C46.6747 24.3296 46.635 24.4652 46.5934 24.6181C46.5026 24.9518 46.4038 25.2828 46.2628 25.7254L46.158 26.0544H45.4775L45.4397 25.9663ZM37.2318 23.058L37.3013 23.0375C37.4302 22.9997 37.757 22.9403 38.0002 22.9106C38.3429 22.8688 38.8907 22.8833 39.0819 22.9392C39.2927 23.0008 39.4326 23.0807 39.5682 23.2167C39.7728 23.4221 39.8664 23.6723 39.9018 24.1084C39.9122 24.236 39.9182 24.7232 39.9152 25.1926L39.9098 26.0451L39.0315 26.0551L39.0252 25.0493C39.0197 24.176 39.0148 24.0318 38.9884 23.9538C38.895 23.6787 38.7429 23.6064 38.3181 23.6353L38.1216 23.6487L38.1121 26.0451L37.2318 26.0551V23.058ZM72.1192 26.0794C71.7288 25.9966 71.4565 25.7388 71.36 25.3608C71.3015 25.1317 71.2945 24.9412 71.2945 23.5672V22.1818L71.3362 22.1721C71.3592 22.1668 71.5364 22.1374 71.73 22.1069C71.9237 22.0764 72.1009 22.0471 72.1239 22.0418L72.1656 22.0321V22.9409H73.2219V23.6822H72.1623L72.1701 24.3262C72.1784 25.0164 72.1863 25.0801 72.2813 25.221C72.3623 25.3413 72.4203 25.3596 72.7123 25.3575C72.9156 25.3561 72.9991 25.3475 73.0982 25.318C73.1864 25.2916 73.2266 25.2866 73.2312 25.3013C73.2347 25.3129 73.263 25.4638 73.2941 25.6366C73.3374 25.8782 73.3453 25.9544 73.3279 25.9657C73.2913 25.9897 73.0178 26.0692 72.8988 26.0904C72.7393 26.1188 72.274 26.1123 72.1192 26.0794ZM69.3718 25.4115C69.3794 25.4071 69.3857 25.2549 69.3857 25.0732V24.7428L69.3002 24.7299C69.1459 24.7068 68.8081 24.7171 68.7044 24.7481C68.5932 24.7813 68.4929 24.8607 68.4591 24.9423C68.4259 25.0225 68.4432 25.2087 68.4897 25.2716C68.5432 25.344 68.6608 25.404 68.7863 25.423C68.8872 25.4383 69.3408 25.4294 69.3718 25.4115ZM68.4869 26.0841C68.2769 26.0489 68.1909 26.0227 68.045 25.9493C67.7247 25.7879 67.5701 25.5116 67.57 25.0999C67.57 24.6758 67.7647 24.3927 68.1625 24.2393C68.3896 24.1517 68.6328 24.1204 68.9866 24.133C69.15 24.1389 69.3079 24.1495 69.3374 24.1565L69.3911 24.1694L69.3817 24.0384C69.366 23.8189 69.2569 23.682 69.0521 23.6245C68.8743 23.5746 68.323 23.6112 68.0615 23.6902C68.011 23.7054 67.9683 23.7161 67.9667 23.714C67.965 23.7118 67.9391 23.5557 67.9091 23.3671C67.8687 23.1141 67.8601 23.0208 67.8759 23.0111C67.9187 22.9847 68.2444 22.9211 68.4741 22.8943C69.0105 22.8315 69.4404 22.8827 69.7384 23.0449C69.8703 23.1167 70.0439 23.3052 70.1077 23.4459C70.2216 23.697 70.225 23.7367 70.2332 24.8989L70.2406 25.9581L70.1421 25.9792C69.7469 26.064 69.4785 26.0944 69.0614 26.1015C68.7607 26.1067 68.5914 26.1015 68.4869 26.0841ZM66.4736 26.09C66.0566 26.0458 65.7605 25.8814 65.6346 25.6241C65.5318 25.414 65.5309 25.3951 65.5309 23.4257L65.531 21.6158L65.9248 21.554C66.1413 21.52 66.3371 21.4878 66.3597 21.4826L66.4009 21.4731L66.406 23.268C66.4109 24.9458 66.4134 25.0677 66.4444 25.1363C66.4626 25.1767 66.4918 25.2256 66.5092 25.2449C66.5563 25.2969 66.669 25.3493 66.7611 25.362C66.8059 25.3681 66.8521 25.3791 66.8639 25.3863C66.8796 25.396 66.869 25.4942 66.8244 25.7548L66.7635 26.11L66.6893 26.1075C66.6485 26.1061 66.5514 26.0983 66.4736 26.09ZM58.4102 25.4136L58.4524 25.4048L58.4423 24.7493L58.3774 24.7347C58.2786 24.7125 57.8981 24.7147 57.7937 24.7381C57.5876 24.7843 57.4723 24.929 57.4942 25.1141C57.5002 25.1643 57.5202 25.2314 57.5387 25.2631C57.5819 25.3369 57.7176 25.4067 57.8537 25.4249C57.9573 25.4388 58.325 25.4313 58.4102 25.4136ZM57.5728 26.0894C56.9965 26.0054 56.6908 25.7362 56.6306 25.2597C56.5605 24.7043 56.8365 24.3211 57.4095 24.1785C57.5443 24.1449 57.6267 24.1381 57.9048 24.1372C58.0883 24.1367 58.2875 24.1432 58.3475 24.1518L58.4567 24.1674L58.4435 24.0507C58.4362 23.9865 58.4194 23.908 58.4062 23.8762C58.3687 23.7866 58.2732 23.689 58.1905 23.656C57.9643 23.5655 57.5406 23.5831 57.0448 23.7037C57.0247 23.7086 57.0069 23.6354 56.9657 23.3769C56.9364 23.1937 56.9159 23.0349 56.9201 23.024C56.9288 23.0014 57.1159 22.9556 57.3859 22.9098C57.6557 22.8641 58.224 22.8642 58.4237 22.9098C58.7672 22.9885 59.028 23.173 59.1491 23.4229C59.2745 23.6817 59.2734 23.6699 59.2809 24.871L59.2876 25.958L59.1985 25.9768C58.9699 26.0252 58.6649 26.0736 58.4793 26.0908C58.2402 26.113 57.7297 26.1123 57.5728 26.0894ZM29.2443 26.0812C28.7698 25.9793 28.4956 25.7151 28.3705 25.2389C28.3303 25.0863 28.3288 25.0483 28.3224 24.0112L28.3158 22.9409H29.1887L29.1889 23.8444C29.1889 24.3705 29.197 24.7981 29.208 24.8683C29.2488 25.1265 29.3122 25.2421 29.4552 25.3185C29.5237 25.3552 29.5584 25.3593 29.7911 25.3589C29.9338 25.3589 30.0651 25.3527 30.0829 25.3456C30.1134 25.3336 30.1154 25.2586 30.1154 24.1368V22.9409H30.9864V25.9417L30.9169 25.9605C30.7713 25.9997 30.4866 26.0522 30.2666 26.0805C29.9792 26.1175 29.4153 26.1178 29.2443 26.0812ZM25.7573 23.5517C26.1115 23.5073 26.2789 23.3648 26.2789 23.1077C26.2789 22.8717 26.1313 22.7309 25.8331 22.6825C25.7056 22.6619 25.1486 22.656 25.0791 22.6746L25.0374 22.6858V23.571H25.3205C25.4763 23.571 25.6728 23.5623 25.7573 23.5517ZM25.8343 25.3234C26.2619 25.2589 26.4305 25.1125 26.4325 24.8041C26.4341 24.5527 26.3271 24.4107 26.0721 24.326C25.9688 24.2917 25.9 24.2861 25.4961 24.2795L25.0374 24.2719V25.3298L25.1533 25.3364C25.4359 25.3525 25.6712 25.348 25.8343 25.3234ZM25.0838 26.0902C24.6955 26.0755 24.3543 26.0365 24.1803 25.987C24.1497 25.9782 24.1479 25.8676 24.1479 23.9992V22.0207L24.2915 21.9991C24.66 21.9438 24.8384 21.9324 25.3432 21.9321C25.7861 21.9321 25.9131 21.9377 26.0649 21.9657C26.29 22.0071 26.4921 22.0717 26.6402 22.1493C26.7886 22.2271 26.997 22.4372 27.0638 22.5763C27.1973 22.8544 27.2013 23.2142 27.0738 23.4642C27.0273 23.5553 26.8549 23.7411 26.7656 23.7963L26.7028 23.8351L26.8334 23.8983C27.1869 24.0692 27.3618 24.3718 27.362 24.8127C27.3622 25.0639 27.3382 25.1769 27.242 25.3791C27.1007 25.6762 26.7843 25.9018 26.3625 26.0061C26.0307 26.0882 25.6651 26.1122 25.0838 26.0902ZM76.0171 24.0795C75.9854 23.8778 75.8772 23.7246 75.7071 23.6408C75.6386 23.6071 75.5907 23.5988 75.463 23.5988C75.3229 23.5988 75.2913 23.6054 75.1951 23.6546C75.0365 23.7357 74.9307 23.8933 74.8813 24.1223L74.8683 24.1826H76.0332L76.0171 24.0795ZM75.2756 26.1085C74.7655 26.0337 74.3561 25.7625 74.1573 25.3676C74.0106 25.0765 73.9424 24.6722 73.9797 24.3158C74.0068 24.0574 74.056 23.8802 74.1581 23.6729C74.3476 23.2886 74.6475 23.0401 75.0688 22.9182C75.2565 22.8639 75.6591 22.8599 75.8628 22.9103C76.0824 22.9646 76.2832 23.0743 76.4436 23.2276C76.6128 23.3892 76.7064 23.5394 76.779 23.7656C76.8531 23.9965 76.8757 24.1826 76.8692 24.5069L76.8635 24.7849L74.8684 24.7945L74.8814 24.8546C74.9171 25.0192 75.055 25.1901 75.2202 25.2744C75.4723 25.403 76.0526 25.4002 76.451 25.2684C76.5611 25.232 76.5769 25.2305 76.5843 25.2562C76.6066 25.3338 76.6903 25.9091 76.6824 25.9298C76.6728 25.9547 76.5307 26.0049 76.3497 26.0474C76.0472 26.1184 75.5397 26.1473 75.2756 26.1085ZM42.6281 25.325C42.7884 25.2464 42.901 25.0855 42.9606 24.8497C42.9938 24.7185 42.9981 24.6582 42.9907 24.4347C42.9805 24.1296 42.9552 24.0326 42.8421 23.8642C42.7775 23.768 42.7426 23.7366 42.6433 23.6853C42.5279 23.6256 42.5158 23.6233 42.3551 23.6301C42.1644 23.6382 42.0666 23.6813 41.9578 23.8053C41.8073 23.9766 41.7437 24.2208 41.7585 24.5701C41.7756 24.9769 41.9221 25.2498 42.1731 25.3423C42.2732 25.3793 42.5381 25.3692 42.6281 25.325ZM42.0904 26.1089C41.3979 25.9852 40.9373 25.4509 40.8645 24.6868C40.7658 23.6508 41.4226 22.8659 42.3874 22.8669C42.6554 22.8669 42.9644 22.9481 43.175 23.0731C43.314 23.1556 43.5195 23.3496 43.6114 23.4849C43.9237 23.9448 43.9891 24.659 43.7704 25.2204C43.6473 25.5362 43.4139 25.8023 43.1323 25.9477C42.8867 26.0746 42.7379 26.1115 42.4394 26.1197C42.3018 26.1235 42.1448 26.1186 42.0904 26.1089ZM49.4136 26.919C49.2487 26.8767 49.1091 26.8371 49.1033 26.8312C49.0974 26.8253 49.1133 26.76 49.1384 26.6861C49.2666 26.3093 49.3437 25.7727 49.3244 25.3915L49.312 25.1456L50.2324 25.1556L50.2318 25.4706C50.2312 25.7297 50.2238 25.8198 50.1888 25.9774C50.1293 26.2461 50.0362 26.5077 49.9058 26.7725C49.8125 26.9621 49.7874 26.9993 49.7537 26.9978C49.7315 26.9968 49.5785 26.9614 49.4136 26.919ZM60.2142 27.1006C60.0053 27.0553 59.9131 27.0183 59.9234 26.9839C59.9285 26.967 59.9632 26.8114 60.0005 26.6381C60.0378 26.4649 60.0694 26.3219 60.0707 26.3204C60.072 26.319 60.1315 26.3331 60.2028 26.3518C60.3544 26.3915 60.6263 26.3985 60.7381 26.3654C60.84 26.3353 60.9862 26.1875 61.0595 26.0403L61.1174 25.9244L60.954 25.5863C60.6674 24.993 60.4166 24.3831 60.2139 23.7868C60.0963 23.4409 59.9526 22.9823 59.9526 22.9529C59.9526 22.9463 60.1598 22.9409 60.413 22.9409H60.8733L60.9529 23.2235C61.1244 23.8319 61.5208 24.9946 61.5472 24.9668C61.5832 24.9289 61.9358 23.7634 62.107 23.117L62.1511 22.9502L62.5993 22.9452C62.9692 22.9411 63.0476 22.9446 63.0476 22.9657C63.0476 22.9937 62.8646 23.5834 62.7477 23.9324C62.5436 24.541 62.2859 25.2118 62.0456 25.7597C61.7713 26.3851 61.6223 26.6422 61.4216 26.8359C61.1959 27.0539 60.9746 27.1302 60.5751 27.1278C60.4417 27.1269 60.2793 27.1147 60.2142 27.1006ZM31.8852 27.0923C31.7078 27.0518 31.635 27.0252 31.635 27.001C31.635 26.9808 31.7607 26.395 31.775 26.3485C31.7835 26.321 31.796 26.3215 31.9182 26.3543C32.0205 26.3818 32.0978 26.3888 32.2466 26.3843C32.5006 26.3766 32.5738 26.3377 32.706 26.1401C32.839 25.9412 32.839 25.9412 32.7169 25.6979C32.5704 25.406 32.324 24.8475 32.1628 24.4421C32.0313 24.1111 31.7709 23.3523 31.6937 23.075L31.6562 22.9403L32.5857 22.9501L32.6752 23.2639C32.8366 23.8299 33.2018 24.9199 33.2454 24.9657C33.2709 24.9925 33.6166 23.8711 33.8225 23.0938L33.863 22.9409H34.315C34.5636 22.9409 34.767 22.9449 34.767 22.9498C34.767 22.9721 34.5175 23.7597 34.4234 24.0343C34.07 25.0661 33.5888 26.2046 33.3494 26.5753C33.1679 26.8562 32.9309 27.0351 32.6533 27.1005C32.4833 27.1406 32.0778 27.1362 31.8852 27.0923Z" fill="#F37D31"/>
<path d="M0.528176 25.9551C0.477212 25.9416 0.404417 25.9173 0.366409 25.9009C0.257256 25.8541 0.11211 25.7063 0.0529016 25.5818L2.8957e-05 25.4706L0 17.7238L16.2047 0.00696078L19.7083 0.00211337C23.1541 -0.00265295 23.2139 -0.00213173 23.3324 0.033951C23.5964 0.114353 23.8242 0.304471 23.932 0.534297C23.9765 0.629139 23.9898 0.68623 23.9963 0.809914C24.0067 1.00918 23.9794 1.13327 23.8793 1.3413C23.773 1.5622 23.6699 1.69421 23.2893 2.09724C22.3536 3.08782 19.5702 6.11434 10.5541 15.9449C4.03399 23.054 1.9104 25.3635 1.64013 25.6393C1.51841 25.7635 1.35579 25.8561 1.13975 25.9242C0.977522 25.9753 0.664618 25.9911 0.528176 25.9551Z" fill="#F37D31"/>
<path d="M21.4792 18.6531C21.2224 18.5948 21.0988 18.4618 21.0533 18.1947C21.039 18.1108 21.0347 16.6958 21.0384 13.3503L21.0437 8.62456L21.0919 8.52178C21.1603 8.37587 21.2389 8.29479 21.3681 8.2368C21.5429 8.15834 21.6611 8.14902 22.3998 8.15537C23.071 8.16115 23.0837 8.16195 23.1699 8.2044C23.2181 8.22814 23.2822 8.27876 23.3124 8.3169C23.3949 8.42108 23.5767 8.81626 23.7524 9.27319C23.8386 9.49744 23.9158 9.68766 23.924 9.6959C23.9396 9.71177 24.1844 9.42704 24.4454 9.08922C24.6542 8.81906 24.971 8.4915 25.1629 8.34753C25.5535 8.05434 25.8708 7.97184 26.4829 8.00428C27.3131 8.04827 27.8263 8.24378 28.6969 8.84774C29.1808 9.18335 29.2094 9.20697 29.2684 9.31952C29.3169 9.41188 29.3212 9.43472 29.3141 9.56266C29.3039 9.74647 29.273 9.80986 28.804 10.6075C28.3994 11.2958 28.3099 11.4155 28.1358 11.5009C28.0466 11.5446 28.0076 11.5524 27.8821 11.5518C27.6671 11.5509 27.5698 11.5115 27.3795 11.3484C27.0755 11.088 26.7622 10.9134 26.4636 10.8379C26.2439 10.7824 25.8035 10.7677 25.5995 10.809C25.0996 10.9103 24.7437 11.206 24.3071 11.8828L24.2034 12.0435V15.1069C24.2034 17.7717 24.1998 18.1842 24.1756 18.2771C24.1283 18.4587 24.0417 18.5568 23.8642 18.6297C23.7701 18.6683 23.7439 18.6692 22.6745 18.6727C21.8561 18.6754 21.5555 18.6705 21.4792 18.6531ZM36.8055 12.0221C36.8055 11.988 36.7019 11.8123 36.5444 11.5795C36.172 11.0291 35.7208 10.696 35.1817 10.5733C34.9581 10.5225 34.6246 10.4999 34.4358 10.5229C33.832 10.5963 33.2242 11.0208 32.7889 11.6732C32.693 11.8169 32.5987 11.9912 32.5987 12.0247C32.5987 12.0377 33.267 12.0438 34.7021 12.0438C36.2949 12.0438 36.8055 12.0385 36.8055 12.0221ZM34.6928 18.8336C32.4168 18.6991 30.4669 17.2531 29.7294 15.1529C29.5464 14.6318 29.4677 14.1698 29.4534 13.5337C29.4387 12.8793 29.4971 12.4029 29.662 11.8307C30.2959 9.6313 32.1488 8.12252 34.3598 8.00536C35.6332 7.93788 36.8405 8.32672 37.8434 9.12723C38.0648 9.30397 38.5147 9.75677 38.6919 9.98126C39.2669 10.7094 39.625 11.5463 39.7331 12.4144C39.7909 12.8782 39.771 13.7636 39.6986 13.9541C39.6018 14.2087 39.4142 14.3137 38.9738 14.3598C38.8645 14.3713 37.6016 14.3784 35.6405 14.3786H32.4833L32.4963 14.4658C32.5363 14.7323 32.6776 15.0755 32.838 15.2959C33.1753 15.7592 33.6368 16.0461 34.259 16.1793C34.4345 16.2169 34.5112 16.2225 34.8411 16.2218C35.1858 16.2211 35.2433 16.2162 35.4619 16.1691C35.7862 16.0993 36.1526 15.9766 36.4038 15.8537C36.6505 15.7331 36.7883 15.6438 36.9631 15.4913C37.1407 15.3364 37.2957 15.2606 37.4122 15.2719C37.537 15.2839 37.6211 15.3294 37.7646 15.4623C37.9572 15.6406 38.7728 16.5715 38.8302 16.6785C38.8714 16.7552 38.8812 16.7975 38.8812 16.8983C38.8812 17.1282 38.8448 17.1864 38.5264 17.4658C37.6666 18.2204 36.7257 18.6596 35.6748 18.7971C35.4556 18.8257 34.9071 18.8463 34.6928 18.8336ZM47.0725 15.9818C48.1322 15.7514 48.8862 14.9925 49.1146 13.9268C49.1664 13.6847 49.1709 13.2327 49.124 12.9755C49.0567 12.6072 48.9097 12.2445 48.7004 11.9306C48.5592 11.7187 48.2732 11.4197 48.0756 11.2775C47.7947 11.0752 47.438 10.9124 47.1096 10.8365C46.9034 10.7889 46.4149 10.7698 46.2013 10.801C45.7166 10.8719 45.2765 11.095 44.9218 11.4498C44.2736 12.0981 44.0023 13.1393 44.2263 14.1194C44.4613 15.1475 45.1955 15.8532 46.1922 16.0088C46.3573 16.0346 46.9075 16.0177 47.0725 15.9818ZM45.8309 18.8433C44.0561 18.6885 42.523 17.6164 41.745 15.9861C41.4733 15.4168 41.3146 14.8834 41.2219 14.2286C41.1755 13.9006 41.1755 12.9486 41.2219 12.6183C41.3145 11.96 41.4697 11.4349 41.7355 10.8812C42.1865 9.94148 42.8466 9.209 43.7028 8.69813C44.4118 8.27514 45.1727 8.04876 46.0321 8.00514C46.6715 7.97269 47.0824 8.05032 47.5551 8.29293C47.909 8.47455 48.1645 8.67505 48.5899 9.1051C48.7671 9.28419 48.915 9.43072 48.9185 9.43072C48.9221 9.43072 48.9273 8.53629 48.93 7.44311L48.935 5.4555L48.987 5.3496C49.0164 5.28971 49.0759 5.21116 49.124 5.16882C49.281 5.03062 49.2727 5.03157 50.399 5.0243C51.0777 5.01992 51.4379 5.02448 51.5182 5.03844C51.7389 5.07683 51.9278 5.20793 52.0312 5.39456L52.0855 5.49256V11.8585C52.0855 18.0452 52.0845 18.2272 52.0506 18.3246C52.0051 18.4554 51.893 18.5675 51.7502 18.6251L51.6407 18.6692H50.6585C50.1183 18.6692 49.6442 18.6624 49.6051 18.6541C49.4242 18.6158 49.3108 18.4312 49.0571 17.7617C48.9839 17.5684 48.9202 17.4065 48.9156 17.4019C48.911 17.3973 48.7675 17.5307 48.5968 17.6982C48.1353 18.1512 47.7784 18.4211 47.3987 18.6042C46.9128 18.8386 46.4994 18.9016 45.8309 18.8433Z" fill="#48BBE5"/>
<path d="M63.0258 18.6591C62.8341 18.6298 62.7139 18.5546 62.6318 18.4124C62.5937 18.3464 58.8409 9.18862 58.7157 8.85621C58.6848 8.77415 58.6696 8.6939 58.668 8.60446C58.6636 8.35668 58.7895 8.21191 59.0445 8.17139C59.1981 8.147 61.2746 8.14561 61.4223 8.16981C61.6575 8.20832 61.8224 8.34927 61.9054 8.58271C61.9318 8.65669 62.0417 9.00077 62.1497 9.34733C62.4488 10.3067 63.4761 13.4931 63.6046 13.86C63.6671 14.0384 63.7251 14.1916 63.7336 14.2005C63.7421 14.2094 63.7612 14.1761 63.7761 14.1264C63.7909 14.0767 64.1884 12.8018 64.6594 11.2932C65.2165 9.50872 65.5348 8.5167 65.5705 8.45389C65.6467 8.31997 65.7692 8.21675 65.8884 8.18609C65.9644 8.16652 66.2504 8.16125 67.2359 8.16125C68.6324 8.16125 68.6237 8.16056 68.7593 8.2809C68.8367 8.3496 68.8381 8.35296 68.8445 8.48765C68.8496 8.59642 68.8418 8.65122 68.8061 8.75428C68.7377 8.95201 64.8482 18.2693 64.7987 18.3541C64.7395 18.4555 64.5921 18.5956 64.5023 18.6358C64.4361 18.6654 64.3589 18.6693 63.7796 18.6721C63.4228 18.6738 63.0836 18.668 63.0258 18.6591ZM54.7635 18.6656C54.5576 18.6312 54.4031 18.5115 54.3434 18.3403C54.3109 18.2469 54.3095 18.0469 54.3095 13.4245V8.60602L54.3619 8.49249C54.4247 8.35674 54.5172 8.26173 54.6431 8.20385C54.7357 8.16127 54.7364 8.16124 55.7586 8.15548C56.8294 8.14944 56.9228 8.1547 57.0789 8.22972C57.1837 8.28013 57.3573 8.45046 57.416 8.56053L57.46 8.64309V18.2614L57.4172 18.3475C57.3936 18.3948 57.3436 18.4644 57.306 18.5022C57.1352 18.6735 57.0956 18.6782 55.8477 18.6756C55.2769 18.6744 54.789 18.6699 54.7635 18.6656ZM75.0473 15.9835C75.5914 15.8609 76.0495 15.5697 76.3732 15.1406C76.5563 14.898 76.7322 14.5011 76.8137 14.1472C76.9053 13.7495 76.9145 13.2109 76.8365 12.8166C76.7228 12.2414 76.4577 11.7329 76.0889 11.3826C75.6655 10.9804 75.1588 10.7836 74.547 10.7836C74.0462 10.7836 73.6556 10.8985 73.2591 11.1625C72.206 11.8636 71.8319 13.4755 72.4336 14.7201C72.7668 15.4095 73.3928 15.8786 74.1416 16.0003C74.3525 16.0345 74.863 16.0251 75.0473 15.9835ZM74.0744 18.8446C72.0889 18.6563 70.4099 17.4688 69.6134 15.6896C69.126 14.601 69.0043 13.3745 69.2665 12.1955C69.6515 10.4643 70.888 9.01806 72.53 8.37815C73.2034 8.11574 73.8258 8.00091 74.5747 8.00091C75.319 8.00091 75.94 8.11396 76.5803 8.36601C77.8989 8.88502 78.9452 9.88436 79.5318 11.1849C80.0065 12.2375 80.1256 13.4786 79.8645 14.6534C79.8003 14.9424 79.6405 15.4183 79.5118 15.7041C79.0407 16.7499 78.2146 17.6407 77.1938 18.2038C76.6493 18.5042 75.9643 18.7278 75.3138 18.8176C75.0625 18.8523 74.3248 18.8684 74.0744 18.8446Z" fill="#48BBE5"/>
<path d="M0.630159 13.3344C0.397228 13.271 0.212715 13.1147 0.0989445 12.8845L0.0278533 12.7407L0.0231101 6.64303C0.0177878 -0.195068 0.00434482 0.431481 0.160124 0.258216C0.25863 0.148654 0.371762 0.0852855 0.551231 0.0391454C0.667302 0.00930398 0.868858 0.00694167 3.29884 0.00694167C5.72713 0.00694167 5.92975 0.00931036 6.03699 0.0389832C6.19897 0.083804 6.29248 0.13553 6.39249 0.235653C6.48962 0.33288 6.54564 0.437293 6.58756 0.599242C6.61282 0.696839 6.61614 1.10458 6.61605 4.10188L6.61593 7.49407L5.89973 8.29097C3.26779 11.2195 1.68929 12.9414 1.47202 13.1211C1.22772 13.3231 0.896722 13.407 0.630159 13.3344Z" fill="#48BBE5"/>
<path d="M54.7172 6.89285C54.5234 6.84379 54.3968 6.7215 54.3375 6.52608C54.2998 6.40204 54.2988 6.36873 54.3041 5.37095L54.3094 4.34355L54.3622 4.23604C54.4185 4.12138 54.4861 4.0643 54.6338 4.00664C54.7091 3.97722 54.8191 3.97346 55.7709 3.96774C56.8762 3.96109 57.0061 3.96785 57.1759 4.0409C57.2922 4.09092 57.3993 4.2123 57.4392 4.33918C57.4668 4.42683 57.4696 4.54399 57.4651 5.41027L57.46 6.38296L57.3983 6.50818C57.3259 6.65524 57.1933 6.7951 57.0677 6.85696L56.9781 6.90103L55.8755 6.90398C55.269 6.9056 54.7477 6.9006 54.7172 6.89285Z" fill="#F37D31"/>
</g>
<defs>
<clipPath id="clip0_1801_10078">
<rect width="80" height="27.1281" fill="white"/>
</clipPath>
</defs>
</svg>
