<svg width="80" height="80" viewBox="0 0 80 80" fill="none" xmlns="http://www.w3.org/2000/svg">
<g clip-path="url(#clip0_1801_7918)">
<g clip-path="url(#clip1_1801_7918)">
<path d="M80 0H0V80H80V0Z" fill="white"/>
<path d="M74.0452 5.89844H5.89844V59.2286H74.0452V5.89844Z" fill="#04549F"/>
<path d="M18.0247 45.0235C18.0247 46.7639 18.9654 48.4101 20.8657 48.4101C24.4875 48.4101 25.9833 44.9388 25.9833 40.3292C25.9833 35.7196 22.9165 33.1797 20.4518 33.1797H18.0247V45.0235ZM19.6616 31.016C21.4772 31.016 22.4085 30.6491 23.1423 29.8589C24.2147 28.7488 24.7227 25.9736 24.7227 23.3678C24.7227 21.5146 24.3841 19.5767 23.6879 18.5136C22.766 17.1119 21.4113 16.7921 19.4452 16.7921H18.0059V31.016H19.6616ZM22.7942 14.9576C22.7942 14.9576 28.6268 15.2211 28.6268 23.0574C28.6268 25.0047 28.1 28.0244 26.4725 29.7178C25.5788 30.6209 23.3116 31.9003 23.3116 31.9003C24.7886 32.38 26.0021 32.8692 27.0463 33.8664C28.7679 35.5221 29.925 37.4976 29.925 40.7149C29.925 46.7639 26.9429 50.2634 21.7876 50.2634H11.5901V48.4007H11.7406C14.2241 48.4007 14.6663 47.4036 14.6663 44.2709V21.5616C14.6663 18.7488 14.7321 17.2813 11.7406 16.7921H11.5901V14.9482H22.8036L22.7942 14.9576Z" fill="white"/>
<path d="M46.9708 16.7451C49.3697 16.7451 50.1599 18.3631 51.5051 23.8006H52.7281V14.9012H34.9858V16.7357H35.0987C36.8579 17.1684 38.269 17.6012 38.269 19.7837V43.6783C38.269 46.7357 38.3349 47.9868 34.9858 48.3443V50.207H44.873V48.3443C41.7027 48.3443 41.7027 46.7545 41.7027 43.6783V33.1139H44.0451C47.1213 33.0104 47.7422 34.8542 47.9962 39.1628H49.2756V25.2775H48.0244C47.9397 30.0847 46.1241 31.1477 44.0733 30.9596H41.7027V16.7263H46.9614L46.9708 16.7451Z" fill="white"/>
<path d="M65.4565 19.5202C65.4565 17.4977 66.7547 16.7639 68.8713 16.7639V14.9106H58.5891V16.7639C60.7058 16.7639 62.0134 17.4977 62.0134 19.5202V45.5974C62.0134 47.62 60.7152 48.3537 58.5891 48.3537V50.2164H68.8713V48.3537C66.7547 48.3537 65.4565 47.62 65.4565 45.5974V19.5202Z" fill="white"/>
<path d="M6.03027 66.905H12.1921C12.4273 66.905 12.5307 66.8297 12.5307 66.6886H12.6719V68.3255H12.5307C12.5307 68.1467 12.4367 68.0715 12.1921 68.0715H7.70478V69.8212H10.6022C10.8374 69.8212 10.9409 69.746 10.9409 69.5672H11.082V71.2229H10.9409C10.9409 71.063 10.8374 70.9878 10.6022 70.9878H7.70478V73.65C7.70478 73.8664 7.74241 73.9511 7.95878 73.9511V74.0828H6.03027V73.9511C6.26546 73.9511 6.30309 73.8664 6.30309 73.65V67.3471C6.30309 67.1307 6.26546 67.0555 6.03027 67.0555V66.9144V66.905Z" fill="black"/>
<path d="M29.2757 73.6407C29.2757 73.857 29.3415 73.9323 29.5391 73.9323V74.0734H27.7141V73.9323C27.8176 73.9323 27.9116 73.9135 27.9116 73.8571C27.9116 73.7724 27.8552 73.7253 27.7235 73.5936L23.2926 68.8429V73.6407C23.2926 73.857 23.3397 73.9323 23.556 73.9323V74.0734H21.8157V73.9323C22.032 73.9323 22.0509 73.857 22.0509 73.6407V67.3378C22.0509 67.1214 22.032 67.0461 21.8157 67.0461V66.905H23.9135V67.0461C23.7254 67.0461 23.6501 67.0838 23.6501 67.1778C23.6501 67.2061 23.6877 67.2531 23.7536 67.3284L28.0245 71.8721V67.3566C28.0245 67.1402 28.0057 67.065 27.7705 67.065V66.9238H29.5297V67.065C29.3321 67.065 29.2663 67.1402 29.2663 67.3566V73.6595L29.2757 73.6407Z" fill="black"/>
<path d="M17.7046 73.6407C17.7046 73.857 17.7516 73.9323 18.0715 73.9323V74.0734H15.9548V73.9323C16.2653 73.9323 16.3123 73.857 16.3123 73.6407V67.3378C16.3123 67.1214 16.2747 67.0461 15.9548 67.0461V66.905H18.0715V67.0461C17.761 67.0461 17.7046 67.1214 17.7046 67.3378V73.6407Z" fill="black"/>
<path d="M38.0716 71.0913L36.8863 68.5137L35.7197 71.0913H38.0622H38.0716ZM32.9446 74.1016V73.9605C33.1233 73.9511 33.1798 73.9041 33.3209 73.5842L36.0114 67.5447C36.0584 67.4506 36.1243 67.3377 36.1243 67.2531C36.1243 67.1402 36.049 67.0932 35.9173 67.0743V66.9332H38.0622V67.0743C37.9211 67.0932 37.8552 67.1496 37.8552 67.2249C37.8552 67.3095 37.8928 67.3848 37.9399 67.4789L40.7997 73.5936C40.9408 73.9041 40.9784 73.9699 41.1854 73.9699V74.111H39.2287V73.9699C39.3604 73.9699 39.4074 73.9229 39.4074 73.8758C39.4074 73.763 39.3228 73.6312 38.6548 72.2201H35.2776C34.7132 73.4995 34.5626 73.6971 34.5626 73.8194C34.5626 73.9135 34.6191 73.9605 34.7132 73.9699V74.111H32.9634L32.9446 74.1016Z" fill="black"/>
<path d="M52.0041 73.6407C52.0041 73.857 52.0699 73.9323 52.2675 73.9323V74.0734H50.4519V73.9323C50.5459 73.9323 50.6494 73.9135 50.6494 73.8571C50.6494 73.7724 50.593 73.7253 50.4613 73.5936L46.0304 68.8429V73.6407C46.0304 73.857 46.0775 73.9323 46.2938 73.9323V74.0734H44.5535V73.9323C44.7698 73.9323 44.7887 73.857 44.7887 73.6407V67.3378C44.7887 67.1214 44.7698 67.0461 44.5535 67.0461V66.905H46.6513V67.0461C46.4632 67.0461 46.3879 67.0838 46.3879 67.1778C46.3879 67.2061 46.4255 67.2531 46.5008 67.3284L50.7717 71.8721V67.3566C50.7717 67.1402 50.7529 67.065 50.5177 67.065V66.9238H52.2769V67.065C52.0793 67.065 52.0135 67.1402 52.0135 67.3566V73.6595L52.0041 73.6407Z" fill="black"/>
<path d="M62.3237 69.1062L62.1826 69.031C62.1826 68.9745 62.1826 68.9275 62.1826 68.8805C62.1826 68.6547 61.0255 68.0338 59.8213 68.0338C58.2973 68.0338 56.9239 68.7205 56.9239 70.4891C56.9239 72.2577 58.2973 72.9444 59.9342 72.9444C61.2701 72.9444 62.4084 72.2012 62.4084 71.7685C62.4084 71.7215 62.3895 71.6368 62.3707 71.5992L62.4648 71.5333L63.4526 72.9444L63.3773 72.9821C63.3773 72.9821 63.2926 72.9538 63.2644 72.9538C62.9728 72.9538 62.239 74.0827 59.8213 74.0827C57.6765 74.0827 55.5598 73.0197 55.5598 70.4891C55.5598 68.2502 57.5354 66.8955 59.8872 66.8955C61.5805 66.8955 62.7094 67.6481 62.9069 67.6481C63.001 67.6481 63.0669 67.6387 63.1233 67.5352L63.255 67.5822L62.3049 69.1062H62.3237Z" fill="black"/>
<path d="M67.3191 73.7254C67.5261 73.7254 67.5731 73.6501 67.5731 73.4432V67.3378C67.5731 67.1308 67.5355 67.0556 67.3191 67.0556V66.9239H73.5091C73.7349 66.9239 73.829 66.8486 73.829 66.7169H73.9607V68.2974H73.829C73.829 68.128 73.7349 68.0528 73.5091 68.0528H68.9183V69.7461H71.9099C72.1357 69.7461 72.2297 69.6708 72.2297 69.5015H72.3614V71.1007H72.2297C72.2297 70.9502 72.1357 70.875 71.9099 70.875H68.9183V72.747H73.5938C73.829 72.747 73.923 72.6718 73.923 72.5212H74.0547V74.0829H73.923C73.923 73.9512 73.829 73.8759 73.5938 73.8759H67.3191V73.7442V73.7254Z" fill="black"/>
</g>
</g>
<defs>
<clipPath id="clip0_1801_7918">
<rect width="80" height="80" fill="white"/>
</clipPath>
<clipPath id="clip1_1801_7918">
<rect width="80" height="80" fill="white"/>
</clipPath>
</defs>
</svg>
