<svg width="80" height="28" viewBox="0 0 80 28" fill="none" xmlns="http://www.w3.org/2000/svg">
<g clip-path="url(#clip0_1801_10300)">
<path d="M17.5361 20.9449C17.5022 21.1314 17.4513 21.2841 17.4174 21.3858L17.0104 22.7256H18.0619L17.6549 21.3858C17.6209 21.2841 17.587 21.1314 17.5361 20.9449Z" fill="black"/>
<path d="M54.6095 20.8092C54.4738 20.7075 54.3211 20.6396 54.1176 20.6396H53.3545V21.9625H54.1176C54.3211 21.9625 54.4907 21.8946 54.6264 21.7759C54.7451 21.6402 54.813 21.4876 54.813 21.2671C54.813 21.0806 54.7451 20.9279 54.6095 20.8092Z" fill="black"/>
<path d="M35.4622 20.9449C35.4114 21.1314 35.3774 21.2841 35.3435 21.3858L34.9365 22.7256H35.988L35.581 21.3858C35.547 21.2841 35.5131 21.1314 35.4622 20.9449Z" fill="black"/>
<path d="M0 27.9831H79.9809V16.7899H0V27.9831ZM6.93643 20.6567H5.20656V21.9625H6.83468V22.9801H5.20656V25.1339H4.00244V19.656H6.93643V20.6736V20.6567ZM9.00549 25.1339H7.80137V19.656H9.00549V25.1339ZM14.6191 25.1339H13.5845L11.1593 21.9456C11.1593 21.9456 11.0745 21.8099 11.0237 21.7251C11.0237 21.8438 11.0237 21.9286 11.0237 21.9965V25.1339H9.81954V19.656H10.8541L13.2793 22.8105C13.2793 22.8105 13.3641 22.9462 13.4149 23.0479C13.4149 22.9292 13.4149 22.8444 13.4149 22.7596V19.656H14.6191V25.1339ZM18.7741 25.1339L18.3502 23.7433H16.6712L16.2472 25.1339H14.9922L16.9425 19.656H18.0958L20.08 25.1339H18.7572H18.7741ZM25.2527 25.1339H24.2182L21.7929 21.9456C21.7929 21.9456 21.7081 21.8099 21.6573 21.7251C21.6573 21.8438 21.6573 21.9286 21.6573 21.9965V25.1339H20.4531V19.656H21.4877L23.9129 22.8105C23.9129 22.8105 23.9977 22.9462 24.0485 23.0479C24.0485 22.9292 24.0485 22.8444 24.0485 22.7596V19.656H25.2527V25.1339ZM29.8317 24.9813C29.5095 25.1339 29.1025 25.2187 28.6276 25.2187C28.2206 25.2187 27.8305 25.1509 27.4913 25.0152C27.1521 24.8796 26.8469 24.693 26.5925 24.4386C26.355 24.2012 26.1685 23.8959 26.0159 23.5398C25.8802 23.1836 25.8123 22.7935 25.8123 22.3526C25.8123 21.9456 25.8802 21.5725 26.0328 21.2163C26.1854 20.8771 26.372 20.5888 26.6264 20.3344C26.8808 20.097 27.1691 19.8935 27.5083 19.7578C27.8475 19.6221 28.2036 19.5543 28.5937 19.5543C28.9838 19.5543 29.3569 19.6221 29.6791 19.7408C29.9844 19.8596 30.2896 20.0631 30.578 20.3683L29.8996 21.1485C29.5265 20.7754 29.1025 20.6058 28.5937 20.6058C28.3563 20.6058 28.1527 20.6567 27.9492 20.7415C27.7627 20.8262 27.5931 20.945 27.4574 21.1146C27.3217 21.2672 27.22 21.4537 27.1521 21.6742C27.0843 21.8947 27.0334 22.1321 27.0334 22.3696C27.0334 22.9462 27.1691 23.3871 27.4404 23.7094C27.6948 24.0316 28.0849 24.2012 28.5937 24.2012C28.7633 24.2012 28.9159 24.1842 29.0516 24.1503C29.1873 24.1164 29.306 24.0655 29.4077 24.0146C29.5265 23.9637 29.6112 23.8959 29.713 23.8111C29.7978 23.7263 29.8996 23.6585 29.9844 23.5737L30.6628 24.3538C30.4084 24.6252 30.12 24.8456 29.7978 25.0152M32.4265 25.1679H31.2224V19.69H32.4265V25.1679ZM36.6834 25.1679L36.2594 23.7772H34.5973L34.1734 25.1679H32.9014L34.8687 19.69H36.0219L38.0062 25.1679H36.6834ZM41.6016 25.1679H38.4472V19.69H39.6513V24.1673H41.6016V25.1848V25.1679ZM47.0965 24.8287C46.7573 25.117 46.2824 25.2696 45.6889 25.2696C45.3158 25.2696 44.9765 25.2018 44.6882 25.0831C44.3999 24.9474 44.1116 24.7948 43.8572 24.5912L44.4678 23.7433C44.6374 23.8789 44.8239 23.9807 45.0444 24.0825C45.2649 24.1673 45.4853 24.2181 45.7058 24.2181C45.9772 24.2181 46.1637 24.1673 46.2655 24.0825C46.3672 23.9977 46.4012 23.862 46.4012 23.6924C46.4012 23.5567 46.3503 23.438 46.2485 23.3362C46.1298 23.2345 46.0111 23.1497 45.8415 23.0819C45.6889 23.014 45.5362 22.9462 45.3666 22.8783C45.214 22.8105 45.0614 22.7596 44.9426 22.6918C44.807 22.607 44.6713 22.5392 44.5526 22.4544C44.4338 22.3696 44.3321 22.2678 44.2473 22.1491C44.1625 22.0304 44.0947 21.8947 44.0438 21.7421C43.9929 21.5894 43.9759 21.4029 43.9759 21.1824C43.9759 20.911 44.0268 20.6567 44.1455 20.4701C44.2643 20.2666 44.3999 20.097 44.5865 19.9783C44.773 19.8596 44.9765 19.7578 45.214 19.69C45.4344 19.6391 45.6889 19.6052 45.9263 19.6052C46.1976 19.6052 46.469 19.6391 46.7403 19.7239C47.0287 19.7917 47.283 19.9274 47.5035 20.08L46.9608 20.9789C46.8421 20.8941 46.6895 20.8093 46.5029 20.7584C46.3164 20.7075 46.1298 20.6567 45.9093 20.6567C45.7736 20.6567 45.6549 20.6736 45.5532 20.7075C45.4684 20.7415 45.3836 20.7923 45.3157 20.8432C45.2479 20.8941 45.214 20.945 45.197 21.0128C45.1631 21.0806 45.1461 21.1315 45.1461 21.1824C45.1461 21.3011 45.197 21.4029 45.2649 21.5046C45.3327 21.5894 45.4514 21.6742 45.5701 21.7251C45.7058 21.7929 45.8415 21.8608 45.9941 21.9117C46.1468 21.9625 46.2994 22.0304 46.469 22.0982C46.6047 22.166 46.7403 22.2339 46.876 22.3017C47.0117 22.3865 47.1134 22.4883 47.2322 22.607C47.3339 22.7257 47.4187 22.8614 47.4866 23.031C47.5544 23.2006 47.5883 23.3871 47.5883 23.6076C47.5883 24.1333 47.4187 24.5234 47.0795 24.8287M51.4381 25.1679H48.131V19.69H51.3363V20.7075H49.3521V21.9965H51.2007V23.014H49.3521V24.1673H51.4551V25.1848L51.4381 25.1679ZM54.83 25.1679L53.3037 22.5731V25.1679H52.0995V19.69H54.0668C54.3551 19.69 54.6095 19.7239 54.847 19.8087C55.0844 19.8935 55.2879 20.0122 55.4406 20.1479C55.6102 20.3005 55.7289 20.4701 55.8306 20.6736C55.9154 20.8771 55.9663 21.0976 55.9663 21.335C55.9663 21.7421 55.8476 22.0812 55.6271 22.3526C55.3897 22.607 55.1014 22.7935 54.7452 22.8953L56.2037 25.1848H54.847L54.83 25.1679ZM59.036 25.1679H57.8827L56.085 19.69H57.323L58.3915 23.2006C58.3915 23.2006 58.4424 23.3702 58.4763 23.5058C58.5102 23.3702 58.5441 23.2684 58.5611 23.2006L59.6126 19.69H60.8167L59.036 25.1679ZM62.5805 25.1679H61.3764V19.69H62.5805V25.1679ZM67.1595 25.0152C66.8373 25.1679 66.4303 25.2527 65.9554 25.2527C65.5484 25.2527 65.1583 25.1848 64.8192 25.0492C64.463 24.9135 64.1747 24.7269 63.9373 24.4725C63.6998 24.2351 63.5133 23.9298 63.3606 23.5737C63.225 23.2175 63.1571 22.8275 63.1571 22.3865C63.1571 21.9795 63.225 21.6064 63.3776 21.2502C63.5302 20.911 63.7168 20.6227 63.9712 20.3683C64.2256 20.1309 64.5139 19.9274 64.8531 19.7917C65.1922 19.656 65.5484 19.5882 65.9385 19.5882C66.3285 19.5882 66.7016 19.656 67.0239 19.7748C67.3291 19.8935 67.6344 20.097 67.9227 20.4023L67.2443 21.1824C66.8712 20.8093 66.4472 20.6397 65.9385 20.6397C65.701 20.6397 65.4806 20.6906 65.294 20.7754C65.1075 20.8602 64.9548 20.9789 64.8192 21.1485C64.6835 21.3011 64.5817 21.4877 64.5139 21.7081C64.4291 21.9286 64.3952 22.166 64.3952 22.4035C64.3952 22.9801 64.5308 23.421 64.8022 23.7433C65.0735 24.0655 65.4466 24.2351 65.9554 24.2351C66.125 24.2351 66.2776 24.2181 66.4133 24.1842C66.549 24.1503 66.6677 24.0994 66.7695 24.0485C66.8712 23.9977 66.973 23.9298 67.0578 23.845C67.1595 23.7602 67.2274 23.6924 67.3291 23.6076L68.0245 24.3877C67.7701 24.6591 67.4648 24.8796 67.1595 25.0492M71.7725 25.2018H68.4654V19.7239H71.6538V20.7415H69.6696V22.0304H71.5181V23.0479H69.6696V24.2012H71.7725V25.2187V25.2018ZM75.4358 24.8626C75.0966 25.1509 74.6217 25.3035 74.0281 25.3035C73.6381 25.3035 73.3158 25.2357 73.0275 25.117C72.7392 24.9813 72.4509 24.8287 72.1965 24.6252L72.824 23.7772C72.9767 23.9129 73.1802 24.0146 73.4006 24.1164C73.6211 24.2012 73.8585 24.2521 74.079 24.2521C74.3504 24.2521 74.5369 24.2012 74.6387 24.1164C74.7235 24.0316 74.7744 23.8959 74.7744 23.7263C74.7744 23.5906 74.7235 23.4719 74.6217 23.3702C74.52 23.2684 74.3843 23.1836 74.2147 23.1158C74.0621 23.0479 73.9094 22.9801 73.7398 22.9123C73.5872 22.8444 73.4346 22.7935 73.3158 22.7257C73.1802 22.6409 73.0445 22.5731 72.9258 22.4883C72.8071 22.4035 72.7053 22.3017 72.6205 22.183C72.5357 22.0643 72.4509 21.9286 72.417 21.776C72.3661 21.6233 72.3491 21.4368 72.3491 21.2163C72.3491 20.945 72.417 20.6906 72.5187 20.504C72.6375 20.3005 72.7731 20.1309 72.9597 20.0122C73.1462 19.8935 73.3498 19.7917 73.5872 19.7239C73.8246 19.673 74.0621 19.6391 74.2995 19.6391C74.5369 19.6391 74.8252 19.673 75.1135 19.7578C75.4019 19.8256 75.6562 19.9613 75.8767 20.114L75.334 21.0128C75.2153 20.928 75.0627 20.8432 74.8761 20.7923C74.6896 20.7415 74.503 20.6906 74.2995 20.6906C74.1469 20.6906 74.0451 20.7075 73.9433 20.7415C73.8416 20.7754 73.7737 20.8262 73.7059 20.8771C73.655 20.928 73.6042 20.9789 73.5872 21.0467C73.5702 21.1146 73.5533 21.1654 73.5533 21.2163C73.5533 21.335 73.6042 21.4368 73.672 21.5385C73.7568 21.6233 73.8585 21.7081 73.9942 21.759C74.1129 21.8269 74.2656 21.8947 74.4182 21.9456C74.5708 21.9964 74.7404 22.0643 74.8931 22.1321C75.0287 22.2 75.1644 22.2678 75.2831 22.3356C75.4188 22.4204 75.5206 22.5222 75.6393 22.6409C75.758 22.7596 75.8259 22.8953 75.8937 23.0649C75.9615 23.2345 75.9954 23.421 75.9954 23.6415C75.9954 24.1673 75.8259 24.5573 75.4697 24.8626" fill="black"/>
<path d="M9.83649 14.3816C12.6348 14.3816 16.0606 13.6015 18.011 11.3798H16.332C14.4325 13.0927 11.9564 13.4828 9.85345 13.4828C4.74865 13.4828 1.50938 10.8371 1.50938 7.15689C1.50938 3.78196 5.17264 0.746216 9.78561 0.746216C10.3453 0.746216 10.5149 0.864932 9.93824 1.59419C8.75108 3.06966 6.64811 5.95277 5.66446 7.66567C4.59601 9.49729 5.68142 10.9728 8.0727 10.9728H17.7227C18.3332 10.9728 18.6554 10.6336 19.0116 10.023C19.2829 9.53121 19.7239 8.5306 19.7239 7.17385C19.7239 4.44338 17.6548 1.91642 14.5343 0.661419L14.0933 1.32284C17.0443 2.54392 18.2314 4.73169 18.2314 7.08905C18.2314 8.25925 17.9092 9.3277 17.2987 9.3277H9.5821C8.53061 9.3277 8.22534 8.95459 8.70021 8.02182C9.54818 6.35979 12.0751 3.17142 13.6354 1.255C13.8728 0.966689 14.0424 0.542702 13.2284 0.32223C12.3974 0.101757 11.0406 0 9.88737 0C4.08723 0 0.0508764 3.1375 0.0508764 7.17385C0.0508764 10.9049 3.56148 14.3816 9.88737 14.3816" fill="black"/>
<path d="M26.3889 10.9897H45.2988L49.1825 8.54756L52.5405 10.9897H56.526L51.3363 7.19081L55.5593 4.52817V8.54756C55.5593 9.80256 57.1704 10.9897 58.6459 10.9897H77.5388C80.8289 10.9897 80.8119 6.64811 77.5388 6.64811H70.9924C71.1959 5.81709 71.8573 5.24047 73.0784 5.24047H79.3365V3.83284H72.6714C68.8724 3.83284 67.9736 6.52939 67.9736 8.05574H76.0802C77.1996 8.05574 77.1995 9.54817 76.1141 9.54817C75.0287 9.54817 67.1595 9.54817 67.1595 9.54817V3.81588H64.463V9.54817H59.9857C58.7816 9.54817 58.2897 8.97155 58.2897 8.0727C58.2897 7.00425 58.2897 3.81588 58.2897 3.81588H53.9651L50.0983 6.25804L46.7743 3.81588H37.1921C34.4108 3.81588 32.4435 5.44398 32.223 7.46216H34.0207C33.2915 7.93702 32.7487 8.7002 32.4265 9.56513H26.7621C25.6936 9.56513 25.1848 9.00547 25.1848 7.95398V3.81588H22.4713V7.34344C22.4713 9.58209 23.6924 10.9897 26.4398 10.9897M37.6331 5.24047H43.6537V4.46034L47.9614 7.61479L44.8578 9.56513H35.6827C35.7675 8.80196 36.1746 8.02182 37.4296 8.02182H43.111V6.63115H35.5471C35.6827 6.05452 36.2763 5.22351 37.6331 5.22351" fill="black"/>
</g>
<defs>
<clipPath id="clip0_1801_10300">
<rect width="80" height="27.9831" fill="white"/>
</clipPath>
</defs>
</svg>
