<svg width="80" height="41" viewBox="0 0 80 41" fill="none" xmlns="http://www.w3.org/2000/svg">
<g clip-path="url(#clip0_1801_10669)">
<path d="M5.46032 23.5846H0V36.9431H2.31299V32.037H4.34963C4.34963 32.037 7.41671 32.1544 8.51453 29.4446C9.48893 27.04 8.42216 23.5846 5.46032 23.5846ZM6.63309 28.2431C6.38552 29.9405 4.65853 30.1245 4.65853 30.1245H2.25166V25.5281H4.72062C5.95472 25.5281 6.85796 26.6918 6.63309 28.2431Z" fill="#004E44"/>
<path d="M16.998 32.3779C16.998 32.3779 17.581 26.639 13.3268 26.7927C8.23744 26.979 8.72956 35.2209 11.7845 36.6345C14.2527 37.7762 16.998 36.3876 16.998 36.3876V34.3517C11.4151 36.8192 11.8769 32.4075 11.8769 32.4075L16.998 32.3779ZM13.6046 28.6454C15.2392 28.737 14.9924 30.7729 14.9924 30.7729H11.9382C11.9382 30.7729 11.911 28.5485 13.6046 28.6454Z" fill="#004E44"/>
<path d="M22.3698 40.8756C26.4378 40.8771 26.4378 37.0355 26.4378 37.0355V26.7895H24.4337V27.6261C19.5276 24.88 17.4614 30.619 19.0347 34.7218C20.608 38.8246 24.3414 36.2337 24.3414 36.2337C24.2475 40.737 19.2195 37.9304 19.2195 37.9304V40.2434C19.2195 40.2434 20.2529 40.8771 22.3698 40.8756ZM24.4034 33.9518C24.4034 33.9518 24.193 35.061 22.4773 35.061C20.7625 35.061 21.0093 31.2981 21.0093 31.2981C21.0093 31.2981 20.954 28.7057 22.4773 28.6452C24.0014 28.5823 24.4034 29.4462 24.4034 29.4462V33.9518Z" fill="#004E44"/>
<path d="M43.2781 23.7395V27.3789C38.3743 24.6336 36.3066 30.3718 37.8806 34.4746C39.4532 38.5774 43.1865 35.9873 43.1865 35.9873V36.7929H45.2845V23.7395H43.2781ZM43.2478 33.7046C43.2478 33.7046 43.0396 34.8146 41.3232 34.8146C39.6084 34.8146 39.8544 31.0494 39.8544 31.0494C39.8544 31.0494 39.7992 28.4601 41.3232 28.3972C42.8473 28.3352 43.2478 29.1998 43.2478 29.1998V33.7046Z" fill="#004E44"/>
<path d="M35.1962 35.061V30.3108C35.1962 30.3108 35.602 25.2366 28.8107 27.2869V29.2918C28.8107 29.2918 29.6117 28.7671 31.1555 28.7671C32.697 28.7671 33.1603 29.4462 33.1603 30.463C33.1603 30.463 28.286 29.5393 27.8537 33.4264C27.4221 37.3126 31.4636 37.5913 33.1603 36.1111C33.1603 36.1111 33.8432 37.5663 36.3379 36.7933V35.061C36.3379 35.061 35.7216 35.2775 35.1962 35.061ZM30.1985 33.6111C30.2598 31.4829 33.0899 31.9379 33.0899 31.9379C33.0899 31.9379 33.099 33.2871 33.099 34.4924C32.6349 35.2639 30.1364 35.7394 30.1985 33.6111Z" fill="#004E44"/>
<path d="M57.5316 36.7929H59.5379V27.101H57.5316V36.7929Z" fill="#004E44"/>
<path d="M59.7691 24.8248C59.7691 25.5069 59.2164 26.0596 58.5357 26.0596C57.8528 26.0596 57.3001 25.5069 57.3001 24.8248C57.3001 24.1434 57.8528 23.5907 58.5357 23.5907C59.2164 23.5907 59.7691 24.1434 59.7691 24.8248Z" fill="#004E44"/>
<path d="M71.847 27.1021H73.914V27.9039C73.914 27.9039 74.7158 26.8545 76.6297 26.8545C78.5407 26.8545 79.4667 28.7678 79.4667 29.4772V36.7932H77.215V29.9095C77.215 29.9095 77.1529 28.9525 76.074 28.9525C74.9944 28.9525 73.9435 29.8474 73.9435 30.2797V36.7932H71.847V27.1021Z" fill="#004E44"/>
<path d="M54.5717 35.061V30.3108C54.5717 30.3108 54.9767 25.2366 48.1854 27.2869V29.2918C48.1854 29.2918 48.9872 28.7671 50.5302 28.7671C52.0724 28.7671 52.5358 29.4462 52.5358 30.463C52.5358 30.463 47.6615 29.5393 47.2292 33.4264C46.7976 37.3126 50.8391 37.5913 52.5358 36.1111C52.5358 36.1111 53.2195 37.5663 55.7134 36.7933V35.061C55.7134 35.061 55.0963 35.2775 54.5717 35.061ZM49.5747 33.6111C49.6353 31.4829 52.4646 31.9379 52.4646 31.9379C52.4646 31.9379 52.4737 33.2871 52.4737 34.4924C52.0103 35.2639 49.5119 35.7394 49.5747 33.6111Z" fill="#004E44"/>
<path d="M69.0057 35.061V30.3108C69.0057 30.3108 69.41 25.2366 62.6194 27.2869V29.2918C62.6194 29.2918 63.4212 28.7671 64.9642 28.7671C66.5064 28.7671 66.9698 29.4462 66.9698 30.463C66.9698 30.463 62.0955 29.5393 61.6624 33.4264C61.2316 37.3134 65.2731 37.5913 66.9698 36.1111C66.9698 36.1111 67.6535 37.5663 70.1474 36.7933V35.061C70.1474 35.061 69.5296 35.2775 69.0057 35.061ZM64.0087 33.6111C64.0693 31.4829 66.8994 31.9379 66.8994 31.9379C66.8994 31.9379 66.9069 33.2871 66.9069 34.4924C66.4436 35.2639 63.9466 35.7394 64.0087 33.6111Z" fill="#004E44"/>
<path d="M10.4832 0.000816307C5.47341 0.000816307 1.41299 4.06199 1.41299 9.07107C1.41299 14.0809 5.47341 18.1406 10.4832 18.1406C12.7182 18.1406 14.764 17.332 16.3448 15.9919C14.3809 14.3285 13.1362 11.8451 13.1362 9.07107C13.1362 6.29624 14.3809 3.8129 16.3448 2.14875C14.764 0.809416 12.7182 0.000816307 10.4832 0.000816307Z" fill="#BFD730"/>
<path d="M22.2062 0.000816307C19.9712 0.000816307 17.9249 0.809416 16.3448 2.14875C18.3073 3.8129 19.5533 6.29624 19.5533 9.07107C19.5533 11.8451 18.3073 14.3285 16.3448 15.9919C17.9249 17.332 19.9712 18.1406 22.2062 18.1406C27.2161 18.1406 31.2765 14.0809 31.2765 9.07107C31.2765 4.06199 27.2161 0.000816307 22.2062 0.000816307Z" fill="#72BF44"/>
<path d="M16.3448 2.14875C14.3809 3.8129 13.1362 6.29624 13.1362 9.07107C13.1362 11.8451 14.3809 14.3285 16.3448 15.9919C18.3073 14.3285 19.5533 11.8451 19.5533 9.07107C19.5533 6.29624 18.3073 3.8129 16.3448 2.14875Z" fill="#00AB4E"/>
<path d="M43.1227 9.07025C43.1227 14.0801 39.0623 18.1405 34.0532 18.1405C29.0434 18.1405 24.9829 14.0801 24.9829 9.07025C24.9829 4.06117 29.0434 0 34.0532 0C39.0623 0 43.1227 4.06117 43.1227 9.07025Z" fill="#00AB4E"/>
<path d="M38.972 5.64459C38.2572 5.15625 36.394 4.39156 34.1264 4.38626H34.0537L33.978 4.38551C31.7112 4.39081 29.8487 5.15625 29.1332 5.64459C28.9016 5.80283 28.7607 6.00422 28.7736 6.13293C28.8122 6.24801 28.9477 6.31161 29.3467 6.19047C30.0335 5.98075 31.6885 5.04193 34.0537 5.02149C36.4182 5.04193 38.071 5.98075 38.7585 6.19047C39.1582 6.31161 39.293 6.24801 39.3323 6.13293C39.3452 6.00422 39.2036 5.80283 38.972 5.64459Z" fill="white"/>
<path d="M35.5001 11.7005C35.5001 11.7005 34.0003 11.7974 34.8717 12.668C35.7417 13.5387 38.5468 14.6025 40.8673 12.668C40.8673 12.668 41.8357 11.895 40.3835 11.7005C38.9337 11.5081 35.5001 11.7005 35.5001 11.7005Z" fill="white"/>
<path d="M34.6086 12.1357L37.5098 5.38226H38.3154L41.1765 12.1357H40.4739L37.9126 6.15906L35.2453 12.1357H34.6086Z" fill="white"/>
<path d="M27.8225 11.7005C27.8225 11.7005 26.3234 11.7974 27.1941 12.668C28.064 13.5387 30.8699 14.6025 33.1905 12.668C33.1905 12.668 34.1588 11.895 32.7067 11.7005C31.2568 11.5081 27.8225 11.7005 27.8225 11.7005Z" fill="white"/>
<path d="M26.9311 12.1357L29.8324 5.38226H30.6372L33.4976 12.1357H32.7957L30.2351 6.15906L27.5678 12.1357H26.9311Z" fill="white"/>
</g>
<defs>
<clipPath id="clip0_1801_10669">
<rect width="79.4667" height="40.8756" fill="white"/>
</clipPath>
</defs>
</svg>
