<svg width="80" height="27" viewBox="0 0 80 27" fill="none" xmlns="http://www.w3.org/2000/svg">
<g clip-path="url(#clip0_1801_11041)">
<path d="M12.8638 4.97241C12.5753 2.73228 11.5571 0.933388 10.5218 0.933388C9.38481 0.933388 8.43445 2.52863 8.07807 4.97241H7.90836C5.65125 4.49723 4.42936 3.83538 4.42936 3.00381C4.42936 1.78192 7.04285 0.848535 10.3521 0.848535C13.6614 0.848535 16.5465 1.79889 16.5465 3.00381C16.5465 3.85235 15.1379 4.70088 12.8978 4.97241M20.9588 6.75434C20.9588 2.91896 16.3598 0 10.454 0C4.54815 0 0 2.90199 0 6.66948C0 10.437 4.59907 13.5087 10.5218 13.5087C16.4446 13.5087 20.9249 10.5218 20.9249 6.73737M11.2686 12.6601C12.4905 11.5401 13.0505 9.57147 13.0505 6.65251L13.1353 6.55069C16.1392 6.17733 18.2096 4.87059 18.2096 3.46202V3.3602C19.0581 4.31056 19.4315 5.34577 19.4315 6.4828C19.4315 9.67329 15.8676 12.3886 11.2686 12.6771M2.73229 3.27534C2.6644 3.33191 2.63046 3.39414 2.63046 3.46202C2.63046 4.87059 4.70089 6.09248 7.80653 6.55069L7.90836 6.65251V6.83919C7.90836 9.6733 8.57022 11.6249 9.69028 12.6601C4.88757 12.2868 1.51039 9.67329 1.51039 6.36401C1.51039 5.3288 1.90072 4.19176 2.74926 3.25837M11.9474 5.14212H9.11328L8.9266 5.0403C9.2151 3.46202 9.77514 2.51166 10.42 2.51166C11.1837 2.51166 11.6419 3.3602 11.9304 5.0403V5.14212H11.9474ZM12.1341 6.73737C12.0492 8.99447 11.3874 10.5897 10.5388 10.5897C9.58846 10.5897 8.94357 8.99447 8.85872 6.73737H8.94357C9.41875 6.73737 9.96182 6.83919 10.6237 6.83919C11.3874 6.83919 11.574 6.83919 12.1341 6.73737Z" fill="black"/>
<path d="M30.9885 3.83543H27.9847V11.5571H25.8125V3.83543H22.9105V2.07048H30.9885V3.83543Z" fill="black"/>
<path d="M39.2363 6.85614C39.2363 8.72292 38.1162 10.0466 36.521 10.0466C34.8239 10.0466 33.7208 8.82474 33.7208 6.85614C33.8057 4.97239 34.8409 3.66565 36.521 3.66565C38.1332 3.66565 39.2363 4.97239 39.2363 6.85614ZM41.5104 6.85614C41.5104 4.02203 39.2363 1.7819 36.521 1.7819C33.8057 1.7819 31.4468 4.02203 31.4468 6.94099C31.4468 9.69024 33.7039 11.9304 36.4361 11.9304C39.3381 11.9304 41.5104 9.69024 41.5104 6.85614Z" fill="black"/>
<path d="M47.6029 8.06113V11.5571H45.4476V8.06113L41.6971 2.07048H44.1239L46.4659 6.00768L48.9096 2.07048H51.4383L47.6029 8.06113Z" fill="black"/>
<path d="M59.143 6.85614C59.143 8.72292 58.1078 10.0466 56.4107 10.0466C54.7136 10.0466 53.6954 8.82474 53.6954 6.85614C53.6954 4.88754 54.8155 3.66565 56.4956 3.66565C58.1757 3.66565 59.126 4.97239 59.126 6.85614M61.468 6.85614C61.468 4.02203 59.2278 1.7819 56.3937 1.7819C53.5596 1.7819 51.4043 4.02203 51.4043 6.94099C51.4043 9.69024 53.5766 11.9304 56.3937 11.9304C59.2109 11.9304 61.468 9.69024 61.468 6.85614Z" fill="black"/>
<path d="M70.0382 3.83543H67.0343V11.5571H64.8791V3.83543H61.9771V2.07048H70.0382V3.83543Z" fill="black"/>
<path d="M74.5524 4.12392L75.8761 7.77261H73.1439L74.5524 4.12392ZM73.2457 2.05349L69.3933 11.5401H71.7523L72.5159 9.45271H76.555L77.3865 11.5401H79.7285L75.8931 2.05349H73.2457Z" fill="black"/>
<path d="M16.6483 19.4654L15.9355 21.3831H17.3441L16.6483 19.4654Z" fill="black"/>
<path d="M33.8057 19.5163L33.0929 21.434H34.5185L33.8227 19.5163H33.8057Z" fill="black"/>
<path d="M53.4917 19.2618H52.2359V20.5516H53.4238C53.9499 20.5516 54.2045 20.3649 54.2045 19.8897C54.2045 19.6352 54.0857 19.2618 53.4917 19.2618Z" fill="black"/>
<path d="M80 15.2228H0V26.4234H80V15.2228ZM7.45015 19.2788H5.02334V20.3649H7.14468V21.2134H5.02334V23.2499H4.00509V18.4133H7.45015V19.2788ZM8.77387 23.216H7.77259V18.3963H8.77387V23.216ZM13.5766 23.216H12.4565L10.2843 19.7709H10.2673V23.216H9.23208V18.3963H10.4031L12.5074 21.7565H12.5244V18.3963H13.5596V23.216H13.5766ZM18.0399 23.216L17.6835 22.2317H15.6131L15.2227 23.216H14.0008L15.9695 18.3963H17.3101L19.2618 23.216H18.0059H18.0399ZM23.9966 23.2669H22.8765L20.7043 19.8218H20.6873V23.2669H19.6521V18.4302H20.8231L22.9275 21.8074H22.9444V18.4302H23.9796V23.2669H23.9966ZM26.9325 22.5202C27.5435 22.5202 27.9678 22.1977 28.1035 21.6207H29.2066C28.986 22.6729 28.2393 23.4026 26.9156 23.4026C25.507 23.4026 24.5057 22.5371 24.5057 20.874C24.5057 19.2109 25.5749 18.3284 26.9325 18.3284C28.5108 18.3284 29.1557 19.3297 29.2066 20.0255H28.1035C28.0187 19.737 27.849 19.1939 26.9325 19.1939C26.4064 19.1939 25.6258 19.5164 25.6258 20.874C25.6258 21.7395 25.9992 22.5202 26.9325 22.5202ZM30.6491 23.2669H29.6479V18.4302H30.6491V23.2669ZM35.1973 23.2669L34.8409 22.2826H32.7874L32.3971 23.2669H31.1752L33.1438 18.4302H34.4845L36.4361 23.2669H35.1803H35.1973ZM40.1018 23.2669H36.6907V18.4302H37.709V22.3844H40.1018V23.2669ZM44.8367 23.3517C42.885 23.3517 42.5626 22.3335 42.5626 21.7395H43.6317C43.6317 22.011 43.7845 22.5202 44.7688 22.5202C45.2949 22.5202 45.8719 22.4014 45.8719 21.8922C45.8719 21.5189 45.4646 21.4171 44.9045 21.2983L44.3445 21.1625C43.479 20.9758 42.6474 20.8061 42.6474 19.737C42.6474 19.1939 42.9699 18.2435 44.7009 18.2435C46.3301 18.2435 46.7713 19.2109 46.7713 19.8049H45.7022C45.6682 19.6012 45.5834 19.0751 44.616 19.0751C44.1918 19.0751 43.6826 19.2109 43.6826 19.6521C43.6826 20.0255 44.0221 20.1103 44.2427 20.1612L45.5325 20.4497C46.2622 20.6194 46.941 20.874 46.941 21.7565C46.941 23.199 45.3118 23.3348 44.8536 23.3348M50.8782 23.2499H47.2126V18.4133H50.7764V19.2788H48.2138V20.297H50.5728V21.1455H48.2138V22.4014H50.8782V23.2499ZM54.1706 23.2499L53.2881 21.3492H52.2359V23.2499H51.2516V18.4133H53.6954C54.9852 18.4133 55.3755 19.2957 55.3755 19.9406C55.3755 20.9589 55.0361 21.1286 54.476 21.3492C54.476 21.3492 55.3755 23.216 55.4603 23.2329H54.1875L54.1706 23.2499ZM58.7866 23.2499H57.1404L55.2227 18.4133H56.6143L57.955 22.0789L59.2957 18.4133H60.6364L58.7527 23.2499H58.7866ZM62.045 23.199H61.0267V18.3793H62.045V23.199ZM64.93 22.4523C65.5409 22.4523 65.9652 22.1468 66.101 21.5528H67.2041C66.9835 22.605 66.2367 23.3348 64.913 23.3348C63.5045 23.3348 62.5032 22.4693 62.5032 20.7892C62.5032 19.1091 63.5723 18.2435 64.93 18.2435C66.5083 18.2435 67.1532 19.2448 67.2041 19.9406H66.101C66.0161 19.6521 65.8464 19.1091 64.93 19.1091C64.4039 19.1091 63.6233 19.4315 63.6233 20.7892C63.6233 21.6547 63.9966 22.4353 64.93 22.4353M71.4128 23.2329H67.7471V18.3963H71.294V19.2618H68.7314V20.28H71.0904V21.1286H68.7314V22.3844H71.4128V23.2329ZM73.9075 23.3687C71.9559 23.3687 71.6334 22.3505 71.6334 21.7565H72.7026C72.7026 22.028 72.8553 22.5371 73.8227 22.5371C74.3488 22.5371 74.9427 22.4183 74.9427 21.9092C74.9427 21.5359 74.5354 21.434 73.9754 21.3152L73.4154 21.1965C72.5499 21.0098 71.7353 20.8401 71.7353 19.7879C71.7353 19.2448 72.0577 18.2945 73.7887 18.2945C75.4179 18.2945 75.8591 19.2618 75.8591 19.8558H74.79C74.756 19.6351 74.6712 19.126 73.7039 19.126C73.2796 19.126 72.7705 19.2788 72.7705 19.703C72.7705 20.0764 73.1099 20.1612 73.3305 20.2121L74.6203 20.5007C75.35 20.6704 76.0289 20.9249 76.0289 21.8074C76.0289 23.2499 74.3997 23.3857 73.9415 23.3857" fill="black"/>
</g>
<defs>
<clipPath id="clip0_1801_11041">
<rect width="80" height="26.4234" fill="white"/>
</clipPath>
</defs>
</svg>
