<svg width="80" height="47" viewBox="0 0 80 47" fill="none" xmlns="http://www.w3.org/2000/svg">
<g clip-path="url(#clip0_1801_9860)">
<path d="M40.2673 30.8373L40.2255 28.9079C40.1462 28.9538 40.0585 28.9789 39.9582 28.9873H39.6659L35.0094 29.0248C35.2057 29.1418 35.3477 29.2963 35.4354 29.4926C35.5231 29.6763 35.569 29.9937 35.569 30.4364V36.279C35.569 36.3416 35.569 36.4001 35.569 36.4627C35.5565 36.7216 35.5189 36.9513 35.4521 37.1476C35.3811 37.3898 35.2349 37.5861 35.0136 37.749L38.6218 37.7072C38.3546 37.4608 38.1917 37.2061 38.129 36.9472C38.0998 36.8177 38.0748 36.6548 38.058 36.4627C38.0413 36.2748 38.0372 36.0534 38.0372 35.8029V33.7523L38.3044 33.7649C38.6511 33.7649 38.9142 33.7899 39.1021 33.8442C39.2984 33.8902 39.432 34.0238 39.503 34.2451H39.5698V32.3825H39.503C39.407 32.4285 39.2399 32.4494 39.0102 32.4494H38.0372V30.2902H38.8474C39.2023 30.2902 39.4905 30.3278 39.7118 30.3988C39.9415 30.4615 40.1295 30.6076 40.2715 30.8373M43.0654 30.9835C43.3159 30.7371 43.437 30.4281 43.437 30.0647C43.437 29.7264 43.3118 29.4341 43.0654 29.1877C42.8148 28.9371 42.5224 28.816 42.1883 28.816C41.825 28.816 41.5243 28.9455 41.2821 29.2002C41.0399 29.4592 40.9229 29.7682 40.9229 30.1315C40.9229 30.4531 41.0441 30.7371 41.2821 30.9835C41.5202 31.2341 41.8041 31.3552 42.1341 31.3552C42.5057 31.3552 42.819 31.2299 43.0654 30.9835ZM40.6431 37.7448L43.8797 37.7031C43.65 37.5068 43.5122 37.3272 43.4663 37.156C43.437 37.0056 43.4162 36.7718 43.412 36.4585C43.412 36.4001 43.412 36.3374 43.412 36.2748L43.3702 31.4178C43.2449 31.4972 43.1071 31.5515 42.9568 31.5765C42.8148 31.6058 42.6519 31.6183 42.464 31.6183L40.6515 31.66C40.8227 31.802 40.9355 31.944 40.9981 32.086C41.0691 32.2197 41.1067 32.4786 41.1067 32.8586V36.279C41.1067 36.3416 41.1067 36.4043 41.1067 36.4627C41.1025 36.7759 41.0775 37.0098 41.0399 37.1602C41.0065 37.3356 40.8728 37.5318 40.639 37.7448M48.3191 37.7448L51.5556 37.7031C51.28 37.4734 51.1255 37.2019 51.0921 36.8887V33.7607C51.0921 33.4308 51.0587 33.1426 50.996 32.8962C50.9334 32.6498 50.7956 32.4034 50.5826 32.1654C50.3779 31.9148 50.1232 31.7352 49.81 31.6183C49.5009 31.5013 49.146 31.4471 48.7576 31.4471C48.4109 31.4471 48.0977 31.5097 47.8096 31.6308C47.5339 31.7477 47.3042 31.919 47.1163 32.1487L47.0787 31.4136C46.8908 31.493 46.7321 31.5473 46.5985 31.5723C46.4648 31.6016 46.3103 31.6141 46.1307 31.6141L44.3475 31.6559C44.5145 31.7979 44.6356 31.944 44.7066 32.0944C44.7776 32.2364 44.8152 32.4911 44.8152 32.8545V36.2748C44.8152 36.3374 44.8152 36.4001 44.8152 36.4585C44.811 36.7843 44.786 37.0182 44.7526 37.1685C44.715 37.3439 44.5855 37.536 44.3558 37.7406L47.5882 37.6989C47.3126 37.4692 47.1581 37.1977 47.1205 36.8845V34.0238C47.1205 33.8359 47.1288 33.6646 47.1455 33.5059C47.1706 33.3347 47.2374 33.176 47.346 33.0257C47.4629 32.8753 47.6467 32.8002 47.9056 32.8002C48.2147 32.8002 48.4276 32.892 48.5446 33.08C48.6657 33.2637 48.7367 33.4099 48.7576 33.5185C48.7743 33.6271 48.7826 33.7941 48.7826 34.0238V36.2706C48.7826 36.3333 48.7826 36.3959 48.7826 36.4544C48.7743 36.7801 48.7534 37.014 48.7158 37.1643C48.6824 37.3397 48.5488 37.5318 48.3149 37.7365M58.3796 37.8701L58.9267 36.7133C58.5007 36.7133 58.2126 36.6256 58.0581 36.4585C58.0288 36.421 57.9996 36.3834 57.9829 36.3416C57.8785 36.0869 57.8242 35.6609 57.8242 35.0637V33.9987C57.8242 33.5268 57.7741 33.1301 57.678 32.8002C57.5903 32.4619 57.4066 32.1904 57.1309 31.99C56.8636 31.7853 56.5671 31.6433 56.2372 31.564C55.9198 31.4846 55.5815 31.4471 55.2391 31.4471C54.93 31.4471 54.6294 31.4638 54.3496 31.4972C54.0739 31.5222 53.8108 31.5682 53.5644 31.6308L52.938 33.151C53.2053 33.0173 53.4767 32.9087 53.7607 32.8294C54.053 32.75 54.337 32.7083 54.6127 32.7083C54.8173 32.7083 55.0052 32.7584 55.1848 32.8545C55.3727 32.9422 55.4646 33.08 55.4646 33.2637C55.4646 33.5477 55.0679 33.7941 54.2786 33.9987C53.4892 34.195 52.8753 34.408 52.441 34.6377C52.015 34.8674 51.802 35.3351 51.802 36.0367C51.802 36.1787 51.8188 36.3207 51.8522 36.4585C51.8897 36.6172 51.9524 36.7759 52.0401 36.9263C52.203 37.2103 52.3909 37.4233 52.6122 37.5652C52.8419 37.6989 53.08 37.7866 53.3305 37.8325C53.5895 37.8868 53.8442 37.9119 54.1032 37.9119L54.7839 37.8743L55.356 36.7175L55.0887 36.7467C54.8507 36.7467 54.6544 36.659 54.5041 36.492C54.4957 36.4794 54.4874 36.4711 54.479 36.4627C54.3454 36.2998 54.2786 36.1036 54.2786 35.8822C54.2786 35.6859 54.3454 35.5356 54.479 35.427C54.6127 35.3101 54.8006 35.1973 55.0386 35.0804L55.4646 34.8799V35.5982C55.4646 35.9449 55.4855 36.233 55.5273 36.4585C55.5356 36.5003 55.544 36.5421 55.5565 36.5797C55.6275 36.8177 55.7862 37.0599 56.0367 37.3021C56.2957 37.5402 56.563 37.7031 56.8469 37.7824C57.1309 37.8701 57.465 37.916 57.8451 37.916L58.3754 37.8785L58.3796 37.8701ZM62.9568 37.7365L66.1892 37.6947C65.9136 37.465 65.759 37.1936 65.7256 36.8803V33.7523C65.7256 33.4224 65.6964 33.1343 65.6296 32.8879C65.5669 32.6415 65.4333 32.3951 65.2161 32.157C65.0115 31.9064 64.7567 31.7269 64.4435 31.6099C64.1345 31.493 63.7837 31.4387 63.3911 31.4387C63.0445 31.4387 62.7313 31.5014 62.4473 31.6225C62.1716 31.7394 61.9419 31.9106 61.754 32.1403L61.7123 31.4053C61.5243 31.4846 61.3656 31.5389 61.232 31.564C61.0983 31.5932 60.9438 31.6058 60.7643 31.6058L58.981 31.6475C59.148 31.7895 59.2692 31.9357 59.3402 32.086C59.4111 32.228 59.4487 32.4828 59.4487 32.8461V36.2664C59.4487 36.3291 59.4487 36.3917 59.4487 36.4502C59.4446 36.7759 59.4195 37.0098 59.3819 37.1602C59.3485 37.3356 59.2149 37.5277 58.981 37.7323L62.2176 37.6905C61.9419 37.4608 61.7874 37.1894 61.7498 36.8762V34.0154C61.7498 33.8275 61.7582 33.6563 61.7791 33.4976C61.8041 33.3264 61.871 33.1677 61.9795 33.0173C62.0965 32.867 62.2802 32.7918 62.5392 32.7918C62.8482 32.7918 63.0612 32.8837 63.1781 33.0716C63.3034 33.2554 63.3744 33.4015 63.3911 33.5101C63.4078 33.6187 63.4162 33.7857 63.4162 34.0154V36.2623C63.4162 36.3249 63.4162 36.3875 63.4162 36.446C63.412 36.7718 63.3869 37.0056 63.3493 37.156C63.3159 37.3314 63.1781 37.5235 62.9484 37.7281M70.5074 36.4627C70.5074 36.4627 70.4782 36.4502 70.4615 36.446H67.3335C67.4755 36.659 67.6509 36.8553 67.8555 37.0349C68.5195 37.6112 69.3255 37.8993 70.2777 37.8993C70.7037 37.8993 71.1046 37.8618 71.4763 37.7782C71.848 37.6989 72.2113 37.5694 72.5705 37.394L72.821 36.446L72.9547 35.9449C72.7166 36.1328 72.4368 36.2831 72.1153 36.4001C72.0693 36.4168 72.0192 36.4335 71.9691 36.4502C71.7102 36.5337 71.4512 36.5713 71.1965 36.5713C70.9543 36.5713 70.7246 36.5379 70.5032 36.4669M69.5594 35.3477C69.4717 35.0428 69.4258 34.7421 69.4258 34.4414C69.4258 34.1741 69.4508 33.9319 69.4926 33.7064C69.5469 33.4851 69.6638 33.2554 69.8517 33.0173C70.0397 32.7751 70.3487 32.6582 70.7831 32.6582C71.0503 32.6582 71.2884 32.6958 71.5014 32.7668C71.7143 32.8377 71.9399 32.9463 72.1821 33.1008V31.5682C72.0484 31.5682 71.7979 31.5473 71.422 31.5014C71.0503 31.4554 70.7789 31.4345 70.6076 31.4345C69.526 31.4345 68.6281 31.7269 67.9181 32.3115C67.2082 32.8879 66.8532 33.7022 66.8532 34.7588C66.8532 35.4061 67.0119 35.9699 67.3293 36.446H70.4573C70.261 36.3625 70.0898 36.2414 69.9436 36.0743C69.7849 35.8864 69.6555 35.6442 69.5552 35.3435M78.9392 36.446H79.8204L79.9791 35.9825C79.6074 36.1704 79.2608 36.3249 78.9392 36.446ZM75.7862 33.5602C75.8196 33.2679 75.9198 33.0299 76.0785 32.8545C76.2497 32.679 76.4753 32.5872 76.7592 32.5872C77.0683 32.5872 77.298 32.679 77.44 32.867C77.582 33.0466 77.653 33.2763 77.653 33.5602H75.7862ZM75.7862 34.692H79.9123C79.9123 33.6438 79.645 32.8419 79.1105 32.2823C78.5884 31.7143 77.7991 31.4304 76.7551 31.4304C75.8238 31.4304 75.047 31.731 74.4247 32.3324C73.8025 32.9338 73.4934 33.7022 73.4934 34.6335C73.4934 35.1556 73.5937 35.6525 73.7983 36.1244C73.8484 36.2372 73.9027 36.3416 73.9612 36.4418C74.1449 36.7551 74.383 37.014 74.6628 37.2144C75.0345 37.4817 75.4437 37.6613 75.8864 37.749C76.3374 37.8451 76.8302 37.8952 77.3648 37.8952C77.7198 37.8952 78.0789 37.8618 78.4423 37.7908C78.814 37.7198 79.1522 37.6195 79.4529 37.4859L79.8121 36.446H78.9309C78.8891 36.4627 78.8515 36.4752 78.8139 36.4878C78.459 36.6047 78.0998 36.6632 77.7365 36.6632C77.3731 36.6632 77.0432 36.5922 76.7634 36.446C76.5964 36.3625 76.4502 36.2497 76.3124 36.1161C75.9574 35.7444 75.782 35.2683 75.782 34.692" fill="#14AAE2"/>
<path d="M30.5659 29.029L33.7482 28.9873L33.4391 29.3214C33.3306 29.4466 33.2804 29.6012 33.2804 29.7891V29.9353L33.9069 35.6985C33.957 36.2205 34.028 36.6298 34.1073 36.9221C34.195 37.2144 34.3704 37.4775 34.6377 37.7072L31.1255 37.7448C31.2591 37.5945 31.3635 37.4358 31.4429 37.2646C31.5306 37.0892 31.5682 36.9179 31.5473 36.7592L31.067 32.086L29.2963 37.891C29.1 37.8451 28.8912 37.7699 28.6699 37.6655C28.4569 37.5485 28.2314 37.4107 27.9891 37.252C27.7511 37.0933 27.5673 36.9012 27.4421 36.6799C27.3168 36.4502 27.1664 36.0994 26.991 35.6275L25.688 32.086L25.1952 36.6757C25.1785 36.897 25.2161 37.0975 25.3164 37.2771C25.4249 37.4567 25.5753 37.5987 25.7799 37.7031L23.1572 37.7406C23.4078 37.5193 23.5707 37.2771 23.65 37.0098C23.7294 36.7342 23.7962 36.3458 23.8505 35.8363L24.4895 30.2443V30.0856C24.4895 29.668 24.3224 29.313 23.9841 29.0207L27.0453 28.9789L29.0165 34.1199L30.5617 29.0207L30.5659 29.029ZM16.2539 35.4437C16.4586 35.7903 16.7133 36.0702 17.0265 36.2831C17.3356 36.4878 17.678 36.588 18.0497 36.588C18.3963 36.588 18.7263 36.5045 19.0353 36.3374C19.3443 36.1704 19.5991 35.949 19.7954 35.6859C20 35.4187 20.1378 35.1347 20.2088 34.834C20.2798 34.5333 20.3174 34.1867 20.3174 33.7983C20.3174 32.867 20.1253 32.0192 19.7327 31.2549C19.3443 30.4907 18.7304 30.1107 17.8952 30.1107C17.1685 30.1107 16.6089 30.3988 16.2163 30.9751C15.8238 31.5515 15.6317 32.2238 15.6317 32.9881C15.6317 33.3681 15.6901 33.7941 15.8071 34.2618C15.924 34.7254 16.0743 35.118 16.2581 35.4479M18.0539 28.7784C19.4989 28.7784 20.6682 29.1794 21.5577 29.977C22.4515 30.7747 22.9025 31.8939 22.9025 33.3305C22.9025 34.7672 22.418 35.853 21.4533 36.6841C20.4844 37.511 19.3026 37.9202 17.8994 37.9202C16.4961 37.9202 15.3477 37.5068 14.4247 36.6715C13.5101 35.8279 13.0549 34.7212 13.0549 33.3431C13.0549 31.9649 13.5394 30.8749 14.5083 30.0438C15.4855 29.2002 16.6674 28.7784 18.0622 28.7784M5.01566 37.8993C4.79432 37.8701 4.56045 37.8158 4.30988 37.7281C4.07183 37.6279 3.7962 37.4942 3.48298 37.3147C3.17394 37.1309 2.94007 36.9096 2.78973 36.6632C2.63938 36.4043 2.48486 36.0033 2.32199 35.4646L0.868657 30.4865C0.768428 30.1399 0.659846 29.8601 0.534558 29.6471C0.417624 29.4341 0.242222 29.2295 0 29.0332L2.88996 28.9914L4.51451 35.0595L5.48758 31.4136C5.52099 31.2633 5.56275 31.0796 5.60869 30.8666C5.66298 30.6536 5.68804 30.4991 5.68804 30.3988C5.68804 30.1858 5.62539 29.9394 5.5001 29.6555C5.38317 29.3631 5.24535 29.1543 5.08666 29.029L7.88056 28.9873C7.84715 29.1125 7.82627 29.2002 7.82627 29.2545C7.82627 29.4299 7.8388 29.597 7.86386 29.7473C7.90144 29.8977 7.98914 30.2151 8.13113 30.6912L9.40906 35.0553L10.5659 31.0879C10.6452 30.8332 10.7037 30.6285 10.7413 30.474C10.7747 30.3237 10.7956 30.1733 10.7956 30.023C10.7956 29.835 10.7496 29.6596 10.6619 29.4884C10.5826 29.3214 10.474 29.1668 10.3404 29.0248L12.5914 28.9831L9.8601 37.916C9.6304 37.8618 9.40906 37.7949 9.19608 37.7031C8.98309 37.6154 8.73669 37.4942 8.4527 37.3439C8.16872 37.1852 7.94738 36.9889 7.78868 36.7592C7.62999 36.5295 7.49217 36.2163 7.37524 35.8279L6.38964 32.6081L5.00313 37.891L5.01566 37.8993Z" fill="#213D75"/>
<path d="M40 1.02735C56.3333 1.02735 68.7576 6.45646 68.7576 12.4869C68.7576 18.5174 56.3333 23.9465 40 23.9465C23.6667 23.9465 11.2466 18.5174 11.2466 12.4869C11.2466 6.45646 23.6709 1.02735 40 1.02735Z" fill="#EDEDED"/>
<path d="M40 0C47.1957 0 53.9445 1.06912 59.1898 2.90248C58.8139 3.12382 58.4297 3.35352 58.0413 3.59574C53.1677 2.00877 46.9367 1.02735 40 1.02735C23.6709 1.02735 11.2466 6.45646 11.2466 12.4869C11.2466 18.5174 23.6709 23.9465 40 23.9465C56.3291 23.9465 68.7576 18.5174 68.7576 12.4869C68.7576 10.8039 67.7887 9.17101 66.043 7.68845C65.9678 7.60075 65.9261 7.46293 65.9261 7.34182C65.9261 7.06202 66.1516 6.8365 66.4314 6.8365C66.54 6.8365 66.6653 6.86991 66.753 6.92838C68.6866 8.58217 69.7849 10.4573 69.7849 12.4869C69.7849 19.6826 55.9992 24.9739 40.0042 24.9739C24.0092 24.9739 10.2193 19.6784 10.2193 12.4869C10.2193 5.29547 24.0008 0 40 0Z" fill="#14AAE2"/>
<path d="M32.7417 15.2307C29.1251 17.3021 20.9021 25.3163 16.6047 23.5414C11.2174 21.3197 20.5638 13.2303 21.8208 12.0025C26.1182 7.81374 29.0541 5.14512 29.0541 5.14512C30.8039 3.69597 35.995 4.08853 33.1635 6.38129C30.4531 8.57799 19.0061 18.2794 19.478 19.5573C20.4928 22.3136 38.8808 4.9029 40.3717 10.2652C40.6724 11.3468 37.2771 16.6089 36.9096 18.6678C36.2038 22.6603 56.3959 5.06577 64.4101 2.5308C68.4778 1.24452 70.048 3.68344 66.8156 4.62309C58.1082 7.14554 41.6956 23.4997 35.3936 23.4287C30.6411 23.3744 31.5974 18.7054 33.3848 15.4228C33.3848 15.4228 33.9277 14.55 32.7375 15.2349" fill="#BFE2F7"/>
<path d="M32.6081 13.4558C28.9914 15.5272 20.7684 23.5414 16.4711 21.7707C11.0837 19.549 20.4302 11.4596 21.6872 10.2318C25.9845 6.04301 28.9204 3.3744 28.9204 3.3744C30.6703 1.92107 35.8613 2.31781 33.0299 4.61057C30.3195 6.80727 18.9518 16.4836 19.3443 17.7866C20.071 20.2172 38.2126 3.16141 39.7077 8.51952C40.0084 9.60117 36.6131 14.8632 36.2456 16.9221C35.5356 20.9104 56.0451 3.08206 64.0593 0.547088C68.127 -0.739193 69.9144 1.91272 66.682 2.84819C57.9745 5.37064 41.5619 21.7248 35.26 21.6538C30.5116 21.5995 31.4679 16.9305 33.2554 13.6479C33.2554 13.6479 33.7983 12.7793 32.6081 13.46" fill="#213D75"/>
<path d="M74.7254 46.4773H75.118L75.4855 44.6398H75.498C75.5607 44.8486 75.6734 45.0115 75.8363 45.1284C75.9992 45.2412 76.1871 45.2996 76.4001 45.2996C76.6548 45.2996 76.8762 45.2412 77.0725 45.1284C77.2687 45.0115 77.4274 44.8653 77.5527 44.6774C77.678 44.4936 77.7741 44.2848 77.8409 44.0509C77.9077 43.8171 77.9369 43.5832 77.9369 43.3493C77.9369 43.1781 77.9161 43.0194 77.8701 42.8691C77.8284 42.7187 77.7615 42.5893 77.6738 42.4807C77.5861 42.3679 77.4776 42.2802 77.3481 42.2176C77.2186 42.1549 77.0683 42.1215 76.8971 42.1215C76.6924 42.1215 76.5003 42.1675 76.3207 42.2635C76.1453 42.3554 76.0033 42.4849 75.9031 42.6477H75.8906C75.9031 42.5934 75.9156 42.5266 75.924 42.4473C75.9365 42.3721 75.9449 42.2844 75.9532 42.1967H75.5774C75.5648 42.3094 75.5481 42.4306 75.5273 42.5517C75.5064 42.6728 75.4813 42.7897 75.4562 42.9067L74.7129 46.4815L74.7254 46.4773ZM75.7235 43.4997C75.7778 43.3159 75.853 43.1447 75.9532 42.9902C76.0535 42.8315 76.1746 42.702 76.3166 42.6018C76.4586 42.4974 76.6214 42.4473 76.7968 42.4473C76.9263 42.4473 77.039 42.4723 77.1309 42.5183C77.2228 42.5642 77.3022 42.631 77.3606 42.7104C77.4191 42.7897 77.465 42.8858 77.4901 42.9985C77.5193 43.1071 77.5318 43.224 77.5318 43.3493C77.5318 43.5247 77.511 43.7085 77.465 43.9006C77.4191 44.0927 77.3523 44.2681 77.2604 44.431C77.1685 44.5939 77.0516 44.7233 76.9096 44.8277C76.7676 44.9321 76.5964 44.9822 76.4043 44.9822C76.2748 44.9822 76.1579 44.953 76.0618 44.8987C75.9658 44.8444 75.8864 44.7693 75.8238 44.6774C75.7611 44.5855 75.7152 44.4811 75.6859 44.3683C75.6567 44.2556 75.64 44.1386 75.64 44.0175C75.64 43.8588 75.6651 43.6876 75.7194 43.5039M74.7003 42.1967H74.3078L74.0113 43.6375C73.9737 43.8129 73.9278 43.9799 73.8609 44.1386C73.7983 44.3015 73.7189 44.4435 73.6271 44.5688C73.5352 44.6941 73.4224 44.7943 73.2971 44.8695C73.1718 44.9447 73.0257 44.9822 72.8628 44.9822C72.6707 44.9822 72.5287 44.9279 72.4285 44.8235C72.3282 44.7191 72.2781 44.5771 72.2781 44.3976C72.2781 44.2932 72.2865 44.2055 72.2948 44.1303C72.3074 44.0551 72.3241 43.9674 72.3408 43.8672L72.6874 42.1967H72.2948L71.9566 43.7962C71.9357 43.8922 71.9148 43.9925 71.8981 44.1011C71.8772 44.2096 71.8689 44.3182 71.8689 44.4184C71.8689 44.7024 71.9607 44.9238 72.1403 45.0741C72.3199 45.2245 72.5454 45.2996 72.821 45.2996C73.0132 45.2996 73.1927 45.2537 73.3681 45.1576C73.5435 45.0616 73.6813 44.9321 73.7858 44.7693H73.7983C73.7816 44.8235 73.769 44.8904 73.7607 44.9697C73.7523 45.0449 73.7398 45.1326 73.7356 45.2286H74.1115C74.1199 45.1535 74.1282 45.0783 74.1407 45.0073C74.1491 44.9363 74.1658 44.8486 74.1867 44.7442L74.7087 42.1925L74.7003 42.1967ZM68.5446 44.5061C68.5989 44.669 68.6824 44.8068 68.7868 44.9238C68.8912 45.0407 69.0207 45.1326 69.171 45.1994C69.3214 45.2662 69.4884 45.2996 69.6763 45.2996C69.9394 45.2996 70.1733 45.2495 70.3821 45.1493C70.5909 45.0491 70.7663 44.9112 70.9125 44.74C71.0587 44.5688 71.1673 44.3725 71.2466 44.147C71.3218 43.9215 71.3635 43.6793 71.3635 43.4287C71.3635 43.2366 71.3385 43.057 71.2842 42.8983C71.2299 42.7354 71.1506 42.5976 71.0503 42.4849C70.9459 42.3679 70.8206 42.2802 70.6745 42.2217C70.5241 42.1591 70.3529 42.1299 70.1608 42.1299C69.9019 42.1299 69.6722 42.18 69.4633 42.276C69.2545 42.3721 69.0791 42.5057 68.9288 42.677C68.7826 42.844 68.6699 43.0445 68.5905 43.27C68.5112 43.4955 68.4694 43.7335 68.4694 43.9883C68.4694 44.1804 68.4986 44.3558 68.5529 44.5145M68.9538 43.4704C69.004 43.2783 69.0791 43.1113 69.1794 42.9609C69.2796 42.8106 69.4091 42.6895 69.5636 42.5934C69.7181 42.5016 69.9019 42.4556 70.1107 42.4556C70.2568 42.4556 70.3863 42.4807 70.4907 42.5308C70.5951 42.5809 70.6828 42.6477 70.7538 42.7354C70.8206 42.8231 70.8707 42.9275 70.9042 43.0486C70.9376 43.1698 70.9543 43.2992 70.9543 43.4454C70.9543 43.625 70.925 43.8045 70.8749 43.9883C70.8206 44.1721 70.7413 44.3391 70.6369 44.4894C70.5325 44.6398 70.403 44.7609 70.2485 44.8528C70.0981 44.9447 69.9227 44.9948 69.7265 44.9948C69.597 44.9948 69.4759 44.9697 69.3715 44.9196C69.2671 44.8695 69.1752 44.8027 69.1042 44.7191C69.029 44.6356 68.9747 44.5354 68.9371 44.4226C68.8954 44.3057 68.8787 44.1846 68.8787 44.0551C68.8787 43.863 68.9037 43.6709 68.9538 43.4788M66.4272 45.2453H66.824L67.133 43.7503C67.1622 43.6166 67.1998 43.4746 67.2458 43.3326C67.2917 43.1865 67.3544 43.057 67.4295 42.9359C67.5047 42.8148 67.5966 42.7187 67.7052 42.6435C67.8137 42.5684 67.9474 42.5308 68.1019 42.5308C68.1562 42.5308 68.2105 42.5308 68.2648 42.5391C68.3191 42.5475 68.3692 42.56 68.4235 42.5767L68.5112 42.18C68.4611 42.1716 68.4068 42.1633 68.3566 42.1549C68.3065 42.1424 68.2481 42.1382 68.1854 42.1382C67.985 42.1382 67.8221 42.1883 67.6843 42.2886C67.5506 42.3888 67.4337 42.5141 67.3376 42.6686H67.3251C67.3418 42.6143 67.3543 42.5475 67.3627 42.4681C67.3711 42.3888 67.3836 42.3053 67.3878 42.2092H67.0119C67.0035 42.3053 66.991 42.3972 66.9785 42.4849C66.966 42.5726 66.9493 42.6603 66.9284 42.748L66.4189 45.2412L66.4272 45.2453ZM62.9192 46.327C63.1029 46.4063 63.2742 46.4606 63.437 46.4899C63.5999 46.5191 63.7711 46.5316 63.9465 46.5316C64.2556 46.5316 64.5062 46.4982 64.6983 46.4272C64.8904 46.3562 65.0449 46.256 65.1618 46.1224C65.2788 45.9887 65.3748 45.8175 65.4416 45.617C65.5085 45.4166 65.5711 45.1827 65.6254 44.9196L66.0764 42.8315C66.1098 42.702 66.1349 42.5809 66.1599 42.4723C66.185 42.3637 66.2017 42.276 66.2184 42.2134H65.8426C65.7841 42.418 65.734 42.6268 65.7006 42.8315H65.688C65.663 42.7062 65.6212 42.6018 65.5586 42.5141C65.4959 42.4264 65.4249 42.3554 65.3372 42.3011C65.2537 42.2468 65.1535 42.205 65.0449 42.18C64.9363 42.1549 64.8194 42.1424 64.7024 42.1424C64.4477 42.1424 64.2263 42.1967 64.0342 42.3011C63.8421 42.4055 63.6793 42.5433 63.5498 42.7187C63.4203 42.8899 63.3201 43.0904 63.2533 43.3159C63.1865 43.5414 63.1572 43.7753 63.1572 44.0134C63.1572 44.1762 63.1781 44.3349 63.2241 44.4811C63.27 44.6314 63.3368 44.7651 63.4245 44.8778C63.5122 44.9906 63.6291 45.0825 63.7628 45.1493C63.9006 45.2161 64.0551 45.2495 64.2347 45.2495C64.6482 45.2495 64.9864 45.1034 65.2537 44.811H65.2662L65.2203 45.0324C65.1744 45.2245 65.1242 45.3915 65.0699 45.5377C65.0115 45.6838 64.9363 45.8091 64.8403 45.9094C64.7442 46.0096 64.6273 46.0848 64.4811 46.1391C64.3391 46.1892 64.1595 46.2142 63.9382 46.2142C63.7711 46.2142 63.6124 46.1975 63.4621 46.1558C63.3118 46.1182 63.1614 46.0514 63.0111 45.9511L62.9108 46.3312L62.9192 46.327ZM63.6459 43.483C63.6918 43.2992 63.767 43.1322 63.8588 42.9818C63.9549 42.8315 64.0718 42.7062 64.2138 42.606C64.3558 42.5057 64.5187 42.4598 64.7066 42.4598C64.8444 42.4598 64.9655 42.4849 65.0699 42.535C65.1744 42.5851 65.2579 42.6519 65.3247 42.7396C65.3915 42.8273 65.4416 42.9275 65.475 43.0445C65.5085 43.1614 65.5252 43.2867 65.5252 43.4203C65.5252 43.5957 65.5001 43.7711 65.4542 43.9507C65.4082 44.1303 65.3331 44.289 65.2412 44.431C65.1451 44.573 65.0282 44.6899 64.882 44.7818C64.74 44.8737 64.573 44.9196 64.3809 44.9196C64.2431 44.9196 64.1219 44.8945 64.0175 44.8486C63.9131 44.8027 63.8296 44.7358 63.7628 44.6523C63.696 44.5688 63.65 44.4727 63.6166 44.36C63.5832 44.2472 63.5707 44.1303 63.5707 44.0008C63.5707 43.8338 63.5957 43.6584 63.6417 43.4788M35.2809 45.2412H35.6734L36.2581 42.5266H37.0056L37.0808 42.205H36.3249L36.3708 41.9795C36.3959 41.8626 36.421 41.7457 36.4502 41.6287C36.4794 41.5118 36.517 41.4116 36.5671 41.3239C36.6131 41.2362 36.6757 41.1652 36.7509 41.1109C36.8261 41.0566 36.9179 41.0315 37.0265 41.0315C37.1184 41.0315 37.1852 41.0399 37.2353 41.0566C37.2813 41.0733 37.3147 41.0858 37.3314 41.09L37.4191 40.7726C37.3523 40.7434 37.2813 40.7267 37.2144 40.7183C37.1435 40.71 37.0725 40.7058 37.0015 40.7058C36.8219 40.7058 36.6757 40.7434 36.563 40.8185C36.446 40.8937 36.3541 40.9898 36.279 41.1067C36.2038 41.2236 36.1453 41.3531 36.1036 41.4951C36.0618 41.6371 36.0284 41.7707 35.9992 41.9002L35.9323 42.205H35.285L35.2099 42.5266H35.8655L35.2809 45.2412ZM31.8522 44.5187C31.9064 44.6815 31.99 44.8194 32.0944 44.9363C32.1988 45.0532 32.3283 45.1451 32.4786 45.2119C32.6289 45.2788 32.796 45.3122 32.9839 45.3122C33.247 45.3122 33.4809 45.262 33.6897 45.1618C33.8985 45.0616 34.0739 44.9238 34.2201 44.7525C34.3663 44.5813 34.4748 44.385 34.5542 44.1595C34.6335 43.934 34.6711 43.6918 34.6711 43.4412C34.6711 43.2491 34.6461 43.0695 34.5918 42.9108C34.5375 42.748 34.4581 42.6101 34.3579 42.4974C34.2535 42.3804 34.1282 42.2927 33.982 42.2343C33.8317 42.1716 33.6605 42.1424 33.4684 42.1424C33.2094 42.1424 32.9756 42.1925 32.7709 42.2886C32.5621 42.3846 32.3867 42.5183 32.2405 42.6895C32.0944 42.8565 31.9816 43.057 31.9023 43.2825C31.8229 43.508 31.7853 43.7461 31.7853 44.0008C31.7853 44.1929 31.8146 44.3683 31.8689 44.527M32.2698 43.483C32.3199 43.2909 32.3951 43.1238 32.4953 42.9735C32.5955 42.8231 32.725 42.702 32.8795 42.606C33.034 42.5141 33.2178 42.4681 33.4266 42.4681C33.5728 42.4681 33.6981 42.4932 33.8066 42.5433C33.9152 42.5934 33.9987 42.6603 34.0697 42.748C34.1366 42.8357 34.1867 42.9401 34.2201 43.0612C34.2535 43.1823 34.2702 43.3117 34.2702 43.4579C34.2702 43.6375 34.241 43.8171 34.1909 44.0008C34.1366 44.1846 34.0572 44.3516 33.9528 44.502C33.8484 44.6523 33.7189 44.7734 33.5644 44.8653C33.4099 44.9572 33.2387 45.0073 33.0424 45.0073C32.9129 45.0073 32.7918 44.9822 32.6874 44.9321C32.583 44.882 32.4953 44.8152 32.4201 44.7317C32.345 44.6481 32.2907 44.5479 32.2489 44.4352C32.2071 44.3182 32.1904 44.1971 32.1904 44.0676C32.1904 43.8755 32.2155 43.6834 32.2656 43.4913M28.081 45.2579H28.4819L28.791 43.7628C28.8202 43.6291 28.8578 43.4871 28.9037 43.3452C28.9497 43.199 29.0123 43.0695 29.0875 42.9484C29.1627 42.8273 29.2545 42.7313 29.3631 42.6561C29.4717 42.5809 29.6053 42.5433 29.7599 42.5433C29.8142 42.5433 29.8684 42.5433 29.9227 42.5517C29.977 42.56 30.0271 42.5726 30.0814 42.5893L30.1691 42.1925C30.119 42.1842 30.0647 42.1758 30.0146 42.1675C29.9645 42.1549 29.906 42.1508 29.8434 42.1508C29.6429 42.1508 29.4801 42.2009 29.3422 42.3011C29.2086 42.4013 29.0917 42.5266 28.9956 42.6811H28.9831C28.9998 42.6268 29.0123 42.56 29.0207 42.4807C29.029 42.4013 29.0374 42.3178 29.0457 42.2217H28.6699C28.6615 42.3178 28.649 42.4097 28.6365 42.4974C28.6239 42.5851 28.6072 42.6728 28.5863 42.7605L28.0727 45.2537L28.081 45.2579ZM27.772 43.8463C27.7803 43.7502 27.7887 43.6542 27.797 43.5623C27.8054 43.4663 27.8137 43.3744 27.8137 43.2825C27.8137 42.9359 27.726 42.6644 27.5465 42.4598C27.3669 42.2552 27.0996 42.1549 26.7446 42.1549C26.4982 42.1549 26.2811 42.2092 26.0848 42.3178C25.8927 42.4264 25.7298 42.5684 25.592 42.748C25.4542 42.9275 25.3498 43.1322 25.2788 43.366C25.2078 43.5999 25.1702 43.8463 25.1702 44.0969C25.1702 44.2973 25.2036 44.4769 25.2662 44.6314C25.3289 44.786 25.4166 44.9154 25.5335 45.0198C25.6463 45.1242 25.7799 45.2036 25.9303 45.2537C26.0806 45.3038 26.2476 45.3289 26.423 45.3289C26.5442 45.3289 26.6527 45.3247 26.7488 45.3122C26.8407 45.3038 26.9242 45.2871 26.9952 45.2704C27.0662 45.2537 27.1288 45.237 27.1831 45.2161C27.2374 45.1952 27.2834 45.1785 27.3293 45.1618L27.3585 44.8068C27.2416 44.857 27.108 44.9029 26.9701 44.9447C26.8281 44.9864 26.6653 45.0073 26.4732 45.0073C26.2017 45.0073 25.9804 44.9279 25.8091 44.7693C25.6379 44.6106 25.5502 44.385 25.5502 44.0927C25.5502 44.0092 25.5586 43.9298 25.5669 43.8505H27.7762L27.772 43.8463ZM25.6296 43.5247C25.6546 43.3869 25.6964 43.2533 25.7632 43.128C25.83 43.0027 25.9094 42.8899 26.0054 42.7939C26.1015 42.6978 26.2101 42.6185 26.3354 42.5642C26.4606 42.5057 26.5943 42.4765 26.7446 42.4765C26.991 42.4765 27.1664 42.5517 27.275 42.6978C27.3836 42.8482 27.4379 43.0445 27.4379 43.295C27.4379 43.3326 27.4379 43.366 27.4337 43.4036C27.4337 43.4412 27.4253 43.483 27.4212 43.5247H25.6296ZM23.1071 40.7935H22.7146L21.8918 44.6356C21.871 44.74 21.8501 44.8402 21.8208 44.9405C21.7916 45.0407 21.7624 45.1451 21.7331 45.2537H22.1215C22.1466 45.1451 22.1716 45.0449 22.1967 44.953C22.2259 44.8611 22.2426 44.7818 22.251 44.7191H22.2635C22.2886 44.786 22.322 44.857 22.3637 44.928C22.4055 44.9989 22.464 45.0658 22.535 45.1242C22.606 45.1827 22.6978 45.2328 22.8064 45.2704C22.915 45.308 23.0487 45.3289 23.2032 45.3289C23.4579 45.3289 23.6793 45.2704 23.8714 45.1576C24.0635 45.0449 24.2263 44.8945 24.3558 44.7108C24.4853 44.527 24.5855 44.3182 24.6523 44.0843C24.7191 43.8505 24.7526 43.6124 24.7526 43.3744C24.7526 43.2073 24.7317 43.0528 24.6899 42.9067C24.6481 42.7605 24.5855 42.631 24.502 42.5183C24.4185 42.4055 24.3141 42.3136 24.1846 42.251C24.0551 42.1842 23.9048 42.1549 23.7294 42.1549C23.4788 42.1549 23.2783 42.2009 23.1238 42.2844C22.9693 42.3721 22.8398 42.4849 22.7271 42.631H22.7146L23.1155 40.7977L23.1071 40.7935ZM23.9257 42.5433C24.0175 42.5893 24.0969 42.6561 24.1595 42.7354C24.2222 42.8148 24.2639 42.9108 24.2932 43.0194C24.3224 43.128 24.3349 43.2491 24.3349 43.3744C24.3349 43.5498 24.3141 43.7335 24.2681 43.9257C24.2222 44.1178 24.1512 44.2932 24.0593 44.456C23.9674 44.6189 23.8505 44.7484 23.7043 44.8528C23.5623 44.9572 23.3911 45.0073 23.199 45.0073C23.0528 45.0073 22.9275 44.9822 22.8315 44.9321C22.7313 44.882 22.6519 44.811 22.5934 44.7191C22.535 44.6314 22.4932 44.527 22.464 44.4143C22.4389 44.3015 22.4264 44.1762 22.4264 44.0468C22.4264 43.8797 22.4514 43.7043 22.5016 43.5206C22.5517 43.3368 22.6268 43.1656 22.7271 43.0111C22.8273 42.8565 22.9484 42.7271 23.0946 42.6268C23.2408 42.5266 23.4036 42.4765 23.5916 42.4765C23.721 42.4765 23.8338 42.5016 23.9257 42.5475M16.8428 45.262H17.2353L17.5527 43.721C17.582 43.5874 17.6237 43.4454 17.678 43.2992C17.7323 43.153 17.8033 43.0194 17.891 42.8941C17.9787 42.773 18.0789 42.6728 18.1959 42.5934C18.3128 42.5141 18.4464 42.4765 18.6051 42.4765C18.7889 42.4765 18.9184 42.535 18.9935 42.6435C19.0729 42.7563 19.1105 42.8983 19.1105 43.0653C19.1105 43.1823 19.1021 43.2867 19.0854 43.3786C19.0687 43.4704 19.052 43.5623 19.0311 43.6542L18.6928 45.262H19.0854L19.4028 43.721C19.432 43.5874 19.4696 43.4454 19.5281 43.2992C19.5824 43.153 19.6534 43.0194 19.7411 42.8941C19.8246 42.773 19.929 42.6728 20.0459 42.5934C20.1629 42.5141 20.3007 42.4765 20.4552 42.4765C20.639 42.4765 20.7684 42.535 20.8436 42.6435C20.9229 42.7563 20.9605 42.8983 20.9605 43.0653C20.9605 43.1823 20.9522 43.2867 20.9355 43.3786C20.9188 43.4704 20.9021 43.5623 20.8812 43.6542L20.5429 45.262H20.9355L21.2821 43.6208C21.3072 43.508 21.328 43.4036 21.3447 43.295C21.3615 43.1906 21.3698 43.1071 21.3698 43.0486C21.3698 42.773 21.2946 42.5517 21.1401 42.393C20.9856 42.2343 20.7768 42.1549 20.5137 42.1549C20.2715 42.1549 20.0626 42.2134 19.8914 42.3345C19.7202 42.4556 19.5824 42.6185 19.4863 42.8357H19.4738C19.4654 42.6143 19.3903 42.4431 19.2483 42.3303C19.1063 42.2176 18.9267 42.1591 18.7137 42.1591C18.6093 42.1591 18.5174 42.1675 18.4297 42.1883C18.3462 42.2092 18.2669 42.2385 18.1917 42.2802C18.1165 42.322 18.0455 42.3763 17.9787 42.4431C17.9119 42.5099 17.8409 42.5934 17.7699 42.6853H17.7574C17.7866 42.5684 17.8075 42.418 17.8242 42.2259H17.4483C17.44 42.3053 17.4316 42.393 17.4191 42.4849C17.4066 42.5767 17.3898 42.6603 17.3731 42.7354L16.8553 45.2579L16.8428 45.262ZM16.5337 43.8505C16.5421 43.7544 16.5504 43.6584 16.5588 43.5665C16.5671 43.4704 16.5713 43.3786 16.5713 43.2867C16.5713 42.9401 16.4836 42.6686 16.304 42.464C16.1244 42.2593 15.8572 42.1591 15.5022 42.1591C15.2558 42.1591 15.0386 42.2134 14.8465 42.322C14.6544 42.4306 14.4874 42.5726 14.3537 42.7521C14.2159 42.9317 14.1115 43.1363 14.0405 43.3702C13.9695 43.6041 13.9319 43.8505 13.9319 44.1011C13.9319 44.3015 13.9612 44.4811 14.028 44.6356C14.0906 44.7901 14.1783 44.9196 14.2911 45.024C14.4038 45.1284 14.5375 45.2078 14.6878 45.2579C14.8382 45.308 15.001 45.333 15.1806 45.333C15.3017 45.333 15.4103 45.3289 15.5064 45.3163C15.5982 45.308 15.6818 45.2913 15.7528 45.2746C15.8238 45.2579 15.8864 45.2412 15.9407 45.2203C15.995 45.1994 16.0409 45.1827 16.0869 45.166L16.1161 44.811C15.9992 44.8611 15.8655 44.9071 15.7277 44.9488C15.5857 44.9906 15.4187 45.0115 15.2307 45.0115C14.9593 45.0115 14.7421 44.9321 14.5667 44.7734C14.3955 44.6147 14.3078 44.3892 14.3078 44.0969C14.3078 44.0134 14.312 43.934 14.3245 43.8547H16.5295L16.5337 43.8505ZM14.3913 43.5289C14.4164 43.3911 14.4581 43.2575 14.525 43.1322C14.5918 43.0069 14.6711 42.8941 14.7672 42.7981C14.8632 42.702 14.9718 42.6227 15.0971 42.5684C15.2224 42.5099 15.356 42.4807 15.5022 42.4807C15.7486 42.4807 15.924 42.5558 16.0367 42.702C16.1453 42.8524 16.1996 43.0486 16.1996 43.2992C16.1996 43.3368 16.1996 43.3702 16.1954 43.4078C16.1954 43.4454 16.1871 43.4871 16.1829 43.5289H14.3913ZM8.91209 45.262H9.30466L9.61787 43.721C9.64711 43.5874 9.68887 43.4454 9.74316 43.2992C9.79745 43.153 9.86845 43.0194 9.95197 42.8941C10.0397 42.773 10.1399 42.6728 10.2568 42.5934C10.3738 42.5141 10.5116 42.4765 10.6661 42.4765C10.8499 42.4765 10.9793 42.535 11.0545 42.6435C11.1338 42.7563 11.1714 42.8983 11.1714 43.0653C11.1714 43.1823 11.1631 43.2867 11.1464 43.3786C11.1297 43.4704 11.113 43.5623 11.0921 43.6542L10.7538 45.262H11.1464L11.4596 43.721C11.4888 43.5874 11.5306 43.4454 11.5849 43.2992C11.6392 43.153 11.7102 43.0194 11.7979 42.8941C11.8814 42.773 11.9858 42.6728 12.1027 42.5934C12.2197 42.5141 12.3575 42.4765 12.512 42.4765C12.6958 42.4765 12.8252 42.535 12.9004 42.6435C12.9756 42.7563 13.0173 42.8983 13.0173 43.0653C13.0173 43.1823 13.009 43.2867 12.9923 43.3786C12.9756 43.4704 12.9589 43.5623 12.938 43.6542L12.5997 45.262H12.9923L13.3389 43.6208C13.364 43.508 13.3848 43.4036 13.4015 43.295C13.4182 43.1906 13.4266 43.1071 13.4266 43.0486C13.4266 42.773 13.3473 42.5517 13.1927 42.393C13.0382 42.2343 12.8294 42.1549 12.5705 42.1549C12.3283 42.1549 12.1194 42.2134 11.9482 42.3345C11.777 42.4556 11.6392 42.6185 11.5389 42.8357H11.5264C11.5181 42.6143 11.4429 42.4431 11.3009 42.3303C11.1589 42.2176 10.9793 42.1591 10.7663 42.1591C10.6619 42.1591 10.5701 42.1675 10.4824 42.1883C10.3988 42.2092 10.3195 42.2385 10.2443 42.2802C10.1691 42.322 10.1023 42.3763 10.0313 42.4431C9.9645 42.5099 9.8935 42.5934 9.82251 42.6853H9.80998C9.83921 42.5684 9.86009 42.418 9.8768 42.2259H9.50094C9.49259 42.3053 9.48423 42.393 9.4717 42.4849C9.45918 42.5767 9.44247 42.6603 9.42577 42.7354L8.90791 45.2579L8.91209 45.262ZM6.71121 43.721C6.74045 43.5999 6.75715 43.4913 6.76968 43.3869C6.78221 43.2825 6.78638 43.2032 6.78638 43.1447C6.78638 42.8273 6.70286 42.5851 6.53163 42.4139C6.36458 42.2426 6.11401 42.1591 5.78409 42.1591C5.60451 42.1591 5.43746 42.18 5.27459 42.2259C5.11171 42.2719 4.97807 42.3178 4.86949 42.3596L4.82773 42.7396C4.93214 42.6895 5.0616 42.631 5.2203 42.5684C5.37899 42.5057 5.54604 42.4765 5.72562 42.4765C5.93443 42.4765 6.09731 42.535 6.20589 42.6435C6.31865 42.7563 6.37294 42.9192 6.37294 43.128C6.37294 43.2449 6.36876 43.3452 6.35623 43.4329C6.29776 43.4245 6.23512 43.4203 6.16412 43.4162C6.09313 43.412 6.02213 43.4078 5.94278 43.4078C5.75485 43.4078 5.55857 43.4203 5.35811 43.4496C5.15348 43.4788 4.96554 43.5289 4.79432 43.6083C4.62309 43.6876 4.4811 43.7962 4.36834 43.934C4.25558 44.0718 4.20129 44.2514 4.20129 44.4769C4.20129 44.6022 4.22218 44.7191 4.26811 44.8235C4.31405 44.9279 4.3767 45.0157 4.45604 45.0908C4.53539 45.166 4.62727 45.2245 4.73168 45.2662C4.83608 45.308 4.94884 45.3289 5.06577 45.3289C5.29129 45.3289 5.48757 45.2913 5.6588 45.2119C5.82585 45.1326 5.97619 44.9989 6.10148 44.811H6.11401C6.09731 44.8778 6.08478 44.9488 6.0806 45.024C6.07225 45.0992 6.0639 45.1785 6.05554 45.2579H6.4314C6.43976 45.1535 6.45229 45.0365 6.46899 44.9071C6.4857 44.7776 6.51075 44.6523 6.54416 44.5396L6.70286 43.7168L6.71121 43.721ZM4.75256 44.076C4.84443 43.9758 4.95719 43.9048 5.09083 43.8547C5.22447 43.8045 5.36646 43.7711 5.52098 43.7544C5.67551 43.7377 5.8175 43.7294 5.94278 43.7294C6.00543 43.7294 6.06807 43.7294 6.12654 43.7335C6.18501 43.7377 6.24765 43.7377 6.31029 43.7377C6.28941 43.8964 6.25183 44.0509 6.20171 44.2055C6.14742 44.36 6.07642 44.4936 5.98872 44.6147C5.90102 44.7317 5.79244 44.8277 5.66298 44.8987C5.53351 44.9697 5.38317 45.0073 5.20777 45.0073C5.13259 45.0073 5.05742 44.9948 4.98643 44.9697C4.91543 44.9447 4.85279 44.9112 4.7985 44.8653C4.7442 44.8194 4.70244 44.7651 4.66903 44.6983C4.63562 44.6314 4.61892 44.5563 4.61892 44.4686C4.61892 44.3015 4.66486 44.1679 4.75673 44.0718" fill="black"/>
<path d="M61.3489 40.8603H39.0436V45.546H61.3489V40.8603Z" fill="#FFCE07"/>
<path d="M52.8837 44.3809C52.5705 44.3809 52.2698 44.3224 52.0944 44.2556V41.7874H52.7375V42.6185C52.8211 42.5893 52.9589 42.5684 53.0674 42.5684C53.6145 42.5684 53.9904 42.8732 53.9904 43.412C53.9904 44.0718 53.5978 44.385 52.8795 44.385M52.938 42.9693C52.8628 42.9693 52.7835 42.986 52.7333 43.0069V43.9465C52.7709 43.9591 52.8461 43.9674 52.9213 43.9674C53.1886 43.9674 53.3431 43.7837 53.3431 43.4579C53.3431 43.1489 53.1927 42.9735 52.9338 42.9735" fill="black"/>
<path d="M55.0679 44.3809C54.4038 44.3809 54.0739 44.1762 54.0739 43.8004C54.0739 43.3368 54.6461 43.2282 55.2808 43.199V43.1322C55.2808 42.9902 55.1639 42.9275 54.9468 42.9275C54.7421 42.9275 54.4999 42.986 54.3496 43.0361L54.1909 42.677C54.3788 42.6143 54.6419 42.5391 55.0261 42.5391C55.6024 42.5391 55.8906 42.7354 55.8906 43.199V44.2598C55.7319 44.3266 55.4061 44.385 55.0679 44.385M55.2808 43.5373C54.9342 43.5498 54.6711 43.5832 54.6711 43.792C54.6711 43.934 54.8173 44.0134 55.047 44.0134C55.1389 44.0134 55.2391 44.0008 55.2808 43.9841V43.5331V43.5373Z" fill="black"/>
<path d="M57.3189 44.3391V43.199C57.3189 43.0528 57.2353 42.9568 57.0056 42.9568C56.8845 42.9568 56.7801 43.0027 56.7801 43.0027V44.3433H56.137V42.677C56.3708 42.6018 56.6507 42.5391 57.014 42.5391C57.6738 42.5391 57.9662 42.7605 57.9662 43.1447V44.3475H57.323L57.3189 44.3391Z" fill="black"/>
<path d="M59.5072 44.3391L58.8599 43.4663H58.8515V44.3391H58.2167V41.7832H58.8515V43.3368H58.8599L59.4446 42.5851H60.1712L59.5156 43.4036L60.2255 44.3391H59.5072Z" fill="black"/>
<path d="M50.8791 45.0449H50.2025L50.5199 44.3391L49.7265 42.5851H50.4281L50.8582 43.8338L51.28 42.5851H51.9816L50.8791 45.0449Z" fill="black"/>
<path d="M47.5256 41.9837H46.7739L46.2769 43.4412L45.7799 41.9837H45.0282L44.6899 44.3391H45.3038L45.5001 42.7229L46.0723 44.3391H46.4815L47.0537 42.7229L47.2499 44.3391H47.8639L47.5256 41.9837Z" fill="black"/>
<path d="M48.9371 44.3809C48.2731 44.3809 47.9432 44.1762 47.9432 43.8004C47.9432 43.3368 48.5153 43.2282 49.1501 43.199V43.1322C49.1501 42.9902 49.0332 42.9275 48.816 42.9275C48.6114 42.9275 48.3692 42.986 48.2188 43.0361L48.0601 42.677C48.2481 42.6143 48.5655 42.5391 48.8954 42.5391C49.4717 42.5391 49.7599 42.7354 49.7599 43.199V44.2598C49.6012 44.3266 49.2754 44.385 48.9413 44.385M49.1543 43.5373C48.8077 43.5498 48.5446 43.5832 48.5446 43.792C48.5446 43.934 48.6907 44.0134 48.9204 44.0134C49.0123 44.0134 49.1125 44.0008 49.1543 43.9841V43.5331V43.5373Z" fill="black"/>
<path d="M42.1341 41.1986C41.0482 41.1986 40.1712 42.0756 40.1712 43.1614C40.1712 44.2472 41.0482 45.1242 42.1341 45.1242C43.2199 45.1242 44.0969 44.2472 44.0969 43.1614C44.0969 42.0756 43.2157 41.1986 42.1341 41.1986ZM42.1341 44.9697C41.1359 44.9697 40.3257 44.1595 40.3257 43.1656C40.3257 42.1716 41.1359 41.3573 42.1341 41.3573C43.1322 41.3573 43.9424 42.1675 43.9424 43.1656C43.9424 44.1637 43.1322 44.9697 42.1341 44.9697Z" fill="black"/>
<path d="M41.3531 43.0695C41.2111 43.0319 41.09 43.199 41.0232 43.3201C41.0441 43.1489 41.2529 42.8732 41.3531 43.0695Z" fill="black"/>
<path d="M41.0441 43.0737C41.09 42.9108 41.2028 42.8524 41.2612 42.9025C41.1819 42.9275 41.1234 42.9735 41.0441 43.0737Z" fill="black"/>
<path d="M41.399 43.3326C41.47 43.27 41.4617 43.1823 41.3531 43.153C41.2696 43.1322 41.09 43.2825 41.0733 43.4454C41.1443 43.3535 41.3489 43.1865 41.4032 43.3326" fill="black"/>
<path d="M42.5266 43.7628C42.5392 43.5498 42.3345 43.4537 42.2928 43.2324C42.2552 43.0152 42.6143 42.6644 42.3846 42.3094C42.8148 42.6561 42.4765 42.8649 42.6937 43.153C42.6102 43.128 42.5266 43.0528 42.5016 43.0152C42.3805 43.1739 42.7981 43.3911 42.5224 43.7628" fill="black"/>
<path d="M42.2218 42.205C42.2719 42.1466 42.2218 42.0714 42.0213 42.0463C42.2343 42.1508 41.8918 42.1716 41.8793 42.3512C41.7665 42.393 41.6747 42.322 41.6204 42.3721C41.5661 42.4222 41.5034 42.3888 41.5201 42.3303C41.4575 42.3637 41.47 42.4514 41.5327 42.4807C41.5452 42.4849 41.5577 42.4974 41.5452 42.5057C41.4784 42.5726 41.445 42.6268 41.516 42.6937C41.5536 42.6185 41.5744 42.5934 41.6204 42.56C41.6621 42.5851 41.7331 42.5684 41.8334 42.4598C41.8375 42.4556 41.8459 42.4598 41.8417 42.4598C41.7665 42.7271 41.5661 42.773 41.5034 42.7563C41.541 42.8148 41.7958 42.8482 41.825 42.7354C41.896 42.4807 42.1424 42.3679 41.9294 42.3763C41.9879 42.3095 42.18 42.2468 42.2218 42.1967M41.6872 42.5099C41.6872 42.5099 41.658 42.489 41.6538 42.4598C41.6747 42.5099 41.7248 42.4849 41.6956 42.4139C41.7123 42.4139 41.7415 42.4139 41.7958 42.4139C41.7373 42.4431 41.7123 42.5141 41.6872 42.5141" fill="black"/>
<path d="M40.6933 42.9401C40.7601 42.7647 40.9188 42.56 41.1819 42.4055C41.2403 42.251 41.2236 42.1466 41.8543 41.9002C41.871 41.8083 41.8668 41.6955 41.896 41.6955C41.9252 41.6955 42.0171 41.7373 42.0839 41.8334C42.1132 41.8334 42.1341 41.8292 42.1549 41.825C42.1675 41.7707 42.2051 41.6204 42.2552 41.5452C42.3011 41.4742 42.3888 41.4658 42.5016 41.5619C42.6185 41.658 42.702 41.6955 42.8649 41.9044C43.0027 41.967 43.2157 42.0463 43.3995 42.2719C43.3201 42.2176 43.2282 42.2009 43.1531 42.1925C43.3034 42.3262 43.4036 42.5433 43.3285 42.8607C43.2992 42.5642 43.0779 42.4389 42.9442 42.3429C43.0152 42.5934 42.702 42.5057 42.606 42.3178C42.6394 42.3262 42.6686 42.3262 42.6895 42.3178C42.6811 41.9336 42.4974 41.7122 42.418 41.6496C42.3136 41.5661 42.2593 41.7707 42.2259 41.9252C42.2134 41.9754 42.1716 42.0129 42.1132 42.0129C42.1257 41.9962 42.1382 41.9461 42.1424 41.9294C41.9837 41.9419 41.8041 42.038 41.6956 42.0839C41.4157 42.2092 41.3447 42.2719 41.2821 42.4849C41.0608 42.5809 40.806 42.8357 40.6974 42.9568" fill="black"/>
<path d="M42.0881 42.8858C42.1173 42.9234 42.3011 43.199 42.0881 43.554C42.1466 43.295 41.9837 42.7939 41.8041 43.0486C41.9252 43.0988 41.967 43.199 41.9336 43.295C41.8835 43.2032 41.7582 43.1029 41.6329 43.1447C41.5703 43.1656 41.4867 43.1656 41.4283 43.0737C41.3489 42.9568 41.4826 42.8106 41.2529 42.8231C41.5327 42.6811 41.4492 42.9568 41.587 42.9902C41.7415 43.0278 41.7624 42.9317 41.8125 42.8691C41.8543 42.8148 41.9378 42.7772 42.0213 42.8315C42.0631 42.7104 42.0046 42.5141 42.1174 42.4139C42.1591 42.3763 42.2928 42.3804 42.3638 42.4347C42.2635 42.4347 42.1466 42.5517 42.0923 42.8816" fill="black"/>
<path d="M43.5122 42.4013C43.6542 42.8983 43.6124 43.3744 43.4705 43.6584C43.4872 43.4788 43.3326 43.2199 43.3953 42.9108C43.0988 43.199 43.5623 43.9089 42.89 44.3725C42.9902 44.2096 43.0361 43.8087 42.9985 43.6584C43.0361 43.6751 43.0695 43.7168 43.0946 43.7544C43.1489 43.5707 43.1572 43.3076 43.0528 43.0403C43.0904 43.0445 43.1656 43.0779 43.199 43.1113C43.2157 42.702 42.915 42.6728 42.8607 42.56C42.8607 42.6811 42.9985 42.7814 43.0278 42.9359C42.9275 42.8899 42.8565 42.8858 42.8064 42.8899C42.8816 42.9442 43.0487 43.27 43.0027 43.5331C42.9317 43.4704 42.8649 43.4454 42.7897 43.437C42.8774 43.5748 42.915 43.9257 42.8023 44.0885C42.8023 44.0509 42.7855 43.9465 42.7438 43.9006C42.6895 44.0969 42.535 44.1804 42.4306 44.2055C42.5642 44.0676 42.535 43.8212 42.3429 43.7586C42.1675 43.7001 41.9503 43.8171 41.8584 44.2305C41.7331 44.2681 41.3573 44.1888 41.5828 43.9424C41.7206 43.9883 42.0672 43.7544 42.0464 43.5916C42.0129 43.3619 41.8041 43.2825 41.6413 43.2867C41.4366 43.2867 41.2988 43.4788 41.1318 43.5623C40.9939 43.5414 40.9438 43.5206 40.8728 43.3368C40.8645 43.224 40.9856 43.1447 40.9814 43.0278C40.8812 43.0486 40.8561 42.8983 40.664 43.0528C40.6473 43.0236 40.6724 42.9609 40.6724 42.9609C40.6014 43.0236 40.5888 43.1029 40.5847 43.1196C40.6181 43.1865 40.6682 43.2491 40.7643 43.3117C40.877 43.6166 40.9939 43.65 41.1151 43.6625C41.1359 43.6918 41.2236 43.8004 41.3364 43.8171C41.3155 43.7586 41.3155 43.5999 41.3239 43.5581C41.5703 43.3117 41.754 43.4621 41.7749 43.5289C41.5577 43.5749 41.7123 44.0426 41.3489 43.8338C41.3322 43.8839 41.3531 44.0008 41.399 44.0718C41.4366 44.3934 41.8417 44.314 41.967 44.3683C41.9545 44.0551 42.1257 43.8296 42.2761 43.8463C42.4264 43.863 42.464 44.1094 42.2092 44.3349C42.2719 44.3683 42.5433 44.3224 42.6811 44.2222C42.6937 44.3015 42.5934 44.5354 42.464 44.7024C43.5289 44.456 44.005 43.2992 43.508 42.3971M40.8144 43.27C40.7643 43.2366 40.6849 43.153 40.6766 43.1238C40.6849 43.1113 40.7267 43.0653 40.7851 43.0528C40.8269 43.0445 40.8478 43.0653 40.8436 43.0737C40.8394 43.0904 40.8018 43.0904 40.7935 43.1196C40.7768 43.1656 40.8311 43.1781 40.8394 43.199C40.8478 43.2115 40.8603 43.2449 40.8185 43.27M41.1735 43.625C41.186 43.5957 41.2362 43.5581 41.2612 43.5581C41.2529 43.6375 41.2821 43.7461 41.2821 43.7461C41.2821 43.7461 41.1735 43.6793 41.1735 43.625ZM41.729 43.7001C41.754 43.7001 41.7791 43.7252 41.8041 43.7085C41.8292 43.6918 41.8041 43.6166 41.7833 43.5916C41.8083 43.5916 41.9044 43.5957 41.9002 43.6333C41.8877 43.7252 41.8334 43.7544 41.6914 43.8212C41.7164 43.8004 41.7123 43.7502 41.729 43.7001ZM41.4492 44.005C41.4492 44.005 41.399 43.9465 41.4032 43.8964C41.4492 43.9257 41.5118 43.9424 41.5118 43.9424C41.5118 43.9424 41.4826 43.9925 41.4492 44.0092" fill="black"/>
</g>
<defs>
<clipPath id="clip0_1801_9860">
<rect width="79.9791" height="46.5316" fill="white"/>
</clipPath>
</defs>
</svg>
