<svg width="80" height="47" viewBox="0 0 80 47" fill="none" xmlns="http://www.w3.org/2000/svg">
<g clip-path="url(#clip0_1801_10497)">
<path fill-rule="evenodd" clip-rule="evenodd" d="M1.18563 41.4976V39.2314H1.64238V40.2371L2.56903 39.2314H3.18388L2.32749 40.1142L3.22779 41.4976H2.63491L2.01128 40.4348L1.64238 40.8125V41.4976H1.18563ZM3.46495 41.4976V39.2314H5.1426V39.6135H3.92608V40.1186H5.05915V40.5007H3.92608V41.1155H5.18651V41.4976H3.46495ZM5.56859 41.4976V39.2314H6.25371L6.65775 40.7773L7.0574 39.2314H7.7469V41.4976H7.3209V39.7145L6.87294 41.4976H6.43377L5.9902 39.7145V41.4976H5.5642H5.56859ZM8.21242 41.4976V39.2314H9.89007V39.6135H8.67356V40.1186H9.80663V40.5007H8.67356V41.1155H9.93399V41.4976H8.21242ZM10.3249 41.4976V39.2314H10.7684L11.6995 40.751V39.2314H12.1255V41.4976H11.6687L10.7509 40.0088V41.4976H10.3249ZM13.118 41.4976V39.6135H12.4461V39.2314H14.2423V39.6135H13.5747V41.4976H13.118ZM14.5409 41.4976V39.2314H16.2186V39.6135H15.0021V40.1186H16.1351V40.5007H15.0021V41.1155H16.2625V41.4976H14.5409ZM16.6534 41.4976V39.2314H17.6151C17.8567 39.2314 18.0324 39.2534 18.1422 39.2929C18.252 39.3324 18.3398 39.4071 18.4057 39.5081C18.4715 39.6135 18.5067 39.7321 18.5067 39.8638C18.5067 40.0351 18.4584 40.1757 18.3574 40.2855C18.2563 40.3953 18.107 40.4655 17.9094 40.4963C18.006 40.5534 18.0895 40.6148 18.1509 40.6851C18.2168 40.7554 18.3003 40.8783 18.4101 41.054L18.6867 41.4976H18.1378L17.8084 41.0013C17.6898 40.8256 17.6108 40.7158 17.5668 40.6675C17.5229 40.6236 17.479 40.5885 17.4307 40.5753C17.3824 40.5577 17.3033 40.549 17.1979 40.549H17.1057V41.4932H16.6446L16.6534 41.4976ZM17.1145 40.1888H17.4527C17.6722 40.1888 17.8084 40.1801 17.8655 40.1625C17.9182 40.1449 17.9621 40.1098 17.9928 40.0659C18.0236 40.022 18.0411 39.9649 18.0411 39.8946C18.0411 39.8199 18.0192 39.7584 17.9797 39.7101C17.9401 39.6618 17.883 39.6355 17.8084 39.6223C17.7689 39.6179 17.6591 39.6135 17.4746 39.6135H17.1189V40.1888H17.1145ZM18.9239 41.4976V39.2314H19.3806V41.4976H18.9239ZM21.862 41.4976H21.3657L21.1681 40.9837H20.259L20.0701 41.4976H19.587L20.4654 39.2314H20.9485L21.8576 41.4976H21.862ZM21.0231 40.5973L20.7069 39.7584L20.3995 40.5973H21.0231ZM22.1035 41.4976V39.2314H22.5471L23.4781 40.751V39.2314H23.9041V41.4976H23.4474L22.5295 40.0088V41.4976H22.1035ZM25.2743 41.4976V39.2314H25.7311V40.2371L26.6577 39.2314H27.2726L26.4162 40.1142L27.3165 41.4976H26.7236L26.1 40.4348L25.7311 40.8125V41.4976H25.2743ZM27.5537 41.4976V39.2314H29.2313V39.6135H28.0148V40.1186H29.1479V40.5007H28.0148V41.1155H29.2752V41.4976H27.5537ZM29.6661 39.2314H30.1228V40.4611C30.1228 40.6544 30.1272 40.7817 30.1404 40.8388C30.158 40.931 30.2063 41.0057 30.2765 41.0628C30.3512 41.1199 30.4478 41.1462 30.5752 41.1462C30.7025 41.1462 30.7992 41.1199 30.865 41.0672C30.9309 41.0145 30.9704 40.9486 30.9836 40.8696C30.9968 40.7905 31.0056 40.6631 31.0056 40.4831V39.227H31.4667V40.4172C31.4667 40.6895 31.4535 40.8827 31.4316 40.9925C31.4052 41.1067 31.3613 41.1989 31.2954 41.278C31.2296 41.357 31.1417 41.4185 31.0319 41.4624C30.9221 41.5064 30.7772 41.5327 30.5971 41.5327C30.3819 41.5327 30.2195 41.5064 30.1053 41.4581C29.9955 41.4097 29.9076 41.3439 29.8418 41.2648C29.7759 41.1858 29.7364 41.1023 29.7144 41.0145C29.6837 40.8827 29.6705 40.6939 29.6705 40.4392V39.2314H29.6661ZM33.992 41.4976H33.5001L33.3025 40.9837H32.3934L32.2045 41.4976H31.7214L32.5998 39.2314H33.0829L33.992 41.4976ZM33.1531 40.5973L32.8369 39.7584L32.5295 40.5973H33.1531ZM34.2379 41.4976V39.2314H34.6815L35.6125 40.751V39.2314H36.0385V41.4976H35.5818L34.6639 40.0088V41.4976H34.2379ZM37.5756 40.6675V40.2855H38.5594V41.1902C38.4628 41.2824 38.3266 41.3658 38.1422 41.4361C37.9621 41.5064 37.7776 41.5415 37.5888 41.5415C37.3516 41.5415 37.1452 41.4932 36.9696 41.3922C36.7939 41.2912 36.6621 41.1506 36.5743 40.9662C36.4865 40.7817 36.4426 40.5797 36.4426 40.3601C36.4426 40.123 36.4909 39.9122 36.5919 39.7277C36.6929 39.5433 36.8334 39.4027 37.0267 39.3061C37.1716 39.2314 37.3516 39.1919 37.5668 39.1919C37.8479 39.1919 38.0675 39.249 38.2256 39.3676C38.3837 39.4862 38.4847 39.6487 38.5286 39.8595L38.0719 39.9429C38.0411 39.8331 37.9797 39.7453 37.8918 39.6794C37.804 39.6135 37.6942 39.5828 37.5624 39.5828C37.3648 39.5828 37.2067 39.6443 37.0881 39.7716C36.9696 39.899 36.9125 40.0878 36.9125 40.3382C36.9125 40.6061 36.974 40.8081 37.0925 40.9442C37.2111 41.0804 37.3692 41.1462 37.5624 41.1462C37.6591 41.1462 37.7557 41.1287 37.8479 41.0891C37.9445 41.0496 38.028 41.0057 38.0938 40.953V40.6675H37.5712H37.5756ZM41.0231 41.4976H40.5269L40.3292 40.9837H39.4202L39.2313 41.4976H38.7482L39.6266 39.2314H40.1097L41.0187 41.4976H41.0231ZM40.1843 40.5973L39.8681 39.7584L39.5607 40.5973H40.1843ZM41.2691 41.4976V39.2314H41.7126L42.6437 40.751V39.2314H43.0697V41.4976H42.613L41.6951 40.0088V41.4976H41.2691ZM44.4355 41.4976V39.2314H45.3973C45.6389 39.2314 45.8145 39.2534 45.9243 39.2929C46.0341 39.3324 46.122 39.4071 46.1878 39.5081C46.2537 39.6135 46.2888 39.7321 46.2888 39.8638C46.2888 40.0351 46.2405 40.1757 46.1395 40.2855C46.0385 40.3953 45.8892 40.4655 45.6916 40.4963C45.7882 40.5534 45.8716 40.6148 45.9331 40.6851C45.999 40.7554 46.0824 40.8783 46.1922 41.054L46.4689 41.4976H45.9199L45.5906 41.0013C45.472 40.8256 45.3929 40.7158 45.349 40.6675C45.3051 40.6236 45.2612 40.5885 45.2129 40.5753C45.1646 40.5577 45.0855 40.549 44.9801 40.549H44.8879V41.4932H44.4311L44.4355 41.4976ZM44.8923 40.1888H45.2304C45.45 40.1888 45.5862 40.1801 45.6433 40.1625C45.696 40.1449 45.7399 40.1098 45.7706 40.0659C45.8014 40.022 45.8189 39.9649 45.8189 39.8946C45.8189 39.8199 45.797 39.7584 45.7574 39.7101C45.7179 39.6618 45.6608 39.6355 45.5862 39.6223C45.5466 39.6179 45.4368 39.6135 45.2524 39.6135H44.8967V40.1888H44.8923ZM46.7192 41.4976V39.2314H48.3969V39.6135H47.1804V40.1186H48.3134V40.5007H47.1804V41.1155H48.4408V41.4976H46.7192ZM48.8317 41.4976V39.2314H49.5651C49.8418 39.2314 50.0218 39.2446 50.1097 39.2666C50.2414 39.3017 50.3468 39.3764 50.4346 39.4906C50.5225 39.6047 50.5664 39.7497 50.5664 39.9297C50.5664 40.0703 50.5401 40.1844 50.4917 40.2811C50.439 40.3777 50.3776 40.4523 50.2985 40.505C50.2195 40.5577 50.1404 40.5929 50.0613 40.6104C49.9516 40.6324 49.7935 40.6412 49.587 40.6412H49.2884V41.4976H48.8317ZM49.2884 39.6135V40.2591H49.5387C49.7188 40.2591 49.8374 40.2459 49.8989 40.224C49.9603 40.202 50.0086 40.1625 50.0394 40.1142C50.0745 40.0615 50.0921 40.0044 50.0921 39.9385C50.0921 39.8551 50.0657 39.7892 50.0218 39.7321C49.9735 39.6794 49.912 39.6443 49.8374 39.6311C49.7847 39.6223 49.6749 39.6179 49.508 39.6179H49.2884V39.6135ZM50.9397 39.2314H51.3964V40.4611C51.3964 40.6544 51.4008 40.7817 51.414 40.8388C51.4316 40.931 51.4799 41.0057 51.5501 41.0628C51.6248 41.1199 51.7214 41.1462 51.8488 41.1462C51.9761 41.1462 52.0728 41.1199 52.1386 41.0672C52.2045 41.0145 52.244 40.9486 52.2572 40.8696C52.2704 40.7905 52.2792 40.6631 52.2792 40.4831V39.227H52.7359V40.4172C52.7359 40.6895 52.7227 40.8827 52.7008 40.9925C52.6744 41.1067 52.6305 41.1989 52.5646 41.278C52.4988 41.357 52.4109 41.4185 52.3011 41.4624C52.1913 41.5064 52.0464 41.5327 51.8664 41.5327C51.6512 41.5327 51.4887 41.5064 51.3745 41.4581C51.2647 41.4097 51.1768 41.3439 51.111 41.2648C51.0451 41.1858 51.0056 41.1023 50.9836 41.0145C50.9529 40.8827 50.9397 40.6939 50.9397 40.4392V39.2314ZM53.2234 39.2314H54.1281C54.3082 39.2314 54.4399 39.2402 54.5278 39.2534C54.6156 39.2666 54.6946 39.3017 54.7649 39.3456C54.8352 39.3939 54.8923 39.4554 54.9406 39.5345C54.9889 39.6135 55.0108 39.7014 55.0108 39.798C55.0108 39.9034 54.9845 40 54.9274 40.0878C54.8703 40.1757 54.7913 40.2415 54.6946 40.2855C54.8308 40.325 54.9362 40.3952 55.0108 40.4919C55.0855 40.5885 55.1206 40.7027 55.1206 40.8344C55.1206 40.9398 55.0987 41.0364 55.0504 41.1375C55.0021 41.2341 54.9362 41.3131 54.8527 41.3702C54.7693 41.4273 54.6683 41.4624 54.5453 41.4756C54.4707 41.4844 54.2862 41.4888 53.992 41.4888H53.219V39.2227L53.2234 39.2314ZM53.6801 39.6091V40.1317H53.9788C54.1545 40.1317 54.2686 40.1317 54.3126 40.123C54.3916 40.1142 54.4531 40.0878 54.497 40.0439C54.5409 40 54.5629 39.9385 54.5629 39.8682C54.5629 39.798 54.5453 39.7409 54.5058 39.697C54.4663 39.653 54.4092 39.6267 54.3345 39.6179C54.2906 39.6135 54.1588 39.6091 53.9437 39.6091H53.6801ZM53.6801 40.5094V41.1155H54.1061C54.2686 41.1155 54.374 41.1111 54.418 41.1023C54.4838 41.0891 54.5409 41.0584 54.5848 41.0101C54.6288 40.9618 54.6507 40.8959 54.6507 40.8169C54.6507 40.7466 54.6332 40.6895 54.6024 40.6412C54.5717 40.5929 54.5234 40.5577 54.4575 40.5358C54.396 40.5138 54.2599 40.505 54.0534 40.505H53.6845L53.6801 40.5094ZM55.5203 41.502V39.2534H55.977V41.1155H57.1145V41.4976H55.5203V41.502ZM57.4263 41.502V39.2358H57.8874V41.502H57.4263ZM58.3266 41.502V39.2358H58.7834V40.2415L59.7056 39.2358H60.3205L59.4641 40.1186L60.3644 41.502H59.7715L59.1479 40.4392L58.779 40.8169V41.502H58.3222H58.3266ZM61.4667 41.502V39.2358H61.9235V41.502H61.4667ZM62.3626 41.502V39.2358H62.8062L63.7372 40.7554V39.2358H64.1632V41.502H63.7065L62.7886 40.0132V41.502H62.3626ZM64.6463 39.2358H65.4808C65.6696 39.2358 65.8145 39.249 65.9112 39.2798C66.0429 39.3193 66.1571 39.3895 66.2537 39.4906C66.3503 39.5916 66.4206 39.7145 66.4689 39.8595C66.5172 40.0044 66.5436 40.1844 66.5436 40.3953C66.5436 40.5841 66.5216 40.7422 66.4733 40.8783C66.4162 41.0452 66.3372 41.177 66.2318 41.278C66.1527 41.357 66.0473 41.4141 65.9112 41.4581C65.8101 41.4888 65.674 41.5064 65.5071 41.5064H64.6463V39.2358ZM65.1075 39.6179V41.1199H65.4456C65.573 41.1199 65.6652 41.1111 65.7223 41.0979C65.797 41.0804 65.8585 41.0496 65.9068 41.0057C65.9551 40.9618 65.9946 40.8871 66.0253 40.7861C66.0561 40.6851 66.0736 40.5446 66.0736 40.3689C66.0736 40.1932 66.0605 40.0615 66.0253 39.9649C65.9946 39.8726 65.9507 39.798 65.898 39.7453C65.8409 39.6926 65.7706 39.6574 65.6872 39.6399C65.6257 39.6267 65.4983 39.6179 65.3139 39.6179H65.1075ZM66.8378 40.3821C66.8378 40.1493 66.8729 39.9561 66.9432 39.798C66.9959 39.6838 67.0662 39.5784 67.154 39.4862C67.2418 39.3939 67.3429 39.3281 67.4483 39.2798C67.5888 39.2183 67.7513 39.1919 67.9357 39.1919C68.2695 39.1919 68.5374 39.2973 68.7394 39.5037C68.9415 39.7101 69.0381 40 69.0381 40.3689C69.0381 40.7378 68.9371 41.0233 68.7394 41.2297C68.5418 41.4361 68.2739 41.5415 67.9401 41.5415C67.6064 41.5415 67.3341 41.4405 67.1364 41.2341C66.9388 41.0277 66.8378 40.7466 66.8378 40.3821ZM67.3077 40.3689C67.3077 40.6236 67.3692 40.8213 67.4878 40.953C67.6064 41.0848 67.7557 41.1506 67.9401 41.1506C68.1246 41.1506 68.2739 41.0848 68.3925 40.953C68.5111 40.8213 68.5682 40.6236 68.5682 40.3601C68.5682 40.0966 68.5111 39.9078 68.3969 39.7804C68.2827 39.653 68.1334 39.5872 67.9401 39.5872C67.7469 39.5872 67.5976 39.653 67.4834 39.7804C67.3692 39.9122 67.3077 40.1054 67.3077 40.3645V40.3689ZM69.3938 41.502V39.2358H69.8374L70.7684 40.7554V39.2358H71.1944V41.502H70.7377L69.8198 40.0132V41.502H69.3938ZM71.6775 41.502V39.2358H73.3552V39.6179H72.1386V40.123H73.2717V40.505H72.1386V41.1199H73.3991V41.502H71.6775ZM73.667 40.7686L74.1149 40.7246C74.1413 40.874 74.194 40.9837 74.2774 41.054C74.3609 41.1243 74.4707 41.1594 74.6068 41.1594C74.7517 41.1594 74.8659 41.1287 74.9406 41.0672C75.0152 41.0057 75.0504 40.931 75.0504 40.8476C75.0504 40.7949 75.0328 40.7466 75.0021 40.7115C74.9713 40.6719 74.9142 40.6412 74.8396 40.6148C74.7869 40.5973 74.6639 40.5621 74.4751 40.5138C74.2291 40.4523 74.0578 40.3777 73.9612 40.2898C73.8207 40.1669 73.7548 40.0132 73.7548 39.8331C73.7548 39.7189 73.7855 39.6091 73.8514 39.5081C73.9173 39.4071 74.0095 39.3325 74.1325 39.2798C74.2555 39.227 74.4048 39.2007 74.5761 39.2007C74.8571 39.2007 75.0723 39.2622 75.2173 39.3895C75.3622 39.5169 75.4368 39.6838 75.4412 39.8946L74.9845 39.9122C74.9669 39.7936 74.923 39.7101 74.8615 39.6618C74.7957 39.6091 74.7034 39.5828 74.5761 39.5828C74.4487 39.5828 74.3389 39.6091 74.2686 39.6662C74.2203 39.7014 74.1984 39.7497 74.1984 39.8068C74.1984 39.8595 74.2203 39.9078 74.2643 39.9429C74.3213 39.9912 74.4619 40.0439 74.6815 40.0966C74.9054 40.1493 75.0679 40.202 75.1733 40.2591C75.2787 40.3162 75.3622 40.3909 75.4237 40.4875C75.4852 40.5841 75.5159 40.7071 75.5159 40.8476C75.5159 40.9794 75.4808 41.0979 75.4061 41.2121C75.3358 41.3263 75.2304 41.4097 75.0987 41.4668C74.9669 41.5239 74.8044 41.5503 74.6068 41.5503C74.3213 41.5503 74.1018 41.4844 73.948 41.3527C73.7943 41.2209 73.7021 41.0277 73.6714 40.7773L73.667 40.7686ZM75.8804 41.502V39.2358H76.3372V41.502H75.8804ZM78.8185 41.502H78.3222L78.1246 40.9881H77.2155L77.0267 41.502H76.5436L77.4219 39.2358H77.905L78.8141 41.502H78.8185ZM77.9797 40.6017L77.6635 39.7628L77.356 40.6017H77.9797Z" fill="#212E5D"/>
<path fill-rule="evenodd" clip-rule="evenodd" d="M1.18563 42.9908H2.49437C2.78862 42.9908 3.01699 43.0127 3.1707 43.0566C3.37711 43.1181 3.55718 43.2279 3.7065 43.386C3.85581 43.5441 3.97 43.733 4.04466 43.9613C4.12371 44.1897 4.15884 44.4708 4.15884 44.8002C4.15884 45.0944 4.12371 45.3447 4.04905 45.5555C3.96122 45.8147 3.83386 46.0255 3.67136 46.1836C3.54839 46.3065 3.38151 46.3988 3.16631 46.469C3.00821 46.5173 2.7974 46.5437 2.5339 46.5437H1.18563V42.9864V42.9908ZM1.90588 43.5924V45.9464H2.44167C2.6393 45.9464 2.78423 45.9332 2.87206 45.9113C2.99064 45.8805 3.08287 45.8322 3.16192 45.762C3.24097 45.6917 3.30245 45.5775 3.35076 45.4194C3.39907 45.2613 3.42542 45.0417 3.42542 44.7694C3.42542 44.4971 3.40346 44.2863 3.35076 44.137C3.30245 43.9877 3.23658 43.8735 3.14874 43.7945C3.06091 43.711 2.95112 43.6583 2.81936 43.6276C2.71835 43.6056 2.52512 43.5924 2.23087 43.5924H1.90588ZM4.74734 46.5481V42.9908H5.46758V46.5481H4.74734ZM6.1527 46.5481V42.9908H7.66346C8.04554 42.9908 8.31783 43.0215 8.49349 43.0874C8.66477 43.1533 8.80531 43.2631 8.90632 43.4256C9.01172 43.588 9.06003 43.7769 9.06003 43.9877C9.06003 44.2556 8.98098 44.4752 8.82727 44.6508C8.66916 44.8265 8.4364 44.9319 8.12459 44.9802C8.2783 45.0725 8.40566 45.1691 8.50667 45.2789C8.60768 45.3887 8.74382 45.5819 8.9151 45.8586L9.34989 46.5525H8.49349L7.97966 45.7751C7.79521 45.4985 7.66785 45.3272 7.59758 45.2525C7.5317 45.1822 7.45704 45.1295 7.38238 45.1032C7.30333 45.0768 7.18476 45.0637 7.01787 45.0637H6.87294V46.5481H6.1527ZM6.87294 44.4971H7.40434C7.7469 44.4971 7.96209 44.484 8.04993 44.4532C8.13337 44.4225 8.20364 44.3742 8.25195 44.3039C8.30026 44.2336 8.32661 44.1414 8.32661 44.036C8.32661 43.9174 8.29587 43.8208 8.22999 43.7462C8.16851 43.6715 8.07628 43.6276 7.96209 43.6056C7.905 43.5968 7.72933 43.5924 7.43948 43.5924H6.87733V44.4971H6.87294ZM9.74075 46.5481V42.9908H12.3714V43.5924H10.461V44.383H12.2397V44.9846H10.461V45.9464H12.4417V46.5481H9.74075ZM13.0653 46.5481V42.9908H13.7855V44.5674L15.2348 42.9908H16.201L14.8571 44.3742L16.2669 46.5437H15.3402L14.3609 44.8748L13.7812 45.4677V46.5437H13.0609L13.0653 46.5481ZM17.4395 46.5481V43.5924H16.3855V42.9908H19.205V43.5924H18.1553V46.5481H17.4351H17.4395ZM19.4333 44.7914C19.4333 44.4269 19.486 44.1238 19.5958 43.8779C19.6749 43.6978 19.7891 43.5353 19.9252 43.3904C20.0657 43.2455 20.2194 43.1401 20.3863 43.0698C20.6103 42.9776 20.865 42.9293 21.1549 42.9293C21.6819 42.9293 22.0991 43.0918 22.4153 43.4168C22.7315 43.7418 22.8852 44.1941 22.8852 44.7738C22.8852 45.3535 22.7271 45.8015 22.4153 46.1221C22.1035 46.4471 21.6863 46.6096 21.1637 46.6096C20.6411 46.6096 20.2151 46.4471 19.9032 46.1265C19.5914 45.8015 19.4333 45.3579 19.4333 44.7914ZM20.1711 44.7694C20.1711 45.1735 20.2634 45.4765 20.4522 45.6873C20.6367 45.8937 20.8738 45.9991 21.1637 45.9991C21.4535 45.9991 21.6863 45.8937 21.8707 45.6917C22.0552 45.4853 22.1474 45.1735 22.1474 44.7606C22.1474 44.3478 22.0596 44.0492 21.8795 43.8472C21.6995 43.6451 21.4623 43.5441 21.1681 43.5441C20.8738 43.5441 20.6323 43.6451 20.4522 43.8472C20.2722 44.0492 20.1799 44.3566 20.1799 44.765L20.1711 44.7694ZM23.443 46.5481V42.9908H24.9538C25.3358 42.9908 25.6081 43.0215 25.7838 43.0874C25.9551 43.1533 26.0956 43.2631 26.1966 43.4256C26.302 43.588 26.3503 43.7769 26.3503 43.9877C26.3503 44.2556 26.2713 44.4752 26.1176 44.6508C25.9595 44.8265 25.7267 44.9319 25.4149 44.9802C25.5686 45.0725 25.696 45.1691 25.797 45.2789C25.898 45.3887 26.0341 45.5819 26.2054 45.8586L26.6402 46.5525H25.7838L25.27 45.7751C25.0855 45.4985 24.9581 45.3272 24.8879 45.2525C24.822 45.1822 24.7473 45.1295 24.6727 45.1032C24.5936 45.0768 24.475 45.0637 24.3082 45.0637H24.1632V46.5481H23.443ZM24.1632 44.4971H24.6946C25.0372 44.4971 25.2524 44.484 25.3402 44.4532C25.4237 44.4225 25.4939 44.3742 25.5422 44.3039C25.5906 44.2336 25.6169 44.1414 25.6169 44.036C25.6169 43.9174 25.5862 43.8208 25.5203 43.7462C25.4544 43.6715 25.3666 43.6276 25.2524 43.6056C25.1953 43.5968 25.0196 43.5924 24.7298 43.5924H24.1676V44.4971H24.1632ZM30.2326 46.5481H29.4553L29.1479 45.74H27.7205L27.4263 46.5481H26.6665L28.0455 42.9908H28.8053L30.2282 46.5481H30.2326ZM28.9151 45.1383L28.4188 43.8208L27.9401 45.1383H28.9151ZM31.0451 46.5481H31.7653V43.5924H32.815V42.9908H29.9955V43.5924H31.0495V46.5481H31.0451ZM35.9331 42.9908H36.6534V45.2437C36.6534 45.538 36.627 45.7664 36.5743 45.9245C36.504 46.1309 36.3811 46.2978 36.1966 46.4251C36.0166 46.5481 35.775 46.614 35.472 46.614C35.1206 46.614 34.8527 46.5173 34.6639 46.3197C34.4751 46.1221 34.3784 45.8366 34.3784 45.4545L35.0592 45.3755C35.0679 45.5775 35.0943 45.7224 35.147 45.8059C35.226 45.9332 35.3402 45.9991 35.4983 45.9991C35.6564 45.9991 35.7706 45.9552 35.8365 45.863C35.9024 45.7707 35.9331 45.5819 35.9331 45.2964V42.9908ZM37.4175 46.5481V42.9908H40.0482V43.5924H38.1378V44.383H39.9164V44.9846H38.1378V45.9464H40.1184V46.5481H37.4175ZM40.7289 46.5481V42.9908H41.4272L42.8896 45.3755V42.9908H43.5572V46.5481H42.8369L41.3964 44.2117V46.5481H40.7289ZM44.317 42.9908H45.6257C45.9199 42.9908 46.1483 43.0127 46.302 43.0566C46.5084 43.1181 46.6885 43.2279 46.8378 43.386C46.9871 43.5441 47.1013 43.733 47.176 43.9613C47.255 44.1897 47.2902 44.4708 47.2902 44.8002C47.2902 45.0944 47.255 45.3447 47.1804 45.5555C47.0925 45.8147 46.9652 46.0255 46.7983 46.1836C46.6753 46.3065 46.5084 46.3988 46.2932 46.469C46.1351 46.5173 45.9243 46.5437 45.6608 46.5437H44.3126V42.9864L44.317 42.9908ZM45.0372 43.5924V45.9464H45.573C45.7706 45.9464 45.9155 45.9332 46.0034 45.9113C46.122 45.8805 46.2142 45.8322 46.2932 45.762C46.3723 45.6917 46.4338 45.5775 46.4821 45.4194C46.5304 45.2613 46.5567 45.0417 46.5567 44.7694C46.5567 44.4971 46.5348 44.2863 46.4821 44.137C46.4338 43.9877 46.3679 43.8735 46.2801 43.7945C46.1922 43.711 46.0824 43.6583 45.9507 43.6276C45.8497 43.6056 45.6564 43.5924 45.3622 43.5924H45.0372ZM47.905 46.5481V42.9908H50.5357V43.5924H48.6253V44.383H50.4039V44.9846H48.6253V45.9464H50.6059V46.5481H47.905ZM51.2164 46.5481V42.9908H52.7271C53.1092 42.9908 53.3815 43.0215 53.5572 43.0874C53.7285 43.1533 53.869 43.2631 53.97 43.4256C54.0754 43.588 54.1237 43.7769 54.1237 43.9877C54.1237 44.2556 54.0447 44.4752 53.8909 44.6508C53.7328 44.8265 53.5001 44.9319 53.1883 44.9802C53.342 45.0725 53.4693 45.1691 53.5704 45.2789C53.6714 45.3887 53.8075 45.5819 53.9788 45.8586L54.4136 46.5525H53.5572L53.0433 45.7751C52.8589 45.4985 52.7315 45.3272 52.6613 45.2525C52.5954 45.1822 52.5207 45.1295 52.4461 45.1032C52.367 45.0768 52.2484 45.0637 52.0816 45.0637H51.9366V46.5481H51.2164ZM51.9366 44.4971H52.468C52.8106 44.4971 53.0258 44.484 53.1136 44.4532C53.1971 44.4225 53.2673 44.3742 53.3156 44.3039C53.3639 44.2336 53.3903 44.1414 53.3903 44.036C53.3903 43.9174 53.3595 43.8208 53.2937 43.7462C53.2278 43.6715 53.14 43.6276 53.0258 43.6056C52.9687 43.5968 52.793 43.5924 52.5032 43.5924H51.941V44.4971H51.9366ZM58.006 46.5481H57.2287L56.9213 45.74H55.4939L55.1997 46.5481H54.4399L55.8189 42.9908H56.5787L58.0016 46.5481H58.006ZM56.6885 45.1383L56.1922 43.8208L55.7135 45.1383H56.6885ZM58.4057 46.5481V43.0215H59.1259V45.9464H60.909V46.5481H58.4057ZM62.7096 46.5481V42.9908H63.8602C64.295 42.9908 64.5805 43.0083 64.7122 43.0435C64.9142 43.0962 65.0855 43.2147 65.2216 43.3904C65.3578 43.5705 65.4281 43.7988 65.4281 44.0843C65.4281 44.3039 65.3885 44.484 65.3095 44.6333C65.2304 44.7826 65.1294 44.8968 65.0065 44.9846C64.8835 45.0681 64.7605 45.1252 64.6332 45.1515C64.4619 45.1866 64.2159 45.2042 63.8909 45.2042H63.4254V46.5437H62.7052L62.7096 46.5481ZM63.4298 43.5924V44.6069H63.8207C64.1018 44.6069 64.2906 44.5894 64.3872 44.5498C64.4838 44.5147 64.5585 44.4532 64.6112 44.3742C64.6639 44.2951 64.6902 44.2029 64.6902 44.0975C64.6902 43.9657 64.6507 43.8603 64.5761 43.7769C64.5014 43.6935 64.4048 43.6407 64.2862 43.6188C64.2028 43.6012 64.0315 43.5968 63.7724 43.5968H63.4254L63.4298 43.5924ZM68.858 46.5481L67.4351 42.9908H66.6753L65.2963 46.5481H66.0561L66.3503 45.74H67.7776L68.0851 46.5481H68.8624H68.858ZM67.5405 45.1383H66.5655L67.0442 43.8208L67.5405 45.1383ZM70.5181 42.9908H71.2383V45.2437C71.2383 45.538 71.212 45.7664 71.1593 45.9245C71.089 46.1309 70.966 46.2978 70.7816 46.4251C70.6015 46.5481 70.36 46.614 70.057 46.614C69.7056 46.614 69.4377 46.5173 69.2489 46.3197C69.06 46.1221 68.9634 45.8366 68.9634 45.4545L69.6441 45.3755C69.6529 45.5775 69.6793 45.7224 69.732 45.8059C69.811 45.9332 69.9252 45.9991 70.0833 45.9991C70.2414 45.9991 70.3556 45.9552 70.4171 45.863C70.483 45.7707 70.5137 45.5819 70.5137 45.2964V42.9996L70.5181 42.9908ZM75.2085 46.5481H74.4311L74.1237 45.74H72.6964L72.4022 46.5481H71.6424L73.0214 42.9908H73.7812L75.2041 46.5481H75.2085ZM73.891 45.1383L73.3947 43.8208L72.916 45.1383H73.891ZM75.5993 46.5481V42.9908H76.3196V44.5674L77.7689 42.9908H78.735L77.3912 44.3742L78.8009 46.5437H77.8743L76.8949 44.8748L76.3152 45.4677V46.5437H75.5949L75.5993 46.5481Z" fill="#212E5D"/>
<path fill-rule="evenodd" clip-rule="evenodd" d="M8.43654 8.3531L8.45411 25.8762C8.48046 29.7365 9.55644 32.5209 14.9846 34.5367V34.5938H7.54941C3.39921 34.5938 0.00439351 31.1989 0.00439351 27.0487V14.585C2.01142 9.42029 4.72552 8.37505 8.44093 8.3531H8.43654Z" fill="url(#paint0_linear_1801_10497)"/>
<path fill-rule="evenodd" clip-rule="evenodd" d="M7.54502 0.0570915H19.2271C24.6684 2.08608 25.7268 4.84848 25.7356 8.66491H8.55512C4.77822 8.66491 2.02459 9.67501 0 14.8968V7.60211C0 3.45191 3.39482 0.0570915 7.54502 0.0570915Z" fill="url(#paint1_linear_1801_10497)"/>
<path fill-rule="evenodd" clip-rule="evenodd" d="M18.8098 0.057091H26.2495C30.3997 0.057091 33.7945 3.45191 33.7945 7.60211V20.5446C31.7743 25.6126 29.047 26.6008 25.3184 26.6052V8.71761C25.3184 4.87483 24.2732 2.09486 18.8098 0.057091Z" fill="url(#paint2_linear_1801_10497)"/>
<path fill-rule="evenodd" clip-rule="evenodd" d="M33.7945 19.9517V27.0487C33.7945 31.1989 30.3997 34.5938 26.2495 34.5938H14.9495V34.5367C9.54765 32.5252 8.46289 29.7848 8.43654 26.0123H25.3052C29.0426 26.0123 31.7743 25.0242 33.7945 19.9517Z" fill="url(#paint3_linear_1801_10497)"/>
<path fill-rule="evenodd" clip-rule="evenodd" d="M45.8719 11.5547C49.3633 11.5547 49.7981 14.8968 49.7981 17.6504C49.7981 20.404 49.4643 23.9218 45.8719 23.9218C42.2794 23.9218 41.9457 20.729 41.9457 17.6504C41.9457 14.8002 42.3804 11.5547 45.8719 11.5547ZM59.1042 0C60.4085 0 61.467 1.05841 61.467 2.36276C61.467 3.66711 60.4085 4.72552 59.1042 4.72552C57.7998 4.72552 56.7414 3.66711 56.7414 2.36276C56.7414 1.05841 57.7998 0 59.1042 0ZM61.019 8.41897H57.1894V29.877C57.1894 30.7686 56.4604 31.4932 55.5732 31.4932H53.6233V34.6509H56.3418C58.9153 34.6509 61.019 32.5472 61.019 29.9736V8.41897ZM72.4156 23.9614C68.9241 23.9614 68.4893 20.6192 68.4893 17.8656C68.4893 15.112 68.8231 11.5942 72.4156 11.5942C76.008 11.5942 76.3418 14.787 76.3418 17.8656C76.3418 20.7159 75.907 23.9614 72.4156 23.9614ZM73.3993 27.343C79.2711 27.343 80.0001 22.3188 80.0001 17.9139C80.0001 13.1533 79.4424 8.21256 73.3993 8.21256C70.9751 8.21256 69.4336 9.09091 68.4586 10.4128V8.43654H64.8178V34.6553H68.4586V25.1383C69.4424 26.4646 70.9839 27.3386 73.3993 27.3386V27.343ZM44.8881 8.17303C39.0164 8.17303 38.2873 13.1972 38.2873 17.6021C38.2873 22.3628 38.8451 27.3035 44.8881 27.3035C47.3124 27.3035 48.8539 26.4251 49.8288 25.1032V27.0795H53.4696V0.860782H49.8288V10.3733C48.8451 9.04699 47.3036 8.17303 44.8881 8.17303Z" fill="#273D63"/>
</g>
<defs>
<linearGradient id="paint0_linear_1801_10497" x1="41.3252" y1="46.5516" x2="40.2723" y2="1.00672" gradientUnits="userSpaceOnUse">
<stop stop-color="#2E3A7D"/>
<stop offset="1" stop-color="#010310"/>
</linearGradient>
<linearGradient id="paint1_linear_1801_10497" x1="0" y1="23.3001" x2="80.0001" y2="23.3001" gradientUnits="userSpaceOnUse">
<stop stop-color="#FCE52D"/>
<stop offset="0.38" stop-color="#EFC72A"/>
<stop offset="0.76" stop-color="#E4AE27"/>
<stop offset="1" stop-color="#E1A627"/>
</linearGradient>
<linearGradient id="paint2_linear_1801_10497" x1="39.2029" y1="0.0154223" x2="39.82" y2="46.0267" gradientUnits="userSpaceOnUse">
<stop stop-color="#FCE52D"/>
<stop offset="0.24" stop-color="#FAE02C"/>
<stop offset="0.5" stop-color="#F4D32B"/>
<stop offset="0.77" stop-color="#EBBD29"/>
<stop offset="1" stop-color="#E1A627"/>
</linearGradient>
<linearGradient id="paint3_linear_1801_10497" x1="78.1019" y1="25.4042" x2="1.73817" y2="19.7605" gradientUnits="userSpaceOnUse">
<stop stop-color="#2E3A7D"/>
<stop offset="1" stop-color="#010310"/>
</linearGradient>
<clipPath id="clip0_1801_10497">
<rect width="80.0001" height="46.614" fill="white"/>
</clipPath>
</defs>
</svg>
