<svg width="80" height="73" viewBox="0 0 80 73" fill="none" xmlns="http://www.w3.org/2000/svg">
<g clip-path="url(#clip0_1801_10208)">
<g clip-path="url(#clip1_1801_10208)">
<path d="M15.2785 72.2557L0 27.5991L40.0011 0L80 27.5991L64.7212 72.2557H15.2785Z" fill="#231F20"/>
<path d="M63.0266 69.8452H16.9733L16.9088 69.6565L2.75256 28.2814L39.9987 2.58179L77.2458 28.2814L77.18 28.4748L63.0266 69.8452ZM39.9987 0.864624L1.04932 27.7397L15.9337 71.2458H64.0663L78.9503 27.7397L39.9987 0.864624Z" fill="white"/>
<path d="M40.1641 2.69515L39.9992 2.58118L2.75269 28.2814L16.9089 69.6559L16.9735 69.8449H63.0268L77.1804 28.4745L77.2463 28.2811L40.1641 2.69515Z" fill="#231F20"/>
<path d="M17.3378 69.2466L3.33105 28.3096L39.9991 3.00891L76.6688 28.3096L62.662 69.2466H17.3378Z" fill="#275AB1"/>
<path d="M47.4923 46.7492C46.4966 46.8293 46.2275 46.4437 46.2263 46.4418L46.0917 46.224L46.0591 46.4757C45.8423 48.1621 44.6924 48.9213 44.6791 48.9283L44.2058 49.2357L44.7541 49.0859C47.4046 48.3654 47.5828 46.9069 47.5885 46.8458L47.599 46.7407L47.4923 46.7492Z" fill="#231F20"/>
<path d="M46.2091 46.6935C46.0246 47.7775 45.4832 48.4626 45.1213 48.8121C46.885 48.2179 47.2934 47.2668 47.3843 46.9534C46.728 46.9847 46.3801 46.8217 46.2091 46.6935Z" fill="#FAB20B"/>
<path d="M44.6037 25.7519C44.6037 25.5414 44.4591 25.3556 44.2394 25.247C44.5183 25.1485 44.712 24.9421 44.712 24.7009C44.712 24.5169 44.5971 24.3536 44.422 24.2421H44.4296L44.4268 24.0367C44.3948 22.1628 42.3854 20.639 39.9449 20.639C37.5043 20.639 35.4927 22.1628 35.4617 24.0367L35.4582 24.2421H35.4655C35.2904 24.3536 35.1758 24.5169 35.1758 24.7009C35.1758 24.9424 35.3695 25.1488 35.6491 25.247C35.4297 25.3556 35.2844 25.5411 35.2844 25.7519C35.2844 25.9941 35.4765 26.2018 35.7517 26.299C35.5354 26.4076 35.393 26.5928 35.393 26.8043C35.393 27.0461 35.5829 27.2529 35.8542 27.351C35.6424 27.4599 35.5012 27.6451 35.5012 27.8563C35.5012 28.0985 35.6899 28.3081 35.9606 28.4046C35.7507 28.5148 35.6089 28.7006 35.6089 28.9074C35.6089 29.1464 35.7998 29.3572 36.0663 29.4557C35.8583 29.5649 35.7168 29.7517 35.7168 29.9594C35.7168 30.1997 35.9065 30.4105 36.1702 30.5074C35.9641 30.6176 35.8248 30.804 35.8248 31.0111C35.8248 31.2517 36.0135 31.4641 36.2756 31.561C36.073 31.6715 35.9337 31.8595 35.9337 32.0628C35.9337 32.2993 36.1224 32.5139 36.381 32.6121C36.18 32.7225 36.0416 32.9109 36.0416 33.1145C36.0416 33.3513 36.2281 33.5656 36.4836 33.6638C36.2857 33.7749 36.1506 33.9626 36.1506 34.1662C36.1506 34.4052 36.3377 34.6211 36.5916 34.7183C36.4016 34.825 36.2582 35.0048 36.2582 35.2182C36.2582 35.4702 36.4586 35.6738 36.6986 35.7678C36.5115 35.8751 36.3665 36.0562 36.3665 36.2705C36.3665 36.5216 36.565 36.7261 36.8024 36.8198C36.6172 36.9271 36.4744 37.1082 36.4744 37.3213C36.4744 37.5749 36.6732 37.7807 36.9085 37.8731C36.7252 37.9823 36.584 38.1631 36.584 38.3733C36.584 38.6225 36.7825 38.8305 37.0142 38.9242C36.8328 39.0321 36.6926 39.2145 36.6926 39.4253C36.6926 39.6748 36.8885 39.8825 37.1168 39.9771C36.9379 40.0848 36.7999 40.2662 36.7999 40.4774C36.7999 40.7284 36.9962 40.937 37.2228 41.0308C37.0465 41.14 36.9088 41.3217 36.9088 41.5294C36.9088 41.776 37.1038 41.9865 37.3276 42.0818C37.1529 42.1907 37.0164 42.3734 37.0164 42.5798C37.0164 42.828 37.2099 43.0385 37.4296 43.1342C37.2596 43.2434 37.1256 43.4242 37.1256 43.6318C37.1256 43.881 37.3165 44.0931 37.5344 44.1868C37.3669 44.2973 37.2326 44.4819 37.2326 44.6842C37.2326 44.9264 37.4239 45.1426 37.6391 45.2379C37.4723 45.3496 37.3425 45.5329 37.3425 45.7352C37.3425 45.9796 37.5312 46.1971 37.7449 46.2924C37.5806 46.4039 37.4508 46.5884 37.4508 46.7885C37.4508 47.0288 37.6429 47.2485 37.8506 47.3432C37.6926 47.4521 37.5581 47.6294 37.5581 47.8396C37.5581 48.0951 37.7572 48.3028 37.957 48.3952C37.799 48.5032 37.6667 48.6805 37.6667 48.8913C37.6667 49.1481 37.8639 49.3573 38.0608 49.4482C37.9076 49.5587 37.7746 49.7385 37.7746 49.943C37.7746 50.1934 37.9706 50.4065 38.1631 50.5002C38.0134 50.6101 37.8836 50.7905 37.8836 50.995C37.8836 51.2467 38.0783 51.4614 38.2685 51.5544C38.1204 51.6656 37.9925 51.846 37.9925 52.047C37.9925 52.2943 38.1853 52.5118 38.3739 52.6058C38.227 52.716 38.1004 52.8968 38.1004 53.0984C38.1004 53.4267 38.4376 53.7047 38.6487 53.7047H41.2406C41.4524 53.7047 41.7899 53.427 41.7899 53.0984C41.7899 52.8968 41.663 52.716 41.5173 52.6058C41.7035 52.5118 41.8982 52.2943 41.8982 52.047C41.8982 51.846 41.7693 51.6656 41.6212 51.5544C41.8127 51.4617 42.0061 51.2467 42.0061 50.995C42.0061 50.7908 41.8757 50.6101 41.7253 50.5002C41.9194 50.4065 42.1132 50.1934 42.1132 49.943C42.1132 49.7388 41.9827 49.559 41.8285 49.4482C42.0258 49.3573 42.2224 49.1481 42.2224 48.8913C42.2224 48.6808 42.0897 48.5035 41.9333 48.3952C42.1322 48.3028 42.3307 48.0951 42.3307 47.8396C42.3307 47.6294 42.1967 47.4521 42.0394 47.3432C42.2474 47.2485 42.4396 47.0288 42.4396 46.7885C42.4396 46.5884 42.3088 46.4039 42.1454 46.2924C42.3572 46.1971 42.5478 45.9796 42.5478 45.7352C42.5478 45.5329 42.4158 45.35 42.2502 45.2379C42.4652 45.1426 42.6558 44.9264 42.6558 44.6842C42.6558 44.4819 42.5219 44.2976 42.3544 44.1868C42.5719 44.0931 42.7637 43.8807 42.7637 43.6318C42.7637 43.4242 42.6298 43.2434 42.4601 43.1342C42.6789 43.0389 42.8717 42.828 42.8717 42.5798C42.8717 42.3734 42.7362 42.1907 42.5624 42.0818C42.7843 41.9865 42.98 41.7757 42.98 41.5294C42.98 41.3217 42.8419 41.1403 42.6672 41.0308C42.8939 40.937 43.0886 40.7284 43.0886 40.4774C43.0886 40.2662 42.9508 40.0848 42.7729 39.9771C43.0005 39.8825 43.1975 39.6748 43.1975 39.4253C43.1975 39.2148 43.0572 39.0325 42.8755 38.9242C43.1069 38.8305 43.3057 38.6225 43.3057 38.3733C43.3057 38.1631 43.1649 37.9823 42.9803 37.8731C43.2158 37.7807 43.4137 37.5752 43.4137 37.3213C43.4137 37.1082 43.2734 36.9278 43.086 36.8198C43.3238 36.7261 43.5217 36.5219 43.5217 36.2705C43.5217 36.0562 43.3782 35.8751 43.1889 35.7678C43.4292 35.6738 43.6309 35.4702 43.6309 35.2182C43.6309 35.0051 43.4862 34.8253 43.2969 34.7183C43.5514 34.6211 43.7376 34.4052 43.7376 34.1662C43.7376 33.9626 43.603 33.7749 43.4042 33.6638C43.66 33.5659 43.8465 33.3513 43.8465 33.1145C43.8465 32.9109 43.7084 32.7229 43.5074 32.6121C43.7654 32.5142 43.9547 32.2993 43.9547 32.0628C43.9547 31.8592 43.8158 31.6715 43.6119 31.561C43.8753 31.4638 44.0627 31.2517 44.0627 31.0111C44.0627 30.8043 43.925 30.6176 43.7186 30.5074C43.9823 30.4108 44.171 30.1997 44.171 29.9594C44.171 29.7517 44.0304 29.5652 43.8224 29.4557C44.0893 29.3572 44.2786 29.1464 44.2786 28.9074C44.2786 28.7006 44.1377 28.5148 43.9269 28.4046C44.1976 28.3081 44.3869 28.0985 44.3869 27.8563C44.3869 27.6451 44.2463 27.4599 44.0333 27.351C44.3055 27.2532 44.4958 27.0461 44.4958 26.8043C44.4958 26.5928 44.353 26.4076 44.1365 26.299C44.4116 26.2018 44.6037 25.9941 44.6037 25.7519Z" fill="#231F20"/>
<path d="M43.889 24.2687H36C35.6454 24.2687 35.3557 24.4621 35.3557 24.7008C35.3557 24.9395 35.6454 25.1317 36 25.1317H43.889C44.2445 25.1317 44.5326 24.9379 44.5326 24.7008C44.5326 24.4618 44.2442 24.2687 43.889 24.2687ZM36.0978 25.3201C35.7543 25.3201 35.4637 25.5186 35.4637 25.7519C35.4637 25.9852 35.754 26.184 36.0978 26.184H43.7899C44.1334 26.184 44.424 25.9855 44.424 25.7519C44.424 25.5182 44.1337 25.3201 43.7899 25.3201H36.0978ZM36.1953 27.2357H43.6921C44.0305 27.2357 44.3151 27.0372 44.3151 26.8042C44.3151 26.5712 44.0305 26.3715 43.6921 26.3715H36.1953C35.8585 26.3715 35.5719 26.5693 35.5719 26.8042C35.5719 27.0372 35.8585 27.2357 36.1953 27.2357ZM36.2941 28.2874H43.5943C43.927 28.2874 44.2072 28.0902 44.2072 27.8566C44.2072 27.6207 43.927 27.4244 43.5943 27.4244H36.2941C35.962 27.4244 35.6808 27.6207 35.6808 27.8566C35.6808 28.0905 35.962 28.2874 36.2941 28.2874ZM36.3922 29.3395H43.4955C43.8162 29.3395 44.098 29.1372 44.098 28.9073C44.098 28.6775 43.8165 28.4764 43.4955 28.4764H36.3922C36.0709 28.4764 35.7894 28.6775 35.7894 28.9073C35.7894 29.1372 36.0709 29.3395 36.3922 29.3395ZM36.4907 30.3902H43.3973C43.713 30.3902 43.9913 30.1879 43.9913 29.9593C43.9913 29.7285 43.713 29.5272 43.3973 29.5272H36.4907C36.1744 29.5272 35.8977 29.7285 35.8977 29.9593C35.8977 30.1882 36.1747 30.3902 36.4907 30.3902ZM36.5879 31.4425H43.2995C43.6101 31.4425 43.8811 31.2403 43.8811 31.011C43.8811 30.7818 43.6101 30.5792 43.2995 30.5792H36.5879C36.2767 30.5792 36.0054 30.7802 36.0054 31.011C36.0054 31.2418 36.2767 31.4425 36.5879 31.4425ZM36.6866 32.4939H43.2023C43.5015 32.4939 43.7747 32.2885 43.7747 32.0624C43.7747 31.8364 43.5015 31.6297 43.2023 31.6297H36.6866C36.3865 31.6297 36.1139 31.8364 36.1139 32.0624C36.1139 32.2885 36.3865 32.4939 36.6866 32.4939ZM36.7838 33.5453H43.1045C43.3973 33.5453 43.6664 33.3399 43.6664 33.1144C43.6664 32.889 43.3977 32.6823 43.1045 32.6823H36.7838C36.491 32.6823 36.2216 32.8878 36.2216 33.1144C36.2216 33.3411 36.491 33.5453 36.7838 33.5453ZM36.882 34.5977H43.0057C43.2941 34.5977 43.5582 34.3922 43.5582 34.1655C43.5582 33.9388 43.2938 33.7346 43.0057 33.7346H36.882C36.5933 33.7346 36.3295 33.9388 36.3295 34.1655C36.3295 34.3922 36.5933 34.5977 36.882 34.5977ZM36.9808 35.6494H42.9063C43.1571 35.6494 43.4493 35.4607 43.4493 35.2175C43.4493 34.9744 43.1571 34.786 42.9063 34.786H36.9808C36.73 34.786 36.4384 34.9738 36.4384 35.2175C36.4384 35.4613 36.73 35.6494 36.9808 35.6494ZM37.0786 36.7014H42.8088C43.0554 36.7014 43.3407 36.5117 43.3407 36.2696C43.3407 36.0274 43.0554 35.8374 42.8088 35.8374H37.0786C36.8332 35.8374 36.547 36.0261 36.547 36.2696C36.547 36.513 36.8332 36.7014 37.0786 36.7014ZM37.1764 37.7528H42.7113C42.9468 37.7528 43.2321 37.5593 43.2321 37.3206C43.2321 37.0819 42.9468 36.8898 42.7113 36.8898H37.1764C36.9412 36.8898 36.6563 37.0819 36.6563 37.3206C36.6563 37.5593 36.9412 37.7528 37.1764 37.7528ZM37.2752 38.8038H42.6125C42.8443 38.8038 43.1238 38.6123 43.1238 38.373C43.1238 38.1336 42.8443 37.9408 42.6125 37.9408H37.2752C37.0434 37.9408 36.7633 38.1343 36.7633 38.373C36.7633 38.6117 37.0434 38.8038 37.2752 38.8038ZM37.373 39.8565H42.5153C42.7417 39.8565 43.0159 39.6574 43.0159 39.4244C43.0159 39.1913 42.7414 38.9928 42.5153 38.9928H37.373C37.1476 38.9928 36.8728 39.192 36.8728 39.4244C36.8728 39.6567 37.1476 39.8565 37.373 39.8565ZM37.4718 40.9079H42.4166C42.6372 40.9079 42.9079 40.7078 42.9079 40.4764C42.9079 40.2434 42.6372 40.0445 42.4166 40.0445H37.4718C37.2499 40.0445 36.9795 40.2434 36.9795 40.4764C36.9795 40.7078 37.2495 40.9079 37.4718 40.9079ZM37.5687 41.9593H42.319C42.5305 41.9593 42.7999 41.7567 42.7999 41.5284C42.7999 41.2954 42.5353 41.0962 42.319 41.0962H37.5687C37.3534 41.0962 37.0887 41.2954 37.0887 41.5284C37.0887 41.7567 37.3569 41.9593 37.5687 41.9593ZM37.6671 43.0113H42.2209C42.427 43.0113 42.6907 42.8087 42.6907 42.5791C42.6907 42.3512 42.427 42.1483 42.2209 42.1483H37.6671C37.4604 42.1483 37.196 42.3512 37.196 42.5791C37.196 42.8071 37.4604 43.0113 37.6671 43.0113ZM37.7659 44.063H42.1221C42.3042 44.063 42.5831 43.8692 42.5831 43.6308C42.5831 43.3925 42.3042 43.1993 42.1221 43.1993H37.7659C37.5839 43.1993 37.3049 43.3931 37.3049 43.6308C37.3049 43.8686 37.5839 44.063 37.7659 44.063ZM37.8631 45.1147H42.0246C42.2029 45.1147 42.4742 44.9209 42.4742 44.6832C42.4742 44.4454 42.2029 44.2517 42.0246 44.2517H37.8631C37.6858 44.2517 37.4138 44.4451 37.4138 44.6832C37.4138 44.9213 37.6858 45.1147 37.8631 45.1147ZM37.9615 46.1661H41.9262C42.0959 46.1661 42.3665 45.9695 42.3665 45.7343C42.3665 45.499 42.0959 45.3027 41.9262 45.3027H37.9615C37.7915 45.3027 37.5218 45.5 37.5218 45.7343C37.5218 45.9685 37.7915 46.1661 37.9615 46.1661ZM38.06 47.2184H41.8277C41.9945 47.2184 42.2579 47.0209 42.2579 46.7875C42.2579 46.5517 41.9945 46.3554 41.8277 46.3554H38.06C37.8932 46.3554 37.6304 46.5517 37.6304 46.7875C37.6304 47.0209 37.8935 47.2184 38.06 47.2184ZM38.1575 48.2692H41.7302C41.8882 48.2692 42.1503 48.0681 42.1503 47.8383C42.1503 47.6085 41.8882 47.4062 41.7302 47.4062H38.1575C38.0002 47.4062 37.7387 47.6085 37.7387 47.8383C37.7387 48.0681 37.9998 48.2692 38.1575 48.2692ZM38.2563 49.3215H41.6311C41.7704 49.3215 42.0417 49.1262 42.0417 48.89C42.0417 48.6538 41.7704 48.4582 41.6311 48.4582H38.2563C38.117 48.4582 37.8463 48.6535 37.8463 48.89C37.8463 49.1265 38.117 49.3215 38.2563 49.3215ZM38.3535 50.3735H41.5333C41.6691 50.3735 41.9331 50.1782 41.9331 49.9417C41.9331 49.7052 41.6694 49.5089 41.5333 49.5089H38.3535C38.2192 49.5089 37.9546 49.7052 37.9546 49.9417C37.9546 50.1782 38.2192 50.3735 38.3535 50.3735ZM38.4526 51.4243H41.4358C41.5649 51.4243 41.8255 51.2242 41.8255 50.9934C41.8255 50.7487 41.5485 50.5625 41.4358 50.5625H38.4526C38.3399 50.5625 38.0628 50.7487 38.0628 50.9934C38.0628 51.2381 38.3399 51.4243 38.4526 51.4243ZM38.5498 52.4769H41.3373C41.445 52.4769 41.7163 52.2854 41.7163 52.0454C41.7163 51.8055 41.445 51.6133 41.3373 51.6133H38.5498C38.4443 51.6133 38.1711 51.8045 38.1711 52.0454C38.1711 52.2864 38.4443 52.4769 38.5498 52.4769ZM38.6479 53.5286H41.2401C41.343 53.5286 41.6086 53.3374 41.6086 53.0968C41.6086 52.8562 41.343 52.665 41.2401 52.665H38.6479C38.5441 52.665 38.2794 52.8562 38.2794 53.0968C38.2794 53.3374 38.5441 53.5286 38.6479 53.5286Z" fill="#FAB20B"/>
<path d="M35.4614 24.2465H44.4237V24.072H35.4614V24.2465Z" fill="#231F20"/>
<path d="M39.9537 20.8159C37.7072 20.8159 35.8394 22.1481 35.6643 23.8276L36.5884 22.9883L37.7107 24.0062L38.8324 22.9883L39.9541 24.0062L41.076 22.9883L42.1971 24.0062L43.3203 22.9883L44.2445 23.8276C44.0706 22.1481 42.2028 20.8159 39.9537 20.8159ZM36.5792 23.2847L37.4749 24.0964H35.8235H35.8223C35.7732 24.0962 35.7241 24.0993 35.6754 24.1056L36.5792 23.2847ZM38.8216 23.2847L39.716 24.0964H37.927L38.8216 23.2847ZM41.0669 23.2847L41.96 24.0964H40.1706L41.0669 23.2847ZM43.3102 23.2847L44.2144 24.1056C44.1651 24.0994 44.1155 24.0963 44.0659 24.0964H44.0646H42.4133L43.3102 23.2847Z" fill="#FAB20B"/>
<path d="M24.3872 17.9452L24.2124 18.0199C22.071 18.9396 21.4011 21.5267 21.202 22.7421L20.4359 20.608L20.275 20.7945C19.9088 21.2209 18.1261 23.488 18.1625 27.1807L16.5048 24.9066L16.3893 25.0595C16.3712 25.0833 14.6965 27.3482 15.9296 31.5265C14.2121 30.092 14.1817 30.092 14.1184 30.092L14.0123 30.0933L13.9829 30.1917C13.3424 32.3303 14.088 34.9282 14.3967 35.8476L12.5323 34.7231L12.5465 34.9868C12.5544 35.1169 12.7419 38.0434 13.955 39.6191L12.4243 39.1844L12.4525 39.3943C12.455 39.42 12.7979 41.808 14.409 43.0645L13.0613 42.7767L13.0939 42.9768C13.098 43.0031 13.5216 45.4965 15.404 46.5843L13.9088 46.4099L13.9661 46.6087C13.9696 46.6188 14.276 47.6607 14.7547 48.3142C15.1713 48.8853 15.8713 49.6606 17.257 50.1089L15.896 50.2026L16.009 50.3935C16.0154 50.4062 16.7369 51.6228 17.315 52.2031C18.3486 53.2428 19.7549 53.749 21.612 53.749L21.8789 53.7462L21.9026 53.7452L25.8068 51.5544L25.9093 51.1736L25.8536 51.1175C25.8156 51.0799 25.7856 51.0454 25.7615 51.0137C25.7273 50.9592 25.5142 50.4334 25.4107 50.1795L25.4044 50.1627L25.2312 49.7458C24.9792 49.2886 24.5901 48.3971 24.076 47.0975L24.0206 46.9566C23.843 46.5644 23.5926 46.2918 23.3485 46.0281C23.0927 45.7504 22.8505 45.4883 22.7637 45.1239L22.7508 45.0685L22.7188 44.933C22.5722 44.2609 22.4899 43.5815 22.4756 42.9103L22.4728 42.7216C22.4725 42.0704 22.5371 41.416 22.6656 40.7762C22.677 40.7183 22.6897 40.6613 22.7045 40.5948C22.8565 39.9072 23.0854 39.2256 23.3846 38.5671L23.4634 38.3971C23.7531 37.7929 24.0951 37.2152 24.4857 36.6707L24.5984 36.5165C24.8351 36.1958 25.0877 35.8872 25.3553 35.5918L25.4949 35.4398C25.8207 35.0928 26.0949 34.8399 26.2684 34.6917C26.3345 34.6322 26.3874 34.5895 26.4289 34.5559L26.4874 34.5078L24.3872 17.9452Z" fill="#231F20"/>
<path d="M24.4308 51.5168L18.5964 53.9732C18.5964 53.9732 21.6271 56.6895 25.4689 55.1974C26.9369 54.6266 29.2338 51.8565 27.0952 49.9839C26.349 49.3304 24.661 49.5204 24.3067 50.6364C24.0455 51.4617 25.0529 52.8452 26.3668 51.9103M29.4665 46.6838L29.3284 47.0241C27.8151 46.1975 26.7815 43.9459 26.7815 43.9459L25.7769 34.6145C25.134 34.7361 23.3889 35.2755 23.267 37.5483L23.2661 37.555V37.6186C22.0491 38.2413 22.0365 40.2399 22.109 40.6705C20.8717 42.2481 21.8734 44.1811 22.0583 44.473C21.6122 46.2386 22.5297 46.887 22.7786 47.0244C22.7345 47.8716 22.9315 48.3607 23.2927 48.7229C23.6672 49.0993 24.163 49.1025 24.4251 49.0712C24.4989 49.0631 24.5719 49.0488 24.6433 49.0284L24.6904 49.0148L24.7047 48.9654C25.0159 47.8925 26.2335 46.9497 27.0085 46.5521C27.0544 46.6037 27.2086 46.7787 27.2617 46.8294C27.2617 46.8294 28.4797 48.003 30.1123 47.2932L29.4665 46.6838Z" fill="#FAB20B"/>
<path d="M25.5692 51.3946L25.453 50.9162L24.7224 49.8908L16.4607 50.4704C16.6073 50.762 17.1698 51.562 17.6675 52.0619C18.2804 52.6764 19.4189 53.409 21.3649 53.409C21.536 53.4091 21.7071 53.4036 21.8778 53.3925L25.5692 51.3946ZM18.4888 50.0709L24.7252 49.5906C24.4045 49.0021 24.3057 48.6558 24.2183 48.3496C24.161 48.1467 24.1056 47.9545 23.9942 47.7111L14.3627 46.7854C14.4999 47.2789 14.7261 47.7432 15.03 48.1556C15.7851 49.1892 16.9495 49.8332 18.4888 50.0709ZM15.2814 43.2469L15.4033 43.3086L22.5186 44.9001C22.382 44.2571 22.3048 43.6029 22.2878 42.9458L14.7014 40.1775L12.8472 39.6441C12.9887 40.3523 13.5332 42.3652 15.2814 43.2472M16.5082 46.7091L23.349 47.4217C23.0271 46.7038 22.7722 45.9577 22.5876 45.1929L14.4462 43.3719L14.4491 43.3643L13.468 43.1842C13.6152 43.7917 14.3041 46.0569 16.5082 46.7091ZM24.1702 18.4733C22.2318 19.1989 21.5362 22.7095 21.4108 23.4434L25.4103 35.2568C25.6377 35.0171 25.8756 34.7876 26.1233 34.5689L24.1702 18.4733ZM22.2843 42.6542C22.288 42.0223 22.3512 41.3922 22.473 40.7721L14.495 36.3035L12.9171 35.3309C12.9485 36.0005 13.2828 38.587 14.5786 39.8439L22.2843 42.6542ZM14.8749 36.2025L22.5322 40.4938C22.6851 39.8255 22.9096 39.1632 23.1986 38.5212L16.1764 32.1486L14.2411 30.5267C14.0717 31.0931 13.7317 32.909 14.8749 36.2025ZM16.3929 31.9741L23.3186 38.2612C23.6026 37.6777 23.9348 37.1189 24.3117 36.5906L18.0113 27.5625L18.0288 27.5511L16.5044 25.4201C16.1292 26.104 15.2054 28.3264 16.3929 31.9741Z" fill="#FAB20B"/>
<path d="M20.3257 21.3396C19.785 21.9915 18.3119 24.1218 18.4949 27.7635V27.7736L24.4847 36.3544C24.7087 36.0552 24.9458 35.7661 25.1954 35.4879L21.1374 23.5007L20.3257 21.3396ZM29.2373 46.7822L29.5909 45.9717C29.0493 45.4028 28.5706 44.738 28.335 44.0086L24.5689 21.1117L26.9398 43.7236C26.9433 43.7325 27.2074 44.6899 28.0808 45.7153C28.3696 46.0559 28.7498 46.4286 29.237 46.7825" fill="#FAB20B"/>
<path d="M27.0518 44.5486C27.2923 45.0082 27.5829 45.4398 27.9183 45.8355C28.2681 46.2499 28.679 46.626 29.1365 46.9559L28.9424 47.4017C27.9854 47.3634 27.3307 46.7517 27.3244 46.7448C27.2927 46.7156 27.2139 46.6273 27.1737 46.5827C26.7662 45.9394 26.8574 45.0111 27.0518 44.5486ZM26.9644 43.7217L24.6761 21.9123L28.3131 44.0151C28.5223 44.6626 28.9424 45.322 29.5626 45.9767L29.2283 46.7463C28.8124 46.443 28.4332 46.0923 28.0984 45.7013C27.2344 44.6857 26.9663 43.7274 26.9647 43.722M24.7559 45.1884C24.7698 45.1545 24.8202 45.0475 24.8901 45.0387C25.2456 45.2805 25.6857 45.4084 26.1641 45.4084C26.3239 45.4084 26.4867 45.3933 26.6481 45.3651C26.6253 45.7842 26.694 46.1746 26.852 46.4962C26.6573 46.6023 26.1976 46.8736 25.7126 47.307C25.6978 47.2937 25.68 47.284 25.6607 47.2788C25.3352 47.2013 25.0519 46.9607 24.8642 46.6014C24.6277 46.1531 24.5856 45.5981 24.7559 45.1884ZM22.1079 44.6958C22.435 45.0127 23.0555 45.1938 23.8213 45.1938C24.042 45.1938 24.2769 45.1789 24.5203 45.1511C24.3671 45.5699 24.3912 46.0894 24.5875 46.5513C24.3355 46.7397 24.0122 46.8714 23.65 46.935C23.5358 46.9543 23.3863 46.9771 23.2369 46.9771C23.0422 46.9771 22.875 46.9388 22.7243 46.8606C22.7196 46.8578 22.7164 46.8565 22.7129 46.8565C22.4353 46.658 21.8344 46.0571 22.1079 44.6958ZM25.057 41.1352L25.0623 41.1665C25.0722 41.2244 25.0753 41.264 25.0424 41.2792C24.4627 41.5413 24.0651 42.0153 24.0002 42.519C23.0463 42.4173 22.3125 41.6727 22.2093 40.6983L22.2127 40.6948L22.208 40.6691L22.1975 40.4998C22.1972 40.4817 22.1937 40.4646 22.1852 40.4482C22.1494 39.7846 22.303 38.4014 23.1302 37.8189C23.1695 39.0387 23.9562 40.0391 25.0589 40.269C25.0224 40.5416 25.0221 40.8569 25.057 41.1352ZM24.7366 35.1073C25.1681 34.8537 25.5815 34.7486 25.7645 34.7119L26.1555 38.4109C26.1527 38.4119 26.1476 38.4131 26.1438 38.416C25.5692 38.7867 25.3058 39.4291 25.1247 40.0138C24.0952 39.7906 23.3569 38.8133 23.361 37.6809L23.3632 37.552C23.4224 36.4322 23.8846 35.6091 24.7369 35.1076M26.6697 45.1166C26.4962 45.1542 26.3201 45.172 26.1466 45.172C25.2991 45.172 24.6549 44.749 24.3779 44.0117C24.0318 43.0872 24.1154 41.9564 25.0886 41.5132C25.1067 41.5046 25.1206 41.4983 25.1307 41.4983C25.3273 42.2546 25.8703 43.0242 26.6465 43.0632L26.7403 43.9433L26.763 43.9417L26.7577 43.948C26.7675 43.9582 26.7972 44.0227 26.8314 44.0978L26.902 44.2501L26.9011 44.2516C26.7858 44.5394 26.7086 44.8307 26.6697 45.1166ZM25.6148 42.1191C25.4422 41.7987 25.3172 41.359 25.2593 40.8809C25.2035 40.4127 25.5527 39.0283 26.1862 38.7091L26.6209 42.8197C26.2128 42.7852 25.8291 42.518 25.6145 42.1191M24.1024 43.9132C24.2072 44.2944 24.3966 44.6135 24.6669 44.8639C24.4019 44.9174 24.1278 44.945 23.8501 44.945C23.0678 44.945 22.3761 44.7249 22.1671 44.4102C22.1532 44.389 22.1342 44.3738 22.1111 44.3669C21.8957 43.9707 21.7432 43.5435 21.659 43.1005C21.5086 42.2964 21.6299 41.5781 22.0177 40.9658C22.2051 41.9311 22.9995 42.6614 23.9758 42.758C23.954 43.1205 23.9989 43.5295 24.1024 43.9132ZM24.2034 48.9682C23.9644 48.9682 23.6235 48.9112 23.3563 48.6411C23.0064 48.2916 22.857 47.8335 22.8709 47.1604C22.9875 47.1827 23.1059 47.1935 23.2246 47.1924C23.3715 47.1922 23.5182 47.1795 23.663 47.1544C23.8172 47.1266 24.3358 47.0186 24.6929 46.7682C24.8952 47.1212 25.1877 47.3748 25.5223 47.4853C25.0383 47.9592 24.7217 48.441 24.5792 48.9216C24.518 48.9377 24.4557 48.9492 24.3928 48.9561C24.3298 48.9639 24.2665 48.9678 24.2031 48.9678M37.3276 54.1311L37.2934 54.1007C36.5981 53.4931 36.1726 52.4915 36.0292 51.1222C35.9643 50.5147 35.9928 49.8961 36.0194 49.4826L36.0308 49.3028L36.0514 49.2423L36.0349 49.2382L36.0378 49.1923L35.9995 49.2287L35.9349 49.2113C33.336 48.5164 31.6201 47.44 30.6374 46.6587C30.374 46.4446 30.1293 46.2281 29.9131 46.015C29.8267 45.9267 29.7852 45.8795 29.7852 45.8786L29.6671 45.7377L29.6598 45.7538C29.101 45.152 28.7218 44.5495 28.5328 43.9645L24.2702 18.232L24.2661 18.2095L24.042 18.2386L25.75 34.4988C25.1405 34.6176 23.2625 35.1716 23.135 37.5368V37.5469C21.9411 38.2194 21.9139 40.1357 21.9734 40.634C20.7374 42.2575 21.7743 44.2257 21.9193 44.4827C21.5302 46.0872 22.2523 46.803 22.5863 47.0392C22.598 47.0572 22.6116 47.0699 22.6303 47.0797C22.6341 47.0819 22.6392 47.0838 22.6442 47.0857C22.6151 47.8569 22.7858 48.3847 23.1929 48.794C23.5168 49.1198 23.9214 49.1879 24.2044 49.1879C24.2756 49.1879 24.3497 49.1831 24.4219 49.1749C24.4997 49.166 24.5767 49.1513 24.6524 49.1309L24.766 49.0964L24.7967 48.9897C25.1022 47.9377 26.2907 47.0544 26.9606 46.6887C26.9793 46.7191 26.9995 46.7505 27.0223 46.7809C27.0397 46.8033 27.0625 46.8188 27.0923 46.8264C27.116 46.8522 27.1401 46.8776 27.1648 46.9024C27.1942 46.9315 27.9094 47.6094 28.9975 47.6265C29.1131 47.8797 29.5544 48.6861 30.6754 49.3259C29.9052 50.6796 29.8878 52.173 30.6226 53.6464C31.1991 54.8041 32.0406 55.5741 32.2033 55.7169L32.2346 55.745H37.4238L37.3276 54.1311Z" fill="#231F20"/>
<path d="M35.771 49.3794C35.6427 49.5504 35.2188 49.9287 33.9952 49.9287C33.6103 49.9287 33.1743 49.891 32.6972 49.8169C30.4586 49.4677 29.4038 48.14 29.1426 47.4577L29.7273 46.1179C30.1614 46.5697 32.0688 48.3644 35.7713 49.3797" fill="#F9B10C"/>
<path d="M30.8053 53.5542C30.1003 52.1407 30.1063 50.7667 30.8234 49.469C31.3536 49.7112 31.9666 49.8958 32.6485 50.017C33.1686 50.1095 33.6476 50.1573 34.0684 50.1573C34.9399 50.1573 35.48 49.9189 35.8042 49.6748C35.7827 50.0791 35.7722 50.6097 35.827 51.1365C35.9739 52.5396 36.4124 53.5758 37.1288 54.2178L37.2073 55.5415H32.3139C32.1078 55.3569 31.3397 54.6262 30.8053 53.5542Z" fill="#FAB20B"/>
<path d="M25.4278 49.7825C24.9166 49.9196 24.5462 50.2422 24.4113 50.6674C24.3353 50.9007 24.3768 51.1818 24.499 51.436C24.5122 51.4464 24.5227 51.4597 24.5297 51.475C24.5348 51.4863 24.5379 51.4984 24.5389 51.5107C24.6319 51.6779 24.7612 51.8221 24.9172 51.9328C25.3212 52.2114 25.8128 52.1743 26.3026 51.8254C26.3259 51.8088 26.3548 51.8019 26.3831 51.8061C26.4114 51.8103 26.437 51.8253 26.4545 51.8479C26.49 51.8954 26.4786 51.9603 26.4305 51.9951C25.8679 52.395 25.2718 52.4342 24.7931 52.1037C24.6221 51.9863 24.48 51.8302 24.373 51.6545L18.7985 54.0026C19.4124 54.4835 22.1315 56.3795 25.4275 55.0993C26.3938 54.7244 27.5832 53.4742 27.8149 52.2117C27.9691 51.3797 27.7009 50.6563 27.0225 50.0605C26.7638 49.835 26.3738 49.7125 25.9622 49.7125C25.7817 49.7121 25.6019 49.7355 25.4275 49.7822M18.5224 54.051L18.4009 53.9412L24.2758 51.4664C24.1526 51.1828 24.1188 50.8722 24.2027 50.6056C24.3609 50.1102 24.7855 49.7366 25.3712 49.5796C26.0237 49.4048 26.7452 49.5356 27.1672 49.9053C27.8953 50.5423 28.1929 51.3525 28.0286 52.2481C27.7839 53.5793 26.5283 54.8982 25.5076 55.294C24.752 55.591 23.9474 55.7439 23.1354 55.7448C20.4536 55.7448 18.5459 54.0723 18.5221 54.0507M55.8196 17.9452L55.9943 18.0199C58.1357 18.9396 58.8066 21.5267 59.0054 22.7421L59.7712 20.608L59.9317 20.7945C60.2987 21.2209 62.082 23.488 62.0462 27.1807L63.7029 24.9066L63.8194 25.0595C63.8368 25.0833 65.5116 27.3482 64.2788 31.5265C65.9969 30.092 66.0264 30.092 66.0897 30.092L66.1964 30.0933L66.2255 30.1917C66.8659 32.3303 66.1204 34.9282 65.8114 35.8476L67.677 34.7231L67.6615 34.9868C67.6536 35.1169 67.4662 38.0434 66.253 39.6191L67.7837 39.1844L67.7559 39.3943C67.753 39.42 67.4111 41.808 65.8003 43.0645L67.1464 42.7767L67.1145 42.9768C67.1107 43.0031 66.6855 45.4965 64.8043 46.5843L66.2999 46.4099L66.2416 46.6087C66.2388 46.6188 65.9323 47.6607 65.4536 48.3142C65.0373 48.8853 64.3377 49.6606 62.9513 50.1089L64.3124 50.2026L64.2006 50.3935C64.193 50.4062 63.4712 51.6228 62.8934 52.2031C61.8597 53.2428 60.4544 53.749 58.5957 53.749C58.5084 53.749 58.42 53.7478 58.3301 53.7462L58.3057 53.7452L54.4029 51.5544L54.299 51.1736L54.355 51.1175C54.388 51.0848 54.419 51.0501 54.4478 51.0137C54.4807 50.9593 54.6951 50.4334 54.7973 50.1795L54.804 50.1627L54.9765 49.7458C55.2295 49.2886 55.6176 48.3971 56.1314 47.0975L56.1881 46.9566C56.3644 46.5644 56.6164 46.2918 56.8602 46.0281C57.1157 45.7504 57.3576 45.4883 57.4449 45.1239L57.4573 45.0685C57.4688 45.0236 57.4793 44.9784 57.4889 44.933C57.6357 44.2683 57.7171 43.5909 57.7321 42.9103L57.7359 42.7216C57.7368 42.0704 57.6713 41.416 57.5425 40.7762L57.5041 40.5948C57.349 39.8969 57.1209 39.2173 56.8238 38.5671L56.7456 38.3971C56.4552 37.7933 56.1133 37.2157 55.7237 36.6707L55.6097 36.5165C55.3738 36.1958 55.1183 35.8846 54.8527 35.5918L54.7134 35.4398C54.387 35.0928 54.1132 34.8399 53.9394 34.6917C53.8735 34.6322 53.8207 34.5895 53.7798 34.5559L53.72 34.5078L55.8196 17.9452Z" fill="#231F20"/>
<path d="M55.7757 51.5168L61.6113 53.9732C61.6113 53.9732 58.5806 56.6895 54.7385 55.1974C53.2699 54.6266 50.9734 51.8565 53.1116 49.9839C53.8578 49.3304 55.5455 49.5204 55.9001 50.6364C56.1622 51.4617 55.1539 52.8452 53.8398 51.9103M50.7397 46.6838L50.8778 47.0241C52.3911 46.1975 53.4247 43.9459 53.4247 43.9459L54.4292 34.6145C55.0729 34.7361 56.8179 35.2755 56.9395 37.5483C56.9407 37.5518 56.9398 37.5537 56.9398 37.555C56.9405 37.5762 56.9408 37.5974 56.9407 37.6186C58.158 38.2413 58.17 40.2399 58.0972 40.6705C59.3344 42.2481 58.3328 44.1811 58.1488 44.473C58.5936 46.2386 57.6765 46.887 57.4283 47.0244C57.4716 47.8716 57.2754 48.3607 56.9145 48.7229C56.5387 49.0993 56.0429 49.1025 55.7808 49.0712C55.6516 49.0556 55.5664 49.0294 55.5626 49.0284L55.5155 49.0148L55.5015 48.9654C55.191 47.8925 53.9721 46.9497 53.1983 46.5521C53.1512 46.6037 52.9986 46.7787 52.9454 46.8294C52.9454 46.8294 51.7262 48.003 50.0933 47.2932L50.7397 46.6838Z" fill="#FAB20B"/>
<path d="M54.6363 51.3946L54.755 50.9162L55.4847 49.8908L63.7464 50.4704C63.6004 50.762 63.0369 51.562 62.5395 52.0619C61.9269 52.6764 60.7885 53.409 58.8428 53.409C58.6713 53.4091 58.5 53.4036 58.3289 53.3925L54.6363 51.3946ZM61.7189 50.0709L55.4822 49.5906C55.8022 49.0021 55.9017 48.6558 55.9884 48.3496C56.0463 48.1467 56.1011 47.9545 56.2125 47.7111L65.8434 46.7854C65.7747 47.0447 65.593 47.5879 65.1764 48.1556C64.4213 49.1892 63.2576 49.8332 61.7189 50.0709ZM64.926 43.2469L64.8035 43.3086L57.6882 44.9001C57.8252 44.2501 57.9038 43.5932 57.9186 42.9458L65.5053 40.1775L67.3593 39.6441C67.219 40.3523 66.6742 42.3652 64.9257 43.2472M63.6992 46.7091L56.8587 47.4217C57.1876 46.6825 57.4434 45.9325 57.6198 45.1929L65.7611 43.3719L65.7583 43.3643L66.7384 43.1842C66.5915 43.7917 65.9026 46.0569 63.6992 46.7091ZM56.0359 18.4733C57.975 19.1989 58.6708 22.7095 58.7953 23.4434L54.7965 35.2568C54.5014 34.9463 54.2507 34.7152 54.0835 34.5689L56.0359 18.4733ZM57.9227 42.6542C57.9189 42.0236 57.8559 41.3917 57.7328 40.7721L65.7117 36.3035L67.2893 35.3309C67.2586 36.0005 66.9243 38.587 65.6291 39.8439L57.9227 42.6542ZM65.3322 36.2025L57.6742 40.4938C57.5186 39.8157 57.2956 39.1549 57.0084 38.5212L64.0307 32.1486L65.9656 30.5267C66.1344 31.0931 66.4747 32.909 65.3322 36.2025ZM63.8141 31.9741L56.8875 38.2612C56.6037 37.6777 56.2716 37.1189 55.8947 36.5906L62.196 27.5628L62.178 27.5514L63.7017 25.4205C64.0769 26.1043 65.001 28.3264 63.8141 31.9741Z" fill="#FAB20B"/>
<path d="M59.8825 21.3396C60.4217 21.9915 61.8951 24.1218 61.7121 27.7635V27.7736L55.7232 36.3544C55.4992 36.055 55.2617 35.7659 55.0115 35.4879L59.0692 23.5007L59.8825 21.3396ZM50.969 46.7822L50.6157 45.9717C51.1577 45.4028 51.6361 44.738 51.8719 44.0086L55.639 21.1117L53.2668 43.7236C53.2633 43.7325 52.9999 44.6899 52.1271 45.7153C51.8374 46.0559 51.4575 46.4286 50.9693 46.7825" fill="#FAB20B"/>
<path d="M53.0326 46.5827L52.8829 46.7448C52.8762 46.7515 52.2218 47.3637 51.2645 47.4017L51.0707 46.956C51.5288 46.6267 51.9385 46.2503 52.2889 45.8356C52.6207 45.4446 52.912 45.0121 53.1554 44.5486C53.3492 45.0112 53.4407 45.94 53.0326 46.5827ZM52.1078 45.7013C51.7735 46.0922 51.3947 46.4428 50.9792 46.7461L50.6446 45.9765C51.2641 45.3218 51.6858 44.6623 51.8954 44.0149L55.5311 21.912L53.2441 43.7214C53.2406 43.7268 52.9734 44.6851 52.1082 45.701M55.344 46.6004C55.1556 46.9601 54.872 47.2004 54.5465 47.2779C54.5272 47.284 54.5095 47.2928 54.4949 47.3061C54.0096 46.8727 53.5505 46.6011 53.3561 46.4953C53.5119 46.1737 53.5828 45.7833 53.56 45.3642C53.7196 45.393 53.8829 45.4075 54.0441 45.4075C54.5225 45.4075 54.9625 45.2796 55.318 45.0378C55.3874 45.0466 55.4371 45.154 55.4513 45.1875C55.6223 45.5975 55.5792 46.1522 55.3437 46.6004M57.4936 46.8559C57.4914 46.8559 57.4876 46.8572 57.4822 46.8601C57.3325 46.9382 57.1644 46.9769 56.9706 46.9769C56.8209 46.9769 56.6708 46.9538 56.5581 46.9341C56.195 46.8705 55.8714 46.7388 55.6197 46.5504C55.816 46.0885 55.8398 45.5693 55.6859 45.1502C55.9294 45.178 56.1646 45.1929 56.3849 45.1929C57.1523 45.1929 57.7725 45.0118 58.0986 44.6949C58.3722 46.0562 57.7722 46.6574 57.4933 46.8556M55.148 40.2681C56.251 40.0385 57.0374 39.0381 57.0764 37.818C57.9049 38.4005 58.0575 39.7837 58.022 40.4473C58.0141 40.4637 58.0103 40.4805 58.0103 40.4989L58.0002 40.6682L57.9942 40.6939L57.9976 40.6977C57.8941 41.6715 57.1606 42.4161 56.2061 42.5177C56.1415 42.014 55.7435 41.5401 55.1648 41.278C55.1319 41.2628 55.1347 41.2232 55.1445 41.1653L55.1499 41.1339C55.1857 40.8463 55.1852 40.5553 55.1483 40.2677M56.844 37.5505L56.8453 37.6793C56.8513 38.8118 56.1117 39.7891 55.0815 40.0123C54.9017 39.4275 54.6386 38.7852 54.0631 38.4144C54.0593 38.4119 54.0542 38.4103 54.052 38.4097L54.4433 34.7104C54.6244 34.7471 55.0398 34.8522 55.4694 35.1058C56.3219 35.6073 56.7842 36.4304 56.8437 37.5502M53.3052 44.2495L53.3049 44.2479L53.3748 44.0956L53.4492 43.9459L53.4432 43.9395L53.467 43.9417L53.5597 43.0616C54.3369 43.0224 54.8783 42.2528 55.0755 41.4967C55.0903 41.4988 55.1046 41.5036 55.1176 41.511C56.0905 41.9545 56.1741 43.0851 55.8284 44.0095C55.5526 44.7468 54.9081 45.1698 54.0596 45.1698C53.8871 45.1698 53.7104 45.1521 53.5363 45.1144C53.4952 44.8176 53.4174 44.5271 53.3049 44.2495M53.5847 42.8175L54.0191 38.707C54.6538 39.0264 55.0018 40.4105 54.9464 40.8788C54.8894 41.3565 54.7637 41.7969 54.5918 42.1169C54.3768 42.5158 53.9925 42.783 53.5847 42.8175ZM56.2301 42.7555C57.2062 42.6589 58.0008 41.9286 58.1882 40.9633C58.5757 41.5759 58.697 42.2939 58.5466 43.098C58.4622 43.5409 58.3099 43.9681 58.0948 44.3644C58.0711 44.372 58.0521 44.3869 58.0378 44.4084C57.8289 44.7228 57.1375 44.9428 56.3561 44.9428C56.0788 44.9428 55.8037 44.9153 55.5381 44.8617C55.8087 44.6113 55.9981 44.2922 56.1029 43.911C56.2064 43.5277 56.2523 43.1183 56.2298 42.7558M55.8129 48.9546C55.7498 48.9473 55.6873 48.9357 55.6258 48.9201C55.4839 48.4389 55.167 47.9573 54.6836 47.4831C55.017 47.3726 55.3095 47.1187 55.5127 46.766C55.8699 47.0164 56.3887 47.1244 56.5423 47.1526C56.6059 47.1637 56.7762 47.1903 56.9817 47.1903C57.1001 47.1913 57.2184 47.1806 57.3347 47.1583C57.3489 47.8317 57.1989 48.2894 56.8506 48.6396C56.5822 48.9096 56.2412 48.9663 56.0019 48.9663C55.9388 48.9661 55.8758 48.9623 55.8132 48.9549M42.7847 55.7438H47.972L48.0039 55.7156C48.166 55.5729 49.0078 54.8035 49.584 53.6452C50.3188 52.1721 50.3004 50.679 49.5308 49.3253C50.6531 48.6849 51.0932 47.8788 51.2103 47.6256C52.2972 47.6088 53.012 46.9306 53.0418 46.9015C53.0592 46.8854 53.0858 46.8581 53.114 46.8255C53.1421 46.8191 53.1671 46.8029 53.1846 46.78C53.2074 46.7496 53.2267 46.7182 53.2466 46.6878C53.9162 47.0535 55.1047 47.9368 55.4098 48.9888L55.4406 49.0955L55.5545 49.13C55.6302 49.1506 55.7074 49.1654 55.7853 49.1743C55.8578 49.1822 55.93 49.187 56.0015 49.187C56.2843 49.187 56.6892 49.1189 57.0143 48.7931C57.4205 48.3841 57.5915 47.8563 57.5623 47.0848C57.5671 47.0832 57.5725 47.081 57.5763 47.0788C57.5949 47.069 57.6089 47.0563 57.6203 47.0386C57.9543 46.8021 58.6764 46.0863 58.2873 44.4818C58.4326 44.2248 59.4691 42.2566 58.2338 40.6331C58.293 40.1354 58.2658 38.2185 57.0713 37.546V37.5359C56.9443 35.1707 55.067 34.6167 54.4579 34.4983L56.1646 18.2374L55.9405 18.2083L55.9366 18.2307L51.6725 43.9626C51.4842 44.5477 51.1052 45.1502 50.5468 45.752L50.5401 45.7365L50.4211 45.877C50.4208 45.878 50.3805 45.9252 50.2941 46.0135C50.0766 46.2266 49.8316 46.4431 49.5685 46.6571C48.5868 47.4385 46.869 48.5149 44.2704 49.2101L44.2071 49.2269L44.1682 49.1904L44.1707 49.2364L44.1552 49.2405L44.1764 49.3009L44.1865 49.4808C44.2141 49.8939 44.2419 50.5128 44.1773 51.1204C44.0333 52.4902 43.6078 53.4913 42.9135 54.0991L42.879 54.1292L42.7847 55.7438Z" fill="#231F20"/>
<path d="M44.4363 49.3794C44.5654 49.5504 44.9881 49.9287 46.2114 49.9287C46.5967 49.9287 47.0323 49.891 47.5107 49.8169C49.7483 49.4677 50.8044 48.14 51.0643 47.4577L50.4802 46.1179C50.0459 46.5697 48.1388 48.3644 44.4363 49.3797" fill="#F9B10C"/>
<path d="M49.4012 53.5542C50.1066 52.1407 50.1005 50.7667 49.3825 49.469C48.8522 49.7112 48.24 49.8958 47.558 50.017C47.0376 50.1095 46.5598 50.1573 46.1375 50.1573C45.2659 50.1573 44.7265 49.9189 44.4016 49.6748C44.4232 50.0791 44.4346 50.6097 44.3792 51.1365C44.2323 52.5396 43.7932 53.5758 43.077 54.2178L42.9985 55.5415H47.892C48.0975 55.3569 48.8668 54.6262 49.4006 53.5542" fill="#FAB20B"/>
<path d="M54.2438 49.7128C53.8322 49.7128 53.4425 49.8354 53.1851 50.0608C52.5051 50.6563 52.2389 51.38 52.3911 52.212C52.6238 53.4745 53.8132 54.7247 54.7791 55.0996C58.0745 56.3799 60.7946 54.4838 61.4088 54.0029L55.8334 51.6548C55.7261 51.8305 55.5842 51.9866 55.4142 52.104C54.9355 52.4346 54.3388 52.3953 53.7765 51.9954C53.7274 51.9603 53.717 51.8951 53.7515 51.8482C53.7885 51.8011 53.8553 51.7922 53.9035 51.8258C54.3935 52.1743 54.8852 52.2117 55.2892 51.9331C55.4446 51.8251 55.5741 51.676 55.6688 51.5111C55.6691 51.4994 55.6726 51.4861 55.6767 51.4753C55.6843 51.4598 55.6941 51.4462 55.7071 51.4363C55.8309 51.1821 55.8707 50.901 55.7967 50.6677C55.6615 50.2425 55.2904 49.9202 54.7788 49.7828C54.6042 49.7362 54.4242 49.7127 54.2435 49.7132M57.0703 55.7461C56.3298 55.7461 55.5329 55.6191 54.6972 55.2949C53.6777 54.8989 52.4225 53.5803 52.1771 52.249C52.0125 51.3534 52.3104 50.5433 53.0386 49.9063C53.4606 49.5365 54.1824 49.4058 54.8352 49.5805C55.4215 49.7375 55.8457 50.1111 56.0031 50.6066C56.0867 50.8728 56.054 51.1837 55.9299 51.4674L61.8058 53.9421L61.6839 54.052C61.6599 54.0735 59.7518 55.7464 57.0703 55.7464M57.8836 58.3563C57.4328 57.4407 56.2864 56.7598 56.1288 56.7598L56.0183 56.762L55.9103 56.9453L55.9619 57.0368C56.3459 57.7159 56.3 58.0552 56.2383 58.1958C56.2049 58.2756 56.1451 58.3414 56.0689 58.3823L55.7963 58.2936L54.1479 57.8099L51.411 57.2188L48.9115 56.8174C49.0025 56.7038 49.0645 56.5699 49.0923 56.427C49.1391 56.1839 49.085 55.9379 48.9416 55.7343C48.7982 55.5308 48.5816 55.3924 48.3309 55.3468C45.7428 54.877 42.9689 54.639 40.0857 54.639C35.2419 54.639 31.6949 55.3215 31.5458 55.3503C31.0316 55.4519 30.6983 55.9408 30.8008 56.4403C30.8296 56.5784 30.8904 56.7063 30.9778 56.8174C29.9962 56.9533 29.0182 57.1138 28.0446 57.2986C27.5693 57.3843 27.0964 57.4826 26.6263 57.5933C26.1252 57.707 25.5205 57.914 24.9829 58.0964C24.5359 58.2487 24.0746 58.4051 23.8916 58.4203L23.865 58.4101C23.8584 58.4076 23.7207 58.3655 23.6507 58.2072C23.5877 58.0666 23.5409 57.7263 23.9268 57.0425L23.9777 56.9466L23.865 56.7677H23.7571C23.5959 56.7677 22.4265 57.4639 21.987 58.4C21.6793 59.0538 21.7835 59.6752 22.2964 60.2492C22.3981 60.3631 22.5091 60.4685 22.6281 60.5642C24.6141 62.1785 23.7451 63.2726 23.7061 63.3185L23.6669 63.3663L23.6646 63.4271C23.6618 63.4724 23.6532 63.8801 23.9594 64.1907C24.1721 64.4069 24.4757 64.5158 24.862 64.5158C25.2254 64.5158 25.6683 64.4161 26.179 64.2211L26.9461 63.9248C28.3292 63.3891 28.8469 63.1878 30.1901 63.019C33.7967 62.6027 37.8465 62.5407 39.9398 62.5407C41.737 62.5407 46.3301 62.5929 50.1617 63.0763C51.1796 63.2337 51.7329 63.4486 52.9439 63.9184L53.0287 63.9511L53.7103 64.2141C54.7617 64.6168 55.5171 64.6016 55.928 64.1841C56.2437 63.8627 56.224 63.4356 56.2231 63.4192L56.2209 63.3587L56.1819 63.3128C56.1734 63.303 55.4104 62.2921 57.2701 60.5481L57.6576 60.1672C58.122 59.6062 58.1983 58.998 57.8833 58.3566" fill="#231F20"/>
<path d="M57.4366 59.9918C57.7668 59.5964 57.8643 59.1699 57.7269 58.7242C57.5113 58.0204 56.7467 57.4198 56.3463 57.1637C56.5729 57.6411 56.6233 58.0252 56.4973 58.3088C56.3706 58.5953 56.1098 58.6643 56.0987 58.6672L56.0718 58.6738L56.0436 58.6647L55.7039 58.5535L54.0741 58.0758L51.3613 57.4904C47.7284 56.8253 43.3532 56.4131 39.9401 56.4131C36.4073 56.4131 31.7585 56.8674 28.0962 57.5696C27.6508 57.649 27.1794 57.7466 26.6919 57.8618C26.203 57.9723 25.6053 58.1758 25.0773 58.356C24.5163 58.5463 24.0721 58.6976 23.8828 58.6976C23.8616 58.6976 23.8081 58.6976 23.7653 58.6662C23.6823 58.6366 23.6062 58.5904 23.5417 58.5303C23.4773 58.4702 23.4258 58.3975 23.3905 58.3167C23.2651 58.0315 23.3158 57.6481 23.5421 57.1707C23.1353 57.43 22.3581 58.0435 22.1529 58.7587C22.0209 59.2146 22.139 59.6524 22.5021 60.058C22.5965 60.1649 22.6999 60.2635 22.8111 60.3527C24.8395 62.0015 24.0917 63.2599 23.9493 63.4644C23.9505 63.5455 23.9749 63.8073 24.1671 64.0017C24.4913 64.3284 25.1536 64.317 26.0745 63.9647L26.8406 63.6686C28.2476 63.1225 28.7747 62.9186 30.1563 62.7445C33.7777 62.3269 37.8402 62.2649 39.9401 62.2649C41.7421 62.2649 46.3507 62.3168 50.2038 62.8028C51.2565 62.9661 51.8175 63.1839 53.0493 63.6617L53.8145 63.9567C54.2903 64.14 54.6981 64.2312 55.0264 64.2312H55.0267C55.3322 64.2312 55.5665 64.1511 55.7229 63.9922C55.9154 63.7981 55.9369 63.5379 55.9398 63.4568C55.8039 63.2656 55.1562 62.1459 57.0735 60.3489C57.1586 60.2675 57.4116 60.0225 57.4366 59.9918Z" fill="white"/>
<path d="M25.8164 59.8277L26.0618 60.9089L25.1338 59.973L24.7346 60.0579L25.1414 61.8526L25.5381 61.7687L25.2988 60.7135L26.1963 61.613L26.2087 61.6253L26.6199 61.5382L26.2147 59.7438L25.8164 59.8277ZM27.815 60.5429L27.4148 60.6135L27.5149 60.0487L27.815 60.5429ZM27.6327 59.4839L27.2056 59.5599L26.8197 61.4961L27.2733 61.4164L27.3471 60.9925L28.023 60.8725L28.2544 61.2413L28.7167 61.1593L27.6444 59.5013L27.6327 59.4839ZM29.6006 60.0053L29.6563 60.3624L30.0739 60.3026L30.1017 60.4789C30.0561 60.522 30.0017 60.5613 29.9384 60.597C29.8724 60.634 29.8003 60.6589 29.7256 60.6705C29.5816 60.6917 29.4556 60.6594 29.3517 60.5765C29.2476 60.4913 29.1782 60.3469 29.1482 60.1472C29.1194 59.9626 29.1428 59.8163 29.2162 59.7115C29.2897 59.6067 29.4024 59.5441 29.5531 59.5225C29.6496 59.5077 29.7367 59.5197 29.8073 59.5555C29.8788 59.5914 29.9357 59.6509 29.9684 59.7239L29.9808 59.7502L30.3914 59.6109L30.38 59.5814C30.3167 59.4193 30.21 59.2987 30.0625 59.2218C29.9178 59.1461 29.7272 59.1243 29.4964 59.1575C29.3194 59.1832 29.1748 59.236 29.0633 59.313C28.918 59.4152 28.8142 59.5469 28.7556 59.7055C28.697 59.8641 28.6812 60.0395 28.7113 60.2257C28.7359 60.3928 28.7983 60.5521 28.8939 60.6914C28.9902 60.8291 29.1194 60.9285 29.2767 60.9864C29.3828 61.026 29.4983 61.046 29.6208 61.046C29.6827 61.0457 29.7445 61.0411 29.8057 61.0323C29.9599 61.0094 30.1087 60.9587 30.2448 60.8826C30.3835 60.8053 30.4902 60.7218 30.5573 60.636L30.5652 60.6258L30.4512 59.8825L29.6006 60.0053ZM31.8173 59.9711L31.4124 60.017L31.5457 59.4599L31.8173 59.9711ZM31.7005 58.9039L31.2699 58.9546L30.7637 60.8626L31.2205 60.8098L31.3206 60.3919L32.0035 60.3137L32.2096 60.6945L32.6778 60.6391L31.7106 58.922L31.7005 58.9039ZM33.8466 59.3608C33.8275 59.3925 33.7991 59.4176 33.7653 59.4326C33.7374 59.4431 33.6617 59.4617 33.4465 59.4807L33.2071 59.502L33.1695 59.1154L33.4243 59.0923L33.6811 59.0746H33.6877C33.7409 59.078 33.7827 59.0958 33.8131 59.1239C33.8435 59.1521 33.8615 59.1911 33.8659 59.2446C33.8713 59.2902 33.8637 59.3294 33.8466 59.3611M35.6993 59.633L35.2928 59.6584L35.4577 59.1091L35.6993 59.633ZM35.2102 58.5895L34.5998 60.4625L34.3136 60.099C34.2113 59.9664 34.1322 59.8774 34.0733 59.8268C34.0318 59.791 33.9834 59.7568 33.9286 59.7264C34.0527 59.6868 34.1477 59.6242 34.2113 59.5418C34.2876 59.4418 34.3206 59.3212 34.3066 59.18C34.2983 59.0757 34.2595 58.9761 34.1949 58.8938C34.1335 58.8143 34.0476 58.7573 33.9505 58.7317C33.8539 58.7073 33.7073 58.7035 33.5101 58.7212L32.7047 58.7937L32.8785 60.6224L33.3094 60.5844L33.2394 59.8464L33.2822 59.8426C33.3616 59.836 33.4211 59.836 33.4582 59.8448C33.4924 59.8534 33.5281 59.873 33.5623 59.9018C33.5981 59.9325 33.6703 60.0132 33.7767 60.1411L34.0891 60.5138L34.6033 60.4682L35.0563 60.4403L35.1807 60.0278L35.8658 59.9848L36.052 60.377L36.5208 60.3479L35.642 58.5614L35.2102 58.5895ZM37.8521 59.9373L37.8201 58.8232L37.954 58.8203C38.1009 58.8165 38.2019 58.8191 38.2513 58.8283C38.3093 58.8373 38.3636 58.8619 38.4087 58.8995C38.4504 58.9362 38.4846 58.9891 38.5103 59.0553C38.5356 59.1252 38.5505 59.2284 38.5537 59.3614C38.5568 59.4944 38.5489 59.602 38.5274 59.6796C38.5058 59.7527 38.4783 59.8062 38.4438 59.8388C38.4093 59.8714 38.365 59.8936 38.3111 59.9094C38.2671 59.9205 38.1946 59.9284 38.0959 59.93L37.8521 59.9373ZM38.7351 58.644C38.6531 58.5645 38.5549 58.5088 38.4413 58.4797C38.358 58.4582 38.2361 58.4509 38.0832 58.4541L37.3769 58.4727L37.4288 60.2795L37.4298 60.3108L38.1554 60.2909C38.2972 60.2871 38.4061 60.2716 38.491 60.2428C38.6027 60.2045 38.6933 60.1525 38.7579 60.0861C38.8491 59.9933 38.916 59.8795 38.9526 59.7546C38.988 59.6454 39.0045 59.5137 38.9997 59.3658C38.995 59.1965 38.9696 59.0518 38.9253 58.9378C38.881 58.8213 38.8167 58.7235 38.7351 58.644ZM40.3164 59.4978L39.9096 59.4988L40.1097 58.9603L40.3164 59.4978ZM39.8969 58.4256L39.1612 60.2627H39.6218L39.7725 59.8587H40.4589L40.6184 60.2627H41.0895L40.3307 58.4249L39.8969 58.4256ZM42.4179 59.5669L41.7597 58.4566L41.7509 58.4417L41.3409 58.4303L41.2899 60.2678L41.6955 60.2776L41.7262 59.1983L42.3831 60.296L42.8026 60.3083L42.8548 58.4708L42.448 58.4598L42.4179 59.5669ZM44.2117 59.6121L43.8043 59.5906L44.0376 59.0638L44.2117 59.6121ZM44.2886 58.5408L43.8565 58.5183L43.0144 60.3137L43.4744 60.3381L43.6479 59.9433L44.3333 59.9803L44.4688 60.3903L44.9395 60.4172L44.295 58.5611L44.2886 58.5408ZM48.8057 60.0281L48.4005 59.9787L48.6705 59.4709L48.8057 60.0281ZM46.4199 59.0594L46.6747 59.0831L46.9369 59.1132C46.9819 59.122 47.0223 59.1466 47.0508 59.1825C47.0762 59.2201 47.0865 59.2659 47.0797 59.3107C47.0776 59.3517 47.0629 59.3911 47.0376 59.4234C47.0132 59.4516 46.9801 59.4709 46.9435 59.4782C46.9334 59.4807 46.9116 59.483 46.8685 59.483C46.7861 59.4817 46.7038 59.477 46.6219 59.4687L46.3822 59.4459L46.4199 59.0594ZM48.958 58.9653L48.5274 58.9134L47.565 60.6391L47.3548 60.2323C47.2788 60.0842 47.2193 59.9829 47.1702 59.9208C47.134 59.8752 47.0927 59.834 47.0471 59.798C47.1775 59.7799 47.2829 59.7369 47.3611 59.6663C47.4558 59.5824 47.5105 59.47 47.5245 59.3294C47.5359 59.2252 47.5166 59.1199 47.4691 59.0264C47.4197 58.9343 47.351 58.8666 47.2601 58.8238C47.1693 58.7811 47.03 58.7529 46.8292 58.7339L46.0248 58.6583L45.8466 60.4574L45.844 60.4881L46.2746 60.5274L46.3477 59.7907L46.3908 59.7932C46.4715 59.8018 46.5285 59.8135 46.5633 59.8277C46.5953 59.8426 46.6266 59.8682 46.6535 59.9024C46.6839 59.9401 46.7387 60.0319 46.8194 60.1763L47.055 60.5996L47.5691 60.6477L48.0177 60.7021L48.2181 60.32L48.8997 60.4036L49.0058 60.8228L49.4721 60.881L48.9627 58.9853L48.958 58.9653ZM51.6705 59.3566L51.0918 59.268L50.2823 59.8926L50.4 59.1629L49.972 59.0974L49.6779 60.9124L50.1069 60.9769L50.1952 60.4299L50.495 60.213L50.8483 61.0909L51.3976 61.1745L50.8391 59.9651L51.6705 59.3566ZM52.8618 60.7411C52.8086 60.8573 52.744 60.9374 52.6696 60.9804C52.5952 61.0235 52.5148 61.0374 52.4256 61.0197C52.3697 61.0118 52.3164 60.9912 52.2698 60.9594C52.2231 60.9276 52.1845 60.8855 52.1568 60.8364C52.0969 60.7347 52.0887 60.5758 52.1302 60.3637C52.1682 60.1639 52.2362 60.0269 52.3293 59.9547C52.4246 59.8822 52.5329 59.8581 52.6563 59.8803C52.7437 59.8971 52.8156 59.9357 52.8678 59.9939C52.9201 60.0522 52.9473 60.1269 52.9511 60.2143L52.9524 60.2456L53.3934 60.2254L53.3899 60.1928C53.375 60.0411 53.3326 59.9157 53.2623 59.8217C53.1458 59.665 52.972 59.5643 52.7453 59.5225C52.486 59.4747 52.2562 59.5191 52.0631 59.6565C51.8718 59.7932 51.7449 60.0126 51.6882 60.3089C51.6328 60.591 51.6692 60.831 51.7955 61.0232C51.8445 61.0963 51.9054 61.1606 51.9757 61.2134L51.8981 61.3144C51.9526 61.3184 52.0065 61.3287 52.0586 61.3451C52.1093 61.3632 52.1444 61.3869 52.1625 61.4126C52.178 61.442 52.183 61.4683 52.1713 61.4927C52.1625 61.523 52.14 61.5386 52.1093 61.5506C52.0624 61.5617 52.0083 61.5566 51.9412 61.5329C51.8673 61.5056 51.7945 61.4752 51.723 61.442L51.674 61.5747C51.723 61.6066 51.7955 61.6377 51.8943 61.6737C52.0346 61.7228 52.153 61.7307 52.2498 61.7038C52.2831 61.6951 52.3137 61.6785 52.3391 61.6553C52.3644 61.6321 52.3838 61.6032 52.3955 61.5709C52.417 61.5098 52.4107 61.4515 52.3736 61.3901C52.3736 61.3879 52.3711 61.3853 52.3695 61.3828C52.4325 61.3942 52.4936 61.4008 52.5522 61.4008C52.6728 61.4008 52.783 61.3768 52.8824 61.3296C53.0315 61.2574 53.155 61.1261 53.2496 60.9412L53.2626 60.9136L52.8738 60.7101L52.8618 60.7411ZM54.5707 61.0194L54.1731 60.9329L54.4913 60.4508L54.5707 61.0194ZM54.83 59.9958L54.8265 59.9746L54.4036 59.8838L53.2965 61.4828L53.2712 61.5205L53.722 61.6177L53.9591 61.2565L54.628 61.4018L54.6939 61.8298L55.1533 61.9289L54.83 59.9958Z" fill="#231F20"/>
<path d="M48.2789 55.6058C45.7072 55.1395 42.9514 54.9014 40.0856 54.9014C35.252 54.9014 31.7505 55.5792 31.6033 55.6083C31.2424 55.6783 31.0065 56.0224 31.079 56.3741C31.1512 56.7186 31.5802 56.8516 31.9363 56.7797C32.0829 56.7528 35.4251 56.206 40.0957 56.206C42.8776 56.206 48.0949 56.8262 48.1361 56.8262C48.459 56.825 48.7553 56.6702 48.8139 56.365C48.8301 56.2808 48.8291 56.1942 48.8109 56.1105C48.7926 56.0267 48.7576 55.9475 48.7079 55.8777C48.6072 55.735 48.4536 55.6375 48.2789 55.6058ZM31.2633 27.3089C31.1949 26.6643 31.187 26.1391 31.5302 25.5563C31.8885 24.9481 32.9716 24.4492 32.9728 23.6567C33.0175 24.5634 33.4591 25.5031 32.8323 26.3183C32.6081 26.6086 32.2979 26.8897 31.9632 27.0328L31.2633 27.3089Z" fill="#FAB20B"/>
<path d="M32.9372 24.1312C32.7799 24.4386 32.488 24.7011 32.2037 24.9569C31.9621 25.1744 31.7329 25.3798 31.6047 25.5976C31.2843 26.1419 31.2846 26.6452 31.3372 27.1904L31.9289 26.9558C32.2179 26.8339 32.5237 26.5826 32.7643 26.2682C33.199 25.7031 33.0939 25.0775 32.9847 24.4146L32.9372 24.1312ZM31.2637 27.3924C31.2477 27.3925 31.2319 27.3882 31.2181 27.38C31.1953 27.3671 31.1801 27.3433 31.1779 27.3177C31.1124 26.7 31.0893 26.1387 31.4562 25.5147C31.5977 25.2744 31.8358 25.0604 32.0878 24.8347C32.4801 24.481 32.8872 24.1151 32.8872 23.656C32.8872 23.6104 32.9249 23.574 32.9708 23.5724C33.0167 23.5709 33.0578 23.6069 33.0594 23.6522C33.0708 23.8941 33.1135 24.1458 33.1534 24.3876C33.2639 25.0547 33.3788 25.7449 32.9024 26.367C32.6431 26.7041 32.3138 26.9745 31.9973 27.1087L31.2941 27.3857C31.2843 27.3905 31.2735 27.3924 31.2637 27.3924Z" fill="#231F20"/>
<path d="M30.929 24.1335C30.8609 23.488 30.8527 22.9643 31.1959 22.3805C31.5552 21.7724 32.6379 21.2737 32.6395 20.4813C32.6848 21.3877 33.1261 22.3264 32.4993 23.1429C32.2748 23.4332 31.9646 23.7149 31.629 23.8568L30.929 24.1335Z" fill="#FAB20B"/>
<path d="M32.604 20.9562C32.4453 21.2636 32.1544 21.5251 31.8704 21.7815C31.6276 21.9994 31.399 22.2048 31.2702 22.4226C30.9507 22.9672 30.9514 23.4702 31.0033 24.0154L31.5956 23.7808C31.884 23.6583 32.1883 23.4082 32.4298 23.0928C32.8645 22.5281 32.7607 21.9012 32.6502 21.2402L32.6043 20.9565M30.9292 24.2164C30.9137 24.2164 30.8988 24.2129 30.8846 24.205C30.8732 24.1986 30.8636 24.1896 30.8566 24.1786C30.8495 24.1676 30.8454 24.155 30.8444 24.142C30.7795 23.525 30.7548 22.963 31.1226 22.3397C31.2642 22.1 31.5013 21.8854 31.7533 21.6587C32.1468 21.3054 32.5533 20.9394 32.5536 20.4813C32.5536 20.4357 32.5913 20.399 32.6375 20.3977C32.6815 20.3965 32.7233 20.4322 32.7249 20.4772C32.7376 20.7194 32.779 20.9701 32.8199 21.2126C32.931 21.88 33.0462 22.5711 32.5679 23.1923C32.3086 23.5294 31.98 23.7998 31.6634 23.934L30.9615 24.211C30.951 24.2148 30.94 24.2164 30.9292 24.2164Z" fill="#231F20"/>
<path d="M31.4456 30.7071C31.3788 30.0622 31.3712 29.5373 31.7137 28.9541C32.0721 28.3453 33.1558 27.8474 33.1571 27.0549C33.2017 27.9613 33.6433 28.9003 33.0165 29.7155C32.7936 30.0068 32.4821 30.2889 32.1475 30.4307L31.4456 30.7071Z" fill="#FAB20B"/>
<path d="M33.1223 27.5289C32.9637 27.837 32.6715 28.0985 32.3875 28.3549C32.1454 28.5727 31.9165 28.7775 31.7886 28.9954C31.4679 29.5402 31.4691 30.0429 31.5204 30.5884L32.1127 30.3545C32.4015 30.2316 32.7057 29.9799 32.9476 29.6653C33.3823 29.1005 33.2778 28.4749 33.167 27.8126L33.1223 27.5289ZM31.4457 30.7901C31.4308 30.7901 31.4156 30.7866 31.4023 30.7784C31.3908 30.7719 31.3811 30.7628 31.3739 30.7518C31.3667 30.7407 31.3622 30.7282 31.3608 30.7151C31.2963 30.098 31.2722 29.537 31.6394 28.9127C31.7803 28.6737 32.0184 28.4594 32.271 28.2327C32.6646 27.8791 33.0704 27.5134 33.0704 27.0547C33.0704 27.0094 33.1084 26.9727 33.1549 26.972C33.1958 26.972 33.2411 27.0059 33.2426 27.0509C33.254 27.2931 33.2961 27.5435 33.3367 27.7857C33.4481 28.4534 33.5624 29.1442 33.0843 29.7653C32.8257 30.1031 32.4968 30.3731 32.1814 30.5071L31.4774 30.7844C31.4675 30.7885 31.4571 30.7904 31.4457 30.7904" fill="#231F20"/>
<path d="M31.8303 34.1386C31.7619 33.494 31.754 32.9688 32.0975 32.3869C32.4562 31.7778 33.5389 31.2792 33.5398 30.4865C33.5857 31.3932 34.0271 32.3328 33.4005 33.148C33.1764 33.4396 32.8658 33.7204 32.5302 33.8632L31.8303 34.1386Z" fill="#FAB20B"/>
<path d="M33.5054 30.9622C33.3468 31.2696 33.0559 31.5311 32.7706 31.7869C32.5291 32.0048 32.3005 32.2109 32.1729 32.4287C31.8522 32.9729 31.8529 33.475 31.9048 34.0202L32.4971 33.7868C32.7849 33.664 33.0898 33.4142 33.3313 33.0979C33.766 32.5341 33.6622 31.9072 33.5513 31.2449L33.5058 30.9625M31.8307 34.2224C31.8155 34.2224 31.8003 34.2187 31.7864 34.2114C31.7633 34.1971 31.7481 34.1734 31.7449 34.1477C31.6806 33.5301 31.6566 32.9691 32.0238 32.3448C32.1647 32.1057 32.4034 31.8914 32.6548 31.6647C33.0486 31.3111 33.4542 30.9455 33.4548 30.4867C33.4548 30.4421 33.4925 30.4054 33.5387 30.4041C33.5497 30.4034 33.5607 30.4049 33.5711 30.4086C33.5815 30.4122 33.591 30.4179 33.5992 30.4253C33.6073 30.4328 33.6139 30.4417 33.6185 30.4517C33.6231 30.4617 33.6257 30.4725 33.6261 30.4836C33.6387 30.7257 33.6808 30.9771 33.7207 31.2193C33.8322 31.8864 33.9477 32.5771 33.4697 33.1986C33.2101 33.5345 32.8799 33.8049 32.5645 33.9391L31.862 34.2174C31.8519 34.2209 31.8402 34.2228 31.8304 34.2228" fill="#231F20"/>
<path d="M32.4842 37.2032C32.4174 36.5586 32.4085 36.0334 32.7523 35.4506C33.1104 34.8414 34.1944 34.3434 34.1957 33.551C34.2403 34.4577 34.6819 35.3964 34.0551 36.2119C33.8309 36.5029 33.5207 36.7853 33.1848 36.9271L32.4842 37.2032Z" fill="#FAB20B"/>
<path d="M34.1594 34.0255C34.0011 34.3336 33.7099 34.5954 33.4249 34.8512C33.1831 35.0687 32.9548 35.2742 32.8256 35.492C32.5062 36.0365 32.5068 36.5396 32.5584 37.0847L33.1511 36.8508C33.4395 36.7282 33.7447 36.4772 33.9856 36.1622C34.42 35.5974 34.3161 34.9715 34.2056 34.3092L34.1594 34.0255ZM32.4109 37.3215L32.3995 37.2123C32.3337 36.5946 32.3109 36.033 32.6778 35.4093C32.8193 35.17 33.0574 34.9563 33.3087 34.7284C33.7016 34.3754 34.1094 34.01 34.11 33.551L34.281 33.5475C34.2933 33.7884 34.3345 34.0391 34.3744 34.282C34.4855 34.9493 34.6026 35.6398 34.1236 36.2622C33.8644 36.6 33.5348 36.8698 33.2198 37.003L32.5166 37.28L32.4109 37.3215Z" fill="#231F20"/>
<path d="M32.5734 40.8255C32.5051 40.1806 32.4971 39.6557 32.8403 39.0738C33.199 38.465 34.2827 37.9667 34.283 37.1743C34.3276 38.0798 34.7696 39.0194 34.1424 39.8346C33.9192 40.1262 33.609 40.4073 33.2734 40.5491C33.105 40.6223 32.7032 40.634 32.6288 40.7913L32.5734 40.8255Z" fill="#FAB20B"/>
<path d="M34.2479 37.6489C34.0896 37.9563 33.7987 38.2175 33.5134 38.4746C33.2719 38.6921 33.0433 38.8979 32.9157 39.1154C32.6051 39.6422 32.5956 40.1307 32.6431 40.6556C32.7397 40.5894 32.8859 40.5584 33.0284 40.528L33.2386 40.4732C33.5286 40.3504 33.8335 40.0993 34.0741 39.7846C34.5088 39.2195 34.4046 38.5943 34.2944 37.931L34.2479 37.6489ZM32.5735 40.9098C32.5605 40.9098 32.5472 40.9063 32.5355 40.9009C32.5225 40.8947 32.5114 40.8853 32.503 40.8736C32.4947 40.862 32.4894 40.8484 32.4877 40.8341C32.4221 40.2171 32.3993 39.6561 32.7663 39.0321C32.9065 38.7918 33.1458 38.5778 33.3972 38.3508C33.7907 37.9978 34.1966 37.6315 34.1972 37.1734C34.1976 37.1288 34.2352 37.0911 34.2808 37.0908C34.3267 37.0857 34.3666 37.1247 34.3691 37.1693C34.3805 37.4115 34.4236 37.6622 34.4638 37.9038C34.5752 38.5721 34.6902 39.2623 34.2127 39.8843C33.9531 40.2215 33.6242 40.4919 33.3083 40.6261C33.2434 40.6527 33.1563 40.6717 33.0642 40.691C32.9353 40.7176 32.74 40.7591 32.708 40.8268C32.7007 40.8404 32.6881 40.8537 32.6754 40.8626L32.6194 40.8958C32.6057 40.9045 32.5899 40.9092 32.5738 40.9095" fill="#231F20"/>
<path d="M33.1281 44.625C33.0601 43.9795 33.0534 43.4546 33.3953 42.8727C33.7537 42.2626 34.8377 41.7646 34.8393 40.9716C34.8827 41.8786 35.3256 42.8179 34.6978 43.6331C34.4746 43.9247 34.1643 44.2058 33.8281 44.3483L33.1278 44.6253" fill="#FAB20B"/>
<path d="M34.8034 41.4474C34.6451 41.7548 34.3529 42.0172 34.0702 42.2721C33.8274 42.4908 33.5988 42.6953 33.4709 42.9138C33.1502 43.458 33.1502 43.9611 33.2028 44.5059L33.7945 44.2713C34.0832 44.1494 34.3881 43.8981 34.6293 43.584C35.0637 43.0176 34.9598 42.3921 34.8487 41.7298L34.8034 41.4474ZM33.1277 44.7079C33.1128 44.7079 33.097 44.7038 33.0831 44.6952C33.072 44.6887 33.0625 44.6797 33.0556 44.6688C33.0486 44.658 33.0442 44.6457 33.0429 44.6329C32.978 44.0152 32.9542 43.4548 33.3212 42.8312C33.4627 42.5906 33.7008 42.3765 33.9528 42.1502C34.3456 41.7972 34.7521 41.4306 34.7531 40.9715C34.7531 40.9269 34.7901 40.8902 34.837 40.8889C34.8826 40.8854 34.9218 40.9221 34.9253 40.9684C34.9367 41.2106 34.9785 41.461 35.0187 41.7032C35.1301 42.3708 35.2463 43.0616 34.7677 43.6834C34.5084 44.0206 34.1791 44.2913 33.8632 44.4245L33.1603 44.7019C33.1493 44.7054 33.1401 44.7079 33.1284 44.7079" fill="#231F20"/>
<path d="M34.3393 46.9268C34.2713 46.2826 34.2634 45.757 34.6062 45.1745C34.9649 44.5657 36.0483 44.0677 36.0495 43.2747C36.0942 44.1817 36.5358 45.121 35.9099 45.9362C35.6858 46.2272 35.3752 46.5089 35.0396 46.6514L34.3397 46.9271" fill="#FAB20B"/>
<path d="M36.0145 43.7499C35.8562 44.0577 35.5637 44.3188 35.28 44.5746C35.0378 44.7937 34.8086 44.9989 34.682 45.2157C34.3606 45.7606 34.3606 46.2633 34.4126 46.8085L35.0049 46.5739C35.2936 46.4523 35.5985 46.2013 35.8397 45.8863C36.2744 45.3215 36.1699 44.6956 36.0591 44.0333L36.0145 43.7499ZM34.3391 47.0108C34.3236 47.0108 34.3078 47.006 34.2945 46.9984C34.2833 46.992 34.2738 46.9829 34.2668 46.9721C34.2597 46.9613 34.2553 46.9489 34.254 46.9361C34.1884 46.319 34.165 45.7574 34.5316 45.1331C34.6731 44.8935 34.9115 44.6798 35.1635 44.4531C35.557 44.0998 35.9629 43.7335 35.9629 43.2744C35.9636 43.2524 35.9728 43.2315 35.9886 43.2161C36.0043 43.2007 36.0254 43.192 36.0474 43.1918C36.094 43.188 36.1323 43.2257 36.1351 43.2706C36.1465 43.5128 36.1886 43.7636 36.2298 44.0061C36.3399 44.6737 36.4555 45.3645 35.9778 45.9857C35.7185 46.3238 35.3889 46.5932 35.0736 46.7268L34.3705 47.0041C34.36 47.0079 34.3502 47.0105 34.3391 47.0105" fill="#231F20"/>
<path d="M29.4396 28.4995C29.3507 27.8575 29.231 27.3455 28.7571 26.8574C28.2619 26.3461 27.0896 26.1077 26.8965 25.3368C27.0722 26.2286 26.8689 27.2417 27.6743 27.892C27.9621 28.124 28.3319 28.3279 28.6915 28.3906L29.4396 28.4995Z" fill="#FAB20B"/>
<path d="M27.0455 25.7911L27.0693 26.0764C27.1221 26.7447 27.1715 27.3779 27.7293 27.8281C28.0409 28.0791 28.3967 28.2545 28.7066 28.3077L29.3395 28.4011C29.2588 27.86 29.1378 27.3703 28.6952 26.9135C28.5176 26.7314 28.247 26.5833 27.9582 26.4262C27.6201 26.2423 27.2741 26.0536 27.0455 25.7908M29.4399 28.5831C29.4361 28.5831 29.431 28.5831 29.4285 28.5819L28.6766 28.472C28.3381 28.4128 27.9522 28.2254 27.6201 27.9563C27.0056 27.4602 26.9505 26.7631 26.8992 26.0884L26.8128 25.3527C26.8049 25.3084 26.834 25.2656 26.879 25.2555C26.9239 25.2454 26.9698 25.2735 26.9806 25.3172C27.0908 25.7633 27.5748 26.0264 28.0418 26.2812C28.3423 26.4443 28.6253 26.5981 28.8203 26.7992C29.3278 27.3218 29.4399 27.874 29.5253 28.4882C29.5268 28.5011 29.5253 28.5141 29.521 28.5263C29.5166 28.5386 29.5096 28.5497 29.5003 28.5588C29.484 28.5743 29.4624 28.583 29.4399 28.5831Z" fill="#231F20"/>
<path d="M29.0491 25.5574C29.2692 24.9442 29.3999 24.4351 29.2033 23.7918C28.9997 23.1194 28.0626 22.3922 28.2498 21.6204C27.9914 22.4929 27.3392 23.3081 27.7562 24.2417C27.9053 24.5744 28.1412 24.9179 28.4327 25.132C28.5809 25.2393 29.0143 25.3855 29.0491 25.5574Z" fill="#FAB20B"/>
<path d="M28.1707 22.0908L28.0606 22.3565C27.7959 22.9766 27.5464 23.5617 27.8351 24.2082C27.9972 24.5691 28.2328 24.8806 28.4848 25.0652C28.5263 25.0946 28.5997 25.1332 28.6785 25.1716C28.8042 25.2349 28.9334 25.2995 29.0227 25.3757C29.1927 24.8752 29.299 24.3978 29.1218 23.8153C29.0486 23.575 28.8745 23.3236 28.6902 23.058C28.474 22.7452 28.253 22.4248 28.1707 22.0908ZM29.0496 25.6407C29.0053 25.6366 28.9726 25.61 28.9657 25.5733C28.9495 25.4961 28.7311 25.3856 28.5994 25.3197L28.3816 25.1978C28.1068 24.9977 27.85 24.6612 27.6778 24.275C27.3603 23.5633 27.6347 22.9174 27.9007 22.2931L28.1676 21.5979C28.1799 21.5536 28.2268 21.5286 28.2711 21.54C28.317 21.5517 28.3442 21.596 28.3328 21.6397C28.2252 22.0864 28.5351 22.5328 28.8333 22.9643C29.0255 23.2426 29.206 23.5038 29.287 23.7684C29.4969 24.4573 29.3402 24.9981 29.1313 25.5844C29.1199 25.6176 29.0866 25.641 29.0499 25.641" fill="#231F20"/>
<path d="M29.9646 31.9551C29.875 31.3118 29.7569 30.7999 29.2829 30.3111C28.7878 29.8007 27.6142 29.5617 27.4224 28.7911C27.5971 29.6836 27.3936 30.6967 28.2002 31.3466C28.4874 31.5787 28.8571 31.7823 29.2171 31.8446L29.9646 31.9551Z" fill="#FAB20B"/>
<path d="M27.5712 29.2454L27.5949 29.5303C27.6472 30.2002 27.6953 30.8324 28.2547 31.2832C28.5649 31.5337 28.9217 31.7087 29.232 31.7629L29.8648 31.8553C29.7841 31.3136 29.6632 30.8248 29.2206 30.3677C29.043 30.1856 28.772 30.0372 28.4836 29.8805C28.1464 29.6965 27.7994 29.5078 27.5715 29.2451M29.9646 32.0374C29.9605 32.0374 29.9567 32.0374 29.9535 32.0361L29.2016 31.9262C28.8635 31.8677 28.4776 31.6793 28.1442 31.4105C27.53 30.9151 27.4759 30.2173 27.424 29.5427L27.3378 28.8072C27.3287 28.7626 27.3584 28.7186 27.404 28.7094C27.4496 28.7002 27.4949 28.7281 27.5056 28.7711C27.6158 29.2181 28.0996 29.4806 28.5668 29.7358C28.8666 29.8988 29.1503 30.0524 29.3453 30.2537C29.8515 30.7767 29.9643 31.3285 30.0504 31.9427C30.0538 31.969 30.0444 31.9946 30.0254 32.0136C30.0086 32.0285 29.9874 32.0377 29.9643 32.0377" fill="#231F20"/>
<path d="M30.5869 35.1282C30.4982 34.4862 30.3792 33.9733 29.9046 33.4855C29.4095 32.9748 28.2372 32.7367 28.0447 31.9668C28.2207 32.858 28.0165 33.8711 28.8225 34.522C29.1087 34.7547 29.4788 34.9566 29.8391 35.0187L30.5866 35.1286" fill="#FAB20B"/>
<path d="M28.1943 32.4195L28.2171 32.7054C28.2694 33.3743 28.3181 34.0069 28.8782 34.458C29.1875 34.7078 29.5439 34.8835 29.8555 34.937L30.487 35.0298C30.406 34.4878 30.2857 33.9986 29.8425 33.5418C29.6661 33.3594 29.3945 33.2122 29.107 33.0552C28.7677 32.8706 28.4216 32.6832 28.1943 32.4195ZM30.5868 35.2118C30.582 35.2118 30.5792 35.2118 30.5754 35.2115L29.8244 35.1013C29.4863 35.0418 29.1001 34.8544 28.7667 34.585C28.1528 34.0895 28.0981 33.3924 28.0465 32.718L27.96 31.982C27.9512 31.9373 27.9813 31.8936 28.0262 31.8845C28.0712 31.8753 28.1177 31.9025 28.1278 31.9465C28.2393 32.3932 28.7227 32.6554 29.19 32.9102C29.4898 33.0733 29.7725 33.2271 29.9678 33.4281C30.4741 33.9515 30.5868 34.503 30.6729 35.1184C30.6757 35.1441 30.6665 35.1694 30.6488 35.1881C30.6319 35.2036 30.6097 35.2118 30.5868 35.2118Z" fill="#231F20"/>
<path d="M31.0378 38.4844C30.9064 37.849 30.7551 37.345 30.2501 36.8876C29.7218 36.4086 28.5355 36.243 28.2939 35.4857C28.526 36.3646 28.3905 37.389 29.2374 37.989C29.5391 38.202 29.9215 38.3819 30.285 38.4221L31.0378 38.4844Z" fill="#FAB20B"/>
<path d="M28.4707 35.9299L28.5137 36.2126C28.6087 36.8771 28.6996 37.5046 29.2865 37.9206C29.6136 38.152 29.9817 38.3043 30.2936 38.3394L30.9309 38.3926C30.8141 37.8579 30.6621 37.3767 30.1904 36.948C30.0017 36.7768 29.7206 36.6457 29.4242 36.5074C29.0738 36.3449 28.7167 36.1781 28.4707 35.9299ZM31.0372 38.568H31.0306L30.2746 38.5044C29.9327 38.4673 29.536 38.3034 29.1855 38.0558C28.54 37.5986 28.4406 36.9063 28.3434 36.236L28.2092 35.5066C28.1978 35.4636 28.2244 35.4189 28.2696 35.4063C28.2909 35.3999 28.3138 35.4021 28.3334 35.4123C28.3531 35.4226 28.368 35.44 28.3751 35.461C28.5153 35.9001 29.0146 36.1322 29.498 36.3579C29.807 36.502 30.0998 36.6378 30.3085 36.8262C30.8489 37.3175 30.997 37.8608 31.1218 38.4683C31.1268 38.4936 31.1202 38.5215 31.1015 38.5405C31.0934 38.5494 31.0834 38.5565 31.0724 38.5613C31.0613 38.5661 31.0493 38.5682 31.0372 38.568Z" fill="#231F20"/>
<path d="M31.1434 42.0597C31.1535 41.4116 31.1133 40.888 30.7192 40.3375C30.3064 39.7613 29.1818 39.3576 29.1093 38.5684C29.1473 39.4751 28.7931 40.4489 29.4902 41.2071C29.7406 41.4784 30.0752 41.7314 30.4213 41.845L31.1434 42.06" fill="#FAB20B"/>
<path d="M29.1871 39.0384L29.1678 39.3243C29.1168 39.9932 29.07 40.6251 29.554 41.1516C29.8238 41.4441 30.1502 41.6673 30.4484 41.7655L31.0591 41.9478C31.0613 41.4011 31.0163 40.8993 30.6485 40.3852C30.5003 40.1787 30.2543 39.9935 29.9941 39.7979C29.6873 39.5665 29.372 39.3297 29.1871 39.0384ZM31.1433 42.1432C31.1367 42.1432 31.1278 42.1422 31.1196 42.1397L30.3939 41.9241C30.0672 41.8174 29.7149 41.5758 29.4261 41.2627C28.8939 40.6837 28.9462 39.9866 28.9959 39.3116L29.0225 38.5717C29.0212 38.5271 29.057 38.4878 29.1032 38.4856C29.1517 38.4844 29.1906 38.5157 29.1941 38.5607C29.2371 39.0169 29.675 39.3461 30.0992 39.6652C30.3705 39.8691 30.6273 40.0629 30.7894 40.2895C31.2111 40.8787 31.2389 41.4407 31.2297 42.0602C31.2297 42.0871 31.2168 42.1118 31.1952 42.1264C31.1803 42.1375 31.1632 42.1428 31.1436 42.1428" fill="#231F20"/>
<path d="M32.3394 44.9254C32.1726 44.2976 31.9915 43.8021 31.4619 43.3715C30.9081 42.922 29.714 42.8197 29.4297 42.077C29.7121 42.9419 29.6326 43.9715 30.5121 44.5252C30.8262 44.7227 31.2184 44.8814 31.5831 44.9023L32.3394 44.9254Z" fill="#FAB20B"/>
<path d="M29.6325 42.5101L29.691 42.7913C29.824 43.4501 29.9497 44.0725 30.5594 44.4553C30.8988 44.6683 31.2737 44.8013 31.5887 44.8197L32.2269 44.8396C32.0822 44.3115 31.9014 43.8389 31.4076 43.4368C31.2091 43.276 30.9216 43.1595 30.6158 43.0369C30.2584 42.8926 29.8914 42.7454 29.6325 42.5101ZM32.3399 45.009H32.3377C32.3146 45.009 31.7625 44.9963 31.5782 44.9859C31.2347 44.9659 30.8298 44.8238 30.4651 44.5946C29.7961 44.1732 29.6568 43.4868 29.522 42.8233L29.3485 42.1017C29.3451 42.0914 29.3439 42.0805 29.3448 42.0697C29.3456 42.0589 29.3487 42.0483 29.3536 42.0387C29.3586 42.029 29.3654 42.0205 29.3737 42.0135C29.382 42.0065 29.3916 42.0012 29.402 41.9979C29.4454 41.983 29.4932 42.0052 29.5099 42.0482C29.6749 42.4772 30.1865 42.684 30.6816 42.8828C30.9992 43.0097 31.2983 43.1307 31.5171 43.3083C32.0841 43.7692 32.262 44.3039 32.4222 44.9042C32.4289 44.9295 32.4235 44.9564 32.4061 44.9776C32.3899 44.9969 32.3659 45.009 32.3393 45.009" fill="#231F20"/>
<path d="M33.8507 47.4191C33.5763 46.829 33.3135 46.3709 32.7151 46.034C32.0896 45.682 30.8957 45.7782 30.4851 45.0931C30.9141 45.8989 31.0167 46.9265 31.9803 47.3267C32.3238 47.4694 32.7392 47.5622 33.1026 47.522L33.8507 47.4191Z" fill="#FAB20B"/>
<path d="M30.761 45.487L30.8674 45.7542C31.1146 46.3807 31.347 46.9734 32.015 47.2494C32.3211 47.3777 32.644 47.4479 32.9252 47.4479C32.9822 47.4479 33.0376 47.4451 33.0933 47.4394L33.7265 47.3533C33.49 46.8566 33.231 46.4209 32.6716 46.1059C32.4487 45.9802 32.1445 45.9138 31.8231 45.8435C31.4448 45.7608 31.0573 45.6757 30.761 45.487ZM32.9252 47.6151C32.6222 47.6151 32.2746 47.5401 31.9472 47.4039C31.2131 47.0978 30.956 46.4453 30.7084 45.8144L30.4096 45.1315C30.3884 45.0919 30.4029 45.0425 30.4447 45.0204C30.4865 44.9982 30.5362 45.0124 30.5603 45.0517C30.7974 45.4471 31.3391 45.5668 31.8611 45.6811C32.1954 45.7545 32.512 45.8232 32.758 45.9622C33.3985 46.3228 33.6676 46.8208 33.9297 47.3859C33.9398 47.4096 33.9389 47.4375 33.9262 47.4593C33.9199 47.4711 33.9108 47.4812 33.8998 47.4889C33.8888 47.4965 33.8762 47.5015 33.8629 47.5033L33.112 47.605C33.0498 47.612 32.9877 47.6154 32.9252 47.6151Z" fill="#231F20"/>
<path d="M30.1203 22.4122C29.3658 22.1539 29.0663 21.0119 29.0869 20.2936C29.1135 19.3701 29.8683 18.6625 29.8629 17.765C29.759 18.6264 30.5964 19.3185 30.6379 20.1698C30.6762 20.9458 30.3001 21.6973 30.1203 22.4122Z" fill="#FAB20B"/>
<path d="M29.8451 18.3862C29.7692 18.622 29.6628 18.8474 29.5589 19.069C29.3753 19.4562 29.1863 19.8564 29.1749 20.2958C29.1547 20.966 29.4193 22 30.0623 22.2989L30.2387 21.729C30.4055 21.2228 30.579 20.6995 30.553 20.1742C30.534 19.7994 30.3469 19.4445 30.1677 19.1007C30.0465 18.8699 29.9218 18.6331 29.8451 18.3862ZM30.1807 22.5221L30.0918 22.492C29.2607 22.2058 28.9815 20.9901 29.0018 20.2911C29.016 19.8178 29.2123 19.4011 29.4019 18.9994C29.5703 18.6426 29.729 18.3067 29.7679 17.9395C29.7671 17.8778 29.7702 17.8162 29.7771 17.7549L29.948 17.7637C29.9482 17.8242 29.9453 17.8847 29.9395 17.9448C29.9496 18.3187 30.1294 18.6619 30.3197 19.025C30.5084 19.3837 30.7037 19.7567 30.7237 20.1657C30.7512 20.7219 30.5733 21.2598 30.4023 21.7803L30.2032 22.4325L30.1807 22.5221ZM30.1601 26.7482C30.1247 26.7482 30.0933 26.7279 30.0794 26.6953C30.0126 26.5291 29.8442 26.4139 29.6656 26.2913C29.363 26.0846 29.0201 25.8503 29.0632 25.3039C29.066 25.258 29.1088 25.2219 29.1547 25.2267C29.2028 25.2301 29.2386 25.27 29.2341 25.3169C29.1984 25.7674 29.4744 25.9561 29.7647 26.1552C29.9556 26.2866 30.1525 26.4215 30.2393 26.6348C30.2433 26.6451 30.2453 26.656 30.245 26.667C30.2448 26.678 30.2423 26.6889 30.2378 26.6989C30.2333 26.7089 30.2268 26.718 30.2187 26.7254C30.2107 26.7329 30.2012 26.7387 30.1909 26.7425C30.1807 26.7463 30.169 26.7482 30.1601 26.7482ZM30.2453 28.8332C30.2057 28.8332 30.1693 28.8066 30.1614 28.7674C30.1522 28.7218 30.1807 28.6778 30.2269 28.6686C31.0605 28.4992 31.3094 28.1465 31.1783 27.3209C31.171 27.2753 31.2033 27.2338 31.2492 27.2269C31.2976 27.2202 31.3401 27.2509 31.348 27.2965C31.4908 28.201 31.177 28.6461 30.2627 28.8316C30.2567 28.8329 30.2513 28.8332 30.2453 28.8332ZM31.1238 33.6482C31.102 33.6484 31.0808 33.6402 31.0648 33.6253C31.0488 33.6104 31.0391 33.5899 31.0377 33.5681C31.0171 32.8843 30.5296 32.2388 29.8508 31.9963C29.8404 31.9927 29.8308 31.9871 29.8226 31.9798C29.8143 31.9725 29.8077 31.9636 29.803 31.9536C29.7982 31.9437 29.7956 31.9329 29.7951 31.9219C29.7946 31.9109 29.7963 31.8999 29.8002 31.8896C29.8157 31.8465 29.8657 31.8247 29.91 31.8402C30.6534 32.1052 31.1875 32.8137 31.2106 33.5624C31.2109 33.6093 31.1748 33.6476 31.1261 33.6485L31.1238 33.6482ZM31.2331 31.9605C31.2242 31.9605 31.215 31.9589 31.2055 31.9557C31.1609 31.9402 31.1362 31.8934 31.1514 31.8503C31.216 31.6594 31.2308 31.4869 31.2441 31.3188C31.2603 31.1108 31.2783 30.8961 31.3907 30.6542C31.41 30.6121 31.4607 30.5938 31.5037 30.6121C31.5468 30.6305 31.5658 30.6805 31.5468 30.7226C31.4468 30.9379 31.4319 31.1288 31.4154 31.3317C31.4005 31.509 31.3853 31.6923 31.3132 31.9025C31.3018 31.938 31.2679 31.9605 31.2324 31.9605M29.9214 29.4787C29.8831 29.4787 29.848 29.4544 29.8388 29.4164L29.8008 29.2543C29.7125 28.8655 29.6637 28.6525 29.1983 28.5606C29.1515 28.5518 29.1214 28.5071 29.1312 28.4622C29.141 28.4172 29.186 28.3875 29.2322 28.3967C29.8071 28.5103 29.8784 28.8225 29.968 29.2185L30.005 29.3759C30.0164 29.4205 29.9882 29.4661 29.9417 29.4768C29.9357 29.4784 29.929 29.4787 29.9214 29.4787ZM30.9757 35.7747C30.9314 35.7747 30.8934 35.7421 30.8892 35.6987C30.8551 35.316 30.9931 34.9339 31.2767 34.6246C31.3429 34.5533 31.4164 34.4967 31.4873 34.4422C31.6456 34.3219 31.7687 34.2269 31.7687 34.0031C31.7687 33.9562 31.808 33.9195 31.8552 33.9195C31.9023 33.9195 31.9413 33.9562 31.9413 34.0031C31.9413 34.3083 31.7567 34.4489 31.593 34.573C31.5284 34.6233 31.4604 34.6746 31.4056 34.7363C31.152 35.0108 31.0304 35.347 31.0602 35.6845C31.0649 35.7301 31.0301 35.7703 30.982 35.7744C30.9798 35.7747 30.9776 35.7747 30.9757 35.7747ZM31.984 38.1301C31.9419 38.1301 31.9045 38.1001 31.8976 38.058C31.852 37.7325 32.0612 37.5226 32.2449 37.3374C32.3237 37.2592 32.3978 37.1842 32.4475 37.106C32.4715 37.0667 32.5257 37.0553 32.5656 37.0791C32.6055 37.1028 32.6188 37.1563 32.5934 37.1943C32.5336 37.288 32.45 37.3713 32.368 37.453C32.1967 37.6264 32.0334 37.7895 32.0692 38.0352C32.0758 38.0811 32.0426 38.1229 31.9954 38.1292C31.9916 38.1301 31.9888 38.1301 31.984 38.1301ZM31.487 38.7256C31.2973 38.7256 31.1175 38.6829 30.9741 38.518C30.9427 38.4825 30.9478 38.4303 30.9839 38.4005C31.02 38.3707 31.0741 38.3749 31.1045 38.4106C31.2691 38.5981 31.5009 38.5702 31.7931 38.5335L31.8425 38.5268C31.8909 38.5227 31.9327 38.5534 31.9384 38.5993C31.9441 38.6452 31.9115 38.687 31.8646 38.6927L31.8153 38.6987L31.487 38.7256ZM31.939 42.0283C31.8998 42.0283 31.8643 42.0014 31.8564 41.9621C31.846 41.9175 31.8751 41.8731 31.9213 41.8636C32.4598 41.7509 32.5377 41.1076 32.4991 40.7445C32.4937 40.6989 32.5285 40.6575 32.576 40.653C32.6235 40.6486 32.6647 40.6812 32.6697 40.7268C32.7305 41.2875 32.5326 41.9061 31.9571 42.027C31.9504 42.0283 31.9447 42.0283 31.939 42.0283ZM32.5618 45.0507C32.4165 45.0507 32.3025 44.996 32.2328 44.8871C32.2085 44.8475 32.2202 44.7962 32.2597 44.7715C32.2993 44.7468 32.3531 44.7592 32.3788 44.7984C32.4712 44.9444 32.7106 44.8681 32.8078 44.8285C32.8521 44.8111 32.9024 44.8307 32.9201 44.8738C32.9379 44.9168 32.9176 44.9649 32.8742 44.9827C32.759 45.0286 32.6548 45.0511 32.5618 45.0511M31.8327 42.4215C31.517 42.4215 31.3182 42.3442 31.0801 42.0606C31.0501 42.0242 31.0548 41.9722 31.0928 41.9428C31.1015 41.9357 31.1116 41.9304 31.1223 41.9272C31.1331 41.9241 31.1444 41.923 31.1556 41.9242C31.1668 41.9254 31.1776 41.9287 31.1875 41.9341C31.1973 41.9395 31.206 41.9467 31.2131 41.9555C31.4629 42.254 31.6275 42.2831 32.1461 42.2369C32.1945 42.2334 32.2357 42.2673 32.2408 42.3129C32.2442 42.3588 32.2091 42.399 32.1619 42.4037L31.8327 42.4215Z" fill="#231F20"/>
<path d="M33.0535 44.5746C33.0095 44.6281 32.9494 44.7402 32.8702 44.7456C32.761 44.7532 32.761 44.9203 32.8702 44.9124C33.0168 44.902 33.0902 44.7946 33.1754 44.693C33.2425 44.6104 33.1222 44.4917 33.0535 44.5749M30.2188 24.779C30.1582 24.7786 30.0977 24.7755 30.0374 24.7699L29.9199 24.7648C29.8715 24.7689 29.83 24.7366 29.8253 24.691C29.8186 24.6458 29.8535 24.6036 29.9009 24.5983C29.9418 24.5954 29.9899 24.5983 30.0513 24.6036C30.3062 24.6252 30.6918 24.6578 30.8456 24.1114C30.8583 24.067 30.9064 24.0408 30.9511 24.0531C30.9976 24.0658 31.0236 24.1114 31.0109 24.156C30.858 24.6977 30.4907 24.779 30.2185 24.779" fill="#231F20"/>
<path d="M35.5514 49.0996C34.979 48.373 35.1458 47.9826 34.3091 47.2852L34.4145 46.9658C34.4462 46.8632 34.2806 46.8189 34.2496 46.9218L34.1821 47.1269L33.7703 46.4747L33.4382 45.9049C33.353 45.6355 33.2447 45.4145 33.139 45.1998L33.0886 45.0982C32.9465 44.8057 32.8433 44.0975 32.8176 43.7119C32.7781 43.0955 32.471 42.5858 32.219 42.2667L31.9591 41.958C31.7143 41.6781 31.4839 41.4135 31.3566 41.0237C31.2059 40.5574 31.2869 39.9917 31.5842 39.4335C31.8581 38.9197 32.1085 38.3663 32.0892 37.8002C32.0765 37.3884 31.8476 37.0756 31.6257 36.772C31.5108 36.6153 31.3927 36.4519 31.3069 36.2803C30.7937 35.2429 30.9526 34.6518 31.1372 33.967C31.2233 33.6454 31.3129 33.3123 31.3395 32.9106C31.3873 32.1555 31.2648 31.6049 30.9555 31.1795C30.7988 30.9642 30.6414 30.8185 30.5034 30.6897C30.2159 30.4225 30.0263 30.2468 30.0298 29.6526C30.0333 29.1001 30.208 28.8785 30.3771 28.6657C30.5214 28.4834 30.6712 28.2944 30.6851 27.9338C30.7032 27.4168 30.4778 27.0052 30.2596 26.6076C30.095 26.3075 29.9408 26.0238 29.8848 25.7019C29.8015 25.221 29.924 24.5846 30.1824 24.1534C30.2403 24.0581 30.2938 24.0037 30.3457 23.9521C30.4505 23.8448 30.5411 23.7536 30.5737 23.4364C30.6028 23.1169 30.4803 22.8738 30.3619 22.6376L30.2238 22.3362L30.0301 22.4055C30.0736 22.5146 30.1227 22.6215 30.177 22.7256C30.2932 22.9558 30.3932 23.154 30.3679 23.4186C30.3448 23.6656 30.2891 23.7213 30.1973 23.814C30.1425 23.8682 30.0744 23.9366 30.0045 24.0531C29.7205 24.5283 29.59 25.2045 29.6825 25.7348C29.7433 26.0897 29.9139 26.4012 30.0779 26.701C30.2932 27.0933 30.4955 27.4637 30.4781 27.9268C30.4683 28.2241 30.3505 28.3716 30.2137 28.5439C30.0317 28.7728 29.8272 29.0311 29.8237 29.6516C29.8189 30.3329 30.0709 30.5656 30.3609 30.8344C30.4917 30.9572 30.6411 31.0949 30.7861 31.2944C31.0682 31.6822 31.179 32.1913 31.1321 32.8985C31.1081 33.2806 31.0207 33.6042 30.9374 33.917C30.7516 34.6094 30.5762 35.2634 31.1207 36.3671C31.2141 36.5548 31.3395 36.7238 31.4576 36.8878C31.6706 37.18 31.8729 37.4564 31.884 37.8059C31.9018 38.354 31.6456 38.8861 31.4019 39.3417C31.0789 39.9483 30.9932 40.5666 31.1613 41.0842C31.299 41.5132 31.5551 41.8057 31.8017 42.0884L32.0559 42.3876C32.2889 42.6852 32.5761 43.1579 32.6119 43.7245C32.6334 44.0497 32.7322 44.8335 32.9031 45.1831L32.9528 45.2869C33.0557 45.4943 33.1615 45.7083 33.2406 45.9628C33.2846 46.1034 33.4081 46.2943 33.5961 46.5824L34.09 47.3764C34.0188 47.383 33.9469 47.3732 33.8801 47.3476C33.7772 47.3096 33.7323 47.4704 33.8348 47.5084C33.9481 47.5499 34.0709 47.5577 34.1885 47.5309C34.1935 47.5306 34.1958 47.5274 34.1995 47.5261C34.204 47.5245 34.2083 47.5227 34.2125 47.5207C34.2201 47.5166 34.2255 47.5131 34.2299 47.5065C34.2385 47.4976 34.7906 48.0058 34.8441 48.4211C34.8476 48.4287 34.8495 48.4366 34.8533 48.4436C34.991 48.7551 35.1572 49.0397 35.4558 49.2579C35.5542 49.3291 35.6248 49.193 35.5514 49.0996ZM53.4113 19.7611C53.2556 18.4773 51.9541 18.1981 51.6634 18.1519C51.6346 17.8568 51.3735 17.7514 51.1376 17.7517C50.9451 17.7517 50.8007 17.8036 50.7096 17.9065C50.6298 17.9974 50.6105 18.1031 50.6083 18.1721C49.6082 18.2801 49.1558 18.9684 48.9604 19.4309L48.8629 19.3106L48.8284 19.4828C48.7157 20.0501 48.6698 21.1316 49.0237 21.6182C49.4204 22.1618 50.0644 22.4996 50.7039 22.4986C51.4868 22.4983 52.1057 22.3441 52.5436 22.0427C53.1413 21.6315 53.4297 20.9445 53.4503 19.882L53.4531 19.7373L53.4113 19.7611Z" fill="#231F20"/>
<path d="M52.5789 20.6266L52.446 20.822L52.4273 20.5887C52.3979 20.2414 52.2525 19.7174 51.9385 19.3514C51.5608 19.6082 51.4272 19.9596 51.2964 20.3009L51.2151 20.5086L51.0888 20.8122L51.0558 20.4864C51.0115 20.0321 50.8216 19.6756 50.4445 19.3365C50.1305 19.5594 49.9051 20.0077 49.7534 20.3101L49.6442 20.52L49.5517 20.6773L49.4925 20.5063C49.4242 20.3066 49.1278 19.9096 48.961 19.6946C48.8736 20.2857 48.8812 21.1443 49.1582 21.5248C49.5255 22.0275 50.1178 22.34 50.7044 22.3387C51.217 22.3372 51.9382 22.2631 52.4472 21.9117C52.9794 21.5466 53.2378 20.9606 53.2815 20.0239C52.9927 20.1872 52.8028 20.2961 52.5786 20.627" fill="#00A650"/>
<path d="M49.5684 20.2961L49.5972 20.2388C49.7654 19.9042 50.0193 19.3983 50.3988 19.1659L50.453 19.1339L50.4986 19.1741C50.8471 19.4733 51.0624 19.7972 51.1612 20.1745C51.2942 19.8279 51.4604 19.4489 51.9007 19.1782L51.9603 19.1415L52.0062 19.1918C52.3683 19.5756 52.5067 20.0834 52.5561 20.3724C52.7549 20.1315 52.9458 20.0232 53.193 19.8833L53.2804 19.8326C53.1538 18.4447 51.6022 18.2737 51.587 18.2728L51.5265 18.2674V18.2092C51.5265 17.903 51.2315 17.8809 51.1416 17.8809C50.9792 17.8809 50.869 17.9176 50.8034 17.9901C50.717 18.0873 50.7341 18.2202 50.7341 18.2215L50.7433 18.2886L50.6746 18.2953C49.6466 18.3792 49.2154 19.1092 49.0464 19.548C49.1756 19.713 49.4314 20.0473 49.5681 20.2964" fill="white"/>
<path d="M51.341 22.7911C51.3534 22.7984 51.3613 22.8089 51.3698 22.8187H51.3683L51.341 22.7911ZM52.7885 22.0101C52.7388 21.9927 52.6859 21.9857 52.634 21.9898C52.4557 22.0025 52.3019 22.1326 52.2018 22.2415C52.1743 22.0411 52.0559 21.8088 51.7345 21.767C51.6991 21.7622 51.6636 21.7603 51.6294 21.7622C51.4053 21.7777 51.2521 21.9341 51.1618 22.0636C51.1368 21.9667 51.0856 21.8786 51.014 21.8088C50.914 21.7163 50.7781 21.6745 50.6113 21.6859C50.3748 21.7021 50.2304 21.8645 50.1564 22.0168C50.0699 21.8493 49.9044 21.6748 49.6343 21.6941L49.6055 21.6964C49.4269 21.7163 49.2911 21.7834 49.2044 21.8955C49.1452 21.9712 49.1186 22.0547 49.1085 22.125C49.0261 22.0693 48.8941 22.0177 48.6966 22.0313L48.6684 22.0335C48.5101 22.049 48.3923 22.1162 48.3173 22.2336C48.134 22.5214 48.2752 23.0355 48.3404 23.2337C48.2888 23.8074 48.3369 24.748 48.6877 25.1646C49.1085 25.6635 49.7514 25.9481 50.3682 25.9057C51.1242 25.8535 51.7105 25.6651 52.1119 25.3463C52.6299 24.9363 52.8606 24.3019 52.8426 23.3708C52.9955 23.2087 53.1127 22.9621 53.1221 22.9428C53.1978 22.6841 53.2244 22.1576 52.7888 22.0098" fill="#231F20"/>
<path d="M53.0126 22.8994C53.0113 22.8994 53.1861 22.2729 52.7564 22.1266C52.7233 22.1155 52.6884 22.1109 52.6536 22.113C52.4551 22.1266 52.2632 22.365 52.2053 22.4562L52.0511 22.7006L52.0869 22.4147C52.0894 22.3957 52.1438 21.9439 51.7282 21.8895C51.7022 21.8854 51.6758 21.8845 51.6497 21.8866C51.3517 21.9066 51.1966 22.2779 51.1954 22.2817L51.0646 22.6008L51.0712 22.2573C51.0722 22.2551 51.0747 22.0272 50.9354 21.8986C50.862 21.8306 50.7597 21.8002 50.6312 21.8097C50.3073 21.8322 50.2345 22.2032 50.2307 22.2184L50.1747 22.5321L50.1072 22.2209C50.1022 22.2032 50.0094 21.7932 49.6529 21.8179L49.6314 21.8201C49.488 21.8366 49.3823 21.8863 49.3174 21.9696C49.2176 22.0971 49.243 22.2646 49.243 22.2659L49.3025 22.641L49.123 22.3045C49.1189 22.2979 49.0239 22.1348 48.7162 22.1551L48.6918 22.1573C48.5737 22.1687 48.4914 22.214 48.4369 22.2991C48.2429 22.6034 48.4999 23.2726 48.5028 23.2783L48.5094 23.3087C48.6338 23.4455 48.965 23.8137 49.1227 24.0695L49.1584 23.9843C49.2965 23.6516 49.5064 23.1488 49.854 22.9032L49.8916 22.8753L49.9306 22.9032C50.307 23.1846 50.5334 23.4885 50.6486 23.8672C50.7559 23.5136 50.8819 23.1172 51.3024 22.8177L51.3464 22.7864L51.3853 22.8221C51.7766 23.1843 51.9409 23.6931 52.002 23.958C52.2654 23.6098 52.7036 23.3363 52.7238 23.3233C52.8742 23.1906 53.0113 22.9016 53.0126 22.8994Z" fill="white"/>
<path d="M52.022 24.1524L51.9305 24.3104L51.9017 24.1315C51.8488 23.7909 51.669 23.2847 51.3319 22.9497C50.9725 23.2258 50.8655 23.5807 50.7623 23.9238L50.6968 24.1293L50.6154 24.3696L50.5733 24.1201C50.4976 23.6769 50.2849 23.3397 49.8866 23.0323C49.5916 23.2669 49.4016 23.7241 49.274 24.0299L49.1816 24.2404L49.1205 24.3658L49.0657 24.2366C48.9958 24.0745 48.7393 23.7583 48.4936 23.4828C48.4737 24.0423 48.5528 24.7492 48.8188 25.0655C49.2063 25.5267 49.7989 25.7889 50.3653 25.7502C50.8617 25.7164 51.5509 25.597 52.0188 25.2263C52.4807 24.86 52.6897 24.317 52.691 23.4939C52.521 23.6145 52.1847 23.8713 52.0223 24.1527" fill="#00A650"/>
<path d="M50.8288 26.2379C50.8412 26.2467 50.8469 26.2572 50.8551 26.2683V26.2673L50.8288 26.2379ZM52.3434 25.5879C52.2956 25.5667 52.2446 25.5553 52.1917 25.5547C52.0129 25.5499 51.8473 25.6674 51.7381 25.7665C51.7292 25.5648 51.6333 25.3233 51.3161 25.252C51.2815 25.2451 51.2465 25.241 51.2113 25.2397C50.9881 25.2356 50.8203 25.378 50.7183 25.499C50.7032 25.4128 50.669 25.3131 50.5946 25.2318C50.5034 25.1301 50.373 25.0763 50.2061 25.0735C49.968 25.0684 49.8101 25.2178 49.7211 25.3635C49.6515 25.1896 49.502 25.0013 49.2301 24.9962H49.2019C49.0233 25.0003 48.8815 25.0545 48.7837 25.1593C48.7182 25.2289 48.6849 25.31 48.6681 25.3793C48.5912 25.3169 48.4646 25.2536 48.2657 25.2489H48.2388C48.079 25.2504 47.9555 25.3081 47.87 25.4173C47.6608 25.6886 47.7526 26.2125 47.7981 26.4161C47.6953 26.9822 47.6547 27.9228 47.9653 28.3685C48.3379 28.9032 48.9527 29.2432 49.571 29.2549C50.3274 29.2698 50.9298 29.1334 51.3601 28.851C51.9119 28.4879 52.2019 27.8781 52.2696 26.9477C52.4384 26.8004 52.5777 26.5643 52.5887 26.5465C52.6878 26.2955 52.7632 25.7734 52.3434 25.5879Z" fill="#231F20"/>
<path d="M52.4836 26.4924C52.4826 26.4924 52.7156 25.8848 52.3003 25.7009C52.2683 25.6866 52.2339 25.6789 52.1989 25.6781C52.0001 25.6746 51.7871 25.8946 51.7218 25.9795L51.5433 26.2096L51.6079 25.9285C51.6117 25.9095 51.7082 25.4647 51.2976 25.3742C51.2723 25.3676 51.2462 25.3643 51.2201 25.3643C50.9215 25.3577 50.7335 25.7139 50.7309 25.7177L50.5711 26.0241L50.6113 25.6825C50.6113 25.68 50.6363 25.4524 50.509 25.3127C50.4422 25.239 50.3422 25.1997 50.2136 25.1975C49.8894 25.1915 49.7821 25.5537 49.778 25.5695L49.6906 25.8769L49.6536 25.5606C49.6511 25.5429 49.5956 25.1263 49.2385 25.1196H49.2173C49.0733 25.1234 48.9631 25.1643 48.8906 25.2415C48.7795 25.3596 48.7884 25.528 48.7884 25.5293L48.814 25.9076L48.6655 25.5581C48.663 25.5515 48.5816 25.3799 48.2739 25.3742L48.2495 25.3732C48.1305 25.3742 48.0447 25.4128 47.9839 25.4913C47.7613 25.7772 47.9538 26.4664 47.9573 26.473L47.9598 26.5044C48.0716 26.6503 48.3663 27.0461 48.5006 27.3152L48.5446 27.2338C48.7127 26.9144 48.9685 26.4325 49.3373 26.2172L49.3791 26.1935L49.4136 26.2252C49.7628 26.5376 49.9604 26.8612 50.0392 27.248C50.1775 26.9052 50.3418 26.5221 50.7892 26.26L50.8348 26.2331L50.8702 26.2726C51.2261 26.6674 51.3416 27.1879 51.379 27.4583C51.674 27.1341 52.135 26.8995 52.1575 26.8884C52.3186 26.7703 52.4826 26.4946 52.4839 26.492" fill="white"/>
<path d="M51.3806 27.6542L51.2752 27.8027L51.2638 27.6216C51.2432 27.2781 51.1106 26.7592 50.8067 26.3955C50.422 26.6389 50.2824 26.9827 50.1469 27.3145L50.0633 27.5137L49.9604 27.7467L49.9402 27.4937C49.9069 27.0464 49.7271 26.6912 49.3605 26.3492C49.0436 26.5582 48.8109 26.9973 48.6551 27.2898L48.545 27.4909L48.4706 27.6115L48.4275 27.4782C48.3747 27.3095 48.148 26.9717 47.9286 26.6763C47.8577 27.2309 47.8703 27.9423 48.1043 28.2807C48.4484 28.7746 49.0145 29.0884 49.5818 29.0991C50.0792 29.1093 50.7763 29.0513 51.2774 28.7218C51.7697 28.3979 52.0306 27.8761 52.1091 27.0565C51.9277 27.1616 51.5693 27.3883 51.3806 27.6542Z" fill="#00A650"/>
<path d="M50.4859 29.7928C50.4973 29.8014 50.5036 29.8131 50.5115 29.8232V29.8222L50.4859 29.7928ZM51.9992 29.1429C51.9523 29.1216 51.9007 29.1102 51.8488 29.1096C51.6699 29.1058 51.5046 29.2223 51.3942 29.322C51.3853 29.1204 51.2894 28.8785 50.9728 28.8082C50.9383 28.8003 50.9022 28.7956 50.8674 28.7946C50.6442 28.7899 50.477 28.933 50.3744 29.0539C50.3591 28.9551 50.3165 28.8625 50.2513 28.7867C50.1604 28.6851 50.0293 28.6322 49.8625 28.6293C49.6244 28.624 49.4665 28.7734 49.3772 28.9184C49.3078 28.7446 49.1581 28.5565 48.8874 28.5511H48.8599C48.6797 28.5553 48.5385 28.6103 48.441 28.7136C48.3742 28.7832 48.3413 28.8658 48.3242 28.9342C48.2466 28.8712 48.1213 28.8079 47.9228 28.8041L47.8946 28.8032C47.7363 28.8054 47.6119 28.8624 47.5258 28.9716C47.3168 29.2429 47.4083 29.7668 47.4558 29.9704C47.351 30.5374 47.3114 31.477 47.622 31.9228C47.994 32.4575 48.6095 32.7975 49.2268 32.8093C49.985 32.8244 50.5856 32.6889 51.0161 32.4056C51.5692 32.0434 51.858 31.4321 51.9276 30.5032C52.0951 30.3547 52.2353 30.1195 52.2451 30.1008C52.3442 29.8511 52.4202 29.3281 51.9995 29.1425" fill="#231F20"/>
<path d="M52.1398 30.048C52.1389 30.048 52.3719 29.4401 51.9565 29.2565C51.9253 29.2419 51.8913 29.2342 51.8568 29.2337C51.6567 29.2299 51.443 29.4499 51.3781 29.5348L51.1996 29.7656L51.2638 29.4844C51.2689 29.4654 51.3648 29.0197 50.9539 28.9295C50.9286 28.9229 50.9025 28.9196 50.8763 28.9196C50.5778 28.9136 50.3897 29.2688 50.3885 29.2726L50.2286 29.5801L50.2675 29.2381C50.2685 29.2356 50.2925 29.0089 50.1653 28.8684C50.0985 28.7946 49.9997 28.756 49.8712 28.7534C49.5457 28.7474 49.4403 29.1106 49.4346 29.1254L49.3488 29.4322L49.3086 29.1159C49.307 29.0982 49.2525 28.6819 48.8954 28.6749H48.8739C48.7292 28.6787 48.6206 28.7196 48.5475 28.7965C48.4364 28.9152 48.4446 29.0843 48.4446 29.0855L48.4703 29.4632L48.3218 29.1125C48.3193 29.1061 48.2392 28.9348 47.9305 28.9285H47.9064C47.7883 28.9301 47.701 28.9687 47.6402 29.0466C47.4176 29.3325 47.611 30.0217 47.6133 30.0283L47.6171 30.059C47.7298 30.2059 48.0239 30.6014 48.1568 30.8705L48.2012 30.7881C48.3699 30.4693 48.6254 29.9881 48.9936 29.7725L49.0354 29.7488L49.0708 29.7808C49.4191 30.0926 49.6179 30.4155 49.6964 30.8037C49.8354 30.4605 49.9987 30.0771 50.4458 29.8156L50.4923 29.7881L50.5268 29.8283C50.8827 30.2234 50.9992 30.7435 51.0362 31.0132C51.3303 30.6894 51.7913 30.4551 51.8134 30.4443C51.9746 30.3262 52.1389 30.0508 52.1401 30.048" fill="white"/>
<path d="M51.0368 31.209L50.9314 31.3574L50.9203 31.1763C50.8991 30.8335 50.7661 30.3143 50.4628 29.9502C50.0788 30.1937 49.9386 30.5378 49.8031 30.8696L49.7204 31.0684L49.6169 31.3017L49.5976 31.0494C49.5631 30.6014 49.3833 30.2462 49.0163 29.9059C48.7007 30.1139 48.468 30.5517 48.3113 30.8455L48.2011 31.0465L48.1274 31.1669L48.0853 31.0339C48.0311 30.8651 47.8044 30.5273 47.5851 30.232C47.5141 30.7857 47.5265 31.4986 47.7633 31.8355C48.1049 32.3297 48.6713 32.6431 49.2383 32.6545C49.7356 32.6646 50.4337 32.6067 50.9339 32.2774C51.4275 31.9536 51.6871 31.4312 51.7656 30.6112C51.5842 30.7163 51.2261 30.9433 51.0374 31.209" fill="#00A650"/>
<path d="M50.0897 33.5807C50.1011 33.5893 50.1071 33.6001 50.116 33.6102L50.115 33.6089L50.0897 33.5807ZM51.603 32.9302C51.5556 32.909 51.5045 32.8974 51.4526 32.8963C51.2737 32.8934 51.1069 33.009 50.998 33.1087C50.9888 32.9064 50.8932 32.6655 50.5766 32.5949C50.5415 32.587 50.506 32.5825 50.4718 32.5813C50.2477 32.5778 50.0802 32.7196 49.9789 32.8406C49.9629 32.7418 49.9198 32.6494 49.8545 32.5737C49.7633 32.472 49.6329 32.4195 49.466 32.4154C49.228 32.4106 49.0697 32.5601 48.9807 32.7054C48.912 32.5309 48.7619 32.3429 48.4909 32.3381H48.4631C48.2829 32.3423 48.1414 32.3967 48.0449 32.5012C47.979 32.5711 47.9451 32.6519 47.9274 32.7225C47.8511 32.6579 47.7248 32.5958 47.526 32.5917L47.4981 32.5914C47.3398 32.5924 47.2154 32.6487 47.1293 32.7595C46.9203 33.0308 47.0118 33.5551 47.0587 33.7577C46.9533 34.3241 46.9146 35.2647 47.2259 35.7101C47.5972 36.2455 48.2123 36.5848 48.8303 36.5975C49.5876 36.6127 50.1891 36.4762 50.6197 36.1939C51.1727 35.8304 51.4615 35.22 51.5302 34.2902C51.6983 34.1424 51.8376 33.9078 51.849 33.8888C51.9477 33.638 52.0237 33.1157 51.603 32.9302Z" fill="#231F20"/>
<path d="M51.7428 33.8347C51.7428 33.8347 51.9748 33.2272 51.5601 33.0432C51.5284 33.0293 51.4942 33.0217 51.4601 33.0217C51.2609 33.017 51.0469 33.237 50.9814 33.3222L50.8031 33.5517L50.8668 33.2709C50.8709 33.2522 50.9671 32.8071 50.5581 32.7165C50.5324 32.7098 50.5059 32.7064 50.4793 32.7064C50.1826 32.7001 49.9927 33.0559 49.9914 33.0597L49.8315 33.3674L49.8708 33.0246C49.8717 33.0223 49.8948 32.7954 49.7682 32.6548C49.702 32.581 49.6033 32.543 49.4728 32.5405C49.1487 32.5339 49.042 32.8973 49.0375 32.9115L48.9511 33.2189L48.9131 32.9027C48.9106 32.8849 48.8552 32.4683 48.499 32.4617L48.4772 32.4626C48.3328 32.4652 48.223 32.5066 48.1505 32.5839C48.04 32.702 48.0488 32.8704 48.0488 32.8717L48.0738 33.2503L47.9266 32.9005C47.9225 32.8932 47.8418 32.7222 47.5344 32.7159L47.5094 32.7156C47.3916 32.7168 47.3042 32.7551 47.2434 32.8337C47.0209 33.1199 47.2143 33.8087 47.2168 33.8154L47.2203 33.8467C47.3321 33.9927 47.6265 34.3887 47.7601 34.6572L47.8044 34.5762C47.9732 34.2567 48.229 33.7749 48.5975 33.5602L48.6383 33.5362L48.6741 33.5678C49.022 33.8816 49.2202 34.2039 49.2993 34.5907C49.4383 34.2479 49.6017 33.8642 50.049 33.6033L50.0956 33.5754L50.1301 33.6156C50.4859 34.0104 50.6012 34.5303 50.6388 34.8009C50.9336 34.4767 51.3948 34.2425 51.4154 34.2323C51.5785 34.113 51.7415 33.8372 51.7428 33.8347Z" fill="white"/>
<path d="M50.6401 34.9966L50.5341 35.1451L50.5227 34.9643C50.5021 34.6211 50.3694 34.1016 50.0655 33.7375C49.6815 33.981 49.5416 34.3248 49.4058 34.6572L49.3225 34.8557L49.2196 35.0887L49.2003 34.8367C49.1661 34.3881 48.9863 34.0335 48.6194 33.6923C48.3018 33.9003 48.071 34.3394 47.9143 34.6332L47.8038 34.8329L47.7304 34.9535L47.6876 34.8203C47.6341 34.6522 47.4075 34.3137 47.1874 34.0183C47.1168 34.574 47.1292 35.285 47.3644 35.6228C47.7076 36.1176 48.274 36.4304 48.8406 36.4412C49.3383 36.4513 50.0361 36.3947 50.5363 36.0651C51.0292 35.7412 51.2885 35.2182 51.3683 34.3989C51.1862 34.5037 50.8288 34.7307 50.6401 34.9966Z" fill="#00A650"/>
<path d="M49.284 37.1161C49.2954 37.125 49.302 37.1351 49.3106 37.1465H49.3096L49.284 37.1161ZM50.7988 36.4652C50.7498 36.445 50.6997 36.4332 50.6472 36.432C50.4677 36.4291 50.3018 36.545 50.1922 36.645C50.1834 36.4427 50.0894 36.2009 49.7718 36.1312C49.7375 36.1228 49.7023 36.1184 49.667 36.1182C49.4432 36.1132 49.2748 36.2563 49.1735 36.3769C49.1573 36.2908 49.1228 36.1917 49.0503 36.1097C48.9582 36.0081 48.8287 35.9549 48.6603 35.9511C48.4238 35.947 48.2652 36.0954 48.1765 36.2423C48.1066 36.0676 47.9571 35.8798 47.6855 35.8741H47.6576C47.4781 35.8779 47.336 35.9333 47.2388 36.0366C47.1726 36.1075 47.14 36.1876 47.122 36.2569C47.0447 36.1936 46.9197 36.1312 46.7206 36.1265H46.693C46.5338 36.128 46.4109 36.185 46.3236 36.2949C46.1149 36.5662 46.2074 37.0911 46.2536 37.2928C46.1488 37.8598 46.1095 38.7994 46.4195 39.2458C46.7921 39.7805 47.4072 40.1205 48.0262 40.1322C48.7822 40.1471 49.3846 40.0107 49.8155 39.7283C50.3667 39.3652 50.6573 38.7554 50.7247 37.8262C50.8932 37.6777 51.0322 37.4428 51.0436 37.4232C51.1436 37.1741 51.2183 36.6514 50.7988 36.4652Z" fill="#231F20"/>
<path d="M50.9385 37.3707C50.9375 37.3707 51.1702 36.7625 50.7552 36.5792C50.7235 36.5653 50.6894 36.5576 50.6548 36.5564C50.456 36.553 50.2417 36.773 50.1771 36.8581L49.9995 37.0883L50.0631 36.8069C50.0672 36.7888 50.1629 36.3434 49.7532 36.2531C49.7266 36.2468 49.7 36.243 49.675 36.2427C49.3771 36.2367 49.1874 36.5925 49.1865 36.596L49.0257 36.904L49.0652 36.5612C49.0665 36.559 49.0896 36.3323 48.9627 36.1917C48.8968 36.1183 48.7971 36.0787 48.6686 36.0765C48.3444 36.0692 48.2367 36.4326 48.2329 36.4488L48.1456 36.7553L48.1076 36.439C48.1038 36.4213 48.0506 36.0049 47.6935 35.9983H47.6723C47.5279 36.0011 47.4187 36.0426 47.3446 36.1199C47.2341 36.2379 47.243 36.4073 47.243 36.4083L47.2692 36.7866L47.1195 36.4361C47.117 36.4295 47.0372 36.2573 46.7295 36.2516H46.7051C46.5861 36.2528 46.4987 36.2908 46.4379 36.3696C46.216 36.6558 46.4091 37.3447 46.4113 37.352L46.4154 37.3821C46.5269 37.5293 46.8219 37.925 46.9552 38.1935L46.9995 38.1125C47.1679 37.793 47.4234 37.3118 47.7923 37.0965L47.8337 37.0728L47.8692 37.1035C48.2171 37.4166 48.415 37.7405 48.4948 38.1267C48.6331 37.7838 48.7971 37.3998 49.2435 37.1386L49.2894 37.1124L49.3252 37.1519C49.6807 37.5461 49.7953 38.0675 49.833 38.3357C50.1277 38.0131 50.589 37.7785 50.6108 37.7671C50.7729 37.6496 50.9363 37.3732 50.9379 37.3707" fill="white"/>
<path d="M49.8351 38.5309L49.7303 38.6807L49.7189 38.4996C49.697 38.1555 49.5647 37.6375 49.2608 37.2734C48.8768 37.5169 48.7365 37.8598 48.601 38.1931L48.5184 38.3916L48.4149 38.625L48.3949 38.3714C48.362 37.9234 48.1812 37.5698 47.8146 37.2291C47.498 37.4368 47.266 37.875 47.1096 38.1684L46.9994 38.3695L46.9256 38.4898L46.8829 38.3571C46.8294 38.1884 46.6021 37.8509 46.3824 37.5546C46.3115 38.1089 46.3241 38.8209 46.5597 39.16C46.9025 39.6526 47.4692 39.9657 48.0353 39.9777C48.533 39.9866 49.2307 39.9299 49.7322 39.6007C50.2245 39.2762 50.4844 38.7538 50.5629 37.9345C50.3809 38.0393 50.0231 38.2663 49.8348 38.5309" fill="#00A650"/>
<path d="M48.6438 40.6404C48.6549 40.6477 48.6616 40.6585 48.6701 40.6695H48.6692L48.6438 40.6404ZM50.1571 39.9898C50.1103 39.9673 50.0596 39.9566 50.0068 39.9556C49.8279 39.9531 49.6623 40.068 49.5518 40.1684C49.543 39.9648 49.4477 39.7248 49.1314 39.6539C49.097 39.6462 49.0619 39.6419 49.0266 39.6413C48.8025 39.6378 48.6344 39.7796 48.5327 39.9005C48.5178 39.8144 48.4833 39.7153 48.4096 39.6337C48.3184 39.5311 48.1876 39.4782 48.0205 39.4757C47.7827 39.4706 47.6251 39.6191 47.5364 39.7654C47.4665 39.5906 47.317 39.4029 47.0454 39.3981L47.0175 39.3969C46.8374 39.401 46.6972 39.4573 46.5987 39.5599C46.5338 39.6305 46.5002 39.7119 46.4819 39.7812C46.4059 39.7182 46.2793 39.6549 46.0804 39.6504H46.0529C45.8937 39.6517 45.7702 39.7087 45.6844 39.8179C45.4742 40.0902 45.5676 40.6144 45.6135 40.818C45.5087 41.3841 45.4691 42.3246 45.7803 42.7691C46.1523 43.3051 46.7671 43.6432 47.386 43.6559C48.1424 43.6714 48.7445 43.5353 49.1741 43.2523C49.7266 42.8898 50.0163 42.2784 50.0859 41.3505C50.2531 41.202 50.3924 40.9659 50.4034 40.9478C50.5022 40.6971 50.5782 40.1753 50.1575 39.9901" fill="#231F20"/>
<path d="M50.2977 40.8943C50.2968 40.8943 50.5304 40.2861 50.1141 40.1028C50.0834 40.088 50.0495 40.0804 50.014 40.0804C49.8152 40.0756 49.6012 40.296 49.5357 40.3818L49.3574 40.6106L49.422 40.3308C49.4261 40.3127 49.5224 39.867 49.1108 39.7764C49.0858 39.7698 49.0605 39.7663 49.0345 39.7654C48.7366 39.7593 48.5473 40.1149 48.5457 40.119L48.3858 40.4264L48.4248 40.0842C48.426 40.0813 48.4501 39.8546 48.3222 39.7153C48.2563 39.6409 48.1573 39.6023 48.0281 39.6001C47.703 39.5934 47.5972 39.9563 47.5925 39.9711L47.5051 40.2789L47.4671 39.9632C47.4649 39.9452 47.4101 39.5289 47.053 39.5222L47.0318 39.5225C46.8874 39.5254 46.7782 39.5665 46.7054 39.6428C46.5936 39.7609 46.6031 39.9306 46.6031 39.9319L46.6272 40.3102L46.4793 39.9604C46.4765 39.9531 46.3961 39.7821 46.0884 39.7758H46.064C45.9449 39.7768 45.8588 39.8151 45.7968 39.8939C45.5749 40.1798 45.768 40.8687 45.7702 40.8756L45.7743 40.9057C45.8867 41.0529 46.1808 41.4487 46.3147 41.7171L46.3587 41.6351C46.5271 41.3169 46.7826 40.8351 47.1515 40.6198L47.1932 40.5954L47.2284 40.6274C47.5763 40.9402 47.7745 41.2631 47.854 41.6503C47.9923 41.3075 48.1566 40.9234 48.6027 40.6622L48.6492 40.636L48.6834 40.6743C49.0402 41.0697 49.1561 41.5898 49.1928 41.8596C49.4869 41.5363 49.9485 41.3021 49.9703 41.2907C50.1324 41.1726 50.2958 40.8968 50.2974 40.8943" fill="white"/>
<path d="M49.1946 42.0552L49.0885 42.2047L49.0787 42.0236C49.0575 41.6801 48.9242 41.1602 48.6206 40.7977C48.2356 41.0406 48.096 41.385 47.9605 41.7158L47.8779 41.9159L47.7744 42.148L47.7544 41.8957C47.7199 41.4483 47.5407 41.0928 47.1741 40.7518C46.8575 40.9598 46.6255 41.3986 46.4691 41.6924L46.3589 41.8934L46.2845 42.0128L46.2424 41.8798C46.1889 41.7114 45.9616 41.3742 45.7425 41.0782C45.6716 41.6329 45.6843 42.3446 45.9189 42.6827C46.2624 43.1753 46.8278 43.489 47.3954 43.5004C47.8921 43.5106 48.5899 43.4533 49.0907 43.1243C49.5843 42.8005 49.8442 42.2784 49.9224 41.4588C49.7404 41.5629 49.3826 41.7909 49.1943 42.0555" fill="#00A650"/>
<path d="M48.0194 44.0598C48.0298 44.0677 48.0368 44.0791 48.0457 44.0899L48.0194 44.0598ZM49.533 43.4092C49.4846 43.3887 49.4342 43.3776 49.3813 43.3763C49.2025 43.3728 49.0369 43.4881 48.9277 43.5881C48.9188 43.3858 48.8229 43.1436 48.5063 43.0736C48.4708 43.0661 48.4363 43.0623 48.4009 43.0613C48.1777 43.0566 48.0096 43.199 47.9079 43.3206C47.8927 43.2348 47.8586 43.1348 47.7848 43.0534C47.6939 42.9518 47.5629 42.8979 47.396 42.8954C47.158 42.89 47 43.0398 46.911 43.1851C46.8414 43.0113 46.6919 42.8232 46.42 42.8169H46.3934C46.2123 42.822 46.0721 42.8755 45.9745 42.9806C45.917 43.0425 45.8764 43.1183 45.8568 43.2006C45.7798 43.137 45.6542 43.0749 45.4563 43.0711H45.4284C45.2698 43.0724 45.1451 43.1281 45.0596 43.2386C44.8494 43.5099 44.9434 44.0342 44.989 44.2362C44.8849 44.8035 44.8446 45.7434 45.1549 46.1892C45.5263 46.7245 46.1423 47.0639 46.7606 47.0759C47.5182 47.0908 48.1191 46.9544 48.5497 46.672C49.1027 46.3089 49.3915 45.6991 49.4605 44.7687C49.6286 44.6214 49.7685 44.3865 49.778 44.3675C49.8777 44.1178 49.9537 43.5948 49.5333 43.4089" fill="#231F20"/>
<path d="M49.6729 44.3146C49.672 44.3146 49.905 43.7068 49.4896 43.5228C49.458 43.5093 49.4242 43.5017 49.3899 43.5004C49.1895 43.4969 48.9761 43.7169 48.9112 43.8017L48.7326 44.0325L48.7969 43.7511C48.802 43.7324 48.8979 43.2873 48.487 43.1967C48.4617 43.1898 48.4356 43.186 48.4094 43.1853C48.1121 43.18 47.9228 43.5361 47.9203 43.5402L47.7617 43.847L47.8006 43.5048C47.8006 43.5023 47.8247 43.2756 47.6983 43.135C47.6315 43.0612 47.5315 43.0233 47.4042 43.0198C47.0788 43.0131 46.9734 43.3759 46.9674 43.3918L46.8809 43.6985L46.8429 43.3829C46.8404 43.3649 46.785 42.9485 46.4279 42.9419H46.4073C46.2629 42.9454 46.1537 42.9872 46.0803 43.0625C45.9692 43.1819 45.978 43.3503 45.978 43.3516L46.0037 43.7302L45.8552 43.3794C45.8526 43.3734 45.7719 43.2021 45.4642 43.1967L45.4398 43.1955C45.3217 43.1967 45.2343 43.2344 45.1726 43.3133C44.951 43.5998 45.1438 44.2883 45.146 44.2959L45.1501 44.3267C45.2616 44.4726 45.5557 44.8683 45.6899 45.1362L45.7342 45.0548C45.903 44.7366 46.1585 44.2545 46.527 44.0395L46.5684 44.0158L46.6039 44.0471C46.9522 44.3599 47.1497 44.6828 47.2285 45.069C47.3681 44.7274 47.5315 44.3431 47.9785 44.0829L48.0241 44.055L48.0599 44.0943C48.4154 44.4894 48.5319 45.0102 48.568 45.2805C48.8631 44.9563 49.324 44.7224 49.3465 44.7107C49.5076 44.5926 49.6704 44.3171 49.6729 44.3146Z" fill="white"/>
<path d="M48.57 45.4753L48.4646 45.6238L48.4532 45.443C48.4326 45.0995 48.2996 44.5809 47.996 44.2175C47.6114 44.4606 47.4727 44.8041 47.3362 45.1359L47.2527 45.335L47.1498 45.568L47.1308 45.3151C47.0963 44.8678 46.9165 44.5135 46.5498 44.1713C46.2329 44.3799 46.0002 44.8174 45.8445 45.1112L45.7343 45.3135L45.6599 45.4322L45.6181 45.2993C45.564 45.1318 45.337 44.793 45.1179 44.498C45.0461 45.0526 45.0597 45.7634 45.2949 46.1021C45.6378 46.596 46.2038 46.9091 46.7711 46.9205C47.2685 46.9294 47.9656 46.8727 48.4668 46.5431C48.9603 46.2193 49.2199 45.6975 49.2985 44.8779C49.1151 44.983 48.759 45.2097 48.5703 45.4747" fill="#00A650"/>
</g>
</g>
<defs>
<clipPath id="clip0_1801_10208">
<rect width="80" height="72.2557" fill="white"/>
</clipPath>
<clipPath id="clip1_1801_10208">
<rect width="80" height="72.2557" fill="white"/>
</clipPath>
</defs>
</svg>
