<svg width="80" height="72" viewBox="0 0 80 72" fill="none" xmlns="http://www.w3.org/2000/svg">
<g clip-path="url(#clip0_1801_10306)">
<path fill-rule="evenodd" clip-rule="evenodd" d="M70.249 17.1903C73.041 17.2374 75.9979 16.9643 78.6864 16.3334L80 16.0226L79.3549 17.2138C78.5639 18.6734 76.6806 19.7893 75.0468 20.4343L74.7031 21.0464C74.2982 21.7715 73.8179 22.2942 73.0787 22.6897C72.4336 23.0381 71.6756 23.2358 70.9081 23.3535L70.7433 23.6455C70.3337 24.38 69.8393 24.9308 69.1048 25.3593C68.5681 25.6701 67.956 25.8819 67.3251 26.0185L67.1273 26.3716C66.1338 28.1467 63.6431 28.3962 61.8257 28.4574C61.2136 28.481 60.5968 28.4763 59.98 28.4574L59.6881 28.9612C60.2107 29.0177 60.738 29.0648 61.2654 29.0931C63.2523 29.2108 65.3617 29.1684 67.3439 28.9377L68.5021 28.8011L67.9466 29.8276C67.5463 30.5668 66.7035 31.1271 65.9502 31.4896L65.5406 32.2477C65.0415 33.1799 63.8079 33.8391 62.8615 34.2252C62.7108 34.2864 62.5649 34.3429 62.4095 34.3947L62.1506 34.8796C61.788 35.5529 61.0629 36.0662 60.3943 36.4004C60.3096 36.4428 60.2248 36.4852 60.1354 36.5229C60.3614 36.876 60.5874 37.2291 60.8181 37.5822C61.9763 39.3667 63.177 41.2171 63.7608 43.2794C64.1657 44.7013 64.2364 46.1185 63.9397 47.5687C63.6007 49.2119 62.8898 50.648 61.7127 51.858C60.319 53.2941 58.4686 54.2028 56.6229 54.9138C54.6313 55.6765 52.5596 56.2368 50.5397 56.9148C48.5151 57.5976 46.4622 58.4074 44.7154 59.6551C43.0816 60.8181 41.8057 62.3436 40.6097 63.9303L40.0024 64.7402L39.4326 63.9821C38.2226 62.3718 36.9372 60.8275 35.2846 59.6551C33.533 58.4121 31.4849 57.5976 29.4603 56.9148C27.4404 56.2368 25.3687 55.6718 23.3771 54.9138C21.5314 54.2075 19.681 53.2941 18.2873 51.858C17.1149 50.6527 16.3993 49.2166 16.0603 47.5687C15.7636 46.1185 15.839 44.6966 16.2392 43.2747C16.936 40.8122 18.5086 38.6652 19.8646 36.5182C19.7799 36.4805 19.6904 36.4381 19.6057 36.3957C18.9371 36.0614 18.2073 35.5482 17.8494 34.8749L17.5905 34.39C17.4398 34.3335 17.2892 34.277 17.1385 34.2205C16.1921 33.8391 14.9585 33.1799 14.4594 32.243L14.0498 31.4849C13.2965 31.1224 12.4537 30.5621 12.0534 29.8228L11.4979 28.7964L12.6561 28.933C14.6383 29.1637 16.743 29.2013 18.7346 29.0883C19.262 29.0554 19.7846 29.013 20.3119 28.9565L20.02 28.4527C19.4032 28.4763 18.7864 28.4763 18.1743 28.4527C16.3569 28.3868 13.8709 28.142 12.8727 26.3669L12.6749 26.0138C12.044 25.8772 11.4319 25.6701 10.8952 25.3546C10.156 24.9261 9.66629 24.3753 9.25667 23.6408L9.09187 23.3488C8.32441 23.2311 7.56636 23.0287 6.92131 22.685C6.1821 22.2894 5.70184 21.7668 5.29692 21.0417L4.95321 20.4296C3.32411 19.7846 1.43605 18.6687 0.645047 17.2091L0 16.0179L1.31364 16.3286C4.00212 16.9596 6.96369 17.2327 9.75105 17.1856C9.73221 17.1526 9.71338 17.1244 9.69454 17.0914L9.11071 16.0556L10.2925 16.1874C11.9169 16.3663 13.5978 16.3899 15.2504 16.3051L13.8144 15.9614L16.6959 15.5423C15.9802 14.7419 15.2363 13.965 14.483 13.2023L13.8238 12.5384L14.6995 12.2088C16.3569 11.5826 18.3721 10.9046 19.5539 9.51092L19.6198 9.43088C20.6274 8.18786 20.7734 6.44106 20.924 4.91084L20.9852 4.2705L21.6209 4.36937C24.6295 4.84021 27.6711 5.15096 30.6939 4.58596C34.051 3.96445 36.9466 2.33535 39.6304 0.282503L39.9976 0L40.3649 0.282503C43.0534 2.33535 45.9443 3.96445 49.3014 4.58596C52.3242 5.14625 55.3658 4.84021 58.3744 4.36937L59.0101 4.2705L59.0713 4.91084C59.2172 6.44106 59.3679 8.18786 60.3755 9.43088L60.4414 9.51092C61.6232 10.9046 63.6384 11.5826 65.2957 12.2088L66.1715 12.5384L65.5123 13.2023C64.759 13.965 64.0151 14.7419 63.2994 15.5423L66.1809 15.9614L64.7449 16.3051C66.3975 16.3946 68.0784 16.371 69.7028 16.1874L70.8846 16.0556L70.3007 17.0914C70.2819 17.1244 70.2631 17.1573 70.2442 17.1856L70.249 17.1903Z" fill="#22409A"/>
<path fill-rule="evenodd" clip-rule="evenodd" d="M40.0021 17.4916C47.9405 17.4916 54.132 23.9892 54.132 31.6214C54.132 39.2537 47.9357 45.7513 40.0021 45.7513C35.7552 45.7513 31.932 43.8632 29.333 40.864L29.3141 40.8404C24.6905 35.487 24.7423 27.5864 29.4036 22.2941C31.9979 19.3514 35.7881 17.4916 40.0021 17.4916ZM54.1602 43.2182C54.6546 43.0769 55.1631 43.2558 55.4362 43.6937C55.6669 43.5854 55.9353 43.5619 56.1142 43.7314C56.0765 43.5007 55.9259 43.2935 55.714 43.1852L55.6716 43.1617L55.6622 43.1146C55.6198 42.8462 55.4315 42.6249 55.1772 42.5307C54.9183 42.4319 54.6216 42.479 54.4051 42.6485L54.3674 42.6767L54.3203 42.6673C54.0849 42.6108 53.8306 42.6626 53.6423 42.8085C53.8824 42.8038 54.066 42.9875 54.1602 43.2229V43.2182ZM53.5623 44.7672C53.8306 44.7531 54.0896 44.8331 54.2921 45.0121C54.3486 45.0639 54.4003 45.1156 54.4427 45.1816C54.777 45.2569 55.1396 45.2522 55.4644 45.1345C55.6434 45.0686 55.8976 44.9273 55.9729 44.739C56.0577 44.5271 56.1001 44.1881 55.8929 44.0327C55.7375 43.915 55.5256 43.9856 55.375 44.0751L55.2855 44.1269L55.2384 44.0374C55.1301 43.8303 54.9654 43.6702 54.7441 43.5901C54.5228 43.5054 54.2826 43.5195 54.0613 43.5995L53.9625 43.6372L53.9342 43.5383C53.8871 43.3783 53.7835 43.204 53.6046 43.1758C53.3315 43.1334 53.1102 43.4206 53.0208 43.6419C52.9596 43.7973 53.0067 44.0092 53.0679 44.1551C53.1715 44.4 53.3504 44.6118 53.5575 44.7766L53.5623 44.7672ZM53.8495 46.4717C54.1037 46.4481 54.3674 46.5187 54.471 46.74C54.5228 46.514 54.4616 46.2692 54.3015 46.0903L54.2685 46.0526L54.2779 46.0008C54.3391 45.7371 54.245 45.4688 54.0425 45.2899C53.8306 45.1062 53.5387 45.0544 53.275 45.1392L53.228 45.1533L53.1903 45.1251C52.9925 44.9885 52.7336 44.9556 52.5029 45.0262C52.7289 45.1062 52.8277 45.3369 52.8325 45.5865C53.3457 45.6241 53.7553 45.9537 53.8495 46.4669V46.4717ZM51.6554 46.7495C52.0414 46.8436 52.3428 47.1402 52.404 47.5357C52.6912 47.7147 53.0255 47.8277 53.3645 47.8277C53.5575 47.8277 53.8448 47.7806 53.9813 47.6299C54.3438 47.2438 54.3156 46.6929 53.6658 46.806L53.5623 46.8248L53.5528 46.7212C53.5293 46.4952 53.4351 46.288 53.2609 46.1374C53.082 45.982 52.8513 45.9161 52.6206 45.9161H52.5123L52.5217 45.8125C52.5358 45.6477 52.5029 45.4594 52.3475 45.3699C52.1168 45.2381 51.8013 45.3981 51.6507 45.5865C51.3729 45.9302 51.4717 46.3916 51.6601 46.7542L51.6554 46.7495ZM50.4783 46.7636C50.7184 46.7447 50.9585 46.8295 51.128 47.0084L51.161 47.0414H51.2081C51.4812 47.0131 51.7542 47.1261 51.919 47.3474C52.0791 47.564 52.1027 47.8465 51.9849 48.0913L51.9614 48.1384L51.9849 48.1855C52.1027 48.3974 52.1027 48.6469 52.0038 48.8541C51.952 48.614 51.7072 48.4915 51.4576 48.4586C51.4811 47.9407 51.161 47.531 50.6713 47.3851C50.7231 47.1402 50.676 46.8907 50.4736 46.7683L50.4783 46.7636ZM49.2541 48.2561C48.8727 46.7871 50.6101 46.5847 50.3135 47.5216L50.2805 47.6252L50.3841 47.6487C50.6101 47.6958 50.8173 47.8088 50.9585 48.0019C51.0951 48.1855 51.1374 48.4115 51.1092 48.6328L51.0951 48.7411H51.2034C51.3729 48.7505 51.5894 48.8023 51.6554 48.9812C51.7448 49.2261 51.5047 49.4897 51.3211 49.6168C51.1516 49.7298 50.8691 49.7204 50.6807 49.6781C50.3558 49.6121 50.0592 49.4379 49.8238 49.2072C49.8615 48.7929 49.6308 48.4303 49.2588 48.2608L49.2541 48.2561ZM48.0393 48.0772C48.2182 48.2326 48.2277 48.4821 48.1382 48.7176C48.5996 48.9341 48.8539 49.3908 48.7503 49.8946C48.9904 49.9653 49.2117 50.1206 49.2258 50.3608C49.3624 50.1677 49.4001 49.9229 49.3153 49.6969L49.2965 49.6498L49.3247 49.6074C49.4801 49.3861 49.4989 49.1036 49.3765 48.8635C49.2494 48.6187 48.9951 48.468 48.722 48.4539H48.675L48.6467 48.4115C48.5102 48.209 48.2795 48.0913 48.044 48.0772H48.0393ZM47.1165 50.5256C47.3142 50.7422 47.5638 50.9164 47.8416 51.0058C48.0111 51.0623 48.2606 51.1 48.4301 51.0152C48.6326 50.9164 48.9198 50.6857 48.8633 50.4314C48.8256 50.2478 48.6138 50.1677 48.4537 50.1395L48.3454 50.1206L48.3736 50.0171C48.4395 49.8005 48.4301 49.5745 48.3218 49.372C48.2135 49.1648 48.0252 49.0236 47.8086 48.9436L47.705 48.9059L47.7521 48.807C47.8227 48.6705 47.8792 48.4774 47.771 48.3409C47.6014 48.1243 47.2107 48.1996 46.9988 48.2985C46.8387 48.3738 46.7257 48.5716 46.6692 48.7317C46.575 48.9859 46.5656 49.2637 46.6127 49.5274C46.9752 49.7299 47.1824 50.1159 47.1118 50.5303L47.1165 50.5256ZM45.5203 49.2166C45.7558 49.2637 45.9629 49.4144 46.0665 49.631L46.0854 49.6734L46.1324 49.6828C46.4008 49.7346 46.6268 49.9229 46.7163 50.1819C46.801 50.4361 46.7351 50.7139 46.5515 50.9117L46.5185 50.9493L46.5279 51.0011C46.575 51.2365 46.4997 51.4767 46.3349 51.6462C46.3584 51.406 46.1654 51.2224 45.9394 51.1188C46.1183 50.6386 45.9441 50.1489 45.5203 49.8664C45.6475 49.6498 45.6804 49.4003 45.5203 49.2166ZM45.6004 50.535C45.5251 50.3137 45.365 50.1489 45.1625 50.0359L45.0683 49.9841L45.1343 49.8946C45.2237 49.7675 45.3085 49.5839 45.2237 49.4332C45.0919 49.1931 44.6964 49.2166 44.4704 49.2873C44.2491 49.3579 44.0749 49.631 43.9948 49.8381C43.8489 50.2195 43.8677 50.6433 43.9948 51.0294C44.1267 51.4202 44.3668 51.7733 44.7152 51.9993C44.9035 52.1217 45.2143 52.2488 45.4403 52.1782C45.6569 52.1123 45.9818 51.924 45.9582 51.6603C45.9441 51.4767 45.7558 51.3731 45.6004 51.3166L45.4968 51.2789L45.5439 51.18C45.6428 50.9776 45.6663 50.7516 45.5957 50.535H45.6004ZM40.9956 54.1698C41.5371 52.7903 42.3469 51.7168 43.6841 51.0388C43.7547 51.2789 43.863 51.5096 44.0042 51.7168C42.6247 52.4277 41.6736 53.4165 40.9956 54.7914V54.1698ZM46.9988 50.6951C46.9988 50.8175 48.0017 51.5285 48.6138 51.2318C48.8209 51.1329 48.9857 50.9776 49.0846 50.8269C49.4565 50.5679 49.6355 50.1395 49.5225 49.7581L49.5083 49.711C49.5931 49.6027 49.6543 49.4803 49.6873 49.3579C50.3276 49.9511 51.1516 50.0594 51.5329 49.7958C51.7213 49.6686 51.8578 49.4944 51.9379 49.3249C52.2816 49.0048 52.3804 48.5292 52.1827 48.162C52.2627 48.0207 52.3051 47.8653 52.3098 47.7147C53.1102 48.209 53.953 48.0631 54.2355 47.7617C54.3909 47.597 54.4851 47.3945 54.5181 47.2156C54.777 46.8295 54.7676 46.3445 54.4898 46.0291C54.551 45.8078 54.5369 45.5771 54.4521 45.3746C55.3844 45.5629 56.1189 45.1439 56.2696 44.7672C56.3543 44.5601 56.3684 44.3388 56.3355 44.1598C56.4344 43.7078 56.2507 43.2605 55.8694 43.0581C55.7893 42.2577 54.8994 41.9281 54.2779 42.4648C53.8589 42.366 53.4022 42.5778 53.162 42.9733C53.0114 43.0863 52.8701 43.2558 52.7854 43.463C52.6535 43.7879 52.8183 44.4141 53.388 44.8802C53.3315 44.8896 53.275 44.9085 53.2185 44.9273C52.8607 44.6919 52.3616 44.7343 51.9849 45.0262C51.806 45.078 51.6083 45.191 51.4529 45.3558C51.2222 45.6053 51.1374 46.2033 51.4529 46.8107C51.3681 46.8059 51.2834 46.8107 51.1987 46.8201C50.9067 46.514 50.4029 46.4528 49.9745 46.6506C49.7861 46.6647 49.5696 46.7306 49.3812 46.8577C49.0987 47.0508 48.8774 47.6205 49.0469 48.2797C48.9528 48.2514 48.8539 48.242 48.7503 48.2373C48.5055 47.8936 48.0252 47.757 47.5685 47.8936C47.3802 47.8795 47.1542 47.9124 46.947 48.0113C46.6127 48.1714 46.2831 48.7788 46.4149 49.5321C46.3443 49.5086 46.2737 49.4897 46.1984 49.4756C46.01 49.1036 45.5533 48.8965 45.0825 48.9671C44.8988 48.9247 44.6681 48.9247 44.4515 48.9953C44.0466 49.1225 43.5617 49.8146 43.717 50.7327C42.507 51.2883 41.4711 52.23 40.7649 54.038V55.9449C41.5794 53.7084 42.8272 52.602 44.2773 51.891C44.7152 52.3618 45.2849 52.5172 45.6004 52.4183C45.8217 52.3477 46.0053 52.2206 46.1324 52.084C46.5562 51.8769 46.801 51.4484 46.7257 51.0435L46.9799 50.6668L47.0035 50.6951H46.9988ZM53.6188 48.1431V53.8591C54.471 53.6096 55.3044 53.3506 56.0907 53.0493V45.2145C56.5097 44.9226 56.4956 44.6542 56.5191 44.287C56.6133 43.7973 56.4767 43.2888 56.0907 43.0581V38.1755C55.4362 39.0183 54.5651 39.7763 53.6188 40.3414V42.3754C53.3174 42.4742 53.0443 42.6955 52.8795 43.0063C52.776 43.1146 52.6865 43.2464 52.6253 43.4018C52.5029 43.7031 52.6112 44.2446 53.0302 44.7107C52.6582 44.5742 52.2015 44.6683 51.8484 44.9414C51.6789 45.0074 51.4953 45.1156 51.354 45.271C51.241 45.3934 51.1563 45.5959 51.1374 45.8454V41.2877C51.0951 41.2924 51.0527 41.3019 51.0103 41.3066C50.3088 42.1023 49.5178 42.8227 48.6608 43.4536V47.983C48.3642 47.7005 47.8651 47.6393 47.4084 47.7853C47.2436 47.7947 47.06 47.8324 46.8905 47.9124C46.5562 48.0725 46.2266 48.6516 46.3019 49.3861C46.2737 49.3814 46.2454 49.372 46.2125 49.372C46.1984 49.3485 46.1842 49.3202 46.1701 49.2967V44.9273C45.3791 45.2946 44.5551 45.5959 43.6982 45.8219V49.711C43.6087 49.9606 43.5664 50.2619 43.5993 50.5868C42.6059 51.0812 41.7631 51.8439 41.2122 52.6538V46.2409C40.3929 46.3069 39.6019 46.3069 38.7874 46.2409V52.6538C38.2177 51.8157 37.3372 51.0294 36.3013 50.5397V45.8172C35.4444 45.5912 34.6157 45.2946 33.8294 44.9226V47.5028C33.6223 47.3662 33.401 47.2391 33.175 47.1073C32.4593 46.693 31.9037 46.2456 31.3434 45.6806V43.4489C30.4865 42.818 29.6955 42.0976 28.9939 41.3019C28.9516 41.2972 28.9092 41.2924 28.8668 41.283V44.0986C28.6832 43.7973 28.5043 43.4865 28.3348 43.157C28.17 44.2776 27.8074 45.3087 27.9958 46.4669C28.1041 47.1167 28.4431 47.6582 28.8668 48.129V48.275C28.2641 47.9218 27.6944 47.5169 27.1483 47.0837C27.0871 45.6477 26.3902 44.7484 26.3808 44.7201V40.3366C25.4344 39.7716 24.5587 39.0136 23.9089 38.1708V42.6108C23.7677 42.4366 23.6311 42.2482 23.4993 42.0364C23.3769 43.1193 23.4757 44.3764 23.9089 45.4123V53.0445C24.6952 53.3459 25.5286 53.6048 26.3808 53.8544V50.8787C27.2236 51.1942 27.9911 51.2507 28.8668 50.9069V54.5748L31.3387 55.394V53.1717C32.2286 53.4495 32.9584 53.4589 33.8247 52.9739V56.4205C34.7099 56.8301 35.5198 57.2821 36.2966 57.8235V52.4277C37.4549 53.1764 38.1753 54.1604 38.7827 55.4129V60.0506C39.1829 60.4979 39.5831 60.9876 39.9974 61.5384C40.4071 60.9876 40.812 60.4979 41.2122 60.0506V55.4129C41.8196 54.1651 42.5352 53.1811 43.6982 52.4277V57.8235C44.4751 57.2774 45.2896 56.8301 46.1701 56.4205V52.2253C46.6174 51.9899 46.8717 51.5332 46.7916 51.0953C46.8764 51.0152 46.947 50.9211 47.0035 50.8222C47.5732 51.3872 48.2983 51.5002 48.6561 51.3354V55.3893L51.128 54.5701V50.0406C51.3258 50.0312 51.4953 49.9794 51.6083 49.9041C51.7684 49.7958 51.8908 49.6592 51.9755 49.518C52.3946 49.1601 52.5311 48.6046 52.3004 48.1808C52.3522 48.0866 52.3899 47.9877 52.4134 47.8889C52.8372 48.1102 53.2609 48.1761 53.614 48.1431H53.6188ZM51.1327 46.6176C51.161 46.6412 51.1892 46.6647 51.2128 46.6929C51.2363 46.6929 51.2551 46.6882 51.2787 46.6835C51.1939 46.4811 51.1469 46.2833 51.1327 46.0997V46.6176ZM66.8634 20.3402C67.2872 19.8976 67.6073 19.4503 67.838 19.0595C68.5631 18.7017 69.1658 18.2449 69.6555 17.7741C72.7583 17.873 76.0777 17.5622 78.8227 16.9172C78.2388 17.9954 76.5627 19.3326 74.1002 20.1236C72.1886 20.5803 69.114 20.6792 66.8681 20.3402H66.8634ZM21.6253 27.737C20.4012 27.85 19.1911 27.883 18.1929 27.8453C15.0948 27.737 13.9319 27.0166 13.3998 26.0703C15.1278 26.3151 17.369 26.268 19.5395 26.1315C19.7184 26.2256 19.9115 26.3151 20.1092 26.3999C20.4859 26.8519 20.9991 27.3321 21.6253 27.7417V27.737ZM20.9897 28.641C22.8919 29.0365 23.6311 31.1459 24.2291 33.2035C24.5963 34.4653 25.3214 35.9155 26.3667 37.0408C24.7235 32.9351 25.0342 28.3067 27.1812 24.4741C25.9429 25.8443 25.458 27.3509 25.0389 27.8359C23.9042 29.1637 22.9719 28.5516 20.985 28.6363L20.9897 28.641ZM25.5239 35.2516C24.9353 32.921 24.9212 30.4726 25.4862 28.1372C24.521 29.2484 23.8759 29.093 22.4211 29.0412C23.7206 29.7993 24.1443 31.4331 24.6434 33.1564C24.8365 33.8297 25.1331 34.5501 25.5286 35.2516H25.5239ZM17.0253 16.0979C18.4801 16.4463 19.7655 17.4398 20.227 18.4568C21.2675 20.7404 21.131 22.3648 22.2186 24.0645C23.1038 25.4535 24.1349 26.5411 25.2131 27.0826C25.3685 26.7765 25.651 25.8913 26.2348 25.4629C25.5992 25.6936 25.279 25.7454 24.7564 25.3499C23.1744 24.1445 23.3674 22.5908 22.8731 20.3449C22.2421 17.4869 20.4765 15.5894 17.0205 16.0932L17.0253 16.0979ZM19.5678 18.7017C17.8633 18.9795 15.9706 19.1725 14.7605 19.1113C11.8319 18.9606 10.8102 17.8071 10.2358 16.7853C12.1945 17.0019 14.5251 17.0161 16.9782 16.7759C17.1712 16.7571 17.3643 16.7383 17.5526 16.7147C18.4425 17.2232 19.1393 17.8777 19.4783 18.5369C19.5066 18.5934 19.5348 18.6452 19.5631 18.7017H19.5678ZM20.6366 21.6208C19.6714 21.8374 18.7674 21.9599 18.0376 21.8986C15.5704 21.6962 13.8942 20.6886 13.3198 19.6669C15.0666 19.8599 17.6656 19.8317 19.8409 19.2761C20.2128 20.1236 20.4341 20.8958 20.6413 21.6208H20.6366ZM21.5971 24.2293C19.064 24.5542 16.3378 23.4618 15.5374 22.0493C16.9735 22.4684 18.9322 22.4448 20.7731 22.1105C20.985 22.8403 21.211 23.5324 21.5971 24.2246V24.2293ZM23.2026 26.2256C22.7365 25.7925 22.3033 25.3028 21.9455 24.7849C20.6648 24.8743 19.4171 24.799 18.4236 24.5071C18.9792 25.4911 20.7119 26.6117 23.2026 26.2256ZM21.2487 26.7577C22.2045 28.2032 24.7611 28.3397 24.9259 27.4875C24.5257 27.2662 24.1443 27.0072 23.7771 26.72C22.8589 26.8519 21.9879 26.8754 21.2487 26.7577ZM22.9531 36.6359C20.4012 36.4381 18.838 35.4305 18.3907 34.5924C19.4972 34.9032 20.8861 35.0774 22.3787 35.1339C22.5341 35.6377 22.7177 36.1415 22.9531 36.6406V36.6359ZM21.1027 29.1072C22.5294 31.5791 21.6771 34.4606 24.0407 37.7047C25.2508 39.3714 26.8375 40.3837 28.5043 40.7086C27.8404 39.8705 27.266 38.9571 26.7904 37.9872C26.023 37.3092 25.6745 37.667 24.4598 35.068C23.245 32.469 23.2026 29.8982 21.1027 29.1025V29.1072ZM21.6206 31.8804C20.4106 32.0028 19.1111 32.0264 18.2541 31.9463C15.0854 31.6497 13.122 30.5197 12.59 29.5403C14.7464 29.7899 17.9905 29.8793 20.8673 29.5027C21.2204 30.2089 21.4323 31.0188 21.6206 31.8804ZM22.2186 34.5877C19.0546 34.5877 15.7305 33.3353 14.9959 31.9652C16.771 32.4642 19.2759 32.6102 21.743 32.4784C21.8843 33.1611 22.0256 33.872 22.2186 34.5924V34.5877ZM18.7721 25.6465C17.3125 25.7266 15.8482 25.6983 14.7134 25.6465C11.3375 25.5006 10.3629 24.38 9.78378 23.3441C11.5871 23.6125 13.9083 23.5984 16.1778 23.4807C16.5309 23.7585 16.9358 24.0174 17.3925 24.2293C17.7127 24.6907 18.1694 25.1992 18.7674 25.6418L18.7721 25.6465ZM15.5751 22.9439C15.0713 22.4307 14.7323 21.8986 14.5439 21.4937C14.2567 21.3148 13.9884 21.1171 13.7482 20.9146C13.3716 20.9476 12.9902 20.9758 12.5994 20.9993C10.1369 21.1453 7.79214 21.0417 5.82874 20.7498C6.40787 21.7856 7.31188 22.7462 10.6878 22.8921C12.0297 22.9486 13.8518 23.0381 15.5751 22.9439ZM13.1361 20.3449C12.7124 19.9023 12.3922 19.455 12.1615 19.0642C11.4364 18.7064 10.8337 18.2497 10.3441 17.7788C7.24125 17.8777 3.92185 17.5669 1.17687 16.9219C1.76071 18.0001 3.43689 19.3373 5.89937 20.1283C7.81097 20.585 10.8855 20.6839 13.1314 20.3449H13.1361ZM64.4292 22.9439C64.933 22.4307 65.272 21.8986 65.4603 21.4937C65.7475 21.3148 66.0159 21.1171 66.256 20.9146C66.6327 20.9476 67.0141 20.9758 67.4049 20.9993C69.8673 21.1453 72.2121 21.0417 74.1755 20.7498C73.5964 21.7856 72.6924 22.7462 69.3165 22.8921C67.9746 22.9486 66.1524 23.0381 64.4292 22.9439ZM61.2322 25.6465C61.8302 25.1992 62.2869 24.6954 62.607 24.234C63.0638 24.0221 63.4687 23.7632 63.8218 23.4854C66.0959 23.6031 68.4172 23.6172 70.2158 23.3488C69.6366 24.3847 68.6667 25.5053 65.2861 25.6512C64.1514 25.6983 62.6871 25.7266 61.2275 25.6512L61.2322 25.6465ZM57.7857 34.5877C57.9787 33.8673 58.12 33.1564 58.2612 32.4737C60.7284 32.6102 63.238 32.4595 65.0083 31.9604C64.2738 33.3306 60.9497 34.5783 57.7857 34.583V34.5877ZM58.3836 31.8804C59.5937 32.0028 60.8932 32.0264 61.7501 31.9463C64.9189 31.6497 66.8822 30.5197 67.4143 29.5403C65.2579 29.7899 62.0138 29.8793 59.137 29.5027C58.7838 30.2089 58.572 31.0188 58.3836 31.8804ZM58.9016 29.1072C56.8016 29.9076 56.7592 32.4737 55.5445 35.0727C54.3297 37.6717 53.9813 37.3139 53.2138 37.9919C52.743 38.9618 52.1686 39.8752 51.5 40.7133C53.1667 40.3837 54.7488 39.3761 55.9635 37.7094C58.3224 34.4606 57.4702 31.5791 58.9016 29.1119V29.1072ZM57.0512 36.6359C57.2866 36.1368 57.4702 35.633 57.6256 35.1292C59.1134 35.0727 60.5071 34.8985 61.6136 34.5877C61.1616 35.4258 59.6031 36.4334 57.0512 36.6312V36.6359ZM58.7556 26.7577C57.7998 28.2032 55.2431 28.3397 55.0784 27.4875C55.4786 27.2662 55.8599 27.0072 56.2272 26.72C57.1453 26.8519 58.0164 26.8754 58.7556 26.7577ZM56.8016 26.2256C59.2923 26.6164 61.025 25.4911 61.5806 24.5071C60.5871 24.799 59.3441 24.8743 58.0588 24.7849C57.7009 25.2981 57.2677 25.7925 56.8016 26.2256ZM58.4072 24.2293C60.9403 24.5542 63.6664 23.4618 64.4669 22.0493C63.0308 22.4684 61.0721 22.4448 59.2311 22.1105C59.0193 22.8403 58.7933 23.5324 58.4072 24.2246V24.2293ZM59.3677 21.6208C60.3329 21.8374 61.2369 21.9599 61.9667 21.8986C64.4339 21.6962 66.1101 20.6886 66.6845 19.6669C64.9377 19.8599 62.3387 19.8317 60.1634 19.2761C59.7914 20.1236 59.5701 20.8958 59.363 21.6208H59.3677ZM60.4365 18.7017C62.1409 18.9795 64.0337 19.1725 65.2437 19.1113C68.1676 18.9606 69.1941 17.8071 69.7685 16.7853C67.8098 17.0019 65.4791 17.0161 63.0261 16.7759C62.833 16.7571 62.64 16.7383 62.4517 16.7147C61.5618 17.2232 60.8649 17.8777 60.5259 18.5369C60.4977 18.5934 60.4694 18.6452 60.4412 18.7017H60.4365ZM62.979 16.0979C59.5231 15.5941 57.7574 17.4916 57.1265 20.3496C56.6321 22.5955 56.8252 24.1492 55.2431 25.3546C54.7205 25.7548 54.4003 25.6983 53.7647 25.4676C54.3533 25.8961 54.6311 26.7765 54.7864 27.0873C55.8646 26.5458 56.8958 25.4582 57.781 24.0692C58.8686 22.3648 58.7321 20.7404 59.7726 18.4615C60.2387 17.4445 61.5194 16.4511 62.9743 16.1026L62.979 16.0979ZM54.4804 35.2516C55.0689 32.921 55.0831 30.4726 54.5181 28.1372C55.4833 29.2484 56.1283 29.093 57.5832 29.0412C56.2837 29.7993 55.8599 31.4331 55.3609 33.1564C55.1678 33.8297 54.8712 34.5501 54.4757 35.2516H54.4804ZM59.0146 28.641C57.0276 28.5563 56.0954 29.1684 54.9606 27.8406C54.5416 27.3509 54.0566 25.849 52.8183 24.4788C54.9653 28.3115 55.2808 32.9398 53.6329 37.0455C54.6828 35.9202 55.4032 34.47 55.7752 33.2082C56.3732 31.1506 57.1124 29.0412 59.0146 28.6457V28.641ZM58.3789 27.737C59.6031 27.85 60.8131 27.883 61.8113 27.8453C64.9094 27.737 66.0724 27.0166 66.6044 26.0703C64.8765 26.3151 62.6353 26.268 60.4647 26.1315C60.2858 26.2256 60.0928 26.3151 59.895 26.3999C59.5183 26.8519 59.0051 27.3321 58.3789 27.7417V27.737ZM39.0087 54.7866C38.3071 53.3647 37.3184 52.3618 35.8729 51.6462C35.1808 51.3024 34.4462 51.0576 33.7117 50.8222C32.9584 50.5821 32.1956 50.3608 31.4564 50.083C30.9197 49.8805 30.397 49.6168 29.9027 49.3202C30.317 49.5038 30.7408 49.6592 31.1786 49.7675C31.9885 49.97 32.8171 50.1112 33.6317 50.2949C34.4086 50.4691 35.1902 50.6762 35.9153 51.0105C37.4596 51.7215 38.3966 52.8703 39.0087 54.4335V54.7866ZM26.6492 46.9001C26.6398 46.8154 26.6303 46.7306 26.6256 46.6459C26.5786 46.1892 26.4043 45.8078 26.2066 45.3981C26.1077 45.1957 25.9712 45.0215 25.8064 44.8661C25.5192 44.6024 25.1613 44.4094 24.8317 44.1975C24.521 43.995 24.2338 43.7832 23.9795 43.5148C23.9795 43.5525 23.9795 43.5854 23.9842 43.6231C23.9937 43.7926 24.0078 43.9621 24.0266 44.1269C24.0831 44.5742 24.2055 44.9932 24.408 45.3981C24.8223 46.2457 25.6934 46.8766 26.6492 46.8954V46.9001ZM25.2555 49.7016C25.5521 49.6875 25.8393 49.6404 26.1265 49.5651C26.4561 49.4803 26.781 49.372 27.1153 49.3155C27.4072 49.2684 27.6803 49.2731 27.9675 49.3485C28.283 49.4332 28.5937 49.5368 28.8951 49.6545C29.074 49.7251 29.2623 49.8099 29.4554 49.8287C29.4742 49.8287 29.4883 49.8287 29.5072 49.8287C29.267 50.1301 28.9139 50.3608 28.5608 50.4973C28.0805 50.6856 27.5438 50.7327 27.0447 50.6009C26.5974 50.4832 26.183 50.2996 25.7875 50.0547C25.6369 49.9606 25.4862 49.8617 25.3403 49.7581C25.312 49.7393 25.2837 49.7157 25.2508 49.6969L25.2555 49.7016ZM30.2793 48.5104C30.2935 48.4492 30.3076 48.388 30.3217 48.3268C30.3594 48.1714 30.397 48.0254 30.4018 47.8653C30.4159 47.6017 30.3688 47.3286 30.3123 47.0696C30.2888 46.9707 30.2605 46.8766 30.2181 46.7824C30.0392 46.3634 29.6861 46.0102 29.38 45.6806C29.0787 45.3605 28.7868 45.0356 28.5702 44.6542C28.5655 44.6872 28.5561 44.7248 28.5514 44.7578C28.5184 44.9179 28.4902 45.078 28.4713 45.2381C28.4195 45.6618 28.4289 46.0714 28.5231 46.4858C28.7209 47.3898 29.5684 47.9972 30.284 48.5104H30.2793ZM34.4933 51.6509C34.2673 52.004 33.9001 52.31 33.5517 52.5172C33.1609 52.7479 32.6618 52.9268 32.2004 52.875C31.8001 52.8327 31.4282 52.7197 31.0656 52.5455C30.9244 52.4795 30.7878 52.4042 30.6513 52.3289C30.6278 52.3147 30.5995 52.3006 30.576 52.2865C30.8961 52.2206 31.1975 52.1076 31.4988 51.9757C31.8284 51.8345 32.1674 51.6697 32.5205 51.5991C32.6947 51.5614 32.8737 51.552 33.0526 51.5708C33.2927 51.5991 33.5328 51.632 33.773 51.6697C33.9283 51.6932 34.0884 51.7121 34.2485 51.698C34.3333 51.6885 34.4133 51.6744 34.4933 51.6509ZM34.6722 49.7628C33.9283 49.3861 32.8124 49.1696 32.3699 48.4445C32.1674 48.1102 32.0356 47.7617 31.9649 47.3804C31.9414 47.2391 31.9226 47.0932 31.9084 46.9472C31.9084 46.919 31.9037 46.8907 31.899 46.8577C32.2757 47.1826 32.723 47.4086 33.1609 47.6393C33.5752 47.8606 34.0696 48.1196 34.3191 48.5339C34.4462 48.7411 34.5734 48.9765 34.6299 49.2166C34.6628 49.3626 34.6675 49.5038 34.6675 49.6545C34.6675 49.6922 34.6675 49.7299 34.6675 49.7675L34.6722 49.7628ZM35.0113 51.5755C36.7581 52.2724 38.293 53.3506 39.2394 55.9496V54.0427C38.3071 51.6556 36.7957 50.7798 35.0772 50.3043C35.0395 49.8523 35.1902 49.5274 34.6487 48.5622C34.0507 47.4934 32.4593 47.2015 31.4658 46.0809C31.5647 46.6223 31.4658 47.4745 32.0685 48.5433C32.5676 49.4332 33.6976 49.7534 34.6016 50.1819C33.2927 49.8758 31.7248 49.7204 30.463 49.2496C30.5571 48.694 30.8349 48.4915 30.6278 47.2438C30.4159 45.9726 29.0034 45.191 28.4337 43.7408C28.3442 44.3246 27.9675 45.1674 28.1794 46.4387C28.3819 47.6676 29.5072 48.5245 30.3688 49.2072C29.1493 48.7364 27.9769 47.983 26.9741 47.1685C26.9458 46.6882 26.9976 46.4104 26.5173 45.2993C25.9806 44.0563 24.5587 43.9197 23.6217 42.5731C23.6829 43.1852 23.5181 44.1175 24.0549 45.3652C24.5822 46.5941 25.7546 47.3474 26.9411 47.3521C27.7745 48.1525 28.7256 48.9247 29.7237 49.5321C29.3989 49.4379 28.9987 49.2119 28.1464 48.9906C26.8469 48.6516 25.9759 49.5745 24.4033 49.4991C24.9495 49.8287 25.6604 50.535 26.9599 50.8693C28.1653 51.1847 29.4836 50.615 30.1051 49.7581C31.5506 50.5632 32.9725 50.8363 34.4886 51.3731C34.1826 51.3731 33.8153 51.2789 33.1185 51.2036C31.8943 51.0717 31.108 52.0464 29.6861 52.2112C30.2323 52.4513 30.995 53.0351 32.2145 53.1717C33.2833 53.2894 34.5122 52.4748 35.016 51.5755H35.0113ZM24.4362 24.4647C25.053 25.3499 25.5474 25.3828 26.3808 24.5824V7.12376C25.5663 7.07668 24.7423 6.99664 23.9089 6.88364V22.7179C24.1208 23.3064 24.295 23.8903 24.4362 24.4694V24.4647ZM31.3387 51.4578V50.535C31.8001 50.7092 32.271 50.8646 32.7607 51.0152C32.2427 51.0435 31.8001 51.2412 31.3387 51.4578ZM26.3808 48.9577V47.4981C26.5315 47.5216 26.6916 47.5358 26.8611 47.5405C27.3507 48.0066 27.8828 48.468 28.4384 48.8871C27.7839 48.694 26.9929 48.7788 26.3808 48.953V48.9577ZM31.3387 46.3069C31.5741 47.8418 31.5459 48.8776 33.0902 49.7016C32.5252 49.598 31.9555 49.4944 31.3811 49.3532L31.3387 49.3438V46.3069ZM31.3387 6.84126C30.5148 6.99664 29.6908 7.0908 28.8668 7.13318V22.0729C29.6013 21.2206 30.43 20.4485 31.3387 19.7799V13.4801L32.7041 14.4594L31.8237 17.1244L33.8247 15.6553V18.3062C34.6158 17.9389 35.4397 17.6376 36.2966 17.4116V17.0867L36.3437 17.1196L36.2966 16.9784V13.8567L37.7421 12.8209L36.2966 12.8303V5.1227C35.4633 5.55117 34.6393 5.89959 33.8247 6.18209V10.9752L33.2315 12.835L31.3387 12.8256V6.83655V6.84126ZM39.9974 6.31392L39.4983 7.88652L37.8504 7.8771L39.1876 8.83761L38.6697 10.4008L39.9974 9.42616L41.3252 10.4008L40.8073 8.83761L42.1444 7.8771L40.4965 7.88652L39.9974 6.31392ZM34.0837 11.7521L34.5828 13.32L36.2307 13.3106L34.8888 14.2711L35.4068 15.8343L34.079 14.8596L32.7512 15.8343L33.2692 14.2711L31.932 13.3106L33.5799 13.32L34.079 11.7521H34.0837ZM45.9111 11.7521L45.4121 13.32L43.7641 13.3106L45.1013 14.2711L44.5834 15.8343L45.9111 14.8596L47.2389 15.8343L46.721 14.2711L48.0582 13.3106L46.4102 13.32L45.9111 11.7521ZM39.9974 5.2875L40.7272 7.57577L43.1285 7.56164L41.1792 8.96474L41.9326 11.2436L39.9974 9.82166L38.0623 11.2436L38.8156 8.96474L36.8664 7.56635L39.2676 7.58048L39.9974 5.29221V5.2875ZM34.0837 10.7257L34.8135 13.0139L37.2148 13.0045L35.2655 14.4029L36.0188 16.6818L34.0837 15.2598L32.1486 16.6818L32.9019 14.4029L30.9526 13.0045L33.3539 13.0139L34.0837 10.7257ZM45.9111 10.7257L46.6409 13.0092L49.0422 12.9998L47.0929 14.3982L47.8463 16.6771L45.9111 15.2551L43.976 16.6771L44.7293 14.3982L42.7801 12.9998L45.1813 13.0092L45.9111 10.7257ZM41.2122 7.40156L43.6558 7.38743L41.377 9.02595L42.2574 11.6909L41.2075 10.9187V16.9925C40.3929 16.9266 39.5972 16.9266 38.7827 16.9925V10.9187L37.7327 11.6909L38.6132 9.02595L36.3343 7.38743L38.778 7.40156V3.63486C39.1782 3.36177 39.5831 3.06985 39.9927 2.75439C40.4023 3.06514 40.8073 3.35706 41.2075 3.63486V7.40156H41.2122ZM46.1701 6.18209C45.3556 5.89959 44.5316 5.55117 43.6982 5.1227V12.835L42.2527 12.8256L43.6982 13.8614V16.9831L43.6511 17.1244L43.6982 17.0914V17.4163C44.5551 17.6423 45.3838 17.9389 46.1701 18.3109V15.6553L48.1712 17.1244L47.2907 14.4594L48.6561 13.4801V19.7799C49.5648 20.4485 50.3982 21.2159 51.128 22.0681V7.13789C50.3041 7.09551 49.4801 7.00135 48.6561 6.84597V12.835L46.7634 12.8444L46.1701 10.9846V6.18209ZM39.9974 1.93043C34.1496 6.30451 29.0269 7.02489 22.3504 6.03613C22.1291 7.92419 21.7195 9.28491 20.8155 10.4008C19.935 11.4884 18.6167 12.3124 16.5733 13.1364C17.369 13.9603 18.0941 14.7702 18.7532 15.5612C18.3719 15.5282 17.9622 15.5282 17.5243 15.5612C16.6863 14.596 15.8011 13.6731 14.9206 12.7785C16.738 12.0911 18.8333 11.3801 20.0951 9.81695C21.1969 8.45153 21.3664 6.64351 21.5312 4.97204C24.6152 5.457 27.7039 5.76304 30.8067 5.18862C34.2626 4.54828 37.2336 2.88623 40.0021 0.767457C42.7707 2.88152 45.7369 4.54357 49.1976 5.18862C52.3004 5.76304 55.3891 5.457 58.4731 4.97204C58.6332 6.64822 58.8027 8.45623 59.9091 9.81695C61.171 11.3801 63.2709 12.0911 65.0836 12.7785C64.1985 13.6731 63.318 14.596 62.4799 15.5612C62.042 15.5282 61.6324 15.5282 61.251 15.5612C61.9102 14.7702 62.6353 13.9603 63.431 13.1364C61.3876 12.3077 60.0692 11.4884 59.1888 10.4008C58.2848 9.28491 57.8751 7.9289 57.6538 6.03613C50.9726 7.02489 45.8546 6.30451 40.0068 1.93043H39.9974ZM21.4982 36.8101C21.178 36.73 20.872 36.6359 20.5848 36.5229C18.4613 39.9364 15.7822 43.1899 16.6533 47.4557C18.3248 55.6059 29.0552 54.49 35.6375 59.1654C37.389 60.4084 38.7262 62.0281 40.0021 63.7373C41.2781 62.0328 42.6153 60.4132 44.3668 59.1654C50.9491 54.49 61.6795 55.6106 63.351 47.4557C64.222 43.1946 61.5429 39.9364 59.4195 36.5229C59.1276 36.6312 58.8262 36.7253 58.506 36.8101C60.5306 40.1012 63.2521 43.3265 62.4422 47.2721C61.4912 51.9051 56.957 53.3082 52.4134 54.7113C47.0223 56.3781 43.6087 57.5646 40.0068 62.1929C38.712 60.5309 37.502 59.3491 36.1836 58.4121C29.5401 53.6896 19.0922 54.7019 17.5714 47.2721C16.7616 43.3312 19.4877 40.1012 21.5076 36.8101H21.4982ZM53.6188 7.12376V24.5871C54.2403 25.1804 54.7252 25.4393 55.3279 24.766C55.4174 24.6672 55.4927 24.5683 55.5633 24.4694C55.7046 23.8903 55.8788 23.3064 56.0907 22.7179V6.88834C55.2526 7.00135 54.4333 7.08139 53.6188 7.12847V7.12376ZM58.5767 38.2555C59.4995 39.6681 60.4318 41.0711 61.0486 42.5402V49.0942C60.4741 50.276 59.6172 51.1471 58.5767 51.8298V38.2555ZM58.5767 10.8387C59.137 11.5685 59.9233 12.1617 61.0486 12.7267V14.7466C60.7472 15.0856 60.46 15.4199 60.1822 15.7542C59.5607 15.9284 59.0287 16.2062 58.572 16.5546V10.8434L58.5767 10.8387ZM21.4229 10.8387V16.5499C20.9662 16.2015 20.4341 15.9284 19.8126 15.7495C19.5395 15.4152 19.2476 15.0762 18.9463 14.7419V12.722C20.0716 12.157 20.8579 11.5638 21.4182 10.834L21.4229 10.8387ZM21.4229 38.2555V51.8298C20.3823 51.1471 19.5254 50.2713 18.951 49.0942V42.5402C19.5725 41.0711 20.5 39.6728 21.4229 38.2555ZM39.9974 23.0145C35.2561 23.0145 31.3905 26.8801 31.3905 31.6214C31.3905 36.3628 35.2561 40.2284 39.9974 40.2284C44.7388 40.2284 48.6043 36.3628 48.6043 31.6214C48.6043 26.8801 44.7388 23.0145 39.9974 23.0145ZM39.5501 29.0648C39.6208 29.0507 39.6961 29.0412 39.7714 29.0365L39.3665 24.3847C39.1687 24.4035 38.9145 24.4553 38.745 24.4694L39.5501 29.0695V29.0648ZM39.9974 30.6798C39.4795 30.6798 39.0605 31.1035 39.0605 31.6167C39.0605 32.1299 39.4842 32.5537 39.9974 32.5537C40.5106 32.5537 40.9344 32.1299 40.9344 31.6167C40.9344 31.1035 40.5106 30.6798 39.9974 30.6798ZM39.9974 29.5968C38.8862 29.5968 37.9775 30.5056 37.9775 31.6167C37.9775 32.7279 38.8862 33.6366 39.9974 33.6366C41.1086 33.6366 42.0173 32.7279 42.0173 31.6167C42.0173 30.5056 41.1086 29.5968 39.9974 29.5968ZM39.9974 30.1383C39.1829 30.1383 38.519 30.8022 38.519 31.6167C38.519 32.4313 39.1829 33.0952 39.9974 33.0952C40.812 33.0952 41.4759 32.4313 41.4759 31.6167C41.4759 30.8022 40.812 30.1383 39.9974 30.1383ZM39.7667 34.2016C39.6914 34.1969 39.616 34.1875 39.5454 34.1734L38.7356 38.7735C38.9286 38.8064 39.1876 38.8253 39.3571 38.8535L39.7714 34.2016H39.7667ZM39.1075 34.0557C39.0369 34.0321 38.9663 33.9992 38.9004 33.9709L36.9276 38.2085C37.1065 38.2932 37.3513 38.3733 37.5067 38.4439L39.1075 34.0557ZM40.4494 29.0648L41.2593 24.4647C41.0615 24.4317 40.8073 24.4129 40.6378 24.3847L40.2234 29.0365C40.2988 29.0412 40.3741 29.0507 40.4447 29.0648H40.4494ZM42.4364 32.5066C42.4128 32.5772 42.3799 32.6432 42.3516 32.7138L46.5844 34.6913C46.6692 34.5124 46.7492 34.2675 46.8199 34.1122L42.4317 32.5113L42.4364 32.5066ZM38.5143 33.7355C38.4531 33.6931 38.3966 33.646 38.3354 33.599L35.3314 37.1773C35.4821 37.3044 35.6987 37.4457 35.8305 37.5587L38.5143 33.7355ZM41.0992 29.2673L43.072 25.0344C42.8931 24.9497 42.6482 24.8696 42.4929 24.7943L40.892 29.1825C40.9626 29.2108 41.0286 29.239 41.0992 29.2673ZM41.0992 33.9662C41.0333 33.9992 40.9626 34.0274 40.892 34.051L42.4882 38.4392C42.6765 38.3685 42.9072 38.2555 43.0673 38.199L41.0992 33.9662ZM38.0199 33.2788C37.9728 33.2223 37.9257 33.1611 37.8834 33.0999L34.0555 35.7789C34.1685 35.939 34.338 36.1368 34.4368 36.2733L38.0199 33.2741V33.2788ZM41.6736 29.6298L44.6775 26.0514C44.5269 25.9243 44.3103 25.7831 44.1785 25.6701L41.4947 29.4933C41.5559 29.5356 41.6124 29.5827 41.6736 29.6298ZM38.5237 29.4933L35.8446 25.6653C35.6846 25.7783 35.4915 25.9478 35.3503 26.0467L38.3495 29.6298C38.406 29.5827 38.4672 29.5356 38.5284 29.4933H38.5237ZM37.6574 32.7091C37.6244 32.6432 37.5962 32.5725 37.5726 32.5019L33.1844 34.098C33.255 34.2864 33.368 34.5171 33.4245 34.6772L37.6574 32.7091ZM42.1303 30.1289L45.9582 27.4498C45.8452 27.285 45.671 27.092 45.5768 26.9554L41.9938 29.9547C42.0409 30.0112 42.0879 30.0724 42.1303 30.1336V30.1289ZM42.1303 33.1046C42.0879 33.1658 42.0409 33.2223 41.9938 33.2835L45.5721 36.2874C45.6993 36.1368 45.8405 35.9202 45.9535 35.7884L42.1303 33.1046ZM37.4549 32.064C37.4408 31.9934 37.4314 31.9181 37.4267 31.8427L32.7748 32.2524C32.7936 32.4501 32.8454 32.7044 32.8595 32.8739L37.4596 32.0687L37.4549 32.064ZM42.4458 30.7316L46.834 29.1354C46.7634 28.9471 46.6504 28.7164 46.5939 28.5563L42.3563 30.5244C42.3893 30.5903 42.4175 30.6609 42.4411 30.7316H42.4458ZM40.4588 34.1734C40.3882 34.1875 40.3129 34.1969 40.2375 34.2016L40.6425 38.8535C40.8402 38.8347 41.0945 38.7829 41.264 38.7688L40.4588 34.1687V34.1734ZM37.4267 31.3907C37.4314 31.3154 37.4408 31.2401 37.4549 31.1694L32.8548 30.3596C32.8219 30.5526 32.803 30.8116 32.7748 30.9811L37.4267 31.3954V31.3907ZM42.5917 31.3907L47.2436 30.9858C47.2248 30.7881 47.173 30.5338 47.1589 30.3643L42.5588 31.1694C42.5729 31.2401 42.5823 31.3154 42.587 31.3907H42.5917ZM39.1217 29.1778L37.5255 24.7896C37.3372 24.8602 37.1065 24.9732 36.9464 25.0297L38.9145 29.2673C38.9804 29.2343 39.051 29.206 39.1217 29.1825V29.1778ZM37.5726 30.7268C37.5962 30.6562 37.6291 30.5903 37.6574 30.5197L33.4245 28.5469C33.3398 28.7258 33.2597 28.9706 33.1891 29.126L37.5773 30.7268H37.5726ZM42.5635 32.0687L47.1636 32.8786C47.1965 32.6808 47.2154 32.4266 47.2436 32.2571L42.5917 31.8427C42.587 31.9181 42.5776 31.9934 42.5635 32.064V32.0687ZM41.6736 33.6037C41.6171 33.6508 41.5559 33.6978 41.4947 33.7402L44.1738 37.5681C44.3338 37.4551 44.5316 37.2809 44.6681 37.1867L41.6689 33.6037H41.6736ZM37.8881 30.1289C37.9304 30.0677 37.9775 30.0112 38.0246 29.95L34.4463 26.946C34.3191 27.0967 34.1779 27.3133 34.0649 27.4451L37.8881 30.1289ZM40.0068 23.5701C35.5763 23.5701 31.9602 27.1862 31.9602 31.6167C31.9602 36.0473 35.5763 39.6633 40.0068 39.6633C44.4374 39.6633 48.0535 36.0473 48.0535 31.6167C48.0535 27.1862 44.4374 23.5701 40.0068 23.5701ZM40.0068 21.0511C34.1873 21.0511 29.4412 25.7972 29.4412 31.6167C29.4412 37.4363 34.1873 42.1823 40.0068 42.1823C45.8264 42.1823 50.5724 37.4363 50.5724 31.6167C50.5724 25.7972 45.8264 21.0511 40.0068 21.0511ZM40.0068 22.5578C35.016 22.5578 30.9479 26.6259 30.9479 31.6167C30.9479 36.6076 35.016 40.6756 40.0068 40.6756C44.9977 40.6756 49.0658 36.6076 49.0658 31.6167C49.0658 26.6259 44.9977 22.5578 40.0068 22.5578ZM32.3322 40.5768L31.3623 41.8151L32.3416 42.5825L32.5817 42.2765L31.9838 41.8104L32.7136 40.8781L32.3322 40.5768ZM33.773 43.1523L33.707 43.4159L34.1449 43.6796L34.4463 42.027L33.9942 41.7539L32.6806 42.7991L33.1044 43.0534L33.3021 42.8698L33.7777 43.157L33.773 43.1523ZM33.8624 42.8085L34.0037 42.2341L33.5658 42.6296L33.8624 42.8085ZM35.1996 42.4083L34.611 43.8679L35.7646 44.3341L35.9106 43.9762L35.209 43.6937L35.6516 42.5967L35.1996 42.413V42.4083ZM37.6338 43.1805L37.4031 44.1128C37.3137 44.4753 36.791 44.3388 36.8805 43.9809L37.1112 43.0487L36.6404 42.931L36.4144 43.8397C36.2025 44.6825 37.4361 44.9603 37.7704 44.4471C37.8975 44.254 38.034 43.5666 38.1047 43.2935L37.6338 43.1758V43.1805ZM39.1829 43.4018L39.1264 44.9744L40.3694 45.0168L40.3835 44.6307L39.6255 44.6024L39.6678 43.4206L39.1829 43.4018ZM40.8214 43.3877L40.9579 44.9509L41.4429 44.9085L41.3064 43.3406L40.8214 43.383V43.3877ZM41.7584 43.3406L42.1397 44.8661L42.5823 44.7578L42.3752 43.9197L43.1567 44.6166L43.5993 44.5036L43.218 42.978L42.7754 43.091L42.9872 43.9338L42.2009 43.2323L41.7584 43.3406ZM43.5475 42.9027L43.6935 43.2605L44.1502 43.0769L44.5928 44.174L45.0448 43.9903L44.6022 42.8933L45.0636 42.7097L44.9177 42.3518L43.5475 42.9027ZM46.5939 42.9404L46.7916 43.124L47.2295 42.8603L45.9159 41.8151L45.4638 42.0882L45.7652 43.7408L46.1889 43.4865L46.1183 43.2229L46.5939 42.9404ZM46.3302 42.7002L45.8923 42.3047L46.0336 42.8792L46.3302 42.7002ZM47.2577 42.2577C47.366 42.3707 47.4979 42.4366 47.6391 42.4507C47.9781 42.4884 48.7833 41.8763 48.3689 41.3678C48.1335 41.0759 47.7898 41.2312 47.4649 41.396C46.9799 41.6409 47.2719 40.9393 47.5967 41.2265L47.9357 40.9158C47.5073 40.5014 46.9847 41.0429 46.8764 41.2501C46.7163 41.5608 46.8952 42.1399 47.6815 41.7492C48.3736 41.4007 48.0205 42.3424 47.592 41.9422L47.253 42.2577H47.2577ZM31.6683 20.7686L32.8925 22.7273L33.4999 22.3459L33.0479 21.6208C33.3539 21.4278 33.7306 21.2395 33.82 20.9099C33.933 20.4908 33.4905 19.6339 32.6806 20.1424L31.6777 20.7686H31.6683ZM32.7983 21.2253C32.9772 21.1123 33.2786 20.9617 33.1279 20.7215C32.9725 20.472 32.723 20.6698 32.5252 20.7922L32.7983 21.2301V21.2253ZM35.1054 20.0671C35.3456 20.811 35.9011 21.0606 36.6356 20.8251C37.9681 20.392 37.4455 18.9041 36.8099 18.5839C36.1742 18.2638 34.6675 18.7158 35.1054 20.0671ZM35.7834 19.8505C36.0424 20.6509 36.6404 20.3166 36.7392 20.0718C36.8287 19.8505 36.6686 18.8712 36.0377 19.0783C35.6987 19.1913 35.6751 19.5021 35.7881 19.8505H35.7834ZM38.825 17.9954L38.8674 20.3025L40.6943 20.2695L40.6848 19.6998L39.5737 19.7187L39.5454 17.9813L38.8345 17.9954H38.825ZM42.1915 18.1461L41.7913 20.4202L42.4929 20.5426L42.8931 18.2685L42.1915 18.1461ZM43.9148 20.1377C43.8395 20.359 43.8395 20.5709 43.9148 20.7686C44.0937 21.2348 45.4262 21.8845 45.8217 20.9993C46.0477 20.4955 45.6145 20.1518 45.1813 19.8364C44.5363 19.3702 45.6475 19.2761 45.4921 19.9023L46.123 20.1377C46.1936 19.907 46.1795 19.7093 46.0854 19.5492C45.8405 19.1348 44.687 18.6169 44.3668 19.342C44.0749 20.0012 45.0307 20.3731 45.1484 20.6274C45.3461 21.0747 44.3574 21.0511 44.5598 20.3731L43.9242 20.1377H43.9148ZM47.7992 20.439L46.4761 22.3271L47.06 22.7367L48.383 20.8487L47.7992 20.439ZM51.8249 25.1992C51.4576 24.5071 50.8267 24.1022 50.4123 24.3046C49.7956 24.6013 50.0828 25.9196 50.8267 26.5646C50.8455 26.381 50.8926 26.2162 50.9679 26.0844C50.8879 25.9808 50.8079 25.8537 50.7372 25.7218C50.1016 24.5165 50.7702 24.1916 51.4058 25.397C51.7072 25.9667 51.7637 26.5788 51.4152 26.4752C51.3729 26.5599 51.3634 26.6965 51.3776 26.8566C52.0697 26.9837 52.2816 26.0844 51.8154 25.1992H51.8249ZM27.5391 28.4527C27.9816 28.8623 28.702 28.3162 28.9939 27.4875C29.2859 26.6541 29.0599 25.8113 28.4525 25.8725C28.4101 26.0373 28.4007 26.1786 28.4337 26.268C28.7397 26.1644 28.7585 26.7718 28.5514 27.3462C28.3395 27.9536 27.9204 28.4197 27.7556 28.1043C27.6803 28.189 27.6003 28.3067 27.5344 28.4527H27.5391ZM27.4072 26.9743C27.2989 27.285 27.2613 27.5911 27.2848 27.85C27.4261 27.6947 27.5767 27.5769 27.7368 27.5157L28.0099 26.7389C27.911 26.607 27.8592 26.4281 27.8545 26.2209C27.6709 26.414 27.5108 26.6729 27.4072 26.979V26.9743ZM28.2547 29.8793C28.5325 29.4462 28.6549 28.8341 28.5561 28.3303C28.4242 28.4574 28.283 28.561 28.1417 28.6269L27.9769 29.4603C28.0852 29.5733 28.1794 29.7145 28.2547 29.8793ZM26.9034 28.8341C26.7151 29.8087 27.1765 30.6138 27.8027 30.3125C27.7698 30.1665 27.7321 30.0394 27.6803 29.9405C27.3743 30.1713 27.2283 29.578 27.3554 28.9188C27.4873 28.2502 27.8498 27.7464 28.0476 28.0854C28.1323 28.0101 28.2218 27.9065 28.3018 27.7794C27.831 27.2709 27.0918 27.8642 26.8987 28.8388L26.9034 28.8341ZM27.2377 32.1299C27.7792 32.403 28.3112 31.6921 28.3489 30.8116C28.3866 29.9453 27.9251 29.1731 27.3507 29.4085C27.3601 29.5686 27.3884 29.7051 27.4308 29.8087C27.7039 29.5639 27.9157 30.1571 27.8875 30.7881C27.8592 31.4237 27.5956 31.984 27.3507 31.7344C27.2989 31.8333 27.2613 31.9699 27.2377 32.1252V32.1299ZM26.6774 30.7457C26.6633 31.0753 26.7151 31.3813 26.8187 31.6261C26.9081 31.4425 27.0211 31.2919 27.153 31.1883L27.1953 30.3313C27.0729 30.2183 26.9741 30.0583 26.9034 29.8699C26.7763 30.1053 26.6916 30.4114 26.6774 30.7457ZM28.3395 33.3023C28.476 32.8127 28.4148 32.2006 28.1794 31.7486C28.0899 31.9087 27.9816 32.0405 27.8639 32.1441L27.9487 32.968C28.0852 33.0481 28.2171 33.1611 28.3395 33.2976V33.3023ZM26.7339 32.6714C26.8375 33.6555 27.5155 34.3099 28.0287 33.8485C27.9581 33.7167 27.8781 33.6037 27.8027 33.5236C27.572 33.8297 27.2613 33.2929 27.1953 32.629C27.1294 31.9699 27.3178 31.386 27.605 31.6309C27.6662 31.5367 27.718 31.4143 27.7604 31.2683C27.1436 30.9105 26.6398 31.7297 26.7339 32.6714ZM29.413 36.5746C29.4036 36.0614 29.1587 35.4917 28.8009 35.1198C28.7585 35.2987 28.6973 35.4541 28.6126 35.5812L28.9422 36.3581C29.0928 36.3957 29.2529 36.4664 29.413 36.5699V36.5746ZM27.685 36.3957C28.0711 37.3186 28.9233 37.7612 29.2812 37.1679C29.1729 37.0596 29.0646 36.9702 28.9657 36.9137C28.8433 37.2903 28.3819 36.8666 28.1135 36.2309C27.8545 35.6141 27.8734 35.0021 28.2171 35.1668C28.2453 35.0586 28.2642 34.9267 28.2642 34.7808C27.5814 34.6018 27.3036 35.487 27.685 36.4004V36.3957ZM28.0146 35.746C28.6408 35.8637 28.8998 34.9879 28.6973 34.1828C28.5043 33.4295 27.9816 32.9021 27.5344 33.0057C27.4637 33.0245 27.3978 33.0528 27.3366 33.0999C27.3931 33.2505 27.459 33.373 27.5249 33.4624C27.718 33.1705 28.0899 33.6743 28.2453 34.2911C28.4007 34.9032 28.3159 35.5106 28.0099 35.3458C27.9911 35.4541 27.9911 35.5953 28.0099 35.7507L28.0146 35.746ZM27.0682 34.5642C27.1483 34.8796 27.2895 35.1621 27.459 35.3693C27.492 35.1668 27.5579 34.9926 27.6521 34.8608L27.4449 34.0604C27.2942 33.9803 27.1483 33.8532 27.0258 33.6884C26.9788 33.9474 26.9882 34.2534 27.0682 34.5689V34.5642ZM28.5608 38.1237C28.9657 38.797 29.6202 39.1643 30.0204 38.943C30.4206 38.7217 30.4159 37.9919 30.011 37.3233C29.5542 36.5699 28.7397 36.165 28.3866 36.65C28.4854 36.7771 28.5843 36.8807 28.6738 36.9466C28.6879 36.8995 28.7114 36.8619 28.7491 36.843C29.1776 36.6076 30.2417 38.3733 29.8132 38.6087C29.5354 38.764 28.961 38.0248 28.7585 37.5116C28.5937 37.4787 28.4195 37.3939 28.2547 37.2715C28.2783 37.5352 28.3819 37.8365 28.5561 38.1284L28.5608 38.1237ZM28.1841 25.1992C27.7133 26.0891 27.9299 26.9837 28.622 26.8566C28.6408 26.6918 28.6267 26.5552 28.5843 26.4752C28.5325 26.4893 28.4902 26.4893 28.4478 26.4752C28.0099 26.2633 28.9704 24.4412 29.4083 24.653C29.6955 24.7943 29.3612 25.6559 29.0316 26.0891C29.107 26.2209 29.154 26.381 29.1729 26.5694C29.9215 25.9243 30.204 24.606 29.5872 24.3093C29.1776 24.1116 28.5419 24.5118 28.1747 25.2039L28.1841 25.1992ZM51.4482 38.1237C51.6224 37.8365 51.7213 37.5352 51.7495 37.2668C51.5847 37.3939 51.4105 37.474 51.2457 37.5069C51.1986 37.6293 51.1327 37.7659 51.0527 37.8977C50.3464 39.0701 49.6967 38.7075 50.4029 37.5399C50.7325 36.9937 51.2363 36.6076 51.3352 36.9419C51.4294 36.876 51.5282 36.7724 51.6224 36.6453C51.274 36.1603 50.4547 36.5652 49.998 37.3186C49.5931 37.9919 49.5884 38.717 49.9886 38.9383C50.3888 39.1595 51.0433 38.7923 51.4482 38.119V38.1237ZM52.9407 34.5642C53.0208 34.2487 53.0302 33.9427 52.9831 33.6837C52.856 33.8485 52.7147 33.9756 52.5641 34.0557L52.3569 34.8561C52.4558 34.9926 52.5217 35.1668 52.55 35.3646C52.7195 35.1574 52.856 34.8796 52.9407 34.5642ZM51.9944 35.746C52.0132 35.5906 52.0179 35.4541 51.9944 35.3411C51.6836 35.5058 51.5989 34.8985 51.7589 34.2864C51.9143 33.6696 52.2863 33.1705 52.4793 33.4577C52.5499 33.3682 52.6112 33.2458 52.6677 33.0952C52.6112 33.0481 52.5452 33.0198 52.4699 33.001C52.0226 32.8974 51.5 33.4247 51.3069 34.1781C51.0998 34.9785 51.3634 35.859 51.9897 35.7413L51.9944 35.746ZM52.324 36.3957C52.7053 35.4823 52.4275 34.6018 51.7448 34.7761C51.7448 34.9267 51.7589 35.0586 51.7919 35.1621C52.1356 35.0021 52.1544 35.6094 51.8955 36.2262C51.6271 36.8619 51.1657 37.2856 51.0433 36.9089C50.9444 36.9654 50.8361 37.0549 50.7278 37.1632C51.0809 37.7565 51.9332 37.3139 52.324 36.391V36.3957ZM50.596 36.5746C50.7514 36.4711 50.9114 36.4004 51.0668 36.3628L51.3964 35.5859C51.3164 35.4588 51.2504 35.2987 51.2081 35.1245C50.8502 35.4917 50.6054 36.0661 50.596 36.5794V36.5746ZM53.275 32.6714C53.3739 31.7297 52.8701 30.9152 52.2486 31.2683C52.291 31.4096 52.3475 31.5367 52.404 31.6309C52.6912 31.386 52.8795 31.9699 52.8136 32.629C52.743 33.2976 52.4322 33.8297 52.2062 33.5236C52.1309 33.6037 52.0509 33.7167 51.9802 33.8485C52.4982 34.3099 53.1762 33.6555 53.275 32.6714ZM51.6695 33.3023C51.7919 33.1611 51.9237 33.0481 52.0603 32.9727L52.145 32.1488C52.0273 32.0452 51.9237 31.9087 51.8296 31.7533C51.5942 32.2053 51.5329 32.8174 51.6695 33.307V33.3023ZM53.3315 30.7457C53.3174 30.4114 53.2327 30.1053 53.1055 29.8699C53.0349 30.063 52.936 30.2183 52.8136 30.3313L52.856 31.1883C52.9878 31.2919 53.1008 31.4425 53.1903 31.6261C53.2939 31.3813 53.3457 31.0753 53.3315 30.7457ZM52.7712 32.1299C52.7477 31.9746 52.71 31.838 52.6582 31.7392C52.4087 31.9887 52.1497 31.4331 52.1215 30.7928C52.0932 30.1618 52.3051 29.5686 52.5782 29.8134C52.6206 29.7098 52.6441 29.5733 52.6582 29.4132C52.0838 29.1778 51.6224 29.95 51.6601 30.8163C51.6977 31.6921 52.2298 32.403 52.7712 32.1347V32.1299ZM53.1055 28.8341C52.9172 27.8594 52.1733 27.2615 51.7024 27.7747C51.7872 27.9018 51.8719 28.0101 51.9567 28.0807C52.1544 27.7417 52.517 28.2455 52.6488 28.9141C52.776 29.5733 52.6347 30.1666 52.324 29.9358C52.2722 30.0347 52.2298 30.1618 52.2015 30.3078C52.8277 30.6091 53.2939 29.804 53.1008 28.8294L53.1055 28.8341ZM51.7542 29.8793C51.8296 29.7145 51.9237 29.5733 52.032 29.4603L51.8672 28.6269C51.726 28.561 51.5847 28.4574 51.4529 28.3303C51.354 28.8341 51.4764 29.4462 51.7542 29.8793ZM52.6017 26.9743C52.4935 26.6682 52.3334 26.4093 52.1544 26.2162C52.1497 26.4234 52.0932 26.6023 51.9991 26.7341L52.2722 27.511C52.4322 27.5769 52.5829 27.6899 52.7242 27.8453C52.7477 27.5864 52.71 27.2803 52.6017 26.9696V26.9743ZM52.4699 28.4527C52.3993 28.3067 52.3239 28.189 52.2486 28.1043C52.0838 28.4197 51.6695 27.9489 51.4529 27.3462C51.2504 26.7718 51.2646 26.1644 51.5706 26.268C51.6036 26.1833 51.5989 26.042 51.5518 25.8725C50.9491 25.8113 50.7184 26.6541 51.0103 27.4875C51.3022 28.3209 52.0226 28.8623 52.4652 28.4527H52.4699ZM40.0021 20.7074C33.9848 20.7074 29.0834 25.6136 29.0834 31.6261C29.0834 37.6387 33.9895 42.5449 40.0021 42.5449C46.0147 42.5449 50.9209 37.6387 50.9209 31.6261C50.9209 25.6136 46.0147 20.7074 40.0021 20.7074Z" fill="white"/>
<path fill-rule="evenodd" clip-rule="evenodd" d="M35.2656 69.8535C36.8005 70.2348 38.4249 70.4326 40.0022 70.4326C41.5842 70.4326 43.2086 70.2348 44.7388 69.8535C49.5131 68.4174 50.6667 66.0726 55.5963 64.34C59.2124 63.0357 62.1692 62.8097 65.5875 62.7815V58.2191C56.5427 58.3368 53.793 60.4226 49.0752 63.5019C46.5045 65.4794 43.0956 65.6677 40.0069 65.6677C36.9182 65.6677 33.5094 65.4747 30.9386 63.5019C26.2208 60.4226 23.4664 58.3368 14.4263 58.2191V62.7815C17.8446 62.8144 20.7967 63.0404 24.4175 64.34C29.3472 66.0773 30.496 68.4174 35.275 69.8535H35.2656ZM13.6683 57.5034V61.0535C10.6549 61.077 8.12651 60.5685 5.96066 59.6692C7.60859 59.302 9.25181 58.9394 10.8997 58.5722C9.73678 57.4281 8.5691 56.2839 7.40613 55.1351C10.5749 56.0768 13.8849 57.0043 19.9963 55.8272C17.887 56.3875 15.7823 56.9431 13.673 57.5034H13.6683ZM13.7624 61.708H13.673C10.9421 61.7315 8.23951 61.3266 5.70641 60.2719L3.79481 59.4762L5.8147 59.0289C7.06713 58.7511 8.32426 58.4733 9.57669 58.1908C8.69622 57.3292 7.82047 56.4628 6.94 55.6012L5.06136 53.7555L7.58505 54.5089C9.28006 55.0127 10.8856 55.4458 12.656 55.6295C15.0714 55.8743 17.4868 55.6483 19.8645 55.1869L21.4512 54.9091V58.2379C21.6019 58.2709 21.7478 58.3038 21.8938 58.3368C23.7065 58.7605 25.3545 59.3915 26.9883 60.2766C28.4714 61.0771 29.8745 62.0328 31.2823 62.951L31.32 62.9792C33.7683 64.8626 37.0359 65.0085 39.9928 65.0085C42.9497 65.0085 46.2126 64.8579 48.6609 62.9792L48.6986 62.951C50.1064 62.0328 51.5095 61.0771 52.9926 60.2766C54.6311 59.3915 56.2744 58.7558 58.0871 58.3368C58.233 58.3038 58.379 58.2709 58.525 58.2379V54.9091L60.1211 55.1869C62.4988 55.6436 64.9142 55.8743 67.3296 55.6295C69.1 55.4505 70.7055 55.0174 72.4005 54.5089L74.9242 53.7555L73.0456 55.6012C72.1651 56.4628 71.2894 57.3292 70.4089 58.1908C71.6613 58.4686 72.9185 58.7464 74.1709 59.0289L76.1908 59.4762L74.2792 60.2719C71.7461 61.3266 69.0482 61.7268 66.3126 61.708H66.2232V63.4265H65.5734C64.3775 63.4454 63.1862 63.4783 61.995 63.5913C59.8433 63.7891 57.8328 64.2317 55.7941 64.9568C54.7018 65.3476 53.6612 65.8184 52.6536 66.3881C51.8108 66.8636 51.0104 67.4004 50.2006 67.923C49.4472 68.4127 48.6939 68.8788 47.8934 69.2885C46.9329 69.7781 45.9395 70.1689 44.9083 70.4797H44.8942L44.8801 70.4891C43.2934 70.8846 41.6596 71.0871 40.0399 71.0871H39.9363C38.3166 71.0871 36.6781 70.8846 35.0914 70.4891H35.0772L35.0631 70.4797C34.032 70.1689 33.0385 69.7781 32.078 69.2885C31.2776 68.8788 30.5243 68.4127 29.7709 67.923C28.9611 67.3957 28.1606 66.8636 27.3178 66.3881C26.3103 65.8184 25.2697 65.3476 24.1774 64.9568C22.1433 64.2317 20.1282 63.7891 17.9764 63.5913C16.7852 63.483 15.594 63.4454 14.3981 63.4359H13.7483V61.708H13.7624ZM66.3362 57.5034C64.2268 56.9431 62.1222 56.3875 60.0128 55.8272C66.1196 57.0043 69.4343 56.0768 72.603 55.1351C71.44 56.2792 70.2724 57.4233 69.1094 58.5722C70.7573 58.9394 72.4005 59.302 74.0485 59.6692C71.8826 60.5685 69.3542 61.077 66.3409 61.0535V57.5034H66.3362Z" fill="#22409A"/>
<path fill-rule="evenodd" clip-rule="evenodd" d="M16.1543 59.189L17.1242 59.2832C17.3455 59.302 17.5103 59.3349 17.6186 59.382C17.7693 59.4432 17.8917 59.5374 17.9906 59.6645C18.0894 59.7917 18.1601 59.9423 18.2024 60.1165C18.2448 60.2907 18.2542 60.5026 18.2307 60.7475C18.2118 60.964 18.1648 61.1477 18.0941 61.303C18.0094 61.4914 17.9011 61.6373 17.7693 61.7409C17.6704 61.821 17.5386 61.8822 17.3738 61.9151C17.2513 61.9434 17.096 61.9434 16.8982 61.9246L15.8953 61.8304L16.1496 59.189H16.1543ZM16.644 59.6881L16.4745 61.4349L16.87 61.4725C17.0159 61.4867 17.1242 61.4867 17.1948 61.4773C17.2843 61.4631 17.3596 61.4349 17.4208 61.3878C17.4821 61.3407 17.5386 61.2607 17.5856 61.1477C17.6327 61.0347 17.6657 60.8746 17.6845 60.6674C17.7033 60.465 17.7033 60.3049 17.6751 60.1919C17.6516 60.0789 17.6092 59.9894 17.548 59.9235C17.4915 59.8576 17.4114 59.8058 17.3125 59.7775C17.2419 59.754 17.096 59.7305 16.8794 59.7116L16.6393 59.6881H16.644ZM19.4407 59.5515L19.2948 60.5215C19.4878 60.352 19.695 60.286 19.921 60.319C20.0387 60.3378 20.1376 60.3755 20.227 60.432C20.3118 60.4885 20.3777 60.5544 20.4154 60.6297C20.453 60.7051 20.4766 60.7804 20.4813 60.8652C20.486 60.9499 20.4813 61.077 20.453 61.2465L20.2882 62.3624L19.7844 62.2871L19.9351 61.2842C19.9634 61.0865 19.9728 60.9593 19.9634 60.9028C19.9539 60.8463 19.9257 60.7993 19.8786 60.7616C19.8362 60.7239 19.775 60.6957 19.6997 60.6862C19.6149 60.6721 19.5396 60.6862 19.4643 60.7145C19.3937 60.7427 19.3324 60.7992 19.2901 60.8746C19.2477 60.9499 19.2147 61.0676 19.1912 61.2277L19.0499 62.1788L18.5461 62.1035L18.9369 59.4809L19.4407 59.5562V59.5515ZM21.4606 61.2465L21.0322 61.0629C21.1263 60.8934 21.244 60.7757 21.39 60.7192C21.536 60.6627 21.729 60.658 21.9691 60.7192C22.1904 60.771 22.3505 60.8369 22.4447 60.9122C22.5388 60.9876 22.6001 61.0723 22.6236 61.1665C22.6471 61.256 22.6377 61.4113 22.5859 61.6232L22.4447 62.1976C22.407 62.3624 22.3882 62.4848 22.3835 62.5649C22.3835 62.6449 22.3929 62.7391 22.4117 62.838L21.922 62.725C21.9173 62.6873 21.9126 62.6355 21.9079 62.5696C21.9079 62.5366 21.9079 62.5178 21.9079 62.5084C21.8043 62.5696 21.7008 62.612 21.5925 62.6308C21.4889 62.6496 21.3806 62.6449 21.2723 62.6214C21.0792 62.579 20.9427 62.4896 20.8532 62.3577C20.7685 62.2259 20.7402 62.0846 20.7779 61.9246C20.8015 61.821 20.8485 61.7315 20.9192 61.6609C20.9898 61.5903 21.0745 61.5432 21.1734 61.5196C21.2723 61.4961 21.4135 61.4914 21.5925 61.4961C21.8326 61.5055 22.0021 61.5055 22.101 61.4867L22.1104 61.4349C22.1339 61.3407 22.1245 61.2654 22.0868 61.2136C22.0492 61.1618 21.9644 61.1194 21.8326 61.0912C21.7431 61.0723 21.6725 61.0723 21.616 61.0912C21.5595 61.1147 21.503 61.1665 21.4512 61.2465H21.4606ZM22.0303 61.8021C21.9644 61.8068 21.8561 61.8116 21.7102 61.8068C21.5642 61.8068 21.47 61.8116 21.423 61.8304C21.3476 61.8633 21.3005 61.9104 21.2864 61.9811C21.2723 62.0517 21.2864 62.1176 21.3241 62.1788C21.3618 62.24 21.423 62.2824 21.503 62.3012C21.5925 62.3201 21.6819 62.3106 21.7808 62.273C21.8514 62.24 21.9032 62.1976 21.9362 62.1364C21.9597 62.0988 21.9833 62.0187 22.0115 61.901L22.035 61.8021H22.0303ZM23.2545 63.0922L22.7696 62.9369L23.3534 61.1053L23.8007 61.2465L23.7159 61.5055C23.8336 61.4066 23.9278 61.3501 24.0032 61.3313C24.0785 61.3125 24.1538 61.3172 24.2292 61.3407C24.3374 61.3737 24.4363 61.4396 24.5211 61.5338L24.2386 61.9104C24.1727 61.8304 24.1067 61.7786 24.0361 61.7598C23.9702 61.7362 23.9043 61.7362 23.8431 61.7598C23.7819 61.7833 23.7254 61.8398 23.6689 61.9246C23.6124 62.014 23.5323 62.2118 23.4334 62.5272L23.2545 63.0922ZM24.9072 61.5855L24.1397 63.3465L24.6058 63.5489L24.9778 62.692C25.0531 62.5225 25.1143 62.4095 25.1708 62.3436C25.2273 62.2824 25.2932 62.2447 25.3686 62.2306C25.4439 62.2165 25.5145 62.2259 25.5852 62.2588C25.6464 62.2871 25.6887 62.3153 25.7123 62.3577C25.7358 62.3954 25.7452 62.4472 25.7405 62.5037C25.7358 62.5602 25.6935 62.6732 25.6228 62.8474L25.2038 63.8126L25.6699 64.0151L26.0372 63.1723C26.1078 63.0075 26.1737 62.8898 26.2349 62.8238C26.2914 62.7579 26.362 62.7203 26.4374 62.7014C26.5127 62.6873 26.5833 62.692 26.6493 62.7203C26.7387 62.7579 26.7905 62.8239 26.8046 62.9086C26.814 62.9745 26.7811 63.0922 26.7058 63.2664L26.2679 64.274L26.734 64.4765L27.2237 63.3512C27.299 63.1817 27.332 63.0546 27.332 62.9651C27.332 62.8427 27.299 62.7391 27.2331 62.6449C27.1672 62.5508 27.0683 62.4801 26.9412 62.4236C26.8376 62.3813 26.734 62.3624 26.6257 62.3671C26.5174 62.3766 26.3997 62.4095 26.282 62.4707C26.2679 62.353 26.2349 62.2541 26.169 62.1694C26.1078 62.0893 26.0183 62.0234 25.9053 61.9716C25.6935 61.8775 25.4722 61.8916 25.2367 62.0093L25.3403 61.7692L24.9119 61.5808L24.9072 61.5855ZM28.1606 63.822L27.8075 63.516C27.9488 63.3794 28.0947 63.3088 28.2501 63.2947C28.4055 63.2806 28.5891 63.3418 28.8057 63.4689C28.9987 63.5866 29.1306 63.6949 29.2012 63.7985C29.2671 63.9021 29.3001 64.0009 29.2954 64.0951C29.2954 64.1893 29.2342 64.3305 29.1212 64.5189L28.8104 65.0227C28.7257 65.1686 28.6644 65.2769 28.6409 65.357C28.6126 65.4323 28.5938 65.5218 28.5844 65.6253L28.1512 65.3664C28.1559 65.3334 28.1701 65.2816 28.1842 65.2157C28.1936 65.1875 28.1983 65.1639 28.1983 65.1545C28.0806 65.1827 27.9676 65.1922 27.8593 65.1733C27.751 65.1545 27.6521 65.1215 27.558 65.065C27.3885 64.9615 27.2849 64.839 27.2425 64.6884C27.2001 64.5377 27.219 64.3917 27.3037 64.2505C27.3602 64.1563 27.4308 64.0904 27.5203 64.0433C27.6098 63.9962 27.7039 63.9774 27.8075 63.9868C27.9111 63.9962 28.0476 64.0292 28.2124 64.0951C28.4384 64.1799 28.6032 64.2269 28.6974 64.2411L28.7257 64.1987C28.7774 64.1139 28.7916 64.0433 28.7727 63.9821C28.7539 63.9209 28.6833 63.855 28.5703 63.7891C28.4902 63.742 28.4243 63.7232 28.3631 63.7279C28.3019 63.7279 28.2313 63.7655 28.1606 63.8267V63.822ZM28.5326 64.5236C28.4667 64.5094 28.3631 64.4765 28.2266 64.4294C28.09 64.3823 27.9959 64.3588 27.9441 64.3635C27.864 64.3682 27.8028 64.4059 27.7651 64.4671C27.7275 64.5283 27.7181 64.5942 27.7369 64.6648C27.7557 64.7355 27.7981 64.792 27.8687 64.8343C27.9488 64.8814 28.0382 64.9002 28.1418 64.8908C28.2171 64.8814 28.2831 64.8579 28.3301 64.8108C28.3631 64.7825 28.4102 64.7119 28.4761 64.6083L28.5279 64.5236H28.5326ZM28.8952 65.8278L29.3236 66.0962L29.6532 65.5735L29.9875 65.4841L29.9357 66.4776L30.4018 66.7695L30.4536 65.3617L31.3812 65.1168L30.8491 64.7825L29.9875 65.0415L30.7361 63.8503L30.3077 63.5819L28.8952 65.8278ZM31.9226 66.9437L32.3228 67.2638C32.1769 67.3957 32.0168 67.4663 31.8473 67.4851C31.6778 67.4993 31.4989 67.4569 31.3153 67.3533C31.0233 67.1885 30.8633 66.9719 30.8303 66.7036C30.8068 66.487 30.8585 66.2657 30.9904 66.0303C31.1458 65.7525 31.3388 65.5735 31.5742 65.4982C31.8096 65.4229 32.0356 65.4464 32.2569 65.5688C32.5065 65.7101 32.6571 65.8984 32.7089 66.148C32.7607 66.3928 32.6901 66.6847 32.4924 67.0237L31.3859 66.4022C31.3153 66.534 31.2917 66.6565 31.32 66.7695C31.3482 66.8825 31.4094 66.9672 31.513 67.0237C31.5836 67.0614 31.6496 67.0755 31.7202 67.0661C31.7908 67.0567 31.8567 67.0143 31.9273 66.9437H31.9226ZM32.2004 66.5105C32.2711 66.3787 32.2899 66.2657 32.2663 66.1621C32.2428 66.0585 32.1816 65.9832 32.0921 65.9314C31.998 65.8796 31.8944 65.8702 31.7955 65.9031C31.6919 65.9408 31.6072 66.0161 31.5413 66.1385L32.2004 66.5105ZM32.9114 68.1161L33.1609 67.5793C33.2975 67.2827 33.4011 67.0943 33.4717 67.0143C33.5423 66.9343 33.6035 66.8872 33.6647 66.8683C33.7259 66.8542 33.7872 66.8589 33.8531 66.8919C33.919 66.9249 33.9802 66.9814 34.0367 67.0661L34.3663 66.7318C34.2957 66.6282 34.2062 66.5529 34.1026 66.5058C34.0273 66.4728 33.9519 66.4587 33.8766 66.4681C33.8013 66.4775 33.6977 66.5246 33.5706 66.6047L33.6836 66.3551L33.2551 66.1574L32.45 67.9042L32.9114 68.1161ZM35.4163 67.0143L35.2844 67.3957L34.9548 67.2827L34.7053 68.0219C34.6535 68.1726 34.63 68.2573 34.6252 68.2856C34.6252 68.3138 34.63 68.3374 34.6488 68.3609C34.6676 68.3844 34.6912 68.4033 34.7241 68.4127C34.7712 68.4268 34.8371 68.4362 34.936 68.4315L34.8512 68.8176C34.7241 68.827 34.5876 68.8082 34.4463 68.7611C34.3616 68.7329 34.2862 68.6905 34.2297 68.6387C34.1685 68.5869 34.1309 68.5304 34.1167 68.4739C34.0979 68.4174 34.0979 68.3468 34.1167 68.262C34.1262 68.2008 34.1591 68.0878 34.2156 67.9183L34.4887 67.1226L34.2674 67.0473L34.3992 66.6659L34.6205 66.7412L34.743 66.3787L35.3221 66.2563L35.1008 66.9013L35.4304 67.0143H35.4163ZM35.7788 67.7206C35.8306 67.6405 35.8824 67.584 35.9389 67.5605C35.9954 67.5369 36.0707 67.5322 36.1555 67.5511C36.2873 67.5793 36.3721 67.617 36.4097 67.6688C36.4474 67.7206 36.4568 67.7959 36.438 67.8901L36.4286 67.9419C36.3297 67.9607 36.1602 67.9701 35.92 67.9607C35.7411 67.9607 35.5999 67.9701 35.501 67.9936C35.4021 68.0172 35.3174 68.069 35.2467 68.1396C35.1761 68.2102 35.1337 68.2997 35.1102 68.408C35.0772 68.5681 35.1055 68.714 35.195 68.8412C35.2844 68.9683 35.4257 69.053 35.6187 69.0954C35.727 69.1189 35.8353 69.1189 35.9389 69.0954C36.0425 69.0719 36.146 69.0295 36.2496 68.9636C36.2496 68.973 36.2496 68.9918 36.2543 69.0248C36.259 69.0907 36.2638 69.1425 36.2732 69.1802L36.7676 69.2837C36.744 69.1849 36.7299 69.0954 36.7299 69.0154C36.7299 68.9353 36.7487 68.8082 36.7817 68.6434L36.9088 68.0643C36.9559 67.8477 36.9653 67.697 36.9371 67.6029C36.9088 67.5134 36.8476 67.4286 36.7487 67.3533C36.6498 67.278 36.4898 67.2168 36.2685 67.1697C36.0236 67.1179 35.8306 67.1226 35.6893 67.1838C35.5481 67.245 35.4304 67.3627 35.3409 67.5369L35.7741 67.7111L35.7788 67.7206ZM36.3626 68.262L36.3438 68.3609C36.3203 68.4786 36.2967 68.5587 36.2732 68.601C36.2402 68.6622 36.1884 68.7093 36.1178 68.7423C36.0236 68.7847 35.9342 68.7941 35.8447 68.7752C35.7647 68.7564 35.7035 68.7187 35.6611 68.6575C35.6187 68.5963 35.6046 68.5304 35.6234 68.4598C35.6375 68.3891 35.6846 68.3374 35.7553 68.3044C35.8023 68.2856 35.9012 68.2761 36.0425 68.2761C36.1884 68.2761 36.292 68.2761 36.3626 68.262ZM38.1801 69.4438L38.1612 66.793H38.9664L39.456 68.5916L39.9128 66.7789H40.7179L40.7367 69.425H40.2423L40.2235 67.3392L39.715 69.4297H39.1971L38.6603 67.3486L38.6744 69.4344H38.1801V69.4438ZM41.5089 68.0031L41.0428 67.9701C41.0757 67.7771 41.1511 67.6311 41.2688 67.5275C41.3865 67.4239 41.5701 67.3627 41.8149 67.3345C42.0409 67.3109 42.2104 67.3203 42.3281 67.3627C42.4459 67.4051 42.5306 67.4663 42.5824 67.5416C42.6342 67.6217 42.6719 67.7676 42.6954 67.9889L42.7472 68.5775C42.766 68.747 42.7849 68.8694 42.8084 68.9447C42.8319 69.0201 42.8696 69.1048 42.9261 69.1896L42.427 69.2414C42.4129 69.2084 42.3894 69.1613 42.3611 69.1001C42.3517 69.0719 42.3423 69.053 42.3376 69.0436C42.2622 69.1378 42.1728 69.2084 42.0786 69.2602C41.9844 69.312 41.8808 69.345 41.7726 69.3544C41.5748 69.3732 41.4147 69.3355 41.2923 69.2414C41.1699 69.1472 41.0993 69.0154 41.0804 68.8553C41.071 68.747 41.0851 68.6481 41.1275 68.5587C41.1699 68.4692 41.2358 68.3986 41.3253 68.3421C41.4147 68.2856 41.5418 68.2338 41.7161 68.182C41.9468 68.1114 42.1069 68.0549 42.1916 68.0078V67.956C42.1775 67.8571 42.1445 67.7912 42.0927 67.7535C42.0409 67.7159 41.9468 67.7064 41.8149 67.7206C41.7255 67.73 41.6548 67.7535 41.6078 67.7959C41.5607 67.8383 41.5277 67.9042 41.5042 67.9984L41.5089 68.0031ZM42.2293 68.3421C42.1681 68.3703 42.0692 68.408 41.9279 68.4504C41.7914 68.4927 41.7019 68.5351 41.6643 68.5681C41.6031 68.6199 41.5748 68.6858 41.5842 68.7564C41.5936 68.827 41.6219 68.8835 41.6831 68.9306C41.7396 68.9777 41.8102 68.9965 41.8903 68.9871C41.9797 68.9777 42.0645 68.94 42.1398 68.8694C42.1963 68.8176 42.2293 68.7564 42.2434 68.6905C42.2528 68.6481 42.2481 68.5634 42.2387 68.4409L42.2293 68.3421ZM43.7877 68.9918L43.6653 68.4127C43.5994 68.0925 43.5664 67.8806 43.5759 67.7724C43.5806 67.6641 43.6041 67.5887 43.6465 67.5416C43.6889 67.4946 43.7407 67.4616 43.8113 67.4475C43.8819 67.4333 43.9667 67.4475 44.0608 67.4804L44.122 67.0143C44.0043 66.9719 43.8866 66.9672 43.7736 66.9908C43.6936 67.0096 43.6277 67.0426 43.5712 67.0943C43.5147 67.1461 43.4629 67.245 43.4111 67.3863L43.3546 67.1179L42.8932 67.2168L43.2887 69.0954L43.783 68.9918H43.7877ZM44.7106 68.9071L45.285 68.7941C45.3133 68.8553 45.3509 68.8929 45.3933 68.9071C45.4498 68.9259 45.5298 68.9212 45.6287 68.8882C45.7558 68.8459 45.8406 68.7988 45.8924 68.7376C45.9253 68.6999 45.9442 68.6481 45.9489 68.5822C45.9489 68.5398 45.9348 68.4598 45.8971 68.3515L45.8123 68.0831C45.7323 68.3279 45.5816 68.488 45.3603 68.5634C45.1155 68.6434 44.8848 68.6057 44.6776 68.4456C44.5128 68.3185 44.3904 68.1349 44.3104 67.8901C44.2115 67.584 44.2068 67.3251 44.301 67.1179C44.3951 66.906 44.5505 66.7695 44.7718 66.6941C44.9978 66.6188 45.2144 66.6565 45.4263 66.8071L45.3415 66.5482L45.7935 66.4022L46.3303 68.0407C46.4009 68.2573 46.4338 68.4221 46.4338 68.5398C46.4338 68.6575 46.4103 68.7564 46.3679 68.8412C46.3256 68.9212 46.2549 68.9965 46.1561 69.0672C46.0619 69.1378 45.9301 69.199 45.7653 69.2508C45.4545 69.3544 45.2191 69.3732 45.0543 69.3073C44.8895 69.2414 44.7812 69.1284 44.7294 68.9683C44.7247 68.9542 44.72 68.9306 44.7106 68.9071ZM44.7953 67.697C44.8613 67.8901 44.9413 68.0172 45.0449 68.0831C45.1485 68.149 45.2568 68.1631 45.365 68.1255C45.4828 68.0878 45.5675 68.0078 45.6193 67.8901C45.6711 67.7724 45.6664 67.6217 45.6052 67.4428C45.544 67.2544 45.4592 67.1273 45.3509 67.0614C45.2426 66.9955 45.1296 66.9813 45.0119 67.019C44.8942 67.0567 44.8142 67.132 44.7718 67.2497C44.7247 67.3627 44.7341 67.5134 44.7953 67.697ZM46.6128 66.6423C46.6033 66.5482 46.6128 66.4728 46.641 66.4163C46.6693 66.3598 46.7258 66.3128 46.8058 66.2751C46.9282 66.2186 47.0177 66.195 47.0789 66.2139C47.1401 66.2327 47.1919 66.2845 47.2343 66.374L47.2578 66.4211C47.1919 66.4964 47.0601 66.6047 46.867 66.7459C46.7211 66.8542 46.6175 66.9484 46.5563 67.0284C46.4903 67.1085 46.4527 67.1979 46.4433 67.2968C46.4338 67.3957 46.4527 67.4946 46.4998 67.5934C46.5704 67.7394 46.6787 67.8383 46.8293 67.8854C46.98 67.9324 47.1401 67.9136 47.319 67.8288C47.4179 67.7818 47.5074 67.7159 47.5733 67.6358C47.6439 67.5558 47.7004 67.4569 47.7428 67.3439C47.7522 67.3486 47.7663 67.3674 47.7852 67.391C47.8322 67.4428 47.8652 67.4804 47.8934 67.504L48.3454 67.2874C48.2654 67.2262 48.1995 67.1603 48.1524 67.0943C48.1053 67.0284 48.0441 66.9201 47.9688 66.7695L47.7192 66.2327C47.6251 66.035 47.5356 65.9078 47.4603 65.8513C47.3849 65.7948 47.2861 65.7713 47.1589 65.7666C47.0365 65.7666 46.8717 65.8137 46.6693 65.9125C46.4433 66.0208 46.2926 66.1433 46.2173 66.2798C46.1419 66.4163 46.1231 66.5811 46.1561 66.7695L46.6034 66.6423H46.6128ZM47.4038 66.7177L47.4462 66.8071C47.4979 66.9154 47.5262 66.9955 47.5356 67.0378C47.545 67.1085 47.5356 67.1744 47.4979 67.2403C47.4509 67.3298 47.3849 67.3957 47.3002 67.4333C47.2249 67.471 47.1542 67.4757 47.0836 67.4522C47.013 67.4286 46.9612 67.3863 46.9329 67.3204C46.9 67.2544 46.9047 67.1885 46.9471 67.1179C46.9753 67.0755 47.0459 67.0049 47.1589 66.9201C47.2719 66.8307 47.3567 66.7648 47.4038 66.7177ZM49.5649 66.5388L48.1477 64.2976L49.0988 63.6949C49.3389 63.5442 49.5272 63.4548 49.6591 63.4265C49.7956 63.3983 49.9275 63.4124 50.0546 63.4736C50.1864 63.5348 50.2947 63.6337 50.3748 63.7655C50.4831 63.935 50.5207 64.1045 50.4925 64.274C50.4642 64.4482 50.3606 64.6083 50.1817 64.759C50.3136 64.7543 50.436 64.7637 50.5396 64.792C50.6478 64.8202 50.8079 64.8861 51.0245 64.9944L51.5754 65.2581L51.0339 65.6018L50.3983 65.3193C50.1723 65.2204 50.0216 65.1592 49.951 65.1404C49.8804 65.1215 49.8145 65.1215 49.758 65.1357C49.6968 65.1498 49.6167 65.1875 49.5131 65.2534L49.4237 65.3099L50.0169 66.2468L49.5649 66.534V66.5388ZM49.1977 64.9615L49.532 64.7496C49.7485 64.613 49.8757 64.5189 49.9228 64.4624C49.9651 64.4106 49.9887 64.3494 49.9887 64.2882C49.9887 64.2222 49.9698 64.1563 49.9275 64.0904C49.8804 64.0151 49.8192 63.968 49.7533 63.9444C49.6826 63.9256 49.6073 63.9303 49.5273 63.9633C49.4849 63.9821 49.3766 64.048 49.193 64.1657L48.8398 64.387L49.2024 64.9567L49.1977 64.9615ZM51.4718 63.7749C51.453 63.6808 51.4577 63.6054 51.4812 63.5489C51.5048 63.4924 51.5566 63.4406 51.6366 63.3936C51.7543 63.3276 51.8438 63.2994 51.905 63.3088C51.9662 63.3229 52.0227 63.37 52.0745 63.4548L52.098 63.4972C52.0368 63.5772 51.9191 63.6949 51.7355 63.855C51.5989 63.9727 51.5048 64.0763 51.4483 64.161C51.3918 64.2458 51.3588 64.34 51.3588 64.4388C51.3588 64.5377 51.3823 64.6366 51.4389 64.7307C51.5236 64.872 51.6413 64.9614 51.792 64.9944C51.9426 65.0321 52.1074 64.9944 52.2769 64.9002C52.3711 64.8437 52.4512 64.7731 52.5171 64.6837C52.583 64.5989 52.6301 64.4953 52.6583 64.3776C52.6677 64.3823 52.6819 64.3964 52.7054 64.42C52.7572 64.4671 52.7949 64.5 52.8231 64.5236L53.2563 64.2693C53.1715 64.2128 53.1009 64.1563 53.0491 64.0951C52.9926 64.0339 52.9267 63.9303 52.8419 63.7844L52.55 63.2711C52.437 63.0781 52.3429 62.9604 52.2628 62.9133C52.1828 62.8662 52.0792 62.8474 51.9568 62.8568C51.8344 62.8662 51.6743 62.9274 51.4765 63.0451C51.2599 63.1723 51.1234 63.3041 51.0575 63.4454C50.9916 63.5866 50.9868 63.7514 51.0386 63.9397L51.4765 63.7797L51.4718 63.7749ZM52.2675 63.7844L52.3193 63.8738C52.3805 63.9774 52.4182 64.0527 52.4276 64.0998C52.4464 64.1657 52.437 64.2364 52.4088 64.307C52.3664 64.4012 52.3052 64.4718 52.2299 64.5189C52.1592 64.5612 52.0886 64.5707 52.018 64.5518C51.9474 64.533 51.8909 64.4953 51.8579 64.4341C51.8202 64.3729 51.8202 64.3023 51.8579 64.2317C51.8814 64.1846 51.9474 64.114 52.0509 64.0151C52.1592 63.9162 52.2346 63.8409 52.2769 63.7938L52.2675 63.7844ZM53.5953 64.1045L52.47 61.7033L52.9314 61.4867L53.5294 62.7626L53.7789 61.8963L54.3439 61.6326L54.0473 62.5461L55.2008 63.3512L54.7065 63.5819L53.9013 63.0028L53.793 63.3324L54.052 63.8879L53.5906 64.1045H53.5953ZM55.1726 62.8003C55.2668 62.9604 55.4033 63.0734 55.5775 63.1299C55.7517 63.1911 55.9683 63.1817 56.2179 63.1111C56.4956 63.031 56.6887 62.9086 56.7923 62.7485C56.9006 62.5884 56.9288 62.4189 56.877 62.2494C56.8347 62.0941 56.7452 61.9858 56.6181 61.9293C56.4909 61.8728 56.2885 61.8539 56.0107 61.868C55.7329 61.8822 55.5681 61.8822 55.5116 61.8633C55.4739 61.8492 55.4457 61.8257 55.4363 61.788C55.4268 61.7456 55.4363 61.708 55.4645 61.675C55.5116 61.6232 55.5963 61.5761 55.7282 61.5432C55.8318 61.5149 55.9165 61.5102 55.9824 61.5338C56.0484 61.5573 56.1049 61.5997 56.1425 61.6703L56.5757 61.4537C56.4815 61.303 56.3638 61.2089 56.2179 61.1618C56.0719 61.1147 55.8694 61.1288 55.6199 61.1995C55.3562 61.2748 55.1726 61.3878 55.0784 61.5338C54.9843 61.6797 54.9607 61.8304 55.0031 61.9952C55.0549 62.1741 55.1679 62.2918 55.3421 62.3483C55.4692 62.3907 55.7423 62.3954 56.1614 62.3718C56.2508 62.3718 56.312 62.3718 56.345 62.3907C56.3732 62.4095 56.3968 62.4378 56.4062 62.4707C56.4203 62.5272 56.4109 62.5743 56.3779 62.6214C56.3261 62.6873 56.2367 62.7344 56.1143 62.7721C56.0013 62.805 55.9024 62.805 55.8271 62.7721C55.747 62.7438 55.6858 62.6826 55.6387 62.5931L55.1679 62.8097L55.1726 62.8003ZM56.8064 60.8934L57.3337 60.771L58.0918 61.9952L58.2236 60.5638L58.7368 60.4461L58.4967 62.4001L58.4543 62.7532C58.4355 62.8709 58.412 62.9651 58.3884 63.031C58.3649 63.0969 58.3272 63.1534 58.2848 63.2005C58.2425 63.2476 58.186 63.29 58.1153 63.3276C58.0447 63.3653 57.9647 63.3936 57.8705 63.4171C57.7763 63.4406 57.6774 63.4501 57.5833 63.4501L57.4514 63.0734C57.5315 63.0734 57.6068 63.064 57.668 63.0499C57.7857 63.0216 57.8611 62.9698 57.8987 62.8898C57.9364 62.8097 57.9599 62.7109 57.9647 62.6026L56.8158 60.8934H56.8064ZM59.6503 60.8934H59.1841C59.203 60.6957 59.2689 60.5403 59.3819 60.432C59.4902 60.3237 59.6691 60.2484 59.9186 60.206C60.1446 60.1683 60.3141 60.1683 60.4318 60.206C60.5496 60.239 60.639 60.2955 60.6955 60.3708C60.752 60.4461 60.7991 60.5921 60.8368 60.8087L60.9262 61.3925C60.9545 61.5573 60.9827 61.6797 61.011 61.7551C61.0392 61.8304 61.0816 61.9104 61.1428 61.9952L60.6437 62.0752C60.6249 62.0423 60.6013 61.9999 60.5731 61.9387C60.559 61.9104 60.5496 61.8916 60.5448 61.8822C60.4742 61.981 60.3942 62.0564 60.3 62.1176C60.2106 62.1741 60.1117 62.2118 59.9987 62.2306C59.8056 62.2636 59.6408 62.2306 59.5137 62.1458C59.3866 62.0611 59.3065 61.934 59.2783 61.7739C59.2595 61.6656 59.2689 61.5667 59.3065 61.4773C59.3442 61.3878 59.4054 61.3078 59.4902 61.2513C59.5749 61.19 59.7021 61.1288 59.8716 61.0676C60.0976 60.9876 60.2529 60.917 60.3377 60.8652L60.3283 60.8134C60.3141 60.7145 60.2765 60.6486 60.2247 60.6156C60.1682 60.5827 60.074 60.578 59.9422 60.5968C59.8527 60.6109 59.7868 60.6392 59.7397 60.6862C59.6926 60.7286 59.6644 60.7992 59.6503 60.8934ZM60.3895 61.19C60.3283 61.223 60.2294 61.2654 60.0976 61.3172C59.9657 61.369 59.8763 61.416 59.8386 61.449C59.7821 61.5055 59.7586 61.5714 59.768 61.642C59.7774 61.7127 59.8151 61.7692 59.8763 61.8116C59.9375 61.8539 60.0081 61.868 60.0881 61.8539C60.1776 61.8398 60.2576 61.7974 60.333 61.7221C60.3848 61.6656 60.4177 61.6044 60.4271 61.5385C60.4318 61.4914 60.4271 61.4113 60.4083 61.2889L60.3942 61.19H60.3895ZM61.5101 61.9669L61.3406 59.3208L61.8491 59.2879L61.9385 60.691L62.4894 59.9753L63.1156 59.9329L62.5082 60.6768L63.2898 61.8492L62.7437 61.8869L62.2022 61.0535L61.9856 61.3219L62.0233 61.934L61.5148 61.9669H61.5101ZM64.0385 60.5638L63.5865 60.4555C63.6477 60.2719 63.7465 60.1401 63.8784 60.0553C64.0102 59.9706 64.1985 59.9376 64.4481 59.9517C64.6741 59.9659 64.8436 59.9988 64.9472 60.06C65.0555 60.1212 65.1308 60.1919 65.1685 60.2766C65.2108 60.3614 65.225 60.512 65.2109 60.7333L65.1685 61.3266C65.1591 61.4961 65.1591 61.6185 65.1685 61.6985C65.1779 61.7786 65.2061 61.8681 65.2438 61.9622L64.74 61.934C64.7306 61.901 64.7165 61.8492 64.6976 61.7833C64.6929 61.7551 64.6882 61.7315 64.6835 61.7221C64.5941 61.8021 64.4952 61.8586 64.3963 61.8963C64.2974 61.934 64.1891 61.9481 64.0761 61.9434C63.8784 61.934 63.7277 61.8681 63.6194 61.7551C63.5111 61.642 63.464 61.5008 63.4735 61.3407C63.4782 61.2324 63.5111 61.1383 63.5676 61.0535C63.6241 60.9735 63.6995 60.9122 63.7983 60.8699C63.8925 60.8322 64.029 60.7992 64.208 60.7757C64.4481 60.7475 64.6129 60.7145 64.7071 60.6815V60.6297C64.7165 60.5309 64.6976 60.4602 64.6506 60.4132C64.6035 60.3661 64.514 60.3425 64.3822 60.3331C64.2927 60.3284 64.2221 60.3425 64.1656 60.3755C64.1138 60.4085 64.0667 60.4697 64.0338 60.5591L64.0385 60.5638ZM64.6929 61.0158C64.627 61.0347 64.5234 61.0535 64.3775 61.077C64.2362 61.1006 64.142 61.1241 64.095 61.1477C64.0243 61.19 63.9914 61.2465 63.9867 61.3219C63.9867 61.3925 64.0055 61.4537 64.0573 61.5102C64.1091 61.5667 64.175 61.595 64.2551 61.5997C64.3445 61.6044 64.434 61.5808 64.5234 61.5243C64.5893 61.482 64.6317 61.4302 64.6553 61.3643C64.6694 61.3219 64.6835 61.2418 64.6882 61.1194V61.0205L64.6929 61.0158Z" fill="#22409A"/>
</g>
<defs>
<clipPath id="clip0_1801_10306">
<rect width="80" height="71.0871" fill="white"/>
</clipPath>
</defs>
</svg>
