<svg width="61" height="60" viewBox="0 0 61 60" fill="none" xmlns="http://www.w3.org/2000/svg">
<g clip-path="url(#clip0_1801_11906)">
<g clip-path="url(#clip1_1801_11906)">
<path d="M32.2882 0C32.6504 0.253711 33.0951 0.261558 33.4952 0.392336C35.8487 1.19433 37.8232 2.83684 39.0403 5.0049C42.7805 11.4811 46.5391 17.952 50.2467 24.4399C53.6195 30.3407 50.5658 37.6721 44.0726 39.3906C43.231 39.6162 42.3637 39.7313 41.4924 39.7332C33.9569 39.7332 26.4214 39.7489 18.8873 39.7332C11.0484 39.7123 6.20172 31.2234 10.1368 24.4321C13.8414 18.037 17.535 11.6367 21.2177 5.23115C22.7557 2.56065 24.941 0.784673 27.9725 0.116393C28.0235 0.105931 28.0614 0.0405414 28.1032 0H32.2882ZM36.6614 33.7409C41.2387 33.7527 44.2727 29.1767 42.162 25.2769C40.1702 21.5968 38.0856 17.9533 35.878 14.4027C33.2376 10.1497 27.0256 10.2674 24.4584 14.5661C22.366 18.0658 20.3507 21.6112 18.3328 25.1592C17.7334 26.2049 17.4666 27.4082 17.5677 28.6092C17.7665 31.0456 19.0756 32.7091 21.3158 33.5565C23.6306 34.4327 25.7623 33.975 27.5932 32.2814C28.1346 31.7792 28.6133 31.209 29.1377 30.6872C29.8269 30.0007 30.6325 30.0007 31.3217 30.6872C31.7847 31.1476 32.2123 31.6445 32.6818 32.097C33.204 32.6198 33.8245 33.0342 34.5075 33.3164C35.1904 33.5985 35.9224 33.7428 36.6614 33.7409Z" fill="#0045E5"/>
<path d="M0 56.0779C0.261558 55.8987 0.245864 55.5848 0.338717 55.3298C1.20316 52.9653 2.08069 50.6022 2.89021 48.2168C3.15177 47.4321 3.70235 47.3353 4.35101 47.3353C4.99967 47.3353 5.51233 47.4726 5.78042 48.2011C6.69587 50.6859 7.5394 53.1994 8.36069 55.7195C8.41431 55.8843 8.46531 56.0504 8.51108 56.2178C8.60524 56.5683 8.91388 56.9489 8.30707 57.1712C7.72772 57.3831 7.17191 57.2588 6.96266 56.7605C6.75126 56.2366 6.56919 55.7014 6.41731 55.1572C6.31923 54.825 6.17799 54.6576 5.78958 54.6681C4.78868 54.6986 3.78605 54.6986 2.78166 54.6681C2.44295 54.6589 2.32132 54.808 2.23893 55.0827C2.09508 55.5613 1.94468 56.0386 1.79167 56.5147C1.54711 57.2758 0.932453 57.4942 0.245864 57.0626C0.160159 57.0007 0.0780697 56.9339 0 56.8626L0 56.0779ZM4.4164 48.9021L4.27647 48.8929C3.80653 50.2652 3.3366 51.6371 2.86667 53.0085C2.76859 53.2962 2.91767 53.3341 3.15569 53.3328C4.04499 53.3263 4.93559 53.3328 5.8942 53.3328L4.4164 48.9021Z" fill="#0045E5"/>
<path d="M54.511 60C54.218 59.5175 54.2808 59.1565 54.7385 58.7589C55.3257 58.2463 55.7704 57.5819 56.2006 56.928C56.3523 56.6979 56.406 56.5357 56.0999 56.3657C55.6736 56.1368 55.4957 55.6948 55.2957 55.2855C54.554 53.7401 53.9315 52.1404 53.4334 50.5003C53.3314 50.172 53.1313 49.8254 53.6204 49.6306C54.0742 49.4488 54.528 49.403 54.8615 49.8346C55.0029 50.0522 55.1097 50.2904 55.178 50.5408C55.7403 52.1324 56.2909 53.7266 57.0089 55.3796C57.4195 54.6734 57.6235 53.9829 57.8354 53.3042C58.1466 52.3115 58.4213 51.3059 58.6841 50.2962C58.8868 49.526 59.3969 49.284 60.1227 49.6567L60.3934 49.8006V50.9776C60.1802 51.0809 60.209 51.3072 60.1606 51.4811C59.2792 54.5792 58.1885 57.5715 55.9496 59.9974L54.511 60Z" fill="#0045E5"/>
<path d="M37.5413 52.2932C37.5413 51.009 37.5556 49.7247 37.5334 48.4405C37.5256 47.9174 37.7466 47.6218 38.2396 47.5041C39.6572 47.1667 41.0867 47.0921 42.4978 47.4884C43.9599 47.8991 44.7929 49.2042 44.6543 50.733C44.5 52.4331 43.4433 53.5108 41.6699 53.7161C41.0858 53.7782 40.4975 53.7926 39.911 53.7592C39.4349 53.7357 39.2453 53.8639 39.2767 54.37C39.3185 55.0644 39.2505 55.7654 39.2989 56.4624C39.3368 56.9934 39.1511 57.2275 38.6306 57.2209C38.1311 57.2131 37.6184 57.1896 37.5635 56.5396C37.5164 55.9772 37.5426 55.4097 37.5413 54.8395C37.5334 53.9907 37.5413 53.142 37.5413 52.2932ZM39.2558 50.5852C39.2558 51.0626 39.2558 51.5399 39.2558 52.0173C39.2558 52.2213 39.2479 52.4096 39.5448 52.4096C40.2601 52.4018 40.9833 52.4658 41.6778 52.2487C42.5187 51.9872 42.9594 51.3333 42.9346 50.4178C42.9097 49.5024 42.4795 48.9897 41.5862 48.7517C41.0291 48.6026 40.4694 48.6471 39.9057 48.6576C39.3826 48.6654 39.1825 48.8864 39.2518 49.4161C39.276 49.8054 39.2773 50.1958 39.2558 50.5852Z" fill="#0045E5"/>
<path d="M51.9741 53.8638C51.9741 54.451 51.9544 55.0408 51.9741 55.6267C51.9937 56.2126 51.7269 56.5906 51.2325 56.8168C49.7822 57.4772 48.2939 57.5792 46.8018 56.9881C45.8562 56.6128 45.4482 55.8817 45.4874 54.808C45.5214 53.8926 45.9883 53.2636 46.926 52.9261C47.7551 52.628 48.634 52.6332 49.4958 52.5247C49.7757 52.4893 50.2282 52.6554 50.3014 52.2134C50.3851 51.7151 50.2125 51.2496 49.726 51.0024C49.1955 50.7336 48.5863 50.664 48.0089 50.8062C47.5864 50.9043 47.1692 51.0233 46.7521 51.1423C46.5389 51.2038 46.3283 51.4261 46.123 51.1306C46.0203 51.0026 45.9592 50.8463 45.948 50.6827C45.9368 50.519 45.9759 50.3558 46.0602 50.2151C46.1345 50.1086 46.2308 50.0194 46.3427 49.9535C47.4766 49.199 49.9954 49.2761 51.0835 50.0843C51.7373 50.5747 51.9309 51.2731 51.9571 52.0369C51.9767 52.645 51.9571 53.2557 51.9571 53.8677L51.9741 53.8638ZM50.3276 54.7296C50.3276 54.4916 50.3276 54.2522 50.3276 54.0129C50.3341 53.8089 50.2949 53.6847 50.0425 53.7082C49.3075 53.7762 48.5647 53.7971 47.8506 54.0011C47.385 54.1319 47.1196 54.4484 47.1366 54.9598C47.1536 55.4711 47.4217 55.7719 47.8728 55.9223C48.2886 56.0566 48.7291 56.0968 49.1623 56.04C50.2805 55.9079 50.3276 55.853 50.3276 54.7296V54.7296Z" fill="#0045E5"/>
<path d="M34.9793 53.8299C34.9793 54.4171 34.9558 55.0069 34.9793 55.5915C35.0028 56.1761 34.7792 56.5645 34.2757 56.7999C32.8071 57.4865 31.2992 57.5846 29.79 56.9765C28.8641 56.6024 28.4561 55.8635 28.4914 54.8474C28.5241 53.8966 29.004 53.2623 29.9665 52.921C30.7761 52.6333 31.6327 52.6398 32.4697 52.5287C32.7626 52.4894 33.2439 52.7 33.3145 52.186C33.3851 51.6721 33.2138 51.2313 32.7142 50.9907C32.2613 50.7724 31.7538 50.6937 31.256 50.7645C30.7596 50.8253 30.273 50.9497 29.8083 51.1346C29.5467 51.2392 29.2852 51.4236 29.089 51.0443C28.9138 50.7043 28.8942 50.376 29.1871 50.0883C29.4277 49.8516 29.7429 49.7522 30.0568 49.6646C31.103 49.3717 32.1492 49.3141 33.2033 49.6463C34.3594 50.0112 34.8943 50.6729 34.961 51.8695C34.9976 52.5234 34.9675 53.1773 34.9675 53.8312L34.9793 53.8299ZM33.3328 54.7454C33.3328 54.4838 33.3328 54.2222 33.3328 53.9607C33.3328 53.7698 33.2661 53.69 33.0634 53.7083C32.3075 53.7776 31.5437 53.7907 30.8127 54.0209C30.609 54.0698 30.4296 54.1901 30.307 54.36C30.1844 54.5299 30.1267 54.738 30.1444 54.9468C30.1389 55.1555 30.201 55.3605 30.3214 55.5311C30.4418 55.7017 30.6141 55.8289 30.8127 55.8936C31.2439 56.0478 31.7054 56.098 32.1597 56.0401C33.2831 55.9145 33.3341 55.8557 33.3328 54.7441V54.7454Z" fill="#0045E5"/>
<path d="M12.9354 49.4148C13.5367 49.4169 14.1343 49.5082 14.7088 49.6855C14.9827 49.7631 15.229 49.9168 15.4189 50.1289C15.6805 50.4336 15.6805 50.7579 15.4778 51.0927C15.2502 51.4772 14.9952 51.2117 14.7559 51.1176C14.0392 50.8351 13.3173 50.6206 12.5326 50.8298C12.1076 50.9436 11.748 51.1202 11.7349 51.6328C11.727 52.1167 12.0658 52.3024 12.4633 52.4253C13.248 52.6686 14.0732 52.7889 14.8095 53.1878C15.5942 53.6102 15.9865 54.2432 15.9499 55.1495C15.9159 56.0257 15.4804 56.6089 14.7166 56.9908C14.243 57.2066 13.7293 57.3207 13.2088 57.3256C12.3129 57.3688 11.4249 57.306 10.6141 56.8613C10.2466 56.6599 10.0008 56.3801 10.0452 55.9237C10.0975 55.3796 10.3813 55.2109 10.8561 55.4738C11.6211 55.8988 12.4254 56.1015 13.3003 55.9655C13.7737 55.8923 14.2001 55.7484 14.2733 55.1808C14.3544 54.5492 13.9594 54.2785 13.4442 54.1137C12.6595 53.8613 11.829 53.7606 11.098 53.3513C10.8165 53.1978 10.5769 52.9777 10.4001 52.7102C10.2234 52.4427 10.1149 52.1359 10.0842 51.8168C10.0535 51.4976 10.1015 51.1758 10.2239 50.8795C10.3464 50.5832 10.5397 50.3214 10.7867 50.1171C11.0856 49.863 11.4406 49.6837 11.8225 49.594C12.2397 49.4854 12.6673 49.386 12.9354 49.4148Z" fill="#0045E5"/>
<path d="M17.2511 51.7008C17.2511 50.5238 17.2786 49.3468 17.238 48.1789C17.2223 47.7134 17.3544 47.4884 17.8161 47.4767C18.2777 47.4649 18.7721 47.4479 18.8793 48.0612C18.9158 48.3627 18.928 48.6667 18.9159 48.9702C18.9159 49.815 18.9159 49.815 19.7908 49.815C20.1832 49.815 20.5755 49.8438 20.9679 49.8084C21.4282 49.7666 21.5328 50.036 21.5485 50.3956C21.5642 50.7801 21.4583 51.1045 20.9992 51.1228C20.4761 51.1411 19.953 51.1542 19.4299 51.1228C19.0376 51.1005 18.8976 51.2274 18.9068 51.6328C18.9329 52.6097 18.9146 53.5945 18.9159 54.5675C18.9159 55.7445 19.4103 56.1368 20.6004 55.9328C20.9365 55.874 21.3589 55.5091 21.5341 56.1564C21.6557 56.6076 21.3615 57.0601 20.8005 57.2158C20.1246 57.3991 19.4107 57.3882 18.7407 57.1844C17.752 56.898 17.276 56.2689 17.259 55.2227C17.2393 54.0457 17.259 52.8687 17.259 51.6995L17.2511 51.7008Z" fill="#0045E5"/>
<path d="M22.8654 53.741C22.8654 52.8922 22.8746 52.0409 22.8654 51.1973C22.8504 51.0011 22.8904 50.8046 22.9809 50.63C23.0715 50.4553 23.209 50.3094 23.3781 50.2086C24.4518 49.5259 25.746 49.2798 26.9954 49.5207C27.1369 49.5351 27.2718 49.5881 27.3852 49.6739C27.4987 49.7597 27.5864 49.875 27.6388 50.0072C27.8167 50.4637 27.5303 50.8756 27.053 50.8272C26.3998 50.762 25.7403 50.8219 25.1096 51.0038C24.6806 51.1228 24.4845 51.3333 24.4962 51.8303C24.5355 53.3996 24.4818 54.9611 24.5263 56.5253C24.542 57.0706 24.3066 57.2223 23.858 57.2145C23.4095 57.2066 22.8864 57.1896 22.8693 56.5462C22.8458 55.6111 22.8693 54.676 22.8693 53.7423L22.8654 53.741Z" fill="#0045E5"/>
<path d="M36.6611 33.7409C35.9207 33.7419 35.1875 33.5962 34.5038 33.3123C33.8201 33.0283 33.1994 32.6118 32.6775 32.0866C32.208 31.6341 31.7804 31.1371 31.3174 30.6768C30.6282 29.9954 29.8226 29.9954 29.1334 30.6768C28.6103 31.1999 28.1304 31.7688 27.5889 32.271C25.758 33.9646 23.6302 34.4223 21.3115 33.5461C19.0713 32.6986 17.7622 31.0351 17.5634 28.5987C17.4623 27.3977 17.7291 26.1944 18.3285 25.1488C20.3464 21.606 22.3643 18.0606 24.4542 14.5557C27.0213 10.257 33.2333 10.1393 35.8738 14.3922C38.0813 17.9481 40.1659 21.5851 42.1577 25.2665C44.2724 29.1715 41.2409 33.7475 36.6611 33.7409ZM36.9501 30.8638C39.2636 30.8638 40.6838 28.4575 39.4349 26.2591C37.5081 22.8771 35.5638 19.5109 33.6021 16.1604C32.0537 13.5082 28.4063 13.5082 26.8448 16.1525C26.1399 17.3478 25.4546 18.5549 24.7628 19.7581C23.455 22.0336 22.1158 24.2922 20.8512 26.5926C20.0273 28.09 20.4013 29.6384 21.6843 30.5251C22.9672 31.4118 24.6372 31.2091 25.7633 30.0203C26.1817 29.5769 26.6107 29.1428 27.0357 28.7125C28.8483 26.8554 31.5437 26.8345 33.368 28.6667C33.7512 29.0512 34.1161 29.4514 34.498 29.8437C35.1139 30.4715 35.8332 30.8717 36.9501 30.852V30.8638Z" fill="#EAE702"/>
<path d="M36.9505 30.852C35.8349 30.8716 35.1196 30.4662 34.4984 29.8384C34.1165 29.4461 33.7516 29.0459 33.3684 28.6614C31.5375 26.8305 28.8487 26.8501 27.0361 28.7072C26.6111 29.1427 26.1822 29.5769 25.7637 30.015C24.6377 31.2038 22.9755 31.4117 21.6847 30.5198C20.3939 29.6279 20.0277 28.0847 20.8516 26.5873C22.1162 24.2869 23.4554 22.0283 24.7632 19.7528C25.455 18.5496 26.1403 17.3425 26.8452 16.1472C28.4067 13.5029 32.0541 13.5029 33.6025 16.155C35.5607 19.5091 37.5032 22.8731 39.43 26.2472C40.6842 28.4456 39.264 30.8533 36.9505 30.852Z" fill="#0045E5"/>
</g>
</g>
<defs>
<clipPath id="clip0_1801_11906">
<rect width="60.3936" height="60" fill="white"/>
</clipPath>
<clipPath id="clip1_1801_11906">
<rect width="60.3936" height="60" fill="white"/>
</clipPath>
</defs>
</svg>
