<svg width="80" height="23" viewBox="0 0 80 23" fill="none" xmlns="http://www.w3.org/2000/svg">
<g clip-path="url(#clip0_1801_11945)">
<path d="M12.7197 20.6875C12.7315 13.7925 12.7221 6.89753 12.7245 0C13.7925 0.0127779 14.8582 0.0127779 15.9263 0.0153335C15.9145 6.88986 15.8956 13.7644 15.9357 20.6389C14.8653 20.7028 13.7925 20.6517 12.7197 20.6875Z" fill="#2093FD"/>
<path fill-rule="evenodd" clip-rule="evenodd" d="M0.0280057 20.7077C-0.0120758 14.1526 -0.00500259 7.59756 0.0232903 1.04248C0.757336 1.07406 1.49176 1.08168 2.2261 1.0893C3.33391 1.1008 4.44154 1.11229 5.54747 1.20604C5.79689 1.22705 6.05178 1.2362 6.30826 1.24541C7.20585 1.27763 8.12293 1.31055 8.8931 1.85516C11.5809 3.55207 11.8874 8.36424 9.30335 10.3346C10.5105 10.953 11.4795 12.19 11.687 13.6415C11.9417 15.341 11.7719 17.2219 10.8029 18.6428C9.93994 19.8312 8.58188 20.5697 7.18846 20.6285C5.89652 20.7018 4.60388 20.692 3.31131 20.6822C2.2167 20.6739 1.12207 20.6655 0.0280057 20.7077ZM3.35471 4.31883L3.35928 4.90987C3.37064 6.33821 3.38201 7.76655 3.34057 9.19489C3.63234 9.16082 3.93147 9.14016 4.23279 9.11936C5.21952 9.05124 6.22978 8.9815 7.0823 8.43333C7.72832 7.51076 7.77783 6.02085 7.07051 5.11873C6.2333 4.33819 5.08758 4.33327 4.01304 4.32866C3.78937 4.3277 3.56879 4.32676 3.35471 4.31883ZM3.37241 14.6925C3.37578 13.811 3.37914 12.9299 3.39496 12.0494C3.68251 12.0673 3.97149 12.0778 4.26083 12.0883C5.08652 12.1183 5.91511 12.1484 6.72173 12.3509C8.47117 12.7931 8.82483 15.6195 7.55166 16.813C6.71793 17.4515 5.71281 17.4672 4.7148 17.4827C4.25083 17.4899 3.78841 17.4971 3.34545 17.5669C3.3651 16.6086 3.36876 15.6504 3.37241 14.6925Z" fill="#2093FD"/>
<path fill-rule="evenodd" clip-rule="evenodd" d="M40.7367 9.73426C39.1853 7.4879 36.2146 7.07645 33.845 7.72812C31.2609 8.45902 29.4573 11.3162 29.5351 14.1733C29.462 16.3251 30.1599 18.6481 31.815 19.9566C33.4654 21.4542 35.8326 21.5334 37.8367 21.0018C39.6875 20.5061 41.0503 18.9114 41.9769 17.1838C41.5972 16.9448 41.2108 16.7179 40.8242 16.4909C40.2891 16.1767 39.7536 15.8622 39.2348 15.515C38.669 16.4018 38.0088 17.2758 37.094 17.7511C36.3136 18.1881 35.3799 18.0885 34.5759 17.7895C33.5857 17.3065 33.001 16.182 32.8878 15.0422C35.9128 15.0167 38.9377 15.0269 41.9627 15.0371C41.9816 13.2073 41.7977 11.2344 40.7367 9.73426ZM35.627 12.4225C34.8211 12.4209 34.015 12.4192 33.2084 12.433C33.746 9.70361 38.0795 9.64484 38.6076 12.3998C37.6142 12.4266 36.6208 12.4245 35.627 12.4225Z" fill="#2093FD"/>
<path d="M16.9094 7.82265C17.9798 7.81754 19.0526 7.82521 20.1253 7.81499C20.156 10.276 20.1324 12.7396 20.1348 15.2032C20.1654 16.0746 20.3092 17.125 21.0472 17.6336C21.9927 18.1753 23.1645 18.1856 24.1476 17.7588C24.9068 17.4623 25.3383 16.5551 25.3241 15.7118C25.3972 13.0591 25.3124 10.4064 25.3572 7.75365C26.4181 7.7511 27.4791 7.7741 28.5401 7.71276C28.6226 9.85946 28.5755 12.0087 28.5825 14.158C28.5377 16.0031 28.368 18.0373 27.2221 19.5042C25.7226 21.2139 23.3389 21.2242 21.3254 21.0018C19.866 20.8996 18.4183 20.023 17.7417 18.5919C17.0673 17.2349 17.1687 15.6479 17.0532 14.1605C17.0556 12.047 16.9259 9.93612 16.9094 7.82265Z" fill="#2093FD"/>
<path fill-rule="evenodd" clip-rule="evenodd" d="M47.0114 1.10536C46.0549 1.10153 45.0981 1.0977 44.1413 1.09131C44.124 4.77901 44.1263 8.46589 44.1285 12.1529C44.1303 14.9891 44.132 17.8253 44.1248 20.662C44.9811 20.615 45.8389 20.6268 46.697 20.6387C46.9116 20.6417 47.1262 20.6446 47.3408 20.6467C47.3219 17.7921 47.3172 14.9349 47.3361 12.0803C47.8002 12.0697 48.267 12.0827 48.7342 12.0957C49.843 12.1265 50.9542 12.1574 52.0374 11.8733C53.8481 11.329 54.9256 9.31519 55.1378 7.39083C55.2628 5.67859 54.8549 3.82323 53.7397 2.55311C52.7494 1.4312 51.2546 1.15009 49.8824 1.11942C48.9259 1.11303 47.9688 1.1092 47.0114 1.10536ZM47.5306 6.10789C47.5344 5.5091 47.5381 4.91032 47.5364 4.31153C47.5532 4.313 47.5701 4.31447 47.587 4.31594C48.5088 4.39622 49.439 4.47722 50.3373 4.7332C51.8109 5.07821 52.0608 7.50857 51.0069 8.4848C50.2343 8.90166 49.3663 8.98274 48.5071 9.06299C48.1812 9.09343 47.8565 9.12376 47.5387 9.17226C47.5179 8.1508 47.5243 7.12934 47.5306 6.10789Z" fill="#1B49A9"/>
<path d="M67.1314 5.63246C68.2726 5.62991 69.4161 5.66569 70.5596 5.64013C71.6206 7.9376 72.4057 10.368 73.3465 12.7217C74.4617 10.4063 75.4118 7.99894 76.5058 5.66824C77.6705 5.64524 78.8353 5.62735 80 5.65802C77.7153 10.943 75.4448 16.2382 73.1791 21.5308C72.9621 21.9652 72.8749 22.5453 72.4552 22.8086C71.34 22.8495 70.2224 22.829 69.1072 22.8571C69.8688 20.9813 70.727 19.1439 71.3895 17.2272C71.208 16.3762 70.8496 15.5865 70.562 14.7738C69.3642 11.7505 68.3245 8.65572 67.1314 5.63246Z" fill="#1B49A9"/>
<path fill-rule="evenodd" clip-rule="evenodd" d="M60.023 7.42394C58.1651 7.33194 56.3261 8.47174 55.4514 10.2479C54.3527 12.4457 54.3432 15.1239 55.0058 17.4751C55.7036 19.8492 57.9671 21.5538 60.2729 21.3391C61.3608 21.323 62.3152 20.7549 63.2441 20.202C63.348 20.1402 63.4515 20.0785 63.5549 20.0179C63.5632 20.1073 63.5761 20.2421 63.5891 20.3769C63.6021 20.5117 63.615 20.6466 63.6233 20.736C64.0032 20.7295 64.3835 20.7348 64.7637 20.7402C65.4264 20.7496 66.089 20.7589 66.7497 20.7053C66.7484 20.2631 66.7471 19.8209 66.7458 19.3787C66.7346 15.5454 66.7234 11.7124 66.7614 7.88139C66.0036 7.87024 65.2444 7.86991 64.4858 7.86957C64.2014 7.86944 63.917 7.86931 63.6327 7.86862L63.6327 7.87594C63.6303 8.20058 63.628 8.52271 63.628 8.84485C62.5529 8.07818 61.3551 7.33961 60.023 7.42394ZM58.1628 12.6091C58.368 11.7964 58.8961 11.0425 59.6246 10.7154C60.9308 10.1123 62.7368 10.6771 63.2626 12.1874C64.0289 14.1195 63.7224 16.8974 61.8126 17.8889C60.6667 18.3387 59.1814 18.0039 58.5165 16.8284C57.8563 15.5582 57.7738 13.9917 58.1628 12.6091Z" fill="#1B49A9"/>
</g>
<defs>
<clipPath id="clip0_1801_11945">
<rect width="80" height="22.8571" fill="white"/>
</clipPath>
</defs>
</svg>
