<svg width="80" height="23" viewBox="0 0 80 23" fill="none" xmlns="http://www.w3.org/2000/svg">
<g clip-path="url(#clip0_1801_11897)">
<g clip-path="url(#clip1_1801_11897)">
<path fill-rule="evenodd" clip-rule="evenodd" d="M31.6228 17.3487C33.1432 17.4576 34.915 16.2764 35.5391 15.6021C37.7087 13.2545 37.7611 9.85969 35.5768 7.40105C34.7642 6.48587 32.8542 5.47435 31.6459 5.61676H27.271V17.334L31.6333 17.3487H31.6228ZM29.738 14.8105V8.14032C30.4228 8.09539 31.1098 8.09539 31.7946 8.14032C32.3334 8.2028 32.8473 8.40175 33.2878 8.71833C35.8008 10.4356 34.7537 14.5298 31.7527 14.8042C31.082 14.8513 30.409 14.8534 29.738 14.8105Z" fill="#008CEB"/>
<path fill-rule="evenodd" clip-rule="evenodd" d="M70.0295 17.3696H72.5238V14.844H77.4725L77.4871 17.3571H79.9814V13.1937C79.9814 11.9372 80.0861 10.3707 79.772 9.23351C79.4866 8.19245 78.8686 7.2733 78.0122 6.61626C77.1557 5.95922 76.1079 5.60037 75.0285 5.59444C73.949 5.5885 72.8973 5.93582 72.0337 6.58341C71.1701 7.23099 70.542 8.14329 70.2452 9.18115C69.9102 10.3037 70.0232 11.9141 70.0232 13.1602C70.0232 14.5675 70.0086 15.9832 70.0232 17.3906L70.0295 17.3696ZM72.5259 12.3037C72.5112 11.2565 72.4002 10.1361 72.8924 9.32984C73.1084 8.95863 73.4189 8.65127 73.7922 8.43901C74.1656 8.22676 74.5886 8.11719 75.018 8.12146C75.4453 8.12461 75.8644 8.23858 76.2344 8.45222C76.6044 8.66586 76.9127 8.97186 77.129 9.34031C77.6149 10.178 77.4997 11.2251 77.4871 12.3058L72.5259 12.3037Z" fill="#008CEB"/>
<path fill-rule="evenodd" clip-rule="evenodd" d="M41.5055 17.3675H43.9914C43.9914 16.8397 43.9244 15.2251 44.0144 14.8418H48.9443L48.961 17.3654H51.4511C51.4385 15.9664 51.4511 14.5696 51.4511 13.1769C51.4511 11.9832 51.5621 10.2743 51.2416 9.21461C50.9545 8.17491 50.3356 7.25749 49.479 6.60198C48.6224 5.94647 47.5751 5.58877 46.4965 5.58332C45.4179 5.57786 44.3671 5.92496 43.5039 6.57177C42.6408 7.21859 42.0126 8.1297 41.715 9.16644C41.382 10.2554 41.4951 11.9204 41.4951 13.1329C41.4951 14.5319 41.4637 15.9664 41.4951 17.3612L41.5055 17.3675ZM43.9935 12.3036C43.9767 11.2565 43.8699 10.1214 44.3621 9.33189C44.578 8.96164 44.8873 8.65446 45.259 8.44098C45.6306 8.22749 46.0518 8.11515 46.4804 8.11515C46.909 8.11515 47.3302 8.22749 47.7018 8.44098C48.0735 8.65446 48.3828 8.96164 48.5987 9.33189C49.0867 10.1696 48.9694 11.2335 48.961 12.2994L43.9935 12.3036Z" fill="#008CEB"/>
<path fill-rule="evenodd" clip-rule="evenodd" d="M55.826 10.1927L55.7904 11.9372C55.7904 13.4032 55.7192 16.1404 55.7904 17.332H58.2281C58.2847 16.4943 58.1402 10.5445 58.2931 10.354C58.2931 9.19794 59.5014 8.1215 60.7203 8.11732C61.3538 8.1135 61.9639 8.35693 62.4208 8.79585C62.7307 9.07857 63.2061 9.7236 63.1978 10.3749C63.3108 10.4398 63.2208 16.6576 63.2564 17.3466H65.6962L65.6773 10.2367C65.7381 9.67962 65.403 8.81889 65.1873 8.38328C64.7873 7.5533 64.1628 6.85189 63.3847 6.3585C62.6066 5.86512 61.7059 5.59946 60.7846 5.59161C59.8632 5.58376 58.9581 5.83404 58.1717 6.31411C57.3853 6.79417 56.749 7.48484 56.3349 8.30789C56.1255 8.73721 55.7737 9.62098 55.826 10.1927Z" fill="#008CEB"/>
<path d="M11.4366 22.8733C17.7529 22.8733 22.8733 17.7529 22.8733 11.4366C22.8733 5.12036 17.7529 0 11.4366 0C5.12036 0 0 5.12036 0 11.4366C0 17.7529 5.12036 22.8733 11.4366 22.8733Z" fill="#008CEB"/>
<path d="M18.1005 11.4848V14.7037C18.1005 14.9131 18.0105 14.9571 17.8346 14.8545C17.5993 14.7132 17.3543 14.5887 17.1016 14.4817C16.3383 14.1776 15.5116 14.0675 14.6953 14.1613C13.8044 14.2768 12.9301 14.4961 12.0901 14.8147C11.2524 15.0974 10.4314 15.4031 9.57699 15.6398C8.86928 15.85 8.13277 15.9468 7.39479 15.9267C6.57693 15.895 5.78207 15.6471 5.09113 15.2084C5.00431 15.1561 4.93309 15.0815 4.88484 14.9924C4.8366 14.9033 4.8131 14.8029 4.81678 14.7016C4.81678 12.5934 4.81678 10.4852 4.81678 8.37697C4.81678 8.27435 4.81678 8.15289 4.90893 8.10053C5.00108 8.04817 5.09532 8.13404 5.1749 8.18639C5.9252 8.69372 6.81383 8.95702 7.7194 8.94032C8.3669 8.91376 9.00727 8.79457 9.62097 8.58639C10.4922 8.31624 11.3341 7.95812 12.1906 7.65446C12.8574 7.39822 13.541 7.18829 14.2367 7.02618C14.8337 6.88637 15.4532 6.87169 16.0562 6.98306C16.6592 7.09443 17.2326 7.32945 17.7403 7.6733C17.8567 7.74462 17.952 7.84565 18.0165 7.96601C18.0809 8.08637 18.1121 8.22171 18.1068 8.35812C18.1068 9.40524 18.1068 10.4524 18.1068 11.4995L18.1005 11.4848Z" fill="#FEFEFE"/>
</g>
</g>
<defs>
<clipPath id="clip0_1801_11897">
<rect width="80" height="22.8733" fill="white"/>
</clipPath>
<clipPath id="clip1_1801_11897">
<rect width="80" height="22.8733" fill="white"/>
</clipPath>
</defs>
</svg>
