<svg width="80" height="22" viewBox="0 0 80 22" fill="none" xmlns="http://www.w3.org/2000/svg">
<g clip-path="url(#clip0_1801_11836)">
<g clip-path="url(#clip1_1801_11836)">
<path d="M9.93229 21.3999C9.72111 21.3177 9.49493 21.3309 9.2759 21.3009C7.05949 20.9968 5.12499 20.09 3.47885 18.5832C1.79912 17.045 0.721459 15.1533 0.237656 12.9287C0.088299 12.2427 0.0193375 11.5463 0.00111449 10.8438C-0.00245865 10.6984 0.0636444 10.6998 0.170124 10.7001C1.59866 10.7023 3.0272 10.7044 4.45539 10.6976C4.60546 10.6969 4.65441 10.7373 4.67549 10.8834C4.81734 11.8528 5.17787 12.739 5.76315 13.5229C6.86689 15.0011 8.3376 15.8476 10.1842 16.0216C13.2803 16.3132 16.1545 14.1779 16.7413 11.0424C16.8052 10.7012 16.8081 10.7019 17.1593 10.7019C18.5046 10.7019 19.8495 10.7019 21.1948 10.7019C21.353 10.7019 21.4302 10.779 21.4263 10.9331C21.362 13.3589 20.5852 15.531 19.0531 17.4148C17.3808 19.4708 15.232 20.7464 12.6171 21.2273C12.2602 21.2931 11.9014 21.3424 11.5391 21.3649C11.5102 21.3667 11.4787 21.3627 11.468 21.4003H9.93229V21.3999Z" fill="#0079FA"/>
<path d="M80 5.92322C79.9278 5.97503 79.9242 6.06258 79.8981 6.13511C78.4178 10.221 76.9424 14.309 75.4596 18.3942C74.9811 19.712 74.0696 20.567 72.6854 20.8747C71.9475 21.0387 71.2097 20.9983 70.4804 20.7943C70.3718 20.7639 70.3303 20.7217 70.3314 20.6027C70.3378 19.9313 70.3389 19.2596 70.3314 18.5882C70.3296 18.4381 70.3707 18.426 70.5033 18.4635C70.8645 18.5653 71.2347 18.6236 71.6117 18.6179C71.9861 18.6121 72.292 18.4678 72.505 18.1523C72.8612 17.6245 73.0438 17.0221 73.2446 16.4275C73.2707 16.35 73.2264 16.2882 73.2003 16.2242C71.8185 12.8362 70.4357 9.44848 69.0529 6.06079C69.0286 6.00112 69.0069 5.94073 68.9829 5.87749C69.0279 5.83568 69.0769 5.85319 69.1198 5.85283C69.9709 5.8514 70.8216 5.85533 71.6728 5.84819C71.7971 5.84712 71.8464 5.88678 71.8864 5.99862C72.8265 8.62451 73.7698 11.249 74.7128 13.8738C74.7289 13.9181 74.746 13.9621 74.7742 14.0364C74.9018 13.6401 75.0215 13.2699 75.1398 12.8994C75.8698 10.6083 76.6005 8.31794 77.3262 6.02542C77.3691 5.88999 77.4262 5.84604 77.5717 5.84783C78.381 5.85676 79.1903 5.85212 79.9996 5.85212V5.92358L80 5.92322Z" fill="#010101"/>
<path d="M10.7182 5.35256C7.21368 5.35256 3.70914 5.35148 0.204254 5.35613C0.0456072 5.35613 -0.000843553 5.32219 -0.000486239 5.15603C0.00666003 3.49846 0.00630272 1.84088 0.000228388 0.182945C-0.000128926 0.0332302 0.0384609 0 0.185674 0C7.20689 0.00393045 14.2277 0.00393045 21.249 0C21.3947 0 21.4358 0.030729 21.4351 0.18223C21.429 1.84588 21.429 3.50953 21.4351 5.17319C21.4355 5.3229 21.3969 5.35649 21.2497 5.35613C17.7391 5.35148 14.2285 5.35256 10.7178 5.35256H10.7182Z" fill="#0079FA"/>
<path d="M34.939 14.5456C34.6628 14.9851 34.3698 15.342 33.9953 15.6225C32.9666 16.3925 31.8086 16.6816 30.5365 16.5344C28.1386 16.2567 26.5221 14.4662 26.1144 12.2795C25.8114 10.6551 26.0676 9.11726 27.0084 7.73768C27.9928 6.29449 29.3828 5.59522 31.1311 5.68562C32.515 5.75709 33.613 6.38775 34.4109 7.5265C34.4377 7.56474 34.4673 7.60118 34.4963 7.63799C34.4984 7.64049 34.5066 7.63799 34.5284 7.63799C34.5284 7.5826 34.5284 7.52615 34.5284 7.46933C34.5284 5.60916 34.5306 3.74934 34.5241 1.88917C34.5234 1.73231 34.5724 1.71051 34.7124 1.71158C35.5157 1.71837 36.3193 1.71909 37.1225 1.71123C37.2694 1.7098 37.3069 1.74303 37.3065 1.8931C37.3015 5.64882 37.3026 9.40454 37.3026 13.1603C37.3026 13.3268 37.3048 13.4929 37.3448 13.6559C37.4019 13.8885 37.5481 14.0321 37.7875 14.0557C37.9183 14.0686 37.9501 14.1186 37.9486 14.2454C37.9418 14.905 37.944 15.5646 37.9468 16.2242C37.9472 16.3161 37.9415 16.3814 37.8286 16.399C37.3405 16.474 36.8556 16.5526 36.3568 16.4819C35.6515 16.3818 35.1055 15.9077 35.0112 15.2756C34.9779 15.0533 34.9665 14.8282 34.9393 14.5452L34.939 14.5456ZM34.5281 11.2686C34.5281 10.8942 34.5266 10.5201 34.5291 10.1456C34.5299 10.0545 34.5102 9.97267 34.4745 9.8887C34.2079 9.26662 33.762 8.80211 33.2028 8.43658C32.1194 7.72874 30.9188 7.7777 29.9723 8.64597C28.9865 9.54997 28.701 10.7098 28.9915 11.9933C29.1891 12.8658 29.6922 13.5551 30.5072 13.9578C31.7771 14.5856 33.1428 14.3012 34.0818 13.2414C34.3759 12.9098 34.5859 12.5457 34.5331 12.0701C34.5038 11.806 34.5277 11.5359 34.5277 11.2686H34.5281Z" fill="#010101"/>
<path d="M48.1077 14.5859C48.1077 14.6502 48.1077 14.7145 48.1077 14.7792C48.1077 16.6751 48.1052 18.571 48.1123 20.4666C48.113 20.6306 48.0651 20.656 47.9165 20.6545C47.1072 20.647 46.2975 20.6477 45.4882 20.6545C45.3549 20.6556 45.3228 20.6234 45.3228 20.4895C45.3267 15.6636 45.3267 10.8381 45.3228 6.01218C45.3228 5.87604 45.3585 5.8471 45.4896 5.84853C46.1917 5.85532 46.8942 5.85674 47.5963 5.84745C47.74 5.84567 47.7575 5.89283 47.7557 6.01682C47.7493 6.54529 47.7528 7.07376 47.7528 7.62402C47.8365 7.56863 47.8622 7.4886 47.909 7.4275C48.6883 6.41594 49.7034 5.83423 50.983 5.70167C53.7093 5.41939 55.9575 7.29636 56.462 9.90975C56.7947 11.6341 56.5045 13.2589 55.4662 14.7013C54.6722 15.8044 53.5853 16.4382 52.2157 16.5519C51.2234 16.6344 50.2866 16.4618 49.4358 15.9216C48.8955 15.5785 48.465 15.1262 48.1077 14.5852V14.5859ZM48.1077 10.9502C48.1077 11.3247 48.1094 11.6992 48.1066 12.0736C48.1059 12.1587 48.1209 12.2362 48.1563 12.3134C48.4028 12.8522 48.7555 13.3082 49.2207 13.6762C50.3891 14.6006 51.9849 14.4759 52.93 13.3446C53.7382 12.3774 53.9508 11.2558 53.5788 10.0523C53.2633 9.03255 52.5651 8.34901 51.5368 8.06995C50.2669 7.7255 49.2382 8.175 48.4232 9.16368C48.2091 9.42345 48.0701 9.71609 48.1027 10.0773C48.1287 10.366 48.108 10.6594 48.108 10.9506L48.1077 10.9502Z" fill="#010101"/>
<path d="M65.4205 14.6884C65.1211 15.0604 64.8099 15.3759 64.4422 15.6285C63.0759 16.5658 61.5909 16.853 60.0069 16.3299C58.9246 15.9726 58.1728 15.2312 57.8462 14.116C57.4975 12.9258 57.8991 11.692 58.8621 10.9188C59.6485 10.2874 60.5682 10.0001 61.5512 9.88864C62.5002 9.78108 63.4392 9.86291 64.3636 10.0984C64.5751 10.1523 64.7806 10.2302 65.0032 10.3017C65.0039 9.78966 65.0414 9.28513 64.8581 8.80097C64.5866 8.08313 64.0288 7.72653 63.3035 7.60219C62.135 7.40173 61.0527 7.67686 60.0244 8.22391C59.7728 8.35755 59.5188 8.48725 59.2876 8.65519C59.2011 8.71808 59.1658 8.702 59.1211 8.61017C58.8821 8.12065 58.6402 7.63256 58.3915 7.14768C58.3382 7.04406 58.3593 7.00011 58.4536 6.94151C59.4084 6.35016 60.4346 5.95068 61.5465 5.77739C62.6464 5.60587 63.7376 5.63232 64.8174 5.92067C66.5493 6.38303 67.628 7.67079 67.7527 9.45486C67.8346 10.6236 67.7692 11.7949 67.7874 12.9647C67.7906 13.1781 67.7699 13.3921 67.8178 13.604C67.8785 13.8741 68.0182 14.0203 68.2955 14.0567C68.4238 14.0735 68.4573 14.1189 68.4559 14.2468C68.4488 14.906 68.4531 15.5656 68.452 16.2252C68.452 16.2903 68.4809 16.3678 68.3691 16.3871C67.7881 16.4875 67.2071 16.5872 66.6183 16.4518C65.9612 16.301 65.5249 15.7943 65.4677 15.1258C65.4563 14.9918 65.4395 14.8585 65.4213 14.6884H65.4205ZM65.0046 12.4374C65.0046 12.2473 65.0014 12.0572 65.0061 11.8671C65.0082 11.7849 64.9864 11.7449 64.8996 11.7177C64.2335 11.5073 63.5557 11.3611 62.855 11.3529C62.2272 11.3454 61.6241 11.4483 61.0867 11.8028C60.619 12.1111 60.3342 12.5213 60.3638 13.1041C60.3992 13.7994 60.9548 14.4129 61.722 14.5491C62.5856 14.7027 63.4074 14.5426 64.1453 14.0685C64.7209 13.6983 65.1479 13.2209 65.0046 12.4556C65.0036 12.4499 65.0046 12.4438 65.0046 12.4377V12.4374Z" fill="#010101"/>
<path d="M40.0392 11.0943C40.0392 9.40739 40.0414 7.72015 40.0356 6.03328C40.0353 5.88892 40.0639 5.84604 40.2165 5.84783C41.0315 5.85641 41.8465 5.85569 42.6612 5.84819C42.798 5.84712 42.8241 5.88499 42.8241 6.01505C42.8202 9.41275 42.8202 12.8108 42.8241 16.2085C42.8241 16.3378 42.7991 16.3768 42.6615 16.3757C41.8408 16.3682 41.0197 16.3682 40.1989 16.3757C40.0621 16.3768 40.0356 16.3389 40.036 16.2089C40.0407 14.5041 40.0392 12.799 40.0392 11.0943Z" fill="#010101"/>
<path d="M41.4409 1.7151C41.8511 1.7151 42.2613 1.71796 42.6715 1.71296C42.7769 1.71153 42.8262 1.72332 42.8248 1.85195C42.818 2.65341 42.8187 3.4545 42.824 4.25596C42.8248 4.36816 42.7937 4.39281 42.6858 4.3921C41.8475 4.38745 41.0096 4.38709 40.1713 4.39245C40.0566 4.39317 40.0363 4.35815 40.037 4.25239C40.0416 3.45093 40.042 2.64983 40.0366 1.84838C40.0359 1.73618 40.0666 1.71046 40.1749 1.71224C40.5969 1.71867 41.0189 1.71474 41.4409 1.71474V1.7151Z" fill="#010101"/>
</g>
</g>
<defs>
<clipPath id="clip0_1801_11836">
<rect width="80" height="21.3999" fill="white"/>
</clipPath>
<clipPath id="clip1_1801_11836">
<rect width="80" height="21.3999" fill="white"/>
</clipPath>
</defs>
</svg>
