<svg width="80" height="81" viewBox="0 0 80 81" fill="none" xmlns="http://www.w3.org/2000/svg">
<g clip-path="url(#clip0_1801_11892)">
<path d="M40.1859 0H73.2761C74.7311 0 76.098 0.2425 77.2884 1.12432C78.9198 2.20454 79.9118 4.03432 79.9559 5.99636C79.978 9.74409 79.978 13.4698 79.978 17.1734L80 73.0807C80 74.227 79.978 75.3293 79.4489 76.3654C78.567 78.3054 76.7814 79.6502 74.6871 79.9147C74.1359 80.0029 73.5627 80.025 73.0116 80.025L7.88933 80.0029C7.16183 80.0029 6.39024 79.9588 5.66274 79.9147C2.26774 79.6282 -0.245439 76.6741 0.019106 73.2791C0.019106 51.0573 0.0411514 28.8795 0.019106 6.63568C0.019106 4.69568 0.570244 3.04227 2.02524 1.6975C3.08343 0.683408 4.47229 0.0881811 5.92729 0.0440902C6.89729 0.0220448 7.88933 0.0220451 8.85933 0.0220451L40.1859 0Z" fill="#E2261D"/>
<path d="M19.5074 11.9266H13.2906C12.2103 11.9266 11.9678 12.1691 11.9458 13.2052V16.5561C11.9458 17.5261 12.2103 17.7686 13.1363 17.7907L20.9403 17.9009C22.3733 17.9229 23.7842 17.9009 25.1951 17.9229C27.0469 17.945 28.7003 18.5843 30.1774 19.7086C33.5724 22.332 33.859 27.5127 30.9931 30.555C29.4278 32.2525 27.2233 33.2225 24.9085 33.1784C21.0285 33.2004 17.1706 33.1784 13.2906 33.1563C12.1883 33.1563 11.9458 33.4209 11.9458 34.5231V37.8741C11.9678 38.8881 12.2765 39.1968 13.2906 39.1968C16.8178 39.1968 20.3231 39.2188 23.8283 39.1968C24.7763 39.1968 25.7242 39.1306 26.6501 39.0204C30.0451 38.6897 33.1756 37.0143 35.314 34.3247C38.6649 30.3786 39.4365 24.8672 37.3201 20.1495C35.0935 14.7263 30.6844 12.1029 24.8865 11.8825C23.1228 11.8604 21.3151 11.9045 19.5074 11.9266ZM54.0085 11.9045C61.7685 11.9045 68.0735 18.0111 68.0735 25.5727C68.0735 33.1343 61.7685 39.2409 53.9865 39.2409C46.2044 39.2409 39.9215 33.1343 39.9215 25.5947C39.9215 18.0552 46.2265 11.9045 54.0085 11.9045ZM54.0085 33.7736C58.3515 33.7736 61.9008 30.092 61.9008 25.5727C61.9008 21.0534 58.3735 17.3718 53.9865 17.3718C49.6435 17.3718 46.0722 21.0534 46.0722 25.5727C46.0942 30.1141 49.6435 33.7736 54.0085 33.7736ZM18.5153 52.1154C18.2508 51.7847 18.339 51.432 18.339 51.1013V41.7981C18.2728 41.1809 18.0524 40.9604 17.5013 40.8281C17.3028 40.7841 17.0824 40.74 16.884 40.74H13.2465C12.2765 40.762 11.9678 41.0706 11.9678 42.0186V66.7756C11.9678 67.7236 12.2324 67.9881 13.1583 68.0102H16.6194C18.1185 68.0102 18.339 67.8338 18.339 66.2686V60.7572C18.339 60.14 18.4713 59.5888 18.9342 59.1479C19.5735 58.4865 20.2128 57.8252 20.8963 57.2079C21.4033 56.7229 21.7781 56.767 22.241 57.3181C22.6819 57.8472 23.0788 58.3984 23.4976 58.9275L29.7365 67.1063C30.1774 67.6575 30.7285 68.0102 31.456 68.0102L36.791 67.9881C37.0776 67.9881 37.4083 68.0102 37.5847 67.5472C37.4524 67.3268 37.2981 66.9961 37.0776 66.7315L29.5822 57.1197L26.5619 53.1736C26.0549 52.5122 26.0769 52.1595 26.6501 51.5422C26.7383 51.4541 26.8044 51.3659 26.8926 51.2777L32.3158 45.8986L36.4603 41.7761C36.6808 41.5336 37.0776 41.3572 36.9012 40.8722C36.769 40.8502 36.6367 40.7841 36.5044 40.762C34.7408 40.74 33.0213 40.6959 31.2576 40.6959C30.2435 40.6959 29.4278 41.0927 28.7003 41.8422C25.614 45.0829 22.4835 48.2354 19.331 51.432C19.1106 51.7186 18.9342 52.0493 18.5153 52.1154ZM39.9656 48.5V51.0793C40.0097 52.865 39.8553 54.6065 40.1419 56.3702C41.2222 63.4027 47.5272 68.4511 54.6478 67.9661C62.1212 67.7677 68.0515 61.595 68.0074 54.1215C68.0515 50.1534 68.0074 46.2072 68.0074 42.2391V41.71C67.9412 41.1147 67.6987 40.8061 67.1035 40.8061C65.6706 40.7841 64.2817 40.7841 62.8487 40.8061C62.2535 40.8281 62.011 41.1368 61.989 41.71V42.6138C61.9449 46.6041 61.9228 50.5943 61.8567 54.6065C61.8347 56.3261 61.2394 58.0015 60.2033 59.3684C57.6681 62.7634 52.8622 63.4688 49.4451 60.9336C47.2626 59.3022 46.0281 56.7229 46.0942 54.0113C46.0722 50.0431 46.1162 46.097 46.1603 42.1288C46.1603 41.0266 45.8958 40.7841 44.7935 40.762H41.2663C40.2081 40.7841 39.9876 41.0266 39.9876 42.1068V48.5H39.9656Z" fill="white"/>
</g>
<defs>
<clipPath id="clip0_1801_11892">
<rect width="80" height="80.025" fill="white"/>
</clipPath>
</defs>
</svg>
