<svg width="80" height="15" viewBox="0 0 80 15" fill="none" xmlns="http://www.w3.org/2000/svg">
<g clip-path="url(#clip0_1801_11927)">
<g clip-path="url(#clip1_1801_11927)">
<path d="M8.1448 0C8.28959 0 8.39819 0.0361991 8.48869 0.126697C8.57919 0.217195 8.61538 0.325792 8.61538 0.470588V7.8733V7.9095C8.59728 8.70588 8.41629 9.41176 8.0362 10.0633C7.65611 10.7149 7.14932 11.2217 6.49774 11.5837C5.84615 11.9457 5.12217 12.1267 4.32579 12.1267C3.51131 12.1267 2.78733 11.9457 2.11765 11.5656C1.46606 11.1855 0.941176 10.6787 0.579185 10.0271C0.180995 9.35747 0 8.61538 0 7.8009C0 7.00452 0.180995 6.28054 0.561086 5.61086C0.941176 4.95928 1.44796 4.43439 2.09955 4.0724C2.75113 3.69231 3.49321 3.51131 4.30769 3.51131C5.03167 3.51131 5.70136 3.67421 6.28054 3.9819C6.87783 4.28959 7.33032 4.72398 7.67421 5.26697V0.470588C7.67421 0.325792 7.71041 0.217195 7.8009 0.126697C7.9095 0.0361991 8.0181 0 8.1448 0ZM4.30769 11.2579C4.94118 11.2579 5.52036 11.1131 6.02715 10.8054C6.53394 10.4977 6.95023 10.0814 7.23982 9.57466C7.52941 9.04977 7.67421 8.47059 7.67421 7.819C7.67421 7.16742 7.52941 6.58824 7.23982 6.06335C6.95023 5.53846 6.55204 5.12217 6.02715 4.83258C5.52036 4.54299 4.94118 4.38009 4.30769 4.38009C3.67421 4.38009 3.09502 4.52489 2.58824 4.83258C2.08145 5.12217 1.66516 5.53846 1.37557 6.06335C1.08597 6.58824 0.923077 7.16742 0.923077 7.819C0.923077 8.47059 1.06787 9.04977 1.37557 9.57466C1.66516 10.0995 2.08145 10.5158 2.58824 10.8054C3.09502 11.095 3.67421 11.2579 4.30769 11.2579ZM17.2308 3.60181C17.1041 3.60181 16.9955 3.63801 16.905 3.72851C16.8145 3.819 16.7783 3.9276 16.7783 4.0724V8.77828C16.7783 9.23077 16.6516 9.64706 16.3982 10.009C16.1448 10.3891 15.7828 10.6787 15.3484 10.8778C14.8959 11.095 14.4072 11.1855 13.8643 11.1855C12.9774 11.1855 12.2715 10.9321 11.7104 10.4072C11.1674 9.90045 10.8778 9.15837 10.8778 8.181V4.0724C10.8778 3.9457 10.8416 3.8371 10.7511 3.74661C10.6606 3.65611 10.552 3.61991 10.4253 3.61991C10.2986 3.61991 10.19 3.65611 10.0995 3.74661C10.009 3.8371 9.97285 3.9457 9.97285 4.0724V8.2172C9.97285 9.03167 10.1357 9.73756 10.4796 10.3348C10.8054 10.9321 11.276 11.3665 11.8733 11.6742C12.4706 11.9819 13.1403 12.1448 13.8824 12.1448C14.4796 12.1448 15.0226 12.0181 15.5294 11.7828C16.0362 11.5475 16.4525 11.2036 16.8145 10.7692V11.5656C16.8145 11.6923 16.8507 11.8009 16.9412 11.8914C17.0317 11.9819 17.1403 12.0181 17.267 12.0181C17.4118 12.0181 17.5204 11.9819 17.6109 11.8914C17.7014 11.8009 17.7376 11.6923 17.7376 11.5656V4.0724C17.7376 3.9276 17.7014 3.819 17.6109 3.72851C17.5204 3.63801 17.3756 3.60181 17.2308 3.60181ZM22.9864 11.0769H22.6425C22.0633 11.0769 21.5747 10.8959 21.2127 10.5158C20.8507 10.1357 20.6516 9.66516 20.6516 9.06787V4.74208H22.6787C22.8054 4.74208 22.8959 4.70588 22.9864 4.63348C23.0769 4.56109 23.095 4.45249 23.095 4.32579C23.095 4.1991 23.0588 4.1086 22.9864 4.0181C22.914 3.9276 22.8054 3.9095 22.6787 3.9095H20.6516V1.39367C20.6516 1.24887 20.6154 1.14027 20.5249 1.04977C20.4344 0.959276 20.3258 0.923077 20.181 0.923077C20.0543 0.923077 19.9457 0.959276 19.8552 1.04977C19.7647 1.14027 19.7285 1.24887 19.7285 1.39367V3.9095H18.5339C18.4072 3.9095 18.3167 3.9457 18.2262 4.0181C18.1357 4.0905 18.1176 4.1991 18.1176 4.32579C18.1176 4.45249 18.1538 4.54299 18.2262 4.63348C18.2986 4.72398 18.4072 4.74208 18.5339 4.74208H19.7285V9.06787C19.7285 9.62896 19.8552 10.1357 20.0905 10.5882C20.3439 11.0407 20.6878 11.3846 21.1222 11.638C21.5566 11.8914 22.0633 12.0181 22.6244 12.0181H22.9864C23.1312 12.0181 23.2398 11.9819 23.3303 11.8914C23.4208 11.8009 23.457 11.6923 23.457 11.5656C23.457 11.4208 23.4208 11.3122 23.3303 11.2217C23.2398 11.1312 23.1312 11.0769 22.9864 11.0769ZM27.9457 3.51131C28.7421 3.51131 29.4661 3.69231 30.1357 4.0724C30.7873 4.45249 31.3122 4.95928 31.6742 5.61086C32.0543 6.26244 32.2353 7.00453 32.2353 7.819V11.5656C32.2353 11.6923 32.1991 11.8009 32.1086 11.8914C32.0181 11.9819 31.9095 12.0181 31.7647 12.0181C31.638 12.0181 31.5294 11.9819 31.4389 11.8914C31.3484 11.8009 31.3122 11.6923 31.3122 11.5656V10.371C30.9683 10.914 30.5158 11.3484 29.9186 11.6561C29.3213 11.9638 28.6697 12.1267 27.9457 12.1267C27.1312 12.1267 26.4072 11.9457 25.7376 11.5656C25.086 11.1855 24.5611 10.6787 24.1991 10.0271C23.819 9.37557 23.638 8.63348 23.638 7.8371C23.638 7.02262 23.819 6.29864 24.1991 5.62896C24.5792 4.97738 25.086 4.45249 25.7376 4.0905C26.4072 3.69231 27.1312 3.51131 27.9457 3.51131ZM27.9457 11.2579C28.5792 11.2579 29.1584 11.1131 29.6652 10.8054C30.1719 10.5158 30.5882 10.0995 30.8778 9.57466C31.1674 9.04977 31.3122 8.47059 31.3122 7.819C31.3122 7.16742 31.1674 6.58824 30.8778 6.06335C30.5882 5.53846 30.19 5.12217 29.6652 4.83258C29.1584 4.52489 28.5792 4.38009 27.9457 4.38009C27.3122 4.38009 26.733 4.52489 26.2262 4.83258C25.7195 5.14027 25.3032 5.55656 25.0136 6.06335C24.724 6.57014 24.5611 7.16742 24.5611 7.819C24.5611 8.47059 24.7059 9.04977 25.0136 9.57466C25.3032 10.0995 25.7195 10.5158 26.2262 10.8054C26.733 11.1131 27.3122 11.2579 27.9457 11.2579Z" fill="#6E6E6E"/>
<path d="M42.1539 3.49329C42.7693 3.49329 43.3123 3.65618 43.801 3.96387C44.2897 4.27157 44.6517 4.70596 44.9232 5.24894C45.1947 5.79193 45.3214 6.42541 45.3214 7.1132V11.5657C45.3214 11.6924 45.2852 11.801 45.1947 11.8915C45.1042 11.982 44.9956 12.0182 44.8508 12.0182C44.7241 12.0182 44.6155 11.982 44.525 11.8915C44.4345 11.801 44.3983 11.6924 44.3983 11.5657V7.1132C44.3983 6.31682 44.1811 5.68333 43.7648 5.17654C43.3485 4.66976 42.8055 4.41636 42.1539 4.41636C41.43 4.41636 40.8508 4.65166 40.4164 5.12225C39.982 5.59283 39.7648 6.22632 39.7829 7.0046V7.1132V11.5657C39.7829 11.6924 39.7467 11.801 39.6562 11.8915C39.5657 11.982 39.4571 12.0182 39.3123 12.0182C39.1856 12.0182 39.077 11.982 38.9865 11.8915C38.896 11.801 38.8598 11.6924 38.8598 11.5657V7.1132C38.8598 6.31682 38.6426 5.68333 38.2263 5.17654C37.81 4.66976 37.2671 4.41636 36.6155 4.41636C35.9096 4.41636 35.3304 4.63356 34.8779 5.08605C34.4254 5.53854 34.2082 6.11772 34.2082 6.8417V11.5476C34.2082 11.6743 34.172 11.7829 34.0815 11.8734C33.991 11.9639 33.8824 12.0001 33.7376 12.0001C33.6109 12.0001 33.5024 11.9639 33.4119 11.8734C33.3214 11.7829 33.2852 11.6743 33.2852 11.5476V4.07247C33.2852 3.92768 33.3214 3.81908 33.4119 3.72858C33.5024 3.63808 33.6109 3.60188 33.7376 3.60188C33.8824 3.60188 33.991 3.63808 34.0815 3.72858C34.172 3.81908 34.2082 3.92768 34.2082 4.07247V4.66976C34.4978 4.30777 34.8417 4.01817 35.2761 3.80098C35.6924 3.60188 36.1449 3.49329 36.6336 3.49329C37.2309 3.49329 37.7557 3.63808 38.2263 3.92768C38.6969 4.21727 39.077 4.61546 39.3485 5.14035C39.62 4.63356 40.0182 4.21727 40.5069 3.92768C40.9956 3.63808 41.5385 3.49329 42.1539 3.49329ZM50.5159 12.1087C51.3123 12.1087 52.0363 11.9277 52.706 11.5476C53.3576 11.1675 53.8824 10.6607 54.2444 10.0091C54.6245 9.35754 54.8055 8.61546 54.8055 7.81908C54.8055 7.0046 54.6245 6.28062 54.2444 5.61093C53.8643 4.95935 53.3576 4.43446 52.706 4.07247C52.0544 3.69238 51.3123 3.51139 50.5159 3.51139C49.7014 3.51139 48.9775 3.69238 48.3078 4.07247C47.6562 4.45256 47.1313 4.95935 46.7693 5.61093C46.3892 6.26252 46.2082 7.0046 46.2082 7.81908C46.2082 8.61546 46.3892 9.35754 46.7693 10.0091C47.1494 10.6607 47.6562 11.1856 48.3078 11.5476C48.9775 11.9277 49.7014 12.1087 50.5159 12.1087ZM50.5159 11.258C49.8824 11.258 49.3033 11.1132 48.7965 10.8055C48.2897 10.5159 47.8734 10.0996 47.5838 9.57473C47.2942 9.04985 47.1313 8.47066 47.1313 7.81908C47.1313 7.16749 47.2761 6.58831 47.5838 6.06342C47.8915 5.53854 48.2897 5.12225 48.7965 4.83265C49.3033 4.52496 49.8824 4.38016 50.5159 4.38016C51.1494 4.38016 51.7286 4.52496 52.2354 4.83265C52.7422 5.14035 53.1585 5.55663 53.448 6.06342C53.7376 6.58831 53.8824 7.16749 53.8824 7.81908C53.8824 8.47066 53.7376 9.04985 53.448 9.57473C53.1585 10.0996 52.7603 10.5159 52.2354 10.8055C51.7286 11.1132 51.1494 11.258 50.5159 11.258ZM59.6924 3.49329C59.0951 3.49329 58.5521 3.61998 58.0453 3.85528C57.5386 4.09057 57.1223 4.43446 56.7603 4.86885V4.07247C56.7603 3.92768 56.7241 3.81908 56.6336 3.72858C56.5431 3.63808 56.4345 3.60188 56.2897 3.60188C56.163 3.60188 56.0544 3.63808 55.9639 3.72858C55.8734 3.81908 55.8372 3.92768 55.8372 4.07247V11.5657C55.8372 11.6924 55.8734 11.801 55.9639 11.8915C56.0544 11.982 56.163 12.0182 56.2897 12.0182C56.4345 12.0182 56.5431 11.982 56.6336 11.8915C56.7241 11.801 56.7603 11.6924 56.7603 11.5657V6.8598C56.7603 6.40731 56.887 5.99102 57.1404 5.62903C57.3938 5.24894 57.7557 4.95935 58.1901 4.76025C58.6245 4.56116 59.1313 4.45256 59.6743 4.45256C60.5612 4.45256 61.2671 4.70596 61.8281 5.23084C62.3892 5.75573 62.6607 6.47971 62.6607 7.45709V11.6019C62.6607 11.7286 62.6969 11.8372 62.7874 11.9277C62.8779 12.0182 62.9865 12.0544 63.1132 12.0544C63.2399 12.0544 63.3485 12.0182 63.439 11.9277C63.5295 11.8372 63.5657 11.7286 63.5657 11.6019V7.42089C63.5657 6.60641 63.4028 5.90053 63.0589 5.30324C62.7331 4.70596 62.2625 4.27157 61.6652 3.96387C61.068 3.65618 60.4345 3.49329 59.6924 3.49329ZM68.4164 3.52949C67.6381 3.52949 66.9684 3.71048 66.353 4.07247C65.7557 4.43446 65.2852 4.94125 64.9594 5.59283C64.6336 6.24442 64.4526 6.9865 64.4526 7.81908C64.4526 8.63356 64.6336 9.37564 64.9956 10.0272C65.3576 10.6788 65.8462 11.1856 66.4797 11.5476C67.1132 11.9096 67.8372 12.0906 68.6517 12.0906C69.1404 12.0906 69.6471 12.0001 70.172 11.801C70.6969 11.6019 71.1313 11.3666 71.4571 11.0589C71.5476 10.9684 71.6019 10.8779 71.6019 10.7693C71.6019 10.6426 71.5476 10.534 71.439 10.4435C71.3666 10.3892 71.2761 10.353 71.1675 10.353C71.0589 10.353 70.9503 10.3892 70.8417 10.4797C70.6064 10.6969 70.2806 10.896 69.8824 11.0227C69.4843 11.1494 69.068 11.2218 68.6698 11.2218C68.0725 11.2218 67.5295 11.0951 67.0589 10.8236C66.5702 10.5521 66.1901 10.1901 65.9005 9.70143C65.6109 9.23084 65.4481 8.68786 65.43 8.07247H71.8734C72.0001 8.07247 72.1087 8.03627 72.1992 7.96387C72.2897 7.89148 72.3259 7.78288 72.3259 7.65618C72.3259 6.8598 72.163 6.13582 71.8372 5.52044C71.5114 4.88695 71.0408 4.39826 70.4616 4.05437C69.8281 3.71048 69.1585 3.52949 68.4164 3.52949ZM68.4164 4.38016C69.249 4.38016 69.9367 4.65166 70.4797 5.17654C71.0227 5.70143 71.3304 6.40731 71.4028 7.29419H65.4119C65.5204 6.42541 65.8462 5.71953 66.3892 5.17654C66.9322 4.65166 67.62 4.38016 68.4164 4.38016ZM72.2897 13.7195C72.3078 13.7919 72.2897 13.7738 72.3621 13.81C72.5612 13.9367 72.9232 14.0091 73.1404 14.0634C73.3576 14.1177 73.9729 14.1358 74.2444 14.1177C75.0046 14.0453 75.5838 13.5747 76.0001 12.9593L76.3259 12.3983C76.4707 12.163 76.6517 11.6743 76.7603 11.4028L77.629 9.35754C77.7557 9.06795 77.8643 8.83265 77.9729 8.52496L79.1856 5.62903C79.2037 5.57473 79.2399 5.52044 79.2761 5.42994C79.3304 5.33944 79.3304 5.30324 79.3485 5.23084L79.801 4.16297C79.801 4.16297 79.801 4.14487 79.8191 4.14487C79.8191 4.14487 79.8191 4.12677 79.8372 4.12677L79.8915 4.00007C79.9458 3.87338 80.0182 3.76478 80.0363 3.58378H79.1313L78.5159 5.14035C78.4978 5.21274 78.4616 5.26704 78.4254 5.33944L76.8508 9.28514C76.7965 9.44804 76.3983 10.4978 76.3078 10.5521L75.8734 9.66523C75.7648 9.37564 75.6019 9.08605 75.4752 8.79645L75.2761 8.34396C75.2037 8.19917 75.1494 8.05437 75.077 7.90958C75.0408 7.83718 75.0046 7.76478 74.9684 7.69238C74.8055 7.33039 74.6245 6.9865 74.4616 6.60641L73.1947 3.98197C73.1585 3.92768 73.1223 3.83718 73.0861 3.78288C73.068 3.74668 73.0499 3.71048 73.0499 3.67428L73.0137 3.61998L72.0725 3.58378C72.0906 3.80098 72.1992 3.94577 72.2897 4.12677L74.4073 8.50686C74.4073 8.52496 74.4254 8.54306 74.4254 8.54306C74.4797 8.68786 74.5883 8.88695 74.6607 9.04985C74.7331 9.19464 74.8417 9.37564 74.896 9.52044C74.9684 9.70143 75.0408 9.86433 75.1313 10.0272L75.801 11.3847C75.8553 11.4752 75.801 11.4209 75.8553 11.4571C75.8191 11.5657 75.6924 11.8191 75.6381 11.9277C75.4933 12.2173 75.3123 12.525 75.0951 12.7422C74.8417 12.9774 74.6245 13.1946 74.2625 13.267C74.0272 13.3032 73.5747 13.3213 73.3395 13.2489C73.1404 13.1946 72.6517 13.0136 72.525 13.0136L72.344 13.5023C72.3078 13.629 72.3078 13.629 72.2897 13.7195Z" fill="#009CFE"/>
</g>
</g>
<defs>
<clipPath id="clip0_1801_11927">
<rect width="80" height="14.1176" fill="white"/>
</clipPath>
<clipPath id="clip1_1801_11927">
<rect width="80" height="14.1176" fill="white"/>
</clipPath>
</defs>
</svg>
