<svg width="72" height="70" viewBox="0 0 72 70" fill="none" xmlns="http://www.w3.org/2000/svg">
<g clip-path="url(#clip0_1801_11455)">
<path d="M35.6409 43.1987C47.5698 43.1987 57.2402 33.5283 57.2402 21.5993C57.2402 9.67035 47.5698 0 35.6409 0C23.7119 0 14.0415 9.67035 14.0415 21.5993C14.0415 33.5283 23.7119 43.1987 35.6409 43.1987Z" fill="#00AED6"/>
<path fill-rule="evenodd" clip-rule="evenodd" d="M48.2406 20.9694C48.0606 18.2695 45.7207 16.1096 43.0208 16.2896H29.3412C28.8012 16.2896 28.4412 15.9296 28.4412 15.3896C28.4412 14.8496 28.8012 14.4896 29.3412 14.4896H43.2008C43.1108 12.6897 41.7608 10.7997 40.0509 10.5297C36.001 9.80975 31.8611 9.80975 27.9012 10.5297C25.6513 10.8897 23.9414 13.1396 23.5814 15.2996C22.9514 19.5295 22.9514 23.8493 23.5814 28.0792C24.0314 30.5091 26.0113 32.4891 28.5312 32.849C33.5711 33.479 38.6109 33.479 43.5608 32.849C45.8107 32.5791 47.2507 30.5091 47.7006 28.3492C48.1506 25.8293 48.3306 23.3993 48.2406 20.9694ZM43.7408 23.9393V24.7493C43.7408 25.2893 43.3808 25.6493 42.8408 25.6493C42.3008 25.6493 41.9408 25.2893 41.9408 24.7493V23.9393C41.6708 23.6693 41.4908 23.3093 41.4908 22.9493C41.4908 22.2294 42.1208 21.5994 42.8408 21.5994C43.5608 21.5994 44.1908 22.2294 44.1908 22.9493C44.1908 23.3093 44.0108 23.6693 43.7408 23.9393Z" fill="white"/>
<path d="M3.06209 64.798C3.96207 66.148 5.49202 66.868 7.11197 66.778C9.00192 66.778 10.3519 65.608 10.3519 63.988V63.0881C9.3619 64.078 7.92194 64.618 6.48199 64.528C2.97209 64.618 0.092183 61.9181 0.00218574 58.4082C-0.0878116 54.8983 2.6121 52.0184 6.122 51.9284C6.21199 51.9284 6.30199 51.9284 6.39199 51.9284C7.83195 51.8384 9.27191 52.3784 10.3519 53.3684V52.1984H13.5918V63.898C13.5918 67.3179 10.8919 69.6579 7.11197 69.6579C4.59205 69.8379 2.25212 68.7579 0.632164 66.778L3.06209 64.798ZM10.2619 57.5082C10.2619 56.1583 8.73192 54.8983 7.02197 54.8983C4.86203 54.8983 3.42208 56.2483 3.42208 58.2282C3.33208 59.9382 4.59205 61.4681 6.39199 61.6481C6.57199 61.6481 6.75198 61.6481 6.93197 61.6481C8.82192 61.6481 10.3519 60.4782 10.3519 59.0382V57.5082H10.2619Z" fill="black"/>
<path d="M22.0515 51.8384C26.0114 51.8384 28.8013 54.6283 28.8013 58.2282C28.8013 61.8281 25.9214 64.618 22.0515 64.618C18.5416 64.798 15.4817 62.0981 15.3017 58.5882C15.1217 55.0783 17.7317 52.0184 21.2416 51.8384C21.5116 51.8384 21.7815 51.8384 22.0515 51.8384ZM22.0515 54.8083C20.1616 54.8083 18.6316 56.3382 18.6316 58.2282C18.6316 60.1181 20.1616 61.6481 22.0515 61.6481C23.9415 61.6481 25.4714 60.1181 25.4714 58.2282C25.5614 56.4282 24.1215 54.8983 22.4115 54.8083C22.2315 54.8083 22.1415 54.8083 22.0515 54.8083Z" fill="black"/>
<path d="M30.6914 52.1984H33.9313V53.2783H34.0213C35.1013 52.2884 36.4512 51.8384 37.8912 51.8384C41.4011 51.9284 44.191 54.8083 44.101 58.3182C44.011 61.7381 41.3111 64.438 37.8912 64.528C36.5412 64.528 35.1913 64.078 34.1113 63.268H34.0213V69.2978H30.6914V52.1984ZM37.2612 54.8083C35.4613 54.8083 34.0213 56.0683 34.0213 57.4182V58.9482C34.0213 60.3881 35.4613 61.5581 37.3512 61.5581C39.2411 61.5581 40.7711 60.0281 40.6811 58.1382C40.6811 56.3382 39.1512 54.8083 37.2612 54.8083Z" fill="black"/>
<path d="M50.4008 57.0582C52.5607 56.7882 53.2807 56.4282 53.2807 55.7983C53.2807 54.9883 52.4707 54.5383 51.1208 54.5383C49.7708 54.4483 48.4209 55.3483 48.1509 56.6982L45.001 56.0683C45.451 53.6383 47.9709 51.8384 51.1208 51.8384C54.6307 51.8384 56.7906 53.6383 56.7906 56.5182V64.168H53.6407V62.818C52.6507 63.988 51.1208 64.618 49.5908 64.438C46.9809 64.438 45.091 62.998 45.091 60.8381C45.091 58.6782 46.5309 57.5982 50.4008 57.0582ZM53.4607 58.3182C53.1007 58.7682 52.4708 59.0382 50.8508 59.3082C48.8709 59.6681 48.1509 60.0281 48.1509 60.7481C48.1509 61.4681 48.7809 61.8281 50.0408 61.8281C51.9308 61.8281 53.4607 60.9281 53.4607 59.7581V58.3182Z" fill="black"/>
<path d="M62.7301 63.538L57.2402 52.1984H60.9301L64.62 60.0281H64.71L68.3099 52.1984H71.9998L63.72 69.2978H59.9402L62.7301 63.538Z" fill="black"/>
</g>
<defs>
<clipPath id="clip0_1801_11455">
<rect width="72" height="69.6773" fill="white"/>
</clipPath>
</defs>
</svg>
