<svg width="80" height="18" viewBox="0 0 80 18" fill="none" xmlns="http://www.w3.org/2000/svg">
<g clip-path="url(#clip0_1801_11423)">
<path d="M8.73161 17.4632C13.554 17.4632 17.4632 13.554 17.4632 8.73161C17.4632 3.90928 13.554 0 8.73161 0C3.90928 0 0 3.90928 0 8.73161C0 13.554 3.90928 17.4632 8.73161 17.4632Z" fill="#00AED6"/>
<path d="M8.73161 17.4632C13.554 17.4632 17.4632 13.554 17.4632 8.73161C17.4632 3.90928 13.554 0 8.73161 0C3.90928 0 0 3.90928 0 8.73161C0 13.554 3.90928 17.4632 8.73161 17.4632Z" fill="#00AED6"/>
<path fill-rule="evenodd" clip-rule="evenodd" d="M13.8174 8.45962C13.7531 7.35085 12.8095 6.49971 11.7 6.54958H6.18455C5.98362 6.54958 5.82074 6.38669 5.82074 6.18576C5.82074 5.98483 5.98362 5.82194 6.18455 5.82194H11.7727C11.7425 5.06706 11.2277 4.41835 10.4994 4.21751C8.87118 3.9301 7.20521 3.9301 5.57701 4.21751C4.65145 4.4455 3.95909 5.21576 3.83068 6.16029C3.57239 7.8739 3.57239 9.61653 3.83068 11.3301C4.02732 12.3276 4.81888 13.1003 5.82076 13.2729C7.84189 13.524 9.8863 13.524 11.9074 13.2729C12.8062 13.0889 13.4863 12.3502 13.5956 11.4393C13.7765 10.4569 13.8509 9.45793 13.8174 8.45962ZM12.0056 9.68204V10.0058C12.0056 10.2068 11.8427 10.3697 11.6418 10.3697C11.4409 10.3697 11.278 10.2068 11.278 10.0058V9.68204C11.1617 9.58013 11.0954 9.43281 11.0961 9.27821C11.0961 8.97681 11.3404 8.73248 11.6418 8.73248C11.9432 8.73248 12.1875 8.97681 12.1875 9.27821C12.1882 9.43281 12.1219 9.58012 12.0056 9.68204V9.68204Z" fill="white"/>
<path d="M24.3657 13.0782C25.1068 14.1355 26.3392 14.7378 27.6287 14.6728C29.1493 14.6728 30.2678 13.7014 30.2678 12.3811V11.6848H30.2309C29.3977 12.4991 28.2602 12.9249 27.0972 12.858C25.2598 12.9107 23.5373 11.9665 22.5934 10.3892C21.6496 8.81184 21.6317 6.84761 22.5467 5.25336C23.4617 3.65912 25.1668 2.68373 27.0048 2.70305C28.19 2.62701 29.3549 3.03731 30.2309 3.83927H30.2678V2.88639H32.8714V12.3449C32.8714 15.0942 30.6899 17.0006 27.6287 17.0006C25.6236 17.11 23.6876 16.2511 22.423 14.6913L24.3657 13.0782ZM30.1583 7.19393C30.1583 6.09395 28.912 5.08564 27.5192 5.08564C25.7584 5.08564 24.5859 6.14938 24.5859 7.74392C24.5337 8.49942 24.8177 9.23943 25.3619 9.76608C25.9061 10.2927 26.655 10.5523 27.4084 10.4754C28.9304 10.4754 30.1583 9.5218 30.1583 8.33015V7.19393ZM39.6901 2.6114C42.8621 2.6114 45.1715 4.86607 45.1715 7.74392C45.1715 10.6218 42.8621 12.8764 39.6901 12.8764C37.7761 13.0019 35.9514 12.052 34.9564 10.4123C33.9613 8.77252 33.9613 6.71533 34.9564 5.07558C35.9514 3.43582 37.7761 2.48593 39.6901 2.6114ZM39.6901 4.99397C38.174 5.00432 36.9524 6.23986 36.9591 7.75595C36.966 9.27205 38.1987 10.4965 39.7148 10.4932C41.231 10.4899 42.4583 9.26003 42.4585 7.74392C42.4929 7.00133 42.2116 6.27884 41.6842 5.75495C41.1568 5.23106 40.4324 4.95463 39.6901 4.99397ZM46.6381 2.88639H49.2417V3.74761H49.2786C50.1294 2.96526 51.2579 2.55608 52.4123 2.6114C55.2073 2.66183 57.4482 4.93939 57.4532 7.73487C57.4583 10.5303 55.2256 12.816 52.4308 12.8764C51.3275 12.9019 50.2504 12.5384 49.3881 11.8497H49.3511V16.7257H46.6381V2.88639ZM51.9916 5.01242C50.5605 5.01242 49.3511 6.02076 49.3511 7.12074V8.34862C49.3511 9.5218 50.525 10.4932 52.0087 10.4932C53.5221 10.4884 54.7452 9.25773 54.7405 7.74427C54.7358 6.23082 53.5051 5.00774 51.9916 5.01242ZM62.5679 6.80879C64.3458 6.57075 64.8773 6.31423 64.8773 5.81896C64.8773 5.1773 64.1994 4.79288 63.1549 4.79288C62.0294 4.69757 61.0022 5.43642 60.7346 6.5338L58.168 6.00229C58.5347 4.02261 60.5698 2.6114 63.081 2.6114C65.9219 2.6114 67.6827 4.05956 67.6827 6.42366V12.6015H65.244V11.5384H65.207C64.3803 12.4699 63.1678 12.9643 61.9255 12.8764C59.781 12.8764 58.2973 11.7033 58.2973 9.98012C58.2973 8.1653 59.5067 7.23088 62.5679 6.80879ZM65.0976 7.83558H65.0606C64.8219 8.18377 64.3088 8.38557 62.99 8.62361C61.394 8.91708 60.827 9.22832 60.827 9.79678C60.827 10.3837 61.3031 10.6402 62.3292 10.6402C63.8882 10.6402 65.0976 9.92539 65.0976 8.99027V7.83558ZM72.5942 12.0699L68.1033 2.88639H71.092L74.0424 9.22833H74.0793L76.9941 2.88639H79.9999L73.2735 16.7257H70.2848L72.5942 12.0699Z" fill="black"/>
</g>
<defs>
<clipPath id="clip0_1801_11423">
<rect width="80" height="17.4632" fill="white"/>
</clipPath>
</defs>
</svg>
