<svg width="46" height="80" viewBox="0 0 46 80" fill="none" xmlns="http://www.w3.org/2000/svg">
<g clip-path="url(#clip0_1801_11373)">
<g clip-path="url(#clip1_1801_11373)">
<path d="M20.2121 19.2144H40.4879C43.4167 19.2144 45.316 21.5953 45.316 24.2661V67.0709C45.316 70.9015 42.8049 73.2504 40.4879 74.022L23.4947 79.7519C23.4947 79.7519 18.3128 75.2136 16.5117 68.6803C16.5117 68.6803 18.7108 71.6238 22.2883 71.6238C26.5366 71.6238 30.205 68.3658 30.205 64.3091C30.205 60.2525 30.2296 40.7507 30.2296 32.544C30.2296 24.3374 22.9886 19.7992 20.2121 19.2119V19.2144Z" fill="url(#paint0_linear_1801_11373)"/>
<path d="M22.4552 80.0001C22.4552 80.0001 14.9317 73.0883 14.9317 64.5917V32.377C14.9317 27.2933 20.5952 25.8117 22.5904 25.8117C24.5855 25.8117 27.0966 27.0353 28.738 28.9665C28.738 28.9665 27.2908 23.6249 22.6223 21.3398C17.9563 19.0547 14.7695 19.2169 13.0643 19.2169C11.3591 19.2169 7.33438 19.2169 5.05175 19.2169C2.76913 19.2169 0 20.6616 0 24.5561V68.1004C0 72.0096 3.84533 73.5551 5.48665 74.135C7.12798 74.7149 22.4552 80.0001 22.4552 80.0001Z" fill="url(#paint1_linear_1801_11373)"/>
<path d="M30.2515 7.65871C30.2515 11.8898 26.8214 15.3174 22.5928 15.3174C18.3642 15.3174 14.9341 11.8873 14.9341 7.65871C14.9341 3.43008 18.3617 0 22.5928 0C26.8239 0 30.2515 3.43008 30.2515 7.65871Z" fill="url(#paint2_linear_1801_11373)"/>
</g>
</g>
<defs>
<linearGradient id="paint0_linear_1801_11373" x1="30.9126" y1="19.5362" x2="30.9126" y2="78.8182" gradientUnits="userSpaceOnUse">
<stop stop-color="#00B0C3"/>
<stop offset="1" stop-color="#3151B0"/>
</linearGradient>
<linearGradient id="paint1_linear_1801_11373" x1="14.369" y1="19.5363" x2="14.369" y2="80.3244" gradientUnits="userSpaceOnUse">
<stop stop-color="#3151B0"/>
<stop offset="1" stop-color="#00B0C3"/>
</linearGradient>
<linearGradient id="paint2_linear_1801_11373" x1="22.5928" y1="0.515986" x2="22.5928" y2="15.6884" gradientUnits="userSpaceOnUse">
<stop stop-color="#FABE40"/>
<stop offset="1" stop-color="#F07728"/>
</linearGradient>
<clipPath id="clip0_1801_11373">
<rect width="45.3134" height="80" fill="white"/>
</clipPath>
<clipPath id="clip1_1801_11373">
<rect width="45.3134" height="80" fill="white"/>
</clipPath>
</defs>
</svg>
