<svg width="80" height="30" viewBox="0 0 80 30" fill="none" xmlns="http://www.w3.org/2000/svg">
<g clip-path="url(#clip0_1801_11880)">
<g clip-path="url(#clip1_1801_11880)">
<path d="M79.9999 23.4289C79.9865 23.5087 79.9636 23.5881 79.9611 23.668C79.9198 24.962 79.482 26.119 78.7191 27.1503C77.6806 28.5542 76.2887 29.4097 74.5694 29.7153C74.2 29.7811 73.8186 29.8051 73.4425 29.8053C66.057 29.8104 58.6714 29.8091 51.2859 29.8091H51.0867V24.5629C52.0522 24.5616 53.011 24.5621 53.9922 24.5623V26.8627C54.0928 26.8665 54.1721 26.8722 54.2515 26.8723C56.0082 26.8729 57.7648 26.8727 59.5215 26.8727C63.9792 26.8727 68.4371 26.8716 72.8948 26.874C73.4873 26.8744 74.0656 26.7981 74.6069 26.5531C75.977 25.9333 76.7975 24.883 77.0286 23.3894C77.0592 23.1916 77.0671 22.9884 77.0671 22.7877C77.0692 17.5311 77.0617 12.2746 77.0724 7.01801C77.0764 5.10108 75.7718 3.52566 74.0794 3.08191C73.6806 2.9774 73.2752 2.9449 72.8642 2.94509C68.5575 2.94679 64.2508 2.94622 59.9443 2.94622C58.0491 2.94622 56.1539 2.94622 54.2587 2.94622H53.9977V5.24188H51.0859V0.0149854C51.1772 0.00988263 51.2628 0.0010001 51.3484 0.0010001C53.1996 0.000244141 55.0508 0.000433131 56.9017 0.000433131C62.3796 0.000433131 67.8573 0.00062212 73.3352 0.000244141C74.1607 0.000244141 74.9707 0.107401 75.7389 0.415455C78.0106 1.32639 79.4012 2.98156 79.8848 5.38589C79.9279 5.60039 79.9326 5.82246 79.9566 6.04093C79.9695 6.15848 79.9855 6.27565 80.0003 6.39302V23.4291L79.9999 23.4289Z" fill="#961A8B"/>
<path d="M37.2768 8.58851C36.5945 9.25375 35.9376 9.89424 35.2718 10.5434C35.2289 10.5119 35.1877 10.4862 35.1516 10.4546C34.55 9.92901 33.8417 9.64194 33.0598 9.52438C32.6297 9.45975 32.1958 9.43291 31.7609 9.45011C31.3432 9.46655 30.9343 9.53383 30.551 9.71035C29.806 10.0537 29.4042 10.6389 29.3802 11.4572C29.3643 11.9969 29.5682 12.4532 30.0171 12.7795C30.3971 13.0559 30.8282 13.2074 31.288 13.2764C32.0718 13.394 32.8574 13.4985 33.641 13.6166C34.2089 13.7022 34.7626 13.8451 35.2907 14.0755C36.39 14.5549 37.1214 15.3649 37.4531 16.5198C37.7218 17.4553 37.7708 18.406 37.5478 19.3562C37.2637 20.5661 36.5484 21.4672 35.4978 22.1121C34.7687 22.5596 33.9715 22.8291 33.1314 22.9574C31.6651 23.1816 30.2074 23.1148 28.7684 22.7474C27.8341 22.5089 26.9944 22.0771 26.2469 21.4672C26.2042 21.4323 26.1579 21.4016 26.0799 21.3878C26.2792 21.9395 26.4786 22.4912 26.678 23.043C26.5348 23.0889 23.8216 23.1073 23.3983 23.0666C23.3777 23.0107 23.3524 22.9478 23.331 22.8835C23.0562 22.0605 22.7818 21.2374 22.5074 20.4144C22.4915 20.3665 22.476 20.3187 22.4599 20.2711C22.4393 20.2099 22.3972 20.1802 22.3318 20.1819C22.2815 20.1832 22.2311 20.181 22.1808 20.181C20.4117 20.181 18.6423 20.181 16.8732 20.181C16.8481 20.181 16.8228 20.1808 16.7976 20.181C16.6166 20.183 16.6152 20.1827 16.5578 20.3509C16.3563 20.9398 16.1562 21.5292 15.9553 22.1183C15.8479 22.433 15.74 22.7474 15.6297 23.0702C15.5597 23.0738 15.4985 23.0797 15.4371 23.0797C13.3468 23.0803 11.2564 23.078 9.1662 23.0842C9.01558 23.0846 8.94376 23.0307 8.87478 22.9081C7.57491 20.593 6.27125 18.2797 4.96817 15.9663C4.91034 15.8635 4.85099 15.7618 4.78352 15.6444C4.73628 15.6883 4.70245 15.7136 4.67599 15.745C4.03002 16.5178 3.38613 17.2922 2.7379 18.063C2.66589 18.1486 2.65323 18.2376 2.65342 18.341C2.65493 19.8393 2.65436 21.3374 2.65436 22.8357C2.65436 22.9098 2.65436 22.9837 2.65436 23.0683H0.03742C0.0311833 23.0606 0.0270256 23.0559 0.0234348 23.0508C0.0198439 23.0457 0.0143632 23.0408 0.0134183 23.0351C0.00831556 23.0041 0.00056697 22.9731 0.00056697 22.9421C0 17.5909 0 12.24 0 6.8893C0 6.85811 0.00453576 6.82674 0.00907152 6.79575C0.0107724 6.78384 0.018899 6.77307 0.0291044 6.75039H2.65058C2.65191 7.0112 2.65361 7.27276 2.65436 7.53432C2.65493 7.79248 2.65436 8.05045 2.65436 8.30861V13.7969C2.66778 13.8027 2.68101 13.8084 2.69443 13.8143C2.73809 13.7659 2.7842 13.7196 2.82521 13.6689C3.73539 12.5429 4.64499 11.4166 5.5546 10.2902C6.47215 9.15396 7.39083 8.0187 8.30497 6.88004C8.38756 6.77723 8.47204 6.73546 8.60528 6.73622C9.75112 6.74151 10.897 6.73924 12.043 6.73924H12.2082C12.215 6.75285 12.2188 6.75814 12.2203 6.764C12.2218 6.76948 12.2218 6.7759 12.2207 6.78157C12.2195 6.78762 12.2174 6.79386 12.2142 6.79915C12.2076 6.80973 12.2004 6.82013 12.1927 6.82996C12.181 6.84489 12.1689 6.85925 12.1568 6.8738C10.4103 8.97461 8.66368 11.0754 6.91741 13.1764C6.90947 13.1859 6.90361 13.1972 6.89757 13.2082C6.89454 13.2135 6.8936 13.2199 6.89171 13.2259C6.96504 13.4263 12.3509 22.563 12.473 22.6788C14.4018 17.3639 16.3267 12.0595 18.2536 6.74963H20.7445C22.4467 11.4218 24.1484 16.0927 25.8623 20.7976C26.5009 20.1694 27.1134 19.5667 27.7305 18.9599C27.763 18.982 27.791 18.9964 27.8129 19.0168C28.518 19.6735 29.3654 20.0288 30.3036 20.1887C30.9957 20.3066 31.6921 20.3386 32.3912 20.2628C32.7873 20.2199 33.1726 20.1326 33.5351 19.9612C34.3 19.5996 34.6587 18.9291 34.5727 18.0656C34.5591 17.9284 34.5381 17.7902 34.502 17.6576C34.3595 17.1333 34.0159 16.7878 33.5202 16.5858C33.215 16.4614 32.8928 16.4049 32.5686 16.3584C31.7781 16.2451 30.9855 16.1434 30.1974 16.0139C29.555 15.9083 28.9393 15.7076 28.3644 15.3944C27.3542 14.8441 26.7228 14.0053 26.4701 12.8859C26.2569 11.9412 26.2664 10.9972 26.5625 10.0709C26.99 8.73403 27.8955 7.8299 29.1663 7.27522C29.8474 6.97793 30.5644 6.8241 31.3045 6.76967C32.3409 6.69369 33.3669 6.75436 34.378 7.00345C35.4199 7.2601 36.3337 7.75733 37.128 8.47719C37.1696 8.51499 37.218 8.54542 37.276 8.58888L37.2768 8.58851ZM21.5566 17.5005C21.528 17.2726 19.6521 11.7078 19.5576 11.5815C18.8733 13.5561 18.1935 15.5176 17.5063 17.5005H21.5568H21.5566Z" fill="#961A8B"/>
<path d="M62.4464 23.0688H59.0593C59.0319 23.0147 58.9988 22.9552 58.9709 22.8936C58.045 20.848 57.1199 18.8021 56.1944 16.7563C56.1763 16.7163 56.1551 16.6773 56.1387 16.6365C56.1148 16.5773 56.075 16.5477 56.0092 16.5481C55.3421 16.5516 54.6749 16.5541 54.008 16.5573C54.0025 16.5573 53.997 16.5624 53.9632 16.5796C53.9488 16.7994 53.9592 17.0362 53.9573 17.2723C53.9554 17.5115 53.957 17.7506 53.957 17.9899V23.0433C53.8046 23.0884 51.4706 23.1054 51.0626 23.0692C51.0214 22.9391 51.004 7.08325 51.0467 6.75214C51.0977 6.74817 51.1522 6.74004 51.2066 6.74004C53.1456 6.73947 55.0849 6.73702 57.0239 6.74099C57.7693 6.7425 58.4874 6.88745 59.1644 7.20647C60.174 7.68235 60.9101 8.43585 61.3608 9.45167C61.9235 10.7198 62.01 12.0314 61.5922 13.356C61.214 14.5544 60.4265 15.4086 59.2884 15.9401C59.2268 15.9688 59.1653 15.9979 59.0803 16.0378C60.2008 18.3784 61.3158 20.7072 62.4466 23.0692L62.4464 23.0688ZM53.9696 13.9033C54.0549 13.9071 54.1284 13.9132 54.2019 13.9132C55.0077 13.9139 55.8134 13.9156 56.6193 13.912C56.795 13.9113 56.9729 13.9054 57.1458 13.8771C57.9373 13.748 58.4973 13.3209 58.7732 12.5585C58.9612 12.0393 58.9582 11.5092 58.7983 10.9823C58.7076 10.6833 58.5534 10.4178 58.3349 10.1918C57.9167 9.75897 57.3922 9.57224 56.805 9.56487C55.9175 9.55372 55.0299 9.56166 54.1422 9.56261C54.0876 9.56261 54.0329 9.57168 53.9696 9.57735V13.9031V13.9033Z" fill="#961A8B"/>
<path d="M41.7312 16.9194C41.7303 17.3489 41.729 17.7558 41.7286 18.1627C41.7282 18.5719 41.7286 18.981 41.7286 19.3904V23.0464C41.5757 23.0861 39.0555 23.0957 38.8321 23.0621C38.7902 22.912 38.7864 6.92897 38.8327 6.73922C38.8962 6.73922 38.9642 6.73922 39.0323 6.73922C40.9086 6.73922 42.7849 6.73903 44.6612 6.73922C45.5847 6.73922 46.4613 6.9318 47.2643 7.40031C48.3 8.0047 48.992 8.89389 49.3534 10.029C49.8261 11.514 49.7525 12.9772 49.0402 14.3733C48.3597 15.7074 47.2507 16.5034 45.7883 16.809C45.3992 16.8902 45.0046 16.9214 44.6065 16.9203C43.7313 16.9175 42.8561 16.9194 41.9809 16.9194H41.7314H41.7312ZM41.7286 14.059C41.8163 14.0639 41.8719 14.0698 41.9272 14.0699C42.7956 14.0705 43.6642 14.0722 44.5326 14.0684C44.6829 14.0679 44.8352 14.0556 44.9828 14.028C45.7637 13.8815 46.3097 13.4461 46.5713 12.6881C46.7684 12.1171 46.765 11.5367 46.5713 10.9652C46.3456 10.2996 45.8924 9.85472 45.2124 9.66535C44.9909 9.60374 44.7549 9.56972 44.5249 9.56651C43.6691 9.55517 42.8132 9.56178 41.9573 9.56235C41.8902 9.56235 41.8231 9.56915 41.7284 9.57407C41.7282 11.0716 41.7284 12.5531 41.7284 14.0588L41.7286 14.059Z" fill="#961A8B"/>
<path d="M66.2251 22.4876C66.1477 22.4485 66.091 22.4243 66.0386 22.3929C64.6161 21.5423 63.7103 20.3286 63.4186 18.6785C63.2812 17.901 63.2368 17.1167 63.2338 16.3298C63.2296 15.2472 63.2251 14.1645 63.2423 13.0821C63.2552 12.2704 63.3306 11.4644 63.5243 10.6701C64.013 8.6664 65.8377 7.16544 67.624 6.84851C68.7179 6.65441 69.8033 6.67388 70.8367 7.09854C72.5805 7.815 73.7141 9.08218 74.1368 10.9445C74.2837 11.5912 74.3423 12.2495 74.3585 12.9102C74.3785 13.7153 74.3895 14.5209 74.3869 15.3264C74.3846 16.0431 74.3583 16.7597 74.3421 17.5047C74.2498 17.4497 74.2326 17.3817 74.2035 17.3252C73.09 15.1818 71.9774 13.0379 70.8648 10.894C70.8242 10.8158 70.7849 10.7372 70.7431 10.6597C70.5455 10.293 70.1926 10.1214 69.7984 10.1993C69.4227 10.2736 69.1484 10.5922 69.1176 11.0017C69.0874 11.4032 69.0653 11.8053 69.0394 12.2071C68.9785 13.1489 68.9173 14.0904 68.8564 15.032C68.8179 15.6284 68.7795 16.2247 68.7408 16.8211C68.7385 16.8563 68.7327 16.8912 68.7243 16.9606C68.6399 16.8818 68.5767 16.8238 68.5148 16.7646C67.704 15.9915 66.893 15.2183 66.0832 14.4442C65.9721 14.338 65.8492 14.2552 65.7018 14.2083C65.1454 14.0316 64.4656 14.5164 64.631 15.2508C64.7705 15.8701 64.9056 16.4906 65.0436 17.1103C65.4272 18.8346 65.8113 20.559 66.1945 22.2835C66.2076 22.3425 66.2127 22.4033 66.2251 22.4874V22.4876Z" fill="#961A8B"/>
<path d="M70.0133 11.1994C70.0554 11.2757 70.077 11.3129 70.0968 11.3509C71.4039 13.8677 72.7104 16.385 74.0201 18.9005C74.0766 19.009 74.0854 19.1059 74.0535 19.2218C73.5343 21.1034 71.924 22.5956 69.9966 22.9717C69.7574 23.0184 69.5142 23.0452 69.2749 23.081C69.2322 22.9077 69.9065 12.1116 70.0133 11.199V11.1994Z" fill="#961A8B"/>
<path d="M65.5381 15.1614C65.6229 15.2393 65.6832 15.2926 65.7414 15.3482C66.6699 16.234 67.5964 17.1222 68.5292 18.0035C68.6345 18.1029 68.6583 18.2019 68.6483 18.3353C68.5971 19.0187 68.5521 19.7027 68.5047 20.3863C68.4455 21.2394 68.386 22.0923 68.3261 22.9454C68.3234 22.9818 68.3159 23.0181 68.3066 23.0811C68.1392 23.0573 67.9796 23.0374 67.8213 23.0111C67.6788 22.9875 67.5382 22.9514 67.3955 22.9306C67.2774 22.9134 67.2277 22.8497 67.204 22.7367C67.1216 22.3431 67.0313 21.9511 66.9442 21.5586C66.4815 19.4727 66.0191 17.387 65.557 15.3009C65.5494 15.2669 65.5473 15.2317 65.5381 15.1613V15.1614Z" fill="#961A8B"/>
</g>
</g>
<defs>
<clipPath id="clip0_1801_11880">
<rect width="80" height="29.8092" fill="white"/>
</clipPath>
<clipPath id="clip1_1801_11880">
<rect width="80" height="29.8092" fill="white"/>
</clipPath>
</defs>
</svg>
