<svg width="56" height="80" viewBox="0 0 56 80" fill="none" xmlns="http://www.w3.org/2000/svg">
<g clip-path="url(#clip0_1801_11852)">
<g clip-path="url(#clip1_1801_11852)">
<path d="M55.7435 26.0207V29.1223C55.6915 29.5268 55.7097 29.9357 55.6732 30.3405C55.5349 31.8773 55.285 33.3958 54.8887 34.8884C53.2958 40.8879 50.0797 45.8415 45.2295 49.7064C40.5866 53.4061 35.2682 55.3847 29.3428 55.7149C27.8297 55.7993 26.3161 55.7508 24.8068 55.5809C22.8633 55.3623 20.9572 54.9714 19.1098 54.3325C11.6734 51.761 6.21108 46.9372 2.74309 39.879C1.16577 36.6689 0.322115 33.252 0.0817329 29.6858C-0.00728756 28.3635 0.00795753 27.0418 0.111679 25.7196C0.227922 24.2346 0.449521 22.767 0.804514 21.3208C2.07911 16.128 4.6147 11.6427 8.45401 7.92313C13.3147 3.21485 19.1457 0.613651 25.8914 0.0778947C27.7037 -0.066117 29.5148 -0.00540891 31.3211 0.215917C33.2439 0.4514 35.1278 0.8622 36.952 1.51148C44.1782 4.08327 49.5243 8.80136 52.955 15.6573C54.5628 18.8702 55.4718 22.2881 55.692 25.8813C55.695 25.9314 55.6754 25.9932 55.7435 26.0207ZM33.1611 28.7354V29.5031C33.1611 32.4051 33.1611 35.3071 33.1611 38.2092C33.1611 38.345 33.1614 38.4803 33.1845 38.6156C33.3212 39.4157 33.7701 40.0021 34.4687 40.3753C35.8111 41.0929 37.2005 41.1378 38.5737 40.4891C39.566 40.0203 40.0851 39.2189 40.0797 38.0823C40.0653 35.1168 40.0742 32.1511 40.0751 29.1857C40.0756 27.7891 40.0756 26.3934 39.9683 24.9993C39.8856 23.9226 39.7604 22.8535 39.526 21.7981C39.2347 20.4867 38.6643 19.3218 37.7398 18.3383C36.8243 17.3642 35.7259 16.6548 34.5084 16.1247C32.2573 15.1447 29.8881 14.7921 27.4494 14.84C25.7637 14.8733 24.1099 15.1215 22.4996 15.6303C21.0524 16.0874 19.6992 16.7296 18.5201 17.701C17.1535 18.8272 16.2649 20.2325 15.9963 22.008C15.8209 23.168 15.7534 24.3348 15.7496 25.504C15.7357 29.7664 15.7379 34.0287 15.7341 38.2911C15.7341 38.4272 15.7414 38.5622 15.77 38.6964C15.9217 39.4102 16.3218 39.9482 16.9308 40.3369C17.462 40.6761 18.0505 40.8471 18.6726 40.9035C19.5889 40.9868 20.4677 40.8474 21.2675 40.3753C22.1123 39.8771 22.5541 39.1478 22.5555 38.1392C22.5606 34.2035 22.5097 30.2678 22.5881 26.3327C22.599 25.7896 22.5663 25.2448 22.6409 24.7031C22.932 22.5892 24.6595 20.9993 26.7903 20.888C29.1794 20.763 31.2525 22.6104 31.409 25.0034C31.5588 27.2934 29.9627 29.2984 27.6906 29.6757C27.6353 29.685 27.564 29.6705 27.5368 29.7579C28.6314 30.1061 29.7397 30.2082 30.8662 29.9746C31.7112 29.7996 32.4642 29.4446 33.0422 28.7779C33.0639 28.7528 33.0833 28.7172 33.1603 28.7351L33.1611 28.7354Z" fill="#009AD9"/>
<path d="M55.7434 67.2671C55.5913 67.5336 55.3484 67.5992 55.0604 67.5984C53.3829 67.594 51.7051 67.5959 50.0276 67.597C49.9288 67.597 49.8284 67.5812 49.7314 67.6128C49.7102 68.5109 50.3559 69.3948 51.2693 69.6516C52.261 69.9301 53.1896 69.7999 54.0017 69.1147C54.1607 68.9805 54.2968 68.8185 54.4822 68.7167C54.7365 68.577 54.9894 68.5888 55.2276 68.7466C55.4505 68.8945 55.5406 69.1163 55.5227 69.3799C55.5096 69.5704 55.4037 69.7188 55.2812 69.8555C55.0188 70.1489 54.713 70.3909 54.3654 70.5731C53.0747 71.2496 51.7343 71.337 50.3696 70.8461C49.5087 70.5363 48.8518 69.9551 48.4465 69.1332C47.7771 67.7767 47.7305 66.3837 48.4008 65.0225C49.0683 63.6668 50.2133 62.9688 51.7141 62.8552C52.1867 62.8196 52.6558 62.8544 53.112 62.999C54.4054 63.409 55.1728 64.3196 55.5782 65.5787C55.6699 65.8634 55.6852 66.161 55.7434 66.4509V67.2671ZM49.7793 66.201C49.8303 66.2048 49.8836 66.2124 49.937 66.2127C51.2766 66.2135 52.6163 66.2138 53.9557 66.2127C54.1939 66.2127 54.2089 66.1964 54.1498 65.9666C53.9772 65.2961 53.62 64.7606 52.9906 64.4385C51.9599 63.9112 50.299 64.2306 49.8185 65.8781C49.7894 65.9778 49.7298 66.0801 49.7793 66.201Z" fill="#232323"/>
<path d="M17.4853 80C17.4494 79.9096 17.3577 79.9178 17.2874 79.8908C17.0536 79.8012 16.8554 79.6621 16.6969 79.4689C16.578 79.3238 16.575 79.1561 16.6822 79.0523C16.7969 78.9415 16.9539 78.9418 17.1009 79.0572C17.1508 79.0962 17.1935 79.1438 17.2406 79.1865C17.6313 79.5413 18.5511 79.4792 18.6992 78.7055C18.7303 78.5435 18.7406 78.3845 18.7395 78.17C18.3807 78.5626 17.9604 78.666 17.4908 78.5792C17.1576 78.5177 16.8856 78.3432 16.6733 78.0796C16.2309 77.5311 16.2731 76.609 16.7623 76.1005C17.2861 75.5558 18.0287 75.5321 18.7199 76.0395C18.7373 75.9889 18.7493 75.9366 18.7722 75.8901C18.8457 75.7414 18.953 75.6815 19.0981 75.702C19.2328 75.721 19.3395 75.8261 19.3684 75.9706C19.3736 75.9971 19.3744 76.0248 19.3741 76.0518C19.3646 76.8856 19.4013 77.72 19.3412 78.5533C19.3259 78.7627 19.2742 78.9639 19.1933 79.1574C19.0373 79.5312 18.7697 79.7806 18.3796 79.9006C18.2977 79.9259 18.1972 79.9156 18.1384 79.9997H17.4853V80ZM18.7319 77.1208C18.7273 76.6224 18.369 76.2766 17.8621 76.2815C17.3718 76.2862 17.0062 76.6605 17.013 77.1505C17.0198 77.6443 17.3887 78.0007 17.8847 77.9931C18.3717 77.9857 18.7365 77.61 18.7322 77.1208H18.7319Z" fill="#232323"/>
<path d="M33.1611 28.7354C33.0841 28.7175 33.0647 28.7531 33.043 28.7782C32.465 29.4452 31.712 29.7999 30.867 29.9749C29.7405 30.2082 28.6325 30.1064 27.5376 29.7582C27.5648 29.6708 27.6361 29.6853 27.6914 29.676C29.9634 29.2987 31.5595 27.2937 31.4098 25.0037C31.2533 22.6107 29.18 20.7633 26.7911 20.8883C24.6601 20.9996 22.9327 22.5895 22.6417 24.7034C22.5671 25.2451 22.5998 25.7899 22.5889 26.333C22.5105 30.2681 22.5614 34.2041 22.5562 38.1395C22.5549 39.1484 22.1128 39.8774 21.2683 40.3756C20.4685 40.8474 19.5897 40.9871 18.6734 40.9038C18.0513 40.8471 17.4627 40.6762 16.9316 40.3372C16.3226 39.9485 15.9224 39.4105 15.7708 38.6968C15.7422 38.5623 15.7346 38.4275 15.7349 38.2914C15.7387 34.029 15.7365 29.7667 15.7504 25.5043C15.7542 24.3351 15.8217 23.168 15.997 22.0083C16.2655 20.233 17.1543 18.8275 18.5209 17.7013C19.7 16.7297 21.0532 16.0877 22.5004 15.6306C24.1107 15.1218 25.7648 14.8736 27.4502 14.8404C29.8889 14.7922 32.2578 15.145 34.5092 16.125C35.7266 16.6551 36.8251 17.3645 37.7406 18.3386C38.6651 19.3221 39.2355 20.4873 39.5267 21.7984C39.7611 22.8538 39.8864 23.9229 39.9691 24.9996C40.0764 26.3937 40.0761 27.7897 40.0758 29.186C40.075 32.1514 40.066 35.1172 40.0805 38.0826C40.0859 39.2189 39.5668 40.0206 38.5745 40.4894C37.201 41.1381 35.8116 41.0932 34.4695 40.3756C33.7712 40.0024 33.322 39.416 33.1853 38.6159C33.1622 38.4806 33.1619 38.3453 33.1619 38.2095C33.1619 35.3074 33.1619 32.4054 33.1619 29.5034V28.7357L33.1611 28.7354Z" fill="#FEFEFE"/>
<path d="M39.9994 64.0969C40.09 64 40.1619 63.9189 40.2381 63.8426C41.8478 62.2332 44.6682 62.4434 46.0185 64.2739C46.4905 64.9139 46.7325 65.6391 46.7442 66.4283C46.7625 67.652 46.7557 68.8762 46.753 70.1005C46.7521 70.4642 46.5978 70.7528 46.2591 70.912C45.9455 71.0596 45.6406 71.0242 45.3637 70.8143C45.1296 70.6371 45.0335 70.3893 45.0316 70.1024C45.0292 69.7036 45.0311 69.3045 45.0311 68.9054C45.0311 68.053 45.0349 67.2006 45.03 66.3483C45.0245 65.3982 44.3992 64.6109 43.4864 64.3928C42.4963 64.1563 41.5095 64.5774 41.0771 65.4238C40.9171 65.7368 40.858 66.072 40.8588 66.4223C40.8618 67.5921 40.8605 68.7616 40.8594 69.9314C40.8594 70.04 40.858 70.1495 40.8441 70.257C40.7869 70.6937 40.4091 71.0166 39.98 71.0008C39.5404 70.9847 39.187 70.6523 39.1486 70.2162C39.1416 70.1351 39.1446 70.0531 39.1446 69.9714C39.1446 68.7837 39.1462 67.5957 39.1437 66.4079C39.1421 65.5585 38.7738 64.9155 38.0053 64.5504C37.2237 64.1791 36.45 64.2426 35.7465 64.7609C35.2056 65.1594 34.9674 65.7249 34.9652 66.3888C34.9611 67.5948 34.9644 68.8008 34.9636 70.0068C34.9636 70.1424 34.9696 70.2782 34.9252 70.4106C34.7956 70.7971 34.4131 71.0421 34.0159 70.9904C33.5875 70.9343 33.2771 70.6185 33.2632 70.1955C33.2496 69.7787 33.2578 69.3614 33.2583 68.9443C33.2591 68.074 33.2365 67.2026 33.2692 66.3333C33.3106 65.227 33.762 64.2978 34.6263 63.5955C35.4395 62.9347 36.3863 62.6895 37.423 62.7812C38.4441 62.8713 39.2965 63.3033 39.9996 64.0977L39.9994 64.0969Z" fill="#232323"/>
<path d="M10.9045 67.5963C10.9513 68.6667 11.655 69.5068 12.6656 69.7099C13.6483 69.9072 14.5385 69.7205 15.2915 69.0233C15.3778 68.9433 15.4633 68.8611 15.557 68.79C15.8706 68.5521 16.2697 68.5722 16.5201 68.8336C16.7703 69.0946 16.7793 69.4651 16.5327 69.7739C16.3448 70.0091 16.1197 70.2064 15.8703 70.3749C15.1856 70.8375 14.4261 71.0803 13.6051 71.1328C12.9852 71.1726 12.3743 71.1236 11.7795 70.9281C10.6282 70.5494 9.83243 69.7935 9.41864 68.6582C8.99858 67.5056 8.98905 66.3393 9.49296 65.2131C10.1523 63.7392 11.3256 62.962 12.9313 62.8548C14.1457 62.7736 15.1783 63.1711 15.9781 64.1076C16.4728 64.6869 16.7515 65.3688 16.8874 66.1134C16.9429 66.4178 16.9658 66.7251 16.9565 67.0338C16.9467 67.3613 16.7668 67.5513 16.439 67.5886C16.3405 67.5998 16.2397 67.596 16.1401 67.596C14.4985 67.5963 12.8567 67.596 11.2151 67.596H10.905L10.9045 67.5963ZM10.9696 66.1948C11.0379 66.2239 11.1111 66.2125 11.1827 66.2125C12.4952 66.213 13.8076 66.2133 15.1198 66.2125C15.3912 66.2125 15.3871 66.2117 15.3237 65.9403C15.0985 64.9738 14.2671 64.1778 13.1256 64.2102C12.0803 64.2399 11.2148 64.9349 10.972 65.9822C10.9562 66.0508 10.9279 66.1218 10.9696 66.1945V66.1948Z" fill="#232323"/>
<path d="M5.91953 68.1819C5.91953 67.5925 5.91817 67.0028 5.91953 66.4135C5.9228 65.2595 5.15346 64.6132 4.43041 64.4104C3.32705 64.1006 2.20381 64.6548 1.84773 65.6899C1.76061 65.943 1.74129 66.2027 1.74129 66.4665C1.74183 67.6456 1.74129 68.8244 1.74129 70.0034C1.74129 70.112 1.74129 70.2201 1.71624 70.3276C1.62912 70.7074 1.31851 70.9731 0.9254 70.9981C0.560607 71.0216 0.203164 70.7872 0.0787529 70.4363C0.0335621 70.3086 0.00688321 70.1774 0.00715545 70.0377C0.0109667 68.8679 -0.0176178 67.6973 0.0153225 66.5283C0.0735805 64.4449 1.42903 63.1374 3.051 62.833C5.11698 62.4454 7.11899 63.6269 7.55184 65.7669C7.59867 65.9978 7.62998 66.2313 7.62998 66.4682C7.6297 67.6744 7.63134 68.8804 7.62916 70.0867C7.62807 70.5863 7.33542 70.9282 6.86772 70.9892C6.4395 71.045 6.02516 70.7529 5.94267 70.329C5.92198 70.2234 5.92035 70.1128 5.9198 70.0045C5.9179 69.3969 5.91871 68.7892 5.91871 68.1816L5.91953 68.1819Z" fill="#232323"/>
<path d="M27.2615 69.4216C27.3786 69.4761 27.4695 69.4554 27.5569 69.4554C28.6725 69.457 29.7879 69.4565 30.9035 69.4565C30.9759 69.4565 31.0489 69.4532 31.121 69.4578C31.5457 69.485 31.8048 69.742 31.8141 70.143C31.8231 70.5372 31.5634 70.8111 31.1425 70.8478C31.0614 70.8549 30.9794 70.8525 30.8978 70.8525C29.2382 70.8525 27.5784 70.8492 25.9189 70.8552C25.5527 70.8566 25.2168 70.8043 25.048 70.437C24.8779 70.0663 25.0382 69.7633 25.2805 69.4714C26.6071 67.8745 27.9258 66.2705 29.2469 64.669C29.3153 64.5859 29.3817 64.5013 29.459 64.4046C29.373 64.3357 29.2801 64.3657 29.1977 64.3654C28.1185 64.3632 27.0391 64.3643 25.96 64.3635C25.8606 64.3635 25.7599 64.3638 25.6619 64.3499C25.2549 64.2927 25.0211 64.0063 25.0407 63.5974C25.0581 63.2362 25.3273 62.9835 25.7299 62.9729C26.1288 62.9626 26.5279 62.9699 26.927 62.9699C28.2329 62.9699 29.5388 62.9699 30.8447 62.9699C30.9263 62.9699 31.0083 62.9664 31.0894 62.9732C31.6611 63.0206 31.9467 63.5702 31.6548 64.0657C31.6048 64.1509 31.5394 64.2282 31.4763 64.3047C30.1205 65.9482 28.7637 67.5911 27.4077 69.2343C27.3623 69.2893 27.3198 69.3465 27.2613 69.4211L27.2615 69.4216Z" fill="#232323"/>
<path d="M21.1276 66.3279C21.1276 66.8898 21.1284 67.4519 21.1276 68.0141C21.1273 68.2055 21.1491 68.3941 21.1932 68.5798C21.3129 69.0821 21.6369 69.3701 22.1514 69.448C22.4672 69.4959 22.7844 69.4787 23.1012 69.4872C23.4138 69.4953 23.6452 69.6622 23.7462 69.9399C23.909 70.3872 23.6343 70.8603 23.1522 70.8935C22.5007 70.9382 21.8452 70.9316 21.2125 70.7315C20.2338 70.422 19.6983 69.7243 19.499 68.7407C19.4375 68.4374 19.4174 68.1301 19.4171 67.8216C19.4157 66.761 19.4166 65.7004 19.4166 64.6398C19.4166 64.5853 19.4176 64.5309 19.4166 64.4767C19.4119 64.2829 19.4117 64.2799 19.226 64.2785C18.9358 64.2761 18.6459 64.278 18.3557 64.2777C18.2833 64.2777 18.2103 64.2799 18.1382 64.2742C17.7401 64.2431 17.4783 63.9537 17.481 63.5508C17.4837 63.1504 17.7543 62.8618 18.1558 62.8504C18.5092 62.8403 18.8631 62.8496 19.2165 62.8468C19.4098 62.8452 19.4147 62.8419 19.4157 62.6506C19.4185 62.0522 19.4168 61.4538 19.4168 60.8557C19.4168 60.7833 19.4138 60.7106 19.4179 60.6382C19.4465 60.1403 19.7933 59.8106 20.2823 59.8152C20.7641 59.8196 21.1186 60.1651 21.1254 60.6597C21.1344 61.2943 21.1276 61.9289 21.1278 62.5634C21.1278 62.6269 21.1278 62.6903 21.1289 62.7537C21.13 62.8185 21.1616 62.8534 21.2288 62.8528C21.2923 62.8525 21.3557 62.8534 21.4191 62.8534C21.9723 62.8534 22.5255 62.846 23.0784 62.8561C23.6125 62.8659 23.9367 63.3554 23.7396 63.8454C23.6226 64.1369 23.3939 64.2796 23.0822 64.2812C22.52 64.2842 21.9579 64.2829 21.3957 64.2818C21.1088 64.2812 21.1284 64.2271 21.1278 64.5605C21.1273 64.9321 21.1278 65.304 21.1278 65.6756C21.1278 65.8931 21.1278 66.1106 21.1278 66.3282L21.1276 66.3279Z" fill="#232323"/>
<path d="M42.3668 77.0325C42.5807 77.3344 42.7953 77.6365 43.009 77.9395C43.0506 77.9986 43.0963 78.0566 43.1266 78.1214C43.1998 78.2771 43.1532 78.4424 43.0201 78.5292C42.8848 78.6174 42.7174 78.5981 42.6009 78.4728C42.5522 78.4203 42.5149 78.3566 42.4746 78.2964C42.2233 77.9197 41.9737 77.5418 41.721 77.1659C41.6358 77.0393 41.3502 76.9685 41.216 77.0325C41.151 77.0635 41.1646 77.1212 41.1643 77.1721C41.1627 77.4713 41.1635 77.7702 41.1632 78.0694C41.1632 78.1328 41.167 78.1965 41.1619 78.2597C41.1463 78.444 41.0233 78.5692 40.8537 78.579C40.689 78.5883 40.5501 78.4693 40.5207 78.2847C40.5096 78.2137 40.5142 78.1402 40.5142 78.0678C40.5139 77.0164 40.5142 75.965 40.5142 74.9137C40.5142 74.8502 40.5104 74.7863 40.5175 74.7234C40.5425 74.502 40.6484 74.3978 40.8717 74.3956C41.3429 74.391 41.8147 74.3831 42.2856 74.3991C42.7169 74.4138 43.0473 74.6183 43.2425 75.0103C43.4614 75.4497 43.4674 75.9013 43.2738 76.3492C43.1369 76.6663 42.8963 76.8751 42.5551 76.9579C42.4939 76.9728 42.4305 76.9821 42.3668 77.0325ZM41.1638 75.6952C41.1638 75.8945 41.1659 76.0941 41.1627 76.2933C41.1613 76.3802 41.1866 76.4316 41.2833 76.43C41.5912 76.4251 41.8993 76.4292 42.207 76.4164C42.4294 76.4074 42.5728 76.2686 42.6602 76.0756C42.7708 75.8319 42.7675 75.5814 42.6586 75.3378C42.562 75.1219 42.3967 74.994 42.1517 74.9915C41.8708 74.9885 41.5895 74.9937 41.3089 74.9858C41.1809 74.9823 41.1586 75.0432 41.1619 75.151C41.1673 75.3321 41.1632 75.5134 41.1635 75.6947L41.1638 75.6952Z" fill="#232323"/>
<path d="M23.6872 77.034C23.9151 77.3553 24.1348 77.6648 24.3545 77.9743C24.4016 78.0405 24.4538 78.1026 24.4693 78.187C24.4971 78.34 24.447 78.4663 24.3242 78.5373C24.1903 78.6146 24.0395 78.5961 23.9284 78.4791C23.8791 78.4271 23.8424 78.3631 23.8021 78.3029C23.5503 77.9267 23.3001 77.5497 23.0475 77.174C22.9584 77.0417 22.6889 76.9649 22.5466 77.0278C22.4695 77.0618 22.4894 77.1326 22.4891 77.1922C22.4875 77.4911 22.4883 77.79 22.4883 78.089C22.4883 78.1524 22.4932 78.2166 22.4853 78.279C22.463 78.4554 22.3233 78.5798 22.1559 78.5787C21.998 78.5776 21.8709 78.4644 21.8453 78.2931C21.8347 78.2221 21.839 78.1486 21.839 78.0762C21.8387 77.0164 21.8387 75.9563 21.839 74.8965C21.839 74.8241 21.8352 74.7506 21.8458 74.6795C21.8722 74.5036 21.9754 74.3991 22.1554 74.3972C22.6625 74.3918 23.1713 74.3762 23.6769 74.4062C24.1987 74.4372 24.5595 74.7985 24.689 75.3552C24.7585 75.6533 24.7467 75.95 24.6422 76.2378C24.5069 76.6099 24.2597 76.868 23.8623 76.9614C23.8184 76.9717 23.7754 76.9864 23.7324 77.0003C23.7242 77.003 23.718 77.0109 23.6875 77.0343L23.6872 77.034ZM22.4883 75.6748C22.4883 75.883 22.4907 76.0916 22.4872 76.2998C22.4858 76.3891 22.5152 76.433 22.6108 76.4311C22.9094 76.4256 23.2086 76.4297 23.5073 76.4199C23.7278 76.4125 23.8778 76.2884 23.9709 76.0943C24.1016 75.8221 24.0909 75.5506 23.9516 75.2855C23.8557 75.1034 23.7025 74.9986 23.4945 74.9942C23.2048 74.9879 22.9146 74.9934 22.625 74.9871C22.5163 74.9847 22.4842 75.0293 22.4872 75.1314C22.4924 75.3124 22.4886 75.4938 22.4888 75.6748H22.4883Z" fill="#232323"/>
<path d="M48.306 76.0481C48.5651 75.75 48.8806 75.6601 49.2283 75.6694C49.5928 75.6792 49.8612 75.8613 50.0417 76.1972C50.3085 75.7824 50.6722 75.6253 51.1244 75.6759C51.6435 75.7342 51.9621 76.044 52.0418 76.5599C52.0598 76.6758 52.0685 76.7943 52.0693 76.9116C52.0726 77.3194 52.0707 77.7272 52.0704 78.135C52.0704 78.1894 52.0737 78.2444 52.0658 78.2978C52.0407 78.4666 51.912 78.5796 51.7522 78.5787C51.5937 78.5779 51.4699 78.463 51.4475 78.2896C51.4394 78.227 51.4437 78.163 51.4437 78.0996C51.4434 77.7642 51.4437 77.4288 51.4437 77.0937C51.4437 77.0303 51.4459 76.9666 51.4421 76.9034C51.4209 76.534 51.211 76.3002 50.887 76.2833C50.532 76.2648 50.2541 76.4842 50.1958 76.8384C50.1781 76.9448 50.1784 77.0551 50.1776 77.1637C50.1754 77.4808 50.177 77.798 50.1765 78.1154C50.1765 78.1788 50.1811 78.2434 50.1705 78.3051C50.1419 78.4709 50.0055 78.5834 49.8482 78.579C49.7006 78.5749 49.5781 78.469 49.5501 78.3114C49.5392 78.2496 49.5438 78.1851 49.5435 78.1217C49.543 77.7773 49.5435 77.4329 49.5433 77.0885C49.5433 77.0251 49.5454 76.9614 49.5424 76.8982C49.5245 76.5277 49.3116 76.2923 48.9879 76.283C48.5978 76.2716 48.3057 76.5095 48.2866 76.8857C48.2678 77.2565 48.2801 77.6286 48.2787 78.0002C48.2785 78.0819 48.2836 78.1639 48.276 78.2447C48.2567 78.4483 48.1266 78.5793 47.9512 78.579C47.7748 78.579 47.6431 78.4478 47.6414 78.2379C47.6357 77.5129 47.6368 76.7877 47.6406 76.0628C47.6417 75.8586 47.7432 75.7328 47.9055 75.704C48.0737 75.674 48.1794 75.7464 48.2684 75.9539C48.279 75.9784 48.2883 76.0034 48.306 76.0483V76.0481Z" fill="#232323"/>
<path d="M29.6301 76.0339C30.033 75.5719 30.9679 75.4753 31.3414 76.1545C31.4141 76.167 31.4312 76.1017 31.4604 76.0622C31.7315 75.6931 32.2161 75.5785 32.6889 75.7228C33.1338 75.8583 33.333 76.2092 33.3725 76.6454C33.421 77.1784 33.3946 77.7144 33.3883 78.2491C33.3859 78.4546 33.2465 78.5823 33.0676 78.5788C32.8893 78.5752 32.7731 78.4475 32.7701 78.2295C32.7646 77.8396 32.7695 77.4498 32.7673 77.06C32.7668 76.9699 32.7646 76.8778 32.7472 76.7902C32.6832 76.4684 32.4932 76.295 32.2008 76.2822C31.8788 76.268 31.6104 76.4572 31.5333 76.766C31.5075 76.8702 31.5025 76.9813 31.5012 77.0894C31.4971 77.4158 31.4998 77.7422 31.4996 78.0686C31.4996 78.123 31.5012 78.1778 31.4966 78.2317C31.4767 78.4552 31.346 78.5888 31.1598 78.5785C30.9823 78.5687 30.8723 78.4416 30.8696 78.2205C30.8647 77.8307 30.8682 77.4408 30.8677 77.051C30.8677 76.9786 30.871 76.9053 30.8617 76.8337C30.8179 76.4937 30.6055 76.2876 30.2982 76.2822C29.9418 76.2759 29.6742 76.4823 29.616 76.8152C29.5719 77.067 29.601 77.3219 29.5958 77.5753C29.5915 77.7928 29.6013 78.0109 29.5912 78.2279C29.5808 78.4524 29.4453 78.5869 29.2593 78.5785C29.0827 78.5706 28.9664 78.4416 28.9653 78.2243C28.9612 77.5081 28.9618 76.7918 28.9648 76.0756C28.9656 75.8529 29.0663 75.7255 29.2408 75.7023C29.4096 75.68 29.5005 75.7505 29.5877 75.9694C29.5939 75.9852 29.6064 75.9985 29.6304 76.0339H29.6301Z" fill="#232323"/>
<path d="M3.61259 75.9982C3.61259 76.3608 3.60143 76.7234 3.61477 77.0855C3.64608 77.9466 2.94317 78.6473 2.0026 78.6065C1.12601 78.5686 0.532269 77.9716 0.517569 77.0909C0.504774 76.3208 0.514574 75.5504 0.514574 74.7802C0.514574 74.753 0.513485 74.7258 0.51648 74.6988C0.538531 74.4952 0.668931 74.3569 0.837443 74.3572C1.02338 74.3577 1.16113 74.5001 1.16222 74.716C1.16603 75.4409 1.16385 76.1659 1.16412 76.8908C1.16412 76.9815 1.16031 77.0724 1.16739 77.1625C1.20686 77.6553 1.60296 77.9956 2.10633 77.986C2.51277 77.9784 2.97257 77.6327 2.96577 77.1127C2.95597 76.3698 2.96332 75.6266 2.96359 74.8834C2.96359 74.811 2.95814 74.7375 2.96767 74.6662C2.99354 74.4769 3.14898 74.3446 3.32049 74.358C3.48437 74.3708 3.60361 74.4998 3.61014 74.6931C3.61777 74.9193 3.61259 75.1461 3.61259 75.3726C3.61259 75.5811 3.61259 75.7894 3.61259 75.9979V75.9982Z" fill="#232323"/>
<path d="M27.4805 76.0447C27.505 75.9804 27.5191 75.9274 27.5442 75.8803C27.6209 75.7363 27.7323 75.6791 27.8757 75.7036C28.0089 75.7265 28.1145 75.8343 28.1382 75.9794C28.1469 76.0324 28.1428 76.0877 28.1431 76.1419C28.1431 76.8029 28.1431 77.4636 28.1431 78.1246C28.1431 78.1518 28.1442 78.179 28.1431 78.206C28.1338 78.4191 28.0301 78.5541 27.8586 78.577C27.7001 78.598 27.5888 78.5109 27.5104 78.3042C27.5009 78.2792 27.493 78.2539 27.4837 78.2272C26.8483 78.8354 25.9543 78.6394 25.5122 78.1567C25.0037 77.6013 25.0091 76.6406 25.5299 76.0986C26.0224 75.586 26.9142 75.4907 27.4805 76.0444V76.0447ZM26.6308 77.9931C27.1353 77.998 27.4954 77.6506 27.5025 77.1524C27.5096 76.6537 27.1576 76.2905 26.6583 76.2818C26.1569 76.2728 25.7918 76.6245 25.7858 77.1216C25.7801 77.6177 26.1397 77.9884 26.6305 77.9931H26.6308Z" fill="#232323"/>
<path d="M46.1517 76.0276C46.2164 75.9905 46.1977 75.9143 46.2295 75.8615C46.3025 75.7414 46.4056 75.6832 46.5475 75.7031C46.6836 75.7221 46.7922 75.8294 46.8143 75.9718C46.8224 76.0248 46.8189 76.0801 46.8189 76.1343C46.8189 76.804 46.8189 77.4734 46.8189 78.1431C46.8189 78.1883 46.8219 78.234 46.8167 78.2787C46.7985 78.4357 46.6907 78.5531 46.5467 78.5762C46.4111 78.598 46.2897 78.5302 46.2189 78.3892C46.1955 78.3424 46.2053 78.2798 46.1525 78.2465C45.4398 78.8686 44.582 78.5934 44.1823 78.1466C43.6849 77.5907 43.692 76.6488 44.1989 76.1095C44.6402 75.6399 45.5092 75.4425 46.1514 76.0276H46.1517ZM46.18 77.1592C46.1914 76.6602 45.8427 76.2938 45.3448 76.2821C44.8523 76.2707 44.4831 76.6104 44.4701 77.0876C44.4556 77.6103 44.8019 77.9863 45.3036 77.9931C45.8116 78.0002 46.1685 77.6604 46.18 77.159V77.1592Z" fill="#232323"/>
<path d="M54.3802 77.3577C54.0902 77.3577 53.8 77.3547 53.5101 77.3588C53.3478 77.361 53.3321 77.3868 53.3816 77.5314C53.4532 77.7407 53.5948 77.8932 53.7954 77.9748C54.0951 78.0971 54.3959 78.0974 54.6802 77.9193C54.7567 77.8714 54.8253 77.8104 54.902 77.7631C55.043 77.6765 55.2113 77.6939 55.2987 77.7976C55.3904 77.9068 55.3768 78.0592 55.251 78.188C54.947 78.5 54.5639 78.6113 54.1403 78.6075C53.2869 78.6002 52.6468 77.9258 52.7203 76.9807C52.7941 76.0273 53.6726 75.4708 54.6053 75.7267C55.1587 75.8786 55.5543 76.3559 55.5785 77.0231C55.587 77.2534 55.4901 77.3501 55.2502 77.3552C54.9603 77.3615 54.6704 77.3566 54.3802 77.3566V77.3572V77.3577ZM54.9298 76.8919C54.905 76.4925 54.6208 76.2345 54.1953 76.217C53.7499 76.1988 53.414 76.4689 53.365 76.8919H54.9301H54.9298Z" fill="#232323"/>
<path d="M35.7003 77.358C35.4014 77.358 35.1025 77.3602 34.8036 77.3569C34.6865 77.3556 34.6609 77.4106 34.6933 77.5097C34.7649 77.7288 34.907 77.8919 35.1185 77.9763C35.4185 78.0955 35.7194 78.0985 36.0028 77.918C36.079 77.8695 36.1473 77.8086 36.2246 77.7617C36.3662 77.676 36.5361 77.6956 36.6207 77.8004C36.7098 77.9109 36.6961 78.0677 36.5696 78.1924C36.2222 78.5341 35.7953 78.6402 35.3216 78.5967C34.622 78.5324 34.1173 78.0228 34.0413 77.3044C33.9629 76.5653 34.3476 75.9394 35.017 75.7374C35.8588 75.4831 36.7857 75.9048 36.8973 76.9434C36.9284 77.232 36.8306 77.3523 36.5431 77.3569C36.2625 77.3613 35.9815 77.358 35.7006 77.358V77.3586L35.7003 77.358ZM34.6906 76.8917H36.2538C36.2241 76.4858 35.9176 76.2176 35.4896 76.216C35.0486 76.2144 34.7246 76.485 34.6906 76.8917Z" fill="#232323"/>
<path d="M13.8348 76.032C14.0033 75.8504 14.2162 75.7268 14.4759 75.6835C15.0988 75.5798 15.6018 75.931 15.6892 76.555C15.7674 77.1136 15.726 77.6768 15.7216 78.2382C15.72 78.4576 15.5637 78.5915 15.3789 78.5782C15.2036 78.5654 15.0949 78.4361 15.092 78.2156C15.0871 77.8712 15.0906 77.5268 15.0903 77.1827C15.0903 77.0921 15.093 77.0014 15.089 76.911C15.0726 76.5471 14.8802 76.3159 14.572 76.2863C14.183 76.2487 13.8792 76.4567 13.8048 76.8182C13.7869 76.9059 13.7863 76.9984 13.7858 77.0885C13.7836 77.4419 13.7852 77.7953 13.7844 78.1486C13.7844 78.2118 13.7885 78.2774 13.7746 78.3378C13.7411 78.4829 13.599 78.5847 13.4528 78.5787C13.3151 78.5733 13.2016 78.4769 13.1708 78.3297C13.158 78.2684 13.1585 78.2036 13.1585 78.1405C13.1577 77.4789 13.158 76.8174 13.158 76.1561C13.158 76.1199 13.1564 76.0835 13.1588 76.0475C13.1727 75.8442 13.2715 75.7222 13.4373 75.7018C13.6072 75.6808 13.7096 75.76 13.7839 75.9713C13.7915 75.9928 13.7806 76.0249 13.8351 76.032H13.8348Z" fill="#232323"/>
<path d="M11.6889 78.2082C11.4093 78.5153 11.0927 78.634 10.7164 78.5997C10.2384 78.5558 9.91335 78.2727 9.81562 77.8009C9.78458 77.6507 9.76335 77.4985 9.76471 77.343C9.76798 76.9448 9.76553 76.5465 9.76634 76.1482C9.76634 76.0851 9.76362 76.02 9.77696 75.9593C9.81344 75.7927 9.94874 75.6917 10.1099 75.7009C10.258 75.7094 10.3721 75.8161 10.3968 75.9775C10.4064 76.0396 10.4012 76.1038 10.4012 76.1673C10.4015 76.4931 10.4012 76.819 10.4015 77.1449C10.4015 77.2263 10.4006 77.3079 10.4061 77.3891C10.4292 77.7411 10.6184 77.964 10.9146 77.991C11.2996 78.0261 11.5873 77.835 11.6772 77.4895C11.7027 77.3915 11.7071 77.2935 11.7068 77.1936C11.7063 76.8495 11.7063 76.5057 11.7068 76.1615C11.7068 76.0981 11.7036 76.0339 11.7131 75.9718C11.7384 75.8052 11.868 75.6977 12.0319 75.7001C12.186 75.7026 12.2976 75.8017 12.3245 75.9653C12.3332 76.0184 12.3316 76.0736 12.3316 76.1278C12.3321 76.7978 12.3319 77.4675 12.3319 78.1374C12.3319 78.1464 12.3319 78.1554 12.3319 78.1646C12.3264 78.4238 12.2282 78.5618 12.0376 78.5776C11.862 78.5921 11.7564 78.487 11.6889 78.2079V78.2082Z" fill="#232323"/>
<path d="M5.11642 76.0546C5.41179 75.7464 5.74474 75.6226 6.14165 75.6827C6.58131 75.7491 6.86498 76.0004 6.9706 76.4314C7.00491 76.5713 7.02914 76.7148 7.02832 76.8612C7.02587 77.2963 7.02777 77.731 7.02723 78.166C7.02723 78.2202 7.02941 78.276 7.01743 78.328C6.98258 78.4769 6.84892 78.5801 6.70245 78.5787C6.56579 78.5777 6.44438 78.4856 6.40817 78.3411C6.39102 78.2722 6.39293 78.1976 6.39265 78.1255C6.39129 77.7811 6.39211 77.4367 6.39184 77.0926C6.39184 77.0202 6.3932 76.9475 6.38857 76.8754C6.36625 76.5389 6.18385 76.3227 5.89555 76.2882C5.52831 76.2441 5.22205 76.4278 5.12949 76.7488C5.09682 76.8626 5.08511 76.9791 5.08593 77.0978C5.08838 77.4329 5.08702 77.7683 5.08675 78.1037C5.08675 78.1671 5.09083 78.2311 5.08321 78.2937C5.06333 78.4592 4.93348 78.5768 4.77504 78.579C4.61306 78.5812 4.48674 78.4688 4.47313 78.2937C4.46279 78.1587 4.46932 78.022 4.46932 77.8862C4.46932 77.3153 4.46932 76.7444 4.46932 76.1736C4.46932 76.1011 4.46415 76.0274 4.47558 75.9566C4.49818 75.8161 4.58992 75.7328 4.72604 75.7053C4.85317 75.6797 4.9539 75.7287 5.03475 75.8308C5.08212 75.8904 5.07177 75.9658 5.11669 76.0549L5.11642 76.0546Z" fill="#232323"/>
<path d="M8.05332 76.2868C7.96213 76.2282 7.87828 76.2555 7.79879 76.2481C7.60986 76.2301 7.51566 76.1428 7.51811 75.9854C7.52056 75.8359 7.60359 75.7516 7.77728 75.7276C7.82193 75.7213 7.86793 75.7219 7.91312 75.7235C8.01521 75.7273 8.05768 75.6838 8.05496 75.5781C8.04924 75.3789 8.04951 75.1793 8.05496 74.98C8.06067 74.7639 8.17637 74.6316 8.35115 74.6286C8.53518 74.6253 8.66748 74.7685 8.67293 74.9874C8.67783 75.1777 8.68164 75.3683 8.67157 75.558C8.66449 75.6944 8.72111 75.7333 8.84634 75.7249C8.92692 75.7194 9.0105 75.7219 9.08945 75.7377C9.2291 75.7654 9.31349 75.8803 9.30342 76.0096C9.29444 76.1251 9.20378 76.2223 9.07393 76.2416C9.00288 76.2522 8.92856 76.2538 8.85696 76.2462C8.71757 76.2315 8.66885 76.281 8.67102 76.4264C8.67892 76.9608 8.67429 77.4958 8.67402 78.0302C8.67402 78.0936 8.67592 78.157 8.67347 78.2204C8.66449 78.4415 8.53899 78.5803 8.35197 78.5779C8.17474 78.5757 8.05795 78.4472 8.05496 78.2297C8.04979 77.8584 8.05332 77.4868 8.05332 77.1152C8.05332 76.8353 8.05332 76.5557 8.05332 76.286V76.2868Z" fill="#232323"/>
<path d="M38.5867 76.838C38.8399 76.838 39.0931 76.8336 39.3462 76.8391C39.5447 76.8434 39.6683 76.9605 39.6678 77.1282C39.6672 77.2861 39.5561 77.4037 39.3645 77.4064C38.8402 77.414 38.3156 77.4146 37.7915 77.4051C37.592 77.4015 37.5 77.2926 37.504 77.1192C37.5078 76.9483 37.6083 76.8454 37.8005 76.8399C38.0624 76.8326 38.3248 76.838 38.5873 76.838H38.5867Z" fill="#232323"/>
</g>
</g>
<defs>
<clipPath id="clip0_1801_11852">
<rect width="55.7434" height="80" fill="white"/>
</clipPath>
<clipPath id="clip1_1801_11852">
<rect width="55.7434" height="80" fill="white"/>
</clipPath>
</defs>
</svg>
