<svg width="80" height="81" viewBox="0 0 80 81" fill="none" xmlns="http://www.w3.org/2000/svg">
<g clip-path="url(#clip0_1801_11384)">
<g clip-path="url(#clip1_1801_11384)">
<path d="M0 68.4173V11.6257C0.0633601 11.5937 0.0584192 11.5292 0.0653946 11.4749C0.108119 11.1392 0.135149 10.8009 0.189499 10.4672C0.687661 7.41255 2.10948 4.87263 4.47851 2.88318C6.36479 1.29888 8.54577 0.379289 10.9965 0.100272C11.2612 0.0700449 11.5356 0.102306 11.7914 0H68.3095C68.3784 0.0758578 68.4722 0.0470841 68.5548 0.0523157C68.9509 0.0778923 69.3465 0.11742 69.7354 0.190952C73.9645 0.989929 77.0293 3.32641 78.8999 7.20416C79.5884 8.63151 79.9427 10.1539 79.9985 11.7417C79.9968 11.9062 79.993 12.0704 79.993 12.2349C79.993 30.7692 79.993 49.3032 79.993 67.8375C79.993 67.9921 79.9974 68.147 79.9997 68.3016C79.9901 68.5144 79.9907 68.728 79.9692 68.9393C79.8181 70.4268 79.446 71.8574 78.7566 73.1859C76.7797 76.9959 73.6733 79.258 69.4282 79.9419C69.2102 79.977 68.9826 79.9506 68.7739 80.0433H11.3269C11.2499 79.9922 11.1607 79.9985 11.0747 79.9913C10.7177 79.9613 10.3649 79.905 10.0138 79.8358C7.4919 79.3385 5.32399 78.1753 3.53654 76.3295C1.53488 74.2624 0.392368 71.787 0.106666 68.919C0.0898086 68.7489 0.0982373 68.5713 0 68.4176L0 68.4173ZM40.0514 5.48181C30.845 5.48181 21.6384 5.48181 12.432 5.48152C11.9855 5.48152 11.5414 5.51495 11.1034 5.59691C7.85898 6.20406 5.50942 9.02765 5.50913 12.3238C5.50797 30.8084 5.50855 49.2927 5.50797 67.7773C5.50797 68.195 5.54779 68.6077 5.62336 69.0186C6.21074 72.2128 9.03056 74.5795 12.2724 74.594C13.1048 74.5978 13.9375 74.5946 14.7702 74.5946C32.3991 74.5946 50.0278 74.5946 67.6567 74.5952C68.1223 74.5952 68.5833 74.5606 69.0416 74.4728C72.2207 73.8631 74.5728 71.0229 74.5728 67.777C74.5743 49.2924 74.5737 30.8081 74.5728 12.3235C74.5728 11.7795 74.5063 11.2421 74.3746 10.7137C73.6006 7.60932 70.8759 5.48239 67.6712 5.4821C58.4648 5.48181 49.2581 5.4821 40.0517 5.4821L40.0514 5.48181Z" fill="#FFCB07"/>
<path d="M40.0516 5.48178C49.258 5.48178 58.4647 5.48178 67.6711 5.48178C70.8757 5.48178 73.6005 7.609 74.3744 10.7134C74.5061 11.2417 74.5727 11.7794 74.5727 12.3232C74.5738 30.8078 74.5741 49.2921 74.5727 67.7767C74.5727 71.0229 72.2202 73.8628 69.0414 74.4725C68.5831 74.5606 68.1221 74.5949 67.6565 74.5949C50.0276 74.594 32.399 74.5943 14.77 74.5943C13.9373 74.5943 13.1049 74.5975 12.2722 74.5937C9.03011 74.5792 6.21059 72.2125 5.6232 69.0183C5.54763 68.6073 5.50781 68.1946 5.50781 67.777C5.50839 49.2924 5.50781 30.8081 5.50897 12.3235C5.50897 9.02762 7.85882 6.20374 11.1033 5.59659C11.5413 5.51463 11.9854 5.4812 12.4318 5.4812C21.6382 5.48149 30.8449 5.48149 40.0513 5.48149L40.0516 5.48178ZM8.99407 40.0383C8.95164 56.9619 22.5744 70.9514 39.7069 71.1293C56.9687 71.3083 70.9501 57.4473 71.0841 40.3208C71.2195 23.0197 57.3332 9.12586 40.3666 8.95613C22.9597 8.78203 8.97286 22.9102 8.99378 40.0383H8.99407Z" fill="#0079C0"/>
<path d="M8.99416 40.0384C8.97324 22.9102 22.9601 8.78209 40.367 8.95618C57.3336 9.12592 71.2196 23.0198 71.0845 40.3209C70.9505 57.4473 56.9691 71.3084 39.7073 71.1293C22.5747 70.9517 8.95202 56.9622 8.99445 40.0384H8.99416ZM61.468 45.7588C61.7086 46.014 61.9095 46.2363 62.1205 46.4485C62.3809 46.7107 62.5535 46.7118 62.809 46.4578C63.3513 45.9184 63.8832 45.3679 64.4357 44.8392C64.6386 44.6451 64.6621 44.3791 64.443 44.1626C63.1488 42.8826 61.8664 41.5904 60.5786 40.3037C60.3295 40.055 60.1694 40.057 59.9148 40.3099C59.3721 40.849 58.8315 41.3902 58.2927 41.9331C58.0302 42.1976 58.0311 42.3537 58.2933 42.6205C58.5581 42.8896 58.8243 43.1576 59.0949 43.4209C59.1765 43.5005 59.194 43.57 59.1396 43.6738C59.0187 43.9054 58.9132 44.1449 58.7935 44.3768C57.7937 46.3148 56.541 48.0802 55.1238 49.731C53.112 52.0745 50.7418 53.9613 47.9572 55.3102C45.8427 56.3344 43.6091 56.9256 41.2645 57.066C39.6936 57.1602 38.1317 57.0578 36.5866 56.7413C32.2697 55.8569 28.5791 53.8058 25.4942 50.6817C23.9216 49.089 22.682 47.2347 21.6229 45.2633C21.3846 44.8198 21.1823 44.3591 21.0038 43.8874C20.948 43.74 20.9599 43.64 21.0782 43.5293C21.3325 43.2913 21.5758 43.041 21.8191 42.7914C22.0658 42.5382 22.0661 42.3754 21.8164 42.1235C21.2846 41.5872 20.7504 41.0533 20.215 40.5206C19.9514 40.2584 19.7831 40.2552 19.5253 40.5124C18.2442 41.7921 16.9642 43.0727 15.6856 44.355C15.4336 44.6076 15.4363 44.7651 15.6894 45.0206C16.1326 45.4676 16.5785 45.9117 17.0235 46.357C17.1397 46.4735 17.2516 46.5947 17.3737 46.7049C17.5399 46.8548 17.7233 46.8566 17.8957 46.7127C17.9773 46.6447 18.0465 46.5624 18.1247 46.4901C18.2558 46.3689 18.3642 46.2209 18.5046 46.1306C18.5726 46.1616 18.5778 46.2018 18.59 46.2375C18.8321 46.9464 19.1623 47.6143 19.5584 48.2473C21.1622 50.8099 23.0825 53.1071 25.4012 55.0501C29.3749 58.3797 33.958 60.1506 39.1452 60.3154C41.0492 60.3758 42.9334 60.1788 44.79 59.7509C48.6864 58.8529 52.1657 57.1247 55.1046 54.3973C57.5298 52.1469 59.484 49.5192 61.0454 46.6008C61.1817 46.3462 61.3043 46.0846 61.468 45.7574V45.7588ZM37.5824 36.3001C37.5824 35.0507 37.5821 33.8012 37.5827 32.5517C37.5827 32.273 37.5847 32.2718 37.8716 32.2715C38.3651 32.2707 38.8589 32.2724 39.3524 32.271C39.6674 32.2698 39.6881 32.2512 39.6895 31.9472C39.6921 31.4435 39.6918 30.9398 39.6895 30.4361C39.6884 30.1278 39.664 30.1022 39.3614 30.1022C37.4449 30.101 35.5284 30.101 33.6119 30.1022C33.3218 30.1022 33.2904 30.1339 33.289 30.414C33.2864 30.9273 33.2864 31.4409 33.289 31.9542C33.2904 32.2428 33.3175 32.2695 33.6049 32.2707C34.1083 32.273 34.6114 32.2707 35.1148 32.2718C35.3988 32.2724 35.3988 32.2739 35.4017 32.5593C35.4023 32.6174 35.4017 32.6755 35.4017 32.7337C35.4017 34.4964 35.4017 36.2595 35.4017 38.0222C35.4017 38.2748 35.4177 38.525 35.4883 38.7697C35.7313 39.6143 36.4927 40.2497 37.36 40.3293C37.56 40.3476 37.5748 40.3351 37.5818 40.1363C37.5838 40.0782 37.5824 40.0201 37.5824 39.9619C37.5824 38.7415 37.5824 37.5211 37.5824 36.3004V36.3001ZM44.3834 36.3013C44.3834 35.0428 44.3828 33.7843 44.384 32.5259C44.384 32.2747 44.3875 32.2724 44.6406 32.2718C45.1533 32.2701 45.666 32.273 46.1787 32.2707C46.4659 32.2695 46.497 32.2404 46.499 31.9559C46.5025 31.4525 46.5019 30.9491 46.4996 30.4457C46.4981 30.1263 46.4728 30.1022 46.1485 30.1019C45.2295 30.1007 44.3105 30.1013 43.3914 30.1013C42.4047 30.1013 41.418 30.1004 40.4312 30.1019C40.1203 30.1025 40.0915 30.1298 40.0903 30.4277C40.088 30.9407 40.0874 31.454 40.0903 31.967C40.0918 32.2317 40.129 32.2689 40.3929 32.2707C40.8861 32.2739 41.3796 32.2704 41.8728 32.2721C42.2306 32.2733 42.2117 32.2279 42.2117 32.6212C42.2117 34.4316 42.212 36.2417 42.2117 38.0521C42.2117 38.2849 42.2225 38.5154 42.2847 38.7424C42.5204 39.6004 43.2848 40.2482 44.1631 40.3293C44.3616 40.3476 44.3759 40.3354 44.3828 40.1355C44.3849 40.0773 44.3834 40.0192 44.3834 39.9611C44.3834 38.7413 44.3834 37.5214 44.3834 36.3016V36.3013ZM52.1206 30.0214C49.2537 30.0185 46.9294 32.3381 46.9236 35.2082C46.9175 38.0949 49.2418 40.4235 52.1235 40.4183C54.9893 40.413 57.3193 38.0803 57.3161 35.2201C57.3129 32.3573 54.9814 30.0243 52.1206 30.0214ZM32.8876 35.2158C32.8862 32.3945 30.6113 30.1121 27.7982 30.1097C24.9644 30.1077 22.6709 32.3893 22.6692 35.2123C22.6675 38.0388 24.9583 40.3386 27.7804 40.3363C30.7092 40.334 32.9248 37.9144 32.8876 35.2155V35.2158ZM36.8778 49.3805C37.258 49.3785 37.5931 49.3994 37.9282 49.3651C38.1119 49.3462 38.2212 49.2303 38.2787 49.0602C38.3563 48.8312 38.4435 48.6048 38.5092 48.3723C38.5505 48.2264 38.622 48.1738 38.7746 48.1761C39.3163 48.1842 39.8587 48.1866 40.4004 48.1749C40.5713 48.1714 40.6379 48.238 40.6806 48.3915C40.7457 48.624 40.8323 48.8507 40.9117 49.0791C40.9588 49.2143 41.0425 49.314 41.1863 49.3549C41.3468 49.4006 42.0827 49.3887 42.2853 49.3299C42.1048 48.8609 41.9257 48.3923 41.7447 47.9247C41.2732 46.7066 40.8015 45.4885 40.3284 44.271C40.229 44.0155 40.2208 44.0115 39.9473 44.0089C39.7055 44.0065 39.4628 44.0176 39.2216 44.0054C39.0263 43.9955 38.9231 44.074 38.856 44.2568C38.6624 44.7834 38.454 45.3045 38.2514 45.828C37.8012 46.992 37.351 48.156 36.8776 49.3805H36.8778ZM33.2884 46.2419C33.2884 46.8708 33.2884 47.4998 33.2884 48.1287C33.2884 48.1383 33.2884 48.1482 33.2884 48.1578C33.3041 48.7353 33.7148 49.239 34.2571 49.3471C34.5091 49.3974 34.5428 49.3721 34.5443 49.1152C34.5463 48.7184 34.5437 48.3217 34.5451 47.925C34.5466 47.5634 34.5111 47.5899 34.8663 47.5916C35.1567 47.5931 35.4461 47.5867 35.7345 47.5486C36.6587 47.4265 37.2289 46.879 37.3249 45.9788C37.4089 45.1892 37.081 44.4797 36.232 44.176C35.9373 44.0705 35.6327 44.0196 35.3226 44.015C34.762 44.0065 34.201 44.0083 33.6401 44.0089C33.3149 44.0091 33.2893 44.0353 33.2884 44.355C33.287 44.984 33.2878 45.6129 33.2881 46.2419H33.2884ZM43.9498 46.4285C43.8646 46.3543 43.8419 46.257 43.8004 46.1727C43.5068 45.5734 43.2098 44.9755 42.9279 44.3707C42.8055 44.1083 42.6233 43.9894 42.335 44.0057C42.1132 44.0182 41.89 44.0048 41.6676 44.0091C41.4331 44.0138 41.4043 44.0629 41.509 44.2626C41.536 44.314 41.5671 44.3632 41.5961 44.4131C42.1234 45.3153 42.6474 46.2192 43.1804 47.1179C43.2784 47.2832 43.326 47.4472 43.3176 47.6384C43.3083 47.8509 43.3072 48.0651 43.3234 48.277C43.3644 48.8135 43.819 49.2898 44.3395 49.3564C44.5438 49.3826 44.5555 49.3764 44.5566 49.1718C44.5592 48.6394 44.5616 48.1069 44.5552 47.5745C44.5531 47.4137 44.5889 47.2754 44.6717 47.1365C45.0141 46.5633 45.348 45.9855 45.6849 45.4089C45.9093 45.0247 46.1369 44.6419 46.3563 44.255C46.4606 44.0713 46.4269 44.0161 46.2156 44.0094C46.0127 44.0033 45.8081 44.0228 45.6064 44.0045C45.244 43.9717 45.0371 44.1301 44.8906 44.4585C44.595 45.12 44.2677 45.7673 43.9498 46.4282V46.4285Z" fill="#FEFEFF"/>
<path d="M61.4679 45.7588C61.3043 46.0861 61.1814 46.3476 61.0453 46.6022C59.484 49.5206 57.5294 52.1483 55.1046 54.3987C52.1656 57.1261 48.6863 58.8543 44.79 59.7524C42.9334 60.1805 41.0491 60.3776 39.1451 60.3168C33.958 60.152 29.3749 58.3811 25.4012 55.0515C23.0825 53.1086 21.1622 50.8116 19.5584 48.2487C19.1623 47.6157 18.8321 46.9478 18.59 46.2389C18.5778 46.2032 18.5725 46.1628 18.5045 46.132C18.3642 46.2224 18.2557 46.3703 18.1247 46.4915C18.0465 46.5639 17.977 46.6461 17.8956 46.7141C17.723 46.858 17.5399 46.8563 17.3736 46.7063C17.2516 46.5961 17.1397 46.4747 17.0234 46.3584C16.5787 45.9131 16.1326 45.469 15.6894 45.022C15.4362 44.7668 15.4336 44.6093 15.6856 44.3565C16.9641 43.0741 18.2441 41.7936 19.5253 40.5139C19.7828 40.2566 19.9511 40.2596 20.215 40.522C20.7503 41.0547 21.2848 41.5884 21.8164 42.1249C22.0664 42.3769 22.0661 42.5396 21.819 42.7928C21.5758 43.0425 21.3325 43.2924 21.0782 43.5307C20.9599 43.6415 20.948 43.7415 21.0038 43.8888C21.1822 44.3605 21.3848 44.8212 21.6228 45.2647C22.6819 47.2361 23.9215 49.0904 25.4942 50.6832C28.5788 53.8073 32.2697 55.8581 36.5866 56.7428C38.1316 57.0593 39.6936 57.1616 41.2645 57.0674C43.6094 56.927 45.8427 56.3359 47.9571 55.3116C50.7418 53.9628 53.1119 52.0759 55.1238 49.7325C56.541 48.0816 57.7939 46.3163 58.7934 44.3783C58.9132 44.146 59.0187 43.9065 59.1396 43.6752C59.1939 43.5714 59.1765 43.5017 59.0948 43.4223C58.8242 43.159 58.558 42.891 58.2932 42.6219C58.0311 42.3554 58.0302 42.199 58.2927 41.9345C58.8318 41.3919 59.3724 40.8504 59.9147 40.3113C60.1693 40.0581 60.3295 40.0564 60.5786 40.3052C61.8664 41.5919 63.1484 42.8841 64.4429 44.164C64.6621 44.3806 64.6385 44.6465 64.4357 44.8407C63.8832 45.3693 63.3516 45.9198 62.809 46.4593C62.5535 46.7133 62.3808 46.7121 62.1204 46.45C61.9094 46.2375 61.7083 46.0151 61.4679 45.7603V45.7588Z" fill="#0074BA"/>
<path d="M37.5823 36.3001C37.5823 37.5205 37.5823 38.7409 37.5823 39.9616C37.5823 40.0197 37.5841 40.0778 37.5818 40.136C37.5748 40.3348 37.5597 40.3473 37.36 40.329C36.4927 40.2493 35.7312 39.614 35.4883 38.7694C35.4179 38.5246 35.4016 38.2747 35.4016 38.0218C35.4019 36.2591 35.4016 34.496 35.4016 32.7333C35.4016 32.6752 35.4022 32.617 35.4016 32.5589C35.399 32.2735 35.3987 32.272 35.1148 32.2715C34.6114 32.2703 34.108 32.2726 33.6049 32.2703C33.3174 32.2691 33.2904 32.2421 33.289 31.9538C33.2866 31.4405 33.2863 30.927 33.289 30.4137C33.2904 30.1332 33.3218 30.1018 33.6119 30.1018C35.5284 30.1004 37.4449 30.1007 39.3614 30.1018C39.6642 30.1018 39.6883 30.1274 39.6895 30.4358C39.6915 30.9394 39.6918 31.4431 39.6895 31.9468C39.688 32.2511 39.6674 32.2697 39.3524 32.2706C38.8588 32.2723 38.365 32.2706 37.8715 32.2712C37.5847 32.2718 37.5826 32.2726 37.5826 32.5514C37.5818 33.8008 37.5823 35.0503 37.5823 36.2998V36.3001Z" fill="#0074BA"/>
<path d="M44.383 36.3012C44.383 37.5211 44.383 38.7409 44.383 39.9607C44.383 40.0189 44.3845 40.077 44.3825 40.1351C44.3755 40.3354 44.3612 40.3476 44.1627 40.329C43.2844 40.2479 42.52 39.6 42.2843 38.7421C42.2218 38.5151 42.2111 38.2846 42.2114 38.0518C42.2117 36.2414 42.2117 34.4313 42.2114 32.6208C42.2114 32.2276 42.2303 32.2729 41.8725 32.2718C41.3793 32.27 40.8857 32.2735 40.3925 32.2703C40.1289 32.2686 40.0917 32.2314 40.09 31.9666C40.0871 31.4536 40.0873 30.9403 40.09 30.4274C40.0914 30.1295 40.1199 30.1021 40.4309 30.1015C41.4176 30.1001 42.4043 30.101 43.3911 30.101C44.3101 30.101 45.2291 30.1001 46.1481 30.1015C46.4725 30.1018 46.4978 30.1263 46.4992 30.4454C46.5015 30.9488 46.5021 31.4522 46.4986 31.9556C46.4966 32.2401 46.4655 32.2692 46.1783 32.2703C45.6657 32.2727 45.153 32.2697 44.6403 32.2715C44.3868 32.2724 44.3836 32.2747 44.3836 32.5255C44.3825 33.784 44.383 35.0425 44.383 36.301V36.3012Z" fill="#0074BA"/>
<path d="M52.1203 30.0214C54.9808 30.0243 57.3124 32.3573 57.3159 35.2201C57.3191 38.0803 54.989 40.413 52.1232 40.4182C49.2415 40.4235 46.9172 38.0948 46.9234 35.2082C46.9295 32.3381 49.2534 30.0185 52.1203 30.0214ZM52.1067 30.7779C49.6612 30.7831 47.679 32.7723 47.679 35.2218C47.679 37.6728 49.6557 39.6544 52.1078 39.6611C54.5588 39.6678 56.5715 37.6536 56.559 35.2061C56.5468 32.7636 54.5452 30.773 52.1067 30.7779Z" fill="#EE3151"/>
<path d="M32.8874 35.2157C32.9246 37.9146 30.709 40.3342 27.7802 40.3365C24.9583 40.3389 22.6672 38.0387 22.6689 35.2125C22.6707 32.3892 24.9639 30.1077 27.7979 30.11C30.611 30.112 32.8859 32.3944 32.8874 35.216V35.2157ZM32.1512 35.2622C32.2023 32.9414 30.2716 30.9331 27.9534 30.8523C25.5963 30.77 23.5005 32.5929 23.4194 35.0649C23.3392 37.5147 25.2606 39.5393 27.6686 39.5899C30.1167 39.6413 32.0965 37.7298 32.1509 35.2622H32.1512Z" fill="#EE3151"/>
<path d="M36.8774 49.3805C37.3509 48.156 37.8011 46.992 38.2513 45.828C38.4539 45.3045 38.662 44.7834 38.8558 44.2567C38.923 44.0739 39.0262 43.9955 39.2215 44.0053C39.4627 44.0175 39.7054 44.0065 39.9472 44.0088C40.2207 44.0114 40.2291 44.0155 40.3282 44.271C40.8014 45.4885 41.2731 46.7066 41.7445 47.9247C41.9256 48.3923 42.1047 48.8608 42.2851 49.3299C42.0826 49.3886 41.3464 49.4005 41.1862 49.3549C41.0421 49.3139 40.9584 49.2142 40.9116 49.0791C40.8322 48.8507 40.7453 48.6242 40.6805 48.3914C40.6375 48.238 40.5712 48.1714 40.4003 48.1749C39.8586 48.1862 39.3162 48.1842 38.7745 48.1761C38.6219 48.1737 38.5504 48.2263 38.5091 48.3723C38.4434 48.6048 38.3562 48.8312 38.2786 49.0602C38.2211 49.2302 38.1118 49.3462 37.9281 49.3651C37.593 49.3994 37.2579 49.3787 36.8777 49.3805H36.8774ZM40.3126 47.3094C40.0739 46.6017 39.8423 45.9149 39.5915 45.1714C39.3563 45.9253 39.0866 46.5958 38.8887 47.3094H40.3126Z" fill="#0074BA"/>
<path d="M33.288 46.2419C33.288 45.6129 33.2869 44.984 33.2883 44.355C33.2892 44.0353 33.3148 44.0094 33.64 44.0089C34.2009 44.0083 34.7616 44.0065 35.3225 44.015C35.6327 44.0196 35.9372 44.0705 36.232 44.176C37.0806 44.4797 37.4088 45.1892 37.3248 45.9788C37.2289 46.8789 36.6589 47.4265 35.7344 47.5486C35.4461 47.5867 35.1566 47.5931 34.8662 47.5916C34.5114 47.5899 34.5465 47.5634 34.5451 47.925C34.5433 48.3217 34.5462 48.7184 34.5442 49.1152C34.5427 49.3721 34.5093 49.3974 34.257 49.3471C33.7144 49.239 33.304 48.7353 33.2883 48.1578C33.2883 48.1482 33.2883 48.1383 33.2883 48.1287C33.2883 47.4998 33.2883 46.8708 33.2883 46.2419H33.288ZM34.5454 45.7786C34.5454 46.0099 34.5471 46.2413 34.5445 46.4726C34.5433 46.5744 34.5695 46.6389 34.6884 46.6354C34.929 46.6284 35.1714 46.6429 35.41 46.6194C35.8259 46.5784 36.0587 46.2994 36.0791 45.8515C36.1006 45.3778 35.8989 45.0822 35.4888 44.9869C35.2226 44.925 34.952 44.9476 34.6828 44.9433C34.5599 44.9412 34.5445 45.0174 34.5448 45.1133C34.5459 45.3351 34.5451 45.5568 34.5451 45.7786H34.5454Z" fill="#0074BA"/>
<path d="M43.9498 46.4284C44.2677 45.7678 44.595 45.1205 44.8906 44.4587C45.0373 44.1303 45.2443 43.9719 45.6064 44.0047C45.8078 44.023 46.0124 44.0036 46.2156 44.0097C46.4269 44.0161 46.4606 44.0713 46.3563 44.2553C46.1368 44.6424 45.9096 45.0249 45.6849 45.4091C45.348 45.9855 45.0141 46.5636 44.6717 47.1367C44.5889 47.2756 44.5531 47.414 44.5552 47.5747C44.5616 48.1072 44.5592 48.6396 44.5566 49.1721C44.5557 49.3767 44.5441 49.3828 44.3395 49.3566C43.819 49.2901 43.3644 48.8134 43.3234 48.2772C43.3071 48.0653 43.3083 47.8511 43.3176 47.6386C43.326 47.4474 43.2784 47.2835 43.1804 47.1181C42.6474 46.2194 42.1234 45.3155 41.5961 44.4134C41.5668 44.3634 41.5357 44.314 41.5089 44.2628C41.4043 44.0629 41.4331 44.0137 41.6676 44.0094C41.89 44.005 42.1132 44.0184 42.3349 44.0059C42.6233 43.9896 42.8055 44.1085 42.9278 44.3709C43.2098 44.9758 43.5068 45.5736 43.8004 46.1729C43.8416 46.2575 43.8646 46.3546 43.9498 46.4287V46.4284Z" fill="#0074BA"/>
<path d="M52.1064 30.7778C54.5449 30.7729 56.5465 32.7635 56.5587 35.2061C56.5712 37.6536 54.5585 39.6677 52.1075 39.661C49.6554 39.6544 47.6784 37.6728 47.6787 35.2218C47.6787 32.7722 49.6609 30.7831 52.1064 30.7778ZM48.1257 35.2023C48.1214 37.4129 49.8914 39.2074 52.0881 39.2196C54.2879 39.2315 56.1004 37.4429 56.1059 35.2549C56.1114 33.0295 54.335 31.2292 52.1261 31.2217C49.9294 31.2141 48.1298 33.0047 48.1257 35.2026V35.2023Z" fill="#FFF4F2"/>
<path d="M32.1514 35.2619C32.097 37.7295 30.1172 39.6411 27.6691 39.5896C25.2611 39.539 23.3397 37.5144 23.4199 35.0646C23.501 32.593 25.5968 30.7701 27.9539 30.852C30.2721 30.9328 32.2028 32.9412 32.1517 35.2619H32.1514ZM27.7883 39.1478C29.9489 39.1467 31.7073 37.3929 31.7102 35.2369C31.7128 33.0635 29.9562 31.2761 27.7918 31.2877C25.4614 31.3002 23.8492 33.1905 23.8556 35.2189C23.8626 37.3953 25.6093 39.149 27.7883 39.1478Z" fill="#FFF4F2"/>
<path d="M40.3125 47.3091H38.8887C39.0866 46.5956 39.3563 45.9251 39.5914 45.1711C39.842 45.9146 40.0739 46.6014 40.3125 47.3091Z" fill="#FEFEFF"/>
<path d="M34.5455 45.7785C34.5455 45.5568 34.5461 45.335 34.5452 45.1133C34.5447 45.0174 34.5604 44.9412 34.6833 44.9432C34.9527 44.9476 35.2233 44.9249 35.4893 44.9868C35.8991 45.0822 36.1011 45.3778 36.0796 45.8515C36.0592 46.2994 35.8261 46.5784 35.4105 46.6194C35.1719 46.6429 34.9295 46.6284 34.6888 46.6354C34.57 46.6389 34.5438 46.5743 34.545 46.4726C34.5476 46.2413 34.5458 46.0099 34.5458 45.7785H34.5455Z" fill="#FEFEFF"/>
<path d="M48.126 35.202C48.1303 33.0045 49.9297 31.2138 52.1264 31.2211C54.335 31.2286 56.1117 33.0292 56.1062 35.2543C56.1006 37.4423 54.2882 39.2309 52.0883 39.219C49.8916 39.2071 48.1216 37.4127 48.126 35.2017V35.202ZM48.8788 35.225C48.8805 37.0072 50.3328 38.4627 52.1113 38.4645C53.8993 38.4662 55.3551 37.0011 55.3517 35.2029C55.3485 33.4306 53.8804 31.9724 52.1034 31.9762C50.3291 31.9802 48.877 33.4431 48.8785 35.225H48.8788Z" fill="#EE3151"/>
<path d="M27.7882 39.148C25.6089 39.1492 23.8625 37.3955 23.8555 35.2191C23.8491 33.1907 25.4613 31.3007 27.7917 31.2879C29.9561 31.2763 31.7127 33.0637 31.7101 35.2372C31.7075 37.3931 29.9488 39.1469 27.7882 39.148ZM30.9652 35.2127C30.962 33.4506 29.528 32.0285 27.7594 32.0334C26.0184 32.0383 24.5943 33.4785 24.5987 35.2299C24.603 36.9778 26.0321 38.4098 27.7765 38.4139C29.5312 38.4182 30.9687 36.9752 30.9655 35.2127H30.9652Z" fill="#EE3151"/>
<path d="M48.8784 35.225C48.8767 33.4434 50.329 31.9803 52.1034 31.9762C53.8804 31.9721 55.3481 33.4303 55.3516 35.2029C55.3548 37.0011 53.8993 38.4663 52.1112 38.4645C50.3328 38.4628 48.8805 37.0072 48.8787 35.225H48.8784ZM52.1162 38.0326C53.459 38.073 54.9066 36.9878 54.934 35.2337C54.9581 33.6863 53.6572 32.3915 52.1124 32.3965C50.5525 32.4011 49.2929 33.6741 49.3004 35.2378C49.308 36.7962 50.5548 38.0338 52.1162 38.0329V38.0326Z" fill="#FFF4F2"/>
<path d="M30.965 35.2128C30.9682 36.975 29.5307 38.418 27.776 38.4139C26.0316 38.4099 24.6025 36.9779 24.5982 35.2299C24.5938 33.4785 26.0179 32.0384 27.7589 32.0335C29.5275 32.0285 30.9615 33.4506 30.9647 35.2128H30.965ZM30.5528 35.2294C30.5557 33.7009 29.3188 32.4514 27.7978 32.4462C26.2653 32.4409 25.0414 33.6689 25.0138 35.1988C24.9885 36.5957 26.1092 37.9852 27.7819 37.9963C29.3063 38.0062 30.5499 36.7552 30.5528 35.2294Z" fill="#FFF4F2"/>
<path d="M52.1161 38.0326C50.5547 38.0334 49.3079 36.7959 49.3003 35.2375C49.2928 33.6738 50.5524 32.4008 52.1123 32.3961C53.6571 32.3915 54.958 33.686 54.9339 35.2334C54.9065 36.9874 53.4588 38.0727 52.1161 38.0323V38.0326ZM52.1123 37.276C53.0525 37.3153 54.1663 36.5529 54.1767 35.2084C54.1855 34.0862 53.235 33.1567 52.1161 33.1535C50.982 33.1503 50.0511 34.0906 50.0569 35.2337C50.0627 36.3698 50.9744 37.276 52.1123 37.276Z" fill="#EE3151"/>
<path d="M30.5532 35.2294C30.5503 36.7553 29.3066 38.0062 27.7822 37.9963C26.1092 37.9853 24.9888 36.5957 25.0141 35.1989C25.0417 33.6689 26.2656 32.4407 27.7982 32.4462C29.3194 32.4514 30.5564 33.7012 30.5532 35.2294ZM29.8068 35.2241C29.808 34.1017 28.8988 33.1911 27.7778 33.1926C26.6641 33.194 25.7416 34.1232 25.7515 35.2335C25.7613 36.337 26.6716 37.247 27.7726 37.2537C28.8878 37.2604 29.8056 36.3446 29.8068 35.2239V35.2241Z" fill="#EE3151"/>
<path d="M52.1131 37.2761C50.9752 37.2761 50.0632 36.3698 50.0576 35.2337C50.0518 34.0906 50.9828 33.1501 52.1168 33.1536C53.2358 33.1568 54.1865 34.0862 54.1775 35.2084C54.167 36.5529 53.0533 37.3153 52.1131 37.2761Z" fill="#FEFEFF"/>
<path d="M29.8064 35.2242C29.8052 36.3449 28.8877 37.2607 27.7722 37.254C26.6715 37.2473 25.7609 36.3373 25.7511 35.2338C25.7412 34.1235 26.6637 33.194 27.7774 33.1929C28.8981 33.1914 29.8073 34.1017 29.8064 35.2245V35.2242Z" fill="#FEFEFF"/>
</g>
</g>
<defs>
<clipPath id="clip0_1801_11384">
<rect width="80" height="80.043" fill="white"/>
</clipPath>
<clipPath id="clip1_1801_11384">
<rect width="80" height="80.043" fill="white"/>
</clipPath>
</defs>
</svg>
