<svg width="80" height="25" viewBox="0 0 80 25" fill="none" xmlns="http://www.w3.org/2000/svg">
<g clip-path="url(#clip0_1801_11416)">
<g clip-path="url(#clip1_1801_11416)">
<path fill-rule="evenodd" clip-rule="evenodd" d="M22.0156 21.0286C19.5522 23.3702 16.2712 24.6565 12.8727 24.613C9.45736 24.6645 6.1573 23.3781 3.67793 21.0286C2.51135 19.8973 1.58386 18.5433 0.950478 17.0468C0.317095 15.5503 -0.00927734 13.9419 -0.00927734 12.3169C-0.00927734 10.6919 0.317095 9.08342 0.950478 7.58694C1.58386 6.09046 2.51135 4.73643 3.67793 3.60518C6.15414 1.24173 9.46045 -0.0531781 12.8831 -1.21778e-05C16.2816 -0.0434944 19.5626 1.24279 22.026 3.5844C23.1939 4.71491 24.1225 6.06869 24.7567 7.56527C25.3909 9.06186 25.7177 10.6707 25.7177 12.2961C25.7177 13.9215 25.3909 15.5303 24.7567 17.0269C24.1225 18.5235 23.1939 19.8773 22.026 21.0078L22.0156 21.0286ZM12.8831 4.01038C11.7983 3.99989 10.7227 4.20929 9.721 4.62594C8.71935 5.04259 7.8125 5.65786 7.05517 6.43461C6.29783 7.21136 5.70572 8.1335 5.31456 9.14537C4.92339 10.1572 4.74129 11.2379 4.77923 12.3221C4.77923 13.3836 4.98831 14.4347 5.39452 15.4153C5.80074 16.396 6.39613 17.2871 7.14672 18.0377C7.89731 18.7883 8.78838 19.3837 9.76907 19.7899C10.7498 20.1961 11.8009 20.4052 12.8623 20.4052C13.9238 20.4052 14.9749 20.1961 15.9556 19.7899C16.9363 19.3837 17.8274 18.7883 18.578 18.0377C19.3286 17.2871 19.924 16.396 20.3302 15.4153C20.7364 14.4347 20.9455 13.3836 20.9455 12.3221C20.9832 11.2414 20.8024 10.1642 20.4138 9.15516C20.0252 8.14608 19.4368 7.22587 18.6839 6.4497C17.931 5.67353 17.0292 5.0574 16.0324 4.63824C15.0356 4.21908 13.9644 4.00552 12.8831 4.01038V4.01038ZM52.3637 2.89869L42.4831 24.9351L41.9221 24.8312C39.0961 24.3221 38.5247 23.6156 37.2052 20.748L29.7974 4.61298H27.013V0.696092H37.5377V4.61298H35.0234L40.9766 17.9636L46.7533 4.61298H43.6364V0.696092H52.3637V2.89869ZM76.2598 21.0286C73.7645 23.333 70.4927 24.6127 67.0961 24.6127C63.6996 24.6127 60.4277 23.333 57.9325 21.0286C56.7659 19.8973 55.8384 18.5433 55.205 17.0468C54.5716 15.5503 54.2453 13.9419 54.2453 12.3169C54.2453 10.6919 54.5716 9.08342 55.205 7.58694C55.8384 6.09046 56.7659 4.73643 57.9325 3.60518C60.4277 1.30075 63.6996 0.0210445 67.0961 0.0210445C70.4927 0.0210445 73.7645 1.30075 76.2598 3.60518C77.4302 4.73419 78.3612 6.08749 78.9971 7.58427C79.6329 9.08106 79.9606 10.6906 79.9606 12.3169C79.9606 13.9431 79.6329 15.5527 78.9971 17.0495C78.3612 18.5463 77.4302 19.8996 76.2598 21.0286ZM67.1688 4.01038C66.0836 3.99995 65.0075 4.20931 64.0053 4.62584C63.0031 5.04238 62.0956 5.65747 61.3374 6.43407C60.5793 7.21066 59.9862 8.13269 59.5938 9.1446C59.2015 10.1565 59.0181 11.2374 59.0546 12.3221C59.0546 13.3836 59.2636 14.4347 59.6699 15.4153C60.0761 16.396 60.6715 17.2871 61.4221 18.0377C62.1726 18.7883 63.0637 19.3837 64.0444 19.7899C65.0251 20.1961 66.0762 20.4052 67.1377 20.4052C68.1992 20.4052 69.2503 20.1961 70.2309 19.7899C71.2116 19.3837 72.1027 18.7883 72.8533 18.0377C73.6039 17.2871 74.1993 16.396 74.6055 15.4153C75.0117 14.4347 75.2208 13.3836 75.2208 12.3221C75.26 11.2419 75.0805 10.165 74.693 9.15593C74.3056 8.14689 73.7182 7.22658 72.9661 6.45025C72.2141 5.67393 71.3129 5.05762 70.3166 4.63834C69.3204 4.21906 68.2497 4.00547 67.1688 4.01038" fill="#4B2489"/>
</g>
</g>
<defs>
<clipPath id="clip0_1801_11416">
<rect width="80" height="24.9351" fill="white"/>
</clipPath>
<clipPath id="clip1_1801_11416">
<rect width="80" height="24.9351" fill="white"/>
</clipPath>
</defs>
</svg>
