<svg width="80" height="78" viewBox="0 0 80 78" fill="none" xmlns="http://www.w3.org/2000/svg">
<g clip-path="url(#clip0_1801_11796)">
<g clip-path="url(#clip1_1801_11796)">
<path d="M60.663 0H19.3367C8.65789 0 0.000976562 8.65691 0.000976562 19.3358V58.6509C0.000976562 69.3297 8.65789 77.9866 19.3367 77.9866H60.663C71.3419 77.9866 79.9988 69.3297 79.9988 58.6509V19.3358C79.9988 8.65691 71.3419 0 60.663 0Z" fill="white"/>
<path d="M23.7792 77.9757V55.1657C24.0451 55.449 24.2567 55.6748 24.4684 55.9005C28.1304 59.7937 32.5923 62.2217 37.8737 63.0574C44.0136 64.0288 49.7942 63.0194 55.0029 59.5245C60.8237 55.6194 64.2611 50.096 65.5288 43.2571C66.5664 37.6621 66.1225 32.1734 63.6283 26.9832C60.052 19.543 54.1107 14.8814 46.1496 13.0026C37.6447 10.9958 29.8594 12.8452 23.0954 18.4088C18.284 22.366 15.3871 27.5096 14.4266 33.682C14.2138 35.0485 14.1129 36.4454 14.1107 37.8281C14.0879 50.7255 14.0966 63.6229 14.0966 76.5203V77.3332C13.3618 77.0868 12.6715 76.9034 12.0192 76.6299C5.59605 73.9371 1.60951 69.2266 0.274515 62.3606C0.0965149 61.4456 0.0313931 60.496 0.0313931 59.5615C0.016198 45.9781 -0.0348141 32.3937 0.0433321 18.8104C0.084576 11.2682 3.69558 5.76322 10.2653 2.18044C13.0438 0.665271 16.0742 0.0346743 19.2369 0.0335889C33.0699 0.0281621 46.9039 -0.046728 60.7358 0.0444426C68.3963 0.0943693 74.2041 3.548 77.9323 10.2859C79.3172 12.7888 79.9728 15.5217 79.9739 18.3925C79.9771 32.0659 80.0433 45.7404 79.9478 59.4138C79.8957 66.8052 76.2956 72.2049 69.8952 75.7594C67.0309 77.3506 63.9018 77.992 60.6197 77.9877C48.5949 77.9692 36.5702 77.9779 24.5454 77.9768C24.3121 77.9768 24.0787 77.9768 23.7792 77.9768V77.9757Z" fill="url(#paint0_linear_1801_11796)"/>
<path d="M56.7992 37.8043C56.6332 44.2752 54.1965 49.294 48.8218 52.6608C45.6688 54.6361 42.1674 55.3644 38.4533 55.0301C34.66 54.6893 31.3268 53.3022 28.5461 50.6691C25.9727 48.2325 24.3762 45.2369 23.713 41.7854C22.81 37.0858 23.4189 32.5804 25.9315 28.4474C28.4777 24.26 32.2212 21.7561 37.0641 20.9757C42.1381 20.1585 46.7596 21.2514 50.7538 24.5498C53.9946 27.2263 55.8126 30.7462 56.5105 34.8532C56.6874 35.8973 56.7189 36.9664 56.7971 37.8032L56.7992 37.8043Z" fill="url(#paint1_linear_1801_11796)"/>
</g>
</g>
<defs>
<linearGradient id="paint0_linear_1801_11796" x1="-8.24238e-05" y1="38.9938" x2="78.7843" y2="38.9938" gradientUnits="userSpaceOnUse">
<stop offset="0.02" stop-color="#2B357F"/>
<stop offset="1" stop-color="#272660"/>
</linearGradient>
<linearGradient id="paint1_linear_1801_11796" x1="0.0303618" y1="37.9128" x2="78.8147" y2="37.9128" gradientUnits="userSpaceOnUse">
<stop stop-color="#2B357F"/>
<stop offset="1" stop-color="#272660"/>
</linearGradient>
<clipPath id="clip0_1801_11796">
<rect width="80" height="77.9866" fill="white"/>
</clipPath>
<clipPath id="clip1_1801_11796">
<rect width="80" height="77.9866" fill="white"/>
</clipPath>
</defs>
</svg>
