<svg width="80" height="21" viewBox="0 0 80 21" fill="none" xmlns="http://www.w3.org/2000/svg">
<g clip-path="url(#clip0_1801_11434)">
<path d="M11.6284 0.0168065C12.4195 -0.0031756 13.2129 -0.0161052 14.0028 0.0426657C15.5073 0.26717 16.9319 0.972421 18.0368 2.01619C19.4061 3.34676 20.2219 5.22391 20.2654 7.13161C20.3218 9.1545 19.5272 11.2091 18.0438 12.5997C16.7615 13.875 14.996 14.6296 13.1905 14.6872C11.2511 14.7166 9.31283 14.6907 7.37457 14.7236C6.98786 15.9461 6.66932 17.1885 6.27556 18.4086C6.01461 19.2149 5.31289 19.8249 4.52771 20.1012C3.96939 20.2457 3.38638 20.2081 2.8163 20.2258C1.87714 20.2246 0.937983 20.2551 0 20.2164C0.352625 19.0057 0.706426 17.795 1.08844 16.5937C1.40933 15.5088 2.49894 14.6989 3.63204 14.7154C4.88504 14.6931 6.13803 14.7142 7.39103 14.6942C7.48859 14.2006 7.64374 13.7222 7.78597 13.2403C9.07658 8.83597 10.393 4.43755 11.6284 0.0168065Z" fill="#FB4C0F"/>
<path fill-rule="evenodd" clip-rule="evenodd" d="M30.2669 4.45867C28.8035 4.37639 27.3318 4.36698 25.8708 4.47042C25.8727 4.62123 25.8738 4.77204 25.8749 4.92278C25.8766 5.14916 25.8783 5.37538 25.8826 5.60117C25.882 5.71871 25.8811 5.83626 25.8802 5.9538L25.8802 5.9538C25.8793 6.07134 25.8784 6.18888 25.8779 6.30642C25.8722 8.24312 25.8715 10.1804 25.8709 12.1174C25.8706 12.9784 25.8704 13.8393 25.8696 14.7001C26.3851 14.7036 26.9013 14.7032 27.4171 14.7027H27.4178L27.9337 14.7024C27.9341 14.3547 27.934 14.0069 27.934 13.6591C27.9339 13.0795 27.9338 12.4998 27.936 11.9202C28.1681 11.916 28.4004 11.9134 28.6328 11.9108L28.6329 11.9108C29.2395 11.904 29.8464 11.8971 30.4514 11.8614C31.9606 11.7768 33.2889 10.6049 33.6815 9.16386C34.0823 7.80626 33.6168 6.2312 32.5331 5.3179C31.8972 4.79719 31.0885 4.48335 30.2669 4.45867ZM27.9338 8.3999C27.9336 7.67887 27.9334 6.95778 27.9347 6.23707C28.2079 6.24893 28.484 6.24291 28.7604 6.23688H28.7604H28.7604H28.7604H28.7604H28.7604H28.7604C29.3607 6.22379 29.9628 6.21066 30.5406 6.38047C31.0849 6.52858 31.4516 6.98699 31.7043 7.46421C31.7084 7.53375 31.7131 7.60353 31.7179 7.67345L31.7179 7.67347L31.7179 7.67349L31.7179 7.67351L31.7179 7.67352L31.7179 7.67354L31.7179 7.67355C31.7433 8.04794 31.769 8.42637 31.6937 8.79478C31.4492 9.4871 30.7663 10.0407 30.0129 10.0125C29.507 10.0237 29.0004 10.0229 28.4937 10.0222C28.307 10.0219 28.1203 10.0216 27.9336 10.0219C27.9341 9.48164 27.9339 8.94115 27.9338 8.40062V8.4006V8.40058V8.40056V8.40054V8.40052V8.3999ZM53.2192 4.45749C53.473 4.44863 53.7273 4.44939 53.9818 4.45016C54.3685 4.45132 54.7554 4.45248 55.141 4.41988C55.1738 5.04234 55.1774 5.66596 55.181 6.28951L55.181 6.29015C55.1825 6.55891 55.1841 6.82766 55.188 7.0963C55.5101 7.09572 55.8321 7.09572 56.1543 7.09572C56.4765 7.09572 56.7989 7.09572 57.1215 7.09513C57.1313 7.63541 57.1291 8.17569 57.1268 8.71597L57.1263 8.8512C56.6945 8.85042 56.2627 8.85068 55.8309 8.85094L55.1833 8.8512C55.1872 9.33134 55.1901 9.81168 55.193 10.2921C55.1971 10.9642 55.2011 11.6363 55.208 12.3081C55.1903 12.6619 55.523 12.9851 55.8709 12.9875C56.0607 13.02 56.2354 12.9607 56.4103 12.9015C56.5203 12.8642 56.6303 12.8269 56.7442 12.8124C56.823 12.9841 56.9312 13.1492 57.0397 13.3149L57.0398 13.315C57.2633 13.6562 57.4885 13.9999 57.4624 14.4098C56.4774 14.8729 55.2597 15.0492 54.2782 14.4897C53.6505 14.1476 53.3614 13.4318 53.2873 12.7536C53.1986 11.8885 53.2059 11.0181 53.2131 10.1481V10.1481V10.1481V10.1481V10.148V10.148C53.2167 9.71543 53.2203 9.28293 53.2121 8.8512H51.8392L51.8389 8.41224V8.41218V8.41213V8.41207V8.41201V8.41196C51.8385 7.97308 51.838 7.53436 51.8416 7.0963C52.2988 7.0963 52.7549 7.0963 53.2121 7.09513C53.2121 6.7602 53.2148 6.42526 53.2176 6.09033C53.222 5.54605 53.2264 5.00177 53.2192 4.45749ZM36.0734 7.54414C36.922 6.96818 38.0304 6.79892 39.0166 7.07632C39.555 7.22678 39.984 7.60173 40.3883 7.97199C40.3913 7.82599 40.3933 7.68 40.3954 7.53415C40.3974 7.38761 40.3995 7.24122 40.4024 7.09513C40.5628 7.09513 40.7233 7.09542 40.8839 7.09572H40.884H40.8842H40.8844H40.8845H40.8847C41.3673 7.0966 41.8505 7.09748 42.3336 7.09043C42.3846 8.6592 42.377 10.2298 42.3693 11.8005V11.8008C42.3646 12.7673 42.3599 13.7339 42.3689 14.7001C41.8762 14.7036 41.3836 14.7032 40.8909 14.7027H40.8906L40.3977 14.7024L40.3966 14.554L40.3966 14.5537C40.3948 14.305 40.393 14.0569 40.3871 13.8079C39.9076 14.2522 39.3657 14.6331 38.7263 14.8047C38.6599 14.8073 38.5931 14.8104 38.5262 14.8134C37.9915 14.8379 37.4438 14.8629 36.9361 14.6707C35.9782 14.3604 35.1871 13.6222 34.7757 12.7066C33.9741 10.9728 34.429 8.6267 36.0734 7.54414ZM37.2218 9.16386C36.6847 9.51884 36.372 10.1453 36.3191 10.7765C36.2709 11.5782 36.7282 12.3728 37.4322 12.7512C37.8871 13.0275 38.4454 13.0275 38.9556 12.9499C39.7619 12.7583 40.3355 12.0401 40.5095 11.2514C40.5087 11.0905 40.509 10.9296 40.5092 10.7683V10.7681V10.7678V10.7676V10.7673V10.767L40.5095 10.5238L40.5023 10.5021C40.3658 10.09 40.2215 9.65463 39.8889 9.35546C39.1965 8.67019 38.0082 8.60084 37.2218 9.16386ZM61.5013 7.11981C62.2171 6.84712 63.0211 6.95643 63.7216 7.22443C63.6121 7.56457 63.4892 7.89993 63.3664 8.23516C63.2532 8.54402 63.1401 8.85277 63.0375 9.16504C62.5121 8.92055 61.9009 8.87354 61.3449 9.02987C60.796 9.18385 60.4163 9.73277 60.4105 10.2946C60.3846 11.3701 60.3796 12.4462 60.3746 13.5221V13.5223V13.5225V13.5227C60.3728 13.914 60.371 14.3053 60.3682 14.6966C59.7182 14.706 59.0681 14.7048 58.4193 14.6989C58.4175 13.7477 58.4186 12.7966 58.4197 11.8456C58.4215 10.2794 58.4232 8.71336 58.4123 7.14685C59.0623 7.07045 59.7299 7.05281 60.3787 7.15743C60.3729 7.49007 60.3776 7.82271 60.3858 8.15418C60.6338 7.70165 61.0017 7.2926 61.5013 7.11981ZM65.1896 7.86385C66.4097 6.7954 68.2868 6.67433 69.7032 7.40897C70.66 7.91675 71.3676 8.86413 71.5862 9.92436C71.6762 10.3484 71.6784 10.782 71.6805 11.2141C71.681 11.3293 71.6816 11.4445 71.6838 11.5594C69.6738 11.5711 67.6639 11.5782 65.6539 11.584C65.8584 12.2999 66.4273 12.9287 67.1702 13.0874C67.8061 13.2285 68.5313 13.2085 69.0791 12.8194C69.2639 12.6841 69.4241 12.5208 69.5843 12.3577C69.637 12.304 69.6896 12.2503 69.7432 12.1976C70.2815 12.4691 70.794 12.7877 71.2983 13.1168C70.6812 13.9643 69.7596 14.6296 68.7065 14.7847C68.1082 14.847 67.504 14.8259 66.9045 14.8012C65.1978 14.4638 63.758 12.9017 63.8167 11.1209C63.6874 9.89027 64.2434 8.64668 65.1896 7.86385ZM66.6165 8.92173C66.1933 9.16151 65.9183 9.57761 65.7349 10.0149C67.0714 10.0278 68.4078 10.0278 69.7443 10.0149C69.5903 9.55528 69.3094 9.12155 68.8768 8.88059C68.1821 8.51856 67.2982 8.53502 66.6165 8.92173ZM76.355 7.01755C77.2119 6.85417 78.1816 6.94468 78.8822 7.51123C79.5357 8.03664 79.9577 8.86884 79.9412 9.71396C79.993 10.8069 79.9929 11.9014 79.9928 12.996C79.9928 13.5648 79.9927 14.1337 80 14.7024C79.3359 14.7024 78.6718 14.7024 78.0077 14.7036C78 14.3084 78.0017 13.913 78.0035 13.5177C78.0069 12.7622 78.0102 12.0069 77.9477 11.2538C77.9334 11.0333 77.9377 10.8118 77.942 10.5904C77.9479 10.283 77.9538 9.97573 77.9101 9.67165C77.7491 9.26143 77.4364 8.86413 76.9991 8.73719C76.4914 8.67724 75.9072 8.6267 75.497 8.99578C75.1385 9.23792 74.9821 9.65049 74.8752 10.0501C74.8593 11.2138 74.8593 12.3769 74.8593 13.5398C74.8593 13.9273 74.8593 14.3149 74.8587 14.7024H72.8617C72.8621 13.8575 72.8615 13.0125 72.861 12.1676V12.1675C72.86 10.477 72.8589 8.78632 72.8652 7.09513C73.1103 7.09557 73.3555 7.09552 73.6008 7.09546H73.6008H73.6009C74.0098 7.09537 74.419 7.09528 74.8281 7.09748L74.8282 7.09959C74.8317 7.39039 74.8352 7.68236 74.8446 7.97317C75.2701 7.55002 75.7438 7.12804 76.355 7.01755ZM45.6942 7.09513C45.03 7.0963 44.3671 7.0963 43.7042 7.09513C43.6948 8.63493 43.6936 10.1747 43.7159 11.7133C43.73 12.5608 43.9287 13.4753 44.5693 14.0771C45.2675 14.7976 46.3583 14.9269 47.3068 14.7859C47.9333 14.6766 48.4282 14.2546 48.8619 13.8162C48.9078 14.5132 48.7173 15.2819 48.1531 15.7392C47.2727 16.435 45.8822 16.3433 45.0771 15.5699C45.0282 15.538 44.9828 15.4942 44.9371 15.45C44.841 15.3572 44.7434 15.2629 44.6081 15.2749C44.2871 15.4972 43.9813 15.7408 43.6757 15.9844C43.4788 16.1412 43.282 16.2981 43.0812 16.4491C43.4256 16.797 43.7912 17.1332 44.2202 17.3753C45.6718 18.1288 47.5349 18.2017 48.983 17.3988C50.0644 16.7712 50.7955 15.5593 50.7837 14.3004C50.8166 11.8991 50.8366 9.49768 50.8401 7.09748C50.5928 7.09616 50.3457 7.09632 50.0987 7.09649C49.687 7.09676 49.2756 7.09704 48.8643 7.09043L48.8609 7.1083C48.7949 7.46266 48.7253 7.83566 48.8513 8.18592C48.802 8.33754 48.7785 8.49388 48.7832 8.65373V8.65384C48.782 9.67642 48.7808 10.6978 48.7644 11.7192C48.7843 12.133 48.5246 12.495 48.2354 12.763C47.8593 13.1215 47.2974 13.1332 46.8132 13.071C46.1867 12.9499 45.7482 12.334 45.74 11.711C45.6913 10.7458 45.6949 9.77972 45.6986 8.81357C45.7007 8.24071 45.7029 7.66784 45.6942 7.09513Z" fill="#2E4251"/>
</g>
<defs>
<clipPath id="clip0_1801_11434">
<rect width="80" height="20.2361" fill="white"/>
</clipPath>
</defs>
</svg>
