<svg width="80" height="17" viewBox="0 0 80 17" fill="none" xmlns="http://www.w3.org/2000/svg">
<g clip-path="url(#clip0_1801_11932)">
<path d="M6.863 8.60904H12.9693C13.5078 8.61135 14.0242 8.82422 14.4084 9.20236C14.7926 9.5805 15.0143 10.094 15.0264 10.6336C15.0262 10.9575 14.9467 11.2764 14.7948 11.5623L14.9616 11.3115C15.3722 10.5497 15.5886 9.69786 15.5917 8.83196C15.5906 7.85072 15.3249 6.8881 14.8226 6.04589L14.5261 5.63725L13.164 3.7149L12.9693 3.41772C12.2647 2.37085 11.3156 1.51236 10.2046 0.91675C9.09357 0.321136 7.85422 0.00648715 6.59427 0.000158627H0.765909C0.628721 -0.00266567 0.493364 0.032272 0.374586 0.101154C0.255809 0.170035 0.158163 0.270246 0.0922099 0.390906C0.0263095 0.511567 -0.00533313 0.647969 0.000733887 0.785419C0.0067486 0.922816 0.0503164 1.05592 0.126572 1.17026L4.20366 7.18816C4.49618 7.62588 4.8919 7.98456 5.35576 8.23237C5.81968 8.48022 6.33736 8.60962 6.863 8.60904Z" fill="#ED6A1D"/>
<path d="M15.017 10.6337C15.0168 10.9576 14.9373 11.2765 14.7854 11.5623L11.5886 16.2893C11.5201 16.3928 11.4272 16.4777 11.318 16.5363C11.2089 16.595 11.087 16.6258 10.9631 16.6258C10.8393 16.6258 10.7173 16.595 10.6082 16.5363C10.499 16.4777 10.4061 16.3928 10.3376 16.2893L8.66977 13.8562C8.30722 13.3239 8.11328 12.6944 8.11328 12.0499C8.11328 11.4054 8.30722 10.7759 8.66977 10.2436L9.7724 8.59985H12.9692C13.5084 8.60221 14.0251 8.8167 14.4081 9.19704C14.7911 9.57743 15.0098 10.0933 15.017 10.6337Z" fill="#D24124"/>
<path d="M15.5823 8.84115C15.5823 9.09194 15.5823 9.34267 15.536 9.59341C15.4896 9.84414 15.536 9.81626 15.4711 9.94629C15.4554 10.0604 15.4275 10.1725 15.3877 10.2807C15.2825 10.6446 15.1461 10.9989 14.98 11.3393L14.8132 11.5901C14.9409 11.3518 15.0167 11.0891 15.0356 10.8193V10.6521C15.0194 10.1219 14.8027 9.61768 14.4293 9.24168C14.0559 8.86573 13.5538 8.64617 13.0249 8.62755H9.80029L11.5423 6.04582C11.6072 5.94368 11.6905 5.8601 11.7554 5.75795C12.0712 5.22767 12.2348 4.62023 12.228 4.00271C12.2299 3.48952 12.1149 2.98261 11.8916 2.52073C11.6685 2.0588 11.3429 1.65409 10.94 1.3374C11.7413 1.88872 12.4301 2.58851 12.9693 3.39909L13.1361 3.64982L14.4889 5.6465L14.7854 6.06439C15.0916 6.5746 15.3078 7.13376 15.4248 7.71744C15.4369 7.78015 15.4524 7.84213 15.4711 7.90322C15.4711 7.9868 15.4711 8.08894 15.4711 8.17252C15.4625 8.206 15.4625 8.2412 15.4711 8.27467C15.5545 8.46039 15.5823 8.65543 15.5823 8.84115Z" fill="#73246C"/>
<path d="M23.6533 8.62762H19.3816C18.91 8.62636 18.4457 8.50983 18.0291 8.28813C17.6125 8.06642 17.2562 7.74623 16.9909 7.35532L15.5547 5.2565H19.8264C20.2987 5.25164 20.7651 5.36247 21.1849 5.57931C21.6048 5.79621 21.9654 6.11258 22.2356 6.50092C22.6896 7.23461 23.1622 7.94042 23.6533 8.62762Z" fill="#ED6A1D"/>
<path d="M30.76 3.31543H26.5625V10.3827C26.565 11.0445 26.8284 11.6785 27.2952 12.1465C27.7621 12.6144 28.3947 12.8785 29.0551 12.8809V10.2156H30.76C33.197 10.2156 34.6147 8.90613 34.6147 6.64941C34.6147 4.39269 33.197 3.31543 30.76 3.31543ZM30.6396 8.25602H29.0551V5.31211H30.6396C31.6403 5.31211 32.2426 5.81357 32.2426 6.75156C32.2586 6.96218 32.2272 7.17369 32.1507 7.37055C32.0743 7.56741 31.9548 7.74451 31.8009 7.88891C31.6471 8.03327 31.4629 8.14122 31.2619 8.20476C31.0609 8.26831 30.8482 8.28583 30.6396 8.25602Z" fill="#111820"/>
<path d="M58.7993 3.31543H54.6016V10.3827C54.6042 11.0445 54.8678 11.6785 55.3343 12.1465C55.8014 12.6144 56.4342 12.8785 57.0943 12.8809V10.2156H58.7993C61.2361 10.2156 62.654 8.90613 62.654 6.64941C62.654 4.39269 61.2361 3.31543 58.7993 3.31543ZM58.679 8.25602H57.0943V5.31211H58.679C59.6796 5.31211 60.2821 5.81357 60.2821 6.75156C60.2978 6.96218 60.2664 7.17369 60.19 7.37055C60.1137 7.56741 59.9939 7.74451 59.8401 7.88891C59.6864 8.03327 59.5022 8.14122 59.3009 8.20476C59.1 8.26831 58.8877 8.28583 58.679 8.25602Z" fill="#111820"/>
<path d="M40.2302 3.23195C39.5675 3.18142 38.9012 3.26866 38.2736 3.48823C37.646 3.70779 37.0701 4.05492 36.5827 4.50785C36.0947 4.96079 35.7061 5.50975 35.4399 6.12042C35.1736 6.73105 35.0366 7.39016 35.0366 8.05648C35.0366 8.72281 35.1736 9.38192 35.4399 9.99254C35.7061 10.6032 36.0947 11.1522 36.5827 11.6051C37.0701 12.058 37.646 12.4052 38.2736 12.6247C38.9012 12.8443 39.5675 12.9315 40.2302 12.881C40.8803 12.9096 41.5288 12.806 42.1382 12.5764C42.747 12.3469 43.3029 11.9961 43.7731 11.5453C44.2428 11.0944 44.6168 10.5529 44.8725 9.95331C45.1283 9.35372 45.2595 8.70848 45.2595 8.05648C45.2595 7.40449 45.1283 6.75924 44.8725 6.15965C44.6168 5.56006 44.2428 5.01853 43.7731 4.56769C43.3029 4.1169 42.747 3.76611 42.1382 3.53655C41.5288 3.307 40.8803 3.20339 40.2302 3.23195ZM40.2302 10.7822C39.5241 10.7627 38.8541 10.4634 38.3677 9.94986C37.8813 9.43626 37.6182 8.75037 37.6355 8.04257C37.6271 7.69387 37.6878 7.34695 37.8138 7.02185C37.9399 6.69674 38.1287 6.39992 38.3703 6.14861C38.6115 5.89725 38.9002 5.69636 39.2192 5.5576C39.5388 5.41879 39.8824 5.34489 40.2302 5.34008C40.5785 5.34102 40.9232 5.41247 41.2428 5.55012C41.5628 5.68783 41.8521 5.88888 42.0927 6.14129C42.3333 6.3937 42.5205 6.69219 42.6429 7.01892C42.7658 7.34565 42.8212 7.69382 42.8061 8.04257C42.8233 8.39064 42.771 8.73865 42.6523 9.06617C42.5336 9.39363 42.35 9.6939 42.1136 9.94923C41.8767 10.2046 41.5916 10.4099 41.2747 10.5529C40.9572 10.696 40.6151 10.7739 40.2673 10.7822H40.2302Z" fill="#111820"/>
<path d="M48.5231 5.89736C48.5231 5.4609 48.9216 5.25661 49.5053 5.25661C49.9368 5.27355 50.3636 5.34856 50.7747 5.47947C51.2956 5.64051 51.8568 5.60918 52.3568 5.39108C52.8568 5.17298 53.2616 4.78265 53.4991 4.29075C52.3688 3.59111 51.0655 3.22421 49.737 3.23206C47.4671 3.23206 45.966 4.35576 45.966 6.12953C45.966 9.48208 50.9415 8.50696 50.9415 10.1136C50.9415 10.6151 50.4781 10.8844 49.7558 10.8844C49.1371 10.8562 48.5299 10.7079 47.9671 10.4479C47.5001 10.2384 46.9702 10.2181 46.488 10.3911C46.0063 10.5642 45.6099 10.9173 45.3818 11.3766C45.9927 11.8498 46.6747 12.2229 47.4023 12.4817C48.157 12.7547 48.953 12.896 49.7558 12.8997C51.85 12.8997 53.5639 11.9153 53.5639 9.97429C53.4991 6.56604 48.5231 7.4297 48.5231 5.89736Z" fill="#111820"/>
<path d="M64.2104 12.8624C63.985 12.8649 63.7617 12.8221 63.553 12.7365C63.3443 12.651 63.155 12.5244 62.996 12.3642C62.837 12.204 62.712 12.0136 62.6278 11.804C62.5435 11.5945 62.5017 11.3702 62.5059 11.1443C62.4996 10.9126 62.5503 10.683 62.6539 10.4757L65.7857 3.25049H68.5656L72.3648 12.8624H68.7418C68.2533 12.8635 67.7758 12.7179 67.3705 12.4445C67.1168 12.2725 66.8971 12.0552 66.7219 11.8037L65.5169 10.002H68.5656L68.269 9.25908L67.12 6.14801L64.2104 12.8624Z" fill="#111820"/>
<path d="M72.921 3.23193C72.6292 3.25421 72.3483 3.35134 72.1046 3.514C71.8614 3.6766 71.6637 3.89931 71.5308 4.16061C71.409 4.39921 71.3457 4.66338 71.3457 4.93143L71.5957 5.41433L71.9294 6.018L72.0962 6.33375L73.9493 9.83489V12.8531H76.4608V9.79775L80.0001 3.23193H77.4614L75.2098 7.42958L72.921 3.23193Z" fill="#111820"/>
</g>
<defs>
<clipPath id="clip0_1801_11932">
<rect width="80" height="16.6257" fill="white"/>
</clipPath>
</defs>
</svg>
