<svg width="80" height="36" viewBox="0 0 80 36" fill="none" xmlns="http://www.w3.org/2000/svg">
<g clip-path="url(#clip0_1801_11468)">
<g clip-path="url(#clip1_1801_11468)">
<path fill-rule="evenodd" clip-rule="evenodd" d="M24.9554 0.00732258L1.05561 3.19434C1.05561 3.19434 0 3.31692 0 4.58885V27.2859C0 27.2859 0.144209 29.9422 3.17981 29.9422H30.2666C30.2666 29.9422 32.6807 29.3654 32.6807 26.9485V8.22003C32.6807 8.22003 32.7282 5.5637 29.5427 5.5637H3.42208C3.11467 5.4987 2.83195 5.34801 2.6066 5.12904C2.38126 4.91008 2.22251 4.6318 2.14871 4.32639C2.0694 3.90529 2.23957 3.86203 2.68517 3.86203H26.67V1.27492C26.67 1.27492 26.5849 -0.112371 24.9554 0.00732258Z" fill="#E8451E"/>
<path fill-rule="evenodd" clip-rule="evenodd" d="M16.8251 26.0904C14.8437 26.0904 13.3843 25.2828 11.2312 23.1528C11.0549 22.9688 10.9574 22.7231 10.9595 22.4683C10.9616 22.2134 11.0632 21.9694 11.2426 21.7883C11.422 21.6072 11.665 21.5034 11.9199 21.4988C12.1747 21.4943 12.4213 21.5895 12.607 21.7641C14.8739 24.0051 15.9238 24.5618 17.7351 24.0714C18.7878 23.783 19.7323 22.4448 19.7871 20.9061C19.8304 19.7106 18.9868 18.9304 17.2808 18.5886C14.2178 17.9757 12.4094 16.8048 11.9076 15.106C11.5038 13.7389 12.0345 12.2117 13.3626 10.9239L13.4174 10.8749C16.2728 8.48821 19.5881 10.2663 20.9423 11.5411C21.123 11.7205 21.2266 11.9633 21.231 12.2179C21.2354 12.4725 21.1404 12.7188 20.9661 12.9044C20.7918 13.09 20.5519 13.2002 20.2975 13.2117C20.0432 13.2232 19.7944 13.135 19.604 12.9659C19.4901 12.8592 16.9246 10.5288 14.7009 12.3516C13.9409 13.1029 13.5977 13.9263 13.7852 14.558C14.0563 15.478 15.4349 16.2308 17.6658 16.6778C21.4571 17.4364 21.7801 19.9413 21.7426 20.9825C21.6619 23.2509 19.7641 25.7919 17.9831 26.0168C17.599 26.0658 17.2123 26.0903 16.8251 26.0904V26.0904Z" fill="white"/>
<path fill-rule="evenodd" clip-rule="evenodd" d="M42.7334 5.42671C42.301 5.16261 41.8328 4.96203 41.3432 4.83113C40.3338 4.54271 39.6055 4.17354 39.258 3.70197C38.9479 3.29242 38.9479 2.75885 39.32 2.07529C39.5305 1.66574 40.041 1.40616 40.6972 1.35425C41.5276 1.32133 42.3514 1.5142 43.081 1.91234C43.1861 1.96493 43.3079 1.97358 43.4195 1.93639C43.531 1.89921 43.6232 1.81923 43.6758 1.71405C43.7284 1.60887 43.7371 1.48711 43.6999 1.37555C43.6627 1.264 43.5827 1.17178 43.4775 1.11919C42.4609 0.597152 41.4586 0.398144 40.6236 0.461596C39.6546 0.535142 38.8931 0.957675 38.5268 1.63978C37.9673 2.67088 38.0048 3.5145 38.5268 4.22113C39.0099 4.8542 39.8911 5.33875 41.0952 5.67331C41.5074 5.78807 41.9033 5.95476 42.2734 6.16939C42.745 6.45781 43.055 6.79093 43.205 7.15001C43.3486 7.48901 43.369 7.86757 43.2627 8.22004C43.2045 8.4027 43.1251 8.57791 43.0262 8.74208C43.0262 8.7666 43.0016 8.79111 42.9771 8.82861C42.6166 9.36218 42.034 9.63473 41.3259 9.63473C40.5443 9.63473 39.5882 9.32468 38.5716 8.70459C38.4273 8.61806 38.2831 8.53009 38.162 8.44357C38.0633 8.37778 37.9426 8.35389 37.8263 8.37715C37.71 8.40041 37.6077 8.46891 37.5419 8.56759C37.4761 8.66626 37.4522 8.78703 37.4755 8.90332C37.4987 9.01961 37.5672 9.1219 37.6659 9.18769C37.8116 9.2795 37.9521 9.37915 38.087 9.4862C39.2537 10.1943 40.3583 10.5404 41.3014 10.5404C42.3195 10.5404 43.1632 10.1438 43.6967 9.3492C43.7184 9.30591 43.7434 9.26443 43.7717 9.22518C43.9158 8.99309 44.0283 8.74285 44.1063 8.48106C44.2728 7.93273 44.2375 7.34288 44.0068 6.81833C43.7386 6.2325 43.2932 5.74571 42.7334 5.42671Z" fill="#E8451E"/>
<path fill-rule="evenodd" clip-rule="evenodd" d="M49.5721 4.44603C49.0639 4.32122 48.5312 4.33818 48.0319 4.49506C47.4633 4.67071 46.9387 4.9657 46.4932 5.36032V0.88407C46.4868 0.770083 46.4369 0.662896 46.3539 0.58449C46.2709 0.506084 46.1611 0.462402 46.0469 0.462402C45.9327 0.462402 45.8229 0.506084 45.7399 0.58449C45.6569 0.662896 45.6071 0.770083 45.6006 0.88407V10.1048C45.6071 10.2188 45.6569 10.326 45.7399 10.4044C45.8229 10.4828 45.9327 10.5265 46.0469 10.5265C46.1611 10.5265 46.2709 10.4828 46.3539 10.4044C46.4369 10.326 46.4868 10.2188 46.4932 10.1048V6.65387C46.5021 6.64694 46.5103 6.63922 46.5178 6.6308C47.0773 5.94725 47.6974 5.52616 48.293 5.34013C48.6345 5.22946 49.0001 5.21647 49.3486 5.30264C49.6322 5.3795 49.8813 5.55033 50.0552 5.78718C50.2488 6.08712 50.3441 6.43999 50.3277 6.79664V10.0947C50.3277 10.2133 50.3748 10.327 50.4587 10.4108C50.5425 10.4947 50.6562 10.5417 50.7748 10.5417C50.8933 10.5417 51.0071 10.4947 51.0909 10.4108C51.1747 10.327 51.2218 10.2133 51.2218 10.0947V6.79231C51.2372 6.25294 51.0806 5.72266 50.7748 5.27812C50.4826 4.86954 50.0574 4.57535 49.5721 4.44603V4.44603Z" fill="#E8451E"/>
<path fill-rule="evenodd" clip-rule="evenodd" d="M57.166 9.01325C56.7502 9.42617 56.188 9.65792 55.602 9.65792C55.016 9.65792 54.4538 9.42617 54.0381 9.01325C53.6252 8.59748 53.3934 8.03528 53.3934 7.4493C53.3934 6.86332 53.6252 6.30112 54.0381 5.88535C54.4554 5.47438 55.017 5.24302 55.6027 5.24074C56.0397 5.24102 56.4668 5.37078 56.83 5.61362C57.1932 5.85647 57.4764 6.20151 57.6436 6.60518C57.8109 7.00884 57.8548 7.45302 57.7698 7.88161C57.6848 8.31021 57.4747 8.704 57.166 9.01325ZM55.6027 4.35962C54.7949 4.37707 54.026 4.71026 53.4608 5.28779C52.8956 5.86531 52.5791 6.64123 52.5791 7.4493C52.5791 8.25736 52.8956 9.03329 53.4608 9.61081C54.026 10.1883 54.7949 10.5215 55.6027 10.539C56.4106 10.5215 57.1795 10.1883 57.7447 9.61081C58.3099 9.03329 58.6264 8.25736 58.6264 7.4493C58.6264 6.64123 58.3099 5.86531 57.7447 5.28779C57.1795 4.71026 56.4106 4.37707 55.6027 4.35962V4.35962Z" fill="#E8451E"/>
<path fill-rule="evenodd" clip-rule="evenodd" d="M64.6866 9.01325C64.2707 9.42598 63.7094 9.659 63.1234 9.66219C62.6864 9.66191 62.2594 9.53215 61.8961 9.28931C61.5329 9.04646 61.2498 8.70142 61.0825 8.29775C60.9152 7.89409 60.8713 7.44991 60.9563 7.02132C61.0414 6.59272 61.2515 6.19893 61.5602 5.88968C61.9768 5.47853 62.538 5.24711 63.1234 5.24507C63.5595 5.24619 63.9854 5.37626 64.3478 5.61889C64.7101 5.86152 64.9926 6.20589 65.1596 6.60867C65.3267 7.01145 65.371 7.45464 65.2868 7.88251C65.2026 8.31037 64.9938 8.70378 64.6866 9.01325V9.01325ZM63.1349 4.35962C62.7293 4.35915 62.3275 4.43892 61.9528 4.59435C61.5781 4.74978 61.2378 4.97779 60.9516 5.26525C60.9153 5.2951 60.8819 5.32843 60.8521 5.36476V4.80667C60.8521 4.68811 60.805 4.5744 60.7212 4.49056C60.6373 4.40672 60.5236 4.35962 60.4051 4.35962C60.2865 4.35962 60.1728 4.40672 60.0889 4.49056C60.0051 4.5744 59.958 4.68811 59.958 4.80667V13.5919C59.958 13.7105 60.0051 13.8242 60.0889 13.908C60.1728 13.9918 60.2865 14.0389 60.4051 14.0389C60.5236 14.0389 60.6373 13.9918 60.7212 13.908C60.805 13.8242 60.8521 13.7105 60.8521 13.5919V9.53385C60.8881 9.56406 60.9214 9.59736 60.9516 9.63335C61.3109 9.99245 61.7532 10.2574 62.2393 10.4047C62.7254 10.5521 63.2404 10.5773 63.7386 10.4781C64.2367 10.3789 64.7028 10.1583 65.0954 9.83599C65.488 9.51366 65.795 9.09949 65.9893 8.63016C66.1836 8.16082 66.2592 7.65081 66.2093 7.1453C66.1594 6.63979 65.9857 6.15438 65.7034 5.73207C65.4211 5.30975 65.0391 4.96356 64.591 4.72417C64.143 4.48478 63.6429 4.35956 63.1349 4.35962V4.35962Z" fill="#E8451E"/>
<path fill-rule="evenodd" clip-rule="evenodd" d="M68.4992 6.76637C68.6097 6.4054 68.8078 6.07741 69.076 5.81171C69.2512 5.63442 69.4598 5.49367 69.6898 5.39761C69.9197 5.30154 70.1665 5.25207 70.4157 5.25207C70.6649 5.25207 70.9117 5.30154 71.1417 5.39761C71.3716 5.49367 71.5802 5.63442 71.7554 5.81171C72.0219 6.08241 72.2257 6.4083 72.3524 6.76637H68.4992ZM72.3842 5.18007C72.1291 4.91874 71.8239 4.71151 71.487 4.57078C71.15 4.43004 70.7881 4.35868 70.4229 4.36096C70.0572 4.35487 69.6942 4.42449 69.3567 4.56545C69.0191 4.70641 68.7144 4.91567 68.4617 5.18007C67.3945 6.33374 67.4075 7.57538 67.8286 8.82856C68.017 9.36274 68.3857 9.81454 68.8712 10.1063C69.3652 10.4143 69.9409 10.5651 70.5224 10.5389C71.2324 10.5127 71.9311 10.3527 72.5817 10.0673C72.6388 10.0468 72.6911 10.0149 72.7354 9.97349C72.7797 9.93209 72.8151 9.88208 72.8394 9.82653C72.8637 9.77097 72.8764 9.71104 72.8767 9.65041C72.8771 9.58977 72.865 9.5297 72.8414 9.47388C72.8177 9.41806 72.7828 9.36766 72.739 9.32577C72.6952 9.28387 72.6432 9.25137 72.5864 9.23024C72.5295 9.20912 72.469 9.19981 72.4084 9.2029C72.3479 9.20599 72.2886 9.22141 72.2342 9.24821C71.6902 9.49798 71.1019 9.6372 70.5037 9.65776C70.0944 9.67233 69.6895 9.56924 69.337 9.36069C69.0245 9.14779 68.7825 8.84654 68.6419 8.49544C68.5468 8.2303 68.4806 7.95568 68.4444 7.67633H72.5515C72.775 7.67633 73.5076 7.72536 73.1283 6.47218C72.992 5.98505 72.7351 5.54015 72.3813 5.17863L72.3842 5.18007Z" fill="#E8451E"/>
<path fill-rule="evenodd" clip-rule="evenodd" d="M75.2772 6.76631C75.387 6.40504 75.5853 6.0769 75.854 5.81165C76.0293 5.63432 76.238 5.49354 76.4681 5.39746C76.6982 5.30137 76.9451 5.2519 77.1944 5.2519C77.4438 5.2519 77.6906 5.30137 77.9207 5.39746C78.1508 5.49354 78.3596 5.63432 78.5349 5.81165C78.8008 6.0825 79.0041 6.40837 79.1304 6.76631H75.2772ZM80.0044 7.23211V6.9062C79.9841 6.75945 79.9513 6.61471 79.9063 6.47357C79.7716 5.98484 79.515 5.53829 79.1607 5.17569C78.906 4.91427 78.6011 4.70697 78.2644 4.56621C77.9276 4.42546 77.5659 4.35416 77.2009 4.35658C76.8352 4.35039 76.4721 4.41997 76.1346 4.56094C75.7971 4.70191 75.4924 4.91122 75.2397 5.17569C74.1725 6.32936 74.184 7.571 74.6066 8.82418C74.7946 9.3586 75.1634 9.81054 75.6492 10.1019C76.1431 10.4099 76.7189 10.5607 77.3004 10.5345C78.0104 10.5083 78.7091 10.3483 79.3597 10.0629C79.4168 10.0424 79.4691 10.0105 79.5134 9.96911C79.5577 9.92771 79.5931 9.8777 79.6174 9.82215C79.6417 9.76659 79.6544 9.70666 79.6547 9.64603C79.6551 9.58539 79.643 9.52532 79.6193 9.4695C79.5957 9.41368 79.5608 9.36328 79.517 9.32139C79.4732 9.27949 79.4212 9.24699 79.3644 9.22586C79.3075 9.20474 79.247 9.19543 79.1864 9.19852C79.1259 9.20161 79.0666 9.21703 79.0122 9.24383C78.4682 9.4936 77.8799 9.63282 77.2817 9.65338C76.8724 9.66795 76.4675 9.56485 76.115 9.35631C75.8021 9.1438 75.56 8.84243 75.4199 8.49106C75.325 8.22578 75.2583 7.95122 75.2209 7.67195H79.3294C79.4924 7.67339 79.925 7.69935 80 7.23211H80.0044Z" fill="#E8451E"/>
<path fill-rule="evenodd" clip-rule="evenodd" d="M45.0307 22.0642H40.3929V15.3253H44.575C44.6468 15.3248 44.7185 15.3287 44.7898 15.3368C45.4272 15.4075 48.2105 15.8891 48.2105 18.8743C48.2105 22.0613 45.0278 22.0613 45.0278 22.0613L45.0307 22.0642ZM44.2116 12.7569H37.7827V29.9423H40.3929V24.8128H44.4913C45.8668 24.8262 47.2206 24.4695 48.4109 23.7803C49.817 22.9482 51.2216 21.4816 51.2216 18.9464C51.2216 16.5684 49.9871 15.0599 48.6748 14.1269C47.3651 13.2181 45.8056 12.7384 44.2116 12.754V12.7569Z" fill="#E8451E"/>
<path fill-rule="evenodd" clip-rule="evenodd" d="M57.6838 27.5759C56.9191 27.5759 56.1716 27.3492 55.5357 26.9245C54.8998 26.4997 54.404 25.896 54.1111 25.1896C53.8182 24.4832 53.7413 23.7059 53.8901 22.9558C54.0388 22.2057 54.4066 21.5165 54.9469 20.9754C55.4873 20.4342 56.1759 20.0654 56.9258 19.9155C57.6756 19.7657 58.4531 19.8414 59.1599 20.1333C59.8668 20.4251 60.4712 20.92 60.8969 21.5552C61.3226 22.1905 61.5504 22.9377 61.5515 23.7024V23.7125C61.5508 24.7377 61.1429 25.7205 60.4176 26.445C59.6923 27.1695 58.709 27.5763 57.6838 27.5759V27.5759ZM61.5515 17.7264V18.9363C60.6495 18.2043 59.5586 17.7427 58.4051 17.6052C57.2515 17.4677 56.0827 17.6599 55.0339 18.1594C53.9851 18.659 53.0993 19.4454 52.4791 20.4277C51.8589 21.41 51.5298 22.548 51.5298 23.7096C51.5298 24.8713 51.8589 26.0092 52.4791 26.9915C53.0993 27.9738 53.9851 28.7603 55.0339 29.2599C56.0827 29.7594 57.2515 29.9516 58.4051 29.8141C59.5586 29.6766 60.6495 29.215 61.5515 28.483V29.8515H64.1588V17.7264H61.5515Z" fill="#E8451E"/>
<path fill-rule="evenodd" clip-rule="evenodd" d="M65.3325 17.5605H68.8195L72.9107 25.3911L76.8577 17.5605H80V17.5822L70.6293 35.0243H67.5591L71.1369 28.5421L65.3325 17.5605Z" fill="#E8451E"/>
</g>
</g>
<defs>
<clipPath id="clip0_1801_11468">
<rect width="80" height="35.0241" fill="white"/>
</clipPath>
<clipPath id="clip1_1801_11468">
<rect width="80" height="35.0241" fill="white"/>
</clipPath>
</defs>
</svg>
