<svg width="80" height="73" viewBox="0 0 80 73" fill="none" xmlns="http://www.w3.org/2000/svg">
<g clip-path="url(#clip0_1801_11818)">
<g clip-path="url(#clip1_1801_11818)">
<path d="M33.8769 39.3069C33.1908 39.3046 32.5594 39.3833 31.9262 39.4184C30.8131 39.4798 29.7005 39.4967 28.5865 39.4958C27.3437 39.4944 26.1036 39.4193 24.8686 39.3005C23.7346 39.1912 22.6078 39.0169 21.4898 38.7842C19.9547 38.4651 18.4624 38.0222 17.0507 37.3343C15.8612 36.7548 14.785 36.0191 13.9988 34.9302C13.0541 33.6213 12.8898 32.1873 13.3796 30.6664C13.7921 29.3862 14.5646 28.3296 15.4537 27.3463C15.8093 26.9525 16.2085 26.6038 16.5882 26.2351C16.7366 26.0907 16.8044 26.1672 16.9064 26.2756C17.0102 26.3857 17.0411 26.4522 16.9073 26.5801C16.3141 27.1483 15.7983 27.7751 15.4405 28.5263C14.8578 29.7504 15.247 31.0183 16.0487 31.9019C16.9615 32.908 18.1406 33.4734 19.3943 33.9109C20.603 34.3324 21.8499 34.5851 23.115 34.7681C24.473 34.9643 25.8373 35.0426 27.2067 35.1C28.6097 35.1582 30.0087 35.089 31.4072 35.0221C32.5626 34.9666 33.7162 34.8573 34.8643 34.7139C36.1677 34.5514 37.4674 34.3634 38.7621 34.1371C40.7843 33.7839 42.7878 33.3496 44.7731 32.8306C46.4001 32.4054 48.0153 31.9356 49.5982 31.367C52.0715 30.4784 54.5057 29.4964 56.8133 28.224C58.6629 27.2043 60.422 26.0612 61.9047 24.5366C62.655 23.7654 63.2987 22.92 63.6478 21.887C63.9201 21.0813 63.9506 20.2659 63.6014 19.4747C63.3155 18.8269 62.7765 18.404 62.1997 18.0289C61.7554 17.7403 61.281 17.5067 60.7967 17.2932C60.5859 17.2003 60.5458 17.0123 60.691 16.8366C60.748 16.7679 60.7871 16.827 60.8281 16.8398C61.9543 17.1994 63.0337 17.661 64.0375 18.2934C64.8606 18.8119 65.589 19.4306 66.1221 20.2509C66.769 21.2474 67.0221 22.3355 66.82 23.5182C66.596 24.8297 65.9623 25.9455 65.146 26.9644C63.9711 28.4311 62.5266 29.6025 60.991 30.6668C58.8396 32.1587 56.5174 33.335 54.1142 34.3584C52.9278 34.8637 51.7201 35.3135 50.505 35.746C50.1486 35.873 49.8754 36.1593 49.5681 36.3778C48.7246 36.9788 47.8883 37.591 47.0479 38.1965C45.6972 39.1694 44.3461 40.1409 42.9945 41.1119C40.3841 42.9879 37.7724 44.8622 35.1634 46.7405C34.1751 47.452 33.1949 48.1754 32.2071 48.8874C30.7521 49.9358 29.2935 50.9783 27.8372 52.0245C27.7024 52.1214 27.5695 52.2216 27.4393 52.3245C27.3542 52.3919 27.3196 52.3705 27.2859 52.2717C26.9731 51.3571 26.6841 50.4375 26.5785 49.4697C26.4842 48.6052 26.4901 47.7443 26.6891 46.8966C26.9681 45.7053 27.5226 44.6505 28.3298 43.7282C28.9726 42.9939 29.7356 42.4016 30.5167 41.8248C31.5934 41.0304 32.7133 40.2938 33.7362 39.4266C33.7699 39.3979 33.8036 39.3692 33.8778 39.3059L33.8769 39.3069Z" fill="#007CC2"/>
<path d="M28.5781 16.8193C31.5076 14.712 34.4239 12.6151 37.3392 10.5169C39.0819 9.26274 40.8223 8.00581 42.5645 6.75071C44.3991 5.42915 46.2337 4.10713 48.0693 2.78693C49.3335 1.87781 50.6009 0.972338 51.8637 0.0604899C51.9766 -0.0209982 52.0353 -0.0342002 52.0872 0.111932C52.5284 1.34928 52.842 2.61439 52.8243 3.93641C52.7997 5.76421 52.1551 7.35345 50.9296 8.7128C50.0541 9.68338 48.982 10.4081 47.9313 11.1615C46.892 11.9068 45.8468 12.6461 44.9186 13.532C44.39 14.0364 43.9061 14.5795 43.6056 15.2542C42.9783 16.6636 43.1868 17.9797 44.1005 19.1947C44.7761 20.0934 45.6524 20.784 46.5328 21.4664C47.5849 22.2826 48.7162 22.9905 49.7578 23.8214C50.9692 24.7878 51.9156 25.9532 52.4355 27.4351C52.6344 28.0023 52.6381 27.9886 52.0959 28.2203C50.4793 28.9105 48.8204 29.4836 47.1465 30.0149C47.0295 30.0518 46.9357 30.0418 46.831 29.9667C45.0824 28.707 43.3207 27.4651 41.5821 26.1913C39.1598 24.4168 36.7033 22.691 34.2732 20.9274C32.4436 19.5994 30.6053 18.2833 28.7707 16.9622C28.7097 16.9185 28.6505 16.8725 28.579 16.8193H28.5781Z" fill="#F8941F"/>
<path d="M44.2699 30.8331C43.2178 31.0921 42.2049 31.358 41.1797 31.5783C40.088 31.8128 38.9936 32.0313 37.892 32.2093C37.0051 32.3527 36.1156 32.482 35.2274 32.6163C34.9975 32.6509 34.8132 32.6222 34.6242 32.4287C33.6992 31.4841 32.6294 30.7147 31.5582 29.9467C30.741 29.3608 29.8975 28.8086 29.1463 28.134C28.0546 27.1538 27.2466 25.9925 26.8118 24.5772C26.4941 23.5429 26.4654 22.494 26.5924 21.4342C26.7067 20.4782 26.9921 19.565 27.3322 18.6367C32.9763 22.7007 38.6085 26.7564 44.2699 30.8331Z" fill="#007CC2"/>
<path d="M7.85634 61.1989C7.65148 61.1989 7.44707 61.1971 7.24222 61.1998C7.15435 61.2007 7.09927 61.1884 7.11111 61.076C7.20443 60.2033 6.68318 59.4908 5.59652 59.382C4.7912 59.3014 4.00454 59.4057 3.32031 59.8873C2.89967 60.1832 2.59056 60.5611 2.55369 61.1119C2.52501 61.5348 2.70619 61.844 3.02896 62.0834C3.4883 62.4239 4.02594 62.5796 4.57587 62.6889C5.29469 62.8314 6.01489 62.9634 6.67316 63.3066C7.72841 63.8561 8.17728 64.747 8.02432 65.9297C7.86408 67.1666 7.31505 68.149 6.20427 68.7691C5.56693 69.1246 4.86813 69.2762 4.14703 69.339C3.57161 69.3891 3.00028 69.3923 2.43396 69.2525C1.22757 68.9544 0.39812 68.256 0.0776299 67.0282C-0.0320833 66.6071 -0.0111422 66.1738 0.0521364 65.7431C0.0667041 65.6434 0.12452 65.6438 0.195082 65.6438C0.619822 65.6438 1.04411 65.6434 1.46885 65.6443C1.53804 65.6443 1.58493 65.6384 1.57719 65.7536C1.50299 66.8484 1.9423 67.4594 3.03078 67.6956C4.01638 67.9091 4.97011 67.7944 5.83689 67.2354C6.39729 66.8739 6.62901 65.9457 6.46466 65.3889C6.37771 65.0939 6.15556 64.9109 5.89834 64.7698C5.41533 64.5048 4.88498 64.386 4.34961 64.2895C3.70818 64.1743 3.0804 64.0186 2.49542 63.7232C0.814665 62.8742 0.672175 61.1552 1.46202 59.8259C2.13122 58.6991 3.17008 58.0996 4.43656 57.8802C5.38301 57.7163 6.32081 57.7304 7.20124 58.1861C8.22144 58.7137 8.81781 59.8969 8.65437 61.0345C8.63708 61.1556 8.59975 61.208 8.47137 61.2025C8.26696 61.1939 8.06211 61.2002 7.85725 61.2002L7.85634 61.1989Z" fill="#007CC2"/>
<path d="M42.8295 61.972C42.9192 61.4749 43.0057 61.0083 43.0872 60.5412C43.242 59.6571 43.3954 58.7731 43.5451 57.8881C43.5597 57.8016 43.597 57.7729 43.6781 57.7729C44.1251 57.7743 44.5726 57.7752 45.0197 57.772C45.1262 57.7711 45.143 57.8098 45.1248 57.9095C44.8599 59.3717 44.5949 60.8339 44.3373 62.2971C44.1137 63.5672 43.9112 64.841 43.6767 66.1093C43.5174 66.9701 43.3899 67.836 43.247 68.6991C43.2178 68.8762 43.2674 69.1111 43.1413 69.2149C43.0061 69.3256 42.7772 69.245 42.5891 69.2491C42.3165 69.2554 42.0429 69.2395 41.7706 69.2545C41.5894 69.2646 41.5671 69.1844 41.5958 69.0397C41.6281 68.8781 41.6554 68.7151 41.6914 68.5161C41.4888 68.6577 41.3213 68.7829 41.1456 68.8954C40.6047 69.2436 40.0029 69.3975 39.3669 69.4275C38.7114 69.4585 38.0713 69.4061 37.4686 69.1002C36.7894 68.756 36.3514 68.2102 36.1812 67.4882C35.7724 65.7578 36.1584 64.1736 37.1986 62.7555C37.8173 61.912 38.6472 61.3415 39.692 61.1458C40.8119 60.9364 41.8635 61.0452 42.7248 61.8992C42.7457 61.9197 42.7735 61.9333 42.8286 61.9711L42.8295 61.972ZM37.6653 66.1557C37.6571 66.392 37.6712 66.6264 37.7285 66.855C37.8715 67.4263 38.1788 67.8761 38.7692 68.0304C39.6492 68.2603 40.4636 68.0928 41.1119 67.4336C42.0693 66.4598 42.4344 65.2557 42.316 63.9136C42.2277 62.9067 41.4588 62.359 40.4896 62.3859C39.6069 62.4104 38.9367 62.8438 38.4414 63.5495C37.8947 64.3288 37.6898 65.2175 37.6653 66.1553V66.1557Z" fill="#007CC2"/>
<path d="M11.9355 61.9724C12.4704 61.5649 13.0472 61.2363 13.7201 61.1297C14.8313 60.954 15.8838 61.0583 16.7379 61.8936C17.2491 62.3939 17.4722 63.0404 17.5209 63.7328C17.6274 65.2469 17.2382 66.6318 16.2913 67.8263C15.5083 68.8137 14.4894 69.3905 13.1997 69.4329C12.4536 69.4575 11.7539 69.3291 11.1457 68.867C11.0214 68.7728 10.9108 68.6603 10.7742 68.5388C10.613 69.1351 10.5416 69.7247 10.4323 70.3065C10.3085 70.9666 10.1915 71.628 10.0804 72.2904C10.0613 72.4038 10.0235 72.4397 9.91061 72.4379C9.50134 72.432 9.09163 72.427 8.68236 72.4397C8.50619 72.4452 8.50345 72.366 8.52713 72.2367C8.65459 71.5311 8.78161 70.8259 8.90498 70.1198C9.12668 68.8493 9.34383 67.5778 9.56644 66.3072C9.73443 65.3489 9.91561 64.3924 10.0768 63.4328C10.1906 62.7554 10.2844 62.0748 10.3759 61.3942C10.3913 61.2777 10.4223 61.2413 10.5384 61.2426C10.9704 61.2485 11.4029 61.249 11.8349 61.2426C11.9628 61.2408 11.9911 61.29 11.9738 61.4047C11.9469 61.5841 11.9291 61.7643 11.9073 61.9446C11.9046 61.9615 11.9018 61.9783 11.8991 61.9951C11.9118 61.9879 11.9246 61.9806 11.9373 61.9733L11.9355 61.9724ZM13.0864 68.1113C13.6927 68.1468 14.234 67.8928 14.6715 67.4439C15.6635 66.4255 15.9703 65.1691 15.8287 63.7938C15.7641 63.1678 15.4331 62.6566 14.7999 62.4832C13.8421 62.2209 12.9721 62.4458 12.3011 63.1942C11.4689 64.1225 11.1825 65.262 11.259 66.4743C11.3232 67.4913 12.0011 68.1623 13.0864 68.1113Z" fill="#007CC2"/>
<path d="M62.167 61.9128C62.2162 61.6319 62.2681 61.397 62.2954 61.1594C62.3159 60.98 62.3896 60.9254 62.5703 60.9336C62.9181 60.9499 63.2682 60.9536 63.6156 60.9326C63.8355 60.9194 63.8705 61.0018 63.8359 61.1899C63.7225 61.8058 63.6147 62.4226 63.5068 63.0395C63.2514 64.4954 62.9983 65.9521 62.7415 67.408C62.6423 67.9725 62.5307 68.5347 62.4365 69.0997C62.4151 69.229 62.3632 69.2558 62.2457 69.254C61.8442 69.2481 61.4427 69.249 61.0407 69.2531C60.9183 69.2545 60.8627 69.2413 60.9019 69.0901C60.9601 68.8657 60.9861 68.6326 61.0353 68.3517C60.9174 68.4418 60.8395 68.5069 60.7562 68.5643C59.3982 69.4976 57.9533 69.6965 56.4555 68.9713C55.5086 68.5129 55.0343 67.6611 54.8813 66.6455C54.6623 65.1864 55.067 63.8781 55.9352 62.7054C56.6076 61.7967 57.5021 61.1958 58.5993 60.9418C59.5876 60.7128 60.5664 60.7428 61.4718 61.2873C61.7277 61.4411 61.923 61.6638 62.1661 61.9123L62.167 61.9128ZM59.6322 62.2405C59.1374 62.2219 58.6616 62.3252 58.2346 62.5624C56.8652 63.3231 56.1432 64.8222 56.4341 66.3555C56.6021 67.2414 57.1848 67.7453 57.9606 67.911C59.0686 68.1473 60.0041 67.7704 60.7653 66.9614C61.4336 66.2512 61.7291 65.3758 61.7386 64.4166C61.7518 63.0878 60.9119 62.2401 59.6322 62.2405Z" fill="#F8941F"/>
<path d="M53.9881 61.2413C53.7987 61.2413 53.6079 61.2299 53.4199 61.245C53.2533 61.2582 53.2224 61.199 53.2337 61.0428C53.2824 60.375 53.0239 59.8569 52.4229 59.5465C51.9254 59.2893 51.3818 59.241 50.8323 59.2979C49.7174 59.414 48.9007 60.0117 48.262 60.8994C47.601 61.8186 47.2933 62.8624 47.1371 63.9664C47.0356 64.6857 47.0411 65.3954 47.2323 66.1001C47.5969 67.4449 48.6913 67.9661 49.8841 67.8587C50.4996 67.8032 51.0841 67.627 51.573 67.215C51.9408 66.905 52.2126 66.528 52.3542 66.0692C52.3984 65.9258 52.4525 65.8766 52.6005 65.8807C52.9792 65.8907 53.3585 65.893 53.7372 65.8802C53.9111 65.8743 53.9421 65.9358 53.9107 66.0892C53.7841 66.7133 53.4668 67.241 53.0794 67.7312C52.2841 68.7373 51.2197 69.2413 49.9637 69.3733C49.1543 69.4584 48.3604 69.3947 47.6165 69.0346C46.6 68.5425 46.035 67.683 45.73 66.6328C45.4213 65.5702 45.4764 64.5004 45.6863 63.4256C45.9635 62.0066 46.4916 60.7069 47.4517 59.6084C48.2461 58.6997 49.2249 58.0697 50.4153 57.8425C51.543 57.6276 52.656 57.705 53.643 58.3678C54.3495 58.8422 54.7046 59.5433 54.7929 60.3877C54.8175 60.624 54.8043 60.8544 54.7893 61.0884C54.7816 61.2058 54.741 61.2468 54.6245 61.2427C54.4124 61.2354 54.2002 61.2409 53.9881 61.2409V61.2413Z" fill="#F8941F"/>
<path d="M74.571 61.8275C74.9975 61.5011 75.4054 61.1997 75.8912 61.0418C76.9892 60.6844 78.0517 60.6867 79.0146 61.4205C79.6601 61.9126 79.9232 62.6078 79.9879 63.3913C80.0466 64.1023 79.8672 64.7889 79.7489 65.4804C79.5449 66.6699 79.3273 67.8572 79.1243 69.0472C79.097 69.2065 79.0446 69.2616 78.8803 69.2561C78.5015 69.2438 78.1218 69.2434 77.7435 69.2561C77.5724 69.2621 77.5564 69.1883 77.5806 69.054C77.7545 68.0889 77.9334 67.1242 78.0977 66.1573C78.2152 65.4658 78.3986 64.7811 78.4355 64.081C78.5106 62.6611 77.4718 61.9705 76.1689 62.3133C74.9479 62.6342 74.2486 63.4773 74.0365 64.7233C73.8936 65.5641 73.7465 66.404 73.6013 67.2444C73.4998 67.8317 73.396 68.4185 73.299 69.0067C73.2717 69.1733 73.2285 69.2693 73.0181 69.2589C72.5888 69.237 72.1573 69.2525 71.7139 69.2525C72.0102 67.5708 72.3039 65.9151 72.5943 64.2585C72.847 62.8163 73.0946 61.3736 73.3468 59.9314C73.4647 59.2549 73.5895 58.5798 73.7051 57.9033C73.721 57.81 73.7529 57.7713 73.8476 57.7722C74.2796 57.775 74.7121 57.7768 75.1441 57.7718C75.3522 57.769 75.2593 57.9174 75.2474 57.9916C75.1737 58.446 75.0858 58.898 75.0021 59.3505C74.8646 60.0921 74.7257 60.8337 74.5892 61.5758C74.576 61.6477 74.5778 61.7219 74.5705 61.8284L74.571 61.8275Z" fill="#F8941F"/>
<path d="M23.2641 65.5661C22.3546 65.5661 21.4445 65.5702 20.535 65.5624C20.3602 65.5611 20.2992 65.608 20.2896 65.7882C20.2728 66.1069 20.2828 66.4187 20.3433 66.7329C20.4917 67.5036 21.1454 68.0517 21.9326 68.1091C23.0948 68.1933 24.0836 67.8068 24.9622 67.0775C25.0032 67.0438 25.046 67.0128 25.086 66.9782C25.1625 66.9122 25.1962 66.9268 25.2144 67.0292C25.2836 67.4153 25.3546 67.8013 25.4352 68.1851C25.4666 68.3349 25.366 68.3863 25.2759 68.4509C24.6016 68.9358 23.8546 69.2517 23.032 69.3633C22.1556 69.4821 21.2811 69.5085 20.4394 69.1616C19.5353 68.7892 18.9557 68.1236 18.7527 67.1717C18.404 65.5369 18.8274 64.0756 19.8353 62.77C20.5413 61.855 21.486 61.3082 22.615 61.1193C23.4444 60.9804 24.2761 61.0141 25.0464 61.422C25.8499 61.8477 26.2237 62.5538 26.353 63.426C26.4513 64.0897 26.3662 64.7357 26.235 65.384C26.2027 65.5442 26.1353 65.5697 25.9938 65.5688C25.0842 65.5638 24.1742 65.5661 23.2646 65.5661H23.2641ZM20.6146 64.3788H24.1578C24.6461 64.3788 24.8469 64.1348 24.7601 63.6468C24.6463 63.0058 24.2293 62.5342 23.6607 62.4322C23.1194 62.3352 22.5949 62.389 22.1005 62.6544C21.3913 63.0349 20.9055 63.6031 20.6142 64.3784L20.6146 64.3788Z" fill="#007CC2"/>
<path d="M33.9717 66.9059C34.0596 67.3438 34.1401 67.7481 34.2216 68.1523C34.2448 68.2661 34.2166 68.349 34.1156 68.4214C33.3963 68.9385 32.6023 69.2649 31.7214 69.3756C31.034 69.4621 30.3452 69.4894 29.6706 69.3082C28.3791 68.9608 27.591 68.0768 27.459 66.7393C27.2842 64.9693 27.8414 63.4319 29.1452 62.2169C30.1308 61.2982 31.3313 60.944 32.6793 61.0902C33.6621 61.1967 34.4442 61.5982 34.8858 62.5237C35.1954 63.1733 35.215 63.868 35.1562 64.5673C35.1348 64.8222 35.0757 65.074 35.0424 65.328C35.0188 65.5069 34.9405 65.5711 34.7483 65.5702C32.9515 65.562 31.1547 65.5693 29.3583 65.5602C29.1348 65.5588 29.0801 65.6285 29.0779 65.8415C29.0728 66.3682 29.0751 66.889 29.3829 67.3488C29.6988 67.8209 30.1513 68.0558 30.7108 68.1041C31.8876 68.2056 32.8905 67.8004 33.7796 67.0588C33.8315 67.0156 33.8857 66.9742 33.9722 66.905L33.9717 66.9059ZM29.4175 64.3793C30.3443 64.3793 31.253 64.3793 32.1621 64.3793C32.5787 64.3793 32.9957 64.3793 33.4122 64.3793C33.4932 64.3793 33.5784 64.3979 33.5857 64.265C33.6412 63.2034 33.1664 62.3698 31.94 62.3844C30.7272 62.399 29.753 63.3614 29.4175 64.3793Z" fill="#007CC2"/>
<path d="M65.1869 66.5108C65.3918 66.5108 65.5966 66.5167 65.801 66.5085C65.9189 66.5039 65.9472 66.5508 65.9239 66.6551C65.8242 67.1021 66.0428 67.3926 66.3997 67.612C66.8991 67.9188 67.4481 67.9329 68.0026 67.8555C68.2921 67.815 68.5812 67.7522 68.8452 67.6084C69.2358 67.3953 69.3788 67.0489 69.3806 66.6291C69.3815 66.4502 69.2823 66.3173 69.1352 66.219C68.7942 65.9913 68.4036 65.9067 68.0099 65.8347C67.4536 65.7328 66.8973 65.6362 66.3742 65.4036C64.8801 64.7399 64.7672 63.3213 65.5306 62.2301C66.0919 61.4275 66.9146 61.0328 67.8601 60.8831C68.6008 60.7656 69.3401 60.7706 70.0448 61.072C70.9252 61.4489 71.4324 62.3271 71.3454 63.2817C71.3327 63.4206 71.2921 63.4798 71.1406 63.4793C70.7472 63.4784 70.3534 63.4962 69.9601 63.5048C69.8782 63.5066 69.8031 63.5221 69.794 63.3874C69.7507 62.7591 69.5144 62.4596 68.8967 62.3626C68.2689 62.2643 67.6429 62.3011 67.0889 62.6799C67.0329 62.7181 66.9765 62.7578 66.9259 62.8028C66.4652 63.2144 66.5208 63.6792 67.0639 63.9682C67.4636 64.1808 67.9024 64.2528 68.3417 64.3302C68.9222 64.4326 69.493 64.5646 70.0116 64.8683C70.6366 65.2343 70.9603 65.7756 70.9325 66.4944C70.8906 67.5806 70.4181 68.415 69.4284 68.9263C68.9304 69.1835 68.3986 69.3155 67.846 69.3619C67.0698 69.4275 66.3041 69.3984 65.5934 69.0187C64.677 68.5284 64.2477 67.693 64.382 66.6674C64.3962 66.5581 64.4321 66.5053 64.5509 66.5089C64.7631 66.5158 64.9752 66.5108 65.1878 66.5108H65.1869Z" fill="#F8941F"/>
<path d="M11.9357 61.9723C11.923 61.9796 11.9102 61.9869 11.8975 61.9941C11.9002 61.9773 11.9034 61.9604 11.9057 61.9436C11.9161 61.9527 11.9257 61.9618 11.9352 61.9723H11.9357Z" fill="white"/>
</g>
</g>
<defs>
<clipPath id="clip0_1801_11818">
<rect width="80" height="72.4398" fill="white"/>
</clipPath>
<clipPath id="clip1_1801_11818">
<rect width="80" height="72.4398" fill="white"/>
</clipPath>
</defs>
</svg>
