<svg width="80" height="16" viewBox="0 0 80 16" fill="none" xmlns="http://www.w3.org/2000/svg">
<g clip-path="url(#clip0_1801_11808)">
<g clip-path="url(#clip1_1801_11808)">
<path d="M4.18213 0H1.34293V2.35435H0.00195312V4.95987H1.34293V8.01747C1.34293 10.4199 3.28232 11.9487 5.68036 11.9487H7.35767V9.44362H5.67162C5.27775 9.44362 4.9 9.28716 4.62148 9.00864C4.34297 8.73013 4.1865 8.35238 4.1865 7.9585V4.95987H6.05164C6.40486 4.94682 6.73914 4.79683 6.98372 4.54165C7.2283 4.28648 7.36398 3.94614 7.36204 3.59268V2.36091H4.18213V0ZM20.5119 8.06988C20.5119 8.46376 20.3555 8.84151 20.0769 9.12002C19.7984 9.39854 19.4207 9.55501 19.0268 9.55501C18.6329 9.55501 18.2552 9.39854 17.9767 9.12002C17.6981 8.84151 17.5417 8.46376 17.5417 8.06988V3.72591C17.5417 3.54542 17.5061 3.36671 17.4369 3.20002C17.3677 3.03333 17.2662 2.88194 17.1384 2.75452C17.0106 2.62711 16.8589 2.52617 16.692 2.4575C16.5251 2.38883 16.3462 2.35378 16.1658 2.35435H14.6872V7.69861C14.6872 10.101 15.9976 12.0513 19.0246 12.0513C22.0516 12.0513 23.3642 10.1032 23.3642 7.69861V2.35435H20.525V8.06988M33.1922 7.43216C33.1726 4.4641 31.5608 2.1294 28.5622 2.1294C25.9872 2.1294 23.9102 4.20857 23.9102 7.07398C23.9102 10.1643 25.7994 11.9945 28.584 12.0491C29.4442 12.0475 30.2881 11.8138 31.0265 11.3725C31.765 10.9312 32.3706 10.2988 32.7795 9.54191L30.1739 8.86049C29.9913 9.11605 29.749 9.32307 29.4681 9.46354C29.1872 9.604 28.8762 9.67364 28.5622 9.66639C27.5466 9.66639 26.7254 8.93693 26.697 8.05459H33.1901C33.1901 7.91482 33.1901 7.57849 33.1901 7.43216M26.6774 6.1021C26.7058 5.2285 27.5248 4.49686 28.5425 4.49686C29.5602 4.49686 30.3989 5.21103 30.412 6.1021H26.6774ZM12.3569 2.35435H11.9703C11.4517 2.35435 10.9381 2.45658 10.459 2.65518C9.97993 2.85378 9.54467 3.14487 9.17815 3.5118C8.81163 3.87873 8.52102 4.3143 8.32295 4.79361C8.12487 5.27293 8.02322 5.78658 8.02379 6.30521V11.9377H10.863V6.44499C10.8624 6.24943 10.9006 6.05569 10.9753 5.87496C11.05 5.69423 11.1597 5.53009 11.2982 5.39201C11.4367 5.25393 11.6012 5.14464 11.7821 5.07047C11.9631 4.9963 12.1569 4.95871 12.3525 4.95987H14.0167V2.35435H12.3525H12.3569Z" fill="#ED1C24"/>
<path d="M53.654 9.13576C53.4715 9.38534 53.2327 9.58834 52.957 9.72829C52.6813 9.86823 52.3765 9.94117 52.0673 9.94117C51.7581 9.94117 51.4533 9.86823 51.1776 9.72829C50.9019 9.58834 50.6631 9.38534 50.4806 9.13576C50.094 8.62689 49.88 7.77731 49.88 7.00199C49.8556 6.29073 50.0667 5.5913 50.4806 5.01236C50.658 4.75559 50.895 4.54571 51.1714 4.40073C51.4478 4.25575 51.7552 4.18001 52.0673 4.18001C52.3794 4.18001 52.6868 4.25575 52.9632 4.40073C53.2395 4.54571 53.4766 4.75559 53.654 5.01236C54.0656 5.59254 54.2772 6.29093 54.2567 7.00199C54.2567 7.77513 54.0383 8.62689 53.654 9.13576ZM52.0727 2.10327C51.5068 2.10895 50.9492 2.24045 50.4404 2.48825C49.9316 2.73605 49.4843 3.09394 49.1309 3.53598C48.3284 4.51189 47.8981 5.74083 47.9166 7.00417C47.9166 8.33641 48.3796 9.72544 49.1309 10.6078C49.478 11.0546 49.9226 11.4161 50.4307 11.6648C50.9389 11.9135 51.4972 12.0428 52.0629 12.0428C52.6287 12.0428 53.1869 11.9135 53.6951 11.6648C54.2033 11.4161 54.6479 11.0546 54.9949 10.6078C55.7506 9.73417 56.2092 8.33641 56.2092 7.00417C56.2262 5.74107 55.7961 4.51265 54.9949 3.53598C54.6427 3.097 54.198 2.74104 53.6926 2.49341C53.1871 2.24578 52.6333 2.11258 52.0706 2.10327" fill="#F58220"/>
<path d="M61.0316 2.10092C60.564 2.11455 60.106 2.23691 59.694 2.4583C59.2819 2.67969 58.927 2.99402 58.6576 3.37637V3.36545C58.6598 3.06388 58.558 2.77076 58.3693 2.53553C58.2851 2.4288 58.1785 2.34195 58.0569 2.28117C57.9354 2.22039 57.8019 2.18718 57.666 2.18391C57.5298 2.18684 57.396 2.22083 57.2749 2.28327C57.1538 2.34572 57.0485 2.43499 56.9672 2.54427C56.786 2.78053 56.6877 3.06991 56.6876 3.36764V10.8216C56.6838 11.1163 56.7879 11.4021 56.9803 11.6253C57.0674 11.7268 57.1748 11.8089 57.2955 11.8664C57.4162 11.9239 57.5476 11.9556 57.6813 11.9595C57.8127 11.9554 57.9418 11.9235 58.06 11.8659C58.1782 11.8083 58.2829 11.7263 58.3671 11.6253C58.5587 11.402 58.6614 11.1159 58.6554 10.8216V6.54973C58.6413 5.95967 58.8141 5.38026 59.149 4.89425C59.3096 4.66969 59.5222 4.48741 59.7687 4.36303C60.0152 4.23865 60.2881 4.17587 60.5642 4.18009C60.8239 4.17094 61.0818 4.22714 61.3142 4.34352C61.5466 4.4599 61.746 4.63274 61.8943 4.84621C62.2227 5.34545 62.3862 5.93517 62.3616 6.53225V10.8194C62.351 11.1152 62.4559 11.4035 62.6543 11.6232C62.7404 11.7248 62.8469 11.8071 62.967 11.8646C63.087 11.9222 63.2179 11.9538 63.351 11.9573C63.4826 11.9541 63.6119 11.9226 63.7303 11.8649C63.8486 11.8073 63.9531 11.7248 64.0368 11.6232C64.2255 11.3983 64.3271 11.113 64.3229 10.8194V6.46237C64.3229 5.23714 64.028 4.14078 63.4493 3.35672C63.1807 2.96159 62.8176 2.63978 62.3932 2.42049C61.9687 2.20119 61.4962 2.09135 61.0185 2.10092" fill="#F58220"/>
<path d="M68.9007 4.08185C69.1574 4.08607 69.4105 4.14201 69.6451 4.24633C69.8796 4.35065 70.0907 4.50121 70.2657 4.689C70.6054 5.06877 70.827 5.53932 70.9034 6.04307H66.8958C66.9733 5.53464 67.1928 5.05845 67.5291 4.66934C67.7051 4.48297 67.9174 4.33468 68.1529 4.23363C68.3885 4.13258 68.6422 4.08092 68.8985 4.08185M72.3776 9.10505H72.3645C72.2962 8.99056 72.2007 8.89474 72.0863 8.82615C71.972 8.75756 71.8425 8.71832 71.7093 8.71193C71.61 8.71023 71.5115 8.7305 71.4209 8.77127C71.3303 8.81204 71.2498 8.87232 71.1852 8.9478C70.5911 9.62266 69.8573 10.0398 69.0012 10.0398C68.7188 10.0398 68.4394 9.98166 68.1805 9.86893C67.9216 9.7562 67.6887 9.59133 67.4964 9.3846C67.1172 8.91498 66.8888 8.34174 66.8412 7.74005H72.1265C72.3223 7.73828 72.5097 7.65989 72.6485 7.52165C72.801 7.36428 72.8857 7.15332 72.8843 6.93415C72.9082 5.68676 72.5103 4.46783 71.7552 3.47469C71.4153 3.04221 70.9819 2.69223 70.4876 2.45093C69.9933 2.20963 69.4508 2.08327 68.9007 2.0813C68.338 2.09201 67.7848 2.22791 67.2813 2.47913C66.7777 2.73035 66.3364 3.09058 65.9894 3.53366C65.2047 4.51737 64.7869 5.74364 64.8079 7.00185C64.8079 8.34283 65.2687 9.72312 66.0156 10.6055C66.372 11.0445 66.8203 11.4001 67.329 11.6473C67.8376 11.8944 68.3942 12.0271 68.9597 12.036C69.5926 12.0266 70.2159 11.8797 70.7865 11.6055C71.3571 11.3314 71.8612 10.9365 72.2641 10.4482V10.4307C72.4371 10.2162 72.5346 9.9506 72.5414 9.67507C72.5355 9.47991 72.4831 9.28899 72.3886 9.11815" fill="#F58220"/>
<path d="M79.9996 3.39395C80.0085 3.19202 79.9585 2.99186 79.8557 2.81779C79.753 2.64372 79.6019 2.50322 79.4209 2.41334C79.3321 2.36527 79.2335 2.33837 79.1326 2.33472C78.9471 2.34211 78.7686 2.40737 78.6222 2.52135C78.4757 2.63533 78.3685 2.7923 78.3158 2.97026L76.2978 8.32761L74.2448 2.95934C74.1896 2.78141 74.0797 2.62544 73.9307 2.51367C73.7816 2.4019 73.6011 2.34004 73.4149 2.3369C73.2957 2.33929 73.1783 2.36605 73.0698 2.41552C72.8964 2.51655 72.7536 2.66272 72.6567 2.83849C72.5597 3.01425 72.5123 3.21302 72.5194 3.41361C72.5227 3.48035 72.5344 3.54641 72.5544 3.61017C72.6264 3.87444 72.8165 4.43354 73.0698 5.11932C73.7905 7.10894 75.0114 10.2124 75.2538 10.8785C74.7187 12.1999 73.8517 13.2809 72.6701 13.9143C72.5153 13.9994 72.3834 14.1208 72.2857 14.2681C72.1774 14.4383 72.1212 14.6364 72.1241 14.8381C72.1215 15.0912 72.2081 15.3371 72.3687 15.5326C72.4358 15.6279 72.5238 15.7064 72.6261 15.762C72.7283 15.8177 72.8421 15.8491 72.9584 15.8537C73.0717 15.8433 73.1817 15.8098 73.2817 15.7554C75.0922 14.9342 76.3611 13.2285 77.1037 11.2498L79.9167 3.8242C79.9742 3.68607 80.0003 3.53687 79.9931 3.3874" fill="#F58220"/>
<path d="M44.4095 2.09662C43.8626 2.10557 43.3282 2.26104 42.8618 2.54684C42.3955 2.83264 42.0143 3.23829 41.7581 3.72152C41.557 3.2864 41.2581 2.90369 40.8845 2.60331C40.4429 2.26603 39.9004 2.08751 39.3448 2.09662C38.4712 2.09662 37.8509 2.60331 37.353 3.3415C37.3576 3.05015 37.2629 2.7659 37.0844 2.53561C37.0067 2.42727 36.9049 2.3385 36.787 2.27633C36.6691 2.21416 36.5384 2.1803 36.4051 2.17743C36.2615 2.17927 36.1199 2.21224 35.9902 2.27407C35.8605 2.33591 35.7457 2.42514 35.6538 2.53561C35.4793 2.77511 35.3873 3.06484 35.3918 3.36116V10.7868C35.389 11.0788 35.4793 11.3641 35.6495 11.6014C35.7362 11.7083 35.8453 11.7949 35.969 11.8553C36.0928 11.9156 36.2282 11.9482 36.3658 11.9508C36.504 11.9495 36.6401 11.9174 36.7644 11.857C36.8887 11.7965 36.998 11.7092 37.0844 11.6014C37.268 11.3702 37.3646 11.0819 37.3574 10.7868V6.5498C37.3574 5.90771 37.377 5.31584 37.6478 4.8856C37.7808 4.66882 37.968 4.49039 38.1908 4.36786C38.4137 4.24532 38.6646 4.18289 38.9189 4.18671C39.1579 4.1771 39.3949 4.23308 39.6044 4.34857C39.8138 4.46407 39.9876 4.63468 40.107 4.84191C40.3604 5.24159 40.439 5.83564 40.439 6.51705V10.7868C40.439 11.4048 40.8387 11.9508 41.3628 11.9508C41.5019 11.9477 41.6387 11.9148 41.7642 11.8546C41.8896 11.7943 42.0007 11.708 42.0901 11.6014C42.269 11.3669 42.3692 11.0817 42.3762 10.7868V6.45371C42.3475 5.8943 42.4866 5.33908 42.7759 4.85939C42.9094 4.6502 43.0944 4.47872 43.3131 4.36134C43.5318 4.24396 43.7769 4.1846 44.0251 4.1889C44.2641 4.17929 44.5011 4.23526 44.7106 4.35076C44.92 4.46625 45.0938 4.63686 45.2132 4.8441C45.4622 5.24377 45.4709 5.83782 45.4709 6.51922V10.789C45.4659 11.0827 45.5598 11.3696 45.7374 11.6036C45.8199 11.7114 45.9259 11.7989 46.0474 11.8595C46.169 11.92 46.3027 11.952 46.4384 11.953C46.5775 11.9496 46.7142 11.9166 46.8396 11.8564C46.965 11.7961 47.0761 11.71 47.1657 11.6036C47.3482 11.3719 47.444 11.0838 47.4365 10.789V6.39911C47.4365 5.15423 47.2181 4.09499 46.7136 3.3284C46.4783 2.93232 46.1394 2.60792 45.7334 2.3901C45.3274 2.17229 44.8697 2.06931 44.4095 2.09226" fill="#F58220"/>
</g>
</g>
<defs>
<clipPath id="clip0_1801_11808">
<rect width="80" height="15.8537" fill="white"/>
</clipPath>
<clipPath id="clip1_1801_11808">
<rect width="80" height="15.8537" fill="white"/>
</clipPath>
</defs>
</svg>
