<svg width="64" height="56" viewBox="0 0 64 56" fill="none" xmlns="http://www.w3.org/2000/svg">
<g clip-path="url(#clip0_1801_11290)">
<path fill-rule="evenodd" clip-rule="evenodd" d="M0.788664 1.46888C-0.151424 2.61086 0.0630931 4.18188 0 5.551C0.0757118 15.873 -0.0630931 26.195 0.0694025 36.5107C0.473199 46.3596 9.63432 54.6374 19.439 54.2904C29.1175 54.4228 38.0389 46.1955 38.4237 36.4729C38.613 26.7629 38.4427 17.0465 38.5121 7.33653C44.5501 7.33653 50.5944 7.33653 56.6387 7.33653C56.6513 21.0593 56.645 34.782 56.6387 48.5047C52.014 48.5552 47.3829 48.429 42.7645 48.5552C40.4175 48.4543 38.4868 50.9906 39.2502 53.2241C39.7108 54.997 41.5784 55.9876 43.3324 55.8424C49.0423 55.8172 54.7585 55.9055 60.4748 55.7983C62.6136 55.8109 64.1847 53.7099 63.9701 51.6594C63.9954 36.9208 63.9575 22.1823 63.9891 7.4501C63.9701 5.84123 64.0963 4.21343 63.7998 2.62348C63.3581 0.907352 61.5537 -0.121065 59.8438 0.0114308C51.6039 0.00512152 43.3576 -0.00749709 35.1176 0.0114308C33.105 -0.127374 31.1175 1.53828 31.2185 3.62035C31.0797 14.3525 31.2563 25.0972 31.1365 35.8356C31.0292 40.2711 28.0197 44.3721 23.9438 46.0378C19.5084 47.9747 13.9436 46.8832 10.606 43.3626C8.4671 41.2049 7.29357 38.1827 7.3188 35.1542C7.32511 25.0594 7.27464 14.9582 7.36297 4.86959C7.36928 3.5194 7.29357 2.00517 6.21467 1.03985C4.7446 -0.487004 2.00636 -0.247251 0.788664 1.46888Z" fill="#3BB8EA"/>
</g>
<defs>
<clipPath id="clip0_1801_11290">
<rect width="64" height="55.8564" fill="white"/>
</clipPath>
</defs>
</svg>
