<svg width="80" height="20" viewBox="0 0 80 20" fill="none" xmlns="http://www.w3.org/2000/svg">
<g clip-path="url(#clip0_1801_11044)">
<path d="M65.3689 0.987956C64.5239 0.987956 63.8349 1.67044 63.8349 2.51542C63.8349 3.3539 64.5109 4.04288 65.3624 4.04288C66.2139 4.04288 66.8898 3.3539 66.8898 2.51542C66.8898 1.66394 66.2139 0.987956 65.3689 0.987956Z" fill="black"/>
<path d="M66.6948 6.12933H64.0429V19.051H66.6948V6.12933Z" fill="black"/>
<path d="M74.4296 17.0686C72.3692 17.0686 71.0042 15.4241 71.0042 12.5837C71.0042 9.80824 72.3497 8.10528 74.4036 8.10528C76.1326 8.10528 77.1661 9.20375 77.4391 10.5752L79.974 10.5687C79.74 8.02728 77.7121 5.88883 74.3841 5.88883C70.7117 5.88883 68.3003 8.48227 68.3003 12.5837C68.3003 16.7566 70.7052 19.2915 74.4036 19.2915C77.5106 19.2915 79.714 17.426 79.9935 14.6701H77.4391C77.1336 16.1716 76.0676 17.0686 74.4296 17.0686Z" fill="black"/>
<path d="M57.1986 17.283C55.5801 17.283 54.6571 16.6201 54.4101 15.2681H51.7777C52.0247 17.725 53.9617 19.311 57.1921 19.311C60.2405 19.311 62.4374 17.6925 62.4374 15.3331C62.4374 13.4611 61.4365 12.4277 58.791 11.8167L56.6916 11.3357C55.2876 11.0172 54.7026 10.4582 54.7026 9.65224C54.7026 8.61227 55.6581 7.91678 57.0946 7.91678C58.5765 7.91678 59.506 8.70326 59.649 9.95123H62.1385C62.0475 7.56579 60.0975 5.89533 57.0881 5.89533C54.1177 5.89533 52.1092 7.48129 52.1157 9.79524C52.1157 11.6737 53.3312 12.8567 55.7881 13.4221L57.8876 13.9161C59.3045 14.2346 59.779 14.7221 59.779 15.5606C59.779 16.6201 58.791 17.283 57.1986 17.283Z" fill="black"/>
<path d="M36.7501 19.051V1.32595H33.5522L27.8323 15.4501H27.7348L22.002 1.32595H18.8235V19.051H21.326V6.00583H21.4105L26.7598 19.051H28.8008L34.1502 6.00583H34.2347V19.051H36.7501Z" fill="black"/>
<path d="M39.103 6.12933V14.4946C39.103 17.4585 40.832 19.285 43.6399 19.285C45.6159 19.285 46.9288 18.414 47.6438 16.8671H47.7088V19.051H50.2502L50.2438 6.12933H47.5853V13.6626C47.5853 15.6776 46.4348 17.0036 44.5174 17.0036C42.6844 17.0036 41.755 15.9441 41.755 13.9811V6.12933H39.103Z" fill="black"/>
<path d="M8.1508 4.55639C8.1378 4.43939 8.1313 4.31589 8.1313 4.1924C8.1313 3.26942 8.53429 2.27494 9.24927 1.46246C9.60676 1.05297 10.0617 0.714982 10.6142 0.441989C11.1602 0.168996 11.6802 0.0259994 12.1742 0C12.1807 0.123497 12.1872 0.253494 12.1872 0.38349C12.1872 1.34547 11.8362 2.24894 11.1342 3.08092C10.2827 4.0689 9.26227 4.64738 8.1508 4.55639ZM4.97238 4.61488C4.1209 4.62788 3.32792 4.84888 2.59344 5.29087C1.86545 5.71986 1.28047 6.31134 0.838479 7.06532C0.279493 7.9948 0 9.11277 0 10.4062C0 11.5307 0.207995 12.7007 0.630484 13.8902C1.02047 15.0081 1.51446 15.9831 2.11245 16.8281C2.67143 17.6146 3.13292 18.1735 3.50991 18.4985C4.0949 19.0445 4.67338 19.3045 5.26487 19.2785C5.64836 19.272 6.14885 19.1355 6.77933 18.882C7.40332 18.6285 7.9883 18.505 8.53429 18.505C9.05427 18.505 9.61976 18.6285 10.2372 18.882C10.8547 19.142 11.3812 19.2655 11.8232 19.2655C12.4342 19.2525 13.0062 18.999 13.5392 18.5115C13.8902 18.206 14.3321 17.6731 14.8781 16.8931C15.2746 16.3211 15.6191 15.7036 15.9116 15.0276C16.0286 14.7416 16.1456 14.4426 16.2496 14.1371C15.7491 13.9292 15.3071 13.6367 14.9106 13.2597C14.0331 12.4472 13.5847 11.4202 13.5717 10.1917C13.5522 8.61228 14.2671 7.38382 15.7231 6.49984C14.9171 5.34287 13.6887 4.70588 12.0702 4.57589C11.4722 4.52389 10.7442 4.65388 9.87325 4.96588C8.95678 5.30387 8.42379 5.47286 8.26129 5.47286C8.0533 5.47286 7.56581 5.32337 6.80533 5.04387C6.05135 4.75788 5.44036 4.61488 4.97238 4.61488Z" fill="black"/>
</g>
<defs>
<clipPath id="clip0_1801_11044">
<rect width="79.9935" height="19.311" fill="white"/>
</clipPath>
</defs>
</svg>
