<svg width="80" height="16" viewBox="0 0 80 16" fill="none" xmlns="http://www.w3.org/2000/svg">
<g clip-path="url(#clip0_1801_10771)">
<path fill-rule="evenodd" clip-rule="evenodd" d="M17.0444 7.31078C16.4613 5.43136 16.0098 4.02478 15.7103 3.13279C15.0672 1.21224 14.883 0.850858 14.8342 0.780843C14.6639 0.53626 14.4045 0.344111 14.0709 0.211616C13.7156 0.0690733 13.3244 0 12.9016 0C12.48 0 12.0852 0.0690733 11.7281 0.211616C11.39 0.344111 11.1338 0.53626 10.9665 0.772051C10.9238 0.838299 10.7568 1.20125 10.1019 3.14974C9.66105 4.46622 9.20599 5.87374 8.74551 7.32774L8.52974 8.01847C8.52974 8.01847 8.49237 8.20842 8.34048 8.20842H3.93066C3.27821 8.20842 2.75685 7.83762 2.38106 7.10639C2.06372 6.48599 1.90099 5.73497 1.90099 4.87187C1.90099 4.03011 2.0577 3.30924 2.3675 2.7284C2.73636 2.03201 3.26465 1.6788 3.93066 1.6788H9.20448V0.0536888H3.55697C2.46152 0.0536888 1.57371 0.571739 0.91855 1.59214C0.309197 2.54284 0 3.71395 0 5.07155C0 6.40624 0.302266 7.54218 0.898961 8.44233C1.5487 9.42254 2.44284 9.91736 3.55697 9.91736H9.64236C9.75989 9.91736 9.90515 9.8081 9.94342 9.69224L10.3216 8.54531C10.3216 8.54531 12.4471 2.07597 12.4507 2.06843C12.4507 2.06843 12.4538 2.05273 12.4571 2.04708L12.4655 2.03295C12.5592 1.85807 12.7156 1.76263 12.91 1.76263C13.1264 1.76263 13.2843 1.88131 13.3392 2.07597L15.9731 9.91736H17.8093C17.8322 9.91736 17.8454 9.91234 17.8508 9.91014C17.8518 9.9048 17.8518 9.89224 17.8439 9.86807L17.0444 7.31078Z" fill="#EC6C00"/>
<path fill-rule="evenodd" clip-rule="evenodd" d="M22.4108 2.18618H25.7851V0.661159H17.1901V2.18618H20.5651V9.91736H22.4108V2.18618Z" fill="#EC6C00"/>
<path fill-rule="evenodd" clip-rule="evenodd" d="M75.4178 4.24676C75.3862 4.27796 75.3496 4.3044 75.3115 4.32787C75.2283 4.37422 75.1294 4.39501 75.0326 4.39501C74.8264 4.39501 74.6704 4.29697 74.6043 4.1309L72.1572 0.661159H70.0826C70.8977 1.83764 74.0851 6.44673 74.0851 6.44673L74.1006 6.46872L74.1307 6.51209V9.91736H75.9262V6.5112L75.9578 6.46872L75.9733 6.44673L80 0.661159H77.9037L76.6243 2.51264C76.6243 2.51264 75.4513 4.21498 75.4178 4.24676Z" fill="#EC6C00"/>
<path fill-rule="evenodd" clip-rule="evenodd" d="M35.8877 8.31397H29.8362C29.1644 8.31397 28.6277 7.96571 28.2416 7.27951C27.9105 6.69731 27.7444 5.99285 27.7444 5.1826C27.7444 4.39269 27.9077 3.71621 28.2251 3.17114C28.6087 2.51764 29.1492 2.18618 29.8362 2.18618H34.3829V0.661159H29.452C28.3236 0.661159 27.4077 1.1473 26.7331 2.10486C26.1041 2.99701 25.7852 4.096 25.7852 5.36999C25.7852 6.62248 26.097 7.68846 26.7138 8.53347C27.3816 9.45302 28.3034 9.91736 29.452 9.91736H37.6863V6.05266H42.4999V9.91736H44.2976V0.661159H42.4999V4.45015H37.6863V0.661159H35.8877V8.31397Z" fill="#EC6C00"/>
<path fill-rule="evenodd" clip-rule="evenodd" d="M52.3016 3.36209C52.3016 2.47573 51.4666 2.18038 51.2537 2.18038H45.6351V0.661159H51.66C51.66 0.661159 54.2149 0.66116 54.2149 3.37594C54.2149 6.09102 51.6486 6.03443 51.6486 6.03443H48.7023C48.7023 6.03443 47.4193 6.06272 47.4193 7.75792C47.4193 9.69924 47.412 9.91736 47.412 9.91736H45.6199V7.20228C45.6199 7.20228 45.6841 4.4592 48.2241 4.4592H51.2308C51.2308 4.4592 52.3016 4.24845 52.3016 3.36209Z" fill="#EC6C00"/>
<path fill-rule="evenodd" clip-rule="evenodd" d="M71.3972 9.86884L71.0861 8.95819C71.0554 8.86561 71.0386 8.81859 71.0308 8.79315L71.0324 8.79966L70.9724 8.62605L70.5821 7.48174C69.982 5.72195 69.5243 4.41173 69.2188 3.58448C68.5613 1.79156 68.3733 1.45439 68.3245 1.38903C68.1483 1.161 67.8844 0.982358 67.5445 0.859616C67.1828 0.726523 66.7816 0.661159 66.3503 0.661159C65.9208 0.661159 65.5174 0.726523 65.1514 0.859616C64.8071 0.982358 64.5439 1.161 64.3757 1.38105C64.3322 1.44345 64.1582 1.7818 63.4904 3.60015C63.0445 4.81455 62.5787 6.12774 62.1063 7.49771L61.8838 8.14247C61.8838 8.14247 61.8366 8.31964 61.6918 8.31964H59.2138C58.7514 8.31964 58.184 8.31431 57.8074 8.02447C56.8972 7.3241 56.6588 6.06504 56.6588 5.01597V0.710848H54.8764C54.8764 1.28019 54.8779 1.84953 54.8779 2.41888C54.8782 3.19999 54.8717 3.9808 54.8817 4.76132C54.8981 5.99583 54.8795 7.3448 55.6644 8.39713C56.2937 9.24094 56.9746 9.77035 58.2943 9.89753C58.6141 9.92829 58.9537 9.91409 59.2751 9.91409H63.019C63.1399 9.91409 63.2906 9.81176 63.3298 9.70292L63.5532 9.07975L63.7151 8.63314C63.7151 8.63314 65.8848 2.59752 65.8882 2.59426C65.8882 2.59426 65.8925 2.57948 65.8975 2.5709L65.905 2.55789C65.9994 2.39433 66.1601 2.30619 66.3593 2.30619C66.5793 2.30619 66.7409 2.41562 66.7987 2.59752L69.4873 9.91409H71.3614C71.3882 9.91409 71.4009 9.90966 71.4034 9.9067C71.4062 9.90167 71.4062 9.88925 71.3972 9.86884Z" fill="#EC6C00"/>
<path fill-rule="evenodd" clip-rule="evenodd" d="M48.8945 13.7836C48.8945 13.3556 48.8112 13.0278 48.6442 12.7998C48.4772 12.5718 48.2405 12.4577 47.934 12.4577C47.6348 12.4577 47.4007 12.5713 47.2319 12.7984C47.0632 13.0256 46.977 13.3469 46.9735 13.7623V13.9852C46.9735 14.4095 47.0586 14.7373 47.2293 14.9689C47.3998 15.2006 47.6365 15.3164 47.9395 15.3164C48.246 15.3164 48.4818 15.2031 48.6468 14.9768C48.812 14.7505 48.8945 14.4199 48.8945 13.9852V13.7836ZM49.5868 13.9852C49.5868 14.3635 49.5194 14.6952 49.3845 14.9807C49.2494 15.2664 49.0564 15.4855 48.8057 15.6383C48.5548 15.7914 48.266 15.8677 47.9396 15.8677C47.6166 15.8677 47.3287 15.7914 47.0763 15.6383C46.8234 15.4855 46.6283 15.2676 46.4906 14.9849C46.3528 14.7019 46.2831 14.3758 46.281 14.0062V13.7889C46.281 13.4123 46.3499 13.0799 46.4877 12.7917C46.6254 12.5037 46.8199 12.2832 47.0705 12.1301C47.3214 11.9773 47.6094 11.9007 47.9341 11.9007C48.2588 11.9007 48.5464 11.9765 48.7973 12.1276C49.0483 12.2788 49.2421 12.4961 49.379 12.7799C49.5156 13.0637 49.5851 13.3937 49.5868 13.7704V13.9852Z" fill="#111111"/>
<path fill-rule="evenodd" clip-rule="evenodd" d="M53.5538 15.8677H52.8298L50.9723 13.0533V15.8677H50.248V11.9008H50.9723L52.8355 14.7262V11.9008H53.5538V15.8677Z" fill="#111111"/>
<path fill-rule="evenodd" clip-rule="evenodd" d="M56.3072 12.4567V15.3121H56.8094C57.2134 15.3121 57.5234 15.1991 57.7394 14.9735C57.9554 14.7479 58.0655 14.4238 58.0697 14.0014V13.7812C58.0697 13.3514 57.9651 13.0235 57.7562 12.7967C57.5472 12.57 57.2437 12.4567 56.8461 12.4567H56.3072ZM55.5372 15.8677V11.9008H56.8461C57.2376 11.9008 57.5852 11.9789 57.8885 12.1351C58.192 12.2915 58.427 12.5128 58.5932 12.8001C58.7596 13.087 58.843 13.4158 58.843 13.7863V13.9851C58.843 14.3611 58.7593 14.6916 58.5919 14.9769C58.4245 15.2621 58.1859 15.4817 57.8762 15.6361C57.5669 15.7905 57.2124 15.8677 56.8126 15.8677H55.5372Z" fill="#111111"/>
<path fill-rule="evenodd" clip-rule="evenodd" d="M61.8682 14.0968H60.2069V15.3119H62.1488V15.8677H59.5041V11.9008H62.1294V12.4564H60.2069V13.5519H61.8682V14.0968Z" fill="#111111"/>
<path fill-rule="evenodd" clip-rule="evenodd" d="M63.6807 11.9008L64.7961 14.9414L65.9086 11.9008H66.7769V15.8677H66.1077V14.5599L66.174 12.8107L65.0322 15.8677H64.5518L63.4125 12.8136L63.4788 14.5599V15.8677H62.8099V11.9008H63.6807Z" fill="#111111"/>
<path fill-rule="evenodd" clip-rule="evenodd" d="M68.7883 14.3885H70.0488L69.4185 12.743L68.7883 14.3885ZM70.2611 14.944H68.5763L68.2237 15.8677H67.438L69.0811 11.9008H69.7591L71.405 15.8677H70.6165L70.2611 14.944Z" fill="#111111"/>
<path fill-rule="evenodd" clip-rule="evenodd" d="M75.3719 15.8677H74.6479L72.7904 13.0533V15.8677H72.0661V11.9008H72.7904L74.6536 14.7262V11.9008H75.3719V15.8677Z" fill="#111111"/>
<path fill-rule="evenodd" clip-rule="evenodd" d="M76.8031 12.4567V15.3121H77.3053C77.7093 15.3121 78.0193 15.1991 78.2353 14.9735C78.4513 14.7479 78.5614 14.4238 78.5656 14.0014V13.7812C78.5656 13.3514 78.4609 13.0235 78.252 12.7967C78.0431 12.57 77.7395 12.4567 77.342 12.4567H76.8031ZM76.0331 15.8677V11.9008H77.342C77.7334 11.9008 78.0811 11.9789 78.3843 12.1351C78.6879 12.2915 78.9229 12.5128 79.0893 12.8001C79.2555 13.087 79.3388 13.4158 79.3388 13.7863V13.9851C79.3388 14.3611 79.2551 14.6916 79.0877 14.9769C78.9203 15.2621 78.6818 15.4817 78.3721 15.6361C78.0628 15.7905 77.7083 15.8677 77.3085 15.8677H76.0331Z" fill="#111111"/>
</g>
<defs>
<clipPath id="clip0_1801_10771">
<rect width="80" height="15.8677" fill="white"/>
</clipPath>
</defs>
</svg>
