<svg width="80" height="36" viewBox="0 0 80 36" fill="none" xmlns="http://www.w3.org/2000/svg">
<g clip-path="url(#clip0_1801_10727)">
<path fill-rule="evenodd" clip-rule="evenodd" d="M0 20.9518C0 22.4313 0.0571211 23.3952 0.41037 24.8082C0.629835 25.6861 0.945129 26.4974 1.30777 27.3087C1.56557 27.8815 1.89026 28.4064 2.2048 28.9412C2.67267 29.7334 3.29311 30.3824 3.87522 31.0697C4.06612 31.299 4.32392 31.4801 4.52459 31.6902C4.66739 31.8427 4.81095 31.948 4.97292 32.0814C5.05897 32.158 5.09693 32.196 5.19276 32.2723L5.92744 32.8164C6.75795 33.4275 7.24498 33.6281 8.08451 34.0573C8.44753 34.2388 8.87707 34.4105 9.27804 34.5443C10.6144 35.0118 12.0462 35.2696 13.4971 35.3079H14.2893C15.5873 35.2696 16.8759 35.0599 18.0788 34.6492L19.4339 34.1336C20.5794 33.6375 21.954 32.7973 22.8608 31.948C23.1855 31.6424 23.5196 31.3655 23.8248 31.0412C23.9777 30.8788 24.1111 30.6879 24.2832 30.5353C24.3975 30.745 25.3903 31.6616 25.591 31.8142C26.5643 32.6063 27.7003 33.3891 28.8743 33.8664L30.1629 34.3534C30.4016 34.4297 30.6116 34.4868 30.8597 34.5631L31.9288 34.8017C32.0814 34.8209 32.2152 34.8495 32.3392 34.8592C35.3557 35.3079 38.4481 34.63 41.0539 33.0836C41.2162 32.9882 41.3309 32.9025 41.4932 32.807C41.789 32.6353 42.0562 32.4154 42.3331 32.2151C42.4763 32.1099 42.6003 32.0148 42.7243 31.8905C42.801 31.8239 42.8389 31.8048 42.9152 31.7379L43.4977 31.2035L43.5454 31.1558L43.5642 31.1366L43.7363 30.9649C43.8697 30.8119 44.0513 30.6687 44.1753 30.5064C44.4808 30.096 44.7386 29.8288 45.1298 29.3038C45.235 29.1607 45.3207 29.0269 45.4162 28.8743C45.6071 28.588 45.798 28.2918 45.9509 27.9769C46.0366 27.7958 46.1129 27.6812 46.1989 27.5094C46.4947 26.9269 47.1249 25.4952 47.1722 24.9036C47.3538 25.1133 47.6022 25.6767 47.7359 25.9247C47.9265 26.2685 48.0794 26.6312 48.2895 26.9653L50.4943 31.1174C50.5612 31.2606 50.6183 31.3275 50.6852 31.4609C50.943 31.9765 51.3056 32.7307 51.6303 33.1603C51.9452 33.58 52.2887 33.8856 52.7468 34.1625C54.0358 34.9355 55.7633 34.8017 56.9279 33.8856C57.0422 33.7995 57.1282 33.7232 57.2237 33.6278C57.4146 33.4369 57.6055 33.2366 57.7487 32.9979C58.0828 32.4538 58.4646 31.6139 58.7415 31.1558C58.8178 31.022 58.8655 30.9265 58.9324 30.7928L59.9155 28.9412C59.9918 28.7883 60.0583 28.6932 60.1256 28.5594C60.5551 27.6906 61.0512 26.8315 61.4999 25.9724L62.1109 24.8368C62.6453 23.8537 63.1417 22.8514 63.6953 21.868L64.879 19.6248C64.9553 19.4914 65.003 19.4054 65.0793 19.2622C65.1556 19.1096 65.2131 19.033 65.2894 18.8804L65.6904 18.1265C65.7667 18.0025 65.8144 17.8879 65.8813 17.7541L68.0575 13.6688C68.7351 12.4374 68.678 11.0056 67.9715 9.81242C67.8952 9.67901 67.8381 9.62151 67.752 9.4975L67.4465 9.15402C67.3987 9.1063 67.4277 9.13486 67.38 9.09653L66.9504 8.74328C66.6257 8.49525 66.2725 8.35207 65.8813 8.22806C65.3465 8.04655 64.6498 8.02739 64.0579 8.142C63.2086 8.31374 62.6261 8.70532 62.0534 9.25887C61.8792 9.44193 61.7256 9.64357 61.5953 9.86014L61.0609 10.8816C61.0034 10.9962 60.9369 11.101 60.8794 11.225C60.7648 11.4543 60.6502 11.6929 60.5262 11.9315L56.2785 20.2167C56.2214 20.3313 56.1545 20.446 56.0974 20.5606L55.7536 21.2381C55.7156 21.305 55.7058 21.3336 55.6679 21.4005C55.6393 21.4576 55.6487 21.4384 55.6296 21.4862C55.601 21.5339 55.6108 21.5339 55.5818 21.5914C55.2477 22.1833 54.9328 22.756 54.7705 23.4241L54.6848 23.7105C54.6826 23.7278 54.676 23.7442 54.6656 23.7582C54.6371 23.8247 54.6559 23.7868 54.6371 23.8153C54.551 23.4335 54.4462 23.0134 54.2647 22.6605C54.2075 22.5459 54.15 22.4313 54.0831 22.3073L47.9077 10.2803C47.8694 10.2134 47.86 10.1942 47.8216 10.1179C47.306 9.08713 46.1606 8.2089 44.9009 8.07511C44.7671 8.06572 44.5094 8.02739 44.4045 8.03716C43.0013 8.15177 41.8273 8.78161 41.1689 10.0131C40.6819 10.9199 40.6052 11.903 40.8822 12.8955C41.0637 13.5542 41.6743 14.5087 42.0084 15.1675C42.0753 15.3009 42.1324 15.3968 42.2091 15.5302L43.5932 18.1359H36.7014C35.6706 18.1359 34.7353 18.2122 34.0288 18.9187C33.7138 19.2336 33.4846 19.4817 33.2843 19.892C32.4444 21.5628 33.1889 23.7101 34.9453 24.3787C35.6421 24.6455 36.3004 24.5884 37.2264 24.5884H39.7559C39.6413 24.7988 39.4695 25.0277 39.317 25.2088C38.6868 25.9341 38.4767 26.1633 37.6176 26.7172C37.5511 26.765 37.5319 26.7744 37.465 26.8127C37.3982 26.8413 37.3598 26.8698 37.2835 26.9081C35.6608 27.7387 33.3414 27.8721 31.7187 27.0509C31.2227 26.8029 30.7548 26.5263 30.3445 26.1539C29.9337 25.7913 29.5808 25.3809 29.2561 24.9322C29.1509 24.7793 29.0652 24.6267 28.9698 24.4643C28.0822 22.9179 27.8815 20.8755 28.4542 19.1765C28.5496 18.8996 28.6357 18.6515 28.7503 18.4129L29.3516 17.3915C29.638 16.9713 30.0006 16.6087 30.3824 16.2746C30.8694 15.8357 31.4422 15.511 32.0528 15.263C33.3794 14.7282 33.6661 15.0909 34.9164 13.8312C35.0979 13.6497 35.2313 13.411 35.3651 13.1916C35.9186 12.2848 35.9855 10.853 35.5274 9.89848C35.3365 9.4975 35.0979 9.13486 34.7924 8.81994L34.6778 8.71472C34.42 8.48548 34.1625 8.26602 33.8473 8.11344C32.2915 7.33066 30.3922 7.9511 28.9127 8.58131L27.6237 9.23031C26.7838 9.73613 26.1445 10.1751 25.3903 10.8338C25.0754 11.101 24.6553 11.4734 24.417 11.7884L24.1494 12.0841C23.6436 12.6854 23.1761 13.2964 22.7654 13.9744C22.5707 14.2945 22.3892 14.6225 22.2212 14.9574C21.2953 16.7996 20.7323 18.7943 20.7323 21.1998C20.7323 21.8777 20.7801 22.5267 20.8657 23.1566C20.8755 23.2235 20.9232 23.4621 20.9232 23.5384C20.9135 23.7105 20.6463 24.0348 20.5414 24.1878L19.1859 25.7913L18.6132 26.2779C18.5369 26.3354 18.47 26.3926 18.384 26.4594C18.2885 26.5263 18.222 26.5647 18.1266 26.6406C17.1814 27.3283 15.5681 27.939 14.337 27.939C13.965 27.939 13.5542 27.9675 13.1724 27.9198C13.0198 27.901 12.9338 27.8912 12.7812 27.8721C12.3611 27.8052 11.8267 27.6526 11.4637 27.5C9.93644 26.8698 8.70533 25.7244 7.98944 24.2449C7.00635 22.1927 7.17772 19.8349 8.33291 17.8973C8.86767 16.9999 9.65008 16.2554 10.5475 15.7113L11.3968 15.2818L12.3419 14.9766C12.6666 14.8812 13.0386 14.8428 13.4017 14.7951C14.375 14.6519 15.1003 14.7282 15.912 14.1555C15.9691 14.1175 16.0266 14.0698 16.0931 14.0221C16.8665 13.3919 17.5061 12.428 17.5061 11.3205C17.5061 10.49 17.4009 9.8887 17.0097 9.23031C16.9522 9.13486 16.9142 9.05857 16.8379 8.96312C16.4272 8.41897 16.0074 8.05632 15.3678 7.7508C13.9744 7.07286 11.655 7.55989 10.3472 7.86542L9.3735 8.16117C9.14426 8.23746 8.97252 8.30435 8.76245 8.3904C8.55238 8.47646 8.36148 8.56214 8.15178 8.64782C7.38816 8.96312 6.6625 9.43061 5.98494 9.87931C5.30738 10.328 4.69595 10.8722 4.12362 11.4449C3.82749 11.7406 3.57007 11.9887 3.3119 12.3133C2.67267 13.1055 2.06162 13.9266 1.60352 14.8428C1.5464 14.9574 1.4983 15.0243 1.45095 15.1292C1.39345 15.2532 1.36489 15.3201 1.31717 15.4249L0.821116 16.6181C0.324312 17.9356 0.00901912 19.4914 0.00901912 20.9518H0ZM75.2927 8.51442L75.3025 8.44753C75.1402 8.40919 74.9395 8.32351 74.7869 8.26602C74.1281 8.01799 74.3668 8.01799 73.7272 8.25662C73.5652 8.31374 73.3363 8.38063 73.2026 8.44753V7.54073L71.7993 6.75795L71.7039 6.74855C71.3506 6.91089 70.2052 7.28293 69.976 7.40695C68.8497 8.03716 69.6039 9.86014 70.9497 9.31599L72.6964 8.66699C72.811 8.62904 73.0402 8.51442 73.1642 8.50465C73.1642 8.91539 73.1165 10.0417 73.183 10.3566C73.3457 11.1296 74.2713 11.4828 74.9207 10.9676C75.0924 10.8338 75.2356 10.6144 75.2927 10.3663C75.3405 10.1465 75.3788 8.71472 75.2927 8.49525V8.51442Z" fill="#EE2E24"/>
<path fill-rule="evenodd" clip-rule="evenodd" d="M74.2428 3.71287V3.83688L74.7963 5.39305C74.9395 5.38366 75.8083 4.86807 75.9989 4.75345C76.0947 4.69633 76.0947 4.62943 76.1326 4.72489C76.1995 4.61966 76.1139 4.67716 76.2187 4.58171L77.2401 1.67041C77.3258 1.42239 77.3829 1.34573 77.3735 1.03081C77.3735 0.467866 76.9538 0.0762866 76.4765 0H76.142C75.9323 0.0383312 75.732 0.133784 75.5599 0.305522C75.3878 0.477261 75.369 0.544153 75.2736 0.792179L74.2428 3.71287Z" fill="#F26F21"/>
<path fill-rule="evenodd" clip-rule="evenodd" d="M72.2766 4.60087L72.3337 4.68656L73.336 5.24048C73.46 5.31677 73.5652 5.35472 73.6704 5.43138L74.2334 3.83726V3.71324L73.4123 1.37466C73.2405 0.887631 73.1071 0.162344 72.4292 0.0191656C72.4006 0.00939491 72.3623 0.00939491 72.3337 0H72.0094C71.5321 0.0668917 71.1312 0.429535 71.0928 1.01164C71.074 1.31717 71.3221 1.92821 71.4367 2.22396C71.5893 2.62494 71.7035 3.01614 71.8471 3.39795C71.9233 3.58885 71.9805 3.77976 72.0474 3.97066C72.0857 4.08528 72.1049 4.16157 72.1526 4.27619C72.2003 4.4002 72.2289 4.4577 72.2574 4.5911L72.2766 4.60087ZM76.2281 4.58171C76.1232 4.67716 76.2093 4.62004 76.1424 4.72489L75.5791 6.32841L76.7054 6.74855H76.8008L79.13 5.41222C79.5404 5.18298 80.1416 4.87746 79.9699 4.06612C79.8365 3.45545 79.2161 3.12136 78.6336 3.26454C78.4235 3.32166 77.0394 4.14278 76.7245 4.31452C76.5528 4.40997 76.4096 4.50542 76.2379 4.58171H76.2281Z" fill="#EE2E24"/>
<path fill-rule="evenodd" clip-rule="evenodd" d="M71.7133 6.75794L71.8087 6.76772C71.9233 6.67226 72.7632 6.41447 72.935 6.32841C72.8779 6.2044 72.8395 6.05182 72.7922 5.91804L72.4961 5.08753C72.4577 4.96352 72.4006 4.79178 72.3435 4.67716L72.286 4.5911L70.8734 3.77976C70.7494 3.71324 70.0526 3.3025 69.9188 3.26454C69.7471 3.21682 69.413 3.21682 69.2413 3.28333C68.9166 3.39795 68.5919 3.72264 68.5442 4.08528C68.4108 5.05897 69.1455 5.25927 69.8426 5.67941L71.2552 6.48136C71.3604 6.53848 71.6562 6.69105 71.723 6.74817L71.7133 6.75794ZM75.3025 8.44753L75.2927 8.51442C75.4359 8.52381 76.0372 8.76244 76.1995 8.82933C76.3427 8.88645 76.4765 8.93456 76.6291 8.99168L77.5073 9.32576C78.0034 9.52606 78.4904 9.43098 78.8151 9.02024C79.2446 8.47609 79.0443 7.70307 78.5096 7.41672C78.3758 7.34982 78.2326 7.3021 78.08 7.24498L76.782 6.74855H76.6866L75.2833 7.54073L75.2927 8.44753L75.3025 8.44753Z" fill="#F26F21"/>
</g>
<defs>
<clipPath id="clip0_1801_10727">
<rect width="80" height="35.3079" fill="white"/>
</clipPath>
</defs>
</svg>
