<svg width="80" height="19" viewBox="0 0 80 19" fill="none" xmlns="http://www.w3.org/2000/svg">
<g clip-path="url(#clip0_1801_11035)">
<path d="M5.24452 12.1598C4.01188 12.1598 2.98803 11.2825 2.75797 10.1121L0 10.6449C0.470538 13.1106 2.64314 14.97 5.24452 14.97C6.72772 14.97 8.06476 14.3641 9.03678 13.3925L6.77992 11.6479C6.35152 11.9615 5.81908 12.1598 5.24452 12.1598ZM5.24452 7.09316C5.81908 7.09316 6.35152 7.29151 6.77992 7.61546L9.03678 5.87093C8.06476 4.89963 6.72772 4.29343 5.24452 4.29343C2.64314 4.29343 0.470538 6.15317 0 8.61847L2.75797 9.16172C2.97758 7.98123 4.00144 7.09316 5.24452 7.09316ZM43.2906 12.536C41.8909 12.536 40.867 11.5122 40.7105 10.0077V9.21391C40.867 7.73038 41.8909 6.70688 43.2906 6.70688C44.8894 6.70688 46.0172 7.90821 46.0172 9.61063C46.0068 11.3347 44.8894 12.536 43.2906 12.536ZM44.116 4.29343C42.6952 4.29343 41.515 4.90975 40.7 5.95444V4.52346H37.8167V18.1247H40.7V13.2881C41.5046 14.3537 42.6952 14.97 44.116 14.97C46.8427 14.97 48.8169 12.7553 48.8169 9.62107C48.8169 6.49765 46.8427 4.29343 44.116 4.29343ZM55.5447 12.536C54.0089 12.536 52.7241 11.199 52.7241 9.61063C52.7241 8.03344 54.0089 6.70688 55.5447 6.70688C57.0592 6.70688 58.3444 8.03344 58.3444 9.61063C58.3549 11.199 57.0696 12.536 55.5447 12.536ZM55.5447 4.29343C52.5048 4.29343 49.9557 6.71728 49.9557 9.62107C49.9557 12.5256 52.5048 14.97 55.5447 14.97C58.5637 14.97 61.0916 12.5256 61.0916 9.62107C61.0916 6.71728 58.5637 4.29343 55.5447 4.29343ZM62.4603 14.7299H65.3432V0.93999H62.4603V14.7299ZM76.2916 8.39882C74.9124 8.02303 74.4948 7.8664 74.4948 7.31279C74.4948 6.95743 74.9858 6.69647 75.6962 6.69647C76.563 6.69647 77.6286 7.03055 78.5585 7.60506L79.7181 5.55776C78.5898 4.80532 77.1481 4.29343 75.6962 4.29343C73.2935 4.29343 71.6951 5.67258 71.7055 7.60506C71.7264 9.62107 73.3457 10.196 75.4348 10.7079C76.4799 10.9794 77.2316 11.1781 77.2316 11.8149C77.2316 12.2642 76.6779 12.5882 75.9049 12.5882C74.547 12.5882 73.3979 12.0972 72.4889 11.4391L71.2562 13.4238C72.4785 14.4059 74.213 14.9595 75.8528 14.9595C78.3602 14.9595 80 13.6747 80 11.6688C80 9.44359 78.0466 8.84815 76.2916 8.39882ZM67.2344 14.7299H70.1176V4.52346H67.2344V14.7299ZM68.6865 0.0104995C67.7985 0.0104995 67.109 0.741645 67.109 1.54619C67.109 2.41316 67.7985 3.12379 68.6865 3.12379C69.5326 3.12379 70.2219 2.41316 70.2219 1.54619C70.2328 0.741645 69.543 0.0104995 68.6865 0.0104995ZM33.847 0.950776H30.9637L29.8877 3.14431H32.771L33.847 0.950776ZM29.1357 8.49322C29.5119 7.46933 30.4205 6.83211 31.507 6.83211C32.6774 6.83211 33.4186 7.47983 33.7008 8.49322H29.1357ZM31.3922 4.28331C28.4149 4.28331 26.1376 6.51855 26.1376 9.59012C26.1376 12.7239 28.5089 14.9595 31.5487 14.9595C33.0532 14.9595 34.8082 14.3328 35.7172 13.382L33.8784 11.5017C33.3247 12.0345 32.343 12.4104 31.5279 12.4104C30.3266 12.4104 29.4384 11.6583 29.1044 10.551H36.4589C36.4589 6.71728 34.5886 4.28331 31.3922 4.28331ZM21.0813 4.29343C19.7548 4.29343 18.616 4.87844 17.9997 5.80831V4.52346H15.1165V14.7299H17.9997V8.68111C17.9997 7.57375 18.9501 6.71728 20.1515 6.71728C21.301 6.71728 22.0843 7.58415 22.0843 8.84815V14.7299H24.8628V8.23178C24.8736 5.92314 23.296 4.29343 21.0813 4.29343ZM11.6482 0C10.7601 0 10.0707 0.731146 10.0707 1.53541C10.0707 2.40266 10.7601 3.11329 11.6482 3.11329C12.4942 3.11329 13.184 2.40266 13.184 1.53541C13.184 0.731146 12.4942 0 11.6482 0ZM10.1855 14.7299H13.0688V4.52346H10.1855V14.7299Z" fill="#212E5C"/>
</g>
<defs>
<clipPath id="clip0_1801_11035">
<rect width="80" height="18.1247" fill="white"/>
</clipPath>
</defs>
</svg>
