<svg width="80" height="44" viewBox="0 0 80 44" fill="none" xmlns="http://www.w3.org/2000/svg">
<g clip-path="url(#clip0_1801_11032)">
<path d="M36.3094 29.4442L36.4093 29.4553C37.131 29.5552 37.8416 29.6774 38.3746 29.9216C38.8409 30.1104 39.2184 30.4657 39.4405 30.9209C39.8513 31.7425 39.8735 32.7085 39.5071 33.5412C39.2295 34.1408 38.63 34.6404 38.0748 34.9069C37.5085 35.1734 36.909 35.3399 36.2872 35.3954C35.1214 35.5065 33.9556 35.2955 32.9008 34.7959C32.3012 34.5072 31.5573 33.9965 31.1909 33.3414C30.9133 32.8528 30.9355 32.2533 31.2575 31.7869C31.7905 31.0652 32.923 30.8987 33.7779 30.932C34.6106 30.9875 35.4323 31.1319 36.2206 31.3761C36.3871 31.4427 37.02 31.687 37.131 31.798C37.2199 31.8758 37.2532 31.9868 37.2199 32.0978C37.0755 32.5308 36.0207 32.764 35.721 32.8084C34.9104 32.9306 34.4885 32.6197 33.5559 32.2644C33.3116 32.1644 33.0451 32.0867 32.7897 32.0534C32.3678 32.009 31.8571 32.1311 31.7794 32.5864C31.735 32.8195 32.0125 33.0416 32.2235 33.1415C32.6565 33.3414 33.1339 33.4413 33.6114 33.4413C35.0548 33.4635 36.6758 33.2303 37.8527 32.3865C38.0193 32.2755 38.1747 32.0978 38.1747 31.8869C38.1747 31.4538 37.4308 31.1985 37.4308 31.1985C36.6425 30.8654 35.1658 30.7099 34.4108 30.6433C33.6225 30.5767 32.3678 30.4768 32.068 30.4213C31.7572 30.3879 31.4463 30.3102 31.1576 30.1992C30.8689 30.066 30.6468 29.8106 30.5469 29.5108C30.4137 28.9667 30.5802 28.3006 30.88 27.8675C31.6683 26.735 33.5114 26.302 34.8882 26.1355C36.2206 25.9689 38.3857 25.9689 39.6959 26.6684C39.8957 26.7794 40.0067 26.8794 39.9623 27.0903C39.8735 27.4678 39.5848 27.7787 39.1962 27.8675C38.8076 27.9897 38.0082 28.0341 37.6529 28.0674C36.0763 28.1562 34.1665 28.1118 32.6565 28.5226C32.5344 28.5559 32.3345 28.6115 32.2679 28.6892C32.0347 28.9445 32.7009 29.0223 32.8453 29.0445C32.8786 29.0556 32.9119 29.0556 32.9452 29.0667L36.3094 29.4442ZM26.894 22.3937C26.894 22.3937 27.1494 22.0051 27.3603 21.7164C27.8489 21.0836 28.3929 20.5062 28.9925 19.9843C29.159 19.8511 29.3478 19.6846 29.3478 19.6846C29.3478 19.6846 29.048 19.7179 28.8815 19.7512C28.4817 19.8289 27.8822 20.2286 27.5824 20.484C27.0939 20.9059 26.5498 21.5832 26.7941 22.1939C26.8385 22.2827 26.894 22.3937 26.894 22.3937ZM29.6254 23.1265C30.3915 23.071 31.1354 22.8489 31.8016 22.4714C32.4678 22.105 33.4337 21.3833 33.3338 20.5284C33.3116 20.273 33.145 20.0399 32.9008 19.9399C32.601 19.8178 32.4566 19.8289 32.068 19.9399C31.8349 19.9955 31.6128 20.0954 31.413 20.2175C30.658 20.6616 29.581 21.6054 28.9925 22.3604C28.8593 22.5381 28.7149 22.7379 28.615 22.8712C28.5484 22.96 28.4929 23.0377 28.504 23.0488C28.5262 23.1487 29.3256 23.1376 29.6254 23.1265ZM27.6601 24.5699C27.5602 24.7143 27.4825 24.8586 27.4047 25.0029C27.3492 25.0918 27.2937 25.1584 27.216 25.225C27.0161 25.3694 26.8385 25.3805 26.6497 25.2139C26.3722 24.9585 26.2167 24.6032 26.2056 24.2368C26.2167 24.0814 26.2167 23.9259 26.1945 23.7705C26.139 23.5484 25.9169 23.3153 25.7948 23.0932C25.6394 22.7823 25.5505 22.4492 25.5172 22.105C25.4728 21.2168 25.9391 20.3952 26.5498 19.7401C27.1938 19.0628 27.9821 18.5298 28.8481 18.1634C29.6809 17.8192 30.8911 17.575 31.7905 17.897C32.1458 18.0191 32.4566 18.2301 32.7009 18.5076C32.7342 18.5632 32.7786 18.6076 32.8231 18.652C32.9008 18.6742 32.9785 18.6964 33.0562 18.7075C33.3782 18.7852 33.678 18.9185 33.9334 19.1183C34.2553 19.3626 34.4663 19.7179 34.544 20.1065C34.7217 20.9281 34.2442 21.8386 33.7002 22.3826C32.7786 23.3264 31.8571 23.9926 30.6802 24.4589C30.1583 24.6587 29.3478 24.8475 28.7593 24.8031C28.5817 24.792 28.3818 24.7365 28.2042 24.7254C28.0487 24.7032 27.8933 24.6588 27.7489 24.6032C27.7267 24.5921 27.6712 24.5699 27.6601 24.5699ZM28.7149 26.4019C28.7593 26.413 28.8148 26.4241 28.8593 26.4463C29.2701 26.6018 29.4477 26.9904 29.5476 27.4123C29.7808 28.3894 29.8807 30.5656 29.9251 31.4094C29.9585 32.0423 29.9696 32.6752 29.9918 33.3081C30.014 33.841 30.0584 34.5516 29.9474 35.0512C29.9029 35.2511 29.7808 35.4288 29.6143 35.5509C29.4144 35.673 28.9703 35.6841 28.726 35.6397C28.1154 35.5176 27.9266 35.129 27.8378 34.5183C27.6268 33.086 27.7267 30.2658 27.8489 29.0778C27.8933 28.6892 28.0376 27.4234 28.2375 26.9016C28.3152 26.7128 28.4706 26.3464 28.7149 26.4019ZM10.2283 28.7891C10.2283 28.7891 9.32895 28.8557 8.69607 28.9223C7.90775 29.0112 6.40884 29.2665 5.5539 29.5774C5.29853 29.6662 4.77669 29.8883 4.73228 30.1548C4.68786 30.4213 4.85441 30.6433 5.04316 30.8654C5.15419 30.9986 5.77596 31.5871 5.94251 31.7314C6.67531 32.3421 8.15202 33.2859 9.24012 33.73C9.61763 33.8854 10.2283 34.1075 10.2283 34.1075C10.2283 34.1075 10.1839 32.3421 10.195 30.61C10.2061 29.6996 10.2283 28.7891 10.2283 28.7891ZM26.8052 29.4997C26.8607 29.9771 26.7386 30.8654 26.7164 30.9875C26.6497 31.3206 26.5609 31.6426 26.4388 31.9646C26.2833 32.3088 26.1168 32.6419 25.9391 32.975C25.5505 33.6189 25.0731 34.2074 24.5179 34.7182C22.9635 36.0616 20.5542 36.8277 18.4779 37.0831C16.979 37.2608 15.4578 37.2163 13.97 36.9499C13.4593 36.861 12.6932 36.6834 12.6932 36.6834C12.6932 36.6834 12.6932 36.9832 12.671 37.2052C12.6488 37.3607 12.6044 37.505 12.5488 37.6383C12.4489 37.8492 12.238 37.9936 12.0048 38.0269C11.6939 38.0824 11.3608 38.1046 11.0721 37.9825C10.5947 37.7826 10.4282 37.3385 10.3504 36.8277C10.2838 36.4169 10.2172 35.7063 10.2172 35.7063C10.2172 35.7063 9.86189 35.5398 9.57321 35.3954C8.69607 34.9624 7.85224 34.4406 7.05282 33.8521C6.84186 33.6967 5.95361 32.9417 5.75376 32.764C5.19861 32.2422 4.69897 31.7092 4.32146 31.043C4.02168 30.5212 3.94396 30.0549 4.16602 29.4997C4.4769 28.7225 5.58721 28.1451 6.34222 27.812C6.89738 27.5678 8.64056 27.0015 9.36226 26.8905C9.70645 26.8461 10.2283 26.7461 10.2616 26.7239C10.2727 26.7128 10.2838 26.7017 10.2949 26.6906C10.306 26.6684 10.3393 25.9023 10.3393 25.6247C10.3282 25.3471 10.5392 23.5373 10.6058 23.1487C10.6391 22.9378 10.7946 22.1384 10.9611 21.9385C11.061 21.7942 11.2498 21.8053 11.4052 21.9052C12.2268 22.4159 12.4822 24.2035 12.5488 25.114C12.5821 25.6691 12.6044 26.5019 12.6044 26.5019C12.6044 26.5019 13.5592 26.4797 14.1366 26.4908C14.7361 26.513 15.3246 26.5796 15.9131 26.6906C16.6681 26.8128 18.1337 27.1347 18.9775 27.5567C19.6659 27.912 20.321 28.5004 20.5319 29.1222C20.7318 29.6996 20.6985 30.0993 20.3987 30.61C20.0656 31.1985 19.4327 31.6315 18.7888 31.6648C18.6 31.6759 17.8783 31.576 17.6563 31.4094C17.5785 31.3428 17.5674 31.2207 17.634 31.1319C17.6563 31.0985 17.9893 30.9209 18.1892 30.821C18.278 30.7655 18.3668 30.7099 18.4446 30.6433C18.6111 30.499 18.7555 30.3324 18.7444 30.1548C18.7221 29.9105 18.4668 29.7662 18.2225 29.6662C17.0678 29.211 14.7806 28.8335 13.6702 28.7669C13.2372 28.7447 12.6155 28.7225 12.6155 28.7225L12.7487 34.8514C12.7487 34.8514 13.2594 34.9513 13.6591 35.0179C13.8923 35.0512 14.8694 35.1401 15.1248 35.1512C17.1011 35.2067 19.3217 35.029 21.1315 34.163C21.9309 33.7855 22.6637 33.3192 23.2189 32.6863C23.9739 31.8091 24.3403 30.6544 24.2293 29.5108C24.1182 28.2006 23.1967 26.6462 22.4639 25.7024C20.5208 23.2042 17.1899 21.1502 14.2698 19.951C11.2831 18.7186 8.32967 18.0191 5.15419 17.897C4.33256 17.8637 2.55607 17.9081 1.64562 18.1523C1.51239 18.1856 1.39025 18.2301 1.26812 18.2634C1.16819 18.2856 1.06826 18.33 0.979438 18.3855C0.957232 18.4077 0.935024 18.4299 0.935024 18.4299C0.935024 18.4299 0.99054 18.4632 1.04606 18.4854C1.14598 18.5298 1.54569 18.552 1.75665 18.5965C1.9343 18.6187 2.10085 18.7186 2.21188 18.8629C2.2896 18.9629 2.2896 19.1072 2.20078 19.2071C1.98982 19.4514 1.2237 19.407 0.890613 19.3515C0.557521 19.296 0.102294 19.1849 0.0245728 18.8851C-0.0642518 18.5298 0.102294 18.1745 0.291047 17.8415C0.657448 17.1864 1.2015 16.8422 1.97871 16.6312C3.14454 16.3203 4.33257 16.1316 5.5317 16.0761C7.89665 15.9872 10.1395 16.398 12.4378 17.0975C13.9034 17.5528 15.3357 18.1079 16.7236 18.763C17.8006 19.296 18.8443 19.8844 19.8547 20.5173C20.11 20.6838 21.5867 21.7719 21.8088 21.9607C22.2862 22.3493 22.908 22.9156 23.3632 23.3597C24.2404 24.2257 25.3285 25.5581 25.8614 26.6129C25.9836 26.8683 26.0835 27.1125 26.25 27.4123C26.3833 27.701 26.4943 27.9897 26.5831 28.2895C26.6275 28.456 26.683 28.7114 26.6942 28.7225C26.7164 28.778 26.8274 29.2998 26.8052 29.4997ZM56.5836 28.134C55.4733 28.3894 52.5532 28.5337 52.5532 28.5337L52.1868 29.6885C52.1868 29.6885 53.6413 29.5663 54.7072 29.6773C54.7072 29.6773 55.0514 29.6329 55.0958 30.066C55.1069 30.3435 55.0958 30.6211 55.0625 30.8987C55.0625 30.8987 55.0403 31.1541 54.6739 31.2207C54.2742 31.2873 51.5317 31.3872 51.5317 31.3872L51.0876 32.8861C51.0876 32.8861 50.9211 33.2303 51.2986 33.1304C51.6428 33.0416 54.5185 32.4975 54.8849 32.5753C55.2846 32.6752 55.7287 33.2081 55.6066 33.6967C55.4511 34.2962 52.5865 36.1282 50.8433 36.0061C50.8433 36.0061 49.9218 36.0616 49.1557 34.8292C48.4118 33.6523 49.411 31.4205 49.411 31.4205C49.411 31.4205 48.9558 30.3768 49.2889 30.0215C49.2889 30.0215 49.4888 29.8439 50.0661 29.7995L50.7656 28.3561C50.7656 28.3561 49.9662 28.4116 49.4888 27.8231C49.0446 27.268 49.0113 27.0126 49.3444 26.8572C49.7108 26.6795 53.0417 26.0688 55.3401 26.1466C55.3401 26.1466 56.1395 26.0688 56.8279 27.4567C56.8279 27.4456 57.161 28.0008 56.5836 28.134ZM47.9565 33.73C47.6568 34.4184 46.8906 35.1623 45.9247 34.7071C44.9587 34.2518 43.4598 31.143 43.4598 31.143C43.4598 31.143 42.8824 29.9882 42.7714 30.0104C42.7714 30.0104 42.6493 29.7884 42.5715 31.0541C42.4938 32.3199 42.5826 34.7737 42.083 35.1623C41.6056 35.5509 41.0282 35.3954 40.7284 34.9402C40.4509 34.4961 40.3398 33.4302 40.4953 31.576C40.6729 29.7107 41.1059 27.7232 41.6611 27.1014C42.2163 26.4797 42.6604 26.9349 42.8269 27.1014C42.8269 27.1014 43.5708 27.7676 44.7811 29.744L44.992 30.1104C44.992 30.1104 46.1023 31.9757 46.2134 31.9646C46.2134 31.9646 46.3022 32.0534 46.3799 31.9868C46.4909 31.9535 46.4465 31.3539 46.4465 31.3539C46.4465 31.3539 46.2134 29.3332 45.203 25.9023C45.1141 25.6358 45.0919 25.3471 45.1475 25.0696C45.2474 24.6699 45.6582 24.8586 45.6582 24.8586C45.6582 24.8586 47.2237 25.6469 47.9898 28.2006C48.756 30.7543 48.2563 33.0305 47.9565 33.73ZM64.8221 32.1978C64.1115 33.4413 62.1018 36.0394 59.4149 35.4288C58.5267 37.5717 57.7827 39.7368 57.3608 42.99C57.3608 42.99 57.272 43.6228 56.7391 43.4008C56.2172 43.2231 55.3623 42.3571 55.1957 41.158C55.007 39.5924 55.7065 36.9388 57.1388 33.8965C56.7169 33.2192 56.4393 32.2533 56.6836 30.8765C56.6836 30.8765 57.0388 28.3228 59.6148 26.0133C59.6148 26.0133 59.9256 25.7469 60.1033 25.8246C60.3031 25.9134 60.2143 26.735 60.0478 27.1458C59.8812 27.5567 58.7487 29.533 58.7487 29.533C58.7487 29.533 58.0381 30.8654 58.238 31.9202C59.5815 29.855 62.6459 25.6691 64.5445 26.9904C65.1774 27.4456 65.4772 28.4338 65.4772 29.5108C65.4772 30.4546 65.2551 31.4538 64.8221 32.1978ZM64.2781 28.9223C64.2781 28.9223 64.167 28.1007 63.3676 29.0112C62.6792 29.7773 61.4246 31.2096 60.4253 33.1637C61.4801 33.0416 62.5016 32.4753 62.8013 32.1866C63.301 31.7203 64.4668 30.5212 64.2781 28.9223ZM79.5781 28.7336H74.6705C74.5706 27.0681 74.3707 25.4138 74.0599 23.7705C74.0265 23.5929 73.8822 23.4707 73.7046 23.4707H72.572C72.3833 23.4707 72.2389 23.6262 72.2389 23.8038C72.2389 23.826 72.239 23.8482 72.2501 23.8704C72.572 25.4804 72.783 27.1014 72.8718 28.7336H68.153C67.931 28.7336 67.7533 28.9112 67.7533 29.1333V30.1548C67.7533 30.3768 67.931 30.5545 68.153 30.5545H72.9384C72.9384 30.8099 72.9384 31.0319 72.9384 31.2429C72.9496 32.5975 72.8718 33.952 72.7275 35.2955C72.7053 35.4954 72.8496 35.6841 73.0606 35.7063C73.0717 35.7063 73.0828 35.7063 73.0939 35.7063H74.1487C74.3485 35.7063 74.5262 35.5509 74.5484 35.351C74.6927 33.9853 74.7593 32.6197 74.7593 31.254C74.7593 31.043 74.7593 30.821 74.7593 30.5656H79.6003C79.8224 30.5656 80 30.3879 80 30.1659V29.1444C79.9778 28.9112 79.8001 28.7336 79.5781 28.7336Z" fill="#101C50"/>
<path d="M13.97 15.0657C13.9034 15.1656 13.8812 15.2988 13.9256 15.421C13.97 15.5431 14.0589 15.6319 14.1699 15.6652L15.047 15.965C15.1025 15.9761 15.147 15.9872 15.2025 15.9872C15.369 15.9872 15.5245 15.8984 15.6133 15.7652C21.5756 6.99373 31.4907 1.74196 42.0941 1.74196C54.9626 1.74196 66.5764 9.44751 71.5839 21.2945C71.6616 21.4611 71.8281 21.5721 72.0058 21.5721H73.0606C73.2604 21.5721 73.427 21.4055 73.427 21.2057C73.427 21.1613 73.4159 21.1169 73.4048 21.0724C66.3765 3.78493 46.6464 -4.53129 29.3589 2.49697C23.0968 5.03958 17.734 9.42531 13.97 15.0657Z" fill="url(#paint0_linear_1801_11032)"/>
</g>
<defs>
<linearGradient id="paint0_linear_1801_11032" x1="74.4135" y1="14.0231" x2="15.1563" y2="6.01127" gradientUnits="userSpaceOnUse">
<stop stop-color="#101C50"/>
<stop offset="0.24" stop-color="#0D267A"/>
<stop offset="0.5" stop-color="#085AA4"/>
<stop offset="0.65" stop-color="#058BBF"/>
<stop offset="1" stop-color="#B1FFFF"/>
</linearGradient>
<clipPath id="clip0_1801_11032">
<rect width="80" height="43.448" fill="white"/>
</clipPath>
</defs>
</svg>
