<svg width="80" height="64" viewBox="0 0 80 64" fill="none" xmlns="http://www.w3.org/2000/svg">
<g clip-path="url(#clip0_1801_11023)">
<path d="M60.2175 26.1646C60.2519 26.629 60.1659 27.0763 59.9422 27.4891C59.581 28.1428 59.2197 28.8137 58.8413 29.4674C58.4972 30.0523 58.2908 30.7059 58.2048 31.3768C58.1532 31.5661 58.1876 31.7725 58.2564 31.9617C58.7553 31.2392 59.2369 30.5339 59.7702 29.863C60.3723 29.0717 61.0776 28.3492 61.8345 27.6956C62.2473 27.3343 62.729 27.0591 63.245 26.9042C63.9159 26.6806 64.6556 26.9559 64.9825 27.5751C65.3265 28.1428 65.4297 28.7793 65.4469 29.4158C65.5329 31.7725 63.8643 34.37 61.6796 35.2989C61.0432 35.5742 60.3379 35.6602 59.667 35.557C59.4434 35.5226 59.3745 35.5742 59.3057 35.7634C58.3596 38.0513 57.7059 40.4768 57.3791 42.9367C57.2931 43.556 56.9834 43.7108 56.4674 43.3496C55.6761 42.7991 55.1944 41.9046 55.1772 40.9413C55.1256 39.6339 55.4696 38.3781 55.8653 37.1396C56.1921 36.1419 56.5706 35.1785 57.0178 34.2324C57.1039 34.112 57.1211 33.9572 57.0523 33.8368C56.433 32.667 56.4674 31.4628 56.8458 30.2587C57.3619 28.6589 58.308 27.2311 59.581 26.1129C59.6498 26.0613 59.7186 26.0097 59.8046 25.9581C60.0454 25.8549 60.2003 25.8893 60.2175 26.1646ZM6.42613 16.1012C10.4342 16.2045 14.1327 17.4602 17.642 19.2837C19.9987 20.4878 22.1318 22.0876 23.938 24.0315C24.8841 25.0464 25.6582 26.199 26.2431 27.4719C27.1892 29.605 26.9312 31.6177 25.6238 33.5271C24.5573 35.0753 23.0263 35.9526 21.306 36.5203C18.5709 37.432 15.8013 37.4836 12.9974 36.8299C12.7393 36.7611 12.6877 36.8299 12.6705 37.0708C12.6189 37.8449 12.4125 38.0685 11.7932 38.1373C11.0363 38.2061 10.5891 37.9309 10.417 37.2428C10.331 36.8816 10.2622 36.5031 10.245 36.1247C10.245 35.9182 10.1074 35.729 9.91818 35.6602C8.09474 34.8173 6.46053 33.6475 5.08436 32.1853C4.80912 31.8929 4.55109 31.5489 4.34466 31.2048C3.79419 30.2759 3.96621 29.433 4.80912 28.7621C5.35959 28.332 5.97887 27.988 6.63255 27.7644C7.69909 27.3343 8.80003 27.0419 9.93538 26.8698C10.2106 26.8354 10.3138 26.7322 10.3138 26.457C10.3138 25.184 10.4514 23.9283 10.7095 22.6897C10.7439 22.5349 10.7955 22.3629 10.8471 22.208C10.9675 21.8812 11.1739 21.8296 11.4664 22.036C11.7416 22.2596 11.948 22.5521 12.0513 22.8961C12.4641 23.9283 12.5157 25.012 12.5673 26.0957C12.5845 26.5602 12.5845 26.5602 13.0318 26.543C14.8724 26.4914 16.7131 26.7838 18.4505 27.4031C19.1386 27.6267 19.7406 28.0568 20.1879 28.6245C20.7728 29.3986 20.7728 30.2415 20.1707 30.964C19.431 31.8413 18.6397 31.8585 17.7796 31.5489C17.6936 31.5144 17.5904 31.4628 17.5904 31.3424C17.5732 31.222 17.6764 31.1704 17.7624 31.1188C18.0204 30.9984 18.2613 30.8436 18.4849 30.6543C18.8461 30.3103 18.8117 29.9835 18.3473 29.777C17.728 29.519 17.0743 29.3298 16.4034 29.2093C15.2509 28.9685 14.0811 28.8137 12.9114 28.7621C12.6705 28.7621 12.5845 28.7965 12.6017 29.0545C12.6533 30.9124 12.6877 32.7702 12.7221 34.6109C12.7221 34.7485 12.7049 34.8689 12.9286 34.9033C15.6981 35.3506 18.4161 35.3161 21.0308 34.2152C22.0801 33.7679 23.0091 33.1487 23.6111 32.1509C24.4368 30.7576 24.4024 29.3298 23.766 27.8848C22.8714 25.8893 21.4093 24.3411 19.689 23.0509C16.283 20.4878 12.4297 18.9396 8.24956 18.2171C6.32291 17.8559 4.36186 17.7871 2.41801 18.0107C1.90195 18.0623 1.38588 18.1999 0.921417 18.4063C1.12784 18.4924 1.33427 18.5268 1.5579 18.544C1.72992 18.544 1.90194 18.5956 2.05676 18.6988C2.19438 18.7676 2.26319 18.9052 2.26319 19.06C2.22879 19.1976 2.12557 19.2837 1.98796 19.3009C1.42028 19.4385 0.818205 19.3869 0.302139 19.146C-0.0247033 18.9912 -0.0419055 18.6988 0.0441055 18.4063C0.284937 17.5462 0.955824 16.8925 1.81593 16.6689C3.29533 16.2733 4.86072 16.0668 6.42613 16.1012ZM55.074 26.2162C55.6245 26.199 56.1405 26.457 56.433 26.9042C56.5706 27.0935 56.7082 27.2999 56.8114 27.5235C57.035 27.9536 56.9146 28.1772 56.4674 28.2632C55.6761 28.4008 54.8676 28.4869 54.0591 28.5385C53.6462 28.5729 53.2162 28.5901 52.8033 28.6073C52.6485 28.6073 52.5625 28.6589 52.5281 28.8137C52.4593 29.0545 52.3905 29.2782 52.3044 29.5018C52.2356 29.7082 52.27 29.7598 52.4937 29.7426C53.199 29.691 53.9214 29.691 54.6267 29.7426C55.0052 29.777 55.1256 29.8802 55.1256 30.2587C55.1084 31.2564 55.1084 31.2908 54.1967 31.3424C53.4226 31.3768 52.6485 31.4284 51.8744 31.4456C51.6852 31.4112 51.5131 31.5489 51.4787 31.7381C51.4787 31.7553 51.4787 31.7553 51.4787 31.7725C51.3927 32.1681 51.2551 32.5638 51.1347 32.9594C51.0487 33.2347 51.1347 33.2863 51.3927 33.2175C52.4421 32.9938 53.5086 32.8046 54.5751 32.6842C54.8848 32.6326 55.2116 32.753 55.4008 32.9938C55.7621 33.4067 55.7621 33.8196 55.3664 34.1808C54.5751 34.8861 53.629 35.4366 52.6313 35.7806C52.27 35.901 51.9088 36.0042 51.5475 36.073C50.1198 36.4171 48.7608 35.0065 48.95 33.5443C49.0188 32.9766 49.1392 32.409 49.3457 31.8585C49.4489 31.6349 49.4661 31.394 49.3629 31.1532C49.2941 30.9984 49.2596 30.8436 49.2596 30.6715C49.208 30.1555 49.3285 29.9834 49.8617 29.9146C50.0509 29.9146 50.2058 29.777 50.2746 29.605C50.4294 29.2438 50.6186 28.8825 50.7906 28.5213C50.7906 28.4869 50.8078 28.4697 50.8078 28.4352C50.2058 28.3836 49.7069 28.16 49.3801 27.6095C49.1048 27.1451 49.1564 26.9559 49.6897 26.8354C50.7906 26.5774 51.9088 26.4054 53.0441 26.3022C53.6462 26.2506 54.3515 26.2334 55.074 26.2162ZM74.0996 23.9799C74.3749 25.4593 74.5641 26.9731 74.6501 28.4697C74.6673 28.7449 74.7361 28.8137 75.0114 28.8137C76.4735 28.7965 77.9185 28.8137 79.3807 28.7965C79.6216 28.7793 79.8452 28.8653 80 29.0545V30.3963C79.8624 30.5855 79.6216 30.6715 79.3979 30.6543C77.9529 30.6543 76.508 30.6543 75.063 30.6371C74.8049 30.6371 74.7533 30.7059 74.7533 30.9468C74.7705 32.3574 74.7189 33.7679 74.5813 35.1785C74.5297 35.6946 74.4437 35.7806 73.9276 35.7806C73.704 35.7806 73.4632 35.7806 73.2223 35.7806C72.8439 35.7806 72.7063 35.6258 72.7407 35.2473C72.8955 33.8196 72.9471 32.3918 72.9471 30.964C72.9471 30.6887 72.8611 30.6371 72.6203 30.6371C71.2097 30.6543 69.7991 30.6371 68.3885 30.6371C67.8724 30.6371 67.7692 30.5339 67.7692 30.0179C67.7692 29.7942 67.7692 29.5706 67.7692 29.347C67.7692 28.9341 67.8896 28.8137 68.3025 28.8137C69.6959 28.8137 71.1065 28.8137 72.4998 28.8137C72.8095 28.8137 72.8955 28.7449 72.8611 28.4352C72.7579 27.0075 72.5686 25.5797 72.2934 24.1691C72.2074 23.6874 72.2934 23.5498 72.7751 23.5498C73.0331 23.5498 73.2911 23.567 73.532 23.5498C73.79 23.4982 74.0308 23.6702 74.0824 23.9283C74.0996 23.9455 74.0996 23.9627 74.0996 23.9799ZM28.9094 26.5602C29.2879 26.7494 29.4427 27.0763 29.5287 27.4547C29.7523 28.3836 29.7867 29.347 29.8555 30.2931C29.9072 30.9984 29.9244 31.6865 29.9588 32.3918C29.976 33.1831 30.0448 33.9572 29.9932 34.7657C29.9588 35.3678 29.7351 35.6774 29.3223 35.729C28.5998 35.8322 28.1181 35.5742 27.9289 35.0065C27.8085 34.5937 27.7569 34.1808 27.7569 33.7507C27.6709 31.7209 27.6881 29.691 28.0665 27.6783C28.1181 27.3515 28.2213 27.0247 28.359 26.7322C28.445 26.543 28.6514 26.4398 28.8578 26.5258C28.8578 26.5258 28.8922 26.543 28.9094 26.5602ZM36.4268 26.1129C37.4589 26.1129 38.4739 26.199 39.4372 26.5946C39.6608 26.6978 40.0049 26.7322 40.0049 27.0763C39.9877 27.4031 39.7984 27.6955 39.4888 27.8332C39.0587 28.0568 38.5599 28.0568 38.0954 28.1084C36.8396 28.1944 35.5839 28.1772 34.3281 28.3148C33.726 28.3664 33.1412 28.4697 32.5735 28.6417C32.4531 28.6761 32.2983 28.7105 32.2983 28.8309C32.2983 29.0029 32.4703 29.0201 32.5907 29.0373C33.4336 29.2093 34.2765 29.261 35.1366 29.3642C36.0655 29.4674 36.9945 29.6222 37.9234 29.8286C40.1253 30.3619 40.2113 33.2003 39.0759 34.3012C38.4567 34.8861 37.6826 35.2817 36.8568 35.4022C35.171 35.7462 33.4164 35.3506 32.0402 34.3184C31.6274 34.0432 31.3177 33.6475 31.1285 33.2003C30.8705 32.495 31.1457 31.7897 31.851 31.394C32.3671 31.1188 32.9347 30.9812 33.5196 31.0156C34.6894 31.0156 35.8419 31.2564 36.9085 31.7209C37.0805 31.8069 37.2869 31.8757 37.2697 32.0993C37.2697 32.323 37.0977 32.4262 36.9257 32.5122C36.1344 32.9078 35.3086 33.0627 34.4657 32.7014C33.9841 32.4606 33.4852 32.2713 32.9691 32.1509C32.7111 32.0993 32.4531 32.1165 32.2122 32.2197C32.0058 32.2885 31.851 32.4778 31.8338 32.6842C31.8338 32.8734 31.9542 33.0627 32.1434 33.1315C32.5047 33.3379 32.9003 33.4583 33.3132 33.4927C34.741 33.5787 36.1344 33.4239 37.4245 32.7702C37.5277 32.7186 37.6309 32.6498 37.7342 32.581C37.975 32.4262 38.2502 32.2714 38.233 31.9273C38.1986 31.5833 37.9062 31.4628 37.6481 31.3424C36.8396 30.9812 35.9795 30.878 35.1194 30.792C34.0185 30.6543 32.9175 30.6371 31.8338 30.4651C30.7157 30.2759 30.32 29.605 30.664 28.5213C30.8533 27.9536 31.2489 27.4891 31.765 27.1967C32.6251 26.6462 33.6056 26.4398 34.5862 26.2678C35.1882 26.1646 35.8075 26.1129 36.4268 26.1129ZM45.7676 24.9776C46.0772 25.1668 46.3525 25.4077 46.6105 25.6829C47.4878 26.6634 47.9695 27.816 48.2103 29.1061C48.5027 30.6543 48.5027 32.1853 48.0039 33.7163C47.9179 33.9572 47.7975 34.1808 47.6254 34.37C47.0234 35.0925 46.146 35.1441 45.4924 34.456C44.8387 33.7679 44.3742 32.9422 43.927 32.1165C43.6001 31.5317 43.2905 30.9296 42.9636 30.3275C42.912 30.2415 42.8776 30.1039 42.7572 30.1383C42.6368 30.1555 42.6712 30.2931 42.654 30.3963C42.568 31.1188 42.5336 31.8585 42.5164 32.5982C42.5336 33.3207 42.4648 34.0432 42.3272 34.7485C42.2239 35.2301 41.9659 35.4538 41.5531 35.4882C41.1402 35.5054 40.7617 35.2473 40.6413 34.8517C40.4005 34.2324 40.4521 33.5787 40.4349 32.9422C40.4521 31.3768 40.6757 29.8286 41.123 28.3148C41.209 27.9708 41.3638 27.6439 41.5531 27.3515C41.9315 26.7838 42.3616 26.7494 42.8432 27.2311C43.6517 28.0568 44.2538 29.0201 44.8731 29.9834C45.2687 30.6199 45.6644 31.2392 46.06 31.8757C46.1288 31.9789 46.1977 32.1337 46.3525 32.0993C46.5073 32.0649 46.4729 31.8757 46.4729 31.7553C46.4385 30.7576 46.1976 29.777 45.974 28.8137C45.7504 27.8676 45.4924 26.9559 45.2515 26.0097C45.1655 25.7861 45.1483 25.5281 45.1827 25.2872C45.2343 24.8572 45.4408 24.754 45.7676 24.9776ZM9.98699 28.8997C9.26449 28.9513 8.5248 29.0029 7.8023 29.1405C6.90779 29.2954 6.01328 29.433 5.17037 29.8286C4.58549 30.1039 4.53388 30.3963 4.94674 30.8952C5.03275 30.9984 5.11876 31.0844 5.22197 31.1876C6.06488 32.0649 7.06261 32.7014 8.11194 33.3035C8.76563 33.6647 9.45372 33.9744 10.159 34.198C10.1762 34.1808 10.1762 34.1636 10.1762 34.1464C10.1762 32.4434 10.1762 30.7576 10.1762 29.0545C10.2106 28.8825 10.1246 28.8825 9.98699 28.8997ZM63.4171 29.0545L61.9205 30.878C61.37 31.6349 60.8711 32.409 60.4411 33.2347C60.9228 33.1831 61.3872 33.0627 61.8173 32.8562C63.2623 32.1681 64.1568 31.0672 64.3116 29.433C64.346 29.1749 64.3976 28.8137 64.088 28.6933C63.7783 28.5729 63.6063 28.8825 63.4171 29.0545ZM30.9909 17.8559C31.6618 17.8387 32.2983 18.1139 32.7283 18.63C32.8143 18.7332 32.9347 18.7848 33.0724 18.802C34.2937 19.0772 34.8786 20.1094 34.4657 21.3135C34.3625 21.6576 34.1733 21.9672 33.9497 22.2424C32.8315 23.5154 31.507 24.4615 29.8383 24.84C29.1847 24.9948 28.5138 24.9604 27.8601 24.754C27.6881 24.7024 27.6021 24.7196 27.5332 24.8916L27.516 24.926C27.3784 25.184 27.2408 25.4765 26.8968 25.4421C26.5527 25.4077 26.4323 25.098 26.3119 24.8228C26.2431 24.7024 26.2259 24.5647 26.2259 24.4443C26.2775 23.9627 26.0711 23.6014 25.8302 23.223C25.6238 22.8789 25.5378 22.5005 25.5378 22.1048C25.5378 21.5716 25.6926 21.0555 26.0023 20.6254C27.1892 18.8708 28.8406 17.8903 30.9909 17.8559ZM32.3155 19.9889C31.9714 20.0578 31.6618 20.1782 31.3693 20.3674C30.6468 20.8319 29.9932 21.3823 29.4083 22.0016C29.1159 22.3285 28.8578 22.6553 28.5998 23.0165C28.4966 23.1542 28.5138 23.2058 28.6858 23.2058H29.2879C30.4748 23.223 31.6274 22.8273 32.5391 22.0704C32.8831 21.8296 33.1584 21.4855 33.296 21.0727C33.5196 20.3846 33.0208 19.8341 32.3155 19.9889ZM29.3051 19.8169C28.3762 19.7825 26.9828 20.8663 26.7935 21.7264C26.7247 21.9672 26.7764 22.2424 26.9484 22.4317C27.5849 21.4511 28.3934 20.5738 29.3051 19.8169Z" fill="#01147B"/>
<path d="M41.9312 0C41.0195 0 40.125 0.0516067 39.2133 0.172022C37.2006 0.447258 35.2224 0.722494 33.2613 1.23856C31.2659 1.77183 29.322 2.49433 27.4642 3.38884C23.5937 5.22948 20.136 7.80982 17.246 10.975C16.0935 12.2652 15.027 13.6242 14.0464 15.052C13.8228 15.3616 13.926 15.6196 14.2701 15.7573C14.4937 15.8261 14.7173 15.9121 14.9237 15.9809C15.3194 16.1185 15.457 16.0669 15.6978 15.7057C16.2655 14.9143 16.816 14.0714 17.4697 13.3489C18.1922 12.5748 18.8975 11.7835 19.6028 11.0094C20.4285 10.2353 21.2886 9.49564 22.1659 8.79035C34.2934 -0.842909 51.5817 -0.430056 63.2448 9.77088C66.3068 12.4544 68.8183 15.7057 70.6417 19.3525C70.8482 19.7654 71.0718 20.1954 71.261 20.6255C71.7427 21.692 71.5534 21.6748 72.534 21.6748C72.6372 21.6748 72.7748 21.6748 72.9124 21.6748C73.2565 21.6748 73.5145 21.52 73.3941 21.1416C72.7232 19.2149 71.6394 17.3571 70.5385 15.6368C69.4032 13.8822 68.1302 12.248 66.7024 10.7342L66.6164 10.6482C64.3629 8.25708 61.7826 6.21001 58.927 4.5758C57.7917 3.90491 56.6047 3.30283 55.3834 2.82117C54.42 2.37391 53.4223 1.99546 52.4074 1.68582C50.2915 0.997731 48.0896 0.516067 45.8705 0.275236C44.5632 0.120415 43.2558 0.034404 41.9312 0.034404V0Z" fill="url(#paint0_radial_1801_11023)"/>
<path d="M62.3159 49.2156C64.2425 49.2156 65.8767 49.9381 66.8917 51.4347H66.9433V49.5769H69.4204V62.7882H66.9433V60.7411H66.8917C65.9628 62.3237 64.2941 63.1322 62.4019 63.1322C58.5314 63.1322 55.3834 60.225 55.3834 56.4061C55.4006 52.1744 58.4282 49.2156 62.3159 49.2156ZM22.8712 49.2156C26.5181 49.2156 29.9585 52.0712 29.9069 56.2685C29.8553 59.8638 26.7933 63.2354 22.4239 63.115C18.7255 62.9946 15.5947 59.8294 15.6291 56.1309C15.6979 52.1572 18.8459 49.2156 22.8712 49.2156ZM42.8602 49.2156C45.0621 49.2156 46.8511 50.7466 46.9199 53.0861H44.4428C44.3224 52.14 43.7719 51.4863 42.757 51.4863C41.8108 51.4863 41.2088 52.14 41.2088 52.8969C41.2088 54.015 42.3613 54.3591 43.6687 54.7547C45.5265 55.3224 47.2467 56.4405 47.2467 58.9005C47.2467 61.4464 45.3889 63.115 42.8086 63.115C40.4175 63.115 38.1296 61.498 38.1296 58.436H40.6067C40.7271 60.0358 41.5356 60.8443 42.843 60.8443C43.9955 60.8443 44.7524 60.1046 44.7524 59.0381C44.7524 58.1264 44.0643 57.5415 42.5161 57.0426C39.2649 56.0105 38.7144 54.6171 38.7144 53.1033C38.7144 50.7638 40.6927 49.2156 42.8602 49.2156ZM1.62646 45.1387C3.00264 45.1387 4.10358 46.2568 4.10358 47.6158V50.9702H4.15519C4.94649 49.8005 6.20225 49.1984 7.85367 49.1984C11.0017 49.1984 13.3584 51.1939 13.3584 54.8235V62.771H10.8813V55.5976C10.8813 52.7593 9.78031 51.4691 7.59563 51.4691C5.41095 51.4691 4.12079 53.0517 4.12079 55.6148V62.771H1.62646V45.1387ZM35.2052 45.1387V49.5769H37.3727V51.8475H35.2052V62.7882C33.829 62.7882 32.7281 61.67 32.7281 60.3111V51.8475H31.6959V49.5769H32.7281V45.1387H35.2052ZM52.4418 45.1387V49.5769H54.6093V51.8475H52.4418V62.7882C51.0656 62.7882 49.9647 61.67 49.9647 60.3111V51.8475H48.9326V49.5769H49.9647V45.1387H52.4418ZM78.3483 49.2156V51.7615C76.1981 51.8303 75.0971 53.1377 75.0971 55.3568V60.2939C75.0971 61.67 73.9962 62.771 72.62 62.771V49.5597H74.9423V50.7466H74.9939C75.5788 49.8865 76.6109 49.3188 78.3483 49.2156ZM62.3847 51.4863C59.77 51.4863 57.6541 53.8602 57.8949 56.647C58.1013 58.9521 59.9764 60.8099 62.2815 60.8615C64.8962 60.9131 66.9777 58.7456 66.9777 56.2169C66.9949 53.6366 65.137 51.4863 62.3847 51.4863ZM22.7508 51.4863C20.1532 51.5207 18.089 53.6538 18.1234 56.2513C18.1234 56.6126 18.175 56.9738 18.261 57.3179C18.7771 59.3993 20.6865 60.9131 22.8368 60.8615C25.4171 60.7927 27.4642 58.6424 27.3954 56.0449C27.3438 53.5162 25.2795 51.5035 22.7508 51.4863Z" fill="#01147B"/>
</g>
<defs>
<radialGradient id="paint0_radial_1801_11023" cx="0" cy="0" r="1" gradientUnits="userSpaceOnUse" gradientTransform="translate(72.6476 21.5774) scale(56.791 56.7911)">
<stop stop-color="#01147B"/>
<stop offset="0.03" stop-color="#011098"/>
<stop offset="0.06" stop-color="#010ABD"/>
<stop offset="0.1" stop-color="#0006DA"/>
<stop offset="0.14" stop-color="#0003EE"/>
<stop offset="0.18" stop-color="#0001FB"/>
<stop offset="0.22" stop-color="#0000FF"/>
<stop offset="1" stop-color="#00FFFF" stop-opacity="0"/>
</radialGradient>
<clipPath id="clip0_1801_11023">
<rect width="80" height="63.1322" fill="white"/>
</clipPath>
</defs>
</svg>
