<svg width="80" height="18" viewBox="0 0 80 18" fill="none" xmlns="http://www.w3.org/2000/svg">
<g clip-path="url(#clip0_1801_11062)">
<path d="M71.1753 13.4838C68.7243 13.4838 66.7345 11.494 66.7345 9.04306C66.7345 6.5908 68.7243 4.60361 71.1753 4.60361C73.6275 4.60361 75.6134 6.5908 75.6134 9.04306C75.6134 11.494 73.6275 13.4838 71.1753 13.4838ZM71.1423 0.149635C66.2483 0.149635 62.2819 4.11739 62.2819 9.01003C62.2819 13.9013 66.2483 17.8678 71.1423 17.8678C76.0336 17.8678 80 13.9013 80 9.01003C80 4.11739 76.0336 0.149635 71.1423 0.149635Z" fill="black"/>
<path d="M71.142 5.52678C69.2182 5.52678 67.6578 7.08455 67.6578 9.00963C67.6578 10.9321 69.2182 12.4925 71.142 12.4925C73.0657 12.4925 74.6248 10.9321 74.6248 9.00963C74.6248 7.08455 73.0657 5.52678 71.142 5.52678Z" fill="#4279BB"/>
<path d="M53.0685 11.413H58.0537C56.9412 14.6184 53.9089 14.0846 53.9089 14.0846C51.4592 14.0397 50.3097 12.0366 50.3097 12.0366C48.2605 8.4732 50.3097 5.84917 50.3097 5.84917C51.2439 4.20155 53.6922 4.02319 53.6922 4.02319C56.6743 4.02319 57.6983 6.24951 57.6983 6.24951H62.3266C61.1679 2.70852 57.8383 0.149238 53.9089 0.149238C49.0176 0.149238 45.0524 4.11699 45.0524 9.00963C45.0524 13.9009 49.0176 17.8687 53.9089 17.8687C58.8042 17.8687 62.7693 13.901 62.7693 9.00963C62.7693 8.678 62.7495 8.35164 62.7138 8.03058H53.0685V11.413Z" fill="black"/>
<path d="M34.2128 12.2917C36.1299 12.2917 37.6798 10.7379 37.6798 8.82208C37.6798 6.90493 36.1299 5.35112 34.2128 5.35112C32.297 5.35112 30.7432 6.90493 30.7432 8.82208C30.7432 10.7379 32.297 12.2917 34.2128 12.2917ZM29.7985 8.82208C29.7985 6.38171 31.7764 4.40774 34.2128 4.40774C36.6505 4.40774 38.6285 6.38171 38.6285 8.82208C38.6285 11.2585 36.6505 13.2351 34.2128 13.2351C31.7764 13.2351 29.7985 11.2585 29.7985 8.82208ZM23.6533 8.82208C24.1976 8.75073 25.108 8.12842 25.429 7.72807C25.3167 8.22355 25.3088 9.65448 25.4396 10.1473C25.0736 9.58445 24.2069 8.89078 23.6533 8.82208ZM20.4796 4.14877C21.1732 4.14877 21.7189 4.83319 21.7189 5.61405C21.7189 6.39228 21.1732 7.07933 20.4796 7.07933H18.0947V4.14877H20.4796ZM20.4703 10.6586C21.1653 10.6586 21.711 11.3431 21.711 12.1252C21.711 12.9048 21.1653 13.5892 20.4703 13.5892H18.0868V10.6586H20.4703ZM34.2101 17.7155C39.0684 17.7142 43.0216 13.6764 43.0203 8.81944C43.0203 3.85677 39.0684 0.00264559 34.2101 5.85855e-06C29.3558 -0.00527881 26.8771 3.56609 26.2654 5.00891C26.2707 2.846 24.1382 0.290681 21.6423 0.286718H13.6037V17.627L21.0979 17.6296C24.121 17.6296 26.2707 15.0122 26.2733 12.7674C26.9657 14.1798 29.3558 17.7182 34.2101 17.7155ZM12.622 17.6336H7.9104V10.9057H4.85167V17.6336H0.0158475L0 0.289353H4.85168V6.7424H7.91041V0.289353H12.622L12.622 17.6336Z" fill="black"/>
</g>
<defs>
<clipPath id="clip0_1801_11062">
<rect width="80" height="17.8687" fill="white"/>
</clipPath>
</defs>
</svg>
