<svg width="80" height="20" viewBox="0 0 80 20" fill="none" xmlns="http://www.w3.org/2000/svg">
<g clip-path="url(#clip0_1801_10699)">
<path fill-rule="evenodd" clip-rule="evenodd" d="M13.5399 0.131836C13.0286 0.131836 12.5362 0.626306 12.5362 1.10252V7.34737H4.69645V1.10252C4.69645 0.626306 4.20403 0.131836 3.69273 0.131836C3.18143 0.131836 0 0.443225 0 3.48324V16.7606C0 19.8007 3.18143 19.819 3.69273 19.819C4.20403 19.819 4.69645 19.4709 4.69645 18.9949V12.3103H12.5362V18.9949C12.5362 19.4709 13.0286 19.819 13.5399 19.819C14.0512 19.819 17.2327 19.8007 17.2327 16.7606V3.48324C17.2327 0.443225 14.0512 0.131836 13.5399 0.131836Z" fill="#FCB833"/>
<path fill-rule="evenodd" clip-rule="evenodd" d="M71.8086 11.8342C71.8086 11.8342 70.7038 10.6882 70.5687 10.5763C70.3016 10.3545 69.5616 10.1131 68.9851 10.1696C67.5163 10.3136 66.7557 10.9685 66.4332 11.2787C65.8373 11.8518 66.4332 12.4803 66.4332 12.4803C66.4332 12.4803 69.0685 15.9855 69.0615 15.9925C68.1265 15.2159 67.5448 15.224 67.0364 15.2404C63.6278 15.3502 61.3536 13.063 61.3536 10.0957C61.3536 7.12819 63.633 4.9199 66.6956 4.9199C69.7585 4.9199 72.1115 7.14526 72.1115 10.1126C72.1115 10.2475 71.8086 11.8342 71.8086 11.8342ZM74.9414 15.7332C76.1542 14.1101 76.8712 12.1164 76.8712 9.95929C76.8712 4.51454 72.3153 0.100491 66.6959 0.100491C61.0761 0.100491 56.5202 4.51454 56.5202 9.95929C56.5202 15.4042 61.0761 19.8182 66.6959 19.8182C68.4051 19.8182 70.0147 19.4078 71.4289 18.6865C71.8902 19.043 73.0483 19.8387 74.1376 19.7816C75.539 19.7084 76.2208 19.2508 76.486 18.9575C76.751 18.6647 76.9214 18.1333 76.5996 17.7487C76.3584 17.4605 75.4041 16.2975 74.9414 15.7332Z" fill="#FCB833"/>
<path fill-rule="evenodd" clip-rule="evenodd" d="M77.4452 0.172769H76.8697V0H78.214V0.172769H77.6387V1.6577H77.4452V0.172769Z" fill="#FCB833"/>
<path fill-rule="evenodd" clip-rule="evenodd" d="M78.3593 0H78.5551L79.1796 0.904753L79.804 0H80V1.65787H79.8063V0.314939L79.1821 1.20296H79.1723L78.5477 0.317306V1.65787H78.3593V0Z" fill="#FCB833"/>
<path fill-rule="evenodd" clip-rule="evenodd" d="M28.3251 20C31.8382 20 34.8027 18.2353 36.6346 15.6419C37.1973 14.8452 40.4999 8.33054 40.7135 7.93057C41.5868 6.29214 43.2831 4.98235 45.3209 4.98235C48.2262 4.98235 50.5815 7.26012 50.5815 10.0697C50.5815 12.8795 48.2262 15.1574 45.3209 15.1574C43.0203 15.1574 40.94 13.6982 40.2135 11.6637L37.5133 16.5142C39.396 18.6463 42.1937 20 45.3209 20C50.9917 20 55.5892 15.554 55.5892 10.0697C55.5892 4.58542 50.9917 0.212954 45.3209 0.212954C41.8263 0.212954 38.8008 1.91122 37.0401 4.52997C36.2944 5.63893 33.7094 11.2392 33.5406 11.4918C32.9272 12.534 32.2993 13.4159 31.548 14.0628L31.526 14.1022L31.5109 14.0944C30.663 14.8119 29.6554 15.2308 28.3251 15.2308C25.4199 15.2308 23.0646 12.9527 23.0646 10.1433C23.0646 7.33382 25.4199 5.05571 28.3251 5.05571C30.847 5.05571 32.948 6.77461 33.4603 9.06557L36.3241 3.9219C34.4424 1.66103 31.559 0.212954 28.3251 0.212954C22.6542 0.212954 18.057 4.65879 18.057 10.1433C18.057 15.6274 22.6542 20 28.3251 20Z" fill="#FCB833"/>
</g>
<defs>
<clipPath id="clip0_1801_10699">
<rect width="80" height="20" fill="white"/>
</clipPath>
</defs>
</svg>
