<svg width="80" height="26" viewBox="0 0 80 26" fill="none" xmlns="http://www.w3.org/2000/svg">
<g clip-path="url(#clip0_1801_10100)">
<path d="M25.8015 0.132993C28.0072 -0.183236 30.2997 0.0620026 32.3706 0.895241C35.4081 2.08486 37.9373 4.49208 39.2897 7.4586C40.4262 9.91816 40.7245 12.742 40.1824 15.3923C39.6525 17.9386 38.3273 20.3179 36.4214 22.0898C36.3346 22.1772 36.2256 22.2705 36.245 22.4081C36.2371 23.3561 36.2464 24.3041 36.2428 25.252C35.064 25.0656 33.8987 24.7996 32.7234 24.5945C32.438 24.5938 32.1856 24.7616 31.9174 24.8404C29.9584 25.5389 27.8265 25.7361 25.7707 25.4313C23.2832 25.0678 20.9154 23.9405 19.0618 22.2439C17.4025 20.7402 16.1483 18.7934 15.4728 16.6586C14.6245 13.9904 14.6761 11.0397 15.6442 8.41159C16.4115 6.28906 17.7603 4.38308 19.497 2.94392C21.2868 1.45097 23.494 0.465714 25.8015 0.132993ZM31.7898 2.62123C32.1082 2.86145 32.4588 3.05435 32.7801 3.29026C33.855 4.0604 34.8603 4.93164 35.7624 5.89969C36.6623 6.85841 37.4511 7.91538 38.1811 9.00748C37.5651 6.67413 36.0499 4.53438 33.9059 3.37775C33.2412 3.02997 32.5399 2.71876 31.7898 2.62123ZM31.9834 4.19593C32.2423 4.40746 32.5341 4.57239 32.803 4.76887C33.9718 5.61573 35.0145 6.63469 35.8958 7.77698C36.1919 8.15847 36.4465 8.56935 36.7412 8.95227C36.435 7.79993 35.8405 6.72074 35.0116 5.8624C34.1891 5.03848 33.14 4.39886 31.9834 4.19593ZM31.8629 5.71325C32.6976 6.29623 33.5237 6.91506 34.1712 7.70958C34.562 8.13624 34.8861 8.61596 35.2289 9.0799C35.0654 8.52704 34.8417 7.98637 34.5111 7.51167C33.8994 6.606 32.9421 5.92192 31.8629 5.71325ZM26.9531 6.39375C25.8266 6.51709 24.7309 6.94661 23.8246 7.62855C22.6643 8.48115 21.8125 9.7432 21.4482 11.1358C21.1047 12.4243 21.1714 13.8233 21.6511 15.0696C22.0993 16.2478 22.9017 17.2897 23.9314 18.0175C25.0206 18.8056 26.3666 19.2229 27.7089 19.2114C29.095 19.2071 30.4754 18.7324 31.5711 17.8834C32.8331 16.9311 33.7065 15.4877 33.9883 13.9338C34.2142 12.6638 34.0608 11.3236 33.5244 10.1483C32.9099 8.77658 31.7963 7.63429 30.4396 6.98749C29.3639 6.46474 28.1406 6.26683 26.9531 6.39375ZM17.0303 16.3862C17.3623 18.1896 18.4372 19.803 19.8355 20.9647C20.8846 21.8051 22.1086 22.4433 23.4122 22.776C22.797 22.34 22.1531 21.9406 21.5744 21.453C20.0886 20.267 18.7635 18.8787 17.6678 17.3241C17.4476 17.0165 17.2633 16.6845 17.0303 16.3862ZM18.6107 16.5833C18.7455 17.3829 19.1112 18.1279 19.5738 18.7876C20.4758 20.0547 21.8612 20.9374 23.3534 21.339C22.9913 21.045 22.5883 20.8055 22.2212 20.5172C20.8874 19.4925 19.7129 18.252 18.8015 16.8365C18.7412 16.749 18.6767 16.6651 18.6107 16.5833ZM20.1739 16.5604C20.2557 17.1183 20.526 17.6303 20.8523 18.082C21.4883 18.9533 22.4557 19.5463 23.4883 19.826C23.1943 19.5915 22.873 19.3928 22.5761 19.1605C21.9523 18.665 21.375 18.1093 20.8781 17.4854C20.625 17.1907 20.44 16.8444 20.1739 16.5604Z" fill="#090504"/>
<path d="M45.047 0.367475C47.7497 -0.292231 50.6689 -0.0634852 53.2195 1.05873C55.5722 2.08056 57.6001 3.83165 58.9575 6.00725C60.3092 8.1513 60.9911 10.7077 60.89 13.2396C60.8162 15.6167 60.0503 17.9651 58.7152 19.9328C57.2473 22.1134 55.0911 23.8229 52.6301 24.7479C50.159 25.688 47.3919 25.8235 44.8376 25.1452C42.7746 24.6009 40.8522 23.5296 39.3119 22.0525C40.8134 20.1587 41.8568 17.902 42.2913 15.5228C42.6864 16.2779 43.174 16.9957 43.8194 17.56C44.8326 18.4743 46.142 19.0623 47.5037 19.1813C48.5714 19.2846 49.6657 19.1211 50.6495 18.6887C52.0213 18.11 53.1686 17.0279 53.8426 15.7021C54.8573 13.7416 54.7569 11.2534 53.5723 9.38896C52.823 8.18285 51.6649 7.23057 50.3268 6.75014C49.034 6.26611 47.584 6.236 46.2632 6.62537C45.174 6.96024 44.1722 7.58051 43.4035 8.42378C42.9424 8.89131 42.6162 9.46426 42.2906 10.0286C42.0576 8.83753 41.7048 7.66584 41.1856 6.56728C40.6958 5.46873 40.0347 4.45909 39.3133 3.50108C40.9196 1.99308 42.9044 0.890221 45.047 0.367475Z" fill="#090504"/>
<path d="M6.1982 0.378232C8.06259 0.362456 9.92626 0.378232 11.7907 0.370344C12.0466 0.368193 12.3026 0.371778 12.5579 0.390422C12.5529 6.03522 12.5579 11.68 12.5558 17.3248C12.5421 19.0659 11.9082 20.794 10.7889 22.1278C9.382 23.8387 7.19708 24.8906 4.97775 24.8856C3.32203 24.8806 1.66559 24.8971 0.00986762 24.877C-0.00447383 22.7624 -0.00160554 20.6477 0.00843348 18.5338C1.64336 18.523 3.27757 18.5352 4.91177 18.5288C5.59084 18.5438 6.2147 17.9415 6.19605 17.2567C6.19964 11.6305 6.19533 6.00438 6.1982 0.378232Z" fill="#090504"/>
<path d="M59.3053 0.38612C61.4156 0.35672 63.5281 0.37393 65.6392 0.377515C66.8396 2.46133 68.0357 4.54873 69.2303 6.63684C69.2955 6.74727 69.3651 6.85626 69.4368 6.96454C70.6967 4.82982 71.9064 2.66498 73.1469 0.518061C73.2208 0.32732 73.4366 0.378232 73.6001 0.36891C75.5907 0.384686 77.5828 0.3517 79.5733 0.385403C78.8584 1.70195 78.0869 2.98838 77.3504 4.29345C75.7822 7.04127 74.191 9.77762 72.6385 12.5326C72.8465 13.0209 73.162 13.4583 73.413 13.9266C75.1347 16.9383 76.8642 19.945 78.5874 22.9553C79.0528 23.7863 79.5482 24.5995 80 25.4378C78.824 25.4593 77.6466 25.4406 76.4706 25.4471C75.542 25.4349 74.6112 25.47 73.6848 25.432C73.4388 25.181 73.3176 24.834 73.1283 24.5407C71.8964 22.4031 70.6874 20.2526 69.4382 18.1258C68.922 18.9511 68.4645 19.8123 67.9718 20.652C67.277 21.8696 66.5743 23.0836 65.8787 24.3012C65.6449 24.6726 65.4736 25.0864 65.2011 25.4313C63.9397 25.4693 62.6748 25.4356 61.4121 25.4471C60.5681 25.4399 59.7241 25.4621 58.8808 25.4349C59.4609 24.3449 60.1034 23.2901 60.7072 22.2131C62.2948 19.4502 63.8766 16.6845 65.4628 13.9209C65.7102 13.4526 66.0264 13.0174 66.2293 12.5283C64.271 9.06341 62.2718 5.61788 60.297 2.16087C59.97 1.56714 59.6 0.996348 59.3053 0.38612Z" fill="#090504"/>
<path d="M27.2357 11.1917C27.6917 11.0633 28.2152 11.1243 28.5967 11.4176C29.1015 11.7768 29.3424 12.4573 29.1775 13.0539C29.0154 13.705 28.3859 14.2063 27.7118 14.1905C27.1102 14.2156 26.5251 13.8312 26.287 13.2834C26.0884 12.8431 26.112 12.3067 26.3601 11.8908C26.553 11.561 26.8736 11.31 27.2357 11.1917Z" fill="#090504"/>
</g>
<defs>
<clipPath id="clip0_1801_10100">
<rect width="80" height="25.5701" fill="white"/>
</clipPath>
</defs>
</svg>
