<svg width="80" height="80" viewBox="0 0 80 80" fill="none" xmlns="http://www.w3.org/2000/svg">
<g clip-path="url(#clip0_1801_10705)">
<mask id="mask0_1801_10705" style="mask-type:alpha" maskUnits="userSpaceOnUse" x="0" y="0" width="80" height="80">
<path d="M40.3337 0C40.2225 0 40.1112 0 40 0C17.9088 0 0 17.9211 0 40C0 62.0789 17.9088 80 40 80C40.1112 80 40.2225 80 40.3337 80C62.2692 79.8221 80 61.99 80 40.0222C80.0222 18.0322 62.2914 0.200111 40.3337 0Z" fill="#37A6DE"/>
</mask>
<g mask="url(#mask0_1801_10705)">
<path d="M40.0666 24.4582C55.4838 24.4582 69.1656 30.217 77.8864 39.133V18.7662C77.8864 9.272 70.189 1.60107 60.7118 1.60107H19.4215C9.94429 1.60107 2.22461 9.272 2.22461 18.7662V39.133C10.9677 30.217 24.6718 24.4582 40.0666 24.4582Z" fill="url(#paint0_radial_1801_10705)"/>
<path d="M3.04894 65.2809C11.792 56.8318 25.1179 51.4288 40.0678 51.4288C54.9955 51.4288 68.3437 56.8318 77.0867 65.2809C77.6207 63.6356 77.8876 61.879 77.8876 60.078V39.1553C69.1668 30.2392 55.4627 24.4805 40.0678 24.4805C24.673 24.4805 10.9688 30.2392 2.24805 39.1553V60.078C2.24805 61.879 2.53726 63.6356 3.04894 65.2809Z" fill="url(#paint1_radial_1801_10705)"/>
<path d="M3.04883 65.2809C5.25127 72.2181 11.7474 77.2431 19.4226 77.2431H60.7129C68.3881 77.2431 74.8842 72.2181 77.0866 65.2809C68.3436 56.8318 55.0177 51.4288 40.0677 51.4288C25.14 51.4065 11.8141 56.8095 3.04883 65.2809Z" fill="url(#paint2_radial_1801_10705)"/>
<path d="M3.04883 65.2809C5.25127 72.2181 11.7474 77.2431 19.4226 77.2431H60.7129C68.3881 77.2431 74.8842 72.2181 77.0866 65.2809C68.3436 56.8318 55.0177 51.4288 40.0677 51.4288C25.14 51.4065 11.8141 56.8095 3.04883 65.2809Z" fill="url(#paint3_radial_1801_10705)"/>
<path d="M-11.8125 65.6591C-8.72018 75.3756 0.378818 82.424 11.1463 82.424H69.0106C79.7559 82.424 88.8549 75.3756 91.9472 65.6591C79.6891 53.7858 61.0017 46.2261 40.0673 46.2261C19.133 46.2261 0.44556 53.7858 -11.8125 65.6591Z" fill="url(#paint4_radial_1801_10705)"/>
<path d="M59.5774 39.3105C59.5552 39.3105 59.5329 39.3105 59.5107 39.3105H57.9089C57.6865 39.3105 57.464 39.3995 57.286 39.5774C57.108 39.733 57.019 39.9553 57.019 40.1777V53.6296C57.019 54.1188 57.3972 54.519 57.8867 54.519L60.0001 54.5412C60.0001 54.5412 60.0001 54.5412 60.0224 54.5412C60.1559 54.5412 60.2893 54.519 60.4006 54.4523C63.2482 53.0737 65.0947 50.1388 65.0947 46.9815C65.0947 43.6463 62.87 41.3784 62.87 41.3784C61.1792 39.4884 59.7554 39.3105 59.5774 39.3105Z" fill="#F4F4F6"/>
<path d="M64.1603 39.8889C64.4495 40.2447 65.4506 41.601 66.0513 43.0684C66.8522 40.4225 67.4306 37.2208 67.4306 34.5748C67.4306 19.6554 55.2838 7.5376 40.3561 7.5376C40.2671 7.5376 40.1558 7.55983 40.0669 7.58207C39.9556 7.55983 39.8666 7.5376 39.7776 7.5376C24.85 7.5376 12.7031 19.6777 12.7031 34.5748C12.7031 37.1985 13.2148 40.1557 13.9712 42.7349C14.3494 41.89 14.9056 40.8672 15.7065 39.9556C15.7732 39.8889 15.8622 39.8222 15.9289 39.7333C15.5285 37.7544 15.3728 36.3314 15.3728 34.5748C15.3728 21.1229 26.3182 12.0067 39.7776 12.0067C39.8666 12.0067 39.9556 11.9845 40.0669 11.9623C40.1558 11.9845 40.2671 12.0067 40.3561 12.0067C53.8155 12.0067 64.761 21.1229 64.761 34.5748C64.761 36.3758 64.5607 38.1768 64.1603 39.8889Z" fill="#F4F4F6"/>
<path d="M75.7063 55.3861C75.2392 54.8303 74.4383 54.7858 73.9043 55.2527C65.3838 62.6124 60.2225 63.4351 57.3971 62.8125C54.4383 62.1677 53.3482 59.8998 53.3037 59.7886C53.1924 59.544 52.9922 59.3439 52.792 59.2327C52.2136 57.7652 51.8354 55.8086 51.1457 53.5184C50.9677 52.9403 50.812 52.2733 50.6563 51.5618C50.1001 49.2049 49.5217 46.7591 47.8977 45.8253C47.4082 45.5585 46.6074 45.3139 45.5173 45.6474C44.3827 46.0254 43.0923 47.1816 43.4928 50.539C43.7375 52.4512 44.4049 54.6079 44.8943 56.1644C45.0723 56.7202 45.2058 57.1871 45.317 57.5429C45.9177 59.7441 45.8954 61.0337 45.762 61.6563C46.2514 62.3456 47.1413 62.3456 47.1413 62.3456C46.4516 62.5012 45.9399 62.3233 45.6062 62.0788C45.5395 62.012 45.4505 61.9676 45.3838 61.9009C45.2725 61.7897 45.1613 61.6563 45.0946 61.5451C44.7386 61.056 44.3159 60.1666 44.049 58.7658C43.871 57.832 43.7152 56.698 43.5595 55.4529C43.0923 51.7397 42.6474 48.2266 40.8009 47.1371C40.3337 46.8481 39.5551 46.6035 38.554 46.9592C36.0178 47.9153 36.3293 50.0054 36.9077 54.1632C36.9522 54.5412 37.0189 54.9415 37.0857 55.3639C37.3971 57.6763 37.8198 60.8559 36.9077 61.1004C36.574 61.1671 35.6396 60.9226 34.1936 56.5646C33.5929 54.8081 33.1257 53.096 32.7475 51.4506C37.1079 43.1127 42.5139 31.5951 40.0668 25.6585C38.9989 23.0571 37.1079 22.6791 35.7286 23.2127C33.1035 24.191 30.7898 28.4823 29.8109 34.1744C29.1435 38.0209 28.8321 43.8019 30.4561 51.1616C29.9889 52.0732 29.544 52.8959 29.1213 53.6963L29.01 53.9631C27.1635 57.454 24.6719 60.8559 22.6919 62.4123C22.5584 62.5012 22.0467 62.8792 21.4683 63.146C20.7564 63.4351 19.2881 63.9242 17.9978 63.1905C17.9978 63.1905 18.7764 63.524 19.9778 63.0793C18.8432 62.5679 18.02 61.0115 18.109 58.121L18.2648 49.9609C18.287 49.3606 17.7976 48.8492 17.1969 48.8269C16.5962 48.8047 16.0846 49.2939 16.0623 49.8942L15.7731 58.0765C15.6396 63.6574 17.9533 64.9025 19.6663 65.3472C19.9555 65.4362 20.267 65.4806 20.5784 65.4806C23.693 65.5696 28.0534 60.2333 30.7898 55.0082L30.9233 54.7413C30.9455 54.6969 30.99 54.6524 30.99 54.5857C31.0345 54.519 32.0134 52.3845 32.0579 52.2955C32.0801 52.3845 31.346 55.1638 31.3682 55.2527C31.6129 56.1421 31.7019 56.3645 32.0356 57.2983C32.6808 59.2994 34.0378 63.2794 36.6185 63.3239C36.8632 63.3239 37.1079 63.3017 37.3749 63.235C40.178 62.5012 39.6886 58.9214 39.1769 55.0749C39.1324 54.6524 39.0656 54.2522 39.0211 53.8742C38.7542 52.0065 38.5762 50.6502 38.6652 49.872C38.6652 49.8053 38.6652 49.7608 38.6874 49.7163C38.6874 49.7163 38.7097 49.6496 38.7097 49.5607C38.7097 49.5385 38.7319 49.5162 38.7319 49.494C38.8654 49.0715 39.2881 48.1821 40.445 47.9376C40.445 47.9376 39.6886 48.2266 39.3771 48.9826C39.5328 48.9604 39.5996 48.9826 39.6218 49.0048C40.5562 49.5607 41.0679 53.4517 41.3348 55.7419C41.5128 57.0093 41.6685 58.1877 41.8688 59.2105C42.4027 61.8786 43.5818 63.7686 45.0278 64.2133C45.762 64.4356 46.5184 64.2577 47.0745 63.7463C48.1869 62.6569 48.3204 60.2555 47.4305 56.9648C47.3192 56.5646 47.1635 56.0754 46.9855 55.5196C46.5406 54.0743 45.3393 50.25 45.673 48.5379C45.673 48.5379 45.6952 48.449 45.7397 48.3156V48.2933C45.8955 47.8709 46.3181 46.9815 47.4527 46.7369C47.4527 46.7369 46.7631 47.0037 46.4516 47.6707C46.6963 47.6485 46.7853 47.693 46.8298 47.7152C47.6085 48.1599 48.1424 50.3834 48.5206 52.0287C48.6986 52.7847 48.8543 53.474 49.0768 54.1188C49.7887 56.4979 50.2114 58.5212 50.8565 60.1221C50.8343 60.3445 50.8565 60.589 50.9455 60.8114C51.0122 60.9448 52.5473 64.3467 56.7964 65.3028C57.5083 65.4584 58.2647 65.5473 59.0211 65.5473C63.604 65.5473 69.1657 62.7458 75.5951 57.1871C76.1068 56.7425 76.1735 55.8975 75.7063 55.3861ZM31.1235 50.0054C31.1235 50.0054 31.8354 47.1149 31.8131 46.9592C31.7464 46.5368 31.7242 46.3367 31.6797 45.9142C30.3893 35.0193 33.3037 27.504 35.7953 25.6363C35.8843 25.5696 36.2403 25.3028 36.3293 25.2583C37.8643 24.28 38.8877 25.325 38.8877 25.325C38.1313 25.0582 37.6418 25.2583 37.3081 25.4806C37.5084 25.6808 37.7308 25.992 37.9533 26.5034C39.7998 30.9948 35.8843 40.2666 32.1468 47.6707C32.0801 47.8042 31.1457 50.0276 31.1235 50.0054Z" fill="#F4F4F6"/>
</g>
<path d="M19.8434 54.5415C19.8657 54.5415 19.8879 54.5415 19.9102 54.5415H21.5119C21.7566 54.5415 21.9791 54.4526 22.1348 54.2969C22.2906 54.119 22.4018 53.8967 22.4018 53.6743V40.2002C22.4018 39.711 22.0236 39.333 21.5342 39.333L19.4207 39.2886H19.3985C19.265 39.2886 19.1315 39.333 19.0203 39.3775C16.1727 40.7561 14.3262 43.691 14.3262 46.8483C14.3262 50.1835 16.5731 52.4737 16.5731 52.4737C18.2416 54.3636 19.6654 54.5415 19.8434 54.5415Z" fill="#F4F4F6"/>
<path fill-rule="evenodd" clip-rule="evenodd" d="M76.8889 40.0207L76.8889 40.0191C76.9094 19.7485 60.5686 3.30311 40.3192 3.11111H40C19.6276 3.11111 3.11111 19.6387 3.11111 40C3.11111 60.3613 19.6276 76.8889 40 76.8889H40.3207C60.5449 76.7183 76.8889 60.2748 76.8889 40.0222V40.0207ZM40.3337 80H40C17.9088 80 0 62.0789 0 40C0 17.9211 17.9088 0 40 0H40.3337C62.2914 0.200111 80.0222 18.0322 80 40.0222C80 61.99 62.2692 79.8221 40.3337 80Z" fill="#37A6DE"/>
</g>
<defs>
<radialGradient id="paint0_radial_1801_10705" cx="0" cy="0" r="1" gradientUnits="userSpaceOnUse" gradientTransform="translate(39.9124 62.4322) rotate(0.308597) scale(100.798 54.2898)">
<stop stop-color="#E22786"/>
<stop offset="0.5" stop-color="#4274B7"/>
<stop offset="0.8773" stop-color="#3A3D90"/>
<stop offset="1" stop-color="#413182"/>
</radialGradient>
<radialGradient id="paint1_radial_1801_10705" cx="0" cy="0" r="1" gradientUnits="userSpaceOnUse" gradientTransform="translate(39.9135 78.0604) rotate(0.308597) scale(98.7496 60.1347)">
<stop stop-color="#E22786"/>
<stop offset="0.5" stop-color="#4274B7"/>
<stop offset="0.8773" stop-color="#3A3D90"/>
<stop offset="1" stop-color="#413182"/>
</radialGradient>
<radialGradient id="paint2_radial_1801_10705" cx="0" cy="0" r="1" gradientUnits="userSpaceOnUse" gradientTransform="translate(39.9179 78.7194) rotate(0.308597) scale(99.2826 60.4593)">
<stop stop-color="#E22786"/>
<stop offset="0.5" stop-color="#4274B7"/>
<stop offset="0.8773" stop-color="#3A3D90"/>
<stop offset="1" stop-color="#413182"/>
</radialGradient>
<radialGradient id="paint3_radial_1801_10705" cx="0" cy="0" r="1" gradientUnits="userSpaceOnUse" gradientTransform="translate(39.878 99.063) rotate(0.308597) scale(125.248 76.2713)">
<stop stop-color="#E22786"/>
<stop offset="0.5" stop-color="#4274B7"/>
<stop offset="0.8773" stop-color="#3A3D90"/>
<stop offset="1" stop-color="#413182"/>
</radialGradient>
<radialGradient id="paint4_radial_1801_10705" cx="0" cy="0" r="1" gradientUnits="userSpaceOnUse" gradientTransform="translate(41.0838 92.0255) rotate(0.810496) scale(175.555 158.576)">
<stop stop-color="#E22786"/>
<stop offset="0.5" stop-color="#4274B7"/>
<stop offset="0.8773" stop-color="#3A3D90"/>
<stop offset="1" stop-color="#413182"/>
</radialGradient>
<clipPath id="clip0_1801_10705">
<rect width="80" height="80" fill="white"/>
</clipPath>
</defs>
</svg>
