<svg width="80" height="24" viewBox="0 0 80 24" fill="none" xmlns="http://www.w3.org/2000/svg">
<g clip-path="url(#clip0_1801_10777)">
<path d="M49.9846 6.47325C49.9846 6.47325 47.5168 2.74603 47.1507 2.11628C46.5136 1.25953 45.7374 0.0585938 44.4047 0.0585938H41.644V9.15335H44.4047V2.74602C44.4047 2.74602 46.8724 6.47326 47.2386 7.10301C47.8756 7.95976 48.5859 9.15335 49.9846 9.15335H52.7232V0.0585938H49.9846V6.47325Z" fill="#253F7D"/>
<path d="M35.588 1.45723C34.9876 2.86318 33.9258 5.85083 33.9258 5.85083L32.6223 2.06502C32.6223 2.06502 31.9414 0.0659296 29.7812 0.0659296H27.0205V9.16068H29.7812V2.84855C29.7812 2.84855 30.1107 2.91445 30.7477 4.71582C31.3848 6.5172 32.3294 9.17532 32.3294 9.17532H34.1894C34.1894 9.17532 35.5221 9.09476 36.3056 6.97119L37.3089 4.23985C37.3089 4.23985 37.8068 2.75336 38.2681 2.57029V9.15335H40.9995V0.0585998H38.2681C38.2681 0.0585998 36.1885 0.0439725 35.5953 1.44992" fill="#253F7D"/>
<path d="M62.8066 6.82475L62.7846 6.80278H58.5301C57.3292 6.80278 56.3553 5.83617 56.3553 4.63526C56.3553 3.43434 57.3292 2.46775 58.5301 2.46775H62.6162C62.953 2.08698 63.3265 1.78675 63.5828 1.53046L65.0619 0.0659236H57.9516C55.418 0.0659236 53.3603 2.10894 53.3603 4.63526C53.3603 7.16157 55.418 9.20461 57.9516 9.20461H65.1498L62.7992 6.82475H62.8066Z" fill="#253F7D"/>
<path d="M34.0358 21.7191H30.726L27.0427 11.3428H30.4843L32.4761 17.8966H32.5347L34.5484 11.3428H37.5946L34.0358 21.7191Z" fill="#253F7D"/>
<path d="M42.0467 11.3575H38.7954V21.7191H42.0467V11.3575Z" fill="#253F7D"/>
<path d="M57.3585 11.3575H54.1072V21.7191H57.3585V11.3575Z" fill="#253F7D"/>
<path d="M47.9342 21.7191C46.0376 21.7191 44.3315 21.3383 43.1232 19.8591L45.0051 18.2115C45.6202 18.9804 46.7113 19.5003 47.8244 19.5003C48.5493 19.5003 49.3621 19.3099 49.3621 18.6362C49.3621 18.0577 48.8422 17.9113 48.0148 17.7721C47.9562 17.7355 47.2679 17.6403 47.2312 17.6403C46.9823 17.5817 45.796 17.2376 45.5983 17.1644C44.3534 16.725 43.6212 15.9561 43.6212 14.6747C43.6212 12.5657 45.3859 11.2184 47.883 11.2184C49.8967 11.2184 51.1855 11.6797 52.196 12.866L50.1823 14.4037C49.6038 13.752 48.7983 13.4444 47.9781 13.4444C47.158 13.4444 46.5942 13.6788 46.5942 14.2353C46.5942 14.6966 47.0555 14.8065 47.6706 14.9236C47.8244 15.0188 48.8422 15.136 48.996 15.1726C49.2084 15.2312 50.2042 15.5021 50.358 15.5753C51.7786 16.0733 52.5621 17.0325 52.5621 18.2774C52.5621 20.7305 50.0651 21.7264 47.9415 21.7264" fill="#253F7D"/>
<path d="M65.5305 15.2166C65.5305 14.2573 64.8421 13.6056 63.8975 13.6056C62.9529 13.6056 62.2865 14.1767 62.2865 15.2751V17.7502C62.2865 18.7241 62.9163 19.3246 63.9341 19.3246C64.8128 19.3246 65.5231 18.79 65.5231 17.7355V15.2239L65.5305 15.2166ZM63.9414 21.7191C61.525 21.7191 59.0865 20.606 59.0865 17.6696V15.5021C59.0865 12.5877 61.503 11.1818 63.8609 11.1818C66.2188 11.1818 68.7305 12.5072 68.7305 15.4216V17.5159C68.7305 20.4523 66.1968 21.7191 63.9341 21.7191" fill="#253F7D"/>
<path d="M76.8439 21.719V15.8316C76.8439 14.8138 76.4631 13.935 75.2915 13.935C74.3468 13.935 73.6585 14.6234 73.6585 16.022V21.719H70.4878V11.6284H73.5779V12.9099H73.6146C74.3834 11.892 75.4379 11.416 76.6828 11.416C78.4841 11.416 79.9999 12.4925 79.9999 14.7332V21.719H76.8365H76.8439Z" fill="#253F7D"/>
<path d="M14.5109 1.76367C14.0607 1.43075 13.7173 0.998494 13.305 0.649598C12.3626 -0.229878 10.8947 -0.216901 9.98574 0.692025L9.94531 0.733453C9.82901 0.830285 9.7162 0.932109 9.6014 1.03942L6.20727 4.40659L6.18881 4.49044C5.92726 5.76723 6.76431 6.70161 6.76431 6.70161L8.65454 8.63976L11.6768 11.6875L12.709 10.6533L14.9187 8.46406L16.5898 6.83488L16.6996 6.74254C16.7385 6.7091 16.7959 6.66418 16.8733 6.61327C17.3265 6.30231 17.7822 6.188 18.1581 6.15756C18.4536 6.1326 18.6987 6.16255 18.8509 6.19299C18.9198 6.20597 18.9692 6.21945 18.9961 6.22743L19.0111 6.23193L19.0206 6.23492L14.5109 1.76367Z" fill="#FFD200"/>
<path d="M22.4139 9.59549L19.0108 6.23182L18.9958 6.22733C18.9689 6.21934 18.919 6.20537 18.8506 6.19289C18.6983 6.16244 18.4538 6.13199 18.1583 6.15745C17.7829 6.1879 17.3267 6.3022 16.8735 6.61316C16.7961 6.66407 16.7387 6.709 16.6998 6.74244L16.59 6.83478L14.9189 8.46396L12.7092 10.6532L11.6775 11.6874L14.4946 14.4461L16.6259 16.5899L16.6294 16.5929L16.6314 16.5959C16.7143 16.6842 16.9798 17.0007 17.162 17.6011C17.3502 18.2255 17.2543 18.7856 17.2229 18.9373L17.2124 18.9807L17.2149 18.9782L17.6432 18.546L20.4583 15.7034L22.7269 13.4343C23.1077 13.053 23.3303 12.5733 23.3982 12.0782C23.4172 11.9594 23.4306 11.8336 23.4321 11.6984C23.4471 10.7834 22.9894 10.1985 22.4139 9.59549Z" fill="#223C77"/>
<path d="M17.1627 17.6011C16.98 17.0007 16.7149 16.6842 16.6316 16.5959L16.6266 16.5899L14.4953 14.4461L11.6777 11.6869L8.91694 14.5015L6.77115 16.6378C6.77115 16.6378 5.98651 17.4349 4.69575 17.2747C4.61988 17.2647 4.54151 17.2537 4.46265 17.2363L8.8221 21.6302C9.36167 22.1697 10.1199 23.2464 11.4426 23.3527C12.1623 23.4605 12.921 23.2389 13.4736 22.6873L16.1175 20.0424L17.1971 18.9982V18.9967L17.2136 18.9798L17.2241 18.9363C17.255 18.7846 17.3513 18.2246 17.1632 17.6001" fill="#EE3524"/>
<path d="M16.6305 16.5954L16.6292 16.5923L16.6265 16.5905L16.631 16.5954H16.6305Z" fill="#EA4125"/>
<path d="M8.65486 8.63966L6.76413 6.70152C6.76413 6.70152 5.92758 5.76764 6.18863 4.49035L6.20709 4.40649L1.73284 8.82983C1.17081 9.39186 0.0242951 10.19 0.000336598 11.6205C-0.0141383 12.5404 0.440074 13.1334 1.00909 13.7403L4.38774 17.1614H4.38675L4.46112 17.2358V17.2373C4.54098 17.2547 4.61934 17.2657 4.69471 17.2747C5.98598 17.4354 6.77062 16.6383 6.77062 16.6383L8.91641 14.502L11.6771 11.6874L8.65486 8.64016V8.63966Z" fill="#3F9244"/>
<path d="M5.38574 11.6869C5.38574 8.24188 8.20287 5.44922 11.6769 5.44922C15.1508 5.44922 17.969 8.24188 17.969 11.6869C17.969 15.1319 15.1528 17.9236 11.6769 17.9236C8.20087 17.9236 5.38574 15.1319 5.38574 11.6869ZM5.82598 11.6869C5.82598 13.2906 6.48035 14.7381 7.54051 15.7868C8.60168 16.8365 10.0607 17.4859 11.6769 17.4859C13.2931 17.4859 14.7555 16.836 15.8147 15.7868C16.8744 14.7381 17.5287 13.2906 17.5287 11.6869C17.5287 10.0832 16.8744 8.6357 15.8147 7.58452C14.7555 6.53484 13.2946 5.88596 11.6769 5.88596C10.0592 5.88596 8.60168 6.53484 7.54051 7.58452C6.48035 8.6362 5.82598 10.0832 5.82598 11.6869Z" fill="white"/>
<path d="M12.6179 11.5961C12.6179 12.1097 12.2021 12.5265 11.6875 12.5265C11.1729 12.5265 10.7556 12.1097 10.7556 11.5961C10.7556 11.0825 11.1734 10.6642 11.6875 10.6642C12.2016 10.6642 12.6179 11.081 12.6179 11.5961Z" fill="white"/>
<path d="M17.4848 11.6869C17.4848 14.8939 14.8843 17.4944 11.6773 17.4944C8.47037 17.4944 5.86987 14.8939 5.86987 11.6869C5.86987 8.48 8.47037 5.88 11.6773 5.88C14.8843 5.88 17.4848 8.48 17.4848 11.6869Z" fill="url(#paint0_radial_1801_10777)"/>
</g>
<defs>
<radialGradient id="paint0_radial_1801_10777" cx="0" cy="0" r="1" gradientUnits="userSpaceOnUse" gradientTransform="translate(11.6768 11.6869) scale(5.80745 5.80744)">
<stop stop-color="white"/>
<stop offset="1" stop-color="white" stop-opacity="0"/>
</radialGradient>
<clipPath id="clip0_1801_10777">
<rect width="80" height="23.3792" fill="white"/>
</clipPath>
</defs>
</svg>
