<svg width="80" height="18" viewBox="0 0 80 18" fill="none" xmlns="http://www.w3.org/2000/svg">
<g clip-path="url(#clip0_1801_10899)">
<g clip-path="url(#clip1_1801_10899)">
<path d="M80 15.9702C79.9521 16.0993 79.9351 16.235 79.8836 16.3646C79.7291 16.7506 79.4832 17.0584 79.1209 17.2595C78.8216 17.4255 78.4914 17.4843 78.1484 17.4752C77.8358 17.4673 77.5529 17.3625 77.3002 17.1929C77.113 17.0675 76.9682 16.8899 76.8379 16.7033C76.7107 16.5216 76.6356 16.3253 76.5998 16.1059C76.5404 15.7412 76.4156 15.3952 76.266 15.056C76.0697 14.6112 75.7837 14.2344 75.4329 13.9036C75.2154 13.6988 74.9737 13.5255 74.7162 13.3728C74.489 13.2377 74.2502 13.1256 74.0073 13.0233C73.894 12.9754 73.771 12.9505 73.6529 12.9124C73.4772 12.8554 73.3014 12.7967 73.1185 12.7682C72.8064 12.7203 72.4968 12.6615 72.1794 12.6403C71.8837 12.621 71.5886 12.5925 71.2924 12.5991C70.8046 12.61 70.3193 12.6403 69.8365 12.7294C69.4935 12.793 69.1555 12.8657 68.8283 12.9821C68.1049 13.2402 67.499 13.6655 67.0307 14.2768C66.7804 14.6034 66.6478 14.9857 66.5314 15.3734C66.4775 15.554 66.4466 15.7394 66.4302 15.9284C66.4115 16.1429 66.3369 16.3465 66.237 16.5367C66.1364 16.7276 66.0207 16.9117 65.8486 17.0499C65.659 17.2026 65.4512 17.3201 65.2149 17.3946C64.9774 17.4698 64.7417 17.4831 64.4969 17.4625C64.0564 17.4261 63.7014 17.2359 63.4172 16.9027C63.2149 16.6658 63.0731 16.3974 63.0162 16.092C62.9786 15.8884 62.9768 15.6794 63.001 15.4722C63.0246 15.2674 63.0537 15.0638 63.0943 14.8609C63.1301 14.684 63.1549 14.504 63.2076 14.3325C63.2833 14.0878 63.3645 13.8442 63.4669 13.6085C63.5178 13.491 63.5754 13.3771 63.6293 13.2614C63.7965 12.9027 64.0086 12.5682 64.2249 12.2399C64.3806 12.003 64.5787 11.7897 64.7792 11.5843C65.0361 11.3208 65.3003 11.0657 65.5954 10.8433C65.619 10.8251 65.6456 10.81 65.659 10.7706C65.4348 10.5858 65.2003 10.4101 64.9986 10.1969C64.7477 9.93209 64.5157 9.65339 64.2982 9.36076C64.0976 9.09054 63.9141 8.80759 63.7559 8.51253C63.6335 8.28412 63.5021 8.05752 63.4221 7.80669C63.3554 7.59827 63.2537 7.40136 63.1943 7.18931C63.1398 6.99361 63.1046 6.79367 63.0555 6.59737C63.0022 6.38289 63.0289 6.16054 62.9641 5.94969C62.9501 5.90547 62.9871 5.87517 62.9937 5.8364C63.0095 5.74733 63.0083 5.65706 63.0246 5.56618C63.0822 5.24749 63.2494 4.98575 63.4548 4.75431C63.6123 4.57739 63.8105 4.4441 64.0498 4.36655C64.2752 4.29324 64.4963 4.2169 64.7338 4.23023C65.3251 4.26355 65.8201 4.49439 66.1503 4.99847C66.2976 5.22265 66.4109 5.47105 66.4103 5.75279C66.4103 5.85275 66.4496 5.94909 66.4787 6.04057C66.6999 6.73854 67.0507 7.36017 67.605 7.85395C68.0243 8.22717 68.5011 8.50102 69.0282 8.6943C69.5656 8.8912 70.12 8.99905 70.6877 9.05964C70.9997 9.09296 71.313 9.10387 71.6238 9.10205C72.4314 9.09841 73.2366 9.03843 74.0103 8.77851C74.2472 8.69914 74.4768 8.59736 74.7004 8.48224C75.1106 8.2714 75.4596 7.98603 75.7625 7.64493C76.057 7.31351 76.2702 6.93908 76.4059 6.51073C76.5077 6.18841 76.5344 5.857 76.6131 5.53346C76.7264 5.06754 76.9973 4.71008 77.4153 4.46773C77.7625 4.26597 78.1333 4.186 78.5332 4.25022C78.8415 4.2993 79.1312 4.40714 79.3644 4.6089C79.6571 4.86215 79.8976 5.16024 79.9467 5.57042C79.9527 5.62071 79.9551 5.68796 80.0006 5.73279V6.27626C79.943 6.29989 79.9255 6.35321 79.9454 6.39865C79.9733 6.46044 79.9582 6.51376 79.9497 6.57253C79.9139 6.81427 79.8455 7.04935 79.7903 7.28685C79.7534 7.4468 79.711 7.60918 79.6443 7.75822C79.5625 7.94059 79.4862 8.12659 79.4056 8.30896C79.3141 8.51799 79.2045 8.71671 79.0948 8.91423C78.9712 9.13719 78.8282 9.34985 78.6707 9.55282C78.5301 9.73397 78.3847 9.91089 78.2296 10.0787C77.9703 10.3611 77.6989 10.6319 77.3875 10.8579C77.3263 10.9027 77.345 10.9294 77.3687 10.9772C77.3838 11.0087 77.4117 11.0178 77.4335 11.036C77.5504 11.1347 77.6752 11.225 77.7855 11.3304C78.023 11.5595 78.2526 11.7958 78.4623 12.0526C78.7355 12.3877 78.973 12.7446 79.1936 13.1141C79.2881 13.2723 79.3602 13.4425 79.4389 13.6091C79.6213 13.9933 79.754 14.3937 79.8588 14.8033C79.8921 14.933 79.9206 15.0644 79.9461 15.1959C79.9624 15.2807 79.9436 15.3759 80 15.4528V15.966V15.9702Z" fill="#028FA9"/>
<path d="M39.7702 0C39.7375 0.028476 39.7405 0.0484698 39.7847 0.0587696C39.9628 0.101787 40.1355 0.158133 40.2973 0.244772C40.5808 0.397452 40.8389 0.591331 41.0043 0.867609C41.1994 1.19296 41.3164 1.55164 41.3188 1.93819C41.3194 2.03876 41.32 2.13934 41.32 2.23991C41.32 5.45952 41.3206 8.67912 41.3182 11.8987C41.3182 12.0666 41.3582 12.2132 41.4278 12.3659C41.5569 12.6482 41.7356 12.8942 41.9374 13.1232C42.0125 13.2086 42.1137 13.2789 42.2094 13.3492C42.5796 13.6218 43.0037 13.7527 43.4496 13.82C43.9143 13.8902 44.3845 13.9036 44.8528 13.8817C45.5532 13.8484 46.253 13.8272 46.954 13.8254C47.4236 13.8242 47.8907 13.7957 48.3572 13.7418C48.7577 13.6957 49.1479 13.6127 49.5241 13.4649C49.8483 13.3377 50.153 13.1832 50.3857 12.9154C50.5795 12.6924 50.6953 12.4355 50.7649 12.1453C50.8431 11.8212 50.8292 11.4952 50.854 11.1699C50.8758 10.879 50.9879 10.6222 51.1424 10.378C51.303 10.1241 51.5186 9.9254 51.7786 9.79029C52.13 9.60732 52.508 9.53643 52.9073 9.62852C53.2745 9.71335 53.5889 9.88723 53.8464 10.1605C54.0215 10.3459 54.1324 10.5694 54.2087 10.8112C54.2814 11.0408 54.3129 11.2741 54.3087 11.5164C54.302 11.9145 54.2845 12.3119 54.2069 12.7015C54.1088 13.1917 53.9767 13.6703 53.7616 14.1296C53.5023 14.6827 53.1642 15.1759 52.748 15.617C52.4408 15.9423 52.0888 16.2156 51.6937 16.4337C51.1878 16.7142 50.6577 16.936 50.107 17.108C49.9234 17.1656 49.7319 17.2007 49.5417 17.234C49.4617 17.248 49.3926 17.2855 49.3133 17.3007C49.1412 17.3346 48.9655 17.331 48.7928 17.3582C48.313 17.4334 47.8271 17.4352 47.343 17.4594C46.8686 17.4837 46.3948 17.4855 45.9222 17.4734C45.489 17.4625 45.0558 17.4594 44.6226 17.4522C44.0864 17.4431 43.5502 17.44 43.0152 17.4134C42.2658 17.3764 41.5157 17.3395 40.7717 17.2334C40.5384 17.2001 40.3021 17.1844 40.0743 17.1129C39.7041 16.9965 39.3539 16.8469 39.0771 16.5627C38.9468 16.4294 38.8135 16.2992 38.6814 16.1677C38.5051 15.992 38.3591 15.7915 38.2294 15.5818C38.1258 15.4152 38.018 15.2492 37.9386 15.0687C37.7569 14.653 37.626 14.2253 37.5557 13.7739C37.4648 13.1917 37.4636 12.6076 37.4636 12.0223C37.4636 8.6773 37.4636 5.33168 37.4636 1.98666C37.4636 1.76067 37.4782 1.54134 37.5563 1.32383C37.7199 0.867609 38.0083 0.520444 38.4239 0.275066C38.5863 0.179338 38.7584 0.115116 38.9444 0.0848221C38.9777 0.0793693 39.0437 0.0708871 39.0122 0.000605872H39.769L39.7702 0Z" fill="#028FA9"/>
<path d="M11.3311 5.82783C14.398 5.82783 17.4655 5.82783 20.5324 5.82783C20.6221 5.82783 20.71 5.8242 20.7978 5.86722C20.8693 5.90296 20.9565 5.88055 21.0371 5.88236C21.8157 5.90175 22.5694 6.0411 23.291 6.3398C23.8041 6.55246 24.2664 6.8457 24.6639 7.23285C25.1607 7.71634 25.5066 8.29495 25.7223 8.95171C25.8817 9.43641 25.9714 9.93444 25.9998 10.4446C26.0374 11.1129 26.0568 11.7811 26.0544 12.45C26.0501 13.4867 26.0544 14.5227 26.0525 15.5594C26.0525 15.8429 26.0204 16.1228 25.8968 16.3827C25.5678 17.0752 25.0092 17.44 24.2489 17.4685C23.8357 17.4836 23.4558 17.3394 23.1268 17.0831C22.6693 16.7263 22.4391 16.2525 22.4355 15.6775C22.4264 14.304 22.4355 12.9305 22.4191 11.5576C22.4082 10.6718 22.0471 9.93626 21.3455 9.38915C20.9438 9.07652 20.4852 8.86568 19.972 8.79903C19.8575 8.78449 19.7406 8.7851 19.6248 8.7851C18.9087 8.78389 18.192 8.78934 17.4758 8.78207C17.1789 8.77904 16.8911 8.81842 16.6137 8.91657C15.5346 9.29767 14.9112 10.0647 14.7021 11.1789C14.6646 11.3782 14.6688 11.58 14.6688 11.7805C14.6676 13.0232 14.6724 14.2658 14.67 15.5085C14.6694 15.8617 14.6197 16.2076 14.441 16.5233C14.1908 16.965 13.8218 17.2522 13.3347 17.4012C12.3532 17.7017 11.1045 17.0159 11.0505 15.7417C11.019 14.9886 11.0457 14.2325 11.0469 13.4782C11.0469 13.3425 11.0505 13.2068 11.0517 13.071C11.0572 12.5682 11.0711 12.0653 11.0669 11.5624C11.0602 10.7724 10.7518 10.1095 10.1866 9.56122C9.87999 9.26374 9.50919 9.07046 9.11416 8.92869C8.85546 8.83599 8.58281 8.78328 8.30229 8.78449C7.66189 8.78752 7.02087 8.77237 6.38047 8.78873C5.29959 8.816 4.50711 9.3322 3.9697 10.2549C3.82187 10.5094 3.72796 10.7875 3.66858 11.0711C3.6292 11.2595 3.62557 11.4588 3.62617 11.6557C3.6292 12.9989 3.63284 14.3422 3.62496 15.6854C3.62011 16.5342 3.02939 17.2316 2.19934 17.4267C1.51471 17.5878 0.730102 17.2716 0.321744 16.673C0.0993885 16.347 0.00729592 15.9877 0.00305481 15.6012C-0.00118629 15.1886 0.000631325 14.776 0.000631325 14.3634C0.000631325 12.2452 0.0012372 10.1271 0.0012372 8.00898C0.0012372 6.93052 0.761001 6.072 1.71101 5.87994C1.9061 5.84056 2.09937 5.82844 2.29628 5.82844C3.93577 5.82844 5.57526 5.82844 7.21475 5.82844C8.58705 5.82844 9.95875 5.82844 11.3311 5.82844V5.82783Z" fill="#F6881F"/>
<path d="M60.6017 12.355C60.6017 13.3965 60.592 14.4374 60.6059 15.4783C60.6126 15.9545 60.4629 16.3701 60.1897 16.7421C60.0497 16.933 59.8631 17.0881 59.6529 17.2117C59.4202 17.348 59.1712 17.428 58.9089 17.4728C58.821 17.4879 58.7289 17.4782 58.6387 17.4776C58.1352 17.474 57.6923 17.3044 57.3427 16.9457C56.9907 16.5852 56.7714 16.1532 56.7593 15.6364C56.7574 15.571 56.7568 15.5055 56.7568 15.4401C56.7568 13.3426 56.7593 11.245 56.7556 9.14749C56.7556 8.86152 56.8089 8.59251 56.938 8.34108C57.0355 8.15144 57.1476 7.97331 57.3142 7.8279C57.433 7.7243 57.5432 7.61706 57.682 7.53708C58.0952 7.29837 58.5332 7.22567 59.0022 7.3014C59.4178 7.36805 59.7662 7.56071 60.0637 7.85093C60.3097 8.09146 60.4454 8.39076 60.5423 8.71793C60.5932 8.8906 60.6005 9.05964 60.6005 9.23292C60.6017 10.2744 60.6011 11.3153 60.6011 12.3568L60.6017 12.355Z" fill="#028FA9"/>
<path d="M45.664 8.75424C44.5794 8.75424 43.4949 8.75121 42.4104 8.75606C42.1487 8.75727 41.9494 8.67124 41.8082 8.44525C41.7567 8.36224 41.73 8.27439 41.7191 8.18533C41.6858 7.91996 41.6919 7.65337 41.7409 7.39043C41.764 7.26743 41.8027 7.14444 41.8445 7.0269C41.9245 6.80212 41.996 6.5731 42.1045 6.35741C42.1814 6.20352 42.2874 6.07386 42.3977 5.94663C42.574 5.74245 42.7952 5.59401 43.032 5.46799C43.5349 5.2002 44.0772 5.06024 44.6382 4.98329C45.1132 4.91786 45.5919 4.89665 46.0711 4.89665C46.5001 4.89665 46.929 4.88999 47.3574 4.89847C47.9772 4.91059 48.5976 4.91968 49.2113 5.01662C49.5918 5.0772 49.9681 5.16142 50.3092 5.34985C50.6285 5.52555 50.8926 5.76002 51.0114 6.11567C51.0805 6.32348 51.1235 6.53917 51.1283 6.76153C51.1344 7.04387 51.1332 7.32863 51.049 7.59642C50.9423 7.93571 50.7939 8.25622 50.451 8.4404C50.2116 8.56945 49.962 8.64943 49.6948 8.69305C49.447 8.73364 49.1968 8.7494 48.9484 8.75121C47.8542 8.7597 46.7594 8.75485 45.6646 8.75485L45.664 8.75424Z" fill="#028FA9"/>
<path d="M32.3887 11.9672C32.4232 13.0123 31.3866 14.0859 30.1579 14.0732C28.9279 14.0605 27.9349 13.0705 27.9283 11.8509C27.9216 10.6724 28.854 9.69395 29.9228 9.63639C30.8055 9.58913 31.2472 9.77817 31.7604 10.2974C32.1839 10.7258 32.3893 11.2462 32.3881 11.9666L32.3887 11.9672Z" fill="#F6881F"/>
<path d="M58.7018 6.33869C57.6246 6.40291 56.7321 5.41231 56.7515 4.35264C56.7697 3.33416 57.6537 2.46898 58.7382 2.49867C59.6833 2.52472 60.5903 3.25419 60.6031 4.42837C60.614 5.42321 59.7633 6.34777 58.7018 6.33869Z" fill="#028FA9"/>
<path d="M35.4587 8.7543C35.1612 8.7543 34.8631 8.76036 34.5663 8.75249C34.2766 8.74522 33.9949 8.7022 33.7532 8.51741C33.6338 8.42653 33.5435 8.31505 33.4733 8.186C33.346 7.95274 33.2994 7.69948 33.2776 7.43835C33.243 7.0209 33.2806 6.61073 33.4496 6.22721C33.5423 6.01697 33.6968 5.83945 33.8974 5.7104C34.1936 5.51955 34.5251 5.43958 34.8698 5.41171C35.0849 5.39414 35.3024 5.38141 35.5175 5.43109C35.8907 5.51834 36.2021 5.71404 36.4263 6.01576C36.8589 6.5974 37.0643 7.26325 37.0812 7.98606C37.0849 8.12965 37.0485 8.26537 36.9819 8.39199C36.8583 8.62707 36.6614 8.74885 36.3972 8.75309C36.0846 8.75794 35.7719 8.7543 35.4593 8.7543H35.4587Z" fill="#028FA9"/>
</g>
</g>
<defs>
<clipPath id="clip0_1801_10899">
<rect width="80" height="17.4818" fill="white"/>
</clipPath>
<clipPath id="clip1_1801_10899">
<rect width="80" height="17.4818" fill="white"/>
</clipPath>
</defs>
</svg>
