<svg width="80" height="22" viewBox="0 0 80 22" fill="none" xmlns="http://www.w3.org/2000/svg">
<g clip-path="url(#clip0_1801_10964)">
<path d="M7.592 12.168L3.2 1.2207e-05H0V21.496C1.12 21.336 2.24 21.184 3.368 21.04V9.34401L7.272 20.552C8.496 20.408 9.728 20.272 10.96 20.152V1.2207e-05H7.592V12.168Z" fill="#DB202C"/>
<path d="M14.2 19.84C17.304 19.56 20.424 19.328 23.56 19.144V15.824C21.56 15.936 19.56 16.08 17.568 16.232V11.208C18.872 11.192 20.592 11.152 22.12 11.176V7.856C20.904 7.856 18.944 7.872 17.568 7.888V3.352H23.56V0H14.2V19.84Z" fill="#DB202C"/>
<path d="M25.712 3.352H29.24V18.872C30.36 18.832 31.488 18.792 32.608 18.768V3.352H36.136V0H25.712V3.352Z" fill="#DB202C"/>
<path d="M38.296 18.672H41.664V11.008H46.232V7.688H41.664V3.352H47.704V0H38.296V18.672Z" fill="#DB202C"/>
<path d="M53.224 0H49.856V18.84C52.92 18.944 55.968 19.096 59 19.304V15.984C57.08 15.856 55.152 15.744 53.224 15.656V0Z" fill="#DB202C"/>
<path d="M61.784 19.504C62.912 19.592 64.032 19.68 65.152 19.784V0H61.784V19.504Z" fill="#DB202C"/>
<path d="M80 0H76.296L73.856 5.656L71.672 0H68.024L71.944 10.104L67.664 20.016C68.848 20.128 70.024 20.256 71.208 20.384L73.696 14.624L76.16 20.976C77.44 21.144 78.72 21.312 80 21.496H80.008L75.624 10.176L80 0Z" fill="#DB202C"/>
</g>
<defs>
<clipPath id="clip0_1801_10964">
<rect width="80.008" height="21.496" fill="white"/>
</clipPath>
</defs>
</svg>
