<svg width="44" height="80" viewBox="0 0 44 80" fill="none" xmlns="http://www.w3.org/2000/svg">
<g clip-path="url(#clip0_1801_10915)">
<path d="M28.2358 0.0628624L28.2044 17.6644L28.173 35.266L26.7271 31.1799V31.1694L24.8517 70.3538C26.6957 75.5505 27.6805 78.3269 27.691 78.3374C27.7015 78.3479 28.7492 78.4107 30.0169 78.4736C33.8516 78.6622 38.6082 79.0708 42.2228 79.5213C43.061 79.6261 43.7734 79.6785 43.8258 79.6366C43.8782 79.5947 43.8886 61.6788 43.8782 39.813L43.8467 0.0628624H28.2358Z" fill="#B1060F"/>
<path d="M0 0.0104778V39.8026C0 61.6893 0.0209542 79.6156 0.0523856 79.647C0.0838169 79.6785 1.43536 79.5423 3.06979 79.3642C4.70422 79.1861 6.95681 78.9556 8.07786 78.8613C9.7961 78.7146 14.9508 78.3898 15.5376 78.3793C15.7157 78.3793 15.7262 77.4888 15.7471 61.5216L15.7785 44.664L17.0253 48.1843C17.2139 48.7291 17.2768 48.8967 17.4654 49.431L19.3408 10.2571C18.9426 9.13605 19.1522 9.72277 18.7017 8.44456C17.172 4.11751 15.8728 0.460992 15.8204 0.293358L15.7157 0H0V0.0104778Z" fill="#B1060F"/>
<path d="M0 0.0104778V22.3477L15.7366 64.0885C15.7366 63.1351 15.7366 62.6113 15.7471 61.5216L15.7785 44.664L17.0253 48.1843C23.9402 67.7974 27.6596 78.3164 27.6805 78.3374C27.691 78.3479 28.7387 78.4107 30.0065 78.4736C33.8411 78.6622 38.5977 79.0708 42.2123 79.5213C43.0505 79.6261 43.7629 79.6785 43.8153 79.6366C43.8467 79.6051 43.8677 70.8253 43.8677 58.4309L28.2149 13.4002L28.2044 17.6644L28.173 35.266L26.7271 31.1799C25.3127 27.1881 24.3698 24.5165 18.6807 8.44456C17.151 4.11751 15.8519 0.460992 15.7995 0.293358L15.6947 0H0V0.0104778Z" fill="url(#paint0_radial_1801_10915)"/>
<path d="M0 0.0104778L15.7681 44.6954V44.6744L17.0148 48.1947C23.9402 67.7974 27.6596 78.3164 27.6805 78.3374C27.691 78.3479 28.7387 78.4107 30.0065 78.4736C33.8411 78.6622 38.5977 79.0708 42.2123 79.5213C43.04 79.6261 43.7629 79.6785 43.8048 79.6366L28.173 35.2555L28.173 35.266L26.7271 31.1799C25.3127 27.1881 24.3698 24.5165 18.6807 8.44456C17.151 4.11751 15.8519 0.460992 15.7995 0.293358L15.6947 0H7.84736L0 0.0104778Z" fill="#E50914"/>
</g>
<defs>
<radialGradient id="paint0_radial_1801_10915" cx="0" cy="0" r="1" gradientUnits="userSpaceOnUse" gradientTransform="translate(21.2062 39.3639) rotate(-19.0951) scale(2.89198 105.911)">
<stop/>
<stop offset="1" stop-opacity="0"/>
</radialGradient>
<clipPath id="clip0_1801_10915">
<rect width="43.8818" height="79.6516" fill="white"/>
</clipPath>
</defs>
</svg>
