<svg width="80" height="23" viewBox="0 0 80 23" fill="none" xmlns="http://www.w3.org/2000/svg">
<g clip-path="url(#clip0_1801_10821)">
<g clip-path="url(#clip1_1801_10821)">
<path d="M7.66911 11.5857H10.5204V16.8417C10.5204 19.7446 8.16723 22.0978 5.26438 22.0978C2.36154 22.0978 -0.000244141 19.7532 -0.000244141 16.8417C-0.000244141 13.9303 2.35295 11.5857 5.25579 11.5857H7.66911Z" fill="#F39940"/>
<path d="M10.5205 8.80313V10.5208H7.35146C5.59944 10.5208 4.18237 9.10372 4.18237 7.3517C4.18237 5.59969 5.59944 4.18262 7.35146 4.18262C9.10347 4.18262 10.5205 5.59969 10.5205 7.3517V8.80313Z" fill="#047AB2"/>
<path d="M14.428 10.5207H11.5767V5.26463C11.5852 2.3532 13.9384 0 16.8413 0C19.7441 0 22.0973 2.3532 22.0973 5.26463C22.0973 8.17607 19.7441 10.5207 16.8413 10.5207H14.428Z" fill="#F39940"/>
<path d="M11.5857 12.4961C11.5857 12.0237 11.9722 11.6372 12.4445 11.6372C12.9169 11.6372 13.3034 12.0237 13.3034 12.4961V12.5648C13.6984 12.0581 14.2051 11.5857 15.0811 11.5857C16.3866 11.5857 17.1423 12.4445 17.1423 13.8444V16.9791C17.1423 17.4515 16.7558 17.838 16.2835 17.838C15.8111 17.838 15.4247 17.4515 15.4247 16.9791V14.3855C15.4247 13.5696 15.0382 13.1488 14.3855 13.1488C13.7328 13.1488 13.3119 13.5696 13.3119 14.3855V16.9791C13.3119 17.4515 12.9255 17.838 12.4531 17.838C11.9808 17.838 11.5943 17.4515 11.5943 16.9791V12.4961H11.5857Z" fill="#047AB2"/>
<path d="M21.1271 17.9067C19.3064 17.9067 17.958 16.627 17.958 14.772V14.7462C17.958 13.0114 19.1947 11.5857 20.9639 11.5857C22.9908 11.5857 23.8839 13.2518 23.8839 14.5057C23.8839 15.0038 23.5318 15.3302 23.0766 15.3302H19.6671C19.8388 16.1117 20.3799 16.524 21.1529 16.524C21.6252 16.524 22.0203 16.378 22.3724 16.1117C22.4926 16.0173 22.6129 15.9743 22.7932 15.9743C23.1797 15.9743 23.4631 16.2663 23.4631 16.6528C23.4631 16.8761 23.36 17.0479 23.2398 17.1595C22.7073 17.6147 22.0203 17.8981 21.1357 17.8981M22.2436 14.2481C22.1405 13.4751 21.6853 12.9598 20.9639 12.9598C20.2425 12.9598 19.7873 13.4665 19.6499 14.2481H22.2436Z" fill="#047AB2"/>
<path d="M24.3818 16.5239L25.9363 14.686L24.5192 13.0542C24.3217 12.8309 24.2358 12.6248 24.2358 12.3929C24.2358 11.9034 24.5965 11.6028 25.026 11.6028C25.3695 11.6028 25.6014 11.7574 25.8333 12.0408L26.9497 13.5352L28.092 12.0408C28.2981 11.7917 28.53 11.6028 28.8392 11.6028C29.2943 11.6028 29.6465 11.9206 29.6465 12.35C29.6465 12.5904 29.5434 12.7708 29.406 12.934L27.9374 14.6602L29.4575 16.4036C29.655 16.6355 29.7409 16.8331 29.7409 17.0649C29.7409 17.5545 29.3802 17.8551 28.9508 17.8551C28.6073 17.8551 28.3754 17.6919 28.1435 17.4085L26.9154 15.8025L25.6958 17.4085C25.4897 17.6575 25.2492 17.8551 24.9487 17.8551C24.4935 17.8551 24.1414 17.5373 24.1414 17.1079C24.1414 16.8674 24.2358 16.6871 24.3818 16.5239Z" fill="#047AB2"/>
<path d="M36.1822 12.6421H35.3577V14.4885H36.1822C36.4656 14.4885 36.7147 14.4542 36.9036 14.3941C37.084 14.3339 37.2386 14.2309 37.3416 14.1021C37.4447 13.9646 37.4962 13.7843 37.4962 13.561C37.4962 13.2948 37.4189 13.0801 37.2643 12.9169C37.084 12.7365 36.7318 12.6506 36.1908 12.6506M36.4828 15.4075H35.3663V17.1166C35.3663 17.357 35.3062 17.5374 35.1945 17.6662C35.0743 17.8036 34.9369 17.8552 34.7565 17.8552C34.5762 17.8552 34.4216 17.795 34.31 17.6748C34.1983 17.546 34.1382 17.3656 34.1382 17.1251V12.4789C34.1382 12.2126 34.1983 12.0151 34.3271 11.9035C34.456 11.7918 34.6449 11.7317 34.9111 11.7317H36.4742C36.938 11.7317 37.2901 11.766 37.5391 11.8433C37.7796 11.912 38.0029 12.0237 38.1833 12.1783C38.355 12.3415 38.4925 12.5304 38.5869 12.7623C38.69 12.9942 38.7329 13.2604 38.7329 13.5438C38.7329 14.1536 38.5526 14.6174 38.1661 14.9437C37.7882 15.2529 37.2214 15.4161 36.4742 15.4161" fill="#047AB2"/>
<path d="M71.0591 12.3673V16.7473H73.5325C73.73 16.7473 73.876 16.7989 73.9877 16.8933C74.0993 16.9878 74.1509 17.1166 74.1509 17.254C74.1509 17.3915 74.0993 17.5203 73.9877 17.6148C73.8846 17.7006 73.7386 17.7522 73.5325 17.7522H70.5867C70.3205 17.7522 70.1315 17.692 70.0113 17.5718C69.8911 17.4516 69.8309 17.2626 69.8309 16.9964V12.3587C69.8309 12.1182 69.8911 11.9293 70.0027 11.8005C70.1144 11.6716 70.2518 11.6201 70.4407 11.6201C70.6297 11.6201 70.7671 11.6802 70.8873 11.8005C70.999 11.9207 71.0591 12.1011 71.0591 12.3587M67.5808 14.7119C67.5808 14.2739 67.5121 13.8874 67.3747 13.5697C67.2287 13.2433 67.0312 12.9942 66.7649 12.8311C66.5073 12.6679 66.1981 12.5906 65.8546 12.5906C65.6141 12.5906 65.3822 12.6335 65.1847 12.728C64.9786 12.8225 64.7982 12.9513 64.6436 13.1317C64.4976 13.312 64.386 13.5267 64.2915 13.8015C64.2056 14.0678 64.1627 14.377 64.1627 14.7205C64.1627 15.064 64.2056 15.3646 64.2915 15.648C64.386 15.9229 64.4976 16.1633 64.6608 16.3351C64.824 16.5155 64.9957 16.6529 65.2019 16.7473C65.408 16.8418 65.6313 16.8847 65.8717 16.8847C66.1809 16.8847 66.4729 16.8075 66.7306 16.6529C66.9882 16.4983 67.2029 16.2578 67.3575 15.9314C67.5121 15.6051 67.5808 15.21 67.5808 14.7291M65.846 11.6373C66.4643 11.6373 67.0054 11.7661 67.452 12.0152C67.8986 12.2642 68.2421 12.6249 68.474 13.0887C68.6973 13.5611 68.8175 14.1021 68.8175 14.7377C68.8175 15.2014 68.7574 15.6309 68.6286 16.0087C68.4998 16.3866 68.3108 16.713 68.0532 16.9964C67.8041 17.2798 67.4949 17.4945 67.1256 17.6405C66.7563 17.7865 66.3355 17.8638 65.8632 17.8638C65.3908 17.8638 64.97 17.7865 64.6007 17.6405C64.2228 17.4859 63.9222 17.2712 63.6645 16.9964C63.4155 16.7302 63.2265 16.3866 63.0977 16.0002C62.9689 15.6137 62.9002 15.1929 62.9002 14.7377C62.9002 14.2825 62.9689 13.8531 63.1063 13.4666C63.2437 13.0801 63.4241 12.7538 63.6817 12.4704C63.9308 12.2041 64.2486 11.998 64.6093 11.852C64.97 11.6974 65.3736 11.6373 65.8374 11.6373M58.3484 12.6507V14.2052H59.4649C59.7655 14.2052 60.0059 14.1708 60.1691 14.1193C60.3409 14.0592 60.4611 13.9475 60.547 13.793C60.6157 13.6727 60.6501 13.5525 60.6501 13.4065C60.6501 13.1059 60.5384 12.8998 60.3323 12.7967C60.1176 12.6937 59.7826 12.6421 59.3446 12.6421H58.3484V12.6507ZM59.6195 15.0812H58.3484V16.8418H59.6624C60.4869 16.8418 60.8991 16.5498 60.8991 15.9486C60.8991 15.648 60.7875 15.4247 60.5813 15.2873C60.3752 15.1499 60.0489 15.0898 59.6195 15.0898M59.7139 17.7608H57.8674C57.6012 17.7608 57.4123 17.7006 57.292 17.5804C57.1804 17.4602 57.1203 17.2712 57.1203 17.005V12.4789C57.1203 12.2127 57.1804 12.0238 57.3006 11.9035C57.4209 11.7833 57.6012 11.7232 57.8674 11.7232H59.817C60.1004 11.7232 60.358 11.7404 60.5642 11.7747C60.7703 11.8176 60.9678 11.8864 61.131 11.9808C61.277 12.0667 61.3972 12.1784 61.5089 12.2986C61.6205 12.436 61.6978 12.5734 61.7579 12.728C61.8181 12.8912 61.8438 13.0544 61.8438 13.2347C61.8438 13.8359 61.5518 14.2739 60.9421 14.5573C61.7322 14.8064 62.1272 15.2959 62.1272 16.0259C62.1272 16.3609 62.0414 16.6615 61.8696 16.9363C61.6978 17.2025 61.4659 17.4086 61.1739 17.5375C60.985 17.6148 60.7789 17.6749 60.547 17.7006C60.3151 17.735 60.0317 17.7522 59.7139 17.7522M52.5255 15.399H54.3291L53.4187 12.917L52.5255 15.399ZM54.9388 17.0737L54.6554 16.3179H52.2078L51.9243 17.0909C51.8127 17.3829 51.7182 17.5976 51.6409 17.7006C51.555 17.8123 51.4348 17.8638 51.2459 17.8638C51.0913 17.8638 50.9625 17.8037 50.8422 17.692C50.722 17.5804 50.6619 17.4516 50.6619 17.3142C50.6619 17.2283 50.679 17.1424 50.7048 17.0565C50.7306 16.9706 50.7821 16.8504 50.8422 16.6958L52.3795 12.7881C52.4225 12.6765 52.4826 12.5477 52.5427 12.3845C52.6028 12.2213 52.6715 12.1011 52.7402 11.9894C52.8175 11.8864 52.912 11.8005 53.0151 11.7404C53.1353 11.6802 53.2641 11.6459 53.4359 11.6459C53.6077 11.6459 53.7451 11.6802 53.8653 11.7404C53.9769 11.8091 54.0628 11.8949 54.1315 11.9894C54.2088 12.0925 54.2689 12.1955 54.3119 12.3158C54.3634 12.436 54.4235 12.582 54.4922 12.7795L56.0639 16.67C56.1927 16.962 56.2443 17.1853 56.2443 17.3142C56.2443 17.443 56.1841 17.5718 56.0725 17.692C55.9608 17.8123 55.8234 17.8724 55.6517 17.8724C55.5572 17.8724 55.4713 17.8552 55.4026 17.8209C55.3339 17.7865 55.2738 17.735 55.2308 17.6749C55.1879 17.6148 55.1364 17.5203 55.0848 17.4086C55.0247 17.2884 54.9818 17.1853 54.9388 17.0909M47.3725 12.6679H46.2475V14.3254H47.3382C47.6302 14.3254 47.8793 14.2997 48.0768 14.2481C48.2829 14.1966 48.4289 14.1107 48.532 13.9905C48.6436 13.8703 48.6951 13.7071 48.6951 13.4838C48.6951 13.312 48.6522 13.1746 48.5663 13.0458C48.4804 12.9084 48.3602 12.8139 48.2142 12.7624C48.0682 12.6937 47.7934 12.6679 47.3725 12.6679ZM46.6769 15.2014H46.2475V17.1338C46.2475 17.3829 46.1874 17.5718 46.0757 17.692C45.9641 17.8209 45.8181 17.881 45.6377 17.881C45.4402 17.881 45.2942 17.8209 45.1825 17.6835C45.0709 17.5546 45.0193 17.3829 45.0193 17.1338V12.4961C45.0193 12.2385 45.0795 12.0409 45.1997 11.9207C45.3199 11.8005 45.5089 11.7404 45.7751 11.7404H47.759C48.0253 11.7404 48.2657 11.7404 48.4547 11.7747C48.6522 11.8005 48.824 11.8434 48.9871 11.9207C49.1675 11.998 49.3393 12.1097 49.4853 12.2557C49.6399 12.4102 49.7429 12.582 49.8202 12.7795C49.8975 12.9771 49.9319 13.1832 49.9319 13.4065C49.9319 13.8531 49.803 14.2138 49.554 14.48C49.3049 14.7463 48.9184 14.9352 48.4031 15.0554C48.6264 15.1671 48.824 15.3389 49.0301 15.5621C49.2276 15.794 49.3994 16.0259 49.554 16.275C49.7172 16.5326 49.8288 16.7645 49.9147 16.962C50.0092 17.1596 50.0521 17.3056 50.0521 17.3829C50.0521 17.4602 50.0263 17.546 49.9748 17.6148C49.9233 17.692 49.8546 17.7608 49.7687 17.8037C49.6828 17.8466 49.5883 17.8724 49.4681 17.8724C49.3307 17.8724 49.219 17.8381 49.1246 17.7779C49.0301 17.7092 48.9442 17.6233 48.8841 17.5289C48.8154 17.4344 48.7295 17.2884 48.6178 17.0995L48.1283 16.2836C47.948 15.9916 47.7934 15.7597 47.656 15.6051C47.51 15.4505 47.3811 15.3474 47.2351 15.2873C47.0891 15.2272 46.9174 15.2014 46.6941 15.2014M40.4418 15.4247H42.2453L41.335 12.9427L40.4418 15.4247ZM42.8551 17.0995L42.5717 16.3437H40.124L39.8406 17.1166C39.729 17.4086 39.6345 17.6233 39.5572 17.7264C39.4713 17.838 39.3511 17.8896 39.1621 17.8896C39.0075 17.8896 38.8787 17.8295 38.7585 17.7178C38.6382 17.6062 38.5781 17.4773 38.5781 17.3399C38.5781 17.254 38.5953 17.1682 38.6211 17.0823C38.6468 16.9964 38.6984 16.8762 38.7585 16.7216L40.2958 12.8139C40.3387 12.7022 40.3988 12.5734 40.459 12.4102C40.5191 12.2471 40.5878 12.1268 40.6565 12.0152C40.7338 11.9121 40.8283 11.8262 40.9313 11.7661C41.0516 11.706 41.1804 11.6716 41.3521 11.6716C41.5239 11.6716 41.6613 11.706 41.7816 11.7661C41.8932 11.8348 41.9791 11.9207 42.0478 12.0152C42.1251 12.1182 42.1852 12.2213 42.2282 12.3415C42.2797 12.4618 42.3398 12.6078 42.4085 12.8053L43.9802 16.6958C44.109 16.9878 44.1605 17.2111 44.1605 17.3399C44.1605 17.4688 44.1004 17.5976 43.9802 17.7178C43.8685 17.838 43.7311 17.8982 43.5593 17.8982C43.4649 17.8982 43.379 17.881 43.3189 17.8466C43.2502 17.8123 43.19 17.7608 43.1385 17.7006C43.0956 17.6405 43.044 17.546 42.9925 17.4344C42.9324 17.3142 42.8895 17.2111 42.8465 17.1166" fill="#047AB2"/>
<path d="M76.2809 15.3903H78.0844L77.1741 12.9083L76.2809 15.3903ZM78.6942 17.065L78.4108 16.3092H75.9631L75.6797 17.0822C75.5681 17.3742 75.4736 17.5889 75.3963 17.692C75.3104 17.8036 75.1902 17.8551 75.0012 17.8551C74.8467 17.8551 74.7178 17.795 74.5976 17.6834C74.4774 17.5717 74.4172 17.4429 74.4172 17.3055C74.4172 17.2196 74.4344 17.1337 74.4602 17.0478C74.4859 16.962 74.5375 16.8417 74.5976 16.6871L76.1349 12.7795C76.1778 12.6678 76.238 12.539 76.2981 12.3758C76.3582 12.2126 76.4269 12.0924 76.4956 11.9807C76.5729 11.8777 76.6674 11.7918 76.7704 11.7317C76.8907 11.6716 77.0195 11.6372 77.1913 11.6372C77.363 11.6372 77.5004 11.6716 77.6207 11.7317C77.7323 11.8004 77.8182 11.8863 77.8869 11.9807C77.9642 12.0838 78.0243 12.1869 78.0673 12.3071C78.1188 12.4273 78.1789 12.5733 78.2476 12.7709L79.8193 16.6614C79.9481 16.9534 79.9996 17.1767 79.9996 17.3055C79.9996 17.4343 79.9395 17.5631 79.8193 17.6834C79.7076 17.8036 79.5702 17.8637 79.3984 17.8637C79.304 17.8637 79.2181 17.8466 79.158 17.8122C79.0893 17.7778 79.0292 17.7263 78.9776 17.6662C78.9347 17.6061 78.8832 17.5116 78.8316 17.4C78.7715 17.2797 78.7286 17.1767 78.6856 17.0822" fill="#047AB2"/>
<path d="M12.9682 19.9506H12.5216V21.402C12.5216 21.4879 12.5045 21.548 12.4701 21.591C12.4358 21.6339 12.3842 21.6511 12.3241 21.6511C12.264 21.6511 12.2125 21.6339 12.1781 21.591C12.1438 21.548 12.118 21.4879 12.118 21.402V19.9506H11.68C11.6113 19.9506 11.5598 19.9334 11.5254 19.9077C11.4911 19.8733 11.4739 19.8304 11.4739 19.7874C11.4739 19.7445 11.4911 19.693 11.5254 19.6672C11.5598 19.6329 11.6113 19.6243 11.68 19.6243H12.9682C13.0369 19.6243 13.0885 19.6414 13.1228 19.6672C13.1572 19.7016 13.1744 19.7359 13.1744 19.7874C13.1744 19.839 13.1572 19.8819 13.1228 19.9077C13.0885 19.9334 13.0369 19.9506 12.9682 19.9506Z" fill="#047AB2"/>
<path d="M14.5138 19.8475L14.969 21.1873L15.4242 19.8389C15.4499 19.7702 15.4671 19.7187 15.4757 19.6929C15.4843 19.6672 15.51 19.6414 15.5358 19.6157C15.5616 19.5899 15.6045 19.5813 15.6475 19.5813C15.6818 19.5813 15.7162 19.5813 15.7419 19.6071C15.7763 19.6242 15.7935 19.65 15.8106 19.6758C15.8278 19.7015 15.8364 19.7359 15.8364 19.7617C15.8364 19.7788 15.8364 19.8046 15.8364 19.8304C15.8364 19.8561 15.8278 19.8733 15.8192 19.8991C15.8106 19.9248 15.802 19.9506 15.7935 19.9678L15.3125 21.2732C15.2953 21.3247 15.2782 21.3677 15.261 21.4192C15.2438 21.4621 15.2266 21.5051 15.2009 21.5394C15.1751 21.5738 15.1493 21.5996 15.1064 21.6253C15.072 21.6511 15.0205 21.6597 14.969 21.6597C14.9175 21.6597 14.8659 21.6511 14.8316 21.6253C14.7972 21.5996 14.7629 21.5738 14.7457 21.5394C14.7199 21.5051 14.7027 21.4621 14.6856 21.4192C14.6684 21.3763 14.6512 21.3333 14.634 21.2818L14.1617 19.985C14.1617 19.985 14.1445 19.9334 14.1359 19.9162C14.1359 19.8905 14.1187 19.8733 14.1102 19.8475C14.1102 19.8218 14.1016 19.796 14.1016 19.7788C14.1016 19.7273 14.1187 19.6929 14.1617 19.65C14.196 19.6157 14.2476 19.5899 14.2991 19.5899C14.3678 19.5899 14.4193 19.6071 14.4451 19.6586C14.4709 19.7015 14.5052 19.7702 14.531 19.8561" fill="#047AB2"/>
<path d="M19.8645 21.0156C19.8645 21.1358 19.8302 21.2475 19.77 21.3419C19.7013 21.4364 19.6155 21.5137 19.4952 21.5652C19.375 21.6168 19.229 21.6425 19.0658 21.6425C18.8683 21.6425 18.7051 21.6082 18.5763 21.5309C18.4904 21.4794 18.4131 21.4021 18.353 21.3162C18.3014 21.2303 18.2671 21.1444 18.2671 21.0585C18.2671 21.007 18.2843 20.9641 18.3186 20.9297C18.353 20.8954 18.3959 20.8782 18.4474 20.8782C18.4904 20.8782 18.5247 20.8954 18.5591 20.9211C18.5934 20.9469 18.6192 20.9898 18.6364 21.0414C18.6622 21.1101 18.6879 21.1616 18.7223 21.2045C18.748 21.2475 18.791 21.2818 18.8425 21.3076C18.9026 21.3334 18.9713 21.3505 19.0572 21.3505C19.1774 21.3505 19.2719 21.3248 19.3492 21.2646C19.4265 21.2045 19.4609 21.1358 19.4609 21.0585C19.4609 20.9898 19.4437 20.9383 19.4007 20.8954C19.3578 20.8524 19.3063 20.8266 19.2462 20.8009C19.186 20.7751 19.0916 20.7579 18.9885 20.7322C18.8425 20.6978 18.7223 20.6549 18.6278 20.6119C18.5333 20.569 18.456 20.5089 18.3959 20.423C18.3358 20.3457 18.31 20.2512 18.31 20.131C18.31 20.0193 18.3444 19.9249 18.4045 19.839C18.4646 19.7531 18.5505 19.6844 18.6707 19.6415C18.7824 19.5899 18.9198 19.5728 19.0744 19.5728C19.1946 19.5728 19.3063 19.5899 19.3922 19.6157C19.478 19.6415 19.5553 19.6844 19.6155 19.7359C19.6756 19.7875 19.7185 19.839 19.7443 19.8905C19.77 19.9421 19.7872 20.0022 19.7872 20.0537C19.7872 20.1052 19.77 20.1482 19.7357 20.1825C19.7013 20.2255 19.6584 20.2426 19.6069 20.2426C19.5553 20.2426 19.521 20.2341 19.5038 20.2083C19.478 20.1825 19.4523 20.1482 19.4265 20.0966C19.3922 20.0193 19.3406 19.9592 19.2977 19.9163C19.2462 19.8733 19.1689 19.8476 19.0486 19.8476C18.9456 19.8476 18.8597 19.8733 18.7996 19.9163C18.7309 19.9592 18.7051 20.0193 18.7051 20.0795C18.7051 20.1224 18.7137 20.1568 18.7394 20.1825C18.7652 20.2083 18.791 20.2341 18.8253 20.2598C18.8683 20.277 18.9026 20.2942 18.9456 20.3113C18.9885 20.3199 19.0486 20.3371 19.1431 20.3629C19.2547 20.3886 19.3578 20.423 19.4523 20.4488C19.5382 20.4831 19.624 20.5261 19.6842 20.569C19.7529 20.6119 19.7958 20.6721 19.8387 20.7408C19.8731 20.8095 19.8903 20.8954 19.8903 20.9984" fill="#047AB2"/>
<path d="M21.4878 20.8352H22.089L21.7884 20.0108L21.4878 20.8352ZM22.2865 21.3935L22.192 21.1444H21.3761L21.2817 21.4021C21.2473 21.4965 21.213 21.5738 21.1872 21.5996C21.1614 21.6339 21.1185 21.6511 21.0584 21.6511C21.0068 21.6511 20.9639 21.6339 20.921 21.591C20.878 21.5567 20.8608 21.5137 20.8608 21.4622C20.8608 21.4364 20.8608 21.4021 20.878 21.3763C20.878 21.3505 20.9038 21.3076 20.921 21.2561L21.4363 19.9592C21.4363 19.9592 21.4706 19.8819 21.4878 19.8218C21.505 19.7703 21.5307 19.7273 21.5479 19.693C21.5737 19.6586 21.608 19.6329 21.6424 19.6071C21.6853 19.5899 21.7283 19.5728 21.7798 19.5728C21.8313 19.5728 21.8828 19.5813 21.9258 19.6071C21.9601 19.6329 21.9945 19.6586 22.0117 19.693C22.0374 19.7273 22.0546 19.7617 22.0718 19.8046C22.089 19.8476 22.1061 19.8905 22.1319 19.9592L22.6558 21.2475C22.6987 21.3419 22.7159 21.4192 22.7159 21.4622C22.7159 21.5051 22.6987 21.5481 22.6558 21.591C22.6214 21.6339 22.5699 21.6511 22.5184 21.6511C22.484 21.6511 22.4583 21.6511 22.4325 21.6339C22.4067 21.6254 22.3896 21.6082 22.3724 21.5824C22.3552 21.5652 22.338 21.5309 22.3208 21.4965C22.3037 21.4536 22.2865 21.4192 22.2779 21.3935" fill="#047AB2"/>
<path d="M24.8799 19.9506H24.4333V21.402C24.4333 21.4879 24.4161 21.548 24.3817 21.591C24.3474 21.6339 24.2959 21.6511 24.2357 21.6511C24.1756 21.6511 24.1241 21.6339 24.0897 21.591C24.0554 21.548 24.0296 21.4879 24.0296 21.402V19.9506H23.5916C23.5229 19.9506 23.4714 19.9334 23.437 19.9077C23.4027 19.8733 23.3855 19.8304 23.3855 19.7874C23.3855 19.7445 23.4027 19.693 23.437 19.6672C23.4714 19.6329 23.5229 19.6243 23.5916 19.6243H24.8799C24.9486 19.6243 25.0001 19.6414 25.0345 19.6672C25.0688 19.7016 25.086 19.7359 25.086 19.7874C25.086 19.839 25.0688 19.8819 25.0345 19.9077C25.0001 19.9334 24.9486 19.9506 24.8799 19.9506Z" fill="#047AB2"/>
<path d="M27.4478 19.9249H26.5289V20.4144H27.3705C27.4307 20.4144 27.4822 20.4316 27.508 20.4574C27.5423 20.4831 27.5509 20.5261 27.5509 20.569C27.5509 20.612 27.5337 20.6463 27.508 20.6807C27.4736 20.7064 27.4307 20.7236 27.3705 20.7236H26.5289V21.299H27.4736C27.5337 21.299 27.5853 21.3162 27.6196 21.342C27.654 21.3677 27.6711 21.4107 27.6711 21.4622C27.6711 21.5051 27.654 21.5481 27.6196 21.5739C27.5853 21.6082 27.5423 21.6168 27.4736 21.6168H26.3743C26.2884 21.6168 26.2197 21.5996 26.1854 21.5567C26.1424 21.5137 26.1252 21.4536 26.1252 21.3677V19.8648C26.1252 19.8047 26.1252 19.7617 26.151 19.7188C26.1682 19.6844 26.194 19.6587 26.2283 19.6415C26.2712 19.6243 26.3142 19.6157 26.3743 19.6157H27.4478C27.5165 19.6157 27.5595 19.6329 27.5938 19.6587C27.6282 19.693 27.6454 19.7274 27.6454 19.7703C27.6454 19.8133 27.6282 19.8562 27.5938 19.882C27.5595 19.9077 27.5165 19.9249 27.4478 19.9249Z" fill="#047AB2"/>
<path d="M29.1915 19.8218V21.2818H30.016C30.0761 21.2818 30.1276 21.299 30.162 21.3248C30.1963 21.3591 30.2135 21.3935 30.2135 21.445C30.2135 21.4965 30.1963 21.5309 30.162 21.5652C30.1276 21.591 30.0761 21.6082 30.016 21.6082H29.0369C28.951 21.6082 28.8823 21.591 28.848 21.5481C28.805 21.5051 28.7878 21.445 28.7878 21.3591V19.8218C28.7878 19.7445 28.805 19.6758 28.8394 19.6329C28.8737 19.5899 28.9253 19.5728 28.9854 19.5728C29.0455 19.5728 29.097 19.5899 29.1314 19.6329C29.1657 19.6758 29.1915 19.7359 29.1915 19.8218Z" fill="#047AB2"/>
<path d="M31.3042 21.4021V19.8218C31.3042 19.7359 31.3214 19.6758 31.3643 19.6329C31.4073 19.5899 31.4502 19.5728 31.5103 19.5728C31.5704 19.5728 31.622 19.5899 31.6563 19.6329C31.6907 19.6758 31.7078 19.7359 31.7078 19.8218V21.4021C31.7078 21.4794 31.6907 21.5481 31.6563 21.591C31.6134 21.6339 31.5704 21.6511 31.5103 21.6511C31.4502 21.6511 31.4073 21.6339 31.3643 21.591C31.33 21.5481 31.3042 21.4879 31.3042 21.4021Z" fill="#047AB2"/>
<path d="M34.2669 19.9506H33.8203V21.402C33.8203 21.4879 33.8031 21.548 33.7687 21.591C33.7344 21.6339 33.6829 21.6511 33.6227 21.6511C33.5626 21.6511 33.5111 21.6339 33.4767 21.591C33.4424 21.548 33.4166 21.4879 33.4166 21.402V19.9506H32.97C32.9013 19.9506 32.8498 19.9334 32.8154 19.9077C32.7811 19.8733 32.7639 19.8304 32.7639 19.7874C32.7639 19.7445 32.7811 19.693 32.8154 19.6672C32.8498 19.6329 32.9013 19.6243 32.97 19.6243H34.2583C34.327 19.6243 34.3785 19.6414 34.4129 19.6672C34.4472 19.7016 34.4644 19.7359 34.4644 19.7874C34.4644 19.839 34.4472 19.8819 34.4129 19.9077C34.3785 19.9334 34.327 19.9506 34.2583 19.9506" fill="#047AB2"/>
<path d="M38.2947 19.9163H38.0199V20.5261H38.2947C38.3892 20.5261 38.475 20.5175 38.5352 20.4917C38.5953 20.4746 38.6468 20.4402 38.6812 20.3973C38.7155 20.3543 38.7327 20.2942 38.7327 20.2169C38.7327 20.131 38.7069 20.0537 38.6554 20.0022C38.5953 19.9421 38.475 19.9163 38.2947 19.9163ZM38.3892 20.8353H38.0199V21.4021C38.0199 21.4794 38.0027 21.5395 37.9683 21.5824C37.9254 21.6254 37.8824 21.6511 37.8223 21.6511C37.7622 21.6511 37.7107 21.634 37.6763 21.591C37.642 21.5481 37.6162 21.488 37.6162 21.4107V19.8648C37.6162 19.7789 37.6334 19.7102 37.6763 19.6758C37.7193 19.6415 37.7794 19.6157 37.8739 19.6157H38.3977C38.5523 19.6157 38.6726 19.6243 38.7499 19.6501C38.8272 19.6758 38.9045 19.7102 38.9646 19.7617C39.0247 19.8133 39.0676 19.882 39.102 19.9507C39.1363 20.028 39.1535 20.1138 39.1535 20.2083C39.1535 20.4144 39.0934 20.569 38.9646 20.6721C38.8357 20.7751 38.6554 20.8267 38.4063 20.8267" fill="#047AB2"/>
<path d="M40.2959 21.4021V19.8218C40.2959 19.7359 40.3131 19.6758 40.356 19.6329C40.399 19.5899 40.4419 19.5728 40.502 19.5728C40.5621 19.5728 40.6137 19.5899 40.648 19.6329C40.6824 19.6758 40.6995 19.7359 40.6995 19.8218V21.4021C40.6995 21.4794 40.6824 21.5481 40.648 21.591C40.6051 21.6339 40.5621 21.6511 40.502 21.6511C40.4419 21.6511 40.399 21.6339 40.356 21.591C40.3217 21.5481 40.2959 21.4879 40.2959 21.4021Z" fill="#047AB2"/>
<path d="M42.3573 19.8218V21.2818H43.1817C43.2419 21.2818 43.2934 21.299 43.3363 21.3248C43.3707 21.3591 43.3879 21.3935 43.3879 21.445C43.3879 21.4965 43.3707 21.5309 43.3363 21.5652C43.302 21.591 43.2504 21.6082 43.1817 21.6082H42.2027C42.1168 21.6082 42.0481 21.591 42.0137 21.5481C41.9708 21.5051 41.9536 21.445 41.9536 21.3591V19.8218C41.9536 19.7445 41.9708 19.6758 42.0051 19.6329C42.0395 19.5899 42.091 19.5728 42.1511 19.5728C42.2113 19.5728 42.2628 19.5899 42.2971 19.6329C42.3315 19.6758 42.3573 19.7359 42.3573 19.8218Z" fill="#047AB2"/>
<path d="M44.4614 21.4021V19.8218C44.4614 19.7359 44.4786 19.6758 44.5215 19.6329C44.5559 19.5899 44.6074 19.5728 44.6675 19.5728C44.7277 19.5728 44.7792 19.5899 44.8135 19.6329C44.8479 19.6758 44.8651 19.7359 44.8651 19.8218V21.4021C44.8651 21.4794 44.8479 21.5481 44.8135 21.591C44.7706 21.6339 44.7277 21.6511 44.6675 21.6511C44.6074 21.6511 44.5645 21.6339 44.5215 21.591C44.4872 21.5481 44.4614 21.4879 44.4614 21.4021Z" fill="#047AB2"/>
<path d="M46.5311 19.8218V20.3972H47.4071V19.8218C47.4071 19.7445 47.4243 19.6758 47.4672 19.6329C47.5016 19.5899 47.5531 19.5728 47.6132 19.5728C47.6733 19.5728 47.7249 19.5899 47.7592 19.6329C47.7936 19.6758 47.8193 19.7359 47.8193 19.8218V21.4021C47.8193 21.4794 47.8022 21.5481 47.7592 21.591C47.7163 21.6339 47.6733 21.6511 47.6132 21.6511C47.5531 21.6511 47.5016 21.6339 47.4672 21.591C47.4329 21.5481 47.4071 21.4879 47.4071 21.4021V20.7322H46.5311V21.4021C46.5311 21.4794 46.5139 21.5481 46.471 21.591C46.428 21.6339 46.3851 21.6511 46.325 21.6511C46.2649 21.6511 46.2133 21.6339 46.179 21.591C46.1446 21.5481 46.1274 21.4879 46.1274 21.4021V19.8218C46.1274 19.7359 46.1446 19.6758 46.179 19.6329C46.2133 19.5899 46.2649 19.5728 46.325 19.5728C46.3851 19.5728 46.4366 19.5899 46.471 19.6329C46.5053 19.6758 46.5311 19.7359 46.5311 19.8218Z" fill="#047AB2"/>
<path d="M49.5283 20.8352H50.1295L49.8289 20.0108L49.5283 20.8352ZM50.327 21.3935L50.2326 21.1444H49.4167L49.3222 21.4021C49.2878 21.4965 49.2535 21.5738 49.2277 21.5996C49.202 21.6339 49.159 21.6511 49.0989 21.6511C49.0474 21.6511 49.0044 21.6339 48.9615 21.591C48.9185 21.5567 48.9014 21.5137 48.9014 21.4622C48.9014 21.4364 48.9014 21.4021 48.9185 21.3763C48.9185 21.3505 48.9443 21.3076 48.9615 21.2561L49.4768 19.9592C49.4768 19.9592 49.5111 19.8819 49.5283 19.8218C49.5455 19.7703 49.5713 19.7273 49.597 19.693C49.6228 19.6586 49.6571 19.6329 49.6915 19.6071C49.7344 19.5899 49.7774 19.5728 49.8289 19.5728C49.8804 19.5728 49.932 19.5813 49.9749 19.6071C50.0093 19.6329 50.0436 19.6586 50.0608 19.693C50.0866 19.7273 50.1037 19.7617 50.1209 19.8046C50.1381 19.8476 50.1553 19.8905 50.181 19.9592L50.7049 21.2475C50.7479 21.3419 50.765 21.4192 50.765 21.4622C50.765 21.5051 50.7479 21.5481 50.7049 21.591C50.6706 21.6339 50.619 21.6511 50.5675 21.6511C50.5331 21.6511 50.5074 21.6511 50.4816 21.6339C50.4558 21.6254 50.4387 21.6082 50.4215 21.5824C50.4043 21.5652 50.3871 21.5309 50.37 21.4965C50.3528 21.4536 50.3356 21.4192 50.327 21.3935Z" fill="#047AB2"/>
<path d="M52.3968 19.8219L53.1784 21.007V19.8133C53.1784 19.736 53.1956 19.6759 53.2299 19.6415C53.2643 19.5986 53.3072 19.5814 53.3673 19.5814C53.4274 19.5814 53.4704 19.5986 53.5047 19.6415C53.5391 19.6759 53.5563 19.736 53.5563 19.8133V21.3849C53.5563 21.5653 53.479 21.6512 53.3416 21.6512C53.3072 21.6512 53.2729 21.6512 53.2471 21.634C53.2213 21.6254 53.187 21.6082 53.1698 21.591C53.144 21.5653 53.1183 21.5395 53.1011 21.5052C53.0839 21.4794 53.0581 21.445 53.0324 21.4107L52.268 20.2427V21.4107C52.268 21.488 52.2508 21.5481 52.2165 21.5825C52.1821 21.6254 52.1392 21.6426 52.0791 21.6426C52.019 21.6426 51.976 21.6254 51.9417 21.5825C51.9073 21.5481 51.8901 21.488 51.8901 21.4107V19.8648C51.8901 19.7961 51.8987 19.7446 51.9159 19.7102C51.9331 19.6673 51.9588 19.6329 52.0018 19.6071C52.0447 19.5814 52.0877 19.5642 52.1306 19.5642C52.165 19.5642 52.1993 19.5642 52.2251 19.5814C52.2508 19.5986 52.2766 19.6072 52.2938 19.6329C52.311 19.6587 52.3367 19.6759 52.3539 19.7102C52.3711 19.7446 52.3968 19.7789 52.414 19.8133" fill="#047AB2"/>
<path d="M58.1941 19.9506H57.7561V21.402C57.7561 21.4879 57.7389 21.548 57.696 21.591C57.6616 21.6339 57.6101 21.6511 57.55 21.6511C57.4898 21.6511 57.4383 21.6339 57.4039 21.591C57.3696 21.548 57.3438 21.4879 57.3438 21.402V19.9506H56.9058C56.8371 19.9506 56.7856 19.9334 56.7512 19.9077C56.7169 19.8733 56.6997 19.8304 56.6997 19.7874C56.6997 19.7445 56.7169 19.693 56.7512 19.6672C56.7856 19.6329 56.8371 19.6243 56.9058 19.6243H58.1941C58.2628 19.6243 58.3143 19.6414 58.3487 19.6672C58.383 19.7016 58.4002 19.7359 58.4002 19.7874C58.4002 19.839 58.383 19.8819 58.3487 19.9077C58.3143 19.9334 58.2628 19.9506 58.1941 19.9506Z" fill="#047AB2"/>
<path d="M60.7618 19.9249H59.8429V20.4144H60.6845C60.7446 20.4144 60.7962 20.4316 60.8219 20.4574C60.8563 20.4831 60.8649 20.5261 60.8649 20.569C60.8649 20.612 60.8477 20.6463 60.8219 20.6807C60.7876 20.7064 60.7446 20.7236 60.6845 20.7236H59.8429V21.299H60.7876C60.8477 21.299 60.8992 21.3162 60.9336 21.342C60.9679 21.3677 60.9851 21.4107 60.9851 21.4622C60.9851 21.5051 60.9679 21.5481 60.9336 21.5739C60.8992 21.6082 60.8563 21.6168 60.7876 21.6168H59.6883C59.6024 21.6168 59.5337 21.5996 59.4993 21.5567C59.4564 21.5137 59.4392 21.4536 59.4392 21.3677V19.8648C59.4392 19.8047 59.4392 19.7617 59.465 19.7188C59.4821 19.6844 59.5079 19.6587 59.5509 19.6415C59.5852 19.6243 59.6367 19.6157 59.6969 19.6157H60.7704C60.8391 19.6157 60.882 19.6329 60.9164 19.6587C60.9508 19.693 60.9679 19.7274 60.9679 19.7703C60.9679 19.8133 60.9508 19.8562 60.9164 19.882C60.882 19.9077 60.8391 19.9249 60.7704 19.9249" fill="#047AB2"/>
<path d="M62.8834 19.9164H62.5055V20.4661H62.8662C62.9607 20.4661 63.0466 20.4661 63.1153 20.4403C63.184 20.4231 63.2355 20.3973 63.2699 20.3544C63.3043 20.3115 63.3214 20.2599 63.3214 20.1826C63.3214 20.1225 63.3043 20.0796 63.2785 20.0366C63.2527 19.9937 63.2098 19.9593 63.1583 19.9422C63.1067 19.9164 63.0208 19.9078 62.8748 19.9078M62.643 20.7495H62.497V21.3936C62.497 21.4795 62.4798 21.5396 62.4368 21.5739C62.4025 21.6169 62.351 21.6341 62.2908 21.6341C62.2307 21.6341 62.1792 21.6169 62.1362 21.5654C62.1019 21.5224 62.0847 21.4623 62.0847 21.385V19.8477C62.0847 19.7618 62.1019 19.6931 62.1448 19.6588C62.1878 19.6244 62.2479 19.5986 62.3338 19.5986H62.9951C63.081 19.5986 63.1668 19.5986 63.227 19.6072C63.2871 19.6158 63.3472 19.633 63.3987 19.6502C63.4588 19.6759 63.519 19.7189 63.5619 19.7618C63.6134 19.8133 63.6478 19.8735 63.6736 19.9336C63.6993 20.0023 63.7079 20.071 63.7079 20.1397C63.7079 20.2857 63.665 20.4059 63.5791 20.5004C63.4932 20.5863 63.3644 20.655 63.1926 20.6893C63.2613 20.7237 63.33 20.7838 63.3987 20.8611C63.4674 20.9384 63.519 21.0157 63.5705 21.1016C63.622 21.1875 63.665 21.2648 63.6907 21.3335C63.7251 21.4022 63.7337 21.4451 63.7337 21.4709C63.7337 21.4966 63.7251 21.5224 63.7079 21.5482C63.6907 21.5739 63.665 21.5911 63.6392 21.6083C63.6134 21.6255 63.5791 21.6341 63.5361 21.6341C63.4932 21.6341 63.4503 21.6255 63.4245 21.5997C63.3901 21.5739 63.3644 21.5482 63.3472 21.5138C63.3214 21.4795 63.2957 21.4365 63.2613 21.3678L63.0981 21.093C63.038 20.9985 62.9865 20.9212 62.9435 20.8697C62.9006 20.8182 62.8491 20.7838 62.8061 20.7666C62.7546 20.7495 62.7031 20.7409 62.6258 20.7409" fill="#047AB2"/>
<path d="M65.3226 19.9164V20.4317H65.6918C65.7949 20.4317 65.8722 20.4231 65.9237 20.4059C65.9839 20.3887 66.0182 20.3458 66.0526 20.2942C66.0783 20.2513 66.0869 20.2169 66.0869 20.1654C66.0869 20.0624 66.0526 19.9937 65.9839 19.9679C65.9151 19.9335 65.8035 19.9164 65.6575 19.9164H65.3226ZM65.7434 20.7237H65.3226V21.3077H65.7606C66.0354 21.3077 66.1728 21.2132 66.1728 21.0071C66.1728 20.904 66.1384 20.8353 66.0697 20.7838C66.001 20.7408 65.898 20.7151 65.752 20.7151M65.7863 21.6083H65.1766C65.0907 21.6083 65.022 21.5911 64.9876 21.5481C64.9533 21.5052 64.9275 21.4451 64.9275 21.3592V19.8562C64.9275 19.7704 64.9447 19.7016 64.9876 19.6673C65.0305 19.6329 65.0907 19.6072 65.1766 19.6072H65.8293C65.9237 19.6072 66.0096 19.6072 66.0783 19.6244C66.147 19.6415 66.2157 19.6587 66.2673 19.6931C66.3188 19.7188 66.3617 19.7618 66.3961 19.7961C66.4304 19.8391 66.4648 19.8906 66.482 19.9421C66.4992 19.9937 66.5077 20.0538 66.5077 20.1139C66.5077 20.3114 66.4133 20.4574 66.2071 20.5519C66.4734 20.6378 66.6022 20.801 66.6022 21.0414C66.6022 21.1531 66.5764 21.2561 66.5163 21.342C66.4562 21.4279 66.3789 21.4966 66.2844 21.5395C66.2243 21.5653 66.1556 21.5825 66.0783 21.5911C66.001 21.5997 65.9066 21.6083 65.8035 21.6083" fill="#047AB2"/>
<path d="M68.1047 20.8352H68.7059L68.4053 20.0108L68.1047 20.8352ZM68.9034 21.3935L68.809 21.1444H67.9931L67.8986 21.4021C67.8643 21.4965 67.8299 21.5738 67.8041 21.5996C67.7784 21.6339 67.7354 21.6511 67.6753 21.6511C67.6238 21.6511 67.5808 21.6339 67.5379 21.591C67.495 21.5567 67.4778 21.5137 67.4778 21.4622C67.4778 21.4364 67.4778 21.4021 67.495 21.3763C67.495 21.3505 67.5207 21.3076 67.5379 21.2561L68.0532 19.9592C68.0532 19.9592 68.0876 19.8819 68.1047 19.8218C68.1219 19.7703 68.1477 19.7273 68.1648 19.693C68.1906 19.6586 68.225 19.6329 68.2593 19.6071C68.3023 19.5899 68.3452 19.5728 68.3967 19.5728C68.4483 19.5728 68.4998 19.5813 68.5427 19.6071C68.5771 19.6329 68.6114 19.6586 68.6286 19.693C68.6544 19.7273 68.6716 19.7617 68.6887 19.8046C68.7059 19.8476 68.7231 19.8905 68.7489 19.9592L69.2727 21.2475C69.3157 21.3419 69.3329 21.4192 69.3329 21.4622C69.3329 21.5051 69.3157 21.5481 69.2727 21.591C69.2384 21.6339 69.1869 21.6511 69.1353 21.6511C69.101 21.6511 69.0752 21.6511 69.058 21.6339C69.0323 21.6254 69.0151 21.6082 68.9979 21.5824C68.9807 21.5652 68.9636 21.5309 68.9464 21.4965C68.9292 21.4536 68.912 21.4192 68.9034 21.3935Z" fill="#047AB2"/>
<path d="M70.4583 21.4021V19.8218C70.4583 19.7359 70.4754 19.6758 70.5184 19.6329C70.5527 19.5899 70.6043 19.5728 70.6644 19.5728C70.7245 19.5728 70.776 19.5899 70.8104 19.6329C70.8447 19.6758 70.8619 19.7359 70.8619 19.8218V21.4021C70.8619 21.4794 70.8447 21.5481 70.8104 21.591C70.7674 21.6339 70.7245 21.6511 70.6644 21.6511C70.6043 21.6511 70.5613 21.6339 70.5184 21.591C70.484 21.5481 70.4583 21.4879 70.4583 21.4021Z" fill="#047AB2"/>
<path d="M72.5277 19.8218V20.526L73.3264 19.6929C73.3264 19.6929 73.3951 19.6242 73.4209 19.6071C73.4466 19.5899 73.481 19.5813 73.5239 19.5813C73.584 19.5813 73.627 19.5985 73.6699 19.6328C73.7043 19.6672 73.7214 19.7101 73.7214 19.7617C73.7214 19.8218 73.6871 19.8819 73.627 19.942L73.1374 20.4058L73.7043 21.2217C73.7472 21.2818 73.773 21.3247 73.7987 21.3677C73.8159 21.4106 73.8331 21.4536 73.8331 21.4879C73.8331 21.5308 73.8159 21.5738 73.7816 21.5996C73.7472 21.6339 73.6957 21.6511 73.6356 21.6511C73.5754 21.6511 73.5325 21.6425 73.4981 21.6167C73.4638 21.591 73.4294 21.5566 73.4123 21.5223C73.3865 21.4793 73.3607 21.445 73.3436 21.4106L72.8626 20.672L72.5277 20.9898V21.402C72.5277 21.4879 72.5105 21.548 72.4676 21.591C72.4246 21.6339 72.3817 21.6511 72.3216 21.6511C72.2872 21.6511 72.2528 21.6425 72.2185 21.6253C72.1841 21.6081 72.1584 21.5824 72.1498 21.548C72.1326 21.5223 72.1326 21.4879 72.124 21.4621C72.124 21.4278 72.124 21.3848 72.124 21.3161V19.8304C72.124 19.7445 72.1412 19.6844 72.1756 19.6414C72.2099 19.5985 72.2614 19.5813 72.3216 19.5813C72.3817 19.5813 72.4332 19.5985 72.4676 19.6414C72.5019 19.6844 72.5277 19.7445 72.5277 19.8304" fill="#047AB2"/>
<path d="M75.671 21.3162L75.3446 20.0451V21.4278C75.3446 21.5051 75.3275 21.5652 75.2931 21.5996C75.2588 21.6425 75.2072 21.6597 75.1557 21.6597C75.1042 21.6597 75.0612 21.6425 75.0269 21.5996C74.9925 21.5566 74.9753 21.5051 74.9753 21.4278V19.8476C74.9753 19.7617 75.0011 19.7016 75.044 19.6672C75.0956 19.6329 75.1557 19.6243 75.2244 19.6243H75.3532C75.4305 19.6243 75.482 19.6243 75.5164 19.6414C75.5508 19.6586 75.5765 19.6758 75.5937 19.7187C75.6109 19.7531 75.628 19.8132 75.6538 19.8905L75.9458 20.9898L76.2378 19.8905C76.2636 19.8132 76.2808 19.7531 76.2979 19.7187C76.3151 19.6844 76.3409 19.6586 76.3752 19.6414C76.4096 19.6243 76.4611 19.6243 76.5384 19.6243H76.6672C76.7445 19.6243 76.8046 19.6414 76.8476 19.6672C76.8905 19.7016 76.9163 19.7531 76.9163 19.8476V21.4278C76.9163 21.5051 76.8991 21.5652 76.8648 21.5996C76.8304 21.6425 76.7789 21.6597 76.7273 21.6597C76.6758 21.6597 76.6329 21.6425 76.5985 21.5996C76.5642 21.5652 76.547 21.5051 76.547 21.4278V20.0451L76.2292 21.3162C76.2121 21.3935 76.1949 21.4622 76.1777 21.4965C76.1605 21.5395 76.1434 21.5652 76.109 21.5996C76.0746 21.6253 76.0231 21.6425 75.963 21.6425C75.9115 21.6425 75.8771 21.6339 75.8428 21.6082C75.8084 21.5824 75.7826 21.5652 75.7655 21.5309C75.7483 21.4965 75.7311 21.4622 75.7225 21.4278C75.7139 21.3849 75.7053 21.3505 75.6882 21.3076" fill="#047AB2"/>
<path d="M78.1277 20.7837V19.8218C78.1277 19.7359 78.1449 19.6758 78.1878 19.6329C78.2222 19.5899 78.2737 19.5728 78.3338 19.5728C78.3939 19.5728 78.4454 19.5899 78.4798 19.6329C78.5142 19.6758 78.5313 19.7359 78.5313 19.8218V20.8095C78.5313 20.9211 78.5485 21.0156 78.5743 21.0929C78.6 21.1702 78.643 21.2303 78.7031 21.2732C78.7718 21.3162 78.8577 21.3334 78.9693 21.3334C79.1239 21.3334 79.2356 21.2904 79.3043 21.2045C79.373 21.1186 79.3988 20.9898 79.3988 20.8181V19.8218C79.3988 19.7359 79.4159 19.6758 79.4589 19.6329C79.4932 19.5899 79.5448 19.5728 79.6049 19.5728C79.665 19.5728 79.7165 19.5899 79.7509 19.6329C79.7852 19.6758 79.811 19.7359 79.811 19.8218V20.7837C79.811 20.9383 79.7938 21.0757 79.768 21.1788C79.7337 21.2818 79.6822 21.3763 79.5963 21.4536C79.5276 21.5223 79.4417 21.5652 79.3386 21.5996C79.2442 21.6339 79.1325 21.6425 79.0037 21.6425C78.8491 21.6425 78.7203 21.6254 78.6086 21.591C78.497 21.5567 78.4111 21.5051 78.3338 21.4364C78.2651 21.3677 78.2136 21.2818 78.1792 21.1702C78.1449 21.0585 78.1277 20.9297 78.1277 20.7837Z" fill="#047AB2"/>
<path d="M12.9682 19.9506H12.5302V21.402C12.5302 21.4879 12.5131 21.548 12.4701 21.591C12.4358 21.6339 12.3842 21.6511 12.3241 21.6511C12.264 21.6511 12.2125 21.6339 12.1781 21.591C12.1438 21.548 12.118 21.4879 12.118 21.402V19.9506H11.68C11.6113 19.9506 11.5598 19.9334 11.5254 19.9077C11.4911 19.8733 11.4739 19.8304 11.4739 19.7874C11.4739 19.7445 11.4911 19.693 11.5254 19.6672C11.5598 19.6329 11.6113 19.6243 11.68 19.6243H12.9682C13.0369 19.6243 13.0885 19.6414 13.1228 19.6672C13.1572 19.7016 13.1744 19.7359 13.1744 19.7874C13.1744 19.839 13.1572 19.8819 13.1228 19.9077C13.0885 19.9334 13.0369 19.9506 12.9682 19.9506Z" fill="#047AB2"/>
<path d="M14.5138 19.8475L14.969 21.1873L15.4242 19.8389C15.4499 19.7702 15.4671 19.7187 15.4757 19.6929C15.4843 19.6672 15.51 19.6414 15.5358 19.6157C15.5616 19.5899 15.6045 19.5813 15.6475 19.5813C15.6818 19.5813 15.7162 19.5813 15.7419 19.6071C15.7763 19.6242 15.7935 19.65 15.8106 19.6758C15.8278 19.7015 15.8364 19.7359 15.8364 19.7617C15.8364 19.7788 15.8364 19.8046 15.8364 19.8304C15.8364 19.8561 15.8278 19.8733 15.8192 19.8991C15.8106 19.9248 15.802 19.9506 15.7935 19.9678L15.3125 21.2732C15.2953 21.3247 15.2782 21.3677 15.261 21.4192C15.2438 21.4621 15.2266 21.5051 15.2009 21.5394C15.1751 21.5738 15.1493 21.5996 15.1064 21.6253C15.072 21.6511 15.0205 21.6597 14.969 21.6597C14.9175 21.6597 14.8659 21.6511 14.8316 21.6253C14.7972 21.5996 14.7629 21.5738 14.7457 21.5394C14.7199 21.5051 14.7027 21.4621 14.6856 21.4192C14.6684 21.3763 14.6512 21.3333 14.634 21.2818L14.1617 19.985C14.1617 19.985 14.1445 19.9334 14.1359 19.9162C14.1273 19.8991 14.1187 19.8733 14.1102 19.8475C14.1102 19.8218 14.1016 19.796 14.1016 19.7788C14.1016 19.7273 14.1187 19.6929 14.1617 19.65C14.196 19.6157 14.2476 19.5899 14.2991 19.5899C14.3678 19.5899 14.4193 19.6071 14.4451 19.6586C14.4709 19.7015 14.5052 19.7702 14.531 19.8561" fill="#047AB2"/>
<path d="M19.8645 21.0156C19.8645 21.1358 19.8302 21.2475 19.77 21.3419C19.7013 21.4364 19.6155 21.5137 19.4952 21.5652C19.375 21.6168 19.229 21.6425 19.0658 21.6425C18.8683 21.6425 18.7051 21.6082 18.5763 21.5309C18.4904 21.4794 18.4131 21.4021 18.353 21.3162C18.3014 21.2303 18.2671 21.1444 18.2671 21.0585C18.2671 21.007 18.2843 20.9641 18.3186 20.9297C18.353 20.8954 18.3959 20.8782 18.4474 20.8782C18.4904 20.8782 18.5247 20.8954 18.5591 20.9211C18.5934 20.9469 18.6192 20.9898 18.6364 21.0414C18.6622 21.1101 18.6879 21.1616 18.7223 21.2045C18.748 21.2475 18.791 21.2818 18.8425 21.3076C18.9026 21.3334 18.9713 21.3505 19.0572 21.3505C19.1774 21.3505 19.2719 21.3248 19.3492 21.2646C19.4265 21.2045 19.4609 21.1358 19.4609 21.0585C19.4609 20.9898 19.4437 20.9383 19.4007 20.8954C19.3578 20.8524 19.3063 20.8266 19.2462 20.8009C19.186 20.7751 19.0916 20.7579 18.9885 20.7322C18.8425 20.6978 18.7223 20.6549 18.6278 20.6119C18.5333 20.569 18.456 20.5089 18.3959 20.423C18.3358 20.3457 18.31 20.2512 18.31 20.131C18.31 20.0193 18.3444 19.9249 18.4045 19.839C18.4646 19.7531 18.5505 19.6844 18.6707 19.6415C18.7824 19.5899 18.9198 19.5728 19.0658 19.5728C19.186 19.5728 19.2977 19.5899 19.3836 19.6157C19.4695 19.6415 19.5467 19.6844 19.6069 19.7359C19.667 19.7875 19.7099 19.839 19.7357 19.8905C19.7615 19.9421 19.7786 20.0022 19.7786 20.0537C19.7786 20.1052 19.7615 20.1482 19.7271 20.1825C19.6927 20.2255 19.6498 20.2426 19.5983 20.2426C19.5467 20.2426 19.5124 20.2341 19.4952 20.2083C19.4695 20.1825 19.4437 20.1482 19.4179 20.0966C19.3836 20.0193 19.332 19.9592 19.2891 19.9163C19.2376 19.8733 19.1603 19.8476 19.04 19.8476C18.937 19.8476 18.8511 19.8733 18.791 19.9163C18.7223 19.9592 18.6965 20.0193 18.6965 20.0795C18.6965 20.1224 18.7051 20.1568 18.7309 20.1825C18.7566 20.2083 18.7824 20.2341 18.8167 20.2598C18.8597 20.277 18.894 20.2942 18.937 20.3113C18.9799 20.3199 19.04 20.3371 19.1345 20.3629C19.2462 20.3886 19.3492 20.423 19.4437 20.4488C19.5296 20.4831 19.6155 20.5261 19.6756 20.569C19.7443 20.6119 19.7872 20.6721 19.8302 20.7408C19.8645 20.8095 19.8817 20.8954 19.8817 20.9984" fill="#047AB2"/>
<path d="M21.4878 20.8352H22.089L21.7884 20.0108L21.4878 20.8352ZM22.2865 21.3935L22.192 21.1444H21.3761L21.2817 21.4021C21.2473 21.4965 21.213 21.5738 21.1872 21.5996C21.1614 21.6339 21.1185 21.6511 21.0584 21.6511C21.0068 21.6511 20.9639 21.6339 20.921 21.591C20.878 21.5567 20.8608 21.5137 20.8608 21.4622C20.8608 21.4364 20.8608 21.4021 20.878 21.3763C20.8866 21.3505 20.9038 21.3076 20.921 21.2561L21.4363 19.9592C21.4363 19.9592 21.4706 19.8819 21.4878 19.8218C21.505 19.7703 21.5307 19.7273 21.5479 19.693C21.5737 19.6586 21.608 19.6329 21.6424 19.6071C21.6853 19.5899 21.7283 19.5728 21.7798 19.5728C21.8313 19.5728 21.8828 19.5813 21.9258 19.6071C21.9601 19.6329 21.9945 19.6586 22.0117 19.693C22.0374 19.7273 22.0546 19.7617 22.0718 19.8046C22.089 19.8476 22.1061 19.8905 22.1319 19.9592L22.6558 21.2475C22.6987 21.3419 22.7159 21.4192 22.7159 21.4622C22.7159 21.5051 22.6987 21.5481 22.6558 21.591C22.6214 21.6339 22.5699 21.6511 22.5184 21.6511C22.484 21.6511 22.4583 21.6511 22.4325 21.6339C22.4067 21.6254 22.3896 21.6082 22.3724 21.5824C22.3552 21.5652 22.338 21.5309 22.3208 21.4965C22.3037 21.4536 22.2865 21.4192 22.2779 21.3935" fill="#047AB2"/>
<path d="M24.8799 19.9506H24.4419V21.402C24.4419 21.4879 24.4247 21.548 24.3817 21.591C24.3474 21.6339 24.2959 21.6511 24.2357 21.6511C24.1756 21.6511 24.1241 21.6339 24.0897 21.591C24.0554 21.548 24.0296 21.4879 24.0296 21.402V19.9506H23.5916C23.5229 19.9506 23.4714 19.9334 23.437 19.9077C23.4027 19.8733 23.3855 19.8304 23.3855 19.7874C23.3855 19.7445 23.4027 19.693 23.437 19.6672C23.4714 19.6329 23.5229 19.6243 23.5916 19.6243H24.8799C24.9486 19.6243 25.0001 19.6414 25.0345 19.6672C25.0688 19.7016 25.086 19.7359 25.086 19.7874C25.086 19.839 25.0688 19.8819 25.0345 19.9077C25.0001 19.9334 24.9486 19.9506 24.8799 19.9506Z" fill="#047AB2"/>
<path d="M27.4478 19.9249H26.5289V20.4144H27.3705C27.4307 20.4144 27.4822 20.4316 27.508 20.4574C27.5423 20.4831 27.5509 20.5261 27.5509 20.569C27.5509 20.612 27.5337 20.6463 27.508 20.6807C27.4736 20.7064 27.4307 20.7236 27.3705 20.7236H26.5289V21.299H27.4736C27.5337 21.299 27.5853 21.3162 27.6196 21.342C27.654 21.3677 27.6711 21.4107 27.6711 21.4622C27.6711 21.5051 27.654 21.5481 27.6196 21.5739C27.5853 21.6082 27.5423 21.6168 27.4736 21.6168H26.3743C26.2884 21.6168 26.2197 21.5996 26.1854 21.5567C26.1424 21.5137 26.1252 21.4536 26.1252 21.3677V19.8648C26.1252 19.8047 26.1252 19.7617 26.151 19.7188C26.1682 19.6844 26.194 19.6587 26.2283 19.6415C26.2712 19.6243 26.3142 19.6157 26.3743 19.6157H27.4478C27.5165 19.6157 27.5595 19.6329 27.5938 19.6587C27.6282 19.693 27.6454 19.7274 27.6454 19.7703C27.6454 19.8133 27.6282 19.8562 27.5938 19.882C27.5595 19.9077 27.5165 19.9249 27.4478 19.9249Z" fill="#047AB2"/>
<path d="M29.1915 19.8218V21.2818H30.016C30.0847 21.2818 30.1276 21.299 30.1706 21.3248C30.2049 21.3591 30.2221 21.3935 30.2221 21.445C30.2221 21.4965 30.2049 21.5309 30.1706 21.5652C30.1362 21.591 30.0847 21.6082 30.016 21.6082H29.0369C28.951 21.6082 28.8909 21.591 28.848 21.5481C28.805 21.5051 28.7878 21.445 28.7878 21.3591V19.8218C28.7878 19.7445 28.805 19.6758 28.8394 19.6329C28.8737 19.5899 28.9253 19.5728 28.9854 19.5728C29.0455 19.5728 29.097 19.5899 29.1314 19.6329C29.1657 19.6758 29.1915 19.7359 29.1915 19.8218Z" fill="#047AB2"/>
<path d="M31.3042 21.4021V19.8218C31.3042 19.7359 31.3214 19.6758 31.3643 19.6329C31.4073 19.5899 31.4502 19.5728 31.5103 19.5728C31.5704 19.5728 31.622 19.5899 31.6563 19.6329C31.6907 19.6758 31.7078 19.7359 31.7078 19.8218V21.4021C31.7078 21.4794 31.6907 21.5481 31.6563 21.591C31.6134 21.6339 31.5704 21.6511 31.5103 21.6511C31.4502 21.6511 31.4073 21.6339 31.3643 21.591C31.33 21.5481 31.3042 21.4879 31.3042 21.4021Z" fill="#047AB2"/>
<path d="M34.2673 19.9506H33.8207V21.402C33.8207 21.4879 33.8035 21.548 33.7692 21.591C33.7348 21.6339 33.6833 21.6511 33.6232 21.6511C33.5631 21.6511 33.5115 21.6339 33.4772 21.591C33.4428 21.548 33.4171 21.4879 33.4171 21.402V19.9506H32.9791C32.9104 19.9506 32.8588 19.9334 32.8245 19.9077C32.7901 19.8733 32.7729 19.8304 32.7729 19.7874C32.7729 19.7445 32.7901 19.693 32.8245 19.6672C32.8588 19.6329 32.9104 19.6243 32.9791 19.6243H34.2673C34.336 19.6243 34.3876 19.6414 34.4219 19.6672C34.4563 19.7016 34.4734 19.7359 34.4734 19.7874C34.4734 19.839 34.4563 19.8819 34.4219 19.9077C34.3876 19.9334 34.336 19.9506 34.2673 19.9506Z" fill="#047AB2"/>
<path d="M38.2947 19.9163H38.0199V20.5261H38.2947C38.3892 20.5261 38.475 20.5175 38.5352 20.4917C38.5953 20.4746 38.6468 20.4402 38.6812 20.3973C38.7155 20.3543 38.7327 20.2942 38.7327 20.2169C38.7327 20.131 38.7069 20.0537 38.6554 20.0022C38.5953 19.9421 38.475 19.9163 38.2947 19.9163ZM38.3892 20.8353H38.0199V21.4021C38.0199 21.4794 38.0027 21.5395 37.9683 21.5824C37.9254 21.6254 37.8824 21.6511 37.8223 21.6511C37.7622 21.6511 37.7107 21.634 37.6763 21.591C37.642 21.5481 37.6162 21.488 37.6162 21.4107V19.8648C37.6162 19.7789 37.6334 19.7102 37.6763 19.6758C37.7193 19.6415 37.7794 19.6157 37.8739 19.6157H38.3977C38.5523 19.6157 38.6726 19.6243 38.7499 19.6501C38.8272 19.6758 38.9045 19.7102 38.9646 19.7617C39.0247 19.8133 39.0676 19.882 39.102 19.9507C39.1363 20.028 39.1449 20.1138 39.1449 20.2083C39.1449 20.4144 39.0848 20.569 38.956 20.6721C38.8272 20.7751 38.6468 20.8267 38.3977 20.8267" fill="#047AB2"/>
<path d="M40.2959 21.4021V19.8218C40.2959 19.7359 40.3131 19.6758 40.356 19.6329C40.3904 19.5899 40.4419 19.5728 40.502 19.5728C40.5621 19.5728 40.6137 19.5899 40.648 19.6329C40.6824 19.6758 40.6995 19.7359 40.6995 19.8218V21.4021C40.6995 21.4794 40.6824 21.5481 40.648 21.591C40.6051 21.6339 40.5621 21.6511 40.502 21.6511C40.4419 21.6511 40.399 21.6339 40.356 21.591C40.3217 21.5481 40.2959 21.4879 40.2959 21.4021Z" fill="#047AB2"/>
<path d="M42.3573 19.8218V21.2818H43.1817C43.2419 21.2818 43.2934 21.299 43.3277 21.3248C43.3621 21.3591 43.3793 21.3935 43.3793 21.445C43.3793 21.4965 43.3621 21.5309 43.3277 21.5652C43.2934 21.591 43.2419 21.6082 43.1817 21.6082H42.2027C42.1168 21.6082 42.0481 21.591 42.0137 21.5481C41.9708 21.5051 41.9536 21.445 41.9536 21.3591V19.8218C41.9536 19.7445 41.9708 19.6758 42.0051 19.6329C42.0395 19.5899 42.091 19.5728 42.1511 19.5728C42.2113 19.5728 42.2628 19.5899 42.2971 19.6329C42.3315 19.6758 42.3573 19.7359 42.3573 19.8218Z" fill="#047AB2"/>
<path d="M44.4614 21.4021V19.8218C44.4614 19.7359 44.4786 19.6758 44.5215 19.6329C44.5559 19.5899 44.6074 19.5728 44.6675 19.5728C44.7277 19.5728 44.7792 19.5899 44.8135 19.6329C44.8479 19.6758 44.8651 19.7359 44.8651 19.8218V21.4021C44.8651 21.4794 44.8479 21.5481 44.8135 21.591C44.7706 21.6339 44.7277 21.6511 44.6675 21.6511C44.6074 21.6511 44.5645 21.6339 44.5215 21.591C44.4872 21.5481 44.4614 21.4879 44.4614 21.4021Z" fill="#047AB2"/>
<path d="M46.5311 19.8218V20.3972H47.4071V19.8218C47.4071 19.7445 47.4243 19.6758 47.4672 19.6329C47.5016 19.5899 47.5531 19.5728 47.6132 19.5728C47.6733 19.5728 47.7249 19.5899 47.7592 19.6329C47.7936 19.6758 47.8193 19.7359 47.8193 19.8218V21.4021C47.8193 21.4794 47.8022 21.5481 47.7592 21.591C47.7163 21.6339 47.6647 21.6511 47.6132 21.6511C47.5531 21.6511 47.5016 21.6339 47.4672 21.591C47.4329 21.5481 47.4071 21.4879 47.4071 21.4021V20.7322H46.5311V21.4021C46.5311 21.4794 46.5139 21.5481 46.471 21.591C46.428 21.6339 46.3851 21.6511 46.325 21.6511C46.2649 21.6511 46.2133 21.6339 46.179 21.591C46.1446 21.5481 46.1274 21.4879 46.1274 21.4021V19.8218C46.1274 19.7359 46.1446 19.6758 46.179 19.6329C46.2133 19.5899 46.2649 19.5728 46.325 19.5728C46.3851 19.5728 46.4366 19.5899 46.471 19.6329C46.5053 19.6758 46.5311 19.7359 46.5311 19.8218Z" fill="#047AB2"/>
<path d="M49.5283 20.8352H50.1295L49.8289 20.0108L49.5283 20.8352ZM50.327 21.3935L50.2326 21.1444H49.4167L49.3222 21.4021C49.2878 21.4965 49.2535 21.5738 49.2277 21.5996C49.202 21.6339 49.159 21.6511 49.0989 21.6511C49.0474 21.6511 49.0044 21.6339 48.9615 21.591C48.9185 21.5567 48.9014 21.5137 48.9014 21.4622C48.9014 21.4364 48.9014 21.4021 48.9185 21.3763C48.9185 21.3505 48.9443 21.3076 48.9615 21.2561L49.4768 19.9592C49.4768 19.9592 49.5111 19.8819 49.5283 19.8218C49.5455 19.7703 49.5713 19.7273 49.597 19.693C49.6228 19.6586 49.6571 19.6329 49.6915 19.6071C49.7344 19.5899 49.7774 19.5728 49.8289 19.5728C49.8804 19.5728 49.932 19.5813 49.9749 19.6071C50.0093 19.6329 50.0436 19.6586 50.0608 19.693C50.0866 19.7273 50.1037 19.7617 50.1209 19.8046C50.1381 19.8476 50.1553 19.8905 50.181 19.9592L50.7049 21.2475C50.7479 21.3419 50.765 21.4192 50.765 21.4622C50.765 21.5051 50.7479 21.5481 50.7049 21.591C50.6706 21.6339 50.619 21.6511 50.5675 21.6511C50.5331 21.6511 50.5074 21.6511 50.4816 21.6339C50.4558 21.6254 50.4387 21.6082 50.4215 21.5824C50.4043 21.5652 50.3871 21.5309 50.3786 21.4965C50.3614 21.4536 50.3442 21.4192 50.327 21.3935Z" fill="#047AB2"/>
<path d="M52.3971 19.8219L53.1787 21.007V19.8133C53.1787 19.736 53.1958 19.6759 53.2302 19.6415C53.2646 19.5986 53.3075 19.5814 53.3676 19.5814C53.4277 19.5814 53.4707 19.5986 53.505 19.6415C53.5394 19.6759 53.5566 19.736 53.5566 19.8133V21.3849C53.5566 21.5653 53.4793 21.6512 53.3418 21.6512C53.3075 21.6512 53.2731 21.6512 53.2474 21.634C53.2216 21.6254 53.1873 21.6082 53.1615 21.591C53.1357 21.5653 53.11 21.5395 53.0928 21.5052C53.0756 21.4794 53.0498 21.445 53.0241 21.4107L52.2597 20.2427V21.4107C52.2597 21.488 52.2425 21.5481 52.2082 21.5825C52.1738 21.6254 52.1309 21.6426 52.0708 21.6426C52.0107 21.6426 51.9677 21.6254 51.9334 21.5825C51.899 21.5481 51.8818 21.488 51.8818 21.4107V19.8648C51.8818 19.7961 51.8904 19.7446 51.9076 19.7102C51.9248 19.6673 51.9505 19.6329 51.9935 19.6071C52.0364 19.5814 52.0794 19.5642 52.1223 19.5642C52.1567 19.5642 52.191 19.5642 52.2168 19.5814C52.2425 19.5986 52.2683 19.6072 52.2855 19.6329C52.3027 19.6587 52.3284 19.6759 52.3456 19.7102C52.3628 19.7446 52.3885 19.7789 52.4057 19.8133" fill="#047AB2"/>
<path d="M58.1941 19.9506H57.7561V21.402C57.7561 21.4879 57.7389 21.548 57.696 21.591C57.6616 21.6339 57.6101 21.6511 57.55 21.6511C57.4898 21.6511 57.4383 21.6339 57.4039 21.591C57.3696 21.548 57.3438 21.4879 57.3438 21.402V19.9506H56.9058C56.8371 19.9506 56.7856 19.9334 56.7512 19.9077C56.7169 19.8733 56.6997 19.8304 56.6997 19.7874C56.6997 19.7445 56.7169 19.693 56.7512 19.6672C56.7856 19.6329 56.8371 19.6243 56.9058 19.6243H58.1941C58.2628 19.6243 58.3143 19.6414 58.3487 19.6672C58.383 19.7016 58.4002 19.7359 58.4002 19.7874C58.4002 19.839 58.383 19.8819 58.3487 19.9077C58.3143 19.9334 58.2628 19.9506 58.1941 19.9506Z" fill="#047AB2"/>
<path d="M60.7618 19.9249H59.8429V20.4144H60.6845C60.7446 20.4144 60.7962 20.4316 60.8219 20.4574C60.8563 20.4831 60.8649 20.5261 60.8649 20.569C60.8649 20.612 60.8477 20.6463 60.8219 20.6807C60.7876 20.7064 60.7446 20.7236 60.6845 20.7236H59.8429V21.299H60.7876C60.8477 21.299 60.8992 21.3162 60.9336 21.342C60.9679 21.3677 60.9851 21.4107 60.9851 21.4622C60.9851 21.5051 60.9679 21.5481 60.9336 21.5739C60.8992 21.6082 60.8563 21.6168 60.7876 21.6168H59.6883C59.6024 21.6168 59.5337 21.5996 59.4993 21.5567C59.4564 21.5137 59.4392 21.4536 59.4392 21.3677V19.8648C59.4392 19.8047 59.4392 19.7617 59.465 19.7188C59.4821 19.6844 59.5079 19.6587 59.5509 19.6415C59.5852 19.6243 59.6367 19.6157 59.6969 19.6157H60.7704C60.8391 19.6157 60.882 19.6329 60.9164 19.6587C60.9508 19.693 60.9679 19.7274 60.9679 19.7703C60.9679 19.8133 60.9508 19.8562 60.9164 19.882C60.882 19.9077 60.8391 19.9249 60.7704 19.9249" fill="#047AB2"/>
<path d="M62.8831 19.9164H62.5053V20.4661H62.866C62.9604 20.4661 63.0463 20.4661 63.115 20.4403C63.1837 20.4231 63.2353 20.3973 63.2696 20.3544C63.304 20.3115 63.3211 20.2599 63.3211 20.1826C63.3211 20.1225 63.304 20.0796 63.2782 20.0366C63.2524 19.9937 63.2095 19.9593 63.158 19.9422C63.1064 19.9164 63.0206 19.9078 62.8745 19.9078M62.6427 20.7495H62.4967V21.3936C62.4967 21.4795 62.4795 21.5396 62.4365 21.5739C62.4022 21.6169 62.3507 21.6341 62.2905 21.6341C62.2304 21.6341 62.1789 21.6169 62.1445 21.5654C62.1102 21.5224 62.093 21.4623 62.093 21.385V19.8477C62.093 19.7618 62.1102 19.6931 62.1531 19.6588C62.1961 19.6244 62.2562 19.5986 62.3421 19.5986H63.0034C63.0893 19.5986 63.1751 19.5986 63.2353 19.6072C63.2954 19.6158 63.3555 19.633 63.407 19.6502C63.4671 19.6759 63.5273 19.7189 63.5702 19.7618C63.6217 19.8133 63.6561 19.8735 63.6819 19.9336C63.7076 20.0023 63.7162 20.071 63.7162 20.1397C63.7162 20.2857 63.6733 20.4059 63.5874 20.5004C63.5015 20.5863 63.3727 20.655 63.2009 20.6893C63.2696 20.7237 63.3383 20.7838 63.407 20.8611C63.4757 20.9384 63.5273 21.0157 63.5788 21.1016C63.6303 21.1875 63.6733 21.2648 63.699 21.3335C63.7334 21.4022 63.742 21.4451 63.742 21.4709C63.742 21.4966 63.7334 21.5224 63.7162 21.5482C63.699 21.5739 63.6733 21.5911 63.6475 21.6083C63.6217 21.6255 63.5874 21.6341 63.5444 21.6341C63.5015 21.6341 63.4586 21.6255 63.4328 21.5997C63.3984 21.5739 63.3727 21.5482 63.3555 21.5138C63.3297 21.4795 63.304 21.4365 63.2696 21.3678L63.1064 21.093C63.0463 20.9985 62.9948 20.9212 62.9518 20.8697C62.9089 20.8182 62.8574 20.7838 62.8144 20.7666C62.7629 20.7495 62.7114 20.7409 62.6341 20.7409" fill="#047AB2"/>
<path d="M65.3226 19.9164V20.4317H65.6918C65.7949 20.4317 65.8722 20.4231 65.9237 20.4059C65.9839 20.3887 66.0182 20.3458 66.0526 20.2942C66.0783 20.2513 66.0869 20.2169 66.0869 20.1654C66.0869 20.0624 66.0526 19.9937 65.9839 19.9679C65.9151 19.9335 65.8035 19.9164 65.6575 19.9164H65.3226ZM65.7434 20.7237H65.3226V21.3077H65.7606C66.0354 21.3077 66.1728 21.2132 66.1728 21.0071C66.1728 20.904 66.1384 20.8353 66.0697 20.7838C66.001 20.7408 65.898 20.7151 65.752 20.7151M65.7863 21.6083H65.1766C65.0907 21.6083 65.022 21.5911 64.9876 21.5481C64.9533 21.5052 64.9275 21.4451 64.9275 21.3592V19.8562C64.9275 19.7704 64.9447 19.7016 64.9876 19.6673C65.0305 19.6244 65.0907 19.6072 65.1766 19.6072H65.8293C65.9237 19.6072 66.0096 19.6072 66.0783 19.6244C66.147 19.6415 66.2157 19.6587 66.2673 19.6931C66.3188 19.7188 66.3617 19.7618 66.3961 19.7961C66.4304 19.8391 66.4648 19.8906 66.482 19.9421C66.4992 19.9937 66.5077 20.0538 66.5077 20.1139C66.5077 20.3114 66.4133 20.4574 66.2071 20.5519C66.4734 20.6378 66.6022 20.801 66.6022 21.0414C66.6022 21.1531 66.5764 21.2561 66.5163 21.342C66.4562 21.4279 66.3789 21.4966 66.2844 21.5395C66.2243 21.5653 66.1556 21.5825 66.0783 21.5911C66.001 21.5997 65.9066 21.6083 65.8035 21.6083" fill="#047AB2"/>
<path d="M68.1047 20.8352H68.7059L68.4053 20.0108L68.1047 20.8352ZM68.9034 21.3935L68.809 21.1444H67.9931L67.8986 21.4021C67.8643 21.4965 67.8299 21.5738 67.8041 21.5996C67.7784 21.6339 67.7354 21.6511 67.6753 21.6511C67.6238 21.6511 67.5808 21.6339 67.5379 21.591C67.495 21.5567 67.4778 21.5137 67.4778 21.4622C67.4778 21.4364 67.4778 21.4021 67.495 21.3763C67.495 21.3505 67.5207 21.3076 67.5379 21.2561L68.0532 19.9592C68.0532 19.9592 68.0876 19.8819 68.1047 19.8218C68.1219 19.7703 68.1477 19.7273 68.1734 19.693C68.1992 19.6586 68.2336 19.6329 68.2679 19.6071C68.3108 19.5899 68.3538 19.5728 68.4053 19.5728C68.4569 19.5728 68.5084 19.5813 68.5513 19.6071C68.5857 19.6329 68.62 19.6586 68.6372 19.693C68.663 19.7273 68.6801 19.7617 68.6973 19.8046C68.7145 19.8476 68.7317 19.8905 68.7574 19.9592L69.2813 21.2475C69.3243 21.3419 69.3414 21.4192 69.3414 21.4622C69.3414 21.5051 69.3243 21.5481 69.2813 21.591C69.247 21.6339 69.1954 21.6511 69.1439 21.6511C69.1096 21.6511 69.0838 21.6511 69.058 21.6339C69.0323 21.6254 69.0151 21.6082 68.9979 21.5824C68.9807 21.5652 68.9636 21.5309 68.9464 21.4965C68.9292 21.4536 68.912 21.4192 68.9034 21.3935Z" fill="#047AB2"/>
<path d="M70.4583 21.4021V19.8218C70.4583 19.7359 70.4754 19.6758 70.5184 19.6329C70.5527 19.5899 70.6043 19.5728 70.6644 19.5728C70.7245 19.5728 70.776 19.5899 70.8104 19.6329C70.8447 19.6758 70.8619 19.7359 70.8619 19.8218V21.4021C70.8619 21.4794 70.8447 21.5481 70.8104 21.591C70.7674 21.6339 70.7245 21.6511 70.6644 21.6511C70.6043 21.6511 70.5613 21.6339 70.5184 21.591C70.484 21.5481 70.4583 21.4879 70.4583 21.4021Z" fill="#047AB2"/>
<path d="M72.5281 19.8218V20.526L73.3268 19.6929C73.3268 19.6929 73.3955 19.6242 73.4213 19.6071C73.447 19.5899 73.4814 19.5813 73.5243 19.5813C73.5844 19.5813 73.6274 19.5985 73.6703 19.6328C73.7047 19.6672 73.7218 19.7101 73.7218 19.7617C73.7218 19.8218 73.6875 19.8819 73.6274 19.942L73.1378 20.4058L73.7047 21.2217C73.7476 21.2818 73.7734 21.3247 73.7991 21.3677C73.8163 21.4106 73.8335 21.4536 73.8335 21.4879C73.8335 21.5308 73.8163 21.5738 73.782 21.5996C73.7476 21.6339 73.6961 21.6511 73.636 21.6511C73.5758 21.6511 73.5329 21.6425 73.4985 21.6167C73.4642 21.591 73.4298 21.5566 73.4127 21.5223C73.3869 21.4793 73.3611 21.445 73.344 21.4106L72.863 20.672L72.5281 20.9898V21.402C72.5281 21.4879 72.5109 21.548 72.4679 21.591C72.425 21.6339 72.3821 21.6511 72.3219 21.6511C72.2876 21.6511 72.2532 21.6425 72.2189 21.6253C72.1845 21.6081 72.1588 21.5824 72.1502 21.548C72.133 21.5223 72.133 21.4879 72.1244 21.4621C72.1158 21.4364 72.1244 21.3848 72.1244 21.3161V19.8304C72.1244 19.7445 72.1416 19.6844 72.176 19.6414C72.2103 19.5985 72.2618 19.5813 72.3219 19.5813C72.3821 19.5813 72.4336 19.5985 72.4679 19.6414C72.5023 19.6844 72.5281 19.7445 72.5281 19.8304" fill="#047AB2"/>
<path d="M75.671 21.3162L75.3446 20.0451V21.4278C75.3446 21.5051 75.3275 21.5652 75.2931 21.5996C75.2588 21.6425 75.2072 21.6597 75.1557 21.6597C75.1042 21.6597 75.0612 21.6425 75.0269 21.5996C74.9925 21.5566 74.9753 21.5051 74.9753 21.4278V19.8476C74.9753 19.7617 75.0011 19.7016 75.044 19.6672C75.0956 19.6329 75.1557 19.6243 75.2244 19.6243H75.3532C75.4305 19.6243 75.482 19.6243 75.5164 19.6414C75.5508 19.6586 75.5765 19.6758 75.5937 19.7187C75.6109 19.7531 75.628 19.8132 75.6538 19.8905L75.9458 20.9898L76.2378 19.8905C76.2636 19.8132 76.2808 19.7531 76.2979 19.7187C76.3151 19.6844 76.3409 19.6586 76.3752 19.6414C76.4096 19.6243 76.4611 19.6243 76.5384 19.6243H76.6672C76.7445 19.6243 76.8046 19.6414 76.8476 19.6672C76.8905 19.7016 76.9163 19.7531 76.9163 19.8476V21.4278C76.9163 21.5051 76.8991 21.5652 76.8648 21.5996C76.8304 21.6425 76.7789 21.6597 76.7273 21.6597C76.6758 21.6597 76.6329 21.6425 76.5985 21.5996C76.5642 21.5652 76.547 21.5051 76.547 21.4278V20.0451L76.2292 21.3162C76.2121 21.3935 76.1949 21.4622 76.1777 21.4965C76.1605 21.5395 76.1434 21.5652 76.109 21.5996C76.0746 21.6253 76.0231 21.6425 75.963 21.6425C75.9115 21.6425 75.8771 21.6339 75.8428 21.6082C75.8084 21.5824 75.7826 21.5652 75.7655 21.5309C75.7483 21.4965 75.7311 21.4622 75.7225 21.4278C75.7139 21.3849 75.7053 21.3505 75.6882 21.3076" fill="#047AB2"/>
<path d="M78.1277 20.7837V19.8218C78.1277 19.7359 78.1449 19.6758 78.1878 19.6329C78.2222 19.5899 78.2737 19.5728 78.3338 19.5728C78.3939 19.5728 78.4454 19.5899 78.4798 19.6329C78.5142 19.6758 78.5313 19.7359 78.5313 19.8218V20.8095C78.5313 20.9211 78.5485 21.0156 78.5743 21.0929C78.6 21.1702 78.643 21.2303 78.7031 21.2732C78.7718 21.3162 78.8577 21.3334 78.9693 21.3334C79.1239 21.3334 79.2356 21.2904 79.3043 21.2045C79.373 21.1186 79.3988 20.9898 79.3988 20.8181V19.8218C79.3988 19.7359 79.4159 19.6758 79.4589 19.6329C79.4932 19.5899 79.5448 19.5728 79.6049 19.5728C79.665 19.5728 79.7165 19.5899 79.7509 19.6329C79.7852 19.6758 79.811 19.7359 79.811 19.8218V20.7837C79.811 20.9383 79.7938 21.0757 79.768 21.1788C79.7337 21.2818 79.6736 21.3763 79.5963 21.4536C79.5276 21.5223 79.4417 21.5652 79.3386 21.5996C79.2442 21.6339 79.1325 21.6425 79.0037 21.6425C78.8491 21.6425 78.7203 21.6254 78.6086 21.591C78.497 21.5567 78.4111 21.5051 78.3338 21.4364C78.2651 21.3677 78.2136 21.2818 78.1792 21.1702C78.1449 21.0585 78.1277 20.9297 78.1277 20.7837Z" fill="#047AB2"/>
</g>
</g>
<defs>
<clipPath id="clip0_1801_10821">
<rect width="80" height="22.1063" fill="white"/>
</clipPath>
<clipPath id="clip1_1801_10821">
<rect width="80" height="22.1063" fill="white"/>
</clipPath>
</defs>
</svg>
