<svg width="80" height="32" viewBox="0 0 80 32" fill="none" xmlns="http://www.w3.org/2000/svg">
<g clip-path="url(#clip0_1801_10471)">
<path fill-rule="evenodd" clip-rule="evenodd" d="M29.6416 7.58608C30.4502 6.78138 30.9486 5.67094 30.9486 4.44419C30.9486 3.21445 30.4505 2.10401 29.6416 1.30262C28.8584 0.52315 27.7865 0.0302502 26.6004 0H26.3697C25.1836 0.0299266 24.1115 0.522584 23.3284 1.30262C22.5199 2.10401 22.0182 3.21445 22.0182 4.44419C22.0182 5.67094 22.5195 6.78138 23.3284 7.58608L24.3135 8.56679C25.9587 10.2077 26.0751 10.6405 24.5111 12.1971L23.6141 13.0894C22.8799 13.8242 22.4243 14.8329 22.4243 15.9504V30.3244H30.5418V15.9507C30.5418 14.8333 30.09 13.8242 29.3556 13.0898L28.4585 12.2004C26.8943 10.6435 27.0111 10.2077 28.6562 8.5667L29.6416 7.58608Z" fill="#F58220"/>
<path fill-rule="evenodd" clip-rule="evenodd" d="M10.5132 10.2131C7.62166 10.2097 4.96865 11.3953 3.0775 13.293C1.18255 15.18 -0.0033062 17.8316 6.92429e-06 20.7249V30.3254H7.97956V20.8865C7.98311 19.7362 8.25657 18.7545 8.72331 17.9923C9.1937 17.2419 9.80065 16.7963 10.5129 16.7933C11.2252 16.7963 11.8324 17.2419 12.3028 17.9923C12.769 18.7545 13.0427 19.7363 13.0465 20.8865V30.3254H21.0294V20.7249C21.0294 17.8316 19.8435 15.18 17.9486 13.293C16.0573 11.3953 13.4048 10.2093 10.5132 10.2131Z" fill="#F58220"/>
<path fill-rule="evenodd" clip-rule="evenodd" d="M43.8938 23.983C43.4246 24.8485 42.8159 25.3646 42.109 25.3679C41.3988 25.3643 40.7895 24.8485 40.3206 23.983C39.859 23.1063 39.5826 21.9704 39.5826 20.6412C39.5826 19.3122 39.859 18.1801 40.3206 17.2997C40.7895 16.4337 41.3985 15.918 42.109 15.9148C42.8159 15.9184 43.4246 16.4337 43.8938 17.2997C44.2371 17.9519 44.4751 18.7445 44.5761 19.6522H52.5471C52.313 17.1519 51.1963 14.8836 49.524 13.2111C47.6376 11.3143 44.9891 10.1324 42.109 10.1324C39.2257 10.1324 36.5768 11.3139 34.6941 13.2111C32.8011 15.1007 31.6183 17.7519 31.622 20.6409C31.6184 23.5298 32.8011 26.1812 34.6941 28.0709C36.1463 29.5266 38.6728 31.1497 42.109 31.1497C44.6878 31.1497 47.078 30.1993 48.9046 28.6429C50.2346 27.5101 52.2081 25.2378 52.5471 21.6298H44.5761C44.4751 22.5379 44.2371 23.3304 43.8938 23.983Z" fill="#F58220"/>
<path fill-rule="evenodd" clip-rule="evenodd" d="M73.6661 28.8306C73.6661 28.565 73.5856 28.3165 73.4557 28.1065L69.0845 21.5111L72.1118 16.0294C73.2314 14.1355 72.5998 11.6918 70.7019 10.5753C68.803 9.4585 66.3547 10.0884 65.2357 11.9861L61.6224 18.4313V14.1326C61.6224 11.9343 59.8363 10.1522 57.633 10.1522C55.4299 10.1522 53.641 11.9344 53.641 14.1326V30.2244H61.6225V23.9237L65.8329 30.2215L72.2775 30.2179C73.0453 30.2172 73.6661 29.5971 73.6661 28.8306Z" fill="#F58220"/>
<path fill-rule="evenodd" clip-rule="evenodd" d="M80 13.8234V11.097H79.9366L78.6805 12.5518L77.4188 11.097H77.3415V13.8234H77.8177V12.1349L78.6364 13.1389H78.7249L79.5439 12.1349V13.8234H80Z" fill="#F58220"/>
<path fill-rule="evenodd" clip-rule="evenodd" d="M75.5151 11.5588H74.7295V11.1426H76.7767V11.5588H75.9911V13.8236H75.5151V11.5588Z" fill="#F58220"/>
</g>
<defs>
<clipPath id="clip0_1801_10471">
<rect width="80" height="31.1497" fill="white"/>
</clipPath>
</defs>
</svg>
