<svg width="80" height="25" viewBox="0 0 80 25" fill="none" xmlns="http://www.w3.org/2000/svg">
<g clip-path="url(#clip0_1801_10970)">
<path d="M46.7651 9.30467C46.8223 9.11411 46.8795 8.92354 46.9366 8.71391C47.394 7.17031 47.8514 5.62671 48.3087 4.06405L48.3659 3.89254C48.4231 3.72103 48.5946 3.60669 48.7661 3.60669H50.2906C50.6717 3.60669 50.748 3.72103 50.6146 4.08311L50.0238 5.66483C49.3568 7.399 48.6899 9.15222 48.0229 10.8864C48.0038 10.9436 47.9657 11.0007 47.9466 11.0579C47.8704 11.2675 47.6608 11.4009 47.4512 11.3819C47.0129 11.3628 46.5746 11.3628 46.1363 11.3819C45.8313 11.4009 45.6408 11.2485 45.5455 10.9626C45.2978 10.2956 45.031 9.62864 44.7832 8.98071C44.1925 7.41805 43.5636 5.83634 42.9728 4.25462C42.9157 4.14028 42.8776 3.98783 42.8394 3.87349C42.8013 3.68292 42.8776 3.56858 43.0872 3.56858C43.6589 3.54952 44.2306 3.56858 44.7832 3.56858C45.031 3.56858 45.1263 3.72103 45.2025 3.93066C45.3168 4.31179 45.4312 4.69293 45.5455 5.07407C45.9647 6.46521 46.3649 7.85636 46.7651 9.2475C46.727 9.30467 46.727 9.30467 46.7651 9.30467Z" fill="#232F3E"/>
<path d="M53.8352 11.096C53.8162 11.2866 53.7209 11.3819 53.5303 11.4009C52.9967 11.42 52.4631 11.42 51.9105 11.4009C51.7199 11.4009 51.6246 11.3056 51.6056 11.1151C51.5865 11.0579 51.5865 10.9817 51.5865 10.9245V4.00688C51.6056 3.70197 51.6818 3.60669 51.9867 3.60669H53.435C53.7399 3.60669 53.8352 3.70197 53.8352 4.00688V11.096Z" fill="#232F3E"/>
<path d="M52.7299 0.00495791C52.9204 -0.0140989 53.1301 0.0240147 53.3206 0.100242C53.7018 0.252696 53.9876 0.614777 54.0067 1.03403C54.0829 1.94875 53.4731 2.40611 52.6727 2.38706C52.5584 2.38706 52.444 2.368 52.3487 2.34894C51.7199 2.19649 51.415 1.72007 51.4721 1.03403C51.5293 0.48138 51.9485 0.0811863 52.5393 0.0240159C52.5774 0.00495908 52.6536 0.00495791 52.7299 0.00495791Z" fill="#232F3E"/>
<path d="M80 8.21844C80 8.19938 80 8.19938 80 8.21844Z" fill="#232F3E"/>
<path d="M80 6.88446V6.92257C79.9619 6.88446 79.9428 6.82729 79.9619 6.77012V6.69389C79.9619 6.69389 79.9619 6.67484 79.9809 6.67484H79.9619V6.57955H79.9809C79.9809 6.56049 79.9619 6.5605 79.9619 6.5605C79.9428 6.36993 79.9047 6.17936 79.8475 6.00785C79.4855 4.69293 78.647 3.81632 77.294 3.4733C76.6651 3.32084 76.0171 3.30178 75.3883 3.39707C74.0353 3.60669 73.0634 4.31179 72.606 5.5886C72.1486 6.80823 72.1486 8.14221 72.6251 9.36185C73.0253 10.4671 73.8256 11.1722 74.969 11.4581C75.5788 11.6105 76.2268 11.6487 76.8556 11.5534C78.9519 11.3056 79.8285 9.70487 79.9619 8.33278H79.9428V8.19938C79.9238 8.14221 79.9238 8.08504 79.9809 8.04693V8.06598C79.9809 8.04693 80 8.02787 80 8.02787V6.88446ZM77.6179 8.77108C77.5607 8.98071 77.4655 9.17128 77.3321 9.34279C77.1034 9.6477 76.7604 9.85732 76.3792 9.87638C76.1887 9.89543 75.9981 9.89544 75.8075 9.85732C75.3883 9.7811 75.0453 9.49524 74.8737 9.11411C74.7213 8.8092 74.626 8.46618 74.607 8.12315C74.5498 7.53239 74.5498 6.94163 74.6832 6.36993C74.7404 6.14125 74.8356 5.91257 74.95 5.70294C75.1786 5.34086 75.5407 5.11218 75.979 5.07407C76.1696 5.05501 76.3602 5.05501 76.5507 5.09312C76.9509 5.16935 77.2749 5.43615 77.4655 5.79823C77.637 6.14125 77.7322 6.54144 77.7513 6.92257C77.7704 7.09409 77.7704 7.28465 77.7704 7.45617C77.7704 7.93259 77.7322 8.37089 77.6179 8.77108Z" fill="#232F3E"/>
<path d="M62.487 0.0811837H61.0958C60.7147 0.0811837 60.6384 0.15741 60.6384 0.538546V3.7782C60.6384 3.85443 60.6766 3.9116 60.6194 3.98783C60.5241 3.96877 60.486 3.9116 60.4098 3.87349C59.3617 3.26367 58.2754 3.14933 57.1701 3.66386C56.4079 4.02594 55.9124 4.67387 55.6075 5.43614C55.3026 6.17936 55.2454 6.96069 55.2645 7.74201C55.2645 8.48523 55.436 9.20939 55.7599 9.87638C56.1411 10.6005 56.6937 11.1722 57.4941 11.4009C58.5803 11.7439 59.6094 11.5724 60.5432 10.8864C60.6194 10.8483 60.6575 10.772 60.7337 10.753C60.7909 10.8673 60.829 10.9817 60.8481 11.096C60.8862 11.2485 61.0196 11.3628 61.1911 11.3628H61.4388C61.8009 11.3628 62.1439 11.3819 62.506 11.3628C62.7919 11.3628 62.8681 11.2675 62.8681 10.9817V0.443262C62.849 0.138353 62.7728 0.0811837 62.487 0.0811837ZM60.6384 7.43711V9.26656C60.6575 9.3809 60.5813 9.49524 60.486 9.55241C60.0096 9.81921 59.4569 9.93355 58.9233 9.85732C58.466 9.80015 58.0658 9.53335 57.8562 9.1141C57.7037 8.79014 57.6084 8.44712 57.5703 8.10409C57.4941 7.47522 57.5322 6.82729 57.6847 6.21747C57.7418 6.04596 57.799 5.8935 57.8752 5.72199C58.0849 5.34086 58.485 5.07406 58.9233 5.05501C59.4569 4.99784 59.9905 5.11218 60.4669 5.3218C60.5813 5.35992 60.6575 5.47426 60.6384 5.60765C60.6384 6.23653 60.6384 6.82729 60.6384 7.43711Z" fill="#232F3E"/>
<path d="M68.5088 8.21844C69.0805 8.18033 69.6713 8.06598 70.1858 7.78013C70.7194 7.51334 71.0815 7.03692 71.1958 6.44616C71.272 6.08408 71.272 5.70294 71.1767 5.34086C70.9671 4.44519 70.3954 3.87349 69.5379 3.58764C69.0615 3.43518 68.5469 3.37801 68.0515 3.39707C66.3745 3.43518 65.0977 4.29274 64.5641 5.96974C64.2211 7.07503 64.2592 8.21844 64.6022 9.32373C64.9452 10.4671 65.7456 11.1532 66.889 11.4581C67.3845 11.5724 67.8799 11.6296 68.3945 11.6105C69.1186 11.5915 69.8618 11.4581 70.5479 11.1913C70.8337 11.077 70.91 10.9817 70.91 10.6768V9.95261C70.8909 9.66676 70.7766 9.57147 70.4907 9.62864C70.262 9.68581 70.0524 9.74298 69.8428 9.7811C69.1758 9.93355 68.4707 9.97167 67.7847 9.85732C67.0986 9.72393 66.6413 9.34279 66.4697 8.65675C66.4126 8.46618 66.3745 8.25655 66.3554 8.04693C66.4126 8.04693 66.4507 8.04693 66.4888 8.06598C67.1748 8.21844 67.8418 8.27561 68.5088 8.21844ZM66.4316 6.63672C66.5079 6.25559 66.5841 5.87445 66.8318 5.55049C67.1939 5.05501 67.7084 4.92161 68.2992 4.97878C68.3564 4.97878 68.3945 4.99784 68.4326 4.99784C69.1377 5.11218 69.3092 5.66483 69.1758 6.21748C69.0805 6.61767 68.7375 6.77012 68.3754 6.84635C68.1848 6.88446 67.9562 6.90352 67.7465 6.90352C67.3273 6.88446 66.9271 6.86541 66.5269 6.80824C66.4507 6.75107 66.4126 6.71295 66.4316 6.63672Z" fill="#232F3E"/>
<path d="M39.6189 24.5882C39.0662 24.5501 38.5326 24.5311 37.98 24.4929C36.5126 24.3786 35.0643 24.169 33.6541 23.826C28.7375 22.6825 24.4307 20.3957 20.6765 17.0608C20.3335 16.7559 19.9905 16.4319 19.6474 16.1079C19.5712 16.0317 19.495 15.9364 19.4569 15.8412C19.3997 15.7078 19.4188 15.5553 19.5331 15.441C19.6475 15.3266 19.7999 15.2885 19.9333 15.3457C20.0286 15.3838 20.1048 15.4219 20.2001 15.4791C23.7828 17.7087 27.7084 19.3285 31.8247 20.2814C33.1968 20.6054 34.5879 20.8531 35.9981 21.0246C37.999 21.2723 40.0381 21.3676 42.0581 21.2914C43.1444 21.2533 44.2306 21.158 45.3168 21.0246C47.8323 20.7006 50.3287 20.1289 52.7299 19.3285C54.0067 18.9093 55.2454 18.4329 56.4459 17.8612C56.6174 17.7659 56.8461 17.7278 57.0367 17.7849C57.3606 17.8612 57.5703 18.2042 57.494 18.5282C57.475 18.5663 57.4559 18.6234 57.4369 18.6616C57.3606 18.814 57.2463 18.9474 57.1129 19.0427C55.9695 19.9384 54.7308 20.7388 53.4159 21.3867C50.9385 22.6444 48.3087 23.521 45.5836 24.0356C44.021 24.3214 42.4393 24.4929 40.8576 24.5501V24.5882H39.6189ZM58.0276 14.8311C58.6946 14.8502 59.3425 14.8883 59.9714 15.0598C60.1429 15.117 60.3144 15.1742 60.4859 15.2504C60.7146 15.3457 60.8671 15.5553 60.9052 15.803C60.9433 16.0889 60.9624 16.3747 60.9433 16.6606C60.8099 18.3757 60.2763 20.0146 59.3997 21.482C59.0757 22.0156 58.6946 22.492 58.2373 22.9112C58.142 23.0065 58.0467 23.0637 57.9133 23.1018C57.7227 23.159 57.6084 23.0446 57.5893 22.8541C57.6084 22.7588 57.6274 22.6444 57.6656 22.5491C58.0086 21.6154 58.3516 20.6816 58.6184 19.7097C58.7708 19.1761 58.8852 18.6425 58.9614 18.0899C58.9805 17.8993 58.9995 17.6897 58.9805 17.4991C58.9614 17.1561 58.7518 16.8702 58.4278 16.7749C58.1229 16.6797 57.799 16.6225 57.475 16.6034C56.5603 16.5653 55.6265 16.6034 54.7308 16.7178L53.5112 16.8702C53.3778 16.8893 53.2635 16.8702 53.1872 16.7559C53.111 16.6415 53.1491 16.5081 53.2253 16.3938C53.3016 16.2795 53.3969 16.1842 53.5303 16.1079C54.2735 15.5744 55.0929 15.2504 55.9886 15.0408C56.6365 14.9264 57.3225 14.8502 58.0276 14.8311Z" fill="#00A8E1"/>
<path d="M7.66079 6.65578C7.62268 6.14125 7.48928 5.62671 7.27966 5.15029C6.86041 4.29274 6.23154 3.66386 5.27871 3.43518C4.17342 3.18744 3.18247 3.43518 2.2868 4.10217C2.22963 4.15934 2.15341 4.21651 2.07718 4.25462C2.05812 4.23557 2.03907 4.23557 2.03907 4.21651C2.00095 4.12123 1.9819 4.02594 1.96284 3.9116C1.88661 3.66386 1.79133 3.56858 1.50548 3.56858C1.20057 3.56858 0.895664 3.58764 0.590757 3.56858C0.362077 3.54952 0.152454 3.58764 0 3.75915C0 7.2656 -2.90711e-07 10.772 0.0190564 14.2594C0.152453 14.4691 0.34302 14.5072 0.571701 14.5072C0.933778 14.4881 1.29586 14.5072 1.65793 14.5072C2.2868 14.5072 2.2868 14.5072 2.2868 13.8783V11.0198C2.2868 10.9436 2.24869 10.8673 2.32492 10.8102C2.82039 11.1913 3.43021 11.439 4.05908 11.4962C4.93568 11.5915 5.73606 11.3628 6.40305 10.772C6.89852 10.3147 7.2606 9.74298 7.45117 9.09505C7.6989 8.33278 7.71796 7.49428 7.66079 6.65578ZM34.7785 8.12315C35.5217 8.25655 36.303 8.27561 37.0462 8.16127C37.4845 8.1041 37.9038 7.9707 38.304 7.76108C38.7613 7.49428 39.0853 7.1322 39.2187 6.63672C39.5617 5.37897 39.0281 4.10217 37.7132 3.64481C37.0653 3.43518 36.3983 3.35895 35.7313 3.45424C34.1496 3.62575 33.1205 4.50236 32.6441 6.00785C32.3202 7.03692 32.3583 8.08504 32.6251 9.13316C32.9681 10.4671 33.8637 11.2485 35.1787 11.5343C35.9409 11.7058 36.7032 11.6677 37.4655 11.5534C37.8657 11.4771 38.2658 11.3819 38.647 11.2294C38.8757 11.1341 38.99 11.0007 38.99 10.7339C38.9709 10.4862 38.99 10.2385 38.99 9.99072C38.99 9.68581 38.8757 9.60958 38.5707 9.66676C38.2849 9.74298 37.999 9.80015 37.7132 9.85732C37.0843 9.99072 36.4555 9.99072 35.8266 9.87638C34.969 9.70487 34.4354 8.98071 34.4736 8.08504C34.5879 8.1041 34.7022 8.1041 34.7785 8.12315ZM21.0195 11.4009H19.6856C19.3425 11.4009 19.2473 11.3056 19.2473 10.9626V4.02594C19.2473 3.94972 19.2663 3.87349 19.2854 3.7782C19.3235 3.66386 19.4378 3.58764 19.5712 3.58764H20.829C21.0005 3.58764 21.1148 3.70198 21.172 3.87349C21.2292 4.00688 21.2482 4.14028 21.3054 4.29274C21.4007 4.29274 21.4578 4.21651 21.5341 4.1784C22.0867 3.83537 22.6584 3.54952 23.3063 3.43518C23.8018 3.3399 24.2973 3.3399 24.8118 3.43518C25.2882 3.53046 25.7075 3.81632 25.9743 4.21651C25.9933 4.25462 26.0124 4.27368 26.0314 4.29274C26.0124 4.31179 26.0314 4.3118 26.0505 4.33085C26.2982 4.1784 26.565 4.02594 26.8318 3.87349C27.5369 3.51141 28.3183 3.3399 29.0996 3.37801C29.6713 3.41613 30.1858 3.56858 30.586 3.98783C30.9671 4.36897 31.1005 4.86444 31.1386 5.37898C31.1577 5.49332 31.1577 5.60766 31.1577 5.722V10.9054C31.1577 11.3628 31.1005 11.42 30.6432 11.42H29.4235C29.3473 11.42 29.2711 11.42 29.1758 11.4009C29.0615 11.3819 28.9471 11.2866 28.9281 11.1722C28.909 11.0579 28.909 10.9436 28.909 10.8483V6.21747C28.9281 6.02691 28.8899 5.8554 28.8518 5.66483C28.7756 5.35992 28.4898 5.13124 28.1658 5.11218C27.575 5.07407 26.9843 5.18841 26.4507 5.43614C26.3745 5.4552 26.3173 5.53143 26.3364 5.60766V10.8673C26.3364 10.9626 26.3364 11.0579 26.3173 11.1532C26.3173 11.2866 26.203 11.4009 26.0696 11.4009C25.9171 11.42 25.7647 11.42 25.6122 11.42H24.545C24.1829 11.42 24.0877 11.3247 24.0877 10.9626V6.21747C24.0877 6.04596 24.0686 5.87445 24.0305 5.70294C23.9543 5.35992 23.6684 5.13124 23.3254 5.11218C22.7346 5.07407 22.1058 5.18841 21.5722 5.4552C21.496 5.47426 21.4388 5.56954 21.4578 5.64577V10.9817C21.4769 11.3247 21.4007 11.4009 21.0195 11.4009ZM10.9004 11.4009H9.60457C9.52835 11.4009 9.45212 11.4009 9.37589 11.3819C9.2425 11.3628 9.14721 11.2675 9.12816 11.1341C9.1091 11.0579 9.1091 10.9817 9.1091 10.8864V4.08311C9.1091 3.62575 9.16627 3.56858 9.62363 3.56858H10.5765C10.8433 3.56858 10.9576 3.66386 11.0338 3.9116C11.1101 4.15934 11.1672 4.40708 11.2244 4.67387C11.3006 4.65482 11.3578 4.6167 11.3959 4.55953C11.5674 4.38802 11.758 4.21651 11.9676 4.045C12.4821 3.64481 13.1301 3.45424 13.797 3.49235C14.0638 3.51141 14.1401 3.58764 14.1591 3.83537C14.1782 4.1784 14.1782 4.52142 14.1782 4.86444C14.1972 4.99784 14.1782 5.13124 14.1591 5.28369C14.121 5.4552 14.0448 5.53143 13.8733 5.55049C13.7399 5.56954 13.6065 5.55049 13.454 5.53143C12.787 5.47426 12.1391 5.60765 11.5102 5.81728C11.3768 5.87445 11.3768 5.96974 11.3768 6.08408V10.8864C11.3768 10.9817 11.3768 11.0579 11.3578 11.1532C11.3387 11.2866 11.2434 11.3819 11.1101 11.3819C11.0529 11.4009 10.9767 11.4009 10.9004 11.4009ZM16.9414 11.3819H15.5503C15.4931 11.3819 15.455 11.3819 15.4169 11.3628C15.2835 11.3438 15.1501 11.2485 15.1501 11.096C15.131 11.0198 15.131 10.9436 15.131 10.8483C15.1501 9.74298 15.1501 8.59957 15.1501 7.45617V3.93066C15.1691 3.68292 15.2454 3.60669 15.4931 3.58764C16.0076 3.56858 16.5412 3.56858 17.0557 3.58764C17.2844 3.58764 17.3606 3.66386 17.3797 3.89255C17.3988 3.98783 17.3988 4.06406 17.3988 4.15934V10.8292C17.3988 10.9436 17.3797 11.0579 17.3797 11.1532C17.3606 11.2866 17.2654 11.3819 17.132 11.3819C17.0557 11.3819 16.9986 11.3819 16.9414 11.3819ZM5.25965 8.73297C5.18342 9.03788 5.03097 9.32373 4.80229 9.53336C4.53549 9.76204 4.23059 9.87638 3.88757 9.87638C3.37304 9.91449 2.87756 9.80015 2.4202 9.55241C2.30586 9.49524 2.24869 9.39996 2.24869 9.26656V7.45617C2.24869 6.8654 2.26775 6.25559 2.24869 5.66483C2.22963 5.53143 2.32492 5.39803 2.45831 5.35992C3.01096 5.09312 3.58266 4.97878 4.17342 5.09312C4.59266 5.15029 4.95474 5.41709 5.12625 5.81728C5.2787 6.14125 5.37399 6.48427 5.39304 6.84635C5.45021 7.47522 5.45021 8.12315 5.25965 8.73297ZM34.5307 6.59861C34.5688 6.35087 34.626 6.12219 34.7213 5.91256C35.0262 5.18841 35.6551 4.94067 36.2839 4.97878C36.4555 4.99784 36.646 5.03595 36.8175 5.09312C37.0843 5.20746 37.2558 5.43614 37.2749 5.722C37.313 5.89351 37.2939 6.06502 37.2368 6.23653C37.1224 6.59861 36.8175 6.75106 36.4745 6.80824C36.2649 6.86541 36.0362 6.88446 35.8266 6.8654C35.4454 6.8654 35.0453 6.82729 34.6451 6.77012C34.5117 6.75106 34.5117 6.75106 34.5307 6.59861ZM16.2935 0.00495709C16.4459 -0.0140997 16.6174 0.0240156 16.7699 0.081186C17.3035 0.252697 17.5893 0.729115 17.5322 1.33893C17.494 1.85347 17.0939 2.27272 16.5793 2.368C16.3506 2.40612 16.122 2.40612 15.9123 2.368C15.3406 2.25366 14.9214 1.83441 14.9595 1.11025C15.0357 0.40515 15.4931 0.00495709 16.2935 0.00495709Z" fill="#00A8E1"/>
</g>
<defs>
<clipPath id="clip0_1801_10970">
<rect width="80" height="24.5882" fill="white"/>
</clipPath>
</defs>
</svg>
