<svg width="80" height="80" viewBox="0 0 80 80" fill="none" xmlns="http://www.w3.org/2000/svg">
<g clip-path="url(#clip0_1801_10075)">
<path d="M40 0C17.9194 0 0 17.9194 0 40C0 62.0806 17.9194 80 40 80C62.0806 80 80 62.0806 80 40C80 17.9194 62.0806 0 40 0Z" fill="#1ED760"/>
<path d="M65.5806 35.9839C64.7419 35.9839 64.2258 35.7742 63.5 35.3548C52.0161 28.5 31.4839 26.8548 18.1936 30.5645C17.6129 30.7258 16.8871 30.9839 16.1129 30.9839C13.9839 30.9839 12.3548 29.3226 12.3548 27.1774C12.3548 24.9839 13.7097 23.7419 15.1613 23.3226C20.8387 21.6613 27.1935 20.871 34.1129 20.871C45.8871 20.871 58.2258 23.3226 67.2419 28.5806C68.5 29.3064 69.3226 30.3065 69.3226 32.2258C69.3226 34.4194 67.5484 35.9839 65.5806 35.9839ZM60.5806 48.2742C59.7419 48.2742 59.1774 47.9032 58.5968 47.5968C48.5161 41.629 33.4839 39.2258 20.1129 42.8548C19.3387 43.0645 18.9194 43.2742 18.1936 43.2742C16.4677 43.2742 15.0645 41.871 15.0645 40.1452C15.0645 38.4194 15.9032 37.2742 17.5645 36.8064C22.0484 35.5484 26.629 34.6129 33.3387 34.6129C43.8065 34.6129 53.9194 37.2097 61.8871 41.9516C63.1935 42.7258 63.7097 43.7258 63.7097 45.129C63.6935 46.871 62.3387 48.2742 60.5806 48.2742ZM56.2419 58.8548C55.5645 58.8548 55.1452 58.6452 54.5161 58.2742C44.4516 52.2097 32.7419 51.9516 21.1774 54.3226C20.5484 54.4839 19.7258 54.7419 19.2581 54.7419C17.6936 54.7419 16.7097 53.5 16.7097 52.1935C16.7097 50.5323 17.6935 49.7419 18.9032 49.4839C32.1129 46.5645 45.6129 46.8226 57.129 53.7097C58.1129 54.3387 58.6935 54.9032 58.6935 56.371C58.6935 57.8387 57.5484 58.8548 56.2419 58.8548Z" fill="black"/>
</g>
<defs>
<clipPath id="clip0_1801_10075">
<rect width="80" height="80" fill="white"/>
</clipPath>
</defs>
</svg>
