<svg width="79" height="24" viewBox="0 0 79 24" fill="none" xmlns="http://www.w3.org/2000/svg">
<g clip-path="url(#clip0_1801_10039)">
<path d="M0 11.7813C0 18.2716 5.36155 23.6332 11.8519 23.6332C18.3422 23.6332 23.7037 18.2716 23.7037 11.7813C23.7037 5.29101 18.3422 0 11.8519 0C5.36155 0 0 5.29101 0 11.7813ZM16.2257 17.284C13.4744 15.5908 9.94709 15.1675 5.85538 16.0847C4.86772 16.2257 4.72663 14.8148 5.57319 14.6737C10.0882 13.6155 13.8977 14.1093 17.0018 16.0141C17.7778 16.5079 17.0018 17.7072 16.2257 17.284ZM17.425 14.1093C14.2504 12.134 9.38272 11.5697 5.64374 12.6984C4.44444 13.0511 4.02116 11.2169 5.14991 10.9347C9.45326 9.6649 14.7443 10.2998 18.4127 12.5573C19.4004 13.1922 18.4127 14.7443 17.425 14.1093ZM5.07937 9.10053C3.88007 9.52381 3.10406 7.47795 4.44444 6.98413C8.6067 5.71429 15.6614 5.92593 20.0353 8.53616C21.2346 9.17108 20.1058 11.1464 18.836 10.4409C15.0265 8.18342 8.67725 7.97178 5.07937 9.10053ZM31.8166 15.5203C30.6173 15.5203 29.4885 15.097 28.5009 14.1093C28.4303 14.1093 28.4303 14.1799 28.4303 14.1799L27.3016 15.5203C27.231 15.5908 27.231 15.6614 27.3016 15.7319C28.5714 16.8607 30.1235 17.425 31.8166 17.425C34.2152 17.425 35.6967 16.0847 35.6967 14.1093C35.6967 12.4162 34.6384 11.4991 32.1693 10.8642C30.1235 10.3704 29.7707 10.0176 29.7707 9.31217C29.7707 8.6067 30.4762 8.18342 31.3933 8.18342C32.3104 8.18342 33.157 8.53616 34.1446 9.24162C34.1446 9.24162 34.2152 9.31217 34.2857 9.31217C34.3563 9.31217 34.3563 9.24162 34.3563 9.24162L35.3439 7.83069C35.4145 7.76014 35.4145 7.76014 35.3439 7.68959C34.2152 6.77249 32.8748 6.27866 31.3933 6.27866C29.2064 6.27866 27.6543 7.61905 27.6543 9.52381C27.6543 11.5697 29.0653 12.2046 31.3228 12.769C33.2981 13.1922 33.5802 13.6155 33.5802 14.321C33.5802 15.097 32.8748 15.5203 31.8166 15.5203ZM38.5185 10.0882V9.17108C38.5185 9.10053 38.448 9.02998 38.3774 9.02998H36.5432C36.4727 9.02998 36.4021 9.10053 36.4021 9.17108V19.5414C36.4021 19.612 36.4727 19.6825 36.5432 19.6825H38.3774C38.448 19.6825 38.5185 19.612 38.5185 19.5414V16.2963C39.224 17.0723 40 17.425 41.0582 17.425C42.963 17.425 44.8677 15.9436 44.8677 13.1217C44.8677 10.2998 42.963 8.88889 41.0582 8.88889C40 8.88889 39.224 9.24162 38.5185 10.0882ZM40.6349 15.5908C39.3651 15.5908 38.448 14.5326 38.448 13.1217C38.448 11.7108 39.3651 10.7231 40.6349 10.7231C41.9048 10.7231 42.7513 11.7108 42.7513 13.1217C42.7513 14.5326 41.9048 15.5908 40.6349 15.5908ZM45.4321 13.1922C45.4321 15.5908 47.3369 17.425 49.806 17.425C52.2751 17.425 54.1799 15.5203 54.1799 13.1217C54.1799 10.7231 52.3457 8.88889 49.8765 8.88889C47.4074 8.88889 45.4321 10.7937 45.4321 13.1922ZM47.5485 13.1217C47.5485 11.7108 48.4656 10.7231 49.806 10.7231C51.1464 10.7231 52.134 11.7813 52.134 13.1922C52.134 14.6032 51.2169 15.5908 49.8765 15.5908C48.5362 15.5908 47.5485 14.5326 47.5485 13.1217ZM57.425 9.02998V6.98413C57.425 6.91358 57.425 6.84303 57.3545 6.84303H55.5203C55.4497 6.84303 55.3792 6.91358 55.3792 6.98413V9.02998H54.4621C54.3915 9.02998 54.321 9.10053 54.321 9.17108V10.7231C54.321 10.7937 54.3915 10.8642 54.4621 10.8642H55.3792V14.9559C55.3792 16.5785 56.1552 17.425 57.7778 17.425C58.4127 17.425 59.0476 17.284 59.5414 17.0018C59.612 17.0018 59.612 16.9312 59.612 16.8607V15.3792C59.612 15.3086 59.612 15.2381 59.5414 15.2381H59.4004C59.0476 15.4497 58.6243 15.5203 58.2716 15.5203C57.7072 15.5203 57.425 15.2381 57.425 14.6737V10.8642H59.5414C59.612 10.8642 59.6825 10.7937 59.6825 10.7231V9.17108C59.6825 9.10053 59.612 9.02998 59.5414 9.02998H57.425ZM66.5256 8.81834C66.5256 8.04233 66.8078 7.76014 67.4427 7.76014C67.7954 7.76014 68.1482 7.76014 68.5009 7.90123H68.5714C68.5714 7.90123 68.642 7.83069 68.642 7.76014V6.27866C68.642 6.20811 68.642 6.13757 68.5714 6.13757C68.2187 5.99647 67.7249 5.92593 67.0194 5.92593C65.3263 5.92593 64.4797 6.91358 64.4797 8.67725V9.02998H63.5626C63.4921 9.02998 63.4215 9.10053 63.4215 9.17108V10.7231C63.4215 10.7937 63.4921 10.8642 63.5626 10.8642H64.4797V17.1429C64.4797 17.2134 64.5503 17.284 64.6208 17.284H66.455C66.5256 17.284 66.5256 17.2134 66.5256 17.1429V10.8642H68.2892L70.8995 17.1429C70.6173 17.7778 70.3351 17.9189 69.9118 17.9189C69.5591 17.9189 69.2063 17.8483 68.8536 17.6367H68.7831L68.7125 17.7072L68.0776 19.0476C68.0776 19.1182 68.0776 19.2593 68.1481 19.2593C68.7831 19.612 69.3474 19.7531 70.0529 19.7531C71.3933 19.7531 72.1693 19.1182 72.8042 17.425L75.9788 9.24162V9.10053C75.9788 9.02998 75.9083 9.02998 75.8377 9.02998H73.933C73.8624 9.02998 73.8624 9.10053 73.8624 9.17108L71.8871 14.6737L69.7707 9.17108C69.7707 9.10053 69.7002 9.02998 69.6296 9.02998H66.5256V8.81834ZM60.6702 9.02998C60.5996 9.02998 60.5291 9.10053 60.5291 9.17108V17.1429C60.5291 17.2134 60.5996 17.284 60.6702 17.284H62.5044C62.575 17.284 62.575 17.2134 62.575 17.1429V9.17108C62.575 9.10053 62.575 9.02998 62.5044 9.02998H60.6702ZM60.2469 6.70194C60.2469 7.40741 60.8818 8.04233 61.5873 8.04233C62.2928 8.04233 62.8571 7.40741 62.8571 6.70194C62.8571 5.99647 62.2928 5.4321 61.5873 5.4321C60.8818 5.4321 60.2469 5.99647 60.2469 6.70194ZM77.5309 11.5697C78.2363 11.5697 78.8713 11.0053 78.8713 10.2998C78.8713 9.59436 78.2363 9.02998 77.5309 9.02998C76.8254 9.02998 76.261 9.59436 76.261 10.2998C76.261 11.0053 76.8254 11.5697 77.5309 11.5697ZM77.5309 9.17108C78.1658 9.17108 78.7302 9.6649 78.7302 10.2998C78.7302 10.9347 78.1658 11.4286 77.5309 11.4286C76.8959 11.4286 76.4021 10.9347 76.4021 10.2998C76.4021 9.6649 76.8959 9.17108 77.5309 9.17108ZM77.813 10.4409C78.0247 10.3704 78.1658 10.2293 78.1658 10.0176C78.1658 9.73545 77.8836 9.59436 77.6014 9.59436H77.037V10.9347H77.3192V10.5115H77.6014L77.8836 10.9347H78.2363L77.813 10.4409ZM77.6014 9.806C77.7425 9.806 77.8836 9.87654 77.8836 10.0176C77.8836 10.1587 77.7425 10.2293 77.6014 10.2293H77.3192V9.806H77.6014Z" fill="black"/>
</g>
<defs>
<clipPath id="clip0_1801_10039">
<rect width="78.8713" height="23.6332" fill="white"/>
</clipPath>
</defs>
</svg>
