<svg width="80" height="9" viewBox="0 0 80 9" fill="none" xmlns="http://www.w3.org/2000/svg">
<g clip-path="url(#clip0_1801_9854)">
<path d="M19.1255 0.0858445L23.8084 8.15116H20.6865L19.1255 5.46272L17.5662 8.15116H14.4427L19.1255 0.0858445Z" fill="#132235"/>
<path d="M0 0.325547V2.38035H2.07796V8.15018H4.52312V2.38035H6.62249V0.325547H0Z" fill="#132235"/>
<path d="M37.4675 4.06218C37.018 3.67742 36.3923 3.43019 35.6464 3.24354C35.4438 3.19278 35.2413 3.12893 35.0487 3.04542C34.8873 2.97666 34.7062 2.89971 34.6025 2.75399C34.5382 2.66066 34.5432 2.54605 34.5959 2.45108C34.6551 2.33811 34.7622 2.28736 34.884 2.25625C35.0125 2.22514 35.1886 2.23169 35.3204 2.25625C35.4669 2.28572 35.6102 2.32993 35.7501 2.38232C36.0728 2.50675 36.3758 2.68195 36.6623 2.87842L36.9027 3.04706L38.0602 1.38029L37.8445 1.21165C37.0591 0.581296 36.0844 0.22764 34.9631 0.22764H34.9565C34.1562 0.22764 33.4482 0.460136 32.9345 0.895656C32.4241 1.32626 32.1161 1.95826 32.1161 2.69177V2.7458C32.1161 3.53661 32.4076 4.08347 32.89 4.45841C33.3708 4.83007 34.0212 5.04128 34.7523 5.21975C34.9466 5.26559 35.1491 5.3098 35.3319 5.39985C35.5064 5.48335 35.7287 5.64054 35.7287 5.86157V5.87467C35.7254 5.98273 35.6892 6.05968 35.5789 6.13172C35.4669 6.20377 35.271 6.26435 34.9696 6.26435C34.4559 6.26435 33.8829 5.96308 33.2506 5.45225L33.0267 5.26559L31.7127 6.83248L31.9235 7.02405C32.8538 7.84925 34.0377 8.25529 35.2084 8.25529C36.0416 8.25529 36.7792 8.04408 37.3193 7.60856C37.8594 7.17632 38.1739 6.51649 38.1739 5.72404V5.67983C38.1755 4.97579 37.9153 4.44367 37.4675 4.06218Z" fill="#132235"/>
<path d="M28.6083 0.328657V3.8472L25.9145 0.328657H23.9995V8.15001H26.443V4.48902L29.2504 8.15001H31.0534V0.328657H28.6083Z" fill="#132235"/>
<path d="M9.93407 2.34974H10.7442C11.0949 2.35956 11.3369 2.42833 11.4802 2.54294C11.6234 2.65755 11.7074 2.8311 11.7074 3.10944C11.6992 3.34358 11.6284 3.51058 11.4868 3.63174C11.3452 3.75454 11.1147 3.83476 10.7705 3.84131H9.93407V2.34974ZM14.2645 8.15067L12.8666 5.31652C13.4478 4.99069 13.8924 4.45857 14.062 3.80038C14.1246 3.55806 14.1526 3.29609 14.1526 3.04722V3.00302C14.1526 2.26132 13.9089 1.61132 13.4429 1.1496C12.8962 0.602745 12.0911 0.326042 11.1114 0.326042H7.48892V8.15067H9.93407V5.8339H10.2782C10.3276 5.8339 10.377 5.83226 10.4264 5.83062L11.5494 8.15067H14.2645Z" fill="#132235"/>
<path d="M45.1333 5.69695L43.5625 8.43789L38.8297 0.240445C41.9105 0.21302 41.9097 0.200989 42.7934 1.6515L45.1333 5.69695Z" fill="url(#paint0_linear_1801_9854)"/>
<path d="M47.2768 0.233797C45.201 0.23289 45.105 0.382316 44.3317 1.65151L43.5426 3.01598H46.693L48.2955 0.240491C47.9104 0.237075 47.5734 0.233918 47.2768 0.233797Z" fill="#1E6DEE"/>
<path d="M51.0151 0.26393L48.9773 0.263838V8.22111L51.0151 8.22121V0.26393Z" fill="#1E6DEE"/>
<path d="M57.6678 0.708206C56.979 0.306484 56.0229 0.0527628 55.2416 0.0527628C53.6893 0.0527628 52.5687 1.10993 52.5687 2.72739C52.5687 4.27085 53.4014 4.60914 54.6659 4.97915C55.0977 5.10601 55.8893 5.30687 55.8893 5.88831C55.8893 6.44861 55.3855 6.69176 54.9126 6.69176C54.2239 6.69176 53.6276 6.32175 53.1239 5.86717L52.2603 7.53749C53.0519 8.10836 54.008 8.44665 54.9846 8.44665C55.7659 8.44665 56.578 8.22464 57.1846 7.69606C57.8014 7.15691 57.9865 6.34289 57.9865 5.55002C57.9865 4.26028 57.1537 3.69998 56.0743 3.37226L55.5603 3.21368C55.2108 3.09739 54.6659 2.91768 54.6659 2.45253C54.6659 2.00852 55.1594 1.78652 55.5295 1.78652C56.0229 1.78652 56.4958 1.99795 56.8659 2.3151L57.6678 0.708206Z" fill="#1E6DEE"/>
<path d="M66.7553 0C64.5462 0 62.5101 1.67013 62.5101 4.05006C62.5101 6.59699 64.2917 8.39237 66.7553 8.39237C69.2189 8.39237 71.0005 6.59699 71.0005 4.05006C71.0005 1.67013 68.9644 0 66.7553 0ZM66.7553 1.98327C67.9464 1.98327 68.9237 2.97491 68.9237 4.06049C68.9237 5.41747 67.9464 6.4091 66.7553 6.4091C65.5642 6.4091 64.5869 5.41747 64.5869 4.06049C64.5869 2.97491 65.5642 1.98327 66.7553 1.98327Z" fill="#1E6DEE"/>
<path d="M72.2991 8.21355H74.3036V3.3425H74.3241L77.9955 8.21355H80V0.263838H77.9955V5.12434H77.9751L74.3036 0.263838H72.2991L72.2991 8.21355Z" fill="#1E6DEE"/>
<path d="M61.237 0.263929L59.1993 0.263837V8.22111L61.237 8.22121V0.263929Z" fill="#1E6DEE"/>
</g>
<defs>
<linearGradient id="paint0_linear_1801_9854" x1="27.6643" y1="-0.256805" x2="27.7998" y2="5.34283" gradientUnits="userSpaceOnUse">
<stop stop-color="#D60992"/>
<stop offset="1" stop-color="#1E6DEE"/>
</linearGradient>
<clipPath id="clip0_1801_9854">
<rect width="80" height="8.44665" fill="white"/>
</clipPath>
</defs>
</svg>
