<svg width="80" height="11" viewBox="0 0 80 11" fill="none" xmlns="http://www.w3.org/2000/svg">
<g clip-path="url(#clip0_1801_10144)">
<path fill-rule="evenodd" clip-rule="evenodd" d="M43.5116 9.61212C42.9818 8.40122 42.6282 7.59078 41.8719 5.85298C41.739 5.54768 41.5693 5.15877 41.4947 4.98873C41.4201 4.81869 41.0282 3.92071 40.6238 2.99322C40.2194 2.06573 39.7631 1.02028 39.6098 0.669997C39.4565 0.319711 39.3286 0.00975474 39.3286 0.000423855C39.9775 -0.000698728 40.5211 0.000807645 41.1346 0.000423855L41.3882 0.604241C41.5248 0.929514 41.8332 1.64977 42.0701 2.20627C42.307 2.76276 42.6619 3.5975 42.8587 4.06124C43.0556 4.52499 43.3783 5.28384 43.5758 5.74759C43.7734 6.21133 43.9565 6.64135 43.9827 6.70318L44.0305 6.81561L44.0869 6.68913C44.1494 6.54917 44.8735 4.85277 45.1066 4.30014C45.1882 4.10692 45.5162 3.33541 45.8356 2.58569C46.155 1.83597 46.5327 0.947608 46.6749 0.611549L46.9336 0.000535123L47.84 0.000248171C48.3385 5.62759e-05 48.7464 0.00487343 48.7464 0.0108625C48.7464 0.0168592 48.7093 0.102224 48.664 0.200573C48.5903 0.360468 48.2751 1.08156 47.1667 3.6256C46.9815 4.0507 46.7606 4.55661 46.6759 4.74983C46.3622 5.46566 46.2592 5.70138 45.4909 7.46203C45.0593 8.45136 44.5576 9.60229 44.3761 10.0197C44.1946 10.437 44.042 10.783 44.037 10.7886C43.8289 10.3746 43.6642 9.96094 43.5116 9.61212Z" fill="#D60D8C"/>
<path fill-rule="evenodd" clip-rule="evenodd" d="M60.0641 9.45328C60.0535 9.44274 60.0449 7.63395 60.0449 5.43374V1.43335H61.7034L61.6891 9.45754L60.8862 9.46498C60.4446 9.46908 60.0746 9.46382 60.0641 9.45328Z" fill="#D60D8C"/>
<path fill-rule="evenodd" clip-rule="evenodd" d="M49.412 9.45328C49.4015 9.44274 49.3929 7.63395 49.3929 5.43374V1.43335H51.0513L51.037 9.45754L50.2341 9.46498C49.7925 9.46908 49.4226 9.46382 49.412 9.45328Z" fill="#D60D8C"/>
<path fill-rule="evenodd" clip-rule="evenodd" d="M79.8033 9.47641C79.7028 9.38691 79.1716 8.91569 78.6228 8.42925C77.5349 7.46488 75.0378 5.25018 74.6754 4.92817L74.4491 4.72709L74.4347 9.47159H73.619C72.9922 9.47159 72.8001 9.46346 72.7898 9.43646C72.7825 9.41714 72.7797 7.56342 72.7837 5.31708L72.7909 1.23284L75.5829 3.62371C77.1185 4.9387 78.3832 6.01459 78.3935 6.01459C78.4037 6.01459 78.4087 4.98382 78.4047 3.72397L78.3973 1.43335H80V5.53679C80 7.79368 79.9968 9.63998 79.993 9.63969C79.9891 9.6394 79.9037 9.56592 79.8033 9.47641Z" fill="#D60D8C"/>
<path fill-rule="evenodd" clip-rule="evenodd" d="M66.5514 9.59705C65.6451 9.42984 64.9008 9.04859 64.3029 8.44531C63.4868 7.62171 63.0649 6.48653 63.1175 5.25573C63.1381 4.77576 63.1948 4.45867 63.336 4.03393C63.5479 3.39687 63.8438 2.91714 64.3164 2.44447C64.9227 1.83805 65.5416 1.50722 66.4249 1.31734C66.8256 1.23122 67.6457 1.22412 68.0691 1.30309C68.6679 1.4148 69.217 1.63993 69.7133 1.97728C69.9842 2.16142 70.5307 2.70782 70.7154 2.97917C71.025 3.43412 71.2498 3.97 71.3757 4.55309C71.431 4.80958 71.4392 4.92728 71.4383 5.45247C71.4373 5.96608 71.428 6.09847 71.376 6.33484C71.1842 7.20768 70.8268 7.87938 70.244 8.4623C69.9545 8.75188 69.5207 9.06268 69.1725 9.23001C68.9292 9.34693 68.46 9.5059 68.1675 9.57049C67.866 9.63706 66.8581 9.65363 66.5514 9.59705ZM67.8343 8.05227C68.9315 7.82952 69.7124 6.85917 69.7869 5.62598C69.8838 4.02003 68.7998 2.78485 67.2917 2.7828C66.2927 2.78143 65.4781 3.2925 65.0491 4.18972C64.6401 5.04543 64.7039 6.20614 65.203 6.98746C65.5993 7.60779 66.2325 8.00153 66.9835 8.09473C67.2078 8.12257 67.5793 8.10403 67.8343 8.05227Z" fill="#D60D8C"/>
<path fill-rule="evenodd" clip-rule="evenodd" d="M55.2266 9.60991C54.2217 9.51418 53.1782 9.07905 52.4002 8.43128L52.2816 8.33252L52.7976 7.70937C53.0814 7.36663 53.3263 7.0859 53.3417 7.08552C53.3572 7.08513 53.4925 7.17602 53.6423 7.28748C54.318 7.78992 55.0238 8.04241 55.7554 8.04339C56.3214 8.04416 56.6831 7.89823 56.859 7.59817C56.9219 7.49074 56.9345 7.43577 56.9344 7.26888C56.9341 7.03279 56.8942 6.94061 56.726 6.78859C56.5117 6.59499 56.1824 6.46631 55.2854 6.22556C53.862 5.8435 53.3049 5.54971 52.9349 4.98595C52.7639 4.7254 52.6634 4.41574 52.6251 4.03091C52.574 3.51872 52.6497 3.0679 52.857 2.64867C53.419 1.51189 54.8905 1.01738 56.5879 1.39479C57.1546 1.52078 57.651 1.7322 58.1197 2.04719C58.5233 2.31845 58.4985 2.27665 58.3678 2.46561C58.3061 2.55484 58.1249 2.81756 57.9651 3.04943C57.8053 3.28131 57.6448 3.51165 57.6084 3.56132L57.5423 3.65162L57.3046 3.49672C56.9896 3.29138 56.4932 3.05592 56.1804 2.96349C55.9871 2.90635 55.8429 2.88526 55.5686 2.874C55.1439 2.85654 54.9364 2.89207 54.726 3.01835C54.5153 3.14479 54.4152 3.30086 54.4009 3.52503C54.3868 3.74727 54.4291 3.88132 54.5591 4.02513C54.7409 4.22636 55.0882 4.36526 56.0837 4.63483C57.2356 4.94679 57.7849 5.20904 58.1933 5.64207C58.6073 6.08108 58.7868 6.72143 58.6982 7.4433C58.534 8.78092 57.5082 9.57266 55.8715 9.62486C55.6704 9.63126 55.3802 9.62457 55.2266 9.60991Z" fill="#D60D8C"/>
<path fill-rule="evenodd" clip-rule="evenodd" d="M14.7925 9.06903C15.3267 8.15526 15.8645 7.24149 16.3987 6.32772C16.6587 6.80569 16.9188 7.28366 17.1789 7.76515C16.3846 8.20095 15.5868 8.63323 14.7925 9.06903Z" fill="#FCB913"/>
<path fill-rule="evenodd" clip-rule="evenodd" d="M16.3987 6.32772C17.4636 6.32772 18.5249 6.32772 19.5898 6.3242C18.7885 6.80218 17.9837 7.28366 17.1824 7.76164C16.9223 7.28366 16.6623 6.80569 16.4022 6.3242L16.3987 6.32772Z" fill="#6DB33F"/>
<path fill-rule="evenodd" clip-rule="evenodd" d="M17.1789 7.76515C17.4249 8.20095 17.6709 8.63675 17.9169 9.07255C18.4757 8.15526 19.031 7.24149 19.5898 6.3242C18.7885 6.80218 17.9837 7.28366 17.1824 7.76164L17.1789 7.76515Z" fill="#C0D72F"/>
<path fill-rule="evenodd" clip-rule="evenodd" d="M14.7925 9.06903C15.5868 8.63323 16.3846 8.20095 17.1789 7.76515C17.4249 8.20095 17.6709 8.63675 17.9169 9.07255C16.8766 9.07255 15.8363 9.06903 14.7925 9.06903Z" fill="#FFFF4F"/>
<path fill-rule="evenodd" clip-rule="evenodd" d="M16.3987 6.32772C16.9258 5.41043 17.4495 4.48964 17.9767 3.57235C18.5144 4.48964 19.0521 5.41043 19.5898 6.32772C18.5249 6.32772 17.4636 6.32772 16.3987 6.33123V6.32772Z" fill="#018440"/>
<path fill-rule="evenodd" clip-rule="evenodd" d="M17.9767 3.56884C18.5144 3.56884 19.0521 3.56884 19.5898 3.56884C19.5898 4.48612 19.5898 5.40692 19.5898 6.3242C19.0521 5.40692 18.5144 4.48612 17.9767 3.56884Z" fill="#0079C0"/>
<path fill-rule="evenodd" clip-rule="evenodd" d="M17.9767 3.56884C18.5144 2.65155 19.0521 1.73427 19.5898 0.820497C19.5898 1.73778 19.5898 2.65507 19.5898 3.56884C19.0521 3.56884 18.5144 3.56884 17.9767 3.56884Z" fill="#005DAA"/>
<path fill-rule="evenodd" clip-rule="evenodd" d="M22.7494 6.32772C22.2292 5.41043 21.7091 4.48964 21.1889 3.57235C20.6547 4.48964 20.1205 5.41043 19.5863 6.32772C20.6407 6.32772 21.695 6.32772 22.7494 6.33123V6.32772Z" fill="#00498E"/>
<path fill-rule="evenodd" clip-rule="evenodd" d="M21.1889 3.56884C20.6547 3.56884 20.1205 3.56884 19.5898 3.56884C19.5898 4.48612 19.5898 5.40692 19.5898 6.3242C20.124 5.40692 20.6582 4.48612 21.1924 3.56884H21.1889Z" fill="#005DAA"/>
<path fill-rule="evenodd" clip-rule="evenodd" d="M21.1889 3.56884C20.6547 2.65155 20.124 1.73427 19.5898 0.820497C19.5898 1.73778 19.5898 2.65507 19.5898 3.56884C20.124 3.56884 20.6582 3.56884 21.1889 3.56884Z" fill="#00498E"/>
<path fill-rule="evenodd" clip-rule="evenodd" d="M19.5898 6.3242C20.1451 7.24149 20.6969 8.15526 21.2522 9.07255C21.7512 8.15877 22.2538 7.24149 22.7529 6.32772C21.6985 6.32772 20.6442 6.32772 19.5898 6.3242Z" fill="#A9218D"/>
<path fill-rule="evenodd" clip-rule="evenodd" d="M22.7494 6.32772C22.2503 7.24149 21.7477 8.15877 21.2487 9.07255C22.2784 9.07255 23.3117 9.06903 24.3414 9.06903C23.8108 8.15526 23.2801 7.24149 22.7529 6.32772H22.7494Z" fill="#D50C8C"/>
<path fill-rule="evenodd" clip-rule="evenodd" d="M0 1.063C0 1.76941 0 2.47231 0 3.17873C0.720473 3.17873 1.44095 3.17873 2.16142 3.17873C2.16142 5.14333 2.16142 7.10794 2.16142 9.07255C2.9803 9.07255 3.79918 9.07255 4.61806 9.07255C4.61806 7.10794 4.61806 5.14333 4.61806 3.17873C5.33853 3.17873 6.059 3.17873 6.77947 3.17873C6.77947 2.47231 6.77947 1.76941 6.77947 1.063C4.51965 1.063 2.26334 1.063 0.0035145 1.063H0Z" fill="#214497"/>
<path fill-rule="evenodd" clip-rule="evenodd" d="M7.71082 1.063C7.71082 3.7305 7.71082 6.40152 7.71082 9.06903C8.54375 9.06903 9.3802 9.06903 10.2131 9.06903C10.2131 8.28178 10.2131 7.49805 10.2131 6.7108C10.3783 6.7108 10.54 6.7108 10.7052 6.7108C11.0953 7.49805 11.4854 8.28178 11.8755 9.06903C12.7612 9.06903 13.6468 9.06903 14.5325 9.06903C14.0756 8.10957 13.6152 7.15363 13.1583 6.19417C13.2075 6.17308 13.2602 6.14848 13.3656 6.07819C13.4711 6.0079 13.6292 5.88489 13.7874 5.71268C13.9455 5.54047 14.1072 5.31554 14.2197 5.0871C14.3321 4.85514 14.3954 4.61616 14.427 4.30688C14.4587 3.99761 14.4587 3.61804 14.4235 3.30525C14.3884 2.99246 14.3146 2.74293 14.181 2.4934C14.0475 2.24738 13.8507 2.00137 13.6117 1.79401C13.3727 1.58666 13.095 1.41796 12.733 1.30198C12.371 1.186 11.9247 1.12626 11.5487 1.09463C11.1726 1.063 10.8668 1.063 10.2377 1.063C9.60865 1.063 8.65973 1.063 7.71082 1.063ZM10.2131 3.09086C10.2131 3.64264 10.2131 4.19793 10.2131 4.74971C10.3713 4.74971 10.5294 4.74971 10.7017 4.74971C10.8739 4.74971 11.0601 4.74971 11.2429 4.71808C11.4256 4.68645 11.6084 4.62319 11.7349 4.52478C11.8614 4.42286 11.9352 4.28579 11.9739 4.13467C12.0091 3.98355 12.0091 3.82188 11.9669 3.67427C11.9247 3.52666 11.8404 3.40014 11.7138 3.30525C11.5873 3.21036 11.4221 3.15061 11.2534 3.12249C11.0883 3.09438 10.9231 3.09438 10.7473 3.09438C10.5751 3.09438 10.3924 3.09438 10.2096 3.09438L10.2131 3.09086Z" fill="#214497"/>
<path fill-rule="evenodd" clip-rule="evenodd" d="M24.5523 1.063C24.5523 3.7305 24.5523 6.40152 24.5523 9.06903C25.3712 9.06903 26.1901 9.06903 27.0054 9.06903C27.0054 7.80732 27.0054 6.5421 27.0054 5.2804C27.9719 6.5421 28.9419 7.80732 29.9084 9.06903C30.5129 9.06903 31.1139 9.06903 31.7184 9.06903C31.7184 6.40152 31.7184 3.7305 31.7184 1.063C30.8995 1.063 30.0806 1.063 29.2617 1.063C29.2617 2.29307 29.2617 3.51963 29.2617 4.74971C28.3269 3.51963 27.392 2.29307 26.4607 1.063C25.8246 1.063 25.1849 1.063 24.5488 1.063H24.5523Z" fill="#214497"/>
<path fill-rule="evenodd" clip-rule="evenodd" d="M33.7779 6.21526C33.3245 6.74243 32.8676 7.26961 32.4142 7.80029C32.6181 7.97602 32.8219 8.15526 33.0293 8.3099C33.2366 8.46454 33.4475 8.59457 33.683 8.71758C33.9185 8.84059 34.182 8.95657 34.4948 9.04794C34.8111 9.13932 35.1766 9.20258 35.5281 9.23421C35.876 9.26584 36.2064 9.26584 36.4946 9.24475C36.7828 9.22015 37.0323 9.17447 37.2853 9.0866C37.5384 8.99874 37.7985 8.8687 38.0128 8.72109C38.2272 8.57349 38.3994 8.40479 38.54 8.23609C38.6771 8.0674 38.786 7.8987 38.8669 7.70189C38.9512 7.50508 39.011 7.27663 39.0426 6.99899C39.0742 6.71783 39.0742 6.38395 39.0285 6.09928C38.9829 5.8146 38.895 5.57913 38.7544 5.36123C38.6138 5.14685 38.424 4.95003 38.1745 4.7708C37.925 4.59507 37.6192 4.4334 37.2889 4.30688C36.9585 4.18036 36.6035 4.08547 36.3364 4.00815C36.0693 3.93083 35.8901 3.86757 35.7425 3.79728C35.5949 3.72699 35.4754 3.64967 35.4156 3.54072C35.3559 3.43177 35.3559 3.28768 35.4086 3.18576C35.4613 3.08735 35.5703 3.03112 35.7179 3.003C35.869 2.97489 36.0623 2.9784 36.2415 3.01003C36.4208 3.04166 36.5895 3.10141 36.7687 3.18224C36.948 3.26307 37.1342 3.36499 37.3064 3.47043C37.4751 3.57586 37.6263 3.68481 37.7739 3.79376C38.164 3.24199 38.5541 2.69021 38.9442 2.13492C38.6982 1.93811 38.4557 1.74481 38.2272 1.59369C37.9988 1.44256 37.7844 1.34064 37.5665 1.25278C37.3486 1.16492 37.1307 1.09463 36.9093 1.04191C36.6879 0.989193 36.4594 0.954047 36.1748 0.936475C35.8901 0.918902 35.5457 0.918903 35.2012 0.97162C34.8568 1.02434 34.5124 1.12977 34.2312 1.26332C33.9466 1.39687 33.7252 1.56206 33.56 1.71669C33.3983 1.87133 33.2929 2.01191 33.1945 2.17709C33.0961 2.34228 32.9977 2.53206 32.9344 2.70778C32.8711 2.88351 32.8395 3.04869 32.8254 3.22793C32.8114 3.40717 32.8149 3.60047 32.8676 3.85703C32.9203 4.11358 33.0223 4.42989 33.1699 4.68996C33.3175 4.95003 33.5037 5.15036 33.7427 5.32257C33.9817 5.4983 34.2734 5.64239 34.5862 5.7654C34.9025 5.88841 35.2434 5.9833 35.5211 6.07116C35.7987 6.15902 36.0166 6.23986 36.1677 6.30663C36.3189 6.37341 36.4032 6.42613 36.463 6.48587C36.5227 6.54562 36.5508 6.60888 36.5684 6.69674C36.5824 6.78109 36.5824 6.88652 36.5473 6.97087C36.5086 7.05522 36.4348 7.11497 36.347 7.15714C36.2591 7.20283 36.1572 7.23095 36.0307 7.245C35.9041 7.25906 35.7495 7.25906 35.5984 7.23797C35.4473 7.21689 35.2997 7.17471 35.1661 7.12551C35.0326 7.07279 34.9095 7.01305 34.7865 6.94276C34.6635 6.87247 34.5405 6.79163 34.3718 6.67214C34.2031 6.54913 33.9887 6.38395 33.7779 6.21526Z" fill="#214497"/>
</g>
<defs>
<clipPath id="clip0_1801_10144">
<rect width="80" height="10.7886" fill="white"/>
</clipPath>
</defs>
</svg>
