<svg width="80" height="27" viewBox="0 0 80 27" fill="none" xmlns="http://www.w3.org/2000/svg">
<g clip-path="url(#clip0_1801_10815)">
<path d="M22.9568 0.0141534H23.5088C25.0515 0.155687 26.297 1.37288 26.7499 2.81653C27.5708 5.54813 27.2312 8.47789 26.4527 11.1812C24.7119 17.3662 20.5791 22.9144 15.0026 26.1413C14.394 26.5093 13.7147 26.7782 13.007 26.8349C11.5916 26.8915 10.2188 25.9007 9.79416 24.5562C9.58186 23.9051 9.66678 23.2116 9.73755 22.5464C10.0348 19.7157 10.3603 16.885 10.6575 14.0543C10.7991 12.6815 11.1104 11.3227 11.0821 9.92154C11.068 8.67604 10.2188 7.52961 9.08649 7.03424C7.75607 6.56718 6.04351 6.87855 5.20846 8.09575C4.43002 9.21387 4.28848 10.8698 5.1943 11.9596C5.74629 12.7239 6.80779 12.9504 7.27485 13.7854C8.12406 15.1583 7.00594 17.2247 5.36414 17.1822C3.72235 17.0973 2.44854 15.866 1.48611 14.6346C0.62275 13.559 0.240608 12.2002 0 10.8557V9.97815C0.113227 7.92591 0.877512 5.88782 2.37777 4.45832C4.06203 2.75991 6.56718 2.05224 8.9025 2.36362C12.2427 2.7033 15.1725 5.53398 15.5404 8.88834C15.8377 12.3559 15.0734 15.7952 14.6629 19.2203C14.5356 19.6166 14.8611 20.0695 15.2857 19.928C19.2486 16.8426 21.9661 12.1719 22.6879 7.18993C21.315 6.77948 19.9139 5.8312 19.6874 4.31679C19.2769 2.29285 20.8763 0.127381 22.971 0" fill="#FC0F3A"/>
<path d="M31.279 3.86388C32.8501 3.17036 34.7466 4.72724 34.3503 6.39734C34.1239 8.15236 31.647 8.83172 30.4723 7.55792C29.34 6.48226 29.7929 4.3451 31.279 3.86388Z" fill="#FC0F3A"/>
<path d="M47.4705 5.15184C47.9942 3.66573 50.1031 3.32605 51.2212 4.33094C51.8723 4.88292 52.0846 5.84536 51.8298 6.63795C50.6692 10.6292 49.5369 14.6205 48.3622 18.5976C48.2207 19.1637 47.881 19.8006 48.2207 20.3667C48.6453 20.9612 49.5228 20.947 50.1031 20.6074C51.3344 19.8572 52.1129 18.5693 52.5516 17.2247C53.2451 15.1583 53.8537 13.0777 54.3916 10.9689C54.5897 10.1197 55.2974 9.44032 56.1749 9.31294C57.3355 8.97326 58.581 9.82246 58.8782 10.9547C59.048 11.6341 58.7225 12.2852 58.5668 12.9221C57.9582 15.1583 57.2789 17.3804 56.6844 19.6166C56.4721 20.5507 57.7176 21.1452 58.4253 20.6357C60.2369 19.4185 61.0154 17.2388 61.7796 15.2857C62.6572 13.4174 63.8319 11.5916 65.5869 10.4311C67.9505 8.78926 71.4747 9.00157 73.5411 11.0255C73.994 11.0255 74.4186 10.9406 74.8574 10.8132C74.4328 8.84588 76.7257 7.13332 78.4948 8.01083C80.1225 8.63358 80.4905 10.9689 79.3016 12.1719C78.1127 13.4599 76.2727 13.658 74.6876 14.1817C74.7442 17.2813 73.6119 20.6215 71.0218 22.4756C69.38 23.6786 67.2146 23.7494 65.2755 23.3956C63.7187 23.1267 62.275 22.1501 61.6381 20.664C60.5908 22.1359 59.048 23.3531 57.2081 23.5796C55.4248 23.9476 53.3018 23.4097 52.3676 21.7396C51.2212 22.9568 49.5936 23.707 47.9093 23.707C46.3383 23.8343 44.6116 23.2257 43.8048 21.7962C42.3045 23.1267 40.1957 23.7777 38.2001 23.5654C36.813 23.438 35.6241 22.4048 35.1854 21.1027C34.2513 22.2208 33.0624 23.2399 31.5904 23.5371C29.9628 23.9193 28.0521 23.7353 26.8066 22.5322C25.8017 21.5132 25.7168 19.9421 26.0706 18.6259C26.8349 16.0075 27.5708 13.375 28.3351 10.7424C28.6607 9.66678 29.892 8.98741 30.9818 9.29879C32.1424 9.55355 33.0058 10.7849 32.6944 11.9738C32.0009 14.5355 31.2507 17.069 30.5289 19.6166C30.2883 20.2394 30.9677 20.8763 31.5763 20.8055C32.1141 20.8338 32.5387 20.4517 32.9067 20.1261C34.322 18.6825 35.0722 16.7718 35.7232 14.9035C36.6998 12.5965 38.285 10.1905 40.8326 9.48278C42.531 9.15725 44.4134 9.48278 45.8429 10.4877C46.3807 8.70434 46.9044 6.92101 47.4422 5.13769M41.7243 13.1061C41.0166 13.4316 40.5071 14.0685 40.0542 14.6912C39.3182 15.7669 38.752 17.0832 38.9785 18.3994C39.0634 19.1212 39.672 19.7865 40.4221 19.8006C41.427 19.8148 42.4744 19.3902 43.0688 18.5551C43.8048 17.5361 44.3143 16.3189 44.3002 15.0451C44.2153 14.4365 44.102 13.743 43.6067 13.3184C43.0971 12.8513 42.3187 12.7947 41.7101 13.0919M68.6299 13.3184C67.1155 13.7288 66.238 15.2149 65.7568 16.6161C65.4312 17.5078 65.1199 18.6542 65.7851 19.4751C66.2663 20.0837 67.1296 20.0412 67.809 19.928C69.1253 19.4892 70.0028 18.2579 70.4698 16.9982C70.7529 16.1349 71.0643 15.1724 70.7246 14.2666C70.4415 13.4316 69.4225 13.0919 68.6299 13.3042" fill="#FC0F3A"/>
<path d="M57.2647 3.82142C58.4111 3.24113 59.9539 3.86388 60.3785 5.08107C60.8597 6.19919 60.2086 7.65699 59.0339 7.98252C57.9865 8.37882 56.642 7.8976 56.189 6.83609C55.6512 5.76044 56.1607 4.30263 57.2647 3.82142Z" fill="#FC0F3A"/>
</g>
<defs>
<clipPath id="clip0_1801_10815">
<rect width="80" height="26.8372" fill="white"/>
</clipPath>
</defs>
</svg>
