<svg width="80" height="15" viewBox="0 0 80 15" fill="none" xmlns="http://www.w3.org/2000/svg">
<g clip-path="url(#clip0_1801_10114)">
<path d="M58.2066 2.38684C57.8035 2.01719 57.3197 1.77075 56.6747 1.60646C56.0297 1.44217 55.2235 1.36003 54.256 1.36003H49.2572C48.2897 1.36003 47.4835 1.44217 46.8385 1.60646C46.1935 1.77075 45.6694 2.01719 45.3066 2.38684C44.9035 2.75649 44.6616 3.20828 44.5004 3.82437C44.3391 4.39938 44.2585 5.13868 44.2585 5.96013V10.3549C44.2585 11.2174 44.3391 11.9156 44.5004 12.4906C44.6616 13.0656 44.9438 13.5585 45.3066 13.8871C45.7097 14.2567 46.1935 14.5032 46.8385 14.6674C47.4835 14.8317 48.2897 14.9139 49.2572 14.9139H54.256C55.2235 14.9139 56.0297 14.8317 56.6747 14.6674C57.3197 14.5032 57.8438 14.2567 58.2066 13.8871C58.6097 13.5174 58.8516 13.0656 59.0129 12.4906C59.1741 11.9156 59.2547 11.1763 59.2547 10.3549V5.91905C59.2547 5.09761 59.1741 4.35831 59.0129 3.78329C58.8919 3.20828 58.6097 2.71542 58.2066 2.38684ZM56.3522 10.1906C56.3522 10.6424 56.3119 10.9709 56.2313 11.2584C56.1507 11.546 56.0297 11.7513 55.8685 11.9156C55.7072 12.0799 55.4654 12.2031 55.1832 12.2442C54.901 12.2853 54.5382 12.3263 54.0947 12.3263H49.3379C48.8944 12.3263 48.4913 12.2853 48.2091 12.2442C47.9269 12.2031 47.685 12.0799 47.5238 11.9156C47.3625 11.7513 47.2416 11.546 47.2013 11.2584C47.161 10.9709 47.1207 10.6013 47.1207 10.1906V6.08334C47.1207 5.67262 47.161 5.30297 47.2013 5.05654C47.2416 4.76903 47.3625 4.56367 47.5238 4.39938C47.685 4.23509 47.9269 4.11187 48.2091 4.02973C48.4913 3.94758 48.8944 3.94758 49.3379 3.94758H54.135C54.5785 3.94758 54.901 3.98866 55.2235 4.02973C55.5057 4.11187 55.7475 4.19402 55.9088 4.39938C56.07 4.56367 56.191 4.8101 56.2716 5.05654C56.3522 5.34404 56.3925 5.67262 56.3925 6.08334V10.1906H56.3522Z" fill="black"/>
<path d="M9.6993 11.5792L3.5125 1.33106H0L7.50399 13.6532C7.74348 14.0599 8.02288 14.3852 8.3422 14.5885C8.66152 14.7919 9.10058 14.9139 9.65939 14.9139C10.2182 14.9139 10.6573 14.7919 10.9766 14.5885C11.2959 14.3852 11.5753 14.0599 11.8148 13.6532L19.3587 1.33106H15.8861L9.6993 11.5792Z" fill="black"/>
<path d="M23.0309 1.33106H20.1171V14.9139H23.0309V1.33106Z" fill="black"/>
<path d="M37.5475 7.67513C37.2295 7.39046 36.8319 7.18713 36.3151 7.06513C35.7982 6.94313 35.2019 6.86179 34.4863 6.86179H28.4036C27.9266 6.86179 27.6085 6.78046 27.4097 6.57712C27.211 6.41445 27.1314 6.12978 27.1314 5.68244V5.23511C27.1314 4.70643 27.2507 4.34043 27.4495 4.13709C27.6483 3.97443 27.9663 3.85242 28.4434 3.85242H38.4619V1.29039H28.1651C27.529 1.29039 26.9724 1.37173 26.4953 1.49373C26.0183 1.61573 25.6605 1.85973 25.3424 2.1444C25.0641 2.42907 24.8256 2.83575 24.7063 3.32375C24.5473 3.81176 24.5075 4.42176 24.5075 5.11311V5.80445C24.5075 6.37379 24.5473 6.90246 24.6666 7.30913C24.7858 7.75647 24.9846 8.0818 25.2629 8.36648C25.5412 8.65115 25.9388 8.85448 26.3761 9.01715C26.8531 9.13915 27.4495 9.22048 28.1651 9.22048H34.367C34.8839 9.22048 35.2417 9.30182 35.4802 9.50515C35.7187 9.66782 35.838 9.99316 35.838 10.3998V11.1318C35.838 11.5792 35.7187 11.9045 35.4802 12.0672C35.2417 12.2299 34.8839 12.3112 34.367 12.3112H24.4678V14.8732H34.4863C35.2019 14.8732 35.838 14.7919 36.3151 14.6699C36.8319 14.5479 37.2295 14.3445 37.5475 14.0599C37.8656 13.7752 38.1041 13.4092 38.2234 12.9619C38.3824 12.5145 38.4221 11.9858 38.4221 11.3352V10.2778C38.4221 9.66782 38.3426 9.13915 38.2234 8.69181C38.0643 8.28514 37.8656 7.9598 37.5475 7.67513Z" fill="black"/>
<path d="M42.6542 1.33106H39.7405V14.9139H42.6542V1.33106Z" fill="black"/>
<path d="M62.4927 1.33117C62.0537 1.33117 61.6943 1.41228 61.4149 1.61562C61.1355 1.81896 60.9758 2.10382 60.9758 2.51049V14.9138H63.6103V5.39786L72.9105 14.3447C73.15 14.548 73.3895 14.7104 73.629 14.8324C73.8685 14.9138 74.1478 14.9953 74.4671 14.9953C74.9061 14.9953 75.2256 14.9139 75.505 14.7106C75.7844 14.5072 75.904 14.2226 75.904 13.7752V13.5574L73.19 11.0097L63.8098 1.77847C63.69 1.65647 63.4904 1.53437 63.2908 1.45304C63.0913 1.37171 62.812 1.33117 62.4927 1.33117Z" fill="black"/>
<path d="M74.407 5.10516C74.407 4.42579 74.9814 3.87886 75.6949 3.87886H78.7122C79.4256 3.87886 80 4.42579 80 5.10516C80 5.78453 79.4256 6.33146 78.7122 6.33146H75.6949C74.9814 6.33146 74.407 5.78453 74.407 5.10516Z" fill="url(#paint0_linear_1801_10114)"/>
<path d="M74.6047 0C75.2841 0 75.831 0.546929 75.831 1.2263V3.80975C75.831 4.48912 75.2841 5.03605 74.6047 5.03605C73.9254 5.03605 73.3784 4.48912 73.3784 3.80975V1.2263C73.3784 0.546929 73.9254 0 74.6047 0Z" fill="url(#paint1_linear_1801_10114)"/>
<path d="M70.4329 3.87888C69.7194 3.87888 69.145 4.42579 69.145 5.10516C69.145 5.78453 69.7194 6.33144 70.4329 6.33144H73.3785V6.23691C73.3785 5.63738 73.8045 5.14129 74.3715 5.03291C74.3842 5.03048 74.72 5.0254 74.7348 5.02334C74.6908 4.38243 74.1347 3.87888 73.4502 3.87888H70.4329Z" fill="url(#paint2_linear_1801_10114)"/>
<path d="M74.7358 5.02334C74.7229 5.02539 74.3842 5.03047 74.3715 5.03291C73.8045 5.14129 73.3785 5.63738 73.3785 6.23691V9.11008C73.3785 9.78945 73.9254 10.3364 74.6047 10.3364C75.2841 10.3364 75.831 9.78945 75.831 9.11008V6.33144L75.6949 6.33146C74.867 6.33146 74.0964 5.45047 74.7358 5.02334Z" fill="url(#paint3_linear_1801_10114)"/>
</g>
<defs>
<linearGradient id="paint0_linear_1801_10114" x1="104.833" y1="4.48649" x2="2.06646" y2="20.6423" gradientUnits="userSpaceOnUse">
<stop stop-color="#00AFDB"/>
<stop offset="1" stop-color="#004FBF"/>
</linearGradient>
<linearGradient id="paint1_linear_1801_10114" x1="-29.074" y1="-10.0853" x2="-28.404" y2="13.6069" gradientUnits="userSpaceOnUse">
<stop stop-color="#FBED89"/>
<stop offset="1" stop-color="#FBCB36"/>
</linearGradient>
<linearGradient id="paint2_linear_1801_10114" x1="11.8148" y1="-4.7781" x2="46.8404" y2="48.2948" gradientUnits="userSpaceOnUse">
<stop stop-color="#3CDA42"/>
<stop offset="1" stop-color="#24A243"/>
</linearGradient>
<linearGradient id="paint3_linear_1801_10114" x1="73.3784" y1="6.33142" x2="74.1663" y2="11.319" gradientUnits="userSpaceOnUse">
<stop stop-color="#E4252B"/>
<stop offset="1" stop-color="#F6282F" stop-opacity="0.996078"/>
</linearGradient>
<clipPath id="clip0_1801_10114">
<rect width="80" height="14.9953" fill="white"/>
</clipPath>
</defs>
</svg>
