<svg width="80" height="30" viewBox="0 0 80 30" fill="none" xmlns="http://www.w3.org/2000/svg">
<g clip-path="url(#clip0_1801_10751)">
<path d="M41.0164 23.6276C42.7069 23.6276 43.9547 23.4063 45.0818 21.4742L50.8378 8.69431C50.8378 8.25154 50.717 7.9094 50.2742 7.9094H46.8931C46.551 7.9094 46.1082 8.25154 45.9874 8.69431L42.0428 18.3144C41.8214 18.7572 41.4793 19.0993 41.0164 19.0993C40.5535 19.0993 40.1107 18.7572 39.99 18.3144L36.0252 8.71443C35.8038 8.27166 35.4617 7.92952 35.1195 7.92952H31.6176C31.1749 7.92952 31.0541 8.27166 31.0541 8.71443L36.8101 21.4943C37.9371 23.4063 39.3057 23.6478 40.8755 23.6478H41.0164V23.6276Z" fill="#FFBC00"/>
<path d="M58.4251 22.8226C58.4251 23.3861 58.083 23.6075 57.6402 23.6075H54.7019C54.1383 23.6075 53.917 23.3861 53.917 22.8226V8.69431C53.917 8.13078 54.2591 7.9094 54.7019 7.9094H57.6402C58.2038 7.9094 58.4251 8.13078 58.4251 8.69431V22.8226Z" fill="#FFBC00"/>
<path d="M71.205 19.7836C68.488 19.7836 67.361 18.5358 67.2402 16.966C67.2402 16.966 67.2402 9.27795 67.1195 8.93581C67.1195 8.49305 66.9987 7.9094 66.2138 7.9094H63.1547C62.8126 7.9094 62.3698 8.25154 62.3698 8.69431V16.9459C62.3698 21.3534 66.3346 23.6075 71.1849 23.6075C76.0352 23.6075 80 21.3534 80 16.9459V8.69431C80 8.25154 79.6579 7.9094 79.2151 7.9094H76.156C75.3711 7.9094 75.2503 8.47292 75.2503 8.93581C75.2503 9.27795 75.1295 16.966 75.1295 16.966C75.049 18.5358 73.9019 19.7836 71.205 19.7836Z" fill="#FFBC00"/>
<path d="M58.8881 2.71698C58.8881 4.18616 57.6403 5.43396 56.1711 5.43396C54.7019 5.43396 53.4541 4.18616 53.4541 2.71698C53.4541 1.2478 54.7019 0 56.1711 0C57.6403 0 58.8881 1.2478 58.8881 2.71698Z" fill="#FFBC00"/>
<path d="M27.1296 15.8189C27.1296 23.3862 21.0315 29.3837 13.5648 29.3837C5.99749 29.3837 0 23.3862 0 15.8189C0 8.35224 5.99749 2.25413 13.5648 2.25413C21.0113 2.25413 27.1296 8.37237 27.1296 15.8189ZM13.5648 4.62897C7.34591 4.62897 2.25409 9.60004 2.25409 15.8189C2.25409 22.0378 7.34591 27.1296 13.5648 27.1296C19.7837 27.1296 24.7547 22.0378 24.7547 15.8189C24.7547 9.60004 19.7837 4.62897 13.5648 4.62897Z" fill="#FFBC00"/>
<path d="M21.2528 15.7183C21.2528 14.4705 21.0314 13.3435 19.4415 12.5586L9.37861 7.92964C8.93584 7.92964 8.69433 8.05039 8.69433 8.37241V11.0693C8.69433 11.2906 8.91572 11.6328 9.25785 11.7535L16.9459 14.9133C17.288 15.1347 17.6302 15.3561 17.6302 15.819C17.6302 16.1611 17.288 16.5032 16.9459 16.6039L9.25785 19.7837C8.91572 19.9045 8.69433 20.2265 8.69433 20.468V23.2856C8.69433 23.507 8.91571 23.6278 9.37861 23.6278L19.4415 18.9988C21.0314 18.2139 21.2528 17.1875 21.2528 15.8391V15.7183Z" fill="#FFBC00"/>
</g>
<defs>
<clipPath id="clip0_1801_10751">
<rect width="80" height="29.3837" fill="white"/>
</clipPath>
</defs>
</svg>
