<svg width="80" height="32" viewBox="0 0 80 32" fill="none" xmlns="http://www.w3.org/2000/svg">
<g clip-path="url(#clip0_1801_10480)">
<g clip-path="url(#clip1_1801_10480)">
<mask id="mask0_1801_10480" style="mask-type:luminance" maskUnits="userSpaceOnUse" x="-284" y="-203" width="549" height="776">
<path d="M-283.399 572.281H264.294V-202.312H-283.399V572.281Z" fill="white"/>
</mask>
<g mask="url(#mask0_1801_10480)">
<path d="M24.7114 31.6539C23.4399 31.6539 22.1684 31.652 20.8968 31.6548C20.4202 31.6557 19.9436 31.6769 19.4661 31.6741C18.7061 31.6704 18.2296 31.3723 18.1477 30.8635C18.0741 30.4127 18.3676 30.041 19.1395 29.8119C20.5647 29.3868 21.0146 28.6305 20.2583 27.0039C19.8976 26.2282 19.3622 25.5308 18.8736 24.8196C17.5846 22.9436 16.279 21.0777 14.9771 19.2109C14.5272 18.565 14.3349 18.5439 13.8703 19.1364C12.17 21.3031 10.4771 23.4763 8.79153 25.6541C8.55599 25.9596 8.35082 26.2954 8.17508 26.6386C7.37187 28.2045 7.97451 29.3988 9.70055 29.695C10.1164 29.7668 10.5314 29.8487 10.9491 29.9048C11.3668 29.9609 11.6594 30.1624 11.6943 30.5921C11.7293 31.0319 11.5536 31.399 11.1092 31.5517C10.8801 31.6309 10.6271 31.6704 10.3851 31.6713C7.34519 31.6787 4.30621 31.6778 1.26724 31.6732C1.07678 31.6723 0.843087 31.6769 0.705997 31.5757C0.442859 31.3815 0.127276 31.1497 0.0297491 30.8654C-0.0981399 30.4955 0.207321 30.2186 0.544985 30.0438C0.561546 30.0355 0.576267 30.0253 0.592828 30.0198C3.23986 29.2396 4.91805 27.2642 6.54013 25.2143C8.52379 22.7081 10.5166 20.2101 12.5012 17.7048C13.2106 16.8086 13.2226 16.4277 12.5776 15.4856C10.6151 12.6168 8.67192 9.73332 6.66894 6.89216C5.88872 5.7844 4.98154 4.76497 4.11208 3.72162C3.33646 2.79143 2.3888 2.12806 1.17799 1.8548C0.73544 1.75452 0.297489 1.56222 0.300249 0.957742C0.303009 0.348659 0.561547 0.0459588 1.17247 0.0045559C1.24332 -4.44261e-05 1.31416 0.00179371 1.385 0.00179371C5.16647 0.00179371 8.94702 0.000872634 12.7285 0.00363283C13.5004 0.00455289 13.8335 0.298054 13.7304 0.943019C13.6946 1.16475 13.482 1.37085 13.3173 1.55394C13.2465 1.63215 13.0919 1.64043 12.9723 1.66895C11.2591 2.07562 10.6685 3.28827 11.6051 4.78337C12.8122 6.71091 14.1527 8.55472 15.4362 10.4335C15.6856 10.7978 15.9266 11.1686 16.1944 11.5182C16.625 12.0804 16.9221 12.0942 17.3711 11.5422C18.4734 10.186 19.5609 8.81694 20.6484 7.4488C21.2308 6.71551 21.8141 5.98406 22.3708 5.23237C22.7885 4.66837 23.0323 4.02984 23.0001 3.31035C22.9734 2.72703 22.7232 2.27987 22.1555 2.09126C21.6412 1.92105 21.1094 1.79868 20.5812 1.67355C19.8461 1.49874 19.6373 1.26688 19.7099 0.661479C19.7661 0.195006 20.0605 0.00271377 20.7349 0.00179371C23.7389 0.000873645 26.7429 0.000873645 29.7469 0.00179371C30.4949 0.00271377 30.7664 0.172925 30.8188 0.661479C30.885 1.28712 30.6569 1.65975 29.9641 1.77016C28.4883 2.00478 27.3244 2.78315 26.374 3.85043C24.5789 5.86721 22.8455 7.93919 21.1048 10.0038C20.2399 11.0297 19.4155 12.0896 18.5755 13.1366C18.0704 13.766 18.0133 14.2168 18.4301 14.8167C21.1618 18.7417 23.8935 22.6667 26.6518 26.5723C27.1284 27.2477 27.7173 27.8448 28.2794 28.4548C28.848 29.0722 29.527 29.5331 30.3293 29.8183C31.0304 30.0677 31.2154 30.3465 31.1316 30.8764C31.0562 31.3558 30.7231 31.6005 30.0119 31.606C28.2454 31.6217 26.4779 31.6115 24.7114 31.6115V31.6539ZM21.1581 29.6389C21.2096 29.6748 21.2621 29.7107 21.3136 29.7466C21.5464 29.5267 21.8288 29.3399 22.0018 29.0804C22.5483 28.2625 22.5309 27.359 22.1481 26.5061C21.7976 25.724 21.3651 24.9668 20.8803 24.2593C16.2293 17.4784 11.5618 10.7086 6.89527 3.93875C5.96325 2.58718 4.69632 1.74808 3.054 1.49782C4.46906 2.36176 5.51518 3.58545 6.43524 4.9269C10.1081 10.2817 13.7774 15.6383 17.4438 20.9977C18.6693 22.7881 19.9216 24.562 21.0854 26.392C21.7304 27.4059 22.0671 28.5238 21.1581 29.6389Z" fill="#B79B52"/>
</g>
<mask id="mask1_1801_10480" style="mask-type:luminance" maskUnits="userSpaceOnUse" x="-284" y="-203" width="549" height="776">
<path d="M-283.399 572.281H264.294V-202.312H-283.399V572.281Z" fill="white"/>
</mask>
<g mask="url(#mask1_1801_10480)">
<path d="M39.486 0.00240483C41.4127 0.00240483 43.3384 -0.00495771 45.265 0.00608307C46.0277 0.0106834 46.4666 0.651971 46.0801 1.23437C45.9311 1.45795 45.5824 1.5978 45.2972 1.67324C44.0652 1.9971 43.4727 2.69543 43.6742 3.81239C43.7653 4.31383 44.0275 4.80698 44.3044 5.24677C44.8592 6.12728 45.4766 6.96729 46.0673 7.82479C46.8889 9.01628 47.7041 10.2124 48.533 11.3983C49.0308 12.1105 49.3363 12.1298 49.8773 11.4563C51.4487 9.50207 53.0322 7.55614 54.5503 5.56051C54.9514 5.03332 55.2173 4.36351 55.4022 3.71855C55.6286 2.92729 55.2228 2.28324 54.4362 2.02471C53.9541 1.86553 53.448 1.78089 52.9521 1.66404C52.3062 1.51223 52.0468 1.21781 52.113 0.710855C52.1774 0.219541 52.4755 0.00240483 53.1113 0.00240483C56.1871 0.000564703 59.2619 0.0033224 62.3368 0.000562204C62.8097 0.000562204 63.1786 0.133052 63.2578 0.664849C63.3332 1.16996 63.1059 1.64656 62.5972 1.71832C60.2344 2.04955 58.7807 3.70566 57.3758 5.34614C55.1584 7.93336 53.0515 10.6163 50.9068 13.2651C50.4256 13.8604 50.4495 14.2514 50.9593 14.9875C53.1297 18.1212 55.29 21.2642 57.4834 24.3814C58.2949 25.5351 59.1699 26.6475 60.0541 27.746C60.826 28.7047 61.7378 29.4923 62.9403 29.9036C63.5651 30.117 63.7767 30.6074 63.4639 31.0997C63.3194 31.326 62.9827 31.5413 62.7186 31.5606C61.9099 31.6195 61.0956 31.5735 60.2832 31.5818C57.5442 31.6103 54.806 31.649 52.0679 31.6692C51.756 31.672 51.4018 31.6618 51.1451 31.5174C50.9031 31.3821 50.6345 31.0712 50.6161 30.82C50.5977 30.5716 50.8212 30.2302 51.0393 30.0582C51.3052 29.8493 51.6769 29.7757 52.0026 29.6423C52.9319 29.2605 53.264 28.6615 52.9457 27.7065C52.7423 27.0965 52.4507 26.4938 52.09 25.963C50.5434 23.6849 48.9572 21.4335 47.383 19.1747C46.9634 18.5721 46.7628 18.5481 46.3074 19.1269C44.5832 21.3194 42.8562 23.5119 41.1734 25.7375C40.8008 26.2298 40.5312 26.8324 40.3426 27.4259C40.0491 28.3441 40.4558 29.1436 41.3667 29.4555C42.0089 29.6763 42.6971 29.772 43.3687 29.9036C43.7643 29.9809 44.079 30.1143 44.1038 30.5835C44.1296 31.0583 43.9741 31.4245 43.4911 31.5661C43.2583 31.6342 43.0071 31.672 42.7642 31.672C39.7593 31.6793 36.7553 31.6784 33.7513 31.6729C33.5433 31.6729 33.2903 31.683 33.1376 31.5753C32.8726 31.3886 32.5635 31.1503 32.4669 30.8678C32.3279 30.4584 32.6527 30.1391 33.0235 30.0287C35.6945 29.2365 37.3671 27.2299 39.0021 25.1717C41.0115 22.6406 43.02 20.1086 45.0313 17.5784C45.5778 16.8902 45.6716 16.489 45.1969 15.8073C42.5453 11.9991 40.1411 8.01709 37.1859 4.42331C36.1895 3.21159 35.0891 2.14523 33.4615 1.78825C32.8156 1.64656 32.6389 1.26657 32.7401 0.695212C32.8248 0.215858 33.122 0.00516452 33.7596 0.00332439C35.6687 -0.000355867 37.5769 0.00240483 39.486 0.00240483ZM35.4957 1.50763C36.8593 2.33569 37.8824 3.49865 38.7666 4.7849C43.2298 11.2852 47.6811 17.7928 52.1296 24.3032C52.6954 25.1321 53.2741 25.9602 53.7471 26.8425C54.2255 27.7368 54.3451 28.6873 53.644 29.5714C53.633 29.5852 53.6587 29.6276 53.667 29.657C54.3157 29.4537 54.7711 28.7673 54.8189 27.9558C54.8916 26.7137 54.3028 25.7118 53.6449 24.7439C52.2059 22.6296 50.7486 20.5272 49.2995 18.4203C45.9688 13.5807 42.6455 8.73658 39.3039 3.90532C38.3838 2.5749 37.1206 1.74041 35.4957 1.50763Z" fill="#B79B52"/>
</g>
<mask id="mask2_1801_10480" style="mask-type:luminance" maskUnits="userSpaceOnUse" x="-284" y="-203" width="549" height="776">
<path d="M-283.399 572.281H264.294V-202.312H-283.399V572.281Z" fill="white"/>
</mask>
<g mask="url(#mask2_1801_10480)">
<path d="M72.6409 31.686C70.591 31.687 68.542 31.6814 66.493 31.6906C66.0136 31.6925 65.5978 31.5977 65.4358 31.0926C65.2702 30.5737 65.4708 30.1698 66.0192 29.8708C66.3127 29.7107 66.6163 29.5607 66.9319 29.454C68.3561 28.9719 68.9247 27.8577 69.1189 26.4868C69.2054 25.8786 69.2311 25.2576 69.2311 24.642C69.2385 18.4233 69.2376 12.2046 69.2274 5.98496C69.2265 5.49456 69.1833 4.99497 69.083 4.51562C68.7996 3.16312 67.9007 2.3461 66.4792 2.09769C66.0118 2.01672 65.5398 1.95876 65.0724 1.87871C64.3769 1.75818 64.0926 1.43064 64.1441 0.829838C64.1882 0.311841 64.5802 0.00454018 65.2399 0.00454018C69.3038 0.000859925 73.3668 0.00269806 77.4298 0.001778C77.8466 0.001778 78.2128 0.0855025 78.3269 0.560256C78.4492 1.06721 78.2827 1.39476 77.7776 1.62201C77.5549 1.7223 77.3203 1.81247 77.082 1.86491C75.6495 2.17589 74.9953 3.16036 74.8325 4.5193C74.7221 5.4458 74.654 6.38243 74.6512 7.31445C74.6356 13.0391 74.6365 18.7628 74.6512 24.4875C74.654 25.2419 74.7101 26.0083 74.849 26.7481C75.1711 28.4603 76.2319 29.3408 78.1309 29.5911C78.4952 29.6389 78.8614 29.7061 79.2147 29.8073C79.787 29.972 80.0584 30.3584 79.9894 30.8451C79.914 31.3769 79.5579 31.6805 78.9479 31.6824C76.8456 31.6897 74.7432 31.686 72.6409 31.686ZM68.5411 29.764C69.5292 29.3445 70.3104 28.6636 70.5901 27.6037C70.832 26.6938 71.0087 25.736 71.0142 24.7984C71.051 18.5457 71.0538 12.292 71.0124 6.03924C71.0068 5.19922 70.7851 4.32792 70.499 3.52931C70.1245 2.48319 69.2385 1.95232 68.173 1.72414C68.2485 1.84559 68.3488 1.93483 68.4619 2.00384C69.2799 2.50711 69.7436 3.26341 69.9285 4.17703C70.0537 4.79532 70.1355 5.43384 70.1374 6.06316C70.1521 12.1577 70.1641 18.2513 70.1263 24.3449C70.1199 25.391 69.9892 26.4656 69.7096 27.4703C69.4869 28.2717 68.9514 28.9857 68.5411 29.764Z" fill="#B79B52"/>
</g>
</g>
</g>
<defs>
<clipPath id="clip0_1801_10480">
<rect width="80" height="31.6905" fill="white"/>
</clipPath>
<clipPath id="clip1_1801_10480">
<rect width="80" height="31.6905" fill="white"/>
</clipPath>
</defs>
</svg>
