<svg width="80" height="54" viewBox="0 0 80 54" fill="none" xmlns="http://www.w3.org/2000/svg">
<g clip-path="url(#clip0_1801_4943)">
<path d="M0 37.8333V52.6167H10.8667V39.65C10.8667 33.8833 14.0667 30.1667 21.85 29.9V19.05C7.55 19.3 0 26.6667 0 37.8333Z" fill="#FF6100"/>
<path d="M62.8 18.5667C60.5082 18.4881 58.2247 18.8805 56.0906 19.7195C53.9565 20.5586 52.0172 21.8265 50.3926 23.4448C48.768 25.0632 47.4927 26.9976 46.6454 29.1284C45.7981 31.2593 45.3969 33.5413 45.4667 35.8333C45.4667 45.6833 51.5 52.1333 61.7 53.1L68.8333 47.7333L69.0667 47.85V52.6167H80V35.8333C80 25.3833 73.1333 18.5167 62.8 18.5667ZM62.8 42.4833C61.9283 42.5029 61.062 42.3423 60.2553 42.0116C59.4486 41.6808 58.7188 41.1871 58.1118 40.5612C57.5047 39.9354 57.0334 39.191 56.7274 38.3746C56.4214 37.5581 56.2872 36.6873 56.3333 35.8167C56.2872 34.946 56.4214 34.0752 56.7274 33.2588C57.0334 32.4424 57.5047 31.6979 58.1118 31.0721C58.7188 30.4463 59.4486 29.9525 60.2553 29.6218C61.062 29.291 61.9283 29.1304 62.8 29.15C63.6647 29.134 64.5233 29.2982 65.3212 29.632C66.119 29.9658 66.8386 30.462 67.4343 31.0891C68.03 31.7161 68.4887 32.4602 68.7812 33.2741C69.0737 34.088 69.1936 34.9539 69.1333 35.8167C69.1885 36.6783 69.0651 37.542 68.7707 38.3537C68.4764 39.1653 68.0175 39.9074 67.4228 40.5333C66.8282 41.1593 66.1106 41.6556 65.3151 41.9912C64.5196 42.3267 63.6633 42.4943 62.8 42.4833Z" fill="#FF6100"/>
<path d="M39.9 19.05H29.0333V52.6333H39.9V19.05Z" fill="#FF6100"/>
<path d="M34.4667 8.19955e-07C33.3978 -0.000508087 32.3421 0.235879 31.3755 0.69216C30.4089 1.14844 29.5554 1.81327 28.8765 2.63883C28.1975 3.46439 27.71 4.43016 27.449 5.46667C27.1879 6.50318 27.1598 7.58467 27.3667 8.63333C27.7707 10.3401 28.7798 11.8426 30.2069 12.8623C31.6341 13.882 33.3825 14.3497 35.1281 14.1788C36.8737 14.0079 38.4982 13.21 39.7005 11.9329C40.9028 10.6558 41.6013 8.9861 41.6667 7.23333C41.6693 6.2837 41.4823 5.34309 41.1167 4.46667C40.5705 3.14721 39.6459 2.01895 38.4595 1.22408C37.2732 0.429206 35.878 0.00328871 34.45 8.19955e-07H34.4667Z" fill="#FF6100"/>
</g>
<defs>
<clipPath id="clip0_1801_4943">
<rect width="80" height="53.1" fill="white"/>
</clipPath>
</defs>
</svg>
