<svg width="80" height="35" viewBox="0 0 80 35" fill="none" xmlns="http://www.w3.org/2000/svg">
<g clip-path="url(#clip0_1801_10312)">
<g clip-path="url(#clip1_1801_10312)">
<path d="M77.1971 0H2.80291C1.2549 0 0 1.2549 0 2.80291V32.0809C0 33.6289 1.2549 34.8838 2.80291 34.8838H77.1971C78.7451 34.8838 80 33.6289 80 32.0809V2.80291C80 1.2549 78.7451 0 77.1971 0Z" fill="#0255A3"/>
<path d="M77.1939 1.20081H2.80292C1.9181 1.20081 1.20081 1.9181 1.20081 2.80293V32.0809C1.20081 32.9658 1.9181 33.6831 2.80292 33.6831H77.1939C78.0787 33.6831 78.796 32.9658 78.796 32.0809V2.80293C78.796 1.9181 78.0787 1.20081 77.1939 1.20081Z" fill="white"/>
<path d="M25.3257 9.60628L26.2793 7.64136H17.3408H15.8575H15.0452L6.07458 25.4894H8.37021L12.6436 16.9876H19.2158L20.1694 15.0227H13.6325L16.3551 9.60628H25.3257Z" fill="#0255A3"/>
<path d="M62.0878 12.4445H61.9144H59.4775H51.3417L49.8359 14.6566H57.0567L45.2222 25.4894H47.8581H55.3101L56.7838 23.7364H49.7717L62.0878 12.4445Z" fill="#0255A3"/>
<path d="M75.0043 12.4445H74.8309H72.394H64.2582L62.7524 14.6566H69.9732L58.1387 25.4894H60.7746H68.2266L69.7003 23.7364H62.6882L75.0043 12.4445Z" fill="#0255A3"/>
<path d="M29.3872 6.03918H35.3205L27.9392 18.6153H31.8594L22.5356 30.4819L27.4094 20.3812H22.9595L29.3872 6.03918Z" fill="#F5A61C"/>
<path d="M46.6091 12.0688C41.517 11.0928 39.2407 13.3178 36.0589 16.6023C31.9974 21.3701 32.8258 24.69 34.0458 25.5922C37.0125 27.5699 41.074 24.4074 41.074 24.4074V25.6788H43.3343C43.3343 25.6788 43.4755 23.7878 43.4755 22.9594C43.4755 22.1311 43.7228 21.8293 44.0053 21.1582C44.5704 19.569 48.3686 12.9454 48.3686 12.9454C48.3686 12.9454 47.46 12.2551 46.6091 12.0688ZM45.2189 15.058C45.2189 15.058 42.5573 21.6751 39.5682 23.4153C37.5422 24.5936 36.3414 24.4524 35.8021 23.6979C35.2595 22.9434 34.6944 21.8132 36.4602 18.8466C38.2261 15.8799 40.6758 14.114 43.2412 13.4302C43.9475 13.2407 46.1468 13.0128 45.2189 15.0548V15.058Z" fill="#0255A3"/>
</g>
</g>
<defs>
<clipPath id="clip0_1801_10312">
<rect width="80" height="34.8838" fill="white"/>
</clipPath>
<clipPath id="clip1_1801_10312">
<rect width="80" height="34.8838" fill="white"/>
</clipPath>
</defs>
</svg>
