<svg width="80" height="46" viewBox="0 0 80 46" fill="none" xmlns="http://www.w3.org/2000/svg">
<g clip-path="url(#clip0_1801_10042)">
<g clip-path="url(#clip1_1801_10042)">
<path d="M1.54418 13.3821H78.4558C79.024 13.3821 79.4856 13.8437 79.4856 14.4119V40.1453C79.4856 40.7134 79.024 41.175 78.4558 41.175H1.54418C0.976061 41.175 0.514404 40.7134 0.514404 40.1453V14.4119C0.514404 13.8437 0.976061 13.3821 1.54418 13.3821Z" fill="white"/>
<path d="M78.4558 41.6894H1.54416C0.692486 41.6894 0 40.9969 0 40.1453V14.4109C0 13.5592 0.692486 12.8667 1.54416 12.8667H78.4558C79.3075 12.8667 80 13.5592 80 14.4109V40.1453C80 40.9969 79.3075 41.6894 78.4558 41.6894ZM1.54416 13.8965C1.2606 13.8965 1.02977 14.1273 1.02977 14.4109V40.1453C1.02977 40.4288 1.2606 40.6596 1.54416 40.6596H78.4558C78.7394 40.6596 78.9702 40.4288 78.9702 40.1453V14.4109C78.9702 14.1273 78.7394 13.8965 78.4558 13.8965H1.54416Z" fill="#0061BC"/>
<path d="M47.7317 7.44024C43.4843 2.71224 37.4071 0 31.0573 0C24.7075 0 18.6304 2.71224 14.3829 7.44024C13.2776 8.67199 13.379 10.5733 14.6108 11.6797C15.163 12.1752 15.8754 12.4488 16.6166 12.4488C17.0325 12.4488 17.4394 12.3603 17.8135 12.1981C17.4653 12.7612 17.3101 13.4179 17.3807 14.0875C17.4653 14.8855 17.8553 15.6018 18.4772 16.1053C19.0095 16.5371 19.6801 16.7739 20.3656 16.7739C20.8402 16.7739 21.2978 16.6614 21.7088 16.4555C21.6799 16.5003 21.6491 16.543 21.6212 16.5878C20.7516 17.9957 21.1894 19.8493 22.5973 20.7189C23.0619 21.0064 23.5942 21.1586 24.1394 21.1656L19.0811 32.3638C18.7936 33.0005 18.8483 33.7408 19.2274 34.3278C19.6064 34.9148 20.2581 35.27 20.9566 35.27H22.3246L18.5946 42.8535C18.1289 43.7997 18.4543 44.9449 19.3467 45.5051C19.686 45.718 20.0651 45.8205 20.4402 45.8205C21.0541 45.8205 21.659 45.5468 22.062 45.0315L31.9687 32.3797C32.4542 31.7598 32.5438 30.9171 32.1985 30.2087C31.8533 29.5003 31.1349 29.0516 30.3479 29.0516H29.5151L35.2212 19.5C35.2769 19.5806 35.3316 19.6612 35.3834 19.7458C35.9346 20.6373 36.8897 21.1696 37.9374 21.1696C38.4956 21.1696 39.0428 21.0134 39.5154 20.7208C40.9232 19.8503 41.361 17.9967 40.4904 16.5888C40.4626 16.544 40.4317 16.5023 40.4029 16.4575C40.8138 16.6634 41.2705 16.7759 41.7461 16.7759C42.4316 16.7759 43.1022 16.5381 43.6335 16.1082C44.2573 15.6038 44.6473 14.8865 44.7319 14.0885C44.8026 13.4189 44.6483 12.7622 44.2991 12.1991C44.6732 12.3623 45.0802 12.4498 45.497 12.4498C46.2383 12.4498 46.9507 12.1772 47.5029 11.6807C48.7346 10.5743 48.8361 8.67298 47.7297 7.44124L47.7317 7.44024Z" fill="white"/>
<path d="M6.54782 35.8281L11.0082 26.993H17.7838L18.728 25.02H11.9514L14.9532 19.5309H24.2171V17.3857H13.7523L4.31714 35.8281H6.54782Z" fill="#0061BC"/>
<path d="M40.3433 22.5326C36.1118 24.5912 32.509 29.8236 32.509 33.0542C32.509 36.2848 35.7118 38.3722 40.6288 34.4551V35.8272H43.0306C43.0306 35.8272 43.0336 33.88 43.1162 32.7965C43.2595 30.938 48.0591 22.7038 48.0591 22.7038C48.0591 22.7038 44.5748 20.4731 40.3433 22.5316V22.5326ZM36.655 34.4551C32.4951 34.4551 36.3973 27.5502 38.6708 25.5344C40.9442 23.5186 44.7837 22.8142 45.0753 23.7335C45.3618 24.634 44.2823 26.8726 43.7172 27.9083C43.1381 28.969 40.8149 34.4561 36.655 34.4561V34.4551Z" fill="#0061BC"/>
<path d="M49.7565 24.3981L51.43 22.254H62.2371L49.5426 33.8552H56.941L55.2038 35.849H44.6106L57.5927 24.423L49.7565 24.3981Z" fill="#0061BC"/>
<path d="M63.3057 24.3981L64.9782 22.254H75.7854L63.0908 33.8552H70.4892L68.7521 35.849H58.1588L71.1409 24.423L63.3057 24.3981Z" fill="#0061BC"/>
<path d="M27.777 18.1151H33.6522L25.8896 31.1102H30.35L20.4432 43.762L25.6329 33.2115H20.9576L27.777 18.1151Z" fill="#FAA50C"/>
<path d="M37.9404 19.11C37.624 19.11 37.3156 18.9508 37.1365 18.6623C35.8232 16.5371 33.5507 15.2685 31.0573 15.2685C28.564 15.2685 26.2915 16.5371 24.9782 18.6623C24.7046 19.106 24.1225 19.2423 23.6798 18.9687C23.236 18.6951 23.0997 18.1141 23.3733 17.6703C25.0329 14.9849 27.9053 13.3821 31.0573 13.3821C34.2093 13.3821 37.0818 14.9849 38.7413 17.6703C39.015 18.1141 38.8777 18.6951 38.4349 18.9687C38.2807 19.0642 38.1086 19.11 37.9394 19.11H37.9404Z" fill="#0061BC"/>
<path d="M15.9143 8.8163C15.566 9.20433 15.5979 9.8003 15.9859 10.1485C16.3739 10.4968 16.9709 10.4649 17.3181 10.0769C20.8184 6.18067 25.8259 3.94502 31.0574 3.94502V2.05859C25.2917 2.05859 19.7727 4.5211 15.9143 8.8163Z" fill="#FAA50C"/>
<path d="M19.6334 13.1791C19.3051 13.5841 19.3678 14.1781 19.7737 14.5064C20.1787 14.8337 20.7726 14.772 21.101 14.3661C23.5476 11.3424 27.1771 9.60825 31.0584 9.60825V7.72083C26.605 7.72083 22.4402 9.71073 19.6344 13.1791H19.6334Z" fill="#FAA50C"/>
<path d="M44.7966 10.0769C44.9837 10.2839 45.2404 10.3903 45.4991 10.3903C45.7239 10.3903 45.9488 10.3107 46.1289 10.1485C46.5169 9.8003 46.5488 9.20333 46.2005 8.8163C42.3421 4.52209 36.8231 2.05859 31.0574 2.05859V3.94602C36.2888 3.94602 41.2964 6.18067 44.7966 10.0779V10.0769Z" fill="#0061BC"/>
<path d="M41.0148 14.3661C41.2009 14.5969 41.4735 14.7163 41.7491 14.7163C41.957 14.7163 42.168 14.6477 42.3421 14.5064C42.747 14.1791 42.8097 13.5851 42.4824 13.1791C39.6756 9.71073 35.5117 7.72083 31.0583 7.72083V9.60825C34.9397 9.60825 38.5692 11.3424 41.0158 14.3661H41.0148Z" fill="#0061BC"/>
</g>
</g>
<defs>
<clipPath id="clip0_1801_10042">
<rect width="80" height="45.8205" fill="white"/>
</clipPath>
<clipPath id="clip1_1801_10042">
<rect width="80" height="45.8205" fill="white"/>
</clipPath>
</defs>
</svg>
