<svg width="80" height="16" viewBox="0 0 80 16" fill="none" xmlns="http://www.w3.org/2000/svg">
<g clip-path="url(#clip0_1801_10162)">
<g clip-path="url(#clip1_1801_10162)">
<path d="M52.1373 11.2747C51.8535 11.1896 51.7795 10.965 51.7653 10.7061C51.7435 10.3077 51.894 9.94334 52.0121 9.57693C52.3172 8.63074 52.635 7.6886 52.9568 6.74798C53.0855 6.37143 53.3191 6.06381 53.6567 5.84538C53.8523 5.71868 54.0687 5.66901 54.3054 5.67003C55.9428 5.67459 57.5798 5.67256 59.2173 5.67256C59.569 5.67256 59.7845 5.49147 59.8639 5.12927C60.0362 4.6914 59.9156 4.50591 59.458 4.50541C57.8165 4.50541 56.175 4.5049 54.5334 4.50642C54.4331 4.50642 54.3332 4.52213 54.2329 4.53075C54.166 4.52568 54.0991 4.51706 54.0317 4.51554C53.7932 4.51047 53.7131 4.39104 53.7915 4.15724C53.9729 3.61446 54.1635 3.07472 54.3307 2.52788C54.392 2.32719 54.4944 2.2755 54.6941 2.276C56.9012 2.28259 59.1088 2.28006 61.3159 2.28006C61.8638 2.28006 61.9317 2.33581 62.031 2.87098C62.0031 3.34839 61.8313 3.78879 61.6833 4.23579C60.9394 6.48141 60.1949 8.72703 59.4575 10.9747C59.3891 11.1835 59.2887 11.2554 59.0642 11.2544C56.8723 11.2453 54.6804 11.2483 52.4885 11.2499C52.3714 11.2499 52.2544 11.2666 52.1368 11.2752L52.1373 11.2747ZM54.3692 9.05999C54.4782 9.06557 54.5872 9.07571 54.6966 9.07571C55.8415 9.07672 56.9863 9.07621 58.1307 9.07621C58.4669 9.07621 58.6657 8.9088 58.7272 8.57398C58.7302 8.55776 58.7292 8.54053 58.7297 8.5238C58.8078 8.4189 58.8123 8.28662 58.86 8.17057C58.9487 7.95518 58.8742 7.90044 58.6522 7.90146C57.3375 7.91007 56.0229 7.90399 54.7083 7.90652C54.2567 7.90754 53.9278 8.22277 53.8969 8.67179C53.8766 8.9637 54.0864 9.19176 54.3687 9.05949L54.3692 9.05999Z" fill="#EE7229"/>
<path d="M24.5533 11.2165C24.2289 11.1131 24.1068 10.924 24.1625 10.587C24.2492 10.061 24.4534 9.56836 24.6101 9.06309C24.8437 8.30846 25.1001 7.56043 25.3459 6.80986C25.5025 6.33094 25.7924 5.96909 26.2541 5.74863C26.3808 5.68832 26.5116 5.6716 26.6459 5.66501C26.7888 5.65842 26.9322 5.65741 27.0751 5.65639C28.6249 5.64727 30.1747 5.63764 31.7245 5.62953C32.1922 5.627 32.2262 5.5971 32.2708 5.12172C32.4188 4.65141 32.3134 4.50495 31.8274 4.50495C30.2284 4.50495 28.6295 4.50444 27.03 4.50596C26.9129 4.50596 26.7959 4.52167 26.6788 4.53029C26.654 4.52674 26.6291 4.52117 26.6038 4.51965C26.135 4.48822 26.133 4.48772 26.2774 4.04224C26.4406 3.53849 26.6124 3.03726 26.772 2.53199C26.8182 2.38552 26.8825 2.31761 27.0523 2.31812C29.377 2.3242 31.7017 2.32116 34.0263 2.32319C34.3512 2.32319 34.4338 2.43417 34.4906 2.90702C34.4313 3.37023 34.2737 3.80658 34.1292 4.2475C33.3969 6.48146 32.6626 8.71492 31.9419 10.9524C31.8725 11.1678 31.7706 11.2144 31.5653 11.2144C29.228 11.2104 26.8901 11.2144 24.5528 11.217L24.5533 11.2165ZM26.8156 9.04991C26.916 9.05498 27.0168 9.0641 27.1172 9.0641C28.294 9.06511 29.4702 9.06461 30.647 9.06461C31.0844 9.06461 31.1011 9.05042 31.1675 8.6171C31.1726 8.58416 31.17 8.55021 31.171 8.51676C31.2516 8.42401 31.2724 8.30542 31.3064 8.19393C31.3875 7.92837 31.3707 7.90657 31.092 7.90607C29.787 7.90556 28.4815 7.90404 27.1765 7.90708C26.7421 7.90809 26.4614 8.13362 26.359 8.54716C26.2551 8.96629 26.3869 9.11174 26.8156 9.04991Z" fill="#EE7229"/>
<path d="M60.7837 11.2829C60.7756 11.2808 60.7675 11.2778 60.7589 11.2773C60.2526 11.2337 60.2511 11.2332 60.4163 10.7315C60.5714 10.2607 60.7386 9.7939 60.8841 9.32004C60.9403 9.13658 61.0275 9.07171 61.2231 9.07222C63.0669 9.07931 64.9111 9.07678 66.7548 9.07577C67.1365 9.07577 67.3701 8.89788 67.4943 8.52133C67.6818 8.14123 67.5465 7.9076 67.1375 7.90557C65.6145 7.89847 64.0911 7.8929 62.5682 7.88378C62.3837 7.88276 62.1992 7.86655 62.0148 7.85742C61.6276 7.64001 61.5075 7.35417 61.6585 6.87474C61.9291 6.01623 62.2205 5.1638 62.5089 4.31136C62.6493 3.89731 62.7699 3.47616 62.9503 3.07579C63.1941 2.53504 63.562 2.25782 64.2051 2.26694C66.3965 2.29786 68.5884 2.2786 70.7803 2.2786C71.1123 2.2786 71.1108 2.2786 71.0104 2.59687C70.9851 2.67643 70.9744 2.76056 70.9572 2.84317C70.7236 3.2851 70.6085 3.77061 70.4631 4.24244C70.3952 4.46239 70.2963 4.52929 70.0733 4.52827C68.2524 4.52016 66.4315 4.52371 64.6111 4.52371C64.2112 4.52371 63.9168 4.74113 63.8053 5.11616C63.6953 5.48612 63.8539 5.68276 64.2421 5.65742C64.3511 5.66451 64.4601 5.67718 64.569 5.67718C66.0033 5.6787 67.438 5.6782 68.8722 5.6782C69.4429 5.6782 69.5255 5.74205 69.6725 6.29598C69.6725 6.48299 69.6451 6.66594 69.5883 6.84383C69.3512 7.59085 69.1165 8.33888 68.8707 9.08286C68.7121 9.5628 68.5945 10.06 68.3654 10.5115C68.1262 10.9844 67.77 11.2616 67.1846 11.255C65.1681 11.2327 63.1505 11.2464 61.1334 11.2464C61.0159 11.2464 60.8978 11.2393 60.7843 11.2813L60.7837 11.2829Z" fill="#EE7229"/>
<path d="M32.1259 14.6545C32.0924 14.6505 32.059 14.6444 32.0255 14.6424C31.5831 14.6145 31.5806 14.614 31.723 14.1817C32.4624 11.9341 33.2033 9.68641 33.9427 7.43876C34.4769 5.81498 35.0131 4.19171 35.5371 2.56438C35.602 2.36369 35.6983 2.312 35.897 2.3125C38.0985 2.31859 40.3005 2.31605 42.502 2.31656C43.0276 2.31656 43.1401 2.41184 43.245 2.93586C43.2126 3.17761 43.1898 3.42087 43.1132 3.65552C42.5629 5.34619 42.0191 7.0389 41.4636 8.72805C41.2741 9.30428 41.1129 9.89166 40.8631 10.4456C40.6269 10.9696 40.2564 11.2676 39.626 11.258C37.9221 11.2311 36.2172 11.2514 34.5134 11.2453C34.3218 11.2448 34.2331 11.3056 34.1718 11.4916C33.8515 12.4682 33.5115 13.4387 33.1881 14.4143C33.1339 14.5785 33.0574 14.6398 32.8825 14.6348C32.6306 14.6272 32.3767 14.6054 32.1254 14.655L32.1259 14.6545ZM41.0501 5.10192C41.2133 4.72638 41.079 4.4968 40.6908 4.49629C39.3675 4.49477 38.0437 4.49933 36.7205 4.49173C36.5239 4.49072 36.4448 4.56319 36.386 4.74513C35.9801 6.0025 35.5615 7.25631 35.1474 8.51114C35.017 8.90678 35.1614 9.08264 35.5807 9.03872C36.7925 9.05544 38.0037 9.07115 39.2155 9.0296C39.5226 9.01895 39.7288 8.88009 39.8353 8.60034C40.0116 8.13713 40.1865 7.6729 40.3461 7.20411C40.5843 6.50473 40.8666 5.82005 41.0501 5.10192Z" fill="#EE7229"/>
<path d="M18.8792 11.2458C18.8544 11.2428 18.829 11.2392 18.8042 11.2367C18.3344 11.1961 18.3288 11.1946 18.4799 10.7365C19.2233 8.47667 19.9744 6.21939 20.7108 3.95705C20.8299 3.59114 20.9921 3.23638 21.0463 2.8502C21.0909 2.75138 21.1446 2.65559 21.1786 2.55373C21.2875 2.22887 21.2845 2.22786 20.9333 2.22735C19.3151 2.22583 17.6974 2.24255 16.0807 2.12903C14.4432 2.01399 12.8032 1.92834 11.1642 1.83205C9.90333 1.75805 8.64242 1.67899 7.38049 1.61716C6.6578 1.58169 5.93764 1.48134 5.21191 1.52239C5.07811 1.5229 4.94888 1.49705 4.82269 1.4555C4.69903 1.44992 4.57486 1.44435 4.4512 1.43877H4.46539C4.3245 1.44283 4.18311 1.49148 4.04171 1.44029C2.98605 1.33336 1.92482 1.30802 0.866626 1.23251C0.687726 1.21984 0.498691 1.25582 0.310669 1.16307C0.370471 1.06526 0.455106 1.07641 0.533153 1.07236C2.67032 0.955794 4.80748 0.840244 6.94465 0.722667C8.80409 0.620294 10.6635 0.518428 12.5225 0.411494C14.575 0.292903 16.627 0.168738 18.679 0.047613C18.7464 0.0435587 18.8138 0.0450791 18.8812 0.0450791C21.3706 0.0450791 23.8595 0.0450791 26.3489 0.0450791C26.7021 0.0450791 26.7006 0.0450791 26.5952 0.373991C26.5694 0.453558 26.5552 0.537179 26.5354 0.618774C26.3829 1.07388 26.2258 1.52746 26.0818 1.9851C26.0256 2.16299 25.9369 2.23495 25.7397 2.23242C24.8544 2.22127 23.969 2.23242 23.0836 2.2238C22.9093 2.22228 22.8256 2.28107 22.7755 2.44527C22.6356 2.90392 22.482 3.35903 22.3341 3.81565C21.9443 5.01676 21.5561 6.21838 21.1644 7.41898C20.7751 8.61148 20.3804 9.80245 19.9947 10.9965C19.9415 11.1612 19.8553 11.2174 19.684 11.2154C19.4159 11.2119 19.1448 11.1789 18.8792 11.2463V11.2458Z" fill="#EE7229"/>
<path d="M45.6173 9.04989C46.0643 9.05495 46.5113 9.06357 46.9583 9.06408C48.317 9.0661 49.6757 9.06458 51.034 9.06509C51.2583 9.06509 51.3357 9.17422 51.2661 9.39248C51.2407 9.47205 51.222 9.55364 51.1997 9.63473C50.9848 10.0574 50.8566 10.513 50.7086 10.9595C50.6346 11.183 50.5337 11.2545 50.2981 11.2534C48.0874 11.2438 45.8773 11.2474 43.6666 11.2484C43.5658 11.2484 43.4649 11.2565 43.3636 11.261C42.9703 10.9935 42.875 10.698 43.0412 10.1846C43.4457 8.93434 43.8582 7.68711 44.2657 6.43836C44.814 4.75731 45.3593 3.07525 45.9077 1.39471C46.0227 1.04147 46.1601 0.697865 46.3988 0.404936C46.6142 0.140895 46.8772 -0.0010082 47.2284 5.39239e-06C49.4806 0.00507337 51.7333 0.00253938 53.9855 0.00304618C54.3302 0.00304618 54.3347 0.0116617 54.2298 0.3426C54.2045 0.422168 54.1893 0.505282 54.1695 0.58637C53.9592 1.00144 53.8452 1.45147 53.7083 1.89188C53.6288 2.14781 53.5107 2.22687 53.2451 2.22485C51.4668 2.21268 49.6884 2.21775 47.9106 2.21927C47.4103 2.21927 47.1904 2.37232 47.012 2.83554C46.9816 2.91409 46.9568 2.99467 46.9304 3.07475C46.7029 3.77058 46.4738 4.4659 46.2483 5.16275C45.893 6.25997 45.5362 7.35617 45.1891 8.45541C45.0482 8.90241 45.1926 9.09094 45.6168 9.0509L45.6173 9.04989Z" fill="#EE7229"/>
<path d="M69.5026 11.2767C69.4945 11.2752 69.4859 11.2732 69.4778 11.2722C68.968 11.223 68.9735 11.2245 69.1393 10.7152C69.7834 8.73057 70.4225 6.74443 71.0651 4.75981C71.547 3.27084 72.0336 1.7839 72.5105 0.293406C72.5769 0.0866326 72.6726 -0.00611131 72.9022 0.00858582C73.2382 0.0298713 73.5768 0.0126402 73.9138 0.0146674C74.1753 0.0161878 74.2067 0.0617996 74.115 0.314691C74.0836 0.402367 74.0461 0.486496 74.0471 0.581774C73.8702 0.961872 73.7653 1.36731 73.6376 1.76413C73.4572 2.32465 73.4622 2.32617 74.0679 2.26586C75.0536 2.27042 76.0393 2.27549 77.025 2.27853C77.623 2.28056 78.2216 2.27853 78.8196 2.27853C79.3588 2.27853 79.4465 2.34492 79.5975 2.86642C79.5849 3.05241 79.5463 3.23334 79.4886 3.4097C78.6569 5.95433 77.8232 8.49846 76.9982 11.0446C76.9455 11.2068 76.8664 11.2494 76.7093 11.2509C76.4412 11.2539 76.1701 11.2103 75.905 11.2833C75.8041 11.2772 75.7023 11.258 75.6029 11.2676C75.3703 11.2909 75.3592 11.1961 75.424 11.0056C76.016 9.27791 76.6039 7.54922 77.1847 5.818C77.2587 5.59755 77.3859 5.38824 77.3691 5.14194C77.5784 4.75677 77.4452 4.52263 77.0123 4.52415C75.7307 4.52871 74.449 4.5054 73.1673 4.55304C72.7107 4.56976 72.7821 4.46688 72.6209 4.96152C71.9596 6.98719 71.2997 9.01336 70.646 11.0416C70.5953 11.1987 70.5228 11.2519 70.3606 11.2514C70.0748 11.2504 69.7869 11.2169 69.5031 11.2762L69.5026 11.2767Z" fill="#EE7229"/>
<path d="M5.54178 4.97375C5.51441 5.03051 5.46373 5.03304 5.41204 5.02443C4.40452 4.85363 3.38231 4.84603 2.36771 4.75633C2.24354 4.74518 2.11988 4.73099 1.99268 4.67372C2.14117 4.65294 2.28865 4.62355 2.43764 4.61341C3.80904 4.5232 5.18043 4.43907 6.55132 4.34785C8.72953 4.20291 10.9072 4.05239 13.0855 3.90592C14.3727 3.81977 15.66 3.73513 16.9473 3.65405C17.336 3.62972 17.3355 3.6358 17.1849 4.00526C17.1535 4.08229 17.1322 4.16338 17.1064 4.24244C16.8621 4.65852 16.7192 5.1197 16.5312 5.56011C16.4592 5.72887 16.3817 5.78411 16.1957 5.76992C14.8015 5.66046 13.4063 5.56518 12.0116 5.4623C10.2727 5.33408 8.5334 5.21093 6.79559 5.06902C6.37799 5.03507 5.95482 5.067 5.54178 4.97324V4.97375Z" fill="#EE7229"/>
<path d="M7.02416 8.88818C7.12754 8.69914 6.95929 8.72245 6.87313 8.71283C6.42918 8.66316 5.98471 8.62262 5.53975 8.58055C5.34716 8.56231 5.15458 8.54355 4.92297 8.46956C5.48603 8.41128 6.00448 8.35553 6.52344 8.30384C8.08387 8.14927 9.64379 7.99621 11.2042 7.84367C12.7145 7.69568 14.2252 7.5477 15.736 7.40275C16.0016 7.37741 16.0071 7.39211 15.9321 7.65869C15.9007 7.7712 15.847 7.87965 15.8576 8.00128C15.7918 8.06919 15.7568 8.15231 15.7279 8.2415C15.6103 8.60133 15.4791 8.9571 15.3716 9.31946C15.324 9.48012 15.2469 9.53181 15.0843 9.51509C13.6956 9.37217 12.308 9.21405 10.9169 9.10154C9.622 8.99663 8.33625 8.69154 7.02466 8.88767L7.02416 8.88818Z" fill="#EE7229"/>
<path d="M4.45118 1.43825C4.57484 1.44383 4.69901 1.4494 4.82165 1.45447C4.80797 1.43268 4.8029 1.43318 4.80898 1.45396C4.80949 1.45599 4.82419 1.45244 4.83229 1.45345C4.96964 1.47018 5.11154 1.41899 5.24533 1.48133C5.24736 1.48234 5.24128 1.50515 5.2352 1.51528C5.23216 1.52035 5.21999 1.51985 5.21189 1.52187C5.93762 1.48133 6.65778 1.58117 7.38047 1.61664C8.6424 1.67847 9.90331 1.75753 11.1642 1.83153C12.8032 1.92782 14.4432 2.01347 16.0807 2.12851C17.6973 2.24203 19.315 2.22581 20.9332 2.22683C21.2845 2.22683 21.2875 2.22835 21.1785 2.55321C21.1441 2.65558 21.0909 2.75086 21.0463 2.84968C19.0723 2.88871 17.1034 2.78887 15.1345 2.65152C13.5289 2.53952 11.9209 2.47212 10.3138 2.37988C8.37075 2.26788 6.4282 2.1503 4.48514 2.03475C3.0803 1.95113 1.67596 1.86751 0.271625 1.78287C0.193071 1.77831 0.105902 1.80619 0.000488281 1.69824C1.3734 1.61006 2.70831 1.52491 4.0427 1.43926C4.18359 1.49045 4.32448 1.4418 4.46588 1.43774L4.45879 1.45092L4.45169 1.43774L4.45118 1.43825Z" fill="#231C18"/>
<path d="M32.1258 14.6546C32.3767 14.6049 32.6311 14.6267 32.883 14.6343C33.0578 14.6399 33.1338 14.5781 33.1886 14.4139C33.5119 13.4378 33.8515 12.4678 34.1723 11.4912C34.2336 11.3047 34.3223 11.2439 34.5139 11.2449C36.2182 11.251 37.9226 11.2307 39.6264 11.2575C40.2569 11.2672 40.6268 10.9697 40.8635 10.4451C41.1134 9.89122 41.2745 9.30384 41.4641 8.72761C42.0195 7.03846 42.5633 5.34575 43.1137 3.65508C43.1902 3.42043 43.213 3.17717 43.2455 2.93542C43.5166 2.97242 43.5901 3.18021 43.6311 3.40066C43.7036 3.78938 43.5708 4.15225 43.4543 4.51156C42.8639 6.32995 42.2694 8.14682 41.6719 9.96318C41.5482 10.3387 41.4403 10.7208 41.2674 11.0792C41.0095 11.6143 40.6147 11.891 39.9893 11.8829C38.3098 11.8616 36.6297 11.8794 34.9502 11.8708C34.7363 11.8698 34.6431 11.9351 34.5767 12.1389C34.261 13.1079 33.9255 14.0708 33.6016 15.0377C33.5515 15.1878 33.4709 15.2526 33.3072 15.2481C32.9443 15.2379 32.5814 15.24 32.2186 15.2471C32.024 15.2511 31.9495 15.1898 32.025 14.9931C32.067 14.8832 32.0934 14.7671 32.1268 14.6541L32.1258 14.6546Z" fill="#231C18"/>
<path d="M52.1373 11.2747C52.2544 11.2656 52.3715 11.2494 52.489 11.2494C54.6809 11.2478 56.8728 11.2448 59.0647 11.2539C59.2898 11.2549 59.3896 11.183 59.458 10.9742C60.1949 8.72653 60.9399 6.48091 61.6839 4.23529C61.8319 3.78829 62.0037 3.34789 62.0315 2.87048C62.2895 2.88315 62.3645 3.0732 62.4071 3.27694C62.4785 3.61801 62.3995 3.94591 62.2925 4.26874C61.4913 6.68971 60.687 9.10967 59.8944 11.5332C59.8113 11.7866 59.7018 11.8859 59.418 11.8844C57.1992 11.8707 54.98 11.8768 52.7607 11.8768C52.3107 11.8768 52.1682 11.7379 52.1378 11.2757L52.1373 11.2747Z" fill="#231C18"/>
<path d="M24.5534 11.2165C26.8907 11.2145 29.2286 11.2104 31.5659 11.2139C31.7712 11.2139 31.873 11.1678 31.9425 10.9519C32.6631 8.71442 33.397 6.48096 34.1298 4.247C34.2742 3.80659 34.4313 3.37024 34.4911 2.90652C34.7349 2.89892 34.8368 3.05147 34.8758 3.25976C34.9564 3.68496 34.8028 4.0757 34.6751 4.46644C34.2388 5.80236 33.7943 7.13575 33.3569 8.47166C33.0159 9.51263 32.6773 10.5546 32.3464 11.5991C32.2906 11.7745 32.2004 11.8287 32.0195 11.8282C29.7171 11.8226 27.4147 11.8251 25.1118 11.8236C24.6755 11.8236 24.5123 11.6407 24.5539 11.216L24.5534 11.2165Z" fill="#231C18"/>
<path d="M18.8792 11.2459C19.1453 11.1779 19.4164 11.2114 19.684 11.2149C19.8558 11.217 19.9415 11.1607 19.9947 10.996C20.3804 9.80199 20.7752 8.61152 21.1644 7.41852C21.5561 6.21792 21.9444 5.0163 22.3341 3.81519C22.4821 3.35857 22.6356 2.90397 22.7755 2.44481C22.8257 2.28112 22.9088 2.22182 23.0836 2.22334C23.969 2.23145 24.8544 2.22081 25.7398 2.23196C25.9369 2.23449 26.0261 2.16253 26.0818 1.98464C26.2258 1.527 26.3834 1.07342 26.5354 0.618313C27.138 0.589426 27.14 0.589933 26.9627 1.14792C26.8126 1.62076 26.6479 2.08955 26.5096 2.56543C26.4437 2.79197 26.3271 2.86089 26.0935 2.85734C25.2421 2.84315 24.3907 2.85734 23.5392 2.84772C23.3386 2.84518 23.2463 2.90296 23.1814 3.10314C22.2702 5.92043 21.3478 8.73366 20.4331 11.5499C20.3667 11.7552 20.2674 11.8449 20.0393 11.8307C19.6952 11.8094 19.3485 11.8256 19.0029 11.8251C18.6953 11.8246 18.6846 11.8069 18.7895 11.5084C18.8205 11.4212 18.8488 11.333 18.8782 11.2459H18.8792Z" fill="#231C18"/>
<path d="M45.6173 9.04993C45.1931 9.08996 45.0487 8.90143 45.1896 8.45444C45.5367 7.35469 45.894 6.25848 46.2488 5.16177C46.4743 4.46543 46.7034 3.7696 46.9309 3.07377C46.9573 2.9937 46.9821 2.91311 47.0125 2.83456C47.1904 2.37135 47.4104 2.2188 47.9111 2.2183C49.6894 2.21728 51.4678 2.21221 53.2456 2.22387C53.5112 2.2259 53.6293 2.14684 53.7089 1.8909C53.8457 1.451 53.9597 1.00046 54.17 0.585394C54.568 0.569852 54.7045 0.750948 54.5795 1.12868C54.4204 1.6076 54.2486 2.08247 54.1037 2.56545C54.0403 2.7778 53.9258 2.82848 53.7195 2.82747C51.9498 2.82088 50.1795 2.82341 48.4098 2.82392C47.79 2.82392 47.5862 2.96734 47.3931 3.55573C46.8063 5.34524 46.2224 7.13575 45.6381 8.92627C45.6254 8.96529 45.6244 9.00837 45.6178 9.04993H45.6173Z" fill="#231C18"/>
<path d="M5.54185 4.9737C5.95489 5.06797 6.37806 5.03553 6.79566 5.06949C8.53347 5.21139 10.2728 5.33454 12.0116 5.46276C13.4063 5.56564 14.8015 5.66092 16.1957 5.77039C16.3817 5.78508 16.4593 5.72934 16.5312 5.56057C16.7193 5.11966 16.8622 4.65898 17.1065 4.2429C17.2408 4.23226 17.3756 4.22871 17.5089 4.20996C17.7258 4.18006 17.7334 4.26875 17.6619 4.43751C17.4313 4.97978 17.1875 5.518 16.9904 6.07295C16.889 6.35726 16.74 6.40388 16.4659 6.38158C14.5172 6.22498 12.5676 6.08562 10.6179 5.93915C8.89533 5.80992 7.17323 5.67764 5.45062 5.54942C4.45071 5.47492 3.45029 5.406 2.45038 5.33099C2.36676 5.32491 2.26337 5.34974 2.198 5.23724C3.31802 5.12523 4.43551 5.11763 5.54134 4.97319L5.54185 4.9737Z" fill="#231C18"/>
<path d="M60.7837 11.2829C60.8972 11.2408 61.0153 11.2479 61.1329 11.2479C63.1499 11.2479 65.167 11.2342 67.184 11.2565C67.7694 11.2631 68.1257 10.9854 68.3649 10.513C68.594 10.061 68.7115 9.56379 68.8702 9.08436C69.1165 8.34039 69.3506 7.59235 69.5878 6.84533C69.644 6.66795 69.6724 6.48449 69.6719 6.29749C69.9395 6.32485 69.9917 6.54784 70.0515 6.74296C70.1108 6.93808 70.1037 7.1484 70.0434 7.34351C69.6709 8.5502 69.2959 9.75638 68.8626 10.9423C68.6157 11.6184 68.2093 11.8758 67.4962 11.8758C65.3266 11.8758 63.1575 11.8758 60.9879 11.8758C60.7555 11.8758 60.6654 11.7648 60.7178 11.5428C60.7386 11.4557 60.7614 11.3695 60.7832 11.2823L60.7837 11.2829Z" fill="#231C18"/>
<path d="M69.5027 11.2768C69.787 11.2175 70.0748 11.2509 70.3602 11.252C70.5218 11.252 70.5948 11.1993 70.6455 11.0421C71.2993 9.01394 71.9591 6.98777 72.6205 4.9621C72.7817 4.46797 72.7107 4.57085 73.1668 4.55362C74.448 4.50598 75.7302 4.52929 77.0119 4.52473C77.4447 4.52321 77.5785 4.75735 77.3687 5.14252C76.0525 5.14809 74.7364 5.15823 73.4202 5.15519C73.2276 5.15519 73.1455 5.21043 73.0852 5.39794C72.4223 7.46466 71.7458 9.52682 71.0824 11.593C71.0144 11.8049 70.9166 11.891 70.6896 11.8799C70.3191 11.8621 69.9471 11.8703 69.5762 11.8768C69.3922 11.8799 69.3258 11.8196 69.3937 11.6366C69.4373 11.519 69.4667 11.3964 69.5022 11.2763L69.5027 11.2768Z" fill="#231C18"/>
<path d="M7.02415 8.88823C8.33574 8.6921 9.62149 8.99719 10.9164 9.1021C12.3075 9.21512 13.6951 9.37273 15.0838 9.51565C15.2464 9.53237 15.3235 9.48068 15.3711 9.32002C15.4785 8.95716 15.6098 8.60189 15.7274 8.24207C15.7568 8.15287 15.7917 8.06975 15.8571 8.00184C16.2504 7.95049 16.3867 8.10928 16.2661 8.47823C16.1055 8.96577 15.9382 9.45128 15.7826 9.94085C15.733 10.0964 15.6554 10.1476 15.4877 10.1304C13.3845 9.91551 11.2807 9.70722 9.17703 9.49791C7.97794 9.37881 6.77937 9.26124 5.5813 9.14264C5.61982 9.09906 5.65732 9.05548 5.69482 9.01189C5.98268 8.98148 6.27054 8.95057 6.5584 8.92016C6.57716 8.94043 6.59439 8.93942 6.60908 8.91509L7.02466 8.88874L7.02415 8.88823Z" fill="#231C18"/>
<path d="M75.9045 11.2843C76.1701 11.2113 76.4407 11.2544 76.7088 11.2519C76.8654 11.2504 76.945 11.2078 76.9977 11.0456C77.8233 8.49896 78.657 5.95535 79.4881 3.41072C79.5459 3.23385 79.5839 3.05292 79.5971 2.86743C79.9331 3.01542 80.0866 3.44467 79.9503 3.86075C79.5028 5.22505 79.0528 6.58884 78.6073 7.95365C78.2064 9.18213 77.8055 10.4111 77.4153 11.6431C77.3591 11.8215 77.2734 11.8844 77.0925 11.8793C76.722 11.8692 76.3505 11.8676 75.9806 11.8793C75.7652 11.8859 75.7337 11.7972 75.7971 11.6203C75.8366 11.5098 75.8691 11.3963 75.905 11.2843H75.9045Z" fill="#231C18"/>
<path d="M43.3636 11.2616C43.4645 11.257 43.5654 11.2489 43.6667 11.2489C45.8774 11.2484 48.0875 11.2444 50.2982 11.254C50.5338 11.255 50.6347 11.1836 50.7087 10.9601C50.8561 10.5136 50.9849 10.058 51.1997 9.63529C51.2672 9.63529 51.3346 9.63428 51.402 9.63428C51.7962 9.6358 51.7998 9.63681 51.6756 9.99917C51.4871 10.5475 51.2889 11.0928 51.1019 11.6422C51.0462 11.8059 50.9636 11.8814 50.7756 11.8809C48.5183 11.8748 46.261 11.8779 44.0037 11.8758C43.5937 11.8758 43.3865 11.6701 43.3642 11.2621L43.3636 11.2616Z" fill="#231C18"/>
<path d="M64.2411 5.65885C63.8529 5.68419 63.6943 5.48755 63.8043 5.11759C63.9158 4.74205 64.2102 4.52514 64.6101 4.52514C66.431 4.52514 68.2519 4.5216 70.0723 4.52971C70.2953 4.53072 70.3941 4.46332 70.4621 4.24387C70.608 3.77154 70.7231 3.28653 70.9562 2.8446C71.5258 2.86893 71.5278 2.86944 71.3479 3.41475C71.1847 3.90888 71.0023 4.39743 70.8574 4.89713C70.7976 5.1034 70.7008 5.15408 70.5021 5.15307C68.6913 5.14699 66.8805 5.16067 65.0702 5.1409C64.6506 5.13634 64.4048 5.30713 64.2406 5.65936L64.2411 5.65885Z" fill="#231C18"/>
<path d="M54.2328 4.5303C54.3332 4.52169 54.433 4.50598 54.5334 4.50598C56.1749 4.50446 57.8164 4.50496 59.4579 4.50496C59.915 4.50496 60.0357 4.69096 59.8639 5.12883C58.0505 5.12883 56.2372 5.12832 54.4239 5.12782C54.1668 5.12782 54.0781 5.00906 54.1578 4.77154C54.1847 4.69197 54.208 4.61088 54.2328 4.5303Z" fill="#231C18"/>
<path d="M26.6788 4.5303C26.7959 4.52169 26.913 4.50598 27.03 4.50598C28.629 4.50446 30.2279 4.50496 31.8274 4.50496C32.3139 4.50496 32.4188 4.65143 32.2708 5.12174C30.4347 5.12376 28.5986 5.12376 26.7624 5.12985C26.5541 5.13035 26.5101 5.05231 26.5785 4.86884C26.6195 4.75887 26.6459 4.64332 26.6788 4.5303Z" fill="#231C18"/>
<path d="M62.0148 7.8584C62.1993 7.86752 62.3837 7.88374 62.5682 7.88475C64.0911 7.89337 65.6146 7.89945 67.1375 7.90654C67.5465 7.90857 67.6818 8.14221 67.4943 8.5223C65.9308 8.51521 64.3668 8.5071 62.8034 8.50254C62.6584 8.50254 62.517 8.48885 62.3812 8.44426C62.1268 8.36063 61.9955 8.14525 62.0148 7.85891V7.8584Z" fill="#231C18"/>
<path d="M74.0679 2.2659C73.4623 2.32671 73.4572 2.32469 73.6377 1.76417C73.7654 1.36735 73.8703 0.961908 74.0471 0.58181C74.6355 0.573701 74.6391 0.575221 74.4582 1.12763C74.3335 1.50874 74.1982 1.88631 74.0679 2.2659Z" fill="#231C18"/>
<path d="M5.6944 9.01193C5.6569 9.05552 5.6194 9.0991 5.58088 9.14269C5.50942 9.14928 5.43746 9.16144 5.37512 9.08897C5.48054 9.03474 5.57987 8.99521 5.6944 9.01193Z" fill="#EE7229"/>
<path d="M6.60866 8.91508C6.59397 8.9394 6.57673 8.94041 6.55798 8.92014C6.57217 8.89126 6.5894 8.8948 6.60866 8.91508Z" fill="#EE7229"/>
<path d="M54.3692 9.06004C54.0864 9.19231 53.8771 8.96426 53.8974 8.67234C53.9283 8.22332 54.2572 7.90809 54.7087 7.90708C56.0234 7.90454 57.338 7.91012 58.6526 7.90201C58.8741 7.90049 58.9491 7.95522 58.8604 8.17112C58.8128 8.28717 58.8082 8.41945 58.7297 8.52436C57.5113 8.52283 56.293 8.51929 55.0746 8.52081C54.73 8.52131 54.5101 8.69768 54.3697 9.06004H54.3692Z" fill="#231C18"/>
<path d="M26.8156 9.04995C26.3874 9.11177 26.2551 8.96632 26.359 8.5472C26.4614 8.13366 26.7421 7.90813 27.1764 7.90712C28.4815 7.90408 29.787 7.9056 31.092 7.9061C31.3702 7.9061 31.3869 7.9279 31.3063 8.19396C31.2724 8.30546 31.2516 8.42456 31.1705 8.51679C29.9735 8.5173 28.7769 8.51679 27.5799 8.51984C27.1719 8.52085 26.9682 8.66681 26.8151 9.04995H26.8156Z" fill="#231C18"/>
<path d="M41.05 5.10191C39.7785 5.10191 38.5064 5.11154 37.2348 5.09482C36.9662 5.09127 36.8517 5.1759 36.7731 5.42474C36.4077 6.57821 36.0251 7.72611 35.6476 8.87553C35.6293 8.93127 35.6035 8.98398 35.5812 9.03821C35.1619 9.08213 35.0174 8.90627 35.1479 8.51063C35.5619 7.2558 35.98 6.00198 36.3865 4.74462C36.4452 4.56319 36.5243 4.49021 36.7209 4.49122C38.0442 4.49882 39.368 4.49426 40.6912 4.49578C41.0794 4.49578 41.2132 4.72587 41.0505 5.10141L41.05 5.10191Z" fill="#231C18"/>
<path d="M5.21184 1.52198C5.21995 1.51995 5.23211 1.52046 5.23516 1.51539C5.24124 1.50525 5.24732 1.48194 5.24529 1.48143C5.1115 1.4191 4.96959 1.47028 4.83225 1.45356C4.82414 1.45254 4.80945 1.45609 4.80894 1.45407C4.80286 1.43329 4.80792 1.43278 4.82161 1.45457C4.94881 1.49714 5.07805 1.52299 5.21184 1.52248V1.52198Z" fill="#FFFFFE"/>
<path d="M4.45117 1.43835L4.45827 1.45153L4.46536 1.43835H4.45117Z" fill="#FFFFFE"/>
</g>
</g>
<defs>
<clipPath id="clip0_1801_10162">
<rect width="80" height="15.2485" fill="white"/>
</clipPath>
<clipPath id="clip1_1801_10162">
<rect width="80" height="15.2485" fill="white"/>
</clipPath>
</defs>
</svg>
