<svg width="80" height="17" viewBox="0 0 80 17" fill="none" xmlns="http://www.w3.org/2000/svg">
<g clip-path="url(#clip0_1801_10066)">
<path fill-rule="evenodd" clip-rule="evenodd" d="M37.8993 0.00134277H39.7229V16.0312H35.96V1.95991C35.96 0.88306 36.8344 0.00134277 37.8993 0.00134277Z" fill="#29458F"/>
<path fill-rule="evenodd" clip-rule="evenodd" d="M78.1764 0.00134277H80V16.0312H76.2299V1.95991C76.2299 0.88306 77.1044 0.00134277 78.1764 0.00134277Z" fill="#29458F"/>
<path fill-rule="evenodd" clip-rule="evenodd" d="M41.7249 0.938441V0.0904541H56.6321V2.89701L46.2178 13.2222H56.3985V16.0288H41.5731V13.2222L51.9875 2.89701H43.6642C42.5922 2.89701 41.7249 2.01529 41.7249 0.938441Z" fill="#29458F"/>
<path fill-rule="evenodd" clip-rule="evenodd" d="M59.0364 0.938441V0.0904541H73.9509V2.89701L63.5365 13.2222H73.7172V16.0288H58.8918V13.2222L69.3062 2.89701H60.9757C59.9085 2.89701 59.0364 2.01529 59.0364 0.938441Z" fill="#29458F"/>
<path fill-rule="evenodd" clip-rule="evenodd" d="M21.6888 2.63444H27.0634C28.2655 2.63444 29.5013 3.62697 29.5013 4.84114C29.5013 6.05531 28.463 7.04784 27.22 7.04784H21.6888V2.63444ZM19.8314 0.00133634H21.655H27.4175C27.4175 0.00133634 31.6454 -0.143205 32.9222 2.57421C34.1918 5.29886 32.226 7.31284 32.226 7.31284C32.226 7.31284 31.3852 8.07169 30.518 8.27887H30.3541C31.4888 8.67154 32.3151 9.38944 32.6018 10.3001C32.8885 11.2035 32.8885 12.5212 32.8885 14.0727C32.8885 15.6169 33.6112 15.9132 33.6112 15.9132H29.4194C29.0701 15.5615 28.8943 14.0992 28.8654 12.9259C28.8389 11.76 28.6341 10.8855 28.6341 10.8855C28.3474 9.50508 25.9986 9.68576 25.9986 9.68576H21.655V16.0312H17.8921V1.9599C17.8921 0.883054 18.7666 0.00133634 19.8314 0.00133634Z" fill="#29458F"/>
<path fill-rule="evenodd" clip-rule="evenodd" d="M3.73645 2.80066H9.02915C10.1975 2.80066 11.113 3.49688 11.125 4.52555C11.1467 5.63613 9.96387 6.33957 8.91352 6.33957H3.73645V2.80066ZM1.93929 0.109741H3.76295H9.15201C12.0212 0.109741 15.1602 1.22754 15.0325 4.4075C14.9699 5.74453 13.7967 7.00206 12.5343 7.45496C13.2787 7.68864 14.0978 8.06205 14.7121 8.64745C15.7022 9.58457 15.9287 11.7648 15.312 12.9789C15.0446 13.5089 14.2954 14.6412 12.8547 15.2748C11.9658 15.6602 10.6071 15.8963 9.42664 15.971C7.61744 16.0818 5.59624 15.9854 3.76536 15.9854H0V2.0659C0 0.993865 0.874488 0.109741 1.93929 0.109741ZM3.73645 8.96785H9.47242C10.7227 8.96785 11.7056 9.80862 11.7249 11.0372C11.7466 12.3694 10.4746 13.2102 9.34955 13.2102H3.73645V8.96785Z" fill="#29458F"/>
</g>
<defs>
<clipPath id="clip0_1801_10066">
<rect width="80" height="16.0312" fill="white"/>
</clipPath>
</defs>
</svg>
