<svg width="80" height="21" viewBox="0 0 80 21" fill="none" xmlns="http://www.w3.org/2000/svg">
<g clip-path="url(#clip0_1801_10126)">
<path d="M37.5264 0C36.7644 0 35.9405 0.605801 35.9405 1.15069V14.7995H39.5786V0H37.5264Z" fill="#1F327F"/>
<path d="M77.867 0C77.105 0 76.281 0.605801 76.281 1.15069V14.7995H79.9192V0H77.867Z" fill="#1F327F"/>
<path d="M12.5922 6.73139C12.5922 6.73139 14.8615 5.8609 14.8615 3.57613C14.8615 0.512798 11.1148 2.70602e-05 9.42036 2.70602e-05H1.58593C0.823977 2.70602e-05 0 0.605828 0 1.15072V14.7995H9.42036C11.1148 14.7995 15.444 14.248 15.444 10.2255C15.444 7.4867 12.5911 6.73139 12.5911 6.73139H12.5922ZM9.17229 2.47196C10.1978 2.47196 11.0296 3.19183 11.0296 4.08115C11.0296 4.97047 10.1978 5.69034 9.17229 5.69034H3.63813V2.47196H9.17229ZM8.98623 12.2655H3.63813V8.16117H8.97404C10.735 8.16117 11.5113 9.07928 11.5113 10.2134C11.5113 11.4881 10.3374 12.2655 8.98512 12.2655H8.98623Z" fill="#1F327F"/>
<path d="M32.8317 13.991C32.6302 13.5247 32.7697 11.2544 32.5205 9.71607C32.2713 8.17665 30.3554 7.66055 30.3554 7.66055C30.3554 7.66055 33.0831 7.01931 33.0831 3.91832C33.0842 0.303454 29.5048 0 27.5113 0H19.5252C18.7632 0 17.9392 0.605801 17.9392 1.15069V14.7995H21.5773V8.90759H26.6763C29.3653 8.90759 28.9145 11.8613 28.9145 12.9023C28.9145 13.9434 29.3187 14.7984 29.3187 14.7984H33.3921C33.3921 14.7984 33.0344 14.4561 32.8328 13.9899L32.8317 13.991ZM27.1724 6.38915H21.5773V2.34789H27.1724C28.3873 2.34789 29.3719 3.25272 29.3719 4.36907C29.3719 5.48543 28.3873 6.39025 27.1724 6.39025V6.38915Z" fill="#1F327F"/>
<path d="M41.6308 0H56.4923V2.30027L46.1394 12.1869H56.3372V14.7984H41.4757V12.0939L51.9637 2.44203C51.9637 2.44203 45.8127 2.45532 43.8225 2.45532C42.2133 2.45532 41.6308 1.74763 41.6308 0.955769V0Z" fill="#1F327F"/>
<path d="M58.9476 0H73.8091V2.30027L63.4562 12.1869H73.654V14.7984H58.7925V12.0939L69.2816 2.44203C69.2816 2.44203 63.1306 2.45532 61.1404 2.45532C59.5312 2.45532 58.9487 1.74763 58.9487 0.955769V0H58.9476Z" fill="#1F327F"/>
<path d="M43.3286 19.2715V19.1951C43.2566 19.2848 43.1824 19.3613 43.1038 19.4222C43.0251 19.4831 42.9398 19.5285 42.8468 19.5584C42.7538 19.5883 42.6475 19.6027 42.5279 19.6027C42.3839 19.6027 42.2554 19.5728 42.1413 19.513C42.0273 19.4532 41.9387 19.3712 41.8766 19.2671C41.8024 19.1409 41.7659 18.9592 41.7659 18.7222V17.5427C41.7659 17.4231 41.7925 17.3345 41.8467 17.2758C41.901 17.2171 41.9719 17.1872 42.0605 17.1872C42.1491 17.1872 42.2233 17.2171 42.2787 17.2769C42.334 17.3367 42.3617 17.4253 42.3617 17.5427V18.4963C42.3617 18.6347 42.3728 18.7499 42.3961 18.844C42.4193 18.9382 42.4614 19.0113 42.5212 19.0644C42.5821 19.1176 42.663 19.1442 42.7671 19.1442C42.8712 19.1442 42.962 19.1143 43.0506 19.0545C43.1392 18.9947 43.2034 18.9171 43.2444 18.8208C43.2776 18.7366 43.2942 18.5517 43.2942 18.267V17.5427C43.2942 17.4253 43.3219 17.3367 43.3773 17.2769C43.4327 17.2171 43.5047 17.1872 43.5933 17.1872C43.6819 17.1872 43.7527 17.2171 43.807 17.2758C43.8613 17.3345 43.8879 17.4242 43.8879 17.5427V19.2671C43.8879 19.3801 43.8624 19.4654 43.8103 19.5218C43.7594 19.5783 43.6918 19.6071 43.611 19.6071C43.5301 19.6071 43.4626 19.5783 43.4094 19.5185C43.3563 19.4598 43.3297 19.3768 43.3297 19.2715H43.3286Z" fill="#1F327F"/>
<path d="M45.9844 19.2715C45.8404 19.3834 45.7008 19.4676 45.5668 19.5229C45.4328 19.5794 45.2811 19.6071 45.1139 19.6071C44.961 19.6071 44.827 19.5772 44.7118 19.5174C44.5967 19.4565 44.507 19.3756 44.4449 19.2715C44.3818 19.1685 44.3508 19.0567 44.3508 18.936C44.3508 18.7732 44.4028 18.6347 44.5058 18.5196C44.6088 18.4044 44.7506 18.328 44.9311 18.2881C44.9688 18.2792 45.0629 18.2593 45.2124 18.2294C45.3619 18.1984 45.4904 18.1707 45.5978 18.1452C45.7042 18.1197 45.8204 18.0887 45.9456 18.0522C45.9378 17.8949 45.9068 17.7797 45.8503 17.7067C45.7939 17.6336 45.6787 17.597 45.5026 17.597C45.3509 17.597 45.2379 17.6181 45.1615 17.6601C45.0851 17.7022 45.0197 17.7653 44.9655 17.8495C44.9112 17.9337 44.8724 17.9891 44.8503 18.0156C44.8281 18.0422 44.7794 18.0566 44.7052 18.0566C44.6376 18.0566 44.5812 18.0356 44.5313 17.9924C44.4826 17.9492 44.4582 17.8949 44.4582 17.8274C44.4582 17.7222 44.4948 17.6203 44.569 17.5217C44.6432 17.4231 44.7584 17.3412 44.9156 17.278C45.0729 17.2138 45.2678 17.1817 45.5015 17.1817C45.764 17.1817 45.9688 17.2127 46.1184 17.2747C46.2679 17.3367 46.3742 17.4342 46.4362 17.5682C46.4982 17.7022 46.5281 17.8794 46.5281 18.0998C46.5281 18.2394 46.5281 18.3579 46.5281 18.4553C46.5281 18.5528 46.5259 18.6613 46.5248 18.7798C46.5248 18.8917 46.5436 19.008 46.5802 19.1298C46.6178 19.2516 46.6356 19.3291 46.6356 19.3646C46.6356 19.4255 46.6068 19.4809 46.5492 19.5318C46.4916 19.5816 46.4262 19.6071 46.3543 19.6071C46.2933 19.6071 46.2324 19.5783 46.1737 19.5207C46.1139 19.4631 46.0508 19.3801 45.9844 19.2715ZM45.9445 18.4099C45.857 18.442 45.7307 18.4753 45.5646 18.5118C45.3985 18.5472 45.2833 18.5738 45.2191 18.5904C45.1548 18.607 45.0939 18.6403 45.0363 18.6879C44.9776 18.7366 44.9488 18.8042 44.9488 18.8917C44.9488 18.9792 44.9832 19.0589 45.0518 19.122C45.1205 19.1852 45.2091 19.2173 45.3199 19.2173C45.4372 19.2173 45.5458 19.1918 45.6455 19.1398C45.7451 19.0888 45.8182 19.0224 45.8647 18.9404C45.9179 18.8507 45.9456 18.7023 45.9456 18.4952V18.4099H45.9445Z" fill="#1F327F"/>
<path d="M47.6744 17.5162V17.5881C47.7796 17.4497 47.8937 17.3489 48.0177 17.2847C48.1418 17.2205 48.2846 17.1872 48.4463 17.1872C48.608 17.1872 48.7431 17.2216 48.8672 17.2902C48.9912 17.3589 49.0831 17.4552 49.144 17.5804C49.1839 17.6535 49.2094 17.7321 49.2205 17.8152C49.2315 17.8994 49.2371 18.0068 49.2371 18.1375V19.245C49.2371 19.3646 49.2105 19.4543 49.1551 19.5152C49.1008 19.5761 49.03 19.606 48.9425 19.606C48.855 19.606 48.7819 19.575 48.7265 19.5119C48.6711 19.4498 48.6435 19.3601 48.6435 19.2439V18.2515C48.6435 18.0555 48.6158 17.9049 48.5615 17.8008C48.5072 17.6967 48.3987 17.6446 48.2359 17.6446C48.1296 17.6446 48.0332 17.6767 47.9457 17.7399C47.8582 17.803 47.794 17.8905 47.7541 18.0001C47.7253 18.0887 47.7109 18.2549 47.7109 18.4974V19.2427C47.7109 19.3635 47.6833 19.4543 47.6268 19.5141C47.5703 19.5739 47.4983 19.6038 47.4097 19.6038C47.3211 19.6038 47.2535 19.5728 47.1982 19.5097C47.1428 19.4476 47.1151 19.3579 47.1151 19.2416V17.5206C47.1151 17.4076 47.1395 17.3224 47.1893 17.267C47.238 17.2116 47.3067 17.1828 47.392 17.1828C47.444 17.1828 47.4917 17.195 47.5337 17.2205C47.5758 17.2448 47.6102 17.2825 47.6356 17.3312C47.6611 17.381 47.6733 17.4409 47.6733 17.5117L47.6744 17.5162Z" fill="#1F327F"/>
<path d="M52.0202 17.6236V19.3524C52.0202 19.5506 51.9992 19.7201 51.9571 19.8629C51.915 20.0058 51.8474 20.1232 51.7544 20.2162C51.6614 20.3093 51.5396 20.3779 51.3889 20.4233C51.2383 20.4687 51.0511 20.4909 50.8274 20.4909C50.6225 20.4909 50.4398 20.4621 50.2781 20.4045C50.1164 20.3469 49.9924 20.2727 49.9049 20.1819C49.8174 20.0911 49.7742 19.9981 49.7742 19.9017C49.7742 19.8286 49.7986 19.7699 49.8484 19.7245C49.8982 19.6791 49.9569 19.6558 50.0278 19.6558C50.1153 19.6558 50.1917 19.6946 50.2571 19.771C50.2892 19.8098 50.3224 19.8497 50.3556 19.8895C50.39 19.9294 50.4276 19.9637 50.4697 19.9925C50.5107 20.0202 50.5605 20.0424 50.6192 20.0557C50.6768 20.0689 50.7444 20.0767 50.8197 20.0767C50.9736 20.0767 51.0932 20.0557 51.1785 20.0125C51.2638 19.9693 51.3236 19.9095 51.3568 19.833C51.3911 19.7555 51.4111 19.6736 51.4166 19.5861C51.4222 19.4986 51.4266 19.3568 51.4299 19.1619C51.338 19.2904 51.2328 19.3867 51.1121 19.4543C50.9925 19.5218 50.8496 19.5551 50.6835 19.5551C50.4841 19.5551 50.3102 19.5041 50.1618 19.4022C50.0123 19.3003 49.8982 19.1575 49.8185 18.9747C49.7388 18.792 49.6989 18.5805 49.6989 18.3401C49.6989 18.1607 49.7233 18.0001 49.772 17.8562C49.8207 17.7122 49.8905 17.5915 49.9802 17.4918C50.0699 17.3932 50.174 17.319 50.2925 17.2681C50.4099 17.2182 50.5395 17.1928 50.6801 17.1928C50.8485 17.1928 50.9947 17.2249 51.1187 17.2902C51.2427 17.3556 51.3568 17.4564 51.4631 17.5948V17.5139C51.4631 17.4109 51.4886 17.3312 51.5396 17.2736C51.5905 17.2171 51.6558 17.1883 51.7356 17.1883C51.8508 17.1883 51.9261 17.226 51.9648 17.3013C52.0025 17.3766 52.0213 17.484 52.0213 17.6247L52.0202 17.6236ZM50.2958 18.3778C50.2958 18.6192 50.3479 18.802 50.4542 18.9249C50.5594 19.0489 50.6956 19.1098 50.8629 19.1098C50.9614 19.1098 51.0545 19.0833 51.1431 19.0301C51.2306 18.9769 51.3026 18.8972 51.3579 18.7909C51.4133 18.6835 51.441 18.5539 51.441 18.4011C51.441 18.1585 51.3878 17.9691 51.2804 17.834C51.1741 17.6989 51.0334 17.6313 50.8584 17.6313C50.6835 17.6313 50.5517 17.6956 50.4498 17.8252C50.3468 17.9547 50.2958 18.1386 50.2958 18.3767V18.3778Z" fill="#1F327F"/>
<path d="M54.0392 16.9104C53.9561 16.9104 53.8852 16.8849 53.8265 16.8339C53.7678 16.783 53.7379 16.711 53.7379 16.618C53.7379 16.5338 53.7678 16.464 53.8288 16.4098C53.8897 16.3555 53.9594 16.3278 54.0392 16.3278C54.1189 16.3278 54.1843 16.3522 54.2441 16.402C54.3039 16.4519 54.3338 16.5238 54.3338 16.618C54.3338 16.7121 54.305 16.7808 54.2463 16.8328C54.1876 16.8838 54.1189 16.9104 54.0392 16.9104ZM54.3338 19.2461C54.3338 19.3657 54.305 19.4554 54.2485 19.5163C54.192 19.5772 54.12 19.6071 54.0325 19.6071C53.945 19.6071 53.8742 19.5761 53.8199 19.513C53.7656 19.451 53.7379 19.3613 53.7379 19.245V17.5416C53.7379 17.4242 53.7656 17.3356 53.8199 17.2758C53.8742 17.216 53.945 17.1861 54.0325 17.1861C54.12 17.1861 54.192 17.216 54.2485 17.2758C54.305 17.3356 54.3338 17.4187 54.3338 17.5239V19.2461Z" fill="#1F327F"/>
<path d="M56.8655 18.8297C56.8655 18.9936 56.8256 19.1342 56.7459 19.2516C56.6662 19.369 56.5477 19.4576 56.3915 19.5174C56.2353 19.5772 56.0448 19.6071 55.8211 19.6071C55.5974 19.6071 55.4235 19.575 55.2718 19.5097C55.119 19.4443 55.0071 19.3624 54.934 19.2649C54.8609 19.1663 54.8244 19.0678 54.8244 18.9692C54.8244 18.9039 54.8476 18.8474 54.8942 18.8009C54.9407 18.7543 54.9994 18.7311 55.0714 18.7311C55.1334 18.7311 55.1821 18.7466 55.2153 18.7765C55.2486 18.8075 55.2807 18.8496 55.3117 18.905C55.3726 19.0113 55.4457 19.0899 55.531 19.1431C55.6162 19.1951 55.7314 19.2217 55.8787 19.2217C55.9983 19.2217 56.0958 19.1951 56.1722 19.142C56.2486 19.0888 56.2863 19.0279 56.2863 18.9592C56.2863 18.8551 56.2464 18.7787 56.1678 18.73C56.0891 18.6824 55.9585 18.6358 55.7768 18.5926C55.5719 18.5417 55.4047 18.4885 55.2762 18.4321C55.1478 18.3767 55.0448 18.3025 54.9673 18.2106C54.8908 18.1186 54.8521 18.0068 54.8521 17.8728C54.8521 17.7532 54.8875 17.6413 54.9595 17.535C55.0304 17.4287 55.1356 17.3445 55.274 17.2814C55.4125 17.2182 55.5808 17.1861 55.7768 17.1861C55.9308 17.1861 56.0692 17.2016 56.1921 17.2337C56.3151 17.2659 56.417 17.3091 56.5 17.3622C56.582 17.4154 56.6451 17.4752 56.6872 17.5405C56.7304 17.6059 56.7514 17.6701 56.7514 17.7321C56.7514 17.8008 56.7282 17.8562 56.6828 17.9005C56.6374 17.9437 56.572 17.9658 56.4878 17.9658C56.4269 17.9658 56.3749 17.9481 56.3317 17.9138C56.2885 17.8783 56.2398 17.8263 56.1844 17.7565C56.139 17.6978 56.0858 17.6524 56.0249 17.6169C55.964 17.5826 55.8809 17.5649 55.7768 17.5649C55.6727 17.5649 55.5797 17.5881 55.5088 17.6336C55.4368 17.679 55.4014 17.7366 55.4014 17.8041C55.4014 17.8661 55.428 17.9182 55.48 17.9581C55.5321 17.9979 55.603 18.0311 55.6916 18.0577C55.7802 18.0843 55.902 18.1164 56.0581 18.1541C56.2431 18.1995 56.3937 18.2526 56.5111 18.3158C56.6285 18.3778 56.7171 18.452 56.7769 18.5373C56.8367 18.6226 56.8677 18.7189 56.8677 18.8285L56.8655 18.8297Z" fill="#1F327F"/>
<path d="M57.6695 16.9104C57.5865 16.9104 57.5167 16.8849 57.4569 16.8339C57.3982 16.783 57.3683 16.711 57.3683 16.618C57.3683 16.5338 57.3982 16.464 57.4591 16.4098C57.5189 16.3555 57.5898 16.3278 57.6695 16.3278C57.7493 16.3278 57.8146 16.3522 57.8744 16.402C57.9342 16.4519 57.9641 16.5238 57.9641 16.618C57.9641 16.7121 57.9353 16.7808 57.8767 16.8328C57.818 16.8838 57.7493 16.9104 57.6695 16.9104ZM57.9641 19.2461C57.9641 19.3657 57.9365 19.4554 57.8789 19.5163C57.8224 19.5772 57.7504 19.6071 57.6629 19.6071C57.5754 19.6071 57.5045 19.5761 57.4503 19.513C57.396 19.451 57.3683 19.3613 57.3683 19.245V17.5416C57.3683 17.4242 57.3949 17.3356 57.4503 17.2758C57.5045 17.216 57.5754 17.1861 57.6629 17.1861C57.7504 17.1861 57.8213 17.216 57.8789 17.2758C57.9353 17.3356 57.9641 17.4187 57.9641 17.5239V19.2461Z" fill="#1F327F"/>
<path d="M61.2412 19.2715V19.1951C61.1703 19.2848 61.095 19.3613 61.0164 19.4222C60.9378 19.4831 60.8525 19.5285 60.7595 19.5584C60.6664 19.5883 60.5601 19.6027 60.4405 19.6027C60.2965 19.6027 60.1681 19.5728 60.054 19.513C59.9399 19.4532 59.8513 19.3712 59.7893 19.2671C59.7151 19.1409 59.6785 18.9592 59.6785 18.7222V17.5427C59.6785 17.4231 59.7051 17.3345 59.7594 17.2758C59.8126 17.2171 59.8845 17.1872 59.9731 17.1872C60.0617 17.1872 60.1359 17.2171 60.1913 17.2769C60.2467 17.3367 60.2744 17.4253 60.2744 17.5427V18.4963C60.2744 18.6347 60.2866 18.7499 60.3098 18.844C60.3331 18.9382 60.3752 19.0113 60.435 19.0644C60.4948 19.1176 60.5767 19.1442 60.6797 19.1442C60.7827 19.1442 60.8746 19.1143 60.9632 19.0545C61.0518 18.9947 61.1161 18.9171 61.1571 18.8208C61.1903 18.7366 61.2069 18.5517 61.2069 18.267V17.5427C61.2069 17.4253 61.2346 17.3367 61.2899 17.2769C61.3453 17.2171 61.4173 17.1872 61.5059 17.1872C61.5945 17.1872 61.6654 17.2171 61.7197 17.2758C61.7739 17.3345 61.8005 17.4242 61.8005 17.5427V19.2671C61.8005 19.3801 61.775 19.4654 61.723 19.5218C61.6709 19.5783 61.6045 19.6071 61.5236 19.6071C61.4428 19.6071 61.3752 19.5783 61.3221 19.5185C61.2689 19.4598 61.2423 19.3768 61.2423 19.2715H61.2412Z" fill="#1F327F"/>
<path d="M62.393 19.2461V16.6645C62.393 16.546 62.4196 16.4552 62.4728 16.3943C62.5259 16.3334 62.5968 16.3023 62.6876 16.3023C62.7784 16.3023 62.8504 16.3322 62.9058 16.3932C62.9612 16.453 62.9888 16.5438 62.9888 16.6645V19.2461C62.9888 19.3668 62.9612 19.4576 62.9047 19.5174C62.8482 19.5772 62.7762 19.6071 62.6876 19.6071C62.599 19.6071 62.5292 19.5761 62.475 19.513C62.4207 19.451 62.393 19.3613 62.393 19.245V19.2461Z" fill="#1F327F"/>
<path d="M65.1075 19.2715C64.9635 19.3834 64.824 19.4676 64.69 19.5229C64.556 19.5794 64.4042 19.6071 64.2381 19.6071C64.0853 19.6071 63.9513 19.5772 63.8361 19.5174C63.7209 19.4565 63.6312 19.3756 63.5692 19.2715C63.5072 19.1685 63.4762 19.0567 63.4762 18.936C63.4762 18.7732 63.5282 18.6347 63.6312 18.5196C63.7342 18.4044 63.876 18.328 64.0565 18.2881C64.0941 18.2792 64.1883 18.2593 64.3378 18.2294C64.4873 18.1984 64.6158 18.1707 64.7221 18.1452C64.8295 18.1197 64.9447 18.0887 65.0698 18.0522C65.0621 17.8949 65.0311 17.7797 64.9746 17.7067C64.9181 17.6336 64.8029 17.597 64.6268 17.597C64.4751 17.597 64.3621 17.6181 64.2857 17.6601C64.2093 17.7022 64.144 17.7653 64.0897 17.8495C64.0354 17.9337 63.9967 17.9891 63.9745 18.0156C63.9524 18.0422 63.9036 18.0566 63.8294 18.0566C63.763 18.0566 63.7043 18.0356 63.6556 17.9924C63.6068 17.9492 63.5825 17.8949 63.5825 17.8274C63.5825 17.7222 63.619 17.6203 63.6932 17.5217C63.7674 17.4231 63.8826 17.3412 64.0399 17.278C64.1971 17.2138 64.392 17.1817 64.6268 17.1817C64.8882 17.1817 65.0942 17.2127 65.2437 17.2747C65.3932 17.3367 65.4995 17.4342 65.5605 17.5682C65.6225 17.7022 65.6535 17.8794 65.6535 18.0998C65.6535 18.2394 65.6535 18.3579 65.6524 18.4553C65.6524 18.5528 65.6502 18.6613 65.6491 18.7798C65.6491 18.8917 65.6679 19.008 65.7044 19.1298C65.7421 19.2516 65.7598 19.3291 65.7598 19.3646C65.7598 19.4255 65.731 19.4809 65.6734 19.5318C65.6158 19.5816 65.5505 19.6071 65.4785 19.6071C65.4176 19.6071 65.3567 19.5783 65.298 19.5207C65.2382 19.4631 65.1751 19.3801 65.1086 19.2715H65.1075ZM65.0676 18.4099C64.9801 18.442 64.8539 18.4753 64.6878 18.5118C64.5216 18.5472 64.4053 18.5738 64.3422 18.5904C64.278 18.607 64.2171 18.6403 64.1595 18.6879C64.1019 18.7366 64.072 18.8042 64.072 18.8917C64.072 18.9792 64.1063 19.0589 64.1739 19.122C64.2425 19.1852 64.3311 19.2173 64.4419 19.2173C64.5593 19.2173 64.6689 19.1918 64.7686 19.1398C64.8683 19.0888 64.9414 19.0224 64.9879 18.9404C65.0422 18.8507 65.0687 18.7023 65.0687 18.4952V18.4099H65.0676Z" fill="#1F327F"/>
<path d="M66.7975 17.5881C66.9016 17.4497 67.0168 17.3489 67.1409 17.2847C67.2649 17.2205 67.4078 17.1872 67.5695 17.1872C67.7312 17.1872 67.8663 17.2216 67.9903 17.2902C68.1143 17.3589 68.2063 17.4552 68.2672 17.5804C68.3059 17.6535 68.3314 17.7321 68.3436 17.8152C68.3558 17.8994 68.3613 18.0068 68.3613 18.1375V19.245C68.3613 19.3646 68.3336 19.4543 68.2794 19.5152C68.2251 19.5761 68.1542 19.606 68.0667 19.606C67.9792 19.606 67.9061 19.575 67.8508 19.5119C67.7954 19.4498 67.7677 19.3601 67.7677 19.2439V18.2515C67.7677 18.0555 67.74 17.9049 67.6857 17.8008C67.6315 17.6967 67.5229 17.6446 67.3601 17.6446C67.2538 17.6446 67.1575 17.6767 67.07 17.7399C66.9825 17.803 66.9182 17.8905 66.8784 18.0001C66.8496 18.0887 66.8352 18.2549 66.8352 18.4974V19.2427C66.8352 19.3635 66.8075 19.4543 66.751 19.5141C66.6956 19.5739 66.6226 19.6038 66.534 19.6038C66.4454 19.6038 66.3778 19.5728 66.3224 19.5097C66.267 19.4476 66.2393 19.3579 66.2393 19.2416V17.5206C66.2393 17.4076 66.2637 17.3224 66.3136 17.267C66.3634 17.2116 66.431 17.1828 66.5162 17.1828C66.5683 17.1828 66.6159 17.195 66.658 17.2205C66.7001 17.2448 66.7333 17.2825 66.7588 17.3312C66.7842 17.381 66.7975 17.4409 66.7975 17.5117V17.5881Z" fill="#1F327F"/>
<path d="M71.1433 17.6236V19.3524C71.1433 19.5506 71.1223 19.7201 71.0802 19.8629C71.0381 20.0058 70.9706 20.1232 70.8775 20.2162C70.7845 20.3093 70.6627 20.3779 70.5121 20.4233C70.3615 20.4687 70.1743 20.4909 69.9506 20.4909C69.7457 20.4909 69.5618 20.4621 69.4013 20.4045C69.2407 20.3469 69.1155 20.2727 69.028 20.1819C68.9405 20.0911 68.8973 19.9981 68.8973 19.9017C68.8973 19.8286 68.9217 19.7699 68.9715 19.7245C69.0214 19.6791 69.0812 19.6558 69.151 19.6558C69.2385 19.6558 69.3149 19.6946 69.3802 19.771C69.4123 19.8098 69.4456 19.8497 69.4799 19.8895C69.5142 19.9294 69.5519 19.9637 69.5928 19.9925C69.6349 20.0202 69.6837 20.0424 69.7424 20.0557C69.8011 20.0689 69.8675 20.0767 69.9428 20.0767C70.0968 20.0767 70.2164 20.0557 70.3017 20.0125C70.3869 19.9693 70.4467 19.9095 70.4811 19.833C70.5154 19.7555 70.5353 19.6736 70.5409 19.5861C70.5464 19.4986 70.5508 19.3568 70.5542 19.1619C70.4622 19.2904 70.357 19.3867 70.2374 19.4543C70.1178 19.5218 69.9738 19.5551 69.8088 19.5551C69.6095 19.5551 69.4356 19.5041 69.2861 19.4022C69.1366 19.3003 69.0225 19.1575 68.9427 18.9747C68.863 18.792 68.8231 18.5805 68.8231 18.3401C68.8231 18.1607 68.8475 18.0001 68.8962 17.8562C68.945 17.7122 69.0147 17.5915 69.1044 17.4918C69.1942 17.3932 69.2983 17.319 69.4157 17.2681C69.5342 17.2182 69.6626 17.1928 69.8044 17.1928C69.9727 17.1928 70.1189 17.2249 70.243 17.2902C70.367 17.3545 70.4811 17.4564 70.5874 17.5948V17.5139C70.5874 17.4109 70.6129 17.3312 70.6638 17.2736C70.7147 17.2171 70.7801 17.1883 70.8598 17.1883C70.975 17.1883 71.0514 17.226 71.0891 17.3013C71.1267 17.3766 71.1456 17.484 71.1456 17.6247L71.1433 17.6236ZM69.419 18.3778C69.419 18.6192 69.4721 18.802 69.5773 18.9249C69.6826 19.0489 69.8188 19.1098 69.986 19.1098C70.0846 19.1098 70.1787 19.0833 70.2662 19.0301C70.3548 18.9769 70.4257 18.8972 70.4811 18.7909C70.5364 18.6835 70.5641 18.5539 70.5641 18.4011C70.5641 18.1585 70.511 17.9691 70.4035 17.834C70.2972 17.6989 70.1566 17.6313 69.9816 17.6313C69.8066 17.6313 69.6759 17.6956 69.5729 17.8252C69.471 17.9547 69.419 18.1386 69.419 18.3767V18.3778Z" fill="#1F327F"/>
<path d="M74.2676 19.5528H73.2908C73.1502 19.5528 73.0494 19.5207 72.9885 19.4576C72.9287 19.3945 72.8976 19.2937 72.8976 19.1553V16.752C72.8976 16.6113 72.9287 16.5094 72.9907 16.4474C73.0527 16.3854 73.1524 16.3555 73.2908 16.3555H74.3263C74.4792 16.3555 74.6109 16.3644 74.7228 16.3832C74.8347 16.402 74.9354 16.4386 75.024 16.4928C75.0993 16.5382 75.1669 16.5947 75.2245 16.6634C75.2821 16.7321 75.3264 16.8085 75.3574 16.8926C75.3873 16.9768 75.4028 17.0643 75.4028 17.1573C75.4028 17.4774 75.2433 17.7111 74.9233 17.8595C75.343 17.9935 75.5534 18.2538 75.5534 18.6403C75.5534 18.8186 75.508 18.9803 75.4161 19.1231C75.3242 19.266 75.2012 19.3723 75.0451 19.441C74.9476 19.482 74.8358 19.5108 74.7095 19.5274C74.5833 19.544 74.436 19.5528 74.2665 19.5528H74.2676ZM73.5455 16.8428V17.669H74.1392C74.3008 17.669 74.4249 17.6535 74.5135 17.6236C74.601 17.5926 74.6685 17.535 74.715 17.4486C74.7516 17.3877 74.7693 17.319 74.7693 17.2437C74.7693 17.082 74.7117 16.9757 74.5965 16.9225C74.4814 16.8694 74.3064 16.8428 74.0716 16.8428H73.5455ZM74.22 18.1341H73.5455V19.0678H74.241C74.6785 19.0678 74.8978 18.9094 74.8978 18.5949C74.8978 18.4332 74.8413 18.3169 74.7272 18.2438C74.6143 18.1707 74.4448 18.1353 74.2189 18.1353L74.22 18.1341Z" fill="#1F327F"/>
<path d="M76.9843 18.1862H76.7572V19.2128C76.7572 19.348 76.7273 19.4476 76.6675 19.5119C76.6077 19.5761 76.5302 19.6082 76.4339 19.6082C76.3309 19.6082 76.25 19.575 76.1935 19.5085C76.137 19.4421 76.1083 19.3435 76.1083 19.214V16.7542C76.1083 16.6147 76.1393 16.5139 76.2024 16.4508C76.2644 16.3887 76.3663 16.3577 76.5058 16.3577H77.5591C77.7042 16.3577 77.8282 16.3633 77.9323 16.3765C78.0353 16.3887 78.1283 16.4142 78.2114 16.4519C78.3111 16.4939 78.3997 16.5549 78.4772 16.6335C78.5536 16.7121 78.6123 16.8029 78.6533 16.907C78.6932 17.0111 78.7131 17.1208 78.7131 17.2371C78.7131 17.4752 78.6455 17.6657 78.5115 17.8085C78.3764 17.9514 78.1726 18.0522 77.9002 18.112C78.0154 18.1729 78.125 18.2637 78.2291 18.3822C78.3332 18.5018 78.4274 18.6281 78.5093 18.7632C78.5913 18.8972 78.6555 19.019 78.7009 19.1276C78.7463 19.2361 78.7696 19.3103 78.7696 19.3513C78.7696 19.3923 78.7563 19.4355 78.7286 19.4764C78.702 19.5174 78.6644 19.5506 78.6189 19.575C78.5724 19.5994 78.5182 19.6104 78.4573 19.6104C78.3842 19.6104 78.3233 19.5938 78.2734 19.5595C78.2247 19.5252 78.1815 19.482 78.146 19.4299C78.1106 19.3779 78.0619 19.3003 78.001 19.1984L77.7418 18.7665C77.6488 18.6082 77.5657 18.4874 77.4926 18.4044C77.4195 18.3213 77.3453 18.2648 77.2689 18.2338C77.1936 18.2039 77.0984 18.1884 76.9832 18.1884L76.9843 18.1862ZM77.3553 16.8428H76.7572V17.7222H77.3376C77.4937 17.7222 77.6244 17.7089 77.7296 17.6812C77.8359 17.6546 77.9168 17.6081 77.9722 17.5438C78.0287 17.4796 78.0563 17.3899 78.0563 17.2769C78.0563 17.1883 78.0342 17.1097 77.9888 17.0422C77.9434 16.9746 77.8814 16.9236 77.8016 16.8904C77.7263 16.8583 77.5768 16.8428 77.3542 16.8428H77.3553Z" fill="#1F327F"/>
<path d="M79.3532 19.2128V16.6944C79.3532 16.5637 79.3832 16.4651 79.443 16.3998C79.5028 16.3345 79.5792 16.3012 79.6744 16.3012C79.7697 16.3012 79.8505 16.3334 79.9114 16.3987C79.9712 16.4629 80.0022 16.5615 80.0022 16.6944V19.2128C80.0022 19.3457 79.9723 19.4443 79.9114 19.5097C79.8505 19.575 79.7719 19.6071 79.6744 19.6071C79.577 19.6071 79.505 19.5739 79.4441 19.5085C79.3831 19.4421 79.3532 19.3435 79.3532 19.2128Z" fill="#1F327F"/>
</g>
<defs>
<clipPath id="clip0_1801_10126">
<rect width="80.0022" height="20.4909" fill="white"/>
</clipPath>
</defs>
</svg>
