<svg width="80" height="19" viewBox="0 0 80 19" fill="none" xmlns="http://www.w3.org/2000/svg">
<g clip-path="url(#clip0_1801_10506)">
<g clip-path="url(#clip1_1801_10506)">
<path fill-rule="evenodd" clip-rule="evenodd" d="M79.1665 15.1985H80V2.48889H79.1665V7.99417C78.4553 7.047 77.4091 6.44663 76.2375 6.44663C74.0954 6.44663 72.3614 8.45756 72.3614 10.9348C72.3614 13.412 74.0983 15.4229 76.2375 15.4229C77.4062 15.4229 78.4553 14.8226 79.1665 13.8754V15.1956V15.1985ZM59.7887 7.047L60.0422 6.93625C60.6601 6.65355 61.8346 6.11731 63.0732 6.4408C64.1603 6.72641 64.7227 7.38215 65.0171 8.20984C65.2881 8.97341 65.3085 9.86229 65.3056 10.725C65.3056 11.6896 65.291 12.6514 65.2794 13.4441C65.2677 14.2572 65.259 14.8867 65.2677 15.149C64.3614 15.184 64.44 14.9188 64.443 14.537C64.443 14.4495 64.443 14.3563 64.443 14.2572C64.1369 14.6623 63.7697 14.9508 63.3413 15.149C62.5107 15.5308 61.6014 15.5424 60.8787 15.3151L60.8612 15.3064C60.5814 15.216 60.3366 15.0878 60.1297 14.9275C59.6925 14.5953 59.4244 14.1377 59.3049 13.6364C59.1912 13.1497 59.2204 12.6222 59.3836 12.1209C59.4914 11.7916 59.6546 11.474 59.8703 11.1913C60.8233 9.9439 62.9012 9.70492 64.4634 9.84481C64.44 9.35811 64.3788 8.88889 64.236 8.4867C64.0291 7.90383 63.6298 7.44335 62.8575 7.23935C62.3504 7.10528 61.8346 7.17231 61.3799 7.29763C60.8874 7.43461 60.6076 7.60364 60.153 7.76976L59.7799 7.04991L59.7887 7.047ZM64.4692 12.7388C64.4779 12.1093 64.4838 11.4157 64.4867 10.725V10.5676C63.2393 10.4831 61.2371 10.7658 60.5318 11.6896C60.3716 11.8995 60.2521 12.1326 60.1734 12.3745C60.0568 12.733 60.0335 13.1089 60.1122 13.4499C60.1879 13.7734 60.3599 14.0648 60.6339 14.2747C60.7679 14.3767 60.9311 14.4641 61.1206 14.5253L61.1351 14.5311C61.683 14.7031 62.3767 14.6944 63.0091 14.4029C63.6036 14.129 64.1457 13.6044 64.4721 12.7388H64.4692ZM57.9118 6.93625C56.3847 6.32714 55.7756 6.39709 54.9595 6.45537C53.1905 6.58361 51.742 8.0816 51.404 10.0459C51.2553 10.8969 51.3224 11.7829 51.608 12.5989C52.153 14.1639 53.4382 15.2889 54.9595 15.3996C55.7726 15.4579 56.3847 15.525 57.9118 14.9188L57.5708 14.1989C56.781 14.5574 55.7289 14.7526 54.8634 14.6098C53.8492 14.4408 52.9952 13.651 52.5581 12.5639C52.2375 11.7625 52.1675 10.859 52.3424 10.0138C52.6426 8.56248 53.6364 7.4521 54.8634 7.24517C55.7289 7.09945 56.781 7.29763 57.5708 7.6561L57.9118 6.93625ZM68.7883 15.1519V10.0401C68.934 8.53333 70.0881 7.36175 71.694 7.29763V6.49035C70.3883 6.4 69.3333 7.02368 68.7883 7.99126V6.57778H67.9548V15.1519H68.7883ZM79.1665 9.70492V12.1647C78.7526 13.616 77.6306 14.6565 76.3104 14.6565C74.6404 14.6565 73.2852 12.9894 73.2852 10.9319C73.2852 8.87432 74.6404 7.20729 76.3104 7.20729C77.6306 7.20729 78.7555 8.24772 79.1665 9.702V9.70492Z" fill="#F8EE6B"/>
<path fill-rule="evenodd" clip-rule="evenodd" d="M47.455 2.48014H50.2178V15.1927H47.455V2.48014ZM16.8539 9.66703H21.5431V11.4273H16.8539V9.66703ZM23.7348 15.3355H27.5001L27.8178 4.08014H28.6484L28.9661 15.3355H32.7315L30.8663 4.08014H35.9635L35.2349 2.27031H30.5661L30.1901 0H28.5318L28.596 2.27031H27.8674L27.9315 0H26.2732L25.8972 2.27031H21.2284L20.4998 4.08014H25.5971L23.7318 15.3355H23.7348ZM37.8346 6.25428C40.3643 6.25428 42.4131 8.30601 42.4131 10.8328C42.4131 13.3596 40.3614 15.4113 37.8346 15.4113C35.3078 15.4113 33.2561 13.3625 33.2561 10.8328C33.2561 8.30309 35.3078 6.25428 37.8346 6.25428ZM37.8346 9.13369C36.8961 9.13369 36.1355 9.89435 36.1355 10.8328C36.1355 11.7712 36.8961 12.5319 37.8346 12.5319C38.773 12.5319 39.5337 11.7712 39.5337 10.8328C39.5337 9.89435 38.773 9.13369 37.8346 9.13369ZM43.3311 2.48014H46.094V15.1927H43.3311V2.48014Z" fill="#231F20"/>
<path fill-rule="evenodd" clip-rule="evenodd" d="M1.51841 10.1682C1.67288 10.1682 1.80111 10.2935 1.80111 10.4509C1.80111 10.6083 1.67579 10.7336 1.51841 10.7336C1.36104 10.7336 1.23572 10.6083 1.23572 10.4509C1.23572 10.2935 1.36104 10.1682 1.51841 10.1682Z" fill="#C0C0C0"/>
<path fill-rule="evenodd" clip-rule="evenodd" d="M2.80078 10.0546C3.01936 10.0546 3.19713 10.2323 3.19713 10.4509C3.19713 10.6695 3.01936 10.8473 2.80078 10.8473C2.5822 10.8473 2.40442 10.6695 2.40442 10.4509C2.40442 10.2323 2.5822 10.0546 2.80078 10.0546Z" fill="#C0C0C0"/>
<path fill-rule="evenodd" clip-rule="evenodd" d="M4.09765 9.75146C4.48526 9.75146 4.7971 10.0662 4.7971 10.4509C4.7971 10.8356 4.48235 11.1504 4.09765 11.1504C3.71295 11.1504 3.39819 10.8356 3.39819 10.4509C3.39819 10.0662 3.71295 9.75146 4.09765 9.75146Z" fill="#C0C0C0"/>
<path fill-rule="evenodd" clip-rule="evenodd" d="M5.40323 9.59705C5.87536 9.59705 6.25715 9.97883 6.25715 10.451C6.25715 10.9231 5.87536 11.3049 5.40323 11.3049C4.9311 11.3049 4.54932 10.9231 4.54932 10.451C4.54932 9.97883 4.9311 9.59705 5.40323 9.59705Z" fill="#C0C0C0"/>
<path fill-rule="evenodd" clip-rule="evenodd" d="M6.70021 9.50378C7.2248 9.50378 7.6503 9.92928 7.6503 10.4539C7.6503 10.9785 7.2248 11.404 6.70021 11.404C6.17562 11.404 5.75012 10.9785 5.75012 10.4539C5.75012 9.92928 6.17562 9.50378 6.70021 9.50378Z" fill="#C0C0C0"/>
<path fill-rule="evenodd" clip-rule="evenodd" d="M8.02623 9.42798C8.59162 9.42798 9.0521 9.88554 9.0521 10.4538C9.0521 11.0221 8.59454 11.4797 8.02623 11.4797C7.45793 11.4797 7.00037 11.0221 7.00037 10.4538C7.00037 9.88554 7.45793 9.42798 8.02623 9.42798Z" fill="#C0C0C0"/>
<path fill-rule="evenodd" clip-rule="evenodd" d="M14.5079 10.0896C14.3068 10.0896 14.1465 10.2528 14.1465 10.451C14.1465 10.6492 14.3097 10.8124 14.5079 10.8124C14.706 10.8124 14.8722 10.6492 14.8722 10.451C14.8722 10.2528 14.709 10.0896 14.5079 10.0896Z" fill="#C0C0C0"/>
<path fill-rule="evenodd" clip-rule="evenodd" d="M13.2255 9.97009C12.9603 9.97009 12.7446 10.1858 12.7446 10.451C12.7446 10.7162 12.9603 10.9318 13.2255 10.9318C13.4907 10.9318 13.7064 10.7162 13.7064 10.451C13.7064 10.1858 13.4907 9.97009 13.2255 9.97009Z" fill="#C0C0C0"/>
<path fill-rule="evenodd" clip-rule="evenodd" d="M11.9286 9.75146C11.541 9.75146 11.2291 10.0662 11.2291 10.4509C11.2291 10.8356 11.5439 11.1504 11.9286 11.1504C12.3133 11.1504 12.6309 10.8356 12.6309 10.4509C12.6309 10.0662 12.3162 9.75146 11.9286 9.75146Z" fill="#C0C0C0"/>
<path fill-rule="evenodd" clip-rule="evenodd" d="M10.623 9.59705C10.1508 9.59705 9.76904 9.97883 9.76904 10.451C9.76904 10.9231 10.1508 11.3049 10.623 11.3049C11.0951 11.3049 11.4769 10.9231 11.4769 10.451C11.4769 9.97883 11.0951 9.59705 10.623 9.59705Z" fill="#C0C0C0"/>
<path fill-rule="evenodd" clip-rule="evenodd" d="M9.32607 9.50378C8.80148 9.50378 8.37598 9.92928 8.37598 10.4539C8.37598 10.9785 8.80148 11.404 9.32607 11.404C9.85066 11.404 10.2762 10.9785 10.2762 10.4539C10.2762 9.92928 9.85066 9.50378 9.32607 9.50378Z" fill="#C0C0C0"/>
<path fill-rule="evenodd" clip-rule="evenodd" d="M1.51838 4.84656C1.61165 4.84656 1.69033 4.92233 1.69033 5.01851C1.69033 5.11468 1.61456 5.19046 1.51838 5.19046C1.42221 5.19046 1.34644 5.11468 1.34644 5.01851C1.34644 4.92233 1.42221 4.84656 1.51838 4.84656Z" fill="#C0C0C0"/>
<path fill-rule="evenodd" clip-rule="evenodd" d="M2.80072 4.797C2.92312 4.797 3.02221 4.89609 3.02221 5.01849C3.02221 5.1409 2.92312 5.23998 2.80072 5.23998C2.67831 5.23998 2.57922 5.1409 2.57922 5.01849C2.57922 4.89609 2.67831 4.797 2.80072 4.797Z" fill="#C0C0C0"/>
<path fill-rule="evenodd" clip-rule="evenodd" d="M4.09765 4.66882C4.29 4.66882 4.44738 4.8262 4.44738 5.01855C4.44738 5.2109 4.29 5.36828 4.09765 5.36828C3.9053 5.36828 3.74792 5.2109 3.74792 5.01855C3.74792 4.8262 3.9053 4.66882 4.09765 4.66882Z" fill="#C0C0C0"/>
<path fill-rule="evenodd" clip-rule="evenodd" d="M5.40328 4.59302C5.63935 4.59302 5.82879 4.78245 5.82879 5.01852C5.82879 5.25458 5.63935 5.44402 5.40328 5.44402C5.16722 5.44402 4.97778 5.25458 4.97778 5.01852C4.97778 4.78245 5.16722 4.59302 5.40328 4.59302Z" fill="#C0C0C0"/>
<path fill-rule="evenodd" clip-rule="evenodd" d="M6.70014 4.54346C6.96244 4.54346 7.17519 4.75621 7.17519 5.0185C7.17519 5.2808 6.96244 5.49355 6.70014 5.49355C6.43785 5.49355 6.2251 5.2808 6.2251 5.0185C6.2251 4.75621 6.43785 4.54346 6.70014 4.54346Z" fill="#C0C0C0"/>
<path fill-rule="evenodd" clip-rule="evenodd" d="M8.02624 4.45898C8.30893 4.45898 8.53917 4.68922 8.53917 4.97192C8.53917 5.25461 8.30893 5.48485 8.02624 5.48485C7.74354 5.48485 7.51331 5.25461 7.51331 4.97192C7.51331 4.68922 7.74354 4.45898 8.02624 4.45898Z" fill="#C0C0C0"/>
<path fill-rule="evenodd" clip-rule="evenodd" d="M14.5079 4.84656C14.4146 4.84656 14.3359 4.92233 14.3359 5.01851C14.3359 5.11468 14.4117 5.19046 14.5079 5.19046C14.6041 5.19046 14.6798 5.11468 14.6798 5.01851C14.6798 4.92233 14.6041 4.84656 14.5079 4.84656Z" fill="#C0C0C0"/>
<path fill-rule="evenodd" clip-rule="evenodd" d="M13.2255 4.797C13.1031 4.797 13.004 4.89609 13.004 5.01849C13.004 5.1409 13.1031 5.23998 13.2255 5.23998C13.3479 5.23998 13.447 5.1409 13.447 5.01849C13.447 4.89609 13.3479 4.797 13.2255 4.797Z" fill="#C0C0C0"/>
<path fill-rule="evenodd" clip-rule="evenodd" d="M11.9286 4.66882C11.7362 4.66882 11.5789 4.8262 11.5789 5.01855C11.5789 5.2109 11.7362 5.36828 11.9286 5.36828C12.1209 5.36828 12.2783 5.2109 12.2783 5.01855C12.2783 4.8262 12.1209 4.66882 11.9286 4.66882Z" fill="#C0C0C0"/>
<path fill-rule="evenodd" clip-rule="evenodd" d="M10.623 4.59302C10.3869 4.59302 10.1975 4.78245 10.1975 5.01852C10.1975 5.25458 10.3899 5.44402 10.623 5.44402C10.8562 5.44402 11.0485 5.25458 11.0485 5.01852C11.0485 4.78245 10.8562 4.59302 10.623 4.59302Z" fill="#C0C0C0"/>
<path fill-rule="evenodd" clip-rule="evenodd" d="M9.326 4.54346C9.0637 4.54346 8.85095 4.75621 8.85095 5.0185C8.85095 5.2808 9.0637 5.49355 9.326 5.49355C9.58829 5.49355 9.80104 5.2808 9.80104 5.0185C9.80104 4.75621 9.58829 4.54346 9.326 4.54346Z" fill="#C0C0C0"/>
<path fill-rule="evenodd" clip-rule="evenodd" d="M1.51834 6.06775C1.632 6.06775 1.72235 6.16101 1.72235 6.27176C1.72235 6.3825 1.62909 6.47576 1.51834 6.47576C1.40759 6.47576 1.31433 6.3825 1.31433 6.27176C1.31433 6.16101 1.40468 6.06775 1.51834 6.06775Z" fill="#C0C0C0"/>
<path fill-rule="evenodd" clip-rule="evenodd" d="M2.80073 5.98608C2.95811 5.98608 3.08926 6.11432 3.08926 6.27461C3.08926 6.4349 2.96102 6.56313 2.80073 6.56313C2.64044 6.56313 2.51221 6.4349 2.51221 6.27461C2.51221 6.11432 2.64044 5.98608 2.80073 5.98608Z" fill="#C0C0C0"/>
<path fill-rule="evenodd" clip-rule="evenodd" d="M4.09767 5.85498C4.3279 5.85498 4.51734 6.0415 4.51734 6.27174C4.51734 6.50197 4.33082 6.69141 4.09767 6.69141C3.86451 6.69141 3.68091 6.50489 3.68091 6.27174C3.68091 6.03859 3.86743 5.85498 4.09767 5.85498Z" fill="#C0C0C0"/>
<path fill-rule="evenodd" clip-rule="evenodd" d="M5.40333 5.76172C5.68602 5.76172 5.91335 5.98904 5.91335 6.27174C5.91335 6.55443 5.68602 6.78175 5.40333 6.78175C5.12063 6.78175 4.89331 6.55443 4.89331 6.27174C4.89331 5.98904 5.12063 5.76172 5.40333 5.76172Z" fill="#C0C0C0"/>
<path fill-rule="evenodd" clip-rule="evenodd" d="M6.70016 5.7063C7.012 5.7063 7.26555 5.95985 7.26555 6.27169C7.26555 6.58353 7.012 6.83708 6.70016 6.83708C6.38832 6.83708 6.13477 6.58353 6.13477 6.27169C6.13477 5.95985 6.38832 5.7063 6.70016 5.7063Z" fill="#C0C0C0"/>
<path fill-rule="evenodd" clip-rule="evenodd" d="M8.02621 5.65967C8.36428 5.65967 8.63823 5.93362 8.63823 6.27169C8.63823 6.60976 8.36428 6.88371 8.02621 6.88371C7.68814 6.88371 7.41418 6.60976 7.41418 6.27169C7.41418 5.93362 7.68814 5.65967 8.02621 5.65967Z" fill="#C0C0C0"/>
<path fill-rule="evenodd" clip-rule="evenodd" d="M14.5078 6.06775C14.3942 6.06775 14.3038 6.16101 14.3038 6.27176C14.3038 6.3825 14.3971 6.47576 14.5078 6.47576C14.6186 6.47576 14.7118 6.3825 14.7118 6.27176C14.7118 6.16101 14.6215 6.06775 14.5078 6.06775Z" fill="#C0C0C0"/>
<path fill-rule="evenodd" clip-rule="evenodd" d="M13.2255 5.98608C13.0652 5.98608 12.937 6.11432 12.937 6.27461C12.937 6.4349 13.0652 6.56313 13.2255 6.56313C13.3858 6.56313 13.5141 6.4349 13.5141 6.27461C13.5141 6.11432 13.3858 5.98608 13.2255 5.98608Z" fill="#C0C0C0"/>
<path fill-rule="evenodd" clip-rule="evenodd" d="M11.9286 5.85498C11.6984 5.85498 11.5118 6.0415 11.5118 6.27174C11.5118 6.50197 11.6984 6.69141 11.9286 6.69141C12.1588 6.69141 12.3483 6.50489 12.3483 6.27174C12.3483 6.03859 12.1617 5.85498 11.9286 5.85498Z" fill="#C0C0C0"/>
<path fill-rule="evenodd" clip-rule="evenodd" d="M10.6229 5.76172C10.3402 5.76172 10.1129 5.98904 10.1129 6.27174C10.1129 6.55443 10.3402 6.78175 10.6229 6.78175C10.9056 6.78175 11.133 6.55443 11.133 6.27174C11.133 5.98904 10.9056 5.76172 10.6229 5.76172Z" fill="#C0C0C0"/>
<path fill-rule="evenodd" clip-rule="evenodd" d="M9.32601 5.7063C9.01126 5.7063 8.76062 5.95985 8.76062 6.27169C8.76062 6.58353 9.01417 6.83708 9.32601 6.83708C9.63785 6.83708 9.8914 6.58353 9.8914 6.27169C9.8914 5.95985 9.63785 5.7063 9.32601 5.7063Z" fill="#C0C0C0"/>
<path fill-rule="evenodd" clip-rule="evenodd" d="M4.09759 3.43896C4.24623 3.43896 4.36863 3.55845 4.36863 3.70709C4.36863 3.85572 4.24914 3.97813 4.09759 3.97813C3.94604 3.97813 3.82947 3.85864 3.82947 3.70709C3.82947 3.55554 3.94896 3.43896 4.09759 3.43896Z" fill="#C0C0C0"/>
<path fill-rule="evenodd" clip-rule="evenodd" d="M5.40327 3.34863C5.60145 3.34863 5.76174 3.50892 5.76174 3.7071C5.76174 3.90528 5.60145 4.06557 5.40327 4.06557C5.20509 4.06557 5.0448 3.90528 5.0448 3.7071C5.0448 3.50892 5.20509 3.34863 5.40327 3.34863Z" fill="#C0C0C0"/>
<path fill-rule="evenodd" clip-rule="evenodd" d="M6.70017 3.30786C6.92167 3.30786 7.09945 3.48564 7.09945 3.70713C7.09945 3.92863 6.92167 4.1064 6.70017 4.1064C6.47868 4.1064 6.3009 3.92863 6.3009 3.70713C6.3009 3.48564 6.47868 3.30786 6.70017 3.30786Z" fill="#C0C0C0"/>
<path fill-rule="evenodd" clip-rule="evenodd" d="M8.02618 3.27869C8.26516 3.27869 8.45751 3.47104 8.45751 3.71002C8.45751 3.949 8.26516 4.14135 8.02618 4.14135C7.7872 4.14135 7.59485 3.949 7.59485 3.71002C7.59485 3.47104 7.7872 3.27869 8.02618 3.27869Z" fill="#C0C0C0"/>
<path fill-rule="evenodd" clip-rule="evenodd" d="M11.9286 3.43896C11.78 3.43896 11.6605 3.55845 11.6605 3.70709C11.6605 3.85572 11.78 3.97813 11.9286 3.97813C12.0773 3.97813 12.1997 3.85864 12.1997 3.70709C12.1997 3.55554 12.0802 3.43896 11.9286 3.43896Z" fill="#C0C0C0"/>
<path fill-rule="evenodd" clip-rule="evenodd" d="M10.623 3.34863C10.4248 3.34863 10.2645 3.50892 10.2645 3.7071C10.2645 3.90528 10.4248 4.06557 10.623 4.06557C10.8212 4.06557 10.9815 3.90528 10.9815 3.7071C10.9815 3.50892 10.8212 3.34863 10.623 3.34863Z" fill="#C0C0C0"/>
<path fill-rule="evenodd" clip-rule="evenodd" d="M9.32603 3.30786C9.10454 3.30786 8.92676 3.48564 8.92676 3.70713C8.92676 3.92863 9.10454 4.1064 9.32603 4.1064C9.54752 4.1064 9.7253 3.92863 9.7253 3.70713C9.7253 3.48564 9.54752 3.30786 9.32603 3.30786Z" fill="#C0C0C0"/>
<path fill-rule="evenodd" clip-rule="evenodd" d="M2.80073 3.53809C2.89691 3.53809 2.97268 3.61386 2.97268 3.71003C2.97268 3.80621 2.89691 3.88198 2.80073 3.88198C2.70456 3.88198 2.62878 3.80621 2.62878 3.71003C2.62878 3.61386 2.70456 3.53809 2.80073 3.53809Z" fill="#C0C0C0"/>
<path fill-rule="evenodd" clip-rule="evenodd" d="M13.2255 3.53809C13.3188 3.53809 13.3975 3.61386 13.3975 3.71003C13.3975 3.80621 13.3217 3.88198 13.2255 3.88198C13.1294 3.88198 13.0536 3.80621 13.0536 3.71003C13.0536 3.61386 13.1294 3.53809 13.2255 3.53809Z" fill="#C0C0C0"/>
<path fill-rule="evenodd" clip-rule="evenodd" d="M1.51844 7.39966C1.64668 7.39966 1.74868 7.50166 1.74868 7.6299C1.74868 7.75813 1.64668 7.86013 1.51844 7.86013C1.39021 7.86013 1.28821 7.75813 1.28821 7.6299C1.28821 7.50166 1.39313 7.39966 1.51844 7.39966Z" fill="#C0C0C0"/>
<path fill-rule="evenodd" clip-rule="evenodd" d="M2.80067 7.3064C2.97845 7.3064 3.12417 7.45212 3.12417 7.62989C3.12417 7.80767 2.97845 7.95339 2.80067 7.95339C2.62289 7.95339 2.47717 7.80767 2.47717 7.62989C2.47717 7.45212 2.62289 7.3064 2.80067 7.3064Z" fill="#C0C0C0"/>
<path fill-rule="evenodd" clip-rule="evenodd" d="M4.09763 7.15771C4.35702 7.15771 4.56977 7.36755 4.56977 7.62985C4.56977 7.89214 4.35993 8.09906 4.09763 8.09906C3.83534 8.09906 3.62842 7.88923 3.62842 7.62985C3.62842 7.37047 3.83825 7.15771 4.09763 7.15771Z" fill="#C0C0C0"/>
<path fill-rule="evenodd" clip-rule="evenodd" d="M5.40324 7.05566C5.72091 7.05566 5.97737 7.31213 5.97737 7.6298C5.97737 7.94747 5.72091 8.20393 5.40324 8.20393C5.08557 8.20393 4.8291 7.94747 4.8291 7.6298C4.8291 7.31213 5.08557 7.05566 5.40324 7.05566Z" fill="#C0C0C0"/>
<path fill-rule="evenodd" clip-rule="evenodd" d="M6.70014 6.99158C7.05278 6.99158 7.33839 7.27719 7.33839 7.62983C7.33839 7.98247 7.05278 8.26808 6.70014 8.26808C6.3475 8.26808 6.06189 7.98247 6.06189 7.62983C6.06189 7.27719 6.3475 6.99158 6.70014 6.99158Z" fill="#C0C0C0"/>
<path fill-rule="evenodd" clip-rule="evenodd" d="M8.02618 6.94202C8.40505 6.94202 8.71397 7.25094 8.71397 7.62981C8.71397 8.00868 8.40505 8.31761 8.02618 8.31761C7.6473 8.31761 7.33838 8.00868 7.33838 7.62981C7.33838 7.25094 7.6473 6.94202 8.02618 6.94202Z" fill="#C0C0C0"/>
<path fill-rule="evenodd" clip-rule="evenodd" d="M14.5078 7.36755C14.3621 7.36755 14.2455 7.48413 14.2455 7.62985C14.2455 7.77557 14.3621 7.89214 14.5078 7.89214C14.6535 7.89214 14.7701 7.77557 14.7701 7.62985C14.7701 7.48413 14.6535 7.36755 14.5078 7.36755Z" fill="#C0C0C0"/>
<path fill-rule="evenodd" clip-rule="evenodd" d="M13.2255 7.3064C13.0477 7.3064 12.902 7.45212 12.902 7.62989C12.902 7.80767 13.0477 7.95339 13.2255 7.95339C13.4033 7.95339 13.549 7.80767 13.549 7.62989C13.549 7.45212 13.4033 7.3064 13.2255 7.3064Z" fill="#C0C0C0"/>
<path fill-rule="evenodd" clip-rule="evenodd" d="M11.9286 7.15771C11.6692 7.15771 11.4594 7.36755 11.4594 7.62985C11.4594 7.89214 11.6692 8.09906 11.9286 8.09906C12.1879 8.09906 12.4007 7.88923 12.4007 7.62985C12.4007 7.37047 12.1909 7.15771 11.9286 7.15771Z" fill="#C0C0C0"/>
<path fill-rule="evenodd" clip-rule="evenodd" d="M10.623 7.05566C10.3053 7.05566 10.0488 7.31213 10.0488 7.6298C10.0488 7.94747 10.3053 8.20393 10.623 8.20393C10.9406 8.20393 11.1971 7.94747 11.1971 7.6298C11.1971 7.31213 10.9406 7.05566 10.623 7.05566Z" fill="#C0C0C0"/>
<path fill-rule="evenodd" clip-rule="evenodd" d="M9.326 6.99158C8.97335 6.99158 8.68774 7.27719 8.68774 7.62983C8.68774 7.98247 8.97335 8.26808 9.326 8.26808C9.67864 8.26808 9.96425 7.98247 9.96425 7.62983C9.96425 7.27719 9.67864 6.99158 9.326 6.99158Z" fill="#C0C0C0"/>
<path fill-rule="evenodd" clip-rule="evenodd" d="M1.51841 8.68481C1.67288 8.68481 1.80111 8.81013 1.80111 8.96751C1.80111 9.12489 1.67579 9.25021 1.51841 9.25021C1.36104 9.25021 1.23572 9.12489 1.23572 8.96751C1.23572 8.81013 1.36104 8.68481 1.51841 8.68481Z" fill="#C0C0C0"/>
<path fill-rule="evenodd" clip-rule="evenodd" d="M2.80078 8.57117C3.01936 8.57117 3.19713 8.74894 3.19713 8.96752C3.19713 9.1861 3.01936 9.36388 2.80078 9.36388C2.5822 9.36388 2.40442 9.1861 2.40442 8.96752C2.40442 8.74894 2.5822 8.57117 2.80078 8.57117Z" fill="#C0C0C0"/>
<path fill-rule="evenodd" clip-rule="evenodd" d="M4.09757 8.3905C4.41524 8.3905 4.67462 8.64697 4.67462 8.96464C4.67462 9.28231 4.41816 9.54169 4.09757 9.54169C3.77699 9.54169 3.52344 9.28522 3.52344 8.96464C3.52344 8.64405 3.7799 8.3905 4.09757 8.3905Z" fill="#C0C0C0"/>
<path fill-rule="evenodd" clip-rule="evenodd" d="M5.4033 8.26514C5.79091 8.26514 6.10566 8.57989 6.10566 8.9675C6.10566 9.35512 5.79091 9.66987 5.4033 9.66987C5.01568 9.66987 4.70093 9.35512 4.70093 8.9675C4.70093 8.57989 5.01568 8.26514 5.4033 8.26514Z" fill="#C0C0C0"/>
<path fill-rule="evenodd" clip-rule="evenodd" d="M6.70012 8.18652C7.13145 8.18652 7.48118 8.53625 7.48118 8.96758C7.48118 9.39891 7.13145 9.74864 6.70012 9.74864C6.26879 9.74864 5.91907 9.39891 5.91907 8.96758C5.91907 8.53625 6.26879 8.18652 6.70012 8.18652Z" fill="#C0C0C0"/>
<path fill-rule="evenodd" clip-rule="evenodd" d="M8.02622 8.12524C8.48961 8.12524 8.86848 8.5012 8.86848 8.9675C8.86848 9.43381 8.49252 9.80976 8.02622 9.80976C7.55992 9.80976 7.18396 9.43381 7.18396 8.9675C7.18396 8.5012 7.55992 8.12524 8.02622 8.12524Z" fill="#C0C0C0"/>
<path fill-rule="evenodd" clip-rule="evenodd" d="M14.5079 8.60327C14.3068 8.60327 14.1465 8.76648 14.1465 8.96466C14.1465 9.16283 14.3097 9.32604 14.5079 9.32604C14.706 9.32604 14.8722 9.16283 14.8722 8.96466C14.8722 8.76648 14.709 8.60327 14.5079 8.60327Z" fill="#C0C0C0"/>
<path fill-rule="evenodd" clip-rule="evenodd" d="M13.2255 8.57117C13.0069 8.57117 12.8291 8.74894 12.8291 8.96752C12.8291 9.1861 13.0069 9.36388 13.2255 9.36388C13.444 9.36388 13.6218 9.1861 13.6218 8.96752C13.6218 8.74894 13.444 8.57117 13.2255 8.57117Z" fill="#C0C0C0"/>
<path fill-rule="evenodd" clip-rule="evenodd" d="M11.9286 8.3905C11.611 8.3905 11.3545 8.64697 11.3545 8.96464C11.3545 9.28231 11.611 9.54169 11.9286 9.54169C12.2463 9.54169 12.5057 9.28522 12.5057 8.96464C12.5057 8.64405 12.2492 8.3905 11.9286 8.3905Z" fill="#C0C0C0"/>
<path fill-rule="evenodd" clip-rule="evenodd" d="M10.6229 8.26514C10.2353 8.26514 9.92053 8.57989 9.92053 8.9675C9.92053 9.35512 10.2353 9.66987 10.6229 9.66987C11.0105 9.66987 11.3253 9.35512 11.3253 8.9675C11.3253 8.57989 11.0105 8.26514 10.6229 8.26514Z" fill="#C0C0C0"/>
<path fill-rule="evenodd" clip-rule="evenodd" d="M9.3261 8.18652C8.89477 8.18652 8.54504 8.53625 8.54504 8.96758C8.54504 9.39891 8.89477 9.74864 9.3261 9.74864C9.75743 9.74864 10.1072 9.39891 10.1072 8.96758C10.1072 8.53625 9.75743 8.18652 9.3261 8.18652Z" fill="#C0C0C0"/>
<path fill-rule="evenodd" clip-rule="evenodd" d="M1.51838 16.0553C1.61165 16.0553 1.69033 15.9795 1.69033 15.8834C1.69033 15.7872 1.61456 15.7114 1.51838 15.7114C1.42221 15.7114 1.34644 15.7872 1.34644 15.8834C1.34644 15.9795 1.42221 16.0553 1.51838 16.0553Z" fill="#C0C0C0"/>
<path fill-rule="evenodd" clip-rule="evenodd" d="M2.80072 16.1049C2.92312 16.1049 3.02221 16.0058 3.02221 15.8834C3.02221 15.761 2.92312 15.6619 2.80072 15.6619C2.67831 15.6619 2.57922 15.761 2.57922 15.8834C2.57922 16.0058 2.67831 16.1049 2.80072 16.1049Z" fill="#C0C0C0"/>
<path fill-rule="evenodd" clip-rule="evenodd" d="M4.09765 16.2331C4.29 16.2331 4.44738 16.0758 4.44738 15.8834C4.44738 15.6911 4.29 15.5337 4.09765 15.5337C3.9053 15.5337 3.74792 15.6911 3.74792 15.8834C3.74792 16.0758 3.9053 16.2331 4.09765 16.2331Z" fill="#C0C0C0"/>
<path fill-rule="evenodd" clip-rule="evenodd" d="M5.40328 16.3118C5.63935 16.3118 5.82879 16.1195 5.82879 15.8863C5.82879 15.6532 5.63935 15.4608 5.40328 15.4608C5.16722 15.4608 4.97778 15.6503 4.97778 15.8863C4.97778 16.1224 5.16722 16.3118 5.40328 16.3118Z" fill="#C0C0C0"/>
<path fill-rule="evenodd" clip-rule="evenodd" d="M6.70014 16.3584C6.96244 16.3584 7.17519 16.1457 7.17519 15.8834C7.17519 15.6211 6.96244 15.4083 6.70014 15.4083C6.43785 15.4083 6.2251 15.6211 6.2251 15.8834C6.2251 16.1457 6.43785 16.3584 6.70014 16.3584Z" fill="#C0C0C0"/>
<path fill-rule="evenodd" clip-rule="evenodd" d="M8.02624 16.4459C8.30893 16.4459 8.53917 16.2157 8.53917 15.933C8.53917 15.6503 8.30893 15.42 8.02624 15.42C7.74354 15.42 7.51331 15.6503 7.51331 15.933C7.51331 16.2157 7.74354 16.4459 8.02624 16.4459Z" fill="#C0C0C0"/>
<path fill-rule="evenodd" clip-rule="evenodd" d="M14.5079 16.0553C14.4146 16.0553 14.3359 15.9795 14.3359 15.8834C14.3359 15.7872 14.4117 15.7114 14.5079 15.7114C14.6041 15.7114 14.6798 15.7872 14.6798 15.8834C14.6798 15.9795 14.6041 16.0553 14.5079 16.0553Z" fill="#C0C0C0"/>
<path fill-rule="evenodd" clip-rule="evenodd" d="M13.2255 16.1049C13.1031 16.1049 13.004 16.0058 13.004 15.8834C13.004 15.761 13.1031 15.6619 13.2255 15.6619C13.3479 15.6619 13.447 15.761 13.447 15.8834C13.447 16.0058 13.3479 16.1049 13.2255 16.1049Z" fill="#C0C0C0"/>
<path fill-rule="evenodd" clip-rule="evenodd" d="M11.9286 16.2331C11.7362 16.2331 11.5789 16.0758 11.5789 15.8834C11.5789 15.6911 11.7362 15.5337 11.9286 15.5337C12.1209 15.5337 12.2783 15.6911 12.2783 15.8834C12.2783 16.0758 12.1209 16.2331 11.9286 16.2331Z" fill="#C0C0C0"/>
<path fill-rule="evenodd" clip-rule="evenodd" d="M10.623 16.3118C10.3869 16.3118 10.1975 16.1195 10.1975 15.8863C10.1975 15.6532 10.3899 15.4608 10.623 15.4608C10.8562 15.4608 11.0485 15.6503 11.0485 15.8863C11.0485 16.1224 10.8562 16.3118 10.623 16.3118Z" fill="#C0C0C0"/>
<path fill-rule="evenodd" clip-rule="evenodd" d="M9.326 16.3584C9.0637 16.3584 8.85095 16.1457 8.85095 15.8834C8.85095 15.6211 9.0637 15.4083 9.326 15.4083C9.58829 15.4083 9.80104 15.6211 9.80104 15.8834C9.80104 16.1457 9.58829 16.3584 9.326 16.3584Z" fill="#C0C0C0"/>
<path fill-rule="evenodd" clip-rule="evenodd" d="M1.51834 14.8342C1.632 14.8342 1.72235 14.7409 1.72235 14.6302C1.72235 14.5194 1.62909 14.4261 1.51834 14.4261C1.40759 14.4261 1.31433 14.5165 1.31433 14.6302C1.31433 14.7438 1.40468 14.8342 1.51834 14.8342Z" fill="#C0C0C0"/>
<path fill-rule="evenodd" clip-rule="evenodd" d="M2.80073 14.9187C2.95811 14.9187 3.08926 14.7905 3.08926 14.6302C3.08926 14.4699 2.96102 14.3417 2.80073 14.3417C2.64044 14.3417 2.51221 14.4699 2.51221 14.6302C2.51221 14.7905 2.64044 14.9187 2.80073 14.9187Z" fill="#C0C0C0"/>
<path fill-rule="evenodd" clip-rule="evenodd" d="M4.09767 15.0499C4.3279 15.0499 4.51734 14.8634 4.51734 14.6303C4.51734 14.3971 4.33082 14.2135 4.09767 14.2135C3.86451 14.2135 3.68091 14.4 3.68091 14.6303C3.68091 14.8605 3.86743 15.0499 4.09767 15.0499Z" fill="#C0C0C0"/>
<path fill-rule="evenodd" clip-rule="evenodd" d="M5.40333 15.1403C5.68602 15.1403 5.91335 14.913 5.91335 14.6303C5.91335 14.3476 5.68602 14.1202 5.40333 14.1202C5.12063 14.1202 4.89331 14.3476 4.89331 14.6303C4.89331 14.913 5.12063 15.1403 5.40333 15.1403Z" fill="#C0C0C0"/>
<path fill-rule="evenodd" clip-rule="evenodd" d="M6.70016 15.1985C7.012 15.1985 7.26555 14.945 7.26555 14.6331C7.26555 14.3213 7.012 14.0677 6.70016 14.0677C6.38832 14.0677 6.13477 14.3213 6.13477 14.6331C6.13477 14.945 6.38832 15.1985 6.70016 15.1985Z" fill="#C0C0C0"/>
<path fill-rule="evenodd" clip-rule="evenodd" d="M8.02621 15.2422C8.36428 15.2422 8.63823 14.9683 8.63823 14.6302C8.63823 14.2921 8.36428 14.0182 8.02621 14.0182C7.68814 14.0182 7.41418 14.2921 7.41418 14.6302C7.41418 14.9683 7.68814 15.2422 8.02621 15.2422Z" fill="#C0C0C0"/>
<path fill-rule="evenodd" clip-rule="evenodd" d="M14.5078 14.8342C14.3942 14.8342 14.3038 14.7409 14.3038 14.6302C14.3038 14.5194 14.3971 14.4261 14.5078 14.4261C14.6186 14.4261 14.7118 14.5165 14.7118 14.6302C14.7118 14.7438 14.6215 14.8342 14.5078 14.8342Z" fill="#C0C0C0"/>
<path fill-rule="evenodd" clip-rule="evenodd" d="M13.2255 14.9187C13.0652 14.9187 12.937 14.7905 12.937 14.6302C12.937 14.4699 13.0652 14.3417 13.2255 14.3417C13.3858 14.3417 13.5141 14.4699 13.5141 14.6302C13.5141 14.7905 13.3858 14.9187 13.2255 14.9187Z" fill="#C0C0C0"/>
<path fill-rule="evenodd" clip-rule="evenodd" d="M11.9286 15.0499C11.6984 15.0499 11.5118 14.8634 11.5118 14.6303C11.5118 14.3971 11.6984 14.2135 11.9286 14.2135C12.1588 14.2135 12.3483 14.4 12.3483 14.6303C12.3483 14.8605 12.1617 15.0499 11.9286 15.0499Z" fill="#C0C0C0"/>
<path fill-rule="evenodd" clip-rule="evenodd" d="M10.6229 15.1403C10.3402 15.1403 10.1129 14.913 10.1129 14.6303C10.1129 14.3476 10.3402 14.1202 10.6229 14.1202C10.9056 14.1202 11.133 14.3476 11.133 14.6303C11.133 14.913 10.9056 15.1403 10.6229 15.1403Z" fill="#C0C0C0"/>
<path fill-rule="evenodd" clip-rule="evenodd" d="M9.32601 15.1985C9.01126 15.1985 8.76062 14.945 8.76062 14.6331C8.76062 14.3213 9.01417 14.0677 9.32601 14.0677C9.63785 14.0677 9.8914 14.3213 9.8914 14.6331C9.8914 14.945 9.63785 15.1985 9.32601 15.1985Z" fill="#C0C0C0"/>
<path fill-rule="evenodd" clip-rule="evenodd" d="M4.09759 17.463C4.24623 17.463 4.36863 17.3435 4.36863 17.1949C4.36863 17.0462 4.24914 16.9268 4.09759 16.9268C3.94604 16.9268 3.82947 17.0462 3.82947 17.1949C3.82947 17.3435 3.94896 17.463 4.09759 17.463Z" fill="#C0C0C0"/>
<path fill-rule="evenodd" clip-rule="evenodd" d="M5.40327 17.5534C5.60145 17.5534 5.76174 17.3931 5.76174 17.1949C5.76174 16.9967 5.60145 16.8364 5.40327 16.8364C5.20509 16.8364 5.0448 16.9967 5.0448 17.1949C5.0448 17.3931 5.20509 17.5534 5.40327 17.5534Z" fill="#C0C0C0"/>
<path fill-rule="evenodd" clip-rule="evenodd" d="M6.70017 17.5942C6.92167 17.5942 7.09945 17.4164 7.09945 17.1949C7.09945 16.9734 6.92167 16.7957 6.70017 16.7957C6.47868 16.7957 6.3009 16.9734 6.3009 17.1949C6.3009 17.4164 6.47868 17.5942 6.70017 17.5942Z" fill="#C0C0C0"/>
<path fill-rule="evenodd" clip-rule="evenodd" d="M8.02618 17.6262C8.26516 17.6262 8.45751 17.4339 8.45751 17.1949C8.45751 16.9559 8.26516 16.7635 8.02618 16.7635C7.7872 16.7635 7.59485 16.9559 7.59485 17.1949C7.59485 17.4339 7.7872 17.6262 8.02618 17.6262Z" fill="#C0C0C0"/>
<path fill-rule="evenodd" clip-rule="evenodd" d="M11.9286 17.463C11.78 17.463 11.6605 17.3435 11.6605 17.1949C11.6605 17.0462 11.78 16.9268 11.9286 16.9268C12.0773 16.9268 12.1997 17.0462 12.1997 17.1949C12.1997 17.3435 12.0802 17.463 11.9286 17.463Z" fill="#C0C0C0"/>
<path fill-rule="evenodd" clip-rule="evenodd" d="M10.623 17.5534C10.4248 17.5534 10.2645 17.3931 10.2645 17.1949C10.2645 16.9967 10.4248 16.8364 10.623 16.8364C10.8212 16.8364 10.9815 16.9967 10.9815 17.1949C10.9815 17.3931 10.8212 17.5534 10.623 17.5534Z" fill="#C0C0C0"/>
<path fill-rule="evenodd" clip-rule="evenodd" d="M9.32603 17.5942C9.10454 17.5942 8.92676 17.4164 8.92676 17.1949C8.92676 16.9734 9.10454 16.7957 9.32603 16.7957C9.54752 16.7957 9.7253 16.9734 9.7253 17.1949C9.7253 17.4164 9.54752 17.5942 9.32603 17.5942Z" fill="#C0C0C0"/>
<path fill-rule="evenodd" clip-rule="evenodd" d="M2.80073 17.3668C2.89691 17.3668 2.97268 17.2911 2.97268 17.1949C2.97268 17.0987 2.89691 17.0229 2.80073 17.0229C2.70456 17.0229 2.62878 17.0987 2.62878 17.1949C2.62878 17.2911 2.70456 17.3668 2.80073 17.3668Z" fill="#C0C0C0"/>
<path fill-rule="evenodd" clip-rule="evenodd" d="M13.2255 17.3668C13.3188 17.3668 13.3975 17.2911 13.3975 17.1949C13.3975 17.0987 13.3217 17.0229 13.2255 17.0229C13.1294 17.0229 13.0536 17.0987 13.0536 17.1949C13.0536 17.2911 13.1294 17.3668 13.2255 17.3668Z" fill="#C0C0C0"/>
<path fill-rule="evenodd" clip-rule="evenodd" d="M1.51844 13.5053C1.64668 13.5053 1.74868 13.4033 1.74868 13.275C1.74868 13.1468 1.64668 13.0448 1.51844 13.0448C1.39021 13.0448 1.28821 13.1497 1.28821 13.275C1.28821 13.4004 1.39313 13.5053 1.51844 13.5053Z" fill="#C0C0C0"/>
<path fill-rule="evenodd" clip-rule="evenodd" d="M2.80067 13.5956C2.97845 13.5956 3.12417 13.4499 3.12417 13.2721C3.12417 13.0943 2.97845 12.9486 2.80067 12.9486C2.62289 12.9486 2.47717 13.0943 2.47717 13.2721C2.47717 13.4499 2.62289 13.5956 2.80067 13.5956Z" fill="#C0C0C0"/>
<path fill-rule="evenodd" clip-rule="evenodd" d="M4.09763 13.7442C4.35702 13.7442 4.56977 13.5344 4.56977 13.275C4.56977 13.0156 4.35993 12.8058 4.09763 12.8058C3.83534 12.8058 3.62842 13.0156 3.62842 13.275C3.62842 13.5344 3.83825 13.7442 4.09763 13.7442Z" fill="#C0C0C0"/>
<path fill-rule="evenodd" clip-rule="evenodd" d="M5.40324 13.8463C5.72091 13.8463 5.97737 13.5898 5.97737 13.2721C5.97737 12.9545 5.72091 12.698 5.40324 12.698C5.08557 12.698 4.8291 12.9545 4.8291 13.2721C4.8291 13.5898 5.08557 13.8463 5.40324 13.8463Z" fill="#C0C0C0"/>
<path d="M6.70014 13.9103C7.05264 13.9103 7.33839 13.6245 7.33839 13.272C7.33839 12.9195 7.05264 12.6338 6.70014 12.6338C6.34764 12.6338 6.06189 12.9195 6.06189 13.272C6.06189 13.6245 6.34764 13.9103 6.70014 13.9103Z" fill="#C0C0C0"/>
<path fill-rule="evenodd" clip-rule="evenodd" d="M8.02618 13.9628C8.40505 13.9628 8.71397 13.6538 8.71397 13.275C8.71397 12.8961 8.40505 12.5872 8.02618 12.5872C7.6473 12.5872 7.33838 12.8961 7.33838 13.275C7.33838 13.6538 7.6473 13.9628 8.02618 13.9628Z" fill="#C0C0C0"/>
<path fill-rule="evenodd" clip-rule="evenodd" d="M14.5078 13.5373C14.3621 13.5373 14.2455 13.4207 14.2455 13.275C14.2455 13.1293 14.3621 13.0127 14.5078 13.0127C14.6535 13.0127 14.7701 13.1293 14.7701 13.275C14.7701 13.4207 14.6535 13.5373 14.5078 13.5373Z" fill="#C0C0C0"/>
<path fill-rule="evenodd" clip-rule="evenodd" d="M13.2255 13.5956C13.0477 13.5956 12.902 13.4499 12.902 13.2721C12.902 13.0943 13.0477 12.9486 13.2255 12.9486C13.4033 12.9486 13.549 13.0943 13.549 13.2721C13.549 13.4499 13.4033 13.5956 13.2255 13.5956Z" fill="#C0C0C0"/>
<path fill-rule="evenodd" clip-rule="evenodd" d="M11.9286 13.7442C11.6692 13.7442 11.4594 13.5344 11.4594 13.275C11.4594 13.0156 11.6692 12.8058 11.9286 12.8058C12.1879 12.8058 12.4007 13.0156 12.4007 13.275C12.4007 13.5344 12.1909 13.7442 11.9286 13.7442Z" fill="#C0C0C0"/>
<path fill-rule="evenodd" clip-rule="evenodd" d="M10.623 13.8463C10.3053 13.8463 10.0488 13.5898 10.0488 13.2721C10.0488 12.9545 10.3053 12.698 10.623 12.698C10.9406 12.698 11.1971 12.9545 11.1971 13.2721C11.1971 13.5898 10.9406 13.8463 10.623 13.8463Z" fill="#C0C0C0"/>
<path fill-rule="evenodd" clip-rule="evenodd" d="M9.326 13.9103C8.97335 13.9103 8.68774 13.6247 8.68774 13.272C8.68774 12.9194 8.97335 12.6338 9.326 12.6338C9.67864 12.6338 9.96425 12.9194 9.96425 13.272C9.96425 13.6247 9.67864 13.9103 9.326 13.9103Z" fill="#C0C0C0"/>
<path fill-rule="evenodd" clip-rule="evenodd" d="M1.51841 12.2201C1.67288 12.2201 1.80111 12.0947 1.80111 11.9374C1.80111 11.78 1.67579 11.6547 1.51841 11.6547C1.36104 11.6547 1.23572 11.78 1.23572 11.9374C1.23572 12.0947 1.36104 12.2201 1.51841 12.2201Z" fill="#C0C0C0"/>
<path fill-rule="evenodd" clip-rule="evenodd" d="M2.80078 12.3308C3.01936 12.3308 3.19713 12.153 3.19713 11.9344C3.19713 11.7159 3.01936 11.5381 2.80078 11.5381C2.5822 11.5381 2.40442 11.7159 2.40442 11.9344C2.40442 12.153 2.5822 12.3308 2.80078 12.3308Z" fill="#C0C0C0"/>
<path fill-rule="evenodd" clip-rule="evenodd" d="M4.09757 12.5114C4.41524 12.5114 4.67462 12.2549 4.67462 11.9343C4.67462 11.6138 4.41816 11.3573 4.09757 11.3573C3.77699 11.3573 3.52344 11.6138 3.52344 11.9343C3.52344 12.2549 3.7799 12.5114 4.09757 12.5114Z" fill="#C0C0C0"/>
<path fill-rule="evenodd" clip-rule="evenodd" d="M5.4033 12.6368C5.79091 12.6368 6.10566 12.322 6.10566 11.9344C6.10566 11.5468 5.79091 11.2321 5.4033 11.2321C5.01568 11.2321 4.70093 11.5468 4.70093 11.9344C4.70093 12.322 5.01568 12.6368 5.4033 12.6368Z" fill="#C0C0C0"/>
<path fill-rule="evenodd" clip-rule="evenodd" d="M6.70012 12.7154C7.13145 12.7154 7.48118 12.3657 7.48118 11.9344C7.48118 11.503 7.13145 11.1533 6.70012 11.1533C6.26879 11.1533 5.91907 11.503 5.91907 11.9344C5.91907 12.3657 6.26879 12.7154 6.70012 12.7154Z" fill="#C0C0C0"/>
<path fill-rule="evenodd" clip-rule="evenodd" d="M8.02622 12.7796C8.48961 12.7796 8.86848 12.4037 8.86848 11.9374C8.86848 11.471 8.49252 11.0951 8.02622 11.0951C7.55992 11.0951 7.18396 11.471 7.18396 11.9374C7.18396 12.4037 7.55992 12.7796 8.02622 12.7796Z" fill="#C0C0C0"/>
<path fill-rule="evenodd" clip-rule="evenodd" d="M14.5079 12.2987C14.3068 12.2987 14.1465 12.1355 14.1465 11.9373C14.1465 11.7391 14.3097 11.5759 14.5079 11.5759C14.706 11.5759 14.8722 11.7391 14.8722 11.9373C14.8722 12.1355 14.709 12.2987 14.5079 12.2987Z" fill="#C0C0C0"/>
<path fill-rule="evenodd" clip-rule="evenodd" d="M13.2255 12.3308C13.0069 12.3308 12.8291 12.153 12.8291 11.9344C12.8291 11.7159 13.0069 11.5381 13.2255 11.5381C13.444 11.5381 13.6218 11.7159 13.6218 11.9344C13.6218 12.153 13.444 12.3308 13.2255 12.3308Z" fill="#C0C0C0"/>
<path fill-rule="evenodd" clip-rule="evenodd" d="M11.9286 12.5114C11.611 12.5114 11.3545 12.2549 11.3545 11.9343C11.3545 11.6138 11.611 11.3573 11.9286 11.3573C12.2463 11.3573 12.5057 11.6138 12.5057 11.9343C12.5057 12.2549 12.2492 12.5114 11.9286 12.5114Z" fill="#C0C0C0"/>
<path fill-rule="evenodd" clip-rule="evenodd" d="M10.6229 12.6368C10.2353 12.6368 9.92053 12.322 9.92053 11.9344C9.92053 11.5468 10.2353 11.2321 10.6229 11.2321C11.0105 11.2321 11.3253 11.5468 11.3253 11.9344C11.3253 12.322 11.0105 12.6368 10.6229 12.6368Z" fill="#C0C0C0"/>
<path fill-rule="evenodd" clip-rule="evenodd" d="M9.3261 12.7154C8.89477 12.7154 8.54504 12.3657 8.54504 11.9344C8.54504 11.503 8.89477 11.1533 9.3261 11.1533C9.75743 11.1533 10.1072 11.503 10.1072 11.9344C10.1072 12.3657 9.75743 12.7154 9.3261 12.7154Z" fill="#C0C0C0"/>
<path fill-rule="evenodd" clip-rule="evenodd" d="M4.09767 2.40723C4.19967 2.40723 4.28128 2.48883 4.28128 2.59083C4.28128 2.69284 4.19967 2.77444 4.09767 2.77444C3.99567 2.77444 3.91406 2.69284 3.91406 2.59083C3.91406 2.48883 3.99567 2.40723 4.09767 2.40723Z" fill="#C0C0C0"/>
<path fill-rule="evenodd" clip-rule="evenodd" d="M5.40326 2.34607C5.54023 2.34607 5.65098 2.45682 5.65098 2.59379C5.65098 2.73077 5.54023 2.8386 5.40326 2.8386C5.26628 2.8386 5.15845 2.72785 5.15845 2.59379C5.15845 2.45973 5.26919 2.34607 5.40326 2.34607Z" fill="#C0C0C0"/>
<path fill-rule="evenodd" clip-rule="evenodd" d="M6.70022 2.31982C6.85177 2.31982 6.97418 2.44223 6.97418 2.59378C6.97418 2.74532 6.85177 2.86773 6.70022 2.86773C6.54867 2.86773 6.42627 2.74532 6.42627 2.59378C6.42627 2.44223 6.54867 2.31982 6.70022 2.31982Z" fill="#C0C0C0"/>
<path fill-rule="evenodd" clip-rule="evenodd" d="M8.02627 2.29651C8.18948 2.29651 8.32062 2.42766 8.32062 2.59086C8.32062 2.75407 8.18656 2.88522 8.02627 2.88522C7.86598 2.88522 7.729 2.75407 7.729 2.59086C7.729 2.42766 7.86015 2.29651 8.02627 2.29651Z" fill="#C0C0C0"/>
<path fill-rule="evenodd" clip-rule="evenodd" d="M11.9286 2.40723C11.8266 2.40723 11.745 2.48883 11.745 2.59083C11.745 2.69284 11.8266 2.77444 11.9286 2.77444C12.0306 2.77444 12.1122 2.69284 12.1122 2.59083C12.1122 2.48883 12.0306 2.40723 11.9286 2.40723Z" fill="#C0C0C0"/>
<path fill-rule="evenodd" clip-rule="evenodd" d="M10.623 2.34607C10.486 2.34607 10.3752 2.45682 10.3752 2.59379C10.3752 2.73077 10.486 2.8386 10.623 2.8386C10.7599 2.8386 10.8678 2.72785 10.8678 2.59379C10.8678 2.45973 10.757 2.34607 10.623 2.34607Z" fill="#C0C0C0"/>
<path fill-rule="evenodd" clip-rule="evenodd" d="M9.32608 2.31982C9.17453 2.31982 9.05212 2.44223 9.05212 2.59378C9.05212 2.74532 9.17453 2.86773 9.32608 2.86773C9.47763 2.86773 9.60003 2.74532 9.60003 2.59378C9.60003 2.44223 9.47763 2.31982 9.32608 2.31982Z" fill="#C0C0C0"/>
<path fill-rule="evenodd" clip-rule="evenodd" d="M2.80078 2.47424C2.8649 2.47424 2.91736 2.5267 2.91736 2.59082C2.91736 2.65494 2.8649 2.70739 2.80078 2.70739C2.73666 2.70739 2.6842 2.65494 2.6842 2.59082C2.6842 2.5267 2.73666 2.47424 2.80078 2.47424Z" fill="#C0C0C0"/>
<path fill-rule="evenodd" clip-rule="evenodd" d="M13.2255 2.47424C13.2896 2.47424 13.342 2.5267 13.342 2.59082C13.342 2.65494 13.2896 2.70739 13.2255 2.70739C13.1613 2.70739 13.1089 2.65494 13.1089 2.59082C13.1089 2.5267 13.1613 2.47424 13.2255 2.47424Z" fill="#C0C0C0"/>
<path fill-rule="evenodd" clip-rule="evenodd" d="M4.09768 1.26184C4.17054 1.26184 4.23175 1.32304 4.23175 1.3959C4.23175 1.46876 4.17054 1.52996 4.09768 1.52996C4.02483 1.52996 3.96362 1.46876 3.96362 1.3959C3.96362 1.32304 4.02483 1.26184 4.09768 1.26184Z" fill="#C0C0C0"/>
<path fill-rule="evenodd" clip-rule="evenodd" d="M5.40324 1.21521C5.50233 1.21521 5.58102 1.2939 5.58102 1.39299C5.58102 1.49208 5.50233 1.57077 5.40324 1.57077C5.30415 1.57077 5.22546 1.49208 5.22546 1.39299C5.22546 1.2939 5.30415 1.21521 5.40324 1.21521Z" fill="#C0C0C0"/>
<path fill-rule="evenodd" clip-rule="evenodd" d="M6.70013 1.19775C6.81088 1.19775 6.89831 1.2881 6.89831 1.39593C6.89831 1.50376 6.81088 1.59411 6.70013 1.59411C6.58938 1.59411 6.50195 1.50376 6.50195 1.39593C6.50195 1.2881 6.58938 1.19775 6.70013 1.19775Z" fill="#C0C0C0"/>
<path fill-rule="evenodd" clip-rule="evenodd" d="M8.02621 1.1803C8.1457 1.1803 8.24188 1.27647 8.24188 1.39596C8.24188 1.51545 8.1457 1.61163 8.02621 1.61163C7.90672 1.61163 7.81055 1.51545 7.81055 1.39596C7.81055 1.27647 7.90672 1.1803 8.02621 1.1803Z" fill="#C0C0C0"/>
<path fill-rule="evenodd" clip-rule="evenodd" d="M11.9286 1.26184C11.8558 1.26184 11.7946 1.32304 11.7946 1.3959C11.7946 1.46876 11.8558 1.52996 11.9286 1.52996C12.0015 1.52996 12.0627 1.46876 12.0627 1.3959C12.0627 1.32304 12.0015 1.26184 11.9286 1.26184Z" fill="#C0C0C0"/>
<path fill-rule="evenodd" clip-rule="evenodd" d="M10.623 1.21521C10.5239 1.21521 10.4452 1.2939 10.4452 1.39299C10.4452 1.49208 10.5239 1.57077 10.623 1.57077C10.7221 1.57077 10.8007 1.49208 10.8007 1.39299C10.8007 1.2939 10.7221 1.21521 10.623 1.21521Z" fill="#C0C0C0"/>
<path fill-rule="evenodd" clip-rule="evenodd" d="M9.32611 1.19775C9.21536 1.19775 9.12793 1.2881 9.12793 1.39593C9.12793 1.50376 9.21536 1.59411 9.32611 1.59411C9.43686 1.59411 9.52429 1.50376 9.52429 1.39593C9.52429 1.2881 9.43686 1.19775 9.32611 1.19775Z" fill="#C0C0C0"/>
<path fill-rule="evenodd" clip-rule="evenodd" d="M4.09768 18.1711C4.17054 18.1711 4.23175 18.2323 4.23175 18.3052C4.23175 18.3781 4.17054 18.4393 4.09768 18.4393C4.02483 18.4393 3.96362 18.3781 3.96362 18.3052C3.96362 18.2323 4.02483 18.1711 4.09768 18.1711Z" fill="#C0C0C0"/>
<path fill-rule="evenodd" clip-rule="evenodd" d="M5.40324 18.1245C5.50233 18.1245 5.58102 18.2032 5.58102 18.3023C5.58102 18.4014 5.50233 18.4801 5.40324 18.4801C5.30415 18.4801 5.22546 18.4014 5.22546 18.3023C5.22546 18.2032 5.30415 18.1245 5.40324 18.1245Z" fill="#C0C0C0"/>
<path fill-rule="evenodd" clip-rule="evenodd" d="M6.70013 18.1071C6.81088 18.1071 6.89831 18.1945 6.89831 18.3052C6.89831 18.416 6.81088 18.5034 6.70013 18.5034C6.58938 18.5034 6.50195 18.416 6.50195 18.3052C6.50195 18.1945 6.58938 18.1071 6.70013 18.1071Z" fill="#C0C0C0"/>
<path fill-rule="evenodd" clip-rule="evenodd" d="M8.02621 18.0896C8.1457 18.0896 8.24188 18.1858 8.24188 18.3053C8.24188 18.4248 8.1457 18.5209 8.02621 18.5209C7.90672 18.5209 7.81055 18.4248 7.81055 18.3053C7.81055 18.1858 7.90672 18.0896 8.02621 18.0896Z" fill="#C0C0C0"/>
<path fill-rule="evenodd" clip-rule="evenodd" d="M10.623 18.1245C10.5239 18.1245 10.4452 18.2032 10.4452 18.3023C10.4452 18.4014 10.5239 18.4801 10.623 18.4801C10.7221 18.4801 10.8007 18.4014 10.8007 18.3023C10.8007 18.2032 10.7221 18.1245 10.623 18.1245Z" fill="#C0C0C0"/>
<path fill-rule="evenodd" clip-rule="evenodd" d="M9.32611 18.1071C9.21536 18.1071 9.12793 18.1945 9.12793 18.3052C9.12793 18.416 9.21536 18.5034 9.32611 18.5034C9.43686 18.5034 9.52429 18.416 9.52429 18.3052C9.52429 18.1945 9.43686 18.1071 9.32611 18.1071Z" fill="#C0C0C0"/>
<path fill-rule="evenodd" clip-rule="evenodd" d="M0.206922 10.244C0.320583 10.244 0.413843 10.3373 0.413843 10.4509C0.413843 10.5646 0.320583 10.6579 0.206922 10.6579C0.0932605 10.6579 0 10.5646 0 10.4509C0 10.3373 0.0932605 10.244 0.206922 10.244Z" fill="#C0C0C0"/>
<path fill-rule="evenodd" clip-rule="evenodd" d="M0.206968 6.12024C0.291486 6.12024 0.358516 6.18727 0.358516 6.27179C0.358516 6.3563 0.291486 6.42334 0.206968 6.42334C0.122451 6.42334 0.0554199 6.3563 0.0554199 6.27179C0.0554199 6.18727 0.122451 6.12024 0.206968 6.12024Z" fill="#C0C0C0"/>
<path fill-rule="evenodd" clip-rule="evenodd" d="M0.206876 7.46082C0.300137 7.46082 0.375911 7.53659 0.375911 7.62985C0.375911 7.72311 0.300137 7.79888 0.206876 7.79888C0.113616 7.79888 0.0378418 7.72311 0.0378418 7.62985C0.0378418 7.53659 0.113616 7.46082 0.206876 7.46082Z" fill="#C0C0C0"/>
<path fill-rule="evenodd" clip-rule="evenodd" d="M0.206922 8.75769C0.320583 8.75769 0.413843 8.85095 0.413843 8.96461C0.413843 9.07827 0.320583 9.17153 0.206922 9.17153C0.0932605 9.17153 0 9.07827 0 8.96461C0 8.85095 0.0932605 8.75769 0.206922 8.75769Z" fill="#C0C0C0"/>
<path fill-rule="evenodd" clip-rule="evenodd" d="M0.206968 14.7817C0.291486 14.7817 0.358516 14.7147 0.358516 14.6302C0.358516 14.5457 0.291486 14.4786 0.206968 14.4786C0.122451 14.4786 0.0554199 14.5457 0.0554199 14.6302C0.0554199 14.7147 0.122451 14.7817 0.206968 14.7817Z" fill="#C0C0C0"/>
<path fill-rule="evenodd" clip-rule="evenodd" d="M0.206876 13.444C0.300137 13.444 0.375911 13.3683 0.375911 13.275C0.375911 13.1817 0.300137 13.106 0.206876 13.106C0.113616 13.106 0.0378418 13.1817 0.0378418 13.275C0.0378418 13.3683 0.113616 13.444 0.206876 13.444Z" fill="#C0C0C0"/>
<path fill-rule="evenodd" clip-rule="evenodd" d="M0.206922 12.1442C0.320583 12.1442 0.413843 12.0509 0.413843 11.9373C0.413843 11.8236 0.320583 11.7303 0.206922 11.7303C0.0932605 11.7303 0 11.8236 0 11.9373C0 12.0509 0.0932605 12.1442 0.206922 12.1442Z" fill="#C0C0C0"/>
<path fill-rule="evenodd" clip-rule="evenodd" d="M15.7114 10.244C15.8251 10.244 15.9184 10.3373 15.9184 10.4509C15.9184 10.5646 15.8251 10.6579 15.7114 10.6579C15.5978 10.6579 15.5045 10.5646 15.5045 10.4509C15.5045 10.3373 15.5978 10.244 15.7114 10.244Z" fill="#C0C0C0"/>
<path fill-rule="evenodd" clip-rule="evenodd" d="M15.7115 6.12024C15.796 6.12024 15.863 6.18727 15.863 6.27179C15.863 6.3563 15.796 6.42334 15.7115 6.42334C15.627 6.42334 15.5599 6.3563 15.5599 6.27179C15.5599 6.18727 15.627 6.12024 15.7115 6.12024Z" fill="#C0C0C0"/>
<path fill-rule="evenodd" clip-rule="evenodd" d="M15.7115 7.46082C15.8048 7.46082 15.8805 7.53659 15.8805 7.62985C15.8805 7.72311 15.8048 7.79888 15.7115 7.79888C15.6183 7.79888 15.5425 7.72311 15.5425 7.62985C15.5425 7.53659 15.6183 7.46082 15.7115 7.46082Z" fill="#C0C0C0"/>
<path fill-rule="evenodd" clip-rule="evenodd" d="M15.7114 8.75769C15.8251 8.75769 15.9184 8.85095 15.9184 8.96461C15.9184 9.07827 15.8251 9.17153 15.7114 9.17153C15.5978 9.17153 15.5045 9.07827 15.5045 8.96461C15.5045 8.85095 15.5978 8.75769 15.7114 8.75769Z" fill="#C0C0C0"/>
<path fill-rule="evenodd" clip-rule="evenodd" d="M15.7115 14.7817C15.796 14.7817 15.863 14.7147 15.863 14.6302C15.863 14.5457 15.796 14.4786 15.7115 14.4786C15.627 14.4786 15.5599 14.5457 15.5599 14.6302C15.5599 14.7147 15.627 14.7817 15.7115 14.7817Z" fill="#C0C0C0"/>
<path fill-rule="evenodd" clip-rule="evenodd" d="M15.7115 13.444C15.8048 13.444 15.8805 13.3683 15.8805 13.275C15.8805 13.1817 15.8048 13.106 15.7115 13.106C15.6183 13.106 15.5425 13.1817 15.5425 13.275C15.5425 13.3683 15.6183 13.444 15.7115 13.444Z" fill="#C0C0C0"/>
<path fill-rule="evenodd" clip-rule="evenodd" d="M15.7114 12.1442C15.8251 12.1442 15.9184 12.0509 15.9184 11.9373C15.9184 11.8236 15.8251 11.7303 15.7114 11.7303C15.5978 11.7303 15.5045 11.8236 15.5045 11.9373C15.5045 12.0509 15.5978 12.1442 15.7114 12.1442Z" fill="#C0C0C0"/>
<path fill-rule="evenodd" clip-rule="evenodd" d="M8.17191 5.81421C10.7511 5.81421 12.5377 8.14572 12.5114 10.6084H5.66553C5.71508 11.8091 6.33001 12.8291 7.19267 13.278C8.50706 13.9599 11.3836 13.2342 12.1034 12.2229C12.1238 12.9049 12.1413 13.5869 12.1617 14.2689C11.1592 15.184 8.30014 15.5745 6.83129 15.0557C5.08848 14.4408 3.82947 12.6572 3.82947 10.5501C3.82947 7.93588 5.77337 5.81421 8.17191 5.81421ZM10.5705 9.57668C10.2848 8.41967 9.44841 7.37049 8.17191 7.37049C7.03238 7.37049 6.07063 8.30018 5.76462 9.57668H10.5705Z" fill="#231F20"/>
</g>
</g>
<defs>
<clipPath id="clip0_1801_10506">
<rect width="80" height="18.518" fill="white"/>
</clipPath>
<clipPath id="clip1_1801_10506">
<rect width="80" height="18.518" fill="white"/>
</clipPath>
</defs>
</svg>
