<svg width="78" height="35" viewBox="0 0 78 35" fill="none" xmlns="http://www.w3.org/2000/svg">
<g clip-path="url(#clip0_1801_10203)">
<g clip-path="url(#clip1_1801_10203)">
<path d="M4.43 10.71V28.62C4.43 28.62 4.72 30.59 3.66 31.68C2.96 32.4 1.72 32.63 0.02 32.35L0 34.27C2.36 34.64 3.88 34.22 5.05 33.03C6.82 31.24 6.37 28.4 6.35 28.3L6.37 28.45V10.71H4.43ZM21.84 22.04H23.81V0.15H21.84V22.04ZM28.3 11.05L22.42 16.31L23.73 17.7L31.33 11.03L28.29 11.05H28.3ZM31.91 21.91L24.73 14.32L23.34 15.66L29.19 21.89L31.91 21.91ZM43.75 13.82C43.4 12.5 41.88 10.15 38.32 9.98C35.48 9.88 32.16 11.27 32.16 14.26L32.26 18.45C32.26 18.65 32.59 20.09 33.78 21.31C34.5 22.03 35.44 22.21 36.6 22.21H39.39C40.56 22.28 43.03 21.26 43.78 17.69H41.91C41.31 20.34 39.47 20.26 39.44 20.26H36.46C35.84 20.26 35.34 20.09 34.99 19.74C34.34 19.09 34.19 18.07 34.19 18.07L34.12 14.26C34.12 11.84 37.36 11.92 38.33 11.87C40.67 11.79 41.57 13.24 41.64 13.49L41.76 13.82H43.76H43.75ZM61.18 21.39V14.69C61.23 14.39 61.63 11.82 65.02 12.07L65.05 10.12C60.76 9.8 59.45 12.84 59.27 14.48L59.24 14.53V21.38H61.19L61.18 21.39ZM75.96 0V17.04C75.96 17.04 75.96 18.76 75.06 19.68C74.66 20.07 74.14 20.28 73.44 20.28H71.42C71.42 20.28 70.3 20.33 69.35 19.58C68.9 19.24 68.58 18.61 68.58 17.84V14.53C68.58 14.53 69.32 12.52 70.94 12.16H73.01C73.01 12.16 75.37 12.11 75.95 14.36L77.07 13.56C77.07 11.27 74.65 10.37 73.21 10.23H70.67C67.88 11.05 66.64 13.44 66.64 14.59V17.85C66.64 19.17 67.17 20.32 68.06 21.02C69.56 22.21 71.25 22.24 71.47 22.24H73.44C74.66 22.24 75.68 21.84 76.46 21.04C77.93 19.52 77.9 17.12 77.9 17.03V0H75.96ZM36.97 23.77C37.14 24.19 41.4 34.23 56.5 34.23H56.57C59.66 34.28 67.53 33.34 74.46 23.77H72.05C65.65 32.61 57.05 32.48 56.6 32.28H56.5C43.07 32.28 39.43 23.84 39.38 23.74L36.97 23.77ZM11.26 19.85C11.04 19.65 10.94 19.35 10.94 18.9V18.8L10.91 18.7C10.91 18.7 10.89 18.58 10.89 18.41C10.89 18.2 10.94 17.93 11.09 17.73C11.37 17.41 11.94 17.35 12.39 17.35H17.52V18.82C17.49 19.09 17.27 20.19 16.23 20.19H12.24C12.07 20.19 11.56 20.14 11.27 19.84M16.2 10.07L12.89 10.05C10.45 10.25 9.68 12.13 9.68 12.84H11.62C11.62 12.84 12.02 11.99 12.69 11.99H16.33C16.6 12.04 17.53 12.71 17.53 13.98V15.37H12.4C11.13 15.37 10.18 15.77 9.58 16.52C9.08 17.14 8.96 17.87 8.96 18.39C8.96 18.73 9.01 18.98 9.03 19.06C9.08 20.18 9.54 20.88 9.93 21.25C10.85 22.15 12.15 22.15 12.3 22.12H16.24C18.53 22.12 19.35 20.08 19.48 18.98V14.2C19.32 11.23 17.21 10.19 16.31 10.06L15.89 10.04L16.22 10.06L16.2 10.07ZM48.49 19.84C48.29 19.64 48.19 19.34 48.19 18.89V18.79L48.17 18.69C48.17 18.69 48.14 18.57 48.14 18.4C48.14 18.19 48.17 17.92 48.31 17.72C48.58 17.4 49.16 17.34 49.61 17.34H54.73V18.81C54.71 19.08 54.49 20.18 53.44 20.18H49.48C49.28 20.18 48.79 20.13 48.49 19.83M53.45 10.06L50.14 10.04C47.67 10.24 46.9 12.12 46.9 12.83H48.85C48.85 12.83 49.27 11.98 49.92 11.98H53.58C53.86 12.03 54.75 12.7 54.75 13.97V15.36H49.63C48.36 15.36 47.41 15.76 46.81 16.51C46.31 17.13 46.19 17.86 46.19 18.38C46.19 18.72 46.24 18.97 46.27 19.05C46.32 20.17 46.77 20.87 47.17 21.24C48.12 22.14 49.39 22.14 49.54 22.11H53.47C55.76 22.11 56.61 20.07 56.71 18.97V14.19C56.56 11.22 54.44 10.18 53.55 10.05L53.13 10.03L53.48 10.05L53.45 10.06Z" fill="#241F1F"/>
<path d="M4.92997 3.02002C4.69997 3.32002 4.85997 3.54002 4.85997 3.54002L7.54997 8.87002H8.58997L5.24997 2.40002C5.17997 2.72002 4.92997 3.02002 4.92997 3.02002ZM2.88997 6.35002C2.58997 6.71002 2.75997 7.00002 2.75997 7.00002L3.75997 8.87002H5.00997L3.28997 5.56002C3.18997 5.96002 2.88997 6.35002 2.88997 6.35002ZM3.87997 4.59002C3.72997 4.79002 3.84997 5.01002 3.84997 5.01002L5.81997 8.87002H6.66997L4.14997 4.01002C4.06997 4.31002 3.86997 4.58002 3.86997 4.58002M1.87997 7.92002C1.63997 8.24002 1.77997 8.49002 1.77997 8.49002L1.97997 8.86002H3.07997L2.22997 7.24002C2.15997 7.59002 1.87997 7.91002 1.87997 7.91002" fill="#E71722"/>
</g>
</g>
<defs>
<clipPath id="clip0_1801_10203">
<rect width="77.9" height="34.41" fill="white"/>
</clipPath>
<clipPath id="clip1_1801_10203">
<rect width="77.9" height="34.41" fill="white"/>
</clipPath>
</defs>
</svg>
