<svg width="80" height="18" viewBox="0 0 80 18" fill="none" xmlns="http://www.w3.org/2000/svg">
<g clip-path="url(#clip0_1801_10352)">
<g clip-path="url(#clip1_1801_10352)">
<path fill-rule="evenodd" clip-rule="evenodd" d="M44.0296 0.427368C48.1912 0.427368 51.5628 3.588 51.5628 7.48817C51.5628 11.3883 48.1912 14.549 44.0296 14.549C39.8679 14.549 36.4963 11.3883 36.4963 7.48817C36.4963 3.588 39.8707 0.427368 44.0296 0.427368ZM41.3441 4.80276V10.1736H46.715V4.80276H41.3441Z" fill="#F16626"/>
<path fill-rule="evenodd" clip-rule="evenodd" d="M24.5511 5.11208C25.9852 5.11208 27.155 4.92087 28.3079 6.07377C29.3061 5.07834 30.6896 5.11208 32.0647 5.11208C33.9824 5.11208 35.5543 6.68115 35.5487 8.59609L35.5318 14.279H34.5954C32.9139 14.279 33.0264 13.1796 33.0348 12.3472V8.63265C33.0348 7.7525 32.3149 7.02983 31.432 7.02983H31.2323C30.3522 7.02983 29.6295 7.7525 29.6295 8.63265V14.279H26.9891V8.62983C26.9891 7.74969 26.2692 7.02702 25.3863 7.02702H25.1866C24.3065 7.02702 23.5838 7.74969 23.5838 8.62983V14.2762H21.0699V8.59609C21.0699 6.67834 22.639 5.11208 24.554 5.11208H24.5511Z" fill="#2E3191"/>
<path fill-rule="evenodd" clip-rule="evenodd" d="M60.9321 8.59612L60.9153 14.2791H59.9789C58.2973 14.2791 58.4098 13.1796 58.4183 12.3473V8.63268C58.4183 7.75254 57.6984 7.02986 56.8154 7.02986H56.6158C55.7357 7.02986 55.013 7.75254 55.013 8.63268V14.2791H52.3726V8.62986C52.3726 7.58663 52.6706 6.90333 53.143 6.40561C55.2183 4.22916 60.9434 4.52723 60.9321 8.59612Z" fill="#2E3191"/>
<path fill-rule="evenodd" clip-rule="evenodd" d="M9.4481 5.20215H10.5701C12.6565 5.20215 14.3606 6.909 14.3606 8.99266V10.3255H8.06462C8.06462 10.6601 8.04494 11.0088 8.08431 11.3406C8.18554 12.1589 8.79292 12.8282 9.75742 12.8282H10.2579C11.0481 12.8282 11.7145 12.2798 11.9001 11.5459H14.2678C13.8882 13.2359 12.3697 14.5069 10.5701 14.5069H9.4481C7.36445 14.5069 5.65759 12.8 5.65759 10.7164V8.99266C5.65759 6.909 7.36445 5.20215 9.4481 5.20215ZM9.75742 7.10865C8.82666 7.10865 8.06462 7.87069 8.06462 8.80144V8.97579H11.9535V8.80144C11.9535 7.87069 11.1915 7.10865 10.2608 7.10865H9.76023H9.75742Z" fill="#2E3191"/>
<path fill-rule="evenodd" clip-rule="evenodd" d="M16.0281 8.84082H20.2657V10.7333H15.0833V9.78564C15.0833 9.26543 15.5107 8.83801 16.0309 8.83801L16.0281 8.84082Z" fill="#2E3191"/>
<path fill-rule="evenodd" clip-rule="evenodd" d="M65.51 5.20215H66.632C68.7156 5.20215 70.4225 6.909 70.4225 8.99266V10.3255H64.1265C64.1265 10.6601 64.1068 11.0088 64.1462 11.3406C64.2474 12.1589 64.8548 12.8282 65.8193 12.8282H66.3198C67.11 12.8282 67.7764 12.2798 67.962 11.5459H70.3297C69.9501 13.2359 68.4316 14.5069 66.632 14.5069H65.51C63.4263 14.5069 61.7195 12.8 61.7195 10.7164V8.99266C61.7195 6.909 63.4263 5.20215 65.51 5.20215ZM65.8193 7.10865C64.8886 7.10865 64.1265 7.87069 64.1265 8.80144V8.97579H68.0154V8.80144C68.0154 7.87069 67.2534 7.10865 66.3226 7.10865H65.8221H65.8193Z" fill="#2E3191"/>
<path fill-rule="evenodd" clip-rule="evenodd" d="M1.32443 9.68998C1.32443 10.0555 1.02637 10.3536 0.660813 10.3536C0.295259 10.3536 -0.00280762 10.0555 -0.00280762 9.68998C4.33349e-06 7.01582 1.08542 4.59191 2.83726 2.83726C4.59192 1.08541 7.01582 0 9.68999 0C10.0555 0 10.3536 0.295255 10.3536 0.66362C10.3536 1.03199 10.0555 1.32724 9.68999 1.32724C7.38137 1.32724 5.28928 2.26362 3.77364 3.77645C2.26081 5.28928 1.32443 7.38137 1.32443 9.68998ZM3.44183 9.68998C3.44183 7.96344 4.14201 6.40281 5.27241 5.27241C6.40282 4.142 7.96626 3.44183 9.68999 3.44183C10.0555 3.44183 10.3536 3.14376 10.3536 2.77821C10.3536 2.41265 10.0555 2.11459 9.68999 2.11459C7.59789 2.11459 5.70545 2.9638 4.33322 4.33322C2.96099 5.70263 2.11459 7.59789 2.11459 9.68998C2.11459 10.0555 2.41266 10.3536 2.77821 10.3536C3.14377 10.3536 3.44183 10.0555 3.44183 9.68998Z" fill="#F16626"/>
<path fill-rule="evenodd" clip-rule="evenodd" d="M70.3522 5.2583H73.3188C73.9627 7.29978 74.6039 9.34125 75.2478 11.3827C75.8158 9.67869 76.3838 7.97183 76.9518 6.26779C77.1684 5.61542 77.3539 5.3061 78.3803 5.3061H79.9972C78.743 8.73106 77.4889 12.156 76.2348 15.581C75.8636 16.7985 74.9075 17.4115 73.8221 17.4369C72.7367 17.4622 72.4724 17.4369 71.7947 17.4369V15.581H73.0741C73.7406 15.6288 74.0583 15.311 74.0133 14.6165C72.7901 11.498 71.5698 8.37957 70.3466 5.2583H70.3522Z" fill="#2E3191"/>
</g>
</g>
<defs>
<clipPath id="clip0_1801_10352">
<rect width="80" height="17.4482" fill="white"/>
</clipPath>
<clipPath id="clip1_1801_10352">
<rect width="80" height="17.4482" fill="white"/>
</clipPath>
</defs>
</svg>
